<svg width="108" height="14" viewBox="0 0 108 14" fill="none" xmlns="http://www.w3.org/2000/svg">
<path d="M1.29217 10.3208H-0.000443868L3.73819 0.138982H5.01092L8.74956 10.3208H7.45694L4.41433 1.74978H4.33478L1.29217 10.3208ZM1.76944 6.34353H6.97967V7.43728H1.76944V6.34353ZM14.9889 7.19864V2.68444H16.1622V10.3208H14.9889V9.02819H14.9094C14.7304 9.41597 14.452 9.74575 14.0741 10.0175C13.6963 10.286 13.219 10.4202 12.6423 10.4202C12.165 10.4202 11.7408 10.3158 11.3696 10.107C10.9984 9.8949 10.7067 9.57672 10.4946 9.15248C10.2825 8.72492 10.1764 8.18633 10.1764 7.53671V2.68444H11.3497V7.45716C11.3497 8.01398 11.5055 8.45811 11.817 8.78955C12.1319 9.12099 12.5329 9.28671 13.0202 9.28671C13.3118 9.28671 13.6085 9.21214 13.9101 9.06299C14.215 8.91384 14.4702 8.68515 14.6757 8.37691C14.8845 8.06867 14.9889 7.67591 14.9889 7.19864ZM21.6322 2.68444V3.67875H17.6748V2.68444H21.6322ZM18.8282 0.854892H20.0015V8.1333C20.0015 8.46474 20.0496 8.71332 20.1457 8.87904C20.2451 9.04144 20.3711 9.15082 20.5235 9.20716C20.6793 9.26019 20.8434 9.28671 21.0157 9.28671C21.145 9.28671 21.251 9.28008 21.3339 9.26682C21.4168 9.25025 21.483 9.23699 21.5328 9.22705L21.7714 10.281C21.6919 10.3109 21.5808 10.3407 21.4383 10.3705C21.2958 10.4037 21.1151 10.4202 20.8964 10.4202C20.565 10.4202 20.2401 10.349 19.922 10.2065C19.6071 10.0639 19.3453 9.84684 19.1365 9.55518C18.931 9.26351 18.8282 8.89561 18.8282 8.45148V0.854892ZM26.4173 10.4799C25.728 10.4799 25.1231 10.3158 24.6027 9.9877C24.0857 9.65958 23.6813 9.20054 23.3896 8.61057C23.1013 8.02061 22.9571 7.33122 22.9571 6.54239C22.9571 5.74694 23.1013 5.05257 23.3896 4.45929C23.6813 3.86602 24.0857 3.40532 24.6027 3.07719C25.1231 2.74907 25.728 2.58501 26.4173 2.58501C27.1067 2.58501 27.71 2.74907 28.227 3.07719C28.7474 3.40532 29.1517 3.86602 29.4401 4.45929C29.7317 5.05257 29.8776 5.74694 29.8776 6.54239C29.8776 7.33122 29.7317 8.02061 29.4401 8.61057C29.1517 9.20054 28.7474 9.65958 28.227 9.9877C27.71 10.3158 27.1067 10.4799 26.4173 10.4799ZM26.4173 9.42591C26.941 9.42591 27.3719 9.29168 27.71 9.02322C28.048 8.75475 28.2983 8.40177 28.4607 7.96427C28.6231 7.52677 28.7043 7.05281 28.7043 6.54239C28.7043 6.03197 28.6231 5.55636 28.4607 5.11554C28.2983 4.67473 28.048 4.31843 27.71 4.04665C27.3719 3.77487 26.941 3.63898 26.4173 3.63898C25.8937 3.63898 25.4628 3.77487 25.1247 4.04665C24.7867 4.31843 24.5364 4.67473 24.374 5.11554C24.2116 5.55636 24.1304 6.03197 24.1304 6.54239C24.1304 7.05281 24.2116 7.52677 24.374 7.96427C24.5364 8.40177 24.7867 8.75475 25.1247 9.02322C25.4628 9.29168 25.8937 9.42591 26.4173 9.42591ZM41.3334 2.68444C41.2737 2.18065 41.0318 1.78955 40.6075 1.51114C40.1833 1.23273 39.6629 1.09353 39.0464 1.09353C38.5957 1.09353 38.2013 1.16644 37.8632 1.31228C37.5284 1.45811 37.2666 1.65863 37.0777 1.91384C36.8921 2.16905 36.7993 2.45906 36.7993 2.78387C36.7993 3.05565 36.8639 3.28931 36.9932 3.48486C37.1257 3.6771 37.2948 3.83785 37.5003 3.96711C37.7058 4.09305 37.9212 4.19746 38.1466 4.28032C38.372 4.35986 38.5791 4.42449 38.768 4.47421L39.8021 4.75262C40.0673 4.82222 40.3622 4.91834 40.6871 5.04097C41.0152 5.1636 41.3284 5.33098 41.6267 5.5431C41.9283 5.75191 42.1769 6.02037 42.3724 6.3485C42.568 6.67662 42.6657 7.07932 42.6657 7.5566C42.6657 8.10679 42.5216 8.60394 42.2332 9.04807C41.9482 9.4922 41.5306 9.84519 40.9804 10.107C40.4335 10.3689 39.769 10.4998 38.9868 10.4998C38.2576 10.4998 37.6262 10.3821 37.0926 10.1468C36.5623 9.91147 36.1447 9.58335 35.8398 9.16242C35.5381 8.74149 35.3675 8.25262 35.3277 7.6958H36.6004C36.6336 8.08027 36.7628 8.39845 36.9882 8.65035C37.2169 8.89893 37.5052 9.08453 37.8532 9.20716C38.2046 9.32648 38.5824 9.38614 38.9868 9.38614C39.4574 9.38614 39.88 9.30991 40.2545 9.15745C40.6291 9.00167 40.9257 8.78624 41.1444 8.51114C41.3632 8.23273 41.4726 7.90792 41.4726 7.53671C41.4726 7.19864 41.3781 6.92355 41.1892 6.71143C41.0003 6.4993 40.7517 6.32696 40.4434 6.19438C40.1352 6.0618 39.8021 5.9458 39.4442 5.84637L38.1913 5.48841C37.3959 5.25972 36.7661 4.93325 36.3021 4.50901C35.8381 4.08477 35.6061 3.52961 35.6061 2.84353C35.6061 2.27345 35.7602 1.77629 36.0684 1.35205C36.38 0.924494 36.7976 0.593054 37.3213 0.357732C37.8483 0.119096 38.4366 -0.000222325 39.0862 -0.000222325C39.7425 -0.000222325 40.3258 0.117439 40.8362 0.352761C41.3466 0.584768 41.751 0.90295 42.0493 1.30731C42.3509 1.71166 42.51 2.17071 42.5265 2.68444H41.3334ZM47.6361 10.4799C46.9202 10.4799 46.3037 10.3109 45.7867 9.97279C45.2696 9.63472 44.8719 9.16905 44.5935 8.57577C44.3151 7.9825 44.1759 7.3047 44.1759 6.54239C44.1759 5.76682 44.3184 5.0824 44.6034 4.48912C44.8918 3.89253 45.2928 3.42686 45.8066 3.09211C46.3236 2.75404 46.9268 2.58501 47.6162 2.58501C48.1531 2.58501 48.637 2.68444 49.0679 2.8833C49.4988 3.08216 49.8518 3.36057 50.1269 3.71853C50.402 4.07648 50.5727 4.4941 50.6389 4.97137H49.4656C49.3762 4.62336 49.1773 4.31512 48.8691 4.04665C48.5641 3.77487 48.1531 3.63898 47.6361 3.63898C47.1787 3.63898 46.7777 3.7583 46.433 3.99694C46.0916 4.23226 45.8248 4.56536 45.6325 4.99623C45.4436 5.42378 45.3492 5.92591 45.3492 6.50262C45.3492 7.09258 45.442 7.60631 45.6276 8.04381C45.8165 8.48131 46.0816 8.82104 46.423 9.06299C46.7677 9.30494 47.1721 9.42591 47.6361 9.42591C47.941 9.42591 48.2178 9.37288 48.4664 9.26682C48.7149 9.16076 48.9254 9.0083 49.0977 8.80944C49.2701 8.61057 49.3927 8.37194 49.4656 8.09353H50.6389C50.5727 8.54429 50.4086 8.9503 50.1468 9.31157C49.8882 9.66952 49.5452 9.95456 49.1176 10.1667C48.6934 10.3755 48.1995 10.4799 47.6361 10.4799ZM52.3541 10.3208V2.68444H53.4877V3.83785H53.5672C53.7064 3.46001 53.9583 3.15342 54.3229 2.9181C54.6875 2.68278 55.0985 2.56512 55.5558 2.56512C55.642 2.56512 55.7497 2.56678 55.879 2.57009C56.0083 2.5734 56.106 2.57838 56.1723 2.58501V3.77819C56.1325 3.76824 56.0414 3.75333 55.8989 3.73344C55.7597 3.71024 55.6122 3.69864 55.4564 3.69864C55.0852 3.69864 54.7538 3.77653 54.4621 3.93231C54.1737 4.08477 53.945 4.29689 53.776 4.56867C53.6103 4.83714 53.5274 5.14372 53.5274 5.48841V10.3208H52.3541ZM60.433 10.4799C59.7436 10.4799 59.1387 10.3158 58.6183 9.9877C58.1013 9.65958 57.6969 9.20054 57.4053 8.61057C57.1169 8.02061 56.9727 7.33122 56.9727 6.54239C56.9727 5.74694 57.1169 5.05257 57.4053 4.45929C57.6969 3.86602 58.1013 3.40532 58.6183 3.07719C59.1387 2.74907 59.7436 2.58501 60.433 2.58501C61.1224 2.58501 61.7256 2.74907 62.2426 3.07719C62.763 3.40532 63.1673 3.86602 63.4557 4.45929C63.7474 5.05257 63.8932 5.74694 63.8932 6.54239C63.8932 7.33122 63.7474 8.02061 63.4557 8.61057C63.1673 9.20054 62.763 9.65958 62.2426 9.9877C61.7256 10.3158 61.1224 10.4799 60.433 10.4799ZM60.433 9.42591C60.9566 9.42591 61.3875 9.29168 61.7256 9.02322C62.0637 8.75475 62.3139 8.40177 62.4763 7.96427C62.6387 7.52677 62.7199 7.05281 62.7199 6.54239C62.7199 6.03197 62.6387 5.55636 62.4763 5.11554C62.3139 4.67473 62.0637 4.31843 61.7256 4.04665C61.3875 3.77487 60.9566 3.63898 60.433 3.63898C59.9093 3.63898 59.4784 3.77487 59.1404 4.04665C58.8023 4.31843 58.5521 4.67473 58.3896 5.11554C58.2272 5.55636 58.146 6.03197 58.146 6.54239C58.146 7.05281 58.2272 7.52677 58.3896 7.96427C58.5521 8.40177 58.8023 8.75475 59.1404 9.02322C59.4784 9.29168 59.9093 9.42591 60.433 9.42591ZM66.8575 0.138982V10.3208H65.6842V0.138982H66.8575ZM70.1798 0.138982V10.3208H69.0065V0.138982H70.1798ZM76.4253 10.3208V0.138982H79.8657C80.6644 0.138982 81.3174 0.283158 81.8245 0.571511C82.3349 0.856549 82.7127 1.24268 82.958 1.72989C83.2033 2.21711 83.3259 2.76067 83.3259 3.36057C83.3259 3.96048 83.2033 4.5057 82.958 4.99623C82.7161 5.48676 82.3415 5.87786 81.8344 6.16952C81.3273 6.45787 80.6777 6.60205 79.8856 6.60205H77.4197V5.5083H79.8458C80.3927 5.5083 80.8318 5.41384 81.1633 5.22492C81.4947 5.036 81.735 4.78079 81.8841 4.45929C82.0366 4.13448 82.1128 3.76824 82.1128 3.36057C82.1128 2.9529 82.0366 2.58832 81.8841 2.26682C81.735 1.94533 81.493 1.69343 81.1583 1.51114C80.8235 1.32554 80.3794 1.23273 79.8259 1.23273H77.6583V10.3208H76.4253ZM87.4001 10.4998C86.9162 10.4998 86.4771 10.4086 86.0827 10.2263C85.6882 10.0407 85.375 9.77393 85.143 9.42591C84.911 9.07459 84.795 8.65035 84.795 8.15319C84.795 7.71569 84.8812 7.36105 85.0535 7.08927C85.2259 6.81417 85.4562 6.59874 85.7446 6.44296C86.0329 6.28718 86.3511 6.17118 86.6991 6.09495C87.0505 6.0154 87.4034 5.95243 87.7581 5.90603C88.2221 5.84637 88.5983 5.80162 88.8866 5.77179C89.1783 5.73865 89.3904 5.68396 89.523 5.60773C89.6589 5.5315 89.7268 5.39893 89.7268 5.21V5.17023C89.7268 4.6797 89.5926 4.29855 89.3241 4.02677C89.059 3.75499 88.6563 3.6191 88.116 3.6191C87.5559 3.6191 87.1167 3.74173 86.7986 3.98699C86.4804 4.23226 86.2567 4.4941 86.1274 4.7725L85.0138 4.37478C85.2126 3.91076 85.4778 3.54949 85.8092 3.29097C86.144 3.02913 86.5086 2.84684 86.903 2.7441C87.3007 2.63804 87.6918 2.58501 88.0763 2.58501C88.3215 2.58501 88.6032 2.61483 88.9214 2.67449C89.2429 2.73084 89.5528 2.8485 89.8511 3.02748C90.1527 3.20645 90.403 3.47658 90.6018 3.83785C90.8007 4.19911 90.9001 4.68302 90.9001 5.28955V10.3208H89.7268V9.28671H89.6672C89.5876 9.45243 89.455 9.62975 89.2694 9.81867C89.0838 10.0076 88.8369 10.1683 88.5287 10.3009C88.2204 10.4335 87.8443 10.4998 87.4001 10.4998ZM87.5791 9.4458C88.0431 9.4458 88.4342 9.35465 88.7524 9.17236C89.0739 8.99007 89.3158 8.75475 89.4782 8.4664C89.644 8.17805 89.7268 7.87478 89.7268 7.5566V6.48273C89.6771 6.54239 89.5677 6.59708 89.3987 6.64679C89.233 6.6932 89.0407 6.73463 88.822 6.77108C88.6066 6.80423 88.3961 6.83406 88.1906 6.86057C87.9884 6.88377 87.8244 6.90366 87.6984 6.92023C87.3935 6.96001 87.1085 7.02464 86.8433 7.11412C86.5815 7.2003 86.3693 7.33122 86.2069 7.50688C86.0479 7.67923 85.9683 7.91455 85.9683 8.21285C85.9683 8.62052 86.1191 8.92876 86.4207 9.13756C86.7256 9.34305 87.1118 9.4458 87.5791 9.4458ZM96.124 13.3435C95.5573 13.3435 95.07 13.2706 94.6624 13.1248C94.2547 12.9823 93.915 12.7933 93.6432 12.558C93.3747 12.326 93.161 12.0774 93.0019 11.8123L93.9365 11.156C94.0426 11.2952 94.1768 11.4543 94.3392 11.6333C94.5016 11.8156 94.7237 11.973 95.0054 12.1056C95.2905 12.2415 95.6633 12.3094 96.124 12.3094C96.7405 12.3094 97.2493 12.1603 97.6503 11.862C98.0513 11.5637 98.2519 11.0964 98.2519 10.46V8.90887H98.1524C98.0663 9.04807 97.9436 9.22042 97.7845 9.42591C97.6288 9.62809 97.4034 9.80873 97.1084 9.96782C96.8167 10.1236 96.4223 10.2015 95.9252 10.2015C95.3087 10.2015 94.7552 10.0556 94.2646 9.76398C93.7774 9.47232 93.3913 9.04807 93.1063 8.49126C92.8245 7.93444 92.6837 7.2583 92.6837 6.46285C92.6837 5.68065 92.8212 4.99954 93.0963 4.41952C93.3714 3.83619 93.7542 3.38543 94.2448 3.06725C94.7353 2.74575 95.3021 2.58501 95.945 2.58501C96.4422 2.58501 96.8366 2.66787 97.1283 2.83359C97.4233 2.99599 97.6486 3.1816 97.8044 3.3904C97.9635 3.5959 98.0861 3.76493 98.1723 3.8975H98.2916V2.68444H99.4252V10.5396C99.4252 11.1958 99.276 11.7294 98.9777 12.1404C98.6827 12.5547 98.285 12.858 97.7845 13.0502C97.2874 13.2458 96.7339 13.3435 96.124 13.3435ZM96.0843 9.14751C96.5549 9.14751 96.9526 9.03979 97.2774 8.82435C97.6022 8.60892 97.8492 8.29902 98.0182 7.89466C98.1872 7.49031 98.2718 7.00641 98.2718 6.44296C98.2718 5.89277 98.1889 5.40721 98.0232 4.98628C97.8575 4.56536 97.6122 4.23557 97.2874 3.99694C96.9626 3.7583 96.5615 3.63898 96.0843 3.63898C95.5871 3.63898 95.1728 3.76493 94.8414 4.01682C94.5132 4.26872 94.2663 4.60679 94.1006 5.03103C93.9382 5.45527 93.857 5.92591 93.857 6.44296C93.857 6.97326 93.9398 7.44225 94.1056 7.84992C94.2746 8.25428 94.5232 8.57246 94.8513 8.80447C95.1827 9.03316 95.5937 9.14751 96.0843 9.14751ZM104.775 10.4799C104.039 10.4799 103.404 10.3175 102.87 9.99268C102.34 9.66455 101.931 9.20716 101.642 8.62052C101.357 8.03055 101.215 7.34448 101.215 6.56228C101.215 5.78008 101.357 5.09069 101.642 4.4941C101.931 3.89419 102.332 3.42686 102.846 3.09211C103.363 2.75404 103.966 2.58501 104.655 2.58501C105.053 2.58501 105.446 2.65129 105.834 2.78387C106.221 2.91644 106.574 3.13188 106.892 3.43018C107.211 3.72516 107.464 4.11626 107.653 4.60347C107.842 5.09069 107.937 5.69059 107.937 6.40319V6.90035H102.05V5.88614H106.743C106.743 5.45527 106.657 5.0708 106.485 4.73273C106.316 4.39466 106.074 4.12786 105.759 3.93231C105.447 3.73676 105.08 3.63898 104.655 3.63898C104.188 3.63898 103.784 3.75499 103.442 3.98699C103.104 4.21569 102.844 4.51398 102.662 4.88188C102.479 5.24978 102.388 5.64419 102.388 6.06512V6.74126C102.388 7.31796 102.488 7.80683 102.687 8.20787C102.889 8.6056 103.169 8.90887 103.527 9.11768C103.885 9.32317 104.301 9.42591 104.775 9.42591C105.083 9.42591 105.361 9.38283 105.61 9.29665C105.862 9.20716 106.079 9.07459 106.261 8.89893C106.443 8.71995 106.584 8.49788 106.684 8.23273L107.817 8.55091C107.698 8.93538 107.497 9.27345 107.216 9.56512C106.934 9.85347 106.586 10.0789 106.172 10.2413C105.757 10.4003 105.292 10.4799 104.775 10.4799Z" fill="black"/>
</svg>
