<svg width="268" height="24" viewBox="0 0 268 24" fill="none" xmlns="http://www.w3.org/2000/svg">
<path d="M0.000238419 22.7842V0.384178H5.18424V22.7842H0.000238419ZM10.5002 22.7842V0.384178H14.7882L24.3242 16.1922H22.0522L31.4282 0.384178H35.6842L35.7482 22.7842H30.8842L30.8522 7.84018H31.7482L24.2602 20.4162H21.9242L14.2762 7.84018H15.3642V22.7842H10.5002ZM41.0627 22.7842V0.384178H46.2467V18.5602H57.4787V22.7842H41.0627ZM69.4377 22.7842V0.384178H79.1337C81.1391 0.384178 82.8671 0.714845 84.3177 1.37618C85.7684 2.01618 86.8884 2.94418 87.6777 4.16018C88.4671 5.37618 88.8617 6.82685 88.8617 8.51218C88.8617 10.1762 88.4671 11.6162 87.6777 12.8322C86.8884 14.0482 85.7684 14.9868 84.3177 15.6482C82.8671 16.2882 81.1391 16.6082 79.1337 16.6082H72.3177L74.6217 14.2722V22.7842H69.4377ZM74.6217 14.8482L72.3177 12.3842H78.8457C80.4457 12.3842 81.6404 12.0428 82.4297 11.3602C83.2191 10.6775 83.6137 9.72818 83.6137 8.51218C83.6137 7.27485 83.2191 6.31485 82.4297 5.63218C81.6404 4.94951 80.4457 4.60818 78.8457 4.60818H72.3177L74.6217 2.14418V14.8482ZM88.4937 22.7842L98.4777 0.384178H103.598L113.614 22.7842H108.174L99.9817 3.00818H102.03L93.8057 22.7842H88.4937ZM93.4857 17.9842L94.8617 14.0482H106.382L107.79 17.9842H93.4857ZM126.345 23.1682C124.617 23.1682 123.007 22.8908 121.513 22.3362C120.041 21.7602 118.761 20.9495 117.673 19.9042C116.585 18.8588 115.732 17.6322 115.113 16.2242C114.516 14.8162 114.217 13.2695 114.217 11.5842C114.217 9.89885 114.516 8.35218 115.113 6.94418C115.732 5.53618 116.585 4.30951 117.673 3.26418C118.783 2.21885 120.073 1.41884 121.545 0.864178C123.017 0.288179 124.628 0.000179291 126.377 0.000179291C128.319 0.000179291 130.068 0.341513 131.625 1.02418C133.204 1.68551 134.527 2.66685 135.593 3.96818L132.265 7.04018C131.497 6.16551 130.644 5.51484 129.705 5.08818C128.767 4.64018 127.743 4.41618 126.633 4.41618C125.588 4.41618 124.628 4.58685 123.753 4.92818C122.879 5.26951 122.121 5.76018 121.481 6.40018C120.841 7.04018 120.34 7.79751 119.977 8.67218C119.636 9.54685 119.465 10.5175 119.465 11.5842C119.465 12.6508 119.636 13.6215 119.977 14.4962C120.34 15.3708 120.841 16.1282 121.481 16.7682C122.121 17.4082 122.879 17.8988 123.753 18.2402C124.628 18.5815 125.588 18.7522 126.633 18.7522C127.743 18.7522 128.767 18.5388 129.705 18.1122C130.644 17.6642 131.497 16.9922 132.265 16.0962L135.593 19.1682C134.527 20.4695 133.204 21.4615 131.625 22.1442C130.068 22.8268 128.308 23.1682 126.345 23.1682ZM143.734 17.6642L143.446 11.6802L154.166 0.384178H159.926L150.262 10.7842L147.382 13.8562L143.734 17.6642ZM139.094 22.7842V0.384178H144.246V22.7842H139.094ZM154.422 22.7842L146.454 13.0242L149.846 9.34418L160.47 22.7842H154.422ZM158.806 22.7842L168.79 0.384178H173.91L183.926 22.7842H178.486L170.294 3.00818H172.342L164.118 22.7842H158.806ZM163.798 17.9842L165.174 14.0482H176.694L178.102 17.9842H163.798ZM196.754 23.1682C194.983 23.1682 193.351 22.8908 191.858 22.3362C190.386 21.7602 189.095 20.9495 187.986 19.9042C186.898 18.8588 186.044 17.6322 185.426 16.2242C184.828 14.8162 184.53 13.2695 184.53 11.5842C184.53 9.89885 184.828 8.35218 185.426 6.94418C186.044 5.53618 186.908 4.30951 188.018 3.26418C189.127 2.21885 190.428 1.41884 191.922 0.864178C193.415 0.288179 195.058 0.000179291 196.85 0.000179291C198.834 0.000179291 200.615 0.330846 202.194 0.992178C203.794 1.65351 205.138 2.61351 206.226 3.87218L202.898 6.94418C202.087 6.09085 201.202 5.46151 200.242 5.05618C199.282 4.62951 198.236 4.41618 197.106 4.41618C196.018 4.41618 195.026 4.58685 194.13 4.92818C193.234 5.26951 192.455 5.76018 191.794 6.40018C191.154 7.04018 190.652 7.79751 190.29 8.67218C189.948 9.54685 189.778 10.5175 189.778 11.5842C189.778 12.6295 189.948 13.5895 190.29 14.4642C190.652 15.3388 191.154 16.1068 191.794 16.7682C192.455 17.4082 193.223 17.8988 194.098 18.2402C194.994 18.5815 195.975 18.7522 197.042 18.7522C198.066 18.7522 199.058 18.5922 200.018 18.2722C200.999 17.9308 201.948 17.3655 202.866 16.5762L205.81 20.3202C204.594 21.2375 203.175 21.9415 201.554 22.4322C199.954 22.9228 198.354 23.1682 196.754 23.1682ZM201.074 19.6482V11.2322H205.81V20.3202L201.074 19.6482ZM210.625 22.7842V0.384178H215.809V22.7842H210.625ZM221.125 22.7842V0.384178H225.413L238.629 16.5122H236.549V0.384178H241.669V22.7842H237.413L224.165 6.65618H226.245V22.7842H221.125ZM257.785 23.1682C256.014 23.1682 254.382 22.8908 252.889 22.3362C251.417 21.7602 250.126 20.9495 249.017 19.9042C247.929 18.8588 247.076 17.6322 246.457 16.2242C245.86 14.8162 245.561 13.2695 245.561 11.5842C245.561 9.89885 245.86 8.35218 246.457 6.94418C247.076 5.53618 247.94 4.30951 249.049 3.26418C250.158 2.21885 251.46 1.41884 252.953 0.864178C254.446 0.288179 256.089 0.000179291 257.881 0.000179291C259.865 0.000179291 261.646 0.330846 263.225 0.992178C264.825 1.65351 266.169 2.61351 267.257 3.87218L263.929 6.94418C263.118 6.09085 262.233 5.46151 261.273 5.05618C260.313 4.62951 259.268 4.41618 258.137 4.41618C257.049 4.41618 256.057 4.58685 255.161 4.92818C254.265 5.26951 253.486 5.76018 252.825 6.40018C252.185 7.04018 251.684 7.79751 251.321 8.67218C250.98 9.54685 250.809 10.5175 250.809 11.5842C250.809 12.6295 250.98 13.5895 251.321 14.4642C251.684 15.3388 252.185 16.1068 252.825 16.7682C253.486 17.4082 254.254 17.8988 255.129 18.2402C256.025 18.5815 257.006 18.7522 258.073 18.7522C259.097 18.7522 260.089 18.5922 261.049 18.2722C262.03 17.9308 262.98 17.3655 263.897 16.5762L266.841 20.3202C265.625 21.2375 264.206 21.9415 262.585 22.4322C260.985 22.9228 259.385 23.1682 257.785 23.1682ZM262.105 19.6482V11.2322H266.841V20.3202L262.105 19.6482Z" fill="#203E13"/>
</svg>
