<svg width="156" height="19" viewBox="0 0 156 19" fill="none" xmlns="http://www.w3.org/2000/svg">
<path d="M-0.000156164 14.8398V0.839843H6.05984C7.31318 0.839843 8.39318 1.04651 9.29984 1.45984C10.2065 1.85984 10.9065 2.43984 11.3998 3.19984C11.8932 3.95984 12.1398 4.86651 12.1398 5.91984C12.1398 6.95984 11.8932 7.85984 11.3998 8.61984C10.9065 9.37984 10.2065 9.96651 9.29984 10.3798C8.39318 10.7798 7.31318 10.9798 6.05984 10.9798H1.79984L3.23984 9.51984V14.8398H-0.000156164ZM3.23984 9.87984L1.79984 8.33984H5.87984C6.87984 8.33984 7.62651 8.12651 8.11984 7.69984C8.61318 7.27318 8.85984 6.67984 8.85984 5.91984C8.85984 5.14651 8.61318 4.54651 8.11984 4.11984C7.62651 3.69318 6.87984 3.47984 5.87984 3.47984H1.79984L3.23984 1.93984V9.87984ZM14.2134 14.8398V4.07984H17.1934V7.11984L16.7734 6.23984C17.0934 5.47984 17.6068 4.90651 18.3134 4.51984C19.0201 4.11984 19.8801 3.91984 20.8934 3.91984V6.79984C20.7601 6.78651 20.6401 6.77984 20.5334 6.77984C20.4268 6.76651 20.3134 6.75984 20.1934 6.75984C19.3401 6.75984 18.6468 7.00651 18.1134 7.49984C17.5934 7.97984 17.3334 8.73318 17.3334 9.75984V14.8398H14.2134ZM27.7905 14.9998C26.6438 14.9998 25.6238 14.7598 24.7305 14.2798C23.8505 13.7998 23.1505 13.1465 22.6305 12.3198C22.1238 11.4798 21.8705 10.5265 21.8705 9.45984C21.8705 8.37984 22.1238 7.42651 22.6305 6.59984C23.1505 5.75984 23.8505 5.10651 24.7305 4.63984C25.6238 4.15984 26.6438 3.91984 27.7905 3.91984C28.9238 3.91984 29.9371 4.15984 30.8305 4.63984C31.7238 5.10651 32.4238 5.75318 32.9305 6.57984C33.4371 7.40651 33.6905 8.36651 33.6905 9.45984C33.6905 10.5265 33.4371 11.4798 32.9305 12.3198C32.4238 13.1465 31.7238 13.7998 30.8305 14.2798C29.9371 14.7598 28.9238 14.9998 27.7905 14.9998ZM27.7905 12.4398C28.3105 12.4398 28.7771 12.3198 29.1905 12.0798C29.6038 11.8398 29.9305 11.4998 30.1705 11.0598C30.4105 10.6065 30.5305 10.0732 30.5305 9.45984C30.5305 8.83318 30.4105 8.29984 30.1705 7.85984C29.9305 7.41984 29.6038 7.07984 29.1905 6.83984C28.7771 6.59984 28.3105 6.47984 27.7905 6.47984C27.2705 6.47984 26.8038 6.59984 26.3905 6.83984C25.9771 7.07984 25.6438 7.41984 25.3905 7.85984C25.1505 8.29984 25.0305 8.83318 25.0305 9.45984C25.0305 10.0732 25.1505 10.6065 25.3905 11.0598C25.6438 11.4998 25.9771 11.8398 26.3905 12.0798C26.8038 12.3198 27.2705 12.4398 27.7905 12.4398ZM40.3959 14.9998C39.3826 14.9998 38.4693 14.7732 37.6559 14.3198C36.8426 13.8532 36.1959 13.2065 35.7159 12.3798C35.2493 11.5532 35.0159 10.5798 35.0159 9.45984C35.0159 8.32651 35.2493 7.34651 35.7159 6.51984C36.1959 5.69318 36.8426 5.05318 37.6559 4.59984C38.4693 4.14651 39.3826 3.91984 40.3959 3.91984C41.3026 3.91984 42.0959 4.11984 42.7759 4.51984C43.4559 4.91984 43.9826 5.52651 44.3559 6.33984C44.7293 7.15318 44.9159 8.19318 44.9159 9.45984C44.9159 10.7132 44.7359 11.7532 44.3759 12.5798C44.0159 13.3932 43.4959 13.9998 42.8159 14.3998C42.1493 14.7998 41.3426 14.9998 40.3959 14.9998ZM40.9359 12.4398C41.4426 12.4398 41.9026 12.3198 42.3159 12.0798C42.7293 11.8398 43.0559 11.4998 43.2959 11.0598C43.5493 10.6065 43.6759 10.0732 43.6759 9.45984C43.6759 8.83318 43.5493 8.29984 43.2959 7.85984C43.0559 7.41984 42.7293 7.07984 42.3159 6.83984C41.9026 6.59984 41.4426 6.47984 40.9359 6.47984C40.4159 6.47984 39.9493 6.59984 39.5359 6.83984C39.1226 7.07984 38.7893 7.41984 38.5359 7.85984C38.2959 8.29984 38.1759 8.83318 38.1759 9.45984C38.1759 10.0732 38.2959 10.6065 38.5359 11.0598C38.7893 11.4998 39.1226 11.8398 39.5359 12.0798C39.9493 12.3198 40.4159 12.4398 40.9359 12.4398ZM43.7559 14.8398V12.6398L43.8159 9.43984L43.6159 6.25984V-0.000157118H46.7359V14.8398H43.7559ZM54.1636 14.9998C53.2703 14.9998 52.4703 14.8265 51.7636 14.4798C51.0703 14.1332 50.5303 13.6065 50.1436 12.8998C49.7569 12.1798 49.5636 11.2665 49.5636 10.1598V4.07984H52.6836V9.69984C52.6836 10.5932 52.8703 11.2532 53.2436 11.6798C53.6303 12.0932 54.1703 12.2998 54.8636 12.2998C55.3436 12.2998 55.7703 12.1998 56.1436 11.9998C56.5169 11.7865 56.8103 11.4665 57.0236 11.0398C57.2369 10.5998 57.3436 10.0532 57.3436 9.39984V4.07984H60.4636V14.8398H57.5036V11.8798L58.0436 12.7398C57.6836 13.4865 57.1503 14.0532 56.4436 14.4398C55.7503 14.8132 54.9903 14.9998 54.1636 14.9998ZM68.5541 14.9998C67.3941 14.9998 66.3607 14.7665 65.4541 14.2998C64.5474 13.8198 63.8341 13.1598 63.3141 12.3198C62.8074 11.4798 62.5541 10.5265 62.5541 9.45984C62.5541 8.37984 62.8074 7.42651 63.3141 6.59984C63.8341 5.75984 64.5474 5.10651 65.4541 4.63984C66.3607 4.15984 67.3941 3.91984 68.5541 3.91984C69.6874 3.91984 70.6741 4.15984 71.5141 4.63984C72.3541 5.10651 72.9741 5.77984 73.3741 6.65984L70.9541 7.95984C70.6741 7.45318 70.3207 7.07984 69.8941 6.83984C69.4807 6.59984 69.0274 6.47984 68.5341 6.47984C68.0007 6.47984 67.5207 6.59984 67.0941 6.83984C66.6674 7.07984 66.3274 7.41984 66.0741 7.85984C65.8341 8.29984 65.7141 8.83318 65.7141 9.45984C65.7141 10.0865 65.8341 10.6198 66.0741 11.0598C66.3274 11.4998 66.6674 11.8398 67.0941 12.0798C67.5207 12.3198 68.0007 12.4398 68.5341 12.4398C69.0274 12.4398 69.4807 12.3265 69.8941 12.0998C70.3207 11.8598 70.6741 11.4798 70.9541 10.9598L73.3741 12.2798C72.9741 13.1465 72.3541 13.8198 71.5141 14.2998C70.6741 14.7665 69.6874 14.9998 68.5541 14.9998ZM79.7267 14.9998C78.4601 14.9998 77.4734 14.6798 76.7667 14.0398C76.0601 13.3865 75.7067 12.4198 75.7067 11.1398V1.69984H78.8267V11.0998C78.8267 11.5532 78.9467 11.9065 79.1867 12.1598C79.4267 12.3998 79.7534 12.5198 80.1667 12.5198C80.6601 12.5198 81.0801 12.3865 81.4267 12.1198L82.2667 14.3198C81.9467 14.5465 81.5601 14.7198 81.1067 14.8398C80.6667 14.9465 80.2067 14.9998 79.7267 14.9998ZM74.0467 6.71984V4.31984H81.5067V6.71984H74.0467ZM89.9022 14.8398V0.839843H95.9622C97.2155 0.839843 98.2955 1.04651 99.2022 1.45984C100.109 1.85984 100.809 2.43984 101.302 3.19984C101.796 3.95984 102.042 4.86651 102.042 5.91984C102.042 6.95984 101.796 7.85984 101.302 8.61984C100.809 9.36651 100.109 9.93984 99.2022 10.3398C98.2955 10.7398 97.2155 10.9398 95.9622 10.9398H91.7022L93.1422 9.51984V14.8398H89.9022ZM98.8022 14.8398L95.3022 9.75984H98.7622L102.302 14.8398H98.8022ZM93.1422 9.87984L91.7022 8.35984H95.7822C96.7822 8.35984 97.5289 8.14651 98.0222 7.71984C98.5155 7.27984 98.7622 6.67984 98.7622 5.91984C98.7622 5.14651 98.5155 4.54651 98.0222 4.11984C97.5289 3.69318 96.7822 3.47984 95.7822 3.47984H91.7022L93.1422 1.93984V9.87984ZM110.892 14.8398V12.7398L110.692 12.2798V8.51984C110.692 7.85318 110.485 7.33318 110.072 6.95984C109.672 6.58651 109.052 6.39984 108.212 6.39984C107.638 6.39984 107.072 6.49318 106.512 6.67984C105.965 6.85318 105.498 7.09318 105.112 7.39984L103.992 5.21984C104.578 4.80651 105.285 4.48651 106.112 4.25984C106.938 4.03318 107.778 3.91984 108.632 3.91984C110.272 3.91984 111.545 4.30651 112.452 5.07984C113.358 5.85318 113.812 7.05984 113.812 8.69984V14.8398H110.892ZM107.612 14.9998C106.772 14.9998 106.052 14.8598 105.452 14.5798C104.852 14.2865 104.392 13.8932 104.072 13.3998C103.752 12.9065 103.592 12.3532 103.592 11.7398C103.592 11.0998 103.745 10.5398 104.052 10.0598C104.372 9.57984 104.872 9.20651 105.552 8.93984C106.232 8.65984 107.118 8.51984 108.212 8.51984H111.072V10.3398H108.552C107.818 10.3398 107.312 10.4598 107.032 10.6998C106.765 10.9398 106.632 11.2398 106.632 11.5998C106.632 11.9998 106.785 12.3198 107.092 12.5598C107.412 12.7865 107.845 12.8998 108.392 12.8998C108.912 12.8998 109.378 12.7798 109.792 12.5398C110.205 12.2865 110.505 11.9198 110.692 11.4398L111.172 12.8798C110.945 13.5732 110.532 14.0998 109.932 14.4598C109.332 14.8198 108.558 14.9998 107.612 14.9998ZM123.175 3.91984C124.029 3.91984 124.789 4.09318 125.455 4.43984C126.135 4.77318 126.669 5.29318 127.055 5.99984C127.442 6.69318 127.635 7.58651 127.635 8.67984V14.8398H124.515V9.15984C124.515 8.29318 124.322 7.65318 123.935 7.23984C123.562 6.82651 123.029 6.61984 122.335 6.61984C121.842 6.61984 121.395 6.72651 120.995 6.93984C120.609 7.13984 120.302 7.45318 120.075 7.87984C119.862 8.30651 119.755 8.85318 119.755 9.51984V14.8398H116.635V4.07984H119.615V7.05984L119.055 6.15984C119.442 5.43984 119.995 4.88651 120.715 4.49984C121.435 4.11318 122.255 3.91984 123.175 3.91984ZM135.602 18.8798C134.588 18.8798 133.608 18.7532 132.662 18.4998C131.728 18.2598 130.948 17.8932 130.322 17.3998L131.562 15.1598C132.015 15.5332 132.588 15.8265 133.282 16.0398C133.988 16.2665 134.682 16.3798 135.362 16.3798C136.468 16.3798 137.268 16.1332 137.762 15.6398C138.268 15.1465 138.522 14.4132 138.522 13.4398V11.8198L138.722 9.11984L138.682 6.39984V4.07984H141.642V13.0398C141.642 15.0398 141.122 16.5132 140.082 17.4598C139.042 18.4065 137.548 18.8798 135.602 18.8798ZM135.122 14.3198C134.122 14.3198 133.215 14.1065 132.402 13.6798C131.602 13.2398 130.955 12.6332 130.462 11.8598C129.982 11.0732 129.742 10.1598 129.742 9.11984C129.742 8.06651 129.982 7.15318 130.462 6.37984C130.955 5.59318 131.602 4.98651 132.402 4.55984C133.215 4.13318 134.122 3.91984 135.122 3.91984C136.028 3.91984 136.828 4.10651 137.522 4.47984C138.215 4.83984 138.755 5.40651 139.142 6.17984C139.528 6.93984 139.722 7.91984 139.722 9.11984C139.722 10.3065 139.528 11.2865 139.142 12.0598C138.755 12.8198 138.215 13.3865 137.522 13.7598C136.828 14.1332 136.028 14.3198 135.122 14.3198ZM135.742 11.7598C136.288 11.7598 136.775 11.6532 137.202 11.4398C137.628 11.2132 137.962 10.8998 138.202 10.4998C138.442 10.0998 138.562 9.63984 138.562 9.11984C138.562 8.58651 138.442 8.12651 138.202 7.73984C137.962 7.33984 137.628 7.03318 137.202 6.81984C136.775 6.59318 136.288 6.47984 135.742 6.47984C135.195 6.47984 134.708 6.59318 134.282 6.81984C133.855 7.03318 133.515 7.33984 133.262 7.73984C133.022 8.12651 132.902 8.58651 132.902 9.11984C132.902 9.63984 133.022 10.0998 133.262 10.4998C133.515 10.8998 133.855 11.2132 134.282 11.4398C134.708 11.6532 135.195 11.7598 135.742 11.7598ZM149.885 14.9998C148.659 14.9998 147.579 14.7598 146.645 14.2798C145.725 13.7998 145.012 13.1465 144.505 12.3198C143.999 11.4798 143.745 10.5265 143.745 9.45984C143.745 8.37984 143.992 7.42651 144.485 6.59984C144.992 5.75984 145.679 5.10651 146.545 4.63984C147.412 4.15984 148.392 3.91984 149.485 3.91984C150.539 3.91984 151.485 4.14651 152.325 4.59984C153.179 5.03984 153.852 5.67984 154.345 6.51984C154.839 7.34651 155.085 8.33984 155.085 9.49984C155.085 9.61984 155.079 9.75984 155.065 9.91984C155.052 10.0665 155.039 10.2065 155.025 10.3398H146.285V8.51984H153.385L152.185 9.05984C152.185 8.49984 152.072 8.01318 151.845 7.59984C151.619 7.18651 151.305 6.86651 150.905 6.63984C150.505 6.39984 150.039 6.27984 149.505 6.27984C148.972 6.27984 148.499 6.39984 148.085 6.63984C147.685 6.86651 147.372 7.19318 147.145 7.61984C146.919 8.03318 146.805 8.52651 146.805 9.09984V9.57984C146.805 10.1665 146.932 10.6865 147.185 11.1398C147.452 11.5798 147.819 11.9198 148.285 12.1598C148.765 12.3865 149.325 12.4998 149.965 12.4998C150.539 12.4998 151.039 12.4132 151.465 12.2398C151.905 12.0665 152.305 11.8065 152.665 11.4598L154.325 13.2598C153.832 13.8198 153.212 14.2532 152.465 14.5598C151.719 14.8532 150.859 14.9998 149.885 14.9998Z" fill="black"/>
</svg>
