<svg width="76" height="33" viewBox="0 0 76 33" fill="none" xmlns="http://www.w3.org/2000/svg">
<path d="M0.924 12V3.54H4.62C5.508 3.54 6.196 3.736 6.684 4.128C7.172 4.512 7.416 5.048 7.416 5.736C7.416 6.248 7.268 6.68 6.972 7.032C6.676 7.384 6.272 7.62 5.76 7.74V7.56C6.152 7.616 6.488 7.736 6.768 7.92C7.048 8.104 7.26 8.34 7.404 8.628C7.556 8.916 7.632 9.252 7.632 9.636C7.632 10.132 7.516 10.56 7.284 10.92C7.06 11.272 6.732 11.54 6.3 11.724C5.868 11.908 5.352 12 4.752 12H0.924ZM2.4 10.836H4.56C4.776 10.836 4.968 10.82 5.136 10.788C5.312 10.756 5.46 10.708 5.58 10.644C5.708 10.572 5.812 10.484 5.892 10.38C5.98 10.276 6.044 10.156 6.084 10.02C6.124 9.884 6.144 9.732 6.144 9.564C6.144 9.388 6.124 9.232 6.084 9.096C6.044 8.96 5.98 8.844 5.892 8.748C5.812 8.644 5.708 8.56 5.58 8.496C5.46 8.424 5.312 8.372 5.136 8.34C4.968 8.308 4.776 8.292 4.56 8.292H2.4V10.836ZM2.4 7.128H4.356C4.884 7.128 5.276 7.028 5.532 6.828C5.796 6.62 5.928 6.316 5.928 5.916C5.928 5.516 5.796 5.216 5.532 5.016C5.276 4.808 4.884 4.704 4.356 4.704H2.4V7.128ZM11.7177 12.12C11.1097 12.12 10.5817 11.996 10.1337 11.748C9.68572 11.5 9.33772 11.148 9.08972 10.692C8.84172 10.228 8.71772 9.684 8.71772 9.06C8.71772 8.436 8.84172 7.896 9.08972 7.44C9.33772 6.984 9.68572 6.632 10.1337 6.384C10.5817 6.136 11.1097 6.012 11.7177 6.012C12.3257 6.012 12.8537 6.136 13.3017 6.384C13.7497 6.632 14.0977 6.984 14.3457 7.44C14.5937 7.896 14.7177 8.436 14.7177 9.06C14.7177 9.684 14.5937 10.228 14.3457 10.692C14.0977 11.148 13.7497 11.5 13.3017 11.748C12.8537 11.996 12.3257 12.12 11.7177 12.12ZM11.7177 10.98C12.1657 10.98 12.5257 10.82 12.7977 10.5C13.0697 10.172 13.2057 9.692 13.2057 9.06C13.2057 8.42 13.0697 7.944 12.7977 7.632C12.5257 7.312 12.1657 7.152 11.7177 7.152C11.2697 7.152 10.9097 7.312 10.6377 7.632C10.3657 7.944 10.2297 8.42 10.2297 9.06C10.2297 9.692 10.3657 10.172 10.6377 10.5C10.9097 10.82 11.2697 10.98 11.7177 10.98ZM18.5852 12.12C17.8012 12.12 17.2172 11.924 16.8332 11.532C16.4492 11.14 16.2572 10.568 16.2572 9.816V7.26H15.1292V6.132H16.2572V4.38H17.7572V6.132H19.5332V7.26H17.7572V9.732C17.7572 10.116 17.8412 10.404 18.0092 10.596C18.1772 10.788 18.4492 10.884 18.8252 10.884C18.9372 10.884 19.0532 10.872 19.1732 10.848C19.2932 10.816 19.4172 10.784 19.5452 10.752L19.7732 11.856C19.6292 11.936 19.4452 12 19.2212 12.048C19.0052 12.096 18.7932 12.12 18.5852 12.12ZM22.8508 12.12C22.0668 12.12 21.4828 11.924 21.0988 11.532C20.7148 11.14 20.5228 10.568 20.5228 9.816V7.26H19.3948V6.132H20.5228V4.38H22.0228V6.132H23.7988V7.26H22.0228V9.732C22.0228 10.116 22.1068 10.404 22.2748 10.596C22.4428 10.788 22.7148 10.884 23.0908 10.884C23.2028 10.884 23.3188 10.872 23.4388 10.848C23.5588 10.816 23.6828 10.784 23.8108 10.752L24.0388 11.856C23.8948 11.936 23.7108 12 23.4868 12.048C23.2708 12.096 23.0588 12.12 22.8508 12.12ZM27.3857 12.12C26.7777 12.12 26.2497 11.996 25.8017 11.748C25.3537 11.5 25.0057 11.148 24.7577 10.692C24.5097 10.228 24.3857 9.684 24.3857 9.06C24.3857 8.436 24.5097 7.896 24.7577 7.44C25.0057 6.984 25.3537 6.632 25.8017 6.384C26.2497 6.136 26.7777 6.012 27.3857 6.012C27.9937 6.012 28.5217 6.136 28.9697 6.384C29.4177 6.632 29.7657 6.984 30.0137 7.44C30.2617 7.896 30.3857 8.436 30.3857 9.06C30.3857 9.684 30.2617 10.228 30.0137 10.692C29.7657 11.148 29.4177 11.5 28.9697 11.748C28.5217 11.996 27.9937 12.12 27.3857 12.12ZM27.3857 10.98C27.8337 10.98 28.1937 10.82 28.4657 10.5C28.7377 10.172 28.8737 9.692 28.8737 9.06C28.8737 8.42 28.7377 7.944 28.4657 7.632C28.1937 7.312 27.8337 7.152 27.3857 7.152C26.9377 7.152 26.5777 7.312 26.3057 7.632C26.0337 7.944 25.8977 8.42 25.8977 9.06C25.8977 9.692 26.0337 10.172 26.3057 10.5C26.5777 10.82 26.9377 10.98 27.3857 10.98ZM31.6478 12V6.132H33.1118V7.308H32.9798C33.0838 7.036 33.2278 6.804 33.4118 6.612C33.5958 6.42 33.8158 6.272 34.0718 6.168C34.3278 6.064 34.6118 6.012 34.9238 6.012C35.3958 6.012 35.7838 6.124 36.0878 6.348C36.3918 6.572 36.6038 6.916 36.7238 7.38H36.5558C36.7158 6.956 36.9798 6.624 37.3478 6.384C37.7158 6.136 38.1398 6.012 38.6198 6.012C39.0678 6.012 39.4358 6.1 39.7238 6.276C40.0198 6.452 40.2398 6.72 40.3838 7.08C40.5278 7.432 40.5998 7.88 40.5998 8.424V12H39.0998V8.484C39.0998 8.036 39.0238 7.708 38.8718 7.5C38.7278 7.292 38.4798 7.188 38.1278 7.188C37.8718 7.188 37.6478 7.252 37.4557 7.38C37.2638 7.5 37.1158 7.676 37.0117 7.908C36.9158 8.14 36.8678 8.42 36.8678 8.748V12H35.3678V8.484C35.3678 8.036 35.2918 7.708 35.1398 7.5C34.9958 7.292 34.7518 7.188 34.4078 7.188C34.1438 7.188 33.9158 7.252 33.7238 7.38C33.5398 7.5 33.3958 7.676 33.2918 7.908C33.1958 8.14 33.1478 8.42 33.1478 8.748V12H31.6478Z" fill="#BC4544"/>
<path d="M3 28.8498C2.20667 28.8498 1.58667 28.6798 1.14 28.3398C0.693333 27.9931 0.47 27.5131 0.47 26.8998C0.47 26.5731 0.533333 26.2864 0.66 26.0398C0.793333 25.7931 0.976667 25.5898 1.21 25.4298C1.44333 25.2698 1.71 25.1664 2.01 25.1198V25.1998C1.74333 25.1331 1.50667 25.0198 1.3 24.8598C1.09333 24.6998 0.93 24.5031 0.81 24.2698C0.696667 24.0364 0.64 23.7798 0.64 23.4998C0.64 22.9131 0.853333 22.4531 1.28 22.1198C1.70667 21.7864 2.28 21.6198 3 21.6198C3.72 21.6198 4.29333 21.7864 4.72 22.1198C5.14667 22.4531 5.36 22.9131 5.36 23.4998C5.36 23.7798 5.3 24.0398 5.18 24.2798C5.06667 24.5131 4.90667 24.7098 4.7 24.8698C4.5 25.0231 4.26333 25.1331 3.99 25.1998V25.1198C4.29 25.1664 4.55333 25.2698 4.78 25.4298C5.01333 25.5898 5.19667 25.7931 5.33 26.0398C5.46333 26.2864 5.53 26.5731 5.53 26.8998C5.53 27.5131 5.30667 27.9931 4.86 28.3398C4.41333 28.6798 3.79333 28.8498 3 28.8498ZM3 28.1398C3.56 28.1398 3.98333 28.0298 4.27 27.8098C4.56333 27.5898 4.71 27.2664 4.71 26.8398C4.71 26.4131 4.56333 26.0898 4.27 25.8698C3.98333 25.6498 3.56 25.5398 3 25.5398C2.44667 25.5398 2.02333 25.6498 1.73 25.8698C1.43667 26.0898 1.29 26.4131 1.29 26.8398C1.29 27.2664 1.43667 27.5898 1.73 27.8098C2.02333 28.0298 2.44667 28.1398 3 28.1398ZM3 24.8298C3.48667 24.8298 3.86667 24.7198 4.14 24.4998C4.41333 24.2731 4.55 23.9631 4.55 23.5698C4.55 23.1831 4.41333 22.8798 4.14 22.6598C3.86667 22.4398 3.48667 22.3298 3 22.3298C2.52 22.3298 2.14333 22.4398 1.87 22.6598C1.59667 22.8798 1.46 23.1831 1.46 23.5698C1.46 23.9631 1.59667 24.2731 1.87 24.4998C2.14333 24.7198 2.52 24.8298 3 24.8298ZM7.07609 28.7598V28.0298H8.84609V22.4198L9.29609 22.4498L7.42609 23.6498L7.04609 22.9998L9.07609 21.7098H9.69609V28.0298H11.3361V28.7598H7.07609ZM12.6622 28.7598V27.6998H13.7522V28.7598H12.6622ZM17.5438 28.8498C17.2372 28.8498 16.9405 28.8164 16.6538 28.7498C16.3672 28.6831 16.1005 28.5864 15.8538 28.4598C15.6072 28.3331 15.3872 28.1798 15.1938 27.9998L15.5238 27.3198C15.8372 27.5864 16.1572 27.7831 16.4838 27.9098C16.8105 28.0364 17.1605 28.0998 17.5338 28.0998C18.0272 28.0998 18.4105 27.9664 18.6838 27.6998C18.9638 27.4331 19.1038 27.0731 19.1038 26.6198C19.1038 26.1598 18.9705 25.7864 18.7038 25.4998C18.4438 25.2131 18.0838 25.0698 17.6238 25.0698C17.2972 25.0698 17.0072 25.1364 16.7538 25.2698C16.5005 25.3964 16.2705 25.6064 16.0638 25.8998H15.4138V21.7098H19.5638V22.4498H16.2238V25.1698H16.0838C16.2572 24.9164 16.4872 24.7164 16.7738 24.5698C17.0672 24.4164 17.3972 24.3398 17.7638 24.3398C18.2105 24.3398 18.5972 24.4331 18.9238 24.6198C19.2505 24.8064 19.5005 25.0664 19.6738 25.3998C19.8538 25.7331 19.9438 26.1231 19.9438 26.5698C19.9438 27.0298 19.8438 27.4298 19.6438 27.7698C19.4505 28.1098 19.1738 28.3764 18.8138 28.5698C18.4605 28.7564 18.0372 28.8498 17.5438 28.8498ZM23.9357 28.7598V23.8598H24.7457V24.9398H24.6857C24.7724 24.7064 24.8924 24.5031 25.0457 24.3298C25.2057 24.1498 25.3957 24.0131 25.6157 23.9198C25.8357 23.8198 26.079 23.7698 26.3457 23.7698C26.7657 23.7698 27.109 23.8731 27.3757 24.0798C27.6424 24.2864 27.8157 24.5764 27.8957 24.9498H27.8157C27.9424 24.6031 28.1557 24.3198 28.4557 24.0998C28.7557 23.8798 29.119 23.7698 29.5457 23.7698C29.919 23.7698 30.229 23.8431 30.4757 23.9898C30.7224 24.1298 30.909 24.3431 31.0357 24.6298C31.1624 24.9164 31.2257 25.2798 31.2257 25.7198V28.7598H30.3857V25.7698C30.3857 25.3364 30.3057 25.0131 30.1457 24.7998C29.9924 24.5864 29.7257 24.4798 29.3457 24.4798C29.0724 24.4798 28.8324 24.5464 28.6257 24.6798C28.4257 24.8064 28.2724 24.9831 28.1657 25.2098C28.059 25.4364 28.0057 25.7031 28.0057 26.0098V28.7598H27.1557V25.7698C27.1557 25.3364 27.0724 25.0131 26.9057 24.7998C26.7457 24.5864 26.4857 24.4798 26.1257 24.4798C25.8524 24.4798 25.6124 24.5464 25.4057 24.6798C25.2057 24.8131 25.0524 24.9964 24.9457 25.2298C24.839 25.4564 24.7857 25.7098 24.7857 25.9898V28.7598H23.9357ZM32.881 28.7598V23.8598H33.691V24.9398H33.631C33.7177 24.7064 33.8377 24.5031 33.991 24.3298C34.151 24.1498 34.341 24.0131 34.561 23.9198C34.781 23.8198 35.0243 23.7698 35.291 23.7698C35.711 23.7698 36.0543 23.8731 36.321 24.0798C36.5877 24.2864 36.761 24.5764 36.841 24.9498H36.761C36.8877 24.6031 37.101 24.3198 37.401 24.0998C37.701 23.8798 38.0643 23.7698 38.491 23.7698C38.8643 23.7698 39.1743 23.8431 39.421 23.9898C39.6677 24.1298 39.8543 24.3431 39.981 24.6298C40.1077 24.9164 40.171 25.2798 40.171 25.7198V28.7598H39.331V25.7698C39.331 25.3364 39.251 25.0131 39.091 24.7998C38.9377 24.5864 38.671 24.4798 38.291 24.4798C38.0177 24.4798 37.7777 24.5464 37.571 24.6798C37.371 24.8064 37.2177 24.9831 37.111 25.2098C37.0043 25.4364 36.951 25.7031 36.951 26.0098V28.7598H36.101V25.7698C36.101 25.3364 36.0177 25.0131 35.851 24.7998C35.691 24.5864 35.431 24.4798 35.071 24.4798C34.7977 24.4798 34.5577 24.5464 34.351 24.6798C34.151 24.8131 33.9977 24.9964 33.891 25.2298C33.7843 25.4564 33.731 25.7098 33.731 25.9898V28.7598H32.881Z" fill="black"/>
</svg>
