<svg width="76" height="33" viewBox="0 0 76 33" fill="none" xmlns="http://www.w3.org/2000/svg">
<path d="M0.924 12V3.54H2.46V7.068H6.816V3.54H8.352V12H6.816V8.352H2.46V12H0.924ZM12.9533 12.12C12.2893 12.12 11.7173 11.996 11.2373 11.748C10.7573 11.5 10.3853 11.148 10.1213 10.692C9.86525 10.236 9.73725 9.696 9.73725 9.072C9.73725 8.464 9.86125 7.932 10.1093 7.476C10.3653 7.02 10.7133 6.664 11.1533 6.408C11.6013 6.144 12.1093 6.012 12.6773 6.012C13.2373 6.012 13.7173 6.132 14.1173 6.372C14.5173 6.612 14.8253 6.952 15.0413 7.392C15.2653 7.832 15.3773 8.356 15.3773 8.964V9.408H10.9493V8.544H14.3213L14.1293 8.724C14.1293 8.18 14.0093 7.764 13.7693 7.476C13.5293 7.18 13.1853 7.032 12.7373 7.032C12.4013 7.032 12.1133 7.112 11.8733 7.272C11.6413 7.424 11.4613 7.644 11.3333 7.932C11.2133 8.212 11.1533 8.548 11.1533 8.94V9.024C11.1533 9.464 11.2213 9.828 11.3573 10.116C11.4933 10.404 11.6973 10.62 11.9693 10.764C12.2413 10.908 12.5773 10.98 12.9773 10.98C13.3053 10.98 13.6333 10.932 13.9613 10.836C14.2893 10.732 14.5893 10.572 14.8613 10.356L15.2812 11.364C15.0013 11.596 14.6493 11.78 14.2253 11.916C13.8013 12.052 13.3773 12.12 12.9533 12.12ZM16.4692 4.872V3.408H18.1492V4.872H16.4692ZM16.5652 12V6.132H18.0652V12H16.5652ZM22.3598 14.28C21.8158 14.28 21.3038 14.216 20.8238 14.088C20.3518 13.968 19.9358 13.78 19.5758 13.524L20.0078 12.48C20.2318 12.624 20.4678 12.744 20.7158 12.84C20.9638 12.944 21.2158 13.02 21.4718 13.068C21.7278 13.116 21.9838 13.14 22.2398 13.14C22.7758 13.14 23.1758 13.008 23.4398 12.744C23.7118 12.488 23.8478 12.104 23.8478 11.592V10.512H23.9558C23.8358 10.92 23.5838 11.248 23.1998 11.496C22.8238 11.736 22.3958 11.856 21.9158 11.856C21.3878 11.856 20.9278 11.736 20.5358 11.496C20.1438 11.248 19.8398 10.904 19.6238 10.464C19.4078 10.024 19.2998 9.512 19.2998 8.928C19.2998 8.344 19.4078 7.836 19.6238 7.404C19.8398 6.964 20.1438 6.624 20.5358 6.384C20.9278 6.136 21.3878 6.012 21.9158 6.012C22.4118 6.012 22.8438 6.136 23.2118 6.384C23.5878 6.624 23.8318 6.944 23.9438 7.344H23.8478V6.132H25.3118V11.412C25.3118 12.044 25.1998 12.572 24.9758 12.996C24.7518 13.428 24.4198 13.748 23.9798 13.956C23.5398 14.172 22.9998 14.28 22.3598 14.28ZM22.3238 10.716C22.7878 10.716 23.1558 10.556 23.4278 10.236C23.6998 9.916 23.8358 9.48 23.8358 8.928C23.8358 8.376 23.6998 7.944 23.4278 7.632C23.1558 7.312 22.7878 7.152 22.3238 7.152C21.8598 7.152 21.4918 7.312 21.2198 7.632C20.9478 7.944 20.8118 8.376 20.8118 8.928C20.8118 9.48 20.9478 9.916 21.2198 10.236C21.4918 10.556 21.8598 10.716 22.3238 10.716ZM26.8659 12V3.54H28.3659V7.308H28.1979C28.3739 6.884 28.6459 6.564 29.0139 6.348C29.3899 6.124 29.8139 6.012 30.2859 6.012C30.7579 6.012 31.1459 6.1 31.4499 6.276C31.7539 6.452 31.9819 6.72 32.1339 7.08C32.2859 7.432 32.3619 7.88 32.3619 8.424V12H30.8619V8.496C30.8619 8.192 30.8219 7.944 30.7419 7.752C30.6699 7.56 30.5539 7.42 30.3939 7.332C30.2419 7.236 30.0459 7.188 29.8059 7.188C29.5179 7.188 29.2659 7.252 29.0499 7.38C28.8339 7.5 28.6659 7.676 28.5459 7.908C28.4259 8.132 28.3659 8.396 28.3659 8.7V12H26.8659ZM36.5735 12.12C35.7895 12.12 35.2055 11.924 34.8215 11.532C34.4375 11.14 34.2455 10.568 34.2455 9.816V7.26H33.1175V6.132H34.2455V4.38H35.7455V6.132H37.5215V7.26H35.7455V9.732C35.7455 10.116 35.8295 10.404 35.9975 10.596C36.1655 10.788 36.4375 10.884 36.8135 10.884C36.9255 10.884 37.0415 10.872 37.1615 10.848C37.2815 10.816 37.4055 10.784 37.5335 10.752L37.7615 11.856C37.6175 11.936 37.4335 12 37.2095 12.048C36.9935 12.096 36.7815 12.12 36.5735 12.12Z" fill="#BC4544"/>
<path d="M3.79 28.5625V27.0725H0.52V26.4325L3.84 21.5125H4.63V26.3525H5.64V27.0725H4.63V28.5625H3.79ZM3.8 26.3525V22.5625H3.95L1.26 26.5425L1.22 26.3525H3.8ZM6.85609 28.5625V27.9225L9.29609 25.3225C9.52943 25.0692 9.71609 24.8392 9.85609 24.6325C9.99609 24.4192 10.0961 24.2125 10.1561 24.0125C10.2161 23.8125 10.2461 23.6092 10.2461 23.4025C10.2461 23.0092 10.1228 22.7058 9.87609 22.4925C9.63609 22.2792 9.28609 22.1725 8.82609 22.1725C8.48609 22.1725 8.15609 22.2392 7.83609 22.3725C7.51609 22.4992 7.21609 22.7025 6.93609 22.9825L6.60609 22.3125C6.88609 22.0392 7.22609 21.8225 7.62609 21.6625C8.03276 21.5025 8.45609 21.4225 8.89609 21.4225C9.36276 21.4225 9.75943 21.4992 10.0861 21.6525C10.4194 21.8058 10.6728 22.0258 10.8461 22.3125C11.0194 22.5992 11.1061 22.9425 11.1061 23.3425C11.1061 23.5558 11.0794 23.7625 11.0261 23.9625C10.9794 24.1625 10.9061 24.3625 10.8061 24.5625C10.7061 24.7625 10.5761 24.9692 10.4161 25.1825C10.2628 25.3892 10.0794 25.6025 9.86609 25.8225L7.82609 27.9625V27.8225H11.3961V28.5625H6.85609ZM12.6622 28.5625V27.5025H13.7522V28.5625H12.6622ZM17.5438 28.6525C17.2372 28.6525 16.9405 28.6192 16.6538 28.5525C16.3672 28.4858 16.1005 28.3892 15.8538 28.2625C15.6072 28.1358 15.3872 27.9825 15.1938 27.8025L15.5238 27.1225C15.8372 27.3892 16.1572 27.5858 16.4838 27.7125C16.8105 27.8392 17.1605 27.9025 17.5338 27.9025C18.0272 27.9025 18.4105 27.7692 18.6838 27.5025C18.9638 27.2358 19.1038 26.8758 19.1038 26.4225C19.1038 25.9625 18.9705 25.5892 18.7038 25.3025C18.4438 25.0158 18.0838 24.8725 17.6238 24.8725C17.2972 24.8725 17.0072 24.9392 16.7538 25.0725C16.5005 25.1992 16.2705 25.4092 16.0638 25.7025H15.4138V21.5125H19.5638V22.2525H16.2238V24.9725H16.0838C16.2572 24.7192 16.4872 24.5192 16.7738 24.3725C17.0672 24.2192 17.3972 24.1425 17.7638 24.1425C18.2105 24.1425 18.5972 24.2358 18.9238 24.4225C19.2505 24.6092 19.5005 24.8692 19.6738 25.2025C19.8538 25.5358 19.9438 25.9258 19.9438 26.3725C19.9438 26.8325 19.8438 27.2325 19.6438 27.5725C19.4505 27.9125 19.1738 28.1792 18.8138 28.3725C18.4605 28.5592 18.0372 28.6525 17.5438 28.6525ZM23.9357 28.5625V23.6625H24.7457V24.7425H24.6857C24.7724 24.5092 24.8924 24.3058 25.0457 24.1325C25.2057 23.9525 25.3957 23.8158 25.6157 23.7225C25.8357 23.6225 26.079 23.5725 26.3457 23.5725C26.7657 23.5725 27.109 23.6758 27.3757 23.8825C27.6424 24.0892 27.8157 24.3792 27.8957 24.7525H27.8157C27.9424 24.4058 28.1557 24.1225 28.4557 23.9025C28.7557 23.6825 29.119 23.5725 29.5457 23.5725C29.919 23.5725 30.229 23.6458 30.4757 23.7925C30.7224 23.9325 30.909 24.1458 31.0357 24.4325C31.1624 24.7192 31.2257 25.0825 31.2257 25.5225V28.5625H30.3857V25.5725C30.3857 25.1392 30.3057 24.8158 30.1457 24.6025C29.9924 24.3892 29.7257 24.2825 29.3457 24.2825C29.0724 24.2825 28.8324 24.3492 28.6257 24.4825C28.4257 24.6092 28.2724 24.7858 28.1657 25.0125C28.059 25.2392 28.0057 25.5058 28.0057 25.8125V28.5625H27.1557V25.5725C27.1557 25.1392 27.0724 24.8158 26.9057 24.6025C26.7457 24.3892 26.4857 24.2825 26.1257 24.2825C25.8524 24.2825 25.6124 24.3492 25.4057 24.4825C25.2057 24.6158 25.0524 24.7992 24.9457 25.0325C24.839 25.2592 24.7857 25.5125 24.7857 25.7925V28.5625H23.9357ZM32.881 28.5625V23.6625H33.691V24.7425H33.631C33.7177 24.5092 33.8377 24.3058 33.991 24.1325C34.151 23.9525 34.341 23.8158 34.561 23.7225C34.781 23.6225 35.0243 23.5725 35.291 23.5725C35.711 23.5725 36.0543 23.6758 36.321 23.8825C36.5877 24.0892 36.761 24.3792 36.841 24.7525H36.761C36.8877 24.4058 37.101 24.1225 37.401 23.9025C37.701 23.6825 38.0643 23.5725 38.491 23.5725C38.8643 23.5725 39.1743 23.6458 39.421 23.7925C39.6677 23.9325 39.8543 24.1458 39.981 24.4325C40.1077 24.7192 40.171 25.0825 40.171 25.5225V28.5625H39.331V25.5725C39.331 25.1392 39.251 24.8158 39.091 24.6025C38.9377 24.3892 38.671 24.2825 38.291 24.2825C38.0177 24.2825 37.7777 24.3492 37.571 24.4825C37.371 24.6092 37.2177 24.7858 37.111 25.0125C37.0043 25.2392 36.951 25.5058 36.951 25.8125V28.5625H36.101V25.5725C36.101 25.1392 36.0177 24.8158 35.851 24.6025C35.691 24.3892 35.431 24.2825 35.071 24.2825C34.7977 24.2825 34.5577 24.3492 34.351 24.4825C34.151 24.6158 33.9977 24.7992 33.891 25.0325C33.7843 25.2592 33.731 25.5125 33.731 25.7925V28.5625H32.881Z" fill="black"/>
</svg>
