<svg width="153" height="33" viewBox="0 0 153 33" fill="none" xmlns="http://www.w3.org/2000/svg">
<circle cx="16.5" cy="16.5" r="16.5" fill="#A86959"/>
<path d="M14.8877 9.19666C15.1597 8.98934 15.5831 8.75537 15.8274 8.6754C16.1083 8.58359 16.5455 8.54212 17.0143 8.56286C17.5682 8.58655 17.8817 8.65862 18.2507 8.84619C18.5227 8.98441 18.943 9.31316 19.1853 9.57773C19.4277 9.84231 19.7135 10.2579 19.8203 10.5028C19.9539 10.8068 20.0172 11.182 20.0231 11.6894C20.03 12.3311 19.9885 12.5197 19.7195 13.0716C19.5474 13.423 19.2358 13.8633 19.0271 14.0499C18.8174 14.2355 18.4237 14.4922 18.1517 14.6195C17.7818 14.7913 17.4693 14.8525 16.9154 14.8614C16.2952 14.8703 16.0697 14.8249 15.5415 14.588C15.14 14.4073 14.7641 14.1417 14.5079 13.8594C14.2874 13.6155 14.0154 13.2147 13.9056 12.9709C13.7562 12.6431 13.7038 12.3173 13.7018 11.7269C13.7008 11.0063 13.7354 10.8602 14.047 10.25C14.2972 9.75939 14.5297 9.46914 14.8877 9.19666Z" fill="white"/>
<path d="M6.11249 9.41188C6.1026 9.32796 6.157 9.20555 6.23316 9.14039C6.32514 9.06141 6.80683 9.01995 7.6624 9.01797C8.75238 9.01402 8.97592 9.0387 9.10153 9.17988C9.18363 9.2707 9.36463 9.77321 9.76027 11.2432L11.1371 11.2926C11.8947 11.3202 12.5693 11.3755 12.6375 11.416C12.7058 11.4564 12.7632 11.568 12.7651 11.6628C12.7681 11.7576 12.7127 11.8889 12.6415 11.954C12.5604 12.029 12.0599 12.0833 10.0253 12.1317L11.7226 18.5014L21.663 18.4994L21.7619 18.1292C21.8163 17.9258 22.2535 16.4933 23.6086 12.1317L22.3742 12.0824C21.3406 12.0409 21.122 12.0053 21.031 11.8602C20.9509 11.7339 20.9509 11.6411 21.031 11.5147C21.124 11.3676 21.3277 11.338 22.4157 11.3133C23.117 11.2975 23.7906 11.3093 23.9132 11.338C24.0359 11.3676 24.203 11.4574 24.2841 11.5394C24.3652 11.6213 24.4325 11.7872 24.4315 11.9096C24.4315 12.032 23.9597 13.6649 23.3841 15.5377C22.6056 18.069 22.2822 18.9891 22.1239 19.1204C21.9241 19.2852 21.577 19.2971 16.9401 19.2931C13.0272 19.2902 11.9699 19.3158 11.9709 19.4126C11.9709 19.4807 12.0154 19.7028 12.1677 20.2764L16.7314 20.3011C20.9548 20.3238 21.304 20.3386 21.4049 20.4985C21.485 20.6249 21.485 20.7177 21.4049 20.8441C21.303 21.004 20.944 21.0188 16.5583 21.0455C12.1153 21.0721 11.8107 21.0632 11.6534 20.8974C11.5515 20.7898 10.9106 18.5784 8.55753 9.80875L7.46953 9.81171C6.71979 9.81368 6.34295 9.77617 6.25591 9.69028C6.18766 9.62117 6.12238 9.49579 6.11249 9.41188Z" fill="white"/>
<path d="M12.7157 22.3743C12.7948 22.2519 13.0045 22.0633 13.1815 21.9547C13.3586 21.8471 13.6593 21.7583 13.8492 21.7583C14.0391 21.7583 14.3398 21.8471 14.5168 21.9547C14.6939 22.0633 14.9045 22.2519 14.9857 22.3743C15.0668 22.4967 15.1617 22.7514 15.1953 22.9419C15.2398 23.1907 15.1983 23.405 15.048 23.7071C14.9184 23.9647 14.7146 24.1878 14.5168 24.2856C14.3398 24.3725 14.0391 24.4445 13.8492 24.4465C13.6593 24.4475 13.3586 24.3764 13.1815 24.2876C12.963 24.178 12.7928 23.9766 12.6514 23.6577C12.509 23.3378 12.4625 23.094 12.506 22.8926C12.5416 22.7297 12.6356 22.4967 12.7157 22.3743Z" fill="white"/>
<path d="M17.8056 22.473C17.9144 22.2963 18.1478 22.0633 18.3248 21.9547C18.5019 21.8471 18.7907 21.7583 18.9677 21.7573C19.1448 21.7573 19.3891 21.8076 19.5117 21.8678C19.6344 21.929 19.8362 22.0742 19.9618 22.1887C20.0864 22.3042 20.2338 22.5767 20.2902 22.7939C20.3703 23.1029 20.3584 23.2796 20.2358 23.6083C20.1369 23.8769 19.9648 24.099 19.759 24.2254C19.582 24.3349 19.2595 24.4307 19.0419 24.4396C18.8075 24.4495 18.5098 24.3784 18.311 24.2668C18.127 24.1622 17.8936 23.9223 17.7917 23.7317C17.6898 23.5412 17.6077 23.2529 17.6077 23.09C17.6077 22.9271 17.6977 22.6497 17.8056 22.473Z" fill="white"/>
<path d="M14.9821 10.0155C15.1473 9.82992 15.5053 9.57521 15.7773 9.44884C16.1186 9.2899 16.4549 9.21783 16.8654 9.21684C17.3203 9.21487 17.5834 9.27805 17.9959 9.48734C18.2916 9.6374 18.6586 9.9158 18.8129 10.1054C18.9672 10.2949 19.165 10.673 19.254 10.9445C19.3569 11.2614 19.3964 11.6148 19.3638 11.9317C19.3361 12.2032 19.2362 12.5813 19.1413 12.7709C19.0473 12.9604 18.8297 13.2645 18.6596 13.4462C18.4885 13.6268 18.171 13.8687 17.9534 13.9832C17.6606 14.1362 17.3777 14.1905 16.8654 14.1905C16.3579 14.1905 16.0672 14.1353 15.7773 13.9862C15.5597 13.8736 15.2363 13.6318 15.0573 13.4491C14.8793 13.2665 14.6597 12.9604 14.5697 12.7709C14.4787 12.5813 14.3867 12.1588 14.3649 11.833C14.3362 11.4154 14.3778 11.1094 14.5024 10.7964C14.6003 10.5516 14.816 10.2001 14.9821 10.0155Z" fill="#A86959"/>
<path d="M13.1562 23.0875C13.1562 22.9513 13.2453 22.7518 13.3541 22.6433C13.4639 22.5337 13.6834 22.4458 13.8486 22.4458C14.0138 22.4458 14.2334 22.5337 14.3432 22.6433C14.453 22.7528 14.541 22.972 14.541 23.1369C14.541 23.3452 14.4609 23.4923 14.269 23.6334C14.1196 23.744 13.9188 23.8329 13.8239 23.8309C13.7289 23.8299 13.539 23.7164 13.4035 23.5811C13.267 23.4449 13.1562 23.2228 13.1562 23.0875Z" fill="#A86959"/>
<path d="M18.2995 23.1369C18.2995 22.972 18.3876 22.7528 18.4974 22.6433C18.6071 22.5337 18.8267 22.4458 18.9919 22.4458C19.2006 22.4458 19.348 22.5258 19.4894 22.7173C19.6002 22.8664 19.6892 23.0668 19.6872 23.1616C19.6862 23.2563 19.5755 23.4449 19.4419 23.5811C19.3084 23.7164 19.1185 23.8299 19.0216 23.8309C18.9237 23.8329 18.7209 23.744 18.5715 23.6334C18.3797 23.4923 18.2995 23.3452 18.2995 23.1369Z" fill="#A86959"/>
<path d="M17.2126 11.3238C17.5657 10.9042 17.9168 10.5005 17.992 10.4264C18.0672 10.3524 18.2234 10.306 18.3382 10.3228C18.4579 10.3396 18.5617 10.4373 18.5795 10.5498C18.6003 10.6821 18.2897 11.1323 17.6399 11.9112C17.1058 12.551 16.635 13.0732 16.5944 13.0712C16.5539 13.0693 16.2077 12.7899 15.8259 12.4503C15.274 11.9596 15.1375 11.7829 15.1582 11.5874C15.1751 11.4295 15.2552 11.3307 15.3828 11.31C15.5024 11.2912 15.7665 11.4374 16.0504 11.6792C16.3086 11.9004 16.5311 12.082 16.5449 12.084C16.5588 12.086 16.8595 11.7444 17.2126 11.3238Z" fill="white"/>
<path d="M40.924 12.5V4.04H42.46V12.5H40.924ZM44.323 12.5V4.04H45.607L48.799 9.932H48.415L51.595 4.04H52.855V12.5H51.463V6.32H51.727L49.039 11.216H48.139L45.427 6.308H45.715V12.5H44.323ZM54.717 12.5V4.04H56.253V11.192H60.309V12.5H54.717ZM64.7136 12.5V4.04H65.9976L69.1896 9.932H68.8056L71.9856 4.04H73.2456V12.5H71.8536V6.32H72.1176L69.4296 11.216H68.5296L65.8176 6.308H66.1056V12.5H64.7136ZM78.8996 12.62C78.2836 12.62 77.7236 12.52 77.2196 12.32C76.7236 12.112 76.2956 11.816 75.9356 11.432C75.5836 11.048 75.3116 10.588 75.1196 10.052C74.9276 9.516 74.8316 8.92 74.8316 8.264C74.8316 7.6 74.9276 7.004 75.1196 6.476C75.3116 5.94 75.5836 5.484 75.9356 5.108C76.2956 4.724 76.7236 4.432 77.2196 4.232C77.7236 4.024 78.2836 3.92 78.8996 3.92C79.5156 3.92 80.0716 4.024 80.5676 4.232C81.0716 4.432 81.4996 4.72 81.8516 5.096C82.2116 5.472 82.4876 5.928 82.6796 6.464C82.8716 6.992 82.9676 7.588 82.9676 8.252C82.9676 8.916 82.8716 9.516 82.6796 10.052C82.4876 10.588 82.2116 11.048 81.8516 11.432C81.4996 11.816 81.0716 12.112 80.5676 12.32C80.0716 12.52 79.5156 12.62 78.8996 12.62ZM78.8996 11.3C79.4196 11.3 79.8596 11.18 80.2196 10.94C80.5876 10.7 80.8676 10.352 81.0596 9.896C81.2596 9.44 81.3596 8.896 81.3596 8.264C81.3596 7.624 81.2636 7.08 81.0716 6.632C80.8796 6.176 80.5996 5.832 80.2316 5.6C79.8636 5.36 79.4196 5.24 78.8996 5.24C78.3876 5.24 77.9476 5.36 77.5796 5.6C77.2116 5.832 76.9276 6.176 76.7276 6.632C76.5356 7.08 76.4396 7.624 76.4396 8.264C76.4396 8.896 76.5356 9.44 76.7276 9.896C76.9276 10.352 77.2116 10.7 77.5796 10.94C77.9476 11.18 78.3876 11.3 78.8996 11.3ZM90.6135 15.056L89.4495 13.172C89.3375 12.988 89.1855 12.848 88.9935 12.752C88.8095 12.664 88.5815 12.62 88.3095 12.62L89.4975 12.152C89.7455 12.152 89.9615 12.18 90.1455 12.236C90.3295 12.292 90.4935 12.384 90.6375 12.512C90.7815 12.64 90.9175 12.816 91.0455 13.04L91.9215 14.432L90.6135 15.056ZM88.3215 12.62C87.7055 12.62 87.1455 12.52 86.6415 12.32C86.1455 12.112 85.7175 11.816 85.3575 11.432C85.0055 11.048 84.7335 10.588 84.5415 10.052C84.3495 9.516 84.2535 8.92 84.2535 8.264C84.2535 7.6 84.3495 7.004 84.5415 6.476C84.7335 5.94 85.0055 5.484 85.3575 5.108C85.7175 4.724 86.1455 4.432 86.6415 4.232C87.1455 4.024 87.7055 3.92 88.3215 3.92C88.9375 3.92 89.4935 4.024 89.9895 4.232C90.4935 4.432 90.9215 4.72 91.2735 5.096C91.6335 5.472 91.9095 5.928 92.1015 6.464C92.2935 6.992 92.3895 7.588 92.3895 8.252C92.3895 8.916 92.2935 9.516 92.1015 10.052C91.9095 10.588 91.6335 11.048 91.2735 11.432C90.9215 11.816 90.4935 12.112 89.9895 12.32C89.4935 12.52 88.9375 12.62 88.3215 12.62ZM88.3215 11.3C88.8415 11.3 89.2815 11.18 89.6415 10.94C90.0095 10.7 90.2895 10.352 90.4815 9.896C90.6815 9.44 90.7815 8.896 90.7815 8.264C90.7815 7.624 90.6855 7.08 90.4935 6.632C90.3015 6.176 90.0215 5.832 89.6535 5.6C89.2855 5.36 88.8415 5.24 88.3215 5.24C87.8095 5.24 87.3695 5.36 87.0015 5.6C86.6335 5.832 86.3495 6.176 86.1495 6.632C85.9575 7.08 85.8615 7.624 85.8615 8.264C85.8615 8.896 85.9575 9.44 86.1495 9.896C86.3495 10.352 86.6335 10.7 87.0015 10.94C87.3695 11.18 87.8095 11.3 88.3215 11.3Z" fill="black"/>
<path d="M41.12 28.5V27.93H42.93V21.99L43.3 22.02L41.46 23.23L41.15 22.72L43.1 21.45H43.58V27.93H45.25V28.5H41.12ZM48.9961 28.58C48.4694 28.58 48.0228 28.4433 47.6561 28.17C47.2961 27.8967 47.0228 27.4933 46.8361 26.96C46.6494 26.42 46.5561 25.76 46.5561 24.98C46.5561 24.1867 46.6494 23.5233 46.8361 22.99C47.0228 22.4567 47.2961 22.0533 47.6561 21.78C48.0228 21.5067 48.4694 21.37 48.9961 21.37C49.5361 21.37 49.9861 21.5067 50.3461 21.78C50.7061 22.0467 50.9761 22.4467 51.1561 22.98C51.3428 23.5133 51.4361 24.1733 51.4361 24.96C51.4361 25.7467 51.3428 26.41 51.1561 26.95C50.9694 27.49 50.6961 27.8967 50.3361 28.17C49.9761 28.4433 49.5294 28.58 48.9961 28.58ZM48.9961 27.99C49.5961 27.99 50.0428 27.7433 50.3361 27.25C50.6294 26.7567 50.7761 25.9933 50.7761 24.96C50.7761 23.9267 50.6294 23.17 50.3361 22.69C50.0494 22.2033 49.6028 21.96 48.9961 21.96C48.3961 21.96 47.9494 22.2033 47.6561 22.69C47.3628 23.1767 47.2161 23.9367 47.2161 24.97C47.2161 25.9967 47.3628 26.7567 47.6561 27.25C47.9494 27.7433 48.3961 27.99 48.9961 27.99ZM54.9922 28.58C54.4655 28.58 54.0189 28.4433 53.6522 28.17C53.2922 27.8967 53.0189 27.4933 52.8322 26.96C52.6455 26.42 52.5522 25.76 52.5522 24.98C52.5522 24.1867 52.6455 23.5233 52.8322 22.99C53.0189 22.4567 53.2922 22.0533 53.6522 21.78C54.0189 21.5067 54.4655 21.37 54.9922 21.37C55.5322 21.37 55.9822 21.5067 56.3422 21.78C56.7022 22.0467 56.9722 22.4467 57.1522 22.98C57.3389 23.5133 57.4322 24.1733 57.4322 24.96C57.4322 25.7467 57.3389 26.41 57.1522 26.95C56.9655 27.49 56.6922 27.8967 56.3322 28.17C55.9722 28.4433 55.5255 28.58 54.9922 28.58ZM54.9922 27.99C55.5922 27.99 56.0389 27.7433 56.3322 27.25C56.6255 26.7567 56.7722 25.9933 56.7722 24.96C56.7722 23.9267 56.6255 23.17 56.3322 22.69C56.0455 22.2033 55.5989 21.96 54.9922 21.96C54.3922 21.96 53.9455 22.2033 53.6522 22.69C53.3589 23.1767 53.2122 23.9367 53.2122 24.97C53.2122 25.9967 53.3589 26.7567 53.6522 27.25C53.9455 27.7433 54.3922 27.99 54.9922 27.99ZM60.9883 28.58C60.4616 28.58 60.0149 28.4433 59.6483 28.17C59.2883 27.8967 59.0149 27.4933 58.8283 26.96C58.6416 26.42 58.5483 25.76 58.5483 24.98C58.5483 24.1867 58.6416 23.5233 58.8283 22.99C59.0149 22.4567 59.2883 22.0533 59.6483 21.78C60.0149 21.5067 60.4616 21.37 60.9883 21.37C61.5283 21.37 61.9783 21.5067 62.3383 21.78C62.6983 22.0467 62.9683 22.4467 63.1483 22.98C63.3349 23.5133 63.4283 24.1733 63.4283 24.96C63.4283 25.7467 63.3349 26.41 63.1483 26.95C62.9616 27.49 62.6883 27.8967 62.3283 28.17C61.9683 28.4433 61.5216 28.58 60.9883 28.58ZM60.9883 27.99C61.5883 27.99 62.0349 27.7433 62.3283 27.25C62.6216 26.7567 62.7683 25.9933 62.7683 24.96C62.7683 23.9267 62.6216 23.17 62.3283 22.69C62.0416 22.2033 61.5949 21.96 60.9883 21.96C60.3883 21.96 59.9416 22.2033 59.6483 22.69C59.3549 23.1767 59.2083 23.9367 59.2083 24.97C59.2083 25.9967 59.3549 26.7567 59.6483 27.25C59.9416 27.7433 60.3883 27.99 60.9883 27.99ZM66.9844 28.58C66.4577 28.58 66.011 28.4433 65.6444 28.17C65.2844 27.8967 65.011 27.4933 64.8244 26.96C64.6377 26.42 64.5444 25.76 64.5444 24.98C64.5444 24.1867 64.6377 23.5233 64.8244 22.99C65.011 22.4567 65.2844 22.0533 65.6444 21.78C66.011 21.5067 66.4577 21.37 66.9844 21.37C67.5244 21.37 67.9744 21.5067 68.3344 21.78C68.6944 22.0467 68.9644 22.4467 69.1444 22.98C69.331 23.5133 69.4244 24.1733 69.4244 24.96C69.4244 25.7467 69.331 26.41 69.1444 26.95C68.9577 27.49 68.6844 27.8967 68.3244 28.17C67.9644 28.4433 67.5177 28.58 66.9844 28.58ZM66.9844 27.99C67.5844 27.99 68.031 27.7433 68.3244 27.25C68.6177 26.7567 68.7644 25.9933 68.7644 24.96C68.7644 23.9267 68.6177 23.17 68.3244 22.69C68.0377 22.2033 67.591 21.96 66.9844 21.96C66.3844 21.96 65.9377 22.2033 65.6444 22.69C65.351 23.1767 65.2044 23.9367 65.2044 24.97C65.2044 25.9967 65.351 26.7567 65.6444 27.25C65.9377 27.7433 66.3844 27.99 66.9844 27.99ZM73.5977 28.5V21.45H76.3177C76.8177 21.45 77.241 21.5333 77.5877 21.7C77.9343 21.86 78.1977 22.0933 78.3777 22.4C78.5643 22.7067 78.6577 23.0833 78.6577 23.53C78.6577 23.97 78.5643 24.3467 78.3777 24.66C78.1977 24.9733 77.9343 25.2133 77.5877 25.38C77.241 25.54 76.8177 25.62 76.3177 25.62H74.2477V28.5H73.5977ZM74.2477 25.05H76.2477C76.8277 25.05 77.2643 24.9233 77.5577 24.67C77.851 24.4167 77.9977 24.0367 77.9977 23.53C77.9977 23.03 77.851 22.6533 77.5577 22.4C77.2643 22.1467 76.8277 22.02 76.2477 22.02H74.2477V25.05ZM81.8363 28.58C81.3496 28.58 80.9296 28.4767 80.5763 28.27C80.2229 28.0567 79.9496 27.76 79.7563 27.38C79.5629 27 79.4663 26.55 79.4663 26.03C79.4663 25.5167 79.5629 25.0733 79.7563 24.7C79.9496 24.3267 80.2229 24.04 80.5763 23.84C80.9296 23.6333 81.3496 23.53 81.8363 23.53C82.1496 23.53 82.4529 23.5867 82.7463 23.7C83.0396 23.8133 83.2829 23.9733 83.4763 24.18L83.2163 24.66C83.0163 24.4667 82.7963 24.3233 82.5563 24.23C82.3163 24.1367 82.0863 24.09 81.8663 24.09C81.3196 24.09 80.8929 24.26 80.5863 24.6C80.2796 24.94 80.1263 25.42 80.1263 26.04C80.1263 26.66 80.2796 27.1467 80.5863 27.5C80.8929 27.8467 81.3163 28.02 81.8563 28.02C82.0829 28.02 82.3163 27.9733 82.5563 27.88C82.7963 27.7867 83.0129 27.6467 83.2063 27.46L83.4663 27.94C83.2729 28.14 83.0296 28.2967 82.7363 28.41C82.4429 28.5233 82.1429 28.58 81.8363 28.58ZM86.2607 28.58C86.0074 28.58 85.7574 28.5567 85.5107 28.51C85.2707 28.4633 85.0474 28.3933 84.8407 28.3C84.634 28.2 84.4574 28.0833 84.3107 27.95L84.5507 27.47C84.7174 27.6033 84.894 27.7133 85.0807 27.8C85.274 27.8867 85.4707 27.95 85.6707 27.99C85.8774 28.0233 86.0774 28.04 86.2707 28.04C86.6907 28.04 87.014 27.9667 87.2407 27.82C87.474 27.6733 87.5907 27.47 87.5907 27.21C87.5907 27.0033 87.5174 26.84 87.3707 26.72C87.2307 26.6 87.004 26.5067 86.6907 26.44L85.7507 26.25C85.3174 26.1567 84.994 26.0033 84.7807 25.79C84.5674 25.5767 84.4607 25.2967 84.4607 24.95C84.4607 24.6633 84.5374 24.4133 84.6907 24.2C84.844 23.9867 85.0607 23.8233 85.3407 23.71C85.6274 23.59 85.9607 23.53 86.3407 23.53C86.5674 23.53 86.7907 23.5533 87.0107 23.6C87.2374 23.6467 87.4474 23.7167 87.6407 23.81C87.834 23.9033 87.9907 24.02 88.1107 24.16L87.8707 24.64C87.7374 24.5067 87.584 24.4 87.4107 24.32C87.244 24.2333 87.0674 24.17 86.8807 24.13C86.7007 24.09 86.5207 24.07 86.3407 24.07C85.9474 24.07 85.6374 24.15 85.4107 24.31C85.1907 24.4633 85.0807 24.67 85.0807 24.93C85.0807 25.1367 85.1474 25.3033 85.2807 25.43C85.414 25.55 85.6274 25.6433 85.9207 25.71L86.8407 25.9C87.3007 26 87.644 26.1533 87.8707 26.36C88.0974 26.56 88.2107 26.8367 88.2107 27.19C88.2107 27.47 88.1307 27.7167 87.9707 27.93C87.8107 28.1367 87.584 28.2967 87.2907 28.41C86.9974 28.5233 86.654 28.58 86.2607 28.58Z" fill="black"/>
</svg>
