<svg width="76" height="33" viewBox="0 0 76 33" fill="none" xmlns="http://www.w3.org/2000/svg">
<path d="M0.924 12V3.54H4.596C5.22 3.54 5.748 3.644 6.18 3.852C6.612 4.06 6.94 4.36 7.164 4.752C7.388 5.144 7.5 5.62 7.5 6.18C7.5 6.732 7.388 7.208 7.164 7.608C6.94 8 6.612 8.304 6.18 8.52C5.748 8.728 5.22 8.832 4.596 8.832H2.46V12H0.924ZM2.46 7.62H4.356C4.9 7.62 5.312 7.5 5.592 7.26C5.872 7.012 6.012 6.652 6.012 6.18C6.012 5.708 5.872 5.352 5.592 5.112C5.312 4.872 4.9 4.752 4.356 4.752H2.46V7.62ZM8.49094 12V6.132H9.95494V7.548H9.83494C9.94694 7.068 10.1669 6.704 10.4949 6.456C10.8229 6.2 11.2589 6.052 11.8029 6.012L12.2589 5.976L12.3549 7.248L11.4909 7.332C11.0029 7.38 10.6349 7.532 10.3869 7.788C10.1389 8.036 10.0149 8.388 10.0149 8.844V12H8.49094ZM15.7724 12.12C15.1644 12.12 14.6364 11.996 14.1884 11.748C13.7404 11.5 13.3924 11.148 13.1444 10.692C12.8964 10.228 12.7724 9.684 12.7724 9.06C12.7724 8.436 12.8964 7.896 13.1444 7.44C13.3924 6.984 13.7404 6.632 14.1884 6.384C14.6364 6.136 15.1644 6.012 15.7724 6.012C16.3804 6.012 16.9084 6.136 17.3564 6.384C17.8044 6.632 18.1524 6.984 18.4004 7.44C18.6484 7.896 18.7724 8.436 18.7724 9.06C18.7724 9.684 18.6484 10.228 18.4004 10.692C18.1524 11.148 17.8044 11.5 17.3564 11.748C16.9084 11.996 16.3804 12.12 15.7724 12.12ZM15.7724 10.98C16.2204 10.98 16.5804 10.82 16.8524 10.5C17.1244 10.172 17.2604 9.692 17.2604 9.06C17.2604 8.42 17.1244 7.944 16.8524 7.632C16.5804 7.312 16.2204 7.152 15.7724 7.152C15.3244 7.152 14.9644 7.312 14.6924 7.632C14.4204 7.944 14.2844 8.42 14.2844 9.06C14.2844 9.692 14.4204 10.172 14.6924 10.5C14.9644 10.82 15.3244 10.98 15.7724 10.98ZM22.2665 12.12C21.7545 12.12 21.3025 11.996 20.9105 11.748C20.5265 11.5 20.2265 11.148 20.0105 10.692C19.7945 10.228 19.6865 9.684 19.6865 9.06C19.6865 8.428 19.7945 7.888 20.0105 7.44C20.2265 6.984 20.5265 6.632 20.9105 6.384C21.3025 6.136 21.7545 6.012 22.2665 6.012C22.7545 6.012 23.1785 6.132 23.5385 6.372C23.9065 6.612 24.1545 6.928 24.2825 7.32H24.1505V3.54H25.6505V12H24.1865V10.752H24.2945C24.1745 11.168 23.9305 11.5 23.5625 11.748C23.1945 11.996 22.7625 12.12 22.2665 12.12ZM22.6865 10.98C23.1345 10.98 23.4945 10.82 23.7665 10.5C24.0385 10.172 24.1745 9.692 24.1745 9.06C24.1745 8.42 24.0385 7.944 23.7665 7.632C23.4945 7.312 23.1345 7.152 22.6865 7.152C22.2385 7.152 21.8785 7.312 21.6065 7.632C21.3345 7.944 21.1985 8.42 21.1985 9.06C21.1985 9.692 21.3345 10.172 21.6065 10.5C21.8785 10.82 22.2385 10.98 22.6865 10.98ZM29.3298 12.12C28.8418 12.12 28.4378 12.032 28.1178 11.856C27.7978 11.672 27.5578 11.4 27.3978 11.04C27.2458 10.68 27.1698 10.232 27.1698 9.696V6.132H28.6698V9.72C28.6698 9.992 28.7058 10.22 28.7778 10.404C28.8578 10.588 28.9738 10.724 29.1258 10.812C29.2858 10.9 29.4858 10.944 29.7258 10.944C29.9978 10.944 30.2338 10.884 30.4338 10.764C30.6418 10.636 30.8018 10.46 30.9138 10.236C31.0338 10.004 31.0938 9.736 31.0938 9.432V6.132H32.5938V12H31.1298V10.776H31.2978C31.1298 11.208 30.8738 11.54 30.5298 11.772C30.1938 12.004 29.7938 12.12 29.3298 12.12ZM36.867 12.12C36.251 12.12 35.715 11.996 35.259 11.748C34.803 11.492 34.451 11.132 34.203 10.668C33.955 10.204 33.831 9.66 33.831 9.036C33.831 8.412 33.955 7.876 34.203 7.428C34.451 6.972 34.803 6.624 35.259 6.384C35.715 6.136 36.251 6.012 36.867 6.012C37.243 6.012 37.615 6.072 37.983 6.192C38.351 6.312 38.655 6.48 38.895 6.696L38.451 7.74C38.243 7.556 38.007 7.416 37.743 7.32C37.487 7.224 37.239 7.176 36.999 7.176C36.479 7.176 36.075 7.34 35.787 7.668C35.507 7.988 35.367 8.448 35.367 9.048C35.367 9.64 35.507 10.108 35.787 10.452C36.075 10.788 36.479 10.956 36.999 10.956C37.231 10.956 37.479 10.908 37.743 10.812C38.007 10.716 38.243 10.572 38.451 10.38L38.895 11.436C38.655 11.644 38.347 11.812 37.971 11.94C37.603 12.06 37.235 12.12 36.867 12.12ZM42.5266 12.12C41.7426 12.12 41.1586 11.924 40.7746 11.532C40.3906 11.14 40.1986 10.568 40.1986 9.816V7.26H39.0706V6.132H40.1986V4.38H41.6986V6.132H43.4746V7.26H41.6986V9.732C41.6986 10.116 41.7826 10.404 41.9506 10.596C42.1186 10.788 42.3906 10.884 42.7666 10.884C42.8786 10.884 42.9946 10.872 43.1146 10.848C43.2346 10.816 43.3586 10.784 43.4866 10.752L43.7146 11.856C43.5706 11.936 43.3866 12 43.1626 12.048C42.9466 12.096 42.7346 12.12 42.5266 12.12ZM51.7584 12.12C50.8784 12.12 50.1224 11.944 49.4904 11.592C48.8664 11.232 48.3864 10.728 48.0504 10.08C47.7144 9.424 47.5464 8.652 47.5464 7.764C47.5464 6.876 47.7144 6.108 48.0504 5.46C48.3864 4.812 48.8664 4.312 49.4904 3.96C50.1224 3.6 50.8784 3.42 51.7584 3.42C52.3264 3.42 52.8624 3.508 53.3664 3.684C53.8784 3.86 54.2984 4.112 54.6264 4.44L54.1224 5.664C53.7624 5.36 53.3944 5.14 53.0184 5.004C52.6424 4.86 52.2384 4.788 51.8064 4.788C50.9504 4.788 50.2984 5.048 49.8504 5.568C49.4024 6.08 49.1784 6.812 49.1784 7.764C49.1784 8.716 49.4024 9.452 49.8504 9.972C50.2984 10.492 50.9504 10.752 51.8064 10.752C52.2384 10.752 52.6424 10.684 53.0184 10.548C53.3944 10.404 53.7624 10.18 54.1224 9.876L54.6264 11.1C54.2984 11.42 53.8784 11.672 53.3664 11.856C52.8624 12.032 52.3264 12.12 51.7584 12.12ZM58.0771 12.12C57.4691 12.12 56.9411 11.996 56.4931 11.748C56.0451 11.5 55.6971 11.148 55.4491 10.692C55.2011 10.228 55.0771 9.684 55.0771 9.06C55.0771 8.436 55.2011 7.896 55.4491 7.44C55.6971 6.984 56.0451 6.632 56.4931 6.384C56.9411 6.136 57.4691 6.012 58.0771 6.012C58.6851 6.012 59.2131 6.136 59.6611 6.384C60.1091 6.632 60.4571 6.984 60.7051 7.44C60.9531 7.896 61.0771 8.436 61.0771 9.06C61.0771 9.684 60.9531 10.228 60.7051 10.692C60.4571 11.148 60.1091 11.5 59.6611 11.748C59.2131 11.996 58.6851 12.12 58.0771 12.12ZM58.0771 10.98C58.5251 10.98 58.8851 10.82 59.1571 10.5C59.4291 10.172 59.5651 9.692 59.5651 9.06C59.5651 8.42 59.4291 7.944 59.1571 7.632C58.8851 7.312 58.5251 7.152 58.0771 7.152C57.6291 7.152 57.2691 7.312 56.9971 7.632C56.7251 7.944 56.5891 8.42 56.5891 9.06C56.5891 9.692 56.7251 10.172 56.9971 10.5C57.2691 10.82 57.6291 10.98 58.0771 10.98ZM64.5712 12.12C64.0592 12.12 63.6072 11.996 63.2152 11.748C62.8312 11.5 62.5312 11.148 62.3152 10.692C62.0992 10.228 61.9912 9.684 61.9912 9.06C61.9912 8.428 62.0992 7.888 62.3152 7.44C62.5312 6.984 62.8312 6.632 63.2152 6.384C63.6072 6.136 64.0592 6.012 64.5712 6.012C65.0592 6.012 65.4832 6.132 65.8432 6.372C66.2112 6.612 66.4592 6.928 66.5872 7.32H66.4552V3.54H67.9552V12H66.4912V10.752H66.5992C66.4792 11.168 66.2352 11.5 65.8672 11.748C65.4992 11.996 65.0672 12.12 64.5712 12.12ZM64.9912 10.98C65.4392 10.98 65.7992 10.82 66.0712 10.5C66.3432 10.172 66.4792 9.692 66.4792 9.06C66.4792 8.42 66.3432 7.944 66.0712 7.632C65.7992 7.312 65.4392 7.152 64.9912 7.152C64.5432 7.152 64.1832 7.312 63.9112 7.632C63.6392 7.944 63.5032 8.42 63.5032 9.06C63.5032 9.692 63.6392 10.172 63.9112 10.5C64.1832 10.82 64.5432 10.98 64.9912 10.98ZM72.4025 12.12C71.7385 12.12 71.1665 11.996 70.6865 11.748C70.2065 11.5 69.8345 11.148 69.5705 10.692C69.3145 10.236 69.1865 9.696 69.1865 9.072C69.1865 8.464 69.3105 7.932 69.5585 7.476C69.8145 7.02 70.1625 6.664 70.6025 6.408C71.0505 6.144 71.5585 6.012 72.1265 6.012C72.6865 6.012 73.1665 6.132 73.5665 6.372C73.9665 6.612 74.2745 6.952 74.4905 7.392C74.7145 7.832 74.8265 8.356 74.8265 8.964V9.408H70.3985V8.544H73.7705L73.5785 8.724C73.5785 8.18 73.4585 7.764 73.2185 7.476C72.9785 7.18 72.6345 7.032 72.1865 7.032C71.8505 7.032 71.5625 7.112 71.3225 7.272C71.0905 7.424 70.9105 7.644 70.7825 7.932C70.6625 8.212 70.6025 8.548 70.6025 8.94V9.024C70.6025 9.464 70.6705 9.828 70.8065 10.116C70.9425 10.404 71.1465 10.62 71.4185 10.764C71.6905 10.908 72.0265 10.98 72.4265 10.98C72.7545 10.98 73.0825 10.932 73.4105 10.836C73.7385 10.732 74.0385 10.572 74.3105 10.356L74.7305 11.364C74.4505 11.596 74.0985 11.78 73.6745 11.916C73.2505 12.052 72.8265 12.12 72.4025 12.12Z" fill="#BC4544"/>
<path d="M1.08 28.7598V28.0298H2.85V22.4198L3.3 22.4498L1.43 23.6498L1.05 22.9998L3.08 21.7098H3.7V28.0298H5.34V28.7598H1.08ZM8.99609 28.8498C8.45609 28.8498 7.99943 28.7131 7.62609 28.4398C7.25943 28.1598 6.98276 27.7531 6.79609 27.2198C6.60943 26.6798 6.51609 26.0164 6.51609 25.2298C6.51609 24.4431 6.60943 23.7831 6.79609 23.2498C6.98276 22.7098 7.25943 22.3031 7.62609 22.0298C7.99943 21.7564 8.45609 21.6198 8.99609 21.6198C9.54276 21.6198 9.99943 21.7564 10.3661 22.0298C10.7328 22.3031 11.0094 22.7064 11.1961 23.2398C11.3828 23.7731 11.4761 24.4331 11.4761 25.2198C11.4761 26.0064 11.3828 26.6698 11.1961 27.2098C11.0094 27.7498 10.7294 28.1598 10.3561 28.4398C9.98943 28.7131 9.53609 28.8498 8.99609 28.8498ZM8.99609 28.1098C9.54943 28.1098 9.95943 27.8764 10.2261 27.4098C10.4928 26.9364 10.6261 26.2064 10.6261 25.2198C10.6261 24.2331 10.4928 23.5098 10.2261 23.0498C9.96609 22.5898 9.55609 22.3598 8.99609 22.3598C8.44276 22.3598 8.03276 22.5931 7.76609 23.0598C7.49943 23.5198 7.36609 24.2431 7.36609 25.2298C7.36609 26.2098 7.49943 26.9364 7.76609 27.4098C8.03276 27.8764 8.44276 28.1098 8.99609 28.1098ZM13.1122 28.7598L16.5722 22.0698L16.5922 22.4598H12.6522V21.7098H17.3322V22.3498L14.0522 28.7598H13.1122ZM20.5283 28.8498C20.2749 28.8498 20.0249 28.8198 19.7783 28.7598C19.5383 28.6931 19.3083 28.5964 19.0883 28.4698C18.8749 28.3431 18.6816 28.1898 18.5083 28.0098L18.8383 27.3498C19.0916 27.6164 19.3616 27.8098 19.6483 27.9298C19.9349 28.0431 20.2316 28.0998 20.5383 28.0998C20.8649 28.0998 21.1516 28.0398 21.3983 27.9198C21.6516 27.7931 21.8649 27.6098 22.0383 27.3698C22.2116 27.1231 22.3416 26.8198 22.4283 26.4598C22.5216 26.0931 22.5683 25.6764 22.5683 25.2098V24.4498H22.6083C22.5549 24.7898 22.4383 25.0898 22.2583 25.3498C22.0783 25.6031 21.8483 25.7964 21.5683 25.9298C21.2949 26.0631 20.9883 26.1298 20.6483 26.1298C20.2283 26.1298 19.8549 26.0364 19.5283 25.8498C19.2083 25.6631 18.9549 25.4031 18.7683 25.0698C18.5883 24.7298 18.4983 24.3431 18.4983 23.9098C18.4983 23.4631 18.5949 23.0698 18.7883 22.7298C18.9816 22.3831 19.2483 22.1131 19.5883 21.9198C19.9283 21.7198 20.3149 21.6198 20.7483 21.6198C21.3149 21.6198 21.7916 21.7564 22.1783 22.0298C22.5716 22.2964 22.8683 22.6864 23.0683 23.1998C23.2749 23.7131 23.3783 24.3364 23.3783 25.0698C23.3783 25.8764 23.2649 26.5631 23.0383 27.1298C22.8116 27.6898 22.4849 28.1164 22.0583 28.4098C21.6383 28.7031 21.1283 28.8498 20.5283 28.8498ZM20.8083 25.4098C21.1016 25.4098 21.3616 25.3464 21.5883 25.2198C21.8149 25.0931 21.9916 24.9131 22.1183 24.6798C22.2449 24.4464 22.3083 24.1798 22.3083 23.8798C22.3083 23.5731 22.2449 23.3064 22.1183 23.0798C21.9916 22.8464 21.8149 22.6664 21.5883 22.5398C21.3683 22.4064 21.1049 22.3398 20.7983 22.3398C20.5049 22.3398 20.2449 22.4064 20.0183 22.5398C19.7983 22.6731 19.6249 22.8564 19.4983 23.0898C19.3783 23.3164 19.3183 23.5798 19.3183 23.8798C19.3183 24.1864 19.3816 24.4564 19.5083 24.6898C19.6349 24.9164 19.8083 25.0931 20.0283 25.2198C20.2549 25.3464 20.5149 25.4098 20.8083 25.4098Z" fill="black"/>
</svg>
