<svg width="76" height="33" viewBox="0 0 76 33" fill="none" xmlns="http://www.w3.org/2000/svg">
<path d="M2.964 12V4.824H0.06V3.54H7.404V4.824H4.5V12H2.964ZM9.97163 12.12C9.36363 12.12 8.83563 11.996 8.38763 11.748C7.93963 11.5 7.59163 11.148 7.34363 10.692C7.09563 10.228 6.97163 9.684 6.97163 9.06C6.97163 8.436 7.09563 7.896 7.34363 7.44C7.59163 6.984 7.93963 6.632 8.38763 6.384C8.83563 6.136 9.36363 6.012 9.97163 6.012C10.5796 6.012 11.1076 6.136 11.5556 6.384C12.0036 6.632 12.3516 6.984 12.5996 7.44C12.8476 7.896 12.9716 8.436 12.9716 9.06C12.9716 9.684 12.8476 10.228 12.5996 10.692C12.3516 11.148 12.0036 11.5 11.5556 11.748C11.1076 11.996 10.5796 12.12 9.97163 12.12ZM9.97163 10.98C10.4196 10.98 10.7796 10.82 11.0516 10.5C11.3236 10.172 11.4596 9.692 11.4596 9.06C11.4596 8.42 11.3236 7.944 11.0516 7.632C10.7796 7.312 10.4196 7.152 9.97163 7.152C9.52363 7.152 9.16363 7.312 8.89163 7.632C8.61963 7.944 8.48363 8.42 8.48363 9.06C8.48363 9.692 8.61963 10.172 8.89163 10.5C9.16363 10.82 9.52363 10.98 9.97163 10.98ZM14.2097 14.16V6.132H15.6737V7.368H15.5537C15.6737 6.96 15.9177 6.632 16.2857 6.384C16.6617 6.136 17.0977 6.012 17.5937 6.012C18.1057 6.012 18.5537 6.136 18.9377 6.384C19.3297 6.632 19.6337 6.984 19.8497 7.44C20.0657 7.888 20.1737 8.428 20.1737 9.06C20.1737 9.684 20.0657 10.228 19.8497 10.692C19.6337 11.148 19.3337 11.5 18.9497 11.748C18.5657 11.996 18.1137 12.12 17.5937 12.12C17.1057 12.12 16.6777 12 16.3097 11.76C15.9417 11.512 15.6937 11.192 15.5657 10.8H15.7097V14.16H14.2097ZM17.1737 10.98C17.6217 10.98 17.9817 10.82 18.2537 10.5C18.5257 10.172 18.6617 9.692 18.6617 9.06C18.6617 8.42 18.5257 7.944 18.2537 7.632C17.9817 7.312 17.6217 7.152 17.1737 7.152C16.7257 7.152 16.3657 7.312 16.0937 7.632C15.8217 7.944 15.6857 8.42 15.6857 9.06C15.6857 9.692 15.8217 10.172 16.0937 10.5C16.3657 10.82 16.7257 10.98 17.1737 10.98Z" fill="#BC4544"/>
<path d="M2.54 28.6525C2.28667 28.6525 2.03667 28.6225 1.79 28.5625C1.55 28.4958 1.32 28.3992 1.1 28.2725C0.886667 28.1458 0.693333 27.9925 0.52 27.8125L0.85 27.1525C1.10333 27.4192 1.37333 27.6125 1.66 27.7325C1.94667 27.8458 2.24333 27.9025 2.55 27.9025C2.87667 27.9025 3.16333 27.8425 3.41 27.7225C3.66333 27.5958 3.87667 27.4125 4.05 27.1725C4.22333 26.9258 4.35333 26.6225 4.44 26.2625C4.53333 25.8958 4.58 25.4792 4.58 25.0125V24.2525H4.62C4.56667 24.5925 4.45 24.8925 4.27 25.1525C4.09 25.4058 3.86 25.5992 3.58 25.7325C3.30667 25.8658 3 25.9325 2.66 25.9325C2.24 25.9325 1.86667 25.8392 1.54 25.6525C1.22 25.4658 0.966667 25.2058 0.78 24.8725C0.6 24.5325 0.51 24.1458 0.51 23.7125C0.51 23.2658 0.606667 22.8725 0.8 22.5325C0.993333 22.1858 1.26 21.9158 1.6 21.7225C1.94 21.5225 2.32667 21.4225 2.76 21.4225C3.32667 21.4225 3.80333 21.5592 4.19 21.8325C4.58333 22.0992 4.88 22.4892 5.08 23.0025C5.28667 23.5158 5.39 24.1392 5.39 24.8725C5.39 25.6792 5.27667 26.3658 5.05 26.9325C4.82333 27.4925 4.49667 27.9192 4.07 28.2125C3.65 28.5058 3.14 28.6525 2.54 28.6525ZM2.82 25.2125C3.11333 25.2125 3.37333 25.1492 3.6 25.0225C3.82667 24.8958 4.00333 24.7158 4.13 24.4825C4.25667 24.2492 4.32 23.9825 4.32 23.6825C4.32 23.3758 4.25667 23.1092 4.13 22.8825C4.00333 22.6492 3.82667 22.4692 3.6 22.3425C3.38 22.2092 3.11667 22.1425 2.81 22.1425C2.51667 22.1425 2.25667 22.2092 2.03 22.3425C1.81 22.4758 1.63667 22.6592 1.51 22.8925C1.39 23.1192 1.33 23.3825 1.33 23.6825C1.33 23.9892 1.39333 24.2592 1.52 24.4925C1.64667 24.7192 1.82 24.8958 2.04 25.0225C2.26667 25.1492 2.52667 25.2125 2.82 25.2125ZM9.11609 28.6525C8.80943 28.6525 8.51276 28.6192 8.22609 28.5525C7.93943 28.4858 7.67276 28.3892 7.42609 28.2625C7.17943 28.1358 6.95943 27.9825 6.76609 27.8025L7.09609 27.1225C7.40943 27.3892 7.72943 27.5858 8.05609 27.7125C8.38276 27.8392 8.73276 27.9025 9.10609 27.9025C9.59943 27.9025 9.98276 27.7692 10.2561 27.5025C10.5361 27.2358 10.6761 26.8758 10.6761 26.4225C10.6761 25.9625 10.5428 25.5892 10.2761 25.3025C10.0161 25.0158 9.65609 24.8725 9.19609 24.8725C8.86943 24.8725 8.57943 24.9392 8.32609 25.0725C8.07276 25.1992 7.84276 25.4092 7.63609 25.7025H6.98609V21.5125H11.1361V22.2525H7.79609V24.9725H7.65609C7.82943 24.7192 8.05943 24.5192 8.34609 24.3725C8.63943 24.2192 8.96943 24.1425 9.33609 24.1425C9.78276 24.1425 10.1694 24.2358 10.4961 24.4225C10.8228 24.6092 11.0728 24.8692 11.2461 25.2025C11.4261 25.5358 11.5161 25.9258 11.5161 26.3725C11.5161 26.8325 11.4161 27.2325 11.2161 27.5725C11.0228 27.9125 10.7461 28.1792 10.3861 28.3725C10.0328 28.5592 9.60943 28.6525 9.11609 28.6525ZM15.508 28.5625V23.6625H16.318V24.7425H16.258C16.3446 24.5092 16.4646 24.3058 16.618 24.1325C16.778 23.9525 16.968 23.8158 17.188 23.7225C17.408 23.6225 17.6513 23.5725 17.918 23.5725C18.338 23.5725 18.6813 23.6758 18.948 23.8825C19.2146 24.0892 19.388 24.3792 19.468 24.7525H19.388C19.5146 24.4058 19.728 24.1225 20.028 23.9025C20.328 23.6825 20.6913 23.5725 21.118 23.5725C21.4913 23.5725 21.8013 23.6458 22.048 23.7925C22.2946 23.9325 22.4813 24.1458 22.608 24.4325C22.7346 24.7192 22.798 25.0825 22.798 25.5225V28.5625H21.958V25.5725C21.958 25.1392 21.878 24.8158 21.718 24.6025C21.5646 24.3892 21.298 24.2825 20.918 24.2825C20.6446 24.2825 20.4046 24.3492 20.198 24.4825C19.998 24.6092 19.8446 24.7858 19.738 25.0125C19.6313 25.2392 19.578 25.5058 19.578 25.8125V28.5625H18.728V25.5725C18.728 25.1392 18.6446 24.8158 18.478 24.6025C18.318 24.3892 18.058 24.2825 17.698 24.2825C17.4246 24.2825 17.1846 24.3492 16.978 24.4825C16.778 24.6158 16.6246 24.7992 16.518 25.0325C16.4113 25.2592 16.358 25.5125 16.358 25.7925V28.5625H15.508ZM24.4533 28.5625V23.6625H25.2633V24.7425H25.2033C25.2899 24.5092 25.4099 24.3058 25.5633 24.1325C25.7233 23.9525 25.9133 23.8158 26.1333 23.7225C26.3533 23.6225 26.5966 23.5725 26.8633 23.5725C27.2833 23.5725 27.6266 23.6758 27.8933 23.8825C28.1599 24.0892 28.3333 24.3792 28.4133 24.7525H28.3333C28.4599 24.4058 28.6733 24.1225 28.9733 23.9025C29.2733 23.6825 29.6366 23.5725 30.0633 23.5725C30.4366 23.5725 30.7466 23.6458 30.9933 23.7925C31.2399 23.9325 31.4266 24.1458 31.5533 24.4325C31.6799 24.7192 31.7433 25.0825 31.7433 25.5225V28.5625H30.9033V25.5725C30.9033 25.1392 30.8233 24.8158 30.6633 24.6025C30.5099 24.3892 30.2433 24.2825 29.8633 24.2825C29.5899 24.2825 29.3499 24.3492 29.1433 24.4825C28.9433 24.6092 28.7899 24.7858 28.6833 25.0125C28.5766 25.2392 28.5233 25.5058 28.5233 25.8125V28.5625H27.6733V25.5725C27.6733 25.1392 27.5899 24.8158 27.4233 24.6025C27.2633 24.3892 27.0033 24.2825 26.6433 24.2825C26.3699 24.2825 26.1299 24.3492 25.9233 24.4825C25.7233 24.6158 25.5699 24.7992 25.4633 25.0325C25.3566 25.2592 25.3033 25.5125 25.3033 25.7925V28.5625H24.4533Z" fill="black"/>
</svg>
