<svg width="119" height="14" viewBox="0 0 119 14" fill="none" xmlns="http://www.w3.org/2000/svg">
<path d="M-0.000140548 13.3564V0.756444H6.15586C7.73986 0.756444 8.92786 1.05644 9.71986 1.65644C10.5239 2.25644 10.9259 3.04844 10.9259 4.03245C10.9259 4.69244 10.7639 5.26844 10.4399 5.76044C10.1159 6.24044 9.67186 6.61244 9.10786 6.87645C8.54386 7.14044 7.89586 7.27244 7.16386 7.27244L7.50586 6.53445C8.29786 6.53445 8.99986 6.66645 9.61186 6.93044C10.2239 7.18244 10.6979 7.56045 11.0339 8.06445C11.3819 8.56845 11.5559 9.18645 11.5559 9.91845C11.5559 10.9984 11.1299 11.8444 10.2779 12.4564C9.42586 13.0564 8.17186 13.3564 6.51586 13.3564H-0.000140548ZM2.89786 11.1604H6.29986C7.05586 11.1604 7.62586 11.0404 8.00986 10.8004C8.40586 10.5484 8.60386 10.1524 8.60386 9.61245C8.60386 9.08445 8.40586 8.69445 8.00986 8.44245C7.62586 8.17845 7.05586 8.04645 6.29986 8.04645H2.68186V5.92244H5.79586C6.50386 5.92244 7.04386 5.80244 7.41586 5.56244C7.79986 5.31044 7.99186 4.93244 7.99186 4.42844C7.99186 3.93645 7.79986 3.57045 7.41586 3.33044C7.04386 3.07844 6.50386 2.95245 5.79586 2.95245H2.89786V11.1604ZM16.1978 13.3564V3.13244H12.1658V0.756444H23.1458V3.13244H19.1138V13.3564H16.1978ZM23.4887 9.41445V7.16445H28.5827V9.41445H23.4887ZM31.7554 13.3564V1.83644L33.0154 3.09644H29.2354V0.756444H34.6714V13.3564H31.7554ZM36.7162 10.7104V8.74845L42.6562 0.756444H45.7162L39.9022 8.74845L38.4802 8.33445H48.3982V10.7104H36.7162ZM43.5022 13.3564V10.7104L43.5922 8.33445V5.97644H46.3462V13.3564H43.5022ZM49.6801 9.41445V7.16445H54.7741V9.41445H49.6801ZM60.6735 13.5724C59.7975 13.5724 58.9275 13.4584 58.0635 13.2304C57.2115 12.9904 56.4795 12.6544 55.8675 12.2224L57.0195 9.99045C57.4995 10.3384 58.0515 10.6144 58.6755 10.8184C59.3115 11.0224 59.9535 11.1244 60.6015 11.1244C61.3335 11.1244 61.9095 10.9804 62.3295 10.6924C62.7495 10.4044 62.9595 10.0024 62.9595 9.48645C62.9595 9.16245 62.8755 8.87445 62.7075 8.62245C62.5395 8.37045 62.2395 8.17845 61.8075 8.04645C61.3875 7.91444 60.7935 7.84844 60.0255 7.84844H56.8035L57.4515 0.756444H65.1375V3.09644H58.4955L60.0075 1.76444L59.5575 6.82245L58.0455 5.49045H60.7095C61.9575 5.49045 62.9595 5.66445 63.7155 6.01244C64.4835 6.34844 65.0415 6.81044 65.3895 7.39844C65.7375 7.98645 65.9115 8.65245 65.9115 9.39645C65.9115 10.1404 65.7255 10.8304 65.3535 11.4664C64.9815 12.0904 64.4055 12.6004 63.6255 12.9964C62.8575 13.3804 61.8735 13.5724 60.6735 13.5724ZM72.4946 13.5724C71.4626 13.5724 70.5386 13.3204 69.7226 12.8164C68.9066 12.3004 68.2646 11.5564 67.7966 10.5844C67.3286 9.61245 67.0946 8.43644 67.0946 7.05644C67.0946 5.67644 67.3286 4.50044 67.7966 3.52845C68.2646 2.55644 68.9066 1.81844 69.7226 1.31444C70.5386 0.798445 71.4626 0.540445 72.4946 0.540445C73.5386 0.540445 74.4626 0.798445 75.2666 1.31444C76.0826 1.81844 76.7246 2.55644 77.1926 3.52845C77.6606 4.50044 77.8946 5.67644 77.8946 7.05644C77.8946 8.43644 77.6606 9.61245 77.1926 10.5844C76.7246 11.5564 76.0826 12.3004 75.2666 12.8164C74.4626 13.3204 73.5386 13.5724 72.4946 13.5724ZM72.4946 11.1064C72.9866 11.1064 73.4126 10.9684 73.7726 10.6924C74.1446 10.4164 74.4326 9.97845 74.6366 9.37845C74.8526 8.77844 74.9606 8.00444 74.9606 7.05644C74.9606 6.10844 74.8526 5.33444 74.6366 4.73444C74.4326 4.13444 74.1446 3.69644 73.7726 3.42044C73.4126 3.14444 72.9866 3.00644 72.4946 3.00644C72.0146 3.00644 71.5886 3.14444 71.2166 3.42044C70.8566 3.69644 70.5686 4.13444 70.3526 4.73444C70.1486 5.33444 70.0466 6.10844 70.0466 7.05644C70.0466 8.00444 70.1486 8.77844 70.3526 9.37845C70.5686 9.97845 70.8566 10.4164 71.2166 10.6924C71.5886 10.9684 72.0146 11.1064 72.4946 11.1064ZM84.7114 13.5724C83.6794 13.5724 82.7554 13.3204 81.9394 12.8164C81.1234 12.3004 80.4814 11.5564 80.0134 10.5844C79.5454 9.61245 79.3114 8.43644 79.3114 7.05644C79.3114 5.67644 79.5454 4.50044 80.0134 3.52845C80.4814 2.55644 81.1234 1.81844 81.9394 1.31444C82.7554 0.798445 83.6794 0.540445 84.7114 0.540445C85.7554 0.540445 86.6794 0.798445 87.4834 1.31444C88.2994 1.81844 88.9414 2.55644 89.4094 3.52845C89.8774 4.50044 90.1114 5.67644 90.1114 7.05644C90.1114 8.43644 89.8774 9.61245 89.4094 10.5844C88.9414 11.5564 88.2994 12.3004 87.4834 12.8164C86.6794 13.3204 85.7554 13.5724 84.7114 13.5724ZM84.7114 11.1064C85.2034 11.1064 85.6294 10.9684 85.9894 10.6924C86.3614 10.4164 86.6494 9.97845 86.8534 9.37845C87.0694 8.77844 87.1774 8.00444 87.1774 7.05644C87.1774 6.10844 87.0694 5.33444 86.8534 4.73444C86.6494 4.13444 86.3614 3.69644 85.9894 3.42044C85.6294 3.14444 85.2034 3.00644 84.7114 3.00644C84.2314 3.00644 83.8054 3.14444 83.4334 3.42044C83.0734 3.69644 82.7854 4.13444 82.5694 4.73444C82.3654 5.33444 82.2634 6.10844 82.2634 7.05644C82.2634 8.00444 82.3654 8.77844 82.5694 9.37845C82.7854 9.97845 83.0734 10.4164 83.4334 10.6924C83.8054 10.9684 84.2314 11.1064 84.7114 11.1064ZM109.622 3.52845C110.39 3.52845 111.068 3.68445 111.656 3.99644C112.256 4.29644 112.724 4.76444 113.06 5.40044C113.408 6.02444 113.582 6.82844 113.582 7.81244V13.3564H110.774V8.24445C110.774 7.46445 110.612 6.88845 110.288 6.51644C109.964 6.14445 109.508 5.95845 108.92 5.95845C108.512 5.95845 108.146 6.05445 107.822 6.24645C107.498 6.42644 107.246 6.70244 107.066 7.07445C106.886 7.44645 106.796 7.92045 106.796 8.49645V13.3564H103.988V8.24445C103.988 7.46445 103.826 6.88845 103.502 6.51644C103.19 6.14445 102.74 5.95845 102.152 5.95845C101.744 5.95845 101.378 6.05445 101.054 6.24645C100.73 6.42644 100.478 6.70244 100.298 7.07445C100.118 7.44645 100.028 7.92045 100.028 8.49645V13.3564H97.2198V3.67244H99.9018V6.31844L99.3978 5.54445C99.7338 4.88444 100.208 4.38644 100.82 4.05044C101.444 3.70245 102.152 3.52845 102.944 3.52845C103.832 3.52845 104.606 3.75645 105.266 4.21245C105.938 4.65645 106.382 5.34044 106.598 6.26444L105.608 5.99445C105.932 5.23844 106.448 4.63844 107.156 4.19445C107.876 3.75045 108.698 3.52845 109.622 3.52845ZM116.099 13.3564V0.000444531H118.907V13.3564H116.099Z" fill="#1B622D"/>
</svg>
