<svg width="246" height="38" viewBox="0 0 246 38" fill="none" xmlns="http://www.w3.org/2000/svg">
<path d="M3.15639 7.75891L-0.00048396 0.584202H1.10647L4.0071 7.20543H3.37163L6.29276 0.584202H7.31772L4.1711 7.75891H3.15639ZM10.0977 7.82041C9.51687 7.82041 9.00439 7.70083 8.56024 7.46167C8.12293 7.22252 7.78127 6.89453 7.53528 6.47771C7.29613 6.0609 7.17655 5.58258 7.17655 5.04277C7.17655 4.50296 7.29271 4.02465 7.52503 3.60783C7.76419 3.19101 8.08876 2.86644 8.49874 2.63412C8.91556 2.39496 9.38362 2.27538 9.90294 2.27538C10.4291 2.27538 10.8937 2.39155 11.2969 2.62387C11.7 2.85619 12.0144 3.18418 12.2398 3.60783C12.4722 4.02465 12.5883 4.51321 12.5883 5.07352C12.5883 5.11452 12.5849 5.16235 12.5781 5.21701C12.5781 5.27168 12.5747 5.32293 12.5678 5.37076H7.94527V4.66354H12.0553L11.6556 4.90953C11.6624 4.56104 11.5907 4.25014 11.4404 3.97681C11.29 3.70349 11.0816 3.49167 10.8151 3.34134C10.5555 3.18418 10.2514 3.1056 9.90294 3.1056C9.56128 3.1056 9.25721 3.18418 8.99072 3.34134C8.72423 3.49167 8.51583 3.70691 8.3655 3.98706C8.21517 4.26039 8.14001 4.57471 8.14001 4.93003V5.09402C8.14001 5.45617 8.222 5.78074 8.386 6.06773C8.55682 6.34788 8.79257 6.56654 9.09322 6.7237C9.39387 6.88086 9.73894 6.95944 10.1284 6.95944C10.4496 6.95944 10.74 6.90478 10.9996 6.79545C11.2661 6.68612 11.4985 6.52213 11.6966 6.30347L12.2398 6.93894C11.9939 7.22593 11.6864 7.44459 11.3174 7.59492C10.9552 7.74525 10.5487 7.82041 10.0977 7.82041ZM13.9546 7.75891V2.32663H14.8976V3.80257L14.8054 3.43359C14.9557 3.05777 15.2085 2.77078 15.5638 2.57262C15.9191 2.37446 16.3565 2.27538 16.8758 2.27538V3.22859C16.8348 3.22176 16.7938 3.21835 16.7528 3.21835C16.7186 3.21835 16.6845 3.21835 16.6503 3.21835C16.1241 3.21835 15.7073 3.37551 15.3998 3.68983C15.0923 4.00415 14.9386 4.45854 14.9386 5.05302V7.75891H13.9546ZM19.7065 7.82041C19.2555 7.82041 18.825 7.75891 18.4151 7.63592C18.0119 7.51292 17.6942 7.36259 17.4618 7.18493L17.8718 6.40597C18.1042 6.56313 18.3911 6.69637 18.7328 6.8057C19.0744 6.91503 19.4229 6.96969 19.7783 6.96969C20.2361 6.96969 20.5641 6.90478 20.7622 6.77495C20.9672 6.64512 21.0697 6.46405 21.0697 6.23172C21.0697 6.0609 21.0082 5.92765 20.8852 5.83199C20.7622 5.73633 20.5982 5.66458 20.3932 5.61675C20.1951 5.56892 19.973 5.52792 19.727 5.49375C19.481 5.45275 19.235 5.40492 18.989 5.35026C18.743 5.28876 18.5176 5.20676 18.3126 5.10427C18.1076 4.99494 17.9436 4.84803 17.8206 4.66354C17.6976 4.47221 17.6361 4.21939 17.6361 3.90507C17.6361 3.57708 17.7283 3.29009 17.9128 3.0441C18.0973 2.79811 18.357 2.6102 18.6918 2.48037C19.0334 2.34371 19.4366 2.27538 19.9012 2.27538C20.2566 2.27538 20.6153 2.3198 20.9775 2.40863C21.3464 2.49062 21.6471 2.6102 21.8794 2.76736L21.4592 3.54633C21.2132 3.38234 20.957 3.26959 20.6905 3.2081C20.424 3.1466 20.1575 3.11585 19.891 3.11585C19.4605 3.11585 19.1394 3.1876 18.9275 3.33109C18.7157 3.46775 18.6098 3.64541 18.6098 3.86407C18.6098 4.04856 18.6713 4.19206 18.7943 4.29455C18.9241 4.39021 19.0881 4.46538 19.2863 4.52004C19.4913 4.57471 19.7168 4.62254 19.9627 4.66354C20.2087 4.6977 20.4547 4.74553 20.7007 4.80703C20.9467 4.8617 21.1688 4.94028 21.3669 5.04277C21.5719 5.14527 21.7359 5.28876 21.8589 5.47325C21.9887 5.65775 22.0537 5.90374 22.0537 6.21122C22.0537 6.53921 21.958 6.82278 21.7667 7.06194C21.5753 7.3011 21.3054 7.48901 20.957 7.62567C20.6085 7.75549 20.1917 7.82041 19.7065 7.82041ZM26.6555 7.75891V6.61096L26.6042 6.39572V4.43805C26.6042 4.02123 26.4812 3.70008 26.2352 3.47458C25.9961 3.24226 25.6339 3.1261 25.1488 3.1261C24.8276 3.1261 24.5133 3.18076 24.2058 3.29009C23.8983 3.39259 23.6387 3.53267 23.4269 3.71033L23.0169 2.97236C23.297 2.74686 23.6319 2.57604 24.0213 2.45988C24.4177 2.33688 24.8311 2.27538 25.2615 2.27538C26.0063 2.27538 26.5803 2.45646 26.9835 2.81861C27.3866 3.18076 27.5882 3.73424 27.5882 4.47904V7.75891H26.6555ZM24.8721 7.82041C24.4689 7.82041 24.1136 7.75208 23.8061 7.61542C23.5054 7.47876 23.2731 7.29085 23.1091 7.05169C22.9451 6.8057 22.8631 6.52896 22.8631 6.22147C22.8631 5.92765 22.9315 5.66116 23.0681 5.42201C23.2116 5.18285 23.4405 4.99152 23.7548 4.84803C24.076 4.70453 24.5065 4.63279 25.0463 4.63279H26.7682V5.34001H25.0873C24.5953 5.34001 24.2639 5.42201 24.0931 5.586C23.9223 5.74999 23.8368 5.94815 23.8368 6.18048C23.8368 6.44696 23.9428 6.66221 24.1546 6.8262C24.3664 6.98336 24.6602 7.06194 25.036 7.06194C25.405 7.06194 25.7262 6.97994 25.9995 6.81595C26.2797 6.65196 26.4812 6.4128 26.6042 6.09848L26.799 6.77495C26.6691 7.0961 26.4402 7.35234 26.1123 7.54367C25.7843 7.72816 25.3709 7.82041 24.8721 7.82041ZM31.2745 7.82041C30.7279 7.82041 30.3042 7.6735 30.0036 7.37968C29.7029 7.08586 29.5526 6.66562 29.5526 6.11898V1.13768H30.5365V6.07798C30.5365 6.3718 30.6083 6.59729 30.7518 6.75445C30.9021 6.91161 31.1139 6.99019 31.3873 6.99019C31.6948 6.99019 31.951 6.90478 32.156 6.73395L32.4635 7.44117C32.3131 7.571 32.1321 7.66666 31.9202 7.72816C31.7153 7.78966 31.5 7.82041 31.2745 7.82041ZM28.6301 3.13635V2.32663H32.0945V3.13635H28.6301ZM33.6531 7.75891V2.32663H34.637V7.75891H33.6531ZM34.145 1.28117C33.9537 1.28117 33.7931 1.21968 33.6633 1.09668C33.5403 0.973686 33.4788 0.823359 33.4788 0.6457C33.4788 0.461207 33.5403 0.307463 33.6633 0.184468C33.7931 0.0614731 33.9537 -2.44032e-05 34.145 -2.44032e-05C34.3364 -2.44032e-05 34.4935 0.0614731 34.6165 0.184468C34.7464 0.30063 34.8113 0.447541 34.8113 0.6252C34.8113 0.809693 34.7498 0.966853 34.6268 1.09668C34.5038 1.21968 34.3432 1.28117 34.145 1.28117ZM36.5157 7.75891V0.153719H37.4997V7.75891H36.5157ZM41.7973 7.82041C41.2165 7.82041 40.704 7.70083 40.2599 7.46167C39.8226 7.22252 39.4809 6.89453 39.2349 6.47771C38.9958 6.0609 38.8762 5.58258 38.8762 5.04277C38.8762 4.50296 38.9923 4.02465 39.2247 3.60783C39.4638 3.19101 39.7884 2.86644 40.1984 2.63412C40.6152 2.39496 41.0833 2.27538 41.6026 2.27538C42.1287 2.27538 42.5934 2.39155 42.9965 2.62387C43.3997 2.85619 43.714 3.18418 43.9395 3.60783C44.1718 4.02465 44.288 4.51321 44.288 5.07352C44.288 5.11452 44.2846 5.16235 44.2777 5.21701C44.2777 5.27168 44.2743 5.32293 44.2675 5.37076H39.6449V4.66354H43.755L43.3553 4.90953C43.3621 4.56104 43.2903 4.25014 43.14 3.97681C42.9897 3.70349 42.7813 3.49167 42.5148 3.34134C42.2551 3.18418 41.9511 3.1056 41.6026 3.1056C41.2609 3.1056 40.9569 3.18418 40.6904 3.34134C40.4239 3.49167 40.2155 3.70691 40.0651 3.98706C39.9148 4.26039 39.8396 4.57471 39.8396 4.93003V5.09402C39.8396 5.45617 39.9216 5.78074 40.0856 6.06773C40.2565 6.34788 40.4922 6.56654 40.7929 6.7237C41.0935 6.88086 41.4386 6.95944 41.8281 6.95944C42.1492 6.95944 42.4396 6.90478 42.6993 6.79545C42.9658 6.68612 43.1981 6.52213 43.3963 6.30347L43.9395 6.93894C43.6935 7.22593 43.386 7.44459 43.017 7.59492C42.6549 7.74525 42.2483 7.82041 41.7973 7.82041ZM48.5504 7.75891V0.584202H49.5753V7.75891H48.5504ZM51.7233 7.75891V0.584202H52.5638L55.7822 6.00623H55.3312L58.5085 0.584202H59.349L59.3593 7.75891H58.3753L58.3651 2.13189H58.6008L55.7719 6.8877H55.3004L52.451 2.13189H52.7073V7.75891H51.7233ZM61.5125 7.75891V0.584202H62.5374V6.8672H66.422V7.75891H61.5125ZM72.5749 7.82041C72.0214 7.82041 71.526 7.70083 71.0887 7.46167C70.6582 7.22252 70.32 6.89453 70.074 6.47771C69.828 6.0609 69.705 5.58258 69.705 5.04277C69.705 4.50296 69.828 4.02465 70.074 3.60783C70.32 3.19101 70.6582 2.86644 71.0887 2.63412C71.526 2.39496 72.0214 2.27538 72.5749 2.27538C73.0669 2.27538 73.5042 2.37446 73.8868 2.57262C74.2763 2.76395 74.577 3.05094 74.7888 3.43359L74.0406 3.91532C73.8629 3.64883 73.6443 3.45409 73.3846 3.33109C73.1318 3.20126 72.8585 3.13635 72.5647 3.13635C72.2093 3.13635 71.8916 3.21493 71.6114 3.37209C71.3313 3.52925 71.1092 3.75132 70.9452 4.03831C70.7812 4.31847 70.6992 4.65329 70.6992 5.04277C70.6992 5.43226 70.7812 5.77049 70.9452 6.05748C71.1092 6.34447 71.3313 6.56654 71.6114 6.7237C71.8916 6.88086 72.2093 6.95944 72.5647 6.95944C72.8585 6.95944 73.1318 6.89795 73.3846 6.77495C73.6443 6.64512 73.8629 6.44696 74.0406 6.18048L74.7888 6.65196C74.577 7.02777 74.2763 7.31818 73.8868 7.52317C73.5042 7.72133 73.0669 7.82041 72.5749 7.82041ZM78.3093 7.82041C77.7627 7.82041 77.2775 7.70083 76.8539 7.46167C76.4302 7.22252 76.0954 6.89453 75.8494 6.47771C75.6034 6.05406 75.4804 5.57575 75.4804 5.04277C75.4804 4.50296 75.6034 4.02465 75.8494 3.60783C76.0954 3.19101 76.4302 2.86644 76.8539 2.63412C77.2775 2.39496 77.7627 2.27538 78.3093 2.27538C78.8491 2.27538 79.3308 2.39496 79.7545 2.63412C80.185 2.86644 80.5198 3.19101 80.759 3.60783C81.0049 4.01781 81.1279 4.49613 81.1279 5.04277C81.1279 5.58258 81.0049 6.0609 80.759 6.47771C80.5198 6.89453 80.185 7.22252 79.7545 7.46167C79.3308 7.70083 78.8491 7.82041 78.3093 7.82041ZM78.3093 6.95944C78.6578 6.95944 78.9687 6.88086 79.242 6.7237C79.5222 6.56654 79.7408 6.34447 79.898 6.05748C80.0551 5.76366 80.1337 5.42542 80.1337 5.04277C80.1337 4.65329 80.0551 4.31847 79.898 4.03831C79.7408 3.75132 79.5222 3.52925 79.242 3.37209C78.9687 3.21493 78.6578 3.13635 78.3093 3.13635C77.9608 3.13635 77.6499 3.21493 77.3766 3.37209C77.1033 3.52925 76.8846 3.75132 76.7206 4.03831C76.5566 4.31847 76.4746 4.65329 76.4746 5.04277C76.4746 5.42542 76.5566 5.76366 76.7206 6.05748C76.8846 6.34447 77.1033 6.56654 77.3766 6.7237C77.6499 6.88086 77.9608 6.95944 78.3093 6.95944ZM85.3894 2.27538C85.8335 2.27538 86.223 2.3608 86.5578 2.53162C86.8995 2.70245 87.166 2.96211 87.3573 3.31059C87.5486 3.65908 87.6443 4.09981 87.6443 4.63279V7.75891H86.6603V4.74553C86.6603 4.21939 86.5305 3.82307 86.2708 3.55658C86.018 3.29009 85.6593 3.15685 85.1946 3.15685C84.8461 3.15685 84.5421 3.22518 84.2824 3.36184C84.0227 3.4985 83.8212 3.70008 83.6777 3.96656C83.541 4.23305 83.4727 4.56446 83.4727 4.96077V7.75891H82.4887V2.32663H83.4317V3.79232L83.2779 3.40284C83.4556 3.04752 83.7289 2.77078 84.0979 2.57262C84.4669 2.37446 84.8974 2.27538 85.3894 2.27538ZM91.3307 7.82041C90.784 7.82041 90.3604 7.6735 90.0597 7.37968C89.7591 7.08586 89.6087 6.66562 89.6087 6.11898V1.13768H90.5927V6.07798C90.5927 6.3718 90.6645 6.59729 90.8079 6.75445C90.9583 6.91161 91.1701 6.99019 91.4434 6.99019C91.7509 6.99019 92.0071 6.90478 92.2121 6.73395L92.5196 7.44117C92.3693 7.571 92.1882 7.66666 91.9764 7.72816C91.7714 7.78966 91.5562 7.82041 91.3307 7.82041ZM88.6863 3.13635V2.32663H92.1506V3.13635H88.6863ZM97.0813 7.75891V6.61096L97.0301 6.39572V4.43805C97.0301 4.02123 96.9071 3.70008 96.6611 3.47458C96.4219 3.24226 96.0598 3.1261 95.5746 3.1261C95.2535 3.1261 94.9392 3.18076 94.6317 3.29009C94.3242 3.39259 94.0645 3.53267 93.8527 3.71033L93.4427 2.97236C93.7229 2.74686 94.0577 2.57604 94.4472 2.45988C94.8435 2.33688 95.2569 2.27538 95.6874 2.27538C96.4322 2.27538 97.0062 2.45646 97.4093 2.81861C97.8125 3.18076 98.0141 3.73424 98.0141 4.47904V7.75891H97.0813ZM95.2979 7.82041C94.8948 7.82041 94.5394 7.75208 94.232 7.61542C93.9313 7.47876 93.699 7.29085 93.535 7.05169C93.371 6.8057 93.289 6.52896 93.289 6.22147C93.289 5.92765 93.3573 5.66116 93.494 5.42201C93.6375 5.18285 93.8664 4.99152 94.1807 4.84803C94.5019 4.70453 94.9323 4.63279 95.4722 4.63279H97.1941V5.34001H95.5132C95.0212 5.34001 94.6898 5.42201 94.5189 5.586C94.3481 5.74999 94.2627 5.94815 94.2627 6.18048C94.2627 6.44696 94.3686 6.66221 94.5804 6.8262C94.7923 6.98336 95.0861 7.06194 95.4619 7.06194C95.8309 7.06194 96.152 6.97994 96.4254 6.81595C96.7055 6.65196 96.9071 6.4128 97.0301 6.09848L97.2248 6.77495C97.095 7.0961 96.8661 7.35234 96.5381 7.54367C96.2101 7.72816 95.7967 7.82041 95.2979 7.82041ZM99.8349 7.75891V2.32663H100.819V7.75891H99.8349ZM100.327 1.28117C100.136 1.28117 99.975 1.21968 99.8452 1.09668C99.7222 0.973686 99.6607 0.823359 99.6607 0.6457C99.6607 0.461207 99.7222 0.307463 99.8452 0.184468C99.975 0.0614731 100.136 -2.44032e-05 100.327 -2.44032e-05C100.518 -2.44032e-05 100.675 0.0614731 100.798 0.184468C100.928 0.30063 100.993 0.447541 100.993 0.6252C100.993 0.809693 100.932 0.966853 100.809 1.09668C100.686 1.21968 100.525 1.28117 100.327 1.28117ZM105.598 2.27538C106.042 2.27538 106.432 2.3608 106.767 2.53162C107.108 2.70245 107.375 2.96211 107.566 3.31059C107.758 3.65908 107.853 4.09981 107.853 4.63279V7.75891H106.869V4.74553C106.869 4.21939 106.739 3.82307 106.48 3.55658C106.227 3.29009 105.868 3.15685 105.404 3.15685C105.055 3.15685 104.751 3.22518 104.491 3.36184C104.232 3.4985 104.03 3.70008 103.887 3.96656C103.75 4.23305 103.682 4.56446 103.682 4.96077V7.75891H102.698V2.32663H103.641V3.79232L103.487 3.40284C103.665 3.04752 103.938 2.77078 104.307 2.57262C104.676 2.37446 105.106 2.27538 105.598 2.27538ZM112.093 7.82041C111.512 7.82041 111 7.70083 110.556 7.46167C110.118 7.22252 109.777 6.89453 109.531 6.47771C109.292 6.0609 109.172 5.58258 109.172 5.04277C109.172 4.50296 109.288 4.02465 109.52 3.60783C109.76 3.19101 110.084 2.86644 110.494 2.63412C110.911 2.39496 111.379 2.27538 111.898 2.27538C112.424 2.27538 112.889 2.39155 113.292 2.62387C113.695 2.85619 114.01 3.18418 114.235 3.60783C114.468 4.02465 114.584 4.51321 114.584 5.07352C114.584 5.11452 114.58 5.16235 114.573 5.21701C114.573 5.27168 114.57 5.32293 114.563 5.37076H109.941V4.66354H114.051L113.651 4.90953C113.658 4.56104 113.586 4.25014 113.436 3.97681C113.285 3.70349 113.077 3.49167 112.811 3.34134C112.551 3.18418 112.247 3.1056 111.898 3.1056C111.557 3.1056 111.253 3.18418 110.986 3.34134C110.72 3.49167 110.511 3.70691 110.361 3.98706C110.211 4.26039 110.135 4.57471 110.135 4.93003V5.09402C110.135 5.45617 110.217 5.78074 110.381 6.06773C110.552 6.34788 110.788 6.56654 111.089 6.7237C111.389 6.88086 111.734 6.95944 112.124 6.95944C112.445 6.95944 112.735 6.90478 112.995 6.79545C113.262 6.68612 113.494 6.52213 113.692 6.30347L114.235 6.93894C113.989 7.22593 113.682 7.44459 113.313 7.59492C112.951 7.74525 112.544 7.82041 112.093 7.82041ZM115.95 7.75891V2.32663H116.893V3.80257L116.801 3.43359C116.951 3.05777 117.204 2.77078 117.559 2.57262C117.915 2.37446 118.352 2.27538 118.871 2.27538V3.22859C118.83 3.22176 118.789 3.21835 118.748 3.21835C118.714 3.21835 118.68 3.21835 118.646 3.21835C118.12 3.21835 117.703 3.37551 117.395 3.68983C117.088 4.00415 116.934 4.45854 116.934 5.05302V7.75891H115.95ZM124.69 7.81016C124.184 7.81016 123.795 7.6735 123.521 7.40018C123.248 7.12685 123.112 6.74079 123.112 6.24197V1.18893H123.839V6.20097C123.839 6.51529 123.918 6.75787 124.075 6.92869C124.239 7.09952 124.471 7.18493 124.772 7.18493C125.093 7.18493 125.36 7.09269 125.571 6.9082L125.828 7.43092C125.684 7.56075 125.51 7.65642 125.305 7.71791C125.107 7.77941 124.902 7.81016 124.69 7.81016ZM122.148 2.9826V2.37788H125.479V2.9826H122.148ZM129.899 2.32663C130.337 2.32663 130.719 2.41204 131.047 2.58287C131.382 2.74686 131.642 2.99969 131.826 3.34134C132.018 3.68299 132.113 4.11348 132.113 4.63279V7.75891H131.385V4.70453C131.385 4.13739 131.242 3.71033 130.955 3.42334C130.675 3.12952 130.279 2.9826 129.766 2.9826C129.383 2.9826 129.049 3.06118 128.762 3.21835C128.481 3.36867 128.263 3.59075 128.106 3.88457C127.955 4.17156 127.88 4.52004 127.88 4.93003V7.75891H127.152V0.153719H127.88V3.85382L127.737 3.57708C127.907 3.1876 128.181 2.88353 128.557 2.66487C128.932 2.43938 129.38 2.32663 129.899 2.32663ZM137.451 7.75891V6.56996L137.42 6.37522V4.3868C137.42 3.92898 137.29 3.57708 137.031 3.33109C136.778 3.0851 136.399 2.96211 135.893 2.96211C135.545 2.96211 135.213 3.02019 134.899 3.13635C134.585 3.25251 134.318 3.40625 134.099 3.59758L133.771 3.05435C134.045 2.82203 134.373 2.64437 134.755 2.52137C135.138 2.39155 135.541 2.32663 135.965 2.32663C136.662 2.32663 137.198 2.50087 137.574 2.84936C137.957 3.19101 138.148 3.71374 138.148 4.41755V7.75891H137.451ZM135.596 7.81016C135.193 7.81016 134.841 7.74525 134.54 7.61542C134.246 7.47876 134.021 7.29426 133.864 7.06194C133.706 6.82278 133.628 6.54946 133.628 6.24197C133.628 5.96182 133.693 5.70899 133.823 5.4835C133.959 5.25118 134.178 5.06669 134.479 4.93003C134.786 4.78653 135.196 4.71478 135.709 4.71478H137.564V5.25801H135.729C135.21 5.25801 134.848 5.35026 134.643 5.53475C134.444 5.71924 134.345 5.94815 134.345 6.22147C134.345 6.52896 134.465 6.77495 134.704 6.95944C134.943 7.14394 135.278 7.23618 135.709 7.23618C136.119 7.23618 136.47 7.14394 136.764 6.95944C137.065 6.76812 137.284 6.4948 137.42 6.13948L137.584 6.64171C137.448 6.99703 137.208 7.2806 136.867 7.49242C136.532 7.70425 136.108 7.81016 135.596 7.81016ZM141.826 7.81016C141.32 7.81016 140.931 7.6735 140.658 7.40018C140.384 7.12685 140.248 6.74079 140.248 6.24197V1.18893H140.975V6.20097C140.975 6.51529 141.054 6.75787 141.211 6.92869C141.375 7.09952 141.607 7.18493 141.908 7.18493C142.229 7.18493 142.496 7.09269 142.707 6.9082L142.964 7.43092C142.82 7.56075 142.646 7.65642 142.441 7.71791C142.243 7.77941 142.038 7.81016 141.826 7.81016ZM139.284 2.9826V2.37788H142.615V2.9826H139.284ZM148.447 7.82041C147.996 7.82041 147.565 7.75891 147.155 7.63592C146.752 7.51292 146.435 7.36259 146.202 7.18493L146.612 6.40597C146.845 6.56313 147.132 6.69637 147.473 6.8057C147.815 6.91503 148.163 6.96969 148.519 6.96969C148.976 6.96969 149.304 6.90478 149.503 6.77495C149.708 6.64512 149.81 6.46405 149.81 6.23172C149.81 6.0609 149.749 5.92765 149.626 5.83199C149.503 5.73633 149.339 5.66458 149.134 5.61675C148.935 5.56892 148.713 5.52792 148.467 5.49375C148.221 5.45275 147.975 5.40492 147.729 5.35026C147.483 5.28876 147.258 5.20676 147.053 5.10427C146.848 4.99494 146.684 4.84803 146.561 4.66354C146.438 4.47221 146.376 4.21939 146.376 3.90507C146.376 3.57708 146.469 3.29009 146.653 3.0441C146.838 2.79811 147.097 2.6102 147.432 2.48037C147.774 2.34371 148.177 2.27538 148.642 2.27538C148.997 2.27538 149.356 2.3198 149.718 2.40863C150.087 2.49062 150.387 2.6102 150.62 2.76736L150.2 3.54633C149.954 3.38234 149.697 3.26959 149.431 3.2081C149.164 3.1466 148.898 3.11585 148.631 3.11585C148.201 3.11585 147.88 3.1876 147.668 3.33109C147.456 3.46775 147.35 3.64541 147.35 3.86407C147.35 4.04856 147.412 4.19206 147.535 4.29455C147.665 4.39021 147.828 4.46538 148.027 4.52004C148.232 4.57471 148.457 4.62254 148.703 4.66354C148.949 4.6977 149.195 4.74553 149.441 4.80703C149.687 4.8617 149.909 4.94028 150.107 5.04277C150.312 5.14527 150.476 5.28876 150.599 5.47325C150.729 5.65775 150.794 5.90374 150.794 6.21122C150.794 6.53921 150.698 6.82278 150.507 7.06194C150.316 7.3011 150.046 7.48901 149.697 7.62567C149.349 7.75549 148.932 7.82041 148.447 7.82041ZM154.443 7.82041C153.862 7.82041 153.349 7.70083 152.905 7.46167C152.468 7.22252 152.126 6.89453 151.88 6.47771C151.641 6.0609 151.522 5.58258 151.522 5.04277C151.522 4.50296 151.638 4.02465 151.87 3.60783C152.109 3.19101 152.434 2.86644 152.844 2.63412C153.261 2.39496 153.729 2.27538 154.248 2.27538C154.774 2.27538 155.239 2.39155 155.642 2.62387C156.045 2.85619 156.359 3.18418 156.585 3.60783C156.817 4.02465 156.933 4.51321 156.933 5.07352C156.933 5.11452 156.93 5.16235 156.923 5.21701C156.923 5.27168 156.92 5.32293 156.913 5.37076H152.29V4.66354H156.4L156.001 4.90953C156.007 4.56104 155.936 4.25014 155.785 3.97681C155.635 3.70349 155.427 3.49167 155.16 3.34134C154.9 3.18418 154.596 3.1056 154.248 3.1056C153.906 3.1056 153.602 3.18418 153.336 3.34134C153.069 3.49167 152.861 3.70691 152.71 3.98706C152.56 4.26039 152.485 4.57471 152.485 4.93003V5.09402C152.485 5.45617 152.567 5.78074 152.731 6.06773C152.902 6.34788 153.138 6.56654 153.438 6.7237C153.739 6.88086 154.084 6.95944 154.473 6.95944C154.795 6.95944 155.085 6.90478 155.345 6.79545C155.611 6.68612 155.843 6.52213 156.042 6.30347L156.585 6.93894C156.339 7.22593 156.031 7.44459 155.662 7.59492C155.3 7.74525 154.894 7.82041 154.443 7.82041ZM161.522 7.75891V6.61096L161.47 6.39572V4.43805C161.47 4.02123 161.347 3.70008 161.101 3.47458C160.862 3.24226 160.5 3.1261 160.015 3.1261C159.694 3.1261 159.379 3.18076 159.072 3.29009C158.764 3.39259 158.505 3.53267 158.293 3.71033L157.883 2.97236C158.163 2.74686 158.498 2.57604 158.887 2.45988C159.284 2.33688 159.697 2.27538 160.128 2.27538C160.872 2.27538 161.446 2.45646 161.85 2.81861C162.253 3.18076 162.454 3.73424 162.454 4.47904V7.75891H161.522ZM159.738 7.82041C159.335 7.82041 158.98 7.75208 158.672 7.61542C158.372 7.47876 158.139 7.29085 157.975 7.05169C157.811 6.8057 157.729 6.52896 157.729 6.22147C157.729 5.92765 157.798 5.66116 157.934 5.42201C158.078 5.18285 158.307 4.99152 158.621 4.84803C158.942 4.70453 159.373 4.63279 159.912 4.63279H161.634V5.34001H159.953C159.461 5.34001 159.13 5.42201 158.959 5.586C158.788 5.74999 158.703 5.94815 158.703 6.18048C158.703 6.44696 158.809 6.66221 159.021 6.8262C159.233 6.98336 159.526 7.06194 159.902 7.06194C160.271 7.06194 160.592 6.97994 160.866 6.81595C161.146 6.65196 161.347 6.4128 161.47 6.09848L161.665 6.77495C161.535 7.0961 161.306 7.35234 160.978 7.54367C160.65 7.72816 160.237 7.82041 159.738 7.82041ZM164.275 7.75891V0.153719H165.259V7.75891H164.275ZM168.696 7.82041C168.245 7.82041 167.814 7.75891 167.404 7.63592C167.001 7.51292 166.683 7.36259 166.451 7.18493L166.861 6.40597C167.093 6.56313 167.38 6.69637 167.722 6.8057C168.064 6.91503 168.412 6.96969 168.768 6.96969C169.225 6.96969 169.553 6.90478 169.752 6.77495C169.957 6.64512 170.059 6.46405 170.059 6.23172C170.059 6.0609 169.998 5.92765 169.875 5.83199C169.752 5.73633 169.588 5.66458 169.383 5.61675C169.184 5.56892 168.962 5.52792 168.716 5.49375C168.47 5.45275 168.224 5.40492 167.978 5.35026C167.732 5.28876 167.507 5.20676 167.302 5.10427C167.097 4.99494 166.933 4.84803 166.81 4.66354C166.687 4.47221 166.625 4.21939 166.625 3.90507C166.625 3.57708 166.718 3.29009 166.902 3.0441C167.087 2.79811 167.346 2.6102 167.681 2.48037C168.023 2.34371 168.426 2.27538 168.891 2.27538C169.246 2.27538 169.605 2.3198 169.967 2.40863C170.336 2.49062 170.636 2.6102 170.869 2.76736L170.448 3.54633C170.203 3.38234 169.946 3.26959 169.68 3.2081C169.413 3.1466 169.147 3.11585 168.88 3.11585C168.45 3.11585 168.129 3.1876 167.917 3.33109C167.705 3.46775 167.599 3.64541 167.599 3.86407C167.599 4.04856 167.661 4.19206 167.784 4.29455C167.913 4.39021 168.077 4.46538 168.276 4.52004C168.481 4.57471 168.706 4.62254 168.952 4.66354C169.198 4.6977 169.444 4.74553 169.69 4.80703C169.936 4.8617 170.158 4.94028 170.356 5.04277C170.561 5.14527 170.725 5.28876 170.848 5.47325C170.978 5.65775 171.043 5.90374 171.043 6.21122C171.043 6.53921 170.947 6.82278 170.756 7.06194C170.565 7.3011 170.295 7.48901 169.946 7.62567C169.598 7.75549 169.181 7.82041 168.696 7.82041ZM175.169 7.75891V1.8449C175.169 1.31192 175.322 0.888273 175.63 0.573952C175.944 0.252799 176.388 0.0922219 176.962 0.0922219C177.174 0.0922219 177.376 0.119554 177.567 0.174219C177.765 0.22205 177.933 0.30063 178.069 0.409959L177.772 1.15818C177.67 1.07618 177.553 1.01468 177.424 0.973686C177.294 0.925855 177.157 0.901939 177.014 0.901939C176.727 0.901939 176.508 0.983936 176.358 1.14793C176.207 1.30509 176.132 1.54083 176.132 1.85515V2.58287L176.153 3.03385V7.75891H175.169ZM174.246 3.13635V2.32663H177.711V3.13635H174.246ZM178.639 7.75891V2.32663H179.582V3.80257L179.489 3.43359C179.64 3.05777 179.893 2.77078 180.248 2.57262C180.603 2.37446 181.04 2.27538 181.56 2.27538V3.22859C181.519 3.22176 181.478 3.21835 181.437 3.21835C181.403 3.21835 181.368 3.21835 181.334 3.21835C180.808 3.21835 180.391 3.37551 180.084 3.68983C179.776 4.00415 179.623 4.45854 179.623 5.05302V7.75891H178.639ZM185.141 7.82041C184.561 7.82041 184.048 7.70083 183.604 7.46167C183.167 7.22252 182.825 6.89453 182.579 6.47771C182.34 6.0609 182.22 5.58258 182.22 5.04277C182.22 4.50296 182.336 4.02465 182.569 3.60783C182.808 3.19101 183.132 2.86644 183.542 2.63412C183.959 2.39496 184.427 2.27538 184.947 2.27538C185.473 2.27538 185.937 2.39155 186.341 2.62387C186.744 2.85619 187.058 3.18418 187.284 3.60783C187.516 4.02465 187.632 4.51321 187.632 5.07352C187.632 5.11452 187.629 5.16235 187.622 5.21701C187.622 5.27168 187.618 5.32293 187.612 5.37076H182.989V4.66354H187.099L186.699 4.90953C186.706 4.56104 186.634 4.25014 186.484 3.97681C186.334 3.70349 186.125 3.49167 185.859 3.34134C185.599 3.18418 185.295 3.1056 184.947 3.1056C184.605 3.1056 184.301 3.18418 184.034 3.34134C183.768 3.49167 183.56 3.70691 183.409 3.98706C183.259 4.26039 183.184 4.57471 183.184 4.93003V5.09402C183.184 5.45617 183.266 5.78074 183.43 6.06773C183.601 6.34788 183.836 6.56654 184.137 6.7237C184.438 6.88086 184.783 6.95944 185.172 6.95944C185.493 6.95944 185.784 6.90478 186.043 6.79545C186.31 6.68612 186.542 6.52213 186.74 6.30347L187.284 6.93894C187.038 7.22593 186.73 7.44459 186.361 7.59492C185.999 7.74525 185.592 7.82041 185.141 7.82041ZM190.556 7.82041C190.105 7.82041 189.675 7.75891 189.265 7.63592C188.862 7.51292 188.544 7.36259 188.312 7.18493L188.722 6.40597C188.954 6.56313 189.241 6.69637 189.583 6.8057C189.924 6.91503 190.273 6.96969 190.628 6.96969C191.086 6.96969 191.414 6.90478 191.612 6.77495C191.817 6.64512 191.919 6.46405 191.919 6.23172C191.919 6.0609 191.858 5.92765 191.735 5.83199C191.612 5.73633 191.448 5.66458 191.243 5.61675C191.045 5.56892 190.823 5.52792 190.577 5.49375C190.331 5.45275 190.085 5.40492 189.839 5.35026C189.593 5.28876 189.367 5.20676 189.162 5.10427C188.957 4.99494 188.793 4.84803 188.67 4.66354C188.547 4.47221 188.486 4.21939 188.486 3.90507C188.486 3.57708 188.578 3.29009 188.763 3.0441C188.947 2.79811 189.207 2.6102 189.542 2.48037C189.883 2.34371 190.286 2.27538 190.751 2.27538C191.106 2.27538 191.465 2.3198 191.827 2.40863C192.196 2.49062 192.497 2.6102 192.729 2.76736L192.309 3.54633C192.063 3.38234 191.807 3.26959 191.54 3.2081C191.274 3.1466 191.007 3.11585 190.741 3.11585C190.31 3.11585 189.989 3.1876 189.777 3.33109C189.565 3.46775 189.46 3.64541 189.46 3.86407C189.46 4.04856 189.521 4.19206 189.644 4.29455C189.774 4.39021 189.938 4.46538 190.136 4.52004C190.341 4.57471 190.567 4.62254 190.813 4.66354C191.058 4.6977 191.304 4.74553 191.55 4.80703C191.796 4.8617 192.019 4.94028 192.217 5.04277C192.422 5.14527 192.586 5.28876 192.709 5.47325C192.839 5.65775 192.903 5.90374 192.903 6.21122C192.903 6.53921 192.808 6.82278 192.616 7.06194C192.425 7.3011 192.155 7.48901 191.807 7.62567C191.458 7.75549 191.041 7.82041 190.556 7.82041ZM197.034 2.27538C197.478 2.27538 197.867 2.3608 198.202 2.53162C198.544 2.70245 198.81 2.96211 199.002 3.31059C199.193 3.65908 199.289 4.09981 199.289 4.63279V7.75891H198.305V4.74553C198.305 4.21939 198.175 3.82307 197.915 3.55658C197.662 3.29009 197.304 3.15685 196.839 3.15685C196.491 3.15685 196.186 3.22518 195.927 3.36184C195.667 3.4985 195.466 3.70008 195.322 3.96656C195.185 4.23305 195.117 4.56446 195.117 4.96077V7.75891H194.133V0.153719H195.117V3.79232L194.922 3.40284C195.1 3.04752 195.373 2.77078 195.742 2.57262C196.111 2.37446 196.542 2.27538 197.034 2.27538ZM204.01 2.27538C204.454 2.27538 204.844 2.3608 205.179 2.53162C205.52 2.70245 205.787 2.96211 205.978 3.31059C206.17 3.65908 206.265 4.09981 206.265 4.63279V7.75891H205.281V4.74553C205.281 4.21939 205.151 3.82307 204.892 3.55658C204.639 3.29009 204.28 3.15685 203.816 3.15685C203.467 3.15685 203.163 3.22518 202.903 3.36184C202.644 3.4985 202.442 3.70008 202.299 3.96656C202.162 4.23305 202.094 4.56446 202.094 4.96077V7.75891H201.11V2.32663H202.053V3.79232L201.899 3.40284C202.077 3.04752 202.35 2.77078 202.719 2.57262C203.088 2.37446 203.518 2.27538 204.01 2.27538ZM210.505 7.82041C209.924 7.82041 209.412 7.70083 208.968 7.46167C208.53 7.22252 208.189 6.89453 207.943 6.47771C207.704 6.0609 207.584 5.58258 207.584 5.04277C207.584 4.50296 207.7 4.02465 207.932 3.60783C208.172 3.19101 208.496 2.86644 208.906 2.63412C209.323 2.39496 209.791 2.27538 210.31 2.27538C210.836 2.27538 211.301 2.39155 211.704 2.62387C212.107 2.85619 212.422 3.18418 212.647 3.60783C212.88 4.02465 212.996 4.51321 212.996 5.07352C212.996 5.11452 212.992 5.16235 212.985 5.21701C212.985 5.27168 212.982 5.32293 212.975 5.37076H208.353V4.66354H212.463L212.063 4.90953C212.07 4.56104 211.998 4.25014 211.848 3.97681C211.697 3.70349 211.489 3.49167 211.223 3.34134C210.963 3.18418 210.659 3.1056 210.31 3.1056C209.969 3.1056 209.665 3.18418 209.398 3.34134C209.132 3.49167 208.923 3.70691 208.773 3.98706C208.623 4.26039 208.547 4.57471 208.547 4.93003V5.09402C208.547 5.45617 208.629 5.78074 208.793 6.06773C208.964 6.34788 209.2 6.56654 209.501 6.7237C209.801 6.88086 210.146 6.95944 210.536 6.95944C210.857 6.95944 211.147 6.90478 211.407 6.79545C211.674 6.68612 211.906 6.52213 212.104 6.30347L212.647 6.93894C212.401 7.22593 212.094 7.44459 211.725 7.59492C211.363 7.74525 210.956 7.82041 210.505 7.82041ZM215.92 7.82041C215.469 7.82041 215.039 7.75891 214.629 7.63592C214.225 7.51292 213.908 7.36259 213.675 7.18493L214.085 6.40597C214.318 6.56313 214.605 6.69637 214.946 6.8057C215.288 6.91503 215.636 6.96969 215.992 6.96969C216.45 6.96969 216.778 6.90478 216.976 6.77495C217.181 6.64512 217.283 6.46405 217.283 6.23172C217.283 6.0609 217.222 5.92765 217.099 5.83199C216.976 5.73633 216.812 5.66458 216.607 5.61675C216.409 5.56892 216.186 5.52792 215.94 5.49375C215.694 5.45275 215.449 5.40492 215.203 5.35026C214.957 5.28876 214.731 5.20676 214.526 5.10427C214.321 4.99494 214.157 4.84803 214.034 4.66354C213.911 4.47221 213.85 4.21939 213.85 3.90507C213.85 3.57708 213.942 3.29009 214.126 3.0441C214.311 2.79811 214.57 2.6102 214.905 2.48037C215.247 2.34371 215.65 2.27538 216.115 2.27538C216.47 2.27538 216.829 2.3198 217.191 2.40863C217.56 2.49062 217.861 2.6102 218.093 2.76736L217.673 3.54633C217.427 3.38234 217.17 3.26959 216.904 3.2081C216.637 3.1466 216.371 3.11585 216.104 3.11585C215.674 3.11585 215.353 3.1876 215.141 3.33109C214.929 3.46775 214.823 3.64541 214.823 3.86407C214.823 4.04856 214.885 4.19206 215.008 4.29455C215.138 4.39021 215.302 4.46538 215.5 4.52004C215.705 4.57471 215.93 4.62254 216.176 4.66354C216.422 4.6977 216.668 4.74553 216.914 4.80703C217.16 4.8617 217.382 4.94028 217.58 5.04277C217.785 5.14527 217.949 5.28876 218.072 5.47325C218.202 5.65775 218.267 5.90374 218.267 6.21122C218.267 6.53921 218.171 6.82278 217.98 7.06194C217.789 7.3011 217.519 7.48901 217.17 7.62567C216.822 7.75549 216.405 7.82041 215.92 7.82041ZM221.055 7.82041C220.604 7.82041 220.173 7.75891 219.763 7.63592C219.36 7.51292 219.042 7.36259 218.81 7.18493L219.22 6.40597C219.452 6.56313 219.739 6.69637 220.081 6.8057C220.423 6.91503 220.771 6.96969 221.127 6.96969C221.584 6.96969 221.912 6.90478 222.11 6.77495C222.315 6.64512 222.418 6.46405 222.418 6.23172C222.418 6.0609 222.356 5.92765 222.233 5.83199C222.11 5.73633 221.946 5.66458 221.742 5.61675C221.543 5.56892 221.321 5.52792 221.075 5.49375C220.829 5.45275 220.583 5.40492 220.337 5.35026C220.091 5.28876 219.866 5.20676 219.661 5.10427C219.456 4.99494 219.292 4.84803 219.169 4.66354C219.046 4.47221 218.984 4.21939 218.984 3.90507C218.984 3.57708 219.077 3.29009 219.261 3.0441C219.446 2.79811 219.705 2.6102 220.04 2.48037C220.382 2.34371 220.785 2.27538 221.25 2.27538C221.605 2.27538 221.964 2.3198 222.326 2.40863C222.695 2.49062 222.995 2.6102 223.228 2.76736L222.807 3.54633C222.561 3.38234 222.305 3.26959 222.039 3.2081C221.772 3.1466 221.506 3.11585 221.239 3.11585C220.809 3.11585 220.488 3.1876 220.276 3.33109C220.064 3.46775 219.958 3.64541 219.958 3.86407C219.958 4.04856 220.02 4.19206 220.143 4.29455C220.272 4.39021 220.436 4.46538 220.635 4.52004C220.84 4.57471 221.065 4.62254 221.311 4.66354C221.557 4.6977 221.803 4.74553 222.049 4.80703C222.295 4.8617 222.517 4.94028 222.715 5.04277C222.92 5.14527 223.084 5.28876 223.207 5.47325C223.337 5.65775 223.402 5.90374 223.402 6.21122C223.402 6.53921 223.306 6.82278 223.115 7.06194C222.924 7.3011 222.654 7.48901 222.305 7.62567C221.957 7.75549 221.54 7.82041 221.055 7.82041ZM230.838 7.75891V6.56996L230.808 6.37522V4.3868C230.808 3.92898 230.678 3.57708 230.418 3.33109C230.165 3.0851 229.786 2.96211 229.28 2.96211C228.932 2.96211 228.601 3.02019 228.286 3.13635C227.972 3.25251 227.705 3.40625 227.487 3.59758L227.159 3.05435C227.432 2.82203 227.76 2.64437 228.143 2.52137C228.525 2.39155 228.928 2.32663 229.352 2.32663C230.049 2.32663 230.586 2.50087 230.961 2.84936C231.344 3.19101 231.535 3.71374 231.535 4.41755V7.75891H230.838ZM228.983 7.81016C228.58 7.81016 228.228 7.74525 227.927 7.61542C227.634 7.47876 227.408 7.29426 227.251 7.06194C227.094 6.82278 227.015 6.54946 227.015 6.24197C227.015 5.96182 227.08 5.70899 227.21 5.4835C227.347 5.25118 227.565 5.06669 227.866 4.93003C228.173 4.78653 228.583 4.71478 229.096 4.71478H230.951V5.25801H229.116C228.597 5.25801 228.235 5.35026 228.03 5.53475C227.832 5.71924 227.733 5.94815 227.733 6.22147C227.733 6.52896 227.852 6.77495 228.091 6.95944C228.331 7.14394 228.665 7.23618 229.096 7.23618C229.506 7.23618 229.858 7.14394 230.152 6.95944C230.452 6.76812 230.671 6.4948 230.808 6.13948L230.972 6.64171C230.835 6.99703 230.596 7.2806 230.254 7.49242C229.919 7.70425 229.496 7.81016 228.983 7.81016ZM236.259 2.32663C236.696 2.32663 237.079 2.41204 237.407 2.58287C237.742 2.74686 238.001 2.99969 238.186 3.34134C238.377 3.68299 238.473 4.11348 238.473 4.63279V7.75891H237.745V4.70453C237.745 4.13739 237.601 3.71033 237.314 3.42334C237.034 3.12952 236.638 2.9826 236.126 2.9826C235.743 2.9826 235.408 3.06118 235.121 3.21835C234.841 3.36867 234.622 3.59075 234.465 3.88457C234.315 4.17156 234.24 4.52004 234.24 4.93003V7.75891H233.512V2.37788H234.209V3.85382L234.096 3.57708C234.267 3.1876 234.54 2.88353 234.916 2.66487C235.292 2.43938 235.739 2.32663 236.259 2.32663ZM242.581 7.81016C242.068 7.81016 241.607 7.694 241.197 7.46167C240.794 7.22935 240.476 6.9082 240.244 6.49821C240.011 6.0814 239.895 5.60308 239.895 5.06327C239.895 4.51663 240.011 4.03831 240.244 3.62833C240.476 3.21835 240.794 2.90061 241.197 2.67512C241.607 2.44279 242.068 2.32663 242.581 2.32663C243.052 2.32663 243.472 2.43254 243.841 2.64437C244.217 2.85619 244.514 3.1671 244.733 3.57708C244.958 3.98023 245.071 4.47563 245.071 5.06327C245.071 5.64408 244.962 6.13948 244.743 6.54946C244.525 6.95944 244.227 7.27376 243.851 7.49242C243.482 7.70425 243.059 7.81016 242.581 7.81016ZM242.632 7.16444C243.014 7.16444 243.356 7.07902 243.657 6.9082C243.964 6.73054 244.203 6.48455 244.374 6.17023C244.552 5.84907 244.641 5.48009 244.641 5.06327C244.641 4.63962 244.552 4.27064 244.374 3.95632C244.203 3.64199 243.964 3.39942 243.657 3.22859C243.356 3.05094 243.014 2.96211 242.632 2.96211C242.256 2.96211 241.918 3.05094 241.617 3.22859C241.316 3.39942 241.077 3.64199 240.9 3.95632C240.722 4.27064 240.633 4.63962 240.633 5.06327C240.633 5.48009 240.722 5.84907 240.9 6.17023C241.077 6.48455 241.316 6.73054 241.617 6.9082C241.918 7.07902 242.256 7.16444 242.632 7.16444ZM244.661 7.75891V6.13948L244.733 5.05302L244.63 3.96656V0.153719H245.358V7.75891H244.661ZM3.36138 21.8204C2.78057 21.8204 2.26809 21.7008 1.82394 21.4617C1.38663 21.2225 1.04497 20.8945 0.798984 20.4777C0.559827 20.0609 0.440248 19.5826 0.440248 19.0428C0.440248 18.503 0.55641 18.0246 0.788734 17.6078C1.02789 17.191 1.35246 16.8664 1.76244 16.6341C2.17926 16.395 2.64733 16.2754 3.16664 16.2754C3.69278 16.2754 4.15743 16.3915 4.56058 16.6239C4.96373 16.8562 5.27805 17.1842 5.50354 17.6078C5.73587 18.0246 5.85203 18.5132 5.85203 19.0735C5.85203 19.1145 5.84861 19.1623 5.84178 19.217C5.84178 19.2717 5.83836 19.3229 5.83153 19.3708H1.20897V18.6635H5.31905L4.91932 18.9095C4.92615 18.561 4.8544 18.2501 4.70408 17.9768C4.55375 17.7035 4.34534 17.4917 4.07885 17.3413C3.81919 17.1842 3.51512 17.1056 3.16664 17.1056C2.82498 17.1056 2.52091 17.1842 2.25442 17.3413C1.98794 17.4917 1.77953 17.7069 1.6292 17.9871C1.47887 18.2604 1.40371 18.5747 1.40371 18.93V19.094C1.40371 19.4562 1.48571 19.7807 1.6497 20.0677C1.82053 20.3479 2.05627 20.5665 2.35692 20.7237C2.65757 20.8809 3.00264 20.9594 3.39213 20.9594C3.71328 20.9594 4.00369 20.9048 4.26334 20.7955C4.52983 20.6861 4.76216 20.5221 4.96031 20.3035L5.50354 20.9389C5.25755 21.2259 4.95007 21.4446 4.58108 21.5949C4.21893 21.7452 3.81236 21.8204 3.36138 21.8204ZM10.119 16.2754C10.5631 16.2754 10.9526 16.3608 11.2874 16.5316C11.6291 16.7024 11.8956 16.9621 12.0869 17.3106C12.2782 17.6591 12.3739 18.0998 12.3739 18.6328V21.7589H11.3899V18.7455C11.3899 18.2194 11.2601 17.8231 11.0004 17.5566C10.7476 17.2901 10.3889 17.1568 9.92424 17.1568C9.57575 17.1568 9.27168 17.2252 9.01202 17.3618C8.75237 17.4985 8.55079 17.7001 8.4073 17.9666C8.27064 18.2331 8.20231 18.5645 8.20231 18.9608V21.7589H7.21835V16.3266H8.16131V17.7923L8.00756 17.4028C8.18522 17.0475 8.45855 16.7708 8.82753 16.5726C9.19652 16.3745 9.627 16.2754 10.119 16.2754ZM17.0955 16.2754C17.5397 16.2754 17.9291 16.3608 18.264 16.5316C18.6056 16.7024 18.8721 16.9621 19.0634 17.3106C19.2547 17.6591 19.3504 18.0998 19.3504 18.6328V21.7589H18.3665V18.7455C18.3665 18.2194 18.2366 17.8231 17.977 17.5566C17.7241 17.2901 17.3654 17.1568 16.9008 17.1568C16.5523 17.1568 16.2482 17.2252 15.9885 17.3618C15.7289 17.4985 15.5273 17.7001 15.3838 17.9666C15.2472 18.2331 15.1788 18.5645 15.1788 18.9608V21.7589H14.1949V14.1537H15.1788V17.7923L14.9841 17.4028C15.1617 17.0475 15.4351 16.7708 15.8041 16.5726C16.173 16.3745 16.6035 16.2754 17.0955 16.2754ZM24.5435 21.7589V20.611L24.4923 20.3957V18.438C24.4923 18.0212 24.3693 17.7001 24.1233 17.4746C23.8841 17.2423 23.522 17.1261 23.0368 17.1261C22.7157 17.1261 22.4013 17.1808 22.0939 17.2901C21.7864 17.3926 21.5267 17.5327 21.3149 17.7103L20.9049 16.9724C21.1851 16.7469 21.5199 16.576 21.9094 16.4599C22.3057 16.3369 22.7191 16.2754 23.1496 16.2754C23.8944 16.2754 24.4683 16.4565 24.8715 16.8186C25.2746 17.1808 25.4762 17.7342 25.4762 18.479V21.7589H24.5435ZM22.7601 21.8204C22.3569 21.8204 22.0016 21.7521 21.6941 21.6154C21.3935 21.4788 21.1611 21.2908 20.9972 21.0517C20.8332 20.8057 20.7512 20.529 20.7512 20.2215C20.7512 19.9277 20.8195 19.6612 20.9562 19.422C21.0996 19.1828 21.3286 18.9915 21.6429 18.848C21.964 18.7045 22.3945 18.6328 22.9343 18.6328H24.6563V19.34H22.9753C22.4833 19.34 22.1519 19.422 21.9811 19.586C21.8103 19.75 21.7249 19.9482 21.7249 20.1805C21.7249 20.447 21.8308 20.6622 22.0426 20.8262C22.2544 20.9834 22.5483 21.0619 22.9241 21.0619C23.2931 21.0619 23.6142 20.9799 23.8875 20.8159C24.1677 20.652 24.3693 20.4128 24.4923 20.0985L24.687 20.775C24.5572 21.0961 24.3283 21.3523 24.0003 21.5437C23.6723 21.7282 23.2589 21.8204 22.7601 21.8204ZM30.1978 16.2754C30.6419 16.2754 31.0314 16.3608 31.3662 16.5316C31.7079 16.7024 31.9743 16.9621 32.1657 17.3106C32.357 17.6591 32.4527 18.0998 32.4527 18.6328V21.7589H31.4687V18.7455C31.4687 18.2194 31.3389 17.8231 31.0792 17.5566C30.8264 17.2901 30.4677 17.1568 30.003 17.1568C29.6545 17.1568 29.3505 17.2252 29.0908 17.3618C28.8311 17.4985 28.6296 17.7001 28.4861 17.9666C28.3494 18.2331 28.2811 18.5645 28.2811 18.9608V21.7589H27.2971V16.3266H28.2401V17.7923L28.0863 17.4028C28.264 17.0475 28.5373 16.7708 28.9063 16.5726C29.2753 16.3745 29.7058 16.2754 30.1978 16.2754ZM36.6413 21.8204C36.0878 21.8204 35.5924 21.7008 35.1551 21.4617C34.7246 21.2225 34.3864 20.8945 34.1404 20.4777C33.8944 20.0609 33.7714 19.5826 33.7714 19.0428C33.7714 18.503 33.8944 18.0246 34.1404 17.6078C34.3864 17.191 34.7246 16.8664 35.1551 16.6341C35.5924 16.395 36.0878 16.2754 36.6413 16.2754C37.1333 16.2754 37.5706 16.3745 37.9532 16.5726C38.3427 16.7639 38.6434 17.0509 38.8552 17.4336L38.107 17.9153C37.9293 17.6488 37.7107 17.4541 37.451 17.3311C37.1982 17.2013 36.9249 17.1363 36.631 17.1363C36.2757 17.1363 35.958 17.2149 35.6778 17.3721C35.3977 17.5292 35.1756 17.7513 35.0116 18.0383C34.8476 18.3185 34.7656 18.6533 34.7656 19.0428C34.7656 19.4323 34.8476 19.7705 35.0116 20.0575C35.1756 20.3445 35.3977 20.5665 35.6778 20.7237C35.958 20.8809 36.2757 20.9594 36.631 20.9594C36.9249 20.9594 37.1982 20.8979 37.451 20.775C37.7107 20.6451 37.9293 20.447 38.107 20.1805L38.8552 20.652C38.6434 21.0278 38.3427 21.3182 37.9532 21.5232C37.5706 21.7213 37.1333 21.8204 36.6413 21.8204ZM42.4679 21.8204C41.8871 21.8204 41.3747 21.7008 40.9305 21.4617C40.4932 21.2225 40.1515 20.8945 39.9056 20.4777C39.6664 20.0609 39.5468 19.5826 39.5468 19.0428C39.5468 18.503 39.663 18.0246 39.8953 17.6078C40.1345 17.191 40.459 16.8664 40.869 16.6341C41.2858 16.395 41.7539 16.2754 42.2732 16.2754C42.7994 16.2754 43.264 16.3915 43.6671 16.6239C44.0703 16.8562 44.3846 17.1842 44.6101 17.6078C44.8424 18.0246 44.9586 18.5132 44.9586 19.0735C44.9586 19.1145 44.9552 19.1623 44.9483 19.217C44.9483 19.2717 44.9449 19.3229 44.9381 19.3708H40.3155V18.6635H44.4256L44.0259 18.9095C44.0327 18.561 43.961 18.2501 43.8106 17.9768C43.6603 17.7035 43.4519 17.4917 43.1854 17.3413C42.9258 17.1842 42.6217 17.1056 42.2732 17.1056C41.9316 17.1056 41.6275 17.1842 41.361 17.3413C41.0945 17.4917 40.8861 17.7069 40.7358 17.9871C40.5854 18.2604 40.5103 18.5747 40.5103 18.93V19.094C40.5103 19.4562 40.5923 19.7807 40.7563 20.0677C40.9271 20.3479 41.1628 20.5665 41.4635 20.7237C41.7641 20.8809 42.1092 20.9594 42.4987 20.9594C42.8198 20.9594 43.1103 20.9048 43.3699 20.7955C43.6364 20.6861 43.8687 20.5221 44.0669 20.3035L44.6101 20.9389C44.3641 21.2259 44.0566 21.4446 43.6876 21.5949C43.3255 21.7452 42.9189 21.8204 42.4679 21.8204ZM47.8828 21.8204C47.4319 21.8204 47.0014 21.7589 46.5914 21.6359C46.1883 21.5129 45.8705 21.3626 45.6382 21.1849L46.0482 20.406C46.2805 20.5631 46.5675 20.6964 46.9091 20.8057C47.2508 20.915 47.5993 20.9697 47.9546 20.9697C48.4124 20.9697 48.7404 20.9048 48.9386 20.775C49.1435 20.6451 49.246 20.464 49.246 20.2317C49.246 20.0609 49.1845 19.9277 49.0616 19.832C48.9386 19.7363 48.7746 19.6646 48.5696 19.6167C48.3714 19.5689 48.1493 19.5279 47.9033 19.4938C47.6574 19.4528 47.4114 19.4049 47.1654 19.3503C46.9194 19.2888 46.6939 19.2068 46.4889 19.1043C46.2839 18.9949 46.1199 18.848 45.9969 18.6635C45.8739 18.4722 45.8124 18.2194 45.8124 17.9051C45.8124 17.5771 45.9047 17.2901 46.0892 17.0441C46.2737 16.7981 46.5333 16.6102 46.8681 16.4804C47.2098 16.3437 47.6129 16.2754 48.0776 16.2754C48.4329 16.2754 48.7916 16.3198 49.1538 16.4086C49.5228 16.4906 49.8234 16.6102 50.0558 16.7674L49.6355 17.5463C49.3895 17.3823 49.1333 17.2696 48.8668 17.2081C48.6003 17.1466 48.3338 17.1158 48.0673 17.1158C47.6369 17.1158 47.3157 17.1876 47.1039 17.3311C46.8921 17.4678 46.7861 17.6454 46.7861 17.8641C46.7861 18.0486 46.8476 18.1921 46.9706 18.2946C47.1005 18.3902 47.2645 18.4654 47.4626 18.52C47.6676 18.5747 47.8931 18.6225 48.1391 18.6635C48.3851 18.6977 48.6311 18.7455 48.8771 18.807C49.123 18.8617 49.3451 18.9403 49.5433 19.0428C49.7483 19.1453 49.9123 19.2888 50.0353 19.4733C50.1651 19.6577 50.23 19.9037 50.23 20.2112C50.23 20.5392 50.1343 20.8228 49.943 21.0619C49.7517 21.3011 49.4818 21.489 49.1333 21.6257C48.7848 21.7555 48.368 21.8204 47.8828 21.8204ZM55.7702 21.8204C55.3192 21.8204 54.8888 21.7589 54.4788 21.6359C54.0756 21.5129 53.7579 21.3626 53.5256 21.1849L53.9355 20.406C54.1679 20.5631 54.4549 20.6964 54.7965 20.8057C55.1382 20.915 55.4867 20.9697 55.842 20.9697C56.2998 20.9697 56.6278 20.9048 56.8259 20.775C57.0309 20.6451 57.1334 20.464 57.1334 20.2317C57.1334 20.0609 57.0719 19.9277 56.9489 19.832C56.8259 19.7363 56.6619 19.6646 56.4569 19.6167C56.2588 19.5689 56.0367 19.5279 55.7907 19.4938C55.5447 19.4528 55.2987 19.4049 55.0528 19.3503C54.8068 19.2888 54.5813 19.2068 54.3763 19.1043C54.1713 18.9949 54.0073 18.848 53.8843 18.6635C53.7613 18.4722 53.6998 18.2194 53.6998 17.9051C53.6998 17.5771 53.7921 17.2901 53.9765 17.0441C54.161 16.7981 54.4207 16.6102 54.7555 16.4804C55.0972 16.3437 55.5003 16.2754 55.965 16.2754C56.3203 16.2754 56.679 16.3198 57.0412 16.4086C57.4102 16.4906 57.7108 16.6102 57.9431 16.7674L57.5229 17.5463C57.2769 17.3823 57.0207 17.2696 56.7542 17.2081C56.4877 17.1466 56.2212 17.1158 55.9547 17.1158C55.5242 17.1158 55.2031 17.1876 54.9913 17.3311C54.7794 17.4678 54.6735 17.6454 54.6735 17.8641C54.6735 18.0486 54.735 18.1921 54.858 18.2946C54.9878 18.3902 55.1518 18.4654 55.35 18.52C55.555 18.5747 55.7805 18.6225 56.0265 18.6635C56.2725 18.6977 56.5184 18.7455 56.7644 18.807C57.0104 18.8617 57.2325 18.9403 57.4307 19.0428C57.6356 19.1453 57.7996 19.2888 57.9226 19.4733C58.0525 19.6577 58.1174 19.9037 58.1174 20.2112C58.1174 20.5392 58.0217 20.8228 57.8304 21.0619C57.6391 21.3011 57.3692 21.489 57.0207 21.6257C56.6722 21.7555 56.2554 21.8204 55.7702 21.8204ZM62.2477 16.2754C62.6919 16.2754 63.0814 16.3608 63.4162 16.5316C63.7578 16.7024 64.0243 16.9621 64.2156 17.3106C64.407 17.6591 64.5026 18.0998 64.5026 18.6328V21.7589H63.5187V18.7455C63.5187 18.2194 63.3888 17.8231 63.1292 17.5566C62.8764 17.2901 62.5176 17.1568 62.053 17.1568C61.7045 17.1568 61.4004 17.2252 61.1408 17.3618C60.8811 17.4985 60.6795 17.7001 60.536 17.9666C60.3994 18.2331 60.3311 18.5645 60.3311 18.9608V21.7589H59.3471V14.1537H60.3311V17.7923L60.1363 17.4028C60.314 17.0475 60.5873 16.7708 60.9563 16.5726C61.3253 16.3745 61.7557 16.2754 62.2477 16.2754ZM68.7425 21.8204C68.1617 21.8204 67.6492 21.7008 67.2051 21.4617C66.7678 21.2225 66.4261 20.8945 66.1801 20.4777C65.941 20.0609 65.8214 19.5826 65.8214 19.0428C65.8214 18.503 65.9375 18.0246 66.1699 17.6078C66.409 17.191 66.7336 16.8664 67.1436 16.6341C67.5604 16.395 68.0285 16.2754 68.5478 16.2754C69.0739 16.2754 69.5386 16.3915 69.9417 16.6239C70.3449 16.8562 70.6592 17.1842 70.8847 17.6078C71.117 18.0246 71.2332 18.5132 71.2332 19.0735C71.2332 19.1145 71.2297 19.1623 71.2229 19.217C71.2229 19.2717 71.2195 19.3229 71.2127 19.3708H66.5901V18.6635H70.7002L70.3005 18.9095C70.3073 18.561 70.2355 18.2501 70.0852 17.9768C69.9349 17.7035 69.7265 17.4917 69.46 17.3413C69.2003 17.1842 68.8963 17.1056 68.5478 17.1056C68.2061 17.1056 67.902 17.1842 67.6356 17.3413C67.3691 17.4917 67.1607 17.7069 67.0103 17.9871C66.86 18.2604 66.7848 18.5747 66.7848 18.93V19.094C66.7848 19.4562 66.8668 19.7807 67.0308 20.0677C67.2017 20.3479 67.4374 20.5665 67.7381 20.7237C68.0387 20.8809 68.3838 20.9594 68.7733 20.9594C69.0944 20.9594 69.3848 20.9048 69.6445 20.7955C69.911 20.6861 70.1433 20.5221 70.3414 20.3035L70.8847 20.9389C70.6387 21.2259 70.3312 21.4446 69.9622 21.5949C69.6001 21.7452 69.1935 21.8204 68.7425 21.8204ZM72.5995 21.7589V14.1537H73.5834V21.7589H72.5995ZM75.6057 21.7589V15.8449C75.6057 15.3119 75.7594 14.8883 76.0669 14.574C76.3812 14.2528 76.8254 14.0922 77.3993 14.0922C77.6112 14.0922 77.8127 14.1196 78.0041 14.1742C78.2022 14.222 78.3696 14.3006 78.5063 14.41L78.2091 15.1582C78.1066 15.0762 77.9904 15.0147 77.8606 14.9737C77.7307 14.9259 77.5941 14.9019 77.4506 14.9019C77.1636 14.9019 76.9449 14.9839 76.7946 15.1479C76.6443 15.3051 76.5691 15.5408 76.5691 15.8552V16.5829L76.5896 17.0339V21.7589H75.6057ZM74.6832 17.1363V16.3266H78.1476V17.1363H74.6832ZM85.1302 21.7589V20.611L85.0789 20.3957V18.438C85.0789 18.0212 84.9559 17.7001 84.7099 17.4746C84.4708 17.2423 84.1086 17.1261 83.6235 17.1261C83.3023 17.1261 82.988 17.1808 82.6805 17.2901C82.373 17.3926 82.1134 17.5327 81.9015 17.7103L81.4916 16.9724C81.7717 16.7469 82.1065 16.576 82.496 16.4599C82.8923 16.3369 83.3057 16.2754 83.7362 16.2754C84.481 16.2754 85.055 16.4565 85.4581 16.8186C85.8613 17.1808 86.0629 17.7342 86.0629 18.479V21.7589H85.1302ZM83.3467 21.8204C82.9436 21.8204 82.5883 21.7521 82.2808 21.6154C81.9801 21.4788 81.7478 21.2908 81.5838 21.0517C81.4198 20.8057 81.3378 20.529 81.3378 20.2215C81.3378 19.9277 81.4061 19.6612 81.5428 19.422C81.6863 19.1828 81.9152 18.9915 82.2295 18.848C82.5507 18.7045 82.9812 18.6328 83.521 18.6328H85.2429V19.34H83.562C83.07 19.34 82.7386 19.422 82.5678 19.586C82.3969 19.75 82.3115 19.9482 82.3115 20.1805C82.3115 20.447 82.4174 20.6622 82.6293 20.8262C82.8411 20.9834 83.1349 21.0619 83.5107 21.0619C83.8797 21.0619 84.2009 20.9799 84.4742 20.8159C84.7543 20.652 84.9559 20.4128 85.0789 20.0985L85.2737 20.775C85.1438 21.0961 84.9149 21.3523 84.5869 21.5437C84.2589 21.7282 83.8455 21.8204 83.3467 21.8204ZM90.7639 21.8204C90.3129 21.8204 89.8995 21.7179 89.5237 21.5129C89.1547 21.3011 88.8575 20.9902 88.632 20.5802C88.4133 20.1702 88.304 19.6577 88.304 19.0428C88.304 18.4278 88.4099 17.9153 88.6217 17.5053C88.8404 17.0954 89.1342 16.7879 89.5032 16.5829C89.879 16.3779 90.2993 16.2754 90.7639 16.2754C91.2969 16.2754 91.7684 16.3915 92.1784 16.6239C92.5883 16.8562 92.9129 17.1808 93.1521 17.5976C93.3912 18.0076 93.5108 18.4893 93.5108 19.0428C93.5108 19.5962 93.3912 20.0814 93.1521 20.4982C92.9129 20.915 92.5883 21.2396 92.1784 21.4719C91.7684 21.7042 91.2969 21.8204 90.7639 21.8204ZM87.8838 23.7473V16.3266H88.8267V17.7923L88.7652 19.053L88.8677 20.3137V23.7473H87.8838ZM90.6819 20.9594C91.0304 20.9594 91.3413 20.8809 91.6146 20.7237C91.8948 20.5665 92.1134 20.3445 92.2706 20.0575C92.4346 19.7637 92.5166 19.4254 92.5166 19.0428C92.5166 18.6533 92.4346 18.3185 92.2706 18.0383C92.1134 17.7513 91.8948 17.5292 91.6146 17.3721C91.3413 17.2149 91.0304 17.1363 90.6819 17.1363C90.3403 17.1363 90.0294 17.2149 89.7492 17.3721C89.4759 17.5292 89.2572 17.7513 89.0932 18.0383C88.9361 18.3185 88.8575 18.6533 88.8575 19.0428C88.8575 19.4254 88.9361 19.7637 89.0932 20.0575C89.2572 20.3445 89.4759 20.5665 89.7492 20.7237C90.0294 20.8809 90.3403 20.9594 90.6819 20.9594ZM97.7504 21.8204C97.2995 21.8204 96.8861 21.7179 96.5102 21.5129C96.1413 21.3011 95.844 20.9902 95.6185 20.5802C95.3999 20.1702 95.2905 19.6577 95.2905 19.0428C95.2905 18.4278 95.3964 17.9153 95.6083 17.5053C95.8269 17.0954 96.1208 16.7879 96.4897 16.5829C96.8656 16.3779 97.2858 16.2754 97.7504 16.2754C98.2834 16.2754 98.7549 16.3915 99.1649 16.6239C99.5749 16.8562 99.8994 17.1808 100.139 17.5976C100.378 18.0076 100.497 18.4893 100.497 19.0428C100.497 19.5962 100.378 20.0814 100.139 20.4982C99.8994 20.915 99.5749 21.2396 99.1649 21.4719C98.7549 21.7042 98.2834 21.8204 97.7504 21.8204ZM94.8703 23.7473V16.3266H95.8133V17.7923L95.7518 19.053L95.8543 20.3137V23.7473H94.8703ZM97.6684 20.9594C98.0169 20.9594 98.3278 20.8809 98.6012 20.7237C98.8813 20.5665 99.1 20.3445 99.2571 20.0575C99.4211 19.7637 99.5031 19.4254 99.5031 19.0428C99.5031 18.6533 99.4211 18.3185 99.2571 18.0383C99.1 17.7513 98.8813 17.5292 98.6012 17.3721C98.3278 17.2149 98.0169 17.1363 97.6684 17.1363C97.3268 17.1363 97.0159 17.2149 96.7357 17.3721C96.4624 17.5292 96.2437 17.7513 96.0798 18.0383C95.9226 18.3185 95.844 18.6533 95.844 19.0428C95.844 19.4254 95.9226 19.7637 96.0798 20.0575C96.2437 20.3445 96.4624 20.5665 96.7357 20.7237C97.0159 20.8809 97.3268 20.9594 97.6684 20.9594ZM104.276 21.8204C103.695 21.8204 103.182 21.7008 102.738 21.4617C102.301 21.2225 101.959 20.8945 101.713 20.4777C101.474 20.0609 101.355 19.5826 101.355 19.0428C101.355 18.503 101.471 18.0246 101.703 17.6078C101.942 17.191 102.267 16.8664 102.677 16.6341C103.094 16.395 103.562 16.2754 104.081 16.2754C104.607 16.2754 105.072 16.3915 105.475 16.6239C105.878 16.8562 106.192 17.1842 106.418 17.6078C106.65 18.0246 106.766 18.5132 106.766 19.0735C106.766 19.1145 106.763 19.1623 106.756 19.217C106.756 19.2717 106.753 19.3229 106.746 19.3708H102.123V18.6635H106.233L105.834 18.9095C105.841 18.561 105.769 18.2501 105.618 17.9768C105.468 17.7035 105.26 17.4917 104.993 17.3413C104.734 17.1842 104.429 17.1056 104.081 17.1056C103.739 17.1056 103.435 17.1842 103.169 17.3413C102.902 17.4917 102.694 17.7069 102.544 17.9871C102.393 18.2604 102.318 18.5747 102.318 18.93V19.094C102.318 19.4562 102.4 19.7807 102.564 20.0677C102.735 20.3479 102.971 20.5665 103.271 20.7237C103.572 20.8809 103.917 20.9594 104.306 20.9594C104.628 20.9594 104.918 20.9048 105.178 20.7955C105.444 20.6861 105.677 20.5221 105.875 20.3035L106.418 20.9389C106.172 21.2259 105.864 21.4446 105.495 21.5949C105.133 21.7452 104.727 21.8204 104.276 21.8204ZM111.355 21.7589V20.611L111.303 20.3957V18.438C111.303 18.0212 111.18 17.7001 110.934 17.4746C110.695 17.2423 110.333 17.1261 109.848 17.1261C109.527 17.1261 109.213 17.1808 108.905 17.2901C108.598 17.3926 108.338 17.5327 108.126 17.7103L107.716 16.9724C107.996 16.7469 108.331 16.576 108.721 16.4599C109.117 16.3369 109.53 16.2754 109.961 16.2754C110.706 16.2754 111.28 16.4565 111.683 16.8186C112.086 17.1808 112.287 17.7342 112.287 18.479V21.7589H111.355ZM109.571 21.8204C109.168 21.8204 108.813 21.7521 108.505 21.6154C108.205 21.4788 107.972 21.2908 107.808 21.0517C107.644 20.8057 107.562 20.529 107.562 20.2215C107.562 19.9277 107.631 19.6612 107.767 19.422C107.911 19.1828 108.14 18.9915 108.454 18.848C108.775 18.7045 109.206 18.6328 109.745 18.6328H111.467V19.34H109.786C109.295 19.34 108.963 19.422 108.792 19.586C108.621 19.75 108.536 19.9482 108.536 20.1805C108.536 20.447 108.642 20.6622 108.854 20.8262C109.066 20.9834 109.359 21.0619 109.735 21.0619C110.104 21.0619 110.425 20.9799 110.699 20.8159C110.979 20.652 111.18 20.4128 111.303 20.0985L111.498 20.775C111.368 21.0961 111.139 21.3523 110.811 21.5437C110.483 21.7282 110.07 21.8204 109.571 21.8204ZM114.108 21.7589V14.1537H115.092V21.7589H114.108ZM120.832 21.7589L118.803 16.3779H119.5L121.345 21.3694H121.027L122.923 16.3779H123.548L125.424 21.3694H125.106L126.982 16.3779H127.648L125.608 21.7589H124.922L123.118 17.0646H123.333L121.519 21.7589H120.832ZM128.744 21.7589V16.3779H129.472V21.7589H128.744ZM129.113 15.1889C128.963 15.1889 128.836 15.1377 128.734 15.0352C128.631 14.9327 128.58 14.8097 128.58 14.6662C128.58 14.5227 128.631 14.4031 128.734 14.3075C128.836 14.205 128.963 14.1537 129.113 14.1537C129.263 14.1537 129.39 14.2016 129.492 14.2972C129.595 14.3929 129.646 14.5125 129.646 14.6559C129.646 14.8063 129.595 14.9327 129.492 15.0352C129.396 15.1377 129.27 15.1889 129.113 15.1889ZM133.198 21.8102C132.692 21.8102 132.303 21.6735 132.029 21.4002C131.756 21.1269 131.619 20.7408 131.619 20.242V15.1889H132.347V20.201C132.347 20.5153 132.426 20.7579 132.583 20.9287C132.747 21.0995 132.979 21.1849 133.28 21.1849C133.601 21.1849 133.868 21.0927 134.079 20.9082L134.336 21.4309C134.192 21.5608 134.018 21.6564 133.813 21.7179C133.615 21.7794 133.41 21.8102 133.198 21.8102ZM130.656 16.9826V16.3779H133.987V16.9826H130.656ZM138.407 16.3266C138.845 16.3266 139.227 16.412 139.555 16.5829C139.89 16.7469 140.15 16.9997 140.334 17.3413C140.526 17.683 140.621 18.1135 140.621 18.6328V21.7589H139.893V18.7045C139.893 18.1374 139.75 17.7103 139.463 17.4233C139.183 17.1295 138.786 16.9826 138.274 16.9826C137.891 16.9826 137.557 17.0612 137.27 17.2183C136.989 17.3687 136.771 17.5907 136.614 17.8846C136.463 18.1716 136.388 18.52 136.388 18.93V21.7589H135.66V14.1537H136.388V17.8538L136.245 17.5771C136.415 17.1876 136.689 16.8835 137.065 16.6649C137.44 16.4394 137.888 16.3266 138.407 16.3266ZM148.559 21.7589V20.611L148.508 20.3957V18.438C148.508 18.0212 148.385 17.7001 148.139 17.4746C147.9 17.2423 147.538 17.1261 147.053 17.1261C146.732 17.1261 146.417 17.1808 146.11 17.2901C145.802 17.3926 145.543 17.5327 145.331 17.7103L144.921 16.9724C145.201 16.7469 145.536 16.576 145.925 16.4599C146.322 16.3369 146.735 16.2754 147.166 16.2754C147.91 16.2754 148.484 16.4565 148.887 16.8186C149.291 17.1808 149.492 17.7342 149.492 18.479V21.7589H148.559ZM146.776 21.8204C146.373 21.8204 146.018 21.7521 145.71 21.6154C145.409 21.4788 145.177 21.2908 145.013 21.0517C144.849 20.8057 144.767 20.529 144.767 20.2215C144.767 19.9277 144.835 19.6612 144.972 19.422C145.116 19.1828 145.345 18.9915 145.659 18.848C145.98 18.7045 146.41 18.6328 146.95 18.6328H148.672V19.34H146.991C146.499 19.34 146.168 19.422 145.997 19.586C145.826 19.75 145.741 19.9482 145.741 20.1805C145.741 20.447 145.847 20.6622 146.059 20.8262C146.27 20.9834 146.564 21.0619 146.94 21.0619C147.309 21.0619 147.63 20.9799 147.904 20.8159C148.184 20.652 148.385 20.4128 148.508 20.0985L148.703 20.775C148.573 21.0961 148.344 21.3523 148.016 21.5437C147.688 21.7282 147.275 21.8204 146.776 21.8204ZM153.558 21.8204C153.032 21.8204 152.56 21.7042 152.143 21.4719C151.733 21.2396 151.409 20.915 151.17 20.4982C150.93 20.0814 150.811 19.5962 150.811 19.0428C150.811 18.4893 150.93 18.0076 151.17 17.5976C151.409 17.1808 151.733 16.8562 152.143 16.6239C152.56 16.3915 153.032 16.2754 153.558 16.2754C154.016 16.2754 154.429 16.3779 154.798 16.5829C155.167 16.7879 155.461 17.0954 155.679 17.5053C155.905 17.9153 156.018 18.4278 156.018 19.0428C156.018 19.6577 155.908 20.1702 155.69 20.5802C155.478 20.9902 155.187 21.3011 154.818 21.5129C154.449 21.7179 154.029 21.8204 153.558 21.8204ZM153.64 20.9594C153.981 20.9594 154.289 20.8809 154.562 20.7237C154.842 20.5665 155.061 20.3445 155.218 20.0575C155.382 19.7637 155.464 19.4254 155.464 19.0428C155.464 18.6533 155.382 18.3185 155.218 18.0383C155.061 17.7513 154.842 17.5292 154.562 17.3721C154.289 17.2149 153.981 17.1363 153.64 17.1363C153.291 17.1363 152.98 17.2149 152.707 17.3721C152.434 17.5292 152.215 17.7513 152.051 18.0383C151.887 18.3185 151.805 18.6533 151.805 19.0428C151.805 19.4254 151.887 19.7637 152.051 20.0575C152.215 20.3445 152.434 20.5665 152.707 20.7237C152.98 20.8809 153.291 20.9594 153.64 20.9594ZM155.495 21.7589V20.2932L155.556 19.0325L155.454 17.7718V14.1537H156.438V21.7589H155.495ZM159.724 21.7589L157.346 16.3266H158.371L160.483 21.2464H159.991L162.143 16.3266H163.107L160.729 21.7589H159.724ZM167.227 21.7589V20.611L167.176 20.3957V18.438C167.176 18.0212 167.053 17.7001 166.807 17.4746C166.568 17.2423 166.205 17.1261 165.72 17.1261C165.399 17.1261 165.085 17.1808 164.777 17.2901C164.47 17.3926 164.21 17.5327 163.998 17.7103L163.588 16.9724C163.868 16.7469 164.203 16.576 164.593 16.4599C164.989 16.3369 165.403 16.2754 165.833 16.2754C166.578 16.2754 167.152 16.4565 167.555 16.8186C167.958 17.1808 168.16 17.7342 168.16 18.479V21.7589H167.227ZM165.444 21.8204C165.04 21.8204 164.685 21.7521 164.378 21.6154C164.077 21.4788 163.845 21.2908 163.681 21.0517C163.517 20.8057 163.435 20.529 163.435 20.2215C163.435 19.9277 163.503 19.6612 163.64 19.422C163.783 19.1828 164.012 18.9915 164.326 18.848C164.647 18.7045 165.078 18.6328 165.618 18.6328H167.34V19.34H165.659C165.167 19.34 164.835 19.422 164.665 19.586C164.494 19.75 164.408 19.9482 164.408 20.1805C164.408 20.447 164.514 20.6622 164.726 20.8262C164.938 20.9834 165.232 21.0619 165.607 21.0619C165.976 21.0619 166.298 20.9799 166.571 20.8159C166.851 20.652 167.053 20.4128 167.176 20.0985L167.37 20.775C167.241 21.0961 167.012 21.3523 166.684 21.5437C166.356 21.7282 165.942 21.8204 165.444 21.8204ZM172.881 16.2754C173.325 16.2754 173.715 16.3608 174.05 16.5316C174.391 16.7024 174.658 16.9621 174.849 17.3106C175.04 17.6591 175.136 18.0998 175.136 18.6328V21.7589H174.152V18.7455C174.152 18.2194 174.022 17.8231 173.763 17.5566C173.51 17.2901 173.151 17.1568 172.686 17.1568C172.338 17.1568 172.034 17.2252 171.774 17.3618C171.515 17.4985 171.313 17.7001 171.17 17.9666C171.033 18.2331 170.965 18.5645 170.965 18.9608V21.7589H169.981V16.3266H170.924V17.7923L170.77 17.4028C170.947 17.0475 171.221 16.7708 171.59 16.5726C171.959 16.3745 172.389 16.2754 172.881 16.2754ZM179.325 21.8204C178.771 21.8204 178.276 21.7008 177.839 21.4617C177.408 21.2225 177.07 20.8945 176.824 20.4777C176.578 20.0609 176.455 19.5826 176.455 19.0428C176.455 18.503 176.578 18.0246 176.824 17.6078C177.07 17.191 177.408 16.8664 177.839 16.6341C178.276 16.395 178.771 16.2754 179.325 16.2754C179.817 16.2754 180.254 16.3745 180.637 16.5726C181.026 16.7639 181.327 17.0509 181.539 17.4336L180.79 17.9153C180.613 17.6488 180.394 17.4541 180.134 17.3311C179.882 17.2013 179.608 17.1363 179.314 17.1363C178.959 17.1363 178.641 17.2149 178.361 17.3721C178.081 17.5292 177.859 17.7513 177.695 18.0383C177.531 18.3185 177.449 18.6533 177.449 19.0428C177.449 19.4323 177.531 19.7705 177.695 20.0575C177.859 20.3445 178.081 20.5665 178.361 20.7237C178.641 20.8809 178.959 20.9594 179.314 20.9594C179.608 20.9594 179.882 20.8979 180.134 20.775C180.394 20.6451 180.613 20.447 180.79 20.1805L181.539 20.652C181.327 21.0278 181.026 21.3182 180.637 21.5232C180.254 21.7213 179.817 21.8204 179.325 21.8204ZM185.151 21.8204C184.571 21.8204 184.058 21.7008 183.614 21.4617C183.177 21.2225 182.835 20.8945 182.589 20.4777C182.35 20.0609 182.23 19.5826 182.23 19.0428C182.23 18.503 182.346 18.0246 182.579 17.6078C182.818 17.191 183.142 16.8664 183.552 16.6341C183.969 16.395 184.437 16.2754 184.957 16.2754C185.483 16.2754 185.947 16.3915 186.351 16.6239C186.754 16.8562 187.068 17.1842 187.294 17.6078C187.526 18.0246 187.642 18.5132 187.642 19.0735C187.642 19.1145 187.639 19.1623 187.632 19.217C187.632 19.2717 187.628 19.3229 187.622 19.3708H182.999V18.6635H187.109L186.709 18.9095C186.716 18.561 186.644 18.2501 186.494 17.9768C186.344 17.7035 186.135 17.4917 185.869 17.3413C185.609 17.1842 185.305 17.1056 184.957 17.1056C184.615 17.1056 184.311 17.1842 184.044 17.3413C183.778 17.4917 183.57 17.7069 183.419 17.9871C183.269 18.2604 183.194 18.5747 183.194 18.93V19.094C183.194 19.4562 183.276 19.7807 183.44 20.0677C183.611 20.3479 183.846 20.5665 184.147 20.7237C184.448 20.8809 184.793 20.9594 185.182 20.9594C185.503 20.9594 185.794 20.9048 186.053 20.7955C186.32 20.6861 186.552 20.5221 186.75 20.3035L187.294 20.9389C187.048 21.2259 186.74 21.4446 186.371 21.5949C186.009 21.7452 185.602 21.8204 185.151 21.8204ZM191.253 21.8204C190.727 21.8204 190.255 21.7042 189.839 21.4719C189.429 21.2396 189.104 20.915 188.865 20.4982C188.626 20.0814 188.506 19.5962 188.506 19.0428C188.506 18.4893 188.626 18.0076 188.865 17.5976C189.104 17.1808 189.429 16.8562 189.839 16.6239C190.255 16.3915 190.727 16.2754 191.253 16.2754C191.711 16.2754 192.124 16.3779 192.493 16.5829C192.862 16.7879 193.156 17.0954 193.375 17.5053C193.6 17.9153 193.713 18.4278 193.713 19.0428C193.713 19.6577 193.604 20.1702 193.385 20.5802C193.173 20.9902 192.883 21.3011 192.514 21.5129C192.145 21.7179 191.724 21.8204 191.253 21.8204ZM191.335 20.9594C191.677 20.9594 191.984 20.8809 192.257 20.7237C192.538 20.5665 192.756 20.3445 192.913 20.0575C193.077 19.7637 193.159 19.4254 193.159 19.0428C193.159 18.6533 193.077 18.3185 192.913 18.0383C192.756 17.7513 192.538 17.5292 192.257 17.3721C191.984 17.2149 191.677 17.1363 191.335 17.1363C190.987 17.1363 190.676 17.2149 190.402 17.3721C190.129 17.5292 189.91 17.7513 189.746 18.0383C189.582 18.3185 189.5 18.6533 189.5 19.0428C189.5 19.4254 189.582 19.7637 189.746 20.0575C189.91 20.3445 190.129 20.5665 190.402 20.7237C190.676 20.8809 190.987 20.9594 191.335 20.9594ZM193.19 21.7589V20.2932L193.252 19.0325L193.149 17.7718V14.1537H194.133V21.7589H193.19ZM198.747 21.7589V16.3266H199.731V21.7589H198.747ZM199.239 15.2812C199.048 15.2812 198.888 15.2197 198.758 15.0967C198.635 14.9737 198.573 14.8234 198.573 14.6457C198.573 14.4612 198.635 14.3075 198.758 14.1845C198.888 14.0615 199.048 14 199.239 14C199.431 14 199.588 14.0615 199.711 14.1845C199.841 14.3006 199.906 14.4475 199.906 14.6252C199.906 14.8097 199.844 14.9669 199.721 15.0967C199.598 15.2197 199.438 15.2812 199.239 15.2812ZM204.511 16.2754C204.955 16.2754 205.344 16.3608 205.679 16.5316C206.021 16.7024 206.287 16.9621 206.479 17.3106C206.67 17.6591 206.766 18.0998 206.766 18.6328V21.7589H205.782V18.7455C205.782 18.2194 205.652 17.8231 205.392 17.5566C205.139 17.2901 204.781 17.1568 204.316 17.1568C203.968 17.1568 203.663 17.2252 203.404 17.3618C203.144 17.4985 202.943 17.7001 202.799 17.9666C202.662 18.2331 202.594 18.5645 202.594 18.9608V21.7589H201.61V16.3266H202.553V17.7923L202.399 17.4028C202.577 17.0475 202.85 16.7708 203.219 16.5726C203.588 16.3745 204.019 16.2754 204.511 16.2754ZM208.238 19.3708V18.52H210.995V19.3708H208.238ZM219.306 16.2754C219.743 16.2754 220.129 16.3608 220.464 16.5316C220.799 16.7024 221.058 16.9621 221.243 17.3106C221.434 17.6591 221.53 18.0998 221.53 18.6328V21.7589H220.546V18.7455C220.546 18.2194 220.423 17.8231 220.177 17.5566C219.931 17.2901 219.586 17.1568 219.142 17.1568C218.814 17.1568 218.527 17.2252 218.281 17.3618C218.035 17.4985 217.844 17.7001 217.707 17.9666C217.577 18.2331 217.512 18.5645 217.512 18.9608V21.7589H216.528V18.7455C216.528 18.2194 216.405 17.8231 216.159 17.5566C215.92 17.2901 215.575 17.1568 215.124 17.1568C214.803 17.1568 214.519 17.2252 214.273 17.3618C214.027 17.4985 213.836 17.7001 213.699 17.9666C213.563 18.2331 213.494 18.5645 213.494 18.9608V21.7589H212.51V16.3266H213.453V17.7718L213.3 17.4028C213.47 17.0475 213.733 16.7708 214.089 16.5726C214.444 16.3745 214.857 16.2754 215.329 16.2754C215.848 16.2754 216.296 16.4052 216.672 16.6649C217.047 16.9177 217.293 17.3038 217.41 17.8231L217.01 17.6591C217.174 17.2423 217.461 16.9074 217.871 16.6546C218.281 16.4018 218.759 16.2754 219.306 16.2754ZM225.667 21.8204C225.12 21.8204 224.635 21.7008 224.212 21.4617C223.788 21.2225 223.453 20.8945 223.207 20.4777C222.961 20.0541 222.838 19.5757 222.838 19.0428C222.838 18.503 222.961 18.0246 223.207 17.6078C223.453 17.191 223.788 16.8664 224.212 16.6341C224.635 16.395 225.12 16.2754 225.667 16.2754C226.207 16.2754 226.689 16.395 227.112 16.6341C227.543 16.8664 227.878 17.191 228.117 17.6078C228.363 18.0178 228.486 18.4961 228.486 19.0428C228.486 19.5826 228.363 20.0609 228.117 20.4777C227.878 20.8945 227.543 21.2225 227.112 21.4617C226.689 21.7008 226.207 21.8204 225.667 21.8204ZM225.667 20.9594C226.016 20.9594 226.326 20.8809 226.6 20.7237C226.88 20.5665 227.099 20.3445 227.256 20.0575C227.413 19.7637 227.492 19.4254 227.492 19.0428C227.492 18.6533 227.413 18.3185 227.256 18.0383C227.099 17.7513 226.88 17.5292 226.6 17.3721C226.326 17.2149 226.016 17.1363 225.667 17.1363C225.319 17.1363 225.008 17.2149 224.734 17.3721C224.461 17.5292 224.242 17.7513 224.078 18.0383C223.914 18.3185 223.832 18.6533 223.832 19.0428C223.832 19.4254 223.914 19.7637 224.078 20.0575C224.242 20.3445 224.461 20.5665 224.734 20.7237C225.008 20.8809 225.319 20.9594 225.667 20.9594ZM229.847 21.7589V14.1537H230.83V21.7589H229.847ZM234.954 21.8204C234.428 21.8204 233.956 21.7042 233.539 21.4719C233.129 21.2396 232.805 20.915 232.566 20.4982C232.327 20.0814 232.207 19.5962 232.207 19.0428C232.207 18.4893 232.327 18.0076 232.566 17.5976C232.805 17.1808 233.129 16.8562 233.539 16.6239C233.956 16.3915 234.428 16.2754 234.954 16.2754C235.412 16.2754 235.825 16.3779 236.194 16.5829C236.563 16.7879 236.857 17.0954 237.076 17.5053C237.301 17.9153 237.414 18.4278 237.414 19.0428C237.414 19.6577 237.304 20.1702 237.086 20.5802C236.874 20.9902 236.584 21.3011 236.215 21.5129C235.846 21.7179 235.425 21.8204 234.954 21.8204ZM235.036 20.9594C235.378 20.9594 235.685 20.8809 235.958 20.7237C236.238 20.5665 236.457 20.3445 236.614 20.0575C236.778 19.7637 236.86 19.4254 236.86 19.0428C236.86 18.6533 236.778 18.3185 236.614 18.0383C236.457 17.7513 236.238 17.5292 235.958 17.3721C235.685 17.2149 235.378 17.1363 235.036 17.1363C234.687 17.1363 234.376 17.2149 234.103 17.3721C233.83 17.5292 233.611 17.7513 233.447 18.0383C233.283 18.3185 233.201 18.6533 233.201 19.0428C233.201 19.4254 233.283 19.7637 233.447 20.0575C233.611 20.3445 233.83 20.5665 234.103 20.7237C234.376 20.8809 234.687 20.9594 235.036 20.9594ZM236.891 21.7589V20.2932L236.953 19.0325L236.85 17.7718V14.1537H237.834V21.7589H236.891ZM0.942478 35.7589V28.1537H1.92644V35.7589H0.942478ZM7.17727 35.7589V34.611L7.12602 34.3957V32.438C7.12602 32.0212 7.00303 31.7001 6.75703 31.4746C6.51788 31.2423 6.15573 31.1261 5.67058 31.1261C5.34943 31.1261 5.0351 31.1808 4.72762 31.2901C4.42013 31.3926 4.16047 31.5327 3.94865 31.7103L3.53867 30.9724C3.81882 30.7469 4.15364 30.576 4.54312 30.4599C4.93944 30.3369 5.35284 30.2754 5.78332 30.2754C6.52813 30.2754 7.1021 30.4565 7.50525 30.8186C7.90841 31.1808 8.10998 31.7342 8.10998 32.479V35.7589H7.17727ZM5.39384 35.8204C4.99069 35.8204 4.63537 35.7521 4.32788 35.6154C4.02723 35.4788 3.79491 35.2908 3.63091 35.0517C3.46692 34.8057 3.38492 34.529 3.38492 34.2215C3.38492 33.9277 3.45325 33.6612 3.58991 33.422C3.73341 33.1828 3.96232 32.9915 4.27664 32.848C4.59779 32.7045 5.02827 32.6328 5.56808 32.6328H7.29001V33.34H5.60908C5.1171 33.34 4.7857 33.422 4.61487 33.586C4.44405 33.75 4.35863 33.9482 4.35863 34.1805C4.35863 34.447 4.46454 34.6622 4.67637 34.8262C4.88819 34.9834 5.18202 35.0619 5.55783 35.0619C5.92682 35.0619 6.24797 34.9799 6.52129 34.8159C6.80145 34.652 7.00303 34.4128 7.12602 34.0985L7.32076 34.775C7.19093 35.0961 6.96203 35.3523 6.63404 35.5437C6.30605 35.7282 5.89265 35.8204 5.39384 35.8204ZM12.811 35.8204C12.3464 35.8204 11.9261 35.7179 11.5503 35.5129C11.1813 35.3011 10.8875 34.9902 10.6689 34.5802C10.457 34.1702 10.3511 33.6577 10.3511 33.0428C10.3511 32.4278 10.4604 31.9153 10.6791 31.5053C10.9046 31.0954 11.2018 30.7879 11.5708 30.5829C11.9466 30.3779 12.36 30.2754 12.811 30.2754C13.344 30.2754 13.8155 30.3915 14.2255 30.6239C14.6354 30.8562 14.96 31.1808 15.1992 31.5976C15.4383 32.0076 15.5579 32.4893 15.5579 33.0428C15.5579 33.5962 15.4383 34.0814 15.1992 34.4982C14.96 34.915 14.6354 35.2396 14.2255 35.4719C13.8155 35.7042 13.344 35.8204 12.811 35.8204ZM9.93088 35.7589V28.1537H10.9148V31.7718L10.8123 33.0325L10.8738 34.2932V35.7589H9.93088ZM12.729 34.9594C13.0775 34.9594 13.3884 34.8809 13.6617 34.7237C13.9419 34.5665 14.1605 34.3445 14.3177 34.0575C14.4817 33.7637 14.5637 33.4254 14.5637 33.0428C14.5637 32.6533 14.4817 32.3185 14.3177 32.0383C14.1605 31.7513 13.9419 31.5292 13.6617 31.3721C13.3884 31.2149 13.0775 31.1363 12.729 31.1363C12.3874 31.1363 12.0765 31.2149 11.7963 31.3721C11.523 31.5292 11.3043 31.7513 11.1403 32.0383C10.9832 32.3185 10.9046 32.6533 10.9046 33.0428C10.9046 33.4254 10.9832 33.7637 11.1403 34.0575C11.3043 34.3445 11.523 34.5665 11.7963 34.7237C12.0765 34.8809 12.3874 34.9594 12.729 34.9594ZM19.3363 35.8204C18.7555 35.8204 18.243 35.7008 17.7989 35.4617C17.3616 35.2225 17.0199 34.8945 16.7739 34.4777C16.5348 34.0609 16.4152 33.5826 16.4152 33.0428C16.4152 32.503 16.5313 32.0246 16.7637 31.6078C17.0028 31.191 17.3274 30.8664 17.7374 30.6341C18.1542 30.395 18.6223 30.2754 19.1416 30.2754C19.6677 30.2754 20.1324 30.3915 20.5355 30.6239C20.9387 30.8562 21.253 31.1842 21.4785 31.6078C21.7108 32.0246 21.827 32.5132 21.827 33.0735C21.827 33.1145 21.8236 33.1623 21.8167 33.217C21.8167 33.2717 21.8133 33.3229 21.8065 33.3708H17.1839V32.6635H21.294L20.8943 32.9095C20.9011 32.561 20.8293 32.2501 20.679 31.9768C20.5287 31.7035 20.3203 31.4917 20.0538 31.3413C19.7941 31.1842 19.4901 31.1056 19.1416 31.1056C18.7999 31.1056 18.4959 31.1842 18.2294 31.3413C17.9629 31.4917 17.7545 31.7069 17.6041 31.9871C17.4538 32.2604 17.3786 32.5747 17.3786 32.93V33.094C17.3786 33.4562 17.4606 33.7807 17.6246 34.0677C17.7955 34.3479 18.0312 34.5665 18.3319 34.7237C18.6325 34.8809 18.9776 34.9594 19.3671 34.9594C19.6882 34.9594 19.9786 34.9048 20.2383 34.7955C20.5048 34.6861 20.7371 34.5221 20.9353 34.3035L21.4785 34.9389C21.2325 35.2259 20.925 35.4446 20.556 35.5949C20.1939 35.7452 19.7873 35.8204 19.3363 35.8204ZM23.1933 35.7589V28.1537H24.1772V35.7589H23.1933ZM26.056 35.7589V30.3266H27.0399V35.7589H26.056ZM26.5479 29.2812C26.3566 29.2812 26.196 29.2197 26.0662 29.0967C25.9432 28.9737 25.8817 28.8234 25.8817 28.6457C25.8817 28.4612 25.9432 28.3075 26.0662 28.1845C26.196 28.0615 26.3566 28 26.5479 28C26.7393 28 26.8964 28.0615 27.0194 28.1845C27.1493 28.3006 27.2142 28.4475 27.2142 28.6252C27.2142 28.8097 27.1527 28.9669 27.0297 29.0967C26.9067 29.2197 26.7461 29.2812 26.5479 29.2812ZM31.8193 30.2754C32.2634 30.2754 32.6529 30.3608 32.9877 30.5316C33.3294 30.7024 33.5959 30.9621 33.7872 31.3106C33.9785 31.6591 34.0742 32.0998 34.0742 32.6328V35.7589H33.0902V32.7455C33.0902 32.2194 32.9604 31.8231 32.7007 31.5566C32.4479 31.2901 32.0892 31.1568 31.6245 31.1568C31.276 31.1568 30.972 31.2252 30.7123 31.3618C30.4527 31.4985 30.2511 31.7001 30.1076 31.9666C29.9709 32.2331 29.9026 32.5645 29.9026 32.9608V35.7589H28.9186V30.3266H29.8616V31.7923L29.7079 31.4028C29.8855 31.0475 30.1588 30.7708 30.5278 30.5726C30.8968 30.3745 31.3273 30.2754 31.8193 30.2754ZM38.2731 37.8088C37.7743 37.8088 37.2891 37.7371 36.8176 37.5936C36.353 37.4569 35.9737 37.2588 35.6799 36.9991L36.1514 36.2406C36.4042 36.4593 36.7151 36.6301 37.0841 36.7531C37.4531 36.8829 37.8392 36.9479 38.2423 36.9479C38.8846 36.9479 39.3561 36.7975 39.6568 36.4969C39.9574 36.1962 40.1077 35.7384 40.1077 35.1234V33.9755L40.2102 32.8993L40.159 31.8128V30.3266H41.0917V35.0209C41.0917 35.9776 40.8525 36.6814 40.3742 37.1324C39.8959 37.5833 39.1955 37.8088 38.2731 37.8088ZM38.1501 35.5334C37.6239 35.5334 37.1524 35.4241 36.7356 35.2054C36.3256 34.9799 35.9977 34.669 35.7517 34.2727C35.5125 33.8764 35.3929 33.4186 35.3929 32.8993C35.3929 32.3731 35.5125 31.9153 35.7517 31.5258C35.9977 31.1295 36.3256 30.822 36.7356 30.6034C37.1524 30.3847 37.6239 30.2754 38.1501 30.2754C38.6147 30.2754 39.0384 30.371 39.421 30.5624C39.8037 30.7469 40.1077 31.0339 40.3332 31.4233C40.5656 31.8128 40.6817 32.3048 40.6817 32.8993C40.6817 33.4869 40.5656 33.9755 40.3332 34.365C40.1077 34.7545 39.8037 35.0483 39.421 35.2464C39.0384 35.4378 38.6147 35.5334 38.1501 35.5334ZM38.2628 34.6725C38.625 34.6725 38.9461 34.5973 39.2263 34.447C39.5064 34.2966 39.7251 34.0882 39.8822 33.8217C40.0462 33.5553 40.1282 33.2478 40.1282 32.8993C40.1282 32.5508 40.0462 32.2433 39.8822 31.9768C39.7251 31.7103 39.5064 31.5053 39.2263 31.3618C38.9461 31.2115 38.625 31.1363 38.2628 31.1363C37.9007 31.1363 37.5761 31.2115 37.2891 31.3618C37.0089 31.5053 36.7869 31.7103 36.6229 31.9768C36.4657 32.2433 36.3871 32.5508 36.3871 32.8993C36.3871 33.2478 36.4657 33.5553 36.6229 33.8217C36.7869 34.0882 37.0089 34.2966 37.2891 34.447C37.5761 34.5973 37.9007 34.6725 38.2628 34.6725ZM43.2075 35.8204C43.0162 35.8204 42.8522 35.7555 42.7155 35.6257C42.5789 35.489 42.5105 35.3182 42.5105 35.1132C42.5105 34.9082 42.5789 34.7408 42.7155 34.611C42.8522 34.4811 43.0162 34.4162 43.2075 34.4162C43.392 34.4162 43.5492 34.4811 43.679 34.611C43.8157 34.7408 43.884 34.9082 43.884 35.1132C43.884 35.3182 43.8157 35.489 43.679 35.6257C43.5492 35.7555 43.392 35.8204 43.2075 35.8204Z" fill="black"/>
</svg>
