<svg width="152" height="84" viewBox="0 0 152 84" fill="none" xmlns="http://www.w3.org/2000/svg">
<path d="M2.36177 20V9.76L3.48177 10.88H0.121766V8.8H4.95377V20H2.36177ZM11.6994 20.192C10.7821 20.192 9.96072 19.968 9.23539 19.52C8.51006 19.0613 7.93939 18.4 7.52339 17.536C7.10739 16.672 6.89939 15.6267 6.89939 14.4C6.89939 13.1733 7.10739 12.128 7.52339 11.264C7.93939 10.4 8.51006 9.744 9.23539 9.296C9.96072 8.83733 10.7821 8.608 11.6994 8.608C12.6274 8.608 13.4487 8.83733 14.1634 9.296C14.8887 9.744 15.4594 10.4 15.8754 11.264C16.2914 12.128 16.4994 13.1733 16.4994 14.4C16.4994 15.6267 16.2914 16.672 15.8754 17.536C15.4594 18.4 14.8887 19.0613 14.1634 19.52C13.4487 19.968 12.6274 20.192 11.6994 20.192ZM11.6994 18C12.1367 18 12.5154 17.8773 12.8354 17.632C13.1661 17.3867 13.4221 16.9973 13.6034 16.464C13.7954 15.9307 13.8914 15.2427 13.8914 14.4C13.8914 13.5573 13.7954 12.8693 13.6034 12.336C13.4221 11.8027 13.1661 11.4133 12.8354 11.168C12.5154 10.9227 12.1367 10.8 11.6994 10.8C11.2727 10.8 10.8941 10.9227 10.5634 11.168C10.2434 11.4133 9.98739 11.8027 9.79539 12.336C9.61406 12.8693 9.52339 13.5573 9.52339 14.4C9.52339 15.2427 9.61406 15.9307 9.79539 16.464C9.98739 16.9973 10.2434 17.3867 10.5634 17.632C10.8941 17.8773 11.2727 18 11.6994 18ZM22.5588 20.192C21.6414 20.192 20.8201 19.968 20.0948 19.52C19.3694 19.0613 18.7988 18.4 18.3828 17.536C17.9668 16.672 17.7588 15.6267 17.7588 14.4C17.7588 13.1733 17.9668 12.128 18.3828 11.264C18.7988 10.4 19.3694 9.744 20.0948 9.296C20.8201 8.83733 21.6414 8.608 22.5588 8.608C23.4868 8.608 24.3081 8.83733 25.0228 9.296C25.7481 9.744 26.3188 10.4 26.7348 11.264C27.1508 12.128 27.3588 13.1733 27.3588 14.4C27.3588 15.6267 27.1508 16.672 26.7348 17.536C26.3188 18.4 25.7481 19.0613 25.0228 19.52C24.3081 19.968 23.4868 20.192 22.5588 20.192ZM22.5588 18C22.9961 18 23.3748 17.8773 23.6948 17.632C24.0254 17.3867 24.2814 16.9973 24.4628 16.464C24.6548 15.9307 24.7508 15.2427 24.7508 14.4C24.7508 13.5573 24.6548 12.8693 24.4628 12.336C24.2814 11.8027 24.0254 11.4133 23.6948 11.168C23.3748 10.9227 22.9961 10.8 22.5588 10.8C22.1321 10.8 21.7534 10.9227 21.4228 11.168C21.1028 11.4133 20.8468 11.8027 20.6548 12.336C20.4734 12.8693 20.3828 13.5573 20.3828 14.4C20.3828 15.2427 20.4734 15.9307 20.6548 16.464C20.8468 16.9973 21.1028 17.3867 21.4228 17.632C21.7534 17.8773 22.1321 18 22.5588 18ZM44.7014 11.264C45.3841 11.264 45.9867 11.4027 46.5094 11.68C47.0427 11.9467 47.4587 12.3627 47.7574 12.928C48.0667 13.4827 48.2214 14.1973 48.2214 15.072V20H45.7254V15.456C45.7254 14.7627 45.5814 14.2507 45.2934 13.92C45.0054 13.5893 44.6001 13.424 44.0774 13.424C43.7147 13.424 43.3894 13.5093 43.1014 13.68C42.8134 13.84 42.5894 14.0853 42.4294 14.416C42.2694 14.7467 42.1894 15.168 42.1894 15.68V20H39.6934V15.456C39.6934 14.7627 39.5494 14.2507 39.2614 13.92C38.9841 13.5893 38.5841 13.424 38.0614 13.424C37.6987 13.424 37.3734 13.5093 37.0854 13.68C36.7974 13.84 36.5734 14.0853 36.4134 14.416C36.2534 14.7467 36.1734 15.168 36.1734 15.68V20H33.6774V11.392H36.0614V13.744L35.6134 13.056C35.9121 12.4693 36.3334 12.0267 36.8774 11.728C37.4321 11.4187 38.0614 11.264 38.7654 11.264C39.5547 11.264 40.2427 11.4667 40.8294 11.872C41.4267 12.2667 41.8214 12.8747 42.0134 13.696L41.1334 13.456C41.4214 12.784 41.8801 12.2507 42.5094 11.856C43.1494 11.4613 43.8801 11.264 44.7014 11.264ZM50.4586 20V8.128H52.9546V20H50.4586ZM59.4824 16.496V14.496H64.0104V16.496H59.4824ZM76.1215 20.192C75.2362 20.192 74.4148 20.048 73.6575 19.76C72.9108 19.472 72.2602 19.0667 71.7055 18.544C71.1615 18.0213 70.7348 17.408 70.4255 16.704C70.1268 16 69.9775 15.232 69.9775 14.4C69.9775 13.568 70.1268 12.8 70.4255 12.096C70.7348 11.392 71.1668 10.7787 71.7215 10.256C72.2762 9.73333 72.9268 9.328 73.6735 9.04C74.4202 8.752 75.2308 8.608 76.1055 8.608C76.9908 8.608 77.8015 8.752 78.5375 9.04C79.2842 9.328 79.9295 9.73333 80.4735 10.256C81.0282 10.7787 81.4602 11.392 81.7695 12.096C82.0788 12.7893 82.2335 13.5573 82.2335 14.4C82.2335 15.232 82.0788 16.0053 81.7695 16.72C81.4602 17.424 81.0282 18.0373 80.4735 18.56C79.9295 19.072 79.2842 19.472 78.5375 19.76C77.8015 20.048 76.9962 20.192 76.1215 20.192ZM76.1055 17.984C76.6068 17.984 77.0655 17.8987 77.4815 17.728C77.9082 17.5573 78.2815 17.312 78.6015 16.992C78.9215 16.672 79.1668 16.2933 79.3375 15.856C79.5188 15.4187 79.6095 14.9333 79.6095 14.4C79.6095 13.8667 79.5188 13.3813 79.3375 12.944C79.1668 12.5067 78.9215 12.128 78.6015 11.808C78.2922 11.488 77.9242 11.2427 77.4975 11.072C77.0708 10.9013 76.6068 10.816 76.1055 10.816C75.6042 10.816 75.1402 10.9013 74.7135 11.072C74.2975 11.2427 73.9295 11.488 73.6095 11.808C73.2895 12.128 73.0388 12.5067 72.8575 12.944C72.6868 13.3813 72.6015 13.8667 72.6015 14.4C72.6015 14.9227 72.6868 15.408 72.8575 15.856C73.0388 16.2933 73.2842 16.672 73.5935 16.992C73.9135 17.312 74.2868 17.5573 74.7135 17.728C75.1402 17.8987 75.6042 17.984 76.1055 17.984ZM87.1821 20L82.3501 8.8H85.1501L89.3741 18.72H87.7261L92.0141 8.8H94.5901L89.7421 20H87.1821ZM93.6783 20L98.6703 8.8H101.23L106.238 20H103.518L99.4223 10.112H100.446L96.3343 20H93.6783ZM96.1743 17.6L96.8623 15.632H102.622L103.326 17.6H96.1743ZM107.4 20V8.8H109.992V17.888H115.608V20H107.4Z" fill="#4A8036"/>
<path d="M1.00577 45V36.6H2.94977V45H1.00577ZM4.94327 45V36.6H6.55127L10.1273 42.528H9.27527L12.7913 36.6H14.3873L14.4113 45H12.5873L12.5753 39.396H12.9113L10.1033 44.112H9.22727L6.35927 39.396H6.76727V45H4.94327ZM16.4042 45V36.6H18.3482V43.416H22.5602V45H16.4042ZM27.0448 45V36.6H28.6528L32.2288 42.528H31.3768L34.8928 36.6H36.4888L36.5128 45H34.6888L34.6768 39.396H35.0128L32.2048 44.112H31.3288L28.4608 39.396H28.8688V45H27.0448ZM42.5858 45.144C41.9218 45.144 41.3058 45.036 40.7378 44.82C40.1778 44.604 39.6898 44.3 39.2738 43.908C38.8658 43.516 38.5458 43.056 38.3138 42.528C38.0898 42 37.9778 41.424 37.9778 40.8C37.9778 40.176 38.0898 39.6 38.3138 39.072C38.5458 38.544 38.8698 38.084 39.2858 37.692C39.7018 37.3 40.1898 36.996 40.7498 36.78C41.3098 36.564 41.9178 36.456 42.5738 36.456C43.2378 36.456 43.8458 36.564 44.3978 36.78C44.9578 36.996 45.4418 37.3 45.8498 37.692C46.2658 38.084 46.5898 38.544 46.8218 39.072C47.0538 39.592 47.1698 40.168 47.1698 40.8C47.1698 41.424 47.0538 42.004 46.8218 42.54C46.5898 43.068 46.2658 43.528 45.8498 43.92C45.4418 44.304 44.9578 44.604 44.3978 44.82C43.8458 45.036 43.2418 45.144 42.5858 45.144ZM42.5738 43.488C42.9498 43.488 43.2938 43.424 43.6058 43.296C43.9258 43.168 44.2058 42.984 44.4458 42.744C44.6858 42.504 44.8698 42.22 44.9978 41.892C45.1338 41.564 45.2018 41.2 45.2018 40.8C45.2018 40.4 45.1338 40.036 44.9978 39.708C44.8698 39.38 44.6858 39.096 44.4458 38.856C44.2138 38.616 43.9378 38.432 43.6178 38.304C43.2978 38.176 42.9498 38.112 42.5738 38.112C42.1978 38.112 41.8498 38.176 41.5298 38.304C41.2178 38.432 40.9418 38.616 40.7018 38.856C40.4618 39.096 40.2738 39.38 40.1378 39.708C40.0098 40.036 39.9458 40.4 39.9458 40.8C39.9458 41.192 40.0098 41.556 40.1378 41.892C40.2738 42.22 40.4578 42.504 40.6898 42.744C40.9298 42.984 41.2098 43.168 41.5298 43.296C41.8498 43.424 42.1978 43.488 42.5738 43.488ZM52.6988 45.144C52.0428 45.144 51.4308 45.036 50.8628 44.82C50.3028 44.604 49.8148 44.3 49.3988 43.908C48.9908 43.516 48.6708 43.056 48.4388 42.528C48.2148 42 48.1028 41.424 48.1028 40.8C48.1028 40.176 48.2148 39.6 48.4388 39.072C48.6708 38.544 48.9948 38.084 49.4108 37.692C49.8268 37.3 50.3148 36.996 50.8748 36.78C51.4348 36.564 52.0428 36.456 52.6988 36.456C53.3628 36.456 53.9708 36.564 54.5228 36.78C55.0828 36.996 55.5668 37.3 55.9748 37.692C56.3908 38.076 56.7148 38.532 56.9468 39.06C57.1788 39.588 57.2948 40.168 57.2948 40.8C57.2948 41.424 57.1788 42.004 56.9468 42.54C56.7148 43.068 56.3908 43.528 55.9748 43.92C55.5668 44.304 55.0828 44.604 54.5228 44.82C53.9708 45.036 53.3628 45.144 52.6988 45.144ZM55.4468 46.932C55.1188 46.932 54.8068 46.896 54.5108 46.824C54.2228 46.752 53.9348 46.636 53.6468 46.476C53.3668 46.316 53.0708 46.1 52.7588 45.828C52.4548 45.556 52.1228 45.22 51.7628 44.82L53.8028 44.304C54.0188 44.6 54.2188 44.836 54.4028 45.012C54.5868 45.188 54.7628 45.312 54.9308 45.384C55.1068 45.456 55.2908 45.492 55.4828 45.492C55.9948 45.492 56.4508 45.284 56.8508 44.868L57.7148 45.9C57.1468 46.588 56.3908 46.932 55.4468 46.932ZM52.6988 43.488C53.0748 43.488 53.4188 43.424 53.7308 43.296C54.0508 43.168 54.3308 42.984 54.5708 42.744C54.8108 42.504 54.9948 42.22 55.1228 41.892C55.2588 41.556 55.3268 41.192 55.3268 40.8C55.3268 40.4 55.2588 40.036 55.1228 39.708C54.9948 39.38 54.8108 39.096 54.5708 38.856C54.3308 38.616 54.0508 38.432 53.7308 38.304C53.4188 38.176 53.0748 38.112 52.6988 38.112C52.3228 38.112 51.9748 38.176 51.6548 38.304C51.3348 38.432 51.0548 38.616 50.8148 38.856C50.5828 39.096 50.3988 39.38 50.2628 39.708C50.1348 40.036 50.0708 40.4 50.0708 40.8C50.0708 41.192 50.1348 41.556 50.2628 41.892C50.3988 42.22 50.5828 42.504 50.8148 42.744C51.0548 42.984 51.3348 43.168 51.6548 43.296C51.9748 43.424 52.3228 43.488 52.6988 43.488ZM61.7822 42.372V40.872H65.1782V42.372H61.7822ZM70.9495 45V37.32L71.7895 38.16H69.2695V36.6H72.8935V45H70.9495ZM77.9528 45.144C77.2648 45.144 76.6488 44.976 76.1048 44.64C75.5608 44.296 75.1328 43.8 74.8208 43.152C74.5088 42.504 74.3528 41.72 74.3528 40.8C74.3528 39.88 74.5088 39.096 74.8208 38.448C75.1328 37.8 75.5608 37.308 76.1048 36.972C76.6488 36.628 77.2648 36.456 77.9528 36.456C78.6488 36.456 79.2648 36.628 79.8008 36.972C80.3448 37.308 80.7728 37.8 81.0848 38.448C81.3968 39.096 81.5528 39.88 81.5528 40.8C81.5528 41.72 81.3968 42.504 81.0848 43.152C80.7728 43.8 80.3448 44.296 79.8008 44.64C79.2648 44.976 78.6488 45.144 77.9528 45.144ZM77.9528 43.5C78.2808 43.5 78.5648 43.408 78.8048 43.224C79.0528 43.04 79.2448 42.748 79.3808 42.348C79.5248 41.948 79.5968 41.432 79.5968 40.8C79.5968 40.168 79.5248 39.652 79.3808 39.252C79.2448 38.852 79.0528 38.56 78.8048 38.376C78.5648 38.192 78.2808 38.1 77.9528 38.1C77.6328 38.1 77.3488 38.192 77.1008 38.376C76.8608 38.56 76.6688 38.852 76.5248 39.252C76.3888 39.652 76.3208 40.168 76.3208 40.8C76.3208 41.432 76.3888 41.948 76.5248 42.348C76.6688 42.748 76.8608 43.04 77.1008 43.224C77.3488 43.408 77.6328 43.5 77.9528 43.5ZM86.0973 45.144C85.4093 45.144 84.7933 44.976 84.2493 44.64C83.7053 44.296 83.2773 43.8 82.9653 43.152C82.6533 42.504 82.4973 41.72 82.4973 40.8C82.4973 39.88 82.6533 39.096 82.9653 38.448C83.2773 37.8 83.7053 37.308 84.2493 36.972C84.7933 36.628 85.4093 36.456 86.0973 36.456C86.7933 36.456 87.4093 36.628 87.9453 36.972C88.4893 37.308 88.9173 37.8 89.2293 38.448C89.5413 39.096 89.6973 39.88 89.6973 40.8C89.6973 41.72 89.5413 42.504 89.2293 43.152C88.9173 43.8 88.4893 44.296 87.9453 44.64C87.4093 44.976 86.7933 45.144 86.0973 45.144ZM86.0973 43.5C86.4253 43.5 86.7093 43.408 86.9493 43.224C87.1973 43.04 87.3893 42.748 87.5253 42.348C87.6693 41.948 87.7413 41.432 87.7413 40.8C87.7413 40.168 87.6693 39.652 87.5253 39.252C87.3893 38.852 87.1973 38.56 86.9493 38.376C86.7093 38.192 86.4253 38.1 86.0973 38.1C85.7773 38.1 85.4933 38.192 85.2453 38.376C85.0053 38.56 84.8133 38.852 84.6693 39.252C84.5333 39.652 84.4653 40.168 84.4653 40.8C84.4653 41.432 84.5333 41.948 84.6693 42.348C84.8133 42.748 85.0053 43.04 85.2453 43.224C85.4933 43.408 85.7773 43.5 86.0973 43.5ZM94.2418 45.144C93.5538 45.144 92.9378 44.976 92.3938 44.64C91.8498 44.296 91.4218 43.8 91.1098 43.152C90.7978 42.504 90.6418 41.72 90.6418 40.8C90.6418 39.88 90.7978 39.096 91.1098 38.448C91.4218 37.8 91.8498 37.308 92.3938 36.972C92.9378 36.628 93.5538 36.456 94.2418 36.456C94.9378 36.456 95.5538 36.628 96.0898 36.972C96.6338 37.308 97.0618 37.8 97.3738 38.448C97.6858 39.096 97.8418 39.88 97.8418 40.8C97.8418 41.72 97.6858 42.504 97.3738 43.152C97.0618 43.8 96.6338 44.296 96.0898 44.64C95.5538 44.976 94.9378 45.144 94.2418 45.144ZM94.2418 43.5C94.5698 43.5 94.8538 43.408 95.0938 43.224C95.3418 43.04 95.5338 42.748 95.6698 42.348C95.8138 41.948 95.8858 41.432 95.8858 40.8C95.8858 40.168 95.8138 39.652 95.6698 39.252C95.5338 38.852 95.3418 38.56 95.0938 38.376C94.8538 38.192 94.5698 38.1 94.2418 38.1C93.9218 38.1 93.6378 38.192 93.3898 38.376C93.1498 38.56 92.9578 38.852 92.8138 39.252C92.6778 39.652 92.6098 40.168 92.6098 40.8C92.6098 41.432 92.6778 41.948 92.8138 42.348C92.9578 42.748 93.1498 43.04 93.3898 43.224C93.6378 43.408 93.9218 43.5 94.2418 43.5ZM102.386 45.144C101.698 45.144 101.082 44.976 100.538 44.64C99.9944 44.296 99.5664 43.8 99.2544 43.152C98.9424 42.504 98.7864 41.72 98.7864 40.8C98.7864 39.88 98.9424 39.096 99.2544 38.448C99.5664 37.8 99.9944 37.308 100.538 36.972C101.082 36.628 101.698 36.456 102.386 36.456C103.082 36.456 103.698 36.628 104.234 36.972C104.778 37.308 105.206 37.8 105.518 38.448C105.83 39.096 105.986 39.88 105.986 40.8C105.986 41.72 105.83 42.504 105.518 43.152C105.206 43.8 104.778 44.296 104.234 44.64C103.698 44.976 103.082 45.144 102.386 45.144ZM102.386 43.5C102.714 43.5 102.998 43.408 103.238 43.224C103.486 43.04 103.678 42.748 103.814 42.348C103.958 41.948 104.03 41.432 104.03 40.8C104.03 40.168 103.958 39.652 103.814 39.252C103.678 38.852 103.486 38.56 103.238 38.376C102.998 38.192 102.714 38.1 102.386 38.1C102.066 38.1 101.782 38.192 101.534 38.376C101.294 38.56 101.102 38.852 100.958 39.252C100.822 39.652 100.754 40.168 100.754 40.8C100.754 41.432 100.822 41.948 100.958 42.348C101.102 42.748 101.294 43.04 101.534 43.224C101.782 43.408 102.066 43.5 102.386 43.5ZM110.857 45V36.6H114.493C115.245 36.6 115.893 36.724 116.437 36.972C116.981 37.212 117.401 37.56 117.697 38.016C117.993 38.472 118.141 39.016 118.141 39.648C118.141 40.272 117.993 40.812 117.697 41.268C117.401 41.724 116.981 42.076 116.437 42.324C115.893 42.564 115.245 42.684 114.493 42.684H111.937L112.801 41.808V45H110.857ZM112.801 42.024L111.937 41.1H114.385C114.985 41.1 115.433 40.972 115.729 40.716C116.025 40.46 116.173 40.104 116.173 39.648C116.173 39.184 116.025 38.824 115.729 38.568C115.433 38.312 114.985 38.184 114.385 38.184H111.937L112.801 37.26V42.024ZM122.505 45.096C121.809 45.096 121.189 44.956 120.645 44.676C120.101 44.388 119.673 43.992 119.361 43.488C119.057 42.984 118.905 42.412 118.905 41.772C118.905 41.124 119.057 40.552 119.361 40.056C119.673 39.552 120.101 39.16 120.645 38.88C121.189 38.592 121.809 38.448 122.505 38.448C123.185 38.448 123.777 38.592 124.281 38.88C124.785 39.16 125.157 39.564 125.397 40.092L123.945 40.872C123.777 40.568 123.565 40.344 123.309 40.2C123.061 40.056 122.789 39.984 122.493 39.984C122.173 39.984 121.885 40.056 121.629 40.2C121.373 40.344 121.169 40.548 121.017 40.812C120.873 41.076 120.801 41.396 120.801 41.772C120.801 42.148 120.873 42.468 121.017 42.732C121.169 42.996 121.373 43.2 121.629 43.344C121.885 43.488 122.173 43.56 122.493 43.56C122.789 43.56 123.061 43.492 123.309 43.356C123.565 43.212 123.777 42.984 123.945 42.672L125.397 43.464C125.157 43.984 124.785 44.388 124.281 44.676C123.777 44.956 123.185 45.096 122.505 45.096ZM128.647 45.096C128.095 45.096 127.563 45.032 127.051 44.904C126.547 44.768 126.147 44.6 125.851 44.4L126.475 43.056C126.771 43.24 127.119 43.392 127.519 43.512C127.927 43.624 128.327 43.68 128.719 43.68C129.151 43.68 129.455 43.628 129.631 43.524C129.815 43.42 129.907 43.276 129.907 43.092C129.907 42.94 129.835 42.828 129.691 42.756C129.555 42.676 129.371 42.616 129.139 42.576C128.907 42.536 128.651 42.496 128.371 42.456C128.099 42.416 127.823 42.364 127.543 42.3C127.263 42.228 127.007 42.124 126.775 41.988C126.543 41.852 126.355 41.668 126.211 41.436C126.075 41.204 126.007 40.904 126.007 40.536C126.007 40.128 126.123 39.768 126.355 39.456C126.595 39.144 126.939 38.9 127.387 38.724C127.835 38.54 128.371 38.448 128.995 38.448C129.435 38.448 129.883 38.496 130.339 38.592C130.795 38.688 131.175 38.828 131.479 39.012L130.855 40.344C130.543 40.16 130.227 40.036 129.907 39.972C129.595 39.9 129.291 39.864 128.995 39.864C128.579 39.864 128.275 39.92 128.083 40.032C127.891 40.144 127.795 40.288 127.795 40.464C127.795 40.624 127.863 40.744 127.999 40.824C128.143 40.904 128.331 40.968 128.563 41.016C128.795 41.064 129.047 41.108 129.319 41.148C129.599 41.18 129.879 41.232 130.159 41.304C130.439 41.376 130.691 41.48 130.915 41.616C131.147 41.744 131.335 41.924 131.479 42.156C131.623 42.38 131.695 42.676 131.695 43.044C131.695 43.444 131.575 43.8 131.335 44.112C131.095 44.416 130.747 44.656 130.291 44.832C129.843 45.008 129.295 45.096 128.647 45.096Z" fill="black"/>
<path d="M-0.000234375 67L3.16977 60H4.15977L7.33977 67H6.28977L3.45977 60.56H3.85977L1.02977 67H-0.000234375ZM1.34977 65.25L1.61977 64.45H5.55977L5.84977 65.25H1.34977ZM10.1152 67.06C9.58182 67.06 9.16849 66.9167 8.87516 66.63C8.58182 66.3433 8.43516 65.9333 8.43516 65.4V60.54H9.39516V65.36C9.39516 65.6467 9.46516 65.8667 9.60516 66.02C9.75182 66.1733 9.95849 66.25 10.2252 66.25C10.5252 66.25 10.7752 66.1667 10.9752 66L11.2752 66.69C11.1285 66.8167 10.9518 66.91 10.7452 66.97C10.5452 67.03 10.3352 67.06 10.1152 67.06ZM7.53516 62.49V61.7H10.9152V62.49H7.53516ZM14.2288 67.06C13.6955 67.06 13.2822 66.9167 12.9888 66.63C12.6955 66.3433 12.5488 65.9333 12.5488 65.4V60.54H13.5088V65.36C13.5088 65.6467 13.5788 65.8667 13.7188 66.02C13.8655 66.1733 14.0722 66.25 14.3388 66.25C14.6388 66.25 14.8888 66.1667 15.0888 66L15.3888 66.69C15.2422 66.8167 15.0655 66.91 14.8588 66.97C14.6588 67.03 14.4488 67.06 14.2288 67.06ZM11.6488 62.49V61.7H15.0288V62.49H11.6488ZM16.6495 67V61.7H17.5695V63.14L17.4795 62.78C17.6261 62.4133 17.8728 62.1333 18.2195 61.94C18.5661 61.7467 18.9928 61.65 19.4995 61.65V62.58C19.4595 62.5733 19.4195 62.57 19.3795 62.57C19.3461 62.57 19.3128 62.57 19.2795 62.57C18.7661 62.57 18.3595 62.7233 18.0595 63.03C17.7595 63.3367 17.6095 63.78 17.6095 64.36V67H16.6495ZM23.682 67V65.88L23.632 65.67V63.76C23.632 63.3533 23.512 63.04 23.272 62.82C23.0387 62.5933 22.6854 62.48 22.212 62.48C21.8987 62.48 21.592 62.5333 21.292 62.64C20.992 62.74 20.7387 62.8767 20.532 63.05L20.132 62.33C20.4054 62.11 20.732 61.9433 21.112 61.83C21.4987 61.71 21.902 61.65 22.322 61.65C23.0487 61.65 23.6087 61.8267 24.002 62.18C24.3954 62.5333 24.592 63.0733 24.592 63.8V67H23.682ZM21.942 67.06C21.5487 67.06 21.202 66.9933 20.902 66.86C20.6087 66.7267 20.382 66.5433 20.222 66.31C20.062 66.07 19.982 65.8 19.982 65.5C19.982 65.2133 20.0487 64.9533 20.182 64.72C20.322 64.4867 20.5454 64.3 20.852 64.16C21.1654 64.02 21.5854 63.95 22.112 63.95H23.792V64.64H22.152C21.672 64.64 21.3487 64.72 21.182 64.88C21.0154 65.04 20.932 65.2333 20.932 65.46C20.932 65.72 21.0354 65.93 21.242 66.09C21.4487 66.2433 21.7354 66.32 22.102 66.32C22.462 66.32 22.7754 66.24 23.042 66.08C23.3154 65.92 23.512 65.6867 23.632 65.38L23.822 66.04C23.6954 66.3533 23.472 66.6033 23.152 66.79C22.832 66.97 22.4287 67.06 21.942 67.06ZM28.7786 67.06C28.2386 67.06 27.7553 66.9433 27.3286 66.71C26.9086 66.4767 26.5786 66.1567 26.3386 65.75C26.0986 65.3433 25.9786 64.8767 25.9786 64.35C25.9786 63.8233 26.0986 63.3567 26.3386 62.95C26.5786 62.5433 26.9086 62.2267 27.3286 62C27.7553 61.7667 28.2386 61.65 28.7786 61.65C29.2586 61.65 29.6853 61.7467 30.0586 61.94C30.4386 62.1267 30.7319 62.4067 30.9386 62.78L30.2086 63.25C30.0353 62.99 29.8219 62.8 29.5686 62.68C29.3219 62.5533 29.0553 62.49 28.7686 62.49C28.4219 62.49 28.1119 62.5667 27.8386 62.72C27.5653 62.8733 27.3486 63.09 27.1886 63.37C27.0286 63.6433 26.9486 63.97 26.9486 64.35C26.9486 64.73 27.0286 65.06 27.1886 65.34C27.3486 65.62 27.5653 65.8367 27.8386 65.99C28.1119 66.1433 28.4219 66.22 28.7686 66.22C29.0553 66.22 29.3219 66.16 29.5686 66.04C29.8219 65.9133 30.0353 65.72 30.2086 65.46L30.9386 65.92C30.7319 66.2867 30.4386 66.57 30.0586 66.77C29.6853 66.9633 29.2586 67.06 28.7786 67.06ZM34.1698 67.06C33.6365 67.06 33.2232 66.9167 32.9298 66.63C32.6365 66.3433 32.4898 65.9333 32.4898 65.4V60.54H33.4498V65.36C33.4498 65.6467 33.5198 65.8667 33.6598 66.02C33.8065 66.1733 34.0132 66.25 34.2798 66.25C34.5798 66.25 34.8298 66.1667 35.0298 66L35.3298 66.69C35.1832 66.8167 35.0065 66.91 34.7998 66.97C34.5998 67.03 34.3898 67.06 34.1698 67.06ZM31.5898 62.49V61.7H34.9698V62.49H31.5898ZM36.5905 67V61.7H37.5505V67H36.5905ZM37.0705 60.68C36.8838 60.68 36.7271 60.62 36.6005 60.5C36.4805 60.38 36.4205 60.2333 36.4205 60.06C36.4205 59.88 36.4805 59.73 36.6005 59.61C36.7271 59.49 36.8838 59.43 37.0705 59.43C37.2571 59.43 37.4105 59.49 37.5305 59.61C37.6571 59.7233 37.7205 59.8667 37.7205 60.04C37.7205 60.22 37.6605 60.3733 37.5405 60.5C37.4205 60.62 37.2638 60.68 37.0705 60.68ZM40.8734 67L38.5534 61.7H39.5534L41.6134 66.5H41.1334L43.2334 61.7H44.1734L41.8534 67H40.8734ZM47.3829 67.06C46.8162 67.06 46.3162 66.9433 45.8829 66.71C45.4562 66.4767 45.1229 66.1567 44.8829 65.75C44.6496 65.3433 44.5329 64.8767 44.5329 64.35C44.5329 63.8233 44.6462 63.3567 44.8729 62.95C45.1062 62.5433 45.4229 62.2267 45.8229 62C46.2296 61.7667 46.6862 61.65 47.1929 61.65C47.7062 61.65 48.1596 61.7633 48.5529 61.99C48.9462 62.2167 49.2529 62.5367 49.4729 62.95C49.6996 63.3567 49.8129 63.8333 49.8129 64.38C49.8129 64.42 49.8096 64.4667 49.8029 64.52C49.8029 64.5733 49.7996 64.6233 49.7929 64.67H45.2829V63.98H49.2929L48.9029 64.22C48.9096 63.88 48.8396 63.5767 48.6929 63.31C48.5462 63.0433 48.3429 62.8367 48.0829 62.69C47.8296 62.5367 47.5329 62.46 47.1929 62.46C46.8596 62.46 46.5629 62.5367 46.3029 62.69C46.0429 62.8367 45.8396 63.0467 45.6929 63.32C45.5462 63.5867 45.4729 63.8933 45.4729 64.24V64.4C45.4729 64.7533 45.5529 65.07 45.7129 65.35C45.8796 65.6233 46.1096 65.8367 46.4029 65.99C46.6962 66.1433 47.0329 66.22 47.4129 66.22C47.7262 66.22 48.0096 66.1667 48.2629 66.06C48.5229 65.9533 48.7496 65.7933 48.9429 65.58L49.4729 66.2C49.2329 66.48 48.9329 66.6933 48.5729 66.84C48.2196 66.9867 47.8229 67.06 47.3829 67.06ZM54.1715 67V60H55.1715V67H54.1715ZM57.3672 67V60H58.1872L61.3272 65.29H60.8872L63.9872 60H64.8072L64.8172 67H63.8572L63.8472 61.51H64.0772L61.3172 66.15H60.8572L58.0772 61.51H58.3272V67H57.3672ZM67.018 67V60H68.018V66.13H71.808V67H67.018ZM77.971 67.06C77.4377 67.06 76.9643 66.9433 76.551 66.71C76.1377 66.4767 75.811 66.1567 75.571 65.75C75.331 65.3367 75.211 64.87 75.211 64.35C75.211 63.8233 75.331 63.3567 75.571 62.95C75.811 62.5433 76.1377 62.2267 76.551 62C76.9643 61.7667 77.4377 61.65 77.971 61.65C78.4977 61.65 78.9677 61.7667 79.381 62C79.801 62.2267 80.1277 62.5433 80.361 62.95C80.601 63.35 80.721 63.8167 80.721 64.35C80.721 64.8767 80.601 65.3433 80.361 65.75C80.1277 66.1567 79.801 66.4767 79.381 66.71C78.9677 66.9433 78.4977 67.06 77.971 67.06ZM77.971 66.22C78.311 66.22 78.6143 66.1433 78.881 65.99C79.1543 65.8367 79.3677 65.62 79.521 65.34C79.6743 65.0533 79.751 64.7233 79.751 64.35C79.751 63.97 79.6743 63.6433 79.521 63.37C79.3677 63.09 79.1543 62.8733 78.881 62.72C78.6143 62.5667 78.311 62.49 77.971 62.49C77.631 62.49 77.3277 62.5667 77.061 62.72C76.7943 62.8733 76.581 63.09 76.421 63.37C76.261 63.6433 76.181 63.97 76.181 64.35C76.181 64.7233 76.261 65.0533 76.421 65.34C76.581 65.62 76.7943 65.8367 77.061 65.99C77.3277 66.1433 77.631 66.22 77.971 66.22ZM83.3922 67L81.0722 61.7H82.0722L84.1322 66.5H83.6522L85.7522 61.7H86.6922L84.3722 67H83.3922ZM90.8121 67V65.88L90.7621 65.67V63.76C90.7621 63.3533 90.6421 63.04 90.4021 62.82C90.1688 62.5933 89.8154 62.48 89.3421 62.48C89.0288 62.48 88.7221 62.5333 88.4221 62.64C88.1221 62.74 87.8688 62.8767 87.6621 63.05L87.2621 62.33C87.5354 62.11 87.8621 61.9433 88.2421 61.83C88.6288 61.71 89.0321 61.65 89.4521 61.65C90.1788 61.65 90.7388 61.8267 91.1321 62.18C91.5254 62.5333 91.7221 63.0733 91.7221 63.8V67H90.8121ZM89.0721 67.06C88.6788 67.06 88.3321 66.9933 88.0321 66.86C87.7388 66.7267 87.5121 66.5433 87.3521 66.31C87.1921 66.07 87.1121 65.8 87.1121 65.5C87.1121 65.2133 87.1788 64.9533 87.3121 64.72C87.4521 64.4867 87.6754 64.3 87.9821 64.16C88.2954 64.02 88.7154 63.95 89.2421 63.95H90.9221V64.64H89.2821C88.8021 64.64 88.4788 64.72 88.3121 64.88C88.1454 65.04 88.0621 65.2333 88.0621 65.46C88.0621 65.72 88.1654 65.93 88.3721 66.09C88.5788 66.2433 88.8654 66.32 89.2321 66.32C89.5921 66.32 89.9054 66.24 90.1721 66.08C90.4454 65.92 90.6421 65.6867 90.7621 65.38L90.9521 66.04C90.8254 66.3533 90.6021 66.6033 90.2821 66.79C89.9621 66.97 89.5588 67.06 89.0721 67.06ZM93.5987 67V59.58H94.5587V67H93.5987ZM101.097 67.06C100.564 67.06 100.151 66.9167 99.8572 66.63C99.5639 66.3433 99.4172 65.9333 99.4172 65.4V60.54H100.377V65.36C100.377 65.6467 100.447 65.8667 100.587 66.02C100.734 66.1733 100.941 66.25 101.207 66.25C101.507 66.25 101.757 66.1667 101.957 66L102.257 66.69C102.111 66.8167 101.934 66.91 101.727 66.97C101.527 67.03 101.317 67.06 101.097 67.06ZM98.5172 62.49V61.7H101.897V62.49H98.5172ZM105.748 67.06C105.294 67.06 104.894 66.9767 104.548 66.81C104.208 66.6433 103.941 66.39 103.748 66.05C103.561 65.7033 103.468 65.27 103.468 64.75V61.7H104.428V64.64C104.428 65.16 104.551 65.55 104.798 65.81C105.051 66.07 105.404 66.2 105.858 66.2C106.191 66.2 106.481 66.1333 106.728 66C106.974 65.86 107.164 65.66 107.298 65.4C107.431 65.1333 107.498 64.8133 107.498 64.44V61.7H108.458V67H107.548V65.57L107.698 65.95C107.524 66.3033 107.264 66.5767 106.918 66.77C106.571 66.9633 106.181 67.06 105.748 67.06ZM113.195 67.06C112.742 67.06 112.332 66.96 111.965 66.76C111.605 66.5533 111.319 66.25 111.105 65.85C110.899 65.45 110.795 64.95 110.795 64.35C110.795 63.75 110.902 63.25 111.115 62.85C111.335 62.45 111.625 62.15 111.985 61.95C112.352 61.75 112.755 61.65 113.195 61.65C113.715 61.65 114.175 61.7633 114.575 61.99C114.975 62.2167 115.292 62.5333 115.525 62.94C115.759 63.34 115.875 63.81 115.875 64.35C115.875 64.89 115.759 65.3633 115.525 65.77C115.292 66.1767 114.975 66.4933 114.575 66.72C114.175 66.9467 113.715 67.06 113.195 67.06ZM110.385 67V59.58H111.345V63.11L111.245 64.34L111.305 65.57V67H110.385ZM113.115 66.22C113.455 66.22 113.759 66.1433 114.025 65.99C114.299 65.8367 114.512 65.62 114.665 65.34C114.825 65.0533 114.905 64.7233 114.905 64.35C114.905 63.97 114.825 63.6433 114.665 63.37C114.512 63.09 114.299 62.8733 114.025 62.72C113.759 62.5667 113.455 62.49 113.115 62.49C112.782 62.49 112.479 62.5667 112.205 62.72C111.939 62.8733 111.725 63.09 111.565 63.37C111.412 63.6433 111.335 63.97 111.335 64.35C111.335 64.7233 111.412 65.0533 111.565 65.34C111.725 65.62 111.939 65.8367 112.205 65.99C112.479 66.1433 112.782 66.22 113.115 66.22ZM118.822 67.06C118.382 67.06 117.962 67 117.562 66.88C117.168 66.76 116.858 66.6133 116.632 66.44L117.032 65.68C117.258 65.8333 117.538 65.9633 117.872 66.07C118.205 66.1767 118.545 66.23 118.892 66.23C119.338 66.23 119.658 66.1667 119.852 66.04C120.052 65.9133 120.152 65.7367 120.152 65.51C120.152 65.3433 120.092 65.2133 119.972 65.12C119.852 65.0267 119.692 64.9567 119.492 64.91C119.298 64.8633 119.082 64.8233 118.842 64.79C118.602 64.75 118.362 64.7033 118.122 64.65C117.882 64.59 117.662 64.51 117.462 64.41C117.262 64.3033 117.102 64.16 116.982 63.98C116.862 63.7933 116.802 63.5467 116.802 63.24C116.802 62.92 116.892 62.64 117.072 62.4C117.252 62.16 117.505 61.9767 117.832 61.85C118.165 61.7167 118.558 61.65 119.012 61.65C119.358 61.65 119.708 61.6933 120.062 61.78C120.422 61.86 120.715 61.9767 120.942 62.13L120.532 62.89C120.292 62.73 120.042 62.62 119.782 62.56C119.522 62.5 119.262 62.47 119.002 62.47C118.582 62.47 118.268 62.54 118.062 62.68C117.855 62.8133 117.752 62.9867 117.752 63.2C117.752 63.38 117.812 63.52 117.932 63.62C118.058 63.7133 118.218 63.7867 118.412 63.84C118.612 63.8933 118.832 63.94 119.072 63.98C119.312 64.0133 119.552 64.06 119.792 64.12C120.032 64.1733 120.248 64.25 120.442 64.35C120.642 64.45 120.802 64.59 120.922 64.77C121.048 64.95 121.112 65.19 121.112 65.49C121.112 65.81 121.018 66.0867 120.832 66.32C120.645 66.5533 120.382 66.7367 120.042 66.87C119.702 66.9967 119.295 67.06 118.822 67.06ZM127.017 67.06C126.484 67.06 126.07 66.9167 125.777 66.63C125.484 66.3433 125.337 65.9333 125.337 65.4V60.54H126.297V65.36C126.297 65.6467 126.367 65.8667 126.507 66.02C126.654 66.1733 126.86 66.25 127.127 66.25C127.427 66.25 127.677 66.1667 127.877 66L128.177 66.69C128.03 66.8167 127.854 66.91 127.647 66.97C127.447 67.03 127.237 67.06 127.017 67.06ZM124.437 62.49V61.7H127.817V62.49H124.437ZM132.268 61.65C132.701 61.65 133.081 61.7333 133.408 61.9C133.741 62.0667 134.001 62.32 134.188 62.66C134.374 63 134.468 63.43 134.468 63.95V67H133.508V64.06C133.508 63.5467 133.381 63.16 133.128 62.9C132.881 62.64 132.531 62.51 132.078 62.51C131.738 62.51 131.441 62.5767 131.188 62.71C130.934 62.8433 130.738 63.04 130.598 63.3C130.464 63.56 130.398 63.8833 130.398 64.27V67H129.438V59.58H130.398V63.13L130.208 62.75C130.381 62.4033 130.648 62.1333 131.008 61.94C131.368 61.7467 131.788 61.65 132.268 61.65ZM139.634 67V65.88L139.584 65.67V63.76C139.584 63.3533 139.464 63.04 139.224 62.82C138.991 62.5933 138.638 62.48 138.164 62.48C137.851 62.48 137.544 62.5333 137.244 62.64C136.944 62.74 136.691 62.8767 136.484 63.05L136.084 62.33C136.358 62.11 136.684 61.9433 137.064 61.83C137.451 61.71 137.854 61.65 138.274 61.65C139.001 61.65 139.561 61.8267 139.954 62.18C140.348 62.5333 140.544 63.0733 140.544 63.8V67H139.634ZM137.894 67.06C137.501 67.06 137.154 66.9933 136.854 66.86C136.561 66.7267 136.334 66.5433 136.174 66.31C136.014 66.07 135.934 65.8 135.934 65.5C135.934 65.2133 136.001 64.9533 136.134 64.72C136.274 64.4867 136.498 64.3 136.804 64.16C137.118 64.02 137.538 63.95 138.064 63.95H139.744V64.64H138.104C137.624 64.64 137.301 64.72 137.134 64.88C136.968 65.04 136.884 65.2333 136.884 65.46C136.884 65.72 136.988 65.93 137.194 66.09C137.401 66.2433 137.688 66.32 138.054 66.32C138.414 66.32 138.728 66.24 138.994 66.08C139.268 65.92 139.464 65.6867 139.584 65.38L139.774 66.04C139.648 66.3533 139.424 66.6033 139.104 66.79C138.784 66.97 138.381 67.06 137.894 67.06ZM144.241 67.06C143.708 67.06 143.294 66.9167 143.001 66.63C142.708 66.3433 142.561 65.9333 142.561 65.4V60.54H143.521V65.36C143.521 65.6467 143.591 65.8667 143.731 66.02C143.878 66.1733 144.084 66.25 144.351 66.25C144.651 66.25 144.901 66.1667 145.101 66L145.401 66.69C145.254 66.8167 145.078 66.91 144.871 66.97C144.671 67.03 144.461 67.06 144.241 67.06ZM141.661 62.49V61.7H145.041V62.49H141.661ZM0.919766 81V73.58H1.87977V81H0.919766ZM6.08273 81.06C5.5494 81.06 5.07607 80.9433 4.66273 80.71C4.2494 80.4767 3.92273 80.1567 3.68273 79.75C3.44273 79.3367 3.32273 78.87 3.32273 78.35C3.32273 77.8233 3.44273 77.3567 3.68273 76.95C3.92273 76.5433 4.2494 76.2267 4.66273 76C5.07607 75.7667 5.5494 75.65 6.08273 75.65C6.6094 75.65 7.0794 75.7667 7.49273 76C7.91273 76.2267 8.2394 76.5433 8.47273 76.95C8.71273 77.35 8.83273 77.8167 8.83273 78.35C8.83273 78.8767 8.71273 79.3433 8.47273 79.75C8.2394 80.1567 7.91273 80.4767 7.49273 80.71C7.0794 80.9433 6.6094 81.06 6.08273 81.06ZM6.08273 80.22C6.42273 80.22 6.72607 80.1433 6.99273 79.99C7.26607 79.8367 7.4794 79.62 7.63273 79.34C7.78607 79.0533 7.86273 78.7233 7.86273 78.35C7.86273 77.97 7.78607 77.6433 7.63273 77.37C7.4794 77.09 7.26607 76.8733 6.99273 76.72C6.72607 76.5667 6.42273 76.49 6.08273 76.49C5.74273 76.49 5.4394 76.5667 5.17273 76.72C4.90607 76.8733 4.69273 77.09 4.53273 77.37C4.37273 77.6433 4.29273 77.97 4.29273 78.35C4.29273 78.7233 4.37273 79.0533 4.53273 79.34C4.69273 79.62 4.90607 79.8367 5.17273 79.99C5.4394 80.1433 5.74273 80.22 6.08273 80.22ZM12.5704 81.06C12.0304 81.06 11.5471 80.9433 11.1204 80.71C10.7004 80.4767 10.3704 80.1567 10.1304 79.75C9.89039 79.3433 9.77039 78.8767 9.77039 78.35C9.77039 77.8233 9.89039 77.3567 10.1304 76.95C10.3704 76.5433 10.7004 76.2267 11.1204 76C11.5471 75.7667 12.0304 75.65 12.5704 75.65C13.0504 75.65 13.4771 75.7467 13.8504 75.94C14.2304 76.1267 14.5237 76.4067 14.7304 76.78L14.0004 77.25C13.8271 76.99 13.6137 76.8 13.3604 76.68C13.1137 76.5533 12.8471 76.49 12.5604 76.49C12.2137 76.49 11.9037 76.5667 11.6304 76.72C11.3571 76.8733 11.1404 77.09 10.9804 77.37C10.8204 77.6433 10.7404 77.97 10.7404 78.35C10.7404 78.73 10.8204 79.06 10.9804 79.34C11.1404 79.62 11.3571 79.8367 11.6304 79.99C11.9037 80.1433 12.2137 80.22 12.5604 80.22C12.8471 80.22 13.1137 80.16 13.3604 80.04C13.6137 79.9133 13.8271 79.72 14.0004 79.46L14.7304 79.92C14.5237 80.2867 14.2304 80.57 13.8504 80.77C13.4771 80.9633 13.0504 81.06 12.5704 81.06ZM16.7849 79.72L16.8049 78.49L19.8549 75.7H21.0149L18.6749 78L18.1549 78.44L16.7849 79.72ZM16.0049 81V73.58H16.9649V81H16.0049ZM20.0549 81L17.9749 78.42L18.5949 77.65L21.2349 81H20.0549ZM25.0526 81V75.7H26.0126V81H25.0526ZM25.5326 74.68C25.3459 74.68 25.1892 74.62 25.0626 74.5C24.9426 74.38 24.8826 74.2333 24.8826 74.06C24.8826 73.88 24.9426 73.73 25.0626 73.61C25.1892 73.49 25.3459 73.43 25.5326 73.43C25.7192 73.43 25.8726 73.49 25.9926 73.61C26.1192 73.7233 26.1826 73.8667 26.1826 74.04C26.1826 74.22 26.1226 74.3733 26.0026 74.5C25.8826 74.62 25.7259 74.68 25.5326 74.68ZM30.7755 75.65C31.2089 75.65 31.5889 75.7333 31.9155 75.9C32.2489 76.0667 32.5089 76.32 32.6955 76.66C32.8822 77 32.9755 77.43 32.9755 77.95V81H32.0155V78.06C32.0155 77.5467 31.8889 77.16 31.6355 76.9C31.3889 76.64 31.0389 76.51 30.5855 76.51C30.2455 76.51 29.9489 76.5767 29.6955 76.71C29.4422 76.8433 29.2455 77.04 29.1055 77.3C28.9722 77.56 28.9055 77.8833 28.9055 78.27V81H27.9455V75.7H28.8655V77.13L28.7155 76.75C28.8889 76.4033 29.1555 76.1333 29.5155 75.94C29.8755 75.7467 30.2955 75.65 30.7755 75.65ZM37.7777 81V75.23C37.7777 74.71 37.9277 74.2967 38.2277 73.99C38.5344 73.6767 38.9677 73.52 39.5277 73.52C39.7344 73.52 39.9311 73.5467 40.1177 73.6C40.3111 73.6467 40.4744 73.7233 40.6077 73.83L40.3177 74.56C40.2177 74.48 40.1044 74.42 39.9777 74.38C39.8511 74.3333 39.7177 74.31 39.5777 74.31C39.2977 74.31 39.0844 74.39 38.9377 74.55C38.7911 74.7033 38.7177 74.9333 38.7177 75.24V75.95L38.7377 76.39V81H37.7777ZM36.8777 76.49V75.7H40.2577V76.49H36.8777ZM41.2631 81V75.7H42.1831V77.14L42.0931 76.78C42.2398 76.4133 42.4865 76.1333 42.8331 75.94C43.1798 75.7467 43.6065 75.65 44.1131 75.65V76.58C44.0731 76.5733 44.0331 76.57 43.9931 76.57C43.9598 76.57 43.9265 76.57 43.8931 76.57C43.3798 76.57 42.9731 76.7233 42.6731 77.03C42.3731 77.3367 42.2231 77.78 42.2231 78.36V81H41.2631ZM47.7075 81.06C47.1408 81.06 46.6408 80.9433 46.2075 80.71C45.7808 80.4767 45.4475 80.1567 45.2075 79.75C44.9742 79.3433 44.8575 78.8767 44.8575 78.35C44.8575 77.8233 44.9708 77.3567 45.1975 76.95C45.4308 76.5433 45.7475 76.2267 46.1475 76C46.5542 75.7667 47.0108 75.65 47.5175 75.65C48.0308 75.65 48.4842 75.7633 48.8775 75.99C49.2708 76.2167 49.5775 76.5367 49.7975 76.95C50.0242 77.3567 50.1375 77.8333 50.1375 78.38C50.1375 78.42 50.1342 78.4667 50.1275 78.52C50.1275 78.5733 50.1242 78.6233 50.1175 78.67H45.6075V77.98H49.6175L49.2275 78.22C49.2342 77.88 49.1642 77.5767 49.0175 77.31C48.8708 77.0433 48.6675 76.8367 48.4075 76.69C48.1542 76.5367 47.8575 76.46 47.5175 76.46C47.1842 76.46 46.8875 76.5367 46.6275 76.69C46.3675 76.8367 46.1642 77.0467 46.0175 77.32C45.8708 77.5867 45.7975 77.8933 45.7975 78.24V78.4C45.7975 78.7533 45.8775 79.07 46.0375 79.35C46.2042 79.6233 46.4342 79.8367 46.7275 79.99C47.0208 80.1433 47.3575 80.22 47.7375 80.22C48.0508 80.22 48.3342 80.1667 48.5875 80.06C48.8475 79.9533 49.0742 79.7933 49.2675 79.58L49.7975 80.2C49.5575 80.48 49.2575 80.6933 48.8975 80.84C48.5442 80.9867 48.1475 81.06 47.7075 81.06ZM53.0905 81.06C52.6505 81.06 52.2305 81 51.8305 80.88C51.4372 80.76 51.1272 80.6133 50.9005 80.44L51.3005 79.68C51.5272 79.8333 51.8072 79.9633 52.1405 80.07C52.4739 80.1767 52.8139 80.23 53.1605 80.23C53.6072 80.23 53.9272 80.1667 54.1205 80.04C54.3205 79.9133 54.4205 79.7367 54.4205 79.51C54.4205 79.3433 54.3605 79.2133 54.2405 79.12C54.1205 79.0267 53.9605 78.9567 53.7605 78.91C53.5672 78.8633 53.3505 78.8233 53.1105 78.79C52.8705 78.75 52.6305 78.7033 52.3905 78.65C52.1505 78.59 51.9305 78.51 51.7305 78.41C51.5305 78.3033 51.3705 78.16 51.2505 77.98C51.1305 77.7933 51.0705 77.5467 51.0705 77.24C51.0705 76.92 51.1605 76.64 51.3405 76.4C51.5205 76.16 51.7739 75.9767 52.1005 75.85C52.4339 75.7167 52.8272 75.65 53.2805 75.65C53.6272 75.65 53.9772 75.6933 54.3305 75.78C54.6905 75.86 54.9839 75.9767 55.2105 76.13L54.8005 76.89C54.5605 76.73 54.3105 76.62 54.0505 76.56C53.7905 76.5 53.5305 76.47 53.2705 76.47C52.8505 76.47 52.5372 76.54 52.3305 76.68C52.1239 76.8133 52.0205 76.9867 52.0205 77.2C52.0205 77.38 52.0805 77.52 52.2005 77.62C52.3272 77.7133 52.4872 77.7867 52.6805 77.84C52.8805 77.8933 53.1005 77.94 53.3405 77.98C53.5805 78.0133 53.8205 78.06 54.0605 78.12C54.3005 78.1733 54.5172 78.25 54.7105 78.35C54.9105 78.45 55.0705 78.59 55.1905 78.77C55.3172 78.95 55.3805 79.19 55.3805 79.49C55.3805 79.81 55.2872 80.0867 55.1005 80.32C54.9139 80.5533 54.6505 80.7367 54.3105 80.87C53.9705 80.9967 53.5639 81.06 53.0905 81.06ZM59.5103 75.65C59.9436 75.65 60.3236 75.7333 60.6503 75.9C60.9836 76.0667 61.2436 76.32 61.4303 76.66C61.617 77 61.7103 77.43 61.7103 77.95V81H60.7503V78.06C60.7503 77.5467 60.6236 77.16 60.3703 76.9C60.1236 76.64 59.7736 76.51 59.3203 76.51C58.9803 76.51 58.6836 76.5767 58.4303 76.71C58.177 76.8433 57.9803 77.04 57.8403 77.3C57.707 77.56 57.6403 77.8833 57.6403 78.27V81H56.6803V73.58H57.6403V77.13L57.4503 76.75C57.6236 76.4033 57.8903 76.1333 58.2503 75.94C58.6103 75.7467 59.0303 75.65 59.5103 75.65ZM66.417 75.65C66.8503 75.65 67.2303 75.7333 67.557 75.9C67.8903 76.0667 68.1503 76.32 68.337 76.66C68.5236 77 68.617 77.43 68.617 77.95V81H67.657V78.06C67.657 77.5467 67.5303 77.16 67.277 76.9C67.0303 76.64 66.6803 76.51 66.227 76.51C65.887 76.51 65.5903 76.5767 65.337 76.71C65.0836 76.8433 64.887 77.04 64.747 77.3C64.6136 77.56 64.547 77.8833 64.547 78.27V81H63.587V75.7H64.507V77.13L64.357 76.75C64.5303 76.4033 64.797 76.1333 65.157 75.94C65.517 75.7467 65.937 75.65 66.417 75.65ZM72.8536 81.06C72.2869 81.06 71.7869 80.9433 71.3536 80.71C70.9269 80.4767 70.5936 80.1567 70.3536 79.75C70.1203 79.3433 70.0036 78.8767 70.0036 78.35C70.0036 77.8233 70.1169 77.3567 70.3436 76.95C70.5769 76.5433 70.8936 76.2267 71.2936 76C71.7003 75.7667 72.1569 75.65 72.6636 75.65C73.1769 75.65 73.6303 75.7633 74.0236 75.99C74.4169 76.2167 74.7236 76.5367 74.9436 76.95C75.1703 77.3567 75.2836 77.8333 75.2836 78.38C75.2836 78.42 75.2803 78.4667 75.2736 78.52C75.2736 78.5733 75.2703 78.6233 75.2636 78.67H70.7536V77.98H74.7636L74.3736 78.22C74.3803 77.88 74.3103 77.5767 74.1636 77.31C74.0169 77.0433 73.8136 76.8367 73.5536 76.69C73.3003 76.5367 73.0036 76.46 72.6636 76.46C72.3303 76.46 72.0336 76.5367 71.7736 76.69C71.5136 76.8367 71.3103 77.0467 71.1636 77.32C71.0169 77.5867 70.9436 77.8933 70.9436 78.24V78.4C70.9436 78.7533 71.0236 79.07 71.1836 79.35C71.3503 79.6233 71.5803 79.8367 71.8736 79.99C72.1669 80.1433 72.5036 80.22 72.8836 80.22C73.1969 80.22 73.4803 80.1667 73.7336 80.06C73.9936 79.9533 74.2203 79.7933 74.4136 79.58L74.9436 80.2C74.7036 80.48 74.4036 80.6933 74.0436 80.84C73.6903 80.9867 73.2936 81.06 72.8536 81.06ZM78.2366 81.06C77.7966 81.06 77.3766 81 76.9766 80.88C76.5833 80.76 76.2733 80.6133 76.0466 80.44L76.4466 79.68C76.6733 79.8333 76.9533 79.9633 77.2866 80.07C77.62 80.1767 77.96 80.23 78.3066 80.23C78.7533 80.23 79.0733 80.1667 79.2666 80.04C79.4666 79.9133 79.5666 79.7367 79.5666 79.51C79.5666 79.3433 79.5066 79.2133 79.3866 79.12C79.2666 79.0267 79.1066 78.9567 78.9066 78.91C78.7133 78.8633 78.4966 78.8233 78.2566 78.79C78.0166 78.75 77.7766 78.7033 77.5366 78.65C77.2966 78.59 77.0766 78.51 76.8766 78.41C76.6766 78.3033 76.5166 78.16 76.3966 77.98C76.2766 77.7933 76.2166 77.5467 76.2166 77.24C76.2166 76.92 76.3066 76.64 76.4866 76.4C76.6666 76.16 76.92 75.9767 77.2466 75.85C77.58 75.7167 77.9733 75.65 78.4266 75.65C78.7733 75.65 79.1233 75.6933 79.4766 75.78C79.8366 75.86 80.13 75.9767 80.3566 76.13L79.9466 76.89C79.7066 76.73 79.4566 76.62 79.1966 76.56C78.9366 76.5 78.6766 76.47 78.4166 76.47C77.9966 76.47 77.6833 76.54 77.4766 76.68C77.27 76.8133 77.1666 76.9867 77.1666 77.2C77.1666 77.38 77.2266 77.52 77.3466 77.62C77.4733 77.7133 77.6333 77.7867 77.8266 77.84C78.0266 77.8933 78.2466 77.94 78.4866 77.98C78.7266 78.0133 78.9666 78.06 79.2066 78.12C79.4466 78.1733 79.6633 78.25 79.8566 78.35C80.0566 78.45 80.2166 78.59 80.3366 78.77C80.4633 78.95 80.5266 79.19 80.5266 79.49C80.5266 79.81 80.4333 80.0867 80.2466 80.32C80.06 80.5533 79.7966 80.7367 79.4566 80.87C79.1166 80.9967 78.71 81.06 78.2366 81.06ZM83.3464 81.06C82.9064 81.06 82.4864 81 82.0864 80.88C81.6931 80.76 81.3831 80.6133 81.1564 80.44L81.5564 79.68C81.7831 79.8333 82.0631 79.9633 82.3964 80.07C82.7297 80.1767 83.0697 80.23 83.4164 80.23C83.8631 80.23 84.1831 80.1667 84.3764 80.04C84.5764 79.9133 84.6764 79.7367 84.6764 79.51C84.6764 79.3433 84.6164 79.2133 84.4964 79.12C84.3764 79.0267 84.2164 78.9567 84.0164 78.91C83.8231 78.8633 83.6064 78.8233 83.3664 78.79C83.1264 78.75 82.8864 78.7033 82.6464 78.65C82.4064 78.59 82.1864 78.51 81.9864 78.41C81.7864 78.3033 81.6264 78.16 81.5064 77.98C81.3864 77.7933 81.3264 77.5467 81.3264 77.24C81.3264 76.92 81.4164 76.64 81.5964 76.4C81.7764 76.16 82.0297 75.9767 82.3564 75.85C82.6897 75.7167 83.0831 75.65 83.5364 75.65C83.8831 75.65 84.2331 75.6933 84.5864 75.78C84.9464 75.86 85.2397 75.9767 85.4664 76.13L85.0564 76.89C84.8164 76.73 84.5664 76.62 84.3064 76.56C84.0464 76.5 83.7864 76.47 83.5264 76.47C83.1064 76.47 82.7931 76.54 82.5864 76.68C82.3797 76.8133 82.2764 76.9867 82.2764 77.2C82.2764 77.38 82.3364 77.52 82.4564 77.62C82.5831 77.7133 82.7431 77.7867 82.9364 77.84C83.1364 77.8933 83.3564 77.94 83.5964 77.98C83.8364 78.0133 84.0764 78.06 84.3164 78.12C84.5564 78.1733 84.7731 78.25 84.9664 78.35C85.1664 78.45 85.3264 78.59 85.4464 78.77C85.5731 78.95 85.6364 79.19 85.6364 79.49C85.6364 79.81 85.5431 80.0867 85.3564 80.32C85.1697 80.5533 84.9064 80.7367 84.5664 80.87C84.2264 80.9967 83.8197 81.06 83.3464 81.06ZM87.1662 81.06C86.9795 81.06 86.8195 80.9967 86.6862 80.87C86.5528 80.7367 86.4862 80.57 86.4862 80.37C86.4862 80.17 86.5528 80.0067 86.6862 79.88C86.8195 79.7533 86.9795 79.69 87.1662 79.69C87.3462 79.69 87.4995 79.7533 87.6262 79.88C87.7595 80.0067 87.8262 80.17 87.8262 80.37C87.8262 80.57 87.7595 80.7367 87.6262 80.87C87.4995 80.9967 87.3462 81.06 87.1662 81.06Z" fill="black"/>
</svg>
