<svg width="76" height="33" viewBox="0 0 76 33" fill="none" xmlns="http://www.w3.org/2000/svg">
<path d="M0.924 12V3.54H4.62C5.508 3.54 6.196 3.736 6.684 4.128C7.172 4.512 7.416 5.048 7.416 5.736C7.416 6.248 7.268 6.68 6.972 7.032C6.676 7.384 6.272 7.62 5.76 7.74V7.56C6.152 7.616 6.488 7.736 6.768 7.92C7.048 8.104 7.26 8.34 7.404 8.628C7.556 8.916 7.632 9.252 7.632 9.636C7.632 10.132 7.516 10.56 7.284 10.92C7.06 11.272 6.732 11.54 6.3 11.724C5.868 11.908 5.352 12 4.752 12H0.924ZM2.4 10.836H4.56C4.776 10.836 4.968 10.82 5.136 10.788C5.312 10.756 5.46 10.708 5.58 10.644C5.708 10.572 5.812 10.484 5.892 10.38C5.98 10.276 6.044 10.156 6.084 10.02C6.124 9.884 6.144 9.732 6.144 9.564C6.144 9.388 6.124 9.232 6.084 9.096C6.044 8.96 5.98 8.844 5.892 8.748C5.812 8.644 5.708 8.56 5.58 8.496C5.46 8.424 5.312 8.372 5.136 8.34C4.968 8.308 4.776 8.292 4.56 8.292H2.4V10.836ZM2.4 7.128H4.356C4.884 7.128 5.276 7.028 5.532 6.828C5.796 6.62 5.928 6.316 5.928 5.916C5.928 5.516 5.796 5.216 5.532 5.016C5.276 4.808 4.884 4.704 4.356 4.704H2.4V7.128ZM11.7177 12.12C11.1097 12.12 10.5817 11.996 10.1337 11.748C9.68572 11.5 9.33772 11.148 9.08972 10.692C8.84172 10.228 8.71772 9.684 8.71772 9.06C8.71772 8.436 8.84172 7.896 9.08972 7.44C9.33772 6.984 9.68572 6.632 10.1337 6.384C10.5817 6.136 11.1097 6.012 11.7177 6.012C12.3257 6.012 12.8537 6.136 13.3017 6.384C13.7497 6.632 14.0977 6.984 14.3457 7.44C14.5937 7.896 14.7177 8.436 14.7177 9.06C14.7177 9.684 14.5937 10.228 14.3457 10.692C14.0977 11.148 13.7497 11.5 13.3017 11.748C12.8537 11.996 12.3257 12.12 11.7177 12.12ZM11.7177 10.98C12.1657 10.98 12.5257 10.82 12.7977 10.5C13.0697 10.172 13.2057 9.692 13.2057 9.06C13.2057 8.42 13.0697 7.944 12.7977 7.632C12.5257 7.312 12.1657 7.152 11.7177 7.152C11.2697 7.152 10.9097 7.312 10.6377 7.632C10.3657 7.944 10.2297 8.42 10.2297 9.06C10.2297 9.692 10.3657 10.172 10.6377 10.5C10.9097 10.82 11.2697 10.98 11.7177 10.98ZM18.5852 12.12C17.8012 12.12 17.2172 11.924 16.8332 11.532C16.4492 11.14 16.2572 10.568 16.2572 9.816V7.26H15.1292V6.132H16.2572V4.38H17.7572V6.132H19.5332V7.26H17.7572V9.732C17.7572 10.116 17.8412 10.404 18.0092 10.596C18.1772 10.788 18.4492 10.884 18.8252 10.884C18.9372 10.884 19.0532 10.872 19.1732 10.848C19.2932 10.816 19.4172 10.784 19.5452 10.752L19.7732 11.856C19.6292 11.936 19.4452 12 19.2212 12.048C19.0052 12.096 18.7932 12.12 18.5852 12.12ZM22.8508 12.12C22.0668 12.12 21.4828 11.924 21.0988 11.532C20.7148 11.14 20.5228 10.568 20.5228 9.816V7.26H19.3948V6.132H20.5228V4.38H22.0228V6.132H23.7988V7.26H22.0228V9.732C22.0228 10.116 22.1068 10.404 22.2748 10.596C22.4428 10.788 22.7148 10.884 23.0908 10.884C23.2028 10.884 23.3188 10.872 23.4388 10.848C23.5588 10.816 23.6828 10.784 23.8108 10.752L24.0388 11.856C23.8948 11.936 23.7108 12 23.4868 12.048C23.2708 12.096 23.0588 12.12 22.8508 12.12ZM27.3857 12.12C26.7777 12.12 26.2497 11.996 25.8017 11.748C25.3537 11.5 25.0057 11.148 24.7577 10.692C24.5097 10.228 24.3857 9.684 24.3857 9.06C24.3857 8.436 24.5097 7.896 24.7577 7.44C25.0057 6.984 25.3537 6.632 25.8017 6.384C26.2497 6.136 26.7777 6.012 27.3857 6.012C27.9937 6.012 28.5217 6.136 28.9697 6.384C29.4177 6.632 29.7657 6.984 30.0137 7.44C30.2617 7.896 30.3857 8.436 30.3857 9.06C30.3857 9.684 30.2617 10.228 30.0137 10.692C29.7657 11.148 29.4177 11.5 28.9697 11.748C28.5217 11.996 27.9937 12.12 27.3857 12.12ZM27.3857 10.98C27.8337 10.98 28.1937 10.82 28.4657 10.5C28.7377 10.172 28.8737 9.692 28.8737 9.06C28.8737 8.42 28.7377 7.944 28.4657 7.632C28.1937 7.312 27.8337 7.152 27.3857 7.152C26.9377 7.152 26.5777 7.312 26.3057 7.632C26.0337 7.944 25.8977 8.42 25.8977 9.06C25.8977 9.692 26.0337 10.172 26.3057 10.5C26.5777 10.82 26.9377 10.98 27.3857 10.98ZM31.6478 12V6.132H33.1118V7.308H32.9798C33.0838 7.036 33.2278 6.804 33.4118 6.612C33.5958 6.42 33.8158 6.272 34.0718 6.168C34.3278 6.064 34.6118 6.012 34.9238 6.012C35.3958 6.012 35.7838 6.124 36.0878 6.348C36.3918 6.572 36.6038 6.916 36.7238 7.38H36.5558C36.7158 6.956 36.9798 6.624 37.3478 6.384C37.7158 6.136 38.1398 6.012 38.6198 6.012C39.0678 6.012 39.4358 6.1 39.7238 6.276C40.0198 6.452 40.2398 6.72 40.3838 7.08C40.5278 7.432 40.5998 7.88 40.5998 8.424V12H39.0998V8.484C39.0998 8.036 39.0238 7.708 38.8718 7.5C38.7278 7.292 38.4798 7.188 38.1278 7.188C37.8718 7.188 37.6478 7.252 37.4557 7.38C37.2638 7.5 37.1158 7.676 37.0117 7.908C36.9158 8.14 36.8678 8.42 36.8678 8.748V12H35.3678V8.484C35.3678 8.036 35.2918 7.708 35.1398 7.5C34.9958 7.292 34.7518 7.188 34.4078 7.188C34.1438 7.188 33.9158 7.252 33.7238 7.38C33.5398 7.5 33.3958 7.676 33.2918 7.908C33.1958 8.14 33.1478 8.42 33.1478 8.748V12H31.6478Z" fill="#BB5F6A"/>
<path d="M1.08 28.7598V28.0298H2.85V22.4198L3.3 22.4498L1.43 23.6498L1.05 22.9998L3.08 21.7098H3.7V28.0298H5.34V28.7598H1.08ZM6.85609 28.7598V28.1198L9.29609 25.5198C9.52943 25.2664 9.71609 25.0364 9.85609 24.8298C9.99609 24.6164 10.0961 24.4098 10.1561 24.2098C10.2161 24.0098 10.2461 23.8064 10.2461 23.5998C10.2461 23.2064 10.1228 22.9031 9.87609 22.6898C9.63609 22.4764 9.28609 22.3698 8.82609 22.3698C8.48609 22.3698 8.15609 22.4364 7.83609 22.5698C7.51609 22.6964 7.21609 22.8998 6.93609 23.1798L6.60609 22.5098C6.88609 22.2364 7.22609 22.0198 7.62609 21.8598C8.03276 21.6998 8.45609 21.6198 8.89609 21.6198C9.36276 21.6198 9.75943 21.6964 10.0861 21.8498C10.4194 22.0031 10.6728 22.2231 10.8461 22.5098C11.0194 22.7964 11.1061 23.1398 11.1061 23.5398C11.1061 23.7531 11.0794 23.9598 11.0261 24.1598C10.9794 24.3598 10.9061 24.5598 10.8061 24.7598C10.7061 24.9598 10.5761 25.1664 10.4161 25.3798C10.2628 25.5864 10.0794 25.7998 9.86609 26.0198L7.82609 28.1598V28.0198H11.3961V28.7598H6.85609ZM15.2322 28.8498C14.6722 28.8498 14.1955 28.7131 13.8022 28.4398C13.4155 28.1664 13.1189 27.7731 12.9122 27.2598C12.7055 26.7464 12.6022 26.1264 12.6022 25.3998C12.6022 24.5864 12.7155 23.8998 12.9422 23.3398C13.1689 22.7798 13.4955 22.3531 13.9222 22.0598C14.3489 21.7664 14.8622 21.6198 15.4622 21.6198C15.7155 21.6198 15.9622 21.6531 16.2022 21.7198C16.4489 21.7864 16.6789 21.8831 16.8922 22.0098C17.1122 22.1364 17.3055 22.2898 17.4722 22.4698L17.1522 23.1298C16.8989 22.8631 16.6289 22.6698 16.3422 22.5498C16.0555 22.4298 15.7589 22.3698 15.4522 22.3698C15.1255 22.3698 14.8355 22.4331 14.5822 22.5598C14.3289 22.6798 14.1155 22.8631 13.9422 23.1098C13.7689 23.3498 13.6389 23.6498 13.5522 24.0098C13.4655 24.3698 13.4222 24.7864 13.4222 25.2598V26.0198H13.3722C13.4255 25.6731 13.5422 25.3731 13.7222 25.1198C13.9022 24.8664 14.1322 24.6731 14.4122 24.5398C14.6922 24.3998 14.9989 24.3298 15.3322 24.3298C15.7522 24.3298 16.1222 24.4264 16.4422 24.6198C16.7689 24.8064 17.0222 25.0664 17.2022 25.3998C17.3889 25.7331 17.4822 26.1198 17.4822 26.5598C17.4822 26.9998 17.3855 27.3931 17.1922 27.7398C17.0055 28.0864 16.7422 28.3598 16.4022 28.5598C16.0622 28.7531 15.6722 28.8498 15.2322 28.8498ZM15.1822 28.1198C15.4755 28.1198 15.7322 28.0564 15.9522 27.9298C16.1789 27.8031 16.3555 27.6231 16.4822 27.3898C16.6089 27.1564 16.6722 26.8864 16.6722 26.5798C16.6722 26.2798 16.6089 26.0164 16.4822 25.7898C16.3555 25.5564 16.1789 25.3764 15.9522 25.2498C15.7322 25.1164 15.4755 25.0498 15.1822 25.0498C14.8822 25.0498 14.6189 25.1164 14.3922 25.2498C14.1722 25.3764 13.9989 25.5564 13.8722 25.7898C13.7455 26.0164 13.6822 26.2798 13.6822 26.5798C13.6822 26.8864 13.7455 27.1564 13.8722 27.3898C13.9989 27.6231 14.1722 27.8031 14.3922 27.9298C14.6189 28.0564 14.8822 28.1198 15.1822 28.1198ZM21.5041 28.7598V23.8598H22.3141V24.9398H22.2541C22.3407 24.7064 22.4607 24.5031 22.6141 24.3298C22.7741 24.1498 22.9641 24.0131 23.1841 23.9198C23.4041 23.8198 23.6474 23.7698 23.9141 23.7698C24.3341 23.7698 24.6774 23.8731 24.9441 24.0798C25.2107 24.2864 25.3841 24.5764 25.4641 24.9498H25.3841C25.5107 24.6031 25.7241 24.3198 26.0241 24.0998C26.3241 23.8798 26.6874 23.7698 27.1141 23.7698C27.4874 23.7698 27.7974 23.8431 28.0441 23.9898C28.2907 24.1298 28.4774 24.3431 28.6041 24.6298C28.7307 24.9164 28.7941 25.2798 28.7941 25.7198V28.7598H27.9541V25.7698C27.9541 25.3364 27.8741 25.0131 27.7141 24.7998C27.5607 24.5864 27.2941 24.4798 26.9141 24.4798C26.6407 24.4798 26.4007 24.5464 26.1941 24.6798C25.9941 24.8064 25.8407 24.9831 25.7341 25.2098C25.6274 25.4364 25.5741 25.7031 25.5741 26.0098V28.7598H24.7241V25.7698C24.7241 25.3364 24.6407 25.0131 24.4741 24.7998C24.3141 24.5864 24.0541 24.4798 23.6941 24.4798C23.4207 24.4798 23.1807 24.5464 22.9741 24.6798C22.7741 24.8131 22.6207 24.9964 22.5141 25.2298C22.4074 25.4564 22.3541 25.7098 22.3541 25.9898V28.7598H21.5041ZM30.4494 28.7598V23.8598H31.2594V24.9398H31.1994C31.286 24.7064 31.406 24.5031 31.5594 24.3298C31.7194 24.1498 31.9094 24.0131 32.1294 23.9198C32.3494 23.8198 32.5927 23.7698 32.8594 23.7698C33.2794 23.7698 33.6227 23.8731 33.8894 24.0798C34.156 24.2864 34.3294 24.5764 34.4094 24.9498H34.3294C34.456 24.6031 34.6694 24.3198 34.9694 24.0998C35.2694 23.8798 35.6327 23.7698 36.0594 23.7698C36.4327 23.7698 36.7427 23.8431 36.9894 23.9898C37.236 24.1298 37.4227 24.3431 37.5494 24.6298C37.676 24.9164 37.7394 25.2798 37.7394 25.7198V28.7598H36.8994V25.7698C36.8994 25.3364 36.8194 25.0131 36.6594 24.7998C36.506 24.5864 36.2394 24.4798 35.8594 24.4798C35.586 24.4798 35.346 24.5464 35.1394 24.6798C34.9394 24.8064 34.786 24.9831 34.6794 25.2098C34.5727 25.4364 34.5194 25.7031 34.5194 26.0098V28.7598H33.6694V25.7698C33.6694 25.3364 33.586 25.0131 33.4194 24.7998C33.2594 24.5864 32.9994 24.4798 32.6394 24.4798C32.366 24.4798 32.126 24.5464 31.9194 24.6798C31.7194 24.8131 31.566 24.9964 31.4594 25.2298C31.3527 25.4564 31.2994 25.7098 31.2994 25.9898V28.7598H30.4494Z" fill="black"/>
</svg>
