<svg width="76" height="33" viewBox="0 0 76 33" fill="none" xmlns="http://www.w3.org/2000/svg">
<path d="M2.964 12V4.824H0.06V3.54H7.404V4.824H4.5V12H2.964ZM9.97163 12.12C9.36363 12.12 8.83563 11.996 8.38763 11.748C7.93963 11.5 7.59163 11.148 7.34363 10.692C7.09563 10.228 6.97163 9.684 6.97163 9.06C6.97163 8.436 7.09563 7.896 7.34363 7.44C7.59163 6.984 7.93963 6.632 8.38763 6.384C8.83563 6.136 9.36363 6.012 9.97163 6.012C10.5796 6.012 11.1076 6.136 11.5556 6.384C12.0036 6.632 12.3516 6.984 12.5996 7.44C12.8476 7.896 12.9716 8.436 12.9716 9.06C12.9716 9.684 12.8476 10.228 12.5996 10.692C12.3516 11.148 12.0036 11.5 11.5556 11.748C11.1076 11.996 10.5796 12.12 9.97163 12.12ZM9.97163 10.98C10.4196 10.98 10.7796 10.82 11.0516 10.5C11.3236 10.172 11.4596 9.692 11.4596 9.06C11.4596 8.42 11.3236 7.944 11.0516 7.632C10.7796 7.312 10.4196 7.152 9.97163 7.152C9.52363 7.152 9.16363 7.312 8.89163 7.632C8.61963 7.944 8.48363 8.42 8.48363 9.06C8.48363 9.692 8.61963 10.172 8.89163 10.5C9.16363 10.82 9.52363 10.98 9.97163 10.98ZM14.2097 14.16V6.132H15.6737V7.368H15.5537C15.6737 6.96 15.9177 6.632 16.2857 6.384C16.6617 6.136 17.0977 6.012 17.5937 6.012C18.1057 6.012 18.5537 6.136 18.9377 6.384C19.3297 6.632 19.6337 6.984 19.8497 7.44C20.0657 7.888 20.1737 8.428 20.1737 9.06C20.1737 9.684 20.0657 10.228 19.8497 10.692C19.6337 11.148 19.3337 11.5 18.9497 11.748C18.5657 11.996 18.1137 12.12 17.5937 12.12C17.1057 12.12 16.6777 12 16.3097 11.76C15.9417 11.512 15.6937 11.192 15.5657 10.8H15.7097V14.16H14.2097ZM17.1737 10.98C17.6217 10.98 17.9817 10.82 18.2537 10.5C18.5257 10.172 18.6617 9.692 18.6617 9.06C18.6617 8.42 18.5257 7.944 18.2537 7.632C17.9817 7.312 17.6217 7.152 17.1737 7.152C16.7257 7.152 16.3657 7.312 16.0937 7.632C15.8217 7.944 15.6857 8.42 15.6857 9.06C15.6857 9.692 15.8217 10.172 16.0937 10.5C16.3657 10.82 16.7257 10.98 17.1737 10.98Z" fill="#BB5F6A"/>
<path d="M1.08 30.5137V29.7837H2.85V24.1737L3.3 24.2037L1.43 25.4037L1.05 24.7537L3.08 23.4637H3.7V29.7837H5.34V30.5137H1.08ZM9.78609 30.5137V29.0237H6.51609V28.3837L9.83609 23.4637H10.6261V28.3037H11.6361V29.0237H10.6261V30.5137H9.78609ZM9.79609 28.3037V24.5137H9.94609L7.25609 28.4937L7.21609 28.3037H9.79609ZM15.1122 30.6037C14.8055 30.6037 14.5089 30.5703 14.2222 30.5037C13.9355 30.437 13.6689 30.3403 13.4222 30.2137C13.1755 30.087 12.9555 29.9337 12.7622 29.7537L13.0922 29.0737C13.4055 29.3403 13.7255 29.537 14.0522 29.6637C14.3789 29.7903 14.7289 29.8537 15.1022 29.8537C15.5955 29.8537 15.9789 29.7203 16.2522 29.4537C16.5322 29.187 16.6722 28.827 16.6722 28.3737C16.6722 27.9137 16.5389 27.5403 16.2722 27.2537C16.0122 26.967 15.6522 26.8237 15.1922 26.8237C14.8655 26.8237 14.5755 26.8903 14.3222 27.0237C14.0689 27.1503 13.8389 27.3603 13.6322 27.6537H12.9822V23.4637H17.1322V24.2037H13.7922V26.9237H13.6522C13.8255 26.6703 14.0555 26.4703 14.3422 26.3237C14.6355 26.1703 14.9655 26.0937 15.3322 26.0937C15.7789 26.0937 16.1655 26.187 16.4922 26.3737C16.8189 26.5603 17.0689 26.8203 17.2422 27.1537C17.4222 27.487 17.5122 27.877 17.5122 28.3237C17.5122 28.7837 17.4122 29.1837 17.2122 29.5237C17.0189 29.8637 16.7422 30.1303 16.3822 30.3237C16.0289 30.5103 15.6055 30.6037 15.1122 30.6037ZM21.5041 30.5137V25.6137H22.3141V26.6937H22.2541C22.3407 26.4603 22.4607 26.257 22.6141 26.0837C22.7741 25.9037 22.9641 25.767 23.1841 25.6737C23.4041 25.5737 23.6474 25.5237 23.9141 25.5237C24.3341 25.5237 24.6774 25.627 24.9441 25.8337C25.2107 26.0403 25.3841 26.3303 25.4641 26.7037H25.3841C25.5107 26.357 25.7241 26.0737 26.0241 25.8537C26.3241 25.6337 26.6874 25.5237 27.1141 25.5237C27.4874 25.5237 27.7974 25.597 28.0441 25.7437C28.2907 25.8837 28.4774 26.097 28.6041 26.3837C28.7307 26.6703 28.7941 27.0337 28.7941 27.4737V30.5137H27.9541V27.5237C27.9541 27.0903 27.8741 26.767 27.7141 26.5537C27.5607 26.3403 27.2941 26.2337 26.9141 26.2337C26.6407 26.2337 26.4007 26.3003 26.1941 26.4337C25.9941 26.5603 25.8407 26.737 25.7341 26.9637C25.6274 27.1903 25.5741 27.457 25.5741 27.7637V30.5137H24.7241V27.5237C24.7241 27.0903 24.6407 26.767 24.4741 26.5537C24.3141 26.3403 24.0541 26.2337 23.6941 26.2337C23.4207 26.2337 23.1807 26.3003 22.9741 26.4337C22.7741 26.567 22.6207 26.7503 22.5141 26.9837C22.4074 27.2103 22.3541 27.4637 22.3541 27.7437V30.5137H21.5041ZM30.4494 30.5137V25.6137H31.2594V26.6937H31.1994C31.286 26.4603 31.406 26.257 31.5594 26.0837C31.7194 25.9037 31.9094 25.767 32.1294 25.6737C32.3494 25.5737 32.5927 25.5237 32.8594 25.5237C33.2794 25.5237 33.6227 25.627 33.8894 25.8337C34.156 26.0403 34.3294 26.3303 34.4094 26.7037H34.3294C34.456 26.357 34.6694 26.0737 34.9694 25.8537C35.2694 25.6337 35.6327 25.5237 36.0594 25.5237C36.4327 25.5237 36.7427 25.597 36.9894 25.7437C37.236 25.8837 37.4227 26.097 37.5494 26.3837C37.676 26.6703 37.7394 27.0337 37.7394 27.4737V30.5137H36.8994V27.5237C36.8994 27.0903 36.8194 26.767 36.6594 26.5537C36.506 26.3403 36.2394 26.2337 35.8594 26.2337C35.586 26.2337 35.346 26.3003 35.1394 26.4337C34.9394 26.5603 34.786 26.737 34.6794 26.9637C34.5727 27.1903 34.5194 27.457 34.5194 27.7637V30.5137H33.6694V27.5237C33.6694 27.0903 33.586 26.767 33.4194 26.5537C33.2594 26.3403 32.9994 26.2337 32.6394 26.2337C32.366 26.2337 32.126 26.3003 31.9194 26.4337C31.7194 26.567 31.566 26.7503 31.4594 26.9837C31.3527 27.2103 31.2994 27.4637 31.2994 27.7437V30.5137H30.4494Z" fill="black"/>
</svg>
