<svg width="319" height="38" viewBox="0 0 319 38" fill="none" xmlns="http://www.w3.org/2000/svg">
<path d="M38.3583 14.084C37.621 14.084 36.9397 13.9627 36.3143 13.72C35.689 13.468 35.1477 13.118 34.6903 12.67C34.233 12.222 33.8737 11.6947 33.6123 11.088C33.3603 10.4813 33.2343 9.81867 33.2343 9.1C33.2343 8.38133 33.3603 7.71867 33.6123 7.112C33.8737 6.50533 34.233 5.978 34.6903 5.53C35.157 5.082 35.703 4.73667 36.3283 4.494C36.9537 4.242 37.635 4.116 38.3723 4.116C39.0817 4.116 39.749 4.23733 40.3743 4.48C40.9997 4.71333 41.527 5.068 41.9563 5.544L41.2983 6.202C40.897 5.79133 40.4537 5.49733 39.9683 5.32C39.483 5.13333 38.9603 5.04 38.4003 5.04C37.8123 5.04 37.2663 5.14267 36.7623 5.348C36.2583 5.544 35.8197 5.82867 35.4463 6.202C35.073 6.566 34.779 6.99533 34.5643 7.49C34.359 7.97533 34.2563 8.512 34.2563 9.1C34.2563 9.688 34.359 10.2293 34.5643 10.724C34.779 11.2093 35.073 11.6387 35.4463 12.012C35.8197 12.376 36.2583 12.6607 36.7623 12.866C37.2663 13.062 37.8123 13.16 38.4003 13.16C38.9603 13.16 39.483 13.0667 39.9683 12.88C40.4537 12.6933 40.897 12.3947 41.2983 11.984L41.9563 12.642C41.527 13.118 40.9997 13.4773 40.3743 13.72C39.749 13.9627 39.077 14.084 38.3583 14.084ZM46.6227 14.07C45.9134 14.07 45.274 13.9113 44.7047 13.594C44.1447 13.2673 43.7014 12.824 43.3747 12.264C43.048 11.6947 42.8847 11.046 42.8847 10.318C42.8847 9.58067 43.048 8.932 43.3747 8.372C43.7014 7.812 44.1447 7.37333 44.7047 7.056C45.2647 6.73867 45.904 6.58 46.6227 6.58C47.3507 6.58 47.9947 6.73867 48.5547 7.056C49.124 7.37333 49.5674 7.812 49.8847 8.372C50.2114 8.932 50.3747 9.58067 50.3747 10.318C50.3747 11.046 50.2114 11.6947 49.8847 12.264C49.5674 12.824 49.124 13.2673 48.5547 13.594C47.9854 13.9113 47.3414 14.07 46.6227 14.07ZM46.6227 13.188C47.1547 13.188 47.626 13.0713 48.0367 12.838C48.4474 12.5953 48.7694 12.2593 49.0027 11.83C49.2454 11.3913 49.3667 10.8873 49.3667 10.318C49.3667 9.73933 49.2454 9.23533 49.0027 8.806C48.7694 8.37667 48.4474 8.04533 48.0367 7.812C47.626 7.56933 47.1594 7.448 46.6367 7.448C46.114 7.448 45.6474 7.56933 45.2367 7.812C44.826 8.04533 44.4994 8.37667 44.2567 8.806C44.014 9.23533 43.8927 9.73933 43.8927 10.318C43.8927 10.8873 44.014 11.3913 44.2567 11.83C44.4994 12.2593 44.826 12.5953 45.2367 12.838C45.6474 13.0713 46.1094 13.188 46.6227 13.188ZM61.5881 6.58C62.1854 6.58 62.7034 6.69667 63.1421 6.93C63.5901 7.154 63.9354 7.49933 64.1781 7.966C64.4301 8.43267 64.5561 9.02067 64.5561 9.73V14H63.5621V9.828C63.5621 9.05333 63.3754 8.47 63.0021 8.078C62.6381 7.67667 62.1201 7.476 61.4481 7.476C60.9441 7.476 60.5054 7.58333 60.1321 7.798C59.7681 8.00333 59.4834 8.30667 59.2781 8.708C59.0821 9.1 58.9841 9.576 58.9841 10.136V14H57.9901V9.828C57.9901 9.05333 57.8034 8.47 57.4301 8.078C57.0567 7.67667 56.5341 7.476 55.8621 7.476C55.3674 7.476 54.9334 7.58333 54.5601 7.798C54.1867 8.00333 53.8974 8.30667 53.6921 8.708C53.4961 9.1 53.3981 9.576 53.3981 10.136V14H52.4041V6.65H53.3561V8.638L53.2021 8.288C53.4261 7.756 53.7854 7.34067 54.2801 7.042C54.7841 6.734 55.3767 6.58 56.0581 6.58C56.7767 6.58 57.3881 6.762 57.8921 7.126C58.3961 7.48067 58.7227 8.01733 58.8721 8.736L58.4801 8.582C58.6947 7.98467 59.0727 7.504 59.6141 7.14C60.1647 6.76667 60.8227 6.58 61.5881 6.58ZM71.0457 14.07C70.411 14.07 69.837 13.9253 69.3237 13.636C68.8104 13.3373 68.3997 12.9127 68.0917 12.362C67.793 11.802 67.6437 11.1207 67.6437 10.318C67.6437 9.51533 67.793 8.83867 68.0917 8.288C68.3904 7.728 68.7964 7.30333 69.3097 7.014C69.823 6.72467 70.4017 6.58 71.0457 6.58C71.7457 6.58 72.371 6.73867 72.9217 7.056C73.4817 7.364 73.9204 7.80267 74.2377 8.372C74.555 8.932 74.7137 9.58067 74.7137 10.318C74.7137 11.0647 74.555 11.718 74.2377 12.278C73.9204 12.838 73.4817 13.2767 72.9217 13.594C72.371 13.9113 71.7457 14.07 71.0457 14.07ZM67.2517 16.716V6.65H68.2037V8.862L68.1057 10.332L68.2457 11.816V16.716H67.2517ZM70.9757 13.188C71.4984 13.188 71.965 13.0713 72.3757 12.838C72.7864 12.5953 73.113 12.2593 73.3557 11.83C73.5984 11.3913 73.7197 10.8873 73.7197 10.318C73.7197 9.74867 73.5984 9.24933 73.3557 8.82C73.113 8.39067 72.7864 8.05467 72.3757 7.812C71.965 7.56933 71.4984 7.448 70.9757 7.448C70.453 7.448 69.9817 7.56933 69.5617 7.812C69.151 8.05467 68.8244 8.39067 68.5817 8.82C68.3484 9.24933 68.2317 9.74867 68.2317 10.318C68.2317 10.8873 68.3484 11.3913 68.5817 11.83C68.8244 12.2593 69.151 12.5953 69.5617 12.838C69.9817 13.0713 70.453 13.188 70.9757 13.188ZM81.305 14V12.376L81.263 12.11V9.394C81.263 8.76867 81.0856 8.288 80.731 7.952C80.3856 7.616 79.8676 7.448 79.177 7.448C78.701 7.448 78.2483 7.52733 77.819 7.686C77.3896 7.84467 77.0256 8.05467 76.727 8.316L76.279 7.574C76.6523 7.25667 77.1003 7.014 77.623 6.846C78.1456 6.66867 78.6963 6.58 79.275 6.58C80.227 6.58 80.9596 6.818 81.473 7.294C81.9956 7.76067 82.257 8.47467 82.257 9.436V14H81.305ZM78.771 14.07C78.2203 14.07 77.7396 13.9813 77.329 13.804C76.9276 13.6173 76.6196 13.3653 76.405 13.048C76.1903 12.7213 76.083 12.348 76.083 11.928C76.083 11.5453 76.1716 11.2 76.349 10.892C76.5356 10.5747 76.8343 10.3227 77.245 10.136C77.665 9.94 78.225 9.842 78.925 9.842H81.459V10.584H78.953C78.2436 10.584 77.749 10.71 77.469 10.962C77.1983 11.214 77.063 11.5267 77.063 11.9C77.063 12.32 77.2263 12.656 77.553 12.908C77.8796 13.16 78.337 13.286 78.925 13.286C79.485 13.286 79.9656 13.16 80.367 12.908C80.7776 12.6467 81.0763 12.2733 81.263 11.788L81.487 12.474C81.3003 12.9593 80.9736 13.3467 80.507 13.636C80.0496 13.9253 79.471 14.07 78.771 14.07ZM88.0088 14.07C87.2808 14.07 86.6275 13.9113 86.0488 13.594C85.4795 13.2673 85.0315 12.824 84.7048 12.264C84.3781 11.6947 84.2148 11.046 84.2148 10.318C84.2148 9.58067 84.3781 8.932 84.7048 8.372C85.0315 7.812 85.4795 7.37333 86.0488 7.056C86.6275 6.73867 87.2808 6.58 88.0088 6.58C88.6341 6.58 89.1988 6.70133 89.7028 6.944C90.2068 7.18667 90.6035 7.55067 90.8928 8.036L90.1508 8.54C89.8988 8.16667 89.5861 7.89133 89.2128 7.714C88.8395 7.53667 88.4335 7.448 87.9948 7.448C87.4721 7.448 87.0008 7.56933 86.5808 7.812C86.1608 8.04533 85.8295 8.37667 85.5868 8.806C85.3441 9.23533 85.2228 9.73933 85.2228 10.318C85.2228 10.8967 85.3441 11.4007 85.5868 11.83C85.8295 12.2593 86.1608 12.5953 86.5808 12.838C87.0008 13.0713 87.4721 13.188 87.9948 13.188C88.4335 13.188 88.8395 13.0993 89.2128 12.922C89.5861 12.7447 89.8988 12.474 90.1508 12.11L90.8928 12.614C90.6035 13.09 90.2068 13.454 89.7028 13.706C89.1988 13.9487 88.6341 14.07 88.0088 14.07ZM95.2515 14.07C94.5608 14.07 94.0288 13.8833 93.6555 13.51C93.2822 13.1367 93.0955 12.6093 93.0955 11.928V5.026H94.0895V11.872C94.0895 12.3013 94.1968 12.6327 94.4115 12.866C94.6355 13.0993 94.9528 13.216 95.3635 13.216C95.8022 13.216 96.1662 13.09 96.4555 12.838L96.8055 13.552C96.6095 13.7293 96.3715 13.86 96.0915 13.944C95.8208 14.028 95.5408 14.07 95.2515 14.07ZM91.7795 7.476V6.65H96.3295V7.476H91.7795ZM104.603 14.07C103.912 14.07 103.38 13.8833 103.007 13.51C102.634 13.1367 102.447 12.6093 102.447 11.928V5.026H103.441V11.872C103.441 12.3013 103.548 12.6327 103.763 12.866C103.987 13.0993 104.304 13.216 104.715 13.216C105.154 13.216 105.518 13.09 105.807 12.838L106.157 13.552C105.961 13.7293 105.723 13.86 105.443 13.944C105.172 14.028 104.892 14.07 104.603 14.07ZM101.131 7.476V6.65H105.681V7.476H101.131ZM112.573 14V12.376L112.531 12.11V9.394C112.531 8.76867 112.353 8.288 111.999 7.952C111.653 7.616 111.135 7.448 110.445 7.448C109.969 7.448 109.516 7.52733 109.087 7.686C108.657 7.84467 108.293 8.05467 107.995 8.316L107.547 7.574C107.92 7.25667 108.368 7.014 108.891 6.846C109.413 6.66867 109.964 6.58 110.543 6.58C111.495 6.58 112.227 6.818 112.741 7.294C113.263 7.76067 113.525 8.47467 113.525 9.436V14H112.573ZM110.039 14.07C109.488 14.07 109.007 13.9813 108.597 13.804C108.195 13.6173 107.887 13.3653 107.673 13.048C107.458 12.7213 107.351 12.348 107.351 11.928C107.351 11.5453 107.439 11.2 107.617 10.892C107.803 10.5747 108.102 10.3227 108.513 10.136C108.933 9.94 109.493 9.842 110.193 9.842H112.727V10.584H110.221C109.511 10.584 109.017 10.71 108.737 10.962C108.466 11.214 108.331 11.5267 108.331 11.9C108.331 12.32 108.494 12.656 108.821 12.908C109.147 13.16 109.605 13.286 110.193 13.286C110.753 13.286 111.233 13.16 111.635 12.908C112.045 12.6467 112.344 12.2733 112.531 11.788L112.755 12.474C112.568 12.9593 112.241 13.3467 111.775 13.636C111.317 13.9253 110.739 14.07 110.039 14.07ZM125.408 6.58C126.006 6.58 126.524 6.69667 126.962 6.93C127.41 7.154 127.756 7.49933 127.998 7.966C128.25 8.43267 128.376 9.02067 128.376 9.73V14H127.382V9.828C127.382 9.05333 127.196 8.47 126.822 8.078C126.458 7.67667 125.94 7.476 125.268 7.476C124.764 7.476 124.326 7.58333 123.952 7.798C123.588 8.00333 123.304 8.30667 123.098 8.708C122.902 9.1 122.804 9.576 122.804 10.136V14H121.81V9.828C121.81 9.05333 121.624 8.47 121.25 8.078C120.877 7.67667 120.354 7.476 119.682 7.476C119.188 7.476 118.754 7.58333 118.38 7.798C118.007 8.00333 117.718 8.30667 117.512 8.708C117.316 9.1 117.218 9.576 117.218 10.136V14H116.224V6.65H117.176V8.638L117.022 8.288C117.246 7.756 117.606 7.34067 118.1 7.042C118.604 6.734 119.197 6.58 119.878 6.58C120.597 6.58 121.208 6.762 121.712 7.126C122.216 7.48067 122.543 8.01733 122.692 8.736L122.3 8.582C122.515 7.98467 122.893 7.504 123.434 7.14C123.985 6.76667 124.643 6.58 125.408 6.58ZM134.866 14.07C134.231 14.07 133.657 13.9253 133.144 13.636C132.631 13.3373 132.22 12.9127 131.912 12.362C131.613 11.802 131.464 11.1207 131.464 10.318C131.464 9.51533 131.613 8.83867 131.912 8.288C132.211 7.728 132.617 7.30333 133.13 7.014C133.643 6.72467 134.222 6.58 134.866 6.58C135.566 6.58 136.191 6.73867 136.742 7.056C137.302 7.364 137.741 7.80267 138.058 8.372C138.375 8.932 138.534 9.58067 138.534 10.318C138.534 11.0647 138.375 11.718 138.058 12.278C137.741 12.838 137.302 13.2767 136.742 13.594C136.191 13.9113 135.566 14.07 134.866 14.07ZM131.072 16.716V6.65H132.024V8.862L131.926 10.332L132.066 11.816V16.716H131.072ZM134.796 13.188C135.319 13.188 135.785 13.0713 136.196 12.838C136.607 12.5953 136.933 12.2593 137.176 11.83C137.419 11.3913 137.54 10.8873 137.54 10.318C137.54 9.74867 137.419 9.24933 137.176 8.82C136.933 8.39067 136.607 8.05467 136.196 7.812C135.785 7.56933 135.319 7.448 134.796 7.448C134.273 7.448 133.802 7.56933 133.382 7.812C132.971 8.05467 132.645 8.39067 132.402 8.82C132.169 9.24933 132.052 9.74867 132.052 10.318C132.052 10.8873 132.169 11.3913 132.402 11.83C132.645 12.2593 132.971 12.5953 133.382 12.838C133.802 13.0713 134.273 13.188 134.796 13.188ZM143.682 14.07C142.917 14.07 142.245 13.9113 141.666 13.594C141.088 13.2673 140.635 12.824 140.308 12.264C139.982 11.6947 139.818 11.046 139.818 10.318C139.818 9.59 139.972 8.946 140.28 8.386C140.598 7.826 141.027 7.38733 141.568 7.07C142.119 6.74333 142.735 6.58 143.416 6.58C144.107 6.58 144.718 6.73867 145.25 7.056C145.792 7.364 146.216 7.80267 146.524 8.372C146.832 8.932 146.986 9.58067 146.986 10.318C146.986 10.3647 146.982 10.416 146.972 10.472C146.972 10.5187 146.972 10.57 146.972 10.626H140.574V9.884H146.44L146.048 10.178C146.048 9.646 145.932 9.17467 145.698 8.764C145.474 8.344 145.166 8.01733 144.774 7.784C144.382 7.55067 143.93 7.434 143.416 7.434C142.912 7.434 142.46 7.55067 142.058 7.784C141.657 8.01733 141.344 8.344 141.12 8.764C140.896 9.184 140.784 9.66467 140.784 10.206V10.36C140.784 10.92 140.906 11.4147 141.148 11.844C141.4 12.264 141.746 12.5953 142.184 12.838C142.632 13.0713 143.141 13.188 143.71 13.188C144.158 13.188 144.574 13.1087 144.956 12.95C145.348 12.7913 145.684 12.5487 145.964 12.222L146.524 12.866C146.198 13.258 145.787 13.5567 145.292 13.762C144.807 13.9673 144.27 14.07 143.682 14.07ZM149.01 14V6.65H149.962V8.652L149.864 8.302C150.069 7.742 150.414 7.31733 150.9 7.028C151.385 6.72933 151.987 6.58 152.706 6.58V7.546C152.668 7.546 152.631 7.546 152.594 7.546C152.556 7.53667 152.519 7.532 152.482 7.532C151.707 7.532 151.1 7.77 150.662 8.246C150.223 8.71267 150.004 9.38 150.004 10.248V14H149.01ZM153.932 10.64V9.772H157.6V10.64H153.932ZM163.083 14.07C162.317 14.07 161.645 13.9113 161.067 13.594C160.488 13.2673 160.035 12.824 159.709 12.264C159.382 11.6947 159.219 11.046 159.219 10.318C159.219 9.59 159.373 8.946 159.681 8.386C159.998 7.826 160.427 7.38733 160.969 7.07C161.519 6.74333 162.135 6.58 162.817 6.58C163.507 6.58 164.119 6.73867 164.651 7.056C165.192 7.364 165.617 7.80267 165.925 8.372C166.233 8.932 166.387 9.58067 166.387 10.318C166.387 10.3647 166.382 10.416 166.373 10.472C166.373 10.5187 166.373 10.57 166.373 10.626H159.975V9.884H165.841L165.449 10.178C165.449 9.646 165.332 9.17467 165.099 8.764C164.875 8.344 164.567 8.01733 164.175 7.784C163.783 7.55067 163.33 7.434 162.817 7.434C162.313 7.434 161.86 7.55067 161.459 7.784C161.057 8.01733 160.745 8.344 160.521 8.764C160.297 9.184 160.185 9.66467 160.185 10.206V10.36C160.185 10.92 160.306 11.4147 160.549 11.844C160.801 12.264 161.146 12.5953 161.585 12.838C162.033 13.0713 162.541 13.188 163.111 13.188C163.559 13.188 163.974 13.1087 164.357 12.95C164.749 12.7913 165.085 12.5487 165.365 12.222L165.925 12.866C165.598 13.258 165.187 13.5567 164.693 13.762C164.207 13.9673 163.671 14.07 163.083 14.07ZM170.163 14L166.901 6.65H167.937L170.933 13.468H170.443L173.481 6.65H174.461L171.185 14H170.163ZM175.861 14V6.65H176.855V14H175.861ZM176.365 5.026C176.16 5.026 175.987 4.956 175.847 4.816C175.707 4.676 175.637 4.508 175.637 4.312C175.637 4.116 175.707 3.95267 175.847 3.822C175.987 3.682 176.16 3.612 176.365 3.612C176.57 3.612 176.743 3.67733 176.883 3.808C177.023 3.93867 177.093 4.102 177.093 4.298C177.093 4.50333 177.023 4.676 176.883 4.816C176.752 4.956 176.58 5.026 176.365 5.026ZM182.547 14.07C181.847 14.07 181.217 13.9113 180.657 13.594C180.106 13.2767 179.672 12.838 179.355 12.278C179.038 11.7087 178.879 11.0553 178.879 10.318C178.879 9.57133 179.038 8.918 179.355 8.358C179.672 7.798 180.106 7.364 180.657 7.056C181.217 6.73867 181.847 6.58 182.547 6.58C183.191 6.58 183.765 6.72467 184.269 7.014C184.782 7.30333 185.188 7.728 185.487 8.288C185.795 8.83867 185.949 9.51533 185.949 10.318C185.949 11.1113 185.8 11.788 185.501 12.348C185.202 12.908 184.796 13.3373 184.283 13.636C183.779 13.9253 183.2 14.07 182.547 14.07ZM182.617 13.188C183.14 13.188 183.606 13.0713 184.017 12.838C184.437 12.5953 184.764 12.2593 184.997 11.83C185.24 11.3913 185.361 10.8873 185.361 10.318C185.361 9.73933 185.24 9.23533 184.997 8.806C184.764 8.37667 184.437 8.04533 184.017 7.812C183.606 7.56933 183.14 7.448 182.617 7.448C182.104 7.448 181.642 7.56933 181.231 7.812C180.82 8.04533 180.494 8.37667 180.251 8.806C180.008 9.23533 179.887 9.73933 179.887 10.318C179.887 10.8873 180.008 11.3913 180.251 11.83C180.494 12.2593 180.82 12.5953 181.231 12.838C181.642 13.0713 182.104 13.188 182.617 13.188ZM185.389 14V11.788L185.487 10.304L185.347 8.82V3.612H186.341V14H185.389ZM192.231 14.07C191.466 14.07 190.794 13.9113 190.215 13.594C189.636 13.2673 189.184 12.824 188.857 12.264C188.53 11.6947 188.367 11.046 188.367 10.318C188.367 9.59 188.521 8.946 188.829 8.386C189.146 7.826 189.576 7.38733 190.117 7.07C190.668 6.74333 191.284 6.58 191.965 6.58C192.656 6.58 193.267 6.73867 193.799 7.056C194.34 7.364 194.765 7.80267 195.073 8.372C195.381 8.932 195.535 9.58067 195.535 10.318C195.535 10.3647 195.53 10.416 195.521 10.472C195.521 10.5187 195.521 10.57 195.521 10.626H189.123V9.884H194.989L194.597 10.178C194.597 9.646 194.48 9.17467 194.247 8.764C194.023 8.344 193.715 8.01733 193.323 7.784C192.931 7.55067 192.478 7.434 191.965 7.434C191.461 7.434 191.008 7.55067 190.607 7.784C190.206 8.01733 189.893 8.344 189.669 8.764C189.445 9.184 189.333 9.66467 189.333 10.206V10.36C189.333 10.92 189.454 11.4147 189.697 11.844C189.949 12.264 190.294 12.5953 190.733 12.838C191.181 13.0713 191.69 13.188 192.259 13.188C192.707 13.188 193.122 13.1087 193.505 12.95C193.897 12.7913 194.233 12.5487 194.513 12.222L195.073 12.866C194.746 13.258 194.336 13.5567 193.841 13.762C193.356 13.9673 192.819 14.07 192.231 14.07ZM201.31 6.58C201.908 6.58 202.43 6.69667 202.878 6.93C203.336 7.154 203.69 7.49933 203.942 7.966C204.204 8.43267 204.334 9.02067 204.334 9.73V14H203.34V9.828C203.34 9.05333 203.144 8.47 202.752 8.078C202.37 7.67667 201.828 7.476 201.128 7.476C200.606 7.476 200.148 7.58333 199.756 7.798C199.374 8.00333 199.075 8.30667 198.86 8.708C198.655 9.1 198.552 9.576 198.552 10.136V14H197.558V6.65H198.51V8.666L198.356 8.288C198.59 7.756 198.963 7.34067 199.476 7.042C199.99 6.734 200.601 6.58 201.31 6.58ZM209.343 14.07C208.653 14.07 208.121 13.8833 207.747 13.51C207.374 13.1367 207.187 12.6093 207.187 11.928V5.026H208.181V11.872C208.181 12.3013 208.289 12.6327 208.503 12.866C208.727 13.0993 209.045 13.216 209.455 13.216C209.894 13.216 210.258 13.09 210.547 12.838L210.897 13.552C210.701 13.7293 210.463 13.86 210.183 13.944C209.913 14.028 209.633 14.07 209.343 14.07ZM205.871 7.476V6.65H210.421V7.476H205.871ZM218.345 14.07C217.738 14.07 217.164 13.986 216.623 13.818C216.082 13.6407 215.657 13.4213 215.349 13.16L215.797 12.376C216.096 12.6 216.478 12.796 216.945 12.964C217.412 13.1227 217.902 13.202 218.415 13.202C219.115 13.202 219.619 13.0947 219.927 12.88C220.235 12.656 220.389 12.362 220.389 11.998C220.389 11.7273 220.3 11.5173 220.123 11.368C219.955 11.2093 219.731 11.0927 219.451 11.018C219.171 10.934 218.858 10.864 218.513 10.808C218.168 10.752 217.822 10.6867 217.477 10.612C217.141 10.5373 216.833 10.43 216.553 10.29C216.273 10.1407 216.044 9.94 215.867 9.688C215.699 9.436 215.615 9.1 215.615 8.68C215.615 8.27867 215.727 7.91933 215.951 7.602C216.175 7.28467 216.502 7.03733 216.931 6.86C217.37 6.67333 217.902 6.58 218.527 6.58C219.003 6.58 219.479 6.64533 219.955 6.776C220.431 6.89733 220.823 7.06067 221.131 7.266L220.697 8.064C220.37 7.84 220.02 7.68133 219.647 7.588C219.274 7.48533 218.9 7.434 218.527 7.434C217.864 7.434 217.374 7.55067 217.057 7.784C216.749 8.008 216.595 8.29733 216.595 8.652C216.595 8.932 216.679 9.15133 216.847 9.31C217.024 9.46867 217.253 9.59467 217.533 9.688C217.822 9.772 218.135 9.842 218.471 9.898C218.816 9.954 219.157 10.024 219.493 10.108C219.838 10.1827 220.151 10.29 220.431 10.43C220.72 10.5607 220.949 10.752 221.117 11.004C221.294 11.2467 221.383 11.5687 221.383 11.97C221.383 12.3993 221.262 12.7727 221.019 13.09C220.786 13.398 220.44 13.6407 219.983 13.818C219.535 13.986 218.989 14.07 218.345 14.07ZM224.568 14L221.796 6.65H222.748L225.268 13.468H224.834L227.424 6.65H228.278L230.84 13.468H230.406L232.968 6.65H233.878L231.092 14H230.154L227.69 7.588H227.984L225.506 14H224.568ZM238.292 14.07C237.526 14.07 236.854 13.9113 236.276 13.594C235.697 13.2673 235.244 12.824 234.918 12.264C234.591 11.6947 234.428 11.046 234.428 10.318C234.428 9.59 234.582 8.946 234.89 8.386C235.207 7.826 235.636 7.38733 236.178 7.07C236.728 6.74333 237.344 6.58 238.026 6.58C238.716 6.58 239.328 6.73867 239.86 7.056C240.401 7.364 240.826 7.80267 241.134 8.372C241.442 8.932 241.596 9.58067 241.596 10.318C241.596 10.3647 241.591 10.416 241.582 10.472C241.582 10.5187 241.582 10.57 241.582 10.626H235.184V9.884H241.05L240.658 10.178C240.658 9.646 240.541 9.17467 240.308 8.764C240.084 8.344 239.776 8.01733 239.384 7.784C238.992 7.55067 238.539 7.434 238.026 7.434C237.522 7.434 237.069 7.55067 236.668 7.784C236.266 8.01733 235.954 8.344 235.73 8.764C235.506 9.184 235.394 9.66467 235.394 10.206V10.36C235.394 10.92 235.515 11.4147 235.758 11.844C236.01 12.264 236.355 12.5953 236.794 12.838C237.242 13.0713 237.75 13.188 238.32 13.188C238.768 13.188 239.183 13.1087 239.566 12.95C239.958 12.7913 240.294 12.5487 240.574 12.222L241.134 12.866C240.807 13.258 240.396 13.5567 239.902 13.762C239.416 13.9673 238.88 14.07 238.292 14.07ZM246.741 14.07C245.976 14.07 245.304 13.9113 244.725 13.594C244.146 13.2673 243.694 12.824 243.367 12.264C243.04 11.6947 242.877 11.046 242.877 10.318C242.877 9.59 243.031 8.946 243.339 8.386C243.656 7.826 244.086 7.38733 244.627 7.07C245.178 6.74333 245.794 6.58 246.475 6.58C247.166 6.58 247.777 6.73867 248.309 7.056C248.85 7.364 249.275 7.80267 249.583 8.372C249.891 8.932 250.045 9.58067 250.045 10.318C250.045 10.3647 250.04 10.416 250.031 10.472C250.031 10.5187 250.031 10.57 250.031 10.626H243.633V9.884H249.499L249.107 10.178C249.107 9.646 248.99 9.17467 248.757 8.764C248.533 8.344 248.225 8.01733 247.833 7.784C247.441 7.55067 246.988 7.434 246.475 7.434C245.971 7.434 245.518 7.55067 245.117 7.784C244.716 8.01733 244.403 8.344 244.179 8.764C243.955 9.184 243.843 9.66467 243.843 10.206V10.36C243.843 10.92 243.964 11.4147 244.207 11.844C244.459 12.264 244.804 12.5953 245.243 12.838C245.691 13.0713 246.2 13.188 246.769 13.188C247.217 13.188 247.632 13.1087 248.015 12.95C248.407 12.7913 248.743 12.5487 249.023 12.222L249.583 12.866C249.256 13.258 248.846 13.5567 248.351 13.762C247.866 13.9673 247.329 14.07 246.741 14.07ZM254.392 14.07C253.701 14.07 253.169 13.8833 252.796 13.51C252.423 13.1367 252.236 12.6093 252.236 11.928V5.026H253.23V11.872C253.23 12.3013 253.337 12.6327 253.552 12.866C253.776 13.0993 254.093 13.216 254.504 13.216C254.943 13.216 255.307 13.09 255.596 12.838L255.946 13.552C255.75 13.7293 255.512 13.86 255.232 13.944C254.961 14.028 254.681 14.07 254.392 14.07ZM250.92 7.476V6.65H255.47V7.476H250.92ZM265.214 14.07C264.57 14.07 263.991 13.9253 263.478 13.636C262.964 13.3373 262.558 12.908 262.26 12.348C261.961 11.788 261.812 11.1113 261.812 10.318C261.812 9.51533 261.961 8.83867 262.26 8.288C262.568 7.728 262.978 7.30333 263.492 7.014C264.005 6.72467 264.579 6.58 265.214 6.58C265.914 6.58 266.539 6.73867 267.09 7.056C267.65 7.364 268.088 7.798 268.406 8.358C268.723 8.918 268.882 9.57133 268.882 10.318C268.882 11.0553 268.723 11.7087 268.406 12.278C268.088 12.838 267.65 13.2767 267.09 13.594C266.539 13.9113 265.914 14.07 265.214 14.07ZM261.42 14V3.612H262.414V8.82L262.274 10.304L262.372 11.788V14H261.42ZM265.144 13.188C265.666 13.188 266.133 13.0713 266.544 12.838C266.954 12.5953 267.281 12.2593 267.524 11.83C267.766 11.3913 267.888 10.8873 267.888 10.318C267.888 9.73933 267.766 9.23533 267.524 8.806C267.281 8.37667 266.954 8.04533 266.544 7.812C266.133 7.56933 265.666 7.448 265.144 7.448C264.621 7.448 264.15 7.56933 263.73 7.812C263.319 8.04533 262.992 8.37667 262.75 8.806C262.516 9.23533 262.4 9.73933 262.4 10.318C262.4 10.8873 262.516 11.3913 262.75 11.83C262.992 12.2593 263.319 12.5953 263.73 12.838C264.15 13.0713 264.621 13.188 265.144 13.188ZM273.904 14.07C273.195 14.07 272.555 13.9113 271.986 13.594C271.426 13.2673 270.983 12.824 270.656 12.264C270.329 11.6947 270.166 11.046 270.166 10.318C270.166 9.58067 270.329 8.932 270.656 8.372C270.983 7.812 271.426 7.37333 271.986 7.056C272.546 6.73867 273.185 6.58 273.904 6.58C274.632 6.58 275.276 6.73867 275.836 7.056C276.405 7.37333 276.849 7.812 277.166 8.372C277.493 8.932 277.656 9.58067 277.656 10.318C277.656 11.046 277.493 11.6947 277.166 12.264C276.849 12.824 276.405 13.2673 275.836 13.594C275.267 13.9113 274.623 14.07 273.904 14.07ZM273.904 13.188C274.436 13.188 274.907 13.0713 275.318 12.838C275.729 12.5953 276.051 12.2593 276.284 11.83C276.527 11.3913 276.648 10.8873 276.648 10.318C276.648 9.73933 276.527 9.23533 276.284 8.806C276.051 8.37667 275.729 8.04533 275.318 7.812C274.907 7.56933 274.441 7.448 273.918 7.448C273.395 7.448 272.929 7.56933 272.518 7.812C272.107 8.04533 271.781 8.37667 271.538 8.806C271.295 9.23533 271.174 9.73933 271.174 10.318C271.174 10.8873 271.295 11.3913 271.538 11.83C271.781 12.2593 272.107 12.5953 272.518 12.838C272.929 13.0713 273.391 13.188 273.904 13.188ZM278.306 14L281.414 9.968L281.4 10.458L278.446 6.65H279.566L281.988 9.8L281.568 9.786L283.99 6.65H285.082L282.1 10.5L282.114 9.968L285.25 14H284.116L281.554 10.64L281.946 10.696L279.426 14H278.306ZM20.8132 33.07C20.0478 33.07 19.3758 32.9113 18.7972 32.594C18.2185 32.2673 17.7658 31.824 17.4392 31.264C17.1125 30.6947 16.9492 30.046 16.9492 29.318C16.9492 28.59 17.1032 27.946 17.4112 27.386C17.7285 26.826 18.1578 26.3873 18.6992 26.07C19.2498 25.7433 19.8658 25.58 20.5472 25.58C21.2378 25.58 21.8492 25.7387 22.3812 26.056C22.9225 26.364 23.3472 26.8027 23.6552 27.372C23.9632 27.932 24.1172 28.5807 24.1172 29.318C24.1172 29.3647 24.1125 29.416 24.1032 29.472C24.1032 29.5187 24.1032 29.57 24.1032 29.626H17.7052V28.884H23.5712L23.1792 29.178C23.1792 28.646 23.0625 28.1747 22.8292 27.764C22.6052 27.344 22.2972 27.0173 21.9052 26.784C21.5132 26.5507 21.0605 26.434 20.5472 26.434C20.0432 26.434 19.5905 26.5507 19.1892 26.784C18.7878 27.0173 18.4752 27.344 18.2512 27.764C18.0272 28.184 17.9152 28.6647 17.9152 29.206V29.36C17.9152 29.92 18.0365 30.4147 18.2792 30.844C18.5312 31.264 18.8765 31.5953 19.3152 31.838C19.7632 32.0713 20.2718 32.188 20.8412 32.188C21.2892 32.188 21.7045 32.1087 22.0872 31.95C22.4792 31.7913 22.8152 31.5487 23.0952 31.222L23.6552 31.866C23.3285 32.258 22.9178 32.5567 22.4232 32.762C21.9378 32.9673 21.4012 33.07 20.8132 33.07ZM29.8924 25.58C30.4897 25.58 31.0124 25.6967 31.4604 25.93C31.9177 26.154 32.2724 26.4993 32.5244 26.966C32.7857 27.4327 32.9164 28.0207 32.9164 28.73V33H31.9224V28.828C31.9224 28.0533 31.7264 27.47 31.3344 27.078C30.9517 26.6767 30.4104 26.476 29.7104 26.476C29.1877 26.476 28.7304 26.5833 28.3384 26.798C27.9557 27.0033 27.657 27.3067 27.4424 27.708C27.237 28.1 27.1344 28.576 27.1344 29.136V33H26.1404V25.65H27.0924V27.666L26.9384 27.288C27.1717 26.756 27.545 26.3407 28.0584 26.042C28.5717 25.734 29.183 25.58 29.8924 25.58ZM37.5753 33.07C36.9687 33.07 36.3947 32.986 35.8533 32.818C35.312 32.6407 34.8873 32.4213 34.5793 32.16L35.0273 31.376C35.326 31.6 35.7087 31.796 36.1753 31.964C36.642 32.1227 37.132 32.202 37.6453 32.202C38.3453 32.202 38.8493 32.0947 39.1573 31.88C39.4653 31.656 39.6193 31.362 39.6193 30.998C39.6193 30.7273 39.5307 30.5173 39.3533 30.368C39.1853 30.2093 38.9613 30.0927 38.6813 30.018C38.4013 29.934 38.0887 29.864 37.7433 29.808C37.398 29.752 37.0527 29.6867 36.7073 29.612C36.3713 29.5373 36.0633 29.43 35.7833 29.29C35.5033 29.1407 35.2747 28.94 35.0973 28.688C34.9293 28.436 34.8453 28.1 34.8453 27.68C34.8453 27.2787 34.9573 26.9193 35.1813 26.602C35.4053 26.2847 35.732 26.0373 36.1613 25.86C36.6 25.6733 37.132 25.58 37.7573 25.58C38.2333 25.58 38.7093 25.6453 39.1853 25.776C39.6613 25.8973 40.0533 26.0607 40.3613 26.266L39.9273 27.064C39.6007 26.84 39.2507 26.6813 38.8773 26.588C38.504 26.4853 38.1307 26.434 37.7573 26.434C37.0947 26.434 36.6047 26.5507 36.2873 26.784C35.9793 27.008 35.8253 27.2973 35.8253 27.652C35.8253 27.932 35.9093 28.1513 36.0773 28.31C36.2547 28.4687 36.4833 28.5947 36.7633 28.688C37.0527 28.772 37.3653 28.842 37.7013 28.898C38.0467 28.954 38.3873 29.024 38.7233 29.108C39.0687 29.1827 39.3813 29.29 39.6613 29.43C39.9507 29.5607 40.1793 29.752 40.3473 30.004C40.5247 30.2467 40.6133 30.5687 40.6133 30.97C40.6133 31.3993 40.492 31.7727 40.2493 32.09C40.016 32.398 39.6707 32.6407 39.2133 32.818C38.7653 32.986 38.2193 33.07 37.5753 33.07ZM45.4753 33.07C44.8499 33.07 44.3039 32.9533 43.8373 32.72C43.3706 32.4867 43.0066 32.1367 42.7453 31.67C42.4933 31.2033 42.3673 30.62 42.3673 29.92V25.65H43.3613V29.808C43.3613 30.592 43.5526 31.1847 43.9353 31.586C44.3273 31.978 44.8733 32.174 45.5733 32.174C46.0866 32.174 46.5299 32.0713 46.9033 31.866C47.2859 31.6513 47.5753 31.3433 47.7713 30.942C47.9766 30.5407 48.0793 30.06 48.0793 29.5V25.65H49.0733V33H48.1213V30.984L48.2753 31.348C48.0419 31.8893 47.6779 32.314 47.1833 32.622C46.6979 32.9207 46.1286 33.07 45.4753 33.07ZM51.8435 33V25.65H52.7955V27.652L52.6975 27.302C52.9028 26.742 53.2482 26.3173 53.7335 26.028C54.2188 25.7293 54.8208 25.58 55.5395 25.58V26.546C55.5022 26.546 55.4648 26.546 55.4275 26.546C55.3902 26.5367 55.3528 26.532 55.3155 26.532C54.5408 26.532 53.9342 26.77 53.4955 27.246C53.0568 27.7127 52.8375 28.38 52.8375 29.248V33H51.8435ZM57.3533 33V25.65H58.3473V33H57.3533ZM57.8573 24.026C57.6519 24.026 57.4793 23.956 57.3393 23.816C57.1993 23.676 57.1293 23.508 57.1293 23.312C57.1293 23.116 57.1993 22.9527 57.3393 22.822C57.4793 22.682 57.6519 22.612 57.8573 22.612C58.0626 22.612 58.2353 22.6773 58.3753 22.808C58.5153 22.9387 58.5853 23.102 58.5853 23.298C58.5853 23.5033 58.5153 23.676 58.3753 23.816C58.2446 23.956 58.0719 24.026 57.8573 24.026ZM64.865 25.58C65.4624 25.58 65.985 25.6967 66.433 25.93C66.8904 26.154 67.245 26.4993 67.497 26.966C67.7584 27.4327 67.889 28.0207 67.889 28.73V33H66.895V28.828C66.895 28.0533 66.699 27.47 66.307 27.078C65.9244 26.6767 65.383 26.476 64.683 26.476C64.1604 26.476 63.703 26.5833 63.311 26.798C62.9284 27.0033 62.6297 27.3067 62.415 27.708C62.2097 28.1 62.107 28.576 62.107 29.136V33H61.113V25.65H62.065V27.666L61.911 27.288C62.1444 26.756 62.5177 26.3407 63.031 26.042C63.5444 25.734 64.1557 25.58 64.865 25.58ZM73.71 35.786C73.038 35.786 72.394 35.688 71.778 35.492C71.162 35.296 70.6626 35.016 70.28 34.652L70.784 33.896C71.1293 34.204 71.554 34.4467 72.058 34.624C72.5713 34.8107 73.1126 34.904 73.682 34.904C74.6153 34.904 75.3013 34.6847 75.74 34.246C76.1786 33.8167 76.398 33.1447 76.398 32.23V30.396L76.538 29.136L76.44 27.876V25.65H77.392V32.104C77.392 33.3733 77.0793 34.302 76.454 34.89C75.838 35.4873 74.9233 35.786 73.71 35.786ZM73.528 32.72C72.828 32.72 72.198 32.5707 71.638 32.272C71.078 31.964 70.6346 31.5393 70.308 30.998C69.9906 30.4567 69.832 29.836 69.832 29.136C69.832 28.436 69.9906 27.82 70.308 27.288C70.6346 26.7467 71.078 26.3267 71.638 26.028C72.198 25.7293 72.828 25.58 73.528 25.58C74.1813 25.58 74.7693 25.7153 75.292 25.986C75.8146 26.2567 76.23 26.658 76.538 27.19C76.846 27.722 77 28.3707 77 29.136C77 29.9013 76.846 30.55 76.538 31.082C76.23 31.614 75.8146 32.02 75.292 32.3C74.7693 32.58 74.1813 32.72 73.528 32.72ZM73.626 31.838C74.1673 31.838 74.648 31.726 75.068 31.502C75.488 31.2687 75.8193 30.9513 76.062 30.55C76.3046 30.1393 76.426 29.668 76.426 29.136C76.426 28.604 76.3046 28.1373 76.062 27.736C75.8193 27.3347 75.488 27.022 75.068 26.798C74.648 26.5647 74.1673 26.448 73.626 26.448C73.094 26.448 72.6133 26.5647 72.184 26.798C71.764 27.022 71.4326 27.3347 71.19 27.736C70.9566 28.1373 70.84 28.604 70.84 29.136C70.84 29.668 70.9566 30.1393 71.19 30.55C71.4326 30.9513 71.764 31.2687 72.184 31.502C72.6133 31.726 73.094 31.838 73.626 31.838ZM85.838 33.084C85.222 33.084 84.634 33 84.074 32.832C83.5234 32.664 83.0894 32.4587 82.772 32.216L83.332 31.152C83.6494 31.3667 84.0414 31.5487 84.508 31.698C84.9747 31.8473 85.4507 31.922 85.936 31.922C86.5614 31.922 87.0094 31.8333 87.28 31.656C87.56 31.4787 87.7 31.2313 87.7 30.914C87.7 30.6807 87.616 30.4987 87.448 30.368C87.28 30.2373 87.056 30.1393 86.776 30.074C86.5054 30.0087 86.202 29.9527 85.866 29.906C85.53 29.85 85.194 29.7847 84.858 29.71C84.522 29.626 84.214 29.514 83.934 29.374C83.654 29.2247 83.43 29.024 83.262 28.772C83.094 28.5107 83.01 28.1653 83.01 27.736C83.01 27.288 83.136 26.896 83.388 26.56C83.64 26.224 83.9947 25.9673 84.452 25.79C84.9187 25.6033 85.4694 25.51 86.104 25.51C86.5894 25.51 87.0794 25.5707 87.574 25.692C88.078 25.804 88.4887 25.9673 88.806 26.182L88.232 27.246C87.896 27.022 87.546 26.868 87.182 26.784C86.818 26.7 86.454 26.658 86.09 26.658C85.502 26.658 85.0634 26.756 84.774 26.952C84.4847 27.1387 84.34 27.3813 84.34 27.68C84.34 27.932 84.424 28.128 84.592 28.268C84.7694 28.3987 84.9934 28.5013 85.264 28.576C85.544 28.6507 85.852 28.716 86.188 28.772C86.524 28.8187 86.86 28.884 87.196 28.968C87.532 29.0427 87.8354 29.15 88.106 29.29C88.386 29.43 88.61 29.626 88.778 29.878C88.9554 30.13 89.044 30.466 89.044 30.886C89.044 31.334 88.9134 31.7213 88.652 32.048C88.3907 32.3747 88.022 32.6313 87.546 32.818C87.07 32.9953 86.5007 33.084 85.838 33.084ZM95.3297 33V31.432L95.2597 31.138V28.464C95.2597 27.8947 95.0917 27.456 94.7557 27.148C94.429 26.8307 93.9344 26.672 93.2717 26.672C92.833 26.672 92.4037 26.7467 91.9837 26.896C91.5637 27.036 91.209 27.2273 90.9197 27.47L90.3597 26.462C90.7424 26.154 91.1997 25.9207 91.7317 25.762C92.273 25.594 92.8377 25.51 93.4257 25.51C94.443 25.51 95.227 25.7573 95.7777 26.252C96.3284 26.7467 96.6037 27.5027 96.6037 28.52V33H95.3297ZM92.8937 33.084C92.343 33.084 91.8577 32.9907 91.4377 32.804C91.027 32.6173 90.7097 32.3607 90.4857 32.034C90.2617 31.698 90.1497 31.32 90.1497 30.9C90.1497 30.4987 90.243 30.1347 90.4297 29.808C90.6257 29.4813 90.9384 29.22 91.3677 29.024C91.8064 28.828 92.3944 28.73 93.1317 28.73H95.4837V29.696H93.1877C92.5157 29.696 92.063 29.808 91.8297 30.032C91.5964 30.256 91.4797 30.5267 91.4797 30.844C91.4797 31.208 91.6244 31.502 91.9137 31.726C92.203 31.9407 92.6044 32.048 93.1177 32.048C93.6217 32.048 94.0604 31.936 94.4337 31.712C94.8164 31.488 95.0917 31.1613 95.2597 30.732L95.5257 31.656C95.3484 32.0947 95.0357 32.4447 94.5877 32.706C94.1397 32.958 93.575 33.084 92.8937 33.084ZM99.2869 33V24.922C99.2869 24.194 99.4969 23.6153 99.9169 23.186C100.346 22.7473 100.953 22.528 101.737 22.528C102.026 22.528 102.302 22.5653 102.563 22.64C102.834 22.7053 103.062 22.8127 103.249 22.962L102.843 23.984C102.703 23.872 102.544 23.788 102.367 23.732C102.19 23.6667 102.003 23.634 101.807 23.634C101.415 23.634 101.116 23.746 100.911 23.97C100.706 24.1847 100.603 24.5067 100.603 24.936V25.93L100.631 26.546V33H99.2869ZM98.0269 26.686V25.58H102.759V26.686H98.0269ZM107.221 33.084C106.428 33.084 105.728 32.9207 105.121 32.594C104.524 32.2673 104.057 31.8193 103.721 31.25C103.394 30.6807 103.231 30.0273 103.231 29.29C103.231 28.5527 103.39 27.8993 103.707 27.33C104.034 26.7607 104.477 26.3173 105.037 26C105.606 25.6733 106.246 25.51 106.955 25.51C107.674 25.51 108.308 25.6687 108.859 25.986C109.41 26.3033 109.839 26.7513 110.147 27.33C110.464 27.8993 110.623 28.5667 110.623 29.332C110.623 29.388 110.618 29.4533 110.609 29.528C110.609 29.6027 110.604 29.6727 110.595 29.738H104.281V28.772H109.895L109.349 29.108C109.358 28.632 109.26 28.2073 109.055 27.834C108.85 27.4607 108.565 27.1713 108.201 26.966C107.846 26.7513 107.431 26.644 106.955 26.644C106.488 26.644 106.073 26.7513 105.709 26.966C105.345 27.1713 105.06 27.4653 104.855 27.848C104.65 28.2213 104.547 28.6507 104.547 29.136V29.36C104.547 29.8547 104.659 30.298 104.883 30.69C105.116 31.0727 105.438 31.3713 105.849 31.586C106.26 31.8007 106.731 31.908 107.263 31.908C107.702 31.908 108.098 31.8333 108.453 31.684C108.817 31.5347 109.134 31.3107 109.405 31.012L110.147 31.88C109.811 32.272 109.391 32.5707 108.887 32.776C108.392 32.9813 107.837 33.084 107.221 33.084ZM118.377 33.084C117.761 33.084 117.173 33 116.613 32.832C116.062 32.664 115.628 32.4587 115.311 32.216L115.871 31.152C116.188 31.3667 116.58 31.5487 117.047 31.698C117.514 31.8473 117.99 31.922 118.475 31.922C119.1 31.922 119.548 31.8333 119.819 31.656C120.099 31.4787 120.239 31.2313 120.239 30.914C120.239 30.6807 120.155 30.4987 119.987 30.368C119.819 30.2373 119.595 30.1393 119.315 30.074C119.044 30.0087 118.741 29.9527 118.405 29.906C118.069 29.85 117.733 29.7847 117.397 29.71C117.061 29.626 116.753 29.514 116.473 29.374C116.193 29.2247 115.969 29.024 115.801 28.772C115.633 28.5107 115.549 28.1653 115.549 27.736C115.549 27.288 115.675 26.896 115.927 26.56C116.179 26.224 116.534 25.9673 116.991 25.79C117.458 25.6033 118.008 25.51 118.643 25.51C119.128 25.51 119.618 25.5707 120.113 25.692C120.617 25.804 121.028 25.9673 121.345 26.182L120.771 27.246C120.435 27.022 120.085 26.868 119.721 26.784C119.357 26.7 118.993 26.658 118.629 26.658C118.041 26.658 117.602 26.756 117.313 26.952C117.024 27.1387 116.879 27.3813 116.879 27.68C116.879 27.932 116.963 28.128 117.131 28.268C117.308 28.3987 117.532 28.5013 117.803 28.576C118.083 28.6507 118.391 28.716 118.727 28.772C119.063 28.8187 119.399 28.884 119.735 28.968C120.071 29.0427 120.374 29.15 120.645 29.29C120.925 29.43 121.149 29.626 121.317 29.878C121.494 30.13 121.583 30.466 121.583 30.886C121.583 31.334 121.452 31.7213 121.191 32.048C120.93 32.3747 120.561 32.6313 120.085 32.818C119.609 32.9953 119.04 33.084 118.377 33.084ZM126.567 33.084C125.773 33.084 125.073 32.9207 124.467 32.594C123.869 32.2673 123.403 31.8193 123.067 31.25C122.74 30.6807 122.577 30.0273 122.577 29.29C122.577 28.5527 122.735 27.8993 123.053 27.33C123.379 26.7607 123.823 26.3173 124.383 26C124.952 25.6733 125.591 25.51 126.301 25.51C127.019 25.51 127.654 25.6687 128.205 25.986C128.755 26.3033 129.185 26.7513 129.493 27.33C129.81 27.8993 129.969 28.5667 129.969 29.332C129.969 29.388 129.964 29.4533 129.955 29.528C129.955 29.6027 129.95 29.6727 129.941 29.738H123.627V28.772H129.241L128.695 29.108C128.704 28.632 128.606 28.2073 128.401 27.834C128.195 27.4607 127.911 27.1713 127.547 26.966C127.192 26.7513 126.777 26.644 126.301 26.644C125.834 26.644 125.419 26.7513 125.055 26.966C124.691 27.1713 124.406 27.4653 124.201 27.848C123.995 28.2213 123.893 28.6507 123.893 29.136V29.36C123.893 29.8547 124.005 30.298 124.229 30.69C124.462 31.0727 124.784 31.3713 125.195 31.586C125.605 31.8007 126.077 31.908 126.609 31.908C127.047 31.908 127.444 31.8333 127.799 31.684C128.163 31.5347 128.48 31.3107 128.751 31.012L129.493 31.88C129.157 32.272 128.737 32.5707 128.233 32.776C127.738 32.9813 127.183 33.084 126.567 33.084ZM136.236 33V31.432L136.166 31.138V28.464C136.166 27.8947 135.998 27.456 135.662 27.148C135.335 26.8307 134.841 26.672 134.178 26.672C133.739 26.672 133.31 26.7467 132.89 26.896C132.47 27.036 132.115 27.2273 131.826 27.47L131.266 26.462C131.649 26.154 132.106 25.9207 132.638 25.762C133.179 25.594 133.744 25.51 134.332 25.51C135.349 25.51 136.133 25.7573 136.684 26.252C137.235 26.7467 137.51 27.5027 137.51 28.52V33H136.236ZM133.8 33.084C133.249 33.084 132.764 32.9907 132.344 32.804C131.933 32.6173 131.616 32.3607 131.392 32.034C131.168 31.698 131.056 31.32 131.056 30.9C131.056 30.4987 131.149 30.1347 131.336 29.808C131.532 29.4813 131.845 29.22 132.274 29.024C132.713 28.828 133.301 28.73 134.038 28.73H136.39V29.696H134.094C133.422 29.696 132.969 29.808 132.736 30.032C132.503 30.256 132.386 30.5267 132.386 30.844C132.386 31.208 132.531 31.502 132.82 31.726C133.109 31.9407 133.511 32.048 134.024 32.048C134.528 32.048 134.967 31.936 135.34 31.712C135.723 31.488 135.998 31.1613 136.166 30.732L136.432 31.656C136.255 32.0947 135.942 32.4447 135.494 32.706C135.046 32.958 134.481 33.084 133.8 33.084ZM139.997 33V22.612H141.341V33H139.997ZM143.907 33V25.58H145.251V33H143.907ZM144.579 24.152C144.318 24.152 144.099 24.068 143.921 23.9C143.753 23.732 143.669 23.5267 143.669 23.284C143.669 23.032 143.753 22.822 143.921 22.654C144.099 22.486 144.318 22.402 144.579 22.402C144.841 22.402 145.055 22.486 145.223 22.654C145.401 22.8127 145.489 23.0133 145.489 23.256C145.489 23.508 145.405 23.7227 145.237 23.9C145.069 24.068 144.85 24.152 144.579 24.152ZM151.779 25.51C152.386 25.51 152.918 25.6267 153.375 25.86C153.842 26.0933 154.206 26.448 154.467 26.924C154.729 27.4 154.859 28.002 154.859 28.73V33H153.515V28.884C153.515 28.1653 153.338 27.624 152.983 27.26C152.638 26.896 152.148 26.714 151.513 26.714C151.037 26.714 150.622 26.8073 150.267 26.994C149.913 27.1807 149.637 27.456 149.441 27.82C149.255 28.184 149.161 28.6367 149.161 29.178V33H147.817V25.58H149.105V27.582L148.895 27.05C149.138 26.5647 149.511 26.1867 150.015 25.916C150.519 25.6453 151.107 25.51 151.779 25.51ZM160.595 35.8C159.913 35.8 159.251 35.702 158.607 35.506C157.972 35.3193 157.454 35.0487 157.053 34.694L157.697 33.658C158.042 33.9567 158.467 34.19 158.971 34.358C159.475 34.5353 160.002 34.624 160.553 34.624C161.43 34.624 162.074 34.4187 162.485 34.008C162.895 33.5973 163.101 32.972 163.101 32.132V30.564L163.241 29.094L163.171 27.61V25.58H164.445V31.992C164.445 33.2987 164.118 34.26 163.465 34.876C162.811 35.492 161.855 35.8 160.595 35.8ZM160.427 32.692C159.708 32.692 159.064 32.5427 158.495 32.244C157.935 31.936 157.487 31.5113 157.151 30.97C156.824 30.4287 156.661 29.8033 156.661 29.094C156.661 28.3753 156.824 27.75 157.151 27.218C157.487 26.6767 157.935 26.2567 158.495 25.958C159.064 25.6593 159.708 25.51 160.427 25.51C161.061 25.51 161.64 25.6407 162.163 25.902C162.685 26.154 163.101 26.546 163.409 27.078C163.726 27.61 163.885 28.282 163.885 29.094C163.885 29.8967 163.726 30.564 163.409 31.096C163.101 31.628 162.685 32.0293 162.163 32.3C161.64 32.5613 161.061 32.692 160.427 32.692ZM160.581 31.516C161.075 31.516 161.514 31.4133 161.897 31.208C162.279 31.0027 162.578 30.718 162.793 30.354C163.017 29.99 163.129 29.57 163.129 29.094C163.129 28.618 163.017 28.198 162.793 27.834C162.578 27.47 162.279 27.19 161.897 26.994C161.514 26.7887 161.075 26.686 160.581 26.686C160.086 26.686 159.643 26.7887 159.251 26.994C158.868 27.19 158.565 27.47 158.341 27.834C158.126 28.198 158.019 28.618 158.019 29.094C158.019 29.57 158.126 29.99 158.341 30.354C158.565 30.718 158.868 31.0027 159.251 31.208C159.643 31.4133 160.086 31.516 160.581 31.516ZM170.969 33V24.922C170.969 24.194 171.179 23.6153 171.599 23.186C172.028 22.7473 172.635 22.528 173.419 22.528C173.708 22.528 173.983 22.5653 174.245 22.64C174.515 22.7053 174.744 22.8127 174.931 22.962L174.525 23.984C174.385 23.872 174.226 23.788 174.049 23.732C173.871 23.6667 173.685 23.634 173.489 23.634C173.097 23.634 172.798 23.746 172.593 23.97C172.387 24.1847 172.285 24.5067 172.285 24.936V25.93L172.313 26.546V33H170.969ZM169.709 26.686V25.58H174.441V26.686H169.709ZM178.777 33.084C178.03 33.084 177.367 32.9207 176.789 32.594C176.21 32.2673 175.753 31.8193 175.417 31.25C175.081 30.6713 174.913 30.018 174.913 29.29C174.913 28.5527 175.081 27.8993 175.417 27.33C175.753 26.7607 176.21 26.3173 176.789 26C177.367 25.6733 178.03 25.51 178.777 25.51C179.514 25.51 180.172 25.6733 180.751 26C181.339 26.3173 181.796 26.7607 182.123 27.33C182.459 27.89 182.627 28.5433 182.627 29.29C182.627 30.0273 182.459 30.6807 182.123 31.25C181.796 31.8193 181.339 32.2673 180.751 32.594C180.172 32.9207 179.514 33.084 178.777 33.084ZM178.777 31.908C179.253 31.908 179.677 31.8007 180.051 31.586C180.433 31.3713 180.732 31.068 180.947 30.676C181.161 30.2747 181.269 29.8127 181.269 29.29C181.269 28.758 181.161 28.3007 180.947 27.918C180.732 27.526 180.433 27.2227 180.051 27.008C179.677 26.7933 179.253 26.686 178.777 26.686C178.301 26.686 177.876 26.7933 177.503 27.008C177.129 27.2227 176.831 27.526 176.607 27.918C176.383 28.3007 176.271 28.758 176.271 29.29C176.271 29.8127 176.383 30.2747 176.607 30.676C176.831 31.068 177.129 31.3713 177.503 31.586C177.876 31.8007 178.301 31.908 178.777 31.908ZM184.485 33V25.58H185.773V27.596L185.647 27.092C185.853 26.5787 186.198 26.1867 186.683 25.916C187.169 25.6453 187.766 25.51 188.475 25.51V26.812C188.419 26.8027 188.363 26.798 188.307 26.798C188.261 26.798 188.214 26.798 188.167 26.798C187.449 26.798 186.879 27.0127 186.459 27.442C186.039 27.8713 185.829 28.492 185.829 29.304V33H184.485ZM196.115 33.084C195.499 33.084 194.911 33 194.351 32.832C193.801 32.664 193.367 32.4587 193.049 32.216L193.609 31.152C193.927 31.3667 194.319 31.5487 194.785 31.698C195.252 31.8473 195.728 31.922 196.213 31.922C196.839 31.922 197.287 31.8333 197.557 31.656C197.837 31.4787 197.977 31.2313 197.977 30.914C197.977 30.6807 197.893 30.4987 197.725 30.368C197.557 30.2373 197.333 30.1393 197.053 30.074C196.783 30.0087 196.479 29.9527 196.143 29.906C195.807 29.85 195.471 29.7847 195.135 29.71C194.799 29.626 194.491 29.514 194.211 29.374C193.931 29.2247 193.707 29.024 193.539 28.772C193.371 28.5107 193.287 28.1653 193.287 27.736C193.287 27.288 193.413 26.896 193.665 26.56C193.917 26.224 194.272 25.9673 194.729 25.79C195.196 25.6033 195.747 25.51 196.381 25.51C196.867 25.51 197.357 25.5707 197.851 25.692C198.355 25.804 198.766 25.9673 199.083 26.182L198.509 27.246C198.173 27.022 197.823 26.868 197.459 26.784C197.095 26.7 196.731 26.658 196.367 26.658C195.779 26.658 195.341 26.756 195.051 26.952C194.762 27.1387 194.617 27.3813 194.617 27.68C194.617 27.932 194.701 28.128 194.869 28.268C195.047 28.3987 195.271 28.5013 195.541 28.576C195.821 28.6507 196.129 28.716 196.465 28.772C196.801 28.8187 197.137 28.884 197.473 28.968C197.809 29.0427 198.113 29.15 198.383 29.29C198.663 29.43 198.887 29.626 199.055 29.878C199.233 30.13 199.321 30.466 199.321 30.886C199.321 31.334 199.191 31.7213 198.929 32.048C198.668 32.3747 198.299 32.6313 197.823 32.818C197.347 32.9953 196.778 33.084 196.115 33.084ZM201.001 33V25.58H202.345V33H201.001ZM201.673 24.152C201.412 24.152 201.192 24.068 201.015 23.9C200.847 23.732 200.763 23.5267 200.763 23.284C200.763 23.032 200.847 22.822 201.015 22.654C201.192 22.486 201.412 22.402 201.673 22.402C201.934 22.402 202.149 22.486 202.317 22.654C202.494 22.8127 202.583 23.0133 202.583 23.256C202.583 23.508 202.499 23.7227 202.331 23.9C202.163 24.068 201.944 24.152 201.673 24.152ZM208.873 25.51C209.48 25.51 210.012 25.6267 210.469 25.86C210.936 26.0933 211.3 26.448 211.561 26.924C211.823 27.4 211.953 28.002 211.953 28.73V33H210.609V28.884C210.609 28.1653 210.432 27.624 210.077 27.26C209.732 26.896 209.242 26.714 208.607 26.714C208.131 26.714 207.716 26.8073 207.361 26.994C207.007 27.1807 206.731 27.456 206.535 27.82C206.349 28.184 206.255 28.6367 206.255 29.178V33H204.911V25.58H206.199V27.582L205.989 27.05C206.232 26.5647 206.605 26.1867 207.109 25.916C207.613 25.6453 208.201 25.51 208.873 25.51ZM217.688 35.8C217.007 35.8 216.344 35.702 215.7 35.506C215.066 35.3193 214.548 35.0487 214.146 34.694L214.79 33.658C215.136 33.9567 215.56 34.19 216.064 34.358C216.568 34.5353 217.096 34.624 217.646 34.624C218.524 34.624 219.168 34.4187 219.578 34.008C219.989 33.5973 220.194 32.972 220.194 32.132V30.564L220.334 29.094L220.264 27.61V25.58H221.538V31.992C221.538 33.2987 221.212 34.26 220.558 34.876C219.905 35.492 218.948 35.8 217.688 35.8ZM217.52 32.692C216.802 32.692 216.158 32.5427 215.588 32.244C215.028 31.936 214.58 31.5113 214.244 30.97C213.918 30.4287 213.754 29.8033 213.754 29.094C213.754 28.3753 213.918 27.75 214.244 27.218C214.58 26.6767 215.028 26.2567 215.588 25.958C216.158 25.6593 216.802 25.51 217.52 25.51C218.155 25.51 218.734 25.6407 219.256 25.902C219.779 26.154 220.194 26.546 220.502 27.078C220.82 27.61 220.978 28.282 220.978 29.094C220.978 29.8967 220.82 30.564 220.502 31.096C220.194 31.628 219.779 32.0293 219.256 32.3C218.734 32.5613 218.155 32.692 217.52 32.692ZM217.674 31.516C218.169 31.516 218.608 31.4133 218.99 31.208C219.373 31.0027 219.672 30.718 219.886 30.354C220.11 29.99 220.222 29.57 220.222 29.094C220.222 28.618 220.11 28.198 219.886 27.834C219.672 27.47 219.373 27.19 218.99 26.994C218.608 26.7887 218.169 26.686 217.674 26.686C217.18 26.686 216.736 26.7887 216.344 26.994C215.962 27.19 215.658 27.47 215.434 27.834C215.22 28.198 215.112 28.618 215.112 29.094C215.112 29.57 215.22 29.99 215.434 30.354C215.658 30.718 215.962 31.0027 216.344 31.208C216.736 31.4133 217.18 31.516 217.674 31.516ZM224.107 33V22.612H225.451V33H224.107ZM231.321 33.084C230.527 33.084 229.827 32.9207 229.221 32.594C228.623 32.2673 228.157 31.8193 227.821 31.25C227.494 30.6807 227.331 30.0273 227.331 29.29C227.331 28.5527 227.489 27.8993 227.807 27.33C228.133 26.7607 228.577 26.3173 229.137 26C229.706 25.6733 230.345 25.51 231.055 25.51C231.773 25.51 232.408 25.6687 232.959 25.986C233.509 26.3033 233.939 26.7513 234.247 27.33C234.564 27.8993 234.723 28.5667 234.723 29.332C234.723 29.388 234.718 29.4533 234.709 29.528C234.709 29.6027 234.704 29.6727 234.695 29.738H228.381V28.772H233.995L233.449 29.108C233.458 28.632 233.36 28.2073 233.155 27.834C232.949 27.4607 232.665 27.1713 232.301 26.966C231.946 26.7513 231.531 26.644 231.055 26.644C230.588 26.644 230.173 26.7513 229.809 26.966C229.445 27.1713 229.16 27.4653 228.955 27.848C228.749 28.2213 228.647 28.6507 228.647 29.136V29.36C228.647 29.8547 228.759 30.298 228.983 30.69C229.216 31.0727 229.538 31.3713 229.949 31.586C230.359 31.8007 230.831 31.908 231.363 31.908C231.801 31.908 232.198 31.8333 232.553 31.684C232.917 31.5347 233.234 31.3107 233.505 31.012L234.247 31.88C233.911 32.272 233.491 32.5707 232.987 32.776C232.492 32.9813 231.937 33.084 231.321 33.084ZM242.477 33.084C241.861 33.084 241.273 33 240.713 32.832C240.162 32.664 239.728 32.4587 239.411 32.216L239.971 31.152C240.288 31.3667 240.68 31.5487 241.147 31.698C241.613 31.8473 242.089 31.922 242.575 31.922C243.2 31.922 243.648 31.8333 243.919 31.656C244.199 31.4787 244.339 31.2313 244.339 30.914C244.339 30.6807 244.255 30.4987 244.087 30.368C243.919 30.2373 243.695 30.1393 243.415 30.074C243.144 30.0087 242.841 29.9527 242.505 29.906C242.169 29.85 241.833 29.7847 241.497 29.71C241.161 29.626 240.853 29.514 240.573 29.374C240.293 29.2247 240.069 29.024 239.901 28.772C239.733 28.5107 239.649 28.1653 239.649 27.736C239.649 27.288 239.775 26.896 240.027 26.56C240.279 26.224 240.633 25.9673 241.091 25.79C241.557 25.6033 242.108 25.51 242.743 25.51C243.228 25.51 243.718 25.5707 244.213 25.692C244.717 25.804 245.127 25.9673 245.445 26.182L244.871 27.246C244.535 27.022 244.185 26.868 243.821 26.784C243.457 26.7 243.093 26.658 242.729 26.658C242.141 26.658 241.702 26.756 241.413 26.952C241.123 27.1387 240.979 27.3813 240.979 27.68C240.979 27.932 241.063 28.128 241.231 28.268C241.408 28.3987 241.632 28.5013 241.903 28.576C242.183 28.6507 242.491 28.716 242.827 28.772C243.163 28.8187 243.499 28.884 243.835 28.968C244.171 29.0427 244.474 29.15 244.745 29.29C245.025 29.43 245.249 29.626 245.417 29.878C245.594 30.13 245.683 30.466 245.683 30.886C245.683 31.334 245.552 31.7213 245.291 32.048C245.029 32.3747 244.661 32.6313 244.185 32.818C243.709 32.9953 243.139 33.084 242.477 33.084ZM250.666 33.084C249.873 33.084 249.173 32.9207 248.566 32.594C247.969 32.2673 247.502 31.8193 247.166 31.25C246.84 30.6807 246.676 30.0273 246.676 29.29C246.676 28.5527 246.835 27.8993 247.152 27.33C247.479 26.7607 247.922 26.3173 248.482 26C249.052 25.6733 249.691 25.51 250.4 25.51C251.119 25.51 251.754 25.6687 252.304 25.986C252.855 26.3033 253.284 26.7513 253.592 27.33C253.91 27.8993 254.068 28.5667 254.068 29.332C254.068 29.388 254.064 29.4533 254.054 29.528C254.054 29.6027 254.05 29.6727 254.04 29.738H247.726V28.772H253.34L252.794 29.108C252.804 28.632 252.706 28.2073 252.5 27.834C252.295 27.4607 252.01 27.1713 251.646 26.966C251.292 26.7513 250.876 26.644 250.4 26.644C249.934 26.644 249.518 26.7513 249.154 26.966C248.79 27.1713 248.506 27.4653 248.3 27.848C248.095 28.2213 247.992 28.6507 247.992 29.136V29.36C247.992 29.8547 248.104 30.298 248.328 30.69C248.562 31.0727 248.884 31.3713 249.294 31.586C249.705 31.8007 250.176 31.908 250.708 31.908C251.147 31.908 251.544 31.8333 251.898 31.684C252.262 31.5347 252.58 31.3107 252.85 31.012L253.592 31.88C253.256 32.272 252.836 32.5707 252.332 32.776C251.838 32.9813 251.282 33.084 250.666 33.084ZM255.935 33V25.58H257.223V27.596L257.097 27.092C257.302 26.5787 257.647 26.1867 258.133 25.916C258.618 25.6453 259.215 25.51 259.925 25.51V26.812C259.869 26.8027 259.813 26.798 259.757 26.798C259.71 26.798 259.663 26.798 259.617 26.798C258.898 26.798 258.329 27.0127 257.909 27.442C257.489 27.8713 257.279 28.492 257.279 29.304V33H255.935ZM263.828 33L260.58 25.58H261.98L264.864 32.3H264.192L267.132 25.58H268.448L265.2 33H263.828ZM269.702 33V25.58H271.046V33H269.702ZM270.374 24.152C270.113 24.152 269.894 24.068 269.716 23.9C269.548 23.732 269.464 23.5267 269.464 23.284C269.464 23.032 269.548 22.822 269.716 22.654C269.894 22.486 270.113 22.402 270.374 22.402C270.636 22.402 270.85 22.486 271.018 22.654C271.196 22.8127 271.284 23.0133 271.284 23.256C271.284 23.508 271.2 23.7227 271.032 23.9C270.864 24.068 270.645 24.152 270.374 24.152ZM277.574 25.51C278.181 25.51 278.713 25.6267 279.17 25.86C279.637 26.0933 280.001 26.448 280.262 26.924C280.524 27.4 280.654 28.002 280.654 28.73V33H279.31V28.884C279.31 28.1653 279.133 27.624 278.778 27.26C278.433 26.896 277.943 26.714 277.308 26.714C276.832 26.714 276.417 26.8073 276.062 26.994C275.708 27.1807 275.432 27.456 275.236 27.82C275.05 28.184 274.956 28.6367 274.956 29.178V33H273.612V25.58H274.9V27.582L274.69 27.05C274.933 26.5647 275.306 26.1867 275.81 25.916C276.314 25.6453 276.902 25.51 277.574 25.51ZM286.39 35.8C285.708 35.8 285.046 35.702 284.402 35.506C283.767 35.3193 283.249 35.0487 282.848 34.694L283.492 33.658C283.837 33.9567 284.262 34.19 284.766 34.358C285.27 34.5353 285.797 34.624 286.348 34.624C287.225 34.624 287.869 34.4187 288.28 34.008C288.69 33.5973 288.896 32.972 288.896 32.132V30.564L289.036 29.094L288.966 27.61V25.58H290.24V31.992C290.24 33.2987 289.913 34.26 289.26 34.876C288.606 35.492 287.65 35.8 286.39 35.8ZM286.222 32.692C285.503 32.692 284.859 32.5427 284.29 32.244C283.73 31.936 283.282 31.5113 282.946 30.97C282.619 30.4287 282.456 29.8033 282.456 29.094C282.456 28.3753 282.619 27.75 282.946 27.218C283.282 26.6767 283.73 26.2567 284.29 25.958C284.859 25.6593 285.503 25.51 286.222 25.51C286.856 25.51 287.435 25.6407 287.958 25.902C288.48 26.154 288.896 26.546 289.204 27.078C289.521 27.61 289.68 28.282 289.68 29.094C289.68 29.8967 289.521 30.564 289.204 31.096C288.896 31.628 288.48 32.0293 287.958 32.3C287.435 32.5613 286.856 32.692 286.222 32.692ZM286.376 31.516C286.87 31.516 287.309 31.4133 287.692 31.208C288.074 31.0027 288.373 30.718 288.588 30.354C288.812 29.99 288.924 29.57 288.924 29.094C288.924 28.618 288.812 28.198 288.588 27.834C288.373 27.47 288.074 27.19 287.692 26.994C287.309 26.7887 286.87 26.686 286.376 26.686C285.881 26.686 285.438 26.7887 285.046 26.994C284.663 27.19 284.36 27.47 284.136 27.834C283.921 28.198 283.814 28.618 283.814 29.094C283.814 29.57 283.921 29.99 284.136 30.354C284.36 30.718 284.663 31.0027 285.046 31.208C285.438 31.4133 285.881 31.516 286.376 31.516ZM294.936 33.084C294.32 33.084 293.732 33 293.172 32.832C292.621 32.664 292.187 32.4587 291.87 32.216L292.43 31.152C292.747 31.3667 293.139 31.5487 293.606 31.698C294.072 31.8473 294.548 31.922 295.034 31.922C295.659 31.922 296.107 31.8333 296.378 31.656C296.658 31.4787 296.798 31.2313 296.798 30.914C296.798 30.6807 296.714 30.4987 296.546 30.368C296.378 30.2373 296.154 30.1393 295.874 30.074C295.603 30.0087 295.3 29.9527 294.964 29.906C294.628 29.85 294.292 29.7847 293.956 29.71C293.62 29.626 293.312 29.514 293.032 29.374C292.752 29.2247 292.528 29.024 292.36 28.772C292.192 28.5107 292.108 28.1653 292.108 27.736C292.108 27.288 292.234 26.896 292.486 26.56C292.738 26.224 293.092 25.9673 293.55 25.79C294.016 25.6033 294.567 25.51 295.202 25.51C295.687 25.51 296.177 25.5707 296.672 25.692C297.176 25.804 297.586 25.9673 297.904 26.182L297.33 27.246C296.994 27.022 296.644 26.868 296.28 26.784C295.916 26.7 295.552 26.658 295.188 26.658C294.6 26.658 294.161 26.756 293.872 26.952C293.582 27.1387 293.438 27.3813 293.438 27.68C293.438 27.932 293.522 28.128 293.69 28.268C293.867 28.3987 294.091 28.5013 294.362 28.576C294.642 28.6507 294.95 28.716 295.286 28.772C295.622 28.8187 295.958 28.884 296.294 28.968C296.63 29.0427 296.933 29.15 297.204 29.29C297.484 29.43 297.708 29.626 297.876 29.878C298.053 30.13 298.142 30.466 298.142 30.886C298.142 31.334 298.011 31.7213 297.75 32.048C297.488 32.3747 297.12 32.6313 296.644 32.818C296.168 32.9953 295.598 33.084 294.936 33.084ZM300.143 33.084C299.882 33.084 299.658 32.9953 299.471 32.818C299.285 32.6313 299.191 32.398 299.191 32.118C299.191 31.838 299.285 31.6093 299.471 31.432C299.658 31.2547 299.882 31.166 300.143 31.166C300.395 31.166 300.61 31.2547 300.787 31.432C300.974 31.6093 301.067 31.838 301.067 32.118C301.067 32.398 300.974 32.6313 300.787 32.818C300.61 32.9953 300.395 33.084 300.143 33.084Z" fill="black"/>
</svg>
