<svg width="165" height="50" viewBox="0 0 165 50" fill="none" xmlns="http://www.w3.org/2000/svg">
<g filter="url(#filter0_d_2040_758)">
<rect x="24.1406" y="4.7168" width="33" height="31" rx="6" transform="rotate(46.3303 24.1406 4.7168)" fill="white"/>
</g>
<path d="M20.1982 21.1045H28.2373C28.4651 21.1045 28.6809 21.2079 28.8232 21.3857L30.3037 23.2363C30.4101 23.3693 30.4677 23.5348 30.4678 23.7051V33.3545C30.4678 33.7687 30.132 34.1045 29.7178 34.1045H18.7178C18.3036 34.1045 17.9678 33.7687 17.9678 33.3545V23.7051C17.9678 23.5348 18.0255 23.3693 18.1318 23.2363L19.6123 21.3857C19.7546 21.2079 19.9705 21.1045 20.1982 21.1045Z" stroke="black" stroke-width="0.5"/>
<path d="M18.2178 23.3545H30.2178" stroke="black" stroke-width="0.5"/>
<path d="M26.4678 23.6045V29.834L24.374 28.1592L24.2178 28.0342L24.0615 28.1592L21.9678 29.834V23.6045H26.4678Z" stroke="black" stroke-width="0.5"/>
<path d="M56.048 23.667V14.219H60.1376C60.9835 14.219 61.7123 14.3585 62.3242 14.6374C62.936 14.9073 63.4084 15.2988 63.7414 15.8117C64.0743 16.3245 64.2408 16.9364 64.2408 17.6473C64.2408 18.3491 64.0743 18.9565 63.7414 19.4694C63.4084 19.9823 62.936 20.3782 62.3242 20.6571C61.7123 20.9271 60.9835 21.062 60.1376 21.062H57.2627L58.2345 20.0768V23.667H56.048ZM58.2345 20.3197L57.2627 19.2804H60.0162C60.691 19.2804 61.1949 19.1365 61.5278 18.8485C61.8608 18.5606 62.0272 18.1602 62.0272 17.6473C62.0272 17.1254 61.8608 16.7205 61.5278 16.4325C61.1949 16.1446 60.691 16.0006 60.0162 16.0006H57.2627L58.2345 14.9613V20.3197ZM69.1494 23.775C68.3666 23.775 67.6692 23.6175 67.0573 23.3026C66.4455 22.9786 65.9641 22.5332 65.6131 21.9664C65.2712 21.3995 65.1003 20.7561 65.1003 20.0363C65.1003 19.3074 65.2712 18.6641 65.6131 18.1062C65.9641 17.5393 66.4455 17.0984 67.0573 16.7834C67.6692 16.4595 68.3666 16.2976 69.1494 16.2976C69.9142 16.2976 70.5801 16.4595 71.147 16.7834C71.7139 17.0984 72.1323 17.5528 72.4022 18.1467L70.7691 19.024C70.5801 18.682 70.3416 18.4301 70.0537 18.2681C69.7748 18.1062 69.4688 18.0252 69.1359 18.0252C68.776 18.0252 68.452 18.1062 68.1641 18.2681C67.8762 18.4301 67.6467 18.6596 67.4758 18.9565C67.3138 19.2534 67.2328 19.6133 67.2328 20.0363C67.2328 20.4592 67.3138 20.8191 67.4758 21.116C67.6467 21.413 67.8762 21.6424 68.1641 21.8044C68.452 21.9664 68.776 22.0473 69.1359 22.0473C69.4688 22.0473 69.7748 21.9709 70.0537 21.8179C70.3416 21.6559 70.5801 21.3995 70.7691 21.0485L72.4022 21.9394C72.1323 22.5242 71.7139 22.9786 71.147 23.3026C70.5801 23.6175 69.9142 23.775 69.1494 23.775ZM76.0575 23.775C75.4366 23.775 74.8383 23.703 74.2624 23.559C73.6955 23.406 73.2456 23.2171 72.9127 22.9921L73.6145 21.4805C73.9475 21.6874 74.3389 21.8584 74.7888 21.9933C75.2477 22.1193 75.6976 22.1823 76.1385 22.1823C76.6244 22.1823 76.9663 22.1238 77.1643 22.0068C77.3712 21.8899 77.4747 21.7279 77.4747 21.5209C77.4747 21.35 77.3937 21.224 77.2318 21.143C77.0788 21.053 76.8718 20.9856 76.6109 20.9406C76.35 20.8956 76.062 20.8506 75.7471 20.8056C75.4411 20.7606 75.1307 20.7021 74.8158 20.6301C74.5008 20.5492 74.2129 20.4322 73.952 20.2792C73.691 20.1262 73.4796 19.9193 73.3176 19.6583C73.1646 19.3974 73.0881 19.06 73.0881 18.6461C73.0881 18.1872 73.2186 17.7822 73.4796 17.4313C73.7495 17.0804 74.1364 16.8059 74.6403 16.608C75.1442 16.401 75.7471 16.2976 76.4489 16.2976C76.9438 16.2976 77.4477 16.3515 77.9606 16.4595C78.4735 16.5675 78.9009 16.725 79.2428 16.9319L78.541 18.4301C78.1901 18.2231 77.8346 18.0837 77.4747 18.0117C77.1238 17.9307 76.7819 17.8902 76.4489 17.8902C75.981 17.8902 75.6391 17.9532 75.4231 18.0792C75.2072 18.2051 75.0992 18.3671 75.0992 18.5651C75.0992 18.745 75.1757 18.88 75.3287 18.97C75.4906 19.06 75.7021 19.132 75.963 19.1859C76.224 19.2399 76.5074 19.2894 76.8134 19.3344C77.1283 19.3704 77.4432 19.4289 77.7582 19.5099C78.0731 19.5909 78.3565 19.7078 78.6085 19.8608C78.8694 20.0048 79.0809 20.2072 79.2428 20.4682C79.4048 20.7201 79.4858 21.053 79.4858 21.467C79.4858 21.9169 79.3508 22.3173 79.0809 22.6682C78.8109 23.0101 78.4195 23.2801 77.9066 23.478C77.4027 23.676 76.7864 23.775 76.0575 23.775ZM84.7558 23.667V14.219H88.8454C89.6912 14.219 90.4201 14.3585 91.032 14.6374C91.6438 14.9073 92.1162 15.2988 92.4492 15.8117C92.7821 16.3245 92.9486 16.9364 92.9486 17.6473C92.9486 18.3491 92.7821 18.9565 92.4492 19.4694C92.1162 19.9823 91.6438 20.3782 91.032 20.6571C90.4201 20.9271 89.6912 21.062 88.8454 21.062H85.9705L86.9423 20.0768V23.667H84.7558ZM86.9423 20.3197L85.9705 19.2804H88.7239C89.3988 19.2804 89.9027 19.1365 90.2356 18.8485C90.5686 18.5606 90.735 18.1602 90.735 17.6473C90.735 17.1254 90.5686 16.7205 90.2356 16.4325C89.9027 16.1446 89.3988 16.0006 88.7239 16.0006H85.9705L86.9423 14.9613V20.3197ZM97.9517 23.775C97.1238 23.775 96.395 23.613 95.7651 23.2891C95.1443 22.9651 94.6629 22.5242 94.3209 21.9664C93.979 21.3995 93.808 20.7561 93.808 20.0363C93.808 19.3074 93.9745 18.6641 94.3074 18.1062C94.6494 17.5393 95.1128 17.0984 95.6976 16.7834C96.2825 16.4595 96.9439 16.2976 97.6817 16.2976C98.3926 16.2976 99.0314 16.4505 99.5983 16.7565C100.174 17.0534 100.629 17.4853 100.962 18.0522C101.294 18.6101 101.461 19.2804 101.461 20.0633C101.461 20.1442 101.456 20.2387 101.447 20.3467C101.438 20.4457 101.429 20.5402 101.42 20.6301H95.5222V19.4019H100.314L99.5038 19.7663C99.5038 19.3884 99.4274 19.06 99.2744 18.781C99.1214 18.5021 98.91 18.2861 98.64 18.1332C98.3701 17.9712 98.0552 17.8902 97.6952 17.8902C97.3353 17.8902 97.0159 17.9712 96.7369 18.1332C96.467 18.2861 96.2555 18.5066 96.1026 18.7945C95.9496 19.0735 95.8731 19.4064 95.8731 19.7933V20.1172C95.8731 20.5132 95.9586 20.8641 96.1296 21.17C96.3095 21.467 96.557 21.6964 96.8719 21.8584C97.1958 22.0113 97.5738 22.0878 98.0057 22.0878C98.3926 22.0878 98.73 22.0293 99.0179 21.9124C99.3149 21.7954 99.5848 21.6199 99.8278 21.386L100.948 22.6007C100.615 22.9786 100.197 23.2711 99.6928 23.478C99.1889 23.676 98.6085 23.775 97.9517 23.775ZM102.863 23.667V16.4055H104.874V18.4571L104.59 17.8632C104.806 17.3503 105.153 16.9634 105.63 16.7025C106.107 16.4325 106.687 16.2976 107.371 16.2976V18.2411C107.281 18.2321 107.2 18.2276 107.128 18.2276C107.056 18.2186 106.979 18.2141 106.898 18.2141C106.323 18.2141 105.855 18.3806 105.495 18.7135C105.144 19.0375 104.968 19.5459 104.968 20.2387V23.667H102.863ZM112.646 23.667V14.219H117.262C118.45 14.219 119.341 14.4439 119.935 14.8938C120.538 15.3438 120.839 15.9376 120.839 16.6755C120.839 17.1704 120.718 17.6023 120.475 17.9712C120.232 18.3311 119.899 18.6101 119.476 18.808C119.053 19.006 118.567 19.105 118.018 19.105L118.275 18.5516C118.869 18.5516 119.395 18.6506 119.854 18.8485C120.313 19.0375 120.668 19.3209 120.92 19.6988C121.181 20.0768 121.312 20.5402 121.312 21.089C121.312 21.8989 120.992 22.5332 120.353 22.9921C119.714 23.442 118.774 23.667 117.532 23.667H112.646ZM114.819 22.0203H117.37C117.937 22.0203 118.365 21.9304 118.653 21.7504C118.95 21.5614 119.098 21.2645 119.098 20.8596C119.098 20.4637 118.95 20.1712 118.653 19.9823C118.365 19.7843 117.937 19.6853 117.37 19.6853H114.657V18.0927H116.992C117.523 18.0927 117.928 18.0027 118.207 17.8227C118.495 17.6338 118.639 17.3503 118.639 16.9724C118.639 16.6035 118.495 16.329 118.207 16.1491C117.928 15.9601 117.523 15.8656 116.992 15.8656H114.819V22.0203ZM126.274 23.775C125.5 23.775 124.812 23.613 124.209 23.2891C123.615 22.9651 123.142 22.5242 122.791 21.9664C122.45 21.3995 122.279 20.7561 122.279 20.0363C122.279 19.3074 122.45 18.6641 122.791 18.1062C123.142 17.5393 123.615 17.0984 124.209 16.7834C124.812 16.4595 125.5 16.2976 126.274 16.2976C127.039 16.2976 127.722 16.4595 128.325 16.7834C128.928 17.0984 129.401 17.5348 129.743 18.0927C130.084 18.6506 130.255 19.2984 130.255 20.0363C130.255 20.7561 130.084 21.3995 129.743 21.9664C129.401 22.5242 128.928 22.9651 128.325 23.2891C127.722 23.613 127.039 23.775 126.274 23.775ZM126.274 22.0473C126.625 22.0473 126.94 21.9664 127.219 21.8044C127.497 21.6424 127.718 21.413 127.88 21.116C128.042 20.8101 128.123 20.4502 128.123 20.0363C128.123 19.6133 128.042 19.2534 127.88 18.9565C127.718 18.6596 127.497 18.4301 127.219 18.2681C126.94 18.1062 126.625 18.0252 126.274 18.0252C125.923 18.0252 125.608 18.1062 125.329 18.2681C125.05 18.4301 124.825 18.6596 124.654 18.9565C124.492 19.2534 124.411 19.6133 124.411 20.0363C124.411 20.4502 124.492 20.8101 124.654 21.116C124.825 21.413 125.05 21.6424 125.329 21.8044C125.608 21.9664 125.923 22.0473 126.274 22.0473ZM130.521 23.667L133.774 19.4019L133.733 20.5626L130.615 16.4055H132.977L134.948 19.1185L134.057 19.1454L136.095 16.4055H138.336L135.204 20.5222V19.3884L138.444 23.667H136.055L133.99 20.7786L134.867 20.9001L132.815 23.667H130.521Z" fill="black"/>
<path d="M57.9983 41.1085C57.436 41.1085 56.8998 41.0185 56.3899 40.8386C55.88 40.6511 55.4751 40.4037 55.1752 40.0962L55.5688 39.4551C55.8163 39.7175 56.1537 39.935 56.5811 40.1075C57.016 40.2799 57.4847 40.3662 57.9871 40.3662C58.6544 40.3662 59.1606 40.2199 59.5055 39.9275C59.8579 39.6276 60.0342 39.2376 60.0342 38.7577C60.0342 38.4203 59.9517 38.1316 59.7867 37.8917C59.6292 37.6442 59.3593 37.453 58.9769 37.3181C58.5945 37.1831 58.0696 37.1156 57.4022 37.1156H55.7263L56.1312 33.1677H60.4391V33.8875H56.4574L56.8736 33.4939L56.5249 36.8007L56.1087 36.3957H57.5822C58.377 36.3957 59.0144 36.4932 59.4943 36.6882C59.9742 36.8831 60.3191 37.1568 60.529 37.5093C60.7465 37.8542 60.8552 38.2591 60.8552 38.724C60.8552 39.1664 60.7503 39.5713 60.5403 39.9387C60.3303 40.2987 60.0154 40.5836 59.5955 40.7936C59.1756 41.0035 58.6432 41.1085 57.9983 41.1085ZM65.0214 41.1085C64.414 41.1085 63.8742 40.951 63.4018 40.6361C62.9294 40.3137 62.5582 39.8563 62.2882 39.2639C62.0183 38.664 61.8833 37.9442 61.8833 37.1043C61.8833 36.2645 62.0183 35.5484 62.2882 34.9561C62.5582 34.3562 62.9294 33.8988 63.4018 33.5838C63.8742 33.2614 64.414 33.1002 65.0214 33.1002C65.6288 33.1002 66.1687 33.2614 66.6411 33.5838C67.1135 33.8988 67.4846 34.3562 67.7546 34.9561C68.032 35.5484 68.1708 36.2645 68.1708 37.1043C68.1708 37.9442 68.032 38.664 67.7546 39.2639C67.4846 39.8563 67.1135 40.3137 66.6411 40.6361C66.1687 40.951 65.6288 41.1085 65.0214 41.1085ZM65.0214 40.3662C65.4863 40.3662 65.8912 40.2424 66.2362 39.995C66.5811 39.74 66.851 39.3726 67.046 38.8927C67.241 38.4053 67.3384 37.8092 67.3384 37.1043C67.3384 36.3995 67.241 35.8071 67.046 35.3272C66.851 34.8398 66.5811 34.4724 66.2362 34.225C65.8912 33.97 65.4863 33.8425 65.0214 33.8425C64.5715 33.8425 64.1703 33.97 63.8179 34.225C63.4655 34.4724 63.1918 34.8398 62.9968 35.3272C62.8019 35.8071 62.7044 36.3995 62.7044 37.1043C62.7044 37.8092 62.8019 38.4053 62.9968 38.8927C63.1918 39.3726 63.4655 39.74 63.8179 39.995C64.1703 40.2424 64.5715 40.3662 65.0214 40.3662ZM72.4686 41.1085C71.8612 41.1085 71.3213 40.951 70.8489 40.6361C70.3765 40.3137 70.0053 39.8563 69.7354 39.2639C69.4655 38.664 69.3305 37.9442 69.3305 37.1043C69.3305 36.2645 69.4655 35.5484 69.7354 34.9561C70.0053 34.3562 70.3765 33.8988 70.8489 33.5838C71.3213 33.2614 71.8612 33.1002 72.4686 33.1002C73.0759 33.1002 73.6158 33.2614 74.0882 33.5838C74.5606 33.8988 74.9318 34.3562 75.2017 34.9561C75.4792 35.5484 75.6179 36.2645 75.6179 37.1043C75.6179 37.9442 75.4792 38.664 75.2017 39.2639C74.9318 39.8563 74.5606 40.3137 74.0882 40.6361C73.6158 40.951 73.0759 41.1085 72.4686 41.1085ZM72.4686 40.3662C72.9335 40.3662 73.3384 40.2424 73.6833 39.995C74.0282 39.74 74.2982 39.3726 74.4931 38.8927C74.6881 38.4053 74.7856 37.8092 74.7856 37.1043C74.7856 36.3995 74.6881 35.8071 74.4931 35.3272C74.2982 34.8398 74.0282 34.4724 73.6833 34.225C73.3384 33.97 72.9335 33.8425 72.4686 33.8425C72.0187 33.8425 71.6175 33.97 71.2651 34.225C70.9127 34.4724 70.639 34.8398 70.444 35.3272C70.249 35.8071 70.1516 36.3995 70.1516 37.1043C70.1516 37.8092 70.249 38.4053 70.444 38.8927C70.639 39.3726 70.9127 39.74 71.2651 39.995C71.6175 40.2424 72.0187 40.3662 72.4686 40.3662ZM80.4187 41.041V33.1677H81.1048L86.5374 40.0062H86.1775V33.1677H86.9986V41.041H86.3125L80.8911 34.2025H81.251V41.041H80.4187ZM91.8067 41.0973C91.2368 41.0973 90.7231 40.9698 90.2657 40.7148C89.8158 40.4524 89.4597 40.0962 89.1972 39.6463C88.9348 39.1889 88.8035 38.6678 88.8035 38.0829C88.8035 37.4905 88.9348 36.9694 89.1972 36.5195C89.4597 36.0696 89.8158 35.7171 90.2657 35.4622C90.7156 35.2072 91.2293 35.0798 91.8067 35.0798C92.3915 35.0798 92.9089 35.2072 93.3588 35.4622C93.8162 35.7171 94.1724 36.0696 94.4274 36.5195C94.6898 36.9694 94.821 37.4905 94.821 38.0829C94.821 38.6678 94.6898 39.1889 94.4274 39.6463C94.1724 40.0962 93.8162 40.4524 93.3588 40.7148C92.9014 40.9698 92.384 41.0973 91.8067 41.0973ZM91.8067 40.3887C92.2341 40.3887 92.6127 40.2949 92.9427 40.1075C93.2726 39.9125 93.5313 39.6426 93.7188 39.2976C93.9137 38.9452 94.0112 38.5403 94.0112 38.0829C94.0112 37.618 93.9137 37.2131 93.7188 36.8681C93.5313 36.5232 93.2726 36.257 92.9427 36.0696C92.6127 35.8746 92.2378 35.7771 91.8179 35.7771C91.398 35.7771 91.0231 35.8746 90.6931 36.0696C90.3632 36.257 90.1008 36.5232 89.9058 36.8681C89.7109 37.2131 89.6134 37.618 89.6134 38.0829C89.6134 38.5403 89.7109 38.9452 89.9058 39.2976C90.1008 39.6426 90.3632 39.9125 90.6931 40.1075C91.0231 40.2949 91.3942 40.3887 91.8067 40.3887ZM98.0373 41.0973C97.5499 41.0973 97.0888 41.0298 96.6539 40.8948C96.219 40.7523 95.8778 40.5761 95.6303 40.3662L95.9902 39.7363C96.2302 39.9163 96.5376 40.0737 96.9126 40.2087C97.2875 40.3362 97.6811 40.3999 98.0936 40.3999C98.6559 40.3999 99.0608 40.3137 99.3083 40.1412C99.5557 39.9612 99.6795 39.725 99.6795 39.4326C99.6795 39.2152 99.6082 39.0464 99.4658 38.9265C99.3308 38.799 99.1508 38.7053 98.9259 38.6453C98.7009 38.5778 98.4497 38.5215 98.1723 38.4766C97.8948 38.4316 97.6174 38.3791 97.34 38.3191C97.07 38.2591 96.8226 38.1729 96.5976 38.0604C96.3727 37.9404 96.189 37.7792 96.0465 37.5767C95.9115 37.3743 95.844 37.1043 95.844 36.7669C95.844 36.4445 95.934 36.1558 96.114 35.9009C96.2939 35.6459 96.5564 35.4472 96.9013 35.3047C97.2537 35.1548 97.6811 35.0798 98.1835 35.0798C98.566 35.0798 98.9484 35.1323 99.3308 35.2372C99.7132 35.3347 100.028 35.4659 100.276 35.6309L99.9269 36.272C99.6645 36.0921 99.3833 35.9646 99.0833 35.8896C98.7834 35.8071 98.4835 35.7659 98.1835 35.7659C97.6511 35.7659 97.2575 35.8596 97.0025 36.0471C96.7551 36.227 96.6314 36.4595 96.6314 36.7444C96.6314 36.9694 96.6988 37.1456 96.8338 37.2731C96.9763 37.4005 97.16 37.5018 97.385 37.5767C97.6174 37.6442 97.8686 37.7005 98.1385 37.7455C98.416 37.7905 98.6897 37.8467 98.9596 37.9142C99.2371 37.9742 99.4883 38.0604 99.7132 38.1729C99.9457 38.2778 100.129 38.4316 100.264 38.634C100.407 38.829 100.478 39.0877 100.478 39.4101C100.478 39.755 100.381 40.055 100.186 40.3099C99.9982 40.5574 99.7207 40.7523 99.3533 40.8948C98.9934 41.0298 98.5547 41.0973 98.0373 41.0973ZM100.549 42.1658L104.26 31.5705H104.992L101.28 42.1658H100.549ZM107.394 41.0973C106.809 41.0973 106.284 40.9698 105.819 40.7148C105.362 40.4524 105.002 40.0962 104.74 39.6463C104.477 39.1889 104.346 38.6678 104.346 38.0829C104.346 37.4905 104.477 36.9694 104.74 36.5195C105.002 36.0696 105.362 35.7171 105.819 35.4622C106.284 35.2072 106.809 35.0798 107.394 35.0798C107.896 35.0798 108.35 35.1773 108.755 35.3722C109.16 35.5672 109.479 35.8596 109.711 36.2495L109.115 36.6544C108.912 36.3545 108.661 36.1333 108.361 35.9908C108.061 35.8484 107.735 35.7771 107.383 35.7771C106.963 35.7771 106.584 35.8746 106.247 36.0696C105.909 36.257 105.643 36.5232 105.448 36.8681C105.253 37.2131 105.156 37.618 105.156 38.0829C105.156 38.5478 105.253 38.9527 105.448 39.2976C105.643 39.6426 105.909 39.9125 106.247 40.1075C106.584 40.2949 106.963 40.3887 107.383 40.3887C107.735 40.3887 108.061 40.3174 108.361 40.1749C108.661 40.0325 108.912 39.815 109.115 39.5226L109.711 39.9275C109.479 40.3099 109.16 40.6024 108.755 40.8048C108.35 40.9998 107.896 41.0973 107.394 41.0973ZM113.213 41.0973C112.658 41.0973 112.231 40.9473 111.931 40.6473C111.631 40.3474 111.481 39.9238 111.481 39.3764V33.8313H112.279V39.3314C112.279 39.6763 112.365 39.9425 112.538 40.13C112.718 40.3174 112.973 40.4111 113.303 40.4111C113.655 40.4111 113.948 40.3099 114.18 40.1075L114.461 40.6811C114.304 40.8236 114.113 40.9285 113.888 40.996C113.67 41.0635 113.445 41.0973 113.213 41.0973ZM110.423 35.7996V35.136H114.079V35.7996H110.423ZM118.929 35.0798C119.409 35.0798 119.829 35.1735 120.189 35.361C120.557 35.5409 120.842 35.8184 121.044 36.1933C121.254 36.5682 121.359 37.0406 121.359 37.6105V41.041H120.56V37.6892C120.56 37.0669 120.403 36.5982 120.088 36.2833C119.78 35.9608 119.346 35.7996 118.783 35.7996C118.363 35.7996 117.996 35.8859 117.681 36.0583C117.374 36.2233 117.134 36.467 116.961 36.7894C116.796 37.1043 116.714 37.4868 116.714 37.9367V41.041H115.915V35.136H116.68V36.7557L116.556 36.452C116.744 36.0246 117.044 35.6909 117.456 35.4509C117.868 35.2035 118.36 35.0798 118.929 35.0798Z" fill="black"/>
<defs>
<filter id="filter0_d_2040_758" x="0.000195503" y="0.000195503" width="48.6441" height="48.7096" filterUnits="userSpaceOnUse" color-interpolation-filters="sRGB">
<feFlood flood-opacity="0" result="BackgroundImageFix"/>
<feColorMatrix in="SourceAlpha" type="matrix" values="0 0 0 0 0 0 0 0 0 0 0 0 0 0 0 0 0 0 127 0" result="hardAlpha"/>
<feOffset dy="-3"/>
<feGaussianBlur stdDeviation="2.1"/>
<feComposite in2="hardAlpha" operator="out"/>
<feColorMatrix type="matrix" values="0 0 0 0 0 0 0 0 0 0 0 0 0 0 0 0 0 0 0.25 0"/>
<feBlend mode="normal" in2="BackgroundImageFix" result="effect1_dropShadow_2040_758"/>
<feBlend mode="normal" in="SourceGraphic" in2="effect1_dropShadow_2040_758" result="shape"/>
</filter>
</defs>
</svg>
