<svg width="326" height="76" viewBox="0 0 326 76" fill="none" xmlns="http://www.w3.org/2000/svg">
<path d="M12.3154 45.8429C10.3085 45.8455 8.38472 45.5853 6.54393 45.0621C4.70309 44.515 3.22025 43.8122 2.09542 42.9536L4.05645 38.579C5.13328 39.3421 6.40094 39.9735 7.85942 40.4733C9.34174 40.9492 10.8355 41.1861 12.3406 41.1841C13.4873 41.1826 14.4069 41.0739 15.0992 40.858C15.8154 40.6181 16.3403 40.2949 16.6738 39.8883C17.0074 39.4817 17.1735 39.0156 17.1724 38.49C17.1708 37.8211 16.9068 37.2959 16.3804 36.9143C15.8538 36.5088 15.1603 36.1872 14.2997 35.9495C13.439 35.6878 12.4828 35.4501 11.4311 35.2365C10.4033 34.9989 9.36337 34.7136 8.31141 34.3805C7.28335 34.0474 6.33868 33.6186 5.47741 33.0942C4.61614 32.5697 3.90979 31.8778 3.35834 31.0185C2.83078 30.1591 2.56548 29.0604 2.56243 27.7226C2.55916 26.2891 2.93845 24.9866 3.70029 23.8149C4.48597 22.6193 5.65447 21.6741 7.20579 20.9792C8.78095 20.2604 10.7511 19.8995 13.1163 19.8964C14.6931 19.8943 16.2465 20.0834 17.7763 20.4636C19.3062 20.8199 20.6572 21.3677 21.8296 22.1067L20.0478 26.5169C18.8756 25.8495 17.7039 25.3613 16.5325 25.0523C15.3611 24.7194 14.214 24.5536 13.0911 24.5551C11.9682 24.5566 11.0487 24.6892 10.3326 24.9529C9.61648 25.2167 9.10362 25.5638 8.79401 25.9942C8.48436 26.4008 8.33016 26.8788 8.33141 27.4283C8.33288 28.0733 8.59688 28.5986 9.1234 29.004C9.64987 29.3856 10.3434 29.6953 11.204 29.933C12.0646 30.1708 13.0089 30.4085 14.0367 30.646C15.0885 30.8836 16.1283 31.1569 17.1563 31.4662C18.2083 31.7753 19.1648 32.1922 20.0261 32.7166C20.8874 33.2411 21.5818 33.933 22.1093 34.7924C22.6608 35.6517 22.938 36.7384 22.941 38.0524C22.9442 39.462 22.553 40.7526 21.7672 41.9243C20.9815 43.096 19.8011 44.0412 18.2259 44.76C16.6746 45.4788 14.7044 45.8397 12.3154 45.8429ZM28.3581 45.3917L28.3009 20.3064L40.5569 20.2903C43.7105 20.2861 46.0771 20.8803 47.6566 22.0727C49.26 23.2651 50.0639 24.8409 50.0684 26.7999C50.0714 28.1139 49.7515 29.2611 49.1087 30.2415C48.4658 31.198 47.5835 31.9397 46.4618 32.4668C45.3402 32.9939 44.0507 33.2584 42.5933 33.2603L43.2709 31.7901C44.8477 31.788 46.2459 32.049 47.4655 32.573C48.6851 33.0731 49.6305 33.8244 50.3017 34.8269C50.9968 35.8294 51.346 37.0594 51.3494 38.5167C51.3543 40.6669 50.51 42.3523 48.8165 43.573C47.123 44.7697 44.6277 45.3703 41.3308 45.3746L28.3581 45.3917ZM34.1178 41.0121L40.8908 41.0032C42.3959 41.0012 43.5302 40.7608 44.2936 40.282C45.0809 39.7792 45.4733 38.9903 45.4708 37.9152C45.4684 36.864 45.0725 36.0881 44.2829 35.5874C43.5172 35.0628 42.3818 34.8015 40.8767 34.8035L33.6736 34.813L33.664 30.5843L39.8636 30.5762C41.2732 30.5743 42.3477 30.334 43.0873 29.8552C43.8506 29.3525 44.2312 28.5994 44.2289 27.596C44.2267 26.6165 43.8427 25.8883 43.0771 25.4115C42.3354 24.9108 41.2597 24.6614 39.8502 24.6632L34.0805 24.6708L34.1178 41.0121ZM56.0649 37.5071L56.0546 33.0276L66.1963 33.0142L66.2065 37.4937L56.0649 37.5071ZM76.352 45.3285L76.3057 24.9736L68.2784 24.9841L68.2676 20.2538L90.1277 20.225L90.1385 24.9553L82.1111 24.9659L82.1575 45.3209L76.352 45.3285ZM100.047 30.3177L112.124 30.3018L112.134 34.8172L100.058 34.8331L100.047 30.3177ZM100.501 40.638L114.155 40.62L114.165 45.2787L94.7419 45.3043L94.6848 20.219L113.642 20.194L113.653 24.8527L100.465 24.8701L100.501 40.638ZM118.389 37.425L118.379 32.9455L128.521 32.9321L128.531 37.4116L118.389 37.425ZM132.423 45.2547L132.415 41.4919L142.07 32.3409C142.832 31.647 143.392 31.0251 143.75 30.4752C144.107 29.9252 144.344 29.4232 144.463 28.9691C144.605 28.515 144.676 28.0968 144.675 27.7146C144.673 26.7112 144.325 25.9471 143.631 25.4224C142.96 24.8738 141.968 24.6004 140.654 24.6021C139.603 24.6035 138.624 24.8079 137.717 25.2152C136.834 25.6225 136.083 26.2566 135.464 27.1175L131.229 24.3995C132.181 22.9648 133.517 21.8282 135.235 20.9898C136.953 20.1513 138.935 19.7306 141.181 19.7277C143.044 19.7252 144.669 20.0337 146.057 20.653C147.467 21.2484 148.556 22.0951 149.323 23.1931C150.114 24.291 150.512 25.6045 150.515 27.1335C150.517 27.9458 150.411 28.7582 150.198 29.5708C150.009 30.3594 149.604 31.1961 148.985 32.0809C148.39 32.9657 147.508 33.9583 146.34 35.0588L138.33 42.6308L137.214 40.518L151.37 40.4993L151.381 45.2297L132.423 45.2547ZM163.739 45.6434C161.995 45.6457 160.263 45.4211 158.542 44.9694C156.844 44.4938 155.385 43.8268 154.165 42.9683L156.448 38.5216C157.406 39.2132 158.506 39.7612 159.749 40.1657C161.016 40.5702 162.295 40.7716 163.585 40.7699C165.042 40.768 166.188 40.4798 167.023 39.9053C167.858 39.3308 168.274 38.5299 168.272 37.5026C168.271 36.8576 168.102 36.2844 167.766 35.7832C167.431 35.2819 166.833 34.9004 165.972 34.6388C165.135 34.3771 163.952 34.2472 162.423 34.2492L156.009 34.2577L157.267 20.1365L172.569 20.1164L172.579 24.7751L159.356 24.7925L162.36 22.1367L161.487 32.2078L158.471 29.5599L163.774 29.5529C166.259 29.5496 168.255 29.8934 169.761 30.5843C171.292 31.2512 172.405 32.1695 173.1 33.3393C173.796 34.509 174.145 35.8345 174.149 37.3157C174.152 38.7969 173.785 40.1712 173.047 41.4383C172.309 42.6816 171.165 43.6985 169.614 44.4889C168.087 45.2555 166.128 45.6403 163.739 45.6434ZM188.707 45.6106C186.653 45.6133 184.812 45.114 183.185 44.1127C181.558 43.0875 180.277 41.608 179.341 39.6741C178.404 37.7401 177.933 35.3995 177.927 32.652C177.921 29.9046 178.381 27.5627 179.309 25.6263C180.236 23.6899 181.511 22.2189 183.133 21.2134C184.755 20.184 186.594 19.6679 188.648 19.6652C190.727 19.6624 192.568 20.1737 194.171 21.1989C195.797 22.2001 197.079 23.6677 198.015 25.6017C198.951 27.5356 199.422 29.8763 199.429 32.6237C199.435 35.3711 198.974 37.7131 198.047 39.6494C197.12 41.5858 195.845 43.0687 194.223 44.0982C192.624 45.1037 190.786 45.6078 188.707 45.6106ZM188.696 40.701C189.676 40.6997 190.523 40.4239 191.239 39.8734C191.978 39.323 192.55 38.4502 192.953 37.2551C193.38 36.06 193.592 34.5188 193.587 32.6314C193.583 30.744 193.365 29.2034 192.932 28.0094C192.523 26.8154 191.948 25.9441 191.206 25.3956C190.488 24.8471 189.639 24.5734 188.66 24.5747C187.704 24.576 186.856 24.8518 186.117 25.4023C185.402 25.9527 184.83 26.8255 184.403 28.0206C183.999 29.2157 183.8 30.7569 183.804 32.6443C183.808 34.5317 184.015 36.0723 184.424 37.2663C184.857 38.4603 185.432 39.3316 186.15 39.8801C186.892 40.4286 187.741 40.7023 188.696 40.701ZM225.56 52.3709C223.744 52.3733 221.987 52.1487 220.29 51.697C218.617 51.2691 217.218 50.614 216.093 49.7315L218.305 45.7149C219.119 46.3828 220.148 46.907 221.391 47.2877C222.658 47.6921 223.901 47.8936 225.119 47.892C227.102 47.8893 228.535 47.4455 229.417 46.5604C230.322 45.6752 230.773 44.3606 230.769 42.6166L230.763 39.7139L231.11 34.8755L231.027 30.0019L231.018 25.8449L236.322 25.8379L236.358 41.8925C236.366 45.4761 235.441 48.1173 233.581 49.816C231.721 51.5147 229.048 52.3663 225.56 52.3709ZM224.681 44.2014C222.889 44.2038 221.264 43.8236 219.804 43.0611C218.369 42.2746 217.208 41.189 216.321 39.8045C215.458 38.3961 215.024 36.7602 215.02 34.8967C215.015 33.0093 215.442 31.3722 216.299 29.9854C217.179 28.5747 218.336 27.4862 219.767 26.7198C221.223 25.9533 222.847 25.569 224.638 25.5666C226.263 25.5645 227.697 25.897 228.941 26.5643C230.185 27.2078 231.155 28.2218 231.851 29.6066C232.547 30.9675 232.897 32.723 232.902 34.8731C232.907 36.9994 232.564 38.7558 231.875 40.1424C231.185 41.5051 230.22 42.5217 228.979 43.1923C227.738 43.8629 226.305 44.1993 224.681 44.2014ZM225.781 39.6129C226.761 39.6116 227.632 39.4193 228.396 39.0361C229.16 38.6289 229.756 38.0667 230.184 37.3494C230.612 36.6321 230.826 35.8076 230.823 34.8759C230.821 33.9202 230.604 33.0963 230.173 32.404C229.741 31.6879 229.143 31.1392 228.377 30.7579C227.612 30.3528 226.739 30.1509 225.76 30.1522C224.78 30.1534 223.909 30.3577 223.145 30.7648C222.381 31.1481 221.773 31.6984 221.321 32.4157C220.893 33.1091 220.68 33.9336 220.682 34.8892C220.684 35.821 220.901 36.6449 221.332 37.3611C221.788 38.0772 222.399 38.6378 223.164 39.043C223.929 39.4242 224.802 39.6142 225.781 39.6129Z" fill="#490606"/>
<path d="M47.7477 68.9095C47.2709 68.1896 46.9008 67.3586 46.6373 66.4167C46.3818 65.4668 46.2528 64.4455 46.2503 63.3527C46.2478 62.26 46.3722 61.2383 46.6234 60.2878C46.8825 59.3293 47.2488 58.4974 47.7223 57.792L49.4921 57.7897C48.9953 58.6851 48.6331 59.5883 48.4055 60.4992C48.178 61.4022 48.0653 62.3526 48.0676 63.3503C48.0698 64.348 48.1868 65.3021 48.4186 66.2124C48.6502 67.1148 49.0165 68.0131 49.5174 68.9072L47.7477 68.9095ZM50.6218 66.6015L50.6029 58.2871L52.5271 58.2845L52.546 66.5989L50.6218 66.6015ZM54.5192 66.5963L54.5003 58.2819L56.0919 58.2798L59.6448 64.1428L58.8015 64.1439L62.2683 58.2717L63.8481 58.2696L63.8908 66.584L62.0853 66.5864L62.0608 61.0395L62.3934 61.039L59.6246 65.7106L58.7576 65.7118L55.9082 61.0476L56.312 61.0471L56.3246 66.594L54.5192 66.5963ZM65.8634 66.5814L65.8445 58.267L67.7686 58.2644L67.784 65.011L71.9531 65.0055L71.9567 66.5734L65.8634 66.5814ZM76.3956 66.5675L76.3767 58.2531L77.9683 58.251L81.5212 64.1139L80.6779 64.1151L84.1447 58.2429L85.7245 58.2408L85.7672 66.5552L83.9617 66.5576L83.9372 61.0107L84.2698 61.0102L81.501 65.6818L80.634 65.683L77.7846 61.0188L78.1884 61.0182L78.201 66.5651L76.3956 66.5675ZM91.7785 66.6898C91.1213 66.6907 90.5113 66.5846 89.9486 66.3715C89.3939 66.1584 88.9101 65.8582 88.4975 65.4707C88.0928 65.0832 87.775 64.6283 87.5442 64.106C87.3213 63.5837 87.2091 63.0137 87.2077 62.3961C87.2063 61.7784 87.3158 61.2081 87.5364 60.6852C87.7648 60.1623 88.0845 59.7066 88.4954 59.318C88.9062 58.9295 89.3886 58.6279 89.9424 58.4134C90.4962 58.1989 91.0978 58.0912 91.7471 58.0903C92.4043 58.0895 93.0064 58.1956 93.5532 58.4087C94.108 58.6217 94.5878 58.922 94.9925 59.3095C95.4051 59.6969 95.7269 60.1518 95.9577 60.6741C96.1885 61.1885 96.3046 61.7585 96.306 62.3841C96.3075 63.0017 96.1939 63.576 95.9655 64.1068C95.7371 64.6297 95.4174 65.0855 95.0065 65.474C94.6036 65.8546 94.1252 66.1522 93.5714 66.3667C93.0255 66.5812 92.4279 66.6889 91.7785 66.6898ZM91.7629 65.0507C92.1351 65.0502 92.4755 64.9864 92.784 64.8593C93.1004 64.7322 93.3772 64.5497 93.6142 64.3118C93.8512 64.074 94.0327 63.7926 94.1586 63.4678C94.2925 63.1429 94.359 62.7826 94.3581 62.3866C94.3572 61.9907 94.2891 61.6305 94.1537 61.306C94.0263 60.9815 93.8435 60.7007 93.6054 60.4634C93.3752 60.2262 93.1016 60.0444 92.7846 59.9181C92.4676 59.7919 92.123 59.729 91.7508 59.7295C91.3786 59.7299 91.0343 59.7937 90.7179 59.9209C90.4093 60.048 90.1366 60.2304 89.8996 60.4683C89.6625 60.7062 89.4771 60.9875 89.3432 61.3124C89.2173 61.6372 89.1547 61.9976 89.1556 62.3935C89.1565 62.7815 89.2207 63.1417 89.3482 63.4741C89.4835 63.7986 89.6663 64.0795 89.8965 64.3167C90.1345 64.554 90.4121 64.7357 90.7291 64.862C91.0462 64.9883 91.3908 65.0512 91.7629 65.0507ZM101.789 66.6766C101.139 66.6775 100.533 66.5714 99.9705 66.3583C99.4157 66.1452 98.932 65.845 98.5194 65.4575C98.1146 65.07 97.7968 64.6151 97.566 64.0928C97.3431 63.5705 97.231 63.0005 97.2295 62.3829C97.2281 61.7652 97.3377 61.1949 97.5582 60.672C97.7867 60.1491 98.1063 59.6934 98.5172 59.3048C98.9281 58.9163 99.4104 58.6147 99.9642 58.4002C100.518 58.1857 101.12 58.078 101.769 58.0771C102.426 58.0763 103.028 58.1824 103.575 58.3955C104.13 58.6085 104.61 58.9088 105.014 59.2963C105.427 59.6758 105.749 60.1267 105.98 60.6491C106.21 61.1714 106.326 61.7453 106.328 62.3709C106.329 62.9885 106.216 63.5628 105.987 64.0936C105.759 64.6165 105.439 65.0723 105.028 65.4608C104.625 65.8414 104.147 66.139 103.593 66.3535C103.047 66.568 102.446 66.6757 101.789 66.6766ZM104.513 68.4428C104.188 68.4432 103.879 68.408 103.586 68.3371C103.301 68.2662 103.015 68.1518 102.73 67.9938C102.452 67.8358 102.159 67.6224 101.849 67.3536C101.548 67.0847 101.219 66.7526 100.861 66.3571L102.879 65.8437C103.094 66.1364 103.292 66.3698 103.475 66.5437C103.657 66.7177 103.832 66.8402 103.998 66.9112C104.173 66.9823 104.355 67.0177 104.545 67.0174C105.052 67.0168 105.503 66.8103 105.898 66.398L106.755 67.4184C106.194 68.1001 105.447 68.4416 104.513 68.4428ZM101.785 65.0375C102.157 65.037 102.497 64.9732 102.806 64.8461C103.122 64.719 103.399 64.5365 103.636 64.2986C103.873 64.0608 104.055 63.7794 104.18 63.4546C104.314 63.1218 104.381 62.7614 104.38 62.3734C104.379 61.9775 104.311 61.6173 104.176 61.2928C104.048 60.9683 103.865 60.6875 103.627 60.4502C103.389 60.213 103.112 60.0312 102.795 59.905C102.485 59.7787 102.145 59.7158 101.773 59.7163C101.4 59.7167 101.056 59.7805 100.74 59.9077C100.423 60.0348 100.147 60.2173 99.9095 60.4551C99.6804 60.693 99.499 60.9743 99.3651 61.2992C99.2391 61.624 99.1766 61.9844 99.1775 62.3803C99.1784 62.7683 99.2425 63.1285 99.37 63.4609C99.5054 63.7854 99.6881 64.0663 99.9183 64.3035C100.156 64.5408 100.434 64.7225 100.751 64.8488C101.068 64.9751 101.413 65.038 101.785 65.0375ZM110.773 63.921L110.77 62.4363L114.131 62.4319L114.135 63.9166L110.773 63.921ZM121.397 66.6508C120.819 66.6515 120.245 66.5771 119.675 66.4274C119.112 66.2697 118.629 66.0487 118.224 65.7641L118.981 64.2903C119.298 64.5195 119.663 64.7012 120.075 64.8352C120.495 64.9693 120.919 65.036 121.346 65.0355C121.829 65.0348 122.209 64.9393 122.486 64.7489C122.763 64.5585 122.901 64.293 122.9 63.9525C122.899 63.7387 122.843 63.5488 122.732 63.3826C122.621 63.2165 122.423 63.0901 122.137 63.0033C121.86 62.9166 121.468 62.8736 120.961 62.8742L118.835 62.877L119.252 58.1966L124.324 58.19L124.327 59.7341L119.945 59.7398L120.94 58.8596L120.651 62.1976L119.651 61.32L121.409 61.3176C122.233 61.3166 122.894 61.4305 123.393 61.6595C123.901 61.8805 124.27 62.1849 124.5 62.5726C124.731 62.9603 124.846 63.3996 124.848 63.8906C124.849 64.3815 124.727 64.837 124.483 65.257C124.238 65.6691 123.859 66.0061 123.345 66.2681C122.838 66.5222 122.189 66.6497 121.397 66.6508ZM129.198 66.6405C128.517 66.6414 127.907 66.4759 127.368 66.144C126.828 65.8043 126.404 65.3139 126.093 64.6729C125.783 64.0319 125.627 63.2561 125.625 62.3455C125.623 61.4348 125.775 60.6586 126.083 60.0168C126.39 59.375 126.813 58.8875 127.35 58.5542C127.888 58.213 128.497 58.0419 129.178 58.041C129.867 58.0401 130.477 58.2096 131.009 58.5494C131.548 58.8812 131.973 59.3677 132.283 60.0087C132.593 60.6496 132.749 61.4254 132.751 62.3361C132.754 63.2467 132.601 64.0229 132.293 64.6647C131.986 65.3065 131.564 65.798 131.026 66.1392C130.496 66.4725 129.887 66.6396 129.198 66.6405ZM129.194 65.0133C129.519 65.0128 129.8 64.9214 130.037 64.739C130.282 64.5565 130.471 64.2672 130.605 63.8711C130.747 63.475 130.817 62.9642 130.815 62.3386C130.814 61.7131 130.741 61.2024 130.598 60.8067C130.463 60.4109 130.272 60.1222 130.026 59.9404C129.788 59.7585 129.507 59.6679 129.182 59.6683C128.865 59.6687 128.584 59.7601 128.339 59.9426C128.102 60.125 127.913 60.4143 127.771 60.8104C127.637 61.2065 127.571 61.7173 127.573 62.3429C127.574 62.9685 127.643 63.4791 127.778 63.8749C127.922 64.2706 128.112 64.5594 128.35 64.7412C128.596 64.923 128.877 65.0137 129.194 65.0133ZM137.259 66.6299C136.578 66.6308 135.968 66.4653 135.429 66.1334C134.89 65.7936 134.465 65.3033 134.155 64.6623C133.845 64.0213 133.688 63.2455 133.686 62.3348C133.684 61.4242 133.837 60.648 134.144 60.0062C134.452 59.3644 134.874 58.8769 135.412 58.5436C135.95 58.2024 136.559 58.0313 137.24 58.0304C137.929 58.0295 138.539 58.199 139.07 58.5387C139.609 58.8706 140.034 59.357 140.344 59.998C140.655 60.639 140.811 61.4148 140.813 62.3255C140.815 63.2361 140.662 64.0123 140.355 64.6541C140.048 65.2959 139.625 65.7874 139.087 66.1286C138.558 66.4619 137.948 66.629 137.259 66.6299ZM137.256 65.0026C137.58 65.0022 137.861 64.9108 138.098 64.7283C138.344 64.5459 138.533 64.2566 138.667 63.8605C138.808 63.4644 138.878 62.9536 138.877 62.328C138.875 61.7024 138.803 61.1918 138.66 60.7961C138.524 60.4003 138.333 60.1115 138.088 59.9297C137.85 59.7479 137.568 59.6572 137.244 59.6577C136.927 59.6581 136.646 59.7495 136.401 59.932C136.164 60.1144 135.974 60.4037 135.833 60.7998C135.699 61.1959 135.633 61.7067 135.634 62.3323C135.636 62.9578 135.704 63.4685 135.84 63.8642C135.983 64.26 136.174 64.5487 136.412 64.7306C136.658 64.9124 136.939 65.0031 137.256 65.0026ZM145.321 66.6193C144.64 66.6202 144.03 66.4547 143.491 66.1228C142.951 65.783 142.527 65.2926 142.216 64.6516C141.906 64.0107 141.75 63.2349 141.748 62.3242C141.746 61.4136 141.898 60.6374 142.206 59.9956C142.513 59.3538 142.936 58.8662 143.473 58.5329C144.011 58.1917 144.62 58.0207 145.301 58.0198C145.99 58.0189 146.6 58.1883 147.132 58.5281C147.671 58.86 148.096 59.3464 148.406 59.9874C148.716 60.6284 148.872 61.4042 148.875 62.3148C148.877 63.2255 148.724 64.0017 148.417 64.6435C148.109 65.2853 147.687 65.7768 147.149 66.118C146.619 66.4513 146.01 66.6184 145.321 66.6193ZM145.317 64.992C145.642 64.9916 145.923 64.9002 146.16 64.7177C146.405 64.5353 146.594 64.246 146.728 63.8499C146.87 63.4538 146.94 62.9429 146.938 62.3174C146.937 61.6918 146.865 61.1812 146.721 60.7854C146.586 60.3897 146.395 60.1009 146.149 59.9191C145.911 59.7373 145.63 59.6466 145.305 59.647C144.988 59.6475 144.707 59.7389 144.462 59.9213C144.225 60.1038 144.036 60.3931 143.894 60.7892C143.761 61.1853 143.694 61.6961 143.696 62.3217C143.697 62.9472 143.766 63.4579 143.901 63.8536C144.045 64.2494 144.235 64.5381 144.473 64.7199C144.719 64.9017 145.001 64.9924 145.317 64.992ZM153.705 66.4657L153.686 58.1513L157.285 58.1465C158.03 58.1456 158.671 58.2675 159.21 58.5122C159.749 58.7491 160.166 59.093 160.46 59.5439C160.754 59.9949 160.902 60.5332 160.903 61.1587C160.904 61.7764 160.759 62.3111 160.467 62.7628C160.175 63.2145 159.76 63.5635 159.222 63.8097C158.685 64.048 158.043 64.1676 157.299 64.1686L154.769 64.1719L155.622 63.3037L155.63 66.4632L153.705 66.4657ZM155.623 63.5175L154.766 62.604L157.189 62.6008C157.782 62.6001 158.226 62.4728 158.518 62.219C158.81 61.9652 158.956 61.6127 158.955 61.1613C158.954 60.702 158.807 60.3459 158.513 60.0929C158.22 59.8399 157.776 59.7138 157.182 59.7145L154.759 59.7177L155.612 58.802L155.623 63.5175ZM165.235 66.5455C164.546 66.5464 163.932 66.4087 163.393 66.1322C162.854 65.8479 162.429 65.4565 162.119 64.958C161.817 64.4595 161.666 63.8936 161.664 63.2601C161.663 62.6187 161.812 62.0523 162.112 61.561C162.419 61.0617 162.842 60.6731 163.38 60.3953C163.918 60.1095 164.531 59.9662 165.22 59.9653C165.893 59.9644 166.479 60.1061 166.979 60.3906C167.478 60.667 167.848 61.0664 168.086 61.5887L166.651 62.3627C166.484 62.062 166.274 61.8406 166.02 61.6984C165.774 61.5562 165.505 61.4852 165.212 61.4856C164.895 61.4861 164.61 61.5577 164.357 61.7006C164.104 61.8434 163.902 62.0456 163.753 62.3071C163.611 62.5686 163.54 62.8855 163.541 63.2576C163.542 63.6298 163.614 63.9464 163.757 64.2076C163.908 64.4687 164.11 64.6703 164.364 64.8125C164.618 64.9547 164.903 65.0256 165.22 65.0252C165.513 65.0248 165.782 64.9571 166.027 64.8222C166.28 64.6793 166.489 64.4534 166.655 64.1444L168.094 64.9264C167.858 65.4414 167.49 65.8418 166.992 66.1275C166.494 66.4053 165.908 66.5446 165.235 66.5455ZM171.314 66.5375C170.768 66.5382 170.241 66.4756 169.734 66.3496C169.235 66.2156 168.839 66.0498 168.545 65.8523L169.16 64.5211C169.453 64.7029 169.798 64.8529 170.194 64.9711C170.598 65.0815 170.994 65.1364 171.382 65.1359C171.81 65.1353 172.111 65.0834 172.285 64.9803C172.467 64.8771 172.557 64.7344 172.557 64.5523C172.557 64.4018 172.485 64.2911 172.342 64.22C172.208 64.141 172.025 64.0818 171.796 64.0426C171.566 64.0033 171.312 63.964 171.035 63.9248C170.766 63.8855 170.493 63.8344 170.215 63.7715C169.938 63.7006 169.684 63.5979 169.454 63.4636C169.224 63.3293 169.038 63.1474 168.895 62.918C168.76 62.6885 168.692 62.3917 168.691 62.0274C168.69 61.6236 168.804 61.2671 169.033 60.958C169.27 60.6488 169.61 60.4069 170.053 60.2321C170.496 60.0494 171.026 59.9576 171.644 59.9568C172.079 59.9562 172.523 60.0032 172.974 60.0976C173.426 60.192 173.802 60.3301 174.104 60.5118L173.489 61.8311C173.18 61.6493 172.867 61.527 172.55 61.4641C172.241 61.3932 171.94 61.358 171.647 61.3584C171.235 61.3589 170.934 61.4147 170.745 61.5259C170.555 61.637 170.46 61.7796 170.461 61.9538C170.461 62.1122 170.528 62.2309 170.663 62.3099C170.806 62.3889 170.992 62.452 171.222 62.4992C171.452 62.5464 171.701 62.5896 171.971 62.6289C172.248 62.6602 172.525 62.7113 172.802 62.7822C173.08 62.8531 173.329 62.9557 173.551 63.09C173.781 63.2164 173.968 63.3943 174.111 63.6238C174.254 63.8453 174.326 64.1382 174.327 64.5025C174.328 64.8984 174.21 65.2509 173.973 65.56C173.736 65.8613 173.392 66.0993 172.941 66.2741C172.498 66.4489 171.956 66.5367 171.314 66.5375ZM176.513 68.7399L174.743 68.7423C175.256 67.8468 175.622 66.9476 175.842 66.0446C176.069 65.1336 176.182 64.1793 176.18 63.1816C176.177 62.1839 176.06 61.2338 175.829 60.3314C175.605 59.4211 175.235 58.5188 174.718 57.6247L176.488 57.6224C176.98 58.3265 177.354 59.1574 177.61 60.1152C177.865 61.0651 177.994 62.0864 177.997 63.1792C177.999 64.2719 177.875 65.2936 177.624 66.2441C177.372 67.1868 177.002 68.0187 176.513 68.7399Z" fill="black"/>
<path d="M182.853 61.6064H221.225" stroke="url(#paint0_linear_2040_723)" stroke-width="0.863039"/>
<path d="M38.3721 62.6787H-0.000434399" stroke="url(#paint1_linear_2040_723)" stroke-width="0.863039"/>
<defs>
<linearGradient id="paint0_linear_2040_723" x1="215.469" y1="62.1064" x2="183.492" y2="62.1064" gradientUnits="userSpaceOnUse">
<stop stop-color="#666666" stop-opacity="0"/>
<stop offset="1"/>
</linearGradient>
<linearGradient id="paint1_linear_2040_723" x1="5.75544" y1="63.1787" x2="37.7325" y2="63.1787" gradientUnits="userSpaceOnUse">
<stop stop-color="#666666" stop-opacity="0"/>
<stop offset="1"/>
</linearGradient>
</defs>
</svg>
