<svg width="257" height="18" viewBox="0 0 257 18" fill="none" xmlns="http://www.w3.org/2000/svg">
<path d="M-0.000187397 17.0879V0.287889H3.88781V17.0879H-0.000187397ZM7.87481 17.0879V0.287889H11.0908L18.2428 12.1439H16.5388L23.5708 0.287889H26.7628L26.8108 17.0879H23.1628L23.1388 5.87989H23.8108L18.1948 15.3119H16.4428L10.7068 5.87989H11.5228V17.0879H7.87481ZM30.7967 17.0879V0.287889H34.6847V13.9199H43.1087V17.0879H30.7967ZM52.0779 17.0879V0.287889H59.3499C60.8539 0.287889 62.1499 0.53589 63.2379 1.03189C64.3259 1.51189 65.1659 2.20789 65.7579 3.11989C66.3499 4.03189 66.6459 5.11989 66.6459 6.38389C66.6459 7.63189 66.3499 8.71189 65.7579 9.62389C65.1659 10.5199 64.3259 11.2079 63.2379 11.6879C62.1499 12.1679 60.8539 12.4079 59.3499 12.4079H54.2379L55.9659 10.7039V17.0879H52.0779ZM62.7579 17.0879L58.5579 10.9919H62.7099L66.9579 17.0879H62.7579ZM55.9659 11.1359L54.2379 9.31189H59.1339C60.3339 9.31189 61.2299 9.05589 61.8219 8.54389C62.4139 8.01589 62.7099 7.29589 62.7099 6.38389C62.7099 5.45589 62.4139 4.73589 61.8219 4.22389C61.2299 3.71189 60.3339 3.45589 59.1339 3.45589H54.2379L55.9659 1.60789V11.1359ZM77.8864 17.3759C76.5584 17.3759 75.3264 17.1599 74.1904 16.7279C73.0704 16.2959 72.0944 15.6879 71.2624 14.9039C70.4464 14.1199 69.8064 13.1999 69.3424 12.1439C68.8944 11.0879 68.6704 9.93589 68.6704 8.68789C68.6704 7.43989 68.8944 6.28789 69.3424 5.23189C69.8064 4.17589 70.4544 3.25589 71.2864 2.47189C72.1184 1.68789 73.0944 1.07989 74.2144 0.647889C75.3344 0.21589 76.5504 -0.000109673 77.8624 -0.000109673C79.1904 -0.000109673 80.4064 0.21589 81.5104 0.647889C82.6304 1.07989 83.5984 1.68789 84.4144 2.47189C85.2464 3.25589 85.8944 4.17589 86.3584 5.23189C86.8224 6.27189 87.0544 7.42389 87.0544 8.68789C87.0544 9.93589 86.8224 11.0959 86.3584 12.1679C85.8944 13.2239 85.2464 14.1439 84.4144 14.9279C83.5984 15.6959 82.6304 16.2959 81.5104 16.7279C80.4064 17.1599 79.1984 17.3759 77.8864 17.3759ZM77.8624 14.0639C78.6144 14.0639 79.3024 13.9359 79.9264 13.6799C80.5664 13.4239 81.1264 13.0559 81.6064 12.5759C82.0864 12.0959 82.4544 11.5279 82.7104 10.8719C82.9824 10.2159 83.1184 9.48789 83.1184 8.68789C83.1184 7.88789 82.9824 7.15989 82.7104 6.50389C82.4544 5.84789 82.0864 5.27989 81.6064 4.79989C81.1424 4.31989 80.5904 3.95189 79.9504 3.69589C79.3104 3.43989 78.6144 3.31189 77.8624 3.31189C77.1104 3.31189 76.4144 3.43989 75.7744 3.69589C75.1504 3.95189 74.5984 4.31989 74.1184 4.79989C73.6384 5.27989 73.2624 5.84789 72.9904 6.50389C72.7344 7.15989 72.6064 7.88789 72.6064 8.68789C72.6064 9.47189 72.7344 10.1999 72.9904 10.8719C73.2624 11.5279 73.6304 12.0959 74.0944 12.5759C74.5744 13.0559 75.1344 13.4239 75.7744 13.6799C76.4144 13.9359 77.1104 14.0639 77.8624 14.0639ZM97.4404 17.3759C95.0564 17.3759 93.1924 16.7119 91.8484 15.3839C90.5044 14.0559 89.8324 12.1599 89.8324 9.69589V0.287889H93.7204V9.55189C93.7204 11.1519 94.0484 12.3039 94.7044 13.0079C95.3604 13.7119 96.2804 14.0639 97.4644 14.0639C98.6484 14.0639 99.5684 13.7119 100.224 13.0079C100.88 12.3039 101.208 11.1519 101.208 9.55189V0.287889H105.048V9.69589C105.048 12.1599 104.376 14.0559 103.032 15.3839C101.688 16.7119 99.8244 17.3759 97.4404 17.3759ZM108.89 17.0879V0.287889H112.106L122.018 12.3839H120.458V0.287889H124.298V17.0879H121.106L111.17 4.99189H112.73V17.0879H108.89ZM128.273 17.0879V0.287889H135.905C137.729 0.287889 139.337 0.63989 140.729 1.34389C142.121 2.03189 143.209 2.99989 143.993 4.24789C144.777 5.49589 145.169 6.97589 145.169 8.68789C145.169 10.3839 144.777 11.8639 143.993 13.1279C143.209 14.3759 142.121 15.3519 140.729 16.0559C139.337 16.7439 137.729 17.0879 135.905 17.0879H128.273ZM132.161 13.8959H135.713C136.833 13.8959 137.801 13.6879 138.617 13.2719C139.449 12.8399 140.089 12.2319 140.537 11.4479C141.001 10.6639 141.233 9.74389 141.233 8.68789C141.233 7.61589 141.001 6.69589 140.537 5.92789C140.089 5.14389 139.449 4.54389 138.617 4.12789C137.801 3.69589 136.833 3.47989 135.713 3.47989H132.161V13.8959ZM154.898 17.0879V0.287889H163.106C165.218 0.287889 166.802 0.68789 167.858 1.48789C168.93 2.28789 169.466 3.34389 169.466 4.65589C169.466 5.53589 169.25 6.30389 168.818 6.95989C168.386 7.59989 167.794 8.09589 167.042 8.44789C166.29 8.79989 165.426 8.97589 164.45 8.97589L164.906 7.99189C165.962 7.99189 166.898 8.16789 167.714 8.51989C168.53 8.85589 169.162 9.35989 169.61 10.0319C170.074 10.7039 170.306 11.5279 170.306 12.5039C170.306 13.9439 169.738 15.0719 168.602 15.8879C167.466 16.6879 165.794 17.0879 163.586 17.0879H154.898ZM158.762 14.1599H163.298C164.306 14.1599 165.066 13.9999 165.578 13.6799C166.106 13.3439 166.37 12.8159 166.37 12.0959C166.37 11.3919 166.106 10.8719 165.578 10.5359C165.066 10.1839 164.306 10.0079 163.298 10.0079H158.474V7.17589H162.626C163.57 7.17589 164.29 7.01589 164.786 6.69589C165.298 6.35989 165.554 5.85589 165.554 5.18389C165.554 4.52789 165.298 4.03989 164.786 3.71989C164.29 3.38389 163.57 3.21589 162.626 3.21589H158.762V14.1599ZM180.714 17.3759C178.33 17.3759 176.466 16.7119 175.122 15.3839C173.778 14.0559 173.106 12.1599 173.106 9.69589V0.287889H176.994V9.55189C176.994 11.1519 177.322 12.3039 177.978 13.0079C178.634 13.7119 179.554 14.0639 180.738 14.0639C181.922 14.0639 182.842 13.7119 183.498 13.0079C184.154 12.3039 184.482 11.1519 184.482 9.55189V0.287889H188.322V9.69589C188.322 12.1599 187.65 14.0559 186.306 15.3839C184.962 16.7119 183.098 17.3759 180.714 17.3759ZM200.204 17.3759C198.908 17.3759 197.7 17.1679 196.58 16.7519C195.476 16.3199 194.516 15.7119 193.7 14.9279C192.884 14.1439 192.244 13.2239 191.78 12.1679C191.332 11.1119 191.108 9.95189 191.108 8.68789C191.108 7.42389 191.332 6.26389 191.78 5.20789C192.244 4.15189 192.884 3.23189 193.7 2.44789C194.532 1.66389 195.5 1.06389 196.604 0.647889C197.708 0.21589 198.916 -0.000109673 200.228 -0.000109673C201.684 -0.000109673 202.996 0.25589 204.164 0.76789C205.348 1.26389 206.34 1.99989 207.14 2.97589L204.644 5.27989C204.068 4.62389 203.428 4.13589 202.724 3.81589C202.02 3.47989 201.252 3.31189 200.42 3.31189C199.636 3.31189 198.916 3.43989 198.26 3.69589C197.604 3.95189 197.036 4.31989 196.556 4.79989C196.076 5.27989 195.7 5.84789 195.428 6.50389C195.172 7.15989 195.044 7.88789 195.044 8.68789C195.044 9.48789 195.172 10.2159 195.428 10.8719C195.7 11.5279 196.076 12.0959 196.556 12.5759C197.036 13.0559 197.604 13.4239 198.26 13.6799C198.916 13.9359 199.636 14.0639 200.42 14.0639C201.252 14.0639 202.02 13.9039 202.724 13.5839C203.428 13.2479 204.068 12.7439 204.644 12.0719L207.14 14.3759C206.34 15.3519 205.348 16.0959 204.164 16.6079C202.996 17.1199 201.676 17.3759 200.204 17.3759ZM213.245 13.2479L213.029 8.75989L221.069 0.287889H225.389L218.141 8.08789L215.981 10.3919L213.245 13.2479ZM209.765 17.0879V0.287889H213.629V17.0879H209.765ZM221.261 17.0879L215.285 9.76789L217.829 7.00789L225.797 17.0879H221.261ZM231.107 7.05589H239.195V10.0799H231.107V7.05589ZM231.395 13.9679H240.539V17.0879H227.531V0.287889H240.227V3.40789H231.395V13.9679ZM247.113 17.0879V3.45589H241.737V0.287889H256.377V3.45589H251.001V17.0879H247.113Z" fill="black"/>
</svg>
