<svg width="250" height="72" viewBox="0 0 250 72" fill="none" xmlns="http://www.w3.org/2000/svg">
<path d="M-0.000249863 22.7842V0.384178H5.18375V22.7842H-0.000249863ZM10.4998 22.7842V0.384178H14.7878L24.3238 16.1922H22.0518L31.4278 0.384178H35.6838L35.7478 22.7842H30.8838L30.8518 7.84018H31.7478L24.2598 20.4162H21.9238L14.2758 7.84018H15.3638V22.7842H10.4998ZM41.0623 22.7842V0.384178H46.2463V18.5602H57.4783V22.7842H41.0623ZM69.4373 22.7842V0.384178H80.3813C83.1973 0.384178 85.3093 0.917512 86.7173 1.98418C88.1466 3.05085 88.8613 4.45885 88.8613 6.20818C88.8613 7.38151 88.5733 8.40551 87.9973 9.28018C87.4213 10.1335 86.6319 10.7948 85.6293 11.2642C84.6266 11.7335 83.4746 11.9682 82.1733 11.9682L82.7812 10.6562C84.1893 10.6562 85.4373 10.8908 86.5253 11.3602C87.6133 11.8082 88.4559 12.4802 89.0533 13.3762C89.6719 14.2722 89.9813 15.3708 89.9813 16.6722C89.9813 18.5922 89.2239 20.0962 87.7093 21.1842C86.1946 22.2508 83.9653 22.7842 81.0213 22.7842H69.4373ZM74.5893 18.8802H80.6373C81.9813 18.8802 82.9946 18.6668 83.6772 18.2402C84.3813 17.7922 84.7333 17.0882 84.7333 16.1282C84.7333 15.1895 84.3813 14.4962 83.6772 14.0482C82.9946 13.5788 81.9813 13.3442 80.6373 13.3442H74.2053V9.56818H79.7413C80.9999 9.56818 81.9599 9.35485 82.6213 8.92818C83.3039 8.48018 83.6453 7.80818 83.6453 6.91218C83.6453 6.03751 83.3039 5.38685 82.6213 4.96018C81.9599 4.51218 80.9999 4.28818 79.7413 4.28818H74.5893V18.8802ZM98.674 9.40818H109.458V13.4402H98.674V9.40818ZM99.058 18.6242H111.25V22.7842H93.906V0.384178H110.834V4.54418H99.058V18.6242ZM121.782 22.7842L112.118 0.384178H117.718L126.166 20.2242H122.87L131.446 0.384178H136.598L126.902 22.7842H121.782ZM143.237 9.40818H154.021V13.4402H143.237V9.40818ZM143.621 18.6242H155.812V22.7842H138.469V0.384178H155.397V4.54418H143.621V18.6242ZM159.937 22.7842V0.384178H169.633C171.639 0.384178 173.367 0.714845 174.817 1.37618C176.268 2.01618 177.388 2.94418 178.177 4.16018C178.967 5.37618 179.361 6.82685 179.361 8.51218C179.361 10.1762 178.967 11.6162 178.177 12.8322C177.388 14.0268 176.268 14.9442 174.817 15.5842C173.367 16.2242 171.639 16.5442 169.633 16.5442H162.817L165.121 14.2722V22.7842H159.937ZM174.177 22.7842L168.577 14.6562H174.113L179.777 22.7842H174.177ZM165.121 14.8482L162.817 12.4162H169.345C170.945 12.4162 172.14 12.0748 172.929 11.3922C173.719 10.6882 174.113 9.72818 174.113 8.51218C174.113 7.27485 173.719 6.31485 172.929 5.63218C172.14 4.94951 170.945 4.60818 169.345 4.60818H162.817L165.121 2.14418V14.8482ZM180.524 22.7842L190.509 0.384178H195.629L205.645 22.7842H200.205L192.013 3.00818H194.061L185.837 22.7842H180.524ZM185.516 17.9842L186.893 14.0482H198.413L199.821 17.9842H185.516ZM218.472 23.1682C216.701 23.1682 215.069 22.8908 213.576 22.3362C212.104 21.7602 210.813 20.9495 209.704 19.9042C208.616 18.8588 207.763 17.6322 207.144 16.2242C206.547 14.8162 206.248 13.2695 206.248 11.5842C206.248 9.89885 206.547 8.35218 207.144 6.94418C207.763 5.53618 208.627 4.30951 209.736 3.26418C210.845 2.21885 212.147 1.41884 213.64 0.864178C215.133 0.288179 216.776 0.000179291 218.568 0.000179291C220.552 0.000179291 222.333 0.330846 223.912 0.992178C225.512 1.65351 226.856 2.61351 227.944 3.87218L224.616 6.94418C223.805 6.09085 222.92 5.46151 221.96 5.05618C221 4.62951 219.955 4.41618 218.824 4.41618C217.736 4.41618 216.744 4.58685 215.848 4.92818C214.952 5.26951 214.173 5.76018 213.512 6.40018C212.872 7.04018 212.371 7.79751 212.008 8.67218C211.667 9.54685 211.496 10.5175 211.496 11.5842C211.496 12.6295 211.667 13.5895 212.008 14.4642C212.371 15.3388 212.872 16.1068 213.512 16.7682C214.173 17.4082 214.941 17.8988 215.816 18.2402C216.712 18.5815 217.693 18.7522 218.76 18.7522C219.784 18.7522 220.776 18.5922 221.736 18.2722C222.717 17.9308 223.667 17.3655 224.584 16.5762L227.528 20.3202C226.312 21.2375 224.893 21.9415 223.272 22.4322C221.672 22.9228 220.072 23.1682 218.472 23.1682ZM222.792 19.6482V11.2322H227.528V20.3202L222.792 19.6482ZM237.112 9.40818H247.896V13.4402H237.112V9.40818ZM237.496 18.6242H249.688V22.7842H232.344V0.384178H249.272V4.54418H237.496V18.6242ZM101.626 71.1682C99.898 71.1682 98.2873 70.8908 96.794 70.3362C95.322 69.7602 94.042 68.9495 92.954 67.9042C91.866 66.8588 91.0127 65.6322 90.394 64.2242C89.7967 62.8162 89.498 61.2695 89.498 59.5842C89.498 57.8988 89.7967 56.3522 90.394 54.9442C91.0127 53.5362 91.866 52.3095 92.954 51.2642C94.0633 50.2188 95.354 49.4188 96.826 48.8642C98.298 48.2882 99.9087 48.0002 101.658 48.0002C103.599 48.0002 105.349 48.3415 106.906 49.0242C108.485 49.6855 109.807 50.6668 110.874 51.9682L107.546 55.0402C106.778 54.1655 105.925 53.5148 104.986 53.0882C104.047 52.6402 103.023 52.4162 101.914 52.4162C100.869 52.4162 99.9087 52.5868 99.034 52.9282C98.1593 53.2695 97.402 53.7602 96.762 54.4002C96.122 55.0402 95.6207 55.7975 95.258 56.6722C94.9167 57.5468 94.746 58.5175 94.746 59.5842C94.746 60.6508 94.9167 61.6215 95.258 62.4962C95.6207 63.3708 96.122 64.1282 96.762 64.7682C97.402 65.4082 98.1593 65.8988 99.034 66.2402C99.9087 66.5815 100.869 66.7522 101.914 66.7522C103.023 66.7522 104.047 66.5388 104.986 66.1122C105.925 65.6642 106.778 64.9922 107.546 64.0962L110.874 67.1682C109.807 68.4695 108.485 69.4615 106.906 70.1442C105.349 70.8268 103.589 71.1682 101.626 71.1682ZM124.202 71.1682C121.023 71.1682 118.538 70.2828 116.746 68.5122C114.954 66.7415 114.058 64.2135 114.058 60.9282V48.3842H119.242V60.7362C119.242 62.8695 119.679 64.4055 120.554 65.3442C121.428 66.2828 122.655 66.7522 124.234 66.7522C125.812 66.7522 127.039 66.2828 127.914 65.3442C128.788 64.4055 129.226 62.8695 129.226 60.7362V48.3842H134.346V60.9282C134.346 64.2135 133.45 66.7415 131.658 68.5122C129.866 70.2828 127.38 71.1682 124.202 71.1682ZM139.469 70.7842V48.3842H149.165C151.17 48.3842 152.898 48.7148 154.349 49.3762C155.799 50.0162 156.919 50.9442 157.709 52.1602C158.498 53.3762 158.893 54.8268 158.893 56.5122C158.893 58.1762 158.498 59.6162 157.709 60.8322C156.919 62.0482 155.799 62.9868 154.349 63.6482C152.898 64.2882 151.17 64.6082 149.165 64.6082H142.349L144.653 62.2722V70.7842H139.469ZM144.653 62.8482L142.349 60.3842H148.877C150.477 60.3842 151.671 60.0428 152.461 59.3602C153.25 58.6775 153.645 57.7282 153.645 56.5122C153.645 55.2748 153.25 54.3148 152.461 53.6322C151.671 52.9495 150.477 52.6082 148.877 52.6082H142.349L144.653 50.1442V62.8482Z" fill="black"/>
</svg>
