<svg width="119" height="14" viewBox="0 0 119 14" fill="none" xmlns="http://www.w3.org/2000/svg">
<path d="M-0.000140548 13.3564V0.756444H6.15586C7.73986 0.756444 8.92786 1.05644 9.71986 1.65644C10.5239 2.25644 10.9259 3.04844 10.9259 4.03245C10.9259 4.69244 10.7639 5.26844 10.4399 5.76044C10.1159 6.24044 9.67186 6.61244 9.10786 6.87645C8.54386 7.14044 7.89586 7.27244 7.16386 7.27244L7.50586 6.53445C8.29786 6.53445 8.99986 6.66645 9.61186 6.93044C10.2239 7.18244 10.6979 7.56045 11.0339 8.06445C11.3819 8.56845 11.5559 9.18645 11.5559 9.91845C11.5559 10.9984 11.1299 11.8444 10.2779 12.4564C9.42586 13.0564 8.17186 13.3564 6.51586 13.3564H-0.000140548ZM2.89786 11.1604H6.29986C7.05586 11.1604 7.62586 11.0404 8.00986 10.8004C8.40586 10.5484 8.60386 10.1524 8.60386 9.61245C8.60386 9.08445 8.40586 8.69445 8.00986 8.44245C7.62586 8.17845 7.05586 8.04645 6.29986 8.04645H2.68186V5.92244H5.79586C6.50386 5.92244 7.04386 5.80244 7.41586 5.56244C7.79986 5.31044 7.99186 4.93244 7.99186 4.42844C7.99186 3.93645 7.79986 3.57045 7.41586 3.33044C7.04386 3.07844 6.50386 2.95245 5.79586 2.95245H2.89786V11.1604ZM16.1978 13.3564V3.13244H12.1658V0.756444H23.1458V3.13244H19.1138V13.3564H16.1978ZM23.4887 9.41445V7.16445H28.5827V9.41445H23.4887ZM31.7554 13.3564V1.83644L33.0154 3.09644H29.2354V0.756444H34.6714V13.3564H31.7554ZM36.7162 10.7104V8.74845L42.6562 0.756444H45.7162L39.9022 8.74845L38.4802 8.33445H48.3982V10.7104H36.7162ZM43.5022 13.3564V10.7104L43.5922 8.33445V5.97644H46.3462V13.3564H43.5022ZM49.6801 9.41445V7.16445H54.7741V9.41445H49.6801ZM62.0762 13.5724C60.9242 13.5724 59.9222 13.3324 59.0702 12.8524C58.2302 12.3724 57.5822 11.6704 57.1262 10.7464C56.6702 9.82245 56.4422 8.68245 56.4422 7.32645C56.4422 5.87444 56.7122 4.64444 57.2522 3.63644C57.8042 2.62845 58.5602 1.86044 59.5202 1.33244C60.4922 0.804445 61.6082 0.540445 62.8682 0.540445C63.5402 0.540445 64.1822 0.612445 64.7942 0.756444C65.4062 0.900445 65.9342 1.11644 66.3782 1.40444L65.2982 3.54645C64.9502 3.30645 64.5782 3.14445 64.1822 3.06044C63.7862 2.96444 63.3722 2.91644 62.9402 2.91644C61.8482 2.91644 60.9842 3.24644 60.3482 3.90644C59.7122 4.56644 59.3942 5.54444 59.3942 6.84044C59.3942 7.05645 59.3942 7.29645 59.3942 7.56044C59.4062 7.82445 59.4422 8.08845 59.5022 8.35244L58.6922 7.59644C58.9202 7.12844 59.2142 6.73844 59.5742 6.42644C59.9342 6.10244 60.3602 5.86244 60.8522 5.70645C61.3562 5.53845 61.9082 5.45445 62.5082 5.45445C63.3242 5.45445 64.0562 5.61645 64.7042 5.94044C65.3522 6.26444 65.8682 6.72044 66.2522 7.30844C66.6482 7.89645 66.8462 8.58645 66.8462 9.37845C66.8462 10.2304 66.6302 10.9744 66.1982 11.6104C65.7782 12.2344 65.2082 12.7204 64.4882 13.0684C63.7802 13.4044 62.9762 13.5724 62.0762 13.5724ZM61.9142 11.3944C62.3222 11.3944 62.6822 11.3224 62.9942 11.1784C63.3182 11.0224 63.5702 10.8004 63.7502 10.5124C63.9302 10.2244 64.0202 9.89445 64.0202 9.52245C64.0202 8.94645 63.8222 8.49045 63.4262 8.15445C63.0422 7.80645 62.5262 7.63244 61.8782 7.63244C61.4462 7.63244 61.0682 7.71644 60.7442 7.88444C60.4202 8.04045 60.1622 8.26245 59.9702 8.55044C59.7902 8.82644 59.7002 9.15045 59.7002 9.52245C59.7002 9.88245 59.7902 10.2064 59.9702 10.4944C60.1502 10.7704 60.4022 10.9924 60.7262 11.1604C61.0502 11.3164 61.4462 11.3944 61.9142 11.3944ZM72.1872 13.5724C71.3112 13.5724 70.4412 13.4584 69.5772 13.2304C68.7252 12.9904 67.9932 12.6544 67.3812 12.2224L68.5332 9.99045C69.0132 10.3384 69.5652 10.6144 70.1892 10.8184C70.8252 11.0224 71.4672 11.1244 72.1152 11.1244C72.8472 11.1244 73.4232 10.9804 73.8432 10.6924C74.2632 10.4044 74.4732 10.0024 74.4732 9.48645C74.4732 9.16245 74.3892 8.87445 74.2212 8.62245C74.0532 8.37045 73.7532 8.17845 73.3212 8.04645C72.9012 7.91444 72.3072 7.84844 71.5392 7.84844H68.3172L68.9652 0.756444H76.6512V3.09644H70.0092L71.5212 1.76444L71.0712 6.82245L69.5592 5.49045H72.2232C73.4712 5.49045 74.4732 5.66445 75.2292 6.01244C75.9972 6.34844 76.5552 6.81044 76.9032 7.39844C77.2512 7.98645 77.4252 8.65245 77.4252 9.39645C77.4252 10.1404 77.2392 10.8304 76.8672 11.4664C76.4952 12.0904 75.9192 12.6004 75.1392 12.9964C74.3712 13.3804 73.3872 13.5724 72.1872 13.5724ZM84.0083 13.5724C82.9763 13.5724 82.0523 13.3204 81.2363 12.8164C80.4203 12.3004 79.7783 11.5564 79.3103 10.5844C78.8423 9.61245 78.6083 8.43644 78.6083 7.05644C78.6083 5.67644 78.8423 4.50044 79.3103 3.52845C79.7783 2.55644 80.4203 1.81844 81.2363 1.31444C82.0523 0.798445 82.9763 0.540445 84.0083 0.540445C85.0523 0.540445 85.9763 0.798445 86.7803 1.31444C87.5963 1.81844 88.2383 2.55644 88.7063 3.52845C89.1743 4.50044 89.4083 5.67644 89.4083 7.05644C89.4083 8.43644 89.1743 9.61245 88.7063 10.5844C88.2383 11.5564 87.5963 12.3004 86.7803 12.8164C85.9763 13.3204 85.0523 13.5724 84.0083 13.5724ZM84.0083 11.1064C84.5003 11.1064 84.9263 10.9684 85.2863 10.6924C85.6583 10.4164 85.9463 9.97845 86.1503 9.37845C86.3663 8.77844 86.4743 8.00444 86.4743 7.05644C86.4743 6.10844 86.3663 5.33444 86.1503 4.73444C85.9463 4.13444 85.6583 3.69644 85.2863 3.42044C84.9263 3.14444 84.5003 3.00644 84.0083 3.00644C83.5283 3.00644 83.1023 3.14444 82.7303 3.42044C82.3703 3.69644 82.0823 4.13444 81.8663 4.73444C81.6623 5.33444 81.5603 6.10844 81.5603 7.05644C81.5603 8.00444 81.6623 8.77844 81.8663 9.37845C82.0823 9.97845 82.3703 10.4164 82.7303 10.6924C83.1023 10.9684 83.5283 11.1064 84.0083 11.1064ZM108.919 3.52845C109.687 3.52845 110.365 3.68445 110.953 3.99644C111.553 4.29644 112.021 4.76444 112.357 5.40044C112.705 6.02444 112.879 6.82844 112.879 7.81244V13.3564H110.071V8.24445C110.071 7.46445 109.909 6.88845 109.585 6.51644C109.261 6.14445 108.805 5.95845 108.217 5.95845C107.809 5.95845 107.443 6.05445 107.119 6.24645C106.795 6.42644 106.543 6.70244 106.363 7.07445C106.183 7.44645 106.093 7.92045 106.093 8.49645V13.3564H103.285V8.24445C103.285 7.46445 103.123 6.88845 102.799 6.51644C102.487 6.14445 102.037 5.95845 101.449 5.95845C101.041 5.95845 100.675 6.05445 100.351 6.24645C100.027 6.42644 99.7747 6.70244 99.5947 7.07445C99.4147 7.44645 99.3247 7.92045 99.3247 8.49645V13.3564H96.5167V3.67244H99.1987V6.31844L98.6947 5.54445C99.0307 4.88444 99.5047 4.38644 100.117 4.05044C100.741 3.70245 101.449 3.52845 102.241 3.52845C103.129 3.52845 103.903 3.75645 104.563 4.21245C105.235 4.65645 105.679 5.34044 105.895 6.26444L104.905 5.99445C105.229 5.23844 105.745 4.63844 106.453 4.19445C107.173 3.75045 107.995 3.52845 108.919 3.52845ZM115.396 13.3564V0.000444531H118.204V13.3564H115.396Z" fill="#1B622D"/>
</svg>
