<svg width="248" height="24" viewBox="0 0 248 24" fill="none" xmlns="http://www.w3.org/2000/svg">
<path d="M3.85464 7.84103C3.30799 7.84103 2.80235 7.7522 2.3377 7.57454C1.87989 7.39005 1.48015 7.13381 1.1385 6.80582C0.803679 6.471 0.540607 6.08152 0.349281 5.63737C0.157955 5.19322 0.0622925 4.70466 0.0622925 4.17168C0.0622925 3.6387 0.157955 3.15014 0.349281 2.70599C0.540607 2.26184 0.807096 1.87577 1.14875 1.54779C1.4904 1.21297 1.89014 0.956725 2.34795 0.779066C2.8126 0.594574 3.31824 0.502328 3.86489 0.502328C4.41837 0.502328 4.92743 0.59799 5.39208 0.789316C5.86356 0.973808 6.26329 1.25055 6.59128 1.61953L5.92505 2.26526C5.65173 1.97827 5.34425 1.76644 5.00259 1.62978C4.66094 1.48629 4.29537 1.41454 3.90589 1.41454C3.50274 1.41454 3.12692 1.48287 2.77843 1.61953C2.43678 1.75619 2.13954 1.94752 1.88672 2.19351C1.6339 2.4395 1.43574 2.73332 1.29224 3.07497C1.15558 3.40979 1.08725 3.77536 1.08725 4.17168C1.08725 4.568 1.15558 4.93698 1.29224 5.27863C1.43574 5.61345 1.6339 5.90386 1.88672 6.14985C2.13954 6.39584 2.43678 6.58716 2.77843 6.72383C3.12692 6.86049 3.50274 6.92882 3.90589 6.92882C4.29537 6.92882 4.66094 6.86049 5.00259 6.72383C5.34425 6.58033 5.65173 6.36167 5.92505 6.06785L6.59128 6.71358C6.26329 7.08256 5.86356 7.36272 5.39208 7.55404C4.92743 7.74537 4.41495 7.84103 3.85464 7.84103ZM10.0064 7.82053C9.45975 7.82053 8.9746 7.70095 8.55095 7.4618C8.1273 7.22264 7.79248 6.89465 7.54649 6.47784C7.3005 6.05419 7.17751 5.57587 7.17751 5.04289C7.17751 4.50308 7.3005 4.02477 7.54649 3.60795C7.79248 3.19113 8.1273 2.86656 8.55095 2.63424C8.9746 2.39508 9.45975 2.27551 10.0064 2.27551C10.5462 2.27551 11.0279 2.39508 11.4516 2.63424C11.8821 2.86656 12.2169 3.19113 12.456 3.60795C12.702 4.01793 12.825 4.49625 12.825 5.04289C12.825 5.5827 12.702 6.06102 12.456 6.47784C12.2169 6.89465 11.8821 7.22264 11.4516 7.4618C11.0279 7.70095 10.5462 7.82053 10.0064 7.82053ZM10.0064 6.95957C10.3549 6.95957 10.6658 6.88099 10.9391 6.72383C11.2193 6.56666 11.4379 6.34459 11.5951 6.0576C11.7522 5.76378 11.8308 5.42554 11.8308 5.04289C11.8308 4.65341 11.7522 4.31859 11.5951 4.03843C11.4379 3.75145 11.2193 3.52937 10.9391 3.37221C10.6658 3.21505 10.3549 3.13647 10.0064 3.13647C9.65791 3.13647 9.347 3.21505 9.07368 3.37221C8.80036 3.52937 8.5817 3.75145 8.41771 4.03843C8.25371 4.31859 8.17172 4.65341 8.17172 5.04289C8.17172 5.42554 8.25371 5.76378 8.41771 6.0576C8.5817 6.34459 8.80036 6.56666 9.07368 6.72383C9.347 6.88099 9.65791 6.95957 10.0064 6.95957ZM20.9813 2.27551C21.4186 2.27551 21.8047 2.36092 22.1395 2.53174C22.4743 2.70257 22.734 2.96223 22.9185 3.31071C23.1098 3.6592 23.2055 4.09993 23.2055 4.63291V7.75903H22.2215V4.74566C22.2215 4.21951 22.0985 3.82319 21.8525 3.5567C21.6065 3.29021 21.2614 3.15697 20.8173 3.15697C20.4893 3.15697 20.2023 3.2253 19.9563 3.36196C19.7103 3.49862 19.519 3.7002 19.3824 3.96669C19.2525 4.23318 19.1876 4.56458 19.1876 4.9609V7.75903H18.2037V4.74566C18.2037 4.21951 18.0807 3.82319 17.8347 3.5567C17.5955 3.29021 17.2504 3.15697 16.7995 3.15697C16.4783 3.15697 16.1947 3.2253 15.9487 3.36196C15.7028 3.49862 15.5114 3.7002 15.3748 3.96669C15.2381 4.23318 15.1698 4.56458 15.1698 4.9609V7.75903H14.1858V2.32675H15.1288V3.77194L14.975 3.40296C15.1459 3.04764 15.4089 2.7709 15.7643 2.57274C16.1196 2.37458 16.533 2.27551 17.0045 2.27551C17.5238 2.27551 17.9713 2.40533 18.3472 2.66499C18.723 2.91781 18.969 3.30388 19.0851 3.82319L18.6854 3.6592C18.8494 3.24238 19.1364 2.90756 19.5464 2.65474C19.9563 2.40192 20.4346 2.27551 20.9813 2.27551ZM27.8961 7.82053C27.4451 7.82053 27.0317 7.71803 26.6559 7.51304C26.2869 7.30122 25.9897 6.99031 25.7642 6.58033C25.5455 6.17035 25.4362 5.65787 25.4362 5.04289C25.4362 4.42792 25.5421 3.91544 25.7539 3.50546C25.9726 3.09547 26.2664 2.78798 26.6354 2.58299C27.0112 2.378 27.4314 2.27551 27.8961 2.27551C28.4291 2.27551 28.9005 2.39167 29.3105 2.62399C29.7205 2.85632 30.0451 3.18089 30.2842 3.5977C30.5234 4.00769 30.643 4.48942 30.643 5.04289C30.643 5.59637 30.5234 6.08152 30.2842 6.49833C30.0451 6.91515 29.7205 7.23972 29.3105 7.47204C28.9005 7.70437 28.4291 7.82053 27.8961 7.82053ZM25.0159 9.74745V2.32675H25.9589V3.79244L25.8974 5.05314L25.9999 6.31384V9.74745H25.0159ZM27.8141 6.95957C28.1626 6.95957 28.4735 6.88099 28.7468 6.72383C29.0269 6.56666 29.2456 6.34459 29.4028 6.0576C29.5668 5.76378 29.6488 5.42554 29.6488 5.04289C29.6488 4.65341 29.5668 4.31859 29.4028 4.03843C29.2456 3.75145 29.0269 3.52937 28.7468 3.37221C28.4735 3.21505 28.1626 3.13647 27.8141 3.13647C27.4724 3.13647 27.1615 3.21505 26.8814 3.37221C26.608 3.52937 26.3894 3.75145 26.2254 4.03843C26.0682 4.31859 25.9897 4.65341 25.9897 5.04289C25.9897 5.42554 26.0682 5.76378 26.2254 6.0576C26.3894 6.34459 26.608 6.56666 26.8814 6.72383C27.1615 6.88099 27.4724 6.95957 27.8141 6.95957ZM35.3245 7.75903V6.61108L35.2733 6.39584V4.43817C35.2733 4.02135 35.1503 3.7002 34.9043 3.47471C34.6652 3.24238 34.303 3.12622 33.8179 3.12622C33.4967 3.12622 33.1824 3.18089 32.8749 3.29021C32.5674 3.39271 32.3078 3.53279 32.0959 3.71045L31.6859 2.97248C31.9661 2.74699 32.3009 2.57616 32.6904 2.46C33.0867 2.337 33.5001 2.27551 33.9306 2.27551C34.6754 2.27551 35.2494 2.45658 35.6525 2.81873C36.0557 3.18089 36.2573 3.73436 36.2573 4.47917V7.75903H35.3245ZM33.5411 7.82053C33.138 7.82053 32.7826 7.7522 32.4752 7.61554C32.1745 7.47888 31.9422 7.29097 31.7782 7.05181C31.6142 6.80582 31.5322 6.52908 31.5322 6.2216C31.5322 5.92777 31.6005 5.66128 31.7372 5.42213C31.8807 5.18297 32.1096 4.99165 32.4239 4.84815C32.7451 4.70466 33.1755 4.63291 33.7154 4.63291H35.4373V5.34013H33.7564C33.2644 5.34013 32.933 5.42213 32.7621 5.58612C32.5913 5.75011 32.5059 5.94827 32.5059 6.1806C32.5059 6.44709 32.6118 6.66233 32.8236 6.82632C33.0355 6.98348 33.3293 7.06206 33.7051 7.06206C34.0741 7.06206 34.3952 6.98006 34.6686 6.81607C34.9487 6.65208 35.1503 6.41292 35.2733 6.0986L35.468 6.77507C35.3382 7.09623 35.1093 7.35247 34.7813 7.54379C34.4533 7.72828 34.0399 7.82053 33.5411 7.82053ZM40.4458 7.82053C39.8923 7.82053 39.3969 7.70095 38.9596 7.4618C38.5291 7.22264 38.1909 6.89465 37.9449 6.47784C37.6989 6.06102 37.5759 5.5827 37.5759 5.04289C37.5759 4.50308 37.6989 4.02477 37.9449 3.60795C38.1909 3.19113 38.5291 2.86656 38.9596 2.63424C39.3969 2.39508 39.8923 2.27551 40.4458 2.27551C40.9378 2.27551 41.3751 2.37458 41.7578 2.57274C42.1472 2.76407 42.4479 3.05106 42.6597 3.43371L41.9115 3.91544C41.7338 3.64895 41.5152 3.45421 41.2555 3.33121C41.0027 3.20138 40.7294 3.13647 40.4356 3.13647C40.0802 3.13647 39.7625 3.21505 39.4824 3.37221C39.2022 3.52937 38.9801 3.75145 38.8161 4.03843C38.6521 4.31859 38.5701 4.65341 38.5701 5.04289C38.5701 5.43238 38.6521 5.77061 38.8161 6.0576C38.9801 6.34459 39.2022 6.56666 39.4824 6.72383C39.7625 6.88099 40.0802 6.95957 40.4356 6.95957C40.7294 6.95957 41.0027 6.89807 41.2555 6.77507C41.5152 6.64525 41.7338 6.44709 41.9115 6.1806L42.6597 6.65208C42.4479 7.0279 42.1472 7.3183 41.7578 7.52329C41.3751 7.72145 40.9378 7.82053 40.4458 7.82053ZM45.8691 7.82053C45.3225 7.82053 44.8988 7.67362 44.5982 7.3798C44.2975 7.08598 44.1472 6.66574 44.1472 6.1191V1.1378H45.1312V6.0781C45.1312 6.37192 45.2029 6.59741 45.3464 6.75457C45.4967 6.91173 45.7085 6.99031 45.9819 6.99031C46.2894 6.99031 46.5456 6.9049 46.7506 6.73407L47.0581 7.4413C46.9077 7.57112 46.7267 7.66679 46.5148 7.72828C46.3099 7.78978 46.0946 7.82053 45.8691 7.82053ZM43.2247 3.13647V2.32675H46.6891V3.13647H43.2247ZM51.1437 7.75903V0.584324H52.1687V7.75903H51.1437ZM54.3167 7.75903V0.584324H55.1572L58.3755 6.00635H57.9246L61.1019 0.584324H61.9424L61.9526 7.75903H60.9687L60.9584 2.13201H61.1942L58.3653 6.88782H57.8938L55.0444 2.13201H55.3007V7.75903H54.3167ZM64.1059 7.75903V0.584324H65.1308V6.86732H69.0154V7.75903H64.1059ZM75.1683 7.82053C74.6148 7.82053 74.1194 7.70095 73.6821 7.4618C73.2516 7.22264 72.9134 6.89465 72.6674 6.47784C72.4214 6.06102 72.2984 5.5827 72.2984 5.04289C72.2984 4.50308 72.4214 4.02477 72.6674 3.60795C72.9134 3.19113 73.2516 2.86656 73.6821 2.63424C74.1194 2.39508 74.6148 2.27551 75.1683 2.27551C75.6603 2.27551 76.0976 2.37458 76.4802 2.57274C76.8697 2.76407 77.1704 3.05106 77.3822 3.43371L76.634 3.91544C76.4563 3.64895 76.2377 3.45421 75.978 3.33121C75.7252 3.20138 75.4519 3.13647 75.158 3.13647C74.8027 3.13647 74.485 3.21505 74.2048 3.37221C73.9247 3.52937 73.7026 3.75145 73.5386 4.03843C73.3746 4.31859 73.2926 4.65341 73.2926 5.04289C73.2926 5.43238 73.3746 5.77061 73.5386 6.0576C73.7026 6.34459 73.9247 6.56666 74.2048 6.72383C74.485 6.88099 74.8027 6.95957 75.158 6.95957C75.4519 6.95957 75.7252 6.89807 75.978 6.77507C76.2377 6.64525 76.4563 6.44709 76.634 6.1806L77.3822 6.65208C77.1704 7.0279 76.8697 7.3183 76.4802 7.52329C76.0976 7.72145 75.6603 7.82053 75.1683 7.82053ZM80.9027 7.82053C80.356 7.82053 79.8709 7.70095 79.4472 7.4618C79.0236 7.22264 78.6888 6.89465 78.4428 6.47784C78.1968 6.05419 78.0738 5.57587 78.0738 5.04289C78.0738 4.50308 78.1968 4.02477 78.4428 3.60795C78.6888 3.19113 79.0236 2.86656 79.4472 2.63424C79.8709 2.39508 80.356 2.27551 80.9027 2.27551C81.4425 2.27551 81.9242 2.39508 82.3479 2.63424C82.7784 2.86656 83.1132 3.19113 83.3523 3.60795C83.5983 4.01793 83.7213 4.49625 83.7213 5.04289C83.7213 5.5827 83.5983 6.06102 83.3523 6.47784C83.1132 6.89465 82.7784 7.22264 82.3479 7.4618C81.9242 7.70095 81.4425 7.82053 80.9027 7.82053ZM80.9027 6.95957C81.2512 6.95957 81.5621 6.88099 81.8354 6.72383C82.1156 6.56666 82.3342 6.34459 82.4914 6.0576C82.6485 5.76378 82.7271 5.42554 82.7271 5.04289C82.7271 4.65341 82.6485 4.31859 82.4914 4.03843C82.3342 3.75145 82.1156 3.52937 81.8354 3.37221C81.5621 3.21505 81.2512 3.13647 80.9027 3.13647C80.5542 3.13647 80.2433 3.21505 79.97 3.37221C79.6967 3.52937 79.478 3.75145 79.314 4.03843C79.15 4.31859 79.068 4.65341 79.068 5.04289C79.068 5.42554 79.15 5.76378 79.314 6.0576C79.478 6.34459 79.6967 6.56666 79.97 6.72383C80.2433 6.88099 80.5542 6.95957 80.9027 6.95957ZM87.9827 2.27551C88.4269 2.27551 88.8164 2.36092 89.1512 2.53174C89.4928 2.70257 89.7593 2.96223 89.9507 3.31071C90.142 3.6592 90.2377 4.09993 90.2377 4.63291V7.75903H89.2537V4.74566C89.2537 4.21951 89.1239 3.82319 88.8642 3.5567C88.6114 3.29021 88.2526 3.15697 87.788 3.15697C87.4395 3.15697 87.1354 3.2253 86.8758 3.36196C86.6161 3.49862 86.4146 3.7002 86.2711 3.96669C86.1344 4.23318 86.0661 4.56458 86.0661 4.9609V7.75903H85.0821V2.32675H86.0251V3.79244L85.8713 3.40296C86.049 3.04764 86.3223 2.7709 86.6913 2.57274C87.0603 2.37458 87.4908 2.27551 87.9827 2.27551ZM93.9241 7.82053C93.3774 7.82053 92.9538 7.67362 92.6531 7.3798C92.3525 7.08598 92.2021 6.66574 92.2021 6.1191V1.1378H93.1861V6.0781C93.1861 6.37192 93.2578 6.59741 93.4013 6.75457C93.5517 6.91173 93.7635 6.99031 94.0368 6.99031C94.3443 6.99031 94.6005 6.9049 94.8055 6.73407L95.113 7.4413C94.9627 7.57112 94.7816 7.66679 94.5698 7.72828C94.3648 7.78978 94.1496 7.82053 93.9241 7.82053ZM91.2797 3.13647V2.32675H94.744V3.13647H91.2797ZM99.6747 7.75903V6.61108L99.6235 6.39584V4.43817C99.6235 4.02135 99.5005 3.7002 99.2545 3.47471C99.0153 3.24238 98.6532 3.12622 98.168 3.12622C97.8469 3.12622 97.5326 3.18089 97.2251 3.29021C96.9176 3.39271 96.6579 3.53279 96.4461 3.71045L96.0361 2.97248C96.3163 2.74699 96.6511 2.57616 97.0406 2.46C97.4369 2.337 97.8503 2.27551 98.2808 2.27551C99.0256 2.27551 99.5996 2.45658 100.003 2.81873C100.406 3.18089 100.607 3.73436 100.607 4.47917V7.75903H99.6747ZM97.8913 7.82053C97.4881 7.82053 97.1328 7.7522 96.8253 7.61554C96.5247 7.47888 96.2924 7.29097 96.1284 7.05181C95.9644 6.80582 95.8824 6.52908 95.8824 6.2216C95.8824 5.92777 95.9507 5.66128 96.0874 5.42213C96.2309 5.18297 96.4598 4.99165 96.7741 4.84815C97.0952 4.70466 97.5257 4.63291 98.0655 4.63291H99.7875V5.34013H98.1065C97.6146 5.34013 97.2832 5.42213 97.1123 5.58612C96.9415 5.75011 96.8561 5.94827 96.8561 6.1806C96.8561 6.44709 96.962 6.66233 97.1738 6.82632C97.3856 6.98348 97.6795 7.06206 98.0553 7.06206C98.4243 7.06206 98.7454 6.98006 99.0187 6.81607C99.2989 6.65208 99.5005 6.41292 99.6235 6.0986L99.8182 6.77507C99.6884 7.09623 99.4595 7.35247 99.1315 7.54379C98.8035 7.72828 98.3901 7.82053 97.8913 7.82053ZM102.428 7.75903V2.32675H103.412V7.75903H102.428ZM102.92 1.2813C102.729 1.2813 102.568 1.2198 102.439 1.0968C102.316 0.973808 102.254 0.823481 102.254 0.645822C102.254 0.461329 102.316 0.307585 102.439 0.18459C102.568 0.0615952 102.729 9.76671e-05 102.92 9.76671e-05C103.112 9.76671e-05 103.269 0.0615952 103.392 0.18459C103.522 0.300752 103.587 0.447663 103.587 0.625322C103.587 0.809815 103.525 0.966975 103.402 1.0968C103.279 1.2198 103.118 1.2813 102.92 1.2813ZM108.192 2.27551C108.636 2.27551 109.025 2.36092 109.36 2.53174C109.702 2.70257 109.968 2.96223 110.16 3.31071C110.351 3.6592 110.447 4.09993 110.447 4.63291V7.75903H109.463V4.74566C109.463 4.21951 109.333 3.82319 109.073 3.5567C108.82 3.29021 108.462 3.15697 107.997 3.15697C107.648 3.15697 107.344 3.2253 107.085 3.36196C106.825 3.49862 106.623 3.7002 106.48 3.96669C106.343 4.23318 106.275 4.56458 106.275 4.9609V7.75903H105.291V2.32675H106.234V3.79244L106.08 3.40296C106.258 3.04764 106.531 2.7709 106.9 2.57274C107.269 2.37458 107.7 2.27551 108.192 2.27551ZM114.686 7.82053C114.106 7.82053 113.593 7.70095 113.149 7.4618C112.712 7.22264 112.37 6.89465 112.124 6.47784C111.885 6.06102 111.765 5.5827 111.765 5.04289C111.765 4.50308 111.881 4.02477 112.114 3.60795C112.353 3.19113 112.678 2.86656 113.088 2.63424C113.504 2.39508 113.972 2.27551 114.492 2.27551C115.018 2.27551 115.482 2.39167 115.886 2.62399C116.289 2.85632 116.603 3.1843 116.829 3.60795C117.061 4.02477 117.177 4.51333 117.177 5.07364C117.177 5.11464 117.174 5.16247 117.167 5.21714C117.167 5.2718 117.163 5.32305 117.157 5.37088H112.534V4.66366H116.644L116.244 4.90965C116.251 4.56116 116.179 4.25026 116.029 3.97694C115.879 3.70361 115.67 3.49179 115.404 3.34146C115.144 3.1843 114.84 3.10572 114.492 3.10572C114.15 3.10572 113.846 3.1843 113.579 3.34146C113.313 3.49179 113.105 3.70703 112.954 3.98719C112.804 4.26051 112.729 4.57483 112.729 4.93015V5.09414C112.729 5.45629 112.811 5.78086 112.975 6.06785C113.146 6.34801 113.381 6.56666 113.682 6.72383C113.983 6.88099 114.328 6.95957 114.717 6.95957C115.038 6.95957 115.329 6.9049 115.588 6.79557C115.855 6.68624 116.087 6.52225 116.285 6.30359L116.829 6.93907C116.583 7.22605 116.275 7.44471 115.906 7.59504C115.544 7.74537 115.137 7.82053 114.686 7.82053ZM118.543 7.75903V2.32675H119.486V3.80269L119.394 3.43371C119.544 3.05789 119.797 2.7709 120.153 2.57274C120.508 2.37458 120.945 2.27551 121.465 2.27551V3.22872C121.424 3.22188 121.383 3.21847 121.342 3.21847C121.307 3.21847 121.273 3.21847 121.239 3.21847C120.713 3.21847 120.296 3.37563 119.989 3.68995C119.681 4.00427 119.527 4.45867 119.527 5.05314V7.75903H118.543ZM127.283 7.81028C126.778 7.81028 126.388 7.67362 126.115 7.4003C125.842 7.12698 125.705 6.74091 125.705 6.24209V1.18905H126.433V6.2011C126.433 6.51542 126.511 6.75799 126.668 6.92882C126.832 7.09964 127.065 7.18506 127.365 7.18506C127.686 7.18506 127.953 7.09281 128.165 6.90832L128.421 7.43105C128.278 7.56087 128.103 7.65654 127.898 7.71803C127.7 7.77953 127.495 7.81028 127.283 7.81028ZM124.741 2.98273V2.378H128.073V2.98273H124.741ZM132.493 2.32675C132.93 2.32675 133.313 2.41217 133.641 2.58299C133.975 2.74699 134.235 2.99981 134.42 3.34146C134.611 3.68312 134.707 4.1136 134.707 4.63291V7.75903H133.979V4.70466C133.979 4.13751 133.835 3.71045 133.548 3.42346C133.268 3.12964 132.872 2.98273 132.359 2.98273C131.977 2.98273 131.642 3.06131 131.355 3.21847C131.075 3.36879 130.856 3.59087 130.699 3.88469C130.549 4.17168 130.474 4.52016 130.474 4.93015V7.75903H129.746V0.153841H130.474V3.85394L130.33 3.5772C130.501 3.18772 130.774 2.88365 131.15 2.66499C131.526 2.4395 131.973 2.32675 132.493 2.32675ZM140.044 7.75903V6.57008L140.014 6.37534V4.38692C140.014 3.9291 139.884 3.5772 139.624 3.33121C139.371 3.08522 138.992 2.96223 138.486 2.96223C138.138 2.96223 137.807 3.02031 137.492 3.13647C137.178 3.25263 136.911 3.40638 136.693 3.5977L136.365 3.05447C136.638 2.82215 136.966 2.64449 137.349 2.5215C137.731 2.39167 138.135 2.32675 138.558 2.32675C139.255 2.32675 139.792 2.501 140.167 2.84948C140.55 3.19113 140.741 3.71386 140.741 4.41767V7.75903H140.044ZM138.189 7.81028C137.786 7.81028 137.434 7.74537 137.134 7.61554C136.84 7.47888 136.614 7.29439 136.457 7.06206C136.3 6.8229 136.221 6.54958 136.221 6.24209C136.221 5.96194 136.286 5.70912 136.416 5.48363C136.553 5.2513 136.771 5.06681 137.072 4.93015C137.379 4.78665 137.789 4.71491 138.302 4.71491H140.157V5.25813H138.322C137.803 5.25813 137.441 5.35038 137.236 5.53487C137.038 5.71937 136.939 5.94827 136.939 6.2216C136.939 6.52908 137.058 6.77507 137.297 6.95957C137.537 7.14406 137.871 7.2363 138.302 7.2363C138.712 7.2363 139.064 7.14406 139.358 6.95957C139.658 6.76824 139.877 6.49492 140.014 6.1396L140.178 6.64183C140.041 6.99715 139.802 7.28072 139.46 7.49254C139.125 7.70437 138.702 7.81028 138.189 7.81028ZM144.419 7.81028C143.914 7.81028 143.524 7.67362 143.251 7.4003C142.978 7.12698 142.841 6.74091 142.841 6.24209V1.18905H143.569V6.2011C143.569 6.51542 143.647 6.75799 143.804 6.92882C143.968 7.09964 144.201 7.18506 144.501 7.18506C144.823 7.18506 145.089 7.09281 145.301 6.90832L145.557 7.43105C145.414 7.56087 145.239 7.65654 145.034 7.71803C144.836 7.77953 144.631 7.81028 144.419 7.81028ZM141.877 2.98273V2.378H145.209V2.98273H141.877ZM151.04 7.82053C150.589 7.82053 150.159 7.75903 149.749 7.63604C149.346 7.51304 149.028 7.36272 148.796 7.18506L149.206 6.40609C149.438 6.56325 149.725 6.69649 150.067 6.80582C150.408 6.91515 150.757 6.96982 151.112 6.96982C151.57 6.96982 151.898 6.9049 152.096 6.77507C152.301 6.64525 152.403 6.46417 152.403 6.23185C152.403 6.06102 152.342 5.92777 152.219 5.83211C152.096 5.73645 151.932 5.6647 151.727 5.61687C151.529 5.56904 151.307 5.52804 151.061 5.49387C150.815 5.45288 150.569 5.40505 150.323 5.35038C150.077 5.28888 149.851 5.20689 149.646 5.10439C149.441 4.99506 149.277 4.84815 149.154 4.66366C149.031 4.47233 148.97 4.21951 148.97 3.90519C148.97 3.5772 149.062 3.29021 149.247 3.04422C149.431 2.79823 149.691 2.61033 150.026 2.4805C150.367 2.34384 150.77 2.27551 151.235 2.27551C151.59 2.27551 151.949 2.31992 152.311 2.40875C152.68 2.49075 152.981 2.61033 153.213 2.76749L152.793 3.54645C152.547 3.38246 152.291 3.26971 152.024 3.20822C151.758 3.14672 151.491 3.11597 151.225 3.11597C150.794 3.11597 150.473 3.18772 150.261 3.33121C150.049 3.46787 149.944 3.64553 149.944 3.86419C149.944 4.04868 150.005 4.19218 150.128 4.29467C150.258 4.39034 150.422 4.4655 150.62 4.52016C150.825 4.57483 151.051 4.62266 151.297 4.66366C151.543 4.69782 151.788 4.74566 152.034 4.80715C152.28 4.86182 152.503 4.9404 152.701 5.04289C152.906 5.14539 153.07 5.28888 153.193 5.47338C153.323 5.65787 153.387 5.90386 153.387 6.21135C153.387 6.53933 153.292 6.8229 153.1 7.06206C152.909 7.30122 152.639 7.48913 152.291 7.62579C151.942 7.75562 151.525 7.82053 151.04 7.82053ZM157.036 7.82053C156.455 7.82053 155.943 7.70095 155.499 7.4618C155.061 7.22264 154.72 6.89465 154.474 6.47784C154.234 6.06102 154.115 5.5827 154.115 5.04289C154.115 4.50308 154.231 4.02477 154.463 3.60795C154.703 3.19113 155.027 2.86656 155.437 2.63424C155.854 2.39508 156.322 2.27551 156.841 2.27551C157.367 2.27551 157.832 2.39167 158.235 2.62399C158.638 2.85632 158.953 3.1843 159.178 3.60795C159.411 4.02477 159.527 4.51333 159.527 5.07364C159.527 5.11464 159.523 5.16247 159.516 5.21714C159.516 5.2718 159.513 5.32305 159.506 5.37088H154.884V4.66366H158.994L158.594 4.90965C158.601 4.56116 158.529 4.25026 158.379 3.97694C158.228 3.70361 158.02 3.49179 157.754 3.34146C157.494 3.1843 157.19 3.10572 156.841 3.10572C156.5 3.10572 156.196 3.1843 155.929 3.34146C155.663 3.49179 155.454 3.70703 155.304 3.98719C155.154 4.26051 155.078 4.57483 155.078 4.93015V5.09414C155.078 5.45629 155.16 5.78086 155.324 6.06785C155.495 6.34801 155.731 6.56666 156.032 6.72383C156.332 6.88099 156.677 6.95957 157.067 6.95957C157.388 6.95957 157.678 6.9049 157.938 6.79557C158.204 6.68624 158.437 6.52225 158.635 6.30359L159.178 6.93907C158.932 7.22605 158.625 7.44471 158.256 7.59504C157.894 7.74537 157.487 7.82053 157.036 7.82053ZM164.115 7.75903V6.61108L164.064 6.39584V4.43817C164.064 4.02135 163.941 3.7002 163.695 3.47471C163.456 3.24238 163.093 3.12622 162.608 3.12622C162.287 3.12622 161.973 3.18089 161.665 3.29021C161.358 3.39271 161.098 3.53279 160.886 3.71045L160.476 2.97248C160.757 2.74699 161.091 2.57616 161.481 2.46C161.877 2.337 162.291 2.27551 162.721 2.27551C163.466 2.27551 164.04 2.45658 164.443 2.81873C164.846 3.18089 165.048 3.73436 165.048 4.47917V7.75903H164.115ZM162.332 7.82053C161.928 7.82053 161.573 7.7522 161.266 7.61554C160.965 7.47888 160.733 7.29097 160.569 7.05181C160.405 6.80582 160.323 6.52908 160.323 6.2216C160.323 5.92777 160.391 5.66128 160.528 5.42213C160.671 5.18297 160.9 4.99165 161.214 4.84815C161.535 4.70466 161.966 4.63291 162.506 4.63291H164.228V5.34013H162.547C162.055 5.34013 161.723 5.42213 161.553 5.58612C161.382 5.75011 161.296 5.94827 161.296 6.1806C161.296 6.44709 161.402 6.66233 161.614 6.82632C161.826 6.98348 162.12 7.06206 162.496 7.06206C162.865 7.06206 163.186 6.98006 163.459 6.81607C163.739 6.65208 163.941 6.41292 164.064 6.0986L164.258 6.77507C164.129 7.09623 163.9 7.35247 163.572 7.54379C163.244 7.72828 162.83 7.82053 162.332 7.82053ZM166.869 7.75903V0.153841H167.853V7.75903H166.869ZM171.289 7.82053C170.838 7.82053 170.408 7.75903 169.998 7.63604C169.595 7.51304 169.277 7.36272 169.045 7.18506L169.455 6.40609C169.687 6.56325 169.974 6.69649 170.315 6.80582C170.657 6.91515 171.006 6.96982 171.361 6.96982C171.819 6.96982 172.147 6.9049 172.345 6.77507C172.55 6.64525 172.652 6.46417 172.652 6.23185C172.652 6.06102 172.591 5.92777 172.468 5.83211C172.345 5.73645 172.181 5.6647 171.976 5.61687C171.778 5.56904 171.556 5.52804 171.31 5.49387C171.064 5.45288 170.818 5.40505 170.572 5.35038C170.326 5.28888 170.1 5.20689 169.895 5.10439C169.69 4.99506 169.526 4.84815 169.403 4.66366C169.28 4.47233 169.219 4.21951 169.219 3.90519C169.219 3.5772 169.311 3.29021 169.496 3.04422C169.68 2.79823 169.94 2.61033 170.274 2.4805C170.616 2.34384 171.019 2.27551 171.484 2.27551C171.839 2.27551 172.198 2.31992 172.56 2.40875C172.929 2.49075 173.23 2.61033 173.462 2.76749L173.042 3.54645C172.796 3.38246 172.54 3.26971 172.273 3.20822C172.007 3.14672 171.74 3.11597 171.474 3.11597C171.043 3.11597 170.722 3.18772 170.51 3.33121C170.298 3.46787 170.192 3.64553 170.192 3.86419C170.192 4.04868 170.254 4.19218 170.377 4.29467C170.507 4.39034 170.671 4.4655 170.869 4.52016C171.074 4.57483 171.299 4.62266 171.545 4.66366C171.791 4.69782 172.037 4.74566 172.283 4.80715C172.529 4.86182 172.751 4.9404 172.95 5.04289C173.155 5.14539 173.319 5.28888 173.442 5.47338C173.571 5.65787 173.636 5.90386 173.636 6.21135C173.636 6.53933 173.541 6.8229 173.349 7.06206C173.158 7.30122 172.888 7.48913 172.54 7.62579C172.191 7.75562 171.774 7.82053 171.289 7.82053ZM177.762 7.75903V1.84502C177.762 1.31204 177.916 0.888395 178.223 0.574074C178.538 0.252921 178.982 0.092344 179.556 0.092344C179.768 0.092344 179.969 0.119676 180.161 0.174341C180.359 0.222172 180.526 0.300752 180.663 0.410081L180.366 1.1583C180.263 1.0763 180.147 1.01481 180.017 0.973808C179.887 0.925977 179.751 0.902061 179.607 0.902061C179.32 0.902061 179.101 0.984058 178.951 1.14805C178.801 1.30521 178.726 1.54095 178.726 1.85527V2.58299L178.746 3.03397V7.75903H177.762ZM176.84 3.13647V2.32675H180.304V3.13647H176.84ZM181.232 7.75903V2.32675H182.175V3.80269L182.083 3.43371C182.233 3.05789 182.486 2.7709 182.841 2.57274C183.197 2.37458 183.634 2.27551 184.153 2.27551V3.22872C184.112 3.22188 184.071 3.21847 184.03 3.21847C183.996 3.21847 183.962 3.21847 183.928 3.21847C183.402 3.21847 182.985 3.37563 182.677 3.68995C182.37 4.00427 182.216 4.45867 182.216 5.05314V7.75903H181.232ZM187.735 7.82053C187.154 7.82053 186.641 7.70095 186.197 7.4618C185.76 7.22264 185.418 6.89465 185.172 6.47784C184.933 6.06102 184.814 5.5827 184.814 5.04289C184.814 4.50308 184.93 4.02477 185.162 3.60795C185.401 3.19113 185.726 2.86656 186.136 2.63424C186.553 2.39508 187.021 2.27551 187.54 2.27551C188.066 2.27551 188.531 2.39167 188.934 2.62399C189.337 2.85632 189.651 3.1843 189.877 3.60795C190.109 4.02477 190.225 4.51333 190.225 5.07364C190.225 5.11464 190.222 5.16247 190.215 5.21714C190.215 5.2718 190.212 5.32305 190.205 5.37088H185.582V4.66366H189.692L189.293 4.90965C189.3 4.56116 189.228 4.25026 189.077 3.97694C188.927 3.70361 188.719 3.49179 188.452 3.34146C188.193 3.1843 187.888 3.10572 187.54 3.10572C187.198 3.10572 186.894 3.1843 186.628 3.34146C186.361 3.49179 186.153 3.70703 186.003 3.98719C185.852 4.26051 185.777 4.57483 185.777 4.93015V5.09414C185.777 5.45629 185.859 5.78086 186.023 6.06785C186.194 6.34801 186.43 6.56666 186.73 6.72383C187.031 6.88099 187.376 6.95957 187.765 6.95957C188.087 6.95957 188.377 6.9049 188.637 6.79557C188.903 6.68624 189.136 6.52225 189.334 6.30359L189.877 6.93907C189.631 7.22605 189.323 7.44471 188.954 7.59504C188.592 7.74537 188.186 7.82053 187.735 7.82053ZM193.15 7.82053C192.699 7.82053 192.268 7.75903 191.858 7.63604C191.455 7.51304 191.137 7.36272 190.905 7.18506L191.315 6.40609C191.547 6.56325 191.834 6.69649 192.176 6.80582C192.518 6.91515 192.866 6.96982 193.221 6.96982C193.679 6.96982 194.007 6.9049 194.205 6.77507C194.41 6.64525 194.513 6.46417 194.513 6.23185C194.513 6.06102 194.451 5.92777 194.328 5.83211C194.205 5.73645 194.041 5.6647 193.836 5.61687C193.638 5.56904 193.416 5.52804 193.17 5.49387C192.924 5.45288 192.678 5.40505 192.432 5.35038C192.186 5.28888 191.961 5.20689 191.756 5.10439C191.551 4.99506 191.387 4.84815 191.264 4.66366C191.141 4.47233 191.079 4.21951 191.079 3.90519C191.079 3.5772 191.171 3.29021 191.356 3.04422C191.54 2.79823 191.8 2.61033 192.135 2.4805C192.477 2.34384 192.88 2.27551 193.344 2.27551C193.7 2.27551 194.058 2.31992 194.421 2.40875C194.79 2.49075 195.09 2.61033 195.323 2.76749L194.902 3.54645C194.656 3.38246 194.4 3.26971 194.134 3.20822C193.867 3.14672 193.601 3.11597 193.334 3.11597C192.904 3.11597 192.583 3.18772 192.371 3.33121C192.159 3.46787 192.053 3.64553 192.053 3.86419C192.053 4.04868 192.114 4.19218 192.237 4.29467C192.367 4.39034 192.531 4.4655 192.729 4.52016C192.934 4.57483 193.16 4.62266 193.406 4.66366C193.652 4.69782 193.898 4.74566 194.144 4.80715C194.39 4.86182 194.612 4.9404 194.81 5.04289C195.015 5.14539 195.179 5.28888 195.302 5.47338C195.432 5.65787 195.497 5.90386 195.497 6.21135C195.497 6.53933 195.401 6.8229 195.21 7.06206C195.018 7.30122 194.749 7.48913 194.4 7.62579C194.052 7.75562 193.635 7.82053 193.15 7.82053ZM199.627 2.27551C200.071 2.27551 200.461 2.36092 200.796 2.53174C201.137 2.70257 201.404 2.96223 201.595 3.31071C201.786 3.6592 201.882 4.09993 201.882 4.63291V7.75903H200.898V4.74566C200.898 4.21951 200.768 3.82319 200.509 3.5567C200.256 3.29021 199.897 3.15697 199.432 3.15697C199.084 3.15697 198.78 3.2253 198.52 3.36196C198.261 3.49862 198.059 3.7002 197.915 3.96669C197.779 4.23318 197.71 4.56458 197.71 4.9609V7.75903H196.727V0.153841H197.71V3.79244L197.516 3.40296C197.693 3.04764 197.967 2.7709 198.336 2.57274C198.705 2.37458 199.135 2.27551 199.627 2.27551ZM206.604 2.27551C207.048 2.27551 207.437 2.36092 207.772 2.53174C208.114 2.70257 208.38 2.96223 208.572 3.31071C208.763 3.6592 208.859 4.09993 208.859 4.63291V7.75903H207.875V4.74566C207.875 4.21951 207.745 3.82319 207.485 3.5567C207.232 3.29021 206.874 3.15697 206.409 3.15697C206.06 3.15697 205.756 3.2253 205.497 3.36196C205.237 3.49862 205.035 3.7002 204.892 3.96669C204.755 4.23318 204.687 4.56458 204.687 4.9609V7.75903H203.703V2.32675H204.646V3.79244L204.492 3.40296C204.67 3.04764 204.943 2.7709 205.312 2.57274C205.681 2.37458 206.112 2.27551 206.604 2.27551ZM213.098 7.82053C212.518 7.82053 212.005 7.70095 211.561 7.4618C211.124 7.22264 210.782 6.89465 210.536 6.47784C210.297 6.06102 210.177 5.5827 210.177 5.04289C210.177 4.50308 210.293 4.02477 210.526 3.60795C210.765 3.19113 211.09 2.86656 211.5 2.63424C211.916 2.39508 212.384 2.27551 212.904 2.27551C213.43 2.27551 213.895 2.39167 214.298 2.62399C214.701 2.85632 215.015 3.1843 215.241 3.60795C215.473 4.02477 215.589 4.51333 215.589 5.07364C215.589 5.11464 215.586 5.16247 215.579 5.21714C215.579 5.2718 215.575 5.32305 215.569 5.37088H210.946V4.66366H215.056L214.656 4.90965C214.663 4.56116 214.591 4.25026 214.441 3.97694C214.291 3.70361 214.082 3.49179 213.816 3.34146C213.556 3.1843 213.252 3.10572 212.904 3.10572C212.562 3.10572 212.258 3.1843 211.992 3.34146C211.725 3.49179 211.517 3.70703 211.366 3.98719C211.216 4.26051 211.141 4.57483 211.141 4.93015V5.09414C211.141 5.45629 211.223 5.78086 211.387 6.06785C211.558 6.34801 211.793 6.56666 212.094 6.72383C212.395 6.88099 212.74 6.95957 213.129 6.95957C213.45 6.95957 213.741 6.9049 214 6.79557C214.267 6.68624 214.499 6.52225 214.697 6.30359L215.241 6.93907C214.995 7.22605 214.687 7.44471 214.318 7.59504C213.956 7.74537 213.549 7.82053 213.098 7.82053ZM218.513 7.82053C218.062 7.82053 217.632 7.75903 217.222 7.63604C216.819 7.51304 216.501 7.36272 216.269 7.18506L216.679 6.40609C216.911 6.56325 217.198 6.69649 217.54 6.80582C217.881 6.91515 218.23 6.96982 218.585 6.96982C219.043 6.96982 219.371 6.9049 219.569 6.77507C219.774 6.64525 219.877 6.46417 219.877 6.23185C219.877 6.06102 219.815 5.92777 219.692 5.83211C219.569 5.73645 219.405 5.6647 219.2 5.61687C219.002 5.56904 218.78 5.52804 218.534 5.49387C218.288 5.45288 218.042 5.40505 217.796 5.35038C217.55 5.28888 217.324 5.20689 217.119 5.10439C216.914 4.99506 216.75 4.84815 216.627 4.66366C216.504 4.47233 216.443 4.21951 216.443 3.90519C216.443 3.5772 216.535 3.29021 216.72 3.04422C216.904 2.79823 217.164 2.61033 217.499 2.4805C217.84 2.34384 218.243 2.27551 218.708 2.27551C219.063 2.27551 219.422 2.31992 219.784 2.40875C220.153 2.49075 220.454 2.61033 220.686 2.76749L220.266 3.54645C220.02 3.38246 219.764 3.26971 219.497 3.20822C219.231 3.14672 218.964 3.11597 218.698 3.11597C218.267 3.11597 217.946 3.18772 217.734 3.33121C217.523 3.46787 217.417 3.64553 217.417 3.86419C217.417 4.04868 217.478 4.19218 217.601 4.29467C217.731 4.39034 217.895 4.4655 218.093 4.52016C218.298 4.57483 218.524 4.62266 218.77 4.66366C219.016 4.69782 219.262 4.74566 219.508 4.80715C219.754 4.86182 219.976 4.9404 220.174 5.04289C220.379 5.14539 220.543 5.28888 220.666 5.47338C220.796 5.65787 220.861 5.90386 220.861 6.21135C220.861 6.53933 220.765 6.8229 220.574 7.06206C220.382 7.30122 220.112 7.48913 219.764 7.62579C219.415 7.75562 218.999 7.82053 218.513 7.82053ZM223.648 7.82053C223.197 7.82053 222.767 7.75903 222.357 7.63604C221.954 7.51304 221.636 7.36272 221.404 7.18506L221.813 6.40609C222.046 6.56325 222.333 6.69649 222.674 6.80582C223.016 6.91515 223.365 6.96982 223.72 6.96982C224.178 6.96982 224.506 6.9049 224.704 6.77507C224.909 6.64525 225.011 6.46417 225.011 6.23185C225.011 6.06102 224.95 5.92777 224.827 5.83211C224.704 5.73645 224.54 5.6647 224.335 5.61687C224.137 5.56904 223.915 5.52804 223.669 5.49387C223.423 5.45288 223.177 5.40505 222.931 5.35038C222.685 5.28888 222.459 5.20689 222.254 5.10439C222.049 4.99506 221.885 4.84815 221.762 4.66366C221.639 4.47233 221.578 4.21951 221.578 3.90519C221.578 3.5772 221.67 3.29021 221.854 3.04422C222.039 2.79823 222.299 2.61033 222.633 2.4805C222.975 2.34384 223.378 2.27551 223.843 2.27551C224.198 2.27551 224.557 2.31992 224.919 2.40875C225.288 2.49075 225.589 2.61033 225.821 2.76749L225.401 3.54645C225.155 3.38246 224.899 3.26971 224.632 3.20822C224.366 3.14672 224.099 3.11597 223.833 3.11597C223.402 3.11597 223.081 3.18772 222.869 3.33121C222.657 3.46787 222.551 3.64553 222.551 3.86419C222.551 4.04868 222.613 4.19218 222.736 4.29467C222.866 4.39034 223.03 4.4655 223.228 4.52016C223.433 4.57483 223.658 4.62266 223.904 4.66366C224.15 4.69782 224.396 4.74566 224.642 4.80715C224.888 4.86182 225.11 4.9404 225.309 5.04289C225.514 5.14539 225.678 5.28888 225.801 5.47338C225.93 5.65787 225.995 5.90386 225.995 6.21135C225.995 6.53933 225.9 6.8229 225.708 7.06206C225.517 7.30122 225.247 7.48913 224.899 7.62579C224.55 7.75562 224.133 7.82053 223.648 7.82053ZM233.432 7.75903V6.57008L233.401 6.37534V4.38692C233.401 3.9291 233.271 3.5772 233.011 3.33121C232.759 3.08522 232.379 2.96223 231.874 2.96223C231.525 2.96223 231.194 3.02031 230.88 3.13647C230.565 3.25263 230.299 3.40638 230.08 3.5977L229.752 3.05447C230.025 2.82215 230.353 2.64449 230.736 2.5215C231.119 2.39167 231.522 2.32675 231.946 2.32675C232.642 2.32675 233.179 2.501 233.555 2.84948C233.937 3.19113 234.129 3.71386 234.129 4.41767V7.75903H233.432ZM231.577 7.81028C231.173 7.81028 230.821 7.74537 230.521 7.61554C230.227 7.47888 230.002 7.29439 229.844 7.06206C229.687 6.8229 229.609 6.54958 229.609 6.24209C229.609 5.96194 229.674 5.70912 229.803 5.48363C229.94 5.2513 230.159 5.06681 230.459 4.93015C230.767 4.78665 231.177 4.71491 231.689 4.71491H233.544V5.25813H231.71C231.19 5.25813 230.828 5.35038 230.623 5.53487C230.425 5.71937 230.326 5.94827 230.326 6.2216C230.326 6.52908 230.446 6.77507 230.685 6.95957C230.924 7.14406 231.259 7.2363 231.689 7.2363C232.099 7.2363 232.451 7.14406 232.745 6.95957C233.046 6.76824 233.264 6.49492 233.401 6.1396L233.565 6.64183C233.428 6.99715 233.189 7.28072 232.847 7.49254C232.513 7.70437 232.089 7.81028 231.577 7.81028ZM238.852 2.32675C239.289 2.32675 239.672 2.41217 240 2.58299C240.335 2.74699 240.595 2.99981 240.779 3.34146C240.97 3.68312 241.066 4.1136 241.066 4.63291V7.75903H240.338V4.70466C240.338 4.13751 240.195 3.71045 239.908 3.42346C239.628 3.12964 239.231 2.98273 238.719 2.98273C238.336 2.98273 238.001 3.06131 237.714 3.21847C237.434 3.36879 237.216 3.59087 237.058 3.88469C236.908 4.17168 236.833 4.52016 236.833 4.93015V7.75903H236.105V2.378H236.802V3.85394L236.689 3.5772C236.86 3.18772 237.134 2.88365 237.509 2.66499C237.885 2.4395 238.333 2.32675 238.852 2.32675ZM245.174 7.81028C244.661 7.81028 244.2 7.69412 243.79 7.4618C243.387 7.22947 243.069 6.90832 242.837 6.49833C242.605 6.08152 242.488 5.6032 242.488 5.06339C242.488 4.51675 242.605 4.03843 242.837 3.62845C243.069 3.21847 243.387 2.90073 243.79 2.67524C244.2 2.44292 244.661 2.32675 245.174 2.32675C245.645 2.32675 246.066 2.43267 246.435 2.64449C246.81 2.85632 247.108 3.16722 247.326 3.5772C247.552 3.98035 247.665 4.47575 247.665 5.06339C247.665 5.6442 247.555 6.1396 247.337 6.54958C247.118 6.95957 246.821 7.27389 246.445 7.49254C246.076 7.70437 245.652 7.81028 245.174 7.81028ZM245.225 7.16456C245.608 7.16456 245.949 7.07914 246.25 6.90832C246.558 6.73066 246.797 6.48467 246.968 6.17035C247.145 5.84919 247.234 5.48021 247.234 5.06339C247.234 4.63974 247.145 4.27076 246.968 3.95644C246.797 3.64212 246.558 3.39954 246.25 3.22872C245.949 3.05106 245.608 2.96223 245.225 2.96223C244.849 2.96223 244.511 3.05106 244.21 3.22872C243.91 3.39954 243.671 3.64212 243.493 3.95644C243.315 4.27076 243.226 4.63974 243.226 5.06339C243.226 5.48021 243.315 5.84919 243.493 6.17035C243.671 6.48467 243.91 6.73066 244.21 6.90832C244.511 7.07914 244.849 7.16456 245.225 7.16456ZM247.255 7.75903V6.1396L247.326 5.05314L247.224 3.96669V0.153841H247.952V7.75903H247.255ZM2.82968 21.8205C2.28304 21.8205 1.79789 21.701 1.37424 21.4618C0.95059 21.2226 0.61577 20.8947 0.36978 20.4778C0.12379 20.0542 0.000795069 19.5759 0.000795069 19.0429C0.000795069 18.5031 0.12379 18.0248 0.36978 17.608C0.61577 17.1911 0.95059 16.8666 1.37424 16.6342C1.79789 16.3951 2.28304 16.2755 2.82968 16.2755C3.36949 16.2755 3.85122 16.3951 4.27487 16.6342C4.70535 16.8666 5.04017 17.1911 5.27933 17.608C5.52532 18.0179 5.64832 18.4962 5.64832 19.0429C5.64832 19.5827 5.52532 20.061 5.27933 20.4778C5.04017 20.8947 4.70535 21.2226 4.27487 21.4618C3.85122 21.701 3.36949 21.8205 2.82968 21.8205ZM2.82968 20.9596C3.17817 20.9596 3.48907 20.881 3.76239 20.7238C4.04255 20.5667 4.26121 20.3446 4.41837 20.0576C4.57553 19.7638 4.65411 19.4255 4.65411 19.0429C4.65411 18.6534 4.57553 18.3186 4.41837 18.0384C4.26121 17.7514 4.04255 17.5294 3.76239 17.3722C3.48907 17.2151 3.17817 17.1365 2.82968 17.1365C2.48119 17.1365 2.17029 17.2151 1.89697 17.3722C1.62365 17.5294 1.40499 17.7514 1.24099 18.0384C1.077 18.3186 0.995005 18.6534 0.995005 19.0429C0.995005 19.4255 1.077 19.7638 1.24099 20.0576C1.40499 20.3446 1.62365 20.5667 1.89697 20.7238C2.17029 20.881 2.48119 20.9596 2.82968 20.9596ZM9.88924 21.8205C9.43826 21.8205 9.02486 21.718 8.64904 21.513C8.28006 21.3012 7.98282 20.9903 7.75733 20.5803C7.53867 20.1703 7.42934 19.6579 7.42934 19.0429C7.42934 18.4279 7.53525 17.9154 7.74708 17.5055C7.96574 17.0955 8.25956 16.788 8.62854 16.583C9.00436 16.378 9.42459 16.2755 9.88924 16.2755C10.4222 16.2755 10.8937 16.3917 11.3037 16.624C11.7137 16.8563 12.0382 17.1809 12.2774 17.5977C12.5166 18.0077 12.6361 18.4894 12.6361 19.0429C12.6361 19.5964 12.5166 20.0815 12.2774 20.4983C12.0382 20.9152 11.7137 21.2397 11.3037 21.472C10.8937 21.7044 10.4222 21.8205 9.88924 21.8205ZM7.00911 23.7475V16.3268H7.95207V17.7924L7.89057 19.0531L7.99307 20.3138V23.7475H7.00911ZM9.80724 20.9596C10.1557 20.9596 10.4666 20.881 10.74 20.7238C11.0201 20.5667 11.2388 20.3446 11.3959 20.0576C11.5599 19.7638 11.6419 19.4255 11.6419 19.0429C11.6419 18.6534 11.5599 18.3186 11.3959 18.0384C11.2388 17.7514 11.0201 17.5294 10.74 17.3722C10.4666 17.2151 10.1557 17.1365 9.80724 17.1365C9.46559 17.1365 9.15469 17.2151 8.87453 17.3722C8.60121 17.5294 8.38255 17.7514 8.21856 18.0384C8.0614 18.3186 7.98282 18.6534 7.98282 19.0429C7.98282 19.4255 8.0614 19.7638 8.21856 20.0576C8.38255 20.3446 8.60121 20.5667 8.87453 20.7238C9.15469 20.881 9.46559 20.9596 9.80724 20.9596ZM15.8611 21.8205C15.3144 21.8205 14.8908 21.6736 14.5901 21.3798C14.2895 21.086 14.1391 20.6657 14.1391 20.1191V15.1378H15.1231V20.0781C15.1231 20.3719 15.1948 20.5974 15.3383 20.7546C15.4887 20.9117 15.7005 20.9903 15.9738 20.9903C16.2813 20.9903 16.5375 20.9049 16.7425 20.7341L17.05 21.4413C16.8997 21.5711 16.7186 21.6668 16.5068 21.7283C16.3018 21.7898 16.0866 21.8205 15.8611 21.8205ZM13.2167 17.1365V16.3268H16.681V17.1365H13.2167ZM18.2396 21.759V16.3268H19.2236V21.759H18.2396ZM18.7316 15.2813C18.5403 15.2813 18.3797 15.2198 18.2499 15.0968C18.1269 14.9738 18.0654 14.8235 18.0654 14.6458C18.0654 14.4613 18.1269 14.3076 18.2499 14.1846C18.3797 14.0616 18.5403 14.0001 18.7316 14.0001C18.9229 14.0001 19.0801 14.0616 19.2031 14.1846C19.3329 14.3008 19.3978 14.4477 19.3978 14.6253C19.3978 14.8098 19.3363 14.967 19.2133 15.0968C19.0903 15.2198 18.9297 15.2813 18.7316 15.2813ZM27.8978 16.2755C28.3351 16.2755 28.7211 16.3609 29.056 16.5317C29.3908 16.7026 29.6504 16.9622 29.8349 17.3107C30.0263 17.6592 30.1219 18.0999 30.1219 18.6329V21.759H29.138V18.7457C29.138 18.2195 29.015 17.8232 28.769 17.5567C28.523 17.2902 28.1779 17.157 27.7338 17.157C27.4058 17.157 27.1188 17.2253 26.8728 17.362C26.6268 17.4986 26.4355 17.7002 26.2988 17.9667C26.169 18.2332 26.1041 18.5646 26.1041 18.9609V21.759H25.1201V18.7457C25.1201 18.2195 24.9971 17.8232 24.7511 17.5567C24.512 17.2902 24.1669 17.157 23.7159 17.157C23.3948 17.157 23.1112 17.2253 22.8652 17.362C22.6192 17.4986 22.4279 17.7002 22.2912 17.9667C22.1546 18.2332 22.0862 18.5646 22.0862 18.9609V21.759H21.1023V16.3268H22.0452V17.7719L21.8915 17.403C22.0623 17.0476 22.3254 16.7709 22.6807 16.5727C23.036 16.3746 23.4494 16.2755 23.9209 16.2755C24.4402 16.2755 24.8878 16.4053 25.2636 16.665C25.6394 16.9178 25.8854 17.3039 26.0016 17.8232L25.6019 17.6592C25.7658 17.2424 26.0528 16.9076 26.4628 16.6547C26.8728 16.4019 27.3511 16.2755 27.8978 16.2755ZM31.9324 21.759V16.3268H32.9164V21.759H31.9324ZM32.4244 15.2813C32.2331 15.2813 32.0725 15.2198 31.9427 15.0968C31.8197 14.9738 31.7582 14.8235 31.7582 14.6458C31.7582 14.4613 31.8197 14.3076 31.9427 14.1846C32.0725 14.0616 32.2331 14.0001 32.4244 14.0001C32.6157 14.0001 32.7729 14.0616 32.8959 14.1846C33.0257 14.3008 33.0906 14.4477 33.0906 14.6253C33.0906 14.8098 33.0291 14.967 32.9061 15.0968C32.7831 15.2198 32.6226 15.2813 32.4244 15.2813ZM34.2724 21.759V21.1236L37.7572 16.7982L37.952 17.1365H34.3339V16.3268H38.7412V16.9725L35.2563 21.2876L35.0308 20.9493H38.8232V21.759H34.2724ZM42.4789 21.8205C41.8981 21.8205 41.3856 21.701 40.9415 21.4618C40.5042 21.2226 40.1625 20.8947 39.9165 20.4778C39.6774 20.061 39.5578 19.5827 39.5578 19.0429C39.5578 18.5031 39.6739 18.0248 39.9063 17.608C40.1454 17.1911 40.47 16.8666 40.88 16.6342C41.2968 16.3951 41.7649 16.2755 42.2842 16.2755C42.8103 16.2755 43.275 16.3917 43.6781 16.624C44.0813 16.8563 44.3956 17.1843 44.6211 17.608C44.8534 18.0248 44.9696 18.5133 44.9696 19.0736C44.9696 19.1146 44.9661 19.1625 44.9593 19.2171C44.9593 19.2718 44.9559 19.323 44.9491 19.3709H40.3265V18.6637H44.4366L44.0369 18.9096C44.0437 18.5612 43.9719 18.2503 43.8216 17.9769C43.6713 17.7036 43.4629 17.4918 43.1964 17.3415C42.9367 17.1843 42.6327 17.1057 42.2842 17.1057C41.9425 17.1057 41.6384 17.1843 41.372 17.3415C41.1055 17.4918 40.8971 17.707 40.7467 17.9872C40.5964 18.2605 40.5212 18.5748 40.5212 18.9301V19.0941C40.5212 19.4563 40.6032 19.7809 40.7672 20.0679C40.9381 20.348 41.1738 20.5667 41.4745 20.7238C41.7751 20.881 42.1202 20.9596 42.5097 20.9596C42.8308 20.9596 43.1212 20.9049 43.3809 20.7956C43.6474 20.6862 43.8797 20.5222 44.0778 20.3036L44.6211 20.9391C44.3751 21.2261 44.0676 21.4447 43.6986 21.595C43.3365 21.7454 42.9299 21.8205 42.4789 21.8205ZM47.8938 21.8205C47.4428 21.8205 47.0124 21.759 46.6024 21.636C46.1992 21.513 45.8815 21.3627 45.6492 21.1851L46.0591 20.4061C46.2915 20.5632 46.5785 20.6965 46.9201 20.8058C47.2618 20.9152 47.6102 20.9698 47.9656 20.9698C48.4234 20.9698 48.7514 20.9049 48.9495 20.7751C49.1545 20.6452 49.257 20.4642 49.257 20.2318C49.257 20.061 49.1955 19.9278 49.0725 19.8321C48.9495 19.7364 48.7855 19.6647 48.5805 19.6169C48.3824 19.569 48.1603 19.528 47.9143 19.4939C47.6683 19.4529 47.4223 19.405 47.1763 19.3504C46.9304 19.2889 46.7049 19.2069 46.4999 19.1044C46.2949 18.9951 46.1309 18.8482 46.0079 18.6637C45.8849 18.4723 45.8234 18.2195 45.8234 17.9052C45.8234 17.5772 45.9156 17.2902 46.1001 17.0442C46.2846 16.7982 46.5443 16.6103 46.8791 16.4805C47.2208 16.3438 47.6239 16.2755 48.0886 16.2755C48.4439 16.2755 48.8026 16.3199 49.1648 16.4088C49.5338 16.4907 49.8344 16.6103 50.0667 16.7675L49.6465 17.5465C49.4005 17.3825 49.1443 17.2697 48.8778 17.2082C48.6113 17.1467 48.3448 17.116 48.0783 17.116C47.6478 17.116 47.3267 17.1877 47.1148 17.3312C46.903 17.4679 46.7971 17.6455 46.7971 17.8642C46.7971 18.0487 46.8586 18.1922 46.9816 18.2947C47.1114 18.3903 47.2754 18.4655 47.4736 18.5202C47.6786 18.5748 47.9041 18.6227 48.1501 18.6637C48.396 18.6978 48.642 18.7457 48.888 18.8072C49.134 18.8618 49.3561 18.9404 49.5542 19.0429C49.7592 19.1454 49.9232 19.2889 50.0462 19.4734C50.1761 19.6579 50.241 19.9039 50.241 20.2113C50.241 20.5393 50.1453 20.8229 49.954 21.0621C49.7627 21.3012 49.4928 21.4891 49.1443 21.6258C48.7958 21.7556 48.379 21.8205 47.8938 21.8205ZM55.7812 21.8205C55.3302 21.8205 54.8997 21.759 54.4897 21.636C54.0866 21.513 53.7689 21.3627 53.5365 21.1851L53.9465 20.4061C54.1788 20.5632 54.4658 20.6965 54.8075 20.8058C55.1491 20.9152 55.4976 20.9698 55.8529 20.9698C56.3108 20.9698 56.6387 20.9049 56.8369 20.7751C57.0419 20.6452 57.1444 20.4642 57.1444 20.2318C57.1444 20.061 57.0829 19.9278 56.9599 19.8321C56.8369 19.7364 56.6729 19.6647 56.4679 19.6169C56.2698 19.569 56.0477 19.528 55.8017 19.4939C55.5557 19.4529 55.3097 19.405 55.0637 19.3504C54.8177 19.2889 54.5922 19.2069 54.3873 19.1044C54.1823 18.9951 54.0183 18.8482 53.8953 18.6637C53.7723 18.4723 53.7108 18.2195 53.7108 17.9052C53.7108 17.5772 53.803 17.2902 53.9875 17.0442C54.172 16.7982 54.4317 16.6103 54.7665 16.4805C55.1081 16.3438 55.5113 16.2755 55.9759 16.2755C56.3313 16.2755 56.69 16.3199 57.0521 16.4088C57.4211 16.4907 57.7218 16.6103 57.9541 16.7675L57.5339 17.5465C57.2879 17.3825 57.0316 17.2697 56.7652 17.2082C56.4987 17.1467 56.2322 17.116 55.9657 17.116C55.5352 17.116 55.2141 17.1877 55.0022 17.3312C54.7904 17.4679 54.6845 17.6455 54.6845 17.8642C54.6845 18.0487 54.746 18.1922 54.869 18.2947C54.9988 18.3903 55.1628 18.4655 55.361 18.5202C55.566 18.5748 55.7914 18.6227 56.0374 18.6637C56.2834 18.6978 56.5294 18.7457 56.7754 18.8072C57.0214 18.8618 57.2435 18.9404 57.4416 19.0429C57.6466 19.1454 57.8106 19.2889 57.9336 19.4734C58.0634 19.6579 58.1284 19.9039 58.1284 20.2113C58.1284 20.5393 58.0327 20.8229 57.8414 21.0621C57.65 21.3012 57.3801 21.4891 57.0316 21.6258C56.6832 21.7556 56.2663 21.8205 55.7812 21.8205ZM61.2235 21.8205C60.6768 21.8205 60.2532 21.6736 59.9525 21.3798C59.6519 21.086 59.5016 20.6657 59.5016 20.1191V15.1378H60.4855V20.0781C60.4855 20.3719 60.5573 20.5974 60.7008 20.7546C60.8511 20.9117 61.0629 20.9903 61.3362 20.9903C61.6437 20.9903 61.9 20.9049 62.1049 20.7341L62.4124 21.4413C62.2621 21.5711 62.081 21.6668 61.8692 21.7283C61.6642 21.7898 61.449 21.8205 61.2235 21.8205ZM58.5791 17.1365V16.3268H62.0434V17.1365H58.5791ZM65.7485 21.8205C65.2019 21.8205 64.7167 21.701 64.2931 21.4618C63.8694 21.2226 63.5346 20.8947 63.2886 20.4778C63.0426 20.0542 62.9196 19.5759 62.9196 19.0429C62.9196 18.5031 63.0426 18.0248 63.2886 17.608C63.5346 17.1911 63.8694 16.8666 64.2931 16.6342C64.7167 16.3951 65.2019 16.2755 65.7485 16.2755C66.2883 16.2755 66.7701 16.3951 67.1937 16.6342C67.6242 16.8666 67.959 17.1911 68.1982 17.608C68.4442 18.0179 68.5672 18.4962 68.5672 19.0429C68.5672 19.5827 68.4442 20.061 68.1982 20.4778C67.959 20.8947 67.6242 21.2226 67.1937 21.4618C66.7701 21.701 66.2883 21.8205 65.7485 21.8205ZM65.7485 20.9596C66.097 20.9596 66.4079 20.881 66.6812 20.7238C66.9614 20.5667 67.18 20.3446 67.3372 20.0576C67.4944 19.7638 67.5729 19.4255 67.5729 19.0429C67.5729 18.6534 67.4944 18.3186 67.3372 18.0384C67.18 17.7514 66.9614 17.5294 66.6812 17.3722C66.4079 17.2151 66.097 17.1365 65.7485 17.1365C65.4 17.1365 65.0891 17.2151 64.8158 17.3722C64.5425 17.5294 64.3238 17.7514 64.1598 18.0384C63.9958 18.3186 63.9138 18.6534 63.9138 19.0429C63.9138 19.4255 63.9958 19.7638 64.1598 20.0576C64.3238 20.3446 64.5425 20.5667 64.8158 20.7238C65.0891 20.881 65.4 20.9596 65.7485 20.9596ZM69.9279 21.759V16.3268H70.8709V17.8027L70.7787 17.4337C70.929 17.0579 71.1818 16.7709 71.5371 16.5727C71.8924 16.3746 72.3298 16.2755 72.8491 16.2755V17.2287C72.8081 17.2219 72.7671 17.2185 72.7261 17.2185C72.6919 17.2185 72.6577 17.2185 72.6236 17.2185C72.0974 17.2185 71.6806 17.3756 71.3731 17.6899C71.0656 18.0043 70.9119 18.4587 70.9119 19.0531V21.759H69.9279ZM77.0335 21.759V20.6111L76.9823 20.3958V18.4382C76.9823 18.0214 76.8593 17.7002 76.6133 17.4747C76.3742 17.2424 76.012 17.1262 75.5269 17.1262C75.2057 17.1262 74.8914 17.1809 74.5839 17.2902C74.2764 17.3927 74.0168 17.5328 73.8049 17.7104L73.3949 16.9725C73.6751 16.747 74.0099 16.5762 74.3994 16.46C74.7957 16.337 75.2091 16.2755 75.6396 16.2755C76.3844 16.2755 76.9584 16.4566 77.3615 16.8187C77.7647 17.1809 77.9663 17.7344 77.9663 18.4792V21.759H77.0335ZM75.2501 21.8205C74.847 21.8205 74.4917 21.7522 74.1842 21.6155C73.8835 21.4789 73.6512 21.291 73.4872 21.0518C73.3232 20.8058 73.2412 20.5291 73.2412 20.2216C73.2412 19.9278 73.3095 19.6613 73.4462 19.4221C73.5897 19.183 73.8186 18.9916 74.1329 18.8482C74.4541 18.7047 74.8846 18.6329 75.4244 18.6329H77.1463V19.3401H75.4654C74.9734 19.3401 74.642 19.4221 74.4712 19.5861C74.3003 19.7501 74.2149 19.9483 74.2149 20.1806C74.2149 20.4471 74.3208 20.6623 74.5326 20.8263C74.7445 20.9835 75.0383 21.0621 75.4141 21.0621C75.7831 21.0621 76.1043 20.9801 76.3776 20.8161C76.6577 20.6521 76.8593 20.4129 76.9823 20.0986L77.177 20.7751C77.0472 21.0962 76.8183 21.3525 76.4903 21.5438C76.1623 21.7283 75.7489 21.8205 75.2501 21.8205ZM82.1651 23.809C81.6662 23.809 81.1811 23.7372 80.7096 23.5937C80.245 23.457 79.8657 23.2589 79.5719 22.9992L80.0434 22.2408C80.2962 22.4594 80.6071 22.6302 80.9761 22.7532C81.3451 22.8831 81.7312 22.948 82.1343 22.948C82.7766 22.948 83.2481 22.7977 83.5488 22.497C83.8494 22.1963 83.9997 21.7385 83.9997 21.1236V19.9756L84.1022 18.8994L84.051 17.8129V16.3268H84.9837V21.0211C84.9837 21.9777 84.7445 22.6815 84.2662 23.1325C83.7879 23.5835 83.0875 23.809 82.1651 23.809ZM82.0421 21.5335C81.5159 21.5335 81.0444 21.4242 80.6276 21.2056C80.2176 20.9801 79.8897 20.6692 79.6437 20.2728C79.4045 19.8765 79.2849 19.4187 79.2849 18.8994C79.2849 18.3733 79.4045 17.9154 79.6437 17.526C79.8897 17.1296 80.2176 16.8221 80.6276 16.6035C81.0444 16.3848 81.5159 16.2755 82.0421 16.2755C82.5067 16.2755 82.9304 16.3712 83.313 16.5625C83.6957 16.747 83.9997 17.034 84.2252 17.4235C84.4576 17.8129 84.5737 18.3049 84.5737 18.8994C84.5737 19.487 84.4576 19.9756 84.2252 20.3651C83.9997 20.7546 83.6957 21.0484 83.313 21.2466C82.9304 21.4379 82.5067 21.5335 82.0421 21.5335ZM82.1548 20.6726C82.517 20.6726 82.8381 20.5974 83.1183 20.4471C83.3984 20.2968 83.6171 20.0884 83.7742 19.8219C83.9382 19.5554 84.0202 19.2479 84.0202 18.8994C84.0202 18.5509 83.9382 18.2434 83.7742 17.9769C83.6171 17.7104 83.3984 17.5055 83.1183 17.362C82.8381 17.2116 82.517 17.1365 82.1548 17.1365C81.7927 17.1365 81.4681 17.2116 81.1811 17.362C80.9009 17.5055 80.6789 17.7104 80.5149 17.9769C80.3577 18.2434 80.2791 18.5509 80.2791 18.8994C80.2791 19.2479 80.3577 19.5554 80.5149 19.8219C80.6789 20.0884 80.9009 20.2968 81.1811 20.4471C81.4681 20.5974 81.7927 20.6726 82.1548 20.6726ZM89.2827 21.8205C88.7019 21.8205 88.1894 21.701 87.7452 21.4618C87.3079 21.2226 86.9663 20.8947 86.7203 20.4778C86.4811 20.061 86.3616 19.5827 86.3616 19.0429C86.3616 18.5031 86.4777 18.0248 86.71 17.608C86.9492 17.1911 87.2738 16.8666 87.6837 16.6342C88.1006 16.3951 88.5686 16.2755 89.0879 16.2755C89.6141 16.2755 90.0787 16.3917 90.4819 16.624C90.885 16.8563 91.1994 17.1843 91.4248 17.608C91.6572 18.0248 91.7733 18.5133 91.7733 19.0736C91.7733 19.1146 91.7699 19.1625 91.7631 19.2171C91.7631 19.2718 91.7597 19.323 91.7528 19.3709H87.1303V18.6637H91.2404L90.8406 18.9096C90.8475 18.5612 90.7757 18.2503 90.6254 17.9769C90.4751 17.7036 90.2666 17.4918 90.0002 17.3415C89.7405 17.1843 89.4364 17.1057 89.0879 17.1057C88.7463 17.1057 88.4422 17.1843 88.1757 17.3415C87.9092 17.4918 87.7008 17.707 87.5505 17.9872C87.4002 18.2605 87.325 18.5748 87.325 18.9301V19.0941C87.325 19.4563 87.407 19.7809 87.571 20.0679C87.7418 20.348 87.9776 20.5667 88.2782 20.7238C88.5789 20.881 88.9239 20.9596 89.3134 20.9596C89.6346 20.9596 89.925 20.9049 90.1846 20.7956C90.4511 20.6862 90.6835 20.5222 90.8816 20.3036L91.4248 20.9391C91.1789 21.2261 90.8714 21.4447 90.5024 21.595C90.1402 21.7454 89.7337 21.8205 89.2827 21.8205ZM97.0709 21.759L95.0415 16.378H95.7385L97.5834 21.3695H97.2657L99.1618 16.378H99.7871L101.663 21.3695H101.345L103.221 16.378H103.887L101.847 21.759H101.161L99.3566 17.0647H99.5718L97.7576 21.759H97.0709ZM104.983 21.759V16.378H105.71V21.759H104.983ZM105.352 15.189C105.201 15.189 105.075 15.1378 104.972 15.0353C104.87 14.9328 104.819 14.8098 104.819 14.6663C104.819 14.5228 104.87 14.4032 104.972 14.3076C105.075 14.2051 105.201 14.1538 105.352 14.1538C105.502 14.1538 105.628 14.2017 105.731 14.2973C105.833 14.393 105.885 14.5126 105.885 14.6561C105.885 14.8064 105.833 14.9328 105.731 15.0353C105.635 15.1378 105.509 15.189 105.352 15.189ZM109.437 21.8103C108.931 21.8103 108.542 21.6736 108.268 21.4003C107.995 21.127 107.858 20.7409 107.858 20.2421V15.189H108.586V20.2011C108.586 20.5154 108.665 20.758 108.822 20.9288C108.986 21.0996 109.218 21.1851 109.519 21.1851C109.84 21.1851 110.106 21.0928 110.318 20.9083L110.574 21.431C110.431 21.5609 110.257 21.6565 110.052 21.718C109.853 21.7795 109.648 21.8103 109.437 21.8103ZM106.895 16.9827V16.378H110.226V16.9827H106.895ZM114.646 16.3268C115.083 16.3268 115.466 16.4122 115.794 16.583C116.129 16.747 116.388 16.9998 116.573 17.3415C116.764 17.6831 116.86 18.1136 116.86 18.6329V21.759H116.132V18.7047C116.132 18.1375 115.989 17.7104 115.702 17.4235C115.422 17.1296 115.025 16.9827 114.513 16.9827C114.13 16.9827 113.795 17.0613 113.508 17.2185C113.228 17.3688 113.009 17.5909 112.852 17.8847C112.702 18.1717 112.627 18.5202 112.627 18.9301V21.759H111.899V14.1538H112.627V17.8539L112.483 17.5772C112.654 17.1877 112.927 16.8836 113.303 16.665C113.679 16.4395 114.127 16.3268 114.646 16.3268ZM123.915 21.8205C123.334 21.8205 122.822 21.701 122.378 21.4618C121.94 21.2226 121.599 20.8947 121.353 20.4778C121.114 20.061 120.994 19.5827 120.994 19.0429C120.994 18.5031 121.11 18.0248 121.342 17.608C121.582 17.1911 121.906 16.8666 122.316 16.6342C122.733 16.3951 123.201 16.2755 123.72 16.2755C124.246 16.2755 124.711 16.3917 125.114 16.624C125.517 16.8563 125.832 17.1843 126.057 17.608C126.29 18.0248 126.406 18.5133 126.406 19.0736C126.406 19.1146 126.402 19.1625 126.395 19.2171C126.395 19.2718 126.392 19.323 126.385 19.3709H121.763V18.6637H125.873L125.473 18.9096C125.48 18.5612 125.408 18.2503 125.258 17.9769C125.107 17.7036 124.899 17.4918 124.633 17.3415C124.373 17.1843 124.069 17.1057 123.72 17.1057C123.379 17.1057 123.075 17.1843 122.808 17.3415C122.542 17.4918 122.333 17.707 122.183 17.9872C122.033 18.2605 121.957 18.5748 121.957 18.9301V19.0941C121.957 19.4563 122.039 19.7809 122.203 20.0679C122.374 20.348 122.61 20.5667 122.911 20.7238C123.211 20.881 123.556 20.9596 123.946 20.9596C124.267 20.9596 124.557 20.9049 124.817 20.7956C125.084 20.6862 125.316 20.5222 125.514 20.3036L126.057 20.9391C125.811 21.2261 125.504 21.4447 125.135 21.595C124.773 21.7454 124.366 21.8205 123.915 21.8205ZM130.673 16.2755C131.117 16.2755 131.506 16.3609 131.841 16.5317C132.183 16.7026 132.449 16.9622 132.641 17.3107C132.832 17.6592 132.928 18.0999 132.928 18.6329V21.759H131.944V18.7457C131.944 18.2195 131.814 17.8232 131.554 17.5567C131.301 17.2902 130.943 17.157 130.478 17.157C130.129 17.157 129.825 17.2253 129.566 17.362C129.306 17.4986 129.104 17.7002 128.961 17.9667C128.824 18.2332 128.756 18.5646 128.756 18.9609V21.759H127.772V16.3268H128.715V17.7924L128.561 17.403C128.739 17.0476 129.012 16.7709 129.381 16.5727C129.75 16.3746 130.181 16.2755 130.673 16.2755ZM137.649 16.2755C138.093 16.2755 138.483 16.3609 138.818 16.5317C139.159 16.7026 139.426 16.9622 139.617 17.3107C139.808 17.6592 139.904 18.0999 139.904 18.6329V21.759H138.92V18.7457C138.92 18.2195 138.79 17.8232 138.531 17.5567C138.278 17.2902 137.919 17.157 137.454 17.157C137.106 17.157 136.802 17.2253 136.542 17.362C136.283 17.4986 136.081 17.7002 135.938 17.9667C135.801 18.2332 135.733 18.5646 135.733 18.9609V21.759H134.749V14.1538H135.733V17.7924L135.538 17.403C135.715 17.0476 135.989 16.7709 136.358 16.5727C136.727 16.3746 137.157 16.2755 137.649 16.2755ZM145.097 21.759V20.6111L145.046 20.3958V18.4382C145.046 18.0214 144.923 17.7002 144.677 17.4747C144.438 17.2424 144.076 17.1262 143.591 17.1262C143.269 17.1262 142.955 17.1809 142.648 17.2902C142.34 17.3927 142.08 17.5328 141.869 17.7104L141.459 16.9725C141.739 16.747 142.074 16.5762 142.463 16.46C142.859 16.337 143.273 16.2755 143.703 16.2755C144.448 16.2755 145.022 16.4566 145.425 16.8187C145.828 17.1809 146.03 17.7344 146.03 18.4792V21.759H145.097ZM143.314 21.8205C142.911 21.8205 142.555 21.7522 142.248 21.6155C141.947 21.4789 141.715 21.291 141.551 21.0518C141.387 20.8058 141.305 20.5291 141.305 20.2216C141.305 19.9278 141.373 19.6613 141.51 19.4221C141.653 19.183 141.882 18.9916 142.197 18.8482C142.518 18.7047 142.948 18.6329 143.488 18.6329H145.21V19.3401H143.529C143.037 19.3401 142.706 19.4221 142.535 19.5861C142.364 19.7501 142.279 19.9483 142.279 20.1806C142.279 20.4471 142.384 20.6623 142.596 20.8263C142.808 20.9835 143.102 21.0621 143.478 21.0621C143.847 21.0621 144.168 20.9801 144.441 20.8161C144.721 20.6521 144.923 20.4129 145.046 20.0986L145.241 20.7751C145.111 21.0962 144.882 21.3525 144.554 21.5438C144.226 21.7283 143.813 21.8205 143.314 21.8205ZM150.751 16.2755C151.196 16.2755 151.585 16.3609 151.92 16.5317C152.262 16.7026 152.528 16.9622 152.719 17.3107C152.911 17.6592 153.006 18.0999 153.006 18.6329V21.759H152.022V18.7457C152.022 18.2195 151.893 17.8232 151.633 17.5567C151.38 17.2902 151.021 17.157 150.557 17.157C150.208 17.157 149.904 17.2253 149.644 17.362C149.385 17.4986 149.183 17.7002 149.04 17.9667C148.903 18.2332 148.835 18.5646 148.835 18.9609V21.759H147.851V16.3268H148.794V17.7924L148.64 17.403C148.818 17.0476 149.091 16.7709 149.46 16.5727C149.829 16.3746 150.259 16.2755 150.751 16.2755ZM157.195 21.8205C156.642 21.8205 156.146 21.701 155.709 21.4618C155.278 21.2226 154.94 20.8947 154.694 20.4778C154.448 20.061 154.325 19.5827 154.325 19.0429C154.325 18.5031 154.448 18.0248 154.694 17.608C154.94 17.1911 155.278 16.8666 155.709 16.6342C156.146 16.3951 156.642 16.2755 157.195 16.2755C157.687 16.2755 158.124 16.3746 158.507 16.5727C158.896 16.7641 159.197 17.0511 159.409 17.4337L158.661 17.9154C158.483 17.6489 158.264 17.4542 158.005 17.3312C157.752 17.2014 157.479 17.1365 157.185 17.1365C156.829 17.1365 156.512 17.2151 156.232 17.3722C155.951 17.5294 155.729 17.7514 155.565 18.0384C155.401 18.3186 155.319 18.6534 155.319 19.0429C155.319 19.4324 155.401 19.7706 155.565 20.0576C155.729 20.3446 155.951 20.5667 156.232 20.7238C156.512 20.881 156.829 20.9596 157.185 20.9596C157.479 20.9596 157.752 20.8981 158.005 20.7751C158.264 20.6452 158.483 20.4471 158.661 20.1806L159.409 20.6521C159.197 21.0279 158.896 21.3183 158.507 21.5233C158.124 21.7215 157.687 21.8205 157.195 21.8205ZM163.022 21.8205C162.441 21.8205 161.928 21.701 161.484 21.4618C161.047 21.2226 160.705 20.8947 160.459 20.4778C160.22 20.061 160.1 19.5827 160.1 19.0429C160.1 18.5031 160.217 18.0248 160.449 17.608C160.688 17.1911 161.013 16.8666 161.423 16.6342C161.84 16.3951 162.308 16.2755 162.827 16.2755C163.353 16.2755 163.818 16.3917 164.221 16.624C164.624 16.8563 164.938 17.1843 165.164 17.608C165.396 18.0248 165.512 18.5133 165.512 19.0736C165.512 19.1146 165.509 19.1625 165.502 19.2171C165.502 19.2718 165.499 19.323 165.492 19.3709H160.869V18.6637H164.979L164.58 18.9096C164.586 18.5612 164.515 18.2503 164.364 17.9769C164.214 17.7036 164.006 17.4918 163.739 17.3415C163.479 17.1843 163.175 17.1057 162.827 17.1057C162.485 17.1057 162.181 17.1843 161.915 17.3415C161.648 17.4918 161.44 17.707 161.289 17.9872C161.139 18.2605 161.064 18.5748 161.064 18.9301V19.0941C161.064 19.4563 161.146 19.7809 161.31 20.0679C161.481 20.348 161.717 20.5667 162.017 20.7238C162.318 20.881 162.663 20.9596 163.052 20.9596C163.374 20.9596 163.664 20.9049 163.924 20.7956C164.19 20.6862 164.422 20.5222 164.621 20.3036L165.164 20.9391C164.918 21.2261 164.61 21.4447 164.241 21.595C163.879 21.7454 163.473 21.8205 163.022 21.8205ZM169.123 21.8205C168.597 21.8205 168.126 21.7044 167.709 21.472C167.299 21.2397 166.974 20.9152 166.735 20.4983C166.496 20.0815 166.376 19.5964 166.376 19.0429C166.376 18.4894 166.496 18.0077 166.735 17.5977C166.974 17.1809 167.299 16.8563 167.709 16.624C168.126 16.3917 168.597 16.2755 169.123 16.2755C169.581 16.2755 169.994 16.378 170.363 16.583C170.732 16.788 171.026 17.0955 171.245 17.5055C171.47 17.9154 171.583 18.4279 171.583 19.0429C171.583 19.6579 171.474 20.1703 171.255 20.5803C171.043 20.9903 170.753 21.3012 170.384 21.513C170.015 21.718 169.595 21.8205 169.123 21.8205ZM169.205 20.9596C169.547 20.9596 169.854 20.881 170.128 20.7238C170.408 20.5667 170.627 20.3446 170.784 20.0576C170.948 19.7638 171.03 19.4255 171.03 19.0429C171.03 18.6534 170.948 18.3186 170.784 18.0384C170.627 17.7514 170.408 17.5294 170.128 17.3722C169.854 17.2151 169.547 17.1365 169.205 17.1365C168.857 17.1365 168.546 17.2151 168.273 17.3722C167.999 17.5294 167.781 17.7514 167.617 18.0384C167.453 18.3186 167.371 18.6534 167.371 19.0429C167.371 19.4255 167.453 19.7638 167.617 20.0576C167.781 20.3446 167.999 20.5667 168.273 20.7238C168.546 20.881 168.857 20.9596 169.205 20.9596ZM171.06 21.759V20.2933L171.122 19.0326L171.019 17.7719V14.1538H172.003V21.759H171.06ZM178.176 21.8205C177.725 21.8205 177.294 21.759 176.884 21.636C176.481 21.513 176.163 21.3627 175.931 21.1851L176.341 20.4061C176.573 20.5632 176.86 20.6965 177.202 20.8058C177.544 20.9152 177.892 20.9698 178.247 20.9698C178.705 20.9698 179.033 20.9049 179.231 20.7751C179.436 20.6452 179.539 20.4642 179.539 20.2318C179.539 20.061 179.477 19.9278 179.354 19.8321C179.231 19.7364 179.067 19.6647 178.862 19.6169C178.664 19.569 178.442 19.528 178.196 19.4939C177.95 19.4529 177.704 19.405 177.458 19.3504C177.212 19.2889 176.987 19.2069 176.782 19.1044C176.577 18.9951 176.413 18.8482 176.29 18.6637C176.167 18.4723 176.105 18.2195 176.105 17.9052C176.105 17.5772 176.197 17.2902 176.382 17.0442C176.566 16.7982 176.826 16.6103 177.161 16.4805C177.503 16.3438 177.906 16.2755 178.37 16.2755C178.726 16.2755 179.084 16.3199 179.447 16.4088C179.816 16.4907 180.116 16.6103 180.349 16.7675L179.928 17.5465C179.682 17.3825 179.426 17.2697 179.16 17.2082C178.893 17.1467 178.627 17.116 178.36 17.116C177.93 17.116 177.609 17.1877 177.397 17.3312C177.185 17.4679 177.079 17.6455 177.079 17.8642C177.079 18.0487 177.14 18.1922 177.263 18.2947C177.393 18.3903 177.557 18.4655 177.755 18.5202C177.96 18.5748 178.186 18.6227 178.432 18.6637C178.678 18.6978 178.924 18.7457 179.17 18.8072C179.416 18.8618 179.638 18.9404 179.836 19.0429C180.041 19.1454 180.205 19.2889 180.328 19.4734C180.458 19.6579 180.523 19.9039 180.523 20.2113C180.523 20.5393 180.427 20.8229 180.236 21.0621C180.044 21.3012 179.775 21.4891 179.426 21.6258C179.078 21.7556 178.661 21.8205 178.176 21.8205ZM184.653 16.2755C185.097 16.2755 185.487 16.3609 185.822 16.5317C186.163 16.7026 186.43 16.9622 186.621 17.3107C186.812 17.6592 186.908 18.0999 186.908 18.6329V21.759H185.924V18.7457C185.924 18.2195 185.794 17.8232 185.535 17.5567C185.282 17.2902 184.923 17.157 184.458 17.157C184.11 17.157 183.806 17.2253 183.546 17.362C183.287 17.4986 183.085 17.7002 182.941 17.9667C182.805 18.2332 182.736 18.5646 182.736 18.9609V21.759H181.753V14.1538H182.736V17.7924L182.542 17.403C182.719 17.0476 182.993 16.7709 183.362 16.5727C183.731 16.3746 184.161 16.2755 184.653 16.2755ZM191.148 21.8205C190.567 21.8205 190.055 21.701 189.611 21.4618C189.173 21.2226 188.832 20.8947 188.586 20.4778C188.346 20.061 188.227 19.5827 188.227 19.0429C188.227 18.5031 188.343 18.0248 188.575 17.608C188.814 17.1911 189.139 16.8666 189.549 16.6342C189.966 16.3951 190.434 16.2755 190.953 16.2755C191.479 16.2755 191.944 16.3917 192.347 16.624C192.75 16.8563 193.065 17.1843 193.29 17.608C193.522 18.0248 193.639 18.5133 193.639 19.0736C193.639 19.1146 193.635 19.1625 193.628 19.2171C193.628 19.2718 193.625 19.323 193.618 19.3709H188.996V18.6637H193.106L192.706 18.9096C192.713 18.5612 192.641 18.2503 192.491 17.9769C192.34 17.7036 192.132 17.4918 191.865 17.3415C191.606 17.1843 191.302 17.1057 190.953 17.1057C190.612 17.1057 190.307 17.1843 190.041 17.3415C189.774 17.4918 189.566 17.707 189.416 17.9872C189.265 18.2605 189.19 18.5748 189.19 18.9301V19.0941C189.19 19.4563 189.272 19.7809 189.436 20.0679C189.607 20.348 189.843 20.5667 190.143 20.7238C190.444 20.881 190.789 20.9596 191.179 20.9596C191.5 20.9596 191.79 20.9049 192.05 20.7956C192.316 20.6862 192.549 20.5222 192.747 20.3036L193.29 20.9391C193.044 21.2261 192.737 21.4447 192.368 21.595C192.005 21.7454 191.599 21.8205 191.148 21.8205ZM195.005 21.759V14.1538H195.989V21.759H195.005ZM198.011 21.759V15.845C198.011 15.312 198.165 14.8884 198.472 14.5741C198.787 14.2529 199.231 14.0923 199.805 14.0923C200.017 14.0923 200.218 14.1197 200.409 14.1743C200.608 14.2222 200.775 14.3008 200.912 14.4101L200.614 15.1583C200.512 15.0763 200.396 15.0148 200.266 14.9738C200.136 14.926 199.999 14.9021 199.856 14.9021C199.569 14.9021 199.35 14.9841 199.2 15.1481C199.05 15.3052 198.975 15.541 198.975 15.8553V16.583L198.995 17.034V21.759H198.011ZM197.089 17.1365V16.3268H200.553V17.1365H197.089ZM207.606 21.759V20.6111L207.554 20.3958V18.4382C207.554 18.0214 207.431 17.7002 207.185 17.4747C206.946 17.2424 206.584 17.1262 206.099 17.1262C205.778 17.1262 205.463 17.1809 205.156 17.2902C204.848 17.3927 204.589 17.5328 204.377 17.7104L203.967 16.9725C204.247 16.747 204.582 16.5762 204.971 16.46C205.368 16.337 205.781 16.2755 206.212 16.2755C206.956 16.2755 207.53 16.4566 207.934 16.8187C208.337 17.1809 208.538 17.7344 208.538 18.4792V21.759H207.606ZM205.822 21.8205C205.419 21.8205 205.064 21.7522 204.756 21.6155C204.456 21.4789 204.223 21.291 204.059 21.0518C203.895 20.8058 203.813 20.5291 203.813 20.2216C203.813 19.9278 203.882 19.6613 204.018 19.4221C204.162 19.183 204.391 18.9916 204.705 18.8482C205.026 18.7047 205.457 18.6329 205.996 18.6329H207.718V19.3401H206.037C205.545 19.3401 205.214 19.4221 205.043 19.5861C204.872 19.7501 204.787 19.9483 204.787 20.1806C204.787 20.4471 204.893 20.6623 205.105 20.8263C205.317 20.9835 205.61 21.0621 205.986 21.0621C206.355 21.0621 206.676 20.9801 206.95 20.8161C207.23 20.6521 207.431 20.4129 207.554 20.0986L207.749 20.7751C207.619 21.0962 207.39 21.3525 207.062 21.5438C206.734 21.7283 206.321 21.8205 205.822 21.8205ZM213.239 21.8205C212.788 21.8205 212.375 21.718 211.999 21.513C211.63 21.3012 211.333 20.9903 211.107 20.5803C210.889 20.1703 210.779 19.6579 210.779 19.0429C210.779 18.4279 210.885 17.9154 211.097 17.5055C211.316 17.0955 211.61 16.788 211.979 16.583C212.355 16.378 212.775 16.2755 213.239 16.2755C213.772 16.2755 214.244 16.3917 214.654 16.624C215.064 16.8563 215.388 17.1809 215.628 17.5977C215.867 18.0077 215.986 18.4894 215.986 19.0429C215.986 19.5964 215.867 20.0815 215.628 20.4983C215.388 20.9152 215.064 21.2397 214.654 21.472C214.244 21.7044 213.772 21.8205 213.239 21.8205ZM210.359 23.7475V16.3268H211.302V17.7924L211.241 19.0531L211.343 20.3138V23.7475H210.359ZM213.157 20.9596C213.506 20.9596 213.817 20.881 214.09 20.7238C214.37 20.5667 214.589 20.3446 214.746 20.0576C214.91 19.7638 214.992 19.4255 214.992 19.0429C214.992 18.6534 214.91 18.3186 214.746 18.0384C214.589 17.7514 214.37 17.5294 214.09 17.3722C213.817 17.2151 213.506 17.1365 213.157 17.1365C212.816 17.1365 212.505 17.2151 212.225 17.3722C211.951 17.5294 211.733 17.7514 211.569 18.0384C211.412 18.3186 211.333 18.6534 211.333 19.0429C211.333 19.4255 211.412 19.7638 211.569 20.0576C211.733 20.3446 211.951 20.5667 212.225 20.7238C212.505 20.881 212.816 20.9596 213.157 20.9596ZM220.226 21.8205C219.775 21.8205 219.362 21.718 218.986 21.513C218.617 21.3012 218.319 20.9903 218.094 20.5803C217.875 20.1703 217.766 19.6579 217.766 19.0429C217.766 18.4279 217.872 17.9154 218.084 17.5055C218.302 17.0955 218.596 16.788 218.965 16.583C219.341 16.378 219.761 16.2755 220.226 16.2755C220.759 16.2755 221.23 16.3917 221.64 16.624C222.05 16.8563 222.375 17.1809 222.614 17.5977C222.853 18.0077 222.973 18.4894 222.973 19.0429C222.973 19.5964 222.853 20.0815 222.614 20.4983C222.375 20.9152 222.05 21.2397 221.64 21.472C221.23 21.7044 220.759 21.8205 220.226 21.8205ZM217.346 23.7475V16.3268H218.289V17.7924L218.227 19.0531L218.33 20.3138V23.7475H217.346ZM220.144 20.9596C220.492 20.9596 220.803 20.881 221.077 20.7238C221.357 20.5667 221.575 20.3446 221.733 20.0576C221.897 19.7638 221.979 19.4255 221.979 19.0429C221.979 18.6534 221.897 18.3186 221.733 18.0384C221.575 17.7514 221.357 17.5294 221.077 17.3722C220.803 17.2151 220.492 17.1365 220.144 17.1365C219.802 17.1365 219.491 17.2151 219.211 17.3722C218.938 17.5294 218.719 17.7514 218.555 18.0384C218.398 18.3186 218.319 18.6534 218.319 19.0429C218.319 19.4255 218.398 19.7638 218.555 20.0576C218.719 20.3446 218.938 20.5667 219.211 20.7238C219.491 20.881 219.802 20.9596 220.144 20.9596ZM226.751 21.8205C226.17 21.8205 225.658 21.701 225.214 21.4618C224.776 21.2226 224.435 20.8947 224.189 20.4778C223.95 20.061 223.83 19.5827 223.83 19.0429C223.83 18.5031 223.946 18.0248 224.179 17.608C224.418 17.1911 224.742 16.8666 225.152 16.6342C225.569 16.3951 226.037 16.2755 226.556 16.2755C227.083 16.2755 227.547 16.3917 227.95 16.624C228.354 16.8563 228.668 17.1843 228.893 17.608C229.126 18.0248 229.242 18.5133 229.242 19.0736C229.242 19.1146 229.238 19.1625 229.232 19.2171C229.232 19.2718 229.228 19.323 229.221 19.3709H224.599V18.6637H228.709L228.309 18.9096C228.316 18.5612 228.244 18.2503 228.094 17.9769C227.944 17.7036 227.735 17.4918 227.469 17.3415C227.209 17.1843 226.905 17.1057 226.556 17.1057C226.215 17.1057 225.911 17.1843 225.644 17.3415C225.378 17.4918 225.169 17.707 225.019 17.9872C224.869 18.2605 224.794 18.5748 224.794 18.9301V19.0941C224.794 19.4563 224.876 19.7809 225.04 20.0679C225.21 20.348 225.446 20.5667 225.747 20.7238C226.047 20.881 226.392 20.9596 226.782 20.9596C227.103 20.9596 227.394 20.9049 227.653 20.7956C227.92 20.6862 228.152 20.5222 228.35 20.3036L228.893 20.9391C228.647 21.2261 228.34 21.4447 227.971 21.595C227.609 21.7454 227.202 21.8205 226.751 21.8205ZM233.83 21.759V20.6111L233.779 20.3958V18.4382C233.779 18.0214 233.656 17.7002 233.41 17.4747C233.171 17.2424 232.809 17.1262 232.323 17.1262C232.002 17.1262 231.688 17.1809 231.381 17.2902C231.073 17.3927 230.813 17.5328 230.602 17.7104L230.192 16.9725C230.472 16.747 230.807 16.5762 231.196 16.46C231.592 16.337 232.006 16.2755 232.436 16.2755C233.181 16.2755 233.755 16.4566 234.158 16.8187C234.561 17.1809 234.763 17.7344 234.763 18.4792V21.759H233.83ZM232.047 21.8205C231.644 21.8205 231.288 21.7522 230.981 21.6155C230.68 21.4789 230.448 21.291 230.284 21.0518C230.12 20.8058 230.038 20.5291 230.038 20.2216C230.038 19.9278 230.106 19.6613 230.243 19.4221C230.386 19.183 230.615 18.9916 230.93 18.8482C231.251 18.7047 231.681 18.6329 232.221 18.6329H233.943V19.3401H232.262C231.77 19.3401 231.439 19.4221 231.268 19.5861C231.097 19.7501 231.012 19.9483 231.012 20.1806C231.012 20.4471 231.117 20.6623 231.329 20.8263C231.541 20.9835 231.835 21.0621 232.211 21.0621C232.58 21.0621 232.901 20.9801 233.174 20.8161C233.454 20.6521 233.656 20.4129 233.779 20.0986L233.974 20.7751C233.844 21.0962 233.615 21.3525 233.287 21.5438C232.959 21.7283 232.546 21.8205 232.047 21.8205ZM236.584 21.759V14.1538H237.568V21.759H236.584ZM239.682 21.8205C239.491 21.8205 239.327 21.7556 239.19 21.6258C239.054 21.4891 238.985 21.3183 238.985 21.1133C238.985 20.9083 239.054 20.7409 239.19 20.6111C239.327 20.4813 239.491 20.4163 239.682 20.4163C239.867 20.4163 240.024 20.4813 240.154 20.6111C240.29 20.7409 240.359 20.9083 240.359 21.1133C240.359 21.3183 240.29 21.4891 240.154 21.6258C240.024 21.7556 239.867 21.8205 239.682 21.8205Z" fill="black"/>
</svg>
