<svg width="24" height="24" viewBox="0 0 24 24" fill="none" xmlns="http://www.w3.org/2000/svg">
<circle cx="11.5489" cy="12.0001" r="8.83019" fill="#D9D9D9"/>
<path d="M7.30119 0.80862C9.82239 -0.188138 12.6141 -0.265763 15.1869 0.588894L14.85 1.60452C12.5153 0.828886 9.98161 0.899128 7.69377 1.80374C5.40606 2.70838 3.50926 4.38932 2.33634 6.55178C1.16342 8.71433 0.789273 11.2209 1.27873 13.6319C1.6623 15.5213 2.55897 17.2561 3.85392 18.6573C3.99104 18.5983 4.14246 18.5655 4.30119 18.5655C4.92631 18.5656 5.43302 19.0731 5.43302 19.6983C5.4328 20.3232 4.92617 20.83 4.30119 20.8301C3.6761 20.8301 3.16957 20.3233 3.16935 19.6983C3.16935 19.6342 3.17474 19.571 3.18498 19.5098C1.69434 17.9444 0.665153 15.9838 0.230876 13.8448C-0.30856 11.1876 0.104163 8.42538 1.39689 6.04202C2.68962 3.65868 4.77978 1.80558 7.30119 0.80862Z" fill="url(#paint0_linear_1654_551)"/>
<path d="M16.4949 23.1903C13.9736 24.1872 11.1821 24.2657 8.60917 23.411L8.94608 22.3954C11.2808 23.171 13.8145 23.1008 16.1023 22.1961C18.39 21.2915 20.2868 19.6106 21.4598 17.4481C22.6327 15.2856 23.0068 12.779 22.5174 10.368C22.1338 8.47862 21.2371 6.74375 19.9422 5.34263C19.8051 5.40159 19.6536 5.43345 19.4949 5.43345C18.8698 5.43331 18.3631 4.92676 18.3631 4.30162C18.3632 3.67658 18.8699 3.16992 19.4949 3.16978C20.1201 3.16978 20.6276 3.67649 20.6277 4.30162C20.6277 4.36578 20.6214 4.42884 20.6111 4.49009C22.1018 6.05552 23.1319 8.01605 23.5662 10.1551C24.1056 12.8123 23.6919 15.5745 22.3992 17.9579C21.1065 20.3412 19.0163 22.1933 16.4949 23.1903Z" fill="url(#paint1_linear_1654_551)"/>
<path d="M8.672 15.0642C8.23467 15.0642 7.84267 14.9522 7.496 14.7282C7.15467 14.5042 6.88267 14.1789 6.68 13.7522C6.48267 13.3256 6.384 12.8082 6.384 12.2002C6.384 11.5922 6.48267 11.0749 6.68 10.6482C6.88267 10.2216 7.15467 9.89624 7.496 9.67224C7.84267 9.44824 8.23467 9.33624 8.672 9.33624C9.104 9.33624 9.49333 9.44824 9.84 9.67224C10.1867 9.89624 10.4587 10.2216 10.656 10.6482C10.8533 11.0749 10.952 11.5922 10.952 12.2002C10.952 12.8082 10.8533 13.3256 10.656 13.7522C10.4587 14.1789 10.1867 14.5042 9.84 14.7282C9.49333 14.9522 9.104 15.0642 8.672 15.0642ZM8.672 14.3522C8.96533 14.3522 9.22133 14.2722 9.44 14.1122C9.664 13.9522 9.83733 13.7122 9.96 13.3922C10.088 13.0722 10.152 12.6749 10.152 12.2002C10.152 11.7256 10.088 11.3282 9.96 11.0082C9.83733 10.6882 9.664 10.4482 9.44 10.2882C9.22133 10.1282 8.96533 10.0482 8.672 10.0482C8.37867 10.0482 8.12 10.1282 7.896 10.2882C7.672 10.4482 7.496 10.6882 7.368 11.0082C7.24533 11.3282 7.184 11.7256 7.184 12.2002C7.184 12.6749 7.24533 13.0722 7.368 13.3922C7.496 13.7122 7.672 13.9522 7.896 14.1122C8.12 14.2722 8.37867 14.3522 8.672 14.3522ZM13.3538 15.0642C12.9591 15.0642 12.5751 15.0029 12.2018 14.8802C11.8338 14.7576 11.5325 14.5922 11.2978 14.3842L11.6658 13.7522C11.8525 13.9282 12.0951 14.0722 12.3938 14.1842C12.6925 14.2962 13.0125 14.3522 13.3538 14.3522C13.7698 14.3522 14.0925 14.2642 14.3218 14.0882C14.5565 13.9069 14.6738 13.6642 14.6738 13.3602C14.6738 13.0669 14.5618 12.8322 14.3378 12.6562C14.1191 12.4749 13.7698 12.3842 13.2898 12.3842H12.8418V11.8242L14.5058 9.77624L14.6178 10.0962H11.5538V9.40024H15.2498V9.94424L13.5938 11.9842L13.1778 11.7362H13.4418C14.1191 11.7362 14.6258 11.8882 14.9618 12.1922C15.3031 12.4962 15.4738 12.8829 15.4738 13.3522C15.4738 13.6669 15.3965 13.9549 15.2418 14.2162C15.0871 14.4776 14.8525 14.6856 14.5378 14.8402C14.2285 14.9896 13.8338 15.0642 13.3538 15.0642Z" fill="#464643"/>
<defs>
<linearGradient id="paint0_linear_1654_551" x1="0" y1="10.4151" x2="15.1869" y2="10.4151" gradientUnits="userSpaceOnUse">
<stop stop-color="#414140"/>
<stop offset="1" stop-color="#9E9E95"/>
</linearGradient>
<linearGradient id="paint1_linear_1654_551" x1="16.203" y1="3.16978" x2="16.203" y2="23.9995" gradientUnits="userSpaceOnUse">
<stop stop-color="#3D3D3C"/>
<stop offset="1" stop-color="#ADACA2"/>
</linearGradient>
</defs>
</svg>
