<svg width="24" height="24" viewBox="0 0 24 24" fill="none" xmlns="http://www.w3.org/2000/svg">
<circle cx="11.5489" cy="12.0001" r="8.83019" fill="#D9D9D9"/>
<path d="M7.30119 0.80862C9.82239 -0.188138 12.6141 -0.265763 15.1869 0.588894L14.85 1.60452C12.5153 0.828886 9.98161 0.899128 7.69377 1.80374C5.40606 2.70838 3.50926 4.38932 2.33634 6.55178C1.16342 8.71433 0.789273 11.2209 1.27873 13.6319C1.6623 15.5213 2.55897 17.2561 3.85392 18.6573C3.99104 18.5983 4.14246 18.5655 4.30119 18.5655C4.92631 18.5656 5.43302 19.0731 5.43302 19.6983C5.4328 20.3232 4.92617 20.83 4.30119 20.8301C3.6761 20.8301 3.16957 20.3233 3.16935 19.6983C3.16935 19.6342 3.17474 19.571 3.18498 19.5098C1.69434 17.9444 0.665153 15.9838 0.230876 13.8448C-0.30856 11.1876 0.104163 8.42538 1.39689 6.04202C2.68962 3.65868 4.77978 1.80558 7.30119 0.80862Z" fill="url(#paint0_linear_1654_577)"/>
<path d="M16.4949 23.1903C13.9736 24.1872 11.1821 24.2657 8.60917 23.411L8.94608 22.3954C11.2808 23.171 13.8145 23.1008 16.1023 22.1961C18.39 21.2915 20.2868 19.6106 21.4598 17.4481C22.6327 15.2856 23.0068 12.779 22.5174 10.368C22.1338 8.47862 21.2371 6.74375 19.9422 5.34263C19.8051 5.40159 19.6536 5.43345 19.4949 5.43345C18.8698 5.43331 18.3631 4.92676 18.3631 4.30162C18.3632 3.67658 18.8699 3.16992 19.4949 3.16978C20.1201 3.16978 20.6276 3.67649 20.6277 4.30162C20.6277 4.36578 20.6214 4.42884 20.6111 4.49009C22.1018 6.05552 23.1319 8.01605 23.5662 10.1551C24.1056 12.8123 23.6919 15.5745 22.3992 17.9579C21.1065 20.3412 19.0163 22.1933 16.4949 23.1903Z" fill="url(#paint1_linear_1654_577)"/>
<path d="M9.172 14.5638C8.73467 14.5638 8.34267 14.4518 7.996 14.2278C7.65467 14.0038 7.38267 13.6784 7.18 13.2518C6.98267 12.8251 6.884 12.3078 6.884 11.6998C6.884 11.0918 6.98267 10.5744 7.18 10.1478C7.38267 9.72109 7.65467 9.39576 7.996 9.17176C8.34267 8.94776 8.73467 8.83576 9.172 8.83576C9.604 8.83576 9.99333 8.94776 10.34 9.17176C10.6867 9.39576 10.9587 9.72109 11.156 10.1478C11.3533 10.5744 11.452 11.0918 11.452 11.6998C11.452 12.3078 11.3533 12.8251 11.156 13.2518C10.9587 13.6784 10.6867 14.0038 10.34 14.2278C9.99333 14.4518 9.604 14.5638 9.172 14.5638ZM9.172 13.8518C9.46533 13.8518 9.72133 13.7718 9.94 13.6118C10.164 13.4518 10.3373 13.2118 10.46 12.8918C10.588 12.5718 10.652 12.1744 10.652 11.6998C10.652 11.2251 10.588 10.8278 10.46 10.5078C10.3373 10.1878 10.164 9.94776 9.94 9.78776C9.72133 9.62776 9.46533 9.54776 9.172 9.54776C8.87867 9.54776 8.62 9.62776 8.396 9.78776C8.172 9.94776 7.996 10.1878 7.868 10.5078C7.74533 10.8278 7.684 11.2251 7.684 11.6998C7.684 12.1744 7.74533 12.5718 7.868 12.8918C7.996 13.2118 8.172 13.4518 8.396 13.6118C8.62 13.7718 8.87867 13.8518 9.172 13.8518ZM12.1399 13.1238V12.5638L15.0039 8.89976H15.8679L13.0279 12.5638L12.6199 12.4358H17.0919V13.1238H12.1399ZM15.2519 14.4998V13.1238L15.2759 12.4358V11.2198H16.0279V14.4998H15.2519Z" fill="#464643"/>
<defs>
<linearGradient id="paint0_linear_1654_577" x1="0" y1="10.4151" x2="15.1869" y2="10.4151" gradientUnits="userSpaceOnUse">
<stop stop-color="#414140"/>
<stop offset="1" stop-color="#9E9E95"/>
</linearGradient>
<linearGradient id="paint1_linear_1654_577" x1="16.203" y1="3.16978" x2="16.203" y2="23.9995" gradientUnits="userSpaceOnUse">
<stop stop-color="#3D3D3C"/>
<stop offset="1" stop-color="#ADACA2"/>
</linearGradient>
</defs>
</svg>
