<svg width="24" height="24" viewBox="0 0 24 24" fill="none" xmlns="http://www.w3.org/2000/svg">
<circle cx="11.5489" cy="12.0001" r="8.83019" fill="#D9D9D9"/>
<path d="M7.30119 0.80862C9.82239 -0.188138 12.6141 -0.265763 15.1869 0.588894L14.85 1.60452C12.5153 0.828886 9.98161 0.899128 7.69377 1.80374C5.40606 2.70838 3.50926 4.38932 2.33634 6.55178C1.16342 8.71433 0.789273 11.2209 1.27873 13.6319C1.6623 15.5213 2.55897 17.2561 3.85392 18.6573C3.99104 18.5983 4.14246 18.5655 4.30119 18.5655C4.92631 18.5656 5.43302 19.0731 5.43302 19.6983C5.4328 20.3232 4.92617 20.83 4.30119 20.8301C3.6761 20.8301 3.16957 20.3233 3.16935 19.6983C3.16935 19.6342 3.17474 19.571 3.18498 19.5098C1.69434 17.9444 0.665153 15.9838 0.230876 13.8448C-0.30856 11.1876 0.104163 8.42538 1.39689 6.04202C2.68962 3.65868 4.77978 1.80558 7.30119 0.80862Z" fill="url(#paint0_linear_1654_577)"/>
<path d="M16.4949 23.1903C13.9736 24.1872 11.1821 24.2657 8.60917 23.411L8.94608 22.3954C11.2808 23.171 13.8145 23.1008 16.1023 22.1961C18.39 21.2915 20.2868 19.6106 21.4598 17.4481C22.6327 15.2856 23.0068 12.779 22.5174 10.368C22.1338 8.47862 21.2371 6.74375 19.9422 5.34263C19.8051 5.40159 19.6536 5.43345 19.4949 5.43345C18.8698 5.43331 18.3631 4.92676 18.3631 4.30162C18.3632 3.67658 18.8699 3.16992 19.4949 3.16978C20.1201 3.16978 20.6276 3.67649 20.6277 4.30162C20.6277 4.36578 20.6214 4.42884 20.6111 4.49009C22.1018 6.05552 23.1319 8.01605 23.5662 10.1551C24.1056 12.8123 23.6919 15.5745 22.3992 17.9579C21.1065 20.3412 19.0163 22.1933 16.4949 23.1903Z" fill="url(#paint1_linear_1654_577)"/>
<path d="M8.67395 15.0642C8.23662 15.0642 7.84462 14.9522 7.49795 14.7282C7.15662 14.5042 6.88462 14.1789 6.68195 13.7522C6.48462 13.3256 6.38595 12.8082 6.38595 12.2002C6.38595 11.5922 6.48462 11.0749 6.68195 10.6482C6.88462 10.2216 7.15662 9.89624 7.49795 9.67224C7.84462 9.44824 8.23662 9.33624 8.67395 9.33624C9.10595 9.33624 9.49529 9.44824 9.84195 9.67224C10.1886 9.89624 10.4606 10.2216 10.658 10.6482C10.8553 11.0749 10.954 11.5922 10.954 12.2002C10.954 12.8082 10.8553 13.3256 10.658 13.7522C10.4606 14.1789 10.1886 14.5042 9.84195 14.7282C9.49529 14.9522 9.10595 15.0642 8.67395 15.0642ZM8.67395 14.3522C8.96729 14.3522 9.22329 14.2722 9.44195 14.1122C9.66595 13.9522 9.83929 13.7122 9.96195 13.3922C10.09 13.0722 10.154 12.6749 10.154 12.2002C10.154 11.7256 10.09 11.3282 9.96195 11.0082C9.83929 10.6882 9.66595 10.4482 9.44195 10.2882C9.22329 10.1282 8.96729 10.0482 8.67395 10.0482C8.38062 10.0482 8.12195 10.1282 7.89795 10.2882C7.67395 10.4482 7.49795 10.6882 7.36995 11.0082C7.24729 11.3282 7.18595 11.7256 7.18595 12.2002C7.18595 12.6749 7.24729 13.0722 7.36995 13.3922C7.49795 13.7122 7.67395 13.9522 7.89795 14.1122C8.12195 14.2722 8.38062 14.3522 8.67395 14.3522ZM13.5299 15.0642C13.1352 15.0642 12.7512 15.0029 12.3779 14.8802C12.0099 14.7576 11.7086 14.5922 11.4739 14.3842L11.8419 13.7522C12.0286 13.9282 12.2712 14.0722 12.5699 14.1842C12.8686 14.2962 13.1859 14.3522 13.5219 14.3522C13.9486 14.3522 14.2766 14.2616 14.5059 14.0802C14.7352 13.8989 14.8499 13.6562 14.8499 13.3522C14.8499 13.1442 14.7992 12.9629 14.6979 12.8082C14.5966 12.6536 14.4206 12.5362 14.1699 12.4562C13.9246 12.3709 13.5859 12.3282 13.1539 12.3282H11.8819L12.1779 9.40024H15.3379V10.0962H12.4739L12.8899 9.70424L12.6579 12.0162L12.2419 11.6322H13.3219C13.8819 11.6322 14.3326 11.7042 14.6739 11.8482C15.0152 11.9922 15.2632 12.1922 15.4179 12.4482C15.5726 12.6989 15.6499 12.9896 15.6499 13.3202C15.6499 13.6402 15.5726 13.9336 15.4179 14.2002C15.2632 14.4616 15.0286 14.6722 14.7139 14.8322C14.4046 14.9869 14.0099 15.0642 13.5299 15.0642Z" fill="#464643"/>
<defs>
<linearGradient id="paint0_linear_1654_577" x1="0" y1="10.4151" x2="15.1869" y2="10.4151" gradientUnits="userSpaceOnUse">
<stop stop-color="#414140"/>
<stop offset="1" stop-color="#9E9E95"/>
</linearGradient>
<linearGradient id="paint1_linear_1654_577" x1="16.203" y1="3.16978" x2="16.203" y2="23.9995" gradientUnits="userSpaceOnUse">
<stop stop-color="#3D3D3C"/>
<stop offset="1" stop-color="#ADACA2"/>
</linearGradient>
</defs>
</svg>
