<svg width="244" height="14" viewBox="0 0 244 14" fill="none" xmlns="http://www.w3.org/2000/svg">
<path d="M5.28395e-05 10.3877V0.587695H3.99005C5.03539 0.587695 5.95005 0.797695 6.73405 1.21769C7.52739 1.62836 8.14339 2.20236 8.58205 2.9397C9.02072 3.67703 9.24005 4.52636 9.24005 5.48769C9.24005 6.44903 9.02072 7.29836 8.58205 8.0357C8.14339 8.77303 7.52739 9.3517 6.73405 9.7717C5.95005 10.1824 5.03539 10.3877 3.99005 10.3877H5.28395e-05ZM1.03605 9.4917H3.93405C4.80205 9.4917 5.55339 9.3237 6.18805 8.9877C6.83205 8.64236 7.33139 8.17103 7.68605 7.5737C8.04072 6.96703 8.21805 6.2717 8.21805 5.48769C8.21805 4.69436 8.04072 3.99903 7.68605 3.4017C7.33139 2.80436 6.83205 2.33769 6.18805 2.00169C5.55339 1.65636 4.80205 1.48369 3.93405 1.48369H1.03605L1.03605 9.4917ZM14.3945 10.4577C13.7691 10.4577 13.2231 10.341 12.7565 10.1077C12.2898 9.87436 11.9258 9.52436 11.6645 9.0577C11.4125 8.59103 11.2865 8.0077 11.2865 7.3077V3.03769H12.2805V7.1957C12.2805 7.9797 12.4718 8.57236 12.8545 8.9737C13.2465 9.3657 13.7925 9.5617 14.4925 9.5617C15.0058 9.5617 15.4491 9.45903 15.8225 9.2537C16.2051 9.03903 16.4945 8.73103 16.6905 8.3297C16.8958 7.92836 16.9985 7.4477 16.9985 6.8877V3.03769H17.9925V10.3877H17.0405V8.3717L17.1945 8.7357C16.9611 9.27703 16.5971 9.7017 16.1025 10.0097C15.6171 10.3084 15.0478 10.4577 14.3945 10.4577ZM20.7627 10.3877V3.03769H21.7147V5.03969L21.6167 4.6897C21.822 4.1297 22.1674 3.70503 22.6527 3.41569C23.138 3.11703 23.74 2.96769 24.4587 2.96769V3.93369C24.4214 3.93369 24.384 3.93369 24.3467 3.93369C24.3094 3.92436 24.272 3.9197 24.2347 3.9197C23.46 3.9197 22.8534 4.1577 22.4147 4.6337C21.976 5.10036 21.7567 5.76769 21.7567 6.6357V10.3877H20.7627ZM30.3316 10.3877V8.7637L30.2896 8.4977V5.78169C30.2896 5.15636 30.1123 4.6757 29.7576 4.3397C29.4123 4.0037 28.8943 3.83569 28.2036 3.83569C27.7276 3.83569 27.2749 3.91503 26.8456 4.07369C26.4163 4.23236 26.0523 4.44236 25.7536 4.7037L25.3056 3.9617C25.6789 3.64436 26.1269 3.40169 26.6496 3.23369C27.1723 3.05636 27.7229 2.96769 28.3016 2.96769C29.2536 2.96769 29.9863 3.20569 30.4996 3.68169C31.0223 4.14836 31.2836 4.86236 31.2836 5.8237V10.3877H30.3316ZM27.7976 10.4577C27.2469 10.4577 26.7663 10.369 26.3556 10.1917C25.9543 10.005 25.6463 9.75303 25.4316 9.4357C25.2169 9.10903 25.1096 8.7357 25.1096 8.3157C25.1096 7.93303 25.1983 7.5877 25.3756 7.2797C25.5623 6.96236 25.8609 6.71036 26.2716 6.52369C26.6916 6.3277 27.2516 6.2297 27.9516 6.2297H30.4856V6.9717H27.9796C27.2703 6.9717 26.7756 7.0977 26.4956 7.3497C26.2249 7.6017 26.0896 7.91436 26.0896 8.2877C26.0896 8.7077 26.2529 9.0437 26.5796 9.2957C26.9063 9.5477 27.3636 9.6737 27.9516 9.6737C28.5116 9.6737 28.9923 9.5477 29.3936 9.2957C29.8043 9.03436 30.1029 8.66103 30.2896 8.1757L30.5136 8.8617C30.3269 9.34703 30.0003 9.73436 29.5336 10.0237C29.0763 10.313 28.4976 10.4577 27.7976 10.4577ZM37.7774 10.4577C37.1334 10.4577 36.5547 10.313 36.0414 10.0237C35.5281 9.72503 35.1221 9.2957 34.8234 8.7357C34.5247 8.1757 34.3754 7.49903 34.3754 6.7057C34.3754 5.90303 34.5247 5.22636 34.8234 4.6757C35.1314 4.11569 35.5421 3.69103 36.0554 3.4017C36.5687 3.11236 37.1427 2.96769 37.7774 2.96769C38.4774 2.96769 39.1027 3.12636 39.6534 3.4437C40.2134 3.75169 40.6521 4.18569 40.9694 4.74569C41.2867 5.30569 41.4454 5.95903 41.4454 6.7057C41.4454 7.44303 41.2867 8.09636 40.9694 8.6657C40.6521 9.2257 40.2134 9.66436 39.6534 9.9817C39.1027 10.299 38.4774 10.4577 37.7774 10.4577ZM33.9834 10.3877V-0.000305295H34.9774V5.2077L34.8374 6.6917L34.9354 8.1757V10.3877H33.9834ZM37.7074 9.5757C38.2301 9.5757 38.6967 9.45903 39.1074 9.2257C39.5181 8.98303 39.8447 8.64703 40.0874 8.2177C40.3301 7.77903 40.4514 7.27503 40.4514 6.7057C40.4514 6.12703 40.3301 5.62303 40.0874 5.1937C39.8447 4.76436 39.5181 4.43303 39.1074 4.19969C38.6967 3.95703 38.2301 3.83569 37.7074 3.83569C37.1847 3.83569 36.7134 3.95703 36.2934 4.19969C35.8827 4.43303 35.5561 4.76436 35.3134 5.1937C35.0801 5.62303 34.9634 6.12703 34.9634 6.7057C34.9634 7.27503 35.0801 7.77903 35.3134 8.2177C35.5561 8.64703 35.8827 8.98303 36.2934 9.2257C36.7134 9.45903 37.1847 9.5757 37.7074 9.5757ZM43.4717 10.3877V-0.000305295H44.4657V10.3877H43.4717ZM50.3535 10.4577C49.5881 10.4577 48.9161 10.299 48.3375 9.9817C47.7588 9.65503 47.3061 9.2117 46.9795 8.6517C46.6528 8.08236 46.4895 7.4337 46.4895 6.7057C46.4895 5.9777 46.6435 5.3337 46.9515 4.77369C47.2688 4.21369 47.6981 3.77503 48.2395 3.45769C48.7901 3.13103 49.4061 2.96769 50.0875 2.96769C50.7781 2.96769 51.3895 3.12636 51.9215 3.4437C52.4628 3.75169 52.8875 4.19036 53.1955 4.7597C53.5035 5.3197 53.6575 5.96836 53.6575 6.7057C53.6575 6.75236 53.6528 6.8037 53.6435 6.8597C53.6435 6.90636 53.6435 6.9577 53.6435 7.0137H47.2455V6.2717H53.1115L52.7195 6.5657C52.7195 6.0337 52.6028 5.56236 52.3695 5.1517C52.1455 4.73169 51.8375 4.40503 51.4455 4.17169C51.0535 3.93836 50.6008 3.8217 50.0875 3.8217C49.5835 3.8217 49.1308 3.93836 48.7295 4.17169C48.3281 4.40503 48.0155 4.73169 47.7915 5.1517C47.5675 5.5717 47.4555 6.05236 47.4555 6.59369V6.7477C47.4555 7.3077 47.5768 7.80236 47.8195 8.2317C48.0715 8.6517 48.4168 8.98303 48.8555 9.2257C49.3035 9.45903 49.8121 9.5757 50.3815 9.5757C50.8295 9.5757 51.2448 9.49636 51.6275 9.3377C52.0195 9.17903 52.3555 8.93636 52.6355 8.6097L53.1955 9.2537C52.8688 9.6457 52.4581 9.94436 51.9635 10.1497C51.4781 10.355 50.9415 10.4577 50.3535 10.4577ZM55.7787 10.4577C55.5733 10.4577 55.396 10.383 55.2467 10.2337C55.1067 10.0844 55.0367 9.90236 55.0367 9.6877C55.0367 9.4637 55.1067 9.2817 55.2467 9.1417C55.396 9.0017 55.5733 8.9317 55.7787 8.9317C55.984 8.9317 56.1567 9.0017 56.2967 9.1417C56.446 9.2817 56.5207 9.4637 56.5207 9.6877C56.5207 9.90236 56.446 10.0844 56.2967 10.2337C56.1567 10.383 55.984 10.4577 55.7787 10.4577ZM69.6895 0.587695H70.7115V10.3877H69.6895V0.587695ZM63.5575 10.3877H62.5215V0.587695H63.5575V10.3877ZM69.7875 5.8657H63.4455V4.9557H69.7875V5.8657ZM73.7562 13.1737C73.4109 13.1737 73.0795 13.1177 72.7622 13.0057C72.4542 12.8937 72.1882 12.7257 71.9642 12.5017L72.4262 11.7597C72.6129 11.937 72.8135 12.0724 73.0282 12.1657C73.2522 12.2684 73.4995 12.3197 73.7702 12.3197C74.0969 12.3197 74.3769 12.2264 74.6102 12.0397C74.8529 11.8624 75.0815 11.545 75.2962 11.0877L75.7722 10.0097L75.8842 9.8557L78.9082 3.03769H79.8882L76.2062 11.2697C76.0009 11.7457 75.7722 12.1237 75.5202 12.4037C75.2775 12.6837 75.0115 12.8797 74.7222 12.9917C74.4329 13.113 74.1109 13.1737 73.7562 13.1737ZM75.7162 10.5977L72.3282 3.03769H73.3642L76.3602 9.7857L75.7162 10.5977ZM84.219 13.1737C83.547 13.1737 82.903 13.0757 82.287 12.8797C81.671 12.6837 81.1717 12.4037 80.789 12.0397L81.293 11.2837C81.6384 11.5917 82.063 11.8344 82.567 12.0117C83.0804 12.1984 83.6217 12.2917 84.191 12.2917C85.1244 12.2917 85.8104 12.0724 86.249 11.6337C86.6877 11.2044 86.907 10.5324 86.907 9.6177V7.7837L87.047 6.52369L86.949 5.26369V3.03769H87.901V9.4917C87.901 10.761 87.5884 11.6897 86.963 12.2777C86.347 12.875 85.4324 13.1737 84.219 13.1737ZM84.037 10.1077C83.337 10.1077 82.707 9.95836 82.147 9.6597C81.587 9.3517 81.1437 8.92703 80.817 8.3857C80.4997 7.84436 80.341 7.2237 80.341 6.52369C80.341 5.8237 80.4997 5.2077 80.817 4.6757C81.1437 4.13436 81.587 3.71436 82.147 3.41569C82.707 3.11703 83.337 2.96769 84.037 2.96769C84.6904 2.96769 85.2784 3.10303 85.801 3.37369C86.3237 3.64436 86.739 4.04569 87.047 4.5777C87.355 5.1097 87.509 5.75836 87.509 6.52369C87.509 7.28903 87.355 7.9377 87.047 8.4697C86.739 9.0017 86.3237 9.4077 85.801 9.6877C85.2784 9.9677 84.6904 10.1077 84.037 10.1077ZM84.135 9.2257C84.6764 9.2257 85.157 9.1137 85.577 8.8897C85.997 8.65636 86.3284 8.33903 86.571 7.9377C86.8137 7.52703 86.935 7.0557 86.935 6.52369C86.935 5.9917 86.8137 5.52503 86.571 5.1237C86.3284 4.72236 85.997 4.40969 85.577 4.1857C85.157 3.95236 84.6764 3.83569 84.135 3.83569C83.603 3.83569 83.1224 3.95236 82.693 4.1857C82.273 4.40969 81.9417 4.72236 81.699 5.1237C81.4657 5.52503 81.349 5.9917 81.349 6.52369C81.349 7.0557 81.4657 7.52703 81.699 7.9377C81.9417 8.33903 82.273 8.65636 82.693 8.8897C83.1224 9.1137 83.603 9.2257 84.135 9.2257ZM90.667 10.3877V3.03769H91.661V10.3877H90.667ZM91.171 1.41369C90.9657 1.41369 90.793 1.34369 90.653 1.2037C90.513 1.0637 90.443 0.895695 90.443 0.699695C90.443 0.503695 90.513 0.340361 90.653 0.209695C90.793 0.0696946 90.9657 -0.000305295 91.171 -0.000305295C91.3763 -0.000305295 91.549 0.065028 91.689 0.195695C91.829 0.326361 91.899 0.489695 91.899 0.685695C91.899 0.891029 91.829 1.0637 91.689 1.2037C91.5583 1.34369 91.3857 1.41369 91.171 1.41369ZM97.5488 10.4577C96.7834 10.4577 96.1114 10.299 95.5328 9.9817C94.9541 9.65503 94.5014 9.2117 94.1748 8.6517C93.8481 8.08236 93.6848 7.4337 93.6848 6.7057C93.6848 5.9777 93.8388 5.3337 94.1468 4.77369C94.4641 4.21369 94.8934 3.77503 95.4348 3.45769C95.9854 3.13103 96.6014 2.96769 97.2828 2.96769C97.9734 2.96769 98.5848 3.12636 99.1168 3.4437C99.6581 3.75169 100.083 4.19036 100.391 4.7597C100.699 5.3197 100.853 5.96836 100.853 6.7057C100.853 6.75236 100.848 6.8037 100.839 6.8597C100.839 6.90636 100.839 6.9577 100.839 7.0137H94.4408V6.2717H100.307L99.9148 6.5657C99.9148 6.0337 99.7981 5.56236 99.5648 5.1517C99.3408 4.73169 99.0328 4.40503 98.6408 4.17169C98.2488 3.93836 97.7961 3.8217 97.2828 3.8217C96.7788 3.8217 96.3261 3.93836 95.9248 4.17169C95.5234 4.40503 95.2108 4.73169 94.9868 5.1517C94.7628 5.5717 94.6508 6.05236 94.6508 6.59369V6.7477C94.6508 7.3077 94.7721 7.80236 95.0148 8.2317C95.2668 8.6517 95.6121 8.98303 96.0508 9.2257C96.4988 9.45903 97.0074 9.5757 97.5768 9.5757C98.0248 9.5757 98.4401 9.49636 98.8228 9.3377C99.2148 9.17903 99.5508 8.93636 99.8308 8.6097L100.391 9.2537C100.064 9.6457 99.6534 9.94436 99.1588 10.1497C98.6734 10.355 98.1368 10.4577 97.5488 10.4577ZM106.628 2.96769C107.225 2.96769 107.748 3.08436 108.196 3.3177C108.653 3.54169 109.008 3.88703 109.26 4.35369C109.521 4.82036 109.652 5.40836 109.652 6.1177V10.3877H108.658V6.2157C108.658 5.44103 108.462 4.8577 108.07 4.4657C107.687 4.06436 107.146 3.8637 106.446 3.8637C105.923 3.8637 105.466 3.97103 105.074 4.1857C104.691 4.39103 104.393 4.69436 104.178 5.0957C103.973 5.48769 103.87 5.96369 103.87 6.52369V10.3877H102.876V3.03769H103.828V5.0537L103.674 4.6757C103.907 4.14369 104.281 3.72836 104.794 3.4297C105.307 3.12169 105.919 2.96769 106.628 2.96769ZM112.337 10.3877V3.03769H113.331V10.3877H112.337ZM112.841 1.41369C112.636 1.41369 112.463 1.34369 112.323 1.2037C112.183 1.0637 112.113 0.895695 112.113 0.699695C112.113 0.503695 112.183 0.340361 112.323 0.209695C112.463 0.0696946 112.636 -0.000305295 112.841 -0.000305295C113.046 -0.000305295 113.219 0.065028 113.359 0.195695C113.499 0.326361 113.569 0.489695 113.569 0.685695C113.569 0.891029 113.499 1.0637 113.359 1.2037C113.228 1.34369 113.056 1.41369 112.841 1.41369ZM119.149 10.4577C118.421 10.4577 117.767 10.299 117.189 9.9817C116.619 9.65503 116.171 9.2117 115.845 8.6517C115.518 8.08236 115.355 7.4337 115.355 6.7057C115.355 5.96836 115.518 5.3197 115.845 4.7597C116.171 4.1997 116.619 3.76103 117.189 3.4437C117.767 3.12636 118.421 2.96769 119.149 2.96769C119.774 2.96769 120.339 3.08903 120.843 3.3317C121.347 3.57436 121.743 3.93836 122.033 4.42369L121.291 4.9277C121.039 4.55436 120.726 4.27903 120.353 4.10169C119.979 3.92436 119.573 3.83569 119.135 3.83569C118.612 3.83569 118.141 3.95703 117.721 4.19969C117.301 4.43303 116.969 4.76436 116.727 5.1937C116.484 5.62303 116.363 6.12703 116.363 6.7057C116.363 7.28436 116.484 7.78836 116.727 8.2177C116.969 8.64703 117.301 8.98303 117.721 9.2257C118.141 9.45903 118.612 9.5757 119.135 9.5757C119.573 9.5757 119.979 9.48703 120.353 9.3097C120.726 9.13236 121.039 8.8617 121.291 8.4977L122.033 9.0017C121.743 9.4777 121.347 9.8417 120.843 10.0937C120.339 10.3364 119.774 10.4577 119.149 10.4577ZM124.357 10.4577C124.151 10.4577 123.974 10.383 123.825 10.2337C123.685 10.0844 123.615 9.90236 123.615 9.6877C123.615 9.4637 123.685 9.2817 123.825 9.1417C123.974 9.0017 124.151 8.9317 124.357 8.9317C124.562 8.9317 124.735 9.0017 124.875 9.1417C125.024 9.2817 125.099 9.4637 125.099 9.6877C125.099 9.90236 125.024 10.0844 124.875 10.2337C124.735 10.383 124.562 10.4577 124.357 10.4577ZM131.1 10.3877V0.587695H134.768C135.598 0.587695 136.312 0.723028 136.91 0.993695C137.507 1.25503 137.964 1.6377 138.282 2.14169C138.608 2.63636 138.772 3.23836 138.772 3.9477C138.772 4.63836 138.608 5.2357 138.282 5.7397C137.964 6.23436 137.507 6.61703 136.91 6.8877C136.312 7.15836 135.598 7.2937 134.768 7.2937H131.674L132.136 6.8037V10.3877H131.1ZM132.136 6.8877L131.674 6.3837H134.74C135.72 6.3837 136.462 6.1737 136.966 5.75369C137.479 5.32436 137.736 4.72236 137.736 3.9477C137.736 3.16369 137.479 2.55703 136.966 2.12769C136.462 1.69836 135.72 1.48369 134.74 1.48369H131.674L132.136 0.993695V6.8877ZM140.61 10.3877V3.03769H141.562V5.03969L141.464 4.6897C141.67 4.1297 142.015 3.70503 142.5 3.41569C142.986 3.11703 143.588 2.96769 144.306 2.96769V3.93369C144.269 3.93369 144.232 3.93369 144.194 3.93369C144.157 3.92436 144.12 3.9197 144.082 3.9197C143.308 3.9197 142.701 4.1577 142.262 4.6337C141.824 5.10036 141.604 5.76769 141.604 6.6357V10.3877H140.61ZM149.174 10.4577C148.408 10.4577 147.736 10.299 147.158 9.9817C146.579 9.65503 146.126 9.2117 145.8 8.6517C145.473 8.08236 145.31 7.4337 145.31 6.7057C145.31 5.9777 145.464 5.3337 145.772 4.77369C146.089 4.21369 146.518 3.77503 147.06 3.45769C147.61 3.13103 148.226 2.96769 148.908 2.96769C149.598 2.96769 150.21 3.12636 150.742 3.4437C151.283 3.75169 151.708 4.19036 152.016 4.7597C152.324 5.3197 152.478 5.96836 152.478 6.7057C152.478 6.75236 152.473 6.8037 152.464 6.8597C152.464 6.90636 152.464 6.9577 152.464 7.0137H146.066V6.2717H151.932L151.54 6.5657C151.54 6.0337 151.423 5.56236 151.19 5.1517C150.966 4.73169 150.658 4.40503 150.266 4.17169C149.874 3.93836 149.421 3.8217 148.908 3.8217C148.404 3.8217 147.951 3.93836 147.55 4.17169C147.148 4.40503 146.836 4.73169 146.612 5.1517C146.388 5.5717 146.276 6.05236 146.276 6.59369V6.7477C146.276 7.3077 146.397 7.80236 146.64 8.2317C146.892 8.6517 147.237 8.98303 147.676 9.2257C148.124 9.45903 148.632 9.5757 149.202 9.5757C149.65 9.5757 150.065 9.49636 150.448 9.3377C150.84 9.17903 151.176 8.93636 151.456 8.6097L152.016 9.2537C151.689 9.6457 151.278 9.94436 150.784 10.1497C150.298 10.355 149.762 10.4577 149.174 10.4577ZM163.685 2.96769C164.282 2.96769 164.8 3.08436 165.239 3.3177C165.687 3.54169 166.032 3.88703 166.275 4.35369C166.527 4.82036 166.653 5.40836 166.653 6.1177V10.3877H165.659V6.2157C165.659 5.44103 165.472 4.8577 165.099 4.4657C164.735 4.06436 164.217 3.8637 163.545 3.8637C163.041 3.8637 162.602 3.97103 162.229 4.1857C161.865 4.39103 161.58 4.69436 161.375 5.0957C161.179 5.48769 161.081 5.96369 161.081 6.52369V10.3877H160.087V6.2157C160.087 5.44103 159.9 4.8577 159.527 4.4657C159.154 4.06436 158.631 3.8637 157.959 3.8637C157.464 3.8637 157.03 3.97103 156.657 4.1857C156.284 4.39103 155.994 4.69436 155.789 5.0957C155.593 5.48769 155.495 5.96369 155.495 6.52369V10.3877H154.501V3.03769H155.453V5.0257L155.299 4.6757C155.523 4.14369 155.882 3.72836 156.377 3.4297C156.881 3.12169 157.474 2.96769 158.155 2.96769C158.874 2.96769 159.485 3.14969 159.989 3.51369C160.493 3.86836 160.82 4.40503 160.969 5.1237L160.577 4.96969C160.792 4.37236 161.17 3.89169 161.711 3.5277C162.262 3.15436 162.92 2.96769 163.685 2.96769ZM169.349 10.3877V3.03769H170.343V10.3877H169.349ZM169.853 1.41369C169.647 1.41369 169.475 1.34369 169.335 1.2037C169.195 1.0637 169.125 0.895695 169.125 0.699695C169.125 0.503695 169.195 0.340361 169.335 0.209695C169.475 0.0696946 169.647 -0.000305295 169.853 -0.000305295C170.058 -0.000305295 170.231 0.065028 170.371 0.195695C170.511 0.326361 170.581 0.489695 170.581 0.685695C170.581 0.891029 170.511 1.0637 170.371 1.2037C170.24 1.34369 170.067 1.41369 169.853 1.41369ZM176.146 10.4577C175.521 10.4577 174.975 10.341 174.508 10.1077C174.042 9.87436 173.678 9.52436 173.416 9.0577C173.164 8.59103 173.038 8.0077 173.038 7.3077V3.03769H174.032V7.1957C174.032 7.9797 174.224 8.57236 174.606 8.9737C174.998 9.3657 175.544 9.5617 176.244 9.5617C176.758 9.5617 177.201 9.45903 177.574 9.2537C177.957 9.03903 178.246 8.73103 178.442 8.3297C178.648 7.92836 178.75 7.4477 178.75 6.8877V3.03769H179.744V10.3877H178.792V8.3717L178.946 8.7357C178.713 9.27703 178.349 9.7017 177.854 10.0097C177.369 10.3084 176.8 10.4577 176.146 10.4577ZM191.699 2.96769C192.296 2.96769 192.814 3.08436 193.253 3.3177C193.701 3.54169 194.046 3.88703 194.289 4.35369C194.541 4.82036 194.667 5.40836 194.667 6.1177V10.3877H193.673V6.2157C193.673 5.44103 193.486 4.8577 193.113 4.4657C192.749 4.06436 192.231 3.8637 191.559 3.8637C191.055 3.8637 190.616 3.97103 190.243 4.1857C189.879 4.39103 189.594 4.69436 189.389 5.0957C189.193 5.48769 189.095 5.96369 189.095 6.52369V10.3877H188.101V6.2157C188.101 5.44103 187.914 4.8577 187.541 4.4657C187.167 4.06436 186.645 3.8637 185.973 3.8637C185.478 3.8637 185.044 3.97103 184.671 4.1857C184.297 4.39103 184.008 4.69436 183.803 5.0957C183.607 5.48769 183.509 5.96369 183.509 6.52369V10.3877H182.515V3.03769H183.467V5.0257L183.313 4.6757C183.537 4.14369 183.896 3.72836 184.391 3.4297C184.895 3.12169 185.487 2.96769 186.169 2.96769C186.887 2.96769 187.499 3.14969 188.003 3.51369C188.507 3.86836 188.833 4.40503 188.983 5.1237L188.591 4.96969C188.805 4.37236 189.183 3.89169 189.725 3.5277C190.275 3.15436 190.933 2.96769 191.699 2.96769ZM202.16 5.33369H207.34V6.2297H202.16V5.33369ZM202.272 10.3877H201.236V0.587695H207.956V1.48369H202.272V10.3877ZM209.886 10.3877V3.03769H210.88V10.3877H209.886ZM210.39 1.41369C210.184 1.41369 210.012 1.34369 209.872 1.2037C209.732 1.0637 209.662 0.895695 209.662 0.699695C209.662 0.503695 209.732 0.340361 209.872 0.209695C210.012 0.0696946 210.184 -0.000305295 210.39 -0.000305295C210.595 -0.000305295 210.768 0.065028 210.908 0.195695C211.048 0.326361 211.118 0.489695 211.118 0.685695C211.118 0.891029 211.048 1.0637 210.908 1.2037C210.777 1.34369 210.604 1.41369 210.39 1.41369ZM217.398 2.96769C217.995 2.96769 218.518 3.08436 218.966 3.3177C219.423 3.54169 219.778 3.88703 220.03 4.35369C220.291 4.82036 220.422 5.40836 220.422 6.1177V10.3877H219.428V6.2157C219.428 5.44103 219.232 4.8577 218.84 4.4657C218.457 4.06436 217.916 3.8637 217.216 3.8637C216.693 3.8637 216.236 3.97103 215.844 4.1857C215.461 4.39103 215.162 4.69436 214.948 5.0957C214.742 5.48769 214.64 5.96369 214.64 6.52369V10.3877H213.646V3.03769H214.598V5.0537L214.444 4.6757C214.677 4.14369 215.05 3.72836 215.564 3.4297C216.077 3.12169 216.688 2.96769 217.398 2.96769ZM223.106 10.3877V3.03769H224.1V10.3877H223.106ZM223.61 1.41369C223.405 1.41369 223.232 1.34369 223.092 1.2037C222.952 1.0637 222.882 0.895695 222.882 0.699695C222.882 0.503695 222.952 0.340361 223.092 0.209695C223.232 0.0696946 223.405 -0.000305295 223.61 -0.000305295C223.816 -0.000305295 223.988 0.065028 224.128 0.195695C224.268 0.326361 224.338 0.489695 224.338 0.685695C224.338 0.891029 224.268 1.0637 224.128 1.2037C223.998 1.34369 223.825 1.41369 223.61 1.41369ZM228.84 10.4577C228.234 10.4577 227.66 10.3737 227.118 10.2057C226.577 10.0284 226.152 9.80903 225.844 9.5477L226.292 8.7637C226.591 8.9877 226.974 9.1837 227.44 9.3517C227.907 9.51036 228.397 9.5897 228.91 9.5897C229.61 9.5897 230.114 9.48236 230.422 9.2677C230.73 9.0437 230.884 8.7497 230.884 8.3857C230.884 8.11503 230.796 7.90503 230.618 7.7557C230.45 7.59703 230.226 7.48036 229.946 7.4057C229.666 7.3217 229.354 7.2517 229.008 7.1957C228.663 7.1397 228.318 7.07436 227.972 6.9997C227.636 6.92503 227.328 6.8177 227.048 6.6777C226.768 6.52836 226.54 6.3277 226.362 6.07569C226.194 5.8237 226.11 5.4877 226.11 5.06769C226.11 4.66636 226.222 4.30703 226.446 3.9897C226.67 3.67236 226.997 3.42503 227.426 3.24769C227.865 3.06103 228.397 2.96769 229.022 2.96769C229.498 2.96769 229.974 3.03303 230.45 3.16369C230.926 3.28503 231.318 3.44836 231.626 3.65369L231.192 4.45169C230.866 4.2277 230.516 4.06903 230.142 3.97569C229.769 3.87303 229.396 3.8217 229.022 3.8217C228.36 3.8217 227.87 3.93836 227.552 4.17169C227.244 4.39569 227.09 4.68503 227.09 5.03969C227.09 5.31969 227.174 5.53903 227.342 5.6977C227.52 5.85636 227.748 5.98236 228.028 6.07569C228.318 6.15969 228.63 6.2297 228.966 6.2857C229.312 6.3417 229.652 6.4117 229.988 6.49569C230.334 6.57036 230.646 6.6777 230.926 6.81769C231.216 6.94836 231.444 7.1397 231.612 7.3917C231.79 7.63436 231.878 7.95636 231.878 8.3577C231.878 8.78703 231.757 9.16036 231.514 9.4777C231.281 9.7857 230.936 10.0284 230.478 10.2057C230.03 10.3737 229.484 10.4577 228.84 10.4577ZM237.454 2.96769C238.051 2.96769 238.574 3.08436 239.022 3.3177C239.479 3.54169 239.834 3.88703 240.086 4.35369C240.347 4.82036 240.478 5.40836 240.478 6.1177V10.3877H239.484V6.2157C239.484 5.44103 239.288 4.8577 238.896 4.4657C238.513 4.06436 237.972 3.8637 237.272 3.8637C236.749 3.8637 236.292 3.97103 235.9 4.1857C235.517 4.39103 235.219 4.69436 235.004 5.0957C234.799 5.48769 234.696 5.96369 234.696 6.52369V10.3877H233.702V-0.000305295H234.696V5.0537L234.5 4.6757C234.733 4.14369 235.107 3.72836 235.62 3.4297C236.133 3.12169 236.745 2.96769 237.454 2.96769ZM243.261 10.4577C243.056 10.4577 242.878 10.383 242.729 10.2337C242.589 10.0844 242.519 9.90236 242.519 9.6877C242.519 9.4637 242.589 9.2817 242.729 9.1417C242.878 9.0017 243.056 8.9317 243.261 8.9317C243.466 8.9317 243.639 9.0017 243.779 9.1417C243.928 9.2817 244.003 9.4637 244.003 9.6877C244.003 9.90236 243.928 10.0844 243.779 10.2337C243.639 10.383 243.466 10.4577 243.261 10.4577Z" fill="#272727"/>
</svg>
