<svg width="472" height="27" viewBox="0 0 472 27" fill="none" xmlns="http://www.w3.org/2000/svg">
<path fill-rule="evenodd" clip-rule="evenodd" d="M5.28601 3.96289H16.2016L16.1871 12.3534L15.7576 13.2453C15.5092 13.7619 15.0362 14.4332 14.6345 14.8388C14.2447 15.2339 13.6078 15.6964 12.4212 16.2513V18.1342C12.4226 19.7846 12.4543 20.07 12.6855 20.4466C12.8309 20.6831 13.1427 20.9619 13.3792 21.0663C13.6157 21.1707 13.9725 21.2896 14.172 21.3306C14.4957 21.3966 14.5354 21.4627 14.5354 21.9331C14.5354 22.4484 14.5248 22.4616 14.0729 22.4616C13.8192 22.4616 13.3131 22.3123 12.9498 22.1313C12.5428 21.9278 12.1358 21.5856 11.8914 21.2394C11.672 20.9302 11.4342 20.3951 11.3628 20.0502C11.2902 19.7053 11.232 18.7685 11.232 16.5156H10.3071L10.3084 18.0682C10.3097 19.0618 10.2384 19.8705 10.1102 20.3145C10.0005 20.6963 9.74685 21.1945 9.54733 21.4231C9.34781 21.6503 8.90119 21.978 8.55632 22.1498C8.21146 22.3216 7.71992 22.4616 7.46622 22.4616C7.01432 22.4616 7.00375 22.4484 7.00375 21.9331C7.00375 21.4112 7.01036 21.4032 7.63139 21.2619C7.97626 21.1839 8.36869 21.0214 8.50347 20.8985C8.63825 20.7769 8.84438 20.4994 8.95933 20.2814C9.11657 19.9868 9.18132 19.4173 9.25003 16.2513L8.62239 15.9805C8.27752 15.8325 7.76088 15.5497 7.47547 15.3528C7.19006 15.1573 6.69588 14.6393 6.37744 14.2033C6.03917 13.7408 5.69034 13.0537 5.53839 12.5516C5.30715 11.7826 5.28073 11.2884 5.28337 7.82781L5.28601 3.96289ZM6.36951 8.68139C6.40783 11.883 6.41708 11.9728 6.74873 12.6837C6.93636 13.0841 7.29313 13.6404 7.54154 13.9231C7.79127 14.2046 8.2326 14.5746 8.52329 14.745C8.81399 14.9168 9.25928 15.119 9.5143 15.1956C9.76799 15.2735 10.393 15.3343 10.9017 15.3317C11.6258 15.3277 11.9958 15.2484 12.6075 14.963C13.0832 14.741 13.625 14.342 13.9976 13.939C14.3332 13.5756 14.7217 12.981 14.8604 12.6177C15.0864 12.031 15.1154 11.5712 15.126 8.48847L15.1392 5.01996C7.12796 5.01996 6.45804 5.04903 6.39858 5.21288C6.36026 5.31858 6.34705 6.87908 6.36951 8.68139ZM16.9138 3.96289H17.9709V9.11611H16.9138V3.96289ZM20.1035 3.96289H21.1421V6.9359C21.1421 9.87852 21.1381 9.9142 20.8117 10.4374C20.6294 10.7281 20.2713 11.0704 19.5512 11.4285L19.5565 22.4616H18.4994V10.3053L18.9949 10.3093C19.3345 10.3119 19.5736 10.2247 19.7547 10.0318C19.9991 9.77017 20.0216 9.53498 20.0612 6.85662L20.1035 3.96289ZM18.4994 3.96289H19.5565V9.11611H18.4994V3.96289Z" fill="black"/>
<path d="M36.855 13.4072H41.2929V14.806H36.855V13.4072ZM36.9949 18.2139H35.3418V9.31268H41.8397V10.6987H36.9949V18.2139ZM46.1513 18.3029C45.4561 18.3029 44.8373 18.1545 44.2947 17.8578C43.7522 17.5526 43.3241 17.1372 43.0104 16.6117C42.6968 16.0861 42.5399 15.4884 42.5399 14.8187C42.5399 14.1405 42.6968 13.5429 43.0104 13.0257C43.3241 12.5002 43.7522 12.089 44.2947 11.7923C44.8373 11.4956 45.4561 11.3472 46.1513 11.3472C46.8549 11.3472 47.478 11.4956 48.0205 11.7923C48.5715 12.089 48.9996 12.4959 49.3048 13.013C49.6185 13.5301 49.7753 14.132 49.7753 14.8187C49.7753 15.4884 49.6185 16.0861 49.3048 16.6117C48.9996 17.1372 48.5715 17.5526 48.0205 17.8578C47.478 18.1545 46.8549 18.3029 46.1513 18.3029ZM46.1513 16.9423C46.5412 16.9423 46.8888 16.8575 47.194 16.6879C47.4992 16.5184 47.7365 16.2726 47.9061 15.9504C48.0841 15.6283 48.1731 15.251 48.1731 14.8187C48.1731 14.3779 48.0841 14.0006 47.9061 13.687C47.7365 13.3648 47.4992 13.119 47.194 12.9495C46.8888 12.7799 46.5455 12.6951 46.164 12.6951C45.774 12.6951 45.4265 12.7799 45.1213 12.9495C44.8246 13.119 44.5872 13.3648 44.4092 13.687C44.2312 14.0006 44.1421 14.3779 44.1421 14.8187C44.1421 15.251 44.2312 15.6283 44.4092 15.9504C44.5872 16.2726 44.8246 16.5184 45.1213 16.6879C45.4265 16.8575 45.7698 16.9423 46.1513 16.9423ZM54.3471 18.3029C53.652 18.3029 53.0331 18.1545 52.4906 17.8578C51.948 17.5526 51.5199 17.1372 51.2063 16.6117C50.8926 16.0861 50.7358 15.4884 50.7358 14.8187C50.7358 14.1405 50.8926 13.5429 51.2063 13.0257C51.5199 12.5002 51.948 12.089 52.4906 11.7923C53.0331 11.4956 53.652 11.3472 54.3471 11.3472C55.0507 11.3472 55.6738 11.4956 56.2164 11.7923C56.7674 12.089 57.1955 12.4959 57.5007 13.013C57.8143 13.5301 57.9712 14.132 57.9712 14.8187C57.9712 15.4884 57.8143 16.0861 57.5007 16.6117C57.1955 17.1372 56.7674 17.5526 56.2164 17.8578C55.6738 18.1545 55.0507 18.3029 54.3471 18.3029ZM54.3471 16.9423C54.7371 16.9423 55.0846 16.8575 55.3898 16.6879C55.695 16.5184 55.9324 16.2726 56.1019 15.9504C56.2799 15.6283 56.369 15.251 56.369 14.8187C56.369 14.3779 56.2799 14.0006 56.1019 13.687C55.9324 13.3648 55.695 13.119 55.3898 12.9495C55.0846 12.7799 54.7413 12.6951 54.3598 12.6951C53.9699 12.6951 53.6223 12.7799 53.3171 12.9495C53.0204 13.119 52.783 13.3648 52.605 13.687C52.427 14.0006 52.338 14.3779 52.338 14.8187C52.338 15.251 52.427 15.6283 52.605 15.9504C52.783 16.2726 53.0204 16.5184 53.3171 16.6879C53.6223 16.8575 53.9656 16.9423 54.3471 16.9423ZM62.3649 18.3029C61.7122 18.3029 61.123 18.1588 60.5974 17.8705C60.0803 17.5738 59.6734 17.1669 59.3767 16.6498C59.08 16.1327 58.9316 15.5223 58.9316 14.8187C58.9316 14.1151 59.08 13.5047 59.3767 12.9876C59.6734 12.4705 60.0803 12.0678 60.5974 11.7796C61.123 11.4914 61.7122 11.3472 62.3649 11.3472C62.9329 11.3472 63.4416 11.4744 63.8909 11.7287C64.3402 11.9746 64.6962 12.3518 64.959 12.8604C65.2218 13.3691 65.3532 14.0218 65.3532 14.8187C65.3532 15.6071 65.226 16.2598 64.9717 16.777C64.7174 17.2856 64.3656 17.6671 63.9163 17.9214C63.467 18.1757 62.9499 18.3029 62.3649 18.3029ZM62.5557 16.9423C62.9372 16.9423 63.2763 16.8575 63.573 16.6879C63.8781 16.5184 64.1197 16.2726 64.2978 15.9504C64.4843 15.6283 64.5775 15.251 64.5775 14.8187C64.5775 14.3779 64.4843 14.0006 64.2978 13.687C64.1197 13.3648 63.8781 13.119 63.573 12.9495C63.2763 12.7799 62.9372 12.6951 62.5557 12.6951C62.1742 12.6951 61.8309 12.7799 61.5257 12.9495C61.229 13.119 60.9874 13.3648 60.8009 13.687C60.6229 14.0006 60.5338 14.3779 60.5338 14.8187C60.5338 15.251 60.6229 15.6283 60.8009 15.9504C60.9874 16.2726 61.229 16.5184 61.5257 16.6879C61.8309 16.8575 62.1742 16.9423 62.5557 16.9423ZM64.6157 18.2139V16.6117L64.6792 14.806L64.5521 13.0003V8.77861H66.1289V18.2139H64.6157ZM76.0459 18.341C75.3508 18.341 74.7108 18.2308 74.1258 18.0104C73.5494 17.7815 73.045 17.4636 72.6126 17.0567C72.1803 16.6413 71.8454 16.1539 71.6081 15.5944C71.3707 15.0349 71.252 14.4245 71.252 13.7633C71.252 13.102 71.3707 12.4917 71.6081 11.9322C71.8454 11.3727 72.1803 10.8895 72.6126 10.4825C73.0535 10.0672 73.5663 9.74926 74.1513 9.52885C74.7362 9.29996 75.3762 9.18552 76.0714 9.18552C76.8259 9.18552 77.504 9.30844 78.1059 9.55428C78.7163 9.80013 79.2292 10.1604 79.6446 10.6351L78.6019 11.6524C78.2543 11.3048 77.877 11.0505 77.4701 10.8895C77.0717 10.7199 76.6309 10.6351 76.1477 10.6351C75.6814 10.6351 75.2491 10.7114 74.8506 10.864C74.4522 11.0166 74.1089 11.2328 73.8206 11.5125C73.5324 11.7923 73.3078 12.1229 73.1467 12.5044C72.9941 12.8859 72.9178 13.3055 72.9178 13.7633C72.9178 14.2126 72.9941 14.628 73.1467 15.0094C73.3078 15.3909 73.5324 15.7258 73.8206 16.014C74.1089 16.2938 74.448 16.5099 74.8379 16.6625C75.2279 16.8151 75.6602 16.8914 76.135 16.8914C76.5758 16.8914 76.9996 16.8236 77.4066 16.6879C77.8219 16.5438 78.2161 16.3065 78.5891 15.9759L79.5301 17.2093C79.0639 17.5823 78.5213 17.8663 77.9025 18.0613C77.2921 18.2478 76.6733 18.341 76.0459 18.341ZM77.9661 16.9931V13.6615H79.5301V17.2093L77.9661 16.9931ZM81.5578 18.2139V11.4235H83.071V13.2928L82.893 12.746C83.0965 12.2882 83.4144 11.9406 83.8467 11.7033C84.2875 11.4659 84.8343 11.3472 85.4871 11.3472V12.8604C85.4192 12.8435 85.3557 12.835 85.2963 12.835C85.237 12.8265 85.1776 12.8223 85.1183 12.8223C84.5164 12.8223 84.0374 13.0003 83.6814 13.3564C83.3253 13.7039 83.1473 14.2253 83.1473 14.9204V18.2139H81.5578ZM90.5347 18.2139V16.8405L90.4457 16.5481V14.1448C90.4457 13.6785 90.3058 13.3182 90.0261 13.0639C89.7463 12.8011 89.3225 12.6697 88.7545 12.6697C88.373 12.6697 87.9958 12.729 87.6228 12.8477C87.2582 12.9664 86.9488 13.1317 86.6945 13.3436L86.0714 12.1865C86.4359 11.9067 86.8683 11.699 87.3684 11.5634C87.8771 11.4193 88.4027 11.3472 88.9452 11.3472C89.9286 11.3472 90.6873 11.5846 91.2214 12.0593C91.7639 12.5256 92.0352 13.2504 92.0352 14.2338V18.2139H90.5347ZM88.3984 18.3029C87.8898 18.3029 87.4447 18.2181 87.0633 18.0486C86.6818 17.8705 86.3851 17.6289 86.1731 17.3237C85.9697 17.0101 85.8679 16.6583 85.8679 16.2683C85.8679 15.8868 85.957 15.5435 86.135 15.2383C86.3215 14.9331 86.6224 14.6915 87.0378 14.5135C87.4532 14.3355 88.0042 14.2465 88.6909 14.2465H90.6619V15.3019H88.8053C88.2628 15.3019 87.8983 15.3909 87.7118 15.5689C87.5253 15.7385 87.432 15.9504 87.432 16.2047C87.432 16.493 87.5465 16.7219 87.7753 16.8914C88.0042 17.061 88.3221 17.1457 88.729 17.1457C89.119 17.1457 89.4666 17.0567 89.7718 16.8787C90.0854 16.7007 90.3101 16.4379 90.4457 16.0903L90.7127 17.044C90.5601 17.4424 90.2846 17.7519 89.8862 17.9723C89.4962 18.1927 89.0003 18.3029 88.3984 18.3029ZM96.9614 18.3029C96.3086 18.3029 95.7194 18.1588 95.1938 17.8705C94.6767 17.5738 94.2698 17.1669 93.9731 16.6498C93.6764 16.1327 93.528 15.5223 93.528 14.8187C93.528 14.1151 93.6764 13.5047 93.9731 12.9876C94.2698 12.4705 94.6767 12.0678 95.1938 11.7796C95.7194 11.4914 96.3086 11.3472 96.9614 11.3472C97.5293 11.3472 98.038 11.4744 98.4873 11.7287C98.9366 11.9746 99.2926 12.3518 99.5554 12.8604C99.8182 13.3691 99.9496 14.0218 99.9496 14.8187C99.9496 15.6071 99.8224 16.2598 99.5681 16.777C99.3138 17.2856 98.962 17.6671 98.5127 17.9214C98.0634 18.1757 97.5463 18.3029 96.9614 18.3029ZM97.1521 16.9423C97.5336 16.9423 97.8727 16.8575 98.1694 16.6879C98.4746 16.5184 98.7162 16.2726 98.8942 15.9504C99.0807 15.6283 99.1739 15.251 99.1739 14.8187C99.1739 14.3779 99.0807 14.0006 98.8942 13.687C98.7162 13.3648 98.4746 13.119 98.1694 12.9495C97.8727 12.7799 97.5336 12.6951 97.1521 12.6951C96.7706 12.6951 96.4273 12.7799 96.1221 12.9495C95.8254 13.119 95.5838 13.3648 95.3973 13.687C95.2193 14.0006 95.1303 14.3779 95.1303 14.8187C95.1303 15.251 95.2193 15.6283 95.3973 15.9504C95.5838 16.2726 95.8254 16.5184 96.1221 16.6879C96.4273 16.8575 96.7706 16.9423 97.1521 16.9423ZM99.2121 18.2139V16.6117L99.2757 14.806L99.1485 13.0003V8.77861H100.725V18.2139H99.2121ZM106.009 18.3029C105.255 18.3029 104.593 18.1545 104.025 17.8578C103.466 17.5526 103.029 17.1372 102.716 16.6117C102.41 16.0861 102.258 15.4884 102.258 14.8187C102.258 14.1405 102.406 13.5429 102.703 13.0257C103.008 12.5002 103.423 12.089 103.949 11.7923C104.483 11.4956 105.089 11.3472 105.767 11.3472C106.429 11.3472 107.018 11.4914 107.535 11.7796C108.052 12.0678 108.459 12.4747 108.756 13.0003C109.052 13.5259 109.201 14.1448 109.201 14.8568C109.201 14.9247 109.197 15.001 109.188 15.0857C109.188 15.1705 109.184 15.251 109.175 15.3273H103.517V14.2719H108.336L107.713 14.6025C107.721 14.2126 107.641 13.8692 107.471 13.5725C107.302 13.2758 107.069 13.0427 106.772 12.8732C106.484 12.7036 106.149 12.6188 105.767 12.6188C105.378 12.6188 105.034 12.7036 104.737 12.8732C104.449 13.0427 104.22 13.2801 104.051 13.5852C103.89 13.882 103.809 14.2338 103.809 14.6407V14.895C103.809 15.3019 103.902 15.6622 104.089 15.9759C104.275 16.2895 104.538 16.5311 104.877 16.7007C105.216 16.8702 105.606 16.955 106.047 16.955C106.429 16.955 106.772 16.8956 107.077 16.777C107.382 16.6583 107.654 16.4718 107.891 16.2175L108.743 17.1966C108.438 17.5526 108.052 17.8281 107.586 18.0231C107.128 18.2096 106.602 18.3029 106.009 18.3029Z" fill="#203E13"/>
<path d="M122.525 6.39416C122.63 6.33 122.801 6.25438 122.906 6.22629C123.071 6.18258 124.401 6.1753 132.775 6.17322C141.373 6.17113 142.475 6.17668 142.66 6.2242C142.774 6.25334 142.954 6.33 143.059 6.39451C143.164 6.45868 143.307 6.57939 143.377 6.66229C143.447 6.74519 144.039 7.75697 144.692 8.91132C145.344 10.0653 145.908 11.0997 145.943 11.2093C145.997 11.3782 146.007 11.5221 146.007 12.1458C146.006 12.6886 145.992 12.9422 145.953 13.1083C145.923 13.2321 145.85 13.4274 145.789 13.5419C145.729 13.6564 145.585 13.8454 145.47 13.9616C145.348 14.0858 145.172 14.2186 145.045 14.2824C144.925 14.3424 144.738 14.4153 144.628 14.4441C144.519 14.4725 144.374 14.4961 144.186 14.4958L143.879 16.1347C143.71 17.0362 143.526 17.9141 143.472 18.0857C143.418 18.2574 143.291 18.5374 143.19 18.708C143.068 18.9147 142.908 19.1171 142.709 19.315C142.522 19.5023 142.304 19.6757 142.121 19.7854C141.961 19.8807 141.704 20.0025 141.551 20.0559C141.398 20.1093 141.14 20.1759 140.978 20.2037C140.725 20.247 139.552 20.2543 132.792 20.2543C126.031 20.2543 124.858 20.247 124.606 20.2037C124.444 20.1759 124.186 20.1093 124.033 20.0559C123.879 20.0025 123.623 19.8807 123.463 19.7854C123.279 19.6757 123.062 19.5023 122.874 19.315C122.676 19.1171 122.516 18.9147 122.393 18.708C122.293 18.5374 122.166 18.2574 122.111 18.0857C122.057 17.9141 121.874 17.0362 121.398 14.4954L121.276 14.4958C121.209 14.4961 121.061 14.4715 120.947 14.4416C120.832 14.4118 120.645 14.3376 120.531 14.2769C120.417 14.2158 120.237 14.0802 120.13 13.9755C120.023 13.8707 119.894 13.7146 119.844 13.6286C119.794 13.5426 119.718 13.3789 119.676 13.2644C119.607 13.0768 119.598 12.9762 119.586 12.2412C119.573 11.5096 119.579 11.4045 119.638 11.2179C119.676 11.0997 120.217 10.1038 120.892 8.91132C121.545 7.75697 122.137 6.74519 122.207 6.66229C122.277 6.57939 122.42 6.45868 122.525 6.39416Z" fill="black"/>
<path d="M122.745 7.11866C122.825 7.02986 122.943 6.94384 123.023 6.91575C123.14 6.87447 124.618 6.86719 132.787 6.86719C140.944 6.86719 142.433 6.87447 142.551 6.91575C142.63 6.94315 142.747 7.02848 142.823 7.11346C142.897 7.19566 143.481 8.1915 144.121 9.32677C144.972 10.8353 145.289 11.428 145.3 11.5293C145.309 11.6056 145.298 11.7343 145.277 11.8155C145.256 11.8966 145.188 12.0201 145.126 12.0898C145.064 12.1599 144.951 12.2452 144.875 12.2799C144.741 12.3403 144.256 12.3431 132.787 12.3431C121.317 12.3431 120.832 12.3403 120.699 12.2799C120.622 12.2452 120.509 12.1599 120.447 12.0898C120.385 12.0201 120.317 11.8966 120.296 11.8155C120.275 11.7343 120.267 11.6018 120.279 11.5206C120.294 11.4159 120.547 10.9345 121.156 9.85573C121.627 9.02118 122.146 8.09854 122.309 7.80544C122.473 7.51269 122.669 7.20364 122.745 7.11866Z" stroke="#F0E1DA" stroke-width="1.10112"/>
<path d="M120.381 13.1596C120.336 13.0642 120.301 12.9584 120.302 12.924C120.304 12.871 120.315 12.8682 120.38 12.9039C120.421 12.9268 120.534 12.966 120.629 12.9913C120.772 13.0291 122.943 13.0375 132.787 13.0375C142.63 13.0375 144.802 13.0291 144.944 12.9913C145.039 12.966 145.153 12.9272 145.196 12.905C145.262 12.8706 145.274 12.8737 145.273 12.9254C145.273 12.9587 145.234 13.068 145.187 13.1682C145.139 13.2685 145.04 13.409 144.968 13.4804C144.895 13.5519 144.758 13.6493 144.493 13.7839H121.08L120.898 13.6885C120.798 13.6361 120.658 13.5345 120.588 13.4631C120.518 13.3916 120.425 13.2549 120.381 13.1596Z" stroke="#F0E1DA" stroke-width="1.10112"/>
<path d="M122.415 16.1599C122.263 15.3489 122.129 14.6427 122.117 14.5904L122.096 14.495H143.47L143.453 14.5904L143.157 16.1772C143.003 16.9976 142.853 17.7468 142.823 17.8422C142.792 17.9375 142.712 18.1248 142.643 18.2584C142.555 18.4301 142.427 18.5935 142.205 18.8161C141.95 19.0732 141.837 19.1578 141.597 19.2757C141.435 19.3552 141.201 19.4474 141.077 19.4807C140.865 19.538 140.367 19.5418 132.787 19.5418C125.206 19.5418 124.709 19.538 124.497 19.4807C124.373 19.4474 124.139 19.3552 123.976 19.2757C123.736 19.1578 123.624 19.0732 123.368 18.8161C123.148 18.5952 123.018 18.4287 122.929 18.2584C122.86 18.1248 122.779 17.9296 122.748 17.8248C122.717 17.7201 122.567 16.9705 122.415 16.1599Z" stroke="#F0E1DA" stroke-width="1.10112"/>
<path d="M123.234 7.45982C123.311 7.41681 123.466 7.39704 123.841 7.38212C124.117 7.37102 128.347 7.36339 142.137 7.36721L142.293 7.44074C142.379 7.48132 142.498 7.56734 142.558 7.63151C142.617 7.69603 143.021 8.38107 143.457 9.15353C143.892 9.92599 144.276 10.6207 144.31 10.6971C144.345 10.7734 144.373 10.9138 144.373 11.0092C144.373 11.1095 144.343 11.2486 144.302 11.3387C144.264 11.4248 144.19 11.5392 144.138 11.5933C144.087 11.6474 143.983 11.7255 143.768 11.8417H121.811L121.673 11.7668C121.596 11.7255 121.492 11.6474 121.441 11.5933C121.389 11.5392 121.315 11.4248 121.277 11.3387C121.236 11.2499 121.205 11.1081 121.205 11.0092C121.205 10.8885 121.235 10.7727 121.304 10.6277C121.359 10.5132 121.563 10.1386 121.759 9.79522C121.954 9.45183 122.294 8.85072 122.513 8.45981C122.733 8.06855 122.962 7.69672 123.021 7.6329C123.081 7.56942 123.176 7.49138 123.234 7.45982Z" fill="black"/>
<path d="M129.772 17.5132C130.163 17.4927 130.584 17.4716 130.708 17.4664C130.832 17.4612 131.621 17.4539 132.46 17.4501C133.299 17.4466 134.353 17.4594 134.801 17.4788C135.249 17.4986 135.952 17.5378 136.362 17.5663C136.772 17.595 137.443 17.6495 137.854 17.6873C138.264 17.7255 138.935 17.7962 139.345 17.8448C139.755 17.8933 140.302 17.9638 140.559 18.0016C140.816 18.0394 141.062 18.0931 141.105 18.1212C141.148 18.149 141.199 18.2267 141.218 18.2933C141.245 18.3859 141.24 18.4435 141.201 18.5361C141.172 18.6027 141.114 18.6755 141.071 18.6974C141.028 18.7192 140.938 18.7362 140.871 18.7352C140.805 18.7341 140.399 18.6856 139.969 18.6276C139.54 18.5694 138.807 18.4823 138.339 18.4341C137.872 18.3859 137.177 18.3228 136.796 18.2936C136.414 18.2648 135.845 18.2246 135.53 18.2048C135.215 18.1847 134.177 18.1594 133.223 18.1479C132.092 18.1344 131.175 18.1417 130.587 18.1687C130.091 18.1913 129.357 18.2329 128.957 18.261C128.556 18.2888 127.994 18.3352 127.708 18.3637C127.422 18.3925 126.977 18.44 126.719 18.4698C126.462 18.4997 125.923 18.5715 125.523 18.6297C125.122 18.6876 124.748 18.7355 124.69 18.7359C124.633 18.7359 124.551 18.7185 124.508 18.6967C124.465 18.6752 124.407 18.6027 124.378 18.5361C124.339 18.4435 124.334 18.3859 124.361 18.2933C124.38 18.2267 124.431 18.1486 124.474 18.1202C124.517 18.0914 124.856 18.0238 125.245 17.9662C125.627 17.9096 126.275 17.8236 126.685 17.7754C127.095 17.7268 127.797 17.6564 128.246 17.619C128.694 17.5812 129.381 17.5336 129.772 17.5132Z" fill="black"/>
<path d="M122.179 10.4724C122.334 10.1956 122.701 9.54423 122.996 9.02429L123.532 8.0791L142.058 8.09644L142.854 9.50122C143.291 10.2737 143.658 10.9449 143.669 10.9927C143.684 11.0548 143.672 11.0919 143.625 11.1235C143.573 11.1585 141.428 11.1672 132.798 11.1668C125.695 11.1665 122.014 11.1544 121.968 11.1315C121.93 11.1124 121.898 11.0694 121.898 11.0361C121.898 11.0028 122.025 10.7492 122.179 10.4724Z" fill="#F0E1DA"/>
<path d="M157.494 18.2139V9.31268H161.156C161.945 9.31268 162.619 9.43984 163.178 9.69416C163.746 9.94848 164.183 10.313 164.488 10.7877C164.793 11.2625 164.946 11.8262 164.946 12.479C164.946 13.1317 164.793 13.6955 164.488 14.1702C164.183 14.6449 163.746 15.0094 163.178 15.2638C162.619 15.5181 161.945 15.6452 161.156 15.6452H158.41L159.147 14.8696V18.2139H157.494ZM159.147 15.0476L158.41 14.2465H161.08C161.809 14.2465 162.356 14.0939 162.72 13.7887C163.093 13.475 163.28 13.0385 163.28 12.479C163.28 11.911 163.093 11.4744 162.72 11.1692C162.356 10.864 161.809 10.7114 161.08 10.7114H158.41L159.147 9.89761V15.0476ZM166.382 18.2139V11.4235H167.895V13.2928L167.717 12.746C167.92 12.2882 168.238 11.9406 168.671 11.7033C169.112 11.4659 169.658 11.3472 170.311 11.3472V12.8604C170.243 12.8435 170.18 12.835 170.12 12.835C170.061 12.8265 170.002 12.8223 169.942 12.8223C169.34 12.8223 168.861 13.0003 168.505 13.3564C168.149 13.7039 167.971 14.2253 167.971 14.9204V18.2139H166.382ZM174.789 18.3029C174.035 18.3029 173.373 18.1545 172.805 17.8578C172.246 17.5526 171.809 17.1372 171.496 16.6117C171.19 16.0861 171.038 15.4884 171.038 14.8187C171.038 14.1405 171.186 13.5429 171.483 13.0257C171.788 12.5002 172.203 12.089 172.729 11.7923C173.263 11.4956 173.869 11.3472 174.547 11.3472C175.209 11.3472 175.798 11.4914 176.315 11.7796C176.832 12.0678 177.239 12.4747 177.536 13.0003C177.832 13.5259 177.981 14.1448 177.981 14.8568C177.981 14.9247 177.977 15.001 177.968 15.0857C177.968 15.1705 177.964 15.251 177.955 15.3273H172.297V14.2719H177.116L176.493 14.6025C176.501 14.2126 176.421 13.8692 176.251 13.5725C176.082 13.2758 175.849 13.0427 175.552 12.8732C175.264 12.7036 174.929 12.6188 174.547 12.6188C174.157 12.6188 173.814 12.7036 173.517 12.8732C173.229 13.0427 173 13.2801 172.831 13.5852C172.67 13.882 172.589 14.2338 172.589 14.6407V14.895C172.589 15.3019 172.682 15.6622 172.869 15.9759C173.055 16.2895 173.318 16.5311 173.657 16.7007C173.996 16.8702 174.386 16.955 174.827 16.955C175.209 16.955 175.552 16.8956 175.857 16.777C176.162 16.6583 176.434 16.4718 176.671 16.2175L177.523 17.1966C177.218 17.5526 176.832 17.8281 176.366 18.0231C175.908 18.2096 175.382 18.3029 174.789 18.3029ZM188.078 11.3472C188.621 11.3472 189.1 11.4532 189.515 11.6651C189.939 11.8771 190.27 12.2034 190.507 12.6443C190.744 13.0766 190.863 13.6361 190.863 14.3228V18.2139H189.273V14.5262C189.273 13.9243 189.142 13.475 188.879 13.1783C188.616 12.8816 188.239 12.7333 187.748 12.7333C187.4 12.7333 187.091 12.8096 186.819 12.9622C186.556 13.1148 186.349 13.3394 186.196 13.6361C186.052 13.9328 185.98 14.3101 185.98 14.7678V18.2139H184.391V14.5262C184.391 13.9243 184.259 13.475 183.996 13.1783C183.734 12.8816 183.356 12.7333 182.865 12.7333C182.517 12.7333 182.208 12.8096 181.936 12.9622C181.674 13.1148 181.466 13.3394 181.313 13.6361C181.169 13.9328 181.097 14.3101 181.097 14.7678V18.2139H179.508V11.4235H181.021V13.2292L180.754 12.6951C180.983 12.2543 181.313 11.9195 181.746 11.6906C182.186 11.4617 182.687 11.3472 183.246 11.3472C183.882 11.3472 184.433 11.5041 184.899 11.8177C185.374 12.1314 185.688 12.6061 185.84 13.2419L185.217 13.0257C185.437 12.5171 185.802 12.1102 186.311 11.805C186.819 11.4998 187.408 11.3472 188.078 11.3472ZM192.894 18.2139V11.4235H194.484V18.2139H192.894ZM193.695 10.3045C193.399 10.3045 193.153 10.2113 192.958 10.0248C192.771 9.83827 192.678 9.61362 192.678 9.35083C192.678 9.07955 192.771 8.8549 192.958 8.67688C193.153 8.49038 193.399 8.39713 193.695 8.39713C193.992 8.39713 194.234 8.48614 194.42 8.66416C194.615 8.83371 194.713 9.04988 194.713 9.31268C194.713 9.59243 194.619 9.8298 194.433 10.0248C194.246 10.2113 194 10.3045 193.695 10.3045ZM199.444 18.3029C198.867 18.3029 198.359 18.1969 197.918 17.985C197.477 17.7646 197.134 17.434 196.888 16.9931C196.642 16.5438 196.519 15.9801 196.519 15.3019V11.4235H198.108V15.0857C198.108 15.6961 198.244 16.1539 198.515 16.4591C198.795 16.7558 199.189 16.9041 199.698 16.9041C200.071 16.9041 200.393 16.8278 200.664 16.6752C200.944 16.5226 201.16 16.2938 201.313 15.9886C201.474 15.6834 201.555 15.3061 201.555 14.8568V11.4235H203.144V18.2139H201.631V16.3828L201.898 16.9423C201.669 17.3831 201.334 17.7222 200.893 17.9595C200.452 18.1884 199.969 18.3029 199.444 18.3029ZM213.796 11.3472C214.338 11.3472 214.817 11.4532 215.233 11.6651C215.657 11.8771 215.987 12.2034 216.224 12.6443C216.462 13.0766 216.581 13.6361 216.581 14.3228V18.2139H214.991V14.5262C214.991 13.9243 214.86 13.475 214.597 13.1783C214.334 12.8816 213.957 12.7333 213.465 12.7333C213.118 12.7333 212.808 12.8096 212.537 12.9622C212.274 13.1148 212.066 13.3394 211.914 13.6361C211.77 13.9328 211.698 14.3101 211.698 14.7678V18.2139H210.108V14.5262C210.108 13.9243 209.977 13.475 209.714 13.1783C209.451 12.8816 209.074 12.7333 208.582 12.7333C208.235 12.7333 207.925 12.8096 207.654 12.9622C207.391 13.1148 207.183 13.3394 207.031 13.6361C206.887 13.9328 206.815 14.3101 206.815 14.7678V18.2139H205.225V11.4235H206.738V13.2292L206.471 12.6951C206.7 12.2543 207.031 11.9195 207.463 11.6906C207.904 11.4617 208.404 11.3472 208.964 11.3472C209.599 11.3472 210.15 11.5041 210.617 11.8177C211.091 12.1314 211.405 12.6061 211.558 13.2419L210.935 13.0257C211.155 12.5171 211.52 12.1102 212.028 11.805C212.537 11.4998 213.126 11.3472 213.796 11.3472ZM222.279 18.2139V9.31268H223.932V18.2139H222.279ZM226.339 18.2139V9.31268H227.7L231.591 15.8105H230.879L234.706 9.31268H236.067L236.08 18.2139H234.516L234.503 11.7669H234.834L231.578 17.1966H230.841L227.535 11.7669H227.916V18.2139H226.339ZM238.484 18.2139V9.31268H240.137V16.8151H244.791V18.2139H238.484Z" fill="#203E13"/>
<path d="M262.741 6.6192C263.286 6.07719 264.052 5.36763 264.443 5.04202C265.04 4.5475 265.194 4.45117 265.393 4.45117C265.592 4.45117 265.746 4.5475 266.342 5.04473C266.734 5.37102 267.403 5.9734 267.829 6.38381C268.255 6.79421 268.88 7.45358 269.22 7.84906C269.559 8.24454 270.052 8.87066 270.316 9.23969C270.579 9.60939 270.928 10.1399 271.091 10.42C271.255 10.6995 271.515 11.2035 271.671 11.5393C271.827 11.8751 272.034 12.394 272.131 12.6925C272.228 12.991 272.341 13.3878 272.382 13.5744C272.423 13.7609 272.481 14.1883 272.512 14.5241C272.544 14.8599 272.542 15.4249 272.51 15.779C272.478 16.1331 272.371 16.6982 272.274 17.034C272.177 17.3698 272.026 17.7971 271.938 17.9837C271.85 18.1702 271.628 18.5515 271.446 18.8316C271.263 19.1118 270.888 19.5656 270.611 19.8404C270.334 20.1158 269.863 20.499 269.565 20.693C269.266 20.8877 268.809 21.1414 268.547 21.2581C268.286 21.3748 267.813 21.5451 267.496 21.6366C267.178 21.7275 266.614 21.8395 266.241 21.8849C265.852 21.9317 265.316 21.948 264.986 21.9229C264.669 21.8992 264.226 21.8469 264.002 21.8076C263.778 21.7682 263.351 21.6597 263.053 21.5661C262.754 21.4725 262.266 21.2737 261.967 21.1245C261.669 20.9746 261.241 20.7229 261.018 20.5648C260.794 20.4061 260.411 20.0812 260.167 19.8424C259.923 19.6036 259.559 19.164 259.358 18.8656C259.158 18.5671 258.909 18.1241 258.806 17.8819C258.704 17.6398 258.557 17.2124 258.479 16.9322C258.402 16.6528 258.31 16.1182 258.275 15.7451C258.236 15.3259 258.236 14.8402 258.275 14.4732C258.31 14.1469 258.369 13.7345 258.408 13.5574C258.447 13.3804 258.557 12.991 258.654 12.6925C258.751 12.394 259.004 11.7835 259.217 11.3358C259.43 10.8881 259.861 10.1405 260.174 9.67383C260.487 9.2078 260.97 8.55116 261.248 8.21537C261.525 7.87958 262.197 7.1612 262.741 6.6192Z" fill="black"/>
<path d="M254.735 17.5984C254.731 17.403 254.77 17.3189 254.916 17.2083C255.019 17.131 255.174 17.0679 255.262 17.0679C255.349 17.0679 255.986 17.3881 256.676 17.7802C257.367 18.1716 257.962 18.5535 257.999 18.6281C258.036 18.7028 258.068 18.8323 258.069 18.9164C258.07 19.0006 258.009 19.1532 257.933 19.2556C257.832 19.3926 257.737 19.4422 257.575 19.4415C257.422 19.4408 257.001 19.2407 256.201 18.7875C255.567 18.428 254.979 18.0692 254.893 17.9905C254.79 17.8948 254.738 17.7666 254.735 17.5984Z" fill="black"/>
<path d="M272.803 18.6112C272.85 18.5454 273.438 18.1723 274.11 17.7809C274.847 17.3521 275.405 17.07 275.517 17.0693C275.627 17.0686 275.774 17.1378 275.874 17.2375C275.983 17.3474 276.044 17.4851 276.045 17.6276C276.047 17.7544 275.996 17.8948 275.926 17.9593C275.86 18.0203 275.47 18.2672 275.06 18.5087C274.649 18.7496 274.115 19.0575 273.872 19.1932C273.63 19.3282 273.34 19.4388 273.228 19.4394C273.109 19.4394 272.961 19.377 272.87 19.2882C272.777 19.1966 272.716 19.0562 272.717 18.9334C272.717 18.8215 272.756 18.6763 272.803 18.6112Z" fill="black"/>
<path d="M254.872 20.4685C254.868 20.3993 254.931 20.2616 255.011 20.1633C255.114 20.0398 255.224 19.9842 255.375 19.9835C255.494 19.9828 256.4 20.1978 257.388 20.4604C258.859 20.8518 259.214 20.9698 259.339 21.1062C259.423 21.1984 259.491 21.3497 259.491 21.4433C259.491 21.5362 259.465 21.6665 259.432 21.7316C259.4 21.7967 259.286 21.8903 259.178 21.9399C259 22.0213 258.827 21.9887 257.287 21.581C256.354 21.3348 255.469 21.0899 255.319 21.037C255.156 20.9786 255.014 20.8715 254.963 20.7677C254.916 20.6727 254.875 20.5384 254.872 20.4685Z" fill="black"/>
<path d="M271.447 21.1062C271.571 20.9698 271.926 20.8504 273.33 20.4699C274.281 20.2114 275.174 19.9971 275.314 19.993C275.502 19.9869 275.613 20.0296 275.738 20.1544C275.832 20.2474 275.908 20.3851 275.908 20.4597C275.908 20.5343 275.861 20.6869 275.806 20.7989C275.75 20.9108 275.688 21.0024 275.67 21.0024C275.652 21.0024 274.774 21.233 273.72 21.5145C271.981 21.9792 271.785 22.0186 271.608 21.9385C271.5 21.8903 271.386 21.7967 271.354 21.7316C271.321 21.6665 271.295 21.5362 271.295 21.4433C271.295 21.3497 271.363 21.1984 271.447 21.1062Z" fill="black"/>
<path d="M262.96 7.94821C263.347 7.54051 264.03 6.8764 264.478 6.47346C264.925 6.06984 265.338 5.74083 265.393 5.74219C265.449 5.74355 265.785 5.99861 266.14 6.30998C266.494 6.62066 267.135 7.23865 267.564 7.68297C267.993 8.12729 268.53 8.71814 268.758 8.99694C268.985 9.27575 269.399 9.83946 269.678 10.2499C269.956 10.6603 270.341 11.3162 270.533 11.7083C270.725 12.1004 270.971 12.6953 271.081 13.0311C271.19 13.3669 271.318 13.8859 271.366 14.1843C271.419 14.5235 271.437 15.0072 271.412 15.4732C271.389 15.9202 271.315 16.4229 271.228 16.7282C271.148 17.0083 270.961 17.4662 270.812 17.7457C270.663 18.0259 270.382 18.4532 270.187 18.6954C269.992 18.9376 269.62 19.2971 269.36 19.4931C269.1 19.6892 268.658 19.9694 268.378 20.1159C268.099 20.2617 267.595 20.4659 267.259 20.569C266.691 20.744 266.563 20.7569 265.427 20.7603C264.349 20.7637 264.142 20.7461 263.664 20.6084C263.365 20.5229 262.846 20.318 262.51 20.1539C262.175 19.989 261.687 19.6933 261.428 19.4952C261.169 19.2978 260.776 18.9077 260.555 18.6276C260.334 18.3481 260.05 17.9126 259.924 17.6609C259.798 17.4092 259.631 16.9819 259.554 16.7112C259.467 16.4073 259.398 15.9209 259.375 15.4393C259.353 14.9685 259.37 14.4706 259.418 14.1843C259.462 13.9232 259.571 13.4653 259.661 13.1668C259.75 12.8683 259.95 12.3494 260.104 12.0136C260.258 11.6778 260.54 11.1439 260.732 10.8265C260.924 10.5097 261.346 9.89916 261.669 9.46976C261.993 9.04104 262.573 8.3559 262.96 7.94821Z" fill="#F0E1DA"/>
<path d="M260.792 14.689C260.837 14.6123 260.936 14.5228 261.013 14.4902C261.089 14.457 261.166 14.4278 261.185 14.4251C261.203 14.4217 261.311 14.4495 261.423 14.4861C261.546 14.5262 261.657 14.6272 261.703 14.7419C261.745 14.8457 261.809 15.1597 261.843 15.4392C261.884 15.7662 261.986 16.1176 262.129 16.4228C262.261 16.7023 262.5 17.051 262.71 17.2708C262.907 17.4763 263.247 17.7395 263.466 17.8562C263.686 17.9729 264.017 18.1174 264.204 18.1771C264.39 18.2368 264.802 18.3148 265.12 18.3501C265.6 18.403 265.717 18.4403 265.818 18.5719C265.885 18.658 265.939 18.8059 265.939 18.8988C265.938 18.9925 265.876 19.1525 265.8 19.255C265.672 19.4286 265.628 19.4415 265.17 19.4422C264.888 19.4422 264.448 19.3825 264.136 19.3004C263.837 19.2224 263.41 19.0671 263.186 18.9551C262.962 18.8432 262.629 18.6397 262.445 18.5034C262.262 18.3663 261.946 18.0712 261.745 17.8474C261.543 17.6235 261.275 17.2267 261.149 16.9655C261.023 16.7044 260.874 16.2919 260.816 16.0497C260.759 15.8076 260.712 15.4331 260.711 15.2188C260.711 15.0044 260.747 14.7656 260.792 14.689Z" fill="black"/>
<path d="M290.105 18.2139V9.31268H291.759V16.8151H296.413V18.2139H290.105ZM300.695 18.3029C299.94 18.3029 299.279 18.1545 298.711 17.8578C298.151 17.5526 297.715 17.1372 297.401 16.6117C297.096 16.0861 296.943 15.4884 296.943 14.8187C296.943 14.1405 297.092 13.5429 297.389 13.0257C297.694 12.5002 298.109 12.089 298.635 11.7923C299.169 11.4956 299.775 11.3472 300.453 11.3472C301.114 11.3472 301.703 11.4914 302.221 11.7796C302.738 12.0678 303.145 12.4747 303.441 13.0003C303.738 13.5259 303.886 14.1448 303.886 14.8568C303.886 14.9247 303.882 15.001 303.874 15.0857C303.874 15.1705 303.869 15.251 303.861 15.3273H298.202V14.2719H303.022L302.399 14.6025C302.407 14.2126 302.327 13.8692 302.157 13.5725C301.987 13.2758 301.754 13.0427 301.458 12.8732C301.169 12.7036 300.835 12.6188 300.453 12.6188C300.063 12.6188 299.72 12.7036 299.423 12.8732C299.135 13.0427 298.906 13.2801 298.736 13.5852C298.575 13.882 298.495 14.2338 298.495 14.6407V14.895C298.495 15.3019 298.588 15.6622 298.775 15.9759C298.961 16.2895 299.224 16.5311 299.563 16.7007C299.902 16.8702 300.292 16.955 300.733 16.955C301.114 16.955 301.458 16.8956 301.763 16.777C302.068 16.6583 302.339 16.4718 302.577 16.2175L303.429 17.1966C303.123 17.5526 302.738 17.8281 302.271 18.0231C301.814 18.2096 301.288 18.3029 300.695 18.3029ZM309.411 18.2139V16.8405L309.321 16.5481V14.1448C309.321 13.6785 309.182 13.3182 308.902 13.0639C308.622 12.8011 308.198 12.6697 307.63 12.6697C307.249 12.6697 306.872 12.729 306.499 12.8477C306.134 12.9664 305.825 13.1317 305.57 13.3436L304.947 12.1865C305.312 11.9067 305.744 11.699 306.244 11.5634C306.753 11.4193 307.278 11.3472 307.821 11.3472C308.804 11.3472 309.563 11.5846 310.097 12.0593C310.64 12.5256 310.911 13.2504 310.911 14.2338V18.2139H309.411ZM307.274 18.3029C306.766 18.3029 306.321 18.2181 305.939 18.0486C305.558 17.8705 305.261 17.6289 305.049 17.3237C304.845 17.0101 304.744 16.6583 304.744 16.2683C304.744 15.8868 304.833 15.5435 305.011 15.2383C305.197 14.9331 305.498 14.6915 305.914 14.5135C306.329 14.3355 306.88 14.2465 307.567 14.2465H309.538V15.3019H307.681C307.139 15.3019 306.774 15.3909 306.588 15.5689C306.401 15.7385 306.308 15.9504 306.308 16.2047C306.308 16.493 306.422 16.7219 306.651 16.8914C306.88 17.061 307.198 17.1457 307.605 17.1457C307.995 17.1457 308.342 17.0567 308.648 16.8787C308.961 16.7007 309.186 16.4379 309.321 16.0903L309.589 17.044C309.436 17.4424 309.16 17.7519 308.762 17.9723C308.372 18.1927 307.876 18.3029 307.274 18.3029ZM314.248 16.7007L314.286 14.7043L317.834 11.4235H319.741L316.728 14.4499L315.888 15.1493L314.248 16.7007ZM312.951 18.2139V8.77861H314.54V18.2139H312.951ZM318.075 18.2139L315.596 15.1493L316.6 13.8777L320.008 18.2139H318.075ZM324.702 18.2139V9.31268H328.364C329.152 9.31268 329.826 9.43984 330.386 9.69416C330.954 9.94848 331.39 10.313 331.696 10.7877C332.001 11.2625 332.153 11.8262 332.153 12.479C332.153 13.1317 332.001 13.6955 331.696 14.1702C331.39 14.6449 330.954 15.0094 330.386 15.2638C329.826 15.5181 329.152 15.6452 328.364 15.6452H325.617L326.355 14.8696V18.2139H324.702ZM326.355 15.0476L325.617 14.2465H328.288C329.017 14.2465 329.564 14.0939 329.928 13.7887C330.301 13.475 330.488 13.0385 330.488 12.479C330.488 11.911 330.301 11.4744 329.928 11.1692C329.564 10.864 329.017 10.7114 328.288 10.7114H325.617L326.355 9.89761V15.0476ZM333.59 18.2139V11.4235H335.103V13.2928L334.925 12.746C335.128 12.2882 335.446 11.9406 335.878 11.7033C336.319 11.4659 336.866 11.3472 337.519 11.3472V12.8604C337.451 12.8435 337.387 12.835 337.328 12.835C337.269 12.8265 337.209 12.8223 337.15 12.8223C336.548 12.8223 336.069 13.0003 335.713 13.3564C335.357 13.7039 335.179 14.2253 335.179 14.9204V18.2139H333.59ZM341.857 18.3029C341.162 18.3029 340.543 18.1545 340 17.8578C339.458 17.5526 339.03 17.1372 338.716 16.6117C338.402 16.0861 338.246 15.4884 338.246 14.8187C338.246 14.1405 338.402 13.5429 338.716 13.0257C339.03 12.5002 339.458 12.089 340 11.7923C340.543 11.4956 341.162 11.3472 341.857 11.3472C342.561 11.3472 343.184 11.4956 343.726 11.7923C344.277 12.089 344.705 12.4959 345.01 13.013C345.324 13.5301 345.481 14.132 345.481 14.8187C345.481 15.4884 345.324 16.0861 345.01 16.6117C344.705 17.1372 344.277 17.5526 343.726 17.8578C343.184 18.1545 342.561 18.3029 341.857 18.3029ZM341.857 16.9423C342.247 16.9423 342.594 16.8575 342.9 16.6879C343.205 16.5184 343.442 16.2726 343.612 15.9504C343.79 15.6283 343.879 15.251 343.879 14.8187C343.879 14.3779 343.79 14.0006 343.612 13.687C343.442 13.3648 343.205 13.119 342.9 12.9495C342.594 12.7799 342.251 12.6951 341.87 12.6951C341.48 12.6951 341.132 12.7799 340.827 12.9495C340.53 13.119 340.293 13.3648 340.115 13.687C339.937 14.0006 339.848 14.3779 339.848 14.8187C339.848 15.251 339.937 15.6283 340.115 15.9504C340.293 16.2726 340.53 16.5184 340.827 16.6879C341.132 16.8575 341.475 16.9423 341.857 16.9423ZM350.053 18.3029C349.358 18.3029 348.739 18.1545 348.196 17.8578C347.654 17.5526 347.226 17.1372 346.912 16.6117C346.598 16.0861 346.441 15.4884 346.441 14.8187C346.441 14.1405 346.598 13.5429 346.912 13.0257C347.226 12.5002 347.654 12.089 348.196 11.7923C348.739 11.4956 349.358 11.3472 350.053 11.3472C350.756 11.3472 351.379 11.4956 351.922 11.7923C352.473 12.089 352.901 12.4959 353.206 13.013C353.52 13.5301 353.677 14.132 353.677 14.8187C353.677 15.4884 353.52 16.0861 353.206 16.6117C352.901 17.1372 352.473 17.5526 351.922 17.8578C351.379 18.1545 350.756 18.3029 350.053 18.3029ZM350.053 16.9423C350.443 16.9423 350.79 16.8575 351.095 16.6879C351.401 16.5184 351.638 16.2726 351.808 15.9504C351.986 15.6283 352.075 15.251 352.075 14.8187C352.075 14.3779 351.986 14.0006 351.808 13.687C351.638 13.3648 351.401 13.119 351.095 12.9495C350.79 12.7799 350.447 12.6951 350.065 12.6951C349.676 12.6951 349.328 12.7799 349.023 12.9495C348.726 13.119 348.489 13.3648 348.311 13.687C348.133 14.0006 348.044 14.3779 348.044 14.8187C348.044 15.251 348.133 15.6283 348.311 15.9504C348.489 16.2726 348.726 16.5184 349.023 16.6879C349.328 16.8575 349.671 16.9423 350.053 16.9423ZM355.413 18.2139V11.0421C355.413 10.33 355.621 9.76198 356.036 9.33811C356.46 8.90577 357.062 8.6896 357.842 8.6896C358.121 8.6896 358.384 8.71927 358.63 8.77861C358.884 8.83795 359.096 8.9312 359.266 9.05836L358.834 10.2537C358.715 10.1604 358.579 10.0926 358.427 10.0502C358.274 9.99934 358.117 9.97391 357.956 9.97391C357.626 9.97391 357.375 10.0672 357.206 10.2537C357.036 10.4317 356.952 10.703 356.952 11.0675V11.8304L357.002 12.5425V18.2139H355.413ZM354.294 12.746V11.4744H358.821V12.746H354.294Z" fill="#203E13"/>
<g clip-path="url(#clip0_2317_383)">
<path d="M388.91 17.5725L387.462 14.9662L386.244 15.6422L387.692 18.2499C387.803 18.4476 387.86 18.671 387.857 18.8977C387.855 19.1245 387.792 19.3464 387.676 19.5413C387.439 19.9427 387.02 20.1824 386.554 20.1824H381.469L383.267 18.3774L382.284 17.3948L378.8 20.8793L382.284 24.3637L383.267 23.3811L381.469 21.5762H386.555C387.024 21.5787 387.486 21.4572 387.894 21.2239C388.302 20.9907 388.641 20.654 388.877 20.2479C389.117 19.8443 389.247 19.3843 389.253 18.9144C389.259 18.4445 389.141 17.9821 388.91 17.5725ZM372.439 20.1824C372.212 20.1837 371.989 20.1251 371.792 20.0126C371.595 19.9 371.431 19.7374 371.317 19.5413C371.201 19.3464 371.139 19.1244 371.136 18.8976C371.133 18.6709 371.191 18.4475 371.302 18.2499L374.166 13.0929L374.897 15.546L376.23 15.1508L374.83 10.4259L370.105 11.8253L370.5 13.1577L372.934 12.4399L370.084 17.5725C369.853 17.982 369.735 18.4451 369.74 18.915C369.746 19.3849 369.876 19.8449 370.116 20.2486C370.353 20.6547 370.692 20.9913 371.099 21.2244C371.507 21.4575 371.969 21.5789 372.439 21.5762H376.709V20.1824H372.439ZM386.124 8.79103L385.394 11.2434L381.831 4.8299C381.353 3.97064 380.481 3.45703 379.497 3.45703C378.513 3.45703 377.639 3.97064 377.162 4.8306L375.016 8.69416L376.234 9.37014L378.381 5.50728C378.608 5.09612 379.025 4.85081 379.497 4.85081C379.968 4.85081 380.384 5.09681 380.613 5.50728L384.162 11.8957L381.727 11.1779L381.332 12.511L386.057 13.9104L387.456 9.18547L386.124 8.79103Z" fill="black"/>
</g>
<path d="M402.135 18.2139V9.31268H405.797C406.585 9.31268 407.259 9.43984 407.819 9.69416C408.387 9.94848 408.823 10.313 409.129 10.7877C409.434 11.2625 409.586 11.8262 409.586 12.479C409.586 13.1317 409.434 13.6955 409.129 14.1702C408.823 14.6364 408.387 14.9967 407.819 15.251C407.259 15.4969 406.585 15.6198 405.797 15.6198H403.05L403.788 14.8696V18.2139H402.135ZM407.959 18.2139L405.708 14.984H407.475L409.739 18.2139H407.959ZM403.788 15.0476L403.05 14.2592H405.721C406.45 14.2592 406.996 14.1024 407.361 13.7887C407.734 13.475 407.921 13.0385 407.921 12.479C407.921 11.911 407.734 11.4744 407.361 11.1692C406.996 10.864 406.45 10.7114 405.721 10.7114H403.05L403.788 9.89761V15.0476ZM414.475 18.3029C413.72 18.3029 413.059 18.1545 412.491 17.8578C411.932 17.5526 411.495 17.1372 411.181 16.6117C410.876 16.0861 410.724 15.4884 410.724 14.8187C410.724 14.1405 410.872 13.5429 411.169 13.0257C411.474 12.5002 411.889 12.089 412.415 11.7923C412.949 11.4956 413.555 11.3472 414.233 11.3472C414.895 11.3472 415.484 11.4914 416.001 11.7796C416.518 12.0678 416.925 12.4747 417.222 13.0003C417.518 13.5259 417.667 14.1448 417.667 14.8568C417.667 14.9247 417.662 15.001 417.654 15.0857C417.654 15.1705 417.65 15.251 417.641 15.3273H411.983V14.2719H416.802L416.179 14.6025C416.187 14.2126 416.107 13.8692 415.937 13.5725C415.768 13.2758 415.535 13.0427 415.238 12.8732C414.95 12.7036 414.615 12.6188 414.233 12.6188C413.843 12.6188 413.5 12.7036 413.203 12.8732C412.915 13.0427 412.686 13.2801 412.517 13.5852C412.356 13.882 412.275 14.2338 412.275 14.6407V14.895C412.275 15.3019 412.368 15.6622 412.555 15.9759C412.741 16.2895 413.004 16.5311 413.343 16.7007C413.682 16.8702 414.072 16.955 414.513 16.955C414.895 16.955 415.238 16.8956 415.543 16.777C415.848 16.6583 416.12 16.4718 416.357 16.2175L417.209 17.1966C416.904 17.5526 416.518 17.8281 416.052 18.0231C415.594 18.2096 415.068 18.3029 414.475 18.3029ZM422.309 18.3029C421.597 18.3029 420.961 18.1545 420.401 17.8578C419.85 17.5526 419.418 17.1372 419.104 16.6117C418.791 16.0861 418.634 15.4884 418.634 14.8187C418.634 14.1405 418.791 13.5429 419.104 13.0257C419.418 12.5002 419.85 12.089 420.401 11.7923C420.961 11.4956 421.597 11.3472 422.309 11.3472C422.97 11.3472 423.551 11.4829 424.051 11.7541C424.56 12.0169 424.945 12.4069 425.208 12.924L423.987 13.6361C423.784 13.314 423.534 13.0766 423.237 12.924C422.949 12.7714 422.635 12.6951 422.296 12.6951C421.906 12.6951 421.554 12.7799 421.241 12.9495C420.927 13.119 420.681 13.3648 420.503 13.687C420.325 14.0006 420.236 14.3779 420.236 14.8187C420.236 15.2595 420.325 15.641 420.503 15.9631C420.681 16.2768 420.927 16.5184 421.241 16.6879C421.554 16.8575 421.906 16.9423 422.296 16.9423C422.635 16.9423 422.949 16.866 423.237 16.7134C423.534 16.5608 423.784 16.3234 423.987 16.0013L425.208 16.7134C424.945 17.222 424.56 17.6162 424.051 17.896C423.551 18.1672 422.97 18.3029 422.309 18.3029ZM427.055 20.7698C426.724 20.7698 426.393 20.7147 426.063 20.6045C425.732 20.4943 425.457 20.3417 425.236 20.1467L425.872 18.9768C426.033 19.1209 426.215 19.2354 426.419 19.3202C426.622 19.4049 426.83 19.4473 427.042 19.4473C427.33 19.4473 427.563 19.3753 427.741 19.2311C427.919 19.087 428.085 18.8454 428.237 18.5063L428.631 17.6162L428.759 17.4255L431.327 11.4235H432.853L429.674 18.7607C429.462 19.2693 429.225 19.672 428.962 19.9687C428.708 20.2654 428.42 20.4731 428.097 20.5918C427.784 20.7104 427.436 20.7698 427.055 20.7698ZM428.453 18.4555L425.389 11.4235H427.042L429.534 17.2856L428.453 18.4555ZM436.776 18.3029C436.064 18.3029 435.428 18.1545 434.868 17.8578C434.317 17.5526 433.885 17.1372 433.571 16.6117C433.258 16.0861 433.101 15.4884 433.101 14.8187C433.101 14.1405 433.258 13.5429 433.571 13.0257C433.885 12.5002 434.317 12.089 434.868 11.7923C435.428 11.4956 436.064 11.3472 436.776 11.3472C437.437 11.3472 438.018 11.4829 438.518 11.7541C439.027 12.0169 439.412 12.4069 439.675 12.924L438.454 13.6361C438.251 13.314 438.001 13.0766 437.704 12.924C437.416 12.7714 437.102 12.6951 436.763 12.6951C436.373 12.6951 436.021 12.7799 435.708 12.9495C435.394 13.119 435.148 13.3648 434.97 13.687C434.792 14.0006 434.703 14.3779 434.703 14.8187C434.703 15.2595 434.792 15.641 434.97 15.9631C435.148 16.2768 435.394 16.5184 435.708 16.6879C436.021 16.8575 436.373 16.9423 436.763 16.9423C437.102 16.9423 437.416 16.866 437.704 16.7134C438.001 16.5608 438.251 16.3234 438.454 16.0013L439.675 16.7134C439.412 17.222 439.027 17.6162 438.518 17.896C438.018 18.1672 437.437 18.3029 436.776 18.3029ZM440.987 18.2139V8.77861H442.576V18.2139H440.987ZM448.846 18.2139V16.8405L448.757 16.5481V14.1448C448.757 13.6785 448.617 13.3182 448.338 13.0639C448.058 12.8011 447.634 12.6697 447.066 12.6697C446.685 12.6697 446.307 12.729 445.934 12.8477C445.57 12.9664 445.26 13.1317 445.006 13.3436L444.383 12.1865C444.747 11.9067 445.18 11.699 445.68 11.5634C446.189 11.4193 446.714 11.3472 447.257 11.3472C448.24 11.3472 448.999 11.5846 449.533 12.0593C450.075 12.5256 450.347 13.2504 450.347 14.2338V18.2139H448.846ZM446.71 18.3029C446.201 18.3029 445.756 18.2181 445.375 18.0486C444.993 17.8705 444.697 17.6289 444.485 17.3237C444.281 17.0101 444.179 16.6583 444.179 16.2683C444.179 15.8868 444.268 15.5435 444.446 15.2383C444.633 14.9331 444.934 14.6915 445.349 14.5135C445.765 14.3355 446.316 14.2465 447.002 14.2465H448.973V15.3019H447.117C446.574 15.3019 446.21 15.3909 446.023 15.5689C445.837 15.7385 445.744 15.9504 445.744 16.2047C445.744 16.493 445.858 16.7219 446.087 16.8914C446.316 17.061 446.634 17.1457 447.041 17.1457C447.431 17.1457 447.778 17.0567 448.083 16.8787C448.397 16.7007 448.622 16.4379 448.757 16.0903L449.024 17.044C448.872 17.4424 448.596 17.7519 448.198 17.9723C447.808 18.1927 447.312 18.3029 446.71 18.3029ZM456.151 18.3029C455.574 18.3029 455.061 18.1757 454.612 17.9214C454.163 17.6671 453.807 17.2856 453.544 16.777C453.289 16.2598 453.162 15.6071 453.162 14.8187C453.162 14.0218 453.294 13.3691 453.556 12.8604C453.828 12.3518 454.188 11.9746 454.637 11.7287C455.095 11.4744 455.6 11.3472 456.151 11.3472C456.82 11.3472 457.409 11.4914 457.918 11.7796C458.435 12.0678 458.842 12.4705 459.139 12.9876C459.444 13.5047 459.597 14.1151 459.597 14.8187C459.597 15.5223 459.444 16.1327 459.139 16.6498C458.842 17.1669 458.435 17.5738 457.918 17.8705C457.409 18.1588 456.82 18.3029 456.151 18.3029ZM452.387 18.2139V8.77861H453.976V13.0003L453.849 14.806L453.9 16.6117V18.2139H452.387ZM455.973 16.9423C456.354 16.9423 456.693 16.8575 456.99 16.6879C457.295 16.5184 457.537 16.2726 457.715 15.9504C457.893 15.6283 457.982 15.251 457.982 14.8187C457.982 14.3779 457.893 14.0006 457.715 13.687C457.537 13.3648 457.295 13.119 456.99 12.9495C456.693 12.7799 456.354 12.6951 455.973 12.6951C455.591 12.6951 455.248 12.7799 454.943 12.9495C454.637 13.119 454.396 13.3648 454.218 13.687C454.04 14.0006 453.951 14.3779 453.951 14.8187C453.951 15.251 454.04 15.6283 454.218 15.9504C454.396 16.2726 454.637 16.5184 454.943 16.6879C455.248 16.8575 455.591 16.9423 455.973 16.9423ZM461.104 18.2139V8.77861H462.694V18.2139H461.104ZM467.971 18.3029C467.217 18.3029 466.556 18.1545 465.988 17.8578C465.428 17.5526 464.992 17.1372 464.678 16.6117C464.373 16.0861 464.22 15.4884 464.22 14.8187C464.22 14.1405 464.369 13.5429 464.665 13.0257C464.97 12.5002 465.386 12.089 465.911 11.7923C466.446 11.4956 467.052 11.3472 467.73 11.3472C468.391 11.3472 468.98 11.4914 469.497 11.7796C470.014 12.0678 470.421 12.4747 470.718 13.0003C471.015 13.5259 471.163 14.1448 471.163 14.8568C471.163 14.9247 471.159 15.001 471.15 15.0857C471.15 15.1705 471.146 15.251 471.138 15.3273H465.479V14.2719H470.298L469.675 14.6025C469.684 14.2126 469.603 13.8692 469.434 13.5725C469.264 13.2758 469.031 13.0427 468.734 12.8732C468.446 12.7036 468.111 12.6188 467.73 12.6188C467.34 12.6188 466.997 12.7036 466.7 12.8732C466.412 13.0427 466.183 13.2801 466.013 13.5852C465.852 13.882 465.772 14.2338 465.772 14.6407V14.895C465.772 15.3019 465.865 15.6622 466.051 15.9759C466.238 16.2895 466.501 16.5311 466.84 16.7007C467.179 16.8702 467.569 16.955 468.01 16.955C468.391 16.955 468.734 16.8956 469.04 16.777C469.345 16.6583 469.616 16.4718 469.853 16.2175L470.705 17.1966C470.4 17.5526 470.014 17.8281 469.548 18.0231C469.09 18.2096 468.565 18.3029 467.971 18.3029Z" fill="#203E13"/>
<defs>
<clipPath id="clip0_2317_383">
<rect width="22.3005" height="22.3005" fill="white" transform="translate(368.346 2.06348)"/>
</clipPath>
</defs>
</svg>
