<svg width="312" height="25" viewBox="0 0 312 25" fill="none" xmlns="http://www.w3.org/2000/svg">
<path d="M2.55108e-05 19.9355V0.335546H4.53603V19.9355H2.55108e-05ZM9.18753 19.9355V0.335546H12.9395L21.2835 14.1675H19.2955L27.4995 0.335546H31.2235L31.2795 19.9355H27.0235L26.9955 6.85955H27.7795L21.2275 17.8635H19.1835L12.4915 6.85955H13.4435V19.9355H9.18753ZM35.9297 19.9355V0.335546H40.4657V16.2395H50.2937V19.9355H35.9297ZM67.1978 20.2715C65.6298 20.2715 64.1272 20.0662 62.6898 19.6555C61.2525 19.2262 60.0952 18.6755 59.2178 18.0035L60.7578 14.5875C61.5978 15.1849 62.5872 15.6795 63.7258 16.0715C64.8832 16.4449 66.0498 16.6315 67.2258 16.6315C68.1218 16.6315 68.8405 16.5475 69.3818 16.3795C69.9418 16.1929 70.3525 15.9409 70.6138 15.6235C70.8752 15.3062 71.0058 14.9422 71.0058 14.5315C71.0058 14.0089 70.8005 13.5982 70.3898 13.2995C69.9792 12.9822 69.4378 12.7302 68.7658 12.5435C68.0938 12.3382 67.3472 12.1515 66.5258 11.9835C65.7232 11.7969 64.9112 11.5729 64.0898 11.3115C63.2872 11.0502 62.5498 10.7142 61.8778 10.3035C61.2058 9.89288 60.6552 9.35155 60.2258 8.67955C59.8152 8.00755 59.6098 7.14888 59.6098 6.10355C59.6098 4.98355 59.9085 3.96621 60.5058 3.05155C61.1218 2.11821 62.0365 1.38088 63.2498 0.839546C64.4818 0.279546 66.0218 -0.000453472 67.8698 -0.000453472C69.1018 -0.000453472 70.3152 0.14888 71.5098 0.447546C72.7045 0.727545 73.7592 1.15688 74.6738 1.73555L73.2738 5.17955C72.3592 4.65688 71.4445 4.27421 70.5298 4.03155C69.6152 3.77021 68.7192 3.63955 67.8418 3.63955C66.9645 3.63955 66.2458 3.74221 65.6858 3.94755C65.1258 4.15288 64.7245 4.42355 64.4818 4.75955C64.2392 5.07688 64.1178 5.45021 64.1178 5.87955C64.1178 6.38355 64.3232 6.79421 64.7338 7.11155C65.1445 7.41021 65.6858 7.65288 66.3578 7.83955C67.0298 8.02621 67.7672 8.21288 68.5698 8.39955C69.3912 8.58621 70.2032 8.80088 71.0058 9.04355C71.8272 9.28621 72.5738 9.61288 73.2458 10.0235C73.9178 10.4342 74.4592 10.9755 74.8698 11.6475C75.2992 12.3195 75.5138 13.1689 75.5138 14.1955C75.5138 15.2969 75.2058 16.3049 74.5898 17.2195C73.9738 18.1342 73.0498 18.8715 71.8178 19.4315C70.6045 19.9915 69.0645 20.2715 67.1978 20.2715ZM88.1053 20.2715C86.5746 20.2715 85.1466 20.0195 83.8213 19.5155C82.5146 19.0115 81.376 18.3022 80.4053 17.3875C79.4533 16.4729 78.7066 15.3995 78.1653 14.1675C77.6426 12.9355 77.3813 11.5915 77.3813 10.1355C77.3813 8.67955 77.6426 7.33555 78.1653 6.10355C78.7066 4.87155 79.4626 3.79821 80.4333 2.88355C81.404 1.96888 82.5426 1.25955 83.8493 0.755545C85.156 0.251546 86.5746 -0.000453472 88.1053 -0.000453472C89.6546 -0.000453472 91.0733 0.251546 92.3613 0.755545C93.668 1.25955 94.7973 1.96888 95.7493 2.88355C96.72 3.77955 97.476 4.84355 98.0173 6.07555C98.5586 7.30755 98.8293 8.66088 98.8293 10.1355C98.8293 11.5915 98.5586 12.9449 98.0173 14.1955C97.476 15.4275 96.72 16.5009 95.7493 17.4155C94.7973 18.3115 93.668 19.0115 92.3613 19.5155C91.0733 20.0195 89.6546 20.2715 88.1053 20.2715ZM94.5173 24.4435C93.752 24.4435 93.024 24.3595 92.3333 24.1915C91.6613 24.0235 90.9893 23.7529 90.3173 23.3795C89.664 23.0062 88.9733 22.5022 88.2453 21.8675C87.536 21.2329 86.7613 20.4489 85.9213 19.5155L90.6813 18.3115C91.1853 19.0022 91.652 19.5529 92.0813 19.9635C92.5106 20.3742 92.9213 20.6635 93.3133 20.8315C93.724 20.9995 94.1533 21.0835 94.6013 21.0835C95.796 21.0835 96.86 20.5982 97.7933 19.6275L99.8093 22.0355C98.484 23.6409 96.72 24.4435 94.5173 24.4435ZM88.1053 16.4075C88.9826 16.4075 89.7853 16.2582 90.5133 15.9595C91.26 15.6609 91.9133 15.2315 92.4733 14.6715C93.0333 14.1115 93.4626 13.4489 93.7613 12.6835C94.0786 11.8995 94.2373 11.0502 94.2373 10.1355C94.2373 9.20221 94.0786 8.35288 93.7613 7.58755C93.4626 6.82221 93.0333 6.15955 92.4733 5.59955C91.9133 5.03955 91.26 4.61021 90.5133 4.31155C89.7853 4.01288 88.9826 3.86355 88.1053 3.86355C87.228 3.86355 86.416 4.01288 85.6693 4.31155C84.9226 4.61021 84.2693 5.03955 83.7093 5.59955C83.168 6.15955 82.7386 6.82221 82.4213 7.58755C82.1226 8.35288 81.9733 9.20221 81.9733 10.1355C81.9733 11.0502 82.1226 11.8995 82.4213 12.6835C82.7386 13.4489 83.168 14.1115 83.7093 14.6715C84.2693 15.2315 84.9226 15.6609 85.6693 15.9595C86.416 16.2582 87.228 16.4075 88.1053 16.4075ZM110.946 20.2715C108.165 20.2715 105.99 19.4969 104.422 17.9475C102.854 16.3982 102.07 14.1862 102.07 11.3115V0.335546H106.606V11.1435C106.606 13.0102 106.989 14.3542 107.754 15.1755C108.52 15.9969 109.593 16.4075 110.974 16.4075C112.356 16.4075 113.429 15.9969 114.194 15.1755C114.96 14.3542 115.342 13.0102 115.342 11.1435V0.335546H119.822V11.3115C119.822 14.1862 119.038 16.3982 117.47 17.9475C115.902 19.4969 113.728 20.2715 110.946 20.2715ZM121.319 19.9355L130.055 0.335546H134.535L143.299 19.9355H138.539L131.371 2.63155H133.163L125.967 19.9355H121.319ZM125.687 15.7355L126.891 12.2915H136.971L138.203 15.7355H125.687ZM145.332 19.9355V0.335546H153.816C155.571 0.335546 157.083 0.624879 158.352 1.20355C159.621 1.76355 160.601 2.57555 161.292 3.63955C161.983 4.70355 162.328 5.97288 162.328 7.44755C162.328 8.90355 161.983 10.1635 161.292 11.2275C160.601 12.2729 159.621 13.0755 158.352 13.6355C157.083 14.1955 155.571 14.4755 153.816 14.4755H147.852L149.868 12.4875V19.9355H145.332ZM157.792 19.9355L152.892 12.8235H157.736L162.692 19.9355H157.792ZM149.868 12.9915L147.852 10.8635H153.564C154.964 10.8635 156.009 10.5649 156.7 9.96755C157.391 9.35155 157.736 8.51155 157.736 7.44755C157.736 6.36488 157.391 5.52488 156.7 4.92755C156.009 4.33021 154.964 4.03155 153.564 4.03155H147.852L149.868 1.87555V12.9915ZM170.094 8.23155H179.53V11.7595H170.094V8.23155ZM170.43 16.2955H181.098V19.9355H165.922V0.335546H180.734V3.97555H170.43V16.2955ZM192.637 19.9355V0.335546H202.213C204.677 0.335546 206.525 0.802212 207.757 1.73555C209.007 2.66888 209.633 3.90088 209.633 5.43155C209.633 6.45821 209.381 7.35421 208.877 8.11955C208.373 8.86621 207.682 9.44488 206.805 9.85555C205.927 10.2662 204.919 10.4715 203.781 10.4715L204.313 9.32355C205.545 9.32355 206.637 9.52888 207.589 9.93955C208.541 10.3315 209.278 10.9195 209.801 11.7035C210.342 12.4875 210.613 13.4489 210.613 14.5875C210.613 16.2675 209.95 17.5835 208.625 18.5355C207.299 19.4689 205.349 19.9355 202.773 19.9355H192.637ZM197.145 16.5195H202.437C203.613 16.5195 204.499 16.3329 205.097 15.9595C205.713 15.5675 206.021 14.9515 206.021 14.1115C206.021 13.2902 205.713 12.6835 205.097 12.2915C204.499 11.8809 203.613 11.6755 202.437 11.6755H196.809V8.37155H201.653C202.754 8.37155 203.594 8.18488 204.173 7.81155C204.77 7.41955 205.069 6.83155 205.069 6.04755C205.069 5.28221 204.77 4.71288 204.173 4.33955C203.594 3.94755 202.754 3.75155 201.653 3.75155H197.145V16.5195ZM222.755 20.2715C219.974 20.2715 217.799 19.4969 216.231 17.9475C214.663 16.3982 213.879 14.1862 213.879 11.3115V0.335546H218.415V11.1435C218.415 13.0102 218.798 14.3542 219.563 15.1755C220.328 15.9969 221.402 16.4075 222.783 16.4075C224.164 16.4075 225.238 15.9969 226.003 15.1755C226.768 14.3542 227.151 13.0102 227.151 11.1435V0.335546H231.631V11.3115C231.631 14.1862 230.847 16.3982 229.279 17.9475C227.711 19.4969 225.536 20.2715 222.755 20.2715ZM245.493 20.2715C243.981 20.2715 242.572 20.0289 241.265 19.5435C239.977 19.0395 238.857 18.3302 237.905 17.4155C236.953 16.5009 236.207 15.4275 235.665 14.1955C235.143 12.9635 234.881 11.6102 234.881 10.1355C234.881 8.66088 235.143 7.30755 235.665 6.07555C236.207 4.84355 236.953 3.77021 237.905 2.85555C238.876 1.94088 240.005 1.24088 241.293 0.755545C242.581 0.251546 243.991 -0.000453472 245.521 -0.000453472C247.22 -0.000453472 248.751 0.298213 250.113 0.895547C251.495 1.47421 252.652 2.33288 253.585 3.47155L250.673 6.15955C250.001 5.39421 249.255 4.82488 248.433 4.45155C247.612 4.05955 246.716 3.86355 245.745 3.86355C244.831 3.86355 243.991 4.01288 243.225 4.31155C242.46 4.61021 241.797 5.03955 241.237 5.59955C240.677 6.15955 240.239 6.82221 239.921 7.58755C239.623 8.35288 239.473 9.20221 239.473 10.1355C239.473 11.0689 239.623 11.9182 239.921 12.6835C240.239 13.4489 240.677 14.1115 241.237 14.6715C241.797 15.2315 242.46 15.6609 243.225 15.9595C243.991 16.2582 244.831 16.4075 245.745 16.4075C246.716 16.4075 247.612 16.2209 248.433 15.8475C249.255 15.4555 250.001 14.8675 250.673 14.0835L253.585 16.7715C252.652 17.9102 251.495 18.7782 250.113 19.3755C248.751 19.9729 247.211 20.2715 245.493 20.2715ZM260.708 15.4555L260.456 10.2195L269.836 0.335546H274.876L266.42 9.43555L263.9 12.1235L260.708 15.4555ZM256.648 19.9355V0.335546H261.156V19.9355H256.648ZM270.06 19.9355L263.088 11.3955L266.056 8.17555L275.352 19.9355H270.06ZM281.547 8.23155H290.983V11.7595H281.547V8.23155ZM281.883 16.2955H292.551V19.9355H277.375V0.335546H292.187V3.97555H281.883V16.2955ZM300.22 19.9355V4.03155H293.948V0.335546H311.028V4.03155H304.756V19.9355H300.22Z" fill="black"/>
</svg>
