<svg width="32" height="34" viewBox="0 0 32 34" fill="none" xmlns="http://www.w3.org/2000/svg">
<g filter="url(#filter0_d_2792_23)">
<path d="M17.2188 6L11.2188 12H5.21875V20H11.2188L17.2188 26V6ZM20.435 7.72925L20.1437 8.81594C23.3979 9.68781 25.6562 12.6309 25.6562 16C25.6562 19.3691 23.3979 22.3121 20.1437 23.1841L20.435 24.2708C24.1756 23.2684 26.7812 19.8726 26.7812 16C26.7812 12.1273 24.1756 8.73156 20.435 7.72925ZM19.6584 10.6271L19.3673 11.7137C21.31 12.2342 22.6562 13.9889 22.6562 16C22.6562 18.0111 21.31 19.7657 19.3673 20.2862L19.6584 21.3729C22.0876 20.722 23.7812 18.5148 23.7812 16C23.7812 13.4852 22.0876 11.278 19.6584 10.6271ZM18.8819 13.5247L18.5909 14.6114C19.2219 14.7806 19.6562 15.3467 19.6562 16C19.6562 16.6533 19.2219 17.2194 18.5908 17.3886L18.8819 18.4753C19.9997 18.1758 20.7813 17.1571 20.7813 16C20.7813 14.8429 19.9997 13.8242 18.8819 13.5247Z" fill="white"/>
</g>
<defs>
<filter id="filter0_d_2792_23" x="-4" y="0" width="40" height="40" filterUnits="userSpaceOnUse" color-interpolation-filters="sRGB">
<feFlood flood-opacity="0" result="BackgroundImageFix"/>
<feColorMatrix in="SourceAlpha" type="matrix" values="0 0 0 0 0 0 0 0 0 0 0 0 0 0 0 0 0 0 127 0" result="hardAlpha"/>
<feOffset dy="4"/>
<feGaussianBlur stdDeviation="2"/>
<feComposite in2="hardAlpha" operator="out"/>
<feColorMatrix type="matrix" values="0 0 0 0 0 0 0 0 0 0 0 0 0 0 0 0 0 0 0.25 0"/>
<feBlend mode="normal" in2="BackgroundImageFix" result="effect1_dropShadow_2792_23"/>
<feBlend mode="normal" in="SourceGraphic" in2="effect1_dropShadow_2792_23" result="shape"/>
</filter>
</defs>
</svg>
