<svg width="32" height="32" viewBox="0 0 32 32" fill="none" xmlns="http://www.w3.org/2000/svg">
<g clip-path="url(#clip0_2792_17)">
<path d="M22.3349 8.32442C23.4263 8.90275 24.3817 9.76134 25.1242 10.8311C25.8667 11.9008 26.3755 13.1517 26.6096 14.4831C26.8438 15.8145 26.7967 17.1891 26.4723 18.4963C26.1478 19.8035 25.555 21.0067 24.7417 22.0091L25.6225 23C26.5762 21.839 27.2736 20.4418 27.6582 18.9213C28.0428 17.4008 28.1038 15.7997 27.8362 14.2478C27.5687 12.6959 26.9801 11.2366 26.1181 9.98809C25.2561 8.7396 24.145 7.73696 22.8746 7.06133C22.7272 6.98684 22.5599 6.97994 22.4081 7.04209C22.2563 7.10425 22.1321 7.23056 22.0618 7.39416C21.9915 7.55777 21.9807 7.74577 22.0317 7.91819C22.0827 8.0906 22.1915 8.23384 22.3349 8.31744V8.32442Z" fill="white"/>
<path d="M23.6861 22.6352L21.0017 19.9868L20.6033 19.5937L7.83852 7L6.84586 7.97246L10.7536 11.8278H6.69906C6.51366 11.8278 6.33585 11.9005 6.20475 12.0298C6.07365 12.1592 6 12.3346 6 12.5175V19.4144C6 19.5973 6.07365 19.7727 6.20475 19.902C6.33585 20.0314 6.51366 20.104 6.69906 20.104H10.7746L17.4226 25.8284C17.5235 25.9159 17.6478 25.9729 17.7807 25.9924C17.9136 26.012 18.0494 25.9934 18.1718 25.9388C18.2942 25.8843 18.3981 25.796 18.471 25.6847C18.544 25.5734 18.5828 25.4437 18.583 25.3112V19.5523L22.4907 23.4076C22.3719 23.4766 22.2531 23.5456 22.1342 23.6077C22.0521 23.6484 21.9788 23.7047 21.9187 23.7734C21.8586 23.8421 21.8128 23.9218 21.784 24.0079C21.7551 24.094 21.7437 24.185 21.7504 24.2754C21.7571 24.3659 21.7818 24.4542 21.8231 24.5353C21.8644 24.6163 21.9215 24.6886 21.9911 24.7479C22.0608 24.8072 22.1415 24.8524 22.2288 24.8809C22.3161 24.9094 22.4083 24.9206 22.5 24.914C22.5917 24.9073 22.6812 24.883 22.7634 24.8422C23.022 24.7112 23.2667 24.5663 23.5183 24.4146L25.0143 25.8905L26 24.9319L23.7281 22.6904L23.6861 22.6352Z" fill="white"/>
<path d="M20.3736 12.3466C21.0416 12.7386 21.5964 13.2991 21.9834 13.9726C22.3704 14.6462 22.5763 15.4096 22.5807 16.1876C22.5777 17.2098 22.2215 18.1992 21.573 18.9862L22.5807 20C23.4941 18.9422 23.998 17.5887 24 16.1876C23.9954 15.16 23.7246 14.1514 23.2144 13.2613C22.7041 12.3711 21.9721 11.6302 21.0904 11.1114C21.0096 11.0598 20.9193 11.0251 20.8248 11.0095C20.7304 10.9938 20.6338 10.9976 20.5408 11.0205C20.4479 11.0434 20.3605 11.085 20.2839 11.1428C20.2073 11.2005 20.1432 11.2733 20.0953 11.3567C20.0474 11.44 20.0167 11.5323 20.0052 11.6279C19.9936 11.7234 20.0014 11.8204 20.0281 11.9129C20.0548 12.0053 20.0998 12.0914 20.1604 12.166C20.221 12.2405 20.2959 12.3019 20.3807 12.3466H20.3736Z" fill="white"/>
<path d="M19 6.71755C18.9998 6.57948 18.9585 6.44438 18.8811 6.32843C18.8036 6.21247 18.6932 6.12057 18.5632 6.06372C18.4331 6.00688 18.2889 5.98749 18.1478 6.00788C18.0066 6.02827 17.8745 6.08758 17.7673 6.17871L13 10.2021L19 16V6.71755Z" fill="white"/>
</g>
<defs>
<clipPath id="clip0_2792_17">
<rect width="32" height="32" fill="white"/>
</clipPath>
</defs>
</svg>
