<svg width="40" height="40" viewBox="0 0 40 40" fill="none" xmlns="http://www.w3.org/2000/svg">
<path d="M18.7883 6.14509C18.6379 5.98597 18.5204 5.79879 18.4424 5.59425C18.3643 5.3897 18.3274 5.17179 18.3335 4.95295C18.3397 4.73411 18.389 4.51864 18.4784 4.31883C18.5679 4.11902 18.6958 3.93879 18.855 3.78842C19.0141 3.63806 19.2013 3.52051 19.4058 3.44248C19.6104 3.36446 19.8283 3.32748 20.0471 3.33367C20.2659 3.33987 20.4814 3.3891 20.6812 3.47856C20.881 3.56803 21.0613 3.69597 21.2116 3.85509L35.3783 18.8551C35.6709 19.1645 35.8339 19.5742 35.8339 20.0001C35.8339 20.4259 35.6709 20.8356 35.3783 21.1451L21.2116 36.1467C21.0623 36.3093 20.8821 36.4407 20.6815 36.533C20.481 36.6254 20.2641 36.677 20.0434 36.6848C19.8228 36.6927 19.6027 36.6566 19.3962 36.5787C19.1896 36.5008 19.0005 36.3826 18.84 36.231C18.6794 36.0794 18.5506 35.8974 18.461 35.6956C18.3714 35.4939 18.3228 35.2763 18.318 35.0555C18.3132 34.8348 18.3523 34.6153 18.433 34.4098C18.5137 34.2043 18.6345 34.0169 18.7883 33.8584L31.875 20.0001L18.7883 6.14509Z" fill="white"/>
</svg>
