<svg width="40" height="40" viewBox="0 0 40 40" fill="none" xmlns="http://www.w3.org/2000/svg">
<path d="M21.2116 6.14509C21.3619 5.98597 21.4795 5.79879 21.5575 5.59425C21.6355 5.3897 21.6725 5.17179 21.6663 4.95295C21.6601 4.73411 21.6109 4.51864 21.5214 4.31883C21.432 4.11902 21.304 3.93879 21.1449 3.78842C20.9858 3.63806 20.7986 3.52051 20.5941 3.44248C20.3895 3.36446 20.1716 3.32748 19.9528 3.33367C19.7339 3.33987 19.5185 3.3891 19.3187 3.47856C19.1188 3.56803 18.9386 3.69597 18.7882 3.85509L4.62159 18.8551C4.32903 19.1645 4.16602 19.5742 4.16602 20.0001C4.16602 20.4259 4.32903 20.8356 4.62159 21.1451L18.7882 36.1467C18.9376 36.3093 19.1178 36.4407 19.3184 36.533C19.5189 36.6254 19.7358 36.677 19.9565 36.6848C20.1771 36.6927 20.3971 36.6566 20.6037 36.5787C20.8103 36.5008 20.9994 36.3826 21.1599 36.231C21.3204 36.0794 21.4493 35.8974 21.5389 35.6956C21.6285 35.4939 21.6771 35.2763 21.6819 35.0555C21.6867 34.8348 21.6476 34.6153 21.5669 34.4098C21.4861 34.2043 21.3654 34.0169 21.2116 33.8584L8.12492 20.0001L21.2116 6.14509Z" fill="white"/>
</svg>
