<svg width="32" height="32" viewBox="0 0 32 32" fill="none" xmlns="http://www.w3.org/2000/svg">
<path d="M22.6666 29.3337C21.5555 29.3337 20.6111 28.9448 19.8333 28.167C19.0555 27.3892 18.6666 26.4448 18.6666 25.3337C18.6666 25.2003 18.7 24.8892 18.7666 24.4003L9.39996 18.9337C9.0444 19.267 8.63329 19.5283 8.16663 19.7177C7.69996 19.907 7.19996 20.0012 6.66663 20.0003C5.55552 20.0003 4.61107 19.6114 3.83329 18.8337C3.05551 18.0559 2.66663 17.1114 2.66663 16.0003C2.66663 14.8892 3.05551 13.9448 3.83329 13.167C4.61107 12.3892 5.55552 12.0003 6.66663 12.0003C7.19996 12.0003 7.69996 12.095 8.16663 12.2843C8.63329 12.4737 9.0444 12.7345 9.39996 13.067L18.7666 7.60033C18.7222 7.44477 18.6946 7.29499 18.684 7.15099C18.6733 7.00699 18.6675 6.84566 18.6666 6.66699C18.6666 5.55588 19.0555 4.61144 19.8333 3.83366C20.6111 3.05588 21.5555 2.66699 22.6666 2.66699C23.7777 2.66699 24.7222 3.05588 25.5 3.83366C26.2777 4.61144 26.6666 5.55588 26.6666 6.66699C26.6666 7.7781 26.2777 8.72255 25.5 9.50033C24.7222 10.2781 23.7777 10.667 22.6666 10.667C22.1333 10.667 21.6333 10.5723 21.1666 10.383C20.7 10.1937 20.2888 9.93277 19.9333 9.60032L10.5666 15.067C10.6111 15.2225 10.6391 15.3728 10.6506 15.5177C10.6622 15.6625 10.6675 15.8234 10.6666 16.0003C10.6657 16.1772 10.6604 16.3385 10.6506 16.4843C10.6408 16.6301 10.6128 16.7799 10.5666 16.9337L19.9333 22.4003C20.2888 22.067 20.7 21.8061 21.1666 21.6177C21.6333 21.4292 22.1333 21.3345 22.6666 21.3337C23.7777 21.3337 24.7222 21.7225 25.5 22.5003C26.2777 23.2781 26.6666 24.2225 26.6666 25.3337C26.6666 26.4448 26.2777 27.3892 25.5 28.167C24.7222 28.9448 23.7777 29.3337 22.6666 29.3337ZM22.6666 26.667C23.0444 26.667 23.3613 26.5394 23.6173 26.2843C23.8733 26.0292 24.0008 25.7123 24 25.3337C23.9991 24.955 23.8711 24.6385 23.616 24.3843C23.3608 24.1301 23.0444 24.0021 22.6666 24.0003C22.2888 23.9985 21.9724 24.1265 21.7173 24.3843C21.4622 24.6421 21.3342 24.9585 21.3333 25.3337C21.3324 25.7088 21.4604 26.0257 21.7173 26.2843C21.9742 26.543 22.2906 26.6705 22.6666 26.667ZM6.66663 17.3337C7.0444 17.3337 7.36129 17.2057 7.61729 16.9497C7.87329 16.6937 8.00085 16.3772 7.99996 16.0003C7.99907 15.6234 7.87107 15.307 7.61596 15.051C7.36085 14.795 7.0444 14.667 6.66663 14.667C6.28885 14.667 5.9724 14.795 5.71729 15.051C5.46218 15.307 5.33418 15.6234 5.33329 16.0003C5.3324 16.3772 5.4604 16.6941 5.71729 16.951C5.97418 17.2079 6.29063 17.3354 6.66663 17.3337ZM22.6666 8.00033C23.0444 8.00033 23.3613 7.87232 23.6173 7.61632C23.8733 7.36032 24.0008 7.04388 24 6.66699C23.9991 6.2901 23.8711 5.97366 23.616 5.71766C23.3608 5.46166 23.0444 5.33366 22.6666 5.33366C22.2888 5.33366 21.9724 5.46166 21.7173 5.71766C21.4622 5.97366 21.3342 6.2901 21.3333 6.66699C21.3324 7.04388 21.4604 7.36077 21.7173 7.61766C21.9742 7.87455 22.2906 8.0021 22.6666 8.00033Z" fill="black"/>
</svg>
