<svg width="32" height="32" viewBox="0 0 32 32" fill="none" xmlns="http://www.w3.org/2000/svg">
<path d="M28 28.0003L22.2094 22.2096M22.2094 22.2096C23.1999 21.2191 23.9856 20.0432 24.5217 18.749C25.0577 17.4548 25.3336 16.0677 25.3336 14.6669C25.3336 13.2661 25.0577 11.8791 24.5217 10.5849C23.9856 9.29071 23.1999 8.11479 22.2094 7.12427C21.2188 6.13376 20.0429 5.34804 18.7488 4.81197C17.4546 4.27591 16.0675 4 14.6667 4C13.2659 4 11.8788 4.27591 10.5846 4.81197C9.29046 5.34804 8.11455 6.13376 7.12403 7.12427C5.12359 9.12471 3.99976 11.8379 3.99976 14.6669C3.99976 17.496 5.12359 20.2092 7.12403 22.2096C9.12447 24.21 11.8376 25.3339 14.6667 25.3339C17.4957 25.3339 20.2089 24.21 22.2094 22.2096ZM14.6667 10.6669V18.6669M10.6667 14.6669H18.6667" stroke="white" stroke-width="1.5" stroke-linecap="round" stroke-linejoin="round"/>
</svg>
