<svg width="113" height="25" viewBox="0 0 113 25" fill="none" xmlns="http://www.w3.org/2000/svg">
<path d="M1.02475 23.7441V20.3841L9.66475 12.2241C10.3474 11.6055 10.8488 11.0508 11.1688 10.5601C11.4888 10.0695 11.7021 9.62147 11.8088 9.21614C11.9368 8.81081 12.0008 8.43747 12.0008 8.09614C12.0008 7.20014 11.6914 6.51747 11.0728 6.04814C10.4754 5.55747 9.59008 5.31214 8.41675 5.31214C7.47808 5.31214 6.60342 5.49347 5.79275 5.85614C5.00342 6.21881 4.33142 6.78414 3.77675 7.55214L0.000750002 5.12014C0.854083 3.84014 2.04875 2.82681 3.58475 2.08014C5.12075 1.33347 6.89142 0.96014 8.89675 0.96014C10.5608 0.96014 12.0114 1.23747 13.2488 1.79214C14.5074 2.32547 15.4781 3.08281 16.1608 4.06414C16.8648 5.04547 17.2168 6.21881 17.2168 7.58414C17.2168 8.30947 17.1208 9.03481 16.9288 9.76014C16.7581 10.4641 16.3954 11.2108 15.8408 12.0001C15.3074 12.7895 14.5181 13.6748 13.4728 14.6561L6.30475 21.4081L5.31275 19.5201H17.9528V23.7441H1.02475ZM29.6918 24.1281C27.8571 24.1281 26.2144 23.6801 24.7638 22.7841C23.3131 21.8668 22.1718 20.5441 21.3398 18.8161C20.5078 17.0881 20.0918 14.9975 20.0918 12.5441C20.0918 10.0908 20.5078 8.00014 21.3398 6.27214C22.1718 4.54414 23.3131 3.23214 24.7638 2.33614C26.2144 1.41881 27.8571 0.96014 29.6918 0.96014C31.5478 0.96014 33.1904 1.41881 34.6198 2.33614C36.0704 3.23214 37.2118 4.54414 38.0438 6.27214C38.8758 8.00014 39.2918 10.0908 39.2918 12.5441C39.2918 14.9975 38.8758 17.0881 38.0438 18.8161C37.2118 20.5441 36.0704 21.8668 34.6198 22.7841C33.1904 23.6801 31.5478 24.1281 29.6918 24.1281ZM29.6918 19.7441C30.5664 19.7441 31.3238 19.4988 31.9638 19.0081C32.6251 18.5175 33.1371 17.7388 33.4998 16.6721C33.8838 15.6055 34.0758 14.2295 34.0758 12.5441C34.0758 10.8588 33.8838 9.48281 33.4998 8.41614C33.1371 7.34947 32.6251 6.57081 31.9638 6.08014C31.3238 5.58947 30.5664 5.34414 29.6918 5.34414C28.8384 5.34414 28.0811 5.58947 27.4198 6.08014C26.7798 6.57081 26.2678 7.34947 25.8838 8.41614C25.5211 9.48281 25.3398 10.8588 25.3398 12.5441C25.3398 14.2295 25.5211 15.6055 25.8838 16.6721C26.2678 17.7388 26.7798 18.5175 27.4198 19.0081C28.0811 19.4988 28.8384 19.7441 29.6918 19.7441ZM51.4105 24.1281C49.5758 24.1281 47.9332 23.6801 46.4825 22.7841C45.0318 21.8668 43.8905 20.5441 43.0585 18.8161C42.2265 17.0881 41.8105 14.9975 41.8105 12.5441C41.8105 10.0908 42.2265 8.00014 43.0585 6.27214C43.8905 4.54414 45.0318 3.23214 46.4825 2.33614C47.9332 1.41881 49.5758 0.96014 51.4105 0.96014C53.2665 0.96014 54.9092 1.41881 56.3385 2.33614C57.7892 3.23214 58.9305 4.54414 59.7625 6.27214C60.5945 8.00014 61.0105 10.0908 61.0105 12.5441C61.0105 14.9975 60.5945 17.0881 59.7625 18.8161C58.9305 20.5441 57.7892 21.8668 56.3385 22.7841C54.9092 23.6801 53.2665 24.1281 51.4105 24.1281ZM51.4105 19.7441C52.2852 19.7441 53.0425 19.4988 53.6825 19.0081C54.3438 18.5175 54.8558 17.7388 55.2185 16.6721C55.6025 15.6055 55.7945 14.2295 55.7945 12.5441C55.7945 10.8588 55.6025 9.48281 55.2185 8.41614C54.8558 7.34947 54.3438 6.57081 53.6825 6.08014C53.0425 5.58947 52.2852 5.34414 51.4105 5.34414C50.5572 5.34414 49.7998 5.58947 49.1385 6.08014C48.4985 6.57081 47.9865 7.34947 47.6025 8.41614C47.2398 9.48281 47.0585 10.8588 47.0585 12.5441C47.0585 14.2295 47.2398 15.6055 47.6025 16.6721C47.9865 17.7388 48.4985 18.5175 49.1385 19.0081C49.7998 19.4988 50.5572 19.7441 51.4105 19.7441ZM95.6958 6.27214C97.0611 6.27214 98.2664 6.54947 99.3118 7.10414C100.378 7.63747 101.21 8.46947 101.808 9.60014C102.426 10.7095 102.736 12.1388 102.736 13.8881V23.7441H97.7438V14.6561C97.7438 13.2695 97.4558 12.2455 96.8798 11.5841C96.3038 10.9228 95.4931 10.5921 94.4478 10.5921C93.7224 10.5921 93.0718 10.7628 92.4958 11.1041C91.9198 11.4241 91.4718 11.9148 91.1518 12.5761C90.8318 13.2375 90.6718 14.0801 90.6718 15.1041V23.7441H85.6798V14.6561C85.6798 13.2695 85.3918 12.2455 84.8158 11.5841C84.2611 10.9228 83.4611 10.5921 82.4158 10.5921C81.6904 10.5921 81.0398 10.7628 80.4638 11.1041C79.8878 11.4241 79.4398 11.9148 79.1198 12.5761C78.7998 13.2375 78.6398 14.0801 78.6398 15.1041V23.7441H73.6478V6.52814H78.4158V11.2321L77.5198 9.85614C78.1171 8.68281 78.9598 7.79747 80.0478 7.20014C81.1571 6.58147 82.4158 6.27214 83.8238 6.27214C85.4024 6.27214 86.7784 6.67747 87.9518 7.48814C89.1464 8.27747 89.9358 9.49347 90.3198 11.1361L88.5598 10.6561C89.1358 9.31214 90.0531 8.24547 91.3118 7.45614C92.5918 6.66681 94.0531 6.27214 95.6958 6.27214ZM107.21 23.7441V0.000139236H112.202V23.7441H107.21Z" fill="black"/>
</svg>
