<svg width="75" height="33" viewBox="0 0 75 33" fill="none" xmlns="http://www.w3.org/2000/svg">
<path d="M21.1945 28.1945C21.3018 28.0871 21.3018 27.9129 21.1945 27.8055L19.4444 26.0555C19.337 25.9481 19.1629 25.9481 19.0555 26.0555C18.9481 26.1629 18.9481 26.337 19.0555 26.4444L20.6111 28L19.0555 29.5556C18.9481 29.663 18.9481 29.8371 19.0555 29.9445C19.1629 30.0519 19.337 30.0519 19.4444 29.9445L21.1945 28.1945ZM5.80555 27.8055C5.69815 27.9129 5.69815 28.0871 5.80555 28.1945L7.55563 29.9445C7.66303 30.0519 7.83715 30.0519 7.94454 29.9445C8.05194 29.8371 8.05194 29.663 7.94454 29.5556L6.38891 28L7.94454 26.4444C8.05194 26.337 8.05194 26.1629 7.94454 26.0555C7.83715 25.9481 7.66303 25.9481 7.55563 26.0555L5.80555 27.8055ZM21 28V27.725L6 27.725V28V28.275L21 28.275V28Z" fill="black"/>
<path d="M17.5633 22.8094C17.7157 21.2034 19.315 8.91797 19.315 8.91797C15.1648 9.69714 12.8113 9.65407 8.57617 8.99827C8.57617 8.99827 10.0234 20.9625 10.3279 22.8094C10.6325 24.6562 17.4109 24.4153 17.5633 22.8094Z" stroke="black" stroke-width="0.55"/>
<path d="M18.5 8C18.5511 8.05114 19.736 7.88861 19.736 8.0727C19.8894 8.14941 20 8.30282 20 8.45623C20 8.57896 19.5398 8.76306 19.3096 8.83976C17.7244 9.3 13.3573 9.95967 8.57082 8.91647C8.264 8.79374 8.08502 8.55851 8.03388 8.45623C8.00831 8.37953 7.97252 8.21077 8.03388 8.14941C8.09525 8.08804 8.16171 8.02157 8.18727 7.996L8.34068 7.61247C8.31511 7.5869 9.25454 8 9.5 8" stroke="black" stroke-width="0.55"/>
<path d="M14.9014 7.27539C15.4053 7.27539 16.5645 7.2977 17.5938 7.4043C18.1106 7.45782 18.5802 7.53143 18.915 7.62891C19.0844 7.67821 19.2006 7.72827 19.2686 7.77344C19.2758 7.77824 19.2809 7.78417 19.2861 7.78809C19.2681 7.8069 19.2348 7.8366 19.1709 7.87305C19.0288 7.95413 18.8061 8.03358 18.5088 8.10742C17.9183 8.25407 17.104 8.36045 16.2314 8.43066C14.4855 8.57115 12.5682 8.56602 11.8633 8.49121C11.3674 8.43856 10.5156 8.30883 9.78223 8.13574C9.41436 8.04891 9.08758 7.95315 8.85254 7.85547C8.79008 7.8295 8.73748 7.80433 8.69434 7.78125C8.82094 7.73101 9.00602 7.68117 9.24512 7.63477C9.76728 7.53344 10.4831 7.45907 11.2412 7.40527C12.7545 7.2979 14.3968 7.27539 14.9014 7.27539Z" stroke="black" stroke-width="0.55"/>
<path d="M33.924 12.2773V3.81734H37.62C38.508 3.81734 39.196 4.01334 39.684 4.40534C40.172 4.78934 40.416 5.32534 40.416 6.01334C40.416 6.52534 40.268 6.95734 39.972 7.30934C39.676 7.66134 39.272 7.89734 38.76 8.01734V7.83734C39.152 7.89334 39.488 8.01334 39.768 8.19734C40.048 8.38134 40.26 8.61734 40.404 8.90534C40.556 9.19334 40.632 9.52934 40.632 9.91334C40.632 10.4093 40.516 10.8373 40.284 11.1973C40.06 11.5493 39.732 11.8173 39.3 12.0013C38.868 12.1853 38.352 12.2773 37.752 12.2773H33.924ZM35.4 11.1133H37.56C37.776 11.1133 37.968 11.0973 38.136 11.0653C38.312 11.0333 38.46 10.9853 38.58 10.9213C38.708 10.8493 38.812 10.7613 38.892 10.6573C38.98 10.5533 39.044 10.4333 39.084 10.2973C39.124 10.1613 39.144 10.0093 39.144 9.84134C39.144 9.66534 39.124 9.50934 39.084 9.37334C39.044 9.23734 38.98 9.12134 38.892 9.02534C38.812 8.92134 38.708 8.83734 38.58 8.77334C38.46 8.70134 38.312 8.64934 38.136 8.61734C37.968 8.58534 37.776 8.56934 37.56 8.56934H35.4V11.1133ZM35.4 7.40534H37.356C37.884 7.40534 38.276 7.30534 38.532 7.10534C38.796 6.89734 38.928 6.59334 38.928 6.19334C38.928 5.79334 38.796 5.49334 38.532 5.29334C38.276 5.08534 37.884 4.98134 37.356 4.98134H35.4V7.40534ZM44.7177 12.3973C44.1097 12.3973 43.5817 12.2733 43.1337 12.0253C42.6857 11.7773 42.3377 11.4253 42.0897 10.9693C41.8417 10.5053 41.7177 9.96134 41.7177 9.33734C41.7177 8.71334 41.8417 8.17334 42.0897 7.71734C42.3377 7.26134 42.6857 6.90934 43.1337 6.66134C43.5817 6.41334 44.1097 6.28934 44.7177 6.28934C45.3257 6.28934 45.8537 6.41334 46.3017 6.66134C46.7497 6.90934 47.0977 7.26134 47.3457 7.71734C47.5937 8.17334 47.7177 8.71334 47.7177 9.33734C47.7177 9.96134 47.5937 10.5053 47.3457 10.9693C47.0977 11.4253 46.7497 11.7773 46.3017 12.0253C45.8537 12.2733 45.3257 12.3973 44.7177 12.3973ZM44.7177 11.2573C45.1657 11.2573 45.5257 11.0973 45.7977 10.7773C46.0697 10.4493 46.2057 9.96934 46.2057 9.33734C46.2057 8.69734 46.0697 8.22134 45.7977 7.90934C45.5257 7.58934 45.1657 7.42934 44.7177 7.42934C44.2697 7.42934 43.9097 7.58934 43.6377 7.90934C43.3657 8.22134 43.2297 8.69734 43.2297 9.33734C43.2297 9.96934 43.3657 10.4493 43.6377 10.7773C43.9097 11.0973 44.2697 11.2573 44.7177 11.2573ZM51.5852 12.3973C50.8012 12.3973 50.2172 12.2013 49.8332 11.8093C49.4492 11.4173 49.2572 10.8453 49.2572 10.0933V7.53734H48.1292V6.40934H49.2572V4.65734H50.7572V6.40934H52.5332V7.53734H50.7572V10.0093C50.7572 10.3933 50.8412 10.6813 51.0092 10.8733C51.1772 11.0653 51.4492 11.1613 51.8252 11.1613C51.9372 11.1613 52.0532 11.1493 52.1732 11.1253C52.2932 11.0933 52.4172 11.0613 52.5452 11.0293L52.7732 12.1333C52.6292 12.2133 52.4452 12.2773 52.2212 12.3253C52.0052 12.3733 51.7932 12.3973 51.5852 12.3973ZM55.8508 12.3973C55.0668 12.3973 54.4828 12.2013 54.0988 11.8093C53.7148 11.4173 53.5228 10.8453 53.5228 10.0933V7.53734H52.3948V6.40934H53.5228V4.65734H55.0228V6.40934H56.7988V7.53734H55.0228V10.0093C55.0228 10.3933 55.1068 10.6813 55.2748 10.8733C55.4428 11.0653 55.7148 11.1613 56.0908 11.1613C56.2028 11.1613 56.3188 11.1493 56.4388 11.1253C56.5588 11.0933 56.6828 11.0613 56.8108 11.0293L57.0388 12.1333C56.8948 12.2133 56.7108 12.2773 56.4868 12.3253C56.2708 12.3733 56.0588 12.3973 55.8508 12.3973ZM60.3857 12.3973C59.7777 12.3973 59.2497 12.2733 58.8017 12.0253C58.3537 11.7773 58.0057 11.4253 57.7577 10.9693C57.5097 10.5053 57.3857 9.96134 57.3857 9.33734C57.3857 8.71334 57.5097 8.17334 57.7577 7.71734C58.0057 7.26134 58.3537 6.90934 58.8017 6.66134C59.2497 6.41334 59.7777 6.28934 60.3857 6.28934C60.9937 6.28934 61.5217 6.41334 61.9697 6.66134C62.4177 6.90934 62.7657 7.26134 63.0137 7.71734C63.2617 8.17334 63.3857 8.71334 63.3857 9.33734C63.3857 9.96134 63.2617 10.5053 63.0137 10.9693C62.7657 11.4253 62.4177 11.7773 61.9697 12.0253C61.5217 12.2733 60.9937 12.3973 60.3857 12.3973ZM60.3857 11.2573C60.8337 11.2573 61.1937 11.0973 61.4657 10.7773C61.7377 10.4493 61.8737 9.96934 61.8737 9.33734C61.8737 8.69734 61.7377 8.22134 61.4657 7.90934C61.1937 7.58934 60.8337 7.42934 60.3857 7.42934C59.9377 7.42934 59.5777 7.58934 59.3057 7.90934C59.0337 8.22134 58.8977 8.69734 58.8977 9.33734C58.8977 9.96934 59.0337 10.4493 59.3057 10.7773C59.5777 11.0973 59.9377 11.2573 60.3857 11.2573ZM64.6478 12.2773V6.40934H66.1118V7.58534H65.9798C66.0838 7.31334 66.2278 7.08134 66.4118 6.88934C66.5958 6.69734 66.8158 6.54934 67.0718 6.44534C67.3278 6.34134 67.6118 6.28934 67.9238 6.28934C68.3958 6.28934 68.7838 6.40134 69.0878 6.62534C69.3918 6.84934 69.6038 7.19334 69.7238 7.65734H69.5558C69.7158 7.23334 69.9798 6.90134 70.3478 6.66134C70.7158 6.41334 71.1398 6.28934 71.6198 6.28934C72.0678 6.28934 72.4358 6.37734 72.7238 6.55334C73.0198 6.72934 73.2398 6.99734 73.3838 7.35734C73.5278 7.70934 73.5998 8.15734 73.5998 8.70134V12.2773H72.0998V8.76134C72.0998 8.31334 72.0238 7.98534 71.8718 7.77734C71.7278 7.56934 71.4798 7.46534 71.1278 7.46534C70.8718 7.46534 70.6478 7.52934 70.4557 7.65734C70.2638 7.77734 70.1158 7.95334 70.0117 8.18534C69.9158 8.41734 69.8678 8.69734 69.8678 9.02534V12.2773H68.3678V8.76134C68.3678 8.31334 68.2918 7.98534 68.1398 7.77734C67.9958 7.56934 67.7518 7.46534 67.4078 7.46534C67.1438 7.46534 66.9158 7.52934 66.7238 7.65734C66.5398 7.77734 66.3958 7.95334 66.2918 8.18534C66.1958 8.41734 66.1478 8.69734 66.1478 9.02534V12.2773H64.6478Z" fill="#CF4747"/>
<path d="M36.79 28.7227V27.2327H33.52V26.5927L36.84 21.6727H37.63V26.5127H38.64V27.2327H37.63V28.7227H36.79ZM36.8 26.5127V22.7227H36.95L34.26 26.7027L34.22 26.5127H36.8ZM41.9061 28.8127C41.6061 28.8127 41.3094 28.7827 41.0161 28.7227C40.7294 28.656 40.4561 28.5627 40.1961 28.4427C39.9428 28.316 39.7161 28.1593 39.5161 27.9727L39.8361 27.3027C40.1561 27.5693 40.4861 27.7627 40.8261 27.8827C41.1661 28.0027 41.5228 28.0627 41.8961 28.0627C42.2161 28.0627 42.4928 28.016 42.7261 27.9227C42.9594 27.8227 43.1394 27.6793 43.2661 27.4927C43.3994 27.2993 43.4661 27.0593 43.4661 26.7727C43.4661 26.3593 43.3294 26.046 43.0561 25.8327C42.7828 25.6193 42.3828 25.5127 41.8561 25.5127H40.8061V24.7827H41.7561C42.0628 24.7827 42.3294 24.7327 42.5561 24.6327C42.7828 24.526 42.9594 24.376 43.0861 24.1827C43.2128 23.9827 43.2761 23.7427 43.2761 23.4627C43.2761 23.0893 43.1528 22.8093 42.9061 22.6227C42.6594 22.4293 42.3228 22.3327 41.8961 22.3327C41.5361 22.3327 41.1928 22.396 40.8661 22.5227C40.5394 22.6493 40.2361 22.856 39.9561 23.1427L39.6361 22.4727C39.9094 22.186 40.2494 21.966 40.6561 21.8127C41.0694 21.6593 41.4961 21.5827 41.9361 21.5827C42.3894 21.5827 42.7761 21.656 43.0961 21.8027C43.4228 21.9427 43.6728 22.1493 43.8461 22.4227C44.0261 22.6893 44.1161 23.0127 44.1161 23.3927C44.1161 23.8127 43.9994 24.176 43.7661 24.4827C43.5328 24.7893 43.2161 25.0027 42.8161 25.1227V25.0627C43.1228 25.116 43.3861 25.2227 43.6061 25.3827C43.8261 25.536 43.9961 25.7327 44.1161 25.9727C44.2428 26.2127 44.3061 26.4927 44.3061 26.8127C44.3061 27.226 44.2061 27.5827 44.0061 27.8827C43.8128 28.1827 43.5361 28.4127 43.1761 28.5727C42.8161 28.7327 42.3928 28.8127 41.9061 28.8127ZM45.6622 28.7227V27.6627H46.7522V28.7227H45.6622ZM50.5438 28.8127C50.2372 28.8127 49.9405 28.7793 49.6538 28.7127C49.3672 28.646 49.1005 28.5493 48.8538 28.4227C48.6072 28.296 48.3872 28.1427 48.1938 27.9627L48.5238 27.2827C48.8372 27.5493 49.1572 27.746 49.4838 27.8727C49.8105 27.9993 50.1605 28.0627 50.5338 28.0627C51.0272 28.0627 51.4105 27.9293 51.6838 27.6627C51.9638 27.396 52.1038 27.036 52.1038 26.5827C52.1038 26.1227 51.9705 25.7493 51.7038 25.4627C51.4438 25.176 51.0838 25.0327 50.6238 25.0327C50.2972 25.0327 50.0072 25.0993 49.7538 25.2327C49.5005 25.3593 49.2705 25.5693 49.0638 25.8627H48.4138V21.6727H52.5638V22.4127H49.2238V25.1327H49.0838C49.2572 24.8793 49.4872 24.6793 49.7738 24.5327C50.0672 24.3793 50.3972 24.3027 50.7638 24.3027C51.2105 24.3027 51.5972 24.396 51.9238 24.5827C52.2505 24.7693 52.5005 25.0293 52.6738 25.3627C52.8538 25.696 52.9438 26.086 52.9438 26.5327C52.9438 26.9927 52.8438 27.3927 52.6438 27.7327C52.4505 28.0727 52.1738 28.3393 51.8138 28.5327C51.4605 28.7193 51.0372 28.8127 50.5438 28.8127ZM56.9357 28.7227V23.8227H57.7457V24.9027H57.6857C57.7724 24.6693 57.8924 24.466 58.0457 24.2927C58.2057 24.1127 58.3957 23.976 58.6157 23.8827C58.8357 23.7827 59.079 23.7327 59.3457 23.7327C59.7657 23.7327 60.109 23.836 60.3757 24.0427C60.6424 24.2493 60.8157 24.5393 60.8957 24.9127H60.8157C60.9424 24.566 61.1557 24.2827 61.4557 24.0627C61.7557 23.8427 62.119 23.7327 62.5457 23.7327C62.919 23.7327 63.229 23.806 63.4757 23.9527C63.7224 24.0927 63.909 24.306 64.0357 24.5927C64.1624 24.8793 64.2257 25.2427 64.2257 25.6827V28.7227H63.3857V25.7327C63.3857 25.2993 63.3057 24.976 63.1457 24.7627C62.9924 24.5493 62.7257 24.4427 62.3457 24.4427C62.0724 24.4427 61.8324 24.5093 61.6257 24.6427C61.4257 24.7693 61.2724 24.946 61.1657 25.1727C61.059 25.3993 61.0057 25.666 61.0057 25.9727V28.7227H60.1557V25.7327C60.1557 25.2993 60.0724 24.976 59.9057 24.7627C59.7457 24.5493 59.4857 24.4427 59.1257 24.4427C58.8524 24.4427 58.6124 24.5093 58.4057 24.6427C58.2057 24.776 58.0524 24.9593 57.9457 25.1927C57.839 25.4193 57.7857 25.6727 57.7857 25.9527V28.7227H56.9357ZM65.881 28.7227V23.8227H66.691V24.9027H66.631C66.7177 24.6693 66.8377 24.466 66.991 24.2927C67.151 24.1127 67.341 23.976 67.561 23.8827C67.781 23.7827 68.0243 23.7327 68.291 23.7327C68.711 23.7327 69.0543 23.836 69.321 24.0427C69.5877 24.2493 69.761 24.5393 69.841 24.9127H69.761C69.8877 24.566 70.101 24.2827 70.401 24.0627C70.701 23.8427 71.0643 23.7327 71.491 23.7327C71.8643 23.7327 72.1743 23.806 72.421 23.9527C72.6677 24.0927 72.8543 24.306 72.981 24.5927C73.1077 24.8793 73.171 25.2427 73.171 25.6827V28.7227H72.331V25.7327C72.331 25.2993 72.251 24.976 72.091 24.7627C71.9377 24.5493 71.671 24.4427 71.291 24.4427C71.0177 24.4427 70.7777 24.5093 70.571 24.6427C70.371 24.7693 70.2177 24.946 70.111 25.1727C70.0043 25.3993 69.951 25.666 69.951 25.9727V28.7227H69.101V25.7327C69.101 25.2993 69.0177 24.976 68.851 24.7627C68.691 24.5493 68.431 24.4427 68.071 24.4427C67.7977 24.4427 67.5577 24.5093 67.351 24.6427C67.151 24.776 66.9977 24.9593 66.891 25.1927C66.7843 25.4193 66.731 25.6727 66.731 25.9527V28.7227H65.881Z" fill="black"/>
</svg>
