<svg width="170" height="41" viewBox="0 0 170 41" fill="none" xmlns="http://www.w3.org/2000/svg">
<path d="M4.4105 8.41515C3.82383 8.41515 3.28117 8.31982 2.7825 8.12915C2.29117 7.93115 1.86217 7.65615 1.4955 7.30415C1.13617 6.94482 0.853833 6.52682 0.6485 6.05015C0.443167 5.57348 0.3405 5.04915 0.3405 4.47715C0.3405 3.90515 0.443167 3.38081 0.6485 2.90415C0.853833 2.42748 1.13983 2.01315 1.5065 1.66115C1.87317 1.30181 2.30217 1.02681 2.7935 0.836148C3.29217 0.638148 3.83483 0.539148 4.4215 0.539148C5.0155 0.539148 5.56183 0.641815 6.0605 0.847148C6.5665 1.04515 6.9955 1.34215 7.3475 1.73815L6.6325 2.43115C6.33917 2.12315 6.00917 1.89581 5.6425 1.74915C5.27583 1.59515 4.8835 1.51815 4.4655 1.51815C4.03283 1.51815 3.6295 1.59148 3.2555 1.73815C2.88883 1.88481 2.56983 2.09015 2.2985 2.35415C2.02717 2.61815 1.8145 2.93348 1.6605 3.30015C1.51383 3.65948 1.4405 4.05181 1.4405 4.47715C1.4405 4.90248 1.51383 5.29848 1.6605 5.66515C1.8145 6.02448 2.02717 6.33615 2.2985 6.60015C2.56983 6.86415 2.88883 7.06948 3.2555 7.21615C3.6295 7.36282 4.03283 7.43615 4.4655 7.43615C4.8835 7.43615 5.27583 7.36282 5.6425 7.21615C6.00917 7.06215 6.33917 6.82748 6.6325 6.51215L7.3475 7.20515C6.9955 7.60115 6.5665 7.90182 6.0605 8.10715C5.56183 8.31248 5.01183 8.41515 4.4105 8.41515ZM11.0126 8.39315C10.426 8.39315 9.90532 8.26482 9.45065 8.00815C8.99598 7.75148 8.63665 7.39948 8.37265 6.95215C8.10865 6.49748 7.97665 5.98415 7.97665 5.41215C7.97665 4.83281 8.10865 4.31948 8.37265 3.87215C8.63665 3.42481 8.99598 3.07648 9.45065 2.82715C9.90532 2.57048 10.426 2.44215 11.0126 2.44215C11.592 2.44215 12.109 2.57048 12.5636 2.82715C13.0256 3.07648 13.385 3.42481 13.6416 3.87215C13.9056 4.31215 14.0376 4.82548 14.0376 5.41215C14.0376 5.99148 13.9056 6.50482 13.6416 6.95215C13.385 7.39948 13.0256 7.75148 12.5636 8.00815C12.109 8.26482 11.592 8.39315 11.0126 8.39315ZM11.0126 7.46915C11.3866 7.46915 11.7203 7.38482 12.0136 7.21615C12.3143 7.04748 12.549 6.80915 12.7176 6.50115C12.8863 6.18582 12.9706 5.82282 12.9706 5.41215C12.9706 4.99415 12.8863 4.63481 12.7176 4.33415C12.549 4.02615 12.3143 3.78781 12.0136 3.61915C11.7203 3.45048 11.3866 3.36615 11.0126 3.36615C10.6386 3.36615 10.305 3.45048 10.0116 3.61915C9.71832 3.78781 9.48365 4.02615 9.30765 4.33415C9.13165 4.63481 9.04365 4.99415 9.04365 5.41215C9.04365 5.82282 9.13165 6.18582 9.30765 6.50115C9.48365 6.80915 9.71832 7.04748 10.0116 7.21615C10.305 7.38482 10.6386 7.46915 11.0126 7.46915ZM22.7911 2.44215C23.2604 2.44215 23.6747 2.53381 24.0341 2.71715C24.3934 2.90048 24.6721 3.17915 24.8701 3.55315C25.0754 3.92715 25.1781 4.40015 25.1781 4.97215V8.32715H24.1221V5.09315C24.1221 4.52848 23.9901 4.10315 23.7261 3.81715C23.4621 3.53115 23.0917 3.38815 22.6151 3.38815C22.2631 3.38815 21.9551 3.46148 21.6911 3.60815C21.4271 3.75481 21.2217 3.97115 21.0751 4.25715C20.9357 4.54315 20.8661 4.89881 20.8661 5.32415V8.32715H19.8101V5.09315C19.8101 4.52848 19.6781 4.10315 19.4141 3.81715C19.1574 3.53115 18.7871 3.38815 18.3031 3.38815C17.9584 3.38815 17.6541 3.46148 17.3901 3.60815C17.1261 3.75481 16.9207 3.97115 16.7741 4.25715C16.6274 4.54315 16.5541 4.89881 16.5541 5.32415V8.32715H15.4981V2.49715H16.5101V4.04815L16.3451 3.65215C16.5284 3.27081 16.8107 2.97381 17.1921 2.76115C17.5734 2.54848 18.0171 2.44215 18.5231 2.44215C19.0804 2.44215 19.5607 2.58148 19.9641 2.86015C20.3674 3.13148 20.6314 3.54582 20.7561 4.10315L20.3271 3.92715C20.5031 3.47981 20.8111 3.12048 21.2511 2.84915C21.6911 2.57781 22.2044 2.44215 22.7911 2.44215ZM30.2121 8.39315C29.7281 8.39315 29.2845 8.28315 28.8811 8.06315C28.4851 7.83582 28.1661 7.50215 27.9241 7.06215C27.6895 6.62215 27.5721 6.07215 27.5721 5.41215C27.5721 4.75215 27.6858 4.20215 27.9131 3.76215C28.1478 3.32215 28.4631 2.99215 28.8591 2.77215C29.2625 2.55215 29.7135 2.44215 30.2121 2.44215C30.7841 2.44215 31.2901 2.56681 31.7301 2.81615C32.1701 3.06548 32.5185 3.41381 32.7751 3.86115C33.0318 4.30115 33.1601 4.81815 33.1601 5.41215C33.1601 6.00615 33.0318 6.52681 32.7751 6.97415C32.5185 7.42148 32.1701 7.76982 31.7301 8.01915C31.2901 8.26848 30.7841 8.39315 30.2121 8.39315ZM27.1211 10.4611V2.49715H28.1331V4.07015L28.0671 5.42315L28.1771 6.77615V10.4611H27.1211ZM30.1241 7.46915C30.4981 7.46915 30.8318 7.38482 31.1251 7.21615C31.4258 7.04748 31.6605 6.80915 31.8291 6.50115C32.0051 6.18582 32.0931 5.82282 32.0931 5.41215C32.0931 4.99415 32.0051 4.63481 31.8291 4.33415C31.6605 4.02615 31.4258 3.78781 31.1251 3.61915C30.8318 3.45048 30.4981 3.36615 30.1241 3.36615C29.7575 3.36615 29.4238 3.45048 29.1231 3.61915C28.8298 3.78781 28.5951 4.02615 28.4191 4.33415C28.2505 4.63481 28.1661 4.99415 28.1661 5.41215C28.1661 5.82282 28.2505 6.18582 28.4191 6.50115C28.5951 6.80915 28.8298 7.04748 29.1231 7.21615C29.4238 7.38482 29.7575 7.46915 30.1241 7.46915ZM38.1845 8.32715V7.09515L38.1295 6.86415V4.76315C38.1295 4.31581 37.9975 3.97115 37.7335 3.72915C37.4768 3.47981 37.0881 3.35515 36.5675 3.35515C36.2228 3.35515 35.8855 3.41381 35.5555 3.53115C35.2255 3.64115 34.9468 3.79148 34.7195 3.98215L34.2795 3.19015C34.5801 2.94815 34.9395 2.76482 35.3575 2.64015C35.7828 2.50815 36.2265 2.44215 36.6885 2.44215C37.4878 2.44215 38.1038 2.63648 38.5365 3.02515C38.9691 3.41381 39.1855 4.00781 39.1855 4.80715V8.32715H38.1845ZM36.2705 8.39315C35.8378 8.39315 35.4565 8.31982 35.1265 8.17315C34.8038 8.02648 34.5545 7.82482 34.3785 7.56815C34.2025 7.30415 34.1145 7.00715 34.1145 6.67715C34.1145 6.36182 34.1878 6.07582 34.3345 5.81915C34.4885 5.56248 34.7341 5.35715 35.0715 5.20315C35.4161 5.04915 35.8781 4.97215 36.4575 4.97215H38.3055V5.73115H36.5015C35.9735 5.73115 35.6178 5.81915 35.4345 5.99515C35.2511 6.17115 35.1595 6.38381 35.1595 6.63315C35.1595 6.91915 35.2731 7.15015 35.5005 7.32615C35.7278 7.49482 36.0431 7.57915 36.4465 7.57915C36.8425 7.57915 37.1871 7.49115 37.4805 7.31515C37.7811 7.13915 37.9975 6.88248 38.1295 6.54515L38.3385 7.27115C38.1991 7.61582 37.9535 7.89082 37.6015 8.09615C37.2495 8.29415 36.8058 8.39315 36.2705 8.39315ZM43.6807 8.39315C43.0867 8.39315 42.555 8.26482 42.0857 8.00815C41.6237 7.75148 41.2607 7.39948 40.9967 6.95215C40.7327 6.50482 40.6007 5.99148 40.6007 5.41215C40.6007 4.83281 40.7327 4.31948 40.9967 3.87215C41.2607 3.42481 41.6237 3.07648 42.0857 2.82715C42.555 2.57048 43.0867 2.44215 43.6807 2.44215C44.2087 2.44215 44.678 2.54848 45.0887 2.76115C45.5067 2.96648 45.8293 3.27448 46.0567 3.68515L45.2537 4.20215C45.063 3.91615 44.8283 3.70715 44.5497 3.57515C44.2783 3.43581 43.985 3.36615 43.6697 3.36615C43.2883 3.36615 42.9473 3.45048 42.6467 3.61915C42.346 3.78781 42.1077 4.02615 41.9317 4.33415C41.7557 4.63481 41.6677 4.99415 41.6677 5.41215C41.6677 5.83015 41.7557 6.19315 41.9317 6.50115C42.1077 6.80915 42.346 7.04748 42.6467 7.21615C42.9473 7.38482 43.2883 7.46915 43.6697 7.46915C43.985 7.46915 44.2783 7.40315 44.5497 7.27115C44.8283 7.13182 45.063 6.91915 45.2537 6.63315L46.0567 7.13915C45.8293 7.54248 45.5067 7.85415 45.0887 8.07415C44.678 8.28682 44.2087 8.39315 43.6807 8.39315ZM49.501 8.39315C48.9144 8.39315 48.4597 8.23548 48.137 7.92015C47.8144 7.60482 47.653 7.15382 47.653 6.56715V1.22115H48.709V6.52315C48.709 6.83848 48.786 7.08048 48.94 7.24915C49.1014 7.41782 49.3287 7.50215 49.622 7.50215C49.952 7.50215 50.227 7.41048 50.447 7.22715L50.777 7.98615C50.6157 8.12548 50.4214 8.22815 50.194 8.29415C49.974 8.36015 49.743 8.39315 49.501 8.39315ZM46.663 3.36615V2.49715H50.381V3.36615H46.663ZM57.1968 8.41515C56.6762 8.41515 56.2142 8.33082 55.8108 8.16215C55.4075 7.99348 55.0885 7.75882 54.8538 7.45815C54.6192 7.15748 54.5018 6.80915 54.5018 6.41315C54.5018 6.06848 54.5788 5.75315 54.7328 5.46715C54.8868 5.18115 55.1325 4.90615 55.4698 4.64215C55.8072 4.37082 56.2508 4.09215 56.8008 3.80615C57.2482 3.57148 57.5965 3.36615 57.8458 3.19015C58.1025 3.01415 58.2822 2.84915 58.3848 2.69515C58.4948 2.53381 58.5498 2.36148 58.5498 2.17815C58.5498 1.92881 58.4618 1.72715 58.2858 1.57315C58.1098 1.41181 57.8568 1.33115 57.5268 1.33115C57.1822 1.33115 56.9108 1.41915 56.7128 1.59515C56.5222 1.76381 56.4268 1.98748 56.4268 2.26615C56.4268 2.40548 56.4488 2.54115 56.4928 2.67315C56.5442 2.79782 56.6322 2.94081 56.7568 3.10215C56.8888 3.25615 57.0758 3.45415 57.3178 3.69615L61.3878 7.74415L60.7938 8.44815L56.4708 4.14715C56.2142 3.89048 56.0125 3.66315 55.8658 3.46515C55.7192 3.25981 55.6128 3.06181 55.5468 2.87115C55.4808 2.68048 55.4478 2.48615 55.4478 2.28815C55.4478 1.94348 55.5322 1.64281 55.7008 1.38615C55.8768 1.12215 56.1188 0.920481 56.4268 0.781148C56.7422 0.634481 57.1088 0.561148 57.5268 0.561148C57.9155 0.561148 58.2528 0.627148 58.5388 0.759148C58.8248 0.883815 59.0448 1.06715 59.1988 1.30915C59.3602 1.54382 59.4408 1.82982 59.4408 2.16715C59.4408 2.46048 59.3675 2.73181 59.2208 2.98115C59.0815 3.23048 58.8542 3.47248 58.5388 3.70715C58.2235 3.94181 57.7982 4.19481 57.2628 4.46615C56.8228 4.69348 56.4782 4.90615 56.2288 5.10415C55.9795 5.29481 55.7998 5.48548 55.6898 5.67615C55.5872 5.86682 55.5358 6.07582 55.5358 6.30315C55.5358 6.54515 55.6055 6.76148 55.7448 6.95215C55.8915 7.13548 56.0932 7.27848 56.3498 7.38115C56.6138 7.48382 56.9182 7.53515 57.2628 7.53515C57.7542 7.53515 58.1978 7.42882 58.5938 7.21615C58.9898 7.00348 59.3198 6.68448 59.5838 6.25915C59.8552 5.83382 60.0532 5.30581 60.1778 4.67515L61.0248 4.95015C60.8782 5.69081 60.6252 6.31781 60.2658 6.83115C59.9138 7.34448 59.4775 7.73682 58.9568 8.00815C58.4362 8.27948 57.8495 8.41515 57.1968 8.41515ZM69.1 8.41515C68.5133 8.41515 67.9706 8.31982 67.472 8.12915C66.9806 7.93115 66.5516 7.65615 66.185 7.30415C65.8256 6.94482 65.5433 6.52682 65.338 6.05015C65.1326 5.57348 65.03 5.04915 65.03 4.47715C65.03 3.90515 65.1326 3.38081 65.338 2.90415C65.5433 2.42748 65.8293 2.01315 66.196 1.66115C66.5626 1.30181 66.9916 1.02681 67.483 0.836148C67.9816 0.638148 68.5243 0.539148 69.111 0.539148C69.705 0.539148 70.2513 0.641815 70.75 0.847148C71.256 1.04515 71.685 1.34215 72.037 1.73815L71.322 2.43115C71.0286 2.12315 70.6986 1.89581 70.332 1.74915C69.9653 1.59515 69.573 1.51815 69.155 1.51815C68.7223 1.51815 68.319 1.59148 67.945 1.73815C67.5783 1.88481 67.2593 2.09015 66.988 2.35415C66.7166 2.61815 66.504 2.93348 66.35 3.30015C66.2033 3.65948 66.13 4.05181 66.13 4.47715C66.13 4.90248 66.2033 5.29848 66.35 5.66515C66.504 6.02448 66.7166 6.33615 66.988 6.60015C67.2593 6.86415 67.5783 7.06948 67.945 7.21615C68.319 7.36282 68.7223 7.43615 69.155 7.43615C69.573 7.43615 69.9653 7.36282 70.332 7.21615C70.6986 7.06215 71.0286 6.82748 71.322 6.51215L72.037 7.20515C71.685 7.60115 71.256 7.90182 70.75 8.10715C70.2513 8.31248 69.7013 8.41515 69.1 8.41515ZM75.7021 8.39315C75.1154 8.39315 74.5948 8.26482 74.1401 8.00815C73.6854 7.75148 73.3261 7.39948 73.0621 6.95215C72.7981 6.49748 72.6661 5.98415 72.6661 5.41215C72.6661 4.83281 72.7981 4.31948 73.0621 3.87215C73.3261 3.42481 73.6854 3.07648 74.1401 2.82715C74.5948 2.57048 75.1154 2.44215 75.7021 2.44215C76.2814 2.44215 76.7984 2.57048 77.2531 2.82715C77.7151 3.07648 78.0744 3.42481 78.3311 3.87215C78.5951 4.31215 78.7271 4.82548 78.7271 5.41215C78.7271 5.99148 78.5951 6.50482 78.3311 6.95215C78.0744 7.39948 77.7151 7.75148 77.2531 8.00815C76.7984 8.26482 76.2814 8.39315 75.7021 8.39315ZM75.7021 7.46915C76.0761 7.46915 76.4098 7.38482 76.7031 7.21615C77.0038 7.04748 77.2384 6.80915 77.4071 6.50115C77.5758 6.18582 77.6601 5.82282 77.6601 5.41215C77.6601 4.99415 77.5758 4.63481 77.4071 4.33415C77.2384 4.02615 77.0038 3.78781 76.7031 3.61915C76.4098 3.45048 76.0761 3.36615 75.7021 3.36615C75.3281 3.36615 74.9944 3.45048 74.7011 3.61915C74.4078 3.78781 74.1731 4.02615 73.9971 4.33415C73.8211 4.63481 73.7331 4.99415 73.7331 5.41215C73.7331 5.82282 73.8211 6.18582 73.9971 6.50115C74.1731 6.80915 74.4078 7.04748 74.7011 7.21615C74.9944 7.38482 75.3281 7.46915 75.7021 7.46915ZM83.3005 2.44215C83.7772 2.44215 84.1952 2.53381 84.5545 2.71715C84.9212 2.90048 85.2072 3.17915 85.4125 3.55315C85.6179 3.92715 85.7205 4.40015 85.7205 4.97215V8.32715H84.6645V5.09315C84.6645 4.52848 84.5252 4.10315 84.2465 3.81715C83.9752 3.53115 83.5902 3.38815 83.0915 3.38815C82.7175 3.38815 82.3912 3.46148 82.1125 3.60815C81.8339 3.75481 81.6175 3.97115 81.4635 4.25715C81.3169 4.54315 81.2435 4.89881 81.2435 5.32415V8.32715H80.1875V2.49715H81.1995V4.07015L81.0345 3.65215C81.2252 3.27081 81.5185 2.97381 81.9145 2.76115C82.3105 2.54848 82.7725 2.44215 83.3005 2.44215ZM89.0964 8.32715L86.5444 2.49715H87.6444L89.9104 7.77715H89.3824L91.6924 2.49715H92.7264L90.1744 8.32715H89.0964ZM96.1468 8.39315C95.5235 8.39315 94.9735 8.26482 94.4968 8.00815C94.0275 7.75148 93.6608 7.39948 93.3968 6.95215C93.1401 6.50482 93.0118 5.99148 93.0118 5.41215C93.0118 4.83281 93.1365 4.31948 93.3858 3.87215C93.6425 3.42481 93.9908 3.07648 94.4308 2.82715C94.8781 2.57048 95.3805 2.44215 95.9378 2.44215C96.5025 2.44215 97.0011 2.56681 97.4338 2.81615C97.8665 3.06548 98.2038 3.41748 98.4458 3.87215C98.6951 4.31948 98.8198 4.84381 98.8198 5.44515C98.8198 5.48915 98.8161 5.54048 98.8088 5.59915C98.8088 5.65781 98.8051 5.71281 98.7978 5.76415H93.8368V5.00515H98.2478L97.8188 5.26915C97.8261 4.89515 97.7491 4.56148 97.5878 4.26815C97.4265 3.97481 97.2028 3.74748 96.9168 3.58615C96.6381 3.41748 96.3118 3.33315 95.9378 3.33315C95.5711 3.33315 95.2448 3.41748 94.9588 3.58615C94.6728 3.74748 94.4491 3.97848 94.2878 4.27915C94.1265 4.57248 94.0458 4.90981 94.0458 5.29115V5.46715C94.0458 5.85581 94.1338 6.20415 94.3098 6.51215C94.4931 6.81282 94.7461 7.04748 95.0688 7.21615C95.3915 7.38482 95.7618 7.46915 96.1798 7.46915C96.5245 7.46915 96.8361 7.41048 97.1148 7.29315C97.4008 7.17582 97.6501 6.99982 97.8628 6.76515L98.4458 7.44715C98.1818 7.75515 97.8518 7.98982 97.4558 8.15115C97.0671 8.31248 96.6308 8.39315 96.1468 8.39315ZM103.399 2.44215C103.876 2.44215 104.294 2.53381 104.653 2.71715C105.02 2.90048 105.306 3.17915 105.511 3.55315C105.716 3.92715 105.819 4.40015 105.819 4.97215V8.32715H104.763V5.09315C104.763 4.52848 104.624 4.10315 104.345 3.81715C104.074 3.53115 103.689 3.38815 103.19 3.38815C102.816 3.38815 102.49 3.46148 102.211 3.60815C101.932 3.75481 101.716 3.97115 101.562 4.25715C101.415 4.54315 101.342 4.89881 101.342 5.32415V8.32715H100.286V2.49715H101.298V4.07015L101.133 3.65215C101.324 3.27081 101.617 2.97381 102.013 2.76115C102.409 2.54848 102.871 2.44215 103.399 2.44215ZM107.773 8.32715V2.49715H108.829V8.32715H107.773ZM108.301 1.37515C108.096 1.37515 107.924 1.30915 107.784 1.17715C107.652 1.04515 107.586 0.883815 107.586 0.693148C107.586 0.495148 107.652 0.330148 107.784 0.198148C107.924 0.0661481 108.096 0.000148118 108.301 0.000148118C108.507 0.000148118 108.675 0.0661481 108.807 0.198148C108.947 0.322815 109.016 0.480481 109.016 0.671148C109.016 0.869148 108.95 1.03781 108.818 1.17715C108.686 1.30915 108.514 1.37515 108.301 1.37515ZM113.442 8.39315C112.818 8.39315 112.268 8.26482 111.792 8.00815C111.322 7.75148 110.956 7.39948 110.692 6.95215C110.435 6.50482 110.307 5.99148 110.307 5.41215C110.307 4.83281 110.431 4.31948 110.681 3.87215C110.937 3.42481 111.286 3.07648 111.726 2.82715C112.173 2.57048 112.675 2.44215 113.233 2.44215C113.797 2.44215 114.296 2.56681 114.729 2.81615C115.161 3.06548 115.499 3.41748 115.741 3.87215C115.99 4.31948 116.115 4.84381 116.115 5.44515C116.115 5.48915 116.111 5.54048 116.104 5.59915C116.104 5.65781 116.1 5.71281 116.093 5.76415H111.132V5.00515H115.543L115.114 5.26915C115.121 4.89515 115.044 4.56148 114.883 4.26815C114.721 3.97481 114.498 3.74748 114.212 3.58615C113.933 3.41748 113.607 3.33315 113.233 3.33315C112.866 3.33315 112.54 3.41748 112.254 3.58615C111.968 3.74748 111.744 3.97848 111.583 4.27915C111.421 4.57248 111.341 4.90981 111.341 5.29115V5.46715C111.341 5.85581 111.429 6.20415 111.605 6.51215C111.788 6.81282 112.041 7.04748 112.364 7.21615C112.686 7.38482 113.057 7.46915 113.475 7.46915C113.819 7.46915 114.131 7.41048 114.41 7.29315C114.696 7.17582 114.945 6.99982 115.158 6.76515L115.741 7.44715C115.477 7.75515 115.147 7.98982 114.751 8.15115C114.362 8.31248 113.926 8.39315 113.442 8.39315ZM120.694 2.44215C121.171 2.44215 121.589 2.53381 121.948 2.71715C122.315 2.90048 122.601 3.17915 122.806 3.55315C123.011 3.92715 123.114 4.40015 123.114 4.97215V8.32715H122.058V5.09315C122.058 4.52848 121.919 4.10315 121.64 3.81715C121.369 3.53115 120.984 3.38815 120.485 3.38815C120.111 3.38815 119.785 3.46148 119.506 3.60815C119.227 3.75481 119.011 3.97115 118.857 4.25715C118.71 4.54315 118.637 4.89881 118.637 5.32415V8.32715H117.581V2.49715H118.593V4.07015L118.428 3.65215C118.619 3.27081 118.912 2.97381 119.308 2.76115C119.704 2.54848 120.166 2.44215 120.694 2.44215ZM127.07 8.39315C126.484 8.39315 126.029 8.23548 125.706 7.92015C125.384 7.60482 125.222 7.15382 125.222 6.56715V1.22115H126.278V6.52315C126.278 6.83848 126.355 7.08048 126.509 7.24915C126.671 7.41782 126.898 7.50215 127.191 7.50215C127.521 7.50215 127.796 7.41048 128.016 7.22715L128.346 7.98615C128.185 8.12548 127.991 8.22815 127.763 8.29415C127.543 8.36015 127.312 8.39315 127.07 8.39315ZM124.232 3.36615V2.49715H127.95V3.36615H124.232ZM131.576 5.67615V4.93915H137.076V5.67615H131.576ZM141.031 8.32715V0.165148H142.087V8.32715H141.031ZM146.7 8.39315C146.076 8.39315 145.526 8.26482 145.05 8.00815C144.58 7.75148 144.214 7.39948 143.95 6.95215C143.693 6.50482 143.565 5.99148 143.565 5.41215C143.565 4.83281 143.689 4.31948 143.939 3.87215C144.195 3.42481 144.544 3.07648 144.984 2.82715C145.431 2.57048 145.933 2.44215 146.491 2.44215C147.055 2.44215 147.554 2.56681 147.987 2.81615C148.419 3.06548 148.757 3.41748 148.999 3.87215C149.248 4.31948 149.373 4.84381 149.373 5.44515C149.373 5.48915 149.369 5.54048 149.362 5.59915C149.362 5.65781 149.358 5.71281 149.351 5.76415H144.39V5.00515H148.801L148.372 5.26915C148.379 4.89515 148.302 4.56148 148.141 4.26815C147.979 3.97481 147.756 3.74748 147.47 3.58615C147.191 3.41748 146.865 3.33315 146.491 3.33315C146.124 3.33315 145.798 3.41748 145.512 3.58615C145.226 3.74748 145.002 3.97848 144.841 4.27915C144.679 4.57248 144.599 4.90981 144.599 5.29115V5.46715C144.599 5.85581 144.687 6.20415 144.863 6.51215C145.046 6.81282 145.299 7.04748 145.622 7.21615C145.944 7.38482 146.315 7.46915 146.733 7.46915C147.077 7.46915 147.389 7.41048 147.668 7.29315C147.954 7.17582 148.203 6.99982 148.416 6.76515L148.999 7.44715C148.735 7.75515 148.405 7.98982 148.009 8.15115C147.62 8.31248 147.184 8.39315 146.7 8.39315ZM154.297 8.32715V7.09515L154.242 6.86415V4.76315C154.242 4.31581 154.11 3.97115 153.846 3.72915C153.589 3.47981 153.2 3.35515 152.68 3.35515C152.335 3.35515 151.998 3.41381 151.668 3.53115C151.338 3.64115 151.059 3.79148 150.832 3.98215L150.392 3.19015C150.692 2.94815 151.052 2.76482 151.47 2.64015C151.895 2.50815 152.339 2.44215 152.801 2.44215C153.6 2.44215 154.216 2.63648 154.649 3.02515C155.081 3.41381 155.298 4.00781 155.298 4.80715V8.32715H154.297ZM152.383 8.39315C151.95 8.39315 151.569 8.31982 151.239 8.17315C150.916 8.02648 150.667 7.82482 150.491 7.56815C150.315 7.30415 150.227 7.00715 150.227 6.67715C150.227 6.36182 150.3 6.07582 150.447 5.81915C150.601 5.56248 150.846 5.35715 151.184 5.20315C151.528 5.04915 151.99 4.97215 152.57 4.97215H154.418V5.73115H152.614C152.086 5.73115 151.73 5.81915 151.547 5.99515C151.363 6.17115 151.272 6.38381 151.272 6.63315C151.272 6.91915 151.385 7.15015 151.613 7.32615C151.84 7.49482 152.155 7.57915 152.559 7.57915C152.955 7.57915 153.299 7.49115 153.593 7.31515C153.893 7.13915 154.11 6.88248 154.242 6.54515L154.451 7.27115C154.311 7.61582 154.066 7.89082 153.714 8.09615C153.362 8.29415 152.918 8.39315 152.383 8.39315ZM158.11 6.91915L158.132 5.56615L161.487 2.49715H162.763L160.189 5.02715L159.617 5.51115L158.11 6.91915ZM157.252 8.32715V0.165148H158.308V8.32715H157.252ZM161.707 8.32715L159.419 5.48915L160.101 4.64215L163.005 8.32715H161.707ZM163.409 5.76415V4.85115H166.368V5.76415H163.409ZM3.9045 23.3931C3.4205 23.3931 2.97683 23.2831 2.5735 23.0631C2.1775 22.8358 1.8585 22.5021 1.6165 22.0621C1.38183 21.6221 1.2645 21.0721 1.2645 20.4121C1.2645 19.7521 1.37817 19.2021 1.6055 18.7621C1.84017 18.3221 2.1555 17.9921 2.5515 17.7721C2.95483 17.5521 3.40583 17.4421 3.9045 17.4421C4.4765 17.4421 4.9825 17.5668 5.4225 17.8161C5.8625 18.0655 6.21083 18.4138 6.4675 18.8611C6.72417 19.3011 6.8525 19.8181 6.8525 20.4121C6.8525 21.0061 6.72417 21.5268 6.4675 21.9741C6.21083 22.4215 5.8625 22.7698 5.4225 23.0191C4.9825 23.2685 4.4765 23.3931 3.9045 23.3931ZM0.8135 25.4611V17.4971H1.8255V19.0701L1.7595 20.4231L1.8695 21.7761V25.4611H0.8135ZM3.8165 22.4691C4.1905 22.4691 4.52417 22.3848 4.8175 22.2161C5.11817 22.0475 5.35283 21.8091 5.5215 21.5011C5.6975 21.1858 5.7855 20.8228 5.7855 20.4121C5.7855 19.9941 5.6975 19.6348 5.5215 19.3341C5.35283 19.0261 5.11817 18.7878 4.8175 18.6191C4.52417 18.4505 4.1905 18.3661 3.8165 18.3661C3.44983 18.3661 3.11617 18.4505 2.8155 18.6191C2.52217 18.7878 2.2875 19.0261 2.1115 19.3341C1.94283 19.6348 1.8585 19.9941 1.8585 20.4121C1.8585 20.8228 1.94283 21.1858 2.1115 21.5011C2.2875 21.8091 2.52217 22.0475 2.8155 22.2161C3.11617 22.3848 3.44983 22.4691 3.8165 22.4691ZM8.31155 23.3271V17.4971H9.32355V19.0811L9.22455 18.6851C9.38588 18.2818 9.65721 17.9738 10.0385 17.7611C10.4199 17.5485 10.8892 17.4421 11.4465 17.4421V18.4651C11.4025 18.4578 11.3585 18.4541 11.3145 18.4541C11.2779 18.4541 11.2412 18.4541 11.2045 18.4541C10.6399 18.4541 10.1925 18.6228 9.86255 18.9601C9.53255 19.2975 9.36755 19.7851 9.36755 20.4231V23.3271H8.31155ZM15.1914 23.3931C14.6047 23.3931 14.084 23.2648 13.6294 23.0081C13.1747 22.7515 12.8154 22.3995 12.5514 21.9521C12.2874 21.4975 12.1554 20.9841 12.1554 20.4121C12.1554 19.8328 12.2874 19.3195 12.5514 18.8721C12.8154 18.4248 13.1747 18.0765 13.6294 17.8271C14.084 17.5705 14.6047 17.4421 15.1914 17.4421C15.7707 17.4421 16.2877 17.5705 16.7424 17.8271C17.2044 18.0765 17.5637 18.4248 17.8204 18.8721C18.0844 19.3121 18.2164 19.8255 18.2164 20.4121C18.2164 20.9915 18.0844 21.5048 17.8204 21.9521C17.5637 22.3995 17.2044 22.7515 16.7424 23.0081C16.2877 23.2648 15.7707 23.3931 15.1914 23.3931ZM15.1914 22.4691C15.5654 22.4691 15.899 22.3848 16.1924 22.2161C16.493 22.0475 16.7277 21.8091 16.8964 21.5011C17.065 21.1858 17.1494 20.8228 17.1494 20.4121C17.1494 19.9941 17.065 19.6348 16.8964 19.3341C16.7277 19.0261 16.493 18.7878 16.1924 18.6191C15.899 18.4505 15.5654 18.3661 15.1914 18.3661C14.8174 18.3661 14.4837 18.4505 14.1904 18.6191C13.897 18.7878 13.6624 19.0261 13.4864 19.3341C13.3104 19.6348 13.2224 19.9941 13.2224 20.4121C13.2224 20.8228 13.3104 21.1858 13.4864 21.5011C13.6624 21.8091 13.897 22.0475 14.1904 22.2161C14.4837 22.3848 14.8174 22.4691 15.1914 22.4691ZM22.1738 23.3931C21.5871 23.3931 21.0664 23.2648 20.6118 23.0081C20.1571 22.7515 19.7978 22.3995 19.5338 21.9521C19.2698 21.4975 19.1378 20.9841 19.1378 20.4121C19.1378 19.8328 19.2698 19.3195 19.5338 18.8721C19.7978 18.4248 20.1571 18.0765 20.6118 17.8271C21.0664 17.5705 21.5871 17.4421 22.1738 17.4421C22.7531 17.4421 23.2701 17.5705 23.7248 17.8271C24.1868 18.0765 24.5461 18.4248 24.8028 18.8721C25.0668 19.3121 25.1988 19.8255 25.1988 20.4121C25.1988 20.9915 25.0668 21.5048 24.8028 21.9521C24.5461 22.3995 24.1868 22.7515 23.7248 23.0081C23.2701 23.2648 22.7531 23.3931 22.1738 23.3931ZM22.1738 22.4691C22.5478 22.4691 22.8814 22.3848 23.1748 22.2161C23.4754 22.0475 23.7101 21.8091 23.8788 21.5011C24.0474 21.1858 24.1318 20.8228 24.1318 20.4121C24.1318 19.9941 24.0474 19.6348 23.8788 19.3341C23.7101 19.0261 23.4754 18.7878 23.1748 18.6191C22.8814 18.4505 22.5478 18.3661 22.1738 18.3661C21.7998 18.3661 21.4661 18.4505 21.1728 18.6191C20.8794 18.7878 20.6448 19.0261 20.4688 19.3341C20.2928 19.6348 20.2048 19.9941 20.2048 20.4121C20.2048 20.8228 20.2928 21.1858 20.4688 21.5011C20.6448 21.8091 20.8794 22.0475 21.1728 22.2161C21.4661 22.3848 21.7998 22.4691 22.1738 22.4691ZM26.8132 23.3271V16.9801C26.8132 16.4081 26.9782 15.9535 27.3082 15.6161C27.6455 15.2715 28.1222 15.0991 28.7382 15.0991C28.9655 15.0991 29.1819 15.1285 29.3872 15.1871C29.5999 15.2385 29.7795 15.3228 29.9262 15.4401L29.6072 16.2431C29.4972 16.1551 29.3725 16.0891 29.2332 16.0451C29.0939 15.9938 28.9472 15.9681 28.7932 15.9681C28.4852 15.9681 28.2505 16.0561 28.0892 16.2321C27.9279 16.4008 27.8472 16.6538 27.8472 16.9911V17.7721L27.8692 18.2561V23.3271H26.8132ZM25.8232 18.3661V17.4971H29.5412V18.3661H25.8232ZM30.0117 24.9551L30.5617 22.7331L30.7047 23.3711C30.492 23.3711 30.3124 23.3051 30.1657 23.1731C30.0264 23.0411 29.9567 22.8615 29.9567 22.6341C29.9567 22.4141 30.0264 22.2345 30.1657 22.0951C30.3124 21.9558 30.4884 21.8861 30.6937 21.8861C30.9064 21.8861 31.0787 21.9595 31.2107 22.1061C31.3427 22.2455 31.4087 22.4215 31.4087 22.6341C31.4087 22.7075 31.4014 22.7808 31.3867 22.8541C31.3794 22.9201 31.361 23.0008 31.3317 23.0961C31.3097 23.1841 31.273 23.2941 31.2217 23.4261L30.7047 24.9551H30.0117ZM38.989 17.4421C39.4657 17.4421 39.8837 17.5338 40.243 17.7171C40.6097 17.9005 40.8957 18.1791 41.101 18.5531C41.3063 18.9271 41.409 19.4001 41.409 19.9721V23.3271H40.353V20.0931C40.353 19.5285 40.2137 19.1031 39.935 18.8171C39.6637 18.5311 39.2787 18.3881 38.78 18.3881C38.406 18.3881 38.0797 18.4615 37.801 18.6081C37.5223 18.7548 37.306 18.9711 37.152 19.2571C37.0053 19.5431 36.932 19.8988 36.932 20.3241V23.3271H35.876V15.1651H36.932V19.0701L36.723 18.6521C36.9137 18.2708 37.207 17.9738 37.603 17.7611C37.999 17.5485 38.461 17.4421 38.989 17.4421ZM43.5089 25.5271C43.2302 25.5271 42.9589 25.4795 42.6949 25.3841C42.4309 25.2961 42.2035 25.1641 42.0129 24.9881L42.4639 24.1961C42.6105 24.3355 42.7719 24.4418 42.9479 24.5151C43.1239 24.5885 43.3109 24.6251 43.5089 24.6251C43.7655 24.6251 43.9782 24.5591 44.1469 24.4271C44.3155 24.2951 44.4732 24.0605 44.6199 23.7231L44.9829 22.9201L45.0929 22.7881L47.3809 17.4971H48.4149L45.5879 23.9101C45.4192 24.3208 45.2285 24.6435 45.0159 24.8781C44.8105 25.1128 44.5832 25.2778 44.3339 25.3731C44.0845 25.4758 43.8095 25.5271 43.5089 25.5271ZM44.8949 23.5141L42.2329 17.4971H43.3329L45.5989 22.6891L44.8949 23.5141ZM51.7913 25.5271C51.2559 25.5271 50.7353 25.4501 50.2293 25.2961C49.7306 25.1495 49.3236 24.9368 49.0083 24.6581L49.5143 23.8441C49.7856 24.0788 50.1193 24.2621 50.5153 24.3941C50.9113 24.5335 51.3256 24.6031 51.7583 24.6031C52.4476 24.6031 52.9536 24.4418 53.2763 24.1191C53.5989 23.7965 53.7603 23.3051 53.7603 22.6451V21.4131L53.8703 20.2581L53.8153 19.0921V17.4971H54.8163V22.5351C54.8163 23.5618 54.5596 24.3171 54.0463 24.8011C53.5329 25.2851 52.7813 25.5271 51.7913 25.5271ZM51.6593 23.0851C51.0946 23.0851 50.5886 22.9678 50.1413 22.7331C49.7013 22.4911 49.3493 22.1575 49.0853 21.7321C48.8286 21.3068 48.7003 20.8155 48.7003 20.2581C48.7003 19.6935 48.8286 19.2021 49.0853 18.7841C49.3493 18.3588 49.7013 18.0288 50.1413 17.7941C50.5886 17.5595 51.0946 17.4421 51.6593 17.4421C52.1579 17.4421 52.6126 17.5448 53.0233 17.7501C53.4339 17.9481 53.7603 18.2561 54.0023 18.6741C54.2516 19.0921 54.3763 19.6201 54.3763 20.2581C54.3763 20.8888 54.2516 21.4131 54.0023 21.8311C53.7603 22.2491 53.4339 22.5645 53.0233 22.7771C52.6126 22.9825 52.1579 23.0851 51.6593 23.0851ZM51.7803 22.1611C52.1689 22.1611 52.5136 22.0805 52.8143 21.9191C53.1149 21.7578 53.3496 21.5341 53.5183 21.2481C53.6943 20.9621 53.7823 20.6321 53.7823 20.2581C53.7823 19.8841 53.6943 19.5541 53.5183 19.2681C53.3496 18.9821 53.1149 18.7621 52.8143 18.6081C52.5136 18.4468 52.1689 18.3661 51.7803 18.3661C51.3916 18.3661 51.0433 18.4468 50.7353 18.6081C50.4346 18.7621 50.1963 18.9821 50.0203 19.2681C49.8516 19.5541 49.7673 19.8841 49.7673 20.2581C49.7673 20.6321 49.8516 20.9621 50.0203 21.2481C50.1963 21.5341 50.4346 21.7578 50.7353 21.9191C51.0433 22.0805 51.3916 22.1611 51.7803 22.1611ZM56.834 23.3271V17.4971H57.89V23.3271H56.834ZM57.362 16.3751C57.1567 16.3751 56.9843 16.3091 56.845 16.1771C56.713 16.0451 56.647 15.8838 56.647 15.6931C56.647 15.4951 56.713 15.3301 56.845 15.1981C56.9843 15.0661 57.1567 15.0001 57.362 15.0001C57.5673 15.0001 57.736 15.0661 57.868 15.1981C58.0073 15.3228 58.077 15.4805 58.077 15.6711C58.077 15.8691 58.011 16.0378 57.879 16.1771C57.747 16.3091 57.5747 16.3751 57.362 16.3751ZM62.5023 23.3931C61.8789 23.3931 61.3289 23.2648 60.8523 23.0081C60.3829 22.7515 60.0163 22.3995 59.7523 21.9521C59.4956 21.5048 59.3673 20.9915 59.3673 20.4121C59.3673 19.8328 59.4919 19.3195 59.7413 18.8721C59.9979 18.4248 60.3463 18.0765 60.7863 17.8271C61.2336 17.5705 61.7359 17.4421 62.2933 17.4421C62.8579 17.4421 63.3566 17.5668 63.7893 17.8161C64.2219 18.0655 64.5593 18.4175 64.8013 18.8721C65.0506 19.3195 65.1753 19.8438 65.1753 20.4451C65.1753 20.4891 65.1716 20.5405 65.1643 20.5991C65.1643 20.6578 65.1606 20.7128 65.1533 20.7641H60.1923V20.0051H64.6033L64.1743 20.2691C64.1816 19.8951 64.1046 19.5615 63.9433 19.2681C63.7819 18.9748 63.5583 18.7475 63.2723 18.5861C62.9936 18.4175 62.6673 18.3331 62.2933 18.3331C61.9266 18.3331 61.6003 18.4175 61.3143 18.5861C61.0283 18.7475 60.8046 18.9785 60.6433 19.2791C60.4819 19.5725 60.4013 19.9098 60.4013 20.2911V20.4671C60.4013 20.8558 60.4893 21.2041 60.6653 21.5121C60.8486 21.8128 61.1016 22.0475 61.4243 22.2161C61.7469 22.3848 62.1173 22.4691 62.5353 22.4691C62.8799 22.4691 63.1916 22.4105 63.4703 22.2931C63.7563 22.1758 64.0056 21.9998 64.2183 21.7651L64.8013 22.4471C64.5373 22.7551 64.2073 22.9898 63.8113 23.1511C63.4226 23.3125 62.9863 23.3931 62.5023 23.3931ZM69.7546 17.4421C70.2313 17.4421 70.6493 17.5338 71.0086 17.7171C71.3753 17.9005 71.6613 18.1791 71.8666 18.5531C72.072 18.9271 72.1746 19.4001 72.1746 19.9721V23.3271H71.1186V20.0931C71.1186 19.5285 70.9793 19.1031 70.7006 18.8171C70.4293 18.5311 70.0443 18.3881 69.5456 18.3881C69.1716 18.3881 68.8453 18.4615 68.5666 18.6081C68.288 18.7548 68.0716 18.9711 67.9176 19.2571C67.771 19.5431 67.6976 19.8988 67.6976 20.3241V23.3271H66.6416V17.4971H67.6536V19.0701L67.4886 18.6521C67.6793 18.2708 67.9726 17.9738 68.3686 17.7611C68.7646 17.5485 69.2266 17.4421 69.7546 17.4421ZM74.1289 23.3271V17.4971H75.1849V23.3271H74.1289ZM74.6569 16.3751C74.4516 16.3751 74.2793 16.3091 74.1399 16.1771C74.0079 16.0451 73.9419 15.8838 73.9419 15.6931C73.9419 15.4951 74.0079 15.3301 74.1399 15.1981C74.2793 15.0661 74.4516 15.0001 74.6569 15.0001C74.8623 15.0001 75.0309 15.0661 75.1629 15.1981C75.3023 15.3228 75.3719 15.4805 75.3719 15.6711C75.3719 15.8691 75.3059 16.0378 75.1739 16.1771C75.0419 16.3091 74.8696 16.3751 74.6569 16.3751ZM79.7422 23.3931C79.1482 23.3931 78.6165 23.2648 78.1472 23.0081C77.6852 22.7515 77.3222 22.3995 77.0582 21.9521C76.7942 21.5048 76.6622 20.9915 76.6622 20.4121C76.6622 19.8328 76.7942 19.3195 77.0582 18.8721C77.3222 18.4248 77.6852 18.0765 78.1472 17.8271C78.6165 17.5705 79.1482 17.4421 79.7422 17.4421C80.2702 17.4421 80.7395 17.5485 81.1502 17.7611C81.5682 17.9665 81.8909 18.2745 82.1182 18.6851L81.3152 19.2021C81.1245 18.9161 80.8899 18.7071 80.6112 18.5751C80.3399 18.4358 80.0465 18.3661 79.7312 18.3661C79.3499 18.3661 79.0089 18.4505 78.7082 18.6191C78.4075 18.7878 78.1692 19.0261 77.9932 19.3341C77.8172 19.6348 77.7292 19.9941 77.7292 20.4121C77.7292 20.8301 77.8172 21.1931 77.9932 21.5011C78.1692 21.8091 78.4075 22.0475 78.7082 22.2161C79.0089 22.3848 79.3499 22.4691 79.7312 22.4691C80.0465 22.4691 80.3399 22.4031 80.6112 22.2711C80.8899 22.1318 81.1245 21.9191 81.3152 21.6331L82.1182 22.1391C81.8909 22.5425 81.5682 22.8541 81.1502 23.0741C80.7395 23.2868 80.2702 23.3931 79.7422 23.3931ZM83.2822 24.9551L83.8322 22.7331L83.9752 23.3711C83.7626 23.3711 83.5829 23.3051 83.4362 23.1731C83.2969 23.0411 83.2272 22.8615 83.2272 22.6341C83.2272 22.4141 83.2969 22.2345 83.4362 22.0951C83.5829 21.9558 83.7589 21.8861 83.9642 21.8861C84.1769 21.8861 84.3492 21.9595 84.4812 22.1061C84.6132 22.2455 84.6792 22.4215 84.6792 22.6341C84.6792 22.7075 84.6719 22.7808 84.6572 22.8541C84.6499 22.9201 84.6316 23.0008 84.6022 23.0961C84.5802 23.1841 84.5436 23.2941 84.4922 23.4261L83.9752 24.9551H83.2822ZM92.1403 23.3821C91.6416 23.3821 91.1906 23.2685 90.7873 23.0411C90.384 22.8065 90.0613 22.4728 89.8193 22.0401C89.5846 21.6001 89.4673 21.0648 89.4673 20.4341C89.4673 19.8035 89.5846 19.2718 89.8193 18.8391C90.054 18.3991 90.373 18.0655 90.7763 17.8381C91.1796 17.6108 91.6343 17.4971 92.1403 17.4971C92.6903 17.4971 93.1816 17.6218 93.6143 17.8711C94.0543 18.1131 94.399 18.4578 94.6483 18.9051C94.8976 19.3451 95.0223 19.8548 95.0223 20.4341C95.0223 21.0208 94.8976 21.5341 94.6483 21.9741C94.399 22.4141 94.0543 22.7588 93.6143 23.0081C93.1816 23.2575 92.6903 23.3821 92.1403 23.3821ZM89.1593 25.4611V17.5521H89.9073V19.2901L89.8303 20.4451L89.9403 21.6111V25.4611H89.1593ZM92.0853 22.6891C92.496 22.6891 92.8626 22.5975 93.1853 22.4141C93.508 22.2235 93.7646 21.9595 93.9553 21.6221C94.146 21.2775 94.2413 20.8815 94.2413 20.4341C94.2413 19.9868 94.146 19.5945 93.9553 19.2571C93.7646 18.9198 93.508 18.6558 93.1853 18.4651C92.8626 18.2745 92.496 18.1791 92.0853 18.1791C91.6746 18.1791 91.3043 18.2745 90.9743 18.4651C90.6516 18.6558 90.395 18.9198 90.2043 19.2571C90.021 19.5945 89.9293 19.9868 89.9293 20.4341C89.9293 20.8815 90.021 21.2775 90.2043 21.6221C90.395 21.9595 90.6516 22.2235 90.9743 22.4141C91.3043 22.5975 91.6746 22.6891 92.0853 22.6891ZM96.6144 23.3271V17.5521H97.3624V19.1251L97.2854 18.8501C97.4467 18.4101 97.7181 18.0765 98.0994 17.8491C98.4807 17.6145 98.9537 17.4971 99.5184 17.4971V18.2561C99.4891 18.2561 99.4597 18.2561 99.4304 18.2561C99.4011 18.2488 99.3717 18.2451 99.3424 18.2451C98.7337 18.2451 98.2571 18.4321 97.9124 18.8061C97.5677 19.1728 97.3954 19.6971 97.3954 20.3791V23.3271H96.6144ZM103.343 23.3821C102.741 23.3821 102.213 23.2575 101.759 23.0081C101.304 22.7515 100.948 22.4031 100.692 21.9631C100.435 21.5158 100.307 21.0061 100.307 20.4341C100.307 19.8621 100.428 19.3561 100.67 18.9161C100.919 18.4761 101.256 18.1315 101.682 17.8821C102.114 17.6255 102.598 17.4971 103.134 17.4971C103.676 17.4971 104.157 17.6218 104.575 17.8711C105 18.1131 105.334 18.4578 105.576 18.9051C105.818 19.3451 105.939 19.8548 105.939 20.4341C105.939 20.4708 105.935 20.5111 105.928 20.5551C105.928 20.5918 105.928 20.6321 105.928 20.6761H100.901V20.0931H105.51L105.202 20.3241C105.202 19.9061 105.11 19.5358 104.927 19.2131C104.751 18.8831 104.509 18.6265 104.201 18.4431C103.893 18.2598 103.537 18.1681 103.134 18.1681C102.738 18.1681 102.382 18.2598 102.067 18.4431C101.751 18.6265 101.506 18.8831 101.33 19.2131C101.154 19.5431 101.066 19.9208 101.066 20.3461V20.4671C101.066 20.9071 101.161 21.2958 101.352 21.6331C101.55 21.9631 101.821 22.2235 102.166 22.4141C102.518 22.5975 102.917 22.6891 103.365 22.6891C103.717 22.6891 104.043 22.6268 104.344 22.5021C104.652 22.3775 104.916 22.1868 105.136 21.9301L105.576 22.4361C105.319 22.7441 104.996 22.9788 104.608 23.1401C104.226 23.3015 103.805 23.3821 103.343 23.3821ZM114.744 17.4971C115.214 17.4971 115.621 17.5888 115.965 17.7721C116.317 17.9481 116.589 18.2195 116.779 18.5861C116.977 18.9528 117.076 19.4148 117.076 19.9721V23.3271H116.295V20.0491C116.295 19.4405 116.149 18.9821 115.855 18.6741C115.569 18.3588 115.162 18.2011 114.634 18.2011C114.238 18.2011 113.894 18.2855 113.6 18.4541C113.314 18.6155 113.091 18.8538 112.929 19.1691C112.775 19.4771 112.698 19.8511 112.698 20.2911V23.3271H111.917V20.0491C111.917 19.4405 111.771 18.9821 111.477 18.6741C111.184 18.3588 110.773 18.2011 110.245 18.2011C109.857 18.2011 109.516 18.2855 109.222 18.4541C108.929 18.6155 108.702 18.8538 108.54 19.1691C108.386 19.4771 108.309 19.8511 108.309 20.2911V23.3271H107.528V17.5521H108.276V19.1141L108.155 18.8391C108.331 18.4211 108.614 18.0948 109.002 17.8601C109.398 17.6181 109.864 17.4971 110.399 17.4971C110.964 17.4971 111.444 17.6401 111.84 17.9261C112.236 18.2048 112.493 18.6265 112.61 19.1911L112.302 19.0701C112.471 18.6008 112.768 18.2231 113.193 17.9371C113.626 17.6438 114.143 17.4971 114.744 17.4971ZM119.194 23.3271V17.5521H119.975V23.3271H119.194ZM119.59 16.2761C119.429 16.2761 119.293 16.2211 119.183 16.1111C119.073 16.0011 119.018 15.8691 119.018 15.7151C119.018 15.5611 119.073 15.4328 119.183 15.3301C119.293 15.2201 119.429 15.1651 119.59 15.1651C119.752 15.1651 119.887 15.2165 119.997 15.3191C120.107 15.4218 120.162 15.5501 120.162 15.7041C120.162 15.8655 120.107 16.0011 119.997 16.1111C119.895 16.2211 119.759 16.2761 119.59 16.2761ZM124.536 23.3821C124.044 23.3821 123.615 23.2905 123.249 23.1071C122.882 22.9238 122.596 22.6488 122.391 22.2821C122.193 21.9155 122.094 21.4571 122.094 20.9071V17.5521H122.875V20.8191C122.875 21.4351 123.025 21.9008 123.326 22.2161C123.634 22.5241 124.063 22.6781 124.613 22.6781C125.016 22.6781 125.364 22.5975 125.658 22.4361C125.958 22.2675 126.186 22.0255 126.34 21.7101C126.501 21.3948 126.582 21.0171 126.582 20.5771V17.5521H127.363V23.3271H126.615V21.7431L126.736 22.0291C126.552 22.4545 126.266 22.7881 125.878 23.0301C125.496 23.2648 125.049 23.3821 124.536 23.3821ZM136.755 17.4971C137.225 17.4971 137.632 17.5888 137.976 17.7721C138.328 17.9481 138.6 18.2195 138.79 18.5861C138.988 18.9528 139.087 19.4148 139.087 19.9721V23.3271H138.306V20.0491C138.306 19.4405 138.16 18.9821 137.866 18.6741C137.58 18.3588 137.173 18.2011 136.645 18.2011C136.249 18.2011 135.905 18.2855 135.611 18.4541C135.325 18.6155 135.102 18.8538 134.94 19.1691C134.786 19.4771 134.709 19.8511 134.709 20.2911V23.3271H133.928V20.0491C133.928 19.4405 133.782 18.9821 133.488 18.6741C133.195 18.3588 132.784 18.2011 132.256 18.2011C131.868 18.2011 131.527 18.2855 131.233 18.4541C130.94 18.6155 130.713 18.8538 130.551 19.1691C130.397 19.4771 130.32 19.8511 130.32 20.2911V23.3271H129.539V17.5521H130.287V19.1141L130.166 18.8391C130.342 18.4211 130.625 18.0948 131.013 17.8601C131.409 17.6181 131.875 17.4971 132.41 17.4971C132.975 17.4971 133.455 17.6401 133.851 17.9261C134.247 18.2048 134.504 18.6265 134.621 19.1911L134.313 19.0701C134.482 18.6008 134.779 18.2231 135.204 17.9371C135.637 17.6438 136.154 17.4971 136.755 17.4971ZM146.482 23.3821C145.91 23.3821 145.397 23.2575 144.942 23.0081C144.495 22.7515 144.143 22.4031 143.886 21.9631C143.629 21.5158 143.501 21.0061 143.501 20.4341C143.501 19.8548 143.629 19.3451 143.886 18.9051C144.143 18.4651 144.495 18.1205 144.942 17.8711C145.397 17.6218 145.91 17.4971 146.482 17.4971C146.973 17.4971 147.417 17.5925 147.813 17.7831C148.209 17.9738 148.521 18.2598 148.748 18.6411L148.165 19.0371C147.967 18.7438 147.721 18.5275 147.428 18.3881C147.135 18.2488 146.816 18.1791 146.471 18.1791C146.06 18.1791 145.69 18.2745 145.36 18.4651C145.03 18.6485 144.77 18.9088 144.579 19.2461C144.388 19.5835 144.293 19.9795 144.293 20.4341C144.293 20.8888 144.388 21.2848 144.579 21.6221C144.77 21.9595 145.03 22.2235 145.36 22.4141C145.69 22.5975 146.06 22.6891 146.471 22.6891C146.816 22.6891 147.135 22.6195 147.428 22.4801C147.721 22.3408 147.967 22.1281 148.165 21.8421L148.748 22.2381C148.521 22.6121 148.209 22.8981 147.813 23.0961C147.417 23.2868 146.973 23.3821 146.482 23.3821ZM152.669 23.3821C152.178 23.3821 151.749 23.2905 151.382 23.1071C151.016 22.9238 150.73 22.6488 150.524 22.2821C150.326 21.9155 150.227 21.4571 150.227 20.9071V17.5521H151.008V20.8191C151.008 21.4351 151.159 21.9008 151.459 22.2161C151.767 22.5241 152.196 22.6781 152.746 22.6781C153.15 22.6781 153.498 22.5975 153.791 22.4361C154.092 22.2675 154.319 22.0255 154.473 21.7101C154.635 21.3948 154.715 21.0171 154.715 20.5771V17.5521H155.496V23.3271H154.748V21.7431L154.869 22.0291C154.686 22.4545 154.4 22.7881 154.011 23.0301C153.63 23.2648 153.183 23.3821 152.669 23.3821ZM160.654 23.3821C160.155 23.3821 159.704 23.2685 159.301 23.0411C158.898 22.8065 158.575 22.4728 158.333 22.0401C158.098 21.6001 157.981 21.0648 157.981 20.4341C157.981 19.8035 158.098 19.2718 158.333 18.8391C158.568 18.3991 158.887 18.0655 159.29 17.8381C159.693 17.6108 160.148 17.4971 160.654 17.4971C161.204 17.4971 161.695 17.6218 162.128 17.8711C162.568 18.1131 162.913 18.4578 163.162 18.9051C163.411 19.3451 163.536 19.8548 163.536 20.4341C163.536 21.0208 163.411 21.5341 163.162 21.9741C162.913 22.4141 162.568 22.7588 162.128 23.0081C161.695 23.2575 161.204 23.3821 160.654 23.3821ZM157.673 25.4611V17.5521H158.421V19.2901L158.344 20.4451L158.454 21.6111V25.4611H157.673ZM160.599 22.6891C161.01 22.6891 161.376 22.5975 161.699 22.4141C162.022 22.2235 162.278 21.9595 162.469 21.6221C162.66 21.2775 162.755 20.8815 162.755 20.4341C162.755 19.9868 162.66 19.5945 162.469 19.2571C162.278 18.9198 162.022 18.6558 161.699 18.4651C161.376 18.2745 161.01 18.1791 160.599 18.1791C160.188 18.1791 159.818 18.2745 159.488 18.4651C159.165 18.6558 158.909 18.9198 158.718 19.2571C158.535 19.5945 158.443 19.9868 158.443 20.4341C158.443 20.8815 158.535 21.2775 158.718 21.6221C158.909 21.9595 159.165 22.2235 159.488 22.4141C159.818 22.5975 160.188 22.6891 160.599 22.6891ZM166.679 23.3821C166.202 23.3821 165.751 23.3161 165.326 23.1841C164.901 23.0448 164.567 22.8725 164.325 22.6671L164.677 22.0511C164.912 22.2271 165.212 22.3811 165.579 22.5131C165.946 22.6378 166.331 22.7001 166.734 22.7001C167.284 22.7001 167.68 22.6158 167.922 22.4471C168.164 22.2711 168.285 22.0401 168.285 21.7541C168.285 21.5415 168.215 21.3765 168.076 21.2591C167.944 21.1345 167.768 21.0428 167.548 20.9841C167.328 20.9181 167.082 20.8631 166.811 20.8191C166.54 20.7751 166.268 20.7238 165.997 20.6651C165.733 20.6065 165.491 20.5221 165.271 20.4121C165.051 20.2948 164.871 20.1371 164.732 19.9391C164.6 19.7411 164.534 19.4771 164.534 19.1471C164.534 18.8318 164.622 18.5495 164.798 18.3001C164.974 18.0508 165.231 17.8565 165.568 17.7171C165.913 17.5705 166.331 17.4971 166.822 17.4971C167.196 17.4971 167.57 17.5485 167.944 17.6511C168.318 17.7465 168.626 17.8748 168.868 18.0361L168.527 18.6631C168.27 18.4871 167.995 18.3625 167.702 18.2891C167.409 18.2085 167.115 18.1681 166.822 18.1681C166.301 18.1681 165.916 18.2598 165.667 18.4431C165.425 18.6191 165.304 18.8465 165.304 19.1251C165.304 19.3451 165.37 19.5175 165.502 19.6421C165.641 19.7668 165.821 19.8658 166.041 19.9391C166.268 20.0051 166.514 20.0601 166.778 20.1041C167.049 20.1481 167.317 20.2031 167.581 20.2691C167.852 20.3278 168.098 20.4121 168.318 20.5221C168.545 20.6248 168.725 20.7751 168.857 20.9731C168.996 21.1638 169.066 21.4168 169.066 21.7321C169.066 22.0695 168.971 22.3628 168.78 22.6121C168.597 22.8541 168.325 23.0448 167.966 23.1841C167.614 23.3161 167.185 23.3821 166.679 23.3821ZM1.0335 38.3271V31.8261C1.0335 31.3128 1.18383 30.8985 1.4845 30.5831C1.78517 30.2678 2.21783 30.1101 2.7825 30.1101C3.0025 30.1101 3.21517 30.1395 3.4205 30.1981C3.62583 30.2568 3.79817 30.3485 3.9375 30.4731L3.6735 31.0561C3.5635 30.9608 3.43517 30.8911 3.2885 30.8471C3.14183 30.7958 2.98417 30.7701 2.8155 30.7701C2.4855 30.7701 2.2325 30.8618 2.0565 31.0451C1.8805 31.2285 1.7925 31.4998 1.7925 31.8591V32.7391L1.8145 33.1021V38.3271H1.0335ZM-0.00049999 33.2011V32.5521H3.5745V33.2011H-0.00049999ZM6.88636 38.3821C6.32903 38.3821 5.82669 38.2575 5.37936 38.0081C4.93936 37.7515 4.59103 37.4031 4.33436 36.9631C4.07769 36.5158 3.94936 36.0061 3.94936 35.4341C3.94936 34.8548 4.07769 34.3451 4.33436 33.9051C4.59103 33.4651 4.93936 33.1205 5.37936 32.8711C5.81936 32.6218 6.32169 32.4971 6.88636 32.4971C7.45836 32.4971 7.96436 32.6218 8.40436 32.8711C8.85169 33.1205 9.20003 33.4651 9.44936 33.9051C9.70603 34.3451 9.83436 34.8548 9.83436 35.4341C9.83436 36.0061 9.70603 36.5158 9.44936 36.9631C9.20003 37.4031 8.85169 37.7515 8.40436 38.0081C7.95703 38.2575 7.45103 38.3821 6.88636 38.3821ZM6.88636 37.6891C7.30436 37.6891 7.67469 37.5975 7.99736 37.4141C8.32003 37.2235 8.57303 36.9595 8.75636 36.6221C8.94703 36.2775 9.04236 35.8815 9.04236 35.4341C9.04236 34.9795 8.94703 34.5835 8.75636 34.2461C8.57303 33.9088 8.32003 33.6485 7.99736 33.4651C7.67469 33.2745 7.30803 33.1791 6.89736 33.1791C6.48669 33.1791 6.12003 33.2745 5.79736 33.4651C5.47469 33.6485 5.21803 33.9088 5.02736 34.2461C4.83669 34.5835 4.74136 34.9795 4.74136 35.4341C4.74136 35.8815 4.83669 36.2775 5.02736 36.6221C5.21803 36.9595 5.47469 37.2235 5.79736 37.4141C6.12003 37.5975 6.48303 37.6891 6.88636 37.6891ZM11.4288 38.3271V32.5521H12.1768V34.1251L12.0998 33.8501C12.2612 33.4101 12.5325 33.0765 12.9138 32.8491C13.2952 32.6145 13.7682 32.4971 14.3328 32.4971V33.2561C14.3035 33.2561 14.2742 33.2561 14.2448 33.2561C14.2155 33.2488 14.1862 33.2451 14.1568 33.2451C13.5482 33.2451 13.0715 33.4321 12.7268 33.8061C12.3822 34.1728 12.2098 34.6971 12.2098 35.3791V38.3271H11.4288ZM20.2738 38.3821C19.7971 38.3821 19.3461 38.3161 18.9208 38.1841C18.4955 38.0448 18.1618 37.8725 17.9198 37.6671L18.2718 37.0511C18.5065 37.2271 18.8071 37.3811 19.1738 37.5131C19.5405 37.6378 19.9255 37.7001 20.3288 37.7001C20.8788 37.7001 21.2748 37.6158 21.5168 37.4471C21.7588 37.2711 21.8798 37.0401 21.8798 36.7541C21.8798 36.5415 21.8101 36.3765 21.6708 36.2591C21.5388 36.1345 21.3628 36.0428 21.1428 35.9841C20.9228 35.9181 20.6771 35.8631 20.4058 35.8191C20.1345 35.7751 19.8631 35.7238 19.5918 35.6651C19.3278 35.6065 19.0858 35.5221 18.8658 35.4121C18.6458 35.2948 18.4661 35.1371 18.3268 34.9391C18.1948 34.7411 18.1288 34.4771 18.1288 34.1471C18.1288 33.8318 18.2168 33.5495 18.3928 33.3001C18.5688 33.0508 18.8255 32.8565 19.1628 32.7171C19.5075 32.5705 19.9255 32.4971 20.4168 32.4971C20.7908 32.4971 21.1648 32.5485 21.5388 32.6511C21.9128 32.7465 22.2208 32.8748 22.4628 33.0361L22.1218 33.6631C21.8651 33.4871 21.5901 33.3625 21.2968 33.2891C21.0035 33.2085 20.7101 33.1681 20.4168 33.1681C19.8961 33.1681 19.5111 33.2598 19.2618 33.4431C19.0198 33.6191 18.8988 33.8465 18.8988 34.1251C18.8988 34.3451 18.9648 34.5175 19.0968 34.6421C19.2361 34.7668 19.4158 34.8658 19.6358 34.9391C19.8631 35.0051 20.1088 35.0601 20.3728 35.1041C20.6441 35.1481 20.9118 35.2031 21.1758 35.2691C21.4471 35.3278 21.6928 35.4121 21.9128 35.5221C22.1401 35.6248 22.3198 35.7751 22.4518 35.9731C22.5911 36.1638 22.6608 36.4168 22.6608 36.7321C22.6608 37.0695 22.5655 37.3628 22.3748 37.6121C22.1915 37.8541 21.9201 38.0448 21.5608 38.1841C21.2088 38.3161 20.7798 38.3821 20.2738 38.3821ZM24.0939 38.3271V32.5521H24.8749V38.3271H24.0939ZM24.4899 31.2761C24.3285 31.2761 24.1929 31.2211 24.0829 31.1111C23.9729 31.0011 23.9179 30.8691 23.9179 30.7151C23.9179 30.5611 23.9729 30.4328 24.0829 30.3301C24.1929 30.2201 24.3285 30.1651 24.4899 30.1651C24.6512 30.1651 24.7869 30.2165 24.8969 30.3191C25.0069 30.4218 25.0619 30.5501 25.0619 30.7041C25.0619 30.8655 25.0069 31.0011 24.8969 31.1111C24.7942 31.2211 24.6585 31.2761 24.4899 31.2761ZM29.996 32.4971C30.4653 32.4971 30.876 32.5888 31.228 32.7721C31.5873 32.9481 31.866 33.2195 32.064 33.5861C32.2693 33.9528 32.372 34.4148 32.372 34.9721V38.3271H31.591V35.0491C31.591 34.4405 31.437 33.9821 31.129 33.6741C30.8283 33.3588 30.403 33.2011 29.853 33.2011C29.4423 33.2011 29.083 33.2855 28.775 33.4541C28.4743 33.6155 28.2397 33.8538 28.071 34.1691C27.9097 34.4771 27.829 34.8511 27.829 35.2911V38.3271H27.048V32.5521H27.796V34.1361L27.675 33.8391C27.8583 33.4211 28.1517 33.0948 28.555 32.8601C28.9583 32.6181 29.4387 32.4971 29.996 32.4971ZM36.9456 40.5161C36.4176 40.5161 35.9116 40.4391 35.4276 40.2851C34.9436 40.1311 34.5512 39.9111 34.2506 39.6251L34.6466 39.0311C34.9179 39.2731 35.2516 39.4638 35.6476 39.6031C36.0509 39.7498 36.4762 39.8231 36.9236 39.8231C37.6569 39.8231 38.1959 39.6508 38.5406 39.3061C38.8852 38.9688 39.0576 38.4408 39.0576 37.7221V36.2811L39.1676 35.2911L39.0906 34.3011V32.5521H39.8386V37.6231C39.8386 38.6205 39.5929 39.3501 39.1016 39.8121C38.6176 40.2815 37.8989 40.5161 36.9456 40.5161ZM36.8026 38.1071C36.2526 38.1071 35.7576 37.9898 35.3176 37.7551C34.8776 37.5131 34.5292 37.1795 34.2726 36.7541C34.0232 36.3288 33.8986 35.8411 33.8986 35.2911C33.8986 34.7411 34.0232 34.2571 34.2726 33.8391C34.5292 33.4138 34.8776 33.0838 35.3176 32.8491C35.7576 32.6145 36.2526 32.4971 36.8026 32.4971C37.3159 32.4971 37.7779 32.6035 38.1886 32.8161C38.5992 33.0288 38.9256 33.3441 39.1676 33.7621C39.4096 34.1801 39.5306 34.6898 39.5306 35.2911C39.5306 35.8925 39.4096 36.4021 39.1676 36.8201C38.9256 37.2381 38.5992 37.5571 38.1886 37.7771C37.7779 37.9971 37.3159 38.1071 36.8026 38.1071ZM36.8796 37.4141C37.3049 37.4141 37.6826 37.3261 38.0126 37.1501C38.3426 36.9668 38.6029 36.7175 38.7936 36.4021C38.9842 36.0795 39.0796 35.7091 39.0796 35.2911C39.0796 34.8731 38.9842 34.5065 38.7936 34.1911C38.6029 33.8758 38.3426 33.6301 38.0126 33.4541C37.6826 33.2708 37.3049 33.1791 36.8796 33.1791C36.4616 33.1791 36.0839 33.2708 35.7466 33.4541C35.4166 33.6301 35.1562 33.8758 34.9656 34.1911C34.7822 34.5065 34.6906 34.8731 34.6906 35.2911C34.6906 35.7091 34.7822 36.0795 34.9656 36.4021C35.1562 36.7175 35.4166 36.9668 35.7466 37.1501C36.0839 37.3261 36.4616 37.4141 36.8796 37.4141ZM42.0119 38.3271V30.1651H42.7929V38.3271H42.0119ZM47.419 38.3821C46.8176 38.3821 46.2896 38.2575 45.835 38.0081C45.3803 37.7515 45.0246 37.4031 44.768 36.9631C44.5113 36.5158 44.383 36.0061 44.383 35.4341C44.383 34.8621 44.504 34.3561 44.746 33.9161C44.9953 33.4761 45.3326 33.1315 45.758 32.8821C46.1906 32.6255 46.6746 32.4971 47.21 32.4971C47.7526 32.4971 48.233 32.6218 48.651 32.8711C49.0763 33.1131 49.41 33.4578 49.652 33.9051C49.894 34.3451 50.015 34.8548 50.015 35.4341C50.015 35.4708 50.0113 35.5111 50.004 35.5551C50.004 35.5918 50.004 35.6321 50.004 35.6761H44.977V35.0931H49.586L49.278 35.3241C49.278 34.9061 49.1863 34.5358 49.003 34.2131C48.827 33.8831 48.585 33.6265 48.277 33.4431C47.969 33.2598 47.6133 33.1681 47.21 33.1681C46.814 33.1681 46.4583 33.2598 46.143 33.4431C45.8276 33.6265 45.582 33.8831 45.406 34.2131C45.23 34.5431 45.142 34.9208 45.142 35.3461V35.4671C45.142 35.9071 45.2373 36.2958 45.428 36.6331C45.626 36.9631 45.8973 37.2235 46.242 37.4141C46.594 37.5975 46.9936 37.6891 47.441 37.6891C47.793 37.6891 48.1193 37.6268 48.42 37.5021C48.728 37.3775 48.992 37.1868 49.212 36.9301L49.652 37.4361C49.3953 37.7441 49.0726 37.9788 48.684 38.1401C48.3026 38.3015 47.881 38.3821 47.419 38.3821ZM51.283 35.6871V35.0051H54.165V35.6871H51.283ZM57.4632 38.3821C56.9866 38.3821 56.5356 38.3161 56.1102 38.1841C55.6849 38.0448 55.3512 37.8725 55.1092 37.6671L55.4612 37.0511C55.6959 37.2271 55.9966 37.3811 56.3632 37.5131C56.7299 37.6378 57.1149 37.7001 57.5182 37.7001C58.0682 37.7001 58.4642 37.6158 58.7062 37.4471C58.9482 37.2711 59.0692 37.0401 59.0692 36.7541C59.0692 36.5415 58.9996 36.3765 58.8602 36.2591C58.7282 36.1345 58.5522 36.0428 58.3322 35.9841C58.1122 35.9181 57.8666 35.8631 57.5952 35.8191C57.3239 35.7751 57.0526 35.7238 56.7812 35.6651C56.5172 35.6065 56.2752 35.5221 56.0552 35.4121C55.8352 35.2948 55.6556 35.1371 55.5162 34.9391C55.3842 34.7411 55.3182 34.4771 55.3182 34.1471C55.3182 33.8318 55.4062 33.5495 55.5822 33.3001C55.7582 33.0508 56.0149 32.8565 56.3522 32.7171C56.6969 32.5705 57.1149 32.4971 57.6062 32.4971C57.9802 32.4971 58.3542 32.5485 58.7282 32.6511C59.1022 32.7465 59.4102 32.8748 59.6522 33.0361L59.3112 33.6631C59.0546 33.4871 58.7796 33.3625 58.4862 33.2891C58.1929 33.2085 57.8996 33.1681 57.6062 33.1681C57.0856 33.1681 56.7006 33.2598 56.4512 33.4431C56.2092 33.6191 56.0882 33.8465 56.0882 34.1251C56.0882 34.3451 56.1542 34.5175 56.2862 34.6421C56.4256 34.7668 56.6052 34.8658 56.8252 34.9391C57.0526 35.0051 57.2982 35.0601 57.5622 35.1041C57.8336 35.1481 58.1012 35.2031 58.3652 35.2691C58.6366 35.3278 58.8822 35.4121 59.1022 35.5221C59.3296 35.6248 59.5092 35.7751 59.6412 35.9731C59.7806 36.1638 59.8502 36.4168 59.8502 36.7321C59.8502 37.0695 59.7549 37.3628 59.5642 37.6121C59.3809 37.8541 59.1096 38.0448 58.7502 38.1841C58.3982 38.3161 57.9692 38.3821 57.4632 38.3821ZM63.7363 38.3821C63.135 38.3821 62.607 38.2575 62.1523 38.0081C61.6977 37.7515 61.342 37.4031 61.0853 36.9631C60.8287 36.5158 60.7003 36.0061 60.7003 35.4341C60.7003 34.8621 60.8213 34.3561 61.0633 33.9161C61.3127 33.4761 61.65 33.1315 62.0753 32.8821C62.508 32.6255 62.992 32.4971 63.5273 32.4971C64.07 32.4971 64.5503 32.6218 64.9683 32.8711C65.3937 33.1131 65.7273 33.4578 65.9693 33.9051C66.2113 34.3451 66.3323 34.8548 66.3323 35.4341C66.3323 35.4708 66.3287 35.5111 66.3213 35.5551C66.3213 35.5918 66.3213 35.6321 66.3213 35.6761H61.2943V35.0931H65.9033L65.5953 35.3241C65.5953 34.9061 65.5037 34.5358 65.3203 34.2131C65.1443 33.8831 64.9023 33.6265 64.5943 33.4431C64.2863 33.2598 63.9307 33.1681 63.5273 33.1681C63.1313 33.1681 62.7757 33.2598 62.4603 33.4431C62.145 33.6265 61.8993 33.8831 61.7233 34.2131C61.5473 34.5431 61.4593 34.9208 61.4593 35.3461V35.4671C61.4593 35.9071 61.5547 36.2958 61.7453 36.6331C61.9433 36.9631 62.2147 37.2235 62.5593 37.4141C62.9113 37.5975 63.311 37.6891 63.7583 37.6891C64.1103 37.6891 64.4367 37.6268 64.7373 37.5021C65.0453 37.3775 65.3093 37.1868 65.5293 36.9301L65.9693 37.4361C65.7127 37.7441 65.39 37.9788 65.0013 38.1401C64.62 38.3015 64.1983 38.3821 63.7363 38.3821ZM67.922 38.3271V32.5521H68.67V34.1251L68.593 33.8501C68.7543 33.4101 69.0257 33.0765 69.407 32.8491C69.7883 32.6145 70.2613 32.4971 70.826 32.4971V33.2561C70.7967 33.2561 70.7673 33.2561 70.738 33.2561C70.7087 33.2488 70.6793 33.2451 70.65 33.2451C70.0413 33.2451 69.5647 33.4321 69.22 33.8061C68.8753 34.1728 68.703 34.6971 68.703 35.3791V38.3271H67.922ZM73.9832 38.3271L71.4202 32.5521H72.2342L74.5882 37.9091H74.2032L76.5902 32.5521H77.3602L74.7862 38.3271H73.9832ZM80.752 38.3821C80.1506 38.3821 79.6226 38.2575 79.168 38.0081C78.7133 37.7515 78.3576 37.4031 78.101 36.9631C77.8443 36.5158 77.716 36.0061 77.716 35.4341C77.716 34.8621 77.837 34.3561 78.079 33.9161C78.3283 33.4761 78.6656 33.1315 79.091 32.8821C79.5236 32.6255 80.0076 32.4971 80.543 32.4971C81.0856 32.4971 81.566 32.6218 81.984 32.8711C82.4093 33.1131 82.743 33.4578 82.985 33.9051C83.227 34.3451 83.348 34.8548 83.348 35.4341C83.348 35.4708 83.3443 35.5111 83.337 35.5551C83.337 35.5918 83.337 35.6321 83.337 35.6761H78.31V35.0931H82.919L82.611 35.3241C82.611 34.9061 82.5193 34.5358 82.336 34.2131C82.16 33.8831 81.918 33.6265 81.61 33.4431C81.302 33.2598 80.9463 33.1681 80.543 33.1681C80.147 33.1681 79.7913 33.2598 79.476 33.4431C79.1606 33.6265 78.915 33.8831 78.739 34.2131C78.563 34.5431 78.475 34.9208 78.475 35.3461V35.4671C78.475 35.9071 78.5703 36.2958 78.761 36.6331C78.959 36.9631 79.2303 37.2235 79.575 37.4141C79.927 37.5975 80.3266 37.6891 80.774 37.6891C81.126 37.6891 81.4523 37.6268 81.753 37.5021C82.061 37.3775 82.325 37.1868 82.545 36.9301L82.985 37.4361C82.7283 37.7441 82.4056 37.9788 82.017 38.1401C81.6356 38.3015 81.214 38.3821 80.752 38.3821ZM85.0146 38.3821C84.8533 38.3821 84.714 38.3235 84.5966 38.2061C84.4866 38.0888 84.4316 37.9458 84.4316 37.7771C84.4316 37.6011 84.4866 37.4581 84.5966 37.3481C84.714 37.2381 84.8533 37.1831 85.0146 37.1831C85.176 37.1831 85.3116 37.2381 85.4216 37.3481C85.539 37.4581 85.5976 37.6011 85.5976 37.7771C85.5976 37.9458 85.539 38.0888 85.4216 38.2061C85.3116 38.3235 85.176 38.3821 85.0146 38.3821Z" fill="black"/>
</svg>
