<svg width="80" height="33" viewBox="0 0 80 33" fill="none" xmlns="http://www.w3.org/2000/svg">
<path d="M4.80555 25.1945C4.91294 25.3018 5.08706 25.3018 5.19445 25.1945L6.94454 23.4444C7.05194 23.337 7.05194 23.1629 6.94454 23.0555C6.83715 22.9481 6.66303 22.9481 6.55564 23.0555L5 24.6111L3.44437 23.0555C3.33697 22.9481 3.16285 22.9481 3.05546 23.0555C2.94806 23.1629 2.94806 23.337 3.05546 23.4444L4.80555 25.1945ZM5.19446 9.80555C5.08706 9.69815 4.91294 9.69815 4.80555 9.80555L3.05546 11.5556C2.94806 11.663 2.94806 11.8371 3.05546 11.9445C3.16285 12.0519 3.33697 12.0519 3.44437 11.9445L5 10.3889L6.55564 11.9445C6.66303 12.0519 6.83715 12.0519 6.94454 11.9445C7.05194 11.8371 7.05194 11.663 6.94454 11.5556L5.19446 9.80555ZM5 25L5.275 25L5.275 10L5 10L4.725 10L4.725 25L5 25Z" fill="black"/>
<path d="M19.5633 24.8094C19.7157 23.2034 21.315 10.918 21.315 10.918C17.1648 11.6971 14.8113 11.6541 10.5762 10.9983C10.5762 10.9983 12.0234 22.9625 12.3279 24.8094C12.6325 26.6562 19.4109 26.4153 19.5633 24.8094Z" stroke="black" stroke-width="0.55"/>
<path d="M20.5 10C20.5511 10.0511 21.736 9.88861 21.736 10.0727C21.8894 10.1494 22 10.3028 22 10.4562C22 10.579 21.5398 10.7631 21.3096 10.8398C19.7244 11.3 15.3573 11.9597 10.5708 10.9165C10.264 10.7937 10.085 10.5585 10.0339 10.4562C10.0083 10.3795 9.97252 10.2108 10.0339 10.1494C10.0952 10.088 10.1617 10.0216 10.1873 9.996L10.3407 9.61247C10.3151 9.5869 11.2545 10 11.5 10" stroke="black" stroke-width="0.55"/>
<path d="M16.9014 9.27539C17.4053 9.27539 18.5645 9.2977 19.5938 9.4043C20.1106 9.45782 20.5802 9.53143 20.915 9.62891C21.0844 9.67821 21.2006 9.72827 21.2686 9.77344C21.2758 9.77824 21.2809 9.78417 21.2861 9.78809C21.2681 9.8069 21.2348 9.8366 21.1709 9.87305C21.0288 9.95413 20.8061 10.0336 20.5088 10.1074C19.9183 10.2541 19.104 10.3604 18.2314 10.4307C16.4855 10.5711 14.5682 10.566 13.8633 10.4912C13.3674 10.4386 12.5156 10.3088 11.7822 10.1357C11.4144 10.0489 11.0876 9.95315 10.8525 9.85547C10.7901 9.8295 10.7375 9.80433 10.6943 9.78125C10.8209 9.73101 11.006 9.68117 11.2451 9.63477C11.7673 9.53344 12.4831 9.45907 13.2412 9.40527C14.7545 9.2979 16.3968 9.27539 16.9014 9.27539Z" stroke="black" stroke-width="0.55"/>
<path d="M33.924 12.5V4.04H35.46V7.568H39.816V4.04H41.352V12.5H39.816V8.852H35.46V12.5H33.924ZM45.9533 12.62C45.2893 12.62 44.7173 12.496 44.2373 12.248C43.7573 12 43.3853 11.648 43.1213 11.192C42.8653 10.736 42.7373 10.196 42.7373 9.572C42.7373 8.964 42.8613 8.432 43.1093 7.976C43.3653 7.52 43.7133 7.164 44.1533 6.908C44.6013 6.644 45.1093 6.512 45.6773 6.512C46.2373 6.512 46.7173 6.632 47.1173 6.872C47.5173 7.112 47.8253 7.452 48.0413 7.892C48.2653 8.332 48.3773 8.856 48.3773 9.464V9.908H43.9493V9.044H47.3213L47.1293 9.224C47.1293 8.68 47.0093 8.264 46.7693 7.976C46.5293 7.68 46.1853 7.532 45.7373 7.532C45.4013 7.532 45.1133 7.612 44.8733 7.772C44.6413 7.924 44.4613 8.144 44.3333 8.432C44.2133 8.712 44.1533 9.048 44.1533 9.44V9.524C44.1533 9.964 44.2213 10.328 44.3573 10.616C44.4933 10.904 44.6973 11.12 44.9693 11.264C45.2413 11.408 45.5773 11.48 45.9773 11.48C46.3053 11.48 46.6333 11.432 46.9613 11.336C47.2893 11.232 47.5893 11.072 47.8613 10.856L48.2812 11.864C48.0013 12.096 47.6493 12.28 47.2253 12.416C46.8013 12.552 46.3773 12.62 45.9533 12.62ZM49.4692 5.372V3.908H51.1492V5.372H49.4692ZM49.5652 12.5V6.632H51.0652V12.5H49.5652ZM55.3598 14.78C54.8158 14.78 54.3038 14.716 53.8238 14.588C53.3518 14.468 52.9358 14.28 52.5758 14.024L53.0078 12.98C53.2318 13.124 53.4678 13.244 53.7158 13.34C53.9638 13.444 54.2158 13.52 54.4718 13.568C54.7278 13.616 54.9838 13.64 55.2398 13.64C55.7758 13.64 56.1758 13.508 56.4398 13.244C56.7118 12.988 56.8478 12.604 56.8478 12.092V11.012H56.9558C56.8358 11.42 56.5838 11.748 56.1998 11.996C55.8238 12.236 55.3958 12.356 54.9158 12.356C54.3878 12.356 53.9278 12.236 53.5358 11.996C53.1438 11.748 52.8398 11.404 52.6238 10.964C52.4078 10.524 52.2998 10.012 52.2998 9.428C52.2998 8.844 52.4078 8.336 52.6238 7.904C52.8398 7.464 53.1438 7.124 53.5358 6.884C53.9278 6.636 54.3878 6.512 54.9158 6.512C55.4118 6.512 55.8438 6.636 56.2118 6.884C56.5878 7.124 56.8318 7.444 56.9438 7.844H56.8478V6.632H58.3118V11.912C58.3118 12.544 58.1998 13.072 57.9758 13.496C57.7518 13.928 57.4198 14.248 56.9798 14.456C56.5398 14.672 55.9998 14.78 55.3598 14.78ZM55.3238 11.216C55.7878 11.216 56.1558 11.056 56.4278 10.736C56.6998 10.416 56.8358 9.98 56.8358 9.428C56.8358 8.876 56.6998 8.444 56.4278 8.132C56.1558 7.812 55.7878 7.652 55.3238 7.652C54.8598 7.652 54.4918 7.812 54.2198 8.132C53.9478 8.444 53.8118 8.876 53.8118 9.428C53.8118 9.98 53.9478 10.416 54.2198 10.736C54.4918 11.056 54.8598 11.216 55.3238 11.216ZM59.8659 12.5V4.04H61.3659V7.808H61.1979C61.3739 7.384 61.6459 7.064 62.0139 6.848C62.3899 6.624 62.8139 6.512 63.2859 6.512C63.7579 6.512 64.1459 6.6 64.4499 6.776C64.7539 6.952 64.9819 7.22 65.1339 7.58C65.2859 7.932 65.3619 8.38 65.3619 8.924V12.5H63.8619V8.996C63.8619 8.692 63.8219 8.444 63.7419 8.252C63.6699 8.06 63.5539 7.92 63.3939 7.832C63.2419 7.736 63.0459 7.688 62.8059 7.688C62.5179 7.688 62.2659 7.752 62.0499 7.88C61.8339 8 61.6659 8.176 61.5459 8.408C61.4259 8.632 61.3659 8.896 61.3659 9.2V12.5H59.8659ZM69.5735 12.62C68.7895 12.62 68.2055 12.424 67.8215 12.032C67.4375 11.64 67.2455 11.068 67.2455 10.316V7.76H66.1175V6.632H67.2455V4.88H68.7455V6.632H70.5215V7.76H68.7455V10.232C68.7455 10.616 68.8295 10.904 68.9975 11.096C69.1655 11.288 69.4375 11.384 69.8135 11.384C69.9255 11.384 70.0415 11.372 70.1615 11.348C70.2815 11.316 70.4055 11.284 70.5335 11.252L70.7615 12.356C70.6175 12.436 70.4335 12.5 70.2095 12.548C69.9935 12.596 69.7815 12.62 69.5735 12.62Z" fill="#CF4747"/>
<path d="M34.08 28.5V27.77H35.85V22.16L36.3 22.19L34.43 23.39L34.05 22.74L36.08 21.45H36.7V27.77H38.34V28.5H34.08ZM40.0761 28.5V27.77H41.8461V22.16L42.2961 22.19L40.4261 23.39L40.0461 22.74L42.0761 21.45H42.6961V27.77H44.3361V28.5H40.0761ZM45.8522 28.5V27.86L48.2922 25.26C48.5255 25.0067 48.7122 24.7767 48.8522 24.57C48.9922 24.3567 49.0922 24.15 49.1522 23.95C49.2122 23.75 49.2422 23.5467 49.2422 23.34C49.2422 22.9467 49.1189 22.6433 48.8722 22.43C48.6322 22.2167 48.2822 22.11 47.8222 22.11C47.4822 22.11 47.1522 22.1767 46.8322 22.31C46.5122 22.4367 46.2122 22.64 45.9322 22.92L45.6022 22.25C45.8822 21.9767 46.2222 21.76 46.6222 21.6C47.0289 21.44 47.4522 21.36 47.8922 21.36C48.3589 21.36 48.7555 21.4367 49.0822 21.59C49.4155 21.7433 49.6689 21.9633 49.8422 22.25C50.0155 22.5367 50.1022 22.88 50.1022 23.28C50.1022 23.4933 50.0755 23.7 50.0222 23.9C49.9755 24.1 49.9022 24.3 49.8022 24.5C49.7022 24.7 49.5722 24.9067 49.4122 25.12C49.2589 25.3267 49.0755 25.54 48.8622 25.76L46.8222 27.9V27.76H50.3922V28.5H45.8522ZM51.6583 28.5V27.44H52.7483V28.5H51.6583ZM56.5399 28.59C56.2333 28.59 55.9366 28.5567 55.6499 28.49C55.3633 28.4233 55.0966 28.3267 54.8499 28.2C54.6033 28.0733 54.3833 27.92 54.1899 27.74L54.5199 27.06C54.8333 27.3267 55.1533 27.5233 55.4799 27.65C55.8066 27.7767 56.1566 27.84 56.5299 27.84C57.0233 27.84 57.4066 27.7067 57.6799 27.44C57.9599 27.1733 58.0999 26.8133 58.0999 26.36C58.0999 25.9 57.9666 25.5267 57.6999 25.24C57.4399 24.9533 57.0799 24.81 56.6199 24.81C56.2933 24.81 56.0033 24.8767 55.7499 25.01C55.4966 25.1367 55.2666 25.3467 55.0599 25.64H54.4099V21.45H58.5599V22.19H55.2199V24.91H55.0799C55.2533 24.6567 55.4833 24.4567 55.7699 24.31C56.0633 24.1567 56.3933 24.08 56.7599 24.08C57.2066 24.08 57.5933 24.1733 57.9199 24.36C58.2466 24.5467 58.4966 24.8067 58.6699 25.14C58.8499 25.4733 58.9399 25.8633 58.9399 26.31C58.9399 26.77 58.8399 27.17 58.6399 27.51C58.4466 27.85 58.1699 28.1167 57.8099 28.31C57.4566 28.4967 57.0333 28.59 56.5399 28.59ZM62.9318 28.5V23.6H63.7418V24.68H63.6818C63.7685 24.4467 63.8885 24.2433 64.0418 24.07C64.2018 23.89 64.3918 23.7533 64.6118 23.66C64.8318 23.56 65.0751 23.51 65.3418 23.51C65.7618 23.51 66.1051 23.6133 66.3718 23.82C66.6385 24.0267 66.8118 24.3167 66.8918 24.69H66.8118C66.9385 24.3433 67.1518 24.06 67.4518 23.84C67.7518 23.62 68.1151 23.51 68.5418 23.51C68.9151 23.51 69.2251 23.5833 69.4718 23.73C69.7185 23.87 69.9051 24.0833 70.0318 24.37C70.1585 24.6567 70.2218 25.02 70.2218 25.46V28.5H69.3818V25.51C69.3818 25.0767 69.3018 24.7533 69.1418 24.54C68.9885 24.3267 68.7218 24.22 68.3418 24.22C68.0685 24.22 67.8285 24.2867 67.6218 24.42C67.4218 24.5467 67.2685 24.7233 67.1618 24.95C67.0551 25.1767 67.0018 25.4433 67.0018 25.75V28.5H66.1518V25.51C66.1518 25.0767 66.0685 24.7533 65.9018 24.54C65.7418 24.3267 65.4818 24.22 65.1218 24.22C64.8485 24.22 64.6085 24.2867 64.4018 24.42C64.2018 24.5533 64.0485 24.7367 63.9418 24.97C63.8351 25.1967 63.7818 25.45 63.7818 25.73V28.5H62.9318ZM71.8771 28.5V23.6H72.6871V24.68H72.6271C72.7138 24.4467 72.8338 24.2433 72.9871 24.07C73.1471 23.89 73.3371 23.7533 73.5571 23.66C73.7771 23.56 74.0204 23.51 74.2871 23.51C74.7071 23.51 75.0504 23.6133 75.3171 23.82C75.5838 24.0267 75.7571 24.3167 75.8371 24.69H75.7571C75.8838 24.3433 76.0971 24.06 76.3971 23.84C76.6971 23.62 77.0604 23.51 77.4871 23.51C77.8604 23.51 78.1704 23.5833 78.4171 23.73C78.6638 23.87 78.8504 24.0833 78.9771 24.37C79.1038 24.6567 79.1671 25.02 79.1671 25.46V28.5H78.3271V25.51C78.3271 25.0767 78.2471 24.7533 78.0871 24.54C77.9338 24.3267 77.6671 24.22 77.2871 24.22C77.0138 24.22 76.7738 24.2867 76.5671 24.42C76.3671 24.5467 76.2138 24.7233 76.1071 24.95C76.0004 25.1767 75.9471 25.4433 75.9471 25.75V28.5H75.0971V25.51C75.0971 25.0767 75.0138 24.7533 74.8471 24.54C74.6871 24.3267 74.4271 24.22 74.0671 24.22C73.7938 24.22 73.5538 24.2867 73.3471 24.42C73.1471 24.5533 72.9938 24.7367 72.8871 24.97C72.7804 25.1967 72.7271 25.45 72.7271 25.73V28.5H71.8771Z" fill="black"/>
</svg>
