<svg width="161" height="29" viewBox="0 0 161 29" fill="none" xmlns="http://www.w3.org/2000/svg">
<rect x="0.5" y="0.5" width="160" height="28" rx="14" stroke="#CF4747"/>
<path d="M9.56269 19V9.99641H11.6464V19H9.56269ZM13.7831 19V9.99641H15.5067L19.3396 16.3504H18.4264L22.195 9.99641H23.9057L23.9315 19H21.9764L21.9635 12.9933H22.3237L19.3139 18.0482H18.375L15.3009 12.9933H15.7382V19H13.7831ZM26.0676 19V9.99641H28.1513V17.3022H32.6659V19H26.0676ZM37.4728 19V9.99641H39.1964L43.0293 16.3504H42.1161L45.8847 9.99641H47.5954L47.6212 19H45.6661L45.6532 12.9933H46.0134L43.0036 18.0482H42.0647L38.9906 12.9933H39.4279V19H37.4728ZM54.1305 19.1543C53.4188 19.1543 52.7585 19.0386 52.1497 18.8071C51.5494 18.5755 51.0264 18.2497 50.5805 17.8295C50.1432 17.4094 49.8002 16.9163 49.5515 16.3504C49.3114 15.7844 49.1914 15.167 49.1914 14.4982C49.1914 13.8294 49.3114 13.212 49.5515 12.646C49.8002 12.0801 50.1475 11.587 50.5933 11.1669C51.0392 10.7467 51.5623 10.4209 52.1625 10.1893C52.7628 9.95782 53.4145 9.84206 54.1176 9.84206C54.8293 9.84206 55.481 9.95782 56.0727 10.1893C56.6729 10.4209 57.1917 10.7467 57.629 11.1669C58.0749 11.587 58.4222 12.0801 58.6709 12.646C58.9195 13.2034 59.0439 13.8208 59.0439 14.4982C59.0439 15.167 58.9195 15.7887 58.6709 16.3632C58.4222 16.9292 58.0749 17.4222 57.629 17.8424C57.1917 18.254 56.6729 18.5755 56.0727 18.8071C55.481 19.0386 54.8336 19.1543 54.1305 19.1543ZM54.1176 17.3794C54.5206 17.3794 54.8893 17.3108 55.2238 17.1736C55.5668 17.0364 55.8669 16.8391 56.1241 16.5819C56.3814 16.3246 56.5786 16.0202 56.7158 15.6687C56.8616 15.3171 56.9344 14.9269 56.9344 14.4982C56.9344 14.0695 56.8616 13.6793 56.7158 13.3277C56.5786 12.9762 56.3814 12.6718 56.1241 12.4145C55.8755 12.1573 55.5796 11.96 55.2366 11.8228C54.8936 11.6857 54.5206 11.6171 54.1176 11.6171C53.7146 11.6171 53.3416 11.6857 52.9986 11.8228C52.6642 11.96 52.3683 12.1573 52.1111 12.4145C51.8538 12.6718 51.6523 12.9762 51.5066 13.3277C51.3694 13.6793 51.3008 14.0695 51.3008 14.4982C51.3008 14.9184 51.3694 15.3085 51.5066 15.6687C51.6523 16.0202 51.8496 16.3246 52.0982 16.5819C52.3555 16.8391 52.6556 17.0364 52.9986 17.1736C53.3416 17.3108 53.7146 17.3794 54.1176 17.3794ZM64.9702 19.1543C64.267 19.1543 63.611 19.0386 63.0022 18.8071C62.402 18.5755 61.8789 18.2497 61.433 17.8295C60.9957 17.4094 60.6527 16.9163 60.404 16.3504C60.164 15.7844 60.0439 15.167 60.0439 14.4982C60.0439 13.8294 60.164 13.212 60.404 12.646C60.6527 12.0801 61 11.587 61.4459 11.1669C61.8918 10.7467 62.4148 10.4209 63.0151 10.1893C63.6153 9.95782 64.267 9.84206 64.9702 9.84206C65.6819 9.84206 66.3336 9.95782 66.9252 10.1893C67.5255 10.4209 68.0442 10.7467 68.4816 11.1669C68.9274 11.5785 69.2747 12.0672 69.5234 12.6332C69.7721 13.1991 69.8964 13.8208 69.8964 14.4982C69.8964 15.167 69.7721 15.7887 69.5234 16.3632C69.2747 16.9292 68.9274 17.4222 68.4816 17.8424C68.0442 18.254 67.5255 18.5755 66.9252 18.8071C66.3336 19.0386 65.6819 19.1543 64.9702 19.1543ZM67.9156 21.0708C67.564 21.0708 67.2296 21.0322 66.9124 20.9551C66.6037 20.8779 66.295 20.7536 65.9863 20.5821C65.6862 20.4106 65.3689 20.179 65.0345 19.8875C64.7086 19.596 64.3528 19.2358 63.9669 18.8071L66.1535 18.254C66.385 18.5713 66.5994 18.8242 66.7966 19.0129C66.9938 19.2015 67.1825 19.3344 67.3625 19.4116C67.5512 19.4888 67.7484 19.5274 67.9542 19.5274C68.503 19.5274 68.9918 19.3044 69.4205 18.8585L70.3466 19.9647C69.7378 20.7021 68.9274 21.0708 67.9156 21.0708ZM64.9702 17.3794C65.3732 17.3794 65.7419 17.3108 66.0763 17.1736C66.4193 17.0364 66.7194 16.8391 66.9767 16.5819C67.2339 16.3246 67.4311 16.0202 67.5683 15.6687C67.7141 15.3085 67.787 14.9184 67.787 14.4982C67.787 14.0695 67.7141 13.6793 67.5683 13.3277C67.4311 12.9762 67.2339 12.6718 66.9767 12.4145C66.7194 12.1573 66.4193 11.96 66.0763 11.8228C65.7419 11.6857 65.3732 11.6171 64.9702 11.6171C64.5671 11.6171 64.1941 11.6857 63.8511 11.8228C63.5081 11.96 63.208 12.1573 62.9508 12.4145C62.7021 12.6718 62.5049 12.9762 62.3591 13.3277C62.2219 13.6793 62.1533 14.0695 62.1533 14.4982C62.1533 14.9184 62.2219 15.3085 62.3591 15.6687C62.5049 16.0202 62.7021 16.3246 62.9508 16.5819C63.208 16.8391 63.5081 17.0364 63.8511 17.1736C64.1941 17.3108 64.5671 17.3794 64.9702 17.3794ZM74.7063 16.1832V14.5754H78.3463V16.1832H74.7063ZM83.0661 19V17.6495L86.5389 14.3696C86.8133 14.1209 87.0148 13.898 87.1434 13.7007C87.272 13.5035 87.3578 13.3234 87.4007 13.1605C87.4521 12.9976 87.4778 12.8475 87.4778 12.7103C87.4778 12.3502 87.3535 12.0758 87.1048 11.8872C86.8647 11.6899 86.5089 11.5913 86.0373 11.5913C85.66 11.5913 85.3084 11.6642 84.9826 11.81C84.6653 11.9558 84.3952 12.183 84.1722 12.4917L82.6545 11.5142C82.9975 10.9997 83.4777 10.5924 84.0951 10.2922C84.7124 9.99212 85.4242 9.84206 86.2302 9.84206C86.899 9.84206 87.4821 9.95353 87.9795 10.1765C88.4854 10.3908 88.8755 10.6953 89.1499 11.0897C89.4329 11.4841 89.5744 11.9558 89.5744 12.5046C89.5744 12.7961 89.5358 13.0876 89.4586 13.3792C89.39 13.6622 89.2443 13.9623 89.0213 14.2795C88.8069 14.5968 88.4897 14.9527 88.0695 15.3471L85.1883 18.0611L84.7896 17.3022H89.8702V19H83.0661ZM90.4889 17.1092V15.7073L94.7335 9.99641H96.92L92.7655 15.7073L91.7494 15.4114H98.8365V17.1092H90.4889ZM95.338 19V17.1092L95.4023 15.4114V13.7265H97.3702V19H95.338ZM103.318 19.1543C102.581 19.1543 101.921 18.9743 101.338 18.6141C100.755 18.2454 100.296 17.7138 99.9614 17.0192C99.627 16.3246 99.4597 15.4843 99.4597 14.4982C99.4597 13.5121 99.627 12.6718 99.9614 11.9772C100.296 11.2826 100.755 10.7553 101.338 10.3951C101.921 10.0264 102.581 9.84206 103.318 9.84206C104.064 9.84206 104.725 10.0264 105.299 10.3951C105.882 10.7553 106.341 11.2826 106.675 11.9772C107.01 12.6718 107.177 13.5121 107.177 14.4982C107.177 15.4843 107.01 16.3246 106.675 17.0192C106.341 17.7138 105.882 18.2454 105.299 18.6141C104.725 18.9743 104.064 19.1543 103.318 19.1543ZM103.318 17.3922C103.67 17.3922 103.974 17.2936 104.232 17.0964C104.497 16.8992 104.703 16.5862 104.849 16.1574C105.003 15.7287 105.081 15.1756 105.081 14.4982C105.081 13.8208 105.003 13.2677 104.849 12.839C104.703 12.4102 104.497 12.0972 104.232 11.9C103.974 11.7028 103.67 11.6042 103.318 11.6042C102.975 11.6042 102.671 11.7028 102.405 11.9C102.148 12.0972 101.942 12.4102 101.788 12.839C101.642 13.2677 101.569 13.8208 101.569 14.4982C101.569 15.1756 101.642 15.7287 101.788 16.1574C101.942 16.5862 102.148 16.8992 102.405 17.0964C102.671 17.2936 102.975 17.3922 103.318 17.3922ZM112.048 19.1543C111.311 19.1543 110.65 18.9743 110.067 18.6141C109.484 18.2454 109.026 17.7138 108.691 17.0192C108.357 16.3246 108.19 15.4843 108.19 14.4982C108.19 13.5121 108.357 12.6718 108.691 11.9772C109.026 11.2826 109.484 10.7553 110.067 10.3951C110.65 10.0264 111.311 9.84206 112.048 9.84206C112.794 9.84206 113.454 10.0264 114.029 10.3951C114.612 10.7553 115.071 11.2826 115.405 11.9772C115.74 12.6718 115.907 13.5121 115.907 14.4982C115.907 15.4843 115.74 16.3246 115.405 17.0192C115.071 17.7138 114.612 18.2454 114.029 18.6141C113.454 18.9743 112.794 19.1543 112.048 19.1543ZM112.048 17.3922C112.4 17.3922 112.704 17.2936 112.961 17.0964C113.227 16.8992 113.433 16.5862 113.579 16.1574C113.733 15.7287 113.81 15.1756 113.81 14.4982C113.81 13.8208 113.733 13.2677 113.579 12.839C113.433 12.4102 113.227 12.0972 112.961 11.9C112.704 11.7028 112.4 11.6042 112.048 11.6042C111.705 11.6042 111.401 11.7028 111.135 11.9C110.878 12.0972 110.672 12.4102 110.518 12.839C110.372 13.2677 110.299 13.8208 110.299 14.4982C110.299 15.1756 110.372 15.7287 110.518 16.1574C110.672 16.5862 110.878 16.8992 111.135 17.0964C111.401 17.2936 111.705 17.3922 112.048 17.3922ZM120.778 19.1543C120.041 19.1543 119.38 18.9743 118.797 18.6141C118.214 18.2454 117.755 17.7138 117.421 17.0192C117.086 16.3246 116.919 15.4843 116.919 14.4982C116.919 13.5121 117.086 12.6718 117.421 11.9772C117.755 11.2826 118.214 10.7553 118.797 10.3951C119.38 10.0264 120.041 9.84206 120.778 9.84206C121.524 9.84206 122.184 10.0264 122.759 10.3951C123.342 10.7553 123.801 11.2826 124.135 11.9772C124.469 12.6718 124.637 13.5121 124.637 14.4982C124.637 15.4843 124.469 16.3246 124.135 17.0192C123.801 17.7138 123.342 18.2454 122.759 18.6141C122.184 18.9743 121.524 19.1543 120.778 19.1543ZM120.778 17.3922C121.13 17.3922 121.434 17.2936 121.691 17.0964C121.957 16.8992 122.163 16.5862 122.309 16.1574C122.463 15.7287 122.54 15.1756 122.54 14.4982C122.54 13.8208 122.463 13.2677 122.309 12.839C122.163 12.4102 121.957 12.0972 121.691 11.9C121.434 11.7028 121.13 11.6042 120.778 11.6042C120.435 11.6042 120.131 11.7028 119.865 11.9C119.608 12.0972 119.402 12.4102 119.247 12.839C119.102 13.2677 119.029 13.8208 119.029 14.4982C119.029 15.1756 119.102 15.7287 119.247 16.1574C119.402 16.5862 119.608 16.8992 119.865 17.0964C120.131 17.2936 120.435 17.3922 120.778 17.3922ZM129.858 19V9.99641H133.755C134.561 9.99641 135.255 10.1293 135.839 10.3951C136.422 10.6524 136.872 11.0254 137.189 11.5142C137.506 12.0029 137.665 12.586 137.665 13.2634C137.665 13.9323 137.506 14.5111 137.189 14.9998C136.872 15.4886 136.422 15.8659 135.839 16.1317C135.255 16.389 134.561 16.5176 133.755 16.5176H131.015L131.941 15.5786V19H129.858ZM131.941 15.8102L131.015 14.8198H133.639C134.282 14.8198 134.762 14.6826 135.08 14.4082C135.397 14.1338 135.556 13.7522 135.556 13.2634C135.556 12.7661 135.397 12.3802 135.08 12.1058C134.762 11.8314 134.282 11.6942 133.639 11.6942H131.015L131.941 10.7038V15.8102ZM142.343 19.1029C141.597 19.1029 140.932 18.9528 140.349 18.6527C139.766 18.344 139.307 17.9196 138.973 17.3794C138.647 16.8391 138.484 16.226 138.484 15.54C138.484 14.8455 138.647 14.2324 138.973 13.7007C139.307 13.1605 139.766 12.7404 140.349 12.4402C140.932 12.1315 141.597 11.9772 142.343 11.9772C143.072 11.9772 143.706 12.1315 144.246 12.4402C144.787 12.7404 145.185 13.1734 145.443 13.7393L143.886 14.5754C143.706 14.2495 143.479 14.0094 143.205 13.8551C142.939 13.7007 142.647 13.6236 142.33 13.6236C141.987 13.6236 141.678 13.7007 141.404 13.8551C141.129 14.0094 140.911 14.2281 140.748 14.5111C140.594 14.794 140.516 15.137 140.516 15.54C140.516 15.9431 140.594 16.2861 140.748 16.569C140.911 16.852 141.129 17.0707 141.404 17.225C141.678 17.3794 141.987 17.4565 142.33 17.4565C142.647 17.4565 142.939 17.3836 143.205 17.2379C143.479 17.0835 143.706 16.8391 143.886 16.5047L145.443 17.3536C145.185 17.911 144.787 18.344 144.246 18.6527C143.706 18.9528 143.072 19.1029 142.343 19.1029ZM148.926 19.1029C148.334 19.1029 147.764 19.0343 147.215 18.8971C146.675 18.7513 146.246 18.5713 145.929 18.3569L146.598 16.9163C146.915 17.1135 147.288 17.2765 147.717 17.4051C148.154 17.5251 148.583 17.5851 149.003 17.5851C149.466 17.5851 149.792 17.5294 149.981 17.4179C150.178 17.3065 150.276 17.1521 150.276 16.9549C150.276 16.792 150.199 16.6719 150.045 16.5948C149.899 16.509 149.702 16.4447 149.453 16.4018C149.205 16.3589 148.93 16.3161 148.63 16.2732C148.339 16.2303 148.043 16.1746 147.743 16.106C147.443 16.0288 147.168 15.9173 146.919 15.7716C146.671 15.6258 146.469 15.4286 146.315 15.1799C146.169 14.9312 146.096 14.6097 146.096 14.2152C146.096 13.7779 146.221 13.392 146.469 13.0576C146.727 12.7232 147.095 12.4617 147.575 12.273C148.056 12.0758 148.63 11.9772 149.299 11.9772C149.771 11.9772 150.251 12.0286 150.74 12.1315C151.228 12.2344 151.636 12.3845 151.961 12.5817L151.293 14.0094C150.958 13.8122 150.619 13.6793 150.276 13.6107C149.942 13.5335 149.616 13.4949 149.299 13.4949C148.853 13.4949 148.527 13.555 148.321 13.675C148.116 13.7951 148.013 13.9494 148.013 14.1381C148.013 14.3096 148.086 14.4382 148.231 14.5239C148.386 14.6097 148.587 14.6783 148.836 14.7297C149.085 14.7812 149.355 14.8283 149.646 14.8712C149.946 14.9055 150.246 14.9612 150.547 15.0384C150.847 15.1156 151.117 15.2271 151.357 15.3728C151.606 15.51 151.807 15.703 151.961 15.9516C152.116 16.1917 152.193 16.509 152.193 16.9034C152.193 17.3322 152.064 17.7138 151.807 18.0482C151.55 18.374 151.177 18.6313 150.688 18.8199C150.208 19.0086 149.621 19.1029 148.926 19.1029Z" fill="#CF4747"/>
</svg>
