<svg width="75" height="33" viewBox="0 0 75 33" fill="none" xmlns="http://www.w3.org/2000/svg">
<path d="M21.1945 7.19445C21.3018 7.08706 21.3018 6.91294 21.1945 6.80555L19.4444 5.05546C19.337 4.94806 19.1629 4.94806 19.0555 5.05546C18.9481 5.16285 18.9481 5.33697 19.0555 5.44437L20.6111 7L19.0555 8.55563C18.9481 8.66303 18.9481 8.83715 19.0555 8.94454C19.1629 9.05194 19.337 9.05194 19.4444 8.94454L21.1945 7.19445ZM5.80555 6.80555C5.69815 6.91294 5.69815 7.08706 5.80555 7.19445L7.55563 8.94454C7.66303 9.05194 7.83715 9.05194 7.94454 8.94454C8.05194 8.83715 8.05194 8.66303 7.94454 8.55563L6.38891 7L7.94454 5.44437C8.05194 5.33697 8.05194 5.16285 7.94454 5.05546C7.83715 4.94806 7.66303 4.94806 7.55563 5.05546L5.80555 6.80555ZM21 7V6.725L6 6.725V7V7.275L21 7.275V7Z" fill="black"/>
<path d="M17.5633 25.8094C17.7157 24.2034 19.315 11.918 19.315 11.918C15.1648 12.6971 12.8113 12.6541 8.57617 11.9983C8.57617 11.9983 10.0234 23.9625 10.3279 25.8094C10.6325 27.6562 17.4109 27.4153 17.5633 25.8094Z" stroke="black" stroke-width="0.55"/>
<path d="M18.5 11C18.5511 11.0511 19.736 10.8886 19.736 11.0727C19.8894 11.1494 20 11.3028 20 11.4562C20 11.579 19.5398 11.7631 19.3096 11.8398C17.7244 12.3 13.3573 12.9597 8.57082 11.9165C8.264 11.7937 8.08502 11.5585 8.03388 11.4562C8.00831 11.3795 7.97252 11.2108 8.03388 11.1494C8.09525 11.088 8.16171 11.0216 8.18727 10.996L8.34068 10.6125C8.31511 10.5869 9.25454 11 9.5 11" stroke="black" stroke-width="0.55"/>
<path d="M14.9014 10.2754C15.4053 10.2754 16.5645 10.2977 17.5938 10.4043C18.1106 10.4578 18.5802 10.5314 18.915 10.6289C19.0844 10.6782 19.2006 10.7283 19.2686 10.7734C19.2758 10.7782 19.2809 10.7842 19.2861 10.7881C19.2681 10.8069 19.2348 10.8366 19.1709 10.873C19.0288 10.9541 18.8061 11.0336 18.5088 11.1074C17.9183 11.2541 17.104 11.3604 16.2314 11.4307C14.4855 11.5711 12.5682 11.566 11.8633 11.4912C11.3674 11.4386 10.5156 11.3088 9.78223 11.1357C9.41436 11.0489 9.08758 10.9532 8.85254 10.8555C8.79008 10.8295 8.73748 10.8043 8.69434 10.7812C8.82094 10.731 9.00602 10.6812 9.24512 10.6348C9.76728 10.5334 10.4831 10.4591 11.2412 10.4053C12.7545 10.2979 14.3968 10.2754 14.9014 10.2754Z" stroke="black" stroke-width="0.55"/>
<path d="M35.964 12.5V5.324H33.06V4.04H40.404V5.324H37.5V12.5H35.964ZM42.9716 12.62C42.3636 12.62 41.8356 12.496 41.3876 12.248C40.9396 12 40.5916 11.648 40.3436 11.192C40.0956 10.728 39.9716 10.184 39.9716 9.56C39.9716 8.936 40.0956 8.396 40.3436 7.94C40.5916 7.484 40.9396 7.132 41.3876 6.884C41.8356 6.636 42.3636 6.512 42.9716 6.512C43.5796 6.512 44.1076 6.636 44.5556 6.884C45.0036 7.132 45.3516 7.484 45.5996 7.94C45.8476 8.396 45.9716 8.936 45.9716 9.56C45.9716 10.184 45.8476 10.728 45.5996 11.192C45.3516 11.648 45.0036 12 44.5556 12.248C44.1076 12.496 43.5796 12.62 42.9716 12.62ZM42.9716 11.48C43.4196 11.48 43.7796 11.32 44.0516 11C44.3236 10.672 44.4596 10.192 44.4596 9.56C44.4596 8.92 44.3236 8.444 44.0516 8.132C43.7796 7.812 43.4196 7.652 42.9716 7.652C42.5236 7.652 42.1636 7.812 41.8916 8.132C41.6196 8.444 41.4836 8.92 41.4836 9.56C41.4836 10.192 41.6196 10.672 41.8916 11C42.1636 11.32 42.5236 11.48 42.9716 11.48ZM47.2097 14.66V6.632H48.6737V7.868H48.5537C48.6737 7.46 48.9177 7.132 49.2857 6.884C49.6617 6.636 50.0977 6.512 50.5937 6.512C51.1057 6.512 51.5537 6.636 51.9377 6.884C52.3297 7.132 52.6337 7.484 52.8497 7.94C53.0657 8.388 53.1737 8.928 53.1737 9.56C53.1737 10.184 53.0657 10.728 52.8497 11.192C52.6337 11.648 52.3337 12 51.9497 12.248C51.5657 12.496 51.1137 12.62 50.5937 12.62C50.1057 12.62 49.6777 12.5 49.3097 12.26C48.9417 12.012 48.6937 11.692 48.5657 11.3H48.7097V14.66H47.2097ZM50.1737 11.48C50.6217 11.48 50.9817 11.32 51.2537 11C51.5257 10.672 51.6617 10.192 51.6617 9.56C51.6617 8.92 51.5257 8.444 51.2537 8.132C50.9817 7.812 50.6217 7.652 50.1737 7.652C49.7257 7.652 49.3657 7.812 49.0937 8.132C48.8217 8.444 48.6857 8.92 48.6857 9.56C48.6857 10.192 48.8217 10.672 49.0937 11C49.3657 11.32 49.7257 11.48 50.1737 11.48Z" fill="#CF4747"/>
<path d="M34.12 28.5L37.58 21.81L37.6 22.2H33.66V21.45H38.34V22.09L35.06 28.5H34.12ZM41.9961 28.59C41.4561 28.59 40.9994 28.4533 40.6261 28.18C40.2594 27.9 39.9828 27.4933 39.7961 26.96C39.6094 26.42 39.5161 25.7567 39.5161 24.97C39.5161 24.1833 39.6094 23.5233 39.7961 22.99C39.9828 22.45 40.2594 22.0433 40.6261 21.77C40.9994 21.4967 41.4561 21.36 41.9961 21.36C42.5428 21.36 42.9994 21.4967 43.3661 21.77C43.7328 22.0433 44.0094 22.4467 44.1961 22.98C44.3828 23.5133 44.4761 24.1733 44.4761 24.96C44.4761 25.7467 44.3828 26.41 44.1961 26.95C44.0094 27.49 43.7294 27.9 43.3561 28.18C42.9894 28.4533 42.5361 28.59 41.9961 28.59ZM41.9961 27.85C42.5494 27.85 42.9594 27.6167 43.2261 27.15C43.4928 26.6767 43.6261 25.9467 43.6261 24.96C43.6261 23.9733 43.4928 23.25 43.2261 22.79C42.9661 22.33 42.5561 22.1 41.9961 22.1C41.4428 22.1 41.0328 22.3333 40.7661 22.8C40.4994 23.26 40.3661 23.9833 40.3661 24.97C40.3661 25.95 40.4994 26.6767 40.7661 27.15C41.0328 27.6167 41.4428 27.85 41.9961 27.85ZM45.6622 28.5V27.44H46.7522V28.5H45.6622ZM50.5438 28.59C50.2372 28.59 49.9405 28.5567 49.6538 28.49C49.3672 28.4233 49.1005 28.3267 48.8538 28.2C48.6072 28.0733 48.3872 27.92 48.1938 27.74L48.5238 27.06C48.8372 27.3267 49.1572 27.5233 49.4838 27.65C49.8105 27.7767 50.1605 27.84 50.5338 27.84C51.0272 27.84 51.4105 27.7067 51.6838 27.44C51.9638 27.1733 52.1038 26.8133 52.1038 26.36C52.1038 25.9 51.9705 25.5267 51.7038 25.24C51.4438 24.9533 51.0838 24.81 50.6238 24.81C50.2972 24.81 50.0072 24.8767 49.7538 25.01C49.5005 25.1367 49.2705 25.3467 49.0638 25.64H48.4138V21.45H52.5638V22.19H49.2238V24.91H49.0838C49.2572 24.6567 49.4872 24.4567 49.7738 24.31C50.0672 24.1567 50.3972 24.08 50.7638 24.08C51.2105 24.08 51.5972 24.1733 51.9238 24.36C52.2505 24.5467 52.5005 24.8067 52.6738 25.14C52.8538 25.4733 52.9438 25.8633 52.9438 26.31C52.9438 26.77 52.8438 27.17 52.6438 27.51C52.4505 27.85 52.1738 28.1167 51.8138 28.31C51.4605 28.4967 51.0372 28.59 50.5438 28.59ZM56.9357 28.5V23.6H57.7457V24.68H57.6857C57.7724 24.4467 57.8924 24.2433 58.0457 24.07C58.2057 23.89 58.3957 23.7533 58.6157 23.66C58.8357 23.56 59.079 23.51 59.3457 23.51C59.7657 23.51 60.109 23.6133 60.3757 23.82C60.6424 24.0267 60.8157 24.3167 60.8957 24.69H60.8157C60.9424 24.3433 61.1557 24.06 61.4557 23.84C61.7557 23.62 62.119 23.51 62.5457 23.51C62.919 23.51 63.229 23.5833 63.4757 23.73C63.7224 23.87 63.909 24.0833 64.0357 24.37C64.1624 24.6567 64.2257 25.02 64.2257 25.46V28.5H63.3857V25.51C63.3857 25.0767 63.3057 24.7533 63.1457 24.54C62.9924 24.3267 62.7257 24.22 62.3457 24.22C62.0724 24.22 61.8324 24.2867 61.6257 24.42C61.4257 24.5467 61.2724 24.7233 61.1657 24.95C61.059 25.1767 61.0057 25.4433 61.0057 25.75V28.5H60.1557V25.51C60.1557 25.0767 60.0724 24.7533 59.9057 24.54C59.7457 24.3267 59.4857 24.22 59.1257 24.22C58.8524 24.22 58.6124 24.2867 58.4057 24.42C58.2057 24.5533 58.0524 24.7367 57.9457 24.97C57.839 25.1967 57.7857 25.45 57.7857 25.73V28.5H56.9357ZM65.881 28.5V23.6H66.691V24.68H66.631C66.7177 24.4467 66.8377 24.2433 66.991 24.07C67.151 23.89 67.341 23.7533 67.561 23.66C67.781 23.56 68.0243 23.51 68.291 23.51C68.711 23.51 69.0543 23.6133 69.321 23.82C69.5877 24.0267 69.761 24.3167 69.841 24.69H69.761C69.8877 24.3433 70.101 24.06 70.401 23.84C70.701 23.62 71.0643 23.51 71.491 23.51C71.8643 23.51 72.1743 23.5833 72.421 23.73C72.6677 23.87 72.8543 24.0833 72.981 24.37C73.1077 24.6567 73.171 25.02 73.171 25.46V28.5H72.331V25.51C72.331 25.0767 72.251 24.7533 72.091 24.54C71.9377 24.3267 71.671 24.22 71.291 24.22C71.0177 24.22 70.7777 24.2867 70.571 24.42C70.371 24.5467 70.2177 24.7233 70.111 24.95C70.0043 25.1767 69.951 25.4433 69.951 25.75V28.5H69.101V25.51C69.101 25.0767 69.0177 24.7533 68.851 24.54C68.691 24.3267 68.431 24.22 68.071 24.22C67.7977 24.22 67.5577 24.2867 67.351 24.42C67.151 24.5533 66.9977 24.7367 66.891 24.97C66.7843 25.1967 66.731 25.45 66.731 25.73V28.5H65.881Z" fill="black"/>
</svg>
