<svg width="103" height="36" viewBox="0 0 103 36" fill="none" xmlns="http://www.w3.org/2000/svg">
<circle cx="11.5499" cy="18.0001" r="8.83019" fill="#D9D9D9"/>
<path fill-rule="evenodd" clip-rule="evenodd" d="M7.30116 6.80876C9.82259 5.81179 12.6148 5.73421 15.1879 6.58903L14.85 7.60368C12.5154 6.82823 9.98237 6.89936 7.69471 7.80387C5.40687 8.70848 3.51026 10.3894 2.33729 12.5519C1.16433 14.7145 0.789237 17.221 1.2787 19.632C1.66222 21.5211 2.55928 23.2554 3.85389 24.6564C3.99097 24.5974 4.14246 24.5656 4.30116 24.5656C4.92626 24.5656 5.43279 25.0724 5.43299 25.6974C5.43299 26.3227 4.92639 26.8302 4.30116 26.8302C3.67601 26.8301 3.16932 26.3226 3.16932 25.6974C3.16934 25.6332 3.17561 25.5703 3.18592 25.509C1.69538 23.9436 0.665123 21.9838 0.230845 19.8449C-0.308569 17.1878 0.104252 14.4255 1.39686 12.0422C2.68959 9.65879 4.77973 7.80572 7.30116 6.80876Z" fill="url(#paint0_linear_1311_710)"/>
<path fill-rule="evenodd" clip-rule="evenodd" d="M16.4947 29.1912C13.9733 30.1882 11.1811 30.2658 8.60802 29.411L8.94591 28.3953C11.2805 29.1709 13.8134 29.1007 16.1012 28.1961C18.389 27.2915 20.2856 25.6106 21.4586 23.4481C22.6316 21.2855 23.0067 18.779 22.5172 16.368C22.1337 14.4789 21.2366 12.7446 19.942 11.3436C19.8049 11.4025 19.6534 11.4344 19.4947 11.4344C18.8695 11.4344 18.3629 10.9268 18.3629 10.3016C18.3631 9.67655 18.8696 9.16976 19.4947 9.16976C20.1198 9.16986 20.6264 9.67661 20.6266 10.3016C20.6266 10.3661 20.6203 10.4295 20.61 10.4911C22.1005 12.0564 23.1308 14.0162 23.565 16.1551C24.1045 18.8122 23.6917 21.5745 22.399 23.9578C21.1063 26.3412 19.0162 28.1943 16.4947 29.1912Z" fill="url(#paint1_linear_1311_710)"/>
<path d="M8.67444 21.064C8.23711 21.064 7.84511 20.952 7.49844 20.728C7.15711 20.504 6.88511 20.1787 6.68244 19.752C6.48511 19.3253 6.38644 18.808 6.38644 18.2C6.38644 17.592 6.48511 17.0747 6.68244 16.648C6.88511 16.2213 7.15711 15.896 7.49844 15.672C7.84511 15.448 8.23711 15.336 8.67444 15.336C9.10644 15.336 9.49577 15.448 9.84244 15.672C10.1891 15.896 10.4611 16.2213 10.6584 16.648C10.8558 17.0747 10.9544 17.592 10.9544 18.2C10.9544 18.808 10.8558 19.3253 10.6584 19.752C10.4611 20.1787 10.1891 20.504 9.84244 20.728C9.49577 20.952 9.10644 21.064 8.67444 21.064ZM8.67444 20.352C8.96777 20.352 9.22377 20.272 9.44244 20.112C9.66644 19.952 9.83978 19.712 9.96244 19.392C10.0904 19.072 10.1544 18.6747 10.1544 18.2C10.1544 17.7253 10.0904 17.328 9.96244 17.008C9.83978 16.688 9.66644 16.448 9.44244 16.288C9.22377 16.128 8.96777 16.048 8.67444 16.048C8.38111 16.048 8.12244 16.128 7.89844 16.288C7.67444 16.448 7.49844 16.688 7.37044 17.008C7.24777 17.328 7.18644 17.7253 7.18644 18.2C7.18644 18.6747 7.24777 19.072 7.37044 19.392C7.49844 19.712 7.67444 19.952 7.89844 20.112C8.12244 20.272 8.38111 20.352 8.67444 20.352ZM13.5304 21.064C13.1357 21.064 12.7517 21.0027 12.3784 20.88C12.0104 20.7573 11.709 20.592 11.4744 20.384L11.8424 19.752C12.029 19.928 12.2717 20.072 12.5704 20.184C12.869 20.296 13.1864 20.352 13.5224 20.352C13.949 20.352 14.277 20.2613 14.5064 20.08C14.7357 19.8987 14.8504 19.656 14.8504 19.352C14.8504 19.144 14.7997 18.9627 14.6984 18.808C14.597 18.6533 14.421 18.536 14.1704 18.456C13.925 18.3707 13.5864 18.328 13.1544 18.328H11.8824L12.1784 15.4H15.3384V16.096H12.4744L12.8904 15.704L12.6584 18.016L12.2424 17.632H13.3224C13.8824 17.632 14.333 17.704 14.6744 17.848C15.0157 17.992 15.2637 18.192 15.4184 18.448C15.573 18.6987 15.6504 18.9893 15.6504 19.32C15.6504 19.64 15.573 19.9333 15.4184 20.2C15.2637 20.4613 15.029 20.672 14.7144 20.832C14.405 20.9867 14.0104 21.064 13.5304 21.064Z" fill="#464643"/>
<path d="M34.6179 23.084C33.9179 23.084 33.2506 22.972 32.6159 22.748C31.9812 22.5147 31.4772 22.2067 31.1039 21.824L31.5939 21.026C31.9019 21.3527 32.3219 21.6233 32.8539 21.838C33.3952 22.0527 33.9786 22.16 34.6039 22.16C35.4346 22.16 36.0646 21.978 36.4939 21.614C36.9326 21.2407 37.1519 20.7553 37.1519 20.158C37.1519 19.738 37.0492 19.3787 36.8439 19.08C36.6479 18.772 36.3119 18.534 35.8359 18.366C35.3599 18.198 34.7066 18.114 33.8759 18.114H31.7899L32.2939 13.2H37.6559V14.096H32.6999L33.2179 13.606L32.7839 17.722L32.2659 17.218H34.0999C35.0892 17.218 35.8826 17.3393 36.4799 17.582C37.0772 17.8247 37.5066 18.1653 37.7679 18.604C38.0386 19.0333 38.1739 19.5373 38.1739 20.116C38.1739 20.6667 38.0432 21.1707 37.7819 21.628C37.5206 22.076 37.1286 22.4307 36.6059 22.692C36.0832 22.9533 35.4206 23.084 34.6179 23.084ZM43.9856 23V13.2H45.0216V22.104H50.5096V23H43.9856ZM54.2754 23.07C53.5848 23.07 53.0528 22.8833 52.6794 22.51C52.3061 22.1367 52.1194 21.6093 52.1194 20.928V14.026H53.1134V20.872C53.1134 21.3013 53.2208 21.6327 53.4354 21.866C53.6594 22.0993 53.9768 22.216 54.3874 22.216C54.8261 22.216 55.1901 22.09 55.4794 21.838L55.8294 22.552C55.6334 22.7293 55.3954 22.86 55.1154 22.944C54.8448 23.028 54.5648 23.07 54.2754 23.07ZM50.8034 16.476V15.65H55.3534V16.476H50.8034ZM57.6389 23V15.65H58.5909V17.652L58.4929 17.302C58.6983 16.742 59.0436 16.3173 59.5289 16.028C60.0143 15.7293 60.6163 15.58 61.3349 15.58V16.546C61.2976 16.546 61.2603 16.546 61.2229 16.546C61.1856 16.5367 61.1483 16.532 61.1109 16.532C60.3363 16.532 59.7296 16.77 59.2909 17.246C58.8523 17.7127 58.6329 18.38 58.6329 19.248V23H57.6389ZM71.4301 23.084C70.6835 23.084 69.9928 22.9627 69.3581 22.72C68.7328 22.468 68.1868 22.118 67.7201 21.67C67.2628 21.222 66.9035 20.6947 66.6421 20.088C66.3901 19.4813 66.2641 18.8187 66.2641 18.1C66.2641 17.3813 66.3901 16.7187 66.6421 16.112C66.9035 15.5053 67.2675 14.978 67.7341 14.53C68.2008 14.082 68.7468 13.7367 69.3721 13.494C70.0068 13.242 70.6975 13.116 71.4441 13.116C72.1908 13.116 72.8721 13.2327 73.4881 13.466C74.1135 13.6993 74.6455 14.054 75.0841 14.53L74.4401 15.188C74.0295 14.7773 73.5768 14.4833 73.0821 14.306C72.5875 14.1287 72.0555 14.04 71.4861 14.04C70.8795 14.04 70.3195 14.1427 69.8061 14.348C69.3021 14.544 68.8588 14.8287 68.4761 15.202C68.1028 15.566 67.8088 15.9953 67.5941 16.49C67.3888 16.9753 67.2861 17.512 67.2861 18.1C67.2861 18.6787 67.3888 19.2153 67.5941 19.71C67.8088 20.2047 68.1028 20.6387 68.4761 21.012C68.8588 21.376 69.3021 21.6607 69.8061 21.866C70.3195 22.062 70.8748 22.16 71.4721 22.16C72.0321 22.16 72.5595 22.076 73.0541 21.908C73.5581 21.74 74.0201 21.4553 74.4401 21.054L75.0281 21.838C74.5615 22.2487 74.0155 22.5613 73.3901 22.776C72.7648 22.9813 72.1115 23.084 71.4301 23.084ZM74.0341 21.712V18.1H75.0281V21.838L74.0341 21.712ZM81.5023 15.58C82.0996 15.58 82.6223 15.6967 83.0703 15.93C83.5276 16.154 83.8823 16.4993 84.1343 16.966C84.3956 17.4327 84.5263 18.0207 84.5263 18.73V23H83.5323V18.828C83.5323 18.0533 83.3363 17.47 82.9443 17.078C82.5616 16.6767 82.0203 16.476 81.3203 16.476C80.7976 16.476 80.3403 16.5833 79.9483 16.798C79.5656 17.0033 79.2669 17.3067 79.0523 17.708C78.8469 18.1 78.7443 18.576 78.7443 19.136V23H77.7503V12.612H78.7443V17.666L78.5483 17.288C78.7816 16.756 79.1549 16.3407 79.6683 16.042C80.1816 15.734 80.7929 15.58 81.5023 15.58ZM90.3332 23.07C89.5679 23.07 88.8959 22.9113 88.3172 22.594C87.7385 22.2673 87.2859 21.824 86.9592 21.264C86.6325 20.6947 86.4692 20.046 86.4692 19.318C86.4692 18.59 86.6232 17.946 86.9312 17.386C87.2485 16.826 87.6779 16.3873 88.2192 16.07C88.7699 15.7433 89.3859 15.58 90.0672 15.58C90.7579 15.58 91.3692 15.7387 91.9012 16.056C92.4425 16.364 92.8672 16.8027 93.1752 17.372C93.4832 17.932 93.6372 18.5807 93.6372 19.318C93.6372 19.3647 93.6325 19.416 93.6232 19.472C93.6232 19.5187 93.6232 19.57 93.6232 19.626H87.2252V18.884H93.0912L92.6992 19.178C92.6992 18.646 92.5825 18.1747 92.3492 17.764C92.1252 17.344 91.8172 17.0173 91.4252 16.784C91.0332 16.5507 90.5805 16.434 90.0672 16.434C89.5632 16.434 89.1105 16.5507 88.7092 16.784C88.3079 17.0173 87.9952 17.344 87.7712 17.764C87.5472 18.184 87.4352 18.6647 87.4352 19.206V19.36C87.4352 19.92 87.5565 20.4147 87.7992 20.844C88.0512 21.264 88.3965 21.5953 88.8352 21.838C89.2832 22.0713 89.7919 22.188 90.3612 22.188C90.8092 22.188 91.2245 22.1087 91.6072 21.95C91.9992 21.7913 92.3352 21.5487 92.6152 21.222L93.1752 21.866C92.8485 22.258 92.4379 22.5567 91.9432 22.762C91.4579 22.9673 90.9212 23.07 90.3332 23.07ZM98.7824 23.07C98.0171 23.07 97.3451 22.9113 96.7664 22.594C96.1877 22.2673 95.7351 21.824 95.4084 21.264C95.0817 20.6947 94.9184 20.046 94.9184 19.318C94.9184 18.59 95.0724 17.946 95.3804 17.386C95.6977 16.826 96.1271 16.3873 96.6684 16.07C97.2191 15.7433 97.8351 15.58 98.5164 15.58C99.2071 15.58 99.8184 15.7387 100.35 16.056C100.892 16.364 101.316 16.8027 101.624 17.372C101.932 17.932 102.086 18.5807 102.086 19.318C102.086 19.3647 102.082 19.416 102.072 19.472C102.072 19.5187 102.072 19.57 102.072 19.626H95.6744V18.884H101.54L101.148 19.178C101.148 18.646 101.032 18.1747 100.798 17.764C100.574 17.344 100.266 17.0173 99.8744 16.784C99.4824 16.5507 99.0297 16.434 98.5164 16.434C98.0124 16.434 97.5597 16.5507 97.1584 16.784C96.7571 17.0173 96.4444 17.344 96.2204 17.764C95.9964 18.184 95.8844 18.6647 95.8844 19.206V19.36C95.8844 19.92 96.0057 20.4147 96.2484 20.844C96.5004 21.264 96.8457 21.5953 97.2844 21.838C97.7324 22.0713 98.2411 22.188 98.8104 22.188C99.2584 22.188 99.6737 22.1087 100.056 21.95C100.448 21.7913 100.784 21.5487 101.064 21.222L101.624 21.866C101.298 22.258 100.887 22.5567 100.392 22.762C99.9071 22.9673 99.3704 23.07 98.7824 23.07Z" fill="#272727"/>
<defs>
<linearGradient id="paint0_linear_1311_710" x1="0" y1="16.4151" x2="15.1879" y2="16.4151" gradientUnits="userSpaceOnUse">
<stop stop-color="#414140"/>
<stop offset="1" stop-color="#9E9E95"/>
</linearGradient>
<linearGradient id="paint1_linear_1311_710" x1="16.202" y1="9.16976" x2="16.202" y2="30" gradientUnits="userSpaceOnUse">
<stop stop-color="#3D3D3C"/>
<stop offset="1" stop-color="#ADACA2"/>
</linearGradient>
</defs>
</svg>
