<svg width="153" height="21" viewBox="0 0 153 21" fill="none" xmlns="http://www.w3.org/2000/svg">
<path d="M-4.68902e-05 19.936L8.73595 0.336034H13.216L21.98 19.936H17.22L10.052 2.63203H11.844L4.64795 19.936H-4.68902e-05ZM4.36795 15.736L5.57195 12.292H15.652L16.884 15.736H4.36795ZM24.0135 19.936V0.336034H33.5895C36.0535 0.336034 37.9015 0.802701 39.1335 1.73603C40.3841 2.66937 41.0095 3.90137 41.0095 5.43203C41.0095 6.4587 40.7575 7.3547 40.2535 8.12003C39.7495 8.8667 39.0588 9.44537 38.1815 9.85603C37.3041 10.2667 36.2961 10.472 35.1575 10.472L35.6895 9.32403C36.9215 9.32403 38.0135 9.52937 38.9655 9.94003C39.9175 10.332 40.6548 10.92 41.1775 11.704C41.7188 12.488 41.9895 13.4494 41.9895 14.588C41.9895 16.268 41.3268 17.584 40.0015 18.536C38.6761 19.4694 36.7255 19.936 34.1495 19.936H24.0135ZM28.5215 16.52H33.8135C34.9895 16.52 35.8761 16.3334 36.4735 15.96C37.0895 15.568 37.3975 14.952 37.3975 14.112C37.3975 13.2907 37.0895 12.684 36.4735 12.292C35.8761 11.8814 34.9895 11.676 33.8135 11.676H28.1855V8.37203H33.0295C34.1308 8.37203 34.9708 8.18537 35.5495 7.81203C36.1468 7.42003 36.4455 6.83203 36.4455 6.04803C36.4455 5.2827 36.1468 4.71337 35.5495 4.34003C34.9708 3.94803 34.1308 3.75203 33.0295 3.75203H28.5215V16.52ZM54.9436 20.272C53.3943 20.272 51.9569 20.02 50.6316 19.516C49.3249 19.012 48.1863 18.3027 47.2156 17.388C46.2636 16.4734 45.5169 15.4 44.9756 14.168C44.4529 12.936 44.1916 11.592 44.1916 10.136C44.1916 8.68003 44.4529 7.33603 44.9756 6.10403C45.5169 4.87203 46.2729 3.7987 47.2436 2.88403C48.2143 1.96937 49.3529 1.26003 50.6596 0.756033C51.9663 0.252034 53.3849 3.48091e-05 54.9156 3.48091e-05C56.4649 3.48091e-05 57.8836 0.252034 59.1716 0.756033C60.4783 1.26003 61.6076 1.96937 62.5596 2.88403C63.5303 3.7987 64.2863 4.87203 64.8276 6.10403C65.3689 7.31737 65.6396 8.66137 65.6396 10.136C65.6396 11.592 65.3689 12.9454 64.8276 14.196C64.2863 15.428 63.5303 16.5014 62.5596 17.416C61.6076 18.312 60.4783 19.012 59.1716 19.516C57.8836 20.02 56.4743 20.272 54.9436 20.272ZM54.9156 16.408C55.7929 16.408 56.5956 16.2587 57.3236 15.96C58.0703 15.6614 58.7236 15.232 59.2836 14.672C59.8436 14.112 60.2729 13.4494 60.5716 12.684C60.8889 11.9187 61.0476 11.0694 61.0476 10.136C61.0476 9.2027 60.8889 8.35337 60.5716 7.58803C60.2729 6.8227 59.8436 6.16003 59.2836 5.60003C58.7423 5.04003 58.0983 4.6107 57.3516 4.31203C56.6049 4.01337 55.7929 3.86404 54.9156 3.86404C54.0383 3.86404 53.2263 4.01337 52.4796 4.31203C51.7516 4.6107 51.1076 5.04003 50.5476 5.60003C49.9876 6.16003 49.5489 6.8227 49.2316 7.58803C48.9329 8.35337 48.7836 9.2027 48.7836 10.136C48.7836 11.0507 48.9329 11.9 49.2316 12.684C49.5489 13.4494 49.9783 14.112 50.5196 14.672C51.0796 15.232 51.7329 15.6614 52.4796 15.96C53.2263 16.2587 54.0383 16.408 54.9156 16.408ZM77.7566 20.272C74.9753 20.272 72.8006 19.4974 71.2326 17.948C69.6646 16.3987 68.8806 14.1867 68.8806 11.312V0.336034H73.4166V11.144C73.4166 13.0107 73.7993 14.3547 74.5646 15.176C75.3299 15.9974 76.4033 16.408 77.7846 16.408C79.1659 16.408 80.2393 15.9974 81.0046 15.176C81.7699 14.3547 82.1526 13.0107 82.1526 11.144V0.336034H86.6326V11.312C86.6326 14.1867 85.8486 16.3987 84.2806 17.948C82.7126 19.4974 80.5379 20.272 77.7566 20.272ZM94.8469 19.936V4.03203H88.5749V0.336034H105.655V4.03203H99.3829V19.936H94.8469ZM124.733 20.272C121.952 20.272 119.777 19.4974 118.209 17.948C116.641 16.3987 115.857 14.1867 115.857 11.312V0.336034H120.393V11.144C120.393 13.0107 120.776 14.3547 121.541 15.176C122.307 15.9974 123.38 16.408 124.761 16.408C126.143 16.408 127.216 15.9974 127.981 15.176C128.747 14.3547 129.129 13.0107 129.129 11.144V0.336034H133.609V11.312C133.609 14.1867 132.825 16.3987 131.257 17.948C129.689 19.4974 127.515 20.272 124.733 20.272ZM144.532 20.272C142.964 20.272 141.461 20.0667 140.024 19.656C138.586 19.2267 137.429 18.676 136.552 18.004L138.092 14.588C138.932 15.1854 139.921 15.68 141.06 16.072C142.217 16.4454 143.384 16.632 144.56 16.632C145.456 16.632 146.174 16.548 146.716 16.38C147.276 16.1934 147.686 15.9414 147.948 15.624C148.209 15.3067 148.34 14.9427 148.34 14.532C148.34 14.0094 148.134 13.5987 147.724 13.3C147.313 12.9827 146.772 12.7307 146.1 12.544C145.428 12.3387 144.681 12.152 143.86 11.984C143.057 11.7974 142.245 11.5734 141.424 11.312C140.621 11.0507 139.884 10.7147 139.212 10.304C138.54 9.89337 137.989 9.35203 137.56 8.68003C137.149 8.00803 136.944 7.14937 136.944 6.10403C136.944 4.98403 137.242 3.9667 137.84 3.05203C138.456 2.1187 139.37 1.38137 140.584 0.840034C141.816 0.280035 143.356 3.48091e-05 145.204 3.48091e-05C146.436 3.48091e-05 147.649 0.149368 148.844 0.448034C150.038 0.728034 151.093 1.15737 152.008 1.73603L150.608 5.18003C149.693 4.65737 148.778 4.2747 147.864 4.03203C146.949 3.7707 146.053 3.64003 145.176 3.64003C144.298 3.64003 143.58 3.7427 143.02 3.94803C142.46 4.15337 142.058 4.42403 141.816 4.76003C141.573 5.07737 141.452 5.4507 141.452 5.88003C141.452 6.38403 141.657 6.7947 142.068 7.11203C142.478 7.4107 143.02 7.65337 143.692 7.84003C144.364 8.0267 145.101 8.21337 145.904 8.40003C146.725 8.5867 147.537 8.80137 148.34 9.04403C149.161 9.2867 149.908 9.61337 150.58 10.024C151.252 10.4347 151.793 10.976 152.204 11.648C152.633 12.32 152.848 13.1694 152.848 14.196C152.848 15.2974 152.54 16.3054 151.924 17.22C151.308 18.1347 150.384 18.872 149.152 19.432C147.938 19.992 146.398 20.272 144.532 20.272Z" fill="#203E13"/>
</svg>
