<svg width="230" height="115" viewBox="0 0 230 115" fill="none" xmlns="http://www.w3.org/2000/svg">
<path d="M21.9955 8.57054C21.3544 11.7904 17.2835 15.3841 17.4627 16.1179C13.8888 22.8432 2.82138 16.4279 0.377532 13.5936C4.79204 12.735 8.79974 7.72463 14.0704 13.7774C10.9075 14.1298 7.72276 14.2463 4.54254 14.1259C10.7495 15.642 17.7398 16.0785 21.9955 8.57054Z" fill="#617C2B"/>
<path d="M31.2429 16.12C30.6029 16.12 30.0069 16.016 29.4549 15.808C28.9109 15.592 28.4349 15.292 28.0269 14.908C27.6269 14.516 27.3149 14.056 27.0909 13.528C26.8669 13 26.7549 12.424 26.7549 11.8C26.7549 11.176 26.8669 10.6 27.0909 10.072C27.3149 9.544 27.6309 9.088 28.0389 8.704C28.4469 8.312 28.9229 8.012 29.4669 7.804C30.0109 7.588 30.6069 7.48 31.2549 7.48C31.9429 7.48 32.5709 7.6 33.1389 7.84C33.7069 8.072 34.1869 8.42 34.5789 8.884L33.5709 9.832C33.2669 9.504 32.9269 9.26 32.5509 9.1C32.1749 8.932 31.7669 8.848 31.3269 8.848C30.8869 8.848 30.4829 8.92 30.1149 9.064C29.7549 9.208 29.4389 9.412 29.1669 9.676C28.9029 9.94 28.6949 10.252 28.5429 10.612C28.3989 10.972 28.3269 11.368 28.3269 11.8C28.3269 12.232 28.3989 12.628 28.5429 12.988C28.6949 13.348 28.9029 13.66 29.1669 13.924C29.4389 14.188 29.7549 14.392 30.1149 14.536C30.4829 14.68 30.8869 14.752 31.3269 14.752C31.7669 14.752 32.1749 14.672 32.5509 14.512C32.9269 14.344 33.2669 14.092 33.5709 13.756L34.5789 14.716C34.1869 15.172 33.7069 15.52 33.1389 15.76C32.5709 16 31.9389 16.12 31.2429 16.12ZM38.7073 16.084C37.9953 16.084 37.3713 15.944 36.8353 15.664C36.3073 15.376 35.8953 14.984 35.5993 14.488C35.3113 13.992 35.1673 13.428 35.1673 12.796C35.1673 12.156 35.3073 11.592 35.5873 11.104C35.8753 10.608 36.2673 10.22 36.7633 9.94C37.2673 9.66 37.8393 9.52 38.4793 9.52C39.1033 9.52 39.6593 9.656 40.1473 9.928C40.6353 10.2 41.0193 10.584 41.2993 11.08C41.5793 11.576 41.7193 12.16 41.7193 12.832C41.7193 12.896 41.7153 12.968 41.7073 13.048C41.7073 13.128 41.7033 13.204 41.6953 13.276H36.3553V12.28H40.9033L40.3153 12.592C40.3233 12.224 40.2473 11.9 40.0873 11.62C39.9273 11.34 39.7073 11.12 39.4273 10.96C39.1553 10.8 38.8393 10.72 38.4793 10.72C38.1113 10.72 37.7873 10.8 37.5073 10.96C37.2353 11.12 37.0193 11.344 36.8593 11.632C36.7073 11.912 36.6313 12.244 36.6313 12.628V12.868C36.6313 13.252 36.7193 13.592 36.8953 13.888C37.0713 14.184 37.3193 14.412 37.6393 14.572C37.9593 14.732 38.3273 14.812 38.7433 14.812C39.1033 14.812 39.4273 14.756 39.7153 14.644C40.0033 14.532 40.2593 14.356 40.4833 14.116L41.2873 15.04C40.9993 15.376 40.6353 15.636 40.1953 15.82C39.7633 15.996 39.2673 16.084 38.7073 16.084ZM43.1601 16V9.592H44.5881V11.356L44.4201 10.84C44.6121 10.408 44.9121 10.08 45.3201 9.856C45.7361 9.632 46.2521 9.52 46.8681 9.52V10.948C46.8041 10.932 46.7441 10.924 46.6881 10.924C46.6321 10.916 46.5761 10.912 46.5201 10.912C45.9521 10.912 45.5001 11.08 45.1641 11.416C44.8281 11.744 44.6601 12.236 44.6601 12.892V16H43.1601ZM50.787 16.084C50.083 16.084 49.539 15.904 49.155 15.544C48.771 15.176 48.579 14.636 48.579 13.924V8.176H50.079V13.888C50.079 14.192 50.155 14.428 50.307 14.596C50.467 14.764 50.687 14.848 50.967 14.848C51.303 14.848 51.583 14.76 51.807 14.584L52.227 15.652C52.051 15.796 51.835 15.904 51.579 15.976C51.323 16.048 51.059 16.084 50.787 16.084ZM47.523 10.84V9.64H51.795V10.84H47.523ZM53.4609 16V9.592H54.9609V16H53.4609ZM54.2169 8.536C53.9369 8.536 53.7049 8.448 53.5209 8.272C53.3449 8.096 53.2569 7.884 53.2569 7.636C53.2569 7.38 53.3449 7.168 53.5209 7C53.7049 6.824 53.9369 6.736 54.2169 6.736C54.4969 6.736 54.7249 6.82 54.9009 6.988C55.0849 7.148 55.1769 7.352 55.1769 7.6C55.1769 7.864 55.0889 8.088 54.9129 8.272C54.7369 8.448 54.5049 8.536 54.2169 8.536ZM57.1337 16V9.232C57.1337 8.56 57.3297 8.024 57.7217 7.624C58.1217 7.216 58.6897 7.012 59.4257 7.012C59.6897 7.012 59.9377 7.04 60.1697 7.096C60.4097 7.152 60.6097 7.24 60.7697 7.36L60.3617 8.488C60.2497 8.4 60.1217 8.336 59.9777 8.296C59.8337 8.248 59.6857 8.224 59.5337 8.224C59.2217 8.224 58.9857 8.312 58.8257 8.488C58.6657 8.656 58.5857 8.912 58.5857 9.256V9.976L58.6337 10.648V16H57.1337ZM56.0777 10.84V9.64H60.3497V10.84H56.0777ZM61.4057 16V9.592H62.9057V16H61.4057ZM62.1617 8.536C61.8817 8.536 61.6497 8.448 61.4657 8.272C61.2897 8.096 61.2017 7.884 61.2017 7.636C61.2017 7.38 61.2897 7.168 61.4657 7C61.6497 6.824 61.8817 6.736 62.1617 6.736C62.4417 6.736 62.6697 6.82 62.8457 6.988C63.0297 7.148 63.1217 7.352 63.1217 7.6C63.1217 7.864 63.0337 8.088 62.8577 8.272C62.6817 8.448 62.4497 8.536 62.1617 8.536ZM67.887 16.084C67.175 16.084 66.551 15.944 66.015 15.664C65.487 15.376 65.075 14.984 64.779 14.488C64.491 13.992 64.347 13.428 64.347 12.796C64.347 12.156 64.487 11.592 64.767 11.104C65.055 10.608 65.447 10.22 65.943 9.94C66.447 9.66 67.019 9.52 67.659 9.52C68.283 9.52 68.839 9.656 69.327 9.928C69.815 10.2 70.199 10.584 70.479 11.08C70.759 11.576 70.899 12.16 70.899 12.832C70.899 12.896 70.895 12.968 70.887 13.048C70.887 13.128 70.883 13.204 70.875 13.276H65.535V12.28H70.083L69.495 12.592C69.503 12.224 69.427 11.9 69.267 11.62C69.107 11.34 68.887 11.12 68.607 10.96C68.335 10.8 68.019 10.72 67.659 10.72C67.291 10.72 66.967 10.8 66.687 10.96C66.415 11.12 66.199 11.344 66.039 11.632C65.887 11.912 65.811 12.244 65.811 12.628V12.868C65.811 13.252 65.899 13.592 66.075 13.888C66.251 14.184 66.499 14.412 66.819 14.572C67.139 14.732 67.507 14.812 67.923 14.812C68.283 14.812 68.607 14.756 68.895 14.644C69.183 14.532 69.439 14.356 69.663 14.116L70.467 15.04C70.179 15.376 69.815 15.636 69.375 15.82C68.943 15.996 68.447 16.084 67.887 16.084ZM75.0518 16.084C74.4358 16.084 73.8798 15.948 73.3838 15.676C72.8958 15.396 72.5118 15.012 72.2318 14.524C71.9518 14.036 71.8118 13.46 71.8118 12.796C71.8118 12.132 71.9518 11.556 72.2318 11.068C72.5118 10.58 72.8958 10.2 73.3838 9.928C73.8798 9.656 74.4358 9.52 75.0518 9.52C75.5878 9.52 76.0678 9.64 76.4918 9.88C76.9158 10.112 77.2518 10.468 77.4998 10.948C77.7478 11.428 77.8718 12.044 77.8718 12.796C77.8718 13.54 77.7518 14.156 77.5118 14.644C77.2718 15.124 76.9398 15.484 76.5158 15.724C76.0918 15.964 75.6038 16.084 75.0518 16.084ZM75.2318 14.8C75.5918 14.8 75.9118 14.72 76.1918 14.56C76.4798 14.4 76.7078 14.168 76.8758 13.864C77.0518 13.56 77.1398 13.204 77.1398 12.796C77.1398 12.38 77.0518 12.024 76.8758 11.728C76.7078 11.424 76.4798 11.192 76.1918 11.032C75.9118 10.872 75.5918 10.792 75.2318 10.792C74.8718 10.792 74.5478 10.872 74.2598 11.032C73.9798 11.192 73.7518 11.424 73.5758 11.728C73.4078 12.024 73.3238 12.38 73.3238 12.796C73.3238 13.204 73.4078 13.56 73.5758 13.864C73.7518 14.168 73.9798 14.4 74.2598 14.56C74.5478 14.72 74.8718 14.8 75.2318 14.8ZM77.1758 16V14.488L77.2358 12.784L77.1158 11.08V7.096H78.6038V16H77.1758Z" fill="#284B21"/>
<path d="M84.0667 16V8.908C84.0667 8.348 84.2307 7.896 84.5587 7.552C84.8867 7.208 85.3587 7.036 85.9747 7.036C86.2147 7.036 86.4467 7.068 86.6707 7.132C86.8947 7.196 87.0827 7.296 87.2347 7.432L86.9467 8.068C86.8267 7.964 86.6867 7.888 86.5267 7.84C86.3667 7.784 86.1947 7.756 86.0107 7.756C85.6507 7.756 85.3747 7.856 85.1827 8.056C84.9907 8.256 84.8947 8.552 84.8947 8.944V9.904L84.9187 10.3V16H84.0667ZM82.9387 10.408V9.7H86.8387V10.408H82.9387ZM90.4517 16.06C89.8437 16.06 89.2957 15.924 88.8077 15.652C88.3277 15.372 87.9477 14.992 87.6677 14.512C87.3877 14.024 87.2477 13.468 87.2477 12.844C87.2477 12.212 87.3877 11.656 87.6677 11.176C87.9477 10.696 88.3277 10.32 88.8077 10.048C89.2877 9.776 89.8357 9.64 90.4517 9.64C91.0757 9.64 91.6277 9.776 92.1077 10.048C92.5957 10.32 92.9757 10.696 93.2477 11.176C93.5277 11.656 93.6677 12.212 93.6677 12.844C93.6677 13.468 93.5277 14.024 93.2477 14.512C92.9757 14.992 92.5957 15.372 92.1077 15.652C91.6197 15.924 91.0677 16.06 90.4517 16.06ZM90.4517 15.304C90.9077 15.304 91.3117 15.204 91.6637 15.004C92.0157 14.796 92.2917 14.508 92.4917 14.14C92.6997 13.764 92.8037 13.332 92.8037 12.844C92.8037 12.348 92.6997 11.916 92.4917 11.548C92.2917 11.18 92.0157 10.896 91.6637 10.696C91.3117 10.488 90.9117 10.384 90.4637 10.384C90.0157 10.384 89.6157 10.488 89.2637 10.696C88.9117 10.896 88.6317 11.18 88.4237 11.548C88.2157 11.916 88.1117 12.348 88.1117 12.844C88.1117 13.332 88.2157 13.764 88.4237 14.14C88.6317 14.508 88.9117 14.796 89.2637 15.004C89.6157 15.204 90.0117 15.304 90.4517 15.304ZM97.9751 16.06C97.3671 16.06 96.8191 15.924 96.3311 15.652C95.8511 15.372 95.4711 14.992 95.1911 14.512C94.9111 14.024 94.7711 13.468 94.7711 12.844C94.7711 12.212 94.9111 11.656 95.1911 11.176C95.4711 10.696 95.8511 10.32 96.3311 10.048C96.8111 9.776 97.3591 9.64 97.9751 9.64C98.5991 9.64 99.1511 9.776 99.6311 10.048C100.119 10.32 100.499 10.696 100.771 11.176C101.051 11.656 101.191 12.212 101.191 12.844C101.191 13.468 101.051 14.024 100.771 14.512C100.499 14.992 100.119 15.372 99.6311 15.652C99.1431 15.924 98.5911 16.06 97.9751 16.06ZM97.9751 15.304C98.4311 15.304 98.8351 15.204 99.1871 15.004C99.5391 14.796 99.8151 14.508 100.015 14.14C100.223 13.764 100.327 13.332 100.327 12.844C100.327 12.348 100.223 11.916 100.015 11.548C99.8151 11.18 99.5391 10.896 99.1871 10.696C98.8351 10.488 98.4351 10.384 97.9871 10.384C97.5391 10.384 97.1391 10.488 96.7871 10.696C96.4351 10.896 96.1551 11.18 95.9471 11.548C95.7391 11.916 95.6351 12.348 95.6351 12.844C95.6351 13.332 95.7391 13.764 95.9471 14.14C96.1551 14.508 96.4351 14.796 96.7871 15.004C97.1391 15.204 97.5351 15.304 97.9751 15.304ZM105.439 16.06C104.839 16.06 104.299 15.924 103.819 15.652C103.347 15.38 102.975 15.004 102.703 14.524C102.431 14.036 102.295 13.476 102.295 12.844C102.295 12.204 102.431 11.644 102.703 11.164C102.975 10.684 103.347 10.312 103.819 10.048C104.299 9.776 104.839 9.64 105.439 9.64C105.991 9.64 106.483 9.764 106.915 10.012C107.355 10.26 107.703 10.624 107.959 11.104C108.223 11.576 108.355 12.156 108.355 12.844C108.355 13.524 108.227 14.104 107.971 14.584C107.715 15.064 107.367 15.432 106.927 15.688C106.495 15.936 105.999 16.06 105.439 16.06ZM105.499 15.304C105.947 15.304 106.347 15.204 106.699 15.004C107.059 14.796 107.339 14.508 107.539 14.14C107.747 13.764 107.851 13.332 107.851 12.844C107.851 12.348 107.747 11.916 107.539 11.548C107.339 11.18 107.059 10.896 106.699 10.696C106.347 10.488 105.947 10.384 105.499 10.384C105.059 10.384 104.663 10.488 104.311 10.696C103.959 10.896 103.679 11.18 103.471 11.548C103.263 11.916 103.159 12.348 103.159 12.844C103.159 13.332 103.263 13.764 103.471 14.14C103.679 14.508 103.959 14.796 104.311 15.004C104.663 15.204 105.059 15.304 105.499 15.304ZM107.875 16V14.104L107.959 12.832L107.839 11.56V7.096H108.691V16H107.875ZM110.595 13.12V12.376H113.739V13.12H110.595ZM118.451 18.388C117.875 18.388 117.323 18.304 116.795 18.136C116.267 17.968 115.839 17.728 115.511 17.416L115.943 16.768C116.239 17.032 116.603 17.24 117.035 17.392C117.475 17.552 117.939 17.632 118.427 17.632C119.227 17.632 119.815 17.444 120.191 17.068C120.567 16.7 120.755 16.124 120.755 15.34V13.768L120.875 12.688L120.791 11.608V9.7H121.607V15.232C121.607 16.32 121.339 17.116 120.803 17.62C120.275 18.132 119.491 18.388 118.451 18.388ZM118.295 15.76C117.695 15.76 117.155 15.632 116.675 15.376C116.195 15.112 115.815 14.748 115.535 14.284C115.263 13.82 115.127 13.288 115.127 12.688C115.127 12.088 115.263 11.56 115.535 11.104C115.815 10.64 116.195 10.28 116.675 10.024C117.155 9.768 117.695 9.64 118.295 9.64C118.855 9.64 119.359 9.756 119.807 9.988C120.255 10.22 120.611 10.564 120.875 11.02C121.139 11.476 121.271 12.032 121.271 12.688C121.271 13.344 121.139 13.9 120.875 14.356C120.611 14.812 120.255 15.16 119.807 15.4C119.359 15.64 118.855 15.76 118.295 15.76ZM118.379 15.004C118.843 15.004 119.255 14.908 119.615 14.716C119.975 14.516 120.259 14.244 120.467 13.9C120.675 13.548 120.779 13.144 120.779 12.688C120.779 12.232 120.675 11.832 120.467 11.488C120.259 11.144 119.975 10.876 119.615 10.684C119.255 10.484 118.843 10.384 118.379 10.384C117.923 10.384 117.511 10.484 117.143 10.684C116.783 10.876 116.499 11.144 116.291 11.488C116.091 11.832 115.991 12.232 115.991 12.688C115.991 13.144 116.091 13.548 116.291 13.9C116.499 14.244 116.783 14.516 117.143 14.716C117.511 14.908 117.923 15.004 118.379 15.004ZM123.977 16V9.7H124.793V11.416L124.709 11.116C124.885 10.636 125.181 10.272 125.597 10.024C126.013 9.768 126.529 9.64 127.145 9.64V10.468C127.113 10.468 127.081 10.468 127.049 10.468C127.017 10.46 126.985 10.456 126.953 10.456C126.289 10.456 125.769 10.66 125.393 11.068C125.017 11.468 124.829 12.04 124.829 12.784V16H123.977ZM132.179 16V14.608L132.143 14.38V12.052C132.143 11.516 131.991 11.104 131.687 10.816C131.391 10.528 130.947 10.384 130.355 10.384C129.947 10.384 129.559 10.452 129.191 10.588C128.823 10.724 128.511 10.904 128.255 11.128L127.871 10.492C128.191 10.22 128.575 10.012 129.023 9.868C129.471 9.716 129.943 9.64 130.439 9.64C131.255 9.64 131.883 9.844 132.323 10.252C132.771 10.652 132.995 11.264 132.995 12.088V16H132.179ZM130.007 16.06C129.535 16.06 129.123 15.984 128.771 15.832C128.427 15.672 128.163 15.456 127.979 15.184C127.795 14.904 127.703 14.584 127.703 14.224C127.703 13.896 127.779 13.6 127.931 13.336C128.091 13.064 128.347 12.848 128.699 12.688C129.059 12.52 129.539 12.436 130.139 12.436H132.311V13.072H130.163C129.555 13.072 129.131 13.18 128.891 13.396C128.659 13.612 128.543 13.88 128.543 14.2C128.543 14.56 128.683 14.848 128.963 15.064C129.243 15.28 129.635 15.388 130.139 15.388C130.619 15.388 131.031 15.28 131.375 15.064C131.727 14.84 131.983 14.52 132.143 14.104L132.335 14.692C132.175 15.108 131.895 15.44 131.495 15.688C131.103 15.936 130.607 16.06 130.007 16.06ZM137.817 16.06C137.217 16.06 136.677 15.924 136.197 15.652C135.725 15.38 135.353 15.004 135.081 14.524C134.809 14.036 134.673 13.476 134.673 12.844C134.673 12.204 134.809 11.644 135.081 11.164C135.353 10.684 135.725 10.312 136.197 10.048C136.677 9.776 137.217 9.64 137.817 9.64C138.369 9.64 138.861 9.764 139.293 10.012C139.733 10.26 140.081 10.624 140.337 11.104C140.601 11.576 140.733 12.156 140.733 12.844C140.733 13.524 140.605 14.104 140.349 14.584C140.093 15.064 139.745 15.432 139.305 15.688C138.873 15.936 138.377 16.06 137.817 16.06ZM137.877 15.304C138.325 15.304 138.725 15.204 139.077 15.004C139.437 14.796 139.717 14.508 139.917 14.14C140.125 13.764 140.229 13.332 140.229 12.844C140.229 12.348 140.125 11.916 139.917 11.548C139.717 11.18 139.437 10.896 139.077 10.696C138.725 10.488 138.325 10.384 137.877 10.384C137.437 10.384 137.041 10.488 136.689 10.696C136.337 10.896 136.057 11.18 135.849 11.548C135.641 11.916 135.537 12.348 135.537 12.844C135.537 13.332 135.641 13.764 135.849 14.14C136.057 14.508 136.337 14.796 136.689 15.004C137.041 15.204 137.437 15.304 137.877 15.304ZM140.253 16V14.104L140.337 12.832L140.217 11.56V7.096H141.069V16H140.253ZM146.118 16.06C145.462 16.06 144.886 15.924 144.39 15.652C143.894 15.372 143.506 14.992 143.226 14.512C142.946 14.024 142.806 13.468 142.806 12.844C142.806 12.22 142.938 11.668 143.202 11.188C143.474 10.708 143.842 10.332 144.306 10.06C144.778 9.78 145.306 9.64 145.89 9.64C146.482 9.64 147.006 9.776 147.462 10.048C147.926 10.312 148.29 10.688 148.554 11.176C148.818 11.656 148.95 12.212 148.95 12.844C148.95 12.884 148.946 12.928 148.938 12.976C148.938 13.016 148.938 13.06 148.938 13.108H143.454V12.472H148.482L148.146 12.724C148.146 12.268 148.046 11.864 147.846 11.512C147.654 11.152 147.39 10.872 147.054 10.672C146.718 10.472 146.33 10.372 145.89 10.372C145.458 10.372 145.07 10.472 144.726 10.672C144.382 10.872 144.114 11.152 143.922 11.512C143.73 11.872 143.634 12.284 143.634 12.748V12.88C143.634 13.36 143.738 13.784 143.946 14.152C144.162 14.512 144.458 14.796 144.834 15.004C145.218 15.204 145.654 15.304 146.142 15.304C146.526 15.304 146.882 15.236 147.21 15.1C147.546 14.964 147.834 14.756 148.074 14.476L148.554 15.028C148.274 15.364 147.922 15.62 147.498 15.796C147.082 15.972 146.622 16.06 146.118 16.06ZM161.697 9.64C162.209 9.64 162.653 9.74 163.029 9.94C163.413 10.132 163.709 10.428 163.917 10.828C164.133 11.228 164.241 11.732 164.241 12.34V16H163.389V12.424C163.389 11.76 163.229 11.26 162.909 10.924C162.597 10.58 162.153 10.408 161.577 10.408C161.145 10.408 160.769 10.5 160.449 10.684C160.137 10.86 159.893 11.12 159.717 11.464C159.549 11.8 159.465 12.208 159.465 12.688V16H158.613V12.424C158.613 11.76 158.453 11.26 158.133 10.924C157.813 10.58 157.365 10.408 156.789 10.408C156.365 10.408 155.993 10.5 155.673 10.684C155.353 10.86 155.105 11.12 154.929 11.464C154.761 11.8 154.677 12.208 154.677 12.688V16H153.825V9.7H154.641V11.404L154.509 11.104C154.701 10.648 155.009 10.292 155.433 10.036C155.865 9.772 156.373 9.64 156.957 9.64C157.573 9.64 158.097 9.796 158.529 10.108C158.961 10.412 159.241 10.872 159.369 11.488L159.033 11.356C159.217 10.844 159.541 10.432 160.005 10.12C160.477 9.8 161.041 9.64 161.697 9.64ZM170.5 16V14.608L170.464 14.38V12.052C170.464 11.516 170.312 11.104 170.008 10.816C169.712 10.528 169.268 10.384 168.676 10.384C168.268 10.384 167.88 10.452 167.512 10.588C167.144 10.724 166.832 10.904 166.576 11.128L166.192 10.492C166.512 10.22 166.896 10.012 167.344 9.868C167.792 9.716 168.264 9.64 168.76 9.64C169.576 9.64 170.204 9.844 170.644 10.252C171.092 10.652 171.316 11.264 171.316 12.088V16H170.5ZM168.328 16.06C167.856 16.06 167.444 15.984 167.092 15.832C166.748 15.672 166.484 15.456 166.3 15.184C166.116 14.904 166.024 14.584 166.024 14.224C166.024 13.896 166.1 13.6 166.252 13.336C166.412 13.064 166.668 12.848 167.02 12.688C167.38 12.52 167.86 12.436 168.46 12.436H170.632V13.072H168.484C167.876 13.072 167.452 13.18 167.212 13.396C166.98 13.612 166.864 13.88 166.864 14.2C166.864 14.56 167.004 14.848 167.284 15.064C167.564 15.28 167.956 15.388 168.46 15.388C168.94 15.388 169.352 15.28 169.696 15.064C170.048 14.84 170.304 14.52 170.464 14.104L170.656 14.692C170.496 15.108 170.216 15.44 169.816 15.688C169.424 15.936 168.928 16.06 168.328 16.06ZM175.622 16.06C175.03 16.06 174.574 15.9 174.254 15.58C173.934 15.26 173.774 14.808 173.774 14.224V8.308H174.626V14.176C174.626 14.544 174.718 14.828 174.902 15.028C175.094 15.228 175.366 15.328 175.718 15.328C176.094 15.328 176.406 15.22 176.654 15.004L176.954 15.616C176.786 15.768 176.582 15.88 176.342 15.952C176.11 16.024 175.87 16.06 175.622 16.06ZM172.646 10.408V9.7H176.546V10.408H172.646ZM180.958 16.06C180.302 16.06 179.726 15.924 179.23 15.652C178.734 15.372 178.346 14.992 178.066 14.512C177.786 14.024 177.646 13.468 177.646 12.844C177.646 12.22 177.778 11.668 178.042 11.188C178.314 10.708 178.682 10.332 179.146 10.06C179.618 9.78 180.146 9.64 180.73 9.64C181.322 9.64 181.846 9.776 182.302 10.048C182.766 10.312 183.13 10.688 183.394 11.176C183.658 11.656 183.79 12.212 183.79 12.844C183.79 12.884 183.786 12.928 183.778 12.976C183.778 13.016 183.778 13.06 183.778 13.108H178.294V12.472H183.322L182.986 12.724C182.986 12.268 182.886 11.864 182.686 11.512C182.494 11.152 182.23 10.872 181.894 10.672C181.558 10.472 181.17 10.372 180.73 10.372C180.298 10.372 179.91 10.472 179.566 10.672C179.222 10.872 178.954 11.152 178.762 11.512C178.57 11.872 178.474 12.284 178.474 12.748V12.88C178.474 13.36 178.578 13.784 178.786 14.152C179.002 14.512 179.298 14.796 179.674 15.004C180.058 15.204 180.494 15.304 180.982 15.304C181.366 15.304 181.722 15.236 182.05 15.1C182.386 14.964 182.674 14.756 182.914 14.476L183.394 15.028C183.114 15.364 182.762 15.62 182.338 15.796C181.922 15.972 181.462 16.06 180.958 16.06ZM185.524 16V9.7H186.34V11.416L186.256 11.116C186.432 10.636 186.728 10.272 187.144 10.024C187.56 9.768 188.076 9.64 188.692 9.64V10.468C188.66 10.468 188.628 10.468 188.596 10.468C188.564 10.46 188.532 10.456 188.5 10.456C187.836 10.456 187.316 10.66 186.94 11.068C186.564 11.468 186.376 12.04 186.376 12.784V16H185.524ZM190.247 16V9.7H191.099V16H190.247ZM190.679 8.308C190.503 8.308 190.355 8.248 190.235 8.128C190.115 8.008 190.055 7.864 190.055 7.696C190.055 7.528 190.115 7.388 190.235 7.276C190.355 7.156 190.503 7.096 190.679 7.096C190.855 7.096 191.003 7.152 191.123 7.264C191.243 7.376 191.303 7.516 191.303 7.684C191.303 7.86 191.243 8.008 191.123 8.128C191.011 8.248 190.863 8.308 190.679 8.308ZM197.418 16V14.608L197.382 14.38V12.052C197.382 11.516 197.23 11.104 196.926 10.816C196.63 10.528 196.186 10.384 195.594 10.384C195.186 10.384 194.798 10.452 194.43 10.588C194.062 10.724 193.75 10.904 193.494 11.128L193.11 10.492C193.43 10.22 193.814 10.012 194.262 9.868C194.71 9.716 195.182 9.64 195.678 9.64C196.494 9.64 197.122 9.844 197.562 10.252C198.01 10.652 198.234 11.264 198.234 12.088V16H197.418ZM195.246 16.06C194.774 16.06 194.362 15.984 194.01 15.832C193.666 15.672 193.402 15.456 193.218 15.184C193.034 14.904 192.942 14.584 192.942 14.224C192.942 13.896 193.018 13.6 193.17 13.336C193.33 13.064 193.586 12.848 193.938 12.688C194.298 12.52 194.778 12.436 195.378 12.436H197.55V13.072H195.402C194.794 13.072 194.37 13.18 194.13 13.396C193.898 13.612 193.782 13.88 193.782 14.2C193.782 14.56 193.922 14.848 194.202 15.064C194.482 15.28 194.874 15.388 195.378 15.388C195.858 15.388 196.27 15.28 196.614 15.064C196.966 14.84 197.222 14.52 197.382 14.104L197.574 14.692C197.414 15.108 197.134 15.44 196.734 15.688C196.342 15.936 195.846 16.06 195.246 16.06ZM200.548 16V7.096H201.4V16H200.548ZM205.462 16.06C204.942 16.06 204.45 15.988 203.986 15.844C203.522 15.692 203.158 15.504 202.894 15.28L203.278 14.608C203.534 14.8 203.862 14.968 204.262 15.112C204.662 15.248 205.082 15.316 205.522 15.316C206.122 15.316 206.554 15.224 206.818 15.04C207.082 14.848 207.214 14.596 207.214 14.284C207.214 14.052 207.138 13.872 206.986 13.744C206.842 13.608 206.65 13.508 206.41 13.444C206.17 13.372 205.902 13.312 205.606 13.264C205.31 13.216 205.014 13.16 204.718 13.096C204.43 13.032 204.166 12.94 203.926 12.82C203.686 12.692 203.49 12.52 203.338 12.304C203.194 12.088 203.122 11.8 203.122 11.44C203.122 11.096 203.218 10.788 203.41 10.516C203.602 10.244 203.882 10.032 204.25 9.88C204.626 9.72 205.082 9.64 205.618 9.64C206.026 9.64 206.434 9.696 206.842 9.808C207.25 9.912 207.586 10.052 207.85 10.228L207.478 10.912C207.198 10.72 206.898 10.584 206.578 10.504C206.258 10.416 205.938 10.372 205.618 10.372C205.05 10.372 204.63 10.472 204.358 10.672C204.094 10.864 203.962 11.112 203.962 11.416C203.962 11.656 204.034 11.844 204.178 11.98C204.33 12.116 204.526 12.224 204.766 12.304C205.014 12.376 205.282 12.436 205.57 12.484C205.866 12.532 206.158 12.592 206.446 12.664C206.742 12.728 207.01 12.82 207.25 12.94C207.498 13.052 207.694 13.216 207.838 13.432C207.99 13.64 208.066 13.916 208.066 14.26C208.066 14.628 207.962 14.948 207.754 15.22C207.554 15.484 207.258 15.692 206.866 15.844C206.482 15.988 206.014 16.06 205.462 16.06Z" fill="black"/>
<path d="M21.9955 31.5705C21.3544 34.7904 17.2835 38.3841 17.4627 39.1179C13.8888 45.8432 2.82138 39.4279 0.377532 36.5936C4.79204 35.735 8.79974 30.7246 14.0704 36.7774C10.9075 37.1298 7.72276 37.2463 4.54254 37.1259C10.7495 38.642 17.7398 39.0785 21.9955 31.5705Z" fill="#617C2B"/>
<path d="M31.2429 39.12C30.6029 39.12 30.0069 39.016 29.4549 38.808C28.9109 38.592 28.4349 38.292 28.0269 37.908C27.6269 37.516 27.3149 37.056 27.0909 36.528C26.8669 36 26.7549 35.424 26.7549 34.8C26.7549 34.176 26.8669 33.6 27.0909 33.072C27.3149 32.544 27.6309 32.088 28.0389 31.704C28.4469 31.312 28.9229 31.012 29.4669 30.804C30.0109 30.588 30.6069 30.48 31.2549 30.48C31.9429 30.48 32.5709 30.6 33.1389 30.84C33.7069 31.072 34.1869 31.42 34.5789 31.884L33.5709 32.832C33.2669 32.504 32.9269 32.26 32.5509 32.1C32.1749 31.932 31.7669 31.848 31.3269 31.848C30.8869 31.848 30.4829 31.92 30.1149 32.064C29.7549 32.208 29.4389 32.412 29.1669 32.676C28.9029 32.94 28.6949 33.252 28.5429 33.612C28.3989 33.972 28.3269 34.368 28.3269 34.8C28.3269 35.232 28.3989 35.628 28.5429 35.988C28.6949 36.348 28.9029 36.66 29.1669 36.924C29.4389 37.188 29.7549 37.392 30.1149 37.536C30.4829 37.68 30.8869 37.752 31.3269 37.752C31.7669 37.752 32.1749 37.672 32.5509 37.512C32.9269 37.344 33.2669 37.092 33.5709 36.756L34.5789 37.716C34.1869 38.172 33.7069 38.52 33.1389 38.76C32.5709 39 31.9389 39.12 31.2429 39.12ZM38.4659 39.084C37.9219 39.084 37.4419 38.984 37.0259 38.784C36.6099 38.576 36.2859 38.264 36.0539 37.848C35.8219 37.424 35.7059 36.892 35.7059 36.252V32.592H37.2059V36.048C37.2059 36.624 37.3339 37.056 37.5899 37.344C37.8539 37.624 38.2259 37.764 38.7059 37.764C39.0579 37.764 39.3619 37.692 39.6179 37.548C39.8819 37.404 40.0859 37.188 40.2299 36.9C40.3819 36.612 40.4579 36.256 40.4579 35.832V32.592H41.9579V39H40.5299V37.272L40.7819 37.8C40.5659 38.216 40.2499 38.536 39.8339 38.76C39.4179 38.976 38.9619 39.084 38.4659 39.084ZM45.9019 39.084C45.3659 39.084 44.8499 39.016 44.3539 38.88C43.8659 38.736 43.4779 38.564 43.1899 38.364L43.7659 37.224C44.0539 37.408 44.3979 37.56 44.7979 37.68C45.1979 37.8 45.5979 37.86 45.9979 37.86C46.4699 37.86 46.8099 37.796 47.0179 37.668C47.2339 37.54 47.3419 37.368 47.3419 37.152C47.3419 36.976 47.2699 36.844 47.1259 36.756C46.9819 36.66 46.7939 36.588 46.5619 36.54C46.3299 36.492 46.0699 36.448 45.7819 36.408C45.5019 36.368 45.2179 36.316 44.9299 36.252C44.6499 36.18 44.3939 36.08 44.1619 35.952C43.9299 35.816 43.7419 35.636 43.5979 35.412C43.4539 35.188 43.3819 34.892 43.3819 34.524C43.3819 34.116 43.4979 33.764 43.7299 33.468C43.9619 33.164 44.2859 32.932 44.7019 32.772C45.1259 32.604 45.6259 32.52 46.2019 32.52C46.6339 32.52 47.0699 32.568 47.5099 32.664C47.9499 32.76 48.3139 32.896 48.6019 33.072L48.0259 34.212C47.7219 34.028 47.4139 33.904 47.1019 33.84C46.7979 33.768 46.4939 33.732 46.1899 33.732C45.7339 33.732 45.3939 33.8 45.1699 33.936C44.9539 34.072 44.8459 34.244 44.8459 34.452C44.8459 34.644 44.9179 34.788 45.0619 34.884C45.2059 34.98 45.3939 35.056 45.6259 35.112C45.8579 35.168 46.1139 35.216 46.3939 35.256C46.6819 35.288 46.9659 35.34 47.2459 35.412C47.5259 35.484 47.7819 35.584 48.0139 35.712C48.2539 35.832 48.4459 36.004 48.5899 36.228C48.7339 36.452 48.8059 36.744 48.8059 37.104C48.8059 37.504 48.6859 37.852 48.4459 38.148C48.2139 38.444 47.8819 38.676 47.4499 38.844C47.0179 39.004 46.5019 39.084 45.9019 39.084ZM52.5096 39.084C51.8056 39.084 51.2616 38.904 50.8776 38.544C50.4936 38.176 50.3016 37.636 50.3016 36.924V31.176H51.8016V36.888C51.8016 37.192 51.8776 37.428 52.0296 37.596C52.1896 37.764 52.4096 37.848 52.6896 37.848C53.0256 37.848 53.3056 37.76 53.5296 37.584L53.9496 38.652C53.7736 38.796 53.5576 38.904 53.3016 38.976C53.0456 39.048 52.7816 39.084 52.5096 39.084ZM49.2456 33.84V32.64H53.5176V33.84H49.2456ZM57.8526 39.084C57.1966 39.084 56.6126 38.944 56.1006 38.664C55.5886 38.376 55.1846 37.984 54.8886 37.488C54.5926 36.992 54.4446 36.428 54.4446 35.796C54.4446 35.156 54.5926 34.592 54.8886 34.104C55.1846 33.608 55.5886 33.22 56.1006 32.94C56.6126 32.66 57.1966 32.52 57.8526 32.52C58.5166 32.52 59.1046 32.66 59.6166 32.94C60.1366 33.22 60.5406 33.604 60.8286 34.092C61.1246 34.58 61.2726 35.148 61.2726 35.796C61.2726 36.428 61.1246 36.992 60.8286 37.488C60.5406 37.984 60.1366 38.376 59.6166 38.664C59.1046 38.944 58.5166 39.084 57.8526 39.084ZM57.8526 37.8C58.2206 37.8 58.5486 37.72 58.8366 37.56C59.1246 37.4 59.3486 37.168 59.5086 36.864C59.6766 36.56 59.7606 36.204 59.7606 35.796C59.7606 35.38 59.6766 35.024 59.5086 34.728C59.3486 34.424 59.1246 34.192 58.8366 34.032C58.5486 33.872 58.2246 33.792 57.8646 33.792C57.4966 33.792 57.1686 33.872 56.8806 34.032C56.6006 34.192 56.3766 34.424 56.2086 34.728C56.0406 35.024 55.9566 35.38 55.9566 35.796C55.9566 36.204 56.0406 36.56 56.2086 36.864C56.3766 37.168 56.6006 37.4 56.8806 37.56C57.1686 37.72 57.4926 37.8 57.8526 37.8ZM70.795 32.52C71.307 32.52 71.759 32.62 72.151 32.82C72.551 33.02 72.863 33.328 73.087 33.744C73.311 34.152 73.423 34.68 73.423 35.328V39H71.923V35.52C71.923 34.952 71.799 34.528 71.551 34.248C71.303 33.968 70.947 33.828 70.483 33.828C70.155 33.828 69.863 33.9 69.607 34.044C69.359 34.188 69.163 34.4 69.019 34.68C68.883 34.96 68.815 35.316 68.815 35.748V39H67.315V35.52C67.315 34.952 67.191 34.528 66.943 34.248C66.695 33.968 66.339 33.828 65.875 33.828C65.547 33.828 65.255 33.9 64.999 34.044C64.751 34.188 64.555 34.4 64.411 34.68C64.275 34.96 64.207 35.316 64.207 35.748V39H62.707V32.592H64.135V34.296L63.883 33.792C64.099 33.376 64.411 33.06 64.819 32.844C65.235 32.628 65.707 32.52 66.235 32.52C66.835 32.52 67.355 32.668 67.795 32.964C68.243 33.26 68.539 33.708 68.683 34.308L68.095 34.104C68.303 33.624 68.647 33.24 69.127 32.952C69.607 32.664 70.163 32.52 70.795 32.52Z" fill="#284B21"/>
<path d="M78.6845 39V30.096H79.5365V39H78.6845ZM84.4751 39.06C83.8671 39.06 83.3191 38.924 82.8311 38.652C82.3511 38.372 81.9711 37.992 81.6911 37.512C81.4111 37.024 81.2711 36.468 81.2711 35.844C81.2711 35.212 81.4111 34.656 81.6911 34.176C81.9711 33.696 82.3511 33.32 82.8311 33.048C83.3111 32.776 83.8591 32.64 84.4751 32.64C85.0991 32.64 85.6511 32.776 86.1311 33.048C86.6191 33.32 86.9991 33.696 87.2711 34.176C87.5511 34.656 87.6911 35.212 87.6911 35.844C87.6911 36.468 87.5511 37.024 87.2711 37.512C86.9991 37.992 86.6191 38.372 86.1311 38.652C85.6431 38.924 85.0911 39.06 84.4751 39.06ZM84.4751 38.304C84.9311 38.304 85.3351 38.204 85.6871 38.004C86.0391 37.796 86.3151 37.508 86.5151 37.14C86.7231 36.764 86.8271 36.332 86.8271 35.844C86.8271 35.348 86.7231 34.916 86.5151 34.548C86.3151 34.18 86.0391 33.896 85.6871 33.696C85.3351 33.488 84.9351 33.384 84.4871 33.384C84.0391 33.384 83.6391 33.488 83.2871 33.696C82.9351 33.896 82.6551 34.18 82.4471 34.548C82.2391 34.916 82.1351 35.348 82.1351 35.844C82.1351 36.332 82.2391 36.764 82.4471 37.14C82.6551 37.508 82.9351 37.796 83.2871 38.004C83.6391 38.204 84.0351 38.304 84.4751 38.304ZM92.1186 41.388C91.5426 41.388 90.9906 41.304 90.4626 41.136C89.9346 40.968 89.5066 40.728 89.1786 40.416L89.6106 39.768C89.9066 40.032 90.2706 40.24 90.7026 40.392C91.1426 40.552 91.6066 40.632 92.0946 40.632C92.8946 40.632 93.4826 40.444 93.8586 40.068C94.2346 39.7 94.4226 39.124 94.4226 38.34V36.768L94.5426 35.688L94.4586 34.608V32.7H95.2746V38.232C95.2746 39.32 95.0066 40.116 94.4706 40.62C93.9426 41.132 93.1586 41.388 92.1186 41.388ZM91.9626 38.76C91.3626 38.76 90.8226 38.632 90.3426 38.376C89.8626 38.112 89.4826 37.748 89.2026 37.284C88.9306 36.82 88.7946 36.288 88.7946 35.688C88.7946 35.088 88.9306 34.56 89.2026 34.104C89.4826 33.64 89.8626 33.28 90.3426 33.024C90.8226 32.768 91.3626 32.64 91.9626 32.64C92.5226 32.64 93.0266 32.756 93.4746 32.988C93.9226 33.22 94.2786 33.564 94.5426 34.02C94.8066 34.476 94.9386 35.032 94.9386 35.688C94.9386 36.344 94.8066 36.9 94.5426 37.356C94.2786 37.812 93.9226 38.16 93.4746 38.4C93.0266 38.64 92.5226 38.76 91.9626 38.76ZM92.0466 38.004C92.5106 38.004 92.9226 37.908 93.2826 37.716C93.6426 37.516 93.9266 37.244 94.1346 36.9C94.3426 36.548 94.4466 36.144 94.4466 35.688C94.4466 35.232 94.3426 34.832 94.1346 34.488C93.9266 34.144 93.6426 33.876 93.2826 33.684C92.9226 33.484 92.5106 33.384 92.0466 33.384C91.5906 33.384 91.1786 33.484 90.8106 33.684C90.4506 33.876 90.1666 34.144 89.9586 34.488C89.7586 34.832 89.6586 35.232 89.6586 35.688C89.6586 36.144 89.7586 36.548 89.9586 36.9C90.1666 37.244 90.4506 37.516 90.8106 37.716C91.1786 37.908 91.5906 38.004 92.0466 38.004ZM100.213 39.06C99.6054 39.06 99.0574 38.924 98.5694 38.652C98.0894 38.372 97.7094 37.992 97.4294 37.512C97.1494 37.024 97.0094 36.468 97.0094 35.844C97.0094 35.212 97.1494 34.656 97.4294 34.176C97.7094 33.696 98.0894 33.32 98.5694 33.048C99.0494 32.776 99.5974 32.64 100.213 32.64C100.837 32.64 101.389 32.776 101.869 33.048C102.357 33.32 102.737 33.696 103.009 34.176C103.289 34.656 103.429 35.212 103.429 35.844C103.429 36.468 103.289 37.024 103.009 37.512C102.737 37.992 102.357 38.372 101.869 38.652C101.381 38.924 100.829 39.06 100.213 39.06ZM100.213 38.304C100.669 38.304 101.073 38.204 101.425 38.004C101.777 37.796 102.053 37.508 102.253 37.14C102.461 36.764 102.565 36.332 102.565 35.844C102.565 35.348 102.461 34.916 102.253 34.548C102.053 34.18 101.777 33.896 101.425 33.696C101.073 33.488 100.673 33.384 100.225 33.384C99.7774 33.384 99.3774 33.488 99.0254 33.696C98.6734 33.896 98.3934 34.18 98.1854 34.548C97.9774 34.916 97.8734 35.348 97.8734 35.844C97.8734 36.332 97.9774 36.764 98.1854 37.14C98.3934 37.508 98.6734 37.796 99.0254 38.004C99.3774 38.204 99.7734 38.304 100.213 38.304ZM110.529 39.072C109.985 39.072 109.501 38.984 109.077 38.808C108.653 38.624 108.317 38.372 108.069 38.052C107.829 37.732 107.709 37.36 107.709 36.936C107.709 36.576 107.789 36.248 107.949 35.952C108.109 35.648 108.365 35.352 108.717 35.064C109.077 34.768 109.553 34.46 110.145 34.14C110.649 33.86 111.041 33.62 111.321 33.42C111.609 33.212 111.813 33.016 111.933 32.832C112.053 32.64 112.113 32.436 112.113 32.22C112.113 31.908 112.005 31.656 111.789 31.464C111.581 31.272 111.281 31.176 110.889 31.176C110.465 31.176 110.137 31.284 109.905 31.5C109.673 31.708 109.557 31.98 109.557 32.316C109.557 32.484 109.581 32.644 109.629 32.796C109.685 32.948 109.785 33.116 109.929 33.3C110.081 33.484 110.289 33.716 110.553 33.996L114.993 38.568L114.501 39.132L109.869 34.368C109.589 34.072 109.365 33.816 109.197 33.6C109.037 33.376 108.925 33.164 108.861 32.964C108.797 32.764 108.765 32.552 108.765 32.328C108.765 31.968 108.849 31.656 109.017 31.392C109.193 31.12 109.441 30.912 109.761 30.768C110.081 30.616 110.457 30.54 110.889 30.54C111.281 30.54 111.621 30.608 111.909 30.744C112.205 30.872 112.433 31.06 112.593 31.308C112.761 31.556 112.845 31.856 112.845 32.208C112.845 32.512 112.769 32.796 112.617 33.06C112.473 33.324 112.233 33.584 111.897 33.84C111.561 34.088 111.105 34.368 110.529 34.68C110.025 34.96 109.625 35.216 109.329 35.448C109.041 35.68 108.837 35.908 108.717 36.132C108.597 36.348 108.537 36.588 108.537 36.852C108.537 37.156 108.621 37.424 108.789 37.656C108.965 37.88 109.205 38.056 109.509 38.184C109.821 38.304 110.177 38.364 110.577 38.364C111.137 38.364 111.637 38.248 112.077 38.016C112.517 37.784 112.885 37.432 113.181 36.96C113.485 36.488 113.705 35.896 113.841 35.184L114.525 35.4C114.373 36.2 114.113 36.872 113.745 37.416C113.377 37.96 112.921 38.372 112.377 38.652C111.833 38.932 111.217 39.072 110.529 39.072ZM122.729 39.06C122.177 39.06 121.681 38.936 121.241 38.688C120.801 38.432 120.453 38.064 120.197 37.584C119.941 37.104 119.813 36.524 119.813 35.844C119.813 35.156 119.941 34.576 120.197 34.104C120.461 33.624 120.813 33.26 121.253 33.012C121.693 32.764 122.185 32.64 122.729 32.64C123.329 32.64 123.865 32.776 124.337 33.048C124.817 33.312 125.193 33.684 125.465 34.164C125.737 34.644 125.873 35.204 125.873 35.844C125.873 36.476 125.737 37.036 125.465 37.524C125.193 38.004 124.817 38.38 124.337 38.652C123.865 38.924 123.329 39.06 122.729 39.06ZM119.477 39V30.096H120.329V34.56L120.209 35.832L120.293 37.104V39H119.477ZM122.669 38.304C123.117 38.304 123.517 38.204 123.869 38.004C124.221 37.796 124.501 37.508 124.709 37.14C124.917 36.764 125.021 36.332 125.021 35.844C125.021 35.348 124.917 34.916 124.709 34.548C124.501 34.18 124.221 33.896 123.869 33.696C123.517 33.488 123.117 33.384 122.669 33.384C122.221 33.384 121.817 33.488 121.457 33.696C121.105 33.896 120.825 34.18 120.617 34.548C120.417 34.916 120.317 35.348 120.317 35.844C120.317 36.332 120.417 36.764 120.617 37.14C120.825 37.508 121.105 37.796 121.457 38.004C121.817 38.204 122.221 38.304 122.669 38.304ZM127.61 39V32.7H128.426V34.416L128.342 34.116C128.518 33.636 128.814 33.272 129.23 33.024C129.646 32.768 130.162 32.64 130.778 32.64V33.468C130.746 33.468 130.714 33.468 130.682 33.468C130.65 33.46 130.618 33.456 130.586 33.456C129.922 33.456 129.402 33.66 129.026 34.068C128.65 34.468 128.462 35.04 128.462 35.784V39H127.61ZM135.812 39V37.608L135.776 37.38V35.052C135.776 34.516 135.624 34.104 135.32 33.816C135.024 33.528 134.58 33.384 133.988 33.384C133.58 33.384 133.192 33.452 132.824 33.588C132.456 33.724 132.144 33.904 131.888 34.128L131.504 33.492C131.824 33.22 132.208 33.012 132.656 32.868C133.104 32.716 133.576 32.64 134.072 32.64C134.888 32.64 135.516 32.844 135.956 33.252C136.404 33.652 136.628 34.264 136.628 35.088V39H135.812ZM133.64 39.06C133.168 39.06 132.756 38.984 132.404 38.832C132.06 38.672 131.796 38.456 131.612 38.184C131.428 37.904 131.336 37.584 131.336 37.224C131.336 36.896 131.412 36.6 131.564 36.336C131.724 36.064 131.98 35.848 132.332 35.688C132.692 35.52 133.172 35.436 133.772 35.436H135.944V36.072H133.796C133.188 36.072 132.764 36.18 132.524 36.396C132.292 36.612 132.176 36.88 132.176 37.2C132.176 37.56 132.316 37.848 132.596 38.064C132.876 38.28 133.268 38.388 133.772 38.388C134.252 38.388 134.664 38.28 135.008 38.064C135.36 37.84 135.616 37.52 135.776 37.104L135.968 37.692C135.808 38.108 135.528 38.44 135.128 38.688C134.736 38.936 134.24 39.06 133.64 39.06ZM142.158 32.64C142.67 32.64 143.118 32.74 143.502 32.94C143.894 33.132 144.198 33.428 144.414 33.828C144.638 34.228 144.75 34.732 144.75 35.34V39H143.898V35.424C143.898 34.76 143.73 34.26 143.394 33.924C143.066 33.58 142.602 33.408 142.002 33.408C141.554 33.408 141.162 33.5 140.826 33.684C140.498 33.86 140.242 34.12 140.058 34.464C139.882 34.8 139.794 35.208 139.794 35.688V39H138.942V32.7H139.758V34.428L139.626 34.104C139.826 33.648 140.146 33.292 140.586 33.036C141.026 32.772 141.55 32.64 142.158 32.64ZM149.56 39.06C148.96 39.06 148.42 38.924 147.94 38.652C147.468 38.38 147.096 38.004 146.824 37.524C146.552 37.036 146.416 36.476 146.416 35.844C146.416 35.204 146.552 34.644 146.824 34.164C147.096 33.684 147.468 33.312 147.94 33.048C148.42 32.776 148.96 32.64 149.56 32.64C150.112 32.64 150.604 32.764 151.036 33.012C151.476 33.26 151.824 33.624 152.08 34.104C152.344 34.576 152.476 35.156 152.476 35.844C152.476 36.524 152.348 37.104 152.092 37.584C151.836 38.064 151.488 38.432 151.048 38.688C150.616 38.936 150.12 39.06 149.56 39.06ZM149.62 38.304C150.068 38.304 150.468 38.204 150.82 38.004C151.18 37.796 151.46 37.508 151.66 37.14C151.868 36.764 151.972 36.332 151.972 35.844C151.972 35.348 151.868 34.916 151.66 34.548C151.46 34.18 151.18 33.896 150.82 33.696C150.468 33.488 150.068 33.384 149.62 33.384C149.18 33.384 148.784 33.488 148.432 33.696C148.08 33.896 147.8 34.18 147.592 34.548C147.384 34.916 147.28 35.348 147.28 35.844C147.28 36.332 147.384 36.764 147.592 37.14C147.8 37.508 148.08 37.796 148.432 38.004C148.784 38.204 149.18 38.304 149.62 38.304ZM151.996 39V37.104L152.08 35.832L151.96 34.56V30.096H152.812V39H151.996ZM155.184 39V32.7H156.036V39H155.184ZM155.616 31.308C155.44 31.308 155.292 31.248 155.172 31.128C155.052 31.008 154.992 30.864 154.992 30.696C154.992 30.528 155.052 30.388 155.172 30.276C155.292 30.156 155.44 30.096 155.616 30.096C155.792 30.096 155.94 30.152 156.06 30.264C156.18 30.376 156.24 30.516 156.24 30.684C156.24 30.86 156.18 31.008 156.06 31.128C155.948 31.248 155.8 31.308 155.616 31.308ZM161.623 32.64C162.135 32.64 162.583 32.74 162.967 32.94C163.359 33.132 163.663 33.428 163.879 33.828C164.103 34.228 164.215 34.732 164.215 35.34V39H163.363V35.424C163.363 34.76 163.195 34.26 162.859 33.924C162.531 33.58 162.067 33.408 161.467 33.408C161.019 33.408 160.627 33.5 160.291 33.684C159.963 33.86 159.707 34.12 159.523 34.464C159.347 34.8 159.259 35.208 159.259 35.688V39H158.407V32.7H159.223V34.428L159.091 34.104C159.291 33.648 159.611 33.292 160.051 33.036C160.491 32.772 161.015 32.64 161.623 32.64ZM169.204 41.388C168.628 41.388 168.076 41.304 167.548 41.136C167.02 40.968 166.592 40.728 166.264 40.416L166.696 39.768C166.992 40.032 167.356 40.24 167.788 40.392C168.228 40.552 168.692 40.632 169.18 40.632C169.98 40.632 170.568 40.444 170.944 40.068C171.32 39.7 171.508 39.124 171.508 38.34V36.768L171.628 35.688L171.544 34.608V32.7H172.36V38.232C172.36 39.32 172.092 40.116 171.556 40.62C171.028 41.132 170.244 41.388 169.204 41.388ZM169.048 38.76C168.448 38.76 167.908 38.632 167.428 38.376C166.948 38.112 166.568 37.748 166.288 37.284C166.016 36.82 165.88 36.288 165.88 35.688C165.88 35.088 166.016 34.56 166.288 34.104C166.568 33.64 166.948 33.28 167.428 33.024C167.908 32.768 168.448 32.64 169.048 32.64C169.608 32.64 170.112 32.756 170.56 32.988C171.008 33.22 171.364 33.564 171.628 34.02C171.892 34.476 172.024 35.032 172.024 35.688C172.024 36.344 171.892 36.9 171.628 37.356C171.364 37.812 171.008 38.16 170.56 38.4C170.112 38.64 169.608 38.76 169.048 38.76ZM169.132 38.004C169.596 38.004 170.008 37.908 170.368 37.716C170.728 37.516 171.012 37.244 171.22 36.9C171.428 36.548 171.532 36.144 171.532 35.688C171.532 35.232 171.428 34.832 171.22 34.488C171.012 34.144 170.728 33.876 170.368 33.684C170.008 33.484 169.596 33.384 169.132 33.384C168.676 33.384 168.264 33.484 167.896 33.684C167.536 33.876 167.252 34.144 167.044 34.488C166.844 34.832 166.744 35.232 166.744 35.688C166.744 36.144 166.844 36.548 167.044 36.9C167.252 37.244 167.536 37.516 167.896 37.716C168.264 37.908 168.676 38.004 169.132 38.004ZM184.265 39.06C183.721 39.06 183.229 38.936 182.789 38.688C182.349 38.432 181.997 38.068 181.733 37.596C181.477 37.116 181.349 36.532 181.349 35.844C181.349 35.156 181.477 34.576 181.733 34.104C181.989 33.624 182.337 33.26 182.777 33.012C183.217 32.764 183.713 32.64 184.265 32.64C184.865 32.64 185.401 32.776 185.873 33.048C186.353 33.312 186.729 33.688 187.001 34.176C187.273 34.656 187.409 35.212 187.409 35.844C187.409 36.484 187.273 37.044 187.001 37.524C186.729 38.004 186.353 38.38 185.873 38.652C185.401 38.924 184.865 39.06 184.265 39.06ZM181.013 41.328V32.7H181.829V34.596L181.745 35.856L181.865 37.128V41.328H181.013ZM184.205 38.304C184.653 38.304 185.053 38.204 185.405 38.004C185.757 37.796 186.037 37.508 186.245 37.14C186.453 36.764 186.557 36.332 186.557 35.844C186.557 35.356 186.453 34.928 186.245 34.56C186.037 34.192 185.757 33.904 185.405 33.696C185.053 33.488 184.653 33.384 184.205 33.384C183.757 33.384 183.353 33.488 182.993 33.696C182.641 33.904 182.361 34.192 182.153 34.56C181.953 34.928 181.853 35.356 181.853 35.844C181.853 36.332 181.953 36.764 182.153 37.14C182.361 37.508 182.641 37.796 182.993 38.004C183.353 38.204 183.757 38.304 184.205 38.304ZM189.145 39V32.7H189.961V34.416L189.877 34.116C190.053 33.636 190.349 33.272 190.765 33.024C191.181 32.768 191.697 32.64 192.313 32.64V33.468C192.281 33.468 192.249 33.468 192.217 33.468C192.185 33.46 192.153 33.456 192.121 33.456C191.457 33.456 190.937 33.66 190.561 34.068C190.185 34.468 189.997 35.04 189.997 35.784V39H189.145ZM193.868 39V32.7H194.72V39H193.868ZM194.3 31.308C194.124 31.308 193.976 31.248 193.856 31.128C193.736 31.008 193.676 30.864 193.676 30.696C193.676 30.528 193.736 30.388 193.856 30.276C193.976 30.156 194.124 30.096 194.3 30.096C194.476 30.096 194.624 30.152 194.744 30.264C194.864 30.376 194.924 30.516 194.924 30.684C194.924 30.86 194.864 31.008 194.744 31.128C194.632 31.248 194.484 31.308 194.3 31.308ZM200.307 32.64C200.819 32.64 201.267 32.74 201.651 32.94C202.043 33.132 202.347 33.428 202.563 33.828C202.787 34.228 202.899 34.732 202.899 35.34V39H202.047V35.424C202.047 34.76 201.879 34.26 201.543 33.924C201.215 33.58 200.751 33.408 200.151 33.408C199.703 33.408 199.311 33.5 198.975 33.684C198.647 33.86 198.391 34.12 198.207 34.464C198.031 34.8 197.943 35.208 197.943 35.688V39H197.091V32.7H197.907V34.428L197.775 34.104C197.975 33.648 198.295 33.292 198.735 33.036C199.175 32.772 199.699 32.64 200.307 32.64ZM207.192 39.06C206.6 39.06 206.144 38.9 205.824 38.58C205.504 38.26 205.344 37.808 205.344 37.224V31.308H206.196V37.176C206.196 37.544 206.288 37.828 206.472 38.028C206.664 38.228 206.936 38.328 207.288 38.328C207.664 38.328 207.976 38.22 208.224 38.004L208.524 38.616C208.356 38.768 208.152 38.88 207.912 38.952C207.68 39.024 207.44 39.06 207.192 39.06ZM204.216 33.408V32.7H208.116V33.408H204.216ZM210.075 39V32.7H210.927V39H210.075ZM210.507 31.308C210.331 31.308 210.183 31.248 210.063 31.128C209.943 31.008 209.883 30.864 209.883 30.696C209.883 30.528 209.943 30.388 210.063 30.276C210.183 30.156 210.331 30.096 210.507 30.096C210.683 30.096 210.831 30.152 210.951 30.264C211.071 30.376 211.131 30.516 211.131 30.684C211.131 30.86 211.071 31.008 210.951 31.128C210.839 31.248 210.691 31.308 210.507 31.308ZM216.514 32.64C217.026 32.64 217.474 32.74 217.858 32.94C218.25 33.132 218.554 33.428 218.77 33.828C218.994 34.228 219.106 34.732 219.106 35.34V39H218.254V35.424C218.254 34.76 218.086 34.26 217.75 33.924C217.422 33.58 216.958 33.408 216.358 33.408C215.91 33.408 215.518 33.5 215.182 33.684C214.854 33.86 214.598 34.12 214.414 34.464C214.238 34.8 214.15 35.208 214.15 35.688V39H213.298V32.7H214.114V34.428L213.982 34.104C214.182 33.648 214.502 33.292 214.942 33.036C215.382 32.772 215.906 32.64 216.514 32.64ZM224.095 41.388C223.519 41.388 222.967 41.304 222.439 41.136C221.911 40.968 221.483 40.728 221.155 40.416L221.587 39.768C221.883 40.032 222.247 40.24 222.679 40.392C223.119 40.552 223.583 40.632 224.071 40.632C224.871 40.632 225.459 40.444 225.835 40.068C226.211 39.7 226.399 39.124 226.399 38.34V36.768L226.519 35.688L226.435 34.608V32.7H227.251V38.232C227.251 39.32 226.983 40.116 226.447 40.62C225.919 41.132 225.135 41.388 224.095 41.388ZM223.939 38.76C223.339 38.76 222.799 38.632 222.319 38.376C221.839 38.112 221.459 37.748 221.179 37.284C220.907 36.82 220.771 36.288 220.771 35.688C220.771 35.088 220.907 34.56 221.179 34.104C221.459 33.64 221.839 33.28 222.319 33.024C222.799 32.768 223.339 32.64 223.939 32.64C224.499 32.64 225.003 32.756 225.451 32.988C225.899 33.22 226.255 33.564 226.519 34.02C226.783 34.476 226.915 35.032 226.915 35.688C226.915 36.344 226.783 36.9 226.519 37.356C226.255 37.812 225.899 38.16 225.451 38.4C225.003 38.64 224.499 38.76 223.939 38.76ZM224.023 38.004C224.487 38.004 224.899 37.908 225.259 37.716C225.619 37.516 225.903 37.244 226.111 36.9C226.319 36.548 226.423 36.144 226.423 35.688C226.423 35.232 226.319 34.832 226.111 34.488C225.903 34.144 225.619 33.876 225.259 33.684C224.899 33.484 224.487 33.384 224.023 33.384C223.567 33.384 223.155 33.484 222.787 33.684C222.427 33.876 222.143 34.144 221.935 34.488C221.735 34.832 221.635 35.232 221.635 35.688C221.635 36.144 221.735 36.548 221.935 36.9C222.143 37.244 222.427 37.516 222.787 37.716C223.155 37.908 223.567 38.004 224.023 38.004Z" fill="black"/>
<path d="M21.9955 54.5705C21.3544 57.7904 17.2835 61.3841 17.4627 62.1179C13.8888 68.8432 2.82138 62.4279 0.377532 59.5936C4.79204 58.735 8.79974 53.7246 14.0704 59.7774C10.9075 60.1298 7.72276 60.2463 4.54254 60.1259C10.7495 61.642 17.7398 62.0785 21.9955 54.5705Z" fill="#617C2B"/>
<path d="M27.3549 62V53.6H28.9149V60.68H33.3069V62H27.3549ZM37.2159 62.084C36.5599 62.084 35.9759 61.944 35.4639 61.664C34.9519 61.376 34.5479 60.984 34.2519 60.488C33.9559 59.992 33.8079 59.428 33.8079 58.796C33.8079 58.156 33.9559 57.592 34.2519 57.104C34.5479 56.608 34.9519 56.22 35.4639 55.94C35.9759 55.66 36.5599 55.52 37.2159 55.52C37.8799 55.52 38.4679 55.66 38.9799 55.94C39.4999 56.22 39.9039 56.604 40.1919 57.092C40.4879 57.58 40.6359 58.148 40.6359 58.796C40.6359 59.428 40.4879 59.992 40.1919 60.488C39.9039 60.984 39.4999 61.376 38.9799 61.664C38.4679 61.944 37.8799 62.084 37.2159 62.084ZM37.2159 60.8C37.5839 60.8 37.9119 60.72 38.1999 60.56C38.4879 60.4 38.7119 60.168 38.8719 59.864C39.0399 59.56 39.1239 59.204 39.1239 58.796C39.1239 58.38 39.0399 58.024 38.8719 57.728C38.7119 57.424 38.4879 57.192 38.1999 57.032C37.9119 56.872 37.5879 56.792 37.2279 56.792C36.8599 56.792 36.5319 56.872 36.2439 57.032C35.9639 57.192 35.7399 57.424 35.5719 57.728C35.4039 58.024 35.3199 58.38 35.3199 58.796C35.3199 59.204 35.4039 59.56 35.5719 59.864C35.7399 60.168 35.9639 60.4 36.2439 60.56C36.5319 60.72 36.8559 60.8 37.2159 60.8ZM43.3105 62L40.9585 55.592H42.3745L44.3905 61.244H43.7185L45.8305 55.592H47.0905L49.1425 61.244H48.4825L50.5585 55.592H51.8905L49.5265 62H48.0865L46.2145 56.996H46.6585L44.7505 62H43.3105ZM56.3823 62V53.6H57.6663L61.3383 59.732H60.6663L64.2783 53.6H65.5623L65.5743 62H64.0983L64.0863 55.916H64.3983L61.3263 61.04H60.6303L57.5103 55.916H57.8703V62H56.3823ZM71.7792 62.12C71.1232 62.12 70.5192 62.012 69.9672 61.796C69.4152 61.58 68.9352 61.28 68.5272 60.896C68.1192 60.504 67.8032 60.048 67.5792 59.528C67.3552 59 67.2432 58.424 67.2432 57.8C67.2432 57.176 67.3552 56.604 67.5792 56.084C67.8032 55.556 68.1192 55.1 68.5272 54.716C68.9352 54.324 69.4152 54.02 69.9672 53.804C70.5192 53.588 71.1192 53.48 71.7672 53.48C72.4232 53.48 73.0232 53.588 73.5672 53.804C74.1192 54.02 74.5992 54.324 75.0072 54.716C75.4152 55.1 75.7312 55.556 75.9552 56.084C76.1792 56.604 76.2912 57.176 76.2912 57.8C76.2912 58.424 76.1792 59 75.9552 59.528C75.7312 60.056 75.4152 60.512 75.0072 60.896C74.5992 61.28 74.1192 61.58 73.5672 61.796C73.0232 62.012 72.4272 62.12 71.7792 62.12ZM71.7672 60.752C72.1912 60.752 72.5832 60.68 72.9432 60.536C73.3032 60.392 73.6152 60.188 73.8792 59.924C74.1432 59.652 74.3472 59.34 74.4912 58.988C74.6432 58.628 74.7192 58.232 74.7192 57.8C74.7192 57.368 74.6432 56.976 74.4912 56.624C74.3472 56.264 74.1432 55.952 73.8792 55.688C73.6152 55.416 73.3032 55.208 72.9432 55.064C72.5832 54.92 72.1912 54.848 71.7672 54.848C71.3432 54.848 70.9512 54.92 70.5912 55.064C70.2392 55.208 69.9272 55.416 69.6552 55.688C69.3912 55.952 69.1832 56.264 69.0312 56.624C68.8872 56.976 68.8152 57.368 68.8152 57.8C68.8152 58.224 68.8872 58.616 69.0312 58.976C69.1832 59.336 69.3912 59.652 69.6552 59.924C69.9192 60.188 70.2312 60.392 70.5912 60.536C70.9512 60.68 71.3432 60.752 71.7672 60.752ZM81.8808 62.12C81.2248 62.12 80.6208 62.012 80.0688 61.796C79.5168 61.58 79.0368 61.28 78.6288 60.896C78.2208 60.504 77.9048 60.048 77.6808 59.528C77.4568 59 77.3448 58.424 77.3448 57.8C77.3448 57.176 77.4568 56.604 77.6808 56.084C77.9048 55.556 78.2208 55.1 78.6288 54.716C79.0368 54.324 79.5168 54.02 80.0688 53.804C80.6208 53.588 81.2208 53.48 81.8688 53.48C82.5248 53.48 83.1248 53.588 83.6688 53.804C84.2208 54.02 84.7008 54.32 85.1088 54.704C85.5168 55.088 85.8328 55.544 86.0568 56.072C86.2808 56.6 86.3928 57.176 86.3928 57.8C86.3928 58.424 86.2808 59 86.0568 59.528C85.8328 60.056 85.5168 60.512 85.1088 60.896C84.7008 61.28 84.2208 61.58 83.6688 61.796C83.1248 62.012 82.5288 62.12 81.8808 62.12ZM84.6168 63.836C84.3208 63.836 84.0328 63.8 83.7528 63.728C83.4808 63.664 83.2088 63.552 82.9368 63.392C82.6728 63.24 82.3968 63.036 82.1088 62.78C81.8208 62.532 81.5048 62.224 81.1608 61.856L82.8168 61.424C83.0408 61.72 83.2528 61.956 83.4528 62.132C83.6608 62.316 83.8608 62.448 84.0528 62.528C84.2448 62.608 84.4448 62.648 84.6528 62.648C85.2048 62.648 85.6848 62.424 86.0928 61.976L86.8128 62.84C86.2528 63.504 85.5208 63.836 84.6168 63.836ZM81.8688 60.752C82.2928 60.752 82.6848 60.68 83.0448 60.536C83.4048 60.392 83.7168 60.188 83.9808 59.924C84.2448 59.652 84.4488 59.336 84.5928 58.976C84.7448 58.616 84.8208 58.224 84.8208 57.8C84.8208 57.368 84.7448 56.976 84.5928 56.624C84.4488 56.264 84.2448 55.952 83.9808 55.688C83.7168 55.416 83.4048 55.208 83.0448 55.064C82.6848 54.92 82.2928 54.848 81.8688 54.848C81.4448 54.848 81.0528 54.92 80.6928 55.064C80.3328 55.208 80.0208 55.416 79.7568 55.688C79.4928 55.952 79.2848 56.264 79.1328 56.624C78.9888 56.976 78.9168 57.368 78.9168 57.8C78.9168 58.224 78.9888 58.616 79.1328 58.976C79.2848 59.336 79.4928 59.652 79.7568 59.924C80.0208 60.188 80.3328 60.392 80.6928 60.536C81.0528 60.68 81.4448 60.752 81.8688 60.752Z" fill="#284B21"/>
<path d="M93.467 62.072C92.923 62.072 92.439 61.984 92.015 61.808C91.591 61.624 91.255 61.372 91.007 61.052C90.767 60.732 90.647 60.36 90.647 59.936C90.647 59.576 90.727 59.248 90.887 58.952C91.047 58.648 91.303 58.352 91.655 58.064C92.015 57.768 92.491 57.46 93.083 57.14C93.587 56.86 93.979 56.62 94.259 56.42C94.547 56.212 94.751 56.016 94.871 55.832C94.991 55.64 95.051 55.436 95.051 55.22C95.051 54.908 94.943 54.656 94.727 54.464C94.519 54.272 94.219 54.176 93.827 54.176C93.403 54.176 93.075 54.284 92.843 54.5C92.611 54.708 92.495 54.98 92.495 55.316C92.495 55.484 92.519 55.644 92.567 55.796C92.623 55.948 92.723 56.116 92.867 56.3C93.019 56.484 93.227 56.716 93.491 56.996L97.931 61.568L97.439 62.132L92.807 57.368C92.527 57.072 92.303 56.816 92.135 56.6C91.975 56.376 91.863 56.164 91.799 55.964C91.735 55.764 91.703 55.552 91.703 55.328C91.703 54.968 91.787 54.656 91.955 54.392C92.131 54.12 92.379 53.912 92.699 53.768C93.019 53.616 93.395 53.54 93.827 53.54C94.219 53.54 94.559 53.608 94.847 53.744C95.143 53.872 95.371 54.06 95.531 54.308C95.699 54.556 95.783 54.856 95.783 55.208C95.783 55.512 95.707 55.796 95.555 56.06C95.411 56.324 95.171 56.584 94.835 56.84C94.499 57.088 94.043 57.368 93.467 57.68C92.963 57.96 92.563 58.216 92.267 58.448C91.979 58.68 91.775 58.908 91.655 59.132C91.535 59.348 91.475 59.588 91.475 59.852C91.475 60.156 91.559 60.424 91.727 60.656C91.903 60.88 92.143 61.056 92.447 61.184C92.759 61.304 93.115 61.364 93.515 61.364C94.075 61.364 94.575 61.248 95.015 61.016C95.455 60.784 95.823 60.432 96.119 59.96C96.423 59.488 96.643 58.896 96.779 58.184L97.463 58.4C97.311 59.2 97.051 59.872 96.683 60.416C96.315 60.96 95.859 61.372 95.315 61.652C94.771 61.932 94.155 62.072 93.467 62.072ZM105.667 62.06C105.115 62.06 104.619 61.936 104.179 61.688C103.739 61.432 103.391 61.064 103.135 60.584C102.879 60.104 102.751 59.524 102.751 58.844C102.751 58.156 102.879 57.576 103.135 57.104C103.399 56.624 103.751 56.26 104.191 56.012C104.631 55.764 105.123 55.64 105.667 55.64C106.267 55.64 106.803 55.776 107.275 56.048C107.755 56.312 108.131 56.684 108.403 57.164C108.675 57.644 108.811 58.204 108.811 58.844C108.811 59.476 108.675 60.036 108.403 60.524C108.131 61.004 107.755 61.38 107.275 61.652C106.803 61.924 106.267 62.06 105.667 62.06ZM102.415 62V53.096H103.267V57.56L103.147 58.832L103.231 60.104V62H102.415ZM105.607 61.304C106.055 61.304 106.455 61.204 106.807 61.004C107.159 60.796 107.439 60.508 107.647 60.14C107.855 59.764 107.959 59.332 107.959 58.844C107.959 58.348 107.855 57.916 107.647 57.548C107.439 57.18 107.159 56.896 106.807 56.696C106.455 56.488 106.055 56.384 105.607 56.384C105.159 56.384 104.755 56.488 104.395 56.696C104.043 56.896 103.763 57.18 103.555 57.548C103.355 57.916 103.255 58.348 103.255 58.844C103.255 59.332 103.355 59.764 103.555 60.14C103.763 60.508 104.043 60.796 104.395 61.004C104.755 61.204 105.159 61.304 105.607 61.304ZM113.152 62.06C112.616 62.06 112.148 61.96 111.748 61.76C111.348 61.56 111.036 61.26 110.812 60.86C110.596 60.46 110.488 59.96 110.488 59.36V55.7H111.34V59.264C111.34 59.936 111.504 60.444 111.832 60.788C112.168 61.124 112.636 61.292 113.236 61.292C113.676 61.292 114.056 61.204 114.376 61.028C114.704 60.844 114.952 60.58 115.12 60.236C115.296 59.892 115.384 59.48 115.384 59V55.7H116.236V62H115.42V60.272L115.552 60.584C115.352 61.048 115.04 61.412 114.616 61.676C114.2 61.932 113.712 62.06 113.152 62.06ZM118.61 62V53.096H119.462V62H118.61ZM122.505 60.368L122.529 59.276L126.453 55.7H127.497L124.725 58.352L124.245 58.76L122.505 60.368ZM121.833 62V53.096H122.685V62H121.833ZM126.717 62L124.089 58.724L124.641 58.064L127.761 62H126.717ZM133.873 62.06C133.353 62.06 132.861 61.988 132.397 61.844C131.933 61.692 131.569 61.504 131.305 61.28L131.689 60.608C131.945 60.8 132.273 60.968 132.673 61.112C133.073 61.248 133.493 61.316 133.933 61.316C134.533 61.316 134.965 61.224 135.229 61.04C135.493 60.848 135.625 60.596 135.625 60.284C135.625 60.052 135.549 59.872 135.397 59.744C135.253 59.608 135.061 59.508 134.821 59.444C134.581 59.372 134.313 59.312 134.017 59.264C133.721 59.216 133.425 59.16 133.129 59.096C132.841 59.032 132.577 58.94 132.337 58.82C132.097 58.692 131.901 58.52 131.749 58.304C131.605 58.088 131.533 57.8 131.533 57.44C131.533 57.096 131.629 56.788 131.821 56.516C132.013 56.244 132.293 56.032 132.661 55.88C133.037 55.72 133.493 55.64 134.029 55.64C134.437 55.64 134.845 55.696 135.253 55.808C135.661 55.912 135.997 56.052 136.261 56.228L135.889 56.912C135.609 56.72 135.309 56.584 134.989 56.504C134.669 56.416 134.349 56.372 134.029 56.372C133.461 56.372 133.041 56.472 132.769 56.672C132.505 56.864 132.373 57.112 132.373 57.416C132.373 57.656 132.445 57.844 132.589 57.98C132.741 58.116 132.937 58.224 133.177 58.304C133.425 58.376 133.693 58.436 133.981 58.484C134.277 58.532 134.569 58.592 134.857 58.664C135.153 58.728 135.421 58.82 135.661 58.94C135.909 59.052 136.105 59.216 136.249 59.432C136.401 59.64 136.477 59.916 136.477 60.26C136.477 60.628 136.373 60.948 136.165 61.22C135.965 61.484 135.669 61.692 135.277 61.844C134.893 61.988 134.425 62.06 133.873 62.06ZM140.644 62.06C140.108 62.06 139.64 61.96 139.24 61.76C138.84 61.56 138.528 61.26 138.304 60.86C138.088 60.46 137.98 59.96 137.98 59.36V55.7H138.832V59.264C138.832 59.936 138.996 60.444 139.324 60.788C139.66 61.124 140.128 61.292 140.728 61.292C141.168 61.292 141.548 61.204 141.868 61.028C142.196 60.844 142.444 60.58 142.612 60.236C142.788 59.892 142.876 59.48 142.876 59V55.7H143.728V62H142.912V60.272L143.044 60.584C142.844 61.048 142.532 61.412 142.108 61.676C141.692 61.932 141.204 62.06 140.644 62.06ZM149.354 62.06C148.81 62.06 148.318 61.936 147.878 61.688C147.438 61.432 147.086 61.068 146.822 60.596C146.566 60.116 146.438 59.532 146.438 58.844C146.438 58.156 146.566 57.576 146.822 57.104C147.078 56.624 147.426 56.26 147.866 56.012C148.306 55.764 148.802 55.64 149.354 55.64C149.954 55.64 150.49 55.776 150.962 56.048C151.442 56.312 151.818 56.688 152.09 57.176C152.362 57.656 152.498 58.212 152.498 58.844C152.498 59.484 152.362 60.044 152.09 60.524C151.818 61.004 151.442 61.38 150.962 61.652C150.49 61.924 149.954 62.06 149.354 62.06ZM146.102 64.328V55.7H146.918V57.596L146.834 58.856L146.954 60.128V64.328H146.102ZM149.294 61.304C149.742 61.304 150.142 61.204 150.494 61.004C150.846 60.796 151.126 60.508 151.334 60.14C151.542 59.764 151.646 59.332 151.646 58.844C151.646 58.356 151.542 57.928 151.334 57.56C151.126 57.192 150.846 56.904 150.494 56.696C150.142 56.488 149.742 56.384 149.294 56.384C148.846 56.384 148.442 56.488 148.082 56.696C147.73 56.904 147.45 57.192 147.242 57.56C147.042 57.928 146.942 58.356 146.942 58.844C146.942 59.332 147.042 59.764 147.242 60.14C147.45 60.508 147.73 60.796 148.082 61.004C148.442 61.204 148.846 61.304 149.294 61.304ZM157.487 62.06C156.943 62.06 156.451 61.936 156.011 61.688C155.571 61.432 155.219 61.068 154.955 60.596C154.699 60.116 154.571 59.532 154.571 58.844C154.571 58.156 154.699 57.576 154.955 57.104C155.211 56.624 155.559 56.26 155.999 56.012C156.439 55.764 156.935 55.64 157.487 55.64C158.087 55.64 158.623 55.776 159.095 56.048C159.575 56.312 159.951 56.688 160.223 57.176C160.495 57.656 160.631 58.212 160.631 58.844C160.631 59.484 160.495 60.044 160.223 60.524C159.951 61.004 159.575 61.38 159.095 61.652C158.623 61.924 158.087 62.06 157.487 62.06ZM154.235 64.328V55.7H155.051V57.596L154.967 58.856L155.087 60.128V64.328H154.235ZM157.427 61.304C157.875 61.304 158.275 61.204 158.627 61.004C158.979 60.796 159.259 60.508 159.467 60.14C159.675 59.764 159.779 59.332 159.779 58.844C159.779 58.356 159.675 57.928 159.467 57.56C159.259 57.192 158.979 56.904 158.627 56.696C158.275 56.488 157.875 56.384 157.427 56.384C156.979 56.384 156.575 56.488 156.215 56.696C155.863 56.904 155.583 57.192 155.375 57.56C155.175 57.928 155.075 58.356 155.075 58.844C155.075 59.332 155.175 59.764 155.375 60.14C155.583 60.508 155.863 60.796 156.215 61.004C156.575 61.204 156.979 61.304 157.427 61.304ZM162.368 62V53.096H163.22V62H162.368ZM165.639 64.388C165.343 64.388 165.059 64.34 164.787 64.244C164.523 64.148 164.295 64.004 164.103 63.812L164.499 63.176C164.659 63.328 164.831 63.444 165.015 63.524C165.207 63.612 165.419 63.656 165.651 63.656C165.931 63.656 166.171 63.576 166.371 63.416C166.579 63.264 166.775 62.992 166.959 62.6L167.367 61.676L167.463 61.544L170.055 55.7H170.895L167.739 62.756C167.563 63.164 167.367 63.488 167.151 63.728C166.943 63.968 166.715 64.136 166.467 64.232C166.219 64.336 165.943 64.388 165.639 64.388ZM167.319 62.18L164.415 55.7H165.303L167.871 61.484L167.319 62.18ZM177.803 62.06C177.195 62.06 176.647 61.924 176.159 61.652C175.679 61.372 175.299 60.992 175.019 60.512C174.739 60.024 174.599 59.468 174.599 58.844C174.599 58.212 174.739 57.656 175.019 57.176C175.299 56.696 175.679 56.32 176.159 56.048C176.639 55.776 177.187 55.64 177.803 55.64C178.427 55.64 178.979 55.776 179.459 56.048C179.947 56.32 180.327 56.696 180.599 57.176C180.879 57.656 181.019 58.212 181.019 58.844C181.019 59.468 180.879 60.024 180.599 60.512C180.327 60.992 179.947 61.372 179.459 61.652C178.971 61.924 178.419 62.06 177.803 62.06ZM177.803 61.304C178.259 61.304 178.663 61.204 179.015 61.004C179.367 60.796 179.643 60.508 179.843 60.14C180.051 59.764 180.155 59.332 180.155 58.844C180.155 58.348 180.051 57.916 179.843 57.548C179.643 57.18 179.367 56.896 179.015 56.696C178.663 56.488 178.263 56.384 177.815 56.384C177.367 56.384 176.967 56.488 176.615 56.696C176.263 56.896 175.983 57.18 175.775 57.548C175.567 57.916 175.463 58.348 175.463 58.844C175.463 59.332 175.567 59.764 175.775 60.14C175.983 60.508 176.263 60.796 176.615 61.004C176.967 61.204 177.363 61.304 177.803 61.304ZM186.011 62.06C185.467 62.06 184.975 61.936 184.535 61.688C184.095 61.432 183.743 61.068 183.479 60.596C183.223 60.116 183.095 59.532 183.095 58.844C183.095 58.156 183.223 57.576 183.479 57.104C183.735 56.624 184.083 56.26 184.523 56.012C184.963 55.764 185.459 55.64 186.011 55.64C186.611 55.64 187.147 55.776 187.619 56.048C188.099 56.312 188.475 56.688 188.747 57.176C189.019 57.656 189.155 58.212 189.155 58.844C189.155 59.484 189.019 60.044 188.747 60.524C188.475 61.004 188.099 61.38 187.619 61.652C187.147 61.924 186.611 62.06 186.011 62.06ZM182.759 64.328V55.7H183.575V57.596L183.491 58.856L183.611 60.128V64.328H182.759ZM185.951 61.304C186.399 61.304 186.799 61.204 187.151 61.004C187.503 60.796 187.783 60.508 187.991 60.14C188.199 59.764 188.303 59.332 188.303 58.844C188.303 58.356 188.199 57.928 187.991 57.56C187.783 57.192 187.503 56.904 187.151 56.696C186.799 56.488 186.399 56.384 185.951 56.384C185.503 56.384 185.099 56.488 184.739 56.696C184.387 56.904 184.107 57.192 183.899 57.56C183.699 57.928 183.599 58.356 183.599 58.844C183.599 59.332 183.699 59.764 183.899 60.14C184.107 60.508 184.387 60.796 184.739 61.004C185.099 61.204 185.503 61.304 185.951 61.304ZM192.883 62.06C192.291 62.06 191.835 61.9 191.515 61.58C191.195 61.26 191.035 60.808 191.035 60.224V54.308H191.887V60.176C191.887 60.544 191.979 60.828 192.163 61.028C192.355 61.228 192.627 61.328 192.979 61.328C193.355 61.328 193.667 61.22 193.915 61.004L194.215 61.616C194.047 61.768 193.843 61.88 193.603 61.952C193.371 62.024 193.131 62.06 192.883 62.06ZM189.907 56.408V55.7H193.807V56.408H189.907ZM195.766 62V55.7H196.618V62H195.766ZM196.198 54.308C196.022 54.308 195.874 54.248 195.754 54.128C195.634 54.008 195.574 53.864 195.574 53.696C195.574 53.528 195.634 53.388 195.754 53.276C195.874 53.156 196.022 53.096 196.198 53.096C196.374 53.096 196.522 53.152 196.642 53.264C196.762 53.376 196.822 53.516 196.822 53.684C196.822 53.86 196.762 54.008 196.642 54.128C196.53 54.248 196.382 54.308 196.198 54.308ZM201.557 62.06C200.949 62.06 200.401 61.924 199.913 61.652C199.433 61.372 199.053 60.992 198.773 60.512C198.493 60.024 198.353 59.468 198.353 58.844C198.353 58.212 198.493 57.656 198.773 57.176C199.053 56.696 199.433 56.32 199.913 56.048C200.393 55.776 200.941 55.64 201.557 55.64C202.181 55.64 202.733 55.776 203.213 56.048C203.701 56.32 204.081 56.696 204.353 57.176C204.633 57.656 204.773 58.212 204.773 58.844C204.773 59.468 204.633 60.024 204.353 60.512C204.081 60.992 203.701 61.372 203.213 61.652C202.725 61.924 202.173 62.06 201.557 62.06ZM201.557 61.304C202.013 61.304 202.417 61.204 202.769 61.004C203.121 60.796 203.397 60.508 203.597 60.14C203.805 59.764 203.909 59.332 203.909 58.844C203.909 58.348 203.805 57.916 203.597 57.548C203.397 57.18 203.121 56.896 202.769 56.696C202.417 56.488 202.017 56.384 201.569 56.384C201.121 56.384 200.721 56.488 200.369 56.696C200.017 56.896 199.737 57.18 199.529 57.548C199.321 57.916 199.217 58.348 199.217 58.844C199.217 59.332 199.321 59.764 199.529 60.14C199.737 60.508 200.017 60.796 200.369 61.004C200.721 61.204 201.117 61.304 201.557 61.304ZM209.729 55.64C210.241 55.64 210.689 55.74 211.073 55.94C211.465 56.132 211.769 56.428 211.985 56.828C212.209 57.228 212.321 57.732 212.321 58.34V62H211.469V58.424C211.469 57.76 211.301 57.26 210.965 56.924C210.637 56.58 210.173 56.408 209.573 56.408C209.125 56.408 208.733 56.5 208.397 56.684C208.069 56.86 207.813 57.12 207.629 57.464C207.453 57.8 207.365 58.208 207.365 58.688V62H206.513V55.7H207.329V57.428L207.197 57.104C207.397 56.648 207.717 56.292 208.157 56.036C208.597 55.772 209.121 55.64 209.729 55.64ZM216.314 62.06C215.794 62.06 215.302 61.988 214.838 61.844C214.374 61.692 214.01 61.504 213.746 61.28L214.13 60.608C214.386 60.8 214.714 60.968 215.114 61.112C215.514 61.248 215.934 61.316 216.374 61.316C216.974 61.316 217.406 61.224 217.67 61.04C217.934 60.848 218.066 60.596 218.066 60.284C218.066 60.052 217.99 59.872 217.838 59.744C217.694 59.608 217.502 59.508 217.262 59.444C217.022 59.372 216.754 59.312 216.458 59.264C216.162 59.216 215.866 59.16 215.57 59.096C215.282 59.032 215.018 58.94 214.778 58.82C214.538 58.692 214.342 58.52 214.19 58.304C214.046 58.088 213.974 57.8 213.974 57.44C213.974 57.096 214.07 56.788 214.262 56.516C214.454 56.244 214.734 56.032 215.102 55.88C215.478 55.72 215.934 55.64 216.47 55.64C216.878 55.64 217.286 55.696 217.694 55.808C218.102 55.912 218.438 56.052 218.702 56.228L218.33 56.912C218.05 56.72 217.75 56.584 217.43 56.504C217.11 56.416 216.79 56.372 216.47 56.372C215.902 56.372 215.482 56.472 215.21 56.672C214.946 56.864 214.814 57.112 214.814 57.416C214.814 57.656 214.886 57.844 215.03 57.98C215.182 58.116 215.378 58.224 215.618 58.304C215.866 58.376 216.134 58.436 216.422 58.484C216.718 58.532 217.01 58.592 217.298 58.664C217.594 58.728 217.862 58.82 218.102 58.94C218.35 59.052 218.546 59.216 218.69 59.432C218.842 59.64 218.918 59.916 218.918 60.26C218.918 60.628 218.814 60.948 218.606 61.22C218.406 61.484 218.11 61.692 217.718 61.844C217.334 61.988 216.866 62.06 216.314 62.06Z" fill="black"/>
<path d="M21.9955 77.5705C21.3544 80.7904 17.2835 84.3841 17.4627 85.1179C13.8888 91.8432 2.82138 85.4279 0.377532 82.5936C4.79204 81.735 8.79974 76.7246 14.0704 82.7774C10.9075 83.1298 7.72276 83.2463 4.54254 83.1259C10.7495 84.642 17.7398 85.0785 21.9955 77.5705Z" fill="#617C2B"/>
<path d="M27.3549 85V76.6H30.8109C31.5549 76.6 32.1909 76.72 32.7189 76.96C33.2549 77.2 33.6669 77.544 33.9549 77.992C34.2429 78.44 34.3869 78.972 34.3869 79.588C34.3869 80.204 34.2429 80.736 33.9549 81.184C33.6669 81.624 33.2549 81.964 32.7189 82.204C32.1909 82.436 31.5549 82.552 30.8109 82.552H28.2189L28.9149 81.844V85H27.3549ZM32.8509 85L30.7269 81.952H32.3949L34.5309 85H32.8509ZM28.9149 82.012L28.2189 81.268H30.7389C31.4269 81.268 31.9429 81.12 32.2869 80.824C32.6389 80.528 32.8149 80.116 32.8149 79.588C32.8149 79.052 32.6389 78.64 32.2869 78.352C31.9429 78.064 31.4269 77.92 30.7389 77.92H28.2189L28.9149 77.152V82.012ZM39.0003 85.084C38.2883 85.084 37.6643 84.944 37.1283 84.664C36.6003 84.376 36.1883 83.984 35.8923 83.488C35.6043 82.992 35.4603 82.428 35.4603 81.796C35.4603 81.156 35.6003 80.592 35.8803 80.104C36.1683 79.608 36.5603 79.22 37.0563 78.94C37.5603 78.66 38.1323 78.52 38.7723 78.52C39.3963 78.52 39.9523 78.656 40.4403 78.928C40.9283 79.2 41.3123 79.584 41.5923 80.08C41.8723 80.576 42.0123 81.16 42.0123 81.832C42.0123 81.896 42.0083 81.968 42.0003 82.048C42.0003 82.128 41.9963 82.204 41.9883 82.276H36.6483V81.28H41.1963L40.6083 81.592C40.6163 81.224 40.5403 80.9 40.3803 80.62C40.2203 80.34 40.0003 80.12 39.7203 79.96C39.4483 79.8 39.1323 79.72 38.7723 79.72C38.4043 79.72 38.0803 79.8 37.8003 79.96C37.5283 80.12 37.3123 80.344 37.1523 80.632C37.0003 80.912 36.9243 81.244 36.9243 81.628V81.868C36.9243 82.252 37.0123 82.592 37.1883 82.888C37.3643 83.184 37.6123 83.412 37.9323 83.572C38.2523 83.732 38.6203 83.812 39.0363 83.812C39.3963 83.812 39.7203 83.756 40.0083 83.644C40.2963 83.532 40.5523 83.356 40.7763 83.116L41.5803 84.04C41.2923 84.376 40.9283 84.636 40.4883 84.82C40.0563 84.996 39.5603 85.084 39.0003 85.084ZM43.4531 85V76.096H44.9531V85H43.4531ZM46.9219 85V78.592H48.4219V85H46.9219ZM47.6779 77.536C47.3979 77.536 47.1659 77.448 46.9819 77.272C46.8059 77.096 46.7179 76.884 46.7179 76.636C46.7179 76.38 46.8059 76.168 46.9819 76C47.1659 75.824 47.3979 75.736 47.6779 75.736C47.9579 75.736 48.1859 75.82 48.3619 75.988C48.5459 76.148 48.6379 76.352 48.6379 76.6C48.6379 76.864 48.5499 77.088 48.3739 77.272C48.1979 77.448 47.9659 77.536 47.6779 77.536ZM54.3386 85V83.704L54.2546 83.428V81.16C54.2546 80.72 54.1226 80.38 53.8586 80.14C53.5946 79.892 53.1946 79.768 52.6586 79.768C52.2986 79.768 51.9426 79.824 51.5906 79.936C51.2466 80.048 50.9546 80.204 50.7146 80.404L50.1266 79.312C50.4706 79.048 50.8786 78.852 51.3506 78.724C51.8306 78.588 52.3266 78.52 52.8386 78.52C53.7666 78.52 54.4826 78.744 54.9866 79.192C55.4986 79.632 55.7546 80.316 55.7546 81.244V85H54.3386ZM52.3226 85.084C51.8426 85.084 51.4226 85.004 51.0626 84.844C50.7026 84.676 50.4226 84.448 50.2226 84.16C50.0306 83.864 49.9346 83.532 49.9346 83.164C49.9346 82.804 50.0186 82.48 50.1866 82.192C50.3626 81.904 50.6466 81.676 51.0386 81.508C51.4306 81.34 51.9506 81.256 52.5986 81.256H54.4586V82.252H52.7066C52.1946 82.252 51.8506 82.336 51.6746 82.504C51.4986 82.664 51.4106 82.864 51.4106 83.104C51.4106 83.376 51.5186 83.592 51.7346 83.752C51.9506 83.912 52.2506 83.992 52.6346 83.992C53.0026 83.992 53.3306 83.908 53.6186 83.74C53.9146 83.572 54.1266 83.324 54.2546 82.996L54.5066 83.896C54.3626 84.272 54.1026 84.564 53.7266 84.772C53.3586 84.98 52.8906 85.084 52.3226 85.084ZM61.2317 85.084C60.6877 85.084 60.2037 84.964 59.7797 84.724C59.3557 84.484 59.0197 84.124 58.7717 83.644C58.5317 83.156 58.4117 82.54 58.4117 81.796C58.4117 81.044 58.5357 80.428 58.7837 79.948C59.0397 79.468 59.3797 79.112 59.8037 78.88C60.2357 78.64 60.7117 78.52 61.2317 78.52C61.8637 78.52 62.4197 78.656 62.8997 78.928C63.3877 79.2 63.7717 79.58 64.0517 80.068C64.3397 80.556 64.4837 81.132 64.4837 81.796C64.4837 82.46 64.3397 83.036 64.0517 83.524C63.7717 84.012 63.3877 84.396 62.8997 84.676C62.4197 84.948 61.8637 85.084 61.2317 85.084ZM57.6797 85V76.096H59.1797V80.08L59.0597 81.784L59.1077 83.488V85H57.6797ZM61.0637 83.8C61.4237 83.8 61.7437 83.72 62.0237 83.56C62.3117 83.4 62.5397 83.168 62.7077 82.864C62.8757 82.56 62.9597 82.204 62.9597 81.796C62.9597 81.38 62.8757 81.024 62.7077 80.728C62.5397 80.424 62.3117 80.192 62.0237 80.032C61.7437 79.872 61.4237 79.792 61.0637 79.792C60.7037 79.792 60.3797 79.872 60.0917 80.032C59.8037 80.192 59.5757 80.424 59.4077 80.728C59.2397 81.024 59.1557 81.38 59.1557 81.796C59.1557 82.204 59.2397 82.56 59.4077 82.864C59.5757 83.168 59.8037 83.4 60.0917 83.56C60.3797 83.72 60.7037 83.8 61.0637 83.8ZM65.9062 85V76.096H67.4062V85H65.9062ZM72.387 85.084C71.675 85.084 71.051 84.944 70.515 84.664C69.987 84.376 69.575 83.984 69.279 83.488C68.991 82.992 68.847 82.428 68.847 81.796C68.847 81.156 68.987 80.592 69.267 80.104C69.555 79.608 69.947 79.22 70.443 78.94C70.947 78.66 71.519 78.52 72.159 78.52C72.783 78.52 73.339 78.656 73.827 78.928C74.315 79.2 74.699 79.584 74.979 80.08C75.259 80.576 75.399 81.16 75.399 81.832C75.399 81.896 75.395 81.968 75.387 82.048C75.387 82.128 75.383 82.204 75.375 82.276H70.035V81.28H74.583L73.995 81.592C74.003 81.224 73.927 80.9 73.767 80.62C73.607 80.34 73.387 80.12 73.107 79.96C72.835 79.8 72.519 79.72 72.159 79.72C71.791 79.72 71.467 79.8 71.187 79.96C70.915 80.12 70.699 80.344 70.539 80.632C70.387 80.912 70.311 81.244 70.311 81.628V81.868C70.311 82.252 70.399 82.592 70.575 82.888C70.751 83.184 70.999 83.412 71.319 83.572C71.639 83.732 72.007 83.812 72.423 83.812C72.783 83.812 73.107 83.756 73.395 83.644C73.683 83.532 73.939 83.356 74.163 83.116L74.967 84.04C74.679 84.376 74.315 84.636 73.875 84.82C73.443 84.996 72.947 85.084 72.387 85.084Z" fill="#305425"/>
<path d="M83.4365 85.06C82.8925 85.06 82.4005 84.936 81.9605 84.688C81.5205 84.432 81.1685 84.068 80.9045 83.596C80.6485 83.116 80.5205 82.532 80.5205 81.844C80.5205 81.156 80.6485 80.576 80.9045 80.104C81.1605 79.624 81.5085 79.26 81.9485 79.012C82.3885 78.764 82.8845 78.64 83.4365 78.64C84.0365 78.64 84.5725 78.776 85.0445 79.048C85.5245 79.312 85.9005 79.688 86.1725 80.176C86.4445 80.656 86.5805 81.212 86.5805 81.844C86.5805 82.484 86.4445 83.044 86.1725 83.524C85.9005 84.004 85.5245 84.38 85.0445 84.652C84.5725 84.924 84.0365 85.06 83.4365 85.06ZM80.1845 87.328V78.7H81.0005V80.596L80.9165 81.856L81.0365 83.128V87.328H80.1845ZM83.3765 84.304C83.8245 84.304 84.2245 84.204 84.5765 84.004C84.9285 83.796 85.2085 83.508 85.4165 83.14C85.6245 82.764 85.7285 82.332 85.7285 81.844C85.7285 81.356 85.6245 80.928 85.4165 80.56C85.2085 80.192 84.9285 79.904 84.5765 79.696C84.2245 79.488 83.8245 79.384 83.3765 79.384C82.9285 79.384 82.5245 79.488 82.1645 79.696C81.8125 79.904 81.5325 80.192 81.3245 80.56C81.1245 80.928 81.0245 81.356 81.0245 81.844C81.0245 82.332 81.1245 82.764 81.3245 83.14C81.5325 83.508 81.8125 83.796 82.1645 84.004C82.5245 84.204 82.9285 84.304 83.3765 84.304ZM92.2301 85V83.608L92.1941 83.38V81.052C92.1941 80.516 92.0421 80.104 91.7381 79.816C91.4421 79.528 90.9981 79.384 90.4061 79.384C89.9981 79.384 89.6101 79.452 89.2421 79.588C88.8741 79.724 88.5621 79.904 88.3061 80.128L87.9221 79.492C88.2421 79.22 88.6261 79.012 89.0741 78.868C89.5221 78.716 89.9941 78.64 90.4901 78.64C91.3061 78.64 91.9341 78.844 92.3741 79.252C92.8221 79.652 93.0461 80.264 93.0461 81.088V85H92.2301ZM90.0581 85.06C89.5861 85.06 89.1741 84.984 88.8221 84.832C88.4781 84.672 88.2141 84.456 88.0301 84.184C87.8461 83.904 87.7541 83.584 87.7541 83.224C87.7541 82.896 87.8301 82.6 87.9821 82.336C88.1421 82.064 88.3981 81.848 88.7501 81.688C89.1101 81.52 89.5901 81.436 90.1901 81.436H92.3621V82.072H90.2141C89.6061 82.072 89.1821 82.18 88.9421 82.396C88.7101 82.612 88.5941 82.88 88.5941 83.2C88.5941 83.56 88.7341 83.848 89.0141 84.064C89.2941 84.28 89.6861 84.388 90.1901 84.388C90.6701 84.388 91.0821 84.28 91.4261 84.064C91.7781 83.84 92.0341 83.52 92.1941 83.104L92.3861 83.692C92.2261 84.108 91.9461 84.44 91.5461 84.688C91.1541 84.936 90.6581 85.06 90.0581 85.06ZM98.5762 78.64C99.0882 78.64 99.5362 78.74 99.9202 78.94C100.312 79.132 100.616 79.428 100.832 79.828C101.056 80.228 101.168 80.732 101.168 81.34V85H100.316V81.424C100.316 80.76 100.148 80.26 99.8122 79.924C99.4842 79.58 99.0202 79.408 98.4202 79.408C97.9722 79.408 97.5802 79.5 97.2442 79.684C96.9162 79.86 96.6602 80.12 96.4762 80.464C96.3002 80.8 96.2122 81.208 96.2122 81.688V85H95.3602V78.7H96.1762V80.428L96.0442 80.104C96.2442 79.648 96.5642 79.292 97.0042 79.036C97.4442 78.772 97.9682 78.64 98.5762 78.64ZM103.002 82.12V81.376H106.146V82.12H103.002ZM108.232 85V76.6H109.12V85H108.232ZM114.889 78.64C115.401 78.64 115.849 78.74 116.233 78.94C116.625 79.132 116.929 79.428 117.145 79.828C117.369 80.228 117.481 80.732 117.481 81.34V85H116.629V81.424C116.629 80.76 116.461 80.26 116.125 79.924C115.797 79.58 115.333 79.408 114.733 79.408C114.285 79.408 113.893 79.5 113.557 79.684C113.229 79.86 112.973 80.12 112.789 80.464C112.613 80.8 112.525 81.208 112.525 81.688V85H111.673V78.7H112.489V80.428L112.357 80.104C112.557 79.648 112.877 79.292 113.317 79.036C113.757 78.772 114.281 78.64 114.889 78.64ZM122.29 85.06C121.69 85.06 121.15 84.924 120.67 84.652C120.198 84.38 119.826 84.004 119.554 83.524C119.282 83.036 119.146 82.476 119.146 81.844C119.146 81.204 119.282 80.644 119.554 80.164C119.826 79.684 120.198 79.312 120.67 79.048C121.15 78.776 121.69 78.64 122.29 78.64C122.842 78.64 123.334 78.764 123.766 79.012C124.206 79.26 124.554 79.624 124.81 80.104C125.074 80.576 125.206 81.156 125.206 81.844C125.206 82.524 125.078 83.104 124.822 83.584C124.566 84.064 124.218 84.432 123.778 84.688C123.346 84.936 122.85 85.06 122.29 85.06ZM122.35 84.304C122.798 84.304 123.198 84.204 123.55 84.004C123.91 83.796 124.19 83.508 124.39 83.14C124.598 82.764 124.702 82.332 124.702 81.844C124.702 81.348 124.598 80.916 124.39 80.548C124.19 80.18 123.91 79.896 123.55 79.696C123.198 79.488 122.798 79.384 122.35 79.384C121.91 79.384 121.514 79.488 121.162 79.696C120.81 79.896 120.53 80.18 120.322 80.548C120.114 80.916 120.01 81.348 120.01 81.844C120.01 82.332 120.114 82.764 120.322 83.14C120.53 83.508 120.81 83.796 121.162 84.004C121.514 84.204 121.91 84.304 122.35 84.304ZM124.726 85V83.104L124.81 81.832L124.69 80.56V76.096H125.542V85H124.726ZM127.915 85V78.7H128.767V85H127.915ZM128.347 77.308C128.171 77.308 128.023 77.248 127.903 77.128C127.783 77.008 127.723 76.864 127.723 76.696C127.723 76.528 127.783 76.388 127.903 76.276C128.023 76.156 128.171 76.096 128.347 76.096C128.523 76.096 128.671 76.152 128.791 76.264C128.911 76.376 128.971 76.516 128.971 76.684C128.971 76.86 128.911 77.008 128.791 77.128C128.679 77.248 128.531 77.308 128.347 77.308ZM135.086 85V83.608L135.05 83.38V81.052C135.05 80.516 134.898 80.104 134.594 79.816C134.298 79.528 133.854 79.384 133.262 79.384C132.854 79.384 132.466 79.452 132.098 79.588C131.73 79.724 131.418 79.904 131.162 80.128L130.778 79.492C131.098 79.22 131.482 79.012 131.93 78.868C132.378 78.716 132.85 78.64 133.346 78.64C134.162 78.64 134.79 78.844 135.23 79.252C135.678 79.652 135.902 80.264 135.902 81.088V85H135.086ZM132.914 85.06C132.442 85.06 132.03 84.984 131.678 84.832C131.334 84.672 131.07 84.456 130.886 84.184C130.702 83.904 130.61 83.584 130.61 83.224C130.61 82.896 130.686 82.6 130.838 82.336C130.998 82.064 131.254 81.848 131.606 81.688C131.966 81.52 132.446 81.436 133.046 81.436H135.218V82.072H133.07C132.462 82.072 132.038 82.18 131.798 82.396C131.566 82.612 131.45 82.88 131.45 83.2C131.45 83.56 131.59 83.848 131.87 84.064C132.15 84.28 132.542 84.388 133.046 84.388C133.526 84.388 133.938 84.28 134.282 84.064C134.634 83.84 134.89 83.52 135.05 83.104L135.242 83.692C135.082 84.108 134.802 84.44 134.402 84.688C134.01 84.936 133.514 85.06 132.914 85.06ZM143.864 85.06C143.264 85.06 142.724 84.924 142.244 84.652C141.772 84.38 141.4 84.004 141.128 83.524C140.856 83.036 140.72 82.476 140.72 81.844C140.72 81.204 140.856 80.644 141.128 80.164C141.4 79.684 141.772 79.312 142.244 79.048C142.724 78.776 143.264 78.64 143.864 78.64C144.416 78.64 144.908 78.764 145.34 79.012C145.78 79.26 146.128 79.624 146.384 80.104C146.648 80.576 146.78 81.156 146.78 81.844C146.78 82.524 146.652 83.104 146.396 83.584C146.14 84.064 145.792 84.432 145.352 84.688C144.92 84.936 144.424 85.06 143.864 85.06ZM143.924 84.304C144.372 84.304 144.772 84.204 145.124 84.004C145.484 83.796 145.764 83.508 145.964 83.14C146.172 82.764 146.276 82.332 146.276 81.844C146.276 81.348 146.172 80.916 145.964 80.548C145.764 80.18 145.484 79.896 145.124 79.696C144.772 79.488 144.372 79.384 143.924 79.384C143.484 79.384 143.088 79.488 142.736 79.696C142.384 79.896 142.104 80.18 141.896 80.548C141.688 80.916 141.584 81.348 141.584 81.844C141.584 82.332 141.688 82.764 141.896 83.14C142.104 83.508 142.384 83.796 142.736 84.004C143.088 84.204 143.484 84.304 143.924 84.304ZM146.3 85V83.104L146.384 81.832L146.264 80.56V76.096H147.116V85H146.3ZM152.165 85.06C151.509 85.06 150.933 84.924 150.437 84.652C149.941 84.372 149.553 83.992 149.273 83.512C148.993 83.024 148.853 82.468 148.853 81.844C148.853 81.22 148.985 80.668 149.249 80.188C149.521 79.708 149.889 79.332 150.353 79.06C150.825 78.78 151.353 78.64 151.937 78.64C152.529 78.64 153.053 78.776 153.509 79.048C153.973 79.312 154.337 79.688 154.601 80.176C154.865 80.656 154.997 81.212 154.997 81.844C154.997 81.884 154.993 81.928 154.985 81.976C154.985 82.016 154.985 82.06 154.985 82.108H149.501V81.472H154.529L154.193 81.724C154.193 81.268 154.093 80.864 153.893 80.512C153.701 80.152 153.437 79.872 153.101 79.672C152.765 79.472 152.377 79.372 151.937 79.372C151.505 79.372 151.117 79.472 150.773 79.672C150.429 79.872 150.161 80.152 149.969 80.512C149.777 80.872 149.681 81.284 149.681 81.748V81.88C149.681 82.36 149.785 82.784 149.993 83.152C150.209 83.512 150.505 83.796 150.881 84.004C151.265 84.204 151.701 84.304 152.189 84.304C152.573 84.304 152.929 84.236 153.257 84.1C153.593 83.964 153.881 83.756 154.121 83.476L154.601 84.028C154.321 84.364 153.969 84.62 153.545 84.796C153.129 84.972 152.669 85.06 152.165 85.06ZM156.731 85V76.096H157.583V85H156.731ZM159.954 85V78.7H160.806V85H159.954ZM160.386 77.308C160.21 77.308 160.062 77.248 159.942 77.128C159.822 77.008 159.762 76.864 159.762 76.696C159.762 76.528 159.822 76.388 159.942 76.276C160.062 76.156 160.21 76.096 160.386 76.096C160.562 76.096 160.71 76.152 160.83 76.264C160.95 76.376 161.01 76.516 161.01 76.684C161.01 76.86 160.95 77.008 160.83 77.128C160.718 77.248 160.57 77.308 160.386 77.308ZM164.797 85L162.001 78.7H162.889L165.457 84.544H165.037L167.641 78.7H168.481L165.673 85H164.797ZM172.181 85.06C171.525 85.06 170.949 84.924 170.453 84.652C169.957 84.372 169.569 83.992 169.289 83.512C169.009 83.024 168.869 82.468 168.869 81.844C168.869 81.22 169.001 80.668 169.265 80.188C169.537 79.708 169.905 79.332 170.369 79.06C170.841 78.78 171.369 78.64 171.953 78.64C172.545 78.64 173.069 78.776 173.525 79.048C173.989 79.312 174.353 79.688 174.617 80.176C174.881 80.656 175.013 81.212 175.013 81.844C175.013 81.884 175.009 81.928 175.001 81.976C175.001 82.016 175.001 82.06 175.001 82.108H169.517V81.472H174.545L174.209 81.724C174.209 81.268 174.109 80.864 173.909 80.512C173.717 80.152 173.453 79.872 173.117 79.672C172.781 79.472 172.393 79.372 171.953 79.372C171.521 79.372 171.133 79.472 170.789 79.672C170.445 79.872 170.177 80.152 169.985 80.512C169.793 80.872 169.697 81.284 169.697 81.748V81.88C169.697 82.36 169.801 82.784 170.009 83.152C170.225 83.512 170.521 83.796 170.897 84.004C171.281 84.204 171.717 84.304 172.205 84.304C172.589 84.304 172.945 84.236 173.273 84.1C173.609 83.964 173.897 83.756 174.137 83.476L174.617 84.028C174.337 84.364 173.985 84.62 173.561 84.796C173.145 84.972 172.685 85.06 172.181 85.06ZM176.747 85V78.7H177.563V80.416L177.479 80.116C177.655 79.636 177.951 79.272 178.367 79.024C178.783 78.768 179.299 78.64 179.915 78.64V79.468C179.883 79.468 179.851 79.468 179.819 79.468C179.787 79.46 179.755 79.456 179.723 79.456C179.059 79.456 178.539 79.66 178.163 80.068C177.787 80.468 177.599 81.04 177.599 81.784V85H176.747ZM181.787 87.388C181.491 87.388 181.207 87.34 180.935 87.244C180.671 87.148 180.443 87.004 180.251 86.812L180.647 86.176C180.807 86.328 180.979 86.444 181.163 86.524C181.355 86.612 181.567 86.656 181.799 86.656C182.079 86.656 182.319 86.576 182.519 86.416C182.727 86.264 182.923 85.992 183.107 85.6L183.515 84.676L183.611 84.544L186.203 78.7H187.043L183.887 85.756C183.711 86.164 183.515 86.488 183.299 86.728C183.091 86.968 182.863 87.136 182.615 87.232C182.367 87.336 182.091 87.388 181.787 87.388ZM183.467 85.18L180.563 78.7H181.451L184.019 84.484L183.467 85.18Z" fill="black"/>
<path d="M21.9955 100.571C21.3544 103.79 17.2835 107.384 17.4627 108.118C13.8888 114.843 2.82138 108.428 0.377532 105.594C4.79204 104.735 8.79974 99.7246 14.0704 105.777C10.9075 106.13 7.72276 106.246 4.54254 106.126C10.7495 107.642 17.7398 108.078 21.9955 100.571Z" fill="#617C2B"/>
<path d="M27.2229 108V99.6H29.1669V106.416H33.3789V108H27.2229ZM37.4902 108.096C36.7542 108.096 36.1062 107.952 35.5462 107.664C34.9942 107.376 34.5662 106.984 34.2622 106.488C33.9582 105.984 33.8062 105.412 33.8062 104.772C33.8062 104.124 33.9542 103.552 34.2502 103.056C34.5542 102.552 34.9662 102.16 35.4862 101.88C36.0062 101.592 36.5942 101.448 37.2502 101.448C37.8822 101.448 38.4502 101.584 38.9542 101.856C39.4662 102.12 39.8702 102.504 40.1662 103.008C40.4622 103.504 40.6102 104.1 40.6102 104.796C40.6102 104.868 40.6062 104.952 40.5982 105.048C40.5902 105.136 40.5822 105.22 40.5742 105.3H35.3302V104.208H39.5902L38.8702 104.532C38.8702 104.196 38.8022 103.904 38.6662 103.656C38.5302 103.408 38.3422 103.216 38.1022 103.08C37.8622 102.936 37.5822 102.864 37.2622 102.864C36.9422 102.864 36.6582 102.936 36.4102 103.08C36.1702 103.216 35.9822 103.412 35.8462 103.668C35.7102 103.916 35.6422 104.212 35.6422 104.556V104.844C35.6422 105.196 35.7182 105.508 35.8702 105.78C36.0302 106.044 36.2502 106.248 36.5302 106.392C36.8182 106.528 37.1542 106.596 37.5382 106.596C37.8822 106.596 38.1822 106.544 38.4382 106.44C38.7022 106.336 38.9422 106.18 39.1582 105.972L40.1542 107.052C39.8582 107.388 39.4862 107.648 39.0382 107.832C38.5902 108.008 38.0742 108.096 37.4902 108.096ZM45.6408 108V106.74L45.5208 106.464V104.208C45.5208 103.808 45.3968 103.496 45.1488 103.272C44.9088 103.048 44.5368 102.936 44.0328 102.936C43.6888 102.936 43.3488 102.992 43.0128 103.104C42.6848 103.208 42.4048 103.352 42.1728 103.536L41.5008 102.228C41.8528 101.98 42.2768 101.788 42.7728 101.652C43.2688 101.516 43.7728 101.448 44.2848 101.448C45.2688 101.448 46.0328 101.68 46.5768 102.144C47.1208 102.608 47.3928 103.332 47.3928 104.316V108H45.6408ZM43.6728 108.096C43.1688 108.096 42.7368 108.012 42.3768 107.844C42.0168 107.668 41.7408 107.432 41.5488 107.136C41.3568 106.84 41.2608 106.508 41.2608 106.14C41.2608 105.756 41.3528 105.42 41.5368 105.132C41.7288 104.844 42.0288 104.62 42.4368 104.46C42.8448 104.292 43.3768 104.208 44.0328 104.208H45.7488V105.3H44.2368C43.7968 105.3 43.4928 105.372 43.3248 105.516C43.1648 105.66 43.0848 105.84 43.0848 106.056C43.0848 106.296 43.1768 106.488 43.3608 106.632C43.5528 106.768 43.8128 106.836 44.1408 106.836C44.4528 106.836 44.7328 106.764 44.9808 106.62C45.2288 106.468 45.4088 106.248 45.5208 105.96L45.8088 106.824C45.6728 107.24 45.4248 107.556 45.0648 107.772C44.7048 107.988 44.2408 108.096 43.6728 108.096ZM50.635 106.68L50.683 104.4L53.695 101.544H55.927L53.035 104.484L52.063 105.276L50.635 106.68ZM49.087 108V99.096H50.959V108H49.087ZM53.899 108L51.715 105.288L52.891 103.836L56.167 108H53.899Z" fill="#305425"/>
<path d="M56.8649 105.12V104.376H60.0089V105.12H56.8649ZM65.1669 108.06C64.6229 108.06 64.1309 107.936 63.6909 107.688C63.2509 107.432 62.8989 107.068 62.6349 106.596C62.3789 106.116 62.2509 105.532 62.2509 104.844C62.2509 104.156 62.3789 103.576 62.6349 103.104C62.8909 102.624 63.2389 102.26 63.6789 102.012C64.1189 101.764 64.6149 101.64 65.1669 101.64C65.7669 101.64 66.3029 101.776 66.7749 102.048C67.2549 102.312 67.6309 102.688 67.9029 103.176C68.1749 103.656 68.3109 104.212 68.3109 104.844C68.3109 105.484 68.1749 106.044 67.9029 106.524C67.6309 107.004 67.2549 107.38 66.7749 107.652C66.3029 107.924 65.7669 108.06 65.1669 108.06ZM61.9149 110.328V101.7H62.7309V103.596L62.6469 104.856L62.7669 106.128V110.328H61.9149ZM65.1069 107.304C65.5549 107.304 65.9549 107.204 66.3069 107.004C66.6589 106.796 66.9389 106.508 67.1469 106.14C67.3549 105.764 67.4589 105.332 67.4589 104.844C67.4589 104.356 67.3549 103.928 67.1469 103.56C66.9389 103.192 66.6589 102.904 66.3069 102.696C65.9549 102.488 65.5549 102.384 65.1069 102.384C64.6589 102.384 64.2549 102.488 63.8949 102.696C63.5429 102.904 63.2629 103.192 63.0549 103.56C62.8549 103.928 62.7549 104.356 62.7549 104.844C62.7549 105.332 62.8549 105.764 63.0549 106.14C63.2629 106.508 63.5429 106.796 63.8949 107.004C64.2549 107.204 64.6589 107.304 65.1069 107.304ZM70.0477 108V101.7H70.8637V103.416L70.7797 103.116C70.9557 102.636 71.2517 102.272 71.6677 102.024C72.0837 101.768 72.5997 101.64 73.2157 101.64V102.468C73.1837 102.468 73.1517 102.468 73.1197 102.468C73.0877 102.46 73.0557 102.456 73.0237 102.456C72.3597 102.456 71.8397 102.66 71.4637 103.068C71.0877 103.468 70.8997 104.04 70.8997 104.784V108H70.0477ZM77.2798 108.06C76.6718 108.06 76.1238 107.924 75.6358 107.652C75.1558 107.372 74.7758 106.992 74.4958 106.512C74.2158 106.024 74.0758 105.468 74.0758 104.844C74.0758 104.212 74.2158 103.656 74.4958 103.176C74.7758 102.696 75.1558 102.32 75.6358 102.048C76.1158 101.776 76.6638 101.64 77.2798 101.64C77.9038 101.64 78.4558 101.776 78.9358 102.048C79.4238 102.32 79.8038 102.696 80.0758 103.176C80.3558 103.656 80.4958 104.212 80.4958 104.844C80.4958 105.468 80.3558 106.024 80.0758 106.512C79.8038 106.992 79.4238 107.372 78.9358 107.652C78.4478 107.924 77.8958 108.06 77.2798 108.06ZM77.2798 107.304C77.7358 107.304 78.1398 107.204 78.4918 107.004C78.8438 106.796 79.1198 106.508 79.3198 106.14C79.5278 105.764 79.6318 105.332 79.6318 104.844C79.6318 104.348 79.5278 103.916 79.3198 103.548C79.1198 103.18 78.8438 102.896 78.4918 102.696C78.1398 102.488 77.7398 102.384 77.2918 102.384C76.8438 102.384 76.4438 102.488 76.0918 102.696C75.7398 102.896 75.4598 103.18 75.2518 103.548C75.0438 103.916 74.9398 104.348 74.9398 104.844C74.9398 105.332 75.0438 105.764 75.2518 106.14C75.4598 106.508 75.7398 106.796 76.0918 107.004C76.4438 107.204 76.8398 107.304 77.2798 107.304ZM84.8032 108.06C84.1952 108.06 83.6472 107.924 83.1592 107.652C82.6792 107.372 82.2992 106.992 82.0192 106.512C81.7392 106.024 81.5992 105.468 81.5992 104.844C81.5992 104.212 81.7392 103.656 82.0192 103.176C82.2992 102.696 82.6792 102.32 83.1592 102.048C83.6392 101.776 84.1872 101.64 84.8032 101.64C85.4272 101.64 85.9792 101.776 86.4592 102.048C86.9472 102.32 87.3272 102.696 87.5992 103.176C87.8792 103.656 88.0192 104.212 88.0192 104.844C88.0192 105.468 87.8792 106.024 87.5992 106.512C87.3272 106.992 86.9472 107.372 86.4592 107.652C85.9712 107.924 85.4192 108.06 84.8032 108.06ZM84.8032 107.304C85.2592 107.304 85.6632 107.204 86.0152 107.004C86.3672 106.796 86.6432 106.508 86.8432 106.14C87.0512 105.764 87.1552 105.332 87.1552 104.844C87.1552 104.348 87.0512 103.916 86.8432 103.548C86.6432 103.18 86.3672 102.896 86.0152 102.696C85.6632 102.488 85.2632 102.384 84.8152 102.384C84.3672 102.384 83.9672 102.488 83.6152 102.696C83.2632 102.896 82.9832 103.18 82.7752 103.548C82.5672 103.916 82.4632 104.348 82.4632 104.844C82.4632 105.332 82.5672 105.764 82.7752 106.14C82.9832 106.508 83.2632 106.796 83.6152 107.004C83.9672 107.204 84.3632 107.304 84.8032 107.304ZM89.9027 108V100.908C89.9027 100.348 90.0667 99.896 90.3947 99.552C90.7227 99.208 91.1947 99.036 91.8107 99.036C92.0507 99.036 92.2827 99.068 92.5067 99.132C92.7307 99.196 92.9187 99.296 93.0707 99.432L92.7827 100.068C92.6627 99.964 92.5227 99.888 92.3627 99.84C92.2027 99.784 92.0307 99.756 91.8467 99.756C91.4867 99.756 91.2107 99.856 91.0187 100.056C90.8267 100.256 90.7307 100.552 90.7307 100.944V101.904L90.7547 102.3V108H89.9027ZM88.7747 102.408V101.7H92.6747V102.408H88.7747ZM99.1857 108.072C98.6417 108.072 98.1577 107.984 97.7337 107.808C97.3097 107.624 96.9737 107.372 96.7257 107.052C96.4857 106.732 96.3657 106.36 96.3657 105.936C96.3657 105.576 96.4457 105.248 96.6057 104.952C96.7657 104.648 97.0217 104.352 97.3737 104.064C97.7337 103.768 98.2097 103.46 98.8017 103.14C99.3057 102.86 99.6977 102.62 99.9777 102.42C100.266 102.212 100.47 102.016 100.59 101.832C100.71 101.64 100.77 101.436 100.77 101.22C100.77 100.908 100.662 100.656 100.446 100.464C100.238 100.272 99.9377 100.176 99.5457 100.176C99.1217 100.176 98.7937 100.284 98.5617 100.5C98.3297 100.708 98.2137 100.98 98.2137 101.316C98.2137 101.484 98.2377 101.644 98.2857 101.796C98.3417 101.948 98.4417 102.116 98.5857 102.3C98.7377 102.484 98.9457 102.716 99.2097 102.996L103.65 107.568L103.158 108.132L98.5257 103.368C98.2457 103.072 98.0217 102.816 97.8537 102.6C97.6937 102.376 97.5817 102.164 97.5177 101.964C97.4537 101.764 97.4217 101.552 97.4217 101.328C97.4217 100.968 97.5057 100.656 97.6737 100.392C97.8497 100.12 98.0977 99.912 98.4177 99.768C98.7377 99.616 99.1137 99.54 99.5457 99.54C99.9377 99.54 100.278 99.608 100.566 99.744C100.862 99.872 101.09 100.06 101.25 100.308C101.418 100.556 101.502 100.856 101.502 101.208C101.502 101.512 101.426 101.796 101.274 102.06C101.13 102.324 100.89 102.584 100.554 102.84C100.218 103.088 99.7617 103.368 99.1857 103.68C98.6817 103.96 98.2817 104.216 97.9857 104.448C97.6977 104.68 97.4937 104.908 97.3737 105.132C97.2537 105.348 97.1937 105.588 97.1937 105.852C97.1937 106.156 97.2777 106.424 97.4457 106.656C97.6217 106.88 97.8617 107.056 98.1657 107.184C98.4777 107.304 98.8337 107.364 99.2337 107.364C99.7937 107.364 100.294 107.248 100.734 107.016C101.174 106.784 101.542 106.432 101.838 105.96C102.142 105.488 102.362 104.896 102.498 104.184L103.182 104.4C103.03 105.2 102.77 105.872 102.402 106.416C102.034 106.96 101.578 107.372 101.034 107.652C100.49 107.932 99.8737 108.072 99.1857 108.072ZM110.642 108.06C110.042 108.06 109.502 107.924 109.022 107.652C108.55 107.38 108.178 107.004 107.906 106.524C107.634 106.036 107.498 105.476 107.498 104.844C107.498 104.204 107.634 103.644 107.906 103.164C108.178 102.684 108.55 102.312 109.022 102.048C109.502 101.776 110.042 101.64 110.642 101.64C111.194 101.64 111.686 101.764 112.118 102.012C112.558 102.26 112.906 102.624 113.162 103.104C113.426 103.576 113.558 104.156 113.558 104.844C113.558 105.524 113.43 106.104 113.174 106.584C112.918 107.064 112.57 107.432 112.13 107.688C111.698 107.936 111.202 108.06 110.642 108.06ZM110.702 107.304C111.15 107.304 111.55 107.204 111.902 107.004C112.262 106.796 112.542 106.508 112.742 106.14C112.95 105.764 113.054 105.332 113.054 104.844C113.054 104.348 112.95 103.916 112.742 103.548C112.542 103.18 112.262 102.896 111.902 102.696C111.55 102.488 111.15 102.384 110.702 102.384C110.262 102.384 109.866 102.488 109.514 102.696C109.162 102.896 108.882 103.18 108.674 103.548C108.466 103.916 108.362 104.348 108.362 104.844C108.362 105.332 108.466 105.764 108.674 106.14C108.882 106.508 109.162 106.796 109.514 107.004C109.866 107.204 110.262 107.304 110.702 107.304ZM113.078 108V106.104L113.162 104.832L113.042 103.56V99.096H113.894V108H113.078ZM118.87 108.06C118.334 108.06 117.866 107.96 117.466 107.76C117.066 107.56 116.754 107.26 116.53 106.86C116.314 106.46 116.206 105.96 116.206 105.36V101.7H117.058V105.264C117.058 105.936 117.222 106.444 117.55 106.788C117.886 107.124 118.354 107.292 118.954 107.292C119.394 107.292 119.774 107.204 120.094 107.028C120.422 106.844 120.67 106.58 120.838 106.236C121.014 105.892 121.102 105.48 121.102 105V101.7H121.954V108H121.138V106.272L121.27 106.584C121.07 107.048 120.758 107.412 120.334 107.676C119.918 107.932 119.43 108.06 118.87 108.06ZM124.329 108V101.7H125.145V103.416L125.061 103.116C125.237 102.636 125.533 102.272 125.949 102.024C126.365 101.768 126.881 101.64 127.497 101.64V102.468C127.465 102.468 127.433 102.468 127.401 102.468C127.369 102.46 127.337 102.456 127.305 102.456C126.641 102.456 126.121 102.66 125.745 103.068C125.369 103.468 125.181 104.04 125.181 104.784V108H124.329ZM132.531 108V106.608L132.495 106.38V104.052C132.495 103.516 132.343 103.104 132.039 102.816C131.743 102.528 131.299 102.384 130.707 102.384C130.299 102.384 129.911 102.452 129.543 102.588C129.175 102.724 128.863 102.904 128.607 103.128L128.223 102.492C128.543 102.22 128.927 102.012 129.375 101.868C129.823 101.716 130.295 101.64 130.791 101.64C131.607 101.64 132.235 101.844 132.675 102.252C133.123 102.652 133.347 103.264 133.347 104.088V108H132.531ZM130.359 108.06C129.887 108.06 129.475 107.984 129.123 107.832C128.779 107.672 128.515 107.456 128.331 107.184C128.147 106.904 128.055 106.584 128.055 106.224C128.055 105.896 128.131 105.6 128.283 105.336C128.443 105.064 128.699 104.848 129.051 104.688C129.411 104.52 129.891 104.436 130.491 104.436H132.663V105.072H130.515C129.907 105.072 129.483 105.18 129.243 105.396C129.011 105.612 128.895 105.88 128.895 106.2C128.895 106.56 129.035 106.848 129.315 107.064C129.595 107.28 129.987 107.388 130.491 107.388C130.971 107.388 131.383 107.28 131.727 107.064C132.079 106.84 132.335 106.52 132.495 106.104L132.687 106.692C132.527 107.108 132.247 107.44 131.847 107.688C131.455 107.936 130.959 108.06 130.359 108.06ZM138.913 108.06C138.361 108.06 137.865 107.936 137.425 107.688C136.985 107.432 136.637 107.064 136.381 106.584C136.125 106.104 135.997 105.524 135.997 104.844C135.997 104.156 136.125 103.576 136.381 103.104C136.645 102.624 136.997 102.26 137.437 102.012C137.877 101.764 138.369 101.64 138.913 101.64C139.513 101.64 140.049 101.776 140.521 102.048C141.001 102.312 141.377 102.684 141.649 103.164C141.921 103.644 142.057 104.204 142.057 104.844C142.057 105.476 141.921 106.036 141.649 106.524C141.377 107.004 141.001 107.38 140.521 107.652C140.049 107.924 139.513 108.06 138.913 108.06ZM135.661 108V99.096H136.513V103.56L136.393 104.832L136.477 106.104V108H135.661ZM138.853 107.304C139.301 107.304 139.701 107.204 140.053 107.004C140.405 106.796 140.685 106.508 140.893 106.14C141.101 105.764 141.205 105.332 141.205 104.844C141.205 104.348 141.101 103.916 140.893 103.548C140.685 103.18 140.405 102.896 140.053 102.696C139.701 102.488 139.301 102.384 138.853 102.384C138.405 102.384 138.001 102.488 137.641 102.696C137.289 102.896 137.009 103.18 136.801 103.548C136.601 103.916 136.501 104.348 136.501 104.844C136.501 105.332 136.601 105.764 136.801 106.14C137.009 106.508 137.289 106.796 137.641 107.004C138.001 107.204 138.405 107.304 138.853 107.304ZM143.794 108V99.096H144.646V108H143.794ZM149.692 108.06C149.036 108.06 148.46 107.924 147.964 107.652C147.468 107.372 147.08 106.992 146.8 106.512C146.52 106.024 146.38 105.468 146.38 104.844C146.38 104.22 146.512 103.668 146.776 103.188C147.048 102.708 147.416 102.332 147.88 102.06C148.352 101.78 148.88 101.64 149.464 101.64C150.056 101.64 150.58 101.776 151.036 102.048C151.5 102.312 151.864 102.688 152.128 103.176C152.392 103.656 152.524 104.212 152.524 104.844C152.524 104.884 152.52 104.928 152.512 104.976C152.512 105.016 152.512 105.06 152.512 105.108H147.028V104.472H152.056L151.72 104.724C151.72 104.268 151.62 103.864 151.42 103.512C151.228 103.152 150.964 102.872 150.628 102.672C150.292 102.472 149.904 102.372 149.464 102.372C149.032 102.372 148.644 102.472 148.3 102.672C147.956 102.872 147.688 103.152 147.496 103.512C147.304 103.872 147.208 104.284 147.208 104.748V104.88C147.208 105.36 147.312 105.784 147.52 106.152C147.736 106.512 148.032 106.796 148.408 107.004C148.792 107.204 149.228 107.304 149.716 107.304C150.1 107.304 150.456 107.236 150.784 107.1C151.12 106.964 151.408 106.756 151.648 106.476L152.128 107.028C151.848 107.364 151.496 107.62 151.072 107.796C150.656 107.972 150.196 108.06 149.692 108.06Z" fill="black"/>
</svg>
