<svg width="373" height="12" viewBox="0 0 373 12" fill="none" xmlns="http://www.w3.org/2000/svg">
<path d="M9.32813e-06 9.26367V0.863671H3.45601C4.20001 0.863671 4.83601 0.983671 5.36401 1.22367C5.90001 1.46367 6.31201 1.80767 6.60001 2.25567C6.88801 2.70367 7.03201 3.23567 7.03201 3.85167C7.03201 4.46767 6.88801 4.99967 6.60001 5.44767C6.31201 5.89567 5.90001 6.23967 5.36401 6.47967C4.83601 6.71967 4.20001 6.83967 3.45601 6.83967H0.864009L1.56001 6.10767V9.26367H9.32813e-06ZM1.56001 6.27567L0.864009 5.51967H3.38401C4.07201 5.51967 4.58801 5.37567 4.93201 5.08767C5.28401 4.79167 5.46001 4.37967 5.46001 3.85167C5.46001 3.31567 5.28401 2.90367 4.93201 2.61567C4.58801 2.32767 4.07201 2.18367 3.38401 2.18367H0.864009L1.56001 1.41567V6.27567ZM12.3353 9.26367V7.96767L12.2513 7.69167V5.42367C12.2513 4.98367 12.1193 4.64367 11.8553 4.40367C11.5913 4.15567 11.1913 4.03167 10.6553 4.03167C10.2953 4.03167 9.93926 4.08767 9.58726 4.19967C9.24326 4.31167 8.95126 4.46767 8.71126 4.66767L8.12326 3.57567C8.46726 3.31167 8.87526 3.11567 9.34726 2.98767C9.82726 2.85167 10.3233 2.78367 10.8353 2.78367C11.7633 2.78367 12.4793 3.00767 12.9833 3.45567C13.4953 3.89567 13.7513 4.57967 13.7513 5.50767V9.26367H12.3353ZM10.3193 9.34767C9.83926 9.34767 9.41926 9.26767 9.05926 9.10767C8.69926 8.93967 8.41926 8.71167 8.21926 8.42367C8.02726 8.12767 7.93126 7.79567 7.93126 7.42767C7.93126 7.06767 8.01526 6.74367 8.18326 6.45567C8.35926 6.16767 8.64326 5.93967 9.03526 5.77167C9.42726 5.60367 9.94726 5.51967 10.5953 5.51967H12.4553V6.51567H10.7033C10.1913 6.51567 9.84726 6.59967 9.67126 6.76767C9.49526 6.92767 9.40726 7.12767 9.40726 7.36767C9.40726 7.63967 9.51526 7.85567 9.73126 8.01567C9.94726 8.17567 10.2473 8.25567 10.6313 8.25567C10.9993 8.25567 11.3273 8.17167 11.6153 8.00367C11.9113 7.83567 12.1233 7.58767 12.2513 7.25967L12.5033 8.15967C12.3593 8.53567 12.0993 8.82767 11.7233 9.03567C11.3553 9.24367 10.8873 9.34767 10.3193 9.34767ZM18.628 9.34767C17.956 9.34767 17.356 9.20767 16.828 8.92767C16.308 8.63967 15.9 8.24767 15.604 7.75167C15.308 7.25567 15.16 6.69167 15.16 6.05967C15.16 5.41967 15.308 4.85567 15.604 4.36767C15.9 3.87167 16.308 3.48367 16.828 3.20367C17.356 2.92367 17.956 2.78367 18.628 2.78367C19.252 2.78367 19.8 2.91167 20.272 3.16767C20.752 3.41567 21.116 3.78367 21.364 4.27167L20.212 4.94367C20.02 4.63967 19.784 4.41567 19.504 4.27167C19.232 4.12767 18.936 4.05567 18.616 4.05567C18.248 4.05567 17.916 4.13567 17.62 4.29567C17.324 4.45567 17.092 4.68767 16.924 4.99167C16.756 5.28767 16.672 5.64367 16.672 6.05967C16.672 6.47567 16.756 6.83567 16.924 7.13967C17.092 7.43567 17.324 7.66367 17.62 7.82367C17.916 7.98367 18.248 8.06367 18.616 8.06367C18.936 8.06367 19.232 7.99167 19.504 7.84767C19.784 7.70367 20.02 7.47967 20.212 7.17567L21.364 7.84767C21.116 8.32767 20.752 8.69967 20.272 8.96367C19.8 9.21967 19.252 9.34767 18.628 9.34767ZM23.8261 7.83567L23.8621 5.95167L27.2101 2.85567H29.0101L26.1661 5.71167L25.3741 6.37167L23.8261 7.83567ZM22.6021 9.26367V0.359671H24.1021V9.26367H22.6021ZM27.4381 9.26367L25.0981 6.37167L26.0461 5.17167L29.2621 9.26367H27.4381ZM30.231 9.26367V2.85567H31.731V9.26367H30.231ZM30.987 1.79967C30.707 1.79967 30.475 1.71167 30.291 1.53567C30.115 1.35967 30.027 1.14767 30.027 0.899672C30.027 0.643672 30.115 0.431671 30.291 0.263671C30.475 0.0876715 30.707 -0.000328302 30.987 -0.000328302C31.267 -0.000328302 31.495 0.0836716 31.671 0.251671C31.855 0.411672 31.947 0.615672 31.947 0.863671C31.947 1.12767 31.859 1.35167 31.683 1.53567C31.507 1.71167 31.275 1.79967 30.987 1.79967ZM37.3358 2.78367C37.8478 2.78367 38.3038 2.88367 38.7038 3.08367C39.1118 3.28367 39.4318 3.59167 39.6638 4.00767C39.8958 4.41567 40.0118 4.94367 40.0118 5.59167V9.26367H38.5118V5.78367C38.5118 5.21567 38.3758 4.79167 38.1038 4.51167C37.8398 4.23167 37.4678 4.09167 36.9878 4.09167C36.6358 4.09167 36.3238 4.16367 36.0518 4.30767C35.7798 4.45167 35.5678 4.66767 35.4158 4.95567C35.2718 5.23567 35.1998 5.59167 35.1998 6.02367V9.26367H33.6998V2.85567H35.1278V4.58367L34.8758 4.05567C35.0998 3.64767 35.4238 3.33567 35.8478 3.11967C36.2798 2.89567 36.7758 2.78367 37.3358 2.78367ZM44.8303 11.6757C44.2383 11.6757 43.6583 11.5957 43.0903 11.4357C42.5303 11.2837 42.0703 11.0597 41.7103 10.7637L42.3823 9.63567C42.6623 9.86767 43.0143 10.0517 43.4383 10.1877C43.8703 10.3317 44.3063 10.4037 44.7463 10.4037C45.4503 10.4037 45.9663 10.2397 46.2943 9.91167C46.6223 9.59167 46.7863 9.10767 46.7863 8.45967V7.31967L46.9063 5.86767L46.8583 4.41567V2.85567H48.2863V8.29167C48.2863 9.45167 47.9903 10.3037 47.3983 10.8477C46.8063 11.3997 45.9503 11.6757 44.8303 11.6757ZM44.6383 8.97567C44.0303 8.97567 43.4783 8.84767 42.9823 8.59167C42.4943 8.32767 42.1063 7.96367 41.8183 7.49967C41.5383 7.03567 41.3983 6.49167 41.3983 5.86767C41.3983 5.25167 41.5383 4.71167 41.8183 4.24767C42.1063 3.78367 42.4943 3.42367 42.9823 3.16767C43.4783 2.91167 44.0303 2.78367 44.6383 2.78367C45.1823 2.78367 45.6703 2.89167 46.1023 3.10767C46.5343 3.32367 46.8783 3.65967 47.1343 4.11567C47.3983 4.57167 47.5303 5.15567 47.5303 5.86767C47.5303 6.57967 47.3983 7.16767 47.1343 7.63167C46.8783 8.08767 46.5343 8.42767 46.1023 8.65167C45.6703 8.86767 45.1823 8.97567 44.6383 8.97567ZM44.8663 7.70367C45.2423 7.70367 45.5783 7.62767 45.8743 7.47567C46.1703 7.31567 46.3983 7.09967 46.5583 6.82767C46.7263 6.54767 46.8103 6.22767 46.8103 5.86767C46.8103 5.50767 46.7263 5.19167 46.5583 4.91967C46.3983 4.63967 46.1703 4.42767 45.8743 4.28367C45.5783 4.13167 45.2423 4.05567 44.8663 4.05567C44.4903 4.05567 44.1503 4.13167 43.8463 4.28367C43.5503 4.42767 43.3183 4.63967 43.1503 4.91967C42.9903 5.19167 42.9103 5.50767 42.9103 5.86767C42.9103 6.22767 42.9903 6.54767 43.1503 6.82767C43.3183 7.09967 43.5503 7.31567 43.8463 7.47567C44.1503 7.62767 44.4903 7.70367 44.8663 7.70367ZM55.9868 9.34767C55.2828 9.34767 54.7388 9.16767 54.3548 8.80767C53.9708 8.43967 53.7788 7.89967 53.7788 7.18767V1.43967H55.2788V7.15167C55.2788 7.45567 55.3548 7.69167 55.5068 7.85967C55.6668 8.02767 55.8868 8.11167 56.1668 8.11167C56.5028 8.11167 56.7828 8.02367 57.0068 7.84767L57.4268 8.91567C57.2508 9.05967 57.0348 9.16767 56.7788 9.23967C56.5228 9.31167 56.2588 9.34767 55.9868 9.34767ZM52.7228 4.10367V2.90367H56.9948V4.10367H52.7228ZM62.2967 2.78367C62.8087 2.78367 63.2647 2.88367 63.6647 3.08367C64.0727 3.28367 64.3927 3.59167 64.6247 4.00767C64.8567 4.41567 64.9727 4.94367 64.9727 5.59167V9.26367H63.4727V5.78367C63.4727 5.21567 63.3367 4.79167 63.0647 4.51167C62.8007 4.23167 62.4287 4.09167 61.9487 4.09167C61.5967 4.09167 61.2847 4.16367 61.0127 4.30767C60.7407 4.45167 60.5287 4.66767 60.3767 4.95567C60.2327 5.23567 60.1607 5.59167 60.1607 6.02367V9.26367H58.6607V0.359671H60.1607V4.58367L59.8367 4.05567C60.0607 3.64767 60.3847 3.33567 60.8087 3.11967C61.2407 2.89567 61.7367 2.78367 62.2967 2.78367ZM70.8235 9.26367V7.96767L70.7395 7.69167V5.42367C70.7395 4.98367 70.6075 4.64367 70.3435 4.40367C70.0795 4.15567 69.6795 4.03167 69.1435 4.03167C68.7835 4.03167 68.4275 4.08767 68.0755 4.19967C67.7315 4.31167 67.4395 4.46767 67.1995 4.66767L66.6115 3.57567C66.9555 3.31167 67.3635 3.11567 67.8355 2.98767C68.3155 2.85167 68.8115 2.78367 69.3235 2.78367C70.2515 2.78367 70.9675 3.00767 71.4715 3.45567C71.9835 3.89567 72.2395 4.57967 72.2395 5.50767V9.26367H70.8235ZM68.8075 9.34767C68.3275 9.34767 67.9075 9.26767 67.5475 9.10767C67.1875 8.93967 66.9075 8.71167 66.7075 8.42367C66.5155 8.12767 66.4195 7.79567 66.4195 7.42767C66.4195 7.06767 66.5035 6.74367 66.6715 6.45567C66.8475 6.16767 67.1315 5.93967 67.5235 5.77167C67.9155 5.60367 68.4355 5.51967 69.0835 5.51967H70.9435V6.51567H69.1915C68.6795 6.51567 68.3355 6.59967 68.1595 6.76767C67.9835 6.92767 67.8955 7.12767 67.8955 7.36767C67.8955 7.63967 68.0035 7.85567 68.2195 8.01567C68.4355 8.17567 68.7355 8.25567 69.1195 8.25567C69.4875 8.25567 69.8155 8.17167 70.1035 8.00367C70.3995 7.83567 70.6115 7.58767 70.7395 7.25967L70.9915 8.15967C70.8475 8.53567 70.5875 8.82767 70.2115 9.03567C69.8435 9.24367 69.3755 9.34767 68.8075 9.34767ZM76.5766 9.34767C75.8726 9.34767 75.3286 9.16767 74.9446 8.80767C74.5606 8.43967 74.3686 7.89967 74.3686 7.18767V1.43967H75.8686V7.15167C75.8686 7.45567 75.9446 7.69167 76.0966 7.85967C76.2566 8.02767 76.4766 8.11167 76.7566 8.11167C77.0926 8.11167 77.3726 8.02367 77.5966 7.84767L78.0166 8.91567C77.8406 9.05967 77.6246 9.16767 77.3686 9.23967C77.1126 9.31167 76.8486 9.34767 76.5766 9.34767ZM73.3126 4.10367V2.90367H77.5846V4.10367H73.3126ZM82.7109 9.26367V0.863671H86.1669C86.9109 0.863671 87.5469 0.983671 88.0749 1.22367C88.6109 1.46367 89.0229 1.80767 89.3109 2.25567C89.5989 2.70367 89.7429 3.23567 89.7429 3.85167C89.7429 4.46767 89.5989 4.99967 89.3109 5.44767C89.0229 5.89567 88.6109 6.23967 88.0749 6.47967C87.5469 6.71967 86.9109 6.83967 86.1669 6.83967H83.5749L84.2709 6.10767V9.26367H82.7109ZM84.2709 6.27567L83.5749 5.51967H86.0949C86.7829 5.51967 87.2989 5.37567 87.6429 5.08767C87.9949 4.79167 88.1709 4.37967 88.1709 3.85167C88.1709 3.31567 87.9949 2.90367 87.6429 2.61567C87.2989 2.32767 86.7829 2.18367 86.0949 2.18367H83.5749L84.2709 1.41567V6.27567ZM91.0982 9.26367V2.85567H92.5262V4.61967L92.3582 4.10367C92.5502 3.67167 92.8502 3.34367 93.2582 3.11967C93.6742 2.89567 94.1902 2.78367 94.8062 2.78367V4.21167C94.7422 4.19567 94.6822 4.18767 94.6262 4.18767C94.5702 4.17967 94.5142 4.17567 94.4582 4.17567C93.8902 4.17567 93.4382 4.34367 93.1022 4.67967C92.7662 5.00767 92.5982 5.49967 92.5982 6.15567V9.26367H91.0982ZM98.9001 9.34767C98.2441 9.34767 97.6601 9.20767 97.1481 8.92767C96.6361 8.63967 96.2321 8.24767 95.9361 7.75167C95.6401 7.25567 95.4921 6.69167 95.4921 6.05967C95.4921 5.41967 95.6401 4.85567 95.9361 4.36767C96.2321 3.87167 96.6361 3.48367 97.1481 3.20367C97.6601 2.92367 98.2441 2.78367 98.9001 2.78367C99.5641 2.78367 100.152 2.92367 100.664 3.20367C101.184 3.48367 101.588 3.86767 101.876 4.35567C102.172 4.84367 102.32 5.41167 102.32 6.05967C102.32 6.69167 102.172 7.25567 101.876 7.75167C101.588 8.24767 101.184 8.63967 100.664 8.92767C100.152 9.20767 99.5641 9.34767 98.9001 9.34767ZM98.9001 8.06367C99.2681 8.06367 99.5961 7.98367 99.8841 7.82367C100.172 7.66367 100.396 7.43167 100.556 7.12767C100.724 6.82367 100.808 6.46767 100.808 6.05967C100.808 5.64367 100.724 5.28767 100.556 4.99167C100.396 4.68767 100.172 4.45567 99.8841 4.29567C99.5961 4.13567 99.2721 4.05567 98.9121 4.05567C98.5441 4.05567 98.2161 4.13567 97.9281 4.29567C97.6481 4.45567 97.4241 4.68767 97.2561 4.99167C97.0881 5.28767 97.0041 5.64367 97.0041 6.05967C97.0041 6.46767 97.0881 6.82367 97.2561 7.12767C97.4241 7.43167 97.6481 7.66367 97.9281 7.82367C98.2161 7.98367 98.5401 8.06367 98.9001 8.06367ZM106.166 9.34767C105.462 9.34767 104.918 9.16767 104.534 8.80767C104.15 8.43967 103.958 7.89967 103.958 7.18767V1.43967H105.458V7.15167C105.458 7.45567 105.534 7.69167 105.686 7.85967C105.846 8.02767 106.066 8.11167 106.346 8.11167C106.682 8.11167 106.962 8.02367 107.186 7.84767L107.606 8.91567C107.43 9.05967 107.214 9.16767 106.958 9.23967C106.702 9.31167 106.438 9.34767 106.166 9.34767ZM102.902 4.10367V2.90367H107.174V4.10367H102.902ZM111.641 9.34767C110.929 9.34767 110.305 9.20767 109.769 8.92767C109.241 8.63967 108.829 8.24767 108.533 7.75167C108.245 7.25567 108.101 6.69167 108.101 6.05967C108.101 5.41967 108.241 4.85567 108.521 4.36767C108.809 3.87167 109.201 3.48367 109.697 3.20367C110.201 2.92367 110.773 2.78367 111.413 2.78367C112.037 2.78367 112.593 2.91967 113.081 3.19167C113.569 3.46367 113.953 3.84767 114.233 4.34367C114.513 4.83967 114.653 5.42367 114.653 6.09567C114.653 6.15967 114.649 6.23167 114.641 6.31167C114.641 6.39167 114.637 6.46767 114.629 6.53967H109.289V5.54367H113.837L113.249 5.85567C113.257 5.48767 113.181 5.16367 113.021 4.88367C112.861 4.60367 112.641 4.38367 112.361 4.22367C112.089 4.06367 111.773 3.98367 111.413 3.98367C111.045 3.98367 110.721 4.06367 110.441 4.22367C110.169 4.38367 109.953 4.60767 109.793 4.89567C109.641 5.17567 109.565 5.50767 109.565 5.89167V6.13167C109.565 6.51567 109.653 6.85567 109.829 7.15167C110.005 7.44767 110.253 7.67567 110.573 7.83567C110.893 7.99567 111.261 8.07567 111.677 8.07567C112.037 8.07567 112.361 8.01967 112.649 7.90767C112.937 7.79567 113.193 7.61967 113.417 7.37967L114.221 8.30367C113.933 8.63967 113.569 8.89967 113.129 9.08367C112.697 9.25967 112.201 9.34767 111.641 9.34767ZM119.034 9.34767C118.362 9.34767 117.762 9.20767 117.234 8.92767C116.714 8.63967 116.306 8.24767 116.01 7.75167C115.714 7.25567 115.566 6.69167 115.566 6.05967C115.566 5.41967 115.714 4.85567 116.01 4.36767C116.306 3.87167 116.714 3.48367 117.234 3.20367C117.762 2.92367 118.362 2.78367 119.034 2.78367C119.658 2.78367 120.206 2.91167 120.678 3.16767C121.158 3.41567 121.522 3.78367 121.77 4.27167L120.618 4.94367C120.426 4.63967 120.19 4.41567 119.91 4.27167C119.638 4.12767 119.342 4.05567 119.022 4.05567C118.654 4.05567 118.322 4.13567 118.026 4.29567C117.73 4.45567 117.498 4.68767 117.33 4.99167C117.162 5.28767 117.078 5.64367 117.078 6.05967C117.078 6.47567 117.162 6.83567 117.33 7.13967C117.498 7.43567 117.73 7.66367 118.026 7.82367C118.322 7.98367 118.654 8.06367 119.022 8.06367C119.342 8.06367 119.638 7.99167 119.91 7.84767C120.19 7.70367 120.426 7.47967 120.618 7.17567L121.77 7.84767C121.522 8.32767 121.158 8.69967 120.678 8.96367C120.206 9.21967 119.658 9.34767 119.034 9.34767ZM125.561 9.34767C124.857 9.34767 124.313 9.16767 123.929 8.80767C123.545 8.43967 123.353 7.89967 123.353 7.18767V1.43967H124.853V7.15167C124.853 7.45567 124.929 7.69167 125.081 7.85967C125.241 8.02767 125.461 8.11167 125.741 8.11167C126.077 8.11167 126.357 8.02367 126.581 7.84767L127.001 8.91567C126.825 9.05967 126.609 9.16767 126.353 9.23967C126.097 9.31167 125.833 9.34767 125.561 9.34767ZM122.297 4.10367V2.90367H126.569V4.10367H122.297ZM130.215 9.34767C129.679 9.34767 129.163 9.27967 128.667 9.14367C128.179 8.99967 127.791 8.82767 127.503 8.62767L128.079 7.48767C128.367 7.67167 128.711 7.82367 129.111 7.94367C129.511 8.06367 129.911 8.12367 130.311 8.12367C130.783 8.12367 131.123 8.05967 131.331 7.93167C131.547 7.80367 131.655 7.63167 131.655 7.41567C131.655 7.23967 131.583 7.10767 131.439 7.01967C131.295 6.92367 131.107 6.85167 130.875 6.80367C130.643 6.75567 130.383 6.71167 130.095 6.67167C129.815 6.63167 129.531 6.57967 129.243 6.51567C128.963 6.44367 128.707 6.34367 128.475 6.21567C128.243 6.07967 128.055 5.89967 127.911 5.67567C127.767 5.45167 127.695 5.15567 127.695 4.78767C127.695 4.37967 127.811 4.02767 128.043 3.73167C128.275 3.42767 128.599 3.19567 129.015 3.03567C129.439 2.86767 129.939 2.78367 130.515 2.78367C130.947 2.78367 131.383 2.83167 131.823 2.92767C132.263 3.02367 132.627 3.15967 132.915 3.33567L132.339 4.47567C132.035 4.29167 131.727 4.16767 131.415 4.10367C131.111 4.03167 130.807 3.99567 130.503 3.99567C130.047 3.99567 129.707 4.06367 129.483 4.19967C129.267 4.33567 129.159 4.50767 129.159 4.71567C129.159 4.90767 129.231 5.05167 129.375 5.14767C129.519 5.24367 129.707 5.31967 129.939 5.37567C130.171 5.43167 130.427 5.47967 130.707 5.51967C130.995 5.55167 131.279 5.60367 131.559 5.67567C131.839 5.74767 132.095 5.84767 132.327 5.97567C132.567 6.09567 132.759 6.26767 132.903 6.49167C133.047 6.71567 133.119 7.00767 133.119 7.36767C133.119 7.76767 132.999 8.11567 132.759 8.41167C132.527 8.70767 132.195 8.93967 131.763 9.10767C131.331 9.26767 130.815 9.34767 130.215 9.34767ZM139.299 4.72767H143.487V6.04767H139.299V4.72767ZM139.431 9.26367H137.871V0.863671H144.003V2.17167H139.431V9.26367ZM148.072 9.34767C147.416 9.34767 146.832 9.20767 146.32 8.92767C145.808 8.63967 145.404 8.24767 145.108 7.75167C144.812 7.25567 144.664 6.69167 144.664 6.05967C144.664 5.41967 144.812 4.85567 145.108 4.36767C145.404 3.87167 145.808 3.48367 146.32 3.20367C146.832 2.92367 147.416 2.78367 148.072 2.78367C148.736 2.78367 149.324 2.92367 149.836 3.20367C150.356 3.48367 150.76 3.86767 151.048 4.35567C151.344 4.84367 151.492 5.41167 151.492 6.05967C151.492 6.69167 151.344 7.25567 151.048 7.75167C150.76 8.24767 150.356 8.63967 149.836 8.92767C149.324 9.20767 148.736 9.34767 148.072 9.34767ZM148.072 8.06367C148.44 8.06367 148.768 7.98367 149.056 7.82367C149.344 7.66367 149.568 7.43167 149.728 7.12767C149.896 6.82367 149.98 6.46767 149.98 6.05967C149.98 5.64367 149.896 5.28767 149.728 4.99167C149.568 4.68767 149.344 4.45567 149.056 4.29567C148.768 4.13567 148.444 4.05567 148.084 4.05567C147.716 4.05567 147.388 4.13567 147.1 4.29567C146.82 4.45567 146.596 4.68767 146.428 4.99167C146.26 5.28767 146.176 5.64367 146.176 6.05967C146.176 6.46767 146.26 6.82367 146.428 7.12767C146.596 7.43167 146.82 7.66367 147.1 7.82367C147.388 7.98367 147.712 8.06367 148.072 8.06367ZM155.806 9.34767C155.15 9.34767 154.566 9.20767 154.054 8.92767C153.542 8.63967 153.138 8.24767 152.842 7.75167C152.546 7.25567 152.398 6.69167 152.398 6.05967C152.398 5.41967 152.546 4.85567 152.842 4.36767C153.138 3.87167 153.542 3.48367 154.054 3.20367C154.566 2.92367 155.15 2.78367 155.806 2.78367C156.47 2.78367 157.058 2.92367 157.57 3.20367C158.09 3.48367 158.494 3.86767 158.782 4.35567C159.078 4.84367 159.226 5.41167 159.226 6.05967C159.226 6.69167 159.078 7.25567 158.782 7.75167C158.494 8.24767 158.09 8.63967 157.57 8.92767C157.058 9.20767 156.47 9.34767 155.806 9.34767ZM155.806 8.06367C156.174 8.06367 156.502 7.98367 156.79 7.82367C157.078 7.66367 157.302 7.43167 157.462 7.12767C157.63 6.82367 157.714 6.46767 157.714 6.05967C157.714 5.64367 157.63 5.28767 157.462 4.99167C157.302 4.68767 157.078 4.45567 156.79 4.29567C156.502 4.13567 156.178 4.05567 155.818 4.05567C155.45 4.05567 155.122 4.13567 154.834 4.29567C154.554 4.45567 154.33 4.68767 154.162 4.99167C153.994 5.28767 153.91 5.64367 153.91 6.05967C153.91 6.46767 153.994 6.82367 154.162 7.12767C154.33 7.43167 154.554 7.66367 154.834 7.82367C155.122 7.98367 155.446 8.06367 155.806 8.06367ZM163.373 9.34767C162.757 9.34767 162.201 9.21167 161.705 8.93967C161.217 8.65967 160.833 8.27567 160.553 7.78767C160.273 7.29967 160.133 6.72367 160.133 6.05967C160.133 5.39567 160.273 4.81967 160.553 4.33167C160.833 3.84367 161.217 3.46367 161.705 3.19167C162.201 2.91967 162.757 2.78367 163.373 2.78367C163.909 2.78367 164.389 2.90367 164.813 3.14367C165.237 3.37567 165.573 3.73167 165.821 4.21167C166.069 4.69167 166.193 5.30767 166.193 6.05967C166.193 6.80367 166.073 7.41967 165.833 7.90767C165.593 8.38767 165.261 8.74767 164.837 8.98767C164.413 9.22767 163.925 9.34767 163.373 9.34767ZM163.553 8.06367C163.913 8.06367 164.233 7.98367 164.513 7.82367C164.801 7.66367 165.029 7.43167 165.197 7.12767C165.373 6.82367 165.461 6.46767 165.461 6.05967C165.461 5.64367 165.373 5.28767 165.197 4.99167C165.029 4.68767 164.801 4.45567 164.513 4.29567C164.233 4.13567 163.913 4.05567 163.553 4.05567C163.193 4.05567 162.869 4.13567 162.581 4.29567C162.301 4.45567 162.073 4.68767 161.897 4.99167C161.729 5.28767 161.645 5.64367 161.645 6.05967C161.645 6.46767 161.729 6.82367 161.897 7.12767C162.073 7.43167 162.301 7.66367 162.581 7.82367C162.869 7.98367 163.193 8.06367 163.553 8.06367ZM165.497 9.26367V7.75167L165.557 6.04767L165.437 4.34367V0.359671H166.925V9.26367H165.497ZM169.379 9.34767C169.107 9.34767 168.875 9.25567 168.683 9.07167C168.491 8.87967 168.395 8.63967 168.395 8.35167C168.395 8.04767 168.491 7.80767 168.683 7.63167C168.875 7.44767 169.107 7.35567 169.379 7.35567C169.651 7.35567 169.883 7.44767 170.075 7.63167C170.267 7.80767 170.363 8.04767 170.363 8.35167C170.363 8.63967 170.267 8.87967 170.075 9.07167C169.883 9.25567 169.651 9.34767 169.379 9.34767ZM175.289 9.26367V0.863671H178.745C179.489 0.863671 180.125 0.983671 180.653 1.22367C181.189 1.46367 181.601 1.80767 181.889 2.25567C182.177 2.70367 182.321 3.23567 182.321 3.85167C182.321 4.46767 182.177 4.99967 181.889 5.44767C181.601 5.89567 181.189 6.23967 180.653 6.47967C180.125 6.71967 179.489 6.83967 178.745 6.83967H176.153L176.849 6.10767V9.26367H175.289ZM176.849 6.27567L176.153 5.51967H178.673C179.361 5.51967 179.877 5.37567 180.221 5.08767C180.573 4.79167 180.749 4.37967 180.749 3.85167C180.749 3.31567 180.573 2.90367 180.221 2.61567C179.877 2.32767 179.361 2.18367 178.673 2.18367H176.153L176.849 1.41567V6.27567ZM187.624 9.26367V7.96767L187.54 7.69167V5.42367C187.54 4.98367 187.408 4.64367 187.144 4.40367C186.88 4.15567 186.48 4.03167 185.944 4.03167C185.584 4.03167 185.228 4.08767 184.876 4.19967C184.532 4.31167 184.24 4.46767 184 4.66767L183.412 3.57567C183.756 3.31167 184.164 3.11567 184.636 2.98767C185.116 2.85167 185.612 2.78367 186.124 2.78367C187.052 2.78367 187.768 3.00767 188.272 3.45567C188.784 3.89567 189.04 4.57967 189.04 5.50767V9.26367H187.624ZM185.608 9.34767C185.128 9.34767 184.708 9.26767 184.348 9.10767C183.988 8.93967 183.708 8.71167 183.508 8.42367C183.316 8.12767 183.22 7.79567 183.22 7.42767C183.22 7.06767 183.304 6.74367 183.472 6.45567C183.648 6.16767 183.932 5.93967 184.324 5.77167C184.716 5.60367 185.236 5.51967 185.884 5.51967H187.744V6.51567H185.992C185.48 6.51567 185.136 6.59967 184.96 6.76767C184.784 6.92767 184.696 7.12767 184.696 7.36767C184.696 7.63967 184.804 7.85567 185.02 8.01567C185.236 8.17567 185.536 8.25567 185.92 8.25567C186.288 8.25567 186.616 8.17167 186.904 8.00367C187.2 7.83567 187.412 7.58767 187.54 7.25967L187.792 8.15967C187.648 8.53567 187.388 8.82767 187.012 9.03567C186.644 9.24367 186.176 9.34767 185.608 9.34767ZM193.917 9.34767C193.245 9.34767 192.645 9.20767 192.117 8.92767C191.597 8.63967 191.189 8.24767 190.893 7.75167C190.597 7.25567 190.449 6.69167 190.449 6.05967C190.449 5.41967 190.597 4.85567 190.893 4.36767C191.189 3.87167 191.597 3.48367 192.117 3.20367C192.645 2.92367 193.245 2.78367 193.917 2.78367C194.541 2.78367 195.089 2.91167 195.561 3.16767C196.041 3.41567 196.405 3.78367 196.653 4.27167L195.501 4.94367C195.309 4.63967 195.073 4.41567 194.793 4.27167C194.521 4.12767 194.225 4.05567 193.905 4.05567C193.537 4.05567 193.205 4.13567 192.909 4.29567C192.613 4.45567 192.381 4.68767 192.213 4.99167C192.045 5.28767 191.961 5.64367 191.961 6.05967C191.961 6.47567 192.045 6.83567 192.213 7.13967C192.381 7.43567 192.613 7.66367 192.909 7.82367C193.205 7.98367 193.537 8.06367 193.905 8.06367C194.225 8.06367 194.521 7.99167 194.793 7.84767C195.073 7.70367 195.309 7.47967 195.501 7.17567L196.653 7.84767C196.405 8.32767 196.041 8.69967 195.561 8.96367C195.089 9.21967 194.541 9.34767 193.917 9.34767ZM199.115 7.83567L199.151 5.95167L202.499 2.85567H204.299L201.455 5.71167L200.663 6.37167L199.115 7.83567ZM197.891 9.26367V0.359671H199.391V9.26367H197.891ZM202.727 9.26367L200.387 6.37167L201.335 5.17167L204.551 9.26367H202.727ZM209.351 9.26367V7.96767L209.267 7.69167V5.42367C209.267 4.98367 209.135 4.64367 208.871 4.40367C208.607 4.15567 208.207 4.03167 207.671 4.03167C207.311 4.03167 206.955 4.08767 206.603 4.19967C206.259 4.31167 205.967 4.46767 205.727 4.66767L205.139 3.57567C205.483 3.31167 205.891 3.11567 206.363 2.98767C206.843 2.85167 207.339 2.78367 207.851 2.78367C208.779 2.78367 209.495 3.00767 209.999 3.45567C210.511 3.89567 210.767 4.57967 210.767 5.50767V9.26367H209.351ZM207.335 9.34767C206.855 9.34767 206.435 9.26767 206.075 9.10767C205.715 8.93967 205.435 8.71167 205.235 8.42367C205.043 8.12767 204.947 7.79567 204.947 7.42767C204.947 7.06767 205.031 6.74367 205.199 6.45567C205.375 6.16767 205.659 5.93967 206.051 5.77167C206.443 5.60367 206.963 5.51967 207.611 5.51967H209.471V6.51567H207.719C207.207 6.51567 206.863 6.59967 206.687 6.76767C206.511 6.92767 206.423 7.12767 206.423 7.36767C206.423 7.63967 206.531 7.85567 206.747 8.01567C206.963 8.17567 207.263 8.25567 207.647 8.25567C208.015 8.25567 208.343 8.17167 208.631 8.00367C208.927 7.83567 209.139 7.58767 209.267 7.25967L209.519 8.15967C209.375 8.53567 209.115 8.82767 208.739 9.03567C208.371 9.24367 207.903 9.34767 207.335 9.34767ZM215.608 11.6757C215.016 11.6757 214.436 11.5957 213.868 11.4357C213.308 11.2837 212.848 11.0597 212.488 10.7637L213.16 9.63567C213.44 9.86767 213.792 10.0517 214.216 10.1877C214.648 10.3317 215.084 10.4037 215.524 10.4037C216.228 10.4037 216.744 10.2397 217.072 9.91167C217.4 9.59167 217.564 9.10767 217.564 8.45967V7.31967L217.684 5.86767L217.636 4.41567V2.85567H219.064V8.29167C219.064 9.45167 218.768 10.3037 218.176 10.8477C217.584 11.3997 216.728 11.6757 215.608 11.6757ZM215.416 8.97567C214.808 8.97567 214.256 8.84767 213.76 8.59167C213.272 8.32767 212.884 7.96367 212.596 7.49967C212.316 7.03567 212.176 6.49167 212.176 5.86767C212.176 5.25167 212.316 4.71167 212.596 4.24767C212.884 3.78367 213.272 3.42367 213.76 3.16767C214.256 2.91167 214.808 2.78367 215.416 2.78367C215.96 2.78367 216.448 2.89167 216.88 3.10767C217.312 3.32367 217.656 3.65967 217.912 4.11567C218.176 4.57167 218.308 5.15567 218.308 5.86767C218.308 6.57967 218.176 7.16767 217.912 7.63167C217.656 8.08767 217.312 8.42767 216.88 8.65167C216.448 8.86767 215.96 8.97567 215.416 8.97567ZM215.644 7.70367C216.02 7.70367 216.356 7.62767 216.652 7.47567C216.948 7.31567 217.176 7.09967 217.336 6.82767C217.504 6.54767 217.588 6.22767 217.588 5.86767C217.588 5.50767 217.504 5.19167 217.336 4.91967C217.176 4.63967 216.948 4.42767 216.652 4.28367C216.356 4.13167 216.02 4.05567 215.644 4.05567C215.268 4.05567 214.928 4.13167 214.624 4.28367C214.328 4.42767 214.096 4.63967 213.928 4.91967C213.768 5.19167 213.688 5.50767 213.688 5.86767C213.688 6.22767 213.768 6.54767 213.928 6.82767C214.096 7.09967 214.328 7.31567 214.624 7.47567C214.928 7.62767 215.268 7.70367 215.644 7.70367ZM221.036 9.26367V2.85567H222.536V9.26367H221.036ZM221.792 1.79967C221.512 1.79967 221.28 1.71167 221.096 1.53567C220.92 1.35967 220.832 1.14767 220.832 0.899672C220.832 0.643672 220.92 0.431671 221.096 0.263671C221.28 0.0876715 221.512 -0.000328302 221.792 -0.000328302C222.072 -0.000328302 222.3 0.0836716 222.476 0.251671C222.66 0.411672 222.752 0.615672 222.752 0.863671C222.752 1.12767 222.664 1.35167 222.488 1.53567C222.312 1.71167 222.08 1.79967 221.792 1.79967ZM228.14 2.78367C228.652 2.78367 229.108 2.88367 229.508 3.08367C229.916 3.28367 230.236 3.59167 230.468 4.00767C230.7 4.41567 230.816 4.94367 230.816 5.59167V9.26367H229.316V5.78367C229.316 5.21567 229.18 4.79167 228.908 4.51167C228.644 4.23167 228.272 4.09167 227.792 4.09167C227.44 4.09167 227.128 4.16367 226.856 4.30767C226.584 4.45167 226.372 4.66767 226.22 4.95567C226.076 5.23567 226.004 5.59167 226.004 6.02367V9.26367H224.504V2.85567H225.932V4.58367L225.68 4.05567C225.904 3.64767 226.228 3.33567 226.652 3.11967C227.084 2.89567 227.58 2.78367 228.14 2.78367ZM235.635 11.6757C235.043 11.6757 234.463 11.5957 233.895 11.4357C233.335 11.2837 232.875 11.0597 232.515 10.7637L233.187 9.63567C233.467 9.86767 233.819 10.0517 234.243 10.1877C234.675 10.3317 235.111 10.4037 235.551 10.4037C236.255 10.4037 236.771 10.2397 237.099 9.91167C237.427 9.59167 237.591 9.10767 237.591 8.45967V7.31967L237.711 5.86767L237.663 4.41567V2.85567H239.091V8.29167C239.091 9.45167 238.795 10.3037 238.203 10.8477C237.611 11.3997 236.755 11.6757 235.635 11.6757ZM235.443 8.97567C234.835 8.97567 234.283 8.84767 233.787 8.59167C233.299 8.32767 232.911 7.96367 232.623 7.49967C232.343 7.03567 232.203 6.49167 232.203 5.86767C232.203 5.25167 232.343 4.71167 232.623 4.24767C232.911 3.78367 233.299 3.42367 233.787 3.16767C234.283 2.91167 234.835 2.78367 235.443 2.78367C235.987 2.78367 236.475 2.89167 236.907 3.10767C237.339 3.32367 237.683 3.65967 237.939 4.11567C238.203 4.57167 238.335 5.15567 238.335 5.86767C238.335 6.57967 238.203 7.16767 237.939 7.63167C237.683 8.08767 237.339 8.42767 236.907 8.65167C236.475 8.86767 235.987 8.97567 235.443 8.97567ZM235.671 7.70367C236.047 7.70367 236.383 7.62767 236.679 7.47567C236.975 7.31567 237.203 7.09967 237.363 6.82767C237.531 6.54767 237.615 6.22767 237.615 5.86767C237.615 5.50767 237.531 5.19167 237.363 4.91967C237.203 4.63967 236.975 4.42767 236.679 4.28367C236.383 4.13167 236.047 4.05567 235.671 4.05567C235.295 4.05567 234.955 4.13167 234.651 4.28367C234.355 4.42767 234.123 4.63967 233.955 4.91967C233.795 5.19167 233.715 5.50767 233.715 5.86767C233.715 6.22767 233.795 6.54767 233.955 6.82767C234.123 7.09967 234.355 7.31567 234.651 7.47567C234.955 7.62767 235.295 7.70367 235.671 7.70367ZM246.791 9.34767C246.087 9.34767 245.543 9.16767 245.159 8.80767C244.775 8.43967 244.583 7.89967 244.583 7.18767V1.43967H246.083V7.15167C246.083 7.45567 246.159 7.69167 246.311 7.85967C246.471 8.02767 246.691 8.11167 246.971 8.11167C247.307 8.11167 247.587 8.02367 247.811 7.84767L248.231 8.91567C248.055 9.05967 247.839 9.16767 247.583 9.23967C247.327 9.31167 247.063 9.34767 246.791 9.34767ZM243.527 4.10367V2.90367H247.799V4.10367H243.527ZM253.101 2.78367C253.613 2.78367 254.069 2.88367 254.469 3.08367C254.877 3.28367 255.197 3.59167 255.429 4.00767C255.661 4.41567 255.777 4.94367 255.777 5.59167V9.26367H254.277V5.78367C254.277 5.21567 254.141 4.79167 253.869 4.51167C253.605 4.23167 253.233 4.09167 252.753 4.09167C252.401 4.09167 252.089 4.16367 251.817 4.30767C251.545 4.45167 251.333 4.66767 251.181 4.95567C251.037 5.23567 250.965 5.59167 250.965 6.02367V9.26367H249.465V0.359671H250.965V4.58367L250.641 4.05567C250.865 3.64767 251.189 3.33567 251.613 3.11967C252.045 2.89567 252.541 2.78367 253.101 2.78367ZM261.628 9.26367V7.96767L261.544 7.69167V5.42367C261.544 4.98367 261.412 4.64367 261.148 4.40367C260.884 4.15567 260.484 4.03167 259.948 4.03167C259.588 4.03167 259.232 4.08767 258.88 4.19967C258.536 4.31167 258.244 4.46767 258.004 4.66767L257.416 3.57567C257.76 3.31167 258.168 3.11567 258.64 2.98767C259.12 2.85167 259.616 2.78367 260.128 2.78367C261.056 2.78367 261.772 3.00767 262.276 3.45567C262.788 3.89567 263.044 4.57967 263.044 5.50767V9.26367H261.628ZM259.612 9.34767C259.132 9.34767 258.712 9.26767 258.352 9.10767C257.992 8.93967 257.712 8.71167 257.512 8.42367C257.32 8.12767 257.224 7.79567 257.224 7.42767C257.224 7.06767 257.308 6.74367 257.476 6.45567C257.652 6.16767 257.936 5.93967 258.328 5.77167C258.72 5.60367 259.24 5.51967 259.888 5.51967H261.748V6.51567H259.996C259.484 6.51567 259.14 6.59967 258.964 6.76767C258.788 6.92767 258.7 7.12767 258.7 7.36767C258.7 7.63967 258.808 7.85567 259.024 8.01567C259.24 8.17567 259.54 8.25567 259.924 8.25567C260.292 8.25567 260.62 8.17167 260.908 8.00367C261.204 7.83567 261.416 7.58767 261.544 7.25967L261.796 8.15967C261.652 8.53567 261.392 8.82767 261.016 9.03567C260.648 9.24367 260.18 9.34767 259.612 9.34767ZM267.381 9.34767C266.677 9.34767 266.133 9.16767 265.749 8.80767C265.365 8.43967 265.173 7.89967 265.173 7.18767V1.43967H266.673V7.15167C266.673 7.45567 266.749 7.69167 266.901 7.85967C267.061 8.02767 267.281 8.11167 267.561 8.11167C267.897 8.11167 268.177 8.02367 268.401 7.84767L268.821 8.91567C268.645 9.05967 268.429 9.16767 268.173 9.23967C267.917 9.31167 267.653 9.34767 267.381 9.34767ZM264.117 4.10367V2.90367H268.389V4.10367H264.117ZM273.516 9.26367V0.863671H276.972C277.716 0.863671 278.352 0.983671 278.88 1.22367C279.416 1.46367 279.828 1.80767 280.116 2.25567C280.404 2.70367 280.548 3.23567 280.548 3.85167C280.548 4.46767 280.404 4.99967 280.116 5.44767C279.828 5.89567 279.416 6.23967 278.88 6.47967C278.352 6.71967 277.716 6.83967 276.972 6.83967H274.38L275.076 6.10767V9.26367H273.516ZM275.076 6.27567L274.38 5.51967H276.9C277.588 5.51967 278.104 5.37567 278.448 5.08767C278.8 4.79167 278.976 4.37967 278.976 3.85167C278.976 3.31567 278.8 2.90367 278.448 2.61567C278.104 2.32767 277.588 2.18367 276.9 2.18367H274.38L275.076 1.41567V6.27567ZM281.903 9.26367V2.85567H283.331V4.61967L283.163 4.10367C283.355 3.67167 283.655 3.34367 284.063 3.11967C284.479 2.89567 284.995 2.78367 285.611 2.78367V4.21167C285.547 4.19567 285.487 4.18767 285.431 4.18767C285.375 4.17967 285.319 4.17567 285.263 4.17567C284.695 4.17567 284.243 4.34367 283.907 4.67967C283.571 5.00767 283.403 5.49967 283.403 6.15567V9.26367H281.903ZM289.705 9.34767C289.049 9.34767 288.465 9.20767 287.953 8.92767C287.441 8.63967 287.037 8.24767 286.741 7.75167C286.445 7.25567 286.297 6.69167 286.297 6.05967C286.297 5.41967 286.445 4.85567 286.741 4.36767C287.037 3.87167 287.441 3.48367 287.953 3.20367C288.465 2.92367 289.049 2.78367 289.705 2.78367C290.369 2.78367 290.957 2.92367 291.469 3.20367C291.989 3.48367 292.393 3.86767 292.681 4.35567C292.977 4.84367 293.125 5.41167 293.125 6.05967C293.125 6.69167 292.977 7.25567 292.681 7.75167C292.393 8.24767 291.989 8.63967 291.469 8.92767C290.957 9.20767 290.369 9.34767 289.705 9.34767ZM289.705 8.06367C290.073 8.06367 290.401 7.98367 290.689 7.82367C290.977 7.66367 291.201 7.43167 291.361 7.12767C291.529 6.82367 291.613 6.46767 291.613 6.05967C291.613 5.64367 291.529 5.28767 291.361 4.99167C291.201 4.68767 290.977 4.45567 290.689 4.29567C290.401 4.13567 290.077 4.05567 289.717 4.05567C289.349 4.05567 289.021 4.13567 288.733 4.29567C288.453 4.45567 288.229 4.68767 288.061 4.99167C287.893 5.28767 287.809 5.64367 287.809 6.05967C287.809 6.46767 287.893 6.82367 288.061 7.12767C288.229 7.43167 288.453 7.66367 288.733 7.82367C289.021 7.98367 289.345 8.06367 289.705 8.06367ZM296.971 9.34767C296.267 9.34767 295.723 9.16767 295.339 8.80767C294.955 8.43967 294.763 7.89967 294.763 7.18767V1.43967H296.263V7.15167C296.263 7.45567 296.339 7.69167 296.491 7.85967C296.651 8.02767 296.871 8.11167 297.151 8.11167C297.487 8.11167 297.767 8.02367 297.991 7.84767L298.411 8.91567C298.235 9.05967 298.019 9.16767 297.763 9.23967C297.507 9.31167 297.243 9.34767 296.971 9.34767ZM293.707 4.10367V2.90367H297.979V4.10367H293.707ZM302.446 9.34767C301.734 9.34767 301.11 9.20767 300.574 8.92767C300.046 8.63967 299.634 8.24767 299.338 7.75167C299.05 7.25567 298.906 6.69167 298.906 6.05967C298.906 5.41967 299.046 4.85567 299.326 4.36767C299.614 3.87167 300.006 3.48367 300.502 3.20367C301.006 2.92367 301.578 2.78367 302.218 2.78367C302.842 2.78367 303.398 2.91967 303.886 3.19167C304.374 3.46367 304.758 3.84767 305.038 4.34367C305.318 4.83967 305.458 5.42367 305.458 6.09567C305.458 6.15967 305.454 6.23167 305.446 6.31167C305.446 6.39167 305.442 6.46767 305.434 6.53967H300.094V5.54367H304.642L304.054 5.85567C304.062 5.48767 303.986 5.16367 303.826 4.88367C303.666 4.60367 303.446 4.38367 303.166 4.22367C302.894 4.06367 302.578 3.98367 302.218 3.98367C301.85 3.98367 301.526 4.06367 301.246 4.22367C300.974 4.38367 300.758 4.60767 300.598 4.89567C300.446 5.17567 300.37 5.50767 300.37 5.89167V6.13167C300.37 6.51567 300.458 6.85567 300.634 7.15167C300.81 7.44767 301.058 7.67567 301.378 7.83567C301.698 7.99567 302.066 8.07567 302.482 8.07567C302.842 8.07567 303.166 8.01967 303.454 7.90767C303.742 7.79567 303.998 7.61967 304.222 7.37967L305.026 8.30367C304.738 8.63967 304.374 8.89967 303.934 9.08367C303.502 9.25967 303.006 9.34767 302.446 9.34767ZM309.839 9.34767C309.167 9.34767 308.567 9.20767 308.039 8.92767C307.519 8.63967 307.111 8.24767 306.815 7.75167C306.519 7.25567 306.371 6.69167 306.371 6.05967C306.371 5.41967 306.519 4.85567 306.815 4.36767C307.111 3.87167 307.519 3.48367 308.039 3.20367C308.567 2.92367 309.167 2.78367 309.839 2.78367C310.463 2.78367 311.011 2.91167 311.483 3.16767C311.963 3.41567 312.327 3.78367 312.575 4.27167L311.423 4.94367C311.231 4.63967 310.995 4.41567 310.715 4.27167C310.443 4.12767 310.147 4.05567 309.827 4.05567C309.459 4.05567 309.127 4.13567 308.831 4.29567C308.535 4.45567 308.303 4.68767 308.135 4.99167C307.967 5.28767 307.883 5.64367 307.883 6.05967C307.883 6.47567 307.967 6.83567 308.135 7.13967C308.303 7.43567 308.535 7.66367 308.831 7.82367C309.127 7.98367 309.459 8.06367 309.827 8.06367C310.147 8.06367 310.443 7.99167 310.715 7.84767C310.995 7.70367 311.231 7.47967 311.423 7.17567L312.575 7.84767C312.327 8.32767 311.963 8.69967 311.483 8.96367C311.011 9.21967 310.463 9.34767 309.839 9.34767ZM316.366 9.34767C315.662 9.34767 315.118 9.16767 314.734 8.80767C314.35 8.43967 314.158 7.89967 314.158 7.18767V1.43967H315.658V7.15167C315.658 7.45567 315.734 7.69167 315.886 7.85967C316.046 8.02767 316.266 8.11167 316.546 8.11167C316.882 8.11167 317.162 8.02367 317.386 7.84767L317.806 8.91567C317.63 9.05967 317.414 9.16767 317.158 9.23967C316.902 9.31167 316.638 9.34767 316.366 9.34767ZM313.102 4.10367V2.90367H317.374V4.10367H313.102ZM321.02 9.34767C320.484 9.34767 319.968 9.27967 319.472 9.14367C318.984 8.99967 318.596 8.82767 318.308 8.62767L318.884 7.48767C319.172 7.67167 319.516 7.82367 319.916 7.94367C320.316 8.06367 320.716 8.12367 321.116 8.12367C321.588 8.12367 321.928 8.05967 322.136 7.93167C322.352 7.80367 322.46 7.63167 322.46 7.41567C322.46 7.23967 322.388 7.10767 322.244 7.01967C322.1 6.92367 321.912 6.85167 321.68 6.80367C321.448 6.75567 321.188 6.71167 320.9 6.67167C320.62 6.63167 320.336 6.57967 320.048 6.51567C319.768 6.44367 319.512 6.34367 319.28 6.21567C319.048 6.07967 318.86 5.89967 318.716 5.67567C318.572 5.45167 318.5 5.15567 318.5 4.78767C318.5 4.37967 318.616 4.02767 318.848 3.73167C319.08 3.42767 319.404 3.19567 319.82 3.03567C320.244 2.86767 320.744 2.78367 321.32 2.78367C321.752 2.78367 322.188 2.83167 322.628 2.92767C323.068 3.02367 323.432 3.15967 323.72 3.33567L323.144 4.47567C322.84 4.29167 322.532 4.16767 322.22 4.10367C321.916 4.03167 321.612 3.99567 321.308 3.99567C320.852 3.99567 320.512 4.06367 320.288 4.19967C320.072 4.33567 319.964 4.50767 319.964 4.71567C319.964 4.90767 320.036 5.05167 320.18 5.14767C320.324 5.24367 320.512 5.31967 320.744 5.37567C320.976 5.43167 321.232 5.47967 321.512 5.51967C321.8 5.55167 322.084 5.60367 322.364 5.67567C322.644 5.74767 322.9 5.84767 323.132 5.97567C323.372 6.09567 323.564 6.26767 323.708 6.49167C323.852 6.71567 323.924 7.00767 323.924 7.36767C323.924 7.76767 323.804 8.11567 323.564 8.41167C323.332 8.70767 323 8.93967 322.568 9.10767C322.136 9.26767 321.62 9.34767 321.02 9.34767ZM328.676 9.26367V0.863671H329.96L335.228 7.33167H334.592V0.863671H336.14V9.26367H334.856L329.588 2.79567H330.224V9.26367H328.676ZM342.195 9.26367V7.96767L342.111 7.69167V5.42367C342.111 4.98367 341.979 4.64367 341.715 4.40367C341.451 4.15567 341.051 4.03167 340.515 4.03167C340.155 4.03167 339.799 4.08767 339.447 4.19967C339.103 4.31167 338.811 4.46767 338.571 4.66767L337.983 3.57567C338.327 3.31167 338.735 3.11567 339.207 2.98767C339.687 2.85167 340.183 2.78367 340.695 2.78367C341.623 2.78367 342.339 3.00767 342.843 3.45567C343.355 3.89567 343.611 4.57967 343.611 5.50767V9.26367H342.195ZM340.179 9.34767C339.699 9.34767 339.279 9.26767 338.919 9.10767C338.559 8.93967 338.279 8.71167 338.079 8.42367C337.887 8.12767 337.791 7.79567 337.791 7.42767C337.791 7.06767 337.875 6.74367 338.043 6.45567C338.219 6.16767 338.503 5.93967 338.895 5.77167C339.287 5.60367 339.807 5.51967 340.455 5.51967H342.315V6.51567H340.563C340.051 6.51567 339.707 6.59967 339.531 6.76767C339.355 6.92767 339.267 7.12767 339.267 7.36767C339.267 7.63967 339.375 7.85567 339.591 8.01567C339.807 8.17567 340.107 8.25567 340.491 8.25567C340.859 8.25567 341.187 8.17167 341.475 8.00367C341.771 7.83567 341.983 7.58767 342.111 7.25967L342.363 8.15967C342.219 8.53567 341.959 8.82767 341.583 9.03567C341.215 9.24367 340.747 9.34767 340.179 9.34767ZM347.948 9.34767C347.244 9.34767 346.7 9.16767 346.316 8.80767C345.932 8.43967 345.74 7.89967 345.74 7.18767V1.43967H347.24V7.15167C347.24 7.45567 347.316 7.69167 347.468 7.85967C347.628 8.02767 347.848 8.11167 348.128 8.11167C348.464 8.11167 348.744 8.02367 348.968 7.84767L349.388 8.91567C349.212 9.05967 348.996 9.16767 348.74 9.23967C348.484 9.31167 348.22 9.34767 347.948 9.34767ZM344.684 4.10367V2.90367H348.956V4.10367H344.684ZM353.334 9.34767C352.79 9.34767 352.31 9.24767 351.894 9.04767C351.478 8.83967 351.154 8.52767 350.922 8.11167C350.69 7.68767 350.574 7.15567 350.574 6.51567V2.85567H352.074V6.31167C352.074 6.88767 352.202 7.31967 352.458 7.60767C352.722 7.88767 353.094 8.02767 353.574 8.02767C353.926 8.02767 354.23 7.95567 354.486 7.81167C354.75 7.66767 354.954 7.45167 355.098 7.16367C355.25 6.87567 355.326 6.51967 355.326 6.09567V2.85567H356.826V9.26367H355.398V7.53567L355.65 8.06367C355.434 8.47967 355.118 8.79967 354.702 9.02367C354.286 9.23967 353.83 9.34767 353.334 9.34767ZM358.79 9.26367V2.85567H360.218V4.61967L360.05 4.10367C360.242 3.67167 360.542 3.34367 360.95 3.11967C361.366 2.89567 361.882 2.78367 362.498 2.78367V4.21167C362.434 4.19567 362.374 4.18767 362.318 4.18767C362.262 4.17967 362.206 4.17567 362.15 4.17567C361.582 4.17567 361.13 4.34367 360.794 4.67967C360.458 5.00767 360.29 5.49967 360.29 6.15567V9.26367H358.79ZM366.723 9.34767C366.011 9.34767 365.387 9.20767 364.851 8.92767C364.323 8.63967 363.911 8.24767 363.615 7.75167C363.327 7.25567 363.183 6.69167 363.183 6.05967C363.183 5.41967 363.323 4.85567 363.603 4.36767C363.891 3.87167 364.283 3.48367 364.779 3.20367C365.283 2.92367 365.855 2.78367 366.495 2.78367C367.119 2.78367 367.675 2.91967 368.163 3.19167C368.651 3.46367 369.035 3.84767 369.315 4.34367C369.595 4.83967 369.735 5.42367 369.735 6.09567C369.735 6.15967 369.731 6.23167 369.723 6.31167C369.723 6.39167 369.719 6.46767 369.711 6.53967H364.371V5.54367H368.919L368.331 5.85567C368.339 5.48767 368.263 5.16367 368.103 4.88367C367.943 4.60367 367.723 4.38367 367.443 4.22367C367.171 4.06367 366.855 3.98367 366.495 3.98367C366.127 3.98367 365.803 4.06367 365.523 4.22367C365.251 4.38367 365.035 4.60767 364.875 4.89567C364.723 5.17567 364.647 5.50767 364.647 5.89167V6.13167C364.647 6.51567 364.735 6.85567 364.911 7.15167C365.087 7.44767 365.335 7.67567 365.655 7.83567C365.975 7.99567 366.343 8.07567 366.759 8.07567C367.119 8.07567 367.443 8.01967 367.731 7.90767C368.019 7.79567 368.275 7.61967 368.499 7.37967L369.303 8.30367C369.015 8.63967 368.651 8.89967 368.211 9.08367C367.779 9.25967 367.283 9.34767 366.723 9.34767ZM371.656 9.34767C371.384 9.34767 371.152 9.25567 370.96 9.07167C370.768 8.87967 370.672 8.63967 370.672 8.35167C370.672 8.04767 370.768 7.80767 370.96 7.63167C371.152 7.44767 371.384 7.35567 371.656 7.35567C371.928 7.35567 372.16 7.44767 372.352 7.63167C372.544 7.80767 372.64 8.04767 372.64 8.35167C372.64 8.63967 372.544 8.87967 372.352 9.07167C372.16 9.25567 371.928 9.34767 371.656 9.34767Z" fill="#284B21"/>
</svg>
