<svg width="470" height="46" viewBox="0 0 470 46" fill="none" xmlns="http://www.w3.org/2000/svg">
<path d="M6.886 17.264C5.654 17.264 4.47333 17.1027 3.344 16.78C2.21467 16.4427 1.30533 16.01 0.616 15.482L1.826 12.798C2.486 13.2673 3.26333 13.656 4.158 13.964C5.06733 14.2573 5.984 14.404 6.908 14.404C7.612 14.404 8.17667 14.338 8.602 14.206C9.042 14.0593 9.36467 13.8613 9.57 13.612C9.77533 13.3627 9.878 13.0767 9.878 12.754C9.878 12.3433 9.71667 12.0207 9.394 11.786C9.07133 11.5367 8.646 11.3387 8.118 11.192C7.59 11.0307 7.00333 10.884 6.358 10.752C5.72733 10.6053 5.08933 10.4293 4.444 10.224C3.81333 10.0187 3.234 9.75467 2.706 9.432C2.178 9.10933 1.74533 8.684 1.408 8.156C1.08533 7.628 0.924 6.95333 0.924 6.132C0.924 5.252 1.15867 4.45267 1.628 3.734C2.112 3.00067 2.83067 2.42133 3.784 1.996C4.752 1.556 5.962 1.336 7.414 1.336C8.382 1.336 9.33533 1.45333 10.274 1.688C11.2127 1.908 12.0413 2.24533 12.76 2.7L11.66 5.406C10.9413 4.99533 10.2227 4.69467 9.504 4.504C8.78533 4.29867 8.08133 4.196 7.392 4.196C6.70267 4.196 6.138 4.27667 5.698 4.438C5.258 4.59933 4.94267 4.812 4.752 5.076C4.56133 5.32533 4.466 5.61867 4.466 5.956C4.466 6.352 4.62733 6.67467 4.95 6.924C5.27267 7.15867 5.698 7.34933 6.226 7.496C6.754 7.64267 7.33333 7.78933 7.964 7.936C8.60933 8.08267 9.24733 8.25133 9.878 8.442C10.5233 8.63267 11.11 8.88933 11.638 9.212C12.166 9.53467 12.5913 9.96 12.914 10.488C13.2513 11.016 13.42 11.6833 13.42 12.49C13.42 13.3553 13.178 14.1473 12.694 14.866C12.21 15.5847 11.484 16.164 10.516 16.604C9.56267 17.044 8.35267 17.264 6.886 17.264ZM22.6973 17.264C20.512 17.264 18.8033 16.6553 17.5713 15.438C16.3393 14.2207 15.7233 12.4827 15.7233 10.224V1.6H19.2873V10.092C19.2873 11.5587 19.588 12.6147 20.1893 13.26C20.7906 13.9053 21.634 14.228 22.7193 14.228C23.8046 14.228 24.648 13.9053 25.2493 13.26C25.8506 12.6147 26.1513 11.5587 26.1513 10.092V1.6H29.6713V10.224C29.6713 12.4827 29.0553 14.2207 27.8233 15.438C26.5913 16.6553 24.8826 17.264 22.6973 17.264ZM38.2532 17.264C37.0212 17.264 35.8405 17.1027 34.7112 16.78C33.5819 16.4427 32.6725 16.01 31.9832 15.482L33.1932 12.798C33.8532 13.2673 34.6305 13.656 35.5252 13.964C36.4345 14.2573 37.3512 14.404 38.2752 14.404C38.9792 14.404 39.5439 14.338 39.9692 14.206C40.4092 14.0593 40.7319 13.8613 40.9372 13.612C41.1425 13.3627 41.2452 13.0767 41.2452 12.754C41.2452 12.3433 41.0839 12.0207 40.7612 11.786C40.4385 11.5367 40.0132 11.3387 39.4852 11.192C38.9572 11.0307 38.3705 10.884 37.7252 10.752C37.0945 10.6053 36.4565 10.4293 35.8112 10.224C35.1805 10.0187 34.6012 9.75467 34.0732 9.432C33.5452 9.10933 33.1125 8.684 32.7752 8.156C32.4525 7.628 32.2912 6.95333 32.2912 6.132C32.2912 5.252 32.5259 4.45267 32.9952 3.734C33.4792 3.00067 34.1979 2.42133 35.1512 1.996C36.1192 1.556 37.3292 1.336 38.7812 1.336C39.7492 1.336 40.7025 1.45333 41.6412 1.688C42.5799 1.908 43.4085 2.24533 44.1272 2.7L43.0272 5.406C42.3085 4.99533 41.5899 4.69467 40.8712 4.504C40.1525 4.29867 39.4485 4.196 38.7592 4.196C38.0699 4.196 37.5052 4.27667 37.0652 4.438C36.6252 4.59933 36.3099 4.812 36.1192 5.076C35.9285 5.32533 35.8332 5.61867 35.8332 5.956C35.8332 6.352 35.9945 6.67467 36.3172 6.924C36.6399 7.15867 37.0652 7.34933 37.5932 7.496C38.1212 7.64267 38.7005 7.78933 39.3312 7.936C39.9765 8.08267 40.6145 8.25133 41.2452 8.442C41.8905 8.63267 42.4772 8.88933 43.0052 9.212C43.5332 9.53467 43.9585 9.96 44.2812 10.488C44.6185 11.016 44.7872 11.6833 44.7872 12.49C44.7872 13.3553 44.5452 14.1473 44.0612 14.866C43.5772 15.5847 42.8512 16.164 41.8832 16.604C40.9299 17.044 39.7199 17.264 38.2532 17.264ZM50.1976 17V4.504H45.2696V1.6H58.6896V4.504H53.7616V17H50.1976ZM57.8098 17L64.6738 1.6H68.1938L75.0798 17H71.3398L65.7078 3.404H67.1158L61.4618 17H57.8098ZM61.2418 13.7L62.1878 10.994H70.1078L71.0758 13.7H61.2418ZM76.6776 17V1.6H80.2416V17H76.6776ZM83.8963 17V1.6H86.8443L95.9303 12.688H94.5003V1.6H98.0203V17H95.0943L85.9863 5.912H87.4163V17H83.8963ZM99.6399 17L106.504 1.6H110.024L116.91 17H113.17L107.538 3.404H108.946L103.292 17H99.6399ZM103.072 13.7L104.018 10.994H111.938L112.906 13.7H103.072ZM118.508 17V1.6H126.032C127.968 1.6 129.42 1.96667 130.388 2.7C131.37 3.43333 131.862 4.40133 131.862 5.604C131.862 6.41067 131.664 7.11467 131.268 7.716C130.872 8.30267 130.329 8.75733 129.64 9.08C128.95 9.40267 128.158 9.564 127.264 9.564L127.682 8.662C128.65 8.662 129.508 8.82333 130.256 9.146C131.004 9.454 131.583 9.916 131.994 10.532C132.419 11.148 132.632 11.9033 132.632 12.798C132.632 14.118 132.111 15.152 131.07 15.9C130.028 16.6333 128.496 17 126.472 17H118.508ZM122.05 14.316H126.208C127.132 14.316 127.828 14.1693 128.298 13.876C128.782 13.568 129.024 13.084 129.024 12.424C129.024 11.7787 128.782 11.302 128.298 10.994C127.828 10.6713 127.132 10.51 126.208 10.51H121.786V7.914H125.592C126.457 7.914 127.117 7.76733 127.572 7.474C128.041 7.166 128.276 6.704 128.276 6.088C128.276 5.48667 128.041 5.03933 127.572 4.746C127.117 4.438 126.457 4.284 125.592 4.284H122.05V14.316ZM135.33 17V1.6H138.894V14.096H146.616V17H135.33ZM151.885 7.804H159.299V10.576H151.885V7.804ZM152.149 14.14H160.531V17H148.607V1.6H160.245V4.46H152.149V14.14ZM172.897 8.53H180.289V11.39H172.897V8.53ZM173.161 17H169.597V1.6H181.235V4.46H173.161V17ZM190.978 17.264C189.761 17.264 188.631 17.066 187.59 16.67C186.563 16.274 185.669 15.7167 184.906 14.998C184.158 14.2793 183.571 13.436 183.146 12.468C182.735 11.5 182.53 10.444 182.53 9.3C182.53 8.156 182.735 7.1 183.146 6.132C183.571 5.164 184.165 4.32067 184.928 3.602C185.691 2.88333 186.585 2.326 187.612 1.93C188.639 1.534 189.753 1.336 190.956 1.336C192.173 1.336 193.288 1.534 194.3 1.93C195.327 2.326 196.214 2.88333 196.962 3.602C197.725 4.32067 198.319 5.164 198.744 6.132C199.169 7.08533 199.382 8.14133 199.382 9.3C199.382 10.444 199.169 11.5073 198.744 12.49C198.319 13.458 197.725 14.3013 196.962 15.02C196.214 15.724 195.327 16.274 194.3 16.67C193.288 17.066 192.181 17.264 190.978 17.264ZM190.956 14.228C191.645 14.228 192.276 14.1107 192.848 13.876C193.435 13.6413 193.948 13.304 194.388 12.864C194.828 12.424 195.165 11.9033 195.4 11.302C195.649 10.7007 195.774 10.0333 195.774 9.3C195.774 8.56667 195.649 7.89933 195.4 7.298C195.165 6.69667 194.828 6.176 194.388 5.736C193.963 5.296 193.457 4.95867 192.87 4.724C192.283 4.48933 191.645 4.372 190.956 4.372C190.267 4.372 189.629 4.48933 189.042 4.724C188.47 4.95867 187.964 5.296 187.524 5.736C187.084 6.176 186.739 6.69667 186.49 7.298C186.255 7.89933 186.138 8.56667 186.138 9.3C186.138 10.0187 186.255 10.686 186.49 11.302C186.739 11.9033 187.077 12.424 187.502 12.864C187.942 13.304 188.455 13.6413 189.042 13.876C189.629 14.1107 190.267 14.228 190.956 14.228ZM209.54 17.264C208.323 17.264 207.194 17.066 206.152 16.67C205.126 16.274 204.231 15.7167 203.468 14.998C202.72 14.2793 202.134 13.436 201.708 12.468C201.298 11.5 201.092 10.444 201.092 9.3C201.092 8.156 201.298 7.1 201.708 6.132C202.134 5.164 202.728 4.32067 203.49 3.602C204.253 2.88333 205.148 2.326 206.174 1.93C207.201 1.534 208.316 1.336 209.518 1.336C210.736 1.336 211.85 1.534 212.862 1.93C213.889 2.326 214.776 2.88333 215.524 3.602C216.287 4.32067 216.881 5.164 217.306 6.132C217.732 7.08533 217.944 8.14133 217.944 9.3C217.944 10.444 217.732 11.5073 217.306 12.49C216.881 13.458 216.287 14.3013 215.524 15.02C214.776 15.724 213.889 16.274 212.862 16.67C211.85 17.066 210.743 17.264 209.54 17.264ZM209.518 14.228C210.208 14.228 210.838 14.1107 211.41 13.876C211.997 13.6413 212.51 13.304 212.95 12.864C213.39 12.424 213.728 11.9033 213.962 11.302C214.212 10.7007 214.336 10.0333 214.336 9.3C214.336 8.56667 214.212 7.89933 213.962 7.298C213.728 6.69667 213.39 6.176 212.95 5.736C212.525 5.296 212.019 4.95867 211.432 4.724C210.846 4.48933 210.208 4.372 209.518 4.372C208.829 4.372 208.191 4.48933 207.604 4.724C207.032 4.95867 206.526 5.296 206.086 5.736C205.646 6.176 205.302 6.69667 205.052 7.298C204.818 7.89933 204.7 8.56667 204.7 9.3C204.7 10.0187 204.818 10.686 205.052 11.302C205.302 11.9033 205.639 12.424 206.064 12.864C206.504 13.304 207.018 13.6413 207.604 13.876C208.191 14.1107 208.829 14.228 209.518 14.228ZM220.623 17V1.6H227.619C229.291 1.6 230.765 1.92267 232.041 2.568C233.317 3.19867 234.314 4.086 235.033 5.23C235.752 6.374 236.111 7.73067 236.111 9.3C236.111 10.8547 235.752 12.2113 235.033 13.37C234.314 14.514 233.317 15.4087 232.041 16.054C230.765 16.6847 229.291 17 227.619 17H220.623ZM224.187 14.074H227.443C228.47 14.074 229.357 13.8833 230.105 13.502C230.868 13.106 231.454 12.5487 231.865 11.83C232.29 11.1113 232.503 10.268 232.503 9.3C232.503 8.31733 232.29 7.474 231.865 6.77C231.454 6.05133 230.868 5.50133 230.105 5.12C229.357 4.724 228.47 4.526 227.443 4.526H224.187V14.074ZM250.089 17.264C248.857 17.264 247.676 17.1027 246.547 16.78C245.418 16.4427 244.508 16.01 243.819 15.482L245.029 12.798C245.689 13.2673 246.466 13.656 247.361 13.964C248.27 14.2573 249.187 14.404 250.111 14.404C250.815 14.404 251.38 14.338 251.805 14.206C252.245 14.0593 252.568 13.8613 252.773 13.612C252.978 13.3627 253.081 13.0767 253.081 12.754C253.081 12.3433 252.92 12.0207 252.597 11.786C252.274 11.5367 251.849 11.3387 251.321 11.192C250.793 11.0307 250.206 10.884 249.561 10.752C248.93 10.6053 248.292 10.4293 247.647 10.224C247.016 10.0187 246.437 9.75467 245.909 9.432C245.381 9.10933 244.948 8.684 244.611 8.156C244.288 7.628 244.127 6.95333 244.127 6.132C244.127 5.252 244.362 4.45267 244.831 3.734C245.315 3.00067 246.034 2.42133 246.987 1.996C247.955 1.556 249.165 1.336 250.617 1.336C251.585 1.336 252.538 1.45333 253.477 1.688C254.416 1.908 255.244 2.24533 255.963 2.7L254.863 5.406C254.144 4.99533 253.426 4.69467 252.707 4.504C251.988 4.29867 251.284 4.196 250.595 4.196C249.906 4.196 249.341 4.27667 248.901 4.438C248.461 4.59933 248.146 4.812 247.955 5.076C247.764 5.32533 247.669 5.61867 247.669 5.956C247.669 6.352 247.83 6.67467 248.153 6.924C248.476 7.15867 248.901 7.34933 249.429 7.496C249.957 7.64267 250.536 7.78933 251.167 7.936C251.812 8.08267 252.45 8.25133 253.081 8.442C253.726 8.63267 254.313 8.88933 254.841 9.212C255.369 9.53467 255.794 9.96 256.117 10.488C256.454 11.016 256.623 11.6833 256.623 12.49C256.623 13.3553 256.381 14.1473 255.897 14.866C255.413 15.5847 254.687 16.164 253.719 16.604C252.766 17.044 251.556 17.264 250.089 17.264ZM259.058 17V1.6H262.006L268.562 12.468H267L273.446 1.6H276.372L276.416 17H273.072L273.05 6.726H273.666L268.518 15.372H266.912L261.654 6.726H262.402V17H259.058ZM278.046 17L284.91 1.6H288.43L295.316 17H291.576L285.944 3.404H287.352L281.698 17H278.046ZM281.478 13.7L282.424 10.994H290.344L291.312 13.7H281.478ZM296.914 17V1.6H303.58C304.959 1.6 306.147 1.82733 307.144 2.282C308.141 2.722 308.911 3.36 309.454 4.196C309.997 5.032 310.268 6.02933 310.268 7.188C310.268 8.332 309.997 9.322 309.454 10.158C308.911 10.9793 308.141 11.61 307.144 12.05C306.147 12.49 304.959 12.71 303.58 12.71H298.894L300.478 11.148V17H296.914ZM306.704 17L302.854 11.412H306.66L310.554 17H306.704ZM300.478 11.544L298.894 9.872H303.382C304.482 9.872 305.303 9.63733 305.846 9.168C306.389 8.684 306.66 8.024 306.66 7.188C306.66 6.33733 306.389 5.67733 305.846 5.208C305.303 4.73867 304.482 4.504 303.382 4.504H298.894L300.478 2.81V11.544ZM316.067 17V4.504H311.139V1.6H324.559V4.504H319.631V17H316.067ZM332.707 17V1.6H339.373C340.752 1.6 341.94 1.82733 342.937 2.282C343.934 2.722 344.704 3.36 345.247 4.196C345.79 5.032 346.061 6.02933 346.061 7.188C346.061 8.332 345.79 9.322 345.247 10.158C344.704 10.994 343.934 11.6393 342.937 12.094C341.94 12.534 340.752 12.754 339.373 12.754H334.687L336.271 11.148V17H332.707ZM336.271 11.544L334.687 9.85H339.175C340.275 9.85 341.096 9.61533 341.639 9.146C342.182 8.67667 342.453 8.024 342.453 7.188C342.453 6.33733 342.182 5.67733 341.639 5.208C341.096 4.73867 340.275 4.504 339.175 4.504H334.687L336.271 2.81V11.544ZM345.808 17L352.672 1.6H356.192L363.078 17H359.338L353.706 3.404H355.114L349.46 17H345.808ZM349.24 13.7L350.186 10.994H358.106L359.074 13.7H349.24ZM371.831 17.264C370.643 17.264 369.535 17.0733 368.509 16.692C367.497 16.296 366.617 15.7387 365.869 15.02C365.121 14.3013 364.534 13.458 364.109 12.49C363.698 11.522 363.493 10.4587 363.493 9.3C363.493 8.14133 363.698 7.078 364.109 6.11C364.534 5.142 365.121 4.29867 365.869 3.58C366.631 2.86133 367.519 2.31133 368.531 1.93C369.543 1.534 370.65 1.336 371.853 1.336C373.187 1.336 374.39 1.57067 375.461 2.04C376.546 2.49467 377.455 3.16933 378.189 4.064L375.901 6.176C375.373 5.57467 374.786 5.12733 374.141 4.834C373.495 4.526 372.791 4.372 372.029 4.372C371.31 4.372 370.65 4.48933 370.049 4.724C369.447 4.95867 368.927 5.296 368.487 5.736C368.047 6.176 367.702 6.69667 367.453 7.298C367.218 7.89933 367.101 8.56667 367.101 9.3C367.101 10.0333 367.218 10.7007 367.453 11.302C367.702 11.9033 368.047 12.424 368.487 12.864C368.927 13.304 369.447 13.6413 370.049 13.876C370.65 14.1107 371.31 14.228 372.029 14.228C372.791 14.228 373.495 14.0813 374.141 13.788C374.786 13.48 375.373 13.018 375.901 12.402L378.189 14.514C377.455 15.4087 376.546 16.0907 375.461 16.56C374.39 17.0293 373.18 17.264 371.831 17.264ZM383.786 13.48L383.588 9.366L390.958 1.6H394.918L388.274 8.75L386.294 10.862L383.786 13.48ZM380.596 17V1.6H384.138V17H380.596ZM391.134 17L385.656 10.29L387.988 7.76L395.292 17H391.134ZM394.169 17L401.033 1.6H404.553L411.439 17H407.699L402.067 3.404H403.475L397.821 17H394.169ZM397.601 13.7L398.547 10.994H406.467L407.435 13.7H397.601ZM420.258 17.264C419.041 17.264 417.919 17.0733 416.892 16.692C415.88 16.296 414.993 15.7387 414.23 15.02C413.482 14.3013 412.895 13.458 412.47 12.49C412.059 11.522 411.854 10.4587 411.854 9.3C411.854 8.14133 412.059 7.078 412.47 6.11C412.895 5.142 413.489 4.29867 414.252 3.58C415.015 2.86133 415.909 2.31133 416.936 1.93C417.963 1.534 419.092 1.336 420.324 1.336C421.688 1.336 422.913 1.56333 423.998 2.018C425.098 2.47267 426.022 3.13267 426.77 3.998L424.482 6.11C423.925 5.52333 423.316 5.09067 422.656 4.812C421.996 4.51867 421.277 4.372 420.5 4.372C419.752 4.372 419.07 4.48933 418.454 4.724C417.838 4.95867 417.303 5.296 416.848 5.736C416.408 6.176 416.063 6.69667 415.814 7.298C415.579 7.89933 415.462 8.56667 415.462 9.3C415.462 10.0187 415.579 10.6787 415.814 11.28C416.063 11.8813 416.408 12.4093 416.848 12.864C417.303 13.304 417.831 13.6413 418.432 13.876C419.048 14.1107 419.723 14.228 420.456 14.228C421.16 14.228 421.842 14.118 422.502 13.898C423.177 13.6633 423.829 13.2747 424.46 12.732L426.484 15.306C425.648 15.9367 424.673 16.4207 423.558 16.758C422.458 17.0953 421.358 17.264 420.258 17.264ZM423.228 14.844V9.058H426.484V15.306L423.228 14.844ZM429.795 17V1.6H433.359V17H429.795ZM437.014 17V1.6H439.962L449.048 12.688H447.617V1.6H451.138V17H448.212L439.104 5.912H440.534V17H437.014ZM462.217 17.264C461 17.264 459.878 17.0733 458.851 16.692C457.839 16.296 456.952 15.7387 456.189 15.02C455.441 14.3013 454.854 13.458 454.429 12.49C454.018 11.522 453.813 10.4587 453.813 9.3C453.813 8.14133 454.018 7.078 454.429 6.11C454.854 5.142 455.448 4.29867 456.211 3.58C456.974 2.86133 457.868 2.31133 458.895 1.93C459.922 1.534 461.051 1.336 462.283 1.336C463.647 1.336 464.872 1.56333 465.957 2.018C467.057 2.47267 467.981 3.13267 468.729 3.998L466.441 6.11C465.884 5.52333 465.275 5.09067 464.615 4.812C463.955 4.51867 463.236 4.372 462.459 4.372C461.711 4.372 461.029 4.48933 460.413 4.724C459.797 4.95867 459.262 5.296 458.807 5.736C458.367 6.176 458.022 6.69667 457.773 7.298C457.538 7.89933 457.421 8.56667 457.421 9.3C457.421 10.0187 457.538 10.6787 457.773 11.28C458.022 11.8813 458.367 12.4093 458.807 12.864C459.262 13.304 459.79 13.6413 460.391 13.876C461.007 14.1107 461.682 14.228 462.415 14.228C463.119 14.228 463.801 14.118 464.461 13.898C465.136 13.6633 465.788 13.2747 466.419 12.732L468.443 15.306C467.607 15.9367 466.632 16.4207 465.517 16.758C464.417 17.0953 463.317 17.264 462.217 17.264ZM465.187 14.844V9.058H468.443V15.306L465.187 14.844Z" fill="black"/>
<path d="M97.494 43V30.4H103.65C105.234 30.4 106.422 30.7 107.214 31.3C108.018 31.9 108.42 32.692 108.42 33.676C108.42 34.336 108.258 34.912 107.934 35.404C107.61 35.884 107.166 36.256 106.602 36.52C106.038 36.784 105.39 36.916 104.658 36.916L105 36.178C105.792 36.178 106.494 36.31 107.106 36.574C107.718 36.826 108.192 37.204 108.528 37.708C108.876 38.212 109.05 38.83 109.05 39.562C109.05 40.642 108.624 41.488 107.772 42.1C106.92 42.7 105.666 43 104.01 43H97.494ZM100.392 40.804H103.794C104.55 40.804 105.12 40.684 105.504 40.444C105.9 40.192 106.098 39.796 106.098 39.256C106.098 38.728 105.9 38.338 105.504 38.086C105.12 37.822 104.55 37.69 103.794 37.69H100.176V35.566H103.29C103.998 35.566 104.538 35.446 104.91 35.206C105.294 34.954 105.486 34.576 105.486 34.072C105.486 33.58 105.294 33.214 104.91 32.974C104.538 32.722 103.998 32.596 103.29 32.596H100.392V40.804ZM116.856 43.216C115.068 43.216 113.67 42.718 112.662 41.722C111.654 40.726 111.15 39.304 111.15 37.456V30.4H114.066V37.348C114.066 38.548 114.312 39.412 114.804 39.94C115.296 40.468 115.986 40.732 116.874 40.732C117.762 40.732 118.452 40.468 118.944 39.94C119.436 39.412 119.682 38.548 119.682 37.348V30.4H122.562V37.456C122.562 39.304 122.058 40.726 121.05 41.722C120.042 42.718 118.644 43.216 116.856 43.216ZM125.443 43V30.4H128.359V43H125.443ZM131.349 43V30.4H134.265V40.624H140.583V43H131.349ZM143.645 43V32.776H139.613V30.4H150.593V32.776H146.561V43H143.645ZM159.96 36.07H166.008V38.41H159.96V36.07ZM160.176 43H157.26V30.4H166.782V32.74H160.176V43ZM174.753 43.216C173.757 43.216 172.833 43.054 171.981 42.73C171.141 42.406 170.409 41.95 169.785 41.362C169.173 40.774 168.693 40.084 168.345 39.292C168.009 38.5 167.841 37.636 167.841 36.7C167.841 35.764 168.009 34.9 168.345 34.108C168.693 33.316 169.179 32.626 169.803 32.038C170.427 31.45 171.159 30.994 171.999 30.67C172.839 30.346 173.751 30.184 174.735 30.184C175.731 30.184 176.643 30.346 177.471 30.67C178.311 30.994 179.037 31.45 179.649 32.038C180.273 32.626 180.759 33.316 181.107 34.108C181.455 34.888 181.629 35.752 181.629 36.7C181.629 37.636 181.455 38.506 181.107 39.31C180.759 40.102 180.273 40.792 179.649 41.38C179.037 41.956 178.311 42.406 177.471 42.73C176.643 43.054 175.737 43.216 174.753 43.216ZM174.735 40.732C175.299 40.732 175.815 40.636 176.283 40.444C176.763 40.252 177.183 39.976 177.543 39.616C177.903 39.256 178.179 38.83 178.371 38.338C178.575 37.846 178.677 37.3 178.677 36.7C178.677 36.1 178.575 35.554 178.371 35.062C178.179 34.57 177.903 34.144 177.543 33.784C177.195 33.424 176.781 33.148 176.301 32.956C175.821 32.764 175.299 32.668 174.735 32.668C174.171 32.668 173.649 32.764 173.169 32.956C172.701 33.148 172.287 33.424 171.927 33.784C171.567 34.144 171.285 34.57 171.081 35.062C170.889 35.554 170.793 36.1 170.793 36.7C170.793 37.288 170.889 37.834 171.081 38.338C171.285 38.83 171.561 39.256 171.909 39.616C172.269 39.976 172.689 40.252 173.169 40.444C173.649 40.636 174.171 40.732 174.735 40.732ZM183.82 43V30.4H189.274C190.402 30.4 191.374 30.586 192.19 30.958C193.006 31.318 193.636 31.84 194.08 32.524C194.524 33.208 194.746 34.024 194.746 34.972C194.746 35.908 194.524 36.718 194.08 37.402C193.636 38.074 193.006 38.59 192.19 38.95C191.374 39.31 190.402 39.49 189.274 39.49H185.44L186.736 38.212V43H183.82ZM191.83 43L188.68 38.428H191.794L194.98 43H191.83ZM186.736 38.536L185.44 37.168H189.112C190.012 37.168 190.684 36.976 191.128 36.592C191.572 36.196 191.794 35.656 191.794 34.972C191.794 34.276 191.572 33.736 191.128 33.352C190.684 32.968 190.012 32.776 189.112 32.776H185.44L186.736 31.39V38.536ZM202.154 43V30.4H204.566L209.93 39.292H208.652L213.926 30.4H216.32L216.356 43H213.62L213.602 34.594H214.106L209.894 41.668H208.58L204.278 34.594H204.89V43H202.154ZM225.466 43.216C224.47 43.216 223.546 43.054 222.694 42.73C221.854 42.406 221.122 41.95 220.498 41.362C219.886 40.774 219.406 40.084 219.058 39.292C218.722 38.5 218.554 37.636 218.554 36.7C218.554 35.764 218.722 34.9 219.058 34.108C219.406 33.316 219.892 32.626 220.516 32.038C221.14 31.45 221.872 30.994 222.712 30.67C223.552 30.346 224.464 30.184 225.448 30.184C226.444 30.184 227.356 30.346 228.184 30.67C229.024 30.994 229.75 31.45 230.362 32.038C230.986 32.626 231.472 33.316 231.82 34.108C232.168 34.888 232.342 35.752 232.342 36.7C232.342 37.636 232.168 38.506 231.82 39.31C231.472 40.102 230.986 40.792 230.362 41.38C229.75 41.956 229.024 42.406 228.184 42.73C227.356 43.054 226.45 43.216 225.466 43.216ZM225.448 40.732C226.012 40.732 226.528 40.636 226.996 40.444C227.476 40.252 227.896 39.976 228.256 39.616C228.616 39.256 228.892 38.83 229.084 38.338C229.288 37.846 229.39 37.3 229.39 36.7C229.39 36.1 229.288 35.554 229.084 35.062C228.892 34.57 228.616 34.144 228.256 33.784C227.908 33.424 227.494 33.148 227.014 32.956C226.534 32.764 226.012 32.668 225.448 32.668C224.884 32.668 224.362 32.764 223.882 32.956C223.414 33.148 223 33.424 222.64 33.784C222.28 34.144 221.998 34.57 221.794 35.062C221.602 35.554 221.506 36.1 221.506 36.7C221.506 37.288 221.602 37.834 221.794 38.338C221.998 38.83 222.274 39.256 222.622 39.616C222.982 39.976 223.402 40.252 223.882 40.444C224.362 40.636 224.884 40.732 225.448 40.732ZM234.533 43V30.4H240.257C241.625 30.4 242.831 30.664 243.875 31.192C244.919 31.708 245.735 32.434 246.323 33.37C246.911 34.306 247.205 35.416 247.205 36.7C247.205 37.972 246.911 39.082 246.323 40.03C245.735 40.966 244.919 41.698 243.875 42.226C242.831 42.742 241.625 43 240.257 43H234.533ZM237.449 40.606H240.113C240.953 40.606 241.679 40.45 242.291 40.138C242.915 39.814 243.395 39.358 243.731 38.77C244.079 38.182 244.253 37.492 244.253 36.7C244.253 35.896 244.079 35.206 243.731 34.63C243.395 34.042 242.915 33.592 242.291 33.28C241.679 32.956 240.953 32.794 240.113 32.794H237.449V40.606ZM252.086 35.476H258.152V37.744H252.086V35.476ZM252.302 40.66H259.16V43H249.404V30.4H258.926V32.74H252.302V40.66ZM261.48 43V30.4H266.934C268.062 30.4 269.034 30.586 269.85 30.958C270.666 31.318 271.296 31.84 271.74 32.524C272.184 33.208 272.406 34.024 272.406 34.972C272.406 35.908 272.184 36.718 271.74 37.402C271.296 38.074 270.666 38.59 269.85 38.95C269.034 39.31 268.062 39.49 266.934 39.49H263.1L264.396 38.212V43H261.48ZM269.49 43L266.34 38.428H269.454L272.64 43H269.49ZM264.396 38.536L263.1 37.168H266.772C267.672 37.168 268.344 36.976 268.788 36.592C269.232 36.196 269.454 35.656 269.454 34.972C269.454 34.276 269.232 33.736 268.788 33.352C268.344 32.968 267.672 32.776 266.772 32.776H263.1L264.396 31.39V38.536ZM274.717 43V30.4H277.129L284.563 39.472H283.393V30.4H286.273V43H283.879L276.427 33.928H277.597V43H274.717ZM294.351 43V30.4H300.507C302.091 30.4 303.279 30.7 304.071 31.3C304.875 31.9 305.277 32.692 305.277 33.676C305.277 34.336 305.115 34.912 304.791 35.404C304.467 35.884 304.023 36.256 303.459 36.52C302.895 36.784 302.247 36.916 301.515 36.916L301.857 36.178C302.649 36.178 303.351 36.31 303.963 36.574C304.575 36.826 305.049 37.204 305.385 37.708C305.733 38.212 305.907 38.83 305.907 39.562C305.907 40.642 305.481 41.488 304.629 42.1C303.777 42.7 302.523 43 300.867 43H294.351ZM297.249 40.804H300.651C301.407 40.804 301.977 40.684 302.361 40.444C302.757 40.192 302.955 39.796 302.955 39.256C302.955 38.728 302.757 38.338 302.361 38.086C301.977 37.822 301.407 37.69 300.651 37.69H297.033V35.566H300.147C300.855 35.566 301.395 35.446 301.767 35.206C302.151 34.954 302.343 34.576 302.343 34.072C302.343 33.58 302.151 33.214 301.767 32.974C301.395 32.722 300.855 32.596 300.147 32.596H297.249V40.804ZM308.115 43V30.4H313.569C314.697 30.4 315.669 30.586 316.485 30.958C317.301 31.318 317.931 31.84 318.375 32.524C318.819 33.208 319.041 34.024 319.041 34.972C319.041 35.908 318.819 36.718 318.375 37.402C317.931 38.074 317.301 38.59 316.485 38.95C315.669 39.31 314.697 39.49 313.569 39.49H309.735L311.031 38.212V43H308.115ZM316.125 43L312.975 38.428H316.089L319.275 43H316.125ZM311.031 38.536L309.735 37.168H313.407C314.307 37.168 314.979 36.976 315.423 36.592C315.867 36.196 316.089 35.656 316.089 34.972C316.089 34.276 315.867 33.736 315.423 33.352C314.979 32.968 314.307 32.776 313.407 32.776H309.735L311.031 31.39V38.536ZM319.695 43L325.311 30.4H328.191L333.825 43H330.765L326.157 31.876H327.309L322.683 43H319.695ZM322.503 40.3L323.277 38.086H329.757L330.549 40.3H322.503ZM335.133 43V30.4H337.545L344.979 39.472H343.809V30.4H346.689V43H344.295L336.843 33.928H338.013V43H335.133ZM349.67 43V30.4H355.394C356.762 30.4 357.968 30.664 359.012 31.192C360.056 31.708 360.872 32.434 361.46 33.37C362.048 34.306 362.342 35.416 362.342 36.7C362.342 37.972 362.048 39.082 361.46 40.03C360.872 40.966 360.056 41.698 359.012 42.226C357.968 42.742 356.762 43 355.394 43H349.67ZM352.586 40.606H355.25C356.09 40.606 356.816 40.45 357.428 40.138C358.052 39.814 358.532 39.358 358.868 38.77C359.216 38.182 359.39 37.492 359.39 36.7C359.39 35.896 359.216 35.206 358.868 34.63C358.532 34.042 358.052 33.592 357.428 33.28C356.816 32.956 356.09 32.794 355.25 32.794H352.586V40.606ZM368.681 43.216C367.673 43.216 366.707 43.084 365.783 42.82C364.859 42.544 364.115 42.19 363.551 41.758L364.541 39.562C365.081 39.946 365.717 40.264 366.449 40.516C367.193 40.756 367.943 40.876 368.699 40.876C369.275 40.876 369.737 40.822 370.085 40.714C370.445 40.594 370.709 40.432 370.877 40.228C371.045 40.024 371.129 39.79 371.129 39.526C371.129 39.19 370.997 38.926 370.733 38.734C370.469 38.53 370.121 38.368 369.689 38.248C369.257 38.116 368.777 37.996 368.249 37.888C367.733 37.768 367.211 37.624 366.683 37.456C366.167 37.288 365.693 37.072 365.261 36.808C364.829 36.544 364.475 36.196 364.199 35.764C363.935 35.332 363.803 34.78 363.803 34.108C363.803 33.388 363.995 32.734 364.379 32.146C364.775 31.546 365.363 31.072 366.143 30.724C366.935 30.364 367.925 30.184 369.113 30.184C369.905 30.184 370.685 30.28 371.453 30.472C372.221 30.652 372.899 30.928 373.487 31.3L372.587 33.514C371.999 33.178 371.411 32.932 370.823 32.776C370.235 32.608 369.659 32.524 369.095 32.524C368.531 32.524 368.069 32.59 367.709 32.722C367.349 32.854 367.091 33.028 366.935 33.244C366.779 33.448 366.701 33.688 366.701 33.964C366.701 34.288 366.833 34.552 367.097 34.756C367.361 34.948 367.709 35.104 368.141 35.224C368.573 35.344 369.047 35.464 369.563 35.584C370.091 35.704 370.613 35.842 371.129 35.998C371.657 36.154 372.137 36.364 372.569 36.628C373.001 36.892 373.349 37.24 373.613 37.672C373.889 38.104 374.027 38.65 374.027 39.31C374.027 40.018 373.829 40.666 373.433 41.254C373.037 41.842 372.443 42.316 371.651 42.676C370.871 43.036 369.881 43.216 368.681 43.216Z" fill="black"/>
</svg>
