<svg width="342" height="53" viewBox="0 0 342 53" fill="none" xmlns="http://www.w3.org/2000/svg">
<path d="M8.14745 37.6997L8.11821 17.2198L10.3614 19.4551L3.64142 19.4692L3.63548 15.3092L13.2995 15.2889L13.3314 37.6889L8.14745 37.6997ZM17.0307 37.6811L17.0259 34.3211L25.6542 26.1429C26.336 25.5228 26.8365 24.9671 27.1558 24.4758C27.4751 23.9844 27.6878 23.536 27.7939 23.1304C27.9213 22.7248 27.9848 22.3514 27.9843 22.01C27.983 21.114 27.6727 20.432 27.0534 19.964C26.4554 19.4746 25.5697 19.2311 24.3963 19.2336C23.4577 19.2355 22.5833 19.4187 21.7731 19.7831C20.9843 20.1474 20.3131 20.7141 19.7596 21.4833L15.9801 19.0592C16.8316 17.7775 18.0248 16.7616 19.5597 16.0117C21.0947 15.2618 22.8648 14.8848 24.8701 14.8806C26.5341 14.8771 27.9852 15.1513 29.2233 15.7034C30.4827 16.2341 31.4545 16.9894 32.1385 17.9693C32.8439 18.9491 33.1976 20.1217 33.1996 21.4871C33.2006 22.2124 33.1056 22.9379 32.9147 23.6637C32.745 24.368 32.3834 25.1155 31.8299 25.906C31.2977 26.6964 30.5096 27.5834 29.4657 28.5669L22.3073 35.334L21.3126 33.4481L33.9526 33.4215L33.9586 37.6455L17.0307 37.6811ZM43.7142 38.009C42.1568 38.0123 40.6099 37.8129 39.0733 37.4108C37.558 36.9873 36.2559 36.3927 35.1668 35.627L37.2091 31.6547C38.0633 32.2715 39.0453 32.7601 40.1552 33.1205C41.2864 33.4808 42.428 33.6597 43.58 33.6573C44.8813 33.6545 45.9049 33.3964 46.6509 32.8828C47.3968 32.3693 47.7691 31.6538 47.7678 30.7365C47.767 30.1605 47.6169 29.6488 47.3176 29.2014C47.0183 28.754 46.4845 28.4138 45.7161 28.1808C44.9691 27.9477 43.913 27.8326 42.5476 27.8354L36.8197 27.8475L37.9537 15.2371L51.6176 15.2083L51.6236 19.3683L39.8156 19.3932L42.5002 17.0195L41.713 26.0132L39.0217 23.6508L43.7577 23.6409C45.9763 23.6362 47.7581 23.9418 49.103 24.5577C50.4692 25.1521 51.4623 25.9714 52.0825 27.0154C52.7026 28.0594 53.0137 29.2428 53.0156 30.5654C53.0174 31.8881 52.6885 33.1155 52.0288 34.2475C51.3691 35.3582 50.3464 36.2671 48.9607 36.974C47.5963 37.6595 45.8475 38.0045 43.7142 38.009ZM87.2703 20.0614C88.6357 20.0586 89.8414 20.3334 90.8875 20.8858C91.9549 21.4169 92.7881 22.2472 93.3871 23.3766C94.0073 24.4846 94.3187 25.9133 94.3212 27.6626L94.3353 37.5186L89.3433 37.5291L89.3303 28.4411C89.3283 27.0545 89.0389 26.0311 88.4619 25.3709C87.885 24.7108 87.0738 24.3819 86.0285 24.3841C85.3032 24.3856 84.6527 24.5576 84.0772 24.9002C83.5017 25.2214 83.0544 25.713 82.7353 26.375C82.4163 27.037 82.2575 27.88 82.2589 28.904L82.2713 37.544L77.2793 37.5545L77.2663 28.4665C77.2643 27.0798 76.9749 26.0564 76.3979 25.3963C75.8423 24.7361 75.0419 24.4071 73.9965 24.4093C73.2712 24.4109 72.6208 24.5829 72.0453 24.9254C71.4697 25.2467 71.0224 25.7383 70.7034 26.4003C70.3843 27.0623 70.2255 27.9053 70.227 28.9293L70.2393 37.5693L65.2473 37.5798L65.2227 20.3638L69.9907 20.3537L69.9974 25.0577L69.0995 23.6836C69.6951 22.509 70.5365 21.6219 71.6237 21.0223C72.7321 20.4013 73.9904 20.0893 75.3984 20.0864C76.977 20.0831 78.3536 20.4855 79.5281 21.2937C80.7239 22.0805 81.5149 23.2949 81.9013 24.9367L80.1406 24.4604C80.7147 23.1152 81.6305 22.0466 82.888 21.2546C84.1669 20.4626 85.6277 20.0649 87.2703 20.0614ZM98.8097 37.5092L98.7758 13.7652L103.768 13.7548L103.802 37.4987L98.8097 37.5092ZM122.632 25.1391L133.384 25.1165L133.39 29.2765L122.638 29.2991L122.632 25.1391ZM123.033 37.4583L117.849 37.4692L117.817 15.0692L134.745 15.0337L134.751 19.1937L123.007 19.2183L123.033 37.4583ZM148.026 37.4058L148.021 34.0458L147.7 33.3105L147.691 27.2945C147.69 26.2278 147.358 25.3965 146.696 24.8006C146.055 24.2046 145.063 23.908 143.719 23.9108C142.801 23.9127 141.895 24.064 140.999 24.3645C140.125 24.6437 139.379 25.0293 138.761 25.5212L136.964 22.037C137.902 21.3737 139.032 20.8593 140.354 20.4939C141.676 20.1284 143.02 19.9443 144.385 19.9414C147.009 19.9359 149.047 20.5503 150.5 21.7846C151.952 23.0188 152.68 24.948 152.684 27.572L152.698 37.396L148.026 37.4058ZM142.778 37.6728C141.434 37.6756 140.282 37.4541 139.321 37.0081C138.361 36.5408 137.624 35.913 137.111 35.1247C136.597 34.3365 136.34 33.4517 136.339 32.4703C136.337 31.4463 136.581 30.5498 137.071 29.7808C137.582 29.0117 138.381 28.4127 139.468 27.9838C140.556 27.5335 141.974 27.3065 143.723 27.3028L148.299 27.2932L148.304 30.2052L144.272 30.2137C143.098 30.2161 142.288 30.4098 141.84 30.7948C141.414 31.1797 141.202 31.6601 141.203 32.2361C141.203 32.8761 141.449 33.3876 141.941 33.7706C142.453 34.1322 143.147 34.312 144.021 34.3102C144.853 34.3085 145.6 34.1149 146.261 33.7295C146.921 33.3228 147.401 32.7351 147.698 31.9665L148.469 34.2689C148.108 35.3789 147.448 36.223 146.489 36.801C145.53 37.379 144.293 37.6696 142.778 37.6728ZM157.216 37.3865L157.182 13.6425L162.174 13.632L162.208 37.376L157.216 37.3865ZM172.633 37.6101C171.161 37.6132 169.742 37.4455 168.376 37.107C167.032 36.7472 165.965 36.3014 165.175 35.7698L166.833 32.1823C167.623 32.6713 168.552 33.0746 169.619 33.3924C170.708 33.6888 171.774 33.8359 172.82 33.8337C173.972 33.8313 174.782 33.6909 175.251 33.4126C175.741 33.1342 175.986 32.7497 175.986 32.259C175.985 31.8537 175.793 31.5554 175.408 31.3642C175.045 31.1517 174.554 30.9927 173.936 30.8873C173.317 30.782 172.634 30.6767 171.887 30.5716C171.162 30.4665 170.425 30.3294 169.679 30.1603C168.932 29.9698 168.249 29.6939 167.629 29.3326C167.01 28.9712 166.508 28.4816 166.123 27.8637C165.76 27.2458 165.577 26.4462 165.576 25.4649C165.574 24.3769 165.882 23.4162 166.5 22.5829C167.139 21.7496 168.055 21.097 169.249 20.6252C170.443 20.132 171.872 19.8836 173.536 19.8801C174.709 19.8777 175.904 20.0032 177.12 20.2566C178.337 20.5101 179.351 20.8813 180.162 21.3702L178.503 24.9257C177.67 24.4368 176.827 24.1079 175.974 23.939C175.141 23.7488 174.331 23.6545 173.541 23.6561C172.432 23.6585 171.621 23.8095 171.11 24.1093C170.598 24.409 170.343 24.7935 170.344 25.2629C170.344 25.6895 170.526 26.0092 170.889 26.2217C171.273 26.4342 171.775 26.6039 172.394 26.7306C173.013 26.8573 173.685 26.9732 174.41 27.0783C175.157 27.1621 175.904 27.2992 176.651 27.4896C177.398 27.68 178.07 27.956 178.668 28.3174C179.287 28.6574 179.789 29.1364 180.174 29.7542C180.559 30.3507 180.752 31.1397 180.753 32.121C180.755 33.1877 180.436 34.1377 179.797 34.971C179.159 35.783 178.232 36.425 177.016 36.8969C175.822 37.3687 174.361 37.6064 172.633 37.6101ZM192.385 37.5686C190.422 37.5727 188.694 37.1923 187.2 36.4275C185.726 35.6626 184.584 34.6196 183.771 33.2987C182.958 31.9564 182.551 30.4319 182.549 28.7252C182.546 26.9972 182.939 25.4711 183.726 24.1467C184.535 22.801 185.632 21.7534 187.017 21.0038C188.403 20.2329 189.971 19.8456 191.72 19.8419C193.405 19.8384 194.92 20.1979 196.265 20.9204C197.632 21.6215 198.711 22.6432 199.502 23.9856C200.293 25.3066 200.69 26.8951 200.693 28.7511C200.693 28.9431 200.682 29.1671 200.662 29.4232C200.641 29.6579 200.62 29.8819 200.598 30.0953L186.615 30.1247L186.61 27.2127L197.97 27.1888L196.052 28.0568C196.05 27.1608 195.868 26.3826 195.504 25.722C195.141 25.0614 194.639 24.5505 193.998 24.1892C193.358 23.8065 192.611 23.6161 191.757 23.6179C190.904 23.6197 190.147 23.8132 189.486 24.1986C188.847 24.5626 188.346 25.0864 187.984 25.7698C187.623 26.4319 187.442 27.2216 187.444 28.1389L187.445 28.9069C187.446 29.8456 187.65 30.6772 188.056 31.4017C188.484 32.1048 189.071 32.6475 189.819 33.03C190.587 33.391 191.483 33.5705 192.507 33.5683C193.425 33.5664 194.225 33.426 194.907 33.1473C195.61 32.8685 196.25 32.4511 196.825 31.8952L199.485 34.7696C198.697 35.6673 197.706 36.3627 196.512 36.8559C195.318 37.3277 193.942 37.5653 192.385 37.5686ZM213.443 37.2683L213.411 14.8683L224.355 14.8453C227.171 14.8394 229.283 15.3683 230.693 16.432C232.124 17.4957 232.841 18.9022 232.843 20.6515C232.845 21.8248 232.558 22.8495 231.983 23.7253C231.409 24.5799 230.62 25.2429 229.618 25.7143C228.616 26.1857 227.465 26.4228 226.163 26.4256L226.769 25.1123C228.177 25.1093 229.426 25.3414 230.514 25.8084C231.603 26.2541 232.447 26.9244 233.045 27.8191C233.665 28.7138 233.976 29.8118 233.978 31.1132C233.981 33.0331 233.226 34.5387 231.712 35.6299C230.199 36.6998 227.971 37.2378 225.027 37.244L213.443 37.2683ZM218.589 33.3535L224.637 33.3408C225.981 33.338 226.994 33.1225 227.676 32.6944C228.38 32.2449 228.731 31.5402 228.729 30.5802C228.728 29.6415 228.375 28.9489 227.67 28.5024C226.987 28.0345 225.973 27.802 224.629 27.8048L218.197 27.8183L218.192 24.0423L223.728 24.0307C224.987 24.028 225.946 23.8127 226.607 23.3846C227.289 22.9352 227.629 22.2625 227.628 21.3665C227.627 20.4918 227.285 19.8419 226.601 19.4166C225.939 18.97 224.979 18.748 223.72 18.7507L218.568 18.7615L218.589 33.3535ZM245.752 37.4564C243.917 37.4603 242.285 37.0797 240.854 36.3147C239.445 35.5497 238.324 34.5067 237.49 33.1858C236.677 31.8435 236.27 30.319 236.267 28.6123C236.265 26.8843 236.668 25.3582 237.477 24.0338C238.307 22.688 239.425 21.6404 240.832 20.8907C242.26 20.1197 243.892 19.7323 245.726 19.7284C247.54 19.7246 249.162 20.1052 250.592 20.8702C252.022 21.6139 253.144 22.6462 253.957 23.9672C254.769 25.2881 255.177 26.8233 255.179 28.5726C255.182 30.2793 254.778 31.8054 253.97 33.1511C253.161 34.4755 252.042 35.5232 250.614 36.2942C249.186 37.0652 247.565 37.4526 245.752 37.4564ZM245.746 33.3604C246.578 33.3587 247.324 33.1651 247.985 32.7797C248.646 32.3943 249.168 31.8492 249.551 31.1444C249.934 30.4183 250.125 29.5645 250.123 28.5832C250.122 27.5806 249.928 26.7276 249.543 26.0244C249.158 25.3212 248.635 24.7783 247.973 24.3957C247.311 24.0131 246.564 23.8227 245.732 23.8244C244.9 23.8262 244.154 24.0198 243.493 24.4051C242.832 24.7905 242.3 25.3357 241.895 26.0405C241.512 26.7453 241.322 27.599 241.323 28.6017C241.325 29.583 241.518 30.436 241.903 31.1605C242.309 31.8636 242.843 32.4065 243.505 32.7891C244.167 33.1717 244.914 33.3622 245.746 33.3604ZM265.568 37.4148C263.542 37.419 261.962 36.9104 260.83 35.8887C259.698 34.8458 259.131 33.3003 259.128 31.2523L259.106 16.1483L264.098 16.1378L264.12 31.1778C264.121 31.9031 264.313 32.4681 264.698 32.8726C265.083 33.2558 265.605 33.4467 266.267 33.4453C267.056 33.4436 267.728 33.2289 268.282 32.8011L269.631 36.3182C269.119 36.682 268.501 36.9606 267.776 37.1541C267.072 37.3263 266.336 37.4132 265.568 37.4148ZM256.462 24.1859L256.456 20.3459L268.392 20.3208L268.398 24.1608L256.462 24.1859ZM279.1 37.3863C277.073 37.3906 275.494 36.8819 274.362 35.8603C273.229 34.8173 272.662 33.2719 272.659 31.2239L272.637 16.1199L277.629 16.1094L277.651 31.1494C277.652 31.8747 277.845 32.4396 278.229 32.8442C278.614 33.2274 279.137 33.4183 279.798 33.4169C280.587 33.4152 281.259 33.2005 281.813 32.7726L283.162 36.2898C282.651 36.6535 282.032 36.9322 281.307 37.1257C280.604 37.2978 279.868 37.3847 279.1 37.3863ZM269.993 24.1575L269.987 20.3175L281.923 20.2924L281.929 24.1324L269.993 24.1575ZM293.627 37.3558C291.792 37.3597 290.159 36.9791 288.729 36.2141C287.32 35.4491 286.198 34.4061 285.365 33.0852C284.552 31.7429 284.144 30.2184 284.142 28.5117C284.14 26.7837 284.543 25.2575 285.351 23.9332C286.182 22.5874 287.3 21.5397 288.707 20.7901C290.135 20.0191 291.767 19.6317 293.601 19.6278C295.415 19.624 297.037 20.0046 298.467 20.7696C299.897 21.5133 301.019 22.5456 301.831 23.8665C302.644 25.1875 303.051 26.7227 303.054 28.472C303.056 30.1786 302.653 31.7048 301.845 33.0505C301.036 34.3749 299.917 35.4226 298.489 36.1936C297.061 36.9646 295.44 37.352 293.627 37.3558ZM293.621 33.2598C294.453 33.2581 295.199 33.0645 295.86 32.6791C296.521 32.2937 297.043 31.7486 297.426 31.0438C297.809 30.3177 297.999 29.4639 297.998 28.4826C297.997 27.4799 297.803 26.627 297.418 25.9238C297.033 25.2206 296.51 24.6777 295.848 24.2951C295.186 23.9125 294.439 23.7221 293.607 23.7238C292.775 23.7256 292.029 23.9191 291.368 24.3045C290.707 24.6899 290.175 25.235 289.77 25.9399C289.387 26.6447 289.197 27.4984 289.198 28.5011C289.199 29.4824 289.393 30.3354 289.778 31.0599C290.184 31.763 290.718 32.3059 291.38 32.6885C292.042 33.0711 292.789 33.2616 293.621 33.2598ZM328.426 19.5546C329.791 19.5518 330.997 19.8266 332.043 20.379C333.111 20.9101 333.944 21.7404 334.543 22.8698C335.163 23.9778 335.474 25.4065 335.477 27.1558L335.491 37.0118L330.499 37.0223L330.486 27.9343C330.484 26.5477 330.195 25.5243 329.618 24.8642C329.041 24.204 328.23 23.8751 327.184 23.8773C326.459 23.8788 325.808 24.0508 325.233 24.3934C324.657 24.7146 324.21 25.2062 323.891 25.8682C323.572 26.5302 323.413 27.3732 323.415 28.3972L323.427 37.0372L318.435 37.0477L318.422 27.9597C318.42 26.573 318.131 25.5496 317.554 24.8895C316.998 24.2293 316.198 23.9004 315.152 23.9025C314.427 23.9041 313.776 24.0761 313.201 24.4187C312.625 24.7399 312.178 25.2315 311.859 25.8935C311.54 26.5555 311.381 27.3985 311.383 28.4225L311.395 37.0625L306.403 37.073L306.378 19.857L311.146 19.847L311.153 24.551L310.255 23.1768C310.851 22.0023 311.692 21.1151 312.779 20.5155C313.888 19.8945 315.146 19.5826 316.554 19.5796C318.133 19.5763 319.509 19.9787 320.684 20.7869C321.88 21.5737 322.671 22.7881 323.057 24.4299L321.296 23.9536C321.87 22.6084 322.786 21.5398 324.044 20.7479C325.323 19.9558 326.783 19.5581 328.426 19.5546Z" fill="black"/>
</svg>
