<svg width="432" height="43" viewBox="0 0 432 43" fill="none" xmlns="http://www.w3.org/2000/svg">
<path d="M30.3362 16V6.2H34.1582C35.0169 6.2 35.7495 6.33533 36.3562 6.606C36.9629 6.87667 37.4295 7.26867 37.7562 7.782C38.0829 8.29533 38.2462 8.90667 38.2462 9.616C38.2462 10.3253 38.0829 10.9367 37.7562 11.45C37.4295 11.954 36.9629 12.346 36.3562 12.626C35.7495 12.8967 35.0169 13.032 34.1582 13.032H31.1062L31.7362 12.374V16H30.3362ZM31.7362 12.514L31.1062 11.814H34.1162C35.0122 11.814 35.6889 11.6227 36.1462 11.24C36.6129 10.8573 36.8462 10.316 36.8462 9.616C36.8462 8.916 36.6129 8.37467 36.1462 7.992C35.6889 7.60933 35.0122 7.418 34.1162 7.418H31.1062L31.7362 6.718V12.514ZM43.3837 16.084C42.5903 16.084 41.8903 15.9207 41.2837 15.594C40.6863 15.2673 40.2197 14.8193 39.8837 14.25C39.557 13.6807 39.3937 13.0273 39.3937 12.29C39.3937 11.5527 39.5523 10.8993 39.8697 10.33C40.1963 9.76067 40.6397 9.31733 41.1997 9C41.769 8.67333 42.4083 8.51 43.1177 8.51C43.8363 8.51 44.471 8.66867 45.0217 8.986C45.5723 9.30333 46.0017 9.75133 46.3097 10.33C46.627 10.8993 46.7857 11.5667 46.7857 12.332C46.7857 12.388 46.781 12.4533 46.7717 12.528C46.7717 12.6027 46.767 12.6727 46.7577 12.738H40.4437V11.772H46.0577L45.5117 12.108C45.521 11.632 45.423 11.2073 45.2177 10.834C45.0123 10.4607 44.7277 10.1713 44.3637 9.966C44.009 9.75133 43.5937 9.644 43.1177 9.644C42.651 9.644 42.2357 9.75133 41.8717 9.966C41.5077 10.1713 41.223 10.4653 41.0177 10.848C40.8123 11.2213 40.7097 11.6507 40.7097 12.136V12.36C40.7097 12.8547 40.8217 13.298 41.0457 13.69C41.279 14.0727 41.601 14.3713 42.0117 14.586C42.4223 14.8007 42.8937 14.908 43.4257 14.908C43.8643 14.908 44.261 14.8333 44.6157 14.684C44.9797 14.5347 45.297 14.3107 45.5677 14.012L46.3097 14.88C45.9737 15.272 45.5537 15.5707 45.0497 15.776C44.555 15.9813 43.9997 16.084 43.3837 16.084ZM48.6519 16V8.58H49.9399V10.596L49.8139 10.092C50.0193 9.57867 50.3646 9.18667 50.8499 8.916C51.3353 8.64533 51.9326 8.51 52.6419 8.51V9.812C52.5859 9.80267 52.5299 9.798 52.4739 9.798C52.4273 9.798 52.3806 9.798 52.3339 9.798C51.6153 9.798 51.0459 10.0127 50.6259 10.442C50.2059 10.8713 49.9959 11.492 49.9959 12.304V16H48.6519ZM54.5901 16V7.922C54.5901 7.194 54.8001 6.61533 55.2201 6.186C55.6495 5.74733 56.2561 5.528 57.0401 5.528C57.3295 5.528 57.6048 5.56533 57.8661 5.64C58.1368 5.70533 58.3655 5.81267 58.5521 5.962L58.1461 6.984C58.0061 6.872 57.8475 6.788 57.6701 6.732C57.4928 6.66667 57.3061 6.634 57.1101 6.634C56.7181 6.634 56.4195 6.746 56.2141 6.97C56.0088 7.18467 55.9061 7.50667 55.9061 7.936V8.93L55.9341 9.546V16H54.5901ZM53.3301 9.686V8.58H58.0621V9.686H53.3301ZM62.5243 16.084C61.731 16.084 61.031 15.9207 60.4243 15.594C59.827 15.2673 59.3603 14.8193 59.0243 14.25C58.6976 13.6807 58.5343 13.0273 58.5343 12.29C58.5343 11.5527 58.693 10.8993 59.0103 10.33C59.337 9.76067 59.7803 9.31733 60.3403 9C60.9096 8.67333 61.549 8.51 62.2583 8.51C62.977 8.51 63.6116 8.66867 64.1623 8.986C64.713 9.30333 65.1423 9.75133 65.4503 10.33C65.7676 10.8993 65.9263 11.5667 65.9263 12.332C65.9263 12.388 65.9216 12.4533 65.9123 12.528C65.9123 12.6027 65.9076 12.6727 65.8983 12.738H59.5843V11.772H65.1983L64.6523 12.108C64.6616 11.632 64.5636 11.2073 64.3583 10.834C64.153 10.4607 63.8683 10.1713 63.5043 9.966C63.1496 9.75133 62.7343 9.644 62.2583 9.644C61.7916 9.644 61.3763 9.75133 61.0123 9.966C60.6483 10.1713 60.3636 10.4653 60.1583 10.848C59.953 11.2213 59.8503 11.6507 59.8503 12.136V12.36C59.8503 12.8547 59.9623 13.298 60.1863 13.69C60.4196 14.0727 60.7416 14.3713 61.1523 14.586C61.563 14.8007 62.0343 14.908 62.5663 14.908C63.005 14.908 63.4016 14.8333 63.7563 14.684C64.1203 14.5347 64.4376 14.3107 64.7083 14.012L65.4503 14.88C65.1143 15.272 64.6943 15.5707 64.1903 15.776C63.6956 15.9813 63.1403 16.084 62.5243 16.084ZM71.0266 16.084C70.2706 16.084 69.5939 15.9207 68.9966 15.594C68.4086 15.2673 67.9466 14.8193 67.6106 14.25C67.2746 13.6807 67.1066 13.0273 67.1066 12.29C67.1066 11.5527 67.2746 10.8993 67.6106 10.33C67.9466 9.76067 68.4086 9.31733 68.9966 9C69.5939 8.67333 70.2706 8.51 71.0266 8.51C71.6986 8.51 72.2959 8.64533 72.8186 8.916C73.3506 9.17733 73.7612 9.56933 74.0506 10.092L73.0286 10.75C72.7859 10.386 72.4872 10.12 72.1326 9.952C71.7872 9.77467 71.4139 9.686 71.0126 9.686C70.5272 9.686 70.0932 9.79333 69.7106 10.008C69.3279 10.2227 69.0246 10.526 68.8006 10.918C68.5766 11.3007 68.4646 11.758 68.4646 12.29C68.4646 12.822 68.5766 13.284 68.8006 13.676C69.0246 14.068 69.3279 14.3713 69.7106 14.586C70.0932 14.8007 70.5272 14.908 71.0126 14.908C71.4139 14.908 71.7872 14.824 72.1326 14.656C72.4872 14.4787 72.7859 14.208 73.0286 13.844L74.0506 14.488C73.7612 15.0013 73.3506 15.398 72.8186 15.678C72.2959 15.9487 71.6986 16.084 71.0266 16.084ZM78.4343 16.084C77.6876 16.084 77.109 15.8833 76.6983 15.482C76.2876 15.0807 76.0823 14.5067 76.0823 13.76V6.956H77.4263V13.704C77.4263 14.1053 77.5243 14.4133 77.7203 14.628C77.9256 14.8427 78.215 14.95 78.5883 14.95C79.0083 14.95 79.3583 14.8333 79.6383 14.6L80.0583 15.566C79.853 15.7433 79.6056 15.874 79.3163 15.958C79.0363 16.042 78.7423 16.084 78.4343 16.084ZM74.8223 9.686V8.58H79.5543V9.686H74.8223ZM85.6389 16V7.922C85.6389 7.194 85.8489 6.61533 86.2689 6.186C86.6983 5.74733 87.3049 5.528 88.0889 5.528C88.3783 5.528 88.6536 5.56533 88.9149 5.64C89.1856 5.70533 89.4143 5.81267 89.6009 5.962L89.1949 6.984C89.0549 6.872 88.8963 6.788 88.7189 6.732C88.5416 6.66667 88.3549 6.634 88.1589 6.634C87.7669 6.634 87.4683 6.746 87.2629 6.97C87.0576 7.18467 86.9549 7.50667 86.9549 7.936V8.93L86.9829 9.546V16H85.6389ZM84.3789 9.686V8.58H89.1109V9.686H84.3789ZM93.4471 16.084C92.7005 16.084 92.0378 15.9207 91.4591 15.594C90.8805 15.2673 90.4231 14.8193 90.0871 14.25C89.7511 13.6713 89.5831 13.018 89.5831 12.29C89.5831 11.5527 89.7511 10.8993 90.0871 10.33C90.4231 9.76067 90.8805 9.31733 91.4591 9C92.0378 8.67333 92.7005 8.51 93.4471 8.51C94.1845 8.51 94.8425 8.67333 95.4211 9C96.0091 9.31733 96.4665 9.76067 96.7931 10.33C97.1291 10.89 97.2971 11.5433 97.2971 12.29C97.2971 13.0273 97.1291 13.6807 96.7931 14.25C96.4665 14.8193 96.0091 15.2673 95.4211 15.594C94.8425 15.9207 94.1845 16.084 93.4471 16.084ZM93.4471 14.908C93.9231 14.908 94.3478 14.8007 94.7211 14.586C95.1038 14.3713 95.4025 14.068 95.6171 13.676C95.8318 13.2747 95.9391 12.8127 95.9391 12.29C95.9391 11.758 95.8318 11.3007 95.6171 10.918C95.4025 10.526 95.1038 10.2227 94.7211 10.008C94.3478 9.79333 93.9231 9.686 93.4471 9.686C92.9711 9.686 92.5465 9.79333 92.1731 10.008C91.7998 10.2227 91.5011 10.526 91.2771 10.918C91.0531 11.3007 90.9411 11.758 90.9411 12.29C90.9411 12.8127 91.0531 13.2747 91.2771 13.676C91.5011 14.068 91.7998 14.3713 92.1731 14.586C92.5465 14.8007 92.9711 14.908 93.4471 14.908ZM99.1558 16V8.58H100.444V10.596L100.318 10.092C100.523 9.57867 100.869 9.18667 101.354 8.916C101.839 8.64533 102.437 8.51 103.146 8.51V9.812C103.09 9.80267 103.034 9.798 102.978 9.798C102.931 9.798 102.885 9.798 102.838 9.798C102.119 9.798 101.55 10.0127 101.13 10.442C100.71 10.8713 100.5 11.492 100.5 12.304V16H99.1558ZM108.658 16V5.612H110.002V16H108.658ZM117.174 16V14.432L117.104 14.138V11.464C117.104 10.8947 116.936 10.456 116.6 10.148C116.273 9.83067 115.779 9.672 115.116 9.672C114.677 9.672 114.248 9.74667 113.828 9.896C113.408 10.036 113.053 10.2273 112.764 10.47L112.204 9.462C112.587 9.154 113.044 8.92067 113.576 8.762C114.117 8.594 114.682 8.51 115.27 8.51C116.287 8.51 117.071 8.75733 117.622 9.252C118.173 9.74667 118.448 10.5027 118.448 11.52V16H117.174ZM114.738 16.084C114.187 16.084 113.702 15.9907 113.282 15.804C112.871 15.6173 112.554 15.3607 112.33 15.034C112.106 14.698 111.994 14.32 111.994 13.9C111.994 13.4987 112.087 13.1347 112.274 12.808C112.47 12.4813 112.783 12.22 113.212 12.024C113.651 11.828 114.239 11.73 114.976 11.73H117.328V12.696H115.032C114.36 12.696 113.907 12.808 113.674 13.032C113.441 13.256 113.324 13.5267 113.324 13.844C113.324 14.208 113.469 14.502 113.758 14.726C114.047 14.9407 114.449 15.048 114.962 15.048C115.466 15.048 115.905 14.936 116.278 14.712C116.661 14.488 116.936 14.1613 117.104 13.732L117.37 14.656C117.193 15.0947 116.88 15.4447 116.432 15.706C115.984 15.958 115.419 16.084 114.738 16.084ZM124.001 16.084C123.282 16.084 122.638 15.9253 122.069 15.608C121.509 15.2907 121.066 14.8473 120.739 14.278C120.412 13.7087 120.249 13.046 120.249 12.29C120.249 11.534 120.412 10.876 120.739 10.316C121.066 9.74667 121.509 9.30333 122.069 8.986C122.638 8.66867 123.282 8.51 124.001 8.51C124.626 8.51 125.191 8.65 125.695 8.93C126.199 9.21 126.6 9.63 126.899 10.19C127.207 10.75 127.361 11.45 127.361 12.29C127.361 13.13 127.212 13.83 126.913 14.39C126.624 14.95 126.227 15.3747 125.723 15.664C125.219 15.944 124.645 16.084 124.001 16.084ZM124.113 14.908C124.58 14.908 125 14.8007 125.373 14.586C125.756 14.3713 126.054 14.068 126.269 13.676C126.493 13.2747 126.605 12.8127 126.605 12.29C126.605 11.758 126.493 11.3007 126.269 10.918C126.054 10.526 125.756 10.2227 125.373 10.008C125 9.79333 124.58 9.686 124.113 9.686C123.637 9.686 123.212 9.79333 122.839 10.008C122.466 10.2227 122.167 10.526 121.943 10.918C121.719 11.3007 121.607 11.758 121.607 12.29C121.607 12.8127 121.719 13.2747 121.943 13.676C122.167 14.068 122.466 14.3713 122.839 14.586C123.212 14.8007 123.637 14.908 124.113 14.908ZM126.647 16V13.998L126.731 12.276L126.591 10.554V5.612H127.935V16H126.647ZM133.544 16.084C132.825 16.084 132.181 15.9253 131.612 15.608C131.052 15.2907 130.609 14.8473 130.282 14.278C129.955 13.7087 129.792 13.046 129.792 12.29C129.792 11.534 129.955 10.876 130.282 10.316C130.609 9.74667 131.052 9.30333 131.612 8.986C132.181 8.66867 132.825 8.51 133.544 8.51C134.169 8.51 134.734 8.65 135.238 8.93C135.742 9.21 136.143 9.63 136.442 10.19C136.75 10.75 136.904 11.45 136.904 12.29C136.904 13.13 136.755 13.83 136.456 14.39C136.167 14.95 135.77 15.3747 135.266 15.664C134.762 15.944 134.188 16.084 133.544 16.084ZM133.656 14.908C134.123 14.908 134.543 14.8007 134.916 14.586C135.299 14.3713 135.597 14.068 135.812 13.676C136.036 13.2747 136.148 12.8127 136.148 12.29C136.148 11.758 136.036 11.3007 135.812 10.918C135.597 10.526 135.299 10.2227 134.916 10.008C134.543 9.79333 134.123 9.686 133.656 9.686C133.18 9.686 132.755 9.79333 132.382 10.008C132.009 10.2227 131.71 10.526 131.486 10.918C131.262 11.3007 131.15 11.758 131.15 12.29C131.15 12.8127 131.262 13.2747 131.486 13.676C131.71 14.068 132.009 14.3713 132.382 14.586C132.755 14.8007 133.18 14.908 133.656 14.908ZM136.19 16V13.998L136.274 12.276L136.134 10.554V5.612H137.478V16H136.19ZM143.143 16.084C142.508 16.084 141.948 15.9673 141.463 15.734C140.987 15.5007 140.614 15.146 140.343 14.67C140.082 14.1847 139.951 13.578 139.951 12.85V8.58H141.295V12.696C141.295 13.424 141.468 13.97 141.813 14.334C142.168 14.698 142.662 14.88 143.297 14.88C143.764 14.88 144.17 14.7867 144.515 14.6C144.86 14.404 145.126 14.124 145.313 13.76C145.5 13.3867 145.593 12.9387 145.593 12.416V8.58H146.937V16H145.663V13.998L145.873 14.53C145.63 15.0247 145.266 15.4073 144.781 15.678C144.296 15.9487 143.75 16.084 143.143 16.084ZM151.624 16.084C151.008 16.084 150.42 16 149.86 15.832C149.309 15.664 148.875 15.4587 148.558 15.216L149.118 14.152C149.435 14.3667 149.827 14.5487 150.294 14.698C150.76 14.8473 151.236 14.922 151.722 14.922C152.347 14.922 152.795 14.8333 153.066 14.656C153.346 14.4787 153.486 14.2313 153.486 13.914C153.486 13.6807 153.402 13.4987 153.234 13.368C153.066 13.2373 152.842 13.1393 152.562 13.074C152.291 13.0087 151.988 12.9527 151.652 12.906C151.316 12.85 150.98 12.7847 150.644 12.71C150.308 12.626 150 12.514 149.72 12.374C149.44 12.2247 149.216 12.024 149.048 11.772C148.88 11.5107 148.796 11.1653 148.796 10.736C148.796 10.288 148.922 9.896 149.174 9.56C149.426 9.224 149.78 8.96733 150.238 8.79C150.704 8.60333 151.255 8.51 151.89 8.51C152.375 8.51 152.865 8.57067 153.36 8.692C153.864 8.804 154.274 8.96733 154.592 9.182L154.018 10.246C153.682 10.022 153.332 9.868 152.968 9.784C152.604 9.7 152.24 9.658 151.876 9.658C151.288 9.658 150.849 9.756 150.56 9.952C150.27 10.1387 150.126 10.3813 150.126 10.68C150.126 10.932 150.21 11.128 150.378 11.268C150.555 11.3987 150.779 11.5013 151.05 11.576C151.33 11.6507 151.638 11.716 151.974 11.772C152.31 11.8187 152.646 11.884 152.982 11.968C153.318 12.0427 153.621 12.15 153.892 12.29C154.172 12.43 154.396 12.626 154.564 12.878C154.741 13.13 154.83 13.466 154.83 13.886C154.83 14.334 154.699 14.7213 154.438 15.048C154.176 15.3747 153.808 15.6313 153.332 15.818C152.856 15.9953 152.286 16.084 151.624 16.084ZM155.977 18.072L156.677 15.244L156.859 16.056C156.589 16.056 156.36 15.972 156.173 15.804C155.996 15.636 155.907 15.4073 155.907 15.118C155.907 14.838 155.996 14.6093 156.173 14.432C156.36 14.2547 156.584 14.166 156.845 14.166C157.116 14.166 157.335 14.2593 157.503 14.446C157.671 14.6233 157.755 14.8473 157.755 15.118C157.755 15.2113 157.746 15.3047 157.727 15.398C157.718 15.482 157.695 15.5847 157.657 15.706C157.629 15.818 157.583 15.958 157.517 16.126L156.859 18.072H155.977ZM167.375 16.084C166.74 16.084 166.166 15.944 165.653 15.664C165.149 15.3747 164.748 14.95 164.449 14.39C164.16 13.83 164.015 13.13 164.015 12.29C164.015 11.45 164.164 10.75 164.463 10.19C164.771 9.63 165.177 9.21 165.681 8.93C166.194 8.65 166.759 8.51 167.375 8.51C168.103 8.51 168.747 8.66867 169.307 8.986C169.867 9.30333 170.31 9.74667 170.637 10.316C170.964 10.876 171.127 11.534 171.127 12.29C171.127 13.046 170.964 13.7087 170.637 14.278C170.31 14.8473 169.867 15.2907 169.307 15.608C168.747 15.9253 168.103 16.084 167.375 16.084ZM163.441 16V5.612H164.785V10.554L164.645 12.276L164.729 13.998V16H163.441ZM167.263 14.908C167.739 14.908 168.164 14.8007 168.537 14.586C168.92 14.3713 169.218 14.068 169.433 13.676C169.657 13.2747 169.769 12.8127 169.769 12.29C169.769 11.758 169.657 11.3007 169.433 10.918C169.218 10.526 168.92 10.2227 168.537 10.008C168.164 9.79333 167.739 9.686 167.263 9.686C166.796 9.686 166.372 9.79333 165.989 10.008C165.616 10.2227 165.317 10.526 165.093 10.918C164.878 11.3007 164.771 11.758 164.771 12.29C164.771 12.8127 164.878 13.2747 165.093 13.676C165.317 14.068 165.616 14.3713 165.989 14.586C166.372 14.8007 166.796 14.908 167.263 14.908ZM177.522 16V14.432L177.452 14.138V11.464C177.452 10.8947 177.284 10.456 176.948 10.148C176.621 9.83067 176.126 9.672 175.464 9.672C175.025 9.672 174.596 9.74667 174.176 9.896C173.756 10.036 173.401 10.2273 173.112 10.47L172.552 9.462C172.934 9.154 173.392 8.92067 173.924 8.762C174.465 8.594 175.03 8.51 175.618 8.51C176.635 8.51 177.419 8.75733 177.97 9.252C178.52 9.74667 178.796 10.5027 178.796 11.52V16H177.522ZM175.086 16.084C174.535 16.084 174.05 15.9907 173.63 15.804C173.219 15.6173 172.902 15.3607 172.678 15.034C172.454 14.698 172.342 14.32 172.342 13.9C172.342 13.4987 172.435 13.1347 172.622 12.808C172.818 12.4813 173.13 12.22 173.56 12.024C173.998 11.828 174.586 11.73 175.324 11.73H177.676V12.696H175.38C174.708 12.696 174.255 12.808 174.022 13.032C173.788 13.256 173.672 13.5267 173.672 13.844C173.672 14.208 173.816 14.502 174.106 14.726C174.395 14.9407 174.796 15.048 175.31 15.048C175.814 15.048 176.252 14.936 176.626 14.712C177.008 14.488 177.284 14.1613 177.452 13.732L177.718 14.656C177.54 15.0947 177.228 15.4447 176.78 15.706C176.332 15.958 175.767 16.084 175.086 16.084ZM181.283 16V8.58H182.571V10.596L182.445 10.092C182.65 9.57867 182.995 9.18667 183.481 8.916C183.966 8.64533 184.563 8.51 185.273 8.51V9.812C185.217 9.80267 185.161 9.798 185.105 9.798C185.058 9.798 185.011 9.798 184.965 9.798C184.246 9.798 183.677 10.0127 183.257 10.442C182.837 10.8713 182.627 11.492 182.627 12.304V16H181.283ZM187.426 16V7.922C187.426 7.194 187.636 6.61533 188.056 6.186C188.485 5.74733 189.092 5.528 189.876 5.528C190.165 5.528 190.441 5.56533 190.702 5.64C190.973 5.70533 191.201 5.81267 191.388 5.962L190.982 6.984C190.842 6.872 190.683 6.788 190.506 6.732C190.329 6.66667 190.142 6.634 189.946 6.634C189.554 6.634 189.255 6.746 189.05 6.97C188.845 7.18467 188.742 7.50667 188.742 7.936V8.93L188.77 9.546V16H187.426ZM186.166 9.686V8.58H190.898V9.686H186.166ZM192.172 16V8.58H193.516V16H192.172ZM192.844 7.152C192.583 7.152 192.363 7.068 192.186 6.9C192.018 6.732 191.934 6.52667 191.934 6.284C191.934 6.032 192.018 5.822 192.186 5.654C192.363 5.486 192.583 5.402 192.844 5.402C193.105 5.402 193.32 5.486 193.488 5.654C193.665 5.81267 193.754 6.01333 193.754 6.256C193.754 6.508 193.67 6.72267 193.502 6.9C193.334 7.068 193.115 7.152 192.844 7.152ZM195.544 18.072L196.244 15.244L196.426 16.056C196.155 16.056 195.926 15.972 195.74 15.804C195.562 15.636 195.474 15.4073 195.474 15.118C195.474 14.838 195.562 14.6093 195.74 14.432C195.926 14.2547 196.15 14.166 196.412 14.166C196.682 14.166 196.902 14.2593 197.07 14.446C197.238 14.6233 197.322 14.8473 197.322 15.118C197.322 15.2113 197.312 15.3047 197.294 15.398C197.284 15.482 197.261 15.5847 197.224 15.706C197.196 15.818 197.149 15.958 197.084 16.126L196.426 18.072H195.544ZM206.255 18.8C205.574 18.8 204.911 18.702 204.267 18.506C203.633 18.3193 203.115 18.0487 202.713 17.694L203.357 16.658C203.703 16.9567 204.127 17.19 204.631 17.358C205.135 17.5353 205.663 17.624 206.213 17.624C207.091 17.624 207.735 17.4187 208.145 17.008C208.556 16.5973 208.761 15.972 208.761 15.132V13.564L208.901 12.094L208.831 10.61V8.58H210.105V14.992C210.105 16.2987 209.779 17.26 209.125 17.876C208.472 18.492 207.515 18.8 206.255 18.8ZM206.087 15.692C205.369 15.692 204.725 15.5427 204.155 15.244C203.595 14.936 203.147 14.5113 202.811 13.97C202.485 13.4287 202.321 12.8033 202.321 12.094C202.321 11.3753 202.485 10.75 202.811 10.218C203.147 9.67667 203.595 9.25667 204.155 8.958C204.725 8.65933 205.369 8.51 206.087 8.51C206.722 8.51 207.301 8.64067 207.823 8.902C208.346 9.154 208.761 9.546 209.069 10.078C209.387 10.61 209.545 11.282 209.545 12.094C209.545 12.8967 209.387 13.564 209.069 14.096C208.761 14.628 208.346 15.0293 207.823 15.3C207.301 15.5613 206.722 15.692 206.087 15.692ZM206.241 14.516C206.736 14.516 207.175 14.4133 207.557 14.208C207.94 14.0027 208.239 13.718 208.453 13.354C208.677 12.99 208.789 12.57 208.789 12.094C208.789 11.618 208.677 11.198 208.453 10.834C208.239 10.47 207.94 10.19 207.557 9.994C207.175 9.78867 206.736 9.686 206.241 9.686C205.747 9.686 205.303 9.78867 204.911 9.994C204.529 10.19 204.225 10.47 204.001 10.834C203.787 11.198 203.679 11.618 203.679 12.094C203.679 12.57 203.787 12.99 204.001 13.354C204.225 13.718 204.529 14.0027 204.911 14.208C205.303 14.4133 205.747 14.516 206.241 14.516ZM215.795 16.084C215.161 16.084 214.601 15.9673 214.115 15.734C213.639 15.5007 213.266 15.146 212.995 14.67C212.734 14.1847 212.603 13.578 212.603 12.85V8.58H213.947V12.696C213.947 13.424 214.12 13.97 214.465 14.334C214.82 14.698 215.315 14.88 215.949 14.88C216.416 14.88 216.822 14.7867 217.167 14.6C217.513 14.404 217.779 14.124 217.965 13.76C218.152 13.3867 218.245 12.9387 218.245 12.416V8.58H219.589V16H218.315V13.998L218.525 14.53C218.283 15.0247 217.919 15.4073 217.433 15.678C216.948 15.9487 216.402 16.084 215.795 16.084ZM222.148 16V5.612H223.492V16H222.148ZM230.664 16V14.432L230.594 14.138V11.464C230.594 10.8947 230.426 10.456 230.09 10.148C229.764 9.83067 229.269 9.672 228.606 9.672C228.168 9.672 227.738 9.74667 227.318 9.896C226.898 10.036 226.544 10.2273 226.254 10.47L225.694 9.462C226.077 9.154 226.534 8.92067 227.066 8.762C227.608 8.594 228.172 8.51 228.76 8.51C229.778 8.51 230.562 8.75733 231.112 9.252C231.663 9.74667 231.938 10.5027 231.938 11.52V16H230.664ZM228.228 16.084C227.678 16.084 227.192 15.9907 226.772 15.804C226.362 15.6173 226.044 15.3607 225.82 15.034C225.596 14.698 225.484 14.32 225.484 13.9C225.484 13.4987 225.578 13.1347 225.764 12.808C225.96 12.4813 226.273 12.22 226.702 12.024C227.141 11.828 227.729 11.73 228.466 11.73H230.818V12.696H228.522C227.85 12.696 227.398 12.808 227.164 13.032C226.931 13.256 226.814 13.5267 226.814 13.844C226.814 14.208 226.959 14.502 227.248 14.726C227.538 14.9407 227.939 15.048 228.452 15.048C228.956 15.048 229.395 14.936 229.768 14.712C230.151 14.488 230.426 14.1613 230.594 13.732L230.86 14.656C230.683 15.0947 230.37 15.4447 229.922 15.706C229.474 15.958 228.91 16.084 228.228 16.084ZM238.359 16.084C237.725 16.084 237.151 15.944 236.637 15.664C236.133 15.3747 235.732 14.95 235.433 14.39C235.144 13.83 234.999 13.13 234.999 12.29C234.999 11.45 235.149 10.75 235.447 10.19C235.755 9.63 236.161 9.21 236.665 8.93C237.179 8.65 237.743 8.51 238.359 8.51C239.087 8.51 239.731 8.66867 240.291 8.986C240.851 9.30333 241.295 9.74667 241.621 10.316C241.948 10.876 242.111 11.534 242.111 12.29C242.111 13.046 241.948 13.7087 241.621 14.278C241.295 14.8473 240.851 15.2907 240.291 15.608C239.731 15.9253 239.087 16.084 238.359 16.084ZM234.425 16V5.612H235.769V10.554L235.629 12.276L235.713 13.998V16H234.425ZM238.247 14.908C238.723 14.908 239.148 14.8007 239.521 14.586C239.904 14.3713 240.203 14.068 240.417 13.676C240.641 13.2747 240.753 12.8127 240.753 12.29C240.753 11.758 240.641 11.3007 240.417 10.918C240.203 10.526 239.904 10.2227 239.521 10.008C239.148 9.79333 238.723 9.686 238.247 9.686C237.781 9.686 237.356 9.79333 236.973 10.008C236.6 10.2227 236.301 10.526 236.077 10.918C235.863 11.3007 235.755 11.758 235.755 12.29C235.755 12.8127 235.863 13.2747 236.077 13.676C236.301 14.068 236.6 14.3713 236.973 14.586C237.356 14.8007 237.781 14.908 238.247 14.908ZM246.776 18.8C246.468 18.8 246.174 18.7627 245.894 18.688C245.605 18.6133 245.362 18.5013 245.166 18.352L245.6 17.316C245.88 17.5493 246.244 17.666 246.692 17.666C247.047 17.666 247.317 17.554 247.504 17.33C247.7 17.1153 247.798 16.7933 247.798 16.364V8.58H249.142V16.336C249.142 17.092 248.937 17.6893 248.526 18.128C248.125 18.576 247.541 18.8 246.776 18.8ZM248.47 7.152C248.209 7.152 247.989 7.068 247.812 6.9C247.644 6.732 247.56 6.52667 247.56 6.284C247.56 6.032 247.644 5.822 247.812 5.654C247.989 5.486 248.209 5.402 248.47 5.402C248.731 5.402 248.946 5.486 249.114 5.654C249.291 5.81267 249.38 6.01333 249.38 6.256C249.38 6.508 249.296 6.72267 249.128 6.9C248.96 7.068 248.741 7.152 248.47 7.152ZM256.313 16V14.432L256.243 14.138V11.464C256.243 10.8947 256.075 10.456 255.739 10.148C255.412 9.83067 254.917 9.672 254.255 9.672C253.816 9.672 253.387 9.74667 252.967 9.896C252.547 10.036 252.192 10.2273 251.903 10.47L251.343 9.462C251.725 9.154 252.183 8.92067 252.715 8.762C253.256 8.594 253.821 8.51 254.409 8.51C255.426 8.51 256.21 8.75733 256.761 9.252C257.311 9.74667 257.587 10.5027 257.587 11.52V16H256.313ZM253.877 16.084C253.326 16.084 252.841 15.9907 252.421 15.804C252.01 15.6173 251.693 15.3607 251.469 15.034C251.245 14.698 251.133 14.32 251.133 13.9C251.133 13.4987 251.226 13.1347 251.413 12.808C251.609 12.4813 251.921 12.22 252.351 12.024C252.789 11.828 253.377 11.73 254.115 11.73H256.467V12.696H254.171C253.499 12.696 253.046 12.808 252.813 13.032C252.579 13.256 252.463 13.5267 252.463 13.844C252.463 14.208 252.607 14.502 252.897 14.726C253.186 14.9407 253.587 15.048 254.101 15.048C254.605 15.048 255.043 14.936 255.417 14.712C255.799 14.488 256.075 14.1613 256.243 13.732L256.509 14.656C256.331 15.0947 256.019 15.4447 255.571 15.706C255.123 15.958 254.558 16.084 253.877 16.084ZM269.356 8.51C269.953 8.51 270.48 8.62667 270.938 8.86C271.395 9.09333 271.75 9.448 272.002 9.924C272.263 10.4 272.394 11.002 272.394 11.73V16H271.05V11.884C271.05 11.1653 270.882 10.624 270.546 10.26C270.21 9.896 269.738 9.714 269.132 9.714C268.684 9.714 268.292 9.80733 267.956 9.994C267.62 10.1807 267.358 10.456 267.172 10.82C266.994 11.184 266.906 11.6367 266.906 12.178V16H265.562V11.884C265.562 11.1653 265.394 10.624 265.058 10.26C264.731 9.896 264.26 9.714 263.644 9.714C263.205 9.714 262.818 9.80733 262.482 9.994C262.146 10.1807 261.884 10.456 261.698 10.82C261.511 11.184 261.418 11.6367 261.418 12.178V16H260.074V8.58H261.362V10.554L261.152 10.05C261.385 9.56467 261.744 9.18667 262.23 8.916C262.715 8.64533 263.28 8.51 263.924 8.51C264.633 8.51 265.244 8.68733 265.758 9.042C266.271 9.38733 266.607 9.91467 266.766 10.624L266.22 10.4C266.444 9.83067 266.836 9.37333 267.396 9.028C267.956 8.68267 268.609 8.51 269.356 8.51ZM277.989 16.084C277.354 16.084 276.794 15.9673 276.309 15.734C275.833 15.5007 275.459 15.146 275.189 14.67C274.927 14.1847 274.797 13.578 274.797 12.85V8.58H276.141V12.696C276.141 13.424 276.313 13.97 276.659 14.334C277.013 14.698 277.508 14.88 278.143 14.88C278.609 14.88 279.015 14.7867 279.361 14.6C279.706 14.404 279.972 14.124 280.159 13.76C280.345 13.3867 280.439 12.9387 280.439 12.416V8.58H281.783V16H280.509V13.998L280.719 14.53C280.476 15.0247 280.112 15.4073 279.627 15.678C279.141 15.9487 278.595 16.084 277.989 16.084ZM288.303 8.51C288.91 8.51 289.442 8.62667 289.899 8.86C290.366 9.09333 290.73 9.448 290.991 9.924C291.253 10.4 291.383 11.002 291.383 11.73V16H290.039V11.884C290.039 11.1653 289.862 10.624 289.507 10.26C289.162 9.896 288.672 9.714 288.037 9.714C287.561 9.714 287.146 9.80733 286.791 9.994C286.437 10.1807 286.161 10.456 285.965 10.82C285.779 11.184 285.685 11.6367 285.685 12.178V16H284.341V8.58H285.629V10.582L285.419 10.05C285.662 9.56467 286.035 9.18667 286.539 8.916C287.043 8.64533 287.631 8.51 288.303 8.51ZM293.339 18.072L294.039 15.244L294.221 16.056C293.95 16.056 293.721 15.972 293.535 15.804C293.357 15.636 293.269 15.4073 293.269 15.118C293.269 14.838 293.357 14.6093 293.535 14.432C293.721 14.2547 293.945 14.166 294.207 14.166C294.477 14.166 294.697 14.2593 294.865 14.446C295.033 14.6233 295.117 14.8473 295.117 15.118C295.117 15.2113 295.107 15.3047 295.089 15.398C295.079 15.482 295.056 15.5847 295.019 15.706C294.991 15.818 294.944 15.958 294.879 16.126L294.221 18.072H293.339ZM300.802 16V8.58H302.146V16H300.802ZM301.474 7.152C301.213 7.152 300.994 7.068 300.816 6.9C300.648 6.732 300.564 6.52667 300.564 6.284C300.564 6.032 300.648 5.822 300.816 5.654C300.994 5.486 301.213 5.402 301.474 5.402C301.736 5.402 301.95 5.486 302.118 5.654C302.296 5.81267 302.384 6.01333 302.384 6.256C302.384 6.508 302.3 6.72267 302.132 6.9C301.964 7.068 301.745 7.152 301.474 7.152ZM307.946 16.084C307.19 16.084 306.514 15.9207 305.916 15.594C305.328 15.2673 304.866 14.8193 304.53 14.25C304.194 13.6807 304.026 13.0273 304.026 12.29C304.026 11.5527 304.194 10.8993 304.53 10.33C304.866 9.76067 305.328 9.31733 305.916 9C306.514 8.67333 307.19 8.51 307.946 8.51C308.618 8.51 309.216 8.64533 309.738 8.916C310.27 9.17733 310.681 9.56933 310.97 10.092L309.948 10.75C309.706 10.386 309.407 10.12 309.052 9.952C308.707 9.77467 308.334 9.686 307.932 9.686C307.447 9.686 307.013 9.79333 306.63 10.008C306.248 10.2227 305.944 10.526 305.72 10.918C305.496 11.3007 305.384 11.758 305.384 12.29C305.384 12.822 305.496 13.284 305.72 13.676C305.944 14.068 306.248 14.3713 306.63 14.586C307.013 14.8007 307.447 14.908 307.932 14.908C308.334 14.908 308.707 14.824 309.052 14.656C309.407 14.4787 309.706 14.208 309.948 13.844L310.97 14.488C310.681 15.0013 310.27 15.398 309.738 15.678C309.216 15.9487 308.618 16.084 307.946 16.084ZM315.905 16.084C315.112 16.084 314.412 15.9207 313.805 15.594C313.208 15.2673 312.741 14.8193 312.405 14.25C312.078 13.6807 311.915 13.0273 311.915 12.29C311.915 11.5527 312.074 10.8993 312.391 10.33C312.718 9.76067 313.161 9.31733 313.721 9C314.29 8.67333 314.93 8.51 315.639 8.51C316.358 8.51 316.992 8.66867 317.543 8.986C318.094 9.30333 318.523 9.75133 318.831 10.33C319.148 10.8993 319.307 11.5667 319.307 12.332C319.307 12.388 319.302 12.4533 319.293 12.528C319.293 12.6027 319.288 12.6727 319.279 12.738H312.965V11.772H318.579L318.033 12.108C318.042 11.632 317.944 11.2073 317.739 10.834C317.534 10.4607 317.249 10.1713 316.885 9.966C316.53 9.75133 316.115 9.644 315.639 9.644C315.172 9.644 314.757 9.75133 314.393 9.966C314.029 10.1713 313.744 10.4653 313.539 10.848C313.334 11.2213 313.231 11.6507 313.231 12.136V12.36C313.231 12.8547 313.343 13.298 313.567 13.69C313.8 14.0727 314.122 14.3713 314.533 14.586C314.944 14.8007 315.415 14.908 315.947 14.908C316.386 14.908 316.782 14.8333 317.137 14.684C317.501 14.5347 317.818 14.3107 318.089 14.012L318.831 14.88C318.495 15.272 318.075 15.5707 317.571 15.776C317.076 15.9813 316.521 16.084 315.905 16.084ZM328.167 16.084C327.411 16.084 326.735 15.9207 326.137 15.594C325.549 15.2673 325.087 14.8193 324.751 14.25C324.415 13.6807 324.247 13.0273 324.247 12.29C324.247 11.5527 324.415 10.8993 324.751 10.33C325.087 9.76067 325.549 9.31733 326.137 9C326.735 8.67333 327.411 8.51 328.167 8.51C328.839 8.51 329.437 8.64533 329.959 8.916C330.491 9.17733 330.902 9.56933 331.191 10.092L330.169 10.75C329.927 10.386 329.628 10.12 329.273 9.952C328.928 9.77467 328.555 9.686 328.153 9.686C327.668 9.686 327.234 9.79333 326.851 10.008C326.469 10.2227 326.165 10.526 325.941 10.918C325.717 11.3007 325.605 11.758 325.605 12.29C325.605 12.822 325.717 13.284 325.941 13.676C326.165 14.068 326.469 14.3713 326.851 14.586C327.234 14.8007 327.668 14.908 328.153 14.908C328.555 14.908 328.928 14.824 329.273 14.656C329.628 14.4787 329.927 14.208 330.169 13.844L331.191 14.488C330.902 15.0013 330.491 15.398 329.959 15.678C329.437 15.9487 328.839 16.084 328.167 16.084ZM332.931 16V8.58H334.219V10.596L334.093 10.092C334.299 9.57867 334.644 9.18667 335.129 8.916C335.615 8.64533 336.212 8.51 336.921 8.51V9.812C336.865 9.80267 336.809 9.798 336.753 9.798C336.707 9.798 336.66 9.798 336.613 9.798C335.895 9.798 335.325 10.0127 334.905 10.442C334.485 10.8713 334.275 11.492 334.275 12.304V16H332.931ZM341.813 16.084C341.02 16.084 340.32 15.9207 339.713 15.594C339.116 15.2673 338.649 14.8193 338.313 14.25C337.987 13.6807 337.823 13.0273 337.823 12.29C337.823 11.5527 337.982 10.8993 338.299 10.33C338.626 9.76067 339.069 9.31733 339.629 9C340.199 8.67333 340.838 8.51 341.547 8.51C342.266 8.51 342.901 8.66867 343.451 8.986C344.002 9.30333 344.431 9.75133 344.739 10.33C345.057 10.8993 345.215 11.5667 345.215 12.332C345.215 12.388 345.211 12.4533 345.201 12.528C345.201 12.6027 345.197 12.6727 345.187 12.738H338.873V11.772H344.487L343.941 12.108C343.951 11.632 343.853 11.2073 343.647 10.834C343.442 10.4607 343.157 10.1713 342.793 9.966C342.439 9.75133 342.023 9.644 341.547 9.644C341.081 9.644 340.665 9.75133 340.301 9.966C339.937 10.1713 339.653 10.4653 339.447 10.848C339.242 11.2213 339.139 11.6507 339.139 12.136V12.36C339.139 12.8547 339.251 13.298 339.475 13.69C339.709 14.0727 340.031 14.3713 340.441 14.586C340.852 14.8007 341.323 14.908 341.855 14.908C342.294 14.908 342.691 14.8333 343.045 14.684C343.409 14.5347 343.727 14.3107 343.997 14.012L344.739 14.88C344.403 15.272 343.983 15.5707 343.479 15.776C342.985 15.9813 342.429 16.084 341.813 16.084ZM351.483 16V14.432L351.413 14.138V11.464C351.413 10.8947 351.245 10.456 350.909 10.148C350.582 9.83067 350.087 9.672 349.425 9.672C348.986 9.672 348.557 9.74667 348.137 9.896C347.717 10.036 347.362 10.2273 347.073 10.47L346.513 9.462C346.895 9.154 347.353 8.92067 347.885 8.762C348.426 8.594 348.991 8.51 349.579 8.51C350.596 8.51 351.38 8.75733 351.931 9.252C352.481 9.74667 352.757 10.5027 352.757 11.52V16H351.483ZM349.047 16.084C348.496 16.084 348.011 15.9907 347.591 15.804C347.18 15.6173 346.863 15.3607 346.639 15.034C346.415 14.698 346.303 14.32 346.303 13.9C346.303 13.4987 346.396 13.1347 346.583 12.808C346.779 12.4813 347.091 12.22 347.521 12.024C347.959 11.828 348.547 11.73 349.285 11.73H351.637V12.696H349.341C348.669 12.696 348.216 12.808 347.983 13.032C347.749 13.256 347.633 13.5267 347.633 13.844C347.633 14.208 347.777 14.502 348.067 14.726C348.356 14.9407 348.757 15.048 349.271 15.048C349.775 15.048 350.213 14.936 350.587 14.712C350.969 14.488 351.245 14.1613 351.413 13.732L351.679 14.656C351.501 15.0947 351.189 15.4447 350.741 15.706C350.293 15.958 349.728 16.084 349.047 16.084ZM364.526 8.51C365.123 8.51 365.65 8.62667 366.108 8.86C366.565 9.09333 366.92 9.448 367.172 9.924C367.433 10.4 367.564 11.002 367.564 11.73V16H366.22V11.884C366.22 11.1653 366.052 10.624 365.716 10.26C365.38 9.896 364.908 9.714 364.302 9.714C363.854 9.714 363.462 9.80733 363.126 9.994C362.79 10.1807 362.528 10.456 362.342 10.82C362.164 11.184 362.076 11.6367 362.076 12.178V16H360.732V11.884C360.732 11.1653 360.564 10.624 360.228 10.26C359.901 9.896 359.43 9.714 358.814 9.714C358.375 9.714 357.988 9.80733 357.652 9.994C357.316 10.1807 357.054 10.456 356.868 10.82C356.681 11.184 356.588 11.6367 356.588 12.178V16H355.244V8.58H356.532V10.554L356.322 10.05C356.555 9.56467 356.914 9.18667 357.4 8.916C357.885 8.64533 358.45 8.51 359.094 8.51C359.803 8.51 360.414 8.68733 360.928 9.042C361.441 9.38733 361.777 9.91467 361.936 10.624L361.39 10.4C361.614 9.83067 362.006 9.37333 362.566 9.028C363.126 8.68267 363.779 8.51 364.526 8.51ZM369.505 18.072L370.205 15.244L370.387 16.056C370.116 16.056 369.887 15.972 369.701 15.804C369.523 15.636 369.435 15.4073 369.435 15.118C369.435 14.838 369.523 14.6093 369.701 14.432C369.887 14.2547 370.111 14.166 370.373 14.166C370.643 14.166 370.863 14.2593 371.031 14.446C371.199 14.6233 371.283 14.8473 371.283 15.118C371.283 15.2113 371.273 15.3047 371.255 15.398C371.245 15.482 371.222 15.5847 371.185 15.706C371.157 15.818 371.11 15.958 371.045 16.126L370.387 18.072H369.505ZM381.574 16V14.432L381.504 14.138V11.464C381.504 10.8947 381.336 10.456 381 10.148C380.674 9.83067 380.179 9.672 379.516 9.672C379.078 9.672 378.648 9.74667 378.228 9.896C377.808 10.036 377.454 10.2273 377.164 10.47L376.604 9.462C376.987 9.154 377.444 8.92067 377.976 8.762C378.518 8.594 379.082 8.51 379.67 8.51C380.688 8.51 381.472 8.75733 382.022 9.252C382.573 9.74667 382.848 10.5027 382.848 11.52V16H381.574ZM379.138 16.084C378.588 16.084 378.102 15.9907 377.682 15.804C377.272 15.6173 376.954 15.3607 376.73 15.034C376.506 14.698 376.394 14.32 376.394 13.9C376.394 13.4987 376.488 13.1347 376.674 12.808C376.87 12.4813 377.183 12.22 377.612 12.024C378.051 11.828 378.639 11.73 379.376 11.73H381.728V12.696H379.432C378.76 12.696 378.308 12.808 378.074 13.032C377.841 13.256 377.724 13.5267 377.724 13.844C377.724 14.208 377.869 14.502 378.158 14.726C378.448 14.9407 378.849 15.048 379.362 15.048C379.866 15.048 380.305 14.936 380.678 14.712C381.061 14.488 381.336 14.1613 381.504 13.732L381.77 14.656C381.593 15.0947 381.28 15.4447 380.832 15.706C380.384 15.958 379.82 16.084 379.138 16.084ZM389.298 8.51C389.904 8.51 390.436 8.62667 390.894 8.86C391.36 9.09333 391.724 9.448 391.986 9.924C392.247 10.4 392.378 11.002 392.378 11.73V16H391.034V11.884C391.034 11.1653 390.856 10.624 390.502 10.26C390.156 9.896 389.666 9.714 389.032 9.714C388.556 9.714 388.14 9.80733 387.786 9.994C387.431 10.1807 387.156 10.456 386.96 10.82C386.773 11.184 386.68 11.6367 386.68 12.178V16H385.336V8.58H386.624V10.582L386.414 10.05C386.656 9.56467 387.03 9.18667 387.534 8.916C388.038 8.64533 388.626 8.51 389.298 8.51ZM397.931 16.084C397.212 16.084 396.568 15.9253 395.999 15.608C395.439 15.2907 394.995 14.8473 394.669 14.278C394.342 13.7087 394.179 13.046 394.179 12.29C394.179 11.534 394.342 10.876 394.669 10.316C394.995 9.74667 395.439 9.30333 395.999 8.986C396.568 8.66867 397.212 8.51 397.931 8.51C398.556 8.51 399.121 8.65 399.625 8.93C400.129 9.21 400.53 9.63 400.829 10.19C401.137 10.75 401.291 11.45 401.291 12.29C401.291 13.13 401.141 13.83 400.843 14.39C400.553 14.95 400.157 15.3747 399.653 15.664C399.149 15.944 398.575 16.084 397.931 16.084ZM398.043 14.908C398.509 14.908 398.929 14.8007 399.303 14.586C399.685 14.3713 399.984 14.068 400.199 13.676C400.423 13.2747 400.535 12.8127 400.535 12.29C400.535 11.758 400.423 11.3007 400.199 10.918C399.984 10.526 399.685 10.2227 399.303 10.008C398.929 9.79333 398.509 9.686 398.043 9.686C397.567 9.686 397.142 9.79333 396.769 10.008C396.395 10.2227 396.097 10.526 395.873 10.918C395.649 11.3007 395.537 11.758 395.537 12.29C395.537 12.8127 395.649 13.2747 395.873 13.676C396.097 14.068 396.395 14.3713 396.769 14.586C397.142 14.8007 397.567 14.908 398.043 14.908ZM400.577 16V13.998L400.661 12.276L400.521 10.554V5.612H401.865V16H400.577ZM55.3634 37V35.432L55.2934 35.138V32.464C55.2934 31.8947 55.1254 31.456 54.7894 31.148C54.4627 30.8307 53.9681 30.672 53.3054 30.672C52.8667 30.672 52.4374 30.7467 52.0174 30.896C51.5974 31.036 51.2427 31.2273 50.9534 31.47L50.3934 30.462C50.7761 30.154 51.2334 29.9207 51.7654 29.762C52.3067 29.594 52.8714 29.51 53.4594 29.51C54.4767 29.51 55.2607 29.7573 55.8114 30.252C56.3621 30.7467 56.6374 31.5027 56.6374 32.52V37H55.3634ZM52.9274 37.084C52.3767 37.084 51.8914 36.9907 51.4714 36.804C51.0607 36.6173 50.7434 36.3607 50.5194 36.034C50.2954 35.698 50.1834 35.32 50.1834 34.9C50.1834 34.4987 50.2767 34.1347 50.4634 33.808C50.6594 33.4813 50.9721 33.22 51.4014 33.024C51.8401 32.828 52.4281 32.73 53.1654 32.73H55.5174V33.696H53.2214C52.5494 33.696 52.0967 33.808 51.8634 34.032C51.6301 34.256 51.5134 34.5267 51.5134 34.844C51.5134 35.208 51.6581 35.502 51.9474 35.726C52.2367 35.9407 52.6381 36.048 53.1514 36.048C53.6554 36.048 54.0941 35.936 54.4674 35.712C54.8501 35.488 55.1254 35.1613 55.2934 34.732L55.5594 35.656C55.3821 36.0947 55.0694 36.4447 54.6214 36.706C54.1734 36.958 53.6087 37.084 52.9274 37.084ZM61.2526 37.084C60.6366 37.084 60.0486 37 59.4886 36.832C58.9379 36.664 58.5039 36.4587 58.1866 36.216L58.7466 35.152C59.0639 35.3667 59.4559 35.5487 59.9226 35.698C60.3893 35.8473 60.8653 35.922 61.3506 35.922C61.9759 35.922 62.4239 35.8333 62.6946 35.656C62.9746 35.4787 63.1146 35.2313 63.1146 34.914C63.1146 34.6807 63.0306 34.4987 62.8626 34.368C62.6946 34.2373 62.4706 34.1393 62.1906 34.074C61.9199 34.0087 61.6166 33.9527 61.2806 33.906C60.9446 33.85 60.6086 33.7847 60.2726 33.71C59.9366 33.626 59.6286 33.514 59.3486 33.374C59.0686 33.2247 58.8446 33.024 58.6766 32.772C58.5086 32.5107 58.4246 32.1653 58.4246 31.736C58.4246 31.288 58.5506 30.896 58.8026 30.56C59.0546 30.224 59.4093 29.9673 59.8666 29.79C60.3333 29.6033 60.8839 29.51 61.5186 29.51C62.0039 29.51 62.4939 29.5707 62.9886 29.692C63.4926 29.804 63.9033 29.9673 64.2206 30.182L63.6466 31.246C63.3106 31.022 62.9606 30.868 62.5966 30.784C62.2326 30.7 61.8686 30.658 61.5046 30.658C60.9166 30.658 60.4779 30.756 60.1886 30.952C59.8993 31.1387 59.7546 31.3813 59.7546 31.68C59.7546 31.932 59.8386 32.128 60.0066 32.268C60.1839 32.3987 60.4079 32.5013 60.6786 32.576C60.9586 32.6507 61.2666 32.716 61.6026 32.772C61.9386 32.8187 62.2746 32.884 62.6106 32.968C62.9466 33.0427 63.2499 33.15 63.5206 33.29C63.8006 33.43 64.0246 33.626 64.1926 33.878C64.3699 34.13 64.4586 34.466 64.4586 34.886C64.4586 35.334 64.3279 35.7213 64.0666 36.048C63.8053 36.3747 63.4366 36.6313 62.9606 36.818C62.4846 36.9953 61.9153 37.084 61.2526 37.084ZM68.2663 37.084C67.6503 37.084 67.0623 37 66.5023 36.832C65.9516 36.664 65.5176 36.4587 65.2003 36.216L65.7603 35.152C66.0776 35.3667 66.4696 35.5487 66.9363 35.698C67.4029 35.8473 67.8789 35.922 68.3643 35.922C68.9896 35.922 69.4376 35.8333 69.7083 35.656C69.9883 35.4787 70.1283 35.2313 70.1283 34.914C70.1283 34.6807 70.0443 34.4987 69.8763 34.368C69.7083 34.2373 69.4843 34.1393 69.2043 34.074C68.9336 34.0087 68.6303 33.9527 68.2943 33.906C67.9583 33.85 67.6223 33.7847 67.2863 33.71C66.9503 33.626 66.6423 33.514 66.3623 33.374C66.0823 33.2247 65.8583 33.024 65.6903 32.772C65.5223 32.5107 65.4383 32.1653 65.4383 31.736C65.4383 31.288 65.5643 30.896 65.8163 30.56C66.0683 30.224 66.4229 29.9673 66.8803 29.79C67.3469 29.6033 67.8976 29.51 68.5323 29.51C69.0176 29.51 69.5076 29.5707 70.0023 29.692C70.5063 29.804 70.9169 29.9673 71.2343 30.182L70.6603 31.246C70.3243 31.022 69.9743 30.868 69.6103 30.784C69.2463 30.7 68.8823 30.658 68.5183 30.658C67.9303 30.658 67.4916 30.756 67.2023 30.952C66.9129 31.1387 66.7683 31.3813 66.7683 31.68C66.7683 31.932 66.8523 32.128 67.0203 32.268C67.1976 32.3987 67.4216 32.5013 67.6923 32.576C67.9723 32.6507 68.2803 32.716 68.6163 32.772C68.9523 32.8187 69.2883 32.884 69.6243 32.968C69.9603 33.0427 70.2636 33.15 70.5343 33.29C70.8143 33.43 71.0383 33.626 71.2063 33.878C71.3836 34.13 71.4723 34.466 71.4723 34.886C71.4723 35.334 71.3416 35.7213 71.0803 36.048C70.8189 36.3747 70.4503 36.6313 69.9743 36.818C69.4983 36.9953 68.9289 37.084 68.2663 37.084ZM76.3299 37.084C75.5833 37.084 74.9206 36.9207 74.3419 36.594C73.7633 36.2673 73.3059 35.8193 72.9699 35.25C72.6339 34.6713 72.4659 34.018 72.4659 33.29C72.4659 32.5527 72.6339 31.8993 72.9699 31.33C73.3059 30.7607 73.7633 30.3173 74.3419 30C74.9206 29.6733 75.5833 29.51 76.3299 29.51C77.0673 29.51 77.7253 29.6733 78.3039 30C78.8919 30.3173 79.3493 30.7607 79.6759 31.33C80.0119 31.89 80.1799 32.5433 80.1799 33.29C80.1799 34.0273 80.0119 34.6807 79.6759 35.25C79.3493 35.8193 78.8919 36.2673 78.3039 36.594C77.7253 36.9207 77.0673 37.084 76.3299 37.084ZM76.3299 35.908C76.8059 35.908 77.2306 35.8007 77.6039 35.586C77.9866 35.3713 78.2853 35.068 78.4999 34.676C78.7146 34.2747 78.8219 33.8127 78.8219 33.29C78.8219 32.758 78.7146 32.3007 78.4999 31.918C78.2853 31.526 77.9866 31.2227 77.6039 31.008C77.2306 30.7933 76.8059 30.686 76.3299 30.686C75.8539 30.686 75.4293 30.7933 75.0559 31.008C74.6826 31.2227 74.3839 31.526 74.1599 31.918C73.9359 32.3007 73.8239 32.758 73.8239 33.29C73.8239 33.8127 73.9359 34.2747 74.1599 34.676C74.3839 35.068 74.6826 35.3713 75.0559 35.586C75.4293 35.8007 75.8539 35.908 76.3299 35.908ZM82.0386 37V29.58H83.3266V31.596L83.2006 31.092C83.406 30.5787 83.7513 30.1867 84.2366 29.916C84.722 29.6453 85.3193 29.51 86.0286 29.51V30.812C85.9726 30.8027 85.9166 30.798 85.8606 30.798C85.814 30.798 85.7673 30.798 85.7206 30.798C85.002 30.798 84.4326 31.0127 84.0126 31.442C83.5926 31.8713 83.3826 32.492 83.3826 33.304V37H82.0386ZM90.5339 37.084C89.7872 37.084 89.2086 36.8833 88.7979 36.482C88.3872 36.0807 88.1819 35.5067 88.1819 34.76V27.956H89.5259V34.704C89.5259 35.1053 89.6239 35.4133 89.8199 35.628C90.0252 35.8427 90.3146 35.95 90.6879 35.95C91.1079 35.95 91.4579 35.8333 91.7379 35.6L92.1579 36.566C91.9526 36.7433 91.7052 36.874 91.4159 36.958C91.1359 37.042 90.8419 37.084 90.5339 37.084ZM86.9219 30.686V29.58H91.6539V30.686H86.9219ZM96.8407 37.084C96.0474 37.084 95.3474 36.9207 94.7407 36.594C94.1434 36.2673 93.6767 35.8193 93.3407 35.25C93.014 34.6807 92.8507 34.0273 92.8507 33.29C92.8507 32.5527 93.0094 31.8993 93.3267 31.33C93.6534 30.7607 94.0967 30.3173 94.6567 30C95.226 29.6733 95.8654 29.51 96.5747 29.51C97.2934 29.51 97.928 29.6687 98.4787 29.986C99.0294 30.3033 99.4587 30.7513 99.7667 31.33C100.084 31.8993 100.243 32.5667 100.243 33.332C100.243 33.388 100.238 33.4533 100.229 33.528C100.229 33.6027 100.224 33.6727 100.215 33.738H93.9007V32.772H99.5147L98.9687 33.108C98.978 32.632 98.88 32.2073 98.6747 31.834C98.4694 31.4607 98.1847 31.1713 97.8207 30.966C97.466 30.7513 97.0507 30.644 96.5747 30.644C96.108 30.644 95.6927 30.7513 95.3287 30.966C94.9647 31.1713 94.68 31.4653 94.4747 31.848C94.2694 32.2213 94.1667 32.6507 94.1667 33.136V33.36C94.1667 33.8547 94.2787 34.298 94.5027 34.69C94.736 35.0727 95.058 35.3713 95.4687 35.586C95.8794 35.8007 96.3507 35.908 96.8827 35.908C97.3214 35.908 97.718 35.8333 98.0727 35.684C98.4367 35.5347 98.754 35.3107 99.0247 35.012L99.7667 35.88C99.4307 36.272 99.0107 36.5707 98.5067 36.776C98.012 36.9813 97.4567 37.084 96.8407 37.084ZM105.175 37.084C104.456 37.084 103.812 36.9253 103.243 36.608C102.683 36.2907 102.24 35.8473 101.913 35.278C101.586 34.7087 101.423 34.046 101.423 33.29C101.423 32.534 101.586 31.876 101.913 31.316C102.24 30.7467 102.683 30.3033 103.243 29.986C103.812 29.6687 104.456 29.51 105.175 29.51C105.8 29.51 106.365 29.65 106.869 29.93C107.373 30.21 107.774 30.63 108.073 31.19C108.381 31.75 108.535 32.45 108.535 33.29C108.535 34.13 108.386 34.83 108.087 35.39C107.798 35.95 107.401 36.3747 106.897 36.664C106.393 36.944 105.819 37.084 105.175 37.084ZM105.287 35.908C105.754 35.908 106.174 35.8007 106.547 35.586C106.93 35.3713 107.228 35.068 107.443 34.676C107.667 34.2747 107.779 33.8127 107.779 33.29C107.779 32.758 107.667 32.3007 107.443 31.918C107.228 31.526 106.93 31.2227 106.547 31.008C106.174 30.7933 105.754 30.686 105.287 30.686C104.811 30.686 104.386 30.7933 104.013 31.008C103.64 31.2227 103.341 31.526 103.117 31.918C102.893 32.3007 102.781 32.758 102.781 33.29C102.781 33.8127 102.893 34.2747 103.117 34.676C103.341 35.068 103.64 35.3713 104.013 35.586C104.386 35.8007 104.811 35.908 105.287 35.908ZM107.821 37V34.998L107.905 33.276L107.765 31.554V26.612H109.109V37H107.821ZM118.478 37.084C117.759 37.084 117.115 36.9253 116.546 36.608C115.986 36.2907 115.542 35.8473 115.216 35.278C114.889 34.7087 114.726 34.046 114.726 33.29C114.726 32.534 114.889 31.876 115.216 31.316C115.542 30.7467 115.986 30.3033 116.546 29.986C117.115 29.6687 117.759 29.51 118.478 29.51C119.103 29.51 119.668 29.65 120.172 29.93C120.676 30.21 121.077 30.63 121.376 31.19C121.684 31.75 121.838 32.45 121.838 33.29C121.838 34.13 121.688 34.83 121.39 35.39C121.1 35.95 120.704 36.3747 120.2 36.664C119.696 36.944 119.122 37.084 118.478 37.084ZM118.59 35.908C119.056 35.908 119.476 35.8007 119.85 35.586C120.232 35.3713 120.531 35.068 120.746 34.676C120.97 34.2747 121.082 33.8127 121.082 33.29C121.082 32.758 120.97 32.3007 120.746 31.918C120.531 31.526 120.232 31.2227 119.85 31.008C119.476 30.7933 119.056 30.686 118.59 30.686C118.114 30.686 117.689 30.7933 117.316 31.008C116.942 31.2227 116.644 31.526 116.42 31.918C116.196 32.3007 116.084 32.758 116.084 33.29C116.084 33.8127 116.196 34.2747 116.42 34.676C116.644 35.068 116.942 35.3713 117.316 35.586C117.689 35.8007 118.114 35.908 118.59 35.908ZM121.124 37V34.998L121.208 33.276L121.068 31.554V26.612H122.412V37H121.124ZM128.259 37.084C127.465 37.084 126.765 36.9207 126.159 36.594C125.561 36.2673 125.095 35.8193 124.759 35.25C124.432 34.6807 124.269 34.0273 124.269 33.29C124.269 32.5527 124.427 31.8993 124.745 31.33C125.071 30.7607 125.515 30.3173 126.075 30C126.644 29.6733 127.283 29.51 127.993 29.51C128.711 29.51 129.346 29.6687 129.897 29.986C130.447 30.3033 130.877 30.7513 131.185 31.33C131.502 31.8993 131.661 32.5667 131.661 33.332C131.661 33.388 131.656 33.4533 131.647 33.528C131.647 33.6027 131.642 33.6727 131.633 33.738H125.319V32.772H130.933L130.387 33.108C130.396 32.632 130.298 32.2073 130.093 31.834C129.887 31.4607 129.603 31.1713 129.239 30.966C128.884 30.7513 128.469 30.644 127.993 30.644C127.526 30.644 127.111 30.7513 126.747 30.966C126.383 31.1713 126.098 31.4653 125.893 31.848C125.687 32.2213 125.585 32.6507 125.585 33.136V33.36C125.585 33.8547 125.697 34.298 125.921 34.69C126.154 35.0727 126.476 35.3713 126.887 35.586C127.297 35.8007 127.769 35.908 128.301 35.908C128.739 35.908 129.136 35.8333 129.491 35.684C129.855 35.5347 130.172 35.3107 130.443 35.012L131.185 35.88C130.849 36.272 130.429 36.5707 129.925 36.776C129.43 36.9813 128.875 37.084 128.259 37.084ZM135.655 37.084C135.039 37.084 134.451 37 133.891 36.832C133.34 36.664 132.906 36.4587 132.589 36.216L133.149 35.152C133.466 35.3667 133.858 35.5487 134.325 35.698C134.792 35.8473 135.268 35.922 135.753 35.922C136.378 35.922 136.826 35.8333 137.097 35.656C137.377 35.4787 137.517 35.2313 137.517 34.914C137.517 34.6807 137.433 34.4987 137.265 34.368C137.097 34.2373 136.873 34.1393 136.593 34.074C136.322 34.0087 136.019 33.9527 135.683 33.906C135.347 33.85 135.011 33.7847 134.675 33.71C134.339 33.626 134.031 33.514 133.751 33.374C133.471 33.2247 133.247 33.024 133.079 32.772C132.911 32.5107 132.827 32.1653 132.827 31.736C132.827 31.288 132.953 30.896 133.205 30.56C133.457 30.224 133.812 29.9673 134.269 29.79C134.736 29.6033 135.286 29.51 135.921 29.51C136.406 29.51 136.896 29.5707 137.391 29.692C137.895 29.804 138.306 29.9673 138.623 30.182L138.049 31.246C137.713 31.022 137.363 30.868 136.999 30.784C136.635 30.7 136.271 30.658 135.907 30.658C135.319 30.658 134.88 30.756 134.591 30.952C134.302 31.1387 134.157 31.3813 134.157 31.68C134.157 31.932 134.241 32.128 134.409 32.268C134.586 32.3987 134.81 32.5013 135.081 32.576C135.361 32.6507 135.669 32.716 136.005 32.772C136.341 32.8187 136.677 32.884 137.013 32.968C137.349 33.0427 137.652 33.15 137.923 33.29C138.203 33.43 138.427 33.626 138.595 33.878C138.772 34.13 138.861 34.466 138.861 34.886C138.861 35.334 138.73 35.7213 138.469 36.048C138.208 36.3747 137.839 36.6313 137.363 36.818C136.887 36.9953 136.318 37.084 135.655 37.084ZM142.669 37.084C142.053 37.084 141.465 37 140.905 36.832C140.354 36.664 139.92 36.4587 139.603 36.216L140.163 35.152C140.48 35.3667 140.872 35.5487 141.339 35.698C141.805 35.8473 142.281 35.922 142.767 35.922C143.392 35.922 143.84 35.8333 144.111 35.656C144.391 35.4787 144.531 35.2313 144.531 34.914C144.531 34.6807 144.447 34.4987 144.279 34.368C144.111 34.2373 143.887 34.1393 143.607 34.074C143.336 34.0087 143.033 33.9527 142.697 33.906C142.361 33.85 142.025 33.7847 141.689 33.71C141.353 33.626 141.045 33.514 140.765 33.374C140.485 33.2247 140.261 33.024 140.093 32.772C139.925 32.5107 139.841 32.1653 139.841 31.736C139.841 31.288 139.967 30.896 140.219 30.56C140.471 30.224 140.825 29.9673 141.283 29.79C141.749 29.6033 142.3 29.51 142.935 29.51C143.42 29.51 143.91 29.5707 144.405 29.692C144.909 29.804 145.319 29.9673 145.637 30.182L145.063 31.246C144.727 31.022 144.377 30.868 144.013 30.784C143.649 30.7 143.285 30.658 142.921 30.658C142.333 30.658 141.894 30.756 141.605 30.952C141.315 31.1387 141.171 31.3813 141.171 31.68C141.171 31.932 141.255 32.128 141.423 32.268C141.6 32.3987 141.824 32.5013 142.095 32.576C142.375 32.6507 142.683 32.716 143.019 32.772C143.355 32.8187 143.691 32.884 144.027 32.968C144.363 33.0427 144.666 33.15 144.937 33.29C145.217 33.43 145.441 33.626 145.609 33.878C145.786 34.13 145.875 34.466 145.875 34.886C145.875 35.334 145.744 35.7213 145.483 36.048C145.221 36.3747 144.853 36.6313 144.377 36.818C143.901 36.9953 143.331 37.084 142.669 37.084ZM150.858 37.084C150.065 37.084 149.365 36.9207 148.758 36.594C148.161 36.2673 147.694 35.8193 147.358 35.25C147.032 34.6807 146.868 34.0273 146.868 33.29C146.868 32.5527 147.027 31.8993 147.344 31.33C147.671 30.7607 148.114 30.3173 148.674 30C149.244 29.6733 149.883 29.51 150.592 29.51C151.311 29.51 151.946 29.6687 152.496 29.986C153.047 30.3033 153.476 30.7513 153.784 31.33C154.102 31.8993 154.26 32.5667 154.26 33.332C154.26 33.388 154.256 33.4533 154.246 33.528C154.246 33.6027 154.242 33.6727 154.232 33.738H147.918V32.772H153.532L152.986 33.108C152.996 32.632 152.898 32.2073 152.692 31.834C152.487 31.4607 152.202 31.1713 151.838 30.966C151.484 30.7513 151.068 30.644 150.592 30.644C150.126 30.644 149.71 30.7513 149.346 30.966C148.982 31.1713 148.698 31.4653 148.492 31.848C148.287 32.2213 148.184 32.6507 148.184 33.136V33.36C148.184 33.8547 148.296 34.298 148.52 34.69C148.754 35.0727 149.076 35.3713 149.486 35.586C149.897 35.8007 150.368 35.908 150.9 35.908C151.339 35.908 151.736 35.8333 152.09 35.684C152.454 35.5347 152.772 35.3107 153.042 35.012L153.784 35.88C153.448 36.272 153.028 36.5707 152.524 36.776C152.03 36.9813 151.474 37.084 150.858 37.084ZM156.127 37V29.58H157.415V31.596L157.289 31.092C157.494 30.5787 157.839 30.1867 158.325 29.916C158.81 29.6453 159.407 29.51 160.117 29.51V30.812C160.061 30.8027 160.005 30.798 159.949 30.798C159.902 30.798 159.855 30.798 159.809 30.798C159.09 30.798 158.521 31.0127 158.101 31.442C157.681 31.8713 157.471 32.492 157.471 33.304V37H156.127ZM164.622 37.084C163.875 37.084 163.296 36.8833 162.886 36.482C162.475 36.0807 162.27 35.5067 162.27 34.76V27.956H163.614V34.704C163.614 35.1053 163.712 35.4133 163.908 35.628C164.113 35.8427 164.402 35.95 164.776 35.95C165.196 35.95 165.546 35.8333 165.826 35.6L166.246 36.566C166.04 36.7433 165.793 36.874 165.504 36.958C165.224 37.042 164.93 37.084 164.622 37.084ZM161.01 30.686V29.58H165.742V30.686H161.01ZM169.999 37.084C169.383 37.084 168.795 37 168.235 36.832C167.684 36.664 167.25 36.4587 166.933 36.216L167.493 35.152C167.81 35.3667 168.202 35.5487 168.669 35.698C169.135 35.8473 169.611 35.922 170.097 35.922C170.722 35.922 171.17 35.8333 171.441 35.656C171.721 35.4787 171.861 35.2313 171.861 34.914C171.861 34.6807 171.777 34.4987 171.609 34.368C171.441 34.2373 171.217 34.1393 170.937 34.074C170.666 34.0087 170.363 33.9527 170.027 33.906C169.691 33.85 169.355 33.7847 169.019 33.71C168.683 33.626 168.375 33.514 168.095 33.374C167.815 33.2247 167.591 33.024 167.423 32.772C167.255 32.5107 167.171 32.1653 167.171 31.736C167.171 31.288 167.297 30.896 167.549 30.56C167.801 30.224 168.155 29.9673 168.613 29.79C169.079 29.6033 169.63 29.51 170.265 29.51C170.75 29.51 171.24 29.5707 171.735 29.692C172.239 29.804 172.649 29.9673 172.967 30.182L172.393 31.246C172.057 31.022 171.707 30.868 171.343 30.784C170.979 30.7 170.615 30.658 170.251 30.658C169.663 30.658 169.224 30.756 168.935 30.952C168.645 31.1387 168.501 31.3813 168.501 31.68C168.501 31.932 168.585 32.128 168.753 32.268C168.93 32.3987 169.154 32.5013 169.425 32.576C169.705 32.6507 170.013 32.716 170.349 32.772C170.685 32.8187 171.021 32.884 171.357 32.968C171.693 33.0427 171.996 33.15 172.267 33.29C172.547 33.43 172.771 33.626 172.939 33.878C173.116 34.13 173.205 34.466 173.205 34.886C173.205 35.334 173.074 35.7213 172.813 36.048C172.551 36.3747 172.183 36.6313 171.707 36.818C171.231 36.9953 170.661 37.084 169.999 37.084ZM180.212 37L177.454 29.58H178.728L181.178 36.3H180.576L183.124 29.58H184.258L186.75 36.3H186.162L188.668 29.58H189.872L187.1 37H185.812L183.474 30.868H183.866L181.5 37H180.212ZM191.236 37V29.58H192.58V37H191.236ZM191.908 28.152C191.647 28.152 191.427 28.068 191.25 27.9C191.082 27.732 190.998 27.5267 190.998 27.284C190.998 27.032 191.082 26.822 191.25 26.654C191.427 26.486 191.647 26.402 191.908 26.402C192.169 26.402 192.384 26.486 192.552 26.654C192.729 26.8127 192.818 27.0133 192.818 27.256C192.818 27.508 192.734 27.7227 192.566 27.9C192.398 28.068 192.179 28.152 191.908 28.152ZM197.694 37.084C196.947 37.084 196.369 36.8833 195.958 36.482C195.547 36.0807 195.342 35.5067 195.342 34.76V27.956H196.686V34.704C196.686 35.1053 196.784 35.4133 196.98 35.628C197.185 35.8427 197.475 35.95 197.848 35.95C198.268 35.95 198.618 35.8333 198.898 35.6L199.318 36.566C199.113 36.7433 198.865 36.874 198.576 36.958C198.296 37.042 198.002 37.084 197.694 37.084ZM194.082 30.686V29.58H198.814V30.686H194.082ZM204.905 29.51C205.512 29.51 206.044 29.6267 206.501 29.86C206.968 30.0933 207.332 30.448 207.593 30.924C207.854 31.4 207.985 32.002 207.985 32.73V37H206.641V32.884C206.641 32.1653 206.464 31.624 206.109 31.26C205.764 30.896 205.274 30.714 204.639 30.714C204.163 30.714 203.748 30.8073 203.393 30.994C203.038 31.1807 202.763 31.456 202.567 31.82C202.38 32.184 202.287 32.6367 202.287 33.178V37H200.943V26.612H202.287V31.582L202.021 31.05C202.264 30.5647 202.637 30.1867 203.141 29.916C203.645 29.6453 204.233 29.51 204.905 29.51ZM217.536 37.084C216.743 37.084 216.043 36.9207 215.436 36.594C214.839 36.2673 214.372 35.8193 214.036 35.25C213.709 34.6807 213.546 34.0273 213.546 33.29C213.546 32.5527 213.705 31.8993 214.022 31.33C214.349 30.7607 214.792 30.3173 215.352 30C215.921 29.6733 216.561 29.51 217.27 29.51C217.989 29.51 218.623 29.6687 219.174 29.986C219.725 30.3033 220.154 30.7513 220.462 31.33C220.779 31.8993 220.938 32.5667 220.938 33.332C220.938 33.388 220.933 33.4533 220.924 33.528C220.924 33.6027 220.919 33.6727 220.91 33.738H214.596V32.772H220.21L219.664 33.108C219.673 32.632 219.575 32.2073 219.37 31.834C219.165 31.4607 218.88 31.1713 218.516 30.966C218.161 30.7513 217.746 30.644 217.27 30.644C216.803 30.644 216.388 30.7513 216.024 30.966C215.66 31.1713 215.375 31.4653 215.17 31.848C214.965 32.2213 214.862 32.6507 214.862 33.136V33.36C214.862 33.8547 214.974 34.298 215.198 34.69C215.431 35.0727 215.753 35.3713 216.164 35.586C216.575 35.8007 217.046 35.908 217.578 35.908C218.017 35.908 218.413 35.8333 218.768 35.684C219.132 35.5347 219.449 35.3107 219.72 35.012L220.462 35.88C220.126 36.272 219.706 36.5707 219.202 36.776C218.707 36.9813 218.152 37.084 217.536 37.084ZM226.766 29.51C227.373 29.51 227.905 29.6267 228.362 29.86C228.829 30.0933 229.193 30.448 229.454 30.924C229.716 31.4 229.846 32.002 229.846 32.73V37H228.502V32.884C228.502 32.1653 228.325 31.624 227.97 31.26C227.625 30.896 227.135 30.714 226.5 30.714C226.024 30.714 225.609 30.8073 225.254 30.994C224.9 31.1807 224.624 31.456 224.428 31.82C224.242 32.184 224.148 32.6367 224.148 33.178V37H222.804V29.58H224.092V31.582L223.882 31.05C224.125 30.5647 224.498 30.1867 225.002 29.916C225.506 29.6453 226.094 29.51 226.766 29.51ZM236.296 29.51C236.902 29.51 237.434 29.6267 237.892 29.86C238.358 30.0933 238.722 30.448 238.984 30.924C239.245 31.4 239.376 32.002 239.376 32.73V37H238.032V32.884C238.032 32.1653 237.854 31.624 237.5 31.26C237.154 30.896 236.664 30.714 236.03 30.714C235.554 30.714 235.138 30.8073 234.784 30.994C234.429 31.1807 234.154 31.456 233.958 31.82C233.771 32.184 233.678 32.6367 233.678 33.178V37H232.334V26.612H233.678V31.582L233.412 31.05C233.654 30.5647 234.028 30.1867 234.532 29.916C235.036 29.6453 235.624 29.51 236.296 29.51ZM246.469 37V35.432L246.399 35.138V32.464C246.399 31.8947 246.231 31.456 245.895 31.148C245.568 30.8307 245.074 30.672 244.411 30.672C243.972 30.672 243.543 30.7467 243.123 30.896C242.703 31.036 242.348 31.2273 242.059 31.47L241.499 30.462C241.882 30.154 242.339 29.9207 242.871 29.762C243.412 29.594 243.977 29.51 244.565 29.51C245.582 29.51 246.366 29.7573 246.917 30.252C247.468 30.7467 247.743 31.5027 247.743 32.52V37H246.469ZM244.033 37.084C243.482 37.084 242.997 36.9907 242.577 36.804C242.166 36.6173 241.849 36.3607 241.625 36.034C241.401 35.698 241.289 35.32 241.289 34.9C241.289 34.4987 241.382 34.1347 241.569 33.808C241.765 33.4813 242.078 33.22 242.507 33.024C242.946 32.828 243.534 32.73 244.271 32.73H246.623V33.696H244.327C243.655 33.696 243.202 33.808 242.969 34.032C242.736 34.256 242.619 34.5267 242.619 34.844C242.619 35.208 242.764 35.502 243.053 35.726C243.342 35.9407 243.744 36.048 244.257 36.048C244.761 36.048 245.2 35.936 245.573 35.712C245.956 35.488 246.231 35.1613 246.399 34.732L246.665 35.656C246.488 36.0947 246.175 36.4447 245.727 36.706C245.279 36.958 244.714 37.084 244.033 37.084ZM254.192 29.51C254.799 29.51 255.331 29.6267 255.788 29.86C256.255 30.0933 256.619 30.448 256.88 30.924C257.141 31.4 257.272 32.002 257.272 32.73V37H255.928V32.884C255.928 32.1653 255.751 31.624 255.396 31.26C255.051 30.896 254.561 30.714 253.926 30.714C253.45 30.714 253.035 30.8073 252.68 30.994C252.325 31.1807 252.05 31.456 251.854 31.82C251.667 32.184 251.574 32.6367 251.574 33.178V37H250.23V29.58H251.518V31.582L251.308 31.05C251.551 30.5647 251.924 30.1867 252.428 29.916C252.932 29.6453 253.52 29.51 254.192 29.51ZM262.993 37.084C262.237 37.084 261.561 36.9207 260.963 36.594C260.375 36.2673 259.913 35.8193 259.577 35.25C259.241 34.6807 259.073 34.0273 259.073 33.29C259.073 32.5527 259.241 31.8993 259.577 31.33C259.913 30.7607 260.375 30.3173 260.963 30C261.561 29.6733 262.237 29.51 262.993 29.51C263.665 29.51 264.263 29.6453 264.785 29.916C265.317 30.1773 265.728 30.5693 266.017 31.092L264.995 31.75C264.753 31.386 264.454 31.12 264.099 30.952C263.754 30.7747 263.381 30.686 262.979 30.686C262.494 30.686 262.06 30.7933 261.677 31.008C261.295 31.2227 260.991 31.526 260.767 31.918C260.543 32.3007 260.431 32.758 260.431 33.29C260.431 33.822 260.543 34.284 260.767 34.676C260.991 35.068 261.295 35.3713 261.677 35.586C262.06 35.8007 262.494 35.908 262.979 35.908C263.381 35.908 263.754 35.824 264.099 35.656C264.454 35.4787 264.753 35.208 264.995 34.844L266.017 35.488C265.728 36.0013 265.317 36.398 264.785 36.678C264.263 36.9487 263.665 37.084 262.993 37.084ZM270.952 37.084C270.159 37.084 269.459 36.9207 268.852 36.594C268.255 36.2673 267.788 35.8193 267.452 35.25C267.125 34.6807 266.962 34.0273 266.962 33.29C266.962 32.5527 267.121 31.8993 267.438 31.33C267.765 30.7607 268.208 30.3173 268.768 30C269.337 29.6733 269.977 29.51 270.686 29.51C271.405 29.51 272.039 29.6687 272.59 29.986C273.141 30.3033 273.57 30.7513 273.878 31.33C274.195 31.8993 274.354 32.5667 274.354 33.332C274.354 33.388 274.349 33.4533 274.34 33.528C274.34 33.6027 274.335 33.6727 274.326 33.738H268.012V32.772H273.626L273.08 33.108C273.089 32.632 272.991 32.2073 272.786 31.834C272.581 31.4607 272.296 31.1713 271.932 30.966C271.577 30.7513 271.162 30.644 270.686 30.644C270.219 30.644 269.804 30.7513 269.44 30.966C269.076 31.1713 268.791 31.4653 268.586 31.848C268.381 32.2213 268.278 32.6507 268.278 33.136V33.36C268.278 33.8547 268.39 34.298 268.614 34.69C268.847 35.0727 269.169 35.3713 269.58 35.586C269.991 35.8007 270.462 35.908 270.994 35.908C271.433 35.908 271.829 35.8333 272.184 35.684C272.548 35.5347 272.865 35.3107 273.136 35.012L273.878 35.88C273.542 36.272 273.122 36.5707 272.618 36.776C272.123 36.9813 271.568 37.084 270.952 37.084ZM279.286 37.084C278.568 37.084 277.924 36.9253 277.354 36.608C276.794 36.2907 276.351 35.8473 276.024 35.278C275.698 34.7087 275.534 34.046 275.534 33.29C275.534 32.534 275.698 31.876 276.024 31.316C276.351 30.7467 276.794 30.3033 277.354 29.986C277.924 29.6687 278.568 29.51 279.286 29.51C279.912 29.51 280.476 29.65 280.98 29.93C281.484 30.21 281.886 30.63 282.184 31.19C282.492 31.75 282.646 32.45 282.646 33.29C282.646 34.13 282.497 34.83 282.198 35.39C281.909 35.95 281.512 36.3747 281.008 36.664C280.504 36.944 279.93 37.084 279.286 37.084ZM279.398 35.908C279.865 35.908 280.285 35.8007 280.658 35.586C281.041 35.3713 281.34 35.068 281.554 34.676C281.778 34.2747 281.89 33.8127 281.89 33.29C281.89 32.758 281.778 32.3007 281.554 31.918C281.34 31.526 281.041 31.2227 280.658 31.008C280.285 30.7933 279.865 30.686 279.398 30.686C278.922 30.686 278.498 30.7933 278.124 31.008C277.751 31.2227 277.452 31.526 277.228 31.918C277.004 32.3007 276.892 32.758 276.892 33.29C276.892 33.8127 277.004 34.2747 277.228 34.676C277.452 35.068 277.751 35.3713 278.124 35.586C278.498 35.8007 278.922 35.908 279.398 35.908ZM281.932 37V34.998L282.016 33.276L281.876 31.554V26.612H283.22V37H281.932ZM293.457 37.084C292.841 37.084 292.276 36.944 291.763 36.664C291.259 36.3747 290.853 35.95 290.545 35.39C290.246 34.83 290.097 34.13 290.097 33.29C290.097 32.45 290.242 31.75 290.531 31.19C290.83 30.63 291.231 30.21 291.735 29.93C292.248 29.65 292.822 29.51 293.457 29.51C294.185 29.51 294.829 29.6687 295.389 29.986C295.949 30.3033 296.392 30.7467 296.719 31.316C297.046 31.876 297.209 32.534 297.209 33.29C297.209 34.046 297.046 34.7087 296.719 35.278C296.392 35.8473 295.949 36.2907 295.389 36.608C294.829 36.9253 294.185 37.084 293.457 37.084ZM289.523 39.716V29.58H290.811V31.582L290.727 33.304L290.867 35.026V39.716H289.523ZM293.345 35.908C293.821 35.908 294.246 35.8007 294.619 35.586C295.002 35.3713 295.3 35.068 295.515 34.676C295.739 34.2747 295.851 33.8127 295.851 33.29C295.851 32.758 295.739 32.3007 295.515 31.918C295.3 31.526 295.002 31.2227 294.619 31.008C294.246 30.7933 293.821 30.686 293.345 30.686C292.878 30.686 292.454 30.7933 292.071 31.008C291.698 31.2227 291.399 31.526 291.175 31.918C290.96 32.3007 290.853 32.758 290.853 33.29C290.853 33.8127 290.96 34.2747 291.175 34.676C291.399 35.068 291.698 35.3713 292.071 35.586C292.454 35.8007 292.878 35.908 293.345 35.908ZM299.066 37V29.58H300.354V31.596L300.228 31.092C300.433 30.5787 300.779 30.1867 301.264 29.916C301.749 29.6453 302.347 29.51 303.056 29.51V30.812C303 30.8027 302.944 30.798 302.888 30.798C302.841 30.798 302.795 30.798 302.748 30.798C302.029 30.798 301.46 31.0127 301.04 31.442C300.62 31.8713 300.41 32.492 300.41 33.304V37H299.066ZM307.948 37.084C307.155 37.084 306.455 36.9207 305.848 36.594C305.251 36.2673 304.784 35.8193 304.448 35.25C304.121 34.6807 303.958 34.0273 303.958 33.29C303.958 32.5527 304.117 31.8993 304.434 31.33C304.761 30.7607 305.204 30.3173 305.764 30C306.333 29.6733 306.973 29.51 307.682 29.51C308.401 29.51 309.035 29.6687 309.586 29.986C310.137 30.3033 310.566 30.7513 310.874 31.33C311.191 31.8993 311.35 32.5667 311.35 33.332C311.35 33.388 311.345 33.4533 311.336 33.528C311.336 33.6027 311.331 33.6727 311.322 33.738H305.008V32.772H310.622L310.076 33.108C310.085 32.632 309.987 32.2073 309.782 31.834C309.577 31.4607 309.292 31.1713 308.928 30.966C308.573 30.7513 308.158 30.644 307.682 30.644C307.215 30.644 306.8 30.7513 306.436 30.966C306.072 31.1713 305.787 31.4653 305.582 31.848C305.377 32.2213 305.274 32.6507 305.274 33.136V33.36C305.274 33.8547 305.386 34.298 305.61 34.69C305.843 35.0727 306.165 35.3713 306.576 35.586C306.987 35.8007 307.458 35.908 307.99 35.908C308.429 35.908 308.825 35.8333 309.18 35.684C309.544 35.5347 309.861 35.3107 310.132 35.012L310.874 35.88C310.538 36.272 310.118 36.5707 309.614 36.776C309.119 36.9813 308.564 37.084 307.948 37.084ZM315.344 37.084C314.728 37.084 314.14 37 313.58 36.832C313.03 36.664 312.596 36.4587 312.278 36.216L312.838 35.152C313.156 35.3667 313.548 35.5487 314.014 35.698C314.481 35.8473 314.957 35.922 315.442 35.922C316.068 35.922 316.516 35.8333 316.786 35.656C317.066 35.4787 317.206 35.2313 317.206 34.914C317.206 34.6807 317.122 34.4987 316.954 34.368C316.786 34.2373 316.562 34.1393 316.282 34.074C316.012 34.0087 315.708 33.9527 315.372 33.906C315.036 33.85 314.7 33.7847 314.364 33.71C314.028 33.626 313.72 33.514 313.44 33.374C313.16 33.2247 312.936 33.024 312.768 32.772C312.6 32.5107 312.516 32.1653 312.516 31.736C312.516 31.288 312.642 30.896 312.894 30.56C313.146 30.224 313.501 29.9673 313.958 29.79C314.425 29.6033 314.976 29.51 315.61 29.51C316.096 29.51 316.586 29.5707 317.08 29.692C317.584 29.804 317.995 29.9673 318.312 30.182L317.738 31.246C317.402 31.022 317.052 30.868 316.688 30.784C316.324 30.7 315.96 30.658 315.596 30.658C315.008 30.658 314.57 30.756 314.28 30.952C313.991 31.1387 313.846 31.3813 313.846 31.68C313.846 31.932 313.93 32.128 314.098 32.268C314.276 32.3987 314.5 32.5013 314.77 32.576C315.05 32.6507 315.358 32.716 315.694 32.772C316.03 32.8187 316.366 32.884 316.702 32.968C317.038 33.0427 317.342 33.15 317.612 33.29C317.892 33.43 318.116 33.626 318.284 33.878C318.462 34.13 318.55 34.466 318.55 34.886C318.55 35.334 318.42 35.7213 318.158 36.048C317.897 36.3747 317.528 36.6313 317.052 36.818C316.576 36.9953 316.007 37.084 315.344 37.084ZM323.534 37.084C322.741 37.084 322.041 36.9207 321.434 36.594C320.837 36.2673 320.37 35.8193 320.034 35.25C319.707 34.6807 319.544 34.0273 319.544 33.29C319.544 32.5527 319.703 31.8993 320.02 31.33C320.347 30.7607 320.79 30.3173 321.35 30C321.919 29.6733 322.559 29.51 323.268 29.51C323.987 29.51 324.621 29.6687 325.172 29.986C325.723 30.3033 326.152 30.7513 326.46 31.33C326.777 31.8993 326.936 32.5667 326.936 33.332C326.936 33.388 326.931 33.4533 326.922 33.528C326.922 33.6027 326.917 33.6727 326.908 33.738H320.594V32.772H326.208L325.662 33.108C325.671 32.632 325.573 32.2073 325.368 31.834C325.163 31.4607 324.878 31.1713 324.514 30.966C324.159 30.7513 323.744 30.644 323.268 30.644C322.801 30.644 322.386 30.7513 322.022 30.966C321.658 31.1713 321.373 31.4653 321.168 31.848C320.963 32.2213 320.86 32.6507 320.86 33.136V33.36C320.86 33.8547 320.972 34.298 321.196 34.69C321.429 35.0727 321.751 35.3713 322.162 35.586C322.573 35.8007 323.044 35.908 323.576 35.908C324.015 35.908 324.411 35.8333 324.766 35.684C325.13 35.5347 325.447 35.3107 325.718 35.012L326.46 35.88C326.124 36.272 325.704 36.5707 325.2 36.776C324.705 36.9813 324.15 37.084 323.534 37.084ZM332.764 29.51C333.371 29.51 333.903 29.6267 334.36 29.86C334.827 30.0933 335.191 30.448 335.452 30.924C335.714 31.4 335.844 32.002 335.844 32.73V37H334.5V32.884C334.5 32.1653 334.323 31.624 333.968 31.26C333.623 30.896 333.133 30.714 332.498 30.714C332.022 30.714 331.607 30.8073 331.252 30.994C330.898 31.1807 330.622 31.456 330.426 31.82C330.24 32.184 330.146 32.6367 330.146 33.178V37H328.802V29.58H330.09V31.582L329.88 31.05C330.123 30.5647 330.496 30.1867 331 29.916C331.504 29.6453 332.092 29.51 332.764 29.51ZM340.88 37.084C340.133 37.084 339.554 36.8833 339.144 36.482C338.733 36.0807 338.528 35.5067 338.528 34.76V27.956H339.872V34.704C339.872 35.1053 339.97 35.4133 340.166 35.628C340.371 35.8427 340.66 35.95 341.034 35.95C341.454 35.95 341.804 35.8333 342.084 35.6L342.504 36.566C342.298 36.7433 342.051 36.874 341.762 36.958C341.482 37.042 341.188 37.084 340.88 37.084ZM337.268 30.686V29.58H342V30.686H337.268ZM348.734 37V35.432L348.664 35.138V32.464C348.664 31.8947 348.496 31.456 348.16 31.148C347.834 30.8307 347.339 30.672 346.676 30.672C346.238 30.672 345.808 30.7467 345.388 30.896C344.968 31.036 344.614 31.2273 344.324 31.47L343.764 30.462C344.147 30.154 344.604 29.9207 345.136 29.762C345.678 29.594 346.242 29.51 346.83 29.51C347.848 29.51 348.632 29.7573 349.182 30.252C349.733 30.7467 350.008 31.5027 350.008 32.52V37H348.734ZM346.298 37.084C345.748 37.084 345.262 36.9907 344.842 36.804C344.432 36.6173 344.114 36.3607 343.89 36.034C343.666 35.698 343.554 35.32 343.554 34.9C343.554 34.4987 343.648 34.1347 343.834 33.808C344.03 33.4813 344.343 33.22 344.772 33.024C345.211 32.828 345.799 32.73 346.536 32.73H348.888V33.696H346.592C345.92 33.696 345.468 33.808 345.234 34.032C345.001 34.256 344.884 34.5267 344.884 34.844C344.884 35.208 345.029 35.502 345.318 35.726C345.608 35.9407 346.009 36.048 346.522 36.048C347.026 36.048 347.465 35.936 347.838 35.712C348.221 35.488 348.496 35.1613 348.664 34.732L348.93 35.656C348.753 36.0947 348.44 36.4447 347.992 36.706C347.544 36.958 346.98 37.084 346.298 37.084ZM355.044 37.084C354.297 37.084 353.718 36.8833 353.308 36.482C352.897 36.0807 352.692 35.5067 352.692 34.76V27.956H354.036V34.704C354.036 35.1053 354.134 35.4133 354.33 35.628C354.535 35.8427 354.824 35.95 355.198 35.95C355.618 35.95 355.968 35.8333 356.248 35.6L356.668 36.566C356.462 36.7433 356.215 36.874 355.926 36.958C355.646 37.042 355.352 37.084 355.044 37.084ZM351.432 30.686V29.58H356.164V30.686H351.432ZM358.293 37V29.58H359.637V37H358.293ZM358.965 28.152C358.703 28.152 358.484 28.068 358.307 27.9C358.139 27.732 358.055 27.5267 358.055 27.284C358.055 27.032 358.139 26.822 358.307 26.654C358.484 26.486 358.703 26.402 358.965 26.402C359.226 26.402 359.441 26.486 359.609 26.654C359.786 26.8127 359.875 27.0133 359.875 27.256C359.875 27.508 359.791 27.7227 359.623 27.9C359.455 28.068 359.235 28.152 358.965 28.152ZM365.381 37.084C364.634 37.084 363.971 36.9207 363.393 36.594C362.814 36.2673 362.357 35.8193 362.021 35.25C361.685 34.6713 361.517 34.018 361.517 33.29C361.517 32.5527 361.685 31.8993 362.021 31.33C362.357 30.7607 362.814 30.3173 363.393 30C363.971 29.6733 364.634 29.51 365.381 29.51C366.118 29.51 366.776 29.6733 367.355 30C367.943 30.3173 368.4 30.7607 368.727 31.33C369.063 31.89 369.231 32.5433 369.231 33.29C369.231 34.0273 369.063 34.6807 368.727 35.25C368.4 35.8193 367.943 36.2673 367.355 36.594C366.776 36.9207 366.118 37.084 365.381 37.084ZM365.381 35.908C365.857 35.908 366.281 35.8007 366.655 35.586C367.037 35.3713 367.336 35.068 367.551 34.676C367.765 34.2747 367.873 33.8127 367.873 33.29C367.873 32.758 367.765 32.3007 367.551 31.918C367.336 31.526 367.037 31.2227 366.655 31.008C366.281 30.7933 365.857 30.686 365.381 30.686C364.905 30.686 364.48 30.7933 364.107 31.008C363.733 31.2227 363.435 31.526 363.211 31.918C362.987 32.3007 362.875 32.758 362.875 33.29C362.875 33.8127 362.987 34.2747 363.211 34.676C363.435 35.068 363.733 35.3713 364.107 35.586C364.48 35.8007 364.905 35.908 365.381 35.908ZM375.051 29.51C375.658 29.51 376.19 29.6267 376.647 29.86C377.114 30.0933 377.478 30.448 377.739 30.924C378.001 31.4 378.131 32.002 378.131 32.73V37H376.787V32.884C376.787 32.1653 376.61 31.624 376.255 31.26C375.91 30.896 375.42 30.714 374.785 30.714C374.309 30.714 373.894 30.8073 373.539 30.994C373.185 31.1807 372.909 31.456 372.713 31.82C372.527 32.184 372.433 32.6367 372.433 33.178V37H371.089V29.58H372.377V31.582L372.167 31.05C372.41 30.5647 372.783 30.1867 373.287 29.916C373.791 29.6453 374.379 29.51 375.051 29.51ZM380.941 37.084C380.679 37.084 380.455 36.9953 380.269 36.818C380.082 36.6313 379.989 36.398 379.989 36.118C379.989 35.838 380.082 35.6093 380.269 35.432C380.455 35.2547 380.679 35.166 380.941 35.166C381.193 35.166 381.407 35.2547 381.585 35.432C381.771 35.6093 381.865 35.838 381.865 36.118C381.865 36.398 381.771 36.6313 381.585 36.818C381.407 36.9953 381.193 37.084 380.941 37.084Z" fill="black"/>
</svg>
