<svg width="252" height="72" viewBox="0 0 252 72" fill="none" xmlns="http://www.w3.org/2000/svg">
<path d="M-0.000249863 22.7832V0.383202H5.18375V22.7832H-0.000249863ZM10.4998 22.7832V0.383202H14.7878L24.3238 16.1912H22.0518L31.4278 0.383202H35.6838L35.7478 22.7832H30.8838L30.8518 7.8392H31.7478L24.2598 20.4152H21.9238L14.2758 7.8392H15.3638V22.7832H10.4998ZM41.0623 22.7832V0.383202H46.2463V18.5592H57.4783V22.7832H41.0623ZM69.4373 22.7832V0.383202H74.6213V22.7832H69.4373ZM90.6573 23.1672C88.9293 23.1672 87.3186 22.8899 85.8253 22.3352C84.3533 21.7592 83.0733 20.9485 81.9852 19.9032C80.8973 18.8579 80.0439 17.6312 79.4253 16.2232C78.8279 14.8152 78.5293 13.2685 78.5293 11.5832C78.5293 9.89787 78.8279 8.3512 79.4253 6.9432C80.0439 5.5352 80.8973 4.30854 81.9852 3.2632C83.0946 2.21787 84.3853 1.41787 85.8573 0.863201C87.3293 0.287202 88.9399 -0.000797272 90.6893 -0.000797272C92.6306 -0.000797272 94.3799 0.340536 95.9373 1.0232C97.5159 1.68454 98.8386 2.66587 99.9053 3.9672L96.5773 7.0392C95.8093 6.16454 94.9559 5.51387 94.0173 5.0872C93.0786 4.6392 92.0546 4.4152 90.9453 4.4152C89.8999 4.4152 88.9399 4.58587 88.0653 4.9272C87.1906 5.26853 86.4333 5.7592 85.7933 6.3992C85.1533 7.0392 84.6519 7.79654 84.2893 8.6712C83.9479 9.54587 83.7773 10.5165 83.7773 11.5832C83.7773 12.6499 83.9479 13.6205 84.2893 14.4952C84.6519 15.3699 85.1533 16.1272 85.7933 16.7672C86.4333 17.4072 87.1906 17.8979 88.0653 18.2392C88.9399 18.5805 89.8999 18.7512 90.9453 18.7512C92.0546 18.7512 93.0786 18.5379 94.0173 18.1112C94.9559 17.6632 95.8093 16.9912 96.5773 16.0952L99.9053 19.1672C98.8386 20.4685 97.5159 21.4605 95.9373 22.1432C94.3799 22.8259 92.6199 23.1672 90.6573 23.1672ZM103.094 22.7832V0.383202H120.022V4.5432H108.246V18.6232H120.438V22.7832H103.094ZM107.862 13.4392V9.4072H118.646V13.4392H107.862ZM144.345 23.1672C142.617 23.1672 141.006 22.8899 139.513 22.3352C138.041 21.7592 136.761 20.9485 135.673 19.9032C134.585 18.8579 133.731 17.6312 133.113 16.2232C132.515 14.8152 132.217 13.2685 132.217 11.5832C132.217 9.89787 132.515 8.3512 133.113 6.9432C133.731 5.5352 134.585 4.30854 135.673 3.2632C136.782 2.21787 138.073 1.41787 139.545 0.863201C141.017 0.287202 142.627 -0.000797272 144.377 -0.000797272C146.318 -0.000797272 148.067 0.340536 149.625 1.0232C151.203 1.68454 152.526 2.66587 153.593 3.9672L150.265 7.0392C149.497 6.16454 148.643 5.51387 147.705 5.0872C146.766 4.6392 145.742 4.4152 144.633 4.4152C143.587 4.4152 142.627 4.58587 141.753 4.9272C140.878 5.26853 140.121 5.7592 139.481 6.3992C138.841 7.0392 138.339 7.79654 137.977 8.6712C137.635 9.54587 137.465 10.5165 137.465 11.5832C137.465 12.6499 137.635 13.6205 137.977 14.4952C138.339 15.3699 138.841 16.1272 139.481 16.7672C140.121 17.4072 140.878 17.8979 141.753 18.2392C142.627 18.5805 143.587 18.7512 144.633 18.7512C145.742 18.7512 146.766 18.5379 147.705 18.1112C148.643 17.6632 149.497 16.9912 150.265 16.0952L153.593 19.1672C152.526 20.4685 151.203 21.4605 149.625 22.1432C148.067 22.8259 146.307 23.1672 144.345 23.1672ZM156.781 22.7832V0.383202H166.349C169.464 0.383202 171.885 1.10854 173.613 2.5592C175.341 3.98854 176.205 5.97254 176.205 8.5112C176.205 10.1752 175.81 11.6152 175.021 12.8312C174.232 14.0259 173.112 14.9432 171.661 15.5832C170.21 16.2232 168.482 16.5432 166.477 16.5432H159.661L161.965 14.2712V22.7832H156.781ZM171.021 22.7832L165.421 14.6552H170.957L176.621 22.7832H171.021ZM161.965 14.8472L159.661 12.4152H166.189C167.789 12.4152 168.984 12.0739 169.773 11.3912C170.562 10.6872 170.957 9.7272 170.957 8.5112C170.957 7.27387 170.562 6.31387 169.773 5.6312C168.984 4.94854 167.789 4.6072 166.189 4.6072H159.661L161.965 2.1432V14.8472ZM180.312 22.7832V0.383202H197.24V4.5432H185.464V18.6232H197.656V22.7832H180.312ZM185.08 13.4392V9.4072H195.864V13.4392H185.08ZM198.837 22.7832L208.821 0.383202H213.941L223.957 22.7832H218.517L210.325 3.0072H212.373L204.149 22.7832H198.837ZM203.829 17.9832L205.205 14.0472H216.725L218.133 17.9832H203.829ZM226.281 22.7832V0.383202H230.569L240.105 16.1912H237.833L247.209 0.383202H251.465L251.529 22.7832H246.665L246.633 7.8392H247.529L240.041 20.4152H237.705L230.057 7.8392H231.145V22.7832H226.281ZM64.406 70.7832V48.3832H73.974C77.0887 48.3832 79.51 49.1085 81.238 50.5592C82.966 51.9885 83.83 53.9725 83.83 56.5112C83.83 58.1752 83.4353 59.6152 82.646 60.8312C81.8567 62.0259 80.7367 62.9432 79.286 63.5832C77.8353 64.2232 76.1073 64.5432 74.102 64.5432H67.286L69.59 62.2712V70.7832H64.406ZM78.646 70.7832L73.046 62.6552H78.582L84.246 70.7832H78.646ZM69.59 62.8472L67.286 60.4152H73.814C75.414 60.4152 76.6087 60.0739 77.398 59.3912C78.1873 58.6872 78.582 57.7272 78.582 56.5112C78.582 55.2739 78.1873 54.3139 77.398 53.6312C76.6087 52.9485 75.414 52.6072 73.814 52.6072H67.286L69.59 50.1432V62.8472ZM98.8173 71.1672C97.0466 71.1672 95.4039 70.8792 93.8893 70.3032C92.3959 69.7272 91.0946 68.9165 89.9852 67.8712C88.8973 66.8259 88.0439 65.5992 87.4253 64.1912C86.8279 62.7832 86.5293 61.2472 86.5293 59.5832C86.5293 57.9192 86.8279 56.3832 87.4253 54.9752C88.0439 53.5672 88.9079 52.3405 90.0173 51.2952C91.1266 50.2499 92.4279 49.4392 93.9213 48.8632C95.4146 48.2872 97.0359 47.9992 98.7853 47.9992C100.556 47.9992 102.177 48.2872 103.649 48.8632C105.143 49.4392 106.433 50.2499 107.521 51.2952C108.631 52.3405 109.495 53.5672 110.113 54.9752C110.732 56.3619 111.041 57.8979 111.041 59.5832C111.041 61.2472 110.732 62.7939 110.113 64.2232C109.495 65.6312 108.631 66.8579 107.521 67.9032C106.433 68.9272 105.143 69.7272 103.649 70.3032C102.177 70.8792 100.567 71.1672 98.8173 71.1672ZM98.7853 66.7512C99.7879 66.7512 100.705 66.5805 101.537 66.2392C102.391 65.8979 103.137 65.4072 103.777 64.7672C104.417 64.1272 104.908 63.3699 105.249 62.4952C105.612 61.6205 105.793 60.6499 105.793 59.5832C105.793 58.5165 105.612 57.5459 105.249 56.6712C104.908 55.7965 104.417 55.0392 103.777 54.3992C103.159 53.7592 102.423 53.2685 101.569 52.9272C100.716 52.5859 99.7879 52.4152 98.7853 52.4152C97.7826 52.4152 96.8546 52.5859 96.0013 52.9272C95.1693 53.2685 94.4333 53.7592 93.7933 54.3992C93.1533 55.0392 92.6519 55.7965 92.2893 56.6712C91.9479 57.5459 91.7773 58.5165 91.7773 59.5832C91.7773 60.6285 91.9479 61.5992 92.2893 62.4952C92.6519 63.3699 93.1426 64.1272 93.7613 64.7672C94.4013 65.4072 95.1479 65.8979 96.0013 66.2392C96.8546 66.5805 97.7826 66.7512 98.7853 66.7512ZM124.889 71.1672C121.711 71.1672 119.225 70.2819 117.433 68.5112C115.641 66.7405 114.745 64.2125 114.745 60.9272V48.3832H119.929V60.7352C119.929 62.8685 120.367 64.4045 121.241 65.3432C122.116 66.2819 123.343 66.7512 124.921 66.7512C126.5 66.7512 127.727 66.2819 128.601 65.3432C129.476 64.4045 129.913 62.8685 129.913 60.7352V48.3832H135.033V60.9272C135.033 64.2125 134.137 66.7405 132.345 68.5112C130.553 70.2819 128.068 71.1672 124.889 71.1672ZM140.156 70.7832V48.3832H144.444L157.66 64.5112H155.58V48.3832H160.7V70.7832H156.444L143.196 54.6552H145.276V70.7832H140.156ZM166 70.7832V48.3832H176.176C178.608 48.3832 180.752 48.8525 182.608 49.7912C184.464 50.7085 185.914 51.9992 186.96 53.6632C188.005 55.3272 188.528 57.3005 188.528 59.5832C188.528 61.8445 188.005 63.8179 186.96 65.5032C185.914 67.1672 184.464 68.4685 182.608 69.4072C180.752 70.3245 178.608 70.7832 176.176 70.7832H166ZM171.184 66.5272H175.92C177.413 66.5272 178.704 66.2499 179.792 65.6952C180.901 65.1192 181.754 64.3085 182.352 63.2632C182.97 62.2179 183.28 60.9912 183.28 59.5832C183.28 58.1539 182.97 56.9272 182.352 55.9032C181.754 54.8579 180.901 54.0579 179.792 53.5032C178.704 52.9272 177.413 52.6392 175.92 52.6392H171.184V66.5272Z" fill="#333030"/>
</svg>
