<svg width="240" height="34" viewBox="0 0 240 34" fill="none" xmlns="http://www.w3.org/2000/svg">
<path d="M16.2745 30V16H22.0345C23.2745 16 24.3345 16.2 25.2145 16.6C26.1079 17 26.7945 17.5733 27.2745 18.32C27.7545 19.0667 27.9945 19.9533 27.9945 20.98C27.9945 22.0067 27.7545 22.8933 27.2745 23.64C26.7945 24.3867 26.1079 24.96 25.2145 25.36C24.3345 25.76 23.2745 25.96 22.0345 25.96H17.7145L18.8745 24.74V30H16.2745ZM18.8745 25.02L17.7145 23.76H21.9145C23.0612 23.76 23.9212 23.52 24.4945 23.04C25.0812 22.5467 25.3745 21.86 25.3745 20.98C25.3745 20.0867 25.0812 19.4 24.4945 18.92C23.9212 18.44 23.0612 18.2 21.9145 18.2H17.7145L18.8745 16.92V25.02ZM30.2533 30V19.32H32.6333V22.26L32.3533 21.4C32.6733 20.68 33.1733 20.1333 33.8533 19.76C34.5466 19.3867 35.4066 19.2 36.4333 19.2V21.58C36.3266 21.5533 36.2266 21.54 36.1333 21.54C36.0399 21.5267 35.9466 21.52 35.8533 21.52C34.9066 21.52 34.1533 21.8 33.5933 22.36C33.0333 22.9067 32.7533 23.7267 32.7533 24.82V30H30.2533ZM43.2564 30.14C42.1631 30.14 41.1897 29.9067 40.3364 29.44C39.4831 28.96 38.8097 28.3067 38.3164 27.48C37.8231 26.6533 37.5764 25.7133 37.5764 24.66C37.5764 23.5933 37.8231 22.6533 38.3164 21.84C38.8097 21.0133 39.4831 20.3667 40.3364 19.9C41.1897 19.4333 42.1631 19.2 43.2564 19.2C44.3631 19.2 45.3431 19.4333 46.1964 19.9C47.0631 20.3667 47.7364 21.0067 48.2164 21.82C48.7097 22.6333 48.9564 23.58 48.9564 24.66C48.9564 25.7133 48.7097 26.6533 48.2164 27.48C47.7364 28.3067 47.0631 28.96 46.1964 29.44C45.3431 29.9067 44.3631 30.14 43.2564 30.14ZM43.2564 28C43.8697 28 44.4164 27.8667 44.8964 27.6C45.3764 27.3333 45.7497 26.9467 46.0164 26.44C46.2964 25.9333 46.4364 25.34 46.4364 24.66C46.4364 23.9667 46.2964 23.3733 46.0164 22.88C45.7497 22.3733 45.3764 21.9867 44.8964 21.72C44.4164 21.4533 43.8764 21.32 43.2764 21.32C42.6631 21.32 42.1164 21.4533 41.6364 21.72C41.1697 21.9867 40.7964 22.3733 40.5164 22.88C40.2364 23.3733 40.0964 23.9667 40.0964 24.66C40.0964 25.34 40.2364 25.9333 40.5164 26.44C40.7964 26.9467 41.1697 27.3333 41.6364 27.6C42.1164 27.8667 42.6564 28 43.2564 28ZM55.867 30.14C54.8404 30.14 53.9137 29.9133 53.087 29.46C52.2737 28.9933 51.6337 28.3533 51.167 27.54C50.7004 26.7267 50.467 25.7667 50.467 24.66C50.467 23.5533 50.7004 22.5933 51.167 21.78C51.6337 20.9667 52.2737 20.3333 53.087 19.88C53.9137 19.4267 54.8404 19.2 55.867 19.2C56.7604 19.2 57.5604 19.4 58.267 19.8C58.9737 20.1867 59.5337 20.78 59.947 21.58C60.3604 22.38 60.567 23.4067 60.567 24.66C60.567 25.9 60.367 26.9267 59.967 27.74C59.567 28.54 59.0137 29.14 58.307 29.54C57.6004 29.94 56.787 30.14 55.867 30.14ZM56.167 28C56.767 28 57.3004 27.8667 57.767 27.6C58.247 27.3333 58.627 26.9467 58.907 26.44C59.2004 25.9333 59.347 25.34 59.347 24.66C59.347 23.9667 59.2004 23.3733 58.907 22.88C58.627 22.3733 58.247 21.9867 57.767 21.72C57.3004 21.4533 56.767 21.32 56.167 21.32C55.567 21.32 55.027 21.4533 54.547 21.72C54.0804 21.9867 53.7004 22.3733 53.407 22.88C53.127 23.3733 52.987 23.9667 52.987 24.66C52.987 25.34 53.127 25.9333 53.407 26.44C53.7004 26.9467 54.0804 27.3333 54.547 27.6C55.027 27.8667 55.567 28 56.167 28ZM59.407 30V27.48L59.507 24.64L59.307 21.8V15.16H61.787V30H59.407ZM69.5975 30.14C68.6908 30.14 67.8908 29.9733 67.1975 29.64C66.5042 29.2933 65.9642 28.7733 65.5775 28.08C65.1908 27.3733 64.9975 26.4867 64.9975 25.42V19.32H67.4975V25.08C67.4975 26.04 67.7108 26.76 68.1375 27.24C68.5775 27.7067 69.1975 27.94 69.9975 27.94C70.5842 27.94 71.0908 27.82 71.5175 27.58C71.9575 27.34 72.2975 26.98 72.5375 26.5C72.7908 26.02 72.9175 25.4267 72.9175 24.72V19.32H75.4175V30H73.0375V27.12L73.4575 28C73.0975 28.6933 72.5708 29.2267 71.8775 29.6C71.1842 29.96 70.4242 30.14 69.5975 30.14ZM83.5908 30.14C82.4708 30.14 81.4708 29.9067 80.5908 29.44C79.7241 28.96 79.0441 28.3067 78.5508 27.48C78.0574 26.6533 77.8108 25.7133 77.8108 24.66C77.8108 23.5933 78.0574 22.6533 78.5508 21.84C79.0441 21.0133 79.7241 20.3667 80.5908 19.9C81.4708 19.4333 82.4708 19.2 83.5908 19.2C84.6308 19.2 85.5441 19.4133 86.3308 19.84C87.1308 20.2533 87.7374 20.8667 88.1508 21.68L86.2308 22.8C85.9108 22.2933 85.5174 21.92 85.0508 21.68C84.5974 21.44 84.1041 21.32 83.5708 21.32C82.9574 21.32 82.4041 21.4533 81.9108 21.72C81.4174 21.9867 81.0308 22.3733 80.7508 22.88C80.4708 23.3733 80.3308 23.9667 80.3308 24.66C80.3308 25.3533 80.4708 25.9533 80.7508 26.46C81.0308 26.9533 81.4174 27.3333 81.9108 27.6C82.4041 27.8667 82.9574 28 83.5708 28C84.1041 28 84.5974 27.88 85.0508 27.64C85.5174 27.4 85.9108 27.0267 86.2308 26.52L88.1508 27.64C87.7374 28.44 87.1308 29.06 86.3308 29.5C85.5441 29.9267 84.6308 30.14 83.5908 30.14ZM94.4686 30.14C93.2953 30.14 92.3886 29.84 91.7486 29.24C91.1086 28.6267 90.7886 27.7267 90.7886 26.54V16.96H93.2886V26.48C93.2886 26.9867 93.4153 27.38 93.6686 27.66C93.9353 27.94 94.3019 28.08 94.7686 28.08C95.3286 28.08 95.7953 27.9333 96.1686 27.64L96.8686 29.42C96.5753 29.66 96.2153 29.84 95.7886 29.96C95.3619 30.08 94.9219 30.14 94.4686 30.14ZM89.0286 21.4V19.4H96.1486V21.4H89.0286ZM111.173 30.2C110.106 30.2 109.113 30.0267 108.193 29.68C107.286 29.32 106.493 28.82 105.813 28.18C105.146 27.5267 104.626 26.76 104.253 25.88C103.879 25 103.693 24.04 103.693 23C103.693 21.96 103.879 21 104.253 20.12C104.626 19.24 105.153 18.48 105.833 17.84C106.513 17.1867 107.306 16.6867 108.213 16.34C109.119 15.98 110.113 15.8 111.193 15.8C112.339 15.8 113.386 16 114.333 16.4C115.279 16.7867 116.079 17.3667 116.733 18.14L115.053 19.72C114.546 19.1733 113.979 18.7667 113.353 18.5C112.726 18.22 112.046 18.08 111.313 18.08C110.579 18.08 109.906 18.2 109.293 18.44C108.693 18.68 108.166 19.02 107.713 19.46C107.273 19.9 106.926 20.42 106.673 21.02C106.433 21.62 106.313 22.28 106.313 23C106.313 23.72 106.433 24.38 106.673 24.98C106.926 25.58 107.273 26.1 107.713 26.54C108.166 26.98 108.693 27.32 109.293 27.56C109.906 27.8 110.579 27.92 111.313 27.92C112.046 27.92 112.726 27.7867 113.353 27.52C113.979 27.24 114.546 26.82 115.053 26.26L116.733 27.86C116.079 28.62 115.279 29.2 114.333 29.6C113.386 30 112.333 30.2 111.173 30.2ZM123.393 30.14C122.3 30.14 121.326 29.9067 120.473 29.44C119.62 28.96 118.946 28.3067 118.453 27.48C117.96 26.6533 117.713 25.7133 117.713 24.66C117.713 23.5933 117.96 22.6533 118.453 21.84C118.946 21.0133 119.62 20.3667 120.473 19.9C121.326 19.4333 122.3 19.2 123.393 19.2C124.5 19.2 125.48 19.4333 126.333 19.9C127.2 20.3667 127.873 21.0067 128.353 21.82C128.846 22.6333 129.093 23.58 129.093 24.66C129.093 25.7133 128.846 26.6533 128.353 27.48C127.873 28.3067 127.2 28.96 126.333 29.44C125.48 29.9067 124.5 30.14 123.393 30.14ZM123.393 28C124.006 28 124.553 27.8667 125.033 27.6C125.513 27.3333 125.886 26.9467 126.153 26.44C126.433 25.9333 126.573 25.34 126.573 24.66C126.573 23.9667 126.433 23.3733 126.153 22.88C125.886 22.3733 125.513 21.9867 125.033 21.72C124.553 21.4533 124.013 21.32 123.413 21.32C122.8 21.32 122.253 21.4533 121.773 21.72C121.306 21.9867 120.933 22.3733 120.653 22.88C120.373 23.3733 120.233 23.9667 120.233 24.66C120.233 25.34 120.373 25.9333 120.653 26.44C120.933 26.9467 121.306 27.3333 121.773 27.6C122.253 27.8667 122.793 28 123.393 28ZM136.004 30.14C134.977 30.14 134.05 29.9133 133.224 29.46C132.41 28.9933 131.77 28.3533 131.304 27.54C130.837 26.7267 130.604 25.7667 130.604 24.66C130.604 23.5533 130.837 22.5933 131.304 21.78C131.77 20.9667 132.41 20.3333 133.224 19.88C134.05 19.4267 134.977 19.2 136.004 19.2C136.897 19.2 137.697 19.4 138.404 19.8C139.11 20.1867 139.67 20.78 140.084 21.58C140.497 22.38 140.704 23.4067 140.704 24.66C140.704 25.9 140.504 26.9267 140.104 27.74C139.704 28.54 139.15 29.14 138.444 29.54C137.737 29.94 136.924 30.14 136.004 30.14ZM136.304 28C136.904 28 137.437 27.8667 137.904 27.6C138.384 27.3333 138.764 26.9467 139.044 26.44C139.337 25.9333 139.484 25.34 139.484 24.66C139.484 23.9667 139.337 23.3733 139.044 22.88C138.764 22.3733 138.384 21.9867 137.904 21.72C137.437 21.4533 136.904 21.32 136.304 21.32C135.704 21.32 135.164 21.4533 134.684 21.72C134.217 21.9867 133.837 22.3733 133.544 22.88C133.264 23.3733 133.124 23.9667 133.124 24.66C133.124 25.34 133.264 25.9333 133.544 26.44C133.837 26.9467 134.217 27.3333 134.684 27.6C135.164 27.8667 135.704 28 136.304 28ZM139.544 30V27.48L139.644 24.64L139.444 21.8V15.16H141.924V30H139.544ZM150.234 30.14C149.048 30.14 148.008 29.9067 147.114 29.44C146.234 28.96 145.548 28.3067 145.054 27.48C144.574 26.6533 144.334 25.7133 144.334 24.66C144.334 23.5933 144.568 22.6533 145.034 21.84C145.514 21.0133 146.168 20.3667 146.994 19.9C147.834 19.4333 148.788 19.2 149.854 19.2C150.894 19.2 151.821 19.4267 152.634 19.88C153.448 20.3333 154.088 20.9733 154.554 21.8C155.021 22.6267 155.254 23.6 155.254 24.72C155.254 24.8267 155.248 24.9467 155.234 25.08C155.234 25.2133 155.228 25.34 155.214 25.46H146.314V23.8H153.894L152.914 24.32C152.928 23.7067 152.801 23.1667 152.534 22.7C152.268 22.2333 151.901 21.8667 151.434 21.6C150.981 21.3333 150.454 21.2 149.854 21.2C149.241 21.2 148.701 21.3333 148.234 21.6C147.781 21.8667 147.421 22.24 147.154 22.72C146.901 23.1867 146.774 23.74 146.774 24.38V24.78C146.774 25.42 146.921 25.9867 147.214 26.48C147.508 26.9733 147.921 27.3533 148.454 27.62C148.988 27.8867 149.601 28.02 150.294 28.02C150.894 28.02 151.434 27.9267 151.914 27.74C152.394 27.5533 152.821 27.26 153.194 26.86L154.534 28.4C154.054 28.96 153.448 29.3933 152.714 29.7C151.994 29.9933 151.168 30.14 150.234 30.14ZM168.17 25.48V23.4H173.67V25.48H168.17ZM183.413 30V17L184.553 18.18H180.453V16H186.013V30H183.413ZM194.63 30.2C193.523 30.2 192.523 29.92 191.63 29.36C190.75 28.8 190.057 27.9867 189.55 26.92C189.043 25.84 188.79 24.5333 188.79 23C188.79 21.4667 189.043 20.1667 189.55 19.1C190.057 18.02 190.75 17.2 191.63 16.64C192.523 16.08 193.523 15.8 194.63 15.8C195.75 15.8 196.75 16.08 197.63 16.64C198.51 17.2 199.203 18.02 199.71 19.1C200.23 20.1667 200.49 21.4667 200.49 23C200.49 24.5333 200.23 25.84 199.71 26.92C199.203 27.9867 198.51 28.8 197.63 29.36C196.75 29.92 195.75 30.2 194.63 30.2ZM194.63 27.94C195.283 27.94 195.85 27.7667 196.33 27.42C196.81 27.06 197.183 26.5133 197.45 25.78C197.73 25.0467 197.87 24.12 197.87 23C197.87 21.8667 197.73 20.94 197.45 20.22C197.183 19.4867 196.81 18.9467 196.33 18.6C195.85 18.24 195.283 18.06 194.63 18.06C194.003 18.06 193.443 18.24 192.95 18.6C192.47 18.9467 192.09 19.4867 191.81 20.22C191.543 20.94 191.41 21.8667 191.41 23C191.41 24.12 191.543 25.0467 191.81 25.78C192.09 26.5133 192.47 27.06 192.95 27.42C193.443 27.7667 194.003 27.94 194.63 27.94ZM204.49 30L210.27 17.04L210.95 18.2H203.01L204.25 16.94V20.58H201.83V16L212.71 16V17.74L207.27 30H204.49ZM216.658 30L222.438 17.04L223.118 18.2H215.178L216.418 16.94V20.58H213.998V16H224.878V17.74L219.438 30H216.658Z" fill="#272727"/>
</svg>
