<svg width="99" height="9" viewBox="0 0 99 9" fill="none" xmlns="http://www.w3.org/2000/svg">
<path d="M2.33469 7.32528V1.70028H3.28924V7.32528H2.33469ZM-0.000532597 4.99006V4.03551H5.62447V4.99006H-0.000532597ZM10.4494 0.0127838C10.8074 0.0156248 11.1653 0.0838065 11.5233 0.217329C11.8812 0.350852 12.2079 0.572443 12.5034 0.882102C12.7988 1.18892 13.036 1.60795 13.215 2.1392C13.394 2.67045 13.4835 3.33665 13.4835 4.13778C13.4835 4.91335 13.4096 5.60227 13.2619 6.20455C13.117 6.80398 12.9068 7.30966 12.6312 7.72159C12.3585 8.13352 12.0261 8.44602 11.6341 8.65909C11.2449 8.87216 10.8045 8.97869 10.313 8.97869C9.8244 8.97869 9.38832 8.8821 9.00479 8.68892C8.62411 8.4929 8.31161 8.22159 8.06729 7.875C7.82582 7.52557 7.67099 7.12074 7.60281 6.66051H8.64258C8.73633 7.06108 8.92241 7.39205 9.20082 7.65341C9.48207 7.91193 9.85281 8.04119 10.313 8.04119C10.9863 8.04119 11.5176 7.74716 11.9068 7.15909C12.2988 6.57102 12.4949 5.74006 12.4949 4.66619H12.4267C12.2676 4.90483 12.0787 5.1108 11.8599 5.28409C11.6412 5.45739 11.3983 5.59091 11.1312 5.68466C10.8642 5.77841 10.5801 5.82528 10.2789 5.82528C9.77894 5.82528 9.32013 5.7017 8.90252 5.45455C8.48775 5.20455 8.15536 4.86222 7.90536 4.42756C7.6582 3.99006 7.53462 3.49006 7.53462 2.92756C7.53462 2.39347 7.65394 1.90483 7.89258 1.46165C8.13406 1.01562 8.47212 0.660511 8.90678 0.396307C9.34428 0.132102 9.85849 0.00426126 10.4494 0.0127838ZM10.4494 0.950284C10.0914 0.950284 9.769 1.03977 9.48207 1.21875C9.19798 1.39489 8.97212 1.63352 8.80451 1.93466C8.63974 2.23295 8.55735 2.56392 8.55735 2.92756C8.55735 3.29119 8.6369 3.62216 8.79599 3.92045C8.95792 4.21591 9.17809 4.4517 9.4565 4.62784C9.73775 4.80114 10.0574 4.88778 10.4153 4.88778C10.6852 4.88778 10.9366 4.83523 11.1696 4.73011C11.4025 4.62216 11.6056 4.47585 11.7789 4.29119C11.9551 4.10369 12.0929 3.89205 12.1923 3.65625C12.2917 3.41761 12.3414 3.16903 12.3414 2.91051C12.3414 2.5696 12.2591 2.25 12.0943 1.9517C11.9324 1.65341 11.7079 1.41193 11.421 1.22727C11.1369 1.04261 10.813 0.950284 10.4494 0.950284ZM18.2275 0.132102V8.85938H17.1706V1.24006H17.1195L14.9888 2.65483V1.58097L17.1706 0.132102H18.2275ZM26.9078 8.97869C26.3226 8.97869 25.8056 8.875 25.3567 8.66761C24.9107 8.45739 24.5627 8.16903 24.3127 7.80256C24.0627 7.43324 23.9391 7.01278 23.9419 6.54119C23.9391 6.17187 24.0115 5.83097 24.1593 5.51847C24.307 5.20312 24.5087 4.94034 24.7644 4.73011C25.0229 4.51705 25.3113 4.3821 25.6294 4.32528V4.27415C25.2118 4.16619 24.8794 3.93182 24.6323 3.57102C24.3851 3.20739 24.263 2.79403 24.2658 2.33097C24.263 1.88778 24.3752 1.49148 24.6025 1.14205C24.8297 0.792613 25.1422 0.517045 25.54 0.315341C25.9405 0.113636 26.3965 0.0127838 26.9078 0.0127838C27.4135 0.0127838 27.8652 0.113636 28.263 0.315341C28.6607 0.517045 28.9732 0.792613 29.2005 1.14205C29.4306 1.49148 29.5471 1.88778 29.5499 2.33097C29.5471 2.79403 29.4206 3.20739 29.1706 3.57102C28.9235 3.93182 28.5953 4.16619 28.1863 4.27415V4.32528C28.5016 4.3821 28.7857 4.51705 29.0385 4.73011C29.2914 4.94034 29.4931 5.20312 29.6436 5.51847C29.7942 5.83097 29.8709 6.17187 29.8738 6.54119C29.8709 7.01278 29.7431 7.43324 29.4902 7.80256C29.2402 8.16903 28.8922 8.45739 28.4462 8.66761C28.003 8.875 27.4902 8.97869 26.9078 8.97869ZM26.9078 8.04119C27.3027 8.04119 27.6436 7.97727 27.9306 7.84943C28.2175 7.72159 28.4391 7.54119 28.5953 7.30824C28.7516 7.07528 28.8311 6.80256 28.834 6.49006C28.8311 6.16051 28.7459 5.86932 28.5783 5.61648C28.4107 5.36364 28.182 5.16477 27.8922 5.01989C27.6053 4.875 27.2772 4.80256 26.9078 4.80256C26.5357 4.80256 26.2033 4.875 25.9107 5.01989C25.6209 5.16477 25.3922 5.36364 25.2246 5.61648C25.0598 5.86932 24.9789 6.16051 24.9817 6.49006C24.9789 6.80256 25.0542 7.07528 25.2076 7.30824C25.3638 7.54119 25.5868 7.72159 25.8766 7.84943C26.1664 7.97727 26.5101 8.04119 26.9078 8.04119ZM26.9078 3.89915C27.2203 3.89915 27.4973 3.83665 27.7388 3.71165C27.9831 3.58665 28.1749 3.41193 28.3141 3.1875C28.4533 2.96307 28.5243 2.70028 28.5272 2.39915C28.5243 2.10369 28.4547 1.84659 28.3184 1.62784C28.182 1.40625 27.9931 1.2358 27.7516 1.11648C27.5101 0.994318 27.2289 0.933239 26.9078 0.933239C26.5811 0.933239 26.2956 0.994318 26.0513 1.11648C25.807 1.2358 25.6181 1.40625 25.4846 1.62784C25.351 1.84659 25.2857 2.10369 25.2885 2.39915C25.2857 2.70028 25.3525 2.96307 25.4888 3.1875C25.628 3.41193 25.8198 3.58665 26.0641 3.71165C26.3084 3.83665 26.5897 3.89915 26.9078 3.89915ZM34.3535 8.97869C33.7115 8.97869 33.1646 8.80398 32.7129 8.45455C32.2612 8.10227 31.916 7.59233 31.6774 6.92472C31.4387 6.25426 31.3194 5.4446 31.3194 4.49574C31.3194 3.55256 31.4387 2.74716 31.6774 2.07955C31.9189 1.40909 32.2654 0.897727 32.7172 0.545454C33.1717 0.190341 33.7172 0.0127838 34.3535 0.0127838C34.9899 0.0127838 35.5339 0.190341 35.9856 0.545454C36.4402 0.897727 36.7868 1.40909 37.0254 2.07955C37.2669 2.74716 37.3876 3.55256 37.3876 4.49574C37.3876 5.4446 37.2683 6.25426 37.0297 6.92472C36.791 7.59233 36.4458 8.10227 35.9941 8.45455C35.5424 8.80398 34.9956 8.97869 34.3535 8.97869ZM34.3535 8.04119C34.9899 8.04119 35.4842 7.73437 35.8365 7.12074C36.1887 6.5071 36.3649 5.6321 36.3649 4.49574C36.3649 3.74006 36.2839 3.09659 36.122 2.56534C35.9629 2.03409 35.7328 1.62926 35.4316 1.35085C35.1333 1.07244 34.774 0.933239 34.3535 0.933239C33.7228 0.933239 33.2299 1.24432 32.8748 1.86648C32.5197 2.4858 32.3422 3.36222 32.3422 4.49574C32.3422 5.25142 32.4217 5.89347 32.5808 6.42188C32.7399 6.95028 32.9686 7.35227 33.2669 7.62784C33.568 7.90341 33.9302 8.04119 34.3535 8.04119ZM41.7342 8.97869C41.2342 8.97869 40.7839 8.87926 40.3833 8.6804C39.9828 8.48153 39.6618 8.20881 39.4203 7.86222C39.1788 7.51562 39.0467 7.12074 39.024 6.67756H40.0467C40.0865 7.07244 40.2654 7.39915 40.5836 7.65767C40.9047 7.91335 41.2882 8.04119 41.7342 8.04119C42.0922 8.04119 42.4103 7.95739 42.6887 7.78977C42.97 7.62216 43.1902 7.39205 43.3493 7.09943C43.5112 6.80398 43.5922 6.47017 43.5922 6.09801C43.5922 5.71733 43.5083 5.37784 43.3407 5.07955C43.176 4.77841 42.9487 4.54119 42.6589 4.3679C42.3691 4.1946 42.0382 4.10653 41.666 4.10369C41.399 4.10085 41.1248 4.14205 40.8436 4.22727C40.5623 4.30966 40.3308 4.41619 40.149 4.54688L39.1603 4.42756L39.6887 0.132102H44.2228V1.0696H40.5751L40.2683 3.64347H40.3194C40.4984 3.50142 40.7228 3.38352 40.9927 3.28977C41.2626 3.19602 41.5439 3.14915 41.8365 3.14915C42.3706 3.14915 42.8464 3.27699 43.264 3.53267C43.6845 3.78551 44.014 4.1321 44.2527 4.57244C44.4941 5.01278 44.6149 5.51562 44.6149 6.08097C44.6149 6.63778 44.4899 7.13494 44.2399 7.57244C43.9927 8.0071 43.6518 8.35085 43.2172 8.60369C42.7825 8.85369 42.2882 8.97869 41.7342 8.97869ZM49.2054 8.97869C48.8475 8.97301 48.4895 8.90483 48.1316 8.77415C47.7736 8.64347 47.4469 8.4233 47.1515 8.11364C46.856 7.80114 46.6188 7.37926 46.4398 6.84801C46.2608 6.31392 46.1713 5.64347 46.1713 4.83665C46.1713 4.06392 46.2438 3.37926 46.3887 2.78267C46.5336 2.18324 46.7438 1.67898 47.0194 1.26989C47.2949 0.857955 47.6273 0.545454 48.0165 0.332386C48.4086 0.119318 48.8503 0.0127838 49.3418 0.0127838C49.8304 0.0127838 50.2651 0.110795 50.6458 0.306818C51.0293 0.5 51.3418 0.769886 51.5833 1.11648C51.8248 1.46307 51.981 1.86222 52.052 2.31392H51.0123C50.9157 1.92187 50.7282 1.59659 50.4498 1.33807C50.1713 1.07955 49.802 0.950284 49.3418 0.950284C48.6657 0.950284 48.133 1.24432 47.7438 1.83239C47.3574 2.42045 47.1628 3.24574 47.16 4.30824H47.2282C47.3873 4.06676 47.5762 3.8608 47.7949 3.69034C48.0165 3.51705 48.2608 3.38352 48.5279 3.28977C48.7949 3.19602 49.0776 3.14915 49.3759 3.14915C49.8759 3.14915 50.3333 3.27415 50.748 3.52415C51.1628 3.77131 51.4952 4.11364 51.7452 4.55114C51.9952 4.9858 52.1202 5.48438 52.1202 6.04688C52.1202 6.58665 51.9995 7.08097 51.758 7.52983C51.5165 7.97585 51.177 8.33097 50.7395 8.59517C50.3049 8.85653 49.7935 8.98438 49.2054 8.97869ZM49.2054 8.04119C49.5634 8.04119 49.8844 7.9517 50.1685 7.77273C50.4554 7.59375 50.6813 7.35369 50.8461 7.05256C51.0137 6.75142 51.0975 6.41619 51.0975 6.04688C51.0975 5.68608 51.0165 5.35795 50.8546 5.0625C50.6955 4.7642 50.4753 4.52699 50.1941 4.35085C49.9157 4.17472 49.5975 4.08665 49.2395 4.08665C48.9696 4.08665 48.7182 4.14062 48.4853 4.24858C48.2523 4.35369 48.0478 4.49858 47.8716 4.68324C47.6983 4.8679 47.562 5.07955 47.4625 5.31818C47.3631 5.55398 47.3134 5.80256 47.3134 6.06392C47.3134 6.41051 47.3944 6.73437 47.5563 7.03551C47.7211 7.33665 47.9455 7.57955 48.2296 7.7642C48.5165 7.94886 48.8418 8.04119 49.2054 8.04119ZM53.5914 7.0696V6.20028L57.4267 0.132102H58.0574V1.47869H57.6312L54.7335 6.06392V6.1321H59.8983V7.0696H53.5914ZM57.6994 8.85938V6.8054V6.40057V0.132102H58.7051V8.85938H57.6994ZM67.7679 8.97869C67.41 8.97301 67.052 8.90483 66.6941 8.77415C66.3361 8.64347 66.0094 8.4233 65.714 8.11364C65.4185 7.80114 65.1813 7.37926 65.0023 6.84801C64.8233 6.31392 64.7338 5.64347 64.7338 4.83665C64.7338 4.06392 64.8063 3.37926 64.9512 2.78267C65.0961 2.18324 65.3063 1.67898 65.5819 1.26989C65.8574 0.857955 66.1898 0.545454 66.579 0.332386C66.9711 0.119318 67.4128 0.0127838 67.9043 0.0127838C68.3929 0.0127838 68.8276 0.110795 69.2083 0.306818C69.5918 0.5 69.9043 0.769886 70.1458 1.11648C70.3873 1.46307 70.5435 1.86222 70.6145 2.31392H69.5748C69.4782 1.92187 69.2907 1.59659 69.0123 1.33807C68.7338 1.07955 68.3645 0.950284 67.9043 0.950284C67.2282 0.950284 66.6955 1.24432 66.3063 1.83239C65.9199 2.42045 65.7253 3.24574 65.7225 4.30824H65.7907C65.9498 4.06676 66.1387 3.8608 66.3574 3.69034C66.579 3.51705 66.8233 3.38352 67.0904 3.28977C67.3574 3.19602 67.6401 3.14915 67.9384 3.14915C68.4384 3.14915 68.8958 3.27415 69.3105 3.52415C69.7253 3.77131 70.0577 4.11364 70.3077 4.55114C70.5577 4.9858 70.6827 5.48438 70.6827 6.04688C70.6827 6.58665 70.562 7.08097 70.3205 7.52983C70.079 7.97585 69.7395 8.33097 69.302 8.59517C68.8674 8.85653 68.356 8.98438 67.7679 8.97869ZM67.7679 8.04119C68.1259 8.04119 68.4469 7.9517 68.731 7.77273C69.0179 7.59375 69.2438 7.35369 69.4086 7.05256C69.5762 6.75142 69.66 6.41619 69.66 6.04688C69.66 5.68608 69.579 5.35795 69.4171 5.0625C69.258 4.7642 69.0378 4.52699 68.7566 4.35085C68.4782 4.17472 68.16 4.08665 67.802 4.08665C67.5321 4.08665 67.2807 4.14062 67.0478 4.24858C66.8148 4.35369 66.6103 4.49858 66.4341 4.68324C66.2608 4.8679 66.1245 5.07955 66.025 5.31818C65.9256 5.55398 65.8759 5.80256 65.8759 6.06392C65.8759 6.41051 65.9569 6.73437 66.1188 7.03551C66.2836 7.33665 66.508 7.57955 66.7921 7.7642C67.079 7.94886 67.4043 8.04119 67.7679 8.04119ZM72.1539 7.0696V6.20028L75.9892 0.132102H76.6199V1.47869H76.1937L73.296 6.06392V6.1321H78.4608V7.0696H72.1539ZM76.2619 8.85938V6.8054V6.40057V0.132102H77.2676V8.85938H76.2619ZM80.0577 8.85938V8.09233L82.9384 4.93892C83.2765 4.5696 83.5549 4.24858 83.7736 3.97585C83.9924 3.70028 84.1543 3.44176 84.2594 3.20028C84.3674 2.95597 84.4213 2.70028 84.4213 2.43324C84.4213 2.12642 84.3475 1.8608 84.1998 1.63636C84.0549 1.41193 83.856 1.23864 83.6032 1.11648C83.3503 0.994318 83.0662 0.933239 82.7509 0.933239C82.4157 0.933239 82.123 1.00284 81.873 1.14205C81.6259 1.27841 81.4341 1.47017 81.2978 1.71733C81.1642 1.96449 81.0975 2.25426 81.0975 2.58665H80.0918C80.0918 2.07528 80.2097 1.62642 80.4455 1.24006C80.6813 0.853693 81.0023 0.552556 81.4086 0.336647C81.8176 0.120738 82.2765 0.0127838 82.785 0.0127838C83.2963 0.0127838 83.7495 0.120738 84.1444 0.336647C84.5392 0.552556 84.8489 0.84375 85.0733 1.21023C85.2978 1.5767 85.41 1.98438 85.41 2.43324C85.41 2.75426 85.3517 3.06818 85.2353 3.375C85.1216 3.67898 84.9228 4.01847 84.6387 4.39347C84.3574 4.76562 83.9668 5.22017 83.4668 5.7571L81.5066 7.85369V7.92188H85.5634V8.85938H80.0577ZM90.3915 0.132102V8.85938H89.3347V1.24006H89.2836L87.1529 2.65483V1.58097L89.3347 0.132102H90.3915ZM92.6969 7.0696V6.20028L96.5321 0.132102H97.1628V1.47869H96.7367L93.839 6.06392V6.1321H99.0037V7.0696H92.6969ZM96.8049 8.85938V6.8054V6.40057V0.132102H97.8105V8.85938H96.8049Z" fill="#202020"/>
</svg>
