<svg width="99" height="9" viewBox="0 0 99 9" fill="none" xmlns="http://www.w3.org/2000/svg">
<path d="M2.33469 7.32528V1.70028H3.28924V7.32528H2.33469ZM-0.000532597 4.99006V4.03551H5.62447V4.99006H-0.000532597ZM10.4494 0.0127838C10.8074 0.0156248 11.1653 0.0838065 11.5233 0.217329C11.8812 0.350852 12.2079 0.572443 12.5034 0.882102C12.7988 1.18892 13.036 1.60795 13.215 2.1392C13.394 2.67045 13.4835 3.33665 13.4835 4.13778C13.4835 4.91335 13.4096 5.60227 13.2619 6.20455C13.117 6.80398 12.9068 7.30966 12.6312 7.72159C12.3585 8.13352 12.0261 8.44602 11.6341 8.65909C11.2449 8.87216 10.8045 8.97869 10.313 8.97869C9.8244 8.97869 9.38832 8.8821 9.00479 8.68892C8.62411 8.4929 8.31161 8.22159 8.06729 7.875C7.82582 7.52557 7.67099 7.12074 7.60281 6.66051H8.64258C8.73633 7.06108 8.92241 7.39205 9.20082 7.65341C9.48207 7.91193 9.85281 8.04119 10.313 8.04119C10.9863 8.04119 11.5176 7.74716 11.9068 7.15909C12.2988 6.57102 12.4949 5.74006 12.4949 4.66619H12.4267C12.2676 4.90483 12.0787 5.1108 11.8599 5.28409C11.6412 5.45739 11.3983 5.59091 11.1312 5.68466C10.8642 5.77841 10.5801 5.82528 10.2789 5.82528C9.77894 5.82528 9.32013 5.7017 8.90252 5.45455C8.48775 5.20455 8.15536 4.86222 7.90536 4.42756C7.6582 3.99006 7.53462 3.49006 7.53462 2.92756C7.53462 2.39347 7.65394 1.90483 7.89258 1.46165C8.13406 1.01562 8.47212 0.660511 8.90678 0.396307C9.34428 0.132102 9.85849 0.00426126 10.4494 0.0127838ZM10.4494 0.950284C10.0914 0.950284 9.769 1.03977 9.48207 1.21875C9.19798 1.39489 8.97212 1.63352 8.80451 1.93466C8.63974 2.23295 8.55735 2.56392 8.55735 2.92756C8.55735 3.29119 8.6369 3.62216 8.79599 3.92045C8.95792 4.21591 9.17809 4.4517 9.4565 4.62784C9.73775 4.80114 10.0574 4.88778 10.4153 4.88778C10.6852 4.88778 10.9366 4.83523 11.1696 4.73011C11.4025 4.62216 11.6056 4.47585 11.7789 4.29119C11.9551 4.10369 12.0929 3.89205 12.1923 3.65625C12.2917 3.41761 12.3414 3.16903 12.3414 2.91051C12.3414 2.5696 12.2591 2.25 12.0943 1.9517C11.9324 1.65341 11.7079 1.41193 11.421 1.22727C11.1369 1.04261 10.813 0.950284 10.4494 0.950284ZM18.2275 0.132102V8.85938H17.1706V1.24006H17.1195L14.9888 2.65483V1.58097L17.1706 0.132102H18.2275ZM26.8908 0.0127838C27.2488 0.0156248 27.6067 0.0838065 27.9647 0.217329C28.3226 0.350852 28.6493 0.572443 28.9448 0.882102C29.2402 1.18892 29.4775 1.60795 29.6564 2.1392C29.8354 2.67045 29.9249 3.33665 29.9249 4.13778C29.9249 4.91335 29.851 5.60227 29.7033 6.20455C29.5584 6.80398 29.3482 7.30966 29.0726 7.72159C28.7999 8.13352 28.4675 8.44602 28.0755 8.65909C27.6863 8.87216 27.2459 8.97869 26.7544 8.97869C26.2658 8.97869 25.8297 8.8821 25.4462 8.68892C25.0655 8.4929 24.753 8.22159 24.5087 7.875C24.2672 7.52557 24.1124 7.12074 24.0442 6.66051H25.084C25.1777 7.06108 25.3638 7.39205 25.6422 7.65341C25.9235 7.91193 26.2942 8.04119 26.7544 8.04119C27.4277 8.04119 27.959 7.74716 28.3482 7.15909C28.7402 6.57102 28.9363 5.74006 28.9363 4.66619H28.8681C28.709 4.90483 28.5201 5.1108 28.3013 5.28409C28.0826 5.45739 27.8397 5.59091 27.5726 5.68466C27.3056 5.77841 27.0215 5.82528 26.7203 5.82528C26.2203 5.82528 25.7615 5.7017 25.3439 5.45455C24.9292 5.20455 24.5968 4.86222 24.3468 4.42756C24.0996 3.99006 23.976 3.49006 23.976 2.92756C23.976 2.39347 24.0953 1.90483 24.334 1.46165C24.5755 1.01562 24.9135 0.660511 25.3482 0.396307C25.7857 0.132102 26.2999 0.00426126 26.8908 0.0127838ZM26.8908 0.950284C26.5328 0.950284 26.2104 1.03977 25.9235 1.21875C25.6394 1.39489 25.4135 1.63352 25.2459 1.93466C25.0811 2.23295 24.9988 2.56392 24.9988 2.92756C24.9988 3.29119 25.0783 3.62216 25.2374 3.92045C25.3993 4.21591 25.6195 4.4517 25.8979 4.62784C26.1792 4.80114 26.4988 4.88778 26.8567 4.88778C27.1266 4.88778 27.378 4.83523 27.611 4.73011C27.8439 4.62216 28.0471 4.47585 28.2203 4.29119C28.3965 4.10369 28.5343 3.89205 28.6337 3.65625C28.7331 3.41761 28.7828 3.16903 28.7828 2.91051C28.7828 2.5696 28.7005 2.25 28.5357 1.9517C28.3738 1.65341 28.1493 1.41193 27.8624 1.22727C27.5783 1.04261 27.2544 0.950284 26.8908 0.950284ZM34.3791 0.0127838C34.737 0.0156248 35.095 0.0838065 35.4529 0.217329C35.8109 0.350852 36.1376 0.572443 36.4331 0.882102C36.7285 1.18892 36.9657 1.60795 37.1447 2.1392C37.3237 2.67045 37.4132 3.33665 37.4132 4.13778C37.4132 4.91335 37.3393 5.60227 37.1916 6.20455C37.0467 6.80398 36.8365 7.30966 36.5609 7.72159C36.2882 8.13352 35.9558 8.44602 35.5637 8.65909C35.1745 8.87216 34.7342 8.97869 34.2427 8.97869C33.7541 8.97869 33.318 8.8821 32.9345 8.68892C32.5538 8.4929 32.2413 8.22159 31.997 7.875C31.7555 7.52557 31.6007 7.12074 31.5325 6.66051H32.5723C32.666 7.06108 32.8521 7.39205 33.1305 7.65341C33.4118 7.91193 33.7825 8.04119 34.2427 8.04119C34.916 8.04119 35.4473 7.74716 35.8365 7.15909C36.2285 6.57102 36.4245 5.74006 36.4245 4.66619H36.3564C36.1973 4.90483 36.0083 5.1108 35.7896 5.28409C35.5708 5.45739 35.3279 5.59091 35.0609 5.68466C34.7939 5.77841 34.5098 5.82528 34.2086 5.82528C33.7086 5.82528 33.2498 5.7017 32.8322 5.45455C32.4174 5.20455 32.085 4.86222 31.835 4.42756C31.5879 3.99006 31.4643 3.49006 31.4643 2.92756C31.4643 2.39347 31.5836 1.90483 31.8223 1.46165C32.0637 1.01562 32.4018 0.660511 32.8365 0.396307C33.274 0.132102 33.7882 0.00426126 34.3791 0.0127838ZM34.3791 0.950284C34.0211 0.950284 33.6987 1.03977 33.4118 1.21875C33.1277 1.39489 32.9018 1.63352 32.7342 1.93466C32.5694 2.23295 32.487 2.56392 32.487 2.92756C32.487 3.29119 32.5666 3.62216 32.7257 3.92045C32.8876 4.21591 33.1078 4.4517 33.3862 4.62784C33.6674 4.80114 33.987 4.88778 34.345 4.88778C34.6149 4.88778 34.8663 4.83523 35.0993 4.73011C35.3322 4.62216 35.5353 4.47585 35.7086 4.29119C35.8848 4.10369 36.0225 3.89205 36.122 3.65625C36.2214 3.41761 36.2711 3.16903 36.2711 2.91051C36.2711 2.5696 36.1887 2.25 36.024 1.9517C35.862 1.65341 35.6376 1.41193 35.3507 1.22727C35.0666 1.04261 34.7427 0.950284 34.3791 0.950284ZM38.8844 7.0696V6.20028L42.7196 0.132102H43.3503V1.47869H42.9242L40.0265 6.06392V6.1321H45.1912V7.0696H38.8844ZM42.9924 8.85938V6.8054V6.40057V0.132102H43.998V8.85938H42.9924ZM46.5836 7.0696V6.20028L50.4189 0.132102H51.0495V1.47869H50.6234L47.7257 6.06392V6.1321H52.8904V7.0696H46.5836ZM50.6916 8.85938V6.8054V6.40057V0.132102H51.6973V8.85938H50.6916ZM57.2147 8.97869C56.7147 8.97869 56.2644 8.87926 55.8638 8.6804C55.4632 8.48153 55.1422 8.20881 54.9007 7.86222C54.6593 7.51562 54.5272 7.12074 54.5044 6.67756H55.5272C55.5669 7.07244 55.7459 7.39915 56.0641 7.65767C56.3851 7.91335 56.7686 8.04119 57.2147 8.04119C57.5726 8.04119 57.8908 7.95739 58.1692 7.78977C58.4505 7.62216 58.6706 7.39205 58.8297 7.09943C58.9917 6.80398 59.0726 6.47017 59.0726 6.09801C59.0726 5.71733 58.9888 5.37784 58.8212 5.07955C58.6564 4.77841 58.4292 4.54119 58.1394 4.3679C57.8496 4.1946 57.5186 4.10653 57.1465 4.10369C56.8794 4.10085 56.6053 4.14205 56.324 4.22727C56.0428 4.30966 55.8113 4.41619 55.6294 4.54688L54.6408 4.42756L55.1692 0.132102H59.7033V1.0696H56.0556L55.7488 3.64347H55.7999C55.9789 3.50142 56.2033 3.38352 56.4732 3.28977C56.7431 3.19602 57.0243 3.14915 57.3169 3.14915C57.851 3.14915 58.3269 3.27699 58.7445 3.53267C59.165 3.78551 59.4945 4.1321 59.7331 4.57244C59.9746 5.01278 60.0953 5.51562 60.0953 6.08097C60.0953 6.63778 59.9703 7.13494 59.7203 7.57244C59.4732 8.0071 59.1323 8.35085 58.6976 8.60369C58.263 8.85369 57.7686 8.97869 57.2147 8.97869ZM67.8904 8.97869C67.3904 8.97869 66.9402 8.87926 66.5396 8.6804C66.139 8.48153 65.818 8.20881 65.5765 7.86222C65.335 7.51562 65.2029 7.12074 65.1802 6.67756H66.2029C66.2427 7.07244 66.4217 7.39915 66.7399 7.65767C67.0609 7.91335 67.4444 8.04119 67.8904 8.04119C68.2484 8.04119 68.5666 7.95739 68.845 7.78977C69.1262 7.62216 69.3464 7.39205 69.5055 7.09943C69.6674 6.80398 69.7484 6.47017 69.7484 6.09801C69.7484 5.71733 69.6646 5.37784 69.497 5.07955C69.3322 4.77841 69.1049 4.54119 68.8152 4.3679C68.5254 4.1946 68.1944 4.10653 67.8223 4.10369C67.5552 4.10085 67.2811 4.14205 66.9998 4.22727C66.7186 4.30966 66.487 4.41619 66.3052 4.54688L65.3166 4.42756L65.845 0.132102H70.3791V1.0696H66.7314L66.4245 3.64347H66.4757C66.6547 3.50142 66.8791 3.38352 67.149 3.28977C67.4189 3.19602 67.7001 3.14915 67.9927 3.14915C68.5268 3.14915 69.0027 3.27699 69.4203 3.53267C69.8407 3.78551 70.1703 4.1321 70.4089 4.57244C70.6504 5.01278 70.7711 5.51562 70.7711 6.08097C70.7711 6.63778 70.6461 7.13494 70.3961 7.57244C70.149 8.0071 69.8081 8.35085 69.3734 8.60369C68.9387 8.85369 68.4444 8.97869 67.8904 8.97869ZM72.464 8.85938V8.09233L75.3446 4.93892C75.6827 4.5696 75.9611 4.24858 76.1799 3.97585C76.3986 3.70028 76.5605 3.44176 76.6657 3.20028C76.7736 2.95597 76.8276 2.70028 76.8276 2.43324C76.8276 2.12642 76.7537 1.8608 76.606 1.63636C76.4611 1.41193 76.2623 1.23864 76.0094 1.11648C75.7566 0.994318 75.4725 0.933239 75.1571 0.933239C74.8219 0.933239 74.5293 1.00284 74.2793 1.14205C74.0321 1.27841 73.8404 1.47017 73.704 1.71733C73.5705 1.96449 73.5037 2.25426 73.5037 2.58665H72.498C72.498 2.07528 72.6159 1.62642 72.8517 1.24006C73.0875 0.853693 73.4086 0.552556 73.8148 0.336647C74.2239 0.120738 74.6827 0.0127838 75.1912 0.0127838C75.7026 0.0127838 76.1557 0.120738 76.5506 0.336647C76.9455 0.552556 77.2551 0.84375 77.4796 1.21023C77.704 1.5767 77.8162 1.98438 77.8162 2.43324C77.8162 2.75426 77.758 3.06818 77.6415 3.375C77.5279 3.67898 77.329 4.01847 77.0449 4.39347C76.7637 4.76562 76.373 5.22017 75.873 5.7571L73.9128 7.85369V7.92188H77.9696V8.85938H72.464ZM82.7978 0.132102V8.85938H81.7409V1.24006H81.6898L79.5591 2.65483V1.58097L81.7409 0.132102H82.7978ZM88.2566 8.97869C87.6941 8.97869 87.1926 8.8821 86.7523 8.68892C86.3148 8.49574 85.9668 8.22727 85.7083 7.88352C85.4526 7.53693 85.3134 7.13494 85.2907 6.67756H86.3645C86.3873 6.95881 86.4838 7.2017 86.6543 7.40625C86.8248 7.60795 87.0478 7.7642 87.3233 7.875C87.5989 7.9858 87.9043 8.04119 88.2395 8.04119C88.6145 8.04119 88.9469 7.97585 89.2367 7.84517C89.5265 7.71449 89.7537 7.53267 89.9185 7.29972C90.0833 7.06676 90.1657 6.79688 90.1657 6.49006C90.1657 6.16903 90.0861 5.88636 89.927 5.64205C89.7679 5.39489 89.535 5.2017 89.2282 5.0625C88.9213 4.9233 88.5463 4.85369 88.1032 4.85369H87.4043V3.91619H88.1032C88.4498 3.91619 88.7537 3.85369 89.0151 3.72869C89.2793 3.60369 89.4853 3.42756 89.633 3.20028C89.7836 2.97301 89.8588 2.70597 89.8588 2.39915C89.8588 2.10369 89.7935 1.84659 89.6628 1.62784C89.5321 1.40909 89.3475 1.23864 89.1088 1.11648C88.873 0.994318 88.5946 0.933239 88.2736 0.933239C87.9725 0.933239 87.6884 0.988636 87.4213 1.09943C87.1571 1.20739 86.9412 1.36506 86.7736 1.57244C86.606 1.77699 86.5151 2.02415 86.5009 2.31392H85.4782C85.4952 1.85653 85.633 1.45597 85.8915 1.11222C86.15 0.765625 86.4881 0.495738 86.9057 0.302557C87.3262 0.109375 87.7878 0.0127838 88.2907 0.0127838C88.8304 0.0127838 89.2935 0.122159 89.6799 0.340909C90.0662 0.556818 90.3631 0.842329 90.5705 1.19744C90.7779 1.55256 90.8816 1.93608 90.8816 2.34801C90.8816 2.83949 90.7523 3.25852 90.4938 3.60511C90.2381 3.9517 89.8901 4.19176 89.4498 4.32528V4.39347C90.0009 4.48437 90.4313 4.71875 90.7409 5.09659C91.0506 5.47159 91.2054 5.93608 91.2054 6.49006C91.2054 6.96449 91.0762 7.39062 90.8176 7.76847C90.562 8.14347 90.2125 8.43892 89.7694 8.65483C89.3262 8.87074 88.8219 8.97869 88.2566 8.97869ZM95.7949 8.97869C95.1529 8.97869 94.606 8.80398 94.1543 8.45455C93.7026 8.10227 93.3574 7.59233 93.1188 6.92472C92.8801 6.25426 92.7608 5.4446 92.7608 4.49574C92.7608 3.55256 92.8801 2.74716 93.1188 2.07955C93.3603 1.40909 93.7069 0.897727 94.1586 0.545454C94.6131 0.190341 95.1586 0.0127838 95.7949 0.0127838C96.4313 0.0127838 96.9753 0.190341 97.427 0.545454C97.8816 0.897727 98.2282 1.40909 98.4668 2.07955C98.7083 2.74716 98.829 3.55256 98.829 4.49574C98.829 5.4446 98.7097 6.25426 98.4711 6.92472C98.2324 7.59233 97.8873 8.10227 97.4355 8.45455C96.9838 8.80398 96.437 8.97869 95.7949 8.97869ZM95.7949 8.04119C96.4313 8.04119 96.9256 7.73437 97.2779 7.12074C97.6301 6.5071 97.8063 5.6321 97.8063 4.49574C97.8063 3.74006 97.7253 3.09659 97.5634 2.56534C97.4043 2.03409 97.1742 1.62926 96.873 1.35085C96.5748 1.07244 96.2154 0.933239 95.7949 0.933239C95.1642 0.933239 94.6713 1.24432 94.3162 1.86648C93.9611 2.4858 93.7836 3.36222 93.7836 4.49574C93.7836 5.25142 93.8631 5.89347 94.0222 6.42188C94.1813 6.95028 94.41 7.35227 94.7083 7.62784C95.0094 7.90341 95.3716 8.04119 95.7949 8.04119Z" fill="#202020"/>
</svg>
