<svg width="41" height="10" viewBox="0 0 41 10" fill="none" xmlns="http://www.w3.org/2000/svg">
<path d="M4.54823 9.04634C3.90023 9.04634 3.29623 8.94234 2.73623 8.73434C2.18423 8.51834 1.70423 8.21434 1.29623 7.82234C0.888227 7.43034 0.568227 6.97034 0.336227 6.44234C0.112227 5.91434 0.000226572 5.33434 0.000226572 4.70234C0.000226572 4.07034 0.112227 3.49034 0.336227 2.96234C0.568227 2.43434 0.888227 1.97434 1.29623 1.58234C1.71223 1.19034 2.19623 0.890343 2.74823 0.682343C3.30023 0.466343 3.90423 0.358344 4.56023 0.358344C5.28823 0.358344 5.94423 0.486344 6.52823 0.742344C7.12023 0.990343 7.61623 1.35834 8.01623 1.84634L6.76823 2.99834C6.48023 2.67034 6.16023 2.42634 5.80823 2.26634C5.45623 2.09834 5.07223 2.01434 4.65623 2.01434C4.26423 2.01434 3.90423 2.07834 3.57623 2.20634C3.24823 2.33434 2.96423 2.51834 2.72423 2.75834C2.48423 2.99834 2.29623 3.28234 2.16023 3.61034C2.03223 3.93834 1.96823 4.30234 1.96823 4.70234C1.96823 5.10234 2.03223 5.46634 2.16023 5.79434C2.29623 6.12234 2.48423 6.40634 2.72423 6.64634C2.96423 6.88634 3.24823 7.07034 3.57623 7.19834C3.90423 7.32634 4.26423 7.39034 4.65623 7.39034C5.07223 7.39034 5.45623 7.31034 5.80823 7.15034C6.16023 6.98234 6.48023 6.73034 6.76823 6.39434L8.01623 7.54634C7.61623 8.03434 7.12023 8.40634 6.52823 8.66234C5.94423 8.91834 5.28423 9.04634 4.54823 9.04634ZM13.1101 8.90234V7.64234L12.9901 7.36634V5.11034C12.9901 4.71034 12.8661 4.39834 12.6181 4.17434C12.3781 3.95034 12.0061 3.83834 11.5021 3.83834C11.1581 3.83834 10.8181 3.89434 10.4821 4.00634C10.1541 4.11034 9.87413 4.25434 9.64213 4.43834L8.97013 3.13034C9.32213 2.88234 9.74613 2.69034 10.2421 2.55434C10.7381 2.41834 11.2421 2.35034 11.7541 2.35034C12.7381 2.35034 13.5021 2.58234 14.0461 3.04634C14.5901 3.51034 14.8621 4.23434 14.8621 5.21834V8.90234H13.1101ZM11.1421 8.99834C10.6381 8.99834 10.2061 8.91434 9.84613 8.74634C9.48613 8.57034 9.21013 8.33434 9.01813 8.03834C8.82613 7.74234 8.73013 7.41034 8.73013 7.04234C8.73013 6.65834 8.82213 6.32234 9.00613 6.03434C9.19813 5.74634 9.49813 5.52234 9.90613 5.36234C10.3141 5.19434 10.8461 5.11034 11.5021 5.11034H13.2181V6.20234H11.7061C11.2661 6.20234 10.9621 6.27434 10.7941 6.41834C10.6341 6.56234 10.5541 6.74234 10.5541 6.95834C10.5541 7.19834 10.6461 7.39034 10.8301 7.53434C11.0221 7.67034 11.2821 7.73834 11.6101 7.73834C11.9221 7.73834 12.2021 7.66634 12.4501 7.52234C12.6981 7.37034 12.8781 7.15034 12.9901 6.86234L13.2781 7.72634C13.1421 8.14234 12.8941 8.45834 12.5341 8.67434C12.1741 8.89034 11.7101 8.99834 11.1421 8.99834ZM16.5564 8.90234V-0.00165677H18.4284V8.90234H16.5564ZM20.1658 8.90234V-0.00165677H22.0378V8.90234H20.1658ZM29.8976 8.99834C29.3616 8.99834 28.8816 8.89434 28.4576 8.68634C28.0416 8.47834 27.7176 8.16234 27.4856 7.73834C27.2536 7.30634 27.1376 6.75834 27.1376 6.09434V2.44634H29.0096V5.81834C29.0096 6.35434 29.1216 6.75034 29.3456 7.00634C29.5776 7.25434 29.9016 7.37834 30.3176 7.37834C30.6056 7.37834 30.8616 7.31834 31.0856 7.19834C31.3096 7.07034 31.4856 6.87834 31.6136 6.62234C31.7416 6.35834 31.8056 6.03034 31.8056 5.63834V2.44634H33.6776V8.90234H31.9016V7.12634L32.2256 7.64234C32.0096 8.09034 31.6896 8.43034 31.2656 8.66234C30.8496 8.88634 30.3936 8.99834 29.8976 8.99834ZM37.5839 8.99834C37.0319 8.99834 36.4999 8.93434 35.9879 8.80634C35.4839 8.67034 35.0839 8.50234 34.7879 8.30234L35.4119 6.95834C35.7079 7.14234 36.0559 7.29434 36.4559 7.41434C36.8639 7.52634 37.2639 7.58234 37.6559 7.58234C38.0879 7.58234 38.3919 7.53034 38.5679 7.42634C38.7519 7.32234 38.8439 7.17834 38.8439 6.99434C38.8439 6.84234 38.7719 6.73034 38.6279 6.65834C38.4919 6.57834 38.3079 6.51834 38.0759 6.47834C37.8439 6.43834 37.5879 6.39834 37.3079 6.35834C37.0359 6.31834 36.7599 6.26634 36.4799 6.20234C36.1999 6.13034 35.9439 6.02634 35.7119 5.89034C35.4799 5.75434 35.2919 5.57034 35.1479 5.33834C35.0119 5.10634 34.9439 4.80634 34.9439 4.43834C34.9439 4.03034 35.0599 3.67034 35.2919 3.35834C35.5319 3.04634 35.8759 2.80234 36.3239 2.62634C36.7719 2.44234 37.3079 2.35034 37.9319 2.35034C38.3719 2.35034 38.8199 2.39834 39.2759 2.49434C39.7319 2.59034 40.1119 2.73034 40.4159 2.91434L39.7919 4.24634C39.4799 4.06234 39.1639 3.93834 38.8439 3.87434C38.5319 3.80234 38.2279 3.76634 37.9319 3.76634C37.5159 3.76634 37.2119 3.82234 37.0199 3.93434C36.8279 4.04634 36.7319 4.19034 36.7319 4.36634C36.7319 4.52634 36.7999 4.64634 36.9359 4.72634C37.0799 4.80634 37.2679 4.87034 37.4999 4.91834C37.7319 4.96634 37.9839 5.01034 38.2559 5.05034C38.5359 5.08234 38.8159 5.13434 39.0959 5.20634C39.3759 5.27834 39.6279 5.38234 39.8519 5.51834C40.0839 5.64634 40.2719 5.82634 40.4159 6.05834C40.5599 6.28234 40.6319 6.57834 40.6319 6.94634C40.6319 7.34634 40.5119 7.70234 40.2719 8.01434C40.0319 8.31834 39.6839 8.55834 39.2279 8.73434C38.7799 8.91034 38.2319 8.99834 37.5839 8.99834Z" fill="#202020"/>
</svg>
