<svg width="138" height="15" viewBox="0 0 138 15" fill="none" xmlns="http://www.w3.org/2000/svg">
<path d="M0.920455 12V5.45455H1.92614V12H0.920455ZM1.43182 4.36364C1.2358 4.36364 1.06676 4.29688 0.924716 4.16335C0.785511 4.02983 0.715909 3.86932 0.715909 3.68182C0.715909 3.49432 0.785511 3.33381 0.924716 3.20028C1.06676 3.06676 1.2358 3 1.43182 3C1.62784 3 1.79545 3.06676 1.93466 3.20028C2.0767 3.33381 2.14773 3.49432 2.14773 3.68182C2.14773 3.86932 2.0767 4.02983 1.93466 4.16335C1.79545 4.29688 1.62784 4.36364 1.43182 4.36364ZM4.77379 8.0625V12H3.76811V5.45455H4.7397V6.47727H4.82493C4.97834 6.14489 5.21129 5.87784 5.52379 5.67614C5.83629 5.47159 6.2397 5.36932 6.73402 5.36932C7.1772 5.36932 7.56499 5.46023 7.89737 5.64205C8.22976 5.82102 8.48828 6.09375 8.67294 6.46023C8.8576 6.82386 8.94993 7.28409 8.94993 7.84091V12H7.94425V7.90909C7.94425 7.39489 7.81072 6.99432 7.54368 6.70739C7.27663 6.41761 6.91016 6.27273 6.44425 6.27273C6.12322 6.27273 5.83629 6.34233 5.58345 6.48153C5.33345 6.62074 5.13601 6.82386 4.99112 7.09091C4.84624 7.35795 4.77379 7.68182 4.77379 8.0625ZM13.7024 5.45455V6.30682H10.174V5.45455H13.7024ZM11.2308 12V4.55114C11.2308 4.17614 11.3189 3.86364 11.495 3.61364C11.6712 3.36364 11.8999 3.17614 12.1811 3.05114C12.4624 2.92614 12.7592 2.86364 13.0717 2.86364C13.3189 2.86364 13.5206 2.88352 13.6768 2.9233C13.8331 2.96307 13.9496 3 14.0263 3.03409L13.7365 3.90341C13.6854 3.88636 13.6143 3.86506 13.5234 3.83949C13.4354 3.81392 13.3189 3.80114 13.174 3.80114C12.8416 3.80114 12.6016 3.88494 12.4538 4.05256C12.3089 4.22017 12.2365 4.46591 12.2365 4.78977V12H11.2308ZM17.5014 12.1364C16.9105 12.1364 16.392 11.9957 15.946 11.7145C15.5028 11.4332 15.1562 11.0398 14.9062 10.5341C14.6591 10.0284 14.5355 9.4375 14.5355 8.76136C14.5355 8.07955 14.6591 7.48437 14.9062 6.97585C15.1562 6.46733 15.5028 6.07244 15.946 5.79119C16.392 5.50994 16.9105 5.36932 17.5014 5.36932C18.0923 5.36932 18.6094 5.50994 19.0526 5.79119C19.4986 6.07244 19.8452 6.46733 20.0923 6.97585C20.3423 7.48437 20.4673 8.07955 20.4673 8.76136C20.4673 9.4375 20.3423 10.0284 20.0923 10.5341C19.8452 11.0398 19.4986 11.4332 19.0526 11.7145C18.6094 11.9957 18.0923 12.1364 17.5014 12.1364ZM17.5014 11.233C17.9503 11.233 18.3196 11.1179 18.6094 10.8878C18.8991 10.6577 19.1136 10.3551 19.2528 9.98011C19.392 9.60511 19.4616 9.19886 19.4616 8.76136C19.4616 8.32386 19.392 7.91619 19.2528 7.53835C19.1136 7.16051 18.8991 6.85511 18.6094 6.62216C18.3196 6.3892 17.9503 6.27273 17.5014 6.27273C17.0526 6.27273 16.6832 6.3892 16.3935 6.62216C16.1037 6.85511 15.8892 7.16051 15.75 7.53835C15.6108 7.91619 15.5412 8.32386 15.5412 8.76136C15.5412 9.19886 15.6108 9.60511 15.75 9.98011C15.8892 10.3551 16.1037 10.6577 16.3935 10.8878C16.6832 11.1179 17.0526 11.233 17.5014 11.233ZM27.0309 14.3011C26.1616 14.3011 25.3931 14.1818 24.7255 13.9432C24.0579 13.7074 23.4968 13.3594 23.0423 12.8991C22.5877 12.4389 22.244 11.875 22.011 11.2074C21.7781 10.5398 21.6616 9.77557 21.6616 8.91477C21.6616 8.08239 21.7795 7.33807 22.0153 6.68182C22.2539 6.02557 22.5991 5.46875 23.0508 5.01136C23.5053 4.55114 24.0565 4.20028 24.7042 3.95881C25.3548 3.71733 26.0906 3.59659 26.9116 3.59659C27.7099 3.59659 28.4087 3.72727 29.0082 3.98864C29.6104 4.24716 30.1133 4.59801 30.5167 5.04119C30.9229 5.48153 31.2269 5.97727 31.4286 6.52841C31.6332 7.07955 31.7354 7.64773 31.7354 8.23295C31.7354 8.64489 31.7156 9.0625 31.6758 9.4858C31.636 9.90909 31.5522 10.2983 31.4244 10.6534C31.2965 11.0057 31.0991 11.2898 30.832 11.5057C30.5678 11.7216 30.2099 11.8295 29.7582 11.8295C29.5593 11.8295 29.3406 11.7983 29.1019 11.7358C28.8633 11.6733 28.6516 11.5696 28.467 11.4247C28.2823 11.2798 28.1729 11.0852 28.1388 10.8409H28.0877C28.0195 11.0057 27.9144 11.1619 27.7724 11.3097C27.6332 11.4574 27.4499 11.5753 27.2227 11.6634C26.9982 11.7514 26.7241 11.7898 26.4002 11.7784C26.0309 11.7642 25.7056 11.6818 25.4244 11.5312C25.1431 11.3778 24.9073 11.1705 24.717 10.9091C24.5295 10.6449 24.3874 10.3395 24.2908 9.9929C24.1971 9.64347 24.1502 9.26705 24.1502 8.86364C24.1502 8.48011 24.207 8.12926 24.3207 7.81108C24.4343 7.4929 24.592 7.21449 24.7937 6.97585C24.9982 6.73722 25.2369 6.54687 25.5096 6.40483C25.7852 6.25994 26.082 6.17045 26.4002 6.13636C26.6843 6.10795 26.9428 6.12074 27.1758 6.17472C27.4087 6.22585 27.6005 6.30398 27.7511 6.40909C27.9016 6.51136 27.9968 6.625 28.0366 6.75H28.0877V6.27273H28.9911V10.125C28.9911 10.3636 29.0579 10.5739 29.1914 10.7557C29.3249 10.9375 29.5195 11.0284 29.7752 11.0284C30.065 11.0284 30.2866 10.929 30.44 10.7301C30.5962 10.5312 30.7028 10.2244 30.7596 9.80966C30.8192 9.39489 30.8491 8.86364 30.8491 8.21591C30.8491 7.83523 30.7965 7.46023 30.6914 7.09091C30.5891 6.71875 30.4329 6.37074 30.2227 6.04688C30.0153 5.72301 29.7525 5.4375 29.4343 5.19034C29.1161 4.94318 28.7425 4.75 28.3136 4.6108C27.8874 4.46875 27.4031 4.39773 26.8604 4.39773C26.1928 4.39773 25.5948 4.50142 25.0664 4.70881C24.5408 4.91335 24.0934 5.21307 23.7241 5.60795C23.3576 6 23.0778 6.47727 22.8846 7.03977C22.6942 7.59943 22.5991 8.2358 22.5991 8.94886C22.5991 9.6733 22.6942 10.3168 22.8846 10.8793C23.0778 11.4418 23.3619 11.9162 23.7369 12.3026C24.1147 12.6889 24.582 12.9815 25.1388 13.1804C25.6957 13.3821 26.3377 13.483 27.065 13.483C27.3775 13.483 27.6857 13.4531 27.9897 13.3935C28.2937 13.3338 28.5621 13.2685 28.7951 13.1974C29.0281 13.1264 29.1957 13.0739 29.2979 13.0398L29.5366 13.8239C29.3604 13.8977 29.1303 13.9716 28.8462 14.0455C28.565 14.1193 28.2638 14.1804 27.9428 14.2287C27.6246 14.277 27.3207 14.3011 27.0309 14.3011ZM26.5366 10.9091C26.9173 10.9091 27.2255 10.8324 27.4613 10.679C27.6971 10.5256 27.869 10.294 27.9769 9.98438C28.0849 9.67472 28.1388 9.28409 28.1388 8.8125C28.1388 8.33523 28.0792 7.96307 27.9599 7.69602C27.8406 7.42898 27.6644 7.24148 27.4315 7.13352C27.1985 7.02557 26.9116 6.97159 26.5707 6.97159C26.2468 6.97159 25.9698 7.05682 25.7397 7.22727C25.5124 7.39489 25.3377 7.61932 25.2156 7.90057C25.0962 8.17898 25.0366 8.48295 25.0366 8.8125C25.0366 9.17614 25.0849 9.51847 25.1815 9.83949C25.2781 10.1577 25.4357 10.4162 25.6545 10.6151C25.8732 10.8111 26.1673 10.9091 26.5366 10.9091ZM35.1669 12.1534C34.7521 12.1534 34.3757 12.0753 34.0376 11.919C33.6996 11.7599 33.4311 11.5312 33.2322 11.233C33.0334 10.9318 32.9339 10.5682 32.9339 10.142C32.9339 9.76705 33.0078 9.46307 33.1555 9.23011C33.3033 8.99432 33.5007 8.80966 33.7479 8.67614C33.995 8.54261 34.2678 8.44318 34.5661 8.37784C34.8672 8.30966 35.1697 8.25568 35.4737 8.21591C35.8714 8.16477 36.1939 8.12642 36.4411 8.10085C36.6911 8.07244 36.8729 8.02557 36.9865 7.96023C37.103 7.89489 37.1612 7.78125 37.1612 7.61932V7.58523C37.1612 7.16477 37.0462 6.83807 36.8161 6.60511C36.5888 6.37216 36.2436 6.25568 35.7805 6.25568C35.3004 6.25568 34.924 6.3608 34.6513 6.57102C34.3786 6.78125 34.1868 7.00568 34.076 7.24432L33.1214 6.90341C33.2919 6.50568 33.5192 6.19602 33.8033 5.97443C34.0902 5.75 34.4027 5.59375 34.7408 5.50568C35.0817 5.41477 35.4169 5.36932 35.7464 5.36932C35.9567 5.36932 36.1982 5.39489 36.4709 5.44602C36.7464 5.49432 37.0121 5.59517 37.2678 5.74858C37.5263 5.90199 37.7408 6.13352 37.9112 6.44318C38.0817 6.75284 38.1669 7.16761 38.1669 7.6875V12H37.1612V11.1136H37.1101C37.0419 11.2557 36.9283 11.4077 36.7692 11.5696C36.6101 11.7315 36.3984 11.8693 36.1342 11.983C35.87 12.0966 35.5476 12.1534 35.1669 12.1534ZM35.3203 11.25C35.718 11.25 36.0533 11.1719 36.326 11.0156C36.6016 10.8594 36.8089 10.6577 36.9482 10.4105C37.0902 10.1634 37.1612 9.90341 37.1612 9.63068V8.71023C37.1186 8.76136 37.0249 8.80824 36.88 8.85085C36.7379 8.89062 36.5732 8.92614 36.3857 8.95739C36.201 8.9858 36.0206 9.01136 35.8445 9.03409C35.6712 9.05398 35.5305 9.07102 35.4226 9.08523C35.1612 9.11932 34.9169 9.17472 34.6896 9.25142C34.4652 9.32528 34.2834 9.4375 34.1442 9.58807C34.0078 9.7358 33.9396 9.9375 33.9396 10.1932C33.9396 10.5426 34.0689 10.8068 34.3274 10.9858C34.5888 11.1619 34.9197 11.25 35.3203 11.25ZM42.4741 12.1364C41.9286 12.1364 41.4471 11.9986 41.0295 11.723C40.6119 11.4446 40.2852 11.0526 40.0494 10.5469C39.8136 10.0384 39.6957 9.4375 39.6957 8.74432C39.6957 8.05682 39.8136 7.46023 40.0494 6.95455C40.2852 6.44886 40.6133 6.05824 41.0337 5.78267C41.4542 5.5071 41.94 5.36932 42.4911 5.36932C42.9173 5.36932 43.2539 5.44034 43.5011 5.58239C43.7511 5.72159 43.9414 5.88068 44.0721 6.05966C44.2056 6.2358 44.3093 6.38068 44.3832 6.49432H44.4684V3.27273H45.4741V12H44.5025V10.9943H44.3832C44.3093 11.1136 44.2042 11.2642 44.0678 11.446C43.9315 11.625 43.7369 11.7855 43.484 11.9276C43.2312 12.0668 42.8945 12.1364 42.4741 12.1364ZM42.6104 11.233C43.0138 11.233 43.3548 11.1278 43.6332 10.9176C43.9116 10.7045 44.1232 10.4105 44.2681 10.0355C44.413 9.65767 44.4854 9.22159 44.4854 8.72727C44.4854 8.23864 44.4144 7.81108 44.2724 7.4446C44.1303 7.07528 43.9201 6.78835 43.6417 6.58381C43.3633 6.37642 43.0195 6.27273 42.6104 6.27273C42.1843 6.27273 41.8292 6.3821 41.5451 6.60085C41.2638 6.81676 41.0522 7.1108 40.9102 7.48295C40.771 7.85227 40.7013 8.26705 40.7013 8.72727C40.7013 9.19318 40.7724 9.61648 40.9144 9.99716C41.0593 10.375 41.2724 10.6761 41.5536 10.9006C41.8377 11.1222 42.19 11.233 42.6104 11.233ZM50.1999 12.1364C49.5692 12.1364 49.0252 11.9972 48.5678 11.7188C48.1133 11.4375 47.7624 11.0455 47.5153 10.5426C47.271 10.0369 47.1488 9.44886 47.1488 8.77841C47.1488 8.10795 47.271 7.51705 47.5153 7.00568C47.7624 6.49148 48.1062 6.09091 48.5465 5.80398C48.9897 5.5142 49.5067 5.36932 50.0977 5.36932C50.4386 5.36932 50.7752 5.42614 51.1076 5.53977C51.44 5.65341 51.7425 5.83807 52.0153 6.09375C52.288 6.34659 52.5053 6.68182 52.6673 7.09943C52.8292 7.51705 52.9102 8.03125 52.9102 8.64205V9.06818H47.8647V8.19886H51.8874C51.8874 7.82955 51.8136 7.5 51.6658 7.21023C51.521 6.92045 51.3136 6.69176 51.0437 6.52415C50.7766 6.35653 50.4613 6.27273 50.0977 6.27273C49.6971 6.27273 49.3505 6.37216 49.0579 6.57102C48.7681 6.76705 48.5451 7.02273 48.3888 7.33807C48.2326 7.65341 48.1545 7.99148 48.1545 8.35227V8.93182C48.1545 9.42614 48.2397 9.84517 48.4102 10.1889C48.5835 10.5298 48.8235 10.7898 49.1303 10.9688C49.4371 11.1449 49.7937 11.233 50.1999 11.233C50.4641 11.233 50.7028 11.196 50.9158 11.1222C51.1317 11.0455 51.3178 10.9318 51.4741 10.7812C51.6303 10.6278 51.7511 10.4375 51.8363 10.2102L52.8079 10.483C52.7056 10.8125 52.5337 11.1023 52.2923 11.3523C52.0508 11.5994 51.7525 11.7926 51.3974 11.9318C51.0423 12.0682 50.6431 12.1364 50.1999 12.1364ZM57.0991 12.1364C56.4854 12.1364 55.957 11.9915 55.5138 11.7017C55.0707 11.4119 54.7298 11.0128 54.4911 10.5043C54.2525 9.99574 54.1332 9.41477 54.1332 8.76136C54.1332 8.09659 54.2553 7.50994 54.4996 7.00142C54.7468 6.49006 55.0906 6.09091 55.5309 5.80398C55.9741 5.5142 56.4911 5.36932 57.082 5.36932C57.5423 5.36932 57.957 5.45455 58.3263 5.625C58.6957 5.79545 58.9982 6.03409 59.234 6.34091C59.4698 6.64773 59.6161 7.00568 59.6729 7.41477H58.6673C58.5906 7.11648 58.4201 6.85227 58.1559 6.62216C57.8945 6.3892 57.5423 6.27273 57.0991 6.27273C56.707 6.27273 56.3633 6.375 56.0678 6.57955C55.7752 6.78125 55.5465 7.06676 55.3817 7.43608C55.2198 7.80256 55.1388 8.23295 55.1388 8.72727C55.1388 9.23295 55.2184 9.6733 55.3775 10.0483C55.5394 10.4233 55.7667 10.7145 56.0593 10.9219C56.3548 11.1293 56.7013 11.233 57.0991 11.233C57.3604 11.233 57.5977 11.1875 57.8107 11.0966C58.0238 11.0057 58.2042 10.875 58.3519 10.7045C58.4996 10.5341 58.6048 10.3295 58.6673 10.0909H59.6729C59.6161 10.4773 59.4755 10.8253 59.2511 11.1349C59.0295 11.4418 58.7354 11.6861 58.369 11.8679C58.0053 12.0469 57.582 12.1364 57.0991 12.1364ZM63.8022 12.1364C63.2113 12.1364 62.6928 11.9957 62.2468 11.7145C61.8036 11.4332 61.457 11.0398 61.207 10.5341C60.9599 10.0284 60.8363 9.4375 60.8363 8.76136C60.8363 8.07955 60.9599 7.48437 61.207 6.97585C61.457 6.46733 61.8036 6.07244 62.2468 5.79119C62.6928 5.50994 63.2113 5.36932 63.8022 5.36932C64.3931 5.36932 64.9102 5.50994 65.3533 5.79119C65.7994 6.07244 66.146 6.46733 66.3931 6.97585C66.6431 7.48437 66.7681 8.07955 66.7681 8.76136C66.7681 9.4375 66.6431 10.0284 66.3931 10.5341C66.146 11.0398 65.7994 11.4332 65.3533 11.7145C64.9102 11.9957 64.3931 12.1364 63.8022 12.1364ZM63.8022 11.233C64.2511 11.233 64.6204 11.1179 64.9102 10.8878C65.1999 10.6577 65.4144 10.3551 65.5536 9.98011C65.6928 9.60511 65.7624 9.19886 65.7624 8.76136C65.7624 8.32386 65.6928 7.91619 65.5536 7.53835C65.4144 7.16051 65.1999 6.85511 64.9102 6.62216C64.6204 6.3892 64.2511 6.27273 63.8022 6.27273C63.3533 6.27273 62.984 6.3892 62.6942 6.62216C62.4045 6.85511 62.19 7.16051 62.0508 7.53835C61.9116 7.91619 61.842 8.32386 61.842 8.76136C61.842 9.19886 61.9116 9.60511 62.0508 9.98011C62.19 10.3551 62.4045 10.6577 62.6942 10.8878C62.984 11.1179 63.3533 11.233 63.8022 11.233ZM71.0476 12.1364C70.4169 12.1364 69.8729 11.9972 69.4155 11.7188C68.9609 11.4375 68.6101 11.0455 68.3629 10.5426C68.1186 10.0369 67.9964 9.44886 67.9964 8.77841C67.9964 8.10795 68.1186 7.51705 68.3629 7.00568C68.6101 6.49148 68.9538 6.09091 69.3942 5.80398C69.8374 5.5142 70.3544 5.36932 70.9453 5.36932C71.2862 5.36932 71.6229 5.42614 71.9553 5.53977C72.2876 5.65341 72.5902 5.83807 72.8629 6.09375C73.1357 6.34659 73.353 6.68182 73.5149 7.09943C73.6768 7.51705 73.7578 8.03125 73.7578 8.64205V9.06818H68.7124V8.19886H72.7351C72.7351 7.82955 72.6612 7.5 72.5135 7.21023C72.3686 6.92045 72.1612 6.69176 71.8913 6.52415C71.6243 6.35653 71.3089 6.27273 70.9453 6.27273C70.5447 6.27273 70.1982 6.37216 69.9055 6.57102C69.6158 6.76705 69.3928 7.02273 69.2365 7.33807C69.0803 7.65341 69.0021 7.99148 69.0021 8.35227V8.93182C69.0021 9.42614 69.0874 9.84517 69.2578 10.1889C69.4311 10.5298 69.6712 10.7898 69.978 10.9688C70.2848 11.1449 70.6413 11.233 71.0476 11.233C71.3118 11.233 71.5504 11.196 71.7635 11.1222C71.9794 11.0455 72.1655 10.9318 72.3217 10.7812C72.478 10.6278 72.5987 10.4375 72.6839 10.2102L73.6555 10.483C73.5533 10.8125 73.3814 11.1023 73.1399 11.3523C72.8984 11.5994 72.6001 11.7926 72.245 11.9318C71.8899 12.0682 71.4908 12.1364 71.0476 12.1364ZM76.2933 8.0625V12H75.2876V5.45455H76.2592V6.47727H76.3445C76.4979 6.14489 76.7308 5.87784 77.0433 5.67614C77.3558 5.47159 77.7592 5.36932 78.2536 5.36932C78.6967 5.36932 79.0845 5.46023 79.4169 5.64205C79.7493 5.82102 80.0078 6.09375 80.1925 6.46023C80.3771 6.82386 80.4695 7.28409 80.4695 7.84091V12H79.4638V7.90909C79.4638 7.39489 79.3303 6.99432 79.0632 6.70739C78.7962 6.41761 78.4297 6.27273 77.9638 6.27273C77.6428 6.27273 77.3558 6.34233 77.103 6.48153C76.853 6.62074 76.6555 6.82386 76.5107 7.09091C76.3658 7.35795 76.2933 7.68182 76.2933 8.0625ZM85.0515 12.1364C84.4208 12.1364 83.8768 11.9972 83.4194 11.7188C82.9648 11.4375 82.614 11.0455 82.3668 10.5426C82.1225 10.0369 82.0004 9.44886 82.0004 8.77841C82.0004 8.10795 82.1225 7.51705 82.3668 7.00568C82.614 6.49148 82.9577 6.09091 83.3981 5.80398C83.8413 5.5142 84.3583 5.36932 84.9492 5.36932C85.2901 5.36932 85.6268 5.42614 85.9592 5.53977C86.2915 5.65341 86.5941 5.83807 86.8668 6.09375C87.1396 6.34659 87.3569 6.68182 87.5188 7.09943C87.6808 7.51705 87.7617 8.03125 87.7617 8.64205V9.06818H82.7163V8.19886H86.739C86.739 7.82955 86.6651 7.5 86.5174 7.21023C86.3725 6.92045 86.1651 6.69176 85.8952 6.52415C85.6282 6.35653 85.3129 6.27273 84.9492 6.27273C84.5487 6.27273 84.2021 6.37216 83.9094 6.57102C83.6197 6.76705 83.3967 7.02273 83.2404 7.33807C83.0842 7.65341 83.006 7.99148 83.006 8.35227V8.93182C83.006 9.42614 83.0913 9.84517 83.2617 10.1889C83.435 10.5298 83.6751 10.7898 83.9819 10.9688C84.2887 11.1449 84.6452 11.233 85.0515 11.233C85.3157 11.233 85.5543 11.196 85.7674 11.1222C85.9833 11.0455 86.1694 10.9318 86.3256 10.7812C86.4819 10.6278 86.6026 10.4375 86.6879 10.2102L87.6594 10.483C87.5572 10.8125 87.3853 11.1023 87.1438 11.3523C86.9023 11.5994 86.604 11.7926 86.2489 11.9318C85.8938 12.0682 85.4947 12.1364 85.0515 12.1364ZM89.2915 12V5.45455H90.2631V6.44318H90.3313C90.4506 6.11932 90.6665 5.85653 90.979 5.65483C91.2915 5.45312 91.6438 5.35227 92.0359 5.35227C92.1097 5.35227 92.2021 5.35369 92.3129 5.35653C92.4237 5.35937 92.5075 5.36364 92.5643 5.36932V6.39205C92.5302 6.38352 92.4521 6.37074 92.3299 6.35369C92.2106 6.33381 92.0842 6.32386 91.9506 6.32386C91.6325 6.32386 91.3484 6.39062 91.0984 6.52415C90.8512 6.65483 90.6552 6.83665 90.5103 7.0696C90.3683 7.29972 90.2972 7.5625 90.2972 7.85795V12H89.2915ZM96.1992 14.5909C95.7134 14.5909 95.2958 14.5284 94.9464 14.4034C94.5969 14.2812 94.3058 14.1193 94.0728 13.9176C93.8427 13.7188 93.6594 13.5057 93.5231 13.2784L94.3242 12.7159C94.4151 12.8352 94.5302 12.9716 94.6694 13.125C94.8086 13.2812 94.9989 13.4162 95.2404 13.5298C95.4847 13.6463 95.8043 13.7045 96.1992 13.7045C96.7276 13.7045 97.1637 13.5767 97.5075 13.321C97.8512 13.0653 98.0231 12.6648 98.0231 12.1193V10.7898H97.9379C97.864 10.9091 97.7589 11.0568 97.6225 11.233C97.489 11.4062 97.2958 11.5611 97.043 11.6974C96.793 11.831 96.4549 11.8977 96.0288 11.8977C95.5004 11.8977 95.0259 11.7727 94.6055 11.5227C94.1879 11.2727 93.8569 10.9091 93.6126 10.4318C93.3711 9.95455 93.2504 9.375 93.2504 8.69318C93.2504 8.02273 93.3683 7.43892 93.604 6.94176C93.8398 6.44176 94.168 6.0554 94.5884 5.78267C95.0089 5.5071 95.4947 5.36932 96.0458 5.36932C96.4719 5.36932 96.81 5.44034 97.06 5.58239C97.3129 5.72159 97.506 5.88068 97.6396 6.05966C97.7759 6.2358 97.881 6.38068 97.9549 6.49432H98.0572V5.45455H99.0288V12.1875C99.0288 12.75 98.9009 13.2074 98.6452 13.5597C98.3924 13.9148 98.0515 14.1747 97.6225 14.3395C97.1964 14.5071 96.7219 14.5909 96.1992 14.5909ZM96.1651 10.9943C96.5685 10.9943 96.9094 10.902 97.1879 10.7173C97.4663 10.5327 97.6779 10.267 97.8228 9.92045C97.9677 9.57386 98.0401 9.15909 98.0401 8.67614C98.0401 8.20455 97.9691 7.78835 97.8271 7.42756C97.685 7.06676 97.4748 6.78409 97.1964 6.57955C96.918 6.375 96.5742 6.27273 96.1651 6.27273C95.739 6.27273 95.3839 6.38068 95.0998 6.59659C94.8185 6.8125 94.6069 7.10227 94.4648 7.46591C94.3256 7.82955 94.256 8.23295 94.256 8.67614C94.256 9.13068 94.3271 9.53267 94.4691 9.8821C94.614 10.2287 94.8271 10.5014 95.1083 10.7003C95.3924 10.8963 95.7447 10.9943 96.1651 10.9943ZM101.517 14.4545C101.347 14.4545 101.195 14.4403 101.061 14.4119C100.928 14.3864 100.836 14.3608 100.784 14.3352L101.04 13.4489C101.284 13.5114 101.5 13.5341 101.688 13.517C101.875 13.5 102.042 13.4162 102.186 13.2656C102.334 13.1179 102.469 12.8778 102.591 12.5455L102.779 12.0341L100.358 5.45455H101.449L103.256 10.6705H103.324L105.131 5.45455H106.222L103.444 12.9545C103.319 13.2926 103.164 13.5724 102.979 13.794C102.794 14.0185 102.58 14.1847 102.336 14.2926C102.094 14.4006 101.821 14.4545 101.517 14.4545ZM107.872 12.0682C107.662 12.0682 107.482 11.9929 107.331 11.8423C107.18 11.6918 107.105 11.5114 107.105 11.3011C107.105 11.0909 107.18 10.9105 107.331 10.7599C107.482 10.6094 107.662 10.5341 107.872 10.5341C108.082 10.5341 108.263 10.6094 108.413 10.7599C108.564 10.9105 108.639 11.0909 108.639 11.3011C108.639 11.4403 108.604 11.5682 108.533 11.6847C108.464 11.8011 108.372 11.8949 108.256 11.9659C108.142 12.0341 108.014 12.0682 107.872 12.0682ZM110.444 12V5.45455H111.45V12H110.444ZM110.955 4.36364C110.759 4.36364 110.59 4.29688 110.448 4.16335C110.309 4.02983 110.239 3.86932 110.239 3.68182C110.239 3.49432 110.309 3.33381 110.448 3.20028C110.59 3.06676 110.759 3 110.955 3C111.151 3 111.319 3.06676 111.458 3.20028C111.6 3.33381 111.671 3.49432 111.671 3.68182C111.671 3.86932 111.6 4.02983 111.458 4.16335C111.319 4.29688 111.151 4.36364 110.955 4.36364ZM114.297 8.0625V12H113.292V5.45455H114.263V6.47727H114.348C114.502 6.14489 114.735 5.87784 115.047 5.67614C115.36 5.47159 115.763 5.36932 116.257 5.36932C116.701 5.36932 117.088 5.46023 117.421 5.64205C117.753 5.82102 118.012 6.09375 118.196 6.46023C118.381 6.82386 118.473 7.28409 118.473 7.84091V12H117.468V7.90909C117.468 7.39489 117.334 6.99432 117.067 6.70739C116.8 6.41761 116.434 6.27273 115.968 6.27273C115.647 6.27273 115.36 6.34233 115.107 6.48153C114.857 6.62074 114.659 6.82386 114.515 7.09091C114.37 7.35795 114.297 7.68182 114.297 8.0625Z" fill="#202020"/>
</svg>
