<svg width="138" height="15" viewBox="0 0 138 15" fill="none" xmlns="http://www.w3.org/2000/svg">
<path d="M6.27273 5.45455L3.85227 12H2.82955L0.409091 5.45455H1.5L3.30682 10.6705H3.375L5.18182 5.45455H6.27273ZM7.60014 12V5.45455H8.60582V12H7.60014ZM8.11151 4.36364C7.91548 4.36364 7.74645 4.29688 7.6044 4.16335C7.4652 4.02983 7.3956 3.86932 7.3956 3.68182C7.3956 3.49432 7.4652 3.33381 7.6044 3.20028C7.74645 3.06676 7.91548 3 8.11151 3C8.30753 3 8.47514 3.06676 8.61435 3.20028C8.75639 3.33381 8.82741 3.49432 8.82741 3.68182C8.82741 3.86932 8.75639 4.02983 8.61435 4.16335C8.47514 4.29688 8.30753 4.36364 8.11151 4.36364ZM11.4535 8.0625V12H10.4478V5.45455H11.4194V6.47727H11.5046C11.658 6.14489 11.891 5.87784 12.2035 5.67614C12.516 5.47159 12.9194 5.36932 13.4137 5.36932C13.8569 5.36932 14.2447 5.46023 14.5771 5.64205C14.9094 5.82102 15.168 6.09375 15.3526 6.46023C15.5373 6.82386 15.6296 7.28409 15.6296 7.84091V12H14.6239V7.90909C14.6239 7.39489 14.4904 6.99432 14.2234 6.70739C13.9563 6.41761 13.5898 6.27273 13.1239 6.27273C12.8029 6.27273 12.516 6.34233 12.2631 6.48153C12.0131 6.62074 11.8157 6.82386 11.6708 7.09091C11.5259 7.35795 11.4535 7.68182 11.4535 8.0625ZM20.1264 12.1364C19.5355 12.1364 19.017 11.9957 18.571 11.7145C18.1278 11.4332 17.7812 11.0398 17.5312 10.5341C17.2841 10.0284 17.1605 9.4375 17.1605 8.76136C17.1605 8.07955 17.2841 7.48437 17.5312 6.97585C17.7812 6.46733 18.1278 6.07244 18.571 5.79119C19.017 5.50994 19.5355 5.36932 20.1264 5.36932C20.7173 5.36932 21.2344 5.50994 21.6776 5.79119C22.1236 6.07244 22.4702 6.46733 22.7173 6.97585C22.9673 7.48437 23.0923 8.07955 23.0923 8.76136C23.0923 9.4375 22.9673 10.0284 22.7173 10.5341C22.4702 11.0398 22.1236 11.4332 21.6776 11.7145C21.2344 11.9957 20.7173 12.1364 20.1264 12.1364ZM20.1264 11.233C20.5753 11.233 20.9446 11.1179 21.2344 10.8878C21.5241 10.6577 21.7386 10.3551 21.8778 9.98011C22.017 9.60511 22.0866 9.19886 22.0866 8.76136C22.0866 8.32386 22.017 7.91619 21.8778 7.53835C21.7386 7.16051 21.5241 6.85511 21.2344 6.62216C20.9446 6.3892 20.5753 6.27273 20.1264 6.27273C19.6776 6.27273 19.3082 6.3892 19.0185 6.62216C18.7287 6.85511 18.5142 7.16051 18.375 7.53835C18.2358 7.91619 18.1662 8.32386 18.1662 8.76136C18.1662 9.19886 18.2358 9.60511 18.375 9.98011C18.5142 10.3551 18.7287 10.6577 19.0185 10.8878C19.3082 11.1179 19.6776 11.233 20.1264 11.233ZM27.4741 5.45455V6.30682H24.082V5.45455H27.4741ZM25.0707 3.88636H26.0763V10.125C26.0763 10.4091 26.1175 10.6222 26.1999 10.7642C26.2852 10.9034 26.3931 10.9972 26.5238 11.0455C26.6573 11.0909 26.7979 11.1136 26.9457 11.1136C27.0565 11.1136 27.1474 11.108 27.2184 11.0966C27.2894 11.0824 27.3462 11.071 27.3888 11.0625L27.5934 11.9659C27.5252 11.9915 27.43 12.017 27.3079 12.0426C27.1857 12.071 27.0309 12.0852 26.8434 12.0852C26.5593 12.0852 26.2809 12.0241 26.0082 11.902C25.7383 11.7798 25.5138 11.5938 25.3349 11.3438C25.1587 11.0938 25.0707 10.7784 25.0707 10.3977V3.88636ZM30.1332 8.0625V12H29.1275V3.27273H30.1332V6.47727H30.2184C30.3718 6.1392 30.6019 5.87074 30.9087 5.67188C31.2184 5.47017 31.6303 5.36932 32.1445 5.36932C32.5906 5.36932 32.9812 5.45881 33.3164 5.63778C33.6516 5.81392 33.9116 6.08523 34.0962 6.4517C34.2837 6.81534 34.3775 7.27841 34.3775 7.84091V12H33.3718V7.90909C33.3718 7.3892 33.2369 6.98722 32.967 6.70312C32.6999 6.41619 32.3292 6.27273 31.8548 6.27273C31.5252 6.27273 31.2298 6.34233 30.9684 6.48153C30.7099 6.62074 30.5053 6.82386 30.3548 7.09091C30.207 7.35795 30.1332 7.68182 30.1332 8.0625ZM41.2457 14.3011C40.3764 14.3011 39.608 14.1818 38.9403 13.9432C38.2727 13.7074 37.7116 13.3594 37.2571 12.8991C36.8026 12.4389 36.4588 11.875 36.2259 11.2074C35.9929 10.5398 35.8764 9.77557 35.8764 8.91477C35.8764 8.08239 35.9943 7.33807 36.2301 6.68182C36.4688 6.02557 36.8139 5.46875 37.2656 5.01136C37.7202 4.55114 38.2713 4.20028 38.919 3.95881C39.5696 3.71733 40.3054 3.59659 41.1264 3.59659C41.9247 3.59659 42.6236 3.72727 43.223 3.98864C43.8253 4.24716 44.3281 4.59801 44.7315 5.04119C45.1378 5.48153 45.4418 5.97727 45.6435 6.52841C45.848 7.07955 45.9503 7.64773 45.9503 8.23295C45.9503 8.64489 45.9304 9.0625 45.8906 9.4858C45.8509 9.90909 45.767 10.2983 45.6392 10.6534C45.5114 11.0057 45.3139 11.2898 45.0469 11.5057C44.7827 11.7216 44.4247 11.8295 43.973 11.8295C43.7741 11.8295 43.5554 11.7983 43.3168 11.7358C43.0781 11.6733 42.8665 11.5696 42.6818 11.4247C42.4972 11.2798 42.3878 11.0852 42.3537 10.8409H42.3026C42.2344 11.0057 42.1293 11.1619 41.9872 11.3097C41.848 11.4574 41.6648 11.5753 41.4375 11.6634C41.2131 11.7514 40.9389 11.7898 40.6151 11.7784C40.2457 11.7642 39.9205 11.6818 39.6392 11.5312C39.358 11.3778 39.1222 11.1705 38.9318 10.9091C38.7443 10.6449 38.6023 10.3395 38.5057 9.9929C38.4119 9.64347 38.3651 9.26705 38.3651 8.86364C38.3651 8.48011 38.4219 8.12926 38.5355 7.81108C38.6491 7.4929 38.8068 7.21449 39.0085 6.97585C39.2131 6.73722 39.4517 6.54687 39.7244 6.40483C40 6.25994 40.2969 6.17045 40.6151 6.13636C40.8991 6.10795 41.1577 6.12074 41.3906 6.17472C41.6236 6.22585 41.8153 6.30398 41.9659 6.40909C42.1165 6.51136 42.2116 6.625 42.2514 6.75H42.3026V6.27273H43.206V10.125C43.206 10.3636 43.2727 10.5739 43.4062 10.7557C43.5398 10.9375 43.7344 11.0284 43.9901 11.0284C44.2798 11.0284 44.5014 10.929 44.6548 10.7301C44.8111 10.5312 44.9176 10.2244 44.9744 9.80966C45.0341 9.39489 45.0639 8.86364 45.0639 8.21591C45.0639 7.83523 45.0114 7.46023 44.9062 7.09091C44.804 6.71875 44.6477 6.37074 44.4375 6.04688C44.2301 5.72301 43.9673 5.4375 43.6491 5.19034C43.331 4.94318 42.9574 4.75 42.5284 4.6108C42.1023 4.46875 41.6179 4.39773 41.0753 4.39773C40.4077 4.39773 39.8097 4.50142 39.2812 4.70881C38.7557 4.91335 38.3082 5.21307 37.9389 5.60795C37.5724 6 37.2926 6.47727 37.0994 7.03977C36.9091 7.59943 36.8139 8.2358 36.8139 8.94886C36.8139 9.6733 36.9091 10.3168 37.0994 10.8793C37.2926 11.4418 37.5767 11.9162 37.9517 12.3026C38.3295 12.6889 38.7969 12.9815 39.3537 13.1804C39.9105 13.3821 40.5526 13.483 41.2798 13.483C41.5923 13.483 41.9006 13.4531 42.2045 13.3935C42.5085 13.3338 42.777 13.2685 43.0099 13.1974C43.2429 13.1264 43.4105 13.0739 43.5128 13.0398L43.7514 13.8239C43.5753 13.8977 43.3452 13.9716 43.0611 14.0455C42.7798 14.1193 42.4787 14.1804 42.1577 14.2287C41.8395 14.277 41.5355 14.3011 41.2457 14.3011ZM40.7514 10.9091C41.1321 10.9091 41.4403 10.8324 41.6761 10.679C41.9119 10.5256 42.0838 10.294 42.1918 9.98438C42.2997 9.67472 42.3537 9.28409 42.3537 8.8125C42.3537 8.33523 42.294 7.96307 42.1747 7.69602C42.0554 7.42898 41.8793 7.24148 41.6463 7.13352C41.4134 7.02557 41.1264 6.97159 40.7855 6.97159C40.4616 6.97159 40.1847 7.05682 39.9545 7.22727C39.7273 7.39489 39.5526 7.61932 39.4304 7.90057C39.3111 8.17898 39.2514 8.48295 39.2514 8.8125C39.2514 9.17614 39.2997 9.51847 39.3963 9.83949C39.4929 10.1577 39.6506 10.4162 39.8693 10.6151C40.0881 10.8111 40.3821 10.9091 40.7514 10.9091ZM49.3817 12.1534C48.967 12.1534 48.5906 12.0753 48.2525 11.919C47.9144 11.7599 47.646 11.5312 47.4471 11.233C47.2482 10.9318 47.1488 10.5682 47.1488 10.142C47.1488 9.76705 47.2227 9.46307 47.3704 9.23011C47.5181 8.99432 47.7156 8.80966 47.9627 8.67614C48.2099 8.54261 48.4826 8.44318 48.7809 8.37784C49.082 8.30966 49.3846 8.25568 49.6886 8.21591C50.0863 8.16477 50.4087 8.12642 50.6559 8.10085C50.9059 8.07244 51.0877 8.02557 51.2013 7.96023C51.3178 7.89489 51.3761 7.78125 51.3761 7.61932V7.58523C51.3761 7.16477 51.261 6.83807 51.0309 6.60511C50.8036 6.37216 50.4585 6.25568 49.9954 6.25568C49.5153 6.25568 49.1388 6.3608 48.8661 6.57102C48.5934 6.78125 48.4016 7.00568 48.2908 7.24432L47.3363 6.90341C47.5067 6.50568 47.734 6.19602 48.0181 5.97443C48.305 5.75 48.6175 5.59375 48.9556 5.50568C49.2965 5.41477 49.6317 5.36932 49.9613 5.36932C50.1715 5.36932 50.413 5.39489 50.6857 5.44602C50.9613 5.49432 51.2269 5.59517 51.4826 5.74858C51.7411 5.90199 51.9556 6.13352 52.1261 6.44318C52.2965 6.75284 52.3817 7.16761 52.3817 7.6875V12H51.3761V11.1136H51.3249C51.2567 11.2557 51.1431 11.4077 50.984 11.5696C50.8249 11.7315 50.6133 11.8693 50.3491 11.983C50.0849 12.0966 49.7624 12.1534 49.3817 12.1534ZM49.5352 11.25C49.9329 11.25 50.2681 11.1719 50.5408 11.0156C50.8164 10.8594 51.0238 10.6577 51.163 10.4105C51.305 10.1634 51.3761 9.90341 51.3761 9.63068V8.71023C51.3335 8.76136 51.2397 8.80824 51.0948 8.85085C50.9528 8.89062 50.788 8.92614 50.6005 8.95739C50.4158 8.9858 50.2354 9.01136 50.0593 9.03409C49.886 9.05398 49.7454 9.07102 49.6374 9.08523C49.3761 9.11932 49.1317 9.17472 48.9045 9.25142C48.68 9.32528 48.4982 9.4375 48.359 9.58807C48.2227 9.7358 48.1545 9.9375 48.1545 10.1932C48.1545 10.5426 48.2837 10.8068 48.5423 10.9858C48.8036 11.1619 49.1346 11.25 49.5352 11.25ZM56.6889 12.1364C56.1435 12.1364 55.6619 11.9986 55.2443 11.723C54.8267 11.4446 54.5 11.0526 54.2642 10.5469C54.0284 10.0384 53.9105 9.4375 53.9105 8.74432C53.9105 8.05682 54.0284 7.46023 54.2642 6.95455C54.5 6.44886 54.8281 6.05824 55.2486 5.78267C55.669 5.5071 56.1548 5.36932 56.706 5.36932C57.1321 5.36932 57.4688 5.44034 57.7159 5.58239C57.9659 5.72159 58.1563 5.88068 58.2869 6.05966C58.4205 6.2358 58.5241 6.38068 58.598 6.49432H58.6832V3.27273H59.6889V12H58.7173V10.9943H58.598C58.5241 11.1136 58.419 11.2642 58.2827 11.446C58.1463 11.625 57.9517 11.7855 57.6989 11.9276C57.446 12.0668 57.1094 12.1364 56.6889 12.1364ZM56.8253 11.233C57.2287 11.233 57.5696 11.1278 57.848 10.9176C58.1264 10.7045 58.3381 10.4105 58.483 10.0355C58.6278 9.65767 58.7003 9.22159 58.7003 8.72727C58.7003 8.23864 58.6293 7.81108 58.4872 7.4446C58.3452 7.07528 58.1349 6.78835 57.8565 6.58381C57.5781 6.37642 57.2344 6.27273 56.8253 6.27273C56.3991 6.27273 56.044 6.3821 55.7599 6.60085C55.4787 6.81676 55.267 7.1108 55.125 7.48295C54.9858 7.85227 54.9162 8.26705 54.9162 8.72727C54.9162 9.19318 54.9872 9.61648 55.1293 9.99716C55.2741 10.375 55.4872 10.6761 55.7685 10.9006C56.0526 11.1222 56.4048 11.233 56.8253 11.233ZM64.4148 12.1364C63.7841 12.1364 63.2401 11.9972 62.7827 11.7188C62.3281 11.4375 61.9773 11.0455 61.7301 10.5426C61.4858 10.0369 61.3636 9.44886 61.3636 8.77841C61.3636 8.10795 61.4858 7.51705 61.7301 7.00568C61.9773 6.49148 62.321 6.09091 62.7614 5.80398C63.2045 5.5142 63.7216 5.36932 64.3125 5.36932C64.6534 5.36932 64.9901 5.42614 65.3224 5.53977C65.6548 5.65341 65.9574 5.83807 66.2301 6.09375C66.5028 6.34659 66.7202 6.68182 66.8821 7.09943C67.044 7.51705 67.125 8.03125 67.125 8.64205V9.06818H62.0795V8.19886H66.1023C66.1023 7.82955 66.0284 7.5 65.8807 7.21023C65.7358 6.92045 65.5284 6.69176 65.2585 6.52415C64.9915 6.35653 64.6761 6.27273 64.3125 6.27273C63.9119 6.27273 63.5653 6.37216 63.2727 6.57102C62.983 6.76705 62.7599 7.02273 62.6037 7.33807C62.4474 7.65341 62.3693 7.99148 62.3693 8.35227V8.93182C62.3693 9.42614 62.4545 9.84517 62.625 10.1889C62.7983 10.5298 63.0384 10.7898 63.3452 10.9688C63.652 11.1449 64.0085 11.233 64.4148 11.233C64.679 11.233 64.9176 11.196 65.1307 11.1222C65.3466 11.0455 65.5327 10.9318 65.6889 10.7812C65.8452 10.6278 65.9659 10.4375 66.0511 10.2102L67.0227 10.483C66.9205 10.8125 66.7486 11.1023 66.5071 11.3523C66.2656 11.5994 65.9673 11.7926 65.6122 11.9318C65.2571 12.0682 64.858 12.1364 64.4148 12.1364ZM71.3139 12.1364C70.7003 12.1364 70.1719 11.9915 69.7287 11.7017C69.2855 11.4119 68.9446 11.0128 68.706 10.5043C68.4673 9.99574 68.348 9.41477 68.348 8.76136C68.348 8.09659 68.4702 7.50994 68.7145 7.00142C68.9616 6.49006 69.3054 6.09091 69.7457 5.80398C70.1889 5.5142 70.706 5.36932 71.2969 5.36932C71.7571 5.36932 72.1719 5.45455 72.5412 5.625C72.9105 5.79545 73.2131 6.03409 73.4489 6.34091C73.6847 6.64773 73.831 7.00568 73.8878 7.41477H72.8821C72.8054 7.11648 72.6349 6.85227 72.3707 6.62216C72.1094 6.3892 71.7571 6.27273 71.3139 6.27273C70.9219 6.27273 70.5781 6.375 70.2827 6.57955C69.9901 6.78125 69.7614 7.06676 69.5966 7.43608C69.4347 7.80256 69.3537 8.23295 69.3537 8.72727C69.3537 9.23295 69.4332 9.6733 69.5923 10.0483C69.7543 10.4233 69.9815 10.7145 70.2741 10.9219C70.5696 11.1293 70.9162 11.233 71.3139 11.233C71.5753 11.233 71.8125 11.1875 72.0256 11.0966C72.2386 11.0057 72.419 10.875 72.5668 10.7045C72.7145 10.5341 72.8196 10.3295 72.8821 10.0909H73.8878C73.831 10.4773 73.6903 10.8253 73.4659 11.1349C73.2443 11.4418 72.9503 11.6861 72.5838 11.8679C72.2202 12.0469 71.7969 12.1364 71.3139 12.1364ZM78.017 12.1364C77.4261 12.1364 76.9077 11.9957 76.4616 11.7145C76.0185 11.4332 75.6719 11.0398 75.4219 10.5341C75.1747 10.0284 75.0511 9.4375 75.0511 8.76136C75.0511 8.07955 75.1747 7.48437 75.4219 6.97585C75.6719 6.46733 76.0185 6.07244 76.4616 5.79119C76.9077 5.50994 77.4261 5.36932 78.017 5.36932C78.608 5.36932 79.125 5.50994 79.5682 5.79119C80.0142 6.07244 80.3608 6.46733 80.608 6.97585C80.858 7.48437 80.983 8.07955 80.983 8.76136C80.983 9.4375 80.858 10.0284 80.608 10.5341C80.3608 11.0398 80.0142 11.4332 79.5682 11.7145C79.125 11.9957 78.608 12.1364 78.017 12.1364ZM78.017 11.233C78.4659 11.233 78.8352 11.1179 79.125 10.8878C79.4148 10.6577 79.6293 10.3551 79.7685 9.98011C79.9077 9.60511 79.9773 9.19886 79.9773 8.76136C79.9773 8.32386 79.9077 7.91619 79.7685 7.53835C79.6293 7.16051 79.4148 6.85511 79.125 6.62216C78.8352 6.3892 78.4659 6.27273 78.017 6.27273C77.5682 6.27273 77.1989 6.3892 76.9091 6.62216C76.6193 6.85511 76.4048 7.16051 76.2656 7.53835C76.1264 7.91619 76.0568 8.32386 76.0568 8.76136C76.0568 9.19886 76.1264 9.60511 76.2656 9.98011C76.4048 10.3551 76.6193 10.6577 76.9091 10.8878C77.1989 11.1179 77.5682 11.233 78.017 11.233ZM85.2624 12.1364C84.6317 12.1364 84.0877 11.9972 83.6303 11.7188C83.1758 11.4375 82.8249 11.0455 82.5778 10.5426C82.3335 10.0369 82.2113 9.44886 82.2113 8.77841C82.2113 8.10795 82.3335 7.51705 82.5778 7.00568C82.8249 6.49148 83.1687 6.09091 83.609 5.80398C84.0522 5.5142 84.5692 5.36932 85.1602 5.36932C85.5011 5.36932 85.8377 5.42614 86.1701 5.53977C86.5025 5.65341 86.805 5.83807 87.0778 6.09375C87.3505 6.34659 87.5678 6.68182 87.7298 7.09943C87.8917 7.51705 87.9727 8.03125 87.9727 8.64205V9.06818H82.9272V8.19886H86.9499C86.9499 7.82955 86.8761 7.5 86.7283 7.21023C86.5835 6.92045 86.3761 6.69176 86.1062 6.52415C85.8391 6.35653 85.5238 6.27273 85.1602 6.27273C84.7596 6.27273 84.413 6.37216 84.1204 6.57102C83.8306 6.76705 83.6076 7.02273 83.4513 7.33807C83.2951 7.65341 83.217 7.99148 83.217 8.35227V8.93182C83.217 9.42614 83.3022 9.84517 83.4727 10.1889C83.646 10.5298 83.886 10.7898 84.1928 10.9688C84.4996 11.1449 84.8562 11.233 85.2624 11.233C85.5266 11.233 85.7653 11.196 85.9783 11.1222C86.1942 11.0455 86.3803 10.9318 86.5366 10.7812C86.6928 10.6278 86.8136 10.4375 86.8988 10.2102L87.8704 10.483C87.7681 10.8125 87.5962 11.1023 87.3548 11.3523C87.1133 11.5994 86.815 11.7926 86.4599 11.9318C86.1048 12.0682 85.7056 12.1364 85.2624 12.1364ZM90.5082 8.0625V12H89.5025V5.45455H90.4741V6.47727H90.5593C90.7127 6.14489 90.9457 5.87784 91.2582 5.67614C91.5707 5.47159 91.9741 5.36932 92.4684 5.36932C92.9116 5.36932 93.2994 5.46023 93.6317 5.64205C93.9641 5.82102 94.2227 6.09375 94.4073 6.46023C94.592 6.82386 94.6843 7.28409 94.6843 7.84091V12H93.6786V7.90909C93.6786 7.39489 93.5451 6.99432 93.2781 6.70739C93.011 6.41761 92.6445 6.27273 92.1786 6.27273C91.8576 6.27273 91.5707 6.34233 91.3178 6.48153C91.0678 6.62074 90.8704 6.82386 90.7255 7.09091C90.5806 7.35795 90.5082 7.68182 90.5082 8.0625ZM99.2663 12.1364C98.6357 12.1364 98.0916 11.9972 97.6342 11.7188C97.1797 11.4375 96.8288 11.0455 96.5817 10.5426C96.3374 10.0369 96.2152 9.44886 96.2152 8.77841C96.2152 8.10795 96.3374 7.51705 96.5817 7.00568C96.8288 6.49148 97.1726 6.09091 97.6129 5.80398C98.0561 5.5142 98.5732 5.36932 99.1641 5.36932C99.505 5.36932 99.8416 5.42614 100.174 5.53977C100.506 5.65341 100.809 5.83807 101.082 6.09375C101.354 6.34659 101.572 6.68182 101.734 7.09943C101.896 7.51705 101.977 8.03125 101.977 8.64205V9.06818H96.9311V8.19886H100.954C100.954 7.82955 100.88 7.5 100.732 7.21023C100.587 6.92045 100.38 6.69176 100.11 6.52415C99.843 6.35653 99.5277 6.27273 99.1641 6.27273C98.7635 6.27273 98.4169 6.37216 98.1243 6.57102C97.8345 6.76705 97.6115 7.02273 97.4553 7.33807C97.299 7.65341 97.2209 7.99148 97.2209 8.35227V8.93182C97.2209 9.42614 97.3061 9.84517 97.4766 10.1889C97.6499 10.5298 97.8899 10.7898 98.1967 10.9688C98.5036 11.1449 98.8601 11.233 99.2663 11.233C99.5305 11.233 99.7692 11.196 99.9822 11.1222C100.198 11.0455 100.384 10.9318 100.54 10.7812C100.697 10.6278 100.817 10.4375 100.903 10.2102L101.874 10.483C101.772 10.8125 101.6 11.1023 101.359 11.3523C101.117 11.5994 100.819 11.7926 100.464 11.9318C100.109 12.0682 99.7095 12.1364 99.2663 12.1364ZM103.506 12V5.45455H104.478V6.44318H104.546C104.665 6.11932 104.881 5.85653 105.194 5.65483C105.506 5.45312 105.859 5.35227 106.251 5.35227C106.325 5.35227 106.417 5.35369 106.528 5.35653C106.638 5.35937 106.722 5.36364 106.779 5.36932V6.39205C106.745 6.38352 106.667 6.37074 106.545 6.35369C106.425 6.33381 106.299 6.32386 106.165 6.32386C105.847 6.32386 105.563 6.39062 105.313 6.52415C105.066 6.65483 104.87 6.83665 104.725 7.0696C104.583 7.29972 104.512 7.5625 104.512 7.85795V12H103.506ZM110.414 14.5909C109.928 14.5909 109.511 14.5284 109.161 14.4034C108.812 14.2812 108.521 14.1193 108.288 13.9176C108.058 13.7188 107.874 13.5057 107.738 13.2784L108.539 12.7159C108.63 12.8352 108.745 12.9716 108.884 13.125C109.023 13.2812 109.214 13.4162 109.455 13.5298C109.7 13.6463 110.019 13.7045 110.414 13.7045C110.942 13.7045 111.379 13.5767 111.722 13.321C112.066 13.0653 112.238 12.6648 112.238 12.1193V10.7898H112.153C112.079 10.9091 111.974 11.0568 111.837 11.233C111.704 11.4062 111.511 11.5611 111.258 11.6974C111.008 11.831 110.67 11.8977 110.244 11.8977C109.715 11.8977 109.241 11.7727 108.82 11.5227C108.403 11.2727 108.072 10.9091 107.827 10.4318C107.586 9.95455 107.465 9.375 107.465 8.69318C107.465 8.02273 107.583 7.43892 107.819 6.94176C108.055 6.44176 108.383 6.0554 108.803 5.78267C109.224 5.5071 109.71 5.36932 110.261 5.36932C110.687 5.36932 111.025 5.44034 111.275 5.58239C111.528 5.72159 111.721 5.88068 111.854 6.05966C111.991 6.2358 112.096 6.38068 112.17 6.49432H112.272V5.45455H113.244V12.1875C113.244 12.75 113.116 13.2074 112.86 13.5597C112.607 13.9148 112.266 14.1747 111.837 14.3395C111.411 14.5071 110.937 14.5909 110.414 14.5909ZM110.38 10.9943C110.783 10.9943 111.124 10.902 111.403 10.7173C111.681 10.5327 111.893 10.267 112.038 9.92045C112.183 9.57386 112.255 9.15909 112.255 8.67614C112.255 8.20455 112.184 7.78835 112.042 7.42756C111.9 7.06676 111.69 6.78409 111.411 6.57955C111.133 6.375 110.789 6.27273 110.38 6.27273C109.954 6.27273 109.599 6.38068 109.315 6.59659C109.033 6.8125 108.822 7.10227 108.68 7.46591C108.54 7.82955 108.471 8.23295 108.471 8.67614C108.471 9.13068 108.542 9.53267 108.684 9.8821C108.829 10.2287 109.042 10.5014 109.323 10.7003C109.607 10.8963 109.96 10.9943 110.38 10.9943ZM115.732 14.4545C115.562 14.4545 115.41 14.4403 115.276 14.4119C115.143 14.3864 115.05 14.3608 114.999 14.3352L115.255 13.4489C115.499 13.5114 115.715 13.5341 115.903 13.517C116.09 13.5 116.256 13.4162 116.401 13.2656C116.549 13.1179 116.684 12.8778 116.806 12.5455L116.994 12.0341L114.573 5.45455H115.664L117.471 10.6705H117.539L119.346 5.45455H120.437L117.658 12.9545C117.533 13.2926 117.379 13.5724 117.194 13.794C117.009 14.0185 116.795 14.1847 116.55 14.2926C116.309 14.4006 116.036 14.4545 115.732 14.4545ZM122.087 12.0682C121.877 12.0682 121.696 11.9929 121.546 11.8423C121.395 11.6918 121.32 11.5114 121.32 11.3011C121.32 11.0909 121.395 10.9105 121.546 10.7599C121.696 10.6094 121.877 10.5341 122.087 10.5341C122.297 10.5341 122.478 10.6094 122.628 10.7599C122.779 10.9105 122.854 11.0909 122.854 11.3011C122.854 11.4403 122.819 11.5682 122.748 11.6847C122.679 11.8011 122.587 11.8949 122.471 11.9659C122.357 12.0341 122.229 12.0682 122.087 12.0682ZM124.659 12V5.45455H125.664V12H124.659ZM125.17 4.36364C124.974 4.36364 124.805 4.29688 124.663 4.16335C124.524 4.02983 124.454 3.86932 124.454 3.68182C124.454 3.49432 124.524 3.33381 124.663 3.20028C124.805 3.06676 124.974 3 125.17 3C125.366 3 125.534 3.06676 125.673 3.20028C125.815 3.33381 125.886 3.49432 125.886 3.68182C125.886 3.86932 125.815 4.02983 125.673 4.16335C125.534 4.29688 125.366 4.36364 125.17 4.36364ZM128.512 8.0625V12H127.506V5.45455H128.478V6.47727H128.563C128.717 6.14489 128.95 5.87784 129.262 5.67614C129.575 5.47159 129.978 5.36932 130.472 5.36932C130.915 5.36932 131.303 5.46023 131.636 5.64205C131.968 5.82102 132.227 6.09375 132.411 6.46023C132.596 6.82386 132.688 7.28409 132.688 7.84091V12H131.683V7.90909C131.683 7.39489 131.549 6.99432 131.282 6.70739C131.015 6.41761 130.648 6.27273 130.183 6.27273C129.862 6.27273 129.575 6.34233 129.322 6.48153C129.072 6.62074 128.874 6.82386 128.729 7.09091C128.585 7.35795 128.512 7.68182 128.512 8.0625Z" fill="#202020"/>
</svg>
