<svg width="24" height="24" viewBox="0 0 24 24" fill="none" xmlns="http://www.w3.org/2000/svg">
<path fill-rule="evenodd" clip-rule="evenodd" d="M8.51564 13.8115L11.4022 15.7852L14.1848 13.8655L20.4221 20.0192C20.2575 20.0729 20.0835 20.1001 19.8999 20.1008H2.90054C2.67614 20.1008 2.46194 20.0569 2.26508 19.9784L8.51564 13.8115ZM21.6002 8.7543V18.4004C21.6002 18.6524 21.5451 18.8911 21.4472 19.1063L15.3333 13.074L21.6002 8.7543ZM1.2002 8.80836L7.36304 13.023L1.30832 18.9982C1.23739 18.8068 1.20079 18.6045 1.2002 18.4004L1.2002 8.80836ZM19.8999 4.80078C20.8383 4.80078 21.6002 5.5617 21.6002 6.50112V7.09884L11.3982 14.1317L1.2002 7.15698V6.50112C1.2002 5.56272 1.96112 4.80078 2.90054 4.80078H19.8999Z" fill="#202020"/>
</svg>
