<svg width="52" height="10" viewBox="0 0 52 10" fill="none" xmlns="http://www.w3.org/2000/svg">
<path d="M1.78791 4.42931H5.83191V5.94131H1.78791V4.42931ZM1.93191 7.88531H6.50391V9.44531H-9.36985e-05V1.04531H6.34791V2.60531H1.93191V7.88531ZM16.1867 2.89331C16.6987 2.89331 17.1507 2.99731 17.5427 3.20531C17.9427 3.40531 18.2547 3.71731 18.4787 4.14131C18.7107 4.55731 18.8267 5.09331 18.8267 5.74931V9.44531H16.9547V6.03731C16.9547 5.51731 16.8467 5.13331 16.6307 4.88531C16.4147 4.63731 16.1107 4.51331 15.7187 4.51331C15.4467 4.51331 15.2027 4.57731 14.9867 4.70531C14.7707 4.82531 14.6027 5.00931 14.4827 5.25731C14.3627 5.50531 14.3027 5.82131 14.3027 6.20531V9.44531H12.4307V6.03731C12.4307 5.51731 12.3227 5.13331 12.1067 4.88531C11.8987 4.63731 11.5987 4.51331 11.2067 4.51331C10.9347 4.51331 10.6907 4.57731 10.4747 4.70531C10.2587 4.82531 10.0907 5.00931 9.97069 5.25731C9.85069 5.50531 9.79069 5.82131 9.79069 6.20531V9.44531H7.91869V2.98931H9.70669V4.75331L9.37069 4.23731C9.59469 3.79731 9.91069 3.46531 10.3187 3.24131C10.7347 3.00931 11.2067 2.89331 11.7347 2.89331C12.3267 2.89331 12.8427 3.04531 13.2827 3.34931C13.7307 3.64531 14.0267 4.10131 14.1707 4.71731L13.5107 4.53731C13.7267 4.03331 14.0707 3.63331 14.5427 3.33731C15.0227 3.04131 15.5707 2.89331 16.1867 2.89331ZM24.4646 9.44531V8.18531L24.3446 7.90931V5.65331C24.3446 5.25331 24.2206 4.94131 23.9726 4.71731C23.7326 4.49331 23.3606 4.38131 22.8566 4.38131C22.5126 4.38131 22.1726 4.43731 21.8366 4.54931C21.5086 4.65331 21.2286 4.79731 20.9966 4.98131L20.3246 3.67331C20.6766 3.42531 21.1006 3.23331 21.5966 3.09731C22.0926 2.96131 22.5966 2.89331 23.1086 2.89331C24.0926 2.89331 24.8566 3.12531 25.4006 3.58931C25.9446 4.05331 26.2166 4.77731 26.2166 5.76131V9.44531H24.4646ZM22.4966 9.54131C21.9926 9.54131 21.5606 9.45731 21.2006 9.28931C20.8406 9.11331 20.5646 8.87731 20.3726 8.58131C20.1806 8.28531 20.0846 7.95331 20.0846 7.58531C20.0846 7.20131 20.1766 6.86531 20.3606 6.57731C20.5526 6.28931 20.8526 6.06531 21.2606 5.90531C21.6686 5.73731 22.2006 5.65331 22.8566 5.65331H24.5726V6.74531H23.0606C22.6206 6.74531 22.3166 6.81731 22.1486 6.96131C21.9886 7.10531 21.9086 7.28531 21.9086 7.50131C21.9086 7.74131 22.0006 7.93331 22.1846 8.07731C22.3766 8.21331 22.6366 8.28131 22.9646 8.28131C23.2766 8.28131 23.5566 8.20931 23.8046 8.06531C24.0526 7.91331 24.2326 7.69331 24.3446 7.40531L24.6326 8.26931C24.4966 8.68531 24.2486 9.00131 23.8886 9.21731C23.5286 9.43331 23.0646 9.54131 22.4966 9.54131ZM27.9109 9.44531V2.98931H29.7829V9.44531H27.9109ZM28.8469 2.08931C28.5029 2.08931 28.2229 1.98931 28.0069 1.78931C27.7909 1.58931 27.6829 1.34131 27.6829 1.04531C27.6829 0.749312 27.7909 0.501312 28.0069 0.301312C28.2229 0.101312 28.5029 0.00131178 28.8469 0.00131178C29.1909 0.00131178 29.4709 0.097312 29.6869 0.289312C29.9029 0.473312 30.0109 0.713312 30.0109 1.00931C30.0109 1.32131 29.9029 1.58131 29.6869 1.78931C29.4789 1.98931 29.1989 2.08931 28.8469 2.08931ZM31.5203 9.44531V0.541312H33.3923V9.44531H31.5203ZM41.2521 9.54131C40.7161 9.54131 40.2361 9.43731 39.8121 9.22931C39.3961 9.02131 39.0721 8.70531 38.8401 8.28131C38.6081 7.84931 38.4921 7.30131 38.4921 6.63731V2.98931H40.3641V6.36131C40.3641 6.89731 40.4761 7.29331 40.7001 7.54931C40.9321 7.79731 41.2561 7.92131 41.6721 7.92131C41.9601 7.92131 42.2161 7.86131 42.4401 7.74131C42.6641 7.61331 42.8401 7.42131 42.9681 7.16531C43.0961 6.90131 43.1601 6.57331 43.1601 6.18131V2.98931H45.0321V9.44531H43.2561V7.66931L43.5801 8.18531C43.3641 8.63331 43.0441 8.97331 42.6201 9.20531C42.2041 9.42931 41.7481 9.54131 41.2521 9.54131ZM48.9383 9.54131C48.3863 9.54131 47.8543 9.47731 47.3423 9.34931C46.8383 9.21331 46.4383 9.04531 46.1423 8.84531L46.7663 7.50131C47.0623 7.68531 47.4103 7.83731 47.8103 7.95731C48.2183 8.06931 48.6183 8.12531 49.0103 8.12531C49.4423 8.12531 49.7463 8.07331 49.9223 7.96931C50.1063 7.86531 50.1983 7.72131 50.1983 7.53731C50.1983 7.38531 50.1263 7.27331 49.9823 7.20131C49.8463 7.12131 49.6623 7.06131 49.4303 7.02131C49.1983 6.98131 48.9423 6.94131 48.6623 6.90131C48.3903 6.86131 48.1143 6.80931 47.8343 6.74531C47.5543 6.67331 47.2983 6.56931 47.0663 6.43331C46.8343 6.29731 46.6463 6.11331 46.5023 5.88131C46.3663 5.64931 46.2983 5.34931 46.2983 4.98131C46.2983 4.57331 46.4143 4.21331 46.6463 3.90131C46.8863 3.58931 47.2303 3.34531 47.6783 3.16931C48.1263 2.98531 48.6623 2.89331 49.2863 2.89331C49.7263 2.89331 50.1743 2.94131 50.6303 3.03731C51.0863 3.13331 51.4663 3.27331 51.7703 3.45731L51.1463 4.78931C50.8343 4.60531 50.5183 4.48131 50.1983 4.41731C49.8863 4.34531 49.5823 4.30931 49.2863 4.30931C48.8703 4.30931 48.5663 4.36531 48.3743 4.47731C48.1823 4.58931 48.0863 4.73331 48.0863 4.90931C48.0863 5.06931 48.1543 5.18931 48.2903 5.26931C48.4343 5.34931 48.6223 5.41331 48.8543 5.46131C49.0863 5.50931 49.3383 5.55331 49.6103 5.59331C49.8903 5.62531 50.1703 5.67731 50.4503 5.74931C50.7303 5.82131 50.9823 5.92531 51.2063 6.06131C51.4383 6.18931 51.6263 6.36931 51.7703 6.60131C51.9143 6.82531 51.9863 7.12131 51.9863 7.48931C51.9863 7.88931 51.8663 8.24531 51.6263 8.55731C51.3863 8.86131 51.0383 9.10131 50.5823 9.27731C50.1343 9.45331 49.5863 9.54131 48.9383 9.54131Z" fill="#202020"/>
</svg>
