<svg width="109" height="27" viewBox="0 0 109 27" fill="none" xmlns="http://www.w3.org/2000/svg">
<path d="M1.44007 3.99434H5.61607V5.27834H1.44007V3.99434ZM1.56007 7.59434H6.30007V8.90234H7.03633e-05V0.502343H6.13207V1.81034H1.56007V7.59434ZM6.90195 8.90234L9.72195 5.23034L9.69795 6.03434L7.00995 2.49434H8.67795L10.5619 5.01434H9.92595L11.8219 2.49434H13.4419L10.7299 6.03434L10.7419 5.23034L13.5499 8.90234H11.8579L9.87795 6.22634L10.5019 6.31034L8.55795 8.90234H6.90195ZM18.2089 8.98634C17.6889 8.98634 17.2129 8.86634 16.7809 8.62634C16.3569 8.38634 16.0169 8.02634 15.7609 7.54634C15.5129 7.05834 15.3889 6.44234 15.3889 5.69834C15.3889 4.94634 15.5089 4.33034 15.7489 3.85034C15.9969 3.37034 16.3329 3.01434 16.7569 2.78234C17.1809 2.54234 17.6649 2.42234 18.2089 2.42234C18.8409 2.42234 19.3969 2.55834 19.8769 2.83034C20.3649 3.10234 20.7489 3.48234 21.0289 3.97034C21.3169 4.45834 21.4609 5.03434 21.4609 5.69834C21.4609 6.36234 21.3169 6.94234 21.0289 7.43834C20.7489 7.92634 20.3649 8.30634 19.8769 8.57834C19.3969 8.85034 18.8409 8.98634 18.2089 8.98634ZM14.6569 11.2303V2.49434H16.0849V4.00634L16.0369 5.71034L16.1569 7.41434V11.2303H14.6569ZM18.0409 7.70234C18.4009 7.70234 18.7209 7.62234 19.0009 7.46234C19.2889 7.30234 19.5169 7.07034 19.6849 6.76634C19.8529 6.46234 19.9369 6.10634 19.9369 5.69834C19.9369 5.28234 19.8529 4.92634 19.6849 4.63034C19.5169 4.32634 19.2889 4.09434 19.0009 3.93434C18.7209 3.77434 18.4009 3.69434 18.0409 3.69434C17.6809 3.69434 17.3569 3.77434 17.0689 3.93434C16.7809 4.09434 16.5529 4.32634 16.3849 4.63034C16.2169 4.92634 16.1329 5.28234 16.1329 5.69834C16.1329 6.10634 16.2169 6.46234 16.3849 6.76634C16.5529 7.07034 16.7809 7.30234 17.0689 7.46234C17.3569 7.62234 17.6809 7.70234 18.0409 7.70234ZM22.8834 8.90234V-0.00165677H24.3834V8.90234H22.8834ZM29.2322 8.98634C28.5762 8.98634 27.9922 8.84634 27.4802 8.56634C26.9682 8.27834 26.5642 7.88634 26.2682 7.39034C25.9722 6.89434 25.8242 6.33034 25.8242 5.69834C25.8242 5.05834 25.9722 4.49434 26.2682 4.00634C26.5642 3.51034 26.9682 3.12234 27.4802 2.84234C27.9922 2.56234 28.5762 2.42234 29.2322 2.42234C29.8962 2.42234 30.4842 2.56234 30.9962 2.84234C31.5162 3.12234 31.9202 3.50634 32.2082 3.99434C32.5042 4.48234 32.6522 5.05034 32.6522 5.69834C32.6522 6.33034 32.5042 6.89434 32.2082 7.39034C31.9202 7.88634 31.5162 8.27834 30.9962 8.56634C30.4842 8.84634 29.8962 8.98634 29.2322 8.98634ZM29.2322 7.70234C29.6002 7.70234 29.9282 7.62234 30.2162 7.46234C30.5042 7.30234 30.7282 7.07034 30.8882 6.76634C31.0562 6.46234 31.1402 6.10634 31.1402 5.69834C31.1402 5.28234 31.0562 4.92634 30.8882 4.63034C30.7282 4.32634 30.5042 4.09434 30.2162 3.93434C29.9282 3.77434 29.6042 3.69434 29.2442 3.69434C28.8762 3.69434 28.5482 3.77434 28.2602 3.93434C27.9802 4.09434 27.7562 4.32634 27.5882 4.63034C27.4202 4.92634 27.3362 5.28234 27.3362 5.69834C27.3362 6.10634 27.4202 6.46234 27.5882 6.76634C27.7562 7.07034 27.9802 7.30234 28.2602 7.46234C28.5482 7.62234 28.8722 7.70234 29.2322 7.70234ZM34.0865 8.90234V2.49434H35.5145V4.25834L35.3465 3.74234C35.5385 3.31034 35.8385 2.98234 36.2465 2.75834C36.6625 2.53434 37.1785 2.42234 37.7945 2.42234V3.85034C37.7305 3.83434 37.6705 3.82634 37.6145 3.82634C37.5585 3.81834 37.5025 3.81434 37.4465 3.81434C36.8785 3.81434 36.4265 3.98234 36.0905 4.31834C35.7545 4.64634 35.5865 5.13834 35.5865 5.79434V8.90234H34.0865ZM42.0204 8.98634C41.3084 8.98634 40.6844 8.84634 40.1484 8.56634C39.6204 8.27834 39.2084 7.88634 38.9124 7.39034C38.6244 6.89434 38.4804 6.33034 38.4804 5.69834C38.4804 5.05834 38.6204 4.49434 38.9004 4.00634C39.1884 3.51034 39.5804 3.12234 40.0764 2.84234C40.5804 2.56234 41.1524 2.42234 41.7924 2.42234C42.4164 2.42234 42.9724 2.55834 43.4604 2.83034C43.9484 3.10234 44.3324 3.48634 44.6124 3.98234C44.8924 4.47834 45.0324 5.06234 45.0324 5.73434C45.0324 5.79834 45.0284 5.87034 45.0204 5.95034C45.0204 6.03034 45.0164 6.10634 45.0084 6.17834H39.6684V5.18234H44.2164L43.6284 5.49434C43.6364 5.12634 43.5604 4.80234 43.4004 4.52234C43.2404 4.24234 43.0204 4.02234 42.7404 3.86234C42.4684 3.70234 42.1524 3.62234 41.7924 3.62234C41.4244 3.62234 41.1004 3.70234 40.8204 3.86234C40.5484 4.02234 40.3324 4.24634 40.1724 4.53434C40.0204 4.81434 39.9444 5.14634 39.9444 5.53034V5.77034C39.9444 6.15434 40.0324 6.49434 40.2084 6.79034C40.3844 7.08634 40.6324 7.31434 40.9524 7.47434C41.2724 7.63434 41.6404 7.71434 42.0564 7.71434C42.4164 7.71434 42.7404 7.65834 43.0284 7.54634C43.3164 7.43434 43.5724 7.25834 43.7964 7.01834L44.6004 7.94234C44.3124 8.27834 43.9484 8.53834 43.5084 8.72234C43.0764 8.89834 42.5804 8.98634 42.0204 8.98634ZM52.6697 8.98634C52.0137 8.98634 51.4297 8.84634 50.9177 8.56634C50.4057 8.27834 50.0017 7.88634 49.7057 7.39034C49.4097 6.89434 49.2617 6.33034 49.2617 5.69834C49.2617 5.05834 49.4097 4.49434 49.7057 4.00634C50.0017 3.51034 50.4057 3.12234 50.9177 2.84234C51.4297 2.56234 52.0137 2.42234 52.6697 2.42234C53.3337 2.42234 53.9217 2.56234 54.4337 2.84234C54.9537 3.12234 55.3577 3.50634 55.6457 3.99434C55.9417 4.48234 56.0897 5.05034 56.0897 5.69834C56.0897 6.33034 55.9417 6.89434 55.6457 7.39034C55.3577 7.88634 54.9537 8.27834 54.4337 8.56634C53.9217 8.84634 53.3337 8.98634 52.6697 8.98634ZM52.6697 7.70234C53.0377 7.70234 53.3657 7.62234 53.6537 7.46234C53.9417 7.30234 54.1657 7.07034 54.3257 6.76634C54.4937 6.46234 54.5777 6.10634 54.5777 5.69834C54.5777 5.28234 54.4937 4.92634 54.3257 4.63034C54.1657 4.32634 53.9417 4.09434 53.6537 3.93434C53.3657 3.77434 53.0417 3.69434 52.6817 3.69434C52.3137 3.69434 51.9857 3.77434 51.6977 3.93434C51.4177 4.09434 51.1937 4.32634 51.0257 4.63034C50.8577 4.92634 50.7737 5.28234 50.7737 5.69834C50.7737 6.10634 50.8577 6.46234 51.0257 6.76634C51.1937 7.07034 51.4177 7.30234 51.6977 7.46234C51.9857 7.62234 52.3097 7.70234 52.6697 7.70234ZM60.236 8.98634C59.692 8.98634 59.212 8.88634 58.796 8.68634C58.38 8.47834 58.056 8.16634 57.824 7.75034C57.592 7.32634 57.476 6.79434 57.476 6.15434V2.49434H58.976V5.95034C58.976 6.52634 59.104 6.95834 59.36 7.24634C59.624 7.52634 59.996 7.66634 60.476 7.66634C60.828 7.66634 61.132 7.59434 61.388 7.45034C61.652 7.30634 61.856 7.09034 62 6.80234C62.152 6.51434 62.228 6.15834 62.228 5.73434V2.49434H63.728V8.90234H62.3V7.17434L62.552 7.70234C62.336 8.11834 62.02 8.43834 61.604 8.66234C61.188 8.87834 60.732 8.98634 60.236 8.98634ZM65.692 8.90234V2.49434H67.12V4.25834L66.952 3.74234C67.144 3.31034 67.444 2.98234 67.852 2.75834C68.268 2.53434 68.784 2.42234 69.4 2.42234V3.85034C69.336 3.83434 69.276 3.82634 69.22 3.82634C69.164 3.81834 69.108 3.81434 69.052 3.81434C68.484 3.81434 68.032 3.98234 67.696 4.31834C67.36 4.64634 67.192 5.13834 67.192 5.79434V8.90234H65.692ZM0.13207 23.9023V15.5023H3.40807C4.14407 15.5023 4.77207 15.6183 5.29207 15.8503C5.81207 16.0823 6.21207 16.4183 6.49207 16.8583C6.77207 17.2983 6.91207 17.8223 6.91207 18.4303C6.91207 19.0383 6.77207 19.5623 6.49207 20.0023C6.21207 20.4343 5.81207 20.7703 5.29207 21.0103C4.77207 21.2423 4.14407 21.3583 3.40807 21.3583H0.79207L1.33207 20.7943V23.9023H0.13207ZM1.33207 20.9143L0.79207 20.3143H3.37207C4.14007 20.3143 4.72007 20.1503 5.11207 19.8223C5.51207 19.4943 5.71207 19.0303 5.71207 18.4303C5.71207 17.8303 5.51207 17.3663 5.11207 17.0383C4.72007 16.7103 4.14007 16.5463 3.37207 16.5463H0.79207L1.33207 15.9463V20.9143ZM12.3964 23.9023V22.5583L12.3364 22.3063V20.0143C12.3364 19.5263 12.1924 19.1503 11.9044 18.8863C11.6244 18.6143 11.2004 18.4783 10.6324 18.4783C10.2564 18.4783 9.88845 18.5423 9.52845 18.6703C9.16845 18.7903 8.86445 18.9543 8.61645 19.1623L8.13645 18.2983C8.46445 18.0343 8.85645 17.8343 9.31245 17.6983C9.77645 17.5543 10.2604 17.4823 10.7644 17.4823C11.6364 17.4823 12.3084 17.6943 12.7804 18.1183C13.2524 18.5423 13.4884 19.1903 13.4884 20.0623V23.9023H12.3964ZM10.3084 23.9743C9.83645 23.9743 9.42045 23.8943 9.06045 23.7343C8.70845 23.5743 8.43645 23.3543 8.24445 23.0743C8.05245 22.7863 7.95645 22.4623 7.95645 22.1023C7.95645 21.7583 8.03645 21.4463 8.19645 21.1663C8.36445 20.8863 8.63245 20.6623 9.00045 20.4943C9.37645 20.3263 9.88045 20.2423 10.5124 20.2423H12.5284V21.0703H10.5604C9.98445 21.0703 9.59645 21.1663 9.39645 21.3583C9.19645 21.5503 9.09645 21.7823 9.09645 22.0543C9.09645 22.3663 9.22045 22.6183 9.46845 22.8103C9.71645 22.9943 10.0604 23.0863 10.5004 23.0863C10.9324 23.0863 11.3084 22.9903 11.6284 22.7983C11.9564 22.6063 12.1924 22.3263 12.3364 21.9583L12.5644 22.7503C12.4124 23.1263 12.1444 23.4263 11.7604 23.6503C11.3764 23.8663 10.8924 23.9743 10.3084 23.9743ZM18.3923 23.9743C17.7443 23.9743 17.1643 23.8343 16.6523 23.5543C16.1483 23.2743 15.7523 22.8903 15.4643 22.4023C15.1763 21.9143 15.0323 21.3543 15.0323 20.7223C15.0323 20.0903 15.1763 19.5303 15.4643 19.0423C15.7523 18.5543 16.1483 18.1743 16.6523 17.9023C17.1643 17.6223 17.7443 17.4823 18.3923 17.4823C18.9683 17.4823 19.4803 17.5983 19.9283 17.8303C20.3843 18.0543 20.7363 18.3903 20.9843 18.8383L20.1083 19.4023C19.9003 19.0903 19.6443 18.8623 19.3403 18.7183C19.0443 18.5663 18.7243 18.4903 18.3803 18.4903C17.9643 18.4903 17.5923 18.5823 17.2643 18.7663C16.9363 18.9503 16.6763 19.2103 16.4843 19.5463C16.2923 19.8743 16.1963 20.2663 16.1963 20.7223C16.1963 21.1783 16.2923 21.5743 16.4843 21.9103C16.6763 22.2463 16.9363 22.5063 17.2643 22.6903C17.5923 22.8743 17.9643 22.9663 18.3803 22.9663C18.7243 22.9663 19.0443 22.8943 19.3403 22.7503C19.6443 22.5983 19.9003 22.3663 20.1083 22.0543L20.9843 22.6063C20.7363 23.0463 20.3843 23.3863 19.9283 23.6263C19.4803 23.8583 18.9683 23.9743 18.3923 23.9743ZM23.3298 22.3663L23.3538 20.8903L27.0138 17.5423H28.4058L25.5978 20.3023L24.9738 20.8303L23.3298 22.3663ZM22.3938 23.9023V14.9983H23.5458V23.9023H22.3938ZM27.2538 23.9023L24.7578 20.8063L25.5018 19.8823L28.6698 23.9023H27.2538ZM29.7883 23.9023V17.5423H30.9403V23.9023H29.7883ZM30.3643 16.3183C30.1403 16.3183 29.9523 16.2463 29.8003 16.1023C29.6563 15.9583 29.5843 15.7823 29.5843 15.5743C29.5843 15.3583 29.6563 15.1783 29.8003 15.0343C29.9523 14.8903 30.1403 14.8183 30.3643 14.8183C30.5883 14.8183 30.7723 14.8903 30.9163 15.0343C31.0683 15.1703 31.1443 15.3423 31.1443 15.5503C31.1443 15.7663 31.0723 15.9503 30.9283 16.1023C30.7843 16.2463 30.5963 16.3183 30.3643 16.3183ZM36.5359 17.4823C37.0559 17.4823 37.5119 17.5823 37.9039 17.7823C38.3039 17.9823 38.6159 18.2863 38.8399 18.6943C39.0639 19.1023 39.1759 19.6183 39.1759 20.2423V23.9023H38.0239V20.3743C38.0239 19.7583 37.8719 19.2943 37.5679 18.9823C37.2719 18.6703 36.8519 18.5143 36.3079 18.5143C35.8999 18.5143 35.5439 18.5943 35.2399 18.7543C34.9359 18.9143 34.6999 19.1503 34.5319 19.4623C34.3719 19.7743 34.2919 20.1623 34.2919 20.6263V23.9023H33.1399V17.5423H34.2439V19.2583L34.0639 18.8023C34.2719 18.3863 34.5919 18.0623 35.0239 17.8303C35.4559 17.5983 35.9599 17.4823 36.5359 17.4823ZM44.0918 26.3023C43.5078 26.3023 42.9398 26.2183 42.3878 26.0503C41.8438 25.8903 41.3998 25.6583 41.0558 25.3543L41.6078 24.4663C41.9038 24.7223 42.2678 24.9223 42.6998 25.0663C43.1318 25.2183 43.5838 25.2943 44.0558 25.2943C44.8078 25.2943 45.3598 25.1183 45.7118 24.7663C46.0638 24.4143 46.2398 23.8783 46.2398 23.1583V21.8143L46.3598 20.5543L46.2998 19.2823V17.5423H47.3918V23.0383C47.3918 24.1583 47.1118 24.9823 46.5518 25.5103C45.9918 26.0383 45.1718 26.3023 44.0918 26.3023ZM43.9478 23.6383C43.3318 23.6383 42.7798 23.5103 42.2918 23.2543C41.8118 22.9903 41.4278 22.6263 41.1398 22.1623C40.8598 21.6983 40.7198 21.1623 40.7198 20.5543C40.7198 19.9383 40.8598 19.4023 41.1398 18.9463C41.4278 18.4823 41.8118 18.1223 42.2918 17.8663C42.7798 17.6103 43.3318 17.4823 43.9478 17.4823C44.4918 17.4823 44.9878 17.5943 45.4358 17.8183C45.8838 18.0343 46.2398 18.3703 46.5038 18.8263C46.7758 19.2823 46.9118 19.8583 46.9118 20.5543C46.9118 21.2423 46.7758 21.8143 46.5038 22.2703C46.2398 22.7263 45.8838 23.0703 45.4358 23.3023C44.9878 23.5263 44.4918 23.6383 43.9478 23.6383ZM44.0798 22.6303C44.5038 22.6303 44.8798 22.5423 45.2078 22.3663C45.5358 22.1903 45.7918 21.9463 45.9758 21.6343C46.1678 21.3223 46.2638 20.9623 46.2638 20.5543C46.2638 20.1463 46.1678 19.7863 45.9758 19.4743C45.7918 19.1623 45.5358 18.9223 45.2078 18.7543C44.8798 18.5783 44.5038 18.4903 44.0798 18.4903C43.6558 18.4903 43.2758 18.5783 42.9398 18.7543C42.6118 18.9223 42.3518 19.1623 42.1598 19.4743C41.9758 19.7863 41.8838 20.1463 41.8838 20.5543C41.8838 20.9623 41.9758 21.3223 42.1598 21.6343C42.3518 21.9463 42.6118 22.1903 42.9398 22.3663C43.2758 22.5423 43.6558 22.6303 44.0798 22.6303ZM55.4316 23.9983C54.7916 23.9983 54.1796 23.9023 53.5956 23.7103C53.0116 23.5103 52.5516 23.2543 52.2156 22.9423L52.6596 22.0063C52.9796 22.2863 53.3876 22.5183 53.8836 22.7023C54.3796 22.8863 54.8956 22.9783 55.4316 22.9783C55.9196 22.9783 56.3156 22.9223 56.6196 22.8103C56.9236 22.6983 57.1476 22.5463 57.2916 22.3543C57.4356 22.1543 57.5076 21.9303 57.5076 21.6823C57.5076 21.3943 57.4116 21.1623 57.2196 20.9863C57.0356 20.8103 56.7916 20.6703 56.4876 20.5663C56.1916 20.4543 55.8636 20.3583 55.5036 20.2783C55.1436 20.1983 54.7796 20.1063 54.4116 20.0023C54.0516 19.8903 53.7196 19.7503 53.4156 19.5823C53.1196 19.4143 52.8796 19.1903 52.6956 18.9103C52.5116 18.6223 52.4196 18.2543 52.4196 17.8063C52.4196 17.3743 52.5316 16.9783 52.7556 16.6183C52.9876 16.2503 53.3396 15.9583 53.8116 15.7423C54.2916 15.5183 54.8996 15.4063 55.6356 15.4063C56.1236 15.4063 56.6076 15.4703 57.0876 15.5983C57.5676 15.7263 57.9836 15.9103 58.3356 16.1503L57.9396 17.1103C57.5796 16.8703 57.1996 16.6983 56.7996 16.5943C56.3996 16.4823 56.0116 16.4263 55.6356 16.4263C55.1636 16.4263 54.7756 16.4863 54.4716 16.6063C54.1676 16.7263 53.9436 16.8863 53.7996 17.0863C53.6636 17.2863 53.5956 17.5103 53.5956 17.7583C53.5956 18.0543 53.6876 18.2903 53.8716 18.4663C54.0636 18.6423 54.3076 18.7823 54.6036 18.8863C54.9076 18.9903 55.2396 19.0863 55.5996 19.1743C55.9596 19.2543 56.3196 19.3463 56.6796 19.4503C57.0476 19.5543 57.3796 19.6903 57.6756 19.8583C57.9796 20.0263 58.2236 20.2503 58.4076 20.5303C58.5916 20.8103 58.6836 21.1703 58.6836 21.6103C58.6836 22.0343 58.5676 22.4303 58.3356 22.7983C58.1036 23.1583 57.7436 23.4503 57.2556 23.6743C56.7756 23.8903 56.1676 23.9983 55.4316 23.9983ZM62.9928 23.9743C62.3528 23.9743 61.7848 23.8343 61.2888 23.5543C60.7928 23.2743 60.4008 22.8903 60.1128 22.4023C59.8248 21.9063 59.6808 21.3463 59.6808 20.7223C59.6808 20.0903 59.8248 19.5303 60.1128 19.0423C60.4008 18.5543 60.7928 18.1743 61.2888 17.9023C61.7848 17.6223 62.3528 17.4823 62.9928 17.4823C63.6248 17.4823 64.1888 17.6223 64.6848 17.9023C65.1888 18.1743 65.5808 18.5543 65.8608 19.0423C66.1488 19.5223 66.2928 20.0823 66.2928 20.7223C66.2928 21.3543 66.1488 21.9143 65.8608 22.4023C65.5808 22.8903 65.1888 23.2743 64.6848 23.5543C64.1888 23.8343 63.6248 23.9743 62.9928 23.9743ZM62.9928 22.9663C63.4008 22.9663 63.7648 22.8743 64.0848 22.6903C64.4128 22.5063 64.6688 22.2463 64.8528 21.9103C65.0368 21.5663 65.1288 21.1703 65.1288 20.7223C65.1288 20.2663 65.0368 19.8743 64.8528 19.5463C64.6688 19.2103 64.4128 18.9503 64.0848 18.7663C63.7648 18.5823 63.4008 18.4903 62.9928 18.4903C62.5848 18.4903 62.2208 18.5823 61.9008 18.7663C61.5808 18.9503 61.3248 19.2103 61.1328 19.5463C60.9408 19.8743 60.8448 20.2663 60.8448 20.7223C60.8448 21.1703 60.9408 21.5663 61.1328 21.9103C61.3248 22.2463 61.5808 22.5063 61.9008 22.6903C62.2208 22.8743 62.5848 22.9663 62.9928 22.9663ZM67.8859 23.9023V14.9983H69.0379V23.9023H67.8859ZM73.9135 23.9743C73.3695 23.9743 72.8895 23.8743 72.4735 23.6743C72.0655 23.4743 71.7455 23.1703 71.5135 22.7623C71.2895 22.3463 71.1775 21.8263 71.1775 21.2023V17.5423H72.3295V21.0703C72.3295 21.6943 72.4775 22.1623 72.7735 22.4743C73.0775 22.7863 73.5015 22.9423 74.0455 22.9423C74.4455 22.9423 74.7935 22.8623 75.0895 22.7023C75.3855 22.5343 75.6135 22.2943 75.7735 21.9823C75.9335 21.6623 76.0135 21.2783 76.0135 20.8303V17.5423H77.1655V23.9023H76.0735V22.1863L76.2535 22.6423C76.0455 23.0663 75.7335 23.3943 75.3175 23.6263C74.9015 23.8583 74.4335 23.9743 73.9135 23.9743ZM81.5426 23.9743C80.9026 23.9743 80.4066 23.8023 80.0546 23.4583C79.7026 23.1143 79.5266 22.6223 79.5266 21.9823V16.1503H80.6786V21.9343C80.6786 22.2783 80.7626 22.5423 80.9306 22.7263C81.1066 22.9103 81.3546 23.0023 81.6746 23.0023C82.0346 23.0023 82.3346 22.9023 82.5746 22.7023L82.9346 23.5303C82.7586 23.6823 82.5466 23.7943 82.2986 23.8663C82.0586 23.9383 81.8066 23.9743 81.5426 23.9743ZM78.4466 18.4903V17.5423H82.5026V18.4903H78.4466ZM84.3274 23.9023V17.5423H85.4794V23.9023H84.3274ZM84.9034 16.3183C84.6794 16.3183 84.4914 16.2463 84.3394 16.1023C84.1954 15.9583 84.1234 15.7823 84.1234 15.5743C84.1234 15.3583 84.1954 15.1783 84.3394 15.0343C84.4914 14.8903 84.6794 14.8183 84.9034 14.8183C85.1274 14.8183 85.3114 14.8903 85.4554 15.0343C85.6074 15.1703 85.6834 15.3423 85.6834 15.5503C85.6834 15.7663 85.6114 15.9503 85.4674 16.1023C85.3234 16.2463 85.1354 16.3183 84.9034 16.3183ZM90.4029 23.9743C89.7629 23.9743 89.1949 23.8343 88.6989 23.5543C88.2029 23.2743 87.8109 22.8903 87.5229 22.4023C87.2349 21.9063 87.0909 21.3463 87.0909 20.7223C87.0909 20.0903 87.2349 19.5303 87.5229 19.0423C87.8109 18.5543 88.2029 18.1743 88.6989 17.9023C89.1949 17.6223 89.7629 17.4823 90.4029 17.4823C91.0349 17.4823 91.5989 17.6223 92.0949 17.9023C92.5989 18.1743 92.9909 18.5543 93.2709 19.0423C93.5589 19.5223 93.7029 20.0823 93.7029 20.7223C93.7029 21.3543 93.5589 21.9143 93.2709 22.4023C92.9909 22.8903 92.5989 23.2743 92.0949 23.5543C91.5989 23.8343 91.0349 23.9743 90.4029 23.9743ZM90.4029 22.9663C90.8109 22.9663 91.1749 22.8743 91.4949 22.6903C91.8229 22.5063 92.0789 22.2463 92.2629 21.9103C92.4469 21.5663 92.5389 21.1703 92.5389 20.7223C92.5389 20.2663 92.4469 19.8743 92.2629 19.5463C92.0789 19.2103 91.8229 18.9503 91.4949 18.7663C91.1749 18.5823 90.8109 18.4903 90.4029 18.4903C89.9949 18.4903 89.6309 18.5823 89.3109 18.7663C88.9909 18.9503 88.7349 19.2103 88.5429 19.5463C88.3509 19.8743 88.2549 20.2663 88.2549 20.7223C88.2549 21.1703 88.3509 21.5663 88.5429 21.9103C88.7349 22.2463 88.9909 22.5063 89.3109 22.6903C89.6309 22.8743 89.9949 22.9663 90.4029 22.9663ZM98.6921 17.4823C99.2121 17.4823 99.6681 17.5823 100.06 17.7823C100.46 17.9823 100.772 18.2863 100.996 18.6943C101.22 19.1023 101.332 19.6183 101.332 20.2423V23.9023H100.18V20.3743C100.18 19.7583 100.028 19.2943 99.7241 18.9823C99.4281 18.6703 99.0081 18.5143 98.4641 18.5143C98.0561 18.5143 97.7001 18.5943 97.3961 18.7543C97.0921 18.9143 96.8561 19.1503 96.6881 19.4623C96.5281 19.7743 96.4481 20.1623 96.4481 20.6263V23.9023H95.2961V17.5423H96.4001V19.2583L96.2201 18.8023C96.4281 18.3863 96.7481 18.0623 97.1801 17.8303C97.6121 17.5983 98.1161 17.4823 98.6921 17.4823ZM105.288 23.9743C104.76 23.9743 104.256 23.9023 103.776 23.7583C103.304 23.6143 102.932 23.4383 102.66 23.2303L103.14 22.3183C103.412 22.5023 103.748 22.6583 104.148 22.7863C104.548 22.9143 104.956 22.9783 105.372 22.9783C105.908 22.9783 106.292 22.9023 106.524 22.7503C106.764 22.5983 106.884 22.3863 106.884 22.1143C106.884 21.9143 106.812 21.7583 106.668 21.6463C106.524 21.5343 106.332 21.4503 106.092 21.3943C105.86 21.3383 105.6 21.2903 105.312 21.2503C105.024 21.2023 104.736 21.1463 104.448 21.0823C104.16 21.0103 103.896 20.9143 103.656 20.7943C103.416 20.6663 103.224 20.4943 103.08 20.2783C102.936 20.0543 102.864 19.7583 102.864 19.3903C102.864 19.0063 102.972 18.6703 103.188 18.3823C103.404 18.0943 103.708 17.8743 104.1 17.7223C104.5 17.5623 104.972 17.4823 105.516 17.4823C105.932 17.4823 106.352 17.5343 106.776 17.6383C107.208 17.7343 107.56 17.8743 107.832 18.0583L107.34 18.9703C107.052 18.7783 106.752 18.6463 106.44 18.5743C106.128 18.5023 105.816 18.4663 105.504 18.4663C105 18.4663 104.624 18.5503 104.376 18.7183C104.128 18.8783 104.004 19.0863 104.004 19.3423C104.004 19.5583 104.076 19.7263 104.22 19.8463C104.372 19.9583 104.564 20.0463 104.796 20.1103C105.036 20.1743 105.3 20.2303 105.588 20.2783C105.876 20.3183 106.164 20.3743 106.452 20.4463C106.74 20.5103 107 20.6023 107.232 20.7223C107.472 20.8423 107.664 21.0103 107.808 21.2263C107.96 21.4423 108.036 21.7303 108.036 22.0903C108.036 22.4743 107.924 22.8063 107.7 23.0863C107.476 23.3663 107.16 23.5863 106.752 23.7463C106.344 23.8983 105.856 23.9743 105.288 23.9743Z" fill="#244621"/>
</svg>
