<svg width="231" height="34" viewBox="0 0 231 34" fill="none" xmlns="http://www.w3.org/2000/svg">
<rect width="231" height="34" rx="8" fill="url(#paint0_linear_435_76)"/>
<path d="M22.394 22.64C21.6287 22.64 20.924 22.5187 20.28 22.276C19.6453 22.024 19.09 21.674 18.614 21.226C18.138 20.7687 17.7693 20.232 17.508 19.616C17.2467 19 17.116 18.328 17.116 17.6C17.116 16.872 17.2467 16.2 17.508 15.584C17.7693 14.968 18.138 14.436 18.614 13.988C19.0993 13.5307 19.664 13.1807 20.308 12.938C20.952 12.686 21.6567 12.56 22.422 12.56C23.2527 12.56 23.9993 12.6953 24.662 12.966C25.334 13.2367 25.8987 13.6333 26.356 14.156L25.208 15.276C24.8253 14.8933 24.41 14.6133 23.962 14.436C23.5233 14.2493 23.038 14.156 22.506 14.156C21.9927 14.156 21.5167 14.24 21.078 14.408C20.6393 14.576 20.2613 14.814 19.944 15.122C19.6267 15.43 19.3793 15.794 19.202 16.214C19.034 16.634 18.95 17.096 18.95 17.6C18.95 18.0947 19.034 18.552 19.202 18.972C19.3793 19.392 19.6267 19.7607 19.944 20.078C20.2613 20.386 20.6347 20.624 21.064 20.792C21.4933 20.96 21.9693 21.044 22.492 21.044C22.9773 21.044 23.444 20.9693 23.892 20.82C24.3493 20.6613 24.7833 20.4 25.194 20.036L26.23 21.394C25.7167 21.8047 25.1193 22.1173 24.438 22.332C23.766 22.5373 23.0847 22.64 22.394 22.64ZM24.508 21.156V17.488H26.23V21.394L24.508 21.156ZM31.9765 22.598C31.1458 22.598 30.4178 22.4347 29.7925 22.108C29.1765 21.772 28.6958 21.3147 28.3505 20.736C28.0145 20.1573 27.8465 19.4993 27.8465 18.762C27.8465 18.0153 28.0098 17.3573 28.3365 16.788C28.6725 16.2093 29.1298 15.7567 29.7085 15.43C30.2965 15.1033 30.9638 14.94 31.7105 14.94C32.4385 14.94 33.0871 15.0987 33.6565 15.416C34.2258 15.7333 34.6738 16.1813 35.0005 16.76C35.3271 17.3387 35.4905 18.02 35.4905 18.804C35.4905 18.8787 35.4858 18.9627 35.4765 19.056C35.4765 19.1493 35.4718 19.238 35.4625 19.322H29.2325V18.16H34.5385L33.8525 18.524C33.8618 18.0947 33.7731 17.7167 33.5865 17.39C33.3998 17.0633 33.1431 16.8067 32.8165 16.62C32.4991 16.4333 32.1305 16.34 31.7105 16.34C31.2811 16.34 30.9031 16.4333 30.5765 16.62C30.2591 16.8067 30.0071 17.068 29.8205 17.404C29.6431 17.7307 29.5545 18.118 29.5545 18.566V18.846C29.5545 19.294 29.6571 19.6907 29.8625 20.036C30.0678 20.3813 30.3571 20.6473 30.7305 20.834C31.1038 21.0207 31.5331 21.114 32.0185 21.114C32.4385 21.114 32.8165 21.0487 33.1525 20.918C33.4885 20.7873 33.7871 20.582 34.0485 20.302L34.9865 21.38C34.6505 21.772 34.2258 22.0753 33.7125 22.29C33.2085 22.4953 32.6298 22.598 31.9765 22.598ZM39.9854 22.598C39.1641 22.598 38.5294 22.388 38.0814 21.968C37.6334 21.5387 37.4094 20.9087 37.4094 20.078V13.372H39.1594V20.036C39.1594 20.3907 39.2481 20.666 39.4254 20.862C39.6121 21.058 39.8688 21.156 40.1954 21.156C40.5874 21.156 40.9141 21.0533 41.1754 20.848L41.6654 22.094C41.4601 22.262 41.2081 22.388 40.9094 22.472C40.6108 22.556 40.3028 22.598 39.9854 22.598ZM36.1774 16.48V15.08H41.1614V16.48H36.1774ZM51.5802 22.5V20.988L51.4822 20.666V18.02C51.4822 17.5067 51.3282 17.11 51.0202 16.83C50.7122 16.5407 50.2455 16.396 49.6202 16.396C49.2002 16.396 48.7848 16.4613 48.3742 16.592C47.9728 16.7227 47.6322 16.9047 47.3522 17.138L46.6662 15.864C47.0675 15.556 47.5435 15.3273 48.0942 15.178C48.6542 15.0193 49.2328 14.94 49.8302 14.94C50.9128 14.94 51.7482 15.2013 52.3362 15.724C52.9335 16.2373 53.2322 17.0353 53.2322 18.118V22.5H51.5802ZM49.2282 22.598C48.6682 22.598 48.1782 22.5047 47.7582 22.318C47.3382 22.122 47.0115 21.856 46.7782 21.52C46.5542 21.1747 46.4422 20.7873 46.4422 20.358C46.4422 19.938 46.5402 19.56 46.7362 19.224C46.9415 18.888 47.2728 18.622 47.7302 18.426C48.1875 18.23 48.7942 18.132 49.5502 18.132H51.7202V19.294H49.6762C49.0788 19.294 48.6775 19.392 48.4722 19.588C48.2668 19.7747 48.1642 20.008 48.1642 20.288C48.1642 20.6053 48.2902 20.8573 48.5422 21.044C48.7942 21.2307 49.1442 21.324 49.5922 21.324C50.0215 21.324 50.4042 21.226 50.7402 21.03C51.0855 20.834 51.3328 20.5447 51.4822 20.162L51.7762 21.212C51.6082 21.6507 51.3048 21.9913 50.8662 22.234C50.4368 22.4767 49.8908 22.598 49.2282 22.598ZM59.5152 22.5V12.7H63.5472C64.4152 12.7 65.1572 12.84 65.7732 13.12C66.3986 13.4 66.8792 13.8013 67.2152 14.324C67.5512 14.8467 67.7192 15.4673 67.7192 16.186C67.7192 16.9047 67.5512 17.5253 67.2152 18.048C66.8792 18.5707 66.3986 18.972 65.7732 19.252C65.1572 19.532 64.4152 19.672 63.5472 19.672H60.5232L61.3352 18.818V22.5H59.5152ZM61.3352 19.014L60.5232 18.132H63.4632C64.2659 18.132 64.8679 17.964 65.2692 17.628C65.6799 17.2827 65.8852 16.802 65.8852 16.186C65.8852 15.5607 65.6799 15.08 65.2692 14.744C64.8679 14.408 64.2659 14.24 63.4632 14.24H60.5232L61.3352 13.344V19.014ZM73.9063 22.5V20.988L73.8083 20.666V18.02C73.8083 17.5067 73.6543 17.11 73.3463 16.83C73.0383 16.5407 72.5717 16.396 71.9463 16.396C71.5263 16.396 71.111 16.4613 70.7003 16.592C70.299 16.7227 69.9583 16.9047 69.6783 17.138L68.9923 15.864C69.3937 15.556 69.8697 15.3273 70.4203 15.178C70.9803 15.0193 71.559 14.94 72.1563 14.94C73.239 14.94 74.0743 15.2013 74.6623 15.724C75.2597 16.2373 75.5583 17.0353 75.5583 18.118V22.5H73.9063ZM71.5543 22.598C70.9943 22.598 70.5043 22.5047 70.0843 22.318C69.6643 22.122 69.3377 21.856 69.1043 21.52C68.8803 21.1747 68.7683 20.7873 68.7683 20.358C68.7683 19.938 68.8663 19.56 69.0623 19.224C69.2677 18.888 69.599 18.622 70.0563 18.426C70.5137 18.23 71.1203 18.132 71.8763 18.132H74.0463V19.294H72.0023C71.405 19.294 71.0037 19.392 70.7983 19.588C70.593 19.7747 70.4903 20.008 70.4903 20.288C70.4903 20.6053 70.6163 20.8573 70.8683 21.044C71.1203 21.2307 71.4703 21.324 71.9183 21.324C72.3477 21.324 72.7303 21.226 73.0663 21.03C73.4117 20.834 73.659 20.5447 73.8083 20.162L74.1023 21.212C73.9343 21.6507 73.631 21.9913 73.1923 22.234C72.763 22.4767 72.217 22.598 71.5543 22.598ZM81.2479 22.598C80.4639 22.598 79.7639 22.4347 79.1479 22.108C78.5413 21.772 78.0653 21.3147 77.7199 20.736C77.3746 20.1573 77.2019 19.4993 77.2019 18.762C77.2019 18.0153 77.3746 17.3573 77.7199 16.788C78.0653 16.2093 78.5413 15.7567 79.1479 15.43C79.7639 15.1033 80.4639 14.94 81.2479 14.94C81.9759 14.94 82.6153 15.0893 83.1659 15.388C83.7259 15.6773 84.1506 16.1067 84.4399 16.676L83.0959 17.46C82.8719 17.1053 82.5966 16.844 82.2699 16.676C81.9526 16.508 81.6073 16.424 81.2339 16.424C80.8046 16.424 80.4173 16.5173 80.0719 16.704C79.7266 16.8907 79.4559 17.1613 79.2599 17.516C79.0639 17.8613 78.9659 18.2767 78.9659 18.762C78.9659 19.2473 79.0639 19.6673 79.2599 20.022C79.4559 20.3673 79.7266 20.6333 80.0719 20.82C80.4173 21.0067 80.8046 21.1 81.2339 21.1C81.6073 21.1 81.9526 21.016 82.2699 20.848C82.5966 20.68 82.8719 20.4187 83.0959 20.064L84.4399 20.848C84.1506 21.408 83.7259 21.842 83.1659 22.15C82.6153 22.4487 81.9759 22.598 81.2479 22.598ZM87.3123 20.834L87.3543 18.636L91.2603 15.024H93.3603L90.0423 18.356L89.1183 19.126L87.3123 20.834ZM85.8843 22.5V12.112H87.6343V22.5H85.8843ZM91.5263 22.5L88.7963 19.126L89.9023 17.726L93.6543 22.5H91.5263ZM94.7847 22.5V15.024H96.5347V22.5H94.7847ZM95.6667 13.792C95.3401 13.792 95.0694 13.6893 94.8547 13.484C94.6494 13.2787 94.5467 13.0313 94.5467 12.742C94.5467 12.4433 94.6494 12.196 94.8547 12C95.0694 11.7947 95.3401 11.692 95.6667 11.692C95.9934 11.692 96.2594 11.79 96.4647 11.986C96.6794 12.1727 96.7867 12.4107 96.7867 12.7C96.7867 13.008 96.6841 13.2693 96.4787 13.484C96.2734 13.6893 96.0027 13.792 95.6667 13.792ZM103.074 14.94C103.671 14.94 104.203 15.0567 104.67 15.29C105.146 15.5233 105.519 15.8827 105.79 16.368C106.06 16.844 106.196 17.46 106.196 18.216V22.5H104.446V18.44C104.446 17.7773 104.287 17.2827 103.97 16.956C103.662 16.6293 103.228 16.466 102.668 16.466C102.257 16.466 101.893 16.55 101.576 16.718C101.258 16.886 101.011 17.138 100.834 17.474C100.666 17.8007 100.582 18.216 100.582 18.72V22.5H98.8316V15.024H100.498V17.04L100.204 16.424C100.465 15.948 100.843 15.584 101.338 15.332C101.842 15.0707 102.42 14.94 103.074 14.94ZM111.817 25.314C111.127 25.314 110.45 25.2207 109.787 25.034C109.134 24.8567 108.597 24.5953 108.177 24.25L108.961 22.934C109.288 23.2047 109.699 23.4193 110.193 23.578C110.697 23.746 111.206 23.83 111.719 23.83C112.541 23.83 113.143 23.6387 113.525 23.256C113.908 22.8827 114.099 22.318 114.099 21.562V20.232L114.239 18.538L114.183 16.844V15.024H115.849V21.366C115.849 22.7193 115.504 23.7133 114.813 24.348C114.123 24.992 113.124 25.314 111.817 25.314ZM111.593 22.164C110.884 22.164 110.24 22.0147 109.661 21.716C109.092 21.408 108.639 20.9833 108.303 20.442C107.977 19.9007 107.813 19.266 107.813 18.538C107.813 17.8193 107.977 17.1893 108.303 16.648C108.639 16.1067 109.092 15.6867 109.661 15.388C110.24 15.0893 110.884 14.94 111.593 14.94C112.228 14.94 112.797 15.066 113.301 15.318C113.805 15.57 114.207 15.962 114.505 16.494C114.813 17.026 114.967 17.7073 114.967 18.538C114.967 19.3687 114.813 20.0547 114.505 20.596C114.207 21.128 113.805 21.5247 113.301 21.786C112.797 22.038 112.228 22.164 111.593 22.164ZM111.859 20.68C112.298 20.68 112.69 20.5913 113.035 20.414C113.381 20.2273 113.647 19.9753 113.833 19.658C114.029 19.3313 114.127 18.958 114.127 18.538C114.127 18.118 114.029 17.7493 113.833 17.432C113.647 17.1053 113.381 16.858 113.035 16.69C112.69 16.5127 112.298 16.424 111.859 16.424C111.421 16.424 111.024 16.5127 110.669 16.69C110.324 16.858 110.053 17.1053 109.857 17.432C109.671 17.7493 109.577 18.118 109.577 18.538C109.577 18.958 109.671 19.3313 109.857 19.658C110.053 19.9753 110.324 20.2273 110.669 20.414C111.024 20.5913 111.421 20.68 111.859 20.68ZM126.723 22.64C125.976 22.64 125.281 22.5187 124.637 22.276C124.002 22.024 123.447 21.674 122.971 21.226C122.504 20.7687 122.14 20.232 121.879 19.616C121.618 19 121.487 18.328 121.487 17.6C121.487 16.872 121.618 16.2 121.879 15.584C122.14 14.968 122.509 14.436 122.985 13.988C123.461 13.5307 124.016 13.1807 124.651 12.938C125.286 12.686 125.981 12.56 126.737 12.56C127.54 12.56 128.272 12.7 128.935 12.98C129.598 13.2507 130.158 13.6567 130.615 14.198L129.439 15.304C129.084 14.9213 128.688 14.6367 128.249 14.45C127.81 14.254 127.334 14.156 126.821 14.156C126.308 14.156 125.836 14.24 125.407 14.408C124.987 14.576 124.618 14.814 124.301 15.122C123.993 15.43 123.75 15.794 123.573 16.214C123.405 16.634 123.321 17.096 123.321 17.6C123.321 18.104 123.405 18.566 123.573 18.986C123.75 19.406 123.993 19.77 124.301 20.078C124.618 20.386 124.987 20.624 125.407 20.792C125.836 20.96 126.308 21.044 126.821 21.044C127.334 21.044 127.81 20.9507 128.249 20.764C128.688 20.568 129.084 20.274 129.439 19.882L130.615 21.002C130.158 21.534 129.598 21.94 128.935 22.22C128.272 22.5 127.535 22.64 126.723 22.64ZM135.278 22.598C134.512 22.598 133.831 22.4347 133.234 22.108C132.636 21.772 132.165 21.3147 131.82 20.736C131.474 20.1573 131.302 19.4993 131.302 18.762C131.302 18.0153 131.474 17.3573 131.82 16.788C132.165 16.2093 132.636 15.7567 133.234 15.43C133.831 15.1033 134.512 14.94 135.278 14.94C136.052 14.94 136.738 15.1033 137.336 15.43C137.942 15.7567 138.414 16.2047 138.75 16.774C139.095 17.3433 139.268 18.006 139.268 18.762C139.268 19.4993 139.095 20.1573 138.75 20.736C138.414 21.3147 137.942 21.772 137.336 22.108C136.738 22.4347 136.052 22.598 135.278 22.598ZM135.278 21.1C135.707 21.1 136.09 21.0067 136.426 20.82C136.762 20.6333 137.023 20.3627 137.21 20.008C137.406 19.6533 137.504 19.238 137.504 18.762C137.504 18.2767 137.406 17.8613 137.21 17.516C137.023 17.1613 136.762 16.8907 136.426 16.704C136.09 16.5173 135.712 16.424 135.292 16.424C134.862 16.424 134.48 16.5173 134.144 16.704C133.817 16.8907 133.556 17.1613 133.36 17.516C133.164 17.8613 133.066 18.2767 133.066 18.762C133.066 19.238 133.164 19.6533 133.36 20.008C133.556 20.3627 133.817 20.6333 134.144 20.82C134.48 21.0067 134.858 21.1 135.278 21.1ZM145.183 14.94C145.78 14.94 146.312 15.0567 146.779 15.29C147.255 15.5233 147.628 15.8827 147.899 16.368C148.17 16.844 148.305 17.46 148.305 18.216V22.5H146.555V18.44C146.555 17.7773 146.396 17.2827 146.079 16.956C145.771 16.6293 145.337 16.466 144.777 16.466C144.366 16.466 144.002 16.55 143.685 16.718C143.368 16.886 143.12 17.138 142.943 17.474C142.775 17.8007 142.691 18.216 142.691 18.72V22.5H140.941V15.024H142.607V17.04L142.313 16.424C142.574 15.948 142.952 15.584 143.447 15.332C143.951 15.0707 144.53 14.94 145.183 14.94ZM152.835 22.598C152.21 22.598 151.608 22.5187 151.029 22.36C150.46 22.192 150.007 21.9913 149.671 21.758L150.343 20.428C150.679 20.6427 151.08 20.82 151.547 20.96C152.014 21.1 152.48 21.17 152.947 21.17C153.498 21.17 153.894 21.0953 154.137 20.946C154.389 20.7967 154.515 20.596 154.515 20.344C154.515 20.1387 154.431 19.9847 154.263 19.882C154.095 19.77 153.876 19.686 153.605 19.63C153.334 19.574 153.031 19.5227 152.695 19.476C152.368 19.4293 152.037 19.3687 151.701 19.294C151.374 19.21 151.076 19.0933 150.805 18.944C150.534 18.7853 150.315 18.5753 150.147 18.314C149.979 18.0527 149.895 17.7073 149.895 17.278C149.895 16.802 150.03 16.3913 150.301 16.046C150.572 15.6913 150.95 15.4207 151.435 15.234C151.93 15.038 152.513 14.94 153.185 14.94C153.689 14.94 154.198 14.996 154.711 15.108C155.224 15.22 155.649 15.3787 155.985 15.584L155.313 16.914C154.958 16.6993 154.599 16.5547 154.235 16.48C153.88 16.396 153.526 16.354 153.171 16.354C152.639 16.354 152.242 16.4333 151.981 16.592C151.729 16.7507 151.603 16.9513 151.603 17.194C151.603 17.418 151.687 17.586 151.855 17.698C152.023 17.81 152.242 17.8987 152.513 17.964C152.784 18.0293 153.082 18.0853 153.409 18.132C153.745 18.1693 154.076 18.23 154.403 18.314C154.73 18.398 155.028 18.5147 155.299 18.664C155.579 18.804 155.803 19.0047 155.971 19.266C156.139 19.5273 156.223 19.868 156.223 20.288C156.223 20.7547 156.083 21.1607 155.803 21.506C155.532 21.8513 155.145 22.122 154.641 22.318C154.137 22.5047 153.535 22.598 152.835 22.598ZM160.894 22.598C160.259 22.598 159.699 22.4813 159.214 22.248C158.729 22.0053 158.351 21.6413 158.08 21.156C157.809 20.6613 157.674 20.0407 157.674 19.294V15.024H159.424V19.056C159.424 19.728 159.573 20.232 159.872 20.568C160.18 20.8947 160.614 21.058 161.174 21.058C161.585 21.058 161.939 20.974 162.238 20.806C162.546 20.638 162.784 20.386 162.952 20.05C163.129 19.714 163.218 19.2987 163.218 18.804V15.024H164.968V22.5H163.302V20.484L163.596 21.1C163.344 21.5853 162.975 21.9587 162.49 22.22C162.005 22.472 161.473 22.598 160.894 22.598ZM167.259 22.5V12.112H169.009V22.5H167.259ZM174.489 22.598C173.668 22.598 173.033 22.388 172.585 21.968C172.137 21.5387 171.913 20.9087 171.913 20.078V13.372H173.663V20.036C173.663 20.3907 173.752 20.666 173.929 20.862C174.116 21.058 174.373 21.156 174.699 21.156C175.091 21.156 175.418 21.0533 175.679 20.848L176.169 22.094C175.964 22.262 175.712 22.388 175.413 22.472C175.115 22.556 174.807 22.598 174.489 22.598ZM170.681 16.48V15.08H175.665V16.48H170.681ZM182.215 22.5V20.988L182.117 20.666V18.02C182.117 17.5067 181.963 17.11 181.655 16.83C181.347 16.5407 180.88 16.396 180.255 16.396C179.835 16.396 179.42 16.4613 179.009 16.592C178.608 16.7227 178.267 16.9047 177.987 17.138L177.301 15.864C177.702 15.556 178.178 15.3273 178.729 15.178C179.289 15.0193 179.868 14.94 180.465 14.94C181.548 14.94 182.383 15.2013 182.971 15.724C183.568 16.2373 183.867 17.0353 183.867 18.118V22.5H182.215ZM179.863 22.598C179.303 22.598 178.813 22.5047 178.393 22.318C177.973 22.122 177.646 21.856 177.413 21.52C177.189 21.1747 177.077 20.7873 177.077 20.358C177.077 19.938 177.175 19.56 177.371 19.224C177.576 18.888 177.908 18.622 178.365 18.426C178.822 18.23 179.429 18.132 180.185 18.132H182.355V19.294H180.311C179.714 19.294 179.312 19.392 179.107 19.588C178.902 19.7747 178.799 20.008 178.799 20.288C178.799 20.6053 178.925 20.8573 179.177 21.044C179.429 21.2307 179.779 21.324 180.227 21.324C180.656 21.324 181.039 21.226 181.375 21.03C181.72 20.834 181.968 20.5447 182.117 20.162L182.411 21.212C182.243 21.6507 181.94 21.9913 181.501 22.234C181.072 22.4767 180.526 22.598 179.863 22.598ZM188.927 22.598C188.106 22.598 187.471 22.388 187.023 21.968C186.575 21.5387 186.351 20.9087 186.351 20.078V13.372H188.101V20.036C188.101 20.3907 188.19 20.666 188.367 20.862C188.554 21.058 188.81 21.156 189.137 21.156C189.529 21.156 189.856 21.0533 190.117 20.848L190.607 22.094C190.402 22.262 190.15 22.388 189.851 22.472C189.552 22.556 189.244 22.598 188.927 22.598ZM185.119 16.48V15.08H190.103V16.48H185.119ZM192.046 22.5V15.024H193.796V22.5H192.046ZM192.928 13.792C192.602 13.792 192.331 13.6893 192.116 13.484C191.911 13.2787 191.808 13.0313 191.808 12.742C191.808 12.4433 191.911 12.196 192.116 12C192.331 11.7947 192.602 11.692 192.928 11.692C193.255 11.692 193.521 11.79 193.726 11.986C193.941 12.1727 194.048 12.4107 194.048 12.7C194.048 13.008 193.946 13.2693 193.74 13.484C193.535 13.6893 193.264 13.792 192.928 13.792ZM199.453 22.598C198.688 22.598 198.007 22.4347 197.409 22.108C196.812 21.772 196.341 21.3147 195.995 20.736C195.65 20.1573 195.477 19.4993 195.477 18.762C195.477 18.0153 195.65 17.3573 195.995 16.788C196.341 16.2093 196.812 15.7567 197.409 15.43C198.007 15.1033 198.688 14.94 199.453 14.94C200.228 14.94 200.914 15.1033 201.511 15.43C202.118 15.7567 202.589 16.2047 202.925 16.774C203.271 17.3433 203.443 18.006 203.443 18.762C203.443 19.4993 203.271 20.1573 202.925 20.736C202.589 21.3147 202.118 21.772 201.511 22.108C200.914 22.4347 200.228 22.598 199.453 22.598ZM199.453 21.1C199.883 21.1 200.265 21.0067 200.601 20.82C200.937 20.6333 201.199 20.3627 201.385 20.008C201.581 19.6533 201.679 19.238 201.679 18.762C201.679 18.2767 201.581 17.8613 201.385 17.516C201.199 17.1613 200.937 16.8907 200.601 16.704C200.265 16.5173 199.887 16.424 199.467 16.424C199.038 16.424 198.655 16.5173 198.319 16.704C197.993 16.8907 197.731 17.1613 197.535 17.516C197.339 17.8613 197.241 18.2767 197.241 18.762C197.241 19.238 197.339 19.6533 197.535 20.008C197.731 20.3627 197.993 20.6333 198.319 20.82C198.655 21.0067 199.033 21.1 199.453 21.1ZM209.359 14.94C209.956 14.94 210.488 15.0567 210.955 15.29C211.431 15.5233 211.804 15.8827 212.075 16.368C212.345 16.844 212.481 17.46 212.481 18.216V22.5H210.731V18.44C210.731 17.7773 210.572 17.2827 210.255 16.956C209.947 16.6293 209.513 16.466 208.953 16.466C208.542 16.466 208.178 16.55 207.861 16.718C207.543 16.886 207.296 17.138 207.119 17.474C206.951 17.8007 206.867 18.216 206.867 18.72V22.5H205.117V15.024H206.783V17.04L206.489 16.424C206.75 15.948 207.128 15.584 207.623 15.332C208.127 15.0707 208.705 14.94 209.359 14.94Z" fill="white"/>
<defs>
<linearGradient id="paint0_linear_435_76" x1="115.5" y1="0" x2="115.5" y2="34" gradientUnits="userSpaceOnUse">
<stop stop-color="#61883B"/>
<stop offset="1" stop-color="#416B3B"/>
</linearGradient>
</defs>
</svg>
