<svg width="307" height="131" viewBox="0 0 307 131" fill="none" xmlns="http://www.w3.org/2000/svg">
<path d="M2.90414 37V10.4H10.4281V31.034H23.1201V37H2.90414ZM33.0135 20.698H45.3635V26.322H33.0135V20.698ZM33.5455 31.186H47.4535V37H26.0975V10.4H46.9595V16.214H33.5455V31.186ZM57.2908 37V16.366H49.1208V10.4H72.9468V16.366H64.8148V37H57.2908ZM75.4634 22.636L78.3134 12.756L79.3394 16.86C78.0727 16.86 77.034 16.4927 76.2234 15.758C75.4127 14.998 75.0074 13.9847 75.0074 12.718C75.0074 11.426 75.4127 10.4 76.2234 9.64C77.0594 8.85467 78.098 8.462 79.3394 8.462C80.5807 8.462 81.6067 8.85467 82.4174 9.64C83.228 10.4 83.6334 11.426 83.6334 12.718C83.6334 13.0727 83.608 13.44 83.5574 13.82C83.5067 14.1747 83.3927 14.6053 83.2154 15.112C83.0634 15.5933 82.7974 16.252 82.4174 17.088L79.9854 22.636H75.4634ZM97.0842 37.532C94.9055 37.532 92.8028 37.266 90.7762 36.734C88.7748 36.1767 87.1408 35.4673 85.8742 34.606L88.3442 29.058C89.5348 29.818 90.9028 30.4513 92.4482 30.958C94.0188 31.4393 95.5768 31.68 97.1222 31.68C98.1608 31.68 98.9968 31.5913 99.6302 31.414C100.264 31.2113 100.72 30.958 100.998 30.654C101.302 30.3247 101.454 29.9447 101.454 29.514C101.454 28.906 101.176 28.4247 100.618 28.07C100.061 27.7153 99.3388 27.424 98.4522 27.196C97.5655 26.968 96.5775 26.74 95.4882 26.512C94.4242 26.284 93.3475 25.9927 92.2582 25.638C91.1942 25.2833 90.2188 24.8273 89.3322 24.27C88.4455 23.6873 87.7235 22.94 87.1662 22.028C86.6088 21.0907 86.3302 19.9127 86.3302 18.494C86.3302 16.898 86.7608 15.454 87.6222 14.162C88.5088 12.87 89.8262 11.8313 91.5742 11.046C93.3222 10.2607 95.5008 9.868 98.1102 9.868C99.8582 9.868 101.568 10.0707 103.24 10.476C104.938 10.856 106.445 11.426 107.762 12.186L105.444 17.772C104.178 17.088 102.924 16.5813 101.682 16.252C100.441 15.8973 99.2375 15.72 98.0722 15.72C97.0335 15.72 96.1975 15.834 95.5642 16.062C94.9308 16.2647 94.4748 16.5433 94.1962 16.898C93.9175 17.2527 93.7782 17.658 93.7782 18.114C93.7782 18.6967 94.0442 19.1653 94.5762 19.52C95.1335 19.8493 95.8555 20.128 96.7422 20.356C97.6542 20.5587 98.6422 20.774 99.7062 21.002C100.796 21.23 101.872 21.5213 102.936 21.876C104.026 22.2053 105.014 22.6613 105.9 23.244C106.787 23.8013 107.496 24.5487 108.028 25.486C108.586 26.398 108.864 27.5507 108.864 28.944C108.864 30.4893 108.421 31.9207 107.534 33.238C106.673 34.53 105.368 35.5687 103.62 36.354C101.898 37.1393 99.7188 37.532 97.0842 37.532ZM129.06 37V16.366H120.89V10.4H144.716V16.366H136.584V37H129.06ZM142.991 37L154.733 10.4H162.143L173.923 37H166.095L156.899 14.086H159.863L150.667 37H142.991ZM149.413 31.832L151.351 26.284H164.347L166.285 31.832H149.413ZM176.056 37V10.4H183.58V31.034H196.272V37H176.056ZM205.976 31.11L205.558 22.674L216.996 10.4H225.28L213.88 22.75L209.7 27.12L205.976 31.11ZM199.25 37V10.4H206.698V37H199.25ZM217.11 37L208.446 26.018L213.348 20.774L225.85 37H217.11Z" fill="#244621"/>
<path d="M5.634 69.216C4.626 69.216 3.66 69.084 2.736 68.82C1.812 68.544 1.068 68.19 0.504 67.758L1.494 65.562C2.034 65.946 2.67 66.264 3.402 66.516C4.146 66.756 4.896 66.876 5.652 66.876C6.228 66.876 6.69 66.822 7.038 66.714C7.398 66.594 7.662 66.432 7.83 66.228C7.998 66.024 8.082 65.79 8.082 65.526C8.082 65.19 7.95 64.926 7.686 64.734C7.422 64.53 7.074 64.368 6.642 64.248C6.21 64.116 5.73 63.996 5.202 63.888C4.686 63.768 4.164 63.624 3.636 63.456C3.12 63.288 2.646 63.072 2.214 62.808C1.782 62.544 1.428 62.196 1.152 61.764C0.888 61.332 0.756 60.78 0.756 60.108C0.756 59.388 0.948 58.734 1.332 58.146C1.728 57.546 2.316 57.072 3.096 56.724C3.888 56.364 4.878 56.184 6.066 56.184C6.858 56.184 7.638 56.28 8.406 56.472C9.174 56.652 9.852 56.928 10.44 57.3L9.54 59.514C8.952 59.178 8.364 58.932 7.776 58.776C7.188 58.608 6.612 58.524 6.048 58.524C5.484 58.524 5.022 58.59 4.662 58.722C4.302 58.854 4.044 59.028 3.888 59.244C3.732 59.448 3.654 59.688 3.654 59.964C3.654 60.288 3.786 60.552 4.05 60.756C4.314 60.948 4.662 61.104 5.094 61.224C5.526 61.344 6 61.464 6.516 61.584C7.044 61.704 7.566 61.842 8.082 61.998C8.61 62.154 9.09 62.364 9.522 62.628C9.954 62.892 10.302 63.24 10.566 63.672C10.842 64.104 10.98 64.65 10.98 65.31C10.98 66.018 10.782 66.666 10.386 67.254C9.99 67.842 9.396 68.316 8.604 68.676C7.824 69.036 6.834 69.216 5.634 69.216ZM25.1765 59.172C25.9445 59.172 26.6225 59.328 27.2105 59.64C27.8105 59.94 28.2785 60.408 28.6145 61.044C28.9625 61.668 29.1365 62.472 29.1365 63.456V69H26.3285V63.888C26.3285 63.108 26.1665 62.532 25.8425 62.16C25.5185 61.788 25.0625 61.602 24.4745 61.602C24.0665 61.602 23.7005 61.698 23.3765 61.89C23.0525 62.07 22.8005 62.346 22.6205 62.718C22.4405 63.09 22.3505 63.564 22.3505 64.14V69H19.5425V63.888C19.5425 63.108 19.3805 62.532 19.0565 62.16C18.7445 61.788 18.2945 61.602 17.7065 61.602C17.2985 61.602 16.9325 61.698 16.6085 61.89C16.2845 62.07 16.0325 62.346 15.8525 62.718C15.6725 63.09 15.5825 63.564 15.5825 64.14V69H12.7745V59.316H15.4565V61.962L14.9525 61.188C15.2885 60.528 15.7625 60.03 16.3745 59.694C16.9985 59.346 17.7065 59.172 18.4985 59.172C19.3865 59.172 20.1605 59.4 20.8205 59.856C21.4925 60.3 21.9365 60.984 22.1525 61.908L21.1625 61.638C21.4865 60.882 22.0025 60.282 22.7105 59.838C23.4305 59.394 24.2525 59.172 25.1765 59.172ZM37.5934 69V67.11L37.4134 66.696V63.312C37.4134 62.712 37.2274 62.244 36.8554 61.908C36.4954 61.572 35.9374 61.404 35.1814 61.404C34.6654 61.404 34.1554 61.488 33.6514 61.656C33.1594 61.812 32.7394 62.028 32.3914 62.304L31.3834 60.342C31.9114 59.97 32.5474 59.682 33.2914 59.478C34.0354 59.274 34.7914 59.172 35.5594 59.172C37.0354 59.172 38.1814 59.52 38.9974 60.216C39.8134 60.912 40.2214 61.998 40.2214 63.474V69H37.5934ZM34.6414 69.144C33.8854 69.144 33.2374 69.018 32.6974 68.766C32.1574 68.502 31.7434 68.148 31.4554 67.704C31.1674 67.26 31.0234 66.762 31.0234 66.21C31.0234 65.634 31.1614 65.13 31.4374 64.698C31.7254 64.266 32.1754 63.93 32.7874 63.69C33.3994 63.438 34.1974 63.312 35.1814 63.312H37.7554V64.95H35.4874C34.8274 64.95 34.3714 65.058 34.1194 65.274C33.8794 65.49 33.7594 65.76 33.7594 66.084C33.7594 66.444 33.8974 66.732 34.1734 66.948C34.4614 67.152 34.8514 67.254 35.3434 67.254C35.8114 67.254 36.2314 67.146 36.6034 66.93C36.9754 66.702 37.2454 66.372 37.4134 65.94L37.8454 67.236C37.6414 67.86 37.2694 68.334 36.7294 68.658C36.1894 68.982 35.4934 69.144 34.6414 69.144ZM42.7628 69V59.316H45.4448V62.052L45.0668 61.26C45.3548 60.576 45.8168 60.06 46.4528 59.712C47.0888 59.352 47.8628 59.172 48.7748 59.172V61.764C48.6548 61.752 48.5468 61.746 48.4508 61.746C48.3548 61.734 48.2528 61.728 48.1448 61.728C47.3768 61.728 46.7528 61.95 46.2728 62.394C45.8048 62.826 45.5708 63.504 45.5708 64.428V69H42.7628ZM54.7384 69.144C53.5984 69.144 52.7104 68.856 52.0744 68.28C51.4384 67.692 51.1204 66.822 51.1204 65.67V57.174H53.9284V65.634C53.9284 66.042 54.0364 66.36 54.2524 66.588C54.4684 66.804 54.7624 66.912 55.1344 66.912C55.5784 66.912 55.9564 66.792 56.2684 66.552L57.0244 68.532C56.7364 68.736 56.3884 68.892 55.9804 69C55.5844 69.096 55.1704 69.144 54.7384 69.144ZM49.6264 61.692V59.532H56.3404V61.692H49.6264ZM64.0676 69V56.4H68.7836C69.8516 56.4 70.7696 56.574 71.5376 56.922C72.3056 57.258 72.8936 57.75 73.3016 58.398C73.7216 59.034 73.9316 59.808 73.9316 60.72C73.9316 61.608 73.7216 62.376 73.3016 63.024C72.8936 63.66 72.3056 64.152 71.5376 64.5C70.7696 64.848 69.8516 65.022 68.7836 65.022H64.8056L65.3996 64.392V69H64.0676ZM65.3996 64.5L64.8056 63.852H68.7476C70.0076 63.852 70.9616 63.582 71.6096 63.042C72.2696 62.49 72.5996 61.716 72.5996 60.72C72.5996 59.712 72.2696 58.932 71.6096 58.38C70.9616 57.828 70.0076 57.552 68.7476 57.552H64.8056L65.3996 56.922V64.5ZM82.3759 69V66.912L82.3219 66.57V63.078C82.3219 62.274 82.0939 61.656 81.6379 61.224C81.1939 60.792 80.5279 60.576 79.6399 60.576C79.0279 60.576 78.4459 60.678 77.8939 60.882C77.3419 61.086 76.8739 61.356 76.4899 61.692L75.9139 60.738C76.3939 60.33 76.9699 60.018 77.6419 59.802C78.3139 59.574 79.0219 59.46 79.7659 59.46C80.9899 59.46 81.9319 59.766 82.5919 60.378C83.2639 60.978 83.5999 61.896 83.5999 63.132V69H82.3759ZM79.1179 69.09C78.4099 69.09 77.7919 68.976 77.2639 68.748C76.7479 68.508 76.3519 68.184 76.0759 67.776C75.7999 67.356 75.6619 66.876 75.6619 66.336C75.6619 65.844 75.7759 65.4 76.0039 65.004C76.2439 64.596 76.6279 64.272 77.1559 64.032C77.6959 63.78 78.4159 63.654 79.3159 63.654H82.5739V64.608H79.3519C78.4399 64.608 77.8039 64.77 77.4439 65.094C77.0959 65.418 76.9219 65.82 76.9219 66.3C76.9219 66.84 77.1319 67.272 77.5519 67.596C77.9719 67.92 78.5599 68.082 79.3159 68.082C80.0359 68.082 80.6539 67.92 81.1699 67.596C81.6979 67.26 82.0819 66.78 82.3219 66.156L82.6099 67.038C82.3699 67.662 81.9499 68.16 81.3499 68.532C80.7619 68.904 80.0179 69.09 79.1179 69.09ZM90.9951 69.09C90.0591 69.09 89.2191 68.886 88.4751 68.478C87.7431 68.058 87.1671 67.488 86.7471 66.768C86.3271 66.036 86.1171 65.202 86.1171 64.266C86.1171 63.318 86.3271 62.484 86.7471 61.764C87.1671 61.044 87.7431 60.48 88.4751 60.072C89.2191 59.664 90.0591 59.46 90.9951 59.46C91.7991 59.46 92.5251 59.616 93.1731 59.928C93.8211 60.24 94.3311 60.708 94.7031 61.332L93.7491 61.98C93.4251 61.5 93.0231 61.146 92.5431 60.918C92.0631 60.69 91.5411 60.576 90.9771 60.576C90.3051 60.576 89.6991 60.732 89.1591 61.044C88.6191 61.344 88.1931 61.77 87.8811 62.322C87.5691 62.874 87.4131 63.522 87.4131 64.266C87.4131 65.01 87.5691 65.658 87.8811 66.21C88.1931 66.762 88.6191 67.194 89.1591 67.506C89.6991 67.806 90.3051 67.956 90.9771 67.956C91.5411 67.956 92.0631 67.842 92.5431 67.614C93.0231 67.386 93.4251 67.038 93.7491 66.57L94.7031 67.218C94.3311 67.83 93.8211 68.298 93.1731 68.622C92.5251 68.934 91.7991 69.09 90.9951 69.09ZM98.081 66.552L98.117 64.914L104.003 59.55H105.569L101.411 63.528L100.691 64.14L98.081 66.552ZM97.073 69V55.644H98.351V69H97.073ZM104.399 69L100.457 64.086L101.285 63.096L105.965 69H104.399ZM113.63 69V66.912L113.576 66.57V63.078C113.576 62.274 113.348 61.656 112.892 61.224C112.448 60.792 111.782 60.576 110.894 60.576C110.282 60.576 109.7 60.678 109.148 60.882C108.596 61.086 108.128 61.356 107.744 61.692L107.168 60.738C107.648 60.33 108.224 60.018 108.896 59.802C109.568 59.574 110.276 59.46 111.02 59.46C112.244 59.46 113.186 59.766 113.846 60.378C114.518 60.978 114.854 61.896 114.854 63.132V69H113.63ZM110.372 69.09C109.664 69.09 109.046 68.976 108.518 68.748C108.002 68.508 107.606 68.184 107.33 67.776C107.054 67.356 106.916 66.876 106.916 66.336C106.916 65.844 107.03 65.4 107.258 65.004C107.498 64.596 107.882 64.272 108.41 64.032C108.95 63.78 109.67 63.654 110.57 63.654H113.828V64.608H110.606C109.694 64.608 109.058 64.77 108.698 65.094C108.35 65.418 108.176 65.82 108.176 66.3C108.176 66.84 108.386 67.272 108.806 67.596C109.226 67.92 109.814 68.082 110.57 68.082C111.29 68.082 111.908 67.92 112.424 67.596C112.952 67.26 113.336 66.78 113.576 66.156L113.864 67.038C113.624 67.662 113.204 68.16 112.604 68.532C112.016 68.904 111.272 69.09 110.372 69.09ZM122.357 72.582C121.493 72.582 120.665 72.456 119.873 72.204C119.081 71.952 118.439 71.592 117.947 71.124L118.595 70.152C119.039 70.548 119.585 70.86 120.233 71.088C120.893 71.328 121.589 71.448 122.321 71.448C123.521 71.448 124.403 71.166 124.967 70.602C125.531 70.05 125.813 69.186 125.813 68.01V65.652L125.993 64.032L125.867 62.412V59.55H127.091V67.848C127.091 69.48 126.689 70.674 125.885 71.43C125.093 72.198 123.917 72.582 122.357 72.582ZM122.123 68.64C121.223 68.64 120.413 68.448 119.693 68.064C118.973 67.668 118.403 67.122 117.983 66.426C117.575 65.73 117.371 64.932 117.371 64.032C117.371 63.132 117.575 62.34 117.983 61.656C118.403 60.96 118.973 60.42 119.693 60.036C120.413 59.652 121.223 59.46 122.123 59.46C122.963 59.46 123.719 59.634 124.391 59.982C125.063 60.33 125.597 60.846 125.993 61.53C126.389 62.214 126.587 63.048 126.587 64.032C126.587 65.016 126.389 65.85 125.993 66.534C125.597 67.218 125.063 67.74 124.391 68.1C123.719 68.46 122.963 68.64 122.123 68.64ZM122.249 67.506C122.945 67.506 123.563 67.362 124.103 67.074C124.643 66.774 125.069 66.366 125.381 65.85C125.693 65.322 125.849 64.716 125.849 64.032C125.849 63.348 125.693 62.748 125.381 62.232C125.069 61.716 124.643 61.314 124.103 61.026C123.563 60.726 122.945 60.576 122.249 60.576C121.565 60.576 120.947 60.726 120.395 61.026C119.855 61.314 119.429 61.716 119.117 62.232C118.817 62.748 118.667 63.348 118.667 64.032C118.667 64.716 118.817 65.322 119.117 65.85C119.429 66.366 119.855 66.774 120.395 67.074C120.947 67.362 121.565 67.506 122.249 67.506ZM130.647 69V59.55H131.925V69H130.647ZM131.295 57.462C131.031 57.462 130.809 57.372 130.629 57.192C130.449 57.012 130.359 56.796 130.359 56.544C130.359 56.292 130.449 56.082 130.629 55.914C130.809 55.734 131.031 55.644 131.295 55.644C131.559 55.644 131.781 55.728 131.961 55.896C132.141 56.064 132.231 56.274 132.231 56.526C132.231 56.79 132.141 57.012 131.961 57.192C131.793 57.372 131.571 57.462 131.295 57.462ZM140.305 59.46C141.073 59.46 141.745 59.61 142.321 59.91C142.909 60.198 143.365 60.642 143.689 61.242C144.025 61.842 144.193 62.598 144.193 63.51V69H142.915V63.636C142.915 62.64 142.663 61.89 142.159 61.386C141.667 60.87 140.971 60.612 140.071 60.612C139.399 60.612 138.811 60.75 138.307 61.026C137.815 61.29 137.431 61.68 137.155 62.196C136.891 62.7 136.759 63.312 136.759 64.032V69H135.481V59.55H136.705V62.142L136.507 61.656C136.807 60.972 137.287 60.438 137.947 60.054C138.607 59.658 139.393 59.46 140.305 59.46ZM151.677 72.582C150.813 72.582 149.985 72.456 149.193 72.204C148.401 71.952 147.759 71.592 147.267 71.124L147.915 70.152C148.359 70.548 148.905 70.86 149.553 71.088C150.213 71.328 150.909 71.448 151.641 71.448C152.841 71.448 153.723 71.166 154.287 70.602C154.851 70.05 155.133 69.186 155.133 68.01V65.652L155.313 64.032L155.187 62.412V59.55H156.411V67.848C156.411 69.48 156.009 70.674 155.205 71.43C154.413 72.198 153.237 72.582 151.677 72.582ZM151.443 68.64C150.543 68.64 149.733 68.448 149.013 68.064C148.293 67.668 147.723 67.122 147.303 66.426C146.895 65.73 146.691 64.932 146.691 64.032C146.691 63.132 146.895 62.34 147.303 61.656C147.723 60.96 148.293 60.42 149.013 60.036C149.733 59.652 150.543 59.46 151.443 59.46C152.283 59.46 153.039 59.634 153.711 59.982C154.383 60.33 154.917 60.846 155.313 61.53C155.709 62.214 155.907 63.048 155.907 64.032C155.907 65.016 155.709 65.85 155.313 66.534C154.917 67.218 154.383 67.74 153.711 68.1C153.039 68.46 152.283 68.64 151.443 68.64ZM151.569 67.506C152.265 67.506 152.883 67.362 153.423 67.074C153.963 66.774 154.389 66.366 154.701 65.85C155.013 65.322 155.169 64.716 155.169 64.032C155.169 63.348 155.013 62.748 154.701 62.232C154.389 61.716 153.963 61.314 153.423 61.026C152.883 60.726 152.265 60.576 151.569 60.576C150.885 60.576 150.267 60.726 149.715 61.026C149.175 61.314 148.749 61.716 148.437 62.232C148.137 62.748 147.987 63.348 147.987 64.032C147.987 64.716 148.137 65.322 148.437 65.85C148.749 66.366 149.175 66.774 149.715 67.074C150.267 67.362 150.885 67.506 151.569 67.506ZM168.422 69.108C167.486 69.108 166.586 68.958 165.722 68.658C164.87 68.346 164.21 67.95 163.742 67.47L164.264 66.444C164.708 66.876 165.302 67.242 166.046 67.542C166.802 67.83 167.594 67.974 168.422 67.974C169.214 67.974 169.856 67.878 170.348 67.686C170.852 67.482 171.218 67.212 171.446 66.876C171.686 66.54 171.806 66.168 171.806 65.76C171.806 65.268 171.662 64.872 171.374 64.572C171.098 64.272 170.732 64.038 170.276 63.87C169.82 63.69 169.316 63.534 168.764 63.402C168.212 63.27 167.66 63.132 167.108 62.988C166.556 62.832 166.046 62.628 165.578 62.376C165.122 62.124 164.75 61.794 164.462 61.386C164.186 60.966 164.048 60.42 164.048 59.748C164.048 59.124 164.21 58.554 164.534 58.038C164.87 57.51 165.38 57.09 166.064 56.778C166.748 56.454 167.624 56.292 168.692 56.292C169.4 56.292 170.102 56.394 170.798 56.598C171.494 56.79 172.094 57.06 172.598 57.408L172.148 58.47C171.608 58.11 171.032 57.846 170.42 57.678C169.82 57.51 169.238 57.426 168.674 57.426C167.918 57.426 167.294 57.528 166.802 57.732C166.31 57.936 165.944 58.212 165.704 58.56C165.476 58.896 165.362 59.28 165.362 59.712C165.362 60.204 165.5 60.6 165.776 60.9C166.064 61.2 166.436 61.434 166.892 61.602C167.36 61.77 167.87 61.92 168.422 62.052C168.974 62.184 169.52 62.328 170.06 62.484C170.612 62.64 171.116 62.844 171.572 63.096C172.04 63.336 172.412 63.66 172.688 64.068C172.976 64.476 173.12 65.01 173.12 65.67C173.12 66.282 172.952 66.852 172.616 67.38C172.28 67.896 171.764 68.316 171.068 68.64C170.384 68.952 169.502 69.108 168.422 69.108ZM178.741 69.09C177.853 69.09 177.169 68.85 176.689 68.37C176.209 67.89 175.969 67.212 175.969 66.336V57.462H177.247V66.264C177.247 66.816 177.385 67.242 177.661 67.542C177.949 67.842 178.357 67.992 178.885 67.992C179.449 67.992 179.917 67.83 180.289 67.506L180.739 68.424C180.487 68.652 180.181 68.82 179.821 68.928C179.473 69.036 179.113 69.09 178.741 69.09ZM174.277 60.612V59.55H180.127V60.612H174.277ZM188.987 69V66.912L188.933 66.57V63.078C188.933 62.274 188.705 61.656 188.249 61.224C187.805 60.792 187.139 60.576 186.251 60.576C185.639 60.576 185.057 60.678 184.505 60.882C183.953 61.086 183.485 61.356 183.101 61.692L182.525 60.738C183.005 60.33 183.581 60.018 184.253 59.802C184.925 59.574 185.633 59.46 186.377 59.46C187.601 59.46 188.543 59.766 189.203 60.378C189.875 60.978 190.211 61.896 190.211 63.132V69H188.987ZM185.729 69.09C185.021 69.09 184.403 68.976 183.875 68.748C183.359 68.508 182.963 68.184 182.687 67.776C182.411 67.356 182.273 66.876 182.273 66.336C182.273 65.844 182.387 65.4 182.615 65.004C182.855 64.596 183.239 64.272 183.767 64.032C184.307 63.78 185.027 63.654 185.927 63.654H189.185V64.608H185.963C185.051 64.608 184.415 64.77 184.055 65.094C183.707 65.418 183.533 65.82 183.533 66.3C183.533 66.84 183.743 67.272 184.163 67.596C184.583 67.92 185.171 68.082 185.927 68.082C186.647 68.082 187.265 67.92 187.781 67.596C188.309 67.26 188.693 66.78 188.933 66.156L189.221 67.038C188.981 67.662 188.561 68.16 187.961 68.532C187.373 68.904 186.629 69.09 185.729 69.09ZM193.682 69V59.55H194.906V62.124L194.78 61.674C195.044 60.954 195.488 60.408 196.112 60.036C196.736 59.652 197.51 59.46 198.434 59.46V60.702C198.386 60.702 198.338 60.702 198.29 60.702C198.242 60.69 198.194 60.684 198.146 60.684C197.15 60.684 196.37 60.99 195.806 61.602C195.242 62.202 194.96 63.06 194.96 64.176V69H193.682ZM204.159 69.09C203.271 69.09 202.587 68.85 202.107 68.37C201.627 67.89 201.387 67.212 201.387 66.336V57.462H202.665V66.264C202.665 66.816 202.803 67.242 203.079 67.542C203.367 67.842 203.775 67.992 204.303 67.992C204.867 67.992 205.335 67.83 205.707 67.506L206.157 68.424C205.905 68.652 205.599 68.82 205.239 68.928C204.891 69.036 204.531 69.09 204.159 69.09ZM199.695 60.612V59.55H205.545V60.612H199.695ZM211.021 69.09C210.241 69.09 209.503 68.982 208.807 68.766C208.111 68.538 207.565 68.256 207.169 67.92L207.745 66.912C208.129 67.2 208.621 67.452 209.221 67.668C209.821 67.872 210.451 67.974 211.111 67.974C212.011 67.974 212.659 67.836 213.055 67.56C213.451 67.272 213.649 66.894 213.649 66.426C213.649 66.078 213.535 65.808 213.307 65.616C213.091 65.412 212.803 65.262 212.443 65.166C212.083 65.058 211.681 64.968 211.237 64.896C210.793 64.824 210.349 64.74 209.905 64.644C209.473 64.548 209.077 64.41 208.717 64.23C208.357 64.038 208.063 63.78 207.835 63.456C207.619 63.132 207.511 62.7 207.511 62.16C207.511 61.644 207.655 61.182 207.943 60.774C208.231 60.366 208.651 60.048 209.203 59.82C209.767 59.58 210.451 59.46 211.255 59.46C211.867 59.46 212.479 59.544 213.091 59.712C213.703 59.868 214.207 60.078 214.603 60.342L214.045 61.368C213.625 61.08 213.175 60.876 212.695 60.756C212.215 60.624 211.735 60.558 211.255 60.558C210.403 60.558 209.773 60.708 209.365 61.008C208.969 61.296 208.771 61.668 208.771 62.124C208.771 62.484 208.879 62.766 209.095 62.97C209.323 63.174 209.617 63.336 209.977 63.456C210.349 63.564 210.751 63.654 211.183 63.726C211.627 63.798 212.065 63.888 212.497 63.996C212.941 64.092 213.343 64.23 213.703 64.41C214.075 64.578 214.369 64.824 214.585 65.148C214.813 65.46 214.927 65.874 214.927 66.39C214.927 66.942 214.771 67.422 214.459 67.83C214.159 68.226 213.715 68.538 213.127 68.766C212.551 68.982 211.849 69.09 211.021 69.09ZM231.469 56.4H232.783V69H231.469V56.4ZM223.585 69H222.253V56.4H223.585V69ZM231.595 63.186H223.441V62.016H231.595V63.186ZM240.64 69.09C239.656 69.09 238.792 68.886 238.048 68.478C237.304 68.058 236.722 67.488 236.302 66.768C235.882 66.036 235.672 65.202 235.672 64.266C235.672 63.33 235.87 62.502 236.266 61.782C236.674 61.062 237.226 60.498 237.922 60.09C238.63 59.67 239.422 59.46 240.298 59.46C241.186 59.46 241.972 59.664 242.656 60.072C243.352 60.468 243.898 61.032 244.294 61.764C244.69 62.484 244.888 63.318 244.888 64.266C244.888 64.326 244.882 64.392 244.87 64.464C244.87 64.524 244.87 64.59 244.87 64.662H236.644V63.708H244.186L243.682 64.086C243.682 63.402 243.532 62.796 243.232 62.268C242.944 61.728 242.548 61.308 242.044 61.008C241.54 60.708 240.958 60.558 240.298 60.558C239.65 60.558 239.068 60.708 238.552 61.008C238.036 61.308 237.634 61.728 237.346 62.268C237.058 62.808 236.914 63.426 236.914 64.122V64.32C236.914 65.04 237.07 65.676 237.382 66.228C237.706 66.768 238.15 67.194 238.714 67.506C239.29 67.806 239.944 67.956 240.676 67.956C241.252 67.956 241.786 67.854 242.278 67.65C242.782 67.446 243.214 67.134 243.574 66.714L244.294 67.542C243.874 68.046 243.346 68.43 242.71 68.694C242.086 68.958 241.396 69.09 240.64 69.09ZM247.489 69V59.55H248.713V62.124L248.587 61.674C248.851 60.954 249.295 60.408 249.919 60.036C250.543 59.652 251.317 59.46 252.241 59.46V60.702C252.193 60.702 252.145 60.702 252.097 60.702C252.049 60.69 252.001 60.684 251.953 60.684C250.957 60.684 250.177 60.99 249.613 61.602C249.049 62.202 248.767 63.06 248.767 64.176V69H247.489ZM258.499 69.09C257.515 69.09 256.651 68.886 255.907 68.478C255.163 68.058 254.581 67.488 254.161 66.768C253.741 66.036 253.531 65.202 253.531 64.266C253.531 63.33 253.729 62.502 254.125 61.782C254.533 61.062 255.085 60.498 255.781 60.09C256.489 59.67 257.281 59.46 258.157 59.46C259.045 59.46 259.831 59.664 260.515 60.072C261.211 60.468 261.757 61.032 262.153 61.764C262.549 62.484 262.747 63.318 262.747 64.266C262.747 64.326 262.741 64.392 262.729 64.464C262.729 64.524 262.729 64.59 262.729 64.662H254.503V63.708H262.045L261.541 64.086C261.541 63.402 261.391 62.796 261.091 62.268C260.803 61.728 260.407 61.308 259.903 61.008C259.399 60.708 258.817 60.558 258.157 60.558C257.509 60.558 256.927 60.708 256.411 61.008C255.895 61.308 255.493 61.728 255.205 62.268C254.917 62.808 254.773 63.426 254.773 64.122V64.32C254.773 65.04 254.929 65.676 255.241 66.228C255.565 66.768 256.009 67.194 256.573 67.506C257.149 67.806 257.803 67.956 258.535 67.956C259.111 67.956 259.645 67.854 260.137 67.65C260.641 67.446 261.073 67.134 261.433 66.714L262.153 67.542C261.733 68.046 261.205 68.43 260.569 68.694C259.945 68.958 259.255 69.09 258.499 69.09ZM7.56 102.108C6.612 102.108 5.73 101.952 4.914 101.64C4.11 101.316 3.408 100.866 2.808 100.29C2.22 99.702 1.758 99.024 1.422 98.256C1.098 97.476 0.936 96.624 0.936 95.7C0.936 94.776 1.098 93.93 1.422 93.162C1.758 92.382 2.22 91.704 2.808 91.128C3.408 90.54 4.11 90.09 4.914 89.778C5.718 89.454 6.6 89.292 7.56 89.292C8.508 89.292 9.384 89.454 10.188 89.778C10.992 90.09 11.688 90.534 12.276 91.11C12.876 91.686 13.338 92.364 13.662 93.144C13.998 93.924 14.166 94.776 14.166 95.7C14.166 96.624 13.998 97.476 13.662 98.256C13.338 99.036 12.876 99.714 12.276 100.29C11.688 100.866 10.992 101.316 10.188 101.64C9.384 101.952 8.508 102.108 7.56 102.108ZM7.56 100.92C8.316 100.92 9.012 100.794 9.648 100.542C10.296 100.278 10.854 99.912 11.322 99.444C11.802 98.964 12.174 98.412 12.438 97.788C12.702 97.152 12.834 96.456 12.834 95.7C12.834 94.944 12.702 94.254 12.438 93.63C12.174 92.994 11.802 92.442 11.322 91.974C10.854 91.494 10.296 91.128 9.648 90.876C9.012 90.612 8.316 90.48 7.56 90.48C6.804 90.48 6.102 90.612 5.454 90.876C4.806 91.128 4.242 91.494 3.762 91.974C3.294 92.442 2.922 92.994 2.646 93.63C2.382 94.254 2.25 94.944 2.25 95.7C2.25 96.444 2.382 97.134 2.646 97.77C2.922 98.406 3.294 98.964 3.762 99.444C4.242 99.912 4.806 100.278 5.454 100.542C6.102 100.794 6.804 100.92 7.56 100.92ZM20.7876 102.09C19.9836 102.09 19.2816 101.94 18.6816 101.64C18.0816 101.34 17.6136 100.89 17.2776 100.29C16.9536 99.69 16.7916 98.94 16.7916 98.04V92.55H18.0696V97.896C18.0696 98.904 18.3156 99.666 18.8076 100.182C19.3116 100.686 20.0136 100.938 20.9136 100.938C21.5736 100.938 22.1436 100.806 22.6236 100.542C23.1156 100.266 23.4876 99.87 23.7396 99.354C24.0036 98.838 24.1356 98.22 24.1356 97.5V92.55H25.4136V102H24.1896V99.408L24.3876 99.876C24.0876 100.572 23.6196 101.118 22.9836 101.514C22.3596 101.898 21.6276 102.09 20.7876 102.09ZM28.9754 102V92.55H30.1994V95.124L30.0734 94.674C30.3374 93.954 30.7814 93.408 31.4054 93.036C32.0294 92.652 32.8034 92.46 33.7274 92.46V93.702C33.6794 93.702 33.6314 93.702 33.5834 93.702C33.5354 93.69 33.4874 93.684 33.4394 93.684C32.4434 93.684 31.6634 93.99 31.0994 94.602C30.5354 95.202 30.2534 96.06 30.2534 97.176V102H28.9754ZM44.9249 102.09C43.9409 102.09 43.0769 101.886 42.3329 101.478C41.5889 101.058 41.0069 100.488 40.5869 99.768C40.1669 99.036 39.9569 98.202 39.9569 97.266C39.9569 96.33 40.1549 95.502 40.5509 94.782C40.9589 94.062 41.5109 93.498 42.2069 93.09C42.9149 92.67 43.7069 92.46 44.5829 92.46C45.4709 92.46 46.2569 92.664 46.9409 93.072C47.6369 93.468 48.1829 94.032 48.5789 94.764C48.9749 95.484 49.1729 96.318 49.1729 97.266C49.1729 97.326 49.1669 97.392 49.1549 97.464C49.1549 97.524 49.1549 97.59 49.1549 97.662H40.9289V96.708H48.4709L47.9669 97.086C47.9669 96.402 47.8169 95.796 47.5169 95.268C47.2289 94.728 46.8329 94.308 46.3289 94.008C45.8249 93.708 45.2429 93.558 44.5829 93.558C43.9349 93.558 43.3529 93.708 42.8369 94.008C42.3209 94.308 41.9189 94.728 41.6309 95.268C41.3429 95.808 41.1989 96.426 41.1989 97.122V97.32C41.1989 98.04 41.3549 98.676 41.6669 99.228C41.9909 99.768 42.4349 100.194 42.9989 100.506C43.5749 100.806 44.2289 100.956 44.9609 100.956C45.5369 100.956 46.0709 100.854 46.5629 100.65C47.0669 100.446 47.4989 100.134 47.8589 99.714L48.5789 100.542C48.1589 101.046 47.6309 101.43 46.9949 101.694C46.3709 101.958 45.6809 102.09 44.9249 102.09ZM50.0705 102L54.0665 96.816L54.0485 97.446L50.2505 92.55H51.6905L54.8045 96.6L54.2645 96.582L57.3785 92.55H58.7825L54.9485 97.5L54.9665 96.816L58.9985 102H57.5405L54.2465 97.68L54.7505 97.752L51.5105 102H50.0705ZM66.0038 102.09C65.1878 102.09 64.4498 101.904 63.7898 101.532C63.1298 101.148 62.6018 100.602 62.2058 99.894C61.8218 99.174 61.6298 98.298 61.6298 97.266C61.6298 96.234 61.8218 95.364 62.2058 94.656C62.5898 93.936 63.1118 93.39 63.7718 93.018C64.4318 92.646 65.1758 92.46 66.0038 92.46C66.9038 92.46 67.7078 92.664 68.4158 93.072C69.1358 93.468 69.6998 94.032 70.1078 94.764C70.5158 95.484 70.7198 96.318 70.7198 97.266C70.7198 98.226 70.5158 99.066 70.1078 99.786C69.6998 100.506 69.1358 101.07 68.4158 101.478C67.7078 101.886 66.9038 102.09 66.0038 102.09ZM61.1258 105.492V92.55H62.3498V95.394L62.2238 97.284L62.4038 99.192V105.492H61.1258ZM65.9138 100.956C66.5858 100.956 67.1858 100.806 67.7138 100.506C68.2418 100.194 68.6618 99.762 68.9738 99.21C69.2858 98.646 69.4418 97.998 69.4418 97.266C69.4418 96.534 69.2858 95.892 68.9738 95.34C68.6618 94.788 68.2418 94.356 67.7138 94.044C67.1858 93.732 66.5858 93.576 65.9138 93.576C65.2418 93.576 64.6358 93.732 64.0957 94.044C63.5678 94.356 63.1478 94.788 62.8358 95.34C62.5358 95.892 62.3858 96.534 62.3858 97.266C62.3858 97.998 62.5358 98.646 62.8358 99.21C63.1478 99.762 63.5678 100.194 64.0957 100.506C64.6358 100.806 65.2418 100.956 65.9138 100.956ZM77.339 102.09C76.355 102.09 75.491 101.886 74.747 101.478C74.003 101.058 73.421 100.488 73.001 99.768C72.581 99.036 72.371 98.202 72.371 97.266C72.371 96.33 72.569 95.502 72.965 94.782C73.373 94.062 73.925 93.498 74.621 93.09C75.329 92.67 76.121 92.46 76.997 92.46C77.885 92.46 78.671 92.664 79.355 93.072C80.051 93.468 80.597 94.032 80.993 94.764C81.389 95.484 81.587 96.318 81.587 97.266C81.587 97.326 81.581 97.392 81.569 97.464C81.569 97.524 81.569 97.59 81.569 97.662H73.343V96.708H80.885L80.381 97.086C80.381 96.402 80.231 95.796 79.931 95.268C79.643 94.728 79.247 94.308 78.743 94.008C78.239 93.708 77.657 93.558 76.997 93.558C76.349 93.558 75.767 93.708 75.251 94.008C74.735 94.308 74.333 94.728 74.045 95.268C73.757 95.808 73.613 96.426 73.613 97.122V97.32C73.613 98.04 73.769 98.676 74.081 99.228C74.405 99.768 74.849 100.194 75.413 100.506C75.989 100.806 76.643 100.956 77.375 100.956C77.951 100.956 78.485 100.854 78.977 100.65C79.481 100.446 79.913 100.134 80.273 99.714L80.993 100.542C80.573 101.046 80.045 101.43 79.409 101.694C78.785 101.958 78.095 102.09 77.339 102.09ZM84.1883 102V92.55H85.4123V95.124L85.2863 94.674C85.5503 93.954 85.9943 93.408 86.6183 93.036C87.2423 92.652 88.0163 92.46 88.9403 92.46V93.702C88.8923 93.702 88.8443 93.702 88.7963 93.702C88.7483 93.69 88.7003 93.684 88.6523 93.684C87.6562 93.684 86.8763 93.99 86.3123 94.602C85.7483 95.202 85.4663 96.06 85.4663 97.176V102H84.1883ZM94.6645 102.09C93.7765 102.09 93.0925 101.85 92.6125 101.37C92.1325 100.89 91.8925 100.212 91.8925 99.336V90.462H93.1705V99.264C93.1705 99.816 93.3085 100.242 93.5845 100.542C93.8725 100.842 94.2805 100.992 94.8085 100.992C95.3725 100.992 95.8405 100.83 96.2125 100.506L96.6625 101.424C96.4105 101.652 96.1045 101.82 95.7445 101.928C95.3965 102.036 95.0365 102.09 94.6645 102.09ZM90.2005 93.612V92.55H96.0505V93.612H90.2005ZM101.527 102.09C100.747 102.09 100.009 101.982 99.313 101.766C98.617 101.538 98.071 101.256 97.675 100.92L98.251 99.912C98.635 100.2 99.127 100.452 99.727 100.668C100.327 100.872 100.957 100.974 101.617 100.974C102.517 100.974 103.165 100.836 103.561 100.56C103.957 100.272 104.155 99.894 104.155 99.426C104.155 99.078 104.041 98.808 103.813 98.616C103.597 98.412 103.309 98.262 102.949 98.166C102.589 98.058 102.187 97.968 101.743 97.896C101.299 97.824 100.855 97.74 100.411 97.644C99.979 97.548 99.583 97.41 99.223 97.23C98.863 97.038 98.569 96.78 98.341 96.456C98.125 96.132 98.017 95.7 98.017 95.16C98.017 94.644 98.161 94.182 98.449 93.774C98.737 93.366 99.157 93.048 99.709 92.82C100.273 92.58 100.957 92.46 101.761 92.46C102.373 92.46 102.985 92.544 103.597 92.712C104.209 92.868 104.713 93.078 105.109 93.342L104.551 94.368C104.131 94.08 103.681 93.876 103.201 93.756C102.721 93.624 102.241 93.558 101.761 93.558C100.909 93.558 100.279 93.708 99.871 94.008C99.475 94.296 99.277 94.668 99.277 95.124C99.277 95.484 99.385 95.766 99.601 95.97C99.829 96.174 100.123 96.336 100.483 96.456C100.855 96.564 101.257 96.654 101.689 96.726C102.133 96.798 102.571 96.888 103.003 96.996C103.447 97.092 103.849 97.23 104.209 97.41C104.581 97.578 104.875 97.824 105.091 98.148C105.319 98.46 105.433 98.874 105.433 99.39C105.433 99.942 105.277 100.422 104.965 100.83C104.665 101.226 104.221 101.538 103.633 101.766C103.057 101.982 102.355 102.09 101.527 102.09ZM118.411 102V99.912L118.357 99.57V96.078C118.357 95.274 118.129 94.656 117.673 94.224C117.229 93.792 116.563 93.576 115.675 93.576C115.063 93.576 114.481 93.678 113.929 93.882C113.377 94.086 112.909 94.356 112.525 94.692L111.949 93.738C112.429 93.33 113.005 93.018 113.677 92.802C114.349 92.574 115.057 92.46 115.801 92.46C117.025 92.46 117.967 92.766 118.627 93.378C119.299 93.978 119.635 94.896 119.635 96.132V102H118.411ZM115.153 102.09C114.445 102.09 113.827 101.976 113.299 101.748C112.783 101.508 112.387 101.184 112.111 100.776C111.835 100.356 111.697 99.876 111.697 99.336C111.697 98.844 111.811 98.4 112.039 98.004C112.279 97.596 112.663 97.272 113.191 97.032C113.731 96.78 114.451 96.654 115.351 96.654H118.609V97.608H115.387C114.475 97.608 113.839 97.77 113.479 98.094C113.131 98.418 112.957 98.82 112.957 99.3C112.957 99.84 113.167 100.272 113.587 100.596C114.007 100.92 114.595 101.082 115.351 101.082C116.071 101.082 116.689 100.92 117.205 100.596C117.733 100.26 118.117 99.78 118.357 99.156L118.645 100.038C118.405 100.662 117.985 101.16 117.385 101.532C116.797 101.904 116.053 102.09 115.153 102.09ZM123.106 102V92.55H124.33V95.124L124.204 94.674C124.468 93.954 124.912 93.408 125.536 93.036C126.16 92.652 126.934 92.46 127.858 92.46V93.702C127.81 93.702 127.762 93.702 127.714 93.702C127.666 93.69 127.618 93.684 127.57 93.684C126.574 93.684 125.794 93.99 125.23 94.602C124.666 95.202 124.384 96.06 124.384 97.176V102H123.106ZM134.116 102.09C133.132 102.09 132.268 101.886 131.524 101.478C130.78 101.058 130.198 100.488 129.778 99.768C129.358 99.036 129.148 98.202 129.148 97.266C129.148 96.33 129.346 95.502 129.742 94.782C130.15 94.062 130.702 93.498 131.398 93.09C132.106 92.67 132.898 92.46 133.774 92.46C134.662 92.46 135.448 92.664 136.132 93.072C136.828 93.468 137.374 94.032 137.77 94.764C138.166 95.484 138.364 96.318 138.364 97.266C138.364 97.326 138.358 97.392 138.346 97.464C138.346 97.524 138.346 97.59 138.346 97.662H130.12V96.708H137.662L137.158 97.086C137.158 96.402 137.008 95.796 136.708 95.268C136.42 94.728 136.024 94.308 135.52 94.008C135.016 93.708 134.434 93.558 133.774 93.558C133.126 93.558 132.544 93.708 132.028 94.008C131.512 94.308 131.11 94.728 130.822 95.268C130.534 95.808 130.39 96.426 130.39 97.122V97.32C130.39 98.04 130.546 98.676 130.858 99.228C131.182 99.768 131.626 100.194 132.19 100.506C132.766 100.806 133.42 100.956 134.152 100.956C134.728 100.956 135.262 100.854 135.754 100.65C136.258 100.446 136.69 100.134 137.05 99.714L137.77 100.542C137.35 101.046 136.822 101.43 136.186 101.694C135.562 101.958 134.872 102.09 134.116 102.09ZM150.501 92.46C151.269 92.46 151.941 92.61 152.517 92.91C153.105 93.198 153.561 93.642 153.885 94.242C154.221 94.842 154.389 95.598 154.389 96.51V102H153.111V96.636C153.111 95.64 152.859 94.89 152.355 94.386C151.863 93.87 151.167 93.612 150.267 93.612C149.595 93.612 149.007 93.75 148.503 94.026C148.011 94.29 147.627 94.68 147.351 95.196C147.087 95.7 146.955 96.312 146.955 97.032V102H145.677V88.644H146.955V95.142L146.703 94.656C147.003 93.972 147.483 93.438 148.143 93.054C148.803 92.658 149.589 92.46 150.501 92.46ZM161.855 102.09C160.871 102.09 160.007 101.886 159.263 101.478C158.519 101.058 157.937 100.488 157.517 99.768C157.097 99.036 156.887 98.202 156.887 97.266C156.887 96.33 157.085 95.502 157.481 94.782C157.889 94.062 158.441 93.498 159.137 93.09C159.845 92.67 160.637 92.46 161.513 92.46C162.401 92.46 163.187 92.664 163.871 93.072C164.567 93.468 165.113 94.032 165.509 94.764C165.905 95.484 166.103 96.318 166.103 97.266C166.103 97.326 166.097 97.392 166.085 97.464C166.085 97.524 166.085 97.59 166.085 97.662H157.859V96.708H165.401L164.897 97.086C164.897 96.402 164.747 95.796 164.447 95.268C164.159 94.728 163.763 94.308 163.259 94.008C162.755 93.708 162.173 93.558 161.513 93.558C160.865 93.558 160.283 93.708 159.767 94.008C159.251 94.308 158.849 94.728 158.561 95.268C158.273 95.808 158.129 96.426 158.129 97.122V97.32C158.129 98.04 158.285 98.676 158.597 99.228C158.921 99.768 159.365 100.194 159.929 100.506C160.505 100.806 161.159 100.956 161.891 100.956C162.467 100.956 163.001 100.854 163.493 100.65C163.997 100.446 164.429 100.134 164.789 99.714L165.509 100.542C165.089 101.046 164.561 101.43 163.925 101.694C163.301 101.958 162.611 102.09 161.855 102.09ZM168.704 102V92.55H169.928V95.124L169.802 94.674C170.066 93.954 170.51 93.408 171.134 93.036C171.758 92.652 172.532 92.46 173.456 92.46V93.702C173.408 93.702 173.36 93.702 173.312 93.702C173.264 93.69 173.216 93.684 173.168 93.684C172.172 93.684 171.392 93.99 170.828 94.602C170.264 95.202 169.982 96.06 169.982 97.176V102H168.704ZM179.714 102.09C178.73 102.09 177.866 101.886 177.122 101.478C176.378 101.058 175.796 100.488 175.376 99.768C174.956 99.036 174.746 98.202 174.746 97.266C174.746 96.33 174.944 95.502 175.34 94.782C175.748 94.062 176.3 93.498 176.996 93.09C177.704 92.67 178.496 92.46 179.372 92.46C180.26 92.46 181.046 92.664 181.73 93.072C182.426 93.468 182.972 94.032 183.368 94.764C183.764 95.484 183.962 96.318 183.962 97.266C183.962 97.326 183.956 97.392 183.944 97.464C183.944 97.524 183.944 97.59 183.944 97.662H175.718V96.708H183.26L182.756 97.086C182.756 96.402 182.606 95.796 182.306 95.268C182.018 94.728 181.622 94.308 181.118 94.008C180.614 93.708 180.032 93.558 179.372 93.558C178.724 93.558 178.142 93.708 177.626 94.008C177.11 94.308 176.708 94.728 176.42 95.268C176.132 95.808 175.988 96.426 175.988 97.122V97.32C175.988 98.04 176.144 98.676 176.456 99.228C176.78 99.768 177.224 100.194 177.788 100.506C178.364 100.806 179.018 100.956 179.75 100.956C180.326 100.956 180.86 100.854 181.352 100.65C181.856 100.446 182.288 100.134 182.648 99.714L183.368 100.542C182.948 101.046 182.42 101.43 181.784 101.694C181.16 101.958 180.47 102.09 179.714 102.09ZM194.262 102.09C193.374 102.09 192.69 101.85 192.21 101.37C191.73 100.89 191.49 100.212 191.49 99.336V90.462H192.768V99.264C192.768 99.816 192.906 100.242 193.182 100.542C193.47 100.842 193.878 100.992 194.406 100.992C194.97 100.992 195.438 100.83 195.81 100.506L196.26 101.424C196.008 101.652 195.702 101.82 195.342 101.928C194.994 102.036 194.634 102.09 194.262 102.09ZM189.798 93.612V92.55H195.648V93.612H189.798ZM202.105 102.09C201.193 102.09 200.371 101.886 199.639 101.478C198.919 101.058 198.349 100.488 197.929 99.768C197.509 99.036 197.299 98.202 197.299 97.266C197.299 96.318 197.509 95.484 197.929 94.764C198.349 94.044 198.919 93.48 199.639 93.072C200.359 92.664 201.181 92.46 202.105 92.46C203.041 92.46 203.869 92.664 204.589 93.072C205.321 93.48 205.891 94.044 206.299 94.764C206.719 95.484 206.929 96.318 206.929 97.266C206.929 98.202 206.719 99.036 206.299 99.768C205.891 100.488 205.321 101.058 204.589 101.478C203.857 101.886 203.029 102.09 202.105 102.09ZM202.105 100.956C202.789 100.956 203.395 100.806 203.923 100.506C204.451 100.194 204.865 99.762 205.165 99.21C205.477 98.646 205.633 97.998 205.633 97.266C205.633 96.522 205.477 95.874 205.165 95.322C204.865 94.77 204.451 94.344 203.923 94.044C203.395 93.732 202.795 93.576 202.123 93.576C201.451 93.576 200.851 93.732 200.323 94.044C199.795 94.344 199.375 94.77 199.063 95.322C198.751 95.874 198.595 96.522 198.595 97.266C198.595 97.998 198.751 98.646 199.063 99.21C199.375 99.762 199.795 100.194 200.323 100.506C200.851 100.806 201.445 100.956 202.105 100.956ZM218.281 105.582C217.417 105.582 216.589 105.456 215.797 105.204C215.005 104.952 214.363 104.592 213.871 104.124L214.519 103.152C214.963 103.548 215.509 103.86 216.157 104.088C216.817 104.328 217.513 104.448 218.245 104.448C219.445 104.448 220.327 104.166 220.891 103.602C221.455 103.05 221.737 102.186 221.737 101.01V98.652L221.917 97.032L221.791 95.412V92.55H223.015V100.848C223.015 102.48 222.613 103.674 221.809 104.43C221.017 105.198 219.841 105.582 218.281 105.582ZM218.047 101.64C217.147 101.64 216.337 101.448 215.617 101.064C214.897 100.668 214.327 100.122 213.907 99.426C213.499 98.73 213.295 97.932 213.295 97.032C213.295 96.132 213.499 95.34 213.907 94.656C214.327 93.96 214.897 93.42 215.617 93.036C216.337 92.652 217.147 92.46 218.047 92.46C218.887 92.46 219.643 92.634 220.315 92.982C220.987 93.33 221.521 93.846 221.917 94.53C222.313 95.214 222.511 96.048 222.511 97.032C222.511 98.016 222.313 98.85 221.917 99.534C221.521 100.218 220.987 100.74 220.315 101.1C219.643 101.46 218.887 101.64 218.047 101.64ZM218.173 100.506C218.869 100.506 219.487 100.362 220.027 100.074C220.567 99.774 220.993 99.366 221.305 98.85C221.617 98.322 221.773 97.716 221.773 97.032C221.773 96.348 221.617 95.748 221.305 95.232C220.993 94.716 220.567 94.314 220.027 94.026C219.487 93.726 218.869 93.576 218.173 93.576C217.489 93.576 216.871 93.726 216.319 94.026C215.779 94.314 215.353 94.716 215.041 95.232C214.741 95.748 214.591 96.348 214.591 97.032C214.591 97.716 214.741 98.322 215.041 98.85C215.353 99.366 215.779 99.774 216.319 100.074C216.871 100.362 217.489 100.506 218.173 100.506ZM230.477 102.09C229.673 102.09 228.971 101.94 228.371 101.64C227.771 101.34 227.303 100.89 226.967 100.29C226.643 99.69 226.481 98.94 226.481 98.04V92.55H227.759V97.896C227.759 98.904 228.005 99.666 228.497 100.182C229.001 100.686 229.703 100.938 230.603 100.938C231.263 100.938 231.833 100.806 232.313 100.542C232.805 100.266 233.177 99.87 233.429 99.354C233.693 98.838 233.825 98.22 233.825 97.5V92.55H235.103V102H233.879V99.408L234.077 99.876C233.777 100.572 233.309 101.118 232.673 101.514C232.049 101.898 231.317 102.09 230.477 102.09ZM238.665 102V92.55H239.943V102H238.665ZM239.313 90.462C239.049 90.462 238.827 90.372 238.647 90.192C238.467 90.012 238.377 89.796 238.377 89.544C238.377 89.292 238.467 89.082 238.647 88.914C238.827 88.734 239.049 88.644 239.313 88.644C239.577 88.644 239.799 88.728 239.979 88.896C240.159 89.064 240.249 89.274 240.249 89.526C240.249 89.79 240.159 90.012 239.979 90.192C239.811 90.372 239.589 90.462 239.313 90.462ZM247.261 102.09C246.361 102.09 245.551 101.886 244.831 101.478C244.123 101.07 243.565 100.506 243.157 99.786C242.749 99.054 242.545 98.214 242.545 97.266C242.545 96.306 242.749 95.466 243.157 94.746C243.565 94.026 244.123 93.468 244.831 93.072C245.551 92.664 246.361 92.46 247.261 92.46C248.089 92.46 248.827 92.646 249.475 93.018C250.135 93.39 250.657 93.936 251.041 94.656C251.437 95.364 251.635 96.234 251.635 97.266C251.635 98.286 251.443 99.156 251.059 99.876C250.675 100.596 250.153 101.148 249.493 101.532C248.845 101.904 248.101 102.09 247.261 102.09ZM247.351 100.956C248.023 100.956 248.623 100.806 249.151 100.506C249.691 100.194 250.111 99.762 250.411 99.21C250.723 98.646 250.879 97.998 250.879 97.266C250.879 96.522 250.723 95.874 250.411 95.322C250.111 94.77 249.691 94.344 249.151 94.044C248.623 93.732 248.023 93.576 247.351 93.576C246.691 93.576 246.097 93.732 245.569 94.044C245.041 94.344 244.621 94.77 244.309 95.322C243.997 95.874 243.841 96.522 243.841 97.266C243.841 97.998 243.997 98.646 244.309 99.21C244.621 99.762 245.041 100.194 245.569 100.506C246.097 100.806 246.691 100.956 247.351 100.956ZM250.915 102V99.156L251.041 97.248L250.861 95.34V88.644H252.139V102H250.915ZM259.712 102.09C258.728 102.09 257.864 101.886 257.12 101.478C256.376 101.058 255.794 100.488 255.374 99.768C254.954 99.036 254.744 98.202 254.744 97.266C254.744 96.33 254.942 95.502 255.338 94.782C255.746 94.062 256.298 93.498 256.994 93.09C257.702 92.67 258.494 92.46 259.37 92.46C260.258 92.46 261.044 92.664 261.728 93.072C262.424 93.468 262.97 94.032 263.366 94.764C263.762 95.484 263.96 96.318 263.96 97.266C263.96 97.326 263.954 97.392 263.942 97.464C263.942 97.524 263.942 97.59 263.942 97.662H255.716V96.708H263.258L262.754 97.086C262.754 96.402 262.604 95.796 262.304 95.268C262.016 94.728 261.62 94.308 261.116 94.008C260.612 93.708 260.03 93.558 259.37 93.558C258.722 93.558 258.14 93.708 257.624 94.008C257.108 94.308 256.706 94.728 256.418 95.268C256.13 95.808 255.986 96.426 255.986 97.122V97.32C255.986 98.04 256.142 98.676 256.454 99.228C256.778 99.768 257.222 100.194 257.786 100.506C258.362 100.806 259.016 100.956 259.748 100.956C260.324 100.956 260.858 100.854 261.35 100.65C261.854 100.446 262.286 100.134 262.646 99.714L263.366 100.542C262.946 101.046 262.418 101.43 261.782 101.694C261.158 101.958 260.468 102.09 259.712 102.09ZM271.344 105.582C270.9 105.582 270.474 105.51 270.066 105.366C269.67 105.222 269.328 105.006 269.04 104.718L269.634 103.764C269.874 103.992 270.132 104.166 270.408 104.286C270.696 104.418 271.014 104.484 271.362 104.484C271.782 104.484 272.142 104.364 272.442 104.124C272.754 103.896 273.048 103.488 273.324 102.9L273.936 101.514L274.08 101.316L277.968 92.55H279.228L274.494 103.134C274.23 103.746 273.936 104.232 273.612 104.592C273.3 104.952 272.958 105.204 272.586 105.348C272.214 105.504 271.8 105.582 271.344 105.582ZM273.864 102.27L269.508 92.55H270.84L274.692 101.226L273.864 102.27ZM284.616 102.09C283.704 102.09 282.882 101.886 282.15 101.478C281.43 101.058 280.86 100.488 280.44 99.768C280.02 99.036 279.81 98.202 279.81 97.266C279.81 96.318 280.02 95.484 280.44 94.764C280.86 94.044 281.43 93.48 282.15 93.072C282.87 92.664 283.692 92.46 284.616 92.46C285.552 92.46 286.38 92.664 287.1 93.072C287.832 93.48 288.402 94.044 288.81 94.764C289.23 95.484 289.44 96.318 289.44 97.266C289.44 98.202 289.23 99.036 288.81 99.768C288.402 100.488 287.832 101.058 287.1 101.478C286.368 101.886 285.54 102.09 284.616 102.09ZM284.616 100.956C285.3 100.956 285.906 100.806 286.434 100.506C286.962 100.194 287.376 99.762 287.676 99.21C287.988 98.646 288.144 97.998 288.144 97.266C288.144 96.522 287.988 95.874 287.676 95.322C287.376 94.77 286.962 94.344 286.434 94.044C285.906 93.732 285.306 93.576 284.634 93.576C283.962 93.576 283.362 93.732 282.834 94.044C282.306 94.344 281.886 94.77 281.574 95.322C281.262 95.874 281.106 96.522 281.106 97.266C281.106 97.998 281.262 98.646 281.574 99.21C281.886 99.762 282.306 100.194 282.834 100.506C283.362 100.806 283.956 100.956 284.616 100.956ZM295.956 102.09C295.152 102.09 294.45 101.94 293.85 101.64C293.25 101.34 292.782 100.89 292.446 100.29C292.122 99.69 291.96 98.94 291.96 98.04V92.55H293.238V97.896C293.238 98.904 293.484 99.666 293.976 100.182C294.48 100.686 295.182 100.938 296.082 100.938C296.742 100.938 297.312 100.806 297.792 100.542C298.284 100.266 298.656 99.87 298.908 99.354C299.172 98.838 299.304 98.22 299.304 97.5V92.55H300.582V102H299.358V99.408L299.556 99.876C299.256 100.572 298.788 101.118 298.152 101.514C297.528 101.898 296.796 102.09 295.956 102.09ZM304.269 102.09C304.005 102.09 303.777 101.994 303.585 101.802C303.405 101.61 303.315 101.376 303.315 101.1C303.315 100.812 303.405 100.578 303.585 100.398C303.777 100.218 304.005 100.128 304.269 100.128C304.533 100.128 304.755 100.218 304.935 100.398C305.127 100.578 305.223 100.812 305.223 101.1C305.223 101.376 305.127 101.61 304.935 101.802C304.755 101.994 304.533 102.09 304.269 102.09Z" fill="black"/>
<path d="M0 119H131" stroke="#C7C7C7" stroke-width="2"/>
<path d="M173 119H304" stroke="#C7C7C7" stroke-width="2"/>
<path d="M157.708 114.333C148.333 116.417 146.146 122.844 143.979 128.229L145.948 128.917L146.938 126.521C147.438 126.698 147.958 126.833 148.333 126.833C159.792 126.833 162.917 109.125 162.917 109.125C161.875 111.208 154.583 111.469 149.375 112.51C144.167 113.552 142.083 117.979 142.083 120.062C142.083 122.146 143.906 123.969 143.906 123.969C147.292 114.333 157.708 114.333 157.708 114.333Z" fill="#557A3C"/>
</svg>
