<svg width="256" height="30" viewBox="0 0 256 30" fill="none" xmlns="http://www.w3.org/2000/svg">
<path d="M3.75 12H1.05682V3.27273H3.86932C4.71591 3.27273 5.44034 3.44744 6.04261 3.79688C6.64489 4.14347 7.10653 4.64205 7.42756 5.29261C7.74858 5.94034 7.90909 6.71591 7.90909 7.61932C7.90909 8.52841 7.74716 9.31108 7.4233 9.96733C7.09943 10.6207 6.62784 11.1236 6.00852 11.4759C5.3892 11.8253 4.63636 12 3.75 12ZM2.11364 11.0625H3.68182C4.40341 11.0625 5.00142 10.9233 5.47585 10.6449C5.95028 10.3665 6.30398 9.97017 6.53693 9.45597C6.76989 8.94176 6.88636 8.32955 6.88636 7.61932C6.88636 6.91477 6.77131 6.30824 6.54119 5.79972C6.31108 5.28835 5.96733 4.89631 5.50994 4.62358C5.05256 4.34801 4.48295 4.21023 3.80114 4.21023H2.11364V11.0625ZM9.52841 12V11.233L12.4091 8.07955C12.7472 7.71023 13.0256 7.3892 13.2443 7.11648C13.4631 6.84091 13.625 6.58239 13.7301 6.34091C13.8381 6.09659 13.892 5.84091 13.892 5.57386C13.892 5.26705 13.8182 5.00142 13.6705 4.77699C13.5256 4.55256 13.3267 4.37926 13.0739 4.2571C12.821 4.13494 12.5369 4.07386 12.2216 4.07386C11.8864 4.07386 11.5938 4.14347 11.3438 4.28267C11.0966 4.41903 10.9048 4.6108 10.7685 4.85795C10.6349 5.10511 10.5682 5.39489 10.5682 5.72727H9.5625C9.5625 5.21591 9.6804 4.76705 9.91619 4.38068C10.152 3.99432 10.473 3.69318 10.8793 3.47727C11.2884 3.26136 11.7472 3.15341 12.2557 3.15341C12.767 3.15341 13.2202 3.26136 13.6151 3.47727C14.0099 3.69318 14.3196 3.98437 14.544 4.35085C14.7685 4.71733 14.8807 5.125 14.8807 5.57386C14.8807 5.89489 14.8224 6.20881 14.706 6.51562C14.5923 6.8196 14.3935 7.15909 14.1094 7.53409C13.8281 7.90625 13.4375 8.3608 12.9375 8.89773L10.9773 10.9943V11.0625H15.0341V12H9.52841ZM16.794 12V11.233L19.6747 8.07955C20.0128 7.71023 20.2912 7.3892 20.5099 7.11648C20.7287 6.84091 20.8906 6.58239 20.9957 6.34091C21.1037 6.09659 21.1577 5.84091 21.1577 5.57386C21.1577 5.26705 21.0838 5.00142 20.9361 4.77699C20.7912 4.55256 20.5923 4.37926 20.3395 4.2571C20.0866 4.13494 19.8026 4.07386 19.4872 4.07386C19.152 4.07386 18.8594 4.14347 18.6094 4.28267C18.3622 4.41903 18.1705 4.6108 18.0341 4.85795C17.9006 5.10511 17.8338 5.39489 17.8338 5.72727H16.8281C16.8281 5.21591 16.946 4.76705 17.1818 4.38068C17.4176 3.99432 17.7386 3.69318 18.1449 3.47727C18.554 3.26136 19.0128 3.15341 19.5213 3.15341C20.0327 3.15341 20.4858 3.26136 20.8807 3.47727C21.2756 3.69318 21.5852 3.98437 21.8097 4.35085C22.0341 4.71733 22.1463 5.125 22.1463 5.57386C22.1463 5.89489 22.0881 6.20881 21.9716 6.51562C21.858 6.8196 21.6591 7.15909 21.375 7.53409C21.0938 7.90625 20.7031 8.3608 20.2031 8.89773L18.2429 10.9943V11.0625H22.2997V12H16.794ZM25.5767 10.8068L25.5085 11.267C25.4602 11.5909 25.3864 11.9375 25.2869 12.3068C25.1903 12.6761 25.0895 13.0241 24.9844 13.3509C24.8793 13.6776 24.7926 13.9375 24.7244 14.1307H23.9574C23.9943 13.9489 24.0426 13.7088 24.1023 13.4105C24.1619 13.1122 24.2216 12.7784 24.2812 12.4091C24.3438 12.0426 24.3949 11.6676 24.4347 11.2841L24.4858 10.8068H25.5767ZM35.7241 5.45455C35.6729 5.02273 35.4656 4.6875 35.1019 4.44886C34.7383 4.21023 34.2923 4.09091 33.7638 4.09091C33.3775 4.09091 33.0394 4.15341 32.7496 4.27841C32.4627 4.40341 32.2383 4.57528 32.0763 4.79403C31.9173 5.01278 31.8377 5.26136 31.8377 5.53977C31.8377 5.77273 31.8931 5.97301 32.0039 6.14062C32.1175 6.3054 32.2624 6.44318 32.4386 6.55398C32.6147 6.66193 32.7994 6.75142 32.9925 6.82244C33.1857 6.89062 33.3633 6.94602 33.5252 6.98864L34.4116 7.22727C34.6388 7.28693 34.8917 7.36932 35.1701 7.47443C35.4513 7.57955 35.7198 7.72301 35.9755 7.90483C36.234 8.08381 36.4471 8.31392 36.6147 8.59517C36.7823 8.87642 36.8661 9.22159 36.8661 9.63068C36.8661 10.1023 36.7425 10.5284 36.4954 10.9091C36.2511 11.2898 35.8931 11.5923 35.4215 11.8168C34.9528 12.0412 34.3832 12.1534 33.7127 12.1534C33.0877 12.1534 32.5465 12.0526 32.0891 11.8509C31.6346 11.6491 31.2766 11.3679 31.0153 11.0071C30.7567 10.6463 30.6104 10.2273 30.5763 9.75H31.6673C31.6957 10.0795 31.8065 10.3523 31.9996 10.5682C32.1957 10.7812 32.4428 10.9403 32.7411 11.0455C33.0423 11.1477 33.3661 11.1989 33.7127 11.1989C34.1161 11.1989 34.4783 11.1335 34.7994 11.0028C35.1204 10.8693 35.3746 10.6847 35.5621 10.4489C35.7496 10.2102 35.8434 9.93182 35.8434 9.61364C35.8434 9.32386 35.7624 9.08807 35.6005 8.90625C35.4386 8.72443 35.2255 8.5767 34.9613 8.46307C34.6971 8.34943 34.4116 8.25 34.1048 8.16477L33.0309 7.85795C32.3491 7.66193 31.8093 7.3821 31.4116 7.01847C31.0138 6.65483 30.815 6.17898 30.815 5.59091C30.815 5.10227 30.9471 4.67614 31.2113 4.3125C31.4783 3.94602 31.8363 3.66193 32.2852 3.46023C32.7369 3.25568 33.2411 3.15341 33.7979 3.15341C34.3604 3.15341 34.8604 3.25426 35.2979 3.45597C35.7354 3.65483 36.082 3.92756 36.3377 4.27415C36.5962 4.62074 36.7326 5.0142 36.7468 5.45455H35.7241ZM38.4673 12V5.45455H39.473V12H38.4673ZM38.9787 4.36364C38.7827 4.36364 38.6136 4.29688 38.4716 4.16335C38.3324 4.02983 38.2628 3.86932 38.2628 3.68182C38.2628 3.49432 38.3324 3.33381 38.4716 3.20028C38.6136 3.06676 38.7827 3 38.9787 3C39.1747 3 39.3423 3.06676 39.4815 3.20028C39.6236 3.33381 39.6946 3.49432 39.6946 3.68182C39.6946 3.86932 39.6236 4.02983 39.4815 4.16335C39.3423 4.29688 39.1747 4.36364 38.9787 4.36364ZM43.7866 12.1364C43.2411 12.1364 42.7596 11.9986 42.342 11.723C41.9244 11.4446 41.5977 11.0526 41.3619 10.5469C41.1261 10.0384 41.0082 9.4375 41.0082 8.74432C41.0082 8.05682 41.1261 7.46023 41.3619 6.95455C41.5977 6.44886 41.9258 6.05824 42.3462 5.78267C42.7667 5.5071 43.2525 5.36932 43.8036 5.36932C44.2298 5.36932 44.5664 5.44034 44.8136 5.58239C45.0636 5.72159 45.2539 5.88068 45.3846 6.05966C45.5181 6.2358 45.6218 6.38068 45.6957 6.49432H45.7809V3.27273H46.7866V12H45.815V10.9943H45.6957C45.6218 11.1136 45.5167 11.2642 45.3803 11.446C45.244 11.625 45.0494 11.7855 44.7965 11.9276C44.5437 12.0668 44.207 12.1364 43.7866 12.1364ZM43.9229 11.233C44.3263 11.233 44.6673 11.1278 44.9457 10.9176C45.2241 10.7045 45.4357 10.4105 45.5806 10.0355C45.7255 9.65767 45.7979 9.22159 45.7979 8.72727C45.7979 8.23864 45.7269 7.81108 45.5849 7.4446C45.4428 7.07528 45.2326 6.78835 44.9542 6.58381C44.6758 6.37642 44.332 6.27273 43.9229 6.27273C43.4968 6.27273 43.1417 6.3821 42.8576 6.60085C42.5763 6.81676 42.3647 7.1108 42.2227 7.48295C42.0835 7.85227 42.0138 8.26705 42.0138 8.72727C42.0138 9.19318 42.0849 9.61648 42.2269 9.99716C42.3718 10.375 42.5849 10.6761 42.8661 10.9006C43.1502 11.1222 43.5025 11.233 43.9229 11.233ZM51.4272 12.1364C50.8136 12.1364 50.2852 11.9915 49.842 11.7017C49.3988 11.4119 49.0579 11.0128 48.8192 10.5043C48.5806 9.99574 48.4613 9.41477 48.4613 8.76136C48.4613 8.09659 48.5835 7.50994 48.8278 7.00142C49.0749 6.49006 49.4187 6.09091 49.859 5.80398C50.3022 5.5142 50.8192 5.36932 51.4102 5.36932C51.8704 5.36932 52.2852 5.45455 52.6545 5.625C53.0238 5.79545 53.3263 6.03409 53.5621 6.34091C53.7979 6.64773 53.9442 7.00568 54.0011 7.41477H52.9954C52.9187 7.11648 52.7482 6.85227 52.484 6.62216C52.2227 6.3892 51.8704 6.27273 51.4272 6.27273C51.0352 6.27273 50.6914 6.375 50.396 6.57955C50.1033 6.78125 49.8746 7.06676 49.7099 7.43608C49.5479 7.80256 49.467 8.23295 49.467 8.72727C49.467 9.23295 49.5465 9.6733 49.7056 10.0483C49.8675 10.4233 50.0948 10.7145 50.3874 10.9219C50.6829 11.1293 51.0295 11.233 51.4272 11.233C51.6886 11.233 51.9258 11.1875 52.1388 11.0966C52.3519 11.0057 52.5323 10.875 52.68 10.7045C52.8278 10.5341 52.9329 10.3295 52.9954 10.0909H54.0011C53.9442 10.4773 53.8036 10.8253 53.5792 11.1349C53.3576 11.4418 53.0636 11.6861 52.6971 11.8679C52.3335 12.0469 51.9102 12.1364 51.4272 12.1364ZM58.1303 12.1364C57.5394 12.1364 57.021 11.9957 56.5749 11.7145C56.1317 11.4332 55.7852 11.0398 55.5352 10.5341C55.288 10.0284 55.1644 9.4375 55.1644 8.76136C55.1644 8.07955 55.288 7.48437 55.5352 6.97585C55.7852 6.46733 56.1317 6.07244 56.5749 5.79119C57.021 5.50994 57.5394 5.36932 58.1303 5.36932C58.7212 5.36932 59.2383 5.50994 59.6815 5.79119C60.1275 6.07244 60.4741 6.46733 60.7212 6.97585C60.9712 7.48437 61.0962 8.07955 61.0962 8.76136C61.0962 9.4375 60.9712 10.0284 60.7212 10.5341C60.4741 11.0398 60.1275 11.4332 59.6815 11.7145C59.2383 11.9957 58.7212 12.1364 58.1303 12.1364ZM58.1303 11.233C58.5792 11.233 58.9485 11.1179 59.2383 10.8878C59.5281 10.6577 59.7425 10.3551 59.8817 9.98011C60.021 9.60511 60.0906 9.19886 60.0906 8.76136C60.0906 8.32386 60.021 7.91619 59.8817 7.53835C59.7425 7.16051 59.5281 6.85511 59.2383 6.62216C58.9485 6.3892 58.5792 6.27273 58.1303 6.27273C57.6815 6.27273 57.3121 6.3892 57.0224 6.62216C56.7326 6.85511 56.5181 7.16051 56.3789 7.53835C56.2397 7.91619 56.1701 8.32386 56.1701 8.76136C56.1701 9.19886 56.2397 9.60511 56.3789 9.98011C56.5181 10.3551 56.7326 10.6577 57.0224 10.8878C57.3121 11.1179 57.6815 11.233 58.1303 11.233ZM66.0064 12V5.45455H67.0121V12H66.0064ZM66.5178 4.36364C66.3217 4.36364 66.1527 4.29688 66.0107 4.16335C65.8714 4.02983 65.8018 3.86932 65.8018 3.68182C65.8018 3.49432 65.8714 3.33381 66.0107 3.20028C66.1527 3.06676 66.3217 3 66.5178 3C66.7138 3 66.8814 3.06676 67.0206 3.20028C67.1626 3.33381 67.2337 3.49432 67.2337 3.68182C67.2337 3.86932 67.1626 4.02983 67.0206 4.16335C66.8814 4.29688 66.7138 4.36364 66.5178 4.36364ZM69.8597 8.0625V12H68.854V5.45455H69.8256V6.47727H69.9109C70.0643 6.14489 70.2972 5.87784 70.6097 5.67614C70.9222 5.47159 71.3256 5.36932 71.82 5.36932C72.2631 5.36932 72.6509 5.46023 72.9833 5.64205C73.3157 5.82102 73.5742 6.09375 73.7589 6.46023C73.9435 6.82386 74.0359 7.28409 74.0359 7.84091V12H73.0302V7.90909C73.0302 7.39489 72.8967 6.99432 72.6296 6.70739C72.3626 6.41761 71.9961 6.27273 71.5302 6.27273C71.2092 6.27273 70.9222 6.34233 70.6694 6.48153C70.4194 6.62074 70.2219 6.82386 70.0771 7.09091C69.9322 7.35795 69.8597 7.68182 69.8597 8.0625ZM78.3452 12.1364C77.7997 12.1364 77.3182 11.9986 76.9006 11.723C76.483 11.4446 76.1563 11.0526 75.9205 10.5469C75.6847 10.0384 75.5668 9.4375 75.5668 8.74432C75.5668 8.05682 75.6847 7.46023 75.9205 6.95455C76.1563 6.44886 76.4844 6.05824 76.9048 5.78267C77.3253 5.5071 77.8111 5.36932 78.3622 5.36932C78.7884 5.36932 79.125 5.44034 79.3722 5.58239C79.6222 5.72159 79.8125 5.88068 79.9432 6.05966C80.0767 6.2358 80.1804 6.38068 80.2543 6.49432H80.3395V3.27273H81.3452V12H80.3736V10.9943H80.2543C80.1804 11.1136 80.0753 11.2642 79.9389 11.446C79.8026 11.625 79.608 11.7855 79.3551 11.9276C79.1023 12.0668 78.7656 12.1364 78.3452 12.1364ZM78.4815 11.233C78.8849 11.233 79.2259 11.1278 79.5043 10.9176C79.7827 10.7045 79.9943 10.4105 80.1392 10.0355C80.2841 9.65767 80.3565 9.22159 80.3565 8.72727C80.3565 8.23864 80.2855 7.81108 80.1435 7.4446C80.0014 7.07528 79.7912 6.78835 79.5128 6.58381C79.2344 6.37642 78.8906 6.27273 78.4815 6.27273C78.0554 6.27273 77.7003 6.3821 77.4162 6.60085C77.1349 6.81676 76.9233 7.1108 76.7812 7.48295C76.642 7.85227 76.5724 8.26705 76.5724 8.72727C76.5724 9.19318 76.6435 9.61648 76.7855 9.99716C76.9304 10.375 77.1435 10.6761 77.4247 10.9006C77.7088 11.1222 78.0611 11.233 78.4815 11.233ZM87.4517 9.32386V5.45455H88.4574V12H87.4517V10.892H87.3835C87.2301 11.2244 86.9915 11.5071 86.6676 11.7401C86.3438 11.9702 85.9347 12.0852 85.4403 12.0852C85.0312 12.0852 84.6676 11.9957 84.3494 11.8168C84.0313 11.6349 83.7813 11.3622 83.5994 10.9986C83.4176 10.6321 83.3267 10.1705 83.3267 9.61364V5.45455H84.3324V9.54545C84.3324 10.0227 84.4659 10.4034 84.733 10.6875C85.0028 10.9716 85.3466 11.1136 85.7642 11.1136C86.0142 11.1136 86.2685 11.0497 86.527 10.9219C86.7884 10.794 87.0071 10.598 87.1832 10.3338C87.3622 10.0696 87.4517 9.73295 87.4517 9.32386ZM94.9357 6.92045L94.0323 7.17614C93.9755 7.02557 93.8917 6.87926 93.7809 6.73722C93.6729 6.59233 93.5252 6.47301 93.3377 6.37926C93.1502 6.28551 92.9102 6.23864 92.6175 6.23864C92.217 6.23864 91.8832 6.33097 91.6161 6.51562C91.3519 6.69744 91.2198 6.92898 91.2198 7.21023C91.2198 7.46023 91.3107 7.65767 91.4925 7.80256C91.6744 7.94744 91.9585 8.06818 92.3448 8.16477L93.3164 8.40341C93.9016 8.54545 94.3377 8.76278 94.6246 9.0554C94.9116 9.34517 95.055 9.71875 95.055 10.1761C95.055 10.5511 94.9471 10.8864 94.7312 11.1818C94.5181 11.4773 94.2198 11.7102 93.8363 11.8807C93.4528 12.0511 93.0067 12.1364 92.4982 12.1364C91.8306 12.1364 91.2781 11.9915 90.8406 11.7017C90.4031 11.4119 90.1261 10.9886 90.0096 10.4318L90.9641 10.1932C91.055 10.5455 91.2269 10.8097 91.4798 10.9858C91.7354 11.1619 92.0692 11.25 92.4812 11.25C92.9499 11.25 93.3221 11.1506 93.5977 10.9517C93.8761 10.75 94.0153 10.5085 94.0153 10.2273C94.0153 10 93.9357 9.80966 93.7766 9.65625C93.6175 9.5 93.3732 9.38352 93.0437 9.30682L91.9528 9.05114C91.3533 8.90909 90.913 8.68892 90.6317 8.39062C90.3533 8.08949 90.2141 7.71307 90.2141 7.26136C90.2141 6.89205 90.3178 6.56534 90.5252 6.28125C90.7354 5.99716 91.021 5.77415 91.3817 5.61222C91.7454 5.45028 92.1573 5.36932 92.6175 5.36932C93.2653 5.36932 93.7738 5.51136 94.1431 5.79545C94.5153 6.07955 94.7795 6.45455 94.9357 6.92045ZM99.4155 5.45455V6.30682H96.0234V5.45455H99.4155ZM97.0121 3.88636H98.0178V10.125C98.0178 10.4091 98.0589 10.6222 98.1413 10.7642C98.2266 10.9034 98.3345 10.9972 98.4652 11.0455C98.5987 11.0909 98.7393 11.1136 98.8871 11.1136C98.9979 11.1136 99.0888 11.108 99.1598 11.0966C99.2308 11.0824 99.2876 11.071 99.3303 11.0625L99.5348 11.9659C99.4666 11.9915 99.3714 12.017 99.2493 12.0426C99.1271 12.071 98.9723 12.0852 98.7848 12.0852C98.5007 12.0852 98.2223 12.0241 97.9496 11.902C97.6797 11.7798 97.4553 11.5938 97.2763 11.3438C97.1001 11.0938 97.0121 10.7784 97.0121 10.3977V3.88636ZM100.928 12V5.45455H101.9V6.44318H101.968C102.087 6.11932 102.303 5.85653 102.616 5.65483C102.928 5.45312 103.281 5.35227 103.673 5.35227C103.746 5.35227 103.839 5.35369 103.95 5.35653C104.06 5.35937 104.144 5.36364 104.201 5.36932V6.39205C104.167 6.38352 104.089 6.37074 103.967 6.35369C103.847 6.33381 103.721 6.32386 103.587 6.32386C103.269 6.32386 102.985 6.39062 102.735 6.52415C102.488 6.65483 102.292 6.83665 102.147 7.0696C102.005 7.29972 101.934 7.5625 101.934 7.85795V12H100.928ZM105.393 12V5.45455H106.399V12H105.393ZM105.904 4.36364C105.708 4.36364 105.539 4.29688 105.397 4.16335C105.258 4.02983 105.189 3.86932 105.189 3.68182C105.189 3.49432 105.258 3.33381 105.397 3.20028C105.539 3.06676 105.708 3 105.904 3C106.1 3 106.268 3.06676 106.407 3.20028C106.549 3.33381 106.62 3.49432 106.62 3.68182C106.62 3.86932 106.549 4.02983 106.407 4.16335C106.268 4.29688 106.1 4.36364 105.904 4.36364ZM110.167 12.1534C109.752 12.1534 109.376 12.0753 109.038 11.919C108.7 11.7599 108.431 11.5312 108.232 11.233C108.033 10.9318 107.934 10.5682 107.934 10.142C107.934 9.76705 108.008 9.46307 108.156 9.23011C108.303 8.99432 108.501 8.80966 108.748 8.67614C108.995 8.54261 109.268 8.44318 109.566 8.37784C109.867 8.30966 110.17 8.25568 110.474 8.21591C110.871 8.16477 111.194 8.12642 111.441 8.10085C111.691 8.07244 111.873 8.02557 111.987 7.96023C112.103 7.89489 112.161 7.78125 112.161 7.61932V7.58523C112.161 7.16477 112.046 6.83807 111.816 6.60511C111.589 6.37216 111.244 6.25568 110.781 6.25568C110.3 6.25568 109.924 6.3608 109.651 6.57102C109.379 6.78125 109.187 7.00568 109.076 7.24432L108.121 6.90341C108.292 6.50568 108.519 6.19602 108.803 5.97443C109.09 5.75 109.403 5.59375 109.741 5.50568C110.082 5.41477 110.417 5.36932 110.746 5.36932C110.957 5.36932 111.198 5.39489 111.471 5.44602C111.746 5.49432 112.012 5.59517 112.268 5.74858C112.526 5.90199 112.741 6.13352 112.911 6.44318C113.082 6.75284 113.167 7.16761 113.167 7.6875V12H112.161V11.1136H112.11C112.042 11.2557 111.928 11.4077 111.769 11.5696C111.61 11.7315 111.398 11.8693 111.134 11.983C110.87 12.0966 110.548 12.1534 110.167 12.1534ZM110.32 11.25C110.718 11.25 111.053 11.1719 111.326 11.0156C111.602 10.8594 111.809 10.6577 111.948 10.4105C112.09 10.1634 112.161 9.90341 112.161 9.63068V8.71023C112.119 8.76136 112.025 8.80824 111.88 8.85085C111.738 8.89062 111.573 8.92614 111.386 8.95739C111.201 8.9858 111.021 9.01136 110.844 9.03409C110.671 9.05398 110.531 9.07102 110.423 9.08523C110.161 9.11932 109.917 9.17472 109.69 9.25142C109.465 9.32528 109.283 9.4375 109.144 9.58807C109.008 9.7358 108.94 9.9375 108.94 10.1932C108.94 10.5426 109.069 10.8068 109.327 10.9858C109.589 11.1619 109.92 11.25 110.32 11.25ZM116.008 3.27273V12H115.002V3.27273H116.008ZM123.969 12.1364C123.339 12.1364 122.795 11.9972 122.337 11.7188C121.883 11.4375 121.532 11.0455 121.285 10.5426C121.04 10.0369 120.918 9.44886 120.918 8.77841C120.918 8.10795 121.04 7.51705 121.285 7.00568C121.532 6.49148 121.876 6.09091 122.316 5.80398C122.759 5.5142 123.276 5.36932 123.867 5.36932C124.208 5.36932 124.545 5.42614 124.877 5.53977C125.21 5.65341 125.512 5.83807 125.785 6.09375C126.058 6.34659 126.275 6.68182 126.437 7.09943C126.599 7.51705 126.68 8.03125 126.68 8.64205V9.06818H121.634V8.19886H125.657C125.657 7.82955 125.583 7.5 125.435 7.21023C125.29 6.92045 125.083 6.69176 124.813 6.52415C124.546 6.35653 124.231 6.27273 123.867 6.27273C123.467 6.27273 123.12 6.37216 122.827 6.57102C122.538 6.76705 122.315 7.02273 122.158 7.33807C122.002 7.65341 121.924 7.99148 121.924 8.35227V8.93182C121.924 9.42614 122.009 9.84517 122.18 10.1889C122.353 10.5298 122.593 10.7898 122.9 10.9688C123.207 11.1449 123.563 11.233 123.969 11.233C124.234 11.233 124.472 11.196 124.685 11.1222C124.901 11.0455 125.087 10.9318 125.244 10.7812C125.4 10.6278 125.521 10.4375 125.606 10.2102L126.577 10.483C126.475 10.8125 126.303 11.1023 126.062 11.3523C125.82 11.5994 125.522 11.7926 125.167 11.9318C124.812 12.0682 124.413 12.1364 123.969 12.1364ZM132.846 6.92045L131.942 7.17614C131.886 7.02557 131.802 6.87926 131.691 6.73722C131.583 6.59233 131.435 6.47301 131.248 6.37926C131.06 6.28551 130.82 6.23864 130.528 6.23864C130.127 6.23864 129.793 6.33097 129.526 6.51562C129.262 6.69744 129.13 6.92898 129.13 7.21023C129.13 7.46023 129.221 7.65767 129.403 7.80256C129.585 7.94744 129.869 8.06818 130.255 8.16477L131.227 8.40341C131.812 8.54545 132.248 8.76278 132.535 9.0554C132.822 9.34517 132.965 9.71875 132.965 10.1761C132.965 10.5511 132.857 10.8864 132.641 11.1818C132.428 11.4773 132.13 11.7102 131.746 11.8807C131.363 12.0511 130.917 12.1364 130.408 12.1364C129.741 12.1364 129.188 11.9915 128.751 11.7017C128.313 11.4119 128.036 10.9886 127.92 10.4318L128.874 10.1932C128.965 10.5455 129.137 10.8097 129.39 10.9858C129.646 11.1619 129.979 11.25 130.391 11.25C130.86 11.25 131.232 11.1506 131.508 10.9517C131.786 10.75 131.925 10.5085 131.925 10.2273C131.925 10 131.846 9.80966 131.687 9.65625C131.528 9.5 131.283 9.38352 130.954 9.30682L129.863 9.05114C129.263 8.90909 128.823 8.68892 128.542 8.39062C128.263 8.08949 128.124 7.71307 128.124 7.26136C128.124 6.89205 128.228 6.56534 128.435 6.28125C128.646 5.99716 128.931 5.77415 129.292 5.61222C129.656 5.45028 130.067 5.36932 130.528 5.36932C131.175 5.36932 131.684 5.51136 132.053 5.79545C132.425 6.07955 132.69 6.45455 132.846 6.92045ZM137.326 5.45455V6.30682H133.934V5.45455H137.326ZM134.922 3.88636H135.928V10.125C135.928 10.4091 135.969 10.6222 136.051 10.7642C136.137 10.9034 136.245 10.9972 136.375 11.0455C136.509 11.0909 136.65 11.1136 136.797 11.1136C136.908 11.1136 136.999 11.108 137.07 11.0966C137.141 11.0824 137.198 11.071 137.24 11.0625L137.445 11.9659C137.377 11.9915 137.282 12.017 137.159 12.0426C137.037 12.071 136.882 12.0852 136.695 12.0852C136.411 12.0852 136.132 12.0241 135.86 11.902C135.59 11.7798 135.365 11.5938 135.186 11.3438C135.01 11.0938 134.922 10.7784 134.922 10.3977V3.88636ZM140.765 12.1534C140.35 12.1534 139.973 12.0753 139.635 11.919C139.297 11.7599 139.029 11.5312 138.83 11.233C138.631 10.9318 138.532 10.5682 138.532 10.142C138.532 9.76705 138.605 9.46307 138.753 9.23011C138.901 8.99432 139.098 8.80966 139.346 8.67614C139.593 8.54261 139.865 8.44318 140.164 8.37784C140.465 8.30966 140.767 8.25568 141.071 8.21591C141.469 8.16477 141.792 8.12642 142.039 8.10085C142.289 8.07244 142.471 8.02557 142.584 7.96023C142.701 7.89489 142.759 7.78125 142.759 7.61932V7.58523C142.759 7.16477 142.644 6.83807 142.414 6.60511C142.186 6.37216 141.841 6.25568 141.378 6.25568C140.898 6.25568 140.522 6.3608 140.249 6.57102C139.976 6.78125 139.784 7.00568 139.674 7.24432L138.719 6.90341C138.89 6.50568 139.117 6.19602 139.401 5.97443C139.688 5.75 140 5.59375 140.338 5.50568C140.679 5.41477 141.015 5.36932 141.344 5.36932C141.554 5.36932 141.796 5.39489 142.069 5.44602C142.344 5.49432 142.61 5.59517 142.865 5.74858C143.124 5.90199 143.338 6.13352 143.509 6.44318C143.679 6.75284 143.765 7.16761 143.765 7.6875V12H142.759V11.1136H142.708C142.64 11.2557 142.526 11.4077 142.367 11.5696C142.208 11.7315 141.996 11.8693 141.732 11.983C141.468 12.0966 141.145 12.1534 140.765 12.1534ZM140.918 11.25C141.316 11.25 141.651 11.1719 141.924 11.0156C142.199 10.8594 142.407 10.6577 142.546 10.4105C142.688 10.1634 142.759 9.90341 142.759 9.63068V8.71023C142.716 8.76136 142.623 8.80824 142.478 8.85085C142.336 8.89062 142.171 8.92614 141.983 8.95739C141.799 8.9858 141.618 9.01136 141.442 9.03409C141.269 9.05398 141.128 9.07102 141.02 9.08523C140.759 9.11932 140.515 9.17472 140.287 9.25142C140.063 9.32528 139.881 9.4375 139.742 9.58807C139.605 9.7358 139.537 9.9375 139.537 10.1932C139.537 10.5426 139.667 10.8068 139.925 10.9858C140.186 11.1619 140.517 11.25 140.918 11.25ZM148.447 5.45455V6.30682H145.055V5.45455H148.447ZM146.043 3.88636H147.049V10.125C147.049 10.4091 147.09 10.6222 147.173 10.7642C147.258 10.9034 147.366 10.9972 147.496 11.0455C147.63 11.0909 147.771 11.1136 147.918 11.1136C148.029 11.1136 148.12 11.108 148.191 11.0966C148.262 11.0824 148.319 11.071 148.362 11.0625L148.566 11.9659C148.498 11.9915 148.403 12.017 148.281 12.0426C148.158 12.071 148.004 12.0852 147.816 12.0852C147.532 12.0852 147.254 12.0241 146.981 11.902C146.711 11.7798 146.487 11.5938 146.308 11.3438C146.131 11.0938 146.043 10.7784 146.043 10.3977V3.88636ZM152.634 12.1364C152.003 12.1364 151.459 11.9972 151.001 11.7188C150.547 11.4375 150.196 11.0455 149.949 10.5426C149.705 10.0369 149.582 9.44886 149.582 8.77841C149.582 8.10795 149.705 7.51705 149.949 7.00568C150.196 6.49148 150.54 6.09091 150.98 5.80398C151.423 5.5142 151.94 5.36932 152.531 5.36932C152.872 5.36932 153.209 5.42614 153.541 5.53977C153.874 5.65341 154.176 5.83807 154.449 6.09375C154.722 6.34659 154.939 6.68182 155.101 7.09943C155.263 7.51705 155.344 8.03125 155.344 8.64205V9.06818H150.298V8.19886H154.321C154.321 7.82955 154.247 7.5 154.099 7.21023C153.955 6.92045 153.747 6.69176 153.477 6.52415C153.21 6.35653 152.895 6.27273 152.531 6.27273C152.131 6.27273 151.784 6.37216 151.491 6.57102C151.202 6.76705 150.979 7.02273 150.822 7.33807C150.666 7.65341 150.588 7.99148 150.588 8.35227V8.93182C150.588 9.42614 150.673 9.84517 150.844 10.1889C151.017 10.5298 151.257 10.7898 151.564 10.9688C151.871 11.1449 152.227 11.233 152.634 11.233C152.898 11.233 153.136 11.196 153.349 11.1222C153.565 11.0455 153.751 10.9318 153.908 10.7812C154.064 10.6278 154.185 10.4375 154.27 10.2102L155.241 10.483C155.139 10.8125 154.967 11.1023 154.726 11.3523C154.484 11.5994 154.186 11.7926 153.831 11.9318C153.476 12.0682 153.077 12.1364 152.634 12.1364ZM158.374 10.8068L158.305 11.267C158.257 11.5909 158.183 11.9375 158.084 12.3068C157.987 12.6761 157.886 13.0241 157.781 13.3509C157.676 13.6776 157.589 13.9375 157.521 14.1307H156.754C156.791 13.9489 156.839 13.7088 156.899 13.4105C156.959 13.1122 157.018 12.7784 157.078 12.4091C157.141 12.0426 157.192 11.6676 157.232 11.2841L157.283 10.8068H158.374ZM163.271 4.21023V3.27273H169.816V4.21023H167.072V12H166.015V4.21023H163.271ZM172.317 8.0625V12H171.311V3.27273H172.317V6.47727H172.402C172.555 6.1392 172.786 5.87074 173.092 5.67188C173.402 5.47017 173.814 5.36932 174.328 5.36932C174.774 5.36932 175.165 5.45881 175.5 5.63778C175.835 5.81392 176.095 6.08523 176.28 6.4517C176.467 6.81534 176.561 7.27841 176.561 7.84091V12H175.555V7.90909C175.555 7.3892 175.42 6.98722 175.151 6.70312C174.884 6.41619 174.513 6.27273 174.038 6.27273C173.709 6.27273 173.413 6.34233 173.152 6.48153C172.893 6.62074 172.689 6.82386 172.538 7.09091C172.391 7.35795 172.317 7.68182 172.317 8.0625ZM182.526 9.32386V5.45455H183.532V12H182.526V10.892H182.458C182.304 11.2244 182.066 11.5071 181.742 11.7401C181.418 11.9702 181.009 12.0852 180.515 12.0852C180.105 12.0852 179.742 11.9957 179.424 11.8168C179.105 11.6349 178.855 11.3622 178.674 10.9986C178.492 10.6321 178.401 10.1705 178.401 9.61364V5.45455H179.407V9.54545C179.407 10.0227 179.54 10.4034 179.807 10.6875C180.077 10.9716 180.421 11.1136 180.838 11.1136C181.088 11.1136 181.343 11.0497 181.601 10.9219C181.863 10.794 182.081 10.598 182.257 10.3338C182.436 10.0696 182.526 9.73295 182.526 9.32386ZM190.726 5.45455L188.305 12H187.283L184.862 5.45455H185.953L187.76 10.6705H187.828L189.635 5.45455H190.726ZM193.78 12.1534C193.365 12.1534 192.989 12.0753 192.651 11.919C192.313 11.7599 192.044 11.5312 191.846 11.233C191.647 10.9318 191.547 10.5682 191.547 10.142C191.547 9.76705 191.621 9.46307 191.769 9.23011C191.917 8.99432 192.114 8.80966 192.361 8.67614C192.608 8.54261 192.881 8.44318 193.179 8.37784C193.48 8.30966 193.783 8.25568 194.087 8.21591C194.485 8.16477 194.807 8.12642 195.054 8.10085C195.304 8.07244 195.486 8.02557 195.6 7.96023C195.716 7.89489 195.775 7.78125 195.775 7.61932V7.58523C195.775 7.16477 195.659 6.83807 195.429 6.60511C195.202 6.37216 194.857 6.25568 194.394 6.25568C193.914 6.25568 193.537 6.3608 193.265 6.57102C192.992 6.78125 192.8 7.00568 192.689 7.24432L191.735 6.90341C191.905 6.50568 192.132 6.19602 192.417 5.97443C192.703 5.75 193.016 5.59375 193.354 5.50568C193.695 5.41477 194.03 5.36932 194.36 5.36932C194.57 5.36932 194.811 5.39489 195.084 5.44602C195.36 5.49432 195.625 5.59517 195.881 5.74858C196.14 5.90199 196.354 6.13352 196.525 6.44318C196.695 6.75284 196.78 7.16761 196.78 7.6875V12H195.775V11.1136H195.723C195.655 11.2557 195.542 11.4077 195.382 11.5696C195.223 11.7315 195.012 11.8693 194.748 11.983C194.483 12.0966 194.161 12.1534 193.78 12.1534ZM193.934 11.25C194.331 11.25 194.667 11.1719 194.939 11.0156C195.215 10.8594 195.422 10.6577 195.561 10.4105C195.703 10.1634 195.775 9.90341 195.775 9.63068V8.71023C195.732 8.76136 195.638 8.80824 195.493 8.85085C195.351 8.89062 195.186 8.92614 194.999 8.95739C194.814 8.9858 194.634 9.01136 194.458 9.03409C194.284 9.05398 194.144 9.07102 194.036 9.08523C193.775 9.11932 193.53 9.17472 193.303 9.25142C193.078 9.32528 192.897 9.4375 192.757 9.58807C192.621 9.7358 192.553 9.9375 192.553 10.1932C192.553 10.5426 192.682 10.8068 192.941 10.9858C193.202 11.1619 193.533 11.25 193.934 11.25ZM199.553 9.61364L199.536 8.36932H199.741L202.604 5.45455H203.849L200.798 8.53977H200.712L199.553 9.61364ZM198.616 12V3.27273H199.621V12H198.616ZM202.775 12L200.218 8.76136L200.934 8.0625L204.053 12H202.775ZM209.268 9.32386V5.45455H210.274V12H209.268V10.892H209.2C209.047 11.2244 208.808 11.5071 208.484 11.7401C208.16 11.9702 207.751 12.0852 207.257 12.0852C206.848 12.0852 206.484 11.9957 206.166 11.8168C205.848 11.6349 205.598 11.3622 205.416 10.9986C205.234 10.6321 205.143 10.1705 205.143 9.61364V5.45455H206.149V9.54545C206.149 10.0227 206.282 10.4034 206.549 10.6875C206.819 10.9716 207.163 11.1136 207.581 11.1136C207.831 11.1136 208.085 11.0497 208.343 10.9219C208.605 10.794 208.824 10.598 209 10.3338C209.179 10.0696 209.268 9.73295 209.268 9.32386ZM214.587 12.1364C214.042 12.1364 213.56 11.9986 213.143 11.723C212.725 11.4446 212.398 11.0526 212.163 10.5469C211.927 10.0384 211.809 9.4375 211.809 8.74432C211.809 8.05682 211.927 7.46023 212.163 6.95455C212.398 6.44886 212.727 6.05824 213.147 5.78267C213.567 5.5071 214.053 5.36932 214.604 5.36932C215.031 5.36932 215.367 5.44034 215.614 5.58239C215.864 5.72159 216.055 5.88068 216.185 6.05966C216.319 6.2358 216.423 6.38068 216.496 6.49432H216.582V3.27273H217.587V12H216.616V10.9943H216.496C216.423 11.1136 216.317 11.2642 216.181 11.446C216.045 11.625 215.85 11.7855 215.597 11.9276C215.344 12.0668 215.008 12.1364 214.587 12.1364ZM214.724 11.233C215.127 11.233 215.468 11.1278 215.746 10.9176C216.025 10.7045 216.237 10.4105 216.381 10.0355C216.526 9.65767 216.599 9.22159 216.599 8.72727C216.599 8.23864 216.528 7.81108 216.386 7.4446C216.244 7.07528 216.033 6.78835 215.755 6.58381C215.477 6.37642 215.133 6.27273 214.724 6.27273C214.298 6.27273 213.942 6.3821 213.658 6.60085C213.377 6.81676 213.165 7.1108 213.023 7.48295C212.884 7.85227 212.815 8.26705 212.815 8.72727C212.815 9.19318 212.886 9.61648 213.028 9.99716C213.173 10.375 213.386 10.6761 213.667 10.9006C213.951 11.1222 214.303 11.233 214.724 11.233ZM219.569 12V5.45455H220.575V12H219.569ZM220.08 4.36364C219.884 4.36364 219.715 4.29688 219.573 4.16335C219.434 4.02983 219.364 3.86932 219.364 3.68182C219.364 3.49432 219.434 3.33381 219.573 3.20028C219.715 3.06676 219.884 3 220.08 3C220.276 3 220.444 3.06676 220.583 3.20028C220.725 3.33381 220.796 3.49432 220.796 3.68182C220.796 3.86932 220.725 4.02983 220.583 4.16335C220.444 4.29688 220.276 4.36364 220.08 4.36364ZM223.917 10.8068L223.848 11.267C223.8 11.5909 223.726 11.9375 223.627 12.3068C223.53 12.6761 223.429 13.0241 223.324 13.3509C223.219 13.6776 223.132 13.9375 223.064 14.1307H222.297C222.334 13.9489 222.382 13.7088 222.442 13.4105C222.502 13.1122 222.561 12.7784 222.621 12.4091C222.684 12.0426 222.735 11.6676 222.775 11.2841L222.826 10.8068H223.917ZM0.579545 19.2102V18.2727H7.125V19.2102H4.38068V27H3.32386V19.2102H0.579545ZM8.61967 27V20.4545H9.62536V27H8.61967ZM9.13104 19.3636C8.93501 19.3636 8.76598 19.2969 8.62393 19.1634C8.48473 19.0298 8.41513 18.8693 8.41513 18.6818C8.41513 18.4943 8.48473 18.3338 8.62393 18.2003C8.76598 18.0668 8.93501 18 9.13104 18C9.32706 18 9.49467 18.0668 9.63388 18.2003C9.77592 18.3338 9.84695 18.4943 9.84695 18.6818C9.84695 18.8693 9.77592 19.0298 9.63388 19.1634C9.49467 19.2969 9.32706 19.3636 9.13104 19.3636ZM11.4673 27V20.4545H12.4389V21.4432H12.5071C12.6264 21.1193 12.8423 20.8565 13.1548 20.6548C13.4673 20.4531 13.8196 20.3523 14.2116 20.3523C14.2855 20.3523 14.3778 20.3537 14.4886 20.3565C14.5994 20.3594 14.6832 20.3636 14.7401 20.3693V21.392C14.706 21.3835 14.6278 21.3707 14.5057 21.3537C14.3864 21.3338 14.2599 21.3239 14.1264 21.3239C13.8082 21.3239 13.5241 21.3906 13.2741 21.5241C13.027 21.6548 12.831 21.8366 12.6861 22.0696C12.544 22.2997 12.473 22.5625 12.473 22.858V27H11.4673ZM20.0572 24.3239V20.4545H21.0629V27H20.0572V25.892H19.989C19.8356 26.2244 19.5969 26.5071 19.2731 26.7401C18.9492 26.9702 18.5401 27.0852 18.0458 27.0852C17.6367 27.0852 17.2731 26.9957 16.9549 26.8168C16.6367 26.6349 16.3867 26.3622 16.2049 25.9986C16.0231 25.6321 15.9322 25.1705 15.9322 24.6136V20.4545H16.9379V24.5455C16.9379 25.0227 17.0714 25.4034 17.3384 25.6875C17.6083 25.9716 17.9521 26.1136 18.3697 26.1136C18.6197 26.1136 18.8739 26.0497 19.1325 25.9219C19.3938 25.794 19.6126 25.598 19.7887 25.3338C19.9677 25.0696 20.0572 24.733 20.0572 24.3239ZM25.5639 27.1364C24.9503 27.1364 24.4219 26.9915 23.9787 26.7017C23.5355 26.4119 23.1946 26.0128 22.956 25.5043C22.7173 24.9957 22.598 24.4148 22.598 23.7614C22.598 23.0966 22.7202 22.5099 22.9645 22.0014C23.2116 21.4901 23.5554 21.0909 23.9957 20.804C24.4389 20.5142 24.956 20.3693 25.5469 20.3693C26.0071 20.3693 26.4219 20.4545 26.7912 20.625C27.1605 20.7955 27.4631 21.0341 27.6989 21.3409C27.9347 21.6477 28.081 22.0057 28.1378 22.4148H27.1321C27.0554 22.1165 26.8849 21.8523 26.6207 21.6222C26.3594 21.3892 26.0071 21.2727 25.5639 21.2727C25.1719 21.2727 24.8281 21.375 24.5327 21.5795C24.2401 21.7812 24.0114 22.0668 23.8466 22.4361C23.6847 22.8026 23.6037 23.233 23.6037 23.7273C23.6037 24.233 23.6832 24.6733 23.8423 25.0483C24.0043 25.4233 24.2315 25.7145 24.5241 25.9219C24.8196 26.1293 25.1662 26.233 25.5639 26.233C25.8253 26.233 26.0625 26.1875 26.2756 26.0966C26.4886 26.0057 26.669 25.875 26.8168 25.7045C26.9645 25.5341 27.0696 25.3295 27.1321 25.0909H28.1378C28.081 25.4773 27.9403 25.8253 27.7159 26.1349C27.4943 26.4418 27.2003 26.6861 26.8338 26.8679C26.4702 27.0469 26.0469 27.1364 25.5639 27.1364ZM30.6136 23.0625V27H29.608V18.2727H30.6136V21.4773H30.6989C30.8523 21.1392 31.0824 20.8707 31.3892 20.6719C31.6989 20.4702 32.1108 20.3693 32.625 20.3693C33.071 20.3693 33.4616 20.4588 33.7969 20.6378C34.1321 20.8139 34.392 21.0852 34.5767 21.4517C34.7642 21.8153 34.858 22.2784 34.858 22.8409V27H33.8523V22.9091C33.8523 22.3892 33.7173 21.9872 33.4474 21.7031C33.1804 21.4162 32.8097 21.2727 32.3352 21.2727C32.0057 21.2727 31.7102 21.3423 31.4489 21.4815C31.1903 21.6207 30.9858 21.8239 30.8352 22.0909C30.6875 22.358 30.6136 22.6818 30.6136 23.0625ZM36.6978 27V20.4545H37.7035V27H36.6978ZM37.2092 19.3636C37.0131 19.3636 36.8441 19.2969 36.7021 19.1634C36.5629 19.0298 36.4933 18.8693 36.4933 18.6818C36.4933 18.4943 36.5629 18.3338 36.7021 18.2003C36.8441 18.0668 37.0131 18 37.2092 18C37.4052 18 37.5728 18.0668 37.712 18.2003C37.854 18.3338 37.9251 18.4943 37.9251 18.6818C37.9251 18.8693 37.854 19.0298 37.712 19.1634C37.5728 19.2969 37.4052 19.3636 37.2092 19.3636ZM39.5455 27V20.4545H40.517V21.4432H40.5852C40.7045 21.1193 40.9205 20.8565 41.233 20.6548C41.5455 20.4531 41.8977 20.3523 42.2898 20.3523C42.3636 20.3523 42.456 20.3537 42.5668 20.3565C42.6776 20.3594 42.7614 20.3636 42.8182 20.3693V21.392C42.7841 21.3835 42.706 21.3707 42.5838 21.3537C42.4645 21.3338 42.3381 21.3239 42.2045 21.3239C41.8864 21.3239 41.6023 21.3906 41.3523 21.5241C41.1051 21.6548 40.9091 21.8366 40.7642 22.0696C40.6222 22.2997 40.5511 22.5625 40.5511 22.858V27H39.5455ZM45.9364 27.1534C45.5217 27.1534 45.1452 27.0753 44.8072 26.919C44.4691 26.7599 44.2006 26.5312 44.0018 26.233C43.8029 25.9318 43.7035 25.5682 43.7035 25.142C43.7035 24.767 43.7773 24.4631 43.9251 24.2301C44.0728 23.9943 44.2702 23.8097 44.5174 23.6761C44.7646 23.5426 45.0373 23.4432 45.3356 23.3778C45.6367 23.3097 45.9393 23.2557 46.2433 23.2159C46.641 23.1648 46.9634 23.1264 47.2106 23.1009C47.4606 23.0724 47.6424 23.0256 47.756 22.9602C47.8725 22.8949 47.9308 22.7812 47.9308 22.6193V22.5852C47.9308 22.1648 47.8157 21.8381 47.5856 21.6051C47.3583 21.3722 47.0131 21.2557 46.5501 21.2557C46.07 21.2557 45.6935 21.3608 45.4208 21.571C45.1481 21.7812 44.9563 22.0057 44.8455 22.2443L43.891 21.9034C44.0614 21.5057 44.2887 21.196 44.5728 20.9744C44.8597 20.75 45.1722 20.5937 45.5103 20.5057C45.8512 20.4148 46.1864 20.3693 46.516 20.3693C46.7262 20.3693 46.9677 20.3949 47.2404 20.446C47.516 20.4943 47.7816 20.5952 48.0373 20.7486C48.2958 20.902 48.5103 21.1335 48.6808 21.4432C48.8512 21.7528 48.9364 22.1676 48.9364 22.6875V27H47.9308V26.1136H47.8796C47.8114 26.2557 47.6978 26.4077 47.5387 26.5696C47.3796 26.7315 47.168 26.8693 46.9038 26.983C46.6396 27.0966 46.3171 27.1534 45.9364 27.1534ZM46.0898 26.25C46.4876 26.25 46.8228 26.1719 47.0955 26.0156C47.3711 25.8594 47.5785 25.6577 47.7177 25.4105C47.8597 25.1634 47.9308 24.9034 47.9308 24.6307V23.7102C47.8881 23.7614 47.7944 23.8082 47.6495 23.8509C47.5075 23.8906 47.3427 23.9261 47.1552 23.9574C46.9705 23.9858 46.7901 24.0114 46.614 24.0341C46.4407 24.054 46.3001 24.071 46.1921 24.0852C45.9308 24.1193 45.6864 24.1747 45.4592 24.2514C45.2347 24.3253 45.0529 24.4375 44.9137 24.5881C44.7773 24.7358 44.7092 24.9375 44.7092 25.1932C44.7092 25.5426 44.8384 25.8068 45.0969 25.9858C45.3583 26.1619 45.6893 26.25 46.0898 26.25ZM50.772 29.4545V20.4545H51.7436V21.4943H51.8629C51.9368 21.3807 52.0391 21.2358 52.1697 21.0597C52.3033 20.8807 52.4936 20.7216 52.7408 20.5824C52.9908 20.4403 53.3288 20.3693 53.755 20.3693C54.3061 20.3693 54.7919 20.5071 55.2124 20.7827C55.6328 21.0582 55.9609 21.4489 56.1967 21.9545C56.4325 22.4602 56.5504 23.0568 56.5504 23.7443C56.5504 24.4375 56.4325 25.0384 56.1967 25.5469C55.9609 26.0526 55.6342 26.4446 55.2166 26.723C54.799 26.9986 54.3175 27.1364 53.772 27.1364C53.3516 27.1364 53.0149 27.0668 52.7621 26.9276C52.5092 26.7855 52.3146 26.625 52.1783 26.446C52.0419 26.2642 51.9368 26.1136 51.8629 25.9943H51.7777V29.4545H50.772ZM51.7607 23.7273C51.7607 24.2216 51.8331 24.6577 51.978 25.0355C52.1229 25.4105 52.3345 25.7045 52.6129 25.9176C52.8913 26.1278 53.2322 26.233 53.6357 26.233C54.0561 26.233 54.407 26.1222 54.6882 25.9006C54.9723 25.6761 55.1854 25.375 55.3274 24.9972C55.4723 24.6165 55.5447 24.1932 55.5447 23.7273C55.5447 23.267 55.4737 22.8523 55.3317 22.483C55.1925 22.1108 54.9808 21.8168 54.6967 21.6009C54.4155 21.3821 54.0618 21.2727 53.6357 21.2727C53.2266 21.2727 52.8828 21.3764 52.6044 21.5838C52.326 21.7884 52.1158 22.0753 51.9737 22.4446C51.8317 22.8111 51.7607 23.2386 51.7607 23.7273ZM58.0845 29.4545V20.4545H59.0561V21.4943H59.1754C59.2493 21.3807 59.3516 21.2358 59.4822 21.0597C59.6158 20.8807 59.8061 20.7216 60.0533 20.5824C60.3033 20.4403 60.6413 20.3693 61.0675 20.3693C61.6186 20.3693 62.1044 20.5071 62.5249 20.7827C62.9453 21.0582 63.2734 21.4489 63.5092 21.9545C63.745 22.4602 63.8629 23.0568 63.8629 23.7443C63.8629 24.4375 63.745 25.0384 63.5092 25.5469C63.2734 26.0526 62.9467 26.4446 62.5291 26.723C62.1115 26.9986 61.63 27.1364 61.0845 27.1364C60.6641 27.1364 60.3274 27.0668 60.0746 26.9276C59.8217 26.7855 59.6271 26.625 59.4908 26.446C59.3544 26.2642 59.2493 26.1136 59.1754 25.9943H59.0902V29.4545H58.0845ZM59.0732 23.7273C59.0732 24.2216 59.1456 24.6577 59.2905 25.0355C59.4354 25.4105 59.647 25.7045 59.9254 25.9176C60.2038 26.1278 60.5447 26.233 60.9482 26.233C61.3686 26.233 61.7195 26.1222 62.0007 25.9006C62.2848 25.6761 62.4979 25.375 62.6399 24.9972C62.7848 24.6165 62.8572 24.1932 62.8572 23.7273C62.8572 23.267 62.7862 22.8523 62.6442 22.483C62.505 22.1108 62.2933 21.8168 62.0092 21.6009C61.728 21.3821 61.3743 21.2727 60.9482 21.2727C60.5391 21.2727 60.1953 21.3764 59.9169 21.5838C59.6385 21.7884 59.4283 22.0753 59.2862 22.4446C59.1442 22.8111 59.0732 23.2386 59.0732 23.7273ZM67.3232 27.1534C66.9084 27.1534 66.532 27.0753 66.1939 26.919C65.8558 26.7599 65.5874 26.5312 65.3885 26.233C65.1896 25.9318 65.0902 25.5682 65.0902 25.142C65.0902 24.767 65.1641 24.4631 65.3118 24.2301C65.4595 23.9943 65.657 23.8097 65.9041 23.6761C66.1513 23.5426 66.424 23.4432 66.7223 23.3778C67.0234 23.3097 67.326 23.2557 67.63 23.2159C68.0277 23.1648 68.3501 23.1264 68.5973 23.1009C68.8473 23.0724 69.0291 23.0256 69.1428 22.9602C69.2592 22.8949 69.3175 22.7812 69.3175 22.6193V22.5852C69.3175 22.1648 69.2024 21.8381 68.9723 21.6051C68.745 21.3722 68.3999 21.2557 67.9368 21.2557C67.4567 21.2557 67.0803 21.3608 66.8075 21.571C66.5348 21.7812 66.343 22.0057 66.2322 22.2443L65.2777 21.9034C65.4482 21.5057 65.6754 21.196 65.9595 20.9744C66.2464 20.75 66.5589 20.5937 66.897 20.5057C67.2379 20.4148 67.5732 20.3693 67.9027 20.3693C68.1129 20.3693 68.3544 20.3949 68.6271 20.446C68.9027 20.4943 69.1683 20.5952 69.424 20.7486C69.6825 20.902 69.897 21.1335 70.0675 21.4432C70.2379 21.7528 70.3232 22.1676 70.3232 22.6875V27H69.3175V26.1136H69.2663C69.1982 26.2557 69.0845 26.4077 68.9254 26.5696C68.7663 26.7315 68.5547 26.8693 68.2905 26.983C68.0263 27.0966 67.7038 27.1534 67.3232 27.1534ZM67.4766 26.25C67.8743 26.25 68.2095 26.1719 68.4822 26.0156C68.7578 25.8594 68.9652 25.6577 69.1044 25.4105C69.2464 25.1634 69.3175 24.9034 69.3175 24.6307V23.7102C69.2749 23.7614 69.1811 23.8082 69.0362 23.8509C68.8942 23.8906 68.7294 23.9261 68.5419 23.9574C68.3572 23.9858 68.1768 24.0114 68.0007 24.0341C67.8274 24.054 67.6868 24.071 67.5788 24.0852C67.3175 24.1193 67.0732 24.1747 66.8459 24.2514C66.6214 24.3253 66.4396 24.4375 66.3004 24.5881C66.1641 24.7358 66.0959 24.9375 66.0959 25.1932C66.0959 25.5426 66.2251 25.8068 66.4837 25.9858C66.745 26.1619 67.076 26.25 67.4766 26.25ZM73.1644 18.2727V27H72.1587V18.2727H73.1644ZM76.0121 18.2727V27H75.0064V18.2727H76.0121ZM77.854 27V20.4545H78.8597V27H77.854ZM78.3654 19.3636C78.1694 19.3636 78.0004 19.2969 77.8583 19.1634C77.7191 19.0298 77.6495 18.8693 77.6495 18.6818C77.6495 18.4943 77.7191 18.3338 77.8583 18.2003C78.0004 18.0668 78.1694 18 78.3654 18C78.5614 18 78.729 18.0668 78.8683 18.2003C79.0103 18.3338 79.0813 18.4943 79.0813 18.6818C79.0813 18.8693 79.0103 19.0298 78.8683 19.1634C78.729 19.2969 78.5614 19.3636 78.3654 19.3636ZM89.1562 22.1676V23.1051H83.1562V22.1676H89.1562ZM96.3324 27.1193C95.9744 27.1136 95.6165 27.0455 95.2585 26.9148C94.9006 26.7841 94.5739 26.5639 94.2784 26.2543C93.983 25.9418 93.7457 25.5199 93.5668 24.9886C93.3878 24.4545 93.2983 23.7841 93.2983 22.9773C93.2983 22.2045 93.3707 21.5199 93.5156 20.9233C93.6605 20.3239 93.8707 19.8196 94.1463 19.4105C94.4219 18.9986 94.7543 18.6861 95.1435 18.473C95.5355 18.2599 95.9773 18.1534 96.4688 18.1534C96.9574 18.1534 97.392 18.2514 97.7727 18.4474C98.1563 18.6406 98.4688 18.9105 98.7102 19.2571C98.9517 19.6037 99.108 20.0028 99.179 20.4545H98.1392C98.0426 20.0625 97.8551 19.7372 97.5767 19.4787C97.2983 19.2202 96.929 19.0909 96.4688 19.0909C95.7926 19.0909 95.2599 19.3849 94.8707 19.973C94.4844 20.5611 94.2898 21.3864 94.2869 22.4489H94.3551C94.5142 22.2074 94.7031 22.0014 94.9219 21.831C95.1435 21.6577 95.3878 21.5241 95.6548 21.4304C95.9219 21.3366 96.2045 21.2898 96.5028 21.2898C97.0028 21.2898 97.4602 21.4148 97.875 21.6648C98.2898 21.9119 98.6222 22.2543 98.8722 22.6918C99.1222 23.1264 99.2472 23.625 99.2472 24.1875C99.2472 24.7273 99.1264 25.2216 98.8849 25.6705C98.6435 26.1165 98.304 26.4716 97.8665 26.7358C97.4318 26.9972 96.9205 27.125 96.3324 27.1193ZM96.3324 26.1818C96.6903 26.1818 97.0114 26.0923 97.2955 25.9134C97.5824 25.7344 97.8082 25.4943 97.973 25.1932C98.1406 24.892 98.2244 24.5568 98.2244 24.1875C98.2244 23.8267 98.1435 23.4986 97.9815 23.2031C97.8224 22.9048 97.6023 22.6676 97.321 22.4915C97.0426 22.3153 96.7244 22.2273 96.3665 22.2273C96.0966 22.2273 95.8452 22.2812 95.6122 22.3892C95.3793 22.4943 95.1747 22.6392 94.9986 22.8239C94.8253 23.0085 94.6889 23.2202 94.5895 23.4588C94.4901 23.6946 94.4403 23.9432 94.4403 24.2045C94.4403 24.5511 94.5213 24.875 94.6832 25.1761C94.848 25.4773 95.0724 25.7202 95.3565 25.9048C95.6435 26.0895 95.9688 26.1818 96.3324 26.1818ZM100.923 27V26.233L103.804 23.0795C104.142 22.7102 104.42 22.3892 104.639 22.1165C104.858 21.8409 105.02 21.5824 105.125 21.3409C105.233 21.0966 105.287 20.8409 105.287 20.5739C105.287 20.267 105.213 20.0014 105.065 19.777C104.92 19.5526 104.721 19.3793 104.468 19.2571C104.216 19.1349 103.931 19.0739 103.616 19.0739C103.281 19.0739 102.988 19.1435 102.738 19.2827C102.491 19.419 102.299 19.6108 102.163 19.858C102.029 20.1051 101.963 20.3949 101.963 20.7273H100.957C100.957 20.2159 101.075 19.767 101.311 19.3807C101.547 18.9943 101.868 18.6932 102.274 18.4773C102.683 18.2614 103.142 18.1534 103.65 18.1534C104.162 18.1534 104.615 18.2614 105.01 18.4773C105.404 18.6932 105.714 18.9844 105.939 19.3509C106.163 19.7173 106.275 20.125 106.275 20.5739C106.275 20.8949 106.217 21.2088 106.1 21.5156C105.987 21.8196 105.788 22.1591 105.504 22.5341C105.223 22.9062 104.832 23.3608 104.332 23.8977L102.372 25.9943V26.0625H106.429V27H100.923ZM111.035 27.1193C110.393 27.1193 109.846 26.9446 109.395 26.5952C108.943 26.2429 108.598 25.733 108.359 25.0653C108.12 24.3949 108.001 23.5852 108.001 22.6364C108.001 21.6932 108.12 20.8878 108.359 20.2202C108.6 19.5497 108.947 19.0384 109.399 18.6861C109.853 18.331 110.399 18.1534 111.035 18.1534C111.672 18.1534 112.216 18.331 112.667 18.6861C113.122 19.0384 113.468 19.5497 113.707 20.2202C113.949 20.8878 114.069 21.6932 114.069 22.6364C114.069 23.5852 113.95 24.3949 113.711 25.0653C113.473 25.733 113.127 26.2429 112.676 26.5952C112.224 26.9446 111.677 27.1193 111.035 27.1193ZM111.035 26.1818C111.672 26.1818 112.166 25.875 112.518 25.2614C112.87 24.6477 113.047 23.7727 113.047 22.6364C113.047 21.8807 112.966 21.2372 112.804 20.706C112.645 20.1747 112.414 19.7699 112.113 19.4915C111.815 19.2131 111.456 19.0739 111.035 19.0739C110.404 19.0739 109.912 19.3849 109.556 20.0071C109.201 20.6264 109.024 21.5028 109.024 22.6364C109.024 23.392 109.103 24.0341 109.262 24.5625C109.422 25.0909 109.65 25.4929 109.949 25.7685C110.25 26.044 110.612 26.1818 111.035 26.1818ZM118.535 27.1193C117.893 27.1193 117.346 26.9446 116.895 26.5952C116.443 26.2429 116.098 25.733 115.859 25.0653C115.62 24.3949 115.501 23.5852 115.501 22.6364C115.501 21.6932 115.62 20.8878 115.859 20.2202C116.1 19.5497 116.447 19.0384 116.899 18.6861C117.353 18.331 117.899 18.1534 118.535 18.1534C119.172 18.1534 119.716 18.331 120.167 18.6861C120.622 19.0384 120.968 19.5497 121.207 20.2202C121.449 20.8878 121.569 21.6932 121.569 22.6364C121.569 23.5852 121.45 24.3949 121.211 25.0653C120.973 25.733 120.627 26.2429 120.176 26.5952C119.724 26.9446 119.177 27.1193 118.535 27.1193ZM118.535 26.1818C119.172 26.1818 119.666 25.875 120.018 25.2614C120.37 24.6477 120.547 23.7727 120.547 22.6364C120.547 21.8807 120.466 21.2372 120.304 20.706C120.145 20.1747 119.914 19.7699 119.613 19.4915C119.315 19.2131 118.956 19.0739 118.535 19.0739C117.904 19.0739 117.412 19.3849 117.056 20.0071C116.701 20.6264 116.524 21.5028 116.524 22.6364C116.524 23.392 116.603 24.0341 116.762 24.5625C116.922 25.0909 117.15 25.4929 117.449 25.7685C117.75 26.044 118.112 26.1818 118.535 26.1818ZM126.257 18.2727V27H125.2V19.3807H125.149L123.018 20.7955V19.7216L125.2 18.2727H126.257ZM131.494 27.1193C130.994 27.1193 130.544 27.0199 130.143 26.821C129.743 26.6222 129.422 26.3494 129.18 26.0028C128.939 25.6562 128.806 25.2614 128.784 24.8182H129.806C129.846 25.2131 130.025 25.5398 130.343 25.7983C130.664 26.054 131.048 26.1818 131.494 26.1818C131.852 26.1818 132.17 26.098 132.449 25.9304C132.73 25.7628 132.95 25.5327 133.109 25.2401C133.271 24.9446 133.352 24.6108 133.352 24.2386C133.352 23.858 133.268 23.5185 133.1 23.2202C132.936 22.919 132.708 22.6818 132.419 22.5085C132.129 22.3352 131.798 22.2472 131.426 22.2443C131.159 22.2415 130.885 22.2827 130.603 22.3679C130.322 22.4503 130.091 22.5568 129.909 22.6875L128.92 22.5682L129.449 18.2727H133.983V19.2102H130.335L130.028 21.7841H130.079C130.258 21.642 130.483 21.5241 130.752 21.4304C131.022 21.3366 131.304 21.2898 131.596 21.2898C132.13 21.2898 132.606 21.4176 133.024 21.6733C133.444 21.9261 133.774 22.2727 134.012 22.7131C134.254 23.1534 134.375 23.6562 134.375 24.2216C134.375 24.7784 134.25 25.2756 134 25.7131C133.752 26.1477 133.412 26.4915 132.977 26.7443C132.542 26.9943 132.048 27.1193 131.494 27.1193Z" fill="#202020"/>
</svg>
