<svg width="24" height="24" viewBox="0 0 24 24" fill="none" xmlns="http://www.w3.org/2000/svg">
<path d="M17.6571 5.30475C14.5331 2.23175 9.46814 2.23175 6.34414 5.30475C5.60242 6.02938 5.01305 6.89498 4.61066 7.85066C4.20826 8.80634 4.00098 9.83281 4.00098 10.8697C4.00098 11.9067 4.20826 12.9332 4.61066 13.8888C5.01305 14.8445 5.60242 15.7101 6.34414 16.4347L12.0001 21.9997L17.6571 16.4347C18.3989 15.7101 18.9882 14.8445 19.3906 13.8888C19.793 12.9332 20.0003 11.9067 20.0003 10.8697C20.0003 9.83281 19.793 8.80634 19.3906 7.85066C18.9882 6.89498 18.3989 6.02938 17.6571 5.30475ZM12.0001 13.4997C11.3321 13.4997 10.7051 13.2397 10.2321 12.7677C9.76389 12.2985 9.50092 11.6627 9.50092 10.9997C9.50092 10.3368 9.76389 9.701 10.2321 9.23175C10.7041 8.75975 11.3321 8.49975 12.0001 8.49975C12.6681 8.49975 13.2961 8.75975 13.7681 9.23175C14.2364 9.701 14.4994 10.3368 14.4994 10.9997C14.4994 11.6627 14.2364 12.2985 13.7681 12.7677C13.2961 13.2397 12.6681 13.4997 12.0001 13.4997Z" fill="#202020"/>
</svg>
