<svg width="256" height="30" viewBox="0 0 256 30" fill="none" xmlns="http://www.w3.org/2000/svg">
<path d="M3.75 12H1.05682V3.27273H3.86932C4.71591 3.27273 5.44034 3.44744 6.04261 3.79688C6.64489 4.14347 7.10653 4.64205 7.42756 5.29261C7.74858 5.94034 7.90909 6.71591 7.90909 7.61932C7.90909 8.52841 7.74716 9.31108 7.4233 9.96733C7.09943 10.6207 6.62784 11.1236 6.00852 11.4759C5.3892 11.8253 4.63636 12 3.75 12ZM2.11364 11.0625H3.68182C4.40341 11.0625 5.00142 10.9233 5.47585 10.6449C5.95028 10.3665 6.30398 9.97017 6.53693 9.45597C6.76989 8.94176 6.88636 8.32955 6.88636 7.61932C6.88636 6.91477 6.77131 6.30824 6.54119 5.79972C6.31108 5.28835 5.96733 4.89631 5.50994 4.62358C5.05256 4.34801 4.48295 4.21023 3.80114 4.21023H2.11364V11.0625ZM12.4773 12.1193C11.9148 12.1193 11.4134 12.0227 10.973 11.8295C10.5355 11.6364 10.1875 11.3679 9.92898 11.0241C9.6733 10.6776 9.53409 10.2756 9.51136 9.81818H10.5852C10.608 10.0994 10.7045 10.3423 10.875 10.5469C11.0455 10.7486 11.2685 10.9048 11.544 11.0156C11.8196 11.1264 12.125 11.1818 12.4602 11.1818C12.8352 11.1818 13.1676 11.1165 13.4574 10.9858C13.7472 10.8551 13.9744 10.6733 14.1392 10.4403C14.304 10.2074 14.3864 9.9375 14.3864 9.63068C14.3864 9.30966 14.3068 9.02699 14.1477 8.78267C13.9886 8.53551 13.7557 8.34233 13.4489 8.20312C13.142 8.06392 12.767 7.99432 12.3239 7.99432H11.625V7.05682H12.3239C12.6705 7.05682 12.9744 6.99432 13.2358 6.86932C13.5 6.74432 13.706 6.56818 13.8537 6.34091C14.0043 6.11364 14.0795 5.84659 14.0795 5.53977C14.0795 5.24432 14.0142 4.98722 13.8835 4.76847C13.7528 4.54972 13.5682 4.37926 13.3295 4.2571C13.0938 4.13494 12.8153 4.07386 12.4943 4.07386C12.1932 4.07386 11.9091 4.12926 11.642 4.24006C11.3778 4.34801 11.1619 4.50568 10.9943 4.71307C10.8267 4.91761 10.7358 5.16477 10.7216 5.45455H9.69886C9.71591 4.99716 9.85369 4.59659 10.1122 4.25284C10.3707 3.90625 10.7088 3.63636 11.1264 3.44318C11.5469 3.25 12.0085 3.15341 12.5114 3.15341C13.0511 3.15341 13.5142 3.26278 13.9006 3.48153C14.2869 3.69744 14.5838 3.98295 14.7912 4.33807C14.9986 4.69318 15.1023 5.0767 15.1023 5.48864C15.1023 5.98011 14.973 6.39915 14.7145 6.74574C14.4588 7.09233 14.1108 7.33239 13.6705 7.46591V7.53409C14.2216 7.625 14.652 7.85937 14.9616 8.23722C15.2713 8.61222 15.4261 9.0767 15.4261 9.63068C15.4261 10.1051 15.2969 10.5312 15.0384 10.9091C14.7827 11.2841 14.4332 11.5795 13.9901 11.7955C13.5469 12.0114 13.0426 12.1193 12.4773 12.1193ZM18.4165 10.8068L18.3484 11.267C18.3001 11.5909 18.2262 11.9375 18.1268 12.3068C18.0302 12.6761 17.9293 13.0241 17.8242 13.3509C17.7191 13.6776 17.6325 13.9375 17.5643 14.1307H16.7972C16.8342 13.9489 16.8825 13.7088 16.9421 13.4105C17.0018 13.1122 17.0614 12.7784 17.1211 12.4091C17.1836 12.0426 17.2347 11.6676 17.2745 11.2841L17.3256 10.8068H18.4165ZM23.3139 4.21023V3.27273H29.8594V4.21023H27.1151V12H26.0582V4.21023H23.3139ZM32.3597 8.0625V12H31.354V3.27273H32.3597V6.47727H32.445C32.5984 6.1392 32.8285 5.87074 33.1353 5.67188C33.445 5.47017 33.8569 5.36932 34.3711 5.36932C34.8171 5.36932 35.2077 5.45881 35.543 5.63778C35.8782 5.81392 36.1381 6.08523 36.3228 6.4517C36.5103 6.81534 36.604 7.27841 36.604 7.84091V12H35.5984V7.90909C35.5984 7.3892 35.4634 6.98722 35.1935 6.70312C34.9265 6.41619 34.5558 6.27273 34.0813 6.27273C33.7518 6.27273 33.4563 6.34233 33.195 6.48153C32.9364 6.62074 32.7319 6.82386 32.5813 7.09091C32.4336 7.35795 32.3597 7.68182 32.3597 8.0625ZM41.103 12.1364C40.5121 12.1364 39.9936 11.9957 39.5476 11.7145C39.1044 11.4332 38.7578 11.0398 38.5078 10.5341C38.2607 10.0284 38.1371 9.4375 38.1371 8.76136C38.1371 8.07955 38.2607 7.48437 38.5078 6.97585C38.7578 6.46733 39.1044 6.07244 39.5476 5.79119C39.9936 5.50994 40.5121 5.36932 41.103 5.36932C41.6939 5.36932 42.2109 5.50994 42.6541 5.79119C43.1001 6.07244 43.4467 6.46733 43.6939 6.97585C43.9439 7.48437 44.0689 8.07955 44.0689 8.76136C44.0689 9.4375 43.9439 10.0284 43.6939 10.5341C43.4467 11.0398 43.1001 11.4332 42.6541 11.7145C42.2109 11.9957 41.6939 12.1364 41.103 12.1364ZM41.103 11.233C41.5518 11.233 41.9212 11.1179 42.2109 10.8878C42.5007 10.6577 42.7152 10.3551 42.8544 9.98011C42.9936 9.60511 43.0632 9.19886 43.0632 8.76136C43.0632 8.32386 42.9936 7.91619 42.8544 7.53835C42.7152 7.16051 42.5007 6.85511 42.2109 6.62216C41.9212 6.3892 41.5518 6.27273 41.103 6.27273C40.6541 6.27273 40.2848 6.3892 39.995 6.62216C39.7053 6.85511 39.4908 7.16051 39.3516 7.53835C39.2124 7.91619 39.1428 8.32386 39.1428 8.76136C39.1428 9.19886 39.2124 9.60511 39.3516 9.98011C39.4908 10.3551 39.7053 10.6577 39.995 10.8878C40.2848 11.1179 40.6541 11.233 41.103 11.233ZM45.4165 12V11.233L49.1325 6.46023V6.39205H45.5359V5.45455H50.4279V6.25568L46.8143 10.9943V11.0625H50.5472V12H45.4165ZM53.1019 8.0625V12H52.0962V3.27273H53.1019V6.47727H53.1871C53.3406 6.1392 53.5707 5.87074 53.8775 5.67188C54.1871 5.47017 54.5991 5.36932 55.1133 5.36932C55.5593 5.36932 55.9499 5.45881 56.2852 5.63778C56.6204 5.81392 56.8803 6.08523 57.065 6.4517C57.2525 6.81534 57.3462 7.27841 57.3462 7.84091V12H56.3406V7.90909C56.3406 7.3892 56.2056 6.98722 55.9357 6.70312C55.6687 6.41619 55.2979 6.27273 54.8235 6.27273C54.494 6.27273 54.1985 6.34233 53.9371 6.48153C53.6786 6.62074 53.4741 6.82386 53.3235 7.09091C53.1758 7.35795 53.1019 7.68182 53.1019 8.0625ZM59.1861 12V5.45455H60.1918V12H59.1861ZM59.6974 4.36364C59.5014 4.36364 59.3324 4.29688 59.1903 4.16335C59.0511 4.02983 58.9815 3.86932 58.9815 3.68182C58.9815 3.49432 59.0511 3.33381 59.1903 3.20028C59.3324 3.06676 59.5014 3 59.6974 3C59.8935 3 60.0611 3.06676 60.2003 3.20028C60.3423 3.33381 60.4134 3.49432 60.4134 3.68182C60.4134 3.86932 60.3423 4.02983 60.2003 4.16335C60.0611 4.29688 59.8935 4.36364 59.6974 4.36364ZM63.0394 3.27273V12H62.0337V3.27273H63.0394ZM68.2564 14.4545V5.45455H69.228V6.49432H69.3473C69.4212 6.38068 69.5234 6.2358 69.6541 6.05966C69.7876 5.88068 69.978 5.72159 70.2251 5.58239C70.4751 5.44034 70.8132 5.36932 71.2393 5.36932C71.7905 5.36932 72.2763 5.5071 72.6967 5.78267C73.1172 6.05824 73.4453 6.44886 73.6811 6.95455C73.9169 7.46023 74.0348 8.05682 74.0348 8.74432C74.0348 9.4375 73.9169 10.0384 73.6811 10.5469C73.4453 11.0526 73.1186 11.4446 72.701 11.723C72.2834 11.9986 71.8018 12.1364 71.2564 12.1364C70.8359 12.1364 70.4993 12.0668 70.2464 11.9276C69.9936 11.7855 69.799 11.625 69.6626 11.446C69.5263 11.2642 69.4212 11.1136 69.3473 10.9943H69.2621V14.4545H68.2564ZM69.245 8.72727C69.245 9.22159 69.3175 9.65767 69.4624 10.0355C69.6072 10.4105 69.8189 10.7045 70.0973 10.9176C70.3757 11.1278 70.7166 11.233 71.12 11.233C71.5405 11.233 71.8913 11.1222 72.1726 10.9006C72.4567 10.6761 72.6697 10.375 72.8118 9.99716C72.9567 9.61648 73.0291 9.19318 73.0291 8.72727C73.0291 8.26705 72.9581 7.85227 72.8161 7.48295C72.6768 7.1108 72.4652 6.81676 72.1811 6.60085C71.8999 6.3821 71.5462 6.27273 71.12 6.27273C70.7109 6.27273 70.3672 6.37642 70.0888 6.58381C69.8104 6.78835 69.6001 7.07528 69.4581 7.4446C69.3161 7.81108 69.245 8.23864 69.245 8.72727ZM78.3132 12.1364C77.6825 12.1364 77.1385 11.9972 76.6811 11.7188C76.2266 11.4375 75.8757 11.0455 75.6286 10.5426C75.3842 10.0369 75.2621 9.44886 75.2621 8.77841C75.2621 8.10795 75.3842 7.51705 75.6286 7.00568C75.8757 6.49148 76.2195 6.09091 76.6598 5.80398C77.103 5.5142 77.62 5.36932 78.2109 5.36932C78.5518 5.36932 78.8885 5.42614 79.2209 5.53977C79.5533 5.65341 79.8558 5.83807 80.1286 6.09375C80.4013 6.34659 80.6186 6.68182 80.7805 7.09943C80.9425 7.51705 81.0234 8.03125 81.0234 8.64205V9.06818H75.978V8.19886H80.0007C80.0007 7.82955 79.9268 7.5 79.7791 7.21023C79.6342 6.92045 79.4268 6.69176 79.157 6.52415C78.8899 6.35653 78.5746 6.27273 78.2109 6.27273C77.8104 6.27273 77.4638 6.37216 77.1712 6.57102C76.8814 6.76705 76.6584 7.02273 76.5021 7.33807C76.3459 7.65341 76.2678 7.99148 76.2678 8.35227V8.93182C76.2678 9.42614 76.353 9.84517 76.5234 10.1889C76.6967 10.5298 76.9368 10.7898 77.2436 10.9688C77.5504 11.1449 77.907 11.233 78.3132 11.233C78.5774 11.233 78.8161 11.196 79.0291 11.1222C79.245 11.0455 79.4311 10.9318 79.5874 10.7812C79.7436 10.6278 79.8643 10.4375 79.9496 10.2102L80.9212 10.483C80.8189 10.8125 80.647 11.1023 80.4055 11.3523C80.1641 11.5994 79.8658 11.7926 79.5107 11.9318C79.1555 12.0682 78.7564 12.1364 78.3132 12.1364ZM85.3999 5.45455V6.30682H82.0078V5.45455H85.3999ZM82.9964 3.88636H84.0021V10.125C84.0021 10.4091 84.0433 10.6222 84.1257 10.7642C84.2109 10.9034 84.3189 10.9972 84.4496 11.0455C84.5831 11.0909 84.7237 11.1136 84.8714 11.1136C84.9822 11.1136 85.0732 11.108 85.1442 11.0966C85.2152 11.0824 85.272 11.071 85.3146 11.0625L85.5192 11.9659C85.451 11.9915 85.3558 12.017 85.2337 12.0426C85.1115 12.071 84.9567 12.0852 84.7692 12.0852C84.4851 12.0852 84.2067 12.0241 83.9339 11.902C83.6641 11.7798 83.4396 11.5938 83.2607 11.3438C83.0845 11.0938 82.9964 10.7784 82.9964 10.3977V3.88636ZM89.7592 5.45455V6.30682H86.3672V5.45455H89.7592ZM87.3558 3.88636H88.3615V10.125C88.3615 10.4091 88.4027 10.6222 88.4851 10.7642C88.5703 10.9034 88.6783 10.9972 88.8089 11.0455C88.9425 11.0909 89.0831 11.1136 89.2308 11.1136C89.3416 11.1136 89.4325 11.108 89.5036 11.0966C89.5746 11.0824 89.6314 11.071 89.674 11.0625L89.8786 11.9659C89.8104 11.9915 89.7152 12.017 89.593 12.0426C89.4709 12.071 89.3161 12.0852 89.1286 12.0852C88.8445 12.0852 88.5661 12.0241 88.2933 11.902C88.0234 11.7798 87.799 11.5938 87.62 11.3438C87.4439 11.0938 87.3558 10.7784 87.3558 10.3977V3.88636ZM93.1982 12.1534C92.7834 12.1534 92.407 12.0753 92.0689 11.919C91.7308 11.7599 91.4624 11.5312 91.2635 11.233C91.0646 10.9318 90.9652 10.5682 90.9652 10.142C90.9652 9.76705 91.0391 9.46307 91.1868 9.23011C91.3345 8.99432 91.532 8.80966 91.7791 8.67614C92.0263 8.54261 92.299 8.44318 92.5973 8.37784C92.8984 8.30966 93.201 8.25568 93.505 8.21591C93.9027 8.16477 94.2251 8.12642 94.4723 8.10085C94.7223 8.07244 94.9041 8.02557 95.0178 7.96023C95.1342 7.89489 95.1925 7.78125 95.1925 7.61932V7.58523C95.1925 7.16477 95.0774 6.83807 94.8473 6.60511C94.62 6.37216 94.2749 6.25568 93.8118 6.25568C93.3317 6.25568 92.9553 6.3608 92.6825 6.57102C92.4098 6.78125 92.218 7.00568 92.1072 7.24432L91.1527 6.90341C91.3232 6.50568 91.5504 6.19602 91.8345 5.97443C92.1214 5.75 92.4339 5.59375 92.772 5.50568C93.1129 5.41477 93.4482 5.36932 93.7777 5.36932C93.9879 5.36932 94.2294 5.39489 94.5021 5.44602C94.7777 5.49432 95.0433 5.59517 95.299 5.74858C95.5575 5.90199 95.772 6.13352 95.9425 6.44318C96.1129 6.75284 96.1982 7.16761 96.1982 7.6875V12H95.1925V11.1136H95.1413C95.0732 11.2557 94.9595 11.4077 94.8004 11.5696C94.6413 11.7315 94.4297 11.8693 94.1655 11.983C93.9013 12.0966 93.5788 12.1534 93.1982 12.1534ZM93.3516 11.25C93.7493 11.25 94.0845 11.1719 94.3572 11.0156C94.6328 10.8594 94.8402 10.6577 94.9794 10.4105C95.1214 10.1634 95.1925 9.90341 95.1925 9.63068V8.71023C95.1499 8.76136 95.0561 8.80824 94.9112 8.85085C94.7692 8.89062 94.6044 8.92614 94.4169 8.95739C94.2322 8.9858 94.0518 9.01136 93.8757 9.03409C93.7024 9.05398 93.5618 9.07102 93.4538 9.08523C93.1925 9.11932 92.9482 9.17472 92.7209 9.25142C92.4964 9.32528 92.3146 9.4375 92.1754 9.58807C92.0391 9.7358 91.9709 9.9375 91.9709 10.1932C91.9709 10.5426 92.1001 10.8068 92.3587 10.9858C92.62 11.1619 92.951 11.25 93.3516 11.25ZM98.0337 12V5.45455H99.0394V12H98.0337ZM98.5451 4.36364C98.3491 4.36364 98.18 4.29688 98.038 4.16335C97.8988 4.02983 97.8292 3.86932 97.8292 3.68182C97.8292 3.49432 97.8988 3.33381 98.038 3.20028C98.18 3.06676 98.3491 3 98.5451 3C98.7411 3 98.9087 3.06676 99.0479 3.20028C99.19 3.33381 99.261 3.49432 99.261 3.68182C99.261 3.86932 99.19 4.02983 99.0479 4.16335C98.9087 4.29688 98.7411 4.36364 98.5451 4.36364ZM102.381 10.8068L102.313 11.267C102.265 11.5909 102.191 11.9375 102.092 12.3068C101.995 12.6761 101.894 13.0241 101.789 13.3509C101.684 13.6776 101.597 13.9375 101.529 14.1307H100.762C100.799 13.9489 100.847 13.7088 100.907 13.4105C100.967 13.1122 101.026 12.7784 101.086 12.4091C101.148 12.0426 101.2 11.6676 101.239 11.2841L101.29 10.8068H102.381ZM108.114 12H107.006L110.211 3.27273H111.301L114.506 12H113.398L110.79 4.65341H110.722L108.114 12ZM108.523 8.59091H112.989V9.52841H108.523V8.59091ZM115.729 12V5.45455H116.701V6.44318H116.769C116.888 6.11932 117.104 5.85653 117.417 5.65483C117.729 5.45312 118.081 5.35227 118.473 5.35227C118.547 5.35227 118.64 5.35369 118.75 5.35653C118.861 5.35937 118.945 5.36364 119.002 5.36932V6.39205C118.968 6.38352 118.89 6.37074 118.767 6.35369C118.648 6.33381 118.522 6.32386 118.388 6.32386C118.07 6.32386 117.786 6.39062 117.536 6.52415C117.289 6.65483 117.093 6.83665 116.948 7.0696C116.806 7.29972 116.735 7.5625 116.735 7.85795V12H115.729ZM120.194 12V5.45455H121.2V12H120.194ZM120.705 4.36364C120.509 4.36364 120.34 4.29688 120.198 4.16335C120.059 4.02983 119.989 3.86932 119.989 3.68182C119.989 3.49432 120.059 3.33381 120.198 3.20028C120.34 3.06676 120.509 3 120.705 3C120.901 3 121.069 3.06676 121.208 3.20028C121.35 3.33381 121.421 3.49432 121.421 3.68182C121.421 3.86932 121.35 4.02983 121.208 4.16335C121.069 4.29688 120.901 4.36364 120.705 4.36364ZM123.689 14.4545C123.519 14.4545 123.367 14.4403 123.233 14.4119C123.1 14.3864 123.007 14.3608 122.956 14.3352L123.212 13.4489C123.456 13.5114 123.672 13.5341 123.86 13.517C124.047 13.5 124.213 13.4162 124.358 13.2656C124.506 13.1179 124.641 12.8778 124.763 12.5455L124.951 12.0341L122.53 5.45455H123.621L125.428 10.6705H125.496L127.303 5.45455H128.394L125.615 12.9545C125.49 13.2926 125.336 13.5724 125.151 13.794C124.966 14.0185 124.752 14.1847 124.507 14.2926C124.266 14.4006 123.993 14.4545 123.689 14.4545ZM131.448 12.1534C131.033 12.1534 130.657 12.0753 130.319 11.919C129.981 11.7599 129.712 11.5312 129.513 11.233C129.315 10.9318 129.215 10.5682 129.215 10.142C129.215 9.76705 129.289 9.46307 129.437 9.23011C129.585 8.99432 129.782 8.80966 130.029 8.67614C130.276 8.54261 130.549 8.44318 130.847 8.37784C131.148 8.30966 131.451 8.25568 131.755 8.21591C132.153 8.16477 132.475 8.12642 132.722 8.10085C132.972 8.07244 133.154 8.02557 133.268 7.96023C133.384 7.89489 133.442 7.78125 133.442 7.61932V7.58523C133.442 7.16477 133.327 6.83807 133.097 6.60511C132.87 6.37216 132.525 6.25568 132.062 6.25568C131.582 6.25568 131.205 6.3608 130.933 6.57102C130.66 6.78125 130.468 7.00568 130.357 7.24432L129.403 6.90341C129.573 6.50568 129.8 6.19602 130.085 5.97443C130.371 5.75 130.684 5.59375 131.022 5.50568C131.363 5.41477 131.698 5.36932 132.028 5.36932C132.238 5.36932 132.479 5.39489 132.752 5.44602C133.028 5.49432 133.293 5.59517 133.549 5.74858C133.808 5.90199 134.022 6.13352 134.192 6.44318C134.363 6.75284 134.448 7.16761 134.448 7.6875V12H133.442V11.1136H133.391C133.323 11.2557 133.21 11.4077 133.05 11.5696C132.891 11.7315 132.68 11.8693 132.415 11.983C132.151 12.0966 131.829 12.1534 131.448 12.1534ZM131.602 11.25C131.999 11.25 132.335 11.1719 132.607 11.0156C132.883 10.8594 133.09 10.6577 133.229 10.4105C133.371 10.1634 133.442 9.90341 133.442 9.63068V8.71023C133.4 8.76136 133.306 8.80824 133.161 8.85085C133.019 8.89062 132.854 8.92614 132.667 8.95739C132.482 8.9858 132.302 9.01136 132.126 9.03409C131.952 9.05398 131.812 9.07102 131.704 9.08523C131.442 9.11932 131.198 9.17472 130.971 9.25142C130.746 9.32528 130.565 9.4375 130.425 9.58807C130.289 9.7358 130.221 9.9375 130.221 10.1932C130.221 10.5426 130.35 10.8068 130.609 10.9858C130.87 11.1619 131.201 11.25 131.602 11.25ZM136.284 12V5.45455H137.255V6.47727H137.341C137.477 6.12784 137.697 5.85653 138.001 5.66335C138.305 5.46733 138.67 5.36932 139.096 5.36932C139.528 5.36932 139.887 5.46733 140.174 5.66335C140.464 5.85653 140.69 6.12784 140.852 6.47727H140.92C141.088 6.1392 141.339 5.87074 141.674 5.67188C142.01 5.47017 142.412 5.36932 142.88 5.36932C143.466 5.36932 143.944 5.55256 144.316 5.91903C144.689 6.28267 144.875 6.84943 144.875 7.61932V12H143.869V7.61932C143.869 7.13636 143.737 6.79119 143.473 6.58381C143.208 6.37642 142.897 6.27273 142.539 6.27273C142.079 6.27273 141.723 6.41193 141.47 6.69034C141.217 6.96591 141.091 7.31534 141.091 7.73864V12H140.068V7.51705C140.068 7.14489 139.947 6.84517 139.706 6.6179C139.464 6.38778 139.153 6.27273 138.772 6.27273C138.511 6.27273 138.267 6.34233 138.039 6.48153C137.815 6.62074 137.633 6.81392 137.494 7.06108C137.358 7.3054 137.289 7.58807 137.289 7.90909V12H136.284ZM148.64 12.1534C148.225 12.1534 147.848 12.0753 147.51 11.919C147.172 11.7599 146.904 11.5312 146.705 11.233C146.506 10.9318 146.407 10.5682 146.407 10.142C146.407 9.76705 146.48 9.46307 146.628 9.23011C146.776 8.99432 146.973 8.80966 147.221 8.67614C147.468 8.54261 147.74 8.44318 148.039 8.37784C148.34 8.30966 148.642 8.25568 148.946 8.21591C149.344 8.16477 149.667 8.12642 149.914 8.10085C150.164 8.07244 150.346 8.02557 150.459 7.96023C150.576 7.89489 150.634 7.78125 150.634 7.61932V7.58523C150.634 7.16477 150.519 6.83807 150.289 6.60511C150.061 6.37216 149.716 6.25568 149.253 6.25568C148.773 6.25568 148.397 6.3608 148.124 6.57102C147.851 6.78125 147.659 7.00568 147.549 7.24432L146.594 6.90341C146.765 6.50568 146.992 6.19602 147.276 5.97443C147.563 5.75 147.875 5.59375 148.213 5.50568C148.554 5.41477 148.89 5.36932 149.219 5.36932C149.429 5.36932 149.671 5.39489 149.944 5.44602C150.219 5.49432 150.485 5.59517 150.74 5.74858C150.999 5.90199 151.213 6.13352 151.384 6.44318C151.554 6.75284 151.64 7.16761 151.64 7.6875V12H150.634V11.1136H150.583C150.515 11.2557 150.401 11.4077 150.242 11.5696C150.083 11.7315 149.871 11.8693 149.607 11.983C149.343 12.0966 149.02 12.1534 148.64 12.1534ZM148.793 11.25C149.191 11.25 149.526 11.1719 149.799 11.0156C150.074 10.8594 150.282 10.6577 150.421 10.4105C150.563 10.1634 150.634 9.90341 150.634 9.63068V8.71023C150.591 8.76136 150.498 8.80824 150.353 8.85085C150.211 8.89062 150.046 8.92614 149.858 8.95739C149.674 8.9858 149.493 9.01136 149.317 9.03409C149.144 9.05398 149.003 9.07102 148.895 9.08523C148.634 9.11932 148.39 9.17472 148.162 9.25142C147.938 9.32528 147.756 9.4375 147.617 9.58807C147.48 9.7358 147.412 9.9375 147.412 10.1932C147.412 10.5426 147.542 10.8068 147.8 10.9858C148.061 11.1619 148.392 11.25 148.793 11.25ZM154.481 8.0625V12H153.475V5.45455H154.447V6.47727H154.532C154.685 6.14489 154.918 5.87784 155.231 5.67614C155.543 5.47159 155.947 5.36932 156.441 5.36932C156.884 5.36932 157.272 5.46023 157.604 5.64205C157.937 5.82102 158.195 6.09375 158.38 6.46023C158.565 6.82386 158.657 7.28409 158.657 7.84091V12H157.651V7.90909C157.651 7.39489 157.518 6.99432 157.251 6.70739C156.984 6.41761 156.617 6.27273 156.151 6.27273C155.83 6.27273 155.543 6.34233 155.29 6.48153C155.04 6.62074 154.843 6.82386 154.698 7.09091C154.553 7.35795 154.481 7.68182 154.481 8.0625ZM163.137 14.5909C162.651 14.5909 162.233 14.5284 161.884 14.4034C161.534 14.2812 161.243 14.1193 161.01 13.9176C160.78 13.7188 160.597 13.5057 160.461 13.2784L161.262 12.7159C161.353 12.8352 161.468 12.9716 161.607 13.125C161.746 13.2812 161.936 13.4162 162.178 13.5298C162.422 13.6463 162.742 13.7045 163.137 13.7045C163.665 13.7045 164.101 13.5767 164.445 13.321C164.789 13.0653 164.961 12.6648 164.961 12.1193V10.7898H164.875C164.801 10.9091 164.696 11.0568 164.56 11.233C164.426 11.4062 164.233 11.5611 163.98 11.6974C163.73 11.831 163.392 11.8977 162.966 11.8977C162.438 11.8977 161.963 11.7727 161.543 11.5227C161.125 11.2727 160.794 10.9091 160.55 10.4318C160.309 9.95455 160.188 9.375 160.188 8.69318C160.188 8.02273 160.306 7.43892 160.542 6.94176C160.777 6.44176 161.105 6.0554 161.526 5.78267C161.946 5.5071 162.432 5.36932 162.983 5.36932C163.409 5.36932 163.748 5.44034 163.998 5.58239C164.25 5.72159 164.444 5.88068 164.577 6.05966C164.713 6.2358 164.819 6.38068 164.892 6.49432H164.995V5.45455H165.966V12.1875C165.966 12.75 165.838 13.2074 165.583 13.5597C165.33 13.9148 164.989 14.1747 164.56 14.3395C164.134 14.5071 163.659 14.5909 163.137 14.5909ZM163.103 10.9943C163.506 10.9943 163.847 10.902 164.125 10.7173C164.404 10.5327 164.615 10.267 164.76 9.92045C164.905 9.57386 164.978 9.15909 164.978 8.67614C164.978 8.20455 164.907 7.78835 164.765 7.42756C164.623 7.06676 164.412 6.78409 164.134 6.57955C163.855 6.375 163.512 6.27273 163.103 6.27273C162.676 6.27273 162.321 6.38068 162.037 6.59659C161.756 6.8125 161.544 7.10227 161.402 7.46591C161.263 7.82955 161.194 8.23295 161.194 8.67614C161.194 9.13068 161.265 9.53267 161.407 9.8821C161.551 10.2287 161.765 10.5014 162.046 10.7003C162.33 10.8963 162.682 10.9943 163.103 10.9943ZM169.733 12.1534C169.319 12.1534 168.942 12.0753 168.604 11.919C168.266 11.7599 167.998 11.5312 167.799 11.233C167.6 10.9318 167.5 10.5682 167.5 10.142C167.5 9.76705 167.574 9.46307 167.722 9.23011C167.87 8.99432 168.067 8.80966 168.314 8.67614C168.561 8.54261 168.834 8.44318 169.132 8.37784C169.434 8.30966 169.736 8.25568 170.04 8.21591C170.438 8.16477 170.76 8.12642 171.007 8.10085C171.257 8.07244 171.439 8.02557 171.553 7.96023C171.669 7.89489 171.728 7.78125 171.728 7.61932V7.58523C171.728 7.16477 171.613 6.83807 171.382 6.60511C171.155 6.37216 170.81 6.25568 170.347 6.25568C169.867 6.25568 169.49 6.3608 169.218 6.57102C168.945 6.78125 168.753 7.00568 168.642 7.24432L167.688 6.90341C167.858 6.50568 168.086 6.19602 168.37 5.97443C168.657 5.75 168.969 5.59375 169.307 5.50568C169.648 5.41477 169.983 5.36932 170.313 5.36932C170.523 5.36932 170.765 5.39489 171.037 5.44602C171.313 5.49432 171.578 5.59517 171.834 5.74858C172.093 5.90199 172.307 6.13352 172.478 6.44318C172.648 6.75284 172.733 7.16761 172.733 7.6875V12H171.728V11.1136H171.676C171.608 11.2557 171.495 11.4077 171.336 11.5696C171.176 11.7315 170.965 11.8693 170.701 11.983C170.436 12.0966 170.114 12.1534 169.733 12.1534ZM169.887 11.25C170.284 11.25 170.62 11.1719 170.892 11.0156C171.168 10.8594 171.375 10.6577 171.515 10.4105C171.657 10.1634 171.728 9.90341 171.728 9.63068V8.71023C171.685 8.76136 171.591 8.80824 171.446 8.85085C171.304 8.89062 171.14 8.92614 170.952 8.95739C170.767 8.9858 170.587 9.01136 170.411 9.03409C170.238 9.05398 170.097 9.07102 169.989 9.08523C169.728 9.11932 169.483 9.17472 169.256 9.25142C169.032 9.32528 168.85 9.4375 168.711 9.58807C168.574 9.7358 168.506 9.9375 168.506 10.1932C168.506 10.5426 168.635 10.8068 168.894 10.9858C169.155 11.1619 169.486 11.25 169.887 11.25ZM175.575 3.27273V12H174.569V3.27273H175.575ZM179.343 12.1534C178.928 12.1534 178.551 12.0753 178.213 11.919C177.875 11.7599 177.607 11.5312 177.408 11.233C177.209 10.9318 177.11 10.5682 177.11 10.142C177.11 9.76705 177.184 9.46307 177.331 9.23011C177.479 8.99432 177.676 8.80966 177.924 8.67614C178.171 8.54261 178.444 8.44318 178.742 8.37784C179.043 8.30966 179.346 8.25568 179.65 8.21591C180.047 8.16477 180.37 8.12642 180.617 8.10085C180.867 8.07244 181.049 8.02557 181.162 7.96023C181.279 7.89489 181.337 7.78125 181.337 7.61932V7.58523C181.337 7.16477 181.222 6.83807 180.992 6.60511C180.765 6.37216 180.419 6.25568 179.956 6.25568C179.476 6.25568 179.1 6.3608 178.827 6.57102C178.554 6.78125 178.363 7.00568 178.252 7.24432L177.297 6.90341C177.468 6.50568 177.695 6.19602 177.979 5.97443C178.266 5.75 178.578 5.59375 178.917 5.50568C179.257 5.41477 179.593 5.36932 179.922 5.36932C180.132 5.36932 180.374 5.39489 180.647 5.44602C180.922 5.49432 181.188 5.59517 181.444 5.74858C181.702 5.90199 181.917 6.13352 182.087 6.44318C182.257 6.75284 182.343 7.16761 182.343 7.6875V12H181.337V11.1136H181.286C181.218 11.2557 181.104 11.4077 180.945 11.5696C180.786 11.7315 180.574 11.8693 180.31 11.983C180.046 12.0966 179.723 12.1534 179.343 12.1534ZM179.496 11.25C179.894 11.25 180.229 11.1719 180.502 11.0156C180.777 10.8594 180.985 10.6577 181.124 10.4105C181.266 10.1634 181.337 9.90341 181.337 9.63068V8.71023C181.294 8.76136 181.201 8.80824 181.056 8.85085C180.914 8.89062 180.749 8.92614 180.561 8.95739C180.377 8.9858 180.196 9.01136 180.02 9.03409C179.847 9.05398 179.706 9.07102 179.598 9.08523C179.337 9.11932 179.093 9.17472 178.865 9.25142C178.641 9.32528 178.459 9.4375 178.32 9.58807C178.184 9.7358 178.115 9.9375 178.115 10.1932C178.115 10.5426 178.245 10.8068 178.503 10.9858C178.765 11.1619 179.096 11.25 179.496 11.25ZM184.178 12V5.45455H185.15V6.47727H185.235C185.371 6.12784 185.592 5.85653 185.896 5.66335C186.2 5.46733 186.565 5.36932 186.991 5.36932C187.423 5.36932 187.782 5.46733 188.069 5.66335C188.359 5.85653 188.585 6.12784 188.746 6.47727H188.815C188.982 6.1392 189.234 5.87074 189.569 5.67188C189.904 5.47017 190.306 5.36932 190.775 5.36932C191.36 5.36932 191.839 5.55256 192.211 5.91903C192.583 6.28267 192.769 6.84943 192.769 7.61932V12H191.763V7.61932C191.763 7.13636 191.631 6.79119 191.367 6.58381C191.103 6.37642 190.792 6.27273 190.434 6.27273C189.974 6.27273 189.617 6.41193 189.364 6.69034C189.112 6.96591 188.985 7.31534 188.985 7.73864V12H187.962V7.51705C187.962 7.14489 187.842 6.84517 187.6 6.6179C187.359 6.38778 187.048 6.27273 186.667 6.27273C186.406 6.27273 186.161 6.34233 185.934 6.48153C185.71 6.62074 185.528 6.81392 185.388 7.06108C185.252 7.3054 185.184 7.58807 185.184 7.90909V12H184.178ZM196.108 10.8068L196.04 11.267C195.991 11.5909 195.918 11.9375 195.818 12.3068C195.722 12.6761 195.621 13.0241 195.516 13.3509C195.411 13.6776 195.324 13.9375 195.256 14.1307H194.489C194.526 13.9489 194.574 13.7088 194.634 13.4105C194.693 13.1122 194.753 12.7784 194.812 12.4091C194.875 12.0426 194.926 11.6676 194.966 11.2841L195.017 10.8068H196.108ZM0.579545 19.2102V18.2727H7.125V19.2102H4.38068V27H3.32386V19.2102H0.579545ZM8.61967 27V20.4545H9.62536V27H8.61967ZM9.13104 19.3636C8.93501 19.3636 8.76598 19.2969 8.62393 19.1634C8.48473 19.0298 8.41513 18.8693 8.41513 18.6818C8.41513 18.4943 8.48473 18.3338 8.62393 18.2003C8.76598 18.0668 8.93501 18 9.13104 18C9.32706 18 9.49467 18.0668 9.63388 18.2003C9.77592 18.3338 9.84695 18.4943 9.84695 18.6818C9.84695 18.8693 9.77592 19.0298 9.63388 19.1634C9.49467 19.2969 9.32706 19.3636 9.13104 19.3636ZM11.4673 27V20.4545H12.4389V21.4432H12.5071C12.6264 21.1193 12.8423 20.8565 13.1548 20.6548C13.4673 20.4531 13.8196 20.3523 14.2116 20.3523C14.2855 20.3523 14.3778 20.3537 14.4886 20.3565C14.5994 20.3594 14.6832 20.3636 14.7401 20.3693V21.392C14.706 21.3835 14.6278 21.3707 14.5057 21.3537C14.3864 21.3338 14.2599 21.3239 14.1264 21.3239C13.8082 21.3239 13.5241 21.3906 13.2741 21.5241C13.027 21.6548 12.831 21.8366 12.6861 22.0696C12.544 22.2997 12.473 22.5625 12.473 22.858V27H11.4673ZM20.0572 24.3239V20.4545H21.0629V27H20.0572V25.892H19.989C19.8356 26.2244 19.5969 26.5071 19.2731 26.7401C18.9492 26.9702 18.5401 27.0852 18.0458 27.0852C17.6367 27.0852 17.2731 26.9957 16.9549 26.8168C16.6367 26.6349 16.3867 26.3622 16.2049 25.9986C16.0231 25.6321 15.9322 25.1705 15.9322 24.6136V20.4545H16.9379V24.5455C16.9379 25.0227 17.0714 25.4034 17.3384 25.6875C17.6083 25.9716 17.9521 26.1136 18.3697 26.1136C18.6197 26.1136 18.8739 26.0497 19.1325 25.9219C19.3938 25.794 19.6126 25.598 19.7887 25.3338C19.9677 25.0696 20.0572 24.733 20.0572 24.3239ZM25.5639 27.1364C24.9503 27.1364 24.4219 26.9915 23.9787 26.7017C23.5355 26.4119 23.1946 26.0128 22.956 25.5043C22.7173 24.9957 22.598 24.4148 22.598 23.7614C22.598 23.0966 22.7202 22.5099 22.9645 22.0014C23.2116 21.4901 23.5554 21.0909 23.9957 20.804C24.4389 20.5142 24.956 20.3693 25.5469 20.3693C26.0071 20.3693 26.4219 20.4545 26.7912 20.625C27.1605 20.7955 27.4631 21.0341 27.6989 21.3409C27.9347 21.6477 28.081 22.0057 28.1378 22.4148H27.1321C27.0554 22.1165 26.8849 21.8523 26.6207 21.6222C26.3594 21.3892 26.0071 21.2727 25.5639 21.2727C25.1719 21.2727 24.8281 21.375 24.5327 21.5795C24.2401 21.7812 24.0114 22.0668 23.8466 22.4361C23.6847 22.8026 23.6037 23.233 23.6037 23.7273C23.6037 24.233 23.6832 24.6733 23.8423 25.0483C24.0043 25.4233 24.2315 25.7145 24.5241 25.9219C24.8196 26.1293 25.1662 26.233 25.5639 26.233C25.8253 26.233 26.0625 26.1875 26.2756 26.0966C26.4886 26.0057 26.669 25.875 26.8168 25.7045C26.9645 25.5341 27.0696 25.3295 27.1321 25.0909H28.1378C28.081 25.4773 27.9403 25.8253 27.7159 26.1349C27.4943 26.4418 27.2003 26.6861 26.8338 26.8679C26.4702 27.0469 26.0469 27.1364 25.5639 27.1364ZM30.6136 23.0625V27H29.608V18.2727H30.6136V21.4773H30.6989C30.8523 21.1392 31.0824 20.8707 31.3892 20.6719C31.6989 20.4702 32.1108 20.3693 32.625 20.3693C33.071 20.3693 33.4616 20.4588 33.7969 20.6378C34.1321 20.8139 34.392 21.0852 34.5767 21.4517C34.7642 21.8153 34.858 22.2784 34.858 22.8409V27H33.8523V22.9091C33.8523 22.3892 33.7173 21.9872 33.4474 21.7031C33.1804 21.4162 32.8097 21.2727 32.3352 21.2727C32.0057 21.2727 31.7102 21.3423 31.4489 21.4815C31.1903 21.6207 30.9858 21.8239 30.8352 22.0909C30.6875 22.358 30.6136 22.6818 30.6136 23.0625ZM36.6978 27V20.4545H37.7035V27H36.6978ZM37.2092 19.3636C37.0131 19.3636 36.8441 19.2969 36.7021 19.1634C36.5629 19.0298 36.4933 18.8693 36.4933 18.6818C36.4933 18.4943 36.5629 18.3338 36.7021 18.2003C36.8441 18.0668 37.0131 18 37.2092 18C37.4052 18 37.5728 18.0668 37.712 18.2003C37.854 18.3338 37.9251 18.4943 37.9251 18.6818C37.9251 18.8693 37.854 19.0298 37.712 19.1634C37.5728 19.2969 37.4052 19.3636 37.2092 19.3636ZM39.5455 27V20.4545H40.517V21.4432H40.5852C40.7045 21.1193 40.9205 20.8565 41.233 20.6548C41.5455 20.4531 41.8977 20.3523 42.2898 20.3523C42.3636 20.3523 42.456 20.3537 42.5668 20.3565C42.6776 20.3594 42.7614 20.3636 42.8182 20.3693V21.392C42.7841 21.3835 42.706 21.3707 42.5838 21.3537C42.4645 21.3338 42.3381 21.3239 42.2045 21.3239C41.8864 21.3239 41.6023 21.3906 41.3523 21.5241C41.1051 21.6548 40.9091 21.8366 40.7642 22.0696C40.6222 22.2997 40.5511 22.5625 40.5511 22.858V27H39.5455ZM45.9364 27.1534C45.5217 27.1534 45.1452 27.0753 44.8072 26.919C44.4691 26.7599 44.2006 26.5312 44.0018 26.233C43.8029 25.9318 43.7035 25.5682 43.7035 25.142C43.7035 24.767 43.7773 24.4631 43.9251 24.2301C44.0728 23.9943 44.2702 23.8097 44.5174 23.6761C44.7646 23.5426 45.0373 23.4432 45.3356 23.3778C45.6367 23.3097 45.9393 23.2557 46.2433 23.2159C46.641 23.1648 46.9634 23.1264 47.2106 23.1009C47.4606 23.0724 47.6424 23.0256 47.756 22.9602C47.8725 22.8949 47.9308 22.7812 47.9308 22.6193V22.5852C47.9308 22.1648 47.8157 21.8381 47.5856 21.6051C47.3583 21.3722 47.0131 21.2557 46.5501 21.2557C46.07 21.2557 45.6935 21.3608 45.4208 21.571C45.1481 21.7812 44.9563 22.0057 44.8455 22.2443L43.891 21.9034C44.0614 21.5057 44.2887 21.196 44.5728 20.9744C44.8597 20.75 45.1722 20.5937 45.5103 20.5057C45.8512 20.4148 46.1864 20.3693 46.516 20.3693C46.7262 20.3693 46.9677 20.3949 47.2404 20.446C47.516 20.4943 47.7816 20.5952 48.0373 20.7486C48.2958 20.902 48.5103 21.1335 48.6808 21.4432C48.8512 21.7528 48.9364 22.1676 48.9364 22.6875V27H47.9308V26.1136H47.8796C47.8114 26.2557 47.6978 26.4077 47.5387 26.5696C47.3796 26.7315 47.168 26.8693 46.9038 26.983C46.6396 27.0966 46.3171 27.1534 45.9364 27.1534ZM46.0898 26.25C46.4876 26.25 46.8228 26.1719 47.0955 26.0156C47.3711 25.8594 47.5785 25.6577 47.7177 25.4105C47.8597 25.1634 47.9308 24.9034 47.9308 24.6307V23.7102C47.8881 23.7614 47.7944 23.8082 47.6495 23.8509C47.5075 23.8906 47.3427 23.9261 47.1552 23.9574C46.9705 23.9858 46.7901 24.0114 46.614 24.0341C46.4407 24.054 46.3001 24.071 46.1921 24.0852C45.9308 24.1193 45.6864 24.1747 45.4592 24.2514C45.2347 24.3253 45.0529 24.4375 44.9137 24.5881C44.7773 24.7358 44.7092 24.9375 44.7092 25.1932C44.7092 25.5426 44.8384 25.8068 45.0969 25.9858C45.3583 26.1619 45.6893 26.25 46.0898 26.25ZM50.772 29.4545V20.4545H51.7436V21.4943H51.8629C51.9368 21.3807 52.0391 21.2358 52.1697 21.0597C52.3033 20.8807 52.4936 20.7216 52.7408 20.5824C52.9908 20.4403 53.3288 20.3693 53.755 20.3693C54.3061 20.3693 54.7919 20.5071 55.2124 20.7827C55.6328 21.0582 55.9609 21.4489 56.1967 21.9545C56.4325 22.4602 56.5504 23.0568 56.5504 23.7443C56.5504 24.4375 56.4325 25.0384 56.1967 25.5469C55.9609 26.0526 55.6342 26.4446 55.2166 26.723C54.799 26.9986 54.3175 27.1364 53.772 27.1364C53.3516 27.1364 53.0149 27.0668 52.7621 26.9276C52.5092 26.7855 52.3146 26.625 52.1783 26.446C52.0419 26.2642 51.9368 26.1136 51.8629 25.9943H51.7777V29.4545H50.772ZM51.7607 23.7273C51.7607 24.2216 51.8331 24.6577 51.978 25.0355C52.1229 25.4105 52.3345 25.7045 52.6129 25.9176C52.8913 26.1278 53.2322 26.233 53.6357 26.233C54.0561 26.233 54.407 26.1222 54.6882 25.9006C54.9723 25.6761 55.1854 25.375 55.3274 24.9972C55.4723 24.6165 55.5447 24.1932 55.5447 23.7273C55.5447 23.267 55.4737 22.8523 55.3317 22.483C55.1925 22.1108 54.9808 21.8168 54.6967 21.6009C54.4155 21.3821 54.0618 21.2727 53.6357 21.2727C53.2266 21.2727 52.8828 21.3764 52.6044 21.5838C52.326 21.7884 52.1158 22.0753 51.9737 22.4446C51.8317 22.8111 51.7607 23.2386 51.7607 23.7273ZM58.0845 29.4545V20.4545H59.0561V21.4943H59.1754C59.2493 21.3807 59.3516 21.2358 59.4822 21.0597C59.6158 20.8807 59.8061 20.7216 60.0533 20.5824C60.3033 20.4403 60.6413 20.3693 61.0675 20.3693C61.6186 20.3693 62.1044 20.5071 62.5249 20.7827C62.9453 21.0582 63.2734 21.4489 63.5092 21.9545C63.745 22.4602 63.8629 23.0568 63.8629 23.7443C63.8629 24.4375 63.745 25.0384 63.5092 25.5469C63.2734 26.0526 62.9467 26.4446 62.5291 26.723C62.1115 26.9986 61.63 27.1364 61.0845 27.1364C60.6641 27.1364 60.3274 27.0668 60.0746 26.9276C59.8217 26.7855 59.6271 26.625 59.4908 26.446C59.3544 26.2642 59.2493 26.1136 59.1754 25.9943H59.0902V29.4545H58.0845ZM59.0732 23.7273C59.0732 24.2216 59.1456 24.6577 59.2905 25.0355C59.4354 25.4105 59.647 25.7045 59.9254 25.9176C60.2038 26.1278 60.5447 26.233 60.9482 26.233C61.3686 26.233 61.7195 26.1222 62.0007 25.9006C62.2848 25.6761 62.4979 25.375 62.6399 24.9972C62.7848 24.6165 62.8572 24.1932 62.8572 23.7273C62.8572 23.267 62.7862 22.8523 62.6442 22.483C62.505 22.1108 62.2933 21.8168 62.0092 21.6009C61.728 21.3821 61.3743 21.2727 60.9482 21.2727C60.5391 21.2727 60.1953 21.3764 59.9169 21.5838C59.6385 21.7884 59.4283 22.0753 59.2862 22.4446C59.1442 22.8111 59.0732 23.2386 59.0732 23.7273ZM67.3232 27.1534C66.9084 27.1534 66.532 27.0753 66.1939 26.919C65.8558 26.7599 65.5874 26.5312 65.3885 26.233C65.1896 25.9318 65.0902 25.5682 65.0902 25.142C65.0902 24.767 65.1641 24.4631 65.3118 24.2301C65.4595 23.9943 65.657 23.8097 65.9041 23.6761C66.1513 23.5426 66.424 23.4432 66.7223 23.3778C67.0234 23.3097 67.326 23.2557 67.63 23.2159C68.0277 23.1648 68.3501 23.1264 68.5973 23.1009C68.8473 23.0724 69.0291 23.0256 69.1428 22.9602C69.2592 22.8949 69.3175 22.7812 69.3175 22.6193V22.5852C69.3175 22.1648 69.2024 21.8381 68.9723 21.6051C68.745 21.3722 68.3999 21.2557 67.9368 21.2557C67.4567 21.2557 67.0803 21.3608 66.8075 21.571C66.5348 21.7812 66.343 22.0057 66.2322 22.2443L65.2777 21.9034C65.4482 21.5057 65.6754 21.196 65.9595 20.9744C66.2464 20.75 66.5589 20.5937 66.897 20.5057C67.2379 20.4148 67.5732 20.3693 67.9027 20.3693C68.1129 20.3693 68.3544 20.3949 68.6271 20.446C68.9027 20.4943 69.1683 20.5952 69.424 20.7486C69.6825 20.902 69.897 21.1335 70.0675 21.4432C70.2379 21.7528 70.3232 22.1676 70.3232 22.6875V27H69.3175V26.1136H69.2663C69.1982 26.2557 69.0845 26.4077 68.9254 26.5696C68.7663 26.7315 68.5547 26.8693 68.2905 26.983C68.0263 27.0966 67.7038 27.1534 67.3232 27.1534ZM67.4766 26.25C67.8743 26.25 68.2095 26.1719 68.4822 26.0156C68.7578 25.8594 68.9652 25.6577 69.1044 25.4105C69.2464 25.1634 69.3175 24.9034 69.3175 24.6307V23.7102C69.2749 23.7614 69.1811 23.8082 69.0362 23.8509C68.8942 23.8906 68.7294 23.9261 68.5419 23.9574C68.3572 23.9858 68.1768 24.0114 68.0007 24.0341C67.8274 24.054 67.6868 24.071 67.5788 24.0852C67.3175 24.1193 67.0732 24.1747 66.8459 24.2514C66.6214 24.3253 66.4396 24.4375 66.3004 24.5881C66.1641 24.7358 66.0959 24.9375 66.0959 25.1932C66.0959 25.5426 66.2251 25.8068 66.4837 25.9858C66.745 26.1619 67.076 26.25 67.4766 26.25ZM73.1644 18.2727V27H72.1587V18.2727H73.1644ZM76.0121 18.2727V27H75.0064V18.2727H76.0121ZM77.854 27V20.4545H78.8597V27H77.854ZM78.3654 19.3636C78.1694 19.3636 78.0004 19.2969 77.8583 19.1634C77.7191 19.0298 77.6495 18.8693 77.6495 18.6818C77.6495 18.4943 77.7191 18.3338 77.8583 18.2003C78.0004 18.0668 78.1694 18 78.3654 18C78.5614 18 78.729 18.0668 78.8683 18.2003C79.0103 18.3338 79.0813 18.4943 79.0813 18.6818C79.0813 18.8693 79.0103 19.0298 78.8683 19.1634C78.729 19.2969 78.5614 19.3636 78.3654 19.3636ZM87.8267 22.1676V23.1051H84.0085V22.1676H87.8267ZM95.8519 27.1193C95.494 27.1136 95.136 27.0455 94.7781 26.9148C94.4201 26.7841 94.0934 26.5639 93.7979 26.2543C93.5025 25.9418 93.2653 25.5199 93.0863 24.9886C92.9073 24.4545 92.8178 23.7841 92.8178 22.9773C92.8178 22.2045 92.8903 21.5199 93.0352 20.9233C93.18 20.3239 93.3903 19.8196 93.6658 19.4105C93.9414 18.9986 94.2738 18.6861 94.663 18.473C95.055 18.2599 95.4968 18.1534 95.9883 18.1534C96.4769 18.1534 96.9116 18.2514 97.2923 18.4474C97.6758 18.6406 97.9883 18.9105 98.2298 19.2571C98.4712 19.6037 98.6275 20.0028 98.6985 20.4545H97.6587C97.5621 20.0625 97.3746 19.7372 97.0962 19.4787C96.8178 19.2202 96.4485 19.0909 95.9883 19.0909C95.3121 19.0909 94.7795 19.3849 94.3903 19.973C94.0039 20.5611 93.8093 21.3864 93.8065 22.4489H93.8746C94.0337 22.2074 94.2227 22.0014 94.4414 21.831C94.663 21.6577 94.9073 21.5241 95.1744 21.4304C95.4414 21.3366 95.7241 21.2898 96.0224 21.2898C96.5224 21.2898 96.9798 21.4148 97.3945 21.6648C97.8093 21.9119 98.1417 22.2543 98.3917 22.6918C98.6417 23.1264 98.7667 23.625 98.7667 24.1875C98.7667 24.7273 98.646 25.2216 98.4045 25.6705C98.163 26.1165 97.8235 26.4716 97.386 26.7358C96.9513 26.9972 96.44 27.125 95.8519 27.1193ZM95.8519 26.1818C96.2099 26.1818 96.5309 26.0923 96.815 25.9134C97.1019 25.7344 97.3278 25.4943 97.4925 25.1932C97.6602 24.892 97.744 24.5568 97.744 24.1875C97.744 23.8267 97.663 23.4986 97.5011 23.2031C97.342 22.9048 97.1218 22.6676 96.8406 22.4915C96.5621 22.3153 96.244 22.2273 95.886 22.2273C95.6161 22.2273 95.3647 22.2812 95.1317 22.3892C94.8988 22.4943 94.6942 22.6392 94.5181 22.8239C94.3448 23.0085 94.2085 23.2202 94.109 23.4588C94.0096 23.6946 93.9599 23.9432 93.9599 24.2045C93.9599 24.5511 94.0408 24.875 94.2028 25.1761C94.3675 25.4773 94.592 25.7202 94.8761 25.9048C95.163 26.0895 95.4883 26.1818 95.8519 26.1818ZM100.442 27V26.233L103.323 23.0795C103.661 22.7102 103.94 22.3892 104.158 22.1165C104.377 21.8409 104.539 21.5824 104.644 21.3409C104.752 21.0966 104.806 20.8409 104.806 20.5739C104.806 20.267 104.732 20.0014 104.585 19.777C104.44 19.5526 104.241 19.3793 103.988 19.2571C103.735 19.1349 103.451 19.0739 103.136 19.0739C102.8 19.0739 102.508 19.1435 102.258 19.2827C102.011 19.419 101.819 19.6108 101.683 19.858C101.549 20.1051 101.482 20.3949 101.482 20.7273H100.477C100.477 20.2159 100.594 19.767 100.83 19.3807C101.066 18.9943 101.387 18.6932 101.793 18.4773C102.202 18.2614 102.661 18.1534 103.17 18.1534C103.681 18.1534 104.134 18.2614 104.529 18.4773C104.924 18.6932 105.234 18.9844 105.458 19.3509C105.683 19.7173 105.795 20.125 105.795 20.5739C105.795 20.8949 105.737 21.2088 105.62 21.5156C105.506 21.8196 105.308 22.1591 105.023 22.5341C104.742 22.9062 104.352 23.3608 103.852 23.8977L101.891 25.9943V26.0625H105.948V27H100.442ZM110.555 27.1193C109.913 27.1193 109.366 26.9446 108.914 26.5952C108.462 26.2429 108.117 25.733 107.879 25.0653C107.64 24.3949 107.521 23.5852 107.521 22.6364C107.521 21.6932 107.64 20.8878 107.879 20.2202C108.12 19.5497 108.467 19.0384 108.918 18.6861C109.373 18.331 109.918 18.1534 110.555 18.1534C111.191 18.1534 111.735 18.331 112.187 18.6861C112.641 19.0384 112.988 19.5497 113.227 20.2202C113.468 20.8878 113.589 21.6932 113.589 22.6364C113.589 23.5852 113.469 24.3949 113.231 25.0653C112.992 25.733 112.647 26.2429 112.195 26.5952C111.744 26.9446 111.197 27.1193 110.555 27.1193ZM110.555 26.1818C111.191 26.1818 111.685 25.875 112.038 25.2614C112.39 24.6477 112.566 23.7727 112.566 22.6364C112.566 21.8807 112.485 21.2372 112.323 20.706C112.164 20.1747 111.934 19.7699 111.633 19.4915C111.335 19.2131 110.975 19.0739 110.555 19.0739C109.924 19.0739 109.431 19.3849 109.076 20.0071C108.721 20.6264 108.543 21.5028 108.543 22.6364C108.543 23.392 108.623 24.0341 108.782 24.5625C108.941 25.0909 109.17 25.4929 109.468 25.7685C109.769 26.044 110.131 26.1818 110.555 26.1818ZM118.055 27.1193C117.413 27.1193 116.866 26.9446 116.414 26.5952C115.962 26.2429 115.617 25.733 115.379 25.0653C115.14 24.3949 115.021 23.5852 115.021 22.6364C115.021 21.6932 115.14 20.8878 115.379 20.2202C115.62 19.5497 115.967 19.0384 116.418 18.6861C116.873 18.331 117.418 18.1534 118.055 18.1534C118.691 18.1534 119.235 18.331 119.687 18.6861C120.141 19.0384 120.488 19.5497 120.727 20.2202C120.968 20.8878 121.089 21.6932 121.089 22.6364C121.089 23.5852 120.969 24.3949 120.731 25.0653C120.492 25.733 120.147 26.2429 119.695 26.5952C119.244 26.9446 118.697 27.1193 118.055 27.1193ZM118.055 26.1818C118.691 26.1818 119.185 25.875 119.538 25.2614C119.89 24.6477 120.066 23.7727 120.066 22.6364C120.066 21.8807 119.985 21.2372 119.823 20.706C119.664 20.1747 119.434 19.7699 119.133 19.4915C118.835 19.2131 118.475 19.0739 118.055 19.0739C117.424 19.0739 116.931 19.3849 116.576 20.0071C116.221 20.6264 116.043 21.5028 116.043 22.6364C116.043 23.392 116.123 24.0341 116.282 24.5625C116.441 25.0909 116.67 25.4929 116.968 25.7685C117.269 26.044 117.631 26.1818 118.055 26.1818ZM125.776 18.2727V27H124.719V19.3807H124.668L122.538 20.7955V19.7216L124.719 18.2727H125.776ZM131.133 27.1193C130.491 27.1193 129.944 26.9446 129.492 26.5952C129.04 26.2429 128.695 25.733 128.457 25.0653C128.218 24.3949 128.099 23.5852 128.099 22.6364C128.099 21.6932 128.218 20.8878 128.457 20.2202C128.698 19.5497 129.045 19.0384 129.496 18.6861C129.951 18.331 130.496 18.1534 131.133 18.1534C131.769 18.1534 132.313 18.331 132.765 18.6861C133.219 19.0384 133.566 19.5497 133.805 20.2202C134.046 20.8878 134.167 21.6932 134.167 22.6364C134.167 23.5852 134.048 24.3949 133.809 25.0653C133.57 25.733 133.225 26.2429 132.773 26.5952C132.322 26.9446 131.775 27.1193 131.133 27.1193ZM131.133 26.1818C131.769 26.1818 132.263 25.875 132.616 25.2614C132.968 24.6477 133.144 23.7727 133.144 22.6364C133.144 21.8807 133.063 21.2372 132.901 20.706C132.742 20.1747 132.512 19.7699 132.211 19.4915C131.913 19.2131 131.553 19.0739 131.133 19.0739C130.502 19.0739 130.009 19.3849 129.654 20.0071C129.299 20.6264 129.121 21.5028 129.121 22.6364C129.121 23.392 129.201 24.0341 129.36 24.5625C129.519 25.0909 129.748 25.4929 130.046 25.7685C130.347 26.044 130.71 26.1818 131.133 26.1818ZM136.232 27.0682C136.021 27.0682 135.841 26.9929 135.69 26.8423C135.54 26.6918 135.464 26.5114 135.464 26.3011C135.464 26.0909 135.54 25.9105 135.69 25.7599C135.841 25.6094 136.021 25.5341 136.232 25.5341C136.442 25.5341 136.622 25.6094 136.773 25.7599C136.923 25.9105 136.999 26.0909 136.999 26.3011C136.999 26.4403 136.963 26.5682 136.892 26.6847C136.824 26.8011 136.732 26.8949 136.615 26.9659C136.501 27.0341 136.374 27.0682 136.232 27.0682Z" fill="#202020"/>
</svg>
