<svg width="24" height="24" viewBox="0 0 24 24" fill="none" xmlns="http://www.w3.org/2000/svg">
<rect x="0.5" y="0.5" width="23" height="23" rx="11.5" stroke="#202020"/>
<path d="M17.2417 18.2031C15.737 18.2031 14.2505 17.8752 12.7819 17.2195C11.3134 16.5637 9.97731 15.6337 8.77361 14.4295C7.56991 13.2253 6.64017 11.8892 5.98439 10.4212C5.32861 8.95314 5.00048 7.46657 5 5.96146C5 5.74479 5.07222 5.56424 5.21667 5.41979C5.36111 5.27535 5.54167 5.20312 5.75833 5.20312H8.68333C8.85185 5.20312 9.00232 5.26042 9.13472 5.37501C9.26713 5.48961 9.34537 5.6249 9.36944 5.7809L9.83889 8.30868C9.86296 8.50127 9.85694 8.66377 9.82083 8.79618C9.78472 8.92859 9.71852 9.04294 9.62222 9.13924L7.87083 10.9087C8.11157 11.3541 8.39733 11.7843 8.72811 12.1993C9.05889 12.6143 9.42313 13.0147 9.82083 13.4003C10.194 13.7735 10.5852 14.1197 10.9944 14.4389C11.4037 14.7581 11.837 15.0499 12.2944 15.3142L13.9917 13.617C14.1 13.5087 14.2416 13.4276 14.4163 13.3736C14.5911 13.3197 14.7625 13.3045 14.9306 13.3281L17.4222 13.8337C17.5907 13.8818 17.7292 13.9692 17.8375 14.0958C17.9458 14.2225 18 14.3638 18 14.5198V17.4448C18 17.6615 17.9278 17.842 17.7833 17.9865C17.6389 18.1309 17.4583 18.2031 17.2417 18.2031Z" fill="#202020"/>
</svg>
