<svg width="46" height="10" viewBox="0 0 46 10" fill="none" xmlns="http://www.w3.org/2000/svg">
<path d="M3.62391 9.44531L-8.98503e-05 1.04531H2.09991L5.26791 8.48531H4.03191L7.24791 1.04531H9.17991L5.54391 9.44531H3.62391ZM9.86644 9.44531V2.98931H11.7384V9.44531H9.86644ZM10.8024 2.08931C10.4584 2.08931 10.1784 1.98931 9.96244 1.78931C9.74644 1.58931 9.63844 1.34131 9.63844 1.04531C9.63844 0.749312 9.74644 0.501312 9.96244 0.301312C10.1784 0.101312 10.4584 0.00131178 10.8024 0.00131178C11.1464 0.00131178 11.4264 0.097312 11.6424 0.289312C11.8584 0.473312 11.9664 0.713312 11.9664 1.00931C11.9664 1.32131 11.8584 1.58131 11.6424 1.78931C11.4344 1.98931 11.1544 2.08931 10.8024 2.08931ZM15.6478 9.54131C15.0958 9.54131 14.5638 9.47731 14.0518 9.34931C13.5478 9.21331 13.1478 9.04531 12.8518 8.84531L13.4758 7.50131C13.7718 7.68531 14.1198 7.83731 14.5198 7.95731C14.9278 8.06931 15.3278 8.12531 15.7198 8.12531C16.1518 8.12531 16.4558 8.07331 16.6318 7.96931C16.8158 7.86531 16.9078 7.72131 16.9078 7.53731C16.9078 7.38531 16.8358 7.27331 16.6918 7.20131C16.5558 7.12131 16.3718 7.06131 16.1398 7.02131C15.9078 6.98131 15.6518 6.94131 15.3718 6.90131C15.0998 6.86131 14.8238 6.80931 14.5438 6.74531C14.2638 6.67331 14.0078 6.56931 13.7758 6.43331C13.5438 6.29731 13.3558 6.11331 13.2118 5.88131C13.0758 5.64931 13.0078 5.34931 13.0078 4.98131C13.0078 4.57331 13.1238 4.21331 13.3558 3.90131C13.5958 3.58931 13.9398 3.34531 14.3878 3.16931C14.8358 2.98531 15.3718 2.89331 15.9958 2.89331C16.4358 2.89331 16.8838 2.94131 17.3398 3.03731C17.7958 3.13331 18.1758 3.27331 18.4798 3.45731L17.8558 4.78931C17.5438 4.60531 17.2278 4.48131 16.9078 4.41731C16.5958 4.34531 16.2918 4.30931 15.9958 4.30931C15.5798 4.30931 15.2758 4.36531 15.0838 4.47731C14.8918 4.58931 14.7958 4.73331 14.7958 4.90931C14.7958 5.06931 14.8638 5.18931 14.9998 5.26931C15.1438 5.34931 15.3318 5.41331 15.5638 5.46131C15.7958 5.50931 16.0478 5.55331 16.3198 5.59331C16.5998 5.62531 16.8798 5.67731 17.1598 5.74931C17.4398 5.82131 17.6918 5.92531 17.9158 6.06131C18.1478 6.18931 18.3358 6.36931 18.4798 6.60131C18.6238 6.82531 18.6958 7.12131 18.6958 7.48931C18.6958 7.88931 18.5758 8.24531 18.3358 8.55731C18.0958 8.86131 17.7478 9.10131 17.2918 9.27731C16.8438 9.45331 16.2958 9.54131 15.6478 9.54131ZM19.8508 9.44531V2.98931H21.7228V9.44531H19.8508ZM20.7868 2.08931C20.4428 2.08931 20.1628 1.98931 19.9468 1.78931C19.7308 1.58931 19.6228 1.34131 19.6228 1.04531C19.6228 0.749312 19.7308 0.501312 19.9468 0.301312C20.1628 0.101312 20.4428 0.00131178 20.7868 0.00131178C21.1308 0.00131178 21.4108 0.097312 21.6268 0.289312C21.8428 0.473312 21.9508 0.713312 21.9508 1.00931C21.9508 1.32131 21.8428 1.58131 21.6268 1.78931C21.4188 1.98931 21.1388 2.08931 20.7868 2.08931ZM26.1002 9.54131C25.3402 9.54131 24.7482 9.34931 24.3242 8.96531C23.9002 8.57331 23.6882 7.99331 23.6882 7.22531V1.56131H25.5602V7.20131C25.5602 7.47331 25.6322 7.68531 25.7762 7.83731C25.9202 7.98131 26.1162 8.05331 26.3642 8.05331C26.6602 8.05331 26.9122 7.97331 27.1202 7.81331L27.6242 9.13331C27.4322 9.26931 27.2002 9.37331 26.9282 9.44531C26.6642 9.50931 26.3882 9.54131 26.1002 9.54131ZM22.6922 4.57331V3.13331H27.1682V4.57331H22.6922ZM34.7975 9.54131C34.2615 9.54131 33.7815 9.43731 33.3575 9.22931C32.9415 9.02131 32.6175 8.70531 32.3855 8.28131C32.1535 7.84931 32.0375 7.30131 32.0375 6.63731V2.98931H33.9095V6.36131C33.9095 6.89731 34.0215 7.29331 34.2455 7.54931C34.4775 7.79731 34.8015 7.92131 35.2175 7.92131C35.5055 7.92131 35.7615 7.86131 35.9855 7.74131C36.2095 7.61331 36.3855 7.42131 36.5135 7.16531C36.6415 6.90131 36.7055 6.57331 36.7055 6.18131V2.98931H38.5775V9.44531H36.8015V7.66931L37.1255 8.18531C36.9095 8.63331 36.5895 8.97331 36.1655 9.20531C35.7495 9.42931 35.2935 9.54131 34.7975 9.54131ZM42.4838 9.54131C41.9318 9.54131 41.3998 9.47731 40.8878 9.34931C40.3838 9.21331 39.9838 9.04531 39.6878 8.84531L40.3118 7.50131C40.6078 7.68531 40.9558 7.83731 41.3558 7.95731C41.7638 8.06931 42.1638 8.12531 42.5558 8.12531C42.9878 8.12531 43.2918 8.07331 43.4678 7.96931C43.6518 7.86531 43.7438 7.72131 43.7438 7.53731C43.7438 7.38531 43.6718 7.27331 43.5278 7.20131C43.3918 7.12131 43.2078 7.06131 42.9758 7.02131C42.7438 6.98131 42.4878 6.94131 42.2078 6.90131C41.9358 6.86131 41.6598 6.80931 41.3798 6.74531C41.0998 6.67331 40.8438 6.56931 40.6118 6.43331C40.3798 6.29731 40.1918 6.11331 40.0478 5.88131C39.9118 5.64931 39.8438 5.34931 39.8438 4.98131C39.8438 4.57331 39.9598 4.21331 40.1918 3.90131C40.4318 3.58931 40.7758 3.34531 41.2238 3.16931C41.6718 2.98531 42.2078 2.89331 42.8318 2.89331C43.2718 2.89331 43.7198 2.94131 44.1758 3.03731C44.6318 3.13331 45.0118 3.27331 45.3158 3.45731L44.6918 4.78931C44.3798 4.60531 44.0638 4.48131 43.7438 4.41731C43.4318 4.34531 43.1278 4.30931 42.8318 4.30931C42.4158 4.30931 42.1118 4.36531 41.9198 4.47731C41.7278 4.58931 41.6318 4.73331 41.6318 4.90931C41.6318 5.06931 41.6998 5.18931 41.8358 5.26931C41.9798 5.34931 42.1678 5.41331 42.3998 5.46131C42.6318 5.50931 42.8838 5.55331 43.1558 5.59331C43.4358 5.62531 43.7158 5.67731 43.9958 5.74931C44.2758 5.82131 44.5278 5.92531 44.7518 6.06131C44.9838 6.18931 45.1718 6.36931 45.3158 6.60131C45.4598 6.82531 45.5318 7.12131 45.5318 7.48931C45.5318 7.88931 45.4118 8.24531 45.1718 8.55731C44.9318 8.86131 44.5838 9.10131 44.1278 9.27731C43.6798 9.45331 43.1318 9.54131 42.4838 9.54131Z" fill="#202020"/>
</svg>
