<svg width="118" height="12" viewBox="0 0 118 12" fill="none" xmlns="http://www.w3.org/2000/svg">
<path d="M1.99423 9L-8.87662e-05 2.45455H1.05673L2.4715 7.46591H2.53968L3.93741 2.45455H5.01128L6.39196 7.44886H6.46014L7.87491 2.45455H8.93173L6.93741 9H5.94878L4.51696 3.97159H4.41468L2.98287 9H1.99423ZM11.7442 9L9.74991 2.45455H10.8067L12.2215 7.46591H12.2897L13.6874 2.45455H14.7613L16.142 7.44886H16.2101L17.6249 2.45455H18.6817L16.6874 9H15.6988L14.267 3.97159H14.1647L12.7329 9H11.7442ZM21.4942 9L19.4999 2.45455H20.5567L21.9715 7.46591H22.0397L23.4374 2.45455H24.5113L25.892 7.44886H25.9601L27.3749 2.45455H28.4317L26.4374 9H25.4488L24.017 3.97159H23.9147L22.4829 9H21.4942ZM29.6036 9.06818C29.3934 9.06818 29.213 8.9929 29.0624 8.84233C28.9118 8.69176 28.8366 8.51136 28.8366 8.30114C28.8366 8.09091 28.9118 7.91051 29.0624 7.75994C29.213 7.60937 29.3934 7.53409 29.6036 7.53409C29.8138 7.53409 29.9942 7.60937 30.1448 7.75994C30.2954 7.91051 30.3706 8.09091 30.3706 8.30114C30.3706 8.44034 30.3351 8.56818 30.2641 8.68466C30.1959 8.80114 30.1036 8.89489 29.9871 8.96591C29.8735 9.03409 29.7456 9.06818 29.6036 9.06818ZM34.1015 9.15341C33.6867 9.15341 33.3103 9.07528 32.9722 8.91903C32.6341 8.75994 32.3657 8.53125 32.1668 8.23295C31.968 7.93182 31.8685 7.56818 31.8685 7.14205C31.8685 6.76705 31.9424 6.46307 32.0901 6.23011C32.2378 5.99432 32.4353 5.80966 32.6824 5.67614C32.9296 5.54261 33.2023 5.44318 33.5006 5.37784C33.8018 5.30966 34.1043 5.25568 34.4083 5.21591C34.806 5.16477 35.1285 5.12642 35.3756 5.10085C35.6256 5.07244 35.8074 5.02557 35.9211 4.96023C36.0376 4.89489 36.0958 4.78125 36.0958 4.61932V4.58523C36.0958 4.16477 35.9807 3.83807 35.7506 3.60511C35.5233 3.37216 35.1782 3.25568 34.7151 3.25568C34.235 3.25568 33.8586 3.3608 33.5858 3.57102C33.3131 3.78125 33.1214 4.00568 33.0106 4.24432L32.056 3.90341C32.2265 3.50568 32.4537 3.19602 32.7378 2.97443C33.0248 2.75 33.3373 2.59375 33.6753 2.50568C34.0162 2.41477 34.3515 2.36932 34.681 2.36932C34.8912 2.36932 35.1327 2.39489 35.4055 2.44602C35.681 2.49432 35.9466 2.59517 36.2023 2.74858C36.4608 2.90199 36.6753 3.13352 36.8458 3.44318C37.0162 3.75284 37.1015 4.16761 37.1015 4.6875V9H36.0958V8.11364H36.0447C35.9765 8.25568 35.8628 8.40767 35.7037 8.5696C35.5447 8.73153 35.333 8.86932 35.0688 8.98295C34.8046 9.09659 34.4822 9.15341 34.1015 9.15341ZM34.2549 8.25C34.6526 8.25 34.9878 8.17188 35.2606 8.01562C35.5361 7.85938 35.7435 7.65767 35.8827 7.41051C36.0248 7.16335 36.0958 6.90341 36.0958 6.63068V5.71023C36.0532 5.76136 35.9594 5.80824 35.8145 5.85085C35.6725 5.89062 35.5077 5.92614 35.3202 5.95739C35.1356 5.9858 34.9552 6.01136 34.779 6.03409C34.6057 6.05398 34.4651 6.07102 34.3572 6.08523C34.0958 6.11932 33.8515 6.17472 33.6242 6.25142C33.3998 6.32528 33.218 6.4375 33.0787 6.58807C32.9424 6.7358 32.8742 6.9375 32.8742 7.19318C32.8742 7.54261 33.0035 7.80682 33.262 7.9858C33.5233 8.16193 33.8543 8.25 34.2549 8.25ZM41.4086 9.13636C40.8632 9.13636 40.3817 8.99858 39.964 8.72301C39.5464 8.4446 39.2197 8.05256 38.9839 7.54688C38.7481 7.03835 38.6302 6.4375 38.6302 5.74432C38.6302 5.05682 38.7481 4.46023 38.9839 3.95455C39.2197 3.44886 39.5479 3.05824 39.9683 2.78267C40.3888 2.5071 40.8746 2.36932 41.4257 2.36932C41.8518 2.36932 42.1885 2.44034 42.4356 2.58239C42.6856 2.72159 42.876 2.88068 43.0067 3.05966C43.1402 3.2358 43.2439 3.38068 43.3177 3.49432H43.403V0.272727H44.4086V9H43.4371V7.99432H43.3177C43.2439 8.11364 43.1388 8.2642 43.0024 8.44602C42.866 8.625 42.6714 8.78551 42.4186 8.92756C42.1657 9.06676 41.8291 9.13636 41.4086 9.13636ZM41.545 8.23295C41.9484 8.23295 42.2893 8.12784 42.5677 7.91761C42.8461 7.70455 43.0578 7.41051 43.2027 7.03551C43.3476 6.65767 43.42 6.22159 43.42 5.72727C43.42 5.23864 43.349 4.81108 43.2069 4.4446C43.0649 4.07528 42.8547 3.78835 42.5763 3.58381C42.2979 3.37642 41.9541 3.27273 41.545 3.27273C41.1189 3.27273 40.7638 3.3821 40.4797 3.60085C40.1984 3.81676 39.9868 4.1108 39.8447 4.48295C39.7055 4.85227 39.6359 5.26705 39.6359 5.72727C39.6359 6.19318 39.7069 6.61648 39.849 6.99716C39.9939 7.375 40.2069 7.67614 40.4882 7.90057C40.7723 8.12216 41.1246 8.23295 41.545 8.23295ZM49.1345 9.13636C48.5038 9.13636 47.9598 8.99716 47.5024 8.71875C47.0479 8.4375 46.697 8.04545 46.4498 7.54261C46.2055 7.03693 46.0834 6.44886 46.0834 5.77841C46.0834 5.10795 46.2055 4.51705 46.4498 4.00568C46.697 3.49148 47.0407 3.09091 47.4811 2.80398C47.9243 2.5142 48.4413 2.36932 49.0322 2.36932C49.3731 2.36932 49.7098 2.42614 50.0422 2.53977C50.3746 2.65341 50.6771 2.83807 50.9498 3.09375C51.2226 3.34659 51.4399 3.68182 51.6018 4.09943C51.7638 4.51705 51.8447 5.03125 51.8447 5.64205V6.06818H46.7993V5.19886H50.822C50.822 4.82955 50.7481 4.5 50.6004 4.21023C50.4555 3.92045 50.2481 3.69176 49.9782 3.52415C49.7112 3.35653 49.3959 3.27273 49.0322 3.27273C48.6317 3.27273 48.2851 3.37216 47.9925 3.57102C47.7027 3.76705 47.4797 4.02273 47.3234 4.33807C47.1672 4.65341 47.089 4.99148 47.089 5.35227V5.93182C47.089 6.42614 47.1743 6.84517 47.3447 7.18892C47.518 7.52983 47.7581 7.78977 48.0649 7.96875C48.3717 8.14489 48.7282 8.23295 49.1345 8.23295C49.3987 8.23295 49.6373 8.19602 49.8504 8.12216C50.0663 8.04545 50.2524 7.93182 50.4086 7.78125C50.5649 7.62784 50.6856 7.4375 50.7709 7.21023L51.7425 7.48295C51.6402 7.8125 51.4683 8.10227 51.2268 8.35227C50.9854 8.59943 50.6871 8.79261 50.3319 8.93182C49.9768 9.06818 49.5777 9.13636 49.1345 9.13636ZM56.0336 9.13636C55.42 9.13636 54.8916 8.99148 54.4484 8.7017C54.0052 8.41193 53.6643 8.01278 53.4257 7.50426C53.1871 6.99574 53.0677 6.41477 53.0677 5.76136C53.0677 5.09659 53.1899 4.50994 53.4342 4.00142C53.6814 3.49006 54.0251 3.09091 54.4655 2.80398C54.9086 2.5142 55.4257 2.36932 56.0166 2.36932C56.4768 2.36932 56.8916 2.45455 57.2609 2.625C57.6302 2.79545 57.9328 3.03409 58.1686 3.34091C58.4044 3.64773 58.5507 4.00568 58.6075 4.41477H57.6018C57.5251 4.11648 57.3547 3.85227 57.0905 3.62216C56.8291 3.3892 56.4768 3.27273 56.0336 3.27273C55.6416 3.27273 55.2979 3.375 55.0024 3.57955C54.7098 3.78125 54.4811 4.06676 54.3163 4.43608C54.1544 4.80256 54.0734 5.23295 54.0734 5.72727C54.0734 6.23295 54.153 6.6733 54.3121 7.0483C54.474 7.4233 54.7013 7.71449 54.9939 7.92188C55.2893 8.12926 55.6359 8.23295 56.0336 8.23295C56.295 8.23295 56.5322 8.1875 56.7453 8.09659C56.9584 8.00568 57.1388 7.875 57.2865 7.70455C57.4342 7.53409 57.5393 7.32955 57.6018 7.09091H58.6075C58.5507 7.47727 58.4101 7.82528 58.1856 8.13494C57.964 8.44176 57.67 8.68608 57.3035 8.8679C56.9399 9.04688 56.5166 9.13636 56.0336 9.13636ZM62.7368 9.13636C62.1459 9.13636 61.6274 8.99574 61.1814 8.71449C60.7382 8.43324 60.3916 8.03977 60.1416 7.53409C59.8944 7.02841 59.7709 6.4375 59.7709 5.76136C59.7709 5.07955 59.8944 4.48437 60.1416 3.97585C60.3916 3.46733 60.7382 3.07244 61.1814 2.79119C61.6274 2.50994 62.1459 2.36932 62.7368 2.36932C63.3277 2.36932 63.8447 2.50994 64.2879 2.79119C64.7339 3.07244 65.0805 3.46733 65.3277 3.97585C65.5777 4.48437 65.7027 5.07955 65.7027 5.76136C65.7027 6.4375 65.5777 7.02841 65.3277 7.53409C65.0805 8.03977 64.7339 8.43324 64.2879 8.71449C63.8447 8.99574 63.3277 9.13636 62.7368 9.13636ZM62.7368 8.23295C63.1856 8.23295 63.555 8.1179 63.8447 7.88778C64.1345 7.65767 64.349 7.35511 64.4882 6.98011C64.6274 6.60511 64.697 6.19886 64.697 5.76136C64.697 5.32386 64.6274 4.91619 64.4882 4.53835C64.349 4.16051 64.1345 3.85511 63.8447 3.62216C63.555 3.3892 63.1856 3.27273 62.7368 3.27273C62.2879 3.27273 61.9186 3.3892 61.6288 3.62216C61.339 3.85511 61.1246 4.16051 60.9854 4.53835C60.8461 4.91619 60.7765 5.32386 60.7765 5.76136C60.7765 6.19886 60.8461 6.60511 60.9854 6.98011C61.1246 7.35511 61.339 7.65767 61.6288 7.88778C61.9186 8.1179 62.2879 8.23295 62.7368 8.23295ZM69.9822 9.13636C69.3515 9.13636 68.8074 8.99716 68.3501 8.71875C67.8955 8.4375 67.5447 8.04545 67.2975 7.54261C67.0532 7.03693 66.931 6.44886 66.931 5.77841C66.931 5.10795 67.0532 4.51705 67.2975 4.00568C67.5447 3.49148 67.8884 3.09091 68.3287 2.80398C68.7719 2.5142 69.289 2.36932 69.8799 2.36932C70.2208 2.36932 70.5574 2.42614 70.8898 2.53977C71.2222 2.65341 71.5248 2.83807 71.7975 3.09375C72.0702 3.34659 72.2876 3.68182 72.4495 4.09943C72.6114 4.51705 72.6924 5.03125 72.6924 5.64205V6.06818H67.6469V5.19886H71.6697C71.6697 4.82955 71.5958 4.5 71.4481 4.21023C71.3032 3.92045 71.0958 3.69176 70.8259 3.52415C70.5589 3.35653 70.2435 3.27273 69.8799 3.27273C69.4793 3.27273 69.1327 3.37216 68.8401 3.57102C68.5503 3.76705 68.3273 4.02273 68.1711 4.33807C68.0148 4.65341 67.9367 4.99148 67.9367 5.35227V5.93182C67.9367 6.42614 68.0219 6.84517 68.1924 7.18892C68.3657 7.52983 68.6057 7.78977 68.9126 7.96875C69.2194 8.14489 69.5759 8.23295 69.9822 8.23295C70.2464 8.23295 70.485 8.19602 70.6981 8.12216C70.914 8.04545 71.1001 7.93182 71.2563 7.78125C71.4126 7.62784 71.5333 7.4375 71.6185 7.21023L72.5901 7.48295C72.4878 7.8125 72.316 8.10227 72.0745 8.35227C71.833 8.59943 71.5347 8.79261 71.1796 8.93182C70.8245 9.06818 70.4253 9.13636 69.9822 9.13636ZM75.2279 5.0625V9H74.2222V2.45455H75.1938V3.47727H75.279C75.4324 3.14489 75.6654 2.87784 75.9779 2.67614C76.2904 2.47159 76.6938 2.36932 77.1881 2.36932C77.6313 2.36932 78.0191 2.46023 78.3515 2.64205C78.6839 2.82102 78.9424 3.09375 79.127 3.46023C79.3117 3.82386 79.404 4.28409 79.404 4.84091V9H78.3983V4.90909C78.3983 4.39489 78.2648 3.99432 77.9978 3.70739C77.7307 3.41761 77.3643 3.27273 76.8983 3.27273C76.5773 3.27273 76.2904 3.34233 76.0376 3.48153C75.7876 3.62074 75.5901 3.82386 75.4452 4.09091C75.3003 4.35795 75.2279 4.68182 75.2279 5.0625ZM83.9861 9.13636C83.3554 9.13636 82.8113 8.99716 82.354 8.71875C81.8994 8.4375 81.5486 8.04545 81.3014 7.54261C81.0571 7.03693 80.9349 6.44886 80.9349 5.77841C80.9349 5.10795 81.0571 4.51705 81.3014 4.00568C81.5486 3.49148 81.8923 3.09091 82.3327 2.80398C82.7758 2.5142 83.2929 2.36932 83.8838 2.36932C84.2247 2.36932 84.5613 2.42614 84.8937 2.53977C85.2261 2.65341 85.5287 2.83807 85.8014 3.09375C86.0741 3.34659 86.2915 3.68182 86.4534 4.09943C86.6153 4.51705 86.6963 5.03125 86.6963 5.64205V6.06818H81.6508V5.19886H85.6736C85.6736 4.82955 85.5997 4.5 85.452 4.21023C85.3071 3.92045 85.0997 3.69176 84.8298 3.52415C84.5628 3.35653 84.2474 3.27273 83.8838 3.27273C83.4832 3.27273 83.1366 3.37216 82.844 3.57102C82.5542 3.76705 82.3312 4.02273 82.175 4.33807C82.0187 4.65341 81.9406 4.99148 81.9406 5.35227V5.93182C81.9406 6.42614 82.0258 6.84517 82.1963 7.18892C82.3696 7.52983 82.6096 7.78977 82.9165 7.96875C83.2233 8.14489 83.5798 8.23295 83.9861 8.23295C84.2503 8.23295 84.4889 8.19602 84.702 8.12216C84.9179 8.04545 85.104 7.93182 85.2602 7.78125C85.4165 7.62784 85.5372 7.4375 85.6224 7.21023L86.594 7.48295C86.4917 7.8125 86.3199 8.10227 86.0784 8.35227C85.8369 8.59943 85.5386 8.79261 85.1835 8.93182C84.8284 9.06818 84.4292 9.13636 83.9861 9.13636ZM88.2261 9V2.45455H89.1977V3.44318H89.2659C89.3852 3.11932 89.6011 2.85653 89.9136 2.65483C90.2261 2.45312 90.5784 2.35227 90.9704 2.35227C91.0443 2.35227 91.1366 2.35369 91.2474 2.35653C91.3582 2.35937 91.442 2.36364 91.4988 2.36932V3.39205C91.4648 3.38352 91.3866 3.37074 91.2645 3.35369C91.1452 3.33381 91.0187 3.32386 90.8852 3.32386C90.567 3.32386 90.2829 3.39062 90.0329 3.52415C89.7858 3.65483 89.5898 3.83665 89.4449 4.0696C89.3028 4.29972 89.2318 4.5625 89.2318 4.85795V9H88.2261ZM95.1338 11.5909C94.648 11.5909 94.2304 11.5284 93.8809 11.4034C93.5315 11.2812 93.2403 11.1193 93.0074 10.9176C92.7773 10.7188 92.594 10.5057 92.4577 10.2784L93.2588 9.71591C93.3497 9.83523 93.4648 9.97159 93.604 10.125C93.7432 10.2812 93.9335 10.4162 94.175 10.5298C94.4193 10.6463 94.7389 10.7045 95.1338 10.7045C95.6622 10.7045 96.0983 10.5767 96.442 10.321C96.7858 10.0653 96.9577 9.66477 96.9577 9.11932V7.78977H96.8724C96.7986 7.90909 96.6934 8.05682 96.5571 8.23295C96.4236 8.40625 96.2304 8.56108 95.9775 8.69744C95.7275 8.83097 95.3895 8.89773 94.9633 8.89773C94.4349 8.89773 93.9605 8.77273 93.54 8.52273C93.1224 8.27273 92.7915 7.90909 92.5471 7.43182C92.3057 6.95455 92.1849 6.375 92.1849 5.69318C92.1849 5.02273 92.3028 4.43892 92.5386 3.94176C92.7744 3.44176 93.1025 3.0554 93.523 2.78267C93.9434 2.5071 94.4292 2.36932 94.9804 2.36932C95.4065 2.36932 95.7446 2.44034 95.9946 2.58239C96.2474 2.72159 96.4406 2.88068 96.5741 3.05966C96.7105 3.2358 96.8156 3.38068 96.8895 3.49432H96.9917V2.45455H97.9633V9.1875C97.9633 9.75 97.8355 10.2074 97.5798 10.5597C97.327 10.9148 96.9861 11.1747 96.5571 11.3395C96.1309 11.5071 95.6565 11.5909 95.1338 11.5909ZM95.0997 7.99432C95.5031 7.99432 95.844 7.90199 96.1224 7.71733C96.4008 7.53267 96.6125 7.26705 96.7574 6.92045C96.9023 6.57386 96.9747 6.15909 96.9747 5.67614C96.9747 5.20455 96.9037 4.78835 96.7616 4.42756C96.6196 4.06676 96.4094 3.78409 96.1309 3.57955C95.8525 3.375 95.5088 3.27273 95.0997 3.27273C94.6736 3.27273 94.3184 3.38068 94.0344 3.59659C93.7531 3.8125 93.5415 4.10227 93.3994 4.46591C93.2602 4.82955 93.1906 5.23295 93.1906 5.67614C93.1906 6.13068 93.2616 6.53267 93.4037 6.8821C93.5486 7.22869 93.7616 7.50142 94.0429 7.70028C94.327 7.89631 94.6792 7.99432 95.0997 7.99432ZM100.452 11.4545C100.282 11.4545 100.13 11.4403 99.996 11.4119C99.8625 11.3864 99.7702 11.3608 99.719 11.3352L99.9747 10.4489C100.219 10.5114 100.435 10.5341 100.622 10.517C100.81 10.5 100.976 10.4162 101.121 10.2656C101.269 10.1179 101.404 9.87784 101.526 9.54545L101.713 9.03409L99.2929 2.45455H100.384L102.191 7.67045H102.259L104.066 2.45455H105.157L102.378 9.95455C102.253 10.2926 102.098 10.5724 101.914 10.794C101.729 11.0185 101.514 11.1847 101.27 11.2926C101.029 11.4006 100.756 11.4545 100.452 11.4545ZM106.807 9.06818C106.597 9.06818 106.416 8.9929 106.266 8.84233C106.115 8.69176 106.04 8.51136 106.04 8.30114C106.04 8.09091 106.115 7.91051 106.266 7.75994C106.416 7.60937 106.597 7.53409 106.807 7.53409C107.017 7.53409 107.197 7.60937 107.348 7.75994C107.498 7.91051 107.574 8.09091 107.574 8.30114C107.574 8.44034 107.538 8.56818 107.467 8.68466C107.399 8.80114 107.307 8.89489 107.19 8.96591C107.077 9.03409 106.949 9.06818 106.807 9.06818ZM109.378 9V2.45455H110.384V9H109.378ZM109.89 1.36364C109.694 1.36364 109.525 1.29688 109.383 1.16335C109.244 1.02983 109.174 0.869318 109.174 0.681818C109.174 0.494318 109.244 0.333807 109.383 0.200284C109.525 0.0667613 109.694 0 109.89 0C110.086 0 110.253 0.0667613 110.393 0.200284C110.535 0.333807 110.606 0.494318 110.606 0.681818C110.606 0.869318 110.535 1.02983 110.393 1.16335C110.253 1.29688 110.086 1.36364 109.89 1.36364ZM113.232 5.0625V9H112.226V2.45455H113.198V3.47727H113.283C113.436 3.14489 113.669 2.87784 113.982 2.67614C114.294 2.47159 114.698 2.36932 115.192 2.36932C115.635 2.36932 116.023 2.46023 116.355 2.64205C116.688 2.82102 116.946 3.09375 117.131 3.46023C117.316 3.82386 117.408 4.28409 117.408 4.84091V9H116.402V4.90909C116.402 4.39489 116.269 3.99432 116.002 3.70739C115.735 3.41761 115.368 3.27273 114.902 3.27273C114.581 3.27273 114.294 3.34233 114.041 3.48153C113.791 3.62074 113.594 3.82386 113.449 4.09091C113.304 4.35795 113.232 4.68182 113.232 5.0625Z" fill="#244621"/>
</svg>
