<svg width="216" height="307" viewBox="0 0 216 307" fill="none" xmlns="http://www.w3.org/2000/svg">
<g filter="url(#filter0_d_2198_1105)">
<rect x="6.6757" y="13.8559" width="203.155" height="149.626" rx="22.0671" fill="url(#paint0_linear_2198_1105)" stroke="#BB6020" stroke-width="3.22934"/>
<path d="M5.06104 165.098L211.446 165.098V288.889H5.06104L5.06104 165.098Z" fill="#F6F3F3"/>
<path d="M5.06104 286.735H211.446V286.735C211.446 292.68 206.626 297.5 200.681 297.5H15.8255C9.88042 297.5 5.06104 292.68 5.06104 286.735V286.735Z" fill="url(#paint1_linear_2198_1105)"/>
<path d="M5.06104 286.735H105.605C111.55 286.735 116.37 291.555 116.37 297.5V297.5H15.8255C9.88044 297.5 5.06104 292.68 5.06104 286.735V286.735Z" fill="#BB6020"/>
<rect x="27.2969" width="161.273" height="22.6054" rx="11.3027" fill="#BB6020"/>
<path d="M41.0441 15.8027L41.0441 6.76059L43.1367 6.76059L43.1367 15.8027L41.0441 15.8027ZM45.2826 15.8027L45.2826 6.76059L47.0135 6.76059L50.8629 13.1418L49.9458 13.1418L53.7306 6.76059L55.4486 6.76059L55.4744 15.8027L53.511 15.8027L53.498 9.77033L53.8597 9.77033L50.8371 14.8468L49.8941 14.8468L46.8069 9.77033L47.246 9.77033L47.246 15.8027L45.2826 15.8027ZM57.6197 15.8027L57.6197 6.76059L59.7123 6.76059L59.7123 14.0976L64.2463 14.0976L64.2463 15.8027L57.6197 15.8027ZM69.0737 15.8027L69.0737 6.76059L70.8047 6.76059L74.654 13.1418L73.7369 13.1418L77.5217 6.76059L79.2397 6.76059L79.2655 15.8027L77.3021 15.8027L77.2892 9.77033L77.6509 9.77033L74.6282 14.8468L73.6852 14.8468L70.598 9.77033L71.0372 9.77033L71.0372 15.8027L69.0737 15.8027ZM85.8027 15.9577C85.088 15.9577 84.4249 15.8415 83.8134 15.609C83.2106 15.3765 82.6853 15.0492 82.2375 14.6273C81.7983 14.2053 81.4539 13.7101 81.2041 13.1418C80.963 12.5734 80.8425 11.9534 80.8425 11.2817C80.8425 10.61 80.963 9.98993 81.2041 9.42156C81.4539 8.8532 81.8026 8.35804 82.2504 7.93607C82.6982 7.5141 83.2235 7.18686 83.8264 6.95435C84.4292 6.72184 85.0836 6.60558 85.7898 6.60558C86.5046 6.60558 87.159 6.72184 87.7532 6.95435C88.356 7.18686 88.877 7.5141 89.3162 7.93607C89.764 8.35804 90.1128 8.8532 90.3625 9.42156C90.6123 9.98132 90.7371 10.6013 90.7371 11.2817C90.7371 11.9534 90.6123 12.5777 90.3625 13.1547C90.1128 13.723 89.764 14.2182 89.3162 14.6402C88.877 15.0535 88.356 15.3765 87.7532 15.609C87.159 15.8415 86.5089 15.9577 85.8027 15.9577ZM85.7898 14.1751C86.1945 14.1751 86.5648 14.1063 86.9007 13.9685C87.2451 13.8307 87.5466 13.6326 87.8049 13.3743C88.0632 13.1159 88.2613 12.8102 88.3991 12.4571C88.5455 12.1041 88.6187 11.7122 88.6187 11.2817C88.6187 10.8511 88.5455 10.4593 88.3991 10.1062C88.2613 9.75311 88.0632 9.4474 87.8049 9.18905C87.5552 8.9307 87.2581 8.73264 86.9136 8.59485C86.5691 8.45707 86.1945 8.38818 85.7898 8.38818C85.3851 8.38818 85.0104 8.45707 84.666 8.59485C84.3301 8.73264 84.033 8.9307 83.7747 9.18905C83.5163 9.4474 83.314 9.75311 83.1676 10.1062C83.0298 10.4593 82.9609 10.8511 82.9609 11.2817C82.9609 11.7036 83.0298 12.0955 83.1676 12.4571C83.314 12.8102 83.512 13.1159 83.7618 13.3743C84.0201 13.6326 84.3215 13.8307 84.666 13.9685C85.0104 14.1063 85.3851 14.1751 85.7898 14.1751ZM96.6888 15.9577C95.9827 15.9577 95.3239 15.8415 94.7124 15.609C94.1096 15.3765 93.5843 15.0492 93.1365 14.6273C92.6973 14.2053 92.3529 13.7101 92.1031 13.1418C91.862 12.5734 91.7415 11.9534 91.7415 11.2817C91.7415 10.61 91.862 9.98993 92.1031 9.42156C92.3529 8.8532 92.7016 8.35804 93.1495 7.93607C93.5973 7.5141 94.1226 7.18686 94.7254 6.95435C95.3282 6.72184 95.9827 6.60558 96.6888 6.60558C97.4036 6.60558 98.058 6.72184 98.6522 6.95435C99.255 7.18686 99.776 7.5141 100.215 7.93607C100.663 8.34942 101.012 8.84028 101.262 9.40865C101.511 9.97701 101.636 10.6013 101.636 11.2817C101.636 11.9534 101.511 12.5777 101.262 13.1547C101.012 13.723 100.663 14.2182 100.215 14.6402C99.776 15.0535 99.255 15.3765 98.6522 15.609C98.058 15.8415 97.4036 15.9577 96.6888 15.9577ZM99.6469 17.8824C99.2938 17.8824 98.958 17.8437 98.6393 17.7662C98.3293 17.6887 98.0193 17.5638 97.7093 17.3916C97.4079 17.2193 97.0892 16.9868 96.7534 16.694C96.4262 16.4012 96.0688 16.0396 95.6813 15.609L97.8772 15.0535C98.1097 15.3722 98.325 15.6262 98.5231 15.8156C98.7211 16.0051 98.9106 16.1386 99.0914 16.2161C99.2809 16.2936 99.479 16.3323 99.6856 16.3323C100.237 16.3323 100.728 16.1084 101.158 15.6606L102.088 16.7715C101.477 17.5121 100.663 17.8824 99.6469 17.8824ZM96.6888 14.1751C97.0935 14.1751 97.4638 14.1063 97.7997 13.9685C98.1442 13.8307 98.4456 13.6326 98.7039 13.3743C98.9623 13.1159 99.1603 12.8102 99.2981 12.4571C99.4445 12.0955 99.5177 11.7036 99.5177 11.2817C99.5177 10.8511 99.4445 10.4593 99.2981 10.1062C99.1603 9.75311 98.9623 9.4474 98.7039 9.18905C98.4456 8.9307 98.1442 8.73264 97.7997 8.59485C97.4638 8.45707 97.0935 8.38818 96.6888 8.38818C96.2841 8.38818 95.9095 8.45707 95.565 8.59485C95.2205 8.73264 94.9191 8.9307 94.6608 9.18905C94.411 9.4474 94.213 9.75311 94.0666 10.1062C93.9288 10.4593 93.8599 10.8511 93.8599 11.2817C93.8599 11.7036 93.9288 12.0955 94.0666 12.4571C94.213 12.8102 94.411 13.1159 94.6608 13.3743C94.9191 13.6326 95.2205 13.8307 95.565 13.9685C95.9095 14.1063 96.2841 14.1751 96.6888 14.1751ZM106.467 12.9738L106.467 11.3592L110.122 11.3592L110.122 12.9738L106.467 12.9738ZM118.014 15.9577C117.385 15.9577 116.761 15.8759 116.141 15.7123C115.53 15.5401 115.004 15.299 114.565 14.9889L115.392 13.3872C115.736 13.6369 116.132 13.835 116.58 13.9814C117.037 14.1278 117.497 14.201 117.962 14.201C118.488 14.201 118.901 14.0976 119.202 13.891C119.504 13.6843 119.655 13.3958 119.655 13.0255C119.655 12.793 119.594 12.5863 119.474 12.4055C119.353 12.2246 119.138 12.0868 118.828 11.9921C118.526 11.8974 118.1 11.85 117.549 11.85L115.237 11.85L115.702 6.76059L121.218 6.76059L121.218 8.43984L116.451 8.43984L117.536 7.48396L117.213 11.1137L116.128 10.1579L118.04 10.1579C118.935 10.1579 119.655 10.2827 120.197 10.5325C120.748 10.7736 121.149 11.1051 121.398 11.5271C121.648 11.9491 121.773 12.427 121.773 12.9609C121.773 13.4948 121.639 13.99 121.373 14.4464C121.106 14.8942 120.692 15.2602 120.132 15.5444C119.581 15.82 118.875 15.9577 118.014 15.9577ZM126.497 15.9577C125.757 15.9577 125.094 15.7769 124.508 15.4152C123.922 15.0449 123.462 14.511 123.126 13.8135C122.79 13.1159 122.622 12.272 122.622 11.2817C122.622 10.2913 122.79 9.4474 123.126 8.74986C123.462 8.05232 123.922 7.52271 124.508 7.16103C125.094 6.79073 125.757 6.60558 126.497 6.60558C127.246 6.60558 127.909 6.79073 128.486 7.16103C129.072 7.52271 129.533 8.05232 129.869 8.74986C130.204 9.4474 130.372 10.2913 130.372 11.2817C130.372 12.272 130.204 13.1159 129.869 13.8135C129.533 14.511 129.072 15.0449 128.486 15.4152C127.909 15.7769 127.246 15.9577 126.497 15.9577ZM126.497 14.1881C126.85 14.1881 127.156 14.089 127.414 13.891C127.681 13.6929 127.888 13.3786 128.034 12.948C128.189 12.5174 128.267 11.962 128.267 11.2817C128.267 10.6013 128.189 10.0459 128.034 9.61532C127.888 9.18475 127.681 8.87042 127.414 8.67236C127.156 8.47429 126.85 8.37526 126.497 8.37526C126.153 8.37526 125.847 8.47429 125.58 8.67236C125.322 8.87042 125.115 9.18475 124.96 9.61532C124.814 10.0459 124.74 10.6013 124.74 11.2817C124.74 11.962 124.814 12.5174 124.96 12.948C125.115 13.3786 125.322 13.6929 125.58 13.891C125.847 14.089 126.153 14.1881 126.497 14.1881ZM135.264 15.9577C134.524 15.9577 133.861 15.7769 133.275 15.4152C132.689 15.0449 132.229 14.511 131.893 13.8135C131.557 13.1159 131.389 12.272 131.389 11.2817C131.389 10.2913 131.557 9.4474 131.893 8.74986C132.229 8.05232 132.689 7.52271 133.275 7.16103C133.861 6.79073 134.524 6.60558 135.264 6.60558C136.014 6.60558 136.677 6.79073 137.254 7.16103C137.839 7.52271 138.3 8.05232 138.636 8.74986C138.972 9.4474 139.14 10.2913 139.14 11.2817C139.14 12.272 138.972 13.1159 138.636 13.8135C138.3 14.511 137.839 15.0449 137.254 15.4152C136.677 15.7769 136.014 15.9577 135.264 15.9577ZM135.264 14.1881C135.617 14.1881 135.923 14.089 136.181 13.891C136.448 13.6929 136.655 13.3786 136.802 12.948C136.957 12.5174 137.034 11.962 137.034 11.2817C137.034 10.6013 136.957 10.0459 136.801 9.61532C136.655 9.18475 136.448 8.87042 136.181 8.67236C135.923 8.47429 135.617 8.37526 135.264 8.37526C134.92 8.37526 134.614 8.47429 134.347 8.67236C134.089 8.87042 133.882 9.18475 133.727 9.61532C133.581 10.0459 133.508 10.6013 133.508 11.2817C133.508 11.962 133.581 12.5174 133.727 12.948C133.882 13.3786 134.089 13.6929 134.347 13.891C134.614 14.089 134.92 14.1881 135.264 14.1881ZM144.031 15.9577C143.291 15.9577 142.628 15.7769 142.042 15.4152C141.457 15.0449 140.996 14.511 140.66 13.8135C140.324 13.1159 140.156 12.272 140.156 11.2817C140.156 10.2913 140.324 9.4474 140.66 8.74986C140.996 8.05232 141.457 7.52271 142.042 7.16103C142.628 6.79073 143.291 6.60558 144.031 6.60558C144.781 6.60558 145.444 6.79073 146.021 7.16103C146.606 7.52271 147.067 8.05232 147.403 8.74986C147.739 9.4474 147.907 10.2913 147.907 11.2817C147.907 12.272 147.739 13.1159 147.403 13.8135C147.067 14.511 146.606 15.0449 146.021 15.4152C145.444 15.7769 144.781 15.9577 144.031 15.9577ZM144.031 14.1881C144.385 14.1881 144.69 14.089 144.949 13.891C145.216 13.6929 145.422 13.3786 145.569 12.948C145.724 12.5174 145.801 11.962 145.801 11.2817C145.801 10.6013 145.724 10.0459 145.569 9.61532C145.422 9.18474 145.216 8.87042 144.949 8.67236C144.69 8.47429 144.385 8.37526 144.031 8.37526C143.687 8.37526 143.381 8.47429 143.114 8.67236C142.856 8.87042 142.649 9.18474 142.494 9.61532C142.348 10.0459 142.275 10.6013 142.275 11.2817C142.275 11.962 142.348 12.5174 142.494 12.948C142.649 13.3786 142.856 13.6929 143.114 13.891C143.381 14.089 143.687 14.1881 144.031 14.1881ZM153.15 15.8027L153.15 6.76059L157.064 6.76059C157.873 6.76059 158.571 6.89407 159.157 7.16103C159.742 7.41937 160.194 7.79398 160.513 8.28484C160.832 8.7757 160.991 9.36128 160.991 10.0416C160.991 10.7133 160.832 11.2946 160.513 11.7854C160.194 12.2763 159.742 12.6552 159.157 12.9222C158.571 13.1805 157.873 13.3097 157.064 13.3097L154.313 13.3097L155.243 12.3667L155.243 15.8027L153.15 15.8027ZM155.243 12.5992L154.313 11.6046L156.948 11.6046C157.594 11.6046 158.076 11.4668 158.394 11.1912C158.713 10.9157 158.872 10.5325 158.872 10.0416C158.872 9.54213 158.713 9.1546 158.394 8.87903C158.076 8.60346 157.594 8.46568 156.948 8.46568L154.313 8.46568L155.243 7.47104L155.243 12.5992ZM165.689 15.9061C164.939 15.9061 164.272 15.7554 163.686 15.454C163.101 15.1439 162.64 14.7177 162.304 14.1751C161.977 13.6326 161.813 13.0169 161.813 12.328C161.813 11.6304 161.977 11.0147 162.304 10.4808C162.64 9.93826 163.101 9.51629 163.686 9.21489C164.272 8.90487 164.939 8.74986 165.689 8.74986C166.421 8.74986 167.058 8.90487 167.6 9.21488C168.143 9.51629 168.543 9.95117 168.802 10.5195L167.239 11.3592C167.058 11.0319 166.83 10.7908 166.554 10.6358C166.287 10.4808 165.994 10.4033 165.676 10.4033C165.331 10.4033 165.021 10.4808 164.746 10.6358C164.47 10.7908 164.25 11.0104 164.087 11.2946C163.932 11.5788 163.854 11.9232 163.854 12.328C163.854 12.7327 163.932 13.0772 164.087 13.3614C164.25 13.6455 164.47 13.8651 164.746 14.0201C165.021 14.1751 165.331 14.2527 165.676 14.2527C165.994 14.2527 166.287 14.1795 166.554 14.0331C166.83 13.878 167.058 13.6326 167.239 13.2968L168.802 14.1493C168.543 14.7091 168.143 15.1439 167.6 15.454C167.058 15.7554 166.421 15.9061 165.689 15.9061ZM172.3 15.9061C171.706 15.9061 171.133 15.8372 170.582 15.6994C170.039 15.553 169.609 15.3722 169.29 15.1569L169.962 13.7101C170.281 13.9082 170.655 14.0718 171.086 14.201C171.525 14.3215 171.956 14.3818 172.377 14.3818C172.843 14.3818 173.17 14.3258 173.359 14.2139C173.557 14.1019 173.656 13.9469 173.656 13.7489C173.656 13.5853 173.579 13.4647 173.424 13.3872C173.277 13.3011 173.079 13.2365 172.83 13.1934C172.58 13.1504 172.304 13.1073 172.003 13.0643C171.71 13.0212 171.413 12.9652 171.112 12.8963C170.81 12.8188 170.535 12.7069 170.285 12.5605C170.035 12.4141 169.833 12.216 169.678 11.9663C169.531 11.7165 169.458 11.3936 169.458 10.9975C169.458 10.5583 169.583 10.1708 169.833 9.83492C170.091 9.49907 170.461 9.23641 170.944 9.04696C171.426 8.84889 172.003 8.74986 172.675 8.74986C173.148 8.74986 173.63 8.80153 174.121 8.90487C174.612 9.00821 175.021 9.15891 175.348 9.35698L174.677 10.7908C174.341 10.5927 174.001 10.4593 173.656 10.3904C173.32 10.3129 172.993 10.2741 172.675 10.2741C172.227 10.2741 171.9 10.3344 171.693 10.455C171.486 10.5755 171.383 10.7305 171.383 10.92C171.383 11.0922 171.456 11.2214 171.602 11.3075C171.757 11.3936 171.96 11.4625 172.21 11.5142C172.459 11.5658 172.731 11.6132 173.023 11.6563C173.325 11.6907 173.626 11.7467 173.928 11.8242C174.229 11.9017 174.5 12.0136 174.741 12.16C174.991 12.2978 175.193 12.4916 175.348 12.7413C175.503 12.9824 175.581 13.3011 175.581 13.6972C175.581 14.1278 175.452 14.511 175.193 14.8468C174.935 15.1741 174.561 15.4324 174.07 15.6219C173.587 15.8113 172.998 15.9061 172.3 15.9061Z" fill="white"/>
<rect x="4.30566" y="137.062" width="207.187" height="40.3749" fill="#BB6020"/>
<rect x="4.30566" y="137.062" width="207.187" height="40.3749" stroke="white"/>
<path d="M41.2558 166.756C39.7328 166.756 38.3693 166.384 37.1651 165.641C35.961 164.879 35.0136 163.781 34.323 162.347C33.6323 160.913 33.287 159.177 33.287 157.141C33.287 155.104 33.6323 153.369 34.323 151.934C35.0136 150.5 35.961 149.411 37.1651 148.667C38.3693 147.906 39.7328 147.525 41.2558 147.525C42.7964 147.525 44.1599 147.906 45.3464 148.667C46.5505 149.411 47.4979 150.5 48.1885 151.934C48.8792 153.369 49.2245 155.104 49.2245 157.141C49.2245 159.177 48.8792 160.913 48.1885 162.347C47.4979 163.781 46.5505 164.879 45.3464 165.641C44.1599 166.384 42.7964 166.756 41.2558 166.756ZM41.2558 163.117C41.9818 163.117 42.6104 162.914 43.1417 162.506C43.6906 162.099 44.1156 161.453 44.4167 160.567C44.7354 159.682 44.8948 158.54 44.8948 157.141C44.8948 155.742 44.7354 154.6 44.4167 153.714C44.1156 152.829 43.6906 152.182 43.1417 151.775C42.6104 151.368 41.9818 151.164 41.2558 151.164C40.5474 151.164 39.9188 151.368 39.3698 151.775C38.8386 152.182 38.4136 152.829 38.0948 153.714C37.7938 154.6 37.6433 155.742 37.6433 157.141C37.6433 158.54 37.7938 159.682 38.0948 160.567C38.4136 161.453 38.8386 162.099 39.3698 162.506C39.9188 162.914 40.5474 163.117 41.2558 163.117ZM57.6371 166.756C56.3444 166.756 55.0605 166.588 53.7855 166.252C52.5283 165.897 51.448 165.402 50.5449 164.764L52.2449 161.47C52.9533 161.984 53.7678 162.391 54.6887 162.692C55.6272 162.993 56.5746 163.144 57.5308 163.144C58.611 163.144 59.461 162.931 60.0808 162.506C60.7006 162.081 61.0105 161.488 61.0105 160.727C61.0105 160.248 60.8866 159.823 60.6386 159.452C60.3907 159.08 59.948 158.796 59.3105 158.602C58.6907 158.407 57.8142 158.309 56.6808 158.309L51.9262 158.309L52.8824 147.844L64.2246 147.844L64.2246 151.297L54.423 151.297L56.6543 149.331L55.9902 156.795L53.759 154.83L57.6902 154.83C59.5319 154.83 61.0105 155.086 62.1261 155.6C63.2595 156.096 64.0829 156.778 64.5964 157.645C65.11 158.513 65.3668 159.496 65.3668 160.594C65.3668 161.692 65.0923 162.71 64.5433 163.648C63.9944 164.569 63.1444 165.322 61.9933 165.906C60.86 166.473 59.4079 166.756 57.6371 166.756ZM67.4579 160.62L67.4579 157.3L74.9751 157.3L74.9751 160.62L67.4579 160.62ZM79.6569 166.437L79.6569 149.438L81.5163 151.297L75.9382 151.297L75.9382 147.844L83.96 147.844L83.96 166.437L79.6569 166.437ZM95.1588 166.756C93.6359 166.756 92.2724 166.384 91.0682 165.641C89.864 164.879 88.9166 163.781 88.226 162.347C87.5354 160.913 87.1901 159.177 87.1901 157.141C87.1901 155.104 87.5354 153.369 88.226 151.934C88.9166 150.5 89.864 149.411 91.0682 148.667C92.2723 147.906 93.6359 147.525 95.1588 147.525C96.6994 147.525 98.063 147.906 99.2494 148.667C100.454 149.411 101.401 150.5 102.092 151.934C102.782 153.369 103.128 155.104 103.128 157.141C103.128 159.177 102.782 160.913 102.092 162.347C101.401 163.781 100.454 164.879 99.2494 165.641C98.063 166.384 96.6994 166.756 95.1588 166.756ZM95.1588 163.117C95.8848 163.117 96.5135 162.914 97.0447 162.506C97.5937 162.099 98.0187 161.453 98.3197 160.567C98.6385 159.682 98.7979 158.54 98.7979 157.141C98.7979 155.742 98.6385 154.6 98.3197 153.714C98.0187 152.829 97.5937 152.182 97.0447 151.775C96.5135 151.368 95.8848 151.164 95.1588 151.164C94.4505 151.164 93.8218 151.368 93.2729 151.775C92.7416 152.182 92.3166 152.829 91.9979 153.714C91.6968 154.6 91.5463 155.742 91.5463 157.141C91.5463 158.54 91.6968 159.682 91.9979 160.567C92.3166 161.453 92.7416 162.099 93.2729 162.506C93.8218 162.914 94.4505 163.117 95.1588 163.117ZM113.187 166.756C111.664 166.756 110.301 166.384 109.096 165.641C107.892 164.879 106.945 163.781 106.254 162.347C105.564 160.913 105.218 159.177 105.218 157.141C105.218 155.104 105.564 153.369 106.254 151.934C106.945 150.5 107.892 149.411 109.096 148.667C110.301 147.906 111.664 147.525 113.187 147.525C114.728 147.525 116.091 147.906 117.278 148.667C118.482 149.411 119.429 150.5 120.12 151.934C120.81 153.369 121.156 155.104 121.156 157.141C121.156 159.177 120.81 160.913 120.12 162.347C119.429 163.781 118.482 164.879 117.278 165.641C116.091 166.384 114.728 166.756 113.187 166.756ZM113.187 163.117C113.913 163.117 114.542 162.914 115.073 162.506C115.622 162.099 116.047 161.453 116.348 160.567C116.667 159.682 116.826 158.54 116.826 157.141C116.826 155.742 116.667 154.6 116.348 153.714C116.047 152.829 115.622 152.182 115.073 151.775C114.542 151.368 113.913 151.164 113.187 151.164C112.479 151.164 111.85 151.368 111.301 151.775C110.77 152.182 110.345 152.829 110.026 153.714C109.725 154.6 109.575 155.742 109.575 157.141C109.575 158.54 109.725 159.682 110.026 160.567C110.345 161.453 110.77 162.099 111.301 162.506C111.85 162.914 112.479 163.117 113.187 163.117ZM131.215 166.756C129.692 166.756 128.329 166.384 127.125 165.641C125.92 164.879 124.973 163.781 124.282 162.347C123.592 160.913 123.246 159.177 123.246 157.141C123.246 155.104 123.592 153.369 124.282 151.934C124.973 150.5 125.92 149.411 127.125 148.667C128.329 147.906 129.692 147.525 131.215 147.525C132.756 147.525 134.119 147.906 135.306 148.667C136.51 149.411 137.457 150.5 138.148 151.934C138.839 153.369 139.184 155.104 139.184 157.141C139.184 159.177 138.839 160.913 138.148 162.347C137.457 163.781 136.51 164.879 135.306 165.641C134.119 166.384 132.756 166.756 131.215 166.756ZM131.215 163.117C131.941 163.117 132.57 162.914 133.101 162.506C133.65 162.099 134.075 161.453 134.376 160.567C134.695 159.682 134.854 158.54 134.854 157.141C134.854 155.742 134.695 154.6 134.376 153.714C134.075 152.829 133.65 152.182 133.101 151.775C132.57 151.368 131.941 151.164 131.215 151.164C130.507 151.164 129.878 151.368 129.329 151.775C128.798 152.182 128.373 152.829 128.054 153.714C127.753 154.6 127.603 155.742 127.603 157.141C127.603 158.54 127.753 159.682 128.054 160.567C128.373 161.453 128.798 162.099 129.329 162.506C129.878 162.914 130.507 163.117 131.215 163.117ZM167.975 151.934C169.109 151.934 170.109 152.165 170.977 152.625C171.862 153.068 172.553 153.758 173.049 154.697C173.562 155.618 173.819 156.804 173.819 158.256L173.819 166.437L169.675 166.437L169.675 158.894C169.675 157.743 169.436 156.893 168.958 156.344C168.48 155.795 167.807 155.52 166.939 155.52C166.337 155.52 165.797 155.662 165.319 155.945C164.841 156.211 164.469 156.618 164.203 157.167C163.938 157.716 163.805 158.416 163.805 159.266L163.805 166.437L159.661 166.437L159.661 158.894C159.661 157.743 159.422 156.893 158.944 156.344C158.484 155.795 157.82 155.52 156.952 155.52C156.35 155.52 155.81 155.662 155.332 155.945C154.853 156.211 154.482 156.618 154.216 157.167C153.95 157.716 153.818 158.416 153.818 159.266L153.818 166.437L149.674 166.437L149.674 152.147L153.632 152.147L153.632 156.052L152.888 154.909C153.384 153.935 154.083 153.201 154.986 152.705C155.907 152.191 156.952 151.934 158.121 151.934C159.431 151.934 160.573 152.271 161.547 152.944C162.539 153.599 163.194 154.608 163.513 155.972L162.052 155.573C162.53 154.458 163.291 153.572 164.336 152.917C165.399 152.262 166.612 151.934 167.975 151.934ZM177.533 166.437L177.533 146.728L181.677 146.728L181.677 166.437L177.533 166.437Z" fill="#F6F4F3"/>
</g>
<path d="M32.5665 200V190.897H33.3598L37.5214 197.997H37.1052L41.2278 190.897H42.0211V200H41.0977V192.34H41.3188L37.5214 198.843H37.0662L33.2427 192.34H33.4898V200H32.5665ZM49.0708 200V198.491L49.0318 198.244V195.721C49.0318 195.14 48.867 194.694 48.5376 194.382C48.2168 194.07 47.7356 193.914 47.094 193.914C46.6519 193.914 46.2314 193.987 45.8325 194.135C45.4337 194.282 45.0956 194.477 44.8182 194.72L44.402 194.031C44.7488 193.736 45.165 193.511 45.6505 193.354C46.136 193.19 46.6475 193.107 47.1851 193.107C48.0694 193.107 48.75 193.328 49.2268 193.771C49.7124 194.204 49.9551 194.867 49.9551 195.76V200H49.0708ZM46.7169 200.065C46.2053 200.065 45.7588 199.983 45.3774 199.818C45.0046 199.645 44.7184 199.41 44.519 199.116C44.3196 198.812 44.2199 198.465 44.2199 198.075C44.2199 197.72 44.3023 197.399 44.467 197.113C44.6404 196.818 44.9179 196.584 45.2993 196.411C45.6895 196.229 46.2097 196.138 46.8599 196.138H49.2138V196.827H46.8859C46.227 196.827 45.7675 196.944 45.5074 197.178C45.256 197.412 45.1303 197.702 45.1303 198.049C45.1303 198.439 45.282 198.752 45.5854 198.986C45.8889 199.22 46.3137 199.337 46.8599 199.337C47.3801 199.337 47.8266 199.22 48.1994 198.986C48.5809 198.743 48.8584 198.396 49.0318 197.945L49.2398 198.582C49.0664 199.033 48.763 199.393 48.3295 199.662C47.9047 199.931 47.3671 200.065 46.7169 200.065ZM51.4226 200L54.3097 196.255L54.2967 196.71L51.5527 193.172H52.5931L54.8429 196.099L54.4528 196.086L56.7027 193.172H57.717L54.947 196.749L54.96 196.255L57.8731 200H56.8197L54.4398 196.879L54.8039 196.931L52.463 200H51.4226ZM59.41 200V193.172H60.3334V200H59.41ZM59.8782 191.664C59.6875 191.664 59.5271 191.599 59.397 191.469C59.267 191.339 59.2019 191.183 59.2019 191.001C59.2019 190.818 59.267 190.667 59.397 190.545C59.5271 190.415 59.6875 190.35 59.8782 190.35C60.0689 190.35 60.2293 190.411 60.3594 190.532C60.4894 190.654 60.5545 190.805 60.5545 190.988C60.5545 191.178 60.4894 191.339 60.3594 191.469C60.238 191.599 60.0776 191.664 59.8782 191.664ZM71.4338 193.107C71.9887 193.107 72.4699 193.216 72.8774 193.432C73.2935 193.641 73.6143 193.961 73.8397 194.395C74.0738 194.828 74.1909 195.375 74.1909 196.033V200H73.2675V196.125C73.2675 195.405 73.0941 194.863 72.7473 194.499C72.4092 194.126 71.928 193.94 71.3038 193.94C70.8356 193.94 70.4281 194.039 70.0813 194.239C69.7432 194.43 69.4788 194.711 69.288 195.084C69.1059 195.448 69.0149 195.89 69.0149 196.411V200H68.0916V196.125C68.0916 195.405 67.9182 194.863 67.5714 194.499C67.2246 194.126 66.739 193.94 66.1148 193.94C65.6553 193.94 65.2521 194.039 64.9053 194.239C64.5585 194.43 64.2898 194.711 64.099 195.084C63.917 195.448 63.8259 195.89 63.8259 196.411V200H62.9026V193.172H63.7869V195.019L63.6439 194.694C63.8519 194.2 64.1857 193.814 64.6452 193.537C65.1134 193.25 65.664 193.107 66.2969 193.107C66.9645 193.107 67.5323 193.276 68.0005 193.615C68.4687 193.944 68.7721 194.443 68.9109 195.11L68.5467 194.967C68.7461 194.412 69.0973 193.966 69.6001 193.628C70.1117 193.281 70.7229 193.107 71.4338 193.107ZM79.517 200.065C78.9361 200.065 78.4289 199.957 77.9954 199.74C77.5619 199.523 77.2238 199.198 76.9811 198.765C76.747 198.331 76.6299 197.789 76.6299 197.139V193.172H77.5533V197.035C77.5533 197.763 77.731 198.314 78.0865 198.686C78.4506 199.051 78.9578 199.233 79.6081 199.233C80.0849 199.233 80.4967 199.137 80.8435 198.947C81.199 198.747 81.4678 198.461 81.6498 198.088C81.8406 197.715 81.9359 197.269 81.9359 196.749V193.172H82.8593V200H81.975V198.127L82.118 198.465C81.9013 198.968 81.5631 199.363 81.1036 199.649C80.6528 199.926 80.1239 200.065 79.517 200.065ZM93.9639 193.107C94.5188 193.107 95 193.216 95.4075 193.432C95.8236 193.641 96.1444 193.961 96.3698 194.395C96.6039 194.828 96.721 195.375 96.721 196.033V200H95.7976V196.125C95.7976 195.405 95.6242 194.863 95.2774 194.499C94.9393 194.126 94.4581 193.94 93.8339 193.94C93.3657 193.94 92.9582 194.039 92.6114 194.239C92.2733 194.43 92.0088 194.711 91.8181 195.084C91.636 195.448 91.545 195.89 91.545 196.411V200H90.6216V196.125C90.6216 195.405 90.4482 194.863 90.1014 194.499C89.7546 194.126 89.2691 193.94 88.6449 193.94C88.1854 193.94 87.7822 194.039 87.4354 194.239C87.0886 194.43 86.8199 194.711 86.6291 195.084C86.447 195.448 86.356 195.89 86.356 196.411V200H85.4327V193.172H86.317V195.019L86.1739 194.694C86.382 194.2 86.7158 193.814 87.1753 193.537C87.6435 193.25 88.194 193.107 88.827 193.107C89.4945 193.107 90.0624 193.276 90.5306 193.615C90.9988 193.944 91.3022 194.443 91.441 195.11L91.0768 194.967C91.2762 194.412 91.6274 193.966 92.1302 193.628C92.6417 193.281 93.253 193.107 93.9639 193.107ZM106.777 200.078C106.092 200.078 105.459 199.965 104.879 199.74C104.298 199.506 103.795 199.181 103.37 198.765C102.945 198.348 102.611 197.859 102.369 197.295C102.134 196.731 102.017 196.116 102.017 195.448C102.017 194.781 102.134 194.165 102.369 193.602C102.611 193.038 102.945 192.548 103.37 192.132C103.803 191.716 104.311 191.395 104.892 191.17C105.472 190.936 106.105 190.818 106.79 190.818C107.449 190.818 108.069 190.931 108.65 191.157C109.231 191.373 109.721 191.703 110.12 192.145L109.508 192.756C109.135 192.375 108.724 192.102 108.273 191.937C107.822 191.764 107.336 191.677 106.816 191.677C106.27 191.677 105.763 191.772 105.295 191.963C104.827 192.145 104.419 192.409 104.072 192.756C103.725 193.094 103.452 193.493 103.253 193.953C103.062 194.404 102.967 194.902 102.967 195.448C102.967 195.994 103.062 196.497 103.253 196.957C103.452 197.408 103.725 197.806 104.072 198.153C104.419 198.491 104.827 198.756 105.295 198.947C105.763 199.129 106.27 199.22 106.816 199.22C107.336 199.22 107.822 199.133 108.273 198.96C108.724 198.786 109.135 198.509 109.508 198.127L110.12 198.739C109.721 199.181 109.231 199.514 108.65 199.74C108.069 199.965 107.445 200.078 106.777 200.078ZM116.153 200V198.491L116.114 198.244V195.721C116.114 195.14 115.949 194.694 115.62 194.382C115.299 194.07 114.818 193.914 114.176 193.914C113.734 193.914 113.314 193.987 112.915 194.135C112.516 194.282 112.178 194.477 111.9 194.72L111.484 194.031C111.831 193.736 112.247 193.511 112.733 193.354C113.218 193.19 113.73 193.107 114.267 193.107C115.152 193.107 115.832 193.328 116.309 193.771C116.795 194.204 117.037 194.867 117.037 195.76V200H116.153ZM113.799 200.065C113.288 200.065 112.841 199.983 112.46 199.818C112.087 199.645 111.801 199.41 111.601 199.116C111.402 198.812 111.302 198.465 111.302 198.075C111.302 197.72 111.385 197.399 111.549 197.113C111.723 196.818 112 196.584 112.382 196.411C112.772 196.229 113.292 196.138 113.942 196.138H116.296V196.827H113.968C113.309 196.827 112.85 196.944 112.59 197.178C112.338 197.412 112.213 197.702 112.213 198.049C112.213 198.439 112.364 198.752 112.668 198.986C112.971 199.22 113.396 199.337 113.942 199.337C114.462 199.337 114.909 199.22 115.282 198.986C115.663 198.743 115.941 198.396 116.114 197.945L116.322 198.582C116.149 199.033 115.845 199.393 115.412 199.662C114.987 199.931 114.449 200.065 113.799 200.065ZM123.07 200.065C122.48 200.065 121.947 199.931 121.47 199.662C120.993 199.384 120.612 198.99 120.326 198.478C120.048 197.958 119.909 197.325 119.909 196.58C119.909 195.834 120.048 195.206 120.326 194.694C120.603 194.174 120.98 193.779 121.457 193.511C121.934 193.242 122.471 193.107 123.07 193.107C123.72 193.107 124.301 193.255 124.812 193.55C125.332 193.836 125.74 194.243 126.035 194.772C126.33 195.292 126.477 195.895 126.477 196.58C126.477 197.273 126.33 197.88 126.035 198.4C125.74 198.921 125.332 199.328 124.812 199.623C124.301 199.918 123.72 200.065 123.07 200.065ZM119.545 202.523V193.172H120.43V195.227L120.339 196.593L120.469 197.971V202.523H119.545ZM123.005 199.246C123.49 199.246 123.924 199.137 124.305 198.921C124.687 198.695 124.99 198.383 125.215 197.984C125.441 197.577 125.554 197.109 125.554 196.58C125.554 196.051 125.441 195.587 125.215 195.188C124.99 194.789 124.687 194.477 124.305 194.252C123.924 194.026 123.49 193.914 123.005 193.914C122.519 193.914 122.081 194.026 121.691 194.252C121.31 194.477 121.006 194.789 120.781 195.188C120.564 195.587 120.456 196.051 120.456 196.58C120.456 197.109 120.564 197.577 120.781 197.984C121.006 198.383 121.31 198.695 121.691 198.921C122.081 199.137 122.519 199.246 123.005 199.246ZM132.6 200V198.491L132.561 198.244V195.721C132.561 195.14 132.396 194.694 132.067 194.382C131.746 194.07 131.265 193.914 130.623 193.914C130.181 193.914 129.76 193.987 129.361 194.135C128.963 194.282 128.625 194.477 128.347 194.72L127.931 194.031C128.278 193.736 128.694 193.511 129.179 193.354C129.665 193.19 130.176 193.107 130.714 193.107C131.598 193.107 132.279 193.328 132.756 193.771C133.241 194.204 133.484 194.867 133.484 195.76V200H132.6ZM130.246 200.065C129.734 200.065 129.288 199.983 128.906 199.818C128.534 199.645 128.247 199.41 128.048 199.116C127.849 198.812 127.749 198.465 127.749 198.075C127.749 197.72 127.831 197.399 127.996 197.113C128.169 196.818 128.447 196.584 128.828 196.411C129.218 196.229 129.739 196.138 130.389 196.138H132.743V196.827H130.415C129.756 196.827 129.296 196.944 129.036 197.178C128.785 197.412 128.659 197.702 128.659 198.049C128.659 198.439 128.811 198.752 129.114 198.986C129.418 199.22 129.843 199.337 130.389 199.337C130.909 199.337 131.356 199.22 131.728 198.986C132.11 198.743 132.387 198.396 132.561 197.945L132.769 198.582C132.595 199.033 132.292 199.393 131.858 199.662C131.434 199.931 130.896 200.065 130.246 200.065ZM138.827 200.065C138.151 200.065 137.544 199.918 137.006 199.623C136.478 199.319 136.061 198.908 135.758 198.387C135.454 197.859 135.303 197.256 135.303 196.58C135.303 195.895 135.454 195.292 135.758 194.772C136.061 194.252 136.478 193.844 137.006 193.55C137.544 193.255 138.151 193.107 138.827 193.107C139.408 193.107 139.933 193.22 140.401 193.445C140.869 193.671 141.237 194.009 141.506 194.46L140.817 194.928C140.583 194.581 140.292 194.326 139.946 194.161C139.599 193.996 139.222 193.914 138.814 193.914C138.329 193.914 137.891 194.026 137.501 194.252C137.11 194.469 136.803 194.776 136.577 195.175C136.352 195.574 136.239 196.042 136.239 196.58C136.239 197.117 136.352 197.585 136.577 197.984C136.803 198.383 137.11 198.695 137.501 198.921C137.891 199.137 138.329 199.246 138.814 199.246C139.222 199.246 139.599 199.163 139.946 198.999C140.292 198.834 140.583 198.582 140.817 198.244L141.506 198.713C141.237 199.155 140.869 199.493 140.401 199.727C139.933 199.952 139.408 200.065 138.827 200.065ZM143.218 200V193.172H144.142V200H143.218ZM143.687 191.664C143.496 191.664 143.335 191.599 143.205 191.469C143.075 191.339 143.01 191.183 143.01 191.001C143.01 190.818 143.075 190.667 143.205 190.545C143.335 190.415 143.496 190.35 143.687 190.35C143.877 190.35 144.038 190.411 144.168 190.532C144.298 190.654 144.363 190.805 144.363 190.988C144.363 191.178 144.298 191.339 144.168 191.469C144.046 191.599 143.886 191.664 143.687 191.664ZM148.87 200.065C148.228 200.065 147.734 199.892 147.387 199.545C147.04 199.198 146.867 198.708 146.867 198.075V191.664H147.79V198.023C147.79 198.422 147.89 198.73 148.089 198.947C148.298 199.163 148.592 199.272 148.974 199.272C149.381 199.272 149.719 199.155 149.988 198.921L150.313 199.584C150.131 199.749 149.91 199.87 149.65 199.948C149.399 200.026 149.139 200.065 148.87 200.065ZM145.645 193.94V193.172H149.871V193.94H145.645ZM151.919 202.588C151.598 202.588 151.291 202.536 150.996 202.432C150.71 202.328 150.463 202.172 150.255 201.964L150.684 201.274C150.857 201.439 151.044 201.565 151.243 201.652C151.451 201.747 151.681 201.795 151.932 201.795C152.236 201.795 152.496 201.708 152.713 201.535C152.938 201.37 153.15 201.075 153.35 200.65L153.792 199.649L153.896 199.506L156.705 193.172H157.615L154.195 200.819C154.004 201.261 153.792 201.613 153.558 201.873C153.332 202.133 153.085 202.315 152.817 202.419C152.548 202.532 152.249 202.588 151.919 202.588ZM153.74 200.195L150.593 193.172H151.555L154.338 199.441L153.74 200.195ZM162.515 200V190.897H163.477V200H162.515ZM166.439 200V190.897H167.232L171.394 197.997H170.978L175.1 190.897H175.893V200H174.97V192.34H175.191L171.394 198.843H170.939L167.115 192.34H167.362V200H166.439ZM178.86 200V190.897H179.822V199.168H184.92V200H178.86ZM26.6138 219.078C25.9289 219.078 25.296 218.965 24.7151 218.74C24.1342 218.506 23.6314 218.181 23.2065 217.765C22.7817 217.348 22.4479 216.859 22.2052 216.295C21.9711 215.731 21.854 215.116 21.854 214.448C21.854 213.781 21.9711 213.165 22.2052 212.602C22.4479 212.038 22.7817 211.548 23.2065 211.132C23.64 210.716 24.1472 210.395 24.7281 210.17C25.309 209.936 25.9419 209.818 26.6269 209.818C27.2858 209.818 27.9057 209.931 28.4866 210.157C29.0675 210.373 29.5573 210.703 29.9561 211.145L29.3449 211.756C28.9721 211.375 28.5603 211.102 28.1094 210.937C27.6586 210.764 27.1731 210.677 26.6529 210.677C26.1067 210.677 25.5995 210.772 25.1313 210.963C24.6631 211.145 24.2556 211.409 23.9088 211.756C23.562 212.094 23.2889 212.493 23.0895 212.953C22.8988 213.404 22.8034 213.902 22.8034 214.448C22.8034 214.994 22.8988 215.497 23.0895 215.957C23.2889 216.408 23.562 216.806 23.9088 217.153C24.2556 217.491 24.6631 217.756 25.1313 217.947C25.5995 218.129 26.1067 218.22 26.6529 218.22C27.1731 218.22 27.6586 218.133 28.1094 217.96C28.5603 217.786 28.9721 217.509 29.3449 217.127L29.9561 217.739C29.5573 218.181 29.0675 218.514 28.4866 218.74C27.9057 218.965 27.2814 219.078 26.6138 219.078ZM34.2908 219.065C33.6319 219.065 33.038 218.918 32.5092 218.623C31.989 218.319 31.5771 217.908 31.2737 217.387C30.9702 216.859 30.8185 216.256 30.8185 215.58C30.8185 214.895 30.9702 214.292 31.2737 213.772C31.5771 213.252 31.989 212.844 32.5092 212.55C33.0294 212.255 33.6233 212.107 34.2908 212.107C34.9671 212.107 35.5653 212.255 36.0855 212.55C36.6144 212.844 37.0262 213.252 37.321 213.772C37.6244 214.292 37.7762 214.895 37.7762 215.58C37.7762 216.256 37.6244 216.859 37.321 217.387C37.0262 217.908 36.6144 218.319 36.0855 218.623C35.5567 218.918 34.9584 219.065 34.2908 219.065ZM34.2908 218.246C34.785 218.246 35.2229 218.137 35.6043 217.921C35.9858 217.695 36.2849 217.383 36.5017 216.984C36.7271 216.577 36.8398 216.109 36.8398 215.58C36.8398 215.042 36.7271 214.574 36.5017 214.175C36.2849 213.776 35.9858 213.469 35.6043 213.252C35.2229 213.026 34.7894 212.914 34.3038 212.914C33.8183 212.914 33.3848 213.026 33.0034 213.252C32.6219 213.469 32.3184 213.776 32.093 214.175C31.8676 214.574 31.7549 215.042 31.7549 215.58C31.7549 216.109 31.8676 216.577 32.093 216.984C32.3184 217.383 32.6219 217.695 33.0034 217.921C33.3848 218.137 33.814 218.246 34.2908 218.246ZM43.1466 212.107C43.7015 212.107 44.187 212.216 44.6032 212.432C45.028 212.641 45.3575 212.961 45.5915 213.395C45.8343 213.828 45.9557 214.375 45.9557 215.033V219H45.0323V215.125C45.0323 214.405 44.8503 213.863 44.4861 213.499C44.1307 213.126 43.6278 212.94 42.9775 212.94C42.492 212.94 42.0672 213.039 41.7031 213.239C41.3476 213.43 41.0702 213.711 40.8707 214.084C40.68 214.448 40.5846 214.89 40.5846 215.411V219H39.6613V212.172H40.5456V214.045L40.4026 213.694C40.6193 213.2 40.9661 212.814 41.443 212.537C41.9198 212.25 42.4877 212.107 43.1466 212.107ZM50.6086 219.065C49.967 219.065 49.4728 218.892 49.126 218.545C48.7793 218.198 48.6059 217.708 48.6059 217.075V210.664H49.5292V217.023C49.5292 217.422 49.6289 217.73 49.8283 217.947C50.0364 218.163 50.3312 218.272 50.7127 218.272C51.1201 218.272 51.4583 218.155 51.727 217.921L52.0522 218.584C51.8701 218.749 51.649 218.87 51.3889 218.948C51.1375 219.026 50.8774 219.065 50.6086 219.065ZM47.3834 212.94V212.172H51.61V212.94H47.3834ZM58.0117 219V217.491L57.9727 217.244V214.721C57.9727 214.14 57.8079 213.694 57.4785 213.382C57.1577 213.07 56.6765 212.914 56.0349 212.914C55.5928 212.914 55.1723 212.987 54.7735 213.135C54.3746 213.282 54.0365 213.477 53.7591 213.72L53.3429 213.031C53.6897 212.736 54.1059 212.511 54.5914 212.354C55.0769 212.19 55.5884 212.107 56.126 212.107C57.0103 212.107 57.6909 212.328 58.1678 212.771C58.6533 213.204 58.896 213.867 58.896 214.76V219H58.0117ZM55.6578 219.065C55.1463 219.065 54.6998 218.983 54.3183 218.818C53.9455 218.645 53.6594 218.41 53.46 218.116C53.2605 217.812 53.1608 217.465 53.1608 217.075C53.1608 216.72 53.2432 216.399 53.4079 216.113C53.5813 215.818 53.8588 215.584 54.2403 215.411C54.6304 215.229 55.1506 215.138 55.8008 215.138H58.1547V215.827H55.8269C55.1679 215.827 54.7084 215.944 54.4483 216.178C54.1969 216.412 54.0712 216.702 54.0712 217.049C54.0712 217.439 54.2229 217.752 54.5264 217.986C54.8298 218.22 55.2546 218.337 55.8008 218.337C56.321 218.337 56.7676 218.22 57.1404 217.986C57.5218 217.743 57.7993 217.396 57.9727 216.945L58.1808 217.582C58.0074 218.033 57.7039 218.393 57.2704 218.662C56.8456 218.931 56.308 219.065 55.6578 219.065ZM61.404 219V212.172H62.3273V219H61.404ZM61.8721 210.664C61.6814 210.664 61.521 210.599 61.391 210.469C61.2609 210.339 61.1959 210.183 61.1959 210.001C61.1959 209.818 61.2609 209.667 61.391 209.545C61.521 209.415 61.6814 209.35 61.8721 209.35C62.0629 209.35 62.2233 209.411 62.3533 209.532C62.4834 209.654 62.5484 209.805 62.5484 209.988C62.5484 210.178 62.4834 210.339 62.3533 210.469C62.2319 210.599 62.0715 210.664 61.8721 210.664ZM68.3818 212.107C68.9367 212.107 69.4222 212.216 69.8384 212.432C70.2632 212.641 70.5927 212.961 70.8268 213.395C71.0695 213.828 71.1909 214.375 71.1909 215.033V219H70.2676V215.125C70.2676 214.405 70.0855 213.863 69.7213 213.499C69.3659 213.126 68.863 212.94 68.2128 212.94C67.7272 212.94 67.3024 213.039 66.9383 213.239C66.5828 213.43 66.3054 213.711 66.106 214.084C65.9152 214.448 65.8199 214.89 65.8199 215.411V219H64.8965V212.172H65.7808V214.045L65.6378 213.694C65.8545 213.2 66.2013 212.814 66.6782 212.537C67.155 212.25 67.7229 212.107 68.3818 212.107ZM76.5851 219.065C75.8742 219.065 75.2499 218.918 74.7124 218.623C74.1749 218.319 73.7544 217.908 73.4509 217.387C73.1475 216.859 72.9958 216.256 72.9958 215.58C72.9958 214.903 73.1388 214.305 73.4249 213.785C73.7197 213.265 74.1185 212.857 74.6214 212.563C75.1329 212.259 75.7051 212.107 76.338 212.107C76.9796 212.107 77.5475 212.255 78.0417 212.55C78.5445 212.836 78.939 213.243 79.2251 213.772C79.5112 214.292 79.6543 214.895 79.6543 215.58C79.6543 215.623 79.65 215.671 79.6413 215.723C79.6413 215.766 79.6413 215.814 79.6413 215.866H73.698V215.177H79.1471L78.783 215.45C78.783 214.955 78.6746 214.518 78.4578 214.136C78.2498 213.746 77.9636 213.443 77.5995 213.226C77.2354 213.009 76.8149 212.901 76.338 212.901C75.8698 212.901 75.4494 213.009 75.0765 213.226C74.7037 213.443 74.4133 213.746 74.2052 214.136C73.9971 214.526 73.8931 214.973 73.8931 215.476V215.619C73.8931 216.139 74.0058 216.598 74.2312 216.997C74.4653 217.387 74.7861 217.695 75.1936 217.921C75.6097 218.137 76.0823 218.246 76.6111 218.246C77.0273 218.246 77.4131 218.172 77.7686 218.025C78.1327 217.877 78.4448 217.652 78.7049 217.348L79.2251 217.947C78.9217 218.311 78.5402 218.588 78.0807 218.779C77.6299 218.97 77.1313 219.065 76.5851 219.065ZM81.5337 219V212.172H82.418V214.032L82.327 213.707C82.5177 213.187 82.8385 212.792 83.2894 212.524C83.7402 212.246 84.2994 212.107 84.967 212.107V213.005C84.9323 213.005 84.8977 213.005 84.863 213.005C84.8283 212.996 84.7936 212.992 84.7589 212.992C84.0393 212.992 83.4758 213.213 83.0683 213.655C82.6608 214.088 82.4571 214.708 82.4571 215.515V219H81.5337ZM92.8752 219.065C92.2249 219.065 91.6397 218.918 91.1195 218.623C90.608 218.328 90.2048 217.921 89.91 217.4C89.6152 216.872 89.4679 216.265 89.4679 215.58C89.4679 214.886 89.6152 214.279 89.91 213.759C90.2048 213.239 90.608 212.836 91.1195 212.55C91.6397 212.255 92.2249 212.107 92.8752 212.107C93.4734 212.107 94.0066 212.242 94.4748 212.511C94.9516 212.779 95.3288 213.174 95.6062 213.694C95.8923 214.206 96.0354 214.834 96.0354 215.58C96.0354 216.317 95.8966 216.945 95.6192 217.465C95.3418 217.986 94.9646 218.384 94.4878 218.662C94.0196 218.931 93.4821 219.065 92.8752 219.065ZM92.9402 218.246C93.4257 218.246 93.8592 218.137 94.2407 217.921C94.6308 217.695 94.9343 217.383 95.151 216.984C95.3764 216.577 95.4892 216.109 95.4892 215.58C95.4892 215.042 95.3764 214.574 95.151 214.175C94.9343 213.776 94.6308 213.469 94.2407 213.252C93.8592 213.026 93.4257 212.914 92.9402 212.914C92.4633 212.914 92.0342 213.026 91.6527 213.252C91.2712 213.469 90.9678 213.776 90.7423 214.175C90.5169 214.574 90.4042 215.042 90.4042 215.58C90.4042 216.109 90.5169 216.577 90.7423 216.984C90.9678 217.383 91.2712 217.695 91.6527 217.921C92.0342 218.137 92.4633 218.246 92.9402 218.246ZM95.5152 219V216.945L95.6062 215.567L95.4762 214.188V209.35H96.3995V219H95.5152ZM101.871 219.065C101.16 219.065 100.536 218.918 99.9984 218.623C99.4609 218.319 99.0404 217.908 98.7369 217.387C98.4335 216.859 98.2818 216.256 98.2818 215.58C98.2818 214.903 98.4248 214.305 98.7109 213.785C99.0057 213.265 99.4045 212.857 99.9074 212.563C100.419 212.259 100.991 212.107 101.624 212.107C102.266 212.107 102.834 212.255 103.328 212.55C103.831 212.836 104.225 213.243 104.511 213.772C104.797 214.292 104.94 214.895 104.94 215.58C104.94 215.623 104.936 215.671 104.927 215.723C104.927 215.766 104.927 215.814 104.927 215.866H98.984V215.177H104.433L104.069 215.45C104.069 214.955 103.961 214.518 103.744 214.136C103.536 213.746 103.25 213.443 102.886 213.226C102.521 213.009 102.101 212.901 101.624 212.901C101.156 212.901 100.735 213.009 100.363 213.226C99.9898 213.443 99.6993 213.746 99.4912 214.136C99.2832 214.526 99.1791 214.973 99.1791 215.476V215.619C99.1791 216.139 99.2918 216.598 99.5172 216.997C99.7513 217.387 100.072 217.695 100.48 217.921C100.896 218.137 101.368 218.246 101.897 218.246C102.313 218.246 102.699 218.172 103.055 218.025C103.419 217.877 103.731 217.652 103.991 217.348L104.511 217.947C104.208 218.311 103.826 218.588 103.367 218.779C102.916 218.97 102.417 219.065 101.871 219.065ZM108.653 219.065C108.09 219.065 107.557 218.987 107.054 218.831C106.551 218.666 106.156 218.462 105.87 218.22L106.287 217.491C106.564 217.7 106.919 217.882 107.353 218.038C107.786 218.185 108.242 218.259 108.718 218.259C109.369 218.259 109.837 218.159 110.123 217.96C110.409 217.752 110.552 217.478 110.552 217.14C110.552 216.889 110.47 216.694 110.305 216.555C110.149 216.408 109.941 216.299 109.681 216.23C109.421 216.152 109.13 216.087 108.809 216.035C108.489 215.983 108.168 215.922 107.847 215.853C107.535 215.783 107.249 215.684 106.989 215.554C106.729 215.415 106.516 215.229 106.352 214.994C106.195 214.76 106.117 214.448 106.117 214.058C106.117 213.685 106.222 213.352 106.43 213.057C106.638 212.762 106.941 212.532 107.34 212.367C107.747 212.194 108.242 212.107 108.822 212.107C109.265 212.107 109.707 212.168 110.149 212.289C110.591 212.402 110.955 212.554 111.241 212.745L110.838 213.486C110.535 213.278 110.21 213.13 109.863 213.044C109.516 212.948 109.169 212.901 108.822 212.901C108.207 212.901 107.752 213.009 107.457 213.226C107.171 213.434 107.028 213.703 107.028 214.032C107.028 214.292 107.106 214.496 107.262 214.643C107.427 214.791 107.639 214.908 107.899 214.994C108.168 215.073 108.458 215.138 108.77 215.19C109.091 215.242 109.408 215.307 109.72 215.385C110.041 215.454 110.331 215.554 110.591 215.684C110.86 215.805 111.072 215.983 111.228 216.217C111.393 216.442 111.476 216.741 111.476 217.114C111.476 217.513 111.363 217.86 111.137 218.155C110.921 218.441 110.6 218.666 110.175 218.831C109.759 218.987 109.252 219.065 108.653 219.065ZM113.17 219V212.172H114.093V219H113.17ZM113.638 210.664C113.447 210.664 113.287 210.599 113.157 210.469C113.027 210.339 112.962 210.183 112.962 210.001C112.962 209.818 113.027 209.667 113.157 209.545C113.287 209.415 113.447 209.35 113.638 209.35C113.829 209.35 113.989 209.411 114.119 209.532C114.249 209.654 114.314 209.805 114.314 209.988C114.314 210.178 114.249 210.339 114.119 210.469C113.998 210.599 113.837 210.664 113.638 210.664ZM119.575 221.588C118.951 221.588 118.353 221.497 117.781 221.315C117.209 221.133 116.745 220.873 116.389 220.535L116.857 219.832C117.178 220.118 117.573 220.344 118.041 220.509C118.518 220.682 119.021 220.769 119.549 220.769C120.416 220.769 121.054 220.565 121.461 220.157C121.869 219.759 122.072 219.134 122.072 218.285V216.581L122.202 215.411L122.111 214.24V212.172H122.996V218.168C122.996 219.347 122.705 220.209 122.124 220.756C121.552 221.311 120.703 221.588 119.575 221.588ZM119.406 218.74C118.756 218.74 118.171 218.601 117.651 218.324C117.131 218.038 116.719 217.643 116.415 217.14C116.12 216.637 115.973 216.061 115.973 215.411C115.973 214.76 116.12 214.188 116.415 213.694C116.719 213.191 117.131 212.801 117.651 212.524C118.171 212.246 118.756 212.107 119.406 212.107C120.013 212.107 120.56 212.233 121.045 212.485C121.531 212.736 121.916 213.109 122.202 213.603C122.489 214.097 122.632 214.7 122.632 215.411C122.632 216.122 122.489 216.724 122.202 217.218C121.916 217.713 121.531 218.09 121.045 218.35C120.56 218.61 120.013 218.74 119.406 218.74ZM119.497 217.921C120 217.921 120.447 217.817 120.837 217.608C121.227 217.392 121.535 217.097 121.76 216.724C121.986 216.343 122.098 215.905 122.098 215.411C122.098 214.916 121.986 214.483 121.76 214.11C121.535 213.737 121.227 213.447 120.837 213.239C120.447 213.022 120 212.914 119.497 212.914C119.003 212.914 118.557 213.022 118.158 213.239C117.768 213.447 117.46 213.737 117.235 214.11C117.018 214.483 116.909 214.916 116.909 215.411C116.909 215.905 117.018 216.343 117.235 216.724C117.46 217.097 117.768 217.392 118.158 217.608C118.557 217.817 119.003 217.921 119.497 217.921ZM129.051 212.107C129.605 212.107 130.091 212.216 130.507 212.432C130.932 212.641 131.261 212.961 131.495 213.395C131.738 213.828 131.86 214.375 131.86 215.033V219H130.936V215.125C130.936 214.405 130.754 213.863 130.39 213.499C130.035 213.126 129.532 212.94 128.881 212.94C128.396 212.94 127.971 213.039 127.607 213.239C127.251 213.43 126.974 213.711 126.775 214.084C126.584 214.448 126.489 214.89 126.489 215.411V219H125.565V212.172H126.45V214.045L126.306 213.694C126.523 213.2 126.87 212.814 127.347 212.537C127.824 212.25 128.392 212.107 129.051 212.107ZM137.254 219.065C136.543 219.065 135.919 218.918 135.381 218.623C134.844 218.319 134.423 217.908 134.12 217.387C133.816 216.859 133.664 216.256 133.664 215.58C133.664 214.903 133.807 214.305 134.094 213.785C134.388 213.265 134.787 212.857 135.29 212.563C135.802 212.259 136.374 212.107 137.007 212.107C137.648 212.107 138.216 212.255 138.71 212.55C139.213 212.836 139.608 213.243 139.894 213.772C140.18 214.292 140.323 214.895 140.323 215.58C140.323 215.623 140.319 215.671 140.31 215.723C140.31 215.766 140.31 215.814 140.31 215.866H134.367V215.177H139.816L139.452 215.45C139.452 214.955 139.343 214.518 139.127 214.136C138.918 213.746 138.632 213.443 138.268 213.226C137.904 213.009 137.484 212.901 137.007 212.901C136.539 212.901 136.118 213.009 135.745 213.226C135.372 213.443 135.082 213.746 134.874 214.136C134.666 214.526 134.562 214.973 134.562 215.476V215.619C134.562 216.139 134.674 216.598 134.9 216.997C135.134 217.387 135.455 217.695 135.862 217.921C136.278 218.137 136.751 218.246 137.28 218.246C137.696 218.246 138.082 218.172 138.437 218.025C138.801 217.877 139.114 217.652 139.374 217.348L139.894 217.947C139.59 218.311 139.209 218.588 138.749 218.779C138.299 218.97 137.8 219.065 137.254 219.065ZM144.92 219.065C144.27 219.065 143.685 218.918 143.165 218.623C142.653 218.328 142.25 217.921 141.955 217.4C141.661 216.872 141.513 216.265 141.513 215.58C141.513 214.886 141.661 214.279 141.955 213.759C142.25 213.239 142.653 212.836 143.165 212.55C143.685 212.255 144.27 212.107 144.92 212.107C145.519 212.107 146.052 212.242 146.52 212.511C146.997 212.779 147.374 213.174 147.651 213.694C147.938 214.206 148.081 214.834 148.081 215.58C148.081 216.317 147.942 216.945 147.664 217.465C147.387 217.986 147.01 218.384 146.533 218.662C146.065 218.931 145.527 219.065 144.92 219.065ZM144.985 218.246C145.471 218.246 145.904 218.137 146.286 217.921C146.676 217.695 146.98 217.383 147.196 216.984C147.422 216.577 147.534 216.109 147.534 215.58C147.534 215.042 147.422 214.574 147.196 214.175C146.98 213.776 146.676 213.469 146.286 213.252C145.904 213.026 145.471 212.914 144.985 212.914C144.509 212.914 144.079 213.026 143.698 213.252C143.316 213.469 143.013 213.776 142.788 214.175C142.562 214.574 142.449 215.042 142.449 215.58C142.449 216.109 142.562 216.577 142.788 216.984C143.013 217.383 143.316 217.695 143.698 217.921C144.079 218.137 144.509 218.246 144.985 218.246ZM147.56 219V216.945L147.651 215.567L147.521 214.188V209.35H148.445V219H147.56ZM154.576 219V211.314C154.576 210.707 154.754 210.217 155.109 209.845C155.465 209.472 155.976 209.285 156.644 209.285C156.904 209.285 157.155 209.32 157.398 209.389C157.641 209.459 157.845 209.567 158.009 209.714L157.697 210.404C157.567 210.291 157.415 210.209 157.242 210.157C157.069 210.096 156.882 210.066 156.683 210.066C156.293 210.066 155.994 210.174 155.785 210.391C155.577 210.607 155.473 210.928 155.473 211.353V212.393L155.499 212.823V219H154.576ZM153.354 212.94V212.172H157.58V212.94H153.354ZM161.496 219.065C160.837 219.065 160.243 218.918 159.714 218.623C159.194 218.319 158.782 217.908 158.479 217.387C158.175 216.859 158.023 216.256 158.023 215.58C158.023 214.895 158.175 214.292 158.479 213.772C158.782 213.252 159.194 212.844 159.714 212.55C160.234 212.255 160.828 212.107 161.496 212.107C162.172 212.107 162.77 212.255 163.29 212.55C163.819 212.844 164.231 213.252 164.526 213.772C164.829 214.292 164.981 214.895 164.981 215.58C164.981 216.256 164.829 216.859 164.526 217.387C164.231 217.908 163.819 218.319 163.29 218.623C162.761 218.918 162.163 219.065 161.496 219.065ZM161.496 218.246C161.99 218.246 162.428 218.137 162.809 217.921C163.191 217.695 163.49 217.383 163.707 216.984C163.932 216.577 164.045 216.109 164.045 215.58C164.045 215.042 163.932 214.574 163.707 214.175C163.49 213.776 163.191 213.469 162.809 213.252C162.428 213.026 161.994 212.914 161.509 212.914C161.023 212.914 160.59 213.026 160.208 213.252C159.827 213.469 159.523 213.776 159.298 214.175C159.072 214.574 158.96 215.042 158.96 215.58C158.96 216.109 159.072 216.577 159.298 216.984C159.523 217.383 159.827 217.695 160.208 217.921C160.59 218.137 161.019 218.246 161.496 218.246ZM166.866 219V212.172H167.75V214.032L167.659 213.707C167.85 213.187 168.171 212.792 168.622 212.524C169.073 212.246 169.632 212.107 170.299 212.107V213.005C170.265 213.005 170.23 213.005 170.195 213.005C170.161 212.996 170.126 212.992 170.091 212.992C169.372 212.992 168.808 213.213 168.401 213.655C167.993 214.088 167.789 214.708 167.789 215.515V219H166.866ZM175.656 219V211.496C175.656 210.82 175.852 210.282 176.242 209.884C176.64 209.476 177.204 209.272 177.932 209.272C178.201 209.272 178.457 209.307 178.7 209.376C178.951 209.437 179.163 209.537 179.337 209.675L178.96 210.625C178.83 210.521 178.682 210.443 178.518 210.391C178.353 210.33 178.179 210.3 177.997 210.3C177.633 210.3 177.356 210.404 177.165 210.612C176.974 210.811 176.879 211.11 176.879 211.509V212.432L176.905 213.005V219H175.656ZM174.486 213.135V212.107H178.882V213.135H174.486ZM182.959 219.078C182.37 219.078 181.849 218.97 181.399 218.753C180.956 218.536 180.61 218.207 180.358 217.765C180.115 217.314 179.994 216.75 179.994 216.074V212.107H181.243V215.931C181.243 216.607 181.403 217.114 181.724 217.452C182.053 217.791 182.513 217.96 183.102 217.96C183.536 217.96 183.913 217.873 184.234 217.7C184.555 217.517 184.802 217.257 184.975 216.919C185.148 216.572 185.235 216.156 185.235 215.671V212.107H186.484V219H185.3V217.14L185.495 217.634C185.27 218.094 184.932 218.449 184.481 218.701C184.03 218.952 183.523 219.078 182.959 219.078ZM188.86 219V209.35H190.109V219H188.86ZM192.493 219V209.35H193.741V219H192.493ZM37.9813 231.042C38.5362 231.042 39.026 231.151 39.4509 231.367C39.8757 231.584 40.2052 231.914 40.4392 232.356C40.682 232.798 40.8034 233.357 40.8034 234.033V238H39.5549V234.177C39.5549 233.509 39.3988 233.006 39.0867 232.668C38.7746 232.33 38.3368 232.161 37.7732 232.161C37.3571 232.161 36.9929 232.247 36.6808 232.421C36.3687 232.594 36.1259 232.85 35.9525 233.188C35.7878 233.526 35.7054 233.947 35.7054 234.45V238H34.457V234.177C34.457 233.509 34.3009 233.006 33.9888 232.668C33.6853 232.33 33.2475 232.161 32.6753 232.161C32.2678 232.161 31.908 232.247 31.5959 232.421C31.2837 232.594 31.041 232.85 30.8676 233.188C30.6942 233.526 30.6075 233.947 30.6075 234.45V238H29.359V231.107H30.5555V232.941L30.3604 232.473C30.5771 232.022 30.9109 231.671 31.3618 231.419C31.8126 231.168 32.3371 231.042 32.9354 231.042C33.5943 231.042 34.1622 231.207 34.639 231.537C35.1159 231.857 35.428 232.347 35.5754 233.006L35.0682 232.798C35.2763 232.269 35.6404 231.844 36.1606 231.524C36.6808 231.203 37.2877 231.042 37.9813 231.042ZM46.1698 238.078C45.4328 238.078 44.7826 237.926 44.219 237.623C43.6641 237.319 43.2306 236.903 42.9185 236.374C42.6151 235.846 42.4633 235.239 42.4633 234.554C42.4633 233.869 42.6107 233.262 42.9055 232.733C43.209 232.204 43.6208 231.792 44.141 231.498C44.6699 231.194 45.2637 231.042 45.9227 231.042C46.5903 231.042 47.1798 231.19 47.6913 231.485C48.2029 231.779 48.6017 232.195 48.8878 232.733C49.1826 233.262 49.33 233.882 49.33 234.593C49.33 234.645 49.3256 234.705 49.317 234.775C49.317 234.844 49.3126 234.909 49.304 234.97H43.4387V234.073H48.6537L48.1465 234.385C48.1552 233.942 48.0641 233.548 47.8734 233.201C47.6827 232.854 47.4182 232.586 47.0801 232.395C46.7506 232.195 46.3648 232.096 45.9227 232.096C45.4892 232.096 45.1033 232.195 44.7652 232.395C44.4271 232.586 44.1627 232.859 43.9719 233.214C43.7812 233.561 43.6858 233.96 43.6858 234.411V234.619C43.6858 235.078 43.7898 235.49 43.9979 235.854C44.2147 236.21 44.5138 236.487 44.8953 236.686C45.2767 236.886 45.7146 236.986 46.2088 236.986C46.6163 236.986 46.9847 236.916 47.3142 236.778C47.6523 236.639 47.9471 236.431 48.1985 236.153L48.8878 236.96C48.5757 237.324 48.1855 237.601 47.7173 237.792C47.2578 237.983 46.742 238.078 46.1698 238.078ZM55.1517 238V236.543L55.0867 236.27V233.786C55.0867 233.258 54.9306 232.85 54.6185 232.564C54.3151 232.269 53.8556 232.122 53.24 232.122C52.8325 232.122 52.4337 232.191 52.0435 232.33C51.6534 232.46 51.3239 232.638 51.0552 232.863L50.535 231.927C50.8904 231.641 51.3153 231.424 51.8094 231.276C52.3123 231.12 52.8368 231.042 53.383 231.042C54.3281 231.042 55.0563 231.272 55.5679 231.732C56.0794 232.191 56.3352 232.893 56.3352 233.838V238H55.1517ZM52.8889 238.078C52.3773 238.078 51.9265 237.991 51.5363 237.818C51.1549 237.645 50.8601 237.406 50.652 237.103C50.4439 236.791 50.3399 236.439 50.3399 236.049C50.3399 235.676 50.4266 235.338 50.6 235.035C50.782 234.731 51.0725 234.489 51.4713 234.307C51.8788 234.125 52.425 234.033 53.1099 234.033H55.2948V234.931H53.162C52.5377 234.931 52.1172 235.035 51.9005 235.243C51.6837 235.451 51.5754 235.702 51.5754 235.997C51.5754 236.335 51.7097 236.608 51.9785 236.817C52.2473 237.016 52.6201 237.116 53.0969 237.116C53.5651 237.116 53.9726 237.012 54.3194 236.804C54.6749 236.595 54.9306 236.292 55.0867 235.893L55.3338 236.752C55.1691 237.159 54.8786 237.484 54.4625 237.727C54.0463 237.961 53.5218 238.078 52.8889 238.078ZM58.6456 238V228.35H59.8941V238H58.6456ZM64.2546 238.078C63.6824 238.078 63.1362 238 62.616 237.844C62.1044 237.688 61.7013 237.497 61.4065 237.272L61.9267 236.283C62.2215 236.483 62.5856 236.652 63.0191 236.791C63.4526 236.929 63.8948 236.999 64.3456 236.999C64.9265 236.999 65.3427 236.916 65.5941 236.752C65.8542 236.587 65.9842 236.357 65.9842 236.062C65.9842 235.846 65.9062 235.676 65.7502 235.555C65.5941 235.434 65.386 235.343 65.1259 235.282C64.8745 235.221 64.5927 235.169 64.2806 235.126C63.9685 235.074 63.6564 235.013 63.3442 234.944C63.0321 234.866 62.746 234.762 62.4859 234.632C62.2258 234.493 62.0177 234.307 61.8617 234.073C61.7056 233.83 61.6276 233.509 61.6276 233.11C61.6276 232.694 61.7446 232.33 61.9787 232.018C62.2128 231.706 62.5423 231.467 62.9671 231.302C63.4006 231.129 63.9121 231.042 64.5017 231.042C64.9525 231.042 65.4077 231.099 65.8672 231.211C66.3354 231.315 66.7169 231.467 67.0116 231.667L66.4784 232.655C66.1663 232.447 65.8412 232.304 65.5031 232.226C65.1649 232.148 64.8268 232.109 64.4887 232.109C63.9425 232.109 63.535 232.2 63.2662 232.382C62.9974 232.555 62.8631 232.781 62.8631 233.058C62.8631 233.292 62.9411 233.474 63.0971 233.604C63.2619 233.726 63.4699 233.821 63.7214 233.89C63.9815 233.96 64.2676 234.02 64.5797 234.073C64.8918 234.116 65.2039 234.177 65.5161 234.255C65.8282 234.324 66.11 234.424 66.3614 234.554C66.6215 234.684 66.8296 234.866 66.9856 235.1C67.1504 235.334 67.2327 235.646 67.2327 236.036C67.2327 236.452 67.1113 236.812 66.8686 237.116C66.6258 237.419 66.2834 237.658 65.8412 237.831C65.399 237.996 64.8702 238.078 64.2546 238.078ZM68.2988 239.925L68.9491 237.298L69.1181 238.052C68.8667 238.052 68.6543 237.974 68.4809 237.818C68.3162 237.662 68.2338 237.449 68.2338 237.181C68.2338 236.921 68.3162 236.708 68.4809 236.543C68.6543 236.379 68.8624 236.296 69.1051 236.296C69.3566 236.296 69.5603 236.383 69.7164 236.556C69.8724 236.721 69.9505 236.929 69.9505 237.181C69.9505 237.267 69.9418 237.354 69.9244 237.441C69.9158 237.519 69.8941 237.614 69.8594 237.727C69.8334 237.831 69.7901 237.961 69.7294 238.117L69.1181 239.925H68.2988ZM78.8864 238.078C78.2968 238.078 77.7636 237.948 77.2868 237.688C76.8186 237.419 76.4458 237.025 76.1684 236.504C75.8996 235.984 75.7652 235.334 75.7652 234.554C75.7652 233.773 75.9039 233.123 76.1814 232.603C76.4675 232.083 76.8446 231.693 77.3128 231.432C77.7896 231.172 78.3142 231.042 78.8864 231.042C79.5626 231.042 80.1609 231.19 80.6811 231.485C81.2013 231.779 81.6131 232.191 81.9165 232.72C82.22 233.24 82.3717 233.851 82.3717 234.554C82.3717 235.256 82.22 235.872 81.9165 236.4C81.6131 236.929 81.2013 237.341 80.6811 237.636C80.1609 237.931 79.5626 238.078 78.8864 238.078ZM75.232 238V228.35H76.4805V232.941L76.3504 234.541L76.4285 236.14V238H75.232ZM78.7823 236.986C79.2245 236.986 79.619 236.886 79.9658 236.686C80.3213 236.487 80.5987 236.205 80.7981 235.841C81.0062 235.468 81.1102 235.039 81.1102 234.554C81.1102 234.059 81.0062 233.635 80.7981 233.279C80.5987 232.915 80.3213 232.633 79.9658 232.434C79.619 232.234 79.2245 232.135 78.7823 232.135C78.3489 232.135 77.9544 232.234 77.5989 232.434C77.2521 232.633 76.9747 232.915 76.7666 233.279C76.5672 233.635 76.4675 234.059 76.4675 234.554C76.4675 235.039 76.5672 235.468 76.7666 235.841C76.9747 236.205 77.2521 236.487 77.5989 236.686C77.9544 236.886 78.3489 236.986 78.7823 236.986ZM86.9968 238.078C86.4073 238.078 85.8871 237.97 85.4362 237.753C84.994 237.536 84.6472 237.207 84.3958 236.765C84.1531 236.314 84.0317 235.75 84.0317 235.074V231.107H85.2802V234.931C85.2802 235.607 85.4406 236.114 85.7613 236.452C86.0908 236.791 86.5503 236.96 87.1399 236.96C87.5734 236.96 87.9505 236.873 88.2713 236.7C88.5921 236.517 88.8392 236.257 89.0126 235.919C89.186 235.572 89.2727 235.156 89.2727 234.671V231.107H90.5212V238H89.3377V236.14L89.5328 236.634C89.3074 237.094 88.9692 237.449 88.5184 237.701C88.0676 237.952 87.5604 238.078 86.9968 238.078ZM92.8979 238V228.35H94.1464V238H92.8979ZM97.5445 236.335L97.5706 234.736L101.537 231.107H103.046L100.002 234.099L99.3262 234.671L97.5445 236.335ZM96.5302 238V228.35H97.7786V238H96.5302ZM101.797 238L99.0921 234.645L99.8984 233.643L103.332 238H101.797ZM110.013 238.078C109.441 238.078 108.895 238 108.375 237.844C107.863 237.688 107.46 237.497 107.165 237.272L107.685 236.283C107.98 236.483 108.344 236.652 108.778 236.791C109.211 236.929 109.653 236.999 110.104 236.999C110.685 236.999 111.101 236.916 111.353 236.752C111.613 236.587 111.743 236.357 111.743 236.062C111.743 235.846 111.665 235.676 111.509 235.555C111.353 235.434 111.145 235.343 110.885 235.282C110.633 235.221 110.351 235.169 110.039 235.126C109.727 235.074 109.415 235.013 109.103 234.944C108.791 234.866 108.505 234.762 108.245 234.632C107.984 234.493 107.776 234.307 107.62 234.073C107.464 233.83 107.386 233.509 107.386 233.11C107.386 232.694 107.503 232.33 107.737 232.018C107.971 231.706 108.301 231.467 108.726 231.302C109.159 231.129 109.671 231.042 110.26 231.042C110.711 231.042 111.166 231.099 111.626 231.211C112.094 231.315 112.476 231.467 112.77 231.667L112.237 232.655C111.925 232.447 111.6 232.304 111.262 232.226C110.924 232.148 110.585 232.109 110.247 232.109C109.701 232.109 109.294 232.2 109.025 232.382C108.756 232.555 108.622 232.781 108.622 233.058C108.622 233.292 108.7 233.474 108.856 233.604C109.021 233.726 109.229 233.821 109.48 233.89C109.74 233.96 110.026 234.02 110.338 234.073C110.651 234.116 110.963 234.177 111.275 234.255C111.587 234.324 111.869 234.424 112.12 234.554C112.38 234.684 112.588 234.866 112.744 235.1C112.909 235.334 112.991 235.646 112.991 236.036C112.991 236.452 112.87 236.812 112.627 237.116C112.385 237.419 112.042 237.658 111.6 237.831C111.158 237.996 110.629 238.078 110.013 238.078ZM116.919 238.078C116.225 238.078 115.687 237.892 115.306 237.519C114.925 237.146 114.734 236.613 114.734 235.919V229.599H115.982V235.867C115.982 236.24 116.073 236.526 116.255 236.726C116.446 236.925 116.715 237.025 117.062 237.025C117.452 237.025 117.777 236.916 118.037 236.7L118.427 237.597C118.236 237.762 118.007 237.883 117.738 237.961C117.478 238.039 117.205 238.078 116.919 238.078ZM113.563 232.135V231.107H117.959V232.135H113.563ZM122.66 238.078C121.966 238.078 121.351 237.926 120.813 237.623C120.276 237.319 119.851 236.903 119.539 236.374C119.227 235.837 119.071 235.23 119.071 234.554C119.071 233.869 119.227 233.262 119.539 232.733C119.851 232.204 120.276 231.792 120.813 231.498C121.351 231.194 121.966 231.042 122.66 231.042C123.345 231.042 123.956 231.194 124.494 231.498C125.04 231.792 125.465 232.204 125.768 232.733C126.08 233.253 126.236 233.86 126.236 234.554C126.236 235.239 126.08 235.846 125.768 236.374C125.465 236.903 125.04 237.319 124.494 237.623C123.956 237.926 123.345 238.078 122.66 238.078ZM122.66 236.986C123.102 236.986 123.497 236.886 123.844 236.686C124.199 236.487 124.476 236.205 124.676 235.841C124.875 235.468 124.975 235.039 124.975 234.554C124.975 234.059 124.875 233.635 124.676 233.279C124.476 232.915 124.199 232.633 123.844 232.434C123.497 232.234 123.102 232.135 122.66 232.135C122.218 232.135 121.823 232.234 121.477 232.434C121.13 232.633 120.852 232.915 120.644 233.279C120.436 233.635 120.332 234.059 120.332 234.554C120.332 235.039 120.436 235.468 120.644 235.841C120.852 236.205 121.13 236.487 121.477 236.686C121.823 236.886 122.218 236.986 122.66 236.986ZM127.963 238V231.107H129.16V232.98L129.042 232.512C129.233 232.035 129.554 231.671 130.005 231.419C130.456 231.168 131.011 231.042 131.669 231.042V232.252C131.617 232.243 131.565 232.239 131.513 232.239C131.47 232.239 131.427 232.239 131.383 232.239C130.716 232.239 130.187 232.438 129.797 232.837C129.407 233.236 129.212 233.812 129.212 234.567V238H127.963ZM136.979 238V236.543L136.914 236.27V233.786C136.914 233.258 136.758 232.85 136.446 232.564C136.142 232.269 135.683 232.122 135.067 232.122C134.66 232.122 134.261 232.191 133.871 232.33C133.481 232.46 133.151 232.638 132.882 232.863L132.362 231.927C132.718 231.641 133.142 231.424 133.637 231.276C134.139 231.12 134.664 231.042 135.21 231.042C136.155 231.042 136.883 231.272 137.395 231.732C137.907 232.191 138.162 232.893 138.162 233.838V238H136.979ZM134.716 238.078C134.204 238.078 133.754 237.991 133.363 237.818C132.982 237.645 132.687 237.406 132.479 237.103C132.271 236.791 132.167 236.439 132.167 236.049C132.167 235.676 132.254 235.338 132.427 235.035C132.609 234.731 132.9 234.489 133.298 234.307C133.706 234.125 134.252 234.033 134.937 234.033H137.122V234.931H134.989C134.365 234.931 133.944 235.035 133.728 235.243C133.511 235.451 133.402 235.702 133.402 235.997C133.402 236.335 133.537 236.608 133.806 236.817C134.074 237.016 134.447 237.116 134.924 237.116C135.392 237.116 135.8 237.012 136.147 236.804C136.502 236.595 136.758 236.292 136.914 235.893L137.161 236.752C136.996 237.159 136.706 237.484 136.29 237.727C135.873 237.961 135.349 238.078 134.716 238.078ZM143.49 240.601C142.857 240.601 142.241 240.51 141.643 240.328C141.054 240.154 140.572 239.903 140.2 239.574L140.798 238.611C141.119 238.889 141.513 239.105 141.981 239.261C142.449 239.426 142.939 239.509 143.451 239.509C144.266 239.509 144.864 239.318 145.246 238.936C145.627 238.555 145.818 237.974 145.818 237.194V235.737L145.948 234.372L145.883 232.993V231.107H147.066V237.064C147.066 238.277 146.763 239.17 146.156 239.743C145.549 240.315 144.66 240.601 143.49 240.601ZM143.334 237.714C142.666 237.714 142.068 237.575 141.539 237.298C141.019 237.012 140.603 236.617 140.291 236.114C139.987 235.611 139.835 235.031 139.835 234.372C139.835 233.704 139.987 233.123 140.291 232.629C140.603 232.126 141.019 231.736 141.539 231.459C142.068 231.181 142.666 231.042 143.334 231.042C143.923 231.042 144.461 231.164 144.946 231.406C145.432 231.641 145.818 232.005 146.104 232.499C146.399 232.993 146.546 233.617 146.546 234.372C146.546 235.117 146.399 235.737 146.104 236.231C145.818 236.726 145.432 237.098 144.946 237.35C144.461 237.593 143.923 237.714 143.334 237.714ZM143.477 236.621C143.936 236.621 144.344 236.526 144.699 236.335C145.055 236.145 145.332 235.88 145.532 235.542C145.74 235.204 145.844 234.814 145.844 234.372C145.844 233.929 145.74 233.539 145.532 233.201C145.332 232.863 145.055 232.603 144.699 232.421C144.344 232.23 143.936 232.135 143.477 232.135C143.017 232.135 142.606 232.23 142.241 232.421C141.886 232.603 141.604 232.863 141.396 233.201C141.197 233.539 141.097 233.929 141.097 234.372C141.097 234.814 141.197 235.204 141.396 235.542C141.604 235.88 141.886 236.145 142.241 236.335C142.606 236.526 143.017 236.621 143.477 236.621ZM152.521 238.078C151.784 238.078 151.134 237.926 150.57 237.623C150.015 237.319 149.582 236.903 149.27 236.374C148.966 235.846 148.814 235.239 148.814 234.554C148.814 233.869 148.962 233.262 149.257 232.733C149.56 232.204 149.972 231.792 150.492 231.498C151.021 231.194 151.615 231.042 152.274 231.042C152.941 231.042 153.531 231.19 154.042 231.485C154.554 231.779 154.953 232.195 155.239 232.733C155.534 233.262 155.681 233.882 155.681 234.593C155.681 234.645 155.677 234.705 155.668 234.775C155.668 234.844 155.664 234.909 155.655 234.97H149.79V234.073H155.005L154.498 234.385C154.506 233.942 154.415 233.548 154.225 233.201C154.034 232.854 153.769 232.586 153.431 232.395C153.102 232.195 152.716 232.096 152.274 232.096C151.84 232.096 151.454 232.195 151.116 232.395C150.778 232.586 150.514 232.859 150.323 233.214C150.132 233.561 150.037 233.96 150.037 234.411V234.619C150.037 235.078 150.141 235.49 150.349 235.854C150.566 236.21 150.865 236.487 151.246 236.686C151.628 236.886 152.066 236.986 152.56 236.986C152.967 236.986 153.336 236.916 153.665 236.778C154.003 236.639 154.298 236.431 154.55 236.153L155.239 236.96C154.927 237.324 154.537 237.601 154.068 237.792C153.609 237.983 153.093 238.078 152.521 238.078ZM156.921 239.925L157.571 237.298L157.74 238.052C157.488 238.052 157.276 237.974 157.103 237.818C156.938 237.662 156.856 237.449 156.856 237.181C156.856 236.921 156.938 236.708 157.103 236.543C157.276 236.379 157.484 236.296 157.727 236.296C157.978 236.296 158.182 236.383 158.338 236.556C158.494 236.721 158.572 236.929 158.572 237.181C158.572 237.267 158.564 237.354 158.546 237.441C158.538 237.519 158.516 237.614 158.481 237.727C158.455 237.831 158.412 237.961 158.351 238.117L157.74 239.925H156.921ZM168.236 238V236.491L168.197 236.244V233.721C168.197 233.14 168.033 232.694 167.703 232.382C167.382 232.07 166.901 231.914 166.26 231.914C165.817 231.914 165.397 231.987 164.998 232.135C164.599 232.282 164.261 232.477 163.984 232.72L163.568 232.031C163.914 231.736 164.331 231.511 164.816 231.354C165.302 231.19 165.813 231.107 166.351 231.107C167.235 231.107 167.916 231.328 168.392 231.771C168.878 232.204 169.121 232.867 169.121 233.76V238H168.236ZM165.882 238.065C165.371 238.065 164.924 237.983 164.543 237.818C164.17 237.645 163.884 237.41 163.685 237.116C163.485 236.812 163.386 236.465 163.386 236.075C163.386 235.72 163.468 235.399 163.633 235.113C163.806 234.818 164.083 234.584 164.465 234.411C164.855 234.229 165.375 234.138 166.026 234.138H168.379V234.827H166.052C165.393 234.827 164.933 234.944 164.673 235.178C164.422 235.412 164.296 235.702 164.296 236.049C164.296 236.439 164.448 236.752 164.751 236.986C165.055 237.22 165.479 237.337 166.026 237.337C166.546 237.337 166.992 237.22 167.365 236.986C167.747 236.743 168.024 236.396 168.197 235.945L168.405 236.582C168.232 237.033 167.929 237.393 167.495 237.662C167.07 237.931 166.533 238.065 165.882 238.065ZM175.114 231.107C175.669 231.107 176.154 231.216 176.571 231.432C176.995 231.641 177.325 231.961 177.559 232.395C177.802 232.828 177.923 233.375 177.923 234.033V238H177V234.125C177 233.405 176.818 232.863 176.453 232.499C176.098 232.126 175.595 231.94 174.945 231.94C174.459 231.94 174.035 232.039 173.67 232.239C173.315 232.43 173.038 232.711 172.838 233.084C172.647 233.448 172.552 233.89 172.552 234.411V238H171.629V231.172H172.513V233.045L172.37 232.694C172.587 232.2 172.933 231.814 173.41 231.537C173.887 231.25 174.455 231.107 175.114 231.107ZM183.135 238.065C182.485 238.065 181.9 237.918 181.38 237.623C180.868 237.328 180.465 236.921 180.17 236.4C179.875 235.872 179.728 235.265 179.728 234.58C179.728 233.886 179.875 233.279 180.17 232.759C180.465 232.239 180.868 231.836 181.38 231.55C181.9 231.255 182.485 231.107 183.135 231.107C183.733 231.107 184.267 231.242 184.735 231.511C185.212 231.779 185.589 232.174 185.866 232.694C186.152 233.206 186.295 233.834 186.295 234.58C186.295 235.317 186.157 235.945 185.879 236.465C185.602 236.986 185.225 237.384 184.748 237.662C184.28 237.931 183.742 238.065 183.135 238.065ZM183.2 237.246C183.686 237.246 184.119 237.137 184.501 236.921C184.891 236.695 185.194 236.383 185.411 235.984C185.636 235.577 185.749 235.109 185.749 234.58C185.749 234.042 185.636 233.574 185.411 233.175C185.194 232.776 184.891 232.469 184.501 232.252C184.119 232.026 183.686 231.914 183.2 231.914C182.723 231.914 182.294 232.026 181.913 232.252C181.531 232.469 181.228 232.776 181.002 233.175C180.777 233.574 180.664 234.042 180.664 234.58C180.664 235.109 180.777 235.577 181.002 235.984C181.228 236.383 181.531 236.695 181.913 236.921C182.294 237.137 182.723 237.246 183.2 237.246ZM185.775 238V235.945L185.866 234.567L185.736 233.188V228.35H186.66V238H185.775ZM21.1076 251.042C21.6712 251.042 22.1654 251.151 22.5902 251.367C23.0237 251.584 23.3618 251.914 23.6046 252.356C23.8473 252.798 23.9687 253.357 23.9687 254.033V258H22.7202V254.177C22.7202 253.509 22.5555 253.006 22.226 252.668C21.9053 252.33 21.4501 252.161 20.8605 252.161C20.4184 252.161 20.0325 252.247 19.7031 252.421C19.3736 252.594 19.1179 252.85 18.9358 253.188C18.7624 253.526 18.6757 253.947 18.6757 254.45V258H17.4272V248.35H18.6757V252.967L18.4286 252.473C18.654 252.022 19.0008 251.671 19.469 251.419C19.9372 251.168 20.4834 251.042 21.1076 251.042ZM29.3484 258.078C28.6114 258.078 27.9612 257.926 27.3977 257.623C26.8428 257.319 26.4093 256.903 26.0972 256.374C25.7937 255.846 25.642 255.239 25.642 254.554C25.642 253.869 25.7894 253.262 26.0841 252.733C26.3876 252.204 26.7994 251.792 27.3196 251.498C27.8485 251.194 28.4424 251.042 29.1013 251.042C29.7689 251.042 30.3584 251.19 30.87 251.485C31.3815 251.779 31.7803 252.195 32.0664 252.733C32.3612 253.262 32.5086 253.882 32.5086 254.593C32.5086 254.645 32.5043 254.705 32.4956 254.775C32.4956 254.844 32.4913 254.909 32.4826 254.97H26.6174V254.073H31.8323L31.3252 254.385C31.3338 253.942 31.2428 253.548 31.052 253.201C30.8613 252.854 30.5969 252.586 30.2587 252.395C29.9293 252.195 29.5435 252.096 29.1013 252.096C28.6678 252.096 28.282 252.195 27.9439 252.395C27.6057 252.586 27.3413 252.859 27.1506 253.214C26.9598 253.561 26.8644 253.96 26.8644 254.411V254.619C26.8644 255.078 26.9685 255.49 27.1766 255.854C27.3933 256.21 27.6924 256.487 28.0739 256.686C28.4554 256.886 28.8932 256.986 29.3874 256.986C29.7949 256.986 30.1634 256.916 30.4928 256.778C30.831 256.639 31.1257 256.431 31.3772 256.153L32.0664 256.96C31.7543 257.324 31.3642 257.601 30.896 257.792C30.4365 257.983 29.9206 258.078 29.3484 258.078ZM38.3304 258V256.543L38.2653 256.27V253.786C38.2653 253.258 38.1093 252.85 37.7972 252.564C37.4937 252.269 37.0342 252.122 36.4186 252.122C36.0111 252.122 35.6123 252.191 35.2222 252.33C34.832 252.46 34.5026 252.638 34.2338 252.863L33.7136 251.927C34.0691 251.641 34.4939 251.424 34.9881 251.276C35.4909 251.12 36.0155 251.042 36.5617 251.042C37.5067 251.042 38.235 251.272 38.7465 251.732C39.258 252.191 39.5138 252.893 39.5138 253.838V258H38.3304ZM36.0675 258.078C35.556 258.078 35.1051 257.991 34.715 257.818C34.3335 257.645 34.0387 257.406 33.8306 257.103C33.6226 256.791 33.5185 256.439 33.5185 256.049C33.5185 255.676 33.6052 255.338 33.7786 255.035C33.9607 254.731 34.2511 254.489 34.65 254.307C35.0574 254.125 35.6036 254.033 36.2886 254.033H38.4734V254.931H36.3406C35.7164 254.931 35.2959 255.035 35.0791 255.243C34.8624 255.451 34.754 255.702 34.754 255.997C34.754 256.335 34.8884 256.608 35.1571 256.817C35.4259 257.016 35.7987 257.116 36.2756 257.116C36.7438 257.116 37.1512 257.012 37.498 256.804C37.8535 256.595 38.1093 256.292 38.2653 255.893L38.5124 256.752C38.3477 257.159 38.0573 257.484 37.6411 257.727C37.2249 257.961 36.7004 258.078 36.0675 258.078ZM43.5049 258L40.4878 251.107H41.7883L44.4673 257.35H43.843L46.5741 251.107H47.7965L44.7794 258H43.5049ZM49.1592 260.601C48.8298 260.601 48.509 260.545 48.1969 260.432C47.8847 260.328 47.616 260.172 47.3905 259.964L47.9238 259.027C48.0972 259.192 48.2879 259.318 48.496 259.405C48.7041 259.491 48.9251 259.535 49.1592 259.535C49.4627 259.535 49.7141 259.457 49.9135 259.3C50.1129 259.144 50.2993 258.867 50.4727 258.468L50.9019 257.519L51.0319 257.363L53.737 251.107H54.9594L51.6172 258.689C51.4178 259.175 51.1923 259.556 50.9409 259.834C50.6981 260.111 50.4294 260.306 50.1346 260.419C49.8398 260.54 49.5147 260.601 49.1592 260.601ZM50.7979 258.221L47.6506 251.107H48.9511L51.6302 257.246L50.7979 258.221ZM55.5173 254.97V253.89H59.0157V254.97H55.5173ZM63.9131 258.078C63.2455 258.078 62.6472 257.931 62.1184 257.636C61.5982 257.341 61.1863 256.929 60.8829 256.4C60.5794 255.872 60.4277 255.256 60.4277 254.554C60.4277 253.851 60.5794 253.24 60.8829 252.72C61.1863 252.191 61.5982 251.779 62.1184 251.485C62.6472 251.19 63.2455 251.042 63.9131 251.042C64.4939 251.042 65.0185 251.172 65.4867 251.432C65.9548 251.693 66.3276 252.083 66.6051 252.603C66.8912 253.123 67.0342 253.773 67.0342 254.554C67.0342 255.334 66.8955 255.984 66.6181 256.504C66.3493 257.025 65.9808 257.419 65.5127 257.688C65.0445 257.948 64.5113 258.078 63.9131 258.078ZM64.0171 256.986C64.4506 256.986 64.8407 256.886 65.1875 256.686C65.543 256.487 65.8204 256.205 66.0199 255.841C66.2279 255.468 66.332 255.039 66.332 254.554C66.332 254.059 66.2279 253.635 66.0199 253.279C65.8204 252.915 65.543 252.633 65.1875 252.434C64.8407 252.234 64.4506 252.135 64.0171 252.135C63.5749 252.135 63.1804 252.234 62.8336 252.434C62.4868 252.633 62.2094 252.915 62.0013 253.279C61.7932 253.635 61.6892 254.059 61.6892 254.554C61.6892 255.039 61.7932 255.468 62.0013 255.841C62.2094 256.205 62.4868 256.487 62.8336 256.686C63.1804 256.886 63.5749 256.986 64.0171 256.986ZM66.371 258V256.14L66.449 254.541L66.319 252.941V248.35H67.5674V258H66.371ZM72.8298 258.078C72.2402 258.078 71.72 257.97 71.2692 257.753C70.827 257.536 70.4802 257.207 70.2288 256.765C69.986 256.314 69.8647 255.75 69.8647 255.074V251.107H71.1131V254.931C71.1131 255.607 71.2735 256.114 71.5943 256.452C71.9238 256.791 72.3833 256.96 72.9728 256.96C73.4063 256.96 73.7835 256.873 74.1043 256.7C74.4251 256.517 74.6722 256.257 74.8456 255.919C75.019 255.572 75.1057 255.156 75.1057 254.671V251.107H76.3541V258H75.1707V256.14L75.3658 256.634C75.1403 257.094 74.8022 257.449 74.3514 257.701C73.9005 257.952 73.3933 258.078 72.8298 258.078ZM81.0978 258.078C80.4042 258.078 79.8667 257.892 79.4852 257.519C79.1037 257.146 78.913 256.613 78.913 255.919V249.599H80.1614V255.867C80.1614 256.24 80.2525 256.526 80.4345 256.726C80.6253 256.925 80.894 257.025 81.2408 257.025C81.631 257.025 81.9561 256.916 82.2162 256.7L82.6064 257.597C82.4156 257.762 82.1859 257.883 81.9171 257.961C81.657 258.039 81.3839 258.078 81.0978 258.078ZM77.7425 252.135V251.107H82.1382V252.135H77.7425ZM84.2879 260.601C83.9584 260.601 83.6376 260.545 83.3255 260.432C83.0134 260.328 82.7446 260.172 82.5192 259.964L83.0524 259.027C83.2258 259.192 83.4165 259.318 83.6246 259.405C83.8327 259.491 84.0538 259.535 84.2879 259.535C84.5913 259.535 84.8428 259.457 85.0422 259.3C85.2416 259.144 85.428 258.867 85.6014 258.468L86.0305 257.519L86.1606 257.363L88.8656 251.107H90.0881L86.7458 258.689C86.5464 259.175 86.321 259.556 86.0696 259.834C85.8268 260.111 85.558 260.306 85.2632 260.419C84.9685 260.54 84.6433 260.601 84.2879 260.601ZM85.9265 258.221L82.7793 251.107H84.0798L86.7588 257.246L85.9265 258.221ZM94.9279 258V250.496C94.9279 249.82 95.1229 249.282 95.5131 248.884C95.9119 248.476 96.4755 248.272 97.2037 248.272C97.4725 248.272 97.7283 248.307 97.971 248.376C98.2225 248.437 98.4349 248.537 98.6083 248.675L98.2311 249.625C98.1011 249.521 97.9537 249.443 97.789 249.391C97.6242 249.33 97.4508 249.3 97.2688 249.3C96.9046 249.3 96.6272 249.404 96.4364 249.612C96.2457 249.811 96.1503 250.11 96.1503 250.509V251.432L96.1763 252.005V258H94.9279ZM93.7574 252.135V251.107H98.1531V252.135H93.7574ZM102.181 258.078C101.487 258.078 100.872 257.926 100.334 257.623C99.7968 257.319 99.372 256.903 99.0599 256.374C98.7478 255.837 98.5917 255.23 98.5917 254.554C98.5917 253.869 98.7478 253.262 99.0599 252.733C99.372 252.204 99.7968 251.792 100.334 251.498C100.872 251.194 101.487 251.042 102.181 251.042C102.866 251.042 103.477 251.194 104.015 251.498C104.561 251.792 104.986 252.204 105.289 252.733C105.601 253.253 105.757 253.86 105.757 254.554C105.757 255.239 105.601 255.846 105.289 256.374C104.986 256.903 104.561 257.319 104.015 257.623C103.477 257.926 102.866 258.078 102.181 258.078ZM102.181 256.986C102.623 256.986 103.018 256.886 103.365 256.686C103.72 256.487 103.997 256.205 104.197 255.841C104.396 255.468 104.496 255.039 104.496 254.554C104.496 254.059 104.396 253.635 104.197 253.279C103.997 252.915 103.72 252.633 103.365 252.434C103.018 252.234 102.623 252.135 102.181 252.135C101.739 252.135 101.344 252.234 100.998 252.434C100.651 252.633 100.373 252.915 100.165 253.279C99.9572 253.635 99.8532 254.059 99.8532 254.554C99.8532 255.039 99.9572 255.468 100.165 255.841C100.373 256.205 100.651 256.487 100.998 256.686C101.344 256.886 101.739 256.986 102.181 256.986ZM110.436 258.078C109.743 258.078 109.127 257.926 108.589 257.623C108.052 257.319 107.627 256.903 107.315 256.374C107.003 255.837 106.847 255.23 106.847 254.554C106.847 253.869 107.003 253.262 107.315 252.733C107.627 252.204 108.052 251.792 108.589 251.498C109.127 251.194 109.743 251.042 110.436 251.042C111.121 251.042 111.732 251.194 112.27 251.498C112.816 251.792 113.241 252.204 113.544 252.733C113.856 253.253 114.013 253.86 114.013 254.554C114.013 255.239 113.856 255.846 113.544 256.374C113.241 256.903 112.816 257.319 112.27 257.623C111.732 257.926 111.121 258.078 110.436 258.078ZM110.436 256.986C110.878 256.986 111.273 256.886 111.62 256.686C111.975 256.487 112.253 256.205 112.452 255.841C112.651 255.468 112.751 255.039 112.751 254.554C112.751 254.059 112.651 253.635 112.452 253.279C112.253 252.915 111.975 252.633 111.62 252.434C111.273 252.234 110.878 252.135 110.436 252.135C109.994 252.135 109.6 252.234 109.253 252.434C108.906 252.633 108.628 252.915 108.42 253.279C108.212 253.635 108.108 254.059 108.108 254.554C108.108 255.039 108.212 255.468 108.42 255.841C108.628 256.205 108.906 256.487 109.253 256.686C109.6 256.886 109.994 256.986 110.436 256.986ZM118.587 258.078C117.92 258.078 117.321 257.931 116.793 257.636C116.272 257.341 115.861 256.929 115.557 256.4C115.254 255.872 115.102 255.256 115.102 254.554C115.102 253.851 115.254 253.24 115.557 252.72C115.861 252.191 116.272 251.779 116.793 251.485C117.321 251.19 117.92 251.042 118.587 251.042C119.168 251.042 119.693 251.172 120.161 251.432C120.629 251.693 121.002 252.083 121.279 252.603C121.565 253.123 121.708 253.773 121.708 254.554C121.708 255.334 121.57 255.984 121.292 256.504C121.024 257.025 120.655 257.419 120.187 257.688C119.719 257.948 119.185 258.078 118.587 258.078ZM118.691 256.986C119.125 256.986 119.515 256.886 119.862 256.686C120.217 256.487 120.495 256.205 120.694 255.841C120.902 255.468 121.006 255.039 121.006 254.554C121.006 254.059 120.902 253.635 120.694 253.279C120.495 252.915 120.217 252.633 119.862 252.434C119.515 252.234 119.125 252.135 118.691 252.135C118.249 252.135 117.855 252.234 117.508 252.434C117.161 252.633 116.884 252.915 116.676 253.279C116.467 253.635 116.363 254.059 116.363 254.554C116.363 255.039 116.467 255.468 116.676 255.841C116.884 256.205 117.161 256.487 117.508 256.686C117.855 256.886 118.249 256.986 118.691 256.986ZM121.045 258V256.14L121.123 254.541L120.993 252.941V248.35H122.242V258H121.045ZM131.751 258.078C131.179 258.078 130.654 257.948 130.177 257.688C129.709 257.419 129.332 257.025 129.046 256.504C128.768 255.984 128.63 255.334 128.63 254.554C128.63 253.773 128.764 253.123 129.033 252.603C129.31 252.083 129.683 251.693 130.151 251.432C130.628 251.172 131.161 251.042 131.751 251.042C132.427 251.042 133.025 251.19 133.545 251.485C134.066 251.779 134.478 252.191 134.781 252.72C135.084 253.24 135.236 253.851 135.236 254.554C135.236 255.256 135.084 255.872 134.781 256.4C134.478 256.929 134.066 257.341 133.545 257.636C133.025 257.931 132.427 258.078 131.751 258.078ZM128.096 260.523V251.107H129.293V252.967L129.215 254.567L129.345 256.166V260.523H128.096ZM131.647 256.986C132.089 256.986 132.483 256.886 132.83 256.686C133.186 256.487 133.463 256.205 133.663 255.841C133.871 255.468 133.975 255.039 133.975 254.554C133.975 254.059 133.871 253.635 133.663 253.279C133.463 252.915 133.186 252.633 132.83 252.434C132.483 252.234 132.089 252.135 131.647 252.135C131.213 252.135 130.819 252.234 130.463 252.434C130.117 252.633 129.839 252.915 129.631 253.279C129.432 253.635 129.332 254.059 129.332 254.554C129.332 255.039 129.432 255.468 129.631 255.841C129.839 256.205 130.117 256.487 130.463 256.686C130.819 256.886 131.213 256.986 131.647 256.986ZM141.176 258V256.543L141.111 256.27V253.786C141.111 253.258 140.955 252.85 140.643 252.564C140.34 252.269 139.88 252.122 139.265 252.122C138.857 252.122 138.458 252.191 138.068 252.33C137.678 252.46 137.348 252.638 137.08 252.863L136.559 251.927C136.915 251.641 137.34 251.424 137.834 251.276C138.337 251.12 138.861 251.042 139.408 251.042C140.353 251.042 141.081 251.272 141.592 251.732C142.104 252.191 142.36 252.893 142.36 253.838V258H141.176ZM138.913 258.078C138.402 258.078 137.951 257.991 137.561 257.818C137.179 257.645 136.885 257.406 136.677 257.103C136.468 256.791 136.364 256.439 136.364 256.049C136.364 255.676 136.451 255.338 136.625 255.035C136.807 254.731 137.097 254.489 137.496 254.307C137.903 254.125 138.45 254.033 139.134 254.033H141.319V254.931H139.186C138.562 254.931 138.142 255.035 137.925 255.243C137.708 255.451 137.6 255.702 137.6 255.997C137.6 256.335 137.734 256.608 138.003 256.817C138.272 257.016 138.645 257.116 139.121 257.116C139.59 257.116 139.997 257.012 140.344 256.804C140.699 256.595 140.955 256.292 141.111 255.893L141.358 256.752C141.194 257.159 140.903 257.484 140.487 257.727C140.071 257.961 139.546 258.078 138.913 258.078ZM147.674 258.078C146.972 258.078 146.343 257.926 145.789 257.623C145.242 257.319 144.813 256.903 144.501 256.374C144.189 255.846 144.033 255.239 144.033 254.554C144.033 253.869 144.189 253.262 144.501 252.733C144.813 252.204 145.242 251.792 145.789 251.498C146.343 251.194 146.972 251.042 147.674 251.042C148.299 251.042 148.853 251.168 149.339 251.419C149.833 251.662 150.215 252.026 150.483 252.512L149.534 253.123C149.309 252.785 149.031 252.538 148.702 252.382C148.381 252.217 148.034 252.135 147.661 252.135C147.21 252.135 146.807 252.234 146.452 252.434C146.096 252.633 145.815 252.915 145.606 253.279C145.398 253.635 145.294 254.059 145.294 254.554C145.294 255.048 145.398 255.477 145.606 255.841C145.815 256.205 146.096 256.487 146.452 256.686C146.807 256.886 147.21 256.986 147.661 256.986C148.034 256.986 148.381 256.908 148.702 256.752C149.031 256.587 149.309 256.335 149.534 255.997L150.483 256.595C150.215 257.072 149.833 257.441 149.339 257.701C148.853 257.952 148.299 258.078 147.674 258.078ZM153.025 256.335L153.051 254.736L157.018 251.107H158.526L155.483 254.099L154.807 254.671L153.025 256.335ZM152.011 258V248.35H153.259V258H152.011ZM157.278 258L154.573 254.645L155.379 253.643L158.812 258H157.278ZM164.176 258V256.543L164.111 256.27V253.786C164.111 253.258 163.955 252.85 163.643 252.564C163.34 252.269 162.88 252.122 162.265 252.122C161.857 252.122 161.458 252.191 161.068 252.33C160.678 252.46 160.348 252.638 160.08 252.863L159.559 251.927C159.915 251.641 160.34 251.424 160.834 251.276C161.337 251.12 161.861 251.042 162.408 251.042C163.353 251.042 164.081 251.272 164.592 251.732C165.104 252.191 165.36 252.893 165.36 253.838V258H164.176ZM161.913 258.078C161.402 258.078 160.951 257.991 160.561 257.818C160.179 257.645 159.885 257.406 159.677 257.103C159.468 256.791 159.364 256.439 159.364 256.049C159.364 255.676 159.451 255.338 159.625 255.035C159.807 254.731 160.097 254.489 160.496 254.307C160.903 254.125 161.45 254.033 162.134 254.033H164.319V254.931H162.186C161.562 254.931 161.142 255.035 160.925 255.243C160.708 255.451 160.6 255.702 160.6 255.997C160.6 256.335 160.734 256.608 161.003 256.817C161.272 257.016 161.645 257.116 162.121 257.116C162.59 257.116 162.997 257.012 163.344 256.804C163.699 256.595 163.955 256.292 164.111 255.893L164.358 256.752C164.194 257.159 163.903 257.484 163.487 257.727C163.071 257.961 162.546 258.078 161.913 258.078ZM170.687 260.601C170.054 260.601 169.439 260.51 168.841 260.328C168.251 260.154 167.77 259.903 167.397 259.574L167.995 258.611C168.316 258.889 168.711 259.105 169.179 259.261C169.647 259.426 170.137 259.509 170.648 259.509C171.463 259.509 172.061 259.318 172.443 258.936C172.824 258.555 173.015 257.974 173.015 257.194V255.737L173.145 254.372L173.08 252.993V251.107H174.264V257.064C174.264 258.277 173.96 259.17 173.353 259.743C172.746 260.315 171.858 260.601 170.687 260.601ZM170.531 257.714C169.864 257.714 169.265 257.575 168.737 257.298C168.216 257.012 167.8 256.617 167.488 256.114C167.185 255.611 167.033 255.031 167.033 254.372C167.033 253.704 167.185 253.123 167.488 252.629C167.8 252.126 168.216 251.736 168.737 251.459C169.265 251.181 169.864 251.042 170.531 251.042C171.121 251.042 171.658 251.164 172.144 251.406C172.629 251.641 173.015 252.005 173.301 252.499C173.596 252.993 173.743 253.617 173.743 254.372C173.743 255.117 173.596 255.737 173.301 256.231C173.015 256.726 172.629 257.098 172.144 257.35C171.658 257.593 171.121 257.714 170.531 257.714ZM170.674 256.621C171.134 256.621 171.541 256.526 171.897 256.335C172.252 256.145 172.53 255.88 172.729 255.542C172.937 255.204 173.041 254.814 173.041 254.372C173.041 253.929 172.937 253.539 172.729 253.201C172.53 252.863 172.252 252.603 171.897 252.421C171.541 252.23 171.134 252.135 170.674 252.135C170.215 252.135 169.803 252.23 169.439 252.421C169.083 252.603 168.802 252.863 168.593 253.201C168.394 253.539 168.294 253.929 168.294 254.372C168.294 254.814 168.394 255.204 168.593 255.542C168.802 255.88 169.083 256.145 169.439 256.335C169.803 256.526 170.215 256.621 170.674 256.621ZM176.649 258V251.107H177.898V258H176.649ZM177.273 249.781C177.031 249.781 176.827 249.703 176.662 249.547C176.506 249.391 176.428 249.2 176.428 248.975C176.428 248.74 176.506 248.545 176.662 248.389C176.827 248.233 177.031 248.155 177.273 248.155C177.516 248.155 177.716 248.233 177.872 248.389C178.036 248.537 178.119 248.723 178.119 248.949C178.119 249.183 178.041 249.382 177.885 249.547C177.729 249.703 177.525 249.781 177.273 249.781ZM183.962 251.042C184.525 251.042 185.02 251.151 185.444 251.367C185.878 251.584 186.216 251.914 186.459 252.356C186.702 252.798 186.823 253.357 186.823 254.033V258H185.574V254.177C185.574 253.509 185.41 253.006 185.08 252.668C184.759 252.33 184.304 252.161 183.715 252.161C183.273 252.161 182.887 252.247 182.557 252.421C182.228 252.594 181.972 252.85 181.79 253.188C181.617 253.526 181.53 253.947 181.53 254.45V258H180.281V251.107H181.478V252.967L181.283 252.473C181.508 252.022 181.855 251.671 182.323 251.419C182.791 251.168 183.338 251.042 183.962 251.042ZM192.151 260.601C191.518 260.601 190.902 260.51 190.304 260.328C189.714 260.154 189.233 259.903 188.86 259.574L189.459 258.611C189.779 258.889 190.174 259.105 190.642 259.261C191.11 259.426 191.6 259.509 192.112 259.509C192.927 259.509 193.525 259.318 193.906 258.936C194.288 258.555 194.478 257.974 194.478 257.194V255.737L194.608 254.372L194.543 252.993V251.107H195.727V257.064C195.727 258.277 195.423 259.17 194.817 259.743C194.21 260.315 193.321 260.601 192.151 260.601ZM191.994 257.714C191.327 257.714 190.729 257.575 190.2 257.298C189.68 257.012 189.263 256.617 188.951 256.114C188.648 255.611 188.496 255.031 188.496 254.372C188.496 253.704 188.648 253.123 188.951 252.629C189.263 252.126 189.68 251.736 190.2 251.459C190.729 251.181 191.327 251.042 191.994 251.042C192.584 251.042 193.122 251.164 193.607 251.406C194.093 251.641 194.478 252.005 194.765 252.499C195.059 252.993 195.207 253.617 195.207 254.372C195.207 255.117 195.059 255.737 194.765 256.231C194.478 256.726 194.093 257.098 193.607 257.35C193.122 257.593 192.584 257.714 191.994 257.714ZM192.138 256.621C192.597 256.621 193.005 256.526 193.36 256.335C193.715 256.145 193.993 255.88 194.192 255.542C194.4 255.204 194.504 254.814 194.504 254.372C194.504 253.929 194.4 253.539 194.192 253.201C193.993 252.863 193.715 252.603 193.36 252.421C193.005 252.23 192.597 252.135 192.138 252.135C191.678 252.135 191.266 252.23 190.902 252.421C190.547 252.603 190.265 252.863 190.057 253.201C189.857 253.539 189.758 253.929 189.758 254.372C189.758 254.814 189.857 255.204 190.057 255.542C190.265 255.88 190.547 256.145 190.902 256.335C191.266 256.526 191.678 256.621 192.138 256.621ZM198.412 258.078C198.169 258.078 197.961 257.996 197.787 257.831C197.614 257.658 197.527 257.441 197.527 257.181C197.527 256.921 197.614 256.708 197.787 256.543C197.961 256.379 198.169 256.296 198.412 256.296C198.646 256.296 198.845 256.379 199.01 256.543C199.183 256.708 199.27 256.921 199.27 257.181C199.27 257.441 199.183 257.658 199.01 257.831C198.845 257.996 198.646 258.078 198.412 258.078Z" fill="black"/>
<defs>
<filter id="filter0_d_2198_1105" x="-0.000117779" y="0" width="215.799" height="306.112" filterUnits="userSpaceOnUse" color-interpolation-filters="sRGB">
<feFlood flood-opacity="0" result="BackgroundImageFix"/>
<feColorMatrix in="SourceAlpha" type="matrix" values="0 0 0 0 0 0 0 0 0 0 0 0 0 0 0 0 0 0 127 0" result="hardAlpha"/>
<feOffset dy="4.30578"/>
<feGaussianBlur stdDeviation="2.15289"/>
<feComposite in2="hardAlpha" operator="out"/>
<feColorMatrix type="matrix" values="0 0 0 0 0 0 0 0 0 0 0 0 0 0 0 0 0 0 0.25 0"/>
<feBlend mode="normal" in2="BackgroundImageFix" result="effect1_dropShadow_2198_1105"/>
<feBlend mode="normal" in="SourceGraphic" in2="effect1_dropShadow_2198_1105" result="shape"/>
</filter>
<linearGradient id="paint0_linear_2198_1105" x1="108.253" y1="165.096" x2="108.253" y2="12.2412" gradientUnits="userSpaceOnUse">
<stop offset="0.906845" stop-color="#EFEFEF"/>
</linearGradient>
<linearGradient id="paint1_linear_2198_1105" x1="108.253" y1="286.735" x2="108.253" y2="297.5" gradientUnits="userSpaceOnUse">
<stop offset="0.365385" stop-color="#D09E3A"/>
<stop offset="1" stop-color="white"/>
</linearGradient>
</defs>
</svg>
