<svg width="79" height="11" viewBox="0 0 79 11" fill="none" xmlns="http://www.w3.org/2000/svg">
<path d="M4.19815 10.5562C3.39548 10.5562 2.67682 10.3602 2.04215 9.96818C1.40748 9.56685 0.908149 8.98818 0.544148 8.23218C0.180148 7.47618 -0.00185155 6.56152 -0.00185155 5.48818C-0.00185155 4.41485 0.180148 3.50018 0.544148 2.74418C0.908149 1.98818 1.40748 1.41418 2.04215 1.02218C2.67682 0.62085 3.39548 0.420183 4.19815 0.420183C5.01015 0.420183 5.72882 0.62085 6.35415 1.02218C6.98882 1.41418 7.48815 1.98818 7.85215 2.74418C8.21615 3.50018 8.39815 4.41485 8.39815 5.48818C8.39815 6.56152 8.21615 7.47618 7.85215 8.23218C7.48815 8.98818 6.98882 9.56685 6.35415 9.96818C5.72882 10.3602 5.01015 10.5562 4.19815 10.5562ZM4.19815 8.63818C4.58082 8.63818 4.91215 8.53085 5.19215 8.31618C5.48148 8.10152 5.70548 7.76085 5.86415 7.29418C6.03215 6.82752 6.11615 6.22552 6.11615 5.48818C6.11615 4.75085 6.03215 4.14885 5.86415 3.68218C5.70548 3.21552 5.48148 2.87485 5.19215 2.66018C4.91215 2.44552 4.58082 2.33818 4.19815 2.33818C3.82482 2.33818 3.49348 2.44552 3.20415 2.66018C2.92415 2.87485 2.70015 3.21552 2.53215 3.68218C2.37348 4.14885 2.29415 4.75085 2.29415 5.48818C2.29415 6.22552 2.37348 6.82752 2.53215 7.29418C2.70015 7.76085 2.92415 8.10152 3.20415 8.31618C3.49348 8.53085 3.82482 8.63818 4.19815 8.63818ZM12.8321 10.5562C12.1508 10.5562 11.4741 10.4675 10.8021 10.2902C10.1394 10.1035 9.5701 9.84218 9.0941 9.50618L9.9901 7.77018C10.3634 8.04085 10.7928 8.25552 11.2781 8.41418C11.7728 8.57285 12.2721 8.65218 12.7761 8.65218C13.3454 8.65218 13.7934 8.54018 14.1201 8.31618C14.4468 8.09218 14.6101 7.77952 14.6101 7.37818C14.6101 7.12618 14.5448 6.90218 14.4141 6.70618C14.2834 6.51018 14.0501 6.36085 13.7141 6.25818C13.3874 6.15552 12.9254 6.10418 12.3281 6.10418H9.8221L10.3261 0.588183H16.3041V2.40818L11.1381 2.40818L12.3141 1.37218L11.9641 5.30618L10.7881 4.27018H12.8601C13.8308 4.27018 14.6101 4.40552 15.1981 4.67618C15.7954 4.93752 16.2294 5.29685 16.5001 5.75418C16.7708 6.21152 16.9061 6.72952 16.9061 7.30818C16.9061 7.88685 16.7614 8.42352 16.4721 8.91818C16.1828 9.40352 15.7348 9.80018 15.1281 10.1082C14.5308 10.4069 13.7654 10.5562 12.8321 10.5562ZM18.0083 7.32218V5.57218H21.9703V7.32218H18.0083ZM24.4379 10.3882V1.42818L25.4179 2.40818H22.4779V0.588183L26.7059 0.588183V10.3882H24.4379ZM32.6083 10.5562C31.8056 10.5562 31.087 10.3602 30.4523 9.96818C29.8176 9.56685 29.3183 8.98818 28.9543 8.23218C28.5903 7.47618 28.4083 6.56152 28.4083 5.48818C28.4083 4.41485 28.5903 3.50018 28.9543 2.74418C29.3183 1.98818 29.8176 1.41418 30.4523 1.02218C31.087 0.62085 31.8056 0.420183 32.6083 0.420183C33.4203 0.420183 34.139 0.62085 34.7643 1.02218C35.399 1.41418 35.8983 1.98818 36.2623 2.74418C36.6263 3.50018 36.8083 4.41485 36.8083 5.48818C36.8083 6.56152 36.6263 7.47618 36.2623 8.23218C35.8983 8.98818 35.399 9.56685 34.7643 9.96818C34.139 10.3602 33.4203 10.5562 32.6083 10.5562ZM32.6083 8.63818C32.991 8.63818 33.3223 8.53085 33.6023 8.31618C33.8916 8.10152 34.1156 7.76085 34.2743 7.29418C34.4423 6.82752 34.5263 6.22552 34.5263 5.48818C34.5263 4.75085 34.4423 4.14885 34.2743 3.68218C34.1156 3.21552 33.8916 2.87485 33.6023 2.66018C33.3223 2.44552 32.991 2.33818 32.6083 2.33818C32.235 2.33818 31.9036 2.44552 31.6143 2.66018C31.3343 2.87485 31.1103 3.21552 30.9423 3.68218C30.7836 4.14885 30.7043 4.75085 30.7043 5.48818C30.7043 6.22552 30.7836 6.82752 30.9423 7.29418C31.1103 7.76085 31.3343 8.10152 31.6143 8.31618C31.9036 8.53085 32.235 8.63818 32.6083 8.63818ZM42.1103 10.5562C41.3076 10.5562 40.5889 10.3602 39.9543 9.96818C39.3196 9.56685 38.8203 8.98818 38.4563 8.23218C38.0923 7.47618 37.9103 6.56152 37.9103 5.48818C37.9103 4.41485 38.0923 3.50018 38.4563 2.74418C38.8203 1.98818 39.3196 1.41418 39.9543 1.02218C40.5889 0.62085 41.3076 0.420183 42.1103 0.420183C42.9223 0.420183 43.6409 0.62085 44.2663 1.02218C44.9009 1.41418 45.4003 1.98818 45.7643 2.74418C46.1283 3.50018 46.3103 4.41485 46.3103 5.48818C46.3103 6.56152 46.1283 7.47618 45.7643 8.23218C45.4003 8.98818 44.9009 9.56685 44.2663 9.96818C43.6409 10.3602 42.9223 10.5562 42.1103 10.5562ZM42.1103 8.63818C42.4929 8.63818 42.8243 8.53085 43.1043 8.31618C43.3936 8.10152 43.6176 7.76085 43.7763 7.29418C43.9443 6.82752 44.0283 6.22552 44.0283 5.48818C44.0283 4.75085 43.9443 4.14885 43.7763 3.68218C43.6176 3.21552 43.3936 2.87485 43.1043 2.66018C42.8243 2.44552 42.4929 2.33818 42.1103 2.33818C41.7369 2.33818 41.4056 2.44552 41.1163 2.66018C40.8363 2.87485 40.6123 3.21552 40.4443 3.68218C40.2856 4.14885 40.2063 4.75085 40.2063 5.48818C40.2063 6.22552 40.2856 6.82752 40.4443 7.29418C40.6123 7.76085 40.8363 8.10152 41.1163 8.31618C41.4056 8.53085 41.7369 8.63818 42.1103 8.63818ZM51.6122 10.5562C50.8095 10.5562 50.0909 10.3602 49.4562 9.96818C48.8215 9.56685 48.3222 8.98818 47.9582 8.23218C47.5942 7.47618 47.4122 6.56152 47.4122 5.48818C47.4122 4.41485 47.5942 3.50018 47.9582 2.74418C48.3222 1.98818 48.8215 1.41418 49.4562 1.02218C50.0909 0.62085 50.8095 0.420183 51.6122 0.420183C52.4242 0.420183 53.1429 0.62085 53.7682 1.02218C54.4029 1.41418 54.9022 1.98818 55.2662 2.74418C55.6302 3.50018 55.8122 4.41485 55.8122 5.48818C55.8122 6.56152 55.6302 7.47618 55.2662 8.23218C54.9022 8.98818 54.4029 9.56685 53.7682 9.96818C53.1429 10.3602 52.4242 10.5562 51.6122 10.5562ZM51.6122 8.63818C51.9949 8.63818 52.3262 8.53085 52.6062 8.31618C52.8955 8.10152 53.1195 7.76085 53.2782 7.29418C53.4462 6.82752 53.5302 6.22552 53.5302 5.48818C53.5302 4.75085 53.4462 4.14885 53.2782 3.68218C53.1195 3.21552 52.8955 2.87485 52.6062 2.66018C52.3262 2.44552 51.9949 2.33818 51.6122 2.33818C51.2389 2.33818 50.9075 2.44552 50.6182 2.66018C50.3382 2.87485 50.1142 3.21552 49.9462 3.68218C49.7875 4.14885 49.7082 4.75085 49.7082 5.48818C49.7082 6.22552 49.7875 6.82752 49.9462 7.29418C50.1142 7.76085 50.3382 8.10152 50.6182 8.31618C50.9075 8.53085 51.2389 8.63818 51.6122 8.63818ZM70.987 2.74418C71.5843 2.74418 72.1117 2.86552 72.569 3.10818C73.0357 3.34152 73.3997 3.70552 73.661 4.20018C73.9317 4.68552 74.067 5.31085 74.067 6.07618V10.3882H71.883V6.41218C71.883 5.80552 71.757 5.35752 71.505 5.06818C71.253 4.77885 70.8983 4.63418 70.441 4.63418C70.1237 4.63418 69.839 4.70885 69.587 4.85818C69.335 4.99818 69.139 5.21285 68.999 5.50218C68.859 5.79152 68.789 6.16018 68.789 6.60818V10.3882H66.605V6.41218C66.605 5.80552 66.479 5.35752 66.227 5.06818C65.9843 4.77885 65.6343 4.63418 65.177 4.63418C64.8597 4.63418 64.575 4.70885 64.323 4.85818C64.071 4.99818 63.875 5.21285 63.735 5.50218C63.595 5.79152 63.525 6.16018 63.525 6.60818V10.3882H61.341V2.85618H63.427V4.91418L63.035 4.31218C63.2963 3.79885 63.665 3.41152 64.141 3.15018C64.6263 2.87952 65.177 2.74418 65.793 2.74418C66.4837 2.74418 67.0857 2.92152 67.599 3.27618C68.1217 3.62152 68.467 4.15352 68.635 4.87218L67.865 4.66218C68.117 4.07418 68.5183 3.60752 69.069 3.26218C69.629 2.91685 70.2683 2.74418 70.987 2.74418ZM76.0246 10.3882V0.000182986H78.2086V10.3882H76.0246Z" fill="#F6F4F3"/>
</svg>
