<svg width="313" height="18" viewBox="0 0 313 18" fill="none" xmlns="http://www.w3.org/2000/svg">
<path d="M-0.000187397 17.0879V0.287889H3.88781V17.0879H-0.000187397ZM7.87481 17.0879V0.287889H11.0908L18.2428 12.1439H16.5388L23.5708 0.287889H26.7628L26.8108 17.0879H23.1628L23.1388 5.87989H23.8108L18.1948 15.3119H16.4428L10.7068 5.87989H11.5228V17.0879H7.87481ZM30.7967 17.0879V0.287889H34.6847V13.9199H43.1087V17.0879H30.7967ZM52.0779 17.0879V0.287889H60.2859C62.3979 0.287889 63.9819 0.68789 65.0379 1.48789C66.1099 2.28789 66.6459 3.34389 66.6459 4.65589C66.6459 5.53589 66.4299 6.30389 65.9979 6.95989C65.5659 7.59989 64.9739 8.09589 64.2219 8.44789C63.4699 8.79989 62.6059 8.97589 61.6299 8.97589L62.0859 7.99189C63.1419 7.99189 64.0779 8.16789 64.8939 8.51989C65.7099 8.85589 66.3419 9.35989 66.7899 10.0319C67.2539 10.7039 67.4859 11.5279 67.4859 12.5039C67.4859 13.9439 66.9179 15.0719 65.7819 15.8879C64.6459 16.6879 62.9739 17.0879 60.7659 17.0879H52.0779ZM55.9419 14.1599H60.4779C61.4859 14.1599 62.2459 13.9999 62.7579 13.6799C63.2859 13.3439 63.5499 12.8159 63.5499 12.0959C63.5499 11.3919 63.2859 10.8719 62.7579 10.5359C62.2459 10.1839 61.4859 10.0079 60.4779 10.0079H55.6539V7.17589H59.8059C60.7499 7.17589 61.4699 7.01589 61.9659 6.69589C62.4779 6.35989 62.7339 5.85589 62.7339 5.18389C62.7339 4.52789 62.4779 4.03989 61.9659 3.71989C61.4699 3.38389 60.7499 3.21589 59.8059 3.21589H55.9419V14.1599ZM70.4295 17.0879V0.287889H74.3175V17.0879H70.4295ZM78.3045 17.0879V0.287889H85.5765C87.0805 0.287889 88.3765 0.53589 89.4645 1.03189C90.5525 1.51189 91.3925 2.20789 91.9845 3.11989C92.5765 4.03189 92.8725 5.11989 92.8725 6.38389C92.8725 7.63189 92.5765 8.71189 91.9845 9.62389C91.3925 10.5199 90.5525 11.2079 89.4645 11.6879C88.3765 12.1679 87.0805 12.4079 85.5765 12.4079H80.4645L82.1925 10.7039V17.0879H78.3045ZM88.9845 17.0879L84.7845 10.9919H88.9365L93.1845 17.0879H88.9845ZM82.1925 11.1359L80.4645 9.31189H85.3605C86.5605 9.31189 87.4565 9.05589 88.0485 8.54389C88.6405 8.01589 88.9365 7.29589 88.9365 6.38389C88.9365 5.45589 88.6405 4.73589 88.0485 4.22389C87.4565 3.71189 86.5605 3.45589 85.3605 3.45589H80.4645L82.1925 1.60789V11.1359ZM99.8946 17.0879V10.2239L100.783 12.5759L93.3906 0.287889H97.5186L103.183 9.71989H100.807L106.495 0.287889H110.311L102.919 12.5759L103.783 10.2239V17.0879H99.8946ZM108.698 17.0879L116.186 0.287889H120.026L127.538 17.0879H123.458L117.314 2.25589H118.85L112.682 17.0879H108.698ZM112.442 13.4879L113.474 10.5359H122.114L123.17 13.4879H112.442ZM129.281 17.0879V0.287889H132.497L142.409 12.3839H140.849V0.287889H144.689V17.0879H141.497L131.561 4.99189H133.121V17.0879H129.281ZM148.664 17.0879V0.287889H152.552V17.0879H148.664ZM163.336 17.0879V0.287889H170.608C172.112 0.287889 173.408 0.53589 174.496 1.03189C175.584 1.51189 176.424 2.20789 177.016 3.11989C177.608 4.03189 177.904 5.11989 177.904 6.38389C177.904 7.63189 177.608 8.71189 177.016 9.62389C176.424 10.5199 175.584 11.2079 174.496 11.6879C173.408 12.1679 172.112 12.4079 170.608 12.4079H165.496L167.224 10.7039V17.0879H163.336ZM174.016 17.0879L169.816 10.9919H173.968L178.216 17.0879H174.016ZM167.224 11.1359L165.496 9.31189H170.392C171.592 9.31189 172.488 9.05589 173.08 8.54389C173.672 8.01589 173.968 7.29589 173.968 6.38389C173.968 5.45589 173.672 4.73589 173.08 4.22389C172.488 3.71189 171.592 3.45589 170.392 3.45589H165.496L167.224 1.60789V11.1359ZM184.56 7.05589H192.648V10.0799H184.56V7.05589ZM184.848 13.9679H193.992V17.0879H180.984V0.287889H193.68V3.40789H184.848V13.9679ZM205.126 17.3759C203.83 17.3759 202.622 17.1679 201.502 16.7519C200.398 16.3199 199.438 15.7119 198.622 14.9279C197.806 14.1439 197.166 13.2239 196.702 12.1679C196.254 11.1119 196.03 9.95189 196.03 8.68789C196.03 7.42389 196.254 6.26389 196.702 5.20789C197.166 4.15189 197.806 3.23189 198.622 2.44789C199.454 1.66389 200.422 1.06389 201.526 0.647889C202.63 0.21589 203.838 -0.000109673 205.15 -0.000109673C206.606 -0.000109673 207.918 0.25589 209.086 0.76789C210.27 1.26389 211.262 1.99989 212.062 2.97589L209.566 5.27989C208.99 4.62389 208.35 4.13589 207.646 3.81589C206.942 3.47989 206.174 3.31189 205.342 3.31189C204.558 3.31189 203.838 3.43989 203.182 3.69589C202.526 3.95189 201.958 4.31989 201.478 4.79989C200.998 5.27989 200.622 5.84789 200.35 6.50389C200.094 7.15989 199.966 7.88789 199.966 8.68789C199.966 9.48789 200.094 10.2159 200.35 10.8719C200.622 11.5279 200.998 12.0959 201.478 12.5759C201.958 13.0559 202.526 13.4239 203.182 13.6799C203.838 13.9359 204.558 14.0639 205.342 14.0639C206.174 14.0639 206.942 13.9039 207.646 13.5839C208.35 13.2479 208.99 12.7439 209.566 12.0719L212.062 14.3759C211.262 15.3519 210.27 16.0959 209.086 16.6079C207.918 17.1199 206.598 17.3759 205.126 17.3759ZM218.003 17.0879V3.45589H212.627V0.287889H227.267V3.45589H221.891V17.0879H218.003ZM226.307 17.0879L233.795 0.287889H237.635L245.147 17.0879H241.067L234.923 2.25589H236.459L230.291 17.0879H226.307ZM230.051 13.4879L231.083 10.5359H239.723L240.779 13.4879H230.051ZM246.89 17.0879V0.287889H250.106L260.018 12.3839H258.458V0.287889H262.298V17.0879H259.106L249.17 4.99189H250.73V17.0879H246.89ZM274.385 17.3759C273.057 17.3759 271.833 17.1679 270.713 16.7519C269.609 16.3199 268.641 15.7119 267.809 14.9279C266.993 14.1439 266.353 13.2239 265.889 12.1679C265.441 11.1119 265.217 9.95189 265.217 8.68789C265.217 7.42389 265.441 6.26389 265.889 5.20789C266.353 4.15189 267.001 3.23189 267.833 2.44789C268.665 1.66389 269.641 1.06389 270.761 0.647889C271.881 0.21589 273.113 -0.000109673 274.457 -0.000109673C275.945 -0.000109673 277.281 0.24789 278.465 0.743889C279.665 1.23989 280.673 1.95989 281.489 2.90389L278.993 5.20789C278.385 4.56789 277.721 4.09589 277.001 3.79189C276.281 3.47189 275.497 3.31189 274.649 3.31189C273.833 3.31189 273.089 3.43989 272.417 3.69589C271.745 3.95189 271.161 4.31989 270.665 4.79989C270.185 5.27989 269.809 5.84789 269.537 6.50389C269.281 7.15989 269.153 7.88789 269.153 8.68789C269.153 9.47189 269.281 10.1919 269.537 10.8479C269.809 11.5039 270.185 12.0799 270.665 12.5759C271.161 13.0559 271.737 13.4239 272.393 13.6799C273.065 13.9359 273.801 14.0639 274.601 14.0639C275.369 14.0639 276.113 13.9439 276.833 13.7039C277.569 13.4479 278.281 13.0239 278.969 12.4319L281.177 15.2399C280.265 15.9279 279.201 16.4559 277.985 16.8239C276.785 17.1919 275.585 17.3759 274.385 17.3759ZM277.625 14.7359V8.42389H281.177V15.2399L277.625 14.7359ZM284.789 17.0879V0.287889H288.677V13.9199H297.101V17.0879H284.789ZM302.849 7.05589H310.937V10.0799H302.849V7.05589ZM303.137 13.9679H312.281V17.0879H299.273V0.287889H311.969V3.40789H303.137V13.9679Z" fill="black"/>
</svg>
