<svg width="119" height="10" viewBox="0 0 119 10" fill="none" xmlns="http://www.w3.org/2000/svg">
<path d="M1.30846 9.79964C0.889682 9.16449 0.565127 8.43162 0.334799 7.60104C0.111449 6.76348 -0.000225284 5.86311 -0.000225284 4.89991C-0.000225284 3.93672 0.111449 3.03634 0.334799 2.19878C0.565127 1.35424 0.889682 0.621379 1.30846 0.000189077H2.86842C2.4287 0.788891 2.10763 1.58457 1.90522 2.38723C1.70281 3.18292 1.60161 4.02048 1.60161 4.89991C1.60161 5.77935 1.70281 6.6204 1.90522 7.42306C2.10763 8.21874 2.4287 9.01093 2.86842 9.79964H1.30846ZM3.8465 7.76855V0.439908H5.54255V7.76855H3.8465ZM7.2818 7.76855V0.439908H8.68471L11.8046 5.61184H11.0613L14.1288 0.439908H15.5213L15.5422 7.76855H13.9509L13.9404 2.8793H14.2335L11.7837 6.99381H11.0194L8.5172 2.8793H8.87316V7.76855H7.2818ZM17.281 7.76855V0.439908H18.977V6.38658H22.6518V7.76855H17.281ZM26.5645 7.76855V0.439908H27.9674L31.0873 5.61184H30.344L33.4115 0.439908H34.804L34.8249 7.76855H33.2336L33.2231 2.8793H33.5162L31.0664 6.99381H30.3021L27.7999 2.8793H28.1558V7.76855H26.5645ZM40.1233 7.89419C39.544 7.89419 39.0065 7.79996 38.511 7.61151C38.0224 7.42306 37.5967 7.15783 37.2337 6.81583C36.8778 6.47383 36.5986 6.0725 36.3962 5.61184C36.2007 5.15118 36.103 4.64865 36.103 4.10423C36.103 3.55982 36.2007 3.05728 36.3962 2.59662C36.5986 2.13597 36.8812 1.73464 37.2442 1.39263C37.6071 1.05063 38.0329 0.785401 38.5215 0.59695C39.01 0.4085 39.5405 0.314274 40.1128 0.314274C40.6921 0.314274 41.2226 0.4085 41.7042 0.59695C42.1928 0.785401 42.615 1.05063 42.971 1.39263C43.3339 1.73464 43.6166 2.13597 43.819 2.59662C44.0214 3.0503 44.1226 3.55284 44.1226 4.10423C44.1226 4.64865 44.0214 5.15467 43.819 5.62231C43.6166 6.08297 43.3339 6.4843 42.971 6.8263C42.615 7.16132 42.1928 7.42306 41.7042 7.61151C41.2226 7.79996 40.6956 7.89419 40.1233 7.89419ZM40.1128 6.4494C40.4409 6.4494 40.741 6.39356 41.0132 6.28189C41.2924 6.17021 41.5367 6.00968 41.7461 5.80029C41.9555 5.5909 42.116 5.34312 42.2277 5.05696C42.3463 4.77079 42.4056 4.45321 42.4056 4.10423C42.4056 3.75525 42.3463 3.43767 42.2277 3.15151C42.116 2.86534 41.9555 2.61756 41.7461 2.40817C41.5437 2.19878 41.3029 2.03825 41.0237 1.92658C40.7445 1.8149 40.4409 1.75906 40.1128 1.75906C39.7848 1.75906 39.4812 1.8149 39.202 1.92658C38.9298 2.03825 38.689 2.19878 38.4796 2.40817C38.2702 2.61756 38.1062 2.86534 37.9875 3.15151C37.8758 3.43767 37.82 3.75525 37.82 4.10423C37.82 4.44623 37.8758 4.76381 37.9875 5.05696C38.1062 5.34312 38.2667 5.5909 38.4691 5.80029C38.6785 6.00968 38.9228 6.17021 39.202 6.28189C39.4812 6.39356 39.7848 6.4494 40.1128 6.4494ZM48.9465 7.89419C48.3741 7.89419 47.8402 7.79996 47.3446 7.61151C46.8561 7.42306 46.4303 7.15783 46.0674 6.81583C45.7114 6.47383 45.4322 6.0725 45.2298 5.61184C45.0344 5.15118 44.9366 4.64865 44.9366 4.10423C44.9366 3.55982 45.0344 3.05728 45.2298 2.59662C45.4322 2.13597 45.7149 1.73464 46.0778 1.39263C46.4408 1.05063 46.8665 0.785401 47.3551 0.59695C47.8437 0.4085 48.3741 0.314274 48.9465 0.314274C49.5258 0.314274 50.0562 0.4085 50.5378 0.59695C51.0264 0.785401 51.4487 1.05063 51.8046 1.39263C52.1676 1.72766 52.4503 2.1255 52.6527 2.58615C52.8551 3.04681 52.9563 3.55284 52.9563 4.10423C52.9563 4.64865 52.8551 5.15467 52.6527 5.62231C52.4503 6.08297 52.1676 6.4843 51.8046 6.8263C51.4487 7.16132 51.0264 7.42306 50.5378 7.61151C50.0562 7.79996 49.5258 7.89419 48.9465 7.89419ZM51.344 9.45414C51.0578 9.45414 50.7856 9.42273 50.5274 9.35992C50.2761 9.2971 50.0248 9.1959 49.7736 9.0563C49.5293 8.91671 49.271 8.72826 48.9988 8.49095C48.7336 8.25364 48.4439 7.9605 48.1298 7.61151L49.9097 7.16132C50.0981 7.41957 50.2726 7.62547 50.4331 7.77902C50.5937 7.93258 50.7472 8.04076 50.8938 8.10358C51.0473 8.1664 51.2079 8.1978 51.3754 8.1978C51.8221 8.1978 52.2199 8.01633 52.5689 7.65339L53.3227 8.55377C52.8272 9.15402 52.1676 9.45414 51.344 9.45414ZM48.9465 6.4494C49.2745 6.4494 49.5746 6.39356 49.8468 6.28189C50.126 6.17021 50.3703 6.00968 50.5797 5.80029C50.7891 5.5909 50.9496 5.34312 51.0613 5.05696C51.18 4.76381 51.2393 4.44623 51.2393 4.10423C51.2393 3.75525 51.18 3.43767 51.0613 3.15151C50.9496 2.86534 50.7891 2.61756 50.5797 2.40817C50.3703 2.19878 50.126 2.03825 49.8468 1.92658C49.5746 1.8149 49.2745 1.75906 48.9465 1.75906C48.6184 1.75906 48.3148 1.8149 48.0356 1.92658C47.7564 2.03825 47.5121 2.19878 47.3028 2.40817C47.1003 2.61756 46.9398 2.86534 46.8212 3.15151C46.7095 3.43767 46.6536 3.75525 46.6536 4.10423C46.6536 4.44623 46.7095 4.76381 46.8212 5.05696C46.9398 5.34312 47.1003 5.5909 47.3028 5.80029C47.5121 6.00968 47.7564 6.17021 48.0356 6.28189C48.3148 6.39356 48.6184 6.4494 48.9465 6.4494ZM56.8714 5.47574V4.16705H59.8342V5.47574H56.8714ZM66.2305 7.89419C65.721 7.89419 65.215 7.82788 64.7125 7.69527C64.2169 7.55567 63.7911 7.36024 63.4352 7.10898L64.1052 5.81076C64.3844 6.01317 64.7055 6.1737 65.0684 6.29236C65.4383 6.41101 65.8118 6.47034 66.1887 6.47034C66.6144 6.47034 66.9494 6.38658 67.1937 6.21907C67.438 6.05156 67.5602 5.81774 67.5602 5.51761C67.5602 5.32916 67.5113 5.16165 67.4136 5.01508C67.3159 4.8685 67.1414 4.75683 66.8901 4.68005C66.6458 4.60328 66.3003 4.56489 65.8536 4.56489H63.9796L64.3565 0.439908H68.827V1.80094H64.9637L65.8432 1.0262L65.5814 3.96813L64.702 3.19339H66.2515C66.9774 3.19339 67.5602 3.29459 67.9999 3.497C68.4466 3.69243 68.7711 3.96115 68.9735 4.30315C69.176 4.64516 69.2772 5.03253 69.2772 5.46527C69.2772 5.898 69.169 6.29934 68.9526 6.66926C68.7362 7.0322 68.4012 7.32884 67.9475 7.55916C67.5008 7.78251 66.9285 7.89419 66.2305 7.89419ZM73.1061 7.89419C72.5059 7.89419 71.9685 7.74762 71.4938 7.45447C71.0192 7.15434 70.6458 6.72161 70.3736 6.15625C70.1014 5.5909 69.9653 4.90689 69.9653 4.10423C69.9653 3.30157 70.1014 2.61756 70.3736 2.05221C70.6458 1.48686 71.0192 1.05761 71.4938 0.764462C71.9685 0.464337 72.5059 0.314274 73.1061 0.314274C73.7134 0.314274 74.2508 0.464337 74.7184 0.764462C75.1931 1.05761 75.5665 1.48686 75.8387 2.05221C76.1109 2.61756 76.247 3.30157 76.247 4.10423C76.247 4.90689 76.1109 5.5909 75.8387 6.15625C75.5665 6.72161 75.1931 7.15434 74.7184 7.45447C74.2508 7.74762 73.7134 7.89419 73.1061 7.89419ZM73.1061 6.45987C73.3923 6.45987 73.6401 6.3796 73.8495 6.21907C74.0658 6.05854 74.2334 5.80378 74.352 5.4548C74.4776 5.10581 74.5405 4.65562 74.5405 4.10423C74.5405 3.55284 74.4776 3.10265 74.352 2.75367C74.2334 2.40468 74.0658 2.14993 73.8495 1.98939C73.6401 1.82886 73.3923 1.74859 73.1061 1.74859C72.8269 1.74859 72.5792 1.82886 72.3628 1.98939C72.1534 2.14993 71.9859 2.40468 71.8603 2.75367C71.7416 3.10265 71.6823 3.55284 71.6823 4.10423C71.6823 4.65562 71.7416 5.10581 71.8603 5.4548C71.9859 5.80378 72.1534 6.05854 72.3628 6.21907C72.5792 6.3796 72.8269 6.45987 73.1061 6.45987ZM80.2119 7.89419C79.6116 7.89419 79.0742 7.74762 78.5996 7.45447C78.125 7.15434 77.7516 6.72161 77.4794 6.15625C77.2071 5.5909 77.071 4.90689 77.071 4.10423C77.071 3.30157 77.2071 2.61756 77.4794 2.05221C77.7516 1.48686 78.125 1.05761 78.5996 0.764462C79.0742 0.464337 79.6116 0.314274 80.2119 0.314274C80.8191 0.314274 81.3566 0.464337 81.8242 0.764462C82.2988 1.05761 82.6722 1.48686 82.9444 2.05221C83.2166 2.61756 83.3527 3.30157 83.3527 4.10423C83.3527 4.90689 83.2166 5.5909 82.9444 6.15625C82.6722 6.72161 82.2988 7.15434 81.8242 7.45447C81.3566 7.74762 80.8191 7.89419 80.2119 7.89419ZM80.2119 6.45987C80.4981 6.45987 80.7458 6.3796 80.9552 6.21907C81.1716 6.05854 81.3391 5.80378 81.4578 5.4548C81.5834 5.10581 81.6462 4.65562 81.6462 4.10423C81.6462 3.55284 81.5834 3.10265 81.4578 2.75367C81.3391 2.40468 81.1716 2.14993 80.9552 1.98939C80.7458 1.82886 80.4981 1.74859 80.2119 1.74859C79.9327 1.74859 79.6849 1.82886 79.4686 1.98939C79.2592 2.14993 79.0917 2.40468 78.966 2.75367C78.8474 3.10265 78.788 3.55284 78.788 4.10423C78.788 4.65562 78.8474 5.10581 78.966 5.4548C79.0917 5.80378 79.2592 6.05854 79.4686 6.21907C79.6849 6.3796 79.9327 6.45987 80.2119 6.45987ZM87.3177 7.89419C86.7174 7.89419 86.18 7.74762 85.7054 7.45447C85.2307 7.15434 84.8573 6.72161 84.5851 6.15625C84.3129 5.5909 84.1768 4.90689 84.1768 4.10423C84.1768 3.30157 84.3129 2.61756 84.5851 2.05221C84.8573 1.48686 85.2307 1.05761 85.7054 0.764462C86.18 0.464337 86.7174 0.314274 87.3177 0.314274C87.9249 0.314274 88.4623 0.464337 88.93 0.764462C89.4046 1.05761 89.778 1.48686 90.0502 2.05221C90.3224 2.61756 90.4585 3.30157 90.4585 4.10423C90.4585 4.90689 90.3224 5.5909 90.0502 6.15625C89.778 6.72161 89.4046 7.15434 88.93 7.45447C88.4623 7.74762 87.9249 7.89419 87.3177 7.89419ZM87.3177 6.45987C87.6038 6.45987 87.8516 6.3796 88.061 6.21907C88.2774 6.05854 88.4449 5.80378 88.5635 5.4548C88.6892 5.10581 88.752 4.65562 88.752 4.10423C88.752 3.55284 88.6892 3.10265 88.5635 2.75367C88.4449 2.40468 88.2774 2.14993 88.061 1.98939C87.8516 1.82886 87.6038 1.74859 87.3177 1.74859C87.0385 1.74859 86.7907 1.82886 86.5743 1.98939C86.3649 2.14993 86.1974 2.40468 86.0718 2.75367C85.9531 3.10265 85.8938 3.55284 85.8938 4.10423C85.8938 4.65562 85.9531 5.10581 86.0718 5.4548C86.1974 5.80378 86.3649 6.05854 86.5743 6.21907C86.7907 6.3796 87.0385 6.45987 87.3177 6.45987ZM94.7082 7.76855V0.439908H97.8805C98.5366 0.439908 99.1019 0.548093 99.5765 0.764462C100.051 0.973852 100.418 1.27747 100.676 1.67531C100.934 2.07315 101.063 2.54777 101.063 3.09916C101.063 3.64357 100.934 4.1147 100.676 4.51254C100.418 4.91038 100.051 5.21749 99.5765 5.43386C99.1019 5.64325 98.5366 5.74794 97.8805 5.74794H95.6505L96.4043 4.98367V7.76855H94.7082ZM96.4043 5.17212L95.6505 4.36597H97.7862C98.3097 4.36597 98.7006 4.25429 98.9588 4.03094C99.2171 3.8076 99.3462 3.497 99.3462 3.09916C99.3462 2.69434 99.2171 2.38025 98.9588 2.15691C98.7006 1.93356 98.3097 1.82188 97.7862 1.82188H95.6505L96.4043 1.01573V5.17212ZM105.884 7.89419C105.318 7.89419 104.791 7.80345 104.303 7.62198C103.821 7.43353 103.402 7.1683 103.046 6.8263C102.69 6.4843 102.411 6.08297 102.209 5.62231C102.013 5.16165 101.916 4.65562 101.916 4.10423C101.916 3.55284 102.013 3.04681 102.209 2.58615C102.411 2.1255 102.69 1.72417 103.046 1.38216C103.409 1.04016 103.832 0.778421 104.313 0.59695C104.795 0.4085 105.322 0.314274 105.894 0.314274C106.529 0.314274 107.102 0.425949 107.611 0.649298C108.128 0.865667 108.56 1.18673 108.909 1.61249L107.82 2.61756C107.569 2.3314 107.29 2.11852 106.983 1.97892C106.676 1.83235 106.341 1.75906 105.978 1.75906C105.636 1.75906 105.322 1.8149 105.036 1.92658C104.749 2.03825 104.502 2.19878 104.292 2.40817C104.083 2.61756 103.919 2.86534 103.8 3.15151C103.688 3.43767 103.633 3.75525 103.633 4.10423C103.633 4.45321 103.688 4.77079 103.8 5.05696C103.919 5.34312 104.083 5.5909 104.292 5.80029C104.502 6.00968 104.749 6.17021 105.036 6.28189C105.322 6.39356 105.636 6.4494 105.978 6.4494C106.341 6.4494 106.676 6.3796 106.983 6.24001C107.29 6.09344 107.569 5.87358 107.82 5.58043L108.909 6.5855C108.56 7.01126 108.128 7.33582 107.611 7.55916C107.102 7.78251 106.526 7.89419 105.884 7.89419ZM112.422 7.89419C111.835 7.89419 111.274 7.81741 110.736 7.66386C110.199 7.50333 109.766 7.29743 109.438 7.04616L110.014 5.76888C110.328 5.99223 110.698 6.17719 111.123 6.32376C111.556 6.46336 111.992 6.53315 112.432 6.53315C112.767 6.53315 113.036 6.50175 113.238 6.43893C113.448 6.36913 113.601 6.27491 113.699 6.15625C113.797 6.0376 113.846 5.90149 113.846 5.74794C113.846 5.55251 113.769 5.39896 113.615 5.28728C113.462 5.16863 113.259 5.0744 113.008 5.00461C112.757 4.92783 112.478 4.85804 112.17 4.79522C111.87 4.72542 111.567 4.64167 111.26 4.54395C110.959 4.44623 110.684 4.3206 110.433 4.16705C110.181 4.0135 109.975 3.81109 109.815 3.55982C109.661 3.30855 109.584 2.98749 109.584 2.59662C109.584 2.17784 109.696 1.79745 109.919 1.45545C110.15 1.10647 110.492 0.830769 110.946 0.628359C111.406 0.418969 111.982 0.314274 112.673 0.314274C113.134 0.314274 113.587 0.370111 114.034 0.481786C114.481 0.586481 114.875 0.747013 115.217 0.963383L114.694 2.25113C114.352 2.0557 114.01 1.91262 113.668 1.82188C113.326 1.72417 112.991 1.67531 112.663 1.67531C112.334 1.67531 112.066 1.7137 111.856 1.79047C111.647 1.86725 111.497 1.96845 111.406 2.09409C111.315 2.21274 111.27 2.35234 111.27 2.51287C111.27 2.70132 111.347 2.85487 111.5 2.97353C111.654 3.0852 111.856 3.17594 112.108 3.24573C112.359 3.31553 112.635 3.38533 112.935 3.45512C113.242 3.52492 113.545 3.60519 113.846 3.69592C114.153 3.78666 114.432 3.9088 114.683 4.06235C114.934 4.21591 115.137 4.41832 115.29 4.66958C115.451 4.92085 115.531 5.23843 115.531 5.62231C115.531 6.03411 115.416 6.41101 115.186 6.75301C114.955 7.09502 114.61 7.37071 114.149 7.5801C113.695 7.78949 113.12 7.89419 112.422 7.89419ZM117.486 9.79964H115.926C116.379 9.01093 116.704 8.21874 116.899 7.42306C117.102 6.6204 117.203 5.77935 117.203 4.89991C117.203 4.02048 117.102 3.18292 116.899 2.38723C116.704 1.58457 116.379 0.788891 115.926 0.000189077H117.486C117.918 0.621379 118.247 1.35424 118.47 2.19878C118.693 3.03634 118.805 3.93672 118.805 4.89991C118.805 5.86311 118.693 6.76348 118.47 7.60104C118.247 8.43162 117.918 9.16449 117.486 9.79964Z" fill="black"/>
</svg>
