<svg width="113" height="25" viewBox="0 0 113 25" fill="none" xmlns="http://www.w3.org/2000/svg">
<path d="M8.54325 24.1281C6.98592 24.1281 5.43925 23.9255 3.90325 23.5201C2.36725 23.0935 1.06592 22.4961 -0.000750002 21.7281L2.01525 17.7601C2.86858 18.3788 3.86058 18.8695 4.99125 19.2321C6.12192 19.5948 7.26325 19.7761 8.41525 19.7761C9.71658 19.7761 10.7406 19.5201 11.4873 19.0081C12.2339 18.4961 12.6073 17.7921 12.6073 16.8961C12.6073 16.0428 12.2766 15.3708 11.6153 14.8801C10.9539 14.3895 9.88725 14.1441 8.41525 14.1441H6.04725V10.7201L12.2873 3.64814L12.8633 5.50414H1.11925V1.34414H16.7993V4.70414L10.5913 11.7761L7.96725 10.2721H9.47125C12.2233 10.2721 14.3033 10.8908 15.7113 12.1281C17.1193 13.3655 17.8233 14.9548 17.8233 16.8961C17.8233 18.1548 17.4926 19.3388 16.8313 20.4481C16.1699 21.5361 15.1566 22.4215 13.7913 23.1041C12.4259 23.7868 10.6766 24.1281 8.54325 24.1281ZM29.8168 24.1281C27.9821 24.1281 26.3394 23.6801 24.8888 22.7841C23.4381 21.8668 22.2968 20.5441 21.4648 18.8161C20.6328 17.0881 20.2168 14.9975 20.2168 12.5441C20.2168 10.0908 20.6328 8.00014 21.4648 6.27214C22.2968 4.54414 23.4381 3.23214 24.8888 2.33614C26.3394 1.41881 27.9821 0.96014 29.8168 0.96014C31.6728 0.96014 33.3154 1.41881 34.7448 2.33614C36.1954 3.23214 37.3368 4.54414 38.1688 6.27214C39.0008 8.00014 39.4168 10.0908 39.4168 12.5441C39.4168 14.9975 39.0008 17.0881 38.1688 18.8161C37.3368 20.5441 36.1954 21.8668 34.7448 22.7841C33.3154 23.6801 31.6728 24.1281 29.8168 24.1281ZM29.8168 19.7441C30.6914 19.7441 31.4488 19.4988 32.0888 19.0081C32.7501 18.5175 33.2621 17.7388 33.6248 16.6721C34.0088 15.6055 34.2008 14.2295 34.2008 12.5441C34.2008 10.8588 34.0088 9.48281 33.6248 8.41614C33.2621 7.34947 32.7501 6.57081 32.0888 6.08014C31.4488 5.58947 30.6914 5.34414 29.8168 5.34414C28.9634 5.34414 28.2061 5.58947 27.5448 6.08014C26.9048 6.57081 26.3928 7.34947 26.0088 8.41614C25.6461 9.48281 25.4648 10.8588 25.4648 12.5441C25.4648 14.2295 25.6461 15.6055 26.0088 16.6721C26.3928 17.7388 26.9048 18.5175 27.5448 19.0081C28.2061 19.4988 28.9634 19.7441 29.8168 19.7441ZM51.5355 24.1281C49.7008 24.1281 48.0582 23.6801 46.6075 22.7841C45.1568 21.8668 44.0155 20.5441 43.1835 18.8161C42.3515 17.0881 41.9355 14.9975 41.9355 12.5441C41.9355 10.0908 42.3515 8.00014 43.1835 6.27214C44.0155 4.54414 45.1568 3.23214 46.6075 2.33614C48.0582 1.41881 49.7008 0.96014 51.5355 0.96014C53.3915 0.96014 55.0342 1.41881 56.4635 2.33614C57.9142 3.23214 59.0555 4.54414 59.8875 6.27214C60.7195 8.00014 61.1355 10.0908 61.1355 12.5441C61.1355 14.9975 60.7195 17.0881 59.8875 18.8161C59.0555 20.5441 57.9142 21.8668 56.4635 22.7841C55.0342 23.6801 53.3915 24.1281 51.5355 24.1281ZM51.5355 19.7441C52.4102 19.7441 53.1675 19.4988 53.8075 19.0081C54.4688 18.5175 54.9808 17.7388 55.3435 16.6721C55.7275 15.6055 55.9195 14.2295 55.9195 12.5441C55.9195 10.8588 55.7275 9.48281 55.3435 8.41614C54.9808 7.34947 54.4688 6.57081 53.8075 6.08014C53.1675 5.58947 52.4102 5.34414 51.5355 5.34414C50.6822 5.34414 49.9248 5.58947 49.2635 6.08014C48.6235 6.57081 48.1115 7.34947 47.7275 8.41614C47.3648 9.48281 47.1835 10.8588 47.1835 12.5441C47.1835 14.2295 47.3648 15.6055 47.7275 16.6721C48.1115 17.7388 48.6235 18.5175 49.2635 19.0081C49.9248 19.4988 50.6822 19.7441 51.5355 19.7441ZM95.8208 6.27214C97.1861 6.27214 98.3914 6.54947 99.4368 7.10414C100.503 7.63747 101.335 8.46947 101.933 9.60014C102.551 10.7095 102.861 12.1388 102.861 13.8881V23.7441H97.8688V14.6561C97.8688 13.2695 97.5808 12.2455 97.0048 11.5841C96.4288 10.9228 95.6181 10.5921 94.5728 10.5921C93.8474 10.5921 93.1968 10.7628 92.6208 11.1041C92.0448 11.4241 91.5968 11.9148 91.2768 12.5761C90.9568 13.2375 90.7968 14.0801 90.7968 15.1041V23.7441H85.8048V14.6561C85.8048 13.2695 85.5168 12.2455 84.9408 11.5841C84.3861 10.9228 83.5861 10.5921 82.5408 10.5921C81.8154 10.5921 81.1648 10.7628 80.5888 11.1041C80.0128 11.4241 79.5648 11.9148 79.2448 12.5761C78.9248 13.2375 78.7648 14.0801 78.7648 15.1041V23.7441H73.7728V6.52814H78.5408V11.2321L77.6448 9.85614C78.2421 8.68281 79.0848 7.79747 80.1728 7.20014C81.2821 6.58147 82.5408 6.27214 83.9488 6.27214C85.5274 6.27214 86.9034 6.67747 88.0768 7.48814C89.2714 8.27747 90.0608 9.49347 90.4448 11.1361L88.6848 10.6561C89.2608 9.31214 90.1781 8.24547 91.4368 7.45614C92.7168 6.66681 94.1781 6.27214 95.8208 6.27214ZM107.335 23.7441V0.000139236H112.327V23.7441H107.335Z" fill="black"/>
</svg>
