<svg width="75" height="33" viewBox="0 0 75 33" fill="none" xmlns="http://www.w3.org/2000/svg">
<path d="M21.1945 28.1945C21.3018 28.0871 21.3018 27.9129 21.1945 27.8055L19.4444 26.0555C19.337 25.9481 19.1629 25.9481 19.0555 26.0555C18.9481 26.1629 18.9481 26.337 19.0555 26.4444L20.6111 28L19.0555 29.5556C18.9481 29.663 18.9481 29.8371 19.0555 29.9445C19.1629 30.0519 19.337 30.0519 19.4444 29.9445L21.1945 28.1945ZM5.80555 27.8055C5.69815 27.9129 5.69815 28.0871 5.80555 28.1945L7.55563 29.9445C7.66303 30.0519 7.83715 30.0519 7.94454 29.9445C8.05194 29.8371 8.05194 29.663 7.94454 29.5556L6.38891 28L7.94454 26.4444C8.05194 26.337 8.05194 26.1629 7.94454 26.0555C7.83715 25.9481 7.66303 25.9481 7.55563 26.0555L5.80555 27.8055ZM21 28V27.725L6 27.725V28V28.275L21 28.275V28Z" fill="black"/>
<path d="M17.5633 22.8094C17.7157 21.2034 19.315 8.91797 19.315 8.91797C15.1648 9.69714 12.8113 9.65407 8.57617 8.99827C8.57617 8.99827 10.0234 20.9625 10.3279 22.8094C10.6325 24.6562 17.4109 24.4153 17.5633 22.8094Z" stroke="black" stroke-width="0.55"/>
<path d="M18.5 8C18.5511 8.05114 19.736 7.88861 19.736 8.0727C19.8894 8.14941 20 8.30282 20 8.45623C20 8.57896 19.5398 8.76306 19.3096 8.83976C17.7244 9.3 13.3573 9.95967 8.57082 8.91647C8.264 8.79374 8.08502 8.55851 8.03388 8.45623C8.00831 8.37953 7.97252 8.21077 8.03388 8.14941C8.09525 8.08804 8.16171 8.02157 8.18727 7.996L8.34068 7.61247C8.31511 7.5869 9.25454 8 9.5 8" stroke="black" stroke-width="0.55"/>
<path d="M14.9014 7.27539C15.4053 7.27539 16.5645 7.2977 17.5938 7.4043C18.1106 7.45782 18.5802 7.53143 18.915 7.62891C19.0844 7.67821 19.2006 7.72827 19.2686 7.77344C19.2758 7.77824 19.2809 7.78417 19.2861 7.78809C19.2681 7.8069 19.2348 7.8366 19.1709 7.87305C19.0288 7.95413 18.8061 8.03358 18.5088 8.10742C17.9183 8.25407 17.104 8.36045 16.2314 8.43066C14.4855 8.57115 12.5682 8.56602 11.8633 8.49121C11.3674 8.43856 10.5156 8.30883 9.78223 8.13574C9.41436 8.04891 9.08758 7.95315 8.85254 7.85547C8.79008 7.8295 8.73748 7.80433 8.69434 7.78125C8.82094 7.73101 9.00602 7.68117 9.24512 7.63477C9.76728 7.53344 10.4831 7.45907 11.2412 7.40527C12.7545 7.2979 14.3968 7.27539 14.9014 7.27539Z" stroke="black" stroke-width="0.55"/>
<path d="M33.924 12.2773V3.81734H37.62C38.508 3.81734 39.196 4.01334 39.684 4.40534C40.172 4.78934 40.416 5.32534 40.416 6.01334C40.416 6.52534 40.268 6.95734 39.972 7.30934C39.676 7.66134 39.272 7.89734 38.76 8.01734V7.83734C39.152 7.89334 39.488 8.01334 39.768 8.19734C40.048 8.38134 40.26 8.61734 40.404 8.90534C40.556 9.19334 40.632 9.52934 40.632 9.91334C40.632 10.4093 40.516 10.8373 40.284 11.1973C40.06 11.5493 39.732 11.8173 39.3 12.0013C38.868 12.1853 38.352 12.2773 37.752 12.2773H33.924ZM35.4 11.1133H37.56C37.776 11.1133 37.968 11.0973 38.136 11.0653C38.312 11.0333 38.46 10.9853 38.58 10.9213C38.708 10.8493 38.812 10.7613 38.892 10.6573C38.98 10.5533 39.044 10.4333 39.084 10.2973C39.124 10.1613 39.144 10.0093 39.144 9.84134C39.144 9.66534 39.124 9.50934 39.084 9.37334C39.044 9.23734 38.98 9.12134 38.892 9.02534C38.812 8.92134 38.708 8.83734 38.58 8.77334C38.46 8.70134 38.312 8.64934 38.136 8.61734C37.968 8.58534 37.776 8.56934 37.56 8.56934H35.4V11.1133ZM35.4 7.40534H37.356C37.884 7.40534 38.276 7.30534 38.532 7.10534C38.796 6.89734 38.928 6.59334 38.928 6.19334C38.928 5.79334 38.796 5.49334 38.532 5.29334C38.276 5.08534 37.884 4.98134 37.356 4.98134H35.4V7.40534ZM44.7177 12.3973C44.1097 12.3973 43.5817 12.2733 43.1337 12.0253C42.6857 11.7773 42.3377 11.4253 42.0897 10.9693C41.8417 10.5053 41.7177 9.96134 41.7177 9.33734C41.7177 8.71334 41.8417 8.17334 42.0897 7.71734C42.3377 7.26134 42.6857 6.90934 43.1337 6.66134C43.5817 6.41334 44.1097 6.28934 44.7177 6.28934C45.3257 6.28934 45.8537 6.41334 46.3017 6.66134C46.7497 6.90934 47.0977 7.26134 47.3457 7.71734C47.5937 8.17334 47.7177 8.71334 47.7177 9.33734C47.7177 9.96134 47.5937 10.5053 47.3457 10.9693C47.0977 11.4253 46.7497 11.7773 46.3017 12.0253C45.8537 12.2733 45.3257 12.3973 44.7177 12.3973ZM44.7177 11.2573C45.1657 11.2573 45.5257 11.0973 45.7977 10.7773C46.0697 10.4493 46.2057 9.96934 46.2057 9.33734C46.2057 8.69734 46.0697 8.22134 45.7977 7.90934C45.5257 7.58934 45.1657 7.42934 44.7177 7.42934C44.2697 7.42934 43.9097 7.58934 43.6377 7.90934C43.3657 8.22134 43.2297 8.69734 43.2297 9.33734C43.2297 9.96934 43.3657 10.4493 43.6377 10.7773C43.9097 11.0973 44.2697 11.2573 44.7177 11.2573ZM51.5852 12.3973C50.8012 12.3973 50.2172 12.2013 49.8332 11.8093C49.4492 11.4173 49.2572 10.8453 49.2572 10.0933V7.53734H48.1292V6.40934H49.2572V4.65734H50.7572V6.40934H52.5332V7.53734H50.7572V10.0093C50.7572 10.3933 50.8412 10.6813 51.0092 10.8733C51.1772 11.0653 51.4492 11.1613 51.8252 11.1613C51.9372 11.1613 52.0532 11.1493 52.1732 11.1253C52.2932 11.0933 52.4172 11.0613 52.5452 11.0293L52.7732 12.1333C52.6292 12.2133 52.4452 12.2773 52.2212 12.3253C52.0052 12.3733 51.7932 12.3973 51.5852 12.3973ZM55.8508 12.3973C55.0668 12.3973 54.4828 12.2013 54.0988 11.8093C53.7148 11.4173 53.5228 10.8453 53.5228 10.0933V7.53734H52.3948V6.40934H53.5228V4.65734H55.0228V6.40934H56.7988V7.53734H55.0228V10.0093C55.0228 10.3933 55.1068 10.6813 55.2748 10.8733C55.4428 11.0653 55.7148 11.1613 56.0908 11.1613C56.2028 11.1613 56.3188 11.1493 56.4388 11.1253C56.5588 11.0933 56.6828 11.0613 56.8108 11.0293L57.0388 12.1333C56.8948 12.2133 56.7108 12.2773 56.4868 12.3253C56.2708 12.3733 56.0588 12.3973 55.8508 12.3973ZM60.3857 12.3973C59.7777 12.3973 59.2497 12.2733 58.8017 12.0253C58.3537 11.7773 58.0057 11.4253 57.7577 10.9693C57.5097 10.5053 57.3857 9.96134 57.3857 9.33734C57.3857 8.71334 57.5097 8.17334 57.7577 7.71734C58.0057 7.26134 58.3537 6.90934 58.8017 6.66134C59.2497 6.41334 59.7777 6.28934 60.3857 6.28934C60.9937 6.28934 61.5217 6.41334 61.9697 6.66134C62.4177 6.90934 62.7657 7.26134 63.0137 7.71734C63.2617 8.17334 63.3857 8.71334 63.3857 9.33734C63.3857 9.96134 63.2617 10.5053 63.0137 10.9693C62.7657 11.4253 62.4177 11.7773 61.9697 12.0253C61.5217 12.2733 60.9937 12.3973 60.3857 12.3973ZM60.3857 11.2573C60.8337 11.2573 61.1937 11.0973 61.4657 10.7773C61.7377 10.4493 61.8737 9.96934 61.8737 9.33734C61.8737 8.69734 61.7377 8.22134 61.4657 7.90934C61.1937 7.58934 60.8337 7.42934 60.3857 7.42934C59.9377 7.42934 59.5777 7.58934 59.3057 7.90934C59.0337 8.22134 58.8977 8.69734 58.8977 9.33734C58.8977 9.96934 59.0337 10.4493 59.3057 10.7773C59.5777 11.0973 59.9377 11.2573 60.3857 11.2573ZM64.6478 12.2773V6.40934H66.1118V7.58534H65.9798C66.0838 7.31334 66.2278 7.08134 66.4118 6.88934C66.5958 6.69734 66.8158 6.54934 67.0718 6.44534C67.3278 6.34134 67.6118 6.28934 67.9238 6.28934C68.3958 6.28934 68.7838 6.40134 69.0878 6.62534C69.3918 6.84934 69.6038 7.19334 69.7238 7.65734H69.5558C69.7158 7.23334 69.9798 6.90134 70.3478 6.66134C70.7158 6.41334 71.1398 6.28934 71.6198 6.28934C72.0678 6.28934 72.4358 6.37734 72.7238 6.55334C73.0198 6.72934 73.2398 6.99734 73.3838 7.35734C73.5278 7.70934 73.5998 8.15734 73.5998 8.70134V12.2773H72.0998V8.76134C72.0998 8.31334 72.0238 7.98534 71.8718 7.77734C71.7278 7.56934 71.4798 7.46534 71.1278 7.46534C70.8718 7.46534 70.6478 7.52934 70.4557 7.65734C70.2638 7.77734 70.1158 7.95334 70.0117 8.18534C69.9158 8.41734 69.8678 8.69734 69.8678 9.02534V12.2773H68.3678V8.76134C68.3678 8.31334 68.2918 7.98534 68.1398 7.77734C67.9958 7.56934 67.7518 7.46534 67.4078 7.46534C67.1438 7.46534 66.9158 7.52934 66.7238 7.65734C66.5398 7.77734 66.3958 7.95334 66.2918 8.18534C66.1958 8.41734 66.1478 8.69734 66.1478 9.02534V12.2773H64.6478Z" fill="#CF4747"/>
<path d="M36.12 28.8127C35.8133 28.8127 35.5167 28.7793 35.23 28.7127C34.9433 28.646 34.6767 28.5493 34.43 28.4227C34.1833 28.296 33.9633 28.1427 33.77 27.9627L34.1 27.2827C34.4133 27.5493 34.7333 27.746 35.06 27.8727C35.3867 27.9993 35.7367 28.0627 36.11 28.0627C36.6033 28.0627 36.9867 27.9293 37.26 27.6627C37.54 27.396 37.68 27.036 37.68 26.5827C37.68 26.1227 37.5467 25.7493 37.28 25.4627C37.02 25.176 36.66 25.0327 36.2 25.0327C35.8733 25.0327 35.5833 25.0993 35.33 25.2327C35.0767 25.3593 34.8467 25.5693 34.64 25.8627H33.99V21.6727H38.14V22.4127H34.8V25.1327H34.66C34.8333 24.8793 35.0633 24.6793 35.35 24.5327C35.6433 24.3793 35.9733 24.3027 36.34 24.3027C36.7867 24.3027 37.1733 24.396 37.5 24.5827C37.8267 24.7693 38.0767 25.0293 38.25 25.3627C38.43 25.696 38.52 26.086 38.52 26.5327C38.52 26.9927 38.42 27.3927 38.22 27.7327C38.0267 28.0727 37.75 28.3393 37.39 28.5327C37.0367 28.7193 36.6133 28.8127 36.12 28.8127ZM39.8561 28.7227V28.0827L42.2961 25.4827C42.5294 25.2293 42.7161 24.9993 42.8561 24.7927C42.9961 24.5793 43.0961 24.3727 43.1561 24.1727C43.2161 23.9727 43.2461 23.7693 43.2461 23.5627C43.2461 23.1693 43.1228 22.866 42.8761 22.6527C42.6361 22.4393 42.2861 22.3327 41.8261 22.3327C41.4861 22.3327 41.1561 22.3993 40.8361 22.5327C40.5161 22.6593 40.2161 22.8627 39.9361 23.1427L39.6061 22.4727C39.8861 22.1993 40.2261 21.9827 40.6261 21.8227C41.0328 21.6627 41.4561 21.5827 41.8961 21.5827C42.3628 21.5827 42.7594 21.6593 43.0861 21.8127C43.4194 21.966 43.6728 22.186 43.8461 22.4727C44.0194 22.7593 44.1061 23.1027 44.1061 23.5027C44.1061 23.716 44.0794 23.9227 44.0261 24.1227C43.9794 24.3227 43.9061 24.5227 43.8061 24.7227C43.7061 24.9227 43.5761 25.1293 43.4161 25.3427C43.2628 25.5493 43.0794 25.7627 42.8661 25.9827L40.8261 28.1227V27.9827H44.3961V28.7227H39.8561ZM48.508 28.7227V23.8227H49.318V24.9027H49.258C49.3446 24.6693 49.4646 24.466 49.618 24.2927C49.778 24.1127 49.968 23.976 50.188 23.8827C50.408 23.7827 50.6513 23.7327 50.918 23.7327C51.338 23.7327 51.6813 23.836 51.948 24.0427C52.2146 24.2493 52.388 24.5393 52.468 24.9127H52.388C52.5146 24.566 52.728 24.2827 53.028 24.0627C53.328 23.8427 53.6913 23.7327 54.118 23.7327C54.4913 23.7327 54.8013 23.806 55.048 23.9527C55.2946 24.0927 55.4813 24.306 55.608 24.5927C55.7346 24.8793 55.798 25.2427 55.798 25.6827V28.7227H54.958V25.7327C54.958 25.2993 54.878 24.976 54.718 24.7627C54.5646 24.5493 54.298 24.4427 53.918 24.4427C53.6446 24.4427 53.4046 24.5093 53.198 24.6427C52.998 24.7693 52.8446 24.946 52.738 25.1727C52.6313 25.3993 52.578 25.666 52.578 25.9727V28.7227H51.728V25.7327C51.728 25.2993 51.6446 24.976 51.478 24.7627C51.318 24.5493 51.058 24.4427 50.698 24.4427C50.4246 24.4427 50.1846 24.5093 49.978 24.6427C49.778 24.776 49.6246 24.9593 49.518 25.1927C49.4113 25.4193 49.358 25.6727 49.358 25.9527V28.7227H48.508ZM57.4533 28.7227V23.8227H58.2633V24.9027H58.2033C58.2899 24.6693 58.4099 24.466 58.5633 24.2927C58.7233 24.1127 58.9133 23.976 59.1333 23.8827C59.3533 23.7827 59.5966 23.7327 59.8633 23.7327C60.2833 23.7327 60.6266 23.836 60.8933 24.0427C61.1599 24.2493 61.3333 24.5393 61.4133 24.9127H61.3333C61.4599 24.566 61.6733 24.2827 61.9733 24.0627C62.2733 23.8427 62.6366 23.7327 63.0633 23.7327C63.4366 23.7327 63.7466 23.806 63.9933 23.9527C64.2399 24.0927 64.4266 24.306 64.5533 24.5927C64.6799 24.8793 64.7433 25.2427 64.7433 25.6827V28.7227H63.9033V25.7327C63.9033 25.2993 63.8233 24.976 63.6633 24.7627C63.5099 24.5493 63.2433 24.4427 62.8633 24.4427C62.5899 24.4427 62.3499 24.5093 62.1433 24.6427C61.9433 24.7693 61.7899 24.946 61.6833 25.1727C61.5766 25.3993 61.5233 25.666 61.5233 25.9727V28.7227H60.6733V25.7327C60.6733 25.2993 60.5899 24.976 60.4233 24.7627C60.2633 24.5493 60.0033 24.4427 59.6433 24.4427C59.3699 24.4427 59.1299 24.5093 58.9233 24.6427C58.7233 24.776 58.5699 24.9593 58.4633 25.1927C58.3566 25.4193 58.3033 25.6727 58.3033 25.9527V28.7227H57.4533Z" fill="black"/>
</svg>
