<svg width="171" height="41" viewBox="0 0 171 41" fill="none" xmlns="http://www.w3.org/2000/svg">
<path d="M2.14523 8.32715V0.627148H3.04723L6.50123 6.44615H6.01723L9.42723 0.627148H10.3292L10.3402 8.32715H9.28423L9.27323 2.28815H9.52623L6.49023 7.39215H5.98423L2.92623 2.28815H3.20123V8.32715H2.14523ZM14.9941 8.39315C14.4074 8.39315 13.8868 8.26482 13.4321 8.00815C12.9774 7.75148 12.6181 7.39948 12.3541 6.95215C12.0901 6.49748 11.9581 5.98415 11.9581 5.41215C11.9581 4.83281 12.0901 4.31948 12.3541 3.87215C12.6181 3.42481 12.9774 3.07648 13.4321 2.82715C13.8868 2.57048 14.4074 2.44215 14.9941 2.44215C15.5734 2.44215 16.0904 2.57048 16.5451 2.82715C17.0071 3.07648 17.3664 3.42481 17.6231 3.87215C17.8871 4.31215 18.0191 4.82548 18.0191 5.41215C18.0191 5.99148 17.8871 6.50482 17.6231 6.95215C17.3664 7.39948 17.0071 7.75148 16.5451 8.00815C16.0904 8.26482 15.5734 8.39315 14.9941 8.39315ZM14.9941 7.46915C15.3681 7.46915 15.7018 7.38482 15.9951 7.21615C16.2958 7.04748 16.5304 6.80915 16.6991 6.50115C16.8678 6.18582 16.9521 5.82282 16.9521 5.41215C16.9521 4.99415 16.8678 4.63481 16.6991 4.33415C16.5304 4.02615 16.2958 3.78781 15.9951 3.61915C15.7018 3.45048 15.3681 3.36615 14.9941 3.36615C14.6201 3.36615 14.2864 3.45048 13.9931 3.61915C13.6998 3.78781 13.4651 4.02615 13.2891 4.33415C13.1131 4.63481 13.0251 4.99415 13.0251 5.41215C13.0251 5.82282 13.1131 6.18582 13.2891 6.50115C13.4651 6.80915 13.6998 7.04748 13.9931 7.21615C14.2864 7.38482 14.6201 7.46915 14.9941 7.46915ZM19.4795 8.32715V2.49715H20.4915V4.08115L20.3925 3.68515C20.5538 3.28181 20.8252 2.97381 21.2065 2.76115C21.5878 2.54848 22.0572 2.44215 22.6145 2.44215V3.46515C22.5705 3.45781 22.5265 3.45415 22.4825 3.45415C22.4458 3.45415 22.4092 3.45415 22.3725 3.45415C21.8078 3.45415 21.3605 3.62281 21.0305 3.96015C20.7005 4.29748 20.5355 4.78515 20.5355 5.42315V8.32715H19.4795ZM26.4583 8.39315C25.835 8.39315 25.285 8.26482 24.8083 8.00815C24.339 7.75148 23.9723 7.39948 23.7083 6.95215C23.4517 6.50482 23.3233 5.99148 23.3233 5.41215C23.3233 4.83281 23.448 4.31948 23.6973 3.87215C23.954 3.42481 24.3023 3.07648 24.7423 2.82715C25.1897 2.57048 25.692 2.44215 26.2493 2.44215C26.814 2.44215 27.3127 2.56681 27.7453 2.81615C28.178 3.06548 28.5153 3.41748 28.7573 3.87215C29.0067 4.31948 29.1313 4.84381 29.1313 5.44515C29.1313 5.48915 29.1277 5.54048 29.1203 5.59915C29.1203 5.65781 29.1167 5.71281 29.1093 5.76415H24.1483V5.00515H28.5593L28.1303 5.26915C28.1377 4.89515 28.0607 4.56148 27.8993 4.26815C27.738 3.97481 27.5143 3.74748 27.2283 3.58615C26.9497 3.41748 26.6233 3.33315 26.2493 3.33315C25.8827 3.33315 25.5563 3.41748 25.2703 3.58615C24.9843 3.74748 24.7607 3.97848 24.5993 4.27915C24.438 4.57248 24.3573 4.90981 24.3573 5.29115V5.46715C24.3573 5.85581 24.4453 6.20415 24.6213 6.51215C24.8047 6.81282 25.0577 7.04748 25.3803 7.21615C25.703 7.38482 26.0733 7.46915 26.4913 7.46915C26.836 7.46915 27.1477 7.41048 27.4263 7.29315C27.7123 7.17582 27.9617 6.99982 28.1743 6.76515L28.7573 7.44715C28.4933 7.75515 28.1633 7.98982 27.7673 8.15115C27.3787 8.31248 26.9423 8.39315 26.4583 8.39315ZM35.9278 8.32715L32.5398 0.627148H33.7278L36.8408 7.73315H36.1588L39.2938 0.627148H40.3938L37.0168 8.32715H35.9278ZM43.2783 8.39315C42.6916 8.39315 42.1709 8.26482 41.7163 8.00815C41.2616 7.75148 40.9023 7.39948 40.6383 6.95215C40.3743 6.49748 40.2423 5.98415 40.2423 5.41215C40.2423 4.83281 40.3743 4.31948 40.6383 3.87215C40.9023 3.42481 41.2616 3.07648 41.7163 2.82715C42.1709 2.57048 42.6916 2.44215 43.2783 2.44215C43.8576 2.44215 44.3746 2.57048 44.8293 2.82715C45.2913 3.07648 45.6506 3.42481 45.9073 3.87215C46.1713 4.31215 46.3033 4.82548 46.3033 5.41215C46.3033 5.99148 46.1713 6.50482 45.9073 6.95215C45.6506 7.39948 45.2913 7.75148 44.8293 8.00815C44.3746 8.26482 43.8576 8.39315 43.2783 8.39315ZM43.2783 7.46915C43.6523 7.46915 43.9859 7.38482 44.2793 7.21615C44.5799 7.04748 44.8146 6.80915 44.9833 6.50115C45.1519 6.18582 45.2363 5.82282 45.2363 5.41215C45.2363 4.99415 45.1519 4.63481 44.9833 4.33415C44.8146 4.02615 44.5799 3.78781 44.2793 3.61915C43.9859 3.45048 43.6523 3.36615 43.2783 3.36615C42.9043 3.36615 42.5706 3.45048 42.2773 3.61915C41.9839 3.78781 41.7493 4.02615 41.5733 4.33415C41.3973 4.63481 41.3093 4.99415 41.3093 5.41215C41.3093 5.82282 41.3973 6.18582 41.5733 6.50115C41.7493 6.80915 41.9839 7.04748 42.2773 7.21615C42.5706 7.38482 42.9043 7.46915 43.2783 7.46915ZM47.7637 8.32715V0.165148H48.8197V8.32715H47.7637ZM53.289 8.39315C52.7903 8.39315 52.3503 8.30148 51.969 8.11815C51.595 7.93482 51.3016 7.65615 51.089 7.28215C50.8836 6.90082 50.781 6.42415 50.781 5.85215V2.49715H51.837V5.73115C51.837 6.30315 51.9726 6.73215 52.244 7.01815C52.5226 7.30415 52.9113 7.44715 53.41 7.44715C53.7766 7.44715 54.0956 7.37382 54.367 7.22715C54.6383 7.07315 54.8473 6.85315 54.994 6.56715C55.1406 6.27382 55.214 5.92182 55.214 5.51115V2.49715H56.27V8.32715H55.269V6.75415L55.434 7.17215C55.2433 7.56082 54.9573 7.86148 54.576 8.07415C54.1946 8.28682 53.7656 8.39315 53.289 8.39315ZM65.5733 2.44215C66.0426 2.44215 66.457 2.53381 66.8163 2.71715C67.1756 2.90048 67.4543 3.17915 67.6523 3.55315C67.8576 3.92715 67.9603 4.40015 67.9603 4.97215V8.32715H66.9043V5.09315C66.9043 4.52848 66.7723 4.10315 66.5083 3.81715C66.2443 3.53115 65.874 3.38815 65.3973 3.38815C65.0453 3.38815 64.7373 3.46148 64.4733 3.60815C64.2093 3.75481 64.004 3.97115 63.8573 4.25715C63.718 4.54315 63.6483 4.89881 63.6483 5.32415V8.32715H62.5923V5.09315C62.5923 4.52848 62.4603 4.10315 62.1963 3.81715C61.9396 3.53115 61.5693 3.38815 61.0853 3.38815C60.7406 3.38815 60.4363 3.46148 60.1723 3.60815C59.9083 3.75481 59.703 3.97115 59.5563 4.25715C59.4096 4.54315 59.3363 4.89881 59.3363 5.32415V8.32715H58.2803V2.49715H59.2923V4.04815L59.1273 3.65215C59.3106 3.27081 59.593 2.97381 59.9743 2.76115C60.3556 2.54848 60.7993 2.44215 61.3053 2.44215C61.8626 2.44215 62.343 2.58148 62.7463 2.86015C63.1496 3.13148 63.4136 3.54582 63.5383 4.10315L63.1093 3.92715C63.2853 3.47981 63.5933 3.12048 64.0333 2.84915C64.4733 2.57781 64.9866 2.44215 65.5733 2.44215ZM72.4993 8.39315C71.876 8.39315 71.326 8.26482 70.8493 8.00815C70.38 7.75148 70.0133 7.39948 69.7493 6.95215C69.4927 6.50482 69.3643 5.99148 69.3643 5.41215C69.3643 4.83281 69.489 4.31948 69.7383 3.87215C69.995 3.42481 70.3433 3.07648 70.7833 2.82715C71.2307 2.57048 71.733 2.44215 72.2903 2.44215C72.855 2.44215 73.3537 2.56681 73.7863 2.81615C74.219 3.06548 74.5563 3.41748 74.7983 3.87215C75.0477 4.31948 75.1723 4.84381 75.1723 5.44515C75.1723 5.48915 75.1687 5.54048 75.1613 5.59915C75.1613 5.65781 75.1577 5.71281 75.1503 5.76415H70.1893V5.00515H74.6003L74.1713 5.26915C74.1787 4.89515 74.1017 4.56148 73.9403 4.26815C73.779 3.97481 73.5553 3.74748 73.2693 3.58615C72.9907 3.41748 72.6643 3.33315 72.2903 3.33315C71.9237 3.33315 71.5973 3.41748 71.3113 3.58615C71.0253 3.74748 70.8017 3.97848 70.6403 4.27915C70.479 4.57248 70.3983 4.90981 70.3983 5.29115V5.46715C70.3983 5.85581 70.4863 6.20415 70.6623 6.51215C70.8457 6.81282 71.0987 7.04748 71.4213 7.21615C71.744 7.38482 72.1143 7.46915 72.5323 7.46915C72.877 7.46915 73.1887 7.41048 73.4673 7.29315C73.7533 7.17582 74.0027 6.99982 74.2153 6.76515L74.7983 7.44715C74.5343 7.75515 74.2043 7.98982 73.8083 8.15115C73.4197 8.31248 72.9833 8.39315 72.4993 8.39315ZM76.2207 9.95515L76.7707 7.73315L76.9137 8.37115C76.701 8.37115 76.5214 8.30515 76.3747 8.17315C76.2354 8.04115 76.1657 7.86148 76.1657 7.63415C76.1657 7.41415 76.2354 7.23448 76.3747 7.09515C76.5214 6.95582 76.6974 6.88615 76.9027 6.88615C77.1154 6.88615 77.2877 6.95948 77.4197 7.10615C77.5517 7.24548 77.6177 7.42148 77.6177 7.63415C77.6177 7.70748 77.6104 7.78082 77.5957 7.85415C77.5884 7.92015 77.57 8.00082 77.5407 8.09615C77.5187 8.18415 77.482 8.29415 77.4307 8.42615L76.9137 9.95515H76.2207ZM82.239 8.32715V0.627148H85.693C86.5803 0.627148 87.2623 0.806815 87.739 1.16615C88.2157 1.51815 88.454 2.00215 88.454 2.61815C88.454 3.03615 88.3587 3.38815 88.168 3.67415C87.9847 3.96015 87.7353 4.18015 87.42 4.33415C87.1047 4.48815 86.7637 4.56515 86.397 4.56515L86.595 4.23515C87.035 4.23515 87.4237 4.31215 87.761 4.46615C88.0983 4.62015 88.366 4.84748 88.564 5.14815C88.762 5.44148 88.861 5.80815 88.861 6.24815C88.861 6.90815 88.6117 7.42148 88.113 7.78815C87.6217 8.14748 86.8883 8.32715 85.913 8.32715H82.239ZM83.339 7.43615H85.869C86.4777 7.43615 86.9433 7.33348 87.266 7.12815C87.5887 6.92282 87.75 6.60015 87.75 6.16015C87.75 5.71281 87.5887 5.38648 87.266 5.18115C86.9433 4.97581 86.4777 4.87315 85.869 4.87315H83.24V3.98215H85.594C86.1513 3.98215 86.584 3.87948 86.892 3.67415C87.2 3.46881 87.354 3.16081 87.354 2.75015C87.354 2.33948 87.2 2.03148 86.892 1.82615C86.584 1.62081 86.1513 1.51815 85.594 1.51815H83.339V7.43615ZM93.0062 8.39315C92.3828 8.39315 91.8328 8.26482 91.3562 8.00815C90.8868 7.75148 90.5202 7.39948 90.2562 6.95215C89.9995 6.50482 89.8712 5.99148 89.8712 5.41215C89.8712 4.83281 89.9958 4.31948 90.2452 3.87215C90.5018 3.42481 90.8502 3.07648 91.2902 2.82715C91.7375 2.57048 92.2398 2.44215 92.7972 2.44215C93.3618 2.44215 93.8605 2.56681 94.2932 2.81615C94.7258 3.06548 95.0632 3.41748 95.3052 3.87215C95.5545 4.31948 95.6792 4.84381 95.6792 5.44515C95.6792 5.48915 95.6755 5.54048 95.6682 5.59915C95.6682 5.65781 95.6645 5.71281 95.6572 5.76415H90.6962V5.00515H95.1072L94.6782 5.26915C94.6855 4.89515 94.6085 4.56148 94.4472 4.26815C94.2858 3.97481 94.0622 3.74748 93.7762 3.58615C93.4975 3.41748 93.1712 3.33315 92.7972 3.33315C92.4305 3.33315 92.1042 3.41748 91.8182 3.58615C91.5322 3.74748 91.3085 3.97848 91.1472 4.27915C90.9858 4.57248 90.9052 4.90981 90.9052 5.29115V5.46715C90.9052 5.85581 90.9932 6.20415 91.1692 6.51215C91.3525 6.81282 91.6055 7.04748 91.9282 7.21615C92.2508 7.38482 92.6212 7.46915 93.0392 7.46915C93.3838 7.46915 93.6955 7.41048 93.9742 7.29315C94.2602 7.17582 94.5095 6.99982 94.7222 6.76515L95.3052 7.44715C95.0412 7.75515 94.7112 7.98982 94.3152 8.15115C93.9265 8.31248 93.4902 8.39315 93.0062 8.39315ZM99.1475 8.39315C98.5609 8.39315 98.1062 8.23548 97.7835 7.92015C97.4609 7.60482 97.2995 7.15382 97.2995 6.56715V1.22115H98.3555V6.52315C98.3555 6.83848 98.4325 7.08048 98.5865 7.24915C98.7479 7.41782 98.9752 7.50215 99.2685 7.50215C99.5985 7.50215 99.8735 7.41048 100.094 7.22715L100.424 7.98615C100.262 8.12548 100.068 8.22815 99.8405 8.29415C99.6205 8.36015 99.3895 8.39315 99.1475 8.39315ZM96.3095 3.36615V2.49715H100.028V3.36615H96.3095ZM103.563 8.39315C102.976 8.39315 102.521 8.23548 102.199 7.92015C101.876 7.60482 101.715 7.15382 101.715 6.56715V1.22115H102.771V6.52315C102.771 6.83848 102.848 7.08048 103.002 7.24915C103.163 7.41782 103.39 7.50215 103.684 7.50215C104.014 7.50215 104.289 7.41048 104.509 7.22715L104.839 7.98615C104.677 8.12548 104.483 8.22815 104.256 8.29415C104.036 8.36015 103.805 8.39315 103.563 8.39315ZM100.725 3.36615V2.49715H104.443V3.36615H100.725ZM108.518 8.39315C107.895 8.39315 107.345 8.26482 106.868 8.00815C106.399 7.75148 106.032 7.39948 105.768 6.95215C105.511 6.50482 105.383 5.99148 105.383 5.41215C105.383 4.83281 105.508 4.31948 105.757 3.87215C106.014 3.42481 106.362 3.07648 106.802 2.82715C107.249 2.57048 107.752 2.44215 108.309 2.44215C108.874 2.44215 109.372 2.56681 109.805 2.81615C110.238 3.06548 110.575 3.41748 110.817 3.87215C111.066 4.31948 111.191 4.84381 111.191 5.44515C111.191 5.48915 111.187 5.54048 111.18 5.59915C111.18 5.65781 111.176 5.71281 111.169 5.76415H106.208V5.00515H110.619L110.19 5.26915C110.197 4.89515 110.12 4.56148 109.959 4.26815C109.798 3.97481 109.574 3.74748 109.288 3.58615C109.009 3.41748 108.683 3.33315 108.309 3.33315C107.942 3.33315 107.616 3.41748 107.33 3.58615C107.044 3.74748 106.82 3.97848 106.659 4.27915C106.498 4.57248 106.417 4.90981 106.417 5.29115V5.46715C106.417 5.85581 106.505 6.20415 106.681 6.51215C106.864 6.81282 107.117 7.04748 107.44 7.21615C107.763 7.38482 108.133 7.46915 108.551 7.46915C108.896 7.46915 109.207 7.41048 109.486 7.29315C109.772 7.17582 110.021 6.99982 110.234 6.76515L110.817 7.44715C110.553 7.75515 110.223 7.98982 109.827 8.15115C109.438 8.31248 109.002 8.39315 108.518 8.39315ZM112.657 8.32715V2.49715H113.669V4.08115L113.57 3.68515C113.732 3.28181 114.003 2.97381 114.384 2.76115C114.766 2.54848 115.235 2.44215 115.792 2.44215V3.46515C115.748 3.45781 115.704 3.45415 115.66 3.45415C115.624 3.45415 115.587 3.45415 115.55 3.45415C114.986 3.45415 114.538 3.62281 114.208 3.96015C113.878 4.29748 113.713 4.78515 113.713 5.42315V8.32715H112.657ZM122.521 8.41515C121.934 8.41515 121.373 8.32715 120.838 8.15115C120.303 7.96782 119.881 7.73315 119.573 7.44715L119.98 6.58915C120.273 6.84582 120.647 7.05848 121.102 7.22715C121.557 7.39582 122.03 7.48015 122.521 7.48015C122.968 7.48015 123.331 7.42882 123.61 7.32615C123.889 7.22348 124.094 7.08415 124.226 6.90815C124.358 6.72481 124.424 6.51948 124.424 6.29215C124.424 6.02815 124.336 5.81548 124.16 5.65415C123.991 5.49281 123.768 5.36448 123.489 5.26915C123.218 5.16648 122.917 5.07848 122.587 5.00515C122.257 4.93181 121.923 4.84748 121.586 4.75215C121.256 4.64948 120.952 4.52115 120.673 4.36715C120.402 4.21315 120.182 4.00781 120.013 3.75115C119.844 3.48715 119.76 3.14981 119.76 2.73915C119.76 2.34315 119.863 1.98015 120.068 1.65015C120.281 1.31281 120.603 1.04515 121.036 0.847148C121.476 0.641815 122.033 0.539148 122.708 0.539148C123.155 0.539148 123.599 0.597815 124.039 0.715148C124.479 0.832481 124.86 1.00115 125.183 1.22115L124.82 2.10115C124.49 1.88115 124.142 1.72348 123.775 1.62815C123.408 1.52548 123.053 1.47415 122.708 1.47415C122.275 1.47415 121.92 1.52915 121.641 1.63915C121.362 1.74915 121.157 1.89581 121.025 2.07915C120.9 2.26248 120.838 2.46781 120.838 2.69515C120.838 2.96648 120.922 3.18281 121.091 3.34415C121.267 3.50548 121.491 3.63381 121.762 3.72915C122.041 3.82448 122.345 3.91248 122.675 3.99315C123.005 4.06648 123.335 4.15082 123.665 4.24615C124.002 4.34148 124.307 4.46615 124.578 4.62015C124.857 4.77415 125.08 4.97948 125.249 5.23615C125.418 5.49281 125.502 5.82282 125.502 6.22615C125.502 6.61481 125.396 6.97781 125.183 7.31515C124.97 7.64515 124.64 7.91282 124.193 8.11815C123.753 8.31615 123.196 8.41515 122.521 8.41515ZM129.551 8.39315C128.928 8.39315 128.378 8.26482 127.901 8.00815C127.432 7.75148 127.065 7.39948 126.801 6.95215C126.544 6.50482 126.416 5.99148 126.416 5.41215C126.416 4.83281 126.541 4.31948 126.79 3.87215C127.047 3.42481 127.395 3.07648 127.835 2.82715C128.282 2.57048 128.785 2.44215 129.342 2.44215C129.907 2.44215 130.405 2.56681 130.838 2.81615C131.271 3.06548 131.608 3.41748 131.85 3.87215C132.099 4.31948 132.224 4.84381 132.224 5.44515C132.224 5.48915 132.22 5.54048 132.213 5.59915C132.213 5.65781 132.209 5.71281 132.202 5.76415H127.241V5.00515H131.652L131.223 5.26915C131.23 4.89515 131.153 4.56148 130.992 4.26815C130.831 3.97481 130.607 3.74748 130.321 3.58615C130.042 3.41748 129.716 3.33315 129.342 3.33315C128.975 3.33315 128.649 3.41748 128.363 3.58615C128.077 3.74748 127.853 3.97848 127.692 4.27915C127.531 4.57248 127.45 4.90981 127.45 5.29115V5.46715C127.45 5.85581 127.538 6.20415 127.714 6.51215C127.897 6.81282 128.15 7.04748 128.473 7.21615C128.796 7.38482 129.166 7.46915 129.584 7.46915C129.929 7.46915 130.24 7.41048 130.519 7.29315C130.805 7.17582 131.054 6.99982 131.267 6.76515L131.85 7.44715C131.586 7.75515 131.256 7.98982 130.86 8.15115C130.471 8.31248 130.035 8.39315 129.551 8.39315ZM133.69 8.32715V2.49715H134.702V4.08115L134.603 3.68515C134.765 3.28181 135.036 2.97381 135.417 2.76115C135.799 2.54848 136.268 2.44215 136.825 2.44215V3.46515C136.781 3.45781 136.737 3.45415 136.693 3.45415C136.657 3.45415 136.62 3.45415 136.583 3.45415C136.019 3.45415 135.571 3.62281 135.241 3.96015C134.911 4.29748 134.746 4.78515 134.746 5.42315V8.32715H133.69ZM139.892 8.32715L137.34 2.49715H138.44L140.706 7.77715H140.178L142.488 2.49715H143.522L140.97 8.32715H139.892ZM144.508 8.32715V2.49715H145.564V8.32715H144.508ZM145.036 1.37515C144.831 1.37515 144.658 1.30915 144.519 1.17715C144.387 1.04515 144.321 0.883815 144.321 0.693148C144.321 0.495148 144.387 0.330148 144.519 0.198148C144.658 0.0661481 144.831 0.000148118 145.036 0.000148118C145.241 0.000148118 145.41 0.0661481 145.542 0.198148C145.681 0.322815 145.751 0.480481 145.751 0.671148C145.751 0.869148 145.685 1.03781 145.553 1.17715C145.421 1.30915 145.249 1.37515 145.036 1.37515ZM150.693 2.44215C151.17 2.44215 151.588 2.53381 151.947 2.71715C152.314 2.90048 152.6 3.17915 152.805 3.55315C153.01 3.92715 153.113 4.40015 153.113 4.97215V8.32715H152.057V5.09315C152.057 4.52848 151.918 4.10315 151.639 3.81715C151.368 3.53115 150.983 3.38815 150.484 3.38815C150.11 3.38815 149.784 3.46148 149.505 3.60815C149.226 3.75481 149.01 3.97115 148.856 4.25715C148.709 4.54315 148.636 4.89881 148.636 5.32415V8.32715H147.58V2.49715H148.592V4.07015L148.427 3.65215C148.618 3.27081 148.911 2.97381 149.307 2.76115C149.703 2.54848 150.165 2.44215 150.693 2.44215ZM157.619 10.5271C157.084 10.5271 156.563 10.4501 156.057 10.2961C155.559 10.1495 155.152 9.93682 154.836 9.65815L155.342 8.84415C155.614 9.07882 155.947 9.26215 156.343 9.39415C156.739 9.53348 157.154 9.60315 157.586 9.60315C158.276 9.60315 158.782 9.44182 159.104 9.11915C159.427 8.79648 159.588 8.30515 159.588 7.64515V6.41315L159.698 5.25815L159.643 4.09215V2.49715H160.644V7.53515C160.644 8.56182 160.388 9.31715 159.874 9.80115C159.361 10.2851 158.609 10.5271 157.619 10.5271ZM157.487 8.08515C156.923 8.08515 156.417 7.96782 155.969 7.73315C155.529 7.49115 155.177 7.15748 154.913 6.73215C154.657 6.30681 154.528 5.81548 154.528 5.25815C154.528 4.69348 154.657 4.20215 154.913 3.78415C155.177 3.35881 155.529 3.02881 155.969 2.79415C156.417 2.55948 156.923 2.44215 157.487 2.44215C157.986 2.44215 158.441 2.54481 158.851 2.75015C159.262 2.94815 159.588 3.25615 159.83 3.67415C160.08 4.09215 160.204 4.62015 160.204 5.25815C160.204 5.88882 160.08 6.41315 159.83 6.83115C159.588 7.24915 159.262 7.56448 158.851 7.77715C158.441 7.98248 157.986 8.08515 157.487 8.08515ZM157.608 7.16115C157.997 7.16115 158.342 7.08048 158.642 6.91915C158.943 6.75782 159.178 6.53415 159.346 6.24815C159.522 5.96215 159.61 5.63215 159.61 5.25815C159.61 4.88415 159.522 4.55415 159.346 4.26815C159.178 3.98215 158.943 3.76215 158.642 3.60815C158.342 3.44681 157.997 3.36615 157.608 3.36615C157.22 3.36615 156.871 3.44681 156.563 3.60815C156.263 3.76215 156.024 3.98215 155.848 4.26815C155.68 4.55415 155.595 4.88415 155.595 5.25815C155.595 5.63215 155.68 5.96215 155.848 6.24815C156.024 6.53415 156.263 6.75782 156.563 6.91915C156.871 7.08048 157.22 7.16115 157.608 7.16115ZM164.615 5.67615V4.93915H170.115V5.67615H164.615ZM4.40023 23.3931C3.83557 23.3931 3.32957 23.2685 2.88223 23.0191C2.44223 22.7698 2.0939 22.4215 1.83723 21.9741C1.58057 21.5268 1.45223 21.0061 1.45223 20.4121C1.45223 19.8181 1.58057 19.3011 1.83723 18.8611C2.0939 18.4138 2.44223 18.0655 2.88223 17.8161C3.32957 17.5668 3.83557 17.4421 4.40023 17.4421C4.89157 17.4421 5.33523 17.5521 5.73123 17.7721C6.12723 17.9921 6.44257 18.3221 6.67723 18.7621C6.91923 19.2021 7.04023 19.7521 7.04023 20.4121C7.04023 21.0721 6.9229 21.6221 6.68823 22.0621C6.4609 22.5021 6.14923 22.8358 5.75323 23.0631C5.35723 23.2831 4.90623 23.3931 4.40023 23.3931ZM4.48823 22.4691C4.8549 22.4691 5.1849 22.3848 5.47823 22.2161C5.7789 22.0475 6.01357 21.8091 6.18223 21.5011C6.35823 21.1858 6.44623 20.8228 6.44623 20.4121C6.44623 19.9941 6.35823 19.6348 6.18223 19.3341C6.01357 19.0261 5.7789 18.7878 5.47823 18.6191C5.1849 18.4505 4.8549 18.3661 4.48823 18.3661C4.11423 18.3661 3.78057 18.4505 3.48723 18.6191C3.1939 18.7878 2.95923 19.0261 2.78323 19.3341C2.60723 19.6348 2.51923 19.9941 2.51923 20.4121C2.51923 20.8228 2.60723 21.1858 2.78323 21.5011C2.95923 21.8091 3.1939 22.0475 3.48723 22.2161C3.78057 22.3848 4.11423 22.4691 4.48823 22.4691ZM6.47923 23.3271V21.7541L6.54523 20.4011L6.43523 19.0481V15.1651H7.49123V23.3271H6.47923ZM11.9423 23.3931C11.4436 23.3931 11.0036 23.3015 10.6223 23.1181C10.2483 22.9348 9.95495 22.6561 9.74228 22.2821C9.53695 21.9008 9.43428 21.4241 9.43428 20.8521V17.4971H10.4903V20.7311C10.4903 21.3031 10.6259 21.7321 10.8973 22.0181C11.1759 22.3041 11.5646 22.4471 12.0633 22.4471C12.4299 22.4471 12.7489 22.3738 13.0203 22.2271C13.2916 22.0731 13.5006 21.8531 13.6473 21.5671C13.7939 21.2738 13.8673 20.9218 13.8673 20.5111V17.4971H14.9233V23.3271H13.9223V21.7541L14.0873 22.1721C13.8966 22.5608 13.6106 22.8615 13.2293 23.0741C12.8479 23.2868 12.4189 23.3931 11.9423 23.3931ZM16.9336 23.3271V17.4971H17.9456V19.0811L17.8466 18.6851C18.008 18.2818 18.2793 17.9738 18.6606 17.7611C19.042 17.5485 19.5113 17.4421 20.0686 17.4421V18.4651C20.0246 18.4578 19.9806 18.4541 19.9366 18.4541C19.9 18.4541 19.8633 18.4541 19.8266 18.4541C19.262 18.4541 18.8146 18.6228 18.4846 18.9601C18.1546 19.2975 17.9896 19.7851 17.9896 20.4231V23.3271H16.9336ZM24.5595 23.3271V22.0951L24.5045 21.8641V19.7631C24.5045 19.3158 24.3725 18.9711 24.1085 18.7291C23.8518 18.4798 23.4631 18.3551 22.9425 18.3551C22.5978 18.3551 22.2605 18.4138 21.9305 18.5311C21.6005 18.6411 21.3218 18.7915 21.0945 18.9821L20.6545 18.1901C20.9551 17.9481 21.3145 17.7648 21.7325 17.6401C22.1578 17.5081 22.6015 17.4421 23.0635 17.4421C23.8628 17.4421 24.4788 17.6365 24.9115 18.0251C25.3441 18.4138 25.5605 19.0078 25.5605 19.8071V23.3271H24.5595ZM22.6455 23.3931C22.2128 23.3931 21.8315 23.3198 21.5015 23.1731C21.1788 23.0265 20.9295 22.8248 20.7535 22.5681C20.5775 22.3041 20.4895 22.0071 20.4895 21.6771C20.4895 21.3618 20.5628 21.0758 20.7095 20.8191C20.8635 20.5625 21.1091 20.3571 21.4465 20.2031C21.7911 20.0491 22.2531 19.9721 22.8325 19.9721H24.6805V20.7311H22.8765C22.3485 20.7311 21.9928 20.8191 21.8095 20.9951C21.6261 21.1711 21.5345 21.3838 21.5345 21.6331C21.5345 21.9191 21.6481 22.1501 21.8755 22.3261C22.1028 22.4948 22.4181 22.5791 22.8215 22.5791C23.2175 22.5791 23.5621 22.4911 23.8555 22.3151C24.1561 22.1391 24.3725 21.8825 24.5045 21.5451L24.7135 22.2711C24.5741 22.6158 24.3285 22.8908 23.9765 23.0961C23.6245 23.2941 23.1808 23.3931 22.6455 23.3931ZM30.6057 23.3931C30.107 23.3931 29.656 23.2831 29.2527 23.0631C28.8567 22.8358 28.5413 22.5021 28.3067 22.0621C28.0793 21.6221 27.9657 21.0721 27.9657 20.4121C27.9657 19.7521 28.083 19.2021 28.3177 18.7621C28.5597 18.3221 28.8787 17.9921 29.2747 17.7721C29.678 17.5521 30.1217 17.4421 30.6057 17.4421C31.1777 17.4421 31.6837 17.5668 32.1237 17.8161C32.5637 18.0655 32.912 18.4138 33.1687 18.8611C33.4253 19.3011 33.5537 19.8181 33.5537 20.4121C33.5537 21.0061 33.4253 21.5268 33.1687 21.9741C32.912 22.4215 32.5637 22.7698 32.1237 23.0191C31.6837 23.2685 31.1777 23.3931 30.6057 23.3931ZM27.5147 23.3271V15.1651H28.5707V19.0481L28.4607 20.4011L28.5267 21.7541V23.3271H27.5147ZM30.5177 22.4691C30.8917 22.4691 31.2253 22.3848 31.5187 22.2161C31.8193 22.0475 32.054 21.8091 32.2227 21.5011C32.3987 21.1858 32.4867 20.8228 32.4867 20.4121C32.4867 19.9941 32.3987 19.6348 32.2227 19.3341C32.054 19.0261 31.8193 18.7878 31.5187 18.6191C31.2253 18.4505 30.8917 18.3661 30.5177 18.3661C30.151 18.3661 29.8173 18.4505 29.5167 18.6191C29.2233 18.7878 28.9887 19.0261 28.8127 19.3341C28.644 19.6348 28.5597 19.9941 28.5597 20.4121C28.5597 20.8228 28.644 21.1858 28.8127 21.5011C28.9887 21.8091 29.2233 22.0475 29.5167 22.2161C29.8173 22.3848 30.151 22.4691 30.5177 22.4691ZM35.0127 23.3271V15.1651H36.0687V23.3271H35.0127ZM40.681 23.3931C40.0577 23.3931 39.5077 23.2648 39.031 23.0081C38.5617 22.7515 38.195 22.3995 37.931 21.9521C37.6743 21.5048 37.546 20.9915 37.546 20.4121C37.546 19.8328 37.6707 19.3195 37.92 18.8721C38.1767 18.4248 38.525 18.0765 38.965 17.8271C39.4123 17.5705 39.9147 17.4421 40.472 17.4421C41.0367 17.4421 41.5353 17.5668 41.968 17.8161C42.4007 18.0655 42.738 18.4175 42.98 18.8721C43.2293 19.3195 43.354 19.8438 43.354 20.4451C43.354 20.4891 43.3503 20.5405 43.343 20.5991C43.343 20.6578 43.3393 20.7128 43.332 20.7641H38.371V20.0051H42.782L42.353 20.2691C42.3603 19.8951 42.2833 19.5615 42.122 19.2681C41.9607 18.9748 41.737 18.7475 41.451 18.5861C41.1723 18.4175 40.846 18.3331 40.472 18.3331C40.1053 18.3331 39.779 18.4175 39.493 18.5861C39.207 18.7475 38.9833 18.9785 38.822 19.2791C38.6607 19.5725 38.58 19.9098 38.58 20.2911V20.4671C38.58 20.8558 38.668 21.2041 38.844 21.5121C39.0273 21.8128 39.2803 22.0475 39.603 22.2161C39.9257 22.3848 40.296 22.4691 40.714 22.4691C41.0587 22.4691 41.3703 22.4105 41.649 22.2931C41.935 22.1758 42.1843 21.9998 42.397 21.7651L42.98 22.4471C42.716 22.7551 42.386 22.9898 41.99 23.1511C41.6013 23.3125 41.165 23.3931 40.681 23.3931ZM44.4023 24.9551L44.9523 22.7331L45.0953 23.3711C44.8827 23.3711 44.703 23.3051 44.5563 23.1731C44.417 23.0411 44.3473 22.8615 44.3473 22.6341C44.3473 22.4141 44.417 22.2345 44.5563 22.0951C44.703 21.9558 44.879 21.8861 45.0843 21.8861C45.297 21.8861 45.4693 21.9595 45.6013 22.1061C45.7333 22.2455 45.7993 22.4215 45.7993 22.6341C45.7993 22.7075 45.792 22.7808 45.7773 22.8541C45.77 22.9201 45.7517 23.0008 45.7223 23.0961C45.7003 23.1841 45.6637 23.2941 45.6123 23.4261L45.0953 24.9551H44.4023ZM50.2666 23.3271V15.1651H51.3226V23.3271H50.2666ZM55.9349 23.3931C55.3116 23.3931 54.7616 23.2648 54.2849 23.0081C53.8156 22.7515 53.4489 22.3995 53.1849 21.9521C52.9282 21.5048 52.7999 20.9915 52.7999 20.4121C52.7999 19.8328 52.9246 19.3195 53.1739 18.8721C53.4306 18.4248 53.7789 18.0765 54.2189 17.8271C54.6662 17.5705 55.1686 17.4421 55.7259 17.4421C56.2906 17.4421 56.7892 17.5668 57.2219 17.8161C57.6546 18.0655 57.9919 18.4175 58.2339 18.8721C58.4832 19.3195 58.6079 19.8438 58.6079 20.4451C58.6079 20.4891 58.6042 20.5405 58.5969 20.5991C58.5969 20.6578 58.5932 20.7128 58.5859 20.7641H53.6249V20.0051H58.0359L57.6069 20.2691C57.6142 19.8951 57.5372 19.5615 57.3759 19.2681C57.2146 18.9748 56.9909 18.7475 56.7049 18.5861C56.4262 18.4175 56.0999 18.3331 55.7259 18.3331C55.3592 18.3331 55.0329 18.4175 54.7469 18.5861C54.4609 18.7475 54.2372 18.9785 54.0759 19.2791C53.9146 19.5725 53.8339 19.9098 53.8339 20.2911V20.4671C53.8339 20.8558 53.9219 21.2041 54.0979 21.5121C54.2812 21.8128 54.5342 22.0475 54.8569 22.2161C55.1796 22.3848 55.5499 22.4691 55.9679 22.4691C56.3126 22.4691 56.6242 22.4105 56.9029 22.2931C57.1889 22.1758 57.4382 21.9998 57.6509 21.7651L58.2339 22.4471C57.9699 22.7551 57.6399 22.9898 57.2439 23.1511C56.8552 23.3125 56.4189 23.3931 55.9349 23.3931ZM63.5321 23.3271V22.0951L63.4771 21.8641V19.7631C63.4771 19.3158 63.3451 18.9711 63.0811 18.7291C62.8244 18.4798 62.4358 18.3551 61.9151 18.3551C61.5704 18.3551 61.2331 18.4138 60.9031 18.5311C60.5731 18.6411 60.2944 18.7915 60.0671 18.9821L59.6271 18.1901C59.9278 17.9481 60.2871 17.7648 60.7051 17.6401C61.1304 17.5081 61.5741 17.4421 62.0361 17.4421C62.8354 17.4421 63.4514 17.6365 63.8841 18.0251C64.3168 18.4138 64.5331 19.0078 64.5331 19.8071V23.3271H63.5321ZM61.6181 23.3931C61.1854 23.3931 60.8041 23.3198 60.4741 23.1731C60.1514 23.0265 59.9021 22.8248 59.7261 22.5681C59.5501 22.3041 59.4621 22.0071 59.4621 21.6771C59.4621 21.3618 59.5354 21.0758 59.6821 20.8191C59.8361 20.5625 60.0818 20.3571 60.4191 20.2031C60.7638 20.0491 61.2258 19.9721 61.8051 19.9721H63.6531V20.7311H61.8491C61.3211 20.7311 60.9654 20.8191 60.7821 20.9951C60.5988 21.1711 60.5071 21.3838 60.5071 21.6331C60.5071 21.9191 60.6208 22.1501 60.8481 22.3261C61.0754 22.4948 61.3908 22.5791 61.7941 22.5791C62.1901 22.5791 62.5348 22.4911 62.8281 22.3151C63.1288 22.1391 63.3451 21.8825 63.4771 21.5451L63.6861 22.2711C63.5468 22.6158 63.3011 22.8908 62.9491 23.0961C62.5971 23.2941 62.1534 23.3931 61.6181 23.3931ZM67.3453 21.9191L67.3673 20.5661L70.7223 17.4971H71.9983L69.4243 20.0271L68.8523 20.5111L67.3453 21.9191ZM66.4873 23.3271V15.1651H67.5433V23.3271H66.4873ZM70.9423 23.3271L68.6543 20.4891L69.3363 19.6421L72.2403 23.3271H70.9423ZM72.6446 20.7641V19.8511H75.6036V20.7641H72.6446ZM80.3205 23.3931C79.8365 23.3931 79.3928 23.2831 78.9895 23.0631C78.5935 22.8358 78.2745 22.5021 78.0325 22.0621C77.7978 21.6221 77.6805 21.0721 77.6805 20.4121C77.6805 19.7521 77.7942 19.2021 78.0215 18.7621C78.2562 18.3221 78.5715 17.9921 78.9675 17.7721C79.3708 17.5521 79.8218 17.4421 80.3205 17.4421C80.8925 17.4421 81.3985 17.5668 81.8385 17.8161C82.2785 18.0655 82.6268 18.4138 82.8835 18.8611C83.1402 19.3011 83.2685 19.8181 83.2685 20.4121C83.2685 21.0061 83.1402 21.5268 82.8835 21.9741C82.6268 22.4215 82.2785 22.7698 81.8385 23.0191C81.3985 23.2685 80.8925 23.3931 80.3205 23.3931ZM77.2295 25.4611V17.4971H78.2415V19.0701L78.1755 20.4231L78.2855 21.7761V25.4611H77.2295ZM80.2325 22.4691C80.6065 22.4691 80.9402 22.3848 81.2335 22.2161C81.5342 22.0475 81.7688 21.8091 81.9375 21.5011C82.1135 21.1858 82.2015 20.8228 82.2015 20.4121C82.2015 19.9941 82.1135 19.6348 81.9375 19.3341C81.7688 19.0261 81.5342 18.7878 81.2335 18.6191C80.9402 18.4505 80.6065 18.3661 80.2325 18.3661C79.8658 18.3661 79.5322 18.4505 79.2315 18.6191C78.9382 18.7878 78.7035 19.0261 78.5275 19.3341C78.3588 19.6348 78.2745 19.9941 78.2745 20.4121C78.2745 20.8228 78.3588 21.1858 78.5275 21.5011C78.7035 21.8091 78.9382 22.0475 79.2315 22.2161C79.5322 22.3848 79.8658 22.4691 80.2325 22.4691ZM84.7276 23.3271V17.4971H85.7396V19.0811L85.6406 18.6851C85.8019 18.2818 86.0732 17.9738 86.4546 17.7611C86.8359 17.5485 87.3052 17.4421 87.8626 17.4421V18.4651C87.8186 18.4578 87.7746 18.4541 87.7306 18.4541C87.6939 18.4541 87.6572 18.4541 87.6206 18.4541C87.0559 18.4541 86.6086 18.6228 86.2786 18.9601C85.9486 19.2975 85.7836 19.7851 85.7836 20.4231V23.3271H84.7276ZM91.6074 23.3931C91.0207 23.3931 90.5 23.2648 90.0454 23.0081C89.5907 22.7515 89.2314 22.3995 88.9674 21.9521C88.7034 21.4975 88.5714 20.9841 88.5714 20.4121C88.5714 19.8328 88.7034 19.3195 88.9674 18.8721C89.2314 18.4248 89.5907 18.0765 90.0454 17.8271C90.5 17.5705 91.0207 17.4421 91.6074 17.4421C92.1867 17.4421 92.7037 17.5705 93.1584 17.8271C93.6204 18.0765 93.9797 18.4248 94.2364 18.8721C94.5004 19.3121 94.6324 19.8255 94.6324 20.4121C94.6324 20.9915 94.5004 21.5048 94.2364 21.9521C93.9797 22.3995 93.6204 22.7515 93.1584 23.0081C92.7037 23.2648 92.1867 23.3931 91.6074 23.3931ZM91.6074 22.4691C91.9814 22.4691 92.315 22.3848 92.6084 22.2161C92.909 22.0475 93.1437 21.8091 93.3124 21.5011C93.481 21.1858 93.5654 20.8228 93.5654 20.4121C93.5654 19.9941 93.481 19.6348 93.3124 19.3341C93.1437 19.0261 92.909 18.7878 92.6084 18.6191C92.315 18.4505 91.9814 18.3661 91.6074 18.3661C91.2334 18.3661 90.8997 18.4505 90.6064 18.6191C90.313 18.7878 90.0784 19.0261 89.9024 19.3341C89.7264 19.6348 89.6384 19.9941 89.6384 20.4121C89.6384 20.8228 89.7264 21.1858 89.9024 21.5011C90.0784 21.8091 90.313 22.0475 90.6064 22.2161C90.8997 22.3848 91.2334 22.4691 91.6074 22.4691ZM98.5898 23.3931C98.0031 23.3931 97.4825 23.2648 97.0278 23.0081C96.5731 22.7515 96.2138 22.3995 95.9498 21.9521C95.6858 21.4975 95.5538 20.9841 95.5538 20.4121C95.5538 19.8328 95.6858 19.3195 95.9498 18.8721C96.2138 18.4248 96.5731 18.0765 97.0278 17.8271C97.4825 17.5705 98.0031 17.4421 98.5898 17.4421C99.1691 17.4421 99.6861 17.5705 100.141 17.8271C100.603 18.0765 100.962 18.4248 101.219 18.8721C101.483 19.3121 101.615 19.8255 101.615 20.4121C101.615 20.9915 101.483 21.5048 101.219 21.9521C100.962 22.3995 100.603 22.7515 100.141 23.0081C99.6861 23.2648 99.1691 23.3931 98.5898 23.3931ZM98.5898 22.4691C98.9638 22.4691 99.2975 22.3848 99.5908 22.2161C99.8915 22.0475 100.126 21.8091 100.295 21.5011C100.463 21.1858 100.548 20.8228 100.548 20.4121C100.548 19.9941 100.463 19.6348 100.295 19.3341C100.126 19.0261 99.8915 18.7878 99.5908 18.6191C99.2975 18.4505 98.9638 18.3661 98.5898 18.3661C98.2158 18.3661 97.8821 18.4505 97.5888 18.6191C97.2955 18.7878 97.0608 19.0261 96.8848 19.3341C96.7088 19.6348 96.6208 19.9941 96.6208 20.4121C96.6208 20.8228 96.7088 21.1858 96.8848 21.5011C97.0608 21.8091 97.2955 22.0475 97.5888 22.2161C97.8821 22.3848 98.2158 22.4691 98.5898 22.4691ZM103.229 23.3271V16.9801C103.229 16.4081 103.394 15.9535 103.724 15.6161C104.062 15.2715 104.538 15.0991 105.154 15.0991C105.382 15.0991 105.598 15.1285 105.803 15.1871C106.016 15.2385 106.196 15.3228 106.342 15.4401L106.023 16.2431C105.913 16.1551 105.789 16.0891 105.649 16.0451C105.51 15.9938 105.363 15.9681 105.209 15.9681C104.901 15.9681 104.667 16.0561 104.505 16.2321C104.344 16.4008 104.263 16.6538 104.263 16.9911V17.7721L104.285 18.2561V23.3271H103.229ZM102.239 18.3661V17.4971H105.957V18.3661H102.239ZM112.318 23.3821C111.746 23.3821 111.233 23.2575 110.778 23.0081C110.331 22.7515 109.979 22.4031 109.722 21.9631C109.465 21.5158 109.337 21.0061 109.337 20.4341C109.337 19.8548 109.465 19.3451 109.722 18.9051C109.979 18.4651 110.331 18.1205 110.778 17.8711C111.233 17.6218 111.746 17.4971 112.318 17.4971C112.809 17.4971 113.253 17.5925 113.649 17.7831C114.045 17.9738 114.357 18.2598 114.584 18.6411L114.001 19.0371C113.803 18.7438 113.557 18.5275 113.264 18.3881C112.971 18.2488 112.652 18.1791 112.307 18.1791C111.896 18.1791 111.526 18.2745 111.196 18.4651C110.866 18.6485 110.606 18.9088 110.415 19.2461C110.224 19.5835 110.129 19.9795 110.129 20.4341C110.129 20.8888 110.224 21.2848 110.415 21.6221C110.606 21.9595 110.866 22.2235 111.196 22.4141C111.526 22.5975 111.896 22.6891 112.307 22.6891C112.652 22.6891 112.971 22.6195 113.264 22.4801C113.557 22.3408 113.803 22.1281 114.001 21.8421L114.584 22.2381C114.357 22.6121 114.045 22.8981 113.649 23.0961C113.253 23.2868 112.809 23.3821 112.318 23.3821ZM118.505 23.3821C118.014 23.3821 117.585 23.2905 117.218 23.1071C116.852 22.9238 116.566 22.6488 116.36 22.2821C116.162 21.9155 116.063 21.4571 116.063 20.9071V17.5521H116.844V20.8191C116.844 21.4351 116.995 21.9008 117.295 22.2161C117.603 22.5241 118.032 22.6781 118.582 22.6781C118.986 22.6781 119.334 22.5975 119.627 22.4361C119.928 22.2675 120.155 22.0255 120.309 21.7101C120.471 21.3948 120.551 21.0171 120.551 20.5771V17.5521H121.332V23.3271H120.584V21.7431L120.705 22.0291C120.522 22.4545 120.236 22.7881 119.847 23.0301C119.466 23.2648 119.019 23.3821 118.505 23.3821ZM126.49 23.3821C125.991 23.3821 125.54 23.2685 125.137 23.0411C124.734 22.8065 124.411 22.4728 124.169 22.0401C123.934 21.6001 123.817 21.0648 123.817 20.4341C123.817 19.8035 123.934 19.2718 124.169 18.8391C124.404 18.3991 124.723 18.0655 125.126 17.8381C125.529 17.6108 125.984 17.4971 126.49 17.4971C127.04 17.4971 127.531 17.6218 127.964 17.8711C128.404 18.1131 128.749 18.4578 128.998 18.9051C129.247 19.3451 129.372 19.8548 129.372 20.4341C129.372 21.0208 129.247 21.5341 128.998 21.9741C128.749 22.4141 128.404 22.7588 127.964 23.0081C127.531 23.2575 127.04 23.3821 126.49 23.3821ZM123.509 25.4611V17.5521H124.257V19.2901L124.18 20.4451L124.29 21.6111V25.4611H123.509ZM126.435 22.6891C126.846 22.6891 127.212 22.5975 127.535 22.4141C127.858 22.2235 128.114 21.9595 128.305 21.6221C128.496 21.2775 128.591 20.8815 128.591 20.4341C128.591 19.9868 128.496 19.5945 128.305 19.2571C128.114 18.9198 127.858 18.6558 127.535 18.4651C127.212 18.2745 126.846 18.1791 126.435 18.1791C126.024 18.1791 125.654 18.2745 125.324 18.4651C125.001 18.6558 124.745 18.9198 124.554 19.2571C124.371 19.5945 124.279 19.9868 124.279 20.4341C124.279 20.8815 124.371 21.2775 124.554 21.6221C124.745 21.9595 125.001 22.2235 125.324 22.4141C125.654 22.5975 126.024 22.6891 126.435 22.6891ZM132.515 23.3821C132.038 23.3821 131.587 23.3161 131.162 23.1841C130.737 23.0448 130.403 22.8725 130.161 22.6671L130.513 22.0511C130.748 22.2271 131.048 22.3811 131.415 22.5131C131.782 22.6378 132.167 22.7001 132.57 22.7001C133.12 22.7001 133.516 22.6158 133.758 22.4471C134 22.2711 134.121 22.0401 134.121 21.7541C134.121 21.5415 134.051 21.3765 133.912 21.2591C133.78 21.1345 133.604 21.0428 133.384 20.9841C133.164 20.9181 132.918 20.8631 132.647 20.8191C132.376 20.7751 132.104 20.7238 131.833 20.6651C131.569 20.6065 131.327 20.5221 131.107 20.4121C130.887 20.2948 130.707 20.1371 130.568 19.9391C130.436 19.7411 130.37 19.4771 130.37 19.1471C130.37 18.8318 130.458 18.5495 130.634 18.3001C130.81 18.0508 131.067 17.8565 131.404 17.7171C131.749 17.5705 132.167 17.4971 132.658 17.4971C133.032 17.4971 133.406 17.5485 133.78 17.6511C134.154 17.7465 134.462 17.8748 134.704 18.0361L134.363 18.6631C134.106 18.4871 133.831 18.3625 133.538 18.2891C133.245 18.2085 132.951 18.1681 132.658 18.1681C132.137 18.1681 131.752 18.2598 131.503 18.4431C131.261 18.6191 131.14 18.8465 131.14 19.1251C131.14 19.3451 131.206 19.5175 131.338 19.6421C131.477 19.7668 131.657 19.8658 131.877 19.9391C132.104 20.0051 132.35 20.0601 132.614 20.1041C132.885 20.1481 133.153 20.2031 133.417 20.2691C133.688 20.3278 133.934 20.4121 134.154 20.5221C134.381 20.6248 134.561 20.7751 134.693 20.9731C134.832 21.1638 134.902 21.4168 134.902 21.7321C134.902 22.0695 134.807 22.3628 134.616 22.6121C134.433 22.8541 134.161 23.0448 133.802 23.1841C133.45 23.3161 133.021 23.3821 132.515 23.3821ZM139.346 23.3271V16.8261C139.346 16.3128 139.496 15.8985 139.797 15.5831C140.098 15.2678 140.53 15.1101 141.095 15.1101C141.315 15.1101 141.528 15.1395 141.733 15.1981C141.938 15.2568 142.111 15.3485 142.25 15.4731L141.986 16.0561C141.876 15.9608 141.748 15.8911 141.601 15.8471C141.454 15.7958 141.297 15.7701 141.128 15.7701C140.798 15.7701 140.545 15.8618 140.369 16.0451C140.193 16.2285 140.105 16.4998 140.105 16.8591V17.7391L140.127 18.1021V23.3271H139.346ZM138.312 18.2011V17.5521H141.887V18.2011H138.312ZM145.199 23.3821C144.642 23.3821 144.139 23.2575 143.692 23.0081C143.252 22.7515 142.904 22.4031 142.647 21.9631C142.39 21.5158 142.262 21.0061 142.262 20.4341C142.262 19.8548 142.39 19.3451 142.647 18.9051C142.904 18.4651 143.252 18.1205 143.692 17.8711C144.132 17.6218 144.634 17.4971 145.199 17.4971C145.771 17.4971 146.277 17.6218 146.717 17.8711C147.164 18.1205 147.513 18.4651 147.762 18.9051C148.019 19.3451 148.147 19.8548 148.147 20.4341C148.147 21.0061 148.019 21.5158 147.762 21.9631C147.513 22.4031 147.164 22.7515 146.717 23.0081C146.27 23.2575 145.764 23.3821 145.199 23.3821ZM145.199 22.6891C145.617 22.6891 145.987 22.5975 146.31 22.4141C146.633 22.2235 146.886 21.9595 147.069 21.6221C147.26 21.2775 147.355 20.8815 147.355 20.4341C147.355 19.9795 147.26 19.5835 147.069 19.2461C146.886 18.9088 146.633 18.6485 146.31 18.4651C145.987 18.2745 145.621 18.1791 145.21 18.1791C144.799 18.1791 144.433 18.2745 144.11 18.4651C143.787 18.6485 143.531 18.9088 143.34 19.2461C143.149 19.5835 143.054 19.9795 143.054 20.4341C143.054 20.8815 143.149 21.2775 143.34 21.6221C143.531 21.9595 143.787 22.2235 144.11 22.4141C144.433 22.5975 144.796 22.6891 145.199 22.6891ZM149.741 23.3271V17.5521H150.489V19.1251L150.412 18.8501C150.574 18.4101 150.845 18.0765 151.226 17.8491C151.608 17.6145 152.081 17.4971 152.645 17.4971V18.2561C152.616 18.2561 152.587 18.2561 152.557 18.2561C152.528 18.2488 152.499 18.2451 152.469 18.2451C151.861 18.2451 151.384 18.4321 151.039 18.8061C150.695 19.1728 150.522 19.6971 150.522 20.3791V23.3271H149.741ZM1.22123 40.5161C0.986568 40.5161 0.762901 40.4831 0.550234 40.4171C0.330234 40.3585 0.146901 40.2668 0.000234336 40.1421L0.275234 39.5481C0.509901 39.7461 0.810568 39.8451 1.17723 39.8451C1.48523 39.8451 1.7199 39.7535 1.88123 39.5701C2.0499 39.3868 2.13423 39.1155 2.13423 38.7561V32.5521H2.91523V38.7561C2.91523 39.2915 2.76857 39.7168 2.47523 40.0321C2.18923 40.3548 1.77123 40.5161 1.22123 40.5161ZM2.53023 31.2761C2.3689 31.2761 2.23323 31.2211 2.12323 31.1111C2.01323 31.0011 1.95823 30.8691 1.95823 30.7151C1.95823 30.5611 2.01323 30.4328 2.12323 30.3301C2.23323 30.2201 2.3689 30.1651 2.53023 30.1651C2.69157 30.1651 2.82723 30.2165 2.93723 30.3191C3.04723 30.4218 3.10223 30.5501 3.10223 30.7041C3.10223 30.8655 3.04723 31.0011 2.93723 31.1111C2.83457 31.2211 2.6989 31.2761 2.53023 31.2761ZM7.48479 38.3821C6.99346 38.3821 6.56446 38.2905 6.19779 38.1071C5.83112 37.9238 5.54512 37.6488 5.33979 37.2821C5.14179 36.9155 5.04279 36.4571 5.04279 35.9071V32.5521H5.82379V35.8191C5.82379 36.4351 5.97412 36.9008 6.27479 37.2161C6.58279 37.5241 7.01179 37.6781 7.56179 37.6781C7.96512 37.6781 8.31346 37.5975 8.60679 37.4361C8.90746 37.2675 9.13479 37.0255 9.28879 36.7101C9.45012 36.3948 9.53079 36.0171 9.53079 35.5771V32.5521H10.3118V38.3271H9.56379V36.7431L9.68479 37.0291C9.50146 37.4545 9.21546 37.7881 8.82679 38.0301C8.44546 38.2648 7.99812 38.3821 7.48479 38.3821ZM12.4884 38.3271V32.5521H13.2694V38.3271H12.4884ZM12.8844 31.2761C12.7231 31.2761 12.5874 31.2211 12.4774 31.1111C12.3674 31.0011 12.3124 30.8691 12.3124 30.7151C12.3124 30.5611 12.3674 30.4328 12.4774 30.3301C12.5874 30.2201 12.7231 30.1651 12.8844 30.1651C13.0457 30.1651 13.1814 30.2165 13.2914 30.3191C13.4014 30.4218 13.4564 30.5501 13.4564 30.7041C13.4564 30.8655 13.4014 31.0011 13.2914 31.1111C13.1887 31.2211 13.0531 31.2761 12.8844 31.2761ZM17.8405 38.3821C17.2685 38.3821 16.7552 38.2575 16.3005 38.0081C15.8532 37.7515 15.5012 37.4031 15.2445 36.9631C14.9878 36.5158 14.8595 36.0061 14.8595 35.4341C14.8595 34.8548 14.9878 34.3451 15.2445 33.9051C15.5012 33.4651 15.8532 33.1205 16.3005 32.8711C16.7552 32.6218 17.2685 32.4971 17.8405 32.4971C18.3318 32.4971 18.7755 32.5925 19.1715 32.7831C19.5675 32.9738 19.8792 33.2598 20.1065 33.6411L19.5235 34.0371C19.3255 33.7438 19.0798 33.5275 18.7865 33.3881C18.4932 33.2488 18.1742 33.1791 17.8295 33.1791C17.4188 33.1791 17.0485 33.2745 16.7185 33.4651C16.3885 33.6485 16.1282 33.9088 15.9375 34.2461C15.7468 34.5835 15.6515 34.9795 15.6515 35.4341C15.6515 35.8888 15.7468 36.2848 15.9375 36.6221C16.1282 36.9595 16.3885 37.2235 16.7185 37.4141C17.0485 37.5975 17.4188 37.6891 17.8295 37.6891C18.1742 37.6891 18.4932 37.6195 18.7865 37.4801C19.0798 37.3408 19.3255 37.1281 19.5235 36.8421L20.1065 37.2381C19.8792 37.6121 19.5675 37.8981 19.1715 38.0961C18.7755 38.2868 18.3318 38.3821 17.8405 38.3821ZM23.9971 38.3821C23.3957 38.3821 22.8677 38.2575 22.4131 38.0081C21.9584 37.7515 21.6027 37.4031 21.3461 36.9631C21.0894 36.5158 20.9611 36.0061 20.9611 35.4341C20.9611 34.8621 21.0821 34.3561 21.3241 33.9161C21.5734 33.4761 21.9107 33.1315 22.3361 32.8821C22.7687 32.6255 23.2527 32.4971 23.7881 32.4971C24.3307 32.4971 24.8111 32.6218 25.2291 32.8711C25.6544 33.1131 25.9881 33.4578 26.2301 33.9051C26.4721 34.3451 26.5931 34.8548 26.5931 35.4341C26.5931 35.4708 26.5894 35.5111 26.5821 35.5551C26.5821 35.5918 26.5821 35.6321 26.5821 35.6761H21.5551V35.0931H26.1641L25.8561 35.3241C25.8561 34.9061 25.7644 34.5358 25.5811 34.2131C25.4051 33.8831 25.1631 33.6265 24.8551 33.4431C24.5471 33.2598 24.1914 33.1681 23.7881 33.1681C23.3921 33.1681 23.0364 33.2598 22.7211 33.4431C22.4057 33.6265 22.1601 33.8831 21.9841 34.2131C21.8081 34.5431 21.7201 34.9208 21.7201 35.3461V35.4671C21.7201 35.9071 21.8154 36.2958 22.0061 36.6331C22.2041 36.9631 22.4754 37.2235 22.8201 37.4141C23.1721 37.5975 23.5717 37.6891 24.0191 37.6891C24.3711 37.6891 24.6974 37.6268 24.9981 37.5021C25.3061 37.3775 25.5701 37.1868 25.7901 36.9301L26.2301 37.4361C25.9734 37.7441 25.6507 37.9788 25.2621 38.1401C24.8807 38.3015 24.4591 38.3821 23.9971 38.3821ZM29.7338 38.3821C29.2571 38.3821 28.8061 38.3161 28.3808 38.1841C27.9554 38.0448 27.6218 37.8725 27.3798 37.6671L27.7318 37.0511C27.9664 37.2271 28.2671 37.3811 28.6338 37.5131C29.0004 37.6378 29.3854 37.7001 29.7888 37.7001C30.3388 37.7001 30.7348 37.6158 30.9768 37.4471C31.2188 37.2711 31.3398 37.0401 31.3398 36.7541C31.3398 36.5415 31.2701 36.3765 31.1308 36.2591C30.9988 36.1345 30.8228 36.0428 30.6028 35.9841C30.3828 35.9181 30.1371 35.8631 29.8658 35.8191C29.5944 35.7751 29.3231 35.7238 29.0518 35.6651C28.7878 35.6065 28.5458 35.5221 28.3258 35.4121C28.1058 35.2948 27.9261 35.1371 27.7868 34.9391C27.6548 34.7411 27.5888 34.4771 27.5888 34.1471C27.5888 33.8318 27.6768 33.5495 27.8528 33.3001C28.0288 33.0508 28.2854 32.8565 28.6228 32.7171C28.9674 32.5705 29.3854 32.4971 29.8768 32.4971C30.2508 32.4971 30.6248 32.5485 30.9988 32.6511C31.3728 32.7465 31.6808 32.8748 31.9228 33.0361L31.5818 33.6631C31.3251 33.4871 31.0501 33.3625 30.7568 33.2891C30.4634 33.2085 30.1701 33.1681 29.8768 33.1681C29.3561 33.1681 28.9711 33.2598 28.7218 33.4431C28.4798 33.6191 28.3588 33.8465 28.3588 34.1251C28.3588 34.3451 28.4248 34.5175 28.5568 34.6421C28.6961 34.7668 28.8758 34.8658 29.0958 34.9391C29.3231 35.0051 29.5688 35.0601 29.8328 35.1041C30.1041 35.1481 30.3718 35.2031 30.6358 35.2691C30.9071 35.3278 31.1528 35.4121 31.3728 35.5221C31.6001 35.6248 31.7798 35.7751 31.9118 35.9731C32.0511 36.1638 32.1208 36.4168 32.1208 36.7321C32.1208 37.0695 32.0254 37.3628 31.8348 37.6121C31.6514 37.8541 31.3801 38.0448 31.0208 38.1841C30.6688 38.3161 30.2398 38.3821 29.7338 38.3821ZM40.0518 38.3271V37.0511L40.0188 36.8421V34.7081C40.0188 34.2168 39.8794 33.8391 39.6008 33.5751C39.3294 33.3111 38.9224 33.1791 38.3798 33.1791C38.0058 33.1791 37.6501 33.2415 37.3128 33.3661C36.9754 33.4908 36.6894 33.6558 36.4548 33.8611L36.1028 33.2781C36.3961 33.0288 36.7481 32.8381 37.1588 32.7061C37.5694 32.5668 38.0021 32.4971 38.4568 32.4971C39.2048 32.4971 39.7804 32.6841 40.1838 33.0581C40.5944 33.4248 40.7998 33.9858 40.7998 34.7411V38.3271H40.0518ZM38.0608 38.3821C37.6281 38.3821 37.2504 38.3125 36.9278 38.1731C36.6124 38.0265 36.3704 37.8285 36.2018 37.5791C36.0331 37.3225 35.9488 37.0291 35.9488 36.6991C35.9488 36.3985 36.0184 36.1271 36.1578 35.8851C36.3044 35.6358 36.5391 35.4378 36.8618 35.2911C37.1918 35.1371 37.6318 35.0601 38.1818 35.0601H40.1728V35.6431H38.2038C37.6464 35.6431 37.2578 35.7421 37.0378 35.9401C36.8251 36.1381 36.7188 36.3838 36.7188 36.6771C36.7188 37.0071 36.8471 37.2711 37.1038 37.4691C37.3604 37.6671 37.7198 37.7661 38.1818 37.7661C38.6218 37.7661 38.9994 37.6671 39.3148 37.4691C39.6374 37.2638 39.8721 36.9705 40.0188 36.5891L40.1948 37.1281C40.0481 37.5095 39.7914 37.8138 39.4248 38.0411C39.0654 38.2685 38.6108 38.3821 38.0608 38.3821ZM45.869 32.4971C46.3384 32.4971 46.749 32.5888 47.101 32.7721C47.4604 32.9481 47.739 33.2195 47.937 33.5861C48.1424 33.9528 48.245 34.4148 48.245 34.9721V38.3271H47.464V35.0491C47.464 34.4405 47.31 33.9821 47.002 33.6741C46.7014 33.3588 46.276 33.2011 45.726 33.2011C45.3154 33.2011 44.956 33.2855 44.648 33.4541C44.3474 33.6155 44.1127 33.8538 43.944 34.1691C43.7827 34.4771 43.702 34.8511 43.702 35.2911V38.3271H42.921V32.5521H43.669V34.1361L43.548 33.8391C43.7314 33.4211 44.0247 33.0948 44.428 32.8601C44.8314 32.6181 45.3117 32.4971 45.869 32.4971ZM52.6536 38.3821C52.1036 38.3821 51.6086 38.2575 51.1686 38.0081C50.736 37.7588 50.395 37.4141 50.1456 36.9741C49.8963 36.5268 49.7716 36.0135 49.7716 35.4341C49.7716 34.8475 49.8963 34.3341 50.1456 33.8941C50.395 33.4541 50.736 33.1131 51.1686 32.8711C51.6086 32.6218 52.1036 32.4971 52.6536 32.4971C53.1596 32.4971 53.6106 32.6108 54.0066 32.8381C54.41 33.0655 54.729 33.3991 54.9636 33.8391C55.2056 34.2718 55.3266 34.8035 55.3266 35.4341C55.3266 36.0575 55.2093 36.5891 54.9746 37.0291C54.74 37.4691 54.421 37.8065 54.0176 38.0411C53.6216 38.2685 53.167 38.3821 52.6536 38.3821ZM52.7086 37.6891C53.1193 37.6891 53.486 37.5975 53.8086 37.4141C54.1386 37.2235 54.3953 36.9595 54.5786 36.6221C54.7693 36.2775 54.8646 35.8815 54.8646 35.4341C54.8646 34.9795 54.7693 34.5835 54.5786 34.2461C54.3953 33.9088 54.1386 33.6485 53.8086 33.4651C53.486 33.2745 53.1193 33.1791 52.7086 33.1791C52.3053 33.1791 51.9423 33.2745 51.6196 33.4651C51.297 33.6485 51.0403 33.9088 50.8496 34.2461C50.659 34.5835 50.5636 34.9795 50.5636 35.4341C50.5636 35.8815 50.659 36.2775 50.8496 36.6221C51.0403 36.9595 51.297 37.2235 51.6196 37.4141C51.9423 37.5975 52.3053 37.6891 52.7086 37.6891ZM54.8866 38.3271V36.5891L54.9636 35.4231L54.8536 34.2571V30.1651H55.6346V38.3271H54.8866ZM62.9876 38.3821C62.4376 38.3821 61.9426 38.2575 61.5026 38.0081C61.0699 37.7588 60.7289 37.4141 60.4796 36.9741C60.2303 36.5268 60.1056 36.0135 60.1056 35.4341C60.1056 34.8475 60.2303 34.3341 60.4796 33.8941C60.7289 33.4541 61.0699 33.1131 61.5026 32.8711C61.9426 32.6218 62.4376 32.4971 62.9876 32.4971C63.4936 32.4971 63.9446 32.6108 64.3406 32.8381C64.7439 33.0655 65.0629 33.3991 65.2976 33.8391C65.5396 34.2718 65.6606 34.8035 65.6606 35.4341C65.6606 36.0575 65.5433 36.5891 65.3086 37.0291C65.0739 37.4691 64.7549 37.8065 64.3516 38.0411C63.9556 38.2685 63.5009 38.3821 62.9876 38.3821ZM63.0426 37.6891C63.4533 37.6891 63.8199 37.5975 64.1426 37.4141C64.4726 37.2235 64.7293 36.9595 64.9126 36.6221C65.1033 36.2775 65.1986 35.8815 65.1986 35.4341C65.1986 34.9795 65.1033 34.5835 64.9126 34.2461C64.7293 33.9088 64.4726 33.6485 64.1426 33.4651C63.8199 33.2745 63.4533 33.1791 63.0426 33.1791C62.6393 33.1791 62.2763 33.2745 61.9536 33.4651C61.6309 33.6485 61.3743 33.9088 61.1836 34.2461C60.9929 34.5835 60.8976 34.9795 60.8976 35.4341C60.8976 35.8815 60.9929 36.2775 61.1836 36.6221C61.3743 36.9595 61.6309 37.2235 61.9536 37.4141C62.2763 37.5975 62.6393 37.6891 63.0426 37.6891ZM65.2206 38.3271V36.5891L65.2976 35.4231L65.1876 34.2571V30.1651H65.9686V38.3271H65.2206ZM68.1437 38.3271V32.5521H68.8917V34.1251L68.8147 33.8501C68.976 33.4101 69.2474 33.0765 69.6287 32.8491C70.01 32.6145 70.483 32.4971 71.0477 32.4971V33.2561C71.0184 33.2561 70.989 33.2561 70.9597 33.2561C70.9304 33.2488 70.901 33.2451 70.8717 33.2451C70.263 33.2451 69.7864 33.4321 69.4417 33.8061C69.097 34.1728 68.9247 34.6971 68.9247 35.3791V38.3271H68.1437ZM72.4728 38.3271V32.5521H73.2538V38.3271H72.4728ZM72.8688 31.2761C72.7075 31.2761 72.5718 31.2211 72.4618 31.1111C72.3518 31.0011 72.2968 30.8691 72.2968 30.7151C72.2968 30.5611 72.3518 30.4328 72.4618 30.3301C72.5718 30.2201 72.7075 30.1651 72.8688 30.1651C73.0301 30.1651 73.1658 30.2165 73.2758 30.3191C73.3858 30.4218 73.4408 30.5501 73.4408 30.7041C73.4408 30.8655 73.3858 31.0011 73.2758 31.1111C73.1731 31.2211 73.0375 31.2761 72.8688 31.2761ZM78.3749 32.4971C78.8442 32.4971 79.2549 32.5888 79.6069 32.7721C79.9662 32.9481 80.2449 33.2195 80.4429 33.5861C80.6482 33.9528 80.7509 34.4148 80.7509 34.9721V38.3271H79.9699V35.0491C79.9699 34.4405 79.8159 33.9821 79.5079 33.6741C79.2072 33.3588 78.7819 33.2011 78.2319 33.2011C77.8212 33.2011 77.4619 33.2855 77.1539 33.4541C76.8532 33.6155 76.6186 33.8538 76.4499 34.1691C76.2886 34.4771 76.2079 34.8511 76.2079 35.2911V38.3271H75.4269V32.5521H76.1749V34.1361L76.0539 33.8391C76.2372 33.4211 76.5306 33.0948 76.9339 32.8601C77.3372 32.6181 77.8176 32.4971 78.3749 32.4971ZM83.4765 36.8311L83.4985 35.8301L87.0955 32.5521H88.0525L85.5115 34.9831L85.0715 35.3571L83.4765 36.8311ZM82.8605 38.3271V30.1651H83.6415V38.3271H82.8605ZM87.3375 38.3271L84.9285 35.3241L85.4345 34.7191L88.2945 38.3271H87.3375ZM90.8461 38.3821C90.3694 38.3821 89.9184 38.3161 89.4931 38.1841C89.0677 38.0448 88.7341 37.8725 88.4921 37.6671L88.8441 37.0511C89.0787 37.2271 89.3794 37.3811 89.7461 37.5131C90.1127 37.6378 90.4977 37.7001 90.9011 37.7001C91.4511 37.7001 91.8471 37.6158 92.0891 37.4471C92.3311 37.2711 92.4521 37.0401 92.4521 36.7541C92.4521 36.5415 92.3824 36.3765 92.2431 36.2591C92.1111 36.1345 91.9351 36.0428 91.7151 35.9841C91.4951 35.9181 91.2494 35.8631 90.9781 35.8191C90.7067 35.7751 90.4354 35.7238 90.1641 35.6651C89.9001 35.6065 89.6581 35.5221 89.4381 35.4121C89.2181 35.2948 89.0384 35.1371 88.8991 34.9391C88.7671 34.7411 88.7011 34.4771 88.7011 34.1471C88.7011 33.8318 88.7891 33.5495 88.9651 33.3001C89.1411 33.0508 89.3977 32.8565 89.7351 32.7171C90.0797 32.5705 90.4977 32.4971 90.9891 32.4971C91.3631 32.4971 91.7371 32.5485 92.1111 32.6511C92.4851 32.7465 92.7931 32.8748 93.0351 33.0361L92.6941 33.6631C92.4374 33.4871 92.1624 33.3625 91.8691 33.2891C91.5757 33.2085 91.2824 33.1681 90.9891 33.1681C90.4684 33.1681 90.0834 33.2598 89.8341 33.4431C89.5921 33.6191 89.4711 33.8465 89.4711 34.1251C89.4711 34.3451 89.5371 34.5175 89.6691 34.6421C89.8084 34.7668 89.9881 34.8658 90.2081 34.9391C90.4354 35.0051 90.6811 35.0601 90.9451 35.1041C91.2164 35.1481 91.4841 35.2031 91.7481 35.2691C92.0194 35.3278 92.2651 35.4121 92.4851 35.5221C92.7124 35.6248 92.8921 35.7751 93.0241 35.9731C93.1634 36.1638 93.2331 36.4168 93.2331 36.7321C93.2331 37.0695 93.1377 37.3628 92.9471 37.6121C92.7637 37.8541 92.4924 38.0448 92.1331 38.1841C91.7811 38.3161 91.3521 38.3821 90.8461 38.3821ZM94.7431 38.3821C94.5818 38.3821 94.4425 38.3235 94.3251 38.2061C94.2151 38.0888 94.1601 37.9458 94.1601 37.7771C94.1601 37.6011 94.2151 37.4581 94.3251 37.3481C94.4425 37.2381 94.5818 37.1831 94.7431 37.1831C94.9045 37.1831 95.0401 37.2381 95.1501 37.3481C95.2675 37.4581 95.3261 37.6011 95.3261 37.7771C95.3261 37.9458 95.2675 38.0888 95.1501 38.2061C95.0401 38.3235 94.9045 38.3821 94.7431 38.3821Z" fill="black"/>
</svg>
