<svg width="75" height="33" viewBox="0 0 75 33" fill="none" xmlns="http://www.w3.org/2000/svg">
<path d="M4.80555 25.1945C4.91294 25.3018 5.08706 25.3018 5.19445 25.1945L6.94454 23.4444C7.05194 23.337 7.05194 23.1629 6.94454 23.0555C6.83715 22.9481 6.66303 22.9481 6.55564 23.0555L5 24.6111L3.44437 23.0555C3.33697 22.9481 3.16285 22.9481 3.05546 23.0555C2.94806 23.1629 2.94806 23.337 3.05546 23.4444L4.80555 25.1945ZM5.19446 9.80555C5.08706 9.69815 4.91294 9.69815 4.80555 9.80555L3.05546 11.5556C2.94806 11.663 2.94806 11.8371 3.05546 11.9445C3.16285 12.0519 3.33697 12.0519 3.44437 11.9445L5 10.3889L6.55564 11.9445C6.66303 12.0519 6.83715 12.0519 6.94454 11.9445C7.05194 11.8371 7.05194 11.663 6.94454 11.5556L5.19446 9.80555ZM5 25L5.275 25L5.275 10L5 10L4.725 10L4.725 25L5 25Z" fill="black"/>
<path d="M19.5633 24.8094C19.7157 23.2034 21.315 10.918 21.315 10.918C17.1648 11.6971 14.8113 11.6541 10.5762 10.9983C10.5762 10.9983 12.0234 22.9625 12.3279 24.8094C12.6325 26.6562 19.4109 26.4153 19.5633 24.8094Z" stroke="black" stroke-width="0.55"/>
<path d="M20.5 10C20.5511 10.0511 21.736 9.88861 21.736 10.0727C21.8894 10.1494 22 10.3028 22 10.4562C22 10.579 21.5398 10.7631 21.3096 10.8398C19.7244 11.3 15.3573 11.9597 10.5708 10.9165C10.264 10.7937 10.085 10.5585 10.0339 10.4562C10.0083 10.3795 9.97252 10.2108 10.0339 10.1494C10.0952 10.088 10.1617 10.0216 10.1873 9.996L10.3407 9.61247C10.3151 9.5869 11.2545 10 11.5 10" stroke="black" stroke-width="0.55"/>
<path d="M16.9014 9.27539C17.4053 9.27539 18.5645 9.2977 19.5938 9.4043C20.1106 9.45782 20.5802 9.53143 20.915 9.62891C21.0844 9.67821 21.2006 9.72827 21.2686 9.77344C21.2758 9.77824 21.2809 9.78417 21.2861 9.78809C21.2681 9.8069 21.2348 9.8366 21.1709 9.87305C21.0288 9.95413 20.8061 10.0336 20.5088 10.1074C19.9183 10.2541 19.104 10.3604 18.2314 10.4307C16.4855 10.5711 14.5682 10.566 13.8633 10.4912C13.3674 10.4386 12.5156 10.3088 11.7822 10.1357C11.4144 10.0489 11.0876 9.95315 10.8525 9.85547C10.7901 9.8295 10.7375 9.80433 10.6943 9.78125C10.8209 9.73101 11.006 9.68117 11.2451 9.63477C11.7673 9.53344 12.4831 9.45907 13.2412 9.40527C14.7545 9.2979 16.3968 9.27539 16.9014 9.27539Z" stroke="black" stroke-width="0.55"/>
<path d="M33.924 12.5V4.04H35.46V7.568H39.816V4.04H41.352V12.5H39.816V8.852H35.46V12.5H33.924ZM45.9533 12.62C45.2893 12.62 44.7173 12.496 44.2373 12.248C43.7573 12 43.3853 11.648 43.1213 11.192C42.8653 10.736 42.7373 10.196 42.7373 9.572C42.7373 8.964 42.8613 8.432 43.1093 7.976C43.3653 7.52 43.7133 7.164 44.1533 6.908C44.6013 6.644 45.1093 6.512 45.6773 6.512C46.2373 6.512 46.7173 6.632 47.1173 6.872C47.5173 7.112 47.8253 7.452 48.0413 7.892C48.2653 8.332 48.3773 8.856 48.3773 9.464V9.908H43.9493V9.044H47.3213L47.1293 9.224C47.1293 8.68 47.0093 8.264 46.7693 7.976C46.5293 7.68 46.1853 7.532 45.7373 7.532C45.4013 7.532 45.1133 7.612 44.8733 7.772C44.6413 7.924 44.4613 8.144 44.3333 8.432C44.2133 8.712 44.1533 9.048 44.1533 9.44V9.524C44.1533 9.964 44.2213 10.328 44.3573 10.616C44.4933 10.904 44.6973 11.12 44.9693 11.264C45.2413 11.408 45.5773 11.48 45.9773 11.48C46.3053 11.48 46.6333 11.432 46.9613 11.336C47.2893 11.232 47.5893 11.072 47.8613 10.856L48.2812 11.864C48.0013 12.096 47.6493 12.28 47.2253 12.416C46.8013 12.552 46.3773 12.62 45.9533 12.62ZM49.4692 5.372V3.908H51.1492V5.372H49.4692ZM49.5652 12.5V6.632H51.0652V12.5H49.5652ZM55.3598 14.78C54.8158 14.78 54.3038 14.716 53.8238 14.588C53.3518 14.468 52.9358 14.28 52.5758 14.024L53.0078 12.98C53.2318 13.124 53.4678 13.244 53.7158 13.34C53.9638 13.444 54.2158 13.52 54.4718 13.568C54.7278 13.616 54.9838 13.64 55.2398 13.64C55.7758 13.64 56.1758 13.508 56.4398 13.244C56.7118 12.988 56.8478 12.604 56.8478 12.092V11.012H56.9558C56.8358 11.42 56.5838 11.748 56.1998 11.996C55.8238 12.236 55.3958 12.356 54.9158 12.356C54.3878 12.356 53.9278 12.236 53.5358 11.996C53.1438 11.748 52.8398 11.404 52.6238 10.964C52.4078 10.524 52.2998 10.012 52.2998 9.428C52.2998 8.844 52.4078 8.336 52.6238 7.904C52.8398 7.464 53.1438 7.124 53.5358 6.884C53.9278 6.636 54.3878 6.512 54.9158 6.512C55.4118 6.512 55.8438 6.636 56.2118 6.884C56.5878 7.124 56.8318 7.444 56.9438 7.844H56.8478V6.632H58.3118V11.912C58.3118 12.544 58.1998 13.072 57.9758 13.496C57.7518 13.928 57.4198 14.248 56.9798 14.456C56.5398 14.672 55.9998 14.78 55.3598 14.78ZM55.3238 11.216C55.7878 11.216 56.1558 11.056 56.4278 10.736C56.6998 10.416 56.8358 9.98 56.8358 9.428C56.8358 8.876 56.6998 8.444 56.4278 8.132C56.1558 7.812 55.7878 7.652 55.3238 7.652C54.8598 7.652 54.4918 7.812 54.2198 8.132C53.9478 8.444 53.8118 8.876 53.8118 9.428C53.8118 9.98 53.9478 10.416 54.2198 10.736C54.4918 11.056 54.8598 11.216 55.3238 11.216ZM59.8659 12.5V4.04H61.3659V7.808H61.1979C61.3739 7.384 61.6459 7.064 62.0139 6.848C62.3899 6.624 62.8139 6.512 63.2859 6.512C63.7579 6.512 64.1459 6.6 64.4499 6.776C64.7539 6.952 64.9819 7.22 65.1339 7.58C65.2859 7.932 65.3619 8.38 65.3619 8.924V12.5H63.8619V8.996C63.8619 8.692 63.8219 8.444 63.7419 8.252C63.6699 8.06 63.5539 7.92 63.3939 7.832C63.2419 7.736 63.0459 7.688 62.8059 7.688C62.5179 7.688 62.2659 7.752 62.0499 7.88C61.8339 8 61.6659 8.176 61.5459 8.408C61.4259 8.632 61.3659 8.896 61.3659 9.2V12.5H59.8659ZM69.5735 12.62C68.7895 12.62 68.2055 12.424 67.8215 12.032C67.4375 11.64 67.2455 11.068 67.2455 10.316V7.76H66.1175V6.632H67.2455V4.88H68.7455V6.632H70.5215V7.76H68.7455V10.232C68.7455 10.616 68.8295 10.904 68.9975 11.096C69.1655 11.288 69.4375 11.384 69.8135 11.384C69.9255 11.384 70.0415 11.372 70.1615 11.348C70.2815 11.316 70.4055 11.284 70.5335 11.252L70.7615 12.356C70.6175 12.436 70.4335 12.5 70.2095 12.548C69.9935 12.596 69.7815 12.62 69.5735 12.62Z" fill="#CF4747"/>
<path d="M34.08 28.5V27.77H35.85V22.16L36.3 22.19L34.43 23.39L34.05 22.74L36.08 21.45H36.7V27.77H38.34V28.5H34.08ZM41.9961 28.59C41.4561 28.59 40.9994 28.4533 40.6261 28.18C40.2594 27.9 39.9828 27.4933 39.7961 26.96C39.6094 26.42 39.5161 25.7567 39.5161 24.97C39.5161 24.1833 39.6094 23.5233 39.7961 22.99C39.9828 22.45 40.2594 22.0433 40.6261 21.77C40.9994 21.4967 41.4561 21.36 41.9961 21.36C42.5428 21.36 42.9994 21.4967 43.3661 21.77C43.7328 22.0433 44.0094 22.4467 44.1961 22.98C44.3828 23.5133 44.4761 24.1733 44.4761 24.96C44.4761 25.7467 44.3828 26.41 44.1961 26.95C44.0094 27.49 43.7294 27.9 43.3561 28.18C42.9894 28.4533 42.5361 28.59 41.9961 28.59ZM41.9961 27.85C42.5494 27.85 42.9594 27.6167 43.2261 27.15C43.4928 26.6767 43.6261 25.9467 43.6261 24.96C43.6261 23.9733 43.4928 23.25 43.2261 22.79C42.9661 22.33 42.5561 22.1 41.9961 22.1C41.4428 22.1 41.0328 22.3333 40.7661 22.8C40.4994 23.26 40.3661 23.9833 40.3661 24.97C40.3661 25.95 40.4994 26.6767 40.7661 27.15C41.0328 27.6167 41.4428 27.85 41.9961 27.85ZM48.1122 28.59C47.8055 28.59 47.5089 28.5567 47.2222 28.49C46.9355 28.4233 46.6689 28.3267 46.4222 28.2C46.1755 28.0733 45.9555 27.92 45.7622 27.74L46.0922 27.06C46.4055 27.3267 46.7255 27.5233 47.0522 27.65C47.3789 27.7767 47.7289 27.84 48.1022 27.84C48.5955 27.84 48.9789 27.7067 49.2522 27.44C49.5322 27.1733 49.6722 26.8133 49.6722 26.36C49.6722 25.9 49.5389 25.5267 49.2722 25.24C49.0122 24.9533 48.6522 24.81 48.1922 24.81C47.8655 24.81 47.5755 24.8767 47.3222 25.01C47.0689 25.1367 46.8389 25.3467 46.6322 25.64H45.9822V21.45H50.1322V22.19H46.7922V24.91H46.6522C46.8255 24.6567 47.0555 24.4567 47.3422 24.31C47.6355 24.1567 47.9655 24.08 48.3322 24.08C48.7789 24.08 49.1655 24.1733 49.4922 24.36C49.8189 24.5467 50.0689 24.8067 50.2422 25.14C50.4222 25.4733 50.5122 25.8633 50.5122 26.31C50.5122 26.77 50.4122 27.17 50.2122 27.51C50.0189 27.85 49.7422 28.1167 49.3822 28.31C49.0289 28.4967 48.6055 28.59 48.1122 28.59ZM54.5041 28.5V23.6H55.3141V24.68H55.2541C55.3407 24.4467 55.4607 24.2433 55.6141 24.07C55.7741 23.89 55.9641 23.7533 56.1841 23.66C56.4041 23.56 56.6474 23.51 56.9141 23.51C57.3341 23.51 57.6774 23.6133 57.9441 23.82C58.2107 24.0267 58.3841 24.3167 58.4641 24.69H58.3841C58.5107 24.3433 58.7241 24.06 59.0241 23.84C59.3241 23.62 59.6874 23.51 60.1141 23.51C60.4874 23.51 60.7974 23.5833 61.0441 23.73C61.2907 23.87 61.4774 24.0833 61.6041 24.37C61.7307 24.6567 61.7941 25.02 61.7941 25.46V28.5H60.9541V25.51C60.9541 25.0767 60.8741 24.7533 60.7141 24.54C60.5607 24.3267 60.2941 24.22 59.9141 24.22C59.6407 24.22 59.4007 24.2867 59.1941 24.42C58.9941 24.5467 58.8407 24.7233 58.7341 24.95C58.6274 25.1767 58.5741 25.4433 58.5741 25.75V28.5H57.7241V25.51C57.7241 25.0767 57.6407 24.7533 57.4741 24.54C57.3141 24.3267 57.0541 24.22 56.6941 24.22C56.4207 24.22 56.1807 24.2867 55.9741 24.42C55.7741 24.5533 55.6207 24.7367 55.5141 24.97C55.4074 25.1967 55.3541 25.45 55.3541 25.73V28.5H54.5041ZM63.4494 28.5V23.6H64.2594V24.68H64.1994C64.286 24.4467 64.406 24.2433 64.5594 24.07C64.7194 23.89 64.9094 23.7533 65.1294 23.66C65.3494 23.56 65.5927 23.51 65.8594 23.51C66.2794 23.51 66.6227 23.6133 66.8894 23.82C67.156 24.0267 67.3294 24.3167 67.4094 24.69H67.3294C67.456 24.3433 67.6694 24.06 67.9694 23.84C68.2694 23.62 68.6327 23.51 69.0594 23.51C69.4327 23.51 69.7427 23.5833 69.9894 23.73C70.236 23.87 70.4227 24.0833 70.5494 24.37C70.676 24.6567 70.7394 25.02 70.7394 25.46V28.5H69.8994V25.51C69.8994 25.0767 69.8194 24.7533 69.6594 24.54C69.506 24.3267 69.2394 24.22 68.8594 24.22C68.586 24.22 68.346 24.2867 68.1394 24.42C67.9394 24.5467 67.786 24.7233 67.6794 24.95C67.5727 25.1767 67.5194 25.4433 67.5194 25.75V28.5H66.6694V25.51C66.6694 25.0767 66.586 24.7533 66.4194 24.54C66.2594 24.3267 65.9994 24.22 65.6394 24.22C65.366 24.22 65.126 24.2867 64.9194 24.42C64.7194 24.5533 64.566 24.7367 64.4594 24.97C64.3527 25.1967 64.2994 25.45 64.2994 25.73V28.5H63.4494Z" fill="black"/>
</svg>
