<svg width="133" height="10" viewBox="0 0 133 10" fill="none" xmlns="http://www.w3.org/2000/svg">
<path d="M-0.000906199 8.9043V0.504296H3.45509C4.19909 0.504296 4.83509 0.624296 5.36309 0.864297C5.89909 1.1043 6.31109 1.4483 6.59909 1.8963C6.88709 2.3443 7.03109 2.8763 7.03109 3.4923C7.03109 4.1083 6.88709 4.6403 6.59909 5.0883C6.31109 5.5363 5.89909 5.8803 5.36309 6.1203C4.83509 6.3603 4.19909 6.4803 3.45509 6.4803H0.863094L1.55909 5.7483V8.9043H-0.000906199ZM1.55909 5.9163L0.863094 5.1603H3.38309C4.07109 5.1603 4.58709 5.0163 4.93109 4.7283C5.28309 4.4323 5.45909 4.0203 5.45909 3.4923C5.45909 2.9563 5.28309 2.5443 4.93109 2.2563C4.58709 1.9683 4.07109 1.8243 3.38309 1.8243H0.863094L1.55909 1.0563V5.9163ZM8.38634 8.9043V2.4963H9.81434V4.2603L9.64634 3.7443C9.83834 3.3123 10.1383 2.9843 10.5463 2.7603C10.9623 2.5363 11.4783 2.4243 12.0943 2.4243V3.8523C12.0303 3.8363 11.9703 3.8283 11.9143 3.8283C11.8583 3.8203 11.8023 3.8163 11.7463 3.8163C11.1783 3.8163 10.7263 3.9843 10.3903 4.3203C10.0543 4.6483 9.88634 5.1403 9.88634 5.7963V8.9043H8.38634ZM16.1882 8.9883C15.5322 8.9883 14.9482 8.8483 14.4362 8.5683C13.9242 8.2803 13.5202 7.8883 13.2242 7.3923C12.9282 6.8963 12.7802 6.3323 12.7802 5.7003C12.7802 5.0603 12.9282 4.4963 13.2242 4.0083C13.5202 3.5123 13.9242 3.1243 14.4362 2.8443C14.9482 2.5643 15.5322 2.4243 16.1882 2.4243C16.8522 2.4243 17.4402 2.5643 17.9522 2.8443C18.4722 3.1243 18.8762 3.5083 19.1642 3.9963C19.4602 4.4843 19.6082 5.0523 19.6082 5.7003C19.6082 6.3323 19.4602 6.8963 19.1642 7.3923C18.8762 7.8883 18.4722 8.2803 17.9522 8.5683C17.4402 8.8483 16.8522 8.9883 16.1882 8.9883ZM16.1882 7.7043C16.5562 7.7043 16.8842 7.6243 17.1722 7.4643C17.4602 7.3043 17.6842 7.0723 17.8442 6.7683C18.0122 6.4643 18.0962 6.1083 18.0962 5.7003C18.0962 5.2843 18.0122 4.9283 17.8442 4.6323C17.6842 4.3283 17.4602 4.0963 17.1722 3.9363C16.8842 3.7763 16.5602 3.6963 16.2002 3.6963C15.8322 3.6963 15.5042 3.7763 15.2162 3.9363C14.9362 4.0963 14.7122 4.3283 14.5442 4.6323C14.3762 4.9283 14.2922 5.2843 14.2922 5.7003C14.2922 6.1083 14.3762 6.4643 14.5442 6.7683C14.7122 7.0723 14.9362 7.3043 15.2162 7.4643C15.5042 7.6243 15.8282 7.7043 16.1882 7.7043ZM23.7546 8.9883C23.1386 8.9883 22.5826 8.8523 22.0866 8.5803C21.5986 8.3003 21.2146 7.9163 20.9346 7.4283C20.6546 6.9403 20.5146 6.3643 20.5146 5.7003C20.5146 5.0363 20.6546 4.4603 20.9346 3.9723C21.2146 3.4843 21.5986 3.1043 22.0866 2.8323C22.5826 2.5603 23.1386 2.4243 23.7546 2.4243C24.2906 2.4243 24.7706 2.5443 25.1946 2.7843C25.6186 3.0163 25.9546 3.3723 26.2026 3.8523C26.4506 4.3323 26.5746 4.9483 26.5746 5.7003C26.5746 6.4443 26.4546 7.0603 26.2146 7.5483C25.9746 8.0283 25.6426 8.3883 25.2186 8.6283C24.7946 8.8683 24.3066 8.9883 23.7546 8.9883ZM23.9346 7.7043C24.2946 7.7043 24.6146 7.6243 24.8946 7.4643C25.1826 7.3043 25.4106 7.0723 25.5786 6.7683C25.7546 6.4643 25.8426 6.1083 25.8426 5.7003C25.8426 5.2843 25.7546 4.9283 25.5786 4.6323C25.4106 4.3283 25.1826 4.0963 24.8946 3.9363C24.6146 3.7763 24.2946 3.6963 23.9346 3.6963C23.5746 3.6963 23.2506 3.7763 22.9626 3.9363C22.6826 4.0963 22.4546 4.3283 22.2786 4.6323C22.1106 4.9283 22.0266 5.2843 22.0266 5.7003C22.0266 6.1083 22.1106 6.4643 22.2786 6.7683C22.4546 7.0723 22.6826 7.3043 22.9626 7.4643C23.2506 7.6243 23.5746 7.7043 23.9346 7.7043ZM25.8786 8.9043V7.3923L25.9386 5.6883L25.8186 3.9843V0.000296354H27.3066V8.9043H25.8786ZM31.9929 8.9883C31.4489 8.9883 30.9689 8.8883 30.5529 8.6883C30.1369 8.4803 29.8129 8.1683 29.5809 7.7523C29.3489 7.3283 29.2329 6.7963 29.2329 6.1563V2.4963H30.7329V5.9523C30.7329 6.5283 30.8609 6.9603 31.1169 7.2483C31.3809 7.5283 31.7529 7.6683 32.2329 7.6683C32.5849 7.6683 32.8889 7.5963 33.1449 7.4523C33.4089 7.3083 33.6129 7.0923 33.7569 6.8043C33.9089 6.5163 33.9849 6.1603 33.9849 5.7363V2.4963H35.4849V8.9043H34.0569V7.1763L34.3089 7.7043C34.0929 8.1203 33.7769 8.4403 33.3609 8.6643C32.9449 8.8803 32.4889 8.9883 31.9929 8.9883ZM40.3888 8.9883C39.7168 8.9883 39.1168 8.8483 38.5888 8.5683C38.0688 8.2803 37.6608 7.8883 37.3648 7.3923C37.0688 6.8963 36.9208 6.3323 36.9208 5.7003C36.9208 5.0603 37.0688 4.4963 37.3648 4.0083C37.6608 3.5123 38.0688 3.1243 38.5888 2.8443C39.1168 2.5643 39.7168 2.4243 40.3888 2.4243C41.0128 2.4243 41.5608 2.5523 42.0328 2.8083C42.5128 3.0563 42.8768 3.4243 43.1248 3.9123L41.9728 4.5843C41.7808 4.2803 41.5448 4.0563 41.2648 3.9123C40.9928 3.7683 40.6968 3.6963 40.3768 3.6963C40.0088 3.6963 39.6768 3.7763 39.3808 3.9363C39.0848 4.0963 38.8528 4.3283 38.6848 4.6323C38.5168 4.9283 38.4328 5.2843 38.4328 5.7003C38.4328 6.1163 38.5168 6.4763 38.6848 6.7803C38.8528 7.0763 39.0848 7.3043 39.3808 7.4643C39.6768 7.6243 40.0088 7.7043 40.3768 7.7043C40.6968 7.7043 40.9928 7.6323 41.2648 7.4883C41.5448 7.3443 41.7808 7.1203 41.9728 6.8163L43.1248 7.4883C42.8768 7.9683 42.5128 8.3403 42.0328 8.6043C41.5608 8.8603 41.0128 8.9883 40.3888 8.9883ZM46.9155 8.9883C46.2115 8.9883 45.6675 8.8083 45.2835 8.4483C44.8995 8.0803 44.7075 7.5403 44.7075 6.8283V1.0803H46.2075V6.7923C46.2075 7.0963 46.2835 7.3323 46.4355 7.5003C46.5955 7.6683 46.8155 7.7523 47.0955 7.7523C47.4315 7.7523 47.7115 7.6643 47.9355 7.4883L48.3555 8.5563C48.1795 8.7003 47.9635 8.8083 47.7075 8.8803C47.4515 8.9523 47.1875 8.9883 46.9155 8.9883ZM43.6515 3.7443V2.5443H47.9235V3.7443H43.6515ZM56.9379 9.0243C56.2979 9.0243 55.7019 8.9203 55.1499 8.7123C54.6059 8.4963 54.1299 8.1963 53.7219 7.8123C53.3219 7.4203 53.0099 6.9603 52.7859 6.4323C52.5619 5.9043 52.4499 5.3283 52.4499 4.7043C52.4499 4.0803 52.5619 3.5043 52.7859 2.9763C53.0099 2.4483 53.3259 1.9923 53.7339 1.6083C54.1419 1.2163 54.6179 0.916297 55.1619 0.708297C55.7059 0.492296 56.3019 0.384296 56.9499 0.384296C57.6379 0.384296 58.2659 0.504297 58.8339 0.744297C59.4019 0.976297 59.8819 1.3243 60.2739 1.7883L59.2659 2.7363C58.9619 2.4083 58.6219 2.1643 58.2459 2.0043C57.8699 1.8363 57.4619 1.7523 57.0219 1.7523C56.5819 1.7523 56.1779 1.8243 55.8099 1.9683C55.4499 2.1123 55.1339 2.3163 54.8619 2.5803C54.5979 2.8443 54.3899 3.1563 54.2379 3.5163C54.0939 3.8763 54.0219 4.2723 54.0219 4.7043C54.0219 5.1363 54.0939 5.5323 54.2379 5.8923C54.3899 6.2523 54.5979 6.5643 54.8619 6.8283C55.1339 7.0923 55.4499 7.2963 55.8099 7.4403C56.1779 7.5843 56.5819 7.6563 57.0219 7.6563C57.4619 7.6563 57.8699 7.5763 58.2459 7.4163C58.6219 7.2483 58.9619 6.9963 59.2659 6.6603L60.2739 7.6203C59.8819 8.0763 59.4019 8.4243 58.8339 8.6643C58.2659 8.9043 57.6339 9.0243 56.9379 9.0243ZM64.2703 8.9883C63.6143 8.9883 63.0303 8.8483 62.5183 8.5683C62.0063 8.2803 61.6023 7.8883 61.3063 7.3923C61.0103 6.8963 60.8623 6.3323 60.8623 5.7003C60.8623 5.0603 61.0103 4.4963 61.3063 4.0083C61.6023 3.5123 62.0063 3.1243 62.5183 2.8443C63.0303 2.5643 63.6143 2.4243 64.2703 2.4243C64.9343 2.4243 65.5223 2.5643 66.0343 2.8443C66.5543 3.1243 66.9583 3.5083 67.2463 3.9963C67.5423 4.4843 67.6903 5.0523 67.6903 5.7003C67.6903 6.3323 67.5423 6.8963 67.2463 7.3923C66.9583 7.8883 66.5543 8.2803 66.0343 8.5683C65.5223 8.8483 64.9343 8.9883 64.2703 8.9883ZM64.2703 7.7043C64.6383 7.7043 64.9663 7.6243 65.2543 7.4643C65.5423 7.3043 65.7663 7.0723 65.9263 6.7683C66.0943 6.4643 66.1783 6.1083 66.1783 5.7003C66.1783 5.2843 66.0943 4.9283 65.9263 4.6323C65.7663 4.3283 65.5423 4.0963 65.2543 3.9363C64.9663 3.7763 64.6423 3.6963 64.2823 3.6963C63.9143 3.6963 63.5863 3.7763 63.2983 3.9363C63.0183 4.0963 62.7943 4.3283 62.6263 4.6323C62.4583 4.9283 62.3743 5.2843 62.3743 5.7003C62.3743 6.1083 62.4583 6.4643 62.6263 6.7683C62.7943 7.0723 63.0183 7.3043 63.2983 7.4643C63.5863 7.6243 63.9103 7.7043 64.2703 7.7043ZM71.8366 8.9883C71.2206 8.9883 70.6646 8.8523 70.1686 8.5803C69.6806 8.3003 69.2966 7.9163 69.0166 7.4283C68.7366 6.9403 68.5966 6.3643 68.5966 5.7003C68.5966 5.0363 68.7366 4.4603 69.0166 3.9723C69.2966 3.4843 69.6806 3.1043 70.1686 2.8323C70.6646 2.5603 71.2206 2.4243 71.8366 2.4243C72.3726 2.4243 72.8526 2.5443 73.2766 2.7843C73.7006 3.0163 74.0366 3.3723 74.2846 3.8523C74.5326 4.3323 74.6566 4.9483 74.6566 5.7003C74.6566 6.4443 74.5366 7.0603 74.2966 7.5483C74.0566 8.0283 73.7246 8.3883 73.3006 8.6283C72.8766 8.8683 72.3886 8.9883 71.8366 8.9883ZM72.0166 7.7043C72.3766 7.7043 72.6966 7.6243 72.9766 7.4643C73.2646 7.3043 73.4926 7.0723 73.6606 6.7683C73.8366 6.4643 73.9246 6.1083 73.9246 5.7003C73.9246 5.2843 73.8366 4.9283 73.6606 4.6323C73.4926 4.3283 73.2646 4.0963 72.9766 3.9363C72.6966 3.7763 72.3766 3.6963 72.0166 3.6963C71.6566 3.6963 71.3326 3.7763 71.0446 3.9363C70.7646 4.0963 70.5366 4.3283 70.3606 4.6323C70.1926 4.9283 70.1086 5.2843 70.1086 5.7003C70.1086 6.1083 70.1926 6.4643 70.3606 6.7683C70.5366 7.0723 70.7646 7.3043 71.0446 7.4643C71.3326 7.6243 71.6566 7.7043 72.0166 7.7043ZM73.9606 8.9043V7.3923L74.0206 5.6883L73.9006 3.9843V0.000296354H75.3886V8.9043H73.9606ZM80.3749 8.9883C79.6629 8.9883 79.0389 8.8483 78.5029 8.5683C77.9749 8.2803 77.5629 7.8883 77.2669 7.3923C76.9789 6.8963 76.8349 6.3323 76.8349 5.7003C76.8349 5.0603 76.9749 4.4963 77.2549 4.0083C77.5429 3.5123 77.9349 3.1243 78.4309 2.8443C78.9349 2.5643 79.5069 2.4243 80.1469 2.4243C80.7709 2.4243 81.3269 2.5603 81.8149 2.8323C82.3029 3.1043 82.6869 3.4883 82.9669 3.9843C83.2469 4.4803 83.3869 5.0643 83.3869 5.7363C83.3869 5.8003 83.3829 5.8723 83.3749 5.9523C83.3749 6.0323 83.3709 6.1083 83.3629 6.1803H78.0229V5.1843H82.5709L81.9829 5.4963C81.9909 5.1283 81.9149 4.8043 81.7549 4.5243C81.5949 4.2443 81.3749 4.0243 81.0949 3.8643C80.8229 3.7043 80.5069 3.6243 80.1469 3.6243C79.7789 3.6243 79.4549 3.7043 79.1749 3.8643C78.9029 4.0243 78.6869 4.2483 78.5269 4.5363C78.3749 4.8163 78.2989 5.1483 78.2989 5.5323V5.7723C78.2989 6.1563 78.3869 6.4963 78.5629 6.7923C78.7389 7.0883 78.9869 7.3163 79.3069 7.4763C79.6269 7.6363 79.9949 7.7163 80.4109 7.7163C80.7709 7.7163 81.0949 7.6603 81.3829 7.5483C81.6709 7.4363 81.9269 7.2603 82.1509 7.0203L82.9549 7.9443C82.6669 8.2803 82.3029 8.5403 81.8629 8.7243C81.4309 8.9003 80.9349 8.9883 80.3749 8.9883ZM87.8202 6.1923V4.9443H91.1202V6.1923H87.8202ZM98.2617 9.0243C97.6698 9.0243 97.0898 8.9403 96.5218 8.7723C95.9618 8.5963 95.4898 8.3563 95.1058 8.0523L95.7778 6.8403C96.0818 7.0883 96.4498 7.2883 96.8818 7.4403C97.3138 7.5923 97.7658 7.6683 98.2378 7.6683C98.7978 7.6683 99.2338 7.5563 99.5458 7.3323C99.8578 7.1003 100.014 6.7883 100.014 6.3963C100.014 6.0123 99.8698 5.7083 99.5818 5.4843C99.2938 5.2603 98.8298 5.1483 98.1898 5.1483H97.4218V4.0803L99.8218 1.2243L100.026 1.8123H95.5138V0.504296H101.238V1.5483L98.8378 4.4043L98.0218 3.9243H98.4898C99.5218 3.9243 100.294 4.1563 100.806 4.6203C101.326 5.0763 101.586 5.6643 101.586 6.3843C101.586 6.8563 101.466 7.2923 101.226 7.6923C100.986 8.0923 100.618 8.4163 100.122 8.6643C99.6338 8.9043 99.0138 9.0243 98.2617 9.0243ZM106.11 9.0243C105.446 9.0243 104.846 8.8563 104.31 8.5203C103.782 8.1843 103.366 7.6963 103.062 7.0563C102.758 6.4083 102.606 5.6243 102.606 4.7043C102.606 3.7843 102.758 3.0043 103.062 2.3643C103.366 1.7163 103.782 1.2243 104.31 0.888296C104.846 0.552296 105.446 0.384296 106.11 0.384296C106.782 0.384296 107.382 0.552296 107.91 0.888296C108.438 1.2243 108.854 1.7163 109.158 2.3643C109.47 3.0043 109.626 3.7843 109.626 4.7043C109.626 5.6243 109.47 6.4083 109.158 7.0563C108.854 7.6963 108.438 8.1843 107.91 8.5203C107.382 8.8563 106.782 9.0243 106.11 9.0243ZM106.11 7.6683C106.502 7.6683 106.842 7.5643 107.13 7.3563C107.418 7.1403 107.642 6.8123 107.802 6.3723C107.97 5.9323 108.054 5.3763 108.054 4.7043C108.054 4.0243 107.97 3.4683 107.802 3.0363C107.642 2.5963 107.418 2.2723 107.13 2.0643C106.842 1.8483 106.502 1.7403 106.11 1.7403C105.734 1.7403 105.398 1.8483 105.102 2.0643C104.814 2.2723 104.586 2.5963 104.418 3.0363C104.258 3.4683 104.178 4.0243 104.178 4.7043C104.178 5.3763 104.258 5.9323 104.418 6.3723C104.586 6.8123 104.814 7.1403 105.102 7.3563C105.398 7.5643 105.734 7.6683 106.11 7.6683ZM114.184 9.0243C113.52 9.0243 112.92 8.8563 112.384 8.5203C111.856 8.1843 111.44 7.6963 111.136 7.0563C110.832 6.4083 110.68 5.6243 110.68 4.7043C110.68 3.7843 110.832 3.0043 111.136 2.3643C111.44 1.7163 111.856 1.2243 112.384 0.888296C112.92 0.552296 113.52 0.384296 114.184 0.384296C114.856 0.384296 115.456 0.552296 115.984 0.888296C116.512 1.2243 116.928 1.7163 117.232 2.3643C117.544 3.0043 117.7 3.7843 117.7 4.7043C117.7 5.6243 117.544 6.4083 117.232 7.0563C116.928 7.6963 116.512 8.1843 115.984 8.5203C115.456 8.8563 114.856 9.0243 114.184 9.0243ZM114.184 7.6683C114.576 7.6683 114.916 7.5643 115.204 7.3563C115.492 7.1403 115.716 6.8123 115.876 6.3723C116.044 5.9323 116.128 5.3763 116.128 4.7043C116.128 4.0243 116.044 3.4683 115.876 3.0363C115.716 2.5963 115.492 2.2723 115.204 2.0643C114.916 1.8483 114.576 1.7403 114.184 1.7403C113.808 1.7403 113.472 1.8483 113.176 2.0643C112.888 2.2723 112.66 2.5963 112.492 3.0363C112.332 3.4683 112.252 4.0243 112.252 4.7043C112.252 5.3763 112.332 5.9323 112.492 6.3723C112.66 6.8123 112.888 7.1403 113.176 7.3563C113.472 7.5643 113.808 7.6683 114.184 7.6683ZM120.783 4.3683H124.971V5.6883H120.783V4.3683ZM120.915 8.9043H119.355V0.504296H125.487V1.8123H120.915V8.9043ZM126.995 8.9043V0.504296H128.555V7.5843H132.947V8.9043H126.995Z" fill="black"/>
</svg>
