<svg width="75" height="33" viewBox="0 0 75 33" fill="none" xmlns="http://www.w3.org/2000/svg">
<path d="M21.1945 7.19445C21.3018 7.08706 21.3018 6.91294 21.1945 6.80555L19.4444 5.05546C19.337 4.94806 19.1629 4.94806 19.0555 5.05546C18.9481 5.16285 18.9481 5.33697 19.0555 5.44437L20.6111 7L19.0555 8.55563C18.9481 8.66303 18.9481 8.83715 19.0555 8.94454C19.1629 9.05194 19.337 9.05194 19.4444 8.94454L21.1945 7.19445ZM5.80555 6.80555C5.69815 6.91294 5.69815 7.08706 5.80555 7.19445L7.55563 8.94454C7.66303 9.05194 7.83715 9.05194 7.94454 8.94454C8.05194 8.83715 8.05194 8.66303 7.94454 8.55563L6.38891 7L7.94454 5.44437C8.05194 5.33697 8.05194 5.16285 7.94454 5.05546C7.83715 4.94806 7.66303 4.94806 7.55563 5.05546L5.80555 6.80555ZM21 7V6.725L6 6.725V7V7.275L21 7.275V7Z" fill="black"/>
<path d="M17.5633 25.8094C17.7157 24.2034 19.315 11.918 19.315 11.918C15.1648 12.6971 12.8113 12.6541 8.57617 11.9983C8.57617 11.9983 10.0234 23.9625 10.3279 25.8094C10.6325 27.6562 17.4109 27.4153 17.5633 25.8094Z" stroke="black" stroke-width="0.55"/>
<path d="M18.5 11C18.5511 11.0511 19.736 10.8886 19.736 11.0727C19.8894 11.1494 20 11.3028 20 11.4562C20 11.579 19.5398 11.7631 19.3096 11.8398C17.7244 12.3 13.3573 12.9597 8.57082 11.9165C8.264 11.7937 8.08502 11.5585 8.03388 11.4562C8.00831 11.3795 7.97252 11.2108 8.03388 11.1494C8.09525 11.088 8.16171 11.0216 8.18727 10.996L8.34068 10.6125C8.31511 10.5869 9.25454 11 9.5 11" stroke="black" stroke-width="0.55"/>
<path d="M14.9014 10.2754C15.4053 10.2754 16.5645 10.2977 17.5938 10.4043C18.1106 10.4578 18.5802 10.5314 18.915 10.6289C19.0844 10.6782 19.2006 10.7283 19.2686 10.7734C19.2758 10.7782 19.2809 10.7842 19.2861 10.7881C19.2681 10.8069 19.2348 10.8366 19.1709 10.873C19.0288 10.9541 18.8061 11.0336 18.5088 11.1074C17.9183 11.2541 17.104 11.3604 16.2314 11.4307C14.4855 11.5711 12.5682 11.566 11.8633 11.4912C11.3674 11.4386 10.5156 11.3088 9.78223 11.1357C9.41436 11.0489 9.08758 10.9532 8.85254 10.8555C8.79008 10.8295 8.73748 10.8043 8.69434 10.7812C8.82094 10.731 9.00602 10.6812 9.24512 10.6348C9.76728 10.5334 10.4831 10.4591 11.2412 10.4053C12.7545 10.2979 14.3968 10.2754 14.9014 10.2754Z" stroke="black" stroke-width="0.55"/>
<path d="M35.964 12.5V5.324H33.06V4.04H40.404V5.324H37.5V12.5H35.964ZM42.9716 12.62C42.3636 12.62 41.8356 12.496 41.3876 12.248C40.9396 12 40.5916 11.648 40.3436 11.192C40.0956 10.728 39.9716 10.184 39.9716 9.56C39.9716 8.936 40.0956 8.396 40.3436 7.94C40.5916 7.484 40.9396 7.132 41.3876 6.884C41.8356 6.636 42.3636 6.512 42.9716 6.512C43.5796 6.512 44.1076 6.636 44.5556 6.884C45.0036 7.132 45.3516 7.484 45.5996 7.94C45.8476 8.396 45.9716 8.936 45.9716 9.56C45.9716 10.184 45.8476 10.728 45.5996 11.192C45.3516 11.648 45.0036 12 44.5556 12.248C44.1076 12.496 43.5796 12.62 42.9716 12.62ZM42.9716 11.48C43.4196 11.48 43.7796 11.32 44.0516 11C44.3236 10.672 44.4596 10.192 44.4596 9.56C44.4596 8.92 44.3236 8.444 44.0516 8.132C43.7796 7.812 43.4196 7.652 42.9716 7.652C42.5236 7.652 42.1636 7.812 41.8916 8.132C41.6196 8.444 41.4836 8.92 41.4836 9.56C41.4836 10.192 41.6196 10.672 41.8916 11C42.1636 11.32 42.5236 11.48 42.9716 11.48ZM47.2097 14.66V6.632H48.6737V7.868H48.5537C48.6737 7.46 48.9177 7.132 49.2857 6.884C49.6617 6.636 50.0977 6.512 50.5937 6.512C51.1057 6.512 51.5537 6.636 51.9377 6.884C52.3297 7.132 52.6337 7.484 52.8497 7.94C53.0657 8.388 53.1737 8.928 53.1737 9.56C53.1737 10.184 53.0657 10.728 52.8497 11.192C52.6337 11.648 52.3337 12 51.9497 12.248C51.5657 12.496 51.1137 12.62 50.5937 12.62C50.1057 12.62 49.6777 12.5 49.3097 12.26C48.9417 12.012 48.6937 11.692 48.5657 11.3H48.7097V14.66H47.2097ZM50.1737 11.48C50.6217 11.48 50.9817 11.32 51.2537 11C51.5257 10.672 51.6617 10.192 51.6617 9.56C51.6617 8.92 51.5257 8.444 51.2537 8.132C50.9817 7.812 50.6217 7.652 50.1737 7.652C49.7257 7.652 49.3657 7.812 49.0937 8.132C48.8217 8.444 48.6857 8.92 48.6857 9.56C48.6857 10.192 48.8217 10.672 49.0937 11C49.3657 11.32 49.7257 11.48 50.1737 11.48Z" fill="#CF4747"/>
<path d="M36 28.59C35.2067 28.59 34.5867 28.42 34.14 28.08C33.6933 27.7333 33.47 27.2533 33.47 26.64C33.47 26.3133 33.5333 26.0267 33.66 25.78C33.7933 25.5333 33.9767 25.33 34.21 25.17C34.4433 25.01 34.71 24.9067 35.01 24.86V24.94C34.7433 24.8733 34.5067 24.76 34.3 24.6C34.0933 24.44 33.93 24.2433 33.81 24.01C33.6967 23.7767 33.64 23.52 33.64 23.24C33.64 22.6533 33.8533 22.1933 34.28 21.86C34.7067 21.5267 35.28 21.36 36 21.36C36.72 21.36 37.2933 21.5267 37.72 21.86C38.1467 22.1933 38.36 22.6533 38.36 23.24C38.36 23.52 38.3 23.78 38.18 24.02C38.0667 24.2533 37.9067 24.45 37.7 24.61C37.5 24.7633 37.2633 24.8733 36.99 24.94V24.86C37.29 24.9067 37.5533 25.01 37.78 25.17C38.0133 25.33 38.1967 25.5333 38.33 25.78C38.4633 26.0267 38.53 26.3133 38.53 26.64C38.53 27.2533 38.3067 27.7333 37.86 28.08C37.4133 28.42 36.7933 28.59 36 28.59ZM36 27.88C36.56 27.88 36.9833 27.77 37.27 27.55C37.5633 27.33 37.71 27.0067 37.71 26.58C37.71 26.1533 37.5633 25.83 37.27 25.61C36.9833 25.39 36.56 25.28 36 25.28C35.4467 25.28 35.0233 25.39 34.73 25.61C34.4367 25.83 34.29 26.1533 34.29 26.58C34.29 27.0067 34.4367 27.33 34.73 27.55C35.0233 27.77 35.4467 27.88 36 27.88ZM36 24.57C36.4867 24.57 36.8667 24.46 37.14 24.24C37.4133 24.0133 37.55 23.7033 37.55 23.31C37.55 22.9233 37.4133 22.62 37.14 22.4C36.8667 22.18 36.4867 22.07 36 22.07C35.52 22.07 35.1433 22.18 34.87 22.4C34.5967 22.62 34.46 22.9233 34.46 23.31C34.46 23.7033 34.5967 24.0133 34.87 24.24C35.1433 24.46 35.52 24.57 36 24.57ZM41.9961 28.59C41.4561 28.59 40.9994 28.4533 40.6261 28.18C40.2594 27.9 39.9828 27.4933 39.7961 26.96C39.6094 26.42 39.5161 25.7567 39.5161 24.97C39.5161 24.1833 39.6094 23.5233 39.7961 22.99C39.9828 22.45 40.2594 22.0433 40.6261 21.77C40.9994 21.4967 41.4561 21.36 41.9961 21.36C42.5428 21.36 42.9994 21.4967 43.3661 21.77C43.7328 22.0433 44.0094 22.4467 44.1961 22.98C44.3828 23.5133 44.4761 24.1733 44.4761 24.96C44.4761 25.7467 44.3828 26.41 44.1961 26.95C44.0094 27.49 43.7294 27.9 43.3561 28.18C42.9894 28.4533 42.5361 28.59 41.9961 28.59ZM41.9961 27.85C42.5494 27.85 42.9594 27.6167 43.2261 27.15C43.4928 26.6767 43.6261 25.9467 43.6261 24.96C43.6261 23.9733 43.4928 23.25 43.2261 22.79C42.9661 22.33 42.5561 22.1 41.9961 22.1C41.4428 22.1 41.0328 22.3333 40.7661 22.8C40.4994 23.26 40.3661 23.9833 40.3661 24.97C40.3661 25.95 40.4994 26.6767 40.7661 27.15C41.0328 27.6167 41.4428 27.85 41.9961 27.85ZM48.508 28.5V23.6H49.318V24.68H49.258C49.3446 24.4467 49.4646 24.2433 49.618 24.07C49.778 23.89 49.968 23.7533 50.188 23.66C50.408 23.56 50.6513 23.51 50.918 23.51C51.338 23.51 51.6813 23.6133 51.948 23.82C52.2146 24.0267 52.388 24.3167 52.468 24.69H52.388C52.5146 24.3433 52.728 24.06 53.028 23.84C53.328 23.62 53.6913 23.51 54.118 23.51C54.4913 23.51 54.8013 23.5833 55.048 23.73C55.2946 23.87 55.4813 24.0833 55.608 24.37C55.7346 24.6567 55.798 25.02 55.798 25.46V28.5H54.958V25.51C54.958 25.0767 54.878 24.7533 54.718 24.54C54.5646 24.3267 54.298 24.22 53.918 24.22C53.6446 24.22 53.4046 24.2867 53.198 24.42C52.998 24.5467 52.8446 24.7233 52.738 24.95C52.6313 25.1767 52.578 25.4433 52.578 25.75V28.5H51.728V25.51C51.728 25.0767 51.6446 24.7533 51.478 24.54C51.318 24.3267 51.058 24.22 50.698 24.22C50.4246 24.22 50.1846 24.2867 49.978 24.42C49.778 24.5533 49.6246 24.7367 49.518 24.97C49.4113 25.1967 49.358 25.45 49.358 25.73V28.5H48.508ZM57.4533 28.5V23.6H58.2633V24.68H58.2033C58.2899 24.4467 58.4099 24.2433 58.5633 24.07C58.7233 23.89 58.9133 23.7533 59.1333 23.66C59.3533 23.56 59.5966 23.51 59.8633 23.51C60.2833 23.51 60.6266 23.6133 60.8933 23.82C61.1599 24.0267 61.3333 24.3167 61.4133 24.69H61.3333C61.4599 24.3433 61.6733 24.06 61.9733 23.84C62.2733 23.62 62.6366 23.51 63.0633 23.51C63.4366 23.51 63.7466 23.5833 63.9933 23.73C64.2399 23.87 64.4266 24.0833 64.5533 24.37C64.6799 24.6567 64.7433 25.02 64.7433 25.46V28.5H63.9033V25.51C63.9033 25.0767 63.8233 24.7533 63.6633 24.54C63.5099 24.3267 63.2433 24.22 62.8633 24.22C62.5899 24.22 62.3499 24.2867 62.1433 24.42C61.9433 24.5467 61.7899 24.7233 61.6833 24.95C61.5766 25.1767 61.5233 25.4433 61.5233 25.75V28.5H60.6733V25.51C60.6733 25.0767 60.5899 24.7533 60.4233 24.54C60.2633 24.3267 60.0033 24.22 59.6433 24.22C59.3699 24.22 59.1299 24.2867 58.9233 24.42C58.7233 24.5533 58.5699 24.7367 58.4633 24.97C58.3566 25.1967 58.3033 25.45 58.3033 25.73V28.5H57.4533Z" fill="black"/>
</svg>
