<svg width="103" height="36" viewBox="0 0 103 36" fill="none" xmlns="http://www.w3.org/2000/svg">
<circle cx="11.5499" cy="18.0001" r="8.83019" fill="#D9D9D9"/>
<path fill-rule="evenodd" clip-rule="evenodd" d="M7.30116 6.80876C9.82259 5.81179 12.6148 5.73421 15.1879 6.58903L14.85 7.60368C12.5154 6.82823 9.98237 6.89936 7.69471 7.80387C5.40687 8.70848 3.51026 10.3894 2.33729 12.5519C1.16433 14.7145 0.789237 17.221 1.2787 19.632C1.66222 21.5211 2.55928 23.2554 3.85389 24.6564C3.99097 24.5974 4.14246 24.5656 4.30116 24.5656C4.92626 24.5656 5.43279 25.0724 5.43299 25.6974C5.43299 26.3227 4.92639 26.8302 4.30116 26.8302C3.67601 26.8301 3.16932 26.3226 3.16932 25.6974C3.16934 25.6332 3.17561 25.5703 3.18592 25.509C1.69538 23.9436 0.665123 21.9838 0.230845 19.8449C-0.308569 17.1878 0.104252 14.4255 1.39686 12.0422C2.68959 9.65879 4.77973 7.80572 7.30116 6.80876Z" fill="url(#paint0_linear_1311_186)"/>
<path fill-rule="evenodd" clip-rule="evenodd" d="M16.4947 29.1912C13.9733 30.1882 11.1811 30.2658 8.60802 29.411L8.94591 28.3953C11.2805 29.1709 13.8134 29.1007 16.1012 28.1961C18.389 27.2915 20.2856 25.6106 21.4586 23.4481C22.6316 21.2855 23.0067 18.779 22.5172 16.368C22.1337 14.4789 21.2366 12.7446 19.942 11.3436C19.8049 11.4025 19.6534 11.4344 19.4947 11.4344C18.8695 11.4344 18.3629 10.9268 18.3629 10.3016C18.3631 9.67655 18.8696 9.16976 19.4947 9.16976C20.1198 9.16986 20.6264 9.67661 20.6266 10.3016C20.6266 10.3661 20.6203 10.4295 20.61 10.4911C22.1005 12.0564 23.1308 14.0162 23.565 16.1551C24.1045 18.8122 23.6917 21.5745 22.399 23.9578C21.1063 26.3412 19.0162 28.1943 16.4947 29.1912Z" fill="url(#paint1_linear_1311_186)"/>
<path d="M8.67444 21.064C8.23711 21.064 7.84511 20.952 7.49844 20.728C7.15711 20.504 6.88511 20.1787 6.68244 19.752C6.48511 19.3253 6.38644 18.808 6.38644 18.2C6.38644 17.592 6.48511 17.0747 6.68244 16.648C6.88511 16.2213 7.15711 15.896 7.49844 15.672C7.84511 15.448 8.23711 15.336 8.67444 15.336C9.10644 15.336 9.49577 15.448 9.84244 15.672C10.1891 15.896 10.4611 16.2213 10.6584 16.648C10.8558 17.0747 10.9544 17.592 10.9544 18.2C10.9544 18.808 10.8558 19.3253 10.6584 19.752C10.4611 20.1787 10.1891 20.504 9.84244 20.728C9.49577 20.952 9.10644 21.064 8.67444 21.064ZM8.67444 20.352C8.96777 20.352 9.22377 20.272 9.44244 20.112C9.66644 19.952 9.83978 19.712 9.96244 19.392C10.0904 19.072 10.1544 18.6747 10.1544 18.2C10.1544 17.7253 10.0904 17.328 9.96244 17.008C9.83978 16.688 9.66644 16.448 9.44244 16.288C9.22377 16.128 8.96777 16.048 8.67444 16.048C8.38111 16.048 8.12244 16.128 7.89844 16.288C7.67444 16.448 7.49844 16.688 7.37044 17.008C7.24777 17.328 7.18644 17.7253 7.18644 18.2C7.18644 18.6747 7.24777 19.072 7.37044 19.392C7.49844 19.712 7.67444 19.952 7.89844 20.112C8.12244 20.272 8.38111 20.352 8.67444 20.352ZM11.6424 19.624V19.064L14.5064 15.4H15.3704L12.5304 19.064L12.1224 18.936H16.5944V19.624H11.6424ZM14.7544 21V19.624L14.7784 18.936V17.72H15.5304V21H14.7544Z" fill="#464643"/>
<path d="M31.3559 20.424V19.696L36.5499 13.2H37.6699L32.5179 19.696L31.9719 19.528H39.8539V20.424H31.3559ZM36.8859 23V20.424L36.9139 19.528V17.26H37.8939V23H36.8859ZM43.8464 23.084C43.1464 23.084 42.4791 22.972 41.8444 22.748C41.2097 22.5147 40.7057 22.2067 40.3324 21.824L40.8224 21.026C41.1304 21.3527 41.5504 21.6233 42.0824 21.838C42.6237 22.0527 43.2071 22.16 43.8324 22.16C44.6631 22.16 45.2931 21.978 45.7224 21.614C46.1611 21.2407 46.3804 20.7553 46.3804 20.158C46.3804 19.738 46.2777 19.3787 46.0724 19.08C45.8764 18.772 45.5404 18.534 45.0644 18.366C44.5884 18.198 43.9351 18.114 43.1044 18.114H41.0184L41.5224 13.2H46.8844V14.096H41.9284L42.4464 13.606L42.0124 17.722L41.4944 17.218H43.3284C44.3177 17.218 45.1111 17.3393 45.7084 17.582C46.3057 17.8247 46.7351 18.1653 46.9964 18.604C47.2671 19.0333 47.4024 19.5373 47.4024 20.116C47.4024 20.6667 47.2717 21.1707 47.0104 21.628C46.7491 22.076 46.3571 22.4307 45.8344 22.692C45.3117 22.9533 44.6491 23.084 43.8464 23.084ZM52.5881 23.084C51.8321 23.084 51.1601 22.888 50.5721 22.496C49.9841 22.0947 49.5221 21.5253 49.1861 20.788C48.8501 20.0413 48.6821 19.1453 48.6821 18.1C48.6821 17.0547 48.8501 16.1633 49.1861 15.426C49.5221 14.6793 49.9841 14.11 50.5721 13.718C51.1601 13.3167 51.8321 13.116 52.5881 13.116C53.3441 13.116 54.0161 13.3167 54.6041 13.718C55.1921 14.11 55.6541 14.6793 55.9901 15.426C56.3354 16.1633 56.5081 17.0547 56.5081 18.1C56.5081 19.1453 56.3354 20.0413 55.9901 20.788C55.6541 21.5253 55.1921 22.0947 54.6041 22.496C54.0161 22.888 53.3441 23.084 52.5881 23.084ZM52.5881 22.16C53.1668 22.16 53.6708 22.006 54.1001 21.698C54.5294 21.3807 54.8654 20.9233 55.1081 20.326C55.3508 19.7193 55.4721 18.9773 55.4721 18.1C55.4721 17.2227 55.3508 16.4853 55.1081 15.888C54.8654 15.2813 54.5294 14.824 54.1001 14.516C53.6708 14.1987 53.1668 14.04 52.5881 14.04C52.0281 14.04 51.5288 14.1987 51.0901 14.516C50.6514 14.824 50.3108 15.2813 50.0681 15.888C49.8254 16.4853 49.7041 17.2227 49.7041 18.1C49.7041 18.9773 49.8254 19.7193 50.0681 20.326C50.3108 20.9233 50.6514 21.3807 51.0901 21.698C51.5288 22.006 52.0281 22.16 52.5881 22.16ZM61.8576 23.084C61.1016 23.084 60.4296 22.888 59.8416 22.496C59.2536 22.0947 58.7916 21.5253 58.4556 20.788C58.1196 20.0413 57.9516 19.1453 57.9516 18.1C57.9516 17.0547 58.1196 16.1633 58.4556 15.426C58.7916 14.6793 59.2536 14.11 59.8416 13.718C60.4296 13.3167 61.1016 13.116 61.8576 13.116C62.6136 13.116 63.2856 13.3167 63.8736 13.718C64.4616 14.11 64.9236 14.6793 65.2596 15.426C65.605 16.1633 65.7776 17.0547 65.7776 18.1C65.7776 19.1453 65.605 20.0413 65.2596 20.788C64.9236 21.5253 64.4616 22.0947 63.8736 22.496C63.2856 22.888 62.6136 23.084 61.8576 23.084ZM61.8576 22.16C62.4363 22.16 62.9403 22.006 63.3696 21.698C63.799 21.3807 64.135 20.9233 64.3776 20.326C64.6203 19.7193 64.7416 18.9773 64.7416 18.1C64.7416 17.2227 64.6203 16.4853 64.3776 15.888C64.135 15.2813 63.799 14.824 63.3696 14.516C62.9403 14.1987 62.4363 14.04 61.8576 14.04C61.2976 14.04 60.7983 14.1987 60.3596 14.516C59.921 14.824 59.5803 15.2813 59.3376 15.888C59.095 16.4853 58.9736 17.2227 58.9736 18.1C58.9736 18.9773 59.095 19.7193 59.3376 20.326C59.5803 20.9233 59.921 21.3807 60.3596 21.698C60.7983 22.006 61.2976 22.16 61.8576 22.16ZM71.7532 23V13.2H72.6072L77.0872 20.844H76.6392L81.0772 13.2H81.9312V23H80.9372V14.754H81.1752L77.0872 21.754H76.5972L72.4812 14.754H72.7472V23H71.7532ZM85.1243 23V13.2H86.1603V22.104H91.6483V23H85.1243Z" fill="#272727"/>
<defs>
<linearGradient id="paint0_linear_1311_186" x1="0" y1="16.4151" x2="15.1879" y2="16.4151" gradientUnits="userSpaceOnUse">
<stop stop-color="#414140"/>
<stop offset="1" stop-color="#9E9E95"/>
</linearGradient>
<linearGradient id="paint1_linear_1311_186" x1="16.202" y1="9.16976" x2="16.202" y2="30" gradientUnits="userSpaceOnUse">
<stop stop-color="#3D3D3C"/>
<stop offset="1" stop-color="#ADACA2"/>
</linearGradient>
</defs>
</svg>
