<svg width="216" height="307" viewBox="0 0 216 307" fill="none" xmlns="http://www.w3.org/2000/svg">
<g filter="url(#filter0_d_2198_818)">
<rect x="6.33684" y="13.8549" width="203.544" height="149.626" rx="22.0671" fill="url(#paint0_linear_2198_818)" stroke="#B92928" stroke-width="3.22934"/>
<path d="M4.72217 165.096L211.496 165.096V288.887H4.72217L4.72217 165.096Z" fill="#F6F3F3"/>
<path d="M4.72217 286.735H211.496V286.735C211.496 292.68 206.676 297.5 200.731 297.5H15.4866C9.54157 297.5 4.72217 292.68 4.72217 286.735V286.735Z" fill="url(#paint1_linear_2198_818)"/>
<path d="M4.72217 286.735H105.476C111.421 286.735 116.241 291.555 116.241 297.5V297.5H15.4866C9.54159 297.5 4.72217 292.68 4.72217 286.735V286.735Z" fill="#B92928"/>
<rect x="26.9985" width="161.577" height="22.6054" rx="11.3027" fill="#B92928"/>
<path d="M40.8981 15.8027L40.8981 6.76059L42.9907 6.76059L42.9907 15.8027L40.8981 15.8027ZM45.1366 15.8027L45.1366 6.76059L46.8675 6.76059L50.7169 13.1418L49.7998 13.1418L53.5846 6.76059L55.3026 6.76059L55.3284 15.8027L53.365 15.8027L53.352 9.77033L53.7137 9.77033L50.6911 14.8468L49.7481 14.8468L46.6609 9.77033L47.1001 9.77033L47.1001 15.8027L45.1366 15.8027ZM57.4737 15.8027L57.4737 6.76059L59.5663 6.76059L59.5663 14.0976L64.1003 14.0976L64.1003 15.8027L57.4737 15.8027ZM68.9277 15.8027L68.9277 6.76059L70.6587 6.76059L74.508 13.1418L73.5909 13.1418L77.3757 6.76059L79.0937 6.76059L79.1195 15.8027L77.1561 15.8027L77.1432 9.77033L77.5049 9.77033L74.4822 14.8468L73.5392 14.8468L70.452 9.77033L70.8912 9.77033L70.8912 15.8027L68.9277 15.8027ZM85.6567 15.9577C84.942 15.9577 84.2789 15.8415 83.6674 15.609C83.0646 15.3765 82.5393 15.0492 82.0915 14.6273C81.6523 14.2053 81.3079 13.7101 81.0581 13.1418C80.817 12.5734 80.6965 11.9534 80.6965 11.2817C80.6965 10.61 80.817 9.98993 81.0581 9.42156C81.3079 8.8532 81.6566 8.35804 82.1044 7.93607C82.5522 7.5141 83.0776 7.18686 83.6804 6.95435C84.2832 6.72184 84.9376 6.60558 85.6438 6.60558C86.3586 6.60558 87.013 6.72184 87.6072 6.95435C88.21 7.18686 88.731 7.5141 89.1702 7.93607C89.618 8.35804 89.9668 8.8532 90.2165 9.42156C90.4663 9.98132 90.5911 10.6013 90.5911 11.2817C90.5911 11.9534 90.4663 12.5777 90.2165 13.1547C89.9668 13.723 89.618 14.2182 89.1702 14.6402C88.731 15.0535 88.21 15.3765 87.6072 15.609C87.013 15.8415 86.3629 15.9577 85.6567 15.9577ZM85.6438 14.1751C86.0485 14.1751 86.4188 14.1063 86.7547 13.9685C87.0992 13.8307 87.4006 13.6326 87.6589 13.3743C87.9173 13.1159 88.1153 12.8102 88.2531 12.4571C88.3995 12.1041 88.4727 11.7122 88.4727 11.2817C88.4727 10.8511 88.3995 10.4593 88.2531 10.1062C88.1153 9.75311 87.9173 9.4474 87.6589 9.18905C87.4092 8.9307 87.1121 8.73264 86.7676 8.59485C86.4231 8.45707 86.0485 8.38818 85.6438 8.38818C85.2391 8.38818 84.8645 8.45707 84.52 8.59485C84.1841 8.73264 83.887 8.9307 83.6287 9.18905C83.3703 9.4474 83.168 9.75311 83.0216 10.1062C82.8838 10.4593 82.8149 10.8511 82.8149 11.2817C82.8149 11.7036 82.8838 12.0955 83.0216 12.4571C83.168 12.8102 83.366 13.1159 83.6158 13.3743C83.8741 13.6326 84.1755 13.8307 84.52 13.9685C84.8645 14.1063 85.2391 14.1751 85.6438 14.1751ZM96.5428 15.9577C95.8367 15.9577 95.1779 15.8415 94.5665 15.609C93.9636 15.3765 93.4383 15.0492 92.9905 14.6273C92.5513 14.2053 92.2069 13.7101 91.9571 13.1418C91.716 12.5734 91.5955 11.9534 91.5955 11.2817C91.5955 10.61 91.716 9.98993 91.9571 9.42156C92.2069 8.8532 92.5557 8.35804 93.0035 7.93607C93.4513 7.5141 93.9766 7.18686 94.5794 6.95435C95.1822 6.72184 95.8367 6.60558 96.5428 6.60558C97.2576 6.60558 97.912 6.72184 98.5062 6.95435C99.1091 7.18686 99.6301 7.5141 100.069 7.93607C100.517 8.34942 100.866 8.84028 101.116 9.40865C101.365 9.97701 101.49 10.6013 101.49 11.2817C101.49 11.9534 101.365 12.5777 101.116 13.1547C100.866 13.723 100.517 14.2182 100.069 14.6402C99.6301 15.0535 99.1091 15.3765 98.5062 15.609C97.912 15.8415 97.2576 15.9577 96.5428 15.9577ZM99.5009 17.8824C99.1478 17.8824 98.812 17.8437 98.4933 17.7662C98.1833 17.6887 97.8733 17.5638 97.5633 17.3916C97.2619 17.2193 96.9432 16.9868 96.6074 16.694C96.2802 16.4012 95.9228 16.0396 95.5353 15.609L97.7312 15.0535C97.9637 15.3722 98.179 15.6262 98.3771 15.8156C98.5751 16.0051 98.7646 16.1386 98.9454 16.2161C99.1349 16.2936 99.333 16.3323 99.5396 16.3323C100.091 16.3323 100.582 16.1084 101.012 15.6606L101.942 16.7715C101.331 17.5121 100.517 17.8824 99.5009 17.8824ZM96.5428 14.1751C96.9476 14.1751 97.3178 14.1063 97.6537 13.9685C97.9982 13.8307 98.2996 13.6326 98.5579 13.3743C98.8163 13.1159 99.0143 12.8102 99.1521 12.4571C99.2985 12.0955 99.3717 11.7036 99.3717 11.2817C99.3717 10.8511 99.2985 10.4593 99.1521 10.1062C99.0143 9.75311 98.8163 9.4474 98.5579 9.18905C98.2996 8.9307 97.9982 8.73264 97.6537 8.59485C97.3178 8.45707 96.9476 8.38818 96.5428 8.38818C96.1381 8.38818 95.7635 8.45707 95.419 8.59485C95.0745 8.73264 94.7731 8.9307 94.5148 9.18905C94.265 9.4474 94.067 9.75311 93.9206 10.1062C93.7828 10.4593 93.7139 10.8511 93.7139 11.2817C93.7139 11.7036 93.7828 12.0955 93.9206 12.4571C94.067 12.8102 94.265 13.1159 94.5148 13.3743C94.7731 13.6326 95.0745 13.8307 95.419 13.9685C95.7635 14.1063 96.1381 14.1751 96.5428 14.1751ZM106.321 12.9738L106.321 11.3592L109.976 11.3592L109.976 12.9738L106.321 12.9738ZM117.868 15.9577C117.239 15.9577 116.615 15.8759 115.995 15.7123C115.384 15.5401 114.858 15.299 114.419 14.9889L115.246 13.3872C115.59 13.6369 115.986 13.835 116.434 13.9814C116.891 14.1278 117.351 14.201 117.816 14.201C118.342 14.201 118.755 14.0976 119.056 13.891C119.358 13.6843 119.509 13.3958 119.509 13.0255C119.509 12.793 119.448 12.5863 119.328 12.4055C119.207 12.2246 118.992 12.0868 118.682 11.9921C118.38 11.8974 117.954 11.85 117.403 11.85L115.091 11.85L115.556 6.76059L121.072 6.76059L121.072 8.43984L116.305 8.43984L117.39 7.48396L117.067 11.1137L115.982 10.1579L117.894 10.1579C118.789 10.1579 119.509 10.2827 120.051 10.5325C120.602 10.7736 121.003 11.1051 121.252 11.5271C121.502 11.9491 121.627 12.427 121.627 12.9609C121.627 13.4948 121.494 13.99 121.227 14.4464C120.96 14.8942 120.546 15.2602 119.986 15.5444C119.435 15.82 118.729 15.9577 117.868 15.9577ZM126.351 15.9577C125.611 15.9577 124.948 15.7769 124.362 15.4152C123.776 15.0449 123.316 14.511 122.98 13.8135C122.644 13.1159 122.476 12.272 122.476 11.2817C122.476 10.2913 122.644 9.4474 122.98 8.74986C123.316 8.05232 123.776 7.52271 124.362 7.16103C124.948 6.79073 125.611 6.60558 126.351 6.60558C127.1 6.60558 127.763 6.79073 128.34 7.16103C128.926 7.52271 129.387 8.05232 129.723 8.74986C130.058 9.4474 130.226 10.2913 130.226 11.2817C130.226 12.272 130.058 13.1159 129.723 13.8135C129.387 14.511 128.926 15.0449 128.34 15.4152C127.763 15.7769 127.1 15.9577 126.351 15.9577ZM126.351 14.1881C126.704 14.1881 127.01 14.089 127.268 13.891C127.535 13.6929 127.742 13.3786 127.888 12.948C128.043 12.5174 128.121 11.962 128.121 11.2817C128.121 10.6013 128.043 10.0459 127.888 9.61532C127.742 9.18475 127.535 8.87042 127.268 8.67236C127.01 8.47429 126.704 8.37526 126.351 8.37526C126.007 8.37526 125.701 8.47429 125.434 8.67236C125.176 8.87042 124.969 9.18475 124.814 9.61532C124.668 10.0459 124.594 10.6013 124.594 11.2817C124.594 11.962 124.668 12.5174 124.814 12.948C124.969 13.3786 125.176 13.6929 125.434 13.891C125.701 14.089 126.007 14.1881 126.351 14.1881ZM135.118 15.9577C134.378 15.9577 133.715 15.7769 133.129 15.4152C132.543 15.0449 132.083 14.511 131.747 13.8135C131.411 13.1159 131.243 12.272 131.243 11.2817C131.243 10.2913 131.411 9.4474 131.747 8.74986C132.083 8.05232 132.543 7.52271 133.129 7.16103C133.715 6.79073 134.378 6.60558 135.118 6.60558C135.868 6.60558 136.531 6.79073 137.108 7.16103C137.693 7.52271 138.154 8.05232 138.49 8.74986C138.826 9.4474 138.994 10.2913 138.994 11.2817C138.994 12.272 138.826 13.1159 138.49 13.8135C138.154 14.511 137.693 15.0449 137.108 15.4152C136.531 15.7769 135.868 15.9577 135.118 15.9577ZM135.118 14.1881C135.471 14.1881 135.777 14.089 136.035 13.891C136.302 13.6929 136.509 13.3786 136.656 12.948C136.811 12.5174 136.888 11.962 136.888 11.2817C136.888 10.6013 136.811 10.0459 136.656 9.61532C136.509 9.18475 136.302 8.87042 136.035 8.67236C135.777 8.47429 135.471 8.37526 135.118 8.37526C134.774 8.37526 134.468 8.47429 134.201 8.67236C133.943 8.87042 133.736 9.18475 133.581 9.61532C133.435 10.0459 133.362 10.6013 133.362 11.2817C133.362 11.962 133.435 12.5174 133.581 12.948C133.736 13.3786 133.943 13.6929 134.201 13.891C134.468 14.089 134.774 14.1881 135.118 14.1881ZM143.885 15.9577C143.145 15.9577 142.482 15.7769 141.896 15.4152C141.311 15.0449 140.85 14.511 140.514 13.8135C140.178 13.1159 140.01 12.272 140.01 11.2817C140.01 10.2913 140.178 9.4474 140.514 8.74986C140.85 8.05232 141.311 7.52271 141.896 7.16103C142.482 6.79073 143.145 6.60558 143.885 6.60558C144.635 6.60558 145.298 6.79073 145.875 7.16103C146.46 7.52271 146.921 8.05232 147.257 8.74986C147.593 9.4474 147.761 10.2913 147.761 11.2817C147.761 12.272 147.593 13.1159 147.257 13.8135C146.921 14.511 146.46 15.0449 145.875 15.4152C145.298 15.7769 144.635 15.9577 143.885 15.9577ZM143.885 14.1881C144.239 14.1881 144.544 14.089 144.803 13.891C145.07 13.6929 145.276 13.3786 145.423 12.948C145.578 12.5174 145.655 11.962 145.655 11.2817C145.655 10.6013 145.578 10.0459 145.423 9.61532C145.276 9.18474 145.07 8.87042 144.803 8.67236C144.544 8.47429 144.239 8.37526 143.885 8.37526C143.541 8.37526 143.235 8.47429 142.968 8.67236C142.71 8.87042 142.503 9.18474 142.348 9.61532C142.202 10.0459 142.129 10.6013 142.129 11.2817C142.129 11.962 142.202 12.5174 142.348 12.948C142.503 13.3786 142.71 13.6929 142.968 13.891C143.235 14.089 143.541 14.1881 143.885 14.1881ZM153.004 15.8027L153.004 6.76059L156.918 6.76059C157.727 6.76059 158.425 6.89407 159.011 7.16103C159.596 7.41937 160.048 7.79398 160.367 8.28484C160.686 8.7757 160.845 9.36128 160.845 10.0416C160.845 10.7133 160.686 11.2946 160.367 11.7854C160.048 12.2763 159.596 12.6552 159.011 12.9222C158.425 13.1805 157.727 13.3097 156.918 13.3097L154.167 13.3097L155.097 12.3667L155.097 15.8027L153.004 15.8027ZM155.097 12.5992L154.167 11.6046L156.802 11.6046C157.448 11.6046 157.93 11.4668 158.248 11.1912C158.567 10.9157 158.726 10.5325 158.726 10.0416C158.726 9.54213 158.567 9.1546 158.248 8.87903C157.93 8.60346 157.448 8.46568 156.802 8.46568L154.167 8.46568L155.097 7.47104L155.097 12.5992ZM165.543 15.9061C164.793 15.9061 164.126 15.7554 163.54 15.454C162.955 15.1439 162.494 14.7177 162.158 14.1751C161.831 13.6326 161.667 13.0169 161.667 12.328C161.667 11.6304 161.831 11.0147 162.158 10.4808C162.494 9.93826 162.955 9.51629 163.54 9.21489C164.126 8.90487 164.793 8.74986 165.543 8.74986C166.275 8.74986 166.912 8.90487 167.454 9.21488C167.997 9.51629 168.397 9.95117 168.656 10.5195L167.093 11.3592C166.912 11.0319 166.684 10.7908 166.408 10.6358C166.141 10.4808 165.848 10.4033 165.53 10.4033C165.185 10.4033 164.875 10.4808 164.6 10.6358C164.324 10.7908 164.104 11.0104 163.941 11.2946C163.786 11.5788 163.708 11.9232 163.708 12.328C163.708 12.7327 163.786 13.0772 163.941 13.3614C164.104 13.6455 164.324 13.8651 164.6 14.0201C164.875 14.1751 165.185 14.2527 165.53 14.2527C165.848 14.2527 166.141 14.1795 166.408 14.0331C166.684 13.878 166.912 13.6326 167.093 13.2968L168.656 14.1493C168.397 14.7091 167.997 15.1439 167.454 15.454C166.912 15.7554 166.275 15.9061 165.543 15.9061ZM172.154 15.9061C171.56 15.9061 170.987 15.8372 170.436 15.6994C169.893 15.553 169.463 15.3722 169.144 15.1569L169.816 13.7101C170.135 13.9082 170.509 14.0718 170.94 14.201C171.379 14.3215 171.81 14.3818 172.231 14.3818C172.697 14.3818 173.024 14.3258 173.213 14.2139C173.411 14.1019 173.51 13.9469 173.51 13.7489C173.51 13.5853 173.433 13.4647 173.278 13.3872C173.131 13.3011 172.933 13.2365 172.684 13.1934C172.434 13.1504 172.158 13.1073 171.857 13.0643C171.564 13.0212 171.267 12.9652 170.966 12.8963C170.664 12.8188 170.389 12.7069 170.139 12.5605C169.889 12.4141 169.687 12.216 169.532 11.9663C169.385 11.7165 169.312 11.3936 169.312 10.9975C169.312 10.5583 169.437 10.1708 169.687 9.83492C169.945 9.49907 170.315 9.23641 170.798 9.04696C171.28 8.84889 171.857 8.74986 172.529 8.74986C173.002 8.74986 173.484 8.80153 173.975 8.90487C174.466 9.00821 174.875 9.15891 175.202 9.35698L174.531 10.7908C174.195 10.5927 173.855 10.4593 173.51 10.3904C173.174 10.3129 172.847 10.2741 172.529 10.2741C172.081 10.2741 171.754 10.3344 171.547 10.455C171.34 10.5755 171.237 10.7305 171.237 10.92C171.237 11.0922 171.31 11.2214 171.456 11.3075C171.611 11.3936 171.814 11.4625 172.064 11.5142C172.313 11.5658 172.585 11.6132 172.877 11.6563C173.179 11.6907 173.48 11.7467 173.782 11.8242C174.083 11.9017 174.354 12.0136 174.595 12.16C174.845 12.2978 175.047 12.4916 175.202 12.7413C175.357 12.9824 175.435 13.3011 175.435 13.6972C175.435 14.1278 175.306 14.511 175.047 14.8468C174.789 15.1741 174.415 15.4324 173.924 15.6219C173.441 15.8113 172.852 15.9061 172.154 15.9061Z" fill="white"/>
<rect x="4.30566" y="137.062" width="206.513" height="40.3749" fill="#B92928"/>
<rect x="4.30566" y="137.062" width="206.513" height="40.3749" stroke="white"/>
<path d="M46.4604 166.755C44.9375 166.755 43.574 166.383 42.3698 165.64C41.1657 164.878 40.2183 163.78 39.5276 162.346C38.837 160.912 38.4917 159.176 38.4917 157.14C38.4917 155.103 38.837 153.368 39.5276 151.933C40.2183 150.499 41.1657 149.41 42.3698 148.666C43.574 147.905 44.9375 147.524 46.4604 147.524C48.0011 147.524 49.3646 147.905 50.5511 148.666C51.7552 149.41 52.7026 150.499 53.3932 151.933C54.0839 153.368 54.4292 155.103 54.4292 157.14C54.4292 159.176 54.0839 160.912 53.3932 162.346C52.7026 163.78 51.7552 164.878 50.5511 165.64C49.3646 166.383 48.0011 166.755 46.4604 166.755ZM46.4604 163.116C47.1865 163.116 47.8151 162.913 48.3464 162.505C48.8953 162.098 49.3203 161.452 49.6214 160.566C49.9401 159.681 50.0995 158.539 50.0995 157.14C50.0995 155.741 49.9401 154.599 49.6214 153.713C49.3203 152.828 48.8953 152.181 48.3464 151.774C47.8151 151.367 47.1865 151.163 46.4604 151.163C45.7521 151.163 45.1235 151.367 44.5745 151.774C44.0433 152.181 43.6183 152.828 43.2995 153.713C42.9985 154.599 42.848 155.741 42.848 157.14C42.848 158.539 42.9985 159.681 43.2995 160.566C43.6183 161.452 44.0433 162.098 44.5745 162.505C45.1235 162.913 45.7521 163.116 46.4604 163.116ZM62.2902 166.755C60.9975 166.755 59.7136 166.587 58.4386 166.251C57.1636 165.896 56.0834 165.401 55.198 164.763L56.8715 161.469C57.5798 161.983 58.4032 162.39 59.3418 162.691C60.2803 162.992 61.2277 163.143 62.1839 163.143C63.2642 163.143 64.1142 162.93 64.7339 162.505C65.3537 162.08 65.6636 161.496 65.6636 160.752C65.6636 160.044 65.3891 159.486 64.8402 159.079C64.2912 158.671 63.4058 158.468 62.1839 158.468L60.2183 158.468L60.2183 155.626L65.398 149.755L65.8761 151.296L56.1277 151.296L56.1277 147.843L69.1433 147.843L69.1433 150.632L63.9902 156.502L61.8121 155.254L63.0605 155.254C65.3449 155.254 67.0714 155.767 68.2402 156.794C69.4089 157.821 69.9933 159.141 69.9933 160.752C69.9933 161.797 69.7188 162.78 69.1699 163.701C68.6209 164.604 67.7798 165.339 66.6464 165.905C65.5131 166.472 64.061 166.755 62.2902 166.755ZM72.3254 160.619L72.3254 157.299L79.8426 157.299L79.8426 160.619L72.3254 160.619ZM88.5482 166.755C87.2555 166.755 85.9716 166.587 84.6966 166.251C83.4394 165.896 82.3591 165.401 81.456 164.763L83.156 161.469C83.8644 161.983 84.6789 162.39 85.5998 162.691C86.5383 162.992 87.4857 163.143 88.4419 163.143C89.5221 163.143 90.3721 162.93 90.9919 162.505C91.6117 162.08 91.9216 161.487 91.9216 160.726C91.9216 160.247 91.7977 159.822 91.5497 159.451C91.3018 159.079 90.8591 158.795 90.2216 158.601C89.6018 158.406 88.7253 158.308 87.5919 158.308L82.8373 158.308L83.7935 147.843L95.1357 147.843L95.1357 151.296L85.3341 151.296L87.5654 149.33L86.9013 156.794L84.6701 154.829L88.6013 154.829C90.443 154.829 91.9216 155.086 93.0372 155.599C94.1706 156.095 94.994 156.777 95.5075 157.644C96.0211 158.512 96.2779 159.495 96.2779 160.593C96.2779 161.691 96.0034 162.709 95.4544 163.647C94.9055 164.568 94.0555 165.321 92.9044 165.905C91.7711 166.472 90.319 166.755 88.5482 166.755ZM105.992 166.755C104.47 166.755 103.106 166.383 101.902 165.64C100.698 164.878 99.7503 163.78 99.0597 162.346C98.369 160.912 98.0237 159.176 98.0237 157.14C98.0237 155.103 98.369 153.368 99.0597 151.933C99.7503 150.499 100.698 149.41 101.902 148.666C103.106 147.905 104.47 147.524 105.992 147.524C107.533 147.524 108.897 147.905 110.083 148.666C111.287 149.41 112.235 150.499 112.925 151.933C113.616 153.368 113.961 155.103 113.961 157.14C113.961 159.176 113.616 160.912 112.925 162.346C112.235 163.78 111.287 164.878 110.083 165.64C108.897 166.383 107.533 166.755 105.992 166.755ZM105.992 163.116C106.718 163.116 107.347 162.913 107.878 162.505C108.427 162.098 108.852 161.452 109.153 160.566C109.472 159.681 109.631 158.539 109.631 157.14C109.631 155.741 109.472 154.599 109.153 153.713C108.852 152.828 108.427 152.181 107.878 151.774C107.347 151.367 106.718 151.163 105.992 151.163C105.284 151.163 104.655 151.367 104.107 151.774C103.575 152.181 103.15 152.828 102.832 153.713C102.53 154.599 102.38 155.741 102.38 157.14C102.38 158.539 102.53 159.681 102.832 160.566C103.15 161.452 103.575 162.098 104.107 162.505C104.655 162.913 105.284 163.116 105.992 163.116ZM124.021 166.755C122.498 166.755 121.134 166.383 119.93 165.64C118.726 164.878 117.778 163.78 117.088 162.346C116.397 160.912 116.052 159.176 116.052 157.14C116.052 155.103 116.397 153.368 117.088 151.933C117.778 150.499 118.726 149.41 119.93 148.666C121.134 147.905 122.498 147.524 124.021 147.524C125.561 147.524 126.925 147.905 128.111 148.666C129.315 149.41 130.263 150.499 130.953 151.933C131.644 153.368 131.989 155.103 131.989 157.14C131.989 159.176 131.644 160.912 130.953 162.346C130.263 163.78 129.315 164.878 128.111 165.64C126.925 166.383 125.561 166.755 124.021 166.755ZM124.021 163.116C124.747 163.116 125.375 162.913 125.907 162.505C126.456 162.098 126.881 161.452 127.182 160.566C127.5 159.681 127.66 158.539 127.66 157.14C127.66 155.741 127.5 154.599 127.182 153.713C126.881 152.828 126.456 152.181 125.907 151.774C125.375 151.367 124.747 151.163 124.021 151.163C123.312 151.163 122.684 151.367 122.135 151.774C121.603 152.181 121.178 152.828 120.86 153.713C120.559 154.599 120.408 155.741 120.408 157.14C120.408 158.539 120.559 159.681 120.86 160.566C121.178 161.452 121.603 162.098 122.135 162.505C122.684 162.913 123.312 163.116 124.021 163.116ZM160.781 151.933C161.914 151.933 162.915 152.164 163.782 152.624C164.668 153.067 165.358 153.757 165.854 154.696C166.368 155.617 166.625 156.803 166.625 158.255L166.625 166.437L162.481 166.437L162.481 158.893C162.481 157.742 162.242 156.892 161.764 156.343C161.285 155.794 160.613 155.519 159.745 155.519C159.143 155.519 158.603 155.661 158.125 155.944C157.646 156.21 157.275 156.617 157.009 157.166C156.743 157.715 156.61 158.415 156.61 159.265L156.61 166.437L152.467 166.437L152.467 158.893C152.467 157.742 152.228 156.892 151.75 156.343C151.289 155.794 150.625 155.519 149.757 155.519C149.155 155.519 148.615 155.661 148.137 155.944C147.659 156.21 147.287 156.617 147.021 157.166C146.756 157.715 146.623 158.415 146.623 159.265L146.623 166.437L142.479 166.437L142.479 152.146L146.437 152.146L146.437 156.051L145.693 154.908C146.189 153.934 146.889 153.2 147.792 152.704C148.713 152.19 149.757 151.933 150.926 151.933C152.237 151.933 153.379 152.27 154.353 152.943C155.344 153.598 156 154.607 156.318 155.971L154.857 155.572C155.335 154.457 156.097 153.571 157.142 152.916C158.204 152.261 159.417 151.933 160.781 151.933ZM170.339 166.437L170.339 146.727L174.482 146.727L174.482 166.437L170.339 166.437Z" fill="#F6F4F3"/>
</g>
<path d="M35.9154 198V188.897H39.8429C40.8573 188.897 41.6419 189.1 42.1968 189.508C42.7603 189.915 43.0421 190.492 43.0421 191.237C43.0421 191.732 42.925 192.148 42.691 192.486C42.4655 192.824 42.1534 193.08 41.7546 193.253C41.3644 193.427 40.9353 193.513 40.4671 193.513L40.6882 193.201C41.2691 193.201 41.7676 193.292 42.1838 193.474C42.6086 193.648 42.938 193.912 43.1721 194.268C43.4062 194.614 43.5233 195.048 43.5233 195.568C43.5233 196.34 43.2372 196.938 42.6649 197.363C42.1014 197.788 41.2474 198 40.103 198H35.9154ZM36.8777 197.207H40.09C40.8876 197.207 41.4988 197.072 41.9237 196.804C42.3485 196.526 42.5609 196.088 42.5609 195.49C42.5609 194.9 42.3485 194.471 41.9237 194.203C41.4988 193.925 40.8876 193.786 40.09 193.786H36.7737V192.993H39.7778C40.5061 192.993 41.0697 192.854 41.4685 192.577C41.876 192.299 42.0797 191.888 42.0797 191.341C42.0797 190.787 41.876 190.375 41.4685 190.106C41.0697 189.829 40.5061 189.69 39.7778 189.69H36.8777V197.207ZM49.8034 198V196.491L49.7644 196.244V193.721C49.7644 193.14 49.5997 192.694 49.2702 192.382C48.9495 192.07 48.4683 191.914 47.8267 191.914C47.3845 191.914 46.964 191.987 46.5652 192.135C46.1664 192.282 45.8283 192.477 45.5508 192.72L45.1347 192.031C45.4815 191.736 45.8976 191.511 46.3831 191.354C46.8687 191.19 47.3802 191.107 47.9177 191.107C48.8021 191.107 49.4827 191.328 49.9595 191.771C50.445 192.204 50.6878 192.867 50.6878 193.76V198H49.8034ZM47.4496 198.065C46.938 198.065 46.4915 197.983 46.11 197.818C45.7372 197.645 45.4511 197.41 45.2517 197.116C45.0523 196.812 44.9526 196.465 44.9526 196.075C44.9526 195.72 45.035 195.399 45.1997 195.113C45.3731 194.818 45.6505 194.584 46.032 194.411C46.4222 194.229 46.9424 194.138 47.5926 194.138H49.9465V194.827H47.6186C46.9597 194.827 46.5002 194.944 46.2401 195.178C45.9887 195.412 45.8629 195.702 45.8629 196.049C45.8629 196.439 46.0147 196.752 46.3181 196.986C46.6216 197.22 47.0464 197.337 47.5926 197.337C48.1128 197.337 48.5593 197.22 48.9321 196.986C49.3136 196.743 49.591 196.396 49.7644 195.945L49.9725 196.582C49.7991 197.033 49.4957 197.393 49.0622 197.662C48.6373 197.931 48.0998 198.065 47.4496 198.065ZM53.1957 198V188.35H54.1191V198H53.1957ZM60.9669 198V196.491L60.9279 196.244V193.721C60.9279 193.14 60.7631 192.694 60.4337 192.382C60.1129 192.07 59.6317 191.914 58.9901 191.914C58.548 191.914 58.1275 191.987 57.7287 192.135C57.3298 192.282 56.9917 192.477 56.7143 192.72L56.2981 192.031C56.6449 191.736 57.0611 191.511 57.5466 191.354C58.0321 191.19 58.5436 191.107 59.0812 191.107C59.9655 191.107 60.6461 191.328 61.1229 191.771C61.6085 192.204 61.8512 192.867 61.8512 193.76V198H60.9669ZM58.613 198.065C58.1015 198.065 57.655 197.983 57.2735 197.818C56.9007 197.645 56.6146 197.41 56.4152 197.116C56.2157 196.812 56.116 196.465 56.116 196.075C56.116 195.72 56.1984 195.399 56.3631 195.113C56.5365 194.818 56.814 194.584 57.1954 194.411C57.5856 194.229 58.1058 194.138 58.756 194.138H61.1099V194.827H58.7821C58.1231 194.827 57.6636 194.944 57.4035 195.178C57.1521 195.412 57.0264 195.702 57.0264 196.049C57.0264 196.439 57.1781 196.752 57.4816 196.986C57.785 197.22 58.2098 197.337 58.756 197.337C59.2762 197.337 59.7227 197.22 60.0956 196.986C60.477 196.743 60.7545 196.396 60.9279 195.945L61.136 196.582C60.9626 197.033 60.6591 197.393 60.2256 197.662C59.8008 197.931 59.2632 198.065 58.613 198.065ZM67.8445 191.107C68.3994 191.107 68.8849 191.216 69.301 191.432C69.7259 191.641 70.0553 191.961 70.2894 192.395C70.5322 192.828 70.6536 193.375 70.6536 194.033V198H69.7302V194.125C69.7302 193.405 69.5481 192.863 69.184 192.499C68.8285 192.126 68.3257 191.94 67.6754 191.94C67.1899 191.94 66.7651 192.039 66.4009 192.239C66.0455 192.43 65.768 192.711 65.5686 193.084C65.3779 193.448 65.2825 193.89 65.2825 194.411V198H64.3592V191.172H65.2435V193.045L65.1004 192.694C65.3172 192.2 65.664 191.814 66.1408 191.537C66.6177 191.25 67.1856 191.107 67.8445 191.107ZM75.9827 198.065C75.3065 198.065 74.6996 197.918 74.1621 197.623C73.6332 197.319 73.217 196.908 72.9136 196.387C72.6101 195.859 72.4584 195.256 72.4584 194.58C72.4584 193.895 72.6101 193.292 72.9136 192.772C73.217 192.252 73.6332 191.844 74.1621 191.55C74.6996 191.255 75.3065 191.107 75.9827 191.107C76.5636 191.107 77.0882 191.22 77.5564 191.445C78.0245 191.671 78.393 192.009 78.6618 192.46L77.9725 192.928C77.7384 192.581 77.448 192.326 77.1012 192.161C76.7544 191.996 76.3772 191.914 75.9697 191.914C75.4842 191.914 75.0464 192.026 74.6562 192.252C74.2661 192.469 73.9583 192.776 73.7329 193.175C73.5075 193.574 73.3948 194.042 73.3948 194.58C73.3948 195.117 73.5075 195.585 73.7329 195.984C73.9583 196.383 74.2661 196.695 74.6562 196.921C75.0464 197.137 75.4842 197.246 75.9697 197.246C76.3772 197.246 76.7544 197.163 77.1012 196.999C77.448 196.834 77.7384 196.582 77.9725 196.244L78.6618 196.713C78.393 197.155 78.0245 197.493 77.5564 197.727C77.0882 197.952 76.5636 198.065 75.9827 198.065ZM83.2615 198.065C82.5505 198.065 81.9263 197.918 81.3887 197.623C80.8512 197.319 80.4307 196.908 80.1273 196.387C79.8238 195.859 79.6721 195.256 79.6721 194.58C79.6721 193.903 79.8151 193.305 80.1013 192.785C80.396 192.265 80.7949 191.857 81.2977 191.563C81.8092 191.259 82.3815 191.107 83.0144 191.107C83.6559 191.107 84.2238 191.255 84.718 191.55C85.2209 191.836 85.6154 192.243 85.9015 192.772C86.1876 193.292 86.3306 193.895 86.3306 194.58C86.3306 194.623 86.3263 194.671 86.3176 194.723C86.3176 194.766 86.3176 194.814 86.3176 194.866H80.3744V194.177H85.8234L85.4593 194.45C85.4593 193.955 85.3509 193.518 85.1342 193.136C84.9261 192.746 84.64 192.443 84.2758 192.226C83.9117 192.009 83.4912 191.901 83.0144 191.901C82.5462 191.901 82.1257 192.009 81.7529 192.226C81.3801 192.443 81.0896 192.746 80.8816 193.136C80.6735 193.526 80.5694 193.973 80.5694 194.476V194.619C80.5694 195.139 80.6821 195.598 80.9076 195.997C81.1417 196.387 81.4624 196.695 81.8699 196.921C82.2861 197.137 82.7586 197.246 83.2875 197.246C83.7036 197.246 84.0894 197.172 84.4449 197.025C84.8091 196.877 85.1212 196.652 85.3813 196.348L85.9015 196.947C85.598 197.311 85.2165 197.588 84.757 197.779C84.3062 197.97 83.8077 198.065 83.2615 198.065ZM90.9281 198.065C90.2778 198.065 89.6926 197.918 89.1724 197.623C88.6609 197.328 88.2577 196.921 87.963 196.4C87.6682 195.872 87.5208 195.265 87.5208 194.58C87.5208 193.886 87.6682 193.279 87.963 192.759C88.2577 192.239 88.6609 191.836 89.1724 191.55C89.6926 191.255 90.2778 191.107 90.9281 191.107C91.5263 191.107 92.0595 191.242 92.5277 191.511C93.0046 191.779 93.3817 192.174 93.6591 192.694C93.9452 193.206 94.0883 193.834 94.0883 194.58C94.0883 195.317 93.9496 195.945 93.6721 196.465C93.3947 196.986 93.0176 197.384 92.5407 197.662C92.0725 197.931 91.535 198.065 90.9281 198.065ZM90.9931 197.246C91.4786 197.246 91.9121 197.137 92.2936 196.921C92.6838 196.695 92.9872 196.383 93.204 195.984C93.4294 195.577 93.5421 195.109 93.5421 194.58C93.5421 194.042 93.4294 193.574 93.204 193.175C92.9872 192.776 92.6838 192.469 92.2936 192.252C91.9121 192.026 91.4786 191.914 90.9931 191.914C90.5163 191.914 90.0871 192.026 89.7056 192.252C89.3241 192.469 89.0207 192.776 88.7953 193.175C88.5699 193.574 88.4571 194.042 88.4571 194.58C88.4571 195.109 88.5699 195.577 88.7953 195.984C89.0207 196.383 89.3241 196.695 89.7056 196.921C90.0871 197.137 90.5163 197.246 90.9931 197.246ZM93.5681 198V195.945L93.6591 194.567L93.5291 193.188V188.35H94.4524V198H93.5681ZM104.576 198.078C103.891 198.078 103.258 197.965 102.677 197.74C102.097 197.506 101.594 197.181 101.169 196.765C100.744 196.348 100.41 195.859 100.168 195.295C99.9334 194.731 99.8164 194.116 99.8164 193.448C99.8164 192.781 99.9334 192.165 100.168 191.602C100.41 191.038 100.744 190.548 101.169 190.132C101.602 189.716 102.11 189.395 102.69 189.17C103.271 188.936 103.904 188.818 104.589 188.818C105.248 188.818 105.868 188.931 106.449 189.157C107.03 189.373 107.52 189.703 107.918 190.145L107.307 190.756C106.934 190.375 106.523 190.102 106.072 189.937C105.621 189.764 105.135 189.677 104.615 189.677C104.069 189.677 103.562 189.772 103.094 189.963C102.625 190.145 102.218 190.409 101.871 190.756C101.524 191.094 101.251 191.493 101.052 191.953C100.861 192.404 100.766 192.902 100.766 193.448C100.766 193.994 100.861 194.497 101.052 194.957C101.251 195.408 101.524 195.806 101.871 196.153C102.218 196.491 102.625 196.756 103.094 196.947C103.562 197.129 104.069 197.22 104.615 197.22C105.135 197.22 105.621 197.133 106.072 196.96C106.523 196.786 106.934 196.509 107.307 196.127L107.918 196.739C107.52 197.181 107.03 197.514 106.449 197.74C105.868 197.965 105.244 198.078 104.576 198.078ZM113.952 198V196.491L113.913 196.244V193.721C113.913 193.14 113.748 192.694 113.419 192.382C113.098 192.07 112.617 191.914 111.975 191.914C111.533 191.914 111.113 191.987 110.714 192.135C110.315 192.282 109.977 192.477 109.699 192.72L109.283 192.031C109.63 191.736 110.046 191.511 110.532 191.354C111.017 191.19 111.529 191.107 112.066 191.107C112.951 191.107 113.631 191.328 114.108 191.771C114.594 192.204 114.836 192.867 114.836 193.76V198H113.952ZM111.598 198.065C111.087 198.065 110.64 197.983 110.259 197.818C109.886 197.645 109.6 197.41 109.4 197.116C109.201 196.812 109.101 196.465 109.101 196.075C109.101 195.72 109.183 195.399 109.348 195.113C109.522 194.818 109.799 194.584 110.181 194.411C110.571 194.229 111.091 194.138 111.741 194.138H114.095V194.827H111.767C111.108 194.827 110.649 194.944 110.389 195.178C110.137 195.412 110.011 195.702 110.011 196.049C110.011 196.439 110.163 196.752 110.467 196.986C110.77 197.22 111.195 197.337 111.741 197.337C112.261 197.337 112.708 197.22 113.081 196.986C113.462 196.743 113.74 196.396 113.913 195.945L114.121 196.582C113.948 197.033 113.644 197.393 113.211 197.662C112.786 197.931 112.248 198.065 111.598 198.065ZM120.869 198.065C120.279 198.065 119.746 197.931 119.269 197.662C118.792 197.384 118.411 196.99 118.125 196.478C117.847 195.958 117.708 195.325 117.708 194.58C117.708 193.834 117.847 193.206 118.125 192.694C118.402 192.174 118.779 191.779 119.256 191.511C119.733 191.242 120.27 191.107 120.869 191.107C121.519 191.107 122.1 191.255 122.611 191.55C123.131 191.836 123.539 192.243 123.834 192.772C124.128 193.292 124.276 193.895 124.276 194.58C124.276 195.273 124.128 195.88 123.834 196.4C123.539 196.921 123.131 197.328 122.611 197.623C122.1 197.918 121.519 198.065 120.869 198.065ZM117.344 200.523V191.172H118.229V193.227L118.138 194.593L118.268 195.971V200.523H117.344ZM120.804 197.246C121.289 197.246 121.723 197.137 122.104 196.921C122.486 196.695 122.789 196.383 123.014 195.984C123.24 195.577 123.353 195.109 123.353 194.58C123.353 194.051 123.24 193.587 123.014 193.188C122.789 192.789 122.486 192.477 122.104 192.252C121.723 192.026 121.289 191.914 120.804 191.914C120.318 191.914 119.88 192.026 119.49 192.252C119.109 192.477 118.805 192.789 118.58 193.188C118.363 193.587 118.255 194.051 118.255 194.58C118.255 195.109 118.363 195.577 118.58 195.984C118.805 196.383 119.109 196.695 119.49 196.921C119.88 197.137 120.318 197.246 120.804 197.246ZM130.399 198V196.491L130.36 196.244V193.721C130.36 193.14 130.195 192.694 129.865 192.382C129.545 192.07 129.063 191.914 128.422 191.914C127.98 191.914 127.559 191.987 127.16 192.135C126.762 192.282 126.423 192.477 126.146 192.72L125.73 192.031C126.077 191.736 126.493 191.511 126.978 191.354C127.464 191.19 127.975 191.107 128.513 191.107C129.397 191.107 130.078 191.328 130.555 191.771C131.04 192.204 131.283 192.867 131.283 193.76V198H130.399ZM128.045 198.065C127.533 198.065 127.087 197.983 126.705 197.818C126.332 197.645 126.046 197.41 125.847 197.116C125.648 196.812 125.548 196.465 125.548 196.075C125.548 195.72 125.63 195.399 125.795 195.113C125.968 194.818 126.246 194.584 126.627 194.411C127.017 194.229 127.538 194.138 128.188 194.138H130.542V194.827H128.214C127.555 194.827 127.095 194.944 126.835 195.178C126.584 195.412 126.458 195.702 126.458 196.049C126.458 196.439 126.61 196.752 126.913 196.986C127.217 197.22 127.642 197.337 128.188 197.337C128.708 197.337 129.155 197.22 129.527 196.986C129.909 196.743 130.186 196.396 130.36 195.945L130.568 196.582C130.394 197.033 130.091 197.393 129.657 197.662C129.233 197.931 128.695 198.065 128.045 198.065ZM136.626 198.065C135.95 198.065 135.343 197.918 134.805 197.623C134.276 197.319 133.86 196.908 133.557 196.387C133.253 195.859 133.102 195.256 133.102 194.58C133.102 193.895 133.253 193.292 133.557 192.772C133.86 192.252 134.276 191.844 134.805 191.55C135.343 191.255 135.95 191.107 136.626 191.107C137.207 191.107 137.731 191.22 138.2 191.445C138.668 191.671 139.036 192.009 139.305 192.46L138.616 192.928C138.382 192.581 138.091 192.326 137.744 192.161C137.398 191.996 137.02 191.914 136.613 191.914C136.127 191.914 135.69 192.026 135.3 192.252C134.909 192.469 134.602 192.776 134.376 193.175C134.151 193.574 134.038 194.042 134.038 194.58C134.038 195.117 134.151 195.585 134.376 195.984C134.602 196.383 134.909 196.695 135.3 196.921C135.69 197.137 136.127 197.246 136.613 197.246C137.02 197.246 137.398 197.163 137.744 196.999C138.091 196.834 138.382 196.582 138.616 196.244L139.305 196.713C139.036 197.155 138.668 197.493 138.2 197.727C137.731 197.952 137.207 198.065 136.626 198.065ZM141.017 198V191.172H141.941V198H141.017ZM141.486 189.664C141.295 189.664 141.134 189.599 141.004 189.469C140.874 189.339 140.809 189.183 140.809 189.001C140.809 188.818 140.874 188.667 141.004 188.545C141.134 188.415 141.295 188.35 141.486 188.35C141.676 188.35 141.837 188.411 141.967 188.532C142.097 188.654 142.162 188.805 142.162 188.988C142.162 189.178 142.097 189.339 141.967 189.469C141.845 189.599 141.685 189.664 141.486 189.664ZM146.669 198.065C146.027 198.065 145.533 197.892 145.186 197.545C144.839 197.198 144.666 196.708 144.666 196.075V189.664H145.589V196.023C145.589 196.422 145.689 196.73 145.888 196.947C146.096 197.163 146.391 197.272 146.773 197.272C147.18 197.272 147.518 197.155 147.787 196.921L148.112 197.584C147.93 197.749 147.709 197.87 147.449 197.948C147.198 198.026 146.937 198.065 146.669 198.065ZM143.443 191.94V191.172H147.67V191.94H143.443ZM149.718 200.588C149.397 200.588 149.09 200.536 148.795 200.432C148.509 200.328 148.262 200.172 148.054 199.964L148.483 199.274C148.656 199.439 148.842 199.565 149.042 199.652C149.25 199.747 149.48 199.795 149.731 199.795C150.035 199.795 150.295 199.708 150.511 199.535C150.737 199.37 150.949 199.075 151.149 198.65L151.591 197.649L151.695 197.506L154.504 191.172H155.414L151.994 198.819C151.803 199.261 151.591 199.613 151.357 199.873C151.131 200.133 150.884 200.315 150.616 200.419C150.347 200.532 150.048 200.588 149.718 200.588ZM151.539 198.195L148.392 191.172H149.354L152.137 197.441L151.539 198.195ZM160.313 198V188.897H161.276V198H160.313ZM164.238 198V188.897H165.031L169.193 195.997H168.777L172.899 188.897H173.692V198H172.769V190.34H172.99L169.193 196.843H168.738L164.914 190.34H165.161V198H164.238ZM176.659 198V188.897H177.621V197.168H182.719V198H176.659ZM49.5464 217.078C48.8615 217.078 48.2286 216.965 47.6477 216.74C47.0668 216.506 46.5639 216.181 46.1391 215.765C45.7143 215.348 45.3805 214.859 45.1377 214.295C44.9036 213.731 44.7866 213.116 44.7866 212.448C44.7866 211.781 44.9036 211.165 45.1377 210.602C45.3805 210.038 45.7143 209.548 46.1391 209.132C46.5726 208.716 47.0798 208.395 47.6607 208.17C48.2416 207.936 48.8745 207.818 49.5594 207.818C50.2183 207.818 50.8382 207.931 51.4191 208.157C52 208.373 52.4899 208.703 52.8887 209.145L52.2774 209.756C51.9046 209.375 51.4928 209.102 51.042 208.937C50.5911 208.764 50.1056 208.677 49.5854 208.677C49.0392 208.677 48.532 208.772 48.0638 208.963C47.5957 209.145 47.1882 209.409 46.8414 209.756C46.4946 210.094 46.2215 210.493 46.0221 210.953C45.8313 211.404 45.7359 211.902 45.7359 212.448C45.7359 212.994 45.8313 213.497 46.0221 213.957C46.2215 214.408 46.4946 214.806 46.8414 215.153C47.1882 215.491 47.5957 215.756 48.0638 215.947C48.532 216.129 49.0392 216.22 49.5854 216.22C50.1056 216.22 50.5911 216.133 51.042 215.96C51.4928 215.786 51.9046 215.509 52.2774 215.127L52.8887 215.739C52.4899 216.181 52 216.514 51.4191 216.74C50.8382 216.965 50.214 217.078 49.5464 217.078ZM57.2234 217.065C56.5645 217.065 55.9706 216.918 55.4417 216.623C54.9215 216.319 54.5097 215.908 54.2062 215.387C53.9028 214.859 53.7511 214.256 53.7511 213.58C53.7511 212.895 53.9028 212.292 54.2062 211.772C54.5097 211.252 54.9215 210.844 55.4417 210.55C55.9619 210.255 56.5558 210.107 57.2234 210.107C57.8996 210.107 58.4979 210.255 59.0181 210.55C59.5469 210.844 59.9588 211.252 60.2535 211.772C60.557 212.292 60.7087 212.895 60.7087 213.58C60.7087 214.256 60.557 214.859 60.2535 215.387C59.9588 215.908 59.5469 216.319 59.0181 216.623C58.4892 216.918 57.891 217.065 57.2234 217.065ZM57.2234 216.246C57.7176 216.246 58.1554 216.137 58.5369 215.921C58.9184 215.695 59.2175 215.383 59.4342 214.984C59.6597 214.577 59.7724 214.109 59.7724 213.58C59.7724 213.042 59.6597 212.574 59.4342 212.175C59.2175 211.776 58.9184 211.469 58.5369 211.252C58.1554 211.026 57.7219 210.914 57.2364 210.914C56.7509 210.914 56.3174 211.026 55.9359 211.252C55.5544 211.469 55.251 211.776 55.0256 212.175C54.8001 212.574 54.6874 213.042 54.6874 213.58C54.6874 214.109 54.8001 214.577 55.0256 214.984C55.251 215.383 55.5544 215.695 55.9359 215.921C56.3174 216.137 56.7465 216.246 57.2234 216.246ZM66.0792 210.107C66.634 210.107 67.1196 210.216 67.5357 210.432C67.9605 210.641 68.29 210.961 68.5241 211.395C68.7669 211.828 68.8882 212.375 68.8882 213.033V217H67.9649V213.125C67.9649 212.405 67.7828 211.863 67.4187 211.499C67.0632 211.126 66.5603 210.94 65.9101 210.94C65.4246 210.94 64.9997 211.039 64.6356 211.239C64.2801 211.43 64.0027 211.711 63.8033 212.084C63.6126 212.448 63.5172 212.89 63.5172 213.411V217H62.5938V210.172H63.4782V212.045L63.3351 211.694C63.5519 211.2 63.8987 210.814 64.3755 210.537C64.8524 210.25 65.4202 210.107 66.0792 210.107ZM73.5412 217.065C72.8996 217.065 72.4054 216.892 72.0586 216.545C71.7118 216.198 71.5384 215.708 71.5384 215.075V208.664H72.4618V215.023C72.4618 215.422 72.5615 215.73 72.7609 215.947C72.9689 216.163 73.2637 216.272 73.6452 216.272C74.0527 216.272 74.3908 216.155 74.6596 215.921L74.9847 216.584C74.8026 216.749 74.5816 216.87 74.3215 216.948C74.07 217.026 73.8099 217.065 73.5412 217.065ZM70.3159 210.94V210.172H74.5425V210.94H70.3159ZM80.9442 217V215.491L80.9052 215.244V212.721C80.9052 212.14 80.7405 211.694 80.411 211.382C80.0902 211.07 79.6091 210.914 78.9675 210.914C78.5253 210.914 78.1048 210.987 77.706 211.135C77.3072 211.282 76.9691 211.477 76.6916 211.72L76.2755 211.031C76.6223 210.736 77.0384 210.511 77.5239 210.354C78.0095 210.19 78.521 210.107 79.0585 210.107C79.9429 210.107 80.6235 210.328 81.1003 210.771C81.5858 211.204 81.8286 211.867 81.8286 212.76V217H80.9442ZM78.5903 217.065C78.0788 217.065 77.6323 216.983 77.2508 216.818C76.878 216.645 76.5919 216.41 76.3925 216.116C76.1931 215.812 76.0934 215.465 76.0934 215.075C76.0934 214.72 76.1758 214.399 76.3405 214.113C76.5139 213.818 76.7913 213.584 77.1728 213.411C77.563 213.229 78.0831 213.138 78.7334 213.138H81.0873V213.827H78.7594C78.1005 213.827 77.641 213.944 77.3809 214.178C77.1295 214.412 77.0037 214.702 77.0037 215.049C77.0037 215.439 77.1555 215.752 77.4589 215.986C77.7624 216.22 78.1872 216.337 78.7334 216.337C79.2536 216.337 79.7001 216.22 80.0729 215.986C80.4544 215.743 80.7318 215.396 80.9052 214.945L81.1133 215.582C80.9399 216.033 80.6365 216.393 80.203 216.662C79.7781 216.931 79.2406 217.065 78.5903 217.065ZM84.3365 217V210.172H85.2599V217H84.3365ZM84.8047 208.664C84.6139 208.664 84.4535 208.599 84.3235 208.469C84.1934 208.339 84.1284 208.183 84.1284 208.001C84.1284 207.818 84.1934 207.667 84.3235 207.545C84.4535 207.415 84.6139 207.35 84.8047 207.35C84.9954 207.35 85.1558 207.411 85.2859 207.532C85.4159 207.654 85.4809 207.805 85.4809 207.988C85.4809 208.178 85.4159 208.339 85.2859 208.469C85.1645 208.599 85.0041 208.664 84.8047 208.664ZM91.3144 210.107C91.8693 210.107 92.3548 210.216 92.7709 210.432C93.1958 210.641 93.5252 210.961 93.7593 211.395C94.0021 211.828 94.1235 212.375 94.1235 213.033V217H93.2001V213.125C93.2001 212.405 93.018 211.863 92.6539 211.499C92.2984 211.126 91.7956 210.94 91.1453 210.94C90.6598 210.94 90.235 211.039 89.8708 211.239C89.5154 211.43 89.2379 211.711 89.0385 212.084C88.8478 212.448 88.7524 212.89 88.7524 213.411V217H87.829V210.172H88.7134V212.045L88.5703 211.694C88.7871 211.2 89.1339 210.814 89.6107 210.537C90.0876 210.25 90.6555 210.107 91.3144 210.107ZM99.5177 217.065C98.8067 217.065 98.1825 216.918 97.645 216.623C97.1074 216.319 96.6869 215.908 96.3835 215.387C96.08 214.859 95.9283 214.256 95.9283 213.58C95.9283 212.903 96.0714 212.305 96.3575 211.785C96.6522 211.265 97.0511 210.857 97.5539 210.563C98.0654 210.259 98.6377 210.107 99.2706 210.107C99.9122 210.107 100.48 210.255 100.974 210.55C101.477 210.836 101.872 211.243 102.158 211.772C102.444 212.292 102.587 212.895 102.587 213.58C102.587 213.623 102.583 213.671 102.574 213.723C102.574 213.766 102.574 213.814 102.574 213.866H96.6306V213.177H102.08L101.716 213.45C101.716 212.955 101.607 212.518 101.39 212.136C101.182 211.746 100.896 211.443 100.532 211.226C100.168 211.009 99.7474 210.901 99.2706 210.901C98.8024 210.901 98.3819 211.009 98.0091 211.226C97.6363 211.443 97.3458 211.746 97.1378 212.136C96.9297 212.526 96.8256 212.973 96.8256 213.476V213.619C96.8256 214.139 96.9384 214.598 97.1638 214.997C97.3979 215.387 97.7186 215.695 98.1261 215.921C98.5423 216.137 99.0148 216.246 99.5437 216.246C99.9598 216.246 100.346 216.172 100.701 216.025C101.065 215.877 101.377 215.652 101.637 215.348L102.158 215.947C101.854 216.311 101.473 216.588 101.013 216.779C100.562 216.97 100.064 217.065 99.5177 217.065ZM104.466 217V210.172H105.351V212.032L105.26 211.707C105.45 211.187 105.771 210.792 106.222 210.524C106.673 210.246 107.232 210.107 107.9 210.107V211.005C107.865 211.005 107.83 211.005 107.796 211.005C107.761 210.996 107.726 210.992 107.691 210.992C106.972 210.992 106.408 211.213 106.001 211.655C105.593 212.088 105.39 212.708 105.39 213.515V217H104.466ZM114.923 217.065C114.36 217.065 113.827 216.987 113.324 216.831C112.821 216.666 112.426 216.462 112.14 216.22L112.556 215.491C112.834 215.7 113.189 215.882 113.623 216.038C114.056 216.185 114.512 216.259 114.988 216.259C115.639 216.259 116.107 216.159 116.393 215.96C116.679 215.752 116.822 215.478 116.822 215.14C116.822 214.889 116.74 214.694 116.575 214.555C116.419 214.408 116.211 214.299 115.951 214.23C115.691 214.152 115.4 214.087 115.079 214.035C114.759 213.983 114.438 213.922 114.117 213.853C113.805 213.783 113.519 213.684 113.259 213.554C112.999 213.415 112.786 213.229 112.621 212.994C112.465 212.76 112.387 212.448 112.387 212.058C112.387 211.685 112.491 211.352 112.7 211.057C112.908 210.762 113.211 210.532 113.61 210.367C114.017 210.194 114.512 210.107 115.092 210.107C115.535 210.107 115.977 210.168 116.419 210.289C116.861 210.402 117.225 210.554 117.511 210.745L117.108 211.486C116.805 211.278 116.48 211.13 116.133 211.044C115.786 210.948 115.439 210.901 115.092 210.901C114.477 210.901 114.022 211.009 113.727 211.226C113.441 211.434 113.298 211.703 113.298 212.032C113.298 212.292 113.376 212.496 113.532 212.643C113.697 212.791 113.909 212.908 114.169 212.994C114.438 213.073 114.728 213.138 115.04 213.19C115.361 213.242 115.678 213.307 115.99 213.385C116.311 213.454 116.601 213.554 116.861 213.684C117.13 213.805 117.342 213.983 117.498 214.217C117.663 214.442 117.745 214.741 117.745 215.114C117.745 215.513 117.633 215.86 117.407 216.155C117.191 216.441 116.87 216.666 116.445 216.831C116.029 216.987 115.522 217.065 114.923 217.065ZM122.262 217.065C121.681 217.065 121.174 216.957 120.74 216.74C120.307 216.523 119.969 216.198 119.726 215.765C119.492 215.331 119.375 214.789 119.375 214.139V210.172H120.298V214.035C120.298 214.763 120.476 215.314 120.831 215.686C121.195 216.051 121.703 216.233 122.353 216.233C122.83 216.233 123.242 216.137 123.588 215.947C123.944 215.747 124.213 215.461 124.395 215.088C124.585 214.715 124.681 214.269 124.681 213.749V210.172H125.604V217H124.72V215.127L124.863 215.465C124.646 215.968 124.308 216.363 123.848 216.649C123.398 216.926 122.869 217.065 122.262 217.065ZM128.177 217V210.172H129.101V217L128.177 217ZM128.646 208.664C128.455 208.664 128.295 208.599 128.164 208.469C128.034 208.339 127.969 208.183 127.969 208.001C127.969 207.818 128.034 207.667 128.164 207.545C128.295 207.415 128.455 207.35 128.646 207.35C128.836 207.35 128.997 207.411 129.127 207.532C129.257 207.654 129.322 207.805 129.322 207.988C129.322 208.178 129.257 208.339 129.127 208.469C129.005 208.599 128.845 208.664 128.646 208.664ZM133.829 217.065C133.187 217.065 132.693 216.892 132.346 216.545C131.999 216.198 131.826 215.708 131.826 215.075V208.664H132.749V215.023C132.749 215.422 132.849 215.73 133.049 215.947C133.257 216.163 133.551 216.272 133.933 216.272C134.34 216.272 134.678 216.155 134.947 215.921L135.272 216.584C135.09 216.749 134.869 216.87 134.609 216.948C134.358 217.026 134.098 217.065 133.829 217.065ZM130.604 210.94V210.172H134.83V210.94H130.604ZM139.612 217.065C138.901 217.065 138.277 216.918 137.739 216.623C137.202 216.319 136.781 215.908 136.478 215.387C136.174 214.859 136.023 214.256 136.023 213.58C136.023 212.903 136.166 212.305 136.452 211.785C136.747 211.265 137.145 210.857 137.648 210.563C138.16 210.259 138.732 210.107 139.365 210.107C140.007 210.107 140.574 210.255 141.069 210.55C141.571 210.836 141.966 211.243 142.252 211.772C142.538 212.292 142.681 212.895 142.681 213.58C142.681 213.623 142.677 213.671 142.668 213.723C142.668 213.766 142.668 213.814 142.668 213.866H136.725V213.177H142.174L141.81 213.45C141.81 212.955 141.702 212.518 141.485 212.136C141.277 211.746 140.991 211.443 140.626 211.226C140.262 211.009 139.842 210.901 139.365 210.901C138.897 210.901 138.476 211.009 138.103 211.226C137.731 211.443 137.44 211.746 137.232 212.136C137.024 212.526 136.92 212.973 136.92 213.476V213.619C136.92 214.139 137.033 214.598 137.258 214.997C137.492 215.387 137.813 215.695 138.221 215.921C138.637 216.137 139.109 216.246 139.638 216.246C140.054 216.246 140.44 216.172 140.796 216.025C141.16 215.877 141.472 215.652 141.732 215.348L142.252 215.947C141.949 216.311 141.567 216.588 141.108 216.779C140.657 216.97 140.158 217.065 139.612 217.065ZM147.279 217.065C146.628 217.065 146.043 216.918 145.523 216.623C145.012 216.328 144.608 215.921 144.314 215.4C144.019 214.872 143.871 214.265 143.871 213.58C143.871 212.886 144.019 212.279 144.314 211.759C144.608 211.239 145.012 210.836 145.523 210.55C146.043 210.255 146.628 210.107 147.279 210.107C147.877 210.107 148.41 210.242 148.878 210.511C149.355 210.779 149.732 211.174 150.01 211.694C150.296 212.206 150.439 212.834 150.439 213.58C150.439 214.317 150.3 214.945 150.023 215.465C149.745 215.986 149.368 216.384 148.891 216.662C148.423 216.931 147.886 217.065 147.279 217.065ZM147.344 216.246C147.829 216.246 148.263 216.137 148.644 215.921C149.034 215.695 149.338 215.383 149.555 214.984C149.78 214.577 149.893 214.109 149.893 213.58C149.893 213.042 149.78 212.574 149.555 212.175C149.338 211.776 149.034 211.469 148.644 211.252C148.263 211.026 147.829 210.914 147.344 210.914C146.867 210.914 146.438 211.026 146.056 211.252C145.675 211.469 145.371 211.776 145.146 212.175C144.92 212.574 144.808 213.042 144.808 213.58C144.808 214.109 144.92 214.577 145.146 214.984C145.371 215.383 145.675 215.695 146.056 215.921C146.438 216.137 146.867 216.246 147.344 216.246ZM149.919 217V214.945L150.01 213.567L149.88 212.188V207.35H150.803V217H149.919ZM156.934 217V209.314C156.934 208.707 157.112 208.217 157.467 207.845C157.823 207.472 158.334 207.285 159.002 207.285C159.262 207.285 159.514 207.32 159.756 207.389C159.999 207.459 160.203 207.567 160.368 207.714L160.055 208.404C159.925 208.291 159.774 208.209 159.6 208.157C159.427 208.096 159.24 208.066 159.041 208.066C158.651 208.066 158.352 208.174 158.144 208.391C157.936 208.607 157.832 208.928 157.832 209.353V210.393L157.858 210.823V217H156.934ZM155.712 210.94V210.172H159.938V210.94H155.712ZM163.854 217.065C163.195 217.065 162.601 216.918 162.072 216.623C161.552 216.319 161.14 215.908 160.837 215.387C160.533 214.859 160.382 214.256 160.382 213.58C160.382 212.895 160.533 212.292 160.837 211.772C161.14 211.252 161.552 210.844 162.072 210.55C162.592 210.255 163.186 210.107 163.854 210.107C164.53 210.107 165.128 210.255 165.649 210.55C166.177 210.844 166.589 211.252 166.884 211.772C167.188 212.292 167.339 212.895 167.339 213.58C167.339 214.256 167.188 214.859 166.884 215.387C166.589 215.908 166.177 216.319 165.649 216.623C165.12 216.918 164.522 217.065 163.854 217.065ZM163.854 216.246C164.348 216.246 164.786 216.137 165.167 215.921C165.549 215.695 165.848 215.383 166.065 214.984C166.29 214.577 166.403 214.109 166.403 213.58C166.403 213.042 166.29 212.574 166.065 212.175C165.848 211.776 165.549 211.469 165.167 211.252C164.786 211.026 164.352 210.914 163.867 210.914C163.381 210.914 162.948 211.026 162.566 211.252C162.185 211.469 161.882 211.776 161.656 212.175C161.431 212.574 161.318 213.042 161.318 213.58C161.318 214.109 161.431 214.577 161.656 214.984C161.882 215.383 162.185 215.695 162.566 215.921C162.948 216.137 163.377 216.246 163.854 216.246ZM169.224 217V210.172H170.109V212.032L170.018 211.707C170.208 211.187 170.529 210.792 170.98 210.524C171.431 210.246 171.99 210.107 172.658 210.107V211.005C172.623 211.005 172.588 211.005 172.554 211.005C172.519 210.996 172.484 210.992 172.45 210.992C171.73 210.992 171.166 211.213 170.759 211.655C170.351 212.088 170.148 212.708 170.148 213.515V217H169.224ZM43.5508 236.078C42.8832 236.078 42.2849 235.931 41.7561 235.636C41.2359 235.341 40.824 234.929 40.5206 234.4C40.2172 233.872 40.0654 233.256 40.0654 232.554C40.0654 231.851 40.2172 231.24 40.5206 230.72C40.824 230.191 41.2359 229.779 41.7561 229.485C42.2849 229.19 42.8832 229.042 43.5508 229.042C44.1316 229.042 44.6562 229.172 45.1244 229.432C45.5925 229.693 45.9653 230.083 46.2428 230.603C46.5289 231.123 46.6719 231.773 46.6719 232.554C46.6719 233.334 46.5332 233.984 46.2558 234.504C45.987 235.025 45.6185 235.419 45.1504 235.688C44.6822 235.948 44.149 236.078 43.5508 236.078ZM43.6548 234.986C44.0883 234.986 44.4784 234.886 44.8252 234.686C45.1807 234.487 45.4582 234.205 45.6576 233.841C45.8656 233.468 45.9697 233.039 45.9697 232.554C45.9697 232.059 45.8656 231.635 45.6576 231.279C45.4582 230.915 45.1807 230.633 44.8252 230.434C44.4784 230.234 44.0883 230.135 43.6548 230.135C43.2126 230.135 42.8181 230.234 42.4713 230.434C42.1245 230.633 41.8471 230.915 41.639 231.279C41.4309 231.635 41.3269 232.059 41.3269 232.554C41.3269 233.039 41.4309 233.468 41.639 233.841C41.8471 234.205 42.1245 234.487 42.4713 234.686C42.8181 234.886 43.2126 234.986 43.6548 234.986ZM46.0087 236V234.14L46.0867 232.541L45.9567 230.941V226.35H47.2052V236H46.0087ZM52.6366 236.078C51.8996 236.078 51.2494 235.926 50.6858 235.623C50.1309 235.319 49.6974 234.903 49.3853 234.374C49.0819 233.846 48.9301 233.239 48.9301 232.554C48.9301 231.869 49.0775 231.262 49.3723 230.733C49.6758 230.204 50.0876 229.792 50.6078 229.498C51.1366 229.194 51.7305 229.042 52.3895 229.042C53.057 229.042 53.6466 229.19 54.1581 229.485C54.6697 229.779 55.0685 230.195 55.3546 230.733C55.6494 231.262 55.7968 231.882 55.7968 232.593C55.7968 232.645 55.7924 232.705 55.7838 232.775C55.7838 232.844 55.7794 232.909 55.7708 232.97H49.9055V232.073H55.1205L54.6133 232.385C54.622 231.942 54.5309 231.548 54.3402 231.201C54.1495 230.854 53.885 230.586 53.5469 230.395C53.2174 230.195 52.8316 230.096 52.3895 230.096C51.956 230.096 51.5701 230.195 51.232 230.395C50.8939 230.586 50.6295 230.859 50.4387 231.214C50.248 231.561 50.1526 231.96 50.1526 232.411V232.619C50.1526 233.078 50.2566 233.49 50.4647 233.854C50.6815 234.21 50.9806 234.487 51.3621 234.686C51.7435 234.886 52.1814 234.986 52.6756 234.986C53.0831 234.986 53.4515 234.916 53.781 234.778C54.1191 234.639 54.4139 234.431 54.6653 234.153L55.3546 234.96C55.0425 235.324 54.6523 235.601 54.1841 235.792C53.7246 235.983 53.2088 236.078 52.6366 236.078ZM59.5071 236.078C58.9349 236.078 58.3887 236 57.8685 235.844C57.357 235.688 56.9538 235.497 56.6591 235.272L57.1792 234.283C57.474 234.483 57.8382 234.652 58.2717 234.791C58.7052 234.929 59.1473 234.999 59.5982 234.999C60.1791 234.999 60.5952 234.916 60.8466 234.752C61.1067 234.587 61.2368 234.357 61.2368 234.062C61.2368 233.846 61.1588 233.676 61.0027 233.555C60.8466 233.434 60.6386 233.343 60.3785 233.282C60.127 233.221 59.8453 233.169 59.5331 233.126C59.221 233.074 58.9089 233.013 58.5968 232.944C58.2847 232.866 57.9986 232.762 57.7385 232.632C57.4784 232.493 57.2703 232.307 57.1142 232.073C56.9582 231.83 56.8801 231.509 56.8801 231.11C56.8801 230.694 56.9972 230.33 57.2313 230.018C57.4654 229.706 57.7948 229.467 58.2196 229.302C58.6531 229.129 59.1647 229.042 59.7542 229.042C60.2051 229.042 60.6602 229.099 61.1198 229.211C61.5879 229.315 61.9694 229.467 62.2642 229.667L61.731 230.655C61.4189 230.447 61.0937 230.304 60.7556 230.226C60.4175 230.148 60.0794 230.109 59.7412 230.109C59.195 230.109 58.7875 230.2 58.5188 230.382C58.25 230.555 58.1156 230.781 58.1156 231.058C58.1156 231.292 58.1936 231.474 58.3497 231.604C58.5144 231.726 58.7225 231.821 58.9739 231.89C59.234 231.96 59.5201 232.02 59.8323 232.073C60.1444 232.116 60.4565 232.177 60.7686 232.255C61.0807 232.324 61.3625 232.424 61.6139 232.554C61.874 232.684 62.0821 232.866 62.2382 233.1C62.4029 233.334 62.4853 233.646 62.4853 234.036C62.4853 234.452 62.3639 234.812 62.1211 235.116C61.8784 235.419 61.5359 235.658 61.0937 235.831C60.6516 235.996 60.1227 236.078 59.5071 236.078ZM66.0223 236.078C65.4501 236.078 64.9039 236 64.3837 235.844C63.8722 235.688 63.469 235.497 63.1742 235.272L63.6944 234.283C63.9892 234.483 64.3533 234.652 64.7868 234.791C65.2203 234.929 65.6625 234.999 66.1134 234.999C66.6942 234.999 67.1104 234.916 67.3618 234.752C67.6219 234.587 67.752 234.357 67.752 234.062C67.752 233.846 67.674 233.676 67.5179 233.555C67.3618 233.434 67.1538 233.343 66.8937 233.282C66.6422 233.221 66.3604 233.169 66.0483 233.126C65.7362 233.074 65.4241 233.013 65.112 232.944C64.7999 232.866 64.5137 232.762 64.2536 232.632C63.9935 232.493 63.7855 232.307 63.6294 232.073C63.4733 231.83 63.3953 231.509 63.3953 231.11C63.3953 230.694 63.5124 230.33 63.7465 230.018C63.9805 229.706 64.31 229.467 64.7348 229.302C65.1683 229.129 65.6799 229.042 66.2694 229.042C66.7203 229.042 67.1754 229.099 67.6349 229.211C68.1031 229.315 68.4846 229.467 68.7794 229.667L68.2462 230.655C67.9341 230.447 67.6089 230.304 67.2708 230.226C66.9327 230.148 66.5945 230.109 66.2564 230.109C65.7102 230.109 65.3027 230.2 65.0339 230.382C64.7652 230.555 64.6308 230.781 64.6308 231.058C64.6308 231.292 64.7088 231.474 64.8649 231.604C65.0296 231.726 65.2377 231.821 65.4891 231.89C65.7492 231.96 66.0353 232.02 66.3474 232.073C66.6596 232.116 66.9717 232.177 67.2838 232.255C67.5959 232.324 67.8777 232.424 68.1291 232.554C68.3892 232.684 68.5973 232.866 68.7534 233.1C68.9181 233.334 69.0005 233.646 69.0005 234.036C69.0005 234.452 68.8791 234.812 68.6363 235.116C68.3936 235.419 68.0511 235.658 67.6089 235.831C67.1668 235.996 66.6379 236.078 66.0223 236.078ZM73.6299 236.078C72.893 236.078 72.2427 235.926 71.6792 235.623C71.1243 235.319 70.6908 234.903 70.3787 234.374C70.0752 233.846 69.9235 233.239 69.9235 232.554C69.9235 231.869 70.0709 231.262 70.3657 230.733C70.6691 230.204 71.0809 229.792 71.6011 229.498C72.13 229.194 72.7239 229.042 73.3828 229.042C74.0504 229.042 74.64 229.19 75.1515 229.485C75.663 229.779 76.0618 230.195 76.348 230.733C76.6427 231.262 76.7901 231.882 76.7901 232.593C76.7901 232.645 76.7858 232.705 76.7771 232.775C76.7771 232.844 76.7728 232.909 76.7641 232.97H70.8989V232.073H76.1139L75.6067 232.385C75.6153 231.942 75.5243 231.548 75.3336 231.201C75.1428 230.854 74.8784 230.586 74.5403 230.395C74.2108 230.195 73.825 230.096 73.3828 230.096C72.9493 230.096 72.5635 230.195 72.2254 230.395C71.8873 230.586 71.6228 230.859 71.4321 231.214C71.2413 231.561 71.146 231.96 71.146 232.411V232.619C71.146 233.078 71.25 233.49 71.4581 233.854C71.6748 234.21 71.974 234.487 72.3554 234.686C72.7369 234.886 73.1747 234.986 73.6689 234.986C74.0764 234.986 74.4449 234.916 74.7744 234.778C75.1125 234.639 75.4073 234.431 75.6587 234.153L76.348 234.96C76.0358 235.324 75.6457 235.601 75.1775 235.792C74.718 235.983 74.2021 236.078 73.6299 236.078ZM78.5237 236V229.107H79.7202V230.98L79.6032 230.512C79.7939 230.035 80.1147 229.671 80.5655 229.419C81.0164 229.168 81.5712 229.042 82.2302 229.042V230.252C82.1781 230.243 82.1261 230.239 82.0741 230.239C82.0308 230.239 81.9874 230.239 81.9441 230.239C81.2765 230.239 80.7476 230.438 80.3574 230.837C79.9673 231.236 79.7722 231.812 79.7722 232.567V236H78.5237ZM86.4152 236.078C85.7216 236.078 85.1841 235.892 84.8026 235.519C84.4211 235.146 84.2304 234.613 84.2304 233.919V227.599H85.4789V233.867C85.4789 234.24 85.5699 234.526 85.752 234.726C85.9427 234.925 86.2115 235.025 86.5583 235.025C86.9484 235.025 87.2736 234.916 87.5337 234.7L87.9238 235.597C87.7331 235.762 87.5033 235.883 87.2345 235.961C86.9744 236.039 86.7013 236.078 86.4152 236.078ZM83.0599 230.135V229.107H87.4556V230.135H83.0599ZM91.4099 236.078C90.8377 236.078 90.2915 236 89.7713 235.844C89.2598 235.688 88.8566 235.497 88.5619 235.272L89.0821 234.283C89.3768 234.483 89.741 234.652 90.1745 234.791C90.608 234.929 91.0501 234.999 91.501 234.999C92.0819 234.999 92.498 234.916 92.7495 234.752C93.0096 234.587 93.1396 234.357 93.1396 234.062C93.1396 233.846 93.0616 233.676 92.9055 233.555C92.7495 233.434 92.5414 233.343 92.2813 233.282C92.0299 233.221 91.7481 233.169 91.436 233.126C91.1238 233.074 90.8117 233.013 90.4996 232.944C90.1875 232.866 89.9014 232.762 89.6413 232.632C89.3812 232.493 89.1731 232.307 89.017 232.073C88.861 231.83 88.7829 231.509 88.7829 231.11C88.7829 230.694 88.9 230.33 89.1341 230.018C89.3682 229.706 89.6976 229.467 90.1225 229.302C90.556 229.129 91.0675 229.042 91.657 229.042C92.1079 229.042 92.5631 229.099 93.0226 229.211C93.4907 229.315 93.8722 229.467 94.167 229.667L93.6338 230.655C93.3217 230.447 92.9966 230.304 92.6584 230.226C92.3203 230.148 91.9822 230.109 91.644 230.109C91.0978 230.109 90.6903 230.2 90.4216 230.382C90.1528 230.555 90.0184 230.781 90.0184 231.058C90.0184 231.292 90.0964 231.474 90.2525 231.604C90.4172 231.726 90.6253 231.821 90.8767 231.89C91.1368 231.96 91.423 232.02 91.7351 232.073C92.0472 232.116 92.3593 232.177 92.6714 232.255C92.9835 232.324 93.2653 232.424 93.5168 232.554C93.7769 232.684 93.9849 232.866 94.141 233.1C94.3057 233.334 94.3881 233.646 94.3881 234.036C94.3881 234.452 94.2667 234.812 94.0239 235.116C93.7812 235.419 93.4387 235.658 92.9966 235.831C92.5544 235.996 92.0255 236.078 91.4099 236.078ZM95.4542 237.925L96.1044 235.298L96.2735 236.052C96.0221 236.052 95.8097 235.974 95.6363 235.818C95.4715 235.662 95.3892 235.449 95.3892 235.181C95.3892 234.921 95.4715 234.708 95.6363 234.543C95.8097 234.379 96.0177 234.296 96.2605 234.296C96.5119 234.296 96.7157 234.383 96.8717 234.556C97.0278 234.721 97.1058 234.929 97.1058 235.181C97.1058 235.267 97.0971 235.354 97.0798 235.441C97.0711 235.519 97.0495 235.614 97.0148 235.727C96.9888 235.831 96.9454 235.961 96.8847 236.117L96.2735 237.925H95.4542ZM105.392 236.078C104.689 236.078 104.061 235.926 103.506 235.623C102.96 235.319 102.53 234.903 102.218 234.374C101.906 233.846 101.75 233.239 101.75 232.554C101.75 231.869 101.906 231.262 102.218 230.733C102.53 230.204 102.96 229.792 103.506 229.498C104.061 229.194 104.689 229.042 105.392 229.042C106.016 229.042 106.571 229.168 107.056 229.419C107.55 229.662 107.932 230.026 108.201 230.512L107.251 231.123C107.026 230.785 106.748 230.538 106.419 230.382C106.098 230.217 105.751 230.135 105.378 230.135C104.928 230.135 104.525 230.234 104.169 230.434C103.814 230.633 103.532 230.915 103.324 231.279C103.116 231.635 103.012 232.059 103.012 232.554C103.012 233.048 103.116 233.477 103.324 233.841C103.532 234.205 103.814 234.487 104.169 234.686C104.525 234.886 104.928 234.986 105.378 234.986C105.751 234.986 106.098 234.908 106.419 234.752C106.748 234.587 107.026 234.335 107.251 233.997L108.201 234.595C107.932 235.072 107.55 235.441 107.056 235.701C106.571 235.952 106.016 236.078 105.392 236.078ZM112.717 236.078C112.127 236.078 111.607 235.97 111.156 235.753C110.714 235.536 110.367 235.207 110.116 234.765C109.873 234.314 109.752 233.75 109.752 233.074V229.107H111V232.931C111 233.607 111.161 234.114 111.482 234.452C111.811 234.791 112.271 234.96 112.86 234.96C113.294 234.96 113.671 234.873 113.992 234.7C114.312 234.517 114.559 234.257 114.733 233.919C114.906 233.572 114.993 233.156 114.993 232.671V229.107H116.241V236H115.058V234.14L115.253 234.634C115.028 235.094 114.689 235.449 114.239 235.701C113.788 235.952 113.281 236.078 112.717 236.078ZM118.618 236V229.107H119.815V230.98L119.698 230.512C119.888 230.035 120.209 229.671 120.66 229.419C121.111 229.168 121.666 229.042 122.325 229.042V230.252C122.273 230.243 122.221 230.239 122.169 230.239C122.125 230.239 122.082 230.239 122.038 230.239C121.371 230.239 120.842 230.438 120.452 230.837C120.062 231.236 119.867 231.812 119.867 232.567V236H118.618ZM123.863 236V229.107H125.06V230.98L124.943 230.512C125.133 230.035 125.454 229.671 125.905 229.419C126.356 229.168 126.911 229.042 127.57 229.042V230.252C127.518 230.243 127.466 230.239 127.414 230.239C127.37 230.239 127.327 230.239 127.284 230.239C126.616 230.239 126.087 230.438 125.697 230.837C125.307 231.236 125.112 231.812 125.112 232.567V236H123.863ZM129.108 236V229.107H130.357V236H129.108ZM129.733 227.781C129.49 227.781 129.286 227.703 129.121 227.547C128.965 227.391 128.887 227.2 128.887 226.975C128.887 226.74 128.965 226.545 129.121 226.389C129.286 226.233 129.49 226.155 129.733 226.155C129.975 226.155 130.175 226.233 130.331 226.389C130.496 226.537 130.578 226.723 130.578 226.949C130.578 227.183 130.5 227.382 130.344 227.547C130.188 227.703 129.984 227.781 129.733 227.781ZM135.81 236.078C135.073 236.078 134.423 235.926 133.859 235.623C133.304 235.319 132.871 234.903 132.559 234.374C132.255 233.846 132.103 233.239 132.103 232.554C132.103 231.869 132.251 231.262 132.546 230.733C132.849 230.204 133.261 229.792 133.781 229.498C134.31 229.194 134.904 229.042 135.563 229.042C136.23 229.042 136.82 229.19 137.331 229.485C137.843 229.779 138.242 230.195 138.528 230.733C138.823 231.262 138.97 231.882 138.97 232.593C138.97 232.645 138.966 232.705 138.957 232.775C138.957 232.844 138.953 232.909 138.944 232.97H133.079V232.073H138.294L137.787 232.385C137.795 231.942 137.704 231.548 137.514 231.201C137.323 230.854 137.058 230.586 136.72 230.395C136.391 230.195 136.005 230.096 135.563 230.096C135.129 230.096 134.743 230.195 134.405 230.395C134.067 230.586 133.803 230.859 133.612 231.214C133.421 231.561 133.326 231.96 133.326 232.411V232.619C133.326 233.078 133.43 233.49 133.638 233.854C133.855 234.21 134.154 234.487 134.535 234.686C134.917 234.886 135.355 234.986 135.849 234.986C136.256 234.986 136.625 234.916 136.954 234.778C137.292 234.639 137.587 234.431 137.839 234.153L138.528 234.96C138.216 235.324 137.826 235.601 137.357 235.792C136.898 235.983 136.382 236.078 135.81 236.078ZM142.68 236.078C142.108 236.078 141.562 236 141.042 235.844C140.53 235.688 140.127 235.497 139.832 235.272L140.353 234.283C140.647 234.483 141.012 234.652 141.445 234.791C141.879 234.929 142.321 234.999 142.772 234.999C143.352 234.999 143.769 234.916 144.02 234.752C144.28 234.587 144.41 234.357 144.41 234.062C144.41 233.846 144.332 233.676 144.176 233.555C144.02 233.434 143.812 233.343 143.552 233.282C143.3 233.221 143.019 233.169 142.707 233.126C142.394 233.074 142.082 233.013 141.77 232.944C141.458 232.866 141.172 232.762 140.912 232.632C140.652 232.493 140.444 232.307 140.288 232.073C140.132 231.83 140.053 231.509 140.053 231.11C140.053 230.694 140.171 230.33 140.405 230.018C140.639 229.706 140.968 229.467 141.393 229.302C141.827 229.129 142.338 229.042 142.928 229.042C143.378 229.042 143.834 229.099 144.293 229.211C144.761 229.315 145.143 229.467 145.438 229.667L144.904 230.655C144.592 230.447 144.267 230.304 143.929 230.226C143.591 230.148 143.253 230.109 142.915 230.109C142.368 230.109 141.961 230.2 141.692 230.382C141.423 230.555 141.289 230.781 141.289 231.058C141.289 231.292 141.367 231.474 141.523 231.604C141.688 231.726 141.896 231.821 142.147 231.89C142.407 231.96 142.693 232.02 143.006 232.073C143.318 232.116 143.63 232.177 143.942 232.255C144.254 232.324 144.536 232.424 144.787 232.554C145.047 232.684 145.255 232.866 145.412 233.1C145.576 233.334 145.659 233.646 145.659 234.036C145.659 234.452 145.537 234.812 145.294 235.116C145.052 235.419 144.709 235.658 144.267 235.831C143.825 235.996 143.296 236.078 142.68 236.078ZM146.725 237.925L147.375 235.298L147.544 236.052C147.293 236.052 147.08 235.974 146.907 235.818C146.742 235.662 146.66 235.449 146.66 235.181C146.66 234.921 146.742 234.708 146.907 234.543C147.08 234.379 147.288 234.296 147.531 234.296C147.782 234.296 147.986 234.383 148.142 234.556C148.298 234.721 148.376 234.929 148.376 235.181C148.376 235.267 148.368 235.354 148.35 235.441C148.342 235.519 148.32 235.614 148.285 235.727C148.259 235.831 148.216 235.961 148.155 236.117L147.544 237.925H146.725ZM158.041 236V234.491L158.002 234.244V231.721C158.002 231.14 157.837 230.694 157.507 230.382C157.187 230.07 156.705 229.914 156.064 229.914C155.622 229.914 155.201 229.987 154.802 230.135C154.404 230.282 154.065 230.477 153.788 230.72L153.372 230.031C153.719 229.736 154.135 229.511 154.62 229.354C155.106 229.19 155.617 229.107 156.155 229.107C157.039 229.107 157.72 229.328 158.197 229.771C158.682 230.204 158.925 230.867 158.925 231.76V236H158.041ZM155.687 236.065C155.175 236.065 154.729 235.983 154.347 235.818C153.974 235.645 153.688 235.41 153.489 235.116C153.289 234.812 153.19 234.465 153.19 234.075C153.19 233.72 153.272 233.399 153.437 233.113C153.61 232.818 153.888 232.584 154.269 232.411C154.659 232.229 155.179 232.138 155.83 232.138H158.184V232.827H155.856C155.197 232.827 154.737 232.944 154.477 233.178C154.226 233.412 154.1 233.702 154.1 234.049C154.1 234.439 154.252 234.752 154.555 234.986C154.859 235.22 155.284 235.337 155.83 235.337C156.35 235.337 156.796 235.22 157.169 234.986C157.551 234.743 157.828 234.396 158.002 233.945L158.21 234.582C158.036 235.033 157.733 235.393 157.299 235.662C156.874 235.931 156.337 236.065 155.687 236.065ZM164.918 229.107C165.473 229.107 165.959 229.216 166.375 229.432C166.8 229.641 167.129 229.961 167.363 230.395C167.606 230.828 167.727 231.375 167.727 232.033V236H166.804V232.125C166.804 231.405 166.622 230.863 166.258 230.499C165.902 230.126 165.399 229.94 164.749 229.94C164.264 229.94 163.839 230.039 163.475 230.239C163.119 230.43 162.842 230.711 162.642 231.084C162.452 231.448 162.356 231.89 162.356 232.411V236H161.433V229.172H162.317V231.045L162.174 230.694C162.391 230.2 162.738 229.814 163.215 229.537C163.691 229.25 164.259 229.107 164.918 229.107ZM172.939 236.065C172.289 236.065 171.704 235.918 171.184 235.623C170.672 235.328 170.269 234.921 169.974 234.4C169.679 233.872 169.532 233.265 169.532 232.58C169.532 231.886 169.679 231.279 169.974 230.759C170.269 230.239 170.672 229.836 171.184 229.55C171.704 229.255 172.289 229.107 172.939 229.107C173.538 229.107 174.071 229.242 174.539 229.511C175.016 229.779 175.393 230.174 175.67 230.694C175.957 231.206 176.1 231.834 176.1 232.58C176.1 233.317 175.961 233.945 175.683 234.465C175.406 234.986 175.029 235.384 174.552 235.662C174.084 235.931 173.546 236.065 172.939 236.065ZM173.004 235.246C173.49 235.246 173.923 235.137 174.305 234.921C174.695 234.695 174.999 234.383 175.215 233.984C175.441 233.577 175.553 233.109 175.553 232.58C175.553 232.042 175.441 231.574 175.215 231.175C174.999 230.776 174.695 230.469 174.305 230.252C173.923 230.026 173.49 229.914 173.004 229.914C172.528 229.914 172.098 230.026 171.717 230.252C171.335 230.469 171.032 230.776 170.807 231.175C170.581 231.574 170.468 232.042 170.468 232.58C170.468 233.109 170.581 233.577 170.807 233.984C171.032 234.383 171.335 234.695 171.717 234.921C172.098 235.137 172.528 235.246 173.004 235.246ZM175.579 236V233.945L175.67 232.567L175.54 231.188V226.35H176.464V236H175.579ZM22.0334 256V249.107H23.2299V250.98L23.1128 250.512C23.3036 250.035 23.6244 249.671 24.0752 249.419C24.526 249.168 25.0809 249.042 25.7398 249.042V250.252C25.6878 250.243 25.6358 250.239 25.5838 250.239C25.5404 250.239 25.4971 250.239 25.4537 250.239C24.7861 250.239 24.2573 250.438 23.8671 250.837C23.477 251.236 23.2819 251.812 23.2819 252.567V256H22.0334ZM30.2843 256.078C29.5473 256.078 28.8971 255.926 28.3335 255.623C27.7786 255.319 27.3451 254.903 27.033 254.374C26.7296 253.846 26.5778 253.239 26.5778 252.554C26.5778 251.869 26.7252 251.262 27.02 250.733C27.3235 250.204 27.7353 249.792 28.2555 249.498C28.7844 249.194 29.3783 249.042 30.0372 249.042C30.7048 249.042 31.2943 249.19 31.8058 249.485C32.3174 249.779 32.7162 250.195 33.0023 250.733C33.2971 251.262 33.4445 251.882 33.4445 252.593C33.4445 252.645 33.4401 252.705 33.4315 252.775C33.4315 252.844 33.4271 252.909 33.4185 252.97H27.5532V252.073H32.7682L32.261 252.385C32.2697 251.942 32.1787 251.548 31.9879 251.201C31.7972 250.854 31.5327 250.586 31.1946 250.395C30.8652 250.195 30.4793 250.096 30.0372 250.096C29.6037 250.096 29.2179 250.195 28.8797 250.395C28.5416 250.586 28.2772 250.859 28.0864 251.214C27.8957 251.561 27.8003 251.96 27.8003 252.411V252.619C27.8003 253.078 27.9044 253.49 28.1124 253.854C28.3292 254.21 28.6283 254.487 29.0098 254.686C29.3913 254.886 29.8291 254.986 30.3233 254.986C30.7308 254.986 31.0992 254.916 31.4287 254.778C31.7668 254.639 32.0616 254.431 32.313 254.153L33.0023 254.96C32.6902 255.324 32.3 255.601 31.8319 255.792C31.3723 255.983 30.8565 256.078 30.2843 256.078ZM38.1952 258.601C37.5623 258.601 36.9468 258.51 36.3485 258.328C35.759 258.154 35.2778 257.903 34.905 257.574L35.5032 256.611C35.824 256.889 36.2185 257.105 36.6867 257.261C37.1548 257.426 37.6447 257.509 38.1562 257.509C38.9712 257.509 39.5694 257.318 39.9509 256.936C40.3324 256.555 40.5231 255.974 40.5231 255.194V253.737L40.6532 252.372L40.5882 250.993V249.107H41.7716V255.064C41.7716 256.277 41.4682 257.17 40.8613 257.743C40.2544 258.315 39.3657 258.601 38.1952 258.601ZM38.0392 255.714C37.3716 255.714 36.7734 255.575 36.2445 255.298C35.7243 255.012 35.3081 254.617 34.996 254.114C34.6926 253.611 34.5409 253.031 34.5409 252.372C34.5409 251.704 34.6926 251.123 34.996 250.629C35.3081 250.126 35.7243 249.736 36.2445 249.459C36.7734 249.181 37.3716 249.042 38.0392 249.042C38.6287 249.042 39.1663 249.164 39.6518 249.406C40.1373 249.641 40.5231 250.005 40.8092 250.499C41.104 250.993 41.2514 251.617 41.2514 252.372C41.2514 253.117 41.104 253.737 40.8092 254.231C40.5231 254.726 40.1373 255.098 39.6518 255.35C39.1663 255.593 38.6287 255.714 38.0392 255.714ZM38.1822 254.621C38.6418 254.621 39.0492 254.526 39.4047 254.335C39.7602 254.145 40.0376 253.88 40.237 253.542C40.4451 253.204 40.5491 252.814 40.5491 252.372C40.5491 251.929 40.4451 251.539 40.237 251.201C40.0376 250.863 39.7602 250.603 39.4047 250.421C39.0492 250.23 38.6418 250.135 38.1822 250.135C37.7227 250.135 37.3109 250.23 36.9468 250.421C36.5913 250.603 36.3095 250.863 36.1014 251.201C35.902 251.539 35.8023 251.929 35.8023 252.372C35.8023 252.814 35.902 253.204 36.1014 253.542C36.3095 253.88 36.5913 254.145 36.9468 254.335C37.3109 254.526 37.7227 254.621 38.1822 254.621ZM47.0572 256.078C46.4677 256.078 45.9475 255.97 45.4966 255.753C45.0545 255.536 44.7077 255.207 44.4562 254.765C44.2135 254.314 44.0921 253.75 44.0921 253.074V249.107H45.3406V252.931C45.3406 253.607 45.501 254.114 45.8217 254.452C46.1512 254.791 46.6107 254.96 47.2003 254.96C47.6338 254.96 48.0109 254.873 48.3317 254.7C48.6525 254.517 48.8996 254.257 49.073 253.919C49.2464 253.572 49.3331 253.156 49.3331 252.671V249.107H50.5816V256H49.3981V254.14L49.5932 254.634C49.3678 255.094 49.0296 255.449 48.5788 255.701C48.128 255.952 47.6208 256.078 47.0572 256.078ZM52.9583 256V246.35H54.2068V256H52.9583ZM60.8692 256V254.543L60.8042 254.27V251.786C60.8042 251.258 60.6481 250.85 60.336 250.564C60.0325 250.269 59.573 250.122 58.9575 250.122C58.55 250.122 58.1512 250.191 57.761 250.33C57.3709 250.46 57.0414 250.638 56.7726 250.863L56.2524 249.927C56.6079 249.641 57.0327 249.424 57.5269 249.276C58.0298 249.12 58.5543 249.042 59.1005 249.042C60.0455 249.042 60.7738 249.272 61.2854 249.732C61.7969 250.191 62.0526 250.893 62.0526 251.838V256H60.8692ZM58.6063 256.078C58.0948 256.078 57.644 255.991 57.2538 255.818C56.8723 255.645 56.5776 255.406 56.3695 255.103C56.1614 254.791 56.0574 254.439 56.0574 254.049C56.0574 253.676 56.1441 253.338 56.3175 253.035C56.4995 252.731 56.79 252.489 57.1888 252.307C57.5963 252.125 58.1425 252.033 58.8274 252.033H61.0123V252.931H58.8794C58.2552 252.931 57.8347 253.035 57.618 253.243C57.4012 253.451 57.2928 253.702 57.2928 253.997C57.2928 254.335 57.4272 254.608 57.696 254.817C57.9648 255.016 58.3376 255.116 58.8144 255.116C59.2826 255.116 59.6901 255.012 60.0369 254.804C60.3923 254.595 60.6481 254.292 60.8042 253.893L61.0513 254.752C60.8865 255.159 60.5961 255.484 60.1799 255.727C59.7638 255.961 59.2392 256.078 58.6063 256.078ZM64.3631 256V249.107H65.5595V250.98L65.4425 250.512C65.6332 250.035 65.954 249.671 66.4048 249.419C66.8557 249.168 67.4106 249.042 68.0695 249.042V250.252C68.0175 250.243 67.9654 250.239 67.9134 250.239C67.8701 250.239 67.8267 250.239 67.7834 250.239C67.1158 250.239 66.5869 250.438 66.1968 250.837C65.8066 251.236 65.6115 251.812 65.6115 252.567V256H64.3631ZM75.5566 256.078C74.863 256.078 74.3254 255.892 73.944 255.519C73.5625 255.146 73.3717 254.613 73.3717 253.919V247.599H74.6202V253.867C74.6202 254.24 74.7113 254.526 74.8933 254.726C75.0841 254.925 75.3528 255.025 75.6996 255.025C76.0898 255.025 76.4149 254.916 76.675 254.7L77.0652 255.597C76.8744 255.762 76.6447 255.883 76.3759 255.961C76.1158 256.039 75.8427 256.078 75.5566 256.078ZM72.2013 250.135V249.107H76.597V250.135H72.2013ZM82.8532 256V254.543L82.7882 254.27V251.786C82.7882 251.258 82.6321 250.85 82.32 250.564C82.0165 250.269 81.557 250.122 80.9414 250.122C80.534 250.122 80.1351 250.191 79.745 250.33C79.3548 250.46 79.0254 250.638 78.7566 250.863L78.2364 249.927C78.5919 249.641 79.0167 249.424 79.5109 249.276C80.0138 249.12 80.5383 249.042 81.0845 249.042C82.0295 249.042 82.7578 249.272 83.2693 249.732C83.7809 250.191 84.0366 250.893 84.0366 251.838V256H82.8532ZM80.5903 256.078C80.0788 256.078 79.6279 255.991 79.2378 255.818C78.8563 255.645 78.5615 255.406 78.3535 255.103C78.1454 254.791 78.0413 254.439 78.0413 254.049C78.0413 253.676 78.128 253.338 78.3014 253.035C78.4835 252.731 78.774 252.489 79.1728 252.307C79.5803 252.125 80.1265 252.033 80.8114 252.033H82.9962V252.931H80.8634C80.2392 252.931 79.8187 253.035 79.6019 253.243C79.3852 253.451 79.2768 253.702 79.2768 253.997C79.2768 254.335 79.4112 254.608 79.68 254.817C79.9487 255.016 80.3215 255.116 80.7984 255.116C81.2666 255.116 81.6741 255.012 82.0209 254.804C82.3763 254.595 82.6321 254.292 82.7882 253.893L83.0352 254.752C82.8705 255.159 82.5801 255.484 82.1639 255.727C81.7478 255.961 81.2232 256.078 80.5903 256.078ZM87.3614 254.335L87.3874 252.736L91.354 249.107H92.8625L89.8194 252.099L89.1431 252.671L87.3614 254.335ZM86.347 256V246.35H87.5955V256H86.347ZM91.6141 256L88.909 252.645L89.7153 251.643L93.1486 256H91.6141ZM97.1379 256.078C96.401 256.078 95.7507 255.926 95.1872 255.623C94.6323 255.319 94.1988 254.903 93.8867 254.374C93.5832 253.846 93.4315 253.239 93.4315 252.554C93.4315 251.869 93.5789 251.262 93.8737 250.733C94.1771 250.204 94.5889 249.792 95.1091 249.498C95.638 249.194 96.2319 249.042 96.8908 249.042C97.5584 249.042 98.148 249.19 98.6595 249.485C99.171 249.779 99.5698 250.195 99.8559 250.733C100.151 251.262 100.298 251.882 100.298 252.593C100.298 252.645 100.294 252.705 100.285 252.775C100.285 252.844 100.281 252.909 100.272 252.97H94.4069V252.073H99.6219L99.1147 252.385C99.1233 251.942 99.0323 251.548 98.8416 251.201C98.6508 250.854 98.3864 250.586 98.0483 250.395C97.7188 250.195 97.333 250.096 96.8908 250.096C96.4573 250.096 96.0715 250.195 95.7334 250.395C95.3952 250.586 95.1308 250.859 94.9401 251.214C94.7493 251.561 94.654 251.96 94.654 252.411V252.619C94.654 253.078 94.758 253.49 94.9661 253.854C95.1828 254.21 95.4819 254.487 95.8634 254.686C96.2449 254.886 96.6827 254.986 97.1769 254.986C97.5844 254.986 97.9529 254.916 98.2823 254.778C98.6205 254.639 98.9153 254.431 99.1667 254.153L99.8559 254.96C99.5438 255.324 99.1537 255.601 98.6855 255.792C98.226 255.983 97.7101 256.078 97.1379 256.078ZM106.12 256V254.543L106.055 254.27V251.786C106.055 251.258 105.899 250.85 105.587 250.564C105.283 250.269 104.824 250.122 104.208 250.122C103.801 250.122 103.402 250.191 103.012 250.33C102.622 250.46 102.292 250.638 102.023 250.863L101.503 249.927C101.859 249.641 102.283 249.424 102.778 249.276C103.28 249.12 103.805 249.042 104.351 249.042C105.296 249.042 106.024 249.272 106.536 249.732C107.048 250.191 107.303 250.893 107.303 251.838V256H106.12ZM103.857 256.078C103.345 256.078 102.895 255.991 102.504 255.818C102.123 255.645 101.828 255.406 101.62 255.103C101.412 254.791 101.308 254.439 101.308 254.049C101.308 253.676 101.395 253.338 101.568 253.035C101.75 252.731 102.041 252.489 102.439 252.307C102.847 252.125 103.393 252.033 104.078 252.033H106.263V252.931H104.13C103.506 252.931 103.085 253.035 102.869 253.243C102.652 253.451 102.544 253.702 102.544 253.997C102.544 254.335 102.678 254.608 102.947 254.817C103.215 255.016 103.588 255.116 104.065 255.116C104.533 255.116 104.941 255.012 105.288 254.804C105.643 254.595 105.899 254.292 106.055 253.893L106.302 254.752C106.137 255.159 105.847 255.484 105.431 255.727C105.014 255.961 104.49 256.078 103.857 256.078ZM110.943 256L108.381 249.107H109.565L111.841 255.35H111.281L113.648 249.107H114.702L117.017 255.35H116.47L118.798 249.107H119.917L117.342 256H116.145L113.973 250.304H114.338L112.14 256H110.943ZM125.246 256V254.543L125.181 254.27V251.786C125.181 251.258 125.025 250.85 124.713 250.564C124.41 250.269 123.95 250.122 123.335 250.122C122.927 250.122 122.528 250.191 122.138 250.33C121.748 250.46 121.419 250.638 121.15 250.863L120.63 249.927C120.985 249.641 121.41 249.424 121.904 249.276C122.407 249.12 122.931 249.042 123.478 249.042C124.423 249.042 125.151 249.272 125.662 249.732C126.174 250.191 126.43 250.893 126.43 251.838V256H125.246ZM122.983 256.078C122.472 256.078 122.021 255.991 121.631 255.818C121.249 255.645 120.955 255.406 120.747 255.103C120.539 254.791 120.434 254.439 120.434 254.049C120.434 253.676 120.521 253.338 120.695 253.035C120.877 252.731 121.167 252.489 121.566 252.307C121.973 252.125 122.52 252.033 123.205 252.033H125.389V252.931H123.257C122.632 252.931 122.212 253.035 121.995 253.243C121.778 253.451 121.67 253.702 121.67 253.997C121.67 254.335 121.804 254.608 122.073 254.817C122.342 255.016 122.715 255.116 123.192 255.116C123.66 255.116 124.067 255.012 124.414 254.804C124.769 254.595 125.025 254.292 125.181 253.893L125.428 254.752C125.264 255.159 124.973 255.484 124.557 255.727C124.141 255.961 123.616 256.078 122.983 256.078ZM128.912 258.601C128.583 258.601 128.262 258.545 127.95 258.432C127.638 258.328 127.369 258.172 127.144 257.964L127.677 257.027C127.85 257.192 128.041 257.318 128.249 257.405C128.457 257.491 128.678 257.535 128.912 257.535C129.216 257.535 129.467 257.457 129.667 257.3C129.866 257.144 130.052 256.867 130.226 256.468L130.655 255.519L130.785 255.363L133.49 249.107H134.713L131.37 256.689C131.171 257.175 130.945 257.556 130.694 257.834C130.451 258.111 130.182 258.306 129.888 258.419C129.593 258.54 129.268 258.601 128.912 258.601ZM130.551 256.221L127.404 249.107H128.704L131.383 255.246L130.551 256.221ZM143.025 256.078C142.452 256.078 141.928 255.948 141.451 255.688C140.983 255.419 140.606 255.025 140.32 254.504C140.042 253.984 139.903 253.334 139.903 252.554C139.903 251.773 140.038 251.123 140.307 250.603C140.584 250.083 140.957 249.693 141.425 249.432C141.902 249.172 142.435 249.042 143.025 249.042C143.701 249.042 144.299 249.19 144.819 249.485C145.339 249.779 145.751 250.191 146.055 250.72C146.358 251.24 146.51 251.851 146.51 252.554C146.51 253.256 146.358 253.872 146.055 254.4C145.751 254.929 145.339 255.341 144.819 255.636C144.299 255.931 143.701 256.078 143.025 256.078ZM139.37 258.523V249.107H140.567V250.967L140.489 252.567L140.619 254.166V258.523H139.37ZM142.921 254.986C143.363 254.986 143.757 254.886 144.104 254.686C144.459 254.487 144.737 254.205 144.936 253.841C145.144 253.468 145.248 253.039 145.248 252.554C145.248 252.059 145.144 251.635 144.936 251.279C144.737 250.915 144.459 250.633 144.104 250.434C143.757 250.234 143.363 250.135 142.921 250.135C142.487 250.135 142.093 250.234 141.737 250.434C141.39 250.633 141.113 250.915 140.905 251.279C140.705 251.635 140.606 252.059 140.606 252.554C140.606 253.039 140.705 253.468 140.905 253.841C141.113 254.205 141.39 254.487 141.737 254.686C142.093 254.886 142.487 254.986 142.921 254.986ZM151.187 256.078C150.493 256.078 149.878 255.926 149.34 255.623C148.803 255.319 148.378 254.903 148.066 254.374C147.754 253.837 147.598 253.23 147.598 252.554C147.598 251.869 147.754 251.262 148.066 250.733C148.378 250.204 148.803 249.792 149.34 249.498C149.878 249.194 150.493 249.042 151.187 249.042C151.872 249.042 152.483 249.194 153.021 249.498C153.567 249.792 153.992 250.204 154.295 250.733C154.607 251.253 154.763 251.86 154.763 252.554C154.763 253.239 154.607 253.846 154.295 254.374C153.992 254.903 153.567 255.319 153.021 255.623C152.483 255.926 151.872 256.078 151.187 256.078ZM151.187 254.986C151.629 254.986 152.024 254.886 152.371 254.686C152.726 254.487 153.003 254.205 153.203 253.841C153.402 253.468 153.502 253.039 153.502 252.554C153.502 252.059 153.402 251.635 153.203 251.279C153.003 250.915 152.726 250.633 152.371 250.434C152.024 250.234 151.629 250.135 151.187 250.135C150.745 250.135 150.35 250.234 150.004 250.434C149.657 250.633 149.379 250.915 149.171 251.279C148.963 251.635 148.859 252.059 148.859 252.554C148.859 253.039 148.963 253.468 149.171 253.841C149.379 254.205 149.657 254.487 150.004 254.686C150.35 254.886 150.745 254.986 151.187 254.986ZM156.49 256V249.107H157.686V250.98L157.569 250.512C157.76 250.035 158.081 249.671 158.532 249.419C158.983 249.168 159.538 249.042 160.196 249.042V250.252C160.144 250.243 160.092 250.239 160.04 250.239C159.997 250.239 159.954 250.239 159.91 250.239C159.243 250.239 158.714 250.438 158.324 250.837C157.934 251.236 157.739 251.812 157.739 252.567V256H156.49ZM164.382 256.078C163.688 256.078 163.15 255.892 162.769 255.519C162.387 255.146 162.197 254.613 162.197 253.919V247.599H163.445V253.867C163.445 254.24 163.536 254.526 163.718 254.726C163.909 254.925 164.178 255.025 164.525 255.025C164.915 255.025 165.24 254.916 165.5 254.7L165.89 255.597C165.699 255.762 165.47 255.883 165.201 255.961C164.941 256.039 164.668 256.078 164.382 256.078ZM161.026 250.135V249.107H165.422V250.135H161.026ZM167.399 256V249.107H168.648V256H167.399ZM168.024 247.781C167.781 247.781 167.577 247.703 167.412 247.547C167.256 247.391 167.178 247.2 167.178 246.975C167.178 246.74 167.256 246.545 167.412 246.389C167.577 246.233 167.781 246.155 168.024 246.155C168.266 246.155 168.466 246.233 168.622 246.389C168.787 246.537 168.869 246.723 168.869 246.949C168.869 247.183 168.791 247.382 168.635 247.547C168.479 247.703 168.275 247.781 168.024 247.781ZM173.984 256.078C173.29 256.078 172.675 255.926 172.137 255.623C171.6 255.319 171.175 254.903 170.863 254.374C170.551 253.837 170.394 253.23 170.394 252.554C170.394 251.869 170.551 251.262 170.863 250.733C171.175 250.204 171.6 249.792 172.137 249.498C172.675 249.194 173.29 249.042 173.984 249.042C174.669 249.042 175.28 249.194 175.818 249.498C176.364 249.792 176.789 250.204 177.092 250.733C177.404 251.253 177.56 251.86 177.56 252.554C177.56 253.239 177.404 253.846 177.092 254.374C176.789 254.903 176.364 255.319 175.818 255.623C175.28 255.926 174.669 256.078 173.984 256.078ZM173.984 254.986C174.426 254.986 174.82 254.886 175.167 254.686C175.523 254.487 175.8 254.205 176 253.841C176.199 253.468 176.299 253.039 176.299 252.554C176.299 252.059 176.199 251.635 176 251.279C175.8 250.915 175.523 250.633 175.167 250.434C174.82 250.234 174.426 250.135 173.984 250.135C173.542 250.135 173.147 250.234 172.8 250.434C172.454 250.633 172.176 250.915 171.968 251.279C171.76 251.635 171.656 252.059 171.656 252.554C171.656 253.039 171.76 253.468 171.968 253.841C172.176 254.205 172.454 254.487 172.8 254.686C173.147 254.886 173.542 254.986 173.984 254.986ZM182.967 249.042C183.531 249.042 184.025 249.151 184.45 249.367C184.883 249.584 185.221 249.914 185.464 250.356C185.707 250.798 185.828 251.357 185.828 252.033V256H184.58V252.177C184.58 251.509 184.415 251.006 184.086 250.668C183.765 250.33 183.31 250.161 182.72 250.161C182.278 250.161 181.892 250.247 181.563 250.421C181.233 250.594 180.977 250.85 180.795 251.188C180.622 251.526 180.535 251.947 180.535 252.45V256H179.287V249.107H180.483V250.967L180.288 250.473C180.514 250.022 180.86 249.671 181.329 249.419C181.797 249.168 182.343 249.042 182.967 249.042ZM190.116 256.078C189.543 256.078 188.997 256 188.477 255.844C187.965 255.688 187.562 255.497 187.268 255.272L187.788 254.283C188.082 254.483 188.447 254.652 188.88 254.791C189.314 254.929 189.756 254.999 190.207 254.999C190.788 254.999 191.204 254.916 191.455 254.752C191.715 254.587 191.845 254.357 191.845 254.062C191.845 253.846 191.767 253.676 191.611 253.555C191.455 253.434 191.247 253.343 190.987 253.282C190.735 253.221 190.454 253.169 190.142 253.126C189.829 253.074 189.517 253.013 189.205 252.944C188.893 252.866 188.607 252.762 188.347 252.632C188.087 252.493 187.879 252.307 187.723 252.073C187.567 251.83 187.489 251.509 187.489 251.11C187.489 250.694 187.606 250.33 187.84 250.018C188.074 249.706 188.403 249.467 188.828 249.302C189.262 249.129 189.773 249.042 190.363 249.042C190.814 249.042 191.269 249.099 191.728 249.211C192.196 249.315 192.578 249.467 192.873 249.667L192.339 250.655C192.027 250.447 191.702 250.304 191.364 250.226C191.026 250.148 190.688 250.109 190.35 250.109C189.803 250.109 189.396 250.2 189.127 250.382C188.858 250.555 188.724 250.781 188.724 251.058C188.724 251.292 188.802 251.474 188.958 251.604C189.123 251.726 189.331 251.821 189.582 251.89C189.842 251.96 190.129 252.02 190.441 252.073C190.753 252.116 191.065 252.177 191.377 252.255C191.689 252.324 191.971 252.424 192.222 252.554C192.482 252.684 192.691 252.866 192.847 253.1C193.011 253.334 193.094 253.646 193.094 254.036C193.094 254.452 192.972 254.812 192.73 255.116C192.487 255.419 192.144 255.658 191.702 255.831C191.26 255.996 190.731 256.078 190.116 256.078ZM194.953 256.078C194.71 256.078 194.502 255.996 194.329 255.831C194.155 255.658 194.069 255.441 194.069 255.181C194.069 254.921 194.155 254.708 194.329 254.543C194.502 254.379 194.71 254.296 194.953 254.296C195.187 254.296 195.387 254.379 195.551 254.543C195.725 254.708 195.811 254.921 195.811 255.181C195.811 255.441 195.725 255.658 195.551 255.831C195.387 255.996 195.187 256.078 194.953 256.078Z" fill="black"/>
<defs>
<filter id="filter0_d_2198_818" x="-0.000117779" y="0" width="215.802" height="306.112" filterUnits="userSpaceOnUse" color-interpolation-filters="sRGB">
<feFlood flood-opacity="0" result="BackgroundImageFix"/>
<feColorMatrix in="SourceAlpha" type="matrix" values="0 0 0 0 0 0 0 0 0 0 0 0 0 0 0 0 0 0 127 0" result="hardAlpha"/>
<feOffset dy="4.30578"/>
<feGaussianBlur stdDeviation="2.15289"/>
<feComposite in2="hardAlpha" operator="out"/>
<feColorMatrix type="matrix" values="0 0 0 0 0 0 0 0 0 0 0 0 0 0 0 0 0 0 0.25 0"/>
<feBlend mode="normal" in2="BackgroundImageFix" result="effect1_dropShadow_2198_818"/>
<feBlend mode="normal" in="SourceGraphic" in2="effect1_dropShadow_2198_818" result="shape"/>
</filter>
<linearGradient id="paint0_linear_2198_818" x1="108.109" y1="165.095" x2="108.109" y2="12.2402" gradientUnits="userSpaceOnUse">
<stop offset="0.906845" stop-color="#EFEFEF"/>
</linearGradient>
<linearGradient id="paint1_linear_2198_818" x1="108.109" y1="286.735" x2="108.109" y2="297.5" gradientUnits="userSpaceOnUse">
<stop offset="0.365385" stop-color="#D67E7F"/>
<stop offset="1" stop-color="white"/>
</linearGradient>
</defs>
</svg>
