<svg width="72" height="11" viewBox="0 0 72 11" fill="none" xmlns="http://www.w3.org/2000/svg">
<path d="M4.2001 10.5562C3.39744 10.5562 2.67877 10.3602 2.0441 9.96818C1.40943 9.56685 0.910102 8.98818 0.546102 8.23218C0.182102 7.47618 0.000101574 6.56152 0.000101574 5.48818C0.000101574 4.41485 0.182102 3.50018 0.546102 2.74418C0.910102 1.98818 1.40943 1.41418 2.0441 1.02218C2.67877 0.62085 3.39744 0.420183 4.2001 0.420183C5.0121 0.420183 5.73077 0.62085 6.3561 1.02218C6.99077 1.41418 7.4901 1.98818 7.8541 2.74418C8.2181 3.50018 8.4001 4.41485 8.4001 5.48818C8.4001 6.56152 8.2181 7.47618 7.8541 8.23218C7.4901 8.98818 6.99077 9.56685 6.3561 9.96818C5.73077 10.3602 5.0121 10.5562 4.2001 10.5562ZM4.2001 8.63818C4.58277 8.63818 4.9141 8.53085 5.1941 8.31618C5.48344 8.10152 5.70744 7.76085 5.8661 7.29418C6.0341 6.82752 6.1181 6.22552 6.1181 5.48818C6.1181 4.75085 6.0341 4.14885 5.8661 3.68218C5.70744 3.21552 5.48344 2.87485 5.1941 2.66018C4.9141 2.44552 4.58277 2.33818 4.2001 2.33818C3.82677 2.33818 3.49544 2.44552 3.2061 2.66018C2.9261 2.87485 2.7021 3.21552 2.5341 3.68218C2.37544 4.14885 2.2961 4.75085 2.2961 5.48818C2.2961 6.22552 2.37544 6.82752 2.5341 7.29418C2.7021 7.76085 2.9261 8.10152 3.2061 8.31618C3.49544 8.53085 3.82677 8.63818 4.2001 8.63818ZM12.5433 10.5562C11.862 10.5562 11.1853 10.4675 10.5133 10.2902C9.84134 10.1035 9.272 9.84218 8.80534 9.50618L9.68734 7.77018C10.0607 8.04085 10.4947 8.25552 10.9893 8.41418C11.484 8.57285 11.9833 8.65218 12.4873 8.65218C13.0567 8.65218 13.5047 8.54018 13.8313 8.31618C14.158 8.09218 14.3213 7.78418 14.3213 7.39218C14.3213 7.01885 14.1767 6.72485 13.8873 6.51018C13.598 6.29552 13.1313 6.18818 12.4873 6.18818L11.4513 6.18818V4.69018L14.1813 1.59618L14.4333 2.40818L9.29534 2.40818V0.588183H16.1553V2.05818L13.4393 5.15218L12.2913 4.49418H12.9493C14.1533 4.49418 15.0633 4.76485 15.6793 5.30618C16.2953 5.84752 16.6033 6.54285 16.6033 7.39218C16.6033 7.94285 16.4587 8.46085 16.1693 8.94618C15.88 9.42218 15.4367 9.80952 14.8393 10.1082C14.242 10.4069 13.4767 10.5562 12.5433 10.5562ZM17.8325 7.32218V5.57218H21.7945V7.32218H17.8325ZM26.3829 10.5562C25.7015 10.5562 25.0249 10.4675 24.3529 10.2902C23.6902 10.1035 23.1209 9.84218 22.6449 9.50618L23.5409 7.77018C23.9142 8.04085 24.3435 8.25552 24.8289 8.41418C25.3235 8.57285 25.8229 8.65218 26.3269 8.65218C26.8962 8.65218 27.3442 8.54018 27.6709 8.31618C27.9975 8.09218 28.1609 7.77952 28.1609 7.37818C28.1609 7.12618 28.0955 6.90218 27.9649 6.70618C27.8342 6.51018 27.6009 6.36085 27.2649 6.25818C26.9382 6.15552 26.4762 6.10418 25.8789 6.10418H23.3729L23.8769 0.588183H29.8549V2.40818H24.6889L25.8649 1.37218L25.5149 5.30618L24.3389 4.27018H26.4109C27.3815 4.27018 28.1609 4.40552 28.7489 4.67618C29.3462 4.93752 29.7802 5.29685 30.0509 5.75418C30.3215 6.21152 30.4569 6.72952 30.4569 7.30818C30.4569 7.88685 30.3122 8.42352 30.0229 8.91818C29.7335 9.40352 29.2855 9.80018 28.6789 10.1082C28.0815 10.4069 27.3162 10.5562 26.3829 10.5562ZM35.5771 10.5562C34.7744 10.5562 34.0557 10.3602 33.4211 9.96818C32.7864 9.56685 32.2871 8.98818 31.9231 8.23218C31.5591 7.47618 31.3771 6.56152 31.3771 5.48818C31.3771 4.41485 31.5591 3.50018 31.9231 2.74418C32.2871 1.98818 32.7864 1.41418 33.4211 1.02218C34.0557 0.62085 34.7744 0.420183 35.5771 0.420183C36.3891 0.420183 37.1077 0.62085 37.7331 1.02218C38.3677 1.41418 38.8671 1.98818 39.2311 2.74418C39.5951 3.50018 39.7771 4.41485 39.7771 5.48818C39.7771 6.56152 39.5951 7.47618 39.2311 8.23218C38.8671 8.98818 38.3677 9.56685 37.7331 9.96818C37.1077 10.3602 36.3891 10.5562 35.5771 10.5562ZM35.5771 8.63818C35.9597 8.63818 36.2911 8.53085 36.5711 8.31618C36.8604 8.10152 37.0844 7.76085 37.2431 7.29418C37.4111 6.82752 37.4951 6.22552 37.4951 5.48818C37.4951 4.75085 37.4111 4.14885 37.2431 3.68218C37.0844 3.21552 36.8604 2.87485 36.5711 2.66018C36.2911 2.44552 35.9597 2.33818 35.5771 2.33818C35.2037 2.33818 34.8724 2.44552 34.5831 2.66018C34.3031 2.87485 34.0791 3.21552 33.9111 3.68218C33.7524 4.14885 33.6731 4.75085 33.6731 5.48818C33.6731 6.22552 33.7524 6.82752 33.9111 7.29418C34.0791 7.76085 34.3031 8.10152 34.5831 8.31618C34.8724 8.53085 35.2037 8.63818 35.5771 8.63818ZM45.079 10.5562C44.2763 10.5562 43.5577 10.3602 42.923 9.96818C42.2883 9.56685 41.789 8.98818 41.425 8.23218C41.061 7.47618 40.879 6.56152 40.879 5.48818C40.879 4.41485 41.061 3.50018 41.425 2.74418C41.789 1.98818 42.2883 1.41418 42.923 1.02218C43.5577 0.62085 44.2763 0.420183 45.079 0.420183C45.891 0.420183 46.6097 0.62085 47.235 1.02218C47.8697 1.41418 48.369 1.98818 48.733 2.74418C49.097 3.50018 49.279 4.41485 49.279 5.48818C49.279 6.56152 49.097 7.47618 48.733 8.23218C48.369 8.98818 47.8697 9.56685 47.235 9.96818C46.6097 10.3602 45.891 10.5562 45.079 10.5562ZM45.079 8.63818C45.4617 8.63818 45.793 8.53085 46.073 8.31618C46.3623 8.10152 46.5863 7.76085 46.745 7.29418C46.913 6.82752 46.997 6.22552 46.997 5.48818C46.997 4.75085 46.913 4.14885 46.745 3.68218C46.5863 3.21552 46.3623 2.87485 46.073 2.66018C45.793 2.44552 45.4617 2.33818 45.079 2.33818C44.7057 2.33818 44.3743 2.44552 44.085 2.66018C43.805 2.87485 43.581 3.21552 43.413 3.68218C43.2543 4.14885 43.175 4.75085 43.175 5.48818C43.175 6.22552 43.2543 6.82752 43.413 7.29418C43.581 7.76085 43.805 8.10152 44.085 8.31618C44.3743 8.53085 44.7057 8.63818 45.079 8.63818ZM64.4538 2.74418C65.0511 2.74418 65.5785 2.86552 66.0358 3.10818C66.5025 3.34152 66.8665 3.70552 67.1278 4.20018C67.3985 4.68552 67.5338 5.31085 67.5338 6.07618V10.3882H65.3498V6.41218C65.3498 5.80552 65.2238 5.35752 64.9718 5.06818C64.7198 4.77885 64.3651 4.63418 63.9078 4.63418C63.5905 4.63418 63.3058 4.70885 63.0538 4.85818C62.8018 4.99818 62.6058 5.21285 62.4658 5.50218C62.3258 5.79152 62.2558 6.16018 62.2558 6.60818V10.3882H60.0718V6.41218C60.0718 5.80552 59.9458 5.35752 59.6938 5.06818C59.4511 4.77885 59.1011 4.63418 58.6438 4.63418C58.3265 4.63418 58.0418 4.70885 57.7898 4.85818C57.5378 4.99818 57.3418 5.21285 57.2018 5.50218C57.0618 5.79152 56.9918 6.16018 56.9918 6.60818V10.3882H54.8078V2.85618H56.8938V4.91418L56.5018 4.31218C56.7631 3.79885 57.1318 3.41152 57.6078 3.15018C58.0931 2.87952 58.6438 2.74418 59.2598 2.74418C59.9505 2.74418 60.5525 2.92152 61.0658 3.27618C61.5885 3.62152 61.9338 4.15352 62.1018 4.87218L61.3318 4.66218C61.5838 4.07418 61.9851 3.60752 62.5358 3.26218C63.0958 2.91685 63.7351 2.74418 64.4538 2.74418ZM69.4914 10.3882V0.000182986H71.6754V10.3882H69.4914Z" fill="#F6F4F3"/>
</svg>
