<svg width="294" height="20" viewBox="0 0 294 20" fill="none" xmlns="http://www.w3.org/2000/svg">
<path d="M5.28451 14.1447C4.61721 14.1447 4.00217 14.0402 3.43939 13.8312C2.88465 13.6141 2.39824 13.3086 1.98018 12.9146C1.57015 12.5207 1.24856 12.0584 1.01541 11.5278C0.790294 10.9972 0.677738 10.4143 0.677738 9.77914C0.677738 9.144 0.790294 8.56111 1.01541 8.03049C1.24856 7.49987 1.57417 7.03758 1.99224 6.64364C2.4103 6.24969 2.90073 5.9482 3.46351 5.73916C4.02629 5.52209 4.64535 5.41356 5.32069 5.41356C6.06838 5.41356 6.7397 5.53817 7.33464 5.7874C7.93762 6.03664 8.44413 6.39842 8.85415 6.87277L7.59996 8.03049C7.29445 7.7089 6.9608 7.47173 6.59901 7.31897C6.23722 7.15818 5.84327 7.07778 5.41717 7.07778C5.00714 7.07778 4.63329 7.1421 4.29562 7.27074C3.95795 7.39937 3.6645 7.58429 3.41527 7.82548C3.17408 8.06667 2.98514 8.35208 2.84847 8.68171C2.71983 9.01134 2.65551 9.37715 2.65551 9.77914C2.65551 10.1731 2.71983 10.5349 2.84847 10.8645C2.98514 11.1941 3.17408 11.4836 3.41527 11.7328C3.6645 11.974 3.95393 12.1589 4.28356 12.2875C4.62123 12.4162 4.99106 12.4805 5.39305 12.4805C5.77895 12.4805 6.1528 12.4202 6.51459 12.2996C6.88442 12.171 7.24219 11.9579 7.5879 11.6604L8.69738 13.0714C8.23911 13.4171 7.70447 13.6824 7.09345 13.8673C6.49047 14.0523 5.88749 14.1447 5.28451 14.1447ZM6.91256 12.8182V9.64648H8.69738V13.0714L6.91256 12.8182ZM13.5994 14.0965C12.8598 14.0965 12.2085 13.9518 11.6458 13.6623C11.091 13.3729 10.6609 12.979 10.3554 12.4805C10.0499 11.974 9.89712 11.3991 9.89712 10.756C9.89712 10.1047 10.0459 9.5299 10.3433 9.03144C10.6488 8.52494 11.0629 8.13099 11.5855 7.8496C12.1081 7.56017 12.699 7.41545 13.3582 7.41545C13.9934 7.41545 14.5642 7.55213 15.0707 7.82548C15.5852 8.09079 15.9912 8.4767 16.2887 8.9832C16.5862 9.48167 16.7349 10.0806 16.7349 10.7801C16.7349 10.8524 16.7309 10.9369 16.7229 11.0333C16.7148 11.1218 16.7068 11.2062 16.6987 11.2866H11.4287V10.1892H15.7099L14.9863 10.5148C14.9863 10.1771 14.9179 9.88365 14.7813 9.63442C14.6446 9.38519 14.4557 9.19223 14.2145 9.05556C13.9733 8.91084 13.6919 8.83849 13.3703 8.83849C13.0487 8.83849 12.7633 8.91084 12.5141 9.05556C12.2729 9.19223 12.0839 9.38921 11.9473 9.64648C11.8106 9.89571 11.7422 10.1932 11.7422 10.5389V10.8283C11.7422 11.1821 11.8186 11.4956 11.9714 11.769C12.1322 12.0343 12.3533 12.2393 12.6347 12.384C12.9241 12.5207 13.2618 12.589 13.6477 12.589C13.9934 12.589 14.2949 12.5368 14.5521 12.4323C14.8174 12.3277 15.0586 12.171 15.2757 11.9619L16.2767 13.0473C15.9792 13.385 15.6053 13.6463 15.1551 13.8312C14.7049 14.008 14.1863 14.0965 13.5994 14.0965ZM21.9309 7.41545C22.4455 7.41545 22.9037 7.51997 23.3057 7.729C23.7157 7.92999 24.0373 8.24354 24.2705 8.66965C24.5036 9.08772 24.6202 9.62638 24.6202 10.2856V14H22.7389V10.5751C22.7389 10.0525 22.6223 9.66658 22.3892 9.41735C22.1641 9.16812 21.8425 9.0435 21.4244 9.0435C21.1269 9.0435 20.8576 9.10782 20.6164 9.23645C20.3833 9.35705 20.1984 9.54598 20.0617 9.80325C19.933 10.0605 19.8687 10.3902 19.8687 10.7921V14H17.9874V7.51193H19.7843V9.30881L19.4466 8.76613C19.6798 8.33198 20.0134 7.99833 20.4476 7.76518C20.8817 7.53203 21.3762 7.41545 21.9309 7.41545ZM29.5925 14.0965C28.8529 14.0965 28.2017 13.9518 27.6389 13.6623C27.0841 13.3729 26.654 12.979 26.3485 12.4805C26.043 11.974 25.8902 11.3991 25.8902 10.756C25.8902 10.1047 26.039 9.5299 26.3364 9.03144C26.642 8.52494 27.056 8.13099 27.5786 7.8496C28.1012 7.56017 28.6921 7.41545 29.3513 7.41545C29.9865 7.41545 30.5573 7.55213 31.0638 7.82548C31.5784 8.09079 31.9844 8.4767 32.2818 8.9832C32.5793 9.48167 32.728 10.0806 32.728 10.7801C32.728 10.8524 32.724 10.9369 32.716 11.0333C32.7079 11.1218 32.6999 11.2062 32.6919 11.2866H27.4218V10.1892H31.703L30.9794 10.5148C30.9794 10.1771 30.9111 9.88365 30.7744 9.63442C30.6377 9.38519 30.4488 9.19223 30.2076 9.05556C29.9664 8.91084 29.685 8.83849 29.3634 8.83849C29.0418 8.83849 28.7564 8.91084 28.5072 9.05556C28.266 9.19223 28.0771 9.38921 27.9404 9.64648C27.8037 9.89571 27.7354 10.1932 27.7354 10.5389V10.8283C27.7354 11.1821 27.8117 11.4956 27.9645 11.769C28.1253 12.0343 28.3464 12.2393 28.6278 12.384C28.9172 12.5207 29.2549 12.589 29.6408 12.589C29.9865 12.589 30.288 12.5368 30.5453 12.4323C30.8106 12.3277 31.0518 12.171 31.2688 11.9619L32.2698 13.0473C31.9723 13.385 31.5985 13.6463 31.1482 13.8312C30.698 14.008 30.1794 14.0965 29.5925 14.0965ZM33.9805 14V7.51193H35.7774V9.34499L35.5242 8.81437C35.7171 8.3561 36.0267 8.01039 36.4528 7.77724C36.8789 7.53605 37.3974 7.41545 38.0085 7.41545V9.15204C37.9281 9.144 37.8557 9.13998 37.7914 9.13998C37.7271 9.13194 37.6587 9.12792 37.5864 9.12792C37.0718 9.12792 36.6538 9.27665 36.3322 9.57412C36.0186 9.86355 35.8618 10.3178 35.8618 10.9369V14H33.9805ZM42.6828 14V12.7337L42.5622 12.4564V10.1892C42.5622 9.78718 42.4376 9.47363 42.1883 9.24851C41.9471 9.0234 41.5733 8.91084 41.0668 8.91084C40.7211 8.91084 40.3794 8.96712 40.0417 9.07968C39.7121 9.18419 39.4307 9.32891 39.1976 9.51382L38.5222 8.19933C38.876 7.95009 39.3021 7.75714 39.8005 7.62046C40.299 7.48379 40.8055 7.41545 41.32 7.41545C42.3089 7.41545 43.0767 7.6486 43.6234 8.11491C44.1701 8.58121 44.4435 9.30881 44.4435 10.2977V14H42.6828ZM40.705 14.0965C40.1985 14.0965 39.7644 14.0121 39.4026 13.8432C39.0408 13.6664 38.7634 13.4292 38.5705 13.1317C38.3775 12.8342 38.281 12.5006 38.281 12.1308C38.281 11.7449 38.3735 11.4072 38.5584 11.1178C38.7513 10.8283 39.0528 10.6032 39.4629 10.4424C39.8729 10.2736 40.4075 10.1892 41.0668 10.1892H42.7913V11.2866H41.2718C40.8296 11.2866 40.5241 11.3589 40.3553 11.5037C40.1945 11.6484 40.1141 11.8293 40.1141 12.0463C40.1141 12.2875 40.2065 12.4805 40.3915 12.6252C40.5844 12.7619 40.8457 12.8302 41.1753 12.8302C41.4889 12.8302 41.7703 12.7579 42.0195 12.6131C42.2687 12.4604 42.4496 12.2393 42.5622 11.9499L42.8516 12.8182C42.7149 13.2362 42.4657 13.5538 42.1039 13.7709C41.7421 13.9879 41.2758 14.0965 40.705 14.0965ZM46.1462 14V5.05177H48.0275V14H46.1462ZM56.3243 14.0965C55.6248 14.0965 55.0017 13.9558 54.455 13.6744C53.9083 13.385 53.4782 12.987 53.1647 12.4805C52.8591 11.974 52.7064 11.3991 52.7064 10.756C52.7064 10.1047 52.8591 9.5299 53.1647 9.03144C53.4782 8.52494 53.9083 8.13099 54.455 7.8496C55.0017 7.56017 55.6248 7.41545 56.3243 7.41545C57.0077 7.41545 57.6026 7.56017 58.1091 7.8496C58.6156 8.13099 58.9895 8.537 59.2306 9.06762L57.7714 9.85149C57.6026 9.54598 57.3895 9.32087 57.1323 9.17616C56.883 9.03144 56.6097 8.95908 56.3122 8.95908C55.9906 8.95908 55.7012 9.03144 55.4439 9.17616C55.1867 9.32087 54.9816 9.52588 54.8289 9.7912C54.6842 10.0565 54.6118 10.3781 54.6118 10.756C54.6118 11.1338 54.6842 11.4554 54.8289 11.7207C54.9816 11.986 55.1867 12.1911 55.4439 12.3358C55.7012 12.4805 55.9906 12.5528 56.3122 12.5528C56.6097 12.5528 56.883 12.4845 57.1323 12.3478C57.3895 12.2031 57.6026 11.974 57.7714 11.6604L59.2306 12.4564C58.9895 12.979 58.6156 13.385 58.1091 13.6744C57.6026 13.9558 57.0077 14.0965 56.3243 14.0965ZM63.3187 14.0965C62.6272 14.0965 62.0122 13.9518 61.4735 13.6623C60.9429 13.3729 60.5208 12.979 60.2073 12.4805C59.9018 11.974 59.749 11.3991 59.749 10.756C59.749 10.1047 59.9018 9.5299 60.2073 9.03144C60.5208 8.52494 60.9429 8.13099 61.4735 7.8496C62.0122 7.56017 62.6272 7.41545 63.3187 7.41545C64.002 7.41545 64.6131 7.56017 65.1517 7.8496C65.6904 8.13099 66.1125 8.52092 66.418 9.01938C66.7235 9.51784 66.8762 10.0967 66.8762 10.756C66.8762 11.3991 66.7235 11.974 66.418 12.4805C66.1125 12.979 65.6904 13.3729 65.1517 13.6623C64.6131 13.9518 64.002 14.0965 63.3187 14.0965ZM63.3187 12.5528C63.6322 12.5528 63.9136 12.4805 64.1628 12.3358C64.4121 12.1911 64.609 11.986 64.7538 11.7207C64.8985 11.4474 64.9708 11.1258 64.9708 10.756C64.9708 10.3781 64.8985 10.0565 64.7538 9.7912C64.609 9.52588 64.4121 9.32087 64.1628 9.17616C63.9136 9.03144 63.6322 8.95908 63.3187 8.95908C63.0051 8.95908 62.7237 9.03144 62.4745 9.17616C62.2253 9.32087 62.0243 9.52588 61.8715 9.7912C61.7268 10.0565 61.6544 10.3781 61.6544 10.756C61.6544 11.1258 61.7268 11.4474 61.8715 11.7207C62.0243 11.986 62.2253 12.1911 62.4745 12.3358C62.7237 12.4805 63.0051 12.5528 63.3187 12.5528ZM68.1337 14V5.05177H70.015V14H68.1337ZM74.8483 14.0965C74.1569 14.0965 73.5419 13.9518 73.0032 13.6623C72.4726 13.3729 72.0505 12.979 71.7369 12.4805C71.4314 11.974 71.2787 11.3991 71.2787 10.756C71.2787 10.1047 71.4314 9.5299 71.7369 9.03144C72.0505 8.52494 72.4726 8.13099 73.0032 7.8496C73.5419 7.56017 74.1569 7.41545 74.8483 7.41545C75.5317 7.41545 76.1427 7.56017 76.6814 7.8496C77.22 8.13099 77.6421 8.52092 77.9476 9.01938C78.2531 9.51784 78.4059 10.0967 78.4059 10.756C78.4059 11.3991 78.2531 11.974 77.9476 12.4805C77.6421 12.979 77.22 13.3729 76.6814 13.6623C76.1427 13.9518 75.5317 14.0965 74.8483 14.0965ZM74.8483 12.5528C75.1619 12.5528 75.4433 12.4805 75.6925 12.3358C75.9417 12.1911 76.1387 11.986 76.2834 11.7207C76.4281 11.4474 76.5005 11.1258 76.5005 10.756C76.5005 10.3781 76.4281 10.0565 76.2834 9.7912C76.1387 9.52588 75.9417 9.32087 75.6925 9.17616C75.4433 9.03144 75.1619 8.95908 74.8483 8.95908C74.5348 8.95908 74.2534 9.03144 74.0041 9.17616C73.7549 9.32087 73.5539 9.52588 73.4012 9.7912C73.2564 10.0565 73.1841 10.3781 73.1841 10.756C73.1841 11.1258 73.2564 11.4474 73.4012 11.7207C73.5539 11.986 73.7549 12.1911 74.0041 12.3358C74.2534 12.4805 74.5348 12.5528 74.8483 12.5528ZM79.6634 14V7.51193H81.4603V9.34499L81.207 8.81437C81.4 8.3561 81.7095 8.01039 82.1356 7.77724C82.5617 7.53605 83.0803 7.41545 83.6913 7.41545V9.15204C83.6109 9.144 83.5386 9.13998 83.4742 9.13998C83.4099 9.13194 83.3416 9.12792 83.2692 9.12792C82.7547 9.12792 82.3366 9.27665 82.015 9.57412C81.7015 9.86355 81.5447 10.3178 81.5447 10.9369V14H79.6634ZM87.0398 14.0965C86.4851 14.0965 85.9504 14.0322 85.4359 13.9035C84.9294 13.7668 84.5274 13.598 84.2299 13.397L84.857 12.0463C85.1545 12.2313 85.5042 12.384 85.9062 12.5046C86.3163 12.6172 86.7182 12.6734 87.1122 12.6734C87.5463 12.6734 87.8518 12.6212 88.0287 12.5167C88.2136 12.4122 88.3061 12.2674 88.3061 12.0825C88.3061 11.9298 88.2337 11.8172 88.089 11.7449C87.9523 11.6645 87.7674 11.6042 87.5343 11.564C87.3011 11.5238 87.0438 11.4836 86.7625 11.4434C86.4891 11.4032 86.2117 11.3509 85.9303 11.2866C85.649 11.2142 85.3917 11.1097 85.1585 10.973C84.9254 10.8364 84.7364 10.6514 84.5917 10.4183C84.4551 10.1851 84.3867 9.88365 84.3867 9.51382C84.3867 9.1038 84.5033 8.74201 84.7364 8.42846C84.9776 8.11491 85.3233 7.8697 85.7736 7.69282C86.2238 7.50791 86.7625 7.41545 87.3896 7.41545C87.8317 7.41545 88.282 7.46369 88.7402 7.56017C89.1985 7.65664 89.5804 7.79734 89.8859 7.98225L89.2588 9.32087C88.9452 9.13596 88.6277 9.01134 88.3061 8.94702C87.9925 8.87466 87.687 8.83849 87.3896 8.83849C86.9715 8.83849 86.666 8.89476 86.473 9.00732C86.2801 9.11988 86.1836 9.26459 86.1836 9.44147C86.1836 9.60226 86.2519 9.72286 86.3886 9.80325C86.5333 9.88365 86.7223 9.94797 86.9554 9.99621C87.1886 10.0444 87.4418 10.0887 87.7152 10.1289C87.9966 10.161 88.2779 10.2133 88.5593 10.2856C88.8407 10.358 89.094 10.4625 89.3191 10.5992C89.5522 10.7278 89.7412 10.9087 89.8859 11.1419C90.0306 11.367 90.103 11.6645 90.103 12.0343C90.103 12.4363 89.9824 12.794 89.7412 13.1076C89.5 13.4131 89.1503 13.6543 88.692 13.8312C88.2418 14.008 87.691 14.0965 87.0398 14.0965ZM91.9752 9.76708C91.6536 9.76708 91.3763 9.65854 91.1431 9.44147C90.918 9.21635 90.8054 8.93094 90.8054 8.58523C90.8054 8.23952 90.918 7.96215 91.1431 7.75312C91.3763 7.53605 91.6536 7.42751 91.9752 7.42751C92.3049 7.42751 92.5822 7.53605 92.8073 7.75312C93.0325 7.96215 93.145 8.23952 93.145 8.58523C93.145 8.93094 93.0325 9.21635 92.8073 9.44147C92.5822 9.65854 92.3049 9.76708 91.9752 9.76708ZM91.9752 14.0965C91.6536 14.0965 91.3763 13.9879 91.1431 13.7709C90.918 13.5458 90.8054 13.2603 90.8054 12.9146C90.8054 12.5689 90.918 12.2916 91.1431 12.0825C91.3763 11.8654 91.6536 11.7569 91.9752 11.7569C92.3049 11.7569 92.5822 11.8654 92.8073 12.0825C93.0325 12.2916 93.145 12.5689 93.145 12.9146C93.145 13.2603 93.0325 13.5458 92.8073 13.7709C92.5822 13.9879 92.3049 14.0965 91.9752 14.0965ZM99.2384 14L96.8627 7.60841H97.9601L100.071 13.397H99.552L101.747 7.60841H102.724L104.87 13.397H104.364L106.522 7.60841H107.56L105.172 14H104.062L102.048 8.71789H102.386L100.348 14H99.2384ZM112.147 7.54811C112.67 7.54811 113.128 7.6486 113.522 7.8496C113.924 8.05059 114.238 8.3561 114.463 8.76613C114.688 9.17615 114.8 9.69472 114.8 10.3218V14H113.643V10.4545C113.643 9.83541 113.49 9.36911 113.184 9.05556C112.887 8.74201 112.465 8.58523 111.918 8.58523C111.508 8.58523 111.15 8.66563 110.845 8.82643C110.539 8.98722 110.302 9.22439 110.133 9.53794C109.972 9.85149 109.892 10.2414 109.892 10.7077V14H108.734V5.05177H109.892V9.33293L109.663 8.87466C109.872 8.4566 110.194 8.13099 110.628 7.89784C111.062 7.66468 111.568 7.54811 112.147 7.54811ZM116.943 14V7.60841H118.101V14H116.943ZM117.522 6.37832C117.297 6.37832 117.108 6.30597 116.955 6.16125C116.81 6.01654 116.738 5.83966 116.738 5.63063C116.738 5.41356 116.81 5.23266 116.955 5.08795C117.108 4.94323 117.297 4.87087 117.522 4.87087C117.747 4.87087 117.932 4.94323 118.076 5.08795C118.229 5.22462 118.306 5.39748 118.306 5.60651C118.306 5.82358 118.233 6.0085 118.089 6.16125C117.944 6.30597 117.755 6.37832 117.522 6.37832ZM122.506 14.0724C121.863 14.0724 121.364 13.8995 121.011 13.5538C120.657 13.2081 120.48 12.7136 120.48 12.0705V6.20949H121.638V12.0222C121.638 12.3679 121.722 12.6332 121.891 12.8182C122.068 13.0031 122.317 13.0955 122.639 13.0955C123 13.0955 123.302 12.995 123.543 12.794L123.905 13.6262C123.728 13.7789 123.515 13.8915 123.266 13.9638C123.024 14.0362 122.771 14.0724 122.506 14.0724ZM119.395 8.56111V7.60841H123.471V8.56111H119.395ZM127.939 14.0724C127.255 14.0724 126.652 13.9317 126.13 13.6503C125.615 13.3689 125.213 12.983 124.924 12.4925C124.642 12.0021 124.502 11.4393 124.502 10.8042C124.502 10.1691 124.638 9.60628 124.912 9.11586C125.193 8.62543 125.575 8.24354 126.057 7.97019C126.548 7.6888 127.098 7.54811 127.709 7.54811C128.329 7.54811 128.875 7.68478 129.35 7.95813C129.824 8.23149 130.194 8.61739 130.459 9.11586C130.732 9.60628 130.869 10.1811 130.869 10.8404C130.869 10.8886 130.865 10.9449 130.857 11.0092C130.857 11.0735 130.853 11.1338 130.845 11.1901H125.406V10.358H130.242L129.772 10.6474C129.78 10.2374 129.695 9.87159 129.518 9.55C129.342 9.22841 129.096 8.97918 128.783 8.80231C128.477 8.61739 128.119 8.52494 127.709 8.52494C127.307 8.52494 126.95 8.61739 126.636 8.80231C126.323 8.97918 126.077 9.23243 125.901 9.56206C125.724 9.88365 125.635 10.2535 125.635 10.6715V10.8645C125.635 11.2906 125.732 11.6725 125.925 12.0102C126.126 12.3398 126.403 12.5971 126.757 12.782C127.11 12.9669 127.517 13.0594 127.975 13.0594C128.353 13.0594 128.694 12.995 129 12.8664C129.313 12.7378 129.587 12.5448 129.82 12.2875L130.459 13.0352C130.17 13.3729 129.808 13.6302 129.374 13.807C128.948 13.9839 128.469 14.0724 127.939 14.0724ZM135.257 15.7848L135.86 13.3488L136.017 14.0482C135.784 14.0482 135.587 13.9759 135.426 13.8312C135.273 13.6865 135.197 13.4895 135.197 13.2402C135.197 12.9991 135.273 12.8021 135.426 12.6493C135.587 12.4966 135.78 12.4202 136.005 12.4202C136.238 12.4202 136.427 12.5006 136.572 12.6614C136.716 12.8141 136.789 13.0071 136.789 13.2402C136.789 13.3206 136.781 13.401 136.765 13.4814C136.756 13.5538 136.736 13.6422 136.704 13.7467C136.68 13.8432 136.64 13.9638 136.584 14.1085L136.017 15.7848H135.257ZM138.448 14V7.60841H139.605V14H138.448ZM139.026 6.37832C138.801 6.37832 138.612 6.30597 138.46 6.16125C138.315 6.01654 138.243 5.83966 138.243 5.63063C138.243 5.41356 138.315 5.23266 138.46 5.08795C138.612 4.94323 138.801 4.87087 139.026 4.87087C139.252 4.87087 139.436 4.94323 139.581 5.08795C139.734 5.22462 139.81 5.39748 139.81 5.60651C139.81 5.82358 139.738 6.0085 139.593 6.16125C139.449 6.30597 139.26 6.37832 139.026 6.37832ZM143.492 14L140.694 7.60841H141.9L144.385 13.397H143.806L146.338 7.60841H147.472L144.674 14H143.492ZM151.113 14.0724C150.47 14.0724 149.899 13.9317 149.401 13.6503C148.902 13.3689 148.508 12.983 148.219 12.4925C147.929 11.9941 147.785 11.4313 147.785 10.8042C147.785 10.1691 147.929 9.60628 148.219 9.11586C148.508 8.62543 148.902 8.24354 149.401 7.97019C149.899 7.6888 150.47 7.54811 151.113 7.54811C151.748 7.54811 152.315 7.6888 152.814 7.97019C153.32 8.24354 153.714 8.62543 153.995 9.11586C154.285 9.59824 154.43 10.161 154.43 10.8042C154.43 11.4393 154.285 12.0021 153.995 12.4925C153.714 12.983 153.32 13.3689 152.814 13.6503C152.315 13.9317 151.748 14.0724 151.113 14.0724ZM151.113 13.0594C151.523 13.0594 151.889 12.9669 152.211 12.782C152.54 12.5971 152.797 12.3358 152.982 11.9981C153.167 11.6524 153.26 11.2544 153.26 10.8042C153.26 10.3459 153.167 9.95199 152.982 9.62236C152.797 9.28469 152.54 9.0234 152.211 8.83849C151.889 8.65357 151.523 8.56111 151.113 8.56111C150.703 8.56111 150.337 8.65357 150.016 8.83849C149.694 9.0234 149.437 9.28469 149.244 9.62236C149.051 9.95199 148.954 10.3459 148.954 10.8042C148.954 11.2544 149.051 11.6524 149.244 11.9981C149.437 12.3358 149.694 12.5971 150.016 12.782C150.337 12.9669 150.703 13.0594 151.113 13.0594ZM156.031 14V7.60841H157.14V9.34499L157.032 8.91084C157.208 8.46866 157.506 8.13099 157.924 7.89784C158.342 7.66468 158.857 7.54811 159.468 7.54811V8.66965C159.419 8.66161 159.371 8.65759 159.323 8.65759C159.283 8.65759 159.242 8.65759 159.202 8.65759C158.583 8.65759 158.093 8.84251 157.731 9.21233C157.369 9.58216 157.188 10.1168 157.188 10.8163V14H156.031ZM161.431 16.4119C161.125 16.4119 160.828 16.3597 160.539 16.2551C160.249 16.1587 160 16.014 159.791 15.821L160.285 14.9527C160.446 15.1055 160.623 15.222 160.816 15.3024C161.009 15.3828 161.214 15.423 161.431 15.423C161.712 15.423 161.946 15.3507 162.13 15.206C162.315 15.0612 162.488 14.804 162.649 14.4341L163.047 13.5538L163.168 13.4091L165.676 7.60841H166.81L163.71 14.6392C163.525 15.0894 163.316 15.4431 163.083 15.7004C162.858 15.9577 162.609 16.1386 162.335 16.2431C162.062 16.3556 161.761 16.4119 161.431 16.4119ZM162.95 14.205L160.032 7.60841H161.238L163.722 13.3005L162.95 14.205Z" fill="black"/>
<path fill-rule="evenodd" clip-rule="evenodd" d="M173.5 4C173.367 4 173.24 4.05268 173.146 4.14645C173.053 4.24021 173 4.36739 173 4.5V15.5C173 15.6326 173.053 15.7598 173.146 15.8536C173.24 15.9473 173.367 16 173.5 16H184.5C184.633 16 184.76 15.9473 184.854 15.8536C184.947 15.7598 185 15.6326 185 15.5V4.5C185 4.36739 184.947 4.24021 184.854 4.14645C184.76 4.05268 184.633 4 184.5 4H173.5ZM178.354 12.354L182.854 7.854L182.147 7.146L178 11.293L175.854 9.146L175.146 9.854L177.646 12.354C177.692 12.4006 177.748 12.4375 177.808 12.4627C177.869 12.4879 177.934 12.5009 178 12.5009C178.066 12.5009 178.131 12.4879 178.192 12.4627C178.252 12.4375 178.308 12.4006 178.354 12.354Z" fill="#036F0E"/>
<path d="M194.297 14L198.119 5.55827H199.313L203.148 14H201.882L198.469 6.23361H198.952L195.539 14H194.297ZM195.925 11.8896L196.25 10.9248H201.002L201.351 11.8896H195.925ZM204.239 14V5.05177H205.397V14H204.239ZM208.958 14L206.582 7.60841H207.679L209.79 13.397H209.271L211.466 7.60841H212.443L214.59 13.397H214.083L216.242 7.60841H217.279L214.891 14H213.782L211.768 8.71789H212.105L210.067 14H208.958ZM222.221 14V12.6493L222.161 12.3961V10.0927C222.161 9.60226 222.016 9.22439 221.727 8.95908C221.445 8.68573 221.019 8.54905 220.448 8.54905C220.07 8.54905 219.701 8.61337 219.339 8.74201C218.977 8.8626 218.671 9.02742 218.422 9.23645L217.94 8.36816C218.269 8.10285 218.663 7.90186 219.122 7.76518C219.588 7.62046 220.074 7.54811 220.581 7.54811C221.457 7.54811 222.133 7.76116 222.607 8.18727C223.081 8.61337 223.318 9.26459 223.318 10.1409V14H222.221ZM220.123 14.0724C219.648 14.0724 219.23 13.992 218.868 13.8312C218.515 13.6704 218.241 13.4493 218.048 13.1679C217.855 12.8785 217.759 12.5528 217.759 12.1911C217.759 11.8453 217.839 11.5318 218 11.2504C218.169 10.969 218.438 10.7439 218.808 10.5751C219.186 10.4062 219.693 10.3218 220.328 10.3218H222.354V11.1539H220.376C219.797 11.1539 219.407 11.2504 219.206 11.4434C219.005 11.6363 218.905 11.8695 218.905 12.1428C218.905 12.4564 219.029 12.7096 219.278 12.9026C219.528 13.0875 219.873 13.1799 220.316 13.1799C220.75 13.1799 221.128 13.0835 221.449 12.8905C221.779 12.6976 222.016 12.4162 222.161 12.0463L222.39 12.8423C222.237 13.2201 221.968 13.5216 221.582 13.7467C221.196 13.9638 220.71 14.0724 220.123 14.0724ZM225.621 16.4119C225.315 16.4119 225.018 16.3597 224.728 16.2551C224.439 16.1587 224.189 16.014 223.98 15.821L224.475 14.9527C224.636 15.1055 224.813 15.222 225.005 15.3024C225.198 15.3828 225.403 15.423 225.621 15.423C225.902 15.423 226.135 15.3507 226.32 15.206C226.505 15.0612 226.678 14.804 226.839 14.4341L227.236 13.5538L227.357 13.4091L229.865 7.60841H230.999L227.9 14.6392C227.715 15.0894 227.506 15.4431 227.273 15.7004C227.048 15.9577 226.798 16.1386 226.525 16.2431C226.252 16.3556 225.95 16.4119 225.621 16.4119ZM227.14 14.205L224.222 7.60841H225.428L227.912 13.3005L227.14 14.205ZM233.83 14.0724C233.3 14.0724 232.793 14 232.311 13.8553C231.836 13.7106 231.462 13.5337 231.189 13.3247L231.672 12.4081C231.945 12.593 232.283 12.7498 232.685 12.8785C233.086 13.0071 233.497 13.0714 233.915 13.0714C234.453 13.0714 234.839 12.995 235.072 12.8423C235.314 12.6895 235.434 12.4765 235.434 12.2031C235.434 12.0021 235.362 11.8453 235.217 11.7328C235.072 11.6202 234.879 11.5358 234.638 11.4795C234.405 11.4233 234.144 11.375 233.854 11.3348C233.565 11.2866 233.275 11.2303 232.986 11.166C232.697 11.0936 232.431 10.9972 232.19 10.8766C231.949 10.7479 231.756 10.5751 231.611 10.358C231.466 10.1329 231.394 9.83541 231.394 9.46559C231.394 9.07968 231.503 8.74201 231.72 8.45258C231.937 8.16315 232.242 7.94205 232.636 7.7893C233.038 7.6285 233.513 7.54811 234.059 7.54811C234.477 7.54811 234.899 7.60037 235.326 7.70488C235.76 7.80136 236.113 7.94205 236.387 8.12697L235.892 9.0435C235.603 8.85055 235.301 8.71789 234.988 8.64553C234.674 8.57317 234.361 8.537 234.047 8.537C233.541 8.537 233.163 8.62141 232.914 8.79025C232.664 8.95104 232.54 9.16008 232.54 9.41735C232.54 9.63442 232.612 9.80325 232.757 9.92385C232.91 10.0364 233.103 10.1248 233.336 10.1892C233.577 10.2535 233.842 10.3098 234.132 10.358C234.421 10.3982 234.711 10.4545 235 10.5268C235.289 10.5911 235.551 10.6836 235.784 10.8042C236.025 10.9248 236.218 11.0936 236.363 11.3107C236.515 11.5278 236.592 11.8172 236.592 12.179C236.592 12.5649 236.479 12.8986 236.254 13.1799C236.029 13.4613 235.711 13.6824 235.301 13.8432C234.891 13.996 234.401 14.0724 233.83 14.0724ZM245.245 14V12.6493L245.185 12.3961V10.0927C245.185 9.60226 245.04 9.22439 244.751 8.95908C244.469 8.68573 244.043 8.54905 243.472 8.54905C243.094 8.54905 242.725 8.61337 242.363 8.74201C242.001 8.8626 241.695 9.02742 241.446 9.23645L240.964 8.36816C241.293 8.10285 241.687 7.90186 242.146 7.76518C242.612 7.62046 243.098 7.54811 243.605 7.54811C244.481 7.54811 245.157 7.76116 245.631 8.18727C246.105 8.61337 246.342 9.26459 246.342 10.1409V14H245.245ZM243.147 14.0724C242.672 14.0724 242.254 13.992 241.892 13.8312C241.539 13.6704 241.265 13.4493 241.072 13.1679C240.879 12.8785 240.783 12.5528 240.783 12.1911C240.783 11.8453 240.863 11.5318 241.024 11.2504C241.193 10.969 241.462 10.7439 241.832 10.5751C242.21 10.4062 242.716 10.3218 243.352 10.3218H245.378V11.1539H243.4C242.821 11.1539 242.431 11.2504 242.23 11.4434C242.029 11.6363 241.929 11.8695 241.929 12.1428C241.929 12.4564 242.053 12.7096 242.302 12.9026C242.552 13.0875 242.897 13.1799 243.34 13.1799C243.774 13.1799 244.152 13.0835 244.473 12.8905C244.803 12.6976 245.04 12.4162 245.185 12.0463L245.414 12.8423C245.261 13.2201 244.992 13.5216 244.606 13.7467C244.22 13.9638 243.734 14.0724 243.147 14.0724ZM250.043 14L247.246 7.60841H248.452L250.936 13.397H250.357L252.889 7.60841H254.023L251.225 14H250.043ZM258.871 14V12.6493L258.811 12.3961V10.0927C258.811 9.60226 258.666 9.22439 258.376 8.95908C258.095 8.68573 257.669 8.54905 257.098 8.54905C256.72 8.54905 256.35 8.61337 255.989 8.74201C255.627 8.8626 255.321 9.02742 255.072 9.23645L254.59 8.36816C254.919 8.10285 255.313 7.90186 255.772 7.76518C256.238 7.62046 256.724 7.54811 257.231 7.54811C258.107 7.54811 258.782 7.76116 259.257 8.18727C259.731 8.61337 259.968 9.26459 259.968 10.1409V14H258.871ZM256.773 14.0724C256.298 14.0724 255.88 13.992 255.518 13.8312C255.165 13.6704 254.891 13.4493 254.698 13.1679C254.505 12.8785 254.409 12.5528 254.409 12.1911C254.409 11.8453 254.489 11.5318 254.65 11.2504C254.819 10.969 255.088 10.7439 255.458 10.5751C255.836 10.4062 256.342 10.3218 256.978 10.3218H259.004V11.1539H257.026C256.447 11.1539 256.057 11.2504 255.856 11.4434C255.655 11.6363 255.555 11.8695 255.555 12.1428C255.555 12.4564 255.679 12.7096 255.928 12.9026C256.178 13.0875 256.523 13.1799 256.966 13.1799C257.4 13.1799 257.778 13.0835 258.099 12.8905C258.429 12.6976 258.666 12.4162 258.811 12.0463L259.04 12.8423C258.887 13.2201 258.618 13.5216 258.232 13.7467C257.846 13.9638 257.359 14.0724 256.773 14.0724ZM262.111 14V7.60841H263.269V14H262.111ZM262.69 6.37832C262.465 6.37832 262.276 6.30597 262.123 6.16125C261.978 6.01654 261.906 5.83966 261.906 5.63063C261.906 5.41356 261.978 5.23266 262.123 5.08795C262.276 4.94323 262.465 4.87087 262.69 4.87087C262.915 4.87087 263.1 4.94323 263.244 5.08795C263.397 5.22462 263.474 5.39748 263.474 5.60651C263.474 5.82358 263.401 6.0085 263.256 6.16125C263.112 6.30597 262.923 6.37832 262.69 6.37832ZM265.479 14V5.05177H266.637V14H265.479ZM272.815 14V12.6493L272.755 12.3961V10.0927C272.755 9.60226 272.61 9.22439 272.32 8.95908C272.039 8.68573 271.613 8.54905 271.042 8.54905C270.664 8.54905 270.294 8.61337 269.933 8.74201C269.571 8.8626 269.265 9.02742 269.016 9.23645L268.534 8.36816C268.863 8.10285 269.257 7.90186 269.716 7.76518C270.182 7.62046 270.668 7.54811 271.175 7.54811C272.051 7.54811 272.726 7.76116 273.201 8.18727C273.675 8.61337 273.912 9.26459 273.912 10.1409V14H272.815ZM270.716 14.0724C270.242 14.0724 269.824 13.992 269.462 13.8312C269.109 13.6704 268.835 13.4493 268.642 13.1679C268.449 12.8785 268.353 12.5528 268.353 12.1911C268.353 11.8453 268.433 11.5318 268.594 11.2504C268.763 10.969 269.032 10.7439 269.402 10.5751C269.78 10.4062 270.286 10.3218 270.921 10.3218H272.948V11.1539H270.97C270.391 11.1539 270.001 11.2504 269.8 11.4434C269.599 11.6363 269.498 11.8695 269.498 12.1428C269.498 12.4564 269.623 12.7096 269.872 12.9026C270.122 13.0875 270.467 13.1799 270.909 13.1799C271.344 13.1799 271.721 13.0835 272.043 12.8905C272.373 12.6976 272.61 12.4162 272.755 12.0463L272.984 12.8423C272.831 13.2201 272.562 13.5216 272.176 13.7467C271.79 13.9638 271.303 14.0724 270.716 14.0724ZM279.443 14.0724C278.897 14.0724 278.402 13.9518 277.96 13.7106C277.526 13.4613 277.18 13.0955 276.923 12.6131C276.674 12.1308 276.549 11.5278 276.549 10.8042C276.549 10.0806 276.678 9.47765 276.935 8.99526C277.2 8.51288 277.55 8.15109 277.984 7.9099C278.426 7.6687 278.913 7.54811 279.443 7.54811C280.071 7.54811 280.625 7.68478 281.108 7.95813C281.59 8.23149 281.972 8.61337 282.253 9.1038C282.535 9.58618 282.675 10.153 282.675 10.8042C282.675 11.4554 282.535 12.0262 282.253 12.5167C281.972 13.0071 281.59 13.389 281.108 13.6623C280.625 13.9357 280.071 14.0724 279.443 14.0724ZM276.055 14V5.05177H277.212V9.30881L277.092 10.7921L277.164 12.2755V14H276.055ZM279.347 13.0594C279.757 13.0594 280.123 12.9669 280.444 12.782C280.774 12.5971 281.031 12.3358 281.216 11.9981C281.409 11.6524 281.506 11.2544 281.506 10.8042C281.506 10.3459 281.409 9.95199 281.216 9.62236C281.031 9.28469 280.774 9.0234 280.444 8.83849C280.123 8.65357 279.757 8.56111 279.347 8.56111C278.945 8.56111 278.579 8.65357 278.25 8.83849C277.928 9.0234 277.671 9.28469 277.478 9.62236C277.293 9.95199 277.2 10.3459 277.2 10.8042C277.2 11.2544 277.293 11.6524 277.478 11.9981C277.671 12.3358 277.928 12.5971 278.25 12.782C278.579 12.9669 278.945 13.0594 279.347 13.0594ZM284.275 14V5.05177H285.433V14H284.275ZM290.489 14.0724C289.806 14.0724 289.203 13.9317 288.68 13.6503C288.166 13.3689 287.764 12.983 287.474 12.4925C287.193 12.0021 287.052 11.4393 287.052 10.8042C287.052 10.1691 287.189 9.60628 287.462 9.11586C287.744 8.62543 288.126 8.24354 288.608 7.97019C289.098 7.6888 289.649 7.54811 290.26 7.54811C290.879 7.54811 291.426 7.68478 291.9 7.95813C292.375 8.23149 292.744 8.61739 293.01 9.11586C293.283 9.60628 293.42 10.1811 293.42 10.8404C293.42 10.8886 293.416 10.9449 293.408 11.0092C293.408 11.0735 293.404 11.1338 293.396 11.1901H287.957V10.358H292.793L292.322 10.6474C292.33 10.2374 292.246 9.87159 292.069 9.55C291.892 9.22841 291.647 8.97918 291.334 8.80231C291.028 8.61739 290.67 8.52494 290.26 8.52494C289.858 8.52494 289.5 8.61739 289.187 8.80231C288.873 8.97918 288.628 9.23243 288.451 9.56206C288.274 9.88365 288.186 10.2535 288.186 10.6715V10.8645C288.186 11.2906 288.282 11.6725 288.475 12.0102C288.676 12.3398 288.954 12.5971 289.308 12.782C289.661 12.9669 290.067 13.0594 290.526 13.0594C290.903 13.0594 291.245 12.995 291.551 12.8664C291.864 12.7378 292.137 12.5448 292.371 12.2875L293.01 13.0352C292.72 13.3729 292.359 13.6302 291.924 13.807C291.498 13.9839 291.02 14.0724 290.489 14.0724Z" fill="black"/>
</svg>
