<svg width="220" height="18" viewBox="0 0 220 18" fill="none" xmlns="http://www.w3.org/2000/svg">
<path d="M0.000438213 17.0879V0.287889H3.88844V17.0879H0.000438213ZM9.31544 17.0879V0.287889H12.5314L19.6834 12.1439H17.9794L25.0114 0.287889H28.2034L28.2514 17.0879H24.6034L24.5794 5.87989H25.2514L19.6354 15.3119H17.8834L12.1474 5.87989H12.9634V17.0879H9.31544ZM33.6773 17.0879V0.287889H37.5653V13.9199H45.9893V17.0879H33.6773ZM63.3586 17.3759C62.0146 17.3759 60.7266 17.1999 59.4946 16.8479C58.2626 16.4799 57.2706 16.0079 56.5186 15.4319L57.8386 12.5039C58.5586 13.0159 59.4066 13.4399 60.3826 13.7759C61.3746 14.0959 62.3746 14.2559 63.3826 14.2559C64.1506 14.2559 64.7666 14.1839 65.2306 14.0399C65.7106 13.8799 66.0626 13.6639 66.2866 13.3919C66.5106 13.1199 66.6226 12.8079 66.6226 12.4559C66.6226 12.0079 66.4466 11.6559 66.0946 11.3999C65.7426 11.1279 65.2786 10.9119 64.7026 10.7519C64.1266 10.5759 63.4866 10.4159 62.7826 10.2719C62.0946 10.1119 61.3986 9.91989 60.6946 9.69589C60.0066 9.47189 59.3746 9.18389 58.7986 8.83189C58.2226 8.47989 57.7506 8.01589 57.3826 7.43989C57.0306 6.86389 56.8546 6.12789 56.8546 5.23189C56.8546 4.27189 57.1106 3.39989 57.6226 2.61589C58.1506 1.81589 58.9346 1.18389 59.9746 0.71989C61.0306 0.23989 62.3506 -0.000109673 63.9346 -0.000109673C64.9906 -0.000109673 66.0306 0.12789 67.0546 0.38389C68.0786 0.623889 68.9826 0.991889 69.7666 1.48789L68.5666 4.43989C67.7826 3.99189 66.9986 3.66389 66.2146 3.45589C65.4306 3.23189 64.6626 3.11989 63.9106 3.11989C63.1586 3.11989 62.5426 3.20789 62.0626 3.38389C61.5826 3.55989 61.2386 3.79189 61.0306 4.07989C60.8226 4.35189 60.7186 4.67189 60.7186 5.03989C60.7186 5.47189 60.8946 5.82389 61.2466 6.09589C61.5986 6.35189 62.0626 6.55989 62.6386 6.71989C63.2146 6.87989 63.8466 7.03989 64.5346 7.19989C65.2386 7.35989 65.9346 7.54389 66.6226 7.75189C67.3266 7.95989 67.9666 8.23989 68.5426 8.59189C69.1186 8.94389 69.5826 9.40789 69.9346 9.98389C70.3026 10.5599 70.4866 11.2879 70.4866 12.1679C70.4866 13.1119 70.2226 13.9759 69.6946 14.7599C69.1666 15.5439 68.3746 16.1759 67.3186 16.6559C66.2786 17.1359 64.9586 17.3759 63.3586 17.3759ZM78.6152 17.0879L73.1192 0.287889H77.1512L81.9272 15.1679H79.9112L84.9032 0.287889H88.5032L93.3032 15.1679H91.3592L96.2552 0.287889H99.9752L94.4792 17.0879H90.3032L86.0552 4.03189H87.1592L82.7912 17.0879H78.6152ZM107.162 7.05589H115.25V10.0799H107.162V7.05589ZM107.45 13.9679H116.594V17.0879H103.586V0.287889H116.282V3.40789H107.45V13.9679ZM124.703 7.05589H132.791V10.0799H124.703V7.05589ZM124.991 13.9679H134.135V17.0879H121.127V0.287889H133.823V3.40789H124.991V13.9679ZM142.149 17.0879V3.45589H136.773V0.287889H151.413V3.45589H146.037V17.0879H142.149ZM163.182 17.0879V0.287889H171.39C173.502 0.287889 175.086 0.68789 176.142 1.48789C177.214 2.28789 177.75 3.34389 177.75 4.65589C177.75 5.53589 177.534 6.30389 177.102 6.95989C176.67 7.59989 176.078 8.09589 175.326 8.44789C174.574 8.79989 173.71 8.97589 172.734 8.97589L173.19 7.99189C174.246 7.99189 175.182 8.16789 175.998 8.51989C176.814 8.85589 177.446 9.35989 177.894 10.0319C178.358 10.7039 178.59 11.5279 178.59 12.5039C178.59 13.9439 178.022 15.0719 176.886 15.8879C175.75 16.6879 174.078 17.0879 171.87 17.0879H163.182ZM167.046 14.1599H171.582C172.59 14.1599 173.35 13.9999 173.862 13.6799C174.39 13.3439 174.654 12.8159 174.654 12.0959C174.654 11.3919 174.39 10.8719 173.862 10.5359C173.35 10.1839 172.59 10.0079 171.582 10.0079H166.758V7.17589H170.91C171.854 7.17589 172.574 7.01589 173.07 6.69589C173.582 6.35989 173.838 5.85589 173.838 5.18389C173.838 4.52789 173.582 4.03989 173.07 3.71989C172.574 3.38389 171.854 3.21589 170.91 3.21589H167.046V14.1599ZM191.133 17.3759C189.805 17.3759 188.573 17.1599 187.437 16.7279C186.317 16.2959 185.341 15.6879 184.509 14.9039C183.693 14.1199 183.053 13.1999 182.589 12.1439C182.141 11.0879 181.917 9.93589 181.917 8.68789C181.917 7.43989 182.141 6.28789 182.589 5.23189C183.053 4.17589 183.701 3.25589 184.533 2.47189C185.365 1.68789 186.341 1.07989 187.461 0.647889C188.581 0.21589 189.797 -0.000109673 191.109 -0.000109673C192.437 -0.000109673 193.653 0.21589 194.757 0.647889C195.877 1.07989 196.845 1.68789 197.661 2.47189C198.493 3.25589 199.141 4.17589 199.605 5.23189C200.069 6.27189 200.301 7.42389 200.301 8.68789C200.301 9.93589 200.069 11.0959 199.605 12.1679C199.141 13.2239 198.493 14.1439 197.661 14.9279C196.845 15.6959 195.877 16.2959 194.757 16.7279C193.653 17.1599 192.445 17.3759 191.133 17.3759ZM191.109 14.0639C191.861 14.0639 192.549 13.9359 193.173 13.6799C193.813 13.4239 194.373 13.0559 194.853 12.5759C195.333 12.0959 195.701 11.5279 195.957 10.8719C196.229 10.2159 196.365 9.48789 196.365 8.68789C196.365 7.88789 196.229 7.15989 195.957 6.50389C195.701 5.84789 195.333 5.27989 194.853 4.79989C194.389 4.31989 193.837 3.95189 193.197 3.69589C192.557 3.43989 191.861 3.31189 191.109 3.31189C190.357 3.31189 189.661 3.43989 189.021 3.69589C188.397 3.95189 187.845 4.31989 187.365 4.79989C186.885 5.27989 186.509 5.84789 186.237 6.50389C185.981 7.15989 185.853 7.88789 185.853 8.68789C185.853 9.47189 185.981 10.1999 186.237 10.8719C186.509 11.5279 186.877 12.0959 187.341 12.5759C187.821 13.0559 188.381 13.4239 189.021 13.6799C189.661 13.9359 190.357 14.0639 191.109 14.0639ZM202.134 17.0879L209.358 7.12789V9.95989L202.446 0.287889H206.862L211.638 7.03189L209.79 7.05589L214.494 0.287889H218.718L211.854 9.79189V7.00789L219.126 17.0879H214.638L209.694 9.95989H211.47L206.598 17.0879H202.134Z" fill="black"/>
</svg>
