<svg width="292" height="36" viewBox="0 0 292 36" fill="none" xmlns="http://www.w3.org/2000/svg">
<path d="M21.045 0H272.27L292 19.5L272.27 36H21.045L0 19.5L21.045 0Z" fill="#EEC43A"/>
<path d="M20.9865 22.132C20.4512 22.132 19.9195 22.0623 19.3915 21.923C18.8635 21.7763 18.4162 21.571 18.0495 21.307L18.7425 19.943C19.0359 20.1557 19.3769 20.3243 19.7655 20.449C20.1542 20.5737 20.5465 20.636 20.9425 20.636C21.3899 20.636 21.7419 20.548 21.9985 20.372C22.2552 20.196 22.3835 19.954 22.3835 19.646C22.3835 19.3527 22.2699 19.1217 22.0425 18.953C21.8152 18.7843 21.4485 18.7 20.9425 18.7H20.1285V17.523L22.2735 15.092L22.4715 15.73H18.4345V14.3H23.8245V15.455L21.6905 17.886L20.7885 17.369H21.3055C22.2515 17.369 22.9665 17.5817 23.4505 18.007C23.9345 18.4323 24.1765 18.9787 24.1765 19.646C24.1765 20.0787 24.0629 20.4857 23.8355 20.867C23.6082 21.241 23.2599 21.5453 22.7905 21.78C22.3212 22.0147 21.7199 22.132 20.9865 22.132ZM28.4423 22.132C27.7383 22.132 27.126 21.9853 26.6053 21.692C26.092 21.3987 25.696 20.9697 25.4173 20.405C25.1386 19.8403 24.9993 19.1437 24.9993 18.315C24.9993 17.4277 25.1643 16.676 25.4943 16.06C25.8316 15.444 26.2936 14.9747 26.8803 14.652C27.4743 14.3293 28.1563 14.168 28.9263 14.168C29.337 14.168 29.7293 14.212 30.1033 14.3C30.4773 14.388 30.8 14.52 31.0713 14.696L30.4113 16.005C30.1986 15.8583 29.9713 15.7593 29.7293 15.708C29.4873 15.6493 29.2343 15.62 28.9703 15.62C28.303 15.62 27.775 15.8217 27.3863 16.225C26.9976 16.6283 26.8033 17.226 26.8033 18.018C26.8033 18.15 26.8033 18.2967 26.8033 18.458C26.8106 18.6193 26.8326 18.7807 26.8693 18.942L26.3743 18.48C26.5136 18.194 26.6933 17.9557 26.9133 17.765C27.1333 17.567 27.3936 17.4203 27.6943 17.325C28.0023 17.2223 28.3396 17.171 28.7063 17.171C29.205 17.171 29.6523 17.27 30.0483 17.468C30.4443 17.666 30.7596 17.9447 30.9943 18.304C31.2363 18.6633 31.3573 19.085 31.3573 19.569C31.3573 20.0897 31.2253 20.5443 30.9613 20.933C30.7046 21.3143 30.3563 21.6113 29.9163 21.824C29.4836 22.0293 28.9923 22.132 28.4423 22.132ZM28.3433 20.801C28.5926 20.801 28.8126 20.757 29.0033 20.669C29.2013 20.5737 29.3553 20.438 29.4653 20.262C29.5753 20.086 29.6303 19.8843 29.6303 19.657C29.6303 19.305 29.5093 19.0263 29.2673 18.821C29.0326 18.6083 28.7173 18.502 28.3213 18.502C28.0573 18.502 27.8263 18.5533 27.6283 18.656C27.4303 18.7513 27.2726 18.887 27.1553 19.063C27.0453 19.2317 26.9903 19.4297 26.9903 19.657C26.9903 19.877 27.0453 20.075 27.1553 20.251C27.2653 20.4197 27.4193 20.5553 27.6173 20.658C27.8153 20.7533 28.0573 20.801 28.3433 20.801ZM35.3032 22.132C34.6726 22.132 34.1079 21.978 33.6092 21.67C33.1106 21.3547 32.7182 20.9 32.4322 20.306C32.1462 19.712 32.0032 18.9933 32.0032 18.15C32.0032 17.3067 32.1462 16.588 32.4322 15.994C32.7182 15.4 33.1106 14.949 33.6092 14.641C34.1079 14.3257 34.6726 14.168 35.3032 14.168C35.9412 14.168 36.5059 14.3257 36.9972 14.641C37.4959 14.949 37.8882 15.4 38.1742 15.994C38.4602 16.588 38.6032 17.3067 38.6032 18.15C38.6032 18.9933 38.4602 19.712 38.1742 20.306C37.8882 20.9 37.4959 21.3547 36.9972 21.67C36.5059 21.978 35.9412 22.132 35.3032 22.132ZM35.3032 20.625C35.6039 20.625 35.8642 20.5407 36.0842 20.372C36.3116 20.2033 36.4876 19.9357 36.6122 19.569C36.7442 19.2023 36.8102 18.7293 36.8102 18.15C36.8102 17.5707 36.7442 17.0977 36.6122 16.731C36.4876 16.3643 36.3116 16.0967 36.0842 15.928C35.8642 15.7593 35.6039 15.675 35.3032 15.675C35.0099 15.675 34.7496 15.7593 34.5222 15.928C34.3022 16.0967 34.1262 16.3643 33.9942 16.731C33.8696 17.0977 33.8072 17.5707 33.8072 18.15C33.8072 18.7293 33.8696 19.2023 33.9942 19.569C34.1262 19.9357 34.3022 20.2033 34.5222 20.372C34.7496 20.5407 35.0099 20.625 35.3032 20.625ZM41.339 17.974C40.9797 17.974 40.6534 17.8933 40.36 17.732C40.0667 17.5633 39.832 17.336 39.656 17.05C39.4874 16.764 39.403 16.445 39.403 16.093C39.403 15.741 39.4874 15.422 39.656 15.136C39.832 14.85 40.0667 14.6227 40.36 14.454C40.6534 14.2853 40.9797 14.201 41.339 14.201C41.6984 14.201 42.021 14.2853 42.307 14.454C42.6004 14.6227 42.8314 14.85 43 15.136C43.176 15.422 43.264 15.741 43.264 16.093C43.264 16.445 43.176 16.764 43 17.05C42.8314 17.3287 42.6004 17.5523 42.307 17.721C42.021 17.8897 41.6984 17.974 41.339 17.974ZM41.339 17.127C41.5297 17.127 41.702 17.083 41.856 16.995C42.01 16.8997 42.131 16.775 42.219 16.621C42.307 16.467 42.351 16.291 42.351 16.093C42.351 15.895 42.307 15.719 42.219 15.565C42.131 15.4037 42.01 15.279 41.856 15.191C41.702 15.103 41.5297 15.059 41.339 15.059C41.141 15.059 40.965 15.103 40.811 15.191C40.657 15.279 40.536 15.4 40.448 15.554C40.36 15.708 40.316 15.8877 40.316 16.093C40.316 16.291 40.36 16.467 40.448 16.621C40.536 16.775 40.657 16.8997 40.811 16.995C40.965 17.083 41.141 17.127 41.339 17.127ZM47.6659 22V14.3H51.4279C52.3959 14.3 53.1219 14.4833 53.6059 14.85C54.0973 15.2167 54.3429 15.7007 54.3429 16.302C54.3429 16.7053 54.2439 17.0573 54.0459 17.358C53.8479 17.6513 53.5766 17.8787 53.2319 18.04C52.8873 18.2013 52.4913 18.282 52.0439 18.282L52.2529 17.831C52.7369 17.831 53.1659 17.9117 53.5399 18.073C53.9139 18.227 54.2036 18.458 54.4089 18.766C54.6216 19.074 54.7279 19.4517 54.7279 19.899C54.7279 20.559 54.4676 21.076 53.9469 21.45C53.4263 21.8167 52.6599 22 51.6479 22H47.6659ZM49.4369 20.658H51.5159C51.9779 20.658 52.3263 20.5847 52.5609 20.438C52.8029 20.284 52.9239 20.042 52.9239 19.712C52.9239 19.3893 52.8029 19.151 52.5609 18.997C52.3263 18.8357 51.9779 18.755 51.5159 18.755H49.3049V17.457H51.2079C51.6406 17.457 51.9706 17.3837 52.1979 17.237C52.4326 17.083 52.5499 16.852 52.5499 16.544C52.5499 16.2433 52.4326 16.0197 52.1979 15.873C51.9706 15.719 51.6406 15.642 51.2079 15.642H49.4369V20.658ZM55.9561 22V16.082H57.5951V17.754L57.3641 17.27C57.5401 16.852 57.8224 16.5367 58.2111 16.324C58.5997 16.104 59.0727 15.994 59.6301 15.994V17.578C59.5567 17.5707 59.4907 17.567 59.4321 17.567C59.3734 17.5597 59.3111 17.556 59.2451 17.556C58.7757 17.556 58.3944 17.6917 58.1011 17.963C57.8151 18.227 57.6721 18.6413 57.6721 19.206V22H55.9561ZM63.8937 22V20.845L63.7837 20.592V18.524C63.7837 18.1573 63.67 17.8713 63.4427 17.666C63.2227 17.4607 62.8817 17.358 62.4197 17.358C62.1043 17.358 61.7927 17.4093 61.4847 17.512C61.184 17.6073 60.9273 17.7393 60.7147 17.908L60.0987 16.709C60.4213 16.4817 60.81 16.3057 61.2647 16.181C61.7193 16.0563 62.1813 15.994 62.6507 15.994C63.5527 15.994 64.253 16.2067 64.7517 16.632C65.2503 17.0573 65.4997 17.721 65.4997 18.623V22H63.8937ZM62.0897 22.088C61.6277 22.088 61.2317 22.011 60.9017 21.857C60.5717 21.6957 60.3187 21.4793 60.1427 21.208C59.9667 20.9367 59.8787 20.6323 59.8787 20.295C59.8787 19.943 59.963 19.635 60.1317 19.371C60.3077 19.107 60.5827 18.9017 60.9567 18.755C61.3307 18.601 61.8183 18.524 62.4197 18.524H63.9927V19.525H62.6067C62.2033 19.525 61.9247 19.591 61.7707 19.723C61.624 19.855 61.5507 20.02 61.5507 20.218C61.5507 20.438 61.635 20.614 61.8037 20.746C61.9797 20.8707 62.218 20.933 62.5187 20.933C62.8047 20.933 63.0613 20.867 63.2887 20.735C63.516 20.5957 63.681 20.394 63.7837 20.13L64.0477 20.922C63.923 21.3033 63.6957 21.593 63.3657 21.791C63.0357 21.989 62.6103 22.088 62.0897 22.088ZM70.6497 15.994C71.1191 15.994 71.5371 16.0893 71.9037 16.28C72.2777 16.4633 72.5711 16.7493 72.7837 17.138C72.9964 17.5193 73.1027 18.0107 73.1027 18.612V22H71.3867V18.876C71.3867 18.3993 71.2804 18.0473 71.0677 17.82C70.8624 17.5927 70.5691 17.479 70.1877 17.479C69.9164 17.479 69.6707 17.5377 69.4507 17.655C69.2381 17.765 69.0694 17.9373 68.9447 18.172C68.8274 18.4067 68.7687 18.7073 68.7687 19.074V22H67.0527V16.082H68.6917V17.721L68.3837 17.226C68.5964 16.83 68.9007 16.5257 69.2967 16.313C69.6927 16.1003 70.1437 15.994 70.6497 15.994ZM77.2422 22.088C76.6848 22.088 76.1825 21.9633 75.7352 21.714C75.2878 21.4573 74.9322 21.1017 74.6682 20.647C74.4115 20.1923 74.2832 19.657 74.2832 19.041C74.2832 18.4177 74.4115 17.8787 74.6682 17.424C74.9322 16.9693 75.2878 16.6173 75.7352 16.368C76.1825 16.1187 76.6848 15.994 77.2422 15.994C77.7408 15.994 78.1772 16.104 78.5512 16.324C78.9252 16.544 79.2148 16.8777 79.4202 17.325C79.6255 17.7723 79.7282 18.3443 79.7282 19.041C79.7282 19.7303 79.6292 20.3023 79.4312 20.757C79.2332 21.2043 78.9472 21.538 78.5732 21.758C78.2065 21.978 77.7628 22.088 77.2422 22.088ZM77.5392 20.68C77.8178 20.68 78.0708 20.614 78.2982 20.482C78.5255 20.35 78.7052 20.163 78.8372 19.921C78.9765 19.6717 79.0462 19.3783 79.0462 19.041C79.0462 18.6963 78.9765 18.403 78.8372 18.161C78.7052 17.919 78.5255 17.732 78.2982 17.6C78.0708 17.468 77.8178 17.402 77.5392 17.402C77.2532 17.402 76.9965 17.468 76.7692 17.6C76.5418 17.732 76.3585 17.919 76.2192 18.161C76.0872 18.403 76.0212 18.6963 76.0212 19.041C76.0212 19.3783 76.0872 19.6717 76.2192 19.921C76.3585 20.163 76.5418 20.35 76.7692 20.482C76.9965 20.614 77.2532 20.68 77.5392 20.68ZM79.0902 22V20.79L79.1232 19.03L79.0132 17.281V13.838H80.7292V22H79.0902ZM82.3174 22V16.082H84.0334V22H82.3174ZM83.1754 15.257C82.8601 15.257 82.6034 15.1653 82.4054 14.982C82.2074 14.7987 82.1084 14.5713 82.1084 14.3C82.1084 14.0287 82.2074 13.8013 82.4054 13.618C82.6034 13.4347 82.8601 13.343 83.1754 13.343C83.4907 13.343 83.7474 13.431 83.9454 13.607C84.1434 13.7757 84.2424 13.9957 84.2424 14.267C84.2424 14.553 84.1434 14.7913 83.9454 14.982C83.7547 15.1653 83.4981 15.257 83.1754 15.257ZM89.223 15.994C89.6923 15.994 90.1103 16.0893 90.477 16.28C90.851 16.4633 91.1443 16.7493 91.357 17.138C91.5697 17.5193 91.676 18.0107 91.676 18.612V22H89.96V18.876C89.96 18.3993 89.8537 18.0473 89.641 17.82C89.4357 17.5927 89.1423 17.479 88.761 17.479C88.4897 17.479 88.244 17.5377 88.024 17.655C87.8113 17.765 87.6427 17.9373 87.518 18.172C87.4007 18.4067 87.342 18.7073 87.342 19.074V22H85.626V16.082H87.265V17.721L86.957 17.226C87.1697 16.83 87.474 16.5257 87.87 16.313C88.266 16.1003 88.717 15.994 89.223 15.994ZM96.0574 24.222C95.5001 24.222 94.9611 24.1523 94.4404 24.013C93.9271 23.881 93.4981 23.6793 93.1534 23.408L93.8354 22.176C94.0848 22.3813 94.4001 22.5427 94.7814 22.66C95.1701 22.7847 95.5514 22.847 95.9254 22.847C96.5341 22.847 96.9741 22.7113 97.2454 22.44C97.5241 22.1687 97.6634 21.7653 97.6634 21.23V20.339L97.7734 18.854L97.7514 17.358V16.082H99.3794V21.01C99.3794 22.11 99.0934 22.9203 98.5214 23.441C97.9494 23.9617 97.1281 24.222 96.0574 24.222ZM95.7934 21.714C95.2434 21.714 94.7448 21.5967 94.2974 21.362C93.8574 21.12 93.5018 20.7863 93.2304 20.361C92.9664 19.9283 92.8344 19.426 92.8344 18.854C92.8344 18.2747 92.9664 17.7723 93.2304 17.347C93.5018 16.9143 93.8574 16.5807 94.2974 16.346C94.7448 16.1113 95.2434 15.994 95.7934 15.994C96.2921 15.994 96.7321 16.0967 97.1134 16.302C97.4948 16.5 97.7918 16.8117 98.0044 17.237C98.2171 17.655 98.3234 18.194 98.3234 18.854C98.3234 19.5067 98.2171 20.0457 98.0044 20.471C97.7918 20.889 97.4948 21.2007 97.1134 21.406C96.7321 21.6113 96.2921 21.714 95.7934 21.714ZM96.1344 20.306C96.4351 20.306 96.7028 20.2473 96.9374 20.13C97.1721 20.0053 97.3554 19.833 97.4874 19.613C97.6194 19.393 97.6854 19.14 97.6854 18.854C97.6854 18.5607 97.6194 18.3077 97.4874 18.095C97.3554 17.875 97.1721 17.7063 96.9374 17.589C96.7028 17.4643 96.4351 17.402 96.1344 17.402C95.8338 17.402 95.5661 17.4643 95.3314 17.589C95.0968 17.7063 94.9098 17.875 94.7704 18.095C94.6384 18.3077 94.5724 18.5607 94.5724 18.854C94.5724 19.14 94.6384 19.393 94.7704 19.613C94.9098 19.833 95.0968 20.0053 95.3314 20.13C95.5661 20.2473 95.8338 20.306 96.1344 20.306ZM101.626 18.139C101.332 18.139 101.079 18.04 100.867 17.842C100.661 17.6367 100.559 17.3763 100.559 17.061C100.559 16.7457 100.661 16.4927 100.867 16.302C101.079 16.104 101.332 16.005 101.626 16.005C101.926 16.005 102.179 16.104 102.385 16.302C102.59 16.4927 102.693 16.7457 102.693 17.061C102.693 17.3763 102.59 17.6367 102.385 17.842C102.179 18.04 101.926 18.139 101.626 18.139ZM101.626 22.088C101.332 22.088 101.079 21.989 100.867 21.791C100.661 21.5857 100.559 21.3253 100.559 21.01C100.559 20.6947 100.661 20.4417 100.867 20.251C101.079 20.053 101.332 19.954 101.626 19.954C101.926 19.954 102.179 20.053 102.385 20.251C102.59 20.4417 102.693 20.6947 102.693 21.01C102.693 21.3253 102.59 21.5857 102.385 21.791C102.179 21.989 101.926 22.088 101.626 22.088ZM107.092 22V14.3H110.425C111.114 14.3 111.708 14.4137 112.207 14.641C112.705 14.861 113.09 15.18 113.362 15.598C113.633 16.016 113.769 16.5147 113.769 17.094C113.769 17.666 113.633 18.161 113.362 18.579C113.09 18.997 112.705 19.3197 112.207 19.547C111.708 19.767 111.114 19.877 110.425 19.877H108.082L108.874 19.074V22H107.092ZM108.874 19.272L108.082 18.425H110.326C110.876 18.425 111.286 18.3077 111.558 18.073C111.829 17.8383 111.965 17.512 111.965 17.094C111.965 16.6687 111.829 16.3387 111.558 16.104C111.286 15.8693 110.876 15.752 110.326 15.752H108.082L108.874 14.905V19.272ZM114.92 22V16.082H116.559V17.754L116.328 17.27C116.504 16.852 116.786 16.5367 117.175 16.324C117.564 16.104 118.037 15.994 118.594 15.994V17.578C118.521 17.5707 118.455 17.567 118.396 17.567C118.337 17.5597 118.275 17.556 118.209 17.556C117.74 17.556 117.358 17.6917 117.065 17.963C116.779 18.227 116.636 18.6413 116.636 19.206V22H114.92ZM122.498 22.088C121.823 22.088 121.229 21.956 120.716 21.692C120.21 21.428 119.817 21.0687 119.539 20.614C119.26 20.152 119.121 19.6277 119.121 19.041C119.121 18.447 119.256 17.9227 119.528 17.468C119.806 17.006 120.184 16.6467 120.661 16.39C121.137 16.126 121.676 15.994 122.278 15.994C122.857 15.994 123.378 16.1187 123.84 16.368C124.309 16.61 124.679 16.962 124.951 17.424C125.222 17.8787 125.358 18.425 125.358 19.063C125.358 19.129 125.354 19.206 125.347 19.294C125.339 19.3747 125.332 19.4517 125.325 19.525H120.518V18.524H124.423L123.763 18.821C123.763 18.513 123.7 18.2453 123.576 18.018C123.451 17.7907 123.279 17.6147 123.059 17.49C122.839 17.358 122.582 17.292 122.289 17.292C121.995 17.292 121.735 17.358 121.508 17.49C121.288 17.6147 121.115 17.7943 120.991 18.029C120.866 18.2563 120.804 18.5277 120.804 18.843V19.107C120.804 19.4297 120.873 19.7157 121.013 19.965C121.159 20.207 121.361 20.394 121.618 20.526C121.882 20.6507 122.19 20.713 122.542 20.713C122.857 20.713 123.132 20.6653 123.367 20.57C123.609 20.4747 123.829 20.3317 124.027 20.141L124.94 21.131C124.668 21.439 124.327 21.6773 123.917 21.846C123.506 22.0073 123.033 22.088 122.498 22.088ZM129.36 22.088C128.722 22.088 128.154 21.9597 127.655 21.703C127.156 21.439 126.764 21.076 126.478 20.614C126.199 20.152 126.06 19.6277 126.06 19.041C126.06 18.447 126.199 17.9227 126.478 17.468C126.764 17.006 127.156 16.6467 127.655 16.39C128.154 16.126 128.722 15.994 129.36 15.994C129.983 15.994 130.526 16.126 130.988 16.39C131.45 16.6467 131.791 17.017 132.011 17.501L130.68 18.216C130.526 17.9373 130.332 17.732 130.097 17.6C129.87 17.468 129.62 17.402 129.349 17.402C129.056 17.402 128.792 17.468 128.557 17.6C128.322 17.732 128.135 17.919 127.996 18.161C127.864 18.403 127.798 18.6963 127.798 19.041C127.798 19.3857 127.864 19.679 127.996 19.921C128.135 20.163 128.322 20.35 128.557 20.482C128.792 20.614 129.056 20.68 129.349 20.68C129.62 20.68 129.87 20.6177 130.097 20.493C130.332 20.361 130.526 20.152 130.68 19.866L132.011 20.592C131.791 21.0687 131.45 21.439 130.988 21.703C130.526 21.9597 129.983 22.088 129.36 22.088ZM132.956 22V16.082H134.672V22H132.956ZM133.814 15.257C133.499 15.257 133.242 15.1653 133.044 14.982C132.846 14.7987 132.747 14.5713 132.747 14.3C132.747 14.0287 132.846 13.8013 133.044 13.618C133.242 13.4347 133.499 13.343 133.814 13.343C134.129 13.343 134.386 13.431 134.584 13.607C134.782 13.7757 134.881 13.9957 134.881 14.267C134.881 14.553 134.782 14.7913 134.584 14.982C134.393 15.1653 134.137 15.257 133.814 15.257ZM138.256 22.088C137.75 22.088 137.262 22.0293 136.793 21.912C136.331 21.7873 135.964 21.6333 135.693 21.45L136.265 20.218C136.536 20.3867 136.855 20.526 137.222 20.636C137.596 20.7387 137.962 20.79 138.322 20.79C138.718 20.79 138.996 20.7423 139.158 20.647C139.326 20.5517 139.411 20.4197 139.411 20.251C139.411 20.1117 139.345 20.009 139.213 19.943C139.088 19.8697 138.919 19.8147 138.707 19.778C138.494 19.7413 138.259 19.7047 138.003 19.668C137.753 19.6313 137.5 19.5837 137.244 19.525C136.987 19.459 136.752 19.3637 136.54 19.239C136.327 19.1143 136.155 18.9457 136.023 18.733C135.898 18.5203 135.836 18.2453 135.836 17.908C135.836 17.534 135.942 17.204 136.155 16.918C136.375 16.632 136.69 16.4083 137.101 16.247C137.511 16.0783 138.003 15.994 138.575 15.994C138.978 15.994 139.389 16.038 139.807 16.126C140.225 16.214 140.573 16.3423 140.852 16.511L140.28 17.732C139.994 17.5633 139.704 17.4497 139.411 17.391C139.125 17.325 138.846 17.292 138.575 17.292C138.193 17.292 137.915 17.3433 137.739 17.446C137.563 17.5487 137.475 17.6807 137.475 17.842C137.475 17.9887 137.537 18.0987 137.662 18.172C137.794 18.2453 137.966 18.304 138.179 18.348C138.391 18.392 138.622 18.4323 138.872 18.469C139.128 18.4983 139.385 18.546 139.642 18.612C139.898 18.678 140.129 18.7733 140.335 18.898C140.547 19.0153 140.72 19.1803 140.852 19.393C140.984 19.5983 141.05 19.8697 141.05 20.207C141.05 20.5737 140.94 20.9 140.72 21.186C140.5 21.4647 140.181 21.6847 139.763 21.846C139.352 22.0073 138.85 22.088 138.256 22.088ZM142.108 22V16.082H143.824V22H142.108ZM142.966 15.257C142.651 15.257 142.394 15.1653 142.196 14.982C141.998 14.7987 141.899 14.5713 141.899 14.3C141.899 14.0287 141.998 13.8013 142.196 13.618C142.394 13.4347 142.651 13.343 142.966 13.343C143.282 13.343 143.538 13.431 143.736 13.607C143.934 13.7757 144.033 13.9957 144.033 14.267C144.033 14.553 143.934 14.7913 143.736 14.982C143.546 15.1653 143.289 15.257 142.966 15.257ZM148.233 22.088C147.602 22.088 147.041 21.956 146.55 21.692C146.066 21.428 145.681 21.0687 145.395 20.614C145.116 20.152 144.977 19.6277 144.977 19.041C144.977 18.447 145.116 17.9227 145.395 17.468C145.681 17.006 146.066 16.6467 146.55 16.39C147.041 16.126 147.602 15.994 148.233 15.994C148.856 15.994 149.414 16.126 149.905 16.39C150.396 16.6467 150.781 17.0023 151.06 17.457C151.339 17.9117 151.478 18.4397 151.478 19.041C151.478 19.6277 151.339 20.152 151.06 20.614C150.781 21.0687 150.396 21.428 149.905 21.692C149.414 21.956 148.856 22.088 148.233 22.088ZM148.233 20.68C148.519 20.68 148.776 20.614 149.003 20.482C149.23 20.35 149.41 20.163 149.542 19.921C149.674 19.6717 149.74 19.3783 149.74 19.041C149.74 18.6963 149.674 18.403 149.542 18.161C149.41 17.919 149.23 17.732 149.003 17.6C148.776 17.468 148.519 17.402 148.233 17.402C147.947 17.402 147.69 17.468 147.463 17.6C147.236 17.732 147.052 17.919 146.913 18.161C146.781 18.403 146.715 18.6963 146.715 19.041C146.715 19.3783 146.781 19.6717 146.913 19.921C147.052 20.163 147.236 20.35 147.463 20.482C147.69 20.614 147.947 20.68 148.233 20.68ZM156.222 15.994C156.691 15.994 157.109 16.0893 157.476 16.28C157.85 16.4633 158.143 16.7493 158.356 17.138C158.569 17.5193 158.675 18.0107 158.675 18.612V22H156.959V18.876C156.959 18.3993 156.853 18.0473 156.64 17.82C156.435 17.5927 156.141 17.479 155.76 17.479C155.489 17.479 155.243 17.5377 155.023 17.655C154.81 17.765 154.642 17.9373 154.517 18.172C154.4 18.4067 154.341 18.7073 154.341 19.074V22H152.625V16.082H154.264V17.721L153.956 17.226C154.169 16.83 154.473 16.5257 154.869 16.313C155.265 16.1003 155.716 15.994 156.222 15.994ZM163.467 22V14.3H165.249V22H163.467ZM167.076 22V14.3H168.55L171.828 19.734H171.047L174.27 14.3H175.733L175.755 22H174.083L174.072 16.863H174.38L171.806 21.186H171.003L168.374 16.863H168.748V22H167.076ZM177.582 22V14.3H179.364V20.548H183.225V22H177.582ZM190.031 22.088C189.4 22.088 188.839 21.956 188.348 21.692C187.864 21.428 187.479 21.0687 187.193 20.614C186.914 20.152 186.775 19.6277 186.775 19.041C186.775 18.447 186.914 17.9227 187.193 17.468C187.479 17.006 187.864 16.6467 188.348 16.39C188.839 16.126 189.4 15.994 190.031 15.994C190.654 15.994 191.212 16.126 191.703 16.39C192.194 16.6467 192.579 17.0023 192.858 17.457C193.137 17.9117 193.276 18.4397 193.276 19.041C193.276 19.6277 193.137 20.152 192.858 20.614C192.579 21.0687 192.194 21.428 191.703 21.692C191.212 21.956 190.654 22.088 190.031 22.088ZM190.031 20.68C190.317 20.68 190.574 20.614 190.801 20.482C191.028 20.35 191.208 20.163 191.34 19.921C191.472 19.6717 191.538 19.3783 191.538 19.041C191.538 18.6963 191.472 18.403 191.34 18.161C191.208 17.919 191.028 17.732 190.801 17.6C190.574 17.468 190.317 17.402 190.031 17.402C189.745 17.402 189.488 17.468 189.261 17.6C189.034 17.732 188.85 17.919 188.711 18.161C188.579 18.403 188.513 18.6963 188.513 19.041C188.513 19.3783 188.579 19.6717 188.711 19.921C188.85 20.163 189.034 20.35 189.261 20.482C189.488 20.614 189.745 20.68 190.031 20.68ZM198.02 15.994C198.489 15.994 198.907 16.0893 199.274 16.28C199.648 16.4633 199.941 16.7493 200.154 17.138C200.367 17.5193 200.473 18.0107 200.473 18.612V22H198.757V18.876C198.757 18.3993 198.651 18.0473 198.438 17.82C198.233 17.5927 197.939 17.479 197.558 17.479C197.287 17.479 197.041 17.5377 196.821 17.655C196.608 17.765 196.44 17.9373 196.315 18.172C196.198 18.4067 196.139 18.7073 196.139 19.074V22H194.423V16.082H196.062V17.721L195.754 17.226C195.967 16.83 196.271 16.5257 196.667 16.313C197.063 16.1003 197.514 15.994 198.02 15.994ZM205.144 22V13.838H206.86V22H205.144ZM208.452 22V16.082H210.168V22H208.452ZM209.31 15.257C208.995 15.257 208.738 15.1653 208.54 14.982C208.342 14.7987 208.243 14.5713 208.243 14.3C208.243 14.0287 208.342 13.8013 208.54 13.618C208.738 13.4347 208.995 13.343 209.31 13.343C209.625 13.343 209.882 13.431 210.08 13.607C210.278 13.7757 210.377 13.9957 210.377 14.267C210.377 14.553 210.278 14.7913 210.08 14.982C209.889 15.1653 209.633 15.257 209.31 15.257ZM214.302 22.088C213.744 22.088 213.242 21.9633 212.795 21.714C212.347 21.4573 211.992 21.1017 211.728 20.647C211.471 20.1923 211.343 19.657 211.343 19.041C211.343 18.4177 211.471 17.8787 211.728 17.424C211.992 16.9693 212.347 16.6173 212.795 16.368C213.242 16.1187 213.744 15.994 214.302 15.994C214.8 15.994 215.237 16.104 215.611 16.324C215.985 16.544 216.274 16.8777 216.48 17.325C216.685 17.7723 216.788 18.3443 216.788 19.041C216.788 19.7303 216.689 20.3023 216.491 20.757C216.293 21.2043 216.007 21.538 215.633 21.758C215.266 21.978 214.822 22.088 214.302 22.088ZM214.599 20.68C214.877 20.68 215.13 20.614 215.358 20.482C215.585 20.35 215.765 20.163 215.897 19.921C216.036 19.6717 216.106 19.3783 216.106 19.041C216.106 18.6963 216.036 18.403 215.897 18.161C215.765 17.919 215.585 17.732 215.358 17.6C215.13 17.468 214.877 17.402 214.599 17.402C214.313 17.402 214.056 17.468 213.829 17.6C213.601 17.732 213.418 17.919 213.279 18.161C213.147 18.403 213.081 18.6963 213.081 19.041C213.081 19.3783 213.147 19.6717 213.279 19.921C213.418 20.163 213.601 20.35 213.829 20.482C214.056 20.614 214.313 20.68 214.599 20.68ZM216.15 22V20.79L216.183 19.03L216.073 17.281V13.838H217.789V22H216.15ZM226.122 22V20.845L226.012 20.592V18.524C226.012 18.1573 225.899 17.8713 225.671 17.666C225.451 17.4607 225.11 17.358 224.648 17.358C224.333 17.358 224.021 17.4093 223.713 17.512C223.413 17.6073 223.156 17.7393 222.943 17.908L222.327 16.709C222.65 16.4817 223.039 16.3057 223.493 16.181C223.948 16.0563 224.41 15.994 224.879 15.994C225.781 15.994 226.482 16.2067 226.98 16.632C227.479 17.0573 227.728 17.721 227.728 18.623V22H226.122ZM224.318 22.088C223.856 22.088 223.46 22.011 223.13 21.857C222.8 21.6957 222.547 21.4793 222.371 21.208C222.195 20.9367 222.107 20.6323 222.107 20.295C222.107 19.943 222.192 19.635 222.36 19.371C222.536 19.107 222.811 18.9017 223.185 18.755C223.559 18.601 224.047 18.524 224.648 18.524H226.221V19.525H224.835C224.432 19.525 224.153 19.591 223.999 19.723C223.853 19.855 223.779 20.02 223.779 20.218C223.779 20.438 223.864 20.614 224.032 20.746C224.208 20.8707 224.447 20.933 224.747 20.933C225.033 20.933 225.29 20.867 225.517 20.735C225.745 20.5957 225.91 20.394 226.012 20.13L226.276 20.922C226.152 21.3033 225.924 21.593 225.594 21.791C225.264 21.989 224.839 22.088 224.318 22.088ZM232.878 15.994C233.348 15.994 233.766 16.0893 234.132 16.28C234.506 16.4633 234.8 16.7493 235.012 17.138C235.225 17.5193 235.331 18.0107 235.331 18.612V22H233.615V18.876C233.615 18.3993 233.509 18.0473 233.296 17.82C233.091 17.5927 232.798 17.479 232.416 17.479C232.145 17.479 231.899 17.5377 231.679 17.655C231.467 17.765 231.298 17.9373 231.173 18.172C231.056 18.4067 230.997 18.7073 230.997 19.074V22H229.281V16.082H230.92V17.721L230.612 17.226C230.825 16.83 231.129 16.5257 231.525 16.313C231.921 16.1003 232.372 15.994 232.878 15.994ZM239.471 22.088C238.913 22.088 238.411 21.9633 237.964 21.714C237.516 21.4573 237.161 21.1017 236.897 20.647C236.64 20.1923 236.512 19.657 236.512 19.041C236.512 18.4177 236.64 17.8787 236.897 17.424C237.161 16.9693 237.516 16.6173 237.964 16.368C238.411 16.1187 238.913 15.994 239.471 15.994C239.969 15.994 240.406 16.104 240.78 16.324C241.154 16.544 241.443 16.8777 241.649 17.325C241.854 17.7723 241.957 18.3443 241.957 19.041C241.957 19.7303 241.858 20.3023 241.66 20.757C241.462 21.2043 241.176 21.538 240.802 21.758C240.435 21.978 239.991 22.088 239.471 22.088ZM239.768 20.68C240.046 20.68 240.299 20.614 240.527 20.482C240.754 20.35 240.934 20.163 241.066 19.921C241.205 19.6717 241.275 19.3783 241.275 19.041C241.275 18.6963 241.205 18.403 241.066 18.161C240.934 17.919 240.754 17.732 240.527 17.6C240.299 17.468 240.046 17.402 239.768 17.402C239.482 17.402 239.225 17.468 238.998 17.6C238.77 17.732 238.587 17.919 238.448 18.161C238.316 18.403 238.25 18.6963 238.25 19.041C238.25 19.3783 238.316 19.6717 238.448 19.921C238.587 20.163 238.77 20.35 238.998 20.482C239.225 20.614 239.482 20.68 239.768 20.68ZM241.319 22V20.79L241.352 19.03L241.242 17.281V13.838H242.958V22H241.319ZM251.159 22.088C250.638 22.088 250.191 21.978 249.817 21.758C249.443 21.538 249.157 21.2043 248.959 20.757C248.761 20.3023 248.662 19.7303 248.662 19.041C248.662 18.3443 248.765 17.7723 248.97 17.325C249.183 16.8777 249.476 16.544 249.85 16.324C250.224 16.104 250.66 15.994 251.159 15.994C251.716 15.994 252.215 16.1187 252.655 16.368C253.102 16.6173 253.454 16.9693 253.711 17.424C253.975 17.8787 254.107 18.4177 254.107 19.041C254.107 19.657 253.975 20.1923 253.711 20.647C253.454 21.1017 253.102 21.4573 252.655 21.714C252.215 21.9633 251.716 22.088 251.159 22.088ZM247.661 22V13.838H249.377V17.281L249.267 19.03L249.3 20.79V22H247.661ZM250.862 20.68C251.148 20.68 251.401 20.614 251.621 20.482C251.848 20.35 252.028 20.163 252.16 19.921C252.299 19.6717 252.369 19.3783 252.369 19.041C252.369 18.6963 252.299 18.403 252.16 18.161C252.028 17.919 251.848 17.732 251.621 17.6C251.401 17.468 251.148 17.402 250.862 17.402C250.576 17.402 250.319 17.468 250.092 17.6C249.865 17.732 249.685 17.919 249.553 18.161C249.421 18.403 249.355 18.6963 249.355 19.041C249.355 19.3783 249.421 19.6717 249.553 19.921C249.685 20.163 249.865 20.35 250.092 20.482C250.319 20.614 250.576 20.68 250.862 20.68ZM258.789 22V20.845L258.679 20.592V18.524C258.679 18.1573 258.566 17.8713 258.338 17.666C258.118 17.4607 257.777 17.358 257.315 17.358C257 17.358 256.688 17.4093 256.38 17.512C256.08 17.6073 255.823 17.7393 255.61 17.908L254.994 16.709C255.317 16.4817 255.706 16.3057 256.16 16.181C256.615 16.0563 257.077 15.994 257.546 15.994C258.448 15.994 259.149 16.2067 259.647 16.632C260.146 17.0573 260.395 17.721 260.395 18.623V22H258.789ZM256.985 22.088C256.523 22.088 256.127 22.011 255.797 21.857C255.467 21.6957 255.214 21.4793 255.038 21.208C254.862 20.9367 254.774 20.6323 254.774 20.295C254.774 19.943 254.859 19.635 255.027 19.371C255.203 19.107 255.478 18.9017 255.852 18.755C256.226 18.601 256.714 18.524 257.315 18.524H258.888V19.525H257.502C257.099 19.525 256.82 19.591 256.666 19.723C256.52 19.855 256.446 20.02 256.446 20.218C256.446 20.438 256.531 20.614 256.699 20.746C256.875 20.8707 257.114 20.933 257.414 20.933C257.7 20.933 257.957 20.867 258.184 20.735C258.412 20.5957 258.577 20.394 258.679 20.13L258.943 20.922C258.819 21.3033 258.591 21.593 258.261 21.791C257.931 21.989 257.506 22.088 256.985 22.088ZM263.939 22.088C263.433 22.088 262.946 22.0293 262.476 21.912C262.014 21.7873 261.648 21.6333 261.376 21.45L261.948 20.218C262.22 20.3867 262.539 20.526 262.905 20.636C263.279 20.7387 263.646 20.79 264.005 20.79C264.401 20.79 264.68 20.7423 264.841 20.647C265.01 20.5517 265.094 20.4197 265.094 20.251C265.094 20.1117 265.028 20.009 264.896 19.943C264.772 19.8697 264.603 19.8147 264.39 19.778C264.178 19.7413 263.943 19.7047 263.686 19.668C263.437 19.6313 263.184 19.5837 262.927 19.525C262.671 19.459 262.436 19.3637 262.223 19.239C262.011 19.1143 261.838 18.9457 261.706 18.733C261.582 18.5203 261.519 18.2453 261.519 17.908C261.519 17.534 261.626 17.204 261.838 16.918C262.058 16.632 262.374 16.4083 262.784 16.247C263.195 16.0783 263.686 15.994 264.258 15.994C264.662 15.994 265.072 16.038 265.49 16.126C265.908 16.214 266.257 16.3423 266.535 16.511L265.963 17.732C265.677 17.5633 265.388 17.4497 265.094 17.391C264.808 17.325 264.53 17.292 264.258 17.292C263.877 17.292 263.598 17.3433 263.422 17.446C263.246 17.5487 263.158 17.6807 263.158 17.842C263.158 17.9887 263.221 18.0987 263.345 18.172C263.477 18.2453 263.65 18.304 263.862 18.348C264.075 18.392 264.306 18.4323 264.555 18.469C264.812 18.4983 265.069 18.546 265.325 18.612C265.582 18.678 265.813 18.7733 266.018 18.898C266.231 19.0153 266.403 19.1803 266.535 19.393C266.667 19.5983 266.733 19.8697 266.733 20.207C266.733 20.5737 266.623 20.9 266.403 21.186C266.183 21.4647 265.864 21.6847 265.446 21.846C265.036 22.0073 264.533 22.088 263.939 22.088ZM270.729 22.088C270.054 22.088 269.46 21.956 268.947 21.692C268.441 21.428 268.049 21.0687 267.77 20.614C267.491 20.152 267.352 19.6277 267.352 19.041C267.352 18.447 267.488 17.9227 267.759 17.468C268.038 17.006 268.415 16.6467 268.892 16.39C269.369 16.126 269.908 15.994 270.509 15.994C271.088 15.994 271.609 16.1187 272.071 16.368C272.54 16.61 272.911 16.962 273.182 17.424C273.453 17.8787 273.589 18.425 273.589 19.063C273.589 19.129 273.585 19.206 273.578 19.294C273.571 19.3747 273.563 19.4517 273.556 19.525H268.749V18.524H272.654L271.994 18.821C271.994 18.513 271.932 18.2453 271.807 18.018C271.682 17.7907 271.51 17.6147 271.29 17.49C271.07 17.358 270.813 17.292 270.52 17.292C270.227 17.292 269.966 17.358 269.739 17.49C269.519 17.6147 269.347 17.7943 269.222 18.029C269.097 18.2563 269.035 18.5277 269.035 18.843V19.107C269.035 19.4297 269.105 19.7157 269.244 19.965C269.391 20.207 269.592 20.394 269.849 20.526C270.113 20.6507 270.421 20.713 270.773 20.713C271.088 20.713 271.363 20.6653 271.598 20.57C271.84 20.4747 272.06 20.3317 272.258 20.141L273.171 21.131C272.9 21.439 272.559 21.6773 272.148 21.846C271.737 22.0073 271.264 22.088 270.729 22.088Z" fill="black"/>
</svg>
