<svg width="517" height="34" viewBox="0 0 517 34" fill="none" xmlns="http://www.w3.org/2000/svg">
<path d="M-31 0H495C507.15 0 517 9.84974 517 22V34H-31V0Z" fill="#619577"/>
<path d="M106.64 20.0723V11.5804H103.301V9.99723H111.851V11.5804H108.512V20.0723H106.64ZM117.41 20.0723V18.5178L117.309 18.1868V15.4665C117.309 14.9388 117.151 14.531 116.834 14.2431C116.517 13.9457 116.038 13.797 115.395 13.797C114.963 13.797 114.536 13.8641 114.114 13.9985C113.701 14.1328 113.351 14.3199 113.063 14.5598L112.358 13.25C112.771 12.9334 113.26 12.6983 113.826 12.5448C114.402 12.3817 114.997 12.3001 115.611 12.3001C116.724 12.3001 117.583 12.5688 118.187 13.1061C118.801 13.6338 119.108 14.4542 119.108 15.5673V20.0723H117.41ZM114.992 20.173C114.416 20.173 113.912 20.0771 113.481 19.8852C113.049 19.6837 112.713 19.4102 112.473 19.0648C112.243 18.7097 112.128 18.3115 112.128 17.8702C112.128 17.4384 112.228 17.0498 112.43 16.7043C112.641 16.3589 112.982 16.0854 113.452 15.8839C113.922 15.6824 114.546 15.5817 115.323 15.5817H117.554V16.7763H115.452C114.838 16.7763 114.426 16.877 114.215 17.0785C114.004 17.2704 113.898 17.5103 113.898 17.7982C113.898 18.1244 114.028 18.3835 114.287 18.5754C114.546 18.7673 114.905 18.8633 115.366 18.8633C115.807 18.8633 116.201 18.7625 116.546 18.561C116.901 18.3595 117.156 18.0621 117.309 17.6686L117.611 18.7481C117.439 19.1991 117.127 19.5493 116.676 19.7988C116.234 20.0483 115.673 20.173 114.992 20.173ZM121.417 20.0723V12.3865H123.13V14.4302L122.828 13.8257C123.087 13.3268 123.461 12.9478 123.95 12.6887C124.449 12.4296 125.015 12.3001 125.649 12.3001C126.368 12.3001 126.992 12.4776 127.52 12.8326C128.057 13.1877 128.412 13.725 128.585 14.4446L127.88 14.2C128.129 13.6242 128.542 13.1637 129.117 12.8182C129.693 12.4728 130.36 12.3001 131.118 12.3001C131.732 12.3001 132.274 12.42 132.744 12.6599C133.224 12.8998 133.598 13.2692 133.867 13.7682C134.136 14.2575 134.27 14.8908 134.27 15.668V20.0723H132.471V15.8983C132.471 15.2171 132.322 14.7085 132.025 14.3727C131.727 14.0368 131.3 13.8689 130.744 13.8689C130.35 13.8689 130 13.9553 129.693 14.128C129.396 14.3007 129.161 14.555 128.988 14.8908C128.825 15.2267 128.743 15.6536 128.743 16.1718V20.0723H126.944V15.8983C126.944 15.2171 126.795 14.7085 126.498 14.3727C126.2 14.0368 125.773 13.8689 125.217 13.8689C124.823 13.8689 124.473 13.9553 124.166 14.128C123.869 14.3007 123.634 14.555 123.461 14.8908C123.298 15.2267 123.216 15.6536 123.216 16.1718V20.0723H121.417ZM140.829 20.173C140.206 20.173 139.635 20.0291 139.117 19.7412C138.608 19.4534 138.2 19.0216 137.893 18.4459C137.596 17.8606 137.447 17.1217 137.447 16.2294C137.447 15.3274 137.591 14.5886 137.879 14.0129C138.176 13.4371 138.579 13.0101 139.088 12.7319C139.596 12.444 140.177 12.3001 140.829 12.3001C141.587 12.3001 142.254 12.4632 142.83 12.7895C143.415 13.1157 143.876 13.5715 144.212 14.1568C144.557 14.7421 144.73 15.433 144.73 16.2294C144.73 17.0258 144.557 17.7214 144.212 18.3163C143.876 18.9016 143.415 19.3574 142.83 19.6837C142.254 20.0099 141.587 20.173 140.829 20.173ZM136.569 22.8645V12.3865H138.282V14.2L138.224 16.2438L138.368 18.2875V22.8645H136.569ZM140.628 18.633C141.06 18.633 141.443 18.537 141.779 18.3451C142.125 18.1532 142.398 17.8749 142.6 17.5103C142.801 17.1457 142.902 16.7187 142.902 16.2294C142.902 15.7304 142.801 15.3034 142.6 14.9484C142.398 14.5838 142.125 14.3055 141.779 14.1136C141.443 13.9217 141.06 13.8257 140.628 13.8257C140.196 13.8257 139.807 13.9217 139.462 14.1136C139.117 14.3055 138.843 14.5838 138.642 14.9484C138.44 15.3034 138.339 15.7304 138.339 16.2294C138.339 16.7187 138.44 17.1457 138.642 17.5103C138.843 17.8749 139.117 18.1532 139.462 18.3451C139.807 18.537 140.196 18.633 140.628 18.633ZM150.049 20.173C149.195 20.173 148.446 20.0051 147.803 19.6693C147.17 19.3238 146.676 18.8537 146.321 18.2588C145.975 17.6639 145.803 16.9874 145.803 16.2294C145.803 15.4617 145.971 14.7853 146.307 14.2C146.652 13.6051 147.122 13.1397 147.717 12.8038C148.322 12.468 149.008 12.3001 149.775 12.3001C150.524 12.3001 151.191 12.4632 151.776 12.7895C152.361 13.1157 152.822 13.5763 153.158 14.1712C153.493 14.7661 153.661 15.4665 153.661 16.2725C153.661 16.3493 153.657 16.4357 153.647 16.5316C153.647 16.6276 153.642 16.7187 153.633 16.8051H147.228V15.6105H152.683L151.977 15.9847C151.987 15.5433 151.896 15.1547 151.704 14.8189C151.512 14.483 151.248 14.2191 150.912 14.0272C150.586 13.8353 150.207 13.7394 149.775 13.7394C149.334 13.7394 148.945 13.8353 148.609 14.0272C148.283 14.2191 148.024 14.4878 147.832 14.8332C147.65 15.1691 147.559 15.5673 147.559 16.0279V16.3157C147.559 16.7763 147.664 17.1841 147.875 17.5391C148.086 17.8941 148.384 18.1676 148.768 18.3595C149.152 18.5514 149.593 18.6474 150.092 18.6474C150.524 18.6474 150.912 18.5802 151.258 18.4459C151.603 18.3115 151.91 18.1004 152.179 17.8126L153.143 18.9208C152.798 19.3238 152.361 19.6357 151.833 19.8564C151.315 20.0675 150.72 20.173 150.049 20.173ZM155.389 20.0723V12.3865H157.102V14.5022L156.901 13.8833C157.131 13.3652 157.491 12.9718 157.98 12.7031C158.479 12.4344 159.098 12.3001 159.837 12.3001V14.0129C159.76 13.9937 159.688 13.9841 159.621 13.9841C159.554 13.9745 159.487 13.9697 159.419 13.9697C158.738 13.9697 158.196 14.1712 157.793 14.5742C157.39 14.9676 157.189 15.5577 157.189 16.3445V20.0723H155.389ZM165.584 20.0723V9.99723H167.455V18.489H172.723V20.0723H165.584ZM177.411 20.173C176.624 20.173 175.924 20.0051 175.31 19.6693C174.696 19.3238 174.211 18.8537 173.856 18.2588C173.501 17.6639 173.324 16.9874 173.324 16.2294C173.324 15.4617 173.501 14.7853 173.856 14.2C174.211 13.6051 174.696 13.1397 175.31 12.8038C175.924 12.468 176.624 12.3001 177.411 12.3001C178.208 12.3001 178.913 12.468 179.527 12.8038C180.151 13.1397 180.635 13.6003 180.981 14.1856C181.336 14.7709 181.513 15.4521 181.513 16.2294C181.513 16.9874 181.336 17.6639 180.981 18.2588C180.635 18.8537 180.151 19.3238 179.527 19.6693C178.913 20.0051 178.208 20.173 177.411 20.173ZM177.411 18.633C177.853 18.633 178.246 18.537 178.591 18.3451C178.937 18.1532 179.205 17.8749 179.397 17.5103C179.599 17.1457 179.7 16.7187 179.7 16.2294C179.7 15.7304 179.599 15.3034 179.397 14.9484C179.205 14.5838 178.937 14.3055 178.591 14.1136C178.246 13.9217 177.857 13.8257 177.426 13.8257C176.984 13.8257 176.591 13.9217 176.245 14.1136C175.91 14.3055 175.641 14.5838 175.439 14.9484C175.238 15.3034 175.137 15.7304 175.137 16.2294C175.137 16.7187 175.238 17.1457 175.439 17.5103C175.641 17.8749 175.91 18.1532 176.245 18.3451C176.591 18.537 176.979 18.633 177.411 18.633ZM186.76 20.173C185.954 20.173 185.234 20.0051 184.601 19.6693C183.977 19.3238 183.488 18.8537 183.133 18.2588C182.778 17.6639 182.6 16.9874 182.6 16.2294C182.6 15.4617 182.778 14.7853 183.133 14.2C183.488 13.6051 183.977 13.1397 184.601 12.8038C185.234 12.468 185.954 12.3001 186.76 12.3001C187.508 12.3001 188.166 12.4536 188.732 12.7607C189.307 13.0581 189.744 13.4995 190.041 14.0848L188.66 14.8908C188.429 14.5262 188.146 14.2575 187.811 14.0848C187.484 13.9121 187.129 13.8257 186.745 13.8257C186.304 13.8257 185.906 13.9217 185.551 14.1136C185.196 14.3055 184.918 14.5838 184.716 14.9484C184.515 15.3034 184.414 15.7304 184.414 16.2294C184.414 16.7283 184.515 17.1601 184.716 17.5247C184.918 17.8797 185.196 18.1532 185.551 18.3451C185.906 18.537 186.304 18.633 186.745 18.633C187.129 18.633 187.484 18.5466 187.811 18.3739C188.146 18.2012 188.429 17.9325 188.66 17.5679L190.041 18.3739C189.744 18.9496 189.307 19.3958 188.732 19.7124C188.166 20.0195 187.508 20.173 186.76 20.173ZM192.994 18.3595L193.038 16.0998L197.053 12.3865H199.212L195.801 15.812L194.851 16.6036L192.994 18.3595ZM191.526 20.0723V9.39273H193.325V20.0723H191.526ZM197.327 20.0723L194.52 16.6036L195.657 15.1643L199.514 20.0723H197.327ZM200.662 20.0723V12.3865H202.462V20.0723H200.662ZM201.569 11.1199C201.233 11.1199 200.955 11.0143 200.734 10.8032C200.523 10.5921 200.418 10.3379 200.418 10.0404C200.418 9.73336 200.523 9.47908 200.734 9.27758C200.955 9.06649 201.233 8.96094 201.569 8.96094C201.905 8.96094 202.179 9.06169 202.39 9.26319C202.61 9.4551 202.721 9.69977 202.721 9.99723C202.721 10.3139 202.615 10.5825 202.404 10.8032C202.193 11.0143 201.915 11.1199 201.569 11.1199ZM204.823 20.0723V12.3865H206.536V14.459L206.233 13.8257C206.502 13.3364 206.891 12.9622 207.399 12.7031C207.917 12.4344 208.512 12.3001 209.184 12.3001C209.798 12.3001 210.345 12.42 210.825 12.6599C211.314 12.8998 211.698 13.2692 211.976 13.7682C212.254 14.2575 212.394 14.8908 212.394 15.668V20.0723H210.594V15.8983C210.594 15.2171 210.431 14.7085 210.105 14.3727C209.788 14.0368 209.342 13.8689 208.767 13.8689C208.344 13.8689 207.97 13.9553 207.644 14.128C207.318 14.3007 207.063 14.5598 206.881 14.9052C206.708 15.241 206.622 15.668 206.622 16.1862V20.0723H204.823ZM218.173 22.9652C217.463 22.9652 216.767 22.8693 216.086 22.6774C215.414 22.4951 214.863 22.2264 214.431 21.8714L215.237 20.5184C215.573 20.7967 215.995 21.0174 216.503 21.1805C217.022 21.3532 217.545 21.4396 218.072 21.4396C218.917 21.4396 219.536 21.2429 219.929 20.8495C220.322 20.4657 220.519 19.8852 220.519 19.1079V17.7406L220.663 15.9991L220.605 14.2575V12.3865H222.318V18.9064C222.318 20.2978 221.963 21.3197 221.253 21.9721C220.543 22.6342 219.516 22.9652 218.173 22.9652ZM217.943 19.7268C217.213 19.7268 216.551 19.5733 215.957 19.2663C215.371 18.9496 214.906 18.513 214.56 17.9565C214.225 17.4 214.057 16.7475 214.057 15.9991C214.057 15.2602 214.225 14.6126 214.56 14.056C214.906 13.4995 215.371 13.0677 215.957 12.7607C216.551 12.4536 217.213 12.3001 217.943 12.3001C218.595 12.3001 219.181 12.4296 219.699 12.6887C220.217 12.9478 220.629 13.3508 220.936 13.8977C221.253 14.4446 221.411 15.1451 221.411 15.9991C221.411 16.8531 221.253 17.5583 220.936 18.1148C220.629 18.6618 220.217 19.0696 219.699 19.3382C219.181 19.5973 218.595 19.7268 217.943 19.7268ZM218.216 18.2012C218.667 18.2012 219.07 18.11 219.425 17.9277C219.78 17.7358 220.054 17.4767 220.246 17.1505C220.447 16.8147 220.548 16.4309 220.548 15.9991C220.548 15.5673 220.447 15.1883 220.246 14.862C220.054 14.5262 219.78 14.2719 219.425 14.0992C219.07 13.9169 218.667 13.8257 218.216 13.8257C217.765 13.8257 217.357 13.9169 216.993 14.0992C216.638 14.2719 216.36 14.5262 216.158 14.862C215.966 15.1883 215.87 15.5673 215.87 15.9991C215.87 16.4309 215.966 16.8147 216.158 17.1505C216.36 17.4767 216.638 17.7358 216.993 17.9277C217.357 18.11 217.765 18.2012 218.216 18.2012ZM231.209 20.0723L227.87 9.99723H229.813L232.792 19.1079H231.828L234.922 9.99723H236.649L239.657 19.1079H238.722L241.773 9.99723H243.558L240.219 20.0723H238.232L235.483 11.8539H236.002L233.209 20.0723H231.209ZM244.98 20.0723V12.3865H246.779V20.0723H244.98ZM245.886 11.1199C245.551 11.1199 245.272 11.0143 245.052 10.8032C244.841 10.5921 244.735 10.3379 244.735 10.0404C244.735 9.73336 244.841 9.47908 245.052 9.27758C245.272 9.06649 245.551 8.96094 245.886 8.96094C246.222 8.96094 246.496 9.06169 246.707 9.26319C246.928 9.4551 247.038 9.69977 247.038 9.99723C247.038 10.3139 246.932 10.5825 246.721 10.8032C246.51 11.0143 246.232 11.1199 245.886 11.1199ZM252.033 20.173C251.189 20.173 250.536 19.9571 250.076 19.5253C249.615 19.084 249.385 18.4363 249.385 17.5823V10.6881H251.184V17.5391C251.184 17.9037 251.275 18.1868 251.457 18.3883C251.649 18.5898 251.913 18.6905 252.249 18.6905C252.652 18.6905 252.988 18.585 253.257 18.3739L253.76 19.6549C253.549 19.8276 253.29 19.9571 252.983 20.0435C252.676 20.1298 252.359 20.173 252.033 20.173ZM248.118 13.8257V12.3865H253.242V13.8257H248.118ZM255.24 20.0723V9.39273H257.039V14.459L256.651 13.8257C256.919 13.3364 257.308 12.9622 257.817 12.7031C258.335 12.4344 258.93 12.3001 259.601 12.3001C260.215 12.3001 260.762 12.42 261.242 12.6599C261.731 12.8998 262.115 13.2692 262.394 13.7682C262.672 14.2575 262.811 14.8908 262.811 15.668V20.0723H261.012V15.8983C261.012 15.2171 260.849 14.7085 260.522 14.3727C260.206 14.0368 259.76 13.8689 259.184 13.8689C258.762 13.8689 258.388 13.9553 258.061 14.128C257.735 14.3007 257.481 14.5598 257.298 14.9052C257.126 15.241 257.039 15.668 257.039 16.1862V20.0723H255.24ZM269.244 20.0723V9.99723H271.115V20.0723H269.244ZM273.84 20.0723V9.99723H275.38L279.784 17.352H278.978L283.31 9.99723H284.85L284.865 20.0723H283.094L283.08 12.7751H283.454L279.77 18.9208H278.935L275.193 12.7751H275.625V20.0723H273.84ZM287.586 20.0723V9.99723H289.457V18.489H294.725V20.0723H287.586ZM303.303 20.2162C302.516 20.2162 301.763 20.1058 301.044 19.8852C300.324 19.6549 299.753 19.3622 299.331 19.0072L299.979 17.5535C300.382 17.8702 300.88 18.134 301.475 18.3451C302.07 18.5562 302.68 18.6618 303.303 18.6618C303.831 18.6618 304.258 18.6042 304.584 18.489C304.91 18.3739 305.15 18.2204 305.304 18.0285C305.457 17.827 305.534 17.6015 305.534 17.352C305.534 17.045 305.424 16.8003 305.203 16.618C304.982 16.4261 304.695 16.2773 304.34 16.1718C303.994 16.0566 303.606 15.9511 303.174 15.8551C302.752 15.7592 302.325 15.6488 301.893 15.5241C301.471 15.3898 301.082 15.2219 300.727 15.0204C300.382 14.8093 300.098 14.531 299.878 14.1856C299.657 13.8401 299.547 13.3988 299.547 12.8614C299.547 12.3145 299.691 11.8155 299.979 11.3646C300.276 10.904 300.722 10.5394 301.317 10.2707C301.922 9.99243 302.684 9.8533 303.606 9.8533C304.21 9.8533 304.81 9.93006 305.405 10.0836C306 10.2371 306.518 10.4578 306.959 10.7457L306.369 12.1993C305.918 11.9307 305.453 11.734 304.973 11.6092C304.493 11.4749 304.033 11.4077 303.591 11.4077C303.073 11.4077 302.651 11.4701 302.325 11.5948C302.008 11.7196 301.773 11.8827 301.619 12.0842C301.475 12.2857 301.403 12.516 301.403 12.7751C301.403 13.0821 301.509 13.3316 301.72 13.5235C301.941 13.7058 302.224 13.8497 302.569 13.9553C302.924 14.0608 303.318 14.1664 303.749 14.2719C304.181 14.3679 304.608 14.4782 305.03 14.603C305.462 14.7277 305.851 14.8908 306.196 15.0923C306.551 15.2938 306.834 15.5673 307.045 15.9127C307.266 16.2581 307.376 16.6947 307.376 17.2225C307.376 17.7598 307.228 18.2588 306.93 18.7193C306.642 19.1703 306.196 19.5349 305.592 19.8132C304.987 20.0819 304.224 20.2162 303.303 20.2162ZM310.617 20.0723L307.796 12.3865H309.494L311.912 19.1655H311.106L313.639 12.3865H315.151L317.612 19.1655H316.82L319.31 12.3865H320.908L318.072 20.0723H316.345L314.1 14.0704H314.633L312.344 20.0723H310.617ZM325.547 20.173C324.693 20.173 323.944 20.0051 323.301 19.6693C322.668 19.3238 322.174 18.8537 321.819 18.2588C321.473 17.6639 321.301 16.9874 321.301 16.2294C321.301 15.4617 321.469 14.7853 321.804 14.2C322.15 13.6051 322.62 13.1397 323.215 12.8038C323.819 12.468 324.506 12.3001 325.273 12.3001C326.022 12.3001 326.688 12.4632 327.274 12.7895C327.859 13.1157 328.32 13.5763 328.655 14.1712C328.991 14.7661 329.159 15.4665 329.159 16.2725C329.159 16.3493 329.154 16.4357 329.145 16.5316C329.145 16.6276 329.14 16.7187 329.13 16.8051H322.726V15.6105H328.181L327.475 15.9847C327.485 15.5433 327.394 15.1547 327.202 14.8189C327.01 14.483 326.746 14.2191 326.41 14.0272C326.084 13.8353 325.705 13.7394 325.273 13.7394C324.832 13.7394 324.443 13.8353 324.107 14.0272C323.781 14.2191 323.522 14.4878 323.33 14.8332C323.148 15.1691 323.057 15.5673 323.057 16.0279V16.3157C323.057 16.7763 323.162 17.1841 323.373 17.5391C323.584 17.8941 323.882 18.1676 324.266 18.3595C324.649 18.5514 325.091 18.6474 325.59 18.6474C326.022 18.6474 326.41 18.5802 326.756 18.4459C327.101 18.3115 327.408 18.1004 327.677 17.8126L328.641 18.9208C328.296 19.3238 327.859 19.6357 327.331 19.8564C326.813 20.0675 326.218 20.173 325.547 20.173ZM334.5 20.173C333.646 20.173 332.898 20.0051 332.255 19.6693C331.621 19.3238 331.127 18.8537 330.772 18.2588C330.427 17.6639 330.254 16.9874 330.254 16.2294C330.254 15.4617 330.422 14.7853 330.758 14.2C331.103 13.6051 331.573 13.1397 332.168 12.8038C332.773 12.468 333.459 12.3001 334.227 12.3001C334.975 12.3001 335.642 12.4632 336.227 12.7895C336.812 13.1157 337.273 13.5763 337.609 14.1712C337.945 14.7661 338.113 15.4665 338.113 16.2725C338.113 16.3493 338.108 16.4357 338.098 16.5316C338.098 16.6276 338.093 16.7187 338.084 16.8051H331.679V15.6105H337.134L336.429 15.9847C336.438 15.5433 336.347 15.1547 336.155 14.8189C335.963 14.483 335.699 14.2191 335.364 14.0272C335.037 13.8353 334.658 13.7394 334.227 13.7394C333.785 13.7394 333.397 13.8353 333.061 14.0272C332.734 14.2191 332.475 14.4878 332.283 14.8332C332.101 15.1691 332.01 15.5673 332.01 16.0279V16.3157C332.01 16.7763 332.116 17.1841 332.327 17.5391C332.538 17.8941 332.835 18.1676 333.219 18.3595C333.603 18.5514 334.044 18.6474 334.543 18.6474C334.975 18.6474 335.364 18.5802 335.709 18.4459C336.054 18.3115 336.361 18.1004 336.63 17.8126L337.594 18.9208C337.249 19.3238 336.812 19.6357 336.285 19.8564C335.767 20.0675 335.172 20.173 334.5 20.173ZM342.734 20.173C341.889 20.173 341.237 19.9571 340.776 19.5253C340.316 19.084 340.085 18.4363 340.085 17.5823V10.6881H341.885V17.5391C341.885 17.9037 341.976 18.1868 342.158 18.3883C342.35 18.5898 342.614 18.6905 342.95 18.6905C343.353 18.6905 343.689 18.585 343.957 18.3739L344.461 19.6549C344.25 19.8276 343.991 19.9571 343.684 20.0435C343.377 20.1298 343.06 20.173 342.734 20.173ZM338.819 13.8257V12.3865H343.943V13.8257H338.819ZM350.091 20.0723V9.99723H354.812C356.021 9.99723 356.942 10.2371 357.576 10.7169C358.209 11.187 358.526 11.8203 358.526 12.6167C358.526 13.1541 358.401 13.6146 358.151 13.9985C357.902 14.3727 357.566 14.6653 357.144 14.8764C356.731 15.0779 356.28 15.1787 355.791 15.1787L356.05 14.6605C356.616 14.6605 357.125 14.7661 357.576 14.9772C358.027 15.1787 358.382 15.4761 358.641 15.8695C358.909 16.2629 359.044 16.7523 359.044 17.3376C359.044 18.2012 358.713 18.8729 358.051 19.3526C357.389 19.8324 356.405 20.0723 355.1 20.0723H350.091ZM351.962 18.6042H354.985C355.685 18.6042 356.223 18.489 356.597 18.2588C356.971 18.0285 357.158 17.6591 357.158 17.1505C357.158 16.6516 356.971 16.2869 356.597 16.0566C356.223 15.8168 355.685 15.6968 354.985 15.6968H351.818V14.2431H354.611C355.263 14.2431 355.762 14.128 356.108 13.8977C356.463 13.6674 356.64 13.322 356.64 12.8614C356.64 12.3912 356.463 12.041 356.108 11.8107C355.762 11.5804 355.263 11.4653 354.611 11.4653H351.962V18.6042ZM364.322 20.173C363.535 20.173 362.835 20.0051 362.221 19.6693C361.607 19.3238 361.122 18.8537 360.767 18.2588C360.412 17.6639 360.235 16.9874 360.235 16.2294C360.235 15.4617 360.412 14.7853 360.767 14.2C361.122 13.6051 361.607 13.1397 362.221 12.8038C362.835 12.468 363.535 12.3001 364.322 12.3001C365.119 12.3001 365.824 12.468 366.438 12.8038C367.062 13.1397 367.546 13.6003 367.892 14.1856C368.247 14.7709 368.424 15.4521 368.424 16.2294C368.424 16.9874 368.247 17.6639 367.892 18.2588C367.546 18.8537 367.062 19.3238 366.438 19.6693C365.824 20.0051 365.119 20.173 364.322 20.173ZM364.322 18.633C364.764 18.633 365.157 18.537 365.502 18.3451C365.848 18.1532 366.117 17.8749 366.308 17.5103C366.51 17.1457 366.611 16.7187 366.611 16.2294C366.611 15.7304 366.51 15.3034 366.308 14.9484C366.117 14.5838 365.848 14.3055 365.502 14.1136C365.157 13.9217 364.768 13.8257 364.337 13.8257C363.895 13.8257 363.502 13.9217 363.156 14.1136C362.821 14.3055 362.552 14.5838 362.35 14.9484C362.149 15.3034 362.048 15.7304 362.048 16.2294C362.048 16.7187 362.149 17.1457 362.35 17.5103C362.552 17.8749 362.821 18.1532 363.156 18.3451C363.502 18.537 363.89 18.633 364.322 18.633ZM368.883 20.0723L372.265 15.668L372.237 16.6324L369.013 12.3865H371.013L373.273 15.409H372.51L374.784 12.3865H376.727L373.474 16.6324L373.489 15.668L376.857 20.0723H374.827L372.453 16.8626L373.201 16.9634L370.869 20.0723H368.883ZM381.774 16.8195V15.3226H385.732V16.8195H381.774ZM395.492 20.2162C394.58 20.2162 393.798 20.0243 393.146 19.6405C392.493 19.2471 391.994 18.681 391.649 17.9421C391.304 17.2033 391.131 16.2917 391.131 15.2075C391.131 14.056 391.337 13.0821 391.75 12.2857C392.172 11.4893 392.752 10.8848 393.491 10.4722C394.24 10.0596 395.098 9.8533 396.068 9.8533C396.576 9.8533 397.061 9.90607 397.521 10.0116C397.991 10.1172 398.39 10.2803 398.716 10.501L398.025 11.9115C397.747 11.7292 397.445 11.6044 397.118 11.5373C396.802 11.4605 396.466 11.4221 396.111 11.4221C395.161 11.4221 394.408 11.7148 393.851 12.3001C393.295 12.8854 393.016 13.749 393.016 14.8908C393.016 15.0731 393.021 15.289 393.031 15.5385C393.04 15.7784 393.074 16.0231 393.131 16.2725L392.556 15.6392C392.728 15.2458 392.964 14.9196 393.261 14.6605C393.568 14.3919 393.928 14.1904 394.34 14.056C394.763 13.9217 395.218 13.8545 395.708 13.8545C396.37 13.8545 396.96 13.9841 397.478 14.2431C397.996 14.4926 398.409 14.8524 398.716 15.3226C399.023 15.7832 399.176 16.3253 399.176 16.949C399.176 17.6111 399.013 18.1868 398.687 18.6762C398.361 19.1655 397.92 19.5445 397.363 19.8132C396.806 20.0819 396.183 20.2162 395.492 20.2162ZM395.391 18.7481C395.775 18.7481 396.116 18.681 396.413 18.5466C396.71 18.4027 396.941 18.2012 397.104 17.9421C397.277 17.683 397.363 17.3808 397.363 17.0354C397.363 16.5076 397.181 16.0902 396.816 15.7832C396.451 15.4761 395.962 15.3226 395.348 15.3226C394.945 15.3226 394.59 15.3994 394.283 15.5529C393.985 15.6968 393.746 15.8983 393.563 16.1574C393.391 16.4165 393.304 16.7139 393.304 17.0498C393.304 17.3568 393.386 17.6399 393.549 17.8989C393.712 18.158 393.947 18.3643 394.254 18.5178C394.571 18.6714 394.95 18.7481 395.391 18.7481ZM404.852 20.0723V9.99723H408.997C409.889 9.99723 410.652 10.1412 411.286 10.429C411.928 10.7169 412.423 11.1295 412.768 11.6668C413.113 12.2041 413.286 12.8422 413.286 13.5811C413.286 14.3199 413.113 14.958 412.768 15.4953C412.423 16.0327 411.928 16.4453 411.286 16.7331C410.652 17.021 409.889 17.1649 408.997 17.1649H405.888L406.723 16.2869V20.0723H404.852ZM406.723 16.4884L405.888 15.5817H408.911C409.736 15.5817 410.355 15.409 410.767 15.0635C411.19 14.7085 411.401 14.2144 411.401 13.5811C411.401 12.9382 411.19 12.444 410.767 12.0986C410.355 11.7532 409.736 11.5804 408.911 11.5804H405.888L406.723 10.6593V16.4884ZM414.912 20.0723V12.3865H416.624V14.5022L416.423 13.8833C416.653 13.3652 417.013 12.9718 417.502 12.7031C418.001 12.4344 418.62 12.3001 419.359 12.3001V14.0129C419.282 13.9937 419.21 13.9841 419.143 13.9841C419.076 13.9745 419.009 13.9697 418.942 13.9697C418.26 13.9697 417.718 14.1712 417.315 14.5742C416.912 14.9676 416.711 15.5577 416.711 16.3445V20.0723H414.912ZM424.269 20.173C423.482 20.173 422.782 20.0051 422.168 19.6693C421.554 19.3238 421.069 18.8537 420.714 18.2588C420.359 17.6639 420.182 16.9874 420.182 16.2294C420.182 15.4617 420.359 14.7853 420.714 14.2C421.069 13.6051 421.554 13.1397 422.168 12.8038C422.782 12.468 423.482 12.3001 424.269 12.3001C425.066 12.3001 425.771 12.468 426.385 12.8038C427.009 13.1397 427.493 13.6003 427.839 14.1856C428.194 14.7709 428.371 15.4521 428.371 16.2294C428.371 16.9874 428.194 17.6639 427.839 18.2588C427.493 18.8537 427.009 19.3238 426.385 19.6693C425.771 20.0051 425.066 20.173 424.269 20.173ZM424.269 18.633C424.711 18.633 425.104 18.537 425.45 18.3451C425.795 18.1532 426.064 17.8749 426.256 17.5103C426.457 17.1457 426.558 16.7187 426.558 16.2294C426.558 15.7304 426.457 15.3034 426.256 14.9484C426.064 14.5838 425.795 14.3055 425.45 14.1136C425.104 13.9217 424.715 13.8257 424.284 13.8257C423.842 13.8257 423.449 13.9217 423.103 14.1136C422.768 14.3055 422.499 14.5838 422.297 14.9484C422.096 15.3034 421.995 15.7304 421.995 16.2294C421.995 16.7187 422.096 17.1457 422.297 17.5103C422.499 17.8749 422.768 18.1532 423.103 18.3451C423.449 18.537 423.837 18.633 424.269 18.633ZM433.344 20.173C432.606 20.173 431.939 20.0099 431.344 19.6837C430.759 19.3478 430.298 18.8872 429.962 18.3019C429.626 17.7166 429.458 17.0258 429.458 16.2294C429.458 15.433 429.626 14.7421 429.962 14.1568C430.298 13.5715 430.759 13.1157 431.344 12.7895C431.939 12.4632 432.606 12.3001 433.344 12.3001C433.987 12.3001 434.563 12.444 435.072 12.7319C435.58 13.0101 435.983 13.4371 436.281 14.0129C436.578 14.5886 436.727 15.3274 436.727 16.2294C436.727 17.1217 436.583 17.8606 436.295 18.4459C436.007 19.0216 435.609 19.4534 435.1 19.7412C434.592 20.0291 434.007 20.173 433.344 20.173ZM433.56 18.633C433.992 18.633 434.376 18.537 434.712 18.3451C435.057 18.1532 435.331 17.8749 435.532 17.5103C435.743 17.1457 435.849 16.7187 435.849 16.2294C435.849 15.7304 435.743 15.3034 435.532 14.9484C435.331 14.5838 435.057 14.3055 434.712 14.1136C434.376 13.9217 433.992 13.8257 433.56 13.8257C433.129 13.8257 432.74 13.9217 432.395 14.1136C432.059 14.3055 431.785 14.5838 431.574 14.9484C431.373 15.3034 431.272 15.7304 431.272 16.2294C431.272 16.7187 431.373 17.1457 431.574 17.5103C431.785 17.8749 432.059 18.1532 432.395 18.3451C432.74 18.537 433.129 18.633 433.56 18.633ZM435.892 20.0723V18.2588L435.964 16.215L435.82 14.1712V9.39273H437.605V20.0723H435.892ZM443.225 20.173C442.573 20.173 441.997 20.0531 441.498 19.8132C440.999 19.5637 440.611 19.1895 440.333 18.6905C440.054 18.182 439.915 17.5439 439.915 16.7763V12.3865H441.714V16.5316C441.714 17.2225 441.868 17.7406 442.175 18.086C442.491 18.4219 442.938 18.5898 443.513 18.5898C443.936 18.5898 444.3 18.5034 444.607 18.3307C444.924 18.158 445.169 17.8989 445.341 17.5535C445.524 17.2081 445.615 16.7811 445.615 16.2725V12.3865H447.414V20.0723H445.701V17.9997L446.003 18.633C445.744 19.1319 445.365 19.5157 444.866 19.7844C444.367 20.0435 443.82 20.173 443.225 20.173ZM453.296 20.173C452.49 20.173 451.77 20.0051 451.137 19.6693C450.513 19.3238 450.024 18.8537 449.669 18.2588C449.314 17.6639 449.136 16.9874 449.136 16.2294C449.136 15.4617 449.314 14.7853 449.669 14.2C450.024 13.6051 450.513 13.1397 451.137 12.8038C451.77 12.468 452.49 12.3001 453.296 12.3001C454.044 12.3001 454.701 12.4536 455.268 12.7607C455.843 13.0581 456.28 13.4995 456.577 14.0848L455.196 14.8908C454.965 14.5262 454.682 14.2575 454.346 14.0848C454.02 13.9121 453.665 13.8257 453.281 13.8257C452.84 13.8257 452.442 13.9217 452.087 14.1136C451.732 14.3055 451.453 14.5838 451.252 14.9484C451.05 15.3034 450.95 15.7304 450.95 16.2294C450.95 16.7283 451.05 17.1601 451.252 17.5247C451.453 17.8797 451.732 18.1532 452.087 18.3451C452.442 18.537 452.84 18.633 453.281 18.633C453.665 18.633 454.02 18.5466 454.346 18.3739C454.682 18.2012 454.965 17.9325 455.196 17.5679L456.577 18.3739C456.28 18.9496 455.843 19.3958 455.268 19.7124C454.701 20.0195 454.044 20.173 453.296 20.173ZM461.124 20.173C460.279 20.173 459.627 19.9571 459.166 19.5253C458.706 19.084 458.476 18.4363 458.476 17.5823V10.6881H460.275V17.5391C460.275 17.9037 460.366 18.1868 460.548 18.3883C460.74 18.5898 461.004 18.6905 461.34 18.6905C461.743 18.6905 462.079 18.585 462.347 18.3739L462.851 19.6549C462.64 19.8276 462.381 19.9571 462.074 20.0435C461.767 20.1298 461.45 20.173 461.124 20.173ZM457.209 13.8257V12.3865H462.333V13.8257H457.209ZM466.706 20.173C466.063 20.173 465.444 20.0915 464.849 19.9283C464.264 19.7556 463.798 19.5493 463.453 19.3094L464.144 17.9421C464.489 18.1628 464.902 18.3451 465.382 18.489C465.861 18.633 466.341 18.7049 466.821 18.7049C467.387 18.7049 467.795 18.6282 468.044 18.4747C468.303 18.3211 468.433 18.1148 468.433 17.8558C468.433 17.6447 468.347 17.4863 468.174 17.3808C468.001 17.2656 467.776 17.1793 467.497 17.1217C467.219 17.0641 466.907 17.0114 466.562 16.9634C466.226 16.9154 465.885 16.8531 465.54 16.7763C465.204 16.6899 464.897 16.57 464.619 16.4165C464.341 16.2533 464.115 16.0375 463.942 15.7688C463.77 15.5001 463.683 15.1451 463.683 14.7037C463.683 14.2144 463.822 13.7922 464.101 13.4371C464.379 13.0725 464.768 12.7943 465.267 12.6023C465.775 12.4008 466.375 12.3001 467.066 12.3001C467.584 12.3001 468.107 12.3577 468.635 12.4728C469.162 12.588 469.599 12.7511 469.944 12.9622L469.253 14.3295C468.889 14.1088 468.519 13.9601 468.145 13.8833C467.781 13.797 467.416 13.7538 467.051 13.7538C466.504 13.7538 466.097 13.8353 465.828 13.9985C465.569 14.1616 465.439 14.3679 465.439 14.6174C465.439 14.8476 465.526 15.0204 465.698 15.1355C465.871 15.2506 466.097 15.3418 466.375 15.409C466.653 15.4761 466.96 15.5337 467.296 15.5817C467.641 15.6201 467.982 15.6824 468.318 15.7688C468.654 15.8551 468.961 15.9751 469.239 16.1286C469.527 16.2725 469.757 16.4788 469.93 16.7475C470.103 17.0162 470.189 17.3664 470.189 17.7982C470.189 18.2779 470.045 18.6953 469.757 19.0504C469.479 19.4054 469.081 19.6837 468.563 19.8852C468.044 20.0771 467.426 20.173 466.706 20.173Z" fill="white"/>
</svg>
