<svg width="336" height="70" viewBox="0 0 336 70" fill="none" xmlns="http://www.w3.org/2000/svg">
<rect width="336" height="70" fill="white"/>
<path d="M9.63212 56.5V36.9H14.1681V56.5H9.63212ZM18.8196 56.5V36.9H22.5716L30.9156 50.732H28.9276L37.1316 36.9H40.8556L40.9116 56.5H36.6556L36.6276 43.424H37.4116L30.8596 54.428H28.8156L22.1236 43.424H23.0756V56.5H18.8196ZM45.5618 56.5V36.9H50.0978V52.804H59.9258V56.5H45.5618ZM70.3899 56.5V36.9H74.9259V56.5H70.3899ZM88.9574 56.836C87.4454 56.836 86.0361 56.5933 84.7294 56.108C83.4414 55.604 82.3214 54.8947 81.3694 53.98C80.4174 53.0653 79.6708 51.992 79.1294 50.76C78.6068 49.528 78.3454 48.1747 78.3454 46.7C78.3454 45.2253 78.6068 43.872 79.1294 42.64C79.6708 41.408 80.4174 40.3347 81.3694 39.42C82.3401 38.5053 83.4694 37.8053 84.7574 37.32C86.0454 36.816 87.4548 36.564 88.9854 36.564C90.6841 36.564 92.2148 36.8627 93.5774 37.46C94.9588 38.0387 96.1161 38.8973 97.0494 40.036L94.1374 42.724C93.4654 41.9587 92.7188 41.3893 91.8974 41.016C91.0761 40.624 90.1801 40.428 89.2094 40.428C88.2948 40.428 87.4548 40.5773 86.6894 40.876C85.9241 41.1747 85.2614 41.604 84.7014 42.164C84.1414 42.724 83.7028 43.3867 83.3854 44.152C83.0868 44.9173 82.9374 45.7667 82.9374 46.7C82.9374 47.6333 83.0868 48.4827 83.3854 49.248C83.7028 50.0133 84.1414 50.676 84.7014 51.236C85.2614 51.796 85.9241 52.2253 86.6894 52.524C87.4548 52.8227 88.2948 52.972 89.2094 52.972C90.1801 52.972 91.0761 52.7853 91.8974 52.412C92.7188 52.02 93.4654 51.432 94.1374 50.648L97.0494 53.336C96.1161 54.4747 94.9588 55.3427 93.5774 55.94C92.2148 56.5373 90.6748 56.836 88.9574 56.836ZM104.285 44.796H113.721V48.324H104.285V44.796ZM104.621 52.86H115.289V56.5H100.113V36.9H114.925V40.54H104.621V52.86ZM136.207 56.836C134.695 56.836 133.286 56.5933 131.979 56.108C130.691 55.604 129.571 54.8947 128.619 53.98C127.667 53.0653 126.921 51.992 126.379 50.76C125.857 49.528 125.595 48.1747 125.595 46.7C125.595 45.2253 125.857 43.872 126.379 42.64C126.921 41.408 127.667 40.3347 128.619 39.42C129.59 38.5053 130.719 37.8053 132.007 37.32C133.295 36.816 134.705 36.564 136.235 36.564C137.934 36.564 139.465 36.8627 140.827 37.46C142.209 38.0387 143.366 38.8973 144.299 40.036L141.387 42.724C140.715 41.9587 139.969 41.3893 139.147 41.016C138.326 40.624 137.43 40.428 136.459 40.428C135.545 40.428 134.705 40.5773 133.939 40.876C133.174 41.1747 132.511 41.604 131.951 42.164C131.391 42.724 130.953 43.3867 130.635 44.152C130.337 44.9173 130.187 45.7667 130.187 46.7C130.187 47.6333 130.337 48.4827 130.635 49.248C130.953 50.0133 131.391 50.676 131.951 51.236C132.511 51.796 133.174 52.2253 133.939 52.524C134.705 52.8227 135.545 52.972 136.459 52.972C137.43 52.972 138.326 52.7853 139.147 52.412C139.969 52.02 140.715 51.432 141.387 50.648L144.299 53.336C143.366 54.4747 142.209 55.3427 140.827 55.94C139.465 56.5373 137.925 56.836 136.207 56.836ZM147.363 56.5V36.9H155.847C157.601 36.9 159.113 37.1893 160.383 37.768C161.652 38.328 162.632 39.14 163.323 40.204C164.013 41.268 164.359 42.5373 164.359 44.012C164.359 45.468 164.013 46.728 163.323 47.792C162.632 48.8373 161.652 49.64 160.383 50.2C159.113 50.76 157.601 51.04 155.847 51.04H149.883L151.899 49.052V56.5H147.363ZM159.823 56.5L154.923 49.388H159.767L164.723 56.5H159.823ZM151.899 49.556L149.883 47.428H155.595C156.995 47.428 158.04 47.1293 158.731 46.532C159.421 45.916 159.767 45.076 159.767 44.012C159.767 42.9293 159.421 42.0893 158.731 41.492C158.04 40.8947 156.995 40.596 155.595 40.596H149.883L151.899 38.44V49.556ZM172.124 44.796H181.56V48.324H172.124V44.796ZM172.46 52.86H183.128V56.5H167.952V36.9H182.764V40.54H172.46V52.86ZM184.162 56.5L192.898 36.9H197.378L206.142 56.5H201.382L194.214 39.196H196.006L188.81 56.5H184.162ZM188.53 52.3L189.734 48.856H199.814L201.046 52.3H188.53ZM208.175 56.5V36.9H211.927L220.271 50.732H218.283L226.487 36.9H230.211L230.267 56.5H226.011L225.983 43.424H226.767L220.215 54.428H218.171L211.479 43.424H212.431V56.5H208.175ZM252.367 56.836C250.818 56.836 249.38 56.584 248.055 56.08C246.748 55.576 245.61 54.8667 244.639 53.952C243.687 53.0373 242.94 51.964 242.399 50.732C241.876 49.5 241.615 48.156 241.615 46.7C241.615 45.244 241.876 43.9 242.399 42.668C242.94 41.436 243.696 40.3627 244.667 39.448C245.638 38.5333 246.776 37.824 248.083 37.32C249.39 36.816 250.808 36.564 252.339 36.564C253.888 36.564 255.307 36.816 256.595 37.32C257.902 37.824 259.031 38.5333 259.983 39.448C260.954 40.3627 261.71 41.436 262.251 42.668C262.792 43.8813 263.063 45.2253 263.063 46.7C263.063 48.156 262.792 49.5093 262.251 50.76C261.71 51.992 260.954 53.0653 259.983 53.98C259.031 54.876 257.902 55.576 256.595 56.08C255.307 56.584 253.898 56.836 252.367 56.836ZM252.339 52.972C253.216 52.972 254.019 52.8227 254.747 52.524C255.494 52.2253 256.147 51.796 256.707 51.236C257.267 50.676 257.696 50.0133 257.995 49.248C258.312 48.4827 258.471 47.6333 258.471 46.7C258.471 45.7667 258.312 44.9173 257.995 44.152C257.696 43.3867 257.267 42.724 256.707 42.164C256.166 41.604 255.522 41.1747 254.775 40.876C254.028 40.5773 253.216 40.428 252.339 40.428C251.462 40.428 250.65 40.5773 249.903 40.876C249.175 41.1747 248.531 41.604 247.971 42.164C247.411 42.724 246.972 43.3867 246.655 44.152C246.356 44.9173 246.207 45.7667 246.207 46.7C246.207 47.6147 246.356 48.464 246.655 49.248C246.972 50.0133 247.402 50.676 247.943 51.236C248.503 51.796 249.156 52.2253 249.903 52.524C250.65 52.8227 251.462 52.972 252.339 52.972ZM273.376 56.5L264.92 36.9H269.82L277.212 54.26H274.328L281.832 36.9H286.34L277.856 56.5H273.376ZM286.424 56.5L295.16 36.9H299.64L308.404 56.5H303.644L296.476 39.196H298.268L291.072 56.5H286.424ZM290.792 52.3L291.996 48.856H302.076L303.308 52.3H290.792ZM312.117 56.5V36.9H316.653V52.804H326.481V56.5H312.117Z" fill="black"/>
</svg>
