<svg width="216" height="307" viewBox="0 0 216 307" fill="none" xmlns="http://www.w3.org/2000/svg">
<g filter="url(#filter0_d_2198_913)">
<rect x="6.66545" y="13.8549" width="203.155" height="149.626" rx="22.0671" fill="url(#paint0_linear_2198_913)" stroke="#2E2D2D" stroke-width="3.22934"/>
<path d="M5.05078 165.096L211.435 165.096V288.887H5.05078L5.05078 165.096Z" fill="#F6F3F3"/>
<path d="M5.05078 286.735H211.435V286.735C211.435 292.68 206.616 297.5 200.671 297.5H15.8152C9.87017 297.5 5.05078 292.68 5.05078 286.735V286.735Z" fill="url(#paint1_linear_2198_913)"/>
<path d="M5.05078 286.735H105.595C111.54 286.735 116.359 291.555 116.359 297.5V297.5H15.8152C9.87019 297.5 5.05078 292.68 5.05078 286.735V286.735Z" fill="#2E2D2D"/>
<rect x="27.2861" width="161.273" height="22.6054" rx="11.3027" fill="#2E2D2D"/>
<path d="M41.0334 15.8027L41.0334 6.76059L43.126 6.76059L43.126 15.8027L41.0334 15.8027ZM45.2719 15.8027L45.2719 6.76059L47.0028 6.76059L50.8522 13.1418L49.935 13.1418L53.7198 6.76059L55.4378 6.76059L55.4637 15.8027L53.5002 15.8027L53.4873 9.77033L53.849 9.77033L50.8263 14.8468L49.8834 14.8468L46.7961 9.77033L47.2353 9.77033L47.2353 15.8027L45.2719 15.8027ZM57.6089 15.8027L57.6089 6.76059L59.7016 6.76059L59.7016 14.0976L64.2355 14.0976L64.2355 15.8027L57.6089 15.8027ZM69.063 15.8027L69.063 6.76059L70.7939 6.76059L74.6433 13.1418L73.7262 13.1418L77.5109 6.76059L79.2289 6.76059L79.2548 15.8027L77.2913 15.8027L77.2784 9.77033L77.6401 9.77033L74.6175 14.8468L73.6745 14.8468L70.5872 9.77033L71.0264 9.77033L71.0264 15.8027L69.063 15.8027ZM85.792 15.9577C85.0772 15.9577 84.4141 15.8415 83.8027 15.609C83.1999 15.3765 82.6746 15.0492 82.2268 14.6273C81.7876 14.2053 81.4431 13.7101 81.1934 13.1418C80.9523 12.5734 80.8317 11.9534 80.8317 11.2817C80.8317 10.61 80.9523 9.98993 81.1934 9.42156C81.4431 8.8532 81.7919 8.35804 82.2397 7.93607C82.6875 7.5141 83.2128 7.18686 83.8156 6.95435C84.4184 6.72184 85.0729 6.60558 85.7791 6.60558C86.4938 6.60558 87.1483 6.72184 87.7425 6.95435C88.3453 7.18686 88.8663 7.5141 89.3055 7.93607C89.7533 8.35804 90.1021 8.8532 90.3518 9.42156C90.6015 9.98132 90.7264 10.6013 90.7264 11.2817C90.7264 11.9534 90.6015 12.5777 90.3518 13.1547C90.1021 13.723 89.7533 14.2182 89.3055 14.6402C88.8663 15.0535 88.3453 15.3765 87.7425 15.609C87.1483 15.8415 86.4981 15.9577 85.792 15.9577ZM85.7791 14.1751C86.1838 14.1751 86.5541 14.1063 86.8899 13.9685C87.2344 13.8307 87.5358 13.6326 87.7942 13.3743C88.0525 13.1159 88.2506 12.8102 88.3884 12.4571C88.5348 12.1041 88.608 11.7122 88.608 11.2817C88.608 10.8511 88.5348 10.4593 88.3884 10.1062C88.2506 9.75311 88.0525 9.4474 87.7942 9.18905C87.5444 8.9307 87.2473 8.73264 86.9029 8.59485C86.5584 8.45707 86.1838 8.38818 85.7791 8.38818C85.3743 8.38818 84.9997 8.45707 84.6552 8.59485C84.3194 8.73264 84.0223 8.9307 83.7639 9.18905C83.5056 9.4474 83.3032 9.75311 83.1568 10.1062C83.019 10.4593 82.9502 10.8511 82.9502 11.2817C82.9502 11.7036 83.019 12.0955 83.1568 12.4571C83.3032 12.8102 83.5013 13.1159 83.751 13.3743C84.0094 13.6326 84.3108 13.8307 84.6552 13.9685C84.9997 14.1063 85.3743 14.1751 85.7791 14.1751ZM96.6781 15.9577C95.9719 15.9577 95.3131 15.8415 94.7017 15.609C94.0989 15.3765 93.5736 15.0492 93.1258 14.6273C92.6866 14.2053 92.3421 13.7101 92.0924 13.1418C91.8513 12.5734 91.7307 11.9534 91.7307 11.2817C91.7307 10.61 91.8513 9.98993 92.0924 9.42156C92.3421 8.8532 92.6909 8.35804 93.1387 7.93607C93.5865 7.5141 94.1118 7.18686 94.7146 6.95435C95.3174 6.72184 95.9719 6.60558 96.6781 6.60558C97.3928 6.60558 98.0473 6.72184 98.6415 6.95435C99.2443 7.18686 99.7653 7.5141 100.204 7.93607C100.652 8.34942 101.001 8.84028 101.251 9.40865C101.501 9.97701 101.625 10.6013 101.625 11.2817C101.625 11.9534 101.501 12.5777 101.251 13.1547C101.001 13.723 100.652 14.2182 100.204 14.6402C99.7653 15.0535 99.2443 15.3765 98.6415 15.609C98.0473 15.8415 97.3928 15.9577 96.6781 15.9577ZM99.6361 17.8824C99.2831 17.8824 98.9472 17.8437 98.6286 17.7662C98.3186 17.6887 98.0085 17.5638 97.6985 17.3916C97.3971 17.2193 97.0785 16.9868 96.7426 16.694C96.4154 16.4012 96.058 16.0396 95.6705 15.609L97.8665 15.0535C98.099 15.3722 98.3143 15.6262 98.5123 15.8156C98.7104 16.0051 98.8998 16.1386 99.0807 16.2161C99.2701 16.2936 99.4682 16.3323 99.6749 16.3323C100.226 16.3323 100.717 16.1084 101.147 15.6606L102.078 16.7715C101.466 17.5121 100.652 17.8824 99.6361 17.8824ZM96.6781 14.1751C97.0828 14.1751 97.4531 14.1063 97.789 13.9685C98.1334 13.8307 98.4348 13.6326 98.6932 13.3743C98.9515 13.1159 99.1496 12.8102 99.2874 12.4571C99.4338 12.0955 99.507 11.7036 99.507 11.2817C99.507 10.8511 99.4338 10.4593 99.2874 10.1062C99.1496 9.75311 98.9515 9.4474 98.6932 9.18905C98.4348 8.9307 98.1334 8.73264 97.789 8.59485C97.4531 8.45707 97.0828 8.38818 96.6781 8.38818C96.2733 8.38818 95.8987 8.45707 95.5543 8.59485C95.2098 8.73264 94.9084 8.9307 94.65 9.18905C94.4003 9.4474 94.2022 9.75311 94.0558 10.1062C93.9181 10.4593 93.8492 10.8511 93.8492 11.2817C93.8492 11.7036 93.9181 12.0955 94.0558 12.4571C94.2022 12.8102 94.4003 13.1159 94.65 13.3743C94.9084 13.6326 95.2098 13.8307 95.5543 13.9685C95.8987 14.1063 96.2733 14.1751 96.6781 14.1751ZM106.456 12.9738L106.456 11.3592L110.111 11.3592L110.111 12.9738L106.456 12.9738ZM118.003 15.9577C117.375 15.9577 116.75 15.8759 116.13 15.7123C115.519 15.5401 114.994 15.299 114.554 14.9889L115.381 13.3872C115.726 13.6369 116.122 13.835 116.569 13.9814C117.026 14.1278 117.487 14.201 117.952 14.201C118.477 14.201 118.89 14.0976 119.192 13.891C119.493 13.6843 119.644 13.3958 119.644 13.0255C119.644 12.793 119.584 12.5863 119.463 12.4055C119.342 12.2246 119.127 12.0868 118.817 11.9921C118.516 11.8974 118.089 11.85 117.538 11.85L115.226 11.85L115.691 6.76059L121.207 6.76059L121.207 8.43984L116.44 8.43984L117.525 7.48396L117.202 11.1137L116.117 10.1579L118.029 10.1579C118.925 10.1579 119.644 10.2827 120.186 10.5325C120.737 10.7736 121.138 11.1051 121.388 11.5271C121.637 11.9491 121.762 12.427 121.762 12.9609C121.762 13.4948 121.629 13.99 121.362 14.4464C121.095 14.8942 120.681 15.2602 120.122 15.5444C119.571 15.82 118.864 15.9577 118.003 15.9577ZM126.486 15.9577C125.746 15.9577 125.083 15.7769 124.497 15.4152C123.912 15.0449 123.451 14.511 123.115 13.8135C122.779 13.1159 122.611 12.272 122.611 11.2817C122.611 10.2913 122.779 9.4474 123.115 8.74986C123.451 8.05232 123.912 7.52271 124.497 7.16103C125.083 6.79073 125.746 6.60558 126.486 6.60558C127.236 6.60558 127.899 6.79073 128.476 7.16103C129.061 7.52271 129.522 8.05232 129.858 8.74986C130.194 9.4474 130.362 10.2913 130.362 11.2817C130.362 12.272 130.194 13.1159 129.858 13.8135C129.522 14.511 129.061 15.0449 128.476 15.4152C127.899 15.7769 127.236 15.9577 126.486 15.9577ZM126.486 14.1881C126.84 14.1881 127.145 14.089 127.404 13.891C127.671 13.6929 127.877 13.3786 128.024 12.948C128.179 12.5174 128.256 11.962 128.256 11.2817C128.256 10.6013 128.179 10.0459 128.024 9.61532C127.877 9.18475 127.671 8.87042 127.404 8.67236C127.145 8.47429 126.84 8.37526 126.486 8.37526C126.142 8.37526 125.836 8.47429 125.569 8.67236C125.311 8.87042 125.104 9.18475 124.949 9.61532C124.803 10.0459 124.73 10.6013 124.73 11.2817C124.73 11.962 124.803 12.5174 124.949 12.948C125.104 13.3786 125.311 13.6929 125.569 13.891C125.836 14.089 126.142 14.1881 126.486 14.1881ZM135.254 15.9577C134.513 15.9577 133.85 15.7769 133.264 15.4152C132.679 15.0449 132.218 14.511 131.882 13.8135C131.546 13.1159 131.378 12.272 131.378 11.2817C131.378 10.2913 131.546 9.4474 131.882 8.74986C132.218 8.05232 132.679 7.52271 133.264 7.16103C133.85 6.79073 134.513 6.60558 135.254 6.60558C136.003 6.60558 136.666 6.79073 137.243 7.16103C137.828 7.52271 138.289 8.05232 138.625 8.74986C138.961 9.4474 139.129 10.2913 139.129 11.2817C139.129 12.272 138.961 13.1159 138.625 13.8135C138.289 14.511 137.828 15.0449 137.243 15.4152C136.666 15.7769 136.003 15.9577 135.254 15.9577ZM135.254 14.1881C135.607 14.1881 135.912 14.089 136.171 13.891C136.438 13.6929 136.644 13.3786 136.791 12.948C136.946 12.5174 137.023 11.962 137.023 11.2817C137.023 10.6013 136.946 10.0459 136.791 9.61532C136.644 9.18475 136.438 8.87042 136.171 8.67236C135.912 8.47429 135.607 8.37526 135.254 8.37526C134.909 8.37526 134.603 8.47429 134.336 8.67236C134.078 8.87042 133.871 9.18475 133.716 9.61532C133.57 10.0459 133.497 10.6013 133.497 11.2817C133.497 11.962 133.57 12.5174 133.716 12.948C133.871 13.3786 134.078 13.6929 134.336 13.891C134.603 14.089 134.909 14.1881 135.254 14.1881ZM144.021 15.9577C143.28 15.9577 142.617 15.7769 142.031 15.4152C141.446 15.0449 140.985 14.511 140.649 13.8135C140.313 13.1159 140.146 12.272 140.146 11.2817C140.146 10.2913 140.313 9.4474 140.649 8.74986C140.985 8.05232 141.446 7.52271 142.031 7.16103C142.617 6.79073 143.28 6.60558 144.021 6.60558C144.77 6.60558 145.433 6.79073 146.01 7.16103C146.596 7.52271 147.056 8.05232 147.392 8.74986C147.728 9.4474 147.896 10.2913 147.896 11.2817C147.896 12.272 147.728 13.1159 147.392 13.8135C147.056 14.511 146.596 15.0449 146.01 15.4152C145.433 15.7769 144.77 15.9577 144.021 15.9577ZM144.021 14.1881C144.374 14.1881 144.68 14.089 144.938 13.891C145.205 13.6929 145.412 13.3786 145.558 12.948C145.713 12.5174 145.79 11.962 145.79 11.2817C145.79 10.6013 145.713 10.0459 145.558 9.61532C145.412 9.18474 145.205 8.87042 144.938 8.67236C144.68 8.47429 144.374 8.37526 144.021 8.37526C143.676 8.37526 143.371 8.47429 143.104 8.67236C142.845 8.87042 142.639 9.18474 142.484 9.61532C142.337 10.0459 142.264 10.6013 142.264 11.2817C142.264 11.962 142.337 12.5174 142.484 12.948C142.639 13.3786 142.845 13.6929 143.104 13.891C143.371 14.089 143.676 14.1881 144.021 14.1881ZM153.139 15.8027L153.139 6.76059L157.053 6.76059C157.863 6.76059 158.56 6.89407 159.146 7.16103C159.731 7.41937 160.184 7.79398 160.502 8.28484C160.821 8.7757 160.98 9.36128 160.98 10.0416C160.98 10.7133 160.821 11.2946 160.502 11.7854C160.184 12.2763 159.731 12.6552 159.146 12.9222C158.56 13.1805 157.863 13.3097 157.053 13.3097L154.302 13.3097L155.232 12.3667L155.232 15.8027L153.139 15.8027ZM155.232 12.5992L154.302 11.6046L156.937 11.6046C157.583 11.6046 158.065 11.4668 158.384 11.1912C158.702 10.9157 158.862 10.5325 158.862 10.0416C158.862 9.54213 158.702 9.1546 158.384 8.87903C158.065 8.60346 157.583 8.46568 156.937 8.46568L154.302 8.46568L155.232 7.47104L155.232 12.5992ZM165.678 15.9061C164.929 15.9061 164.261 15.7554 163.676 15.454C163.09 15.1439 162.629 14.7177 162.294 14.1751C161.966 13.6326 161.803 13.0169 161.803 12.328C161.803 11.6304 161.966 11.0147 162.294 10.4808C162.629 9.93826 163.09 9.51629 163.676 9.21489C164.261 8.90487 164.929 8.74986 165.678 8.74986C166.41 8.74986 167.047 8.90487 167.59 9.21488C168.132 9.51629 168.533 9.95117 168.791 10.5195L167.228 11.3592C167.047 11.0319 166.819 10.7908 166.543 10.6358C166.276 10.4808 165.984 10.4033 165.665 10.4033C165.32 10.4033 165.01 10.4808 164.735 10.6358C164.459 10.7908 164.24 11.0104 164.076 11.2946C163.921 11.5788 163.844 11.9232 163.844 12.328C163.844 12.7327 163.921 13.0772 164.076 13.3614C164.24 13.6455 164.459 13.8651 164.735 14.0201C165.01 14.1751 165.32 14.2527 165.665 14.2527C165.984 14.2527 166.276 14.1795 166.543 14.0331C166.819 13.878 167.047 13.6326 167.228 13.2968L168.791 14.1493C168.533 14.7091 168.132 15.1439 167.59 15.454C167.047 15.7554 166.41 15.9061 165.678 15.9061ZM172.289 15.9061C171.695 15.9061 171.122 15.8372 170.571 15.6994C170.029 15.553 169.598 15.3722 169.279 15.1569L169.951 13.7101C170.27 13.9082 170.644 14.0718 171.075 14.201C171.514 14.3215 171.945 14.3818 172.367 14.3818C172.832 14.3818 173.159 14.3258 173.348 14.2139C173.547 14.1019 173.646 13.9469 173.646 13.7489C173.646 13.5853 173.568 13.4647 173.413 13.3872C173.267 13.3011 173.069 13.2365 172.819 13.1934C172.569 13.1504 172.294 13.1073 171.992 13.0643C171.699 13.0212 171.402 12.9652 171.101 12.8963C170.799 12.8188 170.524 12.7069 170.274 12.5605C170.024 12.4141 169.822 12.216 169.667 11.9663C169.521 11.7165 169.447 11.3936 169.447 10.9975C169.447 10.5583 169.572 10.1708 169.822 9.83492C170.08 9.49907 170.451 9.23641 170.933 9.04696C171.415 8.84889 171.992 8.74986 172.664 8.74986C173.137 8.74986 173.62 8.80153 174.111 8.90487C174.601 9.00821 175.01 9.15891 175.338 9.35698L174.666 10.7908C174.33 10.5927 173.99 10.4593 173.646 10.3904C173.31 10.3129 172.982 10.2741 172.664 10.2741C172.216 10.2741 171.889 10.3344 171.682 10.455C171.475 10.5755 171.372 10.7305 171.372 10.92C171.372 11.0922 171.445 11.2214 171.592 11.3075C171.747 11.3936 171.949 11.4625 172.199 11.5142C172.449 11.5658 172.72 11.6132 173.013 11.6563C173.314 11.6907 173.615 11.7467 173.917 11.8242C174.218 11.9017 174.489 12.0136 174.731 12.16C174.98 12.2978 175.183 12.4916 175.338 12.7413C175.493 12.9824 175.57 13.3011 175.57 13.6972C175.57 14.1278 175.441 14.511 175.183 14.8468C174.924 15.1741 174.55 15.4324 174.059 15.6219C173.577 15.8113 172.987 15.9061 172.289 15.9061Z" fill="white"/>
<rect x="4.30566" y="137.062" width="207.187" height="40.3749" fill="#2E2D2D"/>
<rect x="4.30566" y="137.062" width="207.187" height="40.3749" stroke="white"/>
<path d="M46.5027 166.755C44.9797 166.755 43.6162 166.383 42.412 165.64C41.2079 164.878 40.2605 163.78 39.5699 162.346C38.8792 160.912 38.5339 159.176 38.5339 157.14C38.5339 155.103 38.8792 153.368 39.5699 151.933C40.2605 150.499 41.2079 149.41 42.412 148.666C43.6162 147.905 44.9797 147.524 46.5027 147.524C48.0433 147.524 49.4068 147.905 50.5933 148.666C51.7974 149.41 52.7448 150.499 53.4354 151.933C54.1261 153.368 54.4714 155.103 54.4714 157.14C54.4714 159.176 54.1261 160.912 53.4354 162.346C52.7448 163.78 51.7974 164.878 50.5933 165.64C49.4068 166.383 48.0433 166.755 46.5027 166.755ZM46.5027 163.116C47.2287 163.116 47.8573 162.913 48.3886 162.505C48.9375 162.098 49.3625 161.452 49.6636 160.566C49.9823 159.681 50.1417 158.539 50.1417 157.14C50.1417 155.741 49.9823 154.599 49.6636 153.713C49.3625 152.828 48.9375 152.181 48.3886 151.774C47.8573 151.367 47.2287 151.163 46.5027 151.163C45.7943 151.163 45.1657 151.367 44.6167 151.774C44.0855 152.181 43.6605 152.828 43.3417 153.713C43.0407 154.599 42.8902 155.741 42.8902 157.14C42.8902 158.539 43.0407 159.681 43.3417 160.566C43.6605 161.452 44.0855 162.098 44.6167 162.505C45.1657 162.913 45.7943 163.116 46.5027 163.116ZM62.884 166.755C61.5913 166.755 60.3074 166.587 59.0324 166.251C57.7752 165.896 56.6949 165.401 55.7918 164.763L57.4918 161.469C58.2002 161.983 59.0147 162.39 59.9356 162.691C60.8741 162.992 61.8215 163.143 62.7777 163.143C63.858 163.143 64.7079 162.93 65.3277 162.505C65.9475 162.08 66.2574 161.487 66.2574 160.726C66.2574 160.247 66.1335 159.822 65.8855 159.451C65.6376 159.079 65.1949 158.795 64.5574 158.601C63.9376 158.406 63.0611 158.308 61.9277 158.308L57.1731 158.308L58.1293 147.843L69.4715 147.843L69.4715 151.296L59.6699 151.296L61.9012 149.33L61.2371 156.794L59.0059 154.829L62.9371 154.829C64.7788 154.829 66.2574 155.086 67.373 155.599C68.5064 156.095 69.3298 156.777 69.8434 157.644C70.3569 158.512 70.6137 159.495 70.6137 160.593C70.6137 161.691 70.3392 162.709 69.7902 163.647C69.2413 164.568 68.3913 165.321 67.2402 165.905C66.1069 166.472 64.6548 166.755 62.884 166.755ZM72.7048 160.619L72.7048 157.299L80.222 157.299L80.222 160.619L72.7048 160.619ZM90.9976 166.755C89.2976 166.755 87.819 166.401 86.5617 165.693C85.3221 164.984 84.3659 163.949 83.693 162.585C83.02 161.221 82.6836 159.539 82.6836 157.538C82.6836 155.395 83.082 153.58 83.8789 152.093C84.6935 150.605 85.8091 149.472 87.2258 148.693C88.6601 147.914 90.307 147.524 92.1664 147.524C93.158 147.524 94.1054 147.63 95.0085 147.843C95.9117 148.055 96.6908 148.374 97.346 148.799L95.7523 151.96C95.2388 151.606 94.6898 151.367 94.1054 151.243C93.5211 151.101 92.9101 151.03 92.2726 151.03C90.6612 151.03 89.3862 151.517 88.4476 152.491C87.5091 153.465 87.0398 154.908 87.0398 156.821C87.0398 157.14 87.0398 157.494 87.0398 157.883C87.0575 158.273 87.1107 158.663 87.1992 159.052L86.0039 157.937C86.3403 157.246 86.7742 156.67 87.3054 156.21C87.8367 155.732 88.4653 155.378 89.1914 155.147C89.9351 154.9 90.7497 154.776 91.6351 154.776C92.8393 154.776 93.9195 155.015 94.8757 155.493C95.832 155.971 96.5934 156.644 97.1601 157.512C97.7445 158.379 98.0367 159.397 98.0367 160.566C98.0367 161.824 97.7179 162.921 97.0804 163.86C96.4606 164.781 95.6195 165.498 94.557 166.012C93.5122 166.507 92.3257 166.755 90.9976 166.755ZM90.7586 163.541C91.3606 163.541 91.8919 163.435 92.3523 163.222C92.8304 162.992 93.2023 162.665 93.4679 162.24C93.7336 161.815 93.8664 161.328 93.8664 160.779C93.8664 159.929 93.5742 159.256 92.9898 158.76C92.4231 158.246 91.6617 157.99 90.7054 157.99C90.0679 157.99 89.5101 158.114 89.032 158.362C88.5539 158.592 88.1732 158.919 87.8898 159.344C87.6242 159.752 87.4914 160.23 87.4914 160.779C87.4914 161.31 87.6242 161.788 87.8898 162.213C88.1554 162.62 88.5273 162.948 89.0054 163.196C89.4836 163.426 90.0679 163.541 90.7586 163.541ZM107.565 166.755C106.042 166.755 104.679 166.383 103.474 165.64C102.27 164.878 101.323 163.78 100.632 162.346C99.9417 160.912 99.5964 159.176 99.5964 157.14C99.5964 155.103 99.9417 153.368 100.632 151.933C101.323 150.499 102.27 149.41 103.474 148.666C104.679 147.905 106.042 147.524 107.565 147.524C109.106 147.524 110.469 147.905 111.656 148.666C112.86 149.41 113.807 150.499 114.498 151.933C115.189 153.368 115.534 155.103 115.534 157.14C115.534 159.176 115.189 160.912 114.498 162.346C113.807 163.78 112.86 164.878 111.656 165.64C110.469 166.383 109.106 166.755 107.565 166.755ZM107.565 163.116C108.291 163.116 108.92 162.913 109.451 162.505C110 162.098 110.425 161.452 110.726 160.566C111.045 159.681 111.204 158.539 111.204 157.14C111.204 155.741 111.045 154.599 110.726 153.713C110.425 152.828 110 152.181 109.451 151.774C108.92 151.367 108.291 151.163 107.565 151.163C106.857 151.163 106.228 151.367 105.679 151.774C105.148 152.181 104.723 152.828 104.404 153.713C104.103 154.599 103.953 155.741 103.953 157.14C103.953 158.539 104.103 159.681 104.404 160.566C104.723 161.452 105.148 162.098 105.679 162.505C106.228 162.913 106.857 163.116 107.565 163.116ZM125.593 166.755C124.07 166.755 122.707 166.383 121.503 165.64C120.299 164.878 119.351 163.78 118.661 162.346C117.97 160.912 117.625 159.176 117.625 157.14C117.625 155.103 117.97 153.368 118.661 151.933C119.351 150.499 120.299 149.41 121.503 148.666C122.707 147.905 124.07 147.524 125.593 147.524C127.134 147.524 128.497 147.905 129.684 148.666C130.888 149.41 131.835 150.499 132.526 151.933C133.217 153.368 133.562 155.103 133.562 157.14C133.562 159.176 133.217 160.912 132.526 162.346C131.835 163.78 130.888 164.878 129.684 165.64C128.497 166.383 127.134 166.755 125.593 166.755ZM125.593 163.116C126.319 163.116 126.948 162.913 127.479 162.505C128.028 162.098 128.453 161.452 128.754 160.566C129.073 159.681 129.232 158.539 129.232 157.14C129.232 155.741 129.073 154.599 128.754 153.713C128.453 152.828 128.028 152.181 127.479 151.774C126.948 151.367 126.319 151.163 125.593 151.163C124.885 151.163 124.256 151.367 123.707 151.774C123.176 152.181 122.751 152.828 122.432 153.713C122.131 154.599 121.981 155.741 121.981 157.14C121.981 158.539 122.131 159.681 122.432 160.566C122.751 161.452 123.176 162.098 123.707 162.505C124.256 162.913 124.885 163.116 125.593 163.116ZM162.353 151.933C163.487 151.933 164.487 152.164 165.355 152.624C166.24 153.067 166.931 153.757 167.427 154.696C167.94 155.617 168.197 156.803 168.197 158.255L168.197 166.437L164.053 166.437L164.053 158.893C164.053 157.742 163.814 156.892 163.336 156.343C162.858 155.794 162.185 155.519 161.317 155.519C160.715 155.519 160.175 155.661 159.697 155.944C159.219 156.21 158.847 156.617 158.582 157.166C158.316 157.715 158.183 158.415 158.183 159.265L158.183 166.437L154.039 166.437L154.039 158.893C154.039 157.742 153.8 156.892 153.322 156.343C152.862 155.794 152.198 155.519 151.33 155.519C150.728 155.519 150.188 155.661 149.71 155.944C149.232 156.21 148.86 156.617 148.594 157.166C148.328 157.715 148.196 158.415 148.196 159.265L148.196 166.437L144.052 166.437L144.052 152.146L148.01 152.146L148.01 156.051L147.266 154.908C147.762 153.934 148.461 153.2 149.364 152.704C150.285 152.19 151.33 151.933 152.499 151.933C153.809 151.933 154.951 152.27 155.925 152.943C156.917 153.598 157.572 154.607 157.891 155.971L156.43 155.572C156.908 154.457 157.67 153.571 158.714 152.916C159.777 152.261 160.99 151.933 162.353 151.933ZM171.911 166.437L171.911 146.727L176.055 146.727L176.055 166.437L171.911 166.437Z" fill="#F6F4F3"/>
</g>
<path d="M35.1405 199.078C34.4642 199.078 33.814 198.97 33.1897 198.753C32.5742 198.527 32.0973 198.241 31.7592 197.895L32.1363 197.153C32.4571 197.465 32.8863 197.73 33.4238 197.947C33.97 198.155 34.5422 198.259 35.1405 198.259C35.7127 198.259 36.1765 198.189 36.532 198.051C36.8961 197.903 37.1606 197.708 37.3253 197.465C37.4987 197.223 37.5854 196.954 37.5854 196.659C37.5854 196.304 37.4814 196.018 37.2733 195.801C37.0739 195.584 36.8094 195.415 36.48 195.294C36.1505 195.164 35.7864 195.051 35.3876 194.955C34.9887 194.86 34.5899 194.76 34.1911 194.656C33.7923 194.544 33.4238 194.396 33.0857 194.214C32.7562 194.032 32.4875 193.794 32.2794 193.499C32.08 193.195 31.9803 192.801 31.9803 192.315C31.9803 191.865 32.0973 191.453 32.3314 191.08C32.5742 190.698 32.9426 190.395 33.4368 190.17C33.931 189.936 34.5639 189.818 35.3355 189.818C35.8471 189.818 36.3543 189.892 36.8571 190.04C37.36 190.178 37.7935 190.373 38.1576 190.625L37.8325 191.392C37.4423 191.132 37.0262 190.941 36.584 190.82C36.1505 190.698 35.73 190.638 35.3225 190.638C34.7763 190.638 34.3255 190.712 33.97 190.859C33.6146 191.006 33.3501 191.206 33.1767 191.457C33.012 191.7 32.9296 191.977 32.9296 192.289C32.9296 192.645 33.0293 192.931 33.2287 193.148C33.4368 193.365 33.7056 193.534 34.035 193.655C34.3732 193.776 34.7416 193.885 35.1405 193.98C35.5393 194.075 35.9338 194.179 36.3239 194.292C36.7227 194.405 37.0869 194.552 37.4163 194.734C37.7545 194.908 38.0232 195.142 38.2226 195.437C38.4307 195.731 38.5348 196.117 38.5348 196.594C38.5348 197.036 38.4134 197.448 38.1706 197.83C37.9279 198.202 37.5551 198.506 37.0522 198.74C36.558 198.965 35.9208 199.078 35.1405 199.078ZM43.9609 199.065C43.3713 199.065 42.8381 198.931 42.3613 198.662C41.8844 198.384 41.5029 197.99 41.2168 197.478C40.9394 196.958 40.8007 196.325 40.8007 195.58C40.8007 194.834 40.9394 194.206 41.2168 193.694C41.4943 193.174 41.8714 192.779 42.3483 192.511C42.8251 192.242 43.3627 192.107 43.9609 192.107C44.6111 192.107 45.192 192.255 45.7035 192.55C46.2237 192.836 46.6312 193.243 46.926 193.772C47.2208 194.292 47.3682 194.895 47.3682 195.58C47.3682 196.273 47.2208 196.88 46.926 197.4C46.6312 197.921 46.2237 198.328 45.7035 198.623C45.192 198.918 44.6111 199.065 43.9609 199.065ZM40.4365 201.523V192.172H41.3209V194.227L41.2298 195.593L41.3599 196.971V201.523H40.4365ZM43.8959 198.246C44.3814 198.246 44.8149 198.137 45.1964 197.921C45.5778 197.695 45.8813 197.383 46.1067 196.984C46.3321 196.577 46.4448 196.109 46.4448 195.58C46.4448 195.051 46.3321 194.587 46.1067 194.188C45.8813 193.789 45.5778 193.477 45.1964 193.252C44.8149 193.026 44.3814 192.914 43.8959 192.914C43.4103 192.914 42.9725 193.026 42.5824 193.252C42.2009 193.477 41.8974 193.789 41.672 194.188C41.4553 194.587 41.3469 195.051 41.3469 195.58C41.3469 196.109 41.4553 196.577 41.672 196.984C41.8974 197.383 42.2009 197.695 42.5824 197.921C42.9725 198.137 43.4103 198.246 43.8959 198.246ZM53.491 199V197.491L53.452 197.244V194.721C53.452 194.14 53.2872 193.694 52.9578 193.382C52.637 193.07 52.1558 192.914 51.5142 192.914C51.0721 192.914 50.6516 192.987 50.2527 193.135C49.8539 193.282 49.5158 193.477 49.2384 193.72L48.8222 193.031C49.169 192.736 49.5852 192.511 50.0707 192.354C50.5562 192.19 51.0677 192.107 51.6053 192.107C52.4896 192.107 53.1702 192.328 53.647 192.771C54.1326 193.204 54.3753 193.867 54.3753 194.76V199H53.491ZM51.1371 199.065C50.6256 199.065 50.179 198.983 49.7976 198.818C49.4248 198.645 49.1387 198.41 48.9392 198.116C48.7398 197.812 48.6401 197.465 48.6401 197.075C48.6401 196.72 48.7225 196.399 48.8872 196.113C49.0606 195.818 49.3381 195.584 49.7195 195.411C50.1097 195.229 50.6299 195.138 51.2801 195.138H53.634V195.827H51.3061C50.6472 195.827 50.1877 195.944 49.9276 196.178C49.6762 196.412 49.5505 196.702 49.5505 197.049C49.5505 197.439 49.7022 197.752 50.0056 197.986C50.3091 198.22 50.7339 198.337 51.2801 198.337C51.8003 198.337 52.2468 198.22 52.6196 197.986C53.0011 197.743 53.2786 197.396 53.452 196.945L53.66 197.582C53.4866 198.033 53.1832 198.393 52.7497 198.662C52.3249 198.931 51.7873 199.065 51.1371 199.065ZM59.7183 199.065C59.0421 199.065 58.4352 198.918 57.8976 198.623C57.3688 198.319 56.9526 197.908 56.6492 197.387C56.3457 196.859 56.194 196.256 56.194 195.58C56.194 194.895 56.3457 194.292 56.6492 193.772C56.9526 193.252 57.3688 192.844 57.8976 192.55C58.4352 192.255 59.0421 192.107 59.7183 192.107C60.2992 192.107 60.8237 192.22 61.2919 192.445C61.7601 192.671 62.1286 193.009 62.3973 193.46L61.7081 193.928C61.474 193.581 61.1836 193.326 60.8368 193.161C60.49 192.996 60.1128 192.914 59.7053 192.914C59.2198 192.914 58.782 193.026 58.3918 193.252C58.0017 193.469 57.6939 193.776 57.4685 194.175C57.243 194.574 57.1303 195.042 57.1303 195.58C57.1303 196.117 57.243 196.585 57.4685 196.984C57.6939 197.383 58.0017 197.695 58.3918 197.921C58.782 198.137 59.2198 198.246 59.7053 198.246C60.1128 198.246 60.49 198.163 60.8368 197.999C61.1836 197.834 61.474 197.582 61.7081 197.244L62.3973 197.713C62.1286 198.155 61.7601 198.493 61.2919 198.727C60.8237 198.952 60.2992 199.065 59.7183 199.065ZM64.1096 199V192.172H65.033V199H64.1096ZM64.5778 190.664C64.3871 190.664 64.2267 190.599 64.0966 190.469C63.9666 190.339 63.9016 190.183 63.9016 190.001C63.9016 189.818 63.9666 189.667 64.0966 189.545C64.2267 189.415 64.3871 189.35 64.5778 189.35C64.7686 189.35 64.9289 189.411 65.059 189.532C65.189 189.654 65.2541 189.805 65.2541 189.988C65.2541 190.178 65.189 190.339 65.059 190.469C64.9376 190.599 64.7772 190.664 64.5778 190.664ZM70.3852 199.065C69.7263 199.065 69.1324 198.918 68.6036 198.623C68.0834 198.319 67.6715 197.908 67.3681 197.387C67.0646 196.859 66.9129 196.256 66.9129 195.58C66.9129 194.895 67.0646 194.292 67.3681 193.772C67.6715 193.252 68.0834 192.844 68.6036 192.55C69.1238 192.255 69.7177 192.107 70.3852 192.107C71.0615 192.107 71.6597 192.255 72.1799 192.55C72.7088 192.844 73.1206 193.252 73.4154 193.772C73.7188 194.292 73.8706 194.895 73.8706 195.58C73.8706 196.256 73.7188 196.859 73.4154 197.387C73.1206 197.908 72.7088 198.319 72.1799 198.623C71.6511 198.918 71.0528 199.065 70.3852 199.065ZM70.3852 198.246C70.8794 198.246 71.3173 198.137 71.6987 197.921C72.0802 197.695 72.3793 197.383 72.5961 196.984C72.8215 196.577 72.9342 196.109 72.9342 195.58C72.9342 195.042 72.8215 194.574 72.5961 194.175C72.3793 193.776 72.0802 193.469 71.6987 193.252C71.3173 193.026 70.8838 192.914 70.3982 192.914C69.9127 192.914 69.4792 193.026 69.0977 193.252C68.7163 193.469 68.4128 193.776 68.1874 194.175C67.962 194.574 67.8493 195.042 67.8493 195.58C67.8493 196.109 67.962 196.577 68.1874 196.984C68.4128 197.383 68.7163 197.695 69.0977 197.921C69.4792 198.137 69.9084 198.246 70.3852 198.246ZM78.5778 199.065C77.9969 199.065 77.4897 198.957 77.0562 198.74C76.6227 198.523 76.2845 198.198 76.0418 197.765C75.8077 197.331 75.6907 196.789 75.6907 196.139V192.172H76.614V196.035C76.614 196.763 76.7917 197.314 77.1472 197.686C77.5114 198.051 78.0185 198.233 78.6688 198.233C79.1456 198.233 79.5575 198.137 79.9043 197.947C80.2597 197.747 80.5285 197.461 80.7106 197.088C80.9013 196.715 80.9967 196.269 80.9967 195.749V192.172H81.92V199H81.0357V197.127L81.1788 197.465C80.962 197.968 80.6239 198.363 80.1644 198.649C79.7135 198.926 79.1847 199.065 78.5778 199.065ZM86.3271 199.065C85.7635 199.065 85.2303 198.987 84.7275 198.831C84.2246 198.666 83.8301 198.462 83.544 198.22L83.9602 197.491C84.2376 197.7 84.5931 197.882 85.0266 198.038C85.4601 198.185 85.9153 198.259 86.3921 198.259C87.0424 198.259 87.5105 198.159 87.7967 197.96C88.0828 197.752 88.2258 197.478 88.2258 197.14C88.2258 196.889 88.1435 196.694 87.9787 196.555C87.8227 196.408 87.6146 196.299 87.3545 196.23C87.0944 196.152 86.8039 196.087 86.4832 196.035C86.1624 195.983 85.8416 195.922 85.5208 195.853C85.2087 195.783 84.9226 195.684 84.6625 195.554C84.4024 195.415 84.1899 195.229 84.0252 194.994C83.8692 194.76 83.7911 194.448 83.7911 194.058C83.7911 193.685 83.8952 193.352 84.1032 193.057C84.3113 192.762 84.6148 192.532 85.0136 192.367C85.4211 192.194 85.9153 192.107 86.4962 192.107C86.9383 192.107 87.3805 192.168 87.8227 192.289C88.2648 192.402 88.629 192.554 88.9151 192.745L88.5119 193.486C88.2085 193.278 87.8834 193.13 87.5366 193.044C87.1898 192.948 86.843 192.901 86.4962 192.901C85.8806 192.901 85.4254 193.009 85.1306 193.226C84.8445 193.434 84.7015 193.703 84.7015 194.032C84.7015 194.292 84.7795 194.496 84.9356 194.643C85.1003 194.791 85.3127 194.908 85.5728 194.994C85.8416 195.073 86.132 195.138 86.4441 195.19C86.7649 195.242 87.0814 195.307 87.3935 195.385C87.7143 195.454 88.0047 195.554 88.2648 195.684C88.5336 195.805 88.746 195.983 88.9021 196.217C89.0668 196.442 89.1492 196.741 89.1492 197.114C89.1492 197.513 89.0365 197.86 88.811 198.155C88.5943 198.441 88.2735 198.666 87.8487 198.831C87.4325 198.987 86.9253 199.065 86.3271 199.065ZM94.4422 199V189.897H95.4046V199H94.4422ZM98.3665 199V189.897H99.1598L103.321 196.997H102.905L107.028 189.897H107.821V199H106.898V191.34H107.119L103.321 197.843H102.866L99.0428 191.34H99.2899V199H98.3665ZM110.787 199V189.897H111.75V198.168H116.848V199H110.787ZM125.803 199.078C125.118 199.078 124.485 198.965 123.904 198.74C123.323 198.506 122.82 198.181 122.395 197.765C121.971 197.348 121.637 196.859 121.394 196.295C121.16 195.731 121.043 195.116 121.043 194.448C121.043 193.781 121.16 193.165 121.394 192.602C121.637 192.038 121.971 191.548 122.395 191.132C122.829 190.716 123.336 190.395 123.917 190.17C124.498 189.936 125.131 189.818 125.816 189.818C126.475 189.818 127.094 189.931 127.675 190.157C128.256 190.373 128.746 190.703 129.145 191.145L128.534 191.756C128.161 191.375 127.749 191.102 127.298 190.937C126.847 190.764 126.362 190.677 125.842 190.677C125.295 190.677 124.788 190.772 124.32 190.963C123.852 191.145 123.444 191.409 123.098 191.756C122.751 192.094 122.478 192.493 122.278 192.953C122.088 193.404 121.992 193.902 121.992 194.448C121.992 194.994 122.088 195.497 122.278 195.957C122.478 196.408 122.751 196.806 123.098 197.153C123.444 197.491 123.852 197.756 124.32 197.947C124.788 198.129 125.295 198.22 125.842 198.22C126.362 198.22 126.847 198.133 127.298 197.96C127.749 197.786 128.161 197.509 128.534 197.127L129.145 197.739C128.746 198.181 128.256 198.514 127.675 198.74C127.094 198.965 126.47 199.078 125.803 199.078ZM133.48 199.065C132.821 199.065 132.227 198.918 131.698 198.623C131.178 198.319 130.766 197.908 130.462 197.387C130.159 196.859 130.007 196.256 130.007 195.58C130.007 194.895 130.159 194.292 130.462 193.772C130.766 193.252 131.178 192.844 131.698 192.55C132.218 192.255 132.812 192.107 133.48 192.107C134.156 192.107 134.754 192.255 135.274 192.55C135.803 192.844 136.215 193.252 136.51 193.772C136.813 194.292 136.965 194.895 136.965 195.58C136.965 196.256 136.813 196.859 136.51 197.387C136.215 197.908 135.803 198.319 135.274 198.623C134.745 198.918 134.147 199.065 133.48 199.065ZM133.48 198.246C133.974 198.246 134.412 198.137 134.793 197.921C135.175 197.695 135.474 197.383 135.69 196.984C135.916 196.577 136.029 196.109 136.029 195.58C136.029 195.042 135.916 194.574 135.69 194.175C135.474 193.776 135.175 193.469 134.793 193.252C134.412 193.026 133.978 192.914 133.493 192.914C133.007 192.914 132.574 193.026 132.192 193.252C131.811 193.469 131.507 193.776 131.282 194.175C131.056 194.574 130.944 195.042 130.944 195.58C130.944 196.109 131.056 196.577 131.282 196.984C131.507 197.383 131.811 197.695 132.192 197.921C132.574 198.137 133.003 198.246 133.48 198.246ZM142.335 192.107C142.89 192.107 143.376 192.216 143.792 192.432C144.217 192.641 144.546 192.961 144.78 193.395C145.023 193.828 145.144 194.375 145.144 195.033V199H144.221V195.125C144.221 194.405 144.039 193.863 143.675 193.499C143.319 193.126 142.817 192.94 142.166 192.94C141.681 192.94 141.256 193.039 140.892 193.239C140.536 193.43 140.259 193.711 140.06 194.084C139.869 194.448 139.773 194.89 139.773 195.411V199H138.85V192.172H139.734V194.045L139.591 193.694C139.808 193.2 140.155 192.814 140.632 192.537C141.109 192.25 141.676 192.107 142.335 192.107ZM149.797 199.065C149.156 199.065 148.662 198.892 148.315 198.545C147.968 198.198 147.795 197.708 147.795 197.075V190.664H148.718V197.023C148.718 197.422 148.818 197.73 149.017 197.947C149.225 198.163 149.52 198.272 149.901 198.272C150.309 198.272 150.647 198.155 150.916 197.921L151.241 198.584C151.059 198.749 150.838 198.87 150.578 198.948C150.326 199.026 150.066 199.065 149.797 199.065ZM146.572 192.94V192.172H150.799V192.94H146.572ZM157.2 199V197.491L157.161 197.244V194.721C157.161 194.14 156.997 193.694 156.667 193.382C156.347 193.07 155.865 192.914 155.224 192.914C154.782 192.914 154.361 192.987 153.962 193.135C153.563 193.282 153.225 193.477 152.948 193.72L152.532 193.031C152.879 192.736 153.295 192.511 153.78 192.354C154.266 192.19 154.777 192.107 155.315 192.107C156.199 192.107 156.88 192.328 157.357 192.771C157.842 193.204 158.085 193.867 158.085 194.76V199H157.2ZM154.847 199.065C154.335 199.065 153.889 198.983 153.507 198.818C153.134 198.645 152.848 198.41 152.649 198.116C152.449 197.812 152.35 197.465 152.35 197.075C152.35 196.72 152.432 196.399 152.597 196.113C152.77 195.818 153.048 195.584 153.429 195.411C153.819 195.229 154.339 195.138 154.99 195.138H157.344V195.827H155.016C154.357 195.827 153.897 195.944 153.637 196.178C153.386 196.412 153.26 196.702 153.26 197.049C153.26 197.439 153.412 197.752 153.715 197.986C154.019 198.22 154.443 198.337 154.99 198.337C155.51 198.337 155.956 198.22 156.329 197.986C156.711 197.743 156.988 197.396 157.161 196.945L157.37 197.582C157.196 198.033 156.893 198.393 156.459 198.662C156.034 198.931 155.497 199.065 154.847 199.065ZM160.593 199V192.172H161.516V199H160.593ZM161.061 190.664C160.87 190.664 160.71 190.599 160.58 190.469C160.45 190.339 160.385 190.183 160.385 190.001C160.385 189.818 160.45 189.667 160.58 189.545C160.71 189.415 160.87 189.35 161.061 189.35C161.252 189.35 161.412 189.411 161.542 189.532C161.672 189.654 161.737 189.805 161.737 189.988C161.737 190.178 161.672 190.339 161.542 190.469C161.421 190.599 161.26 190.664 161.061 190.664ZM167.571 192.107C168.126 192.107 168.611 192.216 169.027 192.432C169.452 192.641 169.781 192.961 170.016 193.395C170.258 193.828 170.38 194.375 170.38 195.033V199H169.456V195.125C169.456 194.405 169.274 193.863 168.91 193.499C168.555 193.126 168.052 192.94 167.402 192.94C166.916 192.94 166.491 193.039 166.127 193.239C165.772 193.43 165.494 193.711 165.295 194.084C165.104 194.448 165.009 194.89 165.009 195.411V199H164.085V192.172H164.97V194.045L164.827 193.694C165.043 193.2 165.39 192.814 165.867 192.537C166.344 192.25 166.912 192.107 167.571 192.107ZM175.774 199.065C175.063 199.065 174.439 198.918 173.901 198.623C173.364 198.319 172.943 197.908 172.64 197.387C172.336 196.859 172.185 196.256 172.185 195.58C172.185 194.903 172.328 194.305 172.614 193.785C172.909 193.265 173.307 192.857 173.81 192.563C174.322 192.259 174.894 192.107 175.527 192.107C176.168 192.107 176.736 192.255 177.23 192.55C177.733 192.836 178.128 193.243 178.414 193.772C178.7 194.292 178.843 194.895 178.843 195.58C178.843 195.623 178.839 195.671 178.83 195.723C178.83 195.766 178.83 195.814 178.83 195.866H172.887V195.177H178.336L177.972 195.45C177.972 194.955 177.863 194.518 177.647 194.136C177.439 193.746 177.152 193.443 176.788 193.226C176.424 193.009 176.004 192.901 175.527 192.901C175.059 192.901 174.638 193.009 174.265 193.226C173.893 193.443 173.602 193.746 173.394 194.136C173.186 194.526 173.082 194.973 173.082 195.476V195.619C173.082 196.139 173.195 196.598 173.42 196.997C173.654 197.387 173.975 197.695 174.382 197.921C174.799 198.137 175.271 198.246 175.8 198.246C176.216 198.246 176.602 198.172 176.957 198.025C177.322 197.877 177.634 197.652 177.894 197.348L178.414 197.947C178.11 198.311 177.729 198.588 177.27 198.779C176.819 198.97 176.32 199.065 175.774 199.065ZM180.723 199V192.172H181.607V194.032L181.516 193.707C181.707 193.187 182.027 192.792 182.478 192.524C182.929 192.246 183.488 192.107 184.156 192.107V193.005C184.121 193.005 184.086 193.005 184.052 193.005C184.017 192.996 183.982 192.992 183.948 192.992C183.228 192.992 182.665 193.213 182.257 193.655C181.85 194.088 181.646 194.708 181.646 195.515V199H180.723ZM47.9743 218.065C47.324 218.065 46.7388 217.918 46.2186 217.623C45.7071 217.328 45.3039 216.921 45.0092 216.4C44.7144 215.872 44.567 215.265 44.567 214.58C44.567 213.886 44.7144 213.279 45.0092 212.759C45.3039 212.239 45.7071 211.836 46.2186 211.55C46.7388 211.255 47.324 211.107 47.9743 211.107C48.5725 211.107 49.1057 211.242 49.5739 211.511C50.0507 211.779 50.4279 212.174 50.7053 212.694C50.9914 213.206 51.1345 213.834 51.1345 214.58C51.1345 215.317 50.9958 215.945 50.7183 216.465C50.4409 216.986 50.0638 217.384 49.5869 217.662C49.1187 217.931 48.5812 218.065 47.9743 218.065ZM48.0393 217.246C48.5248 217.246 48.9583 217.137 49.3398 216.921C49.73 216.695 50.0334 216.383 50.2502 215.984C50.4756 215.577 50.5883 215.109 50.5883 214.58C50.5883 214.042 50.4756 213.574 50.2502 213.175C50.0334 212.776 49.73 212.469 49.3398 212.252C48.9583 212.026 48.5248 211.914 48.0393 211.914C47.5625 211.914 47.1333 212.026 46.7518 212.252C46.3703 212.469 46.0669 212.776 45.8415 213.175C45.6161 213.574 45.5033 214.042 45.5033 214.58C45.5033 215.109 45.6161 215.577 45.8415 215.984C46.0669 216.383 46.3703 216.695 46.7518 216.921C47.1333 217.137 47.5625 217.246 48.0393 217.246ZM50.6143 218V215.945L50.7053 214.567L50.5753 213.188V208.35H51.4986V218H50.6143ZM56.9703 218.065C56.2593 218.065 55.6351 217.918 55.0976 217.623C54.56 217.319 54.1395 216.908 53.8361 216.387C53.5326 215.859 53.3809 215.256 53.3809 214.58C53.3809 213.903 53.524 213.305 53.8101 212.785C54.1048 212.265 54.5037 211.857 55.0065 211.563C55.518 211.259 56.0903 211.107 56.7232 211.107C57.3648 211.107 57.9326 211.255 58.4268 211.55C58.9297 211.836 59.3242 212.243 59.6103 212.772C59.8964 213.292 60.0394 213.895 60.0394 214.58C60.0394 214.623 60.0351 214.671 60.0264 214.723C60.0264 214.766 60.0264 214.814 60.0264 214.866H54.0832V214.177H59.5322L59.1681 214.45C59.1681 213.955 59.0597 213.518 58.843 213.136C58.6349 212.746 58.3488 212.443 57.9847 212.226C57.6205 212.009 57.2 211.901 56.7232 211.901C56.255 211.901 55.8345 212.009 55.4617 212.226C55.0889 212.443 54.7984 212.746 54.5904 213.136C54.3823 213.526 54.2782 213.973 54.2782 214.476V214.619C54.2782 215.139 54.3909 215.598 54.6164 215.997C54.8505 216.387 55.1712 216.695 55.5787 216.921C55.9949 217.137 56.4674 217.246 56.9963 217.246C57.4124 217.246 57.7983 217.172 58.1537 217.025C58.5179 216.877 58.83 216.652 59.0901 216.348L59.6103 216.947C59.3068 217.311 58.9253 217.588 58.4658 217.779C58.015 217.97 57.5165 218.065 56.9703 218.065ZM63.7526 218.065C63.189 218.065 62.6558 217.987 62.153 217.831C61.6501 217.666 61.2556 217.462 60.9695 217.22L61.3857 216.491C61.6631 216.7 62.0186 216.882 62.4521 217.038C62.8856 217.185 63.3407 217.259 63.8176 217.259C64.4678 217.259 64.936 217.159 65.2221 216.96C65.5082 216.752 65.6513 216.478 65.6513 216.14C65.6513 215.889 65.5689 215.694 65.4042 215.555C65.2481 215.408 65.0401 215.299 64.78 215.23C64.5199 215.152 64.2294 215.087 63.9086 215.035C63.5878 214.983 63.267 214.922 62.9463 214.853C62.6341 214.783 62.348 214.684 62.0879 214.554C61.8278 214.415 61.6154 214.229 61.4507 213.994C61.2946 213.76 61.2166 213.448 61.2166 213.058C61.2166 212.685 61.3206 212.352 61.5287 212.057C61.7368 211.762 62.0402 211.532 62.4391 211.367C62.8465 211.194 63.3407 211.107 63.9216 211.107C64.3638 211.107 64.806 211.168 65.2481 211.289C65.6903 211.402 66.0544 211.554 66.3406 211.745L65.9374 212.486C65.6339 212.278 65.3088 212.13 64.962 212.044C64.6152 211.948 64.2684 211.901 63.9216 211.901C63.3061 211.901 62.8509 212.009 62.5561 212.226C62.27 212.434 62.1269 212.703 62.1269 213.032C62.1269 213.292 62.205 213.496 62.361 213.643C62.5258 213.791 62.7382 213.908 62.9983 213.994C63.267 214.073 63.5575 214.138 63.8696 214.19C64.1904 214.242 64.5069 214.307 64.819 214.385C65.1398 214.454 65.4302 214.554 65.6903 214.684C65.9591 214.805 66.1715 214.983 66.3275 215.217C66.4923 215.442 66.5746 215.741 66.5746 216.114C66.5746 216.513 66.4619 216.86 66.2365 217.155C66.0198 217.441 65.699 217.666 65.2741 217.831C64.858 217.987 64.3508 218.065 63.7526 218.065ZM68.2689 218V211.172H69.1923V218H68.2689ZM68.7371 209.664C68.5464 209.664 68.386 209.599 68.2559 209.469C68.1259 209.339 68.0609 209.183 68.0609 209.001C68.0609 208.818 68.1259 208.667 68.2559 208.545C68.386 208.415 68.5464 208.35 68.7371 208.35C68.9279 208.35 69.0883 208.411 69.2183 208.532C69.3484 208.654 69.4134 208.805 69.4134 208.988C69.4134 209.178 69.3484 209.339 69.2183 209.469C69.0969 209.599 68.9365 209.664 68.7371 209.664ZM74.6746 220.588C74.0504 220.588 73.4521 220.497 72.8799 220.315C72.3077 220.133 71.8438 219.873 71.4884 219.535L71.9566 218.832C72.2773 219.118 72.6718 219.344 73.14 219.509C73.6169 219.682 74.1197 219.769 74.6486 219.769C75.5156 219.769 76.1528 219.565 76.5603 219.157C76.9678 218.759 77.1715 218.134 77.1715 217.285V215.581L77.3016 214.411L77.2106 213.24V211.172H78.0949V217.168C78.0949 218.347 77.8045 219.209 77.2236 219.756C76.6513 220.311 75.8017 220.588 74.6746 220.588ZM74.5055 217.74C73.8553 217.74 73.2701 217.601 72.7499 217.324C72.2297 217.038 71.8178 216.643 71.5144 216.14C71.2196 215.637 71.0722 215.061 71.0722 214.411C71.0722 213.76 71.2196 213.188 71.5144 212.694C71.8178 212.191 72.2297 211.801 72.7499 211.524C73.2701 211.246 73.8553 211.107 74.5055 211.107C75.1124 211.107 75.6586 211.233 76.1442 211.485C76.6297 211.736 77.0155 212.109 77.3016 212.603C77.5877 213.097 77.7308 213.7 77.7308 214.411C77.7308 215.122 77.5877 215.724 77.3016 216.218C77.0155 216.713 76.6297 217.09 76.1442 217.35C75.6586 217.61 75.1124 217.74 74.5055 217.74ZM74.5966 216.921C75.0994 216.921 75.5459 216.817 75.9361 216.608C76.3262 216.392 76.634 216.097 76.8594 215.724C77.0848 215.343 77.1976 214.905 77.1976 214.411C77.1976 213.916 77.0848 213.483 76.8594 213.11C76.634 212.737 76.3262 212.447 75.9361 212.239C75.5459 212.022 75.0994 211.914 74.5966 211.914C74.1024 211.914 73.6559 212.022 73.2571 212.239C72.8669 212.447 72.5591 212.737 72.3337 213.11C72.117 213.483 72.0086 213.916 72.0086 214.411C72.0086 214.905 72.117 215.343 72.3337 215.724C72.5591 216.097 72.8669 216.392 73.2571 216.608C73.6559 216.817 74.1024 216.921 74.5966 216.921ZM84.1496 211.107C84.7045 211.107 85.19 211.216 85.6062 211.432C86.031 211.641 86.3605 211.961 86.5946 212.395C86.8373 212.828 86.9587 213.375 86.9587 214.033V218H86.0354V214.125C86.0354 213.405 85.8533 212.863 85.4891 212.499C85.1337 212.126 84.6308 211.94 83.9806 211.94C83.495 211.94 83.0702 212.039 82.7061 212.239C82.3506 212.43 82.0732 212.711 81.8738 213.084C81.683 213.448 81.5877 213.89 81.5877 214.411V218H80.6643V211.172H81.5486V213.045L81.4056 212.694C81.6223 212.2 81.9691 211.814 82.446 211.537C82.9228 211.25 83.4907 211.107 84.1496 211.107ZM92.3529 218.065C91.642 218.065 91.0177 217.918 90.4802 217.623C89.9427 217.319 89.5222 216.908 89.2187 216.387C88.9153 215.859 88.7635 215.256 88.7635 214.58C88.7635 213.903 88.9066 213.305 89.1927 212.785C89.4875 212.265 89.8863 211.857 90.3892 211.563C90.9007 211.259 91.4729 211.107 92.1058 211.107C92.7474 211.107 93.3153 211.255 93.8095 211.55C94.3123 211.836 94.7068 212.243 94.9929 212.772C95.279 213.292 95.4221 213.895 95.4221 214.58C95.4221 214.623 95.4178 214.671 95.4091 214.723C95.4091 214.766 95.4091 214.814 95.4091 214.866H89.4658V214.177H94.9149L94.5508 214.45C94.5508 213.955 94.4424 213.518 94.2256 213.136C94.0176 212.746 93.7314 212.443 93.3673 212.226C93.0032 212.009 92.5827 211.901 92.1058 211.901C91.6376 211.901 91.2171 212.009 90.8443 212.226C90.4715 212.443 90.1811 212.746 89.973 213.136C89.7649 213.526 89.6609 213.973 89.6609 214.476V214.619C89.6609 215.139 89.7736 215.598 89.999 215.997C90.2331 216.387 90.5539 216.695 90.9614 216.921C91.3775 217.137 91.8501 217.246 92.3789 217.246C92.7951 217.246 93.1809 217.172 93.5364 217.025C93.9005 216.877 94.2126 216.652 94.4727 216.348L94.9929 216.947C94.6895 217.311 94.308 217.588 93.8485 217.779C93.3976 217.97 92.8991 218.065 92.3529 218.065ZM100.02 218.065C99.3693 218.065 98.7841 217.918 98.2639 217.623C97.7523 217.328 97.3492 216.921 97.0544 216.4C96.7596 215.872 96.6122 215.265 96.6122 214.58C96.6122 213.886 96.7596 213.279 97.0544 212.759C97.3492 212.239 97.7523 211.836 98.2639 211.55C98.7841 211.255 99.3693 211.107 100.02 211.107C100.618 211.107 101.151 211.242 101.619 211.511C102.096 211.779 102.473 212.174 102.751 212.694C103.037 213.206 103.18 213.834 103.18 214.58C103.18 215.317 103.041 215.945 102.764 216.465C102.486 216.986 102.109 217.384 101.632 217.662C101.164 217.931 100.626 218.065 100.02 218.065ZM100.085 217.246C100.57 217.246 101.004 217.137 101.385 216.921C101.775 216.695 102.079 216.383 102.295 215.984C102.521 215.577 102.634 215.109 102.634 214.58C102.634 214.042 102.521 213.574 102.295 213.175C102.079 212.776 101.775 212.469 101.385 212.252C101.004 212.026 100.57 211.914 100.085 211.914C99.6077 211.914 99.1786 212.026 98.7971 212.252C98.4156 212.469 98.1121 212.776 97.8867 213.175C97.6613 213.574 97.5486 214.042 97.5486 214.58C97.5486 215.109 97.6613 215.577 97.8867 215.984C98.1121 216.383 98.4156 216.695 98.7971 216.921C99.1786 217.137 99.6077 217.246 100.085 217.246ZM102.66 218V215.945L102.751 214.567L102.621 213.188V208.35H103.544V218H102.66ZM109.675 218V210.314C109.675 209.707 109.853 209.217 110.208 208.845C110.564 208.472 111.075 208.285 111.743 208.285C112.003 208.285 112.254 208.32 112.497 208.389C112.74 208.459 112.944 208.567 113.108 208.714L112.796 209.404C112.666 209.291 112.515 209.209 112.341 209.157C112.168 209.096 111.981 209.066 111.782 209.066C111.392 209.066 111.093 209.174 110.885 209.391C110.677 209.607 110.572 209.928 110.572 210.353V211.393L110.598 211.823V218H109.675ZM108.453 211.94V211.172H112.679V211.94H108.453ZM116.595 218.065C115.936 218.065 115.342 217.918 114.813 217.623C114.293 217.319 113.881 216.908 113.578 216.387C113.274 215.859 113.122 215.256 113.122 214.58C113.122 213.895 113.274 213.292 113.578 212.772C113.881 212.252 114.293 211.844 114.813 211.55C115.333 211.255 115.927 211.107 116.595 211.107C117.271 211.107 117.869 211.255 118.389 211.55C118.918 211.844 119.33 212.252 119.625 212.772C119.928 213.292 120.08 213.895 120.08 214.58C120.08 215.256 119.928 215.859 119.625 216.387C119.33 216.908 118.918 217.319 118.389 217.623C117.861 217.918 117.262 218.065 116.595 218.065ZM116.595 217.246C117.089 217.246 117.527 217.137 117.908 216.921C118.29 216.695 118.589 216.383 118.806 215.984C119.031 215.577 119.144 215.109 119.144 214.58C119.144 214.042 119.031 213.574 118.806 213.175C118.589 212.776 118.29 212.469 117.908 212.252C117.527 212.026 117.093 211.914 116.608 211.914C116.122 211.914 115.689 212.026 115.307 212.252C114.926 212.469 114.622 212.776 114.397 213.175C114.172 213.574 114.059 214.042 114.059 214.58C114.059 215.109 114.172 215.577 114.397 215.984C114.622 216.383 114.926 216.695 115.307 216.921C115.689 217.137 116.118 217.246 116.595 217.246ZM121.965 218V211.172H122.85V213.032L122.759 212.707C122.949 212.187 123.27 211.792 123.721 211.524C124.172 211.246 124.731 211.107 125.399 211.107V212.005C125.364 212.005 125.329 212.005 125.294 212.005C125.26 211.996 125.225 211.992 125.19 211.992C124.471 211.992 123.907 212.213 123.5 212.655C123.092 213.088 122.889 213.708 122.889 214.515V218H121.965ZM134.254 211.042C134.817 211.042 135.312 211.151 135.736 211.367C136.17 211.584 136.508 211.914 136.751 212.356C136.994 212.798 137.115 213.357 137.115 214.033V218H135.867V214.177C135.867 213.509 135.702 213.006 135.372 212.668C135.052 212.33 134.596 212.161 134.007 212.161C133.565 212.161 133.179 212.247 132.849 212.421C132.52 212.594 132.264 212.85 132.082 213.188C131.909 213.526 131.822 213.947 131.822 214.45V218H130.573V208.35H131.822V212.967L131.575 212.473C131.8 212.022 132.147 211.671 132.615 211.419C133.083 211.168 133.63 211.042 134.254 211.042ZM142.495 218.078C141.758 218.078 141.107 217.926 140.544 217.623C139.989 217.319 139.556 216.903 139.243 216.374C138.94 215.846 138.788 215.239 138.788 214.554C138.788 213.869 138.936 213.262 139.23 212.733C139.534 212.204 139.946 211.792 140.466 211.498C140.995 211.194 141.589 211.042 142.248 211.042C142.915 211.042 143.505 211.19 144.016 211.485C144.528 211.779 144.927 212.195 145.213 212.733C145.507 213.262 145.655 213.882 145.655 214.593C145.655 214.645 145.651 214.705 145.642 214.775C145.642 214.844 145.638 214.909 145.629 214.97H139.764V214.073H144.979L144.471 214.385C144.48 213.942 144.389 213.548 144.198 213.201C144.008 212.854 143.743 212.586 143.405 212.395C143.076 212.195 142.69 212.096 142.248 212.096C141.814 212.096 141.428 212.195 141.09 212.395C140.752 212.586 140.488 212.859 140.297 213.214C140.106 213.561 140.011 213.96 140.011 214.411V214.619C140.011 215.078 140.115 215.49 140.323 215.854C140.54 216.21 140.839 216.487 141.22 216.686C141.602 216.886 142.039 216.986 142.534 216.986C142.941 216.986 143.31 216.916 143.639 216.778C143.977 216.639 144.272 216.431 144.523 216.153L145.213 216.96C144.901 217.324 144.51 217.601 144.042 217.792C143.583 217.983 143.067 218.078 142.495 218.078ZM151.477 218V216.543L151.412 216.27V213.786C151.412 213.258 151.256 212.85 150.943 212.564C150.64 212.269 150.18 212.122 149.565 212.122C149.157 212.122 148.759 212.191 148.368 212.33C147.978 212.46 147.649 212.638 147.38 212.863L146.86 211.927C147.215 211.641 147.64 211.424 148.134 211.276C148.637 211.12 149.162 211.042 149.708 211.042C150.653 211.042 151.381 211.272 151.893 211.732C152.404 212.191 152.66 212.893 152.66 213.838V218H151.477ZM149.214 218.078C148.702 218.078 148.251 217.991 147.861 217.818C147.48 217.645 147.185 217.406 146.977 217.103C146.769 216.791 146.665 216.439 146.665 216.049C146.665 215.676 146.751 215.338 146.925 215.035C147.107 214.731 147.397 214.489 147.796 214.307C148.204 214.125 148.75 214.033 149.435 214.033H151.62V214.931H149.487C148.863 214.931 148.442 215.035 148.225 215.243C148.009 215.451 147.9 215.702 147.9 215.997C147.9 216.335 148.035 216.608 148.303 216.817C148.572 217.016 148.945 217.116 149.422 217.116C149.89 217.116 150.298 217.012 150.644 216.804C151 216.595 151.256 216.292 151.412 215.893L151.659 216.752C151.494 217.159 151.204 217.484 150.787 217.727C150.371 217.961 149.847 218.078 149.214 218.078ZM154.971 218V211.107H156.167V212.98L156.05 212.512C156.241 212.035 156.561 211.671 157.012 211.419C157.463 211.168 158.018 211.042 158.677 211.042V212.252C158.625 212.243 158.573 212.239 158.521 212.239C158.478 212.239 158.434 212.239 158.391 212.239C157.723 212.239 157.194 212.438 156.804 212.837C156.414 213.236 156.219 213.812 156.219 214.567V218H154.971ZM162.862 218.078C162.168 218.078 161.631 217.892 161.249 217.519C160.868 217.146 160.677 216.613 160.677 215.919V209.599H161.926V215.867C161.926 216.24 162.017 216.526 162.199 216.726C162.389 216.925 162.658 217.025 163.005 217.025C163.395 217.025 163.72 216.916 163.98 216.7L164.371 217.597C164.18 217.762 163.95 217.883 163.681 217.961C163.421 218.039 163.148 218.078 162.862 218.078ZM159.507 212.135V211.107H163.902V212.135H159.507ZM166.052 220.601C165.723 220.601 165.402 220.545 165.09 220.432C164.778 220.328 164.509 220.172 164.283 219.964L164.817 219.027C164.99 219.192 165.181 219.318 165.389 219.405C165.597 219.491 165.818 219.535 166.052 219.535C166.356 219.535 166.607 219.457 166.806 219.3C167.006 219.144 167.192 218.867 167.366 218.468L167.795 217.519L167.925 217.363L170.63 211.107H171.852L168.51 218.689C168.311 219.175 168.085 219.556 167.834 219.834C167.591 220.111 167.322 220.306 167.027 220.419C166.733 220.54 166.408 220.601 166.052 220.601ZM167.691 218.221L164.543 211.107H165.844L168.523 217.246L167.691 218.221ZM34.0605 237.078C33.4883 237.078 32.9421 237 32.4219 236.844C31.9103 236.688 31.5072 236.497 31.2124 236.272L31.7326 235.283C32.0274 235.483 32.3915 235.652 32.825 235.791C33.2585 235.929 33.7007 235.999 34.1515 235.999C34.7324 235.999 35.1486 235.916 35.4 235.752C35.6601 235.587 35.7902 235.357 35.7902 235.062C35.7902 234.846 35.7121 234.676 35.5561 234.555C35.4 234.434 35.1919 234.343 34.9318 234.282C34.6804 234.221 34.3986 234.169 34.0865 234.126C33.7744 234.074 33.4623 234.013 33.1502 233.944C32.838 233.866 32.5519 233.762 32.2918 233.632C32.0317 233.493 31.8236 233.307 31.6676 233.073C31.5115 232.83 31.4335 232.509 31.4335 232.11C31.4335 231.694 31.5505 231.33 31.7846 231.018C32.0187 230.706 32.3482 230.467 32.773 230.302C33.2065 230.129 33.718 230.042 34.3076 230.042C34.7584 230.042 35.2136 230.099 35.6731 230.211C36.1413 230.315 36.5228 230.467 36.8176 230.667L36.2843 231.655C35.9722 231.447 35.6471 231.304 35.309 231.226C34.9708 231.148 34.6327 231.109 34.2946 231.109C33.7484 231.109 33.3409 231.2 33.0721 231.382C32.8034 231.555 32.669 231.781 32.669 232.058C32.669 232.292 32.747 232.474 32.9031 232.604C33.0678 232.726 33.2759 232.821 33.5273 232.89C33.7874 232.96 34.0735 233.02 34.3856 233.073C34.6977 233.116 35.0099 233.177 35.322 233.255C35.6341 233.324 35.9159 233.424 36.1673 233.554C36.4274 233.684 36.6355 233.866 36.7915 234.1C36.9563 234.334 37.0386 234.646 37.0386 235.036C37.0386 235.452 36.9173 235.812 36.6745 236.116C36.4317 236.419 36.0893 236.658 35.6471 236.831C35.2049 236.996 34.6761 237.078 34.0605 237.078ZM41.6681 237.078C40.9311 237.078 40.2809 236.926 39.7174 236.623C39.1625 236.319 38.729 235.903 38.4169 235.374C38.1134 234.846 37.9617 234.239 37.9617 233.554C37.9617 232.869 38.1091 232.262 38.4039 231.733C38.7073 231.204 39.1191 230.792 39.6393 230.498C40.1682 230.194 40.7621 230.042 41.421 230.042C42.0886 230.042 42.6782 230.19 43.1897 230.485C43.7012 230.779 44.1 231.195 44.3861 231.733C44.6809 232.262 44.8283 232.882 44.8283 233.593C44.8283 233.645 44.824 233.705 44.8153 233.775C44.8153 233.844 44.811 233.909 44.8023 233.97H38.9371V233.073H44.152L43.6449 233.385C43.6535 232.942 43.5625 232.548 43.3717 232.201C43.181 231.854 42.9166 231.586 42.5784 231.395C42.249 231.195 41.8632 231.096 41.421 231.096C40.9875 231.096 40.6017 231.195 40.2636 231.395C39.9254 231.586 39.661 231.859 39.4703 232.214C39.2795 232.561 39.1841 232.96 39.1841 233.411V233.619C39.1841 234.078 39.2882 234.49 39.4963 234.854C39.713 235.21 40.0121 235.487 40.3936 235.686C40.7751 235.886 41.2129 235.986 41.7071 235.986C42.1146 235.986 42.4831 235.916 42.8125 235.778C43.1507 235.639 43.4454 235.431 43.6969 235.153L44.3861 235.96C44.074 236.324 43.6839 236.601 43.2157 236.792C42.7562 236.983 42.2403 237.078 41.6681 237.078ZM46.5619 237V230.107H47.7584V231.98L47.6413 231.512C47.8321 231.035 48.1529 230.671 48.6037 230.419C49.0545 230.168 49.6094 230.042 50.2683 230.042V231.252C50.2163 231.243 50.1643 231.239 50.1123 231.239C50.0689 231.239 50.0256 231.239 49.9822 231.239C49.3146 231.239 48.7858 231.438 48.3956 231.837C48.0055 232.236 47.8104 232.812 47.8104 233.567V237H46.5619ZM53.8942 237L50.877 230.107H52.1775L54.8566 236.35H54.2323L56.9634 230.107H58.1858L55.1687 237H53.8942ZM59.351 237V230.107H60.5995V237H59.351ZM59.9752 228.781C59.7325 228.781 59.5287 228.703 59.364 228.547C59.2079 228.391 59.1299 228.2 59.1299 227.975C59.1299 227.74 59.2079 227.545 59.364 227.389C59.5287 227.233 59.7325 227.155 59.9752 227.155C60.218 227.155 60.4174 227.233 60.5735 227.389C60.7382 227.537 60.8206 227.723 60.8206 227.949C60.8206 228.183 60.7425 228.382 60.5865 228.547C60.4304 228.703 60.2267 228.781 59.9752 228.781ZM66.6636 230.042C67.2272 230.042 67.7214 230.151 68.1462 230.367C68.5797 230.584 68.9178 230.914 69.1606 231.356C69.4034 231.798 69.5247 232.357 69.5247 233.033V237H68.2763V233.177C68.2763 232.509 68.1115 232.006 67.7821 231.668C67.4613 231.33 67.0061 231.161 66.4165 231.161C65.9744 231.161 65.5886 231.247 65.2591 231.421C64.9296 231.594 64.6739 231.85 64.4918 232.188C64.3184 232.526 64.2317 232.947 64.2317 233.45V237H62.9832V230.107H64.1797V231.967L63.9846 231.473C64.21 231.022 64.5568 230.671 65.025 230.419C65.4932 230.168 66.0394 230.042 66.6636 230.042ZM74.8524 239.601C74.2195 239.601 73.6039 239.51 73.0057 239.328C72.4161 239.154 71.935 238.903 71.5621 238.574L72.1604 237.611C72.4812 237.889 72.8756 238.105 73.3438 238.261C73.812 238.426 74.3019 238.509 74.8134 238.509C75.6284 238.509 76.2266 238.318 76.6081 237.936C76.9895 237.555 77.1803 236.974 77.1803 236.194V234.737L77.3103 233.372L77.2453 231.993V230.107H78.4288V236.064C78.4288 237.277 78.1253 238.17 77.5184 238.743C76.9115 239.315 76.0228 239.601 74.8524 239.601ZM74.6963 236.714C74.0288 236.714 73.4305 236.575 72.9017 236.298C72.3815 236.012 71.9653 235.617 71.6532 235.114C71.3497 234.611 71.198 234.031 71.198 233.372C71.198 232.704 71.3497 232.123 71.6532 231.629C71.9653 231.126 72.3815 230.736 72.9017 230.459C73.4305 230.181 74.0288 230.042 74.6963 230.042C75.2859 230.042 75.8234 230.164 76.309 230.406C76.7945 230.641 77.1803 231.005 77.4664 231.499C77.7612 231.993 77.9086 232.617 77.9086 233.372C77.9086 234.117 77.7612 234.737 77.4664 235.231C77.1803 235.726 76.7945 236.098 76.309 236.35C75.8234 236.593 75.2859 236.714 74.6963 236.714ZM74.8394 235.621C75.2989 235.621 75.7064 235.526 76.0619 235.335C76.4173 235.145 76.6948 234.88 76.8942 234.542C77.1023 234.204 77.2063 233.814 77.2063 233.372C77.2063 232.929 77.1023 232.539 76.8942 232.201C76.6948 231.863 76.4173 231.603 76.0619 231.421C75.7064 231.23 75.2989 231.135 74.8394 231.135C74.3799 231.135 73.9681 231.23 73.6039 231.421C73.2485 231.603 72.9667 231.863 72.7586 232.201C72.5592 232.539 72.4595 232.929 72.4595 233.372C72.4595 233.814 72.5592 234.204 72.7586 234.542C72.9667 234.88 73.2485 235.145 73.6039 235.335C73.9681 235.526 74.3799 235.621 74.8394 235.621ZM82.791 237.078C82.2188 237.078 81.6726 237 81.1524 236.844C80.6409 236.688 80.2377 236.497 79.9429 236.272L80.4631 235.283C80.7579 235.483 81.122 235.652 81.5555 235.791C81.989 235.929 82.4312 235.999 82.8821 235.999C83.4629 235.999 83.8791 235.916 84.1305 235.752C84.3906 235.587 84.5207 235.357 84.5207 235.062C84.5207 234.846 84.4426 234.676 84.2866 234.555C84.1305 234.434 83.9224 234.343 83.6623 234.282C83.4109 234.221 83.1291 234.169 82.817 234.126C82.5049 234.074 82.1928 234.013 81.8807 233.944C81.5685 233.866 81.2824 233.762 81.0223 233.632C80.7622 233.493 80.5542 233.307 80.3981 233.073C80.242 232.83 80.164 232.509 80.164 232.11C80.164 231.694 80.2811 231.33 80.5151 231.018C80.7492 230.706 81.0787 230.467 81.5035 230.302C81.937 230.129 82.4486 230.042 83.0381 230.042C83.4889 230.042 83.9441 230.099 84.4036 230.211C84.8718 230.315 85.2533 230.467 85.5481 230.667L85.0149 231.655C84.7027 231.447 84.3776 231.304 84.0395 231.226C83.7014 231.148 83.3632 231.109 83.0251 231.109C82.4789 231.109 82.0714 231.2 81.8026 231.382C81.5339 231.555 81.3995 231.781 81.3995 232.058C81.3995 232.292 81.4775 232.474 81.6336 232.604C81.7983 232.726 82.0064 232.821 82.2578 232.89C82.5179 232.96 82.804 233.02 83.1161 233.073C83.4283 233.116 83.7404 233.177 84.0525 233.255C84.3646 233.324 84.6464 233.424 84.8978 233.554C85.1579 233.684 85.366 233.866 85.5221 234.1C85.6868 234.334 85.7692 234.646 85.7692 235.036C85.7692 235.452 85.6478 235.812 85.405 236.116C85.1623 236.419 84.8198 236.658 84.3776 236.831C83.9355 236.996 83.4066 237.078 82.791 237.078ZM86.8353 238.925L87.4855 236.298L87.6546 237.052C87.4031 237.052 87.1907 236.974 87.0173 236.818C86.8526 236.662 86.7702 236.449 86.7702 236.181C86.7702 235.921 86.8526 235.708 87.0173 235.543C87.1907 235.379 87.3988 235.296 87.6416 235.296C87.893 235.296 88.0967 235.383 88.2528 235.556C88.4089 235.721 88.4869 235.929 88.4869 236.181C88.4869 236.267 88.4782 236.354 88.4609 236.441C88.4522 236.519 88.4305 236.614 88.3959 236.727C88.3698 236.831 88.3265 236.961 88.2658 237.117L87.6546 238.925H86.8353ZM96.7726 237.078C96.0703 237.078 95.4417 236.926 94.8869 236.623C94.3406 236.319 93.9115 235.903 93.5994 235.374C93.2872 234.846 93.1312 234.239 93.1312 233.554C93.1312 232.869 93.2872 232.262 93.5994 231.733C93.9115 231.204 94.3406 230.792 94.8869 230.498C95.4417 230.194 96.0703 230.042 96.7726 230.042C97.3968 230.042 97.9517 230.168 98.4372 230.419C98.9314 230.662 99.3129 231.026 99.5816 231.512L98.6323 232.123C98.4069 231.785 98.1294 231.538 97.8 231.382C97.4792 231.217 97.1324 231.135 96.7596 231.135C96.3087 231.135 95.9056 231.234 95.5501 231.434C95.1946 231.633 94.9129 231.915 94.7048 232.279C94.4967 232.635 94.3927 233.059 94.3927 233.554C94.3927 234.048 94.4967 234.477 94.7048 234.841C94.9129 235.205 95.1946 235.487 95.5501 235.686C95.9056 235.886 96.3087 235.986 96.7596 235.986C97.1324 235.986 97.4792 235.908 97.8 235.752C98.1294 235.587 98.4069 235.335 98.6323 234.997L99.5816 235.595C99.3129 236.072 98.9314 236.441 98.4372 236.701C97.9517 236.952 97.3968 237.078 96.7726 237.078ZM104.049 237.078C103.355 237.078 102.739 236.926 102.202 236.623C101.664 236.319 101.239 235.903 100.927 235.374C100.615 234.837 100.459 234.23 100.459 233.554C100.459 232.869 100.615 232.262 100.927 231.733C101.239 231.204 101.664 230.792 102.202 230.498C102.739 230.194 103.355 230.042 104.049 230.042C104.733 230.042 105.345 230.194 105.882 230.498C106.428 230.792 106.853 231.204 107.157 231.733C107.469 232.253 107.625 232.86 107.625 233.554C107.625 234.239 107.469 234.846 107.157 235.374C106.853 235.903 106.428 236.319 105.882 236.623C105.345 236.926 104.733 237.078 104.049 237.078ZM104.049 235.986C104.491 235.986 104.885 235.886 105.232 235.686C105.587 235.487 105.865 235.205 106.064 234.841C106.264 234.468 106.363 234.039 106.363 233.554C106.363 233.059 106.264 232.635 106.064 232.279C105.865 231.915 105.587 231.633 105.232 231.434C104.885 231.234 104.491 231.135 104.049 231.135C103.606 231.135 103.212 231.234 102.865 231.434C102.518 231.633 102.241 231.915 102.033 232.279C101.825 232.635 101.721 233.059 101.721 233.554C101.721 234.039 101.825 234.468 102.033 234.841C102.241 235.205 102.518 235.487 102.865 235.686C103.212 235.886 103.606 235.986 104.049 235.986ZM117.974 230.042C118.529 230.042 119.019 230.151 119.443 230.367C119.868 230.584 120.198 230.914 120.432 231.356C120.675 231.798 120.796 232.357 120.796 233.033V237H119.547V233.177C119.547 232.509 119.391 232.006 119.079 231.668C118.767 231.33 118.329 231.161 117.766 231.161C117.35 231.161 116.985 231.247 116.673 231.421C116.361 231.594 116.118 231.85 115.945 232.188C115.78 232.526 115.698 232.947 115.698 233.45V237H114.449V233.177C114.449 232.509 114.293 232.006 113.981 231.668C113.678 231.33 113.24 231.161 112.668 231.161C112.26 231.161 111.9 231.247 111.588 231.421C111.276 231.594 111.033 231.85 110.86 232.188C110.687 232.526 110.6 232.947 110.6 233.45V237H109.352V230.107H110.548V231.941L110.353 231.473C110.57 231.022 110.903 230.671 111.354 230.419C111.805 230.168 112.33 230.042 112.928 230.042C113.587 230.042 114.155 230.207 114.632 230.537C115.108 230.857 115.421 231.347 115.568 232.006L115.061 231.798C115.269 231.269 115.633 230.844 116.153 230.524C116.673 230.203 117.28 230.042 117.974 230.042ZM126.747 237.078C126.158 237.078 125.625 236.948 125.148 236.688C124.68 236.419 124.307 236.025 124.029 235.504C123.761 234.984 123.626 234.334 123.626 233.554C123.626 232.773 123.765 232.123 124.042 231.603C124.329 231.083 124.706 230.693 125.174 230.432C125.651 230.172 126.175 230.042 126.747 230.042C127.424 230.042 128.022 230.19 128.542 230.485C129.062 230.779 129.474 231.191 129.778 231.72C130.081 232.24 130.233 232.851 130.233 233.554C130.233 234.256 130.081 234.872 129.778 235.4C129.474 235.929 129.062 236.341 128.542 236.636C128.022 236.931 127.424 237.078 126.747 237.078ZM123.093 237V227.35H124.342V231.941L124.212 233.541L124.29 235.14V237H123.093ZM126.643 235.986C127.086 235.986 127.48 235.886 127.827 235.686C128.182 235.487 128.46 235.205 128.659 234.841C128.867 234.468 128.971 234.039 128.971 233.554C128.971 233.059 128.867 232.635 128.659 232.279C128.46 231.915 128.182 231.633 127.827 231.434C127.48 231.234 127.086 231.135 126.643 231.135C126.21 231.135 125.815 231.234 125.46 231.434C125.113 231.633 124.836 231.915 124.628 232.279C124.428 232.635 124.329 233.059 124.329 233.554C124.329 234.039 124.428 234.468 124.628 234.841C124.836 235.205 125.113 235.487 125.46 235.686C125.815 235.886 126.21 235.986 126.643 235.986ZM134.91 237.078C134.216 237.078 133.601 236.926 133.063 236.623C132.526 236.319 132.101 235.903 131.789 235.374C131.477 234.837 131.321 234.23 131.321 233.554C131.321 232.869 131.477 232.262 131.789 231.733C132.101 231.204 132.526 230.792 133.063 230.498C133.601 230.194 134.216 230.042 134.91 230.042C135.595 230.042 136.206 230.194 136.744 230.498C137.29 230.792 137.715 231.204 138.018 231.733C138.33 232.253 138.486 232.86 138.486 233.554C138.486 234.239 138.33 234.846 138.018 235.374C137.715 235.903 137.29 236.319 136.744 236.623C136.206 236.926 135.595 237.078 134.91 237.078ZM134.91 235.986C135.352 235.986 135.747 235.886 136.093 235.686C136.449 235.487 136.726 235.205 136.926 234.841C137.125 234.468 137.225 234.039 137.225 233.554C137.225 233.059 137.125 232.635 136.926 232.279C136.726 231.915 136.449 231.633 136.093 231.434C135.747 231.234 135.352 231.135 134.91 231.135C134.468 231.135 134.073 231.234 133.726 231.434C133.38 231.633 133.102 231.915 132.894 232.279C132.686 232.635 132.582 233.059 132.582 233.554C132.582 234.039 132.686 234.468 132.894 234.841C133.102 235.205 133.38 235.487 133.726 235.686C134.073 235.886 134.468 235.986 134.91 235.986ZM152.328 230.042C152.883 230.042 153.372 230.151 153.797 230.367C154.222 230.584 154.552 230.914 154.786 231.356C155.028 231.798 155.15 232.357 155.15 233.033V237H153.901V233.177C153.901 232.509 153.745 232.006 153.433 231.668C153.121 231.33 152.683 231.161 152.12 231.161C151.704 231.161 151.339 231.247 151.027 231.421C150.715 231.594 150.472 231.85 150.299 232.188C150.134 232.526 150.052 232.947 150.052 233.45V237H148.803V233.177C148.803 232.509 148.647 232.006 148.335 231.668C148.032 231.33 147.594 231.161 147.022 231.161C146.614 231.161 146.254 231.247 145.942 231.421C145.63 231.594 145.387 231.85 145.214 232.188C145.041 232.526 144.954 232.947 144.954 233.45V237H143.705V230.107H144.902V231.941L144.707 231.473C144.924 231.022 145.257 230.671 145.708 230.419C146.159 230.168 146.684 230.042 147.282 230.042C147.941 230.042 148.509 230.207 148.985 230.537C149.462 230.857 149.774 231.347 149.922 232.006L149.415 231.798C149.623 231.269 149.987 230.844 150.507 230.524C151.027 230.203 151.634 230.042 152.328 230.042ZM160.516 237.078C159.779 237.078 159.129 236.926 158.565 236.623C158.011 236.319 157.577 235.903 157.265 235.374C156.962 234.846 156.81 234.239 156.81 233.554C156.81 232.869 156.957 232.262 157.252 231.733C157.555 231.204 157.967 230.792 158.487 230.498C159.016 230.194 159.61 230.042 160.269 230.042C160.937 230.042 161.526 230.19 162.038 230.485C162.549 230.779 162.948 231.195 163.234 231.733C163.529 232.262 163.676 232.882 163.676 233.593C163.676 233.645 163.672 233.705 163.663 233.775C163.663 233.844 163.659 233.909 163.65 233.97H157.785V233.073H163L162.493 233.385C162.502 232.942 162.411 232.548 162.22 232.201C162.029 231.854 161.765 231.586 161.427 231.395C161.097 231.195 160.711 231.096 160.269 231.096C159.836 231.096 159.45 231.195 159.112 231.395C158.774 231.586 158.509 231.859 158.318 232.214C158.128 232.561 158.032 232.96 158.032 233.411V233.619C158.032 234.078 158.136 234.49 158.344 234.854C158.561 235.21 158.86 235.487 159.242 235.686C159.623 235.886 160.061 235.986 160.555 235.986C160.963 235.986 161.331 235.916 161.661 235.778C161.999 235.639 162.294 235.431 162.545 235.153L163.234 235.96C162.922 236.324 162.532 236.601 162.064 236.792C161.604 236.983 161.088 237.078 160.516 237.078ZM169.498 237V235.543L169.433 235.27V232.786C169.433 232.258 169.277 231.85 168.965 231.564C168.662 231.269 168.202 231.122 167.586 231.122C167.179 231.122 166.78 231.191 166.39 231.33C166 231.46 165.67 231.638 165.402 231.863L164.881 230.927C165.237 230.641 165.662 230.424 166.156 230.276C166.659 230.12 167.183 230.042 167.729 230.042C168.675 230.042 169.403 230.272 169.914 230.732C170.426 231.191 170.682 231.893 170.682 232.838V237H169.498ZM167.235 237.078C166.724 237.078 166.273 236.991 165.883 236.818C165.501 236.645 165.207 236.406 164.998 236.103C164.79 235.791 164.686 235.439 164.686 235.049C164.686 234.676 164.773 234.338 164.946 234.035C165.128 233.731 165.419 233.489 165.818 233.307C166.225 233.125 166.771 233.033 167.456 233.033H169.641V233.931H167.508C166.884 233.931 166.464 234.035 166.247 234.243C166.03 234.451 165.922 234.702 165.922 234.997C165.922 235.335 166.056 235.608 166.325 235.817C166.594 236.016 166.967 236.116 167.443 236.116C167.912 236.116 168.319 236.012 168.666 235.804C169.021 235.595 169.277 235.292 169.433 234.893L169.68 235.752C169.515 236.159 169.225 236.484 168.809 236.727C168.393 236.961 167.868 237.078 167.235 237.078ZM172.992 237V227.35H174.241V237H172.992ZM178.601 237.078C178.029 237.078 177.483 237 176.962 236.844C176.451 236.688 176.048 236.497 175.753 236.272L176.273 235.283C176.568 235.483 176.932 235.652 177.366 235.791C177.799 235.929 178.241 235.999 178.692 235.999C179.273 235.999 179.689 235.916 179.941 235.752C180.201 235.587 180.331 235.357 180.331 235.062C180.331 234.846 180.253 234.676 180.097 234.555C179.941 234.434 179.732 234.343 179.472 234.282C179.221 234.221 178.939 234.169 178.627 234.126C178.315 234.074 178.003 234.013 177.691 233.944C177.379 233.866 177.092 233.762 176.832 233.632C176.572 233.493 176.364 233.307 176.208 233.073C176.052 232.83 175.974 232.509 175.974 232.11C175.974 231.694 176.091 231.33 176.325 231.018C176.559 230.706 176.889 230.467 177.314 230.302C177.747 230.129 178.259 230.042 178.848 230.042C179.299 230.042 179.754 230.099 180.214 230.211C180.682 230.315 181.063 230.467 181.358 230.667L180.825 231.655C180.513 231.447 180.188 231.304 179.85 231.226C179.511 231.148 179.173 231.109 178.835 231.109C178.289 231.109 177.881 231.2 177.613 231.382C177.344 231.555 177.21 231.781 177.21 232.058C177.21 232.292 177.288 232.474 177.444 232.604C177.608 232.726 177.816 232.821 178.068 232.89C178.328 232.96 178.614 233.02 178.926 233.073C179.238 233.116 179.55 233.177 179.863 233.255C180.175 233.324 180.456 233.424 180.708 233.554C180.968 233.684 181.176 233.866 181.332 234.1C181.497 234.334 181.579 234.646 181.579 235.036C181.579 235.452 181.458 235.812 181.215 236.116C180.972 236.419 180.63 236.658 180.188 236.831C179.745 236.996 179.217 237.078 178.601 237.078ZM182.645 238.925L183.296 236.298L183.465 237.052C183.213 237.052 183.001 236.974 182.827 236.818C182.663 236.662 182.58 236.449 182.58 236.181C182.58 235.921 182.663 235.708 182.827 235.543C183.001 235.379 183.209 235.296 183.452 235.296C183.703 235.296 183.907 235.383 184.063 235.556C184.219 235.721 184.297 235.929 184.297 236.181C184.297 236.267 184.288 236.354 184.271 236.441C184.262 236.519 184.241 236.614 184.206 236.727C184.18 236.831 184.136 236.961 184.076 237.117L183.465 238.925H182.645ZM41.5909 257V255.491L41.5519 255.244V252.721C41.5519 252.14 41.3872 251.694 41.0577 251.382C40.7369 251.07 40.2558 250.914 39.6142 250.914C39.172 250.914 38.7515 250.987 38.3527 251.135C37.9539 251.282 37.6157 251.477 37.3383 251.72L36.9221 251.031C37.2689 250.736 37.6851 250.511 38.1706 250.354C38.6561 250.19 39.1677 250.107 39.7052 250.107C40.5895 250.107 41.2701 250.328 41.747 250.771C42.2325 251.204 42.4753 251.867 42.4753 252.76V257H41.5909ZM39.237 257.065C38.7255 257.065 38.279 256.983 37.8975 256.818C37.5247 256.645 37.2386 256.41 37.0392 256.116C36.8398 255.812 36.7401 255.465 36.7401 255.075C36.7401 254.72 36.8224 254.399 36.9872 254.113C37.1606 253.818 37.438 253.584 37.8195 253.411C38.2096 253.229 38.7298 253.138 39.3801 253.138H41.734V253.827H39.4061C38.7472 253.827 38.2877 253.944 38.0276 254.178C37.7761 254.412 37.6504 254.702 37.6504 255.049C37.6504 255.439 37.8021 255.752 38.1056 255.986C38.409 256.22 38.8339 256.337 39.3801 256.337C39.9003 256.337 40.3468 256.22 40.7196 255.986C41.1011 255.743 41.3785 255.396 41.5519 254.945L41.76 255.582C41.5866 256.033 41.2831 256.393 40.8496 256.662C40.4248 256.931 39.8873 257.065 39.237 257.065ZM48.4685 250.107C49.0234 250.107 49.5089 250.216 49.9251 250.432C50.3499 250.641 50.6794 250.961 50.9135 251.395C51.1562 251.828 51.2776 252.375 51.2776 253.033V257H50.3542V253.125C50.3542 252.405 50.1722 251.863 49.808 251.499C49.4526 251.126 48.9497 250.94 48.2995 250.94C47.8139 250.94 47.3891 251.039 47.025 251.239C46.6695 251.43 46.3921 251.711 46.1927 252.084C46.0019 252.448 45.9065 252.89 45.9065 253.411V257H44.9832V250.172H45.8675V252.045L45.7245 251.694C45.9412 251.2 46.288 250.814 46.7649 250.537C47.2417 250.25 47.8096 250.107 48.4685 250.107ZM56.4897 257.065C55.8395 257.065 55.2543 256.918 54.7341 256.623C54.2225 256.328 53.8194 255.921 53.5246 255.4C53.2298 254.872 53.0824 254.265 53.0824 253.58C53.0824 252.886 53.2298 252.279 53.5246 251.759C53.8194 251.239 54.2225 250.836 54.7341 250.55C55.2543 250.255 55.8395 250.107 56.4897 250.107C57.088 250.107 57.6212 250.242 58.0894 250.511C58.5662 250.779 58.9433 251.174 59.2208 251.694C59.5069 252.206 59.6499 252.834 59.6499 253.58C59.6499 254.317 59.5112 254.945 59.2338 255.465C58.9563 255.986 58.5792 256.384 58.1024 256.662C57.6342 256.931 57.0966 257.065 56.4897 257.065ZM56.5548 256.246C57.0403 256.246 57.4738 256.137 57.8553 255.921C58.2454 255.695 58.5489 255.383 58.7656 254.984C58.991 254.577 59.1037 254.109 59.1037 253.58C59.1037 253.042 58.991 252.574 58.7656 252.175C58.5489 251.776 58.2454 251.469 57.8553 251.252C57.4738 251.026 57.0403 250.914 56.5548 250.914C56.0779 250.914 55.6488 251.026 55.2673 251.252C54.8858 251.469 54.5823 251.776 54.3569 252.175C54.1315 252.574 54.0188 253.042 54.0188 253.58C54.0188 254.109 54.1315 254.577 54.3569 254.984C54.5823 255.383 54.8858 255.695 55.2673 255.921C55.6488 256.137 56.0779 256.246 56.5548 256.246ZM59.1297 257V254.945L59.2208 253.567L59.0907 252.188V247.35H60.0141V257H59.1297ZM66.1562 257V249.496C66.1562 248.82 66.3513 248.282 66.7414 247.884C67.1402 247.476 67.7038 247.272 68.4321 247.272C68.7008 247.272 68.9566 247.307 69.1993 247.376C69.4508 247.437 69.6632 247.537 69.8366 247.675L69.4594 248.625C69.3294 248.521 69.182 248.443 69.0173 248.391C68.8525 248.33 68.6791 248.3 68.4971 248.3C68.1329 248.3 67.8555 248.404 67.6648 248.612C67.474 248.811 67.3787 249.11 67.3787 249.509V250.432L67.4047 251.005V257H66.1562ZM64.9857 251.135V250.107H69.3814V251.135H64.9857ZM73.4094 257.078C72.7158 257.078 72.1002 256.926 71.5627 256.623C71.0252 256.319 70.6003 255.903 70.2882 255.374C69.9761 254.837 69.82 254.23 69.82 253.554C69.82 252.869 69.9761 252.262 70.2882 251.733C70.6003 251.204 71.0252 250.792 71.5627 250.498C72.1002 250.194 72.7158 250.042 73.4094 250.042C74.0943 250.042 74.7056 250.194 75.2431 250.498C75.7893 250.792 76.2141 251.204 76.5176 251.733C76.8297 252.253 76.9858 252.86 76.9858 253.554C76.9858 254.239 76.8297 254.846 76.5176 255.374C76.2141 255.903 75.7893 256.319 75.2431 256.623C74.7056 256.926 74.0943 257.078 73.4094 257.078ZM73.4094 255.986C73.8516 255.986 74.2461 255.886 74.5929 255.686C74.9483 255.487 75.2258 255.205 75.4252 254.841C75.6246 254.468 75.7243 254.039 75.7243 253.554C75.7243 253.059 75.6246 252.635 75.4252 252.279C75.2258 251.915 74.9483 251.633 74.5929 251.434C74.2461 251.234 73.8516 251.135 73.4094 251.135C72.9672 251.135 72.5727 251.234 72.2259 251.434C71.8792 251.633 71.6017 251.915 71.3936 252.279C71.1856 252.635 71.0815 253.059 71.0815 253.554C71.0815 254.039 71.1856 254.468 71.3936 254.841C71.6017 255.205 71.8792 255.487 72.2259 255.686C72.5727 255.886 72.9672 255.986 73.4094 255.986ZM81.6645 257.078C80.9709 257.078 80.3553 256.926 79.8178 256.623C79.2803 256.319 78.8554 255.903 78.5433 255.374C78.2312 254.837 78.0751 254.23 78.0751 253.554C78.0751 252.869 78.2312 252.262 78.5433 251.733C78.8554 251.204 79.2803 250.792 79.8178 250.498C80.3553 250.194 80.9709 250.042 81.6645 250.042C82.3494 250.042 82.9607 250.194 83.4982 250.498C84.0444 250.792 84.4692 251.204 84.7727 251.733C85.0848 252.253 85.2409 252.86 85.2409 253.554C85.2409 254.239 85.0848 254.846 84.7727 255.374C84.4692 255.903 84.0444 256.319 83.4982 256.623C82.9607 256.926 82.3494 257.078 81.6645 257.078ZM81.6645 255.986C82.1067 255.986 82.5012 255.886 82.848 255.686C83.2034 255.487 83.4809 255.205 83.6803 254.841C83.8797 254.468 83.9794 254.039 83.9794 253.554C83.9794 253.059 83.8797 252.635 83.6803 252.279C83.4809 251.915 83.2034 251.633 82.848 251.434C82.5012 251.234 82.1067 251.135 81.6645 251.135C81.2223 251.135 80.8279 251.234 80.4811 251.434C80.1343 251.633 79.8568 251.915 79.6487 252.279C79.4407 252.635 79.3366 253.059 79.3366 253.554C79.3366 254.039 79.4407 254.468 79.6487 254.841C79.8568 255.205 80.1343 255.487 80.4811 255.686C80.8279 255.886 81.2223 255.986 81.6645 255.986ZM89.8156 257.078C89.148 257.078 88.5498 256.931 88.0209 256.636C87.5007 256.341 87.0889 255.929 86.7854 255.4C86.482 254.872 86.3302 254.256 86.3302 253.554C86.3302 252.851 86.482 252.24 86.7854 251.72C87.0889 251.191 87.5007 250.779 88.0209 250.485C88.5498 250.19 89.148 250.042 89.8156 250.042C90.3965 250.042 90.921 250.172 91.3892 250.432C91.8574 250.693 92.2302 251.083 92.5076 251.603C92.7937 252.123 92.9368 252.773 92.9368 253.554C92.9368 254.334 92.798 254.984 92.5206 255.504C92.2518 256.025 91.8834 256.419 91.4152 256.688C90.947 256.948 90.4138 257.078 89.8156 257.078ZM89.9196 255.986C90.3531 255.986 90.7433 255.886 91.0901 255.686C91.4455 255.487 91.723 255.205 91.9224 254.841C92.1305 254.468 92.2345 254.039 92.2345 253.554C92.2345 253.059 92.1305 252.635 91.9224 252.279C91.723 251.915 91.4455 251.633 91.0901 251.434C90.7433 251.234 90.3531 251.135 89.9196 251.135C89.4774 251.135 89.083 251.234 88.7362 251.434C88.3894 251.633 88.1119 251.915 87.9038 252.279C87.6958 252.635 87.5917 253.059 87.5917 253.554C87.5917 254.039 87.6958 254.468 87.9038 254.841C88.1119 255.205 88.3894 255.487 88.7362 255.686C89.083 255.886 89.4774 255.986 89.9196 255.986ZM92.2735 257V255.14L92.3515 253.541L92.2215 251.941V247.35H93.47V257H92.2735ZM102.173 257.078C101.505 257.078 100.907 256.931 100.378 256.636C99.8579 256.341 99.4461 255.929 99.1427 255.4C98.8392 254.872 98.6875 254.256 98.6875 253.554C98.6875 252.851 98.8392 252.24 99.1427 251.72C99.4461 251.191 99.8579 250.779 100.378 250.485C100.907 250.19 101.505 250.042 102.173 250.042C102.754 250.042 103.278 250.172 103.746 250.432C104.215 250.693 104.587 251.083 104.865 251.603C105.151 252.123 105.294 252.773 105.294 253.554C105.294 254.334 105.155 254.984 104.878 255.504C104.609 256.025 104.241 256.419 103.772 256.688C103.304 256.948 102.771 257.078 102.173 257.078ZM102.277 255.986C102.71 255.986 103.101 255.886 103.447 255.686C103.803 255.487 104.08 255.205 104.28 254.841C104.488 254.468 104.592 254.039 104.592 253.554C104.592 253.059 104.488 252.635 104.28 252.279C104.08 251.915 103.803 251.633 103.447 251.434C103.101 251.234 102.71 251.135 102.277 251.135C101.835 251.135 101.44 251.234 101.093 251.434C100.747 251.633 100.469 251.915 100.261 252.279C100.053 252.635 99.949 253.059 99.949 253.554C99.949 254.039 100.053 254.468 100.261 254.841C100.469 255.205 100.747 255.487 101.093 255.686C101.44 255.886 101.835 255.986 102.277 255.986ZM104.631 257V255.14L104.709 253.541L104.579 251.941V247.35H105.827V257H104.631ZM111.259 257.078C110.522 257.078 109.871 256.926 109.308 256.623C108.753 256.319 108.32 255.903 108.007 255.374C107.704 254.846 107.552 254.239 107.552 253.554C107.552 252.869 107.7 252.262 107.994 251.733C108.298 251.204 108.71 250.792 109.23 250.498C109.759 250.194 110.353 250.042 111.012 250.042C111.679 250.042 112.269 250.19 112.78 250.485C113.292 250.779 113.691 251.195 113.977 251.733C114.271 252.262 114.419 252.882 114.419 253.593C114.419 253.645 114.414 253.705 114.406 253.775C114.406 253.844 114.401 253.909 114.393 253.97H108.528V253.073H113.743L113.235 253.385C113.244 252.942 113.153 252.548 112.962 252.201C112.772 251.854 112.507 251.586 112.169 251.395C111.84 251.195 111.454 251.096 111.012 251.096C110.578 251.096 110.192 251.195 109.854 251.395C109.516 251.586 109.252 251.859 109.061 252.214C108.87 252.561 108.775 252.96 108.775 253.411V253.619C108.775 254.078 108.879 254.49 109.087 254.854C109.304 255.21 109.603 255.487 109.984 255.686C110.366 255.886 110.803 255.986 111.298 255.986C111.705 255.986 112.074 255.916 112.403 255.778C112.741 255.639 113.036 255.431 113.287 255.153L113.977 255.96C113.665 256.324 113.274 256.601 112.806 256.792C112.347 256.983 111.831 257.078 111.259 257.078ZM116.152 257V247.35H117.401V257H116.152ZM119.785 257V250.107H121.033V257H119.785ZM120.409 248.781C120.166 248.781 119.962 248.703 119.798 248.547C119.642 248.391 119.564 248.2 119.564 247.975C119.564 247.74 119.642 247.545 119.798 247.389C119.962 247.233 120.166 247.155 120.409 247.155C120.652 247.155 120.851 247.233 121.007 247.389C121.172 247.537 121.254 247.723 121.254 247.949C121.254 248.183 121.176 248.382 121.02 248.547C120.864 248.703 120.66 248.781 120.409 248.781ZM125.225 257L122.207 250.107H123.508L126.187 256.35H125.563L128.294 250.107H129.516L126.499 257H125.225ZM133.56 257.078C132.823 257.078 132.173 256.926 131.609 256.623C131.054 256.319 130.621 255.903 130.309 255.374C130.005 254.846 129.854 254.239 129.854 253.554C129.854 252.869 130.001 252.262 130.296 251.733C130.599 251.204 131.011 250.792 131.531 250.498C132.06 250.194 132.654 250.042 133.313 250.042C133.981 250.042 134.57 250.19 135.082 250.485C135.593 250.779 135.992 251.195 136.278 251.733C136.573 252.262 136.72 252.882 136.72 253.593C136.72 253.645 136.716 253.705 136.707 253.775C136.707 253.844 136.703 253.909 136.694 253.97H130.829V253.073H136.044L135.537 253.385C135.546 252.942 135.455 252.548 135.264 252.201C135.073 251.854 134.809 251.586 134.47 251.395C134.141 251.195 133.755 251.096 133.313 251.096C132.88 251.096 132.494 251.195 132.156 251.395C131.817 251.586 131.553 251.859 131.362 252.214C131.172 252.561 131.076 252.96 131.076 253.411V253.619C131.076 254.078 131.18 254.49 131.388 254.854C131.605 255.21 131.904 255.487 132.286 255.686C132.667 255.886 133.105 255.986 133.599 255.986C134.007 255.986 134.375 255.916 134.705 255.778C135.043 255.639 135.337 255.431 135.589 255.153L136.278 255.96C135.966 256.324 135.576 256.601 135.108 256.792C134.648 256.983 134.132 257.078 133.56 257.078ZM138.454 257V250.107H139.65V251.98L139.533 251.512C139.724 251.035 140.045 250.671 140.496 250.419C140.947 250.168 141.501 250.042 142.16 250.042V251.252C142.108 251.243 142.056 251.239 142.004 251.239C141.961 251.239 141.918 251.239 141.874 251.239C141.207 251.239 140.678 251.438 140.288 251.837C139.897 252.236 139.702 252.812 139.702 253.567V257H138.454ZM144.278 259.601C143.948 259.601 143.627 259.545 143.315 259.432C143.003 259.328 142.734 259.172 142.509 258.964L143.042 258.027C143.216 258.192 143.406 258.318 143.614 258.405C143.822 258.491 144.044 258.535 144.278 258.535C144.581 258.535 144.833 258.457 145.032 258.3C145.231 258.144 145.418 257.867 145.591 257.468L146.02 256.519L146.15 256.363L148.855 250.107H150.078L146.736 257.689C146.536 258.175 146.311 258.556 146.059 258.834C145.817 259.111 145.548 259.306 145.253 259.419C144.958 259.54 144.633 259.601 144.278 259.601ZM145.916 257.221L142.769 250.107H144.07L146.749 256.246L145.916 257.221ZM157.636 257.078C157.046 257.078 156.526 256.97 156.075 256.753C155.633 256.536 155.286 256.207 155.035 255.765C154.792 255.314 154.671 254.75 154.671 254.074V250.107H155.919V253.931C155.919 254.607 156.079 255.114 156.4 255.452C156.73 255.791 157.189 255.96 157.779 255.96C158.212 255.96 158.589 255.873 158.91 255.7C159.231 255.517 159.478 255.257 159.651 254.919C159.825 254.572 159.912 254.156 159.912 253.671V250.107H161.16V257H159.977V255.14L160.172 255.634C159.946 256.094 159.608 256.449 159.157 256.701C158.706 256.952 158.199 257.078 157.636 257.078ZM165.514 257.078C164.941 257.078 164.395 257 163.875 256.844C163.363 256.688 162.96 256.497 162.665 256.272L163.186 255.283C163.48 255.483 163.845 255.652 164.278 255.791C164.712 255.929 165.154 255.999 165.605 255.999C166.185 255.999 166.602 255.916 166.853 255.752C167.113 255.587 167.243 255.357 167.243 255.062C167.243 254.846 167.165 254.676 167.009 254.555C166.853 254.434 166.645 254.343 166.385 254.282C166.133 254.221 165.852 254.169 165.54 254.126C165.227 254.074 164.915 254.013 164.603 253.944C164.291 253.866 164.005 253.762 163.745 253.632C163.485 253.493 163.277 253.307 163.121 253.073C162.965 252.83 162.887 252.509 162.887 252.11C162.887 251.694 163.004 251.33 163.238 251.018C163.472 250.706 163.801 250.467 164.226 250.302C164.66 250.129 165.171 250.042 165.761 250.042C166.211 250.042 166.667 250.099 167.126 250.211C167.594 250.315 167.976 250.467 168.271 250.667L167.737 251.655C167.425 251.447 167.1 251.304 166.762 251.226C166.424 251.148 166.086 251.109 165.748 251.109C165.201 251.109 164.794 251.2 164.525 251.382C164.256 251.555 164.122 251.781 164.122 252.058C164.122 252.292 164.2 252.474 164.356 252.604C164.521 252.726 164.729 252.821 164.98 252.89C165.24 252.96 165.527 253.02 165.839 253.073C166.151 253.116 166.463 253.177 166.775 253.255C167.087 253.324 167.369 253.424 167.62 253.554C167.88 253.684 168.088 253.866 168.245 254.1C168.409 254.334 168.492 254.646 168.492 255.036C168.492 255.452 168.37 255.812 168.128 256.116C167.885 256.419 167.542 256.658 167.1 256.831C166.658 256.996 166.129 257.078 165.514 257.078ZM173.121 257.078C172.384 257.078 171.734 256.926 171.17 256.623C170.616 256.319 170.182 255.903 169.87 255.374C169.566 254.846 169.415 254.239 169.415 253.554C169.415 252.869 169.562 252.262 169.857 251.733C170.16 251.204 170.572 250.792 171.092 250.498C171.621 250.194 172.215 250.042 172.874 250.042C173.542 250.042 174.131 250.19 174.643 250.485C175.154 250.779 175.553 251.195 175.839 251.733C176.134 252.262 176.281 252.882 176.281 253.593C176.281 253.645 176.277 253.705 176.268 253.775C176.268 253.844 176.264 253.909 176.255 253.97H170.39V253.073H175.605L175.098 253.385C175.107 252.942 175.016 252.548 174.825 252.201C174.634 251.854 174.37 251.586 174.031 251.395C173.702 251.195 173.316 251.096 172.874 251.096C172.441 251.096 172.055 251.195 171.717 251.395C171.378 251.586 171.114 251.859 170.923 252.214C170.733 252.561 170.637 252.96 170.637 253.411V253.619C170.637 254.078 170.741 254.49 170.949 254.854C171.166 255.21 171.465 255.487 171.847 255.686C172.228 255.886 172.666 255.986 173.16 255.986C173.568 255.986 173.936 255.916 174.266 255.778C174.604 255.639 174.898 255.431 175.15 255.153L175.839 255.96C175.527 256.324 175.137 256.601 174.669 256.792C174.209 256.983 173.693 257.078 173.121 257.078ZM178.314 257.078C178.071 257.078 177.863 256.996 177.69 256.831C177.516 256.658 177.43 256.441 177.43 256.181C177.43 255.921 177.516 255.708 177.69 255.543C177.863 255.379 178.071 255.296 178.314 255.296C178.548 255.296 178.748 255.379 178.912 255.543C179.086 255.708 179.172 255.921 179.172 256.181C179.172 256.441 179.086 256.658 178.912 256.831C178.748 256.996 178.548 257.078 178.314 257.078Z" fill="black"/>
<defs>
<filter id="filter0_d_2198_913" x="-0.000117779" y="0" width="215.799" height="306.112" filterUnits="userSpaceOnUse" color-interpolation-filters="sRGB">
<feFlood flood-opacity="0" result="BackgroundImageFix"/>
<feColorMatrix in="SourceAlpha" type="matrix" values="0 0 0 0 0 0 0 0 0 0 0 0 0 0 0 0 0 0 127 0" result="hardAlpha"/>
<feOffset dy="4.30578"/>
<feGaussianBlur stdDeviation="2.15289"/>
<feComposite in2="hardAlpha" operator="out"/>
<feColorMatrix type="matrix" values="0 0 0 0 0 0 0 0 0 0 0 0 0 0 0 0 0 0 0.25 0"/>
<feBlend mode="normal" in2="BackgroundImageFix" result="effect1_dropShadow_2198_913"/>
<feBlend mode="normal" in="SourceGraphic" in2="effect1_dropShadow_2198_913" result="shape"/>
</filter>
<linearGradient id="paint0_linear_2198_913" x1="108.243" y1="165.095" x2="108.243" y2="12.2402" gradientUnits="userSpaceOnUse">
<stop offset="0.906845" stop-color="#EFEFEF"/>
</linearGradient>
<linearGradient id="paint1_linear_2198_913" x1="108.243" y1="286.735" x2="108.243" y2="297.5" gradientUnits="userSpaceOnUse">
<stop offset="0.365385" stop-color="#5B5151"/>
<stop offset="1" stop-color="white"/>
</linearGradient>
</defs>
</svg>
