<svg width="73" height="11" viewBox="0 0 73 11" fill="none" xmlns="http://www.w3.org/2000/svg">
<path d="M4.2001 10.5562C3.39744 10.5562 2.67877 10.3602 2.0441 9.96818C1.40943 9.56685 0.910102 8.98818 0.546102 8.23218C0.182102 7.47618 0.000101574 6.56152 0.000101574 5.48818C0.000101574 4.41485 0.182102 3.50018 0.546102 2.74418C0.910102 1.98818 1.40943 1.41418 2.0441 1.02218C2.67877 0.62085 3.39744 0.420183 4.2001 0.420183C5.0121 0.420183 5.73077 0.62085 6.3561 1.02218C6.99077 1.41418 7.4901 1.98818 7.8541 2.74418C8.2181 3.50018 8.4001 4.41485 8.4001 5.48818C8.4001 6.56152 8.2181 7.47618 7.8541 8.23218C7.4901 8.98818 6.99077 9.56685 6.3561 9.96818C5.73077 10.3602 5.0121 10.5562 4.2001 10.5562ZM4.2001 8.63818C4.58277 8.63818 4.9141 8.53085 5.1941 8.31618C5.48344 8.10152 5.70744 7.76085 5.8661 7.29418C6.0341 6.82752 6.1181 6.22552 6.1181 5.48818C6.1181 4.75085 6.0341 4.14885 5.8661 3.68218C5.70744 3.21552 5.48344 2.87485 5.1941 2.66018C4.9141 2.44552 4.58277 2.33818 4.2001 2.33818C3.82677 2.33818 3.49544 2.44552 3.2061 2.66018C2.9261 2.87485 2.7021 3.21552 2.5341 3.68218C2.37544 4.14885 2.2961 4.75085 2.2961 5.48818C2.2961 6.22552 2.37544 6.82752 2.5341 7.29418C2.7021 7.76085 2.9261 8.10152 3.2061 8.31618C3.49544 8.53085 3.82677 8.63818 4.2001 8.63818ZM12.8341 10.5562C12.1527 10.5562 11.4761 10.4675 10.8041 10.2902C10.1414 10.1035 9.57205 9.84218 9.09605 9.50618L9.99205 7.77018C10.3654 8.04085 10.7947 8.25552 11.2801 8.41418C11.7747 8.57285 12.2741 8.65218 12.7781 8.65218C13.3474 8.65218 13.7954 8.54018 14.1221 8.31618C14.4487 8.09218 14.6121 7.77952 14.6121 7.37818C14.6121 7.12618 14.5467 6.90218 14.4161 6.70618C14.2854 6.51018 14.0521 6.36085 13.7161 6.25818C13.3894 6.15552 12.9274 6.10418 12.3301 6.10418H9.82405L10.3281 0.588183H16.3061V2.40818L11.1401 2.40818L12.3161 1.37218L11.9661 5.30618L10.7901 4.27018L12.8621 4.27018C13.8327 4.27018 14.6121 4.40552 15.2001 4.67618C15.7974 4.93752 16.2314 5.29685 16.5021 5.75418C16.7727 6.21152 16.9081 6.72952 16.9081 7.30818C16.9081 7.88685 16.7634 8.42352 16.4741 8.91818C16.1847 9.40352 15.7367 9.80018 15.1301 10.1082C14.5327 10.4069 13.7674 10.5562 12.8341 10.5562ZM18.0102 7.32218V5.57218H21.9722V7.32218H18.0102ZM27.6653 10.5562C26.7693 10.5562 25.99 10.3695 25.3273 9.99618C24.674 9.62285 24.17 9.07685 23.8153 8.35818C23.4606 7.63952 23.2833 6.75285 23.2833 5.69818C23.2833 4.56885 23.4933 3.61218 23.9133 2.82818C24.3426 2.04418 24.9306 1.44685 25.6773 1.03618C26.4333 0.625517 27.3013 0.420183 28.2813 0.420183C28.804 0.420183 29.3033 0.476183 29.7793 0.588183C30.2553 0.700183 30.666 0.868183 31.0113 1.09218L30.1713 2.75818C29.9006 2.57152 29.6113 2.44552 29.3033 2.38018C28.9953 2.30552 28.6733 2.26818 28.3373 2.26818C27.488 2.26818 26.816 2.52485 26.3213 3.03818C25.8266 3.55152 25.5793 4.31218 25.5793 5.32018C25.5793 5.48818 25.5793 5.67485 25.5793 5.88018C25.5886 6.08552 25.6166 6.29085 25.6633 6.49618L25.0333 5.90818C25.2106 5.54418 25.4393 5.24085 25.7193 4.99818C25.9993 4.74618 26.3306 4.55952 26.7133 4.43818C27.1053 4.30752 27.5346 4.24218 28.0013 4.24218C28.636 4.24218 29.2053 4.36818 29.7093 4.62018C30.2133 4.87218 30.6146 5.22685 30.9133 5.68418C31.2213 6.14152 31.3753 6.67818 31.3753 7.29418C31.3753 7.95685 31.2073 8.53552 30.8713 9.03018C30.5446 9.51552 30.1013 9.89352 29.5413 10.1642C28.9906 10.4255 28.3653 10.5562 27.6653 10.5562ZM27.5393 8.86218C27.8566 8.86218 28.1366 8.80618 28.3793 8.69418C28.6313 8.57285 28.8273 8.40018 28.9673 8.17618C29.1073 7.95218 29.1773 7.69552 29.1773 7.40618C29.1773 6.95818 29.0233 6.60352 28.7153 6.34218C28.4166 6.07152 28.0153 5.93618 27.5113 5.93618C27.1753 5.93618 26.8813 6.00152 26.6293 6.13218C26.3773 6.25352 26.1766 6.42618 26.0273 6.65018C25.8873 6.86485 25.8173 7.11685 25.8173 7.40618C25.8173 7.68618 25.8873 7.93818 26.0273 8.16218C26.1673 8.37685 26.3633 8.54952 26.6153 8.68018C26.8673 8.80152 27.1753 8.86218 27.5393 8.86218ZM36.3974 10.5562C35.5947 10.5562 34.876 10.3602 34.2414 9.96818C33.6067 9.56685 33.1074 8.98818 32.7434 8.23218C32.3794 7.47618 32.1974 6.56152 32.1974 5.48818C32.1974 4.41485 32.3794 3.50018 32.7434 2.74418C33.1074 1.98818 33.6067 1.41418 34.2414 1.02218C34.876 0.62085 35.5947 0.420183 36.3974 0.420183C37.2094 0.420183 37.928 0.62085 38.5534 1.02218C39.188 1.41418 39.6874 1.98818 40.0514 2.74418C40.4154 3.50018 40.5974 4.41485 40.5974 5.48818C40.5974 6.56152 40.4154 7.47618 40.0514 8.23218C39.6874 8.98818 39.188 9.56685 38.5534 9.96818C37.928 10.3602 37.2094 10.5562 36.3974 10.5562ZM36.3974 8.63818C36.78 8.63818 37.1114 8.53085 37.3914 8.31618C37.6807 8.10152 37.9047 7.76085 38.0634 7.29418C38.2314 6.82752 38.3154 6.22552 38.3154 5.48818C38.3154 4.75085 38.2314 4.14885 38.0634 3.68218C37.9047 3.21552 37.6807 2.87485 37.3914 2.66018C37.1114 2.44552 36.78 2.33818 36.3974 2.33818C36.024 2.33818 35.6927 2.44552 35.4034 2.66018C35.1234 2.87485 34.8994 3.21552 34.7314 3.68218C34.5727 4.14885 34.4934 4.75085 34.4934 5.48818C34.4934 6.22552 34.5727 6.82752 34.7314 7.29418C34.8994 7.76085 35.1234 8.10152 35.4034 8.31618C35.6927 8.53085 36.024 8.63818 36.3974 8.63818ZM45.8993 10.5562C45.0967 10.5562 44.378 10.3602 43.7433 9.96818C43.1087 9.56685 42.6093 8.98818 42.2453 8.23218C41.8813 7.47618 41.6993 6.56152 41.6993 5.48818C41.6993 4.41485 41.8813 3.50018 42.2453 2.74418C42.6093 1.98818 43.1087 1.41418 43.7433 1.02218C44.378 0.62085 45.0967 0.420183 45.8993 0.420183C46.7113 0.420183 47.43 0.62085 48.0553 1.02218C48.69 1.41418 49.1893 1.98818 49.5533 2.74418C49.9173 3.50018 50.0993 4.41485 50.0993 5.48818C50.0993 6.56152 49.9173 7.47618 49.5533 8.23218C49.1893 8.98818 48.69 9.56685 48.0553 9.96818C47.43 10.3602 46.7113 10.5562 45.8993 10.5562ZM45.8993 8.63818C46.282 8.63818 46.6133 8.53085 46.8933 8.31618C47.1827 8.10152 47.4067 7.76085 47.5653 7.29418C47.7333 6.82752 47.8173 6.22552 47.8173 5.48818C47.8173 4.75085 47.7333 4.14885 47.5653 3.68218C47.4067 3.21552 47.1827 2.87485 46.8933 2.66018C46.6133 2.44552 46.282 2.33818 45.8993 2.33818C45.526 2.33818 45.1947 2.44552 44.9053 2.66018C44.6253 2.87485 44.4013 3.21552 44.2333 3.68218C44.0747 4.14885 43.9953 4.75085 43.9953 5.48818C43.9953 6.22552 44.0747 6.82752 44.2333 7.29418C44.4013 7.76085 44.6253 8.10152 44.9053 8.31618C45.1947 8.53085 45.526 8.63818 45.8993 8.63818ZM65.2741 2.74418C65.8715 2.74418 66.3988 2.86552 66.8561 3.10818C67.3228 3.34152 67.6868 3.70552 67.9481 4.20018C68.2188 4.68552 68.3541 5.31085 68.3541 6.07618V10.3882H66.1701V6.41218C66.1701 5.80552 66.0441 5.35752 65.7921 5.06818C65.5401 4.77885 65.1855 4.63418 64.7281 4.63418C64.4108 4.63418 64.1261 4.70885 63.8741 4.85818C63.6221 4.99818 63.4261 5.21285 63.2861 5.50218C63.1461 5.79152 63.0761 6.16018 63.0761 6.60818V10.3882H60.8921V6.41218C60.8921 5.80552 60.7661 5.35752 60.5141 5.06818C60.2715 4.77885 59.9215 4.63418 59.4641 4.63418C59.1468 4.63418 58.8621 4.70885 58.6101 4.85818C58.3581 4.99818 58.1621 5.21285 58.0221 5.50218C57.8821 5.79152 57.8121 6.16018 57.8121 6.60818V10.3882H55.6281V2.85618H57.7141V4.91418L57.3221 4.31218C57.5835 3.79885 57.9521 3.41152 58.4281 3.15018C58.9135 2.87952 59.4641 2.74418 60.0801 2.74418C60.7708 2.74418 61.3728 2.92152 61.8861 3.27618C62.4088 3.62152 62.7541 4.15352 62.9221 4.87218L62.1521 4.66218C62.4041 4.07418 62.8055 3.60752 63.3561 3.26218C63.9161 2.91685 64.5555 2.74418 65.2741 2.74418ZM70.3117 10.3882V0.000182986H72.4957V10.3882H70.3117Z" fill="#F6F4F3"/>
</svg>
