<svg width="342" height="53" viewBox="0 0 342 53" fill="none" xmlns="http://www.w3.org/2000/svg">
<path d="M121.147 37.4623L121.118 16.9823L123.361 19.2176L116.641 19.2317L116.635 15.0717L126.299 15.0514L126.331 37.4514L121.147 37.4623ZM139.823 37.807C137.988 37.8109 136.345 37.3663 134.893 36.4734C133.441 35.5591 132.298 34.2388 131.463 32.5126C130.629 30.7863 130.21 28.6965 130.206 26.2432C130.203 23.7899 130.616 21.6983 131.445 19.9686C132.275 18.2389 133.414 16.9245 134.864 16.0254C136.313 15.105 137.955 14.6429 139.79 14.6391C141.646 14.6352 143.289 15.0904 144.72 16.0047C146.172 16.8976 147.315 18.2072 148.149 19.9335C148.984 21.6597 149.403 23.7495 149.406 26.2029C149.41 28.6562 148.997 30.7477 148.167 32.4775C147.338 34.2072 146.198 35.5323 144.749 36.4527C143.321 37.3517 141.679 37.8031 139.823 37.807ZM139.817 33.423C140.691 33.4212 141.448 33.1743 142.088 32.6823C142.748 32.1902 143.259 31.4105 143.62 30.343C144.003 29.2756 144.193 27.8992 144.19 26.2138C144.188 24.5285 143.994 23.1529 143.609 22.087C143.244 21.0211 142.731 20.2436 142.069 19.7543C141.428 19.265 140.671 19.0212 139.796 19.023C138.943 19.0248 138.186 19.2718 137.525 19.7638C136.886 20.2558 136.375 21.0356 135.993 22.103C135.631 23.1705 135.452 24.5469 135.454 26.2322C135.457 27.9175 135.64 29.2931 136.004 30.359C136.39 31.4249 136.903 32.2025 137.544 32.6918C138.206 33.1811 138.963 33.4248 139.817 33.423ZM161.542 37.7614C159.707 37.7652 158.064 37.3207 156.612 36.4277C155.16 35.5135 154.017 34.1932 153.182 32.4669C152.348 30.7407 151.929 28.6509 151.925 26.1976C151.922 23.7442 152.335 21.6527 153.164 19.923C153.994 18.1932 155.133 16.8788 156.583 15.9798C158.032 15.0594 159.674 14.5973 161.509 14.5934C163.365 14.5895 165.008 15.0447 166.439 15.9591C167.89 16.852 169.034 18.1616 169.868 19.8879C170.703 21.6141 171.122 23.7039 171.125 26.1572C171.129 28.6106 170.716 30.7021 169.886 32.4318C169.057 34.1616 167.917 35.4867 166.468 36.407C165.04 37.306 163.398 37.7575 161.542 37.7614ZM161.535 33.3774C162.41 33.3756 163.167 33.1286 163.806 32.6366C164.467 32.1446 164.978 31.3648 165.339 30.2974C165.721 29.2299 165.912 27.8535 165.909 26.1682C165.907 24.4829 165.713 23.1073 165.327 22.0414C164.963 20.9755 164.45 20.1979 163.788 19.7086C163.147 19.2193 162.389 18.9756 161.515 18.9774C160.662 18.9792 159.905 19.2261 159.244 19.7182C158.605 20.2102 158.094 20.9899 157.711 22.0574C157.35 23.1248 157.171 24.5012 157.173 26.1865C157.176 27.8719 157.359 29.2475 157.723 30.3134C158.109 31.3793 158.622 32.1568 159.262 32.6462C159.924 33.1354 160.682 33.3792 161.535 33.3774ZM183.778 37.3307L183.754 20.1147L188.522 20.1047L188.528 24.8087L187.63 23.4345C188.226 22.2599 189.068 21.3728 190.155 20.7732C191.263 20.1522 192.521 19.8403 193.929 19.8373C195.508 19.834 196.885 20.2364 198.059 21.0446C199.255 21.8314 200.046 23.0458 200.432 24.6876L198.672 24.2113C199.246 22.8661 200.161 21.7975 201.419 21.0056C202.698 20.2135 204.159 19.8158 205.801 19.8123C207.167 19.8095 208.372 20.0843 209.418 20.6367C210.486 21.1678 211.319 21.9981 211.918 23.1275C212.538 24.2355 212.85 25.6642 212.852 27.4135L212.866 37.2695L207.874 37.28L207.861 28.192C207.859 26.8054 207.57 25.782 206.993 25.1218C206.416 24.4617 205.605 24.1328 204.559 24.135C203.834 24.1365 203.184 24.3085 202.608 24.6511C202.033 24.9723 201.585 25.4639 201.266 26.1259C200.947 26.7879 200.788 27.6309 200.79 28.6549L200.802 37.2949L195.81 37.3054L195.797 28.2174C195.795 26.8307 195.506 25.8073 194.929 25.1472C194.373 24.487 193.573 24.158 192.528 24.1602C191.802 24.1618 191.152 24.3338 190.576 24.6763C190.001 24.9976 189.553 25.4892 189.234 26.1512C188.915 26.8132 188.756 27.6562 188.758 28.6802L188.77 37.3202L183.778 37.3307ZM217.341 37.2601L217.307 13.5162L222.299 13.5057L222.333 37.2496L217.341 37.2601Z" fill="black"/>
</svg>
