<svg width="432" height="43" viewBox="0 0 432 43" fill="none" xmlns="http://www.w3.org/2000/svg">
<path d="M17.2182 16.112C16.4715 16.112 15.7809 15.9907 15.1462 15.748C14.5209 15.496 13.9749 15.146 13.5082 14.698C13.0509 14.2407 12.6915 13.7087 12.4302 13.102C12.1689 12.4953 12.0382 11.828 12.0382 11.1C12.0382 10.372 12.1689 9.70467 12.4302 9.098C12.6915 8.49133 13.0555 7.964 13.5222 7.516C13.9889 7.05867 14.5349 6.70867 15.1602 6.466C15.7949 6.214 16.4855 6.088 17.2322 6.088C17.9882 6.088 18.6835 6.21867 19.3182 6.48C19.9622 6.732 20.5082 7.11 20.9562 7.614L20.0462 8.496C19.6729 8.104 19.2529 7.81467 18.7862 7.628C18.3195 7.432 17.8202 7.334 17.2882 7.334C16.7375 7.334 16.2242 7.42733 15.7482 7.614C15.2815 7.80067 14.8755 8.062 14.5302 8.398C14.1849 8.734 13.9142 9.13533 13.7182 9.602C13.5315 10.0593 13.4382 10.5587 13.4382 11.1C13.4382 11.6413 13.5315 12.1453 13.7182 12.612C13.9142 13.0693 14.1849 13.466 14.5302 13.802C14.8755 14.138 15.2815 14.3993 15.7482 14.586C16.2242 14.7727 16.7375 14.866 17.2882 14.866C17.8202 14.866 18.3195 14.7727 18.7862 14.586C19.2529 14.39 19.6729 14.0913 20.0462 13.69L20.9562 14.572C20.5082 15.076 19.9622 15.4587 19.3182 15.72C18.6835 15.9813 17.9835 16.112 17.2182 16.112ZM25.4842 16.084C24.7376 16.084 24.0749 15.9207 23.4962 15.594C22.9176 15.2673 22.4602 14.8193 22.1242 14.25C21.7882 13.6713 21.6202 13.018 21.6202 12.29C21.6202 11.5527 21.7882 10.8993 22.1242 10.33C22.4602 9.76067 22.9176 9.31733 23.4962 9C24.0749 8.67333 24.7376 8.51 25.4842 8.51C26.2216 8.51 26.8796 8.67333 27.4582 9C28.0462 9.31733 28.5036 9.76067 28.8302 10.33C29.1662 10.89 29.3342 11.5433 29.3342 12.29C29.3342 13.0273 29.1662 13.6807 28.8302 14.25C28.5036 14.8193 28.0462 15.2673 27.4582 15.594C26.8796 15.9207 26.2216 16.084 25.4842 16.084ZM25.4842 14.908C25.9602 14.908 26.3849 14.8007 26.7582 14.586C27.1409 14.3713 27.4396 14.068 27.6542 13.676C27.8689 13.2747 27.9762 12.8127 27.9762 12.29C27.9762 11.758 27.8689 11.3007 27.6542 10.918C27.4396 10.526 27.1409 10.2227 26.7582 10.008C26.3849 9.79333 25.9602 9.686 25.4842 9.686C25.0082 9.686 24.5836 9.79333 24.2102 10.008C23.8369 10.2227 23.5382 10.526 23.3142 10.918C23.0902 11.3007 22.9782 11.758 22.9782 12.29C22.9782 12.8127 23.0902 13.2747 23.3142 13.676C23.5382 14.068 23.8369 14.3713 24.2102 14.586C24.5836 14.8007 25.0082 14.908 25.4842 14.908ZM31.1929 16V8.58H32.4809V10.554L32.2709 10.05C32.5043 9.56467 32.8636 9.18667 33.3489 8.916C33.8343 8.64533 34.3989 8.51 35.0429 8.51C35.7523 8.51 36.3636 8.68733 36.8769 9.042C37.3903 9.38733 37.7263 9.91467 37.8849 10.624L37.3389 10.4C37.5629 9.83067 37.9549 9.37333 38.5149 9.028C39.0749 8.68267 39.7283 8.51 40.4749 8.51C41.0723 8.51 41.5996 8.62667 42.0569 8.86C42.5143 9.09333 42.8689 9.448 43.1209 9.924C43.3823 10.4 43.5129 11.002 43.5129 11.73V16H42.1689V11.884C42.1689 11.1653 42.0009 10.624 41.6649 10.26C41.3289 9.896 40.8576 9.714 40.2509 9.714C39.8029 9.714 39.4109 9.80733 39.0749 9.994C38.7389 10.1807 38.4776 10.456 38.2909 10.82C38.1136 11.184 38.0249 11.6367 38.0249 12.178V16H36.6809V11.884C36.6809 11.1653 36.5129 10.624 36.1769 10.26C35.8503 9.896 35.3789 9.714 34.7629 9.714C34.3243 9.714 33.9369 9.80733 33.6009 9.994C33.2649 10.1807 33.0036 10.456 32.8169 10.82C32.6303 11.184 32.5369 11.6367 32.5369 12.178V16H31.1929ZM49.9199 16.084C49.3039 16.084 48.7392 15.944 48.2259 15.664C47.7219 15.3747 47.3159 14.95 47.0079 14.39C46.7092 13.83 46.5599 13.13 46.5599 12.29C46.5599 11.45 46.7046 10.75 46.9939 10.19C47.2926 9.63 47.6939 9.21 48.1979 8.93C48.7112 8.65 49.2852 8.51 49.9199 8.51C50.6479 8.51 51.2919 8.66867 51.8519 8.986C52.4119 9.30333 52.8552 9.74667 53.1819 10.316C53.5086 10.876 53.6719 11.534 53.6719 12.29C53.6719 13.046 53.5086 13.7087 53.1819 14.278C52.8552 14.8473 52.4119 15.2907 51.8519 15.608C51.2919 15.9253 50.6479 16.084 49.9199 16.084ZM45.9859 18.716V8.58H47.2739V10.582L47.1899 12.304L47.3299 14.026V18.716H45.9859ZM49.8079 14.908C50.2839 14.908 50.7086 14.8007 51.0819 14.586C51.4646 14.3713 51.7632 14.068 51.9779 13.676C52.2019 13.2747 52.3139 12.8127 52.3139 12.29C52.3139 11.758 52.2019 11.3007 51.9779 10.918C51.7632 10.526 51.4646 10.2227 51.0819 10.008C50.7086 9.79333 50.2839 9.686 49.8079 9.686C49.3412 9.686 48.9166 9.79333 48.5339 10.008C48.1606 10.2227 47.8619 10.526 47.6379 10.918C47.4232 11.3007 47.3159 11.758 47.3159 12.29C47.3159 12.8127 47.4232 13.2747 47.6379 13.676C47.8619 14.068 48.1606 14.3713 48.5339 14.586C48.9166 14.8007 49.3412 14.908 49.8079 14.908ZM60.0665 16V14.432L59.9965 14.138V11.464C59.9965 10.8947 59.8285 10.456 59.4925 10.148C59.1659 9.83067 58.6712 9.672 58.0085 9.672C57.5699 9.672 57.1405 9.74667 56.7205 9.896C56.3005 10.036 55.9459 10.2273 55.6565 10.47L55.0965 9.462C55.4792 9.154 55.9365 8.92067 56.4685 8.762C57.0099 8.594 57.5745 8.51 58.1625 8.51C59.1799 8.51 59.9639 8.75733 60.5145 9.252C61.0652 9.74667 61.3405 10.5027 61.3405 11.52V16H60.0665ZM57.6305 16.084C57.0799 16.084 56.5945 15.9907 56.1745 15.804C55.7639 15.6173 55.4465 15.3607 55.2225 15.034C54.9985 14.698 54.8865 14.32 54.8865 13.9C54.8865 13.4987 54.9799 13.1347 55.1665 12.808C55.3625 12.4813 55.6752 12.22 56.1045 12.024C56.5432 11.828 57.1312 11.73 57.8685 11.73H60.2205V12.696H57.9245C57.2525 12.696 56.7999 12.808 56.5665 13.032C56.3332 13.256 56.2165 13.5267 56.2165 13.844C56.2165 14.208 56.3612 14.502 56.6505 14.726C56.9399 14.9407 57.3412 15.048 57.8545 15.048C58.3585 15.048 58.7972 14.936 59.1705 14.712C59.5532 14.488 59.8285 14.1613 59.9965 13.732L60.2625 14.656C60.0852 15.0947 59.7725 15.4447 59.3245 15.706C58.8765 15.958 58.3119 16.084 57.6305 16.084ZM67.0617 16.084C66.3057 16.084 65.629 15.9207 65.0317 15.594C64.4437 15.2673 63.9817 14.8193 63.6457 14.25C63.3097 13.6807 63.1417 13.0273 63.1417 12.29C63.1417 11.5527 63.3097 10.8993 63.6457 10.33C63.9817 9.76067 64.4437 9.31733 65.0317 9C65.629 8.67333 66.3057 8.51 67.0617 8.51C67.7337 8.51 68.331 8.64533 68.8537 8.916C69.3857 9.17733 69.7964 9.56933 70.0857 10.092L69.0637 10.75C68.821 10.386 68.5224 10.12 68.1677 9.952C67.8224 9.77467 67.449 9.686 67.0477 9.686C66.5624 9.686 66.1284 9.79333 65.7457 10.008C65.363 10.2227 65.0597 10.526 64.8357 10.918C64.6117 11.3007 64.4997 11.758 64.4997 12.29C64.4997 12.822 64.6117 13.284 64.8357 13.676C65.0597 14.068 65.363 14.3713 65.7457 14.586C66.1284 14.8007 66.5624 14.908 67.0477 14.908C67.449 14.908 67.8224 14.824 68.1677 14.656C68.5224 14.4787 68.821 14.208 69.0637 13.844L70.0857 14.488C69.7964 15.0013 69.3857 15.398 68.8537 15.678C68.331 15.9487 67.7337 16.084 67.0617 16.084ZM74.4695 16.084C73.7228 16.084 73.1441 15.8833 72.7335 15.482C72.3228 15.0807 72.1175 14.5067 72.1175 13.76V6.956H73.4615V13.704C73.4615 14.1053 73.5595 14.4133 73.7555 14.628C73.9608 14.8427 74.2501 14.95 74.6235 14.95C75.0435 14.95 75.3935 14.8333 75.6735 14.6L76.0935 15.566C75.8881 15.7433 75.6408 15.874 75.3515 15.958C75.0715 16.042 74.7775 16.084 74.4695 16.084ZM70.8575 9.686V8.58H75.5895V9.686H70.8575ZM77.3231 18.072L78.0231 15.244L78.2051 16.056C77.9344 16.056 77.7057 15.972 77.5191 15.804C77.3417 15.636 77.2531 15.4073 77.2531 15.118C77.2531 14.838 77.3417 14.6093 77.5191 14.432C77.7057 14.2547 77.9297 14.166 78.1911 14.166C78.4617 14.166 78.6811 14.2593 78.8491 14.446C79.0171 14.6233 79.1011 14.8473 79.1011 15.118C79.1011 15.2113 79.0917 15.3047 79.0731 15.398C79.0637 15.482 79.0404 15.5847 79.0031 15.706C78.9751 15.818 78.9284 15.958 78.8631 16.126L78.2051 18.072H77.3231ZM87.8527 16.084C87.134 16.084 86.49 15.9253 85.9207 15.608C85.3607 15.2907 84.9174 14.8473 84.5907 14.278C84.264 13.7087 84.1007 13.046 84.1007 12.29C84.1007 11.534 84.264 10.876 84.5907 10.316C84.9174 9.74667 85.3607 9.30333 85.9207 8.986C86.49 8.66867 87.134 8.51 87.8527 8.51C88.478 8.51 89.0427 8.65 89.5467 8.93C90.0507 9.21 90.452 9.63 90.7507 10.19C91.0587 10.75 91.2127 11.45 91.2127 12.29C91.2127 13.13 91.0634 13.83 90.7647 14.39C90.4754 14.95 90.0787 15.3747 89.5747 15.664C89.0707 15.944 88.4967 16.084 87.8527 16.084ZM87.9647 14.908C88.4314 14.908 88.8514 14.8007 89.2247 14.586C89.6074 14.3713 89.906 14.068 90.1207 13.676C90.3447 13.2747 90.4567 12.8127 90.4567 12.29C90.4567 11.758 90.3447 11.3007 90.1207 10.918C89.906 10.526 89.6074 10.2227 89.2247 10.008C88.8514 9.79333 88.4314 9.686 87.9647 9.686C87.4887 9.686 87.064 9.79333 86.6907 10.008C86.3174 10.2227 86.0187 10.526 85.7947 10.918C85.5707 11.3007 85.4587 11.758 85.4587 12.29C85.4587 12.8127 85.5707 13.2747 85.7947 13.676C86.0187 14.068 86.3174 14.3713 86.6907 14.586C87.064 14.8007 87.4887 14.908 87.9647 14.908ZM90.4987 16V13.998L90.5827 12.276L90.4427 10.554V5.612H91.7867V16H90.4987ZM97.4517 16.084C96.817 16.084 96.257 15.9673 95.7717 15.734C95.2957 15.5007 94.9223 15.146 94.6517 14.67C94.3903 14.1847 94.2597 13.578 94.2597 12.85V8.58H95.6037V12.696C95.6037 13.424 95.7763 13.97 96.1217 14.334C96.4763 14.698 96.971 14.88 97.6057 14.88C98.0723 14.88 98.4783 14.7867 98.8237 14.6C99.169 14.404 99.435 14.124 99.6217 13.76C99.8083 13.3867 99.9017 12.9387 99.9017 12.416V8.58H101.246V16H99.9717V13.998L100.182 14.53C99.939 15.0247 99.575 15.4073 99.0897 15.678C98.6043 15.9487 98.0583 16.084 97.4517 16.084ZM103.804 16V8.58H105.092V10.596L104.966 10.092C105.172 9.57867 105.517 9.18667 106.002 8.916C106.488 8.64533 107.085 8.51 107.794 8.51V9.812C107.738 9.80267 107.682 9.798 107.626 9.798C107.58 9.798 107.533 9.798 107.486 9.798C106.768 9.798 106.198 10.0127 105.778 10.442C105.358 10.8713 105.148 11.492 105.148 12.304V16H103.804ZM113.537 16V14.432L113.467 14.138V11.464C113.467 10.8947 113.299 10.456 112.963 10.148C112.637 9.83067 112.142 9.672 111.479 9.672C111.041 9.672 110.611 9.74667 110.191 9.896C109.771 10.036 109.417 10.2273 109.127 10.47L108.567 9.462C108.95 9.154 109.407 8.92067 109.939 8.762C110.481 8.594 111.045 8.51 111.633 8.51C112.651 8.51 113.435 8.75733 113.985 9.252C114.536 9.74667 114.811 10.5027 114.811 11.52V16H113.537ZM111.101 16.084C110.551 16.084 110.065 15.9907 109.645 15.804C109.235 15.6173 108.917 15.3607 108.693 15.034C108.469 14.698 108.357 14.32 108.357 13.9C108.357 13.4987 108.451 13.1347 108.637 12.808C108.833 12.4813 109.146 12.22 109.575 12.024C110.014 11.828 110.602 11.73 111.339 11.73H113.691V12.696H111.395C110.723 12.696 110.271 12.808 110.037 13.032C109.804 13.256 109.687 13.5267 109.687 13.844C109.687 14.208 109.832 14.502 110.121 14.726C110.411 14.9407 110.812 15.048 111.325 15.048C111.829 15.048 112.268 14.936 112.641 14.712C113.024 14.488 113.299 14.1613 113.467 13.732L113.733 14.656C113.556 15.0947 113.243 15.4447 112.795 15.706C112.347 15.958 111.783 16.084 111.101 16.084ZM121.232 16.084C120.598 16.084 120.024 15.944 119.51 15.664C119.006 15.3747 118.605 14.95 118.306 14.39C118.017 13.83 117.872 13.13 117.872 12.29C117.872 11.45 118.022 10.75 118.32 10.19C118.628 9.63 119.034 9.21 119.538 8.93C120.052 8.65 120.616 8.51 121.232 8.51C121.96 8.51 122.604 8.66867 123.164 8.986C123.724 9.30333 124.168 9.74667 124.494 10.316C124.821 10.876 124.984 11.534 124.984 12.29C124.984 13.046 124.821 13.7087 124.494 14.278C124.168 14.8473 123.724 15.2907 123.164 15.608C122.604 15.9253 121.96 16.084 121.232 16.084ZM117.298 16V5.612H118.642V10.554L118.502 12.276L118.586 13.998V16H117.298ZM121.12 14.908C121.596 14.908 122.021 14.8007 122.394 14.586C122.777 14.3713 123.076 14.068 123.29 13.676C123.514 13.2747 123.626 12.8127 123.626 12.29C123.626 11.758 123.514 11.3007 123.29 10.918C123.076 10.526 122.777 10.2227 122.394 10.008C122.021 9.79333 121.596 9.686 121.12 9.686C120.654 9.686 120.229 9.79333 119.846 10.008C119.473 10.2227 119.174 10.526 118.95 10.918C118.736 11.3007 118.628 11.758 118.628 12.29C118.628 12.8127 118.736 13.2747 118.95 13.676C119.174 14.068 119.473 14.3713 119.846 14.586C120.229 14.8007 120.654 14.908 121.12 14.908ZM126.841 16V5.612H128.185V16H126.841ZM134.056 16.084C133.262 16.084 132.562 15.9207 131.956 15.594C131.358 15.2673 130.892 14.8193 130.556 14.25C130.229 13.6807 130.066 13.0273 130.066 12.29C130.066 11.5527 130.224 10.8993 130.542 10.33C130.868 9.76067 131.312 9.31733 131.872 9C132.441 8.67333 133.08 8.51 133.79 8.51C134.508 8.51 135.143 8.66867 135.694 8.986C136.244 9.30333 136.674 9.75133 136.982 10.33C137.299 10.8993 137.458 11.5667 137.458 12.332C137.458 12.388 137.453 12.4533 137.444 12.528C137.444 12.6027 137.439 12.6727 137.43 12.738H131.116V11.772H136.73L136.184 12.108C136.193 11.632 136.095 11.2073 135.89 10.834C135.684 10.4607 135.4 10.1713 135.036 9.966C134.681 9.75133 134.266 9.644 133.79 9.644C133.323 9.644 132.908 9.75133 132.544 9.966C132.18 10.1713 131.895 10.4653 131.69 10.848C131.484 11.2213 131.382 11.6507 131.382 12.136V12.36C131.382 12.8547 131.494 13.298 131.718 13.69C131.951 14.0727 132.273 14.3713 132.684 14.586C133.094 14.8007 133.566 14.908 134.098 14.908C134.536 14.908 134.933 14.8333 135.288 14.684C135.652 14.5347 135.969 14.3107 136.24 14.012L136.982 14.88C136.646 15.272 136.226 15.5707 135.722 15.776C135.227 15.9813 134.672 16.084 134.056 16.084ZM143.28 16V6.2H144.68V16H143.28ZM147.614 16V6.2H148.762L153.158 13.606H152.542L156.882 6.2H158.03L158.044 16H156.7L156.686 8.314H157.008L153.144 14.81H152.5L148.608 8.314H148.958V16H147.614ZM160.985 16V6.2H162.385V14.782H167.691V16H160.985ZM173.057 16V6.2H176.879C178.148 6.2 179.147 6.50333 179.875 7.11C180.603 7.70733 180.967 8.54267 180.967 9.616C180.967 10.3253 180.804 10.9367 180.477 11.45C180.15 11.954 179.684 12.3413 179.077 12.612C178.47 12.8827 177.738 13.018 176.879 13.018H173.827L174.457 12.374V16H173.057ZM179.609 16L177.117 12.444H178.615L181.135 16H179.609ZM174.457 12.514L173.827 11.828H176.837C177.733 11.828 178.41 11.6367 178.867 11.254C179.334 10.862 179.567 10.316 179.567 9.616C179.567 8.916 179.334 8.37467 178.867 7.992C178.41 7.60933 177.733 7.418 176.837 7.418H173.827L174.457 6.718V12.514ZM186.211 16.084C185.464 16.084 184.801 15.9207 184.223 15.594C183.644 15.2673 183.187 14.8193 182.851 14.25C182.515 13.6713 182.347 13.018 182.347 12.29C182.347 11.5527 182.515 10.8993 182.851 10.33C183.187 9.76067 183.644 9.31733 184.223 9C184.801 8.67333 185.464 8.51 186.211 8.51C186.948 8.51 187.606 8.67333 188.185 9C188.773 9.31733 189.23 9.76067 189.557 10.33C189.893 10.89 190.061 11.5433 190.061 12.29C190.061 13.0273 189.893 13.6807 189.557 14.25C189.23 14.8193 188.773 15.2673 188.185 15.594C187.606 15.9207 186.948 16.084 186.211 16.084ZM186.211 14.908C186.687 14.908 187.111 14.8007 187.485 14.586C187.867 14.3713 188.166 14.068 188.381 13.676C188.595 13.2747 188.703 12.8127 188.703 12.29C188.703 11.758 188.595 11.3007 188.381 10.918C188.166 10.526 187.867 10.2227 187.485 10.008C187.111 9.79333 186.687 9.686 186.211 9.686C185.735 9.686 185.31 9.79333 184.937 10.008C184.563 10.2227 184.265 10.526 184.041 10.918C183.817 11.3007 183.705 11.758 183.705 12.29C183.705 12.8127 183.817 13.2747 184.041 13.676C184.265 14.068 184.563 14.3713 184.937 14.586C185.31 14.8007 185.735 14.908 186.211 14.908ZM195.042 16.084C194.407 16.084 193.847 15.9673 193.362 15.734C192.886 15.5007 192.512 15.146 192.242 14.67C191.98 14.1847 191.85 13.578 191.85 12.85V8.58H193.194V12.696C193.194 13.424 193.366 13.97 193.712 14.334C194.066 14.698 194.561 14.88 195.196 14.88C195.662 14.88 196.068 14.7867 196.414 14.6C196.759 14.404 197.025 14.124 197.212 13.76C197.398 13.3867 197.492 12.9387 197.492 12.416V8.58H198.836V16H197.562V13.998L197.772 14.53C197.529 15.0247 197.165 15.4073 196.68 15.678C196.194 15.9487 195.648 16.084 195.042 16.084ZM201.394 16V8.58H202.682V10.582L202.472 10.05C202.715 9.56467 203.088 9.18667 203.592 8.916C204.096 8.64533 204.684 8.51 205.356 8.51C205.963 8.51 206.495 8.62667 206.952 8.86C207.419 9.09333 207.783 9.448 208.044 9.924C208.305 10.4 208.436 11.002 208.436 11.73V16H207.092V11.884C207.092 11.1653 206.915 10.624 206.56 10.26C206.215 9.896 205.725 9.714 205.09 9.714C204.614 9.714 204.199 9.80733 203.844 9.994C203.489 10.1807 203.214 10.456 203.018 10.82C202.831 11.184 202.738 11.6367 202.738 12.178V16H201.394ZM213.989 16.084C213.271 16.084 212.627 15.9253 212.057 15.608C211.497 15.2907 211.054 14.8473 210.727 14.278C210.401 13.7087 210.237 13.046 210.237 12.29C210.237 11.534 210.401 10.876 210.727 10.316C211.054 9.74667 211.497 9.30333 212.057 8.986C212.627 8.66867 213.271 8.51 213.989 8.51C214.615 8.51 215.179 8.65 215.683 8.93C216.187 9.21 216.589 9.63 216.887 10.19C217.195 10.75 217.349 11.45 217.349 12.29C217.349 13.13 217.2 13.83 216.901 14.39C216.612 14.95 216.215 15.3747 215.711 15.664C215.207 15.944 214.633 16.084 213.989 16.084ZM214.101 14.908C214.568 14.908 214.988 14.8007 215.361 14.586C215.744 14.3713 216.043 14.068 216.257 13.676C216.481 13.2747 216.593 12.8127 216.593 12.29C216.593 11.758 216.481 11.3007 216.257 10.918C216.043 10.526 215.744 10.2227 215.361 10.008C214.988 9.79333 214.568 9.686 214.101 9.686C213.625 9.686 213.201 9.79333 212.827 10.008C212.454 10.2227 212.155 10.526 211.931 10.918C211.707 11.3007 211.595 11.758 211.595 12.29C211.595 12.8127 211.707 13.2747 211.931 13.676C212.155 14.068 212.454 14.3713 212.827 14.586C213.201 14.8007 213.625 14.908 214.101 14.908ZM216.635 16V13.998L216.719 12.276L216.579 10.554V5.612H217.923V16H216.635ZM227.46 16.084C226.704 16.084 226.027 15.9207 225.43 15.594C224.842 15.2673 224.38 14.8193 224.044 14.25C223.708 13.6807 223.54 13.0273 223.54 12.29C223.54 11.5527 223.708 10.8993 224.044 10.33C224.38 9.76067 224.842 9.31733 225.43 9C226.027 8.67333 226.704 8.51 227.46 8.51C228.132 8.51 228.729 8.64533 229.252 8.916C229.784 9.17733 230.195 9.56933 230.484 10.092L229.462 10.75C229.219 10.386 228.921 10.12 228.566 9.952C228.221 9.77467 227.847 9.686 227.446 9.686C226.961 9.686 226.527 9.79333 226.144 10.008C225.761 10.2227 225.458 10.526 225.234 10.918C225.01 11.3007 224.898 11.758 224.898 12.29C224.898 12.822 225.01 13.284 225.234 13.676C225.458 14.068 225.761 14.3713 226.144 14.586C226.527 14.8007 226.961 14.908 227.446 14.908C227.847 14.908 228.221 14.824 228.566 14.656C228.921 14.4787 229.219 14.208 229.462 13.844L230.484 14.488C230.195 15.0013 229.784 15.398 229.252 15.678C228.729 15.9487 228.132 16.084 227.46 16.084ZM235.346 16.084C234.712 16.084 234.152 15.9673 233.666 15.734C233.19 15.5007 232.817 15.146 232.546 14.67C232.285 14.1847 232.154 13.578 232.154 12.85V8.58H233.498V12.696C233.498 13.424 233.671 13.97 234.016 14.334C234.371 14.698 234.866 14.88 235.5 14.88C235.967 14.88 236.373 14.7867 236.718 14.6C237.064 14.404 237.33 14.124 237.516 13.76C237.703 13.3867 237.796 12.9387 237.796 12.416V8.58H239.14V16H237.866V13.998L238.076 14.53C237.834 15.0247 237.47 15.4073 236.984 15.678C236.499 15.9487 235.953 16.084 235.346 16.084ZM245.633 16.084C245.017 16.084 244.452 15.944 243.939 15.664C243.435 15.3747 243.029 14.95 242.721 14.39C242.422 13.83 242.273 13.13 242.273 12.29C242.273 11.45 242.417 10.75 242.707 10.19C243.005 9.63 243.407 9.21 243.911 8.93C244.424 8.65 244.998 8.51 245.633 8.51C246.361 8.51 247.005 8.66867 247.565 8.986C248.125 9.30333 248.568 9.74667 248.895 10.316C249.221 10.876 249.385 11.534 249.385 12.29C249.385 13.046 249.221 13.7087 248.895 14.278C248.568 14.8473 248.125 15.2907 247.565 15.608C247.005 15.9253 246.361 16.084 245.633 16.084ZM241.699 18.716V8.58H242.987V10.582L242.903 12.304L243.043 14.026V18.716H241.699ZM245.521 14.908C245.997 14.908 246.421 14.8007 246.795 14.586C247.177 14.3713 247.476 14.068 247.691 13.676C247.915 13.2747 248.027 12.8127 248.027 12.29C248.027 11.758 247.915 11.3007 247.691 10.918C247.476 10.526 247.177 10.2227 246.795 10.008C246.421 9.79333 245.997 9.686 245.521 9.686C245.054 9.686 244.629 9.79333 244.247 10.008C243.873 10.2227 243.575 10.526 243.351 10.918C243.136 11.3007 243.029 11.758 243.029 12.29C243.029 12.8127 243.136 13.2747 243.351 13.676C243.575 14.068 243.873 14.3713 244.247 14.586C244.629 14.8007 245.054 14.908 245.521 14.908ZM255.002 16V8.58H256.346V16H255.002ZM255.674 7.152C255.412 7.152 255.193 7.068 255.016 6.9C254.848 6.732 254.764 6.52667 254.764 6.284C254.764 6.032 254.848 5.822 255.016 5.654C255.193 5.486 255.412 5.402 255.674 5.402C255.935 5.402 256.15 5.486 256.318 5.654C256.495 5.81267 256.584 6.01333 256.584 6.256C256.584 6.508 256.5 6.72267 256.332 6.9C256.164 7.068 255.944 7.152 255.674 7.152ZM261.978 16.084C261.259 16.084 260.615 15.9253 260.046 15.608C259.486 15.2907 259.042 14.8473 258.716 14.278C258.389 13.7087 258.226 13.046 258.226 12.29C258.226 11.534 258.389 10.876 258.716 10.316C259.042 9.74667 259.486 9.30333 260.046 8.986C260.615 8.66867 261.259 8.51 261.978 8.51C262.603 8.51 263.168 8.65 263.672 8.93C264.176 9.21 264.577 9.63 264.876 10.19C265.184 10.75 265.338 11.45 265.338 12.29C265.338 13.13 265.188 13.83 264.89 14.39C264.6 14.95 264.204 15.3747 263.7 15.664C263.196 15.944 262.622 16.084 261.978 16.084ZM262.09 14.908C262.556 14.908 262.976 14.8007 263.35 14.586C263.732 14.3713 264.031 14.068 264.246 13.676C264.47 13.2747 264.582 12.8127 264.582 12.29C264.582 11.758 264.47 11.3007 264.246 10.918C264.031 10.526 263.732 10.2227 263.35 10.008C262.976 9.79333 262.556 9.686 262.09 9.686C261.614 9.686 261.189 9.79333 260.816 10.008C260.442 10.2227 260.144 10.526 259.92 10.918C259.696 11.3007 259.584 11.758 259.584 12.29C259.584 12.8127 259.696 13.2747 259.92 13.676C260.144 14.068 260.442 14.3713 260.816 14.586C261.189 14.8007 261.614 14.908 262.09 14.908ZM264.624 16V13.998L264.708 12.276L264.568 10.554V5.612H265.912V16H264.624ZM271.759 16.084C270.965 16.084 270.265 15.9207 269.659 15.594C269.061 15.2673 268.595 14.8193 268.259 14.25C267.932 13.6807 267.769 13.0273 267.769 12.29C267.769 11.5527 267.927 10.8993 268.245 10.33C268.571 9.76067 269.015 9.31733 269.575 9C270.144 8.67333 270.783 8.51 271.493 8.51C272.211 8.51 272.846 8.66867 273.397 8.986C273.947 9.30333 274.377 9.75133 274.685 10.33C275.002 10.8993 275.161 11.5667 275.161 12.332C275.161 12.388 275.156 12.4533 275.147 12.528C275.147 12.6027 275.142 12.6727 275.133 12.738H268.819V11.772H274.433L273.887 12.108C273.896 11.632 273.798 11.2073 273.593 10.834C273.387 10.4607 273.103 10.1713 272.739 9.966C272.384 9.75133 271.969 9.644 271.493 9.644C271.026 9.644 270.611 9.75133 270.247 9.966C269.883 10.1713 269.598 10.4653 269.393 10.848C269.187 11.2213 269.085 11.6507 269.085 12.136V12.36C269.085 12.8547 269.197 13.298 269.421 13.69C269.654 14.0727 269.976 14.3713 270.387 14.586C270.797 14.8007 271.269 14.908 271.801 14.908C272.239 14.908 272.636 14.8333 272.991 14.684C273.355 14.5347 273.672 14.3107 273.943 14.012L274.685 14.88C274.349 15.272 273.929 15.5707 273.425 15.776C272.93 15.9813 272.375 16.084 271.759 16.084ZM281.428 16V14.432L281.358 14.138V11.464C281.358 10.8947 281.19 10.456 280.854 10.148C280.527 9.83067 280.033 9.672 279.37 9.672C278.931 9.672 278.502 9.74667 278.082 9.896C277.662 10.036 277.307 10.2273 277.018 10.47L276.458 9.462C276.841 9.154 277.298 8.92067 277.83 8.762C278.371 8.594 278.936 8.51 279.524 8.51C280.541 8.51 281.325 8.75733 281.876 9.252C282.427 9.74667 282.702 10.5027 282.702 11.52V16H281.428ZM278.992 16.084C278.441 16.084 277.956 15.9907 277.536 15.804C277.125 15.6173 276.808 15.3607 276.584 15.034C276.36 14.698 276.248 14.32 276.248 13.9C276.248 13.4987 276.341 13.1347 276.528 12.808C276.724 12.4813 277.037 12.22 277.466 12.024C277.905 11.828 278.493 11.73 279.23 11.73H281.582V12.696H279.286C278.614 12.696 278.161 12.808 277.928 13.032C277.695 13.256 277.578 13.5267 277.578 13.844C277.578 14.208 277.723 14.502 278.012 14.726C278.301 14.9407 278.703 15.048 279.216 15.048C279.72 15.048 280.159 14.936 280.532 14.712C280.915 14.488 281.19 14.1613 281.358 13.732L281.624 14.656C281.447 15.0947 281.134 15.4447 280.686 15.706C280.238 15.958 279.673 16.084 278.992 16.084ZM285.189 16V5.612H286.533V16H285.189ZM293.055 16V7.922C293.055 7.194 293.265 6.61533 293.685 6.186C294.114 5.74733 294.721 5.528 295.505 5.528C295.794 5.528 296.07 5.56533 296.331 5.64C296.602 5.70533 296.83 5.81267 297.017 5.962L296.611 6.984C296.471 6.872 296.312 6.788 296.135 6.732C295.958 6.66667 295.771 6.634 295.575 6.634C295.183 6.634 294.884 6.746 294.679 6.97C294.474 7.18467 294.371 7.50667 294.371 7.936V8.93L294.399 9.546V16H293.055ZM291.795 9.686V8.58H296.527V9.686H291.795ZM300.863 16.084C300.116 16.084 299.454 15.9207 298.875 15.594C298.296 15.2673 297.839 14.8193 297.503 14.25C297.167 13.6713 296.999 13.018 296.999 12.29C296.999 11.5527 297.167 10.8993 297.503 10.33C297.839 9.76067 298.296 9.31733 298.875 9C299.454 8.67333 300.116 8.51 300.863 8.51C301.6 8.51 302.258 8.67333 302.837 9C303.425 9.31733 303.882 9.76067 304.209 10.33C304.545 10.89 304.713 11.5433 304.713 12.29C304.713 13.0273 304.545 13.6807 304.209 14.25C303.882 14.8193 303.425 15.2673 302.837 15.594C302.258 15.9207 301.6 16.084 300.863 16.084ZM300.863 14.908C301.339 14.908 301.764 14.8007 302.137 14.586C302.52 14.3713 302.818 14.068 303.033 13.676C303.248 13.2747 303.355 12.8127 303.355 12.29C303.355 11.758 303.248 11.3007 303.033 10.918C302.818 10.526 302.52 10.2227 302.137 10.008C301.764 9.79333 301.339 9.686 300.863 9.686C300.387 9.686 299.962 9.79333 299.589 10.008C299.216 10.2227 298.917 10.526 298.693 10.918C298.469 11.3007 298.357 11.758 298.357 12.29C298.357 12.8127 298.469 13.2747 298.693 13.676C298.917 14.068 299.216 14.3713 299.589 14.586C299.962 14.8007 300.387 14.908 300.863 14.908ZM306.572 16V8.58H307.86V10.596L307.734 10.092C307.939 9.57867 308.285 9.18667 308.77 8.916C309.255 8.64533 309.853 8.51 310.562 8.51V9.812C310.506 9.80267 310.45 9.798 310.394 9.798C310.347 9.798 310.301 9.798 310.254 9.798C309.535 9.798 308.966 10.0127 308.546 10.442C308.126 10.8713 307.916 11.492 307.916 12.304V16H306.572ZM318.202 16.084C317.586 16.084 316.998 16 316.438 15.832C315.887 15.664 315.453 15.4587 315.136 15.216L315.696 14.152C316.013 14.3667 316.405 14.5487 316.872 14.698C317.338 14.8473 317.814 14.922 318.3 14.922C318.925 14.922 319.373 14.8333 319.644 14.656C319.924 14.4787 320.064 14.2313 320.064 13.914C320.064 13.6807 319.98 13.4987 319.812 13.368C319.644 13.2373 319.42 13.1393 319.14 13.074C318.869 13.0087 318.566 12.9527 318.23 12.906C317.894 12.85 317.558 12.7847 317.222 12.71C316.886 12.626 316.578 12.514 316.298 12.374C316.018 12.2247 315.794 12.024 315.626 11.772C315.458 11.5107 315.374 11.1653 315.374 10.736C315.374 10.288 315.5 9.896 315.752 9.56C316.004 9.224 316.358 8.96733 316.816 8.79C317.282 8.60333 317.833 8.51 318.468 8.51C318.953 8.51 319.443 8.57067 319.938 8.692C320.442 8.804 320.852 8.96733 321.17 9.182L320.596 10.246C320.26 10.022 319.91 9.868 319.546 9.784C319.182 9.7 318.818 9.658 318.454 9.658C317.866 9.658 317.427 9.756 317.138 9.952C316.848 10.1387 316.704 10.3813 316.704 10.68C316.704 10.932 316.788 11.128 316.956 11.268C317.133 11.3987 317.357 11.5013 317.628 11.576C317.908 11.6507 318.216 11.716 318.552 11.772C318.888 11.8187 319.224 11.884 319.56 11.968C319.896 12.0427 320.199 12.15 320.47 12.29C320.75 12.43 320.974 12.626 321.142 12.878C321.319 13.13 321.408 13.466 321.408 13.886C321.408 14.334 321.277 14.7213 321.016 15.048C320.754 15.3747 320.386 15.6313 319.91 15.818C319.434 15.9953 318.864 16.084 318.202 16.084ZM323.087 16V8.58H324.431V16H323.087ZM323.759 7.152C323.498 7.152 323.279 7.068 323.101 6.9C322.933 6.732 322.849 6.52667 322.849 6.284C322.849 6.032 322.933 5.822 323.101 5.654C323.279 5.486 323.498 5.402 323.759 5.402C324.021 5.402 324.235 5.486 324.403 5.654C324.581 5.81267 324.669 6.01333 324.669 6.256C324.669 6.508 324.585 6.72267 324.417 6.9C324.249 7.068 324.03 7.152 323.759 7.152ZM326.998 16V8.58H328.286V10.582L328.076 10.05C328.318 9.56467 328.692 9.18667 329.196 8.916C329.7 8.64533 330.288 8.51 330.96 8.51C331.566 8.51 332.098 8.62667 332.556 8.86C333.022 9.09333 333.386 9.448 333.648 9.924C333.909 10.4 334.04 11.002 334.04 11.73V16H332.696V11.884C332.696 11.1653 332.518 10.624 332.164 10.26C331.818 9.896 331.328 9.714 330.694 9.714C330.218 9.714 329.802 9.80733 329.448 9.994C329.093 10.1807 328.818 10.456 328.622 10.82C328.435 11.184 328.342 11.6367 328.342 12.178V16H326.998ZM339.775 18.8C339.094 18.8 338.431 18.702 337.787 18.506C337.152 18.3193 336.634 18.0487 336.233 17.694L336.877 16.658C337.222 16.9567 337.647 17.19 338.151 17.358C338.655 17.5353 339.182 17.624 339.733 17.624C340.61 17.624 341.254 17.4187 341.665 17.008C342.076 16.5973 342.281 15.972 342.281 15.132V13.564L342.421 12.094L342.351 10.61V8.58H343.625V14.992C343.625 16.2987 343.298 17.26 342.645 17.876C341.992 18.492 341.035 18.8 339.775 18.8ZM339.607 15.692C338.888 15.692 338.244 15.5427 337.675 15.244C337.115 14.936 336.667 14.5113 336.331 13.97C336.004 13.4287 335.841 12.8033 335.841 12.094C335.841 11.3753 336.004 10.75 336.331 10.218C336.667 9.67667 337.115 9.25667 337.675 8.958C338.244 8.65933 338.888 8.51 339.607 8.51C340.242 8.51 340.82 8.64067 341.343 8.902C341.866 9.154 342.281 9.546 342.589 10.078C342.906 10.61 343.065 11.282 343.065 12.094C343.065 12.8967 342.906 13.564 342.589 14.096C342.281 14.628 341.866 15.0293 341.343 15.3C340.82 15.5613 340.242 15.692 339.607 15.692ZM339.761 14.516C340.256 14.516 340.694 14.4133 341.077 14.208C341.46 14.0027 341.758 13.718 341.973 13.354C342.197 12.99 342.309 12.57 342.309 12.094C342.309 11.618 342.197 11.198 341.973 10.834C341.758 10.47 341.46 10.19 341.077 9.994C340.694 9.78867 340.256 9.686 339.761 9.686C339.266 9.686 338.823 9.78867 338.431 9.994C338.048 10.19 337.745 10.47 337.521 10.834C337.306 11.198 337.199 11.618 337.199 12.094C337.199 12.57 337.306 12.99 337.521 13.354C337.745 13.718 338.048 14.0027 338.431 14.208C338.823 14.4133 339.266 14.516 339.761 14.516ZM346.193 16V5.612H347.537V16H346.193ZM353.407 16.084C352.614 16.084 351.914 15.9207 351.307 15.594C350.71 15.2673 350.243 14.8193 349.907 14.25C349.58 13.6807 349.417 13.0273 349.417 12.29C349.417 11.5527 349.576 10.8993 349.893 10.33C350.22 9.76067 350.663 9.31733 351.223 9C351.792 8.67333 352.432 8.51 353.141 8.51C353.86 8.51 354.494 8.66867 355.045 8.986C355.596 9.30333 356.025 9.75133 356.333 10.33C356.65 10.8993 356.809 11.5667 356.809 12.332C356.809 12.388 356.804 12.4533 356.795 12.528C356.795 12.6027 356.79 12.6727 356.781 12.738H350.467V11.772H356.081L355.535 12.108C355.544 11.632 355.446 11.2073 355.241 10.834C355.036 10.4607 354.751 10.1713 354.387 9.966C354.032 9.75133 353.617 9.644 353.141 9.644C352.674 9.644 352.259 9.75133 351.895 9.966C351.531 10.1713 351.246 10.4653 351.041 10.848C350.836 11.2213 350.733 11.6507 350.733 12.136V12.36C350.733 12.8547 350.845 13.298 351.069 13.69C351.302 14.0727 351.624 14.3713 352.035 14.586C352.446 14.8007 352.917 14.908 353.449 14.908C353.888 14.908 354.284 14.8333 354.639 14.684C355.003 14.5347 355.32 14.3107 355.591 14.012L356.333 14.88C355.997 15.272 355.577 15.5707 355.073 15.776C354.578 15.9813 354.023 16.084 353.407 16.084ZM364.563 16.084C363.947 16.084 363.359 16 362.799 15.832C362.248 15.664 361.814 15.4587 361.497 15.216L362.057 14.152C362.374 14.3667 362.766 14.5487 363.233 14.698C363.7 14.8473 364.176 14.922 364.661 14.922C365.286 14.922 365.734 14.8333 366.005 14.656C366.285 14.4787 366.425 14.2313 366.425 13.914C366.425 13.6807 366.341 13.4987 366.173 13.368C366.005 13.2373 365.781 13.1393 365.501 13.074C365.23 13.0087 364.927 12.9527 364.591 12.906C364.255 12.85 363.919 12.7847 363.583 12.71C363.247 12.626 362.939 12.514 362.659 12.374C362.379 12.2247 362.155 12.024 361.987 11.772C361.819 11.5107 361.735 11.1653 361.735 10.736C361.735 10.288 361.861 9.896 362.113 9.56C362.365 9.224 362.72 8.96733 363.177 8.79C363.644 8.60333 364.194 8.51 364.829 8.51C365.314 8.51 365.804 8.57067 366.299 8.692C366.803 8.804 367.214 8.96733 367.531 9.182L366.957 10.246C366.621 10.022 366.271 9.868 365.907 9.784C365.543 9.7 365.179 9.658 364.815 9.658C364.227 9.658 363.788 9.756 363.499 9.952C363.21 10.1387 363.065 10.3813 363.065 10.68C363.065 10.932 363.149 11.128 363.317 11.268C363.494 11.3987 363.718 11.5013 363.989 11.576C364.269 11.6507 364.577 11.716 364.913 11.772C365.249 11.8187 365.585 11.884 365.921 11.968C366.257 12.0427 366.56 12.15 366.831 12.29C367.111 12.43 367.335 12.626 367.503 12.878C367.68 13.13 367.769 13.466 367.769 13.886C367.769 14.334 367.638 14.7213 367.377 15.048C367.116 15.3747 366.747 15.6313 366.271 15.818C365.795 15.9953 365.226 16.084 364.563 16.084ZM372.753 16.084C371.959 16.084 371.259 15.9207 370.653 15.594C370.055 15.2673 369.589 14.8193 369.253 14.25C368.926 13.6807 368.763 13.0273 368.763 12.29C368.763 11.5527 368.921 10.8993 369.239 10.33C369.565 9.76067 370.009 9.31733 370.569 9C371.138 8.67333 371.777 8.51 372.487 8.51C373.205 8.51 373.84 8.66867 374.391 8.986C374.941 9.30333 375.371 9.75133 375.679 10.33C375.996 10.8993 376.155 11.5667 376.155 12.332C376.155 12.388 376.15 12.4533 376.141 12.528C376.141 12.6027 376.136 12.6727 376.127 12.738H369.813V11.772H375.427L374.881 12.108C374.89 11.632 374.792 11.2073 374.587 10.834C374.381 10.4607 374.097 10.1713 373.733 9.966C373.378 9.75133 372.963 9.644 372.487 9.644C372.02 9.644 371.605 9.75133 371.241 9.966C370.877 10.1713 370.592 10.4653 370.387 10.848C370.181 11.2213 370.079 11.6507 370.079 12.136V12.36C370.079 12.8547 370.191 13.298 370.415 13.69C370.648 14.0727 370.97 14.3713 371.381 14.586C371.791 14.8007 372.263 14.908 372.795 14.908C373.233 14.908 373.63 14.8333 373.985 14.684C374.349 14.5347 374.666 14.3107 374.937 14.012L375.679 14.88C375.343 15.272 374.923 15.5707 374.419 15.776C373.924 15.9813 373.369 16.084 372.753 16.084ZM378.021 16V8.58H379.309V10.596L379.183 10.092C379.388 9.57867 379.734 9.18667 380.219 8.916C380.704 8.64533 381.302 8.51 382.011 8.51V9.812C381.955 9.80267 381.899 9.798 381.843 9.798C381.796 9.798 381.75 9.798 381.703 9.798C380.984 9.798 380.415 10.0127 379.995 10.442C379.575 10.8713 379.365 11.492 379.365 12.304V16H378.021ZM385.914 16L382.666 8.58H384.066L386.95 15.3H386.278L389.218 8.58H390.534L387.286 16H385.914ZM391.789 16V8.58H393.133V16H391.789ZM392.461 7.152C392.199 7.152 391.98 7.068 391.803 6.9C391.635 6.732 391.551 6.52667 391.551 6.284C391.551 6.032 391.635 5.822 391.803 5.654C391.98 5.486 392.199 5.402 392.461 5.402C392.722 5.402 392.937 5.486 393.105 5.654C393.282 5.81267 393.371 6.01333 393.371 6.256C393.371 6.508 393.287 6.72267 393.119 6.9C392.951 7.068 392.731 7.152 392.461 7.152ZM395.699 16V8.58H396.987V10.582L396.777 10.05C397.019 9.56467 397.393 9.18667 397.897 8.916C398.401 8.64533 398.989 8.51 399.661 8.51C400.267 8.51 400.799 8.62667 401.257 8.86C401.723 9.09333 402.087 9.448 402.349 9.924C402.61 10.4 402.741 11.002 402.741 11.73V16H401.397V11.884C401.397 11.1653 401.219 10.624 400.865 10.26C400.519 9.896 400.029 9.714 399.395 9.714C398.919 9.714 398.503 9.80733 398.149 9.994C397.794 10.1807 397.519 10.456 397.323 10.82C397.136 11.184 397.043 11.6367 397.043 12.178V16H395.699ZM408.476 18.8C407.795 18.8 407.132 18.702 406.488 18.506C405.853 18.3193 405.335 18.0487 404.934 17.694L405.578 16.658C405.923 16.9567 406.348 17.19 406.852 17.358C407.356 17.5353 407.883 17.624 408.434 17.624C409.311 17.624 409.955 17.4187 410.366 17.008C410.777 16.5973 410.982 15.972 410.982 15.132V13.564L411.122 12.094L411.052 10.61V8.58H412.326V14.992C412.326 16.2987 411.999 17.26 411.346 17.876C410.693 18.492 409.736 18.8 408.476 18.8ZM408.308 15.692C407.589 15.692 406.945 15.5427 406.376 15.244C405.816 14.936 405.368 14.5113 405.032 13.97C404.705 13.4287 404.542 12.8033 404.542 12.094C404.542 11.3753 404.705 10.75 405.032 10.218C405.368 9.67667 405.816 9.25667 406.376 8.958C406.945 8.65933 407.589 8.51 408.308 8.51C408.943 8.51 409.521 8.64067 410.044 8.902C410.567 9.154 410.982 9.546 411.29 10.078C411.607 10.61 411.766 11.282 411.766 12.094C411.766 12.8967 411.607 13.564 411.29 14.096C410.982 14.628 410.567 15.0293 410.044 15.3C409.521 15.5613 408.943 15.692 408.308 15.692ZM408.462 14.516C408.957 14.516 409.395 14.4133 409.778 14.208C410.161 14.0027 410.459 13.718 410.674 13.354C410.898 12.99 411.01 12.57 411.01 12.094C411.01 11.618 410.898 11.198 410.674 10.834C410.459 10.47 410.161 10.19 409.778 9.994C409.395 9.78867 408.957 9.686 408.462 9.686C407.967 9.686 407.524 9.78867 407.132 9.994C406.749 10.19 406.446 10.47 406.222 10.834C406.007 11.198 405.9 11.618 405.9 12.094C405.9 12.57 406.007 12.99 406.222 13.354C406.446 13.718 406.749 14.0027 407.132 14.208C407.524 14.4133 407.967 14.516 408.462 14.516ZM417.022 16.084C416.406 16.084 415.818 16 415.258 15.832C414.707 15.664 414.273 15.4587 413.956 15.216L414.516 14.152C414.833 14.3667 415.225 14.5487 415.692 14.698C416.159 14.8473 416.635 14.922 417.12 14.922C417.745 14.922 418.193 14.8333 418.464 14.656C418.744 14.4787 418.884 14.2313 418.884 13.914C418.884 13.6807 418.8 13.4987 418.632 13.368C418.464 13.2373 418.24 13.1393 417.96 13.074C417.689 13.0087 417.386 12.9527 417.05 12.906C416.714 12.85 416.378 12.7847 416.042 12.71C415.706 12.626 415.398 12.514 415.118 12.374C414.838 12.2247 414.614 12.024 414.446 11.772C414.278 11.5107 414.194 11.1653 414.194 10.736C414.194 10.288 414.32 9.896 414.572 9.56C414.824 9.224 415.179 8.96733 415.636 8.79C416.103 8.60333 416.653 8.51 417.288 8.51C417.773 8.51 418.263 8.57067 418.758 8.692C419.262 8.804 419.673 8.96733 419.99 9.182L419.416 10.246C419.08 10.022 418.73 9.868 418.366 9.784C418.002 9.7 417.638 9.658 417.274 9.658C416.686 9.658 416.247 9.756 415.958 9.952C415.669 10.1387 415.524 10.3813 415.524 10.68C415.524 10.932 415.608 11.128 415.776 11.268C415.953 11.3987 416.177 11.5013 416.448 11.576C416.728 11.6507 417.036 11.716 417.372 11.772C417.708 11.8187 418.044 11.884 418.38 11.968C418.716 12.0427 419.019 12.15 419.29 12.29C419.57 12.43 419.794 12.626 419.962 12.878C420.139 13.13 420.228 13.466 420.228 13.886C420.228 14.334 420.097 14.7213 419.836 15.048C419.575 15.3747 419.206 15.6313 418.73 15.818C418.254 15.9953 417.685 16.084 417.022 16.084ZM100.587 37L97.8291 29.58H99.1031L101.553 36.3H100.951L103.499 29.58H104.633L107.125 36.3H106.537L109.043 29.58H110.247L107.475 37H106.187L103.849 30.868H104.241L101.875 37H100.587ZM111.611 37V29.58H112.955V37H111.611ZM112.283 28.152C112.022 28.152 111.802 28.068 111.625 27.9C111.457 27.732 111.373 27.5267 111.373 27.284C111.373 27.032 111.457 26.822 111.625 26.654C111.802 26.486 112.022 26.402 112.283 26.402C112.544 26.402 112.759 26.486 112.927 26.654C113.104 26.8127 113.193 27.0133 113.193 27.256C113.193 27.508 113.109 27.7227 112.941 27.9C112.773 28.068 112.554 28.152 112.283 28.152ZM118.028 37.084C117.281 37.084 116.703 36.8833 116.292 36.482C115.881 36.0807 115.676 35.5067 115.676 34.76V27.956H117.02V34.704C117.02 35.1053 117.118 35.4133 117.314 35.628C117.519 35.8427 117.809 35.95 118.182 35.95C118.602 35.95 118.952 35.8333 119.232 35.6L119.652 36.566C119.447 36.7433 119.199 36.874 118.91 36.958C118.63 37.042 118.336 37.084 118.028 37.084ZM114.416 30.686V29.58H119.148V30.686H114.416ZM121.277 37V26.612H122.621V31.582L122.355 31.05C122.598 30.5647 122.971 30.1867 123.475 29.916C123.979 29.6453 124.567 29.51 125.239 29.51C125.846 29.51 126.378 29.6267 126.835 29.86C127.302 30.0933 127.666 30.448 127.927 30.924C128.188 31.4 128.319 32.002 128.319 32.73V37H126.975V32.884C126.975 32.1653 126.798 31.624 126.443 31.26C126.098 30.896 125.608 30.714 124.973 30.714C124.497 30.714 124.082 30.8073 123.727 30.994C123.372 31.1807 123.097 31.456 122.901 31.82C122.714 32.184 122.621 32.6367 122.621 33.178V37H121.277ZM136.694 37.084C136.078 37.084 135.49 37 134.93 36.832C134.379 36.664 133.945 36.4587 133.628 36.216L134.188 35.152C134.505 35.3667 134.897 35.5487 135.364 35.698C135.831 35.8473 136.307 35.922 136.792 35.922C137.417 35.922 137.865 35.8333 138.136 35.656C138.416 35.4787 138.556 35.2313 138.556 34.914C138.556 34.6807 138.472 34.4987 138.304 34.368C138.136 34.2373 137.912 34.1393 137.632 34.074C137.361 34.0087 137.058 33.9527 136.722 33.906C136.386 33.85 136.05 33.7847 135.714 33.71C135.378 33.626 135.07 33.514 134.79 33.374C134.51 33.2247 134.286 33.024 134.118 32.772C133.95 32.5107 133.866 32.1653 133.866 31.736C133.866 31.288 133.992 30.896 134.244 30.56C134.496 30.224 134.851 29.9673 135.308 29.79C135.775 29.6033 136.325 29.51 136.96 29.51C137.445 29.51 137.935 29.5707 138.43 29.692C138.934 29.804 139.345 29.9673 139.662 30.182L139.088 31.246C138.752 31.022 138.402 30.868 138.038 30.784C137.674 30.7 137.31 30.658 136.946 30.658C136.358 30.658 135.919 30.756 135.63 30.952C135.341 31.1387 135.196 31.3813 135.196 31.68C135.196 31.932 135.28 32.128 135.448 32.268C135.625 32.3987 135.849 32.5013 136.12 32.576C136.4 32.6507 136.708 32.716 137.044 32.772C137.38 32.8187 137.716 32.884 138.052 32.968C138.388 33.0427 138.691 33.15 138.962 33.29C139.242 33.43 139.466 33.626 139.634 33.878C139.811 34.13 139.9 34.466 139.9 34.886C139.9 35.334 139.769 35.7213 139.508 36.048C139.247 36.3747 138.878 36.6313 138.402 36.818C137.926 36.9953 137.357 37.084 136.694 37.084ZM144.884 37.084C144.09 37.084 143.39 36.9207 142.784 36.594C142.186 36.2673 141.72 35.8193 141.384 35.25C141.057 34.6807 140.894 34.0273 140.894 33.29C140.894 32.5527 141.052 31.8993 141.37 31.33C141.696 30.7607 142.14 30.3173 142.7 30C143.269 29.6733 143.908 29.51 144.618 29.51C145.336 29.51 145.971 29.6687 146.522 29.986C147.072 30.3033 147.502 30.7513 147.81 31.33C148.127 31.8993 148.286 32.5667 148.286 33.332C148.286 33.388 148.281 33.4533 148.272 33.528C148.272 33.6027 148.267 33.6727 148.258 33.738H141.944V32.772H147.558L147.012 33.108C147.021 32.632 146.923 32.2073 146.718 31.834C146.512 31.4607 146.228 31.1713 145.864 30.966C145.509 30.7513 145.094 30.644 144.618 30.644C144.151 30.644 143.736 30.7513 143.372 30.966C143.008 31.1713 142.723 31.4653 142.518 31.848C142.312 32.2213 142.21 32.6507 142.21 33.136V33.36C142.21 33.8547 142.322 34.298 142.546 34.69C142.779 35.0727 143.101 35.3713 143.512 35.586C143.922 35.8007 144.394 35.908 144.926 35.908C145.364 35.908 145.761 35.8333 146.116 35.684C146.48 35.5347 146.797 35.3107 147.068 35.012L147.81 35.88C147.474 36.272 147.054 36.5707 146.55 36.776C146.055 36.9813 145.5 37.084 144.884 37.084ZM153.386 37.084C152.63 37.084 151.953 36.9207 151.356 36.594C150.768 36.2673 150.306 35.8193 149.97 35.25C149.634 34.6807 149.466 34.0273 149.466 33.29C149.466 32.5527 149.634 31.8993 149.97 31.33C150.306 30.7607 150.768 30.3173 151.356 30C151.953 29.6733 152.63 29.51 153.386 29.51C154.058 29.51 154.655 29.6453 155.178 29.916C155.71 30.1773 156.121 30.5693 156.41 31.092L155.388 31.75C155.145 31.386 154.847 31.12 154.492 30.952C154.147 30.7747 153.773 30.686 153.372 30.686C152.887 30.686 152.453 30.7933 152.07 31.008C151.687 31.2227 151.384 31.526 151.16 31.918C150.936 32.3007 150.824 32.758 150.824 33.29C150.824 33.822 150.936 34.284 151.16 34.676C151.384 35.068 151.687 35.3713 152.07 35.586C152.453 35.8007 152.887 35.908 153.372 35.908C153.773 35.908 154.147 35.824 154.492 35.656C154.847 35.4787 155.145 35.208 155.388 34.844L156.41 35.488C156.121 36.0013 155.71 36.398 155.178 36.678C154.655 36.9487 154.058 37.084 153.386 37.084ZM161.272 37.084C160.637 37.084 160.077 36.9673 159.592 36.734C159.116 36.5007 158.743 36.146 158.472 35.67C158.211 35.1847 158.08 34.578 158.08 33.85V29.58H159.424V33.696C159.424 34.424 159.597 34.97 159.942 35.334C160.297 35.698 160.791 35.88 161.426 35.88C161.893 35.88 162.299 35.7867 162.644 35.6C162.989 35.404 163.255 35.124 163.442 34.76C163.629 34.3867 163.722 33.9387 163.722 33.416V29.58H165.066V37H163.792V34.998L164.002 35.53C163.759 36.0247 163.395 36.4073 162.91 36.678C162.425 36.9487 161.879 37.084 161.272 37.084ZM167.625 37V29.58H168.913V31.596L168.787 31.092C168.992 30.5787 169.337 30.1867 169.823 29.916C170.308 29.6453 170.905 29.51 171.615 29.51V30.812C171.559 30.8027 171.503 30.798 171.447 30.798C171.4 30.798 171.353 30.798 171.307 30.798C170.588 30.798 170.019 31.0127 169.599 31.442C169.179 31.8713 168.969 32.492 168.969 33.304V37H167.625ZM176.507 37.084C175.713 37.084 175.013 36.9207 174.407 36.594C173.809 36.2673 173.343 35.8193 173.007 35.25C172.68 34.6807 172.517 34.0273 172.517 33.29C172.517 32.5527 172.675 31.8993 172.993 31.33C173.319 30.7607 173.763 30.3173 174.323 30C174.892 29.6733 175.531 29.51 176.241 29.51C176.959 29.51 177.594 29.6687 178.145 29.986C178.695 30.3033 179.125 30.7513 179.433 31.33C179.75 31.8993 179.909 32.5667 179.909 33.332C179.909 33.388 179.904 33.4533 179.895 33.528C179.895 33.6027 179.89 33.6727 179.881 33.738H173.567V32.772H179.181L178.635 33.108C178.644 32.632 178.546 32.2073 178.341 31.834C178.135 31.4607 177.851 31.1713 177.487 30.966C177.132 30.7513 176.717 30.644 176.241 30.644C175.774 30.644 175.359 30.7513 174.995 30.966C174.631 31.1713 174.346 31.4653 174.141 31.848C173.935 32.2213 173.833 32.6507 173.833 33.136V33.36C173.833 33.8547 173.945 34.298 174.169 34.69C174.402 35.0727 174.724 35.3713 175.135 35.586C175.545 35.8007 176.017 35.908 176.549 35.908C176.987 35.908 177.384 35.8333 177.739 35.684C178.103 35.5347 178.42 35.3107 178.691 35.012L179.433 35.88C179.097 36.272 178.677 36.5707 178.173 36.776C177.678 36.9813 177.123 37.084 176.507 37.084ZM181.243 39.072L181.943 36.244L182.125 37.056C181.854 37.056 181.626 36.972 181.439 36.804C181.262 36.636 181.173 36.4073 181.173 36.118C181.173 35.838 181.262 35.6093 181.439 35.432C181.626 35.2547 181.85 35.166 182.111 35.166C182.382 35.166 182.601 35.2593 182.769 35.446C182.937 35.6233 183.021 35.8473 183.021 36.118C183.021 36.2113 183.012 36.3047 182.993 36.398C182.984 36.482 182.96 36.5847 182.923 36.706C182.895 36.818 182.848 36.958 182.783 37.126L182.125 39.072H181.243ZM188.707 37V26.612H190.051V37H188.707ZM195.921 37.084C195.127 37.084 194.427 36.9207 193.821 36.594C193.223 36.2673 192.757 35.8193 192.421 35.25C192.094 34.6807 191.931 34.0273 191.931 33.29C191.931 32.5527 192.089 31.8993 192.407 31.33C192.733 30.7607 193.177 30.3173 193.737 30C194.306 29.6733 194.945 29.51 195.655 29.51C196.373 29.51 197.008 29.6687 197.559 29.986C198.109 30.3033 198.539 30.7513 198.847 31.33C199.164 31.8993 199.323 32.5667 199.323 33.332C199.323 33.388 199.318 33.4533 199.309 33.528C199.309 33.6027 199.304 33.6727 199.295 33.738H192.981V32.772H198.595L198.049 33.108C198.058 32.632 197.96 32.2073 197.755 31.834C197.549 31.4607 197.265 31.1713 196.901 30.966C196.546 30.7513 196.131 30.644 195.655 30.644C195.188 30.644 194.773 30.7513 194.409 30.966C194.045 31.1713 193.76 31.4653 193.555 31.848C193.349 32.2213 193.247 32.6507 193.247 33.136V33.36C193.247 33.8547 193.359 34.298 193.583 34.69C193.816 35.0727 194.138 35.3713 194.549 35.586C194.959 35.8007 195.431 35.908 195.963 35.908C196.401 35.908 196.798 35.8333 197.153 35.684C197.517 35.5347 197.834 35.3107 198.105 35.012L198.847 35.88C198.511 36.272 198.091 36.5707 197.587 36.776C197.092 36.9813 196.537 37.084 195.921 37.084ZM205.59 37V35.432L205.52 35.138V32.464C205.52 31.8947 205.352 31.456 205.016 31.148C204.689 30.8307 204.195 30.672 203.532 30.672C203.093 30.672 202.664 30.7467 202.244 30.896C201.824 31.036 201.469 31.2273 201.18 31.47L200.62 30.462C201.003 30.154 201.46 29.9207 201.992 29.762C202.533 29.594 203.098 29.51 203.686 29.51C204.703 29.51 205.487 29.7573 206.038 30.252C206.589 30.7467 206.864 31.5027 206.864 32.52V37H205.59ZM203.154 37.084C202.603 37.084 202.118 36.9907 201.698 36.804C201.287 36.6173 200.97 36.3607 200.746 36.034C200.522 35.698 200.41 35.32 200.41 34.9C200.41 34.4987 200.503 34.1347 200.69 33.808C200.886 33.4813 201.199 33.22 201.628 33.024C202.067 32.828 202.655 32.73 203.392 32.73H205.744V33.696H203.448C202.776 33.696 202.323 33.808 202.09 34.032C201.857 34.256 201.74 34.5267 201.74 34.844C201.74 35.208 201.885 35.502 202.174 35.726C202.463 35.9407 202.865 36.048 203.378 36.048C203.882 36.048 204.321 35.936 204.694 35.712C205.077 35.488 205.352 35.1613 205.52 34.732L205.786 35.656C205.609 36.0947 205.296 36.4447 204.848 36.706C204.4 36.958 203.835 37.084 203.154 37.084ZM210.443 35.208L210.471 33.486L214.741 29.58H216.365L213.089 32.8L212.361 33.416L210.443 35.208ZM209.351 37V26.612H210.695V37H209.351ZM215.021 37L212.109 33.388L212.977 32.31L216.673 37H215.021ZM217.174 33.738V32.576H220.94V33.738H217.174ZM226.943 37.084C226.327 37.084 225.763 36.944 225.249 36.664C224.745 36.3747 224.339 35.95 224.031 35.39C223.733 34.83 223.583 34.13 223.583 33.29C223.583 32.45 223.728 31.75 224.017 31.19C224.316 30.63 224.717 30.21 225.221 29.93C225.735 29.65 226.309 29.51 226.943 29.51C227.671 29.51 228.315 29.6687 228.875 29.986C229.435 30.3033 229.879 30.7467 230.205 31.316C230.532 31.876 230.695 32.534 230.695 33.29C230.695 34.046 230.532 34.7087 230.205 35.278C229.879 35.8473 229.435 36.2907 228.875 36.608C228.315 36.9253 227.671 37.084 226.943 37.084ZM223.009 39.716V29.58H224.297V31.582L224.213 33.304L224.353 35.026V39.716H223.009ZM226.831 35.908C227.307 35.908 227.732 35.8007 228.105 35.586C228.488 35.3713 228.787 35.068 229.001 34.676C229.225 34.2747 229.337 33.8127 229.337 33.29C229.337 32.758 229.225 32.3007 229.001 31.918C228.787 31.526 228.488 31.2227 228.105 31.008C227.732 30.7933 227.307 30.686 226.831 30.686C226.365 30.686 225.94 30.7933 225.557 31.008C225.184 31.2227 224.885 31.526 224.661 31.918C224.447 32.3007 224.339 32.758 224.339 33.29C224.339 33.8127 224.447 34.2747 224.661 34.676C224.885 35.068 225.184 35.3713 225.557 35.586C225.94 35.8007 226.365 35.908 226.831 35.908ZM232.552 37V29.58H233.84V31.596L233.714 31.092C233.92 30.5787 234.265 30.1867 234.75 29.916C235.236 29.6453 235.833 29.51 236.542 29.51V30.812C236.486 30.8027 236.43 30.798 236.374 30.798C236.328 30.798 236.281 30.798 236.234 30.798C235.516 30.798 234.946 31.0127 234.526 31.442C234.106 31.8713 233.896 32.492 233.896 33.304V37H232.552ZM241.308 37.084C240.562 37.084 239.899 36.9207 239.32 36.594C238.742 36.2673 238.284 35.8193 237.948 35.25C237.612 34.6713 237.444 34.018 237.444 33.29C237.444 32.5527 237.612 31.8993 237.948 31.33C238.284 30.7607 238.742 30.3173 239.32 30C239.899 29.6733 240.562 29.51 241.308 29.51C242.046 29.51 242.704 29.6733 243.282 30C243.87 30.3173 244.328 30.7607 244.654 31.33C244.99 31.89 245.158 32.5433 245.158 33.29C245.158 34.0273 244.99 34.6807 244.654 35.25C244.328 35.8193 243.87 36.2673 243.282 36.594C242.704 36.9207 242.046 37.084 241.308 37.084ZM241.308 35.908C241.784 35.908 242.209 35.8007 242.582 35.586C242.965 35.3713 243.264 35.068 243.478 34.676C243.693 34.2747 243.8 33.8127 243.8 33.29C243.8 32.758 243.693 32.3007 243.478 31.918C243.264 31.526 242.965 31.2227 242.582 31.008C242.209 30.7933 241.784 30.686 241.308 30.686C240.832 30.686 240.408 30.7933 240.034 31.008C239.661 31.2227 239.362 31.526 239.138 31.918C238.914 32.3007 238.802 32.758 238.802 33.29C238.802 33.8127 238.914 34.2747 239.138 34.676C239.362 35.068 239.661 35.3713 240.034 35.586C240.408 35.8007 240.832 35.908 241.308 35.908ZM250.195 37.084C249.448 37.084 248.786 36.9207 248.207 36.594C247.628 36.2673 247.171 35.8193 246.835 35.25C246.499 34.6713 246.331 34.018 246.331 33.29C246.331 32.5527 246.499 31.8993 246.835 31.33C247.171 30.7607 247.628 30.3173 248.207 30C248.786 29.6733 249.448 29.51 250.195 29.51C250.932 29.51 251.59 29.6733 252.169 30C252.757 30.3173 253.214 30.7607 253.541 31.33C253.877 31.89 254.045 32.5433 254.045 33.29C254.045 34.0273 253.877 34.6807 253.541 35.25C253.214 35.8193 252.757 36.2673 252.169 36.594C251.59 36.9207 250.932 37.084 250.195 37.084ZM250.195 35.908C250.671 35.908 251.096 35.8007 251.469 35.586C251.852 35.3713 252.15 35.068 252.365 34.676C252.58 34.2747 252.687 33.8127 252.687 33.29C252.687 32.758 252.58 32.3007 252.365 31.918C252.15 31.526 251.852 31.2227 251.469 31.008C251.096 30.7933 250.671 30.686 250.195 30.686C249.719 30.686 249.294 30.7933 248.921 31.008C248.548 31.2227 248.249 31.526 248.025 31.918C247.801 32.3007 247.689 32.758 247.689 33.29C247.689 33.8127 247.801 34.2747 248.025 34.676C248.249 35.068 248.548 35.3713 248.921 35.586C249.294 35.8007 249.719 35.908 250.195 35.908ZM256.1 37V28.922C256.1 28.194 256.31 27.6153 256.73 27.186C257.159 26.7473 257.766 26.528 258.55 26.528C258.839 26.528 259.115 26.5653 259.376 26.64C259.647 26.7053 259.875 26.8127 260.062 26.962L259.656 27.984C259.516 27.872 259.357 27.788 259.18 27.732C259.003 27.6667 258.816 27.634 258.62 27.634C258.228 27.634 257.929 27.746 257.724 27.97C257.519 28.1847 257.416 28.5067 257.416 28.936V29.93L257.444 30.546V37H256.1ZM254.84 30.686V29.58H259.572V30.686H254.84ZM264.795 37V28.922C264.795 28.194 265.005 27.6153 265.425 27.186C265.855 26.7473 266.461 26.528 267.245 26.528C267.535 26.528 267.81 26.5653 268.071 26.64C268.342 26.7053 268.571 26.8127 268.757 26.962L268.351 27.984C268.211 27.872 268.053 27.788 267.875 27.732C267.698 27.6667 267.511 27.634 267.315 27.634C266.923 27.634 266.625 27.746 266.419 27.97C266.214 28.1847 266.111 28.5067 266.111 28.936V29.93L266.139 30.546V37H264.795ZM263.535 30.686V29.58H268.267V30.686H263.535ZM269.535 37V29.58H270.823V31.596L270.697 31.092C270.902 30.5787 271.247 30.1867 271.733 29.916C272.218 29.6453 272.815 29.51 273.525 29.51V30.812C273.469 30.8027 273.413 30.798 273.357 30.798C273.31 30.798 273.263 30.798 273.217 30.798C272.498 30.798 271.929 31.0127 271.509 31.442C271.089 31.8713 270.879 32.492 270.879 33.304V37H269.535ZM278.417 37.084C277.624 37.084 276.924 36.9207 276.317 36.594C275.72 36.2673 275.253 35.8193 274.917 35.25C274.59 34.6807 274.427 34.0273 274.427 33.29C274.427 32.5527 274.586 31.8993 274.903 31.33C275.23 30.7607 275.673 30.3173 276.233 30C276.802 29.6733 277.442 29.51 278.151 29.51C278.87 29.51 279.504 29.6687 280.055 29.986C280.606 30.3033 281.035 30.7513 281.343 31.33C281.66 31.8993 281.819 32.5667 281.819 33.332C281.819 33.388 281.814 33.4533 281.805 33.528C281.805 33.6027 281.8 33.6727 281.791 33.738H275.477V32.772H281.091L280.545 33.108C280.554 32.632 280.456 32.2073 280.251 31.834C280.046 31.4607 279.761 31.1713 279.397 30.966C279.042 30.7513 278.627 30.644 278.151 30.644C277.684 30.644 277.269 30.7513 276.905 30.966C276.541 31.1713 276.256 31.4653 276.051 31.848C275.846 32.2213 275.743 32.6507 275.743 33.136V33.36C275.743 33.8547 275.855 34.298 276.079 34.69C276.312 35.0727 276.634 35.3713 277.045 35.586C277.456 35.8007 277.927 35.908 278.459 35.908C278.898 35.908 279.294 35.8333 279.649 35.684C280.013 35.5347 280.33 35.3107 280.601 35.012L281.343 35.88C281.007 36.272 280.587 36.5707 280.083 36.776C279.588 36.9813 279.033 37.084 278.417 37.084ZM285.813 37.084C285.197 37.084 284.609 37 284.049 36.832C283.498 36.664 283.064 36.4587 282.747 36.216L283.307 35.152C283.624 35.3667 284.016 35.5487 284.483 35.698C284.95 35.8473 285.426 35.922 285.911 35.922C286.536 35.922 286.984 35.8333 287.255 35.656C287.535 35.4787 287.675 35.2313 287.675 34.914C287.675 34.6807 287.591 34.4987 287.423 34.368C287.255 34.2373 287.031 34.1393 286.751 34.074C286.48 34.0087 286.177 33.9527 285.841 33.906C285.505 33.85 285.169 33.7847 284.833 33.71C284.497 33.626 284.189 33.514 283.909 33.374C283.629 33.2247 283.405 33.024 283.237 32.772C283.069 32.5107 282.985 32.1653 282.985 31.736C282.985 31.288 283.111 30.896 283.363 30.56C283.615 30.224 283.97 29.9673 284.427 29.79C284.894 29.6033 285.444 29.51 286.079 29.51C286.564 29.51 287.054 29.5707 287.549 29.692C288.053 29.804 288.464 29.9673 288.781 30.182L288.207 31.246C287.871 31.022 287.521 30.868 287.157 30.784C286.793 30.7 286.429 30.658 286.065 30.658C285.477 30.658 285.038 30.756 284.749 30.952C284.46 31.1387 284.315 31.3813 284.315 31.68C284.315 31.932 284.399 32.128 284.567 32.268C284.744 32.3987 284.968 32.5013 285.239 32.576C285.519 32.6507 285.827 32.716 286.163 32.772C286.499 32.8187 286.835 32.884 287.171 32.968C287.507 33.0427 287.81 33.15 288.081 33.29C288.361 33.43 288.585 33.626 288.753 33.878C288.93 34.13 289.019 34.466 289.019 34.886C289.019 35.334 288.888 35.7213 288.627 36.048C288.366 36.3747 287.997 36.6313 287.521 36.818C287.045 36.9953 286.476 37.084 285.813 37.084ZM290.699 37V26.612H292.043V31.582L291.777 31.05C292.019 30.5647 292.393 30.1867 292.897 29.916C293.401 29.6453 293.989 29.51 294.661 29.51C295.267 29.51 295.799 29.6267 296.257 29.86C296.723 30.0933 297.087 30.448 297.349 30.924C297.61 31.4 297.741 32.002 297.741 32.73V37H296.397V32.884C296.397 32.1653 296.219 31.624 295.865 31.26C295.519 30.896 295.029 30.714 294.395 30.714C293.919 30.714 293.503 30.8073 293.149 30.994C292.794 31.1807 292.519 31.456 292.323 31.82C292.136 32.184 292.043 32.6367 292.043 33.178V37H290.699ZM300.228 37V29.58H301.516V31.582L301.306 31.05C301.549 30.5647 301.922 30.1867 302.426 29.916C302.93 29.6453 303.518 29.51 304.19 29.51C304.797 29.51 305.329 29.6267 305.786 29.86C306.253 30.0933 306.617 30.448 306.878 30.924C307.139 31.4 307.27 32.002 307.27 32.73V37H305.926V32.884C305.926 32.1653 305.749 31.624 305.394 31.26C305.049 30.896 304.559 30.714 303.924 30.714C303.448 30.714 303.033 30.8073 302.678 30.994C302.323 31.1807 302.048 31.456 301.852 31.82C301.665 32.184 301.572 32.6367 301.572 33.178V37H300.228ZM313.061 37.084C312.268 37.084 311.568 36.9207 310.961 36.594C310.364 36.2673 309.897 35.8193 309.561 35.25C309.235 34.6807 309.071 34.0273 309.071 33.29C309.071 32.5527 309.23 31.8993 309.547 31.33C309.874 30.7607 310.317 30.3173 310.877 30C311.447 29.6733 312.086 29.51 312.795 29.51C313.514 29.51 314.149 29.6687 314.699 29.986C315.25 30.3033 315.679 30.7513 315.987 31.33C316.305 31.8993 316.463 32.5667 316.463 33.332C316.463 33.388 316.459 33.4533 316.449 33.528C316.449 33.6027 316.445 33.6727 316.435 33.738H310.121V32.772H315.735L315.189 33.108C315.199 32.632 315.101 32.2073 314.895 31.834C314.69 31.4607 314.405 31.1713 314.041 30.966C313.687 30.7513 313.271 30.644 312.795 30.644C312.329 30.644 311.913 30.7513 311.549 30.966C311.185 31.1713 310.901 31.4653 310.695 31.848C310.49 32.2213 310.387 32.6507 310.387 33.136V33.36C310.387 33.8547 310.499 34.298 310.723 34.69C310.957 35.0727 311.279 35.3713 311.689 35.586C312.1 35.8007 312.571 35.908 313.103 35.908C313.542 35.908 313.939 35.8333 314.293 35.684C314.657 35.5347 314.975 35.3107 315.245 35.012L315.987 35.88C315.651 36.272 315.231 36.5707 314.727 36.776C314.233 36.9813 313.677 37.084 313.061 37.084ZM320.458 37.084C319.842 37.084 319.254 37 318.694 36.832C318.143 36.664 317.709 36.4587 317.392 36.216L317.952 35.152C318.269 35.3667 318.661 35.5487 319.128 35.698C319.594 35.8473 320.07 35.922 320.556 35.922C321.181 35.922 321.629 35.8333 321.9 35.656C322.18 35.4787 322.32 35.2313 322.32 34.914C322.32 34.6807 322.236 34.4987 322.068 34.368C321.9 34.2373 321.676 34.1393 321.396 34.074C321.125 34.0087 320.822 33.9527 320.486 33.906C320.15 33.85 319.814 33.7847 319.478 33.71C319.142 33.626 318.834 33.514 318.554 33.374C318.274 33.2247 318.05 33.024 317.882 32.772C317.714 32.5107 317.63 32.1653 317.63 31.736C317.63 31.288 317.756 30.896 318.008 30.56C318.26 30.224 318.614 29.9673 319.072 29.79C319.538 29.6033 320.089 29.51 320.724 29.51C321.209 29.51 321.699 29.5707 322.194 29.692C322.698 29.804 323.108 29.9673 323.426 30.182L322.852 31.246C322.516 31.022 322.166 30.868 321.802 30.784C321.438 30.7 321.074 30.658 320.71 30.658C320.122 30.658 319.683 30.756 319.394 30.952C319.104 31.1387 318.96 31.3813 318.96 31.68C318.96 31.932 319.044 32.128 319.212 32.268C319.389 32.3987 319.613 32.5013 319.884 32.576C320.164 32.6507 320.472 32.716 320.808 32.772C321.144 32.8187 321.48 32.884 321.816 32.968C322.152 33.0427 322.455 33.15 322.726 33.29C323.006 33.43 323.23 33.626 323.398 33.878C323.575 34.13 323.664 34.466 323.664 34.886C323.664 35.334 323.533 35.7213 323.272 36.048C323.01 36.3747 322.642 36.6313 322.166 36.818C321.69 36.9953 321.12 37.084 320.458 37.084ZM327.471 37.084C326.855 37.084 326.267 37 325.707 36.832C325.157 36.664 324.723 36.4587 324.405 36.216L324.965 35.152C325.283 35.3667 325.675 35.5487 326.141 35.698C326.608 35.8473 327.084 35.922 327.569 35.922C328.195 35.922 328.643 35.8333 328.913 35.656C329.193 35.4787 329.333 35.2313 329.333 34.914C329.333 34.6807 329.249 34.4987 329.081 34.368C328.913 34.2373 328.689 34.1393 328.409 34.074C328.139 34.0087 327.835 33.9527 327.499 33.906C327.163 33.85 326.827 33.7847 326.491 33.71C326.155 33.626 325.847 33.514 325.567 33.374C325.287 33.2247 325.063 33.024 324.895 32.772C324.727 32.5107 324.643 32.1653 324.643 31.736C324.643 31.288 324.769 30.896 325.021 30.56C325.273 30.224 325.628 29.9673 326.085 29.79C326.552 29.6033 327.103 29.51 327.737 29.51C328.223 29.51 328.713 29.5707 329.207 29.692C329.711 29.804 330.122 29.9673 330.439 30.182L329.865 31.246C329.529 31.022 329.179 30.868 328.815 30.784C328.451 30.7 328.087 30.658 327.723 30.658C327.135 30.658 326.697 30.756 326.407 30.952C326.118 31.1387 325.973 31.3813 325.973 31.68C325.973 31.932 326.057 32.128 326.225 32.268C326.403 32.3987 326.627 32.5013 326.897 32.576C327.177 32.6507 327.485 32.716 327.821 32.772C328.157 32.8187 328.493 32.884 328.829 32.968C329.165 33.0427 329.469 33.15 329.739 33.29C330.019 33.43 330.243 33.626 330.411 33.878C330.589 34.13 330.677 34.466 330.677 34.886C330.677 35.334 330.547 35.7213 330.285 36.048C330.024 36.3747 329.655 36.6313 329.179 36.818C328.703 36.9953 328.134 37.084 327.471 37.084ZM332.679 37.084C332.418 37.084 332.194 36.9953 332.007 36.818C331.82 36.6313 331.727 36.398 331.727 36.118C331.727 35.838 331.82 35.6093 332.007 35.432C332.194 35.2547 332.418 35.166 332.679 35.166C332.931 35.166 333.146 35.2547 333.323 35.432C333.51 35.6093 333.603 35.838 333.603 36.118C333.603 36.398 333.51 36.6313 333.323 36.818C333.146 36.9953 332.931 37.084 332.679 37.084Z" fill="black"/>
</svg>
