<svg width="185" height="15" viewBox="0 0 185 15" fill="none" xmlns="http://www.w3.org/2000/svg">
<path d="M2.00003 14.9751C1.36003 14.0044 0.864031 12.8844 0.512031 11.6151C0.170698 10.3351 3.1352e-05 8.95909 3.1352e-05 7.48709C3.1352e-05 6.01509 0.170698 4.63909 0.512031 3.35909C0.864031 2.06843 1.36003 0.948426 2.00003 -0.000906944H4.38403C3.71203 1.20443 3.22136 2.42043 2.91203 3.64709C2.6027 4.86309 2.44803 6.14309 2.44803 7.48709C2.44803 8.83109 2.6027 10.1164 2.91203 11.3431C3.22136 12.5591 3.71203 13.7698 4.38403 14.9751H2.00003ZM5.87878 11.8711V0.671093H8.47078V11.8711H5.87878ZM11.1288 11.8711V0.671093H13.2728L18.0408 8.57509H16.9048L21.5928 0.671093L23.7208 0.671093L23.7528 11.8711H21.3208L21.3048 4.39909H21.7528L18.0088 10.6871H16.8408L13.0168 4.39909H13.5608V11.8711H11.1288ZM26.41 11.8711V0.671093H29.002V9.75909H34.618V11.8711H26.41ZM40.5975 11.8711V0.671093H42.7415L47.5095 8.57509H46.3735L51.0615 0.671093H53.1895L53.2215 11.8711L50.7895 11.8711L50.7735 4.39909H51.2215L47.4775 10.6871H46.3095L42.4855 4.39909H43.0295V11.8711H40.5975ZM61.3188 12.0631C60.4334 12.0631 59.6121 11.9191 58.8548 11.6311C58.1081 11.3431 57.4574 10.9378 56.9028 10.4151C56.3588 9.89243 55.9321 9.27909 55.6228 8.57509C55.3241 7.87109 55.1748 7.10309 55.1748 6.27109C55.1748 5.43909 55.3241 4.67109 55.6228 3.96709C55.9321 3.26309 56.3641 2.64976 56.9188 2.12709C57.4734 1.60443 58.1241 1.19909 58.8708 0.911093C59.6174 0.623093 60.4281 0.479094 61.3028 0.479094C62.1881 0.479094 62.9988 0.623093 63.7348 0.911093C64.4814 1.19909 65.1268 1.60443 65.6708 2.12709C66.2254 2.64976 66.6574 3.26309 66.9668 3.96709C67.2761 4.66043 67.4308 5.42843 67.4308 6.27109C67.4308 7.10309 67.2761 7.87643 66.9668 8.59109C66.6574 9.29509 66.2254 9.90843 65.6708 10.4311C65.1268 10.9431 64.4814 11.3431 63.7348 11.6311C62.9988 11.9191 62.1934 12.0631 61.3188 12.0631ZM61.3028 9.85509C61.8041 9.85509 62.2628 9.76976 62.6788 9.59909C63.1054 9.42843 63.4788 9.18309 63.7988 8.86309C64.1188 8.54309 64.3641 8.16443 64.5348 7.72709C64.7161 7.28976 64.8068 6.80443 64.8068 6.27109C64.8068 5.73776 64.7161 5.25243 64.5348 4.81509C64.3641 4.37776 64.1188 3.99909 63.7988 3.67909C63.4894 3.35909 63.1214 3.11376 62.6948 2.94309C62.2681 2.77243 61.8041 2.68709 61.3028 2.68709C60.8014 2.68709 60.3374 2.77243 59.9108 2.94309C59.4948 3.11376 59.1268 3.35909 58.8068 3.67909C58.4868 3.99909 58.2361 4.37776 58.0548 4.81509C57.8841 5.25243 57.7988 5.73776 57.7988 6.27109C57.7988 6.79376 57.8841 7.27909 58.0548 7.72709C58.2361 8.16443 58.4814 8.54309 58.7908 8.86309C59.1108 9.18309 59.4841 9.42843 59.9108 9.59909C60.3374 9.76976 60.8014 9.85509 61.3028 9.85509ZM74.8028 12.0631C73.9281 12.0631 73.1121 11.9191 72.3548 11.6311C71.6081 11.3431 70.9574 10.9378 70.4028 10.4151C69.8588 9.89243 69.4321 9.27909 69.1228 8.57509C68.8241 7.87109 68.6748 7.10309 68.6748 6.27109C68.6748 5.43909 68.8241 4.67109 69.1228 3.96709C69.4321 3.26309 69.8641 2.64976 70.4188 2.12709C70.9734 1.60443 71.6241 1.19909 72.3708 0.911093C73.1174 0.623093 73.9281 0.479094 74.8028 0.479094C75.6881 0.479094 76.4988 0.623093 77.2348 0.911093C77.9814 1.19909 78.6268 1.60443 79.1708 2.12709C79.7254 2.63909 80.1574 3.24709 80.4668 3.95109C80.7761 4.65509 80.9308 5.42843 80.9308 6.27109C80.9308 7.10309 80.7761 7.87643 80.4668 8.59109C80.1574 9.29509 79.7254 9.90843 79.1708 10.4311C78.6268 10.9431 77.9814 11.3431 77.2348 11.6311C76.4988 11.9191 75.6881 12.0631 74.8028 12.0631ZM78.4668 14.4471C78.0294 14.4471 77.6134 14.3991 77.2188 14.3031C76.8348 14.2071 76.4508 14.0524 76.0668 13.8391C75.6934 13.6258 75.2988 13.3378 74.8828 12.9751C74.4774 12.6124 74.0348 12.1644 73.5548 11.6311L76.2748 10.9431C76.5628 11.3378 76.8294 11.6524 77.0748 11.8871C77.3201 12.1218 77.5548 12.2871 77.7788 12.3831C78.0134 12.4791 78.2588 12.5271 78.5148 12.5271C79.1974 12.5271 79.8054 12.2498 80.3388 11.6951L81.4908 13.0711C80.7334 13.9884 79.7254 14.4471 78.4668 14.4471ZM74.8028 9.85509C75.3041 9.85509 75.7628 9.76976 76.1788 9.59909C76.6054 9.42843 76.9788 9.18309 77.2988 8.86309C77.6188 8.54309 77.8641 8.16443 78.0348 7.72709C78.2161 7.27909 78.3068 6.79376 78.3068 6.27109C78.3068 5.73776 78.2161 5.25243 78.0348 4.81509C77.8641 4.37776 77.6188 3.99909 77.2988 3.67909C76.9788 3.35909 76.6054 3.11376 76.1788 2.94309C75.7628 2.77243 75.3041 2.68709 74.8028 2.68709C74.3014 2.68709 73.8374 2.77243 73.4108 2.94309C72.9841 3.11376 72.6108 3.35909 72.2908 3.67909C71.9814 3.99909 71.7361 4.37776 71.5548 4.81509C71.3841 5.25243 71.2988 5.73776 71.2988 6.27109C71.2988 6.79376 71.3841 7.27909 71.5548 7.72709C71.7361 8.16443 71.9814 8.54309 72.2908 8.86309C72.6108 9.18309 72.9841 9.42843 73.4108 9.59909C73.8374 9.76976 74.3014 9.85509 74.8028 9.85509ZM86.914 8.36709V6.36709H91.442V8.36709H86.914ZM99.1372 11.8711V1.63109L100.257 2.75109H96.8972V0.671093H101.729V11.8711H99.1372ZM108.475 12.0631C107.557 12.0631 106.736 11.8391 106.011 11.3911C105.285 10.9324 104.715 10.2711 104.299 9.40709C103.883 8.54309 103.675 7.49776 103.675 6.27109C103.675 5.04443 103.883 3.99909 104.299 3.13509C104.715 2.27109 105.285 1.61509 106.011 1.16709C106.736 0.708427 107.557 0.479094 108.475 0.479094C109.403 0.479094 110.224 0.708427 110.939 1.16709C111.664 1.61509 112.235 2.27109 112.651 3.13509C113.067 3.99909 113.275 5.04443 113.275 6.27109C113.275 7.49776 113.067 8.54309 112.651 9.40709C112.235 10.2711 111.664 10.9324 110.939 11.3911C110.224 11.8391 109.403 12.0631 108.475 12.0631ZM108.475 9.87109C108.912 9.87109 109.291 9.74843 109.611 9.50309C109.941 9.25776 110.197 8.86843 110.379 8.33509C110.571 7.80176 110.667 7.11376 110.667 6.27109C110.667 5.42843 110.571 4.74043 110.379 4.20709C110.197 3.67376 109.941 3.28443 109.611 3.03909C109.291 2.79376 108.912 2.67109 108.475 2.67109C108.048 2.67109 107.669 2.79376 107.339 3.03909C107.019 3.28443 106.763 3.67376 106.571 4.20709C106.389 4.74043 106.299 5.42843 106.299 6.27109C106.299 7.11376 106.389 7.80176 106.571 8.33509C106.763 8.86843 107.019 9.25776 107.339 9.50309C107.669 9.74843 108.048 9.87109 108.475 9.87109ZM119.334 12.0631C118.417 12.0631 117.595 11.8391 116.87 11.3911C116.145 10.9324 115.574 10.2711 115.158 9.40709C114.742 8.54309 114.534 7.49776 114.534 6.27109C114.534 5.04443 114.742 3.99909 115.158 3.13509C115.574 2.27109 116.145 1.61509 116.87 1.16709C117.595 0.708427 118.417 0.479094 119.334 0.479094C120.262 0.479094 121.083 0.708427 121.798 1.16709C122.523 1.61509 123.094 2.27109 123.51 3.13509C123.926 3.99909 124.134 5.04443 124.134 6.27109C124.134 7.49776 123.926 8.54309 123.51 9.40709C123.094 10.2711 122.523 10.9324 121.798 11.3911C121.083 11.8391 120.262 12.0631 119.334 12.0631ZM119.334 9.87109C119.771 9.87109 120.15 9.74843 120.47 9.50309C120.801 9.25776 121.057 8.86843 121.238 8.33509C121.43 7.80176 121.526 7.11376 121.526 6.27109C121.526 5.42843 121.43 4.74043 121.238 4.20709C121.057 3.67376 120.801 3.28443 120.47 3.03909C120.15 2.79376 119.771 2.67109 119.334 2.67109C118.907 2.67109 118.529 2.79376 118.198 3.03909C117.878 3.28443 117.622 3.67376 117.43 4.20709C117.249 4.74043 117.158 5.42843 117.158 6.27109C117.158 7.11376 117.249 7.80176 117.43 8.33509C117.622 8.86843 117.878 9.25776 118.198 9.50309C118.529 9.74843 118.907 9.87109 119.334 9.87109ZM130.194 12.0631C129.276 12.0631 128.455 11.8391 127.73 11.3911C127.004 10.9324 126.434 10.2711 126.018 9.40709C125.602 8.54309 125.394 7.49776 125.394 6.27109C125.394 5.04443 125.602 3.99909 126.018 3.13509C126.434 2.27109 127.004 1.61509 127.73 1.16709C128.455 0.708427 129.276 0.479094 130.194 0.479094C131.122 0.479094 131.943 0.708427 132.658 1.16709C133.383 1.61509 133.954 2.27109 134.37 3.13509C134.786 3.99909 134.994 5.04443 134.994 6.27109C134.994 7.49776 134.786 8.54309 134.37 9.40709C133.954 10.2711 133.383 10.9324 132.658 11.3911C131.943 11.8391 131.122 12.0631 130.194 12.0631ZM130.194 9.87109C130.631 9.87109 131.01 9.74843 131.33 9.50309C131.66 9.25776 131.916 8.86843 132.098 8.33509C132.29 7.80176 132.386 7.11376 132.386 6.27109C132.386 5.42843 132.29 4.74043 132.098 4.20709C131.916 3.67376 131.66 3.28443 131.33 3.03909C131.01 2.79376 130.631 2.67109 130.194 2.67109C129.767 2.67109 129.388 2.79376 129.058 3.03909C128.738 3.28443 128.482 3.67376 128.29 4.20709C128.108 4.74043 128.018 5.42843 128.018 6.27109C128.018 7.11376 128.108 7.80176 128.29 8.33509C128.482 8.86843 128.738 9.25776 129.058 9.50309C129.388 9.74843 129.767 9.87109 130.194 9.87109ZM141.053 12.0631C140.136 12.0631 139.314 11.8391 138.589 11.3911C137.864 10.9324 137.293 10.2711 136.877 9.40709C136.461 8.54309 136.253 7.49776 136.253 6.27109C136.253 5.04443 136.461 3.99909 136.877 3.13509C137.293 2.27109 137.864 1.61509 138.589 1.16709C139.314 0.708427 140.136 0.479094 141.053 0.479094C141.981 0.479094 142.802 0.708427 143.517 1.16709C144.242 1.61509 144.813 2.27109 145.229 3.13509C145.645 3.99909 145.853 5.04443 145.853 6.27109C145.853 7.49776 145.645 8.54309 145.229 9.40709C144.813 10.2711 144.242 10.9324 143.517 11.3911C142.802 11.8391 141.981 12.0631 141.053 12.0631ZM141.053 9.87109C141.49 9.87109 141.869 9.74843 142.189 9.50309C142.52 9.25776 142.776 8.86843 142.957 8.33509C143.149 7.80176 143.245 7.11376 143.245 6.27109C143.245 5.42843 143.149 4.74043 142.957 4.20709C142.776 3.67376 142.52 3.28443 142.189 3.03909C141.869 2.79376 141.49 2.67109 141.053 2.67109C140.626 2.67109 140.248 2.79376 139.917 3.03909C139.597 3.28443 139.341 3.67376 139.149 4.20709C138.968 4.74043 138.877 5.42843 138.877 6.27109C138.877 7.11376 138.968 7.80176 139.149 8.33509C139.341 8.86843 139.597 9.25776 139.917 9.50309C140.248 9.74843 140.626 9.87109 141.053 9.87109ZM147.816 11.8711V0.671093H152.664C153.667 0.671093 154.531 0.836426 155.256 1.16709C155.982 1.48709 156.542 1.95109 156.936 2.55909C157.331 3.16709 157.528 3.89243 157.528 4.73509C157.528 5.56709 157.331 6.28709 156.936 6.89509C156.542 7.50309 155.982 7.97243 155.256 8.30309C154.531 8.62309 153.667 8.78309 152.664 8.78309H149.256L150.408 7.61509V11.8711H147.816ZM150.408 7.90309L149.256 6.67109H152.52C153.32 6.67109 153.918 6.50043 154.312 6.15909C154.707 5.81776 154.904 5.34309 154.904 4.73509C154.904 4.11643 154.707 3.63643 154.312 3.29509C153.918 2.95376 153.32 2.78309 152.52 2.78309H149.256L150.408 1.55109V7.90309ZM164.895 12.0631C164.031 12.0631 163.226 11.9244 162.479 11.6471C161.743 11.3591 161.103 10.9538 160.559 10.4311C160.015 9.90843 159.588 9.29509 159.279 8.59109C158.98 7.88709 158.831 7.11376 158.831 6.27109C158.831 5.42843 158.98 4.65509 159.279 3.95109C159.588 3.24709 160.015 2.63376 160.559 2.11109C161.114 1.58843 161.759 1.18843 162.495 0.911093C163.231 0.623093 164.036 0.479094 164.911 0.479094C165.882 0.479094 166.756 0.64976 167.535 0.991094C168.324 1.32176 168.986 1.81243 169.519 2.46309L167.855 3.99909C167.471 3.56176 167.044 3.23643 166.575 3.02309C166.106 2.79909 165.594 2.68709 165.039 2.68709C164.516 2.68709 164.036 2.77243 163.599 2.94309C163.162 3.11376 162.783 3.35909 162.463 3.67909C162.143 3.99909 161.892 4.37776 161.711 4.81509C161.54 5.25243 161.455 5.73776 161.455 6.27109C161.455 6.80443 161.54 7.28976 161.711 7.72709C161.892 8.16443 162.143 8.54309 162.463 8.86309C162.783 9.18309 163.162 9.42843 163.599 9.59909C164.036 9.76976 164.516 9.85509 165.039 9.85509C165.594 9.85509 166.106 9.74843 166.575 9.53509C167.044 9.31109 167.471 8.97509 167.855 8.52709L169.519 10.0631C168.986 10.7138 168.324 11.2098 167.535 11.5511C166.756 11.8924 165.876 12.0631 164.895 12.0631ZM174.731 12.0631C173.835 12.0631 172.976 11.9458 172.155 11.7111C171.333 11.4658 170.672 11.1511 170.171 10.7671L171.051 8.81509C171.531 9.15643 172.096 9.43909 172.747 9.66309C173.408 9.87643 174.075 9.98309 174.747 9.98309C175.259 9.98309 175.669 9.93509 175.979 9.83909C176.299 9.73243 176.533 9.58843 176.683 9.40709C176.832 9.22576 176.907 9.01776 176.907 8.78309C176.907 8.48443 176.789 8.24976 176.555 8.07909C176.32 7.89776 176.011 7.75376 175.627 7.64709C175.243 7.52976 174.816 7.42309 174.347 7.32709C173.888 7.22043 173.424 7.09243 172.955 6.94309C172.496 6.79376 172.075 6.60176 171.691 6.36709C171.307 6.13243 170.992 5.82309 170.747 5.43909C170.512 5.05509 170.395 4.56443 170.395 3.96709C170.395 3.32709 170.565 2.74576 170.907 2.22309C171.259 1.68976 171.781 1.26843 172.475 0.959093C173.179 0.639093 174.059 0.479094 175.115 0.479094C175.819 0.479094 176.512 0.564427 177.195 0.735093C177.877 0.895093 178.48 1.14043 179.003 1.47109L178.203 3.43909C177.68 3.14043 177.157 2.92176 176.635 2.78309C176.112 2.63376 175.6 2.55909 175.099 2.55909C174.597 2.55909 174.187 2.61776 173.867 2.73509C173.547 2.85243 173.317 3.00709 173.179 3.19909C173.04 3.38043 172.971 3.59376 172.971 3.83909C172.971 4.12709 173.088 4.36176 173.323 4.54309C173.557 4.71376 173.867 4.85243 174.251 4.95909C174.635 5.06576 175.056 5.17243 175.515 5.27909C175.984 5.38576 176.448 5.50843 176.907 5.64709C177.376 5.78576 177.803 5.97243 178.187 6.20709C178.571 6.44176 178.88 6.75109 179.115 7.13509C179.36 7.51909 179.483 8.00443 179.483 8.59109C179.483 9.22043 179.307 9.79643 178.955 10.3191C178.603 10.8418 178.075 11.2631 177.371 11.5831C176.677 11.9031 175.797 12.0631 174.731 12.0631ZM180.086 14.9751C180.779 13.7698 181.275 12.5591 181.574 11.3431C181.883 10.1164 182.038 8.83109 182.038 7.48709C182.038 6.14309 181.883 4.86309 181.574 3.64709C181.275 2.42043 180.779 1.20443 180.086 -0.000906944H182.47C183.131 0.948426 183.632 2.06843 183.974 3.35909C184.315 4.63909 184.486 6.01509 184.486 7.48709C184.486 8.95909 184.315 10.3351 183.974 11.6151C183.632 12.8844 183.131 14.0044 182.47 14.9751H180.086Z" fill="#203E13"/>
</svg>
