<svg width="240" height="34" viewBox="0 0 240 34" fill="none" xmlns="http://www.w3.org/2000/svg">
<path d="M11.4659 23V9H17.2259C18.4659 9 19.5259 9.2 20.4059 9.6C21.2993 10 21.9859 10.5733 22.4659 11.32C22.9459 12.0667 23.1859 12.9533 23.1859 13.98C23.1859 15.0067 22.9459 15.8933 22.4659 16.64C21.9859 17.3867 21.2993 17.96 20.4059 18.36C19.5259 18.76 18.4659 18.96 17.2259 18.96H12.9059L14.0659 17.74V23H11.4659ZM14.0659 18.02L12.9059 16.76H17.1059C18.2526 16.76 19.1126 16.52 19.6859 16.04C20.2726 15.5467 20.5659 14.86 20.5659 13.98C20.5659 13.0867 20.2726 12.4 19.6859 11.92C19.1126 11.44 18.2526 11.2 17.1059 11.2H12.9059L14.0659 9.92V18.02ZM25.4447 23V12.32H27.8247V15.26L27.5447 14.4C27.8647 13.68 28.3647 13.1333 29.0447 12.76C29.738 12.3867 30.598 12.2 31.6247 12.2V14.58C31.518 14.5533 31.418 14.54 31.3247 14.54C31.2314 14.5267 31.138 14.52 31.0447 14.52C30.098 14.52 29.3447 14.8 28.7847 15.36C28.2247 15.9067 27.9447 16.7267 27.9447 17.82V23H25.4447ZM38.4478 23.14C37.3545 23.14 36.3811 22.9067 35.5278 22.44C34.6745 21.96 34.0011 21.3067 33.5078 20.48C33.0145 19.6533 32.7678 18.7133 32.7678 17.66C32.7678 16.5933 33.0145 15.6533 33.5078 14.84C34.0011 14.0133 34.6745 13.3667 35.5278 12.9C36.3811 12.4333 37.3545 12.2 38.4478 12.2C39.5545 12.2 40.5345 12.4333 41.3878 12.9C42.2545 13.3667 42.9278 14.0067 43.4078 14.82C43.9011 15.6333 44.1478 16.58 44.1478 17.66C44.1478 18.7133 43.9011 19.6533 43.4078 20.48C42.9278 21.3067 42.2545 21.96 41.3878 22.44C40.5345 22.9067 39.5545 23.14 38.4478 23.14ZM38.4478 21C39.0611 21 39.6078 20.8667 40.0878 20.6C40.5678 20.3333 40.9411 19.9467 41.2078 19.44C41.4878 18.9333 41.6278 18.34 41.6278 17.66C41.6278 16.9667 41.4878 16.3733 41.2078 15.88C40.9411 15.3733 40.5678 14.9867 40.0878 14.72C39.6078 14.4533 39.0678 14.32 38.4678 14.32C37.8545 14.32 37.3078 14.4533 36.8278 14.72C36.3611 14.9867 35.9878 15.3733 35.7078 15.88C35.4278 16.3733 35.2878 16.9667 35.2878 17.66C35.2878 18.34 35.4278 18.9333 35.7078 19.44C35.9878 19.9467 36.3611 20.3333 36.8278 20.6C37.3078 20.8667 37.8478 21 38.4478 21ZM51.0584 23.14C50.0318 23.14 49.1051 22.9133 48.2784 22.46C47.4651 21.9933 46.8251 21.3533 46.3584 20.54C45.8918 19.7267 45.6584 18.7667 45.6584 17.66C45.6584 16.5533 45.8918 15.5933 46.3584 14.78C46.8251 13.9667 47.4651 13.3333 48.2784 12.88C49.1051 12.4267 50.0318 12.2 51.0584 12.2C51.9518 12.2 52.7518 12.4 53.4584 12.8C54.1651 13.1867 54.7251 13.78 55.1384 14.58C55.5518 15.38 55.7584 16.4067 55.7584 17.66C55.7584 18.9 55.5584 19.9267 55.1584 20.74C54.7584 21.54 54.2051 22.14 53.4984 22.54C52.7918 22.94 51.9784 23.14 51.0584 23.14ZM51.3584 21C51.9584 21 52.4918 20.8667 52.9584 20.6C53.4384 20.3333 53.8184 19.9467 54.0984 19.44C54.3918 18.9333 54.5384 18.34 54.5384 17.66C54.5384 16.9667 54.3918 16.3733 54.0984 15.88C53.8184 15.3733 53.4384 14.9867 52.9584 14.72C52.4918 14.4533 51.9584 14.32 51.3584 14.32C50.7584 14.32 50.2184 14.4533 49.7384 14.72C49.2718 14.9867 48.8918 15.3733 48.5984 15.88C48.3184 16.3733 48.1784 16.9667 48.1784 17.66C48.1784 18.34 48.3184 18.9333 48.5984 19.44C48.8918 19.9467 49.2718 20.3333 49.7384 20.6C50.2184 20.8667 50.7584 21 51.3584 21ZM54.5984 23V20.48L54.6984 17.64L54.4984 14.8V8.16H56.9784V23H54.5984ZM64.7889 23.14C63.8822 23.14 63.0822 22.9733 62.3889 22.64C61.6956 22.2933 61.1556 21.7733 60.7689 21.08C60.3822 20.3733 60.1889 19.4867 60.1889 18.42V12.32H62.6889V18.08C62.6889 19.04 62.9022 19.76 63.3289 20.24C63.7689 20.7067 64.3889 20.94 65.1889 20.94C65.7756 20.94 66.2822 20.82 66.7089 20.58C67.1489 20.34 67.4889 19.98 67.7289 19.5C67.9822 19.02 68.1089 18.4267 68.1089 17.72V12.32H70.6089V23H68.2289V20.12L68.6489 21C68.2889 21.6933 67.7622 22.2267 67.0689 22.6C66.3756 22.96 65.6156 23.14 64.7889 23.14ZM78.7822 23.14C77.6622 23.14 76.6622 22.9067 75.7822 22.44C74.9155 21.96 74.2355 21.3067 73.7422 20.48C73.2489 19.6533 73.0022 18.7133 73.0022 17.66C73.0022 16.5933 73.2489 15.6533 73.7422 14.84C74.2355 14.0133 74.9155 13.3667 75.7822 12.9C76.6622 12.4333 77.6622 12.2 78.7822 12.2C79.8222 12.2 80.7355 12.4133 81.5222 12.84C82.3222 13.2533 82.9289 13.8667 83.3422 14.68L81.4222 15.8C81.1022 15.2933 80.7089 14.92 80.2422 14.68C79.7889 14.44 79.2955 14.32 78.7622 14.32C78.1489 14.32 77.5955 14.4533 77.1022 14.72C76.6089 14.9867 76.2222 15.3733 75.9422 15.88C75.6622 16.3733 75.5222 16.9667 75.5222 17.66C75.5222 18.3533 75.6622 18.9533 75.9422 19.46C76.2222 19.9533 76.6089 20.3333 77.1022 20.6C77.5955 20.8667 78.1489 21 78.7622 21C79.2955 21 79.7889 20.88 80.2422 20.64C80.7089 20.4 81.1022 20.0267 81.4222 19.52L83.3422 20.64C82.9289 21.44 82.3222 22.06 81.5222 22.5C80.7355 22.9267 79.8222 23.14 78.7822 23.14ZM89.66 23.14C88.4867 23.14 87.58 22.84 86.94 22.24C86.3 21.6267 85.98 20.7267 85.98 19.54V9.96H88.48V19.48C88.48 19.9867 88.6067 20.38 88.86 20.66C89.1267 20.94 89.4933 21.08 89.96 21.08C90.52 21.08 90.9867 20.9333 91.36 20.64L92.06 22.42C91.7667 22.66 91.4067 22.84 90.98 22.96C90.5533 23.08 90.1133 23.14 89.66 23.14ZM84.22 14.32V12.32H91.34V14.32H84.22ZM106.364 23.2C105.297 23.2 104.304 23.0267 103.384 22.68C102.477 22.32 101.684 21.82 101.004 21.18C100.337 20.5267 99.8172 19.76 99.4439 18.88C99.0706 18 98.8839 17.04 98.8839 16C98.8839 14.96 99.0706 14 99.4439 13.12C99.8172 12.24 100.344 11.48 101.024 10.84C101.704 10.1867 102.497 9.68667 103.404 9.34C104.311 8.98 105.304 8.8 106.384 8.8C107.531 8.8 108.577 9 109.524 9.4C110.471 9.78667 111.271 10.3667 111.924 11.14L110.244 12.72C109.737 12.1733 109.171 11.7667 108.544 11.5C107.917 11.22 107.237 11.08 106.504 11.08C105.771 11.08 105.097 11.2 104.484 11.44C103.884 11.68 103.357 12.02 102.904 12.46C102.464 12.9 102.117 13.42 101.864 14.02C101.624 14.62 101.504 15.28 101.504 16C101.504 16.72 101.624 17.38 101.864 17.98C102.117 18.58 102.464 19.1 102.904 19.54C103.357 19.98 103.884 20.32 104.484 20.56C105.097 20.8 105.771 20.92 106.504 20.92C107.237 20.92 107.917 20.7867 108.544 20.52C109.171 20.24 109.737 19.82 110.244 19.26L111.924 20.86C111.271 21.62 110.471 22.2 109.524 22.6C108.577 23 107.524 23.2 106.364 23.2ZM118.389 23.14C117.296 23.14 116.323 22.9067 115.469 22.44C114.616 21.96 113.943 21.3067 113.449 20.48C112.956 19.6533 112.709 18.7133 112.709 17.66C112.709 16.5933 112.956 15.6533 113.449 14.84C113.943 14.0133 114.616 13.3667 115.469 12.9C116.323 12.4333 117.296 12.2 118.389 12.2C119.496 12.2 120.476 12.4333 121.329 12.9C122.196 13.3667 122.869 14.0067 123.349 14.82C123.843 15.6333 124.089 16.58 124.089 17.66C124.089 18.7133 123.843 19.6533 123.349 20.48C122.869 21.3067 122.196 21.96 121.329 22.44C120.476 22.9067 119.496 23.14 118.389 23.14ZM118.389 21C119.003 21 119.549 20.8667 120.029 20.6C120.509 20.3333 120.883 19.9467 121.149 19.44C121.429 18.9333 121.569 18.34 121.569 17.66C121.569 16.9667 121.429 16.3733 121.149 15.88C120.883 15.3733 120.509 14.9867 120.029 14.72C119.549 14.4533 119.009 14.32 118.409 14.32C117.796 14.32 117.249 14.4533 116.769 14.72C116.303 14.9867 115.929 15.3733 115.649 15.88C115.369 16.3733 115.229 16.9667 115.229 17.66C115.229 18.34 115.369 18.9333 115.649 19.44C115.929 19.9467 116.303 20.3333 116.769 20.6C117.249 20.8667 117.789 21 118.389 21ZM131 23.14C129.973 23.14 129.047 22.9133 128.22 22.46C127.407 21.9933 126.767 21.3533 126.3 20.54C125.833 19.7267 125.6 18.7667 125.6 17.66C125.6 16.5533 125.833 15.5933 126.3 14.78C126.767 13.9667 127.407 13.3333 128.22 12.88C129.047 12.4267 129.973 12.2 131 12.2C131.893 12.2 132.693 12.4 133.4 12.8C134.107 13.1867 134.667 13.78 135.08 14.58C135.493 15.38 135.7 16.4067 135.7 17.66C135.7 18.9 135.5 19.9267 135.1 20.74C134.7 21.54 134.147 22.14 133.44 22.54C132.733 22.94 131.92 23.14 131 23.14ZM131.3 21C131.9 21 132.433 20.8667 132.9 20.6C133.38 20.3333 133.76 19.9467 134.04 19.44C134.333 18.9333 134.48 18.34 134.48 17.66C134.48 16.9667 134.333 16.3733 134.04 15.88C133.76 15.3733 133.38 14.9867 132.9 14.72C132.433 14.4533 131.9 14.32 131.3 14.32C130.7 14.32 130.16 14.4533 129.68 14.72C129.213 14.9867 128.833 15.3733 128.54 15.88C128.26 16.3733 128.12 16.9667 128.12 17.66C128.12 18.34 128.26 18.9333 128.54 19.44C128.833 19.9467 129.213 20.3333 129.68 20.6C130.16 20.8667 130.7 21 131.3 21ZM134.54 23V20.48L134.64 17.64L134.44 14.8V8.16H136.92V23H134.54ZM145.23 23.14C144.044 23.14 143.004 22.9067 142.11 22.44C141.23 21.96 140.544 21.3067 140.05 20.48C139.57 19.6533 139.33 18.7133 139.33 17.66C139.33 16.5933 139.564 15.6533 140.03 14.84C140.51 14.0133 141.164 13.3667 141.99 12.9C142.83 12.4333 143.784 12.2 144.85 12.2C145.89 12.2 146.817 12.4267 147.63 12.88C148.444 13.3333 149.084 13.9733 149.55 14.8C150.017 15.6267 150.25 16.6 150.25 17.72C150.25 17.8267 150.244 17.9467 150.23 18.08C150.23 18.2133 150.224 18.34 150.21 18.46H141.31V16.8H148.89L147.91 17.32C147.924 16.7067 147.797 16.1667 147.53 15.7C147.264 15.2333 146.897 14.8667 146.43 14.6C145.977 14.3333 145.45 14.2 144.85 14.2C144.237 14.2 143.697 14.3333 143.23 14.6C142.777 14.8667 142.417 15.24 142.15 15.72C141.897 16.1867 141.77 16.74 141.77 17.38V17.78C141.77 18.42 141.917 18.9867 142.21 19.48C142.504 19.9733 142.917 20.3533 143.45 20.62C143.984 20.8867 144.597 21.02 145.29 21.02C145.89 21.02 146.43 20.9267 146.91 20.74C147.39 20.5533 147.817 20.26 148.19 19.86L149.53 21.4C149.05 21.96 148.444 22.3933 147.71 22.7C146.99 22.9933 146.164 23.14 145.23 23.14ZM163.166 18.48V16.4H168.666V18.48H163.166ZM181.789 23.2C180.629 23.2 179.622 23.0267 178.769 22.68C177.916 22.3333 177.256 21.8467 176.789 21.22C176.322 20.58 176.089 19.8333 176.089 18.98C176.089 18.1267 176.316 17.4067 176.769 16.82C177.222 16.2333 177.876 15.7867 178.729 15.48C179.582 15.1733 180.602 15.02 181.789 15.02C182.976 15.02 183.996 15.1733 184.849 15.48C185.716 15.7867 186.376 16.24 186.829 16.84C187.296 17.4267 187.529 18.14 187.529 18.98C187.529 19.8333 187.289 20.58 186.809 21.22C186.342 21.8467 185.676 22.3333 184.809 22.68C183.956 23.0267 182.949 23.2 181.789 23.2ZM181.789 21.16C182.749 21.16 183.509 20.96 184.069 20.56C184.629 20.16 184.909 19.6067 184.909 18.9C184.909 18.2067 184.629 17.66 184.069 17.26C183.509 16.86 182.749 16.66 181.789 16.66C180.829 16.66 180.076 16.86 179.529 17.26C178.982 17.66 178.709 18.2067 178.709 18.9C178.709 19.6067 178.982 20.16 179.529 20.56C180.076 20.96 180.829 21.16 181.789 21.16ZM181.789 14.78C182.616 14.78 183.269 14.6067 183.749 14.26C184.229 13.9 184.469 13.42 184.469 12.82C184.469 12.1933 184.222 11.7067 183.729 11.36C183.236 11.0133 182.589 10.84 181.789 10.84C180.989 10.84 180.349 11.0133 179.869 11.36C179.389 11.7067 179.149 12.1933 179.149 12.82C179.149 13.42 179.382 13.9 179.849 14.26C180.329 14.6067 180.976 14.78 181.789 14.78ZM181.789 16.38C180.709 16.38 179.782 16.24 179.009 15.96C178.236 15.6667 177.636 15.2467 177.209 14.7C176.796 14.14 176.589 13.4733 176.589 12.7C176.589 11.9 176.802 11.2133 177.229 10.64C177.669 10.0533 178.282 9.6 179.069 9.28C179.856 8.96 180.762 8.8 181.789 8.8C182.829 8.8 183.742 8.96 184.529 9.28C185.316 9.6 185.929 10.0533 186.369 10.64C186.809 11.2133 187.029 11.9 187.029 12.7C187.029 13.4733 186.816 14.14 186.389 14.7C185.976 15.2467 185.376 15.6667 184.589 15.96C183.802 16.24 182.869 16.38 181.789 16.38ZM194.836 23.2C193.676 23.2 192.669 23.0267 191.816 22.68C190.963 22.3333 190.303 21.8467 189.836 21.22C189.369 20.58 189.136 19.8333 189.136 18.98C189.136 18.1267 189.363 17.4067 189.816 16.82C190.269 16.2333 190.923 15.7867 191.776 15.48C192.629 15.1733 193.649 15.02 194.836 15.02C196.023 15.02 197.043 15.1733 197.896 15.48C198.763 15.7867 199.423 16.24 199.876 16.84C200.343 17.4267 200.576 18.14 200.576 18.98C200.576 19.8333 200.336 20.58 199.856 21.22C199.389 21.8467 198.723 22.3333 197.856 22.68C197.003 23.0267 195.996 23.2 194.836 23.2ZM194.836 21.16C195.796 21.16 196.556 20.96 197.116 20.56C197.676 20.16 197.956 19.6067 197.956 18.9C197.956 18.2067 197.676 17.66 197.116 17.26C196.556 16.86 195.796 16.66 194.836 16.66C193.876 16.66 193.123 16.86 192.576 17.26C192.029 17.66 191.756 18.2067 191.756 18.9C191.756 19.6067 192.029 20.16 192.576 20.56C193.123 20.96 193.876 21.16 194.836 21.16ZM194.836 14.78C195.663 14.78 196.316 14.6067 196.796 14.26C197.276 13.9 197.516 13.42 197.516 12.82C197.516 12.1933 197.269 11.7067 196.776 11.36C196.283 11.0133 195.636 10.84 194.836 10.84C194.036 10.84 193.396 11.0133 192.916 11.36C192.436 11.7067 192.196 12.1933 192.196 12.82C192.196 13.42 192.429 13.9 192.896 14.26C193.376 14.6067 194.023 14.78 194.836 14.78ZM194.836 16.38C193.756 16.38 192.829 16.24 192.056 15.96C191.283 15.6667 190.683 15.2467 190.256 14.7C189.843 14.14 189.636 13.4733 189.636 12.7C189.636 11.9 189.849 11.2133 190.276 10.64C190.716 10.0533 191.329 9.6 192.116 9.28C192.903 8.96 193.809 8.8 194.836 8.8C195.876 8.8 196.789 8.96 197.576 9.28C198.363 9.6 198.976 10.0533 199.416 10.64C199.856 11.2133 200.076 11.9 200.076 12.7C200.076 13.4733 199.863 14.14 199.436 14.7C199.023 15.2467 198.423 15.6667 197.636 15.96C196.849 16.24 195.916 16.38 194.836 16.38ZM208.103 23.2C206.996 23.2 205.996 22.92 205.103 22.36C204.223 21.8 203.529 20.9867 203.023 19.92C202.516 18.84 202.263 17.5333 202.263 16C202.263 14.4667 202.516 13.1667 203.023 12.1C203.529 11.02 204.223 10.2 205.103 9.64C205.996 9.08 206.996 8.8 208.103 8.8C209.223 8.8 210.223 9.08 211.103 9.64C211.983 10.2 212.676 11.02 213.183 12.1C213.703 13.1667 213.963 14.4667 213.963 16C213.963 17.5333 213.703 18.84 213.183 19.92C212.676 20.9867 211.983 21.8 211.103 22.36C210.223 22.92 209.223 23.2 208.103 23.2ZM208.103 20.94C208.756 20.94 209.323 20.7667 209.803 20.42C210.283 20.06 210.656 19.5133 210.923 18.78C211.203 18.0467 211.343 17.12 211.343 16C211.343 14.8667 211.203 13.94 210.923 13.22C210.656 12.4867 210.283 11.9467 209.803 11.6C209.323 11.24 208.756 11.06 208.103 11.06C207.476 11.06 206.916 11.24 206.423 11.6C205.943 11.9467 205.563 12.4867 205.283 13.22C205.016 13.94 204.883 14.8667 204.883 16C204.883 17.12 205.016 18.0467 205.283 18.78C205.563 19.5133 205.943 20.06 206.423 20.42C206.916 20.7667 207.476 20.94 208.103 20.94ZM215.52 19.82V18.02L222.42 9H225.2L218.4 18.02L217.1 17.62H228.2V19.82H215.52ZM223.2 23V19.82L223.28 17.62V14.8H225.72V23H223.2Z" fill="#272727"/>
</svg>
