<svg width="319" height="38" viewBox="0 0 319 38" fill="none" xmlns="http://www.w3.org/2000/svg">
<path d="M16.4332 14.084C15.7052 14.084 15.0052 13.9673 14.3332 13.734C13.6706 13.4913 13.1572 13.1833 12.7932 12.81L13.1992 12.012C13.5446 12.348 14.0066 12.6327 14.5852 12.866C15.1732 13.09 15.7892 13.202 16.4332 13.202C17.0492 13.202 17.5486 13.1273 17.9312 12.978C18.3232 12.8193 18.6079 12.6093 18.7852 12.348C18.9719 12.0867 19.0652 11.7973 19.0652 11.48C19.0652 11.0973 18.9532 10.7893 18.7292 10.556C18.5146 10.3227 18.2299 10.1407 17.8752 10.01C17.5206 9.87 17.1286 9.74867 16.6992 9.646C16.2699 9.54333 15.8406 9.436 15.4112 9.324C14.9819 9.20267 14.5852 9.044 14.2212 8.848C13.8666 8.652 13.5772 8.39533 13.3532 8.078C13.1386 7.75133 13.0312 7.32667 13.0312 6.804C13.0312 6.31867 13.1572 5.87533 13.4092 5.474C13.6706 5.06333 14.0672 4.73667 14.5992 4.494C15.1312 4.242 15.8126 4.116 16.6432 4.116C17.1939 4.116 17.7399 4.19533 18.2812 4.354C18.8226 4.50333 19.2892 4.71333 19.6812 4.984L19.3312 5.81C18.9112 5.53 18.4632 5.32467 17.9872 5.194C17.5206 5.06333 17.0679 4.998 16.6292 4.998C16.0412 4.998 15.5559 5.07733 15.1732 5.236C14.7906 5.39467 14.5059 5.60933 14.3192 5.88C14.1419 6.14133 14.0532 6.44 14.0532 6.776C14.0532 7.15867 14.1606 7.46667 14.3752 7.7C14.5992 7.93333 14.8886 8.11533 15.2432 8.246C15.6072 8.37667 16.0039 8.49333 16.4332 8.596C16.8626 8.69867 17.2872 8.81067 17.7072 8.932C18.1366 9.05333 18.5286 9.212 18.8832 9.408C19.2472 9.59467 19.5366 9.84667 19.7512 10.164C19.9752 10.4813 20.0872 10.8967 20.0872 11.41C20.0872 11.886 19.9566 12.3293 19.6952 12.74C19.4339 13.1413 19.0326 13.468 18.4912 13.72C17.9592 13.9627 17.2732 14.084 16.4332 14.084ZM25.9285 14.07C25.2939 14.07 24.7199 13.9253 24.2065 13.636C23.6932 13.3373 23.2825 12.9127 22.9745 12.362C22.6759 11.802 22.5265 11.1207 22.5265 10.318C22.5265 9.51533 22.6759 8.83867 22.9745 8.288C23.2732 7.728 23.6792 7.30333 24.1925 7.014C24.7059 6.72467 25.2845 6.58 25.9285 6.58C26.6285 6.58 27.2539 6.73867 27.8045 7.056C28.3645 7.364 28.8032 7.80267 29.1205 8.372C29.4379 8.932 29.5965 9.58067 29.5965 10.318C29.5965 11.0647 29.4379 11.718 29.1205 12.278C28.8032 12.838 28.3645 13.2767 27.8045 13.594C27.2539 13.9113 26.6285 14.07 25.9285 14.07ZM22.1345 16.716V6.65H23.0865V8.862L22.9885 10.332L23.1285 11.816V16.716H22.1345ZM25.8585 13.188C26.3812 13.188 26.8479 13.0713 27.2585 12.838C27.6692 12.5953 27.9959 12.2593 28.2385 11.83C28.4812 11.3913 28.6025 10.8873 28.6025 10.318C28.6025 9.74867 28.4812 9.24933 28.2385 8.82C27.9959 8.39067 27.6692 8.05467 27.2585 7.812C26.8479 7.56933 26.3812 7.448 25.8585 7.448C25.3359 7.448 24.8645 7.56933 24.4445 7.812C24.0339 8.05467 23.7072 8.39067 23.4645 8.82C23.2312 9.24933 23.1145 9.74867 23.1145 10.318C23.1145 10.8873 23.2312 11.3913 23.4645 11.83C23.7072 12.2593 24.0339 12.5953 24.4445 12.838C24.8645 13.0713 25.3359 13.188 25.8585 13.188ZM36.1878 14V12.376L36.1458 12.11V9.394C36.1458 8.76867 35.9685 8.288 35.6138 7.952C35.2685 7.616 34.7505 7.448 34.0598 7.448C33.5838 7.448 33.1311 7.52733 32.7018 7.686C32.2725 7.84467 31.9085 8.05467 31.6098 8.316L31.1618 7.574C31.5351 7.25667 31.9831 7.014 32.5058 6.846C33.0285 6.66867 33.5791 6.58 34.1578 6.58C35.1098 6.58 35.8425 6.818 36.3558 7.294C36.8785 7.76067 37.1398 8.47467 37.1398 9.436V14H36.1878ZM33.6538 14.07C33.1031 14.07 32.6225 13.9813 32.2118 13.804C31.8105 13.6173 31.5025 13.3653 31.2878 13.048C31.0731 12.7213 30.9658 12.348 30.9658 11.928C30.9658 11.5453 31.0545 11.2 31.2318 10.892C31.4185 10.5747 31.7171 10.3227 32.1278 10.136C32.5478 9.94 33.1078 9.842 33.8078 9.842H36.3418V10.584H33.8358C33.1265 10.584 32.6318 10.71 32.3518 10.962C32.0811 11.214 31.9458 11.5267 31.9458 11.9C31.9458 12.32 32.1091 12.656 32.4358 12.908C32.7625 13.16 33.2198 13.286 33.8078 13.286C34.3678 13.286 34.8485 13.16 35.2498 12.908C35.6605 12.6467 35.9591 12.2733 36.1458 11.788L36.3698 12.474C36.1831 12.9593 35.8565 13.3467 35.3898 13.636C34.9325 13.9253 34.3538 14.07 33.6538 14.07ZM42.8916 14.07C42.1636 14.07 41.5103 13.9113 40.9316 13.594C40.3623 13.2673 39.9143 12.824 39.5876 12.264C39.2609 11.6947 39.0976 11.046 39.0976 10.318C39.0976 9.58067 39.2609 8.932 39.5876 8.372C39.9143 7.812 40.3623 7.37333 40.9316 7.056C41.5103 6.73867 42.1636 6.58 42.8916 6.58C43.5169 6.58 44.0816 6.70133 44.5856 6.944C45.0896 7.18667 45.4863 7.55067 45.7756 8.036L45.0336 8.54C44.7816 8.16667 44.4689 7.89133 44.0956 7.714C43.7223 7.53667 43.3163 7.448 42.8776 7.448C42.3549 7.448 41.8836 7.56933 41.4636 7.812C41.0436 8.04533 40.7123 8.37667 40.4696 8.806C40.2269 9.23533 40.1056 9.73933 40.1056 10.318C40.1056 10.8967 40.2269 11.4007 40.4696 11.83C40.7123 12.2593 41.0436 12.5953 41.4636 12.838C41.8836 13.0713 42.3549 13.188 42.8776 13.188C43.3163 13.188 43.7223 13.0993 44.0956 12.922C44.4689 12.7447 44.7816 12.474 45.0336 12.11L45.7756 12.614C45.4863 13.09 45.0896 13.454 44.5856 13.706C44.0816 13.9487 43.5169 14.07 42.8916 14.07ZM47.6189 14V6.65H48.6129V14H47.6189ZM48.1229 5.026C47.9176 5.026 47.7449 4.956 47.6049 4.816C47.4649 4.676 47.3949 4.508 47.3949 4.312C47.3949 4.116 47.4649 3.95267 47.6049 3.822C47.7449 3.682 47.9176 3.612 48.1229 3.612C48.3282 3.612 48.5009 3.67733 48.6409 3.808C48.7809 3.93867 48.8509 4.102 48.8509 4.298C48.8509 4.50333 48.7809 4.676 48.6409 4.816C48.5102 4.956 48.3376 5.026 48.1229 5.026ZM54.3747 14.07C53.6653 14.07 53.026 13.9113 52.4567 13.594C51.8967 13.2673 51.4533 12.824 51.1267 12.264C50.8 11.6947 50.6367 11.046 50.6367 10.318C50.6367 9.58067 50.8 8.932 51.1267 8.372C51.4533 7.812 51.8967 7.37333 52.4567 7.056C53.0167 6.73867 53.656 6.58 54.3747 6.58C55.1027 6.58 55.7467 6.73867 56.3067 7.056C56.876 7.37333 57.3193 7.812 57.6367 8.372C57.9633 8.932 58.1267 9.58067 58.1267 10.318C58.1267 11.046 57.9633 11.6947 57.6367 12.264C57.3193 12.824 56.876 13.2673 56.3067 13.594C55.7373 13.9113 55.0933 14.07 54.3747 14.07ZM54.3747 13.188C54.9067 13.188 55.378 13.0713 55.7887 12.838C56.1993 12.5953 56.5213 12.2593 56.7547 11.83C56.9973 11.3913 57.1187 10.8873 57.1187 10.318C57.1187 9.73933 56.9973 9.23533 56.7547 8.806C56.5213 8.37667 56.1993 8.04533 55.7887 7.812C55.378 7.56933 54.9113 7.448 54.3887 7.448C53.866 7.448 53.3993 7.56933 52.9887 7.812C52.578 8.04533 52.2513 8.37667 52.0087 8.806C51.766 9.23533 51.6447 9.73933 51.6447 10.318C51.6447 10.8873 51.766 11.3913 52.0087 11.83C52.2513 12.2593 52.578 12.5953 52.9887 12.838C53.3993 13.0713 53.8613 13.188 54.3747 13.188ZM63.194 14.07C62.5687 14.07 62.0227 13.9533 61.556 13.72C61.0893 13.4867 60.7253 13.1367 60.464 12.67C60.212 12.2033 60.086 11.62 60.086 10.92V6.65H61.08V10.808C61.08 11.592 61.2713 12.1847 61.654 12.586C62.046 12.978 62.592 13.174 63.292 13.174C63.8053 13.174 64.2487 13.0713 64.622 12.866C65.0047 12.6513 65.294 12.3433 65.49 11.942C65.6953 11.5407 65.798 11.06 65.798 10.5V6.65H66.792V14H65.84V11.984L65.994 12.348C65.7607 12.8893 65.3967 13.314 64.902 13.622C64.4167 13.9207 63.8473 14.07 63.194 14.07ZM71.5363 14.07C70.9296 14.07 70.3556 13.986 69.8143 13.818C69.2729 13.6407 68.8483 13.4213 68.5403 13.16L68.9883 12.376C69.2869 12.6 69.6696 12.796 70.1363 12.964C70.6029 13.1227 71.0929 13.202 71.6063 13.202C72.3063 13.202 72.8103 13.0947 73.1183 12.88C73.4263 12.656 73.5803 12.362 73.5803 11.998C73.5803 11.7273 73.4916 11.5173 73.3143 11.368C73.1463 11.2093 72.9223 11.0927 72.6423 11.018C72.3623 10.934 72.0496 10.864 71.7043 10.808C71.3589 10.752 71.0136 10.6867 70.6683 10.612C70.3323 10.5373 70.0243 10.43 69.7443 10.29C69.4643 10.1407 69.2356 9.94 69.0583 9.688C68.8903 9.436 68.8063 9.1 68.8063 8.68C68.8063 8.27867 68.9183 7.91933 69.1423 7.602C69.3663 7.28467 69.6929 7.03733 70.1223 6.86C70.5609 6.67333 71.0929 6.58 71.7183 6.58C72.1943 6.58 72.6703 6.64533 73.1463 6.776C73.6223 6.89733 74.0143 7.06067 74.3223 7.266L73.8883 8.064C73.5616 7.84 73.2116 7.68133 72.8383 7.588C72.4649 7.48533 72.0916 7.434 71.7183 7.434C71.0556 7.434 70.5656 7.55067 70.2483 7.784C69.9403 8.008 69.7863 8.29733 69.7863 8.652C69.7863 8.932 69.8703 9.15133 70.0383 9.31C70.2156 9.46867 70.4443 9.59467 70.7243 9.688C71.0136 9.772 71.3263 9.842 71.6623 9.898C72.0076 9.954 72.3483 10.024 72.6843 10.108C73.0296 10.1827 73.3423 10.29 73.6223 10.43C73.9116 10.5607 74.1403 10.752 74.3083 11.004C74.4856 11.2467 74.5743 11.5687 74.5743 11.97C74.5743 12.3993 74.4529 12.7727 74.2103 13.09C73.9769 13.398 73.6316 13.6407 73.1743 13.818C72.7263 13.986 72.1803 14.07 71.5363 14.07ZM80.2723 14V4.2H81.3083V14H80.2723ZM84.4969 14V4.2H85.3509L89.8309 11.844H89.3829L93.8209 4.2H94.6749V14H93.6809V5.754H93.9189L89.8309 12.754H89.3409L85.2249 5.754H85.4909V14H84.4969ZM97.868 14V4.2H98.904V13.104H104.392V14H97.868ZM111.54 14.07C110.933 14.07 110.359 13.986 109.818 13.818C109.277 13.6407 108.852 13.4213 108.544 13.16L108.992 12.376C109.291 12.6 109.673 12.796 110.14 12.964C110.607 13.1227 111.097 13.202 111.61 13.202C112.31 13.202 112.814 13.0947 113.122 12.88C113.43 12.656 113.584 12.362 113.584 11.998C113.584 11.7273 113.495 11.5173 113.318 11.368C113.15 11.2093 112.926 11.0927 112.646 11.018C112.366 10.934 112.053 10.864 111.708 10.808C111.363 10.752 111.017 10.6867 110.672 10.612C110.336 10.5373 110.028 10.43 109.748 10.29C109.468 10.1407 109.239 9.94 109.062 9.688C108.894 9.436 108.81 9.1 108.81 8.68C108.81 8.27867 108.922 7.91933 109.146 7.602C109.37 7.28467 109.697 7.03733 110.126 6.86C110.565 6.67333 111.097 6.58 111.722 6.58C112.198 6.58 112.674 6.64533 113.15 6.776C113.626 6.89733 114.018 7.06067 114.326 7.266L113.892 8.064C113.565 7.84 113.215 7.68133 112.842 7.588C112.469 7.48533 112.095 7.434 111.722 7.434C111.059 7.434 110.569 7.55067 110.252 7.784C109.944 8.008 109.79 8.29733 109.79 8.652C109.79 8.932 109.874 9.15133 110.042 9.31C110.219 9.46867 110.448 9.59467 110.728 9.688C111.017 9.772 111.33 9.842 111.666 9.898C112.011 9.954 112.352 10.024 112.688 10.108C113.033 10.1827 113.346 10.29 113.626 10.43C113.915 10.5607 114.144 10.752 114.312 11.004C114.489 11.2467 114.578 11.5687 114.578 11.97C114.578 12.3993 114.457 12.7727 114.214 13.09C113.981 13.398 113.635 13.6407 113.178 13.818C112.73 13.986 112.184 14.07 111.54 14.07ZM117.763 14L114.991 6.65H115.943L118.463 13.468H118.029L120.619 6.65H121.473L124.035 13.468H123.601L126.163 6.65H127.073L124.287 14H123.349L120.885 7.588H121.179L118.701 14H117.763ZM131.487 14.07C130.722 14.07 130.05 13.9113 129.471 13.594C128.892 13.2673 128.44 12.824 128.113 12.264C127.786 11.6947 127.623 11.046 127.623 10.318C127.623 9.59 127.777 8.946 128.085 8.386C128.402 7.826 128.832 7.38733 129.373 7.07C129.924 6.74333 130.54 6.58 131.221 6.58C131.912 6.58 132.523 6.73867 133.055 7.056C133.596 7.364 134.021 7.80267 134.329 8.372C134.637 8.932 134.791 9.58067 134.791 10.318C134.791 10.3647 134.786 10.416 134.777 10.472C134.777 10.5187 134.777 10.57 134.777 10.626H128.379V9.884H134.245L133.853 10.178C133.853 9.646 133.736 9.17467 133.503 8.764C133.279 8.344 132.971 8.01733 132.579 7.784C132.187 7.55067 131.734 7.434 131.221 7.434C130.717 7.434 130.264 7.55067 129.863 7.784C129.462 8.01733 129.149 8.344 128.925 8.764C128.701 9.184 128.589 9.66467 128.589 10.206V10.36C128.589 10.92 128.71 11.4147 128.953 11.844C129.205 12.264 129.55 12.5953 129.989 12.838C130.437 13.0713 130.946 13.188 131.515 13.188C131.963 13.188 132.378 13.1087 132.761 12.95C133.153 12.7913 133.489 12.5487 133.769 12.222L134.329 12.866C134.002 13.258 133.592 13.5567 133.097 13.762C132.612 13.9673 132.075 14.07 131.487 14.07ZM139.936 14.07C139.171 14.07 138.499 13.9113 137.92 13.594C137.342 13.2673 136.889 12.824 136.562 12.264C136.236 11.6947 136.072 11.046 136.072 10.318C136.072 9.59 136.226 8.946 136.534 8.386C136.852 7.826 137.281 7.38733 137.822 7.07C138.373 6.74333 138.989 6.58 139.67 6.58C140.361 6.58 140.972 6.73867 141.504 7.056C142.046 7.364 142.47 7.80267 142.778 8.372C143.086 8.932 143.24 9.58067 143.24 10.318C143.24 10.3647 143.236 10.416 143.226 10.472C143.226 10.5187 143.226 10.57 143.226 10.626H136.828V9.884H142.694L142.302 10.178C142.302 9.646 142.186 9.17467 141.952 8.764C141.728 8.344 141.42 8.01733 141.028 7.784C140.636 7.55067 140.184 7.434 139.67 7.434C139.166 7.434 138.714 7.55067 138.312 7.784C137.911 8.01733 137.598 8.344 137.374 8.764C137.15 9.184 137.038 9.66467 137.038 10.206V10.36C137.038 10.92 137.16 11.4147 137.402 11.844C137.654 12.264 138 12.5953 138.438 12.838C138.886 13.0713 139.395 13.188 139.964 13.188C140.412 13.188 140.828 13.1087 141.21 12.95C141.602 12.7913 141.938 12.5487 142.218 12.222L142.778 12.866C142.452 13.258 142.041 13.5567 141.546 13.762C141.061 13.9673 140.524 14.07 139.936 14.07ZM147.587 14.07C146.897 14.07 146.365 13.8833 145.991 13.51C145.618 13.1367 145.431 12.6093 145.431 11.928V5.026H146.425V11.872C146.425 12.3013 146.533 12.6327 146.747 12.866C146.971 13.0993 147.289 13.216 147.699 13.216C148.138 13.216 148.502 13.09 148.791 12.838L149.141 13.552C148.945 13.7293 148.707 13.86 148.427 13.944C148.157 14.028 147.877 14.07 147.587 14.07ZM144.115 7.476V6.65H148.665V7.476H144.115ZM158.409 14.07C157.765 14.07 157.186 13.9253 156.673 13.636C156.16 13.3373 155.754 12.908 155.455 12.348C155.156 11.788 155.007 11.1113 155.007 10.318C155.007 9.51533 155.156 8.83867 155.455 8.288C155.763 7.728 156.174 7.30333 156.687 7.014C157.2 6.72467 157.774 6.58 158.409 6.58C159.109 6.58 159.734 6.73867 160.285 7.056C160.845 7.364 161.284 7.798 161.601 8.358C161.918 8.918 162.077 9.57133 162.077 10.318C162.077 11.0553 161.918 11.7087 161.601 12.278C161.284 12.838 160.845 13.2767 160.285 13.594C159.734 13.9113 159.109 14.07 158.409 14.07ZM154.615 14V3.612H155.609V8.82L155.469 10.304L155.567 11.788V14H154.615ZM158.339 13.188C158.862 13.188 159.328 13.0713 159.739 12.838C160.15 12.5953 160.476 12.2593 160.719 11.83C160.962 11.3913 161.083 10.8873 161.083 10.318C161.083 9.73933 160.962 9.23533 160.719 8.806C160.476 8.37667 160.15 8.04533 159.739 7.812C159.328 7.56933 158.862 7.448 158.339 7.448C157.816 7.448 157.345 7.56933 156.925 7.812C156.514 8.04533 156.188 8.37667 155.945 8.806C155.712 9.23533 155.595 9.73933 155.595 10.318C155.595 10.8873 155.712 11.3913 155.945 11.83C156.188 12.2593 156.514 12.5953 156.925 12.838C157.345 13.0713 157.816 13.188 158.339 13.188ZM167.099 14.07C166.39 14.07 165.751 13.9113 165.181 13.594C164.621 13.2673 164.178 12.824 163.851 12.264C163.525 11.6947 163.361 11.046 163.361 10.318C163.361 9.58067 163.525 8.932 163.851 8.372C164.178 7.812 164.621 7.37333 165.181 7.056C165.741 6.73867 166.381 6.58 167.099 6.58C167.827 6.58 168.471 6.73867 169.031 7.056C169.601 7.37333 170.044 7.812 170.361 8.372C170.688 8.932 170.851 9.58067 170.851 10.318C170.851 11.046 170.688 11.6947 170.361 12.264C170.044 12.824 169.601 13.2673 169.031 13.594C168.462 13.9113 167.818 14.07 167.099 14.07ZM167.099 13.188C167.631 13.188 168.103 13.0713 168.513 12.838C168.924 12.5953 169.246 12.2593 169.479 11.83C169.722 11.3913 169.843 10.8873 169.843 10.318C169.843 9.73933 169.722 9.23533 169.479 8.806C169.246 8.37667 168.924 8.04533 168.513 7.812C168.103 7.56933 167.636 7.448 167.113 7.448C166.591 7.448 166.124 7.56933 165.713 7.812C165.303 8.04533 164.976 8.37667 164.733 8.806C164.491 9.23533 164.369 9.73933 164.369 10.318C164.369 10.8873 164.491 11.3913 164.733 11.83C164.976 12.2593 165.303 12.5953 165.713 12.838C166.124 13.0713 166.586 13.188 167.099 13.188ZM171.501 14L174.609 9.968L174.595 10.458L171.641 6.65H172.761L175.183 9.8L174.763 9.786L177.185 6.65H178.277L175.295 10.5L175.309 9.968L178.445 14H177.311L174.749 10.64L175.141 10.696L172.621 14H171.501ZM186.689 14.07C185.989 14.07 185.359 13.9113 184.799 13.594C184.249 13.2767 183.815 12.838 183.497 12.278C183.18 11.7087 183.021 11.0553 183.021 10.318C183.021 9.57133 183.18 8.918 183.497 8.358C183.815 7.798 184.249 7.364 184.799 7.056C185.359 6.73867 185.989 6.58 186.689 6.58C187.333 6.58 187.907 6.72467 188.411 7.014C188.925 7.30333 189.331 7.728 189.629 8.288C189.937 8.83867 190.091 9.51533 190.091 10.318C190.091 11.1113 189.942 11.788 189.643 12.348C189.345 12.908 188.939 13.3373 188.425 13.636C187.921 13.9253 187.343 14.07 186.689 14.07ZM186.759 13.188C187.282 13.188 187.749 13.0713 188.159 12.838C188.579 12.5953 188.906 12.2593 189.139 11.83C189.382 11.3913 189.503 10.8873 189.503 10.318C189.503 9.73933 189.382 9.23533 189.139 8.806C188.906 8.37667 188.579 8.04533 188.159 7.812C187.749 7.56933 187.282 7.448 186.759 7.448C186.246 7.448 185.784 7.56933 185.373 7.812C184.963 8.04533 184.636 8.37667 184.393 8.806C184.151 9.23533 184.029 9.73933 184.029 10.318C184.029 10.8873 184.151 11.3913 184.393 11.83C184.636 12.2593 184.963 12.5953 185.373 12.838C185.784 13.0713 186.246 13.188 186.759 13.188ZM189.531 14V11.788L189.629 10.304L189.489 8.82V3.612H190.483V14H189.531ZM196.374 14.07C195.608 14.07 194.936 13.9113 194.358 13.594C193.779 13.2673 193.326 12.824 193 12.264C192.673 11.6947 192.51 11.046 192.51 10.318C192.51 9.59 192.664 8.946 192.972 8.386C193.289 7.826 193.718 7.38733 194.26 7.07C194.81 6.74333 195.426 6.58 196.108 6.58C196.798 6.58 197.41 6.73867 197.942 7.056C198.483 7.364 198.908 7.80267 199.216 8.372C199.524 8.932 199.678 9.58067 199.678 10.318C199.678 10.3647 199.673 10.416 199.664 10.472C199.664 10.5187 199.664 10.57 199.664 10.626H193.266V9.884H199.132L198.74 10.178C198.74 9.646 198.623 9.17467 198.39 8.764C198.166 8.344 197.858 8.01733 197.466 7.784C197.074 7.55067 196.621 7.434 196.108 7.434C195.604 7.434 195.151 7.55067 194.75 7.784C194.348 8.01733 194.036 8.344 193.812 8.764C193.588 9.184 193.476 9.66467 193.476 10.206V10.36C193.476 10.92 193.597 11.4147 193.84 11.844C194.092 12.264 194.437 12.5953 194.876 12.838C195.324 13.0713 195.832 13.188 196.402 13.188C196.85 13.188 197.265 13.1087 197.648 12.95C198.04 12.7913 198.376 12.5487 198.656 12.222L199.216 12.866C198.889 13.258 198.478 13.5567 197.984 13.762C197.498 13.9673 196.962 14.07 196.374 14.07ZM203.675 14.07C203.068 14.07 202.494 13.986 201.953 13.818C201.412 13.6407 200.987 13.4213 200.679 13.16L201.127 12.376C201.426 12.6 201.808 12.796 202.275 12.964C202.742 13.1227 203.232 13.202 203.745 13.202C204.445 13.202 204.949 13.0947 205.257 12.88C205.565 12.656 205.719 12.362 205.719 11.998C205.719 11.7273 205.63 11.5173 205.453 11.368C205.285 11.2093 205.061 11.0927 204.781 11.018C204.501 10.934 204.188 10.864 203.843 10.808C203.498 10.752 203.152 10.6867 202.807 10.612C202.471 10.5373 202.163 10.43 201.883 10.29C201.603 10.1407 201.374 9.94 201.197 9.688C201.029 9.436 200.945 9.1 200.945 8.68C200.945 8.27867 201.057 7.91933 201.281 7.602C201.505 7.28467 201.832 7.03733 202.261 6.86C202.7 6.67333 203.232 6.58 203.857 6.58C204.333 6.58 204.809 6.64533 205.285 6.776C205.761 6.89733 206.153 7.06067 206.461 7.266L206.027 8.064C205.7 7.84 205.35 7.68133 204.977 7.588C204.604 7.48533 204.23 7.434 203.857 7.434C203.194 7.434 202.704 7.55067 202.387 7.784C202.079 8.008 201.925 8.29733 201.925 8.652C201.925 8.932 202.009 9.15133 202.177 9.31C202.354 9.46867 202.583 9.59467 202.863 9.688C203.152 9.772 203.465 9.842 203.801 9.898C204.146 9.954 204.487 10.024 204.823 10.108C205.168 10.1827 205.481 10.29 205.761 10.43C206.05 10.5607 206.279 10.752 206.447 11.004C206.624 11.2467 206.713 11.5687 206.713 11.97C206.713 12.3993 206.592 12.7727 206.349 13.09C206.116 13.398 205.77 13.6407 205.313 13.818C204.865 13.986 204.319 14.07 203.675 14.07ZM208.537 14V6.65H209.531V14H208.537ZM209.041 5.026C208.836 5.026 208.663 4.956 208.523 4.816C208.383 4.676 208.313 4.508 208.313 4.312C208.313 4.116 208.383 3.95267 208.523 3.822C208.663 3.682 208.836 3.612 209.041 3.612C209.246 3.612 209.419 3.67733 209.559 3.808C209.699 3.93867 209.769 4.102 209.769 4.298C209.769 4.50333 209.699 4.676 209.559 4.816C209.428 4.956 209.256 5.026 209.041 5.026ZM215.433 16.786C214.761 16.786 214.117 16.688 213.501 16.492C212.885 16.296 212.385 16.016 212.003 15.652L212.507 14.896C212.852 15.204 213.277 15.4467 213.781 15.624C214.294 15.8107 214.835 15.904 215.405 15.904C216.338 15.904 217.024 15.6847 217.463 15.246C217.901 14.8167 218.121 14.1447 218.121 13.23V11.396L218.261 10.136L218.163 8.876V6.65H219.115V13.104C219.115 14.3733 218.802 15.302 218.177 15.89C217.561 16.4873 216.646 16.786 215.433 16.786ZM215.251 13.72C214.551 13.72 213.921 13.5707 213.361 13.272C212.801 12.964 212.357 12.5393 212.031 11.998C211.713 11.4567 211.555 10.836 211.555 10.136C211.555 9.436 211.713 8.82 212.031 8.288C212.357 7.74667 212.801 7.32667 213.361 7.028C213.921 6.72933 214.551 6.58 215.251 6.58C215.904 6.58 216.492 6.71533 217.015 6.986C217.537 7.25667 217.953 7.658 218.261 8.19C218.569 8.722 218.723 9.37067 218.723 10.136C218.723 10.9013 218.569 11.55 218.261 12.082C217.953 12.614 217.537 13.02 217.015 13.3C216.492 13.58 215.904 13.72 215.251 13.72ZM215.349 12.838C215.89 12.838 216.371 12.726 216.791 12.502C217.211 12.2687 217.542 11.9513 217.785 11.55C218.027 11.1393 218.149 10.668 218.149 10.136C218.149 9.604 218.027 9.13733 217.785 8.736C217.542 8.33467 217.211 8.022 216.791 7.798C216.371 7.56467 215.89 7.448 215.349 7.448C214.817 7.448 214.336 7.56467 213.907 7.798C213.487 8.022 213.155 8.33467 212.913 8.736C212.679 9.13733 212.563 9.604 212.563 10.136C212.563 10.668 212.679 11.1393 212.913 11.55C213.155 11.9513 213.487 12.2687 213.907 12.502C214.336 12.726 214.817 12.838 215.349 12.838ZM225.633 6.58C226.23 6.58 226.753 6.69667 227.201 6.93C227.658 7.154 228.013 7.49933 228.265 7.966C228.526 8.43267 228.657 9.02067 228.657 9.73V14H227.663V9.828C227.663 9.05333 227.467 8.47 227.075 8.078C226.692 7.67667 226.151 7.476 225.451 7.476C224.928 7.476 224.471 7.58333 224.079 7.798C223.696 8.00333 223.397 8.30667 223.183 8.708C222.977 9.1 222.875 9.576 222.875 10.136V14H221.881V6.65H222.833V8.666L222.679 8.288C222.912 7.756 223.285 7.34067 223.799 7.042C224.312 6.734 224.923 6.58 225.633 6.58ZM234.464 14.07C233.698 14.07 233.026 13.9113 232.448 13.594C231.869 13.2673 231.416 12.824 231.09 12.264C230.763 11.6947 230.6 11.046 230.6 10.318C230.6 9.59 230.754 8.946 231.062 8.386C231.379 7.826 231.808 7.38733 232.35 7.07C232.9 6.74333 233.516 6.58 234.198 6.58C234.888 6.58 235.5 6.73867 236.032 7.056C236.573 7.364 236.998 7.80267 237.306 8.372C237.614 8.932 237.768 9.58067 237.768 10.318C237.768 10.3647 237.763 10.416 237.754 10.472C237.754 10.5187 237.754 10.57 237.754 10.626H231.356V9.884H237.222L236.83 10.178C236.83 9.646 236.713 9.17467 236.48 8.764C236.256 8.344 235.948 8.01733 235.556 7.784C235.164 7.55067 234.711 7.434 234.198 7.434C233.694 7.434 233.241 7.55067 232.84 7.784C232.438 8.01733 232.126 8.344 231.902 8.764C231.678 9.184 231.566 9.66467 231.566 10.206V10.36C231.566 10.92 231.687 11.4147 231.93 11.844C232.182 12.264 232.527 12.5953 232.966 12.838C233.414 13.0713 233.922 13.188 234.492 13.188C234.94 13.188 235.355 13.1087 235.738 12.95C236.13 12.7913 236.466 12.5487 236.746 12.222L237.306 12.866C236.979 13.258 236.568 13.5567 236.074 13.762C235.588 13.9673 235.052 14.07 234.464 14.07ZM242.717 14.07C242.017 14.07 241.387 13.9113 240.827 13.594C240.276 13.2767 239.842 12.838 239.525 12.278C239.207 11.7087 239.049 11.0553 239.049 10.318C239.049 9.57133 239.207 8.918 239.525 8.358C239.842 7.798 240.276 7.364 240.827 7.056C241.387 6.73867 242.017 6.58 242.717 6.58C243.361 6.58 243.935 6.72467 244.439 7.014C244.952 7.30333 245.358 7.728 245.657 8.288C245.965 8.83867 246.119 9.51533 246.119 10.318C246.119 11.1113 245.969 11.788 245.671 12.348C245.372 12.908 244.966 13.3373 244.453 13.636C243.949 13.9253 243.37 14.07 242.717 14.07ZM242.787 13.188C243.309 13.188 243.776 13.0713 244.187 12.838C244.607 12.5953 244.933 12.2593 245.167 11.83C245.409 11.3913 245.531 10.8873 245.531 10.318C245.531 9.73933 245.409 9.23533 245.167 8.806C244.933 8.37667 244.607 8.04533 244.187 7.812C243.776 7.56933 243.309 7.448 242.787 7.448C242.273 7.448 241.811 7.56933 241.401 7.812C240.99 8.04533 240.663 8.37667 240.421 8.806C240.178 9.23533 240.057 9.73933 240.057 10.318C240.057 10.8873 240.178 11.3913 240.421 11.83C240.663 12.2593 240.99 12.5953 241.401 12.838C241.811 13.0713 242.273 13.188 242.787 13.188ZM245.559 14V11.788L245.657 10.304L245.517 8.82V3.612H246.511V14H245.559ZM253.111 14V5.726C253.111 5.07267 253.302 4.54533 253.685 4.144C254.068 3.74267 254.618 3.542 255.337 3.542C255.617 3.542 255.888 3.57933 256.149 3.654C256.41 3.72867 256.63 3.84533 256.807 4.004L256.471 4.746C256.331 4.62467 256.168 4.536 255.981 4.48C255.794 4.41467 255.594 4.382 255.379 4.382C254.959 4.382 254.637 4.49867 254.413 4.732C254.189 4.96533 254.077 5.31067 254.077 5.768V6.888L254.105 7.35V14H253.111ZM251.795 7.476V6.65H256.345V7.476H251.795ZM260.56 14.07C259.851 14.07 259.212 13.9113 258.642 13.594C258.082 13.2673 257.639 12.824 257.312 12.264C256.986 11.6947 256.822 11.046 256.822 10.318C256.822 9.58067 256.986 8.932 257.312 8.372C257.639 7.812 258.082 7.37333 258.642 7.056C259.202 6.73867 259.842 6.58 260.56 6.58C261.288 6.58 261.932 6.73867 262.492 7.056C263.062 7.37333 263.505 7.812 263.822 8.372C264.149 8.932 264.312 9.58067 264.312 10.318C264.312 11.046 264.149 11.6947 263.822 12.264C263.505 12.824 263.062 13.2673 262.492 13.594C261.923 13.9113 261.279 14.07 260.56 14.07ZM260.56 13.188C261.092 13.188 261.564 13.0713 261.974 12.838C262.385 12.5953 262.707 12.2593 262.94 11.83C263.183 11.3913 263.304 10.8873 263.304 10.318C263.304 9.73933 263.183 9.23533 262.94 8.806C262.707 8.37667 262.385 8.04533 261.974 7.812C261.564 7.56933 261.097 7.448 260.574 7.448C260.052 7.448 259.585 7.56933 259.174 7.812C258.764 8.04533 258.437 8.37667 258.194 8.806C257.952 9.23533 257.83 9.73933 257.83 10.318C257.83 10.8873 257.952 11.3913 258.194 11.83C258.437 12.2593 258.764 12.5953 259.174 12.838C259.585 13.0713 260.047 13.188 260.56 13.188ZM266.342 14V6.65H267.294V8.652L267.196 8.302C267.401 7.742 267.746 7.31733 268.232 7.028C268.717 6.72933 269.319 6.58 270.038 6.58V7.546C270 7.546 269.963 7.546 269.926 7.546C269.888 7.53667 269.851 7.532 269.814 7.532C269.039 7.532 268.432 7.77 267.994 8.246C267.555 8.71267 267.336 9.38 267.336 10.248V14H266.342ZM279.542 14.084C278.908 14.084 278.334 13.944 277.82 13.664C277.316 13.3747 276.915 12.95 276.616 12.39C276.327 11.83 276.182 11.13 276.182 10.29C276.182 9.45 276.332 8.75 276.63 8.19C276.938 7.63 277.344 7.21 277.848 6.93C278.362 6.65 278.926 6.51 279.542 6.51C280.27 6.51 280.914 6.66867 281.474 6.986C282.034 7.30333 282.478 7.74667 282.804 8.316C283.131 8.876 283.294 9.534 283.294 10.29C283.294 11.046 283.131 11.7087 282.804 12.278C282.478 12.8473 282.034 13.2907 281.474 13.608C280.914 13.9253 280.27 14.084 279.542 14.084ZM275.608 14V3.612H276.952V8.554L276.812 10.276L276.896 11.998V14H275.608ZM279.43 12.908C279.906 12.908 280.331 12.8007 280.704 12.586C281.087 12.3713 281.386 12.068 281.6 11.676C281.824 11.2747 281.936 10.8127 281.936 10.29C281.936 9.758 281.824 9.30067 281.6 8.918C281.386 8.526 281.087 8.22267 280.704 8.008C280.331 7.79333 279.906 7.686 279.43 7.686C278.964 7.686 278.539 7.79333 278.156 8.008C277.783 8.22267 277.484 8.526 277.26 8.918C277.046 9.30067 276.938 9.758 276.938 10.29C276.938 10.8127 277.046 11.2747 277.26 11.676C277.484 12.068 277.783 12.3713 278.156 12.586C278.539 12.8007 278.964 12.908 279.43 12.908ZM288.273 14.084C287.639 14.084 287.079 13.9673 286.593 13.734C286.117 13.5007 285.744 13.146 285.473 12.67C285.212 12.1847 285.081 11.578 285.081 10.85V6.58H286.425V10.696C286.425 11.424 286.598 11.97 286.943 12.334C287.298 12.698 287.793 12.88 288.427 12.88C288.894 12.88 289.3 12.7867 289.645 12.6C289.991 12.404 290.257 12.124 290.443 11.76C290.63 11.3867 290.723 10.9387 290.723 10.416V6.58H292.067V14H290.793V11.998L291.003 12.53C290.761 13.0247 290.397 13.4073 289.911 13.678C289.426 13.9487 288.88 14.084 288.273 14.084ZM294.626 14V3.612H295.97V14H294.626ZM299.628 12.208L299.656 10.486L303.926 6.58H305.55L302.274 9.8L301.546 10.416L299.628 12.208ZM298.536 14V3.612H299.88V14H298.536ZM304.206 14L301.294 10.388L302.162 9.31L305.858 14H304.206ZM69.9992 33.084C69.3832 33.084 68.7952 33 68.2352 32.832C67.6845 32.664 67.2505 32.4587 66.9332 32.216L67.4932 31.152C67.8105 31.3667 68.2025 31.5487 68.6692 31.698C69.1358 31.8473 69.6118 31.922 70.0972 31.922C70.7225 31.922 71.1705 31.8333 71.4412 31.656C71.7212 31.4787 71.8612 31.2313 71.8612 30.914C71.8612 30.6807 71.7772 30.4987 71.6092 30.368C71.4412 30.2373 71.2172 30.1393 70.9372 30.074C70.6665 30.0087 70.3632 29.9527 70.0272 29.906C69.6912 29.85 69.3552 29.7847 69.0192 29.71C68.6832 29.626 68.3752 29.514 68.0952 29.374C67.8152 29.2247 67.5912 29.024 67.4232 28.772C67.2552 28.5107 67.1712 28.1653 67.1712 27.736C67.1712 27.288 67.2972 26.896 67.5492 26.56C67.8012 26.224 68.1558 25.9673 68.6132 25.79C69.0798 25.6033 69.6305 25.51 70.2652 25.51C70.7505 25.51 71.2405 25.5707 71.7352 25.692C72.2392 25.804 72.6498 25.9673 72.9672 26.182L72.3932 27.246C72.0572 27.022 71.7072 26.868 71.3432 26.784C70.9792 26.7 70.6152 26.658 70.2512 26.658C69.6632 26.658 69.2245 26.756 68.9352 26.952C68.6458 27.1387 68.5012 27.3813 68.5012 27.68C68.5012 27.932 68.5852 28.128 68.7532 28.268C68.9305 28.3987 69.1545 28.5013 69.4252 28.576C69.7052 28.6507 70.0132 28.716 70.3492 28.772C70.6852 28.8187 71.0212 28.884 71.3572 28.968C71.6932 29.0427 71.9965 29.15 72.2672 29.29C72.5472 29.43 72.7712 29.626 72.9392 29.878C73.1165 30.13 73.2052 30.466 73.2052 30.886C73.2052 31.334 73.0745 31.7213 72.8132 32.048C72.5518 32.3747 72.1832 32.6313 71.7072 32.818C71.2312 32.9953 70.6618 33.084 69.9992 33.084ZM76.3161 33L73.5581 25.58H74.8321L77.2821 32.3H76.6801L79.2281 25.58H80.3621L82.8541 32.3H82.2661L84.7721 25.58H85.9761L83.2041 33H81.9161L79.5781 26.868H79.9701L77.6041 33H76.3161ZM90.4388 33.084C89.6455 33.084 88.9455 32.9207 88.3388 32.594C87.7415 32.2673 87.2748 31.8193 86.9388 31.25C86.6122 30.6807 86.4488 30.0273 86.4488 29.29C86.4488 28.5527 86.6075 27.8993 86.9248 27.33C87.2515 26.7607 87.6948 26.3173 88.2548 26C88.8242 25.6733 89.4635 25.51 90.1728 25.51C90.8915 25.51 91.5262 25.6687 92.0768 25.986C92.6275 26.3033 93.0568 26.7513 93.3648 27.33C93.6822 27.8993 93.8408 28.5667 93.8408 29.332C93.8408 29.388 93.8362 29.4533 93.8268 29.528C93.8268 29.6027 93.8222 29.6727 93.8128 29.738H87.4988V28.772H93.1128L92.5668 29.108C92.5762 28.632 92.4782 28.2073 92.2728 27.834C92.0675 27.4607 91.7828 27.1713 91.4188 26.966C91.0642 26.7513 90.6488 26.644 90.1728 26.644C89.7062 26.644 89.2908 26.7513 88.9268 26.966C88.5628 27.1713 88.2782 27.4653 88.0728 27.848C87.8675 28.2213 87.7648 28.6507 87.7648 29.136V29.36C87.7648 29.8547 87.8768 30.298 88.1008 30.69C88.3342 31.0727 88.6562 31.3713 89.0668 31.586C89.4775 31.8007 89.9488 31.908 90.4808 31.908C90.9195 31.908 91.3162 31.8333 91.6708 31.684C92.0348 31.5347 92.3522 31.3107 92.6228 31.012L93.3648 31.88C93.0288 32.272 92.6088 32.5707 92.1048 32.776C91.6102 32.9813 91.0548 33.084 90.4388 33.084ZM99.0111 33.084C98.2178 33.084 97.5178 32.9207 96.9111 32.594C96.3138 32.2673 95.8471 31.8193 95.5111 31.25C95.1844 30.6807 95.0211 30.0273 95.0211 29.29C95.0211 28.5527 95.1798 27.8993 95.4971 27.33C95.8238 26.7607 96.2671 26.3173 96.8271 26C97.3964 25.6733 98.0358 25.51 98.7451 25.51C99.4638 25.51 100.098 25.6687 100.649 25.986C101.2 26.3033 101.629 26.7513 101.937 27.33C102.254 27.8993 102.413 28.5667 102.413 29.332C102.413 29.388 102.408 29.4533 102.399 29.528C102.399 29.6027 102.394 29.6727 102.385 29.738H96.0711V28.772H101.685L101.139 29.108C101.148 28.632 101.05 28.2073 100.845 27.834C100.64 27.4607 100.355 27.1713 99.9911 26.966C99.6364 26.7513 99.2211 26.644 98.7451 26.644C98.2784 26.644 97.8631 26.7513 97.4991 26.966C97.1351 27.1713 96.8504 27.4653 96.6451 27.848C96.4398 28.2213 96.3371 28.6507 96.3371 29.136V29.36C96.3371 29.8547 96.4491 30.298 96.6731 30.69C96.9064 31.0727 97.2284 31.3713 97.6391 31.586C98.0498 31.8007 98.5211 31.908 99.0531 31.908C99.4918 31.908 99.8884 31.8333 100.243 31.684C100.607 31.5347 100.924 31.3107 101.195 31.012L101.937 31.88C101.601 32.272 101.181 32.5707 100.677 32.776C100.182 32.9813 99.6271 33.084 99.0111 33.084ZM106.827 33.084C106.081 33.084 105.502 32.8833 105.091 32.482C104.681 32.0807 104.475 31.5067 104.475 30.76V23.956H105.819V30.704C105.819 31.1053 105.917 31.4133 106.113 31.628C106.319 31.8427 106.608 31.95 106.981 31.95C107.401 31.95 107.751 31.8333 108.031 31.6L108.451 32.566C108.246 32.7433 107.999 32.874 107.709 32.958C107.429 33.042 107.135 33.084 106.827 33.084ZM103.215 26.686V25.58H107.947V26.686H103.215ZM112.204 33.084C111.588 33.084 111 33 110.44 32.832C109.89 32.664 109.456 32.4587 109.138 32.216L109.698 31.152C110.016 31.3667 110.408 31.5487 110.874 31.698C111.341 31.8473 111.817 31.922 112.302 31.922C112.928 31.922 113.376 31.8333 113.646 31.656C113.926 31.4787 114.066 31.2313 114.066 30.914C114.066 30.6807 113.982 30.4987 113.814 30.368C113.646 30.2373 113.422 30.1393 113.142 30.074C112.872 30.0087 112.568 29.9527 112.232 29.906C111.896 29.85 111.56 29.7847 111.224 29.71C110.888 29.626 110.58 29.514 110.3 29.374C110.02 29.2247 109.796 29.024 109.628 28.772C109.46 28.5107 109.376 28.1653 109.376 27.736C109.376 27.288 109.502 26.896 109.754 26.56C110.006 26.224 110.361 25.9673 110.818 25.79C111.285 25.6033 111.836 25.51 112.47 25.51C112.956 25.51 113.446 25.5707 113.94 25.692C114.444 25.804 114.855 25.9673 115.172 26.182L114.598 27.246C114.262 27.022 113.912 26.868 113.548 26.784C113.184 26.7 112.82 26.658 112.456 26.658C111.868 26.658 111.43 26.756 111.14 26.952C110.851 27.1387 110.706 27.3813 110.706 27.68C110.706 27.932 110.79 28.128 110.958 28.268C111.136 28.3987 111.36 28.5013 111.63 28.576C111.91 28.6507 112.218 28.716 112.554 28.772C112.89 28.8187 113.226 28.884 113.562 28.968C113.898 29.0427 114.202 29.15 114.472 29.29C114.752 29.43 114.976 29.626 115.144 29.878C115.322 30.13 115.41 30.466 115.41 30.886C115.41 31.334 115.28 31.7213 115.018 32.048C114.757 32.3747 114.388 32.6313 113.912 32.818C113.436 32.9953 112.867 33.084 112.204 33.084ZM125.456 33V31.432L125.386 31.138V28.464C125.386 27.8947 125.218 27.456 124.882 27.148C124.555 26.8307 124.06 26.672 123.398 26.672C122.959 26.672 122.53 26.7467 122.11 26.896C121.69 27.036 121.335 27.2273 121.046 27.47L120.486 26.462C120.868 26.154 121.326 25.9207 121.858 25.762C122.399 25.594 122.964 25.51 123.552 25.51C124.569 25.51 125.353 25.7573 125.904 26.252C126.454 26.7467 126.73 27.5027 126.73 28.52V33H125.456ZM123.02 33.084C122.469 33.084 121.984 32.9907 121.564 32.804C121.153 32.6173 120.836 32.3607 120.612 32.034C120.388 31.698 120.276 31.32 120.276 30.9C120.276 30.4987 120.369 30.1347 120.556 29.808C120.752 29.4813 121.064 29.22 121.494 29.024C121.932 28.828 122.52 28.73 123.258 28.73H125.61V29.696H123.314C122.642 29.696 122.189 29.808 121.956 30.032C121.722 30.256 121.606 30.5267 121.606 30.844C121.606 31.208 121.75 31.502 122.04 31.726C122.329 31.9407 122.73 32.048 123.244 32.048C123.748 32.048 124.186 31.936 124.56 31.712C124.942 31.488 125.218 31.1613 125.386 30.732L125.652 31.656C125.474 32.0947 125.162 32.4447 124.714 32.706C124.266 32.958 123.701 33.084 123.02 33.084ZM133.179 25.51C133.786 25.51 134.318 25.6267 134.775 25.86C135.242 26.0933 135.606 26.448 135.867 26.924C136.128 27.4 136.259 28.002 136.259 28.73V33H134.915V28.884C134.915 28.1653 134.738 27.624 134.383 27.26C134.038 26.896 133.548 26.714 132.913 26.714C132.437 26.714 132.022 26.8073 131.667 26.994C131.312 27.1807 131.037 27.456 130.841 27.82C130.654 28.184 130.561 28.6367 130.561 29.178V33H129.217V25.58H130.505V27.582L130.295 27.05C130.538 26.5647 130.911 26.1867 131.415 25.916C131.919 25.6453 132.507 25.51 133.179 25.51ZM141.812 33.084C141.093 33.084 140.449 32.9253 139.88 32.608C139.32 32.2907 138.877 31.8473 138.55 31.278C138.223 30.7087 138.06 30.046 138.06 29.29C138.06 28.534 138.223 27.876 138.55 27.316C138.877 26.7467 139.32 26.3033 139.88 25.986C140.449 25.6687 141.093 25.51 141.812 25.51C142.437 25.51 143.002 25.65 143.506 25.93C144.01 26.21 144.411 26.63 144.71 27.19C145.018 27.75 145.172 28.45 145.172 29.29C145.172 30.13 145.023 30.83 144.724 31.39C144.435 31.95 144.038 32.3747 143.534 32.664C143.03 32.944 142.456 33.084 141.812 33.084ZM141.924 31.908C142.391 31.908 142.811 31.8007 143.184 31.586C143.567 31.3713 143.865 31.068 144.08 30.676C144.304 30.2747 144.416 29.8127 144.416 29.29C144.416 28.758 144.304 28.3007 144.08 27.918C143.865 27.526 143.567 27.2227 143.184 27.008C142.811 26.7933 142.391 26.686 141.924 26.686C141.448 26.686 141.023 26.7933 140.65 27.008C140.277 27.2227 139.978 27.526 139.754 27.918C139.53 28.3007 139.418 28.758 139.418 29.29C139.418 29.8127 139.53 30.2747 139.754 30.676C139.978 31.068 140.277 31.3713 140.65 31.586C141.023 31.8007 141.448 31.908 141.924 31.908ZM144.458 33V30.998L144.542 29.276L144.402 27.554V22.612H145.746V33H144.458ZM152.245 33V24.922C152.245 24.194 152.455 23.6153 152.875 23.186C153.304 22.7473 153.911 22.528 154.695 22.528C154.984 22.528 155.26 22.5653 155.521 22.64C155.792 22.7053 156.02 22.8127 156.207 22.962L155.801 23.984C155.661 23.872 155.502 23.788 155.325 23.732C155.148 23.6667 154.961 23.634 154.765 23.634C154.373 23.634 154.074 23.746 153.869 23.97C153.664 24.1847 153.561 24.5067 153.561 24.936V25.93L153.589 26.546V33H152.245ZM150.985 26.686V25.58H155.717V26.686H150.985ZM160.179 33.084C159.386 33.084 158.686 32.9207 158.079 32.594C157.482 32.2673 157.015 31.8193 156.679 31.25C156.352 30.6807 156.189 30.0273 156.189 29.29C156.189 28.5527 156.348 27.8993 156.665 27.33C156.992 26.7607 157.435 26.3173 157.995 26C158.564 25.6733 159.204 25.51 159.913 25.51C160.632 25.51 161.266 25.6687 161.817 25.986C162.368 26.3033 162.797 26.7513 163.105 27.33C163.422 27.8993 163.581 28.5667 163.581 29.332C163.581 29.388 163.576 29.4533 163.567 29.528C163.567 29.6027 163.562 29.6727 163.553 29.738H157.239V28.772H162.853L162.307 29.108C162.316 28.632 162.218 28.2073 162.013 27.834C161.808 27.4607 161.523 27.1713 161.159 26.966C160.804 26.7513 160.389 26.644 159.913 26.644C159.446 26.644 159.031 26.7513 158.667 26.966C158.303 27.1713 158.018 27.4653 157.813 27.848C157.608 28.2213 157.505 28.6507 157.505 29.136V29.36C157.505 29.8547 157.617 30.298 157.841 30.69C158.074 31.0727 158.396 31.3713 158.807 31.586C159.218 31.8007 159.689 31.908 160.221 31.908C160.66 31.908 161.056 31.8333 161.411 31.684C161.775 31.5347 162.092 31.3107 162.363 31.012L163.105 31.88C162.769 32.272 162.349 32.5707 161.845 32.776C161.35 32.9813 160.795 33.084 160.179 33.084ZM167.575 33.084C166.959 33.084 166.371 33 165.811 32.832C165.261 32.664 164.827 32.4587 164.509 32.216L165.069 31.152C165.387 31.3667 165.779 31.5487 166.245 31.698C166.712 31.8473 167.188 31.922 167.673 31.922C168.299 31.922 168.747 31.8333 169.017 31.656C169.297 31.4787 169.437 31.2313 169.437 30.914C169.437 30.6807 169.353 30.4987 169.185 30.368C169.017 30.2373 168.793 30.1393 168.513 30.074C168.243 30.0087 167.939 29.9527 167.603 29.906C167.267 29.85 166.931 29.7847 166.595 29.71C166.259 29.626 165.951 29.514 165.671 29.374C165.391 29.2247 165.167 29.024 164.999 28.772C164.831 28.5107 164.747 28.1653 164.747 27.736C164.747 27.288 164.873 26.896 165.125 26.56C165.377 26.224 165.732 25.9673 166.189 25.79C166.656 25.6033 167.207 25.51 167.841 25.51C168.327 25.51 168.817 25.5707 169.311 25.692C169.815 25.804 170.226 25.9673 170.543 26.182L169.969 27.246C169.633 27.022 169.283 26.868 168.919 26.784C168.555 26.7 168.191 26.658 167.827 26.658C167.239 26.658 166.801 26.756 166.511 26.952C166.222 27.1387 166.077 27.3813 166.077 27.68C166.077 27.932 166.161 28.128 166.329 28.268C166.507 28.3987 166.731 28.5013 167.001 28.576C167.281 28.6507 167.589 28.716 167.925 28.772C168.261 28.8187 168.597 28.884 168.933 28.968C169.269 29.0427 169.573 29.15 169.843 29.29C170.123 29.43 170.347 29.626 170.515 29.878C170.693 30.13 170.781 30.466 170.781 30.886C170.781 31.334 170.651 31.7213 170.389 32.048C170.128 32.3747 169.759 32.6313 169.283 32.818C168.807 32.9953 168.238 33.084 167.575 33.084ZM175.009 33.084C174.262 33.084 173.684 32.8833 173.273 32.482C172.862 32.0807 172.657 31.5067 172.657 30.76V23.956H174.001V30.704C174.001 31.1053 174.099 31.4133 174.295 31.628C174.5 31.8427 174.79 31.95 175.163 31.95C175.583 31.95 175.933 31.8333 176.213 31.6L176.633 32.566C176.428 32.7433 176.18 32.874 175.891 32.958C175.611 33.042 175.317 33.084 175.009 33.084ZM171.397 26.686V25.58H176.129V26.686H171.397ZM178.258 33V25.58H179.602V33H178.258ZM178.93 24.152C178.669 24.152 178.449 24.068 178.272 23.9C178.104 23.732 178.02 23.5267 178.02 23.284C178.02 23.032 178.104 22.822 178.272 22.654C178.449 22.486 178.669 22.402 178.93 22.402C179.191 22.402 179.406 22.486 179.574 22.654C179.751 22.8127 179.84 23.0133 179.84 23.256C179.84 23.508 179.756 23.7227 179.588 23.9C179.42 24.068 179.201 24.152 178.93 24.152ZM184.114 33L180.866 25.58H182.266L185.15 32.3H184.478L187.418 25.58H188.734L185.486 33H184.114ZM193.087 33.084C192.294 33.084 191.594 32.9207 190.987 32.594C190.39 32.2673 189.923 31.8193 189.587 31.25C189.261 30.6807 189.097 30.0273 189.097 29.29C189.097 28.5527 189.256 27.8993 189.573 27.33C189.9 26.7607 190.343 26.3173 190.903 26C191.473 25.6733 192.112 25.51 192.821 25.51C193.54 25.51 194.175 25.6687 194.725 25.986C195.276 26.3033 195.705 26.7513 196.013 27.33C196.331 27.8993 196.489 28.5667 196.489 29.332C196.489 29.388 196.485 29.4533 196.475 29.528C196.475 29.6027 196.471 29.6727 196.461 29.738H190.147V28.772H195.761L195.215 29.108C195.225 28.632 195.127 28.2073 194.921 27.834C194.716 27.4607 194.431 27.1713 194.067 26.966C193.713 26.7513 193.297 26.644 192.821 26.644C192.355 26.644 191.939 26.7513 191.575 26.966C191.211 27.1713 190.927 27.4653 190.721 27.848C190.516 28.2213 190.413 28.6507 190.413 29.136V29.36C190.413 29.8547 190.525 30.298 190.749 30.69C190.983 31.0727 191.305 31.3713 191.715 31.586C192.126 31.8007 192.597 31.908 193.129 31.908C193.568 31.908 193.965 31.8333 194.319 31.684C194.683 31.5347 195.001 31.3107 195.271 31.012L196.013 31.88C195.677 32.272 195.257 32.5707 194.753 32.776C194.259 32.9813 193.703 33.084 193.087 33.084ZM205.363 35.8C204.682 35.8 204.019 35.702 203.375 35.506C202.741 35.3193 202.223 35.0487 201.821 34.694L202.465 33.658C202.811 33.9567 203.235 34.19 203.739 34.358C204.243 34.5353 204.771 34.624 205.321 34.624C206.199 34.624 206.843 34.4187 207.253 34.008C207.664 33.5973 207.869 32.972 207.869 32.132V30.564L208.009 29.094L207.939 27.61V25.58H209.213V31.992C209.213 33.2987 208.887 34.26 208.233 34.876C207.58 35.492 206.623 35.8 205.363 35.8ZM205.195 32.692C204.477 32.692 203.833 32.5427 203.263 32.244C202.703 31.936 202.255 31.5113 201.919 30.97C201.593 30.4287 201.429 29.8033 201.429 29.094C201.429 28.3753 201.593 27.75 201.919 27.218C202.255 26.6767 202.703 26.2567 203.263 25.958C203.833 25.6593 204.477 25.51 205.195 25.51C205.83 25.51 206.409 25.6407 206.931 25.902C207.454 26.154 207.869 26.546 208.177 27.078C208.495 27.61 208.653 28.282 208.653 29.094C208.653 29.8967 208.495 30.564 208.177 31.096C207.869 31.628 207.454 32.0293 206.931 32.3C206.409 32.5613 205.83 32.692 205.195 32.692ZM205.349 31.516C205.844 31.516 206.283 31.4133 206.665 31.208C207.048 31.0027 207.347 30.718 207.561 30.354C207.785 29.99 207.897 29.57 207.897 29.094C207.897 28.618 207.785 28.198 207.561 27.834C207.347 27.47 207.048 27.19 206.665 26.994C206.283 26.7887 205.844 26.686 205.349 26.686C204.855 26.686 204.411 26.7887 204.019 26.994C203.637 27.19 203.333 27.47 203.109 27.834C202.895 28.198 202.787 28.618 202.787 29.094C202.787 29.57 202.895 29.99 203.109 30.354C203.333 30.718 203.637 31.0027 204.019 31.208C204.411 31.4133 204.855 31.516 205.349 31.516ZM211.781 33V25.58H213.125V33H211.781ZM212.453 24.152C212.192 24.152 211.973 24.068 211.795 23.9C211.627 23.732 211.543 23.5267 211.543 23.284C211.543 23.032 211.627 22.822 211.795 22.654C211.973 22.486 212.192 22.402 212.453 22.402C212.715 22.402 212.929 22.486 213.097 22.654C213.275 22.8127 213.363 23.0133 213.363 23.256C213.363 23.508 213.279 23.7227 213.111 23.9C212.943 24.068 212.724 24.152 212.453 24.152ZM215.887 33V24.922C215.887 24.194 216.097 23.6153 216.517 23.186C216.947 22.7473 217.553 22.528 218.337 22.528C218.627 22.528 218.902 22.5653 219.163 22.64C219.434 22.7053 219.663 22.8127 219.849 22.962L219.443 23.984C219.303 23.872 219.145 23.788 218.967 23.732C218.79 23.6667 218.603 23.634 218.407 23.634C218.015 23.634 217.717 23.746 217.511 23.97C217.306 24.1847 217.203 24.5067 217.203 24.936V25.93L217.231 26.546V33H215.887ZM214.627 26.686V25.58H219.359V26.686H214.627ZM223.175 33.084C222.428 33.084 221.85 32.8833 221.439 32.482C221.028 32.0807 220.823 31.5067 220.823 30.76V23.956H222.167V30.704C222.167 31.1053 222.265 31.4133 222.461 31.628C222.666 31.8427 222.956 31.95 223.329 31.95C223.749 31.95 224.099 31.8333 224.379 31.6L224.799 32.566C224.594 32.7433 224.346 32.874 224.057 32.958C223.777 33.042 223.483 33.084 223.175 33.084ZM219.563 26.686V25.58H224.295V26.686H219.563ZM226.424 33V25.58H227.768V33H226.424ZM227.096 24.152C226.835 24.152 226.615 24.068 226.438 23.9C226.27 23.732 226.186 23.5267 226.186 23.284C226.186 23.032 226.27 22.822 226.438 22.654C226.615 22.486 226.835 22.402 227.096 22.402C227.357 22.402 227.572 22.486 227.74 22.654C227.917 22.8127 228.006 23.0133 228.006 23.256C228.006 23.508 227.922 23.7227 227.754 23.9C227.586 24.068 227.367 24.152 227.096 24.152ZM234.296 25.51C234.903 25.51 235.435 25.6267 235.892 25.86C236.359 26.0933 236.723 26.448 236.984 26.924C237.245 27.4 237.376 28.002 237.376 28.73V33H236.032V28.884C236.032 28.1653 235.855 27.624 235.5 27.26C235.155 26.896 234.665 26.714 234.03 26.714C233.554 26.714 233.139 26.8073 232.784 26.994C232.429 27.1807 232.154 27.456 231.958 27.82C231.771 28.184 231.678 28.6367 231.678 29.178V33H230.334V25.58H231.622V27.582L231.412 27.05C231.655 26.5647 232.028 26.1867 232.532 25.916C233.036 25.6453 233.624 25.51 234.296 25.51ZM243.111 35.8C242.43 35.8 241.767 35.702 241.123 35.506C240.489 35.3193 239.971 35.0487 239.569 34.694L240.213 33.658C240.559 33.9567 240.983 34.19 241.487 34.358C241.991 34.5353 242.519 34.624 243.069 34.624C243.947 34.624 244.591 34.4187 245.001 34.008C245.412 33.5973 245.617 32.972 245.617 32.132V30.564L245.757 29.094L245.687 27.61V25.58H246.961V31.992C246.961 33.2987 246.635 34.26 245.981 34.876C245.328 35.492 244.371 35.8 243.111 35.8ZM242.943 32.692C242.225 32.692 241.581 32.5427 241.011 32.244C240.451 31.936 240.003 31.5113 239.667 30.97C239.341 30.4287 239.177 29.8033 239.177 29.094C239.177 28.3753 239.341 27.75 239.667 27.218C240.003 26.6767 240.451 26.2567 241.011 25.958C241.581 25.6593 242.225 25.51 242.943 25.51C243.578 25.51 244.157 25.6407 244.679 25.902C245.202 26.154 245.617 26.546 245.925 27.078C246.243 27.61 246.401 28.282 246.401 29.094C246.401 29.8967 246.243 30.564 245.925 31.096C245.617 31.628 245.202 32.0293 244.679 32.3C244.157 32.5613 243.578 32.692 242.943 32.692ZM243.097 31.516C243.592 31.516 244.031 31.4133 244.413 31.208C244.796 31.0027 245.095 30.718 245.309 30.354C245.533 29.99 245.645 29.57 245.645 29.094C245.645 28.618 245.533 28.198 245.309 27.834C245.095 27.47 244.796 27.19 244.413 26.994C244.031 26.7887 243.592 26.686 243.097 26.686C242.603 26.686 242.159 26.7887 241.767 26.994C241.385 27.19 241.081 27.47 240.857 27.834C240.643 28.198 240.535 28.618 240.535 29.094C240.535 29.57 240.643 29.99 240.857 30.354C241.081 30.718 241.385 31.0027 241.767 31.208C242.159 31.4133 242.603 31.516 243.097 31.516ZM249.851 33.084C249.59 33.084 249.366 32.9953 249.179 32.818C248.993 32.6313 248.899 32.398 248.899 32.118C248.899 31.838 248.993 31.6093 249.179 31.432C249.366 31.2547 249.59 31.166 249.851 31.166C250.103 31.166 250.318 31.2547 250.495 31.432C250.682 31.6093 250.775 31.838 250.775 32.118C250.775 32.398 250.682 32.6313 250.495 32.818C250.318 32.9953 250.103 33.084 249.851 33.084Z" fill="black"/>
</svg>
