<svg width="326" height="76" viewBox="0 0 326 76" fill="none" xmlns="http://www.w3.org/2000/svg">
<path d="M19.9714 46.8849C17.9646 46.8879 16.0408 46.628 14.2002 46.1051C12.3595 45.5584 10.8768 44.8558 9.75223 43.9974L11.7144 39.6224C12.791 40.3853 14.0585 41.0166 15.5169 41.5161C16.9991 41.9917 18.4927 42.2284 19.9978 42.2262C21.1446 42.2244 22.0642 42.1156 22.7566 41.8995C23.4728 41.6595 23.9978 41.3362 24.3314 40.9296C24.6651 40.5229 24.8314 40.0568 24.8303 39.5312C24.829 38.8623 24.5651 38.3371 24.0388 37.9556C23.5123 37.5503 22.8189 37.2288 21.9583 36.9911C21.0977 36.7296 20.1416 36.4921 19.09 36.2787C18.0622 36.0413 17.0223 35.7562 15.9705 35.4233C14.9425 35.0903 13.9979 34.6617 13.1368 34.1374C12.2757 33.6131 11.5695 32.9213 11.0183 32.062C10.491 31.2027 10.2259 30.1041 10.2233 28.7663C10.2204 27.3328 10.6 26.0302 11.3621 24.8584C12.1481 23.6627 13.3169 22.7173 14.8684 22.0221C16.4437 21.303 18.414 20.9418 20.7792 20.9382C22.356 20.9359 23.9093 21.1247 25.4391 21.5047C26.9688 21.8607 28.3197 22.4082 29.4919 23.1471L27.7089 27.5576C26.537 26.8904 25.3653 26.4024 24.194 26.0936C23.0227 25.7608 21.8756 25.5953 20.7528 25.597C19.6299 25.5987 18.7104 25.7314 17.9942 25.9953C17.278 26.2592 16.765 26.6063 16.4553 27.0368C16.1455 27.4434 15.9912 27.9215 15.9923 28.471C15.9936 29.116 16.2575 29.6412 16.7839 30.0466C17.3102 30.4281 18.0037 30.7376 18.8643 30.9752C19.7248 31.2129 20.669 31.4504 21.6968 31.6877C22.7484 31.9251 23.7882 32.1983 24.8162 32.5073C25.868 32.8164 26.8245 33.233 27.6856 33.7573C28.5467 34.2816 29.241 34.9735 29.7683 35.8327C30.3195 36.692 30.5964 37.7786 30.5991 39.0926C30.6019 40.5022 30.2103 41.7928 29.4243 42.9647C28.6383 44.1365 27.4576 45.0819 25.8822 45.801C24.3307 46.5201 22.3605 46.8814 19.9714 46.8849ZM36.0142 46.431L35.9637 21.3456L48.2197 21.3274C51.3733 21.3227 53.7397 21.9164 55.3189 23.1086C56.922 24.3008 57.7255 25.8764 57.7294 27.8354C57.7321 29.1494 57.4119 30.2967 56.7688 31.2771C56.1257 32.2337 55.2432 32.9757 54.1214 33.5029C52.9996 34.0302 51.71 34.2949 50.2527 34.2971L50.9306 32.8268C52.5074 32.8245 53.9055 33.0852 55.125 33.6089C56.3445 34.1088 57.2897 34.86 57.9606 35.8624C58.6555 36.8648 59.0044 38.0947 59.0073 39.552C59.0116 41.7022 58.1669 43.3877 56.4731 44.6087C54.7793 45.8058 52.2839 46.4067 48.987 46.4117L36.0142 46.431ZM41.7751 42.0504L48.5481 42.0403C50.0532 42.038 51.1876 41.7974 51.9511 41.3185C52.7385 40.8156 53.1311 40.0266 53.1289 38.9515C53.1268 37.9003 52.7311 37.1245 51.9416 36.6239C51.1761 36.0995 50.0407 35.8384 48.5356 35.8406L41.3325 35.8513L41.324 31.6227L47.5237 31.6134C48.9332 31.6113 50.0079 31.3708 50.7475 30.8919C51.511 30.3891 51.8917 29.6359 51.8897 28.6325C51.8877 27.653 51.504 26.9249 50.7386 26.4482C49.9969 25.9476 48.9213 25.6984 47.5118 25.7005L41.7421 25.7091L41.7751 42.0504ZM63.7231 38.5415L63.714 34.062L73.8557 34.0469L73.8647 38.5264L63.7231 38.5415ZM81.6304 46.363L81.5842 23.4279L84.0978 25.9327L76.5722 25.9439L76.5628 21.2852L87.3853 21.269L87.4359 46.3544L81.6304 46.363ZM104.445 46.7591C102.151 46.7625 100.155 46.2876 98.4571 45.3345C96.7828 44.3814 95.4899 42.9857 94.5784 41.1475C93.6668 39.3092 93.2083 37.0403 93.2029 34.3406C93.197 31.4498 93.7296 29.0002 94.8007 26.9918C95.8956 24.9833 97.3977 23.4521 99.3068 22.398C101.24 21.344 103.461 20.8151 105.969 20.8113C107.307 20.8093 108.586 20.9508 109.805 21.2356C111.024 21.5205 112.076 21.949 112.961 22.5211L110.819 26.7888C110.125 26.312 109.384 25.9906 108.595 25.8245C107.807 25.6345 106.982 25.5402 106.122 25.5415C103.948 25.5447 102.229 26.2043 100.966 27.5202C99.702 28.836 99.0729 30.7841 99.0781 33.3643C99.0789 33.7943 99.0799 34.2721 99.0809 34.7977C99.1059 35.3233 99.1786 35.8488 99.2991 36.3742L97.6835 34.8715C98.1355 33.9391 98.7193 33.1618 99.4348 32.5395C100.15 31.8934 100.997 31.4143 101.976 31.1023C102.979 30.7663 104.078 30.5975 105.272 30.5957C106.897 30.5933 108.355 30.9136 109.646 31.5567C110.938 32.1999 111.967 33.1062 112.734 34.2757C113.524 35.4452 113.921 36.8183 113.924 38.3951C113.928 40.0913 113.501 41.5732 112.643 42.8407C111.81 44.0843 110.677 45.0535 109.245 45.7485C107.836 46.4195 106.236 46.7564 104.445 46.7591ZM104.113 42.4234C104.926 42.4222 105.642 42.2778 106.263 41.9901C106.907 41.6786 107.408 41.2359 107.765 40.662C108.122 40.088 108.3 39.4308 108.299 38.6902C108.296 37.5434 107.9 36.6361 107.111 35.9684C106.345 35.2767 105.317 34.9318 104.027 34.9337C103.167 34.935 102.414 35.1034 101.77 35.4388C101.126 35.7503 100.613 36.1931 100.232 36.767C99.8744 37.317 99.6965 37.9624 99.698 38.703C99.6995 39.4197 99.8799 40.0645 100.239 40.6373C100.599 41.1863 101.102 41.6275 101.747 41.961C102.393 42.2706 103.182 42.4248 104.113 42.4234ZM118.103 38.4605L118.094 33.981L128.236 33.9659L128.245 38.4454L118.103 38.4605ZM136.01 46.282L135.964 23.3469L138.478 25.8517L130.952 25.8629L130.943 21.2042L141.765 21.188L141.816 46.2734L136.01 46.282ZM158.359 46.6788C156.304 46.6818 154.464 46.1829 152.837 45.1819C151.21 44.157 149.929 42.6777 148.994 40.7439C148.058 38.8101 147.587 36.4695 147.582 33.7221C147.576 30.9746 148.037 28.6326 148.965 26.6961C149.893 24.7596 151.168 23.2884 152.791 22.2825C154.413 21.2528 156.252 20.7364 158.307 20.7334C160.385 20.7303 162.226 21.2412 163.828 22.2661C165.455 23.2671 166.736 24.7345 167.672 26.6682C168.607 28.602 169.078 30.9426 169.084 33.69C169.089 36.4375 168.628 38.7795 167.7 40.716C166.772 42.6526 165.497 44.1357 163.875 45.1654C162.276 46.1712 160.437 46.6757 158.359 46.6788ZM158.349 41.7692C159.328 41.7677 160.176 41.4917 160.892 40.9412C161.631 40.3906 162.203 39.5177 162.607 38.3226C163.034 37.1274 163.246 35.5861 163.242 33.6987C163.238 31.8114 163.02 30.2707 162.588 29.0768C162.179 27.8829 161.604 27.0117 160.862 26.4634C160.145 25.9149 159.296 25.6415 158.316 25.6429C157.361 25.6443 156.513 25.9203 155.774 26.4709C155.058 27.0215 154.487 27.8944 154.059 29.0895C153.655 30.2847 153.455 31.8259 153.459 33.7133C153.463 35.6007 153.669 37.1413 154.078 38.3353C154.51 39.5292 155.085 40.4003 155.803 40.9488C156.545 41.4971 157.393 41.7706 158.349 41.7692ZM184.115 46.6404C182.06 46.6435 180.22 46.1445 178.593 45.1435C176.966 44.1186 175.685 42.6393 174.749 40.7055C173.814 38.7718 173.343 36.4311 173.338 33.6837C173.332 30.9363 173.793 28.5943 174.721 26.6577C175.649 24.7212 176.924 23.25 178.547 22.2442C180.169 21.2144 182.008 20.6981 184.062 20.695C186.141 20.6919 187.982 21.2028 189.584 22.2277C191.211 23.2287 192.492 24.6961 193.428 26.6299C194.363 28.5636 194.834 30.9042 194.839 33.6517C194.845 36.3991 194.384 38.7411 193.456 40.6777C192.528 42.6142 191.253 44.0973 189.63 45.1271C188.032 46.1328 186.193 46.6373 184.115 46.6404ZM184.105 41.7308C185.084 41.7294 185.932 41.4534 186.648 40.9028C187.387 40.3522 187.959 39.4794 188.362 38.2842C188.79 37.089 189.002 35.5478 188.998 33.6604C188.994 31.773 188.776 30.2324 188.344 29.0385C187.935 27.8445 187.36 26.9734 186.618 26.425C185.901 25.8766 185.052 25.6031 184.072 25.6045C183.117 25.606 182.269 25.882 181.53 26.4326C180.814 26.9831 180.242 27.856 179.815 29.0512C179.411 30.2463 179.211 31.7876 179.215 33.675C179.219 35.5623 179.425 37.103 179.833 38.2969C180.266 39.4908 180.841 40.362 181.559 40.9104C182.301 41.4588 183.149 41.7323 184.105 41.7308ZM209.871 46.602C207.816 46.6051 205.975 46.1061 204.349 45.1051C202.722 44.0802 201.441 42.6009 200.505 40.6672C199.57 38.7334 199.099 36.3928 199.094 33.6453C199.088 30.8979 199.549 28.5559 200.477 26.6194C201.405 24.6828 202.68 23.2116 204.303 22.2058C205.925 21.1761 207.764 20.6597 209.818 20.6566C211.897 20.6535 213.737 21.1644 215.34 22.1894C216.967 23.1904 218.248 24.6577 219.184 26.5915C220.119 28.5253 220.59 30.8659 220.595 33.6133C220.601 36.3608 220.14 38.7027 219.212 40.6393C218.284 42.5758 217.009 44.059 215.386 45.0887C213.788 46.0945 211.949 46.5989 209.871 46.602ZM209.861 41.6925C210.84 41.691 211.688 41.415 212.403 40.8644C213.143 40.3139 213.715 39.441 214.118 38.2458C214.546 37.0507 214.758 35.5094 214.754 33.622C214.75 31.7346 214.532 30.194 214.1 29.0001C213.691 27.8062 213.116 26.935 212.374 26.3866C211.656 25.8382 210.808 25.5647 209.828 25.5662C208.873 25.5676 208.025 25.8436 207.286 26.3942C206.57 26.9448 205.998 27.8176 205.571 29.0128C205.167 30.208 204.967 31.7492 204.971 33.6366C204.975 35.524 205.181 37.0646 205.589 38.2585C206.022 39.4524 206.597 40.3236 207.315 40.872C208.056 41.4204 208.905 41.6939 209.861 41.6925ZM246.721 53.356C244.905 53.3587 243.149 53.1344 241.452 52.683C239.778 52.2554 238.379 51.6005 237.255 50.7182L239.469 46.7013C240.282 47.369 241.311 47.8931 242.554 48.2735C243.821 48.6777 245.063 48.879 246.282 48.8771C248.265 48.8742 249.697 48.4301 250.579 47.5448C251.486 46.6595 251.937 45.3448 251.933 43.6008L251.927 40.6981L252.276 35.8596L252.195 30.986L252.186 26.829L257.49 26.8211L257.522 42.8757C257.53 46.4594 256.603 49.1007 254.743 50.7997C252.883 52.4987 250.209 53.3508 246.721 53.356ZM245.844 45.1867C244.053 45.1893 242.427 44.8095 240.968 44.0472C239.533 43.2609 238.372 42.1756 237.486 40.7912C236.623 39.383 236.189 37.7471 236.186 35.8836C236.182 33.9962 236.609 32.3591 237.466 30.9721C238.347 29.5613 239.503 28.4725 240.935 27.7059C242.391 26.9392 244.015 26.5545 245.807 26.5518C247.431 26.5494 248.866 26.8818 250.109 27.5488C251.353 28.192 252.322 29.206 253.018 30.5906C253.714 31.9513 254.064 33.7068 254.068 35.857C254.072 37.9833 253.729 39.7397 253.039 41.1264C252.349 42.4892 251.384 43.506 250.143 44.1768C248.902 44.8476 247.469 45.1842 245.844 45.1867ZM246.946 40.598C247.926 40.5965 248.797 40.4041 249.561 40.0207C250.325 39.6134 250.921 39.0511 251.349 38.3337C251.778 37.6164 251.991 36.7918 251.989 35.8601C251.987 34.9044 251.771 34.0805 251.339 33.3883C250.908 32.6722 250.31 32.1236 249.544 31.7425C248.779 31.3375 247.906 31.1358 246.927 31.1372C245.947 31.1387 245.076 31.343 244.312 31.7503C243.548 32.1337 242.94 32.6841 242.488 33.4015C242.059 34.095 241.846 34.9195 241.848 35.8752C241.85 36.8069 242.066 37.6308 242.498 38.3469C242.953 39.063 243.564 39.6235 244.329 40.0285C245.094 40.4096 245.967 40.5994 246.946 40.598Z" fill="#490606"/>
<path d="M44.4064 67.6162C43.9298 66.8963 43.5599 66.0654 43.2967 65.1235C43.0414 64.1736 42.9127 63.1524 42.9104 62.0596C42.9082 60.9669 43.0329 59.9452 43.2844 58.9946C43.5437 58.0361 43.9103 57.2041 44.384 56.4986L46.1538 56.496C45.6567 57.3915 45.2943 58.2948 45.0665 59.2057C44.8386 60.1088 44.7257 61.0592 44.7277 62.0569C44.7298 63.0546 44.8465 64.0086 45.078 64.9189C45.3094 65.8213 45.6755 66.7195 46.1761 67.6135L44.4064 67.6162ZM47.2811 65.3076L47.2644 56.9932L49.1886 56.9903L49.2053 65.3047L47.2811 65.3076ZM51.1785 65.3018L51.1618 56.9874L52.7534 56.985L56.3048 62.8473L55.4615 62.8486L58.9298 56.9758L60.5096 56.9735L60.5501 65.2878L58.7447 65.2905L58.7216 59.7436L59.0542 59.7431L56.2842 64.4152L55.4171 64.4165L52.5689 59.7528L52.9728 59.7522L52.9839 65.2991L51.1785 65.3018ZM62.5227 65.2849L62.506 56.9705L64.4301 56.9676L64.4437 63.7142L68.6128 63.708L68.616 65.2758L62.5227 65.2849ZM73.0549 65.2692L73.0382 56.9548L74.6298 56.9524L78.1812 62.8147L77.3379 62.816L80.8062 56.9432L82.386 56.9409L82.4265 65.2552L80.621 65.2579L80.598 59.7111L80.9306 59.7106L78.1606 64.3826L77.2935 64.3839L74.4453 59.7202L74.8492 59.7196L74.8603 65.2665L73.0549 65.2692ZM88.4378 65.3888C87.7806 65.3898 87.1706 65.2838 86.608 65.0708C86.0533 64.8579 85.5696 64.5577 85.1571 64.1703C84.7525 63.7829 84.4348 63.3281 84.2041 62.8058C83.9813 62.2835 83.8693 61.7135 83.8681 61.0959C83.8669 60.4782 83.9766 59.9079 84.1972 59.385C84.4258 58.862 84.7456 58.4062 85.1566 58.0176C85.5676 57.629 86.05 57.3274 86.6038 57.1128C87.1577 56.8981 87.7593 56.7903 88.4086 56.7894C89.0658 56.7884 89.6679 56.8944 90.2147 57.1074C90.7694 57.3203 91.2491 57.6205 91.6537 58.0079C92.0662 58.3953 92.3879 58.8502 92.6185 59.3724C92.8492 59.8868 92.9652 60.4568 92.9664 61.0823C92.9677 61.7 92.854 62.2742 92.6255 62.8051C92.3969 63.3281 92.0771 63.7839 91.6661 64.1725C91.263 64.5532 90.7846 64.8508 90.2307 65.0655C89.6848 65.2801 89.0871 65.3879 88.4378 65.3888ZM88.4226 63.7497C88.7948 63.7492 89.1352 63.6853 89.4437 63.5581C89.7602 63.431 90.037 63.2484 90.2741 63.0105C90.5112 62.7726 90.6927 62.4912 90.8188 62.1664C90.9527 61.8415 91.0193 61.4812 91.0185 61.0852C91.0177 60.6893 90.9497 60.3291 90.8144 60.0047C90.687 59.6802 90.5044 59.3994 90.2663 59.1621C90.0362 58.9249 89.7627 58.7432 89.4457 58.617C89.1287 58.4908 88.7841 58.4279 88.4119 58.4285C88.0397 58.429 87.6954 58.4929 87.3789 58.6201C87.0704 58.7472 86.7975 58.9298 86.5605 59.1677C86.3234 59.4056 86.1379 59.687 86.0039 60.0118C85.8779 60.3367 85.8152 60.6971 85.816 61.093C85.8168 61.481 85.8809 61.8412 86.0083 62.1736C86.1435 62.498 86.3262 62.7789 86.5563 63.0161C86.7944 63.2533 87.0719 63.435 87.3889 63.5612C87.7059 63.6874 88.0505 63.7503 88.4226 63.7497ZM98.4478 65.3739C97.7985 65.3749 97.1925 65.2689 96.6298 65.0559C96.0751 64.8429 95.5915 64.5428 95.1789 64.1554C94.7743 63.768 94.4567 63.3131 94.226 62.7908C94.0032 62.2686 93.8912 61.6986 93.8899 61.081C93.8887 60.4633 93.9984 59.893 94.2191 59.3701C94.4477 58.8471 94.7674 58.3913 95.1784 58.0027C95.5894 57.6141 96.0718 57.3124 96.6257 57.0978C97.1795 56.8832 97.7811 56.7754 98.4305 56.7744C99.0877 56.7735 99.6897 56.8795 100.237 57.0924C100.791 57.3054 101.271 57.6056 101.676 57.993C102.088 58.3725 102.41 58.8234 102.64 59.3456C102.871 59.8679 102.987 60.4418 102.988 61.0674C102.99 61.685 102.876 62.2593 102.647 62.7902C102.419 63.3131 102.099 63.7689 101.688 64.1576C101.285 64.5382 100.806 64.8359 100.253 65.0505C99.7066 65.2651 99.105 65.3729 98.4478 65.3739ZM101.171 67.1396C100.847 67.1401 100.538 67.105 100.245 67.0341C99.9595 66.9633 99.6742 66.8489 99.3888 66.6909C99.1113 66.533 98.8179 66.3196 98.5085 66.0509C98.2071 65.7821 97.8778 65.45 97.5207 65.0546L99.5389 64.5408C99.7532 64.8335 99.9517 65.0668 100.134 65.2407C100.317 65.4147 100.491 65.5372 100.658 65.6082C100.832 65.6792 101.014 65.7145 101.204 65.7143C101.711 65.7135 102.162 65.507 102.557 65.0946L103.414 66.1148C102.853 66.7966 102.106 67.1383 101.171 67.1396ZM98.4445 63.7348C98.8166 63.7342 99.157 63.6704 99.4656 63.5432C99.7821 63.4161 100.059 63.2335 100.296 62.9956C100.533 62.7577 100.715 62.4763 100.841 62.1515C100.975 61.8187 101.041 61.4583 101.04 61.0703C101.04 60.6744 100.972 60.3142 100.836 59.9897C100.709 59.6653 100.526 59.3844 100.288 59.1472C100.05 58.91 99.7726 58.7283 99.4556 58.6021C99.1465 58.4758 98.8059 58.413 98.4338 58.4136C98.0616 58.4141 97.7173 58.478 97.4008 58.6051C97.0843 58.7323 96.8075 58.9149 96.5704 59.1528C96.3413 59.3907 96.1597 59.672 96.0258 59.9969C95.8997 60.3217 95.8371 60.6821 95.8379 61.078C95.8387 61.4661 95.9027 61.8263 96.0301 62.1586C96.1654 62.4831 96.3481 62.7639 96.5782 63.0011C96.8162 63.2383 97.0937 63.4201 97.4107 63.5463C97.7277 63.6725 98.0723 63.7353 98.4445 63.7348ZM107.433 62.6168L107.43 61.132L110.792 61.127L110.795 62.6118L107.433 62.6168ZM118.057 65.3447C117.479 65.3456 116.904 65.2712 116.334 65.1216C115.771 64.9641 115.288 64.7431 114.884 64.4586L115.641 62.9846C115.958 63.2138 116.323 63.3954 116.735 63.5294C117.155 63.6634 117.578 63.73 118.006 63.7294C118.489 63.7287 118.869 63.6331 119.146 63.4426C119.422 63.2522 119.56 62.9867 119.56 62.6462C119.559 62.4324 119.504 62.2424 119.392 62.0763C119.281 61.9102 119.083 61.7838 118.798 61.6971C118.52 61.6104 118.128 61.5675 117.622 61.5682L115.495 61.5714L115.914 56.8909L120.985 56.8834L120.988 58.4275L116.606 58.434L117.602 57.5536L117.311 60.8916L116.312 60.0142L118.07 60.0116C118.893 60.0103 119.555 60.1242 120.054 60.3531C120.561 60.574 120.93 60.8783 121.16 61.266C121.391 61.6537 121.507 62.093 121.508 62.5839C121.509 63.0749 121.387 63.5304 121.142 63.9504C120.897 64.3625 120.518 64.6996 120.004 64.9617C119.498 65.2159 118.849 65.3435 118.057 65.3447ZM125.857 65.3331C125.176 65.3341 124.566 65.1687 124.027 64.8369C123.488 64.4972 123.063 64.0069 122.753 63.366C122.443 62.7251 122.287 61.9493 122.285 61.0387C122.283 60.128 122.436 59.3518 122.744 58.7099C123.051 58.0681 123.474 57.5805 124.012 57.2471C124.549 56.9058 125.159 56.7346 125.84 56.7336C126.529 56.7326 127.139 56.9019 127.67 57.2416C128.209 57.5734 128.634 58.0598 128.944 58.7007C129.254 59.3416 129.41 60.1174 129.412 61.028C129.414 61.9387 129.261 62.7149 128.953 63.3568C128.646 63.9986 128.223 64.4902 127.685 64.8315C127.155 65.1649 126.546 65.3321 125.857 65.3331ZM125.854 63.7058C126.179 63.7053 126.459 63.6139 126.697 63.4314C126.942 63.2489 127.131 62.9596 127.265 62.5635C127.407 62.1673 127.477 61.6565 127.476 61.0309C127.474 60.4054 127.402 59.8947 127.259 59.499C127.123 59.1033 126.933 58.8145 126.687 58.6328C126.449 58.451 126.168 58.3604 125.843 58.3609C125.526 58.3613 125.245 58.4528 125 58.6353C124.763 58.8178 124.574 59.1071 124.432 59.5032C124.298 59.8993 124.232 60.4102 124.233 61.0357C124.234 61.6613 124.303 62.172 124.438 62.5677C124.581 62.9634 124.772 63.2521 125.01 63.4339C125.256 63.6157 125.537 63.7063 125.854 63.7058ZM133.919 65.3211C133.238 65.3221 132.628 65.1567 132.089 64.8249C131.549 64.4852 131.125 63.9949 130.815 63.354C130.505 62.7131 130.349 61.9373 130.347 61.0266C130.345 60.116 130.498 59.3398 130.805 58.6979C131.113 58.0561 131.535 57.5684 132.073 57.2351C132.611 56.8938 133.22 56.7226 133.901 56.7216C134.59 56.7206 135.2 56.8899 135.732 57.2296C136.271 57.5614 136.695 58.0477 137.005 58.6887C137.316 59.3296 137.472 60.1054 137.473 61.016C137.475 61.9267 137.322 62.7029 137.015 63.3448C136.707 63.9866 136.285 64.4782 135.747 64.8195C135.217 65.1529 134.608 65.32 133.919 65.3211ZM133.915 63.6938C134.24 63.6933 134.521 63.6019 134.758 63.4194C135.003 63.2369 135.193 62.9476 135.327 62.5515C135.468 62.1553 135.539 61.6445 135.537 61.0189C135.536 60.3933 135.464 59.8827 135.32 59.487C135.185 59.0913 134.994 58.8025 134.749 58.6208C134.511 58.439 134.229 58.3484 133.905 58.3488C133.588 58.3493 133.307 58.4408 133.062 58.6233C132.825 58.8058 132.635 59.0951 132.494 59.4912C132.36 59.8873 132.293 60.3982 132.295 61.0237C132.296 61.6493 132.364 62.1599 132.5 62.5557C132.643 62.9514 132.834 63.2401 133.072 63.4219C133.317 63.6037 133.599 63.6943 133.915 63.6938ZM141.98 65.3091C141.299 65.3101 140.689 65.1447 140.15 64.8129C139.611 64.4732 139.186 63.9829 138.876 63.342C138.566 62.701 138.41 61.9253 138.408 61.0146C138.406 60.104 138.559 59.3278 138.867 58.6859C139.174 58.0441 139.597 57.5564 140.135 57.2231C140.673 56.8818 141.282 56.7106 141.963 56.7096C142.652 56.7086 143.262 56.8779 143.793 57.2176C144.332 57.5494 144.757 58.0357 145.067 58.6767C145.377 59.3176 145.533 60.0934 145.535 61.004C145.537 61.9146 145.384 62.6909 145.076 63.3327C144.769 63.9746 144.346 64.4662 143.808 64.8075C143.279 65.1408 142.669 65.308 141.98 65.3091ZM141.977 63.6818C142.302 63.6813 142.583 63.5898 142.82 63.4074C143.065 63.2249 143.254 62.9356 143.388 62.5394C143.53 62.1433 143.6 61.6325 143.599 61.0069C143.598 60.3813 143.525 59.8707 143.382 59.475C143.247 59.0793 143.056 58.7905 142.81 58.6088C142.572 58.427 142.291 58.3364 141.966 58.3368C141.649 58.3373 141.369 58.4288 141.123 58.6113C140.886 58.7938 140.697 59.0831 140.555 59.4792C140.421 59.8753 140.355 60.3862 140.356 61.0117C140.357 61.6373 140.426 62.1479 140.561 62.5437C140.705 62.9394 140.895 63.2281 141.133 63.4099C141.379 63.5916 141.66 63.6823 141.977 63.6818ZM150.365 65.154L150.348 56.8396L153.947 56.8343C154.691 56.8332 155.333 56.9549 155.872 57.1996C156.411 57.4364 156.827 57.7802 157.121 58.2311C157.415 58.682 157.562 59.2203 157.564 59.8458C157.565 60.4635 157.42 60.9982 157.128 61.45C156.835 61.9018 156.42 62.2508 155.882 62.4971C155.344 62.7354 154.703 62.8552 153.959 62.8563L151.429 62.86L152.282 61.9917L152.289 65.1512L150.365 65.154ZM152.283 62.2055L151.426 61.2922L153.849 61.2886C154.443 61.2877 154.886 61.1603 155.178 60.9065C155.471 60.6527 155.617 60.3001 155.616 59.8487C155.615 59.3895 155.468 59.0333 155.174 58.7804C154.881 58.5274 154.437 58.4014 153.843 58.4023L151.42 58.4059L152.273 57.49L152.283 62.2055ZM161.894 65.2319C161.205 65.2329 160.591 65.0953 160.052 64.8189C159.513 64.5346 159.089 64.1433 158.779 63.6449C158.477 63.1465 158.326 62.5805 158.324 61.9471C158.323 61.3057 158.472 60.7393 158.772 60.2479C159.08 59.7486 159.503 59.3599 160.041 59.082C160.579 58.7961 161.192 58.6527 161.881 58.6516C162.554 58.6506 163.14 58.7923 163.64 59.0766C164.139 59.353 164.508 59.7523 164.747 60.2746L163.311 61.0488C163.144 60.7481 162.934 60.5267 162.68 60.3846C162.435 60.2424 162.165 60.1716 161.872 60.172C161.556 60.1725 161.271 60.2442 161.017 60.3871C160.764 60.53 160.563 60.7322 160.413 60.9937C160.271 61.2553 160.2 61.5721 160.201 61.9443C160.202 62.3164 160.274 62.6331 160.417 62.8942C160.568 63.1553 160.77 63.3569 161.024 63.499C161.277 63.6412 161.563 63.712 161.879 63.7116C162.172 63.7111 162.441 63.6434 162.687 63.5084C162.94 63.3655 163.149 63.1395 163.315 62.8305L164.754 63.6123C164.517 64.1273 164.15 64.5277 163.651 64.8135C163.153 65.0914 162.567 65.2309 161.894 65.2319ZM167.974 65.2228C167.427 65.2236 166.9 65.1611 166.393 65.0351C165.894 64.9013 165.498 64.7356 165.205 64.538L165.82 63.2068C166.113 63.3885 166.458 63.5384 166.854 63.6566C167.258 63.7669 167.654 63.8217 168.042 63.8212C168.47 63.8205 168.77 63.7686 168.944 63.6654C169.126 63.5622 169.217 63.4195 169.217 63.2374C169.216 63.0869 169.145 62.9762 169.002 62.9051C168.868 62.8262 168.685 62.767 168.456 62.7278C168.226 62.6885 167.972 62.6493 167.695 62.6101C167.426 62.5709 167.153 62.5199 166.875 62.4569C166.598 62.3861 166.344 62.2835 166.114 62.1493C165.885 62.015 165.698 61.8331 165.555 61.6037C165.42 61.3743 165.352 61.0774 165.351 60.7132C165.351 60.3093 165.465 59.9528 165.694 59.6437C165.931 59.3345 166.271 59.0925 166.714 58.9176C167.157 58.7348 167.687 58.643 168.305 58.6421C168.74 58.6414 169.184 58.6883 169.635 58.7826C170.087 58.877 170.463 59.015 170.765 59.1966L170.15 60.516C169.84 60.3343 169.527 60.2121 169.211 60.1492C168.902 60.0784 168.601 60.0432 168.308 60.0436C167.896 60.0442 167.595 60.1001 167.405 60.2113C167.215 60.3224 167.121 60.4651 167.121 60.6393C167.121 60.7977 167.189 60.9163 167.324 60.9953C167.466 61.0743 167.653 61.1374 167.882 61.1845C168.112 61.2317 168.362 61.2749 168.631 61.3141C168.908 61.3453 169.185 61.3964 169.463 61.4672C169.74 61.5381 169.99 61.6407 170.212 61.7749C170.441 61.9013 170.628 62.0792 170.771 62.3086C170.914 62.5301 170.986 62.823 170.986 63.1872C170.987 63.5832 170.869 63.9357 170.632 64.2449C170.395 64.5462 170.051 64.7842 169.6 64.9591C169.157 65.134 168.615 65.2219 167.974 65.2228ZM173.172 67.4244L171.402 67.427C171.915 66.5314 172.281 65.6321 172.501 64.7291C172.729 63.8181 172.842 62.8638 172.84 61.8661C172.838 60.8683 172.721 59.9183 172.489 59.0159C172.266 58.1056 171.896 57.2035 171.379 56.3094L173.149 56.3068C173.642 57.0108 174.015 57.8417 174.271 58.7995C174.526 59.7493 174.655 60.7706 174.657 61.8633C174.659 62.9561 174.535 63.9778 174.283 64.9284C174.032 65.871 173.661 66.703 173.172 67.4244Z" fill="black"/>
<path d="M181.152 62.0518H216.703" stroke="url(#paint0_linear_2175_4)" stroke-width="0.863039"/>
<path d="M35.5498 62.0576H-0.000447512" stroke="url(#paint1_linear_2175_4)" stroke-width="0.863039"/>
<defs>
<linearGradient id="paint0_linear_2175_4" x1="211.37" y1="62.5517" x2="181.745" y2="62.5517" gradientUnits="userSpaceOnUse">
<stop stop-color="#666666" stop-opacity="0"/>
<stop offset="1"/>
</linearGradient>
<linearGradient id="paint1_linear_2175_4" x1="5.33209" y1="62.5576" x2="34.9573" y2="62.5576" gradientUnits="userSpaceOnUse">
<stop stop-color="#666666" stop-opacity="0"/>
<stop offset="1"/>
</linearGradient>
</defs>
</svg>
