<svg width="319" height="38" viewBox="0 0 319 38" fill="none" xmlns="http://www.w3.org/2000/svg">
<path d="M18.8073 14L14.4673 4.2H15.5873L19.6473 13.426H19.0313L23.1193 4.2H24.1693L19.8293 14H18.8073ZM27.943 14.07C27.1777 14.07 26.5057 13.9113 25.927 13.594C25.3484 13.2673 24.8957 12.824 24.569 12.264C24.2424 11.6947 24.079 11.046 24.079 10.318C24.079 9.59 24.233 8.946 24.541 8.386C24.8584 7.826 25.2877 7.38733 25.829 7.07C26.3797 6.74333 26.9957 6.58 27.677 6.58C28.3677 6.58 28.979 6.73867 29.511 7.056C30.0524 7.364 30.477 7.80267 30.785 8.372C31.093 8.932 31.247 9.58067 31.247 10.318C31.247 10.3647 31.2424 10.416 31.233 10.472C31.233 10.5187 31.233 10.57 31.233 10.626H24.835V9.884H30.701L30.309 10.178C30.309 9.646 30.1924 9.17467 29.959 8.764C29.735 8.344 29.427 8.01733 29.035 7.784C28.643 7.55067 28.1904 7.434 27.677 7.434C27.173 7.434 26.7204 7.55067 26.319 7.784C25.9177 8.01733 25.605 8.344 25.381 8.764C25.157 9.184 25.045 9.66467 25.045 10.206V10.36C25.045 10.92 25.1664 11.4147 25.409 11.844C25.661 12.264 26.0064 12.5953 26.445 12.838C26.893 13.0713 27.4017 13.188 27.971 13.188C28.419 13.188 28.8344 13.1087 29.217 12.95C29.609 12.7913 29.945 12.5487 30.225 12.222L30.785 12.866C30.4584 13.258 30.0477 13.5567 29.553 13.762C29.0677 13.9673 28.531 14.07 27.943 14.07ZM33.2703 14V6.65H34.2223V8.652L34.1243 8.302C34.3296 7.742 34.6749 7.31733 35.1603 7.028C35.6456 6.72933 36.2476 6.58 36.9663 6.58V7.546C36.9289 7.546 36.8916 7.546 36.8543 7.546C36.8169 7.53667 36.7796 7.532 36.7423 7.532C35.9676 7.532 35.3609 7.77 34.9223 8.246C34.4836 8.71267 34.2643 9.38 34.2643 10.248V14H33.2703ZM40.8361 14.07C40.2294 14.07 39.6554 13.986 39.1141 13.818C38.5727 13.6407 38.1481 13.4213 37.8401 13.16L38.2881 12.376C38.5867 12.6 38.9694 12.796 39.4361 12.964C39.9027 13.1227 40.3927 13.202 40.9061 13.202C41.6061 13.202 42.1101 13.0947 42.4181 12.88C42.7261 12.656 42.8801 12.362 42.8801 11.998C42.8801 11.7273 42.7914 11.5173 42.6141 11.368C42.4461 11.2093 42.2221 11.0927 41.9421 11.018C41.6621 10.934 41.3494 10.864 41.0041 10.808C40.6587 10.752 40.3134 10.6867 39.9681 10.612C39.6321 10.5373 39.3241 10.43 39.0441 10.29C38.7641 10.1407 38.5354 9.94 38.3581 9.688C38.1901 9.436 38.1061 9.1 38.1061 8.68C38.1061 8.27867 38.2181 7.91933 38.4421 7.602C38.6661 7.28467 38.9927 7.03733 39.4221 6.86C39.8607 6.67333 40.3927 6.58 41.0181 6.58C41.4941 6.58 41.9701 6.64533 42.4461 6.776C42.9221 6.89733 43.3141 7.06067 43.6221 7.266L43.1881 8.064C42.8614 7.84 42.5114 7.68133 42.1381 7.588C41.7647 7.48533 41.3914 7.434 41.0181 7.434C40.3554 7.434 39.8654 7.55067 39.5481 7.784C39.2401 8.008 39.0861 8.29733 39.0861 8.652C39.0861 8.932 39.1701 9.15133 39.3381 9.31C39.5154 9.46867 39.7441 9.59467 40.0241 9.688C40.3134 9.772 40.6261 9.842 40.9621 9.898C41.3074 9.954 41.6481 10.024 41.9841 10.108C42.3294 10.1827 42.6421 10.29 42.9221 10.43C43.2114 10.5607 43.4401 10.752 43.6081 11.004C43.7854 11.2467 43.8741 11.5687 43.8741 11.97C43.8741 12.3993 43.7527 12.7727 43.5101 13.09C43.2767 13.398 42.9314 13.6407 42.4741 13.818C42.0261 13.986 41.4801 14.07 40.8361 14.07ZM50.304 14V12.376L50.262 12.11V9.394C50.262 8.76867 50.0847 8.288 49.73 7.952C49.3847 7.616 48.8667 7.448 48.176 7.448C47.7 7.448 47.2473 7.52733 46.818 7.686C46.3887 7.84467 46.0247 8.05467 45.726 8.316L45.278 7.574C45.6513 7.25667 46.0993 7.014 46.622 6.846C47.1447 6.66867 47.6953 6.58 48.274 6.58C49.226 6.58 49.9587 6.818 50.472 7.294C50.9947 7.76067 51.256 8.47467 51.256 9.436V14H50.304ZM47.77 14.07C47.2193 14.07 46.7387 13.9813 46.328 13.804C45.9267 13.6173 45.6187 13.3653 45.404 13.048C45.1893 12.7213 45.082 12.348 45.082 11.928C45.082 11.5453 45.1707 11.2 45.348 10.892C45.5347 10.5747 45.8333 10.3227 46.244 10.136C46.664 9.94 47.224 9.842 47.924 9.842H50.458V10.584H47.952C47.2427 10.584 46.748 10.71 46.468 10.962C46.1973 11.214 46.062 11.5267 46.062 11.9C46.062 12.32 46.2253 12.656 46.552 12.908C46.8787 13.16 47.336 13.286 47.924 13.286C48.484 13.286 48.9647 13.16 49.366 12.908C49.7767 12.6467 50.0753 12.2733 50.262 11.788L50.486 12.474C50.2993 12.9593 49.9727 13.3467 49.506 13.636C49.0487 13.9253 48.47 14.07 47.77 14.07ZM56.2798 14.07C55.5891 14.07 55.0571 13.8833 54.6838 13.51C54.3105 13.1367 54.1238 12.6093 54.1238 11.928V5.026H55.1178V11.872C55.1178 12.3013 55.2251 12.6327 55.4398 12.866C55.6638 13.0993 55.9811 13.216 56.3918 13.216C56.8305 13.216 57.1945 13.09 57.4838 12.838L57.8338 13.552C57.6378 13.7293 57.3998 13.86 57.1198 13.944C56.8491 14.028 56.5691 14.07 56.2798 14.07ZM52.8078 7.476V6.65H57.3578V7.476H52.8078ZM59.6433 14V6.65H60.6373V14H59.6433ZM60.1473 5.026C59.942 5.026 59.7693 4.956 59.6293 4.816C59.4893 4.676 59.4193 4.508 59.4193 4.312C59.4193 4.116 59.4893 3.95267 59.6293 3.822C59.7693 3.682 59.942 3.612 60.1473 3.612C60.3526 3.612 60.5253 3.67733 60.6653 3.808C60.8053 3.93867 60.8753 4.102 60.8753 4.298C60.8753 4.50333 60.8053 4.676 60.6653 4.816C60.5346 4.956 60.362 5.026 60.1473 5.026ZM63.4031 14V3.612H64.3971V14H63.4031ZM70.2848 14.07C69.5195 14.07 68.8475 13.9113 68.2688 13.594C67.6902 13.2673 67.2375 12.824 66.9108 12.264C66.5842 11.6947 66.4208 11.046 66.4208 10.318C66.4208 9.59 66.5748 8.946 66.8828 8.386C67.2002 7.826 67.6295 7.38733 68.1708 7.07C68.7215 6.74333 69.3375 6.58 70.0188 6.58C70.7095 6.58 71.3208 6.73867 71.8528 7.056C72.3942 7.364 72.8188 7.80267 73.1268 8.372C73.4348 8.932 73.5888 9.58067 73.5888 10.318C73.5888 10.3647 73.5842 10.416 73.5748 10.472C73.5748 10.5187 73.5748 10.57 73.5748 10.626H67.1768V9.884H73.0428L72.6508 10.178C72.6508 9.646 72.5342 9.17467 72.3008 8.764C72.0768 8.344 71.7688 8.01733 71.3768 7.784C70.9848 7.55067 70.5322 7.434 70.0188 7.434C69.5148 7.434 69.0622 7.55067 68.6608 7.784C68.2595 8.01733 67.9468 8.344 67.7228 8.764C67.4988 9.184 67.3868 9.66467 67.3868 10.206V10.36C67.3868 10.92 67.5082 11.4147 67.7508 11.844C68.0028 12.264 68.3482 12.5953 68.7868 12.838C69.2348 13.0713 69.7435 13.188 70.3128 13.188C70.7608 13.188 71.1762 13.1087 71.5588 12.95C71.9508 12.7913 72.2868 12.5487 72.5668 12.222L73.1268 12.866C72.8002 13.258 72.3895 13.5567 71.8948 13.762C71.4095 13.9673 70.8728 14.07 70.2848 14.07ZM79.4861 14V4.2H80.5221V14H79.4861ZM83.7107 14V4.2H84.5647L89.0447 11.844H88.5967L93.0347 4.2H93.8887V14H92.8947V5.754H93.1327L89.0447 12.754H88.5547L84.4387 5.754H84.7047V14H83.7107ZM97.0818 14V4.2H98.1178V13.104H103.606V14H97.0818ZM111.692 14.084C110.964 14.084 110.264 13.9673 109.592 13.734C108.929 13.4913 108.416 13.1833 108.052 12.81L108.458 12.012C108.803 12.348 109.265 12.6327 109.844 12.866C110.432 13.09 111.048 13.202 111.692 13.202C112.308 13.202 112.807 13.1273 113.19 12.978C113.582 12.8193 113.867 12.6093 114.044 12.348C114.231 12.0867 114.324 11.7973 114.324 11.48C114.324 11.0973 114.212 10.7893 113.988 10.556C113.773 10.3227 113.489 10.1407 113.134 10.01C112.779 9.87 112.387 9.74867 111.958 9.646C111.529 9.54333 111.099 9.436 110.67 9.324C110.241 9.20267 109.844 9.044 109.48 8.848C109.125 8.652 108.836 8.39533 108.612 8.078C108.397 7.75133 108.29 7.32667 108.29 6.804C108.29 6.31867 108.416 5.87533 108.668 5.474C108.929 5.06333 109.326 4.73667 109.858 4.494C110.39 4.242 111.071 4.116 111.902 4.116C112.453 4.116 112.999 4.19533 113.54 4.354C114.081 4.50333 114.548 4.71333 114.94 4.984L114.59 5.81C114.17 5.53 113.722 5.32467 113.246 5.194C112.779 5.06333 112.327 4.998 111.888 4.998C111.3 4.998 110.815 5.07733 110.432 5.236C110.049 5.39467 109.765 5.60933 109.578 5.88C109.401 6.14133 109.312 6.44 109.312 6.776C109.312 7.15867 109.419 7.46667 109.634 7.7C109.858 7.93333 110.147 8.11533 110.502 8.246C110.866 8.37667 111.263 8.49333 111.692 8.596C112.121 8.69867 112.546 8.81067 112.966 8.932C113.395 9.05333 113.787 9.212 114.142 9.408C114.506 9.59467 114.795 9.84667 115.01 10.164C115.234 10.4813 115.346 10.8967 115.346 11.41C115.346 11.886 115.215 12.3293 114.954 12.74C114.693 13.1413 114.291 13.468 113.75 13.72C113.218 13.9627 112.532 14.084 111.692 14.084ZM118.755 14L115.983 6.65H116.935L119.455 13.468H119.021L121.611 6.65H122.465L125.027 13.468H124.593L127.155 6.65H128.065L125.279 14H124.341L121.877 7.588H122.171L119.693 14H118.755ZM132.478 14.07C131.713 14.07 131.041 13.9113 130.462 13.594C129.884 13.2673 129.431 12.824 129.104 12.264C128.778 11.6947 128.614 11.046 128.614 10.318C128.614 9.59 128.768 8.946 129.076 8.386C129.394 7.826 129.823 7.38733 130.364 7.07C130.915 6.74333 131.531 6.58 132.212 6.58C132.903 6.58 133.514 6.73867 134.046 7.056C134.588 7.364 135.012 7.80267 135.32 8.372C135.628 8.932 135.782 9.58067 135.782 10.318C135.782 10.3647 135.778 10.416 135.768 10.472C135.768 10.5187 135.768 10.57 135.768 10.626H129.37V9.884H135.236L134.844 10.178C134.844 9.646 134.728 9.17467 134.494 8.764C134.27 8.344 133.962 8.01733 133.57 7.784C133.178 7.55067 132.726 7.434 132.212 7.434C131.708 7.434 131.256 7.55067 130.854 7.784C130.453 8.01733 130.14 8.344 129.916 8.764C129.692 9.184 129.58 9.66467 129.58 10.206V10.36C129.58 10.92 129.702 11.4147 129.944 11.844C130.196 12.264 130.542 12.5953 130.98 12.838C131.428 13.0713 131.937 13.188 132.506 13.188C132.954 13.188 133.37 13.1087 133.752 12.95C134.144 12.7913 134.48 12.5487 134.76 12.222L135.32 12.866C134.994 13.258 134.583 13.5567 134.088 13.762C133.603 13.9673 133.066 14.07 132.478 14.07ZM140.927 14.07C140.162 14.07 139.49 13.9113 138.911 13.594C138.333 13.2673 137.88 12.824 137.553 12.264C137.227 11.6947 137.063 11.046 137.063 10.318C137.063 9.59 137.217 8.946 137.525 8.386C137.843 7.826 138.272 7.38733 138.813 7.07C139.364 6.74333 139.98 6.58 140.661 6.58C141.352 6.58 141.963 6.73867 142.495 7.056C143.037 7.364 143.461 7.80267 143.769 8.372C144.077 8.932 144.231 9.58067 144.231 10.318C144.231 10.3647 144.227 10.416 144.217 10.472C144.217 10.5187 144.217 10.57 144.217 10.626H137.819V9.884H143.685L143.293 10.178C143.293 9.646 143.177 9.17467 142.943 8.764C142.719 8.344 142.411 8.01733 142.019 7.784C141.627 7.55067 141.175 7.434 140.661 7.434C140.157 7.434 139.705 7.55067 139.303 7.784C138.902 8.01733 138.589 8.344 138.365 8.764C138.141 9.184 138.029 9.66467 138.029 10.206V10.36C138.029 10.92 138.151 11.4147 138.393 11.844C138.645 12.264 138.991 12.5953 139.429 12.838C139.877 13.0713 140.386 13.188 140.955 13.188C141.403 13.188 141.819 13.1087 142.201 12.95C142.593 12.7913 142.929 12.5487 143.209 12.222L143.769 12.866C143.443 13.258 143.032 13.5567 142.537 13.762C142.052 13.9673 141.515 14.07 140.927 14.07ZM148.579 14.07C147.888 14.07 147.356 13.8833 146.983 13.51C146.609 13.1367 146.423 12.6093 146.423 11.928V5.026H147.417V11.872C147.417 12.3013 147.524 12.6327 147.739 12.866C147.963 13.0993 148.28 13.216 148.691 13.216C149.129 13.216 149.493 13.09 149.783 12.838L150.133 13.552C149.937 13.7293 149.699 13.86 149.419 13.944C149.148 14.028 148.868 14.07 148.579 14.07ZM145.107 7.476V6.65H149.657V7.476H145.107ZM159.4 14.07C158.756 14.07 158.178 13.9253 157.664 13.636C157.151 13.3373 156.745 12.908 156.446 12.348C156.148 11.788 155.998 11.1113 155.998 10.318C155.998 9.51533 156.148 8.83867 156.446 8.288C156.754 7.728 157.165 7.30333 157.678 7.014C158.192 6.72467 158.766 6.58 159.4 6.58C160.1 6.58 160.726 6.73867 161.276 7.056C161.836 7.364 162.275 7.798 162.592 8.358C162.91 8.918 163.068 9.57133 163.068 10.318C163.068 11.0553 162.91 11.7087 162.592 12.278C162.275 12.838 161.836 13.2767 161.276 13.594C160.726 13.9113 160.1 14.07 159.4 14.07ZM155.606 14V3.612H156.6V8.82L156.46 10.304L156.558 11.788V14H155.606ZM159.33 13.188C159.853 13.188 160.32 13.0713 160.73 12.838C161.141 12.5953 161.468 12.2593 161.71 11.83C161.953 11.3913 162.074 10.8873 162.074 10.318C162.074 9.73933 161.953 9.23533 161.71 8.806C161.468 8.37667 161.141 8.04533 160.73 7.812C160.32 7.56933 159.853 7.448 159.33 7.448C158.808 7.448 158.336 7.56933 157.916 7.812C157.506 8.04533 157.179 8.37667 156.936 8.806C156.703 9.23533 156.586 9.73933 156.586 10.318C156.586 10.8873 156.703 11.3913 156.936 11.83C157.179 12.2593 157.506 12.5953 157.916 12.838C158.336 13.0713 158.808 13.188 159.33 13.188ZM168.09 14.07C167.381 14.07 166.742 13.9113 166.172 13.594C165.612 13.2673 165.169 12.824 164.842 12.264C164.516 11.6947 164.352 11.046 164.352 10.318C164.352 9.58067 164.516 8.932 164.842 8.372C165.169 7.812 165.612 7.37333 166.172 7.056C166.732 6.73867 167.372 6.58 168.09 6.58C168.818 6.58 169.462 6.73867 170.022 7.056C170.592 7.37333 171.035 7.812 171.352 8.372C171.679 8.932 171.842 9.58067 171.842 10.318C171.842 11.046 171.679 11.6947 171.352 12.264C171.035 12.824 170.592 13.2673 170.022 13.594C169.453 13.9113 168.809 14.07 168.09 14.07ZM168.09 13.188C168.622 13.188 169.094 13.0713 169.504 12.838C169.915 12.5953 170.237 12.2593 170.47 11.83C170.713 11.3913 170.834 10.8873 170.834 10.318C170.834 9.73933 170.713 9.23533 170.47 8.806C170.237 8.37667 169.915 8.04533 169.504 7.812C169.094 7.56933 168.627 7.448 168.104 7.448C167.582 7.448 167.115 7.56933 166.704 7.812C166.294 8.04533 165.967 8.37667 165.724 8.806C165.482 9.23533 165.36 9.73933 165.36 10.318C165.36 10.8873 165.482 11.3913 165.724 11.83C165.967 12.2593 166.294 12.5953 166.704 12.838C167.115 13.0713 167.577 13.188 168.09 13.188ZM172.492 14L175.6 9.968L175.586 10.458L172.632 6.65H173.752L176.174 9.8L175.754 9.786L178.176 6.65H179.268L176.286 10.5L176.3 9.968L179.436 14H178.302L175.74 10.64L176.132 10.696L173.612 14H172.492ZM188.549 14.07C187.914 14.07 187.34 13.9253 186.827 13.636C186.313 13.3373 185.903 12.9127 185.595 12.362C185.296 11.802 185.147 11.1207 185.147 10.318C185.147 9.51533 185.296 8.83867 185.595 8.288C185.893 7.728 186.299 7.30333 186.813 7.014C187.326 6.72467 187.905 6.58 188.549 6.58C189.249 6.58 189.874 6.73867 190.425 7.056C190.985 7.364 191.423 7.80267 191.741 8.372C192.058 8.932 192.217 9.58067 192.217 10.318C192.217 11.0647 192.058 11.718 191.741 12.278C191.423 12.838 190.985 13.2767 190.425 13.594C189.874 13.9113 189.249 14.07 188.549 14.07ZM184.755 16.716V6.65H185.707V8.862L185.609 10.332L185.749 11.816V16.716H184.755ZM188.479 13.188C189.001 13.188 189.468 13.0713 189.879 12.838C190.289 12.5953 190.616 12.2593 190.859 11.83C191.101 11.3913 191.223 10.8873 191.223 10.318C191.223 9.74867 191.101 9.24933 190.859 8.82C190.616 8.39067 190.289 8.05467 189.879 7.812C189.468 7.56933 189.001 7.448 188.479 7.448C187.956 7.448 187.485 7.56933 187.065 7.812C186.654 8.05467 186.327 8.39067 186.085 8.82C185.851 9.24933 185.735 9.74867 185.735 10.318C185.735 10.8873 185.851 11.3913 186.085 11.83C186.327 12.2593 186.654 12.5953 187.065 12.838C187.485 13.0713 187.956 13.188 188.479 13.188ZM197.365 14.07C196.6 14.07 195.928 13.9113 195.349 13.594C194.77 13.2673 194.318 12.824 193.991 12.264C193.664 11.6947 193.501 11.046 193.501 10.318C193.501 9.59 193.655 8.946 193.963 8.386C194.28 7.826 194.71 7.38733 195.251 7.07C195.802 6.74333 196.418 6.58 197.099 6.58C197.79 6.58 198.401 6.73867 198.933 7.056C199.474 7.364 199.899 7.80267 200.207 8.372C200.515 8.932 200.669 9.58067 200.669 10.318C200.669 10.3647 200.664 10.416 200.655 10.472C200.655 10.5187 200.655 10.57 200.655 10.626H194.257V9.884H200.123L199.731 10.178C199.731 9.646 199.614 9.17467 199.381 8.764C199.157 8.344 198.849 8.01733 198.457 7.784C198.065 7.55067 197.612 7.434 197.099 7.434C196.595 7.434 196.142 7.55067 195.741 7.784C195.34 8.01733 195.027 8.344 194.803 8.764C194.579 9.184 194.467 9.66467 194.467 10.206V10.36C194.467 10.92 194.588 11.4147 194.831 11.844C195.083 12.264 195.428 12.5953 195.867 12.838C196.315 13.0713 196.824 13.188 197.393 13.188C197.841 13.188 198.256 13.1087 198.639 12.95C199.031 12.7913 199.367 12.5487 199.647 12.222L200.207 12.866C199.88 13.258 199.47 13.5567 198.975 13.762C198.49 13.9673 197.953 14.07 197.365 14.07ZM202.692 14V6.65H203.644V8.652L203.546 8.302C203.751 7.742 204.097 7.31733 204.582 7.028C205.067 6.72933 205.669 6.58 206.388 6.58V7.546C206.351 7.546 206.313 7.546 206.276 7.546C206.239 7.53667 206.201 7.532 206.164 7.532C205.389 7.532 204.783 7.77 204.344 8.246C203.905 8.71267 203.686 9.38 203.686 10.248V14H202.692ZM208.479 14V5.726C208.479 5.07267 208.671 4.54533 209.053 4.144C209.436 3.74267 209.987 3.542 210.705 3.542C210.985 3.542 211.256 3.57933 211.517 3.654C211.779 3.72867 211.998 3.84533 212.175 4.004L211.839 4.746C211.699 4.62467 211.536 4.536 211.349 4.48C211.163 4.41467 210.962 4.382 210.747 4.382C210.327 4.382 210.005 4.49867 209.781 4.732C209.557 4.96533 209.445 5.31067 209.445 5.768V6.888L209.473 7.35V14H208.479ZM207.163 7.476V6.65H211.713V7.476H207.163ZM216.054 14.07C215.289 14.07 214.617 13.9113 214.038 13.594C213.46 13.2673 213.007 12.824 212.68 12.264C212.354 11.6947 212.19 11.046 212.19 10.318C212.19 9.59 212.344 8.946 212.652 8.386C212.97 7.826 213.399 7.38733 213.94 7.07C214.491 6.74333 215.107 6.58 215.788 6.58C216.479 6.58 217.09 6.73867 217.622 7.056C218.164 7.364 218.588 7.80267 218.896 8.372C219.204 8.932 219.358 9.58067 219.358 10.318C219.358 10.3647 219.354 10.416 219.344 10.472C219.344 10.5187 219.344 10.57 219.344 10.626H212.946V9.884H218.812L218.42 10.178C218.42 9.646 218.304 9.17467 218.07 8.764C217.846 8.344 217.538 8.01733 217.146 7.784C216.754 7.55067 216.302 7.434 215.788 7.434C215.284 7.434 214.832 7.55067 214.43 7.784C214.029 8.01733 213.716 8.344 213.492 8.764C213.268 9.184 213.156 9.66467 213.156 10.206V10.36C213.156 10.92 213.278 11.4147 213.52 11.844C213.772 12.264 214.118 12.5953 214.556 12.838C215.004 13.0713 215.513 13.188 216.082 13.188C216.53 13.188 216.946 13.1087 217.328 12.95C217.72 12.7913 218.056 12.5487 218.336 12.222L218.896 12.866C218.57 13.258 218.159 13.5567 217.664 13.762C217.179 13.9673 216.642 14.07 216.054 14.07ZM224.434 14.07C223.706 14.07 223.052 13.9113 222.474 13.594C221.904 13.2673 221.456 12.824 221.13 12.264C220.803 11.6947 220.64 11.046 220.64 10.318C220.64 9.58067 220.803 8.932 221.13 8.372C221.456 7.812 221.904 7.37333 222.474 7.056C223.052 6.73867 223.706 6.58 224.434 6.58C225.059 6.58 225.624 6.70133 226.128 6.944C226.632 7.18667 227.028 7.55067 227.318 8.036L226.576 8.54C226.324 8.16667 226.011 7.89133 225.638 7.714C225.264 7.53667 224.858 7.448 224.42 7.448C223.897 7.448 223.426 7.56933 223.006 7.812C222.586 8.04533 222.254 8.37667 222.012 8.806C221.769 9.23533 221.648 9.73933 221.648 10.318C221.648 10.8967 221.769 11.4007 222.012 11.83C222.254 12.2593 222.586 12.5953 223.006 12.838C223.426 13.0713 223.897 13.188 224.42 13.188C224.858 13.188 225.264 13.0993 225.638 12.922C226.011 12.7447 226.324 12.474 226.576 12.11L227.318 12.614C227.028 13.09 226.632 13.454 226.128 13.706C225.624 13.9487 225.059 14.07 224.434 14.07ZM231.676 14.07C230.986 14.07 230.454 13.8833 230.08 13.51C229.707 13.1367 229.52 12.6093 229.52 11.928V5.026H230.514V11.872C230.514 12.3013 230.622 12.6327 230.836 12.866C231.06 13.0993 231.378 13.216 231.788 13.216C232.227 13.216 232.591 13.09 232.88 12.838L233.23 13.552C233.034 13.7293 232.796 13.86 232.516 13.944C232.246 14.028 231.966 14.07 231.676 14.07ZM228.204 7.476V6.65H232.754V7.476H228.204ZM238.872 14V5.726C238.872 5.07267 239.063 4.54533 239.446 4.144C239.829 3.74267 240.379 3.542 241.098 3.542C241.378 3.542 241.649 3.57933 241.91 3.654C242.171 3.72867 242.391 3.84533 242.568 4.004L242.232 4.746C242.092 4.62467 241.929 4.536 241.742 4.48C241.555 4.41467 241.355 4.382 241.14 4.382C240.72 4.382 240.398 4.49867 240.174 4.732C239.95 4.96533 239.838 5.31067 239.838 5.768V6.888L239.866 7.35V14H238.872ZM237.556 7.476V6.65H242.106V7.476H237.556ZM246.321 14.07C245.612 14.07 244.972 13.9113 244.403 13.594C243.843 13.2673 243.4 12.824 243.073 12.264C242.746 11.6947 242.583 11.046 242.583 10.318C242.583 9.58067 242.746 8.932 243.073 8.372C243.4 7.812 243.843 7.37333 244.403 7.056C244.963 6.73867 245.602 6.58 246.321 6.58C247.049 6.58 247.693 6.73867 248.253 7.056C248.822 7.37333 249.266 7.812 249.583 8.372C249.91 8.932 250.073 9.58067 250.073 10.318C250.073 11.046 249.91 11.6947 249.583 12.264C249.266 12.824 248.822 13.2673 248.253 13.594C247.684 13.9113 247.04 14.07 246.321 14.07ZM246.321 13.188C246.853 13.188 247.324 13.0713 247.735 12.838C248.146 12.5953 248.468 12.2593 248.701 11.83C248.944 11.3913 249.065 10.8873 249.065 10.318C249.065 9.73933 248.944 9.23533 248.701 8.806C248.468 8.37667 248.146 8.04533 247.735 7.812C247.324 7.56933 246.858 7.448 246.335 7.448C245.812 7.448 245.346 7.56933 244.935 7.812C244.524 8.04533 244.198 8.37667 243.955 8.806C243.712 9.23533 243.591 9.73933 243.591 10.318C243.591 10.8873 243.712 11.3913 243.955 11.83C244.198 12.2593 244.524 12.5953 244.935 12.838C245.346 13.0713 245.808 13.188 246.321 13.188ZM252.102 14V6.65H253.054V8.652L252.956 8.302C253.162 7.742 253.507 7.31733 253.992 7.028C254.478 6.72933 255.08 6.58 255.798 6.58V7.546C255.761 7.546 255.724 7.546 255.686 7.546C255.649 7.53667 255.612 7.532 255.574 7.532C254.8 7.532 254.193 7.77 253.754 8.246C253.316 8.71267 253.096 9.38 253.096 10.248V14H252.102ZM261.47 14V5.922C261.47 5.194 261.68 4.61533 262.1 4.186C262.529 3.74733 263.136 3.528 263.92 3.528C264.209 3.528 264.484 3.56533 264.746 3.64C265.016 3.70533 265.245 3.81267 265.432 3.962L265.026 4.984C264.886 4.872 264.727 4.788 264.55 4.732C264.372 4.66667 264.186 4.634 263.99 4.634C263.598 4.634 263.299 4.746 263.094 4.97C262.888 5.18467 262.786 5.50667 262.786 5.936V6.93L262.814 7.546V14H261.47ZM260.21 7.686V6.58H264.942V7.686H260.21ZM270.678 14V12.432L270.608 12.138V9.464C270.608 8.89467 270.44 8.456 270.104 8.148C269.778 7.83067 269.283 7.672 268.62 7.672C268.182 7.672 267.752 7.74667 267.332 7.896C266.912 8.036 266.558 8.22733 266.268 8.47L265.708 7.462C266.091 7.154 266.548 6.92067 267.08 6.762C267.622 6.594 268.186 6.51 268.774 6.51C269.792 6.51 270.576 6.75733 271.126 7.252C271.677 7.74667 271.952 8.50267 271.952 9.52V14H270.678ZM268.242 14.084C267.692 14.084 267.206 13.9907 266.786 13.804C266.376 13.6173 266.058 13.3607 265.834 13.034C265.61 12.698 265.498 12.32 265.498 11.9C265.498 11.4987 265.592 11.1347 265.778 10.808C265.974 10.4813 266.287 10.22 266.716 10.024C267.155 9.828 267.743 9.73 268.48 9.73H270.832V10.696H268.536C267.864 10.696 267.412 10.808 267.178 11.032C266.945 11.256 266.828 11.5267 266.828 11.844C266.828 12.208 266.973 12.502 267.262 12.726C267.552 12.9407 267.953 13.048 268.466 13.048C268.97 13.048 269.409 12.936 269.782 12.712C270.165 12.488 270.44 12.1613 270.608 11.732L270.874 12.656C270.697 13.0947 270.384 13.4447 269.936 13.706C269.488 13.958 268.924 14.084 268.242 14.084ZM283.722 6.51C284.319 6.51 284.846 6.62667 285.304 6.86C285.761 7.09333 286.116 7.448 286.368 7.924C286.629 8.4 286.76 9.002 286.76 9.73V14H285.416V9.884C285.416 9.16533 285.248 8.624 284.912 8.26C284.576 7.896 284.104 7.714 283.498 7.714C283.05 7.714 282.658 7.80733 282.322 7.994C281.986 8.18067 281.724 8.456 281.538 8.82C281.36 9.184 281.272 9.63667 281.272 10.178V14H279.928V9.884C279.928 9.16533 279.76 8.624 279.424 8.26C279.097 7.896 278.626 7.714 278.01 7.714C277.571 7.714 277.184 7.80733 276.848 7.994C276.512 8.18067 276.25 8.456 276.064 8.82C275.877 9.184 275.784 9.63667 275.784 10.178V14H274.44V6.58H275.728V8.554L275.518 8.05C275.751 7.56467 276.11 7.18667 276.596 6.916C277.081 6.64533 277.646 6.51 278.29 6.51C278.999 6.51 279.61 6.68733 280.124 7.042C280.637 7.38733 280.973 7.91467 281.132 8.624L280.586 8.4C280.81 7.83067 281.202 7.37333 281.762 7.028C282.322 6.68267 282.975 6.51 283.722 6.51ZM289.232 14V6.58H290.576V14H289.232ZM289.904 5.152C289.643 5.152 289.424 5.068 289.246 4.9C289.078 4.732 288.994 4.52667 288.994 4.284C288.994 4.032 289.078 3.822 289.246 3.654C289.424 3.486 289.643 3.402 289.904 3.402C290.166 3.402 290.38 3.486 290.548 3.654C290.726 3.81267 290.814 4.01333 290.814 4.256C290.814 4.508 290.73 4.72267 290.562 4.9C290.394 5.068 290.175 5.152 289.904 5.152ZM293.143 14V3.612H294.487V14H293.143ZM297.375 16.8C297.02 16.8 296.675 16.7393 296.339 16.618C296.003 16.506 295.713 16.338 295.471 16.114L296.045 15.106C296.231 15.2833 296.437 15.4187 296.661 15.512C296.885 15.6053 297.123 15.652 297.375 15.652C297.701 15.652 297.972 15.568 298.187 15.4C298.401 15.232 298.602 14.9333 298.789 14.504L299.251 13.482L299.391 13.314L302.303 6.58H303.619L300.021 14.742C299.806 15.2647 299.563 15.6753 299.293 15.974C299.031 16.2727 298.742 16.4827 298.425 16.604C298.107 16.7347 297.757 16.8 297.375 16.8ZM299.139 14.238L295.751 6.58H297.151L300.035 13.188L299.139 14.238ZM57.9214 33.084C57.3054 33.084 56.7407 32.944 56.2274 32.664C55.7234 32.3747 55.3174 31.95 55.0094 31.39C54.7107 30.83 54.5614 30.13 54.5614 29.29C54.5614 28.45 54.706 27.75 54.9954 27.19C55.294 26.63 55.6954 26.21 56.1994 25.93C56.7127 25.65 57.2867 25.51 57.9214 25.51C58.6494 25.51 59.2934 25.6687 59.8534 25.986C60.4134 26.3033 60.8567 26.7467 61.1834 27.316C61.51 27.876 61.6734 28.534 61.6734 29.29C61.6734 30.046 61.51 30.7087 61.1834 31.278C60.8567 31.8473 60.4134 32.2907 59.8534 32.608C59.2934 32.9253 58.6494 33.084 57.9214 33.084ZM53.9874 35.716V25.58H55.2754V27.582L55.1914 29.304L55.3314 31.026V35.716H53.9874ZM57.8094 31.908C58.2854 31.908 58.71 31.8007 59.0834 31.586C59.466 31.3713 59.7647 31.068 59.9794 30.676C60.2034 30.2747 60.3154 29.8127 60.3154 29.29C60.3154 28.758 60.2034 28.3007 59.9794 27.918C59.7647 27.526 59.466 27.2227 59.0834 27.008C58.71 26.7933 58.2854 26.686 57.8094 26.686C57.3427 26.686 56.918 26.7933 56.5354 27.008C56.162 27.2227 55.8634 27.526 55.6394 27.918C55.4247 28.3007 55.3174 28.758 55.3174 29.29C55.3174 29.8127 55.4247 30.2747 55.6394 30.676C55.8634 31.068 56.162 31.3713 56.5354 31.586C56.918 31.8007 57.3427 31.908 57.8094 31.908ZM66.7083 33.084C65.9617 33.084 65.299 32.9207 64.7203 32.594C64.1417 32.2673 63.6843 31.8193 63.3483 31.25C63.0123 30.6713 62.8443 30.018 62.8443 29.29C62.8443 28.5527 63.0123 27.8993 63.3483 27.33C63.6843 26.7607 64.1417 26.3173 64.7203 26C65.299 25.6733 65.9617 25.51 66.7083 25.51C67.4457 25.51 68.1037 25.6733 68.6823 26C69.2703 26.3173 69.7277 26.7607 70.0543 27.33C70.3903 27.89 70.5583 28.5433 70.5583 29.29C70.5583 30.0273 70.3903 30.6807 70.0543 31.25C69.7277 31.8193 69.2703 32.2673 68.6823 32.594C68.1037 32.9207 67.4457 33.084 66.7083 33.084ZM66.7083 31.908C67.1843 31.908 67.609 31.8007 67.9823 31.586C68.365 31.3713 68.6637 31.068 68.8783 30.676C69.093 30.2747 69.2003 29.8127 69.2003 29.29C69.2003 28.758 69.093 28.3007 68.8783 27.918C68.6637 27.526 68.365 27.2227 67.9823 27.008C67.609 26.7933 67.1843 26.686 66.7083 26.686C66.2323 26.686 65.8077 26.7933 65.4343 27.008C65.061 27.2227 64.7623 27.526 64.5383 27.918C64.3143 28.3007 64.2023 28.758 64.2023 29.29C64.2023 29.8127 64.3143 30.2747 64.5383 30.676C64.7623 31.068 65.061 31.3713 65.4343 31.586C65.8077 31.8007 66.2323 31.908 66.7083 31.908ZM72.4171 33V25.58H73.7051V27.596L73.5791 27.092C73.7844 26.5787 74.1297 26.1867 74.6151 25.916C75.1004 25.6453 75.6977 25.51 76.4071 25.51V26.812C76.3511 26.8027 76.2951 26.798 76.2391 26.798C76.1924 26.798 76.1457 26.798 76.0991 26.798C75.3804 26.798 74.8111 27.0127 74.3911 27.442C73.9711 27.8713 73.7611 28.492 73.7611 29.304V33H72.4171ZM80.9123 33.084C80.1657 33.084 79.587 32.8833 79.1763 32.482C78.7657 32.0807 78.5603 31.5067 78.5603 30.76V23.956H79.9043V30.704C79.9043 31.1053 80.0023 31.4133 80.1983 31.628C80.4037 31.8427 80.693 31.95 81.0663 31.95C81.4863 31.95 81.8363 31.8333 82.1163 31.6L82.5363 32.566C82.331 32.7433 82.0837 32.874 81.7943 32.958C81.5143 33.042 81.2203 33.084 80.9123 33.084ZM77.3003 26.686V25.58H82.0323V26.686H77.3003ZM84.1612 33V25.58H85.5052V33H84.1612ZM84.8332 24.152C84.5719 24.152 84.3525 24.068 84.1752 23.9C84.0072 23.732 83.9232 23.5267 83.9232 23.284C83.9232 23.032 84.0072 22.822 84.1752 22.654C84.3525 22.486 84.5719 22.402 84.8332 22.402C85.0945 22.402 85.3092 22.486 85.4772 22.654C85.6545 22.8127 85.7432 23.0133 85.7432 23.256C85.7432 23.508 85.6592 23.7227 85.4912 23.9C85.3232 24.068 85.1039 24.152 84.8332 24.152ZM91.2493 33.084C90.5027 33.084 89.84 32.9207 89.2613 32.594C88.6827 32.2673 88.2253 31.8193 87.8893 31.25C87.5533 30.6713 87.3853 30.018 87.3853 29.29C87.3853 28.5527 87.5533 27.8993 87.8893 27.33C88.2253 26.7607 88.6827 26.3173 89.2613 26C89.84 25.6733 90.5027 25.51 91.2493 25.51C91.9867 25.51 92.6447 25.6733 93.2233 26C93.8113 26.3173 94.2687 26.7607 94.5953 27.33C94.9313 27.89 95.0993 28.5433 95.0993 29.29C95.0993 30.0273 94.9313 30.6807 94.5953 31.25C94.2687 31.8193 93.8113 32.2673 93.2233 32.594C92.6447 32.9207 91.9867 33.084 91.2493 33.084ZM91.2493 31.908C91.7253 31.908 92.15 31.8007 92.5233 31.586C92.906 31.3713 93.2047 31.068 93.4193 30.676C93.634 30.2747 93.7413 29.8127 93.7413 29.29C93.7413 28.758 93.634 28.3007 93.4193 27.918C93.2047 27.526 92.906 27.2227 92.5233 27.008C92.15 26.7933 91.7253 26.686 91.2493 26.686C90.7733 26.686 90.3487 26.7933 89.9753 27.008C89.602 27.2227 89.3033 27.526 89.0793 27.918C88.8553 28.3007 88.7433 28.758 88.7433 29.29C88.7433 29.8127 88.8553 30.2747 89.0793 30.676C89.3033 31.068 89.602 31.3713 89.9753 31.586C90.3487 31.8007 90.7733 31.908 91.2493 31.908ZM100.92 25.51C101.527 25.51 102.059 25.6267 102.516 25.86C102.983 26.0933 103.347 26.448 103.608 26.924C103.869 27.4 104 28.002 104 28.73V33H102.656V28.884C102.656 28.1653 102.479 27.624 102.124 27.26C101.779 26.896 101.289 26.714 100.654 26.714C100.178 26.714 99.7627 26.8073 99.4081 26.994C99.0534 27.1807 98.7781 27.456 98.5821 27.82C98.3954 28.184 98.3021 28.6367 98.3021 29.178V33H96.9581V25.58H98.2461V27.582L98.0361 27.05C98.2787 26.5647 98.6521 26.1867 99.1561 25.916C99.6601 25.6453 100.248 25.51 100.92 25.51ZM108.615 33.084C107.999 33.084 107.411 33 106.851 32.832C106.301 32.664 105.867 32.4587 105.549 32.216L106.109 31.152C106.427 31.3667 106.819 31.5487 107.285 31.698C107.752 31.8473 108.228 31.922 108.713 31.922C109.339 31.922 109.787 31.8333 110.057 31.656C110.337 31.4787 110.477 31.2313 110.477 30.914C110.477 30.6807 110.393 30.4987 110.225 30.368C110.057 30.2373 109.833 30.1393 109.553 30.074C109.283 30.0087 108.979 29.9527 108.643 29.906C108.307 29.85 107.971 29.7847 107.635 29.71C107.299 29.626 106.991 29.514 106.711 29.374C106.431 29.2247 106.207 29.024 106.039 28.772C105.871 28.5107 105.787 28.1653 105.787 27.736C105.787 27.288 105.913 26.896 106.165 26.56C106.417 26.224 106.772 25.9673 107.229 25.79C107.696 25.6033 108.247 25.51 108.881 25.51C109.367 25.51 109.857 25.5707 110.351 25.692C110.855 25.804 111.266 25.9673 111.583 26.182L111.009 27.246C110.673 27.022 110.323 26.868 109.959 26.784C109.595 26.7 109.231 26.658 108.867 26.658C108.279 26.658 107.841 26.756 107.551 26.952C107.262 27.1387 107.117 27.3813 107.117 27.68C107.117 27.932 107.201 28.128 107.369 28.268C107.547 28.3987 107.771 28.5013 108.041 28.576C108.321 28.6507 108.629 28.716 108.965 28.772C109.301 28.8187 109.637 28.884 109.973 28.968C110.309 29.0427 110.613 29.15 110.883 29.29C111.163 29.43 111.387 29.626 111.555 29.878C111.733 30.13 111.821 30.466 111.821 30.886C111.821 31.334 111.691 31.7213 111.429 32.048C111.168 32.3747 110.799 32.6313 110.323 32.818C109.847 32.9953 109.278 33.084 108.615 33.084ZM121.867 33V31.432L121.797 31.138V28.464C121.797 27.8947 121.629 27.456 121.293 27.148C120.966 26.8307 120.471 26.672 119.809 26.672C119.37 26.672 118.941 26.7467 118.521 26.896C118.101 27.036 117.746 27.2273 117.457 27.47L116.897 26.462C117.279 26.154 117.737 25.9207 118.269 25.762C118.81 25.594 119.375 25.51 119.963 25.51C120.98 25.51 121.764 25.7573 122.315 26.252C122.865 26.7467 123.141 27.5027 123.141 28.52V33H121.867ZM119.431 33.084C118.88 33.084 118.395 32.9907 117.975 32.804C117.564 32.6173 117.247 32.3607 117.023 32.034C116.799 31.698 116.687 31.32 116.687 30.9C116.687 30.4987 116.78 30.1347 116.967 29.808C117.163 29.4813 117.475 29.22 117.905 29.024C118.343 28.828 118.931 28.73 119.669 28.73H122.021V29.696H119.725C119.053 29.696 118.6 29.808 118.367 30.032C118.133 30.256 118.017 30.5267 118.017 30.844C118.017 31.208 118.161 31.502 118.451 31.726C118.74 31.9407 119.141 32.048 119.655 32.048C120.159 32.048 120.597 31.936 120.971 31.712C121.353 31.488 121.629 31.1613 121.797 30.732L122.063 31.656C121.885 32.0947 121.573 32.4447 121.125 32.706C120.677 32.958 120.112 33.084 119.431 33.084ZM129.59 25.51C130.197 25.51 130.729 25.6267 131.186 25.86C131.653 26.0933 132.017 26.448 132.278 26.924C132.539 27.4 132.67 28.002 132.67 28.73V33H131.326V28.884C131.326 28.1653 131.149 27.624 130.794 27.26C130.449 26.896 129.959 26.714 129.324 26.714C128.848 26.714 128.433 26.8073 128.078 26.994C127.723 27.1807 127.448 27.456 127.252 27.82C127.065 28.184 126.972 28.6367 126.972 29.178V33H125.628V25.58H126.916V27.582L126.706 27.05C126.949 26.5647 127.322 26.1867 127.826 25.916C128.33 25.6453 128.918 25.51 129.59 25.51ZM138.223 33.084C137.505 33.084 136.861 32.9253 136.291 32.608C135.731 32.2907 135.288 31.8473 134.961 31.278C134.635 30.7087 134.471 30.046 134.471 29.29C134.471 28.534 134.635 27.876 134.961 27.316C135.288 26.7467 135.731 26.3033 136.291 25.986C136.861 25.6687 137.505 25.51 138.223 25.51C138.849 25.51 139.413 25.65 139.917 25.93C140.421 26.21 140.823 26.63 141.121 27.19C141.429 27.75 141.583 28.45 141.583 29.29C141.583 30.13 141.434 30.83 141.135 31.39C140.846 31.95 140.449 32.3747 139.945 32.664C139.441 32.944 138.867 33.084 138.223 33.084ZM138.335 31.908C138.802 31.908 139.222 31.8007 139.595 31.586C139.978 31.3713 140.277 31.068 140.491 30.676C140.715 30.2747 140.827 29.8127 140.827 29.29C140.827 28.758 140.715 28.3007 140.491 27.918C140.277 27.526 139.978 27.2227 139.595 27.008C139.222 26.7933 138.802 26.686 138.335 26.686C137.859 26.686 137.435 26.7933 137.061 27.008C136.688 27.2227 136.389 27.526 136.165 27.918C135.941 28.3007 135.829 28.758 135.829 29.29C135.829 29.8127 135.941 30.2747 136.165 30.676C136.389 31.068 136.688 31.3713 137.061 31.586C137.435 31.8007 137.859 31.908 138.335 31.908ZM140.869 33V30.998L140.953 29.276L140.813 27.554V22.612H142.157V33H140.869ZM151.764 33.084C150.971 33.084 150.271 32.9207 149.664 32.594C149.067 32.2673 148.6 31.8193 148.264 31.25C147.937 30.6807 147.774 30.0273 147.774 29.29C147.774 28.5527 147.933 27.8993 148.25 27.33C148.577 26.7607 149.02 26.3173 149.58 26C150.149 25.6733 150.789 25.51 151.498 25.51C152.217 25.51 152.851 25.6687 153.402 25.986C153.953 26.3033 154.382 26.7513 154.69 27.33C155.007 27.8993 155.166 28.5667 155.166 29.332C155.166 29.388 155.161 29.4533 155.152 29.528C155.152 29.6027 155.147 29.6727 155.138 29.738H148.824V28.772H154.438L153.892 29.108C153.901 28.632 153.803 28.2073 153.598 27.834C153.393 27.4607 153.108 27.1713 152.744 26.966C152.389 26.7513 151.974 26.644 151.498 26.644C151.031 26.644 150.616 26.7513 150.252 26.966C149.888 27.1713 149.603 27.4653 149.398 27.848C149.193 28.2213 149.09 28.6507 149.09 29.136V29.36C149.09 29.8547 149.202 30.298 149.426 30.69C149.659 31.0727 149.981 31.3713 150.392 31.586C150.803 31.8007 151.274 31.908 151.806 31.908C152.245 31.908 152.641 31.8333 152.996 31.684C153.36 31.5347 153.677 31.3107 153.948 31.012L154.69 31.88C154.354 32.272 153.934 32.5707 153.43 32.776C152.935 32.9813 152.38 33.084 151.764 33.084ZM158.842 33L155.594 25.58H156.994L159.878 32.3H159.206L162.146 25.58H163.462L160.214 33H158.842ZM167.815 33.084C167.021 33.084 166.321 32.9207 165.715 32.594C165.117 32.2673 164.651 31.8193 164.315 31.25C163.988 30.6807 163.825 30.0273 163.825 29.29C163.825 28.5527 163.983 27.8993 164.301 27.33C164.627 26.7607 165.071 26.3173 165.631 26C166.2 25.6733 166.839 25.51 167.549 25.51C168.267 25.51 168.902 25.6687 169.453 25.986C170.003 26.3033 170.433 26.7513 170.741 27.33C171.058 27.8993 171.217 28.5667 171.217 29.332C171.217 29.388 171.212 29.4533 171.203 29.528C171.203 29.6027 171.198 29.6727 171.189 29.738H164.875V28.772H170.489L169.943 29.108C169.952 28.632 169.854 28.2073 169.649 27.834C169.443 27.4607 169.159 27.1713 168.795 26.966C168.44 26.7513 168.025 26.644 167.549 26.644C167.082 26.644 166.667 26.7513 166.303 26.966C165.939 27.1713 165.654 27.4653 165.449 27.848C165.243 28.2213 165.141 28.6507 165.141 29.136V29.36C165.141 29.8547 165.253 30.298 165.477 30.69C165.71 31.0727 166.032 31.3713 166.443 31.586C166.853 31.8007 167.325 31.908 167.857 31.908C168.295 31.908 168.692 31.8333 169.047 31.684C169.411 31.5347 169.728 31.3107 169.999 31.012L170.741 31.88C170.405 32.272 169.985 32.5707 169.481 32.776C168.986 32.9813 168.431 33.084 167.815 33.084ZM173.083 33V25.58H174.371V27.596L174.245 27.092C174.45 26.5787 174.796 26.1867 175.281 25.916C175.766 25.6453 176.364 25.51 177.073 25.51V26.812C177.017 26.8027 176.961 26.798 176.905 26.798C176.858 26.798 176.812 26.798 176.765 26.798C176.046 26.798 175.477 27.0127 175.057 27.442C174.637 27.8713 174.427 28.492 174.427 29.304V33H173.083ZM179.352 35.8C178.998 35.8 178.652 35.7393 178.316 35.618C177.98 35.506 177.691 35.338 177.448 35.114L178.022 34.106C178.209 34.2833 178.414 34.4187 178.638 34.512C178.862 34.6053 179.1 34.652 179.352 34.652C179.679 34.652 179.95 34.568 180.164 34.4C180.379 34.232 180.58 33.9333 180.766 33.504L181.228 32.482L181.368 32.314L184.28 25.58H185.596L181.998 33.742C181.784 34.2647 181.541 34.6753 181.27 34.974C181.009 35.2727 180.72 35.4827 180.402 35.604C180.085 35.7347 179.735 35.8 179.352 35.8ZM181.116 33.238L177.728 25.58H179.128L182.012 32.188L181.116 33.238ZM189.712 33.084C188.993 33.084 188.349 32.9253 187.78 32.608C187.22 32.2907 186.776 31.8473 186.45 31.278C186.123 30.7087 185.96 30.046 185.96 29.29C185.96 28.534 186.123 27.876 186.45 27.316C186.776 26.7467 187.22 26.3033 187.78 25.986C188.349 25.6687 188.993 25.51 189.712 25.51C190.337 25.51 190.902 25.65 191.406 25.93C191.91 26.21 192.311 26.63 192.61 27.19C192.918 27.75 193.072 28.45 193.072 29.29C193.072 30.13 192.922 30.83 192.624 31.39C192.334 31.95 191.938 32.3747 191.434 32.664C190.93 32.944 190.356 33.084 189.712 33.084ZM189.824 31.908C190.29 31.908 190.71 31.8007 191.084 31.586C191.466 31.3713 191.765 31.068 191.98 30.676C192.204 30.2747 192.316 29.8127 192.316 29.29C192.316 28.758 192.204 28.3007 191.98 27.918C191.765 27.526 191.466 27.2227 191.084 27.008C190.71 26.7933 190.29 26.686 189.824 26.686C189.348 26.686 188.923 26.7933 188.55 27.008C188.176 27.2227 187.878 27.526 187.654 27.918C187.43 28.3007 187.318 28.758 187.318 29.29C187.318 29.8127 187.43 30.2747 187.654 30.676C187.878 31.068 188.176 31.3713 188.55 31.586C188.923 31.8007 189.348 31.908 189.824 31.908ZM192.358 33V30.998L192.442 29.276L192.302 27.554V22.612H193.646V33H192.358ZM200.795 33V31.432L200.725 31.138V28.464C200.725 27.8947 200.557 27.456 200.221 27.148C199.894 26.8307 199.399 26.672 198.737 26.672C198.298 26.672 197.869 26.7467 197.449 26.896C197.029 27.036 196.674 27.2273 196.385 27.47L195.825 26.462C196.207 26.154 196.665 25.9207 197.197 25.762C197.738 25.594 198.303 25.51 198.891 25.51C199.908 25.51 200.692 25.7573 201.243 26.252C201.793 26.7467 202.069 27.5027 202.069 28.52V33H200.795ZM198.359 33.084C197.808 33.084 197.323 32.9907 196.903 32.804C196.492 32.6173 196.175 32.3607 195.951 32.034C195.727 31.698 195.615 31.32 195.615 30.9C195.615 30.4987 195.708 30.1347 195.895 29.808C196.091 29.4813 196.403 29.22 196.833 29.024C197.271 28.828 197.859 28.73 198.597 28.73H200.949V29.696H198.653C197.981 29.696 197.528 29.808 197.295 30.032C197.061 30.256 196.945 30.5267 196.945 30.844C196.945 31.208 197.089 31.502 197.379 31.726C197.668 31.9407 198.069 32.048 198.583 32.048C199.087 32.048 199.525 31.936 199.899 31.712C200.281 31.488 200.557 31.1613 200.725 30.732L200.991 31.656C200.813 32.0947 200.501 32.4447 200.053 32.706C199.605 32.958 199.04 33.084 198.359 33.084ZM204.741 35.8C204.386 35.8 204.041 35.7393 203.705 35.618C203.369 35.506 203.08 35.338 202.837 35.114L203.411 34.106C203.598 34.2833 203.803 34.4187 204.027 34.512C204.251 34.6053 204.489 34.652 204.741 34.652C205.068 34.652 205.338 34.568 205.553 34.4C205.768 34.232 205.968 33.9333 206.155 33.504L206.617 32.482L206.757 32.314L209.669 25.58H210.985L207.387 33.742C207.172 34.2647 206.93 34.6753 206.659 34.974C206.398 35.2727 206.108 35.4827 205.791 35.604C205.474 35.7347 205.124 35.8 204.741 35.8ZM206.505 33.238L203.117 25.58H204.517L207.401 32.188L206.505 33.238ZM219.247 35.8C218.566 35.8 217.903 35.702 217.259 35.506C216.624 35.3193 216.106 35.0487 215.705 34.694L216.349 33.658C216.694 33.9567 217.119 34.19 217.623 34.358C218.127 34.5353 218.654 34.624 219.205 34.624C220.082 34.624 220.726 34.4187 221.137 34.008C221.548 33.5973 221.753 32.972 221.753 32.132V30.564L221.893 29.094L221.823 27.61V25.58H223.097V31.992C223.097 33.2987 222.77 34.26 222.117 34.876C221.464 35.492 220.507 35.8 219.247 35.8ZM219.079 32.692C218.36 32.692 217.716 32.5427 217.147 32.244C216.587 31.936 216.139 31.5113 215.803 30.97C215.476 30.4287 215.313 29.8033 215.313 29.094C215.313 28.3753 215.476 27.75 215.803 27.218C216.139 26.6767 216.587 26.2567 217.147 25.958C217.716 25.6593 218.36 25.51 219.079 25.51C219.714 25.51 220.292 25.6407 220.815 25.902C221.338 26.154 221.753 26.546 222.061 27.078C222.378 27.61 222.537 28.282 222.537 29.094C222.537 29.8967 222.378 30.564 222.061 31.096C221.753 31.628 221.338 32.0293 220.815 32.3C220.292 32.5613 219.714 32.692 219.079 32.692ZM219.233 31.516C219.728 31.516 220.166 31.4133 220.549 31.208C220.932 31.0027 221.23 30.718 221.445 30.354C221.669 29.99 221.781 29.57 221.781 29.094C221.781 28.618 221.669 28.198 221.445 27.834C221.23 27.47 220.932 27.19 220.549 26.994C220.166 26.7887 219.728 26.686 219.233 26.686C218.738 26.686 218.295 26.7887 217.903 26.994C217.52 27.19 217.217 27.47 216.993 27.834C216.778 28.198 216.671 28.618 216.671 29.094C216.671 29.57 216.778 29.99 216.993 30.354C217.217 30.718 217.52 31.0027 217.903 31.208C218.295 31.4133 218.738 31.516 219.233 31.516ZM225.665 33V25.58H227.009V33H225.665ZM226.337 24.152C226.076 24.152 225.856 24.068 225.679 23.9C225.511 23.732 225.427 23.5267 225.427 23.284C225.427 23.032 225.511 22.822 225.679 22.654C225.856 22.486 226.076 22.402 226.337 22.402C226.598 22.402 226.813 22.486 226.981 22.654C227.158 22.8127 227.247 23.0133 227.247 23.256C227.247 23.508 227.163 23.7227 226.995 23.9C226.827 24.068 226.608 24.152 226.337 24.152ZM229.771 33V24.922C229.771 24.194 229.981 23.6153 230.401 23.186C230.831 22.7473 231.437 22.528 232.221 22.528C232.511 22.528 232.786 22.5653 233.047 22.64C233.318 22.7053 233.547 22.8127 233.733 22.962L233.327 23.984C233.187 23.872 233.029 23.788 232.851 23.732C232.674 23.6667 232.487 23.634 232.291 23.634C231.899 23.634 231.601 23.746 231.395 23.97C231.19 24.1847 231.087 24.5067 231.087 24.936V25.93L231.115 26.546V33H229.771ZM228.511 26.686V25.58H233.243V26.686H228.511ZM237.059 33.084C236.312 33.084 235.733 32.8833 235.323 32.482C234.912 32.0807 234.707 31.5067 234.707 30.76V23.956H236.051V30.704C236.051 31.1053 236.149 31.4133 236.345 31.628C236.55 31.8427 236.839 31.95 237.213 31.95C237.633 31.95 237.983 31.8333 238.263 31.6L238.683 32.566C238.477 32.7433 238.23 32.874 237.941 32.958C237.661 33.042 237.367 33.084 237.059 33.084ZM233.447 26.686V25.58H238.179V26.686H233.447ZM240.308 33V25.58H241.652V33H240.308ZM240.98 24.152C240.718 24.152 240.499 24.068 240.322 23.9C240.154 23.732 240.07 23.5267 240.07 23.284C240.07 23.032 240.154 22.822 240.322 22.654C240.499 22.486 240.718 22.402 240.98 22.402C241.241 22.402 241.456 22.486 241.624 22.654C241.801 22.8127 241.89 23.0133 241.89 23.256C241.89 23.508 241.806 23.7227 241.638 23.9C241.47 24.068 241.25 24.152 240.98 24.152ZM248.18 25.51C248.786 25.51 249.318 25.6267 249.776 25.86C250.242 26.0933 250.606 26.448 250.868 26.924C251.129 27.4 251.26 28.002 251.26 28.73V33H249.916V28.884C249.916 28.1653 249.738 27.624 249.384 27.26C249.038 26.896 248.548 26.714 247.914 26.714C247.438 26.714 247.022 26.8073 246.668 26.994C246.313 27.1807 246.038 27.456 245.842 27.82C245.655 28.184 245.562 28.6367 245.562 29.178V33H244.218V25.58H245.506V27.582L245.296 27.05C245.538 26.5647 245.912 26.1867 246.416 25.916C246.92 25.6453 247.508 25.51 248.18 25.51ZM256.995 35.8C256.314 35.8 255.651 35.702 255.007 35.506C254.372 35.3193 253.854 35.0487 253.453 34.694L254.097 33.658C254.442 33.9567 254.867 34.19 255.371 34.358C255.875 34.5353 256.402 34.624 256.953 34.624C257.83 34.624 258.474 34.4187 258.885 34.008C259.296 33.5973 259.501 32.972 259.501 32.132V30.564L259.641 29.094L259.571 27.61V25.58H260.845V31.992C260.845 33.2987 260.518 34.26 259.865 34.876C259.212 35.492 258.255 35.8 256.995 35.8ZM256.827 32.692C256.108 32.692 255.464 32.5427 254.895 32.244C254.335 31.936 253.887 31.5113 253.551 30.97C253.224 30.4287 253.061 29.8033 253.061 29.094C253.061 28.3753 253.224 27.75 253.551 27.218C253.887 26.6767 254.335 26.2567 254.895 25.958C255.464 25.6593 256.108 25.51 256.827 25.51C257.462 25.51 258.04 25.6407 258.563 25.902C259.086 26.154 259.501 26.546 259.809 27.078C260.126 27.61 260.285 28.282 260.285 29.094C260.285 29.8967 260.126 30.564 259.809 31.096C259.501 31.628 259.086 32.0293 258.563 32.3C258.04 32.5613 257.462 32.692 256.827 32.692ZM256.981 31.516C257.476 31.516 257.914 31.4133 258.297 31.208C258.68 31.0027 258.978 30.718 259.193 30.354C259.417 29.99 259.529 29.57 259.529 29.094C259.529 28.618 259.417 28.198 259.193 27.834C258.978 27.47 258.68 27.19 258.297 26.994C257.914 26.7887 257.476 26.686 256.981 26.686C256.486 26.686 256.043 26.7887 255.651 26.994C255.268 27.19 254.965 27.47 254.741 27.834C254.526 28.198 254.419 28.618 254.419 29.094C254.419 29.57 254.526 29.99 254.741 30.354C254.965 30.718 255.268 31.0027 255.651 31.208C256.043 31.4133 256.486 31.516 256.981 31.516ZM263.735 33.084C263.474 33.084 263.25 32.9953 263.063 32.818C262.876 32.6313 262.783 32.398 262.783 32.118C262.783 31.838 262.876 31.6093 263.063 31.432C263.25 31.2547 263.474 31.166 263.735 31.166C263.987 31.166 264.202 31.2547 264.379 31.432C264.566 31.6093 264.659 31.838 264.659 32.118C264.659 32.398 264.566 32.6313 264.379 32.818C264.202 32.9953 263.987 33.084 263.735 33.084Z" fill="black"/>
</svg>
