<svg width="326" height="76" viewBox="0 0 326 76" fill="none" xmlns="http://www.w3.org/2000/svg">
<path d="M14.2917 46.8503C12.2849 46.853 10.3611 46.5928 8.52035 46.0697C6.67953 45.5227 5.19674 44.8199 4.07195 43.9614L6.03322 39.5867C7.11 40.3498 8.37763 40.9812 9.83608 41.4809C11.3184 41.9567 12.8121 42.1936 14.3172 42.1916C15.464 42.19 16.3835 42.0813 17.0759 41.8653C17.7921 41.6255 18.317 41.3022 18.6505 40.8956C18.9841 40.489 19.1503 40.0229 19.1491 39.4974C19.1476 38.8284 18.8837 38.3032 18.3572 37.9216C17.8307 37.5162 17.1372 37.1946 16.2766 36.9569C15.4159 36.6952 14.4597 36.4576 13.4081 36.244C12.3802 36.0065 11.3403 35.7212 10.2884 35.3881C9.26035 35.055 8.3157 34.6263 7.45446 34.1018C6.59323 33.5774 5.88691 32.8855 5.3355 32.0262C4.80799 31.1668 4.54275 30.0682 4.53977 28.7303C4.53658 27.2969 4.91593 25.9943 5.67784 24.8226C6.46357 23.627 7.63213 22.6818 9.18349 21.9868C10.7587 21.268 12.7289 20.907 15.0941 20.9038C16.6709 20.9017 18.2242 21.0907 19.7541 21.4709C21.2839 21.8272 22.6349 22.3749 23.8072 23.1139L22.0252 27.5242C20.8531 26.8568 19.6813 26.3686 18.51 26.0596C17.3386 25.7267 16.1915 25.561 15.0686 25.5625C13.9457 25.5641 13.0262 25.6967 12.3101 25.9605C11.594 26.2242 11.0811 26.5713 10.7714 27.0018C10.4618 27.4083 10.3075 27.8864 10.3088 28.4359C10.3102 29.0809 10.5742 29.6062 11.1007 30.0116C11.6271 30.3931 12.3206 30.7028 13.1812 30.9405C14.0418 31.1783 14.9861 31.4159 16.0139 31.6534C17.0656 31.8909 18.1055 32.1643 19.1335 32.4735C20.1854 32.7826 21.1419 33.1994 22.0032 33.7239C22.8644 34.2483 23.5588 34.9402 24.0863 35.7996C24.6377 36.6589 24.9149 37.7455 24.9178 39.0595C24.9209 40.4691 24.5296 41.7597 23.7438 42.9314C22.958 44.1032 21.7775 45.0484 20.2023 45.7673C18.651 46.4861 16.6808 46.8471 14.2917 46.8503ZM30.3345 46.3987L30.2787 21.3133L42.5347 21.2968C45.6882 21.2926 48.0548 21.8867 49.6342 23.0791C51.2376 24.2714 52.0414 25.8472 52.0458 27.8062C52.0487 29.1202 51.7287 30.2674 51.0859 31.2478C50.4429 32.2043 49.5606 32.9461 48.4389 33.4732C47.3172 34.0003 46.0277 34.2648 44.5704 34.2668L45.248 32.7966C46.8248 32.7945 48.223 33.0554 49.4426 33.5794C50.6621 34.0794 51.6075 34.8307 52.2787 35.8332C52.9737 36.8357 53.3229 38.0656 53.3261 39.5229C53.3309 41.6731 52.4865 43.3586 50.793 44.5793C49.0994 45.7761 46.6041 46.3767 43.3072 46.3812L30.3345 46.3987ZM36.0944 42.0189L42.8674 42.0097C44.3726 42.0077 45.5068 41.7673 46.2703 41.2884C47.0576 40.7857 47.45 39.9967 47.4476 38.9216C47.4453 37.8705 47.0494 37.0945 46.2598 36.5939C45.4942 36.0693 44.3588 35.8081 42.8536 35.8101L35.6506 35.8198L35.6412 31.5911L41.8408 31.5828C43.2504 31.5809 44.3249 31.3405 45.0645 30.8617C45.8279 30.359 46.2085 29.6059 46.2062 28.6025C46.204 27.623 45.8202 26.8948 45.0546 26.418C44.3129 25.9173 43.2372 25.6679 41.8277 25.6698L36.058 25.6776L36.0944 42.0189ZM58.0417 38.5132L58.0317 34.0336L68.1734 34.02L68.1833 38.4995L58.0417 38.5132ZM75.9507 46.3372L75.8996 23.402L78.4137 25.9072L70.8881 25.9173L70.8778 21.2586L81.7003 21.244L81.7561 46.3293L75.9507 46.3372ZM98.765 46.7364C96.4715 46.7395 94.4755 46.2644 92.7772 45.3111C91.1027 44.3577 89.8095 42.9618 88.8975 41.1234C87.9856 39.2851 87.5266 37.0161 87.5206 34.3164C87.5142 31.4256 88.0463 28.9761 89.1169 26.9678C90.2114 24.9595 91.7131 23.4285 93.622 22.3747C95.5548 21.3209 97.7755 20.7923 100.284 20.7889C101.622 20.7871 102.9 20.9287 104.119 21.2138C105.339 21.4988 106.391 21.9274 107.276 22.4996L105.135 26.767C104.441 26.2902 103.7 25.9686 102.911 25.8025C102.122 25.6124 101.298 25.5179 100.438 25.5191C98.2639 25.522 96.5452 26.1813 95.2819 27.497C94.0186 28.8127 93.3898 30.7607 93.3956 33.3409C93.3965 33.7709 93.3976 34.2488 93.3988 34.7743C93.4238 35.2999 93.4967 35.8254 93.6173 36.3508L92.0013 34.8479C92.4532 33.9156 93.0368 33.1383 93.7521 32.5162C94.4674 31.8702 95.3145 31.3912 96.2933 31.0793C97.296 30.7435 98.3946 30.5748 99.5891 30.5732C101.214 30.571 102.672 30.8915 103.963 31.5348C105.255 32.1781 106.284 33.0846 107.051 34.2542C107.842 35.4238 108.24 36.797 108.243 38.3738C108.247 40.07 107.82 41.5518 106.963 42.8192C106.129 44.0627 104.997 45.0318 103.565 45.7265C102.157 46.3974 100.557 46.734 98.765 46.7364ZM98.4328 42.4007C99.2451 42.3996 99.9615 42.2553 100.582 41.9678C101.226 41.6563 101.727 41.2136 102.084 40.6398C102.441 40.0659 102.619 39.4087 102.617 38.6681C102.615 37.5213 102.219 36.614 101.429 35.9461C100.663 35.2543 99.6346 34.9093 98.3445 34.911C97.4844 34.9122 96.7322 35.0804 96.0879 35.4158C95.4436 35.7272 94.9309 36.1699 94.5499 36.7438C94.1928 37.2938 94.015 37.9391 94.0167 38.6797C94.0183 39.3964 94.1989 40.0412 94.5585 40.6141C94.9181 41.1631 95.4208 41.6044 96.0666 41.938C96.7123 42.2477 97.5011 42.4019 98.4328 42.4007ZM112.422 38.4398L112.412 33.9603L122.553 33.9466L122.563 38.4262L112.422 38.4398ZM135.76 46.6865C134.016 46.6889 132.284 46.4643 130.563 46.0127C128.865 45.5371 127.406 44.8702 126.186 44.0117L128.47 39.565C129.427 40.2565 130.527 40.8045 131.77 41.209C133.037 41.6134 134.316 41.8148 135.606 41.813C137.063 41.8111 138.21 41.5228 139.044 40.9483C139.879 40.3738 140.296 39.5729 140.293 38.5456C140.292 37.9005 140.123 37.3274 139.788 36.8261C139.452 36.3249 138.854 35.9434 137.994 35.6818C137.157 35.4201 135.974 35.2903 134.445 35.2924L128.03 35.301L129.289 21.1798L144.591 21.1592L144.601 25.8179L131.378 25.8357L134.382 23.1798L133.509 33.251L130.492 30.6032L135.796 30.596C138.281 30.5927 140.276 30.9364 141.783 31.6272C143.314 32.2941 144.427 33.2124 145.122 34.3821C145.817 35.5518 146.167 36.8773 146.17 38.3585C146.173 39.8397 145.806 41.2139 145.068 42.4811C144.331 43.7245 143.186 44.7414 141.635 45.5319C140.108 46.2984 138.149 46.6833 135.76 46.6865ZM160.728 46.6529C158.674 46.6556 156.833 46.1564 155.206 45.1552C153.579 44.1301 152.298 42.6506 151.362 40.7167C150.426 38.7828 149.955 36.4421 149.949 33.6947C149.943 30.9472 150.403 28.6053 151.331 26.6689C152.258 24.7325 153.533 23.2615 155.155 22.2559C156.778 21.2264 158.616 20.7103 160.671 20.7075C162.749 20.7047 164.59 21.2159 166.193 22.241C167.82 23.2422 169.101 24.7098 170.037 26.6437C170.973 28.5776 171.444 30.9182 171.45 33.6657C171.456 36.4131 170.996 38.755 170.068 40.6915C169.141 42.6279 167.866 44.1108 166.244 45.1403C164.645 46.1459 162.807 46.6501 160.728 46.6529ZM160.717 41.7433C161.697 41.742 162.544 41.4661 163.26 40.9157C163.999 40.3652 164.571 39.4924 164.974 38.2973C165.402 37.1022 165.613 35.5609 165.609 33.6736C165.605 31.7862 165.386 30.2455 164.954 29.0516C164.545 27.8576 163.97 26.9863 163.228 26.4378C162.51 25.8893 161.661 25.6157 160.682 25.617C159.726 25.6183 158.878 25.8942 158.139 26.4447C157.424 26.9952 156.852 27.8679 156.425 29.0631C156.021 30.2581 155.822 31.7994 155.826 33.6868C155.83 35.5741 156.036 37.1148 156.445 38.3088C156.878 39.5028 157.453 40.374 158.171 40.9225C158.913 41.471 159.762 41.7446 160.717 41.7433ZM186.484 46.6181C184.43 46.6209 182.589 46.1217 180.962 45.1205C179.335 44.0954 178.054 42.6158 177.118 40.6819C176.182 38.7481 175.711 36.4074 175.705 33.6599C175.698 30.9125 176.159 28.5706 177.086 26.6342C178.014 24.6978 179.289 23.2268 180.911 22.2212C182.533 21.1917 184.372 20.6755 186.427 20.6728C188.505 20.67 190.346 21.1811 191.949 22.2063C193.576 23.2075 194.857 24.675 195.793 26.6089C196.729 28.5428 197.2 30.8835 197.206 33.6309C197.212 36.3784 196.752 38.7203 195.824 40.6567C194.897 42.5931 193.622 44.0761 192 45.1056C190.401 46.1112 188.563 46.6153 186.484 46.6181ZM186.473 41.7086C187.453 41.7073 188.3 41.4314 189.016 40.8809C189.755 40.3304 190.327 39.4577 190.73 38.2626C191.158 37.0674 191.369 35.5262 191.365 33.6388C191.361 31.7515 191.142 30.2108 190.71 29.0168C190.301 27.8228 189.725 26.9516 188.984 26.4031C188.266 25.8546 187.417 25.581 186.437 25.5823C185.482 25.5836 184.634 25.8595 183.895 26.41C183.179 26.9604 182.608 27.8332 182.181 29.0283C181.777 30.2234 181.577 31.7646 181.582 33.652C181.586 35.5394 181.792 37.0801 182.201 38.2741C182.634 39.468 183.209 40.3393 183.927 40.8878C184.669 41.4363 185.518 41.7099 186.473 41.7086ZM223.336 53.3773C221.52 53.3798 219.764 53.1552 218.067 52.7036C216.393 52.2758 214.994 51.6207 213.869 50.7382L216.082 46.7216C216.896 47.3894 217.924 47.9136 219.168 48.2942C220.435 48.6986 221.678 48.9 222.896 48.8984C224.879 48.8957 226.311 48.4518 227.193 47.5667C228.099 46.6815 228.55 45.3669 228.546 43.6228L228.54 40.7201L228.888 35.8818L228.805 31.0081L228.796 26.8511L234.099 26.844L234.135 42.8986C234.143 46.4822 233.217 49.1234 231.358 50.8221C229.498 52.5209 226.824 53.3726 223.336 53.3773ZM222.458 45.2079C220.666 45.2103 219.04 44.8302 217.581 44.0677C216.146 43.2812 214.985 42.1957 214.098 40.8113C213.235 39.4029 212.801 37.7669 212.797 35.9034C212.793 34.0161 213.219 32.379 214.076 30.9922C214.957 29.5814 216.113 28.4928 217.545 27.7264C219.001 26.9599 220.624 26.5755 222.416 26.573C224.041 26.5709 225.475 26.9034 226.719 27.5707C227.963 28.214 228.932 29.2281 229.628 30.6128C230.324 31.9737 230.675 33.7292 230.679 35.8793C230.684 38.0056 230.342 39.7621 229.652 41.1487C228.962 42.5114 227.997 43.528 226.756 44.1986C225.515 44.8693 224.082 45.2057 222.458 45.2079ZM223.558 40.6193C224.538 40.618 225.41 40.4257 226.173 40.0424C226.937 39.6352 227.533 39.073 227.961 38.3557C228.39 37.6384 228.603 36.8139 228.601 35.8821C228.599 34.9265 228.382 34.1026 227.95 33.4103C227.519 32.6942 226.92 32.1455 226.155 31.7643C225.389 31.3592 224.517 31.1573 223.537 31.1586C222.558 31.1599 221.686 31.3641 220.923 31.7713C220.159 32.1546 219.551 32.7049 219.099 33.4222C218.67 34.1157 218.457 34.9402 218.459 35.8958C218.461 36.8276 218.678 37.6515 219.11 38.3676C219.565 39.0838 220.176 39.6444 220.941 40.0495C221.706 40.4307 222.579 40.6206 223.558 40.6193Z" fill="#490606"/>
<path d="M48.23 67.97C47.7533 67.2501 47.3832 66.4191 47.1198 65.4772C46.8643 64.5273 46.7353 63.506 46.7329 62.4132C46.7305 61.3205 46.8549 60.2988 47.1062 59.3483C47.3653 58.3898 47.7317 57.5578 48.2052 56.8525L49.975 56.8501C49.4782 57.7455 49.1159 58.6487 48.8883 59.5597C48.6607 60.4627 48.548 61.4131 48.5502 62.4108C48.5524 63.4085 48.6694 64.3625 48.901 65.2729C49.1327 66.1752 49.4989 67.0735 49.9998 67.9676L48.23 67.97ZM51.1043 65.6618L51.0858 57.3474L53.01 57.3448L53.0285 65.6593L51.1043 65.6618ZM55.0017 65.6566L54.9832 57.3422L56.5748 57.34L60.1274 63.2029L59.2841 63.204L62.7512 57.3317L64.3309 57.3296L64.3732 65.644L62.5678 65.6464L62.5436 60.0995L62.8761 60.0991L60.1071 64.7708L59.2401 64.7719L56.3909 60.1078L56.7947 60.1073L56.8071 65.6542L55.0017 65.6566ZM66.3458 65.6413L66.3273 57.3269L68.2515 57.3243L68.2665 64.0708L72.4356 64.0652L72.4391 65.6331L66.3458 65.6413ZM76.8781 65.6271L76.8596 57.3127L78.4512 57.3105L82.0038 63.1734L81.1605 63.1745L84.6276 57.3022L86.2073 57.3001L86.2496 65.6145L84.4442 65.6169L84.42 60.07L84.7525 60.0696L81.9835 64.7413L81.1165 64.7424L78.2673 60.0783L78.6711 60.0778L78.6835 65.6247L76.8781 65.6271ZM92.261 65.7489C91.6037 65.7498 90.9938 65.6437 90.4311 65.4306C89.8763 65.2176 89.3926 64.9173 88.98 64.5299C88.5753 64.1424 88.2575 63.6875 88.0267 63.1652C87.8039 62.6429 87.6917 62.0729 87.6904 61.4553C87.689 60.8377 87.7986 60.2674 88.0191 59.7445C88.2476 59.2215 88.5673 58.7658 88.9782 58.3772C89.3891 57.9887 89.8714 57.6871 90.4253 57.4726C90.9791 57.258 91.5806 57.1503 92.23 57.1494C92.8872 57.1485 93.4892 57.2546 94.0361 57.4677C94.5909 57.6807 95.0706 57.981 95.4753 58.3685C95.8879 58.7559 96.2096 59.2108 96.4404 59.7331C96.6712 60.2475 96.7873 60.8175 96.7887 61.443C96.7901 62.0607 96.6765 62.6349 96.4481 63.1658C96.2196 63.6887 95.8999 64.1444 95.489 64.533C95.086 64.9136 94.6076 65.2112 94.0538 65.4258C93.5079 65.6403 92.9103 65.748 92.261 65.7489ZM92.2455 64.1098C92.6176 64.1093 92.958 64.0455 93.2665 63.9183C93.583 63.7912 93.8597 63.6087 94.0967 63.3709C94.3338 63.133 94.5153 62.8516 94.6412 62.5268C94.7751 62.202 94.8416 61.8416 94.8408 61.4457C94.8399 61.0497 94.7718 60.6895 94.6364 60.3651C94.509 60.0406 94.3263 59.7597 94.0882 59.5225C93.858 59.2852 93.5844 59.1035 93.2674 58.9772C92.9504 58.8509 92.6058 58.788 92.2336 58.7885C91.8614 58.7891 91.5171 58.8529 91.2007 58.98C90.8921 59.1071 90.6194 59.2896 90.3823 59.5275C90.1453 59.7653 89.9598 60.0467 89.8259 60.3715C89.7 60.6964 89.6374 61.0567 89.6383 61.4527C89.6392 61.8407 89.7033 62.2009 89.8308 62.5333C89.9661 62.8578 90.1488 63.1386 90.379 63.3759C90.6171 63.6131 90.8946 63.7949 91.2117 63.9211C91.5287 64.0474 91.8733 64.1103 92.2455 64.1098ZM102.271 65.7354C101.622 65.7363 101.016 65.6302 100.453 65.4171C99.8982 65.2041 99.4145 64.9038 99.0018 64.5164C98.5971 64.1289 98.2794 63.674 98.0486 63.1517C97.8257 62.6294 97.7136 62.0594 97.7122 61.4418C97.7108 60.8241 97.8204 60.2539 98.041 59.7309C98.2695 59.208 98.5891 58.7523 99 58.3637C99.4109 57.9751 99.8933 57.6736 100.447 57.459C101.001 57.2445 101.602 57.1368 102.252 57.1359C102.909 57.135 103.511 57.2411 104.058 57.4542C104.613 57.6672 105.092 57.9675 105.497 58.3549C105.91 58.7345 106.231 59.1854 106.462 59.7077C106.693 60.23 106.809 60.804 106.811 61.4295C106.812 62.0472 106.698 62.6214 106.47 63.1522C106.241 63.6752 105.922 64.1309 105.511 64.5195C105.108 64.9001 104.629 65.1977 104.076 65.4122C103.53 65.6268 102.928 65.7345 102.271 65.7354ZM104.995 67.5015C104.67 67.5019 104.361 67.4667 104.068 67.3958C103.783 67.325 103.498 67.2105 103.212 67.0525C102.935 66.8945 102.641 66.6811 102.332 66.4123C102.03 66.1435 101.701 65.8114 101.344 65.4159L103.362 64.9025C103.576 65.1952 103.775 65.4285 103.957 65.6025C104.14 65.7764 104.314 65.8989 104.481 65.97C104.655 66.041 104.837 66.0764 105.027 66.0761C105.534 66.0754 105.985 65.8689 106.38 65.4567L107.238 66.477C106.677 67.1587 105.929 67.5002 104.995 67.5015ZM102.267 64.0963C102.639 64.0958 102.98 64.0319 103.288 63.9048C103.605 63.7777 103.882 63.5952 104.119 63.3573C104.356 63.1195 104.537 62.8381 104.663 62.5133C104.797 62.1805 104.863 61.8201 104.863 61.4321C104.862 61.0362 104.794 60.676 104.658 60.3515C104.531 60.027 104.348 59.7462 104.11 59.509C103.872 59.2717 103.594 59.09 103.277 58.9637C102.968 58.8374 102.628 58.7745 102.255 58.775C101.883 58.7755 101.539 58.8393 101.223 58.9665C100.906 59.0936 100.629 59.2761 100.392 59.514C100.163 59.7518 99.9817 60.0332 99.8478 60.358C99.7218 60.6829 99.6593 61.0432 99.6602 61.4392C99.661 61.8272 99.7252 62.1874 99.8526 62.5198C99.9879 62.8442 100.171 63.1251 100.401 63.3624C100.639 63.5996 100.916 63.7813 101.234 63.9076C101.551 64.0339 101.895 64.0968 102.267 64.0963ZM111.256 62.9795L111.252 61.4948L114.614 61.4903L114.617 62.975L111.256 62.9795ZM121.88 65.7089C121.302 65.7097 120.728 65.6353 120.157 65.4856C119.595 65.328 119.111 65.1069 118.707 64.8224L119.463 63.3485C119.781 63.5777 120.145 63.7594 120.557 63.8934C120.977 64.0275 121.401 64.0942 121.829 64.0936C122.312 64.093 122.692 63.9974 122.968 63.807C123.245 63.6166 123.383 63.3512 123.382 63.0107C123.382 62.7969 123.326 62.6069 123.215 62.4408C123.104 62.2746 122.905 62.1482 122.62 62.0615C122.343 61.9747 121.951 61.9317 121.444 61.9324L119.318 61.9353L119.735 57.2549L124.807 57.248L124.81 58.7921L120.427 58.798L121.423 57.9177L121.134 61.2558L120.134 60.3782L121.892 60.3758C122.715 60.3747 123.377 60.4886 123.876 60.7176C124.383 60.9386 124.752 61.243 124.983 61.6307C125.213 62.0184 125.329 62.4577 125.33 62.9486C125.331 63.4396 125.21 63.8951 124.965 64.3151C124.72 64.7272 124.341 65.0642 123.827 65.3262C123.321 65.5803 122.672 65.7079 121.88 65.7089ZM129.68 65.6984C128.999 65.6993 128.389 65.5339 127.85 65.202C127.311 64.8623 126.886 64.3719 126.576 63.7309C126.266 63.0899 126.109 62.3141 126.107 61.4035C126.105 60.4929 126.258 59.7166 126.565 59.0748C126.873 58.433 127.295 57.9455 127.833 57.6122C128.371 57.2709 128.98 57.0999 129.661 57.0989C130.35 57.098 130.96 57.2674 131.492 57.6072C132.031 57.9391 132.455 58.4255 132.766 59.0665C133.076 59.7075 133.232 60.4833 133.234 61.3939C133.236 62.3045 133.083 63.0807 132.776 63.7225C132.469 64.3644 132.046 64.8559 131.508 65.1971C130.979 65.5304 130.369 65.6975 129.68 65.6984ZM129.677 64.0712C130.001 64.0707 130.282 63.9793 130.519 63.7968C130.764 63.6144 130.954 63.3251 131.088 62.929C131.229 62.5329 131.299 62.0221 131.298 61.3965C131.297 60.7709 131.224 60.2603 131.081 59.8646C130.945 59.4688 130.755 59.18 130.509 58.9982C130.271 58.8164 129.989 58.7258 129.665 58.7262C129.348 58.7266 129.067 58.8181 128.822 59.0005C128.585 59.183 128.396 59.4722 128.254 59.8684C128.12 60.2645 128.054 60.7753 128.055 61.4009C128.057 62.0264 128.125 62.5371 128.261 62.9328C128.404 63.3285 128.595 63.6173 128.833 63.7991C129.079 63.9809 129.36 64.0716 129.677 64.0712ZM137.742 65.6876C137.061 65.6885 136.451 65.523 135.912 65.1912C135.372 64.8514 134.948 64.361 134.637 63.72C134.327 63.079 134.171 62.3032 134.169 61.3926C134.167 60.482 134.32 59.7058 134.627 59.064C134.934 58.4221 135.357 57.9346 135.895 57.6013C136.432 57.2601 137.042 57.089 137.723 57.0881C138.412 57.0871 139.022 57.2566 139.553 57.5964C140.092 57.9282 140.517 58.4146 140.827 59.0556C141.137 59.6966 141.294 60.4724 141.296 61.383C141.298 62.2936 141.145 63.0699 140.838 63.7117C140.53 64.3535 140.108 64.845 139.57 65.1862C139.04 65.5195 138.431 65.6866 137.742 65.6876ZM137.738 64.0603C138.063 64.0599 138.344 63.9684 138.581 63.786C138.826 63.6035 139.015 63.3142 139.149 62.9181C139.291 62.522 139.361 62.0112 139.36 61.3856C139.358 60.7601 139.286 60.2494 139.142 59.8537C139.007 59.4579 138.816 59.1692 138.57 58.9874C138.332 58.8056 138.051 58.7149 137.726 58.7153C137.41 58.7158 137.129 58.8072 136.884 58.9896C136.647 59.1721 136.457 59.4614 136.315 59.8575C136.182 60.2536 136.116 60.7644 136.117 61.39C136.118 62.0156 136.187 62.5262 136.322 62.9219C136.466 63.3177 136.656 63.6064 136.894 63.7883C137.14 63.97 137.422 64.0607 137.738 64.0603ZM145.803 65.6767C145.122 65.6776 144.512 65.5121 143.973 65.1803C143.434 64.8405 143.009 64.3501 142.699 63.7092C142.389 63.0682 142.233 62.2924 142.231 61.3817C142.229 60.4711 142.381 59.6949 142.689 59.0531C142.996 58.4113 143.419 57.9237 143.956 57.5904C144.494 57.2492 145.103 57.0781 145.784 57.0772C146.473 57.0763 147.083 57.2457 147.615 57.5855C148.154 57.9173 148.579 58.4037 148.889 59.0447C149.199 59.6857 149.355 60.4615 149.357 61.3721C149.359 62.2828 149.207 63.059 148.899 63.7008C148.592 64.3426 148.169 64.8341 147.632 65.1753C147.102 65.5086 146.492 65.6758 145.803 65.6767ZM145.8 64.0494C146.124 64.049 146.405 63.9576 146.643 63.7751C146.888 63.5926 147.077 63.3034 147.211 62.9073C147.352 62.5111 147.423 62.0003 147.421 61.3747C147.42 60.7492 147.347 60.2385 147.204 59.8428C147.068 59.4471 146.878 59.1583 146.632 58.9765C146.394 58.7947 146.113 58.704 145.788 58.7045C145.471 58.7049 145.19 58.7963 144.945 58.9788C144.708 59.1612 144.519 59.4505 144.377 59.8466C144.243 60.2427 144.177 60.7536 144.178 61.3791C144.18 62.0047 144.248 62.5153 144.384 62.9111C144.527 63.3068 144.718 63.5956 144.956 63.7774C145.202 63.9592 145.483 64.0499 145.8 64.0494ZM154.188 65.5228L154.169 57.2084L157.768 57.2036C158.513 57.2026 159.154 57.3244 159.693 57.5692C160.232 57.806 160.649 58.1499 160.943 58.6009C161.237 59.0518 161.384 59.5901 161.386 60.2157C161.387 60.8333 161.242 61.368 160.95 61.8197C160.658 62.2715 160.243 62.6205 159.705 62.8667C159.167 63.1049 158.526 63.2246 157.782 63.2256L155.252 63.229L156.105 62.3608L156.112 65.5202L154.188 65.5228ZM156.105 62.5746L155.248 61.6611L157.671 61.6579C158.265 61.6571 158.708 61.5298 159.001 61.276C159.293 61.0222 159.439 60.6696 159.438 60.2183C159.437 59.759 159.29 59.4029 158.996 59.1499C158.702 58.8969 158.259 58.7708 157.665 58.7716L155.242 58.7749L156.095 57.8591L156.105 62.5746ZM165.717 65.6023C165.029 65.6032 164.415 65.4655 163.876 65.1891C163.336 64.9047 162.912 64.5133 162.602 64.0149C162.3 63.5164 162.148 62.9505 162.147 62.317C162.145 61.6756 162.295 61.1092 162.594 60.6179C162.902 60.1186 163.325 59.73 163.863 59.4521C164.401 59.1663 165.014 59.023 165.703 59.0221C166.376 59.0211 166.962 59.1629 167.462 59.4473C167.961 59.7238 168.33 60.1231 168.569 60.6454L167.134 61.4194C166.967 61.1188 166.756 60.8973 166.503 60.7551C166.257 60.6129 165.987 60.542 165.694 60.5424C165.378 60.5428 165.093 60.6145 164.84 60.7574C164.587 60.9002 164.385 61.1024 164.235 61.364C164.093 61.6255 164.023 61.9423 164.024 62.3145C164.024 62.6866 164.096 63.0033 164.239 63.2644C164.39 63.5255 164.593 63.7271 164.847 63.8693C165.1 64.0115 165.385 64.0824 165.702 64.082C165.995 64.0816 166.264 64.0139 166.509 63.879C166.763 63.7361 166.972 63.5101 167.137 63.2011L168.576 63.9831C168.34 64.4981 167.973 64.8985 167.474 65.1842C166.976 65.462 166.391 65.6014 165.717 65.6023ZM171.797 65.5941C171.25 65.5949 170.724 65.5322 170.217 65.4062C169.717 65.2723 169.321 65.1065 169.028 64.9089L169.642 63.5778C169.936 63.7595 170.281 63.9095 170.677 64.0278C171.081 64.1381 171.477 64.193 171.865 64.1924C172.292 64.1919 172.593 64.14 172.767 64.0368C172.949 63.9336 173.04 63.791 173.04 63.6089C173.039 63.4584 172.968 63.3476 172.825 63.2766C172.69 63.1976 172.508 63.1384 172.278 63.0991C172.048 63.0599 171.795 63.0206 171.518 62.9814C171.248 62.9422 170.975 62.8911 170.698 62.8281C170.421 62.7572 170.167 62.6546 169.937 62.5203C169.707 62.386 169.521 62.2041 169.378 61.9747C169.242 61.7452 169.174 61.4484 169.174 61.0841C169.173 60.6803 169.287 60.3238 169.516 60.0146C169.753 59.7055 170.093 59.4635 170.536 59.2887C170.979 59.106 171.509 59.0142 172.127 59.0134C172.562 59.0128 173.006 59.0597 173.457 59.1541C173.909 59.2485 174.285 59.3866 174.586 59.5683L173.972 60.8876C173.663 60.7059 173.35 60.5836 173.033 60.5206C172.724 60.4498 172.423 60.4146 172.13 60.415C171.718 60.4155 171.417 60.4714 171.227 60.5825C171.038 60.6936 170.943 60.8362 170.943 61.0105C170.944 61.1688 171.011 61.2875 171.146 61.3665C171.289 61.4455 171.475 61.5086 171.705 61.5558C171.934 61.603 172.184 61.6462 172.453 61.6854C172.73 61.7167 173.008 61.7678 173.285 61.8387C173.562 61.9096 173.812 62.0122 174.034 62.1465C174.264 62.2729 174.45 62.4509 174.593 62.6803C174.736 62.9018 174.808 63.1947 174.809 63.559C174.81 63.9549 174.692 64.3074 174.455 64.6166C174.218 64.9178 173.874 65.1558 173.423 65.3306C172.98 65.5054 172.438 65.5933 171.797 65.5941ZM176.995 67.7964L175.225 67.7988C175.738 66.9033 176.104 66.004 176.324 65.101C176.552 64.1901 176.664 63.2358 176.662 62.238C176.66 61.2403 176.543 60.2902 176.311 59.3878C176.088 58.4775 175.717 57.5753 175.201 56.6812L176.97 56.6788C177.463 57.3829 177.837 58.2138 178.093 59.1716C178.348 60.1215 178.477 61.1428 178.479 62.2356C178.482 63.3283 178.357 64.35 178.106 65.3005C177.855 66.2432 177.485 67.0751 176.995 67.7964Z" fill="black"/>
<path d="M179.864 62.25H218.647" stroke="url(#paint0_linear_2175_5)" stroke-width="0.863039"/>
<path d="M38.7822 62.2285H-0.000305653" stroke="url(#paint1_linear_2175_5)" stroke-width="0.863039"/>
<defs>
<linearGradient id="paint0_linear_2175_5" x1="212.829" y1="62.75" x2="180.511" y2="62.75" gradientUnits="userSpaceOnUse">
<stop stop-color="#666666" stop-opacity="0"/>
<stop offset="1"/>
</linearGradient>
<linearGradient id="paint1_linear_2175_5" x1="5.81707" y1="62.7285" x2="38.1359" y2="62.7285" gradientUnits="userSpaceOnUse">
<stop stop-color="#666666" stop-opacity="0"/>
<stop offset="1"/>
</linearGradient>
</defs>
</svg>
