<svg width="103" height="36" viewBox="0 0 103 36" fill="none" xmlns="http://www.w3.org/2000/svg">
<circle cx="11.55" cy="18.0001" r="8.83019" fill="#D9D9D9"/>
<path fill-rule="evenodd" clip-rule="evenodd" d="M7.30115 6.80873C9.82253 5.81178 12.6148 5.73424 15.1879 6.589L14.851 7.60463C12.5162 6.82899 9.98256 6.89924 7.69471 7.80385C5.40694 8.70847 3.51023 10.3894 2.33729 12.5519C1.16434 14.7144 0.790213 17.221 1.27967 19.632C1.66317 21.5209 2.5594 23.2554 3.85389 24.6564C3.99109 24.5973 4.14327 24.5656 4.30213 24.5656C4.92717 24.5658 5.43397 25.0733 5.43397 25.6984C5.43373 26.3233 4.92702 26.83 4.30213 26.8302C3.67705 26.8302 3.16956 26.3234 3.16932 25.6984C3.16932 25.6343 3.17568 25.5711 3.18592 25.5099C1.6952 23.9445 0.665114 21.984 0.230842 19.8449C-0.30857 17.1878 0.104262 14.4254 1.39686 12.0421C2.68954 9.65885 4.77984 7.80572 7.30115 6.80873Z" fill="url(#paint0_linear_1305_577)"/>
<path fill-rule="evenodd" clip-rule="evenodd" d="M16.4956 29.1907C13.9742 30.1877 11.1819 30.2662 8.60888 29.4114L8.94579 28.3958C11.2805 29.1714 13.8142 29.1012 16.102 28.1966C18.3898 27.292 20.2865 25.6111 21.4595 23.4485C22.6324 21.286 23.0065 18.7795 22.5171 16.3685C22.1335 14.479 21.2369 12.7442 19.9419 11.3431C19.8048 11.402 19.6533 11.4339 19.4946 11.4339C18.8696 11.4337 18.3628 10.9271 18.3628 10.3021C18.3629 9.67707 18.8697 9.17044 19.4946 9.17022C20.1198 9.17022 20.6273 9.67693 20.6274 10.3021C20.6274 10.3662 20.6211 10.4293 20.6108 10.4905C22.1016 12.056 23.1316 14.0165 23.5659 16.1556C24.1053 18.8126 23.6925 21.575 22.3999 23.9583C21.1073 26.3415 19.0168 28.1937 16.4956 29.1907Z" fill="url(#paint1_linear_1305_577)"/>
<path d="M8.67456 21.064C8.23723 21.064 7.84523 20.952 7.49856 20.728C7.15723 20.504 6.88523 20.1787 6.68256 19.752C6.48523 19.3253 6.38656 18.808 6.38656 18.2C6.38656 17.592 6.48523 17.0747 6.68256 16.648C6.88523 16.2213 7.15723 15.896 7.49856 15.672C7.84523 15.448 8.23723 15.336 8.67456 15.336C9.10656 15.336 9.4959 15.448 9.84256 15.672C10.1892 15.896 10.4612 16.2213 10.6586 16.648C10.8559 17.0747 10.9546 17.592 10.9546 18.2C10.9546 18.808 10.8559 19.3253 10.6586 19.752C10.4612 20.1787 10.1892 20.504 9.84256 20.728C9.4959 20.952 9.10656 21.064 8.67456 21.064ZM8.67456 20.352C8.9679 20.352 9.2239 20.272 9.44256 20.112C9.66656 19.952 9.8399 19.712 9.96256 19.392C10.0906 19.072 10.1546 18.6747 10.1546 18.2C10.1546 17.7253 10.0906 17.328 9.96256 17.008C9.8399 16.688 9.66656 16.448 9.44256 16.288C9.2239 16.128 8.9679 16.048 8.67456 16.048C8.38123 16.048 8.12256 16.128 7.89856 16.288C7.67456 16.448 7.49856 16.688 7.37056 17.008C7.2479 17.328 7.18656 17.7253 7.18656 18.2C7.18656 18.6747 7.2479 19.072 7.37056 19.392C7.49856 19.712 7.67456 19.952 7.89856 20.112C8.12256 20.272 8.38123 20.352 8.67456 20.352ZM11.6345 21V20.456L13.9145 18.256C14.1172 18.064 14.2665 17.896 14.3625 17.752C14.4638 17.6027 14.5305 17.4667 14.5625 17.344C14.5998 17.216 14.6185 17.0933 14.6185 16.976C14.6185 16.688 14.5172 16.4613 14.3145 16.296C14.1118 16.1307 13.8158 16.048 13.4265 16.048C13.1278 16.048 12.8585 16.0987 12.6185 16.2C12.3785 16.296 12.1705 16.448 11.9945 16.656L11.4505 16.184C11.6638 15.912 11.9492 15.704 12.3065 15.56C12.6692 15.4107 13.0665 15.336 13.4985 15.336C13.8878 15.336 14.2265 15.4 14.5145 15.528C14.8025 15.6507 15.0238 15.8293 15.1785 16.064C15.3385 16.2987 15.4185 16.576 15.4185 16.896C15.4185 17.0773 15.3945 17.256 15.3465 17.432C15.2985 17.608 15.2078 17.7947 15.0745 17.992C14.9412 18.1893 14.7492 18.4107 14.4985 18.656L12.4665 20.616L12.2745 20.304H15.6585V21H11.6345Z" fill="#464643"/>
<path d="M31.3428 23V22.286L35.4168 18.296C35.7901 17.932 36.0701 17.6147 36.2568 17.344C36.4434 17.064 36.5694 16.8027 36.6348 16.56C36.7001 16.3173 36.7328 16.0887 36.7328 15.874C36.7328 15.3047 36.5368 14.8567 36.1448 14.53C35.7621 14.2033 35.1928 14.04 34.4368 14.04C33.8581 14.04 33.3448 14.1287 32.8968 14.306C32.4581 14.4833 32.0801 14.7587 31.7628 15.132L31.0488 14.516C31.4314 14.068 31.9214 13.7227 32.5188 13.48C33.1161 13.2373 33.7834 13.116 34.5208 13.116C35.1834 13.116 35.7574 13.2233 36.2428 13.438C36.7281 13.6433 37.1014 13.9467 37.3628 14.348C37.6334 14.7493 37.7688 15.2207 37.7688 15.762C37.7688 16.0793 37.7221 16.392 37.6288 16.7C37.5448 17.008 37.3861 17.3347 37.1528 17.68C36.9288 18.016 36.5974 18.3987 36.1588 18.828L32.4208 22.496L32.1408 22.104H38.2168V23H31.3428ZM44.0138 23V13.2H45.0498V22.104H50.5378V23H44.0138ZM54.3036 23.07C53.613 23.07 53.081 22.8833 52.7076 22.51C52.3343 22.1367 52.1476 21.6093 52.1476 20.928V14.026H53.1416V20.872C53.1416 21.3013 53.249 21.6327 53.4636 21.866C53.6876 22.0993 54.005 22.216 54.4156 22.216C54.8543 22.216 55.2183 22.09 55.5076 21.838L55.8576 22.552C55.6616 22.7293 55.4236 22.86 55.1436 22.944C54.873 23.028 54.593 23.07 54.3036 23.07ZM50.8316 16.476V15.65H55.3816V16.476H50.8316ZM57.6671 23V15.65H58.6191V17.652L58.5211 17.302C58.7265 16.742 59.0718 16.3173 59.5571 16.028C60.0425 15.7293 60.6445 15.58 61.3631 15.58V16.546C61.3258 16.546 61.2885 16.546 61.2511 16.546C61.2138 16.5367 61.1765 16.532 61.1391 16.532C60.3645 16.532 59.7578 16.77 59.3191 17.246C58.8805 17.7127 58.6611 18.38 58.6611 19.248V23H57.6671ZM71.4583 23.084C70.7117 23.084 70.021 22.9627 69.3863 22.72C68.761 22.468 68.215 22.118 67.7483 21.67C67.291 21.222 66.9317 20.6947 66.6703 20.088C66.4183 19.4813 66.2923 18.8187 66.2923 18.1C66.2923 17.3813 66.4183 16.7187 66.6703 16.112C66.9317 15.5053 67.2957 14.978 67.7623 14.53C68.229 14.082 68.775 13.7367 69.4003 13.494C70.035 13.242 70.7257 13.116 71.4723 13.116C72.219 13.116 72.9003 13.2327 73.5163 13.466C74.1417 13.6993 74.6737 14.054 75.1123 14.53L74.4683 15.188C74.0577 14.7773 73.605 14.4833 73.1103 14.306C72.6157 14.1287 72.0837 14.04 71.5143 14.04C70.9077 14.04 70.3477 14.1427 69.8343 14.348C69.3303 14.544 68.887 14.8287 68.5043 15.202C68.131 15.566 67.837 15.9953 67.6223 16.49C67.417 16.9753 67.3143 17.512 67.3143 18.1C67.3143 18.6787 67.417 19.2153 67.6223 19.71C67.837 20.2047 68.131 20.6387 68.5043 21.012C68.887 21.376 69.3303 21.6607 69.8343 21.866C70.3477 22.062 70.903 22.16 71.5003 22.16C72.0603 22.16 72.5877 22.076 73.0823 21.908C73.5863 21.74 74.0483 21.4553 74.4683 21.054L75.0563 21.838C74.5897 22.2487 74.0437 22.5613 73.4183 22.776C72.793 22.9813 72.1397 23.084 71.4583 23.084ZM74.0623 21.712V18.1H75.0563V21.838L74.0623 21.712ZM81.5305 15.58C82.1278 15.58 82.6505 15.6967 83.0985 15.93C83.5558 16.154 83.9105 16.4993 84.1625 16.966C84.4238 17.4327 84.5545 18.0207 84.5545 18.73V23H83.5605V18.828C83.5605 18.0533 83.3645 17.47 82.9725 17.078C82.5898 16.6767 82.0485 16.476 81.3485 16.476C80.8258 16.476 80.3685 16.5833 79.9765 16.798C79.5938 17.0033 79.2951 17.3067 79.0805 17.708C78.8751 18.1 78.7725 18.576 78.7725 19.136V23H77.7785V12.612H78.7725V17.666L78.5765 17.288C78.8098 16.756 79.1831 16.3407 79.6965 16.042C80.2098 15.734 80.8211 15.58 81.5305 15.58ZM90.3614 23.07C89.5961 23.07 88.9241 22.9113 88.3454 22.594C87.7667 22.2673 87.3141 21.824 86.9874 21.264C86.6607 20.6947 86.4974 20.046 86.4974 19.318C86.4974 18.59 86.6514 17.946 86.9594 17.386C87.2767 16.826 87.7061 16.3873 88.2474 16.07C88.7981 15.7433 89.4141 15.58 90.0954 15.58C90.7861 15.58 91.3974 15.7387 91.9294 16.056C92.4707 16.364 92.8954 16.8027 93.2034 17.372C93.5114 17.932 93.6654 18.5807 93.6654 19.318C93.6654 19.3647 93.6607 19.416 93.6514 19.472C93.6514 19.5187 93.6514 19.57 93.6514 19.626H87.2534V18.884H93.1194L92.7274 19.178C92.7274 18.646 92.6107 18.1747 92.3774 17.764C92.1534 17.344 91.8454 17.0173 91.4534 16.784C91.0614 16.5507 90.6087 16.434 90.0954 16.434C89.5914 16.434 89.1387 16.5507 88.7374 16.784C88.3361 17.0173 88.0234 17.344 87.7994 17.764C87.5754 18.184 87.4634 18.6647 87.4634 19.206V19.36C87.4634 19.92 87.5847 20.4147 87.8274 20.844C88.0794 21.264 88.4247 21.5953 88.8634 21.838C89.3114 22.0713 89.8201 22.188 90.3894 22.188C90.8374 22.188 91.2527 22.1087 91.6354 21.95C92.0274 21.7913 92.3634 21.5487 92.6434 21.222L93.2034 21.866C92.8767 22.258 92.4661 22.5567 91.9714 22.762C91.4861 22.9673 90.9494 23.07 90.3614 23.07ZM98.8106 23.07C98.0453 23.07 97.3733 22.9113 96.7946 22.594C96.2159 22.2673 95.7633 21.824 95.4366 21.264C95.1099 20.6947 94.9466 20.046 94.9466 19.318C94.9466 18.59 95.1006 17.946 95.4086 17.386C95.7259 16.826 96.1553 16.3873 96.6966 16.07C97.2473 15.7433 97.8633 15.58 98.5446 15.58C99.2353 15.58 99.8466 15.7387 100.379 16.056C100.92 16.364 101.345 16.8027 101.653 17.372C101.961 17.932 102.115 18.5807 102.115 19.318C102.115 19.3647 102.11 19.416 102.101 19.472C102.101 19.5187 102.101 19.57 102.101 19.626H95.7026V18.884H101.569L101.177 19.178C101.177 18.646 101.06 18.1747 100.827 17.764C100.603 17.344 100.295 17.0173 99.9026 16.784C99.5106 16.5507 99.0579 16.434 98.5446 16.434C98.0406 16.434 97.5879 16.5507 97.1866 16.784C96.7853 17.0173 96.4726 17.344 96.2486 17.764C96.0246 18.184 95.9126 18.6647 95.9126 19.206V19.36C95.9126 19.92 96.0339 20.4147 96.2766 20.844C96.5286 21.264 96.8739 21.5953 97.3126 21.838C97.7606 22.0713 98.2693 22.188 98.8386 22.188C99.2866 22.188 99.7019 22.1087 100.085 21.95C100.477 21.7913 100.813 21.5487 101.093 21.222L101.653 21.866C101.326 22.258 100.915 22.5567 100.421 22.762C99.9353 22.9673 99.3986 23.07 98.8106 23.07Z" fill="#272727"/>
<defs>
<linearGradient id="paint0_linear_1305_577" x1="0" y1="16.4151" x2="15.1879" y2="16.4151" gradientUnits="userSpaceOnUse">
<stop stop-color="#414140"/>
<stop offset="1" stop-color="#9E9E95"/>
</linearGradient>
<linearGradient id="paint1_linear_1305_577" x1="16.2028" y1="9.17022" x2="16.2028" y2="30" gradientUnits="userSpaceOnUse">
<stop stop-color="#3D3D3C"/>
<stop offset="1" stop-color="#ADACA2"/>
</linearGradient>
</defs>
</svg>
