<svg width="216" height="307" viewBox="0 0 216 307" fill="none" xmlns="http://www.w3.org/2000/svg">
<g filter="url(#filter0_d_2196_647)">
<g filter="url(#filter1_d_2196_647)">
<rect x="6.3466" y="13.851" width="203.534" height="149.554" rx="22.0671" fill="#EFEFEF" stroke="#BE534E" stroke-width="3.22934"/>
<path d="M4.73193 165.021L211.496 165.021V288.754H4.73193L4.73193 165.021Z" fill="#F6F3F3"/>
<path d="M45.8371 199.992C45.1521 199.992 44.5192 199.879 43.9383 199.654C43.3574 199.42 42.8546 199.095 42.4298 198.679C42.0049 198.262 41.6711 197.773 41.4284 197.209C41.1943 196.645 41.0772 196.03 41.0772 195.362C41.0772 194.695 41.1943 194.079 41.4284 193.516C41.6711 192.952 42.0049 192.462 42.4298 192.046C42.8633 191.63 43.3705 191.309 43.9513 191.084C44.5322 190.85 45.1651 190.733 45.8501 190.733C46.509 190.733 47.1289 190.845 47.7098 191.071C48.2907 191.287 48.7805 191.617 49.1793 192.059L48.5681 192.67C48.1953 192.289 47.7835 192.016 47.3326 191.851C46.8818 191.678 46.3963 191.591 45.8761 191.591C45.3299 191.591 44.8227 191.686 44.3545 191.877C43.8863 192.059 43.4788 192.323 43.132 192.67C42.7852 193.008 42.5121 193.407 42.3127 193.867C42.122 194.318 42.0266 194.816 42.0266 195.362C42.0266 195.909 42.122 196.411 42.3127 196.871C42.5121 197.322 42.7852 197.721 43.132 198.067C43.4788 198.405 43.8863 198.67 44.3545 198.861C44.8227 199.043 45.3299 199.134 45.8761 199.134C46.3963 199.134 46.8818 199.047 47.3326 198.874C47.7835 198.7 48.1953 198.423 48.5681 198.041L49.1793 198.653C48.7805 199.095 48.2907 199.429 47.7098 199.654C47.1289 199.879 46.5046 199.992 45.8371 199.992ZM53.5141 199.979C52.8551 199.979 52.2612 199.832 51.7324 199.537C51.2122 199.233 50.8004 198.822 50.4969 198.301C50.1935 197.773 50.0417 197.17 50.0417 196.494C50.0417 195.809 50.1935 195.206 50.4969 194.686C50.8004 194.166 51.2122 193.758 51.7324 193.464C52.2526 193.169 52.8465 193.021 53.5141 193.021C54.1903 193.021 54.7885 193.169 55.3087 193.464C55.8376 193.758 56.2494 194.166 56.5442 194.686C56.8477 195.206 56.9994 195.809 56.9994 196.494C56.9994 197.17 56.8477 197.773 56.5442 198.301C56.2494 198.822 55.8376 199.233 55.3087 199.537C54.7799 199.832 54.1816 199.979 53.5141 199.979ZM53.5141 199.16C54.0082 199.16 54.4461 199.051 54.8276 198.835C55.209 198.609 55.5081 198.297 55.7249 197.898C55.9503 197.491 56.063 197.023 56.063 196.494C56.063 195.956 55.9503 195.488 55.7249 195.089C55.5081 194.69 55.209 194.383 54.8276 194.166C54.4461 193.94 54.0126 193.828 53.5271 193.828C53.0415 193.828 52.608 193.94 52.2266 194.166C51.8451 194.383 51.5416 194.69 51.3162 195.089C51.0908 195.488 50.9781 195.956 50.9781 196.494C50.9781 197.023 51.0908 197.491 51.3162 197.898C51.5416 198.297 51.8451 198.609 52.2266 198.835C52.608 199.051 53.0372 199.16 53.5141 199.16ZM67.4158 193.021C67.9706 193.021 68.4518 193.13 68.8593 193.347C69.2755 193.555 69.5963 193.875 69.8217 194.309C70.0558 194.742 70.1728 195.289 70.1728 195.948V199.914H69.2495V196.039C69.2495 195.319 69.0761 194.777 68.7293 194.413C68.3911 194.04 67.9099 193.854 67.2857 193.854C66.8175 193.854 66.41 193.953 66.0632 194.153C65.7251 194.344 65.4607 194.625 65.2699 194.998C65.0879 195.362 64.9968 195.804 64.9968 196.325V199.914H64.0735V196.039C64.0735 195.319 63.9001 194.777 63.5533 194.413C63.2065 194.04 62.721 193.854 62.0967 193.854C61.6372 193.854 61.2341 193.953 60.8873 194.153C60.5405 194.344 60.2717 194.625 60.081 194.998C59.8989 195.362 59.8078 195.804 59.8078 196.325V199.914H58.8845V193.086H59.7688V194.933L59.6258 194.608C59.8339 194.114 60.1677 193.728 60.6272 193.451C61.0953 193.164 61.6459 193.021 62.2788 193.021C62.9464 193.021 63.5143 193.19 63.9824 193.529C64.4506 193.858 64.7541 194.357 64.8928 195.024L64.5287 194.881C64.7281 194.326 65.0792 193.88 65.5821 193.542C66.0936 193.195 66.7048 193.021 67.4158 193.021ZM76.2012 199.979C75.6117 199.979 75.0785 199.845 74.6016 199.576C74.1248 199.298 73.7433 198.904 73.4572 198.392C73.1797 197.872 73.041 197.239 73.041 196.494C73.041 195.748 73.1797 195.12 73.4572 194.608C73.7346 194.088 74.1118 193.693 74.5886 193.425C75.0654 193.156 75.603 193.021 76.2012 193.021C76.8515 193.021 77.4324 193.169 77.9439 193.464C78.4641 193.75 78.8716 194.157 79.1663 194.686C79.4611 195.206 79.6085 195.809 79.6085 196.494C79.6085 197.187 79.4611 197.794 79.1663 198.314C78.8716 198.835 78.4641 199.242 77.9439 199.537C77.4324 199.832 76.8515 199.979 76.2012 199.979ZM72.6769 202.437V193.086H73.5612V195.141L73.4702 196.507L73.6002 197.885V202.437H72.6769ZM76.1362 199.16C76.6217 199.16 77.0552 199.051 77.4367 198.835C77.8182 198.609 78.1216 198.297 78.347 197.898C78.5725 197.491 78.6852 197.023 78.6852 196.494C78.6852 195.965 78.5725 195.501 78.347 195.102C78.1216 194.703 77.8182 194.391 77.4367 194.166C77.0552 193.94 76.6217 193.828 76.1362 193.828C75.6507 193.828 75.2128 193.94 74.8227 194.166C74.4412 194.391 74.1378 194.703 73.9123 195.102C73.6956 195.501 73.5872 195.965 73.5872 196.494C73.5872 197.023 73.6956 197.491 73.9123 197.898C74.1378 198.297 74.4412 198.609 74.8227 198.835C75.2128 199.051 75.6507 199.16 76.1362 199.16ZM85.7313 199.914V198.405L85.6923 198.158V195.635C85.6923 195.055 85.5276 194.608 85.1981 194.296C84.8773 193.984 84.3961 193.828 83.7546 193.828C83.3124 193.828 82.8919 193.901 82.4931 194.049C82.0943 194.196 81.7561 194.391 81.4787 194.634L81.0625 193.945C81.4093 193.65 81.8255 193.425 82.311 193.269C82.7965 193.104 83.3081 193.021 83.8456 193.021C84.7299 193.021 85.4105 193.243 85.8874 193.685C86.3729 194.118 86.6157 194.781 86.6157 195.674V199.914H85.7313ZM83.3774 199.979C82.8659 199.979 82.4194 199.897 82.0379 199.732C81.6651 199.559 81.379 199.325 81.1796 199.03C80.9802 198.726 80.8805 198.379 80.8805 197.989C80.8805 197.634 80.9628 197.313 81.1276 197.027C81.301 196.732 81.5784 196.498 81.9599 196.325C82.35 196.143 82.8702 196.052 83.5205 196.052H85.8744V196.741H83.5465C82.8876 196.741 82.4281 196.858 82.168 197.092C81.9165 197.326 81.7908 197.617 81.7908 197.963C81.7908 198.353 81.9425 198.666 82.246 198.9C82.5494 199.134 82.9743 199.251 83.5205 199.251C84.0407 199.251 84.4872 199.134 84.86 198.9C85.2415 198.657 85.5189 198.31 85.6923 197.859L85.9004 198.497C85.727 198.947 85.4235 199.307 84.99 199.576C84.5652 199.845 84.0277 199.979 83.3774 199.979ZM91.9587 199.979C91.2824 199.979 90.6755 199.832 90.138 199.537C89.6091 199.233 89.1929 198.822 88.8895 198.301C88.586 197.773 88.4343 197.17 88.4343 196.494C88.4343 195.809 88.586 195.206 88.8895 194.686C89.1929 194.166 89.6091 193.758 90.138 193.464C90.6755 193.169 91.2824 193.021 91.9587 193.021C92.5396 193.021 93.0641 193.134 93.5323 193.36C94.0004 193.585 94.3689 193.923 94.6377 194.374L93.9484 194.842C93.7143 194.495 93.4239 194.24 93.0771 194.075C92.7303 193.91 92.3531 193.828 91.9457 193.828C91.4601 193.828 91.0223 193.94 90.6322 194.166C90.242 194.383 89.9342 194.69 89.7088 195.089C89.4834 195.488 89.3707 195.956 89.3707 196.494C89.3707 197.031 89.4834 197.499 89.7088 197.898C89.9342 198.297 90.242 198.609 90.6322 198.835C91.0223 199.051 91.4601 199.16 91.9457 199.16C92.3531 199.16 92.7303 199.077 93.0771 198.913C93.4239 198.748 93.7143 198.497 93.9484 198.158L94.6377 198.627C94.3689 199.069 94.0004 199.407 93.5323 199.641C93.0641 199.866 92.5396 199.979 91.9587 199.979ZM98.6866 199.979C98.045 199.979 97.5508 199.806 97.204 199.459C96.8572 199.112 96.6838 198.622 96.6838 197.989V191.578H97.6072V197.937C97.6072 198.336 97.7069 198.644 97.9063 198.861C98.1144 199.077 98.4092 199.186 98.7906 199.186C99.1981 199.186 99.5363 199.069 99.805 198.835L100.13 199.498C99.9481 199.663 99.727 199.784 99.4669 199.862C99.2155 199.94 98.9554 199.979 98.6866 199.979ZM95.4614 193.854V193.086H99.688V193.854H95.4614ZM105.41 199.914V190.811H106.372V199.914H105.41ZM109.334 199.914V190.811H110.127L114.289 197.911H113.873L117.995 190.811H118.789V199.914H117.865V192.254H118.086L114.289 198.757H113.834L110.01 192.254H110.257V199.914H109.334ZM121.755 199.914V190.811H122.717V199.082H127.815V199.914H121.755ZM132.817 199.914V190.811H136.224C136.996 190.811 137.659 190.936 138.214 191.188C138.769 191.43 139.193 191.786 139.488 192.254C139.792 192.714 139.943 193.273 139.943 193.932C139.943 194.573 139.792 195.128 139.488 195.596C139.193 196.056 138.769 196.411 138.214 196.663C137.659 196.906 136.996 197.027 136.224 197.027H133.35L133.779 196.585V199.914H132.817ZM139.033 199.914L136.692 196.611H137.733L140.086 199.914H139.033ZM133.779 196.663L133.35 196.208H136.198C137.108 196.208 137.798 196.008 138.266 195.609C138.743 195.211 138.981 194.651 138.981 193.932C138.981 193.204 138.743 192.64 138.266 192.241C137.798 191.842 137.108 191.643 136.198 191.643H133.35L133.779 191.188V196.663ZM144.803 199.979C144.144 199.979 143.55 199.832 143.021 199.537C142.501 199.233 142.089 198.822 141.786 198.301C141.482 197.773 141.33 197.17 141.33 196.494C141.33 195.809 141.482 195.206 141.786 194.686C142.089 194.166 142.501 193.758 143.021 193.464C143.541 193.169 144.135 193.021 144.803 193.021C145.479 193.021 146.077 193.169 146.597 193.464C147.126 193.758 147.538 194.166 147.833 194.686C148.136 195.206 148.288 195.809 148.288 196.494C148.288 197.17 148.136 197.773 147.833 198.301C147.538 198.822 147.126 199.233 146.597 199.537C146.069 199.832 145.47 199.979 144.803 199.979ZM144.803 199.16C145.297 199.16 145.735 199.051 146.116 198.835C146.498 198.609 146.797 198.297 147.014 197.898C147.239 197.491 147.352 197.023 147.352 196.494C147.352 195.956 147.239 195.488 147.014 195.089C146.797 194.69 146.498 194.383 146.116 194.166C145.735 193.94 145.301 193.828 144.816 193.828C144.33 193.828 143.897 193.94 143.515 194.166C143.134 194.383 142.83 194.69 142.605 195.089C142.38 195.488 142.267 195.956 142.267 196.494C142.267 197.023 142.38 197.491 142.605 197.898C142.83 198.297 143.134 198.609 143.515 198.835C143.897 199.051 144.326 199.16 144.803 199.16ZM152.995 199.979C152.414 199.979 151.907 199.871 151.474 199.654C151.04 199.437 150.702 199.112 150.459 198.679C150.225 198.245 150.108 197.703 150.108 197.053V193.086H151.032V196.949C151.032 197.677 151.209 198.228 151.565 198.601C151.929 198.965 152.436 199.147 153.086 199.147C153.563 199.147 153.975 199.051 154.322 198.861C154.677 198.661 154.946 198.375 155.128 198.002C155.319 197.63 155.414 197.183 155.414 196.663V193.086H156.338V199.914H155.453V198.041L155.596 198.379C155.38 198.882 155.041 199.277 154.582 199.563C154.131 199.84 153.602 199.979 152.995 199.979ZM162.396 193.021C162.951 193.021 163.437 193.13 163.853 193.347C164.278 193.555 164.607 193.875 164.841 194.309C165.084 194.742 165.205 195.289 165.205 195.948V199.914H164.282V196.039C164.282 195.319 164.1 194.777 163.736 194.413C163.38 194.04 162.877 193.854 162.227 193.854C161.742 193.854 161.317 193.953 160.953 194.153C160.597 194.344 160.32 194.625 160.12 194.998C159.93 195.362 159.834 195.804 159.834 196.325V199.914H158.911V193.086H159.795V194.959L159.652 194.608C159.869 194.114 160.216 193.728 160.693 193.451C161.169 193.164 161.737 193.021 162.396 193.021ZM170.418 199.979C169.767 199.979 169.182 199.832 168.662 199.537C168.15 199.242 167.747 198.835 167.452 198.314C167.158 197.786 167.01 197.179 167.01 196.494C167.01 195.8 167.158 195.193 167.452 194.673C167.747 194.153 168.15 193.75 168.662 193.464C169.182 193.169 169.767 193.021 170.418 193.021C171.016 193.021 171.549 193.156 172.017 193.425C172.494 193.693 172.871 194.088 173.149 194.608C173.435 195.12 173.578 195.748 173.578 196.494C173.578 197.231 173.439 197.859 173.162 198.379C172.884 198.9 172.507 199.298 172.03 199.576C171.562 199.845 171.024 199.979 170.418 199.979ZM170.483 199.16C170.968 199.16 171.402 199.051 171.783 198.835C172.173 198.609 172.477 198.297 172.693 197.898C172.919 197.491 173.032 197.023 173.032 196.494C173.032 195.956 172.919 195.488 172.693 195.089C172.477 194.69 172.173 194.383 171.783 194.166C171.402 193.94 170.968 193.828 170.483 193.828C170.006 193.828 169.577 193.94 169.195 194.166C168.814 194.383 168.51 194.69 168.285 195.089C168.059 195.488 167.947 195.956 167.947 196.494C167.947 197.023 168.059 197.491 168.285 197.898C168.51 198.297 168.814 198.609 169.195 198.835C169.577 199.051 170.006 199.16 170.483 199.16ZM173.058 199.914V197.859L173.149 196.481L173.019 195.102V190.264H173.942V199.914H173.058ZM21.4718 221.992C20.7869 221.992 20.154 221.879 19.5731 221.654C18.9922 221.42 18.4893 221.095 18.0645 220.679C17.6397 220.262 17.3059 219.773 17.0631 219.209C16.829 218.645 16.712 218.03 16.712 217.362C16.712 216.695 16.829 216.079 17.0631 215.516C17.3059 214.952 17.6397 214.462 18.0645 214.046C18.498 213.63 19.0052 213.309 19.5861 213.084C20.167 212.85 20.7999 212.733 21.4848 212.733C22.1437 212.733 22.7636 212.845 23.3445 213.071C23.9254 213.287 24.4153 213.617 24.8141 214.059L24.2028 214.67C23.83 214.289 23.4182 214.016 22.9674 213.851C22.5165 213.678 22.031 213.591 21.5108 213.591C20.9646 213.591 20.4574 213.686 19.9892 213.877C19.5211 214.059 19.1136 214.323 18.7668 214.67C18.42 215.008 18.1469 215.407 17.9475 215.867C17.7567 216.318 17.6613 216.816 17.6613 217.362C17.6613 217.909 17.7567 218.411 17.9475 218.871C18.1469 219.322 18.42 219.721 18.7668 220.067C19.1136 220.405 19.5211 220.67 19.9892 220.861C20.4574 221.043 20.9646 221.134 21.5108 221.134C22.031 221.134 22.5165 221.047 22.9674 220.874C23.4182 220.7 23.83 220.423 24.2028 220.041L24.8141 220.653C24.4153 221.095 23.9254 221.429 23.3445 221.654C22.7636 221.879 22.1394 221.992 21.4718 221.992ZM29.1488 221.979C28.4899 221.979 27.896 221.832 27.3671 221.537C26.8469 221.233 26.4351 220.822 26.1316 220.301C25.8282 219.773 25.6765 219.17 25.6765 218.494C25.6765 217.809 25.8282 217.206 26.1316 216.686C26.4351 216.166 26.8469 215.758 27.3671 215.464C27.8873 215.169 28.4812 215.021 29.1488 215.021C29.8251 215.021 30.4233 215.169 30.9435 215.464C31.4724 215.758 31.8842 216.166 32.179 216.686C32.4824 217.206 32.6341 217.809 32.6341 218.494C32.6341 219.17 32.4824 219.773 32.179 220.301C31.8842 220.822 31.4724 221.233 30.9435 221.537C30.4146 221.832 29.8164 221.979 29.1488 221.979ZM29.1488 221.16C29.643 221.16 30.0808 221.051 30.4623 220.835C30.8438 220.609 31.1429 220.297 31.3596 219.898C31.5851 219.491 31.6978 219.023 31.6978 218.494C31.6978 217.956 31.5851 217.488 31.3596 217.089C31.1429 216.69 30.8438 216.383 30.4623 216.166C30.0808 215.94 29.6473 215.828 29.1618 215.828C28.6763 215.828 28.2428 215.94 27.8613 216.166C27.4798 216.383 27.1764 216.69 26.951 217.089C26.7255 217.488 26.6128 217.956 26.6128 218.494C26.6128 219.023 26.7255 219.491 26.951 219.898C27.1764 220.297 27.4798 220.609 27.8613 220.835C28.2428 221.051 28.6719 221.16 29.1488 221.16ZM38.0046 215.021C38.5594 215.021 39.045 215.13 39.4611 215.347C39.886 215.555 40.2154 215.875 40.4495 216.309C40.6923 216.742 40.8136 217.289 40.8136 217.948V221.914H39.8903V218.039C39.8903 217.319 39.7082 216.777 39.3441 216.413C38.9886 216.04 38.4858 215.854 37.8355 215.854C37.35 215.854 36.9252 215.953 36.561 216.153C36.2055 216.344 35.9281 216.625 35.7287 216.998C35.538 217.362 35.4426 217.804 35.4426 218.325V221.914H34.5192V215.086H35.4036V216.959L35.2605 216.608C35.4773 216.114 35.8241 215.728 36.3009 215.451C36.7778 215.164 37.3457 215.021 38.0046 215.021ZM45.4666 221.979C44.825 221.979 44.3308 221.806 43.984 221.459C43.6372 221.112 43.4638 220.622 43.4638 219.989V213.578H44.3872V219.937C44.3872 220.336 44.4869 220.644 44.6863 220.861C44.8944 221.077 45.1891 221.186 45.5706 221.186C45.9781 221.186 46.3162 221.069 46.585 220.835L46.9101 221.498C46.7281 221.663 46.507 221.784 46.2469 221.862C45.9954 221.94 45.7353 221.979 45.4666 221.979ZM42.2413 215.854V215.086H46.468V215.854H42.2413ZM52.8696 221.914V220.405L52.8306 220.158V217.635C52.8306 217.055 52.6659 216.608 52.3364 216.296C52.0157 215.984 51.5345 215.828 50.8929 215.828C50.4507 215.828 50.0302 215.901 49.6314 216.049C49.2326 216.196 48.8945 216.391 48.617 216.634L48.2009 215.945C48.5477 215.65 48.9638 215.425 49.4493 215.269C49.9349 215.104 50.4464 215.021 50.9839 215.021C51.8683 215.021 52.5489 215.243 53.0257 215.685C53.5112 216.118 53.754 216.781 53.754 217.674V221.914H52.8696ZM50.5158 221.979C50.0042 221.979 49.5577 221.897 49.1762 221.732C48.8034 221.559 48.5173 221.325 48.3179 221.03C48.1185 220.726 48.0188 220.379 48.0188 219.989C48.0188 219.634 48.1012 219.313 48.2659 219.027C48.4393 218.732 48.7167 218.498 49.0982 218.325C49.4884 218.143 50.0086 218.052 50.6588 218.052H53.0127V218.741H50.6848C50.0259 218.741 49.5664 218.858 49.3063 219.092C49.0549 219.326 48.9291 219.617 48.9291 219.963C48.9291 220.353 49.0809 220.666 49.3843 220.9C49.6878 221.134 50.1126 221.251 50.6588 221.251C51.179 221.251 51.6255 221.134 51.9983 220.9C52.3798 220.657 52.6572 220.31 52.8306 219.859L53.0387 220.497C52.8653 220.947 52.5619 221.307 52.1284 221.576C51.7035 221.845 51.166 221.979 50.5158 221.979ZM56.2619 221.914V215.086H57.1853V221.914H56.2619ZM56.7301 213.578C56.5394 213.578 56.379 213.513 56.2489 213.383C56.1189 213.253 56.0538 213.097 56.0538 212.915C56.0538 212.733 56.1189 212.581 56.2489 212.459C56.379 212.329 56.5394 212.264 56.7301 212.264C56.9208 212.264 57.0812 212.325 57.2113 212.446C57.3413 212.568 57.4064 212.72 57.4064 212.902C57.4064 213.092 57.3413 213.253 57.2113 213.383C57.0899 213.513 56.9295 213.578 56.7301 213.578ZM63.2398 215.021C63.7947 215.021 64.2802 215.13 64.6963 215.347C65.1212 215.555 65.4506 215.875 65.6847 216.309C65.9275 216.742 66.0489 217.289 66.0489 217.948V221.914H65.1255V218.039C65.1255 217.319 64.9434 216.777 64.5793 216.413C64.2238 216.04 63.721 215.854 63.0707 215.854C62.5852 215.854 62.1604 215.953 61.7962 216.153C61.4408 216.344 61.1633 216.625 60.9639 216.998C60.7732 217.362 60.6778 217.804 60.6778 218.325V221.914H59.7545V215.086H60.6388V216.959L60.4957 216.608C60.7125 216.114 61.0593 215.728 61.5361 215.451C62.013 215.164 62.5809 215.021 63.2398 215.021ZM71.4431 221.979C70.7321 221.979 70.1079 221.832 69.5704 221.537C69.0328 221.233 68.6123 220.822 68.3089 220.301C68.0054 219.773 67.8537 219.17 67.8537 218.494C67.8537 217.817 67.9968 217.219 68.2829 216.699C68.5776 216.179 68.9765 215.771 69.4793 215.477C69.9909 215.173 70.5631 215.021 71.196 215.021C71.8376 215.021 72.4054 215.169 72.8996 215.464C73.4025 215.75 73.797 216.157 74.0831 216.686C74.3692 217.206 74.5122 217.809 74.5122 218.494C74.5122 218.537 74.5079 218.585 74.4992 218.637C74.4992 218.68 74.4992 218.728 74.4992 218.78H68.556V218.091H74.0051L73.6409 218.364C73.6409 217.87 73.5325 217.432 73.3158 217.05C73.1077 216.66 72.8216 216.357 72.4575 216.14C72.0933 215.923 71.6728 215.815 71.196 215.815C70.7278 215.815 70.3073 215.923 69.9345 216.14C69.5617 216.357 69.2712 216.66 69.0632 217.05C68.8551 217.44 68.751 217.887 68.751 218.39V218.533C68.751 219.053 68.8638 219.512 69.0892 219.911C69.3233 220.301 69.6441 220.609 70.0515 220.835C70.4677 221.051 70.9402 221.16 71.4691 221.16C71.8852 221.16 72.2711 221.086 72.6265 220.939C72.9907 220.791 73.3028 220.566 73.5629 220.262L74.0831 220.861C73.7796 221.225 73.3982 221.502 72.9386 221.693C72.4878 221.884 71.9893 221.979 71.4431 221.979ZM76.3917 221.914V215.086H77.276V216.946L77.185 216.621C77.3757 216.101 77.6965 215.706 78.1473 215.438C78.5982 215.16 79.1574 215.021 79.825 215.021V215.919C79.7903 215.919 79.7556 215.919 79.7209 215.919C79.6863 215.91 79.6516 215.906 79.6169 215.906C78.8973 215.906 78.3337 216.127 77.9262 216.569C77.5188 217.003 77.315 217.622 77.315 218.429V221.914H76.3917ZM88.5394 221.979C87.9499 221.979 87.4167 221.845 86.9398 221.576C86.463 221.298 86.0815 220.904 85.7954 220.392C85.5179 219.872 85.3792 219.239 85.3792 218.494C85.3792 217.748 85.5179 217.12 85.7954 216.608C86.0728 216.088 86.45 215.693 86.9268 215.425C87.4037 215.156 87.9412 215.021 88.5394 215.021C89.1897 215.021 89.7706 215.169 90.2821 215.464C90.8023 215.75 91.2098 216.157 91.5046 216.686C91.7993 217.206 91.9467 217.809 91.9467 218.494C91.9467 219.187 91.7993 219.794 91.5046 220.314C91.2098 220.835 90.8023 221.242 90.2821 221.537C89.7706 221.832 89.1897 221.979 88.5394 221.979ZM85.0151 224.437V215.086H85.8994V217.141L85.8084 218.507L85.9384 219.885V224.437H85.0151ZM88.4744 221.16C88.9599 221.16 89.3934 221.051 89.7749 220.835C90.1564 220.609 90.4598 220.297 90.6852 219.898C90.9107 219.491 91.0234 219.023 91.0234 218.494C91.0234 217.965 90.9107 217.501 90.6852 217.102C90.4598 216.703 90.1564 216.391 89.7749 216.166C89.3934 215.94 88.9599 215.828 88.4744 215.828C87.9889 215.828 87.551 215.94 87.1609 216.166C86.7794 216.391 86.476 216.703 86.2505 217.102C86.0338 217.501 85.9254 217.965 85.9254 218.494C85.9254 219.023 86.0338 219.491 86.2505 219.898C86.476 220.297 86.7794 220.609 87.1609 220.835C87.551 221.051 87.9889 221.16 88.4744 221.16ZM96.7291 221.979C96.0182 221.979 95.3939 221.832 94.8564 221.537C94.3188 221.233 93.8983 220.822 93.5949 220.301C93.2914 219.773 93.1397 219.17 93.1397 218.494C93.1397 217.817 93.2828 217.219 93.5689 216.699C93.8637 216.179 94.2625 215.771 94.7653 215.477C95.2769 215.173 95.8491 215.021 96.482 215.021C97.1236 215.021 97.6915 215.169 98.1857 215.464C98.6885 215.75 99.083 216.157 99.3691 216.686C99.6552 217.206 99.7983 217.809 99.7983 218.494C99.7983 218.537 99.7939 218.585 99.7853 218.637C99.7853 218.68 99.7853 218.728 99.7853 218.78H93.842V218.091H99.2911L98.9269 218.364C98.9269 217.87 98.8186 217.432 98.6018 217.05C98.3937 216.66 98.1076 216.357 97.7435 216.14C97.3793 215.923 96.9588 215.815 96.482 215.815C96.0138 215.815 95.5933 215.923 95.2205 216.14C94.8477 216.357 94.5573 216.66 94.3492 217.05C94.1411 217.44 94.0371 217.887 94.0371 218.39V218.533C94.0371 219.053 94.1498 219.512 94.3752 219.911C94.6093 220.301 94.9301 220.609 95.3376 220.835C95.7537 221.051 96.2262 221.16 96.7551 221.16C97.1713 221.16 97.5571 221.086 97.9125 220.939C98.2767 220.791 98.5888 220.566 98.8489 220.262L99.3691 220.861C99.0657 221.225 98.6842 221.502 98.2247 221.693C97.7738 221.884 97.2753 221.979 96.7291 221.979ZM101.678 221.914V215.086H102.562V216.946L102.471 216.621C102.662 216.101 102.983 215.706 103.433 215.438C103.884 215.16 104.443 215.021 105.111 215.021V215.919C105.076 215.919 105.042 215.919 105.007 215.919C104.972 215.91 104.938 215.906 104.903 215.906C104.183 215.906 103.62 216.127 103.212 216.569C102.805 217.003 102.601 217.622 102.601 218.429V221.914H101.678ZM107.054 221.914V214.228C107.054 213.621 107.231 213.131 107.587 212.759C107.942 212.386 108.454 212.199 109.121 212.199C109.381 212.199 109.633 212.234 109.876 212.303C110.118 212.373 110.322 212.481 110.487 212.629L110.175 213.318C110.045 213.205 109.893 213.123 109.72 213.071C109.546 213.01 109.36 212.98 109.16 212.98C108.77 212.98 108.471 213.088 108.263 213.305C108.055 213.522 107.951 213.842 107.951 214.267V215.308L107.977 215.737V221.914H107.054ZM105.831 215.854V215.086H110.058V215.854H105.831ZM114.09 221.979C113.379 221.979 112.755 221.832 112.218 221.537C111.68 221.233 111.259 220.822 110.956 220.301C110.653 219.773 110.501 219.17 110.501 218.494C110.501 217.817 110.644 217.219 110.93 216.699C111.225 216.179 111.624 215.771 112.126 215.477C112.638 215.173 113.21 215.021 113.843 215.021C114.485 215.021 115.053 215.169 115.547 215.464C116.05 215.75 116.444 216.157 116.73 216.686C117.016 217.206 117.159 217.809 117.159 218.494C117.159 218.537 117.155 218.585 117.146 218.637C117.146 218.68 117.146 218.728 117.146 218.78H111.203V218.091H116.652L116.288 218.364C116.288 217.87 116.18 217.432 115.963 217.05C115.755 216.66 115.469 216.357 115.105 216.14C114.74 215.923 114.32 215.815 113.843 215.815C113.375 215.815 112.954 215.923 112.582 216.14C112.209 216.357 111.918 216.66 111.71 217.05C111.502 217.44 111.398 217.887 111.398 218.39V218.533C111.398 219.053 111.511 219.512 111.736 219.911C111.97 220.301 112.291 220.609 112.699 220.835C113.115 221.051 113.587 221.16 114.116 221.16C114.532 221.16 114.918 221.086 115.274 220.939C115.638 220.791 115.95 220.566 116.21 220.262L116.73 220.861C116.427 221.225 116.045 221.502 115.586 221.693C115.135 221.884 114.636 221.979 114.09 221.979ZM121.874 221.979C121.198 221.979 120.591 221.832 120.053 221.537C119.524 221.233 119.108 220.822 118.805 220.301C118.501 219.773 118.35 219.17 118.35 218.494C118.35 217.809 118.501 217.206 118.805 216.686C119.108 216.166 119.524 215.758 120.053 215.464C120.591 215.169 121.198 215.021 121.874 215.021C122.455 215.021 122.979 215.134 123.447 215.36C123.916 215.585 124.284 215.923 124.553 216.374L123.864 216.842C123.63 216.495 123.339 216.24 122.992 216.075C122.646 215.91 122.268 215.828 121.861 215.828C121.375 215.828 120.938 215.94 120.547 216.166C120.157 216.383 119.849 216.69 119.624 217.089C119.399 217.488 119.286 217.956 119.286 218.494C119.286 219.031 119.399 219.499 119.624 219.898C119.849 220.297 120.157 220.609 120.547 220.835C120.938 221.051 121.375 221.16 121.861 221.16C122.268 221.16 122.646 221.077 122.992 220.913C123.339 220.748 123.63 220.497 123.864 220.158L124.553 220.627C124.284 221.069 123.916 221.407 123.447 221.641C122.979 221.866 122.455 221.979 121.874 221.979ZM128.602 221.979C127.96 221.979 127.466 221.806 127.119 221.459C126.772 221.112 126.599 220.622 126.599 219.989V213.578H127.522V219.937C127.522 220.336 127.622 220.644 127.822 220.861C128.03 221.077 128.324 221.186 128.706 221.186C129.113 221.186 129.451 221.069 129.72 220.835L130.045 221.498C129.863 221.663 129.642 221.784 129.382 221.862C129.131 221.94 128.871 221.979 128.602 221.979ZM125.377 215.854V215.086H129.603V215.854H125.377ZM135.286 221.914V214.228C135.286 213.621 135.464 213.131 135.819 212.759C136.175 212.386 136.686 212.199 137.354 212.199C137.614 212.199 137.865 212.234 138.108 212.303C138.351 212.373 138.555 212.481 138.719 212.629L138.407 213.318C138.277 213.205 138.125 213.123 137.952 213.071C137.779 213.01 137.592 212.98 137.393 212.98C137.003 212.98 136.704 213.088 136.495 213.305C136.287 213.522 136.183 213.842 136.183 214.267V215.308L136.209 215.737V221.914H135.286ZM134.064 215.854V215.086H138.29V215.854H134.064ZM142.206 221.979C141.547 221.979 140.953 221.832 140.424 221.537C139.904 221.233 139.492 220.822 139.188 220.301C138.885 219.773 138.733 219.17 138.733 218.494C138.733 217.809 138.885 217.206 139.188 216.686C139.492 216.166 139.904 215.758 140.424 215.464C140.944 215.169 141.538 215.021 142.206 215.021C142.882 215.021 143.48 215.169 144 215.464C144.529 215.758 144.941 216.166 145.236 216.686C145.539 217.206 145.691 217.809 145.691 218.494C145.691 219.17 145.539 219.773 145.236 220.301C144.941 220.822 144.529 221.233 144 221.537C143.471 221.832 142.873 221.979 142.206 221.979ZM142.206 221.16C142.7 221.16 143.138 221.051 143.519 220.835C143.901 220.609 144.2 220.297 144.416 219.898C144.642 219.491 144.755 219.023 144.755 218.494C144.755 217.956 144.642 217.488 144.416 217.089C144.2 216.69 143.901 216.383 143.519 216.166C143.138 215.94 142.704 215.828 142.219 215.828C141.733 215.828 141.3 215.94 140.918 216.166C140.537 216.383 140.233 216.69 140.008 217.089C139.782 217.488 139.67 217.956 139.67 218.494C139.67 219.023 139.782 219.491 140.008 219.898C140.233 220.297 140.537 220.609 140.918 220.835C141.3 221.051 141.729 221.16 142.206 221.16ZM147.576 221.914V215.086H148.46V216.946L148.369 216.621C148.56 216.101 148.881 215.706 149.332 215.438C149.783 215.16 150.342 215.021 151.009 215.021V215.919C150.975 215.919 150.94 215.919 150.905 215.919C150.871 215.91 150.836 215.906 150.801 215.906C150.082 215.906 149.518 216.127 149.111 216.569C148.703 217.003 148.499 217.622 148.499 218.429V221.914H147.576ZM158.072 221.992C157.5 221.992 156.954 221.914 156.434 221.758C155.922 221.602 155.519 221.411 155.224 221.186L155.744 220.197C156.039 220.397 156.403 220.566 156.837 220.705C157.27 220.843 157.712 220.913 158.163 220.913C158.744 220.913 159.16 220.83 159.412 220.666C159.672 220.501 159.802 220.271 159.802 219.976C159.802 219.76 159.724 219.591 159.568 219.469C159.412 219.348 159.204 219.257 158.944 219.196C158.692 219.135 158.41 219.083 158.098 219.04C157.786 218.988 157.474 218.927 157.162 218.858C156.85 218.78 156.564 218.676 156.304 218.546C156.043 218.407 155.835 218.221 155.679 217.987C155.523 217.744 155.445 217.423 155.445 217.024C155.445 216.608 155.562 216.244 155.796 215.932C156.03 215.62 156.36 215.381 156.785 215.217C157.218 215.043 157.73 214.956 158.319 214.956C158.77 214.956 159.225 215.013 159.685 215.125C160.153 215.23 160.534 215.381 160.829 215.581L160.296 216.569C159.984 216.361 159.659 216.218 159.321 216.14C158.983 216.062 158.644 216.023 158.306 216.023C157.76 216.023 157.353 216.114 157.084 216.296C156.815 216.469 156.681 216.695 156.681 216.972C156.681 217.206 156.759 217.388 156.915 217.518C157.079 217.64 157.288 217.735 157.539 217.804C157.799 217.874 158.085 217.935 158.397 217.987C158.709 218.03 159.022 218.091 159.334 218.169C159.646 218.238 159.928 218.338 160.179 218.468C160.439 218.598 160.647 218.78 160.803 219.014C160.968 219.248 161.05 219.56 161.05 219.95C161.05 220.366 160.929 220.726 160.686 221.03C160.443 221.333 160.101 221.572 159.659 221.745C159.217 221.91 158.688 221.992 158.072 221.992ZM162.611 221.914V215.021H163.859V221.914H162.611ZM163.235 213.695C162.992 213.695 162.788 213.617 162.624 213.461C162.468 213.305 162.39 213.114 162.39 212.889C162.39 212.655 162.468 212.459 162.624 212.303C162.788 212.147 162.992 212.069 163.235 212.069C163.478 212.069 163.677 212.147 163.833 212.303C163.998 212.451 164.08 212.637 164.08 212.863C164.08 213.097 164.002 213.296 163.846 213.461C163.69 213.617 163.486 213.695 163.235 213.695ZM169.923 214.956C170.487 214.956 170.981 215.065 171.406 215.282C171.839 215.498 172.177 215.828 172.42 216.27C172.663 216.712 172.784 217.271 172.784 217.948V221.914H171.536V218.091C171.536 217.423 171.371 216.92 171.042 216.582C170.721 216.244 170.266 216.075 169.676 216.075C169.234 216.075 168.848 216.162 168.519 216.335C168.189 216.508 167.934 216.764 167.751 217.102C167.578 217.44 167.491 217.861 167.491 218.364V221.914H166.243V215.021H167.439V216.881L167.244 216.387C167.47 215.936 167.816 215.585 168.285 215.334C168.753 215.082 169.299 214.956 169.923 214.956ZM178.112 224.515C177.479 224.515 176.864 224.424 176.265 224.242C175.676 224.069 175.195 223.817 174.822 223.488L175.42 222.525C175.741 222.803 176.135 223.019 176.603 223.176C177.072 223.34 177.561 223.423 178.073 223.423C178.888 223.423 179.486 223.232 179.868 222.85C180.249 222.469 180.44 221.888 180.44 221.108V219.651L180.57 218.286L180.505 216.907V215.021H181.688V220.978C181.688 222.192 181.385 223.085 180.778 223.657C180.171 224.229 179.282 224.515 178.112 224.515ZM177.956 221.628C177.288 221.628 176.69 221.489 176.161 221.212C175.641 220.926 175.225 220.531 174.913 220.028C174.609 219.525 174.458 218.945 174.458 218.286C174.458 217.618 174.609 217.037 174.913 216.543C175.225 216.04 175.641 215.65 176.161 215.373C176.69 215.095 177.288 214.956 177.956 214.956C178.546 214.956 179.083 215.078 179.569 215.321C180.054 215.555 180.44 215.919 180.726 216.413C181.021 216.907 181.168 217.531 181.168 218.286C181.168 219.031 181.021 219.651 180.726 220.145C180.44 220.64 180.054 221.012 179.569 221.264C179.083 221.507 178.546 221.628 177.956 221.628ZM178.099 220.536C178.559 220.536 178.966 220.44 179.322 220.249C179.677 220.059 179.954 219.794 180.154 219.456C180.362 219.118 180.466 218.728 180.466 218.286C180.466 217.844 180.362 217.453 180.154 217.115C179.954 216.777 179.677 216.517 179.322 216.335C178.966 216.144 178.559 216.049 178.099 216.049C177.64 216.049 177.228 216.144 176.864 216.335C176.508 216.517 176.226 216.777 176.018 217.115C175.819 217.453 175.719 217.844 175.719 218.286C175.719 218.728 175.819 219.118 176.018 219.456C176.226 219.794 176.508 220.059 176.864 220.249C177.228 220.44 177.64 220.536 178.099 220.536ZM184.074 221.914V212.264H185.322V221.914H184.074ZM190.775 221.992C190.038 221.992 189.388 221.84 188.825 221.537C188.27 221.233 187.836 220.817 187.524 220.288C187.221 219.76 187.069 219.153 187.069 218.468C187.069 217.783 187.216 217.176 187.511 216.647C187.815 216.118 188.226 215.706 188.747 215.412C189.275 215.108 189.869 214.956 190.528 214.956C191.196 214.956 191.785 215.104 192.297 215.399C192.808 215.693 193.207 216.11 193.493 216.647C193.788 217.176 193.936 217.796 193.936 218.507C193.936 218.559 193.931 218.619 193.922 218.689C193.922 218.758 193.918 218.823 193.909 218.884H188.044V217.987H193.259L192.752 218.299C192.761 217.857 192.67 217.462 192.479 217.115C192.288 216.768 192.024 216.5 191.686 216.309C191.356 216.11 190.97 216.01 190.528 216.01C190.095 216.01 189.709 216.11 189.371 216.309C189.033 216.5 188.768 216.773 188.577 217.128C188.387 217.475 188.291 217.874 188.291 218.325V218.533C188.291 218.992 188.395 219.404 188.603 219.768C188.82 220.124 189.119 220.401 189.501 220.601C189.882 220.8 190.32 220.9 190.814 220.9C191.222 220.9 191.59 220.83 191.92 220.692C192.258 220.553 192.553 220.345 192.804 220.067L193.493 220.874C193.181 221.238 192.791 221.515 192.323 221.706C191.863 221.897 191.348 221.992 190.775 221.992ZM195.354 218.884V217.804H198.852V218.884H195.354ZM17.5513 243.992C16.979 243.992 16.4328 243.914 15.9126 243.758C15.4011 243.602 14.998 243.411 14.7032 243.186L15.2234 242.197C15.5181 242.397 15.8823 242.566 16.3158 242.705C16.7493 242.843 17.1915 242.913 17.6423 242.913C18.2232 242.913 18.6393 242.83 18.8908 242.666C19.1509 242.501 19.2809 242.271 19.2809 241.976C19.2809 241.76 19.2029 241.591 19.0468 241.469C18.8908 241.348 18.6827 241.257 18.4226 241.196C18.1712 241.135 17.8894 241.083 17.5773 241.04C17.2651 240.988 16.953 240.927 16.6409 240.858C16.3288 240.78 16.0427 240.676 15.7826 240.546C15.5225 240.407 15.3144 240.221 15.1583 239.987C15.0023 239.744 14.9243 239.423 14.9243 239.024C14.9243 238.608 15.0413 238.244 15.2754 237.932C15.5095 237.62 15.8389 237.381 16.2638 237.217C16.6973 237.043 17.2088 236.956 17.7984 236.956C18.2492 236.956 18.7044 237.013 19.1639 237.125C19.6321 237.23 20.0135 237.381 20.3083 237.581L19.7751 238.569C19.463 238.361 19.1379 238.218 18.7997 238.14C18.4616 238.062 18.1235 238.023 17.7853 238.023C17.2391 238.023 16.8317 238.114 16.5629 238.296C16.2941 238.469 16.1597 238.695 16.1597 238.972C16.1597 239.206 16.2378 239.388 16.3938 239.518C16.5585 239.64 16.7666 239.735 17.0181 239.804C17.2782 239.874 17.5643 239.935 17.8764 239.987C18.1885 240.03 18.5006 240.091 18.8127 240.169C19.1249 240.238 19.4066 240.338 19.6581 240.468C19.9182 240.598 20.1262 240.78 20.2823 241.014C20.447 241.248 20.5294 241.56 20.5294 241.95C20.5294 242.366 20.408 242.726 20.1653 243.03C19.9225 243.333 19.58 243.572 19.1379 243.745C18.6957 243.91 18.1668 243.992 17.5513 243.992ZM25.1589 243.992C24.4219 243.992 23.7717 243.84 23.2081 243.537C22.6532 243.233 22.2197 242.817 21.9076 242.288C21.6042 241.76 21.4524 241.153 21.4524 240.468C21.4524 239.783 21.5998 239.176 21.8946 238.647C22.1981 238.118 22.6099 237.706 23.1301 237.412C23.659 237.108 24.2528 236.956 24.9118 236.956C25.5794 236.956 26.1689 237.104 26.6804 237.399C27.192 237.693 27.5908 238.11 27.8769 238.647C28.1717 239.176 28.3191 239.796 28.3191 240.507C28.3191 240.559 28.3147 240.619 28.3061 240.689C28.3061 240.758 28.3017 240.823 28.2931 240.884H22.4278V239.987H27.6428L27.1356 240.299C27.1443 239.857 27.0532 239.462 26.8625 239.115C26.6718 238.768 26.4073 238.5 26.0692 238.309C25.7397 238.11 25.3539 238.01 24.9118 238.01C24.4783 238.01 24.0925 238.11 23.7543 238.309C23.4162 238.5 23.1518 238.773 22.961 239.128C22.7703 239.475 22.6749 239.874 22.6749 240.325V240.533C22.6749 240.992 22.7789 241.404 22.987 241.768C23.2038 242.124 23.5029 242.401 23.8844 242.601C24.2659 242.8 24.7037 242.9 25.1979 242.9C25.6054 242.9 25.9738 242.83 26.3033 242.692C26.6414 242.553 26.9362 242.345 27.1876 242.067L27.8769 242.874C27.5648 243.238 27.1746 243.515 26.7064 243.706C26.2469 243.897 25.7311 243.992 25.1589 243.992ZM30.0527 243.914V237.021H31.2491V238.894L31.1321 238.426C31.3228 237.949 31.6436 237.585 32.0945 237.334C32.5453 237.082 33.1002 236.956 33.7591 236.956V238.166C33.7071 238.157 33.6551 238.153 33.603 238.153C33.5597 238.153 33.5163 238.153 33.473 238.153C32.8054 238.153 32.2765 238.352 31.8864 238.751C31.4962 239.15 31.3012 239.726 31.3012 240.481V243.914H30.0527ZM37.3849 243.914L34.3678 237.021H35.6683L38.3473 243.264H37.7231L40.4541 237.021H41.6766L38.6594 243.914H37.3849ZM45.7204 243.992C44.9835 243.992 44.3332 243.84 43.7697 243.537C43.2148 243.233 42.7813 242.817 42.4692 242.288C42.1657 241.76 42.014 241.153 42.014 240.468C42.014 239.783 42.1614 239.176 42.4562 238.647C42.7596 238.118 43.1714 237.706 43.6916 237.412C44.2205 237.108 44.8144 236.956 45.4733 236.956C46.1409 236.956 46.7305 237.104 47.242 237.399C47.7535 237.693 48.1523 238.11 48.4385 238.647C48.7332 239.176 48.8806 239.796 48.8806 240.507C48.8806 240.559 48.8763 240.619 48.8676 240.689C48.8676 240.758 48.8633 240.823 48.8546 240.884H42.9894V239.987H48.2044L47.6972 240.299C47.7058 239.857 47.6148 239.462 47.4241 239.115C47.2333 238.768 46.9689 238.5 46.6308 238.309C46.3013 238.11 45.9155 238.01 45.4733 238.01C45.0398 238.01 44.654 238.11 44.3159 238.309C43.9778 238.5 43.7133 238.773 43.5226 239.128C43.3318 239.475 43.2365 239.874 43.2365 240.325V240.533C43.2365 240.992 43.3405 241.404 43.5486 241.768C43.7653 242.124 44.0645 242.401 44.4459 242.601C44.8274 242.8 45.2652 242.9 45.7594 242.9C46.1669 242.9 46.5354 242.83 46.8649 242.692C47.203 242.553 47.4978 242.345 47.7492 242.067L48.4385 242.874C48.1263 243.238 47.7362 243.515 47.268 243.706C46.8085 243.897 46.2926 243.992 45.7204 243.992ZM56.9549 243.992C56.2873 243.992 55.6891 243.845 55.1602 243.55C54.64 243.255 54.2282 242.843 53.9247 242.314C53.6213 241.786 53.4695 241.17 53.4695 240.468C53.4695 239.765 53.6213 239.154 53.9247 238.634C54.2282 238.105 54.64 237.693 55.1602 237.399C55.6891 237.104 56.2873 236.956 56.9549 236.956C57.5358 236.956 58.0603 237.086 58.5285 237.347C58.9967 237.607 59.3695 237.997 59.6469 238.517C59.933 239.037 60.0761 239.687 60.0761 240.468C60.0761 241.248 59.9374 241.898 59.6599 242.418C59.3911 242.939 59.0227 243.333 58.5545 243.602C58.0863 243.862 57.5531 243.992 56.9549 243.992ZM57.0589 242.9C57.4924 242.9 57.8826 242.8 58.2294 242.601C58.5848 242.401 58.8623 242.119 59.0617 241.755C59.2698 241.382 59.3738 240.953 59.3738 240.468C59.3738 239.974 59.2698 239.549 59.0617 239.193C58.8623 238.829 58.5848 238.547 58.2294 238.348C57.8826 238.149 57.4924 238.049 57.0589 238.049C56.6168 238.049 56.2223 238.149 55.8755 238.348C55.5287 238.547 55.2512 238.829 55.0431 239.193C54.8351 239.549 54.731 239.974 54.731 240.468C54.731 240.953 54.8351 241.382 55.0431 241.755C55.2512 242.119 55.5287 242.401 55.8755 242.601C56.2223 242.8 56.6168 242.9 57.0589 242.9ZM59.4128 243.914V242.054L59.4908 240.455L59.3608 238.855V234.264H60.6093V243.914H59.4128ZM66.0407 243.992C65.3037 243.992 64.6535 243.84 64.0899 243.537C63.5351 243.233 63.1016 242.817 62.7894 242.288C62.486 241.76 62.3343 241.153 62.3343 240.468C62.3343 239.783 62.4816 239.176 62.7764 238.647C63.0799 238.118 63.4917 237.706 64.0119 237.412C64.5408 237.108 65.1347 236.956 65.7936 236.956C66.4612 236.956 67.0507 237.104 67.5623 237.399C68.0738 237.693 68.4726 238.11 68.7587 238.647C69.0535 239.176 69.2009 239.796 69.2009 240.507C69.2009 240.559 69.1965 240.619 69.1879 240.689C69.1879 240.758 69.1835 240.823 69.1749 240.884H63.3096V239.987H68.5246L68.0174 240.299C68.0261 239.857 67.9351 239.462 67.7443 239.115C67.5536 238.768 67.2892 238.5 66.951 238.309C66.6216 238.11 66.2357 238.01 65.7936 238.01C65.3601 238.01 64.9743 238.11 64.6361 238.309C64.298 238.5 64.0336 238.773 63.8428 239.128C63.6521 239.475 63.5567 239.874 63.5567 240.325V240.533C63.5567 240.992 63.6608 241.404 63.8688 241.768C64.0856 242.124 64.3847 242.401 64.7662 242.601C65.1477 242.8 65.5855 242.9 66.0797 242.9C66.4872 242.9 66.8557 242.83 67.1851 242.692C67.5232 242.553 67.818 242.345 68.0694 242.067L68.7587 242.874C68.4466 243.238 68.0564 243.515 67.5883 243.706C67.1288 243.897 66.6129 243.992 66.0407 243.992ZM72.9113 243.992C72.339 243.992 71.7928 243.914 71.2726 243.758C70.7611 243.602 70.358 243.411 70.0632 243.186L70.5834 242.197C70.8781 242.397 71.2423 242.566 71.6758 242.705C72.1093 242.843 72.5515 242.913 73.0023 242.913C73.5832 242.913 73.9993 242.83 74.2508 242.666C74.5109 242.501 74.6409 242.271 74.6409 241.976C74.6409 241.76 74.5629 241.591 74.4068 241.469C74.2508 241.348 74.0427 241.257 73.7826 241.196C73.5312 241.135 73.2494 241.083 72.9373 241.04C72.6252 240.988 72.313 240.927 72.0009 240.858C71.6888 240.78 71.4027 240.676 71.1426 240.546C70.8825 240.407 70.6744 240.221 70.5183 239.987C70.3623 239.744 70.2843 239.423 70.2843 239.024C70.2843 238.608 70.4013 238.244 70.6354 237.932C70.8695 237.62 71.1989 237.381 71.6238 237.217C72.0573 237.043 72.5688 236.956 73.1584 236.956C73.6092 236.956 74.0644 237.013 74.5239 237.125C74.9921 237.23 75.3735 237.381 75.6683 237.581L75.1351 238.569C74.823 238.361 74.4979 238.218 74.1597 238.14C73.8216 238.062 73.4835 238.023 73.1453 238.023C72.5991 238.023 72.1917 238.114 71.9229 238.296C71.6541 238.469 71.5197 238.695 71.5197 238.972C71.5197 239.206 71.5978 239.388 71.7538 239.518C71.9185 239.64 72.1266 239.735 72.3781 239.804C72.6382 239.874 72.9243 239.935 73.2364 239.987C73.5485 240.03 73.8606 240.091 74.1727 240.169C74.4849 240.238 74.7666 240.338 75.0181 240.468C75.2782 240.598 75.4862 240.78 75.6423 241.014C75.807 241.248 75.8894 241.56 75.8894 241.95C75.8894 242.366 75.768 242.726 75.5253 243.03C75.2825 243.333 74.94 243.572 74.4979 243.745C74.0557 243.91 73.5268 243.992 72.9113 243.992ZM79.4264 243.992C78.8542 243.992 78.308 243.914 77.7878 243.758C77.2763 243.602 76.8731 243.411 76.5784 243.186L77.0986 242.197C77.3933 242.397 77.7575 242.566 78.191 242.705C78.6245 242.843 79.0666 242.913 79.5175 242.913C80.0984 242.913 80.5145 242.83 80.766 242.666C81.0261 242.501 81.1561 242.271 81.1561 241.976C81.1561 241.76 81.0781 241.591 80.922 241.469C80.766 241.348 80.5579 241.257 80.2978 241.196C80.0463 241.135 79.7646 241.083 79.4525 241.04C79.1403 240.988 78.8282 240.927 78.5161 240.858C78.204 240.78 77.9179 240.676 77.6578 240.546C77.3977 240.407 77.1896 240.221 77.0335 239.987C76.8775 239.744 76.7994 239.423 76.7994 239.024C76.7994 238.608 76.9165 238.244 77.1506 237.932C77.3847 237.62 77.7141 237.381 78.139 237.217C78.5724 237.043 79.084 236.956 79.6735 236.956C80.1244 236.956 80.5795 237.013 81.0391 237.125C81.5072 237.23 81.8887 237.381 82.1835 237.581L81.6503 238.569C81.3382 238.361 81.013 238.218 80.6749 238.14C80.3368 238.062 79.9987 238.023 79.6605 238.023C79.1143 238.023 78.7068 238.114 78.4381 238.296C78.1693 238.469 78.0349 238.695 78.0349 238.972C78.0349 239.206 78.1129 239.388 78.269 239.518C78.4337 239.64 78.6418 239.735 78.8932 239.804C79.1533 239.874 79.4394 239.935 79.7516 239.987C80.0637 240.03 80.3758 240.091 80.6879 240.169C81 240.238 81.2818 240.338 81.5332 240.468C81.7933 240.598 82.0014 240.78 82.1575 241.014C82.3222 241.248 82.4046 241.56 82.4046 241.95C82.4046 242.366 82.2832 242.726 82.0404 243.03C81.7977 243.333 81.4552 243.572 81.013 243.745C80.5709 243.91 80.042 243.992 79.4264 243.992ZM87.034 243.992C86.2971 243.992 85.6468 243.84 85.0833 243.537C84.5284 243.233 84.0949 242.817 83.7828 242.288C83.4794 241.76 83.3276 241.153 83.3276 240.468C83.3276 239.783 83.475 239.176 83.7698 238.647C84.0732 238.118 84.4851 237.706 85.0053 237.412C85.5341 237.108 86.128 236.956 86.7869 236.956C87.4545 236.956 88.0441 237.104 88.5556 237.399C89.0672 237.693 89.466 238.11 89.7521 238.647C90.0469 239.176 90.1942 239.796 90.1942 240.507C90.1942 240.559 90.1899 240.619 90.1812 240.689C90.1812 240.758 90.1769 240.823 90.1682 240.884H84.303V239.987H89.518L89.0108 240.299C89.0195 239.857 88.9284 239.462 88.7377 239.115C88.547 238.768 88.2825 238.5 87.9444 238.309C87.6149 238.11 87.2291 238.01 86.7869 238.01C86.3534 238.01 85.9676 238.11 85.6295 238.309C85.2914 238.5 85.0269 238.773 84.8362 239.128C84.6455 239.475 84.5501 239.874 84.5501 240.325V240.533C84.5501 240.992 84.6541 241.404 84.8622 241.768C85.079 242.124 85.3781 242.401 85.7596 242.601C86.141 242.8 86.5789 242.9 87.0731 242.9C87.4805 242.9 87.849 242.83 88.1785 242.692C88.5166 242.553 88.8114 242.345 89.0628 242.067L89.7521 242.874C89.44 243.238 89.0498 243.515 88.5816 243.706C88.1221 243.897 87.6063 243.992 87.034 243.992ZM91.9279 243.914V237.021H93.1243V238.894L93.0073 238.426C93.198 237.949 93.5188 237.585 93.9697 237.334C94.4205 237.082 94.9754 236.956 95.6343 236.956V238.166C95.5823 238.157 95.5303 238.153 95.4782 238.153C95.4349 238.153 95.3915 238.153 95.3482 238.153C94.6806 238.153 94.1517 238.352 93.7616 238.751C93.3714 239.15 93.1764 239.726 93.1764 240.481V243.914H91.9279ZM99.8193 243.992C99.1257 243.992 98.5882 243.806 98.2067 243.433C97.8253 243.06 97.6345 242.527 97.6345 241.833V235.513H98.883V241.781C98.883 242.154 98.974 242.44 99.1561 242.64C99.3468 242.839 99.6156 242.939 99.9624 242.939C100.353 242.939 100.678 242.83 100.938 242.614L101.328 243.511C101.137 243.676 100.907 243.797 100.639 243.875C100.379 243.953 100.105 243.992 99.8193 243.992ZM96.4641 238.049V237.021H100.86V238.049H96.4641ZM104.814 243.992C104.242 243.992 103.696 243.914 103.175 243.758C102.664 243.602 102.261 243.411 101.966 243.186L102.486 242.197C102.781 242.397 103.145 242.566 103.579 242.705C104.012 242.843 104.454 242.913 104.905 242.913C105.486 242.913 105.902 242.83 106.154 242.666C106.414 242.501 106.544 242.271 106.544 241.976C106.544 241.76 106.466 241.591 106.31 241.469C106.154 241.348 105.945 241.257 105.685 241.196C105.434 241.135 105.152 241.083 104.84 241.04C104.528 240.988 104.216 240.927 103.904 240.858C103.592 240.78 103.305 240.676 103.045 240.546C102.785 240.407 102.577 240.221 102.421 239.987C102.265 239.744 102.187 239.423 102.187 239.024C102.187 238.608 102.304 238.244 102.538 237.932C102.772 237.62 103.102 237.381 103.527 237.217C103.96 237.043 104.472 236.956 105.061 236.956C105.512 236.956 105.967 237.013 106.427 237.125C106.895 237.23 107.276 237.381 107.571 237.581L107.038 238.569C106.726 238.361 106.401 238.218 106.063 238.14C105.724 238.062 105.386 238.023 105.048 238.023C104.502 238.023 104.094 238.114 103.826 238.296C103.557 238.469 103.423 238.695 103.423 238.972C103.423 239.206 103.501 239.388 103.657 239.518C103.821 239.64 104.029 239.735 104.281 239.804C104.541 239.874 104.827 239.935 105.139 239.987C105.451 240.03 105.763 240.091 106.076 240.169C106.388 240.238 106.669 240.338 106.921 240.468C107.181 240.598 107.389 240.78 107.545 241.014C107.71 241.248 107.792 241.56 107.792 241.95C107.792 242.366 107.671 242.726 107.428 243.03C107.185 243.333 106.843 243.572 106.401 243.745C105.958 243.91 105.43 243.992 104.814 243.992ZM108.858 245.839L109.509 243.212L109.678 243.966C109.426 243.966 109.214 243.888 109.04 243.732C108.876 243.576 108.793 243.364 108.793 243.095C108.793 242.835 108.876 242.622 109.04 242.458C109.214 242.293 109.422 242.21 109.665 242.21C109.916 242.21 110.12 242.297 110.276 242.471C110.432 242.635 110.51 242.843 110.51 243.095C110.51 243.181 110.501 243.268 110.484 243.355C110.475 243.433 110.454 243.528 110.419 243.641C110.393 243.745 110.35 243.875 110.289 244.031L109.678 245.839H108.858ZM117.768 243.992C117.196 243.992 116.65 243.914 116.13 243.758C115.618 243.602 115.215 243.411 114.92 243.186L115.44 242.197C115.735 242.397 116.099 242.566 116.533 242.705C116.966 242.843 117.408 242.913 117.859 242.913C118.44 242.913 118.856 242.83 119.108 242.666C119.368 242.501 119.498 242.271 119.498 241.976C119.498 241.76 119.42 241.591 119.264 241.469C119.108 241.348 118.9 241.257 118.64 241.196C118.388 241.135 118.106 241.083 117.794 241.04C117.482 240.988 117.17 240.927 116.858 240.858C116.546 240.78 116.26 240.676 116 240.546C115.739 240.407 115.531 240.221 115.375 239.987C115.219 239.744 115.141 239.423 115.141 239.024C115.141 238.608 115.258 238.244 115.492 237.932C115.726 237.62 116.056 237.381 116.481 237.217C116.914 237.043 117.426 236.956 118.015 236.956C118.466 236.956 118.921 237.013 119.381 237.125C119.849 237.23 120.231 237.381 120.525 237.581L119.992 238.569C119.68 238.361 119.355 238.218 119.017 238.14C118.679 238.062 118.34 238.023 118.002 238.023C117.456 238.023 117.049 238.114 116.78 238.296C116.511 238.469 116.377 238.695 116.377 238.972C116.377 239.206 116.455 239.388 116.611 239.518C116.776 239.64 116.984 239.735 117.235 239.804C117.495 239.874 117.781 239.935 118.093 239.987C118.405 240.03 118.718 240.091 119.03 240.169C119.342 240.238 119.624 240.338 119.875 240.468C120.135 240.598 120.343 240.78 120.499 241.014C120.664 241.248 120.746 241.56 120.746 241.95C120.746 242.366 120.625 242.726 120.382 243.03C120.139 243.333 119.797 243.572 119.355 243.745C118.913 243.91 118.384 243.992 117.768 243.992ZM126.585 243.914V242.458L126.52 242.184V239.7C126.52 239.172 126.364 238.764 126.052 238.478C125.749 238.183 125.289 238.036 124.674 238.036C124.266 238.036 123.867 238.105 123.477 238.244C123.087 238.374 122.757 238.552 122.489 238.777L121.969 237.841C122.324 237.555 122.749 237.338 123.243 237.19C123.746 237.034 124.27 236.956 124.817 236.956C125.762 236.956 126.49 237.186 127.001 237.646C127.513 238.105 127.769 238.807 127.769 239.752V243.914H126.585ZM124.322 243.992C123.811 243.992 123.36 243.905 122.97 243.732C122.588 243.559 122.294 243.32 122.086 243.017C121.877 242.705 121.773 242.353 121.773 241.963C121.773 241.591 121.86 241.252 122.034 240.949C122.216 240.645 122.506 240.403 122.905 240.221C123.312 240.039 123.859 239.948 124.544 239.948H126.728V240.845H124.596C123.971 240.845 123.551 240.949 123.334 241.157C123.117 241.365 123.009 241.617 123.009 241.911C123.009 242.249 123.143 242.523 123.412 242.731C123.681 242.93 124.054 243.03 124.531 243.03C124.999 243.03 125.406 242.926 125.753 242.718C126.108 242.51 126.364 242.206 126.52 241.807L126.767 242.666C126.603 243.073 126.312 243.398 125.896 243.641C125.48 243.875 124.955 243.992 124.322 243.992ZM138.701 236.956C139.256 236.956 139.746 237.065 140.171 237.282C140.596 237.498 140.925 237.828 141.159 238.27C141.402 238.712 141.524 239.271 141.524 239.948V243.914H140.275V240.091C140.275 239.423 140.119 238.92 139.807 238.582C139.495 238.244 139.057 238.075 138.493 238.075C138.077 238.075 137.713 238.162 137.401 238.335C137.089 238.508 136.846 238.764 136.673 239.102C136.508 239.44 136.426 239.861 136.426 240.364V243.914H135.177V240.091C135.177 239.423 135.021 238.92 134.709 238.582C134.405 238.244 133.968 238.075 133.395 238.075C132.988 238.075 132.628 238.162 132.316 238.335C132.004 238.508 131.761 238.764 131.588 239.102C131.414 239.44 131.328 239.861 131.328 240.364V243.914H130.079V237.021H131.276V238.855L131.081 238.387C131.297 237.936 131.631 237.585 132.082 237.334C132.533 237.082 133.057 236.956 133.656 236.956C134.314 236.956 134.882 237.121 135.359 237.451C135.836 237.771 136.148 238.261 136.296 238.92L135.788 238.712C135.996 238.183 136.361 237.758 136.881 237.438C137.401 237.117 138.008 236.956 138.701 236.956ZM147.475 243.992C146.903 243.992 146.378 243.862 145.902 243.602C145.433 243.333 145.056 242.939 144.77 242.418C144.493 241.898 144.354 241.248 144.354 240.468C144.354 239.687 144.488 239.037 144.757 238.517C145.035 237.997 145.407 237.607 145.876 237.347C146.352 237.086 146.886 236.956 147.475 236.956C148.151 236.956 148.75 237.104 149.27 237.399C149.79 237.693 150.202 238.105 150.505 238.634C150.809 239.154 150.96 239.765 150.96 240.468C150.96 241.17 150.809 241.786 150.505 242.314C150.202 242.843 149.79 243.255 149.27 243.55C148.75 243.845 148.151 243.992 147.475 243.992ZM143.821 246.437V237.021H145.017V238.881L144.939 240.481L145.069 242.08V246.437H143.821ZM147.371 242.9C147.813 242.9 148.208 242.8 148.555 242.601C148.91 242.401 149.187 242.119 149.387 241.755C149.595 241.382 149.699 240.953 149.699 240.468C149.699 239.974 149.595 239.549 149.387 239.193C149.187 238.829 148.91 238.547 148.555 238.348C148.208 238.149 147.813 238.049 147.371 238.049C146.938 238.049 146.543 238.149 146.188 238.348C145.841 238.547 145.563 238.829 145.355 239.193C145.156 239.549 145.056 239.974 145.056 240.468C145.056 240.953 145.156 241.382 145.355 241.755C145.563 242.119 145.841 242.401 146.188 242.601C146.543 242.8 146.938 242.9 147.371 242.9ZM152.685 243.914V234.264H153.934V243.914H152.685ZM159.387 243.992C158.65 243.992 158 243.84 157.436 243.537C156.881 243.233 156.448 242.817 156.136 242.288C155.832 241.76 155.68 241.153 155.68 240.468C155.68 239.783 155.828 239.176 156.123 238.647C156.426 238.118 156.838 237.706 157.358 237.412C157.887 237.108 158.481 236.956 159.14 236.956C159.807 236.956 160.397 237.104 160.908 237.399C161.42 237.693 161.819 238.11 162.105 238.647C162.4 239.176 162.547 239.796 162.547 240.507C162.547 240.559 162.543 240.619 162.534 240.689C162.534 240.758 162.53 240.823 162.521 240.884H156.656V239.987H161.871L161.364 240.299C161.372 239.857 161.281 239.462 161.091 239.115C160.9 238.768 160.635 238.5 160.297 238.309C159.968 238.11 159.582 238.01 159.14 238.01C158.706 238.01 158.32 238.11 157.982 238.309C157.644 238.5 157.38 238.773 157.189 239.128C156.998 239.475 156.903 239.874 156.903 240.325V240.533C156.903 240.992 157.007 241.404 157.215 241.768C157.432 242.124 157.731 242.401 158.112 242.601C158.494 242.8 158.932 242.9 159.426 242.9C159.833 242.9 160.202 242.83 160.531 242.692C160.869 242.553 161.164 242.345 161.416 242.067L162.105 242.874C161.793 243.238 161.403 243.515 160.934 243.706C160.475 243.897 159.959 243.992 159.387 243.992ZM166.257 243.992C165.685 243.992 165.139 243.914 164.619 243.758C164.107 243.602 163.704 243.411 163.409 243.186L163.93 242.197C164.224 242.397 164.588 242.566 165.022 242.705C165.455 242.843 165.898 242.913 166.348 242.913C166.929 242.913 167.346 242.83 167.597 242.666C167.857 242.501 167.987 242.271 167.987 241.976C167.987 241.76 167.909 241.591 167.753 241.469C167.597 241.348 167.389 241.257 167.129 241.196C166.877 241.135 166.596 241.083 166.283 241.04C165.971 240.988 165.659 240.927 165.347 240.858C165.035 240.78 164.749 240.676 164.489 240.546C164.229 240.407 164.021 240.221 163.865 239.987C163.708 239.744 163.63 239.423 163.63 239.024C163.63 238.608 163.747 238.244 163.982 237.932C164.216 237.62 164.545 237.381 164.97 237.217C165.403 237.043 165.915 236.956 166.505 236.956C166.955 236.956 167.411 237.013 167.87 237.125C168.338 237.23 168.72 237.381 169.014 237.581L168.481 238.569C168.169 238.361 167.844 238.218 167.506 238.14C167.168 238.062 166.83 238.023 166.492 238.023C165.945 238.023 165.538 238.114 165.269 238.296C165 238.469 164.866 238.695 164.866 238.972C164.866 239.206 164.944 239.388 165.1 239.518C165.265 239.64 165.473 239.735 165.724 239.804C165.984 239.874 166.27 239.935 166.583 239.987C166.895 240.03 167.207 240.091 167.519 240.169C167.831 240.238 168.113 240.338 168.364 240.468C168.624 240.598 168.832 240.78 168.988 241.014C169.153 241.248 169.236 241.56 169.236 241.95C169.236 242.366 169.114 242.726 168.871 243.03C168.629 243.333 168.286 243.572 167.844 243.745C167.402 243.91 166.873 243.992 166.257 243.992ZM170.302 245.839L170.952 243.212L171.121 243.966C170.87 243.966 170.657 243.888 170.484 243.732C170.319 243.576 170.237 243.364 170.237 243.095C170.237 242.835 170.319 242.622 170.484 242.458C170.657 242.293 170.865 242.21 171.108 242.21C171.359 242.21 171.563 242.297 171.719 242.471C171.875 242.635 171.953 242.843 171.953 243.095C171.953 243.181 171.945 243.268 171.927 243.355C171.919 243.433 171.897 243.528 171.862 243.641C171.836 243.745 171.793 243.875 171.732 244.031L171.121 245.839H170.302ZM181.529 243.914V242.405L181.49 242.158V239.635C181.49 239.055 181.325 238.608 180.995 238.296C180.675 237.984 180.193 237.828 179.552 237.828C179.11 237.828 178.689 237.901 178.29 238.049C177.892 238.196 177.553 238.391 177.276 238.634L176.86 237.945C177.207 237.65 177.623 237.425 178.108 237.269C178.594 237.104 179.105 237.021 179.643 237.021C180.527 237.021 181.208 237.243 181.685 237.685C182.17 238.118 182.413 238.781 182.413 239.674V243.914H181.529ZM179.175 243.979C178.663 243.979 178.217 243.897 177.835 243.732C177.462 243.559 177.176 243.325 176.977 243.03C176.777 242.726 176.678 242.379 176.678 241.989C176.678 241.634 176.76 241.313 176.925 241.027C177.098 240.732 177.376 240.498 177.757 240.325C178.147 240.143 178.668 240.052 179.318 240.052H181.672V240.741H179.344C178.685 240.741 178.225 240.858 177.965 241.092C177.714 241.326 177.588 241.617 177.588 241.963C177.588 242.353 177.74 242.666 178.043 242.9C178.347 243.134 178.772 243.251 179.318 243.251C179.838 243.251 180.284 243.134 180.657 242.9C181.039 242.657 181.316 242.31 181.49 241.859L181.698 242.497C181.524 242.947 181.221 243.307 180.787 243.576C180.363 243.845 179.825 243.979 179.175 243.979ZM188.406 237.021C188.961 237.021 189.447 237.13 189.863 237.347C190.288 237.555 190.617 237.875 190.851 238.309C191.094 238.742 191.215 239.289 191.215 239.948V243.914H190.292V240.039C190.292 239.319 190.11 238.777 189.746 238.413C189.39 238.04 188.887 237.854 188.237 237.854C187.752 237.854 187.327 237.953 186.963 238.153C186.607 238.344 186.33 238.625 186.13 238.998C185.94 239.362 185.844 239.804 185.844 240.325V243.914H184.921V237.086H185.805V238.959L185.662 238.608C185.879 238.114 186.226 237.728 186.703 237.451C187.179 237.164 187.747 237.021 188.406 237.021ZM196.427 243.979C195.777 243.979 195.192 243.832 194.672 243.537C194.16 243.242 193.757 242.835 193.462 242.314C193.168 241.786 193.02 241.179 193.02 240.494C193.02 239.8 193.168 239.193 193.462 238.673C193.757 238.153 194.16 237.75 194.672 237.464C195.192 237.169 195.777 237.021 196.427 237.021C197.026 237.021 197.559 237.156 198.027 237.425C198.504 237.693 198.881 238.088 199.158 238.608C199.445 239.12 199.588 239.748 199.588 240.494C199.588 241.231 199.449 241.859 199.171 242.379C198.894 242.9 198.517 243.298 198.04 243.576C197.572 243.845 197.034 243.979 196.427 243.979ZM196.492 243.16C196.978 243.16 197.411 243.051 197.793 242.835C198.183 242.609 198.487 242.297 198.703 241.898C198.929 241.491 199.041 241.023 199.041 240.494C199.041 239.956 198.929 239.488 198.703 239.089C198.487 238.69 198.183 238.383 197.793 238.166C197.411 237.94 196.978 237.828 196.492 237.828C196.016 237.828 195.586 237.94 195.205 238.166C194.823 238.383 194.52 238.69 194.295 239.089C194.069 239.488 193.956 239.956 193.956 240.494C193.956 241.023 194.069 241.491 194.295 241.898C194.52 242.297 194.823 242.609 195.205 242.835C195.586 243.051 196.016 243.16 196.492 243.16ZM199.067 243.914V241.859L199.158 240.481L199.028 239.102V234.264H199.952V243.914H199.067ZM29.3751 265.992C28.8029 265.992 28.2567 265.914 27.7365 265.758C27.225 265.602 26.8218 265.411 26.527 265.186L27.0472 264.197C27.342 264.397 27.7061 264.566 28.1396 264.705C28.5731 264.843 29.0153 264.913 29.4661 264.913C30.047 264.913 30.4632 264.83 30.7146 264.666C30.9747 264.501 31.1048 264.271 31.1048 263.976C31.1048 263.76 31.0267 263.591 30.8707 263.469C30.7146 263.348 30.5065 263.257 30.2464 263.196C29.995 263.135 29.7132 263.083 29.4011 263.04C29.089 262.988 28.7769 262.927 28.4648 262.858C28.1526 262.78 27.8665 262.676 27.6064 262.546C27.3463 262.407 27.1383 262.221 26.9822 261.987C26.8261 261.744 26.7481 261.423 26.7481 261.024C26.7481 260.608 26.8652 260.244 27.0992 259.932C27.3333 259.62 27.6628 259.381 28.0876 259.217C28.5211 259.043 29.0326 258.956 29.6222 258.956C30.073 258.956 30.5282 259.013 30.9877 259.125C31.4559 259.23 31.8374 259.381 32.1322 259.581L31.599 260.569C31.2868 260.361 30.9617 260.218 30.6236 260.14C30.2855 260.062 29.9473 260.023 29.6092 260.023C29.063 260.023 28.6555 260.114 28.3867 260.296C28.118 260.469 27.9836 260.695 27.9836 260.972C27.9836 261.206 28.0616 261.388 28.2177 261.518C28.3824 261.64 28.5905 261.735 28.8419 261.804C29.102 261.874 29.3881 261.935 29.7002 261.987C30.0124 262.03 30.3245 262.091 30.6366 262.169C30.9487 262.238 31.2305 262.338 31.4819 262.468C31.742 262.598 31.9501 262.78 32.1062 263.014C32.2709 263.248 32.3532 263.56 32.3532 263.95C32.3532 264.366 32.2319 264.726 31.9891 265.03C31.7464 265.333 31.4039 265.572 30.9617 265.745C30.5195 265.91 29.9907 265.992 29.3751 265.992ZM42.5358 258.956C43.0907 258.956 43.5806 259.065 44.0054 259.282C44.4302 259.498 44.7597 259.828 44.9938 260.27C45.2365 260.712 45.3579 261.271 45.3579 261.948V265.914H44.1094V262.091C44.1094 261.423 43.9534 260.92 43.6413 260.582C43.3291 260.244 42.8913 260.075 42.3278 260.075C41.9116 260.075 41.5475 260.162 41.2353 260.335C40.9232 260.508 40.6805 260.764 40.5071 261.102C40.3423 261.44 40.26 261.861 40.26 262.364V265.914H39.0115V262.091C39.0115 261.423 38.8554 260.92 38.5433 260.582C38.2399 260.244 37.802 260.075 37.2298 260.075C36.8223 260.075 36.4625 260.162 36.1504 260.335C35.8383 260.508 35.5955 260.764 35.4221 261.102C35.2487 261.44 35.162 261.861 35.162 262.364V265.914H33.9135V259.021H35.11V260.855L34.9149 260.387C35.1317 259.936 35.4655 259.585 35.9163 259.334C36.3671 259.082 36.8917 258.956 37.4899 258.956C38.1488 258.956 38.7167 259.121 39.1936 259.451C39.6704 259.771 39.9825 260.261 40.1299 260.92L39.6227 260.712C39.8308 260.183 40.1949 259.758 40.7151 259.438C41.2353 259.117 41.8422 258.956 42.5358 258.956ZM51.9337 265.914V264.458L51.8687 264.184V261.7C51.8687 261.172 51.7127 260.764 51.4005 260.478C51.0971 260.183 50.6376 260.036 50.022 260.036C49.6145 260.036 49.2157 260.105 48.8256 260.244C48.4354 260.374 48.106 260.552 47.8372 260.777L47.317 259.841C47.6725 259.555 48.0973 259.338 48.5915 259.19C49.0943 259.034 49.6189 258.956 50.1651 258.956C51.1101 258.956 51.8384 259.186 52.3499 259.646C52.8614 260.105 53.1172 260.807 53.1172 261.752V265.914H51.9337ZM49.6709 265.992C49.1594 265.992 48.7085 265.905 48.3184 265.732C47.9369 265.559 47.6421 265.32 47.434 265.017C47.2259 264.705 47.1219 264.353 47.1219 263.963C47.1219 263.591 47.2086 263.252 47.382 262.949C47.5641 262.645 47.8545 262.403 48.2533 262.221C48.6608 262.039 49.207 261.948 49.892 261.948H52.0768V262.845H49.944C49.3197 262.845 48.8993 262.949 48.6825 263.157C48.4658 263.365 48.3574 263.617 48.3574 263.911C48.3574 264.249 48.4918 264.523 48.7605 264.731C49.0293 264.93 49.4021 265.03 49.879 265.03C50.3471 265.03 50.7546 264.926 51.1014 264.718C51.4569 264.51 51.7127 264.206 51.8687 263.807L52.1158 264.666C51.9511 265.073 51.6606 265.398 51.2445 265.641C50.8283 265.875 50.3038 265.992 49.6709 265.992ZM55.4276 265.914V256.264H56.6761V265.914H55.4276ZM59.0599 265.914V256.264H60.3083V265.914H59.0599ZM68.5516 265.992C67.858 265.992 67.3204 265.806 66.9389 265.433C66.5575 265.06 66.3667 264.527 66.3667 263.833V257.513H67.6152V263.781C67.6152 264.154 67.7062 264.44 67.8883 264.64C68.079 264.839 68.3478 264.939 68.6946 264.939C69.0848 264.939 69.4099 264.83 69.67 264.614L70.0601 265.511C69.8694 265.676 69.6396 265.797 69.3709 265.875C69.1108 265.953 68.8377 265.992 68.5516 265.992ZM65.1963 260.049V259.021H69.592V260.049H65.1963ZM75.8481 265.914V264.458L75.7831 264.184V261.7C75.7831 261.172 75.6271 260.764 75.3149 260.478C75.0115 260.183 74.552 260.036 73.9364 260.036C73.5289 260.036 73.1301 260.105 72.74 260.244C72.3498 260.374 72.0204 260.552 71.7516 260.777L71.2314 259.841C71.5869 259.555 72.0117 259.338 72.5059 259.19C73.0087 259.034 73.5333 258.956 74.0795 258.956C75.0245 258.956 75.7528 259.186 76.2643 259.646C76.7758 260.105 77.0316 260.807 77.0316 261.752V265.914H75.8481ZM73.5853 265.992C73.0738 265.992 72.6229 265.905 72.2328 265.732C71.8513 265.559 71.5565 265.32 71.3484 265.017C71.1404 264.705 71.0363 264.353 71.0363 263.963C71.0363 263.591 71.123 263.252 71.2964 262.949C71.4785 262.645 71.7689 262.403 72.1677 262.221C72.5752 262.039 73.1214 261.948 73.8064 261.948H75.9912V262.845H73.8584C73.2342 262.845 72.8137 262.949 72.5969 263.157C72.3802 263.365 72.2718 263.617 72.2718 263.911C72.2718 264.249 72.4062 264.523 72.6749 264.731C72.9437 264.93 73.3165 265.03 73.7934 265.03C74.2615 265.03 74.669 264.926 75.0158 264.718C75.3713 264.51 75.6271 264.206 75.7831 263.807L76.0302 264.666C75.8655 265.073 75.575 265.398 75.1589 265.641C74.7427 265.875 74.2182 265.992 73.5853 265.992ZM80.3564 264.249L80.3824 262.65L84.3489 259.021H85.8575L82.8143 262.013L82.1381 262.585L80.3564 264.249ZM79.342 265.914V256.264H80.5905V265.914H79.342ZM84.609 265.914L81.904 262.559L82.7103 261.557L86.1436 265.914H84.609ZM90.1329 265.992C89.3959 265.992 88.7457 265.84 88.1821 265.537C87.6273 265.233 87.1938 264.817 86.8816 264.288C86.5782 263.76 86.4265 263.153 86.4265 262.468C86.4265 261.783 86.5739 261.176 86.8686 260.647C87.1721 260.118 87.5839 259.706 88.1041 259.412C88.633 259.108 89.2269 258.956 89.8858 258.956C90.5534 258.956 91.1429 259.104 91.6545 259.399C92.166 259.693 92.5648 260.11 92.8509 260.647C93.1457 261.176 93.2931 261.796 93.2931 262.507C93.2931 262.559 93.2888 262.619 93.2801 262.689C93.2801 262.758 93.2758 262.823 93.2671 262.884H87.4018V261.987H92.6168L92.1096 262.299C92.1183 261.857 92.0273 261.462 91.8365 261.115C91.6458 260.768 91.3814 260.5 91.0432 260.309C90.7138 260.11 90.328 260.01 89.8858 260.01C89.4523 260.01 89.0665 260.11 88.7284 260.309C88.3902 260.5 88.1258 260.773 87.935 261.128C87.7443 261.475 87.6489 261.874 87.6489 262.325V262.533C87.6489 262.992 87.753 263.404 87.9611 263.768C88.1778 264.124 88.4769 264.401 88.8584 264.601C89.2399 264.8 89.6777 264.9 90.1719 264.9C90.5794 264.9 90.9479 264.83 91.2773 264.692C91.6155 264.553 91.9102 264.345 92.1617 264.067L92.8509 264.874C92.5388 265.238 92.1487 265.515 91.6805 265.706C91.221 265.897 90.7051 265.992 90.1329 265.992ZM99.1148 265.914V264.458L99.0498 264.184V261.7C99.0498 261.172 98.8938 260.764 98.5816 260.478C98.2782 260.183 97.8187 260.036 97.2031 260.036C96.7956 260.036 96.3968 260.105 96.0067 260.244C95.6165 260.374 95.287 260.552 95.0183 260.777L94.4981 259.841C94.8535 259.555 95.2784 259.338 95.7726 259.19C96.2754 259.034 96.8 258.956 97.3462 258.956C98.2912 258.956 99.0195 259.186 99.531 259.646C100.043 260.105 100.298 260.807 100.298 261.752V265.914H99.1148ZM96.852 265.992C96.3404 265.992 95.8896 265.905 95.4995 265.732C95.118 265.559 94.8232 265.32 94.6151 265.017C94.407 264.705 94.303 264.353 94.303 263.963C94.303 263.591 94.3897 263.252 94.5631 262.949C94.7452 262.645 95.0356 262.403 95.4344 262.221C95.8419 262.039 96.3881 261.948 97.0731 261.948H99.2579V262.845H97.1251C96.5008 262.845 96.0803 262.949 95.8636 263.157C95.6469 263.365 95.5385 263.617 95.5385 263.911C95.5385 264.249 95.6729 264.523 95.9416 264.731C96.2104 264.93 96.5832 265.03 97.0601 265.03C97.5282 265.03 97.9357 264.926 98.2825 264.718C98.638 264.51 98.8938 264.206 99.0498 263.807L99.2969 264.666C99.1322 265.073 98.8417 265.398 98.4256 265.641C98.0094 265.875 97.4849 265.992 96.852 265.992ZM103.938 265.914L101.376 259.021H102.56L104.836 265.264H104.276L106.643 259.021H107.697L110.012 265.264H109.465L111.793 259.021H112.912L110.337 265.914H109.14L106.968 260.218H107.333L105.135 265.914H103.938ZM118.241 265.914V264.458L118.176 264.184V261.7C118.176 261.172 118.02 260.764 117.708 260.478C117.405 260.183 116.945 260.036 116.33 260.036C115.922 260.036 115.523 260.105 115.133 260.244C114.743 260.374 114.413 260.552 114.145 260.777L113.625 259.841C113.98 259.555 114.405 259.338 114.899 259.19C115.402 259.034 115.926 258.956 116.473 258.956C117.418 258.956 118.146 259.186 118.657 259.646C119.169 260.105 119.425 260.807 119.425 261.752V265.914H118.241ZM115.978 265.992C115.467 265.992 115.016 265.905 114.626 265.732C114.244 265.559 113.95 265.32 113.742 265.017C113.533 264.705 113.429 264.353 113.429 263.963C113.429 263.591 113.516 263.252 113.69 262.949C113.872 262.645 114.162 262.403 114.561 262.221C114.968 262.039 115.515 261.948 116.2 261.948H118.384V262.845H116.252C115.627 262.845 115.207 262.949 114.99 263.157C114.773 263.365 114.665 263.617 114.665 263.911C114.665 264.249 114.799 264.523 115.068 264.731C115.337 264.93 115.71 265.03 116.187 265.03C116.655 265.03 117.062 264.926 117.409 264.718C117.764 264.51 118.02 264.206 118.176 263.807L118.423 264.666C118.259 265.073 117.968 265.398 117.552 265.641C117.136 265.875 116.611 265.992 115.978 265.992ZM121.907 268.515C121.578 268.515 121.257 268.459 120.945 268.346C120.633 268.242 120.364 268.086 120.139 267.878L120.672 266.941C120.845 267.106 121.036 267.232 121.244 267.319C121.452 267.405 121.673 267.449 121.907 267.449C122.211 267.449 122.462 267.371 122.662 267.215C122.861 267.058 123.047 266.781 123.221 266.382L123.65 265.433L123.78 265.277L126.485 259.021H127.707L124.365 266.603C124.166 267.089 123.94 267.47 123.689 267.748C123.446 268.025 123.177 268.22 122.883 268.333C122.588 268.454 122.263 268.515 121.907 268.515ZM123.546 266.135L120.399 259.021H121.699L124.378 265.16L123.546 266.135ZM136.02 265.992C135.447 265.992 134.923 265.862 134.446 265.602C133.978 265.333 133.601 264.939 133.315 264.418C133.037 263.898 132.898 263.248 132.898 262.468C132.898 261.687 133.033 261.037 133.302 260.517C133.579 259.997 133.952 259.607 134.42 259.347C134.897 259.086 135.43 258.956 136.02 258.956C136.696 258.956 137.294 259.104 137.814 259.399C138.334 259.693 138.746 260.105 139.05 260.634C139.353 261.154 139.505 261.765 139.505 262.468C139.505 263.17 139.353 263.786 139.05 264.314C138.746 264.843 138.334 265.255 137.814 265.55C137.294 265.845 136.696 265.992 136.02 265.992ZM132.365 268.437V259.021H133.562V260.881L133.484 262.481L133.614 264.08V268.437H132.365ZM135.916 264.9C136.358 264.9 136.752 264.8 137.099 264.601C137.454 264.401 137.732 264.119 137.931 263.755C138.139 263.382 138.243 262.953 138.243 262.468C138.243 261.974 138.139 261.549 137.931 261.193C137.732 260.829 137.454 260.547 137.099 260.348C136.752 260.149 136.358 260.049 135.916 260.049C135.482 260.049 135.088 260.149 134.732 260.348C134.385 260.547 134.108 260.829 133.9 261.193C133.7 261.549 133.601 261.974 133.601 262.468C133.601 262.953 133.7 263.382 133.9 263.755C134.108 264.119 134.385 264.401 134.732 264.601C135.088 264.8 135.482 264.9 135.916 264.9ZM144.182 265.992C143.488 265.992 142.873 265.84 142.335 265.537C141.798 265.233 141.373 264.817 141.061 264.288C140.749 263.751 140.593 263.144 140.593 262.468C140.593 261.783 140.749 261.176 141.061 260.647C141.373 260.118 141.798 259.706 142.335 259.412C142.873 259.108 143.488 258.956 144.182 258.956C144.867 258.956 145.478 259.108 146.016 259.412C146.562 259.706 146.987 260.118 147.29 260.647C147.602 261.167 147.758 261.774 147.758 262.468C147.758 263.153 147.602 263.76 147.29 264.288C146.987 264.817 146.562 265.233 146.016 265.537C145.478 265.84 144.867 265.992 144.182 265.992ZM144.182 264.9C144.624 264.9 145.019 264.8 145.365 264.601C145.721 264.401 145.998 264.119 146.198 263.755C146.397 263.382 146.497 262.953 146.497 262.468C146.497 261.974 146.397 261.549 146.198 261.193C145.998 260.829 145.721 260.547 145.365 260.348C145.019 260.149 144.624 260.049 144.182 260.049C143.74 260.049 143.345 260.149 142.999 260.348C142.652 260.547 142.374 260.829 142.166 261.193C141.958 261.549 141.854 261.974 141.854 262.468C141.854 262.953 141.958 263.382 142.166 263.755C142.374 264.119 142.652 264.401 142.999 264.601C143.345 264.8 143.74 264.9 144.182 264.9ZM149.485 265.914V259.021H150.681V260.894L150.564 260.426C150.755 259.949 151.076 259.585 151.527 259.334C151.978 259.082 152.532 258.956 153.191 258.956V260.166C153.139 260.157 153.087 260.153 153.035 260.153C152.992 260.153 152.949 260.153 152.905 260.153C152.238 260.153 151.709 260.352 151.319 260.751C150.929 261.15 150.733 261.726 150.733 262.481V265.914H149.485ZM157.376 265.992C156.683 265.992 156.145 265.806 155.764 265.433C155.382 265.06 155.192 264.527 155.192 263.833V257.513H156.44V263.781C156.44 264.154 156.531 264.44 156.713 264.64C156.904 264.839 157.173 264.939 157.52 264.939C157.91 264.939 158.235 264.83 158.495 264.614L158.885 265.511C158.694 265.676 158.465 265.797 158.196 265.875C157.936 265.953 157.663 265.992 157.376 265.992ZM154.021 260.049V259.021H158.417V260.049H154.021ZM160.394 265.914V259.021H161.643V265.914H160.394ZM161.019 257.695C160.776 257.695 160.572 257.617 160.407 257.461C160.251 257.305 160.173 257.114 160.173 256.889C160.173 256.655 160.251 256.459 160.407 256.303C160.572 256.147 160.776 256.069 161.019 256.069C161.261 256.069 161.461 256.147 161.617 256.303C161.782 256.451 161.864 256.637 161.864 256.863C161.864 257.097 161.786 257.296 161.63 257.461C161.474 257.617 161.27 257.695 161.019 257.695ZM166.979 265.992C166.285 265.992 165.67 265.84 165.132 265.537C164.595 265.233 164.17 264.817 163.858 264.288C163.545 263.751 163.389 263.144 163.389 262.468C163.389 261.783 163.545 261.176 163.858 260.647C164.17 260.118 164.595 259.706 165.132 259.412C165.67 259.108 166.285 258.956 166.979 258.956C167.664 258.956 168.275 259.108 168.813 259.412C169.359 259.706 169.784 260.118 170.087 260.647C170.399 261.167 170.555 261.774 170.555 262.468C170.555 263.153 170.399 263.76 170.087 264.288C169.784 264.817 169.359 265.233 168.813 265.537C168.275 265.84 167.664 265.992 166.979 265.992ZM166.979 264.9C167.421 264.9 167.815 264.8 168.162 264.601C168.518 264.401 168.795 264.119 168.995 263.755C169.194 263.382 169.294 262.953 169.294 262.468C169.294 261.974 169.194 261.549 168.995 261.193C168.795 260.829 168.518 260.547 168.162 260.348C167.815 260.149 167.421 260.049 166.979 260.049C166.537 260.049 166.142 260.149 165.795 260.348C165.449 260.547 165.171 260.829 164.963 261.193C164.755 261.549 164.651 261.974 164.651 262.468C164.651 262.953 164.755 263.382 164.963 263.755C165.171 264.119 165.449 264.401 165.795 264.601C166.142 264.8 166.537 264.9 166.979 264.9ZM175.962 258.956C176.526 258.956 177.02 259.065 177.445 259.282C177.878 259.498 178.216 259.828 178.459 260.27C178.702 260.712 178.823 261.271 178.823 261.948V265.914H177.575V262.091C177.575 261.423 177.41 260.92 177.081 260.582C176.76 260.244 176.305 260.075 175.715 260.075C175.273 260.075 174.887 260.162 174.558 260.335C174.228 260.508 173.972 260.764 173.79 261.102C173.617 261.44 173.53 261.861 173.53 262.364V265.914H172.282V259.021H173.478V260.881L173.283 260.387C173.509 259.936 173.855 259.585 174.324 259.334C174.792 259.082 175.338 258.956 175.962 258.956ZM183.111 265.992C182.538 265.992 181.992 265.914 181.472 265.758C180.96 265.602 180.557 265.411 180.262 265.186L180.783 264.197C181.077 264.397 181.442 264.566 181.875 264.705C182.309 264.843 182.751 264.913 183.202 264.913C183.782 264.913 184.199 264.83 184.45 264.666C184.71 264.501 184.84 264.271 184.84 263.976C184.84 263.76 184.762 263.591 184.606 263.469C184.45 263.348 184.242 263.257 183.982 263.196C183.73 263.135 183.449 263.083 183.137 263.04C182.824 262.988 182.512 262.927 182.2 262.858C181.888 262.78 181.602 262.676 181.342 262.546C181.082 262.407 180.874 262.221 180.718 261.987C180.562 261.744 180.484 261.423 180.484 261.024C180.484 260.608 180.601 260.244 180.835 259.932C181.069 259.62 181.398 259.381 181.823 259.217C182.257 259.043 182.768 258.956 183.358 258.956C183.808 258.956 184.264 259.013 184.723 259.125C185.191 259.23 185.573 259.381 185.868 259.581L185.334 260.569C185.022 260.361 184.697 260.218 184.359 260.14C184.021 260.062 183.683 260.023 183.345 260.023C182.798 260.023 182.391 260.114 182.122 260.296C181.853 260.469 181.719 260.695 181.719 260.972C181.719 261.206 181.797 261.388 181.953 261.518C182.118 261.64 182.326 261.735 182.577 261.804C182.837 261.874 183.124 261.935 183.436 261.987C183.748 262.03 184.06 262.091 184.372 262.169C184.684 262.238 184.966 262.338 185.217 262.468C185.477 262.598 185.686 262.78 185.842 263.014C186.006 263.248 186.089 263.56 186.089 263.95C186.089 264.366 185.967 264.726 185.725 265.03C185.482 265.333 185.139 265.572 184.697 265.745C184.255 265.91 183.726 265.992 183.111 265.992ZM187.948 265.992C187.705 265.992 187.497 265.91 187.324 265.745C187.15 265.572 187.064 265.355 187.064 265.095C187.064 264.835 187.15 264.622 187.324 264.458C187.497 264.293 187.705 264.21 187.948 264.21C188.182 264.21 188.382 264.293 188.546 264.458C188.72 264.622 188.806 264.835 188.806 265.095C188.806 265.355 188.72 265.572 188.546 265.745C188.382 265.91 188.182 265.992 187.948 265.992Z" fill="black"/>
<path d="M4.73193 286.601H211.496V286.601C211.496 292.543 206.678 297.36 200.736 297.36H15.4913C9.54909 297.36 4.73193 292.543 4.73193 286.601V286.601Z" fill="url(#paint0_linear_2196_647)"/>
<path d="M4.30566 286.74H105.059C111.002 286.74 115.819 291.557 115.819 297.5V297.5H15.0651C9.12282 297.5 4.30566 292.682 4.30566 286.74V286.74Z" fill="#BE534E"/>
<rect x="27.0083" width="161.569" height="22.5948" rx="11.2974" fill="#BE534E"/>
<path d="M40.9037 15.7979L40.9037 6.75571L42.9963 6.75571L42.9963 15.7979L40.9037 15.7979ZM45.1422 15.7979L45.1422 6.75571L46.8732 6.75571L50.7225 13.1369L49.8054 13.1369L53.5902 6.75571L55.3082 6.75571L55.334 15.7979L53.3706 15.7979L53.3577 9.76545L53.7193 9.76545L50.6967 14.842L49.7537 14.842L46.6665 9.76545L47.1057 9.76545L47.1057 15.7979L45.1422 15.7979ZM57.4793 15.7979L57.4793 6.75571L59.5719 6.75571L59.5719 14.0928L64.1059 14.0928L64.1059 15.7979L57.4793 15.7979ZM68.9334 15.7979L68.9334 6.75571L70.6643 6.75571L74.5137 13.1369L73.5965 13.1369L77.3813 6.75571L79.0993 6.75571L79.1251 15.7979L77.1617 15.7979L77.1488 9.76545L77.5105 9.76545L74.4878 14.842L73.5449 14.842L70.4576 9.76545L70.8968 9.76545L70.8968 15.7979L68.9334 15.7979ZM85.6623 15.9529C84.9476 15.9529 84.2845 15.8366 83.6731 15.6041C83.0703 15.3716 82.5449 15.0443 82.0971 14.6224C81.658 14.2004 81.3135 13.7052 81.0638 13.1369C80.8226 12.5685 80.7021 11.9485 80.7021 11.2768C80.7021 10.6051 80.8226 9.98504 81.0638 9.41668C81.3135 8.84832 81.6623 8.35315 82.1101 7.93119C82.5579 7.50922 83.0832 7.18198 83.686 6.94947C84.2888 6.71696 84.9433 6.6007 85.6494 6.6007C86.3642 6.6007 87.0187 6.71696 87.6128 6.94947C88.2157 7.18198 88.7367 7.50922 89.1758 7.93119C89.6237 8.35315 89.9724 8.84832 90.2222 9.41668C90.4719 9.97643 90.5968 10.5965 90.5968 11.2768C90.5968 11.9485 90.4719 12.5728 90.2222 13.1498C89.9724 13.7182 89.6237 14.2133 89.1758 14.6353C88.7367 15.0486 88.2157 15.3716 87.6128 15.6041C87.0187 15.8366 86.3685 15.9529 85.6623 15.9529ZM85.6494 14.1703C86.0542 14.1703 86.4245 14.1014 86.7603 13.9636C87.1048 13.8258 87.4062 13.6277 87.6645 13.3694C87.9229 13.111 88.1209 12.8053 88.2587 12.4523C88.4051 12.0992 88.4783 11.7074 88.4783 11.2768C88.4783 10.8462 88.4051 10.4544 88.2587 10.1013C88.1209 9.74823 87.9229 9.44252 87.6645 9.18417C87.4148 8.92582 87.1177 8.72776 86.7732 8.58997C86.4288 8.45219 86.0542 8.38329 85.6494 8.38329C85.2447 8.38329 84.8701 8.45219 84.5256 8.58997C84.1898 8.72776 83.8927 8.92582 83.6343 9.18417C83.376 9.44252 83.1736 9.74823 83.0272 10.1013C82.8894 10.4544 82.8205 10.8462 82.8205 11.2768C82.8205 11.6987 82.8894 12.0906 83.0272 12.4523C83.1736 12.8053 83.3717 13.111 83.6214 13.3694C83.8797 13.6277 84.1811 13.8258 84.5256 13.9636C84.8701 14.1014 85.2447 14.1703 85.6494 14.1703ZM96.5484 15.9529C95.8423 15.9529 95.1835 15.8366 94.5721 15.6041C93.9693 15.3716 93.444 15.0443 92.9962 14.6224C92.557 14.2004 92.2125 13.7052 91.9628 13.1369C91.7216 12.5685 91.6011 11.9485 91.6011 11.2768C91.6011 10.6051 91.7216 9.98504 91.9628 9.41668C92.2125 8.84832 92.5613 8.35315 93.0091 7.93119C93.4569 7.50922 93.9822 7.18198 94.585 6.94947C95.1878 6.71696 95.8423 6.6007 96.5484 6.6007C97.2632 6.6007 97.9177 6.71696 98.5119 6.94947C99.1147 7.18198 99.6357 7.50922 100.075 7.93119C100.523 8.34454 100.871 8.8354 101.121 9.40376C101.371 9.97213 101.496 10.5965 101.496 11.2768C101.496 11.9485 101.371 12.5728 101.121 13.1498C100.871 13.7182 100.523 14.2133 100.075 14.6353C99.6357 15.0486 99.1147 15.3716 98.5119 15.6041C97.9177 15.8366 97.2632 15.9529 96.5484 15.9529ZM99.5065 17.8775C99.1534 17.8775 98.8176 17.8388 98.4989 17.7613C98.1889 17.6838 97.8789 17.5589 97.5689 17.3867C97.2675 17.2145 96.9489 16.9819 96.613 16.6891C96.2858 16.3964 95.9284 16.0347 95.5409 15.6041L97.7368 15.0486C97.9693 15.3673 98.1846 15.6213 98.3827 15.8108C98.5808 16.0002 98.7702 16.1337 98.951 16.2112C99.1405 16.2887 99.3386 16.3275 99.5452 16.3275C100.096 16.3275 100.587 16.1036 101.018 15.6558L101.948 16.7667C101.336 17.5072 100.523 17.8775 99.5065 17.8775ZM96.5484 14.1703C96.9532 14.1703 97.3235 14.1014 97.6593 13.9636C98.0038 13.8258 98.3052 13.6277 98.5635 13.3694C98.8219 13.111 99.0199 12.8053 99.1577 12.4523C99.3041 12.0906 99.3773 11.6987 99.3773 11.2768C99.3773 10.8462 99.3041 10.4544 99.1577 10.1013C99.0199 9.74823 98.8219 9.44252 98.5635 9.18417C98.3052 8.92582 98.0038 8.72776 97.6593 8.58997C97.3235 8.45219 96.9532 8.38329 96.5484 8.38329C96.1437 8.38329 95.7691 8.45219 95.4246 8.58997C95.0802 8.72776 94.7787 8.92582 94.5204 9.18417C94.2707 9.44252 94.0726 9.74823 93.9262 10.1013C93.7884 10.4544 93.7195 10.8462 93.7195 11.2768C93.7195 11.6987 93.7884 12.0906 93.9262 12.4523C94.0726 12.8053 94.2707 13.111 94.5204 13.3694C94.7787 13.6277 95.0802 13.8258 95.4246 13.9636C95.7691 14.1014 96.1437 14.1703 96.5484 14.1703ZM106.326 12.969L106.326 11.3543L109.982 11.3543L109.982 12.969L106.326 12.969ZM117.874 15.9529C117.245 15.9529 116.621 15.871 116.001 15.7074C115.389 15.5352 114.864 15.2941 114.425 14.9841L115.251 13.3823C115.596 13.632 115.992 13.8301 116.44 13.9765C116.896 14.1229 117.357 14.1961 117.822 14.1961C118.347 14.1961 118.761 14.0928 119.062 13.8861C119.363 13.6794 119.514 13.3909 119.514 13.0206C119.514 12.7881 119.454 12.5814 119.333 12.4006C119.213 12.2197 118.997 12.082 118.687 11.9872C118.386 11.8925 117.96 11.8451 117.409 11.8451L115.096 11.8451L115.561 6.75571L121.077 6.75571L121.077 8.43496L116.311 8.43496L117.396 7.47908L117.073 11.1089L115.988 10.153L117.899 10.153C118.795 10.153 119.514 10.2778 120.057 10.5276C120.608 10.7687 121.008 11.1002 121.258 11.5222C121.508 11.9442 121.633 12.4221 121.633 12.956C121.633 13.49 121.499 13.9851 121.232 14.4415C120.965 14.8893 120.552 15.2553 119.992 15.5395C119.441 15.8151 118.735 15.9529 117.874 15.9529ZM126.357 15.9529C125.616 15.9529 124.953 15.772 124.368 15.4103C123.782 15.04 123.321 14.5061 122.985 13.8086C122.65 13.111 122.482 12.2671 122.482 11.2768C122.482 10.2864 122.65 9.44252 122.985 8.74498C123.321 8.04744 123.782 7.51783 124.368 7.15615C124.953 6.78585 125.616 6.6007 126.357 6.6007C127.106 6.6007 127.769 6.78585 128.346 7.15615C128.932 7.51783 129.392 8.04744 129.728 8.74498C130.064 9.44252 130.232 10.2864 130.232 11.2768C130.232 12.2671 130.064 13.111 129.728 13.8086C129.392 14.5061 128.932 15.04 128.346 15.4103C127.769 15.772 127.106 15.9529 126.357 15.9529ZM126.357 14.1832C126.71 14.1832 127.016 14.0841 127.274 13.8861C127.541 13.688 127.748 13.3737 127.894 12.9431C128.049 12.5125 128.126 11.9571 128.126 11.2768C128.126 10.5965 128.049 10.041 127.894 9.61044C127.748 9.17986 127.541 8.86554 127.274 8.66747C127.016 8.46941 126.71 8.37038 126.357 8.37038C126.012 8.37038 125.707 8.46941 125.44 8.66747C125.181 8.86554 124.975 9.17986 124.82 9.61044C124.673 10.041 124.6 10.5965 124.6 11.2768C124.6 11.9571 124.673 12.5125 124.82 12.9431C124.975 13.3737 125.181 13.688 125.44 13.8861C125.707 14.0841 126.012 14.1832 126.357 14.1832ZM135.124 15.9529C134.383 15.9529 133.72 15.772 133.135 15.4103C132.549 15.04 132.088 14.5061 131.753 13.8086C131.417 13.111 131.249 12.2671 131.249 11.2768C131.249 10.2864 131.417 9.44252 131.753 8.74498C132.088 8.04744 132.549 7.51783 133.135 7.15614C133.72 6.78585 134.383 6.6007 135.124 6.6007C135.873 6.6007 136.536 6.78585 137.113 7.15614C137.699 7.51783 138.16 8.04744 138.495 8.74498C138.831 9.44252 138.999 10.2864 138.999 11.2768C138.999 12.2671 138.831 13.111 138.495 13.8086C138.16 14.5061 137.699 15.04 137.113 15.4103C136.536 15.772 135.873 15.9529 135.124 15.9529ZM135.124 14.1832C135.477 14.1832 135.783 14.0841 136.041 13.8861C136.308 13.688 136.515 13.3737 136.661 12.9431C136.816 12.5125 136.894 11.9571 136.894 11.2768C136.894 10.5965 136.816 10.041 136.661 9.61044C136.515 9.17986 136.308 8.86554 136.041 8.66747C135.783 8.46941 135.477 8.37038 135.124 8.37038C134.779 8.37038 134.474 8.46941 134.207 8.66747C133.948 8.86554 133.742 9.17986 133.587 9.61044C133.44 10.041 133.367 10.5965 133.367 11.2768C133.367 11.9571 133.44 12.5125 133.587 12.9431C133.742 13.3737 133.948 13.688 134.207 13.8861C134.474 14.0841 134.779 14.1832 135.124 14.1832ZM143.891 15.9529C143.151 15.9529 142.487 15.772 141.902 15.4103C141.316 15.04 140.856 14.5061 140.52 13.8086C140.184 13.111 140.016 12.2671 140.016 11.2768C140.016 10.2864 140.184 9.44252 140.52 8.74498C140.856 8.04744 141.316 7.51783 141.902 7.15614C142.487 6.78585 143.151 6.6007 143.891 6.6007C144.64 6.6007 145.303 6.78585 145.88 7.15614C146.466 7.51783 146.927 8.04744 147.263 8.74498C147.598 9.44251 147.766 10.2864 147.766 11.2768C147.766 12.2671 147.598 13.111 147.263 13.8086C146.927 14.5061 146.466 15.04 145.88 15.4103C145.303 15.772 144.64 15.9529 143.891 15.9529ZM143.891 14.1832C144.244 14.1832 144.55 14.0841 144.808 13.8861C145.075 13.688 145.282 13.3737 145.428 12.9431C145.583 12.5125 145.661 11.9571 145.661 11.2768C145.661 10.5965 145.583 10.041 145.428 9.61044C145.282 9.17986 145.075 8.86554 144.808 8.66747C144.55 8.46941 144.244 8.37038 143.891 8.37038C143.547 8.37038 143.241 8.46941 142.974 8.66747C142.716 8.86554 142.509 9.17986 142.354 9.61044C142.208 10.041 142.134 10.5965 142.134 11.2768C142.134 11.9571 142.208 12.5125 142.354 12.9431C142.509 13.3737 142.716 13.688 142.974 13.8861C143.241 14.0841 143.547 14.1832 143.891 14.1832ZM153.01 15.7978L153.01 6.75571L156.924 6.75571C157.733 6.75571 158.431 6.88919 159.016 7.15614C159.602 7.41449 160.054 7.78909 160.373 8.27995C160.691 8.77081 160.85 9.3564 160.85 10.0367C160.85 10.7084 160.691 11.2897 160.373 11.7806C160.054 12.2714 159.602 12.6503 159.016 12.9173C158.431 13.1756 157.733 13.3048 156.924 13.3048L154.172 13.3048L155.102 12.3618L155.102 15.7978L153.01 15.7978ZM155.102 12.5943L154.172 11.5997L156.807 11.5997C157.453 11.5997 157.935 11.4619 158.254 11.1864C158.573 10.9108 158.732 10.5276 158.732 10.0367C158.732 9.53724 158.573 9.14972 158.254 8.87415C157.935 8.59858 157.453 8.4608 156.807 8.4608L154.172 8.4608L155.102 7.46616L155.102 12.5943ZM165.548 15.9012C164.799 15.9012 164.132 15.7505 163.546 15.4491C162.96 15.1391 162.5 14.7128 162.164 14.1703C161.837 13.6277 161.673 13.012 161.673 12.3231C161.673 11.6255 161.837 11.0098 162.164 10.4759C162.5 9.93337 162.96 9.51141 163.546 9.21C164.132 8.89999 164.799 8.74498 165.548 8.74498C166.28 8.74498 166.917 8.89999 167.46 9.21C168.003 9.51141 168.403 9.94629 168.661 10.5147L167.098 11.3543C166.917 11.027 166.689 10.7859 166.414 10.6309C166.147 10.4759 165.854 10.3984 165.535 10.3984C165.191 10.3984 164.881 10.4759 164.605 10.6309C164.33 10.7859 164.11 11.0055 163.946 11.2897C163.791 11.5739 163.714 11.9183 163.714 12.3231C163.714 12.7278 163.791 13.0723 163.946 13.3565C164.11 13.6407 164.33 13.8602 164.605 14.0153C164.881 14.1703 165.191 14.2478 165.535 14.2478C165.854 14.2478 166.147 14.1746 166.414 14.0282C166.689 13.8732 166.917 13.6277 167.098 13.2919L168.661 14.1444C168.403 14.7042 168.003 15.1391 167.46 15.4491C166.917 15.7505 166.28 15.9012 165.548 15.9012ZM172.16 15.9012C171.565 15.9012 170.993 15.8323 170.442 15.6945C169.899 15.5481 169.468 15.3673 169.15 15.152L169.822 13.7052C170.14 13.9033 170.515 14.0669 170.945 14.1961C171.385 14.3167 171.815 14.3769 172.237 14.3769C172.702 14.3769 173.029 14.321 173.219 14.209C173.417 14.0971 173.516 13.9421 173.516 13.744C173.516 13.5804 173.438 13.4598 173.283 13.3823C173.137 13.2962 172.939 13.2316 172.689 13.1885C172.439 13.1455 172.164 13.1024 171.862 13.0594C171.57 13.0163 171.273 12.9603 170.971 12.8914C170.67 12.8139 170.394 12.702 170.144 12.5556C169.895 12.4092 169.692 12.2111 169.537 11.9614C169.391 11.7117 169.318 11.3887 169.318 10.9926C169.318 10.5534 169.443 10.1659 169.692 9.83004C169.951 9.49418 170.321 9.23153 170.803 9.04208C171.286 8.84401 171.862 8.74498 172.534 8.74498C173.008 8.74498 173.49 8.79665 173.981 8.89999C174.472 9.00332 174.881 9.15403 175.208 9.35209L174.536 10.7859C174.201 10.5879 173.86 10.4544 173.516 10.3855C173.18 10.308 172.853 10.2692 172.534 10.2692C172.086 10.2692 171.759 10.3295 171.552 10.4501C171.346 10.5706 171.242 10.7256 171.242 10.9151C171.242 11.0873 171.316 11.2165 171.462 11.3026C171.617 11.3887 171.819 11.4576 172.069 11.5093C172.319 11.561 172.59 11.6083 172.883 11.6514C173.184 11.6858 173.486 11.7418 173.787 11.8193C174.089 11.8968 174.36 12.0088 174.601 12.1552C174.851 12.2929 175.053 12.4867 175.208 12.7364C175.363 12.9776 175.441 13.2962 175.441 13.6923C175.441 14.1229 175.311 14.5061 175.053 14.842C174.795 15.1692 174.42 15.4276 173.929 15.617C173.447 15.8065 172.857 15.9012 172.16 15.9012Z" fill="white"/>
<rect x="4.58496" y="137" width="207" height="40" fill="#BE534E"/>
<rect x="4.58496" y="137" width="207" height="40" stroke="white"/>
<path d="M52.7274 166.689C51.2045 166.689 49.8409 166.317 48.6368 165.573C47.4326 164.812 46.4852 163.714 45.7946 162.28C45.104 160.845 44.7586 159.11 44.7586 157.073C44.7586 155.037 45.104 153.301 45.7946 151.867C46.4852 150.433 47.4326 149.344 48.6368 148.6C49.8409 147.838 51.2045 147.458 52.7274 147.458C54.268 147.458 55.6315 147.838 56.818 148.6C58.0221 149.344 58.9695 150.433 59.6602 151.867C60.3508 153.301 60.6961 155.037 60.6961 157.073C60.6961 159.11 60.3508 160.845 59.6602 162.28C58.9695 163.714 58.0221 164.812 56.818 165.573C55.6315 166.317 54.268 166.689 52.7274 166.689ZM52.7274 163.05C53.4534 163.05 54.0821 162.846 54.6133 162.439C55.1623 162.032 55.5873 161.385 55.8883 160.5C56.207 159.614 56.3664 158.472 56.3664 157.073C56.3664 155.674 56.207 154.532 55.8883 153.647C55.5873 152.761 55.1623 152.115 54.6133 151.708C54.0821 151.3 53.4534 151.097 52.7274 151.097C52.019 151.097 51.3904 151.3 50.8414 151.708C50.3102 152.115 49.8852 152.761 49.5664 153.647C49.2654 154.532 49.1149 155.674 49.1149 157.073C49.1149 158.472 49.2654 159.614 49.5664 160.5C49.8852 161.385 50.3102 162.032 50.8414 162.439C51.3904 162.846 52.019 163.05 52.7274 163.05ZM68.5571 166.689C67.2644 166.689 65.9806 166.521 64.7056 166.184C63.4306 165.83 62.3504 165.334 61.465 164.697L63.1384 161.403C63.8467 161.916 64.6702 162.324 65.6087 162.625C66.5472 162.926 67.4946 163.076 68.4509 163.076C69.5311 163.076 70.3811 162.864 71.0009 162.439C71.6207 162.014 71.9306 161.43 71.9306 160.686C71.9306 159.977 71.6561 159.42 71.1071 159.012C70.5582 158.605 69.6727 158.401 68.4509 158.401L66.4853 158.401L66.4853 155.559L71.6649 149.689L72.1431 151.23L62.3946 151.23L62.3946 147.776L75.4102 147.776L75.4102 150.565L70.2571 156.436L68.079 155.187L69.3274 155.187C71.6118 155.187 73.3384 155.701 74.5071 156.728C75.6759 157.755 76.2602 159.074 76.2602 160.686C76.2602 161.731 75.9858 162.713 75.4368 163.634C74.8878 164.537 74.0467 165.272 72.9134 165.839C71.78 166.406 70.328 166.689 68.5571 166.689ZM78.5923 160.553L78.5923 157.233L86.1095 157.233L86.1095 160.553L78.5923 160.553ZM87.9189 166.37L87.9189 163.581L95.0907 156.808C95.6574 156.294 96.0735 155.834 96.3391 155.426C96.6048 155.019 96.7818 154.647 96.8704 154.311C96.9766 153.974 97.0298 153.664 97.0298 153.381C97.0298 152.637 96.773 152.071 96.2595 151.681C95.7636 151.274 95.0287 151.07 94.0548 151.07C93.2756 151.07 92.5496 151.221 91.8767 151.522C91.2214 151.823 90.6636 152.292 90.2032 152.93L87.0689 150.911C87.7772 149.848 88.7688 149.007 90.0438 148.387C91.3188 147.768 92.7886 147.458 94.4532 147.458C95.8345 147.458 97.0386 147.688 98.0657 148.148C99.1105 148.591 99.9162 149.22 100.483 150.034C101.067 150.849 101.359 151.823 101.359 152.956C101.359 153.558 101.28 154.16 101.12 154.762C100.979 155.347 100.678 155.966 100.217 156.622C99.7745 157.277 99.1193 158.012 98.2516 158.826L92.3017 164.431L91.4782 162.864L101.97 162.864L101.97 166.37L87.9189 166.37ZM110.068 166.689C108.775 166.689 107.491 166.521 106.216 166.184C104.959 165.83 103.879 165.334 102.976 164.697L104.676 161.403C105.384 161.916 106.199 162.324 107.119 162.625C108.058 162.926 109.005 163.076 109.962 163.076C111.042 163.076 111.892 162.864 112.512 162.439C113.131 162.014 113.441 161.421 113.441 160.659C113.441 160.181 113.317 159.756 113.069 159.384C112.821 159.012 112.379 158.729 111.741 158.534C111.121 158.339 110.245 158.242 109.112 158.242L104.357 158.242L105.313 147.776L116.655 147.776L116.655 151.23L106.854 151.23L109.085 149.264L108.421 156.728L106.19 154.762L110.121 154.762C111.963 154.762 113.441 155.019 114.557 155.533C115.69 156.028 116.514 156.71 117.027 157.578C117.541 158.446 117.797 159.428 117.797 160.526C117.797 161.624 117.523 162.643 116.974 163.581C116.425 164.502 115.575 165.254 114.424 165.839C113.291 166.406 111.839 166.689 110.068 166.689ZM127.512 166.689C125.989 166.689 124.626 166.317 123.421 165.573C122.217 164.812 121.27 163.714 120.579 162.28C119.889 160.845 119.543 159.11 119.543 157.073C119.543 155.037 119.889 153.301 120.579 151.867C121.27 150.433 122.217 149.344 123.421 148.6C124.626 147.838 125.989 147.458 127.512 147.458C129.053 147.458 130.416 147.838 131.603 148.6C132.807 149.344 133.754 150.433 134.445 151.867C135.135 153.301 135.481 155.037 135.481 157.073C135.481 159.11 135.135 160.845 134.445 162.28C133.754 163.714 132.807 164.812 131.603 165.573C130.416 166.317 129.053 166.689 127.512 166.689ZM127.512 163.05C128.238 163.05 128.867 162.846 129.398 162.439C129.947 162.032 130.372 161.385 130.673 160.5C130.992 159.614 131.151 158.472 131.151 157.073C131.151 155.674 130.992 154.532 130.673 153.647C130.372 152.761 129.947 152.115 129.398 151.708C128.867 151.3 128.238 151.097 127.512 151.097C126.804 151.097 126.175 151.3 125.626 151.708C125.095 152.115 124.67 152.761 124.351 153.647C124.05 154.532 123.9 155.674 123.9 157.073C123.9 158.472 124.05 159.614 124.351 160.5C124.67 161.385 125.095 162.032 125.626 162.439C126.175 162.846 126.804 163.05 127.512 163.05ZM164.272 151.867C165.405 151.867 166.406 152.097 167.274 152.558C168.159 153 168.85 153.691 169.346 154.63C169.859 155.55 170.116 156.737 170.116 158.189L170.116 166.37L165.972 166.37L165.972 158.826C165.972 157.675 165.733 156.825 165.255 156.276C164.777 155.727 164.104 155.453 163.236 155.453C162.634 155.453 162.094 155.595 161.616 155.878C161.138 156.144 160.766 156.551 160.5 157.1C160.235 157.649 160.102 158.348 160.102 159.198L160.102 166.37L155.958 166.37L155.958 158.826C155.958 157.675 155.719 156.825 155.241 156.276C154.78 155.727 154.116 155.453 153.249 155.453C152.647 155.453 152.107 155.595 151.628 155.878C151.15 156.144 150.778 156.551 150.513 157.1C150.247 157.649 150.114 158.348 150.114 159.198L150.114 166.37L145.971 166.37L145.971 152.08L149.928 152.08L149.928 155.984L149.185 154.842C149.681 153.868 150.38 153.133 151.283 152.637C152.204 152.124 153.249 151.867 154.417 151.867C155.728 151.867 156.87 152.203 157.844 152.876C158.836 153.532 159.491 154.541 159.81 155.905L158.349 155.506C158.827 154.39 159.588 153.505 160.633 152.85C161.696 152.195 162.909 151.867 164.272 151.867ZM173.83 166.37L173.83 146.661L177.974 146.661L177.974 166.37L173.83 166.37Z" fill="#F6F4F3"/>
</g>
</g>
<defs>
<filter id="filter0_d_2196_647" x="0.305664" y="0" width="215.279" height="305.5" filterUnits="userSpaceOnUse" color-interpolation-filters="sRGB">
<feFlood flood-opacity="0" result="BackgroundImageFix"/>
<feColorMatrix in="SourceAlpha" type="matrix" values="0 0 0 0 0 0 0 0 0 0 0 0 0 0 0 0 0 0 127 0" result="hardAlpha"/>
<feOffset dy="4"/>
<feGaussianBlur stdDeviation="2"/>
<feComposite in2="hardAlpha" operator="out"/>
<feColorMatrix type="matrix" values="0 0 0 0 0 0 0 0 0 0 0 0 0 0 0 0 0 0 0.25 0"/>
<feBlend mode="normal" in2="BackgroundImageFix" result="effect1_dropShadow_2196_647"/>
<feBlend mode="normal" in="SourceGraphic" in2="effect1_dropShadow_2196_647" result="shape"/>
</filter>
<filter id="filter1_d_2196_647" x="-0.000117779" y="0" width="215.891" height="306.112" filterUnits="userSpaceOnUse" color-interpolation-filters="sRGB">
<feFlood flood-opacity="0" result="BackgroundImageFix"/>
<feColorMatrix in="SourceAlpha" type="matrix" values="0 0 0 0 0 0 0 0 0 0 0 0 0 0 0 0 0 0 127 0" result="hardAlpha"/>
<feOffset dy="4.30578"/>
<feGaussianBlur stdDeviation="2.15289"/>
<feComposite in2="hardAlpha" operator="out"/>
<feColorMatrix type="matrix" values="0 0 0 0 0 0 0 0 0 0 0 0 0 0 0 0 0 0 0.25 0"/>
<feBlend mode="normal" in2="BackgroundImageFix" result="effect1_dropShadow_2196_647"/>
<feBlend mode="normal" in="SourceGraphic" in2="effect1_dropShadow_2196_647" result="shape"/>
</filter>
<linearGradient id="paint0_linear_2196_647" x1="108.114" y1="286.601" x2="108.114" y2="297.36" gradientUnits="userSpaceOnUse">
<stop offset="0.365385" stop-color="#DAB9A0"/>
<stop offset="1" stop-color="white"/>
</linearGradient>
</defs>
</svg>
