<svg width="71" height="11" viewBox="0 0 71 11" fill="none" xmlns="http://www.w3.org/2000/svg">
<path d="M4.20108 10.5562C3.39841 10.5562 2.67974 10.3602 2.04508 9.96818C1.41041 9.56685 0.911078 8.98818 0.547078 8.23218C0.183078 7.47618 0.00107814 6.56152 0.00107814 5.48818C0.00107814 4.41485 0.183078 3.50018 0.547078 2.74418C0.911078 1.98818 1.41041 1.41418 2.04508 1.02218C2.67974 0.62085 3.39841 0.420183 4.20108 0.420183C5.01308 0.420183 5.73175 0.62085 6.35708 1.02218C6.99175 1.41418 7.49108 1.98818 7.85508 2.74418C8.21908 3.50018 8.40108 4.41485 8.40108 5.48818C8.40108 6.56152 8.21908 7.47618 7.85508 8.23218C7.49108 8.98818 6.99175 9.56685 6.35708 9.96818C5.73175 10.3602 5.01308 10.5562 4.20108 10.5562ZM4.20108 8.63818C4.58375 8.63818 4.91508 8.53085 5.19508 8.31618C5.48441 8.10152 5.70841 7.76085 5.86708 7.29418C6.03508 6.82752 6.11908 6.22552 6.11908 5.48818C6.11908 4.75085 6.03508 4.14885 5.86708 3.68218C5.70841 3.21552 5.48441 2.87485 5.19508 2.66018C4.91508 2.44552 4.58375 2.33818 4.20108 2.33818C3.82775 2.33818 3.49641 2.44552 3.20708 2.66018C2.92708 2.87485 2.70308 3.21552 2.53508 3.68218C2.37641 4.14885 2.29708 4.75085 2.29708 5.48818C2.29708 6.22552 2.37641 6.82752 2.53508 7.29418C2.70308 7.76085 2.92708 8.10152 3.20708 8.31618C3.49641 8.53085 3.82775 8.63818 4.20108 8.63818ZM12.5443 10.5562C11.863 10.5562 11.1863 10.4675 10.5143 10.2902C9.84231 10.1035 9.27298 9.84218 8.80631 9.50618L9.68831 7.77018C10.0616 8.04085 10.4956 8.25552 10.9903 8.41418C11.485 8.57285 11.9843 8.65218 12.4883 8.65218C13.0576 8.65218 13.5056 8.54018 13.8323 8.31618C14.159 8.09218 14.3223 7.78418 14.3223 7.39218C14.3223 7.01885 14.1776 6.72485 13.8883 6.51018C13.599 6.29552 13.1323 6.18818 12.4883 6.18818H11.4523V4.69018L14.1823 1.59618L14.4343 2.40818L9.29631 2.40818V0.588183H16.1563V2.05818L13.4403 5.15218L12.2923 4.49418H12.9503C14.1543 4.49418 15.0643 4.76485 15.6803 5.30618C16.2963 5.84752 16.6043 6.54285 16.6043 7.39218C16.6043 7.94285 16.4596 8.46085 16.1703 8.94618C15.881 9.42218 15.4376 9.80952 14.8403 10.1082C14.243 10.4069 13.4776 10.5562 12.5443 10.5562ZM17.8335 7.32218V5.57218H21.7955V7.32218H17.8335ZM22.7491 10.3882V8.91818L26.5291 5.34818C26.8278 5.07752 27.0471 4.83485 27.1871 4.62018C27.3271 4.40552 27.4204 4.20952 27.4671 4.03218C27.5231 3.85485 27.5511 3.69152 27.5511 3.54218C27.5511 3.15018 27.4158 2.85152 27.1451 2.64618C26.8838 2.43152 26.4964 2.32418 25.9831 2.32418C25.5724 2.32418 25.1898 2.40352 24.8351 2.56218C24.4898 2.72085 24.1958 2.96818 23.9531 3.30418L22.3011 2.24018C22.6744 1.68018 23.1971 1.23685 23.8691 0.910183C24.5411 0.583517 25.3158 0.420183 26.1931 0.420183C26.9211 0.420183 27.5558 0.541517 28.0971 0.784183C28.6478 1.01752 29.0724 1.34885 29.3711 1.77818C29.6791 2.20752 29.8331 2.72085 29.8331 3.31818C29.8331 3.63552 29.7911 3.95285 29.7071 4.27018C29.6324 4.57818 29.4738 4.90485 29.2311 5.25018C28.9978 5.59552 28.6524 5.98285 28.1951 6.41218L25.0591 9.36618L24.6251 8.54018H30.1551V10.3882L22.7491 10.3882ZM34.4229 10.5562C33.7416 10.5562 33.0649 10.4675 32.3929 10.2902C31.7303 10.1035 31.1609 9.84218 30.6849 9.50618L31.5809 7.77018C31.9543 8.04085 32.3836 8.25552 32.8689 8.41418C33.3636 8.57285 33.8629 8.65218 34.3669 8.65218C34.9363 8.65218 35.3843 8.54018 35.7109 8.31618C36.0376 8.09218 36.2009 7.77952 36.2009 7.37818C36.2009 7.12618 36.1356 6.90218 36.0049 6.70618C35.8743 6.51018 35.6409 6.36085 35.3049 6.25818C34.9783 6.15552 34.5163 6.10418 33.9189 6.10418H31.4129L31.9169 0.588183L37.8949 0.588183V2.40818H32.7289L33.9049 1.37218L33.5549 5.30618L32.3789 4.27018H34.4509C35.4216 4.27018 36.2009 4.40552 36.7889 4.67618C37.3863 4.93752 37.8203 5.29685 38.0909 5.75418C38.3616 6.21152 38.4969 6.72952 38.4969 7.30818C38.4969 7.88685 38.3523 8.42352 38.0629 8.91818C37.7736 9.40352 37.3256 9.80018 36.7189 10.1082C36.1216 10.4069 35.3563 10.5562 34.4229 10.5562ZM43.6171 10.5562C42.8144 10.5562 42.0958 10.3602 41.4611 9.96818C40.8264 9.56685 40.3271 8.98818 39.9631 8.23218C39.5991 7.47618 39.4171 6.56152 39.4171 5.48818C39.4171 4.41485 39.5991 3.50018 39.9631 2.74418C40.3271 1.98818 40.8264 1.41418 41.4611 1.02218C42.0958 0.62085 42.8144 0.420183 43.6171 0.420183C44.4291 0.420183 45.1478 0.62085 45.7731 1.02218C46.4078 1.41418 46.9071 1.98818 47.2711 2.74418C47.6351 3.50018 47.8171 4.41485 47.8171 5.48818C47.8171 6.56152 47.6351 7.47618 47.2711 8.23218C46.9071 8.98818 46.4078 9.56685 45.7731 9.96818C45.1478 10.3602 44.4291 10.5562 43.6171 10.5562ZM43.6171 8.63818C43.9998 8.63818 44.3311 8.53085 44.6111 8.31618C44.9004 8.10152 45.1244 7.76085 45.2831 7.29418C45.4511 6.82752 45.5351 6.22552 45.5351 5.48818C45.5351 4.75085 45.4511 4.14885 45.2831 3.68218C45.1244 3.21552 44.9004 2.87485 44.6111 2.66018C44.3311 2.44552 43.9998 2.33818 43.6171 2.33818C43.2438 2.33818 42.9124 2.44552 42.6231 2.66018C42.3431 2.87485 42.1191 3.21552 41.9511 3.68218C41.7924 4.14885 41.7131 4.75085 41.7131 5.48818C41.7131 6.22552 41.7924 6.82752 41.9511 7.29418C42.1191 7.76085 42.3431 8.10152 42.6231 8.31618C42.9124 8.53085 43.2438 8.63818 43.6171 8.63818ZM62.9919 2.74418C63.5892 2.74418 64.1166 2.86552 64.5739 3.10818C65.0406 3.34152 65.4046 3.70552 65.6659 4.20018C65.9366 4.68552 66.0719 5.31085 66.0719 6.07618V10.3882H63.8879V6.41218C63.8879 5.80552 63.7619 5.35752 63.5099 5.06818C63.2579 4.77885 62.9032 4.63418 62.4459 4.63418C62.1286 4.63418 61.8439 4.70885 61.5919 4.85818C61.3399 4.99818 61.1439 5.21285 61.0039 5.50218C60.8639 5.79152 60.7939 6.16018 60.7939 6.60818V10.3882H58.6099V6.41218C58.6099 5.80552 58.4839 5.35752 58.2319 5.06818C57.9892 4.77885 57.6392 4.63418 57.1819 4.63418C56.8646 4.63418 56.5799 4.70885 56.3279 4.85818C56.0759 4.99818 55.8799 5.21285 55.7399 5.50218C55.5999 5.79152 55.5299 6.16018 55.5299 6.60818V10.3882H53.3459V2.85618H55.4319V4.91418L55.0399 4.31218C55.3012 3.79885 55.6699 3.41152 56.1459 3.15018C56.6312 2.87952 57.1819 2.74418 57.7979 2.74418C58.4886 2.74418 59.0906 2.92152 59.6039 3.27618C60.1266 3.62152 60.4719 4.15352 60.6399 4.87218L59.8699 4.66218C60.1219 4.07418 60.5232 3.60752 61.0739 3.26218C61.6339 2.91685 62.2732 2.74418 62.9919 2.74418ZM68.0295 10.3882V0.000182986H70.2135V10.3882H68.0295Z" fill="#F6F4F3"/>
</svg>
