<svg width="319" height="38" viewBox="0 0 319 38" fill="none" xmlns="http://www.w3.org/2000/svg">
<path d="M7.3847 14.084C6.64737 14.084 5.96603 13.9627 5.3407 13.72C4.71537 13.468 4.17403 13.118 3.7167 12.67C3.25937 12.222 2.90003 11.6947 2.6387 11.088C2.3867 10.4813 2.2607 9.81867 2.2607 9.1C2.2607 8.38133 2.3867 7.71867 2.6387 7.112C2.90003 6.50533 3.25937 5.978 3.7167 5.53C4.18337 5.082 4.72937 4.73667 5.3547 4.494C5.98003 4.242 6.66137 4.116 7.3987 4.116C8.10803 4.116 8.77537 4.23733 9.4007 4.48C10.026 4.71333 10.5534 5.068 10.9827 5.544L10.3247 6.202C9.92337 5.79133 9.48003 5.49733 8.9947 5.32C8.50937 5.13333 7.9867 5.04 7.4267 5.04C6.8387 5.04 6.2927 5.14267 5.7887 5.348C5.2847 5.544 4.84603 5.82867 4.4727 6.202C4.09937 6.566 3.80537 6.99533 3.5907 7.49C3.38537 7.97533 3.2827 8.512 3.2827 9.1C3.2827 9.688 3.38537 10.2293 3.5907 10.724C3.80537 11.2093 4.09937 11.6387 4.4727 12.012C4.84603 12.376 5.2847 12.6607 5.7887 12.866C6.2927 13.062 6.8387 13.16 7.4267 13.16C7.9867 13.16 8.50937 13.0667 8.9947 12.88C9.48003 12.6933 9.92337 12.3947 10.3247 11.984L10.9827 12.642C10.5534 13.118 10.026 13.4773 9.4007 13.72C8.77537 13.9627 8.10337 14.084 7.3847 14.084ZM15.6491 14.07C14.9397 14.07 14.3004 13.9113 13.7311 13.594C13.1711 13.2673 12.7277 12.824 12.4011 12.264C12.0744 11.6947 11.9111 11.046 11.9111 10.318C11.9111 9.58067 12.0744 8.932 12.4011 8.372C12.7277 7.812 13.1711 7.37333 13.7311 7.056C14.2911 6.73867 14.9304 6.58 15.6491 6.58C16.3771 6.58 17.0211 6.73867 17.5811 7.056C18.1504 7.37333 18.5937 7.812 18.9111 8.372C19.2377 8.932 19.4011 9.58067 19.4011 10.318C19.4011 11.046 19.2377 11.6947 18.9111 12.264C18.5937 12.824 18.1504 13.2673 17.5811 13.594C17.0117 13.9113 16.3677 14.07 15.6491 14.07ZM15.6491 13.188C16.1811 13.188 16.6524 13.0713 17.0631 12.838C17.4737 12.5953 17.7957 12.2593 18.0291 11.83C18.2717 11.3913 18.3931 10.8873 18.3931 10.318C18.3931 9.73933 18.2717 9.23533 18.0291 8.806C17.7957 8.37667 17.4737 8.04533 17.0631 7.812C16.6524 7.56933 16.1857 7.448 15.6631 7.448C15.1404 7.448 14.6737 7.56933 14.2631 7.812C13.8524 8.04533 13.5257 8.37667 13.2831 8.806C13.0404 9.23533 12.9191 9.73933 12.9191 10.318C12.9191 10.8873 13.0404 11.3913 13.2831 11.83C13.5257 12.2593 13.8524 12.5953 14.2631 12.838C14.6737 13.0713 15.1357 13.188 15.6491 13.188ZM30.6144 6.58C31.2118 6.58 31.7298 6.69667 32.1684 6.93C32.6164 7.154 32.9618 7.49933 33.2044 7.966C33.4564 8.43267 33.5824 9.02067 33.5824 9.73V14H32.5884V9.828C32.5884 9.05333 32.4018 8.47 32.0284 8.078C31.6644 7.67667 31.1464 7.476 30.4744 7.476C29.9704 7.476 29.5318 7.58333 29.1584 7.798C28.7944 8.00333 28.5098 8.30667 28.3044 8.708C28.1084 9.1 28.0104 9.576 28.0104 10.136V14H27.0164V9.828C27.0164 9.05333 26.8298 8.47 26.4564 8.078C26.0831 7.67667 25.5604 7.476 24.8884 7.476C24.3938 7.476 23.9598 7.58333 23.5864 7.798C23.2131 8.00333 22.9238 8.30667 22.7184 8.708C22.5224 9.1 22.4244 9.576 22.4244 10.136V14H21.4304V6.65H22.3824V8.638L22.2284 8.288C22.4524 7.756 22.8118 7.34067 23.3064 7.042C23.8104 6.734 24.4031 6.58 25.0844 6.58C25.8031 6.58 26.4144 6.762 26.9184 7.126C27.4224 7.48067 27.7491 8.01733 27.8984 8.736L27.5064 8.582C27.7211 7.98467 28.0991 7.504 28.6404 7.14C29.1911 6.76667 29.8491 6.58 30.6144 6.58ZM40.0721 14.07C39.4374 14.07 38.8634 13.9253 38.3501 13.636C37.8367 13.3373 37.4261 12.9127 37.1181 12.362C36.8194 11.802 36.6701 11.1207 36.6701 10.318C36.6701 9.51533 36.8194 8.83867 37.1181 8.288C37.4167 7.728 37.8227 7.30333 38.3361 7.014C38.8494 6.72467 39.4281 6.58 40.0721 6.58C40.7721 6.58 41.3974 6.73867 41.9481 7.056C42.5081 7.364 42.9467 7.80267 43.2641 8.372C43.5814 8.932 43.7401 9.58067 43.7401 10.318C43.7401 11.0647 43.5814 11.718 43.2641 12.278C42.9467 12.838 42.5081 13.2767 41.9481 13.594C41.3974 13.9113 40.7721 14.07 40.0721 14.07ZM36.2781 16.716V6.65H37.2301V8.862L37.1321 10.332L37.2721 11.816V16.716H36.2781ZM40.0021 13.188C40.5247 13.188 40.9914 13.0713 41.4021 12.838C41.8127 12.5953 42.1394 12.2593 42.3821 11.83C42.6247 11.3913 42.7461 10.8873 42.7461 10.318C42.7461 9.74867 42.6247 9.24933 42.3821 8.82C42.1394 8.39067 41.8127 8.05467 41.4021 7.812C40.9914 7.56933 40.5247 7.448 40.0021 7.448C39.4794 7.448 39.0081 7.56933 38.5881 7.812C38.1774 8.05467 37.8507 8.39067 37.6081 8.82C37.3747 9.24933 37.2581 9.74867 37.2581 10.318C37.2581 10.8873 37.3747 11.3913 37.6081 11.83C37.8507 12.2593 38.1774 12.5953 38.5881 12.838C39.0081 13.0713 39.4794 13.188 40.0021 13.188ZM50.3313 14V12.376L50.2893 12.11V9.394C50.2893 8.76867 50.112 8.288 49.7573 7.952C49.412 7.616 48.894 7.448 48.2033 7.448C47.7273 7.448 47.2747 7.52733 46.8453 7.686C46.416 7.84467 46.052 8.05467 45.7533 8.316L45.3053 7.574C45.6787 7.25667 46.1267 7.014 46.6493 6.846C47.172 6.66867 47.7227 6.58 48.3013 6.58C49.2533 6.58 49.986 6.818 50.4993 7.294C51.022 7.76067 51.2833 8.47467 51.2833 9.436V14H50.3313ZM47.7973 14.07C47.2467 14.07 46.766 13.9813 46.3553 13.804C45.954 13.6173 45.646 13.3653 45.4313 13.048C45.2167 12.7213 45.1093 12.348 45.1093 11.928C45.1093 11.5453 45.198 11.2 45.3753 10.892C45.562 10.5747 45.8607 10.3227 46.2713 10.136C46.6913 9.94 47.2513 9.842 47.9513 9.842H50.4853V10.584H47.9793C47.27 10.584 46.7753 10.71 46.4953 10.962C46.2247 11.214 46.0893 11.5267 46.0893 11.9C46.0893 12.32 46.2527 12.656 46.5793 12.908C46.906 13.16 47.3633 13.286 47.9513 13.286C48.5113 13.286 48.992 13.16 49.3933 12.908C49.804 12.6467 50.1027 12.2733 50.2893 11.788L50.5133 12.474C50.3267 12.9593 50 13.3467 49.5333 13.636C49.076 13.9253 48.4973 14.07 47.7973 14.07ZM57.0352 14.07C56.3072 14.07 55.6538 13.9113 55.0752 13.594C54.5058 13.2673 54.0578 12.824 53.7312 12.264C53.4045 11.6947 53.2412 11.046 53.2412 10.318C53.2412 9.58067 53.4045 8.932 53.7312 8.372C54.0578 7.812 54.5058 7.37333 55.0752 7.056C55.6538 6.73867 56.3072 6.58 57.0352 6.58C57.6605 6.58 58.2252 6.70133 58.7292 6.944C59.2332 7.18667 59.6298 7.55067 59.9192 8.036L59.1772 8.54C58.9252 8.16667 58.6125 7.89133 58.2392 7.714C57.8658 7.53667 57.4598 7.448 57.0212 7.448C56.4985 7.448 56.0272 7.56933 55.6072 7.812C55.1872 8.04533 54.8558 8.37667 54.6132 8.806C54.3705 9.23533 54.2492 9.73933 54.2492 10.318C54.2492 10.8967 54.3705 11.4007 54.6132 11.83C54.8558 12.2593 55.1872 12.5953 55.6072 12.838C56.0272 13.0713 56.4985 13.188 57.0212 13.188C57.4598 13.188 57.8658 13.0993 58.2392 12.922C58.6125 12.7447 58.9252 12.474 59.1772 12.11L59.9192 12.614C59.6298 13.09 59.2332 13.454 58.7292 13.706C58.2252 13.9487 57.6605 14.07 57.0352 14.07ZM64.2779 14.07C63.5872 14.07 63.0552 13.8833 62.6819 13.51C62.3085 13.1367 62.1219 12.6093 62.1219 11.928V5.026H63.1159V11.872C63.1159 12.3013 63.2232 12.6327 63.4379 12.866C63.6619 13.0993 63.9792 13.216 64.3899 13.216C64.8285 13.216 65.1925 13.09 65.4819 12.838L65.8319 13.552C65.6359 13.7293 65.3979 13.86 65.1179 13.944C64.8472 14.028 64.5672 14.07 64.2779 14.07ZM60.8059 7.476V6.65H65.3559V7.476H60.8059ZM75.0994 14.07C74.4648 14.07 73.8908 13.9253 73.3774 13.636C72.8641 13.3373 72.4534 12.9127 72.1454 12.362C71.8468 11.802 71.6974 11.1207 71.6974 10.318C71.6974 9.51533 71.8468 8.83867 72.1454 8.288C72.4441 7.728 72.8501 7.30333 73.3634 7.014C73.8768 6.72467 74.4554 6.58 75.0994 6.58C75.7994 6.58 76.4248 6.73867 76.9754 7.056C77.5354 7.364 77.9741 7.80267 78.2914 8.372C78.6088 8.932 78.7674 9.58067 78.7674 10.318C78.7674 11.0647 78.6088 11.718 78.2914 12.278C77.9741 12.838 77.5354 13.2767 76.9754 13.594C76.4248 13.9113 75.7994 14.07 75.0994 14.07ZM71.3054 16.716V6.65H72.2574V8.862L72.1594 10.332L72.2994 11.816V16.716H71.3054ZM75.0294 13.188C75.5521 13.188 76.0188 13.0713 76.4294 12.838C76.8401 12.5953 77.1668 12.2593 77.4094 11.83C77.6521 11.3913 77.7734 10.8873 77.7734 10.318C77.7734 9.74867 77.6521 9.24933 77.4094 8.82C77.1668 8.39067 76.8401 8.05467 76.4294 7.812C76.0188 7.56933 75.5521 7.448 75.0294 7.448C74.5068 7.448 74.0354 7.56933 73.6154 7.812C73.2048 8.05467 72.8781 8.39067 72.6354 8.82C72.4021 9.24933 72.2854 9.74867 72.2854 10.318C72.2854 10.8873 72.4021 11.3913 72.6354 11.83C72.8781 12.2593 73.2048 12.5953 73.6154 12.838C74.0354 13.0713 74.5068 13.188 75.0294 13.188ZM80.7937 14V6.65H81.7457V8.652L81.6477 8.302C81.853 7.742 82.1984 7.31733 82.6837 7.028C83.169 6.72933 83.771 6.58 84.4897 6.58V7.546C84.4524 7.546 84.415 7.546 84.3777 7.546C84.3404 7.53667 84.303 7.532 84.2657 7.532C83.491 7.532 82.8844 7.77 82.4457 8.246C82.007 8.71267 81.7877 9.38 81.7877 10.248V14H80.7937ZM89.3571 14.07C88.5918 14.07 87.9198 13.9113 87.3411 13.594C86.7624 13.2673 86.3098 12.824 85.9831 12.264C85.6564 11.6947 85.4931 11.046 85.4931 10.318C85.4931 9.59 85.6471 8.946 85.9551 8.386C86.2724 7.826 86.7018 7.38733 87.2431 7.07C87.7938 6.74333 88.4098 6.58 89.0911 6.58C89.7818 6.58 90.3931 6.73867 90.9251 7.056C91.4664 7.364 91.8911 7.80267 92.1991 8.372C92.5071 8.932 92.6611 9.58067 92.6611 10.318C92.6611 10.3647 92.6564 10.416 92.6471 10.472C92.6471 10.5187 92.6471 10.57 92.6471 10.626H86.2491V9.884H92.1151L91.7231 10.178C91.7231 9.646 91.6064 9.17467 91.3731 8.764C91.1491 8.344 90.8411 8.01733 90.4491 7.784C90.0571 7.55067 89.6044 7.434 89.0911 7.434C88.5871 7.434 88.1344 7.55067 87.7331 7.784C87.3318 8.01733 87.0191 8.344 86.7951 8.764C86.5711 9.184 86.4591 9.66467 86.4591 10.206V10.36C86.4591 10.92 86.5804 11.4147 86.8231 11.844C87.0751 12.264 87.4204 12.5953 87.8591 12.838C88.3071 13.0713 88.8158 13.188 89.3851 13.188C89.8331 13.188 90.2484 13.1087 90.6311 12.95C91.0231 12.7913 91.3591 12.5487 91.6391 12.222L92.1991 12.866C91.8724 13.258 91.4618 13.5567 90.9671 13.762C90.4818 13.9673 89.9451 14.07 89.3571 14.07ZM103.868 6.58C104.466 6.58 104.984 6.69667 105.422 6.93C105.87 7.154 106.216 7.49933 106.458 7.966C106.71 8.43267 106.836 9.02067 106.836 9.73V14H105.842V9.828C105.842 9.05333 105.656 8.47 105.282 8.078C104.918 7.67667 104.4 7.476 103.728 7.476C103.224 7.476 102.786 7.58333 102.412 7.798C102.048 8.00333 101.764 8.30667 101.558 8.708C101.362 9.1 101.264 9.576 101.264 10.136V14H100.27V9.828C100.27 9.05333 100.084 8.47 99.7103 8.078C99.337 7.67667 98.8143 7.476 98.1423 7.476C97.6477 7.476 97.2137 7.58333 96.8403 7.798C96.467 8.00333 96.1777 8.30667 95.9723 8.708C95.7763 9.1 95.6783 9.576 95.6783 10.136V14H94.6843V6.65H95.6363V8.638L95.4823 8.288C95.7063 7.756 96.0657 7.34067 96.5603 7.042C97.0643 6.734 97.657 6.58 98.3383 6.58C99.057 6.58 99.6683 6.762 100.172 7.126C100.676 7.48067 101.003 8.01733 101.152 8.736L100.76 8.582C100.975 7.98467 101.353 7.504 101.894 7.14C102.445 6.76667 103.103 6.58 103.868 6.58ZM109.532 14V6.65H110.526V14H109.532ZM110.036 5.026C109.831 5.026 109.658 4.956 109.518 4.816C109.378 4.676 109.308 4.508 109.308 4.312C109.308 4.116 109.378 3.95267 109.518 3.822C109.658 3.682 109.831 3.612 110.036 3.612C110.241 3.612 110.414 3.67733 110.554 3.808C110.694 3.93867 110.764 4.102 110.764 4.298C110.764 4.50333 110.694 4.676 110.554 4.816C110.423 4.956 110.251 5.026 110.036 5.026ZM116.33 14.07C115.704 14.07 115.158 13.9533 114.692 13.72C114.225 13.4867 113.861 13.1367 113.6 12.67C113.348 12.2033 113.222 11.62 113.222 10.92V6.65H114.216V10.808C114.216 11.592 114.407 12.1847 114.79 12.586C115.182 12.978 115.728 13.174 116.428 13.174C116.941 13.174 117.384 13.0713 117.758 12.866C118.14 12.6513 118.43 12.3433 118.626 11.942C118.831 11.5407 118.934 11.06 118.934 10.5V6.65H119.928V14H118.976V11.984L119.13 12.348C118.896 12.8893 118.532 13.314 118.038 13.622C117.552 13.9207 116.983 14.07 116.33 14.07ZM131.882 6.58C132.479 6.58 132.997 6.69667 133.436 6.93C133.884 7.154 134.229 7.49933 134.472 7.966C134.724 8.43267 134.85 9.02067 134.85 9.73V14H133.856V9.828C133.856 9.05333 133.669 8.47 133.296 8.078C132.932 7.67667 132.414 7.476 131.742 7.476C131.238 7.476 130.799 7.58333 130.426 7.798C130.062 8.00333 129.777 8.30667 129.572 8.708C129.376 9.1 129.278 9.576 129.278 10.136V14H128.284V9.828C128.284 9.05333 128.097 8.47 127.724 8.078C127.351 7.67667 126.828 7.476 126.156 7.476C125.661 7.476 125.227 7.58333 124.854 7.798C124.481 8.00333 124.191 8.30667 123.986 8.708C123.79 9.1 123.692 9.576 123.692 10.136V14H122.698V6.65H123.65V8.638L123.496 8.288C123.72 7.756 124.079 7.34067 124.574 7.042C125.078 6.734 125.671 6.58 126.352 6.58C127.071 6.58 127.682 6.762 128.186 7.126C128.69 7.48067 129.017 8.01733 129.166 8.736L128.774 8.582C128.989 7.98467 129.367 7.504 129.908 7.14C130.459 6.76667 131.117 6.58 131.882 6.58ZM141.42 14V4.2H142.456V14H141.42ZM145.644 14V4.2H146.498L150.978 11.844H150.53L154.968 4.2H155.822V14H154.828V5.754H155.066L150.978 12.754H150.488L146.372 5.754H146.638V14H145.644ZM159.015 14V4.2H160.051V13.104H165.539V14H159.015ZM172.688 14.07C172.081 14.07 171.507 13.986 170.966 13.818C170.424 13.6407 170 13.4213 169.692 13.16L170.14 12.376C170.438 12.6 170.821 12.796 171.288 12.964C171.754 13.1227 172.244 13.202 172.758 13.202C173.458 13.202 173.962 13.0947 174.27 12.88C174.578 12.656 174.732 12.362 174.732 11.998C174.732 11.7273 174.643 11.5173 174.466 11.368C174.298 11.2093 174.074 11.0927 173.794 11.018C173.514 10.934 173.201 10.864 172.856 10.808C172.51 10.752 172.165 10.6867 171.82 10.612C171.484 10.5373 171.176 10.43 170.896 10.29C170.616 10.1407 170.387 9.94 170.21 9.688C170.042 9.436 169.958 9.1 169.958 8.68C169.958 8.27867 170.07 7.91933 170.294 7.602C170.518 7.28467 170.844 7.03733 171.274 6.86C171.712 6.67333 172.244 6.58 172.87 6.58C173.346 6.58 173.822 6.64533 174.298 6.776C174.774 6.89733 175.166 7.06067 175.474 7.266L175.04 8.064C174.713 7.84 174.363 7.68133 173.99 7.588C173.616 7.48533 173.243 7.434 172.87 7.434C172.207 7.434 171.717 7.55067 171.4 7.784C171.092 8.008 170.938 8.29733 170.938 8.652C170.938 8.932 171.022 9.15133 171.19 9.31C171.367 9.46867 171.596 9.59467 171.876 9.688C172.165 9.772 172.478 9.842 172.814 9.898C173.159 9.954 173.5 10.024 173.836 10.108C174.181 10.1827 174.494 10.29 174.774 10.43C175.063 10.5607 175.292 10.752 175.46 11.004C175.637 11.2467 175.726 11.5687 175.726 11.97C175.726 12.3993 175.604 12.7727 175.362 13.09C175.128 13.398 174.783 13.6407 174.326 13.818C173.878 13.986 173.332 14.07 172.688 14.07ZM178.911 14L176.139 6.65H177.091L179.611 13.468H179.177L181.767 6.65H182.621L185.183 13.468H184.749L187.311 6.65H188.221L185.435 14H184.497L182.033 7.588H182.327L179.849 14H178.911ZM192.634 14.07C191.869 14.07 191.197 13.9113 190.618 13.594C190.04 13.2673 189.587 12.824 189.26 12.264C188.934 11.6947 188.77 11.046 188.77 10.318C188.77 9.59 188.924 8.946 189.232 8.386C189.55 7.826 189.979 7.38733 190.52 7.07C191.071 6.74333 191.687 6.58 192.368 6.58C193.059 6.58 193.67 6.73867 194.202 7.056C194.744 7.364 195.168 7.80267 195.476 8.372C195.784 8.932 195.938 9.58067 195.938 10.318C195.938 10.3647 195.934 10.416 195.924 10.472C195.924 10.5187 195.924 10.57 195.924 10.626H189.526V9.884H195.392L195 10.178C195 9.646 194.884 9.17467 194.65 8.764C194.426 8.344 194.118 8.01733 193.726 7.784C193.334 7.55067 192.882 7.434 192.368 7.434C191.864 7.434 191.412 7.55067 191.01 7.784C190.609 8.01733 190.296 8.344 190.072 8.764C189.848 9.184 189.736 9.66467 189.736 10.206V10.36C189.736 10.92 189.858 11.4147 190.1 11.844C190.352 12.264 190.698 12.5953 191.136 12.838C191.584 13.0713 192.093 13.188 192.662 13.188C193.11 13.188 193.526 13.1087 193.908 12.95C194.3 12.7913 194.636 12.5487 194.916 12.222L195.476 12.866C195.15 13.258 194.739 13.5567 194.244 13.762C193.759 13.9673 193.222 14.07 192.634 14.07ZM201.084 14.07C200.318 14.07 199.646 13.9113 199.068 13.594C198.489 13.2673 198.036 12.824 197.71 12.264C197.383 11.6947 197.22 11.046 197.22 10.318C197.22 9.59 197.374 8.946 197.682 8.386C197.999 7.826 198.428 7.38733 198.97 7.07C199.52 6.74333 200.136 6.58 200.818 6.58C201.508 6.58 202.12 6.73867 202.652 7.056C203.193 7.364 203.618 7.80267 203.926 8.372C204.234 8.932 204.388 9.58067 204.388 10.318C204.388 10.3647 204.383 10.416 204.374 10.472C204.374 10.5187 204.374 10.57 204.374 10.626H197.976V9.884H203.842L203.45 10.178C203.45 9.646 203.333 9.17467 203.1 8.764C202.876 8.344 202.568 8.01733 202.176 7.784C201.784 7.55067 201.331 7.434 200.818 7.434C200.314 7.434 199.861 7.55067 199.46 7.784C199.058 8.01733 198.746 8.344 198.522 8.764C198.298 9.184 198.186 9.66467 198.186 10.206V10.36C198.186 10.92 198.307 11.4147 198.55 11.844C198.802 12.264 199.147 12.5953 199.586 12.838C200.034 13.0713 200.542 13.188 201.112 13.188C201.56 13.188 201.975 13.1087 202.358 12.95C202.75 12.7913 203.086 12.5487 203.366 12.222L203.926 12.866C203.599 13.258 203.188 13.5567 202.694 13.762C202.208 13.9673 201.672 14.07 201.084 14.07ZM208.735 14.07C208.044 14.07 207.512 13.8833 207.139 13.51C206.766 13.1367 206.579 12.6093 206.579 11.928V5.026H207.573V11.872C207.573 12.3013 207.68 12.6327 207.895 12.866C208.119 13.0993 208.436 13.216 208.847 13.216C209.286 13.216 209.65 13.09 209.939 12.838L210.289 13.552C210.093 13.7293 209.855 13.86 209.575 13.944C209.304 14.028 209.024 14.07 208.735 14.07ZM205.263 7.476V6.65H209.813V7.476H205.263ZM219.556 14.07C218.912 14.07 218.334 13.9253 217.82 13.636C217.307 13.3373 216.901 12.908 216.602 12.348C216.304 11.788 216.154 11.1113 216.154 10.318C216.154 9.51533 216.304 8.83867 216.602 8.288C216.91 7.728 217.321 7.30333 217.834 7.014C218.348 6.72467 218.922 6.58 219.556 6.58C220.256 6.58 220.882 6.73867 221.432 7.056C221.992 7.364 222.431 7.798 222.748 8.358C223.066 8.918 223.224 9.57133 223.224 10.318C223.224 11.0553 223.066 11.7087 222.748 12.278C222.431 12.838 221.992 13.2767 221.432 13.594C220.882 13.9113 220.256 14.07 219.556 14.07ZM215.762 14V3.612H216.756V8.82L216.616 10.304L216.714 11.788V14H215.762ZM219.486 13.188C220.009 13.188 220.476 13.0713 220.886 12.838C221.297 12.5953 221.624 12.2593 221.866 11.83C222.109 11.3913 222.23 10.8873 222.23 10.318C222.23 9.73933 222.109 9.23533 221.866 8.806C221.624 8.37667 221.297 8.04533 220.886 7.812C220.476 7.56933 220.009 7.448 219.486 7.448C218.964 7.448 218.492 7.56933 218.072 7.812C217.662 8.04533 217.335 8.37667 217.092 8.806C216.859 9.23533 216.742 9.73933 216.742 10.318C216.742 10.8873 216.859 11.3913 217.092 11.83C217.335 12.2593 217.662 12.5953 218.072 12.838C218.492 13.0713 218.964 13.188 219.486 13.188ZM228.247 14.07C227.537 14.07 226.898 13.9113 226.329 13.594C225.769 13.2673 225.325 12.824 224.999 12.264C224.672 11.6947 224.509 11.046 224.509 10.318C224.509 9.58067 224.672 8.932 224.999 8.372C225.325 7.812 225.769 7.37333 226.329 7.056C226.889 6.73867 227.528 6.58 228.247 6.58C228.975 6.58 229.619 6.73867 230.179 7.056C230.748 7.37333 231.191 7.812 231.509 8.372C231.835 8.932 231.999 9.58067 231.999 10.318C231.999 11.046 231.835 11.6947 231.509 12.264C231.191 12.824 230.748 13.2673 230.179 13.594C229.609 13.9113 228.965 14.07 228.247 14.07ZM228.247 13.188C228.779 13.188 229.25 13.0713 229.661 12.838C230.071 12.5953 230.393 12.2593 230.627 11.83C230.869 11.3913 230.991 10.8873 230.991 10.318C230.991 9.73933 230.869 9.23533 230.627 8.806C230.393 8.37667 230.071 8.04533 229.661 7.812C229.25 7.56933 228.783 7.448 228.261 7.448C227.738 7.448 227.271 7.56933 226.861 7.812C226.45 8.04533 226.123 8.37667 225.881 8.806C225.638 9.23533 225.517 9.73933 225.517 10.318C225.517 10.8873 225.638 11.3913 225.881 11.83C226.123 12.2593 226.45 12.5953 226.861 12.838C227.271 13.0713 227.733 13.188 228.247 13.188ZM232.648 14L235.756 9.968L235.742 10.458L232.788 6.65H233.908L236.33 9.8L235.91 9.786L238.332 6.65H239.424L236.442 10.5L236.456 9.968L239.592 14H238.458L235.896 10.64L236.288 10.696L233.768 14H232.648ZM248.705 14.07C248.07 14.07 247.496 13.9253 246.983 13.636C246.47 13.3373 246.059 12.9127 245.751 12.362C245.452 11.802 245.303 11.1207 245.303 10.318C245.303 9.51533 245.452 8.83867 245.751 8.288C246.05 7.728 246.456 7.30333 246.969 7.014C247.482 6.72467 248.061 6.58 248.705 6.58C249.405 6.58 250.03 6.73867 250.581 7.056C251.141 7.364 251.58 7.80267 251.897 8.372C252.214 8.932 252.373 9.58067 252.373 10.318C252.373 11.0647 252.214 11.718 251.897 12.278C251.58 12.838 251.141 13.2767 250.581 13.594C250.03 13.9113 249.405 14.07 248.705 14.07ZM244.911 16.716V6.65H245.863V8.862L245.765 10.332L245.905 11.816V16.716H244.911ZM248.635 13.188C249.158 13.188 249.624 13.0713 250.035 12.838C250.446 12.5953 250.772 12.2593 251.015 11.83C251.258 11.3913 251.379 10.8873 251.379 10.318C251.379 9.74867 251.258 9.24933 251.015 8.82C250.772 8.39067 250.446 8.05467 250.035 7.812C249.624 7.56933 249.158 7.448 248.635 7.448C248.112 7.448 247.641 7.56933 247.221 7.812C246.81 8.05467 246.484 8.39067 246.241 8.82C246.008 9.24933 245.891 9.74867 245.891 10.318C245.891 10.8873 246.008 11.3913 246.241 11.83C246.484 12.2593 246.81 12.5953 247.221 12.838C247.641 13.0713 248.112 13.188 248.635 13.188ZM257.521 14.07C256.756 14.07 256.084 13.9113 255.505 13.594C254.927 13.2673 254.474 12.824 254.147 12.264C253.821 11.6947 253.657 11.046 253.657 10.318C253.657 9.59 253.811 8.946 254.119 8.386C254.437 7.826 254.866 7.38733 255.407 7.07C255.958 6.74333 256.574 6.58 257.255 6.58C257.946 6.58 258.557 6.73867 259.089 7.056C259.631 7.364 260.055 7.80267 260.363 8.372C260.671 8.932 260.825 9.58067 260.825 10.318C260.825 10.3647 260.821 10.416 260.811 10.472C260.811 10.5187 260.811 10.57 260.811 10.626H254.413V9.884H260.279L259.887 10.178C259.887 9.646 259.771 9.17467 259.537 8.764C259.313 8.344 259.005 8.01733 258.613 7.784C258.221 7.55067 257.769 7.434 257.255 7.434C256.751 7.434 256.299 7.55067 255.897 7.784C255.496 8.01733 255.183 8.344 254.959 8.764C254.735 9.184 254.623 9.66467 254.623 10.206V10.36C254.623 10.92 254.745 11.4147 254.987 11.844C255.239 12.264 255.585 12.5953 256.023 12.838C256.471 13.0713 256.98 13.188 257.549 13.188C257.997 13.188 258.413 13.1087 258.795 12.95C259.187 12.7913 259.523 12.5487 259.803 12.222L260.363 12.866C260.037 13.258 259.626 13.5567 259.131 13.762C258.646 13.9673 258.109 14.07 257.521 14.07ZM262.848 14V6.65H263.8V8.652L263.702 8.302C263.908 7.742 264.253 7.31733 264.738 7.028C265.224 6.72933 265.826 6.58 266.544 6.58V7.546C266.507 7.546 266.47 7.546 266.432 7.546C266.395 7.53667 266.358 7.532 266.32 7.532C265.546 7.532 264.939 7.77 264.5 8.246C264.062 8.71267 263.842 9.38 263.842 10.248V14H262.848ZM268.636 14V5.726C268.636 5.07267 268.827 4.54533 269.21 4.144C269.592 3.74267 270.143 3.542 270.862 3.542C271.142 3.542 271.412 3.57933 271.674 3.654C271.935 3.72867 272.154 3.84533 272.332 4.004L271.996 4.746C271.856 4.62467 271.692 4.536 271.506 4.48C271.319 4.41467 271.118 4.382 270.904 4.382C270.484 4.382 270.162 4.49867 269.938 4.732C269.714 4.96533 269.602 5.31067 269.602 5.768V6.888L269.63 7.35V14H268.636ZM267.32 7.476V6.65H271.87V7.476H267.32ZM276.211 14.07C275.445 14.07 274.773 13.9113 274.195 13.594C273.616 13.2673 273.163 12.824 272.837 12.264C272.51 11.6947 272.347 11.046 272.347 10.318C272.347 9.59 272.501 8.946 272.809 8.386C273.126 7.826 273.555 7.38733 274.097 7.07C274.647 6.74333 275.263 6.58 275.945 6.58C276.635 6.58 277.247 6.73867 277.779 7.056C278.32 7.364 278.745 7.80267 279.053 8.372C279.361 8.932 279.515 9.58067 279.515 10.318C279.515 10.3647 279.51 10.416 279.501 10.472C279.501 10.5187 279.501 10.57 279.501 10.626H273.103V9.884H278.969L278.577 10.178C278.577 9.646 278.46 9.17467 278.227 8.764C278.003 8.344 277.695 8.01733 277.303 7.784C276.911 7.55067 276.458 7.434 275.945 7.434C275.441 7.434 274.988 7.55067 274.587 7.784C274.185 8.01733 273.873 8.344 273.649 8.764C273.425 9.184 273.313 9.66467 273.313 10.206V10.36C273.313 10.92 273.434 11.4147 273.677 11.844C273.929 12.264 274.274 12.5953 274.713 12.838C275.161 13.0713 275.669 13.188 276.239 13.188C276.687 13.188 277.102 13.1087 277.485 12.95C277.877 12.7913 278.213 12.5487 278.493 12.222L279.053 12.866C278.726 13.258 278.315 13.5567 277.821 13.762C277.335 13.9673 276.799 14.07 276.211 14.07ZM284.59 14.07C283.862 14.07 283.209 13.9113 282.63 13.594C282.061 13.2673 281.613 12.824 281.286 12.264C280.959 11.6947 280.796 11.046 280.796 10.318C280.796 9.58067 280.959 8.932 281.286 8.372C281.613 7.812 282.061 7.37333 282.63 7.056C283.209 6.73867 283.862 6.58 284.59 6.58C285.215 6.58 285.78 6.70133 286.284 6.944C286.788 7.18667 287.185 7.55067 287.474 8.036L286.732 8.54C286.48 8.16667 286.167 7.89133 285.794 7.714C285.421 7.53667 285.015 7.448 284.576 7.448C284.053 7.448 283.582 7.56933 283.162 7.812C282.742 8.04533 282.411 8.37667 282.168 8.806C281.925 9.23533 281.804 9.73933 281.804 10.318C281.804 10.8967 281.925 11.4007 282.168 11.83C282.411 12.2593 282.742 12.5953 283.162 12.838C283.582 13.0713 284.053 13.188 284.576 13.188C285.015 13.188 285.421 13.0993 285.794 12.922C286.167 12.7447 286.48 12.474 286.732 12.11L287.474 12.614C287.185 13.09 286.788 13.454 286.284 13.706C285.78 13.9487 285.215 14.07 284.59 14.07ZM291.833 14.07C291.142 14.07 290.61 13.8833 290.237 13.51C289.863 13.1367 289.677 12.6093 289.677 11.928V5.026H290.671V11.872C290.671 12.3013 290.778 12.6327 290.993 12.866C291.217 13.0993 291.534 13.216 291.945 13.216C292.383 13.216 292.747 13.09 293.037 12.838L293.387 13.552C293.191 13.7293 292.953 13.86 292.673 13.944C292.402 14.028 292.122 14.07 291.833 14.07ZM288.361 7.476V6.65H292.911V7.476H288.361ZM299.028 14V5.726C299.028 5.07267 299.219 4.54533 299.602 4.144C299.985 3.74267 300.535 3.542 301.254 3.542C301.534 3.542 301.805 3.57933 302.066 3.654C302.327 3.72867 302.547 3.84533 302.724 4.004L302.388 4.746C302.248 4.62467 302.085 4.536 301.898 4.48C301.711 4.41467 301.511 4.382 301.296 4.382C300.876 4.382 300.554 4.49867 300.33 4.732C300.106 4.96533 299.994 5.31067 299.994 5.768V6.888L300.022 7.35V14H299.028ZM297.712 7.476V6.65H302.262V7.476H297.712ZM306.477 14.07C305.768 14.07 305.129 13.9113 304.559 13.594C303.999 13.2673 303.556 12.824 303.229 12.264C302.903 11.6947 302.739 11.046 302.739 10.318C302.739 9.58067 302.903 8.932 303.229 8.372C303.556 7.812 303.999 7.37333 304.559 7.056C305.119 6.73867 305.759 6.58 306.477 6.58C307.205 6.58 307.849 6.73867 308.409 7.056C308.979 7.37333 309.422 7.812 309.739 8.372C310.066 8.932 310.229 9.58067 310.229 10.318C310.229 11.046 310.066 11.6947 309.739 12.264C309.422 12.824 308.979 13.2673 308.409 13.594C307.84 13.9113 307.196 14.07 306.477 14.07ZM306.477 13.188C307.009 13.188 307.481 13.0713 307.891 12.838C308.302 12.5953 308.624 12.2593 308.857 11.83C309.1 11.3913 309.221 10.8873 309.221 10.318C309.221 9.73933 309.1 9.23533 308.857 8.806C308.624 8.37667 308.302 8.04533 307.891 7.812C307.481 7.56933 307.014 7.448 306.491 7.448C305.969 7.448 305.502 7.56933 305.091 7.812C304.681 8.04533 304.354 8.37667 304.111 8.806C303.869 9.23533 303.747 9.73933 303.747 10.318C303.747 10.8873 303.869 11.3913 304.111 11.83C304.354 12.2593 304.681 12.5953 305.091 12.838C305.502 13.0713 305.964 13.188 306.477 13.188ZM312.259 14V6.65H313.211V8.652L313.113 8.302C313.318 7.742 313.663 7.31733 314.149 7.028C314.634 6.72933 315.236 6.58 315.955 6.58V7.546C315.917 7.546 315.88 7.546 315.843 7.546C315.805 7.53667 315.768 7.532 315.731 7.532C314.956 7.532 314.349 7.77 313.911 8.246C313.472 8.71267 313.253 9.38 313.253 10.248V14H312.259ZM50.9077 33.084C50.2917 33.084 49.727 32.944 49.2137 32.664C48.7097 32.3747 48.3037 31.95 47.9957 31.39C47.697 30.83 47.5477 30.13 47.5477 29.29C47.5477 28.45 47.6924 27.75 47.9817 27.19C48.2804 26.63 48.6817 26.21 49.1857 25.93C49.699 25.65 50.273 25.51 50.9077 25.51C51.6357 25.51 52.2797 25.6687 52.8397 25.986C53.3997 26.3033 53.843 26.7467 54.1697 27.316C54.4964 27.876 54.6597 28.534 54.6597 29.29C54.6597 30.046 54.4964 30.7087 54.1697 31.278C53.843 31.8473 53.3997 32.2907 52.8397 32.608C52.2797 32.9253 51.6357 33.084 50.9077 33.084ZM46.9737 35.716V25.58H48.2617V27.582L48.1777 29.304L48.3177 31.026V35.716H46.9737ZM50.7957 31.908C51.2717 31.908 51.6964 31.8007 52.0697 31.586C52.4524 31.3713 52.751 31.068 52.9657 30.676C53.1897 30.2747 53.3017 29.8127 53.3017 29.29C53.3017 28.758 53.1897 28.3007 52.9657 27.918C52.751 27.526 52.4524 27.2227 52.0697 27.008C51.6964 26.7933 51.2717 26.686 50.7957 26.686C50.329 26.686 49.9044 26.7933 49.5217 27.008C49.1484 27.2227 48.8497 27.526 48.6257 27.918C48.411 28.3007 48.3037 28.758 48.3037 29.29C48.3037 29.8127 48.411 30.2747 48.6257 30.676C48.8497 31.068 49.1484 31.3713 49.5217 31.586C49.9044 31.8007 50.329 31.908 50.7957 31.908ZM61.0543 33V31.432L60.9843 31.138V28.464C60.9843 27.8947 60.8163 27.456 60.4803 27.148C60.1536 26.8307 59.659 26.672 58.9963 26.672C58.5576 26.672 58.1283 26.7467 57.7083 26.896C57.2883 27.036 56.9336 27.2273 56.6443 27.47L56.0843 26.462C56.467 26.154 56.9243 25.9207 57.4563 25.762C57.9976 25.594 58.5623 25.51 59.1503 25.51C60.1676 25.51 60.9516 25.7573 61.5023 26.252C62.053 26.7467 62.3283 27.5027 62.3283 28.52V33H61.0543ZM58.6183 33.084C58.0676 33.084 57.5823 32.9907 57.1623 32.804C56.7516 32.6173 56.4343 32.3607 56.2103 32.034C55.9863 31.698 55.8743 31.32 55.8743 30.9C55.8743 30.4987 55.9676 30.1347 56.1543 29.808C56.3503 29.4813 56.663 29.22 57.0923 29.024C57.531 28.828 58.119 28.73 58.8563 28.73H61.2083V29.696H58.9123C58.2403 29.696 57.7876 29.808 57.5543 30.032C57.321 30.256 57.2043 30.5267 57.2043 30.844C57.2043 31.208 57.349 31.502 57.6383 31.726C57.9276 31.9407 58.329 32.048 58.8423 32.048C59.3463 32.048 59.785 31.936 60.1583 31.712C60.541 31.488 60.8163 31.1613 60.9843 30.732L61.2503 31.656C61.073 32.0947 60.7603 32.4447 60.3123 32.706C59.8643 32.958 59.2996 33.084 58.6183 33.084ZM68.0495 33.084C67.2935 33.084 66.6168 32.9207 66.0195 32.594C65.4315 32.2673 64.9695 31.8193 64.6335 31.25C64.2975 30.6807 64.1295 30.0273 64.1295 29.29C64.1295 28.5527 64.2975 27.8993 64.6335 27.33C64.9695 26.7607 65.4315 26.3173 66.0195 26C66.6168 25.6733 67.2935 25.51 68.0495 25.51C68.7215 25.51 69.3188 25.6453 69.8415 25.916C70.3735 26.1773 70.7842 26.5693 71.0735 27.092L70.0515 27.75C69.8088 27.386 69.5102 27.12 69.1555 26.952C68.8102 26.7747 68.4368 26.686 68.0355 26.686C67.5502 26.686 67.1162 26.7933 66.7335 27.008C66.3508 27.2227 66.0475 27.526 65.8235 27.918C65.5995 28.3007 65.4875 28.758 65.4875 29.29C65.4875 29.822 65.5995 30.284 65.8235 30.676C66.0475 31.068 66.3508 31.3713 66.7335 31.586C67.1162 31.8007 67.5502 31.908 68.0355 31.908C68.4368 31.908 68.8102 31.824 69.1555 31.656C69.5102 31.4787 69.8088 31.208 70.0515 30.844L71.0735 31.488C70.7842 32.0013 70.3735 32.398 69.8415 32.678C69.3188 32.9487 68.7215 33.084 68.0495 33.084ZM73.8098 31.208L73.8378 29.486L78.1078 25.58H79.7318L76.4558 28.8L75.7278 29.416L73.8098 31.208ZM72.7178 33V22.612H74.0618V33H72.7178ZM78.3878 33L75.4758 29.388L76.3438 28.31L80.0398 33H78.3878ZM83.2404 33.084C82.6244 33.084 82.0364 33 81.4764 32.832C80.9257 32.664 80.4917 32.4587 80.1744 32.216L80.7344 31.152C81.0517 31.3667 81.4437 31.5487 81.9104 31.698C82.377 31.8473 82.853 31.922 83.3384 31.922C83.9637 31.922 84.4117 31.8333 84.6824 31.656C84.9624 31.4787 85.1024 31.2313 85.1024 30.914C85.1024 30.6807 85.0184 30.4987 84.8504 30.368C84.6824 30.2373 84.4584 30.1393 84.1784 30.074C83.9077 30.0087 83.6044 29.9527 83.2684 29.906C82.9324 29.85 82.5964 29.7847 82.2604 29.71C81.9244 29.626 81.6164 29.514 81.3364 29.374C81.0564 29.2247 80.8324 29.024 80.6644 28.772C80.4964 28.5107 80.4124 28.1653 80.4124 27.736C80.4124 27.288 80.5384 26.896 80.7904 26.56C81.0424 26.224 81.397 25.9673 81.8544 25.79C82.321 25.6033 82.8717 25.51 83.5064 25.51C83.9917 25.51 84.4817 25.5707 84.9764 25.692C85.4804 25.804 85.891 25.9673 86.2084 26.182L85.6344 27.246C85.2984 27.022 84.9484 26.868 84.5844 26.784C84.2204 26.7 83.8564 26.658 83.4924 26.658C82.9044 26.658 82.4657 26.756 82.1764 26.952C81.887 27.1387 81.7424 27.3813 81.7424 27.68C81.7424 27.932 81.8264 28.128 81.9944 28.268C82.1717 28.3987 82.3957 28.5013 82.6664 28.576C82.9464 28.6507 83.2544 28.716 83.5904 28.772C83.9264 28.8187 84.2624 28.884 84.5984 28.968C84.9344 29.0427 85.2377 29.15 85.5084 29.29C85.7884 29.43 86.0124 29.626 86.1804 29.878C86.3577 30.13 86.4464 30.466 86.4464 30.886C86.4464 31.334 86.3157 31.7213 86.0544 32.048C85.793 32.3747 85.4244 32.6313 84.9484 32.818C84.4724 32.9953 83.903 33.084 83.2404 33.084ZM96.4918 33V31.432L96.4218 31.138V28.464C96.4218 27.8947 96.2538 27.456 95.9178 27.148C95.5911 26.8307 95.0965 26.672 94.4338 26.672C93.9951 26.672 93.5658 26.7467 93.1458 26.896C92.7258 27.036 92.3711 27.2273 92.0818 27.47L91.5218 26.462C91.9045 26.154 92.3618 25.9207 92.8938 25.762C93.4351 25.594 93.9998 25.51 94.5878 25.51C95.6051 25.51 96.3891 25.7573 96.9398 26.252C97.4905 26.7467 97.7658 27.5027 97.7658 28.52V33H96.4918ZM94.0558 33.084C93.5051 33.084 93.0198 32.9907 92.5998 32.804C92.1891 32.6173 91.8718 32.3607 91.6478 32.034C91.4238 31.698 91.3118 31.32 91.3118 30.9C91.3118 30.4987 91.4051 30.1347 91.5918 29.808C91.7878 29.4813 92.1005 29.22 92.5298 29.024C92.9685 28.828 93.5565 28.73 94.2938 28.73H96.6458V29.696H94.3498C93.6778 29.696 93.2251 29.808 92.9918 30.032C92.7585 30.256 92.6418 30.5267 92.6418 30.844C92.6418 31.208 92.7865 31.502 93.0758 31.726C93.3651 31.9407 93.7665 32.048 94.2798 32.048C94.7838 32.048 95.2225 31.936 95.5958 31.712C95.9785 31.488 96.2538 31.1613 96.4218 30.732L96.6878 31.656C96.5105 32.0947 96.1978 32.4447 95.7498 32.706C95.3018 32.958 94.7371 33.084 94.0558 33.084ZM104.215 25.51C104.822 25.51 105.354 25.6267 105.811 25.86C106.278 26.0933 106.642 26.448 106.903 26.924C107.164 27.4 107.295 28.002 107.295 28.73V33H105.951V28.884C105.951 28.1653 105.774 27.624 105.419 27.26C105.074 26.896 104.584 26.714 103.949 26.714C103.473 26.714 103.058 26.8073 102.703 26.994C102.348 27.1807 102.073 27.456 101.877 27.82C101.69 28.184 101.597 28.6367 101.597 29.178V33H100.253V25.58H101.541V27.582L101.331 27.05C101.574 26.5647 101.947 26.1867 102.451 25.916C102.955 25.6453 103.543 25.51 104.215 25.51ZM112.848 33.084C112.13 33.084 111.486 32.9253 110.916 32.608C110.356 32.2907 109.913 31.8473 109.586 31.278C109.26 30.7087 109.096 30.046 109.096 29.29C109.096 28.534 109.26 27.876 109.586 27.316C109.913 26.7467 110.356 26.3033 110.916 25.986C111.486 25.6687 112.13 25.51 112.848 25.51C113.474 25.51 114.038 25.65 114.542 25.93C115.046 26.21 115.448 26.63 115.746 27.19C116.054 27.75 116.208 28.45 116.208 29.29C116.208 30.13 116.059 30.83 115.76 31.39C115.471 31.95 115.074 32.3747 114.57 32.664C114.066 32.944 113.492 33.084 112.848 33.084ZM112.96 31.908C113.427 31.908 113.847 31.8007 114.22 31.586C114.603 31.3713 114.902 31.068 115.116 30.676C115.34 30.2747 115.452 29.8127 115.452 29.29C115.452 28.758 115.34 28.3007 115.116 27.918C114.902 27.526 114.603 27.2227 114.22 27.008C113.847 26.7933 113.427 26.686 112.96 26.686C112.484 26.686 112.06 26.7933 111.686 27.008C111.313 27.2227 111.014 27.526 110.79 27.918C110.566 28.3007 110.454 28.758 110.454 29.29C110.454 29.8127 110.566 30.2747 110.79 30.676C111.014 31.068 111.313 31.3713 111.686 31.586C112.06 31.8007 112.484 31.908 112.96 31.908ZM115.494 33V30.998L115.578 29.276L115.438 27.554V22.612H116.782V33H115.494ZM126.389 33.084C125.596 33.084 124.896 32.9207 124.289 32.594C123.692 32.2673 123.225 31.8193 122.889 31.25C122.562 30.6807 122.399 30.0273 122.399 29.29C122.399 28.5527 122.558 27.8993 122.875 27.33C123.202 26.7607 123.645 26.3173 124.205 26C124.774 25.6733 125.414 25.51 126.123 25.51C126.842 25.51 127.476 25.6687 128.027 25.986C128.578 26.3033 129.007 26.7513 129.315 27.33C129.632 27.8993 129.791 28.5667 129.791 29.332C129.791 29.388 129.786 29.4533 129.777 29.528C129.777 29.6027 129.772 29.6727 129.763 29.738H123.449V28.772H129.063L128.517 29.108C128.526 28.632 128.428 28.2073 128.223 27.834C128.018 27.4607 127.733 27.1713 127.369 26.966C127.014 26.7513 126.599 26.644 126.123 26.644C125.656 26.644 125.241 26.7513 124.877 26.966C124.513 27.1713 124.228 27.4653 124.023 27.848C123.818 28.2213 123.715 28.6507 123.715 29.136V29.36C123.715 29.8547 123.827 30.298 124.051 30.69C124.284 31.0727 124.606 31.3713 125.017 31.586C125.428 31.8007 125.899 31.908 126.431 31.908C126.87 31.908 127.266 31.8333 127.621 31.684C127.985 31.5347 128.302 31.3107 128.573 31.012L129.315 31.88C128.979 32.272 128.559 32.5707 128.055 32.776C127.56 32.9813 127.005 33.084 126.389 33.084ZM131.657 33V22.612H133.001V33H131.657ZM138.871 33.084C138.078 33.084 137.378 32.9207 136.771 32.594C136.174 32.2673 135.707 31.8193 135.371 31.25C135.045 30.6807 134.881 30.0273 134.881 29.29C134.881 28.5527 135.04 27.8993 135.357 27.33C135.684 26.7607 136.127 26.3173 136.687 26C137.257 25.6733 137.896 25.51 138.605 25.51C139.324 25.51 139.959 25.6687 140.509 25.986C141.06 26.3033 141.489 26.7513 141.797 27.33C142.115 27.8993 142.273 28.5667 142.273 29.332C142.273 29.388 142.269 29.4533 142.259 29.528C142.259 29.6027 142.255 29.6727 142.245 29.738H135.931V28.772H141.545L140.999 29.108C141.009 28.632 140.911 28.2073 140.705 27.834C140.5 27.4607 140.215 27.1713 139.851 26.966C139.497 26.7513 139.081 26.644 138.605 26.644C138.139 26.644 137.723 26.7513 137.359 26.966C136.995 27.1713 136.711 27.4653 136.505 27.848C136.3 28.2213 136.197 28.6507 136.197 29.136V29.36C136.197 29.8547 136.309 30.298 136.533 30.69C136.767 31.0727 137.089 31.3713 137.499 31.586C137.91 31.8007 138.381 31.908 138.913 31.908C139.352 31.908 139.749 31.8333 140.103 31.684C140.467 31.5347 140.785 31.3107 141.055 31.012L141.797 31.88C141.461 32.272 141.041 32.5707 140.537 32.776C140.043 32.9813 139.487 33.084 138.871 33.084ZM147.388 35.8C146.706 35.8 146.044 35.702 145.4 35.506C144.765 35.3193 144.247 35.0487 143.846 34.694L144.49 33.658C144.835 33.9567 145.26 34.19 145.764 34.358C146.268 34.5353 146.795 34.624 147.346 34.624C148.223 34.624 148.867 34.4187 149.278 34.008C149.688 33.5973 149.894 32.972 149.894 32.132V30.564L150.034 29.094L149.964 27.61V25.58H151.238V31.992C151.238 33.2987 150.911 34.26 150.258 34.876C149.604 35.492 148.648 35.8 147.388 35.8ZM147.22 32.692C146.501 32.692 145.857 32.5427 145.288 32.244C144.728 31.936 144.28 31.5113 143.944 30.97C143.617 30.4287 143.454 29.8033 143.454 29.094C143.454 28.3753 143.617 27.75 143.944 27.218C144.28 26.6767 144.728 26.2567 145.288 25.958C145.857 25.6593 146.501 25.51 147.22 25.51C147.854 25.51 148.433 25.6407 148.956 25.902C149.478 26.154 149.894 26.546 150.202 27.078C150.519 27.61 150.678 28.282 150.678 29.094C150.678 29.8967 150.519 30.564 150.202 31.096C149.894 31.628 149.478 32.0293 148.956 32.3C148.433 32.5613 147.854 32.692 147.22 32.692ZM147.374 31.516C147.868 31.516 148.307 31.4133 148.69 31.208C149.072 31.0027 149.371 30.718 149.586 30.354C149.81 29.99 149.922 29.57 149.922 29.094C149.922 28.618 149.81 28.198 149.586 27.834C149.371 27.47 149.072 27.19 148.69 26.994C148.307 26.7887 147.868 26.686 147.374 26.686C146.879 26.686 146.436 26.7887 146.044 26.994C145.661 27.19 145.358 27.47 145.134 27.834C144.919 28.198 144.812 28.618 144.812 29.094C144.812 29.57 144.919 29.99 145.134 30.354C145.358 30.718 145.661 31.0027 146.044 31.208C146.436 31.4133 146.879 31.516 147.374 31.516ZM158.412 33V31.432L158.342 31.138V28.464C158.342 27.8947 158.174 27.456 157.838 27.148C157.511 26.8307 157.016 26.672 156.354 26.672C155.915 26.672 155.486 26.7467 155.066 26.896C154.646 27.036 154.291 27.2273 154.002 27.47L153.442 26.462C153.824 26.154 154.282 25.9207 154.814 25.762C155.355 25.594 155.92 25.51 156.508 25.51C157.525 25.51 158.309 25.7573 158.86 26.252C159.41 26.7467 159.686 27.5027 159.686 28.52V33H158.412ZM155.976 33.084C155.425 33.084 154.94 32.9907 154.52 32.804C154.109 32.6173 153.792 32.3607 153.568 32.034C153.344 31.698 153.232 31.32 153.232 30.9C153.232 30.4987 153.325 30.1347 153.512 29.808C153.708 29.4813 154.02 29.22 154.45 29.024C154.888 28.828 155.476 28.73 156.214 28.73H158.566V29.696H156.27C155.598 29.696 155.145 29.808 154.912 30.032C154.678 30.256 154.562 30.5267 154.562 30.844C154.562 31.208 154.706 31.502 154.996 31.726C155.285 31.9407 155.686 32.048 156.2 32.048C156.704 32.048 157.142 31.936 157.516 31.712C157.898 31.488 158.174 31.1613 158.342 30.732L158.608 31.656C158.43 32.0947 158.118 32.4447 157.67 32.706C157.222 32.958 156.657 33.084 155.976 33.084ZM166.135 25.51C166.742 25.51 167.274 25.6267 167.731 25.86C168.198 26.0933 168.562 26.448 168.823 26.924C169.084 27.4 169.215 28.002 169.215 28.73V33H167.871V28.884C167.871 28.1653 167.694 27.624 167.339 27.26C166.994 26.896 166.504 26.714 165.869 26.714C165.393 26.714 164.978 26.8073 164.623 26.994C164.268 27.1807 163.993 27.456 163.797 27.82C163.61 28.184 163.517 28.6367 163.517 29.178V33H162.173V25.58H163.461V27.582L163.251 27.05C163.494 26.5647 163.867 26.1867 164.371 25.916C164.875 25.6453 165.463 25.51 166.135 25.51ZM174.25 33.084C173.504 33.084 172.925 32.8833 172.514 32.482C172.104 32.0807 171.898 31.5067 171.898 30.76V23.956H173.242V30.704C173.242 31.1053 173.34 31.4133 173.536 31.628C173.742 31.8427 174.031 31.95 174.404 31.95C174.824 31.95 175.174 31.8333 175.454 31.6L175.874 32.566C175.669 32.7433 175.422 32.874 175.132 32.958C174.852 33.042 174.558 33.084 174.25 33.084ZM170.638 26.686V25.58H175.37V26.686H170.638ZM183.387 33.084C182.771 33.084 182.183 33 181.623 32.832C181.072 32.664 180.638 32.4587 180.321 32.216L180.881 31.152C181.198 31.3667 181.59 31.5487 182.057 31.698C182.524 31.8473 183 31.922 183.485 31.922C184.11 31.922 184.558 31.8333 184.829 31.656C185.109 31.4787 185.249 31.2313 185.249 30.914C185.249 30.6807 185.165 30.4987 184.997 30.368C184.829 30.2373 184.605 30.1393 184.325 30.074C184.054 30.0087 183.751 29.9527 183.415 29.906C183.079 29.85 182.743 29.7847 182.407 29.71C182.071 29.626 181.763 29.514 181.483 29.374C181.203 29.2247 180.979 29.024 180.811 28.772C180.643 28.5107 180.559 28.1653 180.559 27.736C180.559 27.288 180.685 26.896 180.937 26.56C181.189 26.224 181.544 25.9673 182.001 25.79C182.468 25.6033 183.018 25.51 183.653 25.51C184.138 25.51 184.628 25.5707 185.123 25.692C185.627 25.804 186.038 25.9673 186.355 26.182L185.781 27.246C185.445 27.022 185.095 26.868 184.731 26.784C184.367 26.7 184.003 26.658 183.639 26.658C183.051 26.658 182.612 26.756 182.323 26.952C182.034 27.1387 181.889 27.3813 181.889 27.68C181.889 27.932 181.973 28.128 182.141 28.268C182.318 28.3987 182.542 28.5013 182.813 28.576C183.093 28.6507 183.401 28.716 183.737 28.772C184.073 28.8187 184.409 28.884 184.745 28.968C185.081 29.0427 185.384 29.15 185.655 29.29C185.935 29.43 186.159 29.626 186.327 29.878C186.504 30.13 186.593 30.466 186.593 30.886C186.593 31.334 186.462 31.7213 186.201 32.048C185.94 32.3747 185.571 32.6313 185.095 32.818C184.619 32.9953 184.05 33.084 183.387 33.084ZM197.555 25.51C198.152 25.51 198.679 25.6267 199.137 25.86C199.594 26.0933 199.949 26.448 200.201 26.924C200.462 27.4 200.593 28.002 200.593 28.73V33H199.249V28.884C199.249 28.1653 199.081 27.624 198.745 27.26C198.409 26.896 197.937 26.714 197.331 26.714C196.883 26.714 196.491 26.8073 196.155 26.994C195.819 27.1807 195.557 27.456 195.371 27.82C195.193 28.184 195.105 28.6367 195.105 29.178V33H193.761V28.884C193.761 28.1653 193.593 27.624 193.257 27.26C192.93 26.896 192.459 26.714 191.843 26.714C191.404 26.714 191.017 26.8073 190.681 26.994C190.345 27.1807 190.083 27.456 189.897 27.82C189.71 28.184 189.617 28.6367 189.617 29.178V33H188.273V25.58H189.561V27.554L189.351 27.05C189.584 26.5647 189.943 26.1867 190.429 25.916C190.914 25.6453 191.479 25.51 192.123 25.51C192.832 25.51 193.443 25.6873 193.957 26.042C194.47 26.3873 194.806 26.9147 194.965 27.624L194.419 27.4C194.643 26.8307 195.035 26.3733 195.595 26.028C196.155 25.6827 196.808 25.51 197.555 25.51ZM207.671 33V31.432L207.601 31.138V28.464C207.601 27.8947 207.433 27.456 207.097 27.148C206.771 26.8307 206.276 26.672 205.613 26.672C205.175 26.672 204.745 26.7467 204.325 26.896C203.905 27.036 203.551 27.2273 203.261 27.47L202.701 26.462C203.084 26.154 203.541 25.9207 204.073 25.762C204.615 25.594 205.179 25.51 205.767 25.51C206.785 25.51 207.569 25.7573 208.119 26.252C208.67 26.7467 208.945 27.5027 208.945 28.52V33H207.671ZM205.235 33.084C204.685 33.084 204.199 32.9907 203.779 32.804C203.369 32.6173 203.051 32.3607 202.827 32.034C202.603 31.698 202.491 31.32 202.491 30.9C202.491 30.4987 202.585 30.1347 202.771 29.808C202.967 29.4813 203.28 29.22 203.709 29.024C204.148 28.828 204.736 28.73 205.473 28.73H207.825V29.696H205.529C204.857 29.696 204.405 29.808 204.171 30.032C203.938 30.256 203.821 30.5267 203.821 30.844C203.821 31.208 203.966 31.502 204.255 31.726C204.545 31.9407 204.946 32.048 205.459 32.048C205.963 32.048 206.402 31.936 206.775 31.712C207.158 31.488 207.433 31.1613 207.601 30.732L207.867 31.656C207.69 32.0947 207.377 32.4447 206.929 32.706C206.481 32.958 205.917 33.084 205.235 33.084ZM211.433 33V22.612H212.777V33H211.433ZM215.343 33V22.612H216.687V33H215.343ZM226.261 35.8C225.579 35.8 224.917 35.702 224.273 35.506C223.638 35.3193 223.12 35.0487 222.719 34.694L223.363 33.658C223.708 33.9567 224.133 34.19 224.637 34.358C225.141 34.5353 225.668 34.624 226.219 34.624C227.096 34.624 227.74 34.4187 228.151 34.008C228.561 33.5973 228.767 32.972 228.767 32.132V30.564L228.907 29.094L228.837 27.61V25.58H230.111V31.992C230.111 33.2987 229.784 34.26 229.131 34.876C228.477 35.492 227.521 35.8 226.261 35.8ZM226.093 32.692C225.374 32.692 224.73 32.5427 224.161 32.244C223.601 31.936 223.153 31.5113 222.817 30.97C222.49 30.4287 222.327 29.8033 222.327 29.094C222.327 28.3753 222.49 27.75 222.817 27.218C223.153 26.6767 223.601 26.2567 224.161 25.958C224.73 25.6593 225.374 25.51 226.093 25.51C226.727 25.51 227.306 25.6407 227.829 25.902C228.351 26.154 228.767 26.546 229.075 27.078C229.392 27.61 229.551 28.282 229.551 29.094C229.551 29.8967 229.392 30.564 229.075 31.096C228.767 31.628 228.351 32.0293 227.829 32.3C227.306 32.5613 226.727 32.692 226.093 32.692ZM226.247 31.516C226.741 31.516 227.18 31.4133 227.563 31.208C227.945 31.0027 228.244 30.718 228.459 30.354C228.683 29.99 228.795 29.57 228.795 29.094C228.795 28.618 228.683 28.198 228.459 27.834C228.244 27.47 227.945 27.19 227.563 26.994C227.18 26.7887 226.741 26.686 226.247 26.686C225.752 26.686 225.309 26.7887 224.917 26.994C224.534 27.19 224.231 27.47 224.007 27.834C223.792 28.198 223.685 28.618 223.685 29.094C223.685 29.57 223.792 29.99 224.007 30.354C224.231 30.718 224.534 31.0027 224.917 31.208C225.309 31.4133 225.752 31.516 226.247 31.516ZM232.679 33V25.58H234.023V33H232.679ZM233.351 24.152C233.089 24.152 232.87 24.068 232.693 23.9C232.525 23.732 232.441 23.5267 232.441 23.284C232.441 23.032 232.525 22.822 232.693 22.654C232.87 22.486 233.089 22.402 233.351 22.402C233.612 22.402 233.827 22.486 233.995 22.654C234.172 22.8127 234.261 23.0133 234.261 23.256C234.261 23.508 234.177 23.7227 234.009 23.9C233.841 24.068 233.621 24.152 233.351 24.152ZM236.785 33V24.922C236.785 24.194 236.995 23.6153 237.415 23.186C237.844 22.7473 238.451 22.528 239.235 22.528C239.524 22.528 239.8 22.5653 240.061 22.64C240.332 22.7053 240.56 22.8127 240.747 22.962L240.341 23.984C240.201 23.872 240.042 23.788 239.865 23.732C239.688 23.6667 239.501 23.634 239.305 23.634C238.913 23.634 238.614 23.746 238.409 23.97C238.204 24.1847 238.101 24.5067 238.101 24.936V25.93L238.129 26.546V33H236.785ZM235.525 26.686V25.58H240.257V26.686H235.525ZM244.072 33.084C243.326 33.084 242.747 32.8833 242.336 32.482C241.926 32.0807 241.72 31.5067 241.72 30.76V23.956H243.064V30.704C243.064 31.1053 243.162 31.4133 243.358 31.628C243.564 31.8427 243.853 31.95 244.226 31.95C244.646 31.95 244.996 31.8333 245.276 31.6L245.696 32.566C245.491 32.7433 245.244 32.874 244.954 32.958C244.674 33.042 244.38 33.084 244.072 33.084ZM240.46 26.686V25.58H245.192V26.686H240.46ZM247.321 33V25.58H248.665V33H247.321ZM247.993 24.152C247.732 24.152 247.513 24.068 247.335 23.9C247.167 23.732 247.083 23.5267 247.083 23.284C247.083 23.032 247.167 22.822 247.335 22.654C247.513 22.486 247.732 22.402 247.993 22.402C248.255 22.402 248.469 22.486 248.637 22.654C248.815 22.8127 248.903 23.0133 248.903 23.256C248.903 23.508 248.819 23.7227 248.651 23.9C248.483 24.068 248.264 24.152 247.993 24.152ZM255.194 25.51C255.8 25.51 256.332 25.6267 256.79 25.86C257.256 26.0933 257.62 26.448 257.882 26.924C258.143 27.4 258.274 28.002 258.274 28.73V33H256.93V28.884C256.93 28.1653 256.752 27.624 256.398 27.26C256.052 26.896 255.562 26.714 254.928 26.714C254.452 26.714 254.036 26.8073 253.682 26.994C253.327 27.1807 253.052 27.456 252.856 27.82C252.669 28.184 252.576 28.6367 252.576 29.178V33H251.232V25.58H252.52V27.582L252.31 27.05C252.552 26.5647 252.926 26.1867 253.43 25.916C253.934 25.6453 254.522 25.51 255.194 25.51ZM264.009 35.8C263.327 35.8 262.665 35.702 262.021 35.506C261.386 35.3193 260.868 35.0487 260.467 34.694L261.111 33.658C261.456 33.9567 261.881 34.19 262.385 34.358C262.889 34.5353 263.416 34.624 263.967 34.624C264.844 34.624 265.488 34.4187 265.899 34.008C266.309 33.5973 266.515 32.972 266.515 32.132V30.564L266.655 29.094L266.585 27.61V25.58H267.859V31.992C267.859 33.2987 267.532 34.26 266.879 34.876C266.225 35.492 265.269 35.8 264.009 35.8ZM263.841 32.692C263.122 32.692 262.478 32.5427 261.909 32.244C261.349 31.936 260.901 31.5113 260.565 30.97C260.238 30.4287 260.075 29.8033 260.075 29.094C260.075 28.3753 260.238 27.75 260.565 27.218C260.901 26.6767 261.349 26.2567 261.909 25.958C262.478 25.6593 263.122 25.51 263.841 25.51C264.475 25.51 265.054 25.6407 265.577 25.902C266.099 26.154 266.515 26.546 266.823 27.078C267.14 27.61 267.299 28.282 267.299 29.094C267.299 29.8967 267.14 30.564 266.823 31.096C266.515 31.628 266.099 32.0293 265.577 32.3C265.054 32.5613 264.475 32.692 263.841 32.692ZM263.995 31.516C264.489 31.516 264.928 31.4133 265.311 31.208C265.693 31.0027 265.992 30.718 266.207 30.354C266.431 29.99 266.543 29.57 266.543 29.094C266.543 28.618 266.431 28.198 266.207 27.834C265.992 27.47 265.693 27.19 265.311 26.994C264.928 26.7887 264.489 26.686 263.995 26.686C263.5 26.686 263.057 26.7887 262.665 26.994C262.282 27.19 261.979 27.47 261.755 27.834C261.54 28.198 261.433 28.618 261.433 29.094C261.433 29.57 261.54 29.99 261.755 30.354C261.979 30.718 262.282 31.0027 262.665 31.208C263.057 31.4133 263.5 31.516 263.995 31.516ZM270.749 33.084C270.487 33.084 270.263 32.9953 270.077 32.818C269.89 32.6313 269.797 32.398 269.797 32.118C269.797 31.838 269.89 31.6093 270.077 31.432C270.263 31.2547 270.487 31.166 270.749 31.166C271.001 31.166 271.215 31.2547 271.393 31.432C271.579 31.6093 271.673 31.838 271.673 32.118C271.673 32.398 271.579 32.6313 271.393 32.818C271.215 32.9953 271.001 33.084 270.749 33.084Z" fill="black"/>
</svg>
