<svg width="326" height="76" viewBox="0 0 326 76" fill="none" xmlns="http://www.w3.org/2000/svg">
<path d="M14.2088 46.7572C12.202 46.7601 10.2783 46.5002 8.43761 45.9773C6.59689 45.4305 5.11423 44.7279 3.9896 43.8695L5.95168 39.4946C7.02833 40.2575 8.29583 40.8887 9.7542 41.3883C11.2364 41.8639 12.7301 42.1006 14.2352 42.0984C15.3819 42.0967 16.3015 41.9879 16.9939 41.7718C17.7102 41.5319 18.2351 41.2086 18.5687 40.8019C18.9024 40.3953 19.0687 39.9292 19.0676 39.4036C19.0662 38.7346 18.8024 38.2094 18.276 37.828C17.7496 37.4226 17.0561 37.1011 16.1955 36.8634C15.3349 36.6019 14.3788 36.3644 13.3272 36.1509C12.2994 35.9135 11.2595 35.6284 10.2076 35.2955C9.17966 34.9625 8.2351 34.5338 7.37396 34.0095C6.51282 33.4852 5.80662 32.7934 5.25538 31.9341C4.72803 31.0748 4.46299 29.9762 4.46026 28.6384C4.45734 27.2049 4.83694 25.9023 5.59906 24.7305C6.38502 23.5348 7.55375 22.5894 9.10524 21.8943C10.6806 21.1753 12.6508 20.814 15.016 20.8105C16.5928 20.8082 18.1461 20.997 19.6759 21.377C21.2056 21.7331 22.5566 22.2806 23.7288 23.0195L21.9459 27.43C20.7739 26.7628 19.6023 26.2748 18.431 25.9659C17.2597 25.6332 16.1126 25.4676 14.9897 25.4693C13.8668 25.4709 12.9473 25.6037 12.2311 25.8675C11.5149 26.1314 11.002 26.4786 10.6923 26.909C10.3825 27.3156 10.2282 27.7937 10.2293 28.3432C10.2306 28.9882 10.4945 29.5134 11.0209 29.9188C11.5473 30.3003 12.2408 30.6098 13.1013 30.8475C13.9619 31.0851 14.9061 31.3227 15.9338 31.56C16.9855 31.7974 18.0253 32.0706 19.0533 32.3797C20.1051 32.6887 21.0616 33.1054 21.9227 33.6297C22.7839 34.1541 23.4781 34.8459 24.0055 35.7052C24.5567 36.5644 24.8337 37.6511 24.8363 38.9651C24.8392 40.3746 24.4477 41.6653 23.6616 42.8371C22.8756 44.0089 21.695 44.9543 20.1196 45.6734C18.5682 46.3924 16.5979 46.7537 14.2088 46.7572ZM30.2517 46.3035L30.2005 21.2182L42.4565 21.2002C45.6101 21.1955 47.9765 21.7893 49.5558 22.9815C51.1589 24.1737 51.9624 25.7493 51.9664 27.7084C51.9691 29.0224 51.6489 30.1696 51.0059 31.1501C50.3628 32.1066 49.4803 32.8486 48.3585 33.3758C47.2367 33.9031 45.9471 34.1678 44.4898 34.1699L45.1677 32.6996C46.7445 32.6973 48.1426 32.958 49.3621 33.4818C50.5816 33.9817 51.5268 34.7329 52.1978 35.7353C52.8927 36.7377 53.2416 37.9676 53.2446 39.4249C53.249 41.5751 52.4043 43.2607 50.7105 44.4816C49.0167 45.6786 46.5213 46.2796 43.2244 46.2844L30.2517 46.3035ZM36.0124 41.923L42.7854 41.913C44.2906 41.9108 45.4249 41.6703 46.1884 41.1913C46.9758 40.6884 47.3684 39.8995 47.3662 38.8244C47.3641 37.7732 46.9683 36.9973 46.1789 36.4968C45.4133 35.9723 44.2779 35.7112 42.7728 35.7134L35.5697 35.724L35.5611 31.4953L41.7608 31.4862C43.1703 31.4841 44.2449 31.2436 44.9846 30.7647C45.7481 30.2619 46.1288 29.5088 46.1267 28.5054C46.1247 27.5258 45.741 26.7977 44.9755 26.321C44.2339 25.8204 43.1583 25.5711 41.7487 25.5732L35.9791 25.5817L36.0124 41.923ZM57.9603 38.4146L57.9512 33.9351L68.0928 33.9201L68.102 38.3997L57.9603 38.4146ZM75.8678 46.2364L75.8211 23.3012L78.3347 25.8061L70.8091 25.8171L70.7996 21.1584L81.6222 21.1425L81.6733 46.2278L75.8678 46.2364ZM98.6821 46.6328C96.3886 46.6362 94.3927 46.1613 92.6945 45.2082C91.0202 44.255 89.7273 42.8593 88.8157 41.0211C87.9041 39.1828 87.4455 36.9138 87.44 34.2142C87.4341 31.3234 87.9667 28.8738 89.0377 26.8654C90.1325 24.8569 91.6346 23.3257 93.5437 22.2717C95.4767 21.2177 97.6975 20.6888 100.206 20.6851C101.544 20.6831 102.822 20.8246 104.041 21.1095C105.26 21.3944 106.312 21.8229 107.198 22.395L105.056 26.6626C104.362 26.1858 103.621 25.8644 102.832 25.6983C102.043 25.5084 101.219 25.414 100.359 25.4153C98.1849 25.4185 96.4661 26.078 95.2026 27.3939C93.9391 28.7097 93.3099 30.6577 93.3152 33.238C93.3161 33.668 93.317 34.1458 93.3181 34.6714C93.3431 35.197 93.4158 35.7225 93.5363 36.2479L91.9206 34.7451C92.3727 33.8127 92.9564 33.0354 93.6719 32.4132C94.3873 31.7671 95.2344 31.288 96.2133 30.976C97.216 30.6401 98.3147 30.4712 99.5092 30.4694C101.134 30.4671 102.592 30.7874 103.883 31.4306C105.175 32.0737 106.204 32.9801 106.971 34.1496C107.761 35.3191 108.158 36.6922 108.162 38.269C108.165 39.9653 107.738 41.4471 106.881 42.7146C106.047 43.9582 104.914 44.9274 103.482 45.6223C102.074 46.2934 100.474 46.6302 98.6821 46.6328ZM98.3507 42.2971C99.163 42.2959 99.8794 42.1515 100.5 41.8639C101.144 41.5524 101.645 41.1097 102.002 40.5358C102.36 39.9619 102.537 39.3046 102.536 38.564C102.534 37.4172 102.138 36.51 101.348 35.8422C100.582 35.1505 99.5539 34.8056 98.2638 34.8075C97.4037 34.8087 96.6515 34.9771 96.0071 35.3125C95.3627 35.624 94.85 36.0668 94.4689 36.6407C94.1116 37.1907 93.9338 37.836 93.9353 38.5766C93.9367 39.2934 94.1172 39.9382 94.4768 40.511C94.8362 41.06 95.3389 41.5012 95.9846 41.8347C96.6303 42.1444 97.419 42.2985 98.3507 42.2971ZM112.34 38.3345L112.331 33.855L122.473 33.8401L122.482 38.3196L112.34 38.3345ZM126.338 46.1621L126.33 42.3993L135.987 33.2468C136.75 32.5529 137.31 31.9309 137.668 31.3809C138.025 30.8308 138.263 30.3288 138.381 29.8747C138.524 29.4205 138.594 29.0023 138.594 28.6201C138.592 27.6167 138.244 26.8527 137.55 26.3281C136.88 25.7796 135.888 25.5063 134.574 25.5083C133.522 25.5098 132.543 25.7143 131.636 26.1218C130.753 26.5292 130.002 27.1635 129.382 28.0244L125.148 25.3071C126.101 23.8723 127.437 22.7355 129.155 21.8968C130.873 21.0581 132.856 20.637 135.101 20.6337C136.965 20.631 138.59 20.9392 139.977 21.5583C141.388 22.1535 142.476 23 143.243 24.0979C144.034 25.1957 144.431 26.5091 144.434 28.0381C144.435 28.8504 144.33 29.6628 144.116 30.4755C143.927 31.2641 143.522 32.1009 142.903 32.9858C142.307 33.8706 141.425 34.8634 140.257 35.9641L132.245 43.5373L131.13 41.4246L145.285 41.4038L145.295 46.1342L126.338 46.1621ZM157.654 46.546C155.91 46.5486 154.177 46.3242 152.456 45.8728C150.759 45.3975 149.3 44.7307 148.08 43.8724L150.364 39.4253C151.321 40.1168 152.422 40.6646 153.665 41.0689C154.932 41.4732 156.21 41.6744 157.5 41.6725C158.958 41.6704 160.104 41.382 160.939 40.8074C161.774 40.2328 162.19 39.4318 162.188 38.4045C162.187 37.7595 162.019 37.1863 161.683 36.6851C161.348 36.1839 160.75 35.8025 159.889 35.541C159.052 35.2794 157.869 35.1498 156.34 35.152L149.926 35.1615L151.187 21.0401L166.489 21.0176L166.499 25.6763L153.275 25.6957L156.28 23.0394L155.404 33.1107L152.389 30.4633L157.693 30.4555C160.177 30.4518 162.173 30.7953 163.679 31.4859C165.21 32.1526 166.322 33.0708 167.018 34.2404C167.713 35.41 168.062 36.7354 168.065 38.2167C168.068 39.6979 167.701 41.0722 166.963 42.3395C166.224 43.5829 165.08 44.5999 163.528 45.3906C162.001 46.1574 160.043 46.5425 157.654 46.546ZM182.622 46.5093C180.567 46.5123 178.726 46.0133 177.1 45.0123C175.473 43.9874 174.192 42.508 173.256 40.5742C172.321 38.6404 171.85 36.2998 171.844 33.5524C171.839 30.8049 172.3 28.463 173.228 26.5264C174.156 24.5899 175.431 23.1187 177.053 22.1129C178.676 21.0833 180.514 20.5669 182.569 20.5639C184.647 20.5608 186.488 21.0718 188.091 22.0967C189.717 23.0977 190.999 24.5651 191.934 26.4989C192.87 28.4327 193.341 30.7733 193.346 33.5207C193.352 36.2682 192.891 38.6102 191.963 40.5467C191.035 42.4832 189.76 43.9663 188.137 44.996C186.539 46.0018 184.7 46.5062 182.622 46.5093ZM182.612 41.5997C183.591 41.5983 184.439 41.3223 185.154 40.7717C185.894 40.2212 186.466 39.3483 186.869 38.1532C187.297 36.958 187.509 35.4167 187.505 33.5293C187.501 31.642 187.283 30.1013 186.85 28.9074C186.442 27.7135 185.867 26.8423 185.125 26.2939C184.407 25.7455 183.558 25.472 182.579 25.4734C181.623 25.4748 180.776 25.7508 180.036 26.3014C179.321 26.8519 178.749 27.7248 178.321 28.92C177.918 30.1151 177.718 31.6564 177.722 33.5437C177.725 35.4311 177.932 36.9718 178.34 38.1657C178.773 39.3596 179.348 40.2308 180.066 40.7792C180.807 41.3276 181.656 41.6011 182.612 41.5997ZM219.472 53.2639C217.656 53.2666 215.9 53.0422 214.203 52.5908C212.53 52.1632 211.131 51.5083 210.006 50.626L212.22 46.609C213.033 47.2768 214.062 47.8009 215.305 48.1813C216.572 48.5856 217.815 48.7868 219.033 48.785C221.016 48.7821 222.448 48.338 223.331 47.4528C224.237 46.5675 224.688 45.2528 224.684 43.5088L224.678 40.606L225.027 35.7676L224.945 30.894L224.937 26.737L230.241 26.7292L230.273 42.7838C230.281 46.3674 229.354 49.0087 227.494 50.7077C225.634 52.4067 222.96 53.2588 219.472 53.2639ZM218.595 45.0945C216.804 45.0972 215.178 44.7173 213.719 43.9549C212.284 43.1687 211.123 42.0833 210.237 40.699C209.374 39.2907 208.94 37.6548 208.936 35.7913C208.933 33.9039 209.359 32.2668 210.217 30.8799C211.098 29.469 212.254 28.3803 213.686 27.6136C215.142 26.847 216.766 26.4624 218.557 26.4597C220.182 26.4573 221.616 26.7897 222.86 27.4568C224.103 28.1 225.073 29.114 225.769 30.4986C226.464 31.8594 226.814 33.6148 226.819 35.765C226.823 37.8913 226.48 39.6478 225.79 41.0344C225.1 42.3972 224.135 43.414 222.894 44.0848C221.653 44.7556 220.22 45.0921 218.595 45.0945ZM219.697 40.5059C220.677 40.5044 221.548 40.312 222.312 39.9286C223.076 39.5214 223.672 38.9591 224.1 38.2417C224.529 37.5243 224.742 36.6998 224.74 35.768C224.738 34.8124 224.522 33.9885 224.09 33.2963C223.659 32.5802 223.06 32.0316 222.295 31.6505C221.53 31.2455 220.657 31.0437 219.678 31.0451C218.698 31.0466 217.827 31.2509 217.063 31.6582C216.299 32.0416 215.691 32.5919 215.239 33.3093C214.81 34.0028 214.597 34.8273 214.599 35.783C214.601 36.7147 214.817 37.5386 215.249 38.2547C215.704 38.9708 216.314 39.5313 217.08 39.9363C217.845 40.3175 218.717 40.5073 219.697 40.5059Z" fill="#490606"/>
<path d="M43.4821 68.2441C43.0056 67.5243 42.6357 66.6934 42.3724 65.7514C42.1171 64.8016 41.9883 63.7803 41.9861 62.6875C41.9839 61.5948 42.1085 60.5731 42.3599 59.6225C42.6193 58.664 42.9858 57.832 43.4595 57.1266L45.2293 57.124C44.7322 58.0195 44.3698 58.9227 44.142 59.8337C43.9142 60.7368 43.8013 61.6871 43.8034 62.6849C43.8054 63.6826 43.9222 64.6366 44.1537 65.5469C44.3851 66.4493 44.7512 67.3475 45.2519 68.2415L43.4821 68.2441ZM46.3569 65.9356L46.3399 57.6212L48.2641 57.6184L48.2811 65.9328L46.3569 65.9356ZM50.2542 65.9299L50.2373 57.6155L51.8289 57.6131L55.3804 63.4755L54.5371 63.4768L58.0053 57.604L59.5851 57.6017L59.6258 65.9161L57.8204 65.9187L57.7972 60.3719L58.1298 60.3714L55.3599 65.0434L54.4928 65.0447L51.6445 60.3809L52.0484 60.3803L52.0597 65.9272L50.2542 65.9299ZM61.5984 65.9132L61.5815 57.5988L63.5057 57.5959L63.5194 64.3425L67.6885 64.3364L67.6917 65.9042L61.5984 65.9132ZM72.1306 65.8977L72.1137 57.5833L73.7053 57.5809L77.2568 63.4433L76.4135 63.4446L79.8817 57.5718L81.4615 57.5695L81.5022 65.8839L79.6968 65.8865L79.6736 60.3397L80.0061 60.3392L77.2363 65.0112L76.3692 65.0125L73.5209 60.3487L73.9247 60.3481L73.9361 65.895L72.1306 65.8977ZM87.5135 66.0176C86.8563 66.0185 86.2464 65.9125 85.6837 65.6996C85.129 65.4866 84.6453 65.1864 84.2328 64.799C83.8281 64.4116 83.5105 63.9567 83.2798 63.4344C83.057 62.9122 82.945 62.3422 82.9437 61.7245C82.9425 61.1069 83.0521 60.5366 83.2728 60.0137C83.5014 59.4907 83.8211 59.0349 84.2321 58.6463C84.6431 58.2577 85.1255 57.9561 85.6794 57.7415C86.2332 57.5268 86.8348 57.4191 87.4841 57.4181C88.1414 57.4171 88.7434 57.5232 89.2902 57.7361C89.8449 57.9491 90.3246 58.2493 90.7292 58.6367C91.1418 59.0241 91.4634 59.479 91.6941 60.0013C91.9248 60.5156 92.0408 61.0856 92.0421 61.7112C92.0433 62.3288 91.9297 62.9031 91.7011 63.4339C91.4725 63.9569 91.1528 64.4127 90.7418 64.8013C90.3387 65.182 89.8603 65.4796 89.3064 65.6942C88.7605 65.9088 88.1628 66.0166 87.5135 66.0176ZM87.4983 64.3785C87.8705 64.3779 88.2108 64.3141 88.5194 64.1869C88.8359 64.0597 89.1127 63.8772 89.3497 63.6393C89.5868 63.4014 89.7684 63.12 89.8944 62.7952C90.0283 62.4703 90.0949 62.1099 90.0941 61.714C90.0933 61.3181 90.0253 60.9579 89.89 60.6334C89.7626 60.309 89.5799 60.0281 89.3419 59.7909C89.1118 59.5537 88.8382 59.372 88.5212 59.2458C88.2042 59.1195 87.8596 59.0567 87.4875 59.0572C87.1153 59.0578 86.771 59.1216 86.4545 59.2488C86.1459 59.376 85.8731 59.5585 85.636 59.7964C85.399 60.0343 85.2135 60.3157 85.0795 60.6405C84.9535 60.9654 84.8909 61.3258 84.8917 61.7217C84.8924 62.1097 84.9565 62.4699 85.0839 62.8023C85.2192 63.1267 85.4019 63.4076 85.632 63.6448C85.87 63.882 86.1476 64.0637 86.4646 64.1899C86.7816 64.3162 87.1261 64.379 87.4983 64.3785ZM97.5235 66.0028C96.8742 66.0038 96.2682 65.8978 95.7055 65.6848C95.1508 65.4718 94.6672 65.1716 94.2546 64.7842C93.85 64.3968 93.5323 63.942 93.3016 63.4197C93.0788 62.8974 92.9668 62.3274 92.9656 61.7098C92.9643 61.0921 93.074 60.5219 93.2946 59.9989C93.5232 59.476 93.843 59.0202 94.254 58.6316C94.6649 58.2429 95.1473 57.9413 95.7012 57.7267C96.2551 57.5121 96.8566 57.4043 97.506 57.4034C98.1632 57.4024 98.7652 57.5084 99.312 57.7214C99.8668 57.9344 100.346 58.2346 100.751 58.622C101.164 59.0015 101.485 59.4524 101.716 59.9746C101.947 60.4969 102.063 61.0708 102.064 61.6964C102.065 62.314 101.952 62.8883 101.723 63.4192C101.494 63.9421 101.175 64.3979 100.764 64.7865C100.361 65.1672 99.8821 65.4649 99.3283 65.6795C98.7823 65.8941 98.1807 66.0019 97.5235 66.0028ZM100.247 67.7686C99.9224 67.7691 99.6136 67.7339 99.3204 67.6631C99.0352 67.5922 98.7499 67.4778 98.4645 67.3199C98.1871 67.1619 97.8936 66.9486 97.5843 66.6798C97.2828 66.411 96.9535 66.0789 96.5964 65.6835L98.6146 65.1698C98.829 65.4625 99.0274 65.6958 99.2099 65.8697C99.3923 66.0436 99.5668 66.1661 99.7332 66.2371C99.9076 66.3081 100.09 66.3435 100.28 66.3432C100.787 66.3425 101.238 66.1359 101.633 65.7236L102.49 66.7438C101.929 67.4256 101.181 67.7672 100.247 67.7686ZM97.5202 64.3637C97.8923 64.3632 98.2327 64.2993 98.5413 64.1722C98.8577 64.045 99.1345 63.8625 99.3716 63.6246C99.6087 63.3867 99.7902 63.1053 99.9162 62.7804C100.05 62.4477 100.117 62.0873 100.116 61.6993C100.115 61.3033 100.047 60.9431 99.9118 60.6187C99.7845 60.2942 99.6018 60.0134 99.3637 59.7762C99.1257 59.539 98.8482 59.3573 98.5312 59.231C98.2221 59.1048 97.8815 59.0419 97.5093 59.0425C97.1371 59.043 96.7928 59.1069 96.4763 59.234C96.1599 59.3612 95.8831 59.5437 95.646 59.7816C95.4169 60.0195 95.2353 60.3009 95.1013 60.6258C94.9753 60.9506 94.9127 61.311 94.9135 61.7069C94.9143 62.0949 94.9784 62.4551 95.1058 62.7875C95.241 63.112 95.4237 63.3928 95.6538 63.63C95.8919 63.8672 96.1694 64.049 96.4864 64.1752C96.8034 64.3014 97.148 64.3643 97.5202 64.3637ZM106.509 63.2458L106.506 61.7611L109.867 61.7562L109.87 63.2409L106.509 63.2458ZM117.132 65.974C116.554 65.9748 115.98 65.9004 115.41 65.7508C114.847 65.5933 114.364 65.3723 113.959 65.0878L114.716 63.6138C115.034 63.843 115.398 64.0246 115.81 64.1586C116.23 64.2926 116.654 64.3593 117.082 64.3587C117.565 64.358 117.945 64.2624 118.221 64.0719C118.498 63.8815 118.636 63.616 118.635 63.2755C118.635 63.0617 118.579 62.8717 118.468 62.7056C118.357 62.5395 118.159 62.4131 117.873 62.3264C117.596 62.2397 117.204 62.1967 116.697 62.1975L114.571 62.2006L114.989 57.5202L120.061 57.5127L120.064 59.0568L115.681 59.0632L116.677 58.1828L116.387 61.5209L115.387 60.6434L117.145 60.6408C117.969 60.6396 118.63 60.7535 119.13 60.9824C119.637 61.2033 120.006 61.5077 120.236 61.8953C120.467 62.283 120.582 62.7223 120.583 63.2132C120.584 63.7042 120.462 64.1597 120.218 64.5797C119.973 64.9918 119.594 65.3289 119.08 65.591C118.573 65.8452 117.924 65.9728 117.132 65.974ZM124.933 65.9625C124.252 65.9635 123.642 65.7981 123.103 65.4663C122.564 65.1266 122.139 64.6363 121.829 63.9953C121.519 63.3544 121.363 62.5786 121.361 61.668C121.359 60.7574 121.512 59.9811 121.819 59.3393C122.127 58.6974 122.549 58.2098 123.087 57.8764C123.625 57.5352 124.234 57.364 124.915 57.363C125.604 57.362 126.214 57.5313 126.746 57.8711C127.285 58.2028 127.709 58.6892 128.019 59.3301C128.33 59.9711 128.486 60.7469 128.487 61.6575C128.489 62.5681 128.336 63.3444 128.029 63.9862C127.721 64.6281 127.299 65.1196 126.761 65.4609C126.231 65.7943 125.622 65.9615 124.933 65.9625ZM124.93 64.3352C125.254 64.3348 125.535 64.2433 125.772 64.0608C126.017 63.8783 126.207 63.589 126.341 63.1929C126.482 62.7968 126.553 62.2859 126.551 61.6604C126.55 61.0348 126.478 60.5242 126.334 60.1284C126.199 59.7327 126.008 59.444 125.763 59.2622C125.525 59.0804 125.243 58.9898 124.919 58.9903C124.602 58.9907 124.321 59.0822 124.076 59.2647C123.839 59.4472 123.649 59.7365 123.508 60.1326C123.374 60.5287 123.307 61.0396 123.309 61.6651C123.31 62.2907 123.378 62.8013 123.514 63.1971C123.657 63.5928 123.848 63.8815 124.086 64.0633C124.332 64.2451 124.613 64.3357 124.93 64.3352ZM132.994 65.9506C132.313 65.9516 131.703 65.7862 131.164 65.4544C130.625 65.1147 130.2 64.6244 129.89 63.9835C129.58 63.3425 129.424 62.5668 129.422 61.6561C129.42 60.7455 129.573 59.9693 129.881 59.3274C130.188 58.6856 130.611 58.1979 131.149 57.8646C131.687 57.5233 132.296 57.3521 132.977 57.3511C133.666 57.3501 134.276 57.5195 134.807 57.8592C135.346 58.191 135.771 58.6773 136.081 59.3183C136.391 59.9592 136.547 60.735 136.549 61.6456C136.551 62.5563 136.398 63.3325 136.09 63.9744C135.783 64.6162 135.36 65.1078 134.823 65.4491C134.293 65.7824 133.683 65.9496 132.994 65.9506ZM132.991 64.3234C133.316 64.3229 133.597 64.2314 133.834 64.0489C134.079 63.8665 134.268 63.5771 134.402 63.181C134.544 62.7849 134.614 62.274 134.613 61.6485C134.612 61.0229 134.539 60.5123 134.396 60.1166C134.261 59.7208 134.07 59.4321 133.824 59.2503C133.586 59.0686 133.305 58.9779 132.98 58.9784C132.663 58.9789 132.383 59.0703 132.137 59.2528C131.9 59.4353 131.711 59.7246 131.569 60.1207C131.435 60.5169 131.369 61.0277 131.37 61.6533C131.372 62.2788 131.44 62.7895 131.575 63.1852C131.719 63.5809 131.909 63.8696 132.147 64.0514C132.393 64.2332 132.674 64.3238 132.991 64.3234ZM141.056 65.9388C140.375 65.9398 139.765 65.7744 139.226 65.4426C138.687 65.1029 138.262 64.6126 137.952 63.9716C137.642 63.3307 137.486 62.5549 137.484 61.6443C137.482 60.7336 137.635 59.9574 137.942 59.3155C138.25 58.6737 138.673 58.1861 139.21 57.8527C139.748 57.5114 140.357 57.3403 141.038 57.3393C141.727 57.3383 142.337 57.5076 142.869 57.8473C143.408 58.1791 143.832 58.6655 144.143 59.3064C144.453 59.9474 144.609 60.7231 144.611 61.6338C144.612 62.5444 144.46 63.3206 144.152 63.9625C143.845 64.6043 143.422 65.0959 142.884 65.4372C142.354 65.7706 141.745 65.9377 141.056 65.9388ZM141.053 64.3115C141.377 64.311 141.658 64.2195 141.895 64.0371C142.141 63.8546 142.33 63.5653 142.464 63.1692C142.606 62.773 142.676 62.2622 142.674 61.6366C142.673 61.0111 142.601 60.5004 142.458 60.1047C142.322 59.709 142.131 59.4202 141.886 59.2385C141.648 59.0567 141.366 58.966 141.042 58.9665C140.725 58.967 140.444 59.0585 140.199 59.241C139.962 59.4234 139.772 59.7127 139.631 60.1089C139.497 60.505 139.431 61.0158 139.432 61.6414C139.433 62.267 139.501 62.7776 139.637 63.1733C139.78 63.569 139.971 63.8578 140.209 64.0396C140.455 64.2213 140.736 64.312 141.053 64.3115ZM149.44 65.7839L149.423 57.4695L153.022 57.4642C153.767 57.4631 154.408 57.5849 154.947 57.8295C155.486 58.0663 155.903 58.4101 156.197 58.8611C156.49 59.312 156.638 59.8502 156.639 60.4758C156.641 61.0934 156.495 61.6282 156.203 62.0799C155.911 62.5317 155.496 62.8807 154.958 63.127C154.42 63.3654 153.779 63.4851 153.035 63.4862L150.505 63.4899L151.358 62.6216L151.365 65.781L149.44 65.7839ZM151.359 62.8354L150.501 61.922L152.925 61.9185C153.518 61.9176 153.962 61.7903 154.254 61.5364C154.547 61.2826 154.692 60.93 154.691 60.4787C154.69 60.0194 154.543 59.6633 154.25 59.4103C153.956 59.1574 153.513 59.0313 152.919 59.0322L150.496 59.0358L151.349 58.1199L151.359 62.8354ZM160.97 65.8619C160.281 65.8629 159.667 65.7253 159.128 65.4489C158.589 65.1646 158.165 64.7733 157.855 64.2749C157.553 63.7765 157.401 63.2105 157.4 62.577C157.399 61.9356 157.548 61.3692 157.848 60.8779C158.156 60.3785 158.579 59.9899 159.116 59.712C159.654 59.4261 160.268 59.2827 160.957 59.2817C161.63 59.2807 162.216 59.4223 162.715 59.7067C163.215 59.9831 163.584 60.3824 163.822 60.9047L162.387 61.6789C162.22 61.3782 162.01 61.1568 161.756 61.0146C161.51 60.8725 161.241 60.8016 160.948 60.802C160.631 60.8025 160.346 60.8742 160.093 61.0171C159.84 61.16 159.638 61.3622 159.489 61.6237C159.347 61.8853 159.276 62.2021 159.277 62.5743C159.277 62.9464 159.349 63.2631 159.492 63.5242C159.643 63.7853 159.846 63.9869 160.099 64.1291C160.353 64.2712 160.638 64.3421 160.955 64.3416C161.248 64.3412 161.517 64.2735 161.762 64.1385C162.015 63.9956 162.225 63.7696 162.39 63.4605L163.829 64.2423C163.593 64.7574 163.225 65.1578 162.727 65.4436C162.229 65.7215 161.643 65.8609 160.97 65.8619ZM167.049 65.853C166.503 65.8538 165.976 65.7912 165.469 65.6653C164.97 65.5314 164.574 65.3657 164.28 65.1681L164.895 63.8369C165.189 64.0186 165.533 64.1686 165.93 64.2868C166.334 64.397 166.73 64.4519 167.118 64.4513C167.545 64.4507 167.846 64.3988 168.02 64.2956C168.202 64.1924 168.293 64.0497 168.292 63.8676C168.292 63.7171 168.221 63.6064 168.078 63.5353C167.943 63.4563 167.761 63.3972 167.531 63.3579C167.301 63.3187 167.048 63.2795 166.771 63.2403C166.501 63.2011 166.228 63.15 165.951 63.0871C165.674 63.0162 165.42 62.9136 165.19 62.7794C164.96 62.6451 164.774 62.4632 164.631 62.2338C164.496 62.0044 164.428 61.7075 164.427 61.3433C164.426 60.9394 164.54 60.5829 164.769 60.2738C165.006 59.9646 165.346 59.7226 165.789 59.5477C166.232 59.365 166.763 59.2731 167.38 59.2722C167.816 59.2716 168.259 59.3184 168.711 59.4128C169.162 59.5071 169.539 59.6452 169.84 59.8268L169.225 61.1462C168.916 60.9645 168.603 60.8422 168.286 60.7793C167.977 60.7085 167.676 60.6733 167.383 60.6738C166.971 60.6744 166.671 60.7303 166.481 60.8414C166.291 60.9525 166.196 61.0952 166.197 61.2694C166.197 61.4278 166.265 61.5465 166.399 61.6254C166.542 61.7044 166.728 61.7675 166.958 61.8147C167.188 61.8618 167.437 61.905 167.706 61.9442C167.984 61.9755 168.261 62.0266 168.538 62.0974C168.816 62.1683 169.065 62.2708 169.287 62.4051C169.517 62.5315 169.704 62.7094 169.847 62.9388C169.989 63.1603 170.061 63.4532 170.062 63.8174C170.063 64.2134 169.945 64.5659 169.708 64.8751C169.471 65.1763 169.127 65.4144 168.676 65.5893C168.233 65.7641 167.691 65.852 167.049 65.853ZM172.247 68.0546L170.478 68.0572C170.99 67.1616 171.357 66.2624 171.577 65.3593C171.804 64.4484 171.917 63.494 171.915 62.4963C171.913 61.4986 171.797 60.5485 171.565 59.6461C171.341 58.7358 170.971 57.8337 170.455 56.9396L172.225 56.937C172.717 57.6411 173.091 58.4719 173.346 59.4297C173.602 60.3796 173.73 61.4009 173.733 62.4936C173.735 63.5864 173.61 64.608 173.359 65.5586C173.107 66.5013 172.737 67.3333 172.247 68.0546Z" fill="black"/>
<path d="M185.778 61.8789H222.236" stroke="url(#paint0_linear_2300_2)" stroke-width="0.863039"/>
<path d="M36.458 61.8838H0.000153303" stroke="url(#paint1_linear_2300_2)" stroke-width="0.863039"/>
<path d="M244.746 46.4357C243.926 45.1982 243.29 43.7698 242.838 42.1506C242.399 40.5177 242.178 38.762 242.174 36.8834C242.17 35.0049 242.384 33.2485 242.816 31.6144C243.262 29.9666 243.892 28.5363 244.707 27.3236L247.749 27.3191C246.895 28.8586 246.272 30.4114 245.88 31.9774C245.488 33.5298 245.294 35.1636 245.298 36.8788C245.301 38.594 245.502 40.2341 245.9 41.7989C246.298 43.3502 246.927 44.8943 247.788 46.4313L244.746 46.4357ZM254.466 42.7052C253.472 42.7066 252.485 42.5788 251.505 42.3216C250.538 42.0507 249.706 41.6708 249.011 41.1818L250.313 38.6479C250.858 39.0419 251.485 39.354 252.193 39.5844C252.915 39.8148 253.644 39.9294 254.379 39.9283C255.209 39.9271 255.862 39.7628 256.338 39.4354C256.814 39.108 257.051 38.6516 257.05 38.0662C257.049 37.6987 256.953 37.3721 256.762 37.0866C256.571 36.801 256.23 36.5837 255.74 36.4347C255.263 36.2856 254.589 36.2117 253.718 36.213L250.063 36.2184L250.781 28.1722L259.5 28.1594L259.506 30.8139L251.971 30.825L253.683 29.3114L253.185 35.0499L251.466 33.5414L254.488 33.537C255.904 33.5349 257.041 33.7306 257.899 34.1241C258.771 34.504 259.405 35.0272 259.802 35.6936C260.198 36.36 260.397 37.1152 260.398 37.9592C260.4 38.8032 260.191 39.5862 259.77 40.3083C259.35 41.0168 258.697 41.5963 257.813 42.0468C256.943 42.4837 255.827 42.7032 254.466 42.7052ZM274.761 42.6753C273.618 42.677 272.522 42.5289 271.473 42.2309C270.424 41.9194 269.579 41.519 268.938 41.0299L270.056 38.5372C270.67 38.9719 271.392 39.3315 272.223 39.6162C273.067 39.8872 273.919 40.0221 274.776 40.0208C275.43 40.0198 275.954 39.9578 276.348 39.8347C276.756 39.698 277.055 39.5138 277.245 39.2821C277.435 39.0504 277.53 38.7848 277.53 38.4853C277.529 38.1042 277.378 37.8049 277.079 37.5875C276.779 37.3566 276.383 37.1734 275.893 37.038C275.403 36.889 274.858 36.7536 274.259 36.632C273.673 36.4967 273.081 36.3343 272.481 36.1446C271.896 35.9548 271.357 35.7106 270.867 35.4119C270.376 35.1131 269.974 34.7189 269.66 34.2293C269.359 33.7397 269.208 33.1138 269.207 32.3514C269.205 31.5347 269.421 30.7925 269.855 30.1248C270.303 29.4435 270.969 28.9048 271.853 28.5088C272.751 28.0991 273.873 27.8932 275.221 27.8912C276.119 27.8899 277.005 27.9975 277.876 28.214C278.748 28.4169 279.518 28.7289 280.185 29.1499L279.17 31.663C278.502 31.2828 277.834 31.0047 277.167 30.8287C276.499 30.6391 275.846 30.5448 275.206 30.5457C274.566 30.5467 274.042 30.6223 273.634 30.7727C273.226 30.923 272.934 31.1208 272.757 31.3661C272.581 31.5978 272.493 31.8702 272.494 32.1833C272.494 32.5508 272.645 32.8501 272.945 33.081C273.245 33.2984 273.64 33.4748 274.13 33.6102C274.62 33.7456 275.158 33.8809 275.744 34.0162C276.343 34.1514 276.936 34.3071 277.521 34.4832C278.121 34.6593 278.666 34.8967 279.156 35.1955C279.647 35.4942 280.043 35.8884 280.343 36.378C280.657 36.8676 280.815 37.4868 280.817 38.2355C280.818 39.0386 280.595 39.774 280.147 40.4417C279.699 41.1094 279.027 41.6481 278.129 42.0578C277.245 42.4674 276.122 42.6733 274.761 42.6753ZM283.678 42.4171L283.655 31.4317L286.84 31.4271L286.863 42.4125L283.678 42.4171ZM285.245 29.898C284.659 29.8988 284.183 29.7294 283.814 29.3896C283.446 29.0498 283.261 28.6281 283.26 28.1244C283.259 27.6208 283.442 27.1985 283.809 26.8577C284.176 26.5168 284.652 26.3459 285.237 26.3451C285.823 26.3442 286.3 26.5069 286.668 26.833C287.036 27.1456 287.221 27.5537 287.222 28.0574C287.223 28.5882 287.04 29.0309 286.673 29.3854C286.32 29.7262 285.844 29.8971 285.245 29.898ZM295.353 42.5633C294.318 42.5648 293.386 42.3348 292.554 41.8732C291.723 41.398 291.061 40.7387 290.57 39.8955C290.091 39.0522 289.851 38.0588 289.849 36.9153C289.846 35.7583 290.083 34.7574 290.557 33.9127C291.046 33.068 291.705 32.4136 292.534 31.9496C293.363 31.4855 294.295 31.2527 295.33 31.2512C296.256 31.2498 297.066 31.4528 297.761 31.8602C298.456 32.2676 298.995 32.8861 299.378 33.7159C299.761 34.5458 299.954 35.6073 299.956 36.9005C299.959 38.18 299.777 39.2421 299.411 40.0866C299.046 40.9175 298.516 41.5377 297.822 41.9471C297.143 42.3565 296.32 42.5619 295.353 42.5633ZM295.899 39.9489C296.416 39.9481 296.886 39.8249 297.307 39.5793C297.729 39.3336 298.061 38.986 298.306 38.5364C298.563 38.0732 298.691 37.5285 298.69 36.9023C298.689 36.2625 298.558 35.7182 298.299 35.2694C298.053 34.8205 297.719 34.4739 297.296 34.2295C296.874 33.9851 296.404 33.8633 295.887 33.864C295.356 33.8648 294.88 33.988 294.458 34.2337C294.037 34.4793 293.697 34.8269 293.439 35.2765C293.195 35.7261 293.074 36.2708 293.075 36.9106C293.076 37.5368 293.2 38.0811 293.446 38.5436C293.705 38.9924 294.046 39.339 294.469 39.5834C294.891 39.8278 295.368 39.9496 295.899 39.9489ZM298.783 42.3949L298.779 40.1488L298.833 36.8817L298.622 33.6354L298.609 27.2442L301.795 27.2396L301.826 42.3904L298.783 42.3949ZM311.043 42.5402C309.79 42.5421 308.687 42.2987 307.733 41.81C306.793 41.3213 306.063 40.6554 305.544 39.8122C305.025 38.9553 304.765 37.9824 304.762 36.8934C304.76 35.7908 305.01 34.8171 305.512 33.9724C306.028 33.114 306.727 32.446 307.611 31.9682C308.495 31.4769 309.495 31.2304 310.611 31.2287C311.687 31.2271 312.654 31.4571 313.512 31.9187C314.384 32.3666 315.073 33.019 315.578 33.8759C316.084 34.7191 316.338 35.7329 316.34 36.9172C316.34 37.0397 316.334 37.1826 316.321 37.346C316.307 37.4958 316.294 37.6387 316.281 37.7749L307.358 37.788L307.354 35.9299L314.602 35.9192L313.378 36.4723C313.377 35.9006 313.261 35.4039 313.028 34.9822C312.796 34.5606 312.475 34.2344 312.067 34.0036C311.658 33.7591 311.181 33.6373 310.637 33.6381C310.092 33.6389 309.609 33.7621 309.188 34.0078C308.78 34.2398 308.46 34.5738 308.23 35.0097C307.999 35.4321 307.885 35.9359 307.886 36.5212L307.887 37.0113C307.888 37.6103 308.018 38.141 308.278 38.6034C308.551 39.0522 308.926 39.3988 309.403 39.6431C309.894 39.8738 310.466 39.9887 311.119 39.9877C311.704 39.9869 312.215 39.8976 312.65 39.72C313.099 39.5424 313.507 39.2763 313.874 38.9219L315.572 40.7571C315.07 41.3296 314.437 41.7729 313.676 42.0871C312.914 42.3877 312.036 42.5387 311.043 42.5402ZM321.073 46.3234L318.031 46.3279C318.912 44.7883 319.542 43.2424 319.92 41.69C320.312 40.1239 320.506 38.4833 320.502 36.7681C320.499 35.0529 320.298 33.4197 319.9 31.8684C319.516 30.3035 318.88 28.7526 317.992 27.2157L321.034 27.2112C321.881 28.4215 322.523 29.8499 322.962 31.4964C323.401 33.1293 323.623 34.885 323.627 36.7635C323.63 38.6421 323.416 40.3984 322.984 42.0326C322.552 43.6531 321.915 45.0834 321.073 46.3234Z" fill="#490606"/>
<defs>
<linearGradient id="paint0_linear_2300_2" x1="216.767" y1="62.3789" x2="186.386" y2="62.3789" gradientUnits="userSpaceOnUse">
<stop stop-color="#666666" stop-opacity="0"/>
<stop offset="1"/>
</linearGradient>
<linearGradient id="paint1_linear_2300_2" x1="5.46883" y1="62.3838" x2="35.8504" y2="62.3838" gradientUnits="userSpaceOnUse">
<stop stop-color="#666666" stop-opacity="0"/>
<stop offset="1"/>
</linearGradient>
</defs>
</svg>
