<svg width="319" height="38" viewBox="0 0 319 38" fill="none" xmlns="http://www.w3.org/2000/svg">
<path d="M13.1452 14.084C12.4172 14.084 11.7172 13.9673 11.0452 13.734C10.3825 13.4913 9.86915 13.1833 9.50515 12.81L9.91115 12.012C10.2565 12.348 10.7185 12.6327 11.2972 12.866C11.8852 13.09 12.5012 13.202 13.1452 13.202C13.7612 13.202 14.2605 13.1273 14.6432 12.978C15.0352 12.8193 15.3198 12.6093 15.4972 12.348C15.6838 12.0867 15.7772 11.7973 15.7772 11.48C15.7772 11.0973 15.6652 10.7893 15.4412 10.556C15.2265 10.3227 14.9418 10.1407 14.5872 10.01C14.2325 9.87 13.8405 9.74867 13.4112 9.646C12.9818 9.54333 12.5525 9.436 12.1232 9.324C11.6938 9.20267 11.2972 9.044 10.9332 8.848C10.5785 8.652 10.2892 8.39533 10.0652 8.078C9.85049 7.75133 9.74315 7.32667 9.74315 6.804C9.74315 6.31867 9.86915 5.87533 10.1212 5.474C10.3825 5.06333 10.7792 4.73667 11.3112 4.494C11.8432 4.242 12.5245 4.116 13.3552 4.116C13.9058 4.116 14.4518 4.19533 14.9932 4.354C15.5345 4.50333 16.0012 4.71333 16.3932 4.984L16.0432 5.81C15.6232 5.53 15.1752 5.32467 14.6992 5.194C14.2325 5.06333 13.7798 4.998 13.3412 4.998C12.7532 4.998 12.2678 5.07733 11.8852 5.236C11.5025 5.39467 11.2178 5.60933 11.0312 5.88C10.8538 6.14133 10.7652 6.44 10.7652 6.776C10.7652 7.15867 10.8725 7.46667 11.0872 7.7C11.3112 7.93333 11.6005 8.11533 11.9552 8.246C12.3192 8.37667 12.7158 8.49333 13.1452 8.596C13.5745 8.69867 13.9992 8.81067 14.4192 8.932C14.8485 9.05333 15.2405 9.212 15.5952 9.408C15.9592 9.59467 16.2485 9.84667 16.4632 10.164C16.6872 10.4813 16.7992 10.8967 16.7992 11.41C16.7992 11.886 16.6685 12.3293 16.4072 12.74C16.1458 13.1413 15.7445 13.468 15.2032 13.72C14.6712 13.9627 13.9852 14.084 13.1452 14.084ZM21.1704 14.07C20.4798 14.07 19.9478 13.8833 19.5744 13.51C19.2011 13.1367 19.0144 12.6093 19.0144 11.928V5.026H20.0084V11.872C20.0084 12.3013 20.1158 12.6327 20.3304 12.866C20.5544 13.0993 20.8718 13.216 21.2824 13.216C21.7211 13.216 22.0851 13.09 22.3744 12.838L22.7244 13.552C22.5284 13.7293 22.2904 13.86 22.0104 13.944C21.7398 14.028 21.4598 14.07 21.1704 14.07ZM17.6984 7.476V6.65H22.2484V7.476H17.6984ZM29.1399 14V12.376L29.0979 12.11V9.394C29.0979 8.76867 28.9206 8.288 28.5659 7.952C28.2206 7.616 27.7026 7.448 27.0119 7.448C26.5359 7.448 26.0833 7.52733 25.6539 7.686C25.2246 7.84467 24.8606 8.05467 24.5619 8.316L24.1139 7.574C24.4873 7.25667 24.9353 7.014 25.4579 6.846C25.9806 6.66867 26.5313 6.58 27.1099 6.58C28.0619 6.58 28.7946 6.818 29.3079 7.294C29.8306 7.76067 30.0919 8.47467 30.0919 9.436V14H29.1399ZM26.6059 14.07C26.0553 14.07 25.5746 13.9813 25.1639 13.804C24.7626 13.6173 24.4546 13.3653 24.2399 13.048C24.0253 12.7213 23.9179 12.348 23.9179 11.928C23.9179 11.5453 24.0066 11.2 24.1839 10.892C24.3706 10.5747 24.6693 10.3227 25.0799 10.136C25.4999 9.94 26.0599 9.842 26.7599 9.842H29.2939V10.584H26.7879C26.0786 10.584 25.5839 10.71 25.3039 10.962C25.0333 11.214 24.8979 11.5267 24.8979 11.9C24.8979 12.32 25.0613 12.656 25.3879 12.908C25.7146 13.16 26.1719 13.286 26.7599 13.286C27.3199 13.286 27.8006 13.16 28.2019 12.908C28.6126 12.6467 28.9113 12.2733 29.0979 11.788L29.3219 12.474C29.1353 12.9593 28.8086 13.3467 28.3419 13.636C27.8846 13.9253 27.3059 14.07 26.6059 14.07ZM36.5437 6.58C37.1411 6.58 37.6637 6.69667 38.1117 6.93C38.5691 7.154 38.9237 7.49933 39.1757 7.966C39.4371 8.43267 39.5677 9.02067 39.5677 9.73V14H38.5737V9.828C38.5737 9.05333 38.3777 8.47 37.9857 8.078C37.6031 7.67667 37.0617 7.476 36.3617 7.476C35.8391 7.476 35.3817 7.58333 34.9897 7.798C34.6071 8.00333 34.3084 8.30667 34.0937 8.708C33.8884 9.1 33.7857 9.576 33.7857 10.136V14H32.7917V6.65H33.7437V8.666L33.5897 8.288C33.8231 7.756 34.1964 7.34067 34.7097 7.042C35.2231 6.734 35.8344 6.58 36.5437 6.58ZM45.1787 14.07C44.4787 14.07 43.8487 13.9113 43.2887 13.594C42.738 13.2767 42.304 12.838 41.9867 12.278C41.6694 11.7087 41.5107 11.0553 41.5107 10.318C41.5107 9.57133 41.6694 8.918 41.9867 8.358C42.304 7.798 42.738 7.364 43.2887 7.056C43.8487 6.73867 44.4787 6.58 45.1787 6.58C45.8227 6.58 46.3967 6.72467 46.9007 7.014C47.414 7.30333 47.82 7.728 48.1187 8.288C48.4267 8.83867 48.5807 9.51533 48.5807 10.318C48.5807 11.1113 48.4314 11.788 48.1327 12.348C47.834 12.908 47.428 13.3373 46.9147 13.636C46.4107 13.9253 45.832 14.07 45.1787 14.07ZM45.2487 13.188C45.7714 13.188 46.238 13.0713 46.6487 12.838C47.0687 12.5953 47.3954 12.2593 47.6287 11.83C47.8714 11.3913 47.9927 10.8873 47.9927 10.318C47.9927 9.73933 47.8714 9.23533 47.6287 8.806C47.3954 8.37667 47.0687 8.04533 46.6487 7.812C46.238 7.56933 45.7714 7.448 45.2487 7.448C44.7354 7.448 44.2734 7.56933 43.8627 7.812C43.452 8.04533 43.1254 8.37667 42.8827 8.806C42.64 9.23533 42.5187 9.73933 42.5187 10.318C42.5187 10.8873 42.64 11.3913 42.8827 11.83C43.1254 12.2593 43.452 12.5953 43.8627 12.838C44.2734 13.0713 44.7354 13.188 45.2487 13.188ZM48.0207 14V11.788L48.1187 10.304L47.9787 8.82V3.612H48.9727V14H48.0207ZM56.347 14V12.376L56.305 12.11V9.394C56.305 8.76867 56.1276 8.288 55.773 7.952C55.4276 7.616 54.9096 7.448 54.219 7.448C53.743 7.448 53.2903 7.52733 52.861 7.686C52.4316 7.84467 52.0676 8.05467 51.769 8.316L51.321 7.574C51.6943 7.25667 52.1423 7.014 52.665 6.846C53.1876 6.66867 53.7383 6.58 54.317 6.58C55.269 6.58 56.0016 6.818 56.515 7.294C57.0376 7.76067 57.299 8.47467 57.299 9.436V14H56.347ZM53.813 14.07C53.2623 14.07 52.7816 13.9813 52.371 13.804C51.9696 13.6173 51.6616 13.3653 51.447 13.048C51.2323 12.7213 51.125 12.348 51.125 11.928C51.125 11.5453 51.2136 11.2 51.391 10.892C51.5776 10.5747 51.8763 10.3227 52.287 10.136C52.707 9.94 53.267 9.842 53.967 9.842H56.501V10.584H53.995C53.2856 10.584 52.791 10.71 52.511 10.962C52.2403 11.214 52.105 11.5267 52.105 11.9C52.105 12.32 52.2683 12.656 52.595 12.908C52.9216 13.16 53.379 13.286 53.967 13.286C54.527 13.286 55.0076 13.16 55.409 12.908C55.8196 12.6467 56.1183 12.2733 56.305 11.788L56.529 12.474C56.3423 12.9593 56.0156 13.3467 55.549 13.636C55.0916 13.9253 54.513 14.07 53.813 14.07ZM59.9988 14V6.65H60.9508V8.652L60.8528 8.302C61.0581 7.742 61.4034 7.31733 61.8888 7.028C62.3741 6.72933 62.9761 6.58 63.6948 6.58V7.546C63.6574 7.546 63.6201 7.546 63.5828 7.546C63.5454 7.53667 63.5081 7.532 63.4708 7.532C62.6961 7.532 62.0894 7.77 61.6508 8.246C61.2121 8.71267 60.9928 9.38 60.9928 10.248V14H59.9988ZM68.3662 14.07C67.6662 14.07 67.0362 13.9113 66.4762 13.594C65.9255 13.2767 65.4915 12.838 65.1742 12.278C64.8569 11.7087 64.6982 11.0553 64.6982 10.318C64.6982 9.57133 64.8569 8.918 65.1742 8.358C65.4915 7.798 65.9255 7.364 66.4762 7.056C67.0362 6.73867 67.6662 6.58 68.3662 6.58C69.0102 6.58 69.5842 6.72467 70.0882 7.014C70.6015 7.30333 71.0075 7.728 71.3062 8.288C71.6142 8.83867 71.7682 9.51533 71.7682 10.318C71.7682 11.1113 71.6189 11.788 71.3202 12.348C71.0215 12.908 70.6155 13.3373 70.1022 13.636C69.5982 13.9253 69.0195 14.07 68.3662 14.07ZM68.4362 13.188C68.9589 13.188 69.4255 13.0713 69.8362 12.838C70.2562 12.5953 70.5829 12.2593 70.8162 11.83C71.0589 11.3913 71.1802 10.8873 71.1802 10.318C71.1802 9.73933 71.0589 9.23533 70.8162 8.806C70.5829 8.37667 70.2562 8.04533 69.8362 7.812C69.4255 7.56933 68.9589 7.448 68.4362 7.448C67.9229 7.448 67.4609 7.56933 67.0502 7.812C66.6395 8.04533 66.3129 8.37667 66.0702 8.806C65.8275 9.23533 65.7062 9.73933 65.7062 10.318C65.7062 10.8873 65.8275 11.3913 66.0702 11.83C66.3129 12.2593 66.6395 12.5953 67.0502 12.838C67.4609 13.0713 67.9229 13.188 68.4362 13.188ZM71.2082 14V11.788L71.3062 10.304L71.1662 8.82V3.612H72.1602V14H71.2082ZM80.9165 14.07C80.2259 14.07 79.6939 13.8833 79.3205 13.51C78.9472 13.1367 78.7605 12.6093 78.7605 11.928V5.026H79.7545V11.872C79.7545 12.3013 79.8619 12.6327 80.0765 12.866C80.3005 13.0993 80.6179 13.216 81.0285 13.216C81.4672 13.216 81.8312 13.09 82.1205 12.838L82.4705 13.552C82.2745 13.7293 82.0365 13.86 81.7565 13.944C81.4859 14.028 81.2059 14.07 80.9165 14.07ZM77.4445 7.476V6.65H81.9945V7.476H77.4445ZM88.886 14V12.376L88.844 12.11V9.394C88.844 8.76867 88.6667 8.288 88.312 7.952C87.9667 7.616 87.4487 7.448 86.758 7.448C86.282 7.448 85.8294 7.52733 85.4 7.686C84.9707 7.84467 84.6067 8.05467 84.308 8.316L83.86 7.574C84.2334 7.25667 84.6814 7.014 85.204 6.846C85.7267 6.66867 86.2774 6.58 86.856 6.58C87.808 6.58 88.5407 6.818 89.054 7.294C89.5767 7.76067 89.838 8.47467 89.838 9.436V14H88.886ZM86.352 14.07C85.8014 14.07 85.3207 13.9813 84.91 13.804C84.5087 13.6173 84.2007 13.3653 83.986 13.048C83.7714 12.7213 83.664 12.348 83.664 11.928C83.664 11.5453 83.7527 11.2 83.93 10.892C84.1167 10.5747 84.4154 10.3227 84.826 10.136C85.246 9.94 85.806 9.842 86.506 9.842H89.04V10.584H86.534C85.8247 10.584 85.33 10.71 85.05 10.962C84.7794 11.214 84.644 11.5267 84.644 11.9C84.644 12.32 84.8074 12.656 85.134 12.908C85.4607 13.16 85.918 13.286 86.506 13.286C87.066 13.286 87.5467 13.16 87.948 12.908C88.3587 12.6467 88.6574 12.2733 88.844 11.788L89.068 12.474C88.8814 12.9593 88.5547 13.3467 88.088 13.636C87.6307 13.9253 87.052 14.07 86.352 14.07ZM101.722 6.58C102.319 6.58 102.837 6.69667 103.276 6.93C103.724 7.154 104.069 7.49933 104.312 7.966C104.564 8.43267 104.69 9.02067 104.69 9.73V14H103.696V9.828C103.696 9.05333 103.509 8.47 103.136 8.078C102.772 7.67667 102.254 7.476 101.582 7.476C101.078 7.476 100.639 7.58333 100.266 7.798C99.9018 8.00333 99.6172 8.30667 99.4118 8.708C99.2158 9.1 99.1178 9.576 99.1178 10.136V14H98.1238V9.828C98.1238 9.05333 97.9372 8.47 97.5638 8.078C97.1905 7.67667 96.6678 7.476 95.9958 7.476C95.5012 7.476 95.0672 7.58333 94.6938 7.798C94.3205 8.00333 94.0312 8.30667 93.8258 8.708C93.6298 9.1 93.5318 9.576 93.5318 10.136V14H92.5378V6.65H93.4898V8.638L93.3358 8.288C93.5598 7.756 93.9192 7.34067 94.4138 7.042C94.9178 6.734 95.5105 6.58 96.1918 6.58C96.9105 6.58 97.5218 6.762 98.0258 7.126C98.5298 7.48067 98.8565 8.01733 99.0058 8.736L98.6138 8.582C98.8285 7.98467 99.2065 7.504 99.7478 7.14C100.299 6.76667 100.957 6.58 101.722 6.58ZM111.179 14.07C110.545 14.07 109.971 13.9253 109.457 13.636C108.944 13.3373 108.533 12.9127 108.225 12.362C107.927 11.802 107.777 11.1207 107.777 10.318C107.777 9.51533 107.927 8.83867 108.225 8.288C108.524 7.728 108.93 7.30333 109.443 7.014C109.957 6.72467 110.535 6.58 111.179 6.58C111.879 6.58 112.505 6.73867 113.055 7.056C113.615 7.364 114.054 7.80267 114.371 8.372C114.689 8.932 114.847 9.58067 114.847 10.318C114.847 11.0647 114.689 11.718 114.371 12.278C114.054 12.838 113.615 13.2767 113.055 13.594C112.505 13.9113 111.879 14.07 111.179 14.07ZM107.385 16.716V6.65H108.337V8.862L108.239 10.332L108.379 11.816V16.716H107.385ZM111.109 13.188C111.632 13.188 112.099 13.0713 112.509 12.838C112.92 12.5953 113.247 12.2593 113.489 11.83C113.732 11.3913 113.853 10.8873 113.853 10.318C113.853 9.74867 113.732 9.24933 113.489 8.82C113.247 8.39067 112.92 8.05467 112.509 7.812C112.099 7.56933 111.632 7.448 111.109 7.448C110.587 7.448 110.115 7.56933 109.695 7.812C109.285 8.05467 108.958 8.39067 108.715 8.82C108.482 9.24933 108.365 9.74867 108.365 10.318C108.365 10.8873 108.482 11.3913 108.715 11.83C108.958 12.2593 109.285 12.5953 109.695 12.838C110.115 13.0713 110.587 13.188 111.109 13.188ZM119.996 14.07C119.23 14.07 118.558 13.9113 117.98 13.594C117.401 13.2673 116.948 12.824 116.622 12.264C116.295 11.6947 116.132 11.046 116.132 10.318C116.132 9.59 116.286 8.946 116.594 8.386C116.911 7.826 117.34 7.38733 117.882 7.07C118.432 6.74333 119.048 6.58 119.73 6.58C120.42 6.58 121.032 6.73867 121.564 7.056C122.105 7.364 122.53 7.80267 122.838 8.372C123.146 8.932 123.3 9.58067 123.3 10.318C123.3 10.3647 123.295 10.416 123.286 10.472C123.286 10.5187 123.286 10.57 123.286 10.626H116.888V9.884H122.754L122.362 10.178C122.362 9.646 122.245 9.17467 122.012 8.764C121.788 8.344 121.48 8.01733 121.088 7.784C120.696 7.55067 120.243 7.434 119.73 7.434C119.226 7.434 118.773 7.55067 118.372 7.784C117.97 8.01733 117.658 8.344 117.434 8.764C117.21 9.184 117.098 9.66467 117.098 10.206V10.36C117.098 10.92 117.219 11.4147 117.462 11.844C117.714 12.264 118.059 12.5953 118.498 12.838C118.946 13.0713 119.454 13.188 120.024 13.188C120.472 13.188 120.887 13.1087 121.27 12.95C121.662 12.7913 121.998 12.5487 122.278 12.222L122.838 12.866C122.511 13.258 122.1 13.5567 121.606 13.762C121.12 13.9673 120.584 14.07 119.996 14.07ZM125.323 14V6.65H126.275V8.652L126.177 8.302C126.382 7.742 126.728 7.31733 127.213 7.028C127.698 6.72933 128.3 6.58 129.019 6.58V7.546C128.982 7.546 128.944 7.546 128.907 7.546C128.87 7.53667 128.832 7.532 128.795 7.532C128.02 7.532 127.414 7.77 126.975 8.246C126.536 8.71267 126.317 9.38 126.317 10.248V14H125.323ZM130.246 10.64V9.772H133.914V10.64H130.246ZM139.396 14.07C138.631 14.07 137.959 13.9113 137.38 13.594C136.802 13.2673 136.349 12.824 136.022 12.264C135.696 11.6947 135.532 11.046 135.532 10.318C135.532 9.59 135.686 8.946 135.994 8.386C136.312 7.826 136.741 7.38733 137.282 7.07C137.833 6.74333 138.449 6.58 139.13 6.58C139.821 6.58 140.432 6.73867 140.964 7.056C141.506 7.364 141.93 7.80267 142.238 8.372C142.546 8.932 142.7 9.58067 142.7 10.318C142.7 10.3647 142.696 10.416 142.686 10.472C142.686 10.5187 142.686 10.57 142.686 10.626H136.288V9.884H142.154L141.762 10.178C141.762 9.646 141.646 9.17467 141.412 8.764C141.188 8.344 140.88 8.01733 140.488 7.784C140.096 7.55067 139.644 7.434 139.13 7.434C138.626 7.434 138.174 7.55067 137.772 7.784C137.371 8.01733 137.058 8.344 136.834 8.764C136.61 9.184 136.498 9.66467 136.498 10.206V10.36C136.498 10.92 136.62 11.4147 136.862 11.844C137.114 12.264 137.46 12.5953 137.898 12.838C138.346 13.0713 138.855 13.188 139.424 13.188C139.872 13.188 140.288 13.1087 140.67 12.95C141.062 12.7913 141.398 12.5487 141.678 12.222L142.238 12.866C141.912 13.258 141.501 13.5567 141.006 13.762C140.521 13.9673 139.984 14.07 139.396 14.07ZM146.477 14L143.215 6.65H144.251L147.247 13.468H146.757L149.795 6.65H150.775L147.499 14H146.477ZM152.175 14V6.65H153.169V14H152.175ZM152.679 5.026C152.473 5.026 152.301 4.956 152.161 4.816C152.021 4.676 151.951 4.508 151.951 4.312C151.951 4.116 152.021 3.95267 152.161 3.822C152.301 3.682 152.473 3.612 152.679 3.612C152.884 3.612 153.057 3.67733 153.197 3.808C153.337 3.93867 153.407 4.102 153.407 4.298C153.407 4.50333 153.337 4.676 153.197 4.816C153.066 4.956 152.893 5.026 152.679 5.026ZM158.86 14.07C158.16 14.07 157.53 13.9113 156.97 13.594C156.42 13.2767 155.986 12.838 155.668 12.278C155.351 11.7087 155.192 11.0553 155.192 10.318C155.192 9.57133 155.351 8.918 155.668 8.358C155.986 7.798 156.42 7.364 156.97 7.056C157.53 6.73867 158.16 6.58 158.86 6.58C159.504 6.58 160.078 6.72467 160.582 7.014C161.096 7.30333 161.502 7.728 161.8 8.288C162.108 8.83867 162.262 9.51533 162.262 10.318C162.262 11.1113 162.113 11.788 161.814 12.348C161.516 12.908 161.11 13.3373 160.596 13.636C160.092 13.9253 159.514 14.07 158.86 14.07ZM158.93 13.188C159.453 13.188 159.92 13.0713 160.33 12.838C160.75 12.5953 161.077 12.2593 161.31 11.83C161.553 11.3913 161.674 10.8873 161.674 10.318C161.674 9.73933 161.553 9.23533 161.31 8.806C161.077 8.37667 160.75 8.04533 160.33 7.812C159.92 7.56933 159.453 7.448 158.93 7.448C158.417 7.448 157.955 7.56933 157.544 7.812C157.134 8.04533 156.807 8.37667 156.564 8.806C156.322 9.23533 156.2 9.73933 156.2 10.318C156.2 10.8873 156.322 11.3913 156.564 11.83C156.807 12.2593 157.134 12.5953 157.544 12.838C157.955 13.0713 158.417 13.188 158.93 13.188ZM161.702 14V11.788L161.8 10.304L161.66 8.82V3.612H162.654V14H161.702ZM168.545 14.07C167.779 14.07 167.107 13.9113 166.529 13.594C165.95 13.2673 165.497 12.824 165.171 12.264C164.844 11.6947 164.681 11.046 164.681 10.318C164.681 9.59 164.835 8.946 165.143 8.386C165.46 7.826 165.889 7.38733 166.431 7.07C166.981 6.74333 167.597 6.58 168.279 6.58C168.969 6.58 169.581 6.73867 170.113 7.056C170.654 7.364 171.079 7.80267 171.387 8.372C171.695 8.932 171.849 9.58067 171.849 10.318C171.849 10.3647 171.844 10.416 171.835 10.472C171.835 10.5187 171.835 10.57 171.835 10.626H165.437V9.884H171.303L170.911 10.178C170.911 9.646 170.794 9.17467 170.561 8.764C170.337 8.344 170.029 8.01733 169.637 7.784C169.245 7.55067 168.792 7.434 168.279 7.434C167.775 7.434 167.322 7.55067 166.921 7.784C166.519 8.01733 166.207 8.344 165.983 8.764C165.759 9.184 165.647 9.66467 165.647 10.206V10.36C165.647 10.92 165.768 11.4147 166.011 11.844C166.263 12.264 166.608 12.5953 167.047 12.838C167.495 13.0713 168.003 13.188 168.573 13.188C169.021 13.188 169.436 13.1087 169.819 12.95C170.211 12.7913 170.547 12.5487 170.827 12.222L171.387 12.866C171.06 13.258 170.649 13.5567 170.155 13.762C169.669 13.9673 169.133 14.07 168.545 14.07ZM177.624 6.58C178.221 6.58 178.744 6.69667 179.192 6.93C179.649 7.154 180.004 7.49933 180.256 7.966C180.517 8.43267 180.648 9.02067 180.648 9.73V14H179.654V9.828C179.654 9.05333 179.458 8.47 179.066 8.078C178.683 7.67667 178.142 7.476 177.442 7.476C176.919 7.476 176.462 7.58333 176.07 7.798C175.687 8.00333 175.388 8.30667 175.174 8.708C174.968 9.1 174.866 9.576 174.866 10.136V14H173.872V6.65H174.824V8.666L174.67 8.288C174.903 7.756 175.276 7.34067 175.79 7.042C176.303 6.734 176.914 6.58 177.624 6.58ZM185.657 14.07C184.966 14.07 184.434 13.8833 184.061 13.51C183.687 13.1367 183.501 12.6093 183.501 11.928V5.026H184.495V11.872C184.495 12.3013 184.602 12.6327 184.817 12.866C185.041 13.0993 185.358 13.216 185.769 13.216C186.207 13.216 186.571 13.09 186.861 12.838L187.211 13.552C187.015 13.7293 186.777 13.86 186.497 13.944C186.226 14.028 185.946 14.07 185.657 14.07ZM182.185 7.476V6.65H186.735V7.476H182.185ZM196.478 14.07C195.834 14.07 195.256 13.9253 194.742 13.636C194.229 13.3373 193.823 12.908 193.524 12.348C193.226 11.788 193.076 11.1113 193.076 10.318C193.076 9.51533 193.226 8.83867 193.524 8.288C193.832 7.728 194.243 7.30333 194.756 7.014C195.27 6.72467 195.844 6.58 196.478 6.58C197.178 6.58 197.804 6.73867 198.354 7.056C198.914 7.364 199.353 7.798 199.67 8.358C199.988 8.918 200.146 9.57133 200.146 10.318C200.146 11.0553 199.988 11.7087 199.67 12.278C199.353 12.838 198.914 13.2767 198.354 13.594C197.804 13.9113 197.178 14.07 196.478 14.07ZM192.684 14V3.612H193.678V8.82L193.538 10.304L193.636 11.788V14H192.684ZM196.408 13.188C196.931 13.188 197.398 13.0713 197.808 12.838C198.219 12.5953 198.546 12.2593 198.788 11.83C199.031 11.3913 199.152 10.8873 199.152 10.318C199.152 9.73933 199.031 9.23533 198.788 8.806C198.546 8.37667 198.219 8.04533 197.808 7.812C197.398 7.56933 196.931 7.448 196.408 7.448C195.886 7.448 195.414 7.56933 194.994 7.812C194.584 8.04533 194.257 8.37667 194.014 8.806C193.781 9.23533 193.664 9.73933 193.664 10.318C193.664 10.8873 193.781 11.3913 194.014 11.83C194.257 12.2593 194.584 12.5953 194.994 12.838C195.414 13.0713 195.886 13.188 196.408 13.188ZM205.169 14.07C204.459 14.07 203.82 13.9113 203.251 13.594C202.691 13.2673 202.247 12.824 201.921 12.264C201.594 11.6947 201.431 11.046 201.431 10.318C201.431 9.58067 201.594 8.932 201.921 8.372C202.247 7.812 202.691 7.37333 203.251 7.056C203.811 6.73867 204.45 6.58 205.169 6.58C205.897 6.58 206.541 6.73867 207.101 7.056C207.67 7.37333 208.113 7.812 208.431 8.372C208.757 8.932 208.921 9.58067 208.921 10.318C208.921 11.046 208.757 11.6947 208.431 12.264C208.113 12.824 207.67 13.2673 207.101 13.594C206.531 13.9113 205.887 14.07 205.169 14.07ZM205.169 13.188C205.701 13.188 206.172 13.0713 206.583 12.838C206.993 12.5953 207.315 12.2593 207.549 11.83C207.791 11.3913 207.913 10.8873 207.913 10.318C207.913 9.73933 207.791 9.23533 207.549 8.806C207.315 8.37667 206.993 8.04533 206.583 7.812C206.172 7.56933 205.705 7.448 205.183 7.448C204.66 7.448 204.193 7.56933 203.783 7.812C203.372 8.04533 203.045 8.37667 202.803 8.806C202.56 9.23533 202.439 9.73933 202.439 10.318C202.439 10.8873 202.56 11.3913 202.803 11.83C203.045 12.2593 203.372 12.5953 203.783 12.838C204.193 13.0713 204.655 13.188 205.169 13.188ZM209.57 14L212.678 9.968L212.664 10.458L209.71 6.65H210.83L213.252 9.8L212.832 9.786L215.254 6.65H216.346L213.364 10.5L213.378 9.968L216.514 14H215.38L212.818 10.64L213.21 10.696L210.69 14H209.57ZM221.833 14V6.65H222.827V14H221.833ZM222.337 5.026C222.131 5.026 221.959 4.956 221.819 4.816C221.679 4.676 221.609 4.508 221.609 4.312C221.609 4.116 221.679 3.95267 221.819 3.822C221.959 3.682 222.131 3.612 222.337 3.612C222.542 3.612 222.715 3.67733 222.855 3.808C222.995 3.93867 223.065 4.102 223.065 4.298C223.065 4.50333 222.995 4.676 222.855 4.816C222.724 4.956 222.551 5.026 222.337 5.026ZM228.519 14.07C227.819 14.07 227.189 13.9113 226.629 13.594C226.078 13.2767 225.644 12.838 225.327 12.278C225.009 11.7087 224.851 11.0553 224.851 10.318C224.851 9.57133 225.009 8.918 225.327 8.358C225.644 7.798 226.078 7.364 226.629 7.056C227.189 6.73867 227.819 6.58 228.519 6.58C229.163 6.58 229.737 6.72467 230.241 7.014C230.754 7.30333 231.16 7.728 231.459 8.288C231.767 8.83867 231.921 9.51533 231.921 10.318C231.921 11.1113 231.771 11.788 231.473 12.348C231.174 12.908 230.768 13.3373 230.255 13.636C229.751 13.9253 229.172 14.07 228.519 14.07ZM228.589 13.188C229.111 13.188 229.578 13.0713 229.989 12.838C230.409 12.5953 230.735 12.2593 230.969 11.83C231.211 11.3913 231.333 10.8873 231.333 10.318C231.333 9.73933 231.211 9.23533 230.969 8.806C230.735 8.37667 230.409 8.04533 229.989 7.812C229.578 7.56933 229.111 7.448 228.589 7.448C228.075 7.448 227.613 7.56933 227.203 7.812C226.792 8.04533 226.465 8.37667 226.223 8.806C225.98 9.23533 225.859 9.73933 225.859 10.318C225.859 10.8873 225.98 11.3913 226.223 11.83C226.465 12.2593 226.792 12.5953 227.203 12.838C227.613 13.0713 228.075 13.188 228.589 13.188ZM231.361 14V11.788L231.459 10.304L231.319 8.82V3.612H232.313V14H231.361ZM238.203 14.07C237.437 14.07 236.765 13.9113 236.187 13.594C235.608 13.2673 235.155 12.824 234.829 12.264C234.502 11.6947 234.339 11.046 234.339 10.318C234.339 9.59 234.493 8.946 234.801 8.386C235.118 7.826 235.547 7.38733 236.089 7.07C236.639 6.74333 237.255 6.58 237.937 6.58C238.627 6.58 239.239 6.73867 239.771 7.056C240.312 7.364 240.737 7.80267 241.045 8.372C241.353 8.932 241.507 9.58067 241.507 10.318C241.507 10.3647 241.502 10.416 241.493 10.472C241.493 10.5187 241.493 10.57 241.493 10.626H235.095V9.884H240.961L240.569 10.178C240.569 9.646 240.452 9.17467 240.219 8.764C239.995 8.344 239.687 8.01733 239.295 7.784C238.903 7.55067 238.45 7.434 237.937 7.434C237.433 7.434 236.98 7.55067 236.579 7.784C236.177 8.01733 235.865 8.344 235.641 8.764C235.417 9.184 235.305 9.66467 235.305 10.206V10.36C235.305 10.92 235.426 11.4147 235.669 11.844C235.921 12.264 236.266 12.5953 236.705 12.838C237.153 13.0713 237.661 13.188 238.231 13.188C238.679 13.188 239.094 13.1087 239.477 12.95C239.869 12.7913 240.205 12.5487 240.485 12.222L241.045 12.866C240.718 13.258 240.307 13.5567 239.813 13.762C239.327 13.9673 238.791 14.07 238.203 14.07ZM247.931 14V12.376L247.889 12.11V9.394C247.889 8.76867 247.712 8.288 247.357 7.952C247.012 7.616 246.494 7.448 245.803 7.448C245.327 7.448 244.874 7.52733 244.445 7.686C244.016 7.84467 243.652 8.05467 243.353 8.316L242.905 7.574C243.278 7.25667 243.726 7.014 244.249 6.846C244.772 6.66867 245.322 6.58 245.901 6.58C246.853 6.58 247.586 6.818 248.099 7.294C248.622 7.76067 248.883 8.47467 248.883 9.436V14H247.931ZM245.397 14.07C244.846 14.07 244.366 13.9813 243.955 13.804C243.554 13.6173 243.246 13.3653 243.031 13.048C242.816 12.7213 242.709 12.348 242.709 11.928C242.709 11.5453 242.798 11.2 242.975 10.892C243.162 10.5747 243.46 10.3227 243.871 10.136C244.291 9.94 244.851 9.842 245.551 9.842H248.085V10.584H245.579C244.87 10.584 244.375 10.71 244.095 10.962C243.824 11.214 243.689 11.5267 243.689 11.9C243.689 12.32 243.852 12.656 244.179 12.908C244.506 13.16 244.963 13.286 245.551 13.286C246.111 13.286 246.592 13.16 246.993 12.908C247.404 12.6467 247.702 12.2733 247.889 11.788L248.113 12.474C247.926 12.9593 247.6 13.3467 247.133 13.636C246.676 13.9253 246.097 14.07 245.397 14.07ZM251.583 14V3.612H252.577V14H251.583ZM259.175 14V5.726C259.175 5.07267 259.366 4.54533 259.749 4.144C260.131 3.74267 260.682 3.542 261.401 3.542C261.681 3.542 261.951 3.57933 262.213 3.654C262.474 3.72867 262.693 3.84533 262.871 4.004L262.535 4.746C262.395 4.62467 262.231 4.536 262.045 4.48C261.858 4.41467 261.657 4.382 261.443 4.382C261.023 4.382 260.701 4.49867 260.477 4.732C260.253 4.96533 260.141 5.31067 260.141 5.768V6.888L260.169 7.35V14H259.175ZM257.859 7.476V6.65H262.409V7.476H257.859ZM266.624 14.07C265.914 14.07 265.275 13.9113 264.706 13.594C264.146 13.2673 263.702 12.824 263.376 12.264C263.049 11.6947 262.886 11.046 262.886 10.318C262.886 9.58067 263.049 8.932 263.376 8.372C263.702 7.812 264.146 7.37333 264.706 7.056C265.266 6.73867 265.905 6.58 266.624 6.58C267.352 6.58 267.996 6.73867 268.556 7.056C269.125 7.37333 269.568 7.812 269.886 8.372C270.212 8.932 270.376 9.58067 270.376 10.318C270.376 11.046 270.212 11.6947 269.886 12.264C269.568 12.824 269.125 13.2673 268.556 13.594C267.986 13.9113 267.342 14.07 266.624 14.07ZM266.624 13.188C267.156 13.188 267.627 13.0713 268.038 12.838C268.448 12.5953 268.77 12.2593 269.004 11.83C269.246 11.3913 269.368 10.8873 269.368 10.318C269.368 9.73933 269.246 9.23533 269.004 8.806C268.77 8.37667 268.448 8.04533 268.038 7.812C267.627 7.56933 267.16 7.448 266.638 7.448C266.115 7.448 265.648 7.56933 265.238 7.812C264.827 8.04533 264.5 8.37667 264.258 8.806C264.015 9.23533 263.894 9.73933 263.894 10.318C263.894 10.8873 264.015 11.3913 264.258 11.83C264.5 12.2593 264.827 12.5953 265.238 12.838C265.648 13.0713 266.11 13.188 266.624 13.188ZM272.405 14V6.65H273.357V8.652L273.259 8.302C273.464 7.742 273.81 7.31733 274.295 7.028C274.78 6.72933 275.382 6.58 276.101 6.58V7.546C276.064 7.546 276.026 7.546 275.989 7.546C275.952 7.53667 275.914 7.532 275.877 7.532C275.102 7.532 274.496 7.77 274.057 8.246C273.618 8.71267 273.399 9.38 273.399 10.248V14H272.405ZM283.8 14.084C283.184 14.084 282.596 14 282.036 13.832C281.485 13.664 281.051 13.4587 280.734 13.216L281.294 12.152C281.611 12.3667 282.003 12.5487 282.47 12.698C282.937 12.8473 283.413 12.922 283.898 12.922C284.523 12.922 284.971 12.8333 285.242 12.656C285.522 12.4787 285.662 12.2313 285.662 11.914C285.662 11.6807 285.578 11.4987 285.41 11.368C285.242 11.2373 285.018 11.1393 284.738 11.074C284.467 11.0087 284.164 10.9527 283.828 10.906C283.492 10.85 283.156 10.7847 282.82 10.71C282.484 10.626 282.176 10.514 281.896 10.374C281.616 10.2247 281.392 10.024 281.224 9.772C281.056 9.51067 280.972 9.16533 280.972 8.736C280.972 8.288 281.098 7.896 281.35 7.56C281.602 7.224 281.957 6.96733 282.414 6.79C282.881 6.60333 283.431 6.51 284.066 6.51C284.551 6.51 285.041 6.57067 285.536 6.692C286.04 6.804 286.451 6.96733 286.768 7.182L286.194 8.246C285.858 8.022 285.508 7.868 285.144 7.784C284.78 7.7 284.416 7.658 284.052 7.658C283.464 7.658 283.025 7.756 282.736 7.952C282.447 8.13867 282.302 8.38133 282.302 8.68C282.302 8.932 282.386 9.128 282.554 9.268C282.731 9.39867 282.955 9.50133 283.226 9.576C283.506 9.65067 283.814 9.716 284.15 9.772C284.486 9.81867 284.822 9.884 285.158 9.968C285.494 10.0427 285.797 10.15 286.068 10.29C286.348 10.43 286.572 10.626 286.74 10.878C286.917 11.13 287.006 11.466 287.006 11.886C287.006 12.334 286.875 12.7213 286.614 13.048C286.353 13.3747 285.984 13.6313 285.508 13.818C285.032 13.9953 284.463 14.084 283.8 14.084ZM293.292 14V12.432L293.222 12.138V9.464C293.222 8.89467 293.054 8.456 292.718 8.148C292.391 7.83067 291.896 7.672 291.234 7.672C290.795 7.672 290.366 7.74667 289.946 7.896C289.526 8.036 289.171 8.22733 288.882 8.47L288.322 7.462C288.704 7.154 289.162 6.92067 289.694 6.762C290.235 6.594 290.8 6.51 291.388 6.51C292.405 6.51 293.189 6.75733 293.74 7.252C294.29 7.74667 294.566 8.50267 294.566 9.52V14H293.292ZM290.856 14.084C290.305 14.084 289.82 13.9907 289.4 13.804C288.989 13.6173 288.672 13.3607 288.448 13.034C288.224 12.698 288.112 12.32 288.112 11.9C288.112 11.4987 288.205 11.1347 288.392 10.808C288.588 10.4813 288.9 10.22 289.33 10.024C289.768 9.828 290.356 9.73 291.094 9.73H293.446V10.696H291.15C290.478 10.696 290.025 10.808 289.792 11.032C289.558 11.256 289.442 11.5267 289.442 11.844C289.442 12.208 289.586 12.502 289.876 12.726C290.165 12.9407 290.566 13.048 291.08 13.048C291.584 13.048 292.022 12.936 292.396 12.712C292.778 12.488 293.054 12.1613 293.222 11.732L293.488 12.656C293.31 13.0947 292.998 13.4447 292.55 13.706C292.102 13.958 291.537 14.084 290.856 14.084ZM297.249 14V5.922C297.249 5.194 297.459 4.61533 297.879 4.186C298.308 3.74733 298.915 3.528 299.699 3.528C299.988 3.528 300.263 3.56533 300.525 3.64C300.795 3.70533 301.024 3.81267 301.211 3.962L300.805 4.984C300.665 4.872 300.506 4.788 300.329 4.732C300.151 4.66667 299.965 4.634 299.769 4.634C299.377 4.634 299.078 4.746 298.873 4.97C298.667 5.18467 298.565 5.50667 298.565 5.936V6.93L298.593 7.546V14H297.249ZM295.989 7.686V6.58H300.721V7.686H295.989ZM305.183 14.084C304.39 14.084 303.69 13.9207 303.083 13.594C302.486 13.2673 302.019 12.8193 301.683 12.25C301.356 11.6807 301.193 11.0273 301.193 10.29C301.193 9.55267 301.352 8.89933 301.669 8.33C301.996 7.76067 302.439 7.31733 302.999 7C303.568 6.67333 304.208 6.51 304.917 6.51C305.636 6.51 306.27 6.66867 306.821 6.986C307.372 7.30333 307.801 7.75133 308.109 8.33C308.426 8.89933 308.585 9.56667 308.585 10.332C308.585 10.388 308.58 10.4533 308.571 10.528C308.571 10.6027 308.566 10.6727 308.557 10.738H302.243V9.772H307.857L307.311 10.108C307.32 9.632 307.222 9.20733 307.017 8.834C306.812 8.46067 306.527 8.17133 306.163 7.966C305.808 7.75133 305.393 7.644 304.917 7.644C304.45 7.644 304.035 7.75133 303.671 7.966C303.307 8.17133 303.022 8.46533 302.817 8.848C302.612 9.22133 302.509 9.65067 302.509 10.136V10.36C302.509 10.8547 302.621 11.298 302.845 11.69C303.078 12.0727 303.4 12.3713 303.811 12.586C304.222 12.8007 304.693 12.908 305.225 12.908C305.664 12.908 306.06 12.8333 306.415 12.684C306.779 12.5347 307.096 12.3107 307.367 12.012L308.109 12.88C307.773 13.272 307.353 13.5707 306.849 13.776C306.354 13.9813 305.799 14.084 305.183 14.084ZM73.3453 33V31.432L73.2753 31.138V28.464C73.2753 27.8947 73.1073 27.456 72.7713 27.148C72.4447 26.8307 71.95 26.672 71.2873 26.672C70.8487 26.672 70.4193 26.7467 69.9993 26.896C69.5793 27.036 69.2247 27.2273 68.9353 27.47L68.3753 26.462C68.758 26.154 69.2153 25.9207 69.7473 25.762C70.2887 25.594 70.8533 25.51 71.4413 25.51C72.4587 25.51 73.2427 25.7573 73.7933 26.252C74.344 26.7467 74.6193 27.5027 74.6193 28.52V33H73.3453ZM70.9093 33.084C70.3587 33.084 69.8733 32.9907 69.4533 32.804C69.0427 32.6173 68.7253 32.3607 68.5013 32.034C68.2773 31.698 68.1653 31.32 68.1653 30.9C68.1653 30.4987 68.2587 30.1347 68.4453 29.808C68.6413 29.4813 68.954 29.22 69.3833 29.024C69.822 28.828 70.41 28.73 71.1473 28.73H73.4993V29.696H71.2033C70.5313 29.696 70.0787 29.808 69.8453 30.032C69.612 30.256 69.4953 30.5267 69.4953 30.844C69.4953 31.208 69.64 31.502 69.9293 31.726C70.2187 31.9407 70.62 32.048 71.1333 32.048C71.6373 32.048 72.076 31.936 72.4493 31.712C72.832 31.488 73.1073 31.1613 73.2753 30.732L73.5413 31.656C73.364 32.0947 73.0513 32.4447 72.6033 32.706C72.1553 32.958 71.5907 33.084 70.9093 33.084ZM81.0685 25.51C81.6752 25.51 82.2072 25.6267 82.6645 25.86C83.1312 26.0933 83.4952 26.448 83.7565 26.924C84.0178 27.4 84.1485 28.002 84.1485 28.73V33H82.8045V28.884C82.8045 28.1653 82.6272 27.624 82.2725 27.26C81.9272 26.896 81.4372 26.714 80.8025 26.714C80.3265 26.714 79.9112 26.8073 79.5565 26.994C79.2018 27.1807 78.9265 27.456 78.7305 27.82C78.5438 28.184 78.4505 28.6367 78.4505 29.178V33H77.1065V25.58H78.3945V27.582L78.1845 27.05C78.4272 26.5647 78.8005 26.1867 79.3045 25.916C79.8085 25.6453 80.3965 25.51 81.0685 25.51ZM89.7018 33.084C88.9831 33.084 88.3391 32.9253 87.7698 32.608C87.2098 32.2907 86.7665 31.8473 86.4398 31.278C86.1131 30.7087 85.9498 30.046 85.9498 29.29C85.9498 28.534 86.1131 27.876 86.4398 27.316C86.7665 26.7467 87.2098 26.3033 87.7698 25.986C88.3391 25.6687 88.9831 25.51 89.7018 25.51C90.3271 25.51 90.8918 25.65 91.3958 25.93C91.8998 26.21 92.3011 26.63 92.5998 27.19C92.9078 27.75 93.0618 28.45 93.0618 29.29C93.0618 30.13 92.9125 30.83 92.6138 31.39C92.3245 31.95 91.9278 32.3747 91.4238 32.664C90.9198 32.944 90.3458 33.084 89.7018 33.084ZM89.8138 31.908C90.2805 31.908 90.7005 31.8007 91.0738 31.586C91.4565 31.3713 91.7551 31.068 91.9698 30.676C92.1938 30.2747 92.3058 29.8127 92.3058 29.29C92.3058 28.758 92.1938 28.3007 91.9698 27.918C91.7551 27.526 91.4565 27.2227 91.0738 27.008C90.7005 26.7933 90.2805 26.686 89.8138 26.686C89.3378 26.686 88.9131 26.7933 88.5398 27.008C88.1665 27.2227 87.8678 27.526 87.6438 27.918C87.4198 28.3007 87.3078 28.758 87.3078 29.29C87.3078 29.8127 87.4198 30.2747 87.6438 30.676C87.8678 31.068 88.1665 31.3713 88.5398 31.586C88.9131 31.8007 89.3378 31.908 89.8138 31.908ZM92.3478 33V30.998L92.4318 29.276L92.2918 27.554V22.612H93.6358V33H92.3478ZM99.9385 33V25.58H101.227V27.596L101.101 27.092C101.306 26.5787 101.651 26.1867 102.137 25.916C102.622 25.6453 103.219 25.51 103.929 25.51V26.812C103.873 26.8027 103.817 26.798 103.761 26.798C103.714 26.798 103.667 26.798 103.621 26.798C102.902 26.798 102.333 27.0127 101.913 27.442C101.493 27.8713 101.283 28.492 101.283 29.304V33H99.9385ZM108.821 33.084C108.027 33.084 107.327 32.9207 106.721 32.594C106.123 32.2673 105.657 31.8193 105.321 31.25C104.994 30.6807 104.831 30.0273 104.831 29.29C104.831 28.5527 104.989 27.8993 105.307 27.33C105.633 26.7607 106.077 26.3173 106.637 26C107.206 25.6733 107.845 25.51 108.555 25.51C109.273 25.51 109.908 25.6687 110.459 25.986C111.009 26.3033 111.439 26.7513 111.747 27.33C112.064 27.8993 112.223 28.5667 112.223 29.332C112.223 29.388 112.218 29.4533 112.209 29.528C112.209 29.6027 112.204 29.6727 112.195 29.738H105.881V28.772H111.495L110.949 29.108C110.958 28.632 110.86 28.2073 110.655 27.834C110.449 27.4607 110.165 27.1713 109.801 26.966C109.446 26.7513 109.031 26.644 108.555 26.644C108.088 26.644 107.673 26.7513 107.309 26.966C106.945 27.1713 106.66 27.4653 106.455 27.848C106.249 28.2213 106.147 28.6507 106.147 29.136V29.36C106.147 29.8547 106.259 30.298 106.483 30.69C106.716 31.0727 107.038 31.3713 107.449 31.586C107.859 31.8007 108.331 31.908 108.863 31.908C109.301 31.908 109.698 31.8333 110.053 31.684C110.417 31.5347 110.734 31.3107 111.005 31.012L111.747 31.88C111.411 32.272 110.991 32.5707 110.487 32.776C109.992 32.9813 109.437 33.084 108.821 33.084ZM114.089 33V22.612H115.433V33H114.089ZM117.999 33V25.58H119.343V33H117.999ZM118.671 24.152C118.41 24.152 118.19 24.068 118.013 23.9C117.845 23.732 117.761 23.5267 117.761 23.284C117.761 23.032 117.845 22.822 118.013 22.654C118.19 22.486 118.41 22.402 118.671 22.402C118.932 22.402 119.147 22.486 119.315 22.654C119.492 22.8127 119.581 23.0133 119.581 23.256C119.581 23.508 119.497 23.7227 119.329 23.9C119.161 24.068 118.942 24.152 118.671 24.152ZM126.515 33V31.432L126.445 31.138V28.464C126.445 27.8947 126.277 27.456 125.941 27.148C125.615 26.8307 125.12 26.672 124.457 26.672C124.019 26.672 123.589 26.7467 123.169 26.896C122.749 27.036 122.395 27.2273 122.105 27.47L121.545 26.462C121.928 26.154 122.385 25.9207 122.917 25.762C123.459 25.594 124.023 25.51 124.611 25.51C125.629 25.51 126.413 25.7573 126.963 26.252C127.514 26.7467 127.789 27.5027 127.789 28.52V33H126.515ZM124.079 33.084C123.529 33.084 123.043 32.9907 122.623 32.804C122.213 32.6173 121.895 32.3607 121.671 32.034C121.447 31.698 121.335 31.32 121.335 30.9C121.335 30.4987 121.429 30.1347 121.615 29.808C121.811 29.4813 122.124 29.22 122.553 29.024C122.992 28.828 123.58 28.73 124.317 28.73H126.669V29.696H124.373C123.701 29.696 123.249 29.808 123.015 30.032C122.782 30.256 122.665 30.5267 122.665 30.844C122.665 31.208 122.81 31.502 123.099 31.726C123.389 31.9407 123.79 32.048 124.303 32.048C124.807 32.048 125.246 31.936 125.619 31.712C126.002 31.488 126.277 31.1613 126.445 30.732L126.711 31.656C126.534 32.0947 126.221 32.4447 125.773 32.706C125.325 32.958 124.761 33.084 124.079 33.084ZM134.21 33.084C133.576 33.084 133.002 32.944 132.488 32.664C131.984 32.3747 131.583 31.95 131.284 31.39C130.995 30.83 130.85 30.13 130.85 29.29C130.85 28.45 131 27.75 131.298 27.19C131.606 26.63 132.012 26.21 132.516 25.93C133.03 25.65 133.594 25.51 134.21 25.51C134.938 25.51 135.582 25.6687 136.142 25.986C136.702 26.3033 137.146 26.7467 137.472 27.316C137.799 27.876 137.962 28.534 137.962 29.29C137.962 30.046 137.799 30.7087 137.472 31.278C137.146 31.8473 136.702 32.2907 136.142 32.608C135.582 32.9253 134.938 33.084 134.21 33.084ZM130.276 33V22.612H131.62V27.554L131.48 29.276L131.564 30.998V33H130.276ZM134.098 31.908C134.574 31.908 134.999 31.8007 135.372 31.586C135.755 31.3713 136.054 31.068 136.268 30.676C136.492 30.2747 136.604 29.8127 136.604 29.29C136.604 28.758 136.492 28.3007 136.268 27.918C136.054 27.526 135.755 27.2227 135.372 27.008C134.999 26.7933 134.574 26.686 134.098 26.686C133.632 26.686 133.207 26.7933 132.824 27.008C132.451 27.2227 132.152 27.526 131.928 27.918C131.714 28.3007 131.606 28.758 131.606 29.29C131.606 29.8127 131.714 30.2747 131.928 30.676C132.152 31.068 132.451 31.3713 132.824 31.586C133.207 31.8007 133.632 31.908 134.098 31.908ZM139.819 33V22.612H141.163V33H139.819ZM147.034 33.084C146.24 33.084 145.54 32.9207 144.934 32.594C144.336 32.2673 143.87 31.8193 143.534 31.25C143.207 30.6807 143.044 30.0273 143.044 29.29C143.044 28.5527 143.202 27.8993 143.52 27.33C143.846 26.7607 144.29 26.3173 144.85 26C145.419 25.6733 146.058 25.51 146.768 25.51C147.486 25.51 148.121 25.6687 148.672 25.986C149.222 26.3033 149.652 26.7513 149.96 27.33C150.277 27.8993 150.436 28.5667 150.436 29.332C150.436 29.388 150.431 29.4533 150.422 29.528C150.422 29.6027 150.417 29.6727 150.408 29.738H144.094V28.772H149.708L149.162 29.108C149.171 28.632 149.073 28.2073 148.868 27.834C148.662 27.4607 148.378 27.1713 148.014 26.966C147.659 26.7513 147.244 26.644 146.768 26.644C146.301 26.644 145.886 26.7513 145.522 26.966C145.158 27.1713 144.873 27.4653 144.668 27.848C144.462 28.2213 144.36 28.6507 144.36 29.136V29.36C144.36 29.8547 144.472 30.298 144.696 30.69C144.929 31.0727 145.251 31.3713 145.662 31.586C146.072 31.8007 146.544 31.908 147.076 31.908C147.514 31.908 147.911 31.8333 148.266 31.684C148.63 31.5347 148.947 31.3107 149.218 31.012L149.96 31.88C149.624 32.272 149.204 32.5707 148.7 32.776C148.205 32.9813 147.65 33.084 147.034 33.084ZM159.366 33.084C158.572 33.084 157.872 32.9207 157.266 32.594C156.668 32.2673 156.202 31.8193 155.866 31.25C155.539 30.6807 155.376 30.0273 155.376 29.29C155.376 28.5527 155.534 27.8993 155.852 27.33C156.178 26.7607 156.622 26.3173 157.182 26C157.751 25.6733 158.39 25.51 159.1 25.51C159.818 25.51 160.453 25.6687 161.004 25.986C161.554 26.3033 161.984 26.7513 162.292 27.33C162.609 27.8993 162.768 28.5667 162.768 29.332C162.768 29.388 162.763 29.4533 162.754 29.528C162.754 29.6027 162.749 29.6727 162.74 29.738H156.426V28.772H162.04L161.494 29.108C161.503 28.632 161.405 28.2073 161.2 27.834C160.994 27.4607 160.71 27.1713 160.346 26.966C159.991 26.7513 159.576 26.644 159.1 26.644C158.633 26.644 158.218 26.7513 157.854 26.966C157.49 27.1713 157.205 27.4653 157 27.848C156.794 28.2213 156.692 28.6507 156.692 29.136V29.36C156.692 29.8547 156.804 30.298 157.028 30.69C157.261 31.0727 157.583 31.3713 157.994 31.586C158.404 31.8007 158.876 31.908 159.408 31.908C159.846 31.908 160.243 31.8333 160.598 31.684C160.962 31.5347 161.279 31.3107 161.55 31.012L162.292 31.88C161.956 32.272 161.536 32.5707 161.032 32.776C160.537 32.9813 159.982 33.084 159.366 33.084ZM166.443 33L163.195 25.58H164.595L167.479 32.3H166.807L169.747 25.58H171.063L167.815 33H166.443ZM175.416 33.084C174.623 33.084 173.923 32.9207 173.316 32.594C172.719 32.2673 172.252 31.8193 171.916 31.25C171.59 30.6807 171.426 30.0273 171.426 29.29C171.426 28.5527 171.585 27.8993 171.902 27.33C172.229 26.7607 172.672 26.3173 173.232 26C173.802 25.6733 174.441 25.51 175.15 25.51C175.869 25.51 176.504 25.6687 177.054 25.986C177.605 26.3033 178.034 26.7513 178.342 27.33C178.66 27.8993 178.818 28.5667 178.818 29.332C178.818 29.388 178.814 29.4533 178.804 29.528C178.804 29.6027 178.8 29.6727 178.79 29.738H172.476V28.772H178.09L177.544 29.108C177.554 28.632 177.456 28.2073 177.25 27.834C177.045 27.4607 176.76 27.1713 176.396 26.966C176.042 26.7513 175.626 26.644 175.15 26.644C174.684 26.644 174.268 26.7513 173.904 26.966C173.54 27.1713 173.256 27.4653 173.05 27.848C172.845 28.2213 172.742 28.6507 172.742 29.136V29.36C172.742 29.8547 172.854 30.298 173.078 30.69C173.312 31.0727 173.634 31.3713 174.044 31.586C174.455 31.8007 174.926 31.908 175.458 31.908C175.897 31.908 176.294 31.8333 176.648 31.684C177.012 31.5347 177.33 31.3107 177.6 31.012L178.342 31.88C178.006 32.272 177.586 32.5707 177.082 32.776C176.588 32.9813 176.032 33.084 175.416 33.084ZM180.685 33V25.58H181.973V27.596L181.847 27.092C182.052 26.5787 182.397 26.1867 182.883 25.916C183.368 25.6453 183.965 25.51 184.675 25.51V26.812C184.619 26.8027 184.563 26.798 184.507 26.798C184.46 26.798 184.413 26.798 184.367 26.798C183.648 26.798 183.079 27.0127 182.659 27.442C182.239 27.8713 182.029 28.492 182.029 29.304V33H180.685ZM186.954 35.8C186.599 35.8 186.254 35.7393 185.918 35.618C185.582 35.506 185.293 35.338 185.05 35.114L185.624 34.106C185.811 34.2833 186.016 34.4187 186.24 34.512C186.464 34.6053 186.702 34.652 186.954 34.652C187.281 34.652 187.551 34.568 187.766 34.4C187.981 34.232 188.181 33.9333 188.368 33.504L188.83 32.482L188.97 32.314L191.882 25.58H193.198L189.6 33.742C189.385 34.2647 189.143 34.6753 188.872 34.974C188.611 35.2727 188.321 35.4827 188.004 35.604C187.687 35.7347 187.337 35.8 186.954 35.8ZM188.718 33.238L185.33 25.58H186.73L189.614 32.188L188.718 33.238ZM197.313 33.084C196.594 33.084 195.95 32.9253 195.381 32.608C194.821 32.2907 194.378 31.8473 194.051 31.278C193.724 30.7087 193.561 30.046 193.561 29.29C193.561 28.534 193.724 27.876 194.051 27.316C194.378 26.7467 194.821 26.3033 195.381 25.986C195.95 25.6687 196.594 25.51 197.313 25.51C197.938 25.51 198.503 25.65 199.007 25.93C199.511 26.21 199.912 26.63 200.211 27.19C200.519 27.75 200.673 28.45 200.673 29.29C200.673 30.13 200.524 30.83 200.225 31.39C199.936 31.95 199.539 32.3747 199.035 32.664C198.531 32.944 197.957 33.084 197.313 33.084ZM197.425 31.908C197.892 31.908 198.312 31.8007 198.685 31.586C199.068 31.3713 199.366 31.068 199.581 30.676C199.805 30.2747 199.917 29.8127 199.917 29.29C199.917 28.758 199.805 28.3007 199.581 27.918C199.366 27.526 199.068 27.2227 198.685 27.008C198.312 26.7933 197.892 26.686 197.425 26.686C196.949 26.686 196.524 26.7933 196.151 27.008C195.778 27.2227 195.479 27.526 195.255 27.918C195.031 28.3007 194.919 28.758 194.919 29.29C194.919 29.8127 195.031 30.2747 195.255 30.676C195.479 31.068 195.778 31.3713 196.151 31.586C196.524 31.8007 196.949 31.908 197.425 31.908ZM199.959 33V30.998L200.043 29.276L199.903 27.554V22.612H201.247V33H199.959ZM208.396 33V31.432L208.326 31.138V28.464C208.326 27.8947 208.158 27.456 207.822 27.148C207.495 26.8307 207.001 26.672 206.338 26.672C205.899 26.672 205.47 26.7467 205.05 26.896C204.63 27.036 204.275 27.2273 203.986 27.47L203.426 26.462C203.809 26.154 204.266 25.9207 204.798 25.762C205.339 25.594 205.904 25.51 206.492 25.51C207.509 25.51 208.293 25.7573 208.844 26.252C209.395 26.7467 209.67 27.5027 209.67 28.52V33H208.396ZM205.96 33.084C205.409 33.084 204.924 32.9907 204.504 32.804C204.093 32.6173 203.776 32.3607 203.552 32.034C203.328 31.698 203.216 31.32 203.216 30.9C203.216 30.4987 203.309 30.1347 203.496 29.808C203.692 29.4813 204.005 29.22 204.434 29.024C204.873 28.828 205.461 28.73 206.198 28.73H208.55V29.696H206.254C205.582 29.696 205.129 29.808 204.896 30.032C204.663 30.256 204.546 30.5267 204.546 30.844C204.546 31.208 204.691 31.502 204.98 31.726C205.269 31.9407 205.671 32.048 206.184 32.048C206.688 32.048 207.127 31.936 207.5 31.712C207.883 31.488 208.158 31.1613 208.326 30.732L208.592 31.656C208.415 32.0947 208.102 32.4447 207.654 32.706C207.206 32.958 206.641 33.084 205.96 33.084ZM212.343 35.8C211.988 35.8 211.643 35.7393 211.307 35.618C210.971 35.506 210.681 35.338 210.439 35.114L211.013 34.106C211.199 34.2833 211.405 34.4187 211.629 34.512C211.853 34.6053 212.091 34.652 212.343 34.652C212.669 34.652 212.94 34.568 213.155 34.4C213.369 34.232 213.57 33.9333 213.757 33.504L214.219 32.482L214.359 32.314L217.271 25.58H218.587L214.989 33.742C214.774 34.2647 214.531 34.6753 214.261 34.974C213.999 35.2727 213.71 35.4827 213.393 35.604C213.075 35.7347 212.725 35.8 212.343 35.8ZM214.107 33.238L210.719 25.58H212.119L215.003 32.188L214.107 33.238ZM226.723 33.084C226.088 33.084 225.528 32.9673 225.043 32.734C224.567 32.5007 224.193 32.146 223.923 31.67C223.661 31.1847 223.531 30.578 223.531 29.85V25.58H224.875V29.696C224.875 30.424 225.047 30.97 225.393 31.334C225.747 31.698 226.242 31.88 226.877 31.88C227.343 31.88 227.749 31.7867 228.095 31.6C228.44 31.404 228.706 31.124 228.893 30.76C229.079 30.3867 229.173 29.9387 229.173 29.416V25.58H230.517V33H229.243V30.998L229.453 31.53C229.21 32.0247 228.846 32.4073 228.361 32.678C227.875 32.9487 227.329 33.084 226.723 33.084ZM235.203 33.084C234.587 33.084 233.999 33 233.439 32.832C232.889 32.664 232.455 32.4587 232.137 32.216L232.697 31.152C233.015 31.3667 233.407 31.5487 233.873 31.698C234.34 31.8473 234.816 31.922 235.301 31.922C235.927 31.922 236.375 31.8333 236.645 31.656C236.925 31.4787 237.065 31.2313 237.065 30.914C237.065 30.6807 236.981 30.4987 236.813 30.368C236.645 30.2373 236.421 30.1393 236.141 30.074C235.871 30.0087 235.567 29.9527 235.231 29.906C234.895 29.85 234.559 29.7847 234.223 29.71C233.887 29.626 233.579 29.514 233.299 29.374C233.019 29.2247 232.795 29.024 232.627 28.772C232.459 28.5107 232.375 28.1653 232.375 27.736C232.375 27.288 232.501 26.896 232.753 26.56C233.005 26.224 233.36 25.9673 233.817 25.79C234.284 25.6033 234.835 25.51 235.469 25.51C235.955 25.51 236.445 25.5707 236.939 25.692C237.443 25.804 237.854 25.9673 238.171 26.182L237.597 27.246C237.261 27.022 236.911 26.868 236.547 26.784C236.183 26.7 235.819 26.658 235.455 26.658C234.867 26.658 234.429 26.756 234.139 26.952C233.85 27.1387 233.705 27.3813 233.705 27.68C233.705 27.932 233.789 28.128 233.957 28.268C234.135 28.3987 234.359 28.5013 234.629 28.576C234.909 28.6507 235.217 28.716 235.553 28.772C235.889 28.8187 236.225 28.884 236.561 28.968C236.897 29.0427 237.201 29.15 237.471 29.29C237.751 29.43 237.975 29.626 238.143 29.878C238.321 30.13 238.409 30.466 238.409 30.886C238.409 31.334 238.279 31.7213 238.017 32.048C237.756 32.3747 237.387 32.6313 236.911 32.818C236.435 32.9953 235.866 33.084 235.203 33.084ZM243.393 33.084C242.6 33.084 241.9 32.9207 241.293 32.594C240.696 32.2673 240.229 31.8193 239.893 31.25C239.566 30.6807 239.403 30.0273 239.403 29.29C239.403 28.5527 239.562 27.8993 239.879 27.33C240.206 26.7607 240.649 26.3173 241.209 26C241.778 25.6733 242.418 25.51 243.127 25.51C243.846 25.51 244.48 25.6687 245.031 25.986C245.582 26.3033 246.011 26.7513 246.319 27.33C246.636 27.8993 246.795 28.5667 246.795 29.332C246.795 29.388 246.79 29.4533 246.781 29.528C246.781 29.6027 246.776 29.6727 246.767 29.738H240.453V28.772H246.067L245.521 29.108C245.53 28.632 245.432 28.2073 245.227 27.834C245.022 27.4607 244.737 27.1713 244.373 26.966C244.018 26.7513 243.603 26.644 243.127 26.644C242.66 26.644 242.245 26.7513 241.881 26.966C241.517 27.1713 241.232 27.4653 241.027 27.848C240.822 28.2213 240.719 28.6507 240.719 29.136V29.36C240.719 29.8547 240.831 30.298 241.055 30.69C241.288 31.0727 241.61 31.3713 242.021 31.586C242.432 31.8007 242.903 31.908 243.435 31.908C243.874 31.908 244.27 31.8333 244.625 31.684C244.989 31.5347 245.306 31.3107 245.577 31.012L246.319 31.88C245.983 32.272 245.563 32.5707 245.059 32.776C244.564 32.9813 244.009 33.084 243.393 33.084ZM248.983 33.084C248.722 33.084 248.498 32.9953 248.311 32.818C248.125 32.6313 248.031 32.398 248.031 32.118C248.031 31.838 248.125 31.6093 248.311 31.432C248.498 31.2547 248.722 31.166 248.983 31.166C249.235 31.166 249.45 31.2547 249.627 31.432C249.814 31.6093 249.907 31.838 249.907 32.118C249.907 32.398 249.814 32.6313 249.627 32.818C249.45 32.9953 249.235 33.084 248.983 33.084Z" fill="black"/>
</svg>
