<svg width="165" height="50" viewBox="0 0 165 50" fill="none" xmlns="http://www.w3.org/2000/svg">
<g filter="url(#filter0_d_2040_984)">
<rect x="24.1406" y="4.7168" width="33" height="31" rx="6" transform="rotate(46.3303 24.1406 4.7168)" fill="white"/>
</g>
<path d="M20.1982 21.1045H28.2373C28.4651 21.1045 28.6809 21.2079 28.8232 21.3857L30.3037 23.2363C30.4101 23.3693 30.4677 23.5348 30.4678 23.7051V33.3545C30.4678 33.7687 30.132 34.1045 29.7178 34.1045H18.7178C18.3036 34.1045 17.9678 33.7687 17.9678 33.3545V23.7051C17.9678 23.5348 18.0255 23.3693 18.1318 23.2363L19.6123 21.3857C19.7546 21.2079 19.9705 21.1045 20.1982 21.1045Z" stroke="black" stroke-width="0.5"/>
<path d="M18.2178 23.3545H30.2178" stroke="black" stroke-width="0.5"/>
<path d="M26.4678 23.6045V29.834L24.374 28.1592L24.2178 28.0342L24.0615 28.1592L21.9678 29.834V23.6045H26.4678Z" stroke="black" stroke-width="0.5"/>
<path d="M56.047 23.667V14.219H60.1367C60.9825 14.219 61.7113 14.3585 62.3232 14.6374C62.9351 14.9073 63.4075 15.2988 63.7404 15.8117C64.0733 16.3245 64.2398 16.9364 64.2398 17.6473C64.2398 18.3491 64.0733 18.9565 63.7404 19.4694C63.4075 19.9823 62.9351 20.3782 62.3232 20.6571C61.7113 20.9271 60.9825 21.062 60.1367 21.062H57.2618L58.2336 20.0768V23.667H56.047ZM58.2336 20.3197L57.2618 19.2804H60.0152C60.69 19.2804 61.1939 19.1365 61.5269 18.8485C61.8598 18.5606 62.0263 18.1602 62.0263 17.6473C62.0263 17.1254 61.8598 16.7205 61.5269 16.4325C61.1939 16.1446 60.69 16.0006 60.0152 16.0006H57.2618L58.2336 14.9613V20.3197ZM69.1484 23.775C68.3656 23.775 67.6682 23.6175 67.0564 23.3026C66.4445 22.9786 65.9631 22.5332 65.6122 21.9664C65.2702 21.3995 65.0993 20.7561 65.0993 20.0363C65.0993 19.3074 65.2702 18.6641 65.6122 18.1062C65.9631 17.5393 66.4445 17.0984 67.0564 16.7834C67.6682 16.4595 68.3656 16.2976 69.1484 16.2976C69.9133 16.2976 70.5791 16.4595 71.146 16.7834C71.7129 17.0984 72.1313 17.5528 72.4012 18.1467L70.7681 19.024C70.5791 18.682 70.3407 18.4301 70.0527 18.2681C69.7738 18.1062 69.4679 18.0252 69.1349 18.0252C68.775 18.0252 68.4511 18.1062 68.1631 18.2681C67.8752 18.4301 67.6457 18.6596 67.4748 18.9565C67.3128 19.2534 67.2318 19.6133 67.2318 20.0363C67.2318 20.4592 67.3128 20.8191 67.4748 21.116C67.6457 21.413 67.8752 21.6424 68.1631 21.8044C68.4511 21.9664 68.775 22.0473 69.1349 22.0473C69.4679 22.0473 69.7738 21.9709 70.0527 21.8179C70.3407 21.6559 70.5791 21.3995 70.7681 21.0485L72.4012 21.9394C72.1313 22.5242 71.7129 22.9786 71.146 23.3026C70.5791 23.6175 69.9133 23.775 69.1484 23.775ZM76.0565 23.775C75.4357 23.775 74.8373 23.703 74.2614 23.559C73.6945 23.406 73.2446 23.2171 72.9117 22.9921L73.6136 21.4805C73.9465 21.6874 74.3379 21.8584 74.7878 21.9933C75.2467 22.1193 75.6966 22.1823 76.1375 22.1823C76.6234 22.1823 76.9653 22.1238 77.1633 22.0068C77.3703 21.8899 77.4737 21.7279 77.4737 21.5209C77.4737 21.35 77.3928 21.224 77.2308 21.143C77.0778 21.053 76.8709 20.9856 76.6099 20.9406C76.349 20.8956 76.061 20.8506 75.7461 20.8056C75.4402 20.7606 75.1297 20.7021 74.8148 20.6301C74.4999 20.5492 74.2119 20.4322 73.951 20.2792C73.69 20.1262 73.4786 19.9193 73.3166 19.6583C73.1636 19.3974 73.0872 19.06 73.0872 18.6461C73.0872 18.1872 73.2176 17.7822 73.4786 17.4313C73.7485 17.0804 74.1354 16.8059 74.6393 16.608C75.1432 16.401 75.7461 16.2976 76.448 16.2976C76.9428 16.2976 77.4467 16.3515 77.9596 16.4595C78.4725 16.5675 78.8999 16.725 79.2419 16.9319L78.54 18.4301C78.1891 18.2231 77.8337 18.0837 77.4737 18.0117C77.1228 17.9307 76.7809 17.8902 76.448 17.8902C75.9801 17.8902 75.6381 17.9532 75.4222 18.0792C75.2062 18.2051 75.0982 18.3671 75.0982 18.5651C75.0982 18.745 75.1747 18.88 75.3277 18.97C75.4897 19.06 75.7011 19.132 75.9621 19.1859C76.223 19.2399 76.5064 19.2894 76.8124 19.3344C77.1273 19.3704 77.4422 19.4289 77.7572 19.5099C78.0721 19.5909 78.3556 19.7078 78.6075 19.8608C78.8684 20.0048 79.0799 20.2072 79.2419 20.4682C79.4038 20.7201 79.4848 21.053 79.4848 21.467C79.4848 21.9169 79.3498 22.3173 79.0799 22.6682C78.81 23.0101 78.4185 23.2801 77.9056 23.478C77.4018 23.676 76.7854 23.775 76.0565 23.775ZM84.7548 23.667V14.219H88.8444C89.6903 14.219 90.4191 14.3585 91.031 14.6374C91.6429 14.9073 92.1153 15.2988 92.4482 15.8117C92.7811 16.3245 92.9476 16.9364 92.9476 17.6473C92.9476 18.3491 92.7811 18.9565 92.4482 19.4694C92.1153 19.9823 91.6429 20.3782 91.031 20.6571C90.4191 20.9271 89.6903 21.062 88.8444 21.062H85.9696L86.9414 20.0768V23.667H84.7548ZM86.9414 20.3197L85.9696 19.2804H88.723C89.3978 19.2804 89.9017 19.1365 90.2347 18.8485C90.5676 18.5606 90.734 18.1602 90.734 17.6473C90.734 17.1254 90.5676 16.7205 90.2347 16.4325C89.9017 16.1446 89.3978 16.0006 88.723 16.0006H85.9696L86.9414 14.9613V20.3197ZM97.9507 23.775C97.1229 23.775 96.394 23.613 95.7642 23.2891C95.1433 22.9651 94.6619 22.5242 94.32 21.9664C93.978 21.3995 93.8071 20.7561 93.8071 20.0363C93.8071 19.3074 93.9735 18.6641 94.3065 18.1062C94.6484 17.5393 95.1118 17.0984 95.6967 16.7834C96.2815 16.4595 96.9429 16.2976 97.6808 16.2976C98.3916 16.2976 99.0305 16.4505 99.5973 16.7565C100.173 17.0534 100.628 17.4853 100.961 18.0522C101.293 18.6101 101.46 19.2804 101.46 20.0633C101.46 20.1442 101.455 20.2387 101.446 20.3467C101.437 20.4457 101.428 20.5402 101.419 20.6301H95.5212V19.4019H100.313L99.5029 19.7663C99.5029 19.3884 99.4264 19.06 99.2734 18.781C99.1204 18.5021 98.909 18.2861 98.6391 18.1332C98.3691 17.9712 98.0542 17.8902 97.6943 17.8902C97.3343 17.8902 97.0149 17.9712 96.736 18.1332C96.466 18.2861 96.2546 18.5066 96.1016 18.7945C95.9486 19.0735 95.8721 19.4064 95.8721 19.7933V20.1172C95.8721 20.5132 95.9576 20.8641 96.1286 21.17C96.3085 21.467 96.556 21.6964 96.8709 21.8584C97.1949 22.0113 97.5728 22.0878 98.0047 22.0878C98.3916 22.0878 98.729 22.0293 99.017 21.9124C99.3139 21.7954 99.5839 21.6199 99.8268 21.386L100.947 22.6007C100.614 22.9786 100.196 23.2711 99.6918 23.478C99.1879 23.676 98.6076 23.775 97.9507 23.775ZM102.862 23.667V16.4055H104.873V18.4571L104.589 17.8632C104.805 17.3503 105.152 16.9634 105.629 16.7025C106.106 16.4325 106.686 16.2976 107.37 16.2976V18.2411C107.28 18.2321 107.199 18.2276 107.127 18.2276C107.055 18.2186 106.978 18.2141 106.897 18.2141C106.322 18.2141 105.854 18.3806 105.494 18.7135C105.143 19.0375 104.967 19.5459 104.967 20.2387V23.667H102.862ZM112.645 23.667V14.219H117.261C118.449 14.219 119.34 14.4439 119.934 14.8938C120.537 15.3438 120.838 15.9376 120.838 16.6755C120.838 17.1704 120.717 17.6023 120.474 17.9712C120.231 18.3311 119.898 18.6101 119.475 18.808C119.052 19.006 118.566 19.105 118.017 19.105L118.274 18.5516C118.868 18.5516 119.394 18.6506 119.853 18.8485C120.312 19.0375 120.667 19.3209 120.919 19.6988C121.18 20.0768 121.311 20.5402 121.311 21.089C121.311 21.8989 120.991 22.5332 120.352 22.9921C119.713 23.442 118.773 23.667 117.531 23.667H112.645ZM114.818 22.0203H117.369C117.936 22.0203 118.364 21.9304 118.652 21.7504C118.949 21.5614 119.097 21.2645 119.097 20.8596C119.097 20.4637 118.949 20.1712 118.652 19.9823C118.364 19.7843 117.936 19.6853 117.369 19.6853H114.656V18.0927H116.991C117.522 18.0927 117.927 18.0027 118.206 17.8227C118.494 17.6338 118.638 17.3503 118.638 16.9724C118.638 16.6035 118.494 16.329 118.206 16.1491C117.927 15.9601 117.522 15.8656 116.991 15.8656H114.818V22.0203ZM126.273 23.775C125.499 23.775 124.811 23.613 124.208 23.2891C123.614 22.9651 123.141 22.5242 122.791 21.9664C122.449 21.3995 122.278 20.7561 122.278 20.0363C122.278 19.3074 122.449 18.6641 122.791 18.1062C123.141 17.5393 123.614 17.0984 124.208 16.7834C124.811 16.4595 125.499 16.2976 126.273 16.2976C127.038 16.2976 127.721 16.4595 128.324 16.7834C128.927 17.0984 129.4 17.5348 129.742 18.0927C130.083 18.6506 130.254 19.2984 130.254 20.0363C130.254 20.7561 130.083 21.3995 129.742 21.9664C129.4 22.5242 128.927 22.9651 128.324 23.2891C127.721 23.613 127.038 23.775 126.273 23.775ZM126.273 22.0473C126.624 22.0473 126.939 21.9664 127.218 21.8044C127.497 21.6424 127.717 21.413 127.879 21.116C128.041 20.8101 128.122 20.4502 128.122 20.0363C128.122 19.6133 128.041 19.2534 127.879 18.9565C127.717 18.6596 127.497 18.4301 127.218 18.2681C126.939 18.1062 126.624 18.0252 126.273 18.0252C125.922 18.0252 125.607 18.1062 125.328 18.2681C125.049 18.4301 124.824 18.6596 124.653 18.9565C124.491 19.2534 124.41 19.6133 124.41 20.0363C124.41 20.4502 124.491 20.8101 124.653 21.116C124.824 21.413 125.049 21.6424 125.328 21.8044C125.607 21.9664 125.922 22.0473 126.273 22.0473ZM130.52 23.667L133.773 19.4019L133.732 20.5626L130.614 16.4055H132.976L134.947 19.1185L134.056 19.1454L136.094 16.4055H138.335L135.203 20.5222V19.3884L138.443 23.667H136.054L133.989 20.7786L134.866 20.9001L132.814 23.667H130.52Z" fill="black"/>
<path d="M55.3654 41.041V40.4674L58.6385 37.2618C58.9384 36.9694 59.1634 36.7144 59.3133 36.497C59.4633 36.272 59.5645 36.0621 59.617 35.8671C59.6695 35.6722 59.6957 35.4884 59.6957 35.316C59.6957 34.8586 59.5383 34.4986 59.2233 34.2362C58.9159 33.9738 58.4585 33.8425 57.8511 33.8425C57.3862 33.8425 56.9738 33.9138 56.6139 34.0562C56.2615 34.1987 55.9578 34.4199 55.7028 34.7199L55.1292 34.225C55.4366 33.865 55.8303 33.5876 56.3102 33.3926C56.7901 33.1977 57.3263 33.1002 57.9186 33.1002C58.451 33.1002 58.9122 33.1864 59.3021 33.3589C59.692 33.5239 59.9919 33.7676 60.2019 34.09C60.4193 34.4124 60.5281 34.7911 60.5281 35.226C60.5281 35.4809 60.4906 35.7321 60.4156 35.9796C60.3481 36.227 60.2206 36.4895 60.0332 36.7669C59.8532 37.0369 59.587 37.3443 59.2346 37.6892L56.2315 40.6361L56.0065 40.3212H60.888V41.041H55.3654ZM64.39 41.1085C63.8277 41.1085 63.2915 41.0185 62.7816 40.8386C62.2717 40.6511 61.8668 40.4037 61.5669 40.0962L61.9606 39.4551C62.208 39.7175 62.5454 39.935 62.9728 40.1075C63.4078 40.2799 63.8764 40.3662 64.3788 40.3662C65.0462 40.3662 65.5523 40.2199 65.8972 39.9275C66.2497 39.6276 66.4259 39.2376 66.4259 38.7577C66.4259 38.4203 66.3434 38.1316 66.1784 37.8917C66.021 37.6442 65.751 37.453 65.3686 37.3181C64.9862 37.1831 64.4613 37.1156 63.7939 37.1156H62.118L62.5229 33.1677H66.8308V33.8875H62.8491L63.2653 33.4939L62.9166 36.8007L62.5004 36.3957H63.9739C64.7687 36.3957 65.4061 36.4932 65.886 36.6882C66.3659 36.8831 66.7108 37.1568 66.9208 37.5093C67.1382 37.8542 67.2469 38.2591 67.2469 38.724C67.2469 39.1664 67.142 39.5713 66.932 39.9387C66.7221 40.2987 66.4071 40.5836 65.9872 40.7936C65.5673 41.0035 65.0349 41.1085 64.39 41.1085ZM71.4131 41.1085C70.8058 41.1085 70.2659 40.951 69.7935 40.6361C69.3211 40.3137 68.9499 39.8563 68.68 39.2639C68.41 38.664 68.275 37.9442 68.275 37.1043C68.275 36.2645 68.41 35.5484 68.68 34.9561C68.9499 34.3562 69.3211 33.8988 69.7935 33.5838C70.2659 33.2614 70.8058 33.1002 71.4131 33.1002C72.0205 33.1002 72.5604 33.2614 73.0328 33.5838C73.5052 33.8988 73.8764 34.3562 74.1463 34.9561C74.4237 35.5484 74.5625 36.2645 74.5625 37.1043C74.5625 37.9442 74.4237 38.664 74.1463 39.2639C73.8764 39.8563 73.5052 40.3137 73.0328 40.6361C72.5604 40.951 72.0205 41.1085 71.4131 41.1085ZM71.4131 40.3662C71.878 40.3662 72.2829 40.2424 72.6279 39.995C72.9728 39.74 73.2427 39.3726 73.4377 38.8927C73.6327 38.4053 73.7301 37.8092 73.7301 37.1043C73.7301 36.3995 73.6327 35.8071 73.4377 35.3272C73.2427 34.8398 72.9728 34.4724 72.6279 34.225C72.2829 33.97 71.878 33.8425 71.4131 33.8425C70.9632 33.8425 70.5621 33.97 70.2096 34.225C69.8572 34.4724 69.5835 34.8398 69.3886 35.3272C69.1936 35.8071 69.0961 36.3995 69.0961 37.1043C69.0961 37.8092 69.1936 38.4053 69.3886 38.8927C69.5835 39.3726 69.8572 39.74 70.2096 39.995C70.5621 40.2424 70.9632 40.3662 71.4131 40.3662ZM79.3633 41.041V33.1677H80.0494L85.482 40.0062H85.1221V33.1677H85.9431V41.041H85.257L79.8357 34.2025H80.1956V41.041H79.3633ZM90.7512 41.0973C90.1813 41.0973 89.6677 40.9698 89.2103 40.7148C88.7604 40.4524 88.4042 40.0962 88.1418 39.6463C87.8793 39.1889 87.7481 38.6678 87.7481 38.0829C87.7481 37.4905 87.8793 36.9694 88.1418 36.5195C88.4042 36.0696 88.7604 35.7171 89.2103 35.4622C89.6602 35.2072 90.1738 35.0798 90.7512 35.0798C91.3361 35.0798 91.8535 35.2072 92.3034 35.4622C92.7608 35.7171 93.117 36.0696 93.3719 36.5195C93.6344 36.9694 93.7656 37.4905 93.7656 38.0829C93.7656 38.6678 93.6344 39.1889 93.3719 39.6463C93.117 40.0962 92.7608 40.4524 92.3034 40.7148C91.846 40.9698 91.3286 41.0973 90.7512 41.0973ZM90.7512 40.3887C91.1786 40.3887 91.5573 40.2949 91.8872 40.1075C92.2172 39.9125 92.4759 39.6426 92.6633 39.2976C92.8583 38.9452 92.9558 38.5403 92.9558 38.0829C92.9558 37.618 92.8583 37.2131 92.6633 36.8681C92.4759 36.5232 92.2172 36.257 91.8872 36.0696C91.5573 35.8746 91.1824 35.7771 90.7625 35.7771C90.3426 35.7771 89.9676 35.8746 89.6377 36.0696C89.3078 36.257 89.0453 36.5232 88.8504 36.8681C88.6554 37.2131 88.5579 37.618 88.5579 38.0829C88.5579 38.5403 88.6554 38.9452 88.8504 39.2976C89.0453 39.6426 89.3078 39.9125 89.6377 40.1075C89.9676 40.2949 90.3388 40.3887 90.7512 40.3887ZM96.9819 41.0973C96.4945 41.0973 96.0333 41.0298 95.5984 40.8948C95.1635 40.7523 94.8223 40.5761 94.5749 40.3662L94.9348 39.7363C95.1748 39.9163 95.4822 40.0737 95.8571 40.2087C96.232 40.3362 96.6257 40.3999 97.0381 40.3999C97.6005 40.3999 98.0054 40.3137 98.2529 40.1412C98.5003 39.9612 98.624 39.725 98.624 39.4326C98.624 39.2152 98.5528 39.0464 98.4103 38.9265C98.2754 38.799 98.0954 38.7053 97.8704 38.6453C97.6455 38.5778 97.3943 38.5215 97.1168 38.4766C96.8394 38.4316 96.562 38.3791 96.2845 38.3191C96.0146 38.2591 95.7671 38.1729 95.5422 38.0604C95.3172 37.9404 95.1335 37.7792 94.991 37.5767C94.8561 37.3743 94.7886 37.1043 94.7886 36.7669C94.7886 36.4445 94.8786 36.1558 95.0585 35.9009C95.2385 35.6459 95.5009 35.4472 95.8459 35.3047C96.1983 35.1548 96.6257 35.0798 97.1281 35.0798C97.5105 35.0798 97.8929 35.1323 98.2754 35.2372C98.6578 35.3347 98.9727 35.4659 99.2202 35.6309L98.8715 36.272C98.609 36.0921 98.3278 35.9646 98.0279 35.8896C97.728 35.8071 97.428 35.7659 97.1281 35.7659C96.5957 35.7659 96.202 35.8596 95.9471 36.0471C95.6996 36.227 95.5759 36.4595 95.5759 36.7444C95.5759 36.9694 95.6434 37.1456 95.7784 37.2731C95.9209 37.4005 96.1046 37.5018 96.3295 37.5767C96.562 37.6442 96.8132 37.7005 97.0831 37.7455C97.3605 37.7905 97.6342 37.8467 97.9042 37.9142C98.1816 37.9742 98.4328 38.0604 98.6578 38.1729C98.8902 38.2778 99.0739 38.4316 99.2089 38.634C99.3514 38.829 99.4226 39.0877 99.4226 39.4101C99.4226 39.755 99.3251 40.055 99.1302 40.3099C98.9427 40.5574 98.6653 40.7523 98.2978 40.8948C97.9379 41.0298 97.4993 41.0973 96.9819 41.0973ZM99.4933 42.1658L103.205 31.5705H103.936L100.224 42.1658H99.4933ZM106.339 41.0973C105.754 41.0973 105.229 40.9698 104.764 40.7148C104.307 40.4524 103.947 40.0962 103.684 39.6463C103.422 39.1889 103.29 38.6678 103.29 38.0829C103.29 37.4905 103.422 36.9694 103.684 36.5195C103.947 36.0696 104.307 35.7171 104.764 35.4622C105.229 35.2072 105.754 35.0798 106.339 35.0798C106.841 35.0798 107.295 35.1773 107.7 35.3722C108.104 35.5672 108.423 35.8596 108.656 36.2495L108.059 36.6544C107.857 36.3545 107.606 36.1333 107.306 35.9908C107.006 35.8484 106.68 35.7771 106.327 35.7771C105.907 35.7771 105.529 35.8746 105.191 36.0696C104.854 36.257 104.588 36.5232 104.393 36.8681C104.198 37.2131 104.1 37.618 104.1 38.0829C104.1 38.5478 104.198 38.9527 104.393 39.2976C104.588 39.6426 104.854 39.9125 105.191 40.1075C105.529 40.2949 105.907 40.3887 106.327 40.3887C106.68 40.3887 107.006 40.3174 107.306 40.1749C107.606 40.0325 107.857 39.815 108.059 39.5226L108.656 39.9275C108.423 40.3099 108.104 40.6024 107.7 40.8048C107.295 40.9998 106.841 41.0973 106.339 41.0973ZM112.157 41.0973C111.602 41.0973 111.175 40.9473 110.875 40.6473C110.575 40.3474 110.425 39.9238 110.425 39.3764V33.8313H111.224V39.3314C111.224 39.6763 111.31 39.9425 111.483 40.13C111.662 40.3174 111.917 40.4111 112.247 40.4111C112.6 40.4111 112.892 40.3099 113.125 40.1075L113.406 40.6811C113.248 40.8236 113.057 40.9285 112.832 40.996C112.615 41.0635 112.39 41.0973 112.157 41.0973ZM109.368 35.7996V35.136H113.023V35.7996H109.368ZM117.874 35.0798C118.354 35.0798 118.774 35.1735 119.134 35.361C119.501 35.5409 119.786 35.8184 119.989 36.1933C120.198 36.5682 120.303 37.0406 120.303 37.6105V41.041H119.505V37.6892C119.505 37.0669 119.347 36.5982 119.032 36.2833C118.725 35.9608 118.29 35.7996 117.728 35.7996C117.308 35.7996 116.94 35.8859 116.625 36.0583C116.318 36.2233 116.078 36.467 115.906 36.7894C115.741 37.1043 115.658 37.4868 115.658 37.9367V41.041H114.86V35.136H115.624V36.7557L115.501 36.452C115.688 36.0246 115.988 35.6909 116.401 35.4509C116.813 35.2035 117.304 35.0798 117.874 35.0798Z" fill="black"/>
<defs>
<filter id="filter0_d_2040_984" x="0.000195503" y="0.000195503" width="48.6441" height="48.7096" filterUnits="userSpaceOnUse" color-interpolation-filters="sRGB">
<feFlood flood-opacity="0" result="BackgroundImageFix"/>
<feColorMatrix in="SourceAlpha" type="matrix" values="0 0 0 0 0 0 0 0 0 0 0 0 0 0 0 0 0 0 127 0" result="hardAlpha"/>
<feOffset dy="-3"/>
<feGaussianBlur stdDeviation="2.1"/>
<feComposite in2="hardAlpha" operator="out"/>
<feColorMatrix type="matrix" values="0 0 0 0 0 0 0 0 0 0 0 0 0 0 0 0 0 0 0.25 0"/>
<feBlend mode="normal" in2="BackgroundImageFix" result="effect1_dropShadow_2040_984"/>
<feBlend mode="normal" in="SourceGraphic" in2="effect1_dropShadow_2040_984" result="shape"/>
</filter>
</defs>
</svg>
