<svg width="325" height="76" viewBox="0 0 325 76" fill="none" xmlns="http://www.w3.org/2000/svg">
<path d="M20.014 46.8585C18.0072 46.8613 16.0834 46.6012 14.2427 46.0782C12.4019 45.5313 10.9192 44.8286 9.79447 43.9701L11.7561 39.5953C12.8329 40.3583 14.1004 40.9897 15.5588 41.4893C17.0411 41.965 18.5348 42.2018 20.0399 42.1997C21.1866 42.1981 22.1062 42.0893 22.7986 41.8733C23.5148 41.6334 24.0397 41.3101 24.3733 40.9035C24.7069 40.4969 24.8732 40.0308 24.872 39.5052C24.8706 38.8363 24.6067 38.311 24.0803 37.9295C23.5538 37.5241 22.8603 37.2026 21.9997 36.9649C21.1391 36.7033 20.1829 36.4657 19.1313 36.2522C18.1035 36.0147 17.0636 35.7295 16.0117 35.3965C14.9837 35.0635 14.0391 34.6348 13.1779 34.1104C12.3167 33.586 11.6105 32.8942 11.0591 32.0349C10.5317 31.1755 10.2666 30.0769 10.2637 28.739C10.2606 27.3056 10.6401 26.003 11.4021 24.8313C12.188 23.6356 13.3566 22.6903 14.908 21.9953C16.4833 21.2763 18.4535 20.9152 20.8187 20.9119C22.3955 20.9097 23.9488 21.0986 25.4787 21.4787C27.0084 21.8349 28.3594 22.3825 29.5317 23.1215L27.7493 27.5318C26.5772 26.8645 25.4055 26.3764 24.2342 26.0675C23.0628 25.7347 21.9157 25.569 20.7928 25.5706C19.67 25.5722 18.7504 25.7049 18.0343 25.9687C17.3181 26.2325 16.8052 26.5797 16.4955 27.0101C16.1858 27.4167 16.0316 27.8947 16.0327 28.4442C16.0341 29.0893 16.298 29.6145 16.8245 30.0199C17.3509 30.4014 18.0444 30.711 18.905 30.9487C19.7655 31.1864 20.7097 31.424 21.7376 31.6615C22.7893 31.8989 23.8291 32.1722 24.8571 32.4813C25.9089 32.7904 26.8655 33.2072 27.7266 33.7315C28.5878 34.2559 29.2821 34.9478 29.8096 35.8071C30.3609 36.6664 30.638 37.7531 30.6408 39.0671C30.6438 40.4766 30.2523 41.7673 29.4664 42.939C28.6805 44.1108 27.4999 45.0561 25.9247 45.7751C24.3733 46.494 22.4031 46.8551 20.014 46.8585ZM36.0568 46.4059L36.0033 21.3205L48.2593 21.3033C51.4129 21.2989 53.7793 21.8928 55.3587 23.0851C56.9619 24.2774 57.7656 25.8531 57.7698 27.8121C57.7726 29.1261 57.4525 30.2733 56.8095 31.2538C56.1665 32.2103 55.2841 32.9521 54.1624 33.4793C53.0406 34.0065 51.7511 34.2711 50.2938 34.2732L50.9715 32.8029C52.5483 32.8007 53.9465 33.0615 55.166 33.5854C56.3855 34.0854 57.3308 34.8366 58.0019 35.8391C58.6969 36.8416 59.0459 38.0714 59.049 39.5288C59.0536 41.679 58.2091 43.3644 56.5154 44.5853C54.8217 45.7822 52.3264 46.383 49.0295 46.3876L36.0568 46.4059ZM41.8171 42.0257L48.5901 42.0162C50.0953 42.0141 51.2296 41.7736 51.993 41.2947C52.7804 40.7919 53.1729 40.0029 53.1706 38.9278C53.1684 37.8766 52.7725 37.1007 51.983 36.6001C51.2174 36.0756 50.082 35.8144 48.5769 35.8165L41.3738 35.8267L41.3648 31.598L47.5645 31.5893C48.974 31.5873 50.0486 31.3469 50.7882 30.868C51.5516 30.3652 51.9323 29.6121 51.9302 28.6087C51.9281 27.6292 51.5443 26.9011 50.7787 26.4243C50.0371 25.9237 48.9614 25.6743 47.5519 25.6763L41.7822 25.6844L41.8171 42.0257ZM63.7647 38.5187L63.7551 34.0392L73.8968 34.0249L73.9063 38.5045L63.7647 38.5187ZM84.0507 46.3383L84.0073 25.9834L75.98 25.9947L75.9699 21.2643L97.83 21.2335L97.8401 25.9639L89.8128 25.9752L89.8562 46.3302L84.0507 46.3383ZM107.748 31.3254L119.825 31.3084L119.835 35.8238L107.758 35.8408L107.748 31.3254ZM108.2 41.6456L121.854 41.6264L121.864 46.2851L102.441 46.3124L102.387 21.2271L121.344 21.2004L121.354 25.8591L108.167 25.8777L108.2 41.6456ZM126.089 38.431L126.079 33.9515L136.221 33.9372L136.231 38.4168L126.089 38.431ZM149.427 46.6764C147.683 46.6788 145.95 46.4543 144.229 46.0028C142.532 45.5274 141.073 44.8605 139.853 44.0021L142.137 39.5552C143.094 40.2467 144.194 40.7946 145.437 41.199C146.704 41.6034 147.983 41.8047 149.273 41.8028C150.73 41.8008 151.876 41.5125 152.711 40.9379C153.546 40.3634 153.963 39.5624 153.961 38.5351C153.959 37.8901 153.791 37.317 153.455 36.8157C153.12 36.3145 152.522 35.9331 151.661 35.6715C150.824 35.4099 149.641 35.2801 148.112 35.2823L141.698 35.2913L142.958 21.17L158.26 21.1485L158.27 25.8072L145.046 25.8258L148.051 23.1697L147.176 33.2409L144.16 30.5933L149.464 30.5858C151.949 30.5823 153.944 30.9259 155.451 31.6166C156.981 32.2834 158.094 33.2017 158.79 34.3713C159.485 35.541 159.834 36.8665 159.837 38.3477C159.84 39.8289 159.473 41.2032 158.735 42.4704C157.997 43.7138 156.853 44.7308 155.301 45.5213C153.774 46.288 151.816 46.673 149.427 46.6764ZM174.395 46.6412C172.34 46.6441 170.499 46.145 168.873 45.1439C167.246 44.1189 165.965 42.6394 165.029 40.7056C164.093 38.7717 163.622 36.4311 163.616 33.6837C163.61 30.9362 164.071 28.5943 164.999 26.6578C165.926 24.7213 167.201 23.2503 168.824 22.2446C170.446 21.215 172.285 20.6987 174.339 20.6958C176.418 20.6929 178.259 21.204 179.861 22.229C181.488 23.2301 182.769 24.6976 183.705 26.6315C184.641 28.5653 185.112 30.906 185.118 33.6534C185.124 36.4008 184.663 38.7428 183.735 40.6793C182.808 42.6157 181.533 44.0988 179.91 45.1283C178.312 46.134 176.473 46.6383 174.395 46.6412ZM174.384 41.7317C175.364 41.7303 176.211 41.4544 176.927 40.9039C177.666 40.3533 178.238 39.4805 178.641 38.2854C179.069 37.0902 179.281 35.549 179.277 33.6616C179.273 31.7742 179.054 30.2336 178.622 29.0397C178.213 27.8457 177.638 26.9745 176.896 26.426C176.178 25.8776 175.329 25.604 174.35 25.6054C173.394 25.6067 172.547 25.8827 171.807 26.4332C171.092 26.9837 170.52 27.8565 170.093 29.0517C169.689 30.2468 169.489 31.788 169.493 33.6754C169.497 35.5628 169.704 37.1034 170.112 38.2974C170.545 39.4913 171.12 40.3625 171.838 40.911C172.58 41.4595 173.429 41.733 174.384 41.7317ZM200.151 46.605C198.096 46.6079 196.255 46.1088 194.629 45.1076C193.002 44.0826 191.721 42.6032 190.785 40.6693C189.849 38.7355 189.378 36.3949 189.372 33.6474C189.366 30.9 189.827 28.558 190.755 26.6216C191.682 24.6851 192.957 23.214 194.58 22.2083C196.202 21.1787 198.041 20.6625 200.095 20.6596C202.174 20.6567 204.015 21.1677 205.617 22.1928C207.244 23.1939 208.525 24.6614 209.461 26.5952C210.397 28.5291 210.868 30.8697 210.874 33.6172C210.88 36.3646 210.419 38.7065 209.491 40.643C208.564 42.5795 207.289 44.0625 205.666 45.0921C204.068 46.0978 202.229 46.6021 200.151 46.605ZM200.14 41.6954C201.12 41.694 201.967 41.4181 202.683 40.8676C203.422 40.3171 203.994 39.4443 204.397 38.2491C204.825 37.054 205.037 35.5127 205.033 33.6254C205.029 31.738 204.81 30.1973 204.378 29.0034C203.969 27.8094 203.394 26.9382 202.652 26.3898C201.934 25.8413 201.085 25.5678 200.106 25.5691C199.15 25.5705 198.303 25.8464 197.563 26.397C196.848 26.9475 196.276 27.8203 195.849 29.0154C195.445 30.2105 195.245 31.7518 195.249 33.6391C195.253 35.5265 195.46 37.0672 195.868 38.2612C196.301 39.4551 196.876 40.3263 197.594 40.8748C198.336 41.4232 199.185 41.6968 200.14 41.6954ZM237.002 53.362C235.186 53.3646 233.43 53.1401 231.732 52.6885C230.059 52.2609 228.66 51.6058 227.535 50.7235L229.749 46.7067C230.562 47.3745 231.591 47.8986 232.834 48.2791C234.101 48.6835 235.344 48.8848 236.562 48.8831C238.545 48.8803 239.978 48.4363 240.86 47.5511C241.766 46.6659 242.217 45.3512 242.213 43.6072L242.207 40.7045L242.555 35.8661L242.473 30.9925L242.464 26.8355L247.768 26.828L247.802 42.8826C247.81 46.4662 246.883 49.1075 245.024 50.8064C243.164 52.5052 240.49 53.3571 237.002 53.362ZM236.124 45.1926C234.332 45.1951 232.707 44.8151 231.248 44.0527C229.813 43.2663 228.652 42.1809 227.765 40.7965C226.902 39.3881 226.468 37.7522 226.464 35.8887C226.46 34.0014 226.887 32.3642 227.744 30.9774C228.625 29.5666 229.781 28.4779 231.213 27.7114C232.669 26.9448 234.293 26.5603 236.084 26.5578C237.709 26.5555 239.143 26.8879 240.387 27.5551C241.631 28.1984 242.6 29.2124 243.296 30.5971C243.992 31.9579 244.342 33.7134 244.347 35.8636C244.351 37.9899 244.009 39.7463 243.319 41.133C242.629 42.4957 241.663 43.5124 240.422 44.1831C239.182 44.8538 237.749 45.1903 236.124 45.1926ZM237.225 40.604C238.205 40.6026 239.076 40.4103 239.84 40.0269C240.604 39.6197 241.2 39.0574 241.628 38.3401C242.057 37.6228 242.27 36.7982 242.268 35.8665C242.266 34.9109 242.049 34.0869 241.618 33.3947C241.186 32.6786 240.588 32.1299 239.823 31.7488C239.057 31.3437 238.185 31.1419 237.205 31.1432C236.226 31.1446 235.354 31.3489 234.59 31.7561C233.827 32.1395 233.219 32.6898 232.766 33.4072C232.338 34.1006 232.124 34.9251 232.127 35.8808C232.129 36.8125 232.345 37.6364 232.777 38.3526C233.232 39.0686 233.843 39.6292 234.608 40.0343C235.373 40.4155 236.246 40.6054 237.225 40.604Z" fill="#490606"/>
<path d="M44.8072 68.2902C44.3306 67.5703 43.9606 66.7394 43.6972 65.7974C43.4418 64.8476 43.313 63.8263 43.3106 62.7335C43.3083 61.6407 43.4328 60.6191 43.6842 59.6685C43.9434 58.71 44.3099 57.878 44.7835 57.1726L46.5533 57.1701C46.0563 58.0656 45.694 58.9689 45.4663 59.8798C45.2386 60.7828 45.1258 61.7332 45.1279 62.7309C45.13 63.7287 45.2469 64.6827 45.4785 65.593C45.71 66.4954 46.0762 67.3936 46.577 68.2877L44.8072 68.2902ZM47.6817 65.9819L47.664 57.6674L49.5882 57.6647L49.6059 65.9791L47.6817 65.9819ZM51.5791 65.9764L51.5614 57.662L53.153 57.6597L56.7051 63.5223L55.8617 63.5235L59.3294 57.651L60.9091 57.6488L60.9506 65.9632L59.1452 65.9657L59.1215 60.4188L59.4541 60.4184L56.6846 65.0902L55.8176 65.0915L52.9688 60.4275L53.3727 60.4269L53.3845 65.9738L51.5791 65.9764ZM62.9233 65.9604L62.9055 57.646L64.8297 57.6433L64.8441 64.3898L69.0132 64.384L69.0165 65.9518L62.9233 65.9604ZM73.4555 65.9456L73.4378 57.6312L75.0294 57.6289L78.5814 63.4916L77.7381 63.4927L81.2058 57.6202L82.7855 57.618L82.827 65.9324L81.0216 65.9349L80.9979 60.3881L81.3305 60.3876L78.561 65.0594L77.694 65.0607L74.8452 60.3967L75.2491 60.3961L75.2609 65.943L73.4555 65.9456ZM88.8384 66.0665C88.1812 66.0674 87.5712 65.9614 87.0085 65.7483C86.4538 65.5353 85.9701 65.2351 85.5575 64.8477C85.1529 64.4602 84.8351 64.0054 84.6044 63.4831C84.3816 62.9608 84.2695 62.3908 84.2682 61.7732C84.2669 61.1555 84.3765 60.5852 84.5971 60.0623C84.8256 59.5393 85.1453 59.0836 85.5563 58.695C85.9672 58.3064 86.4496 58.0048 87.0034 57.7903C87.5573 57.5757 88.1589 57.4679 88.8082 57.467C89.4654 57.4661 90.0674 57.5721 90.6143 57.7852C91.169 57.9982 91.6487 58.2984 92.0534 58.6859C92.466 59.0733 92.7877 59.5281 93.0184 60.0504C93.2492 60.5648 93.3652 61.1348 93.3665 61.7603C93.3678 62.378 93.2542 62.9522 93.0257 63.4831C92.7972 64.006 92.4775 64.4618 92.0666 64.8504C91.6635 65.2311 91.1851 65.5287 90.6312 65.7432C90.0853 65.9578 89.4877 66.0656 88.8384 66.0665ZM88.823 64.4274C89.1952 64.4268 89.5355 64.363 89.8441 64.2359C90.1606 64.1087 90.4373 63.9262 90.6744 63.6883C90.9114 63.4504 91.0929 63.1691 91.219 62.8442C91.3529 62.5194 91.4194 62.159 91.4186 61.7631C91.4177 61.3672 91.3496 61.007 91.2143 60.6825C91.087 60.358 90.9042 60.0772 90.6662 59.8399C90.436 59.6027 90.1624 59.421 89.8454 59.2947C89.5284 59.1685 89.1838 59.1056 88.8117 59.1061C88.4395 59.1067 88.0952 59.1705 87.7787 59.2976C87.4702 59.4248 87.1974 59.6073 86.9603 59.8452C86.7233 60.0831 86.5378 60.3644 86.4039 60.6893C86.2779 61.0141 86.2153 61.3745 86.2161 61.7704C86.2169 62.1584 86.2811 62.5186 86.4085 62.851C86.5438 63.1755 86.7265 63.4563 86.9566 63.6936C87.1947 63.9308 87.4722 64.1125 87.7892 64.2388C88.1063 64.365 88.4508 64.4279 88.823 64.4274ZM98.8484 66.0524C98.199 66.0533 97.593 65.9473 97.0304 65.7342C96.4756 65.5212 95.992 65.221 95.5794 64.8336C95.1747 64.4461 94.857 63.9913 94.6262 63.469C94.4034 62.9467 94.2913 62.3767 94.29 61.759C94.2887 61.1414 94.3983 60.5711 94.6189 60.0482C94.8475 59.5252 95.1672 59.0695 95.5781 58.6809C95.9891 58.2923 96.4715 57.9907 97.0253 57.7761C97.5791 57.5616 98.1807 57.4538 98.83 57.4529C99.4873 57.452 100.089 57.558 100.636 57.7711C101.191 57.9841 101.671 58.2843 102.075 58.6718C102.488 59.0513 102.809 59.5022 103.04 60.0245C103.271 60.5468 103.387 61.1207 103.388 61.7462C103.39 62.3639 103.276 62.9381 103.048 63.469C102.819 63.9919 102.499 64.4477 102.088 64.8363C101.685 65.2169 101.207 65.5146 100.653 65.7291C100.107 65.9437 99.5056 66.0515 98.8484 66.0524ZM101.572 67.8183C101.247 67.8188 100.939 67.7836 100.645 67.7127C100.36 67.6419 100.075 67.5275 99.7895 67.3695C99.512 67.2115 99.2186 66.9981 98.9092 66.7293C98.6077 66.4605 98.2784 66.1284 97.9212 65.733L99.9393 65.2194C100.154 65.5121 100.352 65.7454 100.535 65.9194C100.717 66.0933 100.892 66.2158 101.058 66.2868C101.232 66.3579 101.415 66.3932 101.605 66.393C102.112 66.3922 102.562 66.1857 102.957 65.7734L103.815 66.7937C103.254 67.4755 102.507 67.817 101.572 67.8183ZM98.8449 64.4133C99.217 64.4127 99.5574 64.3489 99.8659 64.2218C100.182 64.0946 100.459 63.9121 100.696 63.6742C100.933 63.4363 101.115 63.155 101.241 62.8301C101.375 62.4974 101.441 62.137 101.44 61.749C101.44 61.3531 101.371 60.9929 101.236 60.6684C101.109 60.3439 100.926 60.0631 100.688 59.8258C100.45 59.5886 100.172 59.4069 99.8554 59.2806C99.5463 59.1544 99.2057 59.0915 98.8335 59.092C98.4613 59.0926 98.117 59.1564 97.8006 59.2835C97.4841 59.4107 97.2073 59.5932 96.9703 59.8311C96.7412 60.069 96.5596 60.3503 96.4257 60.6752C96.2997 61 96.2371 61.3604 96.238 61.7563C96.2388 62.1443 96.3029 62.5045 96.4303 62.8369C96.5656 63.1614 96.7483 63.4422 96.9785 63.6795C97.2165 63.9167 97.4941 64.0984 97.8111 64.2247C98.1281 64.3509 98.4727 64.4138 98.8449 64.4133ZM107.833 63.296L107.83 61.8113L111.192 61.8065L111.195 63.2912L107.833 63.296ZM118.457 66.0248C117.879 66.0256 117.305 65.9512 116.735 65.8015C116.172 65.644 115.688 65.4229 115.284 65.1384L116.041 63.6645C116.358 63.8937 116.723 64.0753 117.135 64.2094C117.555 64.3434 117.979 64.4101 118.406 64.4095C118.889 64.4088 119.269 64.3132 119.546 64.1228C119.823 63.9324 119.961 63.6669 119.96 63.3264C119.96 63.1126 119.904 62.9227 119.793 62.7565C119.681 62.5904 119.483 62.464 119.198 62.3773C118.92 62.2906 118.528 62.2476 118.022 62.2483L115.896 62.2513L116.313 57.5708L121.385 57.5637L121.388 59.1078L117.005 59.114L118.001 58.2336L117.711 61.5717L116.712 60.6941L118.47 60.6917C119.293 60.6905 119.955 60.8044 120.454 61.0333C120.961 61.2543 121.33 61.5587 121.561 61.9463C121.791 62.334 121.907 62.7733 121.908 63.2643C121.909 63.7552 121.787 64.2107 121.543 64.6307C121.298 65.0429 120.919 65.3799 120.404 65.642C119.898 65.8961 119.249 66.0237 118.457 66.0248ZM126.258 66.0138C125.577 66.0148 124.967 65.8493 124.427 65.5175C123.888 65.1778 123.464 64.6874 123.153 64.0465C122.843 63.4055 122.687 62.6297 122.685 61.7191C122.683 60.8085 122.836 60.0322 123.144 59.3904C123.451 58.7486 123.874 58.261 124.411 57.9277C124.949 57.5864 125.558 57.4153 126.239 57.4143C126.928 57.4134 127.538 57.5828 128.07 57.9225C128.609 58.2543 129.034 58.7407 129.344 59.3817C129.654 60.0226 129.81 60.7984 129.812 61.7091C129.814 62.6197 129.661 63.3959 129.354 64.0377C129.046 64.6796 128.624 65.1711 128.086 65.5124C127.556 65.8457 126.947 66.0128 126.258 66.0138ZM126.254 64.3866C126.579 64.3861 126.86 64.2946 127.097 64.1122C127.342 63.9297 127.532 63.6404 127.665 63.2443C127.807 62.8482 127.877 62.3373 127.876 61.7118C127.874 61.0862 127.802 60.5756 127.659 60.1799C127.523 59.7841 127.333 59.4954 127.087 59.3136C126.849 59.1318 126.568 59.0411 126.243 59.0416C125.926 59.042 125.645 59.1335 125.4 59.316C125.163 59.4984 124.974 59.7877 124.832 60.1838C124.698 60.5799 124.632 61.0908 124.633 61.7163C124.635 62.3419 124.703 62.8526 124.838 63.2483C124.982 63.644 125.172 63.9328 125.41 64.1146C125.656 64.2963 125.938 64.387 126.254 64.3866ZM134.319 66.0025C133.638 66.0034 133.028 65.838 132.489 65.5062C131.95 65.1664 131.525 64.6761 131.215 64.0351C130.905 63.3942 130.749 62.6184 130.747 61.7077C130.745 60.7971 130.898 60.0209 131.205 59.3791C131.513 58.7372 131.935 58.2496 132.473 57.9163C133.011 57.5751 133.62 57.4039 134.301 57.403C134.99 57.402 135.6 57.5714 136.131 57.9112C136.67 58.243 137.095 58.7294 137.405 59.3703C137.715 60.0113 137.872 60.7871 137.873 61.6977C137.875 62.6083 137.723 63.3846 137.415 64.0264C137.108 64.6682 136.685 65.1598 136.147 65.501C135.618 65.8344 135.008 66.0015 134.319 66.0025ZM134.316 64.3752C134.64 64.3748 134.921 64.2833 135.159 64.1008C135.404 63.9184 135.593 63.6291 135.727 63.233C135.869 62.8368 135.939 62.326 135.937 61.7004C135.936 61.0749 135.864 60.5642 135.72 60.1685C135.585 59.7728 135.394 59.484 135.148 59.3022C134.91 59.1204 134.629 59.0298 134.304 59.0302C133.988 59.0307 133.707 59.1221 133.462 59.3046C133.225 59.4871 133.035 59.7764 132.893 60.1725C132.76 60.5686 132.693 61.0794 132.695 61.705C132.696 62.3306 132.764 62.8412 132.9 63.2369C133.043 63.6327 133.234 63.9214 133.472 64.1032C133.718 64.285 133.999 64.3757 134.316 64.3752ZM142.381 65.9911C141.7 65.9921 141.09 65.8267 140.551 65.4948C140.011 65.1551 139.587 64.6647 139.277 64.0238C138.966 63.3828 138.81 62.607 138.808 61.6964C138.806 60.7858 138.959 60.0095 139.267 59.3677C139.574 58.7259 139.997 58.2383 140.534 57.905C141.072 57.5637 141.682 57.3926 142.363 57.3916C143.051 57.3907 143.662 57.5601 144.193 57.8998C144.732 58.2316 145.157 58.718 145.467 59.359C145.777 59.9999 145.933 60.7757 145.935 61.6864C145.937 62.597 145.784 63.3732 145.477 64.0151C145.169 64.6569 144.747 65.1484 144.209 65.4897C143.679 65.823 143.07 65.9902 142.381 65.9911ZM142.377 64.3639C142.702 64.3634 142.983 64.272 143.22 64.0895C143.465 63.907 143.655 63.6177 143.788 63.2216C143.93 62.8255 144 62.3147 143.999 61.6891C143.998 61.0635 143.925 60.5529 143.782 60.1572C143.646 59.7614 143.456 59.4727 143.21 59.2909C142.972 59.1091 142.691 59.0184 142.366 59.0189C142.049 59.0193 141.768 59.1108 141.523 59.2933C141.286 59.4757 141.097 59.765 140.955 60.1611C140.821 60.5573 140.755 61.0681 140.756 61.6937C140.758 62.3192 140.826 62.8299 140.961 63.2256C141.105 63.6213 141.296 63.9101 141.533 64.0919C141.779 64.2737 142.061 64.3643 142.377 64.3639ZM150.765 65.8368L150.747 57.5224L154.346 57.5173C155.091 57.5163 155.732 57.6381 156.271 57.8828C156.81 58.1196 157.227 58.4635 157.521 58.9144C157.815 59.3654 157.962 59.9036 157.964 60.5292C157.965 61.1468 157.82 61.6815 157.528 62.1333C157.236 62.5851 156.821 62.9341 156.283 63.1803C155.745 63.4186 155.104 63.5383 154.359 63.5393L151.829 63.5429L152.683 62.6746L152.689 65.8341L150.765 65.8368ZM152.683 62.8884L151.826 61.975L154.249 61.9716C154.843 61.9708 155.286 61.8435 155.579 61.5897C155.871 61.3359 156.017 60.9833 156.016 60.5319C156.015 60.0726 155.868 59.7165 155.574 59.4635C155.28 59.2106 154.837 59.0845 154.243 59.0853L151.82 59.0887L152.673 58.1729L152.683 62.8884ZM162.295 65.9156C161.606 65.9166 160.992 65.7788 160.453 65.5025C159.914 65.2181 159.489 64.8268 159.18 64.3284C158.878 63.8299 158.726 63.2639 158.725 62.6305C158.723 61.9891 158.872 61.4227 159.172 60.9313C159.48 60.432 159.903 60.0434 160.441 59.7655C160.979 59.4797 161.592 59.3363 162.281 59.3353C162.954 59.3344 163.54 59.4761 164.04 59.7604C164.539 60.0369 164.908 60.4363 165.147 60.9585L163.711 61.7326C163.544 61.432 163.334 61.2105 163.08 61.0684C162.835 60.9262 162.565 60.8553 162.272 60.8557C161.955 60.8561 161.671 60.9278 161.417 61.0707C161.164 61.2136 160.963 61.4158 160.813 61.6773C160.671 61.9388 160.6 62.2557 160.601 62.6278C160.602 63 160.674 63.3166 160.817 63.5777C160.968 63.8388 161.17 64.0405 161.424 64.1827C161.678 64.3248 161.963 64.3957 162.28 64.3953C162.573 64.3948 162.842 64.3272 163.087 64.1922C163.34 64.0493 163.549 63.8233 163.715 63.5143L165.154 64.2962C164.918 64.8112 164.55 65.2116 164.052 65.4974C163.554 65.7752 162.968 65.9146 162.295 65.9156ZM168.374 65.907C167.828 65.9078 167.301 65.8452 166.794 65.7192C166.295 65.5853 165.899 65.4196 165.605 65.222L166.22 63.8908C166.513 64.0726 166.858 64.2225 167.254 64.3407C167.658 64.451 168.054 64.5059 168.442 64.5054C168.87 64.5048 169.171 64.4529 169.345 64.3497C169.527 64.2465 169.617 64.1038 169.617 63.9217C169.617 63.7712 169.545 63.6605 169.403 63.5894C169.268 63.5104 169.086 63.4513 168.856 63.412C168.626 63.3728 168.373 63.3335 168.095 63.2943C167.826 63.2551 167.553 63.204 167.276 63.1411C166.998 63.0702 166.745 62.9676 166.515 62.8333C166.285 62.699 166.098 62.5172 165.955 62.2877C165.82 62.0583 165.752 61.7614 165.751 61.3972C165.751 60.9933 165.865 60.6368 166.094 60.3277C166.33 60.0185 166.67 59.7765 167.114 59.6017C167.557 59.419 168.087 59.3272 168.705 59.3263C169.14 59.3257 169.584 59.3726 170.035 59.4669C170.487 59.5613 170.863 59.6994 171.164 59.8811L170.55 61.2004C170.24 61.0187 169.927 60.8964 169.611 60.8335C169.302 60.7627 169.001 60.7274 168.708 60.7279C168.296 60.7284 167.995 60.7843 167.805 60.8954C167.615 61.0065 167.521 61.1492 167.521 61.3234C167.521 61.4818 167.589 61.6005 167.724 61.6795C167.866 61.7584 168.053 61.8215 168.282 61.8687C168.512 61.9159 168.762 61.9591 169.031 61.9983C169.308 62.0296 169.585 62.0807 169.863 62.1516C170.14 62.2224 170.39 62.325 170.612 62.4593C170.842 62.5857 171.028 62.7636 171.171 62.993C171.314 63.2146 171.386 63.5074 171.387 63.8717C171.388 64.2676 171.27 64.6202 171.033 64.9293C170.796 65.2306 170.452 65.4686 170.001 65.6434C169.558 65.8183 169.016 65.9061 168.374 65.907ZM173.572 68.109L171.803 68.1115C172.315 67.216 172.682 66.3167 172.902 65.4137C173.129 64.5027 173.242 63.5484 173.24 62.5507C173.238 61.5529 173.121 60.6029 172.889 59.7005C172.666 58.7902 172.296 57.888 171.779 56.9939L173.549 56.9914C174.041 57.6955 174.415 58.5264 174.671 59.4842C174.926 60.434 175.055 61.4553 175.057 62.5481C175.059 63.6408 174.935 64.6625 174.684 65.6131C174.432 66.5557 174.062 67.3877 173.572 68.109Z" fill="black"/>
<path d="M176.466 61.6377H213.201" stroke="url(#paint0_linear_2040_949)" stroke-width="0.863039"/>
<path d="M35.7334 62.3809H-1.00184" stroke="url(#paint1_linear_2040_949)" stroke-width="0.863039"/>
<defs>
<linearGradient id="paint0_linear_2040_949" x1="207.691" y1="62.1377" x2="177.078" y2="62.1377" gradientUnits="userSpaceOnUse">
<stop stop-color="#666666" stop-opacity="0"/>
<stop offset="1"/>
</linearGradient>
<linearGradient id="paint1_linear_2040_949" x1="4.50845" y1="62.8808" x2="35.1211" y2="62.8808" gradientUnits="userSpaceOnUse">
<stop stop-color="#666666" stop-opacity="0"/>
<stop offset="1"/>
</linearGradient>
</defs>
</svg>
