<svg width="135" height="28" viewBox="0 0 135 28" fill="none" xmlns="http://www.w3.org/2000/svg">
<path d="M5.13066 27.1914V3.73779L7.6959 6.30303H0.0001763V1.53901H11.0674V27.1914H5.13066ZM19.4814 27.1914V3.73779L22.0466 6.30303H14.3509V1.53901H25.4181V27.1914H19.4814ZM40.5018 27.6312C38.3518 27.6312 36.4707 27.3136 34.8582 26.6784C33.2458 26.0187 31.9876 25.1026 31.0837 23.9299C30.1797 22.7328 29.7278 21.3402 29.7278 19.7522C29.7278 18.1642 30.1675 16.8205 31.047 15.7211C31.951 14.5973 33.2091 13.7544 34.8216 13.1925C36.434 12.6062 38.3274 12.313 40.5018 12.313C42.7005 12.313 44.6061 12.6062 46.2186 13.1925C47.8554 13.7544 49.1136 14.5973 49.9931 15.7211C50.8971 16.8205 51.3491 18.1642 51.3491 19.7522C51.3491 21.3402 50.8971 22.7328 49.9931 23.9299C49.0892 25.1026 47.8188 26.0187 46.1819 26.6784C44.5695 27.3136 42.6761 27.6312 40.5018 27.6312ZM40.5018 23.2703C41.992 23.2703 43.1647 22.9404 44.0198 22.2808C44.8993 21.6212 45.3391 20.7172 45.3391 19.569C45.3391 18.4207 44.8993 17.529 44.0198 16.8938C43.1647 16.2342 41.992 15.9044 40.5018 15.9044C39.0359 15.9044 37.8754 16.2342 37.0204 16.8938C36.1653 17.529 35.7377 18.4207 35.7377 19.569C35.7377 20.7172 36.1653 21.6212 37.0204 22.2808C37.8754 22.9404 39.0359 23.2703 40.5018 23.2703ZM40.5018 15.318C38.5229 15.318 36.7883 15.0493 35.298 14.5118C33.8321 13.9743 32.6839 13.1925 31.8532 12.1664C31.047 11.1159 30.6439 9.86993 30.6439 8.42851C30.6439 6.9138 31.0592 5.61896 31.8899 4.54401C32.7205 3.44462 33.881 2.60175 35.3713 2.01541C36.8616 1.40464 38.5717 1.09926 40.5018 1.09926C42.4807 1.09926 44.203 1.40464 45.6689 2.01541C47.1592 2.60175 48.3196 3.44462 49.1503 4.54401C50.0054 5.61896 50.4329 6.9138 50.4329 8.42851C50.4329 9.86993 50.0176 11.1159 49.1869 12.1664C48.3807 13.1925 47.2325 13.9743 45.7422 14.5118C44.2519 15.0493 42.5051 15.318 40.5018 15.318ZM40.5018 11.8366C41.7477 11.8366 42.725 11.5557 43.4335 10.9938C44.1664 10.4318 44.5328 9.66227 44.5328 8.68504C44.5328 7.65894 44.1542 6.86494 43.3968 6.30303C42.6639 5.74112 41.6989 5.46016 40.5018 5.46016C39.3291 5.46016 38.3763 5.74112 37.6433 6.30303C36.9104 6.86494 36.544 7.65894 36.544 8.68504C36.544 9.66227 36.8982 10.4318 37.6067 10.9938C38.3152 11.5557 39.2802 11.8366 40.5018 11.8366ZM65.0605 27.6312C62.9594 27.6312 61.0783 27.1181 59.417 26.092C57.7557 25.0415 56.4486 23.5268 55.4958 21.5479C54.543 19.569 54.0666 17.1748 54.0666 14.3652C54.0666 11.5557 54.543 9.16144 55.4958 7.18254C56.4486 5.20364 57.7557 3.70114 59.417 2.67504C61.0783 1.62452 62.9594 1.09926 65.0605 1.09926C67.186 1.09926 69.0672 1.62452 70.704 2.67504C72.3653 3.70114 73.6724 5.20364 74.6252 7.18254C75.578 9.16144 76.0544 11.5557 76.0544 14.3652C76.0544 17.1748 75.578 19.569 74.6252 21.5479C73.6724 23.5268 72.3653 25.0415 70.704 26.092C69.0672 27.1181 67.186 27.6312 65.0605 27.6312ZM65.0605 22.6106C66.0622 22.6106 66.9295 22.3297 67.6624 21.7678C68.4197 21.2058 69.0061 20.3141 69.4214 19.0926C69.8612 17.871 70.081 16.2952 70.081 14.3652C70.081 12.4352 69.8612 10.8594 69.4214 9.63784C69.0061 8.41629 68.4197 7.52457 67.6624 6.96266C66.9295 6.40075 66.0622 6.11979 65.0605 6.11979C64.0833 6.11979 63.216 6.40075 62.4586 6.96266C61.7257 7.52457 61.1393 8.41629 60.6996 9.63784C60.2843 10.8594 60.0766 12.4352 60.0766 14.3652C60.0766 16.2952 60.2843 17.871 60.6996 19.0926C61.1393 20.3141 61.7257 21.2058 62.4586 21.7678C63.216 22.3297 64.0833 22.6106 65.0605 22.6106ZM115.776 7.18254C117.339 7.18254 118.72 7.50014 119.917 8.13534C121.138 8.74611 122.091 9.69891 122.775 10.9938C123.484 12.2642 123.838 13.901 123.838 15.9044V27.1914H118.121V16.7839C118.121 15.1959 117.791 14.0232 117.132 13.2658C116.472 12.5085 115.544 12.1298 114.347 12.1298C113.516 12.1298 112.771 12.3252 112.111 12.7161C111.452 13.0826 110.938 13.6445 110.572 14.4019C110.206 15.1592 110.022 16.1242 110.022 17.2969V27.1914H104.306V16.7839C104.306 15.1959 103.976 14.0232 103.316 13.2658C102.681 12.5085 101.765 12.1298 100.568 12.1298C99.7369 12.1298 98.9918 12.3252 98.3322 12.7161C97.6725 13.0826 97.1595 13.6445 96.793 14.4019C96.4266 15.1592 96.2433 16.1242 96.2433 17.2969V27.1914H90.5265V7.47571H95.9868V12.8627L94.9607 11.2869C95.6448 9.94322 96.6098 8.92934 97.8558 8.24528C99.1262 7.53679 100.568 7.18254 102.18 7.18254C103.988 7.18254 105.564 7.64672 106.907 8.5751C108.276 9.47904 109.179 10.8716 109.619 12.7528L107.604 12.2031C108.263 10.6639 109.314 9.44239 110.755 8.53845C112.221 7.63451 113.895 7.18254 115.776 7.18254ZM128.962 27.1914V-0.000133899H134.679V27.1914H128.962Z" fill="#074517"/>
</svg>
