<svg width="130" height="36" viewBox="0 0 130 36" fill="none" xmlns="http://www.w3.org/2000/svg">
<circle cx="17.6922" cy="18.0008" r="17.6922" fill="#024731"/>
<path d="M26.939 27.9127C27.031 27.8229 27.0327 27.6755 26.9429 27.5835L25.4795 26.0844C25.3897 25.9924 25.2423 25.9906 25.1503 26.0804C25.0583 26.1702 25.0565 26.3176 25.1464 26.4096L26.4472 27.7421L25.1147 29.043C25.0227 29.1328 25.0209 29.2802 25.1107 29.3721C25.2005 29.4641 25.3479 29.4659 25.4399 29.3761L26.939 27.9127ZM9.69384 27.3759C9.60185 27.4657 9.60008 27.6131 9.68988 27.705L11.1533 29.2042C11.2431 29.2961 11.3905 29.2979 11.4825 29.2081C11.5745 29.1183 11.5763 28.9709 11.4865 28.8789L10.1856 27.5464L11.5182 26.2456C11.6101 26.1558 11.6119 26.0084 11.5221 25.9164C11.4323 25.8244 11.2849 25.8226 11.1929 25.9124L9.69384 27.3759ZM26.7764 27.7461L26.7792 27.5133L9.85925 27.3097L9.85645 27.5424L9.85364 27.7752L26.7736 27.9789L26.7764 27.7461Z" fill="white"/>
<path d="M18.3516 10.583C19.7849 10.583 21.0752 10.7457 22.001 11.0049C22.4653 11.1349 22.8269 11.2861 23.0674 11.4453C23.3156 11.6097 23.3896 11.7505 23.3896 11.8496C23.3896 11.9487 23.3156 12.0896 23.0674 12.2539C22.8269 12.4131 22.4652 12.5643 22.001 12.6943C21.0752 12.9535 19.7849 13.1162 18.3516 13.1162C16.918 13.1162 15.627 12.9536 14.7012 12.6943C14.2372 12.5644 13.8762 12.413 13.6357 12.2539C13.3875 12.0896 13.3136 11.9487 13.3135 11.8496C13.3135 11.7505 13.3874 11.6097 13.6357 11.4453C13.8762 11.2862 14.2371 11.1348 14.7012 11.0049C15.627 10.7456 16.918 10.583 18.3516 10.583Z" stroke="white" stroke-width="0.4"/>
<path d="M18.3516 9.74316C20.1283 9.74316 21.7282 9.99872 22.877 10.4062C23.4522 10.6104 23.9043 10.8487 24.208 11.1035C24.5127 11.3591 24.6465 11.6117 24.6465 11.8477C24.6465 12.0836 24.5127 12.3362 24.208 12.5918C23.9043 12.8466 23.4522 13.0849 22.877 13.2891C21.7282 13.6966 20.1283 13.9521 18.3516 13.9521C16.5748 13.9521 14.9749 13.6966 13.8262 13.2891C13.2509 13.0849 12.7988 12.8466 12.4951 12.5918C12.1904 12.3362 12.0566 12.0836 12.0566 11.8477C12.0567 11.6117 12.1904 11.3591 12.4951 11.1035C12.7988 10.8487 13.2509 10.6104 13.8262 10.4062C14.9749 9.99872 16.5748 9.74316 18.3516 9.74316Z" stroke="white" stroke-width="0.4"/>
<path d="M24.6381 12.2656C24.6381 13.7699 21.9391 14.7799 18.3519 14.7799C14.7647 14.7799 11.8566 13.7323 12.0663 12.2656" stroke="white" stroke-width="0.4"/>
<path d="M13.1787 20.9813C12.6987 17.7946 12.4854 13.3145 12.4854 13.3145C15.7486 15.3722 21.7146 14.957 24.2185 13.3145C24.2185 13.3145 24.2185 17.7946 23.7385 20.9813C23.2585 24.1681 13.6587 24.1681 13.1787 20.9813Z" stroke="white" stroke-width="0.4"/>
<path d="M43.7535 14.1895V6.37686H47.5705C48.5527 6.37686 49.2893 6.56288 49.7804 6.9349C50.2789 7.30693 50.5281 7.79801 50.5281 8.40814C50.5281 8.81737 50.4277 9.17451 50.2268 9.47958C50.0259 9.7772 49.7506 10.0079 49.4009 10.1715C49.0512 10.3352 48.6494 10.4171 48.1955 10.4171L48.4076 9.95949C48.8986 9.95949 49.3339 10.0413 49.7134 10.205C50.0929 10.3613 50.3868 10.5957 50.5951 10.9082C50.8109 11.2207 50.9188 11.6039 50.9188 12.0577C50.9188 12.7274 50.6546 13.2519 50.1263 13.6314C49.5981 14.0034 48.8205 14.1895 47.7937 14.1895H43.7535ZM45.5504 12.8278H47.6598C48.1285 12.8278 48.482 12.7534 48.7201 12.6046C48.9656 12.4484 49.0884 12.2028 49.0884 11.868C49.0884 11.5406 48.9656 11.2988 48.7201 11.1425C48.482 10.9789 48.1285 10.897 47.6598 10.897H45.4165V9.58002H47.3473C47.7863 9.58002 48.1211 9.50562 48.3518 9.35681C48.5899 9.20056 48.7089 8.96618 48.7089 8.65367C48.7089 8.34861 48.5899 8.12167 48.3518 7.97286C48.1211 7.81661 47.7863 7.73849 47.3473 7.73849H45.5504V12.8278ZM55.022 14.2787C54.3821 14.2787 53.8129 14.1448 53.3144 13.8769C52.8233 13.6091 52.4327 13.2445 52.1425 12.7832C51.8598 12.3144 51.7184 11.7824 51.7184 11.1872C51.7184 10.5845 51.8598 10.0525 52.1425 9.59119C52.4327 9.12243 52.8233 8.75784 53.3144 8.49742C53.8129 8.22956 54.3821 8.09563 55.022 8.09563C55.6545 8.09563 56.22 8.22956 56.7185 8.49742C57.217 8.75784 57.6076 9.11871 57.8904 9.58002C58.1731 10.0413 58.3145 10.5771 58.3145 11.1872C58.3145 11.7824 58.1731 12.3144 57.8904 12.7832C57.6076 13.2445 57.217 13.6091 56.7185 13.8769C56.22 14.1448 55.6545 14.2787 55.022 14.2787ZM55.022 12.8502C55.3122 12.8502 55.5726 12.7832 55.8033 12.6493C56.0339 12.5153 56.2162 12.3256 56.3502 12.0801C56.4841 11.8271 56.5511 11.5295 56.5511 11.1872C56.5511 10.8375 56.4841 10.5399 56.3502 10.2943C56.2162 10.0488 56.0339 9.85905 55.8033 9.72512C55.5726 9.59119 55.3122 9.52422 55.022 9.52422C54.7318 9.52422 54.4714 9.59119 54.2408 9.72512C54.0101 9.85905 53.8241 10.0488 53.6827 10.2943C53.5488 10.5399 53.4818 10.8375 53.4818 11.1872C53.4818 11.5295 53.5488 11.8271 53.6827 12.0801C53.8241 12.3256 54.0101 12.5153 54.2408 12.6493C54.4714 12.7832 54.7318 12.8502 55.022 12.8502ZM61.9336 14.2787C61.2268 14.2787 60.6762 14.1002 60.2818 13.743C59.8875 13.3784 59.6903 12.839 59.6903 12.1247V6.85678H61.4314V12.1024C61.4314 12.3554 61.4984 12.5525 61.6323 12.6939C61.7662 12.8278 61.9485 12.8948 62.1792 12.8948C62.4545 12.8948 62.6889 12.8204 62.8823 12.6716L63.3511 13.8993C63.1725 14.0258 62.9567 14.1225 62.7037 14.1895C62.4582 14.249 62.2015 14.2787 61.9336 14.2787ZM58.764 9.65815V8.31885H62.927V9.65815H58.764ZM66.653 14.2787C65.9462 14.2787 65.3956 14.1002 65.0012 13.743C64.6069 13.3784 64.4097 12.839 64.4097 12.1247V6.85678H66.1508V12.1024C66.1508 12.3554 66.2177 12.5525 66.3517 12.6939C66.4856 12.8278 66.6679 12.8948 66.8986 12.8948C67.1739 12.8948 67.4082 12.8204 67.6017 12.6716L68.0704 13.8993C67.8919 14.0258 67.6761 14.1225 67.4231 14.1895C67.1776 14.249 66.9209 14.2787 66.653 14.2787ZM63.4833 9.65815V8.31885H67.6463V9.65815H63.4833ZM71.7197 14.2787C71.0798 14.2787 70.5106 14.1448 70.0121 13.8769C69.521 13.6091 69.1304 13.2445 68.8402 12.7832C68.5575 12.3144 68.4161 11.7824 68.4161 11.1872C68.4161 10.5845 68.5575 10.0525 68.8402 9.59119C69.1304 9.12243 69.521 8.75784 70.0121 8.49742C70.5106 8.22956 71.0798 8.09563 71.7197 8.09563C72.3521 8.09563 72.9176 8.22956 73.4161 8.49742C73.9147 8.75784 74.3053 9.11871 74.588 9.58002C74.8708 10.0413 75.0121 10.5771 75.0121 11.1872C75.0121 11.7824 74.8708 12.3144 74.588 12.7832C74.3053 13.2445 73.9147 13.6091 73.4161 13.8769C72.9176 14.1448 72.3521 14.2787 71.7197 14.2787ZM71.7197 12.8502C72.0099 12.8502 72.2703 12.7832 72.501 12.6493C72.7316 12.5153 72.9139 12.3256 73.0478 12.0801C73.1818 11.8271 73.2487 11.5295 73.2487 11.1872C73.2487 10.8375 73.1818 10.5399 73.0478 10.2943C72.9139 10.0488 72.7316 9.85905 72.501 9.72512C72.2703 9.59119 72.0099 9.52422 71.7197 9.52422C71.4295 9.52422 71.1691 9.59119 70.9384 9.72512C70.7078 9.85905 70.5218 10.0488 70.3804 10.2943C70.2465 10.5399 70.1795 10.8375 70.1795 11.1872C70.1795 11.5295 70.2465 11.8271 70.3804 12.0801C70.5218 12.3256 70.7078 12.5153 70.9384 12.6493C71.1691 12.7832 71.4295 12.8502 71.7197 12.8502ZM83.8657 8.09563C84.3419 8.09563 84.7623 8.19236 85.1269 8.38581C85.499 8.57183 85.7891 8.86201 85.9975 9.25636C86.2132 9.64327 86.3211 10.1418 86.3211 10.7519V14.1895H84.58V11.0198C84.58 10.5361 84.4796 10.179 84.2787 9.94833C84.0778 9.71767 83.7951 9.60235 83.4305 9.60235C83.1775 9.60235 82.9506 9.66187 82.7497 9.78092C82.5488 9.89253 82.3925 10.0637 82.2809 10.2943C82.1693 10.525 82.1135 10.8189 82.1135 11.176V14.1895H80.3724V11.0198C80.3724 10.5361 80.272 10.179 80.0711 9.94833C79.8776 9.71767 79.5986 9.60235 79.234 9.60235C78.981 9.60235 78.7541 9.66187 78.5532 9.78092C78.3523 9.89253 78.196 10.0637 78.0844 10.2943C77.9728 10.525 77.917 10.8189 77.917 11.176V14.1895H76.1759V8.18492H77.8389V9.82556L77.5264 9.34565C77.7347 8.93642 78.0286 8.62763 78.4081 8.4193C78.795 8.20352 79.234 8.09563 79.7251 8.09563C80.2757 8.09563 80.7556 8.237 81.1648 8.51974C81.5815 8.79505 81.8568 9.21916 81.9907 9.79208L81.3769 9.62467C81.5778 9.15591 81.8977 8.78388 82.3367 8.50858C82.7831 8.23328 83.2928 8.09563 83.8657 8.09563Z" fill="black"/>
<path d="M44.7529 29.8105V22.3951L45.1071 22.7714H42.9268V22.0631H45.5498V29.8105H44.7529ZM50.4897 29.877C49.892 29.877 49.3608 29.722 48.8959 29.4121C48.4311 29.0948 48.0658 28.6447 47.8002 28.0618C47.5346 27.4716 47.4018 26.7632 47.4018 25.9368C47.4018 25.1104 47.5346 24.4058 47.8002 23.8229C48.0658 23.2326 48.4311 22.7825 48.8959 22.4726C49.3608 22.1553 49.892 21.9967 50.4897 21.9967C51.0873 21.9967 51.6186 22.1553 52.0834 22.4726C52.5483 22.7825 52.9135 23.2326 53.1791 23.8229C53.4521 24.4058 53.5886 25.1104 53.5886 25.9368C53.5886 26.7632 53.4521 27.4716 53.1791 28.0618C52.9135 28.6447 52.5483 29.0948 52.0834 29.4121C51.6186 29.722 51.0873 29.877 50.4897 29.877ZM50.4897 29.1465C50.9471 29.1465 51.3456 29.0247 51.685 28.7812C52.0244 28.5304 52.29 28.1688 52.4819 27.6966C52.6737 27.217 52.7696 26.6304 52.7696 25.9368C52.7696 25.2432 52.6737 24.6603 52.4819 24.1881C52.29 23.7085 52.0244 23.347 51.685 23.1035C51.3456 22.8526 50.9471 22.7272 50.4897 22.7272C50.047 22.7272 49.6522 22.8526 49.3054 23.1035C48.9586 23.347 48.6893 23.7085 48.4975 24.1881C48.3056 24.6603 48.2097 25.2432 48.2097 25.9368C48.2097 26.6304 48.3056 27.217 48.4975 27.6966C48.6893 28.1688 48.9586 28.5304 49.3054 28.7812C49.6522 29.0247 50.047 29.1465 50.4897 29.1465ZM57.1758 29.877C56.6224 29.877 56.0949 29.7884 55.5931 29.6113C55.0914 29.4269 54.6929 29.1834 54.3978 28.8809L54.7852 28.25C55.0287 28.5082 55.3607 28.7222 55.7813 28.8919C56.2092 29.0616 56.6704 29.1465 57.1647 29.1465C57.8214 29.1465 58.3195 29.0026 58.6589 28.7148C59.0057 28.4197 59.1791 28.036 59.1791 27.5638C59.1791 27.2318 59.0979 26.9477 58.9356 26.7116C58.7806 26.4681 58.515 26.2799 58.1387 26.1471C57.7624 26.0143 57.2459 25.9479 56.5892 25.9479H54.9401L55.3386 22.0631H59.5775V22.7714H55.6595L56.069 22.3841L55.7259 25.638L55.3164 25.2396H56.7663C57.5484 25.2396 58.1756 25.3355 58.6478 25.5273C59.1201 25.7192 59.4595 25.9885 59.6661 26.3353C59.88 26.6747 59.987 27.0731 59.987 27.5306C59.987 27.9659 59.8837 28.3644 59.6771 28.7259C59.4705 29.0801 59.1606 29.3605 58.7474 29.5671C58.3342 29.7737 57.8104 29.877 57.1758 29.877ZM61.5963 29.8659C61.434 29.8659 61.2938 29.8069 61.1758 29.6888C61.0651 29.5707 61.0098 29.4269 61.0098 29.2572C61.0098 29.0801 61.0651 28.9362 61.1758 28.8255C61.2938 28.7148 61.434 28.6595 61.5963 28.6595C61.7587 28.6595 61.8952 28.7148 62.0059 28.8255C62.1239 28.9362 62.1829 29.0801 62.1829 29.2572C62.1829 29.4269 62.1239 29.5707 62.0059 29.6888C61.8952 29.8069 61.7587 29.8659 61.5963 29.8659ZM65.7901 29.877C65.2367 29.877 64.7091 29.7884 64.2074 29.6113C63.7057 29.4269 63.3072 29.1834 63.0121 28.8809L63.3994 28.25C63.6429 28.5082 63.975 28.7222 64.3955 28.8919C64.8235 29.0616 65.2847 29.1465 65.779 29.1465C66.4357 29.1465 66.9338 29.0026 67.2732 28.7148C67.62 28.4197 67.7933 28.036 67.7933 27.5638C67.7933 27.2318 67.7122 26.9477 67.5499 26.7116C67.3949 26.4681 67.1293 26.2799 66.753 26.1471C66.3767 26.0143 65.8602 25.9479 65.2035 25.9479H63.5544L63.9528 22.0631H68.1918V22.7714H64.2738L64.6833 22.3841L64.3402 25.638L63.9307 25.2396H65.3806C66.1627 25.2396 66.7899 25.3355 67.2621 25.5273C67.7343 25.7192 68.0737 25.9885 68.2803 26.3353C68.4943 26.6747 68.6013 27.0731 68.6013 27.5306C68.6013 27.9659 68.498 28.3644 68.2914 28.7259C68.0848 29.0801 67.7749 29.3605 67.3617 29.5671C66.9485 29.7737 66.4246 29.877 65.7901 29.877ZM80.2902 23.9446C80.7625 23.9446 81.172 24.0369 81.5188 24.2213C81.8729 24.3984 82.1459 24.6714 82.3378 25.0403C82.537 25.4093 82.6366 25.8741 82.6366 26.4349V29.8105H81.8508V26.5124C81.8508 25.8999 81.7032 25.4388 81.4081 25.1289C81.1203 24.8116 80.7108 24.653 80.1796 24.653C79.7811 24.653 79.4343 24.7378 79.1392 24.9075C78.8514 25.0699 78.6264 25.3097 78.4641 25.6269C78.3091 25.9368 78.2316 26.3131 78.2316 26.7558V29.8105H77.4458V26.5124C77.4458 25.8999 77.2983 25.4388 77.0031 25.1289C76.708 24.8116 76.2948 24.653 75.7635 24.653C75.3725 24.653 75.0294 24.7378 74.7342 24.9075C74.4391 25.0699 74.2103 25.3097 74.048 25.6269C73.8931 25.9368 73.8156 26.3131 73.8156 26.7558V29.8105H73.0298V24H73.7824V25.5716L73.6606 25.2949C73.8377 24.8743 74.1218 24.546 74.5129 24.3099C74.9113 24.0664 75.3798 23.9446 75.9185 23.9446C76.4866 23.9446 76.9699 24.0885 77.3683 24.3763C77.7668 24.6567 78.025 25.0809 78.1431 25.6491L77.8332 25.5273C78.0029 25.0551 78.3017 24.6751 78.7297 24.3873C79.165 24.0922 79.6852 23.9446 80.2902 23.9446ZM92.0281 23.9446C92.5003 23.9446 92.9099 24.0369 93.2566 24.2213C93.6108 24.3984 93.8838 24.6714 94.0757 25.0403C94.2749 25.4093 94.3745 25.8741 94.3745 26.4349V29.8105H93.5887V26.5124C93.5887 25.8999 93.4411 25.4388 93.146 25.1289C92.8582 24.8116 92.4487 24.653 91.9174 24.653C91.519 24.653 91.1722 24.7378 90.8771 24.9075C90.5893 25.0699 90.3643 25.3097 90.2019 25.6269C90.047 25.9368 89.9695 26.3131 89.9695 26.7558V29.8105H89.1837V26.5124C89.1837 25.8999 89.0361 25.4388 88.741 25.1289C88.4459 24.8116 88.0327 24.653 87.5014 24.653C87.1103 24.653 86.7672 24.7378 86.4721 24.9075C86.177 25.0699 85.9482 25.3097 85.7859 25.6269C85.631 25.9368 85.5535 26.3131 85.5535 26.7558V29.8105H84.7677V24H85.5203V25.5716L85.3985 25.2949C85.5756 24.8743 85.8597 24.546 86.2507 24.3099C86.6492 24.0664 87.1177 23.9446 87.6564 23.9446C88.2245 23.9446 88.7078 24.0885 89.1062 24.3763C89.5047 24.6567 89.7629 25.0809 89.881 25.6491L89.5711 25.5273C89.7408 25.0551 90.0396 24.6751 90.4676 24.3873C90.9029 24.0922 91.4231 23.9446 92.0281 23.9446Z" fill="black"/>
</svg>
