<svg width="147" height="49" viewBox="0 0 147 49" fill="none" xmlns="http://www.w3.org/2000/svg">
<path d="M4.41363 9.02011C3.77854 9.02011 3.19167 8.9156 2.65305 8.70658C2.11442 8.48952 1.64814 8.18805 1.25422 7.80217C0.860301 7.41628 0.550792 6.96207 0.325694 6.43952C0.108635 5.91697 0.000105417 5.34619 0.000105417 4.72717C0.000105417 4.10815 0.108635 3.53736 0.325694 3.01482C0.550792 2.49227 0.860301 2.03805 1.25422 1.65217C1.65618 1.26629 2.12648 0.968836 2.6651 0.759816C3.20373 0.542758 3.79059 0.434228 4.42569 0.434228C5.03667 0.434228 5.61148 0.538738 6.1501 0.747758C6.68873 0.948738 7.14295 1.25423 7.51275 1.66423L6.94598 2.23099C6.6003 1.87727 6.21844 1.62403 5.8004 1.47129C5.38236 1.3105 4.93216 1.23011 4.44981 1.23011C3.94334 1.23011 3.47305 1.31854 3.03893 1.4954C2.60481 1.66423 2.22697 1.90942 1.9054 2.23099C1.58383 2.54452 1.33059 2.91433 1.14569 3.3404C0.96883 3.75844 0.880399 4.2207 0.880399 4.72717C0.880399 5.23364 0.96883 5.69991 1.14569 6.12599C1.33059 6.54403 1.58383 6.91383 1.9054 7.2354C2.22697 7.54893 2.60481 7.79413 3.03893 7.97099C3.47305 8.13981 3.94334 8.22422 4.44981 8.22422C4.93216 8.22422 5.38236 8.14383 5.8004 7.98305C6.21844 7.82226 6.6003 7.56501 6.94598 7.21128L7.51275 7.77805C7.14295 8.18805 6.68873 8.49756 6.1501 8.70658C5.61148 8.9156 5.03265 9.02011 4.41363 9.02011ZM11.5321 9.00805C10.9211 9.00805 10.3704 8.87138 9.88005 8.59805C9.39769 8.31668 9.01583 7.93481 8.73446 7.45246C8.45309 6.96207 8.3124 6.40334 8.3124 5.77628C8.3124 5.14119 8.45309 4.58246 8.73446 4.10011C9.01583 3.61776 9.39769 3.23991 9.88005 2.96658C10.3624 2.69325 10.9131 2.55658 11.5321 2.55658C12.1592 2.55658 12.7139 2.69325 13.1962 2.96658C13.6866 3.23991 14.0685 3.61776 14.3418 4.10011C14.6232 4.58246 14.7639 5.14119 14.7639 5.77628C14.7639 6.40334 14.6232 6.96207 14.3418 7.45246C14.0685 7.93481 13.6866 8.31668 13.1962 8.59805C12.7058 8.87138 12.1511 9.00805 11.5321 9.00805ZM11.5321 8.24834C11.9903 8.24834 12.3963 8.14785 12.75 7.94687C13.1038 7.73785 13.3811 7.44844 13.5821 7.07864C13.7911 6.70079 13.8956 6.26668 13.8956 5.77628C13.8956 5.27785 13.7911 4.84374 13.5821 4.47393C13.3811 4.10413 13.1038 3.81874 12.75 3.61776C12.3963 3.40874 11.9944 3.30423 11.5442 3.30423C11.094 3.30423 10.692 3.40874 10.3383 3.61776C9.98456 3.81874 9.70318 4.10413 9.49416 4.47393C9.28514 4.84374 9.18063 5.27785 9.18063 5.77628C9.18063 6.26668 9.28514 6.70079 9.49416 7.07864C9.70318 7.44844 9.98456 7.73785 10.3383 7.94687C10.692 8.14785 11.0899 8.24834 11.5321 8.24834ZM24.4224 2.55658C24.9369 2.55658 25.3831 2.65707 25.7609 2.85805C26.1468 3.05099 26.4443 3.34844 26.6533 3.7504C26.8704 4.15236 26.9789 4.65883 26.9789 5.26981V8.94775H26.1227V5.35423C26.1227 4.68697 25.9619 4.18452 25.6404 3.84687C25.3268 3.50119 24.8806 3.32834 24.3018 3.32834C23.8677 3.32834 23.4899 3.4208 23.1683 3.6057C22.8548 3.78256 22.6096 4.04383 22.4327 4.38952C22.2639 4.72717 22.1795 5.13717 22.1795 5.61952V8.94775H21.3233V5.35423C21.3233 4.68697 21.1625 4.18452 20.8409 3.84687C20.5194 3.50119 20.0692 3.32834 19.4904 3.32834C19.0643 3.32834 18.6905 3.4208 18.3689 3.6057C18.0473 3.78256 17.7981 4.04383 17.6212 4.38952C17.4524 4.72717 17.368 5.13717 17.368 5.61952V8.94775H16.5118V2.61687H17.3318V4.32923L17.1992 4.02776C17.3921 3.56952 17.7016 3.21178 18.1277 2.95452C18.5618 2.68923 19.0723 2.55658 19.6592 2.55658C20.2782 2.55658 20.8048 2.71334 21.2389 3.02687C21.673 3.33236 21.9544 3.79462 22.083 4.41364L21.7454 4.28099C21.9303 3.76648 22.2558 3.35246 22.7221 3.03893C23.1964 2.71736 23.7632 2.55658 24.4224 2.55658ZM32.5687 9.00805C32.022 9.00805 31.5276 8.88344 31.0855 8.63422C30.6433 8.37697 30.2896 8.01119 30.0243 7.53687C29.767 7.05452 29.6384 6.46766 29.6384 5.77628C29.6384 5.08491 29.767 4.50207 30.0243 4.02776C30.2816 3.5454 30.6313 3.17962 31.0734 2.9304C31.5156 2.68119 32.014 2.55658 32.5687 2.55658C33.1717 2.55658 33.7103 2.69325 34.1846 2.96658C34.6669 3.23187 35.0448 3.60972 35.3181 4.10011C35.5915 4.58246 35.7281 5.14119 35.7281 5.77628C35.7281 6.41942 35.5915 6.98217 35.3181 7.46452C35.0448 7.94687 34.6669 8.32471 34.1846 8.59805C33.7103 8.87138 33.1717 9.00805 32.5687 9.00805ZM29.3008 11.2872V2.61687H30.1208V4.52217L30.0364 5.78834L30.1569 7.06658V11.2872H29.3008ZM32.5084 8.24834C32.9586 8.24834 33.3606 8.14785 33.7143 7.94687C34.068 7.73785 34.3494 7.44844 34.5584 7.07864C34.7674 6.70079 34.8719 6.26668 34.8719 5.77628C34.8719 5.28589 34.7674 4.8558 34.5584 4.48599C34.3494 4.11619 34.068 3.82678 33.7143 3.61776C33.3606 3.40874 32.9586 3.30423 32.5084 3.30423C32.0582 3.30423 31.6522 3.40874 31.2905 3.61776C30.9368 3.82678 30.6554 4.11619 30.4464 4.48599C30.2454 4.8558 30.1449 5.28589 30.1449 5.77628C30.1449 6.26668 30.2454 6.70079 30.4464 7.07864C30.6554 7.44844 30.9368 7.73785 31.2905 7.94687C31.6522 8.14785 32.0582 8.24834 32.5084 8.24834ZM41.4055 8.94775V7.54893L41.3693 7.31981V4.9804C41.3693 4.44178 41.2165 4.02776 40.9111 3.73834C40.6136 3.44893 40.1674 3.30423 39.5725 3.30423C39.1625 3.30423 38.7726 3.37256 38.4028 3.50923C38.033 3.64589 37.7195 3.82678 37.4622 4.05187L37.0764 3.41276C37.3979 3.13942 37.7838 2.9304 38.234 2.7857C38.6842 2.63295 39.1585 2.55658 39.6569 2.55658C40.4769 2.55658 41.108 2.76158 41.5502 3.17158C42.0004 3.57354 42.2255 4.18854 42.2255 5.01658V8.94775H41.4055ZM39.2228 9.00805C38.7485 9.00805 38.3345 8.93168 37.9808 8.77893C37.6351 8.61815 37.3698 8.40109 37.1849 8.12775C37 7.84638 36.9075 7.52481 36.9075 7.16305C36.9075 6.83344 36.9839 6.53599 37.1366 6.2707C37.2974 5.99736 37.5547 5.7803 37.9084 5.61952C38.2702 5.4507 38.7525 5.36628 39.3555 5.36628H41.5381V6.0054H39.3796C38.7686 6.0054 38.3425 6.11393 38.1014 6.33099C37.8682 6.54805 37.7516 6.81736 37.7516 7.13893C37.7516 7.5007 37.8923 7.79011 38.1737 8.00717C38.4551 8.22422 38.849 8.33275 39.3555 8.33275C39.8378 8.33275 40.2518 8.22422 40.5975 8.00717C40.9513 7.78207 41.2085 7.4605 41.3693 7.04246L41.5622 7.63334C41.4015 8.05138 41.1201 8.38501 40.7181 8.63422C40.3242 8.88344 39.8258 9.00805 39.2228 9.00805ZM47.1798 9.00805C46.5527 9.00805 45.99 8.87138 45.4915 8.59805C45.0011 8.31668 44.6152 7.93481 44.3339 7.45246C44.0525 6.96207 43.9118 6.40334 43.9118 5.77628C43.9118 5.14119 44.0525 4.58246 44.3339 4.10011C44.6152 3.61776 45.0011 3.23991 45.4915 2.96658C45.99 2.69325 46.5527 2.55658 47.1798 2.55658C47.7184 2.55658 48.2048 2.66109 48.6389 2.87011C49.073 3.07913 49.4147 3.39266 49.6639 3.8107L49.0248 4.24481C48.8077 3.92325 48.5384 3.68609 48.2168 3.53334C47.8952 3.3806 47.5455 3.30423 47.1677 3.30423C46.7175 3.30423 46.3115 3.40874 45.9498 3.61776C45.588 3.81874 45.3026 4.10413 45.0936 4.47393C44.8846 4.84374 44.7801 5.27785 44.7801 5.77628C44.7801 6.27472 44.8846 6.70883 45.0936 7.07864C45.3026 7.44844 45.588 7.73785 45.9498 7.94687C46.3115 8.14785 46.7175 8.24834 47.1677 8.24834C47.5455 8.24834 47.8952 8.17197 48.2168 8.01922C48.5384 7.86648 48.8077 7.63334 49.0248 7.31981L49.6639 7.75393C49.4147 8.16393 49.073 8.47746 48.6389 8.69452C48.2048 8.90354 47.7184 9.00805 47.1798 9.00805ZM53.4182 9.00805C52.8233 9.00805 52.3651 8.84726 52.0435 8.5257C51.7219 8.20413 51.5612 7.74991 51.5612 7.16305V1.21805H52.4173V7.11481C52.4173 7.48462 52.5098 7.77001 52.6947 7.97099C52.8876 8.17197 53.161 8.27246 53.5147 8.27246C53.8925 8.27246 54.2061 8.16393 54.4553 7.94687L54.7567 8.56187C54.5879 8.71462 54.3829 8.82717 54.1417 8.89952C53.9086 8.97187 53.6674 9.00805 53.4182 9.00805ZM50.4276 3.32834V2.61687H54.3467V3.32834H50.4276ZM55.9146 10.7083L56.4452 8.47746L56.5416 8.99599C56.3567 8.99599 56.2 8.9357 56.0713 8.81511C55.9508 8.69452 55.8905 8.53775 55.8905 8.34481C55.8905 8.15187 55.9508 7.99511 56.0713 7.87452C56.2 7.75393 56.3527 7.69364 56.5296 7.69364C56.7145 7.69364 56.8632 7.75795 56.9758 7.88658C57.0963 8.01521 57.1566 8.16795 57.1566 8.34481C57.1566 8.40913 57.1526 8.47344 57.1446 8.53775C57.1365 8.60207 57.1205 8.67442 57.0963 8.75481C57.0722 8.8352 57.0401 8.93168 56.9999 9.04422L56.4934 10.7083H55.9146ZM64.6649 9.00805C64.0619 9.00805 63.5193 8.87138 63.0369 8.59805C62.5626 8.32471 62.1888 7.94687 61.9154 7.46452C61.6421 6.97413 61.5054 6.41138 61.5054 5.77628C61.5054 5.13315 61.6421 4.5704 61.9154 4.08805C62.1888 3.6057 62.5626 3.23187 63.0369 2.96658C63.5193 2.69325 64.0619 2.55658 64.6649 2.55658C65.2196 2.55658 65.714 2.68119 66.1481 2.9304C66.5902 3.17962 66.94 3.5454 67.1972 4.02776C67.4625 4.50207 67.5951 5.08491 67.5951 5.77628C67.5951 6.45962 67.4665 7.04246 67.2093 7.52481C66.952 8.00717 66.6023 8.37697 66.1602 8.63422C65.726 8.88344 65.2276 9.00805 64.6649 9.00805ZM64.7252 8.24834C65.1753 8.24834 65.5773 8.14785 65.931 7.94687C66.2928 7.73785 66.5742 7.44844 66.7751 7.07864C66.9842 6.70079 67.0887 6.26668 67.0887 5.77628C67.0887 5.27785 66.9842 4.84374 66.7751 4.47393C66.5742 4.10413 66.2928 3.81874 65.931 3.61776C65.5773 3.40874 65.1753 3.30423 64.7252 3.30423C64.283 3.30423 63.8851 3.40874 63.5313 3.61776C63.1776 3.81874 62.8962 4.10413 62.6872 4.47393C62.4782 4.84374 62.3737 5.27785 62.3737 5.77628C62.3737 6.26668 62.4782 6.70079 62.6872 7.07864C62.8962 7.44844 63.1776 7.73785 63.5313 7.94687C63.8851 8.14785 64.283 8.24834 64.7252 8.24834ZM67.1128 8.94775V7.04246L67.1972 5.76423L67.0766 4.48599V0.000110528H67.9328V8.94775H67.1128ZM72.934 9.00805C72.3954 9.00805 71.9251 8.90756 71.5231 8.70658C71.1212 8.5056 70.8076 8.20413 70.5825 7.80217C70.3655 7.40021 70.2569 6.89775 70.2569 6.29481V2.61687H71.1131V6.19834C71.1131 6.87364 71.2779 7.38413 71.6075 7.72981C71.9452 8.06746 72.4155 8.23628 73.0184 8.23628C73.4606 8.23628 73.8424 8.14785 74.164 7.97099C74.4936 7.78609 74.7428 7.52079 74.9116 7.17511C75.0885 6.82942 75.1769 6.4154 75.1769 5.93305V2.61687H76.0331V8.94775H75.2131V7.21128L75.3458 7.52481C75.1448 7.99109 74.8313 8.35687 74.4052 8.62217C73.9871 8.87942 73.4967 9.00805 72.934 9.00805ZM78.4193 8.94775V2.61687H79.2393V4.34129L79.1548 4.03981C79.3317 3.55746 79.6292 3.19168 80.0472 2.94246C80.4652 2.68521 80.9838 2.55658 81.6028 2.55658V3.38864C81.5706 3.38864 81.5385 3.38864 81.5063 3.38864C81.4742 3.3806 81.442 3.37658 81.4098 3.37658C80.7426 3.37658 80.22 3.58158 79.8422 3.99158C79.4644 4.39354 79.2754 4.96834 79.2754 5.71599V8.94775H78.4193ZM86.6614 8.94775V7.54893L86.6252 7.31981V4.9804C86.6252 4.44178 86.4724 4.02776 86.167 3.73834C85.8695 3.44893 85.4233 3.30423 84.8284 3.30423C84.4184 3.30423 84.0285 3.37256 83.6587 3.50923C83.2889 3.64589 82.9754 3.82678 82.7181 4.05187L82.3322 3.41276C82.6538 3.13942 83.0397 2.9304 83.4899 2.7857C83.9401 2.63295 84.4144 2.55658 84.9128 2.55658C85.7328 2.55658 86.3639 2.76158 86.8061 3.17158C87.2563 3.57354 87.4814 4.18854 87.4814 5.01658V8.94775H86.6614ZM84.4787 9.00805C84.0044 9.00805 83.5904 8.93168 83.2367 8.77893C82.891 8.61815 82.6257 8.40109 82.4408 8.12775C82.2559 7.84638 82.1634 7.52481 82.1634 7.16305C82.1634 6.83344 82.2398 6.53599 82.3925 6.2707C82.5533 5.99736 82.8106 5.7803 83.1643 5.61952C83.5261 5.4507 84.0084 5.36628 84.6114 5.36628H86.794V6.0054H84.6355C84.0245 6.0054 83.5984 6.11393 83.3572 6.33099C83.1241 6.54805 83.0075 6.81736 83.0075 7.13893C83.0075 7.5007 83.1482 7.79011 83.4296 8.00717C83.711 8.22422 84.1049 8.33275 84.6114 8.33275C85.0937 8.33275 85.5077 8.22422 85.8534 8.00717C86.2071 7.78207 86.4644 7.4605 86.6252 7.04246L86.8181 7.63334C86.6573 8.05138 86.376 8.38501 85.974 8.63422C85.5801 8.88344 85.0817 9.00805 84.4787 9.00805ZM93.0748 9.00805C92.5201 9.00805 92.0216 8.88344 91.5795 8.63422C91.1373 8.37697 90.7876 8.00717 90.5304 7.52481C90.2731 7.04246 90.1445 6.45962 90.1445 5.77628C90.1445 5.08491 90.2731 4.50207 90.5304 4.02776C90.7957 3.5454 91.1494 3.17962 91.5915 2.9304C92.0337 2.68119 92.5281 2.55658 93.0748 2.55658C93.6777 2.55658 94.2163 2.69325 94.6907 2.96658C95.173 3.23187 95.5508 3.6057 95.8242 4.08805C96.0975 4.5704 96.2342 5.13315 96.2342 5.77628C96.2342 6.41138 96.0975 6.97413 95.8242 7.46452C95.5508 7.94687 95.173 8.32471 94.6907 8.59805C94.2163 8.87138 93.6777 9.00805 93.0748 9.00805ZM89.8068 8.94775V0.000110528H90.663V4.48599L90.5424 5.76423L90.6268 7.04246V8.94775H89.8068ZM93.0145 8.24834C93.4647 8.24834 93.8666 8.14785 94.2204 7.94687C94.5741 7.73785 94.8555 7.44844 95.0645 7.07864C95.2735 6.70079 95.378 6.26668 95.378 5.77628C95.378 5.27785 95.2735 4.84374 95.0645 4.47393C94.8555 4.10413 94.5741 3.81874 94.2204 3.61776C93.8666 3.40874 93.4647 3.30423 93.0145 3.30423C92.5643 3.30423 92.1583 3.40874 91.7965 3.61776C91.4428 3.81874 91.1614 4.10413 90.9524 4.47393C90.7514 4.84374 90.6509 5.27785 90.6509 5.77628C90.6509 6.26668 90.7514 6.70079 90.9524 7.07864C91.1614 7.44844 91.4428 7.73785 91.7965 7.94687C92.1583 8.14785 92.5643 8.24834 93.0145 8.24834ZM97.9795 8.94775V0.000110528H98.8357V8.94775H97.9795ZM103.907 9.00805C103.248 9.00805 102.669 8.87138 102.171 8.59805C101.672 8.31668 101.282 7.93481 101.001 7.45246C100.72 6.96207 100.579 6.40334 100.579 5.77628C100.579 5.14923 100.711 4.59452 100.977 4.11217C101.25 3.62981 101.62 3.25197 102.086 2.97864C102.561 2.69727 103.091 2.55658 103.678 2.55658C104.273 2.55658 104.799 2.69325 105.258 2.96658C105.724 3.23187 106.09 3.60972 106.355 4.10011C106.62 4.58246 106.753 5.14119 106.753 5.77628C106.753 5.81648 106.749 5.8607 106.741 5.90893C106.741 5.94913 106.741 5.99334 106.741 6.04158H101.23V5.40246H106.283L105.945 5.6557C105.945 5.19746 105.845 4.79148 105.644 4.43776C105.451 4.07599 105.185 3.79462 104.848 3.59364C104.51 3.39266 104.12 3.29217 103.678 3.29217C103.244 3.29217 102.854 3.39266 102.508 3.59364C102.163 3.79462 101.893 4.07599 101.7 4.43776C101.507 4.79952 101.411 5.21354 101.411 5.67981V5.81246C101.411 6.29481 101.515 6.72089 101.724 7.0907C101.941 7.45246 102.239 7.73785 102.617 7.94687C103.003 8.14785 103.441 8.24834 103.931 8.24834C104.317 8.24834 104.675 8.18001 105.004 8.04334C105.342 7.90668 105.631 7.69766 105.873 7.41628L106.355 7.97099C106.074 8.30864 105.72 8.56589 105.294 8.74275C104.876 8.91962 104.414 9.00805 103.907 9.00805ZM3.83481 27.008C3.2801 27.008 2.78167 26.8834 2.33952 26.6342C1.89736 26.377 1.54765 26.0072 1.2904 25.5248C1.03314 25.0425 0.904517 24.4596 0.904517 23.7763C0.904517 23.0849 1.03314 22.5021 1.2904 22.0278C1.55569 21.5454 1.90942 21.1796 2.35157 20.9304C2.79373 20.6812 3.28814 20.5566 3.83481 20.5566C4.43775 20.5566 4.97638 20.6932 5.45069 20.9666C5.93304 21.2319 6.31089 21.6057 6.58422 22.088C6.85755 22.5704 6.99422 23.1331 6.99422 23.7763C6.99422 24.4114 6.85755 24.9741 6.58422 25.4645C6.31089 25.9469 5.93304 26.3247 5.45069 26.598C4.97638 26.8714 4.43775 27.008 3.83481 27.008ZM0.56687 26.9478V18.0001H1.42305V22.486L1.30246 23.7642L1.38687 25.0425V26.9478H0.56687ZM3.77452 26.2483C4.22471 26.2483 4.62667 26.1479 4.9804 25.9469C5.33412 25.7379 5.6155 25.4484 5.82451 25.0786C6.03353 24.7008 6.13804 24.2667 6.13804 23.7763C6.13804 23.2779 6.03353 22.8437 5.82451 22.4739C5.6155 22.1041 5.33412 21.8187 4.9804 21.6178C4.62667 21.4087 4.22471 21.3042 3.77452 21.3042C3.32432 21.3042 2.91834 21.4087 2.55657 21.6178C2.20285 21.8187 1.92148 22.1041 1.71246 22.4739C1.51148 22.8437 1.41099 23.2779 1.41099 23.7763C1.41099 24.2667 1.51148 24.7008 1.71246 25.0786C1.92148 25.4484 2.20285 25.7379 2.55657 25.9469C2.91834 26.1479 3.32432 26.2483 3.77452 26.2483ZM11.3563 27.008C10.8177 27.008 10.3474 26.9076 9.94543 26.7066C9.54347 26.5056 9.22994 26.2041 9.00484 25.8022C8.78778 25.4002 8.67925 24.8978 8.67925 24.2948V20.6169H9.53543V24.1983C9.53543 24.8736 9.70023 25.3841 10.0298 25.7298C10.3675 26.0675 10.8378 26.2363 11.4407 26.2363C11.8829 26.2363 12.2647 26.1479 12.5863 25.971C12.9159 25.7861 13.1651 25.5208 13.334 25.1751C13.5108 24.8294 13.5992 24.4154 13.5992 23.933V20.6169H14.4554V26.9478H13.6354V25.2113L13.7681 25.5248C13.5671 25.9911 13.2536 26.3569 12.8275 26.6222C12.4094 26.8794 11.9191 27.008 11.3563 27.008ZM19.4704 27.008C18.8433 27.008 18.2806 26.8714 17.7822 26.598C17.2918 26.3167 16.9059 25.9348 16.6245 25.4525C16.3431 24.9621 16.2024 24.4033 16.2024 23.7763C16.2024 23.1412 16.3431 22.5825 16.6245 22.1001C16.9059 21.6178 17.2918 21.2399 17.7822 20.9666C18.2806 20.6932 18.8433 20.5566 19.4704 20.5566C20.009 20.5566 20.4954 20.6611 20.9295 20.8701C21.3636 21.0791 21.7053 21.3927 21.9545 21.8107L21.3154 22.2448C21.0983 21.9232 20.829 21.6861 20.5074 21.5333C20.1859 21.3806 19.8362 21.3042 19.4583 21.3042C19.0081 21.3042 18.6021 21.4087 18.2404 21.6178C17.8786 21.8187 17.5932 22.1041 17.3842 22.4739C17.1752 22.8437 17.0707 23.2779 17.0707 23.7763C17.0707 24.2747 17.1752 24.7088 17.3842 25.0786C17.5932 25.4484 17.8786 25.7379 18.2404 25.9469C18.6021 26.1479 19.0081 26.2483 19.4583 26.2483C19.8362 26.2483 20.1859 26.172 20.5074 26.0192C20.829 25.8665 21.0983 25.6333 21.3154 25.3198L21.9545 25.7539C21.7053 26.1639 21.3636 26.4775 20.9295 26.6945C20.4954 26.9035 20.009 27.008 19.4704 27.008ZM24.2175 25.3078L24.2416 24.2104L28.1849 20.6169H29.234L26.4484 23.2819L25.966 23.6919L24.2175 25.3078ZM23.5422 26.9478V18.0001H24.3984V26.9478H23.5422ZM28.4502 26.9478L25.8093 23.6557L26.364 22.9925L29.4993 26.9478H28.4502ZM33.2146 27.008C32.5554 27.008 31.9766 26.8714 31.4781 26.598C30.9797 26.3167 30.5898 25.9348 30.3084 25.4525C30.0271 24.9621 29.8864 24.4033 29.8864 23.7763C29.8864 23.1492 30.019 22.5945 30.2843 22.1122C30.5577 21.6298 30.9275 21.252 31.3937 20.9786C31.868 20.6973 32.3986 20.5566 32.9855 20.5566C33.5804 20.5566 34.107 20.6932 34.5652 20.9666C35.0315 21.2319 35.3973 21.6097 35.6626 22.1001C35.9278 22.5825 36.0605 23.1412 36.0605 23.7763C36.0605 23.8165 36.0565 23.8607 36.0484 23.9089C36.0484 23.9491 36.0484 23.9933 36.0484 24.0416H30.5376V23.4025H35.5902L35.2526 23.6557C35.2526 23.1975 35.1521 22.7915 34.9511 22.4378C34.7581 22.076 34.4928 21.7946 34.1552 21.5936C33.8176 21.3927 33.4277 21.2922 32.9855 21.2922C32.5514 21.2922 32.1615 21.3927 31.8158 21.5936C31.4701 21.7946 31.2008 22.076 31.0078 22.4378C30.8149 22.7995 30.7184 23.2135 30.7184 23.6798V23.8125C30.7184 24.2948 30.8229 24.7209 31.032 25.0907C31.249 25.4525 31.5465 25.7379 31.9243 25.9469C32.3102 26.1479 32.7483 26.2483 33.2387 26.2483C33.6246 26.2483 33.9824 26.18 34.312 26.0433C34.6496 25.9067 34.939 25.6977 35.1802 25.4163L35.6626 25.971C35.3812 26.3086 35.0275 26.5659 34.6014 26.7428C34.1833 26.9196 33.7211 27.008 33.2146 27.008ZM39.8049 27.008C39.21 27.008 38.7518 26.8473 38.4302 26.5257C38.1087 26.2041 37.9479 25.7499 37.9479 25.163V19.2181H38.8041V25.1148C38.8041 25.4846 38.8965 25.77 39.0814 25.971C39.2744 26.172 39.5477 26.2725 39.9014 26.2725C40.2793 26.2725 40.5928 26.1639 40.842 25.9469L41.1435 26.5619C40.9746 26.7146 40.7696 26.8272 40.5285 26.8995C40.2953 26.9719 40.0542 27.008 39.8049 27.008ZM36.8144 21.3283V20.6169H40.7335V21.3283H36.8144ZM47.1484 26.9478L44.7607 20.6169H45.5807L47.7513 26.4895H47.3775L49.6084 20.6169H50.344L52.5507 26.4895H52.1769L54.3837 20.6169H55.1675L52.7678 26.9478H51.9599L49.8375 21.4248H50.0907L47.9563 26.9478H47.1484ZM56.4567 26.9478V20.6169H57.3128V26.9478H56.4567ZM56.8908 19.2181C56.7139 19.2181 56.5652 19.1578 56.4446 19.0372C56.324 18.9166 56.2637 18.7719 56.2637 18.6031C56.2637 18.4342 56.324 18.2935 56.4446 18.181C56.5652 18.0604 56.7139 18.0001 56.8908 18.0001C57.0676 18.0001 57.2164 18.0564 57.337 18.1689C57.4575 18.2815 57.5178 18.4222 57.5178 18.591C57.5178 18.7679 57.4575 18.9166 57.337 19.0372C57.2244 19.1578 57.0757 19.2181 56.8908 19.2181ZM61.6969 27.008C61.102 27.008 60.6437 26.8473 60.3222 26.5257C60.0006 26.2041 59.8398 25.7499 59.8398 25.163V19.2181H60.696V25.1148C60.696 25.4846 60.7884 25.77 60.9734 25.971C61.1663 26.172 61.4396 26.2725 61.7934 26.2725C62.1712 26.2725 62.4847 26.1639 62.7339 25.9469L63.0354 26.5619C62.8666 26.7146 62.6616 26.8272 62.4204 26.8995C62.1873 26.9719 61.9461 27.008 61.6969 27.008ZM58.7063 21.3283V20.6169H62.6254V21.3283H58.7063ZM67.8258 20.5566C68.3403 20.5566 68.7905 20.6571 69.1764 20.8581C69.5703 21.051 69.8758 21.3484 70.0928 21.7504C70.3179 22.1524 70.4305 22.6588 70.4305 23.2698V26.9478H69.5743V23.3542C69.5743 22.687 69.4055 22.1845 69.0678 21.8469C68.7382 21.5012 68.272 21.3283 67.669 21.3283C67.2188 21.3283 66.8249 21.4208 66.4872 21.6057C66.1576 21.7826 65.9004 22.0438 65.7155 22.3895C65.5386 22.7272 65.4502 23.1372 65.4502 23.6195V26.9478H64.594V18.0001H65.4502V22.3533L65.2814 22.0278C65.4823 21.5695 65.8039 21.2118 66.2461 20.9545C66.6882 20.6892 67.2148 20.5566 67.8258 20.5566ZM79.8665 26.9478V25.5489L79.8303 25.3198V22.9804C79.8303 22.4418 79.6776 22.0278 79.3721 21.7383C79.0746 21.4489 78.6285 21.3042 78.0336 21.3042C77.6236 21.3042 77.2337 21.3726 76.8639 21.5092C76.4941 21.6459 76.1805 21.8268 75.9233 22.0519L75.5374 21.4128C75.859 21.1394 76.2448 20.9304 76.695 20.7857C77.1452 20.633 77.6195 20.5566 78.118 20.5566C78.938 20.5566 79.5691 20.7616 80.0112 21.1716C80.4614 21.5735 80.6865 22.1885 80.6865 23.0166V26.9478H79.8665ZM77.6839 27.008C77.2095 27.008 76.7955 26.9317 76.4418 26.7789C76.0961 26.6181 75.8308 26.4011 75.6459 26.1278C75.461 25.8464 75.3686 25.5248 75.3686 25.163C75.3686 24.8334 75.4449 24.536 75.5977 24.2707C75.7585 23.9974 76.0157 23.7803 76.3694 23.6195C76.7312 23.4507 77.2136 23.3663 77.8165 23.3663H79.9992V24.0054H77.8406C77.2296 24.0054 76.8036 24.1139 76.5624 24.331C76.3293 24.548 76.2127 24.8174 76.2127 25.1389C76.2127 25.5007 76.3534 25.7901 76.6347 26.0072C76.9161 26.2242 77.31 26.3328 77.8165 26.3328C78.2989 26.3328 78.7129 26.2242 79.0586 26.0072C79.4123 25.7821 79.6695 25.4605 79.8303 25.0425L80.0233 25.6333C79.8625 26.0514 79.5811 26.385 79.1792 26.6342C78.7852 26.8834 78.2868 27.008 77.6839 27.008ZM87.8683 27.008C87.3457 27.008 86.8513 26.9357 86.385 26.791C85.9188 26.6382 85.553 26.4493 85.2877 26.2242L85.6736 25.5489C85.9308 25.7419 86.2604 25.9107 86.6624 26.0554C87.0644 26.1921 87.4864 26.2604 87.9286 26.2604C88.5315 26.2604 88.9656 26.168 89.2309 25.983C89.4962 25.7901 89.6289 25.5369 89.6289 25.2233C89.6289 24.9902 89.5525 24.8093 89.3998 24.6807C89.255 24.544 89.0621 24.4435 88.8209 24.3792C88.5798 24.3069 88.3104 24.2466 88.013 24.1983C87.7155 24.1501 87.4181 24.0938 87.1206 24.0295C86.8312 23.9652 86.5659 23.8728 86.3248 23.7522C86.0836 23.6235 85.8866 23.4507 85.7339 23.2336C85.5892 23.0166 85.5168 22.7272 85.5168 22.3654C85.5168 22.0197 85.6133 21.7102 85.8062 21.4369C85.9992 21.1635 86.2805 20.9505 86.6503 20.7978C87.0282 20.637 87.4864 20.5566 88.025 20.5566C88.435 20.5566 88.845 20.6129 89.255 20.7254C89.665 20.8299 90.0027 20.9706 90.268 21.1475L89.8942 21.8348C89.6128 21.6419 89.3113 21.5052 88.9898 21.4248C88.6682 21.3364 88.3466 21.2922 88.025 21.2922C87.4543 21.2922 87.0322 21.3927 86.7589 21.5936C86.4936 21.7866 86.3609 22.0358 86.3609 22.3413C86.3609 22.5825 86.4333 22.7714 86.578 22.908C86.7307 23.0447 86.9277 23.1532 87.1689 23.2336C87.4181 23.306 87.6874 23.3663 87.9768 23.4145C88.2743 23.4628 88.5677 23.523 88.8571 23.5954C89.1546 23.6597 89.4239 23.7522 89.665 23.8728C89.9143 23.9853 90.1112 24.1501 90.2559 24.3672C90.4087 24.5762 90.485 24.8535 90.485 25.1992C90.485 25.569 90.3805 25.8906 90.1715 26.1639C89.9705 26.4292 89.6731 26.6382 89.2792 26.791C88.8933 26.9357 88.423 27.008 87.8683 27.008ZM94.7452 27.008C94.086 27.008 93.5072 26.8714 93.0087 26.598C92.5103 26.3167 92.1204 25.9348 91.839 25.4525C91.5577 24.9621 91.417 24.4033 91.417 23.7763C91.417 23.1492 91.5496 22.5945 91.8149 22.1122C92.0882 21.6298 92.458 21.252 92.9243 20.9786C93.3986 20.6973 93.9292 20.5566 94.5161 20.5566C95.111 20.5566 95.6376 20.6932 96.0958 20.9666C96.5621 21.2319 96.9278 21.6097 97.1931 22.1001C97.4584 22.5825 97.5911 23.1412 97.5911 23.7763C97.5911 23.8165 97.5871 23.8607 97.579 23.9089C97.579 23.9491 97.579 23.9933 97.579 24.0416H92.0681V23.4025H97.1208L96.7831 23.6557C96.7831 23.1975 96.6826 22.7915 96.4817 22.4378C96.2887 22.076 96.0234 21.7946 95.6858 21.5936C95.3481 21.3927 94.9582 21.2922 94.5161 21.2922C94.082 21.2922 93.6921 21.3927 93.3464 21.5936C93.0007 21.7946 92.7314 22.076 92.5384 22.4378C92.3455 22.7995 92.249 23.2135 92.249 23.6798V23.8125C92.249 24.2948 92.3535 24.7209 92.5626 25.0907C92.7796 25.4525 93.0771 25.7379 93.4549 25.9469C93.8408 26.1479 94.2789 26.2483 94.7693 26.2483C95.1552 26.2483 95.5129 26.18 95.8426 26.0433C96.1802 25.9067 96.4696 25.6977 96.7108 25.4163L97.1931 25.971C96.9118 26.3086 96.558 26.5659 96.132 26.7428C95.7139 26.9196 95.2517 27.008 94.7452 27.008ZM101.963 27.008C101.336 27.008 100.773 26.8714 100.274 26.598C99.784 26.3167 99.3981 25.9348 99.1167 25.4525C98.8353 24.9621 98.6947 24.4033 98.6947 23.7763C98.6947 23.1412 98.8353 22.5825 99.1167 22.1001C99.3981 21.6178 99.784 21.2399 100.274 20.9666C100.773 20.6932 101.336 20.5566 101.963 20.5566C102.501 20.5566 102.988 20.6611 103.422 20.8701C103.856 21.0791 104.197 21.3927 104.447 21.8107L103.808 22.2448C103.591 21.9232 103.321 21.6861 103 21.5333C102.678 21.3806 102.328 21.3042 101.951 21.3042C101.5 21.3042 101.094 21.4087 100.733 21.6178C100.371 21.8187 100.085 22.1041 99.8764 22.4739C99.6674 22.8437 99.5629 23.2779 99.5629 23.7763C99.5629 24.2747 99.6674 24.7088 99.8764 25.0786C100.085 25.4484 100.371 25.7379 100.733 25.9469C101.094 26.1479 101.5 26.2483 101.951 26.2483C102.328 26.2483 102.678 26.172 103 26.0192C103.321 25.8665 103.591 25.6333 103.808 25.3198L104.447 25.7539C104.197 26.1639 103.856 26.4775 103.422 26.6945C102.988 26.9035 102.501 27.008 101.963 27.008ZM108.745 27.008C108.207 27.008 107.736 26.9076 107.335 26.7066C106.933 26.5056 106.619 26.2041 106.394 25.8022C106.177 25.4002 106.068 24.8978 106.068 24.2948V20.6169H106.925V24.1983C106.925 24.8736 107.089 25.3841 107.419 25.7298C107.757 26.0675 108.227 26.2363 108.83 26.2363C109.272 26.2363 109.654 26.1479 109.975 25.971C110.305 25.7861 110.554 25.5208 110.723 25.1751C110.9 24.8294 110.988 24.4154 110.988 23.933V20.6169H111.845V26.9478H111.025V25.2113L111.157 25.5248C110.956 25.9911 110.643 26.3569 110.217 26.6222C109.799 26.8794 109.308 27.008 108.745 27.008ZM114.231 26.9478V20.6169H115.051V22.3413L114.966 22.0398C115.143 21.5575 115.441 21.1917 115.859 20.9425C116.277 20.6852 116.795 20.5566 117.414 20.5566V21.3886C117.382 21.3886 117.35 21.3886 117.318 21.3886C117.286 21.3806 117.253 21.3766 117.221 21.3766C116.554 21.3766 116.031 21.5816 115.654 21.9916C115.276 22.3935 115.087 22.9683 115.087 23.716V26.9478H114.231ZM121.607 27.008C120.947 27.008 120.369 26.8714 119.87 26.598C119.372 26.3167 118.982 25.9348 118.701 25.4525C118.419 24.9621 118.278 24.4033 118.278 23.7763C118.278 23.1492 118.411 22.5945 118.676 22.1122C118.95 21.6298 119.32 21.252 119.786 20.9786C120.26 20.6973 120.791 20.5566 121.378 20.5566C121.972 20.5566 122.499 20.6932 122.957 20.9666C123.424 21.2319 123.789 21.6097 124.055 22.1001C124.32 22.5825 124.453 23.1412 124.453 23.7763C124.453 23.8165 124.449 23.8607 124.441 23.9089C124.441 23.9491 124.441 23.9933 124.441 24.0416H118.93V23.4025H123.982L123.645 23.6557C123.645 23.1975 123.544 22.7915 123.343 22.4378C123.15 22.076 122.885 21.7946 122.547 21.5936C122.21 21.3927 121.82 21.2922 121.378 21.2922C120.943 21.2922 120.554 21.3927 120.208 21.5936C119.862 21.7946 119.593 22.076 119.4 22.4378C119.207 22.7995 119.111 23.2135 119.111 23.6798V23.8125C119.111 24.2948 119.215 24.7209 119.424 25.0907C119.641 25.4525 119.939 25.7379 120.316 25.9469C120.702 26.1479 121.14 26.2483 121.631 26.2483C122.017 26.2483 122.374 26.18 122.704 26.0433C123.042 25.9067 123.331 25.6977 123.572 25.4163L124.055 25.971C123.773 26.3086 123.42 26.5659 122.993 26.7428C122.575 26.9196 122.113 27.008 121.607 27.008ZM129.351 26.9478V18.0001H130.207V26.9478H129.351ZM132.59 26.9478V20.6169H133.446V26.9478H132.59ZM133.024 19.2181C132.847 19.2181 132.698 19.1578 132.578 19.0372C132.457 18.9166 132.397 18.7719 132.397 18.6031C132.397 18.4342 132.457 18.2935 132.578 18.181C132.698 18.0604 132.847 18.0001 133.024 18.0001C133.201 18.0001 133.349 18.0564 133.47 18.1689C133.591 18.2815 133.651 18.4222 133.651 18.591C133.651 18.7679 133.591 18.9166 133.47 19.0372C133.357 19.1578 133.209 19.2181 133.024 19.2181ZM138.348 27.008C137.746 27.008 137.203 26.8714 136.721 26.598C136.246 26.3247 135.872 25.9469 135.599 25.4645C135.326 24.9741 135.189 24.4114 135.189 23.7763C135.189 23.1331 135.326 22.5704 135.599 22.088C135.872 21.6057 136.246 21.2319 136.721 20.9666C137.203 20.6932 137.746 20.5566 138.348 20.5566C138.903 20.5566 139.398 20.6812 139.832 20.9304C140.274 21.1796 140.624 21.5454 140.881 22.0278C141.146 22.5021 141.279 23.0849 141.279 23.7763C141.279 24.4596 141.15 25.0425 140.893 25.5248C140.636 26.0072 140.286 26.377 139.844 26.6342C139.41 26.8834 138.911 27.008 138.348 27.008ZM138.409 26.2483C138.859 26.2483 139.261 26.1479 139.615 25.9469C139.976 25.7379 140.258 25.4484 140.459 25.0786C140.668 24.7008 140.772 24.2667 140.772 23.7763C140.772 23.2779 140.668 22.8437 140.459 22.4739C140.258 22.1041 139.976 21.8187 139.615 21.6178C139.261 21.4087 138.859 21.3042 138.409 21.3042C137.967 21.3042 137.569 21.4087 137.215 21.6178C136.861 21.8187 136.58 22.1041 136.371 22.4739C136.162 22.8437 136.057 23.2779 136.057 23.7763C136.057 24.2667 136.162 24.7008 136.371 25.0786C136.58 25.4484 136.861 25.7379 137.215 25.9469C137.569 26.1479 137.967 26.2483 138.409 26.2483ZM140.796 26.9478V25.0425L140.881 23.7642L140.76 22.486V18.0001H141.616V26.9478H140.796ZM4.53422 45.9478V44.5489L4.49804 44.3198V41.9804C4.49804 41.4418 4.3453 41.0278 4.03981 40.7383C3.74236 40.4489 3.29618 40.3042 2.70128 40.3042C2.29128 40.3042 1.90138 40.3726 1.53158 40.5092C1.16177 40.6459 0.848242 40.8268 0.590988 41.0519L0.205105 40.4128C0.526674 40.1394 0.912556 39.9304 1.36275 39.7857C1.81295 39.633 2.28726 39.5566 2.78569 39.5566C3.60569 39.5566 4.23677 39.7616 4.67893 40.1716C5.12912 40.5735 5.35422 41.1885 5.35422 42.0166V45.9478H4.53422ZM2.35157 46.008C1.87726 46.008 1.46324 45.9317 1.10952 45.7789C0.763831 45.6181 0.498537 45.4011 0.313635 45.1278C0.128733 44.8464 0.0362819 44.5248 0.0362819 44.163C0.0362819 43.8334 0.112654 43.536 0.265399 43.2707C0.426184 42.9974 0.683438 42.7803 1.03716 42.6195C1.39893 42.4507 1.88128 42.3663 2.48422 42.3663H4.66687V43.0054H2.50834C1.89736 43.0054 1.47128 43.1139 1.2301 43.331C0.996968 43.548 0.880399 43.8174 0.880399 44.1389C0.880399 44.5007 1.02109 44.7901 1.30246 45.0072C1.58383 45.2242 1.97775 45.3328 2.48422 45.3328C2.96657 45.3328 3.38059 45.2242 3.72628 45.0072C4.08001 44.7821 4.33726 44.4605 4.49804 44.0425L4.69099 44.6333C4.5302 45.0514 4.24883 45.385 3.84687 45.6342C3.45295 45.8834 2.95452 46.008 2.35157 46.008ZM10.9115 39.5566C11.426 39.5566 11.8762 39.6571 12.262 39.8581C12.656 40.051 12.9615 40.3484 13.1785 40.7504C13.4036 41.1524 13.5162 41.6588 13.5162 42.2698V45.9478H12.66V42.3542C12.66 41.687 12.4912 41.1845 12.1535 40.8469C11.8239 40.5012 11.3576 40.3283 10.7547 40.3283C10.3045 40.3283 9.91057 40.4208 9.57292 40.6057C9.24331 40.7826 8.98606 41.0438 8.80116 41.3895C8.6243 41.7272 8.53586 42.1372 8.53586 42.6195V45.9478H7.67969V39.6169H8.49969V41.3533L8.36704 41.0278C8.56802 40.5695 8.88959 40.2118 9.33175 39.9545C9.7739 39.6892 10.3005 39.5566 10.9115 39.5566ZM18.3491 46.008C17.7462 46.008 17.2035 45.8714 16.7212 45.598C16.2469 45.3247 15.873 44.9469 15.5997 44.4645C15.3264 43.9741 15.1897 43.4114 15.1897 42.7763C15.1897 42.1331 15.3264 41.5704 15.5997 41.088C15.873 40.6057 16.2469 40.2319 16.7212 39.9666C17.2035 39.6932 17.7462 39.5566 18.3491 39.5566C18.9038 39.5566 19.3982 39.6812 19.8323 39.9304C20.2745 40.1796 20.6242 40.5454 20.8815 41.0278C21.1468 41.5021 21.2794 42.0849 21.2794 42.7763C21.2794 43.4596 21.1508 44.0425 20.8935 44.5248C20.6363 45.0072 20.2866 45.377 19.8444 45.6342C19.4103 45.8834 18.9118 46.008 18.3491 46.008ZM18.4094 45.2483C18.8596 45.2483 19.2616 45.1479 19.6153 44.9469C19.977 44.7379 20.2584 44.4484 20.4594 44.0786C20.6684 43.7008 20.7729 43.2667 20.7729 42.7763C20.7729 42.2779 20.6684 41.8437 20.4594 41.4739C20.2584 41.1041 19.977 40.8187 19.6153 40.6178C19.2616 40.4087 18.8596 40.3042 18.4094 40.3042C17.9672 40.3042 17.5693 40.4087 17.2156 40.6178C16.8619 40.8187 16.5805 41.1041 16.3715 41.4739C16.1624 41.8437 16.0579 42.2779 16.0579 42.7763C16.0579 43.2667 16.1624 43.7008 16.3715 44.0786C16.5805 44.4484 16.8619 44.7379 17.2156 44.9469C17.5693 45.1479 17.9672 45.2483 18.4094 45.2483ZM20.797 45.9478V44.0425L20.8815 42.7642L20.7609 41.486V37.0001H21.617V45.9478H20.797ZM30.4254 46.008C29.8788 46.008 29.3844 45.8834 28.9422 45.6342C28.5001 45.377 28.1463 45.0112 27.881 44.5369C27.6238 44.0545 27.4952 43.4677 27.4952 42.7763C27.4952 42.0849 27.6238 41.5021 27.881 41.0278C28.1383 40.5454 28.488 40.1796 28.9302 39.9304C29.3723 39.6812 29.8707 39.5566 30.4254 39.5566C31.0284 39.5566 31.567 39.6932 32.0413 39.9666C32.5237 40.2319 32.9015 40.6097 33.1749 41.1001C33.4482 41.5825 33.5849 42.1412 33.5849 42.7763C33.5849 43.4194 33.4482 43.9822 33.1749 44.4645C32.9015 44.9469 32.5237 45.3247 32.0413 45.598C31.567 45.8714 31.0284 46.008 30.4254 46.008ZM27.1575 48.2872V39.6169H27.9775V41.5222L27.8931 42.7883L28.0137 44.0666V48.2872H27.1575ZM30.3652 45.2483C30.8153 45.2483 31.2173 45.1479 31.571 44.9469C31.9248 44.7379 32.2061 44.4484 32.4152 44.0786C32.6242 43.7008 32.7287 43.2667 32.7287 42.7763C32.7287 42.2859 32.6242 41.8558 32.4152 41.486C32.2061 41.1162 31.9248 40.8268 31.571 40.6178C31.2173 40.4087 30.8153 40.3042 30.3652 40.3042C29.915 40.3042 29.509 40.4087 29.1472 40.6178C28.7935 40.8268 28.5121 41.1162 28.3031 41.486C28.1021 41.8558 28.0016 42.2859 28.0016 42.7763C28.0016 43.2667 28.1021 43.7008 28.3031 44.0786C28.5121 44.4484 28.7935 44.7379 29.1472 44.9469C29.509 45.1479 29.915 45.2483 30.3652 45.2483ZM35.3302 45.9478V39.6169H36.1502V41.3413L36.0658 41.0398C36.2426 40.5575 36.5401 40.1917 36.9581 39.9425C37.3762 39.6852 37.8947 39.5566 38.5137 39.5566V40.3886C38.4816 40.3886 38.4494 40.3886 38.4172 40.3886C38.3851 40.3806 38.3529 40.3766 38.3208 40.3766C37.6535 40.3766 37.131 40.5816 36.7531 40.9916C36.3753 41.3935 36.1864 41.9683 36.1864 42.716V45.9478H35.3302ZM42.7062 46.008C42.047 46.008 41.4682 45.8714 40.9697 45.598C40.4713 45.3167 40.0814 44.9348 39.8 44.4525C39.5187 43.9621 39.378 43.4033 39.378 42.7763C39.378 42.1492 39.5106 41.5945 39.7759 41.1122C40.0493 40.6298 40.4191 40.252 40.8853 39.9786C41.3597 39.6973 41.8902 39.5566 42.4771 39.5566C43.072 39.5566 43.5986 39.6932 44.0568 39.9666C44.5231 40.2319 44.8889 40.6097 45.1542 41.1001C45.4195 41.5825 45.5521 42.1412 45.5521 42.7763C45.5521 42.8165 45.5481 42.8607 45.54 42.9089C45.54 42.9491 45.54 42.9933 45.54 43.0416H40.0292V42.4025H45.0818L44.7442 42.6557C44.7442 42.1975 44.6437 41.7915 44.4427 41.4378C44.2497 41.076 43.9845 40.7946 43.6468 40.5936C43.3092 40.3927 42.9193 40.2922 42.4771 40.2922C42.043 40.2922 41.6531 40.3927 41.3074 40.5936C40.9617 40.7946 40.6924 41.076 40.4995 41.4378C40.3065 41.7995 40.21 42.2135 40.21 42.6798V42.8125C40.21 43.2948 40.3146 43.7209 40.5236 44.0907C40.7406 44.4525 41.0381 44.7379 41.4159 44.9469C41.8018 45.1479 42.2399 45.2483 42.7303 45.2483C43.1162 45.2483 43.474 45.18 43.8036 45.0433C44.1412 44.9067 44.4306 44.6977 44.6718 44.4163L45.1542 44.971C44.8728 45.3086 44.5191 45.5659 44.093 45.7428C43.6749 45.9196 43.2127 46.008 42.7062 46.008ZM55.2054 39.5566C55.7199 39.5566 56.1661 39.6571 56.5439 39.8581C56.9298 40.051 57.2272 40.3484 57.4363 40.7504C57.6533 41.1524 57.7618 41.6588 57.7618 42.2698V45.9478H56.9057V42.3542C56.9057 41.687 56.7449 41.1845 56.4233 40.8469C56.1098 40.5012 55.6636 40.3283 55.0848 40.3283C54.6507 40.3283 54.2728 40.4208 53.9513 40.6057C53.6377 40.7826 53.3925 41.0438 53.2157 41.3895C53.0468 41.7272 52.9624 42.1372 52.9624 42.6195V45.9478H52.1063V42.3542C52.1063 41.687 51.9455 41.1845 51.6239 40.8469C51.3023 40.5012 50.8521 40.3283 50.2733 40.3283C49.8472 40.3283 49.4734 40.4208 49.1518 40.6057C48.8303 40.7826 48.5811 41.0438 48.4042 41.3895C48.2354 41.7272 48.151 42.1372 48.151 42.6195V45.9478H47.2948V39.6169H48.1148V41.3292L47.9821 41.0278C48.1751 40.5695 48.4846 40.2118 48.9107 39.9545C49.3448 39.6892 49.8553 39.5566 50.4421 39.5566C51.0612 39.5566 51.5877 39.7133 52.0218 40.0269C52.456 40.3324 52.7373 40.7946 52.866 41.4136L52.5283 41.281C52.7132 40.7665 53.0388 40.3525 53.5051 40.0389C53.9794 39.7174 54.5462 39.5566 55.2054 39.5566ZM60.0837 45.9478V39.6169H60.9399V45.9478H60.0837ZM60.5178 38.2181C60.341 38.2181 60.1923 38.1578 60.0717 38.0372C59.9511 37.9166 59.8908 37.7719 59.8908 37.6031C59.8908 37.4342 59.9511 37.2935 60.0717 37.181C60.1923 37.0604 60.341 37.0001 60.5178 37.0001C60.6947 37.0001 60.8434 37.0564 60.964 37.1689C61.0846 37.2815 61.1449 37.4222 61.1449 37.591C61.1449 37.7679 61.0846 37.9166 60.964 38.0372C60.8515 38.1578 60.7028 38.2181 60.5178 38.2181ZM65.9389 46.008C65.4003 46.008 64.93 45.9076 64.5281 45.7066C64.1261 45.5056 63.8126 45.2041 63.5875 44.8022C63.3704 44.4002 63.2619 43.8978 63.2619 43.2948V39.6169H64.1181V43.1983C64.1181 43.8736 64.2829 44.3841 64.6125 44.7298C64.9501 45.0675 65.4204 45.2363 66.0234 45.2363C66.4655 45.2363 66.8474 45.1479 67.1689 44.971C67.4986 44.7861 67.7478 44.5208 67.9166 44.1751C68.0935 43.8294 68.1819 43.4154 68.1819 42.933V39.6169H69.0381V45.9478H68.2181V44.2113L68.3507 44.5248C68.1497 44.9911 67.8362 45.3569 67.4101 45.6222C66.9921 45.8794 66.5017 46.008 65.9389 46.008ZM79.3348 39.5566C79.8493 39.5566 80.2955 39.6571 80.6733 39.8581C81.0592 40.051 81.3566 40.3484 81.5657 40.7504C81.7827 41.1524 81.8913 41.6588 81.8913 42.2698V45.9478H81.0351V42.3542C81.0351 41.687 80.8743 41.1845 80.5527 40.8469C80.2392 40.5012 79.793 40.3283 79.2142 40.3283C78.7801 40.3283 78.4022 40.4208 78.0807 40.6057C77.7671 40.7826 77.5219 41.0438 77.3451 41.3895C77.1763 41.7272 77.0918 42.1372 77.0918 42.6195V45.9478H76.2357V42.3542C76.2357 41.687 76.0749 41.1845 75.7533 40.8469C75.4317 40.5012 74.9816 40.3283 74.4027 40.3283C73.9767 40.3283 73.6028 40.4208 73.2813 40.6057C72.9597 40.7826 72.7105 41.0438 72.5336 41.3895C72.3648 41.7272 72.2804 42.1372 72.2804 42.6195V45.9478H71.4242V39.6169H72.2442V41.3292L72.1116 41.0278C72.3045 40.5695 72.614 40.2118 73.0401 39.9545C73.4742 39.6892 73.9847 39.5566 74.5716 39.5566C75.1906 39.5566 75.7171 39.7133 76.1513 40.0269C76.5854 40.3324 76.8667 40.7946 76.9954 41.4136L76.6577 41.281C76.8426 40.7665 77.1682 40.3525 77.6345 40.0389C78.1088 39.7174 78.6756 39.5566 79.3348 39.5566ZM87.55 45.9478V37.5066H88.4424V45.9478H87.55ZM91.1889 45.9478V37.5066H91.9245L95.7833 44.0907H95.3974L99.2201 37.5066H99.9556V45.9478H99.0995V38.8451H99.3045L95.7833 44.8745H95.3612L91.8159 38.8451H92.0451V45.9478H91.1889ZM102.706 45.9478V37.5066H103.598V45.176H108.325V45.9478H102.706ZM112.927 45.9478V38.821C112.927 38.2582 113.092 37.804 113.421 37.4583C113.751 37.1127 114.225 36.9398 114.844 36.9398C115.085 36.9398 115.319 36.972 115.544 37.0363C115.769 37.1006 115.958 37.2011 116.11 37.3378L115.821 37.9769C115.7 37.8724 115.56 37.796 115.399 37.7478C115.238 37.6915 115.065 37.6633 114.88 37.6633C114.519 37.6633 114.241 37.7638 114.048 37.9648C113.855 38.1658 113.759 38.4632 113.759 38.8572V39.8219L113.783 40.2198V45.9478H112.927ZM111.793 40.3283V39.6169H115.712V40.3283H111.793ZM116.87 45.9478V39.6169H117.726V45.9478H116.87ZM117.304 38.2181C117.127 38.2181 116.979 38.1578 116.858 38.0372C116.737 37.9166 116.677 37.7719 116.677 37.6031C116.677 37.4342 116.737 37.2935 116.858 37.181C116.979 37.0604 117.127 37.0001 117.304 37.0001C117.481 37.0001 117.63 37.0564 117.75 37.1689C117.871 37.2815 117.931 37.4222 117.931 37.591C117.931 37.7679 117.871 37.9166 117.75 38.0372C117.638 38.1578 117.489 38.2181 117.304 38.2181ZM123.362 39.5566C123.877 39.5566 124.327 39.6571 124.713 39.8581C125.107 40.051 125.412 40.3484 125.629 40.7504C125.854 41.1524 125.967 41.6588 125.967 42.2698V45.9478H125.111V42.3542C125.111 41.687 124.942 41.1845 124.604 40.8469C124.275 40.5012 123.808 40.3283 123.206 40.3283C122.755 40.3283 122.361 40.4208 122.024 40.6057C121.694 40.7826 121.437 41.0438 121.252 41.3895C121.075 41.7272 120.987 42.1372 120.987 42.6195V45.9478H120.131V39.6169H120.951V41.3533L120.818 41.0278C121.019 40.5695 121.34 40.2118 121.783 39.9545C122.225 39.6892 122.751 39.5566 123.362 39.5566ZM128.28 45.9478V39.6169H129.136V45.9478H128.28ZM128.714 38.2181C128.537 38.2181 128.388 38.1578 128.268 38.0372C128.147 37.9166 128.087 37.7719 128.087 37.6031C128.087 37.4342 128.147 37.2935 128.268 37.181C128.388 37.0604 128.537 37.0001 128.714 37.0001C128.891 37.0001 129.039 37.0564 129.16 37.1689C129.281 37.2815 129.341 37.4222 129.341 37.591C129.341 37.7679 129.281 37.9166 129.16 38.0372C129.047 38.1578 128.899 38.2181 128.714 38.2181ZM133.218 46.008C132.696 46.008 132.201 45.9357 131.735 45.791C131.269 45.6382 130.903 45.4493 130.638 45.2242L131.024 44.5489C131.281 44.7419 131.611 44.9107 132.012 45.0554C132.414 45.1921 132.837 45.2604 133.279 45.2604C133.882 45.2604 134.316 45.168 134.581 44.983C134.846 44.7901 134.979 44.5369 134.979 44.2233C134.979 43.9902 134.903 43.8093 134.75 43.6807C134.605 43.544 134.412 43.4435 134.171 43.3792C133.93 43.3069 133.661 43.2466 133.363 43.1983C133.066 43.1501 132.768 43.0938 132.471 43.0295C132.181 42.9652 131.916 42.8728 131.675 42.7522C131.434 42.6235 131.237 42.4507 131.084 42.2336C130.939 42.0166 130.867 41.7272 130.867 41.3654C130.867 41.0197 130.963 40.7102 131.156 40.4369C131.349 40.1635 131.631 39.9505 132 39.7978C132.378 39.637 132.837 39.5566 133.375 39.5566C133.785 39.5566 134.195 39.6129 134.605 39.7254C135.015 39.8299 135.353 39.9706 135.618 40.1475L135.244 40.8348C134.963 40.6419 134.661 40.5052 134.34 40.4248C134.018 40.3364 133.697 40.2922 133.375 40.2922C132.804 40.2922 132.382 40.3927 132.109 40.5936C131.844 40.7866 131.711 41.0358 131.711 41.3413C131.711 41.5825 131.783 41.7714 131.928 41.908C132.081 42.0447 132.278 42.1532 132.519 42.2336C132.768 42.306 133.037 42.3663 133.327 42.4145C133.624 42.4628 133.918 42.523 134.207 42.5954C134.505 42.6597 134.774 42.7522 135.015 42.8728C135.264 42.9853 135.461 43.1501 135.606 43.3672C135.759 43.5762 135.835 43.8535 135.835 44.1992C135.835 44.569 135.731 44.8906 135.522 45.1639C135.321 45.4292 135.023 45.6382 134.629 45.791C134.243 45.9357 133.773 46.008 133.218 46.008ZM140.638 39.5566C141.152 39.5566 141.603 39.6571 141.989 39.8581C142.382 40.051 142.688 40.3484 142.905 40.7504C143.13 41.1524 143.243 41.6588 143.243 42.2698V45.9478H142.386V42.3542C142.386 41.687 142.218 41.1845 141.88 40.8469C141.55 40.5012 141.084 40.3283 140.481 40.3283C140.031 40.3283 139.637 40.4208 139.299 40.6057C138.97 40.7826 138.713 41.0438 138.528 41.3895C138.351 41.7272 138.262 42.1372 138.262 42.6195V45.9478H137.406V37.0001H138.262V41.3533L138.094 41.0278C138.295 40.5695 138.616 40.2118 139.058 39.9545C139.5 39.6892 140.027 39.5566 140.638 39.5566ZM145.64 46.008C145.463 46.008 145.31 45.9437 145.181 45.8151C145.061 45.6865 145.001 45.5297 145.001 45.3448C145.001 45.1519 145.061 44.9951 145.181 44.8745C145.31 44.7539 145.463 44.6936 145.64 44.6936C145.817 44.6936 145.965 44.7539 146.086 44.8745C146.215 44.9951 146.279 45.1519 146.279 45.3448C146.279 45.5297 146.215 45.6865 146.086 45.8151C145.965 45.9437 145.817 46.008 145.64 46.008Z" fill="black"/>
</svg>
