<svg width="130" height="36" viewBox="0 0 130 36" fill="none" xmlns="http://www.w3.org/2000/svg">
<circle cx="17.6922" cy="18.0008" r="17.6922" fill="#024731"/>
<path d="M20.3721 13.583C21.8054 13.583 23.0957 13.7457 24.0215 14.0049C24.4858 14.1349 24.8474 14.2861 25.0879 14.4453C25.3362 14.6097 25.4102 14.7505 25.4102 14.8496C25.4101 14.9487 25.3361 15.0896 25.0879 15.2539C24.8474 15.4131 24.4858 15.5643 24.0215 15.6943C23.0957 15.9535 21.8054 16.1162 20.3721 16.1162C18.9385 16.1162 17.6475 15.9536 16.7217 15.6943C16.2577 15.5644 15.8968 15.413 15.6562 15.2539C15.4081 15.0896 15.3341 14.9487 15.334 14.8496C15.334 14.7505 15.4079 14.6097 15.6562 14.4453C15.8967 14.2862 16.2577 14.1348 16.7217 14.0049C17.6475 13.7456 18.9385 13.583 20.3721 13.583Z" stroke="white" stroke-width="0.4"/>
<path d="M20.3721 12.7432C22.1488 12.7432 23.7487 12.9987 24.8975 13.4062C25.4727 13.6104 25.9248 13.8487 26.2285 14.1035C26.5332 14.3591 26.667 14.6117 26.667 14.8477C26.667 15.0836 26.5332 15.3362 26.2285 15.5918C25.9248 15.8466 25.4727 16.0849 24.8975 16.2891C23.7487 16.6966 22.1488 16.9521 20.3721 16.9521C18.5953 16.9521 16.9954 16.6966 15.8467 16.2891C15.2714 16.0849 14.8193 15.8466 14.5156 15.5918C14.211 15.3362 14.0771 15.0836 14.0771 14.8477C14.0772 14.6117 14.2109 14.3591 14.5156 14.1035C14.8193 13.8487 15.2714 13.6104 15.8467 13.4062C16.9954 12.9987 18.5953 12.7432 20.3721 12.7432Z" stroke="white" stroke-width="0.4"/>
<path d="M26.6586 15.2656C26.6586 16.7699 23.9596 17.7799 20.3724 17.7799C16.7853 17.7799 13.8772 16.7323 14.0868 15.2656" stroke="white" stroke-width="0.4"/>
<path d="M15.1992 23.9813C14.7192 20.7946 14.5059 16.3145 14.5059 16.3145C17.7691 18.3722 23.7351 17.957 26.239 16.3145C26.239 16.3145 26.239 20.7946 25.759 23.9813C25.279 27.1681 15.6792 27.1681 15.1992 23.9813Z" stroke="white" stroke-width="0.4"/>
<path d="M9.10112 10.8803C9.01022 10.7894 8.86283 10.7894 8.77193 10.8803L7.29054 12.3617C7.19964 12.4526 7.19964 12.6 7.29054 12.6909C7.38145 12.7818 7.52883 12.7818 7.61974 12.6909L8.93652 11.3741L10.2533 12.6909C10.3442 12.7818 10.4916 12.7818 10.5825 12.6909C10.6734 12.6 10.6734 12.4526 10.5825 12.3617L9.10112 10.8803ZM8.77193 27.5039C8.86283 27.5948 9.01022 27.5948 9.10112 27.5039L10.5825 26.0225C10.6734 25.9316 10.6734 25.7842 10.5825 25.6933C10.4916 25.6024 10.3442 25.6024 10.2533 25.6933L8.93652 27.0101L7.61974 25.6933C7.52883 25.6024 7.38145 25.6024 7.29054 25.6933C7.19964 25.7842 7.19964 25.9316 7.29054 26.0225L8.77193 27.5039ZM8.93652 11.0449L8.70375 11.0449L8.70375 27.3393L8.93652 27.3393L9.1693 27.3393L9.1693 11.0449L8.93652 11.0449Z" fill="white"/>
<path d="M49.1107 6.37686H50.9188V14.1895H49.1107V6.37686ZM45.5616 14.1895H43.7535V6.37686H45.5616V14.1895ZM49.2446 10.9863H45.4276V9.45726H49.2446V10.9863ZM55.6244 14.2787C54.9398 14.2787 54.3371 14.1448 53.8163 13.8769C53.3029 13.6091 52.9048 13.2445 52.6221 12.7832C52.3394 12.3144 52.198 11.7824 52.198 11.1872C52.198 10.5845 52.3356 10.0525 52.6109 9.59119C52.8937 9.12243 53.2769 8.75784 53.7605 8.49742C54.2441 8.22956 54.791 8.09563 55.4011 8.09563C55.989 8.09563 56.5172 8.22212 56.986 8.4751C57.4622 8.72064 57.8379 9.07779 58.1132 9.54654C58.3885 10.0079 58.5262 10.5622 58.5262 11.2095C58.5262 11.2765 58.5225 11.3546 58.515 11.4439C58.5076 11.5257 58.5001 11.6039 58.4927 11.6783H53.6154V10.6626H57.5775L56.9079 10.964C56.9079 10.6515 56.8446 10.3799 56.7181 10.1492C56.5916 9.91857 56.4168 9.74 56.1936 9.61351C55.9703 9.47958 55.7099 9.41261 55.4123 9.41261C55.1147 9.41261 54.8505 9.47958 54.6199 9.61351C54.3967 9.74 54.2218 9.92229 54.0953 10.1604C53.9688 10.391 53.9056 10.6663 53.9056 10.9863V11.2542C53.9056 11.5815 53.9763 11.8717 54.1176 12.1247C54.2665 12.3702 54.4711 12.56 54.7315 12.6939C54.9994 12.8204 55.3119 12.8836 55.669 12.8836C55.989 12.8836 56.268 12.8353 56.5061 12.7385C56.7516 12.6418 56.9748 12.4967 57.1757 12.3033L58.1021 13.3077C57.8268 13.6203 57.4808 13.8621 57.0641 14.0332C56.6474 14.1969 56.1675 14.2787 55.6244 14.2787ZM59.6853 14.1895V8.18492H61.4264V14.1895H59.6853ZM60.5559 7.34786C60.2359 7.34786 59.9755 7.25485 59.7746 7.06883C59.5737 6.88282 59.4733 6.65216 59.4733 6.37686C59.4733 6.10156 59.5737 5.8709 59.7746 5.68489C59.9755 5.49888 60.2359 5.40587 60.5559 5.40587C60.8758 5.40587 61.1363 5.49516 61.3371 5.67373C61.538 5.84486 61.6385 6.06808 61.6385 6.34338C61.6385 6.63356 61.538 6.87538 61.3371 7.06883C61.1437 7.25485 60.8833 7.34786 60.5559 7.34786ZM65.866 16.4439C65.3005 16.4439 64.7536 16.3733 64.2254 16.2319C63.7045 16.098 63.2693 15.8933 62.9195 15.618L63.6115 14.368C63.8645 14.5764 64.1844 14.7401 64.5713 14.8591C64.9657 14.9856 65.3526 15.0488 65.7321 15.0488C66.3496 15.0488 66.7961 14.9112 67.0714 14.6359C67.3541 14.3606 67.4955 13.9514 67.4955 13.4082V12.5042L67.6071 10.9975L67.5848 9.47958V8.18492H69.2366V13.185C69.2366 14.3011 68.9464 15.1232 68.366 15.6515C67.7857 16.1798 66.9523 16.4439 65.866 16.4439ZM65.5981 13.8993C65.0401 13.8993 64.5341 13.7802 64.0803 13.5421C63.6338 13.2966 63.273 12.958 62.9977 12.5265C62.7298 12.0875 62.5959 11.5778 62.5959 10.9975C62.5959 10.4096 62.7298 9.89997 62.9977 9.46842C63.273 9.02942 63.6338 8.69088 64.0803 8.45278C64.5341 8.21468 65.0401 8.09563 65.5981 8.09563C66.1041 8.09563 66.5505 8.1998 66.9374 8.40814C67.3244 8.60903 67.6257 8.92525 67.8415 9.35681C68.0573 9.78092 68.1651 10.3278 68.1651 10.9975C68.1651 11.6597 68.0573 12.2065 67.8415 12.6381C67.6257 13.0622 67.3244 13.3784 66.9374 13.5868C66.5505 13.7951 66.1041 13.8993 65.5981 13.8993ZM65.9441 12.4707C66.2492 12.4707 66.5208 12.4112 66.7589 12.2921C66.997 12.1656 67.183 11.9908 67.3169 11.7675C67.4508 11.5443 67.5178 11.2876 67.5178 10.9975C67.5178 10.6998 67.4508 10.4431 67.3169 10.2274C67.183 10.0041 66.997 9.833 66.7589 9.71395C66.5208 9.58746 66.2492 9.52422 65.9441 9.52422C65.6391 9.52422 65.3675 9.58746 65.1294 9.71395C64.8913 9.833 64.7016 10.0041 64.5602 10.2274C64.4263 10.4431 64.3593 10.6998 64.3593 10.9975C64.3593 11.2876 64.4263 11.5443 64.5602 11.7675C64.7016 11.9908 64.8913 12.1656 65.1294 12.2921C65.3675 12.4112 65.6391 12.4707 65.9441 12.4707ZM74.5067 8.09563C74.9829 8.09563 75.407 8.19236 75.779 8.38581C76.1585 8.57183 76.4561 8.86201 76.6719 9.25636C76.8877 9.64327 76.9955 10.1418 76.9955 10.7519V14.1895H75.2545V11.0198C75.2545 10.5361 75.1466 10.179 74.9308 9.94833C74.7225 9.71767 74.4248 9.60235 74.0379 9.60235C73.7626 9.60235 73.5134 9.66187 73.2901 9.78092C73.0744 9.89253 72.9032 10.0674 72.7767 10.3055C72.6577 10.5436 72.5982 10.8486 72.5982 11.2207V14.1895H70.8571V5.90811H72.5982V9.84788L72.2075 9.34565C72.4233 8.94386 72.7321 8.63507 73.1339 8.4193C73.5357 8.20352 73.9933 8.09563 74.5067 8.09563ZM81.0291 14.2787C80.3223 14.2787 79.7717 14.1002 79.3773 13.743C78.983 13.3784 78.7858 12.839 78.7858 12.1247V6.85678H80.5269V12.1024C80.5269 12.3554 80.5939 12.5525 80.7278 12.6939C80.8617 12.8278 81.044 12.8948 81.2747 12.8948C81.55 12.8948 81.7844 12.8204 81.9778 12.6716L82.4466 13.8993C82.268 14.0258 82.0522 14.1225 81.7992 14.1895C81.5537 14.249 81.297 14.2787 81.0291 14.2787ZM77.8595 9.65815V8.31885H82.0225V9.65815H77.8595Z" fill="black"/>
<path d="M44.7529 29.8105V22.3951L45.1071 22.7714H42.9268V22.0631H45.5498V29.8105H44.7529ZM49.7149 29.877C49.1542 29.877 48.6229 29.7884 48.1212 29.6113C47.6268 29.4269 47.2284 29.1834 46.9259 28.8809L47.3132 28.25C47.5641 28.5082 47.8998 28.7222 48.3204 28.8919C48.7483 29.0616 49.2132 29.1465 49.7149 29.1465C50.3569 29.1465 50.8475 29.0063 51.1869 28.7259C51.5337 28.4455 51.7071 28.0692 51.7071 27.597C51.7071 27.1248 51.5374 26.7485 51.198 26.4681C50.866 26.1877 50.3384 26.0475 49.6153 26.0475H49.0619V25.4609L51.4526 22.4615L51.5632 22.7714H47.2468V22.0631H52.2273V22.6276L49.8367 25.6269L49.4493 25.3724H49.7481C50.6778 25.3724 51.3714 25.579 51.8289 25.9922C52.2937 26.4054 52.5261 26.9366 52.5261 27.5859C52.5261 28.0213 52.4228 28.4123 52.2162 28.7591C52.0096 29.1059 51.6961 29.3789 51.2755 29.5781C50.8623 29.7773 50.3421 29.877 49.7149 29.877ZM56.7369 29.877C56.1393 29.877 55.608 29.722 55.1432 29.4121C54.6783 29.0948 54.3131 28.6447 54.0474 28.0618C53.7818 27.4716 53.649 26.7632 53.649 25.9368C53.649 25.1104 53.7818 24.4058 54.0474 23.8229C54.3131 23.2326 54.6783 22.7825 55.1432 22.4726C55.608 22.1553 56.1393 21.9967 56.7369 21.9967C57.3346 21.9967 57.8658 22.1553 58.3307 22.4726C58.7955 22.7825 59.1608 23.2326 59.4264 23.8229C59.6994 24.4058 59.8359 25.1104 59.8359 25.9368C59.8359 26.7632 59.6994 27.4716 59.4264 28.0618C59.1608 28.6447 58.7955 29.0948 58.3307 29.4121C57.8658 29.722 57.3346 29.877 56.7369 29.877ZM56.7369 29.1465C57.1944 29.1465 57.5928 29.0247 57.9322 28.7812C58.2716 28.5304 58.5373 28.1688 58.7291 27.6966C58.9209 27.217 59.0169 26.6304 59.0169 25.9368C59.0169 25.2432 58.9209 24.6603 58.7291 24.1881C58.5373 23.7085 58.2716 23.347 57.9322 23.1035C57.5928 22.8526 57.1944 22.7272 56.7369 22.7272C56.2942 22.7272 55.8994 22.8526 55.5527 23.1035C55.2059 23.347 54.9366 23.7085 54.7447 24.1881C54.5529 24.6603 54.4569 25.2432 54.4569 25.9368C54.4569 26.6304 54.5529 27.217 54.7447 27.6966C54.9366 28.1688 55.2059 28.5304 55.5527 28.7812C55.8994 29.0247 56.2942 29.1465 56.7369 29.1465ZM61.4558 29.8659C61.2935 29.8659 61.1533 29.8069 61.0353 29.6888C60.9246 29.5707 60.8693 29.4269 60.8693 29.2572C60.8693 29.0801 60.9246 28.9362 61.0353 28.8255C61.1533 28.7148 61.2935 28.6595 61.4558 28.6595C61.6182 28.6595 61.7547 28.7148 61.8654 28.8255C61.9834 28.9362 62.0424 29.0801 62.0424 29.2572C62.0424 29.4269 61.9834 29.5707 61.8654 29.6888C61.7547 29.8069 61.6182 29.8659 61.4558 29.8659ZM65.6496 29.877C65.0962 29.877 64.5686 29.7884 64.0669 29.6113C63.5651 29.4269 63.1667 29.1834 62.8716 28.8809L63.2589 28.25C63.5024 28.5082 63.8345 28.7222 64.255 28.8919C64.683 29.0616 65.1441 29.1465 65.6385 29.1465C66.2952 29.1465 66.7932 29.0026 67.1327 28.7148C67.4794 28.4197 67.6528 28.036 67.6528 27.5638C67.6528 27.2318 67.5717 26.9477 67.4093 26.7116C67.2544 26.4681 66.9888 26.2799 66.6125 26.1471C66.2362 26.0143 65.7197 25.9479 65.063 25.9479H63.4139L63.8123 22.0631H68.0513V22.7714H64.1333L64.5428 22.3841L64.1997 25.638L63.7902 25.2396H65.2401C66.0222 25.2396 66.6494 25.3355 67.1216 25.5273C67.5938 25.7192 67.9332 25.9885 68.1398 26.3353C68.3538 26.6747 68.4608 27.0731 68.4608 27.5306C68.4608 27.9659 68.3575 28.3644 68.1509 28.7259C67.9443 29.0801 67.6344 29.3605 67.2212 29.5671C66.808 29.7737 66.2841 29.877 65.6496 29.877ZM80.1497 23.9446C80.622 23.9446 81.0315 24.0369 81.3783 24.2213C81.7324 24.3984 82.0054 24.6714 82.1973 25.0403C82.3965 25.4093 82.4961 25.8741 82.4961 26.4349V29.8105H81.7103V26.5124C81.7103 25.8999 81.5627 25.4388 81.2676 25.1289C80.9798 24.8116 80.5703 24.653 80.0391 24.653C79.6406 24.653 79.2938 24.7378 78.9987 24.9075C78.7109 25.0699 78.4859 25.3097 78.3236 25.6269C78.1686 25.9368 78.0911 26.3131 78.0911 26.7558V29.8105H77.3053V26.5124C77.3053 25.8999 77.1577 25.4388 76.8626 25.1289C76.5675 24.8116 76.1543 24.653 75.623 24.653C75.232 24.653 74.8889 24.7378 74.5937 24.9075C74.2986 25.0699 74.0698 25.3097 73.9075 25.6269C73.7526 25.9368 73.6751 26.3131 73.6751 26.7558V29.8105H72.8893V24H73.6419V25.5716L73.5201 25.2949C73.6972 24.8743 73.9813 24.546 74.3724 24.3099C74.7708 24.0664 75.2393 23.9446 75.778 23.9446C76.3461 23.9446 76.8294 24.0885 77.2278 24.3763C77.6263 24.6567 77.8845 25.0809 78.0026 25.6491L77.6927 25.5273C77.8624 25.0551 78.1612 24.6751 78.5892 24.3873C79.0245 24.0922 79.5447 23.9446 80.1497 23.9446ZM91.8876 23.9446C92.3598 23.9446 92.7693 24.0369 93.1161 24.2213C93.4703 24.3984 93.7433 24.6714 93.9352 25.0403C94.1344 25.4093 94.234 25.8741 94.234 26.4349V29.8105H93.4482V26.5124C93.4482 25.8999 93.3006 25.4388 93.0055 25.1289C92.7177 24.8116 92.3082 24.653 91.7769 24.653C91.3785 24.653 91.0317 24.7378 90.7366 24.9075C90.4488 25.0699 90.2238 25.3097 90.0614 25.6269C89.9065 25.9368 89.829 26.3131 89.829 26.7558V29.8105H89.0432V26.5124C89.0432 25.8999 88.8956 25.4388 88.6005 25.1289C88.3053 24.8116 87.8922 24.653 87.3609 24.653C86.9698 24.653 86.6267 24.7378 86.3316 24.9075C86.0365 25.0699 85.8077 25.3097 85.6454 25.6269C85.4904 25.9368 85.413 26.3131 85.413 26.7558V29.8105H84.6272V24H85.3798V25.5716L85.258 25.2949C85.4351 24.8743 85.7192 24.546 86.1102 24.3099C86.5087 24.0664 86.9772 23.9446 87.5158 23.9446C88.084 23.9446 88.5673 24.0885 88.9657 24.3763C89.3642 24.6567 89.6224 25.0809 89.7405 25.6491L89.4306 25.5273C89.6003 25.0551 89.8991 24.6751 90.3271 24.3873C90.7624 24.0922 91.2826 23.9446 91.8876 23.9446Z" fill="black"/>
</svg>
