<svg width="135" height="12" viewBox="0 0 135 12" fill="none" xmlns="http://www.w3.org/2000/svg">
<path d="M1.07995e-07 9.21484V0.155166H2.09667V9.21484H1.07995e-07ZM4.24672 9.21484V0.155166H5.981L9.83784 6.54871H8.91893L12.7111 0.155166H14.4324L14.4583 9.21484H12.491L12.4781 3.17075H12.8405L9.81195 8.25711H8.86716L5.77393 3.17075H6.21397V9.21484H4.24672ZM16.6077 9.21484V0.155166H18.7044V7.50645H23.2472V9.21484H16.6077ZM28.084 9.21484V0.155166H29.8183L33.6751 6.54871H32.7562L36.5483 0.155166H38.2697L38.2955 9.21484H36.3283L36.3154 3.17075H36.6777L33.6492 8.25711H32.7044L29.6112 3.17075H30.0512V9.21484H28.084ZM44.8454 9.37015C44.1293 9.37015 43.4649 9.25367 42.8523 9.02071C42.2483 8.78774 41.722 8.45987 41.2733 8.03709C40.8333 7.6143 40.4881 7.11818 40.2379 6.54871C39.9963 5.97924 39.8755 5.35801 39.8755 4.68501C39.8755 4.012 39.9963 3.39077 40.2379 2.8213C40.4881 2.25184 40.8376 1.75571 41.2862 1.33292C41.7349 0.91014 42.2612 0.582265 42.8652 0.349302C43.4692 0.11634 44.1249 -0.0001418 44.8325 -0.0001418C45.5486 -0.0001418 46.2044 0.11634 46.7997 0.349302C47.4037 0.582265 47.9257 0.91014 48.3657 1.33292C48.8144 1.75571 49.1638 2.25184 49.4141 2.8213C49.6643 3.38214 49.7894 4.00337 49.7894 4.68501C49.7894 5.35801 49.6643 5.98356 49.4141 6.56165C49.1638 7.13112 48.8144 7.62724 48.3657 8.05003C47.9257 8.46418 47.4037 8.78774 46.7997 9.02071C46.2044 9.25367 45.5529 9.37015 44.8454 9.37015ZM44.8325 7.5841C45.238 7.5841 45.609 7.51508 45.9455 7.37702C46.2906 7.23897 46.5926 7.04052 46.8515 6.78167C47.1103 6.52283 47.3088 6.21652 47.4468 5.86276C47.5935 5.509 47.6668 5.11642 47.6668 4.68501C47.6668 4.25359 47.5935 3.86101 47.4468 3.50725C47.3088 3.15349 47.1103 2.84719 46.8515 2.58834C46.6013 2.32949 46.3036 2.13104 45.9584 1.99299C45.6133 1.85493 45.238 1.78591 44.8325 1.78591C44.4269 1.78591 44.0516 1.85493 43.7065 1.99299C43.37 2.13104 43.0723 2.32949 42.8134 2.58834C42.5546 2.84719 42.3518 3.15349 42.2052 3.50725C42.0671 3.86101 41.9981 4.25359 41.9981 4.68501C41.9981 5.10779 42.0671 5.50038 42.2052 5.86276C42.3518 6.21652 42.5503 6.52283 42.8005 6.78167C43.0593 7.04052 43.3613 7.23897 43.7065 7.37702C44.0516 7.51508 44.4269 7.5841 44.8325 7.5841ZM55.7526 9.37015C55.0451 9.37015 54.385 9.25367 53.7724 9.02071C53.1684 8.78774 52.6421 8.45987 52.1934 8.03709C51.7534 7.6143 51.4083 7.11818 51.1581 6.54871C50.9165 5.97924 50.7957 5.35801 50.7957 4.68501C50.7957 4.012 50.9165 3.39077 51.1581 2.8213C51.4083 2.25184 51.7577 1.75571 52.2064 1.33292C52.6551 0.91014 53.1814 0.582265 53.7854 0.349302C54.3893 0.11634 55.0451 -0.0001418 55.7526 -0.0001418C56.4687 -0.0001418 57.1245 0.11634 57.7198 0.349302C58.3238 0.582265 58.8458 0.91014 59.2859 1.33292C59.7345 1.74708 60.084 2.23889 60.3342 2.80836C60.5844 3.37782 60.7095 4.00337 60.7095 4.68501C60.7095 5.35801 60.5844 5.98356 60.3342 6.56165C60.084 7.13112 59.7345 7.62724 59.2859 8.05003C58.8458 8.46418 58.3238 8.78774 57.7198 9.02071C57.1245 9.25367 56.4687 9.37015 55.7526 9.37015ZM58.7164 11.2986C58.3627 11.2986 58.0262 11.2597 57.7069 11.1821C57.3963 11.1044 57.0857 10.9793 56.7751 10.8068C56.4731 10.6342 56.1538 10.4012 55.8173 10.1079C55.4894 9.81451 55.1314 9.45212 54.7431 9.02071L56.9433 8.46418C57.1763 8.78343 57.392 9.03796 57.5904 9.22779C57.7889 9.41761 57.9787 9.55135 58.1599 9.629C58.3497 9.70665 58.5482 9.74548 58.7552 9.74548C59.3074 9.74548 59.7993 9.52115 60.2307 9.07248L61.1625 10.1855C60.5499 10.9276 59.7345 11.2986 58.7164 11.2986ZM55.7526 7.5841C56.1581 7.5841 56.5291 7.51508 56.8656 7.37702C57.2108 7.23897 57.5128 7.04052 57.7716 6.78167C58.0305 6.52283 58.2289 6.21652 58.367 5.86276C58.5136 5.50038 58.587 5.10779 58.587 4.68501C58.587 4.25359 58.5136 3.86101 58.367 3.50725C58.2289 3.15349 58.0305 2.84719 57.7716 2.58834C57.5128 2.32949 57.2108 2.13104 56.8656 1.99299C56.5291 1.85493 56.1581 1.78591 55.7526 1.78591C55.3471 1.78591 54.9717 1.85493 54.6266 1.99299C54.2815 2.13104 53.9795 2.32949 53.7206 2.58834C53.4704 2.84719 53.272 3.15349 53.1253 3.50725C52.9872 3.86101 52.9182 4.25359 52.9182 4.68501C52.9182 5.10779 52.9872 5.50038 53.1253 5.86276C53.272 6.21652 53.4704 6.52283 53.7206 6.78167C53.9795 7.04052 54.2815 7.23897 54.6266 7.37702C54.9717 7.51508 55.3471 7.5841 55.7526 7.5841ZM65.5494 6.38046V4.76266H69.2121V6.38046H65.5494ZM77.1192 9.37015C76.4893 9.37015 75.8638 9.28818 75.2425 9.12425C74.6299 8.95168 74.1036 8.71009 73.6636 8.39947L74.4919 6.79462C74.837 7.04484 75.2339 7.24329 75.6826 7.38997C76.1399 7.53665 76.6015 7.60999 77.0674 7.60999C77.5937 7.60999 78.0079 7.50645 78.3099 7.29937C78.6119 7.09229 78.7629 6.80324 78.7629 6.43223C78.7629 6.19927 78.7025 5.99219 78.5817 5.81099C78.4609 5.6298 78.2452 5.49175 77.9346 5.39684C77.6326 5.30193 77.2055 5.25447 76.6533 5.25447H74.3366L74.8025 0.155166H80.3289V1.83768H75.5532L76.6403 0.879941L76.3168 4.51675L75.2296 3.55902H77.1451C78.0424 3.55902 78.7629 3.68413 79.3064 3.93435C79.8587 4.17594 80.2599 4.50813 80.5101 4.93091C80.7603 5.3537 80.8854 5.83256 80.8854 6.36752C80.8854 6.90247 80.7517 7.39859 80.4842 7.85589C80.2167 8.30456 79.8026 8.67126 79.2417 8.956C78.6895 9.2321 77.982 9.37015 77.1192 9.37015ZM85.6188 9.37015C84.8768 9.37015 84.2124 9.18896 83.6257 8.82657C83.0389 8.45556 82.5773 7.9206 82.2408 7.22171C81.9043 6.52283 81.7361 5.67726 81.7361 4.68501C81.7361 3.69275 81.9043 2.84719 82.2408 2.1483C82.5773 1.44941 83.0389 0.918768 83.6257 0.556381C84.2124 0.185366 84.8768 -0.0001418 85.6188 -0.0001418C86.3695 -0.0001418 87.0338 0.185366 87.6119 0.556381C88.1986 0.918768 88.6603 1.44941 88.9968 2.1483C89.3333 2.84719 89.5015 3.69275 89.5015 4.68501C89.5015 5.67726 89.3333 6.52283 88.9968 7.22171C88.6603 7.9206 88.1986 8.45556 87.6119 8.82657C87.0338 9.18896 86.3695 9.37015 85.6188 9.37015ZM85.6188 7.59704C85.9726 7.59704 86.2789 7.49782 86.5377 7.29937C86.8052 7.10092 87.0123 6.78599 87.1589 6.35457C87.3142 5.92316 87.3919 5.36664 87.3919 4.68501C87.3919 4.00337 87.3142 3.44685 87.1589 3.01544C87.0123 2.58402 86.8052 2.26909 86.5377 2.07064C86.2789 1.87219 85.9726 1.77297 85.6188 1.77297C85.2737 1.77297 84.9674 1.87219 84.6999 2.07064C84.441 2.26909 84.234 2.58402 84.0787 3.01544C83.932 3.44685 83.8586 4.00337 83.8586 4.68501C83.8586 5.36664 83.932 5.92316 84.0787 6.35457C84.234 6.78599 84.441 7.10092 84.6999 7.29937C84.9674 7.49782 85.2737 7.59704 85.6188 7.59704ZM94.4029 9.37015C93.6609 9.37015 92.9965 9.18896 92.4098 8.82657C91.8231 8.45556 91.3615 7.9206 91.025 7.22171C90.6885 6.52283 90.5202 5.67726 90.5202 4.68501C90.5202 3.69275 90.6885 2.84719 91.025 2.1483C91.3615 1.44941 91.8231 0.918768 92.4098 0.556381C92.9965 0.185366 93.6609 -0.0001418 94.4029 -0.0001418C95.1536 -0.0001418 95.818 0.185366 96.3961 0.556381C96.9828 0.918768 97.4444 1.44941 97.7809 2.1483C98.1174 2.84719 98.2857 3.69275 98.2857 4.68501C98.2857 5.67726 98.1174 6.52283 97.7809 7.22171C97.4444 7.9206 96.9828 8.45556 96.3961 8.82657C95.818 9.18896 95.1536 9.37015 94.4029 9.37015ZM94.4029 7.59704C94.7567 7.59704 95.063 7.49782 95.3219 7.29937C95.5893 7.10092 95.7964 6.78599 95.9431 6.35457C96.0984 5.92316 96.1761 5.36664 96.1761 4.68501C96.1761 4.00337 96.0984 3.44685 95.9431 3.01544C95.7964 2.58402 95.5893 2.26909 95.3219 2.07064C95.063 1.87219 94.7567 1.77297 94.4029 1.77297C94.0578 1.77297 93.7515 1.87219 93.484 2.07064C93.2252 2.26909 93.0181 2.58402 92.8628 3.01544C92.7161 3.44685 92.6428 4.00337 92.6428 4.68501C92.6428 5.36664 92.7161 5.92316 92.8628 6.35457C93.0181 6.78599 93.2252 7.10092 93.484 7.29937C93.7515 7.49782 94.0578 7.59704 94.4029 7.59704ZM103.187 9.37015C102.445 9.37015 101.781 9.18896 101.194 8.82657C100.607 8.45556 100.146 7.9206 99.8091 7.22171C99.4726 6.52283 99.3044 5.67726 99.3044 4.68501C99.3044 3.69275 99.4726 2.84719 99.8091 2.1483C100.146 1.44941 100.607 0.918768 101.194 0.556381C101.781 0.185366 102.445 -0.0001418 103.187 -0.0001418C103.938 -0.0001418 104.602 0.185366 105.18 0.556381C105.767 0.918768 106.229 1.44941 106.565 2.1483C106.902 2.84719 107.07 3.69275 107.07 4.68501C107.07 5.67726 106.902 6.52283 106.565 7.22171C106.229 7.9206 105.767 8.45556 105.18 8.82657C104.602 9.18896 103.938 9.37015 103.187 9.37015ZM103.187 7.59704C103.541 7.59704 103.847 7.49782 104.106 7.29937C104.373 7.10092 104.581 6.78599 104.727 6.35457C104.883 5.92316 104.96 5.36664 104.96 4.68501C104.96 4.00337 104.883 3.44685 104.727 3.01544C104.581 2.58402 104.373 2.26909 104.106 2.07064C103.847 1.87219 103.541 1.77297 103.187 1.77297C102.842 1.77297 102.536 1.87219 102.268 2.07064C102.009 2.26909 101.802 2.58402 101.647 3.01544C101.5 3.44685 101.427 4.00337 101.427 4.68501C101.427 5.36664 101.5 5.92316 101.647 6.35457C101.802 6.78599 102.009 7.10092 102.268 7.29937C102.536 7.49782 102.842 7.59704 103.187 7.59704ZM112.323 9.21484V0.155166H116.245C117.056 0.155166 117.755 0.288905 118.342 0.556381C118.928 0.815229 119.381 1.19056 119.7 1.68237C120.02 2.17418 120.179 2.7609 120.179 3.44254C120.179 4.11554 120.02 4.69795 119.7 5.18976C119.381 5.68157 118.928 6.06121 118.342 6.32869C117.755 6.58754 117.056 6.71696 116.245 6.71696H113.488L114.42 5.77217V9.21484H112.323ZM114.42 6.00513L113.488 5.00857H116.128C116.775 5.00857 117.259 4.87051 117.578 4.59441C117.897 4.3183 118.057 3.93435 118.057 3.44254C118.057 2.9421 117.897 2.55382 117.578 2.27772C117.259 2.00162 116.775 1.86356 116.128 1.86356H113.488L114.42 0.866998V6.00513ZM124.886 9.31838C124.136 9.31838 123.467 9.16739 122.88 8.8654C122.293 8.55478 121.832 8.12768 121.495 7.5841C121.167 7.04052 121.004 6.4236 121.004 5.73334C121.004 5.03445 121.167 4.41753 121.495 3.88258C121.832 3.339 122.293 2.91621 122.88 2.61422C123.467 2.3036 124.136 2.1483 124.886 2.1483C125.62 2.1483 126.258 2.3036 126.802 2.61422C127.345 2.91621 127.747 3.35194 128.005 3.9214L126.439 4.76266C126.258 4.43479 126.029 4.19319 125.753 4.03789C125.486 3.88258 125.193 3.80492 124.873 3.80492C124.528 3.80492 124.218 3.88258 123.941 4.03789C123.665 4.19319 123.445 4.41321 123.281 4.69795C123.126 4.98268 123.048 5.32781 123.048 5.73334C123.048 6.13887 123.126 6.484 123.281 6.76873C123.445 7.05346 123.665 7.27348 123.941 7.42879C124.218 7.5841 124.528 7.66176 124.873 7.66176C125.193 7.66176 125.486 7.58842 125.753 7.44174C126.029 7.28643 126.258 7.04052 126.439 6.70402L128.005 7.55822C127.747 8.11905 127.345 8.55478 126.802 8.8654C126.258 9.16739 125.62 9.31838 124.886 9.31838ZM131.51 9.31838C130.915 9.31838 130.341 9.24936 129.789 9.1113C129.245 8.96462 128.814 8.78343 128.495 8.56772L129.168 7.11818C129.487 7.31663 129.862 7.48056 130.294 7.60999C130.734 7.73078 131.165 7.79118 131.588 7.79118C132.054 7.79118 132.382 7.7351 132.572 7.62293C132.77 7.51076 132.869 7.35545 132.869 7.157C132.869 6.99307 132.792 6.87227 132.636 6.79462C132.49 6.70833 132.291 6.64362 132.041 6.60048C131.791 6.55734 131.515 6.5142 131.213 6.47106C130.919 6.42791 130.622 6.37183 130.32 6.3028C130.018 6.22515 129.742 6.11298 129.491 5.9663C129.241 5.81962 129.038 5.62117 128.883 5.37095C128.736 5.12073 128.663 4.79717 128.663 4.40027C128.663 3.96023 128.788 3.57196 129.038 3.23546C129.297 2.89895 129.668 2.63579 130.151 2.44597C130.635 2.24752 131.213 2.1483 131.886 2.1483C132.36 2.1483 132.843 2.20007 133.335 2.3036C133.827 2.40714 134.237 2.55814 134.565 2.75659L133.892 4.19319C133.555 3.99474 133.214 3.86101 132.869 3.79198C132.533 3.71433 132.205 3.6755 131.886 3.6755C131.437 3.6755 131.109 3.7359 130.902 3.85669C130.695 3.97749 130.591 4.1328 130.591 4.32262C130.591 4.49518 130.665 4.62461 130.812 4.71089C130.967 4.79717 131.17 4.8662 131.42 4.91797C131.67 4.96974 131.942 5.01719 132.235 5.06033C132.537 5.09485 132.839 5.15093 133.141 5.22859C133.443 5.30624 133.715 5.41841 133.957 5.56509C134.207 5.70314 134.409 5.89728 134.565 6.1475C134.72 6.38909 134.798 6.70833 134.798 7.10523C134.798 7.53665 134.668 7.9206 134.41 8.25711C134.151 8.58498 133.775 8.84383 133.284 9.03365C132.8 9.22347 132.209 9.31838 131.51 9.31838Z" fill="black"/>
</svg>
