<svg width="130" height="36" viewBox="0 0 130 36" fill="none" xmlns="http://www.w3.org/2000/svg">
<circle cx="17.6922" cy="18.0008" r="17.6922" fill="#024731"/>
<path d="M22.7494 8.29668C22.7683 8.27114 22.8101 8.23233 22.8424 8.21061C22.8869 8.18059 22.9247 8.17064 22.9967 8.16998C23.0716 8.16915 23.1053 8.17777 23.1542 8.21027C23.1884 8.23283 23.2333 8.27578 23.254 8.30563C23.2748 8.33532 23.2958 8.38955 23.3011 8.42603C23.3071 8.46849 23.2713 8.74578 23.2011 9.1972C23.1411 9.58493 23.092 9.91877 23.092 9.93934C23.092 9.9599 23.0977 9.97665 23.1045 9.97682C23.1113 9.97682 23.2847 9.99572 23.49 10.0186C23.6952 10.0417 23.908 10.0685 23.9627 10.0783C24.0174 10.0879 24.107 10.1123 24.1617 10.1322C24.2164 10.1521 24.3096 10.1952 24.369 10.2281C24.4282 10.2609 24.5207 10.3279 24.5745 10.3768C24.6282 10.4257 24.7043 10.5107 24.7433 10.5654C24.7824 10.6201 24.8367 10.7135 24.8637 10.7727C24.8909 10.8321 24.9247 10.9253 24.9388 10.98C24.9531 11.0347 24.9883 11.2885 25.0171 11.5438C25.0458 11.7992 25.0705 12.0102 25.0717 12.0125C25.0728 12.015 25.4581 11.9895 26.782 11.8949L26.8639 11.9351C26.9118 11.9585 26.9618 11.9991 26.9841 12.0331C27.0052 12.0651 27.0271 12.1284 27.0329 12.174C27.0409 12.2369 27.0357 12.2749 27.0113 12.3316C26.9936 12.3727 26.9535 12.4266 26.9221 12.4515C26.8848 12.4809 26.8302 12.5024 26.7654 12.5134C26.7107 12.5225 26.4457 12.5452 26.1767 12.5636C25.9077 12.582 25.5662 12.6064 25.1483 12.6384L25.1485 12.6882C25.1486 12.7155 25.2567 13.7192 25.3888 14.9187L25.638 17.1825C25.6432 17.2281 25.6397 17.3214 25.6302 17.3898C25.6208 17.4582 25.5941 17.5702 25.571 17.6385C25.5478 17.707 25.4984 17.8151 25.4611 17.879C25.4024 17.9795 24.7942 18.5941 20.9217 22.4667C17.0066 26.3818 16.4357 26.9467 16.334 27.0052C16.2701 27.0419 16.1582 27.0925 16.0852 27.1177C15.9761 27.1552 15.9156 27.1646 15.7453 27.1706C15.5862 27.176 15.5109 27.1712 15.4219 27.1495C15.358 27.1338 15.2535 27.0973 15.1897 27.0681C15.1258 27.0389 15.0363 26.9903 14.9907 26.96C14.9451 26.9296 13.3978 25.3962 11.5523 23.5527C9.70681 21.7091 8.16465 20.1596 8.12535 20.1096C8.08604 20.0595 8.027 19.9661 7.99433 19.9023C7.96166 19.8384 7.91904 19.7265 7.89964 19.6535C7.87393 19.5578 7.86382 19.4701 7.86332 19.3384C7.86265 19.1983 7.87095 19.1253 7.89947 19.0233C7.91987 18.9503 7.96548 18.8347 8.00097 18.7662C8.03646 18.6979 8.11407 18.586 8.17344 18.5175C8.23281 18.449 10.2425 16.433 12.6394 14.0374C15.7482 10.9304 17.0282 9.66155 17.1052 9.61064C17.1644 9.57133 17.2577 9.52092 17.3125 9.4987C17.3672 9.47631 17.4493 9.44795 17.4949 9.43568C17.5405 9.4234 17.6337 9.40848 17.7022 9.40284C17.7989 9.39471 18.065 9.41893 18.8962 9.51113L21.2097 9.76769C21.8938 9.84365 22.4554 9.90484 22.4577 9.90385C22.4598 9.90285 22.5129 9.57001 22.5758 9.16403C22.6384 8.75805 22.6953 8.40729 22.7023 8.38457C22.7093 8.36169 22.7305 8.32222 22.7494 8.29668Z" fill="white"/>
<path fill-rule="evenodd" clip-rule="evenodd" d="M17.7768 10.0258C17.8407 10.0255 18.4302 10.0845 19.087 10.1572C19.7437 10.2298 21.0945 10.3792 22.0887 10.4893C23.8216 10.6811 23.9005 10.6913 23.9959 10.7354C24.0506 10.761 24.1252 10.8083 24.1617 10.8408C24.1982 10.8733 24.2478 10.9363 24.272 10.9807C24.2962 11.0253 24.3244 11.0915 24.3347 11.128C24.345 11.1645 24.3751 11.3884 24.4015 11.6255C24.428 11.8627 24.4483 12.0579 24.4466 12.0592C24.445 12.0605 24.2682 12.0736 24.0539 12.0882C23.8396 12.103 23.6307 12.1192 23.5895 12.1244C23.5199 12.1333 23.5134 12.1308 23.4925 12.0871C23.4803 12.0612 23.4429 11.9993 23.4096 11.9492C23.3763 11.8993 23.3079 11.8184 23.2579 11.7693C23.2078 11.7202 23.1144 11.6477 23.0506 11.6081C22.9867 11.5686 22.8637 11.5121 22.7769 11.4824C22.6311 11.4325 22.6031 11.4285 22.4038 11.4282C22.2753 11.428 22.158 11.4365 22.1136 11.4494C22.0724 11.4612 21.9905 11.49 21.9311 11.5132C21.8718 11.5366 21.7749 11.5869 21.7155 11.6252C21.6562 11.6633 21.564 11.7388 21.5106 11.7927C21.4572 11.8468 21.3807 11.9431 21.3409 12.007C21.3009 12.0708 21.25 12.1753 21.2275 12.2391C21.2051 12.303 21.1789 12.4038 21.1694 12.463C21.1598 12.5224 21.1518 12.6174 21.1518 12.6745C21.1517 12.7315 21.1636 12.836 21.178 12.9066C21.1926 12.9773 21.2233 13.0799 21.2464 13.1347C21.2694 13.1894 21.3198 13.2828 21.3586 13.342C21.3973 13.4013 21.4693 13.4899 21.5184 13.539C21.5676 13.5879 21.66 13.662 21.7238 13.7037C21.7877 13.7453 21.881 13.796 21.9311 13.8163C21.9812 13.8365 22.0802 13.8649 22.1509 13.8795C22.2215 13.8939 22.3316 13.9058 22.3955 13.9058C22.4593 13.9058 22.5695 13.8941 22.6401 13.8796C22.7108 13.8652 22.8171 13.8332 22.8764 13.8085C22.9358 13.7838 23.0254 13.7365 23.0754 13.7033C23.1255 13.6703 23.2151 13.5946 23.2744 13.5352C23.3338 13.476 23.4139 13.3745 23.4527 13.31C23.4915 13.2455 23.5418 13.1368 23.5647 13.0683C23.5874 13 23.6118 12.8992 23.6186 12.8443C23.6254 12.7894 23.631 12.7446 23.631 12.7446C23.631 12.7446 23.8287 12.73 24.0705 12.7123C24.3123 12.6945 24.5116 12.6816 24.5136 12.6834C24.5156 12.6854 24.5693 13.1571 24.633 13.7317C24.6967 14.3063 24.8096 15.3251 24.8838 15.9954C24.977 16.8377 25.0158 17.2439 25.009 17.3097C25.0037 17.3621 24.9803 17.448 24.9571 17.5004C24.9188 17.5873 24.5259 17.985 20.4918 22.019C16.4609 26.0501 16.0599 26.4463 15.9691 26.4884C15.8801 26.5298 15.8514 26.5346 15.6955 26.5345C15.5487 26.5343 15.5069 26.528 15.4302 26.4947C15.3484 26.4592 14.9905 26.1068 11.9841 23.1034C10.1392 21.2599 8.60794 19.7182 8.58158 19.6771C8.55537 19.6362 8.52104 19.5577 8.50545 19.503C8.48655 19.4363 8.47958 19.3678 8.48456 19.2957C8.4897 19.221 8.50861 19.1522 8.54575 19.0718C8.59799 18.959 8.72304 18.8322 12.9726 14.581C15.3777 12.175 17.3829 10.1787 17.4285 10.1452C17.4741 10.1116 17.545 10.0711 17.5861 10.0553C17.63 10.0386 17.7085 10.0263 17.7768 10.0258ZM22.4204 11.9871C22.5486 11.9909 22.5854 11.9992 22.6816 12.0449C22.7466 12.0758 22.8283 12.133 22.8764 12.1811C22.9239 12.2285 22.9824 12.3119 23.0132 12.376C23.0635 12.4804 23.0671 12.4997 23.0671 12.662C23.0671 12.8227 23.0632 12.8445 23.0156 12.944C22.9872 13.0033 22.9312 13.0881 22.8912 13.1324C22.8429 13.1858 22.7768 13.2333 22.6948 13.2733C22.5764 13.3312 22.564 13.3337 22.3955 13.3337C22.227 13.3337 22.2146 13.3312 22.0961 13.2733C22.0142 13.2333 21.948 13.1858 21.8998 13.1324C21.8598 13.0881 21.8038 13.0033 21.7754 12.944C21.7278 12.8445 21.7238 12.8229 21.7238 12.6612C21.7238 12.4935 21.7263 12.4809 21.7842 12.3627C21.8245 12.2801 21.8713 12.2152 21.9252 12.167C21.9694 12.1272 22.0356 12.0794 22.0721 12.0605C22.1086 12.0418 22.1683 12.0164 22.2048 12.0045C22.2456 11.9909 22.3287 11.9842 22.4204 11.9871Z" fill="#024731"/>
<path d="M17.5402 13.2138C17.5702 13.1829 17.6172 13.1478 17.6445 13.1357C17.6719 13.1237 17.726 13.1136 17.7648 13.1133C17.8036 13.113 17.8595 13.1231 17.8891 13.1358C17.9215 13.1498 18.7363 13.9536 19.9272 15.1467C21.5957 16.818 21.9146 17.1449 21.9319 17.2006C21.9438 17.2396 21.9474 17.2943 21.9408 17.3333C21.9347 17.3698 21.9131 17.425 21.8932 17.456C21.8733 17.487 21.827 17.5298 21.7906 17.551C21.7436 17.5784 21.6977 17.5898 21.633 17.5902C21.5599 17.5907 21.527 17.5812 21.4672 17.5426C21.426 17.5162 20.5144 16.6149 19.4411 15.5399C17.7497 13.8456 17.4873 13.5765 17.4719 13.5189C17.4621 13.4825 17.454 13.4377 17.454 13.4194C17.454 13.4012 17.4611 13.3602 17.4699 13.3282C17.4787 13.2964 17.5104 13.2448 17.5402 13.2138Z" fill="white"/>
<path d="M16.6622 14.0927C16.6918 14.0619 16.7382 14.0267 16.7656 14.0146C16.7929 14.0027 16.847 13.9926 16.8858 13.9922C16.9246 13.9919 16.9768 13.9994 17.0019 14.009C17.0269 14.0186 17.7105 14.6883 18.521 15.4974C19.533 16.5077 20.0043 16.9892 20.0257 17.0348C20.0428 17.0713 20.0568 17.1273 20.0568 17.1592C20.0568 17.191 20.0433 17.247 20.0268 17.2835C20.0104 17.32 19.9733 17.3704 19.9442 17.3955C19.9154 17.4205 19.86 17.449 19.8212 17.4588C19.7694 17.4719 19.7287 17.4714 19.6678 17.457C19.5872 17.4379 19.5424 17.395 18.1205 15.9757C17.3152 15.1717 16.6422 14.4916 16.6253 14.4642C16.6082 14.4369 16.5891 14.3846 16.5826 14.3481C16.5762 14.3108 16.5793 14.2528 16.5899 14.2155C16.6002 14.179 16.6327 14.1238 16.6622 14.0927Z" fill="white"/>
<path d="M15.7561 15.0001C15.78 14.9664 15.8304 14.9234 15.868 14.9047C15.9055 14.886 15.968 14.8705 16.0068 14.8705C16.0456 14.8705 16.1054 14.885 16.1395 14.9026C16.1753 14.9211 16.8205 15.5541 17.6648 16.3993C18.7072 17.4431 19.1349 17.8819 19.1532 17.9262C19.1671 17.9603 19.1784 18.0126 19.1782 18.0423C19.1781 18.0719 19.1643 18.126 19.1479 18.1625C19.1315 18.199 19.0943 18.2494 19.0653 18.2744C19.0364 18.2995 18.9847 18.3275 18.9505 18.3365C18.9164 18.3456 18.8772 18.3529 18.8635 18.3529C18.8497 18.3527 18.8087 18.3441 18.7722 18.3336C18.7157 18.3176 18.4883 18.0976 17.2337 16.8455C16.1276 15.7417 15.7526 15.3578 15.7261 15.3017C15.6979 15.2424 15.6929 15.2102 15.7017 15.1442C15.7082 15.0956 15.7307 15.0359 15.7561 15.0001Z" fill="white"/>
<path d="M14.8775 15.879C14.9012 15.8454 14.9514 15.8024 14.9891 15.7837C15.0266 15.7649 15.0836 15.7497 15.1154 15.7498C15.1475 15.75 15.1997 15.7578 15.2315 15.7672C15.277 15.7807 15.7236 16.2185 17.2827 17.7777C19.125 19.6204 19.2771 19.7768 19.295 19.8458C19.3056 19.8869 19.3094 19.9428 19.3036 19.9702C19.2978 19.9975 19.2804 20.0455 19.2648 20.0766C19.2494 20.108 19.2142 20.1501 19.1868 20.1705C19.1595 20.1909 19.1054 20.2158 19.0666 20.2257C19.0152 20.2388 18.9747 20.2388 18.9174 20.2252C18.8421 20.2073 18.7515 20.1196 16.8525 18.2227C15.1564 16.5286 14.8624 16.2278 14.839 16.1641C14.8197 16.1117 14.8149 16.0673 14.8229 16.0148C14.8292 15.9737 14.8537 15.9127 14.8775 15.879Z" fill="white"/>
<path d="M13.9965 16.7593C14.0204 16.7265 14.071 16.6837 14.1091 16.6641C14.1473 16.6445 14.2083 16.6286 14.2448 16.6288C14.2813 16.629 14.341 16.6432 14.3775 16.6603C14.4231 16.6817 14.904 17.1525 15.9143 18.165C17.1843 19.4376 17.3873 19.6476 17.4026 19.7048C17.4125 19.7413 17.4203 19.7899 17.4201 19.8126C17.42 19.8355 17.4064 19.8839 17.39 19.9204C17.3735 19.9569 17.3364 20.0073 17.3074 20.0324C17.2785 20.0574 17.2268 20.0854 17.1926 20.0944C17.1584 20.1035 17.1193 20.111 17.1055 20.111C17.0918 20.111 17.0508 20.1028 17.0143 20.0931C16.9571 20.0776 16.746 19.8735 15.4677 18.5965C14.3375 17.4675 13.9811 17.1019 13.9609 17.0514C13.9431 17.0064 13.9376 16.9583 13.9438 16.9021C13.9496 16.8505 13.9695 16.7966 13.9965 16.7593Z" fill="white"/>
<path d="M13.1502 17.5986C13.1822 17.5668 13.2325 17.5338 13.2622 17.5255C13.2919 17.5172 13.3421 17.5099 13.3741 17.5092C13.4061 17.5086 13.462 17.5222 13.4985 17.5393C13.5439 17.5607 14.0244 18.0306 15.0279 19.0356C16.07 20.0795 16.4981 20.5188 16.5163 20.563C16.5302 20.5972 16.5417 20.6476 16.5417 20.675C16.5417 20.7024 16.5301 20.7528 16.5158 20.7869C16.5017 20.8211 16.4737 20.8669 16.4536 20.8886C16.4337 20.9103 16.3874 20.9418 16.351 20.9587C16.3145 20.9757 16.2604 20.9896 16.2307 20.9898C16.201 20.9899 16.1488 20.9786 16.1146 20.9647C16.0704 20.9465 15.631 20.5184 14.5872 19.4763C13.5822 18.4728 13.1122 17.9923 13.0909 17.9469C13.0738 17.9104 13.0597 17.8582 13.0595 17.8308C13.0593 17.8034 13.0666 17.753 13.0758 17.7189C13.0847 17.6847 13.1182 17.6305 13.1502 17.5986Z" fill="white"/>
<path d="M12.2995 18.4539C12.3296 18.4318 12.3729 18.4081 12.3956 18.4015C12.4185 18.3947 12.4633 18.3887 12.4952 18.3882C12.5272 18.3875 12.583 18.4011 12.6195 18.4182C12.6655 18.4398 13.2938 19.0584 14.6619 20.4287C15.7486 21.5173 16.6417 22.423 16.6463 22.4412C16.651 22.4594 16.6591 22.4949 16.6646 22.52C16.6699 22.545 16.6654 22.6011 16.6543 22.6444C16.6415 22.6949 16.6133 22.7442 16.5755 22.7818C16.5379 22.8196 16.4886 22.8478 16.438 22.8606C16.3947 22.8717 16.335 22.8759 16.3054 22.8701C16.2757 22.8641 16.2329 22.8497 16.21 22.8379C16.1873 22.8261 15.2826 21.9297 14.1997 20.846C12.787 19.432 12.2238 18.858 12.2054 18.8134C12.1915 18.7793 12.1802 18.7232 12.1802 18.689C12.1804 18.6549 12.195 18.597 12.2127 18.5605C12.2303 18.524 12.2694 18.4761 12.2995 18.4539Z" fill="white"/>
<path d="M11.4255 19.3259C11.4528 19.3073 11.494 19.2867 11.5167 19.2801C11.5396 19.2736 11.5842 19.2677 11.6162 19.2672C11.6482 19.2665 11.7041 19.2801 11.7406 19.2972C11.7865 19.3186 12.4151 19.9373 13.7831 21.3077C15.7451 23.2731 15.7592 23.2877 15.7753 23.3699C15.7843 23.4155 15.7861 23.4752 15.7795 23.5026C15.7728 23.5299 15.7551 23.5765 15.74 23.6062C15.7249 23.6359 15.6919 23.6744 15.6669 23.6918C15.6418 23.7092 15.5878 23.7323 15.5466 23.7429C15.4901 23.7576 15.4539 23.7576 15.3974 23.7432C15.3284 23.7255 15.1743 23.5759 13.3434 21.7476C11.9744 20.3806 11.3545 19.7508 11.3329 19.7048C11.3159 19.6683 11.3018 19.6086 11.3018 19.5721C11.3016 19.5357 11.3182 19.473 11.3386 19.4327C11.359 19.3925 11.3981 19.3444 11.4255 19.3259Z" fill="white"/>
<path d="M43.7535 14.1895V6.37686H47.1352C47.8346 6.37686 48.4373 6.49219 48.9433 6.72285C49.4492 6.94606 49.8399 7.26973 50.1152 7.69384C50.3905 8.11795 50.5281 8.62391 50.5281 9.21172C50.5281 9.79208 50.3905 10.2943 50.1152 10.7184C49.8399 11.1425 49.4492 11.4699 48.9433 11.7006C48.4373 11.9238 47.8346 12.0354 47.1352 12.0354H44.758L45.5616 11.2207V14.1895H43.7535ZM45.5616 11.4216L44.758 10.5622H47.0348C47.5928 10.5622 48.0095 10.4431 48.2848 10.205C48.5601 9.96693 48.6978 9.63583 48.6978 9.21172C48.6978 8.78016 48.5601 8.44534 48.2848 8.20724C48.0095 7.96914 47.5928 7.85009 47.0348 7.85009H44.758L45.5616 6.99071V11.4216ZM51.6962 14.1895V8.18492H53.3591V9.88137L53.1248 9.39029C53.3033 8.96618 53.5898 8.64623 53.9842 8.43046C54.3785 8.20724 54.8584 8.09563 55.4239 8.09563V9.70279C55.3495 9.69535 55.2825 9.69163 55.223 9.69163C55.1635 9.68419 55.1002 9.68047 55.0333 9.68047C54.5571 9.68047 54.1702 9.81812 53.8725 10.0934C53.5824 10.3613 53.4373 10.7817 53.4373 11.3546V14.1895H51.6962ZM59.2618 14.2787C58.622 14.2787 58.0527 14.1448 57.5542 13.8769C57.0632 13.6091 56.6725 13.2445 56.3823 12.7832C56.0996 12.3144 55.9582 11.7824 55.9582 11.1872C55.9582 10.5845 56.0996 10.0525 56.3823 9.59119C56.6725 9.12243 57.0632 8.75784 57.5542 8.49742C58.0527 8.22956 58.622 8.09563 59.2618 8.09563C59.8943 8.09563 60.4598 8.22956 60.9583 8.49742C61.4568 8.75784 61.8474 9.11871 62.1302 9.58002C62.4129 10.0413 62.5543 10.5771 62.5543 11.1872C62.5543 11.7824 62.4129 12.3144 62.1302 12.7832C61.8474 13.2445 61.4568 13.6091 60.9583 13.8769C60.4598 14.1448 59.8943 14.2787 59.2618 14.2787ZM59.2618 12.8502C59.552 12.8502 59.8124 12.7832 60.0431 12.6493C60.2738 12.5153 60.4561 12.3256 60.59 12.0801C60.7239 11.8271 60.7909 11.5295 60.7909 11.1872C60.7909 10.8375 60.7239 10.5399 60.59 10.2943C60.4561 10.0488 60.2738 9.85905 60.0431 9.72512C59.8124 9.59119 59.552 9.52422 59.2618 9.52422C58.9717 9.52422 58.7112 9.59119 58.4806 9.72512C58.2499 9.85905 58.0639 10.0488 57.9225 10.2943C57.7886 10.5399 57.7216 10.8375 57.7216 11.1872C57.7216 11.5295 57.7886 11.8271 57.9225 12.0801C58.0639 12.3256 58.2499 12.5153 58.4806 12.6493C58.7112 12.7832 58.9717 12.8502 59.2618 12.8502ZM66.2962 14.2787C65.7307 14.2787 65.2211 14.1523 64.7672 13.8993C64.3133 13.6389 63.9524 13.278 63.6846 12.8167C63.4242 12.3554 63.294 11.8122 63.294 11.1872C63.294 10.5547 63.4242 10.0079 63.6846 9.54654C63.9524 9.08523 64.3133 8.72808 64.7672 8.4751C65.2211 8.22212 65.7307 8.09563 66.2962 8.09563C66.8022 8.09563 67.2449 8.20724 67.6244 8.43046C68.0038 8.65367 68.2977 8.99222 68.5061 9.44609C68.7144 9.89997 68.8186 10.4803 68.8186 11.1872C68.8186 11.8866 68.7181 12.467 68.5172 12.9283C68.3163 13.3822 68.0262 13.7207 67.6467 13.9439C67.2747 14.1671 66.8245 14.2787 66.2962 14.2787ZM66.5976 12.8502C66.8803 12.8502 67.137 12.7832 67.3677 12.6493C67.5983 12.5153 67.7806 12.3256 67.9145 12.0801C68.0559 11.8271 68.1266 11.5295 68.1266 11.1872C68.1266 10.8375 68.0559 10.5399 67.9145 10.2943C67.7806 10.0488 67.5983 9.85905 67.3677 9.72512C67.137 9.59119 66.8803 9.52422 66.5976 9.52422C66.3074 9.52422 66.047 9.59119 65.8163 9.72512C65.5857 9.85905 65.3996 10.0488 65.2583 10.2943C65.1243 10.5399 65.0574 10.8375 65.0574 11.1872C65.0574 11.5295 65.1243 11.8271 65.2583 12.0801C65.3996 12.3256 65.5857 12.5153 65.8163 12.6493C66.047 12.7832 66.3074 12.8502 66.5976 12.8502ZM68.1712 14.1895V12.9618L68.2047 11.176L68.0931 9.40145V5.90811H69.8342V14.1895H68.1712ZM73.9792 14.2787C73.4806 14.2787 73.0342 14.182 72.6399 13.9886C72.2529 13.7951 71.9516 13.5012 71.7358 13.1069C71.52 12.7051 71.4122 12.1954 71.4122 11.5778V8.18492H73.1533V11.3211C73.1533 11.8196 73.2574 12.1879 73.4658 12.426C73.6815 12.6567 73.9829 12.772 74.3698 12.772C74.6376 12.772 74.8757 12.7162 75.0841 12.6046C75.2924 12.4856 75.4561 12.307 75.5752 12.0689C75.6942 11.8234 75.7537 11.5183 75.7537 11.1537V8.18492H77.4948V14.1895H75.843V12.5376L76.1444 13.0176C75.9435 13.4342 75.6458 13.7505 75.2515 13.9662C74.8646 14.1746 74.4405 14.2787 73.9792 14.2787ZM82.0096 14.2787C81.3623 14.2787 80.7857 14.1485 80.2797 13.8881C79.7738 13.6203 79.3757 13.2519 79.0855 12.7832C78.8028 12.3144 78.6614 11.7824 78.6614 11.1872C78.6614 10.5845 78.8028 10.0525 79.0855 9.59119C79.3757 9.12243 79.7738 8.75784 80.2797 8.49742C80.7857 8.22956 81.3623 8.09563 82.0096 8.09563C82.6421 8.09563 83.1927 8.22956 83.6615 8.49742C84.1302 8.75784 84.4762 9.13359 84.6994 9.62467L83.3489 10.3501C83.1927 10.0674 82.9955 9.85905 82.7574 9.72512C82.5268 9.59119 82.2738 9.52422 81.9985 9.52422C81.7009 9.52422 81.433 9.59119 81.1949 9.72512C80.9568 9.85905 80.7671 10.0488 80.6257 10.2943C80.4918 10.5399 80.4248 10.8375 80.4248 11.1872C80.4248 11.5369 80.4918 11.8345 80.6257 12.0801C80.7671 12.3256 80.9568 12.5153 81.1949 12.6493C81.433 12.7832 81.7009 12.8502 81.9985 12.8502C82.2738 12.8502 82.5268 12.7869 82.7574 12.6604C82.9955 12.5265 83.1927 12.3144 83.3489 12.0242L84.6994 12.7609C84.4762 13.2445 84.1302 13.6203 83.6615 13.8881C83.1927 14.1485 82.6421 14.2787 82.0096 14.2787ZM88.2445 14.2787C87.5376 14.2787 86.987 14.1002 86.5927 13.743C86.1983 13.3784 86.0011 12.839 86.0011 12.1247V6.85678H87.7422V12.1024C87.7422 12.3554 87.8092 12.5525 87.9431 12.6939C88.077 12.8278 88.2593 12.8948 88.49 12.8948C88.7653 12.8948 88.9997 12.8204 89.1931 12.6716L89.6619 13.8993C89.4833 14.0258 89.2675 14.1225 89.0146 14.1895C88.769 14.249 88.5123 14.2787 88.2445 14.2787ZM85.0748 9.65815V8.31885H89.2378V9.65815H85.0748ZM97.6617 14.3234C97.059 14.3234 96.4972 14.2267 95.9764 14.0332C95.463 13.8323 95.0166 13.5496 94.6371 13.185C94.2576 12.8204 93.96 12.3926 93.7442 11.9015C93.5359 11.4104 93.4317 10.871 93.4317 10.2832C93.4317 9.69535 93.5359 9.15591 93.7442 8.66484C93.96 8.17376 94.2576 7.74593 94.6371 7.38134C95.024 7.01675 95.4742 6.73773 95.9876 6.54427C96.501 6.34338 97.0627 6.24293 97.6728 6.24293C98.3499 6.24293 98.9601 6.36198 99.5032 6.60008C100.054 6.83074 100.515 7.173 100.887 7.62688L99.7264 8.69832C99.4586 8.39325 99.161 8.16632 98.8336 8.01751C98.5062 7.86125 98.149 7.78313 97.7621 7.78313C97.3975 7.78313 97.0627 7.84265 96.7577 7.9617C96.4526 8.08075 96.1884 8.25188 95.9652 8.4751C95.742 8.69832 95.5672 8.96246 95.4407 9.26752C95.3216 9.57258 95.2621 9.91113 95.2621 10.2832C95.2621 10.6552 95.3216 10.9937 95.4407 11.2988C95.5672 11.6039 95.742 11.868 95.9652 12.0912C96.1884 12.3144 96.4526 12.4856 96.7577 12.6046C97.0627 12.7237 97.3975 12.7832 97.7621 12.7832C98.149 12.7832 98.5062 12.7088 98.8336 12.56C99.161 12.4037 99.4586 12.1693 99.7264 11.8568L100.887 12.9283C100.515 13.3822 100.054 13.7281 99.5032 13.9662C98.9601 14.2043 98.3462 14.3234 97.6617 14.3234ZM104.635 14.2787C103.996 14.2787 103.426 14.1448 102.928 13.8769C102.437 13.6091 102.046 13.2445 101.756 12.7832C101.473 12.3144 101.332 11.7824 101.332 11.1872C101.332 10.5845 101.473 10.0525 101.756 9.59119C102.046 9.12243 102.437 8.75784 102.928 8.49742C103.426 8.22956 103.996 8.09563 104.635 8.09563C105.268 8.09563 105.833 8.22956 106.332 8.49742C106.83 8.75784 107.221 9.11871 107.504 9.58002C107.787 10.0413 107.928 10.5771 107.928 11.1872C107.928 11.7824 107.787 12.3144 107.504 12.7832C107.221 13.2445 106.83 13.6091 106.332 13.8769C105.833 14.1448 105.268 14.2787 104.635 14.2787ZM104.635 12.8502C104.926 12.8502 105.186 12.7832 105.417 12.6493C105.647 12.5153 105.83 12.3256 105.964 12.0801C106.098 11.8271 106.165 11.5295 106.165 11.1872C106.165 10.8375 106.098 10.5399 105.964 10.2943C105.83 10.0488 105.647 9.85905 105.417 9.72512C105.186 9.59119 104.926 9.52422 104.635 9.52422C104.345 9.52422 104.085 9.59119 103.854 9.72512C103.624 9.85905 103.438 10.0488 103.296 10.2943C103.162 10.5399 103.095 10.8375 103.095 11.1872C103.095 11.5295 103.162 11.8271 103.296 12.0801C103.438 12.3256 103.624 12.5153 103.854 12.6493C104.085 12.7832 104.345 12.8502 104.635 12.8502ZM111.67 14.2787C111.104 14.2787 110.595 14.1523 110.141 13.8993C109.687 13.6389 109.326 13.278 109.058 12.8167C108.798 12.3554 108.668 11.8122 108.668 11.1872C108.668 10.5547 108.798 10.0079 109.058 9.54654C109.326 9.08523 109.687 8.72808 110.141 8.4751C110.595 8.22212 111.104 8.09563 111.67 8.09563C112.176 8.09563 112.619 8.20724 112.998 8.43046C113.377 8.65367 113.671 8.99222 113.88 9.44609C114.088 9.89997 114.192 10.4803 114.192 11.1872C114.192 11.8866 114.092 12.467 113.891 12.9283C113.69 13.3822 113.4 13.7207 113.02 13.9439C112.648 14.1671 112.198 14.2787 111.67 14.2787ZM111.971 12.8502C112.254 12.8502 112.511 12.7832 112.741 12.6493C112.972 12.5153 113.154 12.3256 113.288 12.0801C113.43 11.8271 113.5 11.5295 113.5 11.1872C113.5 10.8375 113.43 10.5399 113.288 10.2943C113.154 10.0488 112.972 9.85905 112.741 9.72512C112.511 9.59119 112.254 9.52422 111.971 9.52422C111.681 9.52422 111.421 9.59119 111.19 9.72512C110.959 9.85905 110.773 10.0488 110.632 10.2943C110.498 10.5399 110.431 10.8375 110.431 11.1872C110.431 11.5295 110.498 11.8271 110.632 12.0801C110.773 12.3256 110.959 12.5153 111.19 12.6493C111.421 12.7832 111.681 12.8502 111.971 12.8502ZM113.545 14.1895V12.9618L113.578 11.176L113.467 9.40145V5.90811H115.208V14.1895H113.545ZM119.799 14.2787C119.115 14.2787 118.512 14.1448 117.991 13.8769C117.478 13.6091 117.08 13.2445 116.797 12.7832C116.514 12.3144 116.373 11.7824 116.373 11.1872C116.373 10.5845 116.51 10.0525 116.786 9.59119C117.069 9.12243 117.452 8.75784 117.935 8.49742C118.419 8.22956 118.966 8.09563 119.576 8.09563C120.164 8.09563 120.692 8.22212 121.161 8.4751C121.637 8.72064 122.013 9.07779 122.288 9.54654C122.563 10.0079 122.701 10.5622 122.701 11.2095C122.701 11.2765 122.697 11.3546 122.69 11.4439C122.682 11.5257 122.675 11.6039 122.668 11.6783H117.79V10.6626H121.752L121.083 10.964C121.083 10.6515 121.019 10.3799 120.893 10.1492C120.766 9.91857 120.592 9.74 120.368 9.61351C120.145 9.47958 119.885 9.41261 119.587 9.41261C119.29 9.41261 119.025 9.47958 118.795 9.61351C118.572 9.74 118.397 9.92229 118.27 10.1604C118.144 10.391 118.08 10.6663 118.08 10.9863V11.2542C118.08 11.5815 118.151 11.8717 118.292 12.1247C118.441 12.3702 118.646 12.56 118.906 12.6939C119.174 12.8204 119.487 12.8836 119.844 12.8836C120.164 12.8836 120.443 12.8353 120.681 12.7385C120.926 12.6418 121.15 12.4967 121.351 12.3033L122.277 13.3077C122.002 13.6203 121.656 13.8621 121.239 14.0332C120.822 14.1969 120.342 14.2787 119.799 14.2787Z" fill="black"/>
<path d="M46.3467 29.877C45.7269 29.877 45.192 29.7884 44.7419 29.6113C44.2992 29.4342 43.9561 29.1797 43.7126 28.8477C43.4765 28.5082 43.3584 28.1098 43.3584 27.6523C43.3584 27.2096 43.4728 26.8333 43.7015 26.5234C43.9376 26.2061 44.277 25.9627 44.7197 25.7929C45.1698 25.6232 45.7121 25.5384 46.3467 25.5384C46.9739 25.5384 47.5125 25.6232 47.9626 25.7929C48.4127 25.9627 48.7558 26.2061 48.9919 26.5234C49.2354 26.8333 49.3571 27.2096 49.3571 27.6523C49.3571 28.1098 49.2354 28.5082 48.9919 28.8477C48.7484 29.1797 48.4016 29.4342 47.9515 29.6113C47.5014 29.7884 46.9665 29.877 46.3467 29.877ZM46.3467 29.2018C47.0329 29.2018 47.5678 29.0616 47.9515 28.7812C48.3426 28.5009 48.5381 28.1209 48.5381 27.6413C48.5381 27.1617 48.3426 26.7854 47.9515 26.5124C47.5678 26.232 47.0329 26.0918 46.3467 26.0918C45.6605 26.0918 45.1256 26.232 44.7419 26.5124C44.3582 26.7854 44.1663 27.1617 44.1663 27.6413C44.1663 28.1209 44.3582 28.5009 44.7419 28.7812C45.1256 29.0616 45.6605 29.2018 46.3467 29.2018ZM46.3467 25.9922C45.7712 25.9922 45.2805 25.9147 44.8747 25.7597C44.4762 25.6048 44.17 25.3834 43.9561 25.0957C43.7421 24.8005 43.6351 24.4501 43.6351 24.0442C43.6351 23.6163 43.7458 23.2511 43.9671 22.9485C44.1959 22.6386 44.5131 22.4025 44.919 22.2402C45.3248 22.0779 45.8007 21.9967 46.3467 21.9967C46.8927 21.9967 47.3686 22.0779 47.7744 22.2402C48.1876 22.4025 48.5086 22.6386 48.7373 22.9485C48.9661 23.2511 49.0804 23.6163 49.0804 24.0442C49.0804 24.4501 48.9734 24.8005 48.7595 25.0957C48.5455 25.3834 48.2319 25.6048 47.8187 25.7597C47.4129 25.9147 46.9222 25.9922 46.3467 25.9922ZM46.3467 25.4609C46.9517 25.4609 47.424 25.3355 47.7634 25.0846C48.1028 24.8337 48.2725 24.498 48.2725 24.0774C48.2725 23.6347 48.0954 23.2916 47.7412 23.0481C47.3944 22.7973 46.9296 22.6718 46.3467 22.6718C45.7638 22.6718 45.2989 22.7973 44.9522 23.0481C44.6054 23.2916 44.432 23.631 44.432 24.0664C44.432 24.4943 44.598 24.8337 44.93 25.0846C45.2694 25.3355 45.7417 25.4609 46.3467 25.4609ZM53.4046 29.877C52.7848 29.877 52.2498 29.7884 51.7997 29.6113C51.357 29.4342 51.0139 29.1797 50.7704 28.8477C50.5343 28.5082 50.4163 28.1098 50.4163 27.6523C50.4163 27.2096 50.5306 26.8333 50.7594 26.5234C50.9955 26.2061 51.3349 25.9627 51.7776 25.7929C52.2277 25.6232 52.77 25.5384 53.4046 25.5384C54.0317 25.5384 54.5704 25.6232 55.0205 25.7929C55.4705 25.9627 55.8136 26.2061 56.0498 26.5234C56.2932 26.8333 56.415 27.2096 56.415 27.6523C56.415 28.1098 56.2932 28.5082 56.0498 28.8477C55.8063 29.1797 55.4595 29.4342 55.0094 29.6113C54.5593 29.7884 54.0244 29.877 53.4046 29.877ZM53.4046 29.2018C54.0908 29.2018 54.6257 29.0616 55.0094 28.7812C55.4004 28.5009 55.596 28.1209 55.596 27.6413C55.596 27.1617 55.4004 26.7854 55.0094 26.5124C54.6257 26.232 54.0908 26.0918 53.4046 26.0918C52.7184 26.0918 52.1834 26.232 51.7997 26.5124C51.4161 26.7854 51.2242 27.1617 51.2242 27.6413C51.2242 28.1209 51.4161 28.5009 51.7997 28.7812C52.1834 29.0616 52.7184 29.2018 53.4046 29.2018ZM53.4046 25.9922C52.829 25.9922 52.3384 25.9147 51.9325 25.7597C51.5341 25.6048 51.2279 25.3834 51.0139 25.0957C50.7999 24.8005 50.693 24.4501 50.693 24.0442C50.693 23.6163 50.8036 23.2511 51.025 22.9485C51.2537 22.6386 51.571 22.4025 51.9768 22.2402C52.3826 22.0779 52.8586 21.9967 53.4046 21.9967C53.9506 21.9967 54.4265 22.0779 54.8323 22.2402C55.2455 22.4025 55.5665 22.6386 55.7952 22.9485C56.0239 23.2511 56.1383 23.6163 56.1383 24.0442C56.1383 24.4501 56.0313 24.8005 55.8173 25.0957C55.6034 25.3834 55.2898 25.6048 54.8766 25.7597C54.4708 25.9147 53.9801 25.9922 53.4046 25.9922ZM53.4046 25.4609C54.0096 25.4609 54.4818 25.3355 54.8212 25.0846C55.1606 24.8337 55.3304 24.498 55.3304 24.0774C55.3304 23.6347 55.1533 23.2916 54.7991 23.0481C54.4523 22.7973 53.9875 22.6718 53.4046 22.6718C52.8217 22.6718 52.3568 22.7973 52.01 23.0481C51.6632 23.2916 51.4898 23.631 51.4898 24.0664C51.4898 24.4943 51.6559 24.8337 51.9879 25.0846C52.3273 25.3355 52.7995 25.4609 53.4046 25.4609ZM60.4624 29.877C59.8426 29.877 59.3077 29.7884 58.8576 29.6113C58.4149 29.4342 58.0718 29.1797 57.8283 28.8477C57.5922 28.5082 57.4741 28.1098 57.4741 27.6523C57.4741 27.2096 57.5885 26.8333 57.8172 26.5234C58.0533 26.2061 58.3928 25.9627 58.8355 25.7929C59.2856 25.6232 59.8279 25.5384 60.4624 25.5384C61.0896 25.5384 61.6282 25.6232 62.0783 25.7929C62.5284 25.9627 62.8715 26.2061 63.1076 26.5234C63.3511 26.8333 63.4729 27.2096 63.4729 27.6523C63.4729 28.1098 63.3511 28.5082 63.1076 28.8477C62.8641 29.1797 62.5173 29.4342 62.0673 29.6113C61.6172 29.7884 61.0822 29.877 60.4624 29.877ZM60.4624 29.2018C61.1486 29.2018 61.6836 29.0616 62.0673 28.7812C62.4583 28.5009 62.6538 28.1209 62.6538 27.6413C62.6538 27.1617 62.4583 26.7854 62.0673 26.5124C61.6836 26.232 61.1486 26.0918 60.4624 26.0918C59.7762 26.0918 59.2413 26.232 58.8576 26.5124C58.4739 26.7854 58.2821 27.1617 58.2821 27.6413C58.2821 28.1209 58.4739 28.5009 58.8576 28.7812C59.2413 29.0616 59.7762 29.2018 60.4624 29.2018ZM60.4624 25.9922C59.8869 25.9922 59.3962 25.9147 58.9904 25.7597C58.592 25.6048 58.2858 25.3834 58.0718 25.0957C57.8578 24.8005 57.7508 24.4501 57.7508 24.0442C57.7508 23.6163 57.8615 23.2511 58.0829 22.9485C58.3116 22.6386 58.6289 22.4025 59.0347 22.2402C59.4405 22.0779 59.9164 21.9967 60.4624 21.9967C61.0084 21.9967 61.4843 22.0779 61.8902 22.2402C62.3034 22.4025 62.6243 22.6386 62.8531 22.9485C63.0818 23.2511 63.1962 23.6163 63.1962 24.0442C63.1962 24.4501 63.0892 24.8005 62.8752 25.0957C62.6612 25.3834 62.3476 25.6048 61.9344 25.7597C61.5286 25.9147 61.0379 25.9922 60.4624 25.9922ZM60.4624 25.4609C61.0675 25.4609 61.5397 25.3355 61.8791 25.0846C62.2185 24.8337 62.3882 24.498 62.3882 24.0774C62.3882 23.6347 62.2111 23.2916 61.857 23.0481C61.5102 22.7973 61.0453 22.6718 60.4624 22.6718C59.8795 22.6718 59.4147 22.7973 59.0679 23.0481C58.7211 23.2916 58.5477 23.631 58.5477 24.0664C58.5477 24.4943 58.7137 24.8337 59.0457 25.0846C59.3852 25.3355 59.8574 25.4609 60.4624 25.4609ZM65.9265 29.8105V22.3951L66.2807 22.7714H64.1003V22.0631H66.7234V29.8105H65.9265Z" fill="black"/>
</svg>
