<svg width="97" height="10" viewBox="0 0 97 10" fill="none" xmlns="http://www.w3.org/2000/svg">
<path d="M2.28035e-05 9.89795V0.560179H3.84185C4.66891 0.560179 5.37591 0.693576 5.96286 0.96037C6.55869 1.22716 7.01669 1.60957 7.33684 2.10758C7.65699 2.6056 7.81707 3.19699 7.81707 3.88176C7.81707 4.56653 7.65699 5.15792 7.33684 5.65593C7.01669 6.14506 6.55869 6.52301 5.96286 6.78981C5.37591 7.04771 4.66891 7.17666 3.84185 7.17666H0.960479L1.73418 6.38962V9.89795H2.28035e-05ZM6.10959 9.89795L3.74847 6.50967H5.60268L7.97715 9.89795H6.10959ZM1.73418 6.57637L0.960479 5.74931H3.76181C4.52662 5.74931 5.10022 5.58479 5.48263 5.25574C5.87392 4.9267 6.06957 4.4687 6.06957 3.88176C6.06957 3.28592 5.87392 2.82792 5.48263 2.50777C5.10022 2.18762 4.52662 2.02754 3.76181 2.02754H0.960479L1.73418 1.1738V6.57637ZM12.7987 9.99133C12.0695 9.99133 11.4203 9.8357 10.8511 9.52444C10.282 9.20429 9.83285 8.76852 9.50381 8.21715C9.17476 7.66578 9.01024 7.03881 9.01024 6.33626C9.01024 5.62481 9.17476 4.99784 9.50381 4.45536C9.83285 3.90399 10.282 3.47267 10.8511 3.16142C11.4203 2.85016 12.0695 2.69453 12.7987 2.69453C13.5368 2.69453 14.1905 2.85016 14.7596 3.16142C15.3377 3.47267 15.7868 3.89954 16.1069 4.44202C16.436 4.9845 16.6005 5.61591 16.6005 6.33626C16.6005 7.03881 16.436 7.66578 16.1069 8.21715C15.7868 8.76852 15.3377 9.20429 14.7596 9.52444C14.1905 9.8357 13.5368 9.99133 12.7987 9.99133ZM12.7987 8.56398C13.2078 8.56398 13.5724 8.47505 13.8926 8.29719C14.2127 8.11933 14.4617 7.86143 14.6396 7.52349C14.8263 7.18555 14.9197 6.78981 14.9197 6.33626C14.9197 5.87382 14.8263 5.47807 14.6396 5.14903C14.4617 4.81109 14.2127 4.55319 13.8926 4.37533C13.5724 4.19746 13.2122 4.10853 12.812 4.10853C12.403 4.10853 12.0383 4.19746 11.7182 4.37533C11.4069 4.55319 11.1579 4.81109 10.9712 5.14903C10.7844 5.47807 10.691 5.87382 10.691 6.33626C10.691 6.78981 10.7844 7.18555 10.9712 7.52349C11.1579 7.86143 11.4069 8.11933 11.7182 8.29719C12.0383 8.47505 12.3985 8.56398 12.7987 8.56398ZM21.2098 9.99133C20.6051 9.99133 20.0715 9.88016 19.609 9.65784C19.1466 9.42661 18.7864 9.07978 18.5285 8.61734C18.2706 8.14601 18.1417 7.55461 18.1417 6.84316V2.77456H19.8091V6.61639C19.8091 7.25669 19.9514 7.73692 20.236 8.05707C20.5295 8.36833 20.943 8.52396 21.4766 8.52396C21.8679 8.52396 22.2058 8.44393 22.4904 8.28385C22.7839 8.12377 23.0106 7.88366 23.1707 7.56351C23.3397 7.24335 23.4242 6.84761 23.4242 6.37628V2.77456H25.0916V9.89795H23.5042V7.97704L23.7843 8.56398C23.5442 9.02642 23.193 9.38215 22.7305 9.63116C22.2681 9.87127 21.7612 9.99133 21.2098 9.99133ZM31.3168 2.69453C31.8859 2.69453 32.3928 2.80569 32.8375 3.02802C33.291 3.25035 33.6468 3.59273 33.9047 4.05517C34.1626 4.50872 34.2915 5.09567 34.2915 5.81601V9.89795H32.6241V6.02944C32.6241 5.39803 32.4729 4.9267 32.1705 4.61544C31.877 4.30418 31.4635 4.14855 30.9299 4.14855C30.5386 4.14855 30.1918 4.22859 29.8894 4.38867C29.5871 4.54874 29.3514 4.78886 29.1824 5.10901C29.0224 5.42027 28.9423 5.81601 28.9423 6.29624V9.89795H27.2749V2.77456H28.8623V4.69548L28.5821 4.10853C28.8311 3.65498 29.1913 3.30815 29.6627 3.06804C30.1429 2.81903 30.6943 2.69453 31.3168 2.69453ZM39.4346 9.99133C38.7498 9.99133 38.1317 9.84014 37.5804 9.53778C37.0379 9.22652 36.611 8.79965 36.2998 8.25717C35.9885 7.71469 35.8329 7.07439 35.8329 6.33626C35.8329 5.59813 35.9885 4.95782 36.2998 4.41534C36.611 3.87286 37.0379 3.45044 37.5804 3.14808C38.1317 2.84571 38.7498 2.69453 39.4346 2.69453C40.0304 2.69453 40.564 2.82792 41.0353 3.09472C41.5067 3.35262 41.8802 3.74836 42.1559 4.28195C42.4316 4.81553 42.5694 5.5003 42.5694 6.33626C42.5694 7.16332 42.436 7.84809 42.1692 8.39057C41.9024 8.92415 41.5334 9.32434 41.062 9.59114C40.5907 9.85793 40.0482 9.99133 39.4346 9.99133ZM39.6347 8.56398C40.0349 8.56398 40.3906 8.47505 40.7019 8.29719C41.022 8.11933 41.2755 7.86143 41.4622 7.52349C41.6579 7.18555 41.7557 6.78981 41.7557 6.33626C41.7557 5.87382 41.6579 5.47807 41.4622 5.14903C41.2755 4.81109 41.022 4.55319 40.7019 4.37533C40.3906 4.19746 40.0349 4.10853 39.6347 4.10853C39.2345 4.10853 38.8743 4.19746 38.5542 4.37533C38.2429 4.55319 37.9895 4.81109 37.7938 5.14903C37.6071 5.47807 37.5137 5.87382 37.5137 6.33626C37.5137 6.78981 37.6071 7.18555 37.7938 7.52349C37.9895 7.86143 38.2429 8.11933 38.5542 8.29719C38.8743 8.47505 39.2345 8.56398 39.6347 8.56398ZM41.7957 9.89795V8.21715L41.8624 6.32292L41.729 4.42868V-8.66346e-05H43.3831V9.89795H41.7957ZM49.4245 9.89795V0.560179H53.8C54.9205 0.560179 55.7742 0.782507 56.3612 1.22716C56.9481 1.66293 57.2416 2.24987 57.2416 2.988C57.2416 3.48601 57.126 3.91288 56.8948 4.26861C56.6635 4.61544 56.3523 4.88668 55.961 5.08233C55.5786 5.26908 55.1606 5.36246 54.7071 5.36246L54.9472 4.88223C55.4719 4.88223 55.9432 4.98006 56.3612 5.17571C56.7791 5.36246 57.1082 5.63815 57.3483 6.00277C57.5973 6.36738 57.7218 6.82093 57.7218 7.36341C57.7218 8.16379 57.415 8.78631 56.8014 9.23097C56.1878 9.67562 55.2762 9.89795 54.0667 9.89795H49.4245ZM51.1587 8.5373H53.96C54.6092 8.5373 55.1072 8.43059 55.4541 8.21715C55.8009 8.00372 55.9743 7.66133 55.9743 7.19C55.9743 6.72755 55.8009 6.38962 55.4541 6.17618C55.1072 5.95385 54.6092 5.84269 53.96 5.84269H51.0253V4.49538H53.6132C54.2179 4.49538 54.6804 4.38867 55.0005 4.17523C55.3296 3.9618 55.4941 3.64164 55.4941 3.21477C55.4941 2.77901 55.3296 2.45441 55.0005 2.24098C54.6804 2.02754 54.2179 1.92083 53.6132 1.92083H51.1587V8.5373ZM62.4273 9.99133C61.8226 9.99133 61.289 9.88016 60.8265 9.65784C60.3641 9.42661 60.0039 9.07978 59.746 8.61734C59.4881 8.14601 59.3592 7.55461 59.3592 6.84316V2.77456H61.0266V6.61639C61.0266 7.25669 61.1689 7.73692 61.4535 8.05707C61.747 8.36833 62.1605 8.52396 62.6941 8.52396C63.0854 8.52396 63.4233 8.44393 63.7079 8.28385C64.0014 8.12377 64.2281 7.88366 64.3882 7.56351C64.5572 7.24335 64.6417 6.84761 64.6417 6.37628V2.77456H66.3091V9.89795H64.7217V7.97704L65.0018 8.56398C64.7617 9.02642 64.4104 9.38215 63.948 9.63116C63.4856 9.87127 62.9787 9.99133 62.4273 9.99133ZM71.7606 9.99133C71.0135 9.99133 70.3466 9.8357 69.7596 9.52444C69.1816 9.20429 68.728 8.76852 68.399 8.21715C68.0699 7.66578 67.9054 7.03881 67.9054 6.33626C67.9054 5.62481 68.0699 4.99784 68.399 4.45536C68.728 3.90399 69.1816 3.47267 69.7596 3.16142C70.3466 2.85016 71.0135 2.69453 71.7606 2.69453C72.4542 2.69453 73.0634 2.83682 73.5881 3.1214C74.1217 3.39708 74.5263 3.80617 74.802 4.34865L73.5214 5.09567C73.308 4.75773 73.0456 4.50872 72.7344 4.34865C72.432 4.18857 72.103 4.10853 71.7472 4.10853C71.3381 4.10853 70.9691 4.19746 70.64 4.37533C70.311 4.55319 70.0531 4.81109 69.8663 5.14903C69.6796 5.47807 69.5862 5.87382 69.5862 6.33626C69.5862 6.7987 69.6796 7.19889 69.8663 7.53683C70.0531 7.86587 70.311 8.11933 70.64 8.29719C70.9691 8.47505 71.3381 8.56398 71.7472 8.56398C72.103 8.56398 72.432 8.48394 72.7344 8.32387C73.0456 8.16379 73.308 7.91478 73.5214 7.57685L74.802 8.32387C74.5263 8.85745 74.1217 9.27098 73.5881 9.56446C73.0634 9.84904 72.4542 9.99133 71.7606 9.99133ZM77.5389 8.31053L77.579 6.2162L81.3007 2.77456H83.3017L80.1402 5.94941L79.2598 6.68309L77.5389 8.31053ZM76.1783 9.89795V-8.66346e-05H77.8458V9.89795H76.1783ZM81.5542 9.89795L78.9529 6.68309L80.0068 5.34912L83.5818 9.89795H81.5542ZM87.7075 9.99133C86.916 9.99133 86.2224 9.8357 85.6265 9.52444C85.0396 9.20429 84.5816 8.76852 84.2525 8.21715C83.9324 7.66578 83.7723 7.03881 83.7723 6.33626C83.7723 5.62481 83.9279 4.99784 84.2392 4.45536C84.5594 3.90399 84.9951 3.47267 85.5465 3.16142C86.1068 2.85016 86.7426 2.69453 87.4541 2.69453C88.1477 2.69453 88.7658 2.84571 89.3083 3.14808C89.8508 3.45044 90.2776 3.87731 90.5889 4.42868C90.9001 4.98006 91.0558 5.62925 91.0558 6.37628C91.0558 6.44742 91.0513 6.52746 91.0424 6.61639C91.0424 6.70532 91.038 6.78981 91.0291 6.86984H85.0929V5.76265H90.1487L89.495 6.10948C89.5039 5.7004 89.4194 5.34023 89.2416 5.02897C89.0637 4.71771 88.8192 4.47315 88.5079 4.29529C88.2055 4.11743 87.8543 4.02849 87.4541 4.02849C87.045 4.02849 86.6848 4.11743 86.3736 4.29529C86.0712 4.47315 85.8311 4.72216 85.6532 5.04231C85.4842 5.35357 85.3998 5.72263 85.3998 6.1495V6.4163C85.3998 6.84316 85.4976 7.22112 85.6932 7.55017C85.8889 7.87921 86.1646 8.13267 86.5203 8.31053C86.876 8.48839 87.2851 8.57732 87.7475 8.57732C88.1477 8.57732 88.5079 8.51507 88.8281 8.39057C89.1482 8.26606 89.4328 8.07041 89.6818 7.80362L90.5756 8.83078C90.2554 9.20429 89.8508 9.49331 89.3616 9.69785C88.8814 9.8935 88.33 9.99133 87.7075 9.99133ZM95.3387 9.99133C94.5562 9.99133 93.9514 9.79123 93.5246 9.39104C93.0977 8.98196 92.8842 8.38167 92.8842 7.59019V1.20048H94.5517V7.55017C94.5517 7.88811 94.6362 8.15045 94.8052 8.33721C94.983 8.52396 95.2276 8.61734 95.5388 8.61734C95.9124 8.61734 96.2236 8.51952 96.4726 8.32387L96.9395 9.5111C96.7439 9.67117 96.5037 9.79123 96.2192 9.87127C95.9346 9.95131 95.6411 9.99133 95.3387 9.99133ZM91.7104 4.16189V2.82792H96.4593V4.16189H91.7104Z" fill="black"/>
</svg>
