<svg width="130" height="36" viewBox="0 0 130 36" fill="none" xmlns="http://www.w3.org/2000/svg">
<circle cx="17.6922" cy="18.0008" r="17.6922" fill="#024731"/>
<path d="M6.84419 9.71626C6.75329 9.80717 6.75329 9.95455 6.84419 10.0455L8.32557 11.5268C8.41648 11.6177 8.56387 11.6177 8.65477 11.5268C8.74568 11.4359 8.74568 11.2886 8.65477 11.1976L7.33799 9.88086L8.65477 8.56407C8.74568 8.47317 8.74568 8.32578 8.65477 8.23488C8.56387 8.14397 8.41648 8.14397 8.32557 8.23488L6.84419 9.71626ZM28.1233 10.0455C28.2142 9.95455 28.2142 9.80717 28.1233 9.71626L26.6419 8.23488C26.551 8.14397 26.4037 8.14397 26.3127 8.23488C26.2218 8.32578 26.2218 8.47317 26.3127 8.56407L27.6295 9.88086L26.3127 11.1976C26.2218 11.2886 26.2218 11.4359 26.3127 11.5268C26.4037 11.6177 26.551 11.6177 26.6419 11.5268L28.1233 10.0455ZM7.00879 9.88086V10.1136H27.9587V9.88086V9.64808H7.00879V9.88086Z" fill="white"/>
<path d="M17.4951 16.5576C18.9285 16.5576 20.2188 16.7203 21.1445 16.9795C21.6088 17.1095 21.9704 17.2607 22.2109 17.4199C22.4592 17.5843 22.5332 17.7251 22.5332 17.8242C22.5331 17.9233 22.4591 18.0642 22.2109 18.2285C21.9704 18.3877 21.6088 18.5389 21.1445 18.6689C20.2188 18.9281 18.9284 19.0908 17.4951 19.0908C16.0616 19.0908 14.7706 18.9282 13.8447 18.6689C13.3808 18.539 13.0198 18.3876 12.7793 18.2285C12.5311 18.0642 12.4571 17.9233 12.457 17.8242C12.457 17.7251 12.531 17.5843 12.7793 17.4199C13.0198 17.2608 13.3807 17.1094 13.8447 16.9795C14.7706 16.7203 16.0616 16.5576 17.4951 16.5576Z" stroke="white" stroke-width="0.4"/>
<path d="M17.4951 15.7178C19.2718 15.7178 20.8718 15.9733 22.0205 16.3809C22.5958 16.585 23.0479 16.8234 23.3516 17.0781C23.6562 17.3337 23.79 17.5863 23.79 17.8223C23.79 18.0582 23.6562 18.3108 23.3516 18.5664C23.0479 18.8212 22.5958 19.0595 22.0205 19.2637C20.8718 19.6712 19.2718 19.9268 17.4951 19.9268C15.7184 19.9268 14.1185 19.6712 12.9697 19.2637C12.3945 19.0595 11.9424 18.8212 11.6387 18.5664C11.334 18.3108 11.2002 18.0582 11.2002 17.8223C11.2002 17.5863 11.334 17.3337 11.6387 17.0781C11.9424 16.8234 12.3945 16.585 12.9697 16.3809C14.1185 15.9733 15.7184 15.7178 17.4951 15.7178Z" stroke="white" stroke-width="0.4"/>
<path d="M23.7816 18.2402C23.7816 19.7445 21.0826 20.7545 17.4955 20.7545C13.9083 20.7545 11.0002 19.7069 11.2099 18.2402" stroke="white" stroke-width="0.4"/>
<path d="M12.3222 26.9559C11.8422 23.7692 11.6289 19.2891 11.6289 19.2891C14.8922 21.3468 20.8582 20.9316 23.362 19.2891C23.362 19.2891 23.362 23.7692 22.882 26.9559C22.402 30.1427 12.8022 30.1427 12.3222 26.9559Z" stroke="white" stroke-width="0.4"/>
<path d="M45.3718 14.1895V7.85009H42.8718V6.37686H49.6799V7.85009H47.1799V14.1895H45.3718ZM52.7768 14.2787C52.1369 14.2787 51.5677 14.1448 51.0692 13.8769C50.5781 13.6091 50.1875 13.2445 49.8973 12.7832C49.6145 12.3144 49.4732 11.7824 49.4732 11.1872C49.4732 10.5845 49.6145 10.0525 49.8973 9.59119C50.1875 9.12243 50.5781 8.75784 51.0692 8.49742C51.5677 8.22956 52.1369 8.09563 52.7768 8.09563C53.4092 8.09563 53.9747 8.22956 54.4732 8.49742C54.9717 8.75784 55.3624 9.11871 55.6451 9.58002C55.9279 10.0413 56.0692 10.5771 56.0692 11.1872C56.0692 11.7824 55.9279 12.3144 55.6451 12.7832C55.3624 13.2445 54.9717 13.6091 54.4732 13.8769C53.9747 14.1448 53.4092 14.2787 52.7768 14.2787ZM52.7768 12.8502C53.067 12.8502 53.3274 12.7832 53.558 12.6493C53.7887 12.5153 53.971 12.3256 54.1049 12.0801C54.2389 11.8271 54.3058 11.5295 54.3058 11.1872C54.3058 10.8375 54.2389 10.5399 54.1049 10.2943C53.971 10.0488 53.7887 9.85905 53.558 9.72512C53.3274 9.59119 53.067 9.52422 52.7768 9.52422C52.4866 9.52422 52.2262 9.59119 51.9955 9.72512C51.7649 9.85905 51.5788 10.0488 51.4375 10.2943C51.3035 10.5399 51.2366 10.8375 51.2366 11.1872C51.2366 11.5295 51.3035 11.8271 51.4375 12.0801C51.5788 12.3256 51.7649 12.5153 51.9955 12.6493C52.2262 12.7832 52.4866 12.8502 52.7768 12.8502ZM60.7822 14.2787C60.2762 14.2787 59.8335 14.1671 59.454 13.9439C59.0745 13.7207 58.7769 13.3822 58.5611 12.9283C58.3528 12.467 58.2486 11.8866 58.2486 11.1872C58.2486 10.4803 58.3491 9.89997 58.55 9.44609C58.7509 8.99222 59.0411 8.65367 59.4205 8.43046C59.8 8.20724 60.2539 8.09563 60.7822 8.09563C61.3476 8.09563 61.8536 8.22584 62.3 8.48626C62.7539 8.73924 63.1111 9.09639 63.3715 9.5577C63.6393 10.019 63.7733 10.5622 63.7733 11.1872C63.7733 11.8196 63.6393 12.3665 63.3715 12.8278C63.1111 13.2891 62.7539 13.6463 62.3 13.8993C61.8536 14.1523 61.3476 14.2787 60.7822 14.2787ZM57.233 16.3547V8.18492H58.896V9.41261L58.8625 11.1983L58.9741 12.9729V16.3547H57.233ZM60.4808 12.8502C60.771 12.8502 61.0277 12.7832 61.2509 12.6493C61.4816 12.5153 61.6639 12.3256 61.7978 12.0801C61.9392 11.8271 62.0098 11.5295 62.0098 11.1872C62.0098 10.8375 61.9392 10.5399 61.7978 10.2943C61.6639 10.0488 61.4816 9.85905 61.2509 9.72512C61.0277 9.59119 60.771 9.52422 60.4808 9.52422C60.1906 9.52422 59.9302 9.59119 59.6996 9.72512C59.4689 9.85905 59.2866 10.0488 59.1527 10.2943C59.0187 10.5399 58.9518 10.8375 58.9518 11.1872C58.9518 11.5295 59.0187 11.8271 59.1527 12.0801C59.2866 12.3256 59.4689 12.5153 59.6996 12.6493C59.9302 12.7832 60.1906 12.8502 60.4808 12.8502Z" fill="black"/>
<path d="M44.7529 29.8105V22.3951L45.1071 22.7714H42.9268V22.0631H45.5498V29.8105H44.7529ZM49.7149 29.877C49.1542 29.877 48.6229 29.7884 48.1212 29.6113C47.6268 29.4269 47.2284 29.1834 46.9259 28.8809L47.3132 28.25C47.5641 28.5082 47.8998 28.7222 48.3204 28.8919C48.7483 29.0616 49.2132 29.1465 49.7149 29.1465C50.3569 29.1465 50.8475 29.0063 51.1869 28.7259C51.5337 28.4455 51.7071 28.0692 51.7071 27.597C51.7071 27.1248 51.5374 26.7485 51.198 26.4681C50.866 26.1877 50.3384 26.0475 49.6153 26.0475H49.0619V25.4609L51.4526 22.4615L51.5632 22.7714H47.2468V22.0631H52.2273V22.6276L49.8367 25.6269L49.4493 25.3724H49.7481C50.6778 25.3724 51.3714 25.579 51.8289 25.9922C52.2937 26.4054 52.5261 26.9366 52.5261 27.5859C52.5261 28.0213 52.4228 28.4123 52.2162 28.7591C52.0096 29.1059 51.6961 29.3789 51.2755 29.5781C50.8623 29.7773 50.3421 29.877 49.7149 29.877ZM53.5162 27.7741V27.1986L57.6223 22.0631H58.5078L54.4348 27.1986L54.0032 27.0657H60.2343V27.7741H53.5162ZM57.888 29.8105V27.7741L57.9101 27.0657V25.2728H58.6848V29.8105H57.888ZM61.7801 29.8659C61.6178 29.8659 61.4776 29.8069 61.3595 29.6888C61.2488 29.5707 61.1935 29.4269 61.1935 29.2572C61.1935 29.0801 61.2488 28.9362 61.3595 28.8255C61.4776 28.7148 61.6178 28.6595 61.7801 28.6595C61.9424 28.6595 62.0789 28.7148 62.1896 28.8255C62.3077 28.9362 62.3667 29.0801 62.3667 29.2572C62.3667 29.4269 62.3077 29.5707 62.1896 29.6888C62.0789 29.8069 61.9424 29.8659 61.7801 29.8659ZM65.9738 29.877C65.4204 29.877 64.8929 29.7884 64.3911 29.6113C63.8894 29.4269 63.491 29.1834 63.1958 28.8809L63.5832 28.25C63.8267 28.5082 64.1587 28.7222 64.5793 28.8919C65.0072 29.0616 65.4684 29.1465 65.9628 29.1465C66.6194 29.1465 67.1175 29.0026 67.4569 28.7148C67.8037 28.4197 67.9771 28.036 67.9771 27.5638C67.9771 27.2318 67.8959 26.9477 67.7336 26.7116C67.5787 26.4681 67.313 26.2799 66.9367 26.1471C66.5604 26.0143 66.0439 25.9479 65.3872 25.9479H63.7381L64.1366 22.0631H68.3755V22.7714H64.4575L64.867 22.3841L64.5239 25.638L64.1144 25.2396H65.5643C66.3464 25.2396 66.9736 25.3355 67.4458 25.5273C67.9181 25.7192 68.2575 25.9885 68.4641 26.3353C68.678 26.6747 68.785 27.0731 68.785 27.5306C68.785 27.9659 68.6817 28.3644 68.4751 28.7259C68.2685 29.0801 67.9586 29.3605 67.5454 29.5671C67.1323 29.7737 66.6084 29.877 65.9738 29.877ZM80.474 23.9446C80.9462 23.9446 81.3557 24.0369 81.7025 24.2213C82.0567 24.3984 82.3297 24.6714 82.5215 25.0403C82.7207 25.4093 82.8203 25.8741 82.8203 26.4349V29.8105H82.0345V26.5124C82.0345 25.8999 81.887 25.4388 81.5918 25.1289C81.3041 24.8116 80.8946 24.653 80.3633 24.653C79.9649 24.653 79.6181 24.7378 79.3229 24.9075C79.0352 25.0699 78.8101 25.3097 78.6478 25.6269C78.4929 25.9368 78.4154 26.3131 78.4154 26.7558V29.8105H77.6296V26.5124C77.6296 25.8999 77.482 25.4388 77.1869 25.1289C76.8917 24.8116 76.4785 24.653 75.9473 24.653C75.5562 24.653 75.2131 24.7378 74.918 24.9075C74.6228 25.0699 74.3941 25.3097 74.2318 25.6269C74.0768 25.9368 73.9993 26.3131 73.9993 26.7558V29.8105H73.2135V24H73.9661V25.5716L73.8444 25.2949C74.0215 24.8743 74.3055 24.546 74.6966 24.3099C75.095 24.0664 75.5636 23.9446 76.1022 23.9446C76.6704 23.9446 77.1537 24.0885 77.5521 24.3763C77.9505 24.6567 78.2088 25.0809 78.3268 25.6491L78.0169 25.5273C78.1866 25.0551 78.4855 24.6751 78.9134 24.3873C79.3488 24.0922 79.8689 23.9446 80.474 23.9446ZM92.2119 23.9446C92.6841 23.9446 93.0936 24.0369 93.4404 24.2213C93.7946 24.3984 94.0676 24.6714 94.2594 25.0403C94.4586 25.4093 94.5582 25.8741 94.5582 26.4349V29.8105H93.7724V26.5124C93.7724 25.8999 93.6249 25.4388 93.3297 25.1289C93.0419 24.8116 92.6324 24.653 92.1012 24.653C91.7027 24.653 91.356 24.7378 91.0608 24.9075C90.7731 25.0699 90.548 25.3097 90.3857 25.6269C90.2307 25.9368 90.1533 26.3131 90.1533 26.7558V29.8105H89.3674V26.5124C89.3674 25.8999 89.2199 25.4388 88.9247 25.1289C88.6296 24.8116 88.2164 24.653 87.6851 24.653C87.2941 24.653 86.951 24.7378 86.6558 24.9075C86.3607 25.0699 86.132 25.3097 85.9696 25.6269C85.8147 25.9368 85.7372 26.3131 85.7372 26.7558V29.8105H84.9514V24H85.704V25.5716L85.5823 25.2949C85.7594 24.8743 86.0434 24.546 86.4345 24.3099C86.8329 24.0664 87.3015 23.9446 87.8401 23.9446C88.4082 23.9446 88.8915 24.0885 89.29 24.3763C89.6884 24.6567 89.9467 25.0809 90.0647 25.6491L89.7548 25.5273C89.9245 25.0551 90.2234 24.6751 90.6513 24.3873C91.0866 24.0922 91.6068 23.9446 92.2119 23.9446Z" fill="black"/>
</svg>
