<svg width="94" height="8" viewBox="0 0 94 8" fill="none" xmlns="http://www.w3.org/2000/svg">
<path d="M1.31825 5.81641L6.65784e-05 1.45277H0.534158L1.56825 5.0522H1.60518L2.63643 1.45277H3.17336L4.19609 5.04368H4.23586L5.26995 1.45277H5.80404L4.48586 5.81641H3.96313L2.92904 2.2397H2.87507L1.84098 5.81641H1.31825ZM7.75575 5.81641L6.43757 1.45277H6.97166L8.00575 5.0522H8.04268L9.07393 1.45277H9.61086L10.6336 5.04368H10.6734L11.7075 1.45277H12.2415L10.9234 5.81641H10.4006L9.36654 2.2397H9.31257L8.27848 5.81641H7.75575ZM14.1932 5.81641L12.8751 1.45277H13.4092L14.4432 5.0522H14.4802L15.5114 1.45277H16.0484L17.0711 5.04368H17.1109L18.145 1.45277H18.679L17.3609 5.81641H16.8381L15.804 2.2397H15.7501L14.716 5.81641H14.1932ZM19.4717 5.85902C19.3599 5.85902 19.2633 5.81925 19.1819 5.7397C19.1023 5.65826 19.0626 5.56167 19.0626 5.44993C19.0626 5.33629 19.1023 5.2397 19.1819 5.16016C19.2633 5.08061 19.3599 5.04084 19.4717 5.04084C19.5853 5.04084 19.6819 5.08061 19.7614 5.16016C19.841 5.2397 19.8807 5.33629 19.8807 5.44993C19.8807 5.52379 19.8618 5.59197 19.8239 5.65447C19.7879 5.71697 19.7387 5.76716 19.6762 5.80504C19.6156 5.84103 19.5474 5.85902 19.4717 5.85902ZM21.2167 5.81641V1.45277H21.7082V2.12322H21.7451C21.8322 1.90353 21.9837 1.72644 22.1996 1.59197C22.4174 1.45561 22.6637 1.38743 22.9383 1.38743C22.9799 1.38743 23.0263 1.38838 23.0775 1.39027C23.1286 1.39216 23.1712 1.39406 23.2053 1.39595V1.91016C23.1826 1.90637 23.1428 1.90069 23.086 1.89311C23.0292 1.88553 22.9676 1.88175 22.9013 1.88175C22.6741 1.88175 22.4714 1.93004 22.2934 2.02663C22.1173 2.12133 21.978 2.25296 21.8758 2.42152C21.7735 2.59008 21.7224 2.78232 21.7224 2.99822V5.81641H21.2167ZM24.5285 4.16868L24.5228 3.50675H24.6364L26.6819 1.45277H27.3211L25.3012 3.4755L25.2557 3.48402L24.5285 4.16868ZM24.0682 5.81641V-0.00177574H24.5739V5.81641H24.0682ZM26.787 5.81641L25.0143 3.57493L25.3779 3.2255L27.4347 5.81641H26.787ZM28.2714 7.45277V1.45277H28.7629V2.28516H28.8225C28.8831 2.15447 28.9664 2.02095 29.0725 1.88459C29.1786 1.74633 29.3187 1.62985 29.493 1.53516C29.6691 1.44046 29.8907 1.39311 30.1577 1.39311C30.5176 1.39311 30.832 1.48781 31.1009 1.6772C31.3718 1.8647 31.582 2.12796 31.7316 2.46697C31.8831 2.8041 31.9589 3.19709 31.9589 3.64595C31.9589 4.09671 31.8831 4.4916 31.7316 4.83061C31.582 5.16963 31.3718 5.43383 31.1009 5.62322C30.832 5.81262 30.5195 5.90732 30.1634 5.90732C29.9002 5.90732 29.6795 5.85997 29.5015 5.76527C29.3254 5.67057 29.1824 5.5541 29.0725 5.41584C28.9646 5.27569 28.8812 5.13932 28.8225 5.00675H28.7771V7.45277H28.2714ZM28.7714 3.63743C28.7714 3.9897 28.8235 4.3022 28.9276 4.57493C29.0337 4.84576 29.1852 5.05883 29.3822 5.21413C29.581 5.36754 29.8216 5.44425 30.1038 5.44425C30.3935 5.44425 30.6379 5.3647 30.8367 5.20561C31.0375 5.04463 31.1899 4.82777 31.2941 4.55504C31.4002 4.28232 31.4532 3.97644 31.4532 3.63743C31.4532 3.3022 31.4011 3.00012 31.2969 2.73118C31.1947 2.46224 31.0432 2.24917 30.8424 2.09197C30.6416 1.93288 30.3954 1.85334 30.1038 1.85334C29.8197 1.85334 29.5782 1.93004 29.3793 2.08345C29.1805 2.23497 29.0289 2.44519 28.9248 2.71413C28.8225 2.98118 28.7714 3.28894 28.7714 3.63743ZM34.7643 5.90732C34.3874 5.90732 34.054 5.81167 33.7643 5.62038C33.4764 5.4291 33.251 5.16489 33.0881 4.82777C32.9253 4.48875 32.8438 4.09766 32.8438 3.65447C32.8438 3.2075 32.9253 2.81451 33.0881 2.4755C33.251 2.13459 33.4764 1.86944 33.7643 1.68004C34.054 1.48875 34.3874 1.39311 34.7643 1.39311C35.1412 1.39311 35.4736 1.48875 35.7614 1.68004C36.0493 1.87133 36.2747 2.13648 36.4376 2.4755C36.6023 2.81451 36.6847 3.2075 36.6847 3.65447C36.6847 4.09766 36.6033 4.48875 36.4404 4.82777C36.2775 5.16489 36.0512 5.4291 35.7614 5.62038C35.4736 5.81167 35.1412 5.90732 34.7643 5.90732ZM34.7643 5.44425C35.0673 5.44425 35.3239 5.36281 35.5342 5.19993C35.7444 5.03705 35.9035 4.82019 36.0114 4.54936C36.1213 4.27853 36.1762 3.98023 36.1762 3.65447C36.1762 3.32872 36.1213 3.02947 36.0114 2.75675C35.9035 2.48402 35.7444 2.26527 35.5342 2.1005C35.3239 1.93572 35.0673 1.85334 34.7643 1.85334C34.4631 1.85334 34.2065 1.93572 33.9944 2.1005C33.7842 2.26527 33.6241 2.48402 33.5143 2.75675C33.4063 3.02947 33.3523 3.32872 33.3523 3.65447C33.3523 3.98023 33.4063 4.27853 33.5143 4.54936C33.6241 4.82019 33.7842 5.03705 33.9944 5.19993C34.2046 5.36281 34.4612 5.44425 34.7643 5.44425ZM38.3005 -0.00177574V5.81641H37.7948V-0.00177574H38.3005ZM39.9908 7.45277C39.8905 7.45277 39.7967 7.4433 39.7096 7.42436C39.6225 7.40542 39.5533 7.38459 39.5022 7.36186L39.6386 6.91584C39.8109 6.96887 39.9643 6.98781 40.0988 6.97266C40.2333 6.9594 40.3526 6.89879 40.4567 6.79084C40.5609 6.68478 40.6537 6.5219 40.7352 6.3022L40.8942 5.85902L39.2891 1.45277H39.8374L41.1329 5.14879H41.1727L42.4681 1.45277H43.0164L41.1698 6.50675C41.0922 6.71697 40.9965 6.89216 40.8829 7.03232C40.7692 7.17436 40.6376 7.27947 40.488 7.34766C40.3403 7.41773 40.1745 7.45277 39.9908 7.45277ZM44.0057 7.45277V1.45277H44.4972V2.28516H44.5569C44.6175 2.15447 44.7008 2.02095 44.8069 1.88459C44.9129 1.74633 45.0531 1.62985 45.2273 1.53516C45.4035 1.44046 45.6251 1.39311 45.8921 1.39311C46.252 1.39311 46.5664 1.48781 46.8353 1.6772C47.1061 1.8647 47.3164 2.12796 47.466 2.46697C47.6175 2.8041 47.6932 3.19709 47.6932 3.64595C47.6932 4.09671 47.6175 4.4916 47.466 4.83061C47.3164 5.16963 47.1061 5.43383 46.8353 5.62322C46.5664 5.81262 46.2539 5.90732 45.8978 5.90732C45.6345 5.90732 45.4139 5.85997 45.2359 5.76527C45.0597 5.67057 44.9167 5.5541 44.8069 5.41584C44.6989 5.27569 44.6156 5.13932 44.5569 5.00675H44.5114V7.45277H44.0057ZM44.5057 3.63743C44.5057 3.9897 44.5578 4.3022 44.662 4.57493C44.7681 4.84576 44.9196 5.05883 45.1165 5.21413C45.3154 5.36754 45.5559 5.44425 45.8381 5.44425C46.1279 5.44425 46.3722 5.3647 46.5711 5.20561C46.7718 5.04463 46.9243 4.82777 47.0285 4.55504C47.1345 4.28232 47.1876 3.97644 47.1876 3.63743C47.1876 3.3022 47.1355 3.00012 47.0313 2.73118C46.929 2.46224 46.7775 2.24917 46.5768 2.09197C46.376 1.93288 46.1298 1.85334 45.8381 1.85334C45.554 1.85334 45.3126 1.93004 45.1137 2.08345C44.9148 2.23497 44.7633 2.44519 44.6592 2.71413C44.5569 2.98118 44.5057 3.28894 44.5057 3.63743ZM48.8026 5.81641V1.45277H49.2941V2.12322H49.331C49.4182 1.90353 49.5697 1.72644 49.7856 1.59197C50.0034 1.45561 50.2496 1.38743 50.5242 1.38743C50.5659 1.38743 50.6123 1.38838 50.6634 1.39027C50.7146 1.39216 50.7572 1.39406 50.7913 1.39595V1.91016C50.7685 1.90637 50.7288 1.90069 50.6719 1.89311C50.6151 1.88553 50.5536 1.88175 50.4873 1.88175C50.26 1.88175 50.0574 1.93004 49.8793 2.02663C49.7032 2.12133 49.564 2.25296 49.4617 2.42152C49.3594 2.59008 49.3083 2.78232 49.3083 2.99822V5.81641H48.8026ZM53.2174 5.90732C52.8405 5.90732 52.5072 5.81167 52.2174 5.62038C51.9295 5.4291 51.7041 5.16489 51.5413 4.82777C51.3784 4.48875 51.2969 4.09766 51.2969 3.65447C51.2969 3.2075 51.3784 2.81451 51.5413 2.4755C51.7041 2.13459 51.9295 1.86944 52.2174 1.68004C52.5072 1.48875 52.8405 1.39311 53.2174 1.39311C53.5943 1.39311 53.9267 1.48875 54.2146 1.68004C54.5024 1.87133 54.7278 2.13648 54.8907 2.4755C55.0555 2.81451 55.1379 3.2075 55.1379 3.65447C55.1379 4.09766 55.0564 4.48875 54.8935 4.82777C54.7307 5.16489 54.5043 5.4291 54.2146 5.62038C53.9267 5.81167 53.5943 5.90732 53.2174 5.90732ZM53.2174 5.44425C53.5204 5.44425 53.7771 5.36281 53.9873 5.19993C54.1975 5.03705 54.3566 4.82019 54.4646 4.54936C54.5744 4.27853 54.6293 3.98023 54.6293 3.65447C54.6293 3.32872 54.5744 3.02947 54.4646 2.75675C54.3566 2.48402 54.1975 2.26527 53.9873 2.1005C53.7771 1.93572 53.5204 1.85334 53.2174 1.85334C52.9163 1.85334 52.6596 1.93572 52.4475 2.1005C52.2373 2.26527 52.0772 2.48402 51.9674 2.75675C51.8594 3.02947 51.8055 3.32872 51.8055 3.65447C51.8055 3.98023 51.8594 4.27853 51.9674 4.54936C52.0772 4.82019 52.2373 5.03705 52.4475 5.19993C52.6577 5.36281 52.9144 5.44425 53.2174 5.44425ZM57.819 5.90732C57.461 5.90732 57.1476 5.81262 56.8786 5.62322C56.6097 5.43383 56.3995 5.16963 56.2479 4.83061C56.0983 4.4916 56.0235 4.09671 56.0235 3.64595C56.0235 3.19709 56.0983 2.8041 56.2479 2.46697C56.3995 2.12796 56.6106 1.8647 56.8815 1.6772C57.1523 1.48781 57.4676 1.39311 57.8275 1.39311C58.0926 1.39311 58.3133 1.44046 58.4894 1.53516C58.6655 1.62796 58.8066 1.74349 58.9127 1.88175C59.0188 2.02 59.1012 2.15447 59.1599 2.28516H59.2053V-0.00177574H59.7138V5.81641H59.2195V5.00675H59.1599C59.1012 5.13932 59.0178 5.27569 58.9099 5.41584C58.8019 5.5541 58.6589 5.67057 58.4809 5.76527C58.3048 5.85997 58.0841 5.90732 57.819 5.90732ZM57.8786 5.44425C58.1608 5.44425 58.4013 5.36754 58.6002 5.21413C58.7991 5.05883 58.9506 4.84576 59.0548 4.57493C59.1608 4.3022 59.2138 3.9897 59.2138 3.63743C59.2138 3.28894 59.1618 2.98118 59.0576 2.71413C58.9534 2.44519 58.8019 2.23497 58.603 2.08345C58.4042 1.93004 58.1627 1.85334 57.8786 1.85334C57.587 1.85334 57.3407 1.93288 57.14 2.09197C56.9411 2.24917 56.7896 2.46224 56.6854 2.73118C56.5832 3.00012 56.532 3.3022 56.532 3.63743C56.532 3.97644 56.5841 4.28232 56.6883 4.55504C56.7924 4.82777 56.944 5.04463 57.1428 5.20561C57.3436 5.3647 57.5888 5.44425 57.8786 5.44425ZM63.9269 4.14879V1.45277H64.4326V5.81641H63.9269V5.09197H63.8871C63.7849 5.31546 63.6229 5.50201 63.4013 5.65163C63.1798 5.79936 62.9089 5.87322 62.5888 5.87322C62.3104 5.87322 62.0633 5.81262 61.8474 5.69141C61.6315 5.5683 61.462 5.38838 61.3388 5.15163C61.2157 4.91489 61.1542 4.62417 61.1542 4.27947V1.45277H61.6599V4.24822C61.6599 4.58913 61.7602 4.86375 61.961 5.07209C62.1618 5.27853 62.4193 5.38175 62.7337 5.38175C62.9307 5.38175 63.1201 5.3344 63.3019 5.2397C63.4837 5.145 63.6334 5.00675 63.7508 4.82493C63.8682 4.64122 63.9269 4.41584 63.9269 4.14879ZM67.4759 5.90732C67.0858 5.90732 66.7458 5.80978 66.456 5.6147C66.1682 5.41963 65.9447 5.15258 65.7856 4.81357C65.6265 4.47455 65.5469 4.08819 65.5469 3.65447C65.5469 3.21697 65.6274 2.82777 65.7884 2.48686C65.9513 2.14595 66.1767 1.87891 66.4646 1.68572C66.7524 1.49065 67.0867 1.39311 67.4674 1.39311C67.7591 1.39311 68.0233 1.44993 68.26 1.56357C68.4968 1.67531 68.6918 1.83345 68.8452 2.038C69.0005 2.24065 69.0981 2.47739 69.1379 2.74822H68.6265C68.5735 2.50201 68.4456 2.29179 68.243 2.11754C68.0422 1.94141 67.7865 1.85334 67.4759 1.85334C67.1975 1.85334 66.9513 1.9291 66.7373 2.08061C66.5233 2.23023 66.3557 2.43951 66.2344 2.70845C66.1151 2.9755 66.0555 3.28516 66.0555 3.63743C66.0555 3.9916 66.1142 4.30504 66.2316 4.57777C66.349 4.8486 66.5138 5.06072 66.7259 5.21413C66.9399 5.36754 67.1899 5.44425 67.4759 5.44425C67.6691 5.44425 67.8452 5.40826 68.0043 5.33629C68.1653 5.26243 68.2998 5.15826 68.4077 5.02379C68.5176 4.88932 68.5914 4.72929 68.6293 4.54368H69.1407C69.1028 4.80694 69.0091 5.04179 68.8594 5.24822C68.7117 5.45277 68.5195 5.61375 68.2827 5.73118C68.0479 5.8486 67.7789 5.90732 67.4759 5.90732ZM71.9432 1.45277V1.89311H69.8609V1.45277H71.9432ZM70.5114 0.407315H71.02V4.6772C71.02 4.85902 71.0512 5.00201 71.1137 5.10618C71.1762 5.20845 71.2576 5.28137 71.358 5.32493C71.4584 5.3666 71.5654 5.38743 71.679 5.38743C71.7453 5.38743 71.8022 5.38364 71.8495 5.37607C71.8968 5.3666 71.9385 5.35713 71.9745 5.34766L72.0825 5.80504C72.0332 5.82398 71.9726 5.84103 71.9006 5.85618C71.8287 5.87322 71.7396 5.88175 71.6336 5.88175C71.448 5.88175 71.269 5.84103 71.0967 5.75959C70.9262 5.67815 70.7861 5.55694 70.6762 5.39595C70.5664 5.23497 70.5114 5.03516 70.5114 4.79652V0.407315ZM75.9454 2.41016L75.4823 2.54084C75.4369 2.41016 75.3725 2.29178 75.2891 2.18572C75.2058 2.07966 75.0969 1.99538 74.9624 1.93288C74.8298 1.87038 74.6651 1.83913 74.4681 1.83913C74.1727 1.83913 73.9302 1.90921 73.7408 2.04936C73.5514 2.18951 73.4567 2.37038 73.4567 2.59197C73.4567 2.77947 73.5211 2.93194 73.6499 3.04936C73.7806 3.16489 73.9814 3.25675 74.2522 3.32493L74.9113 3.48686C75.2768 3.57588 75.5505 3.71697 75.7323 3.91016C75.916 4.10334 76.0079 4.34576 76.0079 4.63743C76.0079 4.88364 75.9397 5.10239 75.8033 5.29368C75.667 5.48497 75.4766 5.63554 75.2323 5.74538C74.9899 5.85334 74.7086 5.90732 74.3886 5.90732C73.9624 5.90732 73.6111 5.81167 73.3346 5.62038C73.0581 5.4272 72.881 5.14879 72.8033 4.78516L73.2891 4.66584C73.3516 4.92531 73.4738 5.12133 73.6556 5.25391C73.8393 5.38648 74.0808 5.45277 74.38 5.45277C74.7153 5.45277 74.9833 5.37796 75.184 5.22834C75.3848 5.07682 75.4852 4.88743 75.4852 4.66016C75.4852 4.48402 75.4264 4.33629 75.309 4.21697C75.1916 4.09576 75.0136 4.00675 74.7749 3.94993L74.0619 3.77947C73.6831 3.68857 73.4028 3.54463 73.2209 3.34766C73.0391 3.15069 72.9482 2.90637 72.9482 2.6147C72.9482 2.37417 73.0136 2.163 73.1442 1.98118C73.2749 1.79747 73.4548 1.65353 73.684 1.54936C73.9132 1.44519 74.1745 1.39311 74.4681 1.39311C74.8677 1.39311 75.1869 1.48402 75.4255 1.66584C75.666 1.84576 75.8393 2.09387 75.9454 2.41016ZM77.5185 5.85902C77.4068 5.85902 77.3102 5.81925 77.2288 5.7397C77.1492 5.65826 77.1094 5.56167 77.1094 5.44993C77.1094 5.33629 77.1492 5.2397 77.2288 5.16016C77.3102 5.08061 77.4068 5.04084 77.5185 5.04084C77.6322 5.04084 77.7288 5.08061 77.8083 5.16016C77.8879 5.2397 77.9276 5.33629 77.9276 5.44993C77.9276 5.52379 77.9087 5.59197 77.8708 5.65447C77.8348 5.71697 77.7856 5.76716 77.7231 5.80504C77.6625 5.84103 77.5943 5.85902 77.5185 5.85902ZM80.9681 5.90732C80.578 5.90732 80.238 5.80978 79.9482 5.6147C79.6603 5.41963 79.4369 5.15258 79.2778 4.81357C79.1187 4.47455 79.0391 4.08819 79.0391 3.65447C79.0391 3.21697 79.1196 2.82777 79.2806 2.48686C79.4435 2.14595 79.6689 1.87891 79.9567 1.68572C80.2446 1.49065 80.5789 1.39311 80.9596 1.39311C81.2513 1.39311 81.5155 1.44993 81.7522 1.56357C81.9889 1.67531 82.184 1.83345 82.3374 2.038C82.4927 2.24065 82.5903 2.47739 82.63 2.74822H82.1187C82.0656 2.50201 81.9378 2.29179 81.7352 2.11754C81.5344 1.94141 81.2787 1.85334 80.9681 1.85334C80.6897 1.85334 80.4435 1.9291 80.2295 2.08061C80.0155 2.23023 79.8478 2.43951 79.7266 2.70845C79.6073 2.9755 79.5477 3.28516 79.5477 3.63743C79.5477 3.9916 79.6064 4.30504 79.7238 4.57777C79.8412 4.8486 80.006 5.06072 80.2181 5.21413C80.4321 5.36754 80.6821 5.44425 80.9681 5.44425C81.1613 5.44425 81.3374 5.40826 81.4965 5.33629C81.6575 5.26243 81.792 5.15826 81.8999 5.02379C82.0098 4.88932 82.0836 4.72929 82.1215 4.54368H82.6329C82.595 4.80694 82.5013 5.04179 82.3516 5.24822C82.2039 5.45277 82.0117 5.61375 81.7749 5.73118C81.5401 5.8486 81.2711 5.90732 80.9681 5.90732ZM85.4127 5.90732C85.0358 5.90732 84.7025 5.81167 84.4127 5.62038C84.1248 5.4291 83.8995 5.16489 83.7366 4.82777C83.5737 4.48875 83.4923 4.09766 83.4923 3.65447C83.4923 3.2075 83.5737 2.81451 83.7366 2.4755C83.8995 2.13459 84.1248 1.86944 84.4127 1.68004C84.7025 1.48875 85.0358 1.39311 85.4127 1.39311C85.7896 1.39311 86.122 1.48875 86.4099 1.68004C86.6977 1.87133 86.9231 2.13648 87.086 2.4755C87.2508 2.81451 87.3332 3.2075 87.3332 3.65447C87.3332 4.09766 87.2517 4.48875 87.0888 4.82777C86.926 5.16489 86.6996 5.4291 86.4099 5.62038C86.122 5.81167 85.7896 5.90732 85.4127 5.90732ZM85.4127 5.44425C85.7157 5.44425 85.9724 5.36281 86.1826 5.19993C86.3928 5.03705 86.5519 4.82019 86.6599 4.54936C86.7697 4.27853 86.8246 3.98023 86.8246 3.65447C86.8246 3.32872 86.7697 3.02947 86.6599 2.75675C86.5519 2.48402 86.3928 2.26527 86.1826 2.1005C85.9724 1.93572 85.7157 1.85334 85.4127 1.85334C85.1116 1.85334 84.8549 1.93572 84.6428 2.1005C84.4326 2.26527 84.2726 2.48402 84.1627 2.75675C84.0548 3.02947 84.0008 3.32872 84.0008 3.65447C84.0008 3.98023 84.0548 4.27853 84.1627 4.54936C84.2726 4.82019 84.4326 5.03705 84.6428 5.19993C84.853 5.36281 85.1097 5.44425 85.4127 5.44425ZM88.4432 5.81641V1.45277H88.9347V2.12322H88.9802C89.0673 1.89785 89.2122 1.72076 89.4148 1.59197C89.6194 1.46129 89.8646 1.39595 90.1506 1.39595C90.4518 1.39595 90.6989 1.46697 90.8921 1.60902C91.0872 1.74917 91.233 1.94235 91.3296 2.18857H91.3665C91.465 1.94614 91.6251 1.75391 91.8467 1.61186C92.0701 1.46792 92.341 1.39595 92.6592 1.39595C93.0645 1.39595 93.3845 1.52379 93.6194 1.77947C93.8542 2.03326 93.9717 2.40447 93.9717 2.89311V5.81641H93.466V2.89311C93.466 2.54841 93.3779 2.28989 93.2018 2.11754C93.0256 1.94519 92.7936 1.85902 92.5057 1.85902C92.1724 1.85902 91.9158 1.96129 91.7359 2.16584C91.5559 2.37038 91.466 2.62985 91.466 2.94425V5.81641H90.9489V2.84766C90.9489 2.5522 90.8665 2.31357 90.7018 2.13175C90.537 1.94993 90.305 1.85902 90.0057 1.85902C89.805 1.85902 89.6241 1.90826 89.4631 2.00675C89.304 2.10523 89.1781 2.24254 89.0853 2.41868C88.9944 2.59292 88.9489 2.79368 88.9489 3.02095V5.81641H88.4432Z" fill="black"/>
</svg>
