<svg width="52" height="19" viewBox="0 0 52 19" fill="none" xmlns="http://www.w3.org/2000/svg">
<rect width="51.6667" height="19" rx="9.5" fill="white"/>
<path d="M8.20801 12L6.86142 12L6.86142 7.63636L8.26767 7.63636C8.69096 7.63636 9.05318 7.72372 9.35431 7.89844C9.65545 8.07173 9.88627 8.32102 10.0468 8.64631C10.2073 8.97017 10.2876 9.35795 10.2876 9.80966C10.2876 10.2642 10.2066 10.6555 10.0447 10.9837C9.88272 11.3104 9.64693 11.5618 9.33727 11.7379C9.02761 11.9126 8.65119 12 8.20801 12ZM7.38983 11.5312L8.17392 11.5312C8.53471 11.5312 8.83372 11.4616 9.07093 11.3224C9.30815 11.1832 9.485 10.9851 9.60147 10.728C9.71795 10.4709 9.77619 10.1648 9.77619 9.80966C9.77619 9.45739 9.71866 9.15412 9.6036 8.89986C9.48855 8.64418 9.31667 8.44815 9.08798 8.31179C8.85929 8.17401 8.57449 8.10511 8.23358 8.10511L7.38983 8.10511L7.38983 11.5312ZM12.1353 12.0682C11.8398 12.0682 11.5806 11.9979 11.3576 11.8572C11.136 11.7166 10.9627 11.5199 10.8377 11.267C10.7141 11.0142 10.6523 10.7187 10.6523 10.3807C10.6523 10.0398 10.7141 9.74219 10.8377 9.48793C10.9627 9.23366 11.136 9.03622 11.3576 8.8956C11.5806 8.75497 11.8398 8.68466 12.1353 8.68466C12.4307 8.68466 12.6893 8.75497 12.9108 8.8956C13.1339 9.03622 13.3072 9.23366 13.4307 9.48793C13.5557 9.74219 13.6182 10.0398 13.6182 10.3807C13.6182 10.7187 13.5557 11.0142 13.4307 11.267C13.3072 11.5199 13.1339 11.7166 12.9108 11.8572C12.6893 11.9979 12.4307 12.0682 12.1353 12.0682ZM12.1353 11.6165C12.3597 11.6165 12.5444 11.5589 12.6893 11.4439C12.8341 11.3288 12.9414 11.1776 13.011 10.9901C13.0806 10.8026 13.1154 10.5994 13.1154 10.3807C13.1154 10.1619 13.0806 9.9581 13.011 9.76918C12.9414 9.58026 12.8341 9.42756 12.6893 9.31108C12.5444 9.1946 12.3597 9.13636 12.1353 9.13636C11.9108 9.13636 11.7262 9.1946 11.5813 9.31108C11.4364 9.42756 11.3292 9.58026 11.2596 9.76918C11.19 9.9581 11.1552 10.1619 11.1552 10.3807C11.1552 10.5994 11.19 10.8026 11.2596 10.9901C11.3292 11.1776 11.4364 11.3288 11.5813 11.4439C11.7262 11.5589 11.9108 11.6165 12.1353 11.6165ZM14.716 12L13.7188 8.72727L14.2472 8.72727L14.9546 11.233L14.9887 11.233L15.6876 8.72727L16.2245 8.72727L16.9148 11.2244L16.9489 11.2244L17.6563 8.72727L18.1847 8.72727L17.1876 12L16.6932 12L15.9773 9.4858L15.9262 9.4858L15.2103 12L14.716 12ZM19.0523 10.0312L19.0523 12L18.5495 12L18.5495 8.72727L19.0353 8.72727L19.0353 9.23864L19.0779 9.23864C19.1546 9.07244 19.2711 8.93892 19.4273 8.83807C19.5836 8.7358 19.7853 8.68466 20.0324 8.68466C20.254 8.68466 20.4479 8.73011 20.6141 8.82102C20.7803 8.91051 20.9096 9.04687 21.0019 9.23011C21.0942 9.41193 21.1404 9.64205 21.1404 9.92045L21.1404 12L20.6376 12L20.6376 9.95455C20.6376 9.69744 20.5708 9.49716 20.4373 9.35369C20.3037 9.20881 20.1205 9.13636 19.8876 9.13636C19.727 9.13636 19.5836 9.17116 19.4572 9.24077C19.3322 9.31037 19.2334 9.41193 19.161 9.54545C19.0885 9.67898 19.0523 9.84091 19.0523 10.0312ZM22.2621 7.63636L22.2621 12L21.7593 12L21.7593 7.63636L22.2621 7.63636ZM24.2126 12.0682C23.9172 12.0682 23.6579 11.9979 23.4349 11.8572C23.2133 11.7166 23.04 11.5199 22.915 11.267C22.7915 11.0142 22.7297 10.7187 22.7297 10.3807C22.7297 10.0398 22.7915 9.74219 22.915 9.48793C23.04 9.23366 23.2133 9.03622 23.4349 8.8956C23.6579 8.75497 23.9172 8.68466 24.2126 8.68466C24.5081 8.68466 24.7666 8.75497 24.9882 8.8956C25.2112 9.03622 25.3845 9.23366 25.5081 9.48793C25.6331 9.74219 25.6956 10.0398 25.6956 10.3807C25.6956 10.7187 25.6331 11.0142 25.5081 11.267C25.3845 11.5199 25.2112 11.7166 24.9882 11.8572C24.7666 11.9979 24.5081 12.0682 24.2126 12.0682ZM24.2126 11.6165C24.4371 11.6165 24.6217 11.5589 24.7666 11.4439C24.9115 11.3288 25.0187 11.1776 25.0883 10.9901C25.1579 10.8026 25.1927 10.5994 25.1927 10.3807C25.1927 10.1619 25.1579 9.9581 25.0883 9.76918C25.0187 9.58026 24.9115 9.42756 24.7666 9.31108C24.6217 9.1946 24.4371 9.13636 24.2126 9.13636C23.9882 9.13636 23.8035 9.1946 23.6586 9.31108C23.5138 9.42756 23.4065 9.58026 23.3369 9.76918C23.2673 9.9581 23.2325 10.1619 23.2325 10.3807C23.2325 10.5994 23.2673 10.8026 23.3369 10.9901C23.4065 11.1776 23.5138 11.3288 23.6586 11.4439C23.8035 11.5589 23.9882 11.6165 24.2126 11.6165ZM27.1262 12.0767C26.9188 12.0767 26.7306 12.0376 26.5616 11.9595C26.3926 11.88 26.2583 11.7656 26.1589 11.6165C26.0595 11.4659 26.0097 11.2841 26.0097 11.071C26.0097 10.8835 26.0467 10.7315 26.1205 10.6151C26.1944 10.4972 26.2931 10.4048 26.4167 10.3381C26.5403 10.2713 26.6767 10.2216 26.8258 10.1889C26.9764 10.1548 27.1276 10.1278 27.2796 10.108C27.4785 10.0824 27.6397 10.0632 27.7633 10.0504C27.8883 10.0362 27.9792 10.0128 28.036 9.98011C28.0943 9.94744 28.1234 9.89062 28.1234 9.80966L28.1234 9.79261C28.1234 9.58239 28.0659 9.41903 27.9508 9.30256C27.8372 9.18608 27.6646 9.12784 27.433 9.12784C27.193 9.12784 27.0048 9.1804 26.8684 9.28551C26.732 9.39062 26.6362 9.50284 26.5808 9.62216L26.1035 9.4517C26.1887 9.25284 26.3024 9.09801 26.4444 8.98722C26.5879 8.875 26.7441 8.79687 26.9132 8.75284C27.0836 8.70739 27.2512 8.68466 27.416 8.68466C27.5211 8.68466 27.6419 8.69744 27.7782 8.72301C27.916 8.74716 28.0488 8.79759 28.1767 8.87429C28.3059 8.95099 28.4132 9.06676 28.4984 9.22159C28.5836 9.37642 28.6262 9.58381 28.6262 9.84375L28.6262 12L28.1234 12L28.1234 11.5568L28.0978 11.5568C28.0637 11.6278 28.0069 11.7038 27.9274 11.7848C27.8478 11.8658 27.742 11.9347 27.6099 11.9915C27.4778 12.0483 27.3166 12.0767 27.1262 12.0767ZM27.2029 11.625C27.4018 11.625 27.5694 11.5859 27.7058 11.5078C27.8436 11.4297 27.9472 11.3288 28.0169 11.2053C28.0879 11.0817 28.1234 10.9517 28.1234 10.8153L28.1234 10.3551C28.1021 10.3807 28.0552 10.4041 27.9828 10.4254C27.9117 10.4453 27.8294 10.4631 27.7356 10.4787C27.6433 10.4929 27.5531 10.5057 27.465 10.517C27.3784 10.527 27.308 10.5355 27.2541 10.5426C27.1234 10.5597 27.0012 10.5874 26.8876 10.6257C26.7754 10.6626 26.6845 10.7187 26.6149 10.794C26.5467 10.8679 26.5126 10.9687 26.5126 11.0966C26.5126 11.2713 26.5772 11.4034 26.7065 11.4929C26.8372 11.581 27.0026 11.625 27.2029 11.625ZM30.4798 12.0682C30.2071 12.0682 29.9663 11.9993 29.7575 11.8615C29.5487 11.7223 29.3854 11.5263 29.2675 11.2734C29.1496 11.0192 29.0906 10.7187 29.0906 10.3722C29.0906 10.0284 29.1496 9.73011 29.2675 9.47727C29.3854 9.22443 29.5494 9.02912 29.7596 8.89134C29.9699 8.75355 30.2128 8.68466 30.4883 8.68466C30.7014 8.68466 30.8697 8.72017 30.9933 8.79119C31.1183 8.8608 31.2135 8.94034 31.2788 9.02983C31.3456 9.1179 31.3974 9.19034 31.4344 9.24716L31.477 9.24716L31.477 7.63636L31.9798 7.63636L31.9798 12L31.494 12L31.494 11.4972L31.4344 11.4972C31.3974 11.5568 31.3449 11.6321 31.2767 11.723C31.2085 11.8125 31.1112 11.8928 30.9848 11.9638C30.8584 12.0334 30.69 12.0682 30.4798 12.0682ZM30.548 11.6165C30.7497 11.6165 30.9202 11.5639 31.0594 11.4588C31.1986 11.3523 31.3044 11.2053 31.3768 11.0178C31.4493 10.8288 31.4855 10.6108 31.4855 10.3636C31.4855 10.1193 31.45 9.90554 31.379 9.7223C31.3079 9.53764 31.2028 9.39418 31.0636 9.2919C30.9244 9.18821 30.7525 9.13636 30.548 9.13636C30.3349 9.13636 30.1574 9.19105 30.0153 9.30043C29.8747 9.40838 29.7689 9.5554 29.6979 9.74148C29.6282 9.92614 29.5934 10.1335 29.5934 10.3636C29.5934 10.5966 29.629 10.8082 29.7 10.9986C29.7724 11.1875 29.879 11.3381 30.0196 11.4503C30.1616 11.5611 30.3378 11.6165 30.548 11.6165ZM34.1263 12L34.1263 7.63636L35.6007 7.63636C35.943 7.63636 36.2229 7.69815 36.4402 7.82173C36.6589 7.94389 36.8209 8.10937 36.926 8.31818C37.0311 8.52699 37.0836 8.75994 37.0836 9.01705C37.0836 9.27415 37.0311 9.50781 36.926 9.71804C36.8223 9.92827 36.6618 10.0959 36.4444 10.2209C36.2271 10.3445 35.9487 10.4062 35.6092 10.4062L34.5524 10.4062L34.5524 9.9375L35.5922 9.9375C35.8265 9.9375 36.0148 9.89702 36.1568 9.81605C36.2988 9.73509 36.4018 9.62571 36.4657 9.48793C36.5311 9.34872 36.5638 9.19176 36.5638 9.01705C36.5638 8.84233 36.5311 8.68608 36.4657 8.5483C36.4018 8.41051 36.2981 8.30256 36.1547 8.22443C36.0112 8.14489 35.8209 8.10511 35.5836 8.10511L34.6547 8.10511L34.6547 12L34.1263 12ZM38.9814 12L37.6349 12L37.6349 7.63636L39.0411 7.63636C39.4644 7.63636 39.8266 7.72372 40.1278 7.89844C40.4289 8.07173 40.6597 8.32102 40.8202 8.64631C40.9807 8.97017 41.061 9.35795 41.061 9.80966C41.061 10.2642 40.98 10.6555 40.8181 10.9837C40.6562 11.3104 40.4204 11.5618 40.1107 11.7379C39.801 11.9126 39.4246 12 38.9814 12ZM38.1633 11.5312L38.9474 11.5312C39.3081 11.5312 39.6072 11.4616 39.8444 11.3224C40.0816 11.1832 40.2584 10.9851 40.3749 10.728C40.4914 10.4709 40.5496 10.1648 40.5496 9.80966C40.5496 9.45739 40.4921 9.15412 40.377 8.89986C40.262 8.64418 40.0901 8.44815 39.8614 8.31179C39.6327 8.17401 39.3479 8.10511 39.007 8.10511L38.1633 8.10511L38.1633 11.5312ZM41.6474 12L41.6474 7.63636L44.2638 7.63636L44.2638 8.10511L42.1758 8.10511L42.1758 9.57955L44.0678 9.57955L44.0678 10.0483L42.1758 10.0483L42.1758 12L41.6474 12Z" fill="#3D93CF"/>
</svg>
