<svg width="68" height="19" viewBox="0 0 68 19" fill="none" xmlns="http://www.w3.org/2000/svg">
<path d="M9.5 0.5H58.167C63.1374 0.500175 67.167 4.52955 67.167 9.5C67.167 14.4705 63.1374 18.4998 58.167 18.5H9.5C4.52944 18.5 0.5 14.4706 0.5 9.5C0.5 4.52944 4.52944 0.5 9.5 0.5Z" fill="white"/>
<path d="M9.5 0.5H58.167C63.1374 0.500175 67.167 4.52955 67.167 9.5C67.167 14.4705 63.1374 18.4998 58.167 18.5H9.5C4.52944 18.5 0.5 14.4706 0.5 9.5C0.5 4.52944 4.52944 0.5 9.5 0.5Z" stroke="white"/>
<path d="M6.86142 12L6.86142 7.63636L9.49494 7.63636L9.49494 8.10511L7.38983 8.10511L7.38983 9.57955L9.35858 9.57955L9.35858 10.0483L7.38983 10.0483L7.38983 11.5312L9.52903 11.5312L9.52903 12L6.86142 12ZM10.4542 8.72727L11.2383 10.0653L12.0224 8.72727L12.6019 8.72727L11.5451 10.3636L12.6019 12L12.0224 12L11.2383 10.7301L10.4542 12L9.87463 12L10.9144 10.3636L9.87463 8.72727L10.4542 8.72727ZM13.0194 13.2273L13.0194 8.72727L13.5052 8.72727L13.5052 9.24716L13.5649 9.24716C13.6018 9.19034 13.6529 9.1179 13.7183 9.02983C13.785 8.94034 13.8802 8.8608 14.0038 8.79119C14.1288 8.72017 14.2978 8.68466 14.5109 8.68466C14.7865 8.68466 15.0294 8.75355 15.2396 8.89134C15.4498 9.02912 15.6139 9.22443 15.7318 9.47727C15.8497 9.73011 15.9086 10.0284 15.9086 10.3722C15.9086 10.7187 15.8497 11.0192 15.7318 11.2734C15.6139 11.5263 15.4505 11.7223 15.2417 11.8615C15.0329 11.9993 14.7921 12.0682 14.5194 12.0682C14.3092 12.0682 14.1409 12.0334 14.0144 11.9638C13.888 11.8928 13.7907 11.8125 13.7225 11.723C13.6544 11.6321 13.6018 11.5568 13.5649 11.4972L13.5222 11.4972L13.5222 13.2273L13.0194 13.2273ZM13.5137 10.3636C13.5137 10.6108 13.5499 10.8288 13.6224 11.0178C13.6948 11.2053 13.8007 11.3523 13.9399 11.4588C14.0791 11.5639 14.2495 11.6165 14.4512 11.6165C14.6615 11.6165 14.8369 11.5611 14.9775 11.4503C15.1195 11.3381 15.2261 11.1875 15.2971 10.9986C15.3695 10.8082 15.4058 10.5966 15.4058 10.3636C15.4058 10.1335 15.3703 9.92614 15.2992 9.74148C15.2296 9.5554 15.1238 9.40838 14.9818 9.30043C14.8411 9.19105 14.6643 9.13636 14.4512 9.13636C14.2467 9.13636 14.0748 9.18821 13.9356 9.2919C13.7964 9.39418 13.6913 9.53764 13.6203 9.7223C13.5492 9.90554 13.5137 10.1193 13.5137 10.3636ZM17.7052 12.0682C17.4097 12.0682 17.1505 11.9979 16.9275 11.8572C16.7059 11.7166 16.5326 11.5199 16.4076 11.267C16.284 11.0142 16.2222 10.7187 16.2222 10.3807C16.2222 10.0398 16.284 9.74219 16.4076 9.48793C16.5326 9.23366 16.7059 9.03622 16.9275 8.8956C17.1505 8.75497 17.4097 8.68466 17.7052 8.68466C18.0007 8.68466 18.2592 8.75497 18.4808 8.8956C18.7038 9.03622 18.8771 9.23366 19.0007 9.48793C19.1257 9.74219 19.1882 10.0398 19.1882 10.3807C19.1882 10.7187 19.1257 11.0142 19.0007 11.267C18.8771 11.5199 18.7038 11.7166 18.4808 11.8572C18.2592 11.9979 18.0007 12.0682 17.7052 12.0682ZM17.7052 11.6165C17.9296 11.6165 18.1143 11.5589 18.2592 11.4439C18.4041 11.3288 18.5113 11.1776 18.5809 10.9901C18.6505 10.8026 18.6853 10.5994 18.6853 10.3807C18.6853 10.1619 18.6505 9.9581 18.5809 9.76918C18.5113 9.58026 18.4041 9.42756 18.2592 9.31108C18.1143 9.1946 17.9296 9.13636 17.7052 9.13636C17.4808 9.13636 17.2961 9.1946 17.1512 9.31108C17.0063 9.42756 16.8991 9.58026 16.8295 9.76918C16.7599 9.9581 16.7251 10.1619 16.7251 10.3807C16.7251 10.5994 16.7599 10.8026 16.8295 10.9901C16.8991 11.1776 17.0063 11.3288 17.1512 11.4439C17.2961 11.5589 17.4808 11.6165 17.7052 11.6165ZM19.6557 12L19.6557 8.72727L20.1415 8.72727L20.1415 9.22159L20.1756 9.22159C20.2353 9.05966 20.3432 8.92827 20.4995 8.82741C20.6557 8.72656 20.8319 8.67614 21.0279 8.67614C21.0648 8.67614 21.111 8.67685 21.1664 8.67827C21.2218 8.67969 21.2637 8.68182 21.2921 8.68466L21.2921 9.19602C21.2751 9.19176 21.236 9.18537 21.1749 9.17685C21.1153 9.1669 21.052 9.16193 20.9853 9.16193C20.8262 9.16193 20.6841 9.19531 20.5591 9.26207C20.4356 9.32741 20.3376 9.41832 20.2651 9.5348C20.1941 9.64986 20.1586 9.78125 20.1586 9.92898L20.1586 12L19.6557 12ZM23.2165 8.72727L23.2165 9.15341L21.5205 9.15341L21.5205 8.72727L23.2165 8.72727ZM22.0148 7.94318L22.5177 7.94318L22.5177 11.0625C22.5177 11.2045 22.5383 11.3111 22.5795 11.3821C22.6221 11.4517 22.676 11.4986 22.7414 11.5227C22.8081 11.5455 22.8785 11.5568 22.9523 11.5568C23.0077 11.5568 23.0532 11.554 23.0887 11.5483C23.1242 11.5412 23.1526 11.5355 23.1739 11.5312L23.2762 11.983C23.2421 11.9957 23.1945 12.0085 23.1334 12.0213C23.0724 12.0355 22.9949 12.0426 22.9012 12.0426C22.7591 12.0426 22.6199 12.0121 22.4836 11.951C22.3486 11.8899 22.2364 11.7969 22.1469 11.6719C22.0589 11.5469 22.0148 11.3892 22.0148 11.1989L22.0148 7.94318ZM25.1286 12L25.1286 7.63636L27.7451 7.63636L27.7451 8.10511L25.657 8.10511L25.657 9.57955L27.5491 9.57955L27.5491 10.0483L25.657 10.0483L25.657 12L25.1286 12ZM30.1393 10.6619L30.1393 8.72727L30.6422 8.72727L30.6422 12L30.1393 12L30.1393 11.446L30.1052 11.446C30.0285 11.6122 29.9092 11.7536 29.7473 11.87C29.5854 11.9851 29.3808 12.0426 29.1336 12.0426C28.9291 12.0426 28.7473 11.9979 28.5882 11.9084C28.4291 11.8175 28.3041 11.6811 28.2132 11.4993C28.1223 11.3161 28.0768 11.0852 28.0768 10.8068L28.0768 8.72727L28.5797 8.72727L28.5797 10.7727C28.5797 11.0114 28.6464 11.2017 28.78 11.3437C28.9149 11.4858 29.0868 11.5568 29.2956 11.5568C29.4206 11.5568 29.5477 11.5249 29.677 11.4609C29.8077 11.397 29.917 11.299 30.0051 11.1669C30.0946 11.0348 30.1393 10.8665 30.1393 10.6619ZM31.766 7.63636L31.766 12L31.2632 12L31.2632 7.63636L31.766 7.63636ZM32.8898 7.63636L32.8898 12L32.387 12L32.387 7.63636L32.8898 7.63636ZM38.4779 9L37.9494 9C37.9182 8.84801 37.8635 8.71449 37.7854 8.59943C37.7087 8.48437 37.6149 8.38778 37.5041 8.30966C37.3948 8.23011 37.2733 8.17045 37.1398 8.13068C37.0063 8.09091 36.8671 8.07102 36.7222 8.07102C36.458 8.07102 36.2186 8.13778 36.0041 8.27131C35.7911 8.40483 35.6213 8.60156 35.4949 8.86151C35.3699 9.12145 35.3074 9.44034 35.3074 9.81818C35.3074 10.196 35.3699 10.5149 35.4949 10.7749C35.6213 11.0348 35.7911 11.2315 36.0041 11.3651C36.2186 11.4986 36.458 11.5653 36.7222 11.5653C36.8671 11.5653 37.0063 11.5455 37.1398 11.5057C37.2733 11.4659 37.3948 11.407 37.5041 11.3288C37.6149 11.2493 37.7087 11.152 37.7854 11.0369C37.8635 10.9205 37.9182 10.7869 37.9494 10.6364L38.4779 10.6364C38.4381 10.8594 38.3656 11.0589 38.2605 11.2351C38.1554 11.4112 38.0247 11.5611 37.8685 11.6847C37.7122 11.8068 37.5368 11.8999 37.3422 11.9638C37.149 12.0277 36.9423 12.0597 36.7222 12.0597C36.35 12.0597 36.0191 11.9687 35.7293 11.7869C35.4395 11.6051 35.2115 11.3466 35.0453 11.0114C34.8791 10.6761 34.796 10.2784 34.796 9.81818C34.796 9.35795 34.8791 8.96023 35.0453 8.625C35.2115 8.28977 35.4395 8.03125 35.7293 7.84943C36.0191 7.66761 36.35 7.5767 36.7222 7.5767C36.9423 7.5767 37.149 7.60866 37.3422 7.67259C37.5368 7.73651 37.7122 7.83026 37.8685 7.95384C38.0247 8.07599 38.1554 8.22514 38.2605 8.40128C38.3656 8.57599 38.4381 8.77557 38.4779 9ZM39.9266 12.0767C39.7192 12.0767 39.531 12.0376 39.362 11.9595C39.1929 11.88 39.0587 11.7656 38.9593 11.6165C38.8599 11.4659 38.8101 11.2841 38.8101 11.071C38.8101 10.8835 38.8471 10.7315 38.9209 10.6151C38.9948 10.4972 39.0935 10.4048 39.2171 10.3381C39.3407 10.2713 39.477 10.2216 39.6262 10.1889C39.7768 10.1548 39.928 10.1278 40.08 10.108C40.2789 10.0824 40.4401 10.0632 40.5637 10.0504C40.6887 10.0362 40.7796 10.0128 40.8364 9.98011C40.8947 9.94744 40.9238 9.89062 40.9238 9.80966L40.9238 9.79261C40.9238 9.58239 40.8662 9.41903 40.7512 9.30256C40.6376 9.18608 40.465 9.12784 40.2334 9.12784C39.9934 9.12784 39.8052 9.1804 39.6688 9.28551C39.5324 9.39062 39.4366 9.50284 39.3812 9.62216L38.9039 9.4517C38.9891 9.25284 39.1028 9.09801 39.2448 8.98722C39.3883 8.875 39.5445 8.79687 39.7135 8.75284C39.884 8.70739 40.0516 8.68466 40.2164 8.68466C40.3215 8.68466 40.4422 8.69744 40.5786 8.72301C40.7164 8.74716 40.8492 8.79759 40.977 8.87429C41.1063 8.95099 41.2135 9.06676 41.2988 9.22159C41.384 9.37642 41.4266 9.58381 41.4266 9.84375L41.4266 12L40.9238 12L40.9238 11.5568L40.8982 11.5568C40.8641 11.6278 40.8073 11.7038 40.7278 11.7848C40.6482 11.8658 40.5424 11.9347 40.4103 11.9915C40.2782 12.0483 40.117 12.0767 39.9266 12.0767ZM40.0033 11.625C40.2022 11.625 40.3698 11.5859 40.5062 11.5078C40.6439 11.4297 40.7476 11.3288 40.8172 11.2053C40.8883 11.0817 40.9238 10.9517 40.9238 10.8153L40.9238 10.3551C40.9025 10.3807 40.8556 10.4041 40.7831 10.4254C40.7121 10.4453 40.6297 10.4631 40.536 10.4787C40.4437 10.4929 40.3535 10.5057 40.2654 10.517C40.1787 10.527 40.1084 10.5355 40.0545 10.5426C39.9238 10.5597 39.8016 10.5874 39.688 10.6257C39.5758 10.6626 39.4849 10.7187 39.4153 10.794C39.3471 10.8679 39.313 10.9687 39.313 11.0966C39.313 11.2713 39.3776 11.4034 39.5069 11.4929C39.6376 11.581 39.803 11.625 40.0033 11.625ZM43.4677 8.72727L43.4677 9.15341L41.7717 9.15341L41.7717 8.72727L43.4677 8.72727ZM42.266 7.94318L42.7688 7.94318L42.7688 11.0625C42.7688 11.2045 42.7894 11.3111 42.8306 11.3821C42.8732 11.4517 42.9272 11.4986 42.9926 11.5227C43.0593 11.5455 43.1296 11.5568 43.2035 11.5568C43.2589 11.5568 43.3043 11.554 43.3399 11.5483C43.3754 11.5412 43.4038 11.5355 43.4251 11.5312L43.5274 11.983C43.4933 11.9957 43.4457 12.0085 43.3846 12.0213C43.3235 12.0355 43.2461 12.0426 43.1524 12.0426C43.0103 12.0426 42.8711 12.0121 42.7347 11.951C42.5998 11.8899 42.4876 11.7969 42.3981 11.6719C42.31 11.5469 42.266 11.3892 42.266 11.1989L42.266 7.94318ZM44.8872 12.0767C44.6798 12.0767 44.4916 12.0376 44.3225 11.9595C44.1535 11.88 44.0193 11.7656 43.9198 11.6165C43.8204 11.4659 43.7707 11.2841 43.7707 11.071C43.7707 10.8835 43.8076 10.7315 43.8815 10.6151C43.9553 10.4972 44.0541 10.4048 44.1776 10.3381C44.3012 10.2713 44.4376 10.2216 44.5867 10.1889C44.7373 10.1548 44.8886 10.1278 45.0406 10.108C45.2394 10.0824 45.4007 10.0632 45.5242 10.0504C45.6492 10.0362 45.7401 10.0128 45.797 9.98011C45.8552 9.94744 45.8843 9.89062 45.8843 9.80966L45.8843 9.79261C45.8843 9.58239 45.8268 9.41903 45.7117 9.30256C45.5981 9.18608 45.4255 9.12784 45.194 9.12784C44.9539 9.12784 44.7657 9.1804 44.6294 9.28551C44.493 9.39062 44.3971 9.50284 44.3417 9.62216L43.8644 9.4517C43.9497 9.25284 44.0633 9.09801 44.2053 8.98722C44.3488 8.875 44.5051 8.79687 44.6741 8.75284C44.8445 8.70739 45.0122 8.68466 45.1769 8.68466C45.282 8.68466 45.4028 8.69744 45.5392 8.72301C45.6769 8.74716 45.8097 8.79759 45.9376 8.87429C46.0669 8.95099 46.1741 9.06676 46.2593 9.22159C46.3445 9.37642 46.3872 9.58381 46.3872 9.84375L46.3872 12L45.8843 12L45.8843 11.5568L45.8588 11.5568C45.8247 11.6278 45.7678 11.7038 45.6883 11.7848C45.6088 11.8658 45.5029 11.9347 45.3708 11.9915C45.2387 12.0483 45.0775 12.0767 44.8872 12.0767ZM44.9639 11.625C45.1627 11.625 45.3303 11.5859 45.4667 11.5078C45.6045 11.4297 45.7082 11.3288 45.7778 11.2053C45.8488 11.0817 45.8843 10.9517 45.8843 10.8153L45.8843 10.3551C45.863 10.3807 45.8161 10.4041 45.7437 10.4254C45.6727 10.4453 45.5903 10.4631 45.4965 10.4787C45.4042 10.4929 45.314 10.5057 45.2259 10.517C45.1393 10.527 45.069 10.5355 45.015 10.5426C44.8843 10.5597 44.7622 10.5874 44.6485 10.6257C44.5363 10.6626 44.4454 10.7187 44.3758 10.794C44.3076 10.8679 44.2735 10.9687 44.2735 11.0966C44.2735 11.2713 44.3382 11.4034 44.4674 11.4929C44.5981 11.581 44.7636 11.625 44.9639 11.625ZM47.5078 7.63636L47.5078 12L47.005 12L47.005 7.63636L47.5078 7.63636ZM49.4583 12.0682C49.1629 12.0682 48.9036 11.9979 48.6806 11.8572C48.459 11.7166 48.2857 11.5199 48.1607 11.267C48.0372 11.0142 47.9754 10.7187 47.9754 10.3807C47.9754 10.0398 48.0372 9.74219 48.1607 9.48793C48.2857 9.23366 48.459 9.03622 48.6806 8.8956C48.9036 8.75497 49.1629 8.68466 49.4583 8.68466C49.7538 8.68466 50.0123 8.75497 50.2339 8.8956C50.4569 9.03622 50.6302 9.23366 50.7538 9.48793C50.8788 9.74219 50.9413 10.0398 50.9413 10.3807C50.9413 10.7187 50.8788 11.0142 50.7538 11.267C50.6302 11.5199 50.4569 11.7166 50.2339 11.8572C50.0123 11.9979 49.7538 12.0682 49.4583 12.0682ZM49.4583 11.6165C49.6828 11.6165 49.8674 11.5589 50.0123 11.4439C50.1572 11.3288 50.2644 11.1776 50.334 10.9901C50.4036 10.8026 50.4384 10.5994 50.4384 10.3807C50.4384 10.1619 50.4036 9.9581 50.334 9.76918C50.2644 9.58026 50.1572 9.42756 50.0123 9.31108C49.8674 9.1946 49.6828 9.13636 49.4583 9.13636C49.2339 9.13636 49.0492 9.1946 48.9044 9.31108C48.7595 9.42756 48.6522 9.58026 48.5826 9.76918C48.513 9.9581 48.4782 10.1619 48.4782 10.3807C48.4782 10.5994 48.513 10.8026 48.5826 10.9901C48.6522 11.1776 48.7595 11.3288 48.9044 11.4439C49.0492 11.5589 49.2339 11.6165 49.4583 11.6165ZM52.7299 13.2955C52.487 13.2955 52.2782 13.2642 52.1035 13.2017C51.9287 13.1406 51.7831 13.0597 51.6667 12.9588C51.5516 12.8594 51.46 12.7528 51.3918 12.6392L51.7924 12.358C51.8378 12.4176 51.8954 12.4858 51.965 12.5625C52.0346 12.6406 52.1297 12.7081 52.2505 12.7649C52.3726 12.8232 52.5324 12.8523 52.7299 12.8523C52.9941 12.8523 53.2121 12.7884 53.384 12.6605C53.5559 12.5327 53.6418 12.3324 53.6418 12.0597L53.6418 11.3949L53.5992 11.3949C53.5623 11.4545 53.5097 11.5284 53.4415 11.6165C53.3748 11.7031 53.2782 11.7805 53.1518 11.8487C53.0268 11.9155 52.8577 11.9489 52.6447 11.9489C52.3804 11.9489 52.1432 11.8864 51.933 11.7614C51.7242 11.6364 51.5587 11.4545 51.4366 11.2159C51.3158 10.9773 51.2554 10.6875 51.2554 10.3466C51.2554 10.0114 51.3144 9.71946 51.4323 9.47088C51.5502 9.22088 51.7143 9.0277 51.9245 8.89134C52.1347 8.75355 52.3776 8.68466 52.6532 8.68466C52.8662 8.68466 53.0353 8.72017 53.1603 8.79119C53.2867 8.8608 53.3833 8.94034 53.4501 9.02983C53.5182 9.1179 53.5708 9.19034 53.6077 9.24716L53.6589 9.24716L53.6589 8.72727L54.1447 8.72727L54.1447 12.0937C54.1447 12.375 54.0807 12.6037 53.9529 12.7798C53.8265 12.9574 53.656 13.0874 53.4415 13.1697C53.2285 13.2536 52.9912 13.2955 52.7299 13.2955ZM52.7128 11.4972C52.9145 11.4972 53.085 11.451 53.2242 11.3587C53.3634 11.2663 53.4692 11.1335 53.5417 10.9602C53.6141 10.7869 53.6503 10.5795 53.6503 10.3381C53.6503 10.1023 53.6148 9.89418 53.5438 9.71378C53.4728 9.53338 53.3677 9.39205 53.2285 9.28977C53.0893 9.1875 52.9174 9.13636 52.7128 9.13636C52.4998 9.13636 52.3222 9.19034 52.1802 9.2983C52.0395 9.40625 51.9337 9.55114 51.8627 9.73295C51.7931 9.91477 51.7583 10.1165 51.7583 10.3381C51.7583 10.5653 51.7938 10.7663 51.8648 10.9411C51.9373 11.1143 52.0438 11.2507 52.1844 11.3501C52.3265 11.4482 52.5026 11.4972 52.7128 11.4972ZM56.8276 10.6619L56.8276 8.72727L57.3305 8.72727L57.3305 12L56.8276 12L56.8276 11.446L56.7935 11.446C56.7168 11.6122 56.5975 11.7536 56.4356 11.87C56.2736 11.9851 56.0691 12.0426 55.8219 12.0426C55.6174 12.0426 55.4356 11.9979 55.2765 11.9084C55.1174 11.8175 54.9924 11.6811 54.9015 11.4993C54.8106 11.3161 54.7651 11.0852 54.7651 10.8068L54.7651 8.72727L55.268 8.72727L55.268 10.7727C55.268 11.0114 55.3347 11.2017 55.4682 11.3437C55.6032 11.4858 55.7751 11.5568 55.9839 11.5568C56.1089 11.5568 56.236 11.5249 56.3653 11.4609C56.4959 11.397 56.6053 11.299 56.6934 11.1669C56.7829 11.0348 56.8276 10.8665 56.8276 10.6619ZM59.3236 12.0682C59.0083 12.0682 58.7362 11.9986 58.5075 11.8594C58.2803 11.7187 58.1048 11.5227 57.9813 11.2713C57.8591 11.0185 57.798 10.7244 57.798 10.3892C57.798 10.054 57.8591 9.75852 57.9813 9.50284C58.1048 9.24574 58.2767 9.04545 58.4969 8.90199C58.7185 8.7571 58.977 8.68466 59.2725 8.68466C59.4429 8.68466 59.6112 8.71307 59.7774 8.76989C59.9436 8.8267 60.0949 8.91903 60.2313 9.04687C60.3676 9.1733 60.4763 9.34091 60.5573 9.54972C60.6382 9.75852 60.6787 10.0156 60.6787 10.321L60.6787 10.5341L58.156 10.5341L58.156 10.0994L60.1673 10.0994C60.1673 9.91477 60.1304 9.75 60.0566 9.60511C59.9841 9.46023 59.8804 9.34588 59.7455 9.26207C59.6119 9.17827 59.4543 9.13636 59.2725 9.13636C59.0722 9.13636 58.8989 9.18608 58.7526 9.28551C58.6077 9.38352 58.4962 9.51136 58.4181 9.66903C58.3399 9.8267 58.3009 9.99574 58.3009 10.1761L58.3009 10.4659C58.3009 10.7131 58.3435 10.9226 58.4287 11.0945C58.5154 11.2649 58.6354 11.3949 58.7888 11.4844C58.9422 11.5724 59.1205 11.6165 59.3236 11.6165C59.4557 11.6165 59.575 11.598 59.6816 11.5611C59.7895 11.5227 59.8825 11.4659 59.9607 11.3906C60.0388 11.3139 60.0992 11.2187 60.1418 11.1051L60.6276 11.2415C60.5764 11.4062 60.4905 11.5511 60.3698 11.6761C60.249 11.7997 60.0999 11.8963 59.9223 11.9659C59.7448 12.0341 59.5452 12.0682 59.3236 12.0682Z" fill="#908ABA"/>
</svg>
