<svg width="319" height="38" viewBox="0 0 319 38" fill="none" xmlns="http://www.w3.org/2000/svg">
<path d="M3.35543 8.582H8.53543V9.464H3.35543V8.582ZM3.46743 13.104H9.36143V14H2.43143V4.2H9.15143V5.096H3.46743V13.104ZM10.2616 14L13.3696 9.968L13.3556 10.458L10.4016 6.65H11.5216L13.9436 9.8L13.5236 9.786L15.9456 6.65H17.0376L14.0556 10.5L14.0696 9.968L17.2056 14H16.0716L13.5096 10.64L13.9016 10.696L11.3816 14H10.2616ZM21.1841 14.07C20.4934 14.07 19.9614 13.8833 19.5881 13.51C19.2148 13.1367 19.0281 12.6093 19.0281 11.928V5.026H20.0221V11.872C20.0221 12.3013 20.1294 12.6327 20.3441 12.866C20.5681 13.0993 20.8854 13.216 21.2961 13.216C21.7348 13.216 22.0988 13.09 22.3881 12.838L22.7381 13.552C22.5421 13.7293 22.3041 13.86 22.0241 13.944C21.7534 14.028 21.4734 14.07 21.1841 14.07ZM17.7121 7.476V6.65H22.2621V7.476H17.7121ZM24.5476 14V6.65H25.4996V8.652L25.4016 8.302C25.6069 7.742 25.9523 7.31733 26.4376 7.028C26.9229 6.72933 27.5249 6.58 28.2436 6.58V7.546C28.2063 7.546 28.1689 7.546 28.1316 7.546C28.0943 7.53667 28.0569 7.532 28.0196 7.532C27.2449 7.532 26.6383 7.77 26.1996 8.246C25.7609 8.71267 25.5416 9.38 25.5416 10.248V14H24.5476ZM34.1165 14V12.376L34.0745 12.11V9.394C34.0745 8.76867 33.8972 8.288 33.5425 7.952C33.1972 7.616 32.6792 7.448 31.9885 7.448C31.5125 7.448 31.0598 7.52733 30.6305 7.686C30.2012 7.84467 29.8372 8.05467 29.5385 8.316L29.0905 7.574C29.4638 7.25667 29.9118 7.014 30.4345 6.846C30.9572 6.66867 31.5078 6.58 32.0865 6.58C33.0385 6.58 33.7712 6.818 34.2845 7.294C34.8072 7.76067 35.0685 8.47467 35.0685 9.436V14H34.1165ZM31.5825 14.07C31.0318 14.07 30.5512 13.9813 30.1405 13.804C29.7392 13.6173 29.4312 13.3653 29.2165 13.048C29.0018 12.7213 28.8945 12.348 28.8945 11.928C28.8945 11.5453 28.9832 11.2 29.1605 10.892C29.3472 10.5747 29.6458 10.3227 30.0565 10.136C30.4765 9.94 31.0365 9.842 31.7365 9.842H34.2705V10.584H31.7645C31.0552 10.584 30.5605 10.71 30.2805 10.962C30.0098 11.214 29.8745 11.5267 29.8745 11.9C29.8745 12.32 30.0378 12.656 30.3645 12.908C30.6912 13.16 31.1485 13.286 31.7365 13.286C32.2965 13.286 32.7772 13.16 33.1785 12.908C33.5892 12.6467 33.8878 12.2733 34.0745 11.788L34.2985 12.474C34.1118 12.9593 33.7852 13.3467 33.3185 13.636C32.8612 13.9253 32.2825 14.07 31.5825 14.07ZM37.2223 10.64V9.772H40.8903V10.64H37.2223ZM46.3027 14.07C45.5747 14.07 44.9214 13.9113 44.3427 13.594C43.7734 13.2673 43.3254 12.824 42.9987 12.264C42.6721 11.6947 42.5087 11.046 42.5087 10.318C42.5087 9.58067 42.6721 8.932 42.9987 8.372C43.3254 7.812 43.7734 7.37333 44.3427 7.056C44.9214 6.73867 45.5747 6.58 46.3027 6.58C46.9281 6.58 47.4927 6.70133 47.9967 6.944C48.5007 7.18667 48.8974 7.55067 49.1867 8.036L48.4447 8.54C48.1927 8.16667 47.8801 7.89133 47.5067 7.714C47.1334 7.53667 46.7274 7.448 46.2887 7.448C45.7661 7.448 45.2947 7.56933 44.8747 7.812C44.4547 8.04533 44.1234 8.37667 43.8807 8.806C43.6381 9.23533 43.5167 9.73933 43.5167 10.318C43.5167 10.8967 43.6381 11.4007 43.8807 11.83C44.1234 12.2593 44.4547 12.5953 44.8747 12.838C45.2947 13.0713 45.7661 13.188 46.2887 13.188C46.7274 13.188 47.1334 13.0993 47.5067 12.922C47.8801 12.7447 48.1927 12.474 48.4447 12.11L49.1867 12.614C48.8974 13.09 48.5007 13.454 47.9967 13.706C47.4927 13.9487 46.9281 14.07 46.3027 14.07ZM55.7454 14V12.376L55.7034 12.11V9.394C55.7034 8.76867 55.5261 8.288 55.1714 7.952C54.8261 7.616 54.3081 7.448 53.6174 7.448C53.1414 7.448 52.6887 7.52733 52.2594 7.686C51.8301 7.84467 51.4661 8.05467 51.1674 8.316L50.7194 7.574C51.0927 7.25667 51.5407 7.014 52.0634 6.846C52.5861 6.66867 53.1367 6.58 53.7154 6.58C54.6674 6.58 55.4001 6.818 55.9134 7.294C56.4361 7.76067 56.6974 8.47467 56.6974 9.436V14H55.7454ZM53.2114 14.07C52.6607 14.07 52.1801 13.9813 51.7694 13.804C51.3681 13.6173 51.0601 13.3653 50.8454 13.048C50.6307 12.7213 50.5234 12.348 50.5234 11.928C50.5234 11.5453 50.6121 11.2 50.7894 10.892C50.9761 10.5747 51.2747 10.3227 51.6854 10.136C52.1054 9.94 52.6654 9.842 53.3654 9.842H55.8994V10.584H53.3934C52.6841 10.584 52.1894 10.71 51.9094 10.962C51.6387 11.214 51.5034 11.5267 51.5034 11.9C51.5034 12.32 51.6667 12.656 51.9934 12.908C52.3201 13.16 52.7774 13.286 53.3654 13.286C53.9254 13.286 54.4061 13.16 54.8074 12.908C55.2181 12.6467 55.5167 12.2733 55.7034 11.788L55.9274 12.474C55.7407 12.9593 55.4141 13.3467 54.9474 13.636C54.4901 13.9253 53.9114 14.07 53.2114 14.07ZM63.1912 14.07C62.5565 14.07 61.9825 13.9253 61.4692 13.636C60.9559 13.3373 60.5452 12.9127 60.2372 12.362C59.9385 11.802 59.7892 11.1207 59.7892 10.318C59.7892 9.51533 59.9385 8.83867 60.2372 8.288C60.5359 7.728 60.9419 7.30333 61.4552 7.014C61.9685 6.72467 62.5472 6.58 63.1912 6.58C63.8912 6.58 64.5165 6.73867 65.0672 7.056C65.6272 7.364 66.0659 7.80267 66.3832 8.372C66.7005 8.932 66.8592 9.58067 66.8592 10.318C66.8592 11.0647 66.7005 11.718 66.3832 12.278C66.0659 12.838 65.6272 13.2767 65.0672 13.594C64.5165 13.9113 63.8912 14.07 63.1912 14.07ZM59.3972 16.716V6.65H60.3492V8.862L60.2512 10.332L60.3912 11.816V16.716H59.3972ZM63.1212 13.188C63.6439 13.188 64.1105 13.0713 64.5212 12.838C64.9319 12.5953 65.2585 12.2593 65.5012 11.83C65.7439 11.3913 65.8652 10.8873 65.8652 10.318C65.8652 9.74867 65.7439 9.24933 65.5012 8.82C65.2585 8.39067 64.9319 8.05467 64.5212 7.812C64.1105 7.56933 63.6439 7.448 63.1212 7.448C62.5985 7.448 62.1272 7.56933 61.7072 7.812C61.2965 8.05467 60.9699 8.39067 60.7272 8.82C60.4939 9.24933 60.3772 9.74867 60.3772 10.318C60.3772 10.8873 60.4939 11.3913 60.7272 11.83C60.9699 12.2593 61.2965 12.5953 61.7072 12.838C62.1272 13.0713 62.5985 13.188 63.1212 13.188ZM73.4505 14V12.376L73.4085 12.11V9.394C73.4085 8.76867 73.2311 8.288 72.8765 7.952C72.5311 7.616 72.0131 7.448 71.3225 7.448C70.8465 7.448 70.3938 7.52733 69.9645 7.686C69.5351 7.84467 69.1711 8.05467 68.8725 8.316L68.4245 7.574C68.7978 7.25667 69.2458 7.014 69.7685 6.846C70.2911 6.66867 70.8418 6.58 71.4205 6.58C72.3725 6.58 73.1051 6.818 73.6185 7.294C74.1411 7.76067 74.4025 8.47467 74.4025 9.436V14H73.4505ZM70.9165 14.07C70.3658 14.07 69.8851 13.9813 69.4745 13.804C69.0731 13.6173 68.7651 13.3653 68.5505 13.048C68.3358 12.7213 68.2285 12.348 68.2285 11.928C68.2285 11.5453 68.3171 11.2 68.4945 10.892C68.6811 10.5747 68.9798 10.3227 69.3905 10.136C69.8105 9.94 70.3705 9.842 71.0705 9.842H73.6045V10.584H71.0985C70.3891 10.584 69.8945 10.71 69.6145 10.962C69.3438 11.214 69.2085 11.5267 69.2085 11.9C69.2085 12.32 69.3718 12.656 69.6985 12.908C70.0251 13.16 70.4825 13.286 71.0705 13.286C71.6305 13.286 72.1111 13.16 72.5125 12.908C72.9231 12.6467 73.2218 12.2733 73.4085 11.788L73.6325 12.474C73.4458 12.9593 73.1191 13.3467 72.6525 13.636C72.1951 13.9253 71.6165 14.07 70.9165 14.07ZM80.1543 14.07C79.4263 14.07 78.773 13.9113 78.1943 13.594C77.625 13.2673 77.177 12.824 76.8503 12.264C76.5236 11.6947 76.3603 11.046 76.3603 10.318C76.3603 9.58067 76.5236 8.932 76.8503 8.372C77.177 7.812 77.625 7.37333 78.1943 7.056C78.773 6.73867 79.4263 6.58 80.1543 6.58C80.7796 6.58 81.3443 6.70133 81.8483 6.944C82.3523 7.18667 82.749 7.55067 83.0383 8.036L82.2963 8.54C82.0443 8.16667 81.7316 7.89133 81.3583 7.714C80.985 7.53667 80.579 7.448 80.1403 7.448C79.6176 7.448 79.1463 7.56933 78.7263 7.812C78.3063 8.04533 77.975 8.37667 77.7323 8.806C77.4896 9.23533 77.3683 9.73933 77.3683 10.318C77.3683 10.8967 77.4896 11.4007 77.7323 11.83C77.975 12.2593 78.3063 12.5953 78.7263 12.838C79.1463 13.0713 79.6176 13.188 80.1403 13.188C80.579 13.188 80.985 13.0993 81.3583 12.922C81.7316 12.7447 82.0443 12.474 82.2963 12.11L83.0383 12.614C82.749 13.09 82.3523 13.454 81.8483 13.706C81.3443 13.9487 80.7796 14.07 80.1543 14.07ZM84.8816 14V6.65H85.8756V14H84.8816ZM85.3856 5.026C85.1803 5.026 85.0076 4.956 84.8676 4.816C84.7276 4.676 84.6576 4.508 84.6576 4.312C84.6576 4.116 84.7276 3.95267 84.8676 3.822C85.0076 3.682 85.1803 3.612 85.3856 3.612C85.5909 3.612 85.7636 3.67733 85.9036 3.808C86.0436 3.93867 86.1136 4.102 86.1136 4.298C86.1136 4.50333 86.0436 4.676 85.9036 4.816C85.7729 4.956 85.6003 5.026 85.3856 5.026ZM90.9654 14.07C90.2747 14.07 89.7427 13.8833 89.3694 13.51C88.996 13.1367 88.8094 12.6093 88.8094 11.928V5.026H89.8034V11.872C89.8034 12.3013 89.9107 12.6327 90.1254 12.866C90.3494 13.0993 90.6667 13.216 91.0774 13.216C91.516 13.216 91.88 13.09 92.1694 12.838L92.5194 13.552C92.3234 13.7293 92.0854 13.86 91.8054 13.944C91.5347 14.028 91.2547 14.07 90.9654 14.07ZM87.4934 7.476V6.65H92.0434V7.476H87.4934ZM94.2481 16.786C93.9028 16.786 93.5715 16.73 93.2541 16.618C92.9461 16.506 92.6801 16.338 92.4561 16.114L92.9181 15.372C93.1048 15.5493 93.3055 15.6847 93.5201 15.778C93.7441 15.8807 93.9915 15.932 94.2621 15.932C94.5888 15.932 94.8688 15.8387 95.1021 15.652C95.3448 15.4747 95.5735 15.1573 95.7881 14.7L96.2641 13.622L96.3761 13.468L99.4001 6.65H100.38L96.6981 14.882C96.4928 15.358 96.2641 15.736 96.0121 16.016C95.7695 16.296 95.5035 16.492 95.2141 16.604C94.9248 16.7253 94.6028 16.786 94.2481 16.786ZM96.2081 14.21L92.8201 6.65H93.8561L96.8521 13.398L96.2081 14.21ZM107.768 14.07C107.077 14.07 106.545 13.8833 106.172 13.51C105.799 13.1367 105.612 12.6093 105.612 11.928V5.026H106.606V11.872C106.606 12.3013 106.713 12.6327 106.928 12.866C107.152 13.0993 107.469 13.216 107.88 13.216C108.319 13.216 108.683 13.09 108.972 12.838L109.322 13.552C109.126 13.7293 108.888 13.86 108.608 13.944C108.337 14.028 108.057 14.07 107.768 14.07ZM104.296 7.476V6.65H108.846V7.476H104.296ZM115.738 14V12.376L115.696 12.11V9.394C115.696 8.76867 115.518 8.288 115.164 7.952C114.818 7.616 114.3 7.448 113.61 7.448C113.134 7.448 112.681 7.52733 112.252 7.686C111.822 7.84467 111.458 8.05467 111.16 8.316L110.712 7.574C111.085 7.25667 111.533 7.014 112.056 6.846C112.578 6.66867 113.129 6.58 113.708 6.58C114.66 6.58 115.392 6.818 115.906 7.294C116.428 7.76067 116.69 8.47467 116.69 9.436V14H115.738ZM113.204 14.07C112.653 14.07 112.172 13.9813 111.762 13.804C111.36 13.6173 111.052 13.3653 110.838 13.048C110.623 12.7213 110.516 12.348 110.516 11.928C110.516 11.5453 110.604 11.2 110.782 10.892C110.968 10.5747 111.267 10.3227 111.678 10.136C112.098 9.94 112.658 9.842 113.358 9.842H115.892V10.584H113.386C112.676 10.584 112.182 10.71 111.902 10.962C111.631 11.214 111.496 11.5267 111.496 11.9C111.496 12.32 111.659 12.656 111.986 12.908C112.312 13.16 112.77 13.286 113.358 13.286C113.918 13.286 114.398 13.16 114.8 12.908C115.21 12.6467 115.509 12.2733 115.696 11.788L115.92 12.474C115.733 12.9593 115.406 13.3467 114.94 13.636C114.482 13.9253 113.904 14.07 113.204 14.07ZM128.573 6.58C129.171 6.58 129.689 6.69667 130.127 6.93C130.575 7.154 130.921 7.49933 131.163 7.966C131.415 8.43267 131.541 9.02067 131.541 9.73V14H130.547V9.828C130.547 9.05333 130.361 8.47 129.987 8.078C129.623 7.67667 129.105 7.476 128.433 7.476C127.929 7.476 127.491 7.58333 127.117 7.798C126.753 8.00333 126.469 8.30667 126.263 8.708C126.067 9.1 125.969 9.576 125.969 10.136V14H124.975V9.828C124.975 9.05333 124.789 8.47 124.415 8.078C124.042 7.67667 123.519 7.476 122.847 7.476C122.353 7.476 121.919 7.58333 121.545 7.798C121.172 8.00333 120.883 8.30667 120.677 8.708C120.481 9.1 120.383 9.576 120.383 10.136V14H119.389V6.65H120.341V8.638L120.187 8.288C120.411 7.756 120.771 7.34067 121.265 7.042C121.769 6.734 122.362 6.58 123.043 6.58C123.762 6.58 124.373 6.762 124.877 7.126C125.381 7.48067 125.708 8.01733 125.857 8.736L125.465 8.582C125.68 7.98467 126.058 7.504 126.599 7.14C127.15 6.76667 127.808 6.58 128.573 6.58ZM138.031 14.07C137.396 14.07 136.822 13.9253 136.309 13.636C135.796 13.3373 135.385 12.9127 135.077 12.362C134.778 11.802 134.629 11.1207 134.629 10.318C134.629 9.51533 134.778 8.83867 135.077 8.288C135.376 7.728 135.782 7.30333 136.295 7.014C136.808 6.72467 137.387 6.58 138.031 6.58C138.731 6.58 139.356 6.73867 139.907 7.056C140.467 7.364 140.906 7.80267 141.223 8.372C141.54 8.932 141.699 9.58067 141.699 10.318C141.699 11.0647 141.54 11.718 141.223 12.278C140.906 12.838 140.467 13.2767 139.907 13.594C139.356 13.9113 138.731 14.07 138.031 14.07ZM134.237 16.716V6.65H135.189V8.862L135.091 10.332L135.231 11.816V16.716H134.237ZM137.961 13.188C138.484 13.188 138.95 13.0713 139.361 12.838C139.772 12.5953 140.098 12.2593 140.341 11.83C140.584 11.3913 140.705 10.8873 140.705 10.318C140.705 9.74867 140.584 9.24933 140.341 8.82C140.098 8.39067 139.772 8.05467 139.361 7.812C138.95 7.56933 138.484 7.448 137.961 7.448C137.438 7.448 136.967 7.56933 136.547 7.812C136.136 8.05467 135.81 8.39067 135.567 8.82C135.334 9.24933 135.217 9.74867 135.217 10.318C135.217 10.8873 135.334 11.3913 135.567 11.83C135.81 12.2593 136.136 12.5953 136.547 12.838C136.967 13.0713 137.438 13.188 137.961 13.188ZM146.847 14.07C146.082 14.07 145.41 13.9113 144.831 13.594C144.253 13.2673 143.8 12.824 143.473 12.264C143.147 11.6947 142.983 11.046 142.983 10.318C142.983 9.59 143.137 8.946 143.445 8.386C143.763 7.826 144.192 7.38733 144.733 7.07C145.284 6.74333 145.9 6.58 146.581 6.58C147.272 6.58 147.883 6.73867 148.415 7.056C148.957 7.364 149.381 7.80267 149.689 8.372C149.997 8.932 150.151 9.58067 150.151 10.318C150.151 10.3647 150.147 10.416 150.137 10.472C150.137 10.5187 150.137 10.57 150.137 10.626H143.739V9.884H149.605L149.213 10.178C149.213 9.646 149.097 9.17467 148.863 8.764C148.639 8.344 148.331 8.01733 147.939 7.784C147.547 7.55067 147.095 7.434 146.581 7.434C146.077 7.434 145.625 7.55067 145.223 7.784C144.822 8.01733 144.509 8.344 144.285 8.764C144.061 9.184 143.949 9.66467 143.949 10.206V10.36C143.949 10.92 144.071 11.4147 144.313 11.844C144.565 12.264 144.911 12.5953 145.349 12.838C145.797 13.0713 146.306 13.188 146.875 13.188C147.323 13.188 147.739 13.1087 148.121 12.95C148.513 12.7913 148.849 12.5487 149.129 12.222L149.689 12.866C149.363 13.258 148.952 13.5567 148.457 13.762C147.972 13.9673 147.435 14.07 146.847 14.07ZM152.175 14V6.65H153.127V8.652L153.029 8.302C153.234 7.742 153.579 7.31733 154.065 7.028C154.55 6.72933 155.152 6.58 155.871 6.58V7.546C155.833 7.546 155.796 7.546 155.759 7.546C155.721 7.53667 155.684 7.532 155.647 7.532C154.872 7.532 154.265 7.77 153.827 8.246C153.388 8.71267 153.169 9.38 153.169 10.248V14H152.175ZM157.097 10.64V9.772H160.765V10.64H157.097ZM166.248 14.07C165.482 14.07 164.81 13.9113 164.232 13.594C163.653 13.2673 163.2 12.824 162.874 12.264C162.547 11.6947 162.384 11.046 162.384 10.318C162.384 9.59 162.538 8.946 162.846 8.386C163.163 7.826 163.592 7.38733 164.134 7.07C164.684 6.74333 165.3 6.58 165.982 6.58C166.672 6.58 167.284 6.73867 167.816 7.056C168.357 7.364 168.782 7.80267 169.09 8.372C169.398 8.932 169.552 9.58067 169.552 10.318C169.552 10.3647 169.547 10.416 169.538 10.472C169.538 10.5187 169.538 10.57 169.538 10.626H163.14V9.884H169.006L168.614 10.178C168.614 9.646 168.497 9.17467 168.264 8.764C168.04 8.344 167.732 8.01733 167.34 7.784C166.948 7.55067 166.495 7.434 165.982 7.434C165.478 7.434 165.025 7.55067 164.624 7.784C164.222 8.01733 163.91 8.344 163.686 8.764C163.462 9.184 163.35 9.66467 163.35 10.206V10.36C163.35 10.92 163.471 11.4147 163.714 11.844C163.966 12.264 164.311 12.5953 164.75 12.838C165.198 13.0713 165.706 13.188 166.276 13.188C166.724 13.188 167.139 13.1087 167.522 12.95C167.914 12.7913 168.25 12.5487 168.53 12.222L169.09 12.866C168.763 13.258 168.352 13.5567 167.858 13.762C167.372 13.9673 166.836 14.07 166.248 14.07ZM173.328 14L170.066 6.65H171.102L174.098 13.468H173.608L176.646 6.65H177.626L174.35 14H173.328ZM179.026 14V6.65H180.02V14H179.026ZM179.53 5.026C179.325 5.026 179.152 4.956 179.012 4.816C178.872 4.676 178.802 4.508 178.802 4.312C178.802 4.116 178.872 3.95267 179.012 3.822C179.152 3.682 179.325 3.612 179.53 3.612C179.735 3.612 179.908 3.67733 180.048 3.808C180.188 3.93867 180.258 4.102 180.258 4.298C180.258 4.50333 180.188 4.676 180.048 4.816C179.917 4.956 179.745 5.026 179.53 5.026ZM185.712 14.07C185.012 14.07 184.382 13.9113 183.822 13.594C183.271 13.2767 182.837 12.838 182.52 12.278C182.203 11.7087 182.044 11.0553 182.044 10.318C182.044 9.57133 182.203 8.918 182.52 8.358C182.837 7.798 183.271 7.364 183.822 7.056C184.382 6.73867 185.012 6.58 185.712 6.58C186.356 6.58 186.93 6.72467 187.434 7.014C187.947 7.30333 188.353 7.728 188.652 8.288C188.96 8.83867 189.114 9.51533 189.114 10.318C189.114 11.1113 188.965 11.788 188.666 12.348C188.367 12.908 187.961 13.3373 187.448 13.636C186.944 13.9253 186.365 14.07 185.712 14.07ZM185.782 13.188C186.305 13.188 186.771 13.0713 187.182 12.838C187.602 12.5953 187.929 12.2593 188.162 11.83C188.405 11.3913 188.526 10.8873 188.526 10.318C188.526 9.73933 188.405 9.23533 188.162 8.806C187.929 8.37667 187.602 8.04533 187.182 7.812C186.771 7.56933 186.305 7.448 185.782 7.448C185.269 7.448 184.807 7.56933 184.396 7.812C183.985 8.04533 183.659 8.37667 183.416 8.806C183.173 9.23533 183.052 9.73933 183.052 10.318C183.052 10.8873 183.173 11.3913 183.416 11.83C183.659 12.2593 183.985 12.5953 184.396 12.838C184.807 13.0713 185.269 13.188 185.782 13.188ZM188.554 14V11.788L188.652 10.304L188.512 8.82V3.612H189.506V14H188.554ZM195.396 14.07C194.631 14.07 193.959 13.9113 193.38 13.594C192.802 13.2673 192.349 12.824 192.022 12.264C191.696 11.6947 191.532 11.046 191.532 10.318C191.532 9.59 191.686 8.946 191.994 8.386C192.312 7.826 192.741 7.38733 193.282 7.07C193.833 6.74333 194.449 6.58 195.13 6.58C195.821 6.58 196.432 6.73867 196.964 7.056C197.506 7.364 197.93 7.80267 198.238 8.372C198.546 8.932 198.7 9.58067 198.7 10.318C198.7 10.3647 198.696 10.416 198.686 10.472C198.686 10.5187 198.686 10.57 198.686 10.626H192.288V9.884H198.154L197.762 10.178C197.762 9.646 197.646 9.17467 197.412 8.764C197.188 8.344 196.88 8.01733 196.488 7.784C196.096 7.55067 195.644 7.434 195.13 7.434C194.626 7.434 194.174 7.55067 193.772 7.784C193.371 8.01733 193.058 8.344 192.834 8.764C192.61 9.184 192.498 9.66467 192.498 10.206V10.36C192.498 10.92 192.62 11.4147 192.862 11.844C193.114 12.264 193.46 12.5953 193.898 12.838C194.346 13.0713 194.855 13.188 195.424 13.188C195.872 13.188 196.288 13.1087 196.67 12.95C197.062 12.7913 197.398 12.5487 197.678 12.222L198.238 12.866C197.912 13.258 197.501 13.5567 197.006 13.762C196.521 13.9673 195.984 14.07 195.396 14.07ZM204.475 6.58C205.073 6.58 205.595 6.69667 206.043 6.93C206.501 7.154 206.855 7.49933 207.107 7.966C207.369 8.43267 207.499 9.02067 207.499 9.73V14H206.505V9.828C206.505 9.05333 206.309 8.47 205.917 8.078C205.535 7.67667 204.993 7.476 204.293 7.476C203.771 7.476 203.313 7.58333 202.921 7.798C202.539 8.00333 202.24 8.30667 202.025 8.708C201.82 9.1 201.717 9.576 201.717 10.136V14H200.723V6.65H201.675V8.666L201.521 8.288C201.755 7.756 202.128 7.34067 202.641 7.042C203.155 6.734 203.766 6.58 204.475 6.58ZM212.508 14.07C211.818 14.07 211.286 13.8833 210.912 13.51C210.539 13.1367 210.352 12.6093 210.352 11.928V5.026H211.346V11.872C211.346 12.3013 211.454 12.6327 211.668 12.866C211.892 13.0993 212.21 13.216 212.62 13.216C213.059 13.216 213.423 13.09 213.712 12.838L214.062 13.552C213.866 13.7293 213.628 13.86 213.348 13.944C213.078 14.028 212.798 14.07 212.508 14.07ZM209.036 7.476V6.65H213.586V7.476H209.036ZM223.33 14.07C222.686 14.07 222.107 13.9253 221.594 13.636C221.081 13.3373 220.675 12.908 220.376 12.348C220.077 11.788 219.928 11.1113 219.928 10.318C219.928 9.51533 220.077 8.83867 220.376 8.288C220.684 7.728 221.095 7.30333 221.608 7.014C222.121 6.72467 222.695 6.58 223.33 6.58C224.03 6.58 224.655 6.73867 225.206 7.056C225.766 7.364 226.205 7.798 226.522 8.358C226.839 8.918 226.998 9.57133 226.998 10.318C226.998 11.0553 226.839 11.7087 226.522 12.278C226.205 12.838 225.766 13.2767 225.206 13.594C224.655 13.9113 224.03 14.07 223.33 14.07ZM219.536 14V3.612H220.53V8.82L220.39 10.304L220.488 11.788V14H219.536ZM223.26 13.188C223.783 13.188 224.249 13.0713 224.66 12.838C225.071 12.5953 225.397 12.2593 225.64 11.83C225.883 11.3913 226.004 10.8873 226.004 10.318C226.004 9.73933 225.883 9.23533 225.64 8.806C225.397 8.37667 225.071 8.04533 224.66 7.812C224.249 7.56933 223.783 7.448 223.26 7.448C222.737 7.448 222.266 7.56933 221.846 7.812C221.435 8.04533 221.109 8.37667 220.866 8.806C220.633 9.23533 220.516 9.73933 220.516 10.318C220.516 10.8873 220.633 11.3913 220.866 11.83C221.109 12.2593 221.435 12.5953 221.846 12.838C222.266 13.0713 222.737 13.188 223.26 13.188ZM232.02 14.07C231.311 14.07 230.672 13.9113 230.102 13.594C229.542 13.2673 229.099 12.824 228.772 12.264C228.446 11.6947 228.282 11.046 228.282 10.318C228.282 9.58067 228.446 8.932 228.772 8.372C229.099 7.812 229.542 7.37333 230.102 7.056C230.662 6.73867 231.302 6.58 232.02 6.58C232.748 6.58 233.392 6.73867 233.952 7.056C234.522 7.37333 234.965 7.812 235.282 8.372C235.609 8.932 235.772 9.58067 235.772 10.318C235.772 11.046 235.609 11.6947 235.282 12.264C234.965 12.824 234.522 13.2673 233.952 13.594C233.383 13.9113 232.739 14.07 232.02 14.07ZM232.02 13.188C232.552 13.188 233.024 13.0713 233.434 12.838C233.845 12.5953 234.167 12.2593 234.4 11.83C234.643 11.3913 234.764 10.8873 234.764 10.318C234.764 9.73933 234.643 9.23533 234.4 8.806C234.167 8.37667 233.845 8.04533 233.434 7.812C233.024 7.56933 232.557 7.448 232.034 7.448C231.512 7.448 231.045 7.56933 230.634 7.812C230.224 8.04533 229.897 8.37667 229.654 8.806C229.412 9.23533 229.29 9.73933 229.29 10.318C229.29 10.8873 229.412 11.3913 229.654 11.83C229.897 12.2593 230.224 12.5953 230.634 12.838C231.045 13.0713 231.507 13.188 232.02 13.188ZM236.422 14L239.53 9.968L239.516 10.458L236.562 6.65H237.682L240.104 9.8L239.684 9.786L242.106 6.65H243.198L240.216 10.5L240.23 9.968L243.366 14H242.232L239.67 10.64L240.062 10.696L237.542 14H236.422ZM248.852 14V5.726C248.852 5.07267 249.044 4.54533 249.426 4.144C249.809 3.74267 250.36 3.542 251.078 3.542C251.358 3.542 251.629 3.57933 251.89 3.654C252.152 3.72867 252.371 3.84533 252.548 4.004L252.212 4.746C252.072 4.62467 251.909 4.536 251.722 4.48C251.536 4.41467 251.335 4.382 251.12 4.382C250.7 4.382 250.378 4.49867 250.154 4.732C249.93 4.96533 249.818 5.31067 249.818 5.768V6.888L249.846 7.35V14H248.852ZM247.536 7.476V6.65H252.086V7.476H247.536ZM256.301 14.07C255.592 14.07 254.953 13.9113 254.383 13.594C253.823 13.2673 253.38 12.824 253.053 12.264C252.727 11.6947 252.563 11.046 252.563 10.318C252.563 9.58067 252.727 8.932 253.053 8.372C253.38 7.812 253.823 7.37333 254.383 7.056C254.943 6.73867 255.583 6.58 256.301 6.58C257.029 6.58 257.673 6.73867 258.233 7.056C258.803 7.37333 259.246 7.812 259.563 8.372C259.89 8.932 260.053 9.58067 260.053 10.318C260.053 11.046 259.89 11.6947 259.563 12.264C259.246 12.824 258.803 13.2673 258.233 13.594C257.664 13.9113 257.02 14.07 256.301 14.07ZM256.301 13.188C256.833 13.188 257.305 13.0713 257.715 12.838C258.126 12.5953 258.448 12.2593 258.681 11.83C258.924 11.3913 259.045 10.8873 259.045 10.318C259.045 9.73933 258.924 9.23533 258.681 8.806C258.448 8.37667 258.126 8.04533 257.715 7.812C257.305 7.56933 256.838 7.448 256.315 7.448C255.793 7.448 255.326 7.56933 254.915 7.812C254.505 8.04533 254.178 8.37667 253.935 8.806C253.693 9.23533 253.571 9.73933 253.571 10.318C253.571 10.8873 253.693 11.3913 253.935 11.83C254.178 12.2593 254.505 12.5953 254.915 12.838C255.326 13.0713 255.788 13.188 256.301 13.188ZM262.083 14V6.65H263.035V8.652L262.937 8.302C263.142 7.742 263.487 7.31733 263.973 7.028C264.458 6.72933 265.06 6.58 265.779 6.58V7.546C265.741 7.546 265.704 7.546 265.667 7.546C265.629 7.53667 265.592 7.532 265.555 7.532C264.78 7.532 264.173 7.77 263.735 8.246C263.296 8.71267 263.077 9.38 263.077 10.248V14H262.083ZM273.382 14.084C272.766 14.084 272.178 14 271.618 13.832C271.067 13.664 270.633 13.4587 270.316 13.216L270.876 12.152C271.193 12.3667 271.585 12.5487 272.052 12.698C272.519 12.8473 272.995 12.922 273.48 12.922C274.105 12.922 274.553 12.8333 274.824 12.656C275.104 12.4787 275.244 12.2313 275.244 11.914C275.244 11.6807 275.16 11.4987 274.992 11.368C274.824 11.2373 274.6 11.1393 274.32 11.074C274.049 11.0087 273.746 10.9527 273.41 10.906C273.074 10.85 272.738 10.7847 272.402 10.71C272.066 10.626 271.758 10.514 271.478 10.374C271.198 10.2247 270.974 10.024 270.806 9.772C270.638 9.51067 270.554 9.16533 270.554 8.736C270.554 8.288 270.68 7.896 270.932 7.56C271.184 7.224 271.539 6.96733 271.996 6.79C272.463 6.60333 273.013 6.51 273.648 6.51C274.133 6.51 274.623 6.57067 275.118 6.692C275.622 6.804 276.033 6.96733 276.35 7.182L275.776 8.246C275.44 8.022 275.09 7.868 274.726 7.784C274.362 7.7 273.998 7.658 273.634 7.658C273.046 7.658 272.607 7.756 272.318 7.952C272.029 8.13867 271.884 8.38133 271.884 8.68C271.884 8.932 271.968 9.128 272.136 9.268C272.313 9.39867 272.537 9.50133 272.808 9.576C273.088 9.65067 273.396 9.716 273.732 9.772C274.068 9.81867 274.404 9.884 274.74 9.968C275.076 10.0427 275.379 10.15 275.65 10.29C275.93 10.43 276.154 10.626 276.322 10.878C276.499 11.13 276.588 11.466 276.588 11.886C276.588 12.334 276.457 12.7213 276.196 13.048C275.935 13.3747 275.566 13.6313 275.09 13.818C274.614 13.9953 274.045 14.084 273.382 14.084ZM281.572 14.084C280.778 14.084 280.078 13.9207 279.472 13.594C278.874 13.2673 278.408 12.8193 278.072 12.25C277.745 11.6807 277.582 11.0273 277.582 10.29C277.582 9.55267 277.74 8.89933 278.058 8.33C278.384 7.76067 278.828 7.31733 279.388 7C279.957 6.67333 280.596 6.51 281.306 6.51C282.024 6.51 282.659 6.66867 283.21 6.986C283.76 7.30333 284.19 7.75133 284.498 8.33C284.815 8.89933 284.974 9.56667 284.974 10.332C284.974 10.388 284.969 10.4533 284.96 10.528C284.96 10.6027 284.955 10.6727 284.946 10.738H278.632V9.772H284.246L283.7 10.108C283.709 9.632 283.611 9.20733 283.406 8.834C283.2 8.46067 282.916 8.17133 282.552 7.966C282.197 7.75133 281.782 7.644 281.306 7.644C280.839 7.644 280.424 7.75133 280.06 7.966C279.696 8.17133 279.411 8.46533 279.206 8.848C279 9.22133 278.898 9.65067 278.898 10.136V10.36C278.898 10.8547 279.01 11.298 279.234 11.69C279.467 12.0727 279.789 12.3713 280.2 12.586C280.61 12.8007 281.082 12.908 281.614 12.908C282.052 12.908 282.449 12.8333 282.804 12.684C283.168 12.5347 283.485 12.3107 283.756 12.012L284.498 12.88C284.162 13.272 283.742 13.5707 283.238 13.776C282.743 13.9813 282.188 14.084 281.572 14.084ZM290.074 14.084C289.318 14.084 288.641 13.9207 288.044 13.594C287.456 13.2673 286.994 12.8193 286.658 12.25C286.322 11.6807 286.154 11.0273 286.154 10.29C286.154 9.55267 286.322 8.89933 286.658 8.33C286.994 7.76067 287.456 7.31733 288.044 7C288.641 6.67333 289.318 6.51 290.074 6.51C290.746 6.51 291.343 6.64533 291.866 6.916C292.398 7.17733 292.809 7.56933 293.098 8.092L292.076 8.75C291.833 8.386 291.535 8.12 291.18 7.952C290.835 7.77467 290.461 7.686 290.06 7.686C289.575 7.686 289.141 7.79333 288.758 8.008C288.375 8.22267 288.072 8.526 287.848 8.918C287.624 9.30067 287.512 9.758 287.512 10.29C287.512 10.822 287.624 11.284 287.848 11.676C288.072 12.068 288.375 12.3713 288.758 12.586C289.141 12.8007 289.575 12.908 290.06 12.908C290.461 12.908 290.835 12.824 291.18 12.656C291.535 12.4787 291.833 12.208 292.076 11.844L293.098 12.488C292.809 13.0013 292.398 13.398 291.866 13.678C291.343 13.9487 290.746 14.084 290.074 14.084ZM297.96 14.084C297.325 14.084 296.765 13.9673 296.28 13.734C295.804 13.5007 295.431 13.146 295.16 12.67C294.899 12.1847 294.768 11.578 294.768 10.85V6.58H296.112V10.696C296.112 11.424 296.285 11.97 296.63 12.334C296.985 12.698 297.479 12.88 298.114 12.88C298.581 12.88 298.987 12.7867 299.332 12.6C299.677 12.404 299.943 12.124 300.13 11.76C300.317 11.3867 300.41 10.9387 300.41 10.416V6.58H301.754V14H300.48V11.998L300.69 12.53C300.447 13.0247 300.083 13.4073 299.598 13.678C299.113 13.9487 298.567 14.084 297.96 14.084ZM304.313 14V6.58H305.601V8.596L305.475 8.092C305.68 7.57867 306.025 7.18667 306.511 6.916C306.996 6.64533 307.593 6.51 308.303 6.51V7.812C308.247 7.80267 308.191 7.798 308.135 7.798C308.088 7.798 308.041 7.798 307.995 7.798C307.276 7.798 306.707 8.01267 306.287 8.442C305.867 8.87133 305.657 9.492 305.657 10.304V14H304.313ZM313.195 14.084C312.401 14.084 311.701 13.9207 311.095 13.594C310.497 13.2673 310.031 12.8193 309.695 12.25C309.368 11.6807 309.205 11.0273 309.205 10.29C309.205 9.55267 309.363 8.89933 309.681 8.33C310.007 7.76067 310.451 7.31733 311.011 7C311.58 6.67333 312.219 6.51 312.929 6.51C313.647 6.51 314.282 6.66867 314.833 6.986C315.383 7.30333 315.813 7.75133 316.121 8.33C316.438 8.89933 316.597 9.56667 316.597 10.332C316.597 10.388 316.592 10.4533 316.583 10.528C316.583 10.6027 316.578 10.6727 316.569 10.738H310.255V9.772H315.869L315.323 10.108C315.332 9.632 315.234 9.20733 315.029 8.834C314.823 8.46067 314.539 8.17133 314.175 7.966C313.82 7.75133 313.405 7.644 312.929 7.644C312.462 7.644 312.047 7.75133 311.683 7.966C311.319 8.17133 311.034 8.46533 310.829 8.848C310.623 9.22133 310.521 9.65067 310.521 10.136V10.36C310.521 10.8547 310.633 11.298 310.857 11.69C311.09 12.0727 311.412 12.3713 311.823 12.586C312.233 12.8007 312.705 12.908 313.237 12.908C313.675 12.908 314.072 12.8333 314.427 12.684C314.791 12.5347 315.108 12.3107 315.379 12.012L316.121 12.88C315.785 13.272 315.365 13.5707 314.861 13.776C314.366 13.9813 313.811 14.084 313.195 14.084ZM23.1251 33.084C22.5091 33.084 21.9211 33 21.3611 32.832C20.8105 32.664 20.3765 32.4587 20.0591 32.216L20.6191 31.152C20.9365 31.3667 21.3285 31.5487 21.7951 31.698C22.2618 31.8473 22.7378 31.922 23.2231 31.922C23.8485 31.922 24.2965 31.8333 24.5671 31.656C24.8471 31.4787 24.9871 31.2313 24.9871 30.914C24.9871 30.6807 24.9031 30.4987 24.7351 30.368C24.5671 30.2373 24.3431 30.1393 24.0631 30.074C23.7925 30.0087 23.4891 29.9527 23.1531 29.906C22.8171 29.85 22.4811 29.7847 22.1451 29.71C21.8091 29.626 21.5011 29.514 21.2211 29.374C20.9411 29.2247 20.7171 29.024 20.5491 28.772C20.3811 28.5107 20.2971 28.1653 20.2971 27.736C20.2971 27.288 20.4231 26.896 20.6751 26.56C20.9271 26.224 21.2818 25.9673 21.7391 25.79C22.2058 25.6033 22.7565 25.51 23.3911 25.51C23.8765 25.51 24.3665 25.5707 24.8611 25.692C25.3651 25.804 25.7758 25.9673 26.0931 26.182L25.5191 27.246C25.1831 27.022 24.8331 26.868 24.4691 26.784C24.1051 26.7 23.7411 26.658 23.3771 26.658C22.7891 26.658 22.3505 26.756 22.0611 26.952C21.7718 27.1387 21.6271 27.3813 21.6271 27.68C21.6271 27.932 21.7111 28.128 21.8791 28.268C22.0565 28.3987 22.2805 28.5013 22.5511 28.576C22.8311 28.6507 23.1391 28.716 23.4751 28.772C23.8111 28.8187 24.1471 28.884 24.4831 28.968C24.8191 29.0427 25.1225 29.15 25.3931 29.29C25.6731 29.43 25.8971 29.626 26.0651 29.878C26.2425 30.13 26.3311 30.466 26.3311 30.886C26.3311 31.334 26.2005 31.7213 25.9391 32.048C25.6778 32.3747 25.3091 32.6313 24.8331 32.818C24.3571 32.9953 23.7878 33.084 23.1251 33.084ZM37.2928 25.51C37.8901 25.51 38.4175 25.6267 38.8748 25.86C39.3321 26.0933 39.6868 26.448 39.9388 26.924C40.2001 27.4 40.3308 28.002 40.3308 28.73V33H38.9868V28.884C38.9868 28.1653 38.8188 27.624 38.4828 27.26C38.1468 26.896 37.6755 26.714 37.0688 26.714C36.6208 26.714 36.2288 26.8073 35.8928 26.994C35.5568 27.1807 35.2955 27.456 35.1088 27.82C34.9315 28.184 34.8428 28.6367 34.8428 29.178V33H33.4988V28.884C33.4988 28.1653 33.3308 27.624 32.9948 27.26C32.6681 26.896 32.1968 26.714 31.5808 26.714C31.1421 26.714 30.7548 26.8073 30.4188 26.994C30.0828 27.1807 29.8215 27.456 29.6348 27.82C29.4481 28.184 29.3548 28.6367 29.3548 29.178V33H28.0108V25.58H29.2988V27.554L29.0888 27.05C29.3221 26.5647 29.6815 26.1867 30.1668 25.916C30.6521 25.6453 31.2168 25.51 31.8608 25.51C32.5701 25.51 33.1815 25.6873 33.6948 26.042C34.2081 26.3873 34.5441 26.9147 34.7028 27.624L34.1568 27.4C34.3808 26.8307 34.7728 26.3733 35.3328 26.028C35.8928 25.6827 36.5461 25.51 37.2928 25.51ZM47.4098 33V31.432L47.3398 31.138V28.464C47.3398 27.8947 47.1718 27.456 46.8358 27.148C46.5091 26.8307 46.0144 26.672 45.3518 26.672C44.9131 26.672 44.4838 26.7467 44.0638 26.896C43.6438 27.036 43.2891 27.2273 42.9998 27.47L42.4398 26.462C42.8224 26.154 43.2798 25.9207 43.8118 25.762C44.3531 25.594 44.9178 25.51 45.5058 25.51C46.5231 25.51 47.3071 25.7573 47.8578 26.252C48.4084 26.7467 48.6838 27.5027 48.6838 28.52V33H47.4098ZM44.9738 33.084C44.4231 33.084 43.9378 32.9907 43.5178 32.804C43.1071 32.6173 42.7898 32.3607 42.5658 32.034C42.3418 31.698 42.2298 31.32 42.2298 30.9C42.2298 30.4987 42.3231 30.1347 42.5098 29.808C42.7058 29.4813 43.0184 29.22 43.4478 29.024C43.8864 28.828 44.4744 28.73 45.2118 28.73H47.5638V29.696H45.2678C44.5958 29.696 44.1431 29.808 43.9098 30.032C43.6764 30.256 43.5598 30.5267 43.5598 30.844C43.5598 31.208 43.7044 31.502 43.9938 31.726C44.2831 31.9407 44.6844 32.048 45.1978 32.048C45.7018 32.048 46.1404 31.936 46.5138 31.712C46.8964 31.488 47.1718 31.1613 47.3398 30.732L47.6058 31.656C47.4284 32.0947 47.1158 32.4447 46.6678 32.706C46.2198 32.958 45.6551 33.084 44.9738 33.084ZM51.171 33V22.612H52.515V33H51.171ZM55.0811 33V22.612H56.4251V33H55.0811ZM58.5153 29.738V28.576H62.2813V29.738H58.5153ZM68.2846 33.084C67.65 33.084 67.076 32.944 66.5626 32.664C66.0586 32.3747 65.6573 31.95 65.3586 31.39C65.0693 30.83 64.9246 30.13 64.9246 29.29C64.9246 28.45 65.074 27.75 65.3726 27.19C65.6806 26.63 66.0866 26.21 66.5906 25.93C67.104 25.65 67.6686 25.51 68.2846 25.51C69.0126 25.51 69.6566 25.6687 70.2166 25.986C70.7766 26.3033 71.22 26.7467 71.5466 27.316C71.8733 27.876 72.0366 28.534 72.0366 29.29C72.0366 30.046 71.8733 30.7087 71.5466 31.278C71.22 31.8473 70.7766 32.2907 70.2166 32.608C69.6566 32.9253 69.0126 33.084 68.2846 33.084ZM64.3506 33V22.612H65.6946V27.554L65.5546 29.276L65.6386 30.998V33H64.3506ZM68.1726 31.908C68.6486 31.908 69.0733 31.8007 69.4466 31.586C69.8293 31.3713 70.128 31.068 70.3426 30.676C70.5666 30.2747 70.6786 29.8127 70.6786 29.29C70.6786 28.758 70.5666 28.3007 70.3426 27.918C70.128 27.526 69.8293 27.2227 69.4466 27.008C69.0733 26.7933 68.6486 26.686 68.1726 26.686C67.706 26.686 67.2813 26.7933 66.8986 27.008C66.5253 27.2227 66.2266 27.526 66.0026 27.918C65.788 28.3007 65.6806 28.758 65.6806 29.29C65.6806 29.8127 65.788 30.2747 66.0026 30.676C66.2266 31.068 66.5253 31.3713 66.8986 31.586C67.2813 31.8007 67.706 31.908 68.1726 31.908ZM78.4313 33V31.432L78.3613 31.138V28.464C78.3613 27.8947 78.1933 27.456 77.8573 27.148C77.5306 26.8307 77.0359 26.672 76.3733 26.672C75.9346 26.672 75.5053 26.7467 75.0853 26.896C74.6653 27.036 74.3106 27.2273 74.0213 27.47L73.4613 26.462C73.8439 26.154 74.3013 25.9207 74.8333 25.762C75.3746 25.594 75.9393 25.51 76.5273 25.51C77.5446 25.51 78.3286 25.7573 78.8793 26.252C79.4299 26.7467 79.7053 27.5027 79.7053 28.52V33H78.4313ZM75.9953 33.084C75.4446 33.084 74.9593 32.9907 74.5393 32.804C74.1286 32.6173 73.8113 32.3607 73.5873 32.034C73.3633 31.698 73.2513 31.32 73.2513 30.9C73.2513 30.4987 73.3446 30.1347 73.5313 29.808C73.7273 29.4813 74.0399 29.22 74.4693 29.024C74.9079 28.828 75.4959 28.73 76.2333 28.73H78.5853V29.696H76.2893C75.6173 29.696 75.1646 29.808 74.9313 30.032C74.6979 30.256 74.5813 30.5267 74.5813 30.844C74.5813 31.208 74.7259 31.502 75.0153 31.726C75.3046 31.9407 75.7059 32.048 76.2193 32.048C76.7233 32.048 77.1619 31.936 77.5353 31.712C77.9179 31.488 78.1933 31.1613 78.3613 30.732L78.6273 31.656C78.4499 32.0947 78.1373 32.4447 77.6893 32.706C77.2413 32.958 76.6766 33.084 75.9953 33.084ZM84.7404 33.084C83.9938 33.084 83.4151 32.8833 83.0044 32.482C82.5938 32.0807 82.3884 31.5067 82.3884 30.76V23.956H83.7324V30.704C83.7324 31.1053 83.8304 31.4133 84.0264 31.628C84.2318 31.8427 84.5211 31.95 84.8944 31.95C85.3144 31.95 85.6644 31.8333 85.9444 31.6L86.3644 32.566C86.1591 32.7433 85.9118 32.874 85.6224 32.958C85.3424 33.042 85.0484 33.084 84.7404 33.084ZM81.1284 26.686V25.58H85.8604V26.686H81.1284ZM90.9772 33.084C90.2212 33.084 89.5446 32.9207 88.9472 32.594C88.3592 32.2673 87.8972 31.8193 87.5612 31.25C87.2252 30.6807 87.0572 30.0273 87.0572 29.29C87.0572 28.5527 87.2252 27.8993 87.5612 27.33C87.8972 26.7607 88.3592 26.3173 88.9472 26C89.5446 25.6733 90.2212 25.51 90.9772 25.51C91.6492 25.51 92.2466 25.6453 92.7692 25.916C93.3012 26.1773 93.7119 26.5693 94.0012 27.092L92.9792 27.75C92.7366 27.386 92.4379 27.12 92.0832 26.952C91.7379 26.7747 91.3646 26.686 90.9632 26.686C90.4779 26.686 90.0439 26.7933 89.6612 27.008C89.2786 27.2227 88.9752 27.526 88.7512 27.918C88.5272 28.3007 88.4152 28.758 88.4152 29.29C88.4152 29.822 88.5272 30.284 88.7512 30.676C88.9752 31.068 89.2786 31.3713 89.6612 31.586C90.0439 31.8007 90.4779 31.908 90.9632 31.908C91.3646 31.908 91.7379 31.824 92.0832 31.656C92.4379 31.4787 92.7366 31.208 92.9792 30.844L94.0012 31.488C93.7119 32.0013 93.3012 32.398 92.7692 32.678C92.2466 32.9487 91.6492 33.084 90.9772 33.084ZM99.6076 25.51C100.214 25.51 100.746 25.6267 101.204 25.86C101.67 26.0933 102.034 26.448 102.296 26.924C102.557 27.4 102.688 28.002 102.688 28.73V33H101.344V28.884C101.344 28.1653 101.166 27.624 100.812 27.26C100.466 26.896 99.9762 26.714 99.3416 26.714C98.8656 26.714 98.4502 26.8073 98.0956 26.994C97.7409 27.1807 97.4656 27.456 97.2696 27.82C97.0829 28.184 96.9896 28.6367 96.9896 29.178V33H95.6456V22.612H96.9896V27.582L96.7236 27.05C96.9662 26.5647 97.3396 26.1867 97.8436 25.916C98.3476 25.6453 98.9356 25.51 99.6076 25.51ZM112.869 33.084C112.253 33.084 111.688 32.944 111.175 32.664C110.671 32.3747 110.265 31.95 109.957 31.39C109.658 30.83 109.509 30.13 109.509 29.29C109.509 28.45 109.653 27.75 109.943 27.19C110.241 26.63 110.643 26.21 111.147 25.93C111.66 25.65 112.234 25.51 112.869 25.51C113.597 25.51 114.241 25.6687 114.801 25.986C115.361 26.3033 115.804 26.7467 116.131 27.316C116.457 27.876 116.621 28.534 116.621 29.29C116.621 30.046 116.457 30.7087 116.131 31.278C115.804 31.8473 115.361 32.2907 114.801 32.608C114.241 32.9253 113.597 33.084 112.869 33.084ZM108.935 35.716V25.58H110.223V27.582L110.139 29.304L110.279 31.026V35.716H108.935ZM112.757 31.908C113.233 31.908 113.657 31.8007 114.031 31.586C114.413 31.3713 114.712 31.068 114.927 30.676C115.151 30.2747 115.263 29.8127 115.263 29.29C115.263 28.758 115.151 28.3007 114.927 27.918C114.712 27.526 114.413 27.2227 114.031 27.008C113.657 26.7933 113.233 26.686 112.757 26.686C112.29 26.686 111.865 26.7933 111.483 27.008C111.109 27.2227 110.811 27.526 110.587 27.918C110.372 28.3007 110.265 28.758 110.265 29.29C110.265 29.8127 110.372 30.2747 110.587 30.676C110.811 31.068 111.109 31.3713 111.483 31.586C111.865 31.8007 112.29 31.908 112.757 31.908ZM123.015 33V31.432L122.945 31.138V28.464C122.945 27.8947 122.777 27.456 122.441 27.148C122.115 26.8307 121.62 26.672 120.957 26.672C120.519 26.672 120.089 26.7467 119.669 26.896C119.249 27.036 118.895 27.2273 118.605 27.47L118.045 26.462C118.428 26.154 118.885 25.9207 119.417 25.762C119.959 25.594 120.523 25.51 121.111 25.51C122.129 25.51 122.913 25.7573 123.463 26.252C124.014 26.7467 124.289 27.5027 124.289 28.52V33H123.015ZM120.579 33.084C120.029 33.084 119.543 32.9907 119.123 32.804C118.713 32.6173 118.395 32.3607 118.171 32.034C117.947 31.698 117.835 31.32 117.835 30.9C117.835 30.4987 117.929 30.1347 118.115 29.808C118.311 29.4813 118.624 29.22 119.053 29.024C119.492 28.828 120.08 28.73 120.817 28.73H123.169V29.696H120.873C120.201 29.696 119.749 29.808 119.515 30.032C119.282 30.256 119.165 30.5267 119.165 30.844C119.165 31.208 119.31 31.502 119.599 31.726C119.889 31.9407 120.29 32.048 120.803 32.048C121.307 32.048 121.746 31.936 122.119 31.712C122.502 31.488 122.777 31.1613 122.945 30.732L123.211 31.656C123.034 32.0947 122.721 32.4447 122.273 32.706C121.825 32.958 121.261 33.084 120.579 33.084ZM130.01 33.084C129.254 33.084 128.578 32.9207 127.98 32.594C127.392 32.2673 126.93 31.8193 126.594 31.25C126.258 30.6807 126.09 30.0273 126.09 29.29C126.09 28.5527 126.258 27.8993 126.594 27.33C126.93 26.7607 127.392 26.3173 127.98 26C128.578 25.6733 129.254 25.51 130.01 25.51C130.682 25.51 131.28 25.6453 131.802 25.916C132.334 26.1773 132.745 26.5693 133.034 27.092L132.012 27.75C131.77 27.386 131.471 27.12 131.116 26.952C130.771 26.7747 130.398 26.686 129.996 26.686C129.511 26.686 129.077 26.7933 128.694 27.008C128.312 27.2227 128.008 27.526 127.784 27.918C127.56 28.3007 127.448 28.758 127.448 29.29C127.448 29.822 127.56 30.284 127.784 30.676C128.008 31.068 128.312 31.3713 128.694 31.586C129.077 31.8007 129.511 31.908 129.996 31.908C130.398 31.908 130.771 31.824 131.116 31.656C131.471 31.4787 131.77 31.208 132.012 30.844L133.034 31.488C132.745 32.0013 132.334 32.398 131.802 32.678C131.28 32.9487 130.682 33.084 130.01 33.084ZM135.771 31.208L135.799 29.486L140.069 25.58H141.693L138.417 28.8L137.689 29.416L135.771 31.208ZM134.679 33V22.612H136.023V33H134.679ZM140.349 33L137.437 29.388L138.305 28.31L142.001 33H140.349ZM143.306 33V25.58H144.65V33H143.306ZM143.978 24.152C143.716 24.152 143.497 24.068 143.32 23.9C143.152 23.732 143.068 23.5267 143.068 23.284C143.068 23.032 143.152 22.822 143.32 22.654C143.497 22.486 143.716 22.402 143.978 22.402C144.239 22.402 144.454 22.486 144.622 22.654C144.799 22.8127 144.888 23.0133 144.888 23.256C144.888 23.508 144.804 23.7227 144.636 23.9C144.468 24.068 144.248 24.152 143.978 24.152ZM151.178 25.51C151.785 25.51 152.317 25.6267 152.774 25.86C153.241 26.0933 153.605 26.448 153.866 26.924C154.127 27.4 154.258 28.002 154.258 28.73V33H152.914V28.884C152.914 28.1653 152.737 27.624 152.382 27.26C152.037 26.896 151.547 26.714 150.912 26.714C150.436 26.714 150.021 26.8073 149.666 26.994C149.311 27.1807 149.036 27.456 148.84 27.82C148.653 28.184 148.56 28.6367 148.56 29.178V33H147.216V25.58H148.504V27.582L148.294 27.05C148.537 26.5647 148.91 26.1867 149.414 25.916C149.918 25.6453 150.506 25.51 151.178 25.51ZM159.993 35.8C159.312 35.8 158.649 35.702 158.005 35.506C157.371 35.3193 156.853 35.0487 156.451 34.694L157.095 33.658C157.441 33.9567 157.865 34.19 158.369 34.358C158.873 34.5353 159.401 34.624 159.951 34.624C160.829 34.624 161.473 34.4187 161.883 34.008C162.294 33.5973 162.499 32.972 162.499 32.132V30.564L162.639 29.094L162.569 27.61V25.58H163.843V31.992C163.843 33.2987 163.517 34.26 162.863 34.876C162.21 35.492 161.253 35.8 159.993 35.8ZM159.825 32.692C159.107 32.692 158.463 32.5427 157.893 32.244C157.333 31.936 156.885 31.5113 156.549 30.97C156.223 30.4287 156.059 29.8033 156.059 29.094C156.059 28.3753 156.223 27.75 156.549 27.218C156.885 26.6767 157.333 26.2567 157.893 25.958C158.463 25.6593 159.107 25.51 159.825 25.51C160.46 25.51 161.039 25.6407 161.561 25.902C162.084 26.154 162.499 26.546 162.807 27.078C163.125 27.61 163.283 28.282 163.283 29.094C163.283 29.8967 163.125 30.564 162.807 31.096C162.499 31.628 162.084 32.0293 161.561 32.3C161.039 32.5613 160.46 32.692 159.825 32.692ZM159.979 31.516C160.474 31.516 160.913 31.4133 161.295 31.208C161.678 31.0027 161.977 30.718 162.191 30.354C162.415 29.99 162.527 29.57 162.527 29.094C162.527 28.618 162.415 28.198 162.191 27.834C161.977 27.47 161.678 27.19 161.295 26.994C160.913 26.7887 160.474 26.686 159.979 26.686C159.485 26.686 159.041 26.7887 158.649 26.994C158.267 27.19 157.963 27.47 157.739 27.834C157.525 28.198 157.417 28.618 157.417 29.094C157.417 29.57 157.525 29.99 157.739 30.354C157.963 30.718 158.267 31.0027 158.649 31.208C159.041 31.4133 159.485 31.516 159.979 31.516ZM171.739 33L168.981 25.58H170.255L172.705 32.3H172.103L174.651 25.58H175.785L178.277 32.3H177.689L180.195 25.58H181.399L178.627 33H177.339L175.001 26.868H175.393L173.027 33H171.739ZM182.763 33V25.58H184.107V33H182.763ZM183.435 24.152C183.173 24.152 182.954 24.068 182.777 23.9C182.609 23.732 182.525 23.5267 182.525 23.284C182.525 23.032 182.609 22.822 182.777 22.654C182.954 22.486 183.173 22.402 183.435 22.402C183.696 22.402 183.911 22.486 184.079 22.654C184.256 22.8127 184.345 23.0133 184.345 23.256C184.345 23.508 184.261 23.7227 184.093 23.9C183.925 24.068 183.705 24.152 183.435 24.152ZM189.221 33.084C188.474 33.084 187.896 32.8833 187.485 32.482C187.074 32.0807 186.869 31.5067 186.869 30.76V23.956H188.213V30.704C188.213 31.1053 188.311 31.4133 188.507 31.628C188.712 31.8427 189.002 31.95 189.375 31.95C189.795 31.95 190.145 31.8333 190.425 31.6L190.845 32.566C190.64 32.7433 190.392 32.874 190.103 32.958C189.823 33.042 189.529 33.084 189.221 33.084ZM185.609 26.686V25.58H190.341V26.686H185.609ZM196.432 25.51C197.038 25.51 197.57 25.6267 198.028 25.86C198.494 26.0933 198.858 26.448 199.12 26.924C199.381 27.4 199.512 28.002 199.512 28.73V33H198.168V28.884C198.168 28.1653 197.99 27.624 197.636 27.26C197.29 26.896 196.8 26.714 196.166 26.714C195.69 26.714 195.274 26.8073 194.92 26.994C194.565 27.1807 194.29 27.456 194.094 27.82C193.907 28.184 193.814 28.6367 193.814 29.178V33H192.47V22.612H193.814V27.582L193.548 27.05C193.79 26.5647 194.164 26.1867 194.668 25.916C195.172 25.6453 195.76 25.51 196.432 25.51ZM210.365 33V31.432L210.295 31.138V28.464C210.295 27.8947 210.127 27.456 209.791 27.148C209.464 26.8307 208.97 26.672 208.307 26.672C207.868 26.672 207.439 26.7467 207.019 26.896C206.599 27.036 206.244 27.2273 205.955 27.47L205.395 26.462C205.778 26.154 206.235 25.9207 206.767 25.762C207.308 25.594 207.873 25.51 208.461 25.51C209.478 25.51 210.262 25.7573 210.813 26.252C211.364 26.7467 211.639 27.5027 211.639 28.52V33H210.365ZM207.929 33.084C207.378 33.084 206.893 32.9907 206.473 32.804C206.062 32.6173 205.745 32.3607 205.521 32.034C205.297 31.698 205.185 31.32 205.185 30.9C205.185 30.4987 205.278 30.1347 205.465 29.808C205.661 29.4813 205.974 29.22 206.403 29.024C206.842 28.828 207.43 28.73 208.167 28.73H210.519V29.696H208.223C207.551 29.696 207.098 29.808 206.865 30.032C206.632 30.256 206.515 30.5267 206.515 30.844C206.515 31.208 206.66 31.502 206.949 31.726C207.238 31.9407 207.64 32.048 208.153 32.048C208.657 32.048 209.096 31.936 209.469 31.712C209.852 31.488 210.127 31.1613 210.295 30.732L210.561 31.656C210.384 32.0947 210.071 32.4447 209.623 32.706C209.175 32.958 208.61 33.084 207.929 33.084ZM217.192 33.084C216.473 33.084 215.829 32.9253 215.26 32.608C214.7 32.2907 214.257 31.8473 213.93 31.278C213.603 30.7087 213.44 30.046 213.44 29.29C213.44 28.534 213.603 27.876 213.93 27.316C214.257 26.7467 214.7 26.3033 215.26 25.986C215.829 25.6687 216.473 25.51 217.192 25.51C217.817 25.51 218.382 25.65 218.886 25.93C219.39 26.21 219.791 26.63 220.09 27.19C220.398 27.75 220.552 28.45 220.552 29.29C220.552 30.13 220.403 30.83 220.104 31.39C219.815 31.95 219.418 32.3747 218.914 32.664C218.41 32.944 217.836 33.084 217.192 33.084ZM217.304 31.908C217.771 31.908 218.191 31.8007 218.564 31.586C218.947 31.3713 219.245 31.068 219.46 30.676C219.684 30.2747 219.796 29.8127 219.796 29.29C219.796 28.758 219.684 28.3007 219.46 27.918C219.245 27.526 218.947 27.2227 218.564 27.008C218.191 26.7933 217.771 26.686 217.304 26.686C216.828 26.686 216.403 26.7933 216.03 27.008C215.657 27.2227 215.358 27.526 215.134 27.918C214.91 28.3007 214.798 28.758 214.798 29.29C214.798 29.8127 214.91 30.2747 215.134 30.676C215.358 31.068 215.657 31.3713 216.03 31.586C216.403 31.8007 216.828 31.908 217.304 31.908ZM219.838 33V30.998L219.922 29.276L219.782 27.554V22.612H221.126V33H219.838ZM226.735 33.084C226.016 33.084 225.372 32.9253 224.803 32.608C224.243 32.2907 223.8 31.8473 223.473 31.278C223.146 30.7087 222.983 30.046 222.983 29.29C222.983 28.534 223.146 27.876 223.473 27.316C223.8 26.7467 224.243 26.3033 224.803 25.986C225.372 25.6687 226.016 25.51 226.735 25.51C227.36 25.51 227.925 25.65 228.429 25.93C228.933 26.21 229.334 26.63 229.633 27.19C229.941 27.75 230.095 28.45 230.095 29.29C230.095 30.13 229.946 30.83 229.647 31.39C229.358 31.95 228.961 32.3747 228.457 32.664C227.953 32.944 227.379 33.084 226.735 33.084ZM226.847 31.908C227.314 31.908 227.734 31.8007 228.107 31.586C228.49 31.3713 228.788 31.068 229.003 30.676C229.227 30.2747 229.339 29.8127 229.339 29.29C229.339 28.758 229.227 28.3007 229.003 27.918C228.788 27.526 228.49 27.2227 228.107 27.008C227.734 26.7933 227.314 26.686 226.847 26.686C226.371 26.686 225.946 26.7933 225.573 27.008C225.2 27.2227 224.901 27.526 224.677 27.918C224.453 28.3007 224.341 28.758 224.341 29.29C224.341 29.8127 224.453 30.2747 224.677 30.676C224.901 31.068 225.2 31.3713 225.573 31.586C225.946 31.8007 226.371 31.908 226.847 31.908ZM229.381 33V30.998L229.465 29.276L229.325 27.554V22.612H230.669V33H229.381ZM236.516 33.084C235.723 33.084 235.023 32.9207 234.416 32.594C233.819 32.2673 233.352 31.8193 233.016 31.25C232.689 30.6807 232.526 30.0273 232.526 29.29C232.526 28.5527 232.685 27.8993 233.002 27.33C233.329 26.7607 233.772 26.3173 234.332 26C234.901 25.6733 235.541 25.51 236.25 25.51C236.969 25.51 237.603 25.6687 238.154 25.986C238.705 26.3033 239.134 26.7513 239.442 27.33C239.759 27.8993 239.918 28.5667 239.918 29.332C239.918 29.388 239.913 29.4533 239.904 29.528C239.904 29.6027 239.899 29.6727 239.89 29.738H233.576V28.772H239.19L238.644 29.108C238.653 28.632 238.555 28.2073 238.35 27.834C238.145 27.4607 237.86 27.1713 237.496 26.966C237.141 26.7513 236.726 26.644 236.25 26.644C235.783 26.644 235.368 26.7513 235.004 26.966C234.64 27.1713 234.355 27.4653 234.15 27.848C233.945 28.2213 233.842 28.6507 233.842 29.136V29.36C233.842 29.8547 233.954 30.298 234.178 30.69C234.411 31.0727 234.733 31.3713 235.144 31.586C235.555 31.8007 236.026 31.908 236.558 31.908C236.997 31.908 237.393 31.8333 237.748 31.684C238.112 31.5347 238.429 31.3107 238.7 31.012L239.442 31.88C239.106 32.272 238.686 32.5707 238.182 32.776C237.687 32.9813 237.132 33.084 236.516 33.084ZM244.85 33.084C244.132 33.084 243.488 32.9253 242.918 32.608C242.358 32.2907 241.915 31.8473 241.588 31.278C241.262 30.7087 241.098 30.046 241.098 29.29C241.098 28.534 241.262 27.876 241.588 27.316C241.915 26.7467 242.358 26.3033 242.918 25.986C243.488 25.6687 244.132 25.51 244.85 25.51C245.476 25.51 246.04 25.65 246.544 25.93C247.048 26.21 247.45 26.63 247.748 27.19C248.056 27.75 248.21 28.45 248.21 29.29C248.21 30.13 248.061 30.83 247.762 31.39C247.473 31.95 247.076 32.3747 246.572 32.664C246.068 32.944 245.494 33.084 244.85 33.084ZM244.962 31.908C245.429 31.908 245.849 31.8007 246.222 31.586C246.605 31.3713 246.904 31.068 247.118 30.676C247.342 30.2747 247.454 29.8127 247.454 29.29C247.454 28.758 247.342 28.3007 247.118 27.918C246.904 27.526 246.605 27.2227 246.222 27.008C245.849 26.7933 245.429 26.686 244.962 26.686C244.486 26.686 244.062 26.7933 243.688 27.008C243.315 27.2227 243.016 27.526 242.792 27.918C242.568 28.3007 242.456 28.758 242.456 29.29C242.456 29.8127 242.568 30.2747 242.792 30.676C243.016 31.068 243.315 31.3713 243.688 31.586C244.062 31.8007 244.486 31.908 244.962 31.908ZM247.496 33V30.998L247.58 29.276L247.44 27.554V22.612H248.784V33H247.496ZM257.215 33.084C256.599 33.084 256.011 33 255.451 32.832C254.9 32.664 254.466 32.4587 254.149 32.216L254.709 31.152C255.026 31.3667 255.418 31.5487 255.885 31.698C256.352 31.8473 256.828 31.922 257.313 31.922C257.938 31.922 258.386 31.8333 258.657 31.656C258.937 31.4787 259.077 31.2313 259.077 30.914C259.077 30.6807 258.993 30.4987 258.825 30.368C258.657 30.2373 258.433 30.1393 258.153 30.074C257.882 30.0087 257.579 29.9527 257.243 29.906C256.907 29.85 256.571 29.7847 256.235 29.71C255.899 29.626 255.591 29.514 255.311 29.374C255.031 29.2247 254.807 29.024 254.639 28.772C254.471 28.5107 254.387 28.1653 254.387 27.736C254.387 27.288 254.513 26.896 254.765 26.56C255.017 26.224 255.372 25.9673 255.829 25.79C256.296 25.6033 256.846 25.51 257.481 25.51C257.966 25.51 258.456 25.5707 258.951 25.692C259.455 25.804 259.866 25.9673 260.183 26.182L259.609 27.246C259.273 27.022 258.923 26.868 258.559 26.784C258.195 26.7 257.831 26.658 257.467 26.658C256.879 26.658 256.44 26.756 256.151 26.952C255.862 27.1387 255.717 27.3813 255.717 27.68C255.717 27.932 255.801 28.128 255.969 28.268C256.146 28.3987 256.37 28.5013 256.641 28.576C256.921 28.6507 257.229 28.716 257.565 28.772C257.901 28.8187 258.237 28.884 258.573 28.968C258.909 29.0427 259.212 29.15 259.483 29.29C259.763 29.43 259.987 29.626 260.155 29.878C260.332 30.13 260.421 30.466 260.421 30.886C260.421 31.334 260.29 31.7213 260.029 32.048C259.768 32.3747 259.399 32.6313 258.923 32.818C258.447 32.9953 257.878 33.084 257.215 33.084ZM266.035 33.084C265.419 33.084 264.854 32.944 264.341 32.664C263.837 32.3747 263.431 31.95 263.123 31.39C262.824 30.83 262.675 30.13 262.675 29.29C262.675 28.45 262.819 27.75 263.109 27.19C263.407 26.63 263.809 26.21 264.313 25.93C264.826 25.65 265.4 25.51 266.035 25.51C266.763 25.51 267.407 25.6687 267.967 25.986C268.527 26.3033 268.97 26.7467 269.297 27.316C269.623 27.876 269.787 28.534 269.787 29.29C269.787 30.046 269.623 30.7087 269.297 31.278C268.97 31.8473 268.527 32.2907 267.967 32.608C267.407 32.9253 266.763 33.084 266.035 33.084ZM262.101 35.716V25.58H263.389V27.582L263.305 29.304L263.445 31.026V35.716H262.101ZM265.923 31.908C266.399 31.908 266.823 31.8007 267.197 31.586C267.579 31.3713 267.878 31.068 268.093 30.676C268.317 30.2747 268.429 29.8127 268.429 29.29C268.429 28.758 268.317 28.3007 268.093 27.918C267.878 27.526 267.579 27.2227 267.197 27.008C266.823 26.7933 266.399 26.686 265.923 26.686C265.456 26.686 265.031 26.7933 264.649 27.008C264.275 27.2227 263.977 27.526 263.753 27.918C263.538 28.3007 263.431 28.758 263.431 29.29C263.431 29.8127 263.538 30.2747 263.753 30.676C263.977 31.068 264.275 31.3713 264.649 31.586C265.031 31.8007 265.456 31.908 265.923 31.908ZM276.181 33V31.432L276.111 31.138V28.464C276.111 27.8947 275.943 27.456 275.607 27.148C275.281 26.8307 274.786 26.672 274.123 26.672C273.685 26.672 273.255 26.7467 272.835 26.896C272.415 27.036 272.061 27.2273 271.771 27.47L271.211 26.462C271.594 26.154 272.051 25.9207 272.583 25.762C273.125 25.594 273.689 25.51 274.277 25.51C275.295 25.51 276.079 25.7573 276.629 26.252C277.18 26.7467 277.455 27.5027 277.455 28.52V33H276.181ZM273.745 33.084C273.195 33.084 272.709 32.9907 272.289 32.804C271.879 32.6173 271.561 32.3607 271.337 32.034C271.113 31.698 271.001 31.32 271.001 30.9C271.001 30.4987 271.095 30.1347 271.281 29.808C271.477 29.4813 271.79 29.22 272.219 29.024C272.658 28.828 273.246 28.73 273.983 28.73H276.335V29.696H274.039C273.367 29.696 272.915 29.808 272.681 30.032C272.448 30.256 272.331 30.5267 272.331 30.844C272.331 31.208 272.476 31.502 272.765 31.726C273.055 31.9407 273.456 32.048 273.969 32.048C274.473 32.048 274.912 31.936 275.285 31.712C275.668 31.488 275.943 31.1613 276.111 30.732L276.377 31.656C276.2 32.0947 275.887 32.4447 275.439 32.706C274.991 32.958 274.427 33.084 273.745 33.084ZM283.176 33.084C282.42 33.084 281.744 32.9207 281.146 32.594C280.558 32.2673 280.096 31.8193 279.76 31.25C279.424 30.6807 279.256 30.0273 279.256 29.29C279.256 28.5527 279.424 27.8993 279.76 27.33C280.096 26.7607 280.558 26.3173 281.146 26C281.744 25.6733 282.42 25.51 283.176 25.51C283.848 25.51 284.446 25.6453 284.968 25.916C285.5 26.1773 285.911 26.5693 286.2 27.092L285.178 27.75C284.936 27.386 284.637 27.12 284.282 26.952C283.937 26.7747 283.564 26.686 283.162 26.686C282.677 26.686 282.243 26.7933 281.86 27.008C281.478 27.2227 281.174 27.526 280.95 27.918C280.726 28.3007 280.614 28.758 280.614 29.29C280.614 29.822 280.726 30.284 280.95 30.676C281.174 31.068 281.478 31.3713 281.86 31.586C282.243 31.8007 282.677 31.908 283.162 31.908C283.564 31.908 283.937 31.824 284.282 31.656C284.637 31.4787 284.936 31.208 285.178 30.844L286.2 31.488C285.911 32.0013 285.5 32.398 284.968 32.678C284.446 32.9487 283.848 33.084 283.176 33.084ZM291.135 33.084C290.342 33.084 289.642 32.9207 289.035 32.594C288.438 32.2673 287.971 31.8193 287.635 31.25C287.308 30.6807 287.145 30.0273 287.145 29.29C287.145 28.5527 287.304 27.8993 287.621 27.33C287.948 26.7607 288.391 26.3173 288.951 26C289.52 25.6733 290.16 25.51 290.869 25.51C291.588 25.51 292.222 25.6687 292.773 25.986C293.324 26.3033 293.753 26.7513 294.061 27.33C294.378 27.8993 294.537 28.5667 294.537 29.332C294.537 29.388 294.532 29.4533 294.523 29.528C294.523 29.6027 294.518 29.6727 294.509 29.738H288.195V28.772H293.809L293.263 29.108C293.272 28.632 293.174 28.2073 292.969 27.834C292.764 27.4607 292.479 27.1713 292.115 26.966C291.76 26.7513 291.345 26.644 290.869 26.644C290.402 26.644 289.987 26.7513 289.623 26.966C289.259 27.1713 288.974 27.4653 288.769 27.848C288.564 28.2213 288.461 28.6507 288.461 29.136V29.36C288.461 29.8547 288.573 30.298 288.797 30.69C289.03 31.0727 289.352 31.3713 289.763 31.586C290.174 31.8007 290.645 31.908 291.177 31.908C291.616 31.908 292.012 31.8333 292.367 31.684C292.731 31.5347 293.048 31.3107 293.319 31.012L294.061 31.88C293.725 32.272 293.305 32.5707 292.801 32.776C292.306 32.9813 291.751 33.084 291.135 33.084ZM296.725 33.084C296.464 33.084 296.24 32.9953 296.053 32.818C295.867 32.6313 295.773 32.398 295.773 32.118C295.773 31.838 295.867 31.6093 296.053 31.432C296.24 31.2547 296.464 31.166 296.725 31.166C296.977 31.166 297.192 31.2547 297.369 31.432C297.556 31.6093 297.649 31.838 297.649 32.118C297.649 32.398 297.556 32.6313 297.369 32.818C297.192 32.9953 296.977 33.084 296.725 33.084Z" fill="black"/>
</svg>
