<svg width="165" height="50" viewBox="0 0 165 50" fill="none" xmlns="http://www.w3.org/2000/svg">
<g filter="url(#filter0_d_2040_610)">
<rect x="24.1406" y="4.7168" width="33" height="31" rx="6" transform="rotate(46.3303 24.1406 4.7168)" fill="white"/>
</g>
<path d="M20.1982 21.1045H28.2373C28.4651 21.1045 28.6809 21.2079 28.8232 21.3857L30.3037 23.2363C30.4101 23.3693 30.4677 23.5348 30.4678 23.7051V33.3545C30.4678 33.7687 30.132 34.1045 29.7178 34.1045H18.7178C18.3036 34.1045 17.9678 33.7687 17.9678 33.3545V23.7051C17.9678 23.5348 18.0255 23.3693 18.1318 23.2363L19.6123 21.3857C19.7546 21.2079 19.9705 21.1045 20.1982 21.1045Z" stroke="black" stroke-width="0.5"/>
<path d="M18.2178 23.3545H30.2178" stroke="black" stroke-width="0.5"/>
<path d="M26.4678 23.6045V29.834L24.374 28.1592L24.2178 28.0342L24.0615 28.1592L21.9678 29.834V23.6045H26.4678Z" stroke="black" stroke-width="0.5"/>
<path d="M56.047 23.667V14.219H60.1367C60.9825 14.219 61.7113 14.3585 62.3232 14.6374C62.9351 14.9073 63.4075 15.2988 63.7404 15.8117C64.0733 16.3245 64.2398 16.9364 64.2398 17.6473C64.2398 18.3491 64.0733 18.9565 63.7404 19.4694C63.4075 19.9823 62.9351 20.3782 62.3232 20.6571C61.7113 20.9271 60.9825 21.062 60.1367 21.062H57.2618L58.2336 20.0768V23.667H56.047ZM58.2336 20.3197L57.2618 19.2804H60.0152C60.69 19.2804 61.1939 19.1365 61.5269 18.8485C61.8598 18.5606 62.0263 18.1602 62.0263 17.6473C62.0263 17.1254 61.8598 16.7205 61.5269 16.4325C61.1939 16.1446 60.69 16.0006 60.0152 16.0006H57.2618L58.2336 14.9613V20.3197ZM69.1484 23.775C68.3656 23.775 67.6682 23.6175 67.0564 23.3026C66.4445 22.9786 65.9631 22.5332 65.6122 21.9664C65.2702 21.3995 65.0993 20.7561 65.0993 20.0363C65.0993 19.3074 65.2702 18.6641 65.6122 18.1062C65.9631 17.5393 66.4445 17.0984 67.0564 16.7834C67.6682 16.4595 68.3656 16.2976 69.1484 16.2976C69.9133 16.2976 70.5791 16.4595 71.146 16.7834C71.7129 17.0984 72.1313 17.5528 72.4012 18.1467L70.7681 19.024C70.5791 18.682 70.3407 18.4301 70.0527 18.2681C69.7738 18.1062 69.4679 18.0252 69.1349 18.0252C68.775 18.0252 68.4511 18.1062 68.1631 18.2681C67.8752 18.4301 67.6457 18.6596 67.4748 18.9565C67.3128 19.2534 67.2318 19.6133 67.2318 20.0363C67.2318 20.4592 67.3128 20.8191 67.4748 21.116C67.6457 21.413 67.8752 21.6424 68.1631 21.8044C68.4511 21.9664 68.775 22.0473 69.1349 22.0473C69.4679 22.0473 69.7738 21.9709 70.0527 21.8179C70.3407 21.6559 70.5791 21.3995 70.7681 21.0485L72.4012 21.9394C72.1313 22.5242 71.7129 22.9786 71.146 23.3026C70.5791 23.6175 69.9133 23.775 69.1484 23.775ZM76.0565 23.775C75.4357 23.775 74.8373 23.703 74.2614 23.559C73.6945 23.406 73.2446 23.2171 72.9117 22.9921L73.6136 21.4805C73.9465 21.6874 74.3379 21.8584 74.7878 21.9933C75.2467 22.1193 75.6966 22.1823 76.1375 22.1823C76.6234 22.1823 76.9653 22.1238 77.1633 22.0068C77.3703 21.8899 77.4737 21.7279 77.4737 21.5209C77.4737 21.35 77.3928 21.224 77.2308 21.143C77.0778 21.053 76.8709 20.9856 76.6099 20.9406C76.349 20.8956 76.061 20.8506 75.7461 20.8056C75.4402 20.7606 75.1297 20.7021 74.8148 20.6301C74.4999 20.5492 74.2119 20.4322 73.951 20.2792C73.69 20.1262 73.4786 19.9193 73.3166 19.6583C73.1636 19.3974 73.0872 19.06 73.0872 18.6461C73.0872 18.1872 73.2176 17.7822 73.4786 17.4313C73.7485 17.0804 74.1354 16.8059 74.6393 16.608C75.1432 16.401 75.7461 16.2976 76.448 16.2976C76.9428 16.2976 77.4467 16.3515 77.9596 16.4595C78.4725 16.5675 78.8999 16.725 79.2419 16.9319L78.54 18.4301C78.1891 18.2231 77.8337 18.0837 77.4737 18.0117C77.1228 17.9307 76.7809 17.8902 76.448 17.8902C75.9801 17.8902 75.6381 17.9532 75.4222 18.0792C75.2062 18.2051 75.0982 18.3671 75.0982 18.5651C75.0982 18.745 75.1747 18.88 75.3277 18.97C75.4897 19.06 75.7011 19.132 75.9621 19.1859C76.223 19.2399 76.5064 19.2894 76.8124 19.3344C77.1273 19.3704 77.4422 19.4289 77.7572 19.5099C78.0721 19.5909 78.3556 19.7078 78.6075 19.8608C78.8684 20.0048 79.0799 20.2072 79.2419 20.4682C79.4038 20.7201 79.4848 21.053 79.4848 21.467C79.4848 21.9169 79.3498 22.3173 79.0799 22.6682C78.81 23.0101 78.4185 23.2801 77.9056 23.478C77.4018 23.676 76.7854 23.775 76.0565 23.775ZM84.7548 23.667V14.219H88.8444C89.6903 14.219 90.4191 14.3585 91.031 14.6374C91.6429 14.9073 92.1153 15.2988 92.4482 15.8117C92.7811 16.3245 92.9476 16.9364 92.9476 17.6473C92.9476 18.3491 92.7811 18.9565 92.4482 19.4694C92.1153 19.9823 91.6429 20.3782 91.031 20.6571C90.4191 20.9271 89.6903 21.062 88.8444 21.062H85.9696L86.9414 20.0768V23.667H84.7548ZM86.9414 20.3197L85.9696 19.2804H88.723C89.3978 19.2804 89.9017 19.1365 90.2347 18.8485C90.5676 18.5606 90.734 18.1602 90.734 17.6473C90.734 17.1254 90.5676 16.7205 90.2347 16.4325C89.9017 16.1446 89.3978 16.0006 88.723 16.0006H85.9696L86.9414 14.9613V20.3197ZM97.9507 23.775C97.1229 23.775 96.394 23.613 95.7642 23.2891C95.1433 22.9651 94.6619 22.5242 94.32 21.9664C93.978 21.3995 93.8071 20.7561 93.8071 20.0363C93.8071 19.3074 93.9735 18.6641 94.3065 18.1062C94.6484 17.5393 95.1118 17.0984 95.6967 16.7834C96.2815 16.4595 96.9429 16.2976 97.6808 16.2976C98.3916 16.2976 99.0305 16.4505 99.5973 16.7565C100.173 17.0534 100.628 17.4853 100.961 18.0522C101.293 18.6101 101.46 19.2804 101.46 20.0633C101.46 20.1442 101.455 20.2387 101.446 20.3467C101.437 20.4457 101.428 20.5402 101.419 20.6301H95.5212V19.4019H100.313L99.5029 19.7663C99.5029 19.3884 99.4264 19.06 99.2734 18.781C99.1204 18.5021 98.909 18.2861 98.6391 18.1332C98.3691 17.9712 98.0542 17.8902 97.6943 17.8902C97.3343 17.8902 97.0149 17.9712 96.736 18.1332C96.466 18.2861 96.2546 18.5066 96.1016 18.7945C95.9486 19.0735 95.8721 19.4064 95.8721 19.7933V20.1172C95.8721 20.5132 95.9576 20.8641 96.1286 21.17C96.3085 21.467 96.556 21.6964 96.8709 21.8584C97.1949 22.0113 97.5728 22.0878 98.0047 22.0878C98.3916 22.0878 98.729 22.0293 99.017 21.9124C99.3139 21.7954 99.5839 21.6199 99.8268 21.386L100.947 22.6007C100.614 22.9786 100.196 23.2711 99.6918 23.478C99.1879 23.676 98.6076 23.775 97.9507 23.775ZM102.862 23.667V16.4055H104.873V18.4571L104.589 17.8632C104.805 17.3503 105.152 16.9634 105.629 16.7025C106.106 16.4325 106.686 16.2976 107.37 16.2976V18.2411C107.28 18.2321 107.199 18.2276 107.127 18.2276C107.055 18.2186 106.978 18.2141 106.897 18.2141C106.322 18.2141 105.854 18.3806 105.494 18.7135C105.143 19.0375 104.967 19.5459 104.967 20.2387V23.667H102.862ZM112.645 23.667V14.219H117.261C118.449 14.219 119.34 14.4439 119.934 14.8938C120.537 15.3438 120.838 15.9376 120.838 16.6755C120.838 17.1704 120.717 17.6023 120.474 17.9712C120.231 18.3311 119.898 18.6101 119.475 18.808C119.052 19.006 118.566 19.105 118.017 19.105L118.274 18.5516C118.868 18.5516 119.394 18.6506 119.853 18.8485C120.312 19.0375 120.667 19.3209 120.919 19.6988C121.18 20.0768 121.311 20.5402 121.311 21.089C121.311 21.8989 120.991 22.5332 120.352 22.9921C119.713 23.442 118.773 23.667 117.531 23.667H112.645ZM114.818 22.0203H117.369C117.936 22.0203 118.364 21.9304 118.652 21.7504C118.949 21.5614 119.097 21.2645 119.097 20.8596C119.097 20.4637 118.949 20.1712 118.652 19.9823C118.364 19.7843 117.936 19.6853 117.369 19.6853H114.656V18.0927H116.991C117.522 18.0927 117.927 18.0027 118.206 17.8227C118.494 17.6338 118.638 17.3503 118.638 16.9724C118.638 16.6035 118.494 16.329 118.206 16.1491C117.927 15.9601 117.522 15.8656 116.991 15.8656H114.818V22.0203ZM126.273 23.775C125.499 23.775 124.811 23.613 124.208 23.2891C123.614 22.9651 123.141 22.5242 122.791 21.9664C122.449 21.3995 122.278 20.7561 122.278 20.0363C122.278 19.3074 122.449 18.6641 122.791 18.1062C123.141 17.5393 123.614 17.0984 124.208 16.7834C124.811 16.4595 125.499 16.2976 126.273 16.2976C127.038 16.2976 127.721 16.4595 128.324 16.7834C128.927 17.0984 129.4 17.5348 129.742 18.0927C130.083 18.6506 130.254 19.2984 130.254 20.0363C130.254 20.7561 130.083 21.3995 129.742 21.9664C129.4 22.5242 128.927 22.9651 128.324 23.2891C127.721 23.613 127.038 23.775 126.273 23.775ZM126.273 22.0473C126.624 22.0473 126.939 21.9664 127.218 21.8044C127.497 21.6424 127.717 21.413 127.879 21.116C128.041 20.8101 128.122 20.4502 128.122 20.0363C128.122 19.6133 128.041 19.2534 127.879 18.9565C127.717 18.6596 127.497 18.4301 127.218 18.2681C126.939 18.1062 126.624 18.0252 126.273 18.0252C125.922 18.0252 125.607 18.1062 125.328 18.2681C125.049 18.4301 124.824 18.6596 124.653 18.9565C124.491 19.2534 124.41 19.6133 124.41 20.0363C124.41 20.4502 124.491 20.8101 124.653 21.116C124.824 21.413 125.049 21.6424 125.328 21.8044C125.607 21.9664 125.922 22.0473 126.273 22.0473ZM130.52 23.667L133.773 19.4019L133.732 20.5626L130.614 16.4055H132.976L134.947 19.1185L134.056 19.1454L136.094 16.4055H138.335L135.203 20.5222V19.3884L138.443 23.667H136.054L133.989 20.7786L134.866 20.9001L132.814 23.667H130.52Z" fill="black"/>
<path d="M55.3767 38.9715V38.3866L59.5495 33.1677H60.4493L56.3102 38.3866L55.8716 38.2516H62.204V38.9715H55.3767ZM59.8195 41.041V38.9715L59.842 38.2516V36.4295H60.6293V41.041H59.8195ZM65.1338 41.1085C64.5639 41.1085 64.024 41.0185 63.5141 40.8386C63.0117 40.6511 62.6068 40.4037 62.2994 40.0962L62.6931 39.4551C62.948 39.7175 63.2892 39.935 63.7166 40.1075C64.1515 40.2799 64.6239 40.3662 65.1338 40.3662C65.7862 40.3662 66.2848 40.2237 66.6297 39.9387C66.9822 39.6538 67.1584 39.2714 67.1584 38.7915C67.1584 38.3116 66.9859 37.9292 66.641 37.6442C66.3036 37.3593 65.7674 37.2168 65.0326 37.2168H64.4702V36.6207L66.8997 33.5726L67.0122 33.8875H62.6256V33.1677H67.687V33.7413L65.2575 36.7894L64.8639 36.5307H65.1675C66.1123 36.5307 66.8172 36.7407 67.2821 37.1606C67.7545 37.5805 67.9907 38.1204 67.9907 38.7802C67.9907 39.2227 67.8857 39.6201 67.6758 39.9725C67.4658 40.3249 67.1471 40.6024 66.7197 40.8048C66.2998 41.0073 65.7712 41.1085 65.1338 41.1085ZM71.5077 41.1085C70.9453 41.1085 70.4092 41.0185 69.8993 40.8386C69.3894 40.6511 68.9845 40.4037 68.6845 40.0962L69.0782 39.4551C69.3256 39.7175 69.6631 39.935 70.0905 40.1075C70.5254 40.2799 70.994 40.3662 71.4964 40.3662C72.1638 40.3662 72.6699 40.2199 73.0149 39.9275C73.3673 39.6276 73.5435 39.2376 73.5435 38.7577C73.5435 38.4203 73.461 38.1316 73.2961 37.8917C73.1386 37.6442 72.8686 37.453 72.4862 37.3181C72.1038 37.1831 71.5789 37.1156 70.9116 37.1156H69.2357L69.6406 33.1677H73.9484V33.8875H69.9668L70.3829 33.4939L70.0342 36.8007L69.6181 36.3957H71.0915C71.8864 36.3957 72.5237 36.4932 73.0036 36.6882C73.4835 36.8831 73.8284 37.1568 74.0384 37.5093C74.2559 37.8542 74.3646 38.2591 74.3646 38.724C74.3646 39.1664 74.2596 39.5713 74.0496 39.9387C73.8397 40.2987 73.5248 40.5836 73.1048 40.7936C72.6849 41.0035 72.1525 41.1085 71.5077 41.1085ZM79.0337 41.041V33.1677H79.7199L85.1525 40.0062H84.7925V33.1677H85.6136V41.041H84.9275L79.5061 34.2025H79.8661V41.041H79.0337ZM90.4217 41.0973C89.8518 41.0973 89.3382 40.9698 88.8808 40.7148C88.4309 40.4524 88.0747 40.0962 87.8123 39.6463C87.5498 39.1889 87.4186 38.6678 87.4186 38.0829C87.4186 37.4905 87.5498 36.9694 87.8123 36.5195C88.0747 36.0696 88.4309 35.7171 88.8808 35.4622C89.3307 35.2072 89.8443 35.0798 90.4217 35.0798C91.0066 35.0798 91.524 35.2072 91.9739 35.4622C92.4313 35.7171 92.7875 36.0696 93.0424 36.5195C93.3048 36.9694 93.4361 37.4905 93.4361 38.0829C93.4361 38.6678 93.3048 39.1889 93.0424 39.6463C92.7875 40.0962 92.4313 40.4524 91.9739 40.7148C91.5165 40.9698 90.9991 41.0973 90.4217 41.0973ZM90.4217 40.3887C90.8491 40.3887 91.2278 40.2949 91.5577 40.1075C91.8876 39.9125 92.1463 39.6426 92.3338 39.2976C92.5288 38.9452 92.6262 38.5403 92.6262 38.0829C92.6262 37.618 92.5288 37.2131 92.3338 36.8681C92.1463 36.5232 91.8876 36.257 91.5577 36.0696C91.2278 35.8746 90.8529 35.7771 90.4329 35.7771C90.013 35.7771 89.6381 35.8746 89.3082 36.0696C88.9783 36.257 88.7158 36.5232 88.5209 36.8681C88.3259 37.2131 88.2284 37.618 88.2284 38.0829C88.2284 38.5403 88.3259 38.9452 88.5209 39.2976C88.7158 39.6426 88.9783 39.9125 89.3082 40.1075C89.6381 40.2949 90.0093 40.3887 90.4217 40.3887ZM96.6524 41.0973C96.165 41.0973 95.7038 41.0298 95.2689 40.8948C94.834 40.7523 94.4928 40.5761 94.2454 40.3662L94.6053 39.7363C94.8452 39.9163 95.1527 40.0737 95.5276 40.2087C95.9025 40.3362 96.2962 40.3999 96.7086 40.3999C97.271 40.3999 97.6759 40.3137 97.9233 40.1412C98.1708 39.9612 98.2945 39.725 98.2945 39.4326C98.2945 39.2152 98.2233 39.0464 98.0808 38.9265C97.9458 38.799 97.7659 38.7053 97.5409 38.6453C97.316 38.5778 97.0648 38.5215 96.7873 38.4766C96.5099 38.4316 96.2324 38.3791 95.955 38.3191C95.6851 38.2591 95.4376 38.1729 95.2127 38.0604C94.9877 37.9404 94.804 37.7792 94.6615 37.5767C94.5266 37.3743 94.4591 37.1043 94.4591 36.7669C94.4591 36.4445 94.5491 36.1558 94.729 35.9009C94.909 35.6459 95.1714 35.4472 95.5163 35.3047C95.8688 35.1548 96.2962 35.0798 96.7986 35.0798C97.181 35.0798 97.5634 35.1323 97.9458 35.2372C98.3283 35.3347 98.6432 35.4659 98.8906 35.6309L98.542 36.272C98.2795 36.0921 97.9983 35.9646 97.6984 35.8896C97.3984 35.8071 97.0985 35.7659 96.7986 35.7659C96.2662 35.7659 95.8725 35.8596 95.6176 36.0471C95.3701 36.227 95.2464 36.4595 95.2464 36.7444C95.2464 36.9694 95.3139 37.1456 95.4489 37.2731C95.5913 37.4005 95.775 37.5018 96 37.5767C96.2324 37.6442 96.4836 37.7005 96.7536 37.7455C97.031 37.7905 97.3047 37.8467 97.5747 37.9142C97.8521 37.9742 98.1033 38.0604 98.3283 38.1729C98.5607 38.2778 98.7444 38.4316 98.8794 38.634C99.0219 38.829 99.0931 39.0877 99.0931 39.4101C99.0931 39.755 98.9956 40.055 98.8007 40.3099C98.6132 40.5574 98.3357 40.7523 97.9683 40.8948C97.6084 41.0298 97.1697 41.0973 96.6524 41.0973ZM99.1637 42.1658L102.875 31.5705H103.607L99.8948 42.1658H99.1637ZM106.009 41.0973C105.424 41.0973 104.899 40.9698 104.434 40.7148C103.977 40.4524 103.617 40.0962 103.355 39.6463C103.092 39.1889 102.961 38.6678 102.961 38.0829C102.961 37.4905 103.092 36.9694 103.355 36.5195C103.617 36.0696 103.977 35.7171 104.434 35.4622C104.899 35.2072 105.424 35.0798 106.009 35.0798C106.511 35.0798 106.965 35.1773 107.37 35.3722C107.775 35.5672 108.094 35.8596 108.326 36.2495L107.73 36.6544C107.527 36.3545 107.276 36.1333 106.976 35.9908C106.676 35.8484 106.35 35.7771 105.998 35.7771C105.578 35.7771 105.199 35.8746 104.862 36.0696C104.524 36.257 104.258 36.5232 104.063 36.8681C103.868 37.2131 103.771 37.618 103.771 38.0829C103.771 38.5478 103.868 38.9527 104.063 39.2976C104.258 39.6426 104.524 39.9125 104.862 40.1075C105.199 40.2949 105.578 40.3887 105.998 40.3887C106.35 40.3887 106.676 40.3174 106.976 40.1749C107.276 40.0325 107.527 39.815 107.73 39.5226L108.326 39.9275C108.094 40.3099 107.775 40.6024 107.37 40.8048C106.965 40.9998 106.511 41.0973 106.009 41.0973ZM111.828 41.0973C111.273 41.0973 110.846 40.9473 110.546 40.6473C110.246 40.3474 110.096 39.9238 110.096 39.3764V33.8313H110.894V39.3314C110.894 39.6763 110.981 39.9425 111.153 40.13C111.333 40.3174 111.588 40.4111 111.918 40.4111C112.27 40.4111 112.563 40.3099 112.795 40.1075L113.076 40.6811C112.919 40.8236 112.728 40.9285 112.503 40.996C112.285 41.0635 112.06 41.0973 111.828 41.0973ZM109.038 35.7996V35.136H112.694V35.7996H109.038ZM117.544 35.0798C118.024 35.0798 118.444 35.1735 118.804 35.361C119.172 35.5409 119.457 35.8184 119.659 36.1933C119.869 36.5682 119.974 37.0406 119.974 37.6105V41.041H119.175V37.6892C119.175 37.0669 119.018 36.5982 118.703 36.2833C118.396 35.9608 117.961 35.7996 117.398 35.7996C116.978 35.7996 116.611 35.8859 116.296 36.0583C115.989 36.2233 115.749 36.467 115.576 36.7894C115.411 37.1043 115.329 37.4868 115.329 37.9367V41.041H114.53V35.136H115.295V36.7557L115.171 36.452C115.359 36.0246 115.659 35.6909 116.071 35.4509C116.483 35.2035 116.975 35.0798 117.544 35.0798Z" fill="black"/>
<defs>
<filter id="filter0_d_2040_610" x="0.000195503" y="0.000195503" width="48.6441" height="48.7096" filterUnits="userSpaceOnUse" color-interpolation-filters="sRGB">
<feFlood flood-opacity="0" result="BackgroundImageFix"/>
<feColorMatrix in="SourceAlpha" type="matrix" values="0 0 0 0 0 0 0 0 0 0 0 0 0 0 0 0 0 0 127 0" result="hardAlpha"/>
<feOffset dy="-3"/>
<feGaussianBlur stdDeviation="2.1"/>
<feComposite in2="hardAlpha" operator="out"/>
<feColorMatrix type="matrix" values="0 0 0 0 0 0 0 0 0 0 0 0 0 0 0 0 0 0 0.25 0"/>
<feBlend mode="normal" in2="BackgroundImageFix" result="effect1_dropShadow_2040_610"/>
<feBlend mode="normal" in="SourceGraphic" in2="effect1_dropShadow_2040_610" result="shape"/>
</filter>
</defs>
</svg>
