<svg width="326" height="76" viewBox="0 0 326 76" fill="none" xmlns="http://www.w3.org/2000/svg">
<path d="M3.04972 45.5786L3.00773 20.4932L13.8661 20.4738C16.1118 20.4697 18.0476 20.8366 19.6734 21.5743C21.2992 22.2881 22.5552 23.3251 23.4414 24.6853C24.3277 26.0455 24.7724 27.6693 24.7755 29.5566C24.7787 31.4201 24.3394 33.0335 23.4577 34.3969C22.576 35.7364 21.3234 36.7659 19.7001 37.4856C18.0767 38.2052 16.1421 38.567 13.8964 38.5711L6.26328 38.5847L8.83923 36.0357L8.85518 45.5682L3.04972 45.5786ZM18.9968 45.55L12.7103 36.4588L18.9099 36.4477L25.2682 45.5388L18.9968 45.55ZM8.84031 36.6808L6.25554 33.9619L13.5661 33.9488C15.3579 33.9456 16.6952 33.5609 17.5779 32.7948C18.4605 32.0048 18.9007 30.9289 18.8984 29.5672C18.8961 28.1815 18.4523 27.1072 17.5671 26.3443C16.6818 25.5814 15.3433 25.2015 13.5515 25.2047L6.24091 25.2178L8.8165 22.4538L8.84031 36.6808ZM29.0436 45.532L29.0373 41.7692L38.6977 32.6136C39.4611 31.9194 40.0215 31.2972 40.3789 30.7471C40.7364 30.197 40.9744 29.6948 41.0931 29.2407C41.2357 28.7865 41.3067 28.3683 41.3061 27.986C41.3044 26.9826 40.9567 26.2187 40.263 25.6944C39.5931 25.1461 38.6012 24.8731 37.2872 24.8755C36.236 24.8774 35.2568 25.0822 34.3496 25.49C33.4664 25.8977 32.7149 26.5321 32.0951 27.3933L27.8619 24.6774C28.8151 23.2422 30.1511 22.105 31.8699 21.2657C33.5886 20.4265 35.5708 20.0048 37.8166 20.0008C39.6801 19.9975 41.3051 20.3051 42.6919 20.9238C44.1024 21.5185 45.1909 22.3647 45.9572 23.4623C46.7474 24.5599 47.1438 25.8732 47.1464 27.4022C47.1478 28.2145 47.0416 29.027 46.8279 29.8396C46.6381 30.6284 46.2334 31.4653 45.6137 32.3503C45.0179 33.2354 44.1356 34.2284 42.9668 35.3295L34.9522 42.9053L33.8377 40.793L47.993 40.7676L48.0009 45.498L29.0436 45.532ZM60.3595 45.9059C58.6155 45.909 56.883 45.6851 55.1621 45.2343C53.4651 44.7595 52.0066 44.0932 50.7868 43.2353L53.0728 38.7875C54.0296 39.4786 55.1295 40.0261 56.3725 40.4301C57.6394 40.8339 58.9179 41.0347 60.208 41.0324C61.6654 41.0298 62.8116 40.741 63.6469 40.1662C64.4821 39.5913 64.8988 38.7902 64.8971 37.7629C64.896 37.1178 64.7278 36.5448 64.3925 36.0437C64.0572 35.5425 63.4593 35.1614 62.5988 34.9001C61.7622 34.6388 60.5794 34.5095 59.0503 34.5123L52.6357 34.5238L53.9021 20.402L69.2042 20.3746L69.212 25.0333L55.9884 25.057L58.9942 22.3997L58.1152 32.4713L55.1005 29.8248L60.4043 29.8153C62.8889 29.8108 64.8844 30.1537 66.3907 30.8438C67.9208 31.51 69.0332 32.4278 69.728 33.5972C70.4228 34.7666 70.7715 36.0919 70.7739 37.5732C70.7764 39.0544 70.4084 40.4288 69.6699 41.6963C68.9314 42.94 67.7863 43.9574 66.2347 44.7486C64.707 45.5158 62.7486 45.9016 60.3595 45.9059ZM85.3276 45.8611C83.273 45.8648 81.4325 45.3664 79.8063 44.3659C78.18 43.3415 76.8993 41.8625 75.9644 39.9291C75.0294 37.9956 74.5596 35.6551 74.555 32.9077C74.5504 30.1602 75.0123 27.8181 75.9408 25.8813C76.8693 23.9444 78.145 22.4729 79.7679 21.4665C81.3908 20.4363 83.2295 19.9194 85.2841 19.9157C87.3626 19.912 89.2031 20.4223 90.8055 21.4467C92.4317 22.4472 93.7124 23.9142 94.6473 25.8477C95.5823 27.7812 96.0521 30.1217 96.0567 32.8691C96.0613 35.6166 95.5994 37.9587 94.6709 39.8955C93.7424 41.8323 92.4667 43.3159 90.8438 44.3461C89.2448 45.3524 87.4061 45.8574 85.3276 45.8611ZM85.3193 40.9515C86.2989 40.9498 87.1465 40.6735 87.8623 40.1227C88.602 39.5719 89.174 38.6989 89.5781 37.5036C90.0061 36.3083 90.2186 34.767 90.2154 32.8796C90.2123 30.9922 89.9947 29.4516 89.5626 28.2579C89.1545 27.0641 88.5796 26.1931 87.8381 25.6449C87.1205 25.0967 86.2719 24.8235 85.2924 24.8252C84.3367 24.827 83.4891 25.1032 82.7494 25.654C82.0336 26.2048 81.4616 27.0779 81.0336 28.2732C80.6295 29.4684 80.429 31.0098 80.4321 32.8971C80.4353 34.7845 80.6409 36.3251 81.0491 37.5189C81.4811 38.7127 82.0559 39.5837 82.7736 40.1319C83.5151 40.68 84.3637 40.9533 85.3193 40.9515ZM106.405 45.3933L106.371 25.0383L98.3436 25.0527L98.3357 20.3223L120.196 20.2831L120.204 25.0135L112.176 25.0279L112.21 45.3829L106.405 45.3933ZM130.109 30.3712L142.186 30.3495L142.194 34.8649L130.117 34.8866L130.109 30.3712ZM130.557 40.6913L144.21 40.6668L144.218 45.3255L124.795 45.3603L124.753 20.275L143.71 20.241L143.718 24.8997L130.53 24.9233L130.557 40.6913ZM166.477 45.7156C164.78 45.7186 163.215 45.4109 161.781 44.7923C160.37 44.1498 159.21 43.244 158.3 42.075L161.519 38.1989C162.213 39.1055 162.943 39.797 163.708 40.2734C164.473 40.726 165.298 40.9515 166.182 40.9499C168.547 40.9457 169.727 39.5579 169.723 36.7865L169.703 24.8531L160.887 24.8689L160.879 20.2102L175.465 20.184L175.492 36.4537C175.497 39.5595 174.737 41.8783 173.21 43.41C171.684 44.9418 169.439 45.7103 166.477 45.7156ZM193.82 45.6666C190.261 45.673 187.476 44.6865 185.465 42.7071C183.455 40.7278 182.447 37.8985 182.441 34.2194L182.417 20.1716L188.223 20.1612L188.246 33.9939C188.25 36.383 188.743 38.1023 189.724 39.1517C190.705 40.2012 192.08 40.7243 193.848 40.7211C195.616 40.7179 196.989 40.1899 197.966 39.1369C198.944 38.084 199.431 36.363 199.427 33.9739L199.404 20.1411L205.138 20.1308L205.161 34.1786C205.167 37.8578 204.169 40.6907 202.165 42.6772C200.162 44.6637 197.38 45.6602 193.82 45.6666ZM212.35 45.2033L212.308 20.118L217.11 20.1094L227.819 37.7933L225.274 37.7979L235.745 20.076L240.511 20.0674L240.625 45.1526L235.178 45.1624L235.114 28.4269L236.117 28.4251L227.755 42.5238L225.139 42.5285L216.551 28.4602L217.769 28.458L217.797 45.1936L212.35 45.2033ZM248.01 45.1394L247.968 20.054L260.224 20.0321C263.377 20.0264 265.744 20.6194 267.322 21.8112C268.925 23.0028 269.728 24.5782 269.731 26.5372C269.733 27.8512 269.413 28.9986 268.769 29.9792C268.126 30.936 267.243 31.6782 266.121 32.2058C264.999 32.7334 263.71 32.9986 262.252 33.0012L262.931 31.5307C264.508 31.5278 265.906 31.7881 267.125 32.3115C268.344 32.8111 269.289 33.5619 269.96 34.5642C270.654 35.5663 271.003 36.7961 271.005 38.2534C271.009 40.4036 270.163 42.0894 268.469 43.3109C266.775 44.5085 264.279 45.1102 260.982 45.1161L248.01 45.1394ZM253.772 40.757L260.545 40.7449C262.05 40.7422 263.185 40.5012 263.948 40.0221C264.736 39.5189 265.129 38.7298 265.127 37.6547C265.125 36.6035 264.73 35.8278 263.941 35.3275C263.175 34.8033 262.04 34.5425 260.535 34.5452L253.332 34.5581L253.325 30.3295L259.524 30.3183C260.934 30.3158 262.009 30.075 262.748 29.5958C263.512 29.0928 263.893 28.3395 263.891 27.3361C263.89 26.3566 263.506 25.6286 262.741 25.1521C261.999 24.6518 260.924 24.4028 259.514 24.4054L253.745 24.4157L253.772 40.757ZM289.03 45.4959C287.047 45.4994 285.207 45.1802 283.51 44.5382C281.837 43.8961 280.378 42.9909 279.133 41.8225C277.913 40.654 276.955 39.282 276.26 37.7065C275.588 36.1309 275.251 34.4113 275.248 32.5478C275.244 30.6844 275.576 28.9636 276.242 27.3856C276.933 25.8076 277.898 24.4321 279.138 23.2593C280.379 22.0864 281.834 21.1759 283.506 20.5279C285.177 19.8798 286.992 19.554 288.951 19.5505C290.934 19.547 292.75 19.8662 294.4 20.5083C296.073 21.1504 297.52 22.0556 298.741 23.2241C299.985 24.3925 300.955 25.7645 301.65 27.3401C302.346 28.8917 302.695 30.6112 302.698 32.4986C302.701 34.3621 302.358 36.0948 301.668 37.6967C300.977 39.2748 300.012 40.6502 298.772 41.8231C297.555 42.972 296.111 43.8705 294.44 44.5186C292.793 45.1666 290.989 45.4924 289.03 45.4959ZM288.986 40.5505C290.109 40.5485 291.136 40.3556 292.067 39.9716C293.022 39.5877 293.857 39.0367 294.573 38.3187C295.288 37.6007 295.837 36.7516 296.217 35.7713C296.622 34.7911 296.823 33.7037 296.821 32.5092C296.819 31.3146 296.614 30.228 296.206 29.2492C295.822 28.2703 295.271 27.4232 294.554 26.7077C293.86 25.9923 293.034 25.4442 292.078 25.0637C291.122 24.6832 290.082 24.4939 288.959 24.4959C287.837 24.4979 286.798 24.6909 285.843 25.0749C284.911 25.4588 284.088 26.0098 283.373 26.7278C282.657 27.4458 282.097 28.2949 281.693 29.2752C281.312 30.2554 281.123 31.3428 281.125 32.5373C281.127 33.7079 281.32 34.7946 281.704 35.7974C282.111 36.7762 282.662 37.6233 283.356 38.3388C284.074 39.0542 284.911 39.6022 285.868 39.9828C286.824 40.3633 287.863 40.5526 288.986 40.5505Z" fill="#490606"/>
<path d="M38.3354 68.6401C37.859 67.9204 37.4893 67.0895 37.2263 66.1477C36.9712 65.1979 36.8427 64.1766 36.8407 63.0839C36.8388 61.9911 36.9636 60.9694 37.2153 60.0188C37.4749 59.0602 37.8416 58.2281 38.3155 57.5226L40.0853 57.5196C39.588 58.4152 39.2254 59.3186 38.9974 60.2296C38.7693 61.1327 38.6562 62.0831 38.658 63.0808C38.6598 64.0785 38.7763 65.0325 39.0076 65.9428C39.2388 66.8451 39.6047 67.7432 40.1051 68.6372L38.3354 68.6401ZM41.2107 66.331L41.1958 58.0166L43.12 58.0134L43.1349 66.3278L41.2107 66.331ZM45.1081 66.3245L45.0932 58.0101L46.6848 58.0074L50.2349 63.8691L49.3915 63.8705L52.8612 57.997L54.441 57.9944L54.4796 66.3088L52.6742 66.3118L52.6524 60.7649L52.9849 60.7644L50.2139 65.437L49.3468 65.4384L46.4997 60.7752L46.9035 60.7746L46.9135 66.3215L45.1081 66.3245ZM56.4522 66.3055L56.4374 57.991L58.3615 57.9878L58.3736 64.7344L62.5427 64.7274L62.5455 66.2952L56.4522 66.3055ZM66.9844 66.2878L66.9696 57.9734L68.5612 57.9707L72.1112 63.8324L71.2679 63.8338L74.7376 57.9603L76.3173 57.9577L76.356 66.2721L74.5506 66.2751L74.5288 60.7282L74.8613 60.7276L72.0903 65.4003L71.2232 65.4017L68.3761 60.7385L68.7799 60.7379L68.7898 66.2848L66.9844 66.2878ZM82.3673 66.4045C81.71 66.4056 81.1001 66.2997 80.5375 66.0869C79.9829 65.874 79.4993 65.5739 79.0868 65.1866C78.6823 64.7993 78.3647 64.3445 78.1342 63.8223C77.9115 63.3 77.7996 62.7301 77.7985 62.1124C77.7974 61.4948 77.9073 60.9245 78.1281 60.4015C78.3568 59.8785 78.6766 59.4226 79.0877 59.0339C79.4988 58.6452 79.9813 58.3435 80.5352 58.1288C81.0891 57.914 81.6907 57.8061 82.34 57.805C82.9973 57.8039 83.5993 57.9098 84.146 58.1227C84.7007 58.3356 85.1803 58.6357 85.5848 59.023C85.9973 59.4103 86.3188 59.8651 86.5494 60.3873C86.7799 60.9017 86.8958 61.4716 86.8969 62.0972C86.898 62.7148 86.7842 63.2891 86.5555 63.82C86.3268 64.343 86.0069 64.7989 85.5959 65.1876C85.1927 65.5683 84.7142 65.8661 84.1602 66.0808C83.6143 66.2955 83.0166 66.4034 82.3673 66.4045ZM82.3525 64.7654C82.7246 64.7648 83.065 64.7009 83.3736 64.5736C83.6901 64.4464 83.967 64.2638 84.2041 64.0259C84.4412 63.7879 84.6228 63.5065 84.749 63.1816C84.883 62.8568 84.9496 62.4963 84.9489 62.1004C84.9482 61.7045 84.8803 61.3443 84.7451 61.0199C84.6178 60.6954 84.4352 60.4146 84.1972 60.1775C83.9671 59.9403 83.6936 59.7586 83.3767 59.6325C83.0597 59.5063 82.7151 59.4435 82.343 59.4442C81.9708 59.4448 81.6264 59.5087 81.3099 59.636C81.0013 59.7632 80.7285 59.9457 80.4913 60.1837C80.2542 60.4217 80.0686 60.7031 79.9346 61.028C79.8085 61.3528 79.7458 61.7132 79.7465 62.1092C79.7472 62.4972 79.8112 62.8573 79.9385 63.1897C80.0737 63.5141 80.2563 63.7949 80.4864 64.0321C80.7243 64.2693 81.0018 64.4509 81.3188 64.5771C81.6357 64.7033 81.9803 64.766 82.3525 64.7654ZM92.3772 66.3877C91.7279 66.3888 91.122 66.2829 90.5594 66.0701C90.0047 65.8572 89.5211 65.5571 89.1087 65.1698C88.7041 64.7825 88.3866 64.3277 88.156 63.8054C87.9334 63.2832 87.8215 62.7132 87.8204 62.0956C87.8193 61.478 87.9291 60.9076 88.1499 60.3847C88.3786 59.8616 88.6985 59.4058 89.1096 59.0171C89.5206 58.6284 90.0031 58.3267 90.557 58.112C91.1109 57.8972 91.7126 57.7893 92.3619 57.7882C93.0191 57.7871 93.6211 57.893 94.1679 58.1059C94.7225 58.3188 95.2021 58.6189 95.6067 59.0062C96.0191 59.3856 96.3406 59.8364 96.5712 60.3586C96.8018 60.8809 96.9176 61.4548 96.9187 62.0803C96.9198 62.698 96.806 63.2723 96.5774 63.8032C96.3487 64.3262 96.0288 64.782 95.6177 65.1707C95.2145 65.5515 94.736 65.8493 94.1821 66.064C93.6361 66.2787 93.0345 66.3866 92.3772 66.3877ZM95.1004 68.1529C94.7758 68.1535 94.4669 68.1184 94.1738 68.0476C93.8886 67.9768 93.6033 67.8625 93.3179 67.7046C93.0405 67.5467 92.7472 67.3334 92.4378 67.0646C92.1365 66.7959 91.8073 66.4639 91.4502 66.0686L93.4685 65.5544C93.6828 65.8471 93.8812 66.0803 94.0637 66.2542C94.2461 66.4281 94.4205 66.5506 94.5869 66.6216C94.7613 66.6925 94.9435 66.7279 95.1335 66.7275C95.6403 66.7267 96.0913 66.5201 96.4865 66.1076L97.3435 67.1277C96.7825 67.8096 96.0348 68.1514 95.1004 68.1529ZM92.3743 64.7486C92.7465 64.748 93.0869 64.684 93.3955 64.5568C93.712 64.4296 93.9888 64.247 94.2259 64.0091C94.4631 63.7711 94.6447 63.4897 94.7708 63.1648C94.9048 62.832 94.9715 62.4716 94.9708 62.0836C94.9701 61.6877 94.9021 61.3275 94.7669 61.0031C94.6397 60.6786 94.457 60.3978 94.219 60.1607C93.9811 59.9235 93.7036 59.7419 93.3866 59.6157C93.0776 59.4895 92.737 59.4267 92.3648 59.4274C91.9926 59.428 91.6483 59.4919 91.3318 59.6191C91.0153 59.7464 90.7384 59.929 90.5013 60.1669C90.2721 60.4048 90.0905 60.6863 89.9564 61.0111C89.8303 61.336 89.7676 61.6964 89.7683 62.0923C89.769 62.4803 89.833 62.8405 89.9603 63.1729C90.0955 63.4973 90.2781 63.7781 90.5082 64.0153C90.7462 64.2524 91.0236 64.4341 91.3406 64.5603C91.6576 64.6864 92.0021 64.7492 92.3743 64.7486ZM101.363 63.6289L101.361 62.1441L104.722 62.1385L104.725 63.6232L101.363 63.6289ZM111.986 66.3548C111.408 66.3558 110.834 66.2815 110.264 66.132C109.701 65.9746 109.218 65.7537 108.813 65.4693L109.571 63.9952C109.888 64.2243 110.253 64.4058 110.665 64.5397C111.084 64.6736 111.508 64.7402 111.936 64.7395C112.419 64.7387 112.799 64.643 113.076 64.4525C113.352 64.262 113.49 63.9965 113.49 63.656C113.489 63.4422 113.434 63.2523 113.323 63.0862C113.211 62.9201 113.013 62.7937 112.728 62.7071C112.451 62.6204 112.059 62.5776 111.552 62.5784L109.426 62.582L109.845 57.9014L114.917 57.8929L114.92 59.437L110.537 59.4444L111.533 58.5637L111.242 61.9019L110.243 61.0246L112 61.0217C112.824 61.0203 113.485 61.134 113.985 61.3628C114.492 61.5837 114.861 61.8879 115.091 62.2755C115.321 62.6631 115.437 63.1024 115.438 63.5934C115.439 64.0843 115.317 64.5398 115.072 64.9599C114.827 65.3721 114.448 65.7093 113.933 65.9714C113.427 66.2257 112.778 66.3535 111.986 66.3548ZM119.787 66.3417C119.106 66.3429 118.496 66.1776 117.957 65.8459C117.417 65.5063 116.993 65.0161 116.683 64.3752C116.373 63.7343 116.217 62.9586 116.216 62.048C116.214 61.1373 116.367 60.3611 116.675 59.7191C116.982 59.0772 117.405 58.5895 117.943 58.256C118.481 57.9146 119.09 57.7434 119.771 57.7422C120.46 57.7411 121.07 57.9103 121.601 58.2499C122.14 58.5816 122.565 59.0679 122.875 59.7087C123.185 60.3496 123.341 61.1254 123.342 62.036C123.344 62.9466 123.191 63.7229 122.883 64.3648C122.576 65.0067 122.153 65.4984 121.615 65.8398C121.085 66.1732 120.476 66.3406 119.787 66.3417ZM119.784 64.7145C120.108 64.7139 120.389 64.6224 120.627 64.4399C120.872 64.2573 121.061 63.968 121.195 63.5718C121.337 63.1757 121.407 62.6648 121.406 62.0392C121.405 61.4137 121.333 60.9031 121.19 60.5074C121.054 60.1117 120.864 59.823 120.618 59.6413C120.38 59.4595 120.099 59.3689 119.774 59.3695C119.457 59.37 119.176 59.4615 118.931 59.6441C118.694 59.8266 118.505 60.116 118.363 60.5121C118.229 60.9083 118.162 61.4191 118.164 62.0447C118.165 62.6702 118.233 63.1809 118.368 63.5766C118.511 63.9723 118.702 64.261 118.94 64.4427C119.186 64.6244 119.467 64.715 119.784 64.7145ZM127.848 66.3282C127.167 66.3293 126.557 66.1641 126.018 65.8324C125.479 65.4928 125.055 65.0026 124.745 64.3617C124.435 63.7208 124.279 62.9451 124.277 62.0344C124.276 61.1238 124.429 60.3475 124.736 59.7056C125.044 59.0637 125.467 58.576 126.005 58.2425C126.542 57.9011 127.152 57.7298 127.833 57.7287C128.522 57.7276 129.132 57.8968 129.663 58.2364C130.202 58.5681 130.626 59.0543 130.936 59.6952C131.246 60.3361 131.402 61.1118 131.404 62.0225C131.405 62.9331 131.252 63.7094 130.945 64.3513C130.637 64.9932 130.214 65.4849 129.676 65.8263C129.146 66.1597 128.537 66.327 127.848 66.3282ZM127.845 64.7009C128.17 64.7004 128.451 64.6089 128.688 64.4263C128.933 64.2438 129.123 63.9545 129.257 63.5583C129.398 63.1621 129.469 62.6513 129.468 62.0257C129.467 61.4002 129.394 60.8895 129.251 60.4938C129.116 60.0981 128.925 59.8094 128.68 59.6277C128.442 59.446 128.16 59.3554 127.836 59.356C127.519 59.3565 127.238 59.448 126.993 59.6306C126.756 59.8131 126.566 60.1024 126.424 60.4986C126.29 60.8947 126.224 61.4056 126.225 62.0312C126.226 62.6567 126.294 63.1673 126.43 63.563C126.573 63.9587 126.764 64.2474 127.001 64.4292C127.247 64.6109 127.529 64.7015 127.845 64.7009ZM135.91 66.3147C135.229 66.3158 134.619 66.1505 134.08 65.8189C133.541 65.4793 133.116 64.989 132.806 64.3482C132.496 63.7073 132.34 62.9315 132.339 62.0209C132.337 61.1103 132.49 60.334 132.798 59.6921C133.105 59.0502 133.528 58.5625 134.066 58.229C134.604 57.8876 135.213 57.7163 135.894 57.7152C136.583 57.714 137.193 57.8832 137.724 58.2229C138.263 58.5545 138.688 59.0408 138.998 59.6817C139.308 60.3226 139.464 61.0983 139.465 62.0089C139.467 62.9196 139.314 63.6958 139.006 64.3378C138.699 64.9797 138.276 65.4713 137.738 65.8127C137.208 66.1462 136.599 66.3135 135.91 66.3147ZM135.907 64.6874C136.231 64.6869 136.512 64.5953 136.75 64.4128C136.995 64.2303 137.184 63.9409 137.318 63.5448C137.46 63.1486 137.53 62.6377 137.529 62.0122C137.528 61.3866 137.456 60.876 137.313 60.4803C137.177 60.0846 136.987 59.7959 136.741 59.6142C136.503 59.4325 136.222 59.3419 135.897 59.3424C135.581 59.343 135.3 59.4345 135.054 59.617C134.817 59.7996 134.628 60.0889 134.486 60.4851C134.352 60.8812 134.286 61.3921 134.287 62.0176C134.288 62.6432 134.356 63.1538 134.491 63.5495C134.635 63.9452 134.825 64.2339 135.063 64.4156C135.309 64.5974 135.59 64.6879 135.907 64.6874ZM144.294 66.1581L144.279 57.8436L147.878 57.8376C148.623 57.8364 149.264 57.958 149.803 58.2026C150.342 58.4392 150.758 58.783 151.052 59.2339C151.346 59.6847 151.493 60.2229 151.494 60.8485C151.496 61.4661 151.35 62.0009 151.058 62.4527C150.766 62.9046 150.351 63.2537 149.813 63.5001C149.274 63.7385 148.633 63.8584 147.889 63.8596L145.359 63.8639L146.213 62.9954L146.218 66.1548L144.294 66.1581ZM146.213 63.2092L145.356 62.296L147.779 62.2919C148.373 62.2909 148.816 62.1635 149.109 61.9096C149.401 61.6557 149.547 61.3031 149.546 60.8518C149.546 60.3925 149.399 60.0364 149.105 59.7835C148.812 59.5306 148.368 59.4046 147.774 59.4056L145.351 59.4097L146.205 58.4937L146.213 63.2092ZM155.824 66.2337C155.135 66.2349 154.521 66.0973 153.982 65.8211C153.443 65.5369 153.019 65.1457 152.709 64.6473C152.407 64.149 152.256 63.5831 152.255 62.9496C152.253 62.3082 152.403 61.7418 152.703 61.2503C153.011 60.7509 153.434 60.3622 153.972 60.0842C154.51 59.7982 155.123 59.6546 155.812 59.6535C156.485 59.6523 157.071 59.7939 157.571 60.0781C158.07 60.3544 158.439 60.7537 158.677 61.2759L157.242 62.0504C157.075 61.7498 156.865 61.5284 156.611 61.3863C156.365 61.2442 156.096 61.1733 155.803 61.1738C155.486 61.1744 155.201 61.2461 154.948 61.3891C154.695 61.532 154.493 61.7343 154.343 61.9959C154.201 62.2574 154.131 62.5743 154.131 62.9464C154.132 63.3186 154.204 63.6352 154.347 63.8963C154.498 64.1573 154.7 64.3589 154.954 64.501C155.207 64.6431 155.492 64.7139 155.809 64.7134C156.102 64.7129 156.371 64.6452 156.616 64.5101C156.87 64.3672 157.079 64.1411 157.245 63.832L158.683 64.6136C158.447 65.1287 158.079 65.5292 157.581 65.8151C157.083 66.093 156.497 66.2326 155.824 66.2337ZM161.903 66.2235C161.357 66.2244 160.83 66.162 160.323 66.0361C159.824 65.9024 159.428 65.7367 159.134 65.5393L159.75 64.2079C160.043 64.3896 160.388 64.5394 160.784 64.6575C161.188 64.7677 161.584 64.8225 161.972 64.8218C162.399 64.8211 162.7 64.7691 162.874 64.6659C163.056 64.5627 163.147 64.42 163.147 64.2379C163.146 64.0874 163.075 63.9767 162.932 63.9056C162.797 63.8267 162.615 63.7676 162.386 63.7284C162.156 63.6892 161.902 63.65 161.625 63.6109C161.356 63.5717 161.083 63.5207 160.805 63.4579C160.528 63.3871 160.274 63.2845 160.045 63.1503C159.815 63.0161 159.628 62.8343 159.485 62.6049C159.35 62.3755 159.283 62.0786 159.282 61.7144C159.281 61.3105 159.395 60.954 159.624 60.6448C159.861 60.3356 160.201 60.0935 160.645 59.9185C161.088 59.7357 161.618 59.6437 162.236 59.6427C162.671 59.642 163.115 59.6887 163.566 59.783C164.018 59.8773 164.394 60.0152 164.695 60.1968L164.08 61.5163C163.771 61.3347 163.458 61.2125 163.141 61.1496C162.832 61.0789 162.531 61.0438 162.238 61.0443C161.826 61.045 161.526 61.1009 161.336 61.2121C161.146 61.3232 161.051 61.4659 161.052 61.6401C161.052 61.7985 161.119 61.9172 161.254 61.9961C161.397 62.0751 161.583 62.1381 161.813 62.1852C162.042 62.2324 162.292 62.2755 162.561 62.3146C162.838 62.3458 163.116 62.3969 163.393 62.4677C163.67 62.5385 163.92 62.641 164.142 62.7752C164.372 62.9015 164.558 63.0794 164.701 63.3088C164.844 63.5303 164.916 63.8231 164.916 64.1874C164.917 64.5833 164.799 64.9359 164.562 65.2451C164.325 65.5464 163.981 65.7845 163.53 65.9595C163.087 66.1344 162.544 66.2225 161.903 66.2235ZM167.101 68.4241L165.331 68.427C165.844 67.5314 166.21 66.632 166.431 65.7289C166.659 64.8179 166.772 63.8636 166.77 62.8658C166.768 61.8681 166.652 60.9181 166.42 60.0158C166.197 59.1055 165.827 58.2034 165.311 57.3095L167.081 57.3065C167.573 58.0104 167.947 58.8413 168.202 59.799C168.457 60.7488 168.585 61.77 168.587 62.8628C168.589 63.9555 168.464 64.9772 168.213 65.9279C167.961 66.8706 167.59 67.7027 167.101 68.4241Z" fill="black"/>
<path d="M177.182 61.4922H207.598" stroke="url(#paint0_linear_2040_575)" stroke-width="0.863039"/>
<path d="M30.418 62.5488H0.00151467" stroke="url(#paint1_linear_2040_575)" stroke-width="0.863039"/>
<defs>
<linearGradient id="paint0_linear_2040_575" x1="203.036" y1="61.9922" x2="177.689" y2="61.9922" gradientUnits="userSpaceOnUse">
<stop stop-color="#666666" stop-opacity="0"/>
<stop offset="1"/>
</linearGradient>
<linearGradient id="paint1_linear_2040_575" x1="4.56398" y1="63.0488" x2="29.911" y2="63.0488" gradientUnits="userSpaceOnUse">
<stop stop-color="#666666" stop-opacity="0"/>
<stop offset="1"/>
</linearGradient>
</defs>
</svg>
