<svg width="228" height="45" viewBox="0 0 228 45" fill="none" xmlns="http://www.w3.org/2000/svg">
<path d="M1.30514 15.436V1.16221H7.32053C8.84307 1.16221 10.1821 1.46128 11.3376 2.05942C12.5067 2.65757 13.4107 3.4936 14.0496 4.56754C14.7021 5.64147 15.0284 6.88534 15.0284 8.29912C15.0284 9.71291 14.7021 10.9568 14.0496 12.0307C13.4107 13.1046 12.5067 13.9407 11.3376 14.5388C10.1821 15.137 8.84307 15.436 7.32053 15.436H1.30514ZM3.34425 13.662H7.19819C8.38087 13.662 9.40043 13.4377 10.2569 12.9891C11.1269 12.5405 11.7998 11.9152 12.2756 11.1131C12.7514 10.2975 12.9893 9.35946 12.9893 8.29912C12.9893 7.22519 12.7514 6.28719 12.2756 5.48514C11.7998 4.68309 11.1269 4.05776 10.2569 3.60915C9.40043 3.16055 8.38087 2.93624 7.19819 2.93624H3.34425V13.662ZM22.6786 15.5584C21.5231 15.5584 20.5035 15.3205 19.6199 14.8447C18.7499 14.3689 18.0702 13.7164 17.5808 12.8871C17.105 12.0579 16.8671 11.1063 16.8671 10.0324C16.8671 8.95844 17.0982 8.00685 17.5604 7.17761C18.0362 6.34837 18.6819 5.70265 19.4976 5.24045C20.3268 4.76465 21.258 4.52676 22.2912 4.52676C23.3379 4.52676 24.2623 4.75786 25.0644 5.22006C25.8664 5.68226 26.4917 6.33477 26.9403 7.17761C27.4025 8.00685 27.6336 8.97883 27.6336 10.0935C27.6336 10.1751 27.6269 10.2703 27.6133 10.379C27.6133 10.4878 27.6065 10.5897 27.5929 10.6849H18.3964V9.2779H26.5733L25.7781 9.76729C25.7916 9.07399 25.6489 8.45546 25.3498 7.91169C25.0508 7.36793 24.6361 6.94651 24.106 6.64744C23.5894 6.33477 22.9845 6.17844 22.2912 6.17844C21.6115 6.17844 21.0065 6.33477 20.4763 6.64744C19.9462 6.94651 19.5316 7.37472 19.2325 7.93208C18.9334 8.47585 18.7839 9.10118 18.7839 9.80807V10.1343C18.7839 10.8548 18.947 11.5005 19.2733 12.0715C19.6131 12.6289 20.0821 13.0639 20.6803 13.3765C21.2784 13.6892 21.9649 13.8455 22.7398 13.8455C23.3787 13.8455 23.9564 13.7368 24.473 13.5193C25.0032 13.3018 25.4654 12.9755 25.8596 12.5405L26.9403 13.8047C26.451 14.3757 25.8392 14.8107 25.1051 15.1098C24.3847 15.4088 23.5758 15.5584 22.6786 15.5584ZM33.4513 15.5584C32.5541 15.5584 31.6977 15.436 30.8821 15.1913C30.08 14.9466 29.4479 14.6476 28.9857 14.2941L29.8013 12.7444C30.2635 13.0571 30.8345 13.3222 31.5142 13.5397C32.1939 13.7572 32.8872 13.8659 33.5941 13.8659C34.5049 13.8659 35.1574 13.7368 35.5516 13.4785C35.9595 13.2202 36.1634 12.86 36.1634 12.3978C36.1634 12.0579 36.041 11.7928 35.7963 11.6025C35.5516 11.4122 35.2254 11.2694 34.8176 11.1743C34.4233 11.0791 33.9815 10.9976 33.4921 10.9296C33.0027 10.848 32.5133 10.7529 32.024 10.6441C31.5346 10.5218 31.086 10.3586 30.6781 10.1547C30.2703 9.93722 29.9441 9.64494 29.6994 9.2779C29.4547 8.89726 29.3323 8.39428 29.3323 7.76895C29.3323 7.11644 29.5158 6.54548 29.8829 6.05609C30.2499 5.56671 30.7665 5.19287 31.4326 4.93458C32.1123 4.6627 32.9144 4.52676 33.8388 4.52676C34.5457 4.52676 35.2594 4.61512 35.9798 4.79184C36.7139 4.95497 37.3121 5.19287 37.7743 5.50553L36.9382 7.05526C36.4488 6.729 35.9391 6.5047 35.4089 6.38235C34.8787 6.26001 34.3486 6.19883 33.8184 6.19883C32.962 6.19883 32.323 6.34157 31.9016 6.62705C31.4802 6.89893 31.2695 7.25238 31.2695 7.68739C31.2695 8.05443 31.3918 8.33991 31.6365 8.54382C31.8948 8.73414 32.2211 8.88367 32.6153 8.99242C33.0231 9.10118 33.4717 9.19634 33.9611 9.2779C34.4505 9.34587 34.9399 9.44103 35.4293 9.56338C35.9187 9.67213 36.3605 9.82846 36.7547 10.0324C37.1625 10.2363 37.4888 10.5218 37.7335 10.8888C37.9918 11.2558 38.1209 11.7452 38.1209 12.357C38.1209 13.0095 37.9306 13.5736 37.55 14.0494C37.1693 14.5252 36.6324 14.8991 35.9391 15.1709C35.2458 15.4292 34.4165 15.5584 33.4513 15.5584ZM40.5674 15.436V4.62871H42.5249V15.436H40.5674ZM41.5462 2.54881C41.1655 2.54881 40.8461 2.42647 40.5878 2.18177C40.3431 1.93708 40.2207 1.63801 40.2207 1.28456C40.2207 0.917519 40.3431 0.611651 40.5878 0.366957C40.8461 0.122263 41.1655 -8.43944e-05 41.5462 -8.43944e-05C41.9268 -8.43944e-05 42.2395 0.122263 42.4842 0.366957C42.7424 0.598056 42.8716 0.89033 42.8716 1.24378C42.8716 1.61082 42.7492 1.92348 42.5046 2.18177C42.2599 2.42647 41.9404 2.54881 41.5462 2.54881ZM50.9933 19.5143C50.001 19.5143 49.0358 19.3715 48.0978 19.0861C47.1734 18.8142 46.4189 18.4199 45.8344 17.9034L46.7724 16.3944C47.2753 16.8294 47.8939 17.1693 48.628 17.414C49.362 17.6723 50.1301 17.8014 50.9322 17.8014C52.21 17.8014 53.148 17.5023 53.7461 16.9042C54.3443 16.3061 54.6434 15.3953 54.6434 14.1718V11.888L54.8473 9.7469L54.7453 7.58543V4.62871H56.6009V13.9679C56.6009 15.871 56.1251 17.2712 55.1735 18.1685C54.2219 19.0657 52.8285 19.5143 50.9933 19.5143ZM50.7486 14.9874C49.7019 14.9874 48.7639 14.7699 47.9347 14.3349C47.119 13.8863 46.4665 13.2678 45.9771 12.4793C45.5013 11.6909 45.2634 10.7801 45.2634 9.7469C45.2634 8.70015 45.5013 7.78934 45.9771 7.01448C46.4665 6.22602 47.119 5.61429 47.9347 5.17927C48.7639 4.74426 49.7019 4.52676 50.7486 4.52676C51.673 4.52676 52.5159 4.71707 53.2771 5.09771C54.0384 5.46475 54.6434 6.0357 55.092 6.81057C55.5542 7.58543 55.7853 8.56421 55.7853 9.7469C55.7853 10.916 55.5542 11.888 55.092 12.6628C54.6434 13.4377 54.0384 14.0222 53.2771 14.4165C52.5159 14.7971 51.673 14.9874 50.7486 14.9874ZM50.9729 13.2746C51.6934 13.2746 52.3324 13.125 52.8897 12.826C53.4471 12.5269 53.8821 12.1123 54.1947 11.5821C54.521 11.0519 54.6841 10.4402 54.6841 9.7469C54.6841 9.0536 54.521 8.44186 54.1947 7.91169C53.8821 7.38152 53.4471 6.9737 52.8897 6.68822C52.3324 6.38915 51.6934 6.23961 50.9729 6.23961C50.2525 6.23961 49.6067 6.38915 49.0358 6.68822C48.4784 6.9737 48.0366 7.38152 47.7104 7.91169C47.3977 8.44186 47.2414 9.0536 47.2414 9.7469C47.2414 10.4402 47.3977 11.0519 47.7104 11.5821C48.0366 12.1123 48.4784 12.5269 49.0358 12.826C49.6067 13.125 50.2525 13.2746 50.9729 13.2746ZM66.112 4.52676C66.9956 4.52676 67.7704 4.69668 68.4365 5.03654C69.1163 5.37639 69.6464 5.89297 70.0271 6.58627C70.4077 7.27957 70.598 8.15639 70.598 9.21673V15.436H68.6405V9.44103C68.6405 8.39428 68.3822 7.60582 67.8656 7.07565C67.3626 6.54548 66.6489 6.2804 65.7245 6.2804C65.0312 6.2804 64.4263 6.41634 63.9097 6.68822C63.3931 6.9601 62.9921 7.36113 62.7066 7.8913C62.4347 8.42147 62.2988 9.08079 62.2988 9.86924V15.436H60.3412V4.62871H62.2172V7.54465L61.9114 6.76979C62.2648 6.06289 62.8086 5.51233 63.5427 5.1181C64.2767 4.72387 65.1332 4.52676 66.112 4.52676ZM79.0331 15.5584C77.8776 15.5584 76.8581 15.3205 75.9744 14.8447C75.1044 14.3689 74.4247 13.7164 73.9353 12.8871C73.4595 12.0579 73.2216 11.1063 73.2216 10.0324C73.2216 8.95844 73.4527 8.00685 73.9149 7.17761C74.3907 6.34837 75.0364 5.70265 75.8521 5.24045C76.6813 4.76465 77.6125 4.52676 78.6457 4.52676C79.6924 4.52676 80.6168 4.75786 81.4189 5.22006C82.2209 5.68226 82.8463 6.33477 83.2949 7.17761C83.7571 8.00685 83.9882 8.97883 83.9882 10.0935C83.9882 10.1751 83.9814 10.2703 83.9678 10.379C83.9678 10.4878 83.961 10.5897 83.9474 10.6849H74.751V9.2779H82.9278L82.1326 9.76729C82.1462 9.07399 82.0034 8.45546 81.7044 7.91169C81.4053 7.36793 80.9907 6.94651 80.4605 6.64744C79.9439 6.33477 79.339 6.17844 78.6457 6.17844C77.966 6.17844 77.361 6.33477 76.8309 6.64744C76.3007 6.94651 75.8861 7.37472 75.587 7.93208C75.2879 8.47585 75.1384 9.10118 75.1384 9.80807V10.1343C75.1384 10.8548 75.3015 11.5005 75.6278 12.0715C75.9676 12.6289 76.4366 13.0639 77.0348 13.3765C77.6329 13.6892 78.3194 13.8455 79.0943 13.8455C79.7332 13.8455 80.311 13.7368 80.8275 13.5193C81.3577 13.3018 81.8199 12.9755 82.2141 12.5405L83.2949 13.8047C82.8055 14.3757 82.1937 14.8107 81.4597 15.1098C80.7392 15.4088 79.9303 15.5584 79.0331 15.5584ZM91.1721 15.5584C90.1253 15.5584 89.1873 15.3273 88.3581 14.8651C87.5424 14.4029 86.8967 13.7572 86.4209 12.9279C85.9451 12.0987 85.7072 11.1335 85.7072 10.0324C85.7072 8.93125 85.9451 7.97287 86.4209 7.15722C86.8967 6.32798 87.5424 5.68226 88.3581 5.22006C89.1873 4.75786 90.1253 4.52676 91.1721 4.52676C92.0829 4.52676 92.9053 4.73067 93.6394 5.13849C94.3735 5.54632 94.958 6.15805 95.393 6.9737C95.8417 7.78934 96.066 8.8089 96.066 10.0324C96.066 11.2558 95.8484 12.2754 95.4134 13.0911C94.992 13.9067 94.4143 14.5252 93.6802 14.9466C92.9461 15.3545 92.1101 15.5584 91.1721 15.5584ZM91.3352 13.8455C92.0149 13.8455 92.6266 13.6892 93.1704 13.3765C93.7278 13.0639 94.1628 12.6221 94.4754 12.0511C94.8017 11.4666 94.9648 10.7936 94.9648 10.0324C94.9648 9.25751 94.8017 8.5914 94.4754 8.03404C94.1628 7.46309 93.7278 7.02128 93.1704 6.70861C92.6266 6.39595 92.0149 6.23961 91.3352 6.23961C90.6419 6.23961 90.0234 6.39595 89.4796 6.70861C88.9358 7.02128 88.5008 7.46309 88.1746 8.03404C87.8483 8.5914 87.6852 9.25751 87.6852 10.0324C87.6852 10.7936 87.8483 11.4666 88.1746 12.0511C88.5008 12.6221 88.9358 13.0639 89.4796 13.3765C90.0234 13.6892 90.6419 13.8455 91.3352 13.8455ZM95.026 15.436V12.5201L95.1484 10.012L94.9444 7.50387V0.305783H96.902V15.436H95.026ZM106.367 15.436V3.67033C106.367 2.60999 106.673 1.76715 107.285 1.14182C107.91 0.502898 108.794 0.183436 109.936 0.183436C110.357 0.183436 110.758 0.237813 111.139 0.346566C111.533 0.441724 111.866 0.598057 112.138 0.815563L111.547 2.30412C111.343 2.14099 111.112 2.01864 110.854 1.93708C110.595 1.84192 110.323 1.79434 110.038 1.79434C109.467 1.79434 109.032 1.95747 108.733 2.28373C108.434 2.59639 108.284 3.06539 108.284 3.69072V5.13849L108.325 6.0357V15.436H106.367ZM104.532 6.23961V4.62871H111.424V6.23961H104.532ZM117.74 15.5584C116.653 15.5584 115.687 15.3205 114.845 14.8447C114.002 14.3689 113.336 13.7164 112.846 12.8871C112.357 12.0443 112.112 11.0927 112.112 10.0324C112.112 8.95844 112.357 8.00685 112.846 7.17761C113.336 6.34837 114.002 5.70265 114.845 5.24045C115.687 4.76465 116.653 4.52676 117.74 4.52676C118.814 4.52676 119.772 4.76465 120.615 5.24045C121.472 5.70265 122.138 6.34837 122.614 7.17761C123.103 7.99326 123.348 8.94484 123.348 10.0324C123.348 11.1063 123.103 12.0579 122.614 12.8871C122.138 13.7164 121.472 14.3689 120.615 14.8447C119.772 15.3205 118.814 15.5584 117.74 15.5584ZM117.74 13.8455C118.433 13.8455 119.052 13.6892 119.596 13.3765C120.153 13.0639 120.588 12.6221 120.901 12.0511C121.213 11.4666 121.37 10.7936 121.37 10.0324C121.37 9.25751 121.213 8.5914 120.901 8.03404C120.588 7.46309 120.153 7.02128 119.596 6.70861C119.052 6.39595 118.433 6.23961 117.74 6.23961C117.047 6.23961 116.428 6.39595 115.885 6.70861C115.341 7.02128 114.906 7.46309 114.58 8.03404C114.253 8.5914 114.09 9.25751 114.09 10.0324C114.09 10.7936 114.253 11.4666 114.58 12.0511C114.906 12.6221 115.341 13.0639 115.885 13.3765C116.428 13.6892 117.047 13.8455 117.74 13.8455ZM126.055 15.436V4.62871H127.931V7.56504L127.747 6.83096C128.047 6.08328 128.55 5.51233 129.256 5.1181C129.963 4.72387 130.833 4.52676 131.866 4.52676V6.42314C131.785 6.40954 131.703 6.40274 131.622 6.40274C131.554 6.40274 131.486 6.40274 131.418 6.40274C130.371 6.40274 129.542 6.71541 128.93 7.34074C128.318 7.96607 128.013 8.87008 128.013 10.0528V15.436H126.055ZM142.015 7.91169H149.377V9.66533H142.015V7.91169ZM142.219 15.436H140.18V1.16221H150.253V2.93624H142.219V15.436ZM157.129 15.5584C156.041 15.5584 155.076 15.3205 154.233 14.8447C153.39 14.3689 152.724 13.7164 152.235 12.8871C151.745 12.0443 151.501 11.0927 151.501 10.0324C151.501 8.95844 151.745 8.00685 152.235 7.17761C152.724 6.34837 153.39 5.70265 154.233 5.24045C155.076 4.76465 156.041 4.52676 157.129 4.52676C158.203 4.52676 159.161 4.76465 160.004 5.24045C160.86 5.70265 161.526 6.34837 162.002 7.17761C162.491 7.99326 162.736 8.94484 162.736 10.0324C162.736 11.1063 162.491 12.0579 162.002 12.8871C161.526 13.7164 160.86 14.3689 160.004 14.8447C159.161 15.3205 158.203 15.5584 157.129 15.5584ZM157.129 13.8455C157.822 13.8455 158.44 13.6892 158.984 13.3765C159.542 13.0639 159.977 12.6221 160.289 12.0511C160.602 11.4666 160.758 10.7936 160.758 10.0324C160.758 9.25751 160.602 8.5914 160.289 8.03404C159.977 7.46309 159.542 7.02128 158.984 6.70861C158.44 6.39595 157.822 6.23961 157.129 6.23961C156.435 6.23961 155.817 6.39595 155.273 6.70861C154.729 7.02128 154.294 7.46309 153.968 8.03404C153.642 8.5914 153.479 9.25751 153.479 10.0324C153.479 10.7936 153.642 11.4666 153.968 12.0511C154.294 12.6221 154.729 13.0639 155.273 13.3765C155.817 13.6892 156.435 13.8455 157.129 13.8455ZM170.072 15.5584C168.985 15.5584 168.019 15.3205 167.177 14.8447C166.334 14.3689 165.668 13.7164 165.178 12.8871C164.689 12.0443 164.444 11.0927 164.444 10.0324C164.444 8.95844 164.689 8.00685 165.178 7.17761C165.668 6.34837 166.334 5.70265 167.177 5.24045C168.019 4.76465 168.985 4.52676 170.072 4.52676C171.146 4.52676 172.105 4.76465 172.947 5.24045C173.804 5.70265 174.47 6.34837 174.946 7.17761C175.435 7.99326 175.68 8.94484 175.68 10.0324C175.68 11.1063 175.435 12.0579 174.946 12.8871C174.47 13.7164 173.804 14.3689 172.947 14.8447C172.105 15.3205 171.146 15.5584 170.072 15.5584ZM170.072 13.8455C170.766 13.8455 171.384 13.6892 171.928 13.3765C172.485 13.0639 172.92 12.6221 173.233 12.0511C173.546 11.4666 173.702 10.7936 173.702 10.0324C173.702 9.25751 173.546 8.5914 173.233 8.03404C172.92 7.46309 172.485 7.02128 171.928 6.70861C171.384 6.39595 170.766 6.23961 170.072 6.23961C169.379 6.23961 168.76 6.39595 168.217 6.70861C167.673 7.02128 167.238 7.46309 166.912 8.03404C166.585 8.5914 166.422 9.25751 166.422 10.0324C166.422 10.7936 166.585 11.4666 166.912 12.0511C167.238 12.6221 167.673 13.0639 168.217 13.3765C168.76 13.6892 169.379 13.8455 170.072 13.8455ZM182.853 15.5584C181.806 15.5584 180.868 15.3273 180.039 14.8651C179.223 14.4029 178.577 13.7572 178.102 12.9279C177.626 12.0987 177.388 11.1335 177.388 10.0324C177.388 8.93125 177.626 7.97287 178.102 7.15722C178.577 6.32798 179.223 5.68226 180.039 5.22006C180.868 4.75786 181.806 4.52676 182.853 4.52676C183.764 4.52676 184.586 4.73067 185.32 5.13849C186.054 5.54632 186.639 6.15805 187.074 6.9737C187.522 7.78934 187.747 8.8089 187.747 10.0324C187.747 11.2558 187.529 12.2754 187.094 13.0911C186.673 13.9067 186.095 14.5252 185.361 14.9466C184.627 15.3545 183.791 15.5584 182.853 15.5584ZM183.016 13.8455C183.696 13.8455 184.307 13.6892 184.851 13.3765C185.408 13.0639 185.843 12.6221 186.156 12.0511C186.482 11.4666 186.645 10.7936 186.645 10.0324C186.645 9.25751 186.482 8.5914 186.156 8.03404C185.843 7.46309 185.408 7.02128 184.851 6.70861C184.307 6.39595 183.696 6.23961 183.016 6.23961C182.323 6.23961 181.704 6.39595 181.16 6.70861C180.616 7.02128 180.181 7.46309 179.855 8.03404C179.529 8.5914 179.366 9.25751 179.366 10.0324C179.366 10.7936 179.529 11.4666 179.855 12.0511C180.181 12.6221 180.616 13.0639 181.16 13.3765C181.704 13.6892 182.323 13.8455 183.016 13.8455ZM186.707 15.436V12.5201L186.829 10.012L186.625 7.50387V0.305783H188.583V15.436H186.707ZM5.46494 40.5992C4.37741 40.5992 3.33746 40.436 2.34509 40.1098C1.35272 39.7699 0.571054 39.3349 0.00010067 38.8047L0.754574 37.2142C1.29834 37.69 1.99164 38.0843 2.83447 38.3969C3.67731 38.7096 4.55413 38.8659 5.46494 38.8659C6.29418 38.8659 6.96709 38.7708 7.48366 38.5804C8.00024 38.3901 8.38087 38.1318 8.62557 37.8056C8.87026 37.4657 8.99261 37.0851 8.99261 36.6637C8.99261 36.1743 8.82948 35.7801 8.50322 35.481C8.19056 35.1819 7.77594 34.944 7.25936 34.7673C6.75638 34.577 6.19902 34.4138 5.58728 34.2779C4.97555 34.142 4.35702 33.9856 3.73169 33.8089C3.11995 33.6186 2.55579 33.3807 2.03922 33.0952C1.53624 32.8097 1.12841 32.4291 0.815748 31.9533C0.503083 31.4639 0.346751 30.8386 0.346751 30.0773C0.346751 29.3432 0.537068 28.6703 0.917704 28.0586C1.31193 27.4333 1.91007 26.9371 2.71213 26.57C3.52777 26.1894 4.56093 25.9991 5.81159 25.9991C6.64083 25.9991 7.46327 26.1078 8.27892 26.3253C9.09456 26.5428 9.80146 26.8555 10.3996 27.2633L9.72669 28.8946C9.11496 28.4868 8.46924 28.1945 7.78953 28.0178C7.10982 27.8275 6.45051 27.7323 5.81159 27.7323C5.00953 27.7323 4.35022 27.8343 3.83364 28.0382C3.31707 28.2421 2.93643 28.514 2.69174 28.8538C2.46064 29.1937 2.34509 29.5743 2.34509 29.9958C2.34509 30.4987 2.50142 30.8998 2.81408 31.1988C3.14034 31.4979 3.55496 31.7358 4.05794 31.9125C4.57452 32.0892 5.13868 32.2524 5.75041 32.4019C6.36215 32.5379 6.97388 32.6942 7.58562 32.8709C8.21095 33.0476 8.7751 33.2787 9.27809 33.5642C9.79466 33.8497 10.2093 34.2303 10.5219 34.7061C10.8346 35.1819 10.9909 35.7936 10.9909 36.5413C10.9909 37.2618 10.7938 37.9347 10.3996 38.56C10.0054 39.1718 9.39364 39.668 8.56439 40.0486C7.74875 40.4156 6.71559 40.5992 5.46494 40.5992ZM20.3932 40.436V38.1522L20.2912 37.724V33.8293C20.2912 33.0001 20.0465 32.3611 19.5571 31.9125C19.0814 31.4503 18.3609 31.2192 17.3957 31.2192C16.7568 31.2192 16.1314 31.328 15.5197 31.5455C14.908 31.7494 14.3914 32.0281 13.97 32.3815L13.1543 30.9134C13.7117 30.4648 14.3778 30.1249 15.1527 29.8938C15.9411 29.6491 16.7636 29.5268 17.62 29.5268C19.1017 29.5268 20.2437 29.887 21.0457 30.6075C21.8478 31.328 22.2488 32.4291 22.2488 33.9109V40.436H20.3932ZM16.8451 40.5584C16.0431 40.5584 15.3362 40.4224 14.7244 40.1506C14.1263 39.8787 13.6641 39.5048 13.3378 39.029C13.0116 38.5397 12.8485 37.9891 12.8485 37.3774C12.8485 36.7928 12.9844 36.2626 13.2563 35.7868C13.5418 35.3111 13.9972 34.9304 14.6225 34.6449C15.2614 34.3595 16.1178 34.2167 17.1918 34.2167H20.6175V35.6237H17.2733C16.2946 35.6237 15.6352 35.7868 15.2954 36.1131C14.9555 36.4394 14.7856 36.8336 14.7856 37.2958C14.7856 37.826 14.9963 38.2542 15.4177 38.5804C15.8392 38.8931 16.4237 39.0494 17.1714 39.0494C17.9055 39.0494 18.5444 38.8863 19.0882 38.56C19.6455 38.2338 20.0465 37.758 20.2912 37.1327L20.6787 38.4785C20.4204 39.1174 19.965 39.6272 19.3125 40.0078C18.6599 40.3749 17.8375 40.5584 16.8451 40.5584ZM26.1569 40.436V28.6703C26.1569 27.61 26.4627 26.7672 27.0745 26.1418C27.6998 25.5029 28.5834 25.1834 29.7253 25.1834C30.1468 25.1834 30.5478 25.2378 30.9284 25.3466C31.3226 25.4417 31.6557 25.5981 31.9276 25.8156L31.3362 27.3041C31.1323 27.141 30.9012 27.0186 30.6429 26.9371C30.3847 26.8419 30.1128 26.7943 29.8273 26.7943C29.2563 26.7943 28.8213 26.9575 28.5223 27.2837C28.2232 27.5964 28.0737 28.0654 28.0737 28.6907V30.1385L28.1144 31.0357V40.436H26.1569ZM24.3217 31.2396V29.6287H31.2139V31.2396H24.3217ZM37.7131 40.5584C36.5576 40.5584 35.538 40.3205 34.6544 39.8447C33.7844 39.3689 33.1047 38.7164 32.6153 37.8871C32.1395 37.0579 31.9016 36.1063 31.9016 35.0324C31.9016 33.9584 32.1327 33.0069 32.5949 32.1776C33.0707 31.3484 33.7164 30.7026 34.5321 30.2404C35.3613 29.7647 36.2925 29.5268 37.3257 29.5268C38.3724 29.5268 39.2968 29.7579 40.0989 30.2201C40.9009 30.6823 41.5262 31.3348 41.9749 32.1776C42.4371 33.0069 42.6682 33.9788 42.6682 35.0935C42.6682 35.1751 42.6614 35.2703 42.6478 35.379C42.6478 35.4878 42.641 35.5897 42.6274 35.6849H33.431V34.2779H41.6078L40.8126 34.7673C40.8262 34.074 40.6834 33.4555 40.3843 32.9117C40.0853 32.3679 39.6707 31.9465 39.1405 31.6474C38.6239 31.3348 38.019 31.1784 37.3257 31.1784C36.646 31.1784 36.041 31.3348 35.5109 31.6474C34.9807 31.9465 34.5661 32.3747 34.267 32.9321C33.9679 33.4758 33.8184 34.1012 33.8184 34.8081V35.1343C33.8184 35.8548 33.9815 36.5005 34.3078 37.0715C34.6476 37.6289 35.1166 38.0639 35.7148 38.3765C36.3129 38.6892 36.9994 38.8455 37.7743 38.8455C38.4132 38.8455 38.9909 38.7368 39.5075 38.5193C40.0377 38.3018 40.4999 37.9755 40.8941 37.5405L41.9749 38.8047C41.4855 39.3757 40.8737 39.8107 40.1396 40.1098C39.4192 40.4088 38.6103 40.5584 37.7131 40.5584ZM49.0976 40.5584C48.0101 40.5584 47.1672 40.2661 46.5691 39.6816C45.9709 39.097 45.6719 38.261 45.6719 37.1734V27.2633H47.6294V37.0919C47.6294 37.6764 47.7722 38.125 48.0576 38.4377C48.3567 38.7504 48.7781 38.9067 49.3219 38.9067C49.9336 38.9067 50.4434 38.7368 50.8512 38.3969L51.463 39.8039C51.1639 40.0622 50.8036 40.2525 50.3822 40.3749C49.9744 40.4972 49.5462 40.5584 49.0976 40.5584ZM43.8367 31.2396V29.6287H50.7289V31.2396H43.8367ZM54.0995 44.5143C53.5829 44.5143 53.0799 44.4259 52.5905 44.2492C52.1011 44.0861 51.6797 43.8414 51.3263 43.5151L52.1623 42.0469C52.4342 42.3052 52.7333 42.5023 53.0595 42.6383C53.3858 42.7742 53.7324 42.8422 54.0995 42.8422C54.5753 42.8422 54.9695 42.7198 55.2822 42.4752C55.5948 42.2305 55.8871 41.7954 56.159 41.1701L56.8319 39.6816L57.0358 39.4369L61.2772 29.6287H63.1939L57.9534 41.5168C57.6407 42.278 57.2873 42.8762 56.8931 43.3112C56.5124 43.7462 56.091 44.0521 55.6288 44.2288C55.1666 44.4191 54.6568 44.5143 54.0995 44.5143ZM56.6688 40.7827L51.7341 29.6287H53.7732L57.9738 39.2533L56.6688 40.7827ZM74.5549 40.5992C73.5897 40.5992 72.7332 40.4428 71.9856 40.1302C71.2379 39.8175 70.6465 39.3825 70.2115 38.8251C69.7765 38.2678 69.559 37.6221 69.559 36.888C69.559 36.249 69.7018 35.6645 69.9872 35.1343C70.2727 34.6042 70.7281 34.0944 71.3534 33.605C71.9788 33.102 72.8012 32.5854 73.8208 32.0553C74.65 31.6203 75.2957 31.2396 75.7579 30.9134C76.2337 30.5871 76.5668 30.2812 76.7571 29.9958C76.961 29.6967 77.063 29.3772 77.063 29.0374C77.063 28.5752 76.8998 28.2013 76.5736 27.9159C76.2473 27.6168 75.7783 27.4672 75.1666 27.4672C74.5277 27.4672 74.0247 27.6304 73.6576 27.9566C73.3042 28.2693 73.1275 28.6839 73.1275 29.2005C73.1275 29.4588 73.1683 29.7103 73.2498 29.955C73.345 30.1861 73.5081 30.4512 73.7392 30.7502C73.9839 31.0357 74.3305 31.4027 74.7792 31.8514L82.3239 39.3553L81.2228 40.6603L73.209 32.6874C72.7332 32.2116 72.3594 31.7902 72.0875 31.4231C71.8156 31.0425 71.6185 30.6755 71.4962 30.322C71.3738 29.9686 71.3127 29.6083 71.3127 29.2413C71.3127 28.6024 71.469 28.045 71.7817 27.5692C72.1079 27.0798 72.5565 26.706 73.1275 26.4477C73.712 26.1758 74.3917 26.0399 75.1666 26.0399C75.8871 26.0399 76.5124 26.1622 77.0426 26.4069C77.5727 26.638 77.9806 26.9779 78.266 27.4265C78.5651 27.8615 78.7147 28.3916 78.7147 29.017C78.7147 29.5607 78.5787 30.0637 78.3068 30.5259C78.0485 30.9881 77.6271 31.4367 77.0426 31.8717C76.458 32.3068 75.6696 32.7758 74.6772 33.2787C73.8616 33.7002 73.2226 34.0944 72.7604 34.4614C72.2982 34.8149 71.9652 35.1683 71.7613 35.5218C71.5709 35.8752 71.4758 36.2626 71.4758 36.6841C71.4758 37.1327 71.6049 37.5337 71.8632 37.8871C72.1351 38.227 72.5089 38.4921 72.9847 38.6824C73.4741 38.8727 74.0383 38.9679 74.6772 38.9679C75.588 38.9679 76.4104 38.7708 77.1445 38.3765C77.8786 37.9823 78.4903 37.391 78.9797 36.6025C79.4827 35.814 79.8498 34.8353 80.0809 33.6662L81.651 34.1759C81.3791 35.549 80.9101 36.7112 80.244 37.6628C79.5915 38.6144 78.7826 39.3417 77.8174 39.8447C76.8523 40.3477 75.7647 40.5992 74.5549 40.5992ZM94.3975 40.5992C93.31 40.5992 92.2701 40.436 91.2777 40.1098C90.2853 39.7699 89.5037 39.3349 88.9327 38.8047L89.6872 37.2142C90.2309 37.69 90.9242 38.0843 91.7671 38.3969C92.6099 38.7096 93.4867 38.8659 94.3975 38.8659C95.2268 38.8659 95.8997 38.7708 96.4163 38.5804C96.9328 38.3901 97.3135 38.1318 97.5582 37.8056C97.8029 37.4657 97.9252 37.0851 97.9252 36.6637C97.9252 36.1743 97.7621 35.7801 97.4358 35.481C97.1232 35.1819 96.7085 34.944 96.192 34.7673C95.689 34.577 95.1316 34.4138 94.5199 34.2779C93.9081 34.142 93.2896 33.9856 92.6643 33.8089C92.0526 33.6186 91.4884 33.3807 90.9718 33.0952C90.4688 32.8097 90.061 32.4291 89.7483 31.9533C89.4357 31.4639 89.2794 30.8386 89.2794 30.0773C89.2794 29.3432 89.4697 28.6703 89.8503 28.0586C90.2445 27.4333 90.8427 26.9371 91.6447 26.57C92.4604 26.1894 93.4935 25.9991 94.7442 25.9991C95.5734 25.9991 96.3959 26.1078 97.2115 26.3253C98.0272 26.5428 98.7341 26.8555 99.3322 27.2633L98.6593 28.8946C98.0476 28.4868 97.4018 28.1945 96.7221 28.0178C96.0424 27.8275 95.3831 27.7323 94.7442 27.7323C93.9421 27.7323 93.2828 27.8343 92.7662 28.0382C92.2497 28.2421 91.869 28.514 91.6243 28.8538C91.3932 29.1937 91.2777 29.5743 91.2777 29.9958C91.2777 30.4987 91.434 30.8998 91.7467 31.1988C92.0729 31.4979 92.4876 31.7358 92.9905 31.9125C93.5071 32.0892 94.0713 32.2524 94.683 32.4019C95.2947 32.5379 95.9065 32.6942 96.5182 32.8709C97.1435 33.0476 97.7077 33.2787 98.2107 33.5642C98.7273 33.8497 99.1419 34.2303 99.4545 34.7061C99.7672 35.1819 99.9235 35.7936 99.9235 36.5413C99.9235 37.2618 99.7264 37.9347 99.3322 38.56C98.938 39.1718 98.3262 39.668 97.497 40.0486C96.6813 40.4156 95.6482 40.5992 94.3975 40.5992ZM107.164 40.5584C106.24 40.5584 105.424 40.3885 104.717 40.0486C104.024 39.7087 103.48 39.1922 103.086 38.4989C102.705 37.792 102.515 36.9084 102.515 35.848V29.6287H104.473V35.6237C104.473 36.6841 104.724 37.4793 105.227 38.0095C105.744 38.5397 106.464 38.8047 107.389 38.8047C108.068 38.8047 108.66 38.6688 109.163 38.3969C109.666 38.1114 110.053 37.7036 110.325 37.1734C110.597 36.6297 110.733 35.9772 110.733 35.2159V29.6287H112.69V40.436H110.835V37.5201L111.141 38.295C110.787 39.0154 110.257 39.5728 109.55 39.967C108.843 40.3613 108.048 40.5584 107.164 40.5584ZM119.516 40.5584C118.619 40.5584 117.763 40.436 116.947 40.1913C116.145 39.9466 115.513 39.6476 115.051 39.2941L115.866 37.7444C116.329 38.0571 116.9 38.3222 117.579 38.5397C118.259 38.7572 118.952 38.8659 119.659 38.8659C120.57 38.8659 121.223 38.7368 121.617 38.4785C122.025 38.2202 122.228 37.86 122.228 37.3978C122.228 37.0579 122.106 36.7928 121.861 36.6025C121.617 36.4122 121.29 36.2694 120.883 36.1743C120.488 36.0791 120.047 35.9976 119.557 35.9296C119.068 35.848 118.578 35.7529 118.089 35.6441C117.6 35.5218 117.151 35.3586 116.743 35.1547C116.335 34.9372 116.009 34.6449 115.764 34.2779C115.52 33.8973 115.397 33.3943 115.397 32.769C115.397 32.1164 115.581 31.5455 115.948 31.0561C116.315 30.5667 116.832 30.1929 117.498 29.9346C118.177 29.6627 118.979 29.5268 119.904 29.5268C120.611 29.5268 121.324 29.6151 122.045 29.7918C122.779 29.955 123.377 30.1929 123.839 30.5055L123.003 32.0553C122.514 31.729 122.004 31.5047 121.474 31.3824C120.944 31.26 120.414 31.1988 119.883 31.1988C119.027 31.1988 118.388 31.3416 117.967 31.627C117.545 31.8989 117.335 32.2524 117.335 32.6874C117.335 33.0544 117.457 33.3399 117.702 33.5438C117.96 33.7341 118.286 33.8837 118.68 33.9924C119.088 34.1012 119.537 34.1963 120.026 34.2779C120.516 34.3459 121.005 34.441 121.494 34.5634C121.984 34.6721 122.426 34.8285 122.82 35.0324C123.228 35.2363 123.554 35.5218 123.799 35.8888C124.057 36.2558 124.186 36.7452 124.186 37.357C124.186 38.0095 123.996 38.5736 123.615 39.0494C123.234 39.5252 122.697 39.8991 122.004 40.1709C121.311 40.4292 120.482 40.5584 119.516 40.5584ZM130.344 40.5584C129.256 40.5584 128.413 40.2661 127.815 39.6816C127.217 39.097 126.918 38.261 126.918 37.1734V27.2633H128.876V37.0919C128.876 37.6764 129.018 38.125 129.304 38.4377C129.603 38.7504 130.024 38.9067 130.568 38.9067C131.18 38.9067 131.689 38.7368 132.097 38.3969L132.709 39.8039C132.41 40.0622 132.05 40.2525 131.628 40.3749C131.22 40.4972 130.792 40.5584 130.344 40.5584ZM125.083 31.2396V29.6287H131.975V31.2396H125.083ZM141.784 40.436V38.1522L141.682 37.724V33.8293C141.682 33.0001 141.438 32.3611 140.948 31.9125C140.473 31.4503 139.752 31.2192 138.787 31.2192C138.148 31.2192 137.523 31.328 136.911 31.5455C136.299 31.7494 135.783 32.0281 135.361 32.3815L134.546 30.9134C135.103 30.4648 135.769 30.1249 136.544 29.8938C137.332 29.6491 138.155 29.5268 139.011 29.5268C140.493 29.5268 141.635 29.887 142.437 30.6075C143.239 31.328 143.64 32.4291 143.64 33.9109V40.436H141.784ZM138.236 40.5584C137.434 40.5584 136.727 40.4224 136.116 40.1506C135.518 39.8787 135.055 39.5048 134.729 39.029C134.403 38.5397 134.24 37.9891 134.24 37.3774C134.24 36.7928 134.376 36.2626 134.647 35.7868C134.933 35.3111 135.388 34.9304 136.014 34.6449C136.653 34.3595 137.509 34.2167 138.583 34.2167H142.009V35.6237H138.665C137.686 35.6237 137.026 35.7868 136.687 36.1131C136.347 36.4394 136.177 36.8336 136.177 37.2958C136.177 37.826 136.388 38.2542 136.809 38.5804C137.23 38.8931 137.815 39.0494 138.563 39.0494C139.297 39.0494 139.936 38.8863 140.479 38.56C141.037 38.2338 141.438 37.758 141.682 37.1327L142.07 38.4785C141.812 39.1174 141.356 39.6272 140.704 40.0078C140.051 40.3749 139.229 40.5584 138.236 40.5584ZM147.263 40.436V29.6287H149.22V40.436H147.263ZM148.241 27.5488C147.861 27.5488 147.541 27.4265 147.283 27.1818C147.038 26.9371 146.916 26.638 146.916 26.2846C146.916 25.9175 147.038 25.6117 147.283 25.367C147.541 25.1223 147.861 24.9999 148.241 24.9999C148.622 24.9999 148.935 25.1223 149.179 25.367C149.438 25.5981 149.567 25.8903 149.567 26.2438C149.567 26.6108 149.444 26.9235 149.2 27.1818C148.955 27.4265 148.636 27.5488 148.241 27.5488ZM158.729 29.5268C159.612 29.5268 160.387 29.6967 161.053 30.0365C161.733 30.3764 162.263 30.893 162.644 31.5863C163.024 32.2796 163.215 33.1564 163.215 34.2167V40.436H161.257V34.441C161.257 33.3943 160.999 32.6058 160.482 32.0757C159.979 31.5455 159.265 31.2804 158.341 31.2804C157.648 31.2804 157.043 31.4163 156.526 31.6882C156.01 31.9601 155.609 32.3611 155.323 32.8913C155.051 33.4215 154.915 34.0808 154.915 34.8692V40.436H152.958V29.6287H154.834V32.5447L154.528 31.7698C154.881 31.0629 155.425 30.5123 156.159 30.1181C156.893 29.7239 157.75 29.5268 158.729 29.5268ZM173.546 40.436V38.1522L173.444 37.724V33.8293C173.444 33.0001 173.199 32.3611 172.71 31.9125C172.234 31.4503 171.514 31.2192 170.549 31.2192C169.91 31.2192 169.284 31.328 168.673 31.5455C168.061 31.7494 167.544 32.0281 167.123 32.3815L166.307 30.9134C166.865 30.4648 167.531 30.1249 168.306 29.8938C169.094 29.6491 169.916 29.5268 170.773 29.5268C172.255 29.5268 173.397 29.887 174.199 30.6075C175.001 31.328 175.402 32.4291 175.402 33.9109V40.436H173.546ZM169.998 40.5584C169.196 40.5584 168.489 40.4224 167.877 40.1506C167.279 39.8787 166.817 39.5048 166.491 39.029C166.164 38.5397 166.001 37.9891 166.001 37.3774C166.001 36.7928 166.137 36.2626 166.409 35.7868C166.695 35.3111 167.15 34.9304 167.775 34.6449C168.414 34.3595 169.271 34.2167 170.345 34.2167H173.77V35.6237H170.426C169.447 35.6237 168.788 35.7868 168.448 36.1131C168.108 36.4394 167.938 36.8336 167.938 37.2958C167.938 37.826 168.149 38.2542 168.571 38.5804C168.992 38.8931 169.577 39.0494 170.324 39.0494C171.058 39.0494 171.697 38.8863 172.241 38.56C172.798 38.2338 173.199 37.758 173.444 37.1327L173.832 38.4785C173.573 39.1174 173.118 39.6272 172.465 40.0078C171.813 40.3749 170.99 40.5584 169.998 40.5584ZM184.754 40.5584C183.83 40.5584 182.994 40.3545 182.246 39.9466C181.512 39.5252 180.927 38.9067 180.492 38.0911C180.071 37.2754 179.86 36.2558 179.86 35.0324C179.86 33.8089 180.078 32.7893 180.513 31.9737C180.961 31.1581 181.553 30.5463 182.287 30.1385C183.035 29.7307 183.857 29.5268 184.754 29.5268C185.815 29.5268 186.753 29.7579 187.568 30.2201C188.384 30.6823 189.03 31.328 189.505 32.1572C189.981 32.9729 190.219 33.9313 190.219 35.0324C190.219 36.1335 189.981 37.0987 189.505 37.9279C189.03 38.7572 188.384 39.4029 187.568 39.8651C186.753 40.3273 185.815 40.5584 184.754 40.5584ZM179.024 40.436V25.3058H180.982V32.5039L180.778 35.012L180.9 37.5201V40.436H179.024ZM184.591 38.8455C185.284 38.8455 185.903 38.6892 186.447 38.3765C187.004 38.0639 187.439 37.6221 187.752 37.0511C188.078 36.4666 188.241 35.7936 188.241 35.0324C188.241 34.2575 188.078 33.5914 187.752 33.034C187.439 32.4631 187.004 32.0213 186.447 31.7086C185.903 31.3959 185.284 31.2396 184.591 31.2396C183.911 31.2396 183.293 31.3959 182.735 31.7086C182.192 32.0213 181.757 32.4631 181.43 33.034C181.118 33.5914 180.961 34.2575 180.961 35.0324C180.961 35.7936 181.118 36.4666 181.43 37.0511C181.757 37.6221 182.192 38.0639 182.735 38.3765C183.293 38.6892 183.911 38.8455 184.591 38.8455ZM192.924 40.436V29.6287H194.881V40.436H192.924ZM193.902 27.5488C193.522 27.5488 193.202 27.4265 192.944 27.1818C192.699 26.9371 192.577 26.638 192.577 26.2846C192.577 25.9175 192.699 25.6117 192.944 25.367C193.202 25.1223 193.522 24.9999 193.902 24.9999C194.283 24.9999 194.596 25.1223 194.84 25.367C195.099 25.5981 195.228 25.8903 195.228 26.2438C195.228 26.6108 195.106 26.9235 194.861 27.1818C194.616 27.4265 194.297 27.5488 193.902 27.5488ZM198.619 40.436V25.3058H200.576V40.436H198.619ZM204.314 40.436V29.6287H206.272V40.436H204.314ZM205.293 27.5488C204.912 27.5488 204.593 27.4265 204.334 27.1818C204.09 26.9371 203.967 26.638 203.967 26.2846C203.967 25.9175 204.09 25.6117 204.334 25.367C204.593 25.1223 204.912 24.9999 205.293 24.9999C205.674 24.9999 205.986 25.1223 206.231 25.367C206.489 25.5981 206.618 25.8903 206.618 26.2438C206.618 26.6108 206.496 26.9235 206.251 27.1818C206.007 27.4265 205.687 27.5488 205.293 27.5488ZM213.72 40.5584C212.633 40.5584 211.79 40.2661 211.192 39.6816C210.594 39.097 210.295 38.261 210.295 37.1734V27.2633H212.252V37.0919C212.252 37.6764 212.395 38.125 212.681 38.4377C212.98 38.7504 213.401 38.9067 213.945 38.9067C214.557 38.9067 215.066 38.7368 215.474 38.3969L216.086 39.8039C215.787 40.0622 215.427 40.2525 215.005 40.3749C214.597 40.4972 214.169 40.5584 213.72 40.5584ZM208.46 31.2396V29.6287H215.352V31.2396H208.46ZM218.722 44.5143C218.206 44.5143 217.703 44.4259 217.213 44.2492C216.724 44.0861 216.303 43.8414 215.949 43.5151L216.785 42.0469C217.057 42.3052 217.356 42.5023 217.682 42.6383C218.009 42.7742 218.355 42.8422 218.722 42.8422C219.198 42.8422 219.592 42.7198 219.905 42.4752C220.218 42.2305 220.51 41.7954 220.782 41.1701L221.455 39.6816L221.659 39.4369L225.9 29.6287H227.817L222.576 41.5168C222.264 42.278 221.91 42.8762 221.516 43.3112C221.135 43.7462 220.714 44.0521 220.252 44.2288C219.79 44.4191 219.28 44.5143 218.722 44.5143ZM221.292 40.7827L216.357 29.6287H218.396L222.597 39.2533L221.292 40.7827Z" fill="white"/>
</svg>
