<svg width="269" height="20" viewBox="0 0 269 20" fill="none" xmlns="http://www.w3.org/2000/svg">
<path d="M2.54538 19.7793V3.8177C2.54538 2.66874 2.87239 1.74958 3.52641 1.06021C4.19811 0.353162 5.15262 -0.000361877 6.38996 -0.000361877C6.90257 -0.000361877 7.40634 0.079181 7.90127 0.238267C8.3962 0.379677 8.80276 0.600629 9.12093 0.901125L8.59064 1.90867C8.3255 1.64352 8.00733 1.44909 7.63613 1.32535C7.26493 1.20162 6.86721 1.13975 6.44298 1.13975C5.59453 1.13975 4.94935 1.37838 4.50744 1.85564C4.06554 2.31522 3.84458 3.00459 3.84458 3.92375V6.25701L3.8711 6.89335V19.7793H2.54538ZM1.23209e-05 7.07895V5.93884H8.27247V7.07895H1.23209e-05ZM16.1561 19.8854C14.8304 19.8854 13.6461 19.5849 12.6032 18.9839C11.578 18.3829 10.756 17.5521 10.1374 16.4915C9.53639 15.431 9.23589 14.2201 9.23589 12.8591C9.23589 11.4803 9.53639 10.2695 10.1374 9.22661C10.756 8.16604 11.578 7.33526 12.6032 6.73427C13.6461 6.13328 14.8304 5.83278 16.1561 5.83278C17.4818 5.83278 18.6661 6.13328 19.709 6.73427C20.7519 7.33526 21.5739 8.16604 22.1749 9.22661C22.7759 10.2695 23.0763 11.4803 23.0763 12.8591C23.0763 14.2201 22.7759 15.431 22.1749 16.4915C21.5739 17.5521 20.7519 18.3829 19.709 18.9839C18.6661 19.5849 17.4818 19.8854 16.1561 19.8854ZM16.1561 18.6922C17.2167 18.6922 18.1712 18.4536 19.0197 17.9763C19.8681 17.4814 20.531 16.792 21.0082 15.9082C21.4855 15.0244 21.7241 14.008 21.7241 12.8591C21.7241 11.6924 21.4855 10.6761 21.0082 9.80992C20.531 8.92612 19.8681 8.24558 19.0197 7.76833C18.1712 7.27339 17.2167 7.02592 16.1561 7.02592C15.0955 7.02592 14.141 7.27339 13.2926 7.76833C12.4618 8.24558 11.7989 8.92612 11.304 9.80992C10.8267 10.6761 10.5881 11.6924 10.5881 12.8591C10.5881 14.008 10.8267 15.0244 11.304 15.9082C11.7989 16.792 12.4618 17.4814 13.2926 17.9763C14.141 18.4536 15.0955 18.6922 16.1561 18.6922ZM27.1892 19.7793V5.93884H28.4619V9.73038L28.3293 9.30615C28.7182 8.19255 29.3722 7.33526 30.2913 6.73427C31.2105 6.13328 32.3595 5.83278 33.7382 5.83278V7.13198C33.6852 7.13198 33.6321 7.13198 33.5791 7.13198C33.5261 7.11431 33.4731 7.10547 33.42 7.10547C31.8822 7.10547 30.6802 7.59156 29.8141 8.56375C28.948 9.51827 28.5149 10.8528 28.5149 12.5674V19.7793H27.1892ZM53.157 19.7793V16.6241L53.104 16.1468V10.95C53.104 9.65968 52.7505 8.67865 52.0434 8.00695C51.354 7.33526 50.3377 6.99941 48.9943 6.99941C48.0398 6.99941 47.1471 7.16733 46.3163 7.50318C45.5032 7.82135 44.805 8.23674 44.2217 8.74935L43.5588 7.79484C44.2482 7.17617 45.079 6.69892 46.0512 6.36307C47.0234 6.00954 48.0398 5.83278 49.1003 5.83278C50.8149 5.83278 52.1318 6.26585 53.051 7.13198C53.9701 7.99811 54.4297 9.28848 54.4297 11.0031V19.7793H53.157ZM48.1723 19.8854C47.1471 19.8854 46.2545 19.7263 45.4944 19.4081C44.752 19.0722 44.1775 18.6038 43.771 18.0028C43.3821 17.4018 43.1876 16.7125 43.1876 15.9347C43.1876 15.2277 43.3467 14.5913 43.6649 14.0257C44.0007 13.4424 44.5487 12.974 45.3088 12.6204C46.0689 12.2492 47.0852 12.0636 48.3579 12.0636H53.4487V13.0977H48.3844C46.9527 13.0977 45.9451 13.3628 45.3618 13.8931C44.7962 14.4234 44.5134 15.0863 44.5134 15.8817C44.5134 16.7655 44.8492 17.4726 45.5209 18.0028C46.1926 18.5331 47.1383 18.7983 48.3579 18.7983C49.5246 18.7983 50.5056 18.5331 51.301 18.0028C52.1141 17.4726 52.7151 16.7036 53.104 15.6961L53.4752 16.5976C53.104 17.6051 52.4676 18.4094 51.5662 19.0104C50.6823 19.5937 49.5511 19.8854 48.1723 19.8854ZM75.0537 19.9119C73.6573 19.9119 72.3669 19.6821 71.1826 19.2225C69.9983 18.7452 68.9642 18.0824 68.0804 17.2339C67.2143 16.3855 66.5426 15.3956 66.0653 14.2643C65.5881 13.1154 65.3494 11.8604 65.3494 10.4993C65.3494 9.13823 65.5881 7.89206 66.0653 6.76078C66.5426 5.61183 67.2231 4.61312 68.1069 3.76467C68.9907 2.91621 70.016 2.26219 71.1826 1.80261C72.3669 1.32535 73.6661 1.08672 75.0802 1.08672C76.4236 1.08672 77.6698 1.29884 78.8187 1.72307C79.9677 2.1473 80.9487 2.78364 81.7618 3.6321L80.9133 4.53358C80.1002 3.73815 79.2076 3.17252 78.2354 2.83667C77.2809 2.50082 76.238 2.3329 75.1067 2.3329C73.9047 2.3329 72.7911 2.53617 71.7659 2.94272C70.7407 3.34928 69.848 3.92375 69.088 4.66615C68.3279 5.40855 67.7357 6.27469 67.3115 7.26455C66.9049 8.25442 66.7017 9.33267 66.7017 10.4993C66.7017 11.6659 66.9049 12.7442 67.3115 13.734C67.7357 14.7239 68.3279 15.59 69.088 16.3324C69.848 17.0748 70.7407 17.6493 71.7659 18.0559C72.7911 18.4624 73.9047 18.6657 75.1067 18.6657C76.2026 18.6657 77.2367 18.4978 78.2089 18.1619C79.1987 17.8261 80.1002 17.2693 80.9133 16.4915L81.6822 17.5256C80.8515 18.321 79.8528 18.922 78.6861 19.3286C77.5372 19.7174 76.3264 19.9119 75.0537 19.9119ZM80.383 17.393V10.5788H81.6822V17.5256L80.383 17.393ZM87.2088 19.7793V5.93884H88.4815V9.73038L88.3489 9.30615C88.7378 8.19255 89.3918 7.33526 90.311 6.73427C91.2301 6.13328 92.3791 5.83278 93.7578 5.83278V7.13198C93.7048 7.13198 93.6518 7.13198 93.5988 7.13198C93.5457 7.11431 93.4927 7.10547 93.4397 7.10547C91.9018 7.10547 90.6999 7.59156 89.8337 8.56375C88.9676 9.51827 88.5345 10.8528 88.5345 12.5674V19.7793H87.2088ZM102.902 19.8854C101.506 19.8854 100.268 19.5849 99.1902 18.9839C98.1296 18.3829 97.29 17.5521 96.6713 16.4915C96.0703 15.431 95.7698 14.2201 95.7698 12.8591C95.7698 11.4803 96.0526 10.2695 96.6183 9.22661C97.2016 8.16604 97.997 7.33526 99.0046 6.73427C100.012 6.13328 101.143 5.83278 102.398 5.83278C103.653 5.83278 104.776 6.12444 105.766 6.70775C106.773 7.29107 107.56 8.11301 108.125 9.17358C108.709 10.2165 109 11.4273 109 12.806C109 12.8591 108.992 12.9209 108.974 12.9916C108.974 13.0447 108.974 13.1065 108.974 13.1772H96.7508V12.1432H108.258L107.728 12.647C107.745 11.5687 107.516 10.6054 107.038 9.7569C106.579 8.89076 105.951 8.21907 105.156 7.74181C104.36 7.24688 103.441 6.99941 102.398 6.99941C101.373 6.99941 100.454 7.24688 99.6409 7.74181C98.8455 8.21907 98.218 8.89076 97.7584 9.7569C97.2988 10.6054 97.069 11.5775 97.069 12.6735V12.9121C97.069 14.0434 97.3165 15.0509 97.8114 15.9347C98.324 16.8009 99.0222 17.4814 99.906 17.9763C100.79 18.4536 101.797 18.6922 102.929 18.6922C103.812 18.6922 104.634 18.5331 105.395 18.215C106.172 17.8968 106.826 17.4107 107.357 16.7567L108.125 17.6316C107.524 18.374 106.764 18.9397 105.845 19.3286C104.944 19.6998 103.963 19.8854 102.902 19.8854ZM118.723 19.8854C117.326 19.8854 116.089 19.5849 115.011 18.9839C113.95 18.3829 113.111 17.5521 112.492 16.4915C111.891 15.431 111.59 14.2201 111.59 12.8591C111.59 11.4803 111.873 10.2695 112.439 9.22661C113.022 8.16604 113.818 7.33526 114.825 6.73427C115.833 6.13328 116.964 5.83278 118.219 5.83278C119.474 5.83278 120.596 6.12444 121.586 6.70775C122.594 7.29107 123.38 8.11301 123.946 9.17358C124.529 10.2165 124.821 11.4273 124.821 12.806C124.821 12.8591 124.812 12.9209 124.794 12.9916C124.794 13.0447 124.794 13.1065 124.794 13.1772H112.571V12.1432H124.079L123.548 12.647C123.566 11.5687 123.336 10.6054 122.859 9.7569C122.399 8.89076 121.772 8.21907 120.976 7.74181C120.181 7.24688 119.262 6.99941 118.219 6.99941C117.194 6.99941 116.275 7.24688 115.461 7.74181C114.666 8.21907 114.039 8.89076 113.579 9.7569C113.119 10.6054 112.89 11.5775 112.89 12.6735V12.9121C112.89 14.0434 113.137 15.0509 113.632 15.9347C114.145 16.8009 114.843 17.4814 115.727 17.9763C116.61 18.4536 117.618 18.6922 118.749 18.6922C119.633 18.6922 120.455 18.5331 121.215 18.215C121.993 17.8968 122.647 17.4107 123.177 16.7567L123.946 17.6316C123.345 18.374 122.585 18.9397 121.666 19.3286C120.764 19.6998 119.783 19.8854 118.723 19.8854ZM135.683 5.83278C136.815 5.83278 137.796 6.05373 138.626 6.49564C139.475 6.91987 140.129 7.57389 140.588 8.4577C141.066 9.32383 141.304 10.4021 141.304 11.6924V19.7793H139.979V11.7985C139.979 10.243 139.581 9.05869 138.786 8.24558C138.008 7.43248 136.912 7.02592 135.498 7.02592C134.42 7.02592 133.483 7.24688 132.687 7.68878C131.892 8.13069 131.282 8.74935 130.858 9.54478C130.451 10.3402 130.248 11.2947 130.248 12.4083V19.7793H128.922V5.93884H130.195V9.78341L130.009 9.35918C130.434 8.26326 131.132 7.40596 132.104 6.7873C133.076 6.15095 134.269 5.83278 135.683 5.83278ZM152.383 19.8854C150.987 19.8854 149.75 19.5849 148.671 18.9839C147.611 18.3829 146.771 17.5521 146.153 16.4915C145.552 15.431 145.251 14.2201 145.251 12.8591C145.251 11.4803 145.534 10.2695 146.1 9.22661C146.683 8.16604 147.478 7.33526 148.486 6.73427C149.493 6.13328 150.625 5.83278 151.88 5.83278C153.135 5.83278 154.257 6.12444 155.247 6.70775C156.255 7.29107 157.041 8.11301 157.607 9.17358C158.19 10.2165 158.482 11.4273 158.482 12.806C158.482 12.8591 158.473 12.9209 158.455 12.9916C158.455 13.0447 158.455 13.1065 158.455 13.1772H146.232V12.1432H157.739L157.209 12.647C157.227 11.5687 156.997 10.6054 156.52 9.7569C156.06 8.89076 155.433 8.21907 154.637 7.74181C153.842 7.24688 152.923 6.99941 151.88 6.99941C150.854 6.99941 149.935 7.24688 149.122 7.74181C148.327 8.21907 147.699 8.89076 147.24 9.7569C146.78 10.6054 146.55 11.5775 146.55 12.6735V12.9121C146.55 14.0434 146.798 15.0509 147.293 15.9347C147.805 16.8009 148.503 17.4814 149.387 17.9763C150.271 18.4536 151.279 18.6922 152.41 18.6922C153.294 18.6922 154.116 18.5331 154.876 18.215C155.654 17.8968 156.308 17.4107 156.838 16.7567L157.607 17.6316C157.006 18.374 156.246 18.9397 155.327 19.3286C154.425 19.6998 153.444 19.8854 152.383 19.8854ZM162.583 19.7793V5.93884H163.856V9.73038L163.723 9.30615C164.112 8.19255 164.766 7.33526 165.685 6.73427C166.604 6.13328 167.753 5.83278 169.132 5.83278V7.13198C169.079 7.13198 169.026 7.13198 168.973 7.13198C168.92 7.11431 168.867 7.10547 168.814 7.10547C167.276 7.10547 166.074 7.59156 165.208 8.56375C164.342 9.51827 163.909 10.8528 163.909 12.5674V19.7793H162.583Z" fill="white"/>
<path d="M183.506 9.5713H192.414V13.0182H183.506V9.5713ZM183.824 19.7793H179.528V1.2193H193.555V4.66615H183.824V19.7793ZM201.827 19.9914C200.643 19.9914 199.582 19.7616 198.645 19.302C197.726 18.8425 197.01 18.1442 196.498 17.2074C195.985 16.2529 195.729 15.0421 195.729 13.575V5.51461H199.865V12.9651C199.865 14.1494 200.112 15.0244 200.607 15.59C201.12 16.138 201.836 16.412 202.755 16.412C203.391 16.412 203.957 16.2794 204.452 16.0143C204.947 15.7314 205.336 15.3072 205.619 14.7416C205.901 14.1583 206.043 13.4335 206.043 12.5674V5.51461H210.179V19.7793H206.255V15.8552L206.971 16.9953C206.493 17.9852 205.786 18.7364 204.85 19.249C203.93 19.7439 202.923 19.9914 201.827 19.9914ZM219.844 19.9914C218.165 19.9914 216.857 19.5672 215.92 18.7187C214.983 17.8526 214.515 16.5711 214.515 14.8742V2.35941H218.651V14.8211C218.651 15.4221 218.81 15.8905 219.128 16.2264C219.446 16.5446 219.879 16.7036 220.427 16.7036C221.081 16.7036 221.638 16.5269 222.098 16.1734L223.211 19.0899C222.787 19.3904 222.275 19.6202 221.674 19.7793C221.09 19.9207 220.48 19.9914 219.844 19.9914ZM212.314 9.0145V5.83278H222.204V9.0145H212.314ZM231.552 19.9914C230.368 19.9914 229.307 19.7616 228.37 19.302C227.451 18.8425 226.735 18.1442 226.223 17.2074C225.71 16.2529 225.454 15.0421 225.454 13.575V5.51461H229.59V12.9651C229.59 14.1494 229.837 15.0244 230.332 15.59C230.845 16.138 231.561 16.412 232.48 16.412C233.116 16.412 233.682 16.2794 234.177 16.0143C234.672 15.7314 235.061 15.3072 235.344 14.7416C235.626 14.1583 235.768 13.4335 235.768 12.5674V5.51461H239.904V19.7793H235.98V15.8552L236.696 16.9953C236.218 17.9852 235.511 18.7364 234.575 19.249C233.655 19.7439 232.648 19.9914 231.552 19.9914ZM243.736 19.7793V5.51461H247.687V9.54478L247.13 8.37815C247.554 7.37061 248.234 6.61053 249.171 6.09792C250.108 5.56764 251.248 5.3025 252.592 5.3025V9.12055C252.415 9.10288 252.256 9.09404 252.114 9.09404C251.973 9.07636 251.823 9.06752 251.664 9.06752C250.532 9.06752 249.613 9.39453 248.906 10.0486C248.217 10.6849 247.872 11.6836 247.872 13.0447V19.7793H243.736ZM262.001 19.9914C260.375 19.9914 258.943 19.6732 257.706 19.0369C256.486 18.4006 255.54 17.5344 254.869 16.4385C254.197 15.3249 253.861 14.061 253.861 12.647C253.861 11.2152 254.188 9.95133 254.842 8.85541C255.514 7.74181 256.424 6.87568 257.573 6.25701C258.722 5.62067 260.021 5.3025 261.471 5.3025C262.867 5.3025 264.122 5.60299 265.236 6.20398C266.367 6.7873 267.26 7.63575 267.914 8.74935C268.568 9.84528 268.895 11.1622 268.895 12.7C268.895 12.8591 268.886 13.0447 268.868 13.2568C268.85 13.4512 268.833 13.6368 268.815 13.8136H257.228V11.4008H266.641L265.05 12.1167C265.05 11.3743 264.9 10.7291 264.599 10.1811C264.299 9.63316 263.883 9.20893 263.353 8.90844C262.823 8.59027 262.204 8.43118 261.497 8.43118C260.79 8.43118 260.163 8.59027 259.615 8.90844C259.084 9.20893 258.669 9.642 258.368 10.2076C258.068 10.7556 257.918 11.4096 257.918 12.1697V12.806C257.918 13.5838 258.086 14.2732 258.422 14.8742C258.775 15.4575 259.261 15.9082 259.88 16.2264C260.516 16.5269 261.259 16.6771 262.107 16.6771C262.867 16.6771 263.53 16.5622 264.096 16.3324C264.679 16.1026 265.209 15.758 265.686 15.2984L267.887 17.6847C267.233 18.4271 266.411 19.0015 265.421 19.4081C264.431 19.797 263.291 19.9914 262.001 19.9914Z" fill="#F4C903"/>
</svg>
