<svg width="318" height="690" viewBox="0 0 318 690" fill="none" xmlns="http://www.w3.org/2000/svg">
<path d="M208.872 685H80.7295V660.237H208.872V685Z" fill="#F4C903"/>
<path d="M208.872 648.316H80.7295V627.96L164.388 598.579V609.282L80.7295 580.741V560.385L208.872 560.175V582.735L140.041 582.945V579.377L197.339 598.894V609.807L140.041 630.163V625.756H208.872V648.316Z" fill="#F4C903"/>
<path d="M208.872 548.203H80.7295V523.439H175.372V490.282H208.872V548.203Z" fill="#F4C903"/>
<path d="M128.142 -143.191H3.8147e-06V-179.392C3.8147e-06 -187.576 2.62387 -194.782 7.87159 -201.007C12.9973 -207.233 20.3197 -212.095 29.8388 -215.593C39.3579 -219.09 50.7077 -220.839 63.888 -220.839C77.1903 -220.839 88.6621 -219.09 98.3033 -215.593C107.822 -212.095 115.206 -207.233 120.454 -201.007C125.579 -194.782 128.142 -187.576 128.142 -179.392V-143.191ZM94.459 -167.955V-178.343C94.459 -181.84 93.2997 -184.883 90.9809 -187.471C88.6621 -190.13 85.245 -192.193 80.7295 -193.662C76.092 -195.131 70.4781 -195.866 63.888 -195.866C57.4199 -195.866 51.9281 -195.131 47.4126 -193.662C42.8971 -192.193 39.48 -190.13 37.1612 -187.471C34.8424 -184.883 33.6831 -181.84 33.6831 -178.343V-167.955H94.459Z" fill="#F4C903"/>
<path d="M175.738 -183.799V-216.537H206.858V-183.799H175.738ZM223.699 -185.478V-222.203H256.284V-161.134H128.142V-220.839H160.727V-185.478H223.699Z" fill="#F4C903"/>
<path d="M840.801 -100.694C840.801 -94.5385 839.58 -88.5925 837.139 -82.8563C834.699 -77.1202 831.526 -72.3984 827.62 -68.6909L796.134 -76.6655C799.673 -80.1632 802.541 -84.0455 804.738 -88.3127C806.812 -92.6497 807.85 -96.8469 807.85 -100.904C807.85 -103.283 807.606 -105.136 807.118 -106.465C806.507 -107.864 805.714 -108.879 804.738 -109.508C803.639 -110.138 802.358 -110.453 800.893 -110.453C798.575 -110.453 796.744 -109.718 795.402 -108.249C794.059 -106.78 792.961 -104.822 792.107 -102.373C791.13 -99.9948 790.154 -97.3716 789.178 -94.5035C788.079 -91.6354 786.676 -88.7324 784.967 -85.7944C783.259 -82.9263 781.001 -80.2681 778.194 -77.8197C775.387 -75.4414 771.726 -73.5176 767.21 -72.0486C762.573 -70.5796 756.837 -69.8451 750.003 -69.8451C742.07 -69.8451 734.87 -71.1043 728.402 -73.6226C721.811 -76.2108 716.564 -80.0233 712.658 -85.0599C708.753 -90.1664 706.801 -96.4971 706.801 -104.052C706.801 -109.019 707.716 -113.915 709.547 -118.742C711.377 -123.569 714.184 -127.906 717.967 -131.753L749.271 -124.303C746.097 -120.666 743.718 -117.133 742.131 -113.706C740.545 -110.348 739.751 -107.06 739.751 -103.842C739.751 -101.464 740.117 -99.5751 740.85 -98.176C741.582 -96.777 742.558 -95.7626 743.779 -95.1331C744.999 -94.5734 746.342 -94.2936 747.806 -94.2936C750.003 -94.2936 751.772 -95.0281 753.115 -96.4971C754.335 -97.9662 755.373 -99.8899 756.227 -102.268C757.081 -104.717 757.996 -107.375 758.973 -110.243C759.949 -113.181 761.291 -116.084 763 -118.952C764.709 -121.82 766.966 -124.443 769.773 -126.822C772.58 -129.27 776.241 -131.229 780.757 -132.698C785.272 -134.167 790.886 -134.901 797.598 -134.901C805.409 -134.901 812.609 -133.607 819.199 -131.019C825.668 -128.501 830.915 -124.723 834.943 -119.687C838.848 -114.65 840.801 -108.319 840.801 -100.694Z" fill="#F4C903"/>
<path d="M982.301 -138.154H854.158V-162.917H982.301V-138.154Z" fill="#F4C903"/>
<path d="M643.301 -102.898C643.301 -96.9518 641.714 -91.4605 638.541 -86.4239C635.246 -81.4573 630.608 -77.1202 624.628 -73.4127C618.648 -69.7752 611.57 -66.9421 603.393 -64.9134C595.217 -62.8848 586.186 -61.8705 576.3 -61.8705C566.415 -61.8705 557.384 -62.8848 549.208 -64.9134C541.031 -66.9421 533.953 -69.8101 527.973 -73.5176C521.993 -77.2251 517.416 -81.5972 514.243 -86.6338C510.948 -91.7403 509.301 -97.3366 509.301 -103.422C509.301 -110.698 511.436 -117.168 515.708 -122.834C519.979 -128.571 526.081 -133.292 534.014 -137L558.361 -121.156C553.723 -118.847 550.245 -116.329 547.926 -113.601C545.485 -110.942 544.265 -107.969 544.265 -104.682C544.265 -101.953 544.997 -99.4701 546.462 -97.2316C547.926 -95.0631 550.062 -93.2093 552.869 -91.6704C555.676 -90.1314 559.032 -88.9422 562.937 -88.1028C566.842 -87.2634 571.297 -86.8436 576.3 -86.8436C581.06 -86.8436 585.454 -87.2634 589.481 -88.1028C593.386 -88.9422 596.742 -90.1314 599.549 -91.6704C602.356 -93.2093 604.553 -95.0281 606.139 -97.1267C607.604 -99.2953 608.336 -101.709 608.336 -104.367C608.336 -107.165 607.543 -109.893 605.956 -112.551C604.248 -115.21 601.38 -118.043 597.352 -121.051L627.008 -134.901C632.256 -130.424 636.283 -125.318 639.09 -119.582C641.897 -113.845 643.301 -108.284 643.301 -102.898ZM621.516 -113.391H572.822V-134.901H627.008L621.516 -113.391Z" fill="#F4C903"/>
<path d="M467.301 -137H339.158V-157.356L417.142 -194.711V-185.267H339.158V-209.401H467.301V-189.045L389.317 -151.69V-161.134H467.301V-137Z" fill="#F4C903"/>
<path d="M337.352 692H230.249V653.187C230.249 644.412 232.442 636.687 236.828 630.012C241.112 623.337 247.232 618.124 255.189 614.374C263.145 610.624 272.631 608.749 283.648 608.749C294.766 608.749 304.354 610.624 312.413 614.374C320.369 618.124 326.54 623.337 330.926 630.012C335.21 636.687 337.352 644.412 337.352 653.187V692ZM309.199 665.45V654.312C309.199 650.562 308.23 647.3 306.292 644.525C304.354 641.675 301.498 639.462 297.724 637.887C293.848 636.312 289.156 635.525 283.648 635.525C278.241 635.525 273.651 636.312 269.877 637.887C266.103 639.462 263.247 641.675 261.309 644.525C259.371 647.3 258.402 650.562 258.402 654.312V665.45H309.199Z" fill="white"/>
<path d="M270.03 574.755V539.655H296.041V574.755H270.03ZM310.117 572.955V533.579H337.352V599.055H230.249V535.042H257.484V572.955H310.117Z" fill="white"/>
<path d="M339.801 493.996C339.801 500.596 338.78 506.971 336.74 513.121C334.7 519.271 332.048 524.334 328.784 528.309L302.467 519.759C305.425 516.009 307.822 511.846 309.658 507.271C311.393 502.621 312.26 498.121 312.26 493.771C312.26 491.221 312.056 489.233 311.648 487.808C311.138 486.308 310.474 485.221 309.658 484.546C308.74 483.871 307.669 483.533 306.445 483.533C304.507 483.533 302.977 484.321 301.855 485.896C300.733 487.471 299.815 489.571 299.101 492.196C298.285 494.746 297.469 497.558 296.653 500.633C295.735 503.708 294.562 506.821 293.134 509.971C291.706 513.046 289.819 515.896 287.473 518.521C285.127 521.071 282.066 523.134 278.292 524.709C274.416 526.284 269.622 527.071 263.91 527.071C257.28 527.071 251.261 525.721 245.855 523.021C240.347 520.246 235.961 516.159 232.697 510.758C229.433 505.283 227.801 498.496 227.801 490.396C227.801 485.071 228.566 479.821 230.096 474.646C231.626 469.471 233.972 464.821 237.134 460.696L263.298 468.683C260.646 472.583 258.657 476.371 257.331 480.046C256.005 483.646 255.342 487.171 255.342 490.621C255.342 493.171 255.648 495.196 256.26 496.696C256.872 498.196 257.688 499.283 258.708 499.958C259.728 500.558 260.85 500.858 262.074 500.858C263.91 500.858 265.389 500.071 266.511 498.496C267.531 496.921 268.398 494.858 269.112 492.308C269.826 489.683 270.591 486.833 271.407 483.758C272.223 480.608 273.345 477.496 274.773 474.421C276.201 471.346 278.088 468.533 280.434 465.983C282.781 463.358 285.841 461.258 289.615 459.683C293.389 458.108 298.081 457.321 303.691 457.321C310.219 457.321 316.238 458.708 321.746 461.483C327.152 464.183 331.538 468.233 334.904 473.633C338.168 479.033 339.801 485.821 339.801 493.996Z" fill="white"/>
<path d="M337.352 449.42H230.249V422.87H337.352V449.42Z" fill="white"/>
<path d="M339.801 369.251C339.801 375.626 338.474 381.513 335.822 386.914C333.068 392.239 329.192 396.889 324.194 400.864C319.196 404.764 313.28 407.801 306.445 409.976C299.611 412.151 292.063 413.239 283.801 413.239C275.538 413.239 267.99 412.151 261.156 409.976C254.321 407.801 248.405 404.726 243.407 400.751C238.409 396.776 234.584 392.089 231.932 386.689C229.178 381.213 227.801 375.213 227.801 368.688C227.801 360.888 229.586 353.951 233.156 347.876C236.726 341.726 241.826 336.663 248.456 332.688L268.806 349.676C264.93 352.151 262.023 354.851 260.085 357.776C258.045 360.626 257.025 363.813 257.025 367.338C257.025 370.263 257.637 372.926 258.861 375.326C260.085 377.651 261.87 379.638 264.216 381.288C266.562 382.938 269.367 384.213 272.631 385.113C275.895 386.013 279.618 386.463 283.801 386.463C287.779 386.463 291.451 386.013 294.817 385.113C298.081 384.213 300.886 382.938 303.232 381.288C305.578 379.638 307.414 377.688 308.74 375.438C309.964 373.113 310.576 370.526 310.576 367.676C310.576 364.676 309.913 361.751 308.587 358.901C307.159 356.051 304.762 353.013 301.396 349.788L326.183 334.938C330.569 339.738 333.935 345.213 336.281 351.363C338.627 357.513 339.801 363.476 339.801 369.251ZM321.593 358.001H280.893V334.938H326.183L321.593 358.001Z" fill="white"/>
<path d="M337.352 323.626H230.249V301.8L295.429 261.75V271.875H230.249V246H337.352V267.825L272.172 307.875V297.75H337.352V323.626Z" fill="white"/>
</svg>
