<svg width="202" height="44" viewBox="0 0 202 44" fill="none" xmlns="http://www.w3.org/2000/svg">
<path d="M-1.21829e-05 16.1689V0.91512H2.17911V16.1689H-1.21829e-05ZM12.6077 4.51066C13.552 4.51066 14.3801 4.69226 15.0919 5.05544C15.8183 5.41863 16.3849 5.97067 16.7916 6.71157C17.1984 7.45247 17.4018 8.38949 17.4018 9.52264V16.1689H15.3098V9.76234C15.3098 8.64372 15.0338 7.80113 14.4818 7.23456C13.9442 6.66799 13.1816 6.38471 12.1937 6.38471C11.4528 6.38471 10.8063 6.52998 10.2543 6.82053C9.70223 7.11108 9.27367 7.53964 8.96859 8.10621C8.67804 8.67278 8.53277 9.37736 8.53277 10.22V16.1689H6.44081V4.61962H8.4456V7.73576L8.11873 6.90769C8.49645 6.15227 9.07755 5.5639 9.86203 5.14261C10.6465 4.72131 11.5617 4.51066 12.6077 4.51066ZM27.4402 4.51066C28.3845 4.51066 29.2125 4.69226 29.9244 5.05544C30.6508 5.41863 31.2173 5.97067 31.6241 6.71157C32.0309 7.45247 32.2342 8.38949 32.2342 9.52264V16.1689H30.1423V9.76234C30.1423 8.64372 29.8663 7.80113 29.3142 7.23456C28.7767 6.66799 28.014 6.38471 27.0262 6.38471C26.2853 6.38471 25.6388 6.52998 25.0867 6.82053C24.5347 7.11108 24.1061 7.53964 23.8011 8.10621C23.5105 8.67278 23.3652 9.37736 23.3652 10.22V16.1689H21.2733V4.61962H23.2781V7.73576L22.9512 6.90769C23.3289 6.15227 23.91 5.5639 24.6945 5.14261C25.479 4.72131 26.3942 4.51066 27.4402 4.51066ZM41.0524 16.2997C39.8902 16.2997 38.8587 16.0455 37.958 15.537C37.0573 15.0285 36.3455 14.3312 35.8225 13.445C35.2995 12.5443 35.038 11.5274 35.038 10.3943C35.038 9.24661 35.2995 8.22969 35.8225 7.34352C36.3455 6.45734 37.0573 5.76729 37.958 5.27336C38.8587 4.7649 39.8902 4.51066 41.0524 4.51066C42.2 4.51066 43.2242 4.7649 44.1249 5.27336C45.0401 5.76729 45.752 6.45734 46.2604 7.34352C46.7834 8.21516 47.0449 9.23209 47.0449 10.3943C47.0449 11.542 46.7834 12.5589 46.2604 13.445C45.752 14.3312 45.0401 15.0285 44.1249 15.537C43.2242 16.0455 42.2 16.2997 41.0524 16.2997ZM41.0524 14.4692C41.7933 14.4692 42.4543 14.3022 43.0354 13.968C43.631 13.6339 44.0959 13.1618 44.43 12.5516C44.7641 11.9269 44.9312 11.2078 44.9312 10.3943C44.9312 9.56622 44.7641 8.85437 44.43 8.25875C44.0959 7.64859 43.631 7.17645 43.0354 6.84232C42.4543 6.50819 41.7933 6.34112 41.0524 6.34112C40.3115 6.34112 39.6505 6.50819 39.0694 6.84232C38.4883 7.17645 38.0234 7.64859 37.6747 8.25875C37.3261 8.85437 37.1517 9.56622 37.1517 10.3943C37.1517 11.2078 37.3261 11.9269 37.6747 12.5516C38.0234 13.1618 38.4883 13.6339 39.0694 13.968C39.6505 14.3022 40.3115 14.4692 41.0524 14.4692ZM52.6478 16.1689L47.5923 4.61962H49.7714L54.2604 15.0794H53.2144L57.7905 4.61962H59.8389L54.7833 16.1689H52.6478ZM68.5988 16.1689V13.7283L68.4898 13.2707V9.1086C68.4898 8.22243 68.2283 7.53964 67.7053 7.06023C67.1969 6.5663 66.4269 6.31933 65.3955 6.31933C64.7127 6.31933 64.0444 6.43555 63.3907 6.66799C62.737 6.8859 62.1849 7.18372 61.7346 7.56143L60.8629 5.99247C61.4585 5.51306 62.1704 5.14987 62.9985 4.90291C63.841 4.64141 64.72 4.51066 65.6352 4.51066C67.2187 4.51066 68.439 4.89564 69.2961 5.6656C70.1532 6.43555 70.5818 7.61228 70.5818 9.19577V16.1689H68.5988ZM64.8071 16.2997C63.95 16.2997 63.1946 16.1544 62.5408 15.8639C61.9016 15.5733 61.4077 15.1738 61.059 14.6654C60.7104 14.1424 60.5361 13.554 60.5361 12.9003C60.5361 12.2756 60.6813 11.709 60.9719 11.2006C61.277 10.6921 61.7636 10.2853 62.4319 9.98025C63.1147 9.67517 64.0299 9.52264 65.1776 9.52264H68.8385V11.0262H65.2647C64.2188 11.0262 63.5142 11.2006 63.151 11.5492C62.7878 11.8979 62.6062 12.3192 62.6062 12.8131C62.6062 13.3797 62.8314 13.8373 63.2817 14.1859C63.7321 14.5201 64.3568 14.6871 65.1558 14.6871C65.9403 14.6871 66.6231 14.5128 67.2042 14.1642C67.7998 13.8155 68.2283 13.307 68.4898 12.6388L68.9039 14.077C68.6278 14.7598 68.1412 15.3046 67.4439 15.7113C66.7465 16.1036 65.8676 16.2997 64.8071 16.2997ZM78.4191 16.2997C77.2569 16.2997 76.3562 15.9874 75.717 15.3627C75.0778 14.738 74.7582 13.8446 74.7582 12.6824V2.09184H76.8502V12.5952C76.8502 13.2199 77.0027 13.6993 77.3078 14.0334C77.6274 14.3675 78.0777 14.5346 78.6588 14.5346C79.3126 14.5346 79.8573 14.353 80.2932 13.9898L80.9469 15.4934C80.6273 15.7694 80.2423 15.9728 79.792 16.1036C79.3561 16.2343 78.8985 16.2997 78.4191 16.2997ZM72.797 6.34112V4.61962H80.1624V6.34112H72.797ZM88.2357 16.2997C87.0009 16.2997 85.9113 16.0455 84.967 15.537C84.0373 15.0285 83.3109 14.3312 82.7879 13.445C82.2794 12.5589 82.0252 11.542 82.0252 10.3943C82.0252 9.24661 82.2722 8.22969 82.7661 7.34352C83.2746 6.45734 83.9646 5.76729 84.8363 5.27336C85.7225 4.7649 86.7176 4.51066 87.8217 4.51066C88.9403 4.51066 89.9281 4.75763 90.7853 5.25156C91.6424 5.7455 92.3107 6.44282 92.7901 7.34352C93.284 8.22969 93.531 9.26841 93.531 10.4597C93.531 10.5468 93.5237 10.6485 93.5092 10.7647C93.5092 10.881 93.5019 10.9899 93.4874 11.0916H83.6596V9.58801H92.3978L91.548 10.111C91.5625 9.3701 91.4099 8.7091 91.0903 8.128C90.7707 7.5469 90.3277 7.09655 89.7611 6.77695C89.209 6.44282 88.5626 6.27575 87.8217 6.27575C87.0953 6.27575 86.4488 6.44282 85.8823 6.77695C85.3157 7.09655 84.8726 7.55417 84.553 8.14979C84.2334 8.73089 84.0736 9.39915 84.0736 10.1546V10.5032C84.0736 11.2732 84.2479 11.9632 84.5966 12.5734C84.9598 13.169 85.461 13.6339 86.1002 13.968C86.7394 14.3022 87.473 14.4692 88.3011 14.4692C88.9839 14.4692 89.6013 14.353 90.1533 14.1206C90.7199 13.8881 91.2138 13.5395 91.6351 13.0746L92.7901 14.4257C92.2671 15.0358 91.6133 15.5007 90.8289 15.8203C90.0589 16.1399 89.1945 16.2997 88.2357 16.2997ZM105.622 16.1689V2.81095H100.392V0.91512H113.009V2.81095H107.779V16.1689H105.622ZM118.832 16.2997C117.67 16.2997 116.639 16.0455 115.738 15.537C114.837 15.0285 114.125 14.3312 113.603 13.445C113.08 12.5443 112.818 11.5274 112.818 10.3943C112.818 9.24661 113.08 8.22969 113.603 7.34352C114.125 6.45734 114.837 5.76729 115.738 5.27336C116.639 4.7649 117.67 4.51066 118.832 4.51066C119.98 4.51066 121.004 4.7649 121.905 5.27336C122.82 5.76729 123.532 6.45734 124.04 7.34352C124.563 8.21516 124.825 9.23209 124.825 10.3943C124.825 11.542 124.563 12.5589 124.04 13.445C123.532 14.3312 122.82 15.0285 121.905 15.537C121.004 16.0455 119.98 16.2997 118.832 16.2997ZM118.832 14.4692C119.573 14.4692 120.234 14.3022 120.815 13.968C121.411 13.6339 121.876 13.1618 122.21 12.5516C122.544 11.9269 122.711 11.2078 122.711 10.3943C122.711 9.56622 122.544 8.85437 122.21 8.25875C121.876 7.64859 121.411 7.17645 120.815 6.84232C120.234 6.50819 119.573 6.34112 118.832 6.34112C118.091 6.34112 117.43 6.50819 116.849 6.84232C116.268 7.17645 115.803 7.64859 115.455 8.25875C115.106 8.85437 114.932 9.56622 114.932 10.3943C114.932 11.2078 115.106 11.9269 115.455 12.5516C115.803 13.1618 116.268 13.6339 116.849 13.968C117.43 14.3022 118.091 14.4692 118.832 14.4692ZM132.49 16.2997C131.372 16.2997 130.369 16.0527 129.483 15.5588C128.612 15.0649 127.921 14.3748 127.413 13.4886C126.905 12.6025 126.65 11.571 126.65 10.3943C126.65 9.21756 126.905 8.19337 127.413 7.32173C127.921 6.43555 128.612 5.7455 129.483 5.25156C130.369 4.75763 131.372 4.51066 132.49 4.51066C133.464 4.51066 134.343 4.72858 135.127 5.1644C135.912 5.60022 136.536 6.25396 137.001 7.12561C137.481 7.99725 137.72 9.08681 137.72 10.3943C137.72 11.7018 137.488 12.7913 137.023 13.663C136.573 14.5346 135.955 15.1956 135.171 15.646C134.386 16.0818 133.493 16.2997 132.49 16.2997ZM132.665 14.4692C133.391 14.4692 134.045 14.3022 134.626 13.968C135.222 13.6339 135.686 13.1618 136.021 12.5516C136.369 11.9269 136.544 11.2078 136.544 10.3943C136.544 9.56622 136.369 8.85437 136.021 8.25875C135.686 7.64859 135.222 7.17645 134.626 6.84232C134.045 6.50819 133.391 6.34112 132.665 6.34112C131.924 6.34112 131.263 6.50819 130.682 6.84232C130.101 7.17645 129.636 7.64859 129.287 8.25875C128.938 8.85437 128.764 9.56622 128.764 10.3943C128.764 11.2078 128.938 11.9269 129.287 12.5516C129.636 13.1618 130.101 13.6339 130.682 13.968C131.263 14.3022 131.924 14.4692 132.665 14.4692ZM136.609 16.1689V13.0528L136.74 10.3725L136.522 7.69218V-0.000109523H138.614V16.1689H136.609ZM149.741 16.1689V13.7283L149.632 13.2707V9.1086C149.632 8.22243 149.371 7.53964 148.848 7.06023C148.339 6.5663 147.569 6.31933 146.538 6.31933C145.855 6.31933 145.187 6.43555 144.533 6.66799C143.879 6.8859 143.327 7.18372 142.877 7.56143L142.005 5.99247C142.601 5.51306 143.313 5.14987 144.141 4.90291C144.983 4.64141 145.862 4.51066 146.778 4.51066C148.361 4.51066 149.581 4.89564 150.438 5.6656C151.296 6.43555 151.724 7.61228 151.724 9.19577V16.1689H149.741ZM145.949 16.2997C145.092 16.2997 144.337 16.1544 143.683 15.8639C143.044 15.5733 142.55 15.1738 142.201 14.6654C141.853 14.1424 141.678 13.554 141.678 12.9003C141.678 12.2756 141.824 11.709 142.114 11.2006C142.419 10.6921 142.906 10.2853 143.574 9.98025C144.257 9.67517 145.172 9.52264 146.32 9.52264H149.981V11.0262H146.407C145.361 11.0262 144.657 11.2006 144.293 11.5492C143.93 11.8979 143.749 12.3192 143.749 12.8131C143.749 13.3797 143.974 13.8373 144.424 14.1859C144.874 14.5201 145.499 14.6871 146.298 14.6871C147.083 14.6871 147.765 14.5128 148.346 14.1642C148.942 13.8155 149.371 13.307 149.632 12.6388L150.046 14.077C149.77 14.7598 149.284 15.3046 148.586 15.7113C147.889 16.1036 147.01 16.2997 145.949 16.2997ZM155.884 20.5272C155.332 20.5272 154.794 20.4328 154.271 20.2439C153.748 20.0696 153.298 19.8081 152.92 19.4594L153.814 17.8904C154.104 18.1665 154.424 18.3771 154.773 18.5224C155.121 18.6677 155.492 18.7403 155.884 18.7403C156.392 18.7403 156.814 18.6096 157.148 18.3481C157.482 18.0866 157.794 17.6217 158.085 16.9534L158.804 15.3627L159.022 15.1012L163.554 4.61962H165.603L160.002 17.3239C159.668 18.1374 159.291 18.7766 158.869 19.2415C158.462 19.7064 158.012 20.0332 157.518 20.2221C157.024 20.4255 156.479 20.5272 155.884 20.5272ZM158.63 16.5394L153.356 4.61962H155.535L160.024 14.9051L158.63 16.5394ZM167.333 16.2997C166.926 16.2997 166.577 16.1617 166.287 15.8857C165.996 15.5951 165.851 15.2319 165.851 14.7961C165.851 14.3603 165.996 14.0044 166.287 13.7283C166.577 13.4523 166.926 13.3143 167.333 13.3143C167.725 13.3143 168.059 13.4523 168.335 13.7283C168.626 14.0044 168.771 14.3603 168.771 14.7961C168.771 15.2319 168.626 15.5951 168.335 15.8857C168.059 16.1617 167.725 16.2997 167.333 16.2997ZM-1.21829e-05 43.1689V27.9151H5.94898C7.28551 27.9151 8.42591 28.1258 9.37019 28.5471C10.3145 28.9684 11.0409 29.5785 11.5493 30.3775C12.0578 31.1765 12.312 32.1281 12.312 33.2322C12.312 34.3363 12.0578 35.2878 11.5493 36.0868C11.0409 36.8713 10.3145 37.4814 9.37019 37.9173C8.42591 38.3386 7.28551 38.5492 5.94898 38.5492H1.1985L2.17911 37.525V43.1689H-1.21829e-05ZM2.17911 37.7429L1.1985 36.6534H5.88361C7.27824 36.6534 8.33148 36.3556 9.04333 35.7599C9.7697 35.1643 10.1329 34.3217 10.1329 33.2322C10.1329 32.1426 9.7697 31.3 9.04333 30.7044C8.33148 30.1088 7.27824 29.811 5.88361 29.811H1.1985L2.17911 28.7214V37.7429ZM15.0168 43.1689V31.6196H17.0216V34.7576L16.8255 33.9731C17.1451 33.1741 17.6826 32.5639 18.438 32.1426C19.1935 31.7213 20.1232 31.5107 21.2273 31.5107V33.5372C21.1402 33.5227 21.053 33.5155 20.9658 33.5155C20.8932 33.5155 20.8206 33.5155 20.7479 33.5155C19.6293 33.5155 18.7431 33.8496 18.0894 34.5178C17.4357 35.1861 17.1088 36.1522 17.1088 37.4161V43.1689H15.0168ZM28.6459 43.2997C27.4837 43.2997 26.4522 43.0455 25.5515 42.537C24.6508 42.0285 23.939 41.3312 23.416 40.445C22.893 39.5443 22.6315 38.5274 22.6315 37.3943C22.6315 36.2466 22.893 35.2297 23.416 34.3435C23.939 33.4573 24.6508 32.7673 25.5515 32.2734C26.4522 31.7649 27.4837 31.5107 28.6459 31.5107C29.7935 31.5107 30.8177 31.7649 31.7184 32.2734C32.6336 32.7673 33.3455 33.4573 33.8539 34.3435C34.3769 35.2152 34.6384 36.2321 34.6384 37.3943C34.6384 38.542 34.3769 39.5589 33.8539 40.445C33.3455 41.3312 32.6336 42.0285 31.7184 42.537C30.8177 43.0455 29.7935 43.2997 28.6459 43.2997ZM28.6459 41.4692C29.3868 41.4692 30.0478 41.3022 30.6289 40.968C31.2245 40.6339 31.6894 40.1618 32.0235 39.5516C32.3576 38.9269 32.5247 38.2078 32.5247 37.3943C32.5247 36.5662 32.3576 35.8544 32.0235 35.2587C31.6894 34.6486 31.2245 34.1765 30.6289 33.8423C30.0478 33.5082 29.3868 33.3411 28.6459 33.3411C27.905 33.3411 27.244 33.5082 26.6629 33.8423C26.0818 34.1765 25.6169 34.6486 25.2682 35.2587C24.9196 35.8544 24.7452 36.5662 24.7452 37.3943C24.7452 38.2078 24.9196 38.9269 25.2682 39.5516C25.6169 40.1618 26.0818 40.6339 26.6629 40.968C27.244 41.3022 27.905 41.4692 28.6459 41.4692ZM41.4975 43.2997C40.3353 43.2997 39.4346 42.9874 38.7954 42.3627C38.1562 41.738 37.8366 40.8446 37.8366 39.6824V29.0918H39.9286V39.5952C39.9286 40.2199 40.0811 40.6993 40.3862 41.0334C40.7058 41.3675 41.1561 41.5346 41.7372 41.5346C42.391 41.5346 42.9358 41.353 43.3716 40.9898L44.0253 42.4934C43.7057 42.7694 43.3207 42.9728 42.8704 43.1036C42.4346 43.2343 41.9769 43.2997 41.4975 43.2997ZM35.8754 33.3411V31.6196H43.2408V33.3411H35.8754ZM51.3141 43.2997C50.0793 43.2997 48.9897 43.0455 48.0455 42.537C47.1157 42.0285 46.3893 41.3312 45.8663 40.445C45.3579 39.5589 45.1036 38.542 45.1036 37.3943C45.1036 36.2466 45.3506 35.2297 45.8445 34.3435C46.353 33.4573 47.0431 32.7673 47.9147 32.2734C48.8009 31.7649 49.796 31.5107 50.9001 31.5107C52.0187 31.5107 53.0066 31.7576 53.8637 32.2516C54.7208 32.7455 55.3891 33.4428 55.8685 34.3435C56.3624 35.2297 56.6094 36.2684 56.6094 37.4597C56.6094 37.5468 56.6021 37.6485 56.5876 37.7647C56.5876 37.881 56.5803 37.9899 56.5658 38.0916H46.738V36.588H55.4762L54.6264 37.111C54.6409 36.3701 54.4884 35.7091 54.1688 35.128C53.8492 34.5469 53.4061 34.0966 52.8395 33.7769C52.2875 33.4428 51.641 33.2758 50.9001 33.2758C50.1737 33.2758 49.5273 33.4428 48.9607 33.7769C48.3941 34.0966 47.951 34.5542 47.6314 35.1498C47.3118 35.7309 47.152 36.3992 47.152 37.1546V37.5032C47.152 38.2732 47.3263 38.9632 47.675 39.5734C48.0382 40.169 48.5394 40.6339 49.1786 40.968C49.8178 41.3022 50.5514 41.4692 51.3795 41.4692C52.0623 41.4692 52.6797 41.353 53.2318 41.1206C53.7983 40.8881 54.2923 40.5395 54.7136 40.0746L55.8685 41.4257C55.3455 42.0358 54.6918 42.5007 53.9073 42.8203C53.1373 43.1399 52.2729 43.2997 51.3141 43.2997ZM64.548 43.2997C63.3713 43.2997 62.318 43.0455 61.3883 42.537C60.4731 42.0285 59.754 41.3312 59.231 40.445C58.708 39.5589 58.4465 38.542 58.4465 37.3943C58.4465 36.2466 58.708 35.2297 59.231 34.3435C59.754 33.4573 60.4731 32.7673 61.3883 32.2734C62.318 31.7649 63.3713 31.5107 64.548 31.5107C65.594 31.5107 66.5237 31.7213 67.3373 32.1426C68.1653 32.5494 68.8046 33.1595 69.2549 33.9731L67.6641 34.9973C67.2864 34.4307 66.8216 34.0167 66.2695 33.7552C65.732 33.4791 65.1509 33.3411 64.5262 33.3411C63.7708 33.3411 63.0953 33.5082 62.4996 33.8423C61.904 34.1765 61.4319 34.6486 61.0832 35.2587C60.7346 35.8544 60.5602 36.5662 60.5602 37.3943C60.5602 38.2223 60.7346 38.9415 61.0832 39.5516C61.4319 40.1618 61.904 40.6339 62.4996 40.968C63.0953 41.3022 63.7708 41.4692 64.5262 41.4692C65.1509 41.4692 65.732 41.3385 66.2695 41.077C66.8216 40.801 67.2864 40.3797 67.6641 39.8131L69.2549 40.8155C68.8046 41.6145 68.1653 42.2319 67.3373 42.6677C66.5237 43.089 65.594 43.2997 64.548 43.2997ZM76.0783 43.2997C74.9161 43.2997 74.0154 42.9874 73.3762 42.3627C72.737 41.738 72.4173 40.8446 72.4173 39.6824V29.0918H74.5093V39.5952C74.5093 40.2199 74.6618 40.6993 74.9669 41.0334C75.2865 41.3675 75.7369 41.5346 76.318 41.5346C76.9717 41.5346 77.5165 41.353 77.9523 40.9898L78.606 42.4934C78.2864 42.7694 77.9015 42.9728 77.4511 43.1036C77.0153 43.2343 76.5577 43.2997 76.0783 43.2997ZM70.4561 33.3411V31.6196H77.8216V33.3411H70.4561ZM90.3214 43.1689V29.811H85.0915V27.9151H97.7086V29.811H92.4787V43.1689H90.3214ZM103.532 43.2997C102.37 43.2997 101.338 43.0455 100.437 42.537C99.5367 42.0285 98.8249 41.3312 98.3019 40.445C97.7789 39.5443 97.5174 38.5274 97.5174 37.3943C97.5174 36.2466 97.7789 35.2297 98.3019 34.3435C98.8249 33.4573 99.5367 32.7673 100.437 32.2734C101.338 31.7649 102.37 31.5107 103.532 31.5107C104.679 31.5107 105.704 31.7649 106.604 32.2734C107.52 32.7673 108.231 33.4573 108.74 34.3435C109.263 35.2152 109.524 36.2321 109.524 37.3943C109.524 38.542 109.263 39.5589 108.74 40.445C108.231 41.3312 107.52 42.0285 106.604 42.537C105.704 43.0455 104.679 43.2997 103.532 43.2997ZM103.532 41.4692C104.273 41.4692 104.934 41.3022 105.515 40.968C106.11 40.6339 106.575 40.1618 106.909 39.5516C107.244 38.9269 107.411 38.2078 107.411 37.3943C107.411 36.5662 107.244 35.8544 106.909 35.2587C106.575 34.6486 106.11 34.1765 105.515 33.8423C104.934 33.5082 104.273 33.3411 103.532 33.3411C102.791 33.3411 102.13 33.5082 101.549 33.8423C100.968 34.1765 100.503 34.6486 100.154 35.2587C99.8055 35.8544 99.6311 36.5662 99.6311 37.3943C99.6311 38.2078 99.8055 38.9269 100.154 39.5516C100.503 40.1618 100.968 40.6339 101.549 40.968C102.13 41.3022 102.791 41.4692 103.532 41.4692ZM126.865 31.5107C127.795 31.5107 128.616 31.6923 129.327 32.0554C130.039 32.4186 130.591 32.9707 130.984 33.7116C131.39 34.4525 131.594 35.3895 131.594 36.5226V43.1689H129.502V36.7623C129.502 35.6437 129.24 34.8011 128.717 34.2346C128.194 33.668 127.461 33.3847 126.516 33.3847C125.819 33.3847 125.209 33.53 124.686 33.8205C124.163 34.1111 123.756 34.5396 123.466 35.1062C123.19 35.6728 123.052 36.3774 123.052 37.22V43.1689H120.96V36.7623C120.96 35.6437 120.698 34.8011 120.175 34.2346C119.667 33.668 118.933 33.3847 117.974 33.3847C117.291 33.3847 116.689 33.53 116.166 33.8205C115.643 34.1111 115.236 34.5396 114.945 35.1062C114.655 35.6728 114.509 36.3774 114.509 37.22V43.1689H112.417V31.6196H114.422V34.6922L114.095 33.9077C114.459 33.1523 115.018 32.5639 115.773 32.1426C116.529 31.7213 117.408 31.5107 118.41 31.5107C119.514 31.5107 120.466 31.7867 121.265 32.3387C122.064 32.8762 122.587 33.697 122.834 34.8011L121.984 34.4525C122.332 33.5663 122.943 32.8545 123.814 32.3169C124.686 31.7794 125.703 31.5107 126.865 31.5107ZM140.389 43.2997C139.227 43.2997 138.196 43.0455 137.295 42.537C136.394 42.0285 135.683 41.3312 135.16 40.445C134.637 39.5443 134.375 38.5274 134.375 37.3943C134.375 36.2466 134.637 35.2297 135.16 34.3435C135.683 33.4573 136.394 32.7673 137.295 32.2734C138.196 31.7649 139.227 31.5107 140.389 31.5107C141.537 31.5107 142.561 31.7649 143.462 32.2734C144.377 32.7673 145.089 33.4573 145.598 34.3435C146.121 35.2152 146.382 36.2321 146.382 37.3943C146.382 38.542 146.121 39.5589 145.598 40.445C145.089 41.3312 144.377 42.0285 143.462 42.537C142.561 43.0455 141.537 43.2997 140.389 43.2997ZM140.389 41.4692C141.13 41.4692 141.791 41.3022 142.372 40.968C142.968 40.6339 143.433 40.1618 143.767 39.5516C144.101 38.9269 144.268 38.2078 144.268 37.3943C144.268 36.5662 144.101 35.8544 143.767 35.2587C143.433 34.6486 142.968 34.1765 142.372 33.8423C141.791 33.5082 141.13 33.3411 140.389 33.3411C139.649 33.3411 138.988 33.5082 138.406 33.8423C137.825 34.1765 137.361 34.6486 137.012 35.2587C136.663 35.8544 136.489 36.5662 136.489 37.3943C136.489 38.2078 136.663 38.9269 137.012 39.5516C137.361 40.1618 137.825 40.6339 138.406 40.968C138.988 41.3022 139.649 41.4692 140.389 41.4692ZM149.275 43.1689V31.6196H151.28V34.7576L151.084 33.9731C151.403 33.1741 151.941 32.5639 152.696 32.1426C153.452 31.7213 154.382 31.5107 155.486 31.5107V33.5372C155.398 33.5227 155.311 33.5155 155.224 33.5155C155.152 33.5155 155.079 33.5155 155.006 33.5155C153.888 33.5155 153.001 33.8496 152.348 34.5178C151.694 35.1861 151.367 36.1522 151.367 37.4161V43.1689H149.275ZM158.064 43.1689V31.6196H160.069V34.7576L159.873 33.9731C160.192 33.1741 160.73 32.5639 161.485 32.1426C162.241 31.7213 163.17 31.5107 164.274 31.5107V33.5372C164.187 33.5227 164.1 33.5155 164.013 33.5155C163.94 33.5155 163.868 33.5155 163.795 33.5155C162.676 33.5155 161.79 33.8496 161.137 34.5178C160.483 35.1861 160.156 36.1522 160.156 37.4161V43.1689H158.064ZM171.693 43.2997C170.531 43.2997 169.499 43.0455 168.599 42.537C167.698 42.0285 166.986 41.3312 166.463 40.445C165.94 39.5443 165.679 38.5274 165.679 37.3943C165.679 36.2466 165.94 35.2297 166.463 34.3435C166.986 33.4573 167.698 32.7673 168.599 32.2734C169.499 31.7649 170.531 31.5107 171.693 31.5107C172.841 31.5107 173.865 31.7649 174.766 32.2734C175.681 32.7673 176.393 33.4573 176.901 34.3435C177.424 35.2152 177.686 36.2321 177.686 37.3943C177.686 38.542 177.424 39.5589 176.901 40.445C176.393 41.3312 175.681 42.0285 174.766 42.537C173.865 43.0455 172.841 43.2997 171.693 43.2997ZM171.693 41.4692C172.434 41.4692 173.095 41.3022 173.676 40.968C174.272 40.6339 174.737 40.1618 175.071 39.5516C175.405 38.9269 175.572 38.2078 175.572 37.3943C175.572 36.5662 175.405 35.8544 175.071 35.2587C174.737 34.6486 174.272 34.1765 173.676 33.8423C173.095 33.5082 172.434 33.3411 171.693 33.3411C170.952 33.3411 170.291 33.5082 169.71 33.8423C169.129 34.1765 168.664 34.6486 168.315 35.2587C167.967 35.8544 167.792 36.5662 167.792 37.3943C167.792 38.2078 167.967 38.9269 168.315 39.5516C168.664 40.1618 169.129 40.6339 169.71 40.968C170.291 41.3022 170.952 41.4692 171.693 41.4692ZM182.7 43.1689L178.407 31.6196H180.39L184.204 42.0794H183.267L187.233 31.6196H188.998L192.877 42.0794H191.961L195.862 31.6196H197.736L193.421 43.1689H191.417L187.777 33.6244H188.388L184.705 43.1689H182.7ZM199.636 43.2997C199.23 43.2997 198.881 43.1617 198.59 42.8857C198.3 42.5951 198.155 42.2319 198.155 41.7961C198.155 41.3603 198.3 41.0044 198.59 40.7283C198.881 40.4523 199.23 40.3143 199.636 40.3143C200.029 40.3143 200.363 40.4523 200.639 40.7283C200.929 41.0044 201.075 41.3603 201.075 41.7961C201.075 42.2319 200.929 42.5951 200.639 42.8857C200.363 43.1617 200.029 43.2997 199.636 43.2997Z" fill="#F4C903"/>
</svg>
