<svg width="272" height="31" viewBox="0 0 272 31" fill="none" xmlns="http://www.w3.org/2000/svg">
<path d="M27.4497 19.3973L24.3048 24.8443C23.6884 25.9262 22.5436 26.4923 21.3863 26.4168H18.8703V28.9328L15.7253 23.2719L18.8703 17.6109V20.1269H22.4178L19.6251 15.2837L25.0721 12.1387L27.3365 16.0636C27.9907 17.0323 28.0787 18.328 27.4497 19.3973ZM11.5866 3.84863H17.8765C19.1093 3.84863 20.1786 4.56568 20.6944 5.59723L21.9523 7.78611L24.1287 6.52813L20.8076 12.0758L14.329 12.189L16.5053 10.9311L14.7315 7.84901L11.9514 12.6922L6.49176 9.54729L8.75612 5.62239C9.2719 4.57826 10.3412 3.84863 11.5866 3.84863ZM6.35338 24.8569L3.20843 19.4099C2.59202 18.3406 2.68008 17.0574 3.32165 16.0888L4.57963 13.9125L2.40332 12.6545L8.86934 12.7551L12.203 18.3154L10.0267 17.0574L8.25293 20.1269H13.8384V26.4168H9.30964C8.72028 26.4595 8.13078 26.3359 7.60817 26.0601C7.08556 25.7844 6.65082 25.3675 6.35338 24.8569Z" fill="#F4C903"/>
<path d="M41.7242 20.5957V10.8065H45.542C46.3997 10.8065 47.1316 10.9417 47.7376 11.2121C48.3436 11.4825 48.8097 11.874 49.136 12.3868C49.4623 12.8996 49.6255 13.5102 49.6255 14.2188C49.6255 14.9273 49.4623 15.538 49.136 16.0507C48.8097 16.5542 48.3436 16.9457 47.7376 17.2254C47.1316 17.4958 46.3997 17.631 45.542 17.631H42.4934L43.1227 16.9737V20.5957H41.7242ZM43.1227 17.1136L42.4934 16.4143H45.5001C46.3951 16.4143 47.071 16.2232 47.5278 15.841C47.994 15.4587 48.227 14.918 48.227 14.2188C48.227 13.5195 47.994 12.9788 47.5278 12.5966C47.071 12.2143 46.3951 12.0232 45.5001 12.0232H42.4934L43.1227 11.324V17.1136ZM56.0169 20.5957V19.0294L55.9469 18.7358V16.0647C55.9469 15.496 55.7791 15.0578 55.4435 14.7502C55.1172 14.4332 54.6231 14.2747 53.9611 14.2747C53.5229 14.2747 53.0941 14.3493 52.6746 14.4985C52.255 14.6383 51.9007 14.8294 51.6117 15.0718L51.0523 14.0649C51.4346 13.7573 51.8914 13.5242 52.4228 13.3657C52.9636 13.1979 53.5276 13.114 54.115 13.114C55.1312 13.114 55.9143 13.361 56.4644 13.8552C57.0144 14.3493 57.2894 15.1044 57.2894 16.1207V20.5957H56.0169ZM53.5835 20.6796C53.0335 20.6796 52.5487 20.5864 52.1292 20.3999C51.7189 20.2135 51.402 19.9571 51.1782 19.6308C50.9545 19.2951 50.8426 18.9176 50.8426 18.498C50.8426 18.0971 50.9358 17.7335 51.1223 17.4072C51.3181 17.0809 51.6304 16.8199 52.0592 16.6241C52.4974 16.4283 53.0848 16.3304 53.8213 16.3304H56.1707V17.2954H53.8772C53.206 17.2954 52.7538 17.4072 52.5207 17.631C52.2876 17.8547 52.1711 18.1251 52.1711 18.4421C52.1711 18.8057 52.3156 19.0994 52.6046 19.3231C52.8936 19.5375 53.2945 19.6448 53.8073 19.6448C54.3107 19.6448 54.7489 19.5329 55.1218 19.3091C55.5041 19.0854 55.7791 18.7591 55.9469 18.3302L56.2126 19.2532C56.0355 19.6914 55.7232 20.041 55.2757 20.302C54.8282 20.5537 54.2641 20.6796 53.5835 20.6796ZM63.0043 20.6796C62.2491 20.6796 61.5732 20.5165 60.9766 20.1902C60.3892 19.8638 59.9277 19.4163 59.5921 18.8476C59.2565 18.2789 59.0886 17.6263 59.0886 16.8898C59.0886 16.1533 59.2565 15.5007 59.5921 14.932C59.9277 14.3633 60.3892 13.9204 60.9766 13.6034C61.5732 13.2771 62.2491 13.114 63.0043 13.114C63.6756 13.114 64.2722 13.2492 64.7943 13.5195C65.3257 13.7806 65.736 14.1721 66.025 14.6942L65.0041 15.3515C64.7617 14.9879 64.4634 14.7222 64.1091 14.5544C63.7641 14.3773 63.3912 14.2887 62.9903 14.2887C62.5055 14.2887 62.072 14.3959 61.6898 14.6103C61.3075 14.8248 61.0045 15.1278 60.7808 15.5193C60.557 15.9016 60.4451 16.3584 60.4451 16.8898C60.4451 17.4212 60.557 17.8827 60.7808 18.2743C61.0045 18.6658 61.3075 18.9688 61.6898 19.1833C62.072 19.3977 62.5055 19.5049 62.9903 19.5049C63.3912 19.5049 63.7641 19.421 64.1091 19.2532C64.4634 19.0761 64.7617 18.8057 65.0041 18.4421L66.025 19.0854C65.736 19.5981 65.3257 19.9944 64.7943 20.2741C64.2722 20.5444 63.6756 20.6796 63.0043 20.6796ZM68.7583 18.8057L68.7863 17.0856L73.0515 13.1839H74.6737L71.4014 16.4003L70.6742 17.0157L68.7583 18.8057ZM67.6675 20.5957V10.2192H69.01V20.5957H67.6675ZM73.3312 20.5957L70.4224 16.9877L71.2895 15.9109L74.9814 20.5957H73.3312ZM76.2849 20.5957V13.1839H77.6274V20.5957H76.2849ZM76.9562 11.7575C76.6951 11.7575 76.476 11.6736 76.2989 11.5058C76.1311 11.3379 76.0472 11.1328 76.0472 10.8904C76.0472 10.6387 76.1311 10.429 76.2989 10.2611C76.476 10.0933 76.6951 10.0094 76.9562 10.0094C77.2172 10.0094 77.4316 10.0933 77.5995 10.2611C77.7766 10.4196 77.8652 10.6201 77.8652 10.8625C77.8652 11.1142 77.7813 11.3286 77.6134 11.5058C77.4456 11.6736 77.2265 11.7575 76.9562 11.7575ZM84.1484 13.114C84.7544 13.114 85.2858 13.2305 85.7426 13.4636C86.2087 13.6967 86.5723 14.0509 86.8334 14.5264C87.0944 15.0019 87.225 15.6032 87.225 16.3304V20.5957H85.8824V16.4843C85.8824 15.7664 85.7053 15.2256 85.351 14.862C85.0061 14.4985 84.5166 14.3167 83.8827 14.3167C83.4072 14.3167 82.9923 14.4099 82.638 14.5963C82.2838 14.7828 82.0087 15.0578 81.8129 15.4214C81.6265 15.785 81.5333 16.2372 81.5333 16.7779V20.5957H80.1907V13.1839H81.4773V15.1837L81.2675 14.6523C81.5099 14.1675 81.8829 13.7899 82.3863 13.5195C82.8898 13.2492 83.4771 13.114 84.1484 13.114ZM92.9539 23.3926C92.2733 23.3926 91.6114 23.2947 90.9681 23.0989C90.3341 22.9125 89.8167 22.6421 89.4158 22.2878L90.0591 21.253C90.4041 21.5513 90.8283 21.7844 91.3317 21.9522C91.8352 22.1293 92.3619 22.2179 92.912 22.2179C93.7883 22.2179 94.4316 22.0128 94.8418 21.6026C95.252 21.1924 95.4571 20.5677 95.4571 19.7287V18.1624L95.597 16.694L95.5271 15.2117V13.1839H96.7997V19.5888C96.7997 20.894 96.4734 21.8543 95.8207 22.4696C95.1681 23.0849 94.2125 23.3926 92.9539 23.3926ZM92.7861 20.288C92.0682 20.288 91.4249 20.1389 90.8562 19.8405C90.2969 19.5329 89.8493 19.1087 89.5137 18.5679C89.1874 18.0272 89.0243 17.4026 89.0243 16.694C89.0243 15.9761 89.1874 15.3515 89.5137 14.8201C89.8493 14.2794 90.2969 13.8598 90.8562 13.5615C91.4249 13.2632 92.0682 13.114 92.7861 13.114C93.4201 13.114 93.9981 13.2445 94.5202 13.5055C95.0423 13.7573 95.4571 14.1488 95.7648 14.6802C96.0818 15.2117 96.2403 15.8829 96.2403 16.694C96.2403 17.4958 96.0818 18.1624 95.7648 18.6938C95.4571 19.2252 95.0423 19.6261 94.5202 19.8965C93.9981 20.1575 93.4201 20.288 92.7861 20.288ZM92.9399 19.1133C93.434 19.1133 93.8722 19.0108 94.2545 18.8057C94.6367 18.6006 94.9351 18.3162 95.1495 17.9526C95.3732 17.589 95.4851 17.1695 95.4851 16.694C95.4851 16.2185 95.3732 15.799 95.1495 15.4354C94.9351 15.0718 94.6367 14.7921 94.2545 14.5963C93.8722 14.3912 93.434 14.2887 92.9399 14.2887C92.4458 14.2887 92.003 14.3912 91.6114 14.5963C91.2292 14.7921 90.9262 15.0718 90.7024 15.4354C90.488 15.799 90.3808 16.2185 90.3808 16.694C90.3808 17.1695 90.488 17.589 90.7024 17.9526C90.9262 18.3162 91.2292 18.6006 91.6114 18.8057C92.003 19.0108 92.4458 19.1133 92.9399 19.1133ZM103.316 20.5957V12.5266C103.316 11.7994 103.526 11.2214 103.946 10.7926C104.374 10.3544 104.98 10.1353 105.764 10.1353C106.053 10.1353 106.328 10.1726 106.589 10.2472C106.859 10.3124 107.087 10.4196 107.274 10.5688L106.868 11.5897C106.728 11.4778 106.57 11.3939 106.393 11.3379C106.216 11.2727 106.029 11.2401 105.833 11.2401C105.442 11.2401 105.144 11.3519 104.938 11.5757C104.733 11.7901 104.631 12.1118 104.631 12.5406V13.5335L104.659 14.1488V20.5957H103.316ZM102.058 14.2887V13.1839H106.784V14.2887H102.058ZM111.116 20.6796C110.37 20.6796 109.708 20.5165 109.13 20.1902C108.552 19.8638 108.095 19.4163 107.759 18.8476C107.424 18.2696 107.256 17.617 107.256 16.8898C107.256 16.1533 107.424 15.5007 107.759 14.932C108.095 14.3633 108.552 13.9204 109.13 13.6034C109.708 13.2771 110.37 13.114 111.116 13.114C111.852 13.114 112.51 13.2771 113.088 13.6034C113.675 13.9204 114.132 14.3633 114.458 14.932C114.794 15.4914 114.962 16.144 114.962 16.8898C114.962 17.6263 114.794 18.2789 114.458 18.8476C114.132 19.4163 113.675 19.8638 113.088 20.1902C112.51 20.5165 111.852 20.6796 111.116 20.6796ZM111.116 19.5049C111.591 19.5049 112.015 19.3977 112.388 19.1833C112.771 18.9688 113.069 18.6658 113.283 18.2743C113.498 17.8734 113.605 17.4119 113.605 16.8898C113.605 16.3584 113.498 15.9016 113.283 15.5193C113.069 15.1278 112.771 14.8248 112.388 14.6103C112.015 14.3959 111.591 14.2887 111.116 14.2887C110.64 14.2887 110.216 14.3959 109.843 14.6103C109.47 14.8248 109.172 15.1278 108.948 15.5193C108.724 15.9016 108.613 16.3584 108.613 16.8898C108.613 17.4119 108.724 17.8734 108.948 18.2743C109.172 18.6658 109.47 18.9688 109.843 19.1833C110.216 19.3977 110.64 19.5049 111.116 19.5049ZM116.818 20.5957V13.1839H118.105V15.1977L117.979 14.6942C118.184 14.1815 118.529 13.7899 119.014 13.5195C119.499 13.2492 120.095 13.114 120.804 13.114V14.4145C120.748 14.4052 120.692 14.4006 120.636 14.4006C120.589 14.4006 120.543 14.4006 120.496 14.4006C119.778 14.4006 119.21 14.615 118.79 15.0438C118.37 15.4727 118.161 16.0927 118.161 16.9038V20.5957H116.818ZM130.911 20.5957V19.0294L130.841 18.7358V16.0647C130.841 15.496 130.673 15.0578 130.337 14.7502C130.011 14.4332 129.517 14.2747 128.855 14.2747C128.417 14.2747 127.988 14.3493 127.568 14.4985C127.149 14.6383 126.794 14.8294 126.505 15.0718L125.946 14.0649C126.328 13.7573 126.785 13.5242 127.317 13.3657C127.857 13.1979 128.421 13.114 129.009 13.114C130.025 13.114 130.808 13.361 131.358 13.8552C131.908 14.3493 132.183 15.1044 132.183 16.1207V20.5957H130.911ZM128.477 20.6796C127.927 20.6796 127.442 20.5864 127.023 20.3999C126.613 20.2135 126.296 19.9571 126.072 19.6308C125.848 19.2951 125.736 18.9176 125.736 18.498C125.736 18.0971 125.829 17.7335 126.016 17.4072C126.212 17.0809 126.524 16.8199 126.953 16.6241C127.391 16.4283 127.978 16.3304 128.715 16.3304H131.064V17.2954H128.771C128.1 17.2954 127.647 17.4072 127.414 17.631C127.181 17.8547 127.065 18.1251 127.065 18.4421C127.065 18.8057 127.209 19.0994 127.498 19.3231C127.787 19.5375 128.188 19.6448 128.701 19.6448C129.204 19.6448 129.643 19.5329 130.016 19.3091C130.398 19.0854 130.673 18.7591 130.841 18.3302L131.106 19.2532C130.929 19.6914 130.617 20.041 130.169 20.302C129.722 20.5537 129.158 20.6796 128.477 20.6796ZM143.038 20.7076C142.283 20.7076 141.588 20.5864 140.954 20.344C140.32 20.0923 139.77 19.7426 139.304 19.2951C138.838 18.8383 138.474 18.3069 138.213 17.7009C137.952 17.0949 137.822 16.4283 137.822 15.7011C137.822 14.9739 137.952 14.3073 138.213 13.7013C138.474 13.0953 138.838 12.5686 139.304 12.1211C139.78 11.6643 140.334 11.3146 140.968 11.0722C141.602 10.8205 142.302 10.6947 143.066 10.6947C143.84 10.6947 144.548 10.8205 145.192 11.0722C145.835 11.324 146.38 11.7015 146.828 12.205L145.961 13.072C145.56 12.6805 145.122 12.3961 144.646 12.219C144.18 12.0325 143.672 11.9393 143.122 11.9393C142.563 11.9393 142.04 12.0325 141.556 12.219C141.08 12.4054 140.665 12.6665 140.311 13.0021C139.966 13.3377 139.696 13.7386 139.5 14.2048C139.314 14.6616 139.22 15.1604 139.22 15.7011C139.22 16.2325 139.314 16.7313 139.5 17.1975C139.696 17.6543 139.966 18.0552 140.311 18.4001C140.665 18.7358 141.08 18.9968 141.556 19.1833C142.031 19.3697 142.549 19.463 143.108 19.463C143.63 19.463 144.129 19.3837 144.604 19.2252C145.089 19.0574 145.537 18.7824 145.947 18.4001L146.744 19.463C146.259 19.8732 145.69 20.1855 145.038 20.3999C144.395 20.605 143.728 20.7076 143.038 20.7076ZM145.401 19.2812V15.6452H146.744V19.463L145.401 19.2812ZM149.226 20.5957V13.1839H150.512V15.1977L150.386 14.6942C150.591 14.1815 150.936 13.7899 151.421 13.5195C151.906 13.2492 152.503 13.114 153.211 13.114V14.4145C153.155 14.4052 153.099 14.4006 153.043 14.4006C152.997 14.4006 152.95 14.4006 152.904 14.4006C152.186 14.4006 151.617 14.615 151.197 15.0438C150.778 15.4727 150.568 16.0927 150.568 16.9038V20.5957H149.226ZM158.098 20.6796C157.306 20.6796 156.606 20.5165 156 20.1902C155.404 19.8638 154.937 19.4163 154.602 18.8476C154.276 18.2789 154.112 17.6263 154.112 16.8898C154.112 16.1533 154.271 15.5007 154.588 14.932C154.914 14.3633 155.357 13.9204 155.916 13.6034C156.485 13.2771 157.124 13.114 157.832 13.114C158.55 13.114 159.184 13.2725 159.734 13.5895C160.284 13.9064 160.713 14.3539 161.021 14.932C161.338 15.5007 161.496 16.1673 161.496 16.9318C161.496 16.9877 161.492 17.053 161.482 17.1275C161.482 17.2021 161.478 17.272 161.468 17.3373H155.161V16.3724H160.769L160.224 16.708C160.233 16.2325 160.135 15.8083 159.93 15.4354C159.725 15.0625 159.44 14.7735 159.077 14.5684C158.723 14.3539 158.308 14.2467 157.832 14.2467C157.366 14.2467 156.951 14.3539 156.588 14.5684C156.224 14.7735 155.94 15.0672 155.735 15.4494C155.529 15.8223 155.427 16.2512 155.427 16.736V16.9597C155.427 17.4538 155.539 17.8967 155.763 18.2883C155.996 18.6705 156.317 18.9688 156.727 19.1833C157.138 19.3977 157.609 19.5049 158.14 19.5049C158.578 19.5049 158.974 19.4303 159.329 19.2812C159.692 19.132 160.009 18.9082 160.28 18.6099L161.021 19.4769C160.685 19.8685 160.266 20.1668 159.762 20.372C159.268 20.5771 158.713 20.6796 158.098 20.6796ZM166.661 20.6796C165.868 20.6796 165.169 20.5165 164.563 20.1902C163.966 19.8638 163.5 19.4163 163.165 18.8476C162.838 18.2789 162.675 17.6263 162.675 16.8898C162.675 16.1533 162.834 15.5007 163.151 14.932C163.477 14.3633 163.92 13.9204 164.479 13.6034C165.048 13.2771 165.687 13.114 166.395 13.114C167.113 13.114 167.747 13.2725 168.297 13.5895C168.847 13.9064 169.276 14.3539 169.584 14.932C169.901 15.5007 170.059 16.1673 170.059 16.9318C170.059 16.9877 170.054 17.053 170.045 17.1275C170.045 17.2021 170.04 17.272 170.031 17.3373H163.724V16.3724H169.332L168.786 16.708C168.796 16.2325 168.698 15.8083 168.493 15.4354C168.288 15.0625 168.003 14.7735 167.64 14.5684C167.285 14.3539 166.871 14.2467 166.395 14.2467C165.929 14.2467 165.514 14.3539 165.15 14.5684C164.787 14.7735 164.502 15.0672 164.297 15.4494C164.092 15.8223 163.99 16.2512 163.99 16.736V16.9597C163.99 17.4538 164.102 17.8967 164.325 18.2883C164.558 18.6705 164.88 18.9688 165.29 19.1833C165.7 19.3977 166.171 19.5049 166.703 19.5049C167.141 19.5049 167.537 19.4303 167.891 19.2812C168.255 19.132 168.572 18.9082 168.842 18.6099L169.584 19.4769C169.248 19.8685 168.828 20.1668 168.325 20.372C167.831 20.5771 167.276 20.6796 166.661 20.6796ZM175.881 13.114C176.487 13.114 177.018 13.2305 177.475 13.4636C177.941 13.6967 178.305 14.0509 178.566 14.5264C178.827 15.0019 178.957 15.6032 178.957 16.3304V20.5957H177.615V16.4843C177.615 15.7664 177.438 15.2256 177.083 14.862C176.739 14.4985 176.249 14.3167 175.615 14.3167C175.14 14.3167 174.725 14.4099 174.37 14.5963C174.016 14.7828 173.741 15.0578 173.545 15.4214C173.359 15.785 173.266 16.2372 173.266 16.7779V20.5957H171.923V13.1839H173.21V15.1837L173 14.6523C173.242 14.1675 173.615 13.7899 174.119 13.5195C174.622 13.2492 175.21 13.114 175.881 13.114ZM184.742 20.6796C183.95 20.6796 183.251 20.5165 182.645 20.1902C182.048 19.8638 181.582 19.4163 181.246 18.8476C180.92 18.2789 180.757 17.6263 180.757 16.8898C180.757 16.1533 180.915 15.5007 181.232 14.932C181.559 14.3633 182.001 13.9204 182.561 13.6034C183.129 13.2771 183.768 13.114 184.477 13.114C185.194 13.114 185.828 13.2725 186.379 13.5895C186.929 13.9064 187.357 14.3539 187.665 14.932C187.982 15.5007 188.141 16.1673 188.141 16.9318C188.141 16.9877 188.136 17.053 188.127 17.1275C188.127 17.2021 188.122 17.272 188.113 17.3373H181.806V16.3724H187.413L186.868 16.708C186.877 16.2325 186.779 15.8083 186.574 15.4354C186.369 15.0625 186.085 14.7735 185.721 14.5684C185.367 14.3539 184.952 14.2467 184.477 14.2467C184.01 14.2467 183.596 14.3539 183.232 14.5684C182.868 14.7735 182.584 15.0672 182.379 15.4494C182.174 15.8223 182.071 16.2512 182.071 16.736V16.9597C182.071 17.4538 182.183 17.8967 182.407 18.2883C182.64 18.6705 182.962 18.9688 183.372 19.1833C183.782 19.3977 184.253 19.5049 184.784 19.5049C185.222 19.5049 185.619 19.4303 185.973 19.2812C186.337 19.132 186.654 18.9082 186.924 18.6099L187.665 19.4769C187.329 19.8685 186.91 20.1668 186.406 20.372C185.912 20.5771 185.358 20.6796 184.742 20.6796ZM190.005 20.5957V13.1839H191.291V15.1977L191.165 14.6942C191.371 14.1815 191.716 13.7899 192.2 13.5195C192.685 13.2492 193.282 13.114 193.99 13.114V14.4145C193.934 14.4052 193.878 14.4006 193.823 14.4006C193.776 14.4006 193.729 14.4006 193.683 14.4006C192.965 14.4006 192.396 14.615 191.977 15.0438C191.557 15.4727 191.347 16.0927 191.347 16.9038V20.5957H190.005ZM201.636 20.5957V12.0232H198.28V10.8065H206.377V12.0232H203.02V20.5957H201.636ZM210.114 20.6796C209.368 20.6796 208.706 20.5165 208.128 20.1902C207.55 19.8638 207.093 19.4163 206.757 18.8476C206.422 18.2696 206.254 17.617 206.254 16.8898C206.254 16.1533 206.422 15.5007 206.757 14.932C207.093 14.3633 207.55 13.9204 208.128 13.6034C208.706 13.2771 209.368 13.114 210.114 13.114C210.85 13.114 211.507 13.2771 212.085 13.6034C212.673 13.9204 213.13 14.3633 213.456 14.932C213.792 15.4914 213.959 16.144 213.959 16.8898C213.959 17.6263 213.792 18.2789 213.456 18.8476C213.13 19.4163 212.673 19.8638 212.085 20.1902C211.507 20.5165 210.85 20.6796 210.114 20.6796ZM210.114 19.5049C210.589 19.5049 211.013 19.3977 211.386 19.1833C211.768 18.9688 212.067 18.6658 212.281 18.2743C212.496 17.8734 212.603 17.4119 212.603 16.8898C212.603 16.3584 212.496 15.9016 212.281 15.5193C212.067 15.1278 211.768 14.8248 211.386 14.6103C211.013 14.3959 210.589 14.2887 210.114 14.2887C209.638 14.2887 209.214 14.3959 208.841 14.6103C208.468 14.8248 208.17 15.1278 207.946 15.5193C207.722 15.9016 207.61 16.3584 207.61 16.8898C207.61 17.4119 207.722 17.8734 207.946 18.2743C208.17 18.6658 208.468 18.9688 208.841 19.1833C209.214 19.3977 209.638 19.5049 210.114 19.5049ZM225.088 13.114C225.684 13.114 226.211 13.2305 226.668 13.4636C227.125 13.6967 227.479 14.0509 227.731 14.5264C227.992 15.0019 228.122 15.6032 228.122 16.3304V20.5957H226.78V16.4843C226.78 15.7664 226.612 15.2256 226.276 14.862C225.941 14.4985 225.47 14.3167 224.864 14.3167C224.417 14.3167 224.025 14.4099 223.689 14.5963C223.354 14.7828 223.093 15.0578 222.906 15.4214C222.729 15.785 222.64 16.2372 222.64 16.7779V20.5957H221.298V16.4843C221.298 15.7664 221.13 15.2256 220.795 14.862C220.468 14.4985 219.997 14.3167 219.382 14.3167C218.944 14.3167 218.557 14.4099 218.221 14.5963C217.886 14.7828 217.625 15.0578 217.438 15.4214C217.252 15.785 217.159 16.2372 217.159 16.7779V20.5957H215.816V13.1839H217.103V15.1557L216.893 14.6523C217.126 14.1675 217.485 13.7899 217.97 13.5195C218.454 13.2492 219.018 13.114 219.662 13.114C220.37 13.114 220.981 13.2911 221.494 13.6454C222.007 13.9903 222.342 14.5171 222.501 15.2256L221.955 15.0019C222.179 14.4332 222.571 13.9764 223.13 13.6314C223.689 13.2865 224.342 13.114 225.088 13.114ZM233.767 20.6796C233.021 20.6796 232.359 20.5165 231.781 20.1902C231.203 19.8638 230.746 19.4163 230.411 18.8476C230.075 18.2696 229.907 17.617 229.907 16.8898C229.907 16.1533 230.075 15.5007 230.411 14.932C230.746 14.3633 231.203 13.9204 231.781 13.6034C232.359 13.2771 233.021 13.114 233.767 13.114C234.504 13.114 235.161 13.2771 235.739 13.6034C236.326 13.9204 236.783 14.3633 237.109 14.932C237.445 15.4914 237.613 16.144 237.613 16.8898C237.613 17.6263 237.445 18.2789 237.109 18.8476C236.783 19.4163 236.326 19.8638 235.739 20.1902C235.161 20.5165 234.504 20.6796 233.767 20.6796ZM233.767 19.5049C234.243 19.5049 234.667 19.3977 235.04 19.1833C235.422 18.9688 235.72 18.6658 235.935 18.2743C236.149 17.8734 236.256 17.4119 236.256 16.8898C236.256 16.3584 236.149 15.9016 235.935 15.5193C235.72 15.1278 235.422 14.8248 235.04 14.6103C234.667 14.3959 234.243 14.2887 233.767 14.2887C233.292 14.2887 232.867 14.3959 232.495 14.6103C232.122 14.8248 231.823 15.1278 231.6 15.5193C231.376 15.9016 231.264 16.3584 231.264 16.8898C231.264 17.4119 231.376 17.8734 231.6 18.2743C231.823 18.6658 232.122 18.9688 232.495 19.1833C232.867 19.3977 233.292 19.5049 233.767 19.5049ZM239.47 20.5957V13.1839H240.756V15.1977L240.63 14.6942C240.835 14.1815 241.18 13.7899 241.665 13.5195C242.15 13.2492 242.747 13.114 243.455 13.114V14.4145C243.399 14.4052 243.343 14.4006 243.287 14.4006C243.241 14.4006 243.194 14.4006 243.147 14.4006C242.43 14.4006 241.861 14.615 241.441 15.0438C241.022 15.4727 240.812 16.0927 240.812 16.9038V20.5957H239.47ZM245.11 20.5957V13.1839H246.396V15.1977L246.27 14.6942C246.476 14.1815 246.821 13.7899 247.305 13.5195C247.79 13.2492 248.387 13.114 249.095 13.114V14.4145C249.039 14.4052 248.983 14.4006 248.928 14.4006C248.881 14.4006 248.834 14.4006 248.788 14.4006C248.07 14.4006 247.501 14.615 247.082 15.0438C246.662 15.4727 246.452 16.0927 246.452 16.9038V20.5957H245.11ZM253.856 20.6796C253.11 20.6796 252.448 20.5165 251.87 20.1902C251.292 19.8638 250.836 19.4163 250.5 18.8476C250.164 18.2696 249.996 17.617 249.996 16.8898C249.996 16.1533 250.164 15.5007 250.5 14.932C250.836 14.3633 251.292 13.9204 251.87 13.6034C252.448 13.2771 253.11 13.114 253.856 13.114C254.593 13.114 255.25 13.2771 255.828 13.6034C256.415 13.9204 256.872 14.3633 257.199 14.932C257.534 15.4914 257.702 16.144 257.702 16.8898C257.702 17.6263 257.534 18.2789 257.199 18.8476C256.872 19.4163 256.415 19.8638 255.828 20.1902C255.25 20.5165 254.593 20.6796 253.856 20.6796ZM253.856 19.5049C254.332 19.5049 254.756 19.3977 255.129 19.1833C255.511 18.9688 255.809 18.6658 256.024 18.2743C256.238 17.8734 256.345 17.4119 256.345 16.8898C256.345 16.3584 256.238 15.9016 256.024 15.5193C255.809 15.1278 255.511 14.8248 255.129 14.6103C254.756 14.3959 254.332 14.2887 253.856 14.2887C253.381 14.2887 252.957 14.3959 252.584 14.6103C252.211 14.8248 251.912 15.1278 251.689 15.5193C251.465 15.9016 251.353 16.3584 251.353 16.8898C251.353 17.4119 251.465 17.8734 251.689 18.2743C251.912 18.6658 252.211 18.9688 252.584 19.1833C252.957 19.3977 253.381 19.5049 253.856 19.5049ZM260.92 20.5957L258.165 13.1839H259.438L261.885 19.8965H261.284L263.829 13.1839H264.962L267.451 19.8965H266.863L269.367 13.1839H270.569L267.8 20.5957H266.514L264.178 14.4705H264.57L262.207 20.5957H260.92Z" fill="white"/>
</svg>
