<svg width="294" height="114" viewBox="0 0 294 114" fill="none" xmlns="http://www.w3.org/2000/svg">
<path d="M15.2072 38.6315C12.2191 38.6315 9.35553 38.2402 6.61646 37.4576C3.8774 36.6395 1.67191 35.5901 1.73954e-05 34.3095L2.93473 27.7998C4.53548 28.9381 6.42081 29.8807 8.59072 30.6277C10.7962 31.3392 13.0195 31.6949 15.2605 31.6949C16.968 31.6949 18.3375 31.5348 19.3691 31.2147C20.4363 30.859 21.2189 30.3787 21.7169 29.774C22.2149 29.1693 22.4639 28.4756 22.4639 27.693C22.4639 26.697 22.0726 25.9144 21.29 25.3453C20.5074 24.7405 19.4758 24.2603 18.1952 23.9046C16.9146 23.5133 15.4917 23.1576 13.9266 22.8374C12.397 22.4817 10.8496 22.0548 9.28438 21.5568C7.75478 21.0588 6.34967 20.4185 5.06907 19.6359C3.78847 18.8533 2.73908 17.8217 1.92092 16.5411C1.13833 15.2605 0.747035 13.6242 0.747035 11.6321C0.747035 9.49781 1.31619 7.55912 2.4545 5.81608C3.62839 4.03746 5.37143 2.63236 7.68363 1.60076C10.0314 0.533595 12.9661 1.1576e-05 16.4878 1.1576e-05C18.8355 1.1576e-05 21.1477 0.284589 23.4244 0.853745C25.701 1.38733 27.7108 2.20549 29.4539 3.30823L26.7859 9.87132C25.0429 8.8753 23.2999 8.14606 21.5568 7.68362C19.8138 7.18561 18.1063 6.93661 16.4344 6.93661C14.7625 6.93661 13.393 7.13225 12.3258 7.52355C11.2586 7.91484 10.4938 8.43064 10.0314 9.07094C9.56896 9.67567 9.33774 10.3871 9.33774 11.2053C9.33774 12.1657 9.72904 12.9483 10.5116 13.5531C11.2942 14.1222 12.3258 14.5846 13.6064 14.9404C14.887 15.2961 16.2921 15.6518 17.8217 16.0075C19.3869 16.3633 20.9343 16.7723 22.4639 17.2348C24.0291 17.6972 25.452 18.3197 26.7326 19.1023C28.0132 19.8849 29.0448 20.9165 29.8274 22.1971C30.6455 23.4777 31.0546 25.0963 31.0546 27.0527C31.0546 29.1515 30.4677 31.0724 29.2938 32.8154C28.1199 34.5585 26.3591 35.9636 24.0113 37.0308C21.6991 38.0979 18.7644 38.6315 15.2072 38.6315ZM73.1382 8.85751C75.4148 8.85751 77.4246 9.31995 79.1677 10.2448C80.9463 11.1341 82.3336 12.5215 83.3296 14.4068C84.3612 16.2565 84.877 18.6399 84.877 21.5568V37.9912H76.5531V22.8374C76.5531 20.5252 76.0729 18.8177 75.1124 17.715C74.152 16.6123 72.8002 16.0609 71.0572 16.0609C69.8477 16.0609 68.7628 16.3455 67.8023 16.9146C66.8419 17.4482 66.0948 18.2664 65.5613 19.3691C65.0277 20.4719 64.7609 21.877 64.7609 23.5844V37.9912H56.437V22.8374C56.437 20.5252 55.9567 18.8177 54.9963 17.715C54.0714 16.6123 52.7375 16.0609 50.9944 16.0609C49.785 16.0609 48.7 16.3455 47.7396 16.9146C46.7791 17.4482 46.0321 18.2664 45.4985 19.3691C44.9649 20.4719 44.6981 21.877 44.6981 23.5844V37.9912H36.3742V9.28438H44.3246V17.1281L42.8306 14.8337C43.8266 12.8772 45.2317 11.4009 47.0459 10.4049C48.8956 9.37331 50.9944 8.85751 53.3422 8.85751C55.9745 8.85751 58.2689 9.53338 60.2254 10.8851C62.2175 12.2013 63.5336 14.2289 64.1739 16.968L61.2392 16.1676C62.1997 13.9266 63.7293 12.1479 65.8281 10.8318C67.9624 9.5156 70.3991 8.85751 73.1382 8.85751ZM109.946 37.9912V32.3886L109.413 31.1613V21.1299C109.413 19.3513 108.861 17.964 107.759 16.968C106.691 15.972 105.037 15.474 102.796 15.474C101.267 15.474 99.7548 15.723 98.2608 16.221C96.8023 16.6834 95.5573 17.3237 94.5257 18.1419L91.5376 12.3258C93.1028 11.2231 94.9882 10.3693 97.1936 9.7646C99.3991 9.15987 101.64 8.85751 103.917 8.85751C108.292 8.85751 111.689 9.88911 114.108 11.9523C116.527 14.0155 117.737 17.2348 117.737 21.6102V37.9912H109.946ZM101.196 38.4181C98.9545 38.4181 97.0336 38.0446 95.4328 37.2976C93.8321 36.515 92.6048 35.4656 91.7511 34.1494C90.8973 32.8332 90.4705 31.357 90.4705 29.7207C90.4705 28.0132 90.8796 26.5191 91.6977 25.2385C92.5515 23.9579 93.8854 22.9619 95.6996 22.2505C97.5138 21.5035 99.8793 21.1299 102.796 21.1299H110.427V25.9856H103.703C101.747 25.9856 100.395 26.3057 99.6481 26.946C98.9367 27.5863 98.581 28.3867 98.581 29.3471C98.581 30.4143 98.99 31.268 99.8082 31.9084C100.662 32.5131 101.818 32.8154 103.277 32.8154C104.664 32.8154 105.909 32.4953 107.012 31.855C108.114 31.1791 108.915 30.2009 109.413 28.9203L110.693 32.7621C110.089 34.6118 108.986 36.0169 107.385 36.9774C105.784 37.9379 103.721 38.4181 101.196 38.4181ZM125.27 37.9912V9.28438H133.221V17.3949L132.1 15.0471C132.954 13.0195 134.323 11.4899 136.209 10.4583C138.094 9.39109 140.388 8.85751 143.092 8.85751V16.5411C142.736 16.5056 142.416 16.4878 142.131 16.4878C141.847 16.4522 141.544 16.4344 141.224 16.4344C138.948 16.4344 137.098 17.0925 135.675 18.4087C134.288 19.6893 133.594 21.6991 133.594 24.4382V37.9912H125.27ZM160.77 38.4181C157.391 38.4181 154.758 37.5643 152.873 35.8569C150.988 34.1138 150.045 31.5348 150.045 28.1199V2.93473H158.369V28.0132C158.369 29.2226 158.689 30.1653 159.33 30.8412C159.97 31.4815 160.841 31.8016 161.944 31.8016C163.26 31.8016 164.381 31.4459 165.306 30.7345L167.547 36.6039C166.693 37.2086 165.661 37.6711 164.452 37.9912C163.278 38.2758 162.051 38.4181 160.77 38.4181ZM145.616 16.3277V9.92468H165.519V16.3277H145.616ZM2.93473 102.991V65.6403H19.1023C22.4461 65.6403 25.3275 66.1917 27.7464 67.2944C30.1653 68.3616 32.0329 69.909 33.349 71.9366C34.6652 73.9642 35.3233 76.3831 35.3233 79.1934C35.3233 81.968 34.6652 84.3691 33.349 86.3967C32.0329 88.4244 30.1653 89.9895 27.7464 91.0923C25.3275 92.1595 22.4461 92.693 19.1023 92.693H7.73699L11.5788 88.7979V102.991H2.93473ZM11.5788 89.7583L7.73699 85.6497H18.6221C21.29 85.6497 23.2821 85.0806 24.5983 83.9423C25.9144 82.8039 26.5725 81.221 26.5725 79.1934C26.5725 77.1302 25.9144 75.5294 24.5983 74.3911C23.2821 73.2528 21.29 72.6836 18.6221 72.6836H7.73699L11.5788 68.575V89.7583ZM58.2553 102.991V97.3886L57.7217 96.1613V86.1299C57.7217 84.3513 57.1704 82.964 56.0676 81.968C55.0005 80.972 53.3464 80.474 51.1053 80.474C49.5757 80.474 48.0639 80.723 46.5698 81.221C45.1114 81.6834 43.8663 82.3237 42.8347 83.1419L39.8467 77.3258C41.4119 76.2231 43.2972 75.3693 45.5027 74.7646C47.7081 74.1599 49.9492 73.8575 52.2258 73.8575C56.6012 73.8575 59.9984 74.8891 62.4173 76.9523C64.8362 79.0155 66.0457 82.2348 66.0457 86.6102V102.991H58.2553ZM49.5045 103.418C47.2635 103.418 45.3426 103.045 43.7418 102.298C42.1411 101.515 40.9138 100.466 40.0601 99.1494C39.2064 97.8332 38.7795 96.357 38.7795 94.7207C38.7795 93.0132 39.1886 91.5191 40.0067 90.2385C40.8605 88.9579 42.1944 87.9619 44.0086 87.2505C45.8228 86.5035 48.1884 86.1299 51.1053 86.1299H58.7356V90.9856H52.0124C50.0559 90.9856 48.7042 91.3057 47.9572 91.946C47.2457 92.5863 46.89 93.3867 46.89 94.3471C46.89 95.4143 47.2991 96.268 48.1172 96.9084C48.971 97.5131 50.1271 97.8154 51.5855 97.8154C52.9728 97.8154 54.2179 97.4953 55.3206 96.855C56.4234 96.1791 57.2237 95.2009 57.7217 93.9203L59.0023 97.7621C58.3976 99.6118 57.2949 101.017 55.6941 101.977C54.0934 102.938 52.0302 103.418 49.5045 103.418ZM87.6608 103.418C84.566 103.418 81.8092 102.796 79.3903 101.551C76.9713 100.27 75.0682 98.5091 73.6809 96.268C72.3292 94.027 71.6533 91.4836 71.6533 88.6378C71.6533 85.7564 72.3292 83.213 73.6809 81.0075C75.0682 78.7665 76.9713 77.0234 79.3903 75.7784C81.8092 74.4978 84.566 73.8575 87.6608 73.8575C90.6845 73.8575 93.3168 74.4978 95.5579 75.7784C97.7989 77.0234 99.453 78.8198 100.52 81.1676L94.0638 84.6359C93.3168 83.2842 92.3741 82.2881 91.2358 81.6478C90.1331 81.0075 88.9236 80.6874 87.6075 80.6874C86.1846 80.6874 84.904 81.0075 83.7657 81.6478C82.6273 82.2881 81.7203 83.1952 81.0444 84.3691C80.4041 85.543 80.0839 86.9659 80.0839 88.6378C80.0839 90.3097 80.4041 91.7326 81.0444 92.9065C81.7203 94.0804 82.6273 94.9874 83.7657 95.6277C84.904 96.268 86.1846 96.5882 87.6075 96.5882C88.9236 96.5882 90.1331 96.2858 91.2358 95.6811C92.3741 95.0408 93.3168 94.027 94.0638 92.6397L100.52 96.1613C99.453 98.4735 97.7989 100.27 95.5579 101.551C93.3168 102.796 90.6845 103.418 87.6608 103.418ZM111.988 97.1218L112.201 86.9837L125.594 74.2844H135.519L122.659 87.3572L118.337 90.8788L111.988 97.1218ZM105.104 102.991V63.3993H113.428V102.991H105.104ZM126.501 102.991L116.79 90.9322L122.019 84.4758L136.586 102.991H126.501ZM157.417 102.991V97.3886L156.883 96.1613V86.1299C156.883 84.3513 156.332 82.964 155.229 81.968C154.162 80.972 152.508 80.474 150.267 80.474C148.737 80.474 147.225 80.723 145.731 81.221C144.273 81.6834 143.028 82.3237 141.996 83.1419L139.008 77.3258C140.573 76.2231 142.458 75.3693 144.664 74.7646C146.869 74.1599 149.11 73.8575 151.387 73.8575C155.762 73.8575 159.16 74.8891 161.579 76.9523C163.997 79.0155 165.207 82.2348 165.207 86.6102V102.991H157.417ZM148.666 103.418C146.425 103.418 144.504 103.045 142.903 102.298C141.302 101.515 140.075 100.466 139.221 99.1494C138.368 97.8332 137.941 96.357 137.941 94.7207C137.941 93.0132 138.35 91.5191 139.168 90.2385C140.022 88.9579 141.356 87.9619 143.17 87.2505C144.984 86.5035 147.35 86.1299 150.267 86.1299H157.897V90.9856H151.174C149.217 90.9856 147.865 91.3057 147.118 91.946C146.407 92.5863 146.051 93.3867 146.051 94.3471C146.051 95.4143 146.46 96.268 147.278 96.9084C148.132 97.5131 149.288 97.8154 150.747 97.8154C152.134 97.8154 153.379 97.4953 154.482 96.855C155.585 96.1791 156.385 95.2009 156.883 93.9203L158.164 97.7621C157.559 99.6118 156.456 101.017 154.855 101.977C153.255 102.938 151.191 103.418 148.666 103.418ZM186.449 113.77C183.745 113.77 181.13 113.432 178.605 112.756C176.115 112.116 174.034 111.137 172.362 109.821L175.67 103.845C176.88 104.841 178.409 105.624 180.259 106.193C182.144 106.797 183.994 107.1 185.808 107.1C188.761 107.1 190.895 106.442 192.211 105.126C193.563 103.809 194.239 101.853 194.239 99.2561V94.9341L194.772 87.7307L194.666 80.474V74.2844H202.563V98.189C202.563 103.525 201.175 107.456 198.401 109.981C195.626 112.507 191.642 113.77 186.449 113.77ZM185.168 101.604C182.5 101.604 180.081 101.035 177.911 99.8964C175.777 98.7225 174.052 97.104 172.735 95.0408C171.455 92.942 170.815 90.5053 170.815 87.7307C170.815 84.9205 171.455 82.4838 172.735 80.4206C174.052 78.3218 175.777 76.7033 177.911 75.565C180.081 74.4267 182.5 73.8575 185.168 73.8575C187.587 73.8575 189.721 74.3555 191.571 75.3515C193.421 76.312 194.861 77.8238 195.893 79.887C196.925 81.9146 197.44 84.5292 197.44 87.7307C197.44 90.8966 196.925 93.5112 195.893 95.5744C194.861 97.602 193.421 99.1138 191.571 100.11C189.721 101.106 187.587 101.604 185.168 101.604ZM186.822 94.774C188.281 94.774 189.579 94.4894 190.717 93.9203C191.856 93.3155 192.745 92.4796 193.385 91.4124C194.025 90.3453 194.346 89.118 194.346 87.7307C194.346 86.3078 194.025 85.0806 193.385 84.049C192.745 82.9818 191.856 82.1636 190.717 81.5945C189.579 80.9898 188.281 80.6874 186.822 80.6874C185.364 80.6874 184.065 80.9898 182.927 81.5945C181.789 82.1636 180.881 82.9818 180.206 84.049C179.565 85.0806 179.245 86.3078 179.245 87.7307C179.245 89.118 179.565 90.3453 180.206 91.4124C180.881 92.4796 181.789 93.3155 182.927 93.9203C184.065 94.4894 185.364 94.774 186.822 94.774ZM210.31 102.991V74.2844H218.634V102.991H210.31ZM214.472 70.2825C212.943 70.2825 211.697 69.8378 210.737 68.9485C209.777 68.0592 209.296 66.9565 209.296 65.6403C209.296 64.3241 209.777 63.2214 210.737 62.3321C211.697 61.4428 212.943 60.9981 214.472 60.9981C216.002 60.9981 217.247 61.425 218.207 62.2787C219.168 63.0969 219.648 64.1641 219.648 65.4802C219.648 66.8676 219.168 68.0237 218.207 68.9485C217.282 69.8378 216.037 70.2825 214.472 70.2825ZM243.808 73.8575C246.084 73.8575 248.112 74.3199 249.89 75.2448C251.705 76.1341 253.128 77.5215 254.159 79.4068C255.191 81.2565 255.707 83.6399 255.707 86.5568V102.991H247.383V87.8374C247.383 85.5252 246.867 83.8177 245.835 82.715C244.839 81.6123 243.416 81.0609 241.567 81.0609C240.25 81.0609 239.059 81.3455 237.992 81.9146C236.96 82.4482 236.142 83.2842 235.537 84.4225C234.968 85.5608 234.683 87.0193 234.683 88.7979V102.991H226.359V74.2844H234.31V82.2348L232.816 79.8337C233.847 77.9127 235.324 76.4365 237.245 75.4049C239.165 74.3733 241.353 73.8575 243.808 73.8575ZM276.96 113.77C274.256 113.77 271.642 113.432 269.116 112.756C266.626 112.116 264.545 111.137 262.873 109.821L266.181 103.845C267.391 104.841 268.92 105.624 270.77 106.193C272.656 106.797 274.505 107.1 276.32 107.1C279.272 107.1 281.406 106.442 282.723 105.126C284.074 103.809 284.75 101.853 284.75 99.2561V94.9341L285.284 87.7307L285.177 80.474V74.2844H293.074V98.189C293.074 103.525 291.687 107.456 288.912 109.981C286.137 112.507 282.153 113.77 276.96 113.77ZM275.679 101.604C273.011 101.604 270.592 101.035 268.422 99.8964C266.288 98.7225 264.563 97.104 263.247 95.0408C261.966 92.942 261.326 90.5053 261.326 87.7307C261.326 84.9205 261.966 82.4838 263.247 80.4206C264.563 78.3218 266.288 76.7033 268.422 75.565C270.592 74.4267 273.011 73.8575 275.679 73.8575C278.098 73.8575 280.232 74.3555 282.082 75.3515C283.932 76.312 285.373 77.8238 286.404 79.887C287.436 81.9146 287.952 84.5292 287.952 87.7307C287.952 90.8966 287.436 93.5112 286.404 95.5744C285.373 97.602 283.932 99.1138 282.082 100.11C280.232 101.106 278.098 101.604 275.679 101.604ZM277.333 94.774C278.792 94.774 280.09 94.4894 281.229 93.9203C282.367 93.3155 283.256 92.4796 283.896 91.4124C284.537 90.3453 284.857 89.118 284.857 87.7307C284.857 86.3078 284.537 85.0806 283.896 84.049C283.256 82.9818 282.367 82.1636 281.229 81.5945C280.09 80.9898 278.792 80.6874 277.333 80.6874C275.875 80.6874 274.576 80.9898 273.438 81.5945C272.3 82.1636 271.393 82.9818 270.717 84.049C270.077 85.0806 269.756 86.3078 269.756 87.7307C269.756 89.118 270.077 90.3453 270.717 91.4124C271.393 92.4796 272.3 93.3155 273.438 93.9203C274.576 94.4894 275.875 94.774 277.333 94.774Z" fill="white"/>
</svg>
