<svg width="342" height="53" viewBox="0 0 342 53" fill="none" xmlns="http://www.w3.org/2000/svg">
<path d="M5.39746 37.7055L5.36822 17.2255L7.61141 19.4608L0.891425 19.475L0.885485 15.315L10.5495 15.2947L10.5814 37.6946L5.39746 37.7055ZM24.0732 38.0503C22.2386 38.0541 20.5953 37.6096 19.1433 36.7166C17.6913 35.8024 16.5481 34.4821 15.7136 32.7558C14.8792 31.0296 14.4602 28.9398 14.4567 26.4865C14.4532 24.0331 14.8662 21.9416 15.6957 20.2118C16.5253 18.4821 17.6647 17.1677 19.1141 16.2687C20.5635 15.3483 22.2055 14.8862 24.0401 14.8823C25.8961 14.8784 27.5394 15.3336 28.9701 16.2479C30.422 17.1409 31.5652 18.4505 32.3997 20.1767C33.2342 21.903 33.6532 23.9928 33.6567 26.4461C33.6602 28.8994 33.2471 30.991 32.4176 32.7207C31.5881 34.4505 30.4486 35.7755 28.9993 36.6959C27.5712 37.5949 25.9292 38.0464 24.0732 38.0503ZM24.067 33.6663C24.9416 33.6644 25.6986 33.4175 26.3379 32.9255C26.9985 32.4335 27.5094 31.6537 27.8706 30.5863C28.253 29.5188 28.4431 28.1424 28.4407 26.4571C28.4383 24.7717 28.2443 23.3962 27.8588 22.3303C27.4946 21.2644 26.9815 20.4868 26.3194 19.9975C25.6787 19.5082 24.9211 19.2645 24.0464 19.2663C23.1931 19.2681 22.4361 19.515 21.7755 20.0071C21.1362 20.4991 20.6253 21.2788 20.2428 22.3463C19.8816 23.4137 19.7023 24.7901 19.7047 26.4754C19.7071 28.1608 19.8904 29.5364 20.2546 30.6023C20.6401 31.6681 21.1532 32.4457 21.7939 32.9351C22.4559 33.4243 23.2136 33.6681 24.067 33.6663ZM45.7919 38.0046C43.9573 38.0085 42.314 37.5639 40.862 36.671C39.41 35.7567 38.2668 34.4364 37.4324 32.7102C36.5979 30.9839 36.1789 28.8942 36.1754 26.4408C36.1719 23.9875 36.5849 21.896 37.4144 20.1662C38.244 18.4365 39.3834 17.1221 40.8328 16.223C42.2822 15.3026 43.9242 14.8405 45.7588 14.8367C47.6148 14.8328 49.2582 15.288 50.6888 16.2023C52.1407 17.0953 53.2839 18.4049 54.1184 20.1311C54.9529 21.8574 55.3719 23.9471 55.3754 26.4005C55.3789 28.8538 54.9658 30.9453 54.1363 32.6751C53.3068 34.4048 52.1673 35.7299 50.718 36.6503C49.2899 37.5493 47.6479 38.0007 45.7919 38.0046ZM45.7857 33.6206C46.6603 33.6188 47.4173 33.3719 48.0566 32.8799C48.7172 32.3878 49.2281 31.6081 49.5893 30.5406C49.9717 29.4732 50.1618 28.0968 50.1594 26.4114C50.157 24.7261 49.963 23.3505 49.5775 22.2847C49.2133 21.2187 48.7002 20.4412 48.0381 19.9519C47.3974 19.4626 46.6398 19.2188 45.7651 19.2207C44.9118 19.2224 44.1548 19.4694 43.4942 19.9614C42.8549 20.4534 42.344 21.2332 41.9615 22.3007C41.6003 23.3681 41.421 24.7445 41.4234 26.4298C41.4258 28.1151 41.6091 29.4907 41.9733 30.5566C42.3588 31.6225 42.8719 32.4001 43.5126 32.8894C44.1746 33.3787 44.9323 33.6224 45.7857 33.6206ZM68.0286 37.5739L68.004 20.3579L72.772 20.3479L72.7787 25.0519L71.8807 23.6778C72.4764 22.5032 73.3178 21.6161 74.4049 21.0165C75.5134 20.3955 76.7716 20.0835 78.1796 20.0805C79.7583 20.0772 81.1348 20.4797 82.3093 21.2879C83.5051 22.0747 84.2962 23.289 84.6825 24.9309L82.9218 24.4546C83.4959 23.1094 84.4117 22.0408 85.6693 21.2488C86.9481 20.4568 88.4089 20.059 90.0516 20.0556C91.4169 20.0527 92.6226 20.3275 93.6688 20.88C94.7362 21.4111 95.5694 22.2413 96.1683 23.3707C96.7886 24.4788 97.0999 25.9075 97.1024 27.6568L97.1165 37.5128L92.1245 37.5233L92.1115 28.4353C92.1096 27.0486 91.8201 26.0252 91.2432 25.3651C90.6662 24.705 89.8551 24.376 88.8097 24.3782C88.0844 24.3797 87.434 24.5518 86.8585 24.8943C86.2829 25.2155 85.8356 25.7071 85.5166 26.3691C85.1975 27.0311 85.0387 27.8741 85.0402 28.8981L85.0525 37.5381L80.0605 37.5486L80.0476 28.4606C80.0456 27.074 79.7561 26.0506 79.1792 25.3904C78.6236 24.7303 77.8231 24.4013 76.7778 24.4035C76.0524 24.405 75.402 24.5771 74.8265 24.9196C74.251 25.2408 73.8037 25.7324 73.4846 26.3944C73.1656 27.0564 73.0068 27.8994 73.0082 28.9234L73.0206 37.5634L68.0286 37.5739ZM101.591 37.5034L101.557 13.7594L106.549 13.7489L106.583 37.4929L101.591 37.5034ZM120.63 37.4634L120.598 15.0634L137.526 15.0278L137.532 19.1878L125.788 19.2125L125.814 37.4525L120.63 37.4634ZM125.419 29.2933L125.413 25.1333L136.165 25.1107L136.171 29.2707L125.419 29.2933ZM150.776 37.4L150.771 34.04L150.45 33.3047L150.441 27.2887C150.44 26.222 150.108 25.3907 149.446 24.7948C148.805 24.1988 147.813 23.9022 146.469 23.905C145.551 23.907 144.645 24.0582 143.749 24.3588C142.875 24.6379 142.129 25.0235 141.511 25.5155L139.714 22.0312C140.652 21.3679 141.782 20.8535 143.104 20.4881C144.426 20.1227 145.77 19.9385 147.135 19.9356C149.759 19.9301 151.797 20.5445 153.25 21.7788C154.702 23.0131 155.43 24.9422 155.434 27.5662L155.448 37.3902L150.776 37.4ZM145.528 37.667C144.184 37.6699 143.032 37.4483 142.071 37.0023C141.111 36.535 140.374 35.9072 139.861 35.1189C139.347 34.3307 139.09 33.4459 139.089 32.4646C139.087 31.4406 139.331 30.544 139.821 29.775C140.332 29.0059 141.131 28.4069 142.218 27.978C143.306 27.5277 144.724 27.3007 146.473 27.297L151.049 27.2874L151.054 30.1994L147.022 30.2079C145.848 30.2104 145.038 30.4041 144.59 30.789C144.164 31.1739 143.952 31.6543 143.952 32.2303C143.953 32.8703 144.199 33.3818 144.691 33.7648C145.203 34.1264 145.897 34.3063 146.771 34.3044C147.603 34.3027 148.35 34.1091 149.011 33.7237C149.671 33.317 150.151 32.7293 150.448 31.9607L151.219 34.2631C150.858 35.3732 150.198 36.2172 149.239 36.7952C148.28 37.3733 147.043 37.6639 145.528 37.667ZM159.966 37.3807L159.932 13.6367L164.924 13.6262L164.958 37.3702L159.966 37.3807ZM175.383 37.6043C173.911 37.6074 172.492 37.4397 171.126 37.1012C169.782 36.7414 168.715 36.2956 167.925 35.764L169.583 32.1765C170.373 32.6655 171.302 33.0689 172.369 33.3866C173.458 33.683 174.524 33.8301 175.57 33.8279C176.722 33.8255 177.532 33.6851 178.001 33.4068C178.491 33.1284 178.736 32.7439 178.736 32.2532C178.735 31.8479 178.543 31.5496 178.158 31.3585C177.795 31.1459 177.304 30.9869 176.686 30.8816C176.067 30.7762 175.384 30.671 174.637 30.5659C173.912 30.4607 173.175 30.3236 172.429 30.1545C171.682 29.9641 170.999 29.6882 170.379 29.3268C169.76 28.9654 169.258 28.4758 168.873 27.858C168.51 27.2401 168.327 26.4404 168.326 25.4591C168.324 24.3711 168.632 23.4105 169.25 22.5772C169.889 21.7438 170.805 21.0912 171.999 20.6194C173.193 20.1262 174.622 19.8779 176.286 19.8744C177.459 19.8719 178.654 19.9974 179.87 20.2508C181.087 20.5043 182.101 20.8755 182.912 21.3644L181.253 24.9199C180.42 24.431 179.577 24.1021 178.724 23.9333C177.891 23.743 177.081 23.6487 176.291 23.6504C175.182 23.6527 174.371 23.8037 173.86 24.1035C173.348 24.4032 173.093 24.7878 173.094 25.2571C173.094 25.6838 173.276 26.0034 173.639 26.2159C174.023 26.4285 174.525 26.5981 175.144 26.7248C175.763 26.8515 176.435 26.9674 177.16 27.0725C177.907 27.1563 178.654 27.2934 179.401 27.4838C180.148 27.6743 180.82 27.9502 181.418 28.3116C182.037 28.6516 182.539 29.1306 182.924 29.7484C183.309 30.345 183.502 31.1339 183.503 32.1152C183.505 33.1819 183.186 34.1319 182.547 34.9652C181.909 35.7773 180.982 36.4192 179.766 36.8911C178.572 37.3629 177.111 37.6007 175.383 37.6043ZM195.135 37.5628C193.172 37.5669 191.444 37.1865 189.95 36.4217C188.476 35.6568 187.334 34.6138 186.521 33.2929C185.708 31.9506 185.301 30.4261 185.299 28.7194C185.296 26.9914 185.689 25.4653 186.476 24.141C187.285 22.7953 188.382 21.7476 189.767 20.998C191.153 20.2271 192.721 19.8398 194.47 19.8362C196.155 19.8326 197.67 20.1921 199.015 20.9146C200.382 21.6157 201.461 22.6375 202.252 23.9798C203.043 25.3008 203.44 26.8893 203.443 28.7453C203.443 28.9373 203.432 29.1613 203.412 29.4174C203.391 29.6521 203.37 29.8761 203.348 30.0895L189.365 30.1189L189.36 27.2069L200.72 27.183L198.802 28.0511C198.8 27.1551 198.618 26.3768 198.254 25.7162C197.891 25.0556 197.389 24.5447 196.748 24.1834C196.107 23.8007 195.361 23.6103 194.507 23.6121C193.654 23.6139 192.897 23.8075 192.236 24.1929C191.597 24.5569 191.096 25.0806 190.734 25.764C190.373 26.4261 190.192 27.2158 190.194 28.1332L190.195 28.9012C190.196 29.8398 190.4 30.6714 190.806 31.3959C191.234 32.099 191.821 32.6417 192.569 33.0242C193.337 33.3852 194.233 33.5647 195.257 33.5625C196.175 33.5606 196.975 33.4203 197.657 33.1415C198.36 32.8627 199 32.4453 199.575 31.8894L202.235 34.7639C201.447 35.6615 200.456 36.3569 199.262 36.8501C198.068 37.322 196.692 37.5595 195.135 37.5628ZM216.193 37.2625L216.161 14.8626L227.105 14.8396C229.921 14.8336 232.033 15.3625 233.443 16.4262C234.874 17.4899 235.591 18.8964 235.593 20.6457C235.595 21.8191 235.308 22.8437 234.733 23.7195C234.159 24.5741 233.37 25.2371 232.368 25.7085C231.366 26.18 230.215 26.417 228.913 26.4198L229.519 25.1065C230.927 25.1036 232.176 25.3356 233.264 25.8026C234.353 26.2484 235.197 26.9186 235.795 27.8133C236.415 28.708 236.726 29.806 236.728 31.1074C236.731 33.0274 235.976 34.533 234.462 35.6241C232.949 36.694 230.721 37.232 227.777 37.2382L216.193 37.2625ZM221.339 33.3477L227.387 33.335C228.731 33.3322 229.744 33.1167 230.426 32.6886C231.13 32.2391 231.481 31.5344 231.479 30.5744C231.478 29.6357 231.125 28.9431 230.42 28.4966C229.737 28.0287 228.723 27.7962 227.379 27.799L220.947 27.8125L220.942 24.0365L226.478 24.0249C227.737 24.0223 228.696 23.8069 229.357 23.3788C230.039 22.9294 230.379 22.2567 230.378 21.3607C230.377 20.486 230.035 19.8361 229.351 19.4109C228.689 18.9642 227.729 18.7423 226.47 18.7449L221.318 18.7557L221.339 33.3477ZM248.502 37.4506C246.667 37.4545 245.035 37.0739 243.604 36.3089C242.195 35.5439 241.074 34.5009 240.24 33.18C239.427 31.8377 239.02 30.3132 239.017 28.6066C239.015 26.8786 239.418 25.3524 240.227 24.028C241.057 22.6823 242.175 21.6346 243.582 20.8849C245.01 20.1139 246.642 19.7265 248.476 19.7227C250.29 19.7188 251.912 20.0994 253.342 20.8644C254.772 21.6081 255.894 22.6404 256.707 23.9614C257.519 25.2823 257.927 26.8175 257.929 28.5668C257.932 30.2735 257.528 31.7997 256.72 33.1454C255.911 34.4697 254.792 35.5174 253.364 36.2884C251.936 37.0594 250.315 37.4468 248.502 37.4506ZM248.496 33.3546C249.328 33.3529 250.074 33.1593 250.735 32.7739C251.396 32.3885 251.918 31.8435 252.301 31.1386C252.684 30.4125 252.875 29.5588 252.873 28.5774C252.872 27.5748 252.678 26.7218 252.293 26.0187C251.908 25.3155 251.385 24.7726 250.723 24.3899C250.061 24.0073 249.314 23.8169 248.482 23.8187C247.65 23.8204 246.904 24.014 246.243 24.3994C245.582 24.7848 245.05 25.3299 244.645 26.0347C244.262 26.7395 244.072 27.5933 244.073 28.5959C244.075 29.5773 244.268 30.4302 244.653 31.1547C245.059 31.8579 245.593 32.4007 246.255 32.7834C246.917 33.166 247.664 33.3564 248.496 33.3546ZM268.318 37.409C266.292 37.4133 264.712 36.9046 263.58 35.883C262.448 34.84 261.881 33.2945 261.878 31.2465L261.856 16.1425L266.848 16.132L266.87 31.172C266.871 31.8974 267.063 32.4623 267.448 32.8668C267.833 33.25 268.355 33.4409 269.017 33.4395C269.806 33.4379 270.478 33.2231 271.032 32.7953L272.381 36.3125C271.869 36.6762 271.251 36.9548 270.526 37.1484C269.822 37.3205 269.086 37.4074 268.318 37.409ZM259.211 23.7961L259.206 19.9561L271.142 19.931L271.147 23.771L259.211 23.7961ZM281.85 37.3806C279.823 37.3848 278.244 36.8761 277.112 35.8545C275.979 34.8116 275.412 33.2661 275.409 31.2181L275.387 16.1141L280.379 16.1036L280.401 31.1436C280.402 31.8689 280.595 32.4339 280.979 32.8384C281.364 33.2216 281.887 33.4125 282.548 33.4111C283.337 33.4094 284.009 33.1947 284.563 32.7668L285.912 36.284C285.401 36.6478 284.782 36.9264 284.057 37.1199C283.354 37.2921 282.618 37.3789 281.85 37.3806ZM272.742 23.7677L272.737 19.9277L284.673 19.9026L284.678 23.7426L272.742 23.7677ZM296.377 37.35C294.542 37.3539 292.909 36.9733 291.479 36.2083C290.07 35.4433 288.948 34.4003 288.115 33.0794C287.302 31.7371 286.894 30.2126 286.892 28.5059C286.89 26.7779 287.293 25.2518 288.101 23.9274C288.932 22.5816 290.05 21.534 291.457 20.7843C292.885 20.0133 294.517 19.6259 296.351 19.6221C298.165 19.6182 299.787 19.9988 301.217 20.7638C302.647 21.5075 303.769 22.5398 304.581 23.8608C305.394 25.1817 305.801 26.7169 305.804 28.4662C305.806 30.1729 305.403 31.6991 304.595 33.0448C303.786 34.3691 302.667 35.4168 301.239 36.1878C299.811 36.9588 298.19 37.3462 296.377 37.35ZM296.371 33.254C297.203 33.2523 297.949 33.0587 298.61 32.6733C299.271 32.2879 299.793 31.7428 300.176 31.038C300.559 30.3119 300.749 29.4582 300.748 28.4768C300.747 27.4742 300.553 26.6212 300.168 25.918C299.783 25.2148 299.26 24.6719 298.598 24.2893C297.936 23.9067 297.189 23.7163 296.357 23.718C295.525 23.7198 294.779 23.9134 294.118 24.2988C293.457 24.6841 292.925 25.2293 292.52 25.9341C292.137 26.6389 291.947 27.4927 291.948 28.4953C291.949 29.4767 292.143 30.3296 292.528 31.0541C292.934 31.7573 293.468 32.3001 294.13 32.6827C294.792 33.0654 295.539 33.2558 296.371 33.254ZM309.153 37.0672L309.128 19.8512L313.896 19.8412L313.903 24.5452L313.005 23.1711C313.601 21.9965 314.442 21.1094 315.529 20.5098C316.638 19.8888 317.896 19.5768 319.304 19.5738C320.883 19.5705 322.259 19.9729 323.434 20.7811C324.63 21.568 325.421 22.7823 325.807 24.4242L324.046 23.9479C324.62 22.6026 325.536 21.5341 326.794 20.7421C328.073 19.9501 329.533 19.5523 331.176 19.5489C332.541 19.546 333.747 19.8208 334.793 20.3733C335.861 20.9044 336.694 21.7346 337.293 22.864C337.913 23.9721 338.224 25.4007 338.227 27.1501L338.241 37.0061L333.249 37.0165L333.236 27.9286C333.234 26.5419 332.945 25.5185 332.368 24.8584C331.791 24.1983 330.98 23.8693 329.934 23.8715C329.209 23.873 328.558 24.045 327.983 24.3876C327.407 24.7088 326.96 25.2004 326.641 25.8624C326.322 26.5244 326.163 27.3674 326.165 28.3914L326.177 37.0314L321.185 37.0419L321.172 27.9539C321.17 26.5672 320.881 25.5438 320.304 24.8837C319.748 24.2236 318.948 23.8946 317.902 23.8968C317.177 23.8983 316.526 24.0703 315.951 24.4129C315.375 24.7341 314.928 25.2257 314.609 25.8877C314.29 26.5497 314.131 27.3927 314.133 28.4167L314.145 37.0567L309.153 37.0672Z" fill="black"/>
</svg>
