<svg width="432" height="43" viewBox="0 0 432 43" fill="none" xmlns="http://www.w3.org/2000/svg">
<path d="M8.57742 16V6.2H12.3994C13.2581 6.2 13.9908 6.33533 14.5974 6.606C15.2041 6.87667 15.6708 7.26867 15.9974 7.782C16.3241 8.29533 16.4874 8.90667 16.4874 9.616C16.4874 10.3253 16.3241 10.9367 15.9974 11.45C15.6708 11.954 15.2041 12.346 14.5974 12.626C13.9908 12.8967 13.2581 13.032 12.3994 13.032H9.34742L9.97742 12.374V16H8.57742ZM9.97742 12.514L9.34742 11.814H12.3574C13.2534 11.814 13.9301 11.6227 14.3874 11.24C14.8541 10.8573 15.0874 10.316 15.0874 9.616C15.0874 8.916 14.8541 8.37467 14.3874 7.992C13.9301 7.60933 13.2534 7.418 12.3574 7.418H9.34742L9.97742 6.718V12.514ZM21.6249 16.084C20.8315 16.084 20.1315 15.9207 19.5249 15.594C18.9275 15.2673 18.4609 14.8193 18.1249 14.25C17.7982 13.6807 17.6349 13.0273 17.6349 12.29C17.6349 11.5527 17.7935 10.8993 18.1109 10.33C18.4375 9.76067 18.8809 9.31733 19.4409 9C20.0102 8.67333 20.6495 8.51 21.3589 8.51C22.0775 8.51 22.7122 8.66867 23.2629 8.986C23.8135 9.30333 24.2429 9.75133 24.5509 10.33C24.8682 10.8993 25.0269 11.5667 25.0269 12.332C25.0269 12.388 25.0222 12.4533 25.0129 12.528C25.0129 12.6027 25.0082 12.6727 24.9989 12.738H18.6849V11.772H24.2989L23.7529 12.108C23.7622 11.632 23.6642 11.2073 23.4589 10.834C23.2535 10.4607 22.9689 10.1713 22.6049 9.966C22.2502 9.75133 21.8349 9.644 21.3589 9.644C20.8922 9.644 20.4769 9.75133 20.1129 9.966C19.7489 10.1713 19.4642 10.4653 19.2589 10.848C19.0535 11.2213 18.9509 11.6507 18.9509 12.136V12.36C18.9509 12.8547 19.0629 13.298 19.2869 13.69C19.5202 14.0727 19.8422 14.3713 20.2529 14.586C20.6635 14.8007 21.1349 14.908 21.6669 14.908C22.1055 14.908 22.5022 14.8333 22.8569 14.684C23.2209 14.5347 23.5382 14.3107 23.8089 14.012L24.5509 14.88C24.2149 15.272 23.7949 15.5707 23.2909 15.776C22.7962 15.9813 22.2409 16.084 21.6249 16.084ZM26.8931 16V8.58H28.1811V10.596L28.0551 10.092C28.2605 9.57867 28.6058 9.18667 29.0911 8.916C29.5765 8.64533 30.1738 8.51 30.8831 8.51V9.812C30.8271 9.80267 30.7711 9.798 30.7151 9.798C30.6685 9.798 30.6218 9.798 30.5751 9.798C29.8565 9.798 29.2871 10.0127 28.8671 10.442C28.4471 10.8713 28.2371 11.492 28.2371 12.304V16H26.8931ZM32.8313 16V7.922C32.8313 7.194 33.0413 6.61533 33.4613 6.186C33.8907 5.74733 34.4973 5.528 35.2813 5.528C35.5707 5.528 35.846 5.56533 36.1073 5.64C36.378 5.70533 36.6067 5.81267 36.7933 5.962L36.3873 6.984C36.2473 6.872 36.0887 6.788 35.9113 6.732C35.734 6.66667 35.5473 6.634 35.3513 6.634C34.9593 6.634 34.6607 6.746 34.4553 6.97C34.25 7.18467 34.1473 7.50667 34.1473 7.936V8.93L34.1753 9.546V16H32.8313ZM31.5713 9.686V8.58H36.3033V9.686H31.5713ZM40.7655 16.084C39.9722 16.084 39.2722 15.9207 38.6655 15.594C38.0682 15.2673 37.6015 14.8193 37.2655 14.25C36.9388 13.6807 36.7755 13.0273 36.7755 12.29C36.7755 11.5527 36.9342 10.8993 37.2515 10.33C37.5782 9.76067 38.0215 9.31733 38.5815 9C39.1508 8.67333 39.7902 8.51 40.4995 8.51C41.2182 8.51 41.8528 8.66867 42.4035 8.986C42.9542 9.30333 43.3835 9.75133 43.6915 10.33C44.0088 10.8993 44.1675 11.5667 44.1675 12.332C44.1675 12.388 44.1628 12.4533 44.1535 12.528C44.1535 12.6027 44.1488 12.6727 44.1395 12.738H37.8255V11.772H43.4395L42.8935 12.108C42.9028 11.632 42.8048 11.2073 42.5995 10.834C42.3942 10.4607 42.1095 10.1713 41.7455 9.966C41.3908 9.75133 40.9755 9.644 40.4995 9.644C40.0328 9.644 39.6175 9.75133 39.2535 9.966C38.8895 10.1713 38.6048 10.4653 38.3995 10.848C38.1942 11.2213 38.0915 11.6507 38.0915 12.136V12.36C38.0915 12.8547 38.2035 13.298 38.4275 13.69C38.6608 14.0727 38.9828 14.3713 39.3935 14.586C39.8042 14.8007 40.2755 14.908 40.8075 14.908C41.2462 14.908 41.6428 14.8333 41.9975 14.684C42.3615 14.5347 42.6788 14.3107 42.9495 14.012L43.6915 14.88C43.3555 15.272 42.9355 15.5707 42.4315 15.776C41.9368 15.9813 41.3815 16.084 40.7655 16.084ZM49.2678 16.084C48.5118 16.084 47.8351 15.9207 47.2378 15.594C46.6498 15.2673 46.1878 14.8193 45.8518 14.25C45.5158 13.6807 45.3478 13.0273 45.3478 12.29C45.3478 11.5527 45.5158 10.8993 45.8518 10.33C46.1878 9.76067 46.6498 9.31733 47.2378 9C47.8351 8.67333 48.5118 8.51 49.2678 8.51C49.9398 8.51 50.5371 8.64533 51.0598 8.916C51.5918 9.17733 52.0024 9.56933 52.2918 10.092L51.2698 10.75C51.0271 10.386 50.7284 10.12 50.3738 9.952C50.0284 9.77467 49.6551 9.686 49.2538 9.686C48.7684 9.686 48.3344 9.79333 47.9518 10.008C47.5691 10.2227 47.2658 10.526 47.0418 10.918C46.8178 11.3007 46.7058 11.758 46.7058 12.29C46.7058 12.822 46.8178 13.284 47.0418 13.676C47.2658 14.068 47.5691 14.3713 47.9518 14.586C48.3344 14.8007 48.7684 14.908 49.2538 14.908C49.6551 14.908 50.0284 14.824 50.3738 14.656C50.7284 14.4787 51.0271 14.208 51.2698 13.844L52.2918 14.488C52.0024 15.0013 51.5918 15.398 51.0598 15.678C50.5371 15.9487 49.9398 16.084 49.2678 16.084ZM56.6755 16.084C55.9288 16.084 55.3502 15.8833 54.9395 15.482C54.5288 15.0807 54.3235 14.5067 54.3235 13.76V6.956H55.6675V13.704C55.6675 14.1053 55.7655 14.4133 55.9615 14.628C56.1668 14.8427 56.4562 14.95 56.8295 14.95C57.2495 14.95 57.5995 14.8333 57.8795 14.6L58.2995 15.566C58.0942 15.7433 57.8468 15.874 57.5575 15.958C57.2775 16.042 56.9835 16.084 56.6755 16.084ZM53.0635 9.686V8.58H57.7955V9.686H53.0635ZM63.8802 16V7.922C63.8802 7.194 64.0902 6.61533 64.5102 6.186C64.9395 5.74733 65.5462 5.528 66.3302 5.528C66.6195 5.528 66.8948 5.56533 67.1562 5.64C67.4268 5.70533 67.6555 5.81267 67.8422 5.962L67.4362 6.984C67.2962 6.872 67.1375 6.788 66.9602 6.732C66.7828 6.66667 66.5962 6.634 66.4002 6.634C66.0082 6.634 65.7095 6.746 65.5042 6.97C65.2988 7.18467 65.1962 7.50667 65.1962 7.936V8.93L65.2242 9.546V16H63.8802ZM62.6202 9.686V8.58H67.3522V9.686H62.6202ZM71.6883 16.084C70.9417 16.084 70.279 15.9207 69.7003 15.594C69.1217 15.2673 68.6643 14.8193 68.3283 14.25C67.9923 13.6713 67.8243 13.018 67.8243 12.29C67.8243 11.5527 67.9923 10.8993 68.3283 10.33C68.6643 9.76067 69.1217 9.31733 69.7003 9C70.279 8.67333 70.9417 8.51 71.6883 8.51C72.4257 8.51 73.0837 8.67333 73.6623 9C74.2503 9.31733 74.7077 9.76067 75.0343 10.33C75.3703 10.89 75.5383 11.5433 75.5383 12.29C75.5383 13.0273 75.3703 13.6807 75.0343 14.25C74.7077 14.8193 74.2503 15.2673 73.6623 15.594C73.0837 15.9207 72.4257 16.084 71.6883 16.084ZM71.6883 14.908C72.1643 14.908 72.589 14.8007 72.9623 14.586C73.345 14.3713 73.6437 14.068 73.8583 13.676C74.073 13.2747 74.1803 12.8127 74.1803 12.29C74.1803 11.758 74.073 11.3007 73.8583 10.918C73.6437 10.526 73.345 10.2227 72.9623 10.008C72.589 9.79333 72.1643 9.686 71.6883 9.686C71.2123 9.686 70.7877 9.79333 70.4143 10.008C70.041 10.2227 69.7423 10.526 69.5183 10.918C69.2943 11.3007 69.1823 11.758 69.1823 12.29C69.1823 12.8127 69.2943 13.2747 69.5183 13.676C69.7423 14.068 70.041 14.3713 70.4143 14.586C70.7877 14.8007 71.2123 14.908 71.6883 14.908ZM77.397 16V8.58H78.685V10.596L78.559 10.092C78.7644 9.57867 79.1097 9.18667 79.595 8.916C80.0804 8.64533 80.6777 8.51 81.387 8.51V9.812C81.331 9.80267 81.275 9.798 81.219 9.798C81.1724 9.798 81.1257 9.798 81.079 9.798C80.3604 9.798 79.791 10.0127 79.371 10.442C78.951 10.8713 78.741 11.492 78.741 12.304V16H77.397ZM86.899 16V5.612H88.243V16H86.899ZM95.4152 16V14.432L95.3452 14.138V11.464C95.3452 10.8947 95.1772 10.456 94.8412 10.148C94.5145 9.83067 94.0198 9.672 93.3572 9.672C92.9185 9.672 92.4892 9.74667 92.0692 9.896C91.6492 10.036 91.2945 10.2273 91.0052 10.47L90.4452 9.462C90.8278 9.154 91.2852 8.92067 91.8172 8.762C92.3585 8.594 92.9232 8.51 93.5112 8.51C94.5285 8.51 95.3125 8.75733 95.8632 9.252C96.4138 9.74667 96.6892 10.5027 96.6892 11.52V16H95.4152ZM92.9792 16.084C92.4285 16.084 91.9432 15.9907 91.5232 15.804C91.1125 15.6173 90.7952 15.3607 90.5712 15.034C90.3472 14.698 90.2352 14.32 90.2352 13.9C90.2352 13.4987 90.3285 13.1347 90.5152 12.808C90.7112 12.4813 91.0238 12.22 91.4532 12.024C91.8918 11.828 92.4798 11.73 93.2172 11.73H95.5692V12.696H93.2732C92.6012 12.696 92.1485 12.808 91.9152 13.032C91.6818 13.256 91.5652 13.5267 91.5652 13.844C91.5652 14.208 91.7098 14.502 91.9992 14.726C92.2885 14.9407 92.6898 15.048 93.2032 15.048C93.7072 15.048 94.1458 14.936 94.5192 14.712C94.9018 14.488 95.1772 14.1613 95.3452 13.732L95.6112 14.656C95.4338 15.0947 95.1212 15.4447 94.6732 15.706C94.2252 15.958 93.6605 16.084 92.9792 16.084ZM102.242 16.084C101.524 16.084 100.88 15.9253 100.31 15.608C99.7503 15.2907 99.307 14.8473 98.9803 14.278C98.6537 13.7087 98.4903 13.046 98.4903 12.29C98.4903 11.534 98.6537 10.876 98.9803 10.316C99.307 9.74667 99.7503 9.30333 100.31 8.986C100.88 8.66867 101.524 8.51 102.242 8.51C102.868 8.51 103.432 8.65 103.936 8.93C104.44 9.21 104.842 9.63 105.14 10.19C105.448 10.75 105.602 11.45 105.602 12.29C105.602 13.13 105.453 13.83 105.154 14.39C104.865 14.95 104.468 15.3747 103.964 15.664C103.46 15.944 102.886 16.084 102.242 16.084ZM102.354 14.908C102.821 14.908 103.241 14.8007 103.614 14.586C103.997 14.3713 104.296 14.068 104.51 13.676C104.734 13.2747 104.846 12.8127 104.846 12.29C104.846 11.758 104.734 11.3007 104.51 10.918C104.296 10.526 103.997 10.2227 103.614 10.008C103.241 9.79333 102.821 9.686 102.354 9.686C101.878 9.686 101.454 9.79333 101.08 10.008C100.707 10.2227 100.408 10.526 100.184 10.918C99.9603 11.3007 99.8483 11.758 99.8483 12.29C99.8483 12.8127 99.9603 13.2747 100.184 13.676C100.408 14.068 100.707 14.3713 101.08 14.586C101.454 14.8007 101.878 14.908 102.354 14.908ZM104.888 16V13.998L104.972 12.276L104.832 10.554V5.612H106.176V16H104.888ZM111.785 16.084C111.067 16.084 110.423 15.9253 109.853 15.608C109.293 15.2907 108.85 14.8473 108.523 14.278C108.197 13.7087 108.033 13.046 108.033 12.29C108.033 11.534 108.197 10.876 108.523 10.316C108.85 9.74667 109.293 9.30333 109.853 8.986C110.423 8.66867 111.067 8.51 111.785 8.51C112.411 8.51 112.975 8.65 113.479 8.93C113.983 9.21 114.385 9.63 114.683 10.19C114.991 10.75 115.145 11.45 115.145 12.29C115.145 13.13 114.996 13.83 114.697 14.39C114.408 14.95 114.011 15.3747 113.507 15.664C113.003 15.944 112.429 16.084 111.785 16.084ZM111.897 14.908C112.364 14.908 112.784 14.8007 113.157 14.586C113.54 14.3713 113.839 14.068 114.053 13.676C114.277 13.2747 114.389 12.8127 114.389 12.29C114.389 11.758 114.277 11.3007 114.053 10.918C113.839 10.526 113.54 10.2227 113.157 10.008C112.784 9.79333 112.364 9.686 111.897 9.686C111.421 9.686 110.997 9.79333 110.623 10.008C110.25 10.2227 109.951 10.526 109.727 10.918C109.503 11.3007 109.391 11.758 109.391 12.29C109.391 12.8127 109.503 13.2747 109.727 13.676C109.951 14.068 110.25 14.3713 110.623 14.586C110.997 14.8007 111.421 14.908 111.897 14.908ZM114.431 16V13.998L114.515 12.276L114.375 10.554V5.612H115.719V16H114.431ZM121.384 16.084C120.75 16.084 120.19 15.9673 119.704 15.734C119.228 15.5007 118.855 15.146 118.584 14.67C118.323 14.1847 118.192 13.578 118.192 12.85V8.58H119.536V12.696C119.536 13.424 119.709 13.97 120.054 14.334C120.409 14.698 120.904 14.88 121.538 14.88C122.005 14.88 122.411 14.7867 122.756 14.6C123.102 14.404 123.368 14.124 123.554 13.76C123.741 13.3867 123.834 12.9387 123.834 12.416V8.58H125.178V16H123.904V13.998L124.114 14.53C123.872 15.0247 123.508 15.4073 123.022 15.678C122.537 15.9487 121.991 16.084 121.384 16.084ZM129.865 16.084C129.249 16.084 128.661 16 128.101 15.832C127.55 15.664 127.116 15.4587 126.799 15.216L127.359 14.152C127.676 14.3667 128.068 14.5487 128.535 14.698C129.002 14.8473 129.478 14.922 129.963 14.922C130.588 14.922 131.036 14.8333 131.307 14.656C131.587 14.4787 131.727 14.2313 131.727 13.914C131.727 13.6807 131.643 13.4987 131.475 13.368C131.307 13.2373 131.083 13.1393 130.803 13.074C130.532 13.0087 130.229 12.9527 129.893 12.906C129.557 12.85 129.221 12.7847 128.885 12.71C128.549 12.626 128.241 12.514 127.961 12.374C127.681 12.2247 127.457 12.024 127.289 11.772C127.121 11.5107 127.037 11.1653 127.037 10.736C127.037 10.288 127.163 9.896 127.415 9.56C127.667 9.224 128.022 8.96733 128.479 8.79C128.946 8.60333 129.496 8.51 130.131 8.51C130.616 8.51 131.106 8.57067 131.601 8.692C132.105 8.804 132.516 8.96733 132.833 9.182L132.259 10.246C131.923 10.022 131.573 9.868 131.209 9.784C130.845 9.7 130.481 9.658 130.117 9.658C129.529 9.658 129.09 9.756 128.801 9.952C128.512 10.1387 128.367 10.3813 128.367 10.68C128.367 10.932 128.451 11.128 128.619 11.268C128.796 11.3987 129.02 11.5013 129.291 11.576C129.571 11.6507 129.879 11.716 130.215 11.772C130.551 11.8187 130.887 11.884 131.223 11.968C131.559 12.0427 131.862 12.15 132.133 12.29C132.413 12.43 132.637 12.626 132.805 12.878C132.982 13.13 133.071 13.466 133.071 13.886C133.071 14.334 132.94 14.7213 132.679 15.048C132.418 15.3747 132.049 15.6313 131.573 15.818C131.097 15.9953 130.528 16.084 129.865 16.084ZM134.219 18.072L134.919 15.244L135.101 16.056C134.83 16.056 134.601 15.972 134.415 15.804C134.237 15.636 134.149 15.4073 134.149 15.118C134.149 14.838 134.237 14.6093 134.415 14.432C134.601 14.2547 134.825 14.166 135.087 14.166C135.357 14.166 135.577 14.2593 135.745 14.446C135.913 14.6233 135.997 14.8473 135.997 15.118C135.997 15.2113 135.987 15.3047 135.969 15.398C135.959 15.482 135.936 15.5847 135.899 15.706C135.871 15.818 135.824 15.958 135.759 16.126L135.101 18.072H134.219ZM143.81 16.084C143.194 16.084 142.606 16 142.046 15.832C141.496 15.664 141.062 15.4587 140.744 15.216L141.304 14.152C141.622 14.3667 142.014 14.5487 142.48 14.698C142.947 14.8473 143.423 14.922 143.908 14.922C144.534 14.922 144.982 14.8333 145.252 14.656C145.532 14.4787 145.672 14.2313 145.672 13.914C145.672 13.6807 145.588 13.4987 145.42 13.368C145.252 13.2373 145.028 13.1393 144.748 13.074C144.478 13.0087 144.174 12.9527 143.838 12.906C143.502 12.85 143.166 12.7847 142.83 12.71C142.494 12.626 142.186 12.514 141.906 12.374C141.626 12.2247 141.402 12.024 141.234 11.772C141.066 11.5107 140.982 11.1653 140.982 10.736C140.982 10.288 141.108 9.896 141.36 9.56C141.612 9.224 141.967 8.96733 142.424 8.79C142.891 8.60333 143.442 8.51 144.076 8.51C144.562 8.51 145.052 8.57067 145.546 8.692C146.05 8.804 146.461 8.96733 146.778 9.182L146.204 10.246C145.868 10.022 145.518 9.868 145.154 9.784C144.79 9.7 144.426 9.658 144.062 9.658C143.474 9.658 143.036 9.756 142.746 9.952C142.457 10.1387 142.312 10.3813 142.312 10.68C142.312 10.932 142.396 11.128 142.564 11.268C142.742 11.3987 142.966 11.5013 143.236 11.576C143.516 11.6507 143.824 11.716 144.16 11.772C144.496 11.8187 144.832 11.884 145.168 11.968C145.504 12.0427 145.808 12.15 146.078 12.29C146.358 12.43 146.582 12.626 146.75 12.878C146.928 13.13 147.016 13.466 147.016 13.886C147.016 14.334 146.886 14.7213 146.624 15.048C146.363 15.3747 145.994 15.6313 145.518 15.818C145.042 15.9953 144.473 16.084 143.81 16.084ZM150.127 16L147.369 8.58H148.643L151.093 15.3H150.491L153.039 8.58H154.173L156.665 15.3H156.077L158.583 8.58H159.787L157.015 16H155.727L153.389 9.868H153.781L151.415 16H150.127ZM164.25 16.084C163.457 16.084 162.757 15.9207 162.15 15.594C161.553 15.2673 161.086 14.8193 160.75 14.25C160.423 13.6807 160.26 13.0273 160.26 12.29C160.26 11.5527 160.419 10.8993 160.736 10.33C161.063 9.76067 161.506 9.31733 162.066 9C162.635 8.67333 163.275 8.51 163.984 8.51C164.703 8.51 165.337 8.66867 165.888 8.986C166.439 9.30333 166.868 9.75133 167.176 10.33C167.493 10.8993 167.652 11.5667 167.652 12.332C167.652 12.388 167.647 12.4533 167.638 12.528C167.638 12.6027 167.633 12.6727 167.624 12.738H161.31V11.772H166.924L166.378 12.108C166.387 11.632 166.289 11.2073 166.084 10.834C165.879 10.4607 165.594 10.1713 165.23 9.966C164.875 9.75133 164.46 9.644 163.984 9.644C163.517 9.644 163.102 9.75133 162.738 9.966C162.374 10.1713 162.089 10.4653 161.884 10.848C161.679 11.2213 161.576 11.6507 161.576 12.136V12.36C161.576 12.8547 161.688 13.298 161.912 13.69C162.145 14.0727 162.467 14.3713 162.878 14.586C163.289 14.8007 163.76 14.908 164.292 14.908C164.731 14.908 165.127 14.8333 165.482 14.684C165.846 14.5347 166.163 14.3107 166.434 14.012L167.176 14.88C166.84 15.272 166.42 15.5707 165.916 15.776C165.421 15.9813 164.866 16.084 164.25 16.084ZM172.822 16.084C172.029 16.084 171.329 15.9207 170.722 15.594C170.125 15.2673 169.658 14.8193 169.322 14.25C168.995 13.6807 168.832 13.0273 168.832 12.29C168.832 11.5527 168.991 10.8993 169.308 10.33C169.635 9.76067 170.078 9.31733 170.638 9C171.207 8.67333 171.847 8.51 172.556 8.51C173.275 8.51 173.909 8.66867 174.46 8.986C175.011 9.30333 175.44 9.75133 175.748 10.33C176.065 10.8993 176.224 11.5667 176.224 12.332C176.224 12.388 176.219 12.4533 176.21 12.528C176.21 12.6027 176.205 12.6727 176.196 12.738H169.882V11.772H175.496L174.95 12.108C174.959 11.632 174.861 11.2073 174.656 10.834C174.451 10.4607 174.166 10.1713 173.802 9.966C173.447 9.75133 173.032 9.644 172.556 9.644C172.089 9.644 171.674 9.75133 171.31 9.966C170.946 10.1713 170.661 10.4653 170.456 10.848C170.251 11.2213 170.148 11.6507 170.148 12.136V12.36C170.148 12.8547 170.26 13.298 170.484 13.69C170.717 14.0727 171.039 14.3713 171.45 14.586C171.861 14.8007 172.332 14.908 172.864 14.908C173.303 14.908 173.699 14.8333 174.054 14.684C174.418 14.5347 174.735 14.3107 175.006 14.012L175.748 14.88C175.412 15.272 174.992 15.5707 174.488 15.776C173.993 15.9813 173.438 16.084 172.822 16.084ZM180.638 16.084C179.892 16.084 179.313 15.8833 178.902 15.482C178.492 15.0807 178.286 14.5067 178.286 13.76V6.956H179.63V13.704C179.63 14.1053 179.728 14.4133 179.924 14.628C180.13 14.8427 180.419 14.95 180.792 14.95C181.212 14.95 181.562 14.8333 181.842 14.6L182.262 15.566C182.057 15.7433 181.81 15.874 181.52 15.958C181.24 16.042 180.946 16.084 180.638 16.084ZM177.026 9.686V8.58H181.758V9.686H177.026ZM186.015 16.084C185.399 16.084 184.811 16 184.251 15.832C183.701 15.664 183.267 15.4587 182.949 15.216L183.509 14.152C183.827 14.3667 184.219 14.5487 184.685 14.698C185.152 14.8473 185.628 14.922 186.113 14.922C186.739 14.922 187.187 14.8333 187.457 14.656C187.737 14.4787 187.877 14.2313 187.877 13.914C187.877 13.6807 187.793 13.4987 187.625 13.368C187.457 13.2373 187.233 13.1393 186.953 13.074C186.683 13.0087 186.379 12.9527 186.043 12.906C185.707 12.85 185.371 12.7847 185.035 12.71C184.699 12.626 184.391 12.514 184.111 12.374C183.831 12.2247 183.607 12.024 183.439 11.772C183.271 11.5107 183.187 11.1653 183.187 10.736C183.187 10.288 183.313 9.896 183.565 9.56C183.817 9.224 184.172 8.96733 184.629 8.79C185.096 8.60333 185.647 8.51 186.281 8.51C186.767 8.51 187.257 8.57067 187.751 8.692C188.255 8.804 188.666 8.96733 188.983 9.182L188.409 10.246C188.073 10.022 187.723 9.868 187.359 9.784C186.995 9.7 186.631 9.658 186.267 9.658C185.679 9.658 185.241 9.756 184.951 9.952C184.662 10.1387 184.517 10.3813 184.517 10.68C184.517 10.932 184.601 11.128 184.769 11.268C184.947 11.3987 185.171 11.5013 185.441 11.576C185.721 11.6507 186.029 11.716 186.365 11.772C186.701 11.8187 187.037 11.884 187.373 11.968C187.709 12.0427 188.013 12.15 188.283 12.29C188.563 12.43 188.787 12.626 188.955 12.878C189.133 13.13 189.221 13.466 189.221 13.886C189.221 14.334 189.091 14.7213 188.829 15.048C188.568 15.3747 188.199 15.6313 187.723 15.818C187.247 15.9953 186.678 16.084 186.015 16.084ZM190.369 18.072L191.069 15.244L191.251 16.056C190.98 16.056 190.752 15.972 190.565 15.804C190.388 15.636 190.299 15.4073 190.299 15.118C190.299 14.838 190.388 14.6093 190.565 14.432C190.752 14.2547 190.976 14.166 191.237 14.166C191.508 14.166 191.727 14.2593 191.895 14.446C192.063 14.6233 192.147 14.8473 192.147 15.118C192.147 15.2113 192.138 15.3047 192.119 15.398C192.11 15.482 192.086 15.5847 192.049 15.706C192.021 15.818 191.974 15.958 191.909 16.126L191.251 18.072H190.369ZM202.439 16V14.432L202.369 14.138V11.464C202.369 10.8947 202.201 10.456 201.865 10.148C201.538 9.83067 201.043 9.672 200.381 9.672C199.942 9.672 199.513 9.74667 199.093 9.896C198.673 10.036 198.318 10.2273 198.029 10.47L197.469 9.462C197.851 9.154 198.309 8.92067 198.841 8.762C199.382 8.594 199.947 8.51 200.535 8.51C201.552 8.51 202.336 8.75733 202.887 9.252C203.437 9.74667 203.713 10.5027 203.713 11.52V16H202.439ZM200.003 16.084C199.452 16.084 198.967 15.9907 198.547 15.804C198.136 15.6173 197.819 15.3607 197.595 15.034C197.371 14.698 197.259 14.32 197.259 13.9C197.259 13.4987 197.352 13.1347 197.539 12.808C197.735 12.4813 198.047 12.22 198.477 12.024C198.915 11.828 199.503 11.73 200.241 11.73H202.593V12.696H200.297C199.625 12.696 199.172 12.808 198.939 13.032C198.705 13.256 198.589 13.5267 198.589 13.844C198.589 14.208 198.733 14.502 199.023 14.726C199.312 14.9407 199.713 15.048 200.227 15.048C200.731 15.048 201.169 14.936 201.543 14.712C201.925 14.488 202.201 14.1613 202.369 13.732L202.635 14.656C202.457 15.0947 202.145 15.4447 201.697 15.706C201.249 15.958 200.684 16.084 200.003 16.084ZM206.2 16V8.58H207.488V10.582L207.278 10.05C207.52 9.56467 207.894 9.18667 208.398 8.916C208.902 8.64533 209.49 8.51 210.162 8.51C210.768 8.51 211.3 8.62667 211.758 8.86C212.224 9.09333 212.588 9.448 212.85 9.924C213.111 10.4 213.242 11.002 213.242 11.73V16H211.898V11.884C211.898 11.1653 211.72 10.624 211.366 10.26C211.02 9.896 210.53 9.714 209.896 9.714C209.42 9.714 209.004 9.80733 208.65 9.994C208.295 10.1807 208.02 10.456 207.824 10.82C207.637 11.184 207.544 11.6367 207.544 12.178V16H206.2ZM218.795 16.084C218.076 16.084 217.432 15.9253 216.863 15.608C216.303 15.2907 215.86 14.8473 215.533 14.278C215.206 13.7087 215.043 13.046 215.043 12.29C215.043 11.534 215.206 10.876 215.533 10.316C215.86 9.74667 216.303 9.30333 216.863 8.986C217.432 8.66867 218.076 8.51 218.795 8.51C219.42 8.51 219.985 8.65 220.489 8.93C220.993 9.21 221.394 9.63 221.693 10.19C222.001 10.75 222.155 11.45 222.155 12.29C222.155 13.13 222.006 13.83 221.707 14.39C221.418 14.95 221.021 15.3747 220.517 15.664C220.013 15.944 219.439 16.084 218.795 16.084ZM218.907 14.908C219.374 14.908 219.794 14.8007 220.167 14.586C220.55 14.3713 220.848 14.068 221.063 13.676C221.287 13.2747 221.399 12.8127 221.399 12.29C221.399 11.758 221.287 11.3007 221.063 10.918C220.848 10.526 220.55 10.2227 220.167 10.008C219.794 9.79333 219.374 9.686 218.907 9.686C218.431 9.686 218.006 9.79333 217.633 10.008C217.26 10.2227 216.961 10.526 216.737 10.918C216.513 11.3007 216.401 11.758 216.401 12.29C216.401 12.8127 216.513 13.2747 216.737 13.676C216.961 14.068 217.26 14.3713 217.633 14.586C218.006 14.8007 218.431 14.908 218.907 14.908ZM221.441 16V13.998L221.525 12.276L221.385 10.554V5.612H222.729V16H221.441ZM229.032 16V8.58H230.376V16H229.032ZM229.704 7.152C229.442 7.152 229.223 7.068 229.046 6.9C228.878 6.732 228.794 6.52667 228.794 6.284C228.794 6.032 228.878 5.822 229.046 5.654C229.223 5.486 229.442 5.402 229.704 5.402C229.965 5.402 230.18 5.486 230.348 5.654C230.525 5.81267 230.614 6.01333 230.614 6.256C230.614 6.508 230.53 6.72267 230.362 6.9C230.194 7.068 229.974 7.152 229.704 7.152ZM236.176 16.084C235.42 16.084 234.743 15.9207 234.146 15.594C233.558 15.2673 233.096 14.8193 232.76 14.25C232.424 13.6807 232.256 13.0273 232.256 12.29C232.256 11.5527 232.424 10.8993 232.76 10.33C233.096 9.76067 233.558 9.31733 234.146 9C234.743 8.67333 235.42 8.51 236.176 8.51C236.848 8.51 237.445 8.64533 237.968 8.916C238.5 9.17733 238.911 9.56933 239.2 10.092L238.178 10.75C237.935 10.386 237.637 10.12 237.282 9.952C236.937 9.77467 236.563 9.686 236.162 9.686C235.677 9.686 235.243 9.79333 234.86 10.008C234.477 10.2227 234.174 10.526 233.95 10.918C233.726 11.3007 233.614 11.758 233.614 12.29C233.614 12.822 233.726 13.284 233.95 13.676C234.174 14.068 234.477 14.3713 234.86 14.586C235.243 14.8007 235.677 14.908 236.162 14.908C236.563 14.908 236.937 14.824 237.282 14.656C237.637 14.4787 237.935 14.208 238.178 13.844L239.2 14.488C238.911 15.0013 238.5 15.398 237.968 15.678C237.445 15.9487 236.848 16.084 236.176 16.084ZM244.135 16.084C243.341 16.084 242.641 15.9207 242.035 15.594C241.437 15.2673 240.971 14.8193 240.635 14.25C240.308 13.6807 240.145 13.0273 240.145 12.29C240.145 11.5527 240.303 10.8993 240.621 10.33C240.947 9.76067 241.391 9.31733 241.951 9C242.52 8.67333 243.159 8.51 243.869 8.51C244.587 8.51 245.222 8.66867 245.773 8.986C246.323 9.30333 246.753 9.75133 247.061 10.33C247.378 10.8993 247.537 11.5667 247.537 12.332C247.537 12.388 247.532 12.4533 247.523 12.528C247.523 12.6027 247.518 12.6727 247.509 12.738H241.195V11.772H246.809L246.263 12.108C246.272 11.632 246.174 11.2073 245.969 10.834C245.763 10.4607 245.479 10.1713 245.115 9.966C244.76 9.75133 244.345 9.644 243.869 9.644C243.402 9.644 242.987 9.75133 242.623 9.966C242.259 10.1713 241.974 10.4653 241.769 10.848C241.563 11.2213 241.461 11.6507 241.461 12.136V12.36C241.461 12.8547 241.573 13.298 241.797 13.69C242.03 14.0727 242.352 14.3713 242.763 14.586C243.173 14.8007 243.645 14.908 244.177 14.908C244.615 14.908 245.012 14.8333 245.367 14.684C245.731 14.5347 246.048 14.3107 246.319 14.012L247.061 14.88C246.725 15.272 246.305 15.5707 245.801 15.776C245.306 15.9813 244.751 16.084 244.135 16.084ZM256.397 16.084C255.641 16.084 254.964 15.9207 254.367 15.594C253.779 15.2673 253.317 14.8193 252.981 14.25C252.645 13.6807 252.477 13.0273 252.477 12.29C252.477 11.5527 252.645 10.8993 252.981 10.33C253.317 9.76067 253.779 9.31733 254.367 9C254.964 8.67333 255.641 8.51 256.397 8.51C257.069 8.51 257.666 8.64533 258.189 8.916C258.721 9.17733 259.131 9.56933 259.421 10.092L258.399 10.75C258.156 10.386 257.857 10.12 257.503 9.952C257.157 9.77467 256.784 9.686 256.383 9.686C255.897 9.686 255.463 9.79333 255.081 10.008C254.698 10.2227 254.395 10.526 254.171 10.918C253.947 11.3007 253.835 11.758 253.835 12.29C253.835 12.822 253.947 13.284 254.171 13.676C254.395 14.068 254.698 14.3713 255.081 14.586C255.463 14.8007 255.897 14.908 256.383 14.908C256.784 14.908 257.157 14.824 257.503 14.656C257.857 14.4787 258.156 14.208 258.399 13.844L259.421 14.488C259.131 15.0013 258.721 15.398 258.189 15.678C257.666 15.9487 257.069 16.084 256.397 16.084ZM261.161 16V8.58H262.449V10.596L262.323 10.092C262.528 9.57867 262.873 9.18667 263.359 8.916C263.844 8.64533 264.441 8.51 265.151 8.51V9.812C265.095 9.80267 265.039 9.798 264.983 9.798C264.936 9.798 264.889 9.798 264.843 9.798C264.124 9.798 263.555 10.0127 263.135 10.442C262.715 10.8713 262.505 11.492 262.505 12.304V16H261.161ZM270.043 16.084C269.25 16.084 268.55 15.9207 267.943 15.594C267.346 15.2673 266.879 14.8193 266.543 14.25C266.216 13.6807 266.053 13.0273 266.053 12.29C266.053 11.5527 266.212 10.8993 266.529 10.33C266.856 9.76067 267.299 9.31733 267.859 9C268.428 8.67333 269.068 8.51 269.777 8.51C270.496 8.51 271.13 8.66867 271.681 8.986C272.232 9.30333 272.661 9.75133 272.969 10.33C273.286 10.8993 273.445 11.5667 273.445 12.332C273.445 12.388 273.44 12.4533 273.431 12.528C273.431 12.6027 273.426 12.6727 273.417 12.738H267.103V11.772H272.717L272.171 12.108C272.18 11.632 272.082 11.2073 271.877 10.834C271.672 10.4607 271.387 10.1713 271.023 9.966C270.668 9.75133 270.253 9.644 269.777 9.644C269.31 9.644 268.895 9.75133 268.531 9.966C268.167 10.1713 267.882 10.4653 267.677 10.848C267.472 11.2213 267.369 11.6507 267.369 12.136V12.36C267.369 12.8547 267.481 13.298 267.705 13.69C267.938 14.0727 268.26 14.3713 268.671 14.586C269.082 14.8007 269.553 14.908 270.085 14.908C270.524 14.908 270.92 14.8333 271.275 14.684C271.639 14.5347 271.956 14.3107 272.227 14.012L272.969 14.88C272.633 15.272 272.213 15.5707 271.709 15.776C271.214 15.9813 270.659 16.084 270.043 16.084ZM279.712 16V14.432L279.642 14.138V11.464C279.642 10.8947 279.474 10.456 279.138 10.148C278.811 9.83067 278.317 9.672 277.654 9.672C277.215 9.672 276.786 9.74667 276.366 9.896C275.946 10.036 275.591 10.2273 275.302 10.47L274.742 9.462C275.125 9.154 275.582 8.92067 276.114 8.762C276.655 8.594 277.22 8.51 277.808 8.51C278.825 8.51 279.609 8.75733 280.16 9.252C280.711 9.74667 280.986 10.5027 280.986 11.52V16H279.712ZM277.276 16.084C276.725 16.084 276.24 15.9907 275.82 15.804C275.409 15.6173 275.092 15.3607 274.868 15.034C274.644 14.698 274.532 14.32 274.532 13.9C274.532 13.4987 274.625 13.1347 274.812 12.808C275.008 12.4813 275.321 12.22 275.75 12.024C276.189 11.828 276.777 11.73 277.514 11.73H279.866V12.696H277.57C276.898 12.696 276.445 12.808 276.212 13.032C275.979 13.256 275.862 13.5267 275.862 13.844C275.862 14.208 276.007 14.502 276.296 14.726C276.585 14.9407 276.987 15.048 277.5 15.048C278.004 15.048 278.443 14.936 278.816 14.712C279.199 14.488 279.474 14.1613 279.642 13.732L279.908 14.656C279.731 15.0947 279.418 15.4447 278.97 15.706C278.522 15.958 277.957 16.084 277.276 16.084ZM283.473 16V8.58H284.761V10.554L284.551 10.05C284.785 9.56467 285.144 9.18667 285.629 8.916C286.115 8.64533 286.679 8.51 287.323 8.51C288.033 8.51 288.644 8.68733 289.157 9.042C289.671 9.38733 290.007 9.91467 290.165 10.624L289.619 10.4C289.843 9.83067 290.235 9.37333 290.795 9.028C291.355 8.68267 292.009 8.51 292.755 8.51C293.353 8.51 293.88 8.62667 294.337 8.86C294.795 9.09333 295.149 9.448 295.401 9.924C295.663 10.4 295.793 11.002 295.793 11.73V16H294.449V11.884C294.449 11.1653 294.281 10.624 293.945 10.26C293.609 9.896 293.138 9.714 292.531 9.714C292.083 9.714 291.691 9.80733 291.355 9.994C291.019 10.1807 290.758 10.456 290.571 10.82C290.394 11.184 290.305 11.6367 290.305 12.178V16H288.961V11.884C288.961 11.1653 288.793 10.624 288.457 10.26C288.131 9.896 287.659 9.714 287.043 9.714C286.605 9.714 286.217 9.80733 285.881 9.994C285.545 10.1807 285.284 10.456 285.097 10.82C284.911 11.184 284.817 11.6367 284.817 12.178V16H283.473ZM298.588 16.084C298.327 16.084 298.103 15.9953 297.916 15.818C297.73 15.6313 297.636 15.398 297.636 15.118C297.636 14.838 297.73 14.6093 297.916 14.432C298.103 14.2547 298.327 14.166 298.588 14.166C298.84 14.166 299.055 14.2547 299.232 14.432C299.419 14.6093 299.512 14.838 299.512 15.118C299.512 15.398 299.419 15.6313 299.232 15.818C299.055 15.9953 298.84 16.084 298.588 16.084ZM305.394 16V6.2H306.794V16H305.394ZM312.598 16.084C311.879 16.084 311.235 15.9253 310.666 15.608C310.106 15.2907 309.662 14.8473 309.336 14.278C309.009 13.7087 308.846 13.046 308.846 12.29C308.846 11.534 309.009 10.876 309.336 10.316C309.662 9.74667 310.106 9.30333 310.666 8.986C311.235 8.66867 311.879 8.51 312.598 8.51C313.223 8.51 313.788 8.65 314.292 8.93C314.796 9.21 315.197 9.63 315.496 10.19C315.804 10.75 315.958 11.45 315.958 12.29C315.958 13.13 315.808 13.83 315.51 14.39C315.22 14.95 314.824 15.3747 314.32 15.664C313.816 15.944 313.242 16.084 312.598 16.084ZM312.71 14.908C313.176 14.908 313.596 14.8007 313.97 14.586C314.352 14.3713 314.651 14.068 314.866 13.676C315.09 13.2747 315.202 12.8127 315.202 12.29C315.202 11.758 315.09 11.3007 314.866 10.918C314.651 10.526 314.352 10.2227 313.97 10.008C313.596 9.79333 313.176 9.686 312.71 9.686C312.234 9.686 311.809 9.79333 311.436 10.008C311.062 10.2227 310.764 10.526 310.54 10.918C310.316 11.3007 310.204 11.758 310.204 12.29C310.204 12.8127 310.316 13.2747 310.54 13.676C310.764 14.068 311.062 14.3713 311.436 14.586C311.809 14.8007 312.234 14.908 312.71 14.908ZM315.244 16V13.998L315.328 12.276L315.188 10.554V5.612H316.532V16H315.244ZM322.379 16.084C321.585 16.084 320.885 15.9207 320.279 15.594C319.681 15.2673 319.215 14.8193 318.879 14.25C318.552 13.6807 318.389 13.0273 318.389 12.29C318.389 11.5527 318.547 10.8993 318.865 10.33C319.191 9.76067 319.635 9.31733 320.195 9C320.764 8.67333 321.403 8.51 322.113 8.51C322.831 8.51 323.466 8.66867 324.017 8.986C324.567 9.30333 324.997 9.75133 325.305 10.33C325.622 10.8993 325.781 11.5667 325.781 12.332C325.781 12.388 325.776 12.4533 325.767 12.528C325.767 12.6027 325.762 12.6727 325.753 12.738H319.439V11.772H325.053L324.507 12.108C324.516 11.632 324.418 11.2073 324.213 10.834C324.007 10.4607 323.723 10.1713 323.359 9.966C323.004 9.75133 322.589 9.644 322.113 9.644C321.646 9.644 321.231 9.75133 320.867 9.966C320.503 10.1713 320.218 10.4653 320.013 10.848C319.807 11.2213 319.705 11.6507 319.705 12.136V12.36C319.705 12.8547 319.817 13.298 320.041 13.69C320.274 14.0727 320.596 14.3713 321.007 14.586C321.417 14.8007 321.889 14.908 322.421 14.908C322.859 14.908 323.256 14.8333 323.611 14.684C323.975 14.5347 324.292 14.3107 324.563 14.012L325.305 14.88C324.969 15.272 324.549 15.5707 324.045 15.776C323.55 15.9813 322.995 16.084 322.379 16.084ZM332.048 16V14.432L331.978 14.138V11.464C331.978 10.8947 331.81 10.456 331.474 10.148C331.147 9.83067 330.653 9.672 329.99 9.672C329.551 9.672 329.122 9.74667 328.702 9.896C328.282 10.036 327.927 10.2273 327.638 10.47L327.078 9.462C327.461 9.154 327.918 8.92067 328.45 8.762C328.991 8.594 329.556 8.51 330.144 8.51C331.161 8.51 331.945 8.75733 332.496 9.252C333.047 9.74667 333.322 10.5027 333.322 11.52V16H332.048ZM329.612 16.084C329.061 16.084 328.576 15.9907 328.156 15.804C327.745 15.6173 327.428 15.3607 327.204 15.034C326.98 14.698 326.868 14.32 326.868 13.9C326.868 13.4987 326.961 13.1347 327.148 12.808C327.344 12.4813 327.657 12.22 328.086 12.024C328.525 11.828 329.113 11.73 329.85 11.73H332.202V12.696H329.906C329.234 12.696 328.781 12.808 328.548 13.032C328.315 13.256 328.198 13.5267 328.198 13.844C328.198 14.208 328.343 14.502 328.632 14.726C328.921 14.9407 329.323 15.048 329.836 15.048C330.34 15.048 330.779 14.936 331.152 14.712C331.535 14.488 331.81 14.1613 331.978 13.732L332.244 14.656C332.067 15.0947 331.754 15.4447 331.306 15.706C330.858 15.958 330.293 16.084 329.612 16.084ZM335.809 16V5.612H337.153V16H335.809ZM343.675 16V7.922C343.675 7.194 343.885 6.61533 344.305 6.186C344.734 5.74733 345.341 5.528 346.125 5.528C346.414 5.528 346.69 5.56533 346.951 5.64C347.222 5.70533 347.45 5.81267 347.637 5.962L347.231 6.984C347.091 6.872 346.932 6.788 346.755 6.732C346.578 6.66667 346.391 6.634 346.195 6.634C345.803 6.634 345.504 6.746 345.299 6.97C345.094 7.18467 344.991 7.50667 344.991 7.936V8.93L345.019 9.546V16H343.675ZM342.415 9.686V8.58H347.147V9.686H342.415ZM351.483 16.084C350.737 16.084 350.074 15.9207 349.495 15.594C348.917 15.2673 348.459 14.8193 348.123 14.25C347.787 13.6713 347.619 13.018 347.619 12.29C347.619 11.5527 347.787 10.8993 348.123 10.33C348.459 9.76067 348.917 9.31733 349.495 9C350.074 8.67333 350.737 8.51 351.483 8.51C352.221 8.51 352.879 8.67333 353.457 9C354.045 9.31733 354.503 9.76067 354.829 10.33C355.165 10.89 355.333 11.5433 355.333 12.29C355.333 13.0273 355.165 13.6807 354.829 14.25C354.503 14.8193 354.045 15.2673 353.457 15.594C352.879 15.9207 352.221 16.084 351.483 16.084ZM351.483 14.908C351.959 14.908 352.384 14.8007 352.757 14.586C353.14 14.3713 353.439 14.068 353.653 13.676C353.868 13.2747 353.975 12.8127 353.975 12.29C353.975 11.758 353.868 11.3007 353.653 10.918C353.439 10.526 353.14 10.2227 352.757 10.008C352.384 9.79333 351.959 9.686 351.483 9.686C351.007 9.686 350.583 9.79333 350.209 10.008C349.836 10.2227 349.537 10.526 349.313 10.918C349.089 11.3007 348.977 11.758 348.977 12.29C348.977 12.8127 349.089 13.2747 349.313 13.676C349.537 14.068 349.836 14.3713 350.209 14.586C350.583 14.8007 351.007 14.908 351.483 14.908ZM357.192 16V8.58H358.48V10.596L358.354 10.092C358.559 9.57867 358.905 9.18667 359.39 8.916C359.875 8.64533 360.473 8.51 361.182 8.51V9.812C361.126 9.80267 361.07 9.798 361.014 9.798C360.967 9.798 360.921 9.798 360.874 9.798C360.155 9.798 359.586 10.0127 359.166 10.442C358.746 10.8713 358.536 11.492 358.536 12.304V16H357.192ZM369.76 16.084C369.041 16.084 368.397 15.9253 367.828 15.608C367.268 15.2907 366.825 14.8473 366.498 14.278C366.171 13.7087 366.008 13.046 366.008 12.29C366.008 11.534 366.171 10.876 366.498 10.316C366.825 9.74667 367.268 9.30333 367.828 8.986C368.397 8.66867 369.041 8.51 369.76 8.51C370.385 8.51 370.95 8.65 371.454 8.93C371.958 9.21 372.359 9.63 372.658 10.19C372.966 10.75 373.12 11.45 373.12 12.29C373.12 13.13 372.971 13.83 372.672 14.39C372.383 14.95 371.986 15.3747 371.482 15.664C370.978 15.944 370.404 16.084 369.76 16.084ZM369.872 14.908C370.339 14.908 370.759 14.8007 371.132 14.586C371.515 14.3713 371.813 14.068 372.028 13.676C372.252 13.2747 372.364 12.8127 372.364 12.29C372.364 11.758 372.252 11.3007 372.028 10.918C371.813 10.526 371.515 10.2227 371.132 10.008C370.759 9.79333 370.339 9.686 369.872 9.686C369.396 9.686 368.971 9.79333 368.598 10.008C368.225 10.2227 367.926 10.526 367.702 10.918C367.478 11.3007 367.366 11.758 367.366 12.29C367.366 12.8127 367.478 13.2747 367.702 13.676C367.926 14.068 368.225 14.3713 368.598 14.586C368.971 14.8007 369.396 14.908 369.872 14.908ZM372.406 16V13.998L372.49 12.276L372.35 10.554V5.612H373.694V16H372.406ZM379.541 16.084C378.748 16.084 378.048 15.9207 377.441 15.594C376.844 15.2673 376.377 14.8193 376.041 14.25C375.714 13.6807 375.551 13.0273 375.551 12.29C375.551 11.5527 375.71 10.8993 376.027 10.33C376.354 9.76067 376.797 9.31733 377.357 9C377.926 8.67333 378.566 8.51 379.275 8.51C379.994 8.51 380.628 8.66867 381.179 8.986C381.73 9.30333 382.159 9.75133 382.467 10.33C382.784 10.8993 382.943 11.5667 382.943 12.332C382.943 12.388 382.938 12.4533 382.929 12.528C382.929 12.6027 382.924 12.6727 382.915 12.738H376.601V11.772H382.215L381.669 12.108C381.678 11.632 381.58 11.2073 381.375 10.834C381.17 10.4607 380.885 10.1713 380.521 9.966C380.166 9.75133 379.751 9.644 379.275 9.644C378.808 9.644 378.393 9.75133 378.029 9.966C377.665 10.1713 377.38 10.4653 377.175 10.848C376.97 11.2213 376.867 11.6507 376.867 12.136V12.36C376.867 12.8547 376.979 13.298 377.203 13.69C377.436 14.0727 377.758 14.3713 378.169 14.586C378.58 14.8007 379.051 14.908 379.583 14.908C380.022 14.908 380.418 14.8333 380.773 14.684C381.137 14.5347 381.454 14.3107 381.725 14.012L382.467 14.88C382.131 15.272 381.711 15.5707 381.207 15.776C380.712 15.9813 380.157 16.084 379.541 16.084ZM386.937 16.084C386.321 16.084 385.733 16 385.173 15.832C384.622 15.664 384.188 15.4587 383.871 15.216L384.431 14.152C384.748 14.3667 385.14 14.5487 385.607 14.698C386.074 14.8473 386.55 14.922 387.035 14.922C387.66 14.922 388.108 14.8333 388.379 14.656C388.659 14.4787 388.799 14.2313 388.799 13.914C388.799 13.6807 388.715 13.4987 388.547 13.368C388.379 13.2373 388.155 13.1393 387.875 13.074C387.604 13.0087 387.301 12.9527 386.965 12.906C386.629 12.85 386.293 12.7847 385.957 12.71C385.621 12.626 385.313 12.514 385.033 12.374C384.753 12.2247 384.529 12.024 384.361 11.772C384.193 11.5107 384.109 11.1653 384.109 10.736C384.109 10.288 384.235 9.896 384.487 9.56C384.739 9.224 385.094 8.96733 385.551 8.79C386.018 8.60333 386.568 8.51 387.203 8.51C387.688 8.51 388.178 8.57067 388.673 8.692C389.177 8.804 389.588 8.96733 389.905 9.182L389.331 10.246C388.995 10.022 388.645 9.868 388.281 9.784C387.917 9.7 387.553 9.658 387.189 9.658C386.601 9.658 386.162 9.756 385.873 9.952C385.584 10.1387 385.439 10.3813 385.439 10.68C385.439 10.932 385.523 11.128 385.691 11.268C385.868 11.3987 386.092 11.5013 386.363 11.576C386.643 11.6507 386.951 11.716 387.287 11.772C387.623 11.8187 387.959 11.884 388.295 11.968C388.631 12.0427 388.934 12.15 389.205 12.29C389.485 12.43 389.709 12.626 389.877 12.878C390.054 13.13 390.143 13.466 390.143 13.886C390.143 14.334 390.012 14.7213 389.751 15.048C389.49 15.3747 389.121 15.6313 388.645 15.818C388.169 15.9953 387.6 16.084 386.937 16.084ZM393.951 16.084C393.335 16.084 392.747 16 392.187 15.832C391.636 15.664 391.202 15.4587 390.885 15.216L391.445 14.152C391.762 14.3667 392.154 14.5487 392.621 14.698C393.087 14.8473 393.563 14.922 394.049 14.922C394.674 14.922 395.122 14.8333 395.393 14.656C395.673 14.4787 395.813 14.2313 395.813 13.914C395.813 13.6807 395.729 13.4987 395.561 13.368C395.393 13.2373 395.169 13.1393 394.889 13.074C394.618 13.0087 394.315 12.9527 393.979 12.906C393.643 12.85 393.307 12.7847 392.971 12.71C392.635 12.626 392.327 12.514 392.047 12.374C391.767 12.2247 391.543 12.024 391.375 11.772C391.207 11.5107 391.123 11.1653 391.123 10.736C391.123 10.288 391.249 9.896 391.501 9.56C391.753 9.224 392.107 8.96733 392.565 8.79C393.031 8.60333 393.582 8.51 394.217 8.51C394.702 8.51 395.192 8.57067 395.687 8.692C396.191 8.804 396.601 8.96733 396.919 9.182L396.345 10.246C396.009 10.022 395.659 9.868 395.295 9.784C394.931 9.7 394.567 9.658 394.203 9.658C393.615 9.658 393.176 9.756 392.887 9.952C392.597 10.1387 392.453 10.3813 392.453 10.68C392.453 10.932 392.537 11.128 392.705 11.268C392.882 11.3987 393.106 11.5013 393.377 11.576C393.657 11.6507 393.965 11.716 394.301 11.772C394.637 11.8187 394.973 11.884 395.309 11.968C395.645 12.0427 395.948 12.15 396.219 12.29C396.499 12.43 396.723 12.626 396.891 12.878C397.068 13.13 397.157 13.466 397.157 13.886C397.157 14.334 397.026 14.7213 396.765 15.048C396.503 15.3747 396.135 15.6313 395.659 15.818C395.183 15.9953 394.613 16.084 393.951 16.084ZM402.141 16.084C401.347 16.084 400.647 15.9207 400.041 15.594C399.443 15.2673 398.977 14.8193 398.641 14.25C398.314 13.6807 398.151 13.0273 398.151 12.29C398.151 11.5527 398.309 10.8993 398.627 10.33C398.953 9.76067 399.397 9.31733 399.957 9C400.526 8.67333 401.165 8.51 401.875 8.51C402.593 8.51 403.228 8.66867 403.779 8.986C404.329 9.30333 404.759 9.75133 405.067 10.33C405.384 10.8993 405.543 11.5667 405.543 12.332C405.543 12.388 405.538 12.4533 405.529 12.528C405.529 12.6027 405.524 12.6727 405.515 12.738H399.201V11.772H404.815L404.269 12.108C404.278 11.632 404.18 11.2073 403.975 10.834C403.769 10.4607 403.485 10.1713 403.121 9.966C402.766 9.75133 402.351 9.644 401.875 9.644C401.408 9.644 400.993 9.75133 400.629 9.966C400.265 10.1713 399.98 10.4653 399.775 10.848C399.569 11.2213 399.467 11.6507 399.467 12.136V12.36C399.467 12.8547 399.579 13.298 399.803 13.69C400.036 14.0727 400.358 14.3713 400.769 14.586C401.179 14.8007 401.651 14.908 402.183 14.908C402.621 14.908 403.018 14.8333 403.373 14.684C403.737 14.5347 404.054 14.3107 404.325 14.012L405.067 14.88C404.731 15.272 404.311 15.5707 403.807 15.776C403.312 15.9813 402.757 16.084 402.141 16.084ZM407.409 16V8.58H408.697V10.596L408.571 10.092C408.776 9.57867 409.121 9.18667 409.607 8.916C410.092 8.64533 410.689 8.51 411.399 8.51V9.812C411.343 9.80267 411.287 9.798 411.231 9.798C411.184 9.798 411.137 9.798 411.091 9.798C410.372 9.798 409.803 10.0127 409.383 10.442C408.963 10.8713 408.753 11.492 408.753 12.304V16H407.409ZM415.904 16.084C415.157 16.084 414.579 15.8833 414.168 15.482C413.757 15.0807 413.552 14.5067 413.552 13.76V6.956H414.896V13.704C414.896 14.1053 414.994 14.4133 415.19 14.628C415.395 14.8427 415.685 14.95 416.058 14.95C416.478 14.95 416.828 14.8333 417.108 14.6L417.528 15.566C417.323 15.7433 417.075 15.874 416.786 15.958C416.506 16.042 416.212 16.084 415.904 16.084ZM412.292 9.686V8.58H417.024V9.686H412.292ZM421.281 16.084C420.665 16.084 420.077 16 419.517 15.832C418.966 15.664 418.532 15.4587 418.215 15.216L418.775 14.152C419.092 14.3667 419.484 14.5487 419.951 14.698C420.418 14.8473 420.894 14.922 421.379 14.922C422.004 14.922 422.452 14.8333 422.723 14.656C423.003 14.4787 423.143 14.2313 423.143 13.914C423.143 13.6807 423.059 13.4987 422.891 13.368C422.723 13.2373 422.499 13.1393 422.219 13.074C421.948 13.0087 421.645 12.9527 421.309 12.906C420.973 12.85 420.637 12.7847 420.301 12.71C419.965 12.626 419.657 12.514 419.377 12.374C419.097 12.2247 418.873 12.024 418.705 11.772C418.537 11.5107 418.453 11.1653 418.453 10.736C418.453 10.288 418.579 9.896 418.831 9.56C419.083 9.224 419.438 8.96733 419.895 8.79C420.362 8.60333 420.912 8.51 421.547 8.51C422.032 8.51 422.522 8.57067 423.017 8.692C423.521 8.804 423.932 8.96733 424.249 9.182L423.675 10.246C423.339 10.022 422.989 9.868 422.625 9.784C422.261 9.7 421.897 9.658 421.533 9.658C420.945 9.658 420.506 9.756 420.217 9.952C419.928 10.1387 419.783 10.3813 419.783 10.68C419.783 10.932 419.867 11.128 420.035 11.268C420.212 11.3987 420.436 11.5013 420.707 11.576C420.987 11.6507 421.295 11.716 421.631 11.772C421.967 11.8187 422.303 11.884 422.639 11.968C422.975 12.0427 423.278 12.15 423.549 12.29C423.829 12.43 424.053 12.626 424.221 12.878C424.398 13.13 424.487 13.466 424.487 13.886C424.487 14.334 424.356 14.7213 424.095 15.048C423.834 15.3747 423.465 15.6313 422.989 15.818C422.513 15.9953 421.944 16.084 421.281 16.084ZM149.925 37V35.432L149.855 35.138V32.464C149.855 31.8947 149.687 31.456 149.351 31.148C149.024 30.8307 148.53 30.672 147.867 30.672C147.428 30.672 146.999 30.7467 146.579 30.896C146.159 31.036 145.804 31.2273 145.515 31.47L144.955 30.462C145.338 30.154 145.795 29.9207 146.327 29.762C146.868 29.594 147.433 29.51 148.021 29.51C149.038 29.51 149.822 29.7573 150.373 30.252C150.924 30.7467 151.199 31.5027 151.199 32.52V37H149.925ZM147.489 37.084C146.938 37.084 146.453 36.9907 146.033 36.804C145.622 36.6173 145.305 36.3607 145.081 36.034C144.857 35.698 144.745 35.32 144.745 34.9C144.745 34.4987 144.838 34.1347 145.025 33.808C145.221 33.4813 145.534 33.22 145.963 33.024C146.402 32.828 146.99 32.73 147.727 32.73H150.079V33.696H147.783C147.111 33.696 146.658 33.808 146.425 34.032C146.192 34.256 146.075 34.5267 146.075 34.844C146.075 35.208 146.22 35.502 146.509 35.726C146.798 35.9407 147.2 36.048 147.713 36.048C148.217 36.048 148.656 35.936 149.029 35.712C149.412 35.488 149.687 35.1613 149.855 34.732L150.121 35.656C149.944 36.0947 149.631 36.4447 149.183 36.706C148.735 36.958 148.17 37.084 147.489 37.084ZM153.686 37V29.58H154.974V31.582L154.764 31.05C155.007 30.5647 155.38 30.1867 155.884 29.916C156.388 29.6453 156.976 29.51 157.648 29.51C158.255 29.51 158.787 29.6267 159.244 29.86C159.711 30.0933 160.075 30.448 160.336 30.924C160.597 31.4 160.728 32.002 160.728 32.73V37H159.384V32.884C159.384 32.1653 159.207 31.624 158.852 31.26C158.507 30.896 158.017 30.714 157.382 30.714C156.906 30.714 156.491 30.8073 156.136 30.994C155.781 31.1807 155.506 31.456 155.31 31.82C155.123 32.184 155.03 32.6367 155.03 33.178V37H153.686ZM166.281 37.084C165.563 37.084 164.919 36.9253 164.349 36.608C163.789 36.2907 163.346 35.8473 163.019 35.278C162.693 34.7087 162.529 34.046 162.529 33.29C162.529 32.534 162.693 31.876 163.019 31.316C163.346 30.7467 163.789 30.3033 164.349 29.986C164.919 29.6687 165.563 29.51 166.281 29.51C166.907 29.51 167.471 29.65 167.975 29.93C168.479 30.21 168.881 30.63 169.179 31.19C169.487 31.75 169.641 32.45 169.641 33.29C169.641 34.13 169.492 34.83 169.193 35.39C168.904 35.95 168.507 36.3747 168.003 36.664C167.499 36.944 166.925 37.084 166.281 37.084ZM166.393 35.908C166.86 35.908 167.28 35.8007 167.653 35.586C168.036 35.3713 168.335 35.068 168.549 34.676C168.773 34.2747 168.885 33.8127 168.885 33.29C168.885 32.758 168.773 32.3007 168.549 31.918C168.335 31.526 168.036 31.2227 167.653 31.008C167.28 30.7933 166.86 30.686 166.393 30.686C165.917 30.686 165.493 30.7933 165.119 31.008C164.746 31.2227 164.447 31.526 164.223 31.918C163.999 32.3007 163.887 32.758 163.887 33.29C163.887 33.8127 163.999 34.2747 164.223 34.676C164.447 35.068 164.746 35.3713 165.119 35.586C165.493 35.8007 165.917 35.908 166.393 35.908ZM168.927 37V34.998L169.011 33.276L168.871 31.554V26.612H170.215V37H168.927ZM176.714 37V28.922C176.714 28.194 176.924 27.6153 177.344 27.186C177.773 26.7473 178.38 26.528 179.164 26.528C179.453 26.528 179.729 26.5653 179.99 26.64C180.261 26.7053 180.489 26.8127 180.676 26.962L180.27 27.984C180.13 27.872 179.971 27.788 179.794 27.732C179.617 27.6667 179.43 27.634 179.234 27.634C178.842 27.634 178.543 27.746 178.338 27.97C178.133 28.1847 178.03 28.5067 178.03 28.936V29.93L178.058 30.546V37H176.714ZM175.454 30.686V29.58H180.186V30.686H175.454ZM184.648 37.084C183.855 37.084 183.155 36.9207 182.548 36.594C181.951 36.2673 181.484 35.8193 181.148 35.25C180.822 34.6807 180.658 34.0273 180.658 33.29C180.658 32.5527 180.817 31.8993 181.134 31.33C181.461 30.7607 181.904 30.3173 182.464 30C183.034 29.6733 183.673 29.51 184.382 29.51C185.101 29.51 185.736 29.6687 186.286 29.986C186.837 30.3033 187.266 30.7513 187.574 31.33C187.892 31.8993 188.05 32.5667 188.05 33.332C188.05 33.388 188.046 33.4533 188.036 33.528C188.036 33.6027 188.032 33.6727 188.022 33.738H181.708V32.772H187.322L186.776 33.108C186.786 32.632 186.688 32.2073 186.482 31.834C186.277 31.4607 185.992 31.1713 185.628 30.966C185.274 30.7513 184.858 30.644 184.382 30.644C183.916 30.644 183.5 30.7513 183.136 30.966C182.772 31.1713 182.488 31.4653 182.282 31.848C182.077 32.2213 181.974 32.6507 181.974 33.136V33.36C181.974 33.8547 182.086 34.298 182.31 34.69C182.544 35.0727 182.866 35.3713 183.276 35.586C183.687 35.8007 184.158 35.908 184.69 35.908C185.129 35.908 185.526 35.8333 185.88 35.684C186.244 35.5347 186.562 35.3107 186.832 35.012L187.574 35.88C187.238 36.272 186.818 36.5707 186.314 36.776C185.82 36.9813 185.264 37.084 184.648 37.084ZM192.045 37.084C191.429 37.084 190.841 37 190.281 36.832C189.73 36.664 189.296 36.4587 188.979 36.216L189.539 35.152C189.856 35.3667 190.248 35.5487 190.715 35.698C191.181 35.8473 191.657 35.922 192.143 35.922C192.768 35.922 193.216 35.8333 193.487 35.656C193.767 35.4787 193.907 35.2313 193.907 34.914C193.907 34.6807 193.823 34.4987 193.655 34.368C193.487 34.2373 193.263 34.1393 192.983 34.074C192.712 34.0087 192.409 33.9527 192.073 33.906C191.737 33.85 191.401 33.7847 191.065 33.71C190.729 33.626 190.421 33.514 190.141 33.374C189.861 33.2247 189.637 33.024 189.469 32.772C189.301 32.5107 189.217 32.1653 189.217 31.736C189.217 31.288 189.343 30.896 189.595 30.56C189.847 30.224 190.201 29.9673 190.659 29.79C191.125 29.6033 191.676 29.51 192.311 29.51C192.796 29.51 193.286 29.5707 193.781 29.692C194.285 29.804 194.695 29.9673 195.013 30.182L194.439 31.246C194.103 31.022 193.753 30.868 193.389 30.784C193.025 30.7 192.661 30.658 192.297 30.658C191.709 30.658 191.27 30.756 190.981 30.952C190.691 31.1387 190.547 31.3813 190.547 31.68C190.547 31.932 190.631 32.128 190.799 32.268C190.976 32.3987 191.2 32.5013 191.471 32.576C191.751 32.6507 192.059 32.716 192.395 32.772C192.731 32.8187 193.067 32.884 193.403 32.968C193.739 33.0427 194.042 33.15 194.313 33.29C194.593 33.43 194.817 33.626 194.985 33.878C195.162 34.13 195.251 34.466 195.251 34.886C195.251 35.334 195.12 35.7213 194.859 36.048C194.597 36.3747 194.229 36.6313 193.753 36.818C193.277 36.9953 192.707 37.084 192.045 37.084ZM199.478 37.084C198.732 37.084 198.153 36.8833 197.742 36.482C197.332 36.0807 197.126 35.5067 197.126 34.76V27.956H198.47V34.704C198.47 35.1053 198.568 35.4133 198.764 35.628C198.97 35.8427 199.259 35.95 199.632 35.95C200.052 35.95 200.402 35.8333 200.682 35.6L201.102 36.566C200.897 36.7433 200.65 36.874 200.36 36.958C200.08 37.042 199.786 37.084 199.478 37.084ZM195.866 30.686V29.58H200.598V30.686H195.866ZM202.727 37V29.58H204.071V37H202.727ZM203.399 28.152C203.138 28.152 202.918 28.068 202.741 27.9C202.573 27.732 202.489 27.5267 202.489 27.284C202.489 27.032 202.573 26.822 202.741 26.654C202.918 26.486 203.138 26.402 203.399 26.402C203.66 26.402 203.875 26.486 204.043 26.654C204.22 26.8127 204.309 27.0133 204.309 27.256C204.309 27.508 204.225 27.7227 204.057 27.9C203.889 28.068 203.67 28.152 203.399 28.152ZM208.583 37L205.335 29.58H206.735L209.619 36.3H208.947L211.887 29.58H213.203L209.955 37H208.583ZM217.557 37.084C216.763 37.084 216.063 36.9207 215.457 36.594C214.859 36.2673 214.393 35.8193 214.057 35.25C213.73 34.6807 213.567 34.0273 213.567 33.29C213.567 32.5527 213.725 31.8993 214.043 31.33C214.369 30.7607 214.813 30.3173 215.373 30C215.942 29.6733 216.581 29.51 217.291 29.51C218.009 29.51 218.644 29.6687 219.195 29.986C219.745 30.3033 220.175 30.7513 220.483 31.33C220.8 31.8993 220.959 32.5667 220.959 33.332C220.959 33.388 220.954 33.4533 220.945 33.528C220.945 33.6027 220.94 33.6727 220.931 33.738H214.617V32.772H220.231L219.685 33.108C219.694 32.632 219.596 32.2073 219.391 31.834C219.185 31.4607 218.901 31.1713 218.537 30.966C218.182 30.7513 217.767 30.644 217.291 30.644C216.824 30.644 216.409 30.7513 216.045 30.966C215.681 31.1713 215.396 31.4653 215.191 31.848C214.985 32.2213 214.883 32.6507 214.883 33.136V33.36C214.883 33.8547 214.995 34.298 215.219 34.69C215.452 35.0727 215.774 35.3713 216.185 35.586C216.595 35.8007 217.067 35.908 217.599 35.908C218.037 35.908 218.434 35.8333 218.789 35.684C219.153 35.5347 219.47 35.3107 219.741 35.012L220.483 35.88C220.147 36.272 219.727 36.5707 219.223 36.776C218.728 36.9813 218.173 37.084 217.557 37.084ZM228.713 37.084C228.097 37.084 227.509 37 226.949 36.832C226.398 36.664 225.964 36.4587 225.647 36.216L226.207 35.152C226.524 35.3667 226.916 35.5487 227.383 35.698C227.849 35.8473 228.325 35.922 228.811 35.922C229.436 35.922 229.884 35.8333 230.155 35.656C230.435 35.4787 230.575 35.2313 230.575 34.914C230.575 34.6807 230.491 34.4987 230.323 34.368C230.155 34.2373 229.931 34.1393 229.651 34.074C229.38 34.0087 229.077 33.9527 228.741 33.906C228.405 33.85 228.069 33.7847 227.733 33.71C227.397 33.626 227.089 33.514 226.809 33.374C226.529 33.2247 226.305 33.024 226.137 32.772C225.969 32.5107 225.885 32.1653 225.885 31.736C225.885 31.288 226.011 30.896 226.263 30.56C226.515 30.224 226.869 29.9673 227.327 29.79C227.793 29.6033 228.344 29.51 228.979 29.51C229.464 29.51 229.954 29.5707 230.449 29.692C230.953 29.804 231.363 29.9673 231.681 30.182L231.107 31.246C230.771 31.022 230.421 30.868 230.057 30.784C229.693 30.7 229.329 30.658 228.965 30.658C228.377 30.658 227.938 30.756 227.649 30.952C227.359 31.1387 227.215 31.3813 227.215 31.68C227.215 31.932 227.299 32.128 227.467 32.268C227.644 32.3987 227.868 32.5013 228.139 32.576C228.419 32.6507 228.727 32.716 229.063 32.772C229.399 32.8187 229.735 32.884 230.071 32.968C230.407 33.0427 230.71 33.15 230.981 33.29C231.261 33.43 231.485 33.626 231.653 33.878C231.83 34.13 231.919 34.466 231.919 34.886C231.919 35.334 231.788 35.7213 231.527 36.048C231.265 36.3747 230.897 36.6313 230.421 36.818C229.945 36.9953 229.375 37.084 228.713 37.084ZM236.902 37.084C236.109 37.084 235.409 36.9207 234.802 36.594C234.205 36.2673 233.738 35.8193 233.402 35.25C233.076 34.6807 232.912 34.0273 232.912 33.29C232.912 32.5527 233.071 31.8993 233.388 31.33C233.715 30.7607 234.158 30.3173 234.718 30C235.288 29.6733 235.927 29.51 236.636 29.51C237.355 29.51 237.99 29.6687 238.54 29.986C239.091 30.3033 239.52 30.7513 239.828 31.33C240.146 31.8993 240.304 32.5667 240.304 33.332C240.304 33.388 240.3 33.4533 240.29 33.528C240.29 33.6027 240.286 33.6727 240.276 33.738H233.962V32.772H239.576L239.03 33.108C239.04 32.632 238.942 32.2073 238.736 31.834C238.531 31.4607 238.246 31.1713 237.882 30.966C237.528 30.7513 237.112 30.644 236.636 30.644C236.17 30.644 235.754 30.7513 235.39 30.966C235.026 31.1713 234.742 31.4653 234.536 31.848C234.331 32.2213 234.228 32.6507 234.228 33.136V33.36C234.228 33.8547 234.34 34.298 234.564 34.69C234.798 35.0727 235.12 35.3713 235.53 35.586C235.941 35.8007 236.412 35.908 236.944 35.908C237.383 35.908 237.78 35.8333 238.134 35.684C238.498 35.5347 238.816 35.3107 239.086 35.012L239.828 35.88C239.492 36.272 239.072 36.5707 238.568 36.776C238.074 36.9813 237.518 37.084 236.902 37.084ZM242.17 37V29.58H243.458V31.596L243.332 31.092C243.538 30.5787 243.883 30.1867 244.368 29.916C244.854 29.6453 245.451 29.51 246.16 29.51V30.812C246.104 30.8027 246.048 30.798 245.992 30.798C245.946 30.798 245.899 30.798 245.852 30.798C245.134 30.798 244.564 31.0127 244.144 31.442C243.724 31.8713 243.514 32.492 243.514 33.304V37H242.17ZM250.064 37L246.816 29.58H248.216L251.1 36.3H250.428L253.368 29.58H254.684L251.436 37H250.064ZM255.938 37V29.58H257.282V37H255.938ZM256.61 28.152C256.349 28.152 256.129 28.068 255.952 27.9C255.784 27.732 255.7 27.5267 255.7 27.284C255.7 27.032 255.784 26.822 255.952 26.654C256.129 26.486 256.349 26.402 256.61 26.402C256.871 26.402 257.086 26.486 257.254 26.654C257.431 26.8127 257.52 27.0133 257.52 27.256C257.52 27.508 257.436 27.7227 257.268 27.9C257.1 28.068 256.881 28.152 256.61 28.152ZM259.848 37V29.58H261.136V31.582L260.926 31.05C261.169 30.5647 261.542 30.1867 262.046 29.916C262.55 29.6453 263.138 29.51 263.81 29.51C264.417 29.51 264.949 29.6267 265.406 29.86C265.873 30.0933 266.237 30.448 266.498 30.924C266.76 31.4 266.89 32.002 266.89 32.73V37H265.546V32.884C265.546 32.1653 265.369 31.624 265.014 31.26C264.669 30.896 264.179 30.714 263.544 30.714C263.068 30.714 262.653 30.8073 262.298 30.994C261.944 31.1807 261.668 31.456 261.472 31.82C261.286 32.184 261.192 32.6367 261.192 33.178V37H259.848ZM272.626 39.8C271.944 39.8 271.282 39.702 270.638 39.506C270.003 39.3193 269.485 39.0487 269.084 38.694L269.728 37.658C270.073 37.9567 270.498 38.19 271.002 38.358C271.506 38.5353 272.033 38.624 272.584 38.624C273.461 38.624 274.105 38.4187 274.516 38.008C274.926 37.5973 275.132 36.972 275.132 36.132V34.564L275.272 33.094L275.202 31.61V29.58H276.476V35.992C276.476 37.2987 276.149 38.26 275.496 38.876C274.842 39.492 273.886 39.8 272.626 39.8ZM272.458 36.692C271.739 36.692 271.095 36.5427 270.526 36.244C269.966 35.936 269.518 35.5113 269.182 34.97C268.855 34.4287 268.692 33.8033 268.692 33.094C268.692 32.3753 268.855 31.75 269.182 31.218C269.518 30.6767 269.966 30.2567 270.526 29.958C271.095 29.6593 271.739 29.51 272.458 29.51C273.092 29.51 273.671 29.6407 274.194 29.902C274.716 30.154 275.132 30.546 275.44 31.078C275.757 31.61 275.916 32.282 275.916 33.094C275.916 33.8967 275.757 34.564 275.44 35.096C275.132 35.628 274.716 36.0293 274.194 36.3C273.671 36.5613 273.092 36.692 272.458 36.692ZM272.612 35.516C273.106 35.516 273.545 35.4133 273.928 35.208C274.31 35.0027 274.609 34.718 274.824 34.354C275.048 33.99 275.16 33.57 275.16 33.094C275.16 32.618 275.048 32.198 274.824 31.834C274.609 31.47 274.31 31.19 273.928 30.994C273.545 30.7887 273.106 30.686 272.612 30.686C272.117 30.686 271.674 30.7887 271.282 30.994C270.899 31.19 270.596 31.47 270.372 31.834C270.157 32.198 270.05 32.618 270.05 33.094C270.05 33.57 270.157 33.99 270.372 34.354C270.596 34.718 270.899 35.0027 271.282 35.208C271.674 35.4133 272.117 35.516 272.612 35.516ZM281.172 37.084C280.556 37.084 279.968 37 279.408 36.832C278.857 36.664 278.423 36.4587 278.106 36.216L278.666 35.152C278.983 35.3667 279.375 35.5487 279.842 35.698C280.308 35.8473 280.784 35.922 281.27 35.922C281.895 35.922 282.343 35.8333 282.614 35.656C282.894 35.4787 283.034 35.2313 283.034 34.914C283.034 34.6807 282.95 34.4987 282.782 34.368C282.614 34.2373 282.39 34.1393 282.11 34.074C281.839 34.0087 281.536 33.9527 281.2 33.906C280.864 33.85 280.528 33.7847 280.192 33.71C279.856 33.626 279.548 33.514 279.268 33.374C278.988 33.2247 278.764 33.024 278.596 32.772C278.428 32.5107 278.344 32.1653 278.344 31.736C278.344 31.288 278.47 30.896 278.722 30.56C278.974 30.224 279.328 29.9673 279.786 29.79C280.252 29.6033 280.803 29.51 281.438 29.51C281.923 29.51 282.413 29.5707 282.908 29.692C283.412 29.804 283.822 29.9673 284.14 30.182L283.566 31.246C283.23 31.022 282.88 30.868 282.516 30.784C282.152 30.7 281.788 30.658 281.424 30.658C280.836 30.658 280.397 30.756 280.108 30.952C279.818 31.1387 279.674 31.3813 279.674 31.68C279.674 31.932 279.758 32.128 279.926 32.268C280.103 32.3987 280.327 32.5013 280.598 32.576C280.878 32.6507 281.186 32.716 281.522 32.772C281.858 32.8187 282.194 32.884 282.53 32.968C282.866 33.0427 283.169 33.15 283.44 33.29C283.72 33.43 283.944 33.626 284.112 33.878C284.289 34.13 284.378 34.466 284.378 34.886C284.378 35.334 284.247 35.7213 283.986 36.048C283.724 36.3747 283.356 36.6313 282.88 36.818C282.404 36.9953 281.834 37.084 281.172 37.084ZM286.379 37.084C286.118 37.084 285.894 36.9953 285.707 36.818C285.521 36.6313 285.427 36.398 285.427 36.118C285.427 35.838 285.521 35.6093 285.707 35.432C285.894 35.2547 286.118 35.166 286.379 35.166C286.631 35.166 286.846 35.2547 287.023 35.432C287.21 35.6093 287.303 35.838 287.303 36.118C287.303 36.398 287.21 36.6313 287.023 36.818C286.846 36.9953 286.631 37.084 286.379 37.084Z" fill="black"/>
</svg>
