<svg width="240" height="34" viewBox="0 0 240 34" fill="none" xmlns="http://www.w3.org/2000/svg">
<path d="M12.4659 30V16H18.2259C19.4659 16 20.5259 16.2 21.4059 16.6C22.2993 17 22.9859 17.5733 23.4659 18.32C23.9459 19.0667 24.1859 19.9533 24.1859 20.98C24.1859 22.0067 23.9459 22.8933 23.4659 23.64C22.9859 24.3867 22.2993 24.96 21.4059 25.36C20.5259 25.76 19.4659 25.96 18.2259 25.96H13.9059L15.0659 24.74V30H12.4659ZM15.0659 25.02L13.9059 23.76H18.1059C19.2526 23.76 20.1126 23.52 20.6859 23.04C21.2726 22.5467 21.5659 21.86 21.5659 20.98C21.5659 20.0867 21.2726 19.4 20.6859 18.92C20.1126 18.44 19.2526 18.2 18.1059 18.2H13.9059L15.0659 16.92V25.02ZM26.4447 30V19.32H28.8247V22.26L28.5447 21.4C28.8647 20.68 29.3647 20.1333 30.0447 19.76C30.738 19.3867 31.598 19.2 32.6247 19.2V21.58C32.518 21.5533 32.418 21.54 32.3247 21.54C32.2314 21.5267 32.138 21.52 32.0447 21.52C31.098 21.52 30.3447 21.8 29.7847 22.36C29.2247 22.9067 28.9447 23.7267 28.9447 24.82V30H26.4447ZM39.4478 30.14C38.3545 30.14 37.3811 29.9067 36.5278 29.44C35.6745 28.96 35.0011 28.3067 34.5078 27.48C34.0145 26.6533 33.7678 25.7133 33.7678 24.66C33.7678 23.5933 34.0145 22.6533 34.5078 21.84C35.0011 21.0133 35.6745 20.3667 36.5278 19.9C37.3811 19.4333 38.3545 19.2 39.4478 19.2C40.5545 19.2 41.5345 19.4333 42.3878 19.9C43.2545 20.3667 43.9278 21.0067 44.4078 21.82C44.9011 22.6333 45.1478 23.58 45.1478 24.66C45.1478 25.7133 44.9011 26.6533 44.4078 27.48C43.9278 28.3067 43.2545 28.96 42.3878 29.44C41.5345 29.9067 40.5545 30.14 39.4478 30.14ZM39.4478 28C40.0611 28 40.6078 27.8667 41.0878 27.6C41.5678 27.3333 41.9411 26.9467 42.2078 26.44C42.4878 25.9333 42.6278 25.34 42.6278 24.66C42.6278 23.9667 42.4878 23.3733 42.2078 22.88C41.9411 22.3733 41.5678 21.9867 41.0878 21.72C40.6078 21.4533 40.0678 21.32 39.4678 21.32C38.8545 21.32 38.3078 21.4533 37.8278 21.72C37.3611 21.9867 36.9878 22.3733 36.7078 22.88C36.4278 23.3733 36.2878 23.9667 36.2878 24.66C36.2878 25.34 36.4278 25.9333 36.7078 26.44C36.9878 26.9467 37.3611 27.3333 37.8278 27.6C38.3078 27.8667 38.8478 28 39.4478 28ZM52.0584 30.14C51.0318 30.14 50.1051 29.9133 49.2784 29.46C48.4651 28.9933 47.8251 28.3533 47.3584 27.54C46.8918 26.7267 46.6584 25.7667 46.6584 24.66C46.6584 23.5533 46.8918 22.5933 47.3584 21.78C47.8251 20.9667 48.4651 20.3333 49.2784 19.88C50.1051 19.4267 51.0318 19.2 52.0584 19.2C52.9518 19.2 53.7518 19.4 54.4584 19.8C55.1651 20.1867 55.7251 20.78 56.1384 21.58C56.5518 22.38 56.7584 23.4067 56.7584 24.66C56.7584 25.9 56.5584 26.9267 56.1584 27.74C55.7584 28.54 55.2051 29.14 54.4984 29.54C53.7918 29.94 52.9784 30.14 52.0584 30.14ZM52.3584 28C52.9584 28 53.4918 27.8667 53.9584 27.6C54.4384 27.3333 54.8184 26.9467 55.0984 26.44C55.3918 25.9333 55.5384 25.34 55.5384 24.66C55.5384 23.9667 55.3918 23.3733 55.0984 22.88C54.8184 22.3733 54.4384 21.9867 53.9584 21.72C53.4918 21.4533 52.9584 21.32 52.3584 21.32C51.7584 21.32 51.2184 21.4533 50.7384 21.72C50.2718 21.9867 49.8918 22.3733 49.5984 22.88C49.3184 23.3733 49.1784 23.9667 49.1784 24.66C49.1784 25.34 49.3184 25.9333 49.5984 26.44C49.8918 26.9467 50.2718 27.3333 50.7384 27.6C51.2184 27.8667 51.7584 28 52.3584 28ZM55.5984 30V27.48L55.6984 24.64L55.4984 21.8V15.16H57.9784V30H55.5984ZM65.7889 30.14C64.8822 30.14 64.0822 29.9733 63.3889 29.64C62.6956 29.2933 62.1556 28.7733 61.7689 28.08C61.3822 27.3733 61.1889 26.4867 61.1889 25.42V19.32H63.6889V25.08C63.6889 26.04 63.9022 26.76 64.3289 27.24C64.7689 27.7067 65.3889 27.94 66.1889 27.94C66.7756 27.94 67.2822 27.82 67.7089 27.58C68.1489 27.34 68.4889 26.98 68.7289 26.5C68.9822 26.02 69.1089 25.4267 69.1089 24.72V19.32H71.6089V30H69.2289V27.12L69.6489 28C69.2889 28.6933 68.7622 29.2267 68.0689 29.6C67.3756 29.96 66.6156 30.14 65.7889 30.14ZM79.7822 30.14C78.6622 30.14 77.6622 29.9067 76.7822 29.44C75.9155 28.96 75.2355 28.3067 74.7422 27.48C74.2489 26.6533 74.0022 25.7133 74.0022 24.66C74.0022 23.5933 74.2489 22.6533 74.7422 21.84C75.2355 21.0133 75.9155 20.3667 76.7822 19.9C77.6622 19.4333 78.6622 19.2 79.7822 19.2C80.8222 19.2 81.7355 19.4133 82.5222 19.84C83.3222 20.2533 83.9289 20.8667 84.3422 21.68L82.4222 22.8C82.1022 22.2933 81.7089 21.92 81.2422 21.68C80.7889 21.44 80.2955 21.32 79.7622 21.32C79.1489 21.32 78.5955 21.4533 78.1022 21.72C77.6089 21.9867 77.2222 22.3733 76.9422 22.88C76.6622 23.3733 76.5222 23.9667 76.5222 24.66C76.5222 25.3533 76.6622 25.9533 76.9422 26.46C77.2222 26.9533 77.6089 27.3333 78.1022 27.6C78.5955 27.8667 79.1489 28 79.7622 28C80.2955 28 80.7889 27.88 81.2422 27.64C81.7089 27.4 82.1022 27.0267 82.4222 26.52L84.3422 27.64C83.9289 28.44 83.3222 29.06 82.5222 29.5C81.7355 29.9267 80.8222 30.14 79.7822 30.14ZM90.66 30.14C89.4867 30.14 88.58 29.84 87.94 29.24C87.3 28.6267 86.98 27.7267 86.98 26.54V16.96H89.48V26.48C89.48 26.9867 89.6067 27.38 89.86 27.66C90.1267 27.94 90.4933 28.08 90.96 28.08C91.52 28.08 91.9867 27.9333 92.36 27.64L93.06 29.42C92.7667 29.66 92.4067 29.84 91.98 29.96C91.5533 30.08 91.1133 30.14 90.66 30.14ZM85.22 21.32V19.32H92.34V21.32H85.22ZM107.364 30.2C106.297 30.2 105.304 30.0267 104.384 29.68C103.477 29.32 102.684 28.82 102.004 28.18C101.337 27.5267 100.817 26.76 100.444 25.88C100.071 25 99.8839 24.04 99.8839 23C99.8839 21.96 100.071 21 100.444 20.12C100.817 19.24 101.344 18.48 102.024 17.84C102.704 17.1867 103.497 16.6867 104.404 16.34C105.311 15.98 106.304 15.8 107.384 15.8C108.531 15.8 109.577 16 110.524 16.4C111.471 16.7867 112.271 17.3667 112.924 18.14L111.244 19.72C110.737 19.1733 110.171 18.7667 109.544 18.5C108.917 18.22 108.237 18.08 107.504 18.08C106.771 18.08 106.097 18.2 105.484 18.44C104.884 18.68 104.357 19.02 103.904 19.46C103.464 19.9 103.117 20.42 102.864 21.02C102.624 21.62 102.504 22.28 102.504 23C102.504 23.72 102.624 24.38 102.864 24.98C103.117 25.58 103.464 26.1 103.904 26.54C104.357 26.98 104.884 27.32 105.484 27.56C106.097 27.8 106.771 27.92 107.504 27.92C108.237 27.92 108.917 27.7867 109.544 27.52C110.171 27.24 110.737 26.82 111.244 26.26L112.924 27.86C112.271 28.62 111.471 29.2 110.524 29.6C109.577 30 108.524 30.2 107.364 30.2ZM119.389 30.14C118.296 30.14 117.323 29.9067 116.469 29.44C115.616 28.96 114.943 28.3067 114.449 27.48C113.956 26.6533 113.709 25.7133 113.709 24.66C113.709 23.5933 113.956 22.6533 114.449 21.84C114.943 21.0133 115.616 20.3667 116.469 19.9C117.323 19.4333 118.296 19.2 119.389 19.2C120.496 19.2 121.476 19.4333 122.329 19.9C123.196 20.3667 123.869 21.0067 124.349 21.82C124.843 22.6333 125.089 23.58 125.089 24.66C125.089 25.7133 124.843 26.6533 124.349 27.48C123.869 28.3067 123.196 28.96 122.329 29.44C121.476 29.9067 120.496 30.14 119.389 30.14ZM119.389 28C120.003 28 120.549 27.8667 121.029 27.6C121.509 27.3333 121.883 26.9467 122.149 26.44C122.429 25.9333 122.569 25.34 122.569 24.66C122.569 23.9667 122.429 23.3733 122.149 22.88C121.883 22.3733 121.509 21.9867 121.029 21.72C120.549 21.4533 120.009 21.32 119.409 21.32C118.796 21.32 118.249 21.4533 117.769 21.72C117.303 21.9867 116.929 22.3733 116.649 22.88C116.369 23.3733 116.229 23.9667 116.229 24.66C116.229 25.34 116.369 25.9333 116.649 26.44C116.929 26.9467 117.303 27.3333 117.769 27.6C118.249 27.8667 118.789 28 119.389 28ZM132 30.14C130.973 30.14 130.047 29.9133 129.22 29.46C128.407 28.9933 127.767 28.3533 127.3 27.54C126.833 26.7267 126.6 25.7667 126.6 24.66C126.6 23.5533 126.833 22.5933 127.3 21.78C127.767 20.9667 128.407 20.3333 129.22 19.88C130.047 19.4267 130.973 19.2 132 19.2C132.893 19.2 133.693 19.4 134.4 19.8C135.107 20.1867 135.667 20.78 136.08 21.58C136.493 22.38 136.7 23.4067 136.7 24.66C136.7 25.9 136.5 26.9267 136.1 27.74C135.7 28.54 135.147 29.14 134.44 29.54C133.733 29.94 132.92 30.14 132 30.14ZM132.3 28C132.9 28 133.433 27.8667 133.9 27.6C134.38 27.3333 134.76 26.9467 135.04 26.44C135.333 25.9333 135.48 25.34 135.48 24.66C135.48 23.9667 135.333 23.3733 135.04 22.88C134.76 22.3733 134.38 21.9867 133.9 21.72C133.433 21.4533 132.9 21.32 132.3 21.32C131.7 21.32 131.16 21.4533 130.68 21.72C130.213 21.9867 129.833 22.3733 129.54 22.88C129.26 23.3733 129.12 23.9667 129.12 24.66C129.12 25.34 129.26 25.9333 129.54 26.44C129.833 26.9467 130.213 27.3333 130.68 27.6C131.16 27.8667 131.7 28 132.3 28ZM135.54 30V27.48L135.64 24.64L135.44 21.8V15.16H137.92V30H135.54ZM146.23 30.14C145.044 30.14 144.004 29.9067 143.11 29.44C142.23 28.96 141.544 28.3067 141.05 27.48C140.57 26.6533 140.33 25.7133 140.33 24.66C140.33 23.5933 140.564 22.6533 141.03 21.84C141.51 21.0133 142.164 20.3667 142.99 19.9C143.83 19.4333 144.784 19.2 145.85 19.2C146.89 19.2 147.817 19.4267 148.63 19.88C149.444 20.3333 150.084 20.9733 150.55 21.8C151.017 22.6267 151.25 23.6 151.25 24.72C151.25 24.8267 151.244 24.9467 151.23 25.08C151.23 25.2133 151.224 25.34 151.21 25.46H142.31V23.8H149.89L148.91 24.32C148.924 23.7067 148.797 23.1667 148.53 22.7C148.264 22.2333 147.897 21.8667 147.43 21.6C146.977 21.3333 146.45 21.2 145.85 21.2C145.237 21.2 144.697 21.3333 144.23 21.6C143.777 21.8667 143.417 22.24 143.15 22.72C142.897 23.1867 142.77 23.74 142.77 24.38V24.78C142.77 25.42 142.917 25.9867 143.21 26.48C143.504 26.9733 143.917 27.3533 144.45 27.62C144.984 27.8867 145.597 28.02 146.29 28.02C146.89 28.02 147.43 27.9267 147.91 27.74C148.39 27.5533 148.817 27.26 149.19 26.86L150.53 28.4C150.05 28.96 149.444 29.3933 148.71 29.7C147.99 29.9933 147.164 30.14 146.23 30.14ZM164.166 25.48V23.4H169.666V25.48H164.166ZM182.789 30.2C181.629 30.2 180.622 30.0267 179.769 29.68C178.916 29.3333 178.256 28.8467 177.789 28.22C177.322 27.58 177.089 26.8333 177.089 25.98C177.089 25.1267 177.316 24.4067 177.769 23.82C178.222 23.2333 178.876 22.7867 179.729 22.48C180.582 22.1733 181.602 22.02 182.789 22.02C183.976 22.02 184.996 22.1733 185.849 22.48C186.716 22.7867 187.376 23.24 187.829 23.84C188.296 24.4267 188.529 25.14 188.529 25.98C188.529 26.8333 188.289 27.58 187.809 28.22C187.342 28.8467 186.676 29.3333 185.809 29.68C184.956 30.0267 183.949 30.2 182.789 30.2ZM182.789 28.16C183.749 28.16 184.509 27.96 185.069 27.56C185.629 27.16 185.909 26.6067 185.909 25.9C185.909 25.2067 185.629 24.66 185.069 24.26C184.509 23.86 183.749 23.66 182.789 23.66C181.829 23.66 181.076 23.86 180.529 24.26C179.982 24.66 179.709 25.2067 179.709 25.9C179.709 26.6067 179.982 27.16 180.529 27.56C181.076 27.96 181.829 28.16 182.789 28.16ZM182.789 21.78C183.616 21.78 184.269 21.6067 184.749 21.26C185.229 20.9 185.469 20.42 185.469 19.82C185.469 19.1933 185.222 18.7067 184.729 18.36C184.236 18.0133 183.589 17.84 182.789 17.84C181.989 17.84 181.349 18.0133 180.869 18.36C180.389 18.7067 180.149 19.1933 180.149 19.82C180.149 20.42 180.382 20.9 180.849 21.26C181.329 21.6067 181.976 21.78 182.789 21.78ZM182.789 23.38C181.709 23.38 180.782 23.24 180.009 22.96C179.236 22.6667 178.636 22.2467 178.209 21.7C177.796 21.14 177.589 20.4733 177.589 19.7C177.589 18.9 177.802 18.2133 178.229 17.64C178.669 17.0533 179.282 16.6 180.069 16.28C180.856 15.96 181.762 15.8 182.789 15.8C183.829 15.8 184.742 15.96 185.529 16.28C186.316 16.6 186.929 17.0533 187.369 17.64C187.809 18.2133 188.029 18.9 188.029 19.7C188.029 20.4733 187.816 21.14 187.389 21.7C186.976 22.2467 186.376 22.6667 185.589 22.96C184.802 23.24 183.869 23.38 182.789 23.38ZM195.836 30.2C194.676 30.2 193.669 30.0267 192.816 29.68C191.963 29.3333 191.303 28.8467 190.836 28.22C190.369 27.58 190.136 26.8333 190.136 25.98C190.136 25.1267 190.363 24.4067 190.816 23.82C191.269 23.2333 191.923 22.7867 192.776 22.48C193.629 22.1733 194.649 22.02 195.836 22.02C197.023 22.02 198.043 22.1733 198.896 22.48C199.763 22.7867 200.423 23.24 200.876 23.84C201.343 24.4267 201.576 25.14 201.576 25.98C201.576 26.8333 201.336 27.58 200.856 28.22C200.389 28.8467 199.723 29.3333 198.856 29.68C198.003 30.0267 196.996 30.2 195.836 30.2ZM195.836 28.16C196.796 28.16 197.556 27.96 198.116 27.56C198.676 27.16 198.956 26.6067 198.956 25.9C198.956 25.2067 198.676 24.66 198.116 24.26C197.556 23.86 196.796 23.66 195.836 23.66C194.876 23.66 194.123 23.86 193.576 24.26C193.029 24.66 192.756 25.2067 192.756 25.9C192.756 26.6067 193.029 27.16 193.576 27.56C194.123 27.96 194.876 28.16 195.836 28.16ZM195.836 21.78C196.663 21.78 197.316 21.6067 197.796 21.26C198.276 20.9 198.516 20.42 198.516 19.82C198.516 19.1933 198.269 18.7067 197.776 18.36C197.283 18.0133 196.636 17.84 195.836 17.84C195.036 17.84 194.396 18.0133 193.916 18.36C193.436 18.7067 193.196 19.1933 193.196 19.82C193.196 20.42 193.429 20.9 193.896 21.26C194.376 21.6067 195.023 21.78 195.836 21.78ZM195.836 23.38C194.756 23.38 193.829 23.24 193.056 22.96C192.283 22.6667 191.683 22.2467 191.256 21.7C190.843 21.14 190.636 20.4733 190.636 19.7C190.636 18.9 190.849 18.2133 191.276 17.64C191.716 17.0533 192.329 16.6 193.116 16.28C193.903 15.96 194.809 15.8 195.836 15.8C196.876 15.8 197.789 15.96 198.576 16.28C199.363 16.6 199.976 17.0533 200.416 17.64C200.856 18.2133 201.076 18.9 201.076 19.7C201.076 20.4733 200.863 21.14 200.436 21.7C200.023 22.2467 199.423 22.6667 198.636 22.96C197.849 23.24 196.916 23.38 195.836 23.38ZM209.103 30.2C207.996 30.2 206.996 29.92 206.103 29.36C205.223 28.8 204.529 27.9867 204.023 26.92C203.516 25.84 203.263 24.5333 203.263 23C203.263 21.4667 203.516 20.1667 204.023 19.1C204.529 18.02 205.223 17.2 206.103 16.64C206.996 16.08 207.996 15.8 209.103 15.8C210.223 15.8 211.223 16.08 212.103 16.64C212.983 17.2 213.676 18.02 214.183 19.1C214.703 20.1667 214.963 21.4667 214.963 23C214.963 24.5333 214.703 25.84 214.183 26.92C213.676 27.9867 212.983 28.8 212.103 29.36C211.223 29.92 210.223 30.2 209.103 30.2ZM209.103 27.94C209.756 27.94 210.323 27.7667 210.803 27.42C211.283 27.06 211.656 26.5133 211.923 25.78C212.203 25.0467 212.343 24.12 212.343 23C212.343 21.8667 212.203 20.94 211.923 20.22C211.656 19.4867 211.283 18.9467 210.803 18.6C210.323 18.24 209.756 18.06 209.103 18.06C208.476 18.06 207.916 18.24 207.423 18.6C206.943 18.9467 206.563 19.4867 206.283 20.22C206.016 20.94 205.883 21.8667 205.883 23C205.883 24.12 206.016 25.0467 206.283 25.78C206.563 26.5133 206.943 27.06 207.423 27.42C207.916 27.7667 208.476 27.94 209.103 27.94ZM216.52 26.82V25.02L223.42 16H226.2L219.4 25.02L218.1 24.62H229.2V26.82H216.52ZM224.2 30V26.82L224.28 24.62V21.8H226.72V30H224.2Z" fill="#272727"/>
</svg>
