<svg width="319" height="38" viewBox="0 0 319 38" fill="none" xmlns="http://www.w3.org/2000/svg">
<path d="M9.39725 14V4.2H10.4333V13.104H15.9213V14H9.39725ZM22.0374 14V12.376L21.9954 12.11V9.394C21.9954 8.76867 21.8181 8.288 21.4634 7.952C21.1181 7.616 20.6001 7.448 19.9094 7.448C19.4334 7.448 18.9807 7.52733 18.5514 7.686C18.1221 7.84467 17.7581 8.05467 17.4594 8.316L17.0114 7.574C17.3847 7.25667 17.8327 7.014 18.3554 6.846C18.8781 6.66867 19.4287 6.58 20.0074 6.58C20.9594 6.58 21.6921 6.818 22.2054 7.294C22.7281 7.76067 22.9894 8.47467 22.9894 9.436V14H22.0374ZM19.5034 14.07C18.9527 14.07 18.4721 13.9813 18.0614 13.804C17.6601 13.6173 17.3521 13.3653 17.1374 13.048C16.9227 12.7213 16.8154 12.348 16.8154 11.928C16.8154 11.5453 16.9041 11.2 17.0814 10.892C17.2681 10.5747 17.5667 10.3227 17.9774 10.136C18.3974 9.94 18.9574 9.842 19.6574 9.842H22.1914V10.584H19.6854C18.9761 10.584 18.4814 10.71 18.2014 10.962C17.9307 11.214 17.7954 11.5267 17.7954 11.9C17.7954 12.32 17.9587 12.656 18.2854 12.908C18.6121 13.16 19.0694 13.286 19.6574 13.286C20.2174 13.286 20.6981 13.16 21.0994 12.908C21.5101 12.6467 21.8087 12.2733 21.9954 11.788L22.2194 12.474C22.0327 12.9593 21.7061 13.3467 21.2394 13.636C20.7821 13.9253 20.2034 14.07 19.5034 14.07ZM25.6892 14V6.65H26.6412V8.652L26.5432 8.302C26.7485 7.742 27.0939 7.31733 27.5792 7.028C28.0645 6.72933 28.6665 6.58 29.3852 6.58V7.546C29.3479 7.546 29.3105 7.546 29.2732 7.546C29.2359 7.53667 29.1985 7.532 29.1612 7.532C28.3865 7.532 27.7799 7.77 27.3412 8.246C26.9025 8.71267 26.6832 9.38 26.6832 10.248V14H25.6892ZM34.2666 16.786C33.5946 16.786 32.9506 16.688 32.3346 16.492C31.7186 16.296 31.2193 16.016 30.8366 15.652L31.3406 14.896C31.6859 15.204 32.1106 15.4467 32.6146 15.624C33.1279 15.8107 33.6693 15.904 34.2386 15.904C35.1719 15.904 35.8579 15.6847 36.2966 15.246C36.7353 14.8167 36.9546 14.1447 36.9546 13.23V11.396L37.0946 10.136L36.9966 8.876V6.65H37.9486V13.104C37.9486 14.3733 37.6359 15.302 37.0106 15.89C36.3946 16.4873 35.4799 16.786 34.2666 16.786ZM34.0846 13.72C33.3846 13.72 32.7546 13.5707 32.1946 13.272C31.6346 12.964 31.1913 12.5393 30.8646 11.998C30.5473 11.4567 30.3886 10.836 30.3886 10.136C30.3886 9.436 30.5473 8.82 30.8646 8.288C31.1913 7.74667 31.6346 7.32667 32.1946 7.028C32.7546 6.72933 33.3846 6.58 34.0846 6.58C34.7379 6.58 35.3259 6.71533 35.8486 6.986C36.3713 7.25667 36.7866 7.658 37.0946 8.19C37.4026 8.722 37.5566 9.37067 37.5566 10.136C37.5566 10.9013 37.4026 11.55 37.0946 12.082C36.7866 12.614 36.3713 13.02 35.8486 13.3C35.3259 13.58 34.7379 13.72 34.0846 13.72ZM34.1826 12.838C34.7239 12.838 35.2046 12.726 35.6246 12.502C36.0446 12.2687 36.3759 11.9513 36.6186 11.55C36.8613 11.1393 36.9826 10.668 36.9826 10.136C36.9826 9.604 36.8613 9.13733 36.6186 8.736C36.3759 8.33467 36.0446 8.022 35.6246 7.798C35.2046 7.56467 34.7239 7.448 34.1826 7.448C33.6506 7.448 33.1699 7.56467 32.7406 7.798C32.3206 8.022 31.9893 8.33467 31.7466 8.736C31.5133 9.13733 31.3966 9.604 31.3966 10.136C31.3966 10.668 31.5133 11.1393 31.7466 11.55C31.9893 11.9513 32.3206 12.2687 32.7406 12.502C33.1699 12.726 33.6506 12.838 34.1826 12.838ZM43.8366 14.07C43.0713 14.07 42.3993 13.9113 41.8206 13.594C41.2419 13.2673 40.7893 12.824 40.4626 12.264C40.1359 11.6947 39.9726 11.046 39.9726 10.318C39.9726 9.59 40.1266 8.946 40.4346 8.386C40.7519 7.826 41.1813 7.38733 41.7226 7.07C42.2733 6.74333 42.8893 6.58 43.5706 6.58C44.2613 6.58 44.8726 6.73867 45.4046 7.056C45.9459 7.364 46.3706 7.80267 46.6786 8.372C46.9866 8.932 47.1406 9.58067 47.1406 10.318C47.1406 10.3647 47.1359 10.416 47.1266 10.472C47.1266 10.5187 47.1266 10.57 47.1266 10.626H40.7286V9.884H46.5946L46.2026 10.178C46.2026 9.646 46.0859 9.17467 45.8526 8.764C45.6286 8.344 45.3206 8.01733 44.9286 7.784C44.5366 7.55067 44.0839 7.434 43.5706 7.434C43.0666 7.434 42.6139 7.55067 42.2126 7.784C41.8113 8.01733 41.4986 8.344 41.2746 8.764C41.0506 9.184 40.9386 9.66467 40.9386 10.206V10.36C40.9386 10.92 41.0599 11.4147 41.3026 11.844C41.5546 12.264 41.8999 12.5953 42.3386 12.838C42.7866 13.0713 43.2953 13.188 43.8646 13.188C44.3126 13.188 44.7279 13.1087 45.1106 12.95C45.5026 12.7913 45.8386 12.5487 46.1186 12.222L46.6786 12.866C46.3519 13.258 45.9413 13.5567 45.4466 13.762C44.9613 13.9673 44.4246 14.07 43.8366 14.07ZM51.7359 16.786C51.4372 16.786 51.1525 16.744 50.8819 16.66C50.6019 16.5853 50.3685 16.4687 50.1819 16.31L50.5319 15.554C50.8305 15.806 51.2132 15.932 51.6799 15.932C52.0719 15.932 52.3705 15.8153 52.5759 15.582C52.7905 15.3487 52.8979 15.0033 52.8979 14.546V6.65H53.8919V14.546C53.8919 15.2273 53.7052 15.7687 53.3319 16.17C52.9679 16.5807 52.4359 16.786 51.7359 16.786ZM53.4019 5.026C53.1965 5.026 53.0239 4.956 52.8839 4.816C52.7439 4.676 52.6739 4.508 52.6739 4.312C52.6739 4.116 52.7439 3.95267 52.8839 3.822C53.0239 3.682 53.1965 3.612 53.4019 3.612C53.6072 3.612 53.7799 3.67733 53.9199 3.808C54.0599 3.93867 54.1299 4.102 54.1299 4.298C54.1299 4.50333 54.0599 4.676 53.9199 4.816C53.7892 4.956 53.6165 5.026 53.4019 5.026ZM59.7077 14.07C59.0823 14.07 58.5363 13.9533 58.0697 13.72C57.603 13.4867 57.239 13.1367 56.9777 12.67C56.7257 12.2033 56.5997 11.62 56.5997 10.92V6.65H57.5937V10.808C57.5937 11.592 57.785 12.1847 58.1677 12.586C58.5597 12.978 59.1057 13.174 59.8057 13.174C60.319 13.174 60.7623 13.0713 61.1357 12.866C61.5183 12.6513 61.8077 12.3433 62.0037 11.942C62.209 11.5407 62.3117 11.06 62.3117 10.5V6.65H63.3057V14H62.3537V11.984L62.5077 12.348C62.2743 12.8893 61.9103 13.314 61.4157 13.622C60.9303 13.9207 60.361 14.07 59.7077 14.07ZM75.2599 6.58C75.8573 6.58 76.3753 6.69667 76.8139 6.93C77.2619 7.154 77.6073 7.49933 77.8499 7.966C78.1019 8.43267 78.2279 9.02067 78.2279 9.73V14H77.2339V9.828C77.2339 9.05333 77.0473 8.47 76.6739 8.078C76.3099 7.67667 75.7919 7.476 75.1199 7.476C74.6159 7.476 74.1773 7.58333 73.8039 7.798C73.4399 8.00333 73.1553 8.30667 72.9499 8.708C72.7539 9.1 72.6559 9.576 72.6559 10.136V14H71.6619V9.828C71.6619 9.05333 71.4753 8.47 71.1019 8.078C70.7286 7.67667 70.2059 7.476 69.5339 7.476C69.0393 7.476 68.6053 7.58333 68.2319 7.798C67.8586 8.00333 67.5693 8.30667 67.3639 8.708C67.1679 9.1 67.0699 9.576 67.0699 10.136V14H66.0759V6.65H67.0279V8.638L66.8739 8.288C67.0979 7.756 67.4573 7.34067 67.9519 7.042C68.4559 6.734 69.0486 6.58 69.7299 6.58C70.4486 6.58 71.0599 6.762 71.5639 7.126C72.0679 7.48067 72.3946 8.01733 72.5439 8.736L72.1519 8.582C72.3666 7.98467 72.7446 7.504 73.2859 7.14C73.8366 6.76667 74.4946 6.58 75.2599 6.58ZM84.7176 14.07C84.0736 14.07 83.4949 13.9253 82.9816 13.636C82.4682 13.3373 82.0622 12.908 81.7636 12.348C81.4649 11.788 81.3156 11.1113 81.3156 10.318C81.3156 9.51533 81.4649 8.83867 81.7636 8.288C82.0716 7.728 82.4822 7.30333 82.9956 7.014C83.5089 6.72467 84.0829 6.58 84.7176 6.58C85.4176 6.58 86.0429 6.73867 86.5936 7.056C87.1536 7.364 87.5922 7.798 87.9096 8.358C88.2269 8.918 88.3856 9.57133 88.3856 10.318C88.3856 11.0553 88.2269 11.7087 87.9096 12.278C87.5922 12.838 87.1536 13.2767 86.5936 13.594C86.0429 13.9113 85.4176 14.07 84.7176 14.07ZM80.9236 14V3.612H81.9176V8.82L81.7776 10.304L81.8756 11.788V14H80.9236ZM84.6476 13.188C85.1702 13.188 85.6369 13.0713 86.0476 12.838C86.4582 12.5953 86.7849 12.2593 87.0276 11.83C87.2702 11.3913 87.3916 10.8873 87.3916 10.318C87.3916 9.73933 87.2702 9.23533 87.0276 8.806C86.7849 8.37667 86.4582 8.04533 86.0476 7.812C85.6369 7.56933 85.1702 7.448 84.6476 7.448C84.1249 7.448 83.6536 7.56933 83.2336 7.812C82.8229 8.04533 82.4962 8.37667 82.2536 8.806C82.0202 9.23533 81.9036 9.73933 81.9036 10.318C81.9036 10.8873 82.0202 11.3913 82.2536 11.83C82.4962 12.2593 82.8229 12.5953 83.2336 12.838C83.6536 13.0713 84.1249 13.188 84.6476 13.188ZM93.4079 14.07C92.6985 14.07 92.0592 13.9113 91.4899 13.594C90.9299 13.2673 90.4865 12.824 90.1599 12.264C89.8332 11.6947 89.6699 11.046 89.6699 10.318C89.6699 9.58067 89.8332 8.932 90.1599 8.372C90.4865 7.812 90.9299 7.37333 91.4899 7.056C92.0499 6.73867 92.6892 6.58 93.4079 6.58C94.1359 6.58 94.7799 6.73867 95.3399 7.056C95.9092 7.37333 96.3525 7.812 96.6699 8.372C96.9965 8.932 97.1599 9.58067 97.1599 10.318C97.1599 11.046 96.9965 11.6947 96.6699 12.264C96.3525 12.824 95.9092 13.2673 95.3399 13.594C94.7705 13.9113 94.1265 14.07 93.4079 14.07ZM93.4079 13.188C93.9399 13.188 94.4112 13.0713 94.8219 12.838C95.2325 12.5953 95.5545 12.2593 95.7879 11.83C96.0305 11.3913 96.1519 10.8873 96.1519 10.318C96.1519 9.73933 96.0305 9.23533 95.7879 8.806C95.5545 8.37667 95.2325 8.04533 94.8219 7.812C94.4112 7.56933 93.9445 7.448 93.4219 7.448C92.8992 7.448 92.4325 7.56933 92.0219 7.812C91.6112 8.04533 91.2845 8.37667 91.0419 8.806C90.7992 9.23533 90.6779 9.73933 90.6779 10.318C90.6779 10.8873 90.7992 11.3913 91.0419 11.83C91.2845 12.2593 91.6112 12.5953 92.0219 12.838C92.4325 13.0713 92.8945 13.188 93.4079 13.188ZM105.177 14.07C104.487 14.07 103.955 13.8833 103.581 13.51C103.208 13.1367 103.021 12.6093 103.021 11.928V5.026H104.015V11.872C104.015 12.3013 104.123 12.6327 104.337 12.866C104.561 13.0993 104.879 13.216 105.289 13.216C105.728 13.216 106.092 13.09 106.381 12.838L106.731 13.552C106.535 13.7293 106.297 13.86 106.017 13.944C105.747 14.028 105.467 14.07 105.177 14.07ZM101.705 7.476V6.65H106.255V7.476H101.705ZM113.147 14V12.376L113.105 12.11V9.394C113.105 8.76867 112.927 8.288 112.573 7.952C112.227 7.616 111.709 7.448 111.019 7.448C110.543 7.448 110.09 7.52733 109.661 7.686C109.231 7.84467 108.867 8.05467 108.569 8.316L108.121 7.574C108.494 7.25667 108.942 7.014 109.465 6.846C109.987 6.66867 110.538 6.58 111.117 6.58C112.069 6.58 112.801 6.818 113.315 7.294C113.837 7.76067 114.099 8.47467 114.099 9.436V14H113.147ZM110.613 14.07C110.062 14.07 109.581 13.9813 109.171 13.804C108.769 13.6173 108.461 13.3653 108.247 13.048C108.032 12.7213 107.925 12.348 107.925 11.928C107.925 11.5453 108.013 11.2 108.191 10.892C108.377 10.5747 108.676 10.3227 109.087 10.136C109.507 9.94 110.067 9.842 110.767 9.842H113.301V10.584H110.795C110.085 10.584 109.591 10.71 109.311 10.962C109.04 11.214 108.905 11.5267 108.905 11.9C108.905 12.32 109.068 12.656 109.395 12.908C109.721 13.16 110.179 13.286 110.767 13.286C111.327 13.286 111.807 13.16 112.209 12.908C112.619 12.6467 112.918 12.2733 113.105 11.788L113.329 12.474C113.142 12.9593 112.815 13.3467 112.349 13.636C111.891 13.9253 111.313 14.07 110.613 14.07ZM125.983 6.58C126.58 6.58 127.098 6.69667 127.537 6.93C127.985 7.154 128.33 7.49933 128.573 7.966C128.825 8.43267 128.951 9.02067 128.951 9.73V14H127.957V9.828C127.957 9.05333 127.77 8.47 127.397 8.078C127.033 7.67667 126.515 7.476 125.843 7.476C125.339 7.476 124.9 7.58333 124.527 7.798C124.163 8.00333 123.878 8.30667 123.673 8.708C123.477 9.1 123.379 9.576 123.379 10.136V14H122.385V9.828C122.385 9.05333 122.198 8.47 121.825 8.078C121.451 7.67667 120.929 7.476 120.257 7.476C119.762 7.476 119.328 7.58333 118.955 7.798C118.581 8.00333 118.292 8.30667 118.087 8.708C117.891 9.1 117.793 9.576 117.793 10.136V14H116.799V6.65H117.751V8.638L117.597 8.288C117.821 7.756 118.18 7.34067 118.675 7.042C119.179 6.734 119.771 6.58 120.453 6.58C121.171 6.58 121.783 6.762 122.287 7.126C122.791 7.48067 123.117 8.01733 123.267 8.736L122.875 8.582C123.089 7.98467 123.467 7.504 124.009 7.14C124.559 6.76667 125.217 6.58 125.983 6.58ZM135.44 14.07C134.806 14.07 134.232 13.9253 133.718 13.636C133.205 13.3373 132.794 12.9127 132.486 12.362C132.188 11.802 132.038 11.1207 132.038 10.318C132.038 9.51533 132.188 8.83867 132.486 8.288C132.785 7.728 133.191 7.30333 133.704 7.014C134.218 6.72467 134.796 6.58 135.44 6.58C136.14 6.58 136.766 6.73867 137.316 7.056C137.876 7.364 138.315 7.80267 138.632 8.372C138.95 8.932 139.108 9.58067 139.108 10.318C139.108 11.0647 138.95 11.718 138.632 12.278C138.315 12.838 137.876 13.2767 137.316 13.594C136.766 13.9113 136.14 14.07 135.44 14.07ZM131.646 16.716V6.65H132.598V8.862L132.5 10.332L132.64 11.816V16.716H131.646ZM135.37 13.188C135.893 13.188 136.36 13.0713 136.77 12.838C137.181 12.5953 137.508 12.2593 137.75 11.83C137.993 11.3913 138.114 10.8873 138.114 10.318C138.114 9.74867 137.993 9.24933 137.75 8.82C137.508 8.39067 137.181 8.05467 136.77 7.812C136.36 7.56933 135.893 7.448 135.37 7.448C134.848 7.448 134.376 7.56933 133.956 7.812C133.546 8.05467 133.219 8.39067 132.976 8.82C132.743 9.24933 132.626 9.74867 132.626 10.318C132.626 10.8873 132.743 11.3913 132.976 11.83C133.219 12.2593 133.546 12.5953 133.956 12.838C134.376 13.0713 134.848 13.188 135.37 13.188ZM144.257 14.07C143.491 14.07 142.819 13.9113 142.241 13.594C141.662 13.2673 141.209 12.824 140.883 12.264C140.556 11.6947 140.393 11.046 140.393 10.318C140.393 9.59 140.547 8.946 140.855 8.386C141.172 7.826 141.601 7.38733 142.143 7.07C142.693 6.74333 143.309 6.58 143.991 6.58C144.681 6.58 145.293 6.73867 145.825 7.056C146.366 7.364 146.791 7.80267 147.099 8.372C147.407 8.932 147.561 9.58067 147.561 10.318C147.561 10.3647 147.556 10.416 147.547 10.472C147.547 10.5187 147.547 10.57 147.547 10.626H141.149V9.884H147.015L146.623 10.178C146.623 9.646 146.506 9.17467 146.273 8.764C146.049 8.344 145.741 8.01733 145.349 7.784C144.957 7.55067 144.504 7.434 143.991 7.434C143.487 7.434 143.034 7.55067 142.633 7.784C142.231 8.01733 141.919 8.344 141.695 8.764C141.471 9.184 141.359 9.66467 141.359 10.206V10.36C141.359 10.92 141.48 11.4147 141.723 11.844C141.975 12.264 142.32 12.5953 142.759 12.838C143.207 13.0713 143.715 13.188 144.285 13.188C144.733 13.188 145.148 13.1087 145.531 12.95C145.923 12.7913 146.259 12.5487 146.539 12.222L147.099 12.866C146.772 13.258 146.361 13.5567 145.867 13.762C145.381 13.9673 144.845 14.07 144.257 14.07ZM149.584 14V6.65H150.536V8.652L150.438 8.302C150.643 7.742 150.988 7.31733 151.474 7.028C151.959 6.72933 152.561 6.58 153.28 6.58V7.546C153.242 7.546 153.205 7.546 153.168 7.546C153.13 7.53667 153.093 7.532 153.056 7.532C152.281 7.532 151.674 7.77 151.236 8.246C150.797 8.71267 150.578 9.38 150.578 10.248V14H149.584ZM154.506 10.64V9.772H158.174V10.64H154.506ZM163.657 14.07C162.892 14.07 162.22 13.9113 161.641 13.594C161.062 13.2673 160.61 12.824 160.283 12.264C159.956 11.6947 159.793 11.046 159.793 10.318C159.793 9.59 159.947 8.946 160.255 8.386C160.572 7.826 161.002 7.38733 161.543 7.07C162.094 6.74333 162.71 6.58 163.391 6.58C164.082 6.58 164.693 6.73867 165.225 7.056C165.766 7.364 166.191 7.80267 166.499 8.372C166.807 8.932 166.961 9.58067 166.961 10.318C166.961 10.3647 166.956 10.416 166.947 10.472C166.947 10.5187 166.947 10.57 166.947 10.626H160.549V9.884H166.415L166.023 10.178C166.023 9.646 165.906 9.17467 165.673 8.764C165.449 8.344 165.141 8.01733 164.749 7.784C164.357 7.55067 163.904 7.434 163.391 7.434C162.887 7.434 162.434 7.55067 162.033 7.784C161.632 8.01733 161.319 8.344 161.095 8.764C160.871 9.184 160.759 9.66467 160.759 10.206V10.36C160.759 10.92 160.88 11.4147 161.123 11.844C161.375 12.264 161.72 12.5953 162.159 12.838C162.607 13.0713 163.116 13.188 163.685 13.188C164.133 13.188 164.548 13.1087 164.931 12.95C165.323 12.7913 165.659 12.5487 165.939 12.222L166.499 12.866C166.172 13.258 165.762 13.5567 165.267 13.762C164.782 13.9673 164.245 14.07 163.657 14.07ZM170.737 14L167.475 6.65H168.511L171.507 13.468H171.017L174.055 6.65H175.035L171.759 14H170.737ZM176.435 14V6.65H177.429V14H176.435ZM176.939 5.026C176.734 5.026 176.561 4.956 176.421 4.816C176.281 4.676 176.211 4.508 176.211 4.312C176.211 4.116 176.281 3.95267 176.421 3.822C176.561 3.682 176.734 3.612 176.939 3.612C177.145 3.612 177.317 3.67733 177.457 3.808C177.597 3.93867 177.667 4.102 177.667 4.298C177.667 4.50333 177.597 4.676 177.457 4.816C177.327 4.956 177.154 5.026 176.939 5.026ZM183.121 14.07C182.421 14.07 181.791 13.9113 181.231 13.594C180.68 13.2767 180.246 12.838 179.929 12.278C179.612 11.7087 179.453 11.0553 179.453 10.318C179.453 9.57133 179.612 8.918 179.929 8.358C180.246 7.798 180.68 7.364 181.231 7.056C181.791 6.73867 182.421 6.58 183.121 6.58C183.765 6.58 184.339 6.72467 184.843 7.014C185.356 7.30333 185.762 7.728 186.061 8.288C186.369 8.83867 186.523 9.51533 186.523 10.318C186.523 11.1113 186.374 11.788 186.075 12.348C185.776 12.908 185.37 13.3373 184.857 13.636C184.353 13.9253 183.774 14.07 183.121 14.07ZM183.191 13.188C183.714 13.188 184.18 13.0713 184.591 12.838C185.011 12.5953 185.338 12.2593 185.571 11.83C185.814 11.3913 185.935 10.8873 185.935 10.318C185.935 9.73933 185.814 9.23533 185.571 8.806C185.338 8.37667 185.011 8.04533 184.591 7.812C184.18 7.56933 183.714 7.448 183.191 7.448C182.678 7.448 182.216 7.56933 181.805 7.812C181.394 8.04533 181.068 8.37667 180.825 8.806C180.582 9.23533 180.461 9.73933 180.461 10.318C180.461 10.8873 180.582 11.3913 180.825 11.83C181.068 12.2593 181.394 12.5953 181.805 12.838C182.216 13.0713 182.678 13.188 183.191 13.188ZM185.963 14V11.788L186.061 10.304L185.921 8.82V3.612H186.915V14H185.963ZM192.805 14.07C192.04 14.07 191.368 13.9113 190.789 13.594C190.211 13.2673 189.758 12.824 189.431 12.264C189.105 11.6947 188.941 11.046 188.941 10.318C188.941 9.59 189.095 8.946 189.403 8.386C189.721 7.826 190.15 7.38733 190.691 7.07C191.242 6.74333 191.858 6.58 192.539 6.58C193.23 6.58 193.841 6.73867 194.373 7.056C194.915 7.364 195.339 7.80267 195.647 8.372C195.955 8.932 196.109 9.58067 196.109 10.318C196.109 10.3647 196.105 10.416 196.095 10.472C196.095 10.5187 196.095 10.57 196.095 10.626H189.697V9.884H195.563L195.171 10.178C195.171 9.646 195.055 9.17467 194.821 8.764C194.597 8.344 194.289 8.01733 193.897 7.784C193.505 7.55067 193.053 7.434 192.539 7.434C192.035 7.434 191.583 7.55067 191.181 7.784C190.78 8.01733 190.467 8.344 190.243 8.764C190.019 9.184 189.907 9.66467 189.907 10.206V10.36C189.907 10.92 190.029 11.4147 190.271 11.844C190.523 12.264 190.869 12.5953 191.307 12.838C191.755 13.0713 192.264 13.188 192.833 13.188C193.281 13.188 193.697 13.1087 194.079 12.95C194.471 12.7913 194.807 12.5487 195.087 12.222L195.647 12.866C195.321 13.258 194.91 13.5567 194.415 13.762C193.93 13.9673 193.393 14.07 192.805 14.07ZM201.885 6.58C202.482 6.58 203.005 6.69667 203.453 6.93C203.91 7.154 204.265 7.49933 204.517 7.966C204.778 8.43267 204.909 9.02067 204.909 9.73V14H203.915V9.828C203.915 9.05333 203.719 8.47 203.327 8.078C202.944 7.67667 202.403 7.476 201.703 7.476C201.18 7.476 200.723 7.58333 200.331 7.798C199.948 8.00333 199.649 8.30667 199.435 8.708C199.229 9.1 199.127 9.576 199.127 10.136V14H198.133V6.65H199.085V8.666L198.931 8.288C199.164 7.756 199.537 7.34067 200.051 7.042C200.564 6.734 201.175 6.58 201.885 6.58ZM209.918 14.07C209.227 14.07 208.695 13.8833 208.322 13.51C207.948 13.1367 207.762 12.6093 207.762 11.928V5.026H208.756V11.872C208.756 12.3013 208.863 12.6327 209.078 12.866C209.302 13.0993 209.619 13.216 210.03 13.216C210.468 13.216 210.832 13.09 211.122 12.838L211.472 13.552C211.276 13.7293 211.038 13.86 210.758 13.944C210.487 14.028 210.207 14.07 209.918 14.07ZM206.446 7.476V6.65H210.996V7.476H206.446ZM220.739 14.07C220.095 14.07 219.516 13.9253 219.003 13.636C218.49 13.3373 218.084 12.908 217.785 12.348C217.486 11.788 217.337 11.1113 217.337 10.318C217.337 9.51533 217.486 8.83867 217.785 8.288C218.093 7.728 218.504 7.30333 219.017 7.014C219.53 6.72467 220.104 6.58 220.739 6.58C221.439 6.58 222.064 6.73867 222.615 7.056C223.175 7.364 223.614 7.798 223.931 8.358C224.248 8.918 224.407 9.57133 224.407 10.318C224.407 11.0553 224.248 11.7087 223.931 12.278C223.614 12.838 223.175 13.2767 222.615 13.594C222.064 13.9113 221.439 14.07 220.739 14.07ZM216.945 14V3.612H217.939V8.82L217.799 10.304L217.897 11.788V14H216.945ZM220.669 13.188C221.192 13.188 221.658 13.0713 222.069 12.838C222.48 12.5953 222.806 12.2593 223.049 11.83C223.292 11.3913 223.413 10.8873 223.413 10.318C223.413 9.73933 223.292 9.23533 223.049 8.806C222.806 8.37667 222.48 8.04533 222.069 7.812C221.658 7.56933 221.192 7.448 220.669 7.448C220.146 7.448 219.675 7.56933 219.255 7.812C218.844 8.04533 218.518 8.37667 218.275 8.806C218.042 9.23533 217.925 9.73933 217.925 10.318C217.925 10.8873 218.042 11.3913 218.275 11.83C218.518 12.2593 218.844 12.5953 219.255 12.838C219.675 13.0713 220.146 13.188 220.669 13.188ZM229.429 14.07C228.72 14.07 228.081 13.9113 227.511 13.594C226.951 13.2673 226.508 12.824 226.181 12.264C225.855 11.6947 225.691 11.046 225.691 10.318C225.691 9.58067 225.855 8.932 226.181 8.372C226.508 7.812 226.951 7.37333 227.511 7.056C228.071 6.73867 228.711 6.58 229.429 6.58C230.157 6.58 230.801 6.73867 231.361 7.056C231.931 7.37333 232.374 7.812 232.691 8.372C233.018 8.932 233.181 9.58067 233.181 10.318C233.181 11.046 233.018 11.6947 232.691 12.264C232.374 12.824 231.931 13.2673 231.361 13.594C230.792 13.9113 230.148 14.07 229.429 14.07ZM229.429 13.188C229.961 13.188 230.433 13.0713 230.843 12.838C231.254 12.5953 231.576 12.2593 231.809 11.83C232.052 11.3913 232.173 10.8873 232.173 10.318C232.173 9.73933 232.052 9.23533 231.809 8.806C231.576 8.37667 231.254 8.04533 230.843 7.812C230.433 7.56933 229.966 7.448 229.443 7.448C228.921 7.448 228.454 7.56933 228.043 7.812C227.633 8.04533 227.306 8.37667 227.063 8.806C226.821 9.23533 226.699 9.73933 226.699 10.318C226.699 10.8873 226.821 11.3913 227.063 11.83C227.306 12.2593 227.633 12.5953 228.043 12.838C228.454 13.0713 228.916 13.188 229.429 13.188ZM233.831 14L236.939 9.968L236.925 10.458L233.971 6.65H235.091L237.513 9.8L237.093 9.786L239.515 6.65H240.607L237.625 10.5L237.639 9.968L240.775 14H239.641L237.079 10.64L237.471 10.696L234.951 14H233.831ZM249.02 14.07C248.32 14.07 247.69 13.9113 247.13 13.594C246.579 13.2767 246.145 12.838 245.828 12.278C245.51 11.7087 245.352 11.0553 245.352 10.318C245.352 9.57133 245.51 8.918 245.828 8.358C246.145 7.798 246.579 7.364 247.13 7.056C247.69 6.73867 248.32 6.58 249.02 6.58C249.664 6.58 250.238 6.72467 250.742 7.014C251.255 7.30333 251.661 7.728 251.96 8.288C252.268 8.83867 252.422 9.51533 252.422 10.318C252.422 11.1113 252.272 11.788 251.974 12.348C251.675 12.908 251.269 13.3373 250.756 13.636C250.252 13.9253 249.673 14.07 249.02 14.07ZM249.09 13.188C249.612 13.188 250.079 13.0713 250.49 12.838C250.91 12.5953 251.236 12.2593 251.47 11.83C251.712 11.3913 251.834 10.8873 251.834 10.318C251.834 9.73933 251.712 9.23533 251.47 8.806C251.236 8.37667 250.91 8.04533 250.49 7.812C250.079 7.56933 249.612 7.448 249.09 7.448C248.576 7.448 248.114 7.56933 247.704 7.812C247.293 8.04533 246.966 8.37667 246.724 8.806C246.481 9.23533 246.36 9.73933 246.36 10.318C246.36 10.8873 246.481 11.3913 246.724 11.83C246.966 12.2593 247.293 12.5953 247.704 12.838C248.114 13.0713 248.576 13.188 249.09 13.188ZM251.862 14V11.788L251.96 10.304L251.82 8.82V3.612H252.814V14H251.862ZM258.704 14.07C257.938 14.07 257.266 13.9113 256.688 13.594C256.109 13.2673 255.656 12.824 255.33 12.264C255.003 11.6947 254.84 11.046 254.84 10.318C254.84 9.59 254.994 8.946 255.302 8.386C255.619 7.826 256.048 7.38733 256.59 7.07C257.14 6.74333 257.756 6.58 258.438 6.58C259.128 6.58 259.74 6.73867 260.272 7.056C260.813 7.364 261.238 7.80267 261.546 8.372C261.854 8.932 262.008 9.58067 262.008 10.318C262.008 10.3647 262.003 10.416 261.994 10.472C261.994 10.5187 261.994 10.57 261.994 10.626H255.596V9.884H261.462L261.07 10.178C261.07 9.646 260.953 9.17467 260.72 8.764C260.496 8.344 260.188 8.01733 259.796 7.784C259.404 7.55067 258.951 7.434 258.438 7.434C257.934 7.434 257.481 7.55067 257.08 7.784C256.678 8.01733 256.366 8.344 256.142 8.764C255.918 9.184 255.806 9.66467 255.806 10.206V10.36C255.806 10.92 255.927 11.4147 256.17 11.844C256.422 12.264 256.767 12.5953 257.206 12.838C257.654 13.0713 258.162 13.188 258.732 13.188C259.18 13.188 259.595 13.1087 259.978 12.95C260.37 12.7913 260.706 12.5487 260.986 12.222L261.546 12.866C261.219 13.258 260.808 13.5567 260.314 13.762C259.828 13.9673 259.292 14.07 258.704 14.07ZM266.005 14.07C265.398 14.07 264.824 13.986 264.283 13.818C263.742 13.6407 263.317 13.4213 263.009 13.16L263.457 12.376C263.756 12.6 264.138 12.796 264.605 12.964C265.072 13.1227 265.562 13.202 266.075 13.202C266.775 13.202 267.279 13.0947 267.587 12.88C267.895 12.656 268.049 12.362 268.049 11.998C268.049 11.7273 267.96 11.5173 267.783 11.368C267.615 11.2093 267.391 11.0927 267.111 11.018C266.831 10.934 266.518 10.864 266.173 10.808C265.828 10.752 265.482 10.6867 265.137 10.612C264.801 10.5373 264.493 10.43 264.213 10.29C263.933 10.1407 263.704 9.94 263.527 9.688C263.359 9.436 263.275 9.1 263.275 8.68C263.275 8.27867 263.387 7.91933 263.611 7.602C263.835 7.28467 264.162 7.03733 264.591 6.86C265.03 6.67333 265.562 6.58 266.187 6.58C266.663 6.58 267.139 6.64533 267.615 6.776C268.091 6.89733 268.483 7.06067 268.791 7.266L268.357 8.064C268.03 7.84 267.68 7.68133 267.307 7.588C266.934 7.48533 266.56 7.434 266.187 7.434C265.524 7.434 265.034 7.55067 264.717 7.784C264.409 8.008 264.255 8.29733 264.255 8.652C264.255 8.932 264.339 9.15133 264.507 9.31C264.684 9.46867 264.913 9.59467 265.193 9.688C265.482 9.772 265.795 9.842 266.131 9.898C266.476 9.954 266.817 10.024 267.153 10.108C267.498 10.1827 267.811 10.29 268.091 10.43C268.38 10.5607 268.609 10.752 268.777 11.004C268.954 11.2467 269.043 11.5687 269.043 11.97C269.043 12.3993 268.922 12.7727 268.679 13.09C268.446 13.398 268.1 13.6407 267.643 13.818C267.195 13.986 266.649 14.07 266.005 14.07ZM270.867 14V6.65H271.861V14H270.867ZM271.371 5.026C271.166 5.026 270.993 4.956 270.853 4.816C270.713 4.676 270.643 4.508 270.643 4.312C270.643 4.116 270.713 3.95267 270.853 3.822C270.993 3.682 271.166 3.612 271.371 3.612C271.576 3.612 271.749 3.67733 271.889 3.808C272.029 3.93867 272.099 4.102 272.099 4.298C272.099 4.50333 272.029 4.676 271.889 4.816C271.758 4.956 271.586 5.026 271.371 5.026ZM277.763 16.786C277.091 16.786 276.447 16.688 275.831 16.492C275.215 16.296 274.715 16.016 274.333 15.652L274.837 14.896C275.182 15.204 275.607 15.4467 276.111 15.624C276.624 15.8107 277.165 15.904 277.735 15.904C278.668 15.904 279.354 15.6847 279.793 15.246C280.231 14.8167 280.451 14.1447 280.451 13.23V11.396L280.591 10.136L280.493 8.876V6.65H281.445V13.104C281.445 14.3733 281.132 15.302 280.507 15.89C279.891 16.4873 278.976 16.786 277.763 16.786ZM277.581 13.72C276.881 13.72 276.251 13.5707 275.691 13.272C275.131 12.964 274.687 12.5393 274.361 11.998C274.043 11.4567 273.885 10.836 273.885 10.136C273.885 9.436 274.043 8.82 274.361 8.288C274.687 7.74667 275.131 7.32667 275.691 7.028C276.251 6.72933 276.881 6.58 277.581 6.58C278.234 6.58 278.822 6.71533 279.345 6.986C279.867 7.25667 280.283 7.658 280.591 8.19C280.899 8.722 281.053 9.37067 281.053 10.136C281.053 10.9013 280.899 11.55 280.591 12.082C280.283 12.614 279.867 13.02 279.345 13.3C278.822 13.58 278.234 13.72 277.581 13.72ZM277.679 12.838C278.22 12.838 278.701 12.726 279.121 12.502C279.541 12.2687 279.872 11.9513 280.115 11.55C280.357 11.1393 280.479 10.668 280.479 10.136C280.479 9.604 280.357 9.13733 280.115 8.736C279.872 8.33467 279.541 8.022 279.121 7.798C278.701 7.56467 278.22 7.448 277.679 7.448C277.147 7.448 276.666 7.56467 276.237 7.798C275.817 8.022 275.485 8.33467 275.243 8.736C275.009 9.13733 274.893 9.604 274.893 10.136C274.893 10.668 275.009 11.1393 275.243 11.55C275.485 11.9513 275.817 12.2687 276.237 12.502C276.666 12.726 277.147 12.838 277.679 12.838ZM287.963 6.58C288.56 6.58 289.083 6.69667 289.531 6.93C289.988 7.154 290.343 7.49933 290.595 7.966C290.856 8.43267 290.987 9.02067 290.987 9.73V14H289.993V9.828C289.993 9.05333 289.797 8.47 289.405 8.078C289.022 7.67667 288.481 7.476 287.781 7.476C287.258 7.476 286.801 7.58333 286.409 7.798C286.026 8.00333 285.727 8.30667 285.513 8.708C285.307 9.1 285.205 9.576 285.205 10.136V14H284.211V6.65H285.163V8.666L285.009 8.288C285.242 7.756 285.615 7.34067 286.129 7.042C286.642 6.734 287.253 6.58 287.963 6.58ZM296.794 14.07C296.028 14.07 295.356 13.9113 294.778 13.594C294.199 13.2673 293.746 12.824 293.42 12.264C293.093 11.6947 292.93 11.046 292.93 10.318C292.93 9.59 293.084 8.946 293.392 8.386C293.709 7.826 294.138 7.38733 294.68 7.07C295.23 6.74333 295.846 6.58 296.528 6.58C297.218 6.58 297.83 6.73867 298.362 7.056C298.903 7.364 299.328 7.80267 299.636 8.372C299.944 8.932 300.098 9.58067 300.098 10.318C300.098 10.3647 300.093 10.416 300.084 10.472C300.084 10.5187 300.084 10.57 300.084 10.626H293.686V9.884H299.552L299.16 10.178C299.16 9.646 299.043 9.17467 298.81 8.764C298.586 8.344 298.278 8.01733 297.886 7.784C297.494 7.55067 297.041 7.434 296.528 7.434C296.024 7.434 295.571 7.55067 295.17 7.784C294.768 8.01733 294.456 8.344 294.232 8.764C294.008 9.184 293.896 9.66467 293.896 10.206V10.36C293.896 10.92 294.017 11.4147 294.26 11.844C294.512 12.264 294.857 12.5953 295.296 12.838C295.744 13.0713 296.252 13.188 296.822 13.188C297.27 13.188 297.685 13.1087 298.068 12.95C298.46 12.7913 298.796 12.5487 299.076 12.222L299.636 12.866C299.309 13.258 298.898 13.5567 298.404 13.762C297.918 13.9673 297.382 14.07 296.794 14.07ZM305.047 14.07C304.347 14.07 303.717 13.9113 303.157 13.594C302.606 13.2767 302.172 12.838 301.855 12.278C301.538 11.7087 301.379 11.0553 301.379 10.318C301.379 9.57133 301.538 8.918 301.855 8.358C302.172 7.798 302.606 7.364 303.157 7.056C303.717 6.73867 304.347 6.58 305.047 6.58C305.691 6.58 306.265 6.72467 306.769 7.014C307.282 7.30333 307.688 7.728 307.987 8.288C308.295 8.83867 308.449 9.51533 308.449 10.318C308.449 11.1113 308.3 11.788 308.001 12.348C307.702 12.908 307.296 13.3373 306.783 13.636C306.279 13.9253 305.7 14.07 305.047 14.07ZM305.117 13.188C305.64 13.188 306.106 13.0713 306.517 12.838C306.937 12.5953 307.264 12.2593 307.497 11.83C307.74 11.3913 307.861 10.8873 307.861 10.318C307.861 9.73933 307.74 9.23533 307.497 8.806C307.264 8.37667 306.937 8.04533 306.517 7.812C306.106 7.56933 305.64 7.448 305.117 7.448C304.604 7.448 304.142 7.56933 303.731 7.812C303.32 8.04533 302.994 8.37667 302.751 8.806C302.508 9.23533 302.387 9.73933 302.387 10.318C302.387 10.8873 302.508 11.3913 302.751 11.83C302.994 12.2593 303.32 12.5953 303.731 12.838C304.142 13.0713 304.604 13.188 305.117 13.188ZM307.889 14V11.788L307.987 10.304L307.847 8.82V3.612H308.841V14H307.889ZM7.70096 33V24.726C7.70096 24.0727 7.89229 23.5453 8.27496 23.144C8.65762 22.7427 9.20829 22.542 9.92696 22.542C10.207 22.542 10.4776 22.5793 10.739 22.654C11.0003 22.7287 11.2196 22.8453 11.397 23.004L11.061 23.746C10.921 23.6247 10.7576 23.536 10.571 23.48C10.3843 23.4147 10.1836 23.382 9.96896 23.382C9.54896 23.382 9.22696 23.4987 9.00296 23.732C8.77896 23.9653 8.66696 24.3107 8.66696 24.768V25.888L8.69496 26.35V33H7.70096ZM6.38496 26.476V25.65H10.935V26.476H6.38496ZM15.1501 33.07C14.4407 33.07 13.8014 32.9113 13.2321 32.594C12.6721 32.2673 12.2287 31.824 11.9021 31.264C11.5754 30.6947 11.4121 30.046 11.4121 29.318C11.4121 28.5807 11.5754 27.932 11.9021 27.372C12.2287 26.812 12.6721 26.3733 13.2321 26.056C13.7921 25.7387 14.4314 25.58 15.1501 25.58C15.8781 25.58 16.5221 25.7387 17.0821 26.056C17.6514 26.3733 18.0947 26.812 18.4121 27.372C18.7387 27.932 18.9021 28.5807 18.9021 29.318C18.9021 30.046 18.7387 30.6947 18.4121 31.264C18.0947 31.824 17.6514 32.2673 17.0821 32.594C16.5127 32.9113 15.8687 33.07 15.1501 33.07ZM15.1501 32.188C15.6821 32.188 16.1534 32.0713 16.5641 31.838C16.9747 31.5953 17.2967 31.2593 17.5301 30.83C17.7727 30.3913 17.8941 29.8873 17.8941 29.318C17.8941 28.7393 17.7727 28.2353 17.5301 27.806C17.2967 27.3767 16.9747 27.0453 16.5641 26.812C16.1534 26.5693 15.6867 26.448 15.1641 26.448C14.6414 26.448 14.1747 26.5693 13.7641 26.812C13.3534 27.0453 13.0267 27.3767 12.7841 27.806C12.5414 28.2353 12.4201 28.7393 12.4201 29.318C12.4201 29.8873 12.5414 30.3913 12.7841 30.83C13.0267 31.2593 13.3534 31.5953 13.7641 31.838C14.1747 32.0713 14.6367 32.188 15.1501 32.188ZM20.9314 33V25.65H21.8834V27.652L21.7854 27.302C21.9907 26.742 22.3361 26.3173 22.8214 26.028C23.3067 25.7293 23.9087 25.58 24.6274 25.58V26.546C24.5901 26.546 24.5527 26.546 24.5154 26.546C24.4781 26.5367 24.4407 26.532 24.4034 26.532C23.6287 26.532 23.0221 26.77 22.5834 27.246C22.1447 27.7127 21.9254 28.38 21.9254 29.248V33H20.9314ZM34.1323 33.084C33.4976 33.084 32.9236 32.944 32.4103 32.664C31.9063 32.3747 31.505 31.95 31.2063 31.39C30.917 30.83 30.7723 30.13 30.7723 29.29C30.7723 28.45 30.9216 27.75 31.2203 27.19C31.5283 26.63 31.9343 26.21 32.4383 25.93C32.9516 25.65 33.5163 25.51 34.1323 25.51C34.8603 25.51 35.5043 25.6687 36.0643 25.986C36.6243 26.3033 37.0676 26.7467 37.3943 27.316C37.721 27.876 37.8843 28.534 37.8843 29.29C37.8843 30.046 37.721 30.7087 37.3943 31.278C37.0676 31.8473 36.6243 32.2907 36.0643 32.608C35.5043 32.9253 34.8603 33.084 34.1323 33.084ZM30.1983 33V22.612H31.5423V27.554L31.4023 29.276L31.4863 30.998V33H30.1983ZM34.0203 31.908C34.4963 31.908 34.921 31.8007 35.2943 31.586C35.677 31.3713 35.9756 31.068 36.1903 30.676C36.4143 30.2747 36.5263 29.8127 36.5263 29.29C36.5263 28.758 36.4143 28.3007 36.1903 27.918C35.9756 27.526 35.677 27.2227 35.2943 27.008C34.921 26.7933 34.4963 26.686 34.0203 26.686C33.5536 26.686 33.129 26.7933 32.7463 27.008C32.373 27.2227 32.0743 27.526 31.8503 27.918C31.6356 28.3007 31.5283 28.758 31.5283 29.29C31.5283 29.8127 31.6356 30.2747 31.8503 30.676C32.0743 31.068 32.373 31.3713 32.7463 31.586C33.129 31.8007 33.5536 31.908 34.0203 31.908ZM42.8633 33.084C42.2286 33.084 41.6686 32.9673 41.1833 32.734C40.7073 32.5007 40.3339 32.146 40.0633 31.67C39.8019 31.1847 39.6713 30.578 39.6713 29.85V25.58H41.0153V29.696C41.0153 30.424 41.1879 30.97 41.5333 31.334C41.8879 31.698 42.3826 31.88 43.0173 31.88C43.4839 31.88 43.8899 31.7867 44.2353 31.6C44.5806 31.404 44.8466 31.124 45.0333 30.76C45.2199 30.3867 45.3133 29.9387 45.3133 29.416V25.58H46.6573V33H45.3833V30.998L45.5933 31.53C45.3506 32.0247 44.9866 32.4073 44.5013 32.678C44.0159 32.9487 43.4699 33.084 42.8633 33.084ZM49.2159 33V22.612H50.5599V33H49.2159ZM54.218 31.208L54.246 29.486L58.516 25.58H60.14L56.864 28.8L56.136 29.416L54.218 31.208ZM53.126 33V22.612H54.47V33H53.126ZM58.796 33L55.884 29.388L56.752 28.31L60.448 33H58.796ZM67.6408 33.084C67.0248 33.084 66.4368 33 65.8768 32.832C65.3261 32.664 64.8921 32.4587 64.5748 32.216L65.1348 31.152C65.4521 31.3667 65.8441 31.5487 66.3108 31.698C66.7774 31.8473 67.2534 31.922 67.7388 31.922C68.3641 31.922 68.8121 31.8333 69.0828 31.656C69.3628 31.4787 69.5028 31.2313 69.5028 30.914C69.5028 30.6807 69.4188 30.4987 69.2508 30.368C69.0828 30.2373 68.8588 30.1393 68.5788 30.074C68.3081 30.0087 68.0048 29.9527 67.6688 29.906C67.3328 29.85 66.9968 29.7847 66.6608 29.71C66.3248 29.626 66.0168 29.514 65.7368 29.374C65.4568 29.2247 65.2328 29.024 65.0648 28.772C64.8968 28.5107 64.8128 28.1653 64.8128 27.736C64.8128 27.288 64.9388 26.896 65.1908 26.56C65.4428 26.224 65.7974 25.9673 66.2548 25.79C66.7214 25.6033 67.2721 25.51 67.9068 25.51C68.3921 25.51 68.8821 25.5707 69.3768 25.692C69.8808 25.804 70.2914 25.9673 70.6088 26.182L70.0348 27.246C69.6988 27.022 69.3488 26.868 68.9848 26.784C68.6208 26.7 68.2568 26.658 67.8928 26.658C67.3048 26.658 66.8661 26.756 66.5768 26.952C66.2874 27.1387 66.1428 27.3813 66.1428 27.68C66.1428 27.932 66.2268 28.128 66.3948 28.268C66.5721 28.3987 66.7961 28.5013 67.0668 28.576C67.3468 28.6507 67.6548 28.716 67.9908 28.772C68.3268 28.8187 68.6628 28.884 68.9988 28.968C69.3348 29.0427 69.6381 29.15 69.9088 29.29C70.1888 29.43 70.4128 29.626 70.5808 29.878C70.7581 30.13 70.8468 30.466 70.8468 30.886C70.8468 31.334 70.7161 31.7213 70.4548 32.048C70.1934 32.3747 69.8248 32.6313 69.3488 32.818C68.8728 32.9953 68.3034 33.084 67.6408 33.084ZM75.0744 33.084C74.3278 33.084 73.7491 32.8833 73.3384 32.482C72.9278 32.0807 72.7224 31.5067 72.7224 30.76V23.956H74.0664V30.704C74.0664 31.1053 74.1644 31.4133 74.3604 31.628C74.5658 31.8427 74.8551 31.95 75.2284 31.95C75.6484 31.95 75.9984 31.8333 76.2784 31.6L76.6984 32.566C76.4931 32.7433 76.2458 32.874 75.9564 32.958C75.6764 33.042 75.3824 33.084 75.0744 33.084ZM71.4624 26.686V25.58H76.1944V26.686H71.4624ZM81.2552 33.084C80.5085 33.084 79.8459 32.9207 79.2672 32.594C78.6885 32.2673 78.2312 31.8193 77.8952 31.25C77.5592 30.6713 77.3912 30.018 77.3912 29.29C77.3912 28.5527 77.5592 27.8993 77.8952 27.33C78.2312 26.7607 78.6885 26.3173 79.2672 26C79.8459 25.6733 80.5085 25.51 81.2552 25.51C81.9925 25.51 82.6505 25.6733 83.2292 26C83.8172 26.3173 84.2745 26.7607 84.6012 27.33C84.9372 27.89 85.1052 28.5433 85.1052 29.29C85.1052 30.0273 84.9372 30.6807 84.6012 31.25C84.2745 31.8193 83.8172 32.2673 83.2292 32.594C82.6505 32.9207 81.9925 33.084 81.2552 33.084ZM81.2552 31.908C81.7312 31.908 82.1559 31.8007 82.5292 31.586C82.9119 31.3713 83.2105 31.068 83.4252 30.676C83.6399 30.2747 83.7472 29.8127 83.7472 29.29C83.7472 28.758 83.6399 28.3007 83.4252 27.918C83.2105 27.526 82.9119 27.2227 82.5292 27.008C82.1559 26.7933 81.7312 26.686 81.2552 26.686C80.7792 26.686 80.3545 26.7933 79.9812 27.008C79.6079 27.2227 79.3092 27.526 79.0852 27.918C78.8612 28.3007 78.7492 28.758 78.7492 29.29C78.7492 29.8127 78.8612 30.2747 79.0852 30.676C79.3092 31.068 79.6079 31.3713 79.9812 31.586C80.3545 31.8007 80.7792 31.908 81.2552 31.908ZM86.9639 33V25.58H88.2519V27.596L88.1259 27.092C88.3313 26.5787 88.6766 26.1867 89.1619 25.916C89.6473 25.6453 90.2446 25.51 90.9539 25.51V26.812C90.8979 26.8027 90.8419 26.798 90.7859 26.798C90.7393 26.798 90.6926 26.798 90.6459 26.798C89.9273 26.798 89.3579 27.0127 88.9379 27.442C88.5179 27.8713 88.3079 28.492 88.3079 29.304V33H86.9639ZM96.6695 33V31.432L96.5995 31.138V28.464C96.5995 27.8947 96.4315 27.456 96.0955 27.148C95.7689 26.8307 95.2742 26.672 94.6115 26.672C94.1729 26.672 93.7435 26.7467 93.3235 26.896C92.9035 27.036 92.5489 27.2273 92.2595 27.47L91.6995 26.462C92.0822 26.154 92.5395 25.9207 93.0715 25.762C93.6129 25.594 94.1775 25.51 94.7655 25.51C95.7829 25.51 96.5669 25.7573 97.1175 26.252C97.6682 26.7467 97.9435 27.5027 97.9435 28.52V33H96.6695ZM94.2335 33.084C93.6829 33.084 93.1975 32.9907 92.7775 32.804C92.3669 32.6173 92.0495 32.3607 91.8255 32.034C91.6015 31.698 91.4895 31.32 91.4895 30.9C91.4895 30.4987 91.5829 30.1347 91.7695 29.808C91.9655 29.4813 92.2782 29.22 92.7075 29.024C93.1462 28.828 93.7342 28.73 94.4715 28.73H96.8235V29.696H94.5275C93.8555 29.696 93.4029 29.808 93.1695 30.032C92.9362 30.256 92.8195 30.5267 92.8195 30.844C92.8195 31.208 92.9642 31.502 93.2535 31.726C93.5429 31.9407 93.9442 32.048 94.4575 32.048C94.9615 32.048 95.4002 31.936 95.7735 31.712C96.1562 31.488 96.4315 31.1613 96.5995 30.732L96.8655 31.656C96.6882 32.0947 96.3755 32.4447 95.9275 32.706C95.4795 32.958 94.9149 33.084 94.2335 33.084ZM103.679 35.8C102.997 35.8 102.335 35.702 101.691 35.506C101.056 35.3193 100.538 35.0487 100.137 34.694L100.781 33.658C101.126 33.9567 101.551 34.19 102.055 34.358C102.559 34.5353 103.086 34.624 103.637 34.624C104.514 34.624 105.158 34.4187 105.569 34.008C105.979 33.5973 106.185 32.972 106.185 32.132V30.564L106.325 29.094L106.255 27.61V25.58H107.529V31.992C107.529 33.2987 107.202 34.26 106.549 34.876C105.895 35.492 104.939 35.8 103.679 35.8ZM103.511 32.692C102.792 32.692 102.148 32.5427 101.579 32.244C101.019 31.936 100.571 31.5113 100.235 30.97C99.9081 30.4287 99.7447 29.8033 99.7447 29.094C99.7447 28.3753 99.9081 27.75 100.235 27.218C100.571 26.6767 101.019 26.2567 101.579 25.958C102.148 25.6593 102.792 25.51 103.511 25.51C104.145 25.51 104.724 25.6407 105.247 25.902C105.769 26.154 106.185 26.546 106.493 27.078C106.81 27.61 106.969 28.282 106.969 29.094C106.969 29.8967 106.81 30.564 106.493 31.096C106.185 31.628 105.769 32.0293 105.247 32.3C104.724 32.5613 104.145 32.692 103.511 32.692ZM103.665 31.516C104.159 31.516 104.598 31.4133 104.981 31.208C105.363 31.0027 105.662 30.718 105.877 30.354C106.101 29.99 106.213 29.57 106.213 29.094C106.213 28.618 106.101 28.198 105.877 27.834C105.662 27.47 105.363 27.19 104.981 26.994C104.598 26.7887 104.159 26.686 103.665 26.686C103.17 26.686 102.727 26.7887 102.335 26.994C101.952 27.19 101.649 27.47 101.425 27.834C101.21 28.198 101.103 28.618 101.103 29.094C101.103 29.57 101.21 29.99 101.425 30.354C101.649 30.718 101.952 31.0027 102.335 31.208C102.727 31.4133 103.17 31.516 103.665 31.516ZM113.401 33.084C112.607 33.084 111.907 32.9207 111.301 32.594C110.703 32.2673 110.237 31.8193 109.901 31.25C109.574 30.6807 109.411 30.0273 109.411 29.29C109.411 28.5527 109.569 27.8993 109.887 27.33C110.213 26.7607 110.657 26.3173 111.217 26C111.786 25.6733 112.425 25.51 113.135 25.51C113.853 25.51 114.488 25.6687 115.039 25.986C115.589 26.3033 116.019 26.7513 116.327 27.33C116.644 27.8993 116.803 28.5667 116.803 29.332C116.803 29.388 116.798 29.4533 116.789 29.528C116.789 29.6027 116.784 29.6727 116.775 29.738H110.461V28.772H116.075L115.529 29.108C115.538 28.632 115.44 28.2073 115.235 27.834C115.029 27.4607 114.745 27.1713 114.381 26.966C114.026 26.7513 113.611 26.644 113.135 26.644C112.668 26.644 112.253 26.7513 111.889 26.966C111.525 27.1713 111.24 27.4653 111.035 27.848C110.829 28.2213 110.727 28.6507 110.727 29.136V29.36C110.727 29.8547 110.839 30.298 111.063 30.69C111.296 31.0727 111.618 31.3713 112.029 31.586C112.439 31.8007 112.911 31.908 113.443 31.908C113.881 31.908 114.278 31.8333 114.633 31.684C114.997 31.5347 115.314 31.3107 115.585 31.012L116.327 31.88C115.991 32.272 115.571 32.5707 115.067 32.776C114.572 32.9813 114.017 33.084 113.401 33.084ZM123.997 33L121.239 25.58H122.513L124.963 32.3H124.361L126.909 25.58H128.043L130.535 32.3H129.947L132.453 25.58H133.657L130.885 33H129.597L127.259 26.868H127.651L125.285 33H123.997ZM135.021 33V25.58H136.365V33H135.021ZM135.693 24.152C135.431 24.152 135.212 24.068 135.035 23.9C134.867 23.732 134.783 23.5267 134.783 23.284C134.783 23.032 134.867 22.822 135.035 22.654C135.212 22.486 135.431 22.402 135.693 22.402C135.954 22.402 136.169 22.486 136.337 22.654C136.514 22.8127 136.603 23.0133 136.603 23.256C136.603 23.508 136.519 23.7227 136.351 23.9C136.183 24.068 135.963 24.152 135.693 24.152ZM141.479 33.084C140.732 33.084 140.153 32.8833 139.743 32.482C139.332 32.0807 139.127 31.5067 139.127 30.76V23.956H140.471V30.704C140.471 31.1053 140.569 31.4133 140.765 31.628C140.97 31.8427 141.259 31.95 141.633 31.95C142.053 31.95 142.403 31.8333 142.683 31.6L143.103 32.566C142.897 32.7433 142.65 32.874 142.361 32.958C142.081 33.042 141.787 33.084 141.479 33.084ZM137.867 26.686V25.58H142.599V26.686H137.867ZM148.69 25.51C149.296 25.51 149.828 25.6267 150.286 25.86C150.752 26.0933 151.116 26.448 151.378 26.924C151.639 27.4 151.77 28.002 151.77 28.73V33H150.426V28.884C150.426 28.1653 150.248 27.624 149.894 27.26C149.548 26.896 149.058 26.714 148.424 26.714C147.948 26.714 147.532 26.8073 147.178 26.994C146.823 27.1807 146.548 27.456 146.352 27.82C146.165 28.184 146.072 28.6367 146.072 29.178V33H144.728V22.612H146.072V27.582L145.806 27.05C146.048 26.5647 146.422 26.1867 146.926 25.916C147.43 25.6453 148.018 25.51 148.69 25.51ZM167.299 25.51C167.896 25.51 168.423 25.6267 168.881 25.86C169.338 26.0933 169.693 26.448 169.945 26.924C170.206 27.4 170.337 28.002 170.337 28.73V33H168.993V28.884C168.993 28.1653 168.825 27.624 168.489 27.26C168.153 26.896 167.681 26.714 167.075 26.714C166.627 26.714 166.235 26.8073 165.899 26.994C165.563 27.1807 165.301 27.456 165.115 27.82C164.937 28.184 164.849 28.6367 164.849 29.178V33H163.505V28.884C163.505 28.1653 163.337 27.624 163.001 27.26C162.674 26.896 162.203 26.714 161.587 26.714C161.148 26.714 160.761 26.8073 160.425 26.994C160.089 27.1807 159.827 27.456 159.641 27.82C159.454 28.184 159.361 28.6367 159.361 29.178V33H158.017V25.58H159.305V27.554L159.095 27.05C159.328 26.5647 159.687 26.1867 160.173 25.916C160.658 25.6453 161.223 25.51 161.867 25.51C162.576 25.51 163.187 25.6873 163.701 26.042C164.214 26.3873 164.55 26.9147 164.709 27.624L164.163 27.4C164.387 26.8307 164.779 26.3733 165.339 26.028C165.899 25.6827 166.552 25.51 167.299 25.51ZM177.416 33V31.432L177.346 31.138V28.464C177.346 27.8947 177.178 27.456 176.842 27.148C176.515 26.8307 176.02 26.672 175.358 26.672C174.919 26.672 174.49 26.7467 174.07 26.896C173.65 27.036 173.295 27.2273 173.006 27.47L172.446 26.462C172.828 26.154 173.286 25.9207 173.818 25.762C174.359 25.594 174.924 25.51 175.512 25.51C176.529 25.51 177.313 25.7573 177.864 26.252C178.414 26.7467 178.69 27.5027 178.69 28.52V33H177.416ZM174.98 33.084C174.429 33.084 173.944 32.9907 173.524 32.804C173.113 32.6173 172.796 32.3607 172.572 32.034C172.348 31.698 172.236 31.32 172.236 30.9C172.236 30.4987 172.329 30.1347 172.516 29.808C172.712 29.4813 173.024 29.22 173.454 29.024C173.892 28.828 174.48 28.73 175.218 28.73H177.57V29.696H175.274C174.602 29.696 174.149 29.808 173.916 30.032C173.682 30.256 173.566 30.5267 173.566 30.844C173.566 31.208 173.71 31.502 174 31.726C174.289 31.9407 174.69 32.048 175.204 32.048C175.708 32.048 176.146 31.936 176.52 31.712C176.902 31.488 177.178 31.1613 177.346 30.732L177.612 31.656C177.434 32.0947 177.122 32.4447 176.674 32.706C176.226 32.958 175.661 33.084 174.98 33.084ZM180.099 33L183.291 28.856L183.277 29.542L180.239 25.58H181.737L184.061 28.632H183.487L185.811 25.58H187.281L184.201 29.57L184.215 28.856L187.435 33H185.909L183.459 29.752L184.005 29.836L181.597 33H180.099ZM188.901 33V25.58H190.245V33H188.901ZM189.573 24.152C189.312 24.152 189.093 24.068 188.915 23.9C188.747 23.732 188.663 23.5267 188.663 23.284C188.663 23.032 188.747 22.822 188.915 22.654C189.093 22.486 189.312 22.402 189.573 22.402C189.835 22.402 190.049 22.486 190.217 22.654C190.395 22.8127 190.483 23.0133 190.483 23.256C190.483 23.508 190.399 23.7227 190.231 23.9C190.063 24.068 189.844 24.152 189.573 24.152ZM202.094 25.51C202.691 25.51 203.218 25.6267 203.676 25.86C204.133 26.0933 204.488 26.448 204.74 26.924C205.001 27.4 205.132 28.002 205.132 28.73V33H203.788V28.884C203.788 28.1653 203.62 27.624 203.284 27.26C202.948 26.896 202.476 26.714 201.87 26.714C201.422 26.714 201.03 26.8073 200.694 26.994C200.358 27.1807 200.096 27.456 199.91 27.82C199.732 28.184 199.644 28.6367 199.644 29.178V33H198.3V28.884C198.3 28.1653 198.132 27.624 197.796 27.26C197.469 26.896 196.998 26.714 196.382 26.714C195.943 26.714 195.556 26.8073 195.22 26.994C194.884 27.1807 194.622 27.456 194.436 27.82C194.249 28.184 194.156 28.6367 194.156 29.178V33H192.812V25.58H194.1V27.554L193.89 27.05C194.123 26.5647 194.482 26.1867 194.968 25.916C195.453 25.6453 196.018 25.51 196.662 25.51C197.371 25.51 197.982 25.6873 198.496 26.042C199.009 26.3873 199.345 26.9147 199.504 27.624L198.958 27.4C199.182 26.8307 199.574 26.3733 200.134 26.028C200.694 25.6827 201.347 25.51 202.094 25.51ZM210.727 33.084C210.092 33.084 209.532 32.9673 209.047 32.734C208.571 32.5007 208.197 32.146 207.927 31.67C207.665 31.1847 207.535 30.578 207.535 29.85V25.58H208.879V29.696C208.879 30.424 209.051 30.97 209.397 31.334C209.751 31.698 210.246 31.88 210.881 31.88C211.347 31.88 211.753 31.7867 212.099 31.6C212.444 31.404 212.71 31.124 212.897 30.76C213.083 30.3867 213.177 29.9387 213.177 29.416V25.58H214.521V33H213.247V30.998L213.457 31.53C213.214 32.0247 212.85 32.4073 212.365 32.678C211.879 32.9487 211.333 33.084 210.727 33.084ZM226.361 25.51C226.958 25.51 227.486 25.6267 227.943 25.86C228.4 26.0933 228.755 26.448 229.007 26.924C229.268 27.4 229.399 28.002 229.399 28.73V33H228.055V28.884C228.055 28.1653 227.887 27.624 227.551 27.26C227.215 26.896 226.744 26.714 226.137 26.714C225.689 26.714 225.297 26.8073 224.961 26.994C224.625 27.1807 224.364 27.456 224.177 27.82C224 28.184 223.911 28.6367 223.911 29.178V33H222.567V28.884C222.567 28.1653 222.399 27.624 222.063 27.26C221.736 26.896 221.265 26.714 220.649 26.714C220.21 26.714 219.823 26.8073 219.487 26.994C219.151 27.1807 218.89 27.456 218.703 27.82C218.516 28.184 218.423 28.6367 218.423 29.178V33H217.079V25.58H218.367V27.554L218.157 27.05C218.39 26.5647 218.75 26.1867 219.235 25.916C219.72 25.6453 220.285 25.51 220.929 25.51C221.638 25.51 222.25 25.6873 222.763 26.042C223.276 26.3873 223.612 26.9147 223.771 27.624L223.225 27.4C223.449 26.8307 223.841 26.3733 224.401 26.028C224.961 25.6827 225.614 25.51 226.361 25.51ZM239.566 33.084C238.95 33.084 238.385 32.944 237.872 32.664C237.368 32.3747 236.962 31.95 236.654 31.39C236.355 30.83 236.206 30.13 236.206 29.29C236.206 28.45 236.351 27.75 236.64 27.19C236.939 26.63 237.34 26.21 237.844 25.93C238.357 25.65 238.931 25.51 239.566 25.51C240.294 25.51 240.938 25.6687 241.498 25.986C242.058 26.3033 242.501 26.7467 242.828 27.316C243.155 27.876 243.318 28.534 243.318 29.29C243.318 30.046 243.155 30.7087 242.828 31.278C242.501 31.8473 242.058 32.2907 241.498 32.608C240.938 32.9253 240.294 33.084 239.566 33.084ZM235.632 35.716V25.58H236.92V27.582L236.836 29.304L236.976 31.026V35.716H235.632ZM239.454 31.908C239.93 31.908 240.355 31.8007 240.728 31.586C241.111 31.3713 241.409 31.068 241.624 30.676C241.848 30.2747 241.96 29.8127 241.96 29.29C241.96 28.758 241.848 28.3007 241.624 27.918C241.409 27.526 241.111 27.2227 240.728 27.008C240.355 26.7933 239.93 26.686 239.454 26.686C238.987 26.686 238.563 26.7933 238.18 27.008C237.807 27.2227 237.508 27.526 237.284 27.918C237.069 28.3007 236.962 28.758 236.962 29.29C236.962 29.8127 237.069 30.2747 237.284 30.676C237.508 31.068 237.807 31.3713 238.18 31.586C238.563 31.8007 238.987 31.908 239.454 31.908ZM245.175 33V25.58H246.463V27.596L246.337 27.092C246.542 26.5787 246.888 26.1867 247.373 25.916C247.858 25.6453 248.456 25.51 249.165 25.51V26.812C249.109 26.8027 249.053 26.798 248.997 26.798C248.95 26.798 248.904 26.798 248.857 26.798C248.138 26.798 247.569 27.0127 247.149 27.442C246.729 27.8713 246.519 28.492 246.519 29.304V33H245.175ZM253.931 33.084C253.184 33.084 252.522 32.9207 251.943 32.594C251.364 32.2673 250.907 31.8193 250.571 31.25C250.235 30.6713 250.067 30.018 250.067 29.29C250.067 28.5527 250.235 27.8993 250.571 27.33C250.907 26.7607 251.364 26.3173 251.943 26C252.522 25.6733 253.184 25.51 253.931 25.51C254.668 25.51 255.326 25.6733 255.905 26C256.493 26.3173 256.95 26.7607 257.277 27.33C257.613 27.89 257.781 28.5433 257.781 29.29C257.781 30.0273 257.613 30.6807 257.277 31.25C256.95 31.8193 256.493 32.2673 255.905 32.594C255.326 32.9207 254.668 33.084 253.931 33.084ZM253.931 31.908C254.407 31.908 254.832 31.8007 255.205 31.586C255.588 31.3713 255.886 31.068 256.101 30.676C256.316 30.2747 256.423 29.8127 256.423 29.29C256.423 28.758 256.316 28.3007 256.101 27.918C255.886 27.526 255.588 27.2227 255.205 27.008C254.832 26.7933 254.407 26.686 253.931 26.686C253.455 26.686 253.03 26.7933 252.657 27.008C252.284 27.2227 251.985 27.526 251.761 27.918C251.537 28.3007 251.425 28.758 251.425 29.29C251.425 29.8127 251.537 30.2747 251.761 30.676C251.985 31.068 252.284 31.3713 252.657 31.586C253.03 31.8007 253.455 31.908 253.931 31.908ZM262.188 33.084C261.441 33.084 260.862 32.8833 260.452 32.482C260.041 32.0807 259.836 31.5067 259.836 30.76V23.956H261.18V30.704C261.18 31.1053 261.278 31.4133 261.474 31.628C261.679 31.8427 261.968 31.95 262.342 31.95C262.762 31.95 263.112 31.8333 263.392 31.6L263.812 32.566C263.606 32.7433 263.359 32.874 263.07 32.958C262.79 33.042 262.496 33.084 262.188 33.084ZM258.576 26.686V25.58H263.308V26.686H258.576ZM268.495 33.084C267.701 33.084 267.001 32.9207 266.395 32.594C265.797 32.2673 265.331 31.8193 264.995 31.25C264.668 30.6807 264.505 30.0273 264.505 29.29C264.505 28.5527 264.663 27.8993 264.981 27.33C265.307 26.7607 265.751 26.3173 266.311 26C266.88 25.6733 267.519 25.51 268.229 25.51C268.947 25.51 269.582 25.6687 270.133 25.986C270.683 26.3033 271.113 26.7513 271.421 27.33C271.738 27.8993 271.897 28.5667 271.897 29.332C271.897 29.388 271.892 29.4533 271.883 29.528C271.883 29.6027 271.878 29.6727 271.869 29.738H265.555V28.772H271.169L270.623 29.108C270.632 28.632 270.534 28.2073 270.329 27.834C270.123 27.4607 269.839 27.1713 269.475 26.966C269.12 26.7513 268.705 26.644 268.229 26.644C267.762 26.644 267.347 26.7513 266.983 26.966C266.619 27.1713 266.334 27.4653 266.129 27.848C265.923 28.2213 265.821 28.6507 265.821 29.136V29.36C265.821 29.8547 265.933 30.298 266.157 30.69C266.39 31.0727 266.712 31.3713 267.123 31.586C267.533 31.8007 268.005 31.908 268.537 31.908C268.975 31.908 269.372 31.8333 269.727 31.684C270.091 31.5347 270.408 31.3107 270.679 31.012L271.421 31.88C271.085 32.272 270.665 32.5707 270.161 32.776C269.666 32.9813 269.111 33.084 268.495 33.084ZM276.997 33.084C276.241 33.084 275.564 32.9207 274.967 32.594C274.379 32.2673 273.917 31.8193 273.581 31.25C273.245 30.6807 273.077 30.0273 273.077 29.29C273.077 28.5527 273.245 27.8993 273.581 27.33C273.917 26.7607 274.379 26.3173 274.967 26C275.564 25.6733 276.241 25.51 276.997 25.51C277.669 25.51 278.266 25.6453 278.789 25.916C279.321 26.1773 279.731 26.5693 280.021 27.092L278.999 27.75C278.756 27.386 278.457 27.12 278.103 26.952C277.757 26.7747 277.384 26.686 276.983 26.686C276.497 26.686 276.063 26.7933 275.681 27.008C275.298 27.2227 274.995 27.526 274.771 27.918C274.547 28.3007 274.435 28.758 274.435 29.29C274.435 29.822 274.547 30.284 274.771 30.676C274.995 31.068 275.298 31.3713 275.681 31.586C276.063 31.8007 276.497 31.908 276.983 31.908C277.384 31.908 277.757 31.824 278.103 31.656C278.457 31.4787 278.756 31.208 278.999 30.844L280.021 31.488C279.731 32.0013 279.321 32.398 278.789 32.678C278.266 32.9487 277.669 33.084 276.997 33.084ZM284.405 33.084C283.658 33.084 283.079 32.8833 282.669 32.482C282.258 32.0807 282.053 31.5067 282.053 30.76V23.956H283.397V30.704C283.397 31.1053 283.495 31.4133 283.691 31.628C283.896 31.8427 284.185 31.95 284.559 31.95C284.979 31.95 285.329 31.8333 285.609 31.6L286.029 32.566C285.823 32.7433 285.576 32.874 285.287 32.958C285.007 33.042 284.713 33.084 284.405 33.084ZM280.793 26.686V25.58H285.525V26.686H280.793ZM287.653 33V25.58H288.997V33H287.653ZM288.325 24.152C288.064 24.152 287.845 24.068 287.667 23.9C287.499 23.732 287.415 23.5267 287.415 23.284C287.415 23.032 287.499 22.822 287.667 22.654C287.845 22.486 288.064 22.402 288.325 22.402C288.587 22.402 288.801 22.486 288.969 22.654C289.147 22.8127 289.235 23.0133 289.235 23.256C289.235 23.508 289.151 23.7227 288.983 23.9C288.815 24.068 288.596 24.152 288.325 24.152ZM294.742 33.084C293.995 33.084 293.332 32.9207 292.754 32.594C292.175 32.2673 291.718 31.8193 291.382 31.25C291.046 30.6713 290.878 30.018 290.878 29.29C290.878 28.5527 291.046 27.8993 291.382 27.33C291.718 26.7607 292.175 26.3173 292.754 26C293.332 25.6733 293.995 25.51 294.742 25.51C295.479 25.51 296.137 25.6733 296.716 26C297.304 26.3173 297.761 26.7607 298.088 27.33C298.424 27.89 298.592 28.5433 298.592 29.29C298.592 30.0273 298.424 30.6807 298.088 31.25C297.761 31.8193 297.304 32.2673 296.716 32.594C296.137 32.9207 295.479 33.084 294.742 33.084ZM294.742 31.908C295.218 31.908 295.642 31.8007 296.016 31.586C296.398 31.3713 296.697 31.068 296.912 30.676C297.126 30.2747 297.234 29.8127 297.234 29.29C297.234 28.758 297.126 28.3007 296.912 27.918C296.697 27.526 296.398 27.2227 296.016 27.008C295.642 26.7933 295.218 26.686 294.742 26.686C294.266 26.686 293.841 26.7933 293.468 27.008C293.094 27.2227 292.796 27.526 292.572 27.918C292.348 28.3007 292.236 28.758 292.236 29.29C292.236 29.8127 292.348 30.2747 292.572 30.676C292.796 31.068 293.094 31.3713 293.468 31.586C293.841 31.8007 294.266 31.908 294.742 31.908ZM304.412 25.51C305.019 25.51 305.551 25.6267 306.008 25.86C306.475 26.0933 306.839 26.448 307.1 26.924C307.362 27.4 307.492 28.002 307.492 28.73V33H306.148V28.884C306.148 28.1653 305.971 27.624 305.616 27.26C305.271 26.896 304.781 26.714 304.146 26.714C303.67 26.714 303.255 26.8073 302.9 26.994C302.546 27.1807 302.27 27.456 302.074 27.82C301.888 28.184 301.794 28.6367 301.794 29.178V33H300.45V25.58H301.738V27.582L301.528 27.05C301.771 26.5647 302.144 26.1867 302.648 25.916C303.152 25.6453 303.74 25.51 304.412 25.51ZM310.302 33.084C310.04 33.084 309.816 32.9953 309.63 32.818C309.443 32.6313 309.35 32.398 309.35 32.118C309.35 31.838 309.443 31.6093 309.63 31.432C309.816 31.2547 310.04 31.166 310.302 31.166C310.554 31.166 310.768 31.2547 310.946 31.432C311.132 31.6093 311.226 31.838 311.226 32.118C311.226 32.398 311.132 32.6313 310.946 32.818C310.768 32.9953 310.554 33.084 310.302 33.084Z" fill="black"/>
</svg>
