<svg width="165" height="50" viewBox="0 0 165 50" fill="none" xmlns="http://www.w3.org/2000/svg">
<g filter="url(#filter0_d_2040_1174)">
<rect x="24.1406" y="4.7168" width="33" height="31" rx="6" transform="rotate(46.3303 24.1406 4.7168)" fill="white"/>
</g>
<path d="M20.1982 21.1045H28.2373C28.4651 21.1045 28.6809 21.2079 28.8232 21.3857L30.3037 23.2363C30.4101 23.3693 30.4677 23.5348 30.4678 23.7051V33.3545C30.4678 33.7687 30.132 34.1045 29.7178 34.1045H18.7178C18.3036 34.1045 17.9678 33.7687 17.9678 33.3545V23.7051C17.9678 23.5348 18.0255 23.3693 18.1318 23.2363L19.6123 21.3857C19.7546 21.2079 19.9705 21.1045 20.1982 21.1045Z" stroke="black" stroke-width="0.5"/>
<path d="M18.2178 23.3545H30.2178" stroke="black" stroke-width="0.5"/>
<path d="M26.4678 23.6045V29.834L24.374 28.1592L24.2178 28.0342L24.0615 28.1592L21.9678 29.834V23.6045H26.4678Z" stroke="black" stroke-width="0.5"/>
<path d="M56.047 23.667V14.219H60.1367C60.9825 14.219 61.7113 14.3585 62.3232 14.6374C62.9351 14.9073 63.4075 15.2988 63.7404 15.8117C64.0733 16.3245 64.2398 16.9364 64.2398 17.6473C64.2398 18.3491 64.0733 18.9565 63.7404 19.4694C63.4075 19.9823 62.9351 20.3782 62.3232 20.6571C61.7113 20.9271 60.9825 21.062 60.1367 21.062H57.2618L58.2336 20.0768V23.667H56.047ZM58.2336 20.3197L57.2618 19.2804H60.0152C60.69 19.2804 61.1939 19.1365 61.5269 18.8485C61.8598 18.5606 62.0263 18.1602 62.0263 17.6473C62.0263 17.1254 61.8598 16.7205 61.5269 16.4325C61.1939 16.1446 60.69 16.0006 60.0152 16.0006H57.2618L58.2336 14.9613V20.3197ZM69.1484 23.775C68.3656 23.775 67.6682 23.6175 67.0564 23.3026C66.4445 22.9786 65.9631 22.5332 65.6122 21.9664C65.2702 21.3995 65.0993 20.7561 65.0993 20.0363C65.0993 19.3074 65.2702 18.6641 65.6122 18.1062C65.9631 17.5393 66.4445 17.0984 67.0564 16.7834C67.6682 16.4595 68.3656 16.2976 69.1484 16.2976C69.9133 16.2976 70.5791 16.4595 71.146 16.7834C71.7129 17.0984 72.1313 17.5528 72.4012 18.1467L70.7681 19.024C70.5791 18.682 70.3407 18.4301 70.0527 18.2681C69.7738 18.1062 69.4679 18.0252 69.1349 18.0252C68.775 18.0252 68.4511 18.1062 68.1631 18.2681C67.8752 18.4301 67.6457 18.6596 67.4748 18.9565C67.3128 19.2534 67.2318 19.6133 67.2318 20.0363C67.2318 20.4592 67.3128 20.8191 67.4748 21.116C67.6457 21.413 67.8752 21.6424 68.1631 21.8044C68.4511 21.9664 68.775 22.0473 69.1349 22.0473C69.4679 22.0473 69.7738 21.9709 70.0527 21.8179C70.3407 21.6559 70.5791 21.3995 70.7681 21.0485L72.4012 21.9394C72.1313 22.5242 71.7129 22.9786 71.146 23.3026C70.5791 23.6175 69.9133 23.775 69.1484 23.775ZM76.0565 23.775C75.4357 23.775 74.8373 23.703 74.2614 23.559C73.6945 23.406 73.2446 23.2171 72.9117 22.9921L73.6136 21.4805C73.9465 21.6874 74.3379 21.8584 74.7878 21.9933C75.2467 22.1193 75.6966 22.1823 76.1375 22.1823C76.6234 22.1823 76.9653 22.1238 77.1633 22.0068C77.3703 21.8899 77.4737 21.7279 77.4737 21.5209C77.4737 21.35 77.3928 21.224 77.2308 21.143C77.0778 21.053 76.8709 20.9856 76.6099 20.9406C76.349 20.8956 76.061 20.8506 75.7461 20.8056C75.4402 20.7606 75.1297 20.7021 74.8148 20.6301C74.4999 20.5492 74.2119 20.4322 73.951 20.2792C73.69 20.1262 73.4786 19.9193 73.3166 19.6583C73.1636 19.3974 73.0872 19.06 73.0872 18.6461C73.0872 18.1872 73.2176 17.7822 73.4786 17.4313C73.7485 17.0804 74.1354 16.8059 74.6393 16.608C75.1432 16.401 75.7461 16.2976 76.448 16.2976C76.9428 16.2976 77.4467 16.3515 77.9596 16.4595C78.4725 16.5675 78.8999 16.725 79.2419 16.9319L78.54 18.4301C78.1891 18.2231 77.8337 18.0837 77.4737 18.0117C77.1228 17.9307 76.7809 17.8902 76.448 17.8902C75.9801 17.8902 75.6381 17.9532 75.4222 18.0792C75.2062 18.2051 75.0982 18.3671 75.0982 18.5651C75.0982 18.745 75.1747 18.88 75.3277 18.97C75.4897 19.06 75.7011 19.132 75.9621 19.1859C76.223 19.2399 76.5064 19.2894 76.8124 19.3344C77.1273 19.3704 77.4422 19.4289 77.7572 19.5099C78.0721 19.5909 78.3556 19.7078 78.6075 19.8608C78.8684 20.0048 79.0799 20.2072 79.2419 20.4682C79.4038 20.7201 79.4848 21.053 79.4848 21.467C79.4848 21.9169 79.3498 22.3173 79.0799 22.6682C78.81 23.0101 78.4185 23.2801 77.9056 23.478C77.4018 23.676 76.7854 23.775 76.0565 23.775ZM84.7548 23.667V14.219H88.8444C89.6903 14.219 90.4191 14.3585 91.031 14.6374C91.6429 14.9073 92.1153 15.2988 92.4482 15.8117C92.7811 16.3245 92.9476 16.9364 92.9476 17.6473C92.9476 18.3491 92.7811 18.9565 92.4482 19.4694C92.1153 19.9823 91.6429 20.3782 91.031 20.6571C90.4191 20.9271 89.6903 21.062 88.8444 21.062H85.9696L86.9414 20.0768V23.667H84.7548ZM86.9414 20.3197L85.9696 19.2804H88.723C89.3978 19.2804 89.9017 19.1365 90.2347 18.8485C90.5676 18.5606 90.734 18.1602 90.734 17.6473C90.734 17.1254 90.5676 16.7205 90.2347 16.4325C89.9017 16.1446 89.3978 16.0006 88.723 16.0006H85.9696L86.9414 14.9613V20.3197ZM97.9507 23.775C97.1229 23.775 96.394 23.613 95.7642 23.2891C95.1433 22.9651 94.6619 22.5242 94.32 21.9664C93.978 21.3995 93.8071 20.7561 93.8071 20.0363C93.8071 19.3074 93.9735 18.6641 94.3065 18.1062C94.6484 17.5393 95.1118 17.0984 95.6967 16.7834C96.2815 16.4595 96.9429 16.2976 97.6808 16.2976C98.3916 16.2976 99.0305 16.4505 99.5973 16.7565C100.173 17.0534 100.628 17.4853 100.961 18.0522C101.293 18.6101 101.46 19.2804 101.46 20.0633C101.46 20.1442 101.455 20.2387 101.446 20.3467C101.437 20.4457 101.428 20.5402 101.419 20.6301H95.5212V19.4019H100.313L99.5029 19.7663C99.5029 19.3884 99.4264 19.06 99.2734 18.781C99.1204 18.5021 98.909 18.2861 98.6391 18.1332C98.3691 17.9712 98.0542 17.8902 97.6943 17.8902C97.3343 17.8902 97.0149 17.9712 96.736 18.1332C96.466 18.2861 96.2546 18.5066 96.1016 18.7945C95.9486 19.0735 95.8721 19.4064 95.8721 19.7933V20.1172C95.8721 20.5132 95.9576 20.8641 96.1286 21.17C96.3085 21.467 96.556 21.6964 96.8709 21.8584C97.1949 22.0113 97.5728 22.0878 98.0047 22.0878C98.3916 22.0878 98.729 22.0293 99.017 21.9124C99.3139 21.7954 99.5839 21.6199 99.8268 21.386L100.947 22.6007C100.614 22.9786 100.196 23.2711 99.6918 23.478C99.1879 23.676 98.6076 23.775 97.9507 23.775ZM102.862 23.667V16.4055H104.873V18.4571L104.589 17.8632C104.805 17.3503 105.152 16.9634 105.629 16.7025C106.106 16.4325 106.686 16.2976 107.37 16.2976V18.2411C107.28 18.2321 107.199 18.2276 107.127 18.2276C107.055 18.2186 106.978 18.2141 106.897 18.2141C106.322 18.2141 105.854 18.3806 105.494 18.7135C105.143 19.0375 104.967 19.5459 104.967 20.2387V23.667H102.862ZM112.645 23.667V14.219H117.261C118.449 14.219 119.34 14.4439 119.934 14.8938C120.537 15.3438 120.838 15.9376 120.838 16.6755C120.838 17.1704 120.717 17.6023 120.474 17.9712C120.231 18.3311 119.898 18.6101 119.475 18.808C119.052 19.006 118.566 19.105 118.017 19.105L118.274 18.5516C118.868 18.5516 119.394 18.6506 119.853 18.8485C120.312 19.0375 120.667 19.3209 120.919 19.6988C121.18 20.0768 121.311 20.5402 121.311 21.089C121.311 21.8989 120.991 22.5332 120.352 22.9921C119.713 23.442 118.773 23.667 117.531 23.667H112.645ZM114.818 22.0203H117.369C117.936 22.0203 118.364 21.9304 118.652 21.7504C118.949 21.5614 119.097 21.2645 119.097 20.8596C119.097 20.4637 118.949 20.1712 118.652 19.9823C118.364 19.7843 117.936 19.6853 117.369 19.6853H114.656V18.0927H116.991C117.522 18.0927 117.927 18.0027 118.206 17.8227C118.494 17.6338 118.638 17.3503 118.638 16.9724C118.638 16.6035 118.494 16.329 118.206 16.1491C117.927 15.9601 117.522 15.8656 116.991 15.8656H114.818V22.0203ZM126.273 23.775C125.499 23.775 124.811 23.613 124.208 23.2891C123.614 22.9651 123.141 22.5242 122.791 21.9664C122.449 21.3995 122.278 20.7561 122.278 20.0363C122.278 19.3074 122.449 18.6641 122.791 18.1062C123.141 17.5393 123.614 17.0984 124.208 16.7834C124.811 16.4595 125.499 16.2976 126.273 16.2976C127.038 16.2976 127.721 16.4595 128.324 16.7834C128.927 17.0984 129.4 17.5348 129.742 18.0927C130.083 18.6506 130.254 19.2984 130.254 20.0363C130.254 20.7561 130.083 21.3995 129.742 21.9664C129.4 22.5242 128.927 22.9651 128.324 23.2891C127.721 23.613 127.038 23.775 126.273 23.775ZM126.273 22.0473C126.624 22.0473 126.939 21.9664 127.218 21.8044C127.497 21.6424 127.717 21.413 127.879 21.116C128.041 20.8101 128.122 20.4502 128.122 20.0363C128.122 19.6133 128.041 19.2534 127.879 18.9565C127.717 18.6596 127.497 18.4301 127.218 18.2681C126.939 18.1062 126.624 18.0252 126.273 18.0252C125.922 18.0252 125.607 18.1062 125.328 18.2681C125.049 18.4301 124.824 18.6596 124.653 18.9565C124.491 19.2534 124.41 19.6133 124.41 20.0363C124.41 20.4502 124.491 20.8101 124.653 21.116C124.824 21.413 125.049 21.6424 125.328 21.8044C125.607 21.9664 125.922 22.0473 126.273 22.0473ZM130.52 23.667L133.773 19.4019L133.732 20.5626L130.614 16.4055H132.976L134.947 19.1185L134.056 19.1454L136.094 16.4055H138.335L135.203 20.5222V19.3884L138.443 23.667H136.054L133.989 20.7786L134.866 20.9001L132.814 23.667H130.52Z" fill="black"/>
<path d="M56.8838 41.041V33.5051L57.2438 33.8875H55.028V33.1677H57.6937V41.041H56.8838ZM60.9592 41.041L64.356 33.5276L64.6034 33.8875H59.7332L60.1493 33.4939V35.361H59.3508V33.1677H65.132V33.7413L61.8365 41.041H60.9592ZM69.1175 41.1085C68.5101 41.1085 67.9702 40.951 67.4978 40.6361C67.0254 40.3137 66.6542 39.8563 66.3843 39.2639C66.1144 38.664 65.9794 37.9442 65.9794 37.1043C65.9794 36.2645 66.1144 35.5484 66.3843 34.9561C66.6542 34.3562 67.0254 33.8988 67.4978 33.5838C67.9702 33.2614 68.5101 33.1002 69.1175 33.1002C69.7248 33.1002 70.2647 33.2614 70.7371 33.5838C71.2095 33.8988 71.5807 34.3562 71.8506 34.9561C72.1281 35.5484 72.2668 36.2645 72.2668 37.1043C72.2668 37.9442 72.1281 38.664 71.8506 39.2639C71.5807 39.8563 71.2095 40.3137 70.7371 40.6361C70.2647 40.951 69.7248 41.1085 69.1175 41.1085ZM69.1175 40.3662C69.5824 40.3662 69.9873 40.2424 70.3322 39.995C70.6771 39.74 70.9471 39.3726 71.142 38.8927C71.337 38.4053 71.4345 37.8092 71.4345 37.1043C71.4345 36.3995 71.337 35.8071 71.142 35.3272C70.9471 34.8398 70.6771 34.4724 70.3322 34.225C69.9873 33.97 69.5824 33.8425 69.1175 33.8425C68.6676 33.8425 68.2664 33.97 67.914 34.225C67.5616 34.4724 67.2879 34.8398 67.0929 35.3272C66.8979 35.8071 66.8005 36.3995 66.8005 37.1043C66.8005 37.8092 66.8979 38.4053 67.0929 38.8927C67.2879 39.3726 67.5616 39.74 67.914 39.995C68.2664 40.2424 68.6676 40.3662 69.1175 40.3662ZM77.0676 41.041V33.1677H77.7537L83.1863 40.0062H82.8264V33.1677H83.6475V41.041H82.9614L77.54 34.2025H77.8999V41.041H77.0676ZM88.4556 41.0973C87.8857 41.0973 87.372 40.9698 86.9146 40.7148C86.4647 40.4524 86.1086 40.0962 85.8461 39.6463C85.5837 39.1889 85.4524 38.6678 85.4524 38.0829C85.4524 37.4905 85.5837 36.9694 85.8461 36.5195C86.1086 36.0696 86.4647 35.7171 86.9146 35.4622C87.3645 35.2072 87.8782 35.0798 88.4556 35.0798C89.0404 35.0798 89.5578 35.2072 90.0077 35.4622C90.4651 35.7171 90.8213 36.0696 91.0763 36.5195C91.3387 36.9694 91.4699 37.4905 91.4699 38.0829C91.4699 38.6678 91.3387 39.1889 91.0763 39.6463C90.8213 40.0962 90.4651 40.4524 90.0077 40.7148C89.5503 40.9698 89.0329 41.0973 88.4556 41.0973ZM88.4556 40.3887C88.883 40.3887 89.2616 40.2949 89.5916 40.1075C89.9215 39.9125 90.1802 39.6426 90.3677 39.2976C90.5626 38.9452 90.6601 38.5403 90.6601 38.0829C90.6601 37.618 90.5626 37.2131 90.3677 36.8681C90.1802 36.5232 89.9215 36.257 89.5916 36.0696C89.2616 35.8746 88.8867 35.7771 88.4668 35.7771C88.0469 35.7771 87.672 35.8746 87.342 36.0696C87.0121 36.257 86.7497 36.5232 86.5547 36.8681C86.3598 37.2131 86.2623 37.618 86.2623 38.0829C86.2623 38.5403 86.3598 38.9452 86.5547 39.2976C86.7497 39.6426 87.0121 39.9125 87.342 40.1075C87.672 40.2949 88.0432 40.3887 88.4556 40.3887ZM94.6862 41.0973C94.1988 41.0973 93.7377 41.0298 93.3028 40.8948C92.8679 40.7523 92.5267 40.5761 92.2792 40.3662L92.6392 39.7363C92.8791 39.9163 93.1865 40.0737 93.5615 40.2087C93.9364 40.3362 94.33 40.3999 94.7425 40.3999C95.3048 40.3999 95.7098 40.3137 95.9572 40.1412C96.2046 39.9612 96.3284 39.725 96.3284 39.4326C96.3284 39.2152 96.2571 39.0464 96.1147 38.9265C95.9797 38.799 95.7997 38.7053 95.5748 38.6453C95.3498 38.5778 95.0986 38.5215 94.8212 38.4766C94.5437 38.4316 94.2663 38.3791 93.9889 38.3191C93.7189 38.2591 93.4715 38.1729 93.2465 38.0604C93.0216 37.9404 92.8379 37.7792 92.6954 37.5767C92.5604 37.3743 92.4929 37.1043 92.4929 36.7669C92.4929 36.4445 92.5829 36.1558 92.7629 35.9009C92.9428 35.6459 93.2053 35.4472 93.5502 35.3047C93.9026 35.1548 94.33 35.0798 94.8324 35.0798C95.2149 35.0798 95.5973 35.1323 95.9797 35.2372C96.3621 35.3347 96.677 35.4659 96.9245 35.6309L96.5758 36.272C96.3134 36.0921 96.0322 35.9646 95.7322 35.8896C95.4323 35.8071 95.1324 35.7659 94.8324 35.7659C94.3001 35.7659 93.9064 35.8596 93.6514 36.0471C93.404 36.227 93.2803 36.4595 93.2803 36.7444C93.2803 36.9694 93.3478 37.1456 93.4827 37.2731C93.6252 37.4005 93.8089 37.5018 94.0339 37.5767C94.2663 37.6442 94.5175 37.7005 94.7874 37.7455C95.0649 37.7905 95.3386 37.8467 95.6085 37.9142C95.886 37.9742 96.1372 38.0604 96.3621 38.1729C96.5946 38.2778 96.7783 38.4316 96.9132 38.634C97.0557 38.829 97.127 39.0877 97.127 39.4101C97.127 39.755 97.0295 40.055 96.8345 40.3099C96.6471 40.5574 96.3696 40.7523 96.0022 40.8948C95.6423 41.0298 95.2036 41.0973 94.6862 41.0973ZM97.1976 42.1658L100.909 31.5705H101.64L97.9287 42.1658H97.1976ZM104.043 41.0973C103.458 41.0973 102.933 40.9698 102.468 40.7148C102.011 40.4524 101.651 40.0962 101.388 39.6463C101.126 39.1889 100.995 38.6678 100.995 38.0829C100.995 37.4905 101.126 36.9694 101.388 36.5195C101.651 36.0696 102.011 35.7171 102.468 35.4622C102.933 35.2072 103.458 35.0798 104.043 35.0798C104.545 35.0798 104.999 35.1773 105.404 35.3722C105.809 35.5672 106.127 35.8596 106.36 36.2495L105.764 36.6544C105.561 36.3545 105.31 36.1333 105.01 35.9908C104.71 35.8484 104.384 35.7771 104.032 35.7771C103.612 35.7771 103.233 35.8746 102.896 36.0696C102.558 36.257 102.292 36.5232 102.097 36.8681C101.902 37.2131 101.805 37.618 101.805 38.0829C101.805 38.5478 101.902 38.9527 102.097 39.2976C102.292 39.6426 102.558 39.9125 102.896 40.1075C103.233 40.2949 103.612 40.3887 104.032 40.3887C104.384 40.3887 104.71 40.3174 105.01 40.1749C105.31 40.0325 105.561 39.815 105.764 39.5226L106.36 39.9275C106.127 40.3099 105.809 40.6024 105.404 40.8048C104.999 40.9998 104.545 41.0973 104.043 41.0973ZM109.862 41.0973C109.307 41.0973 108.879 40.9473 108.579 40.6473C108.28 40.3474 108.13 39.9238 108.13 39.3764V33.8313H108.928V39.3314C108.928 39.6763 109.014 39.9425 109.187 40.13C109.367 40.3174 109.622 40.4111 109.952 40.4111C110.304 40.4111 110.597 40.3099 110.829 40.1075L111.11 40.6811C110.953 40.8236 110.762 40.9285 110.537 40.996C110.319 41.0635 110.094 41.0973 109.862 41.0973ZM107.072 35.7996V35.136H110.728V35.7996H107.072ZM115.578 35.0798C116.058 35.0798 116.478 35.1735 116.838 35.361C117.205 35.5409 117.49 35.8184 117.693 36.1933C117.903 36.5682 118.008 37.0406 118.008 37.6105V41.041H117.209V37.6892C117.209 37.0669 117.052 36.5982 116.737 36.2833C116.429 35.9608 115.994 35.7996 115.432 35.7996C115.012 35.7996 114.645 35.8859 114.33 36.0583C114.022 36.2233 113.782 36.467 113.61 36.7894C113.445 37.1043 113.363 37.4868 113.363 37.9367V41.041H112.564V35.136H113.329V36.7557L113.205 36.452C113.393 36.0246 113.692 35.6909 114.105 35.4509C114.517 35.2035 115.008 35.0798 115.578 35.0798Z" fill="black"/>
<defs>
<filter id="filter0_d_2040_1174" x="0.000195503" y="0.000195503" width="48.6441" height="48.7096" filterUnits="userSpaceOnUse" color-interpolation-filters="sRGB">
<feFlood flood-opacity="0" result="BackgroundImageFix"/>
<feColorMatrix in="SourceAlpha" type="matrix" values="0 0 0 0 0 0 0 0 0 0 0 0 0 0 0 0 0 0 127 0" result="hardAlpha"/>
<feOffset dy="-3"/>
<feGaussianBlur stdDeviation="2.1"/>
<feComposite in2="hardAlpha" operator="out"/>
<feColorMatrix type="matrix" values="0 0 0 0 0 0 0 0 0 0 0 0 0 0 0 0 0 0 0.25 0"/>
<feBlend mode="normal" in2="BackgroundImageFix" result="effect1_dropShadow_2040_1174"/>
<feBlend mode="normal" in="SourceGraphic" in2="effect1_dropShadow_2040_1174" result="shape"/>
</filter>
</defs>
</svg>
