<svg width="326" height="76" viewBox="0 0 326 76" fill="none" xmlns="http://www.w3.org/2000/svg">
<path d="M17.2011 45.8737C15.1942 45.8766 13.2705 45.6166 11.4298 45.0937C9.58906 44.5468 8.10636 43.8442 6.9817 42.9857L8.94358 38.6109C10.0203 39.3738 11.2878 40.0051 12.7462 40.5047C14.2284 40.9804 15.7221 41.2172 17.2272 41.215C18.374 41.2133 19.2935 41.1045 19.9859 40.8885C20.7021 40.6486 21.2271 40.3253 21.5607 39.9186C21.8943 39.512 22.0606 39.0459 22.0595 38.5203C22.0581 37.8514 21.7942 37.3262 21.2678 36.9447C20.7414 36.5393 20.0479 36.2177 19.1873 35.9801C18.3267 35.7185 17.3705 35.481 16.3189 35.2675C15.2911 35.03 14.2512 34.7449 13.1994 34.4119C12.1714 34.0789 11.2268 33.6502 10.3656 33.1259C9.50444 32.6015 8.79822 31.9097 8.24693 31.0504C7.71954 30.1911 7.45445 29.0925 7.45166 27.7546C7.44868 26.3212 7.82822 25.0186 8.59028 23.8468C9.37619 22.6511 10.5449 21.7058 12.0963 21.0107C13.6716 20.2917 15.6419 19.9305 18.0071 19.9271C19.5839 19.9248 21.1372 20.1137 22.667 20.4938C24.1967 20.8499 25.5477 21.3975 26.7199 22.1364L24.9373 26.5468C23.7652 25.8796 22.5936 25.3915 21.4223 25.0826C20.2509 24.7498 19.1038 24.5843 17.9809 24.5859C16.8581 24.5875 15.9386 24.7202 15.2224 24.984C14.5062 25.2479 13.9933 25.595 13.6836 26.0255C13.3738 26.4321 13.2196 26.9101 13.2207 27.4596C13.222 28.1047 13.4859 28.6299 14.0124 29.0353C14.5388 29.4168 15.2323 29.7264 16.0928 29.964C16.9534 30.2017 17.8976 30.4392 18.9254 30.6767C19.9771 30.9141 21.0169 31.1873 22.0449 31.4964C23.0967 31.8055 24.0532 32.2222 24.9144 32.7466C25.7755 33.2709 26.4698 33.9628 26.9972 34.8221C27.5485 35.6813 27.8255 36.768 27.8282 38.082C27.8312 39.4915 27.4397 40.7822 26.6537 41.954C25.8677 43.1258 24.6871 44.0712 23.1118 44.7901C21.5604 45.5091 19.5902 45.8703 17.2011 45.8737ZM33.2439 45.4206L33.1916 20.3353L45.4476 20.3176C48.6012 20.3131 50.9676 20.907 52.5469 22.0992C54.1501 23.2915 54.9537 24.8671 54.9578 26.8262C54.9605 28.1401 54.6404 29.2874 53.9974 30.2678C53.3543 31.2244 52.4719 31.9663 51.3501 32.4935C50.2284 33.0207 48.9388 33.2854 47.4815 33.2875L48.1593 31.8172C49.7361 31.8149 51.1342 32.0757 52.3538 32.5995C53.5732 33.0995 54.5185 33.8507 55.1895 34.8532C55.8845 35.8556 56.2334 37.0854 56.2365 38.5428C56.241 40.693 55.3963 42.3785 53.7026 43.5993C52.0089 44.7963 49.5135 45.3972 46.2166 45.4019L33.2439 45.4206ZM39.0044 41.0403L45.7775 41.0305C47.2826 41.0284 48.4169 40.7878 49.1804 40.3089C49.9678 39.8061 50.3603 39.0171 50.3581 37.942C50.3559 36.8908 49.9601 36.115 49.1706 35.6144C48.405 35.0899 47.2697 34.8287 45.7645 34.8309L38.5614 34.8413L38.5526 30.6126L44.7523 30.6037C46.1619 30.6016 47.2364 30.3612 47.9761 29.8823C48.7395 29.3795 49.1202 28.6264 49.1181 27.623C49.1161 26.6434 48.7323 25.9153 47.9668 25.4386C47.2251 24.938 46.1495 24.6887 44.74 24.6907L38.9703 24.699L39.0044 41.0403ZM60.9522 37.5326L60.9428 33.0531L71.0845 33.0385L71.0938 37.518L60.9522 37.5326ZM81.2378 45.3515L81.1954 24.9966L73.1681 25.0081L73.1582 20.2777L95.0183 20.2463L95.0282 24.9767L87.0009 24.9882L87.0433 45.3432L81.2378 45.3515ZM104.936 30.3378L117.013 30.3204L117.022 34.8358L104.945 34.8532L104.936 30.3378ZM105.388 40.658L119.041 40.6384L119.051 45.2971L99.6277 45.325L99.5754 20.2397L118.533 20.2124L118.542 24.8711L105.355 24.8901L105.388 40.658ZM123.276 37.4429L123.267 32.9633L133.409 32.9487L133.418 37.4283L123.276 37.4429ZM141.184 45.2652L141.136 22.3301L143.65 24.835L136.125 24.8458L136.115 20.1871L146.937 20.1715L146.99 45.2569L141.184 45.2652ZM163.533 45.6631C161.478 45.666 159.637 45.167 158.011 44.1659C156.384 43.1409 155.103 41.6616 154.167 39.7277C153.231 37.7939 152.761 35.4533 152.755 32.7059C152.749 29.9584 153.21 27.6164 154.138 25.68C155.065 23.7435 156.341 22.2723 157.963 21.2666C159.585 20.2369 161.424 19.7206 163.479 19.7177C165.557 19.7147 167.398 20.2257 169.001 21.2507C170.627 22.2518 171.908 23.7192 172.844 25.653C173.78 27.5868 174.251 29.9275 174.257 32.6749C174.262 35.4223 173.801 37.7643 172.874 39.7008C171.946 41.6373 170.671 43.1204 169.048 44.15C167.45 45.1557 165.611 45.6601 163.533 45.6631ZM163.522 40.7535C164.502 40.7521 165.35 40.4761 166.065 39.9256C166.805 39.3751 167.376 38.5022 167.78 37.3071C168.207 36.112 168.419 34.5707 168.415 32.6833C168.411 30.7959 168.193 29.2553 167.761 28.0614C167.352 26.8674 166.777 25.9962 166.035 25.4478C165.317 24.8994 164.468 24.6258 163.489 24.6272C162.533 24.6286 161.686 24.9046 160.946 25.4551C160.231 26.0057 159.659 26.8785 159.232 28.0737C158.828 29.2688 158.628 30.81 158.632 32.6974C158.636 34.5848 158.842 36.1254 159.251 37.3194C159.683 38.5133 160.259 39.3845 160.976 39.933C161.718 40.4814 162.567 40.7549 163.522 40.7535ZM189.289 45.626C187.234 45.629 185.393 45.1299 183.767 44.1288C182.14 43.1039 180.859 41.6245 179.923 39.6907C178.987 37.7568 178.516 35.4162 178.511 32.6688C178.505 29.9213 178.966 27.5794 179.894 25.6429C180.821 23.7064 182.096 22.2353 183.719 21.2295C185.341 20.1999 187.18 19.6836 189.234 19.6806C191.313 19.6776 193.154 20.1886 194.756 21.2136C196.383 22.2147 197.664 23.6821 198.6 25.6159C199.536 27.5498 200.007 29.8904 200.012 32.6378C200.018 35.3853 199.557 37.7272 198.629 39.6637C197.702 41.6002 196.427 43.0833 194.804 44.1129C193.206 45.1187 191.367 45.623 189.289 45.626ZM189.278 40.7164C190.258 40.715 191.105 40.4391 191.821 39.8885C192.56 39.338 193.132 38.4652 193.536 37.27C193.963 36.0749 194.175 34.5336 194.171 32.6462C194.167 30.7589 193.949 29.2182 193.516 28.0243C193.108 26.8303 192.533 25.9592 191.791 25.4107C191.073 24.8623 190.224 24.5887 189.245 24.5902C188.289 24.5915 187.442 24.8675 186.702 25.4181C185.986 25.9686 185.415 26.8414 184.987 28.0366C184.584 29.2317 184.384 30.7729 184.388 32.6603C184.392 34.5477 184.598 36.0884 185.007 37.2823C185.439 38.4762 186.014 39.3474 186.732 39.8959C187.474 40.4443 188.323 40.7178 189.278 40.7164ZM215.044 45.5889C212.99 45.5919 211.149 45.0928 209.523 44.0917C207.896 43.0668 206.615 41.5874 205.679 39.6536C204.743 37.7198 204.272 35.3791 204.267 32.6317C204.261 29.8843 204.722 27.5423 205.65 25.6058C206.577 23.6693 207.852 22.1982 209.475 21.1924C211.097 20.1628 212.936 19.6465 214.99 19.6435C217.069 19.6405 218.91 20.1515 220.512 21.1765C222.139 22.1776 223.42 23.6451 224.356 25.5789C225.292 27.5127 225.763 29.8533 225.768 32.6007C225.774 35.3482 225.313 37.6902 224.385 39.6266C223.458 41.5631 222.183 43.0462 220.56 44.0759C218.961 45.0816 217.123 45.5859 215.044 45.5889ZM215.034 40.6794C216.014 40.678 216.861 40.402 217.577 39.8515C218.316 39.3009 218.888 38.4281 219.292 37.2329C219.719 36.0378 219.931 34.4965 219.927 32.6092C219.923 30.7218 219.705 29.1811 219.272 27.9872C218.864 26.7933 218.288 25.9221 217.547 25.3736C216.829 24.8252 215.98 24.5517 215.001 24.5531C214.045 24.5545 213.197 24.8304 212.458 25.381C211.742 25.9315 211.171 26.8043 210.743 27.9995C210.34 29.1946 210.14 30.7359 210.144 32.6232C210.148 34.5106 210.354 36.0513 210.763 37.2452C211.195 38.4391 211.77 39.3103 212.488 39.8588C213.23 40.4072 214.079 40.6807 215.034 40.6794ZM251.895 52.3448C250.08 52.3474 248.323 52.1229 246.626 51.6715C244.953 51.2438 243.554 50.5888 242.429 49.7065L244.642 45.6897C245.456 46.3574 246.484 46.8815 247.728 47.262C248.995 47.6663 250.237 47.8676 251.456 47.8659C253.439 47.863 254.871 47.419 255.753 46.5337C256.659 45.6485 257.111 44.3338 257.107 42.5898L257.101 39.6871L257.449 34.8487L257.367 29.975L257.359 25.818L262.662 25.8104L262.696 41.865C262.703 45.4486 261.777 48.0899 259.917 49.7888C258.057 51.4878 255.383 52.3397 251.895 52.3448ZM251.018 44.1754C249.226 44.1779 247.601 43.798 246.142 43.0356C244.707 42.2493 243.546 41.1639 242.659 39.7795C241.796 38.3712 241.363 36.7353 241.359 34.8718C241.355 32.9844 241.781 31.3473 242.639 29.9604C243.52 28.5496 244.676 27.4609 246.108 26.6943C247.564 25.9277 249.187 25.5431 250.979 25.5405C252.604 25.5382 254.038 25.8706 255.282 26.5378C256.525 27.181 257.495 28.195 258.191 29.5797C258.886 30.9404 259.237 32.6959 259.241 34.8461C259.245 36.9724 258.903 38.7288 258.213 40.1155C257.523 41.4783 256.557 42.495 255.316 43.1657C254.075 43.8365 252.643 44.173 251.018 44.1754ZM252.119 39.5867C253.099 39.5853 253.971 39.3929 254.734 39.0096C255.498 38.6023 256.094 38.04 256.523 37.3227C256.951 36.6054 257.164 35.7808 257.163 34.8491C257.161 33.8934 256.944 33.0695 256.512 32.3773C256.081 31.6612 255.482 31.1126 254.717 30.7314C253.952 30.3264 253.079 30.1246 252.1 30.126C251.12 30.1274 250.249 30.3317 249.485 30.7389C248.721 31.1223 248.113 31.6727 247.661 32.39C247.232 33.0835 247.019 33.908 247.021 34.8637C247.023 35.7954 247.24 36.6193 247.671 37.3354C248.126 38.0515 248.737 38.6121 249.502 39.0171C250.268 39.3983 251.14 39.5881 252.119 39.5867Z" fill="#490606"/>
<path d="M43.481 69.169C43.0044 68.4491 42.6345 67.6182 42.3712 66.6763C42.1158 65.7264 41.987 64.7051 41.9847 63.6124C41.9824 62.5196 42.107 61.498 42.3584 60.5474C42.6177 59.5889 42.9842 58.7569 43.4579 58.0515L45.2276 58.0489C44.7306 58.9444 44.3683 59.8477 44.1405 60.7586C43.9128 61.6616 43.7999 62.612 43.802 63.6098C43.8041 64.6075 43.9209 65.5615 44.1524 66.4718C44.384 67.3742 44.7501 68.2724 45.2508 69.1665L43.481 69.169ZM46.3556 66.8606L46.3383 58.5462L48.2625 58.5434L48.2798 66.8578L46.3556 66.8606ZM50.253 66.855L50.2357 58.5406L51.8273 58.5383L55.3791 64.4008L54.5358 64.402L58.0037 58.5294L59.5835 58.5271L59.6246 66.8415L57.8192 66.8441L57.7957 61.2972L58.1283 61.2967L55.3586 65.9687L54.4916 65.9699L51.643 61.3061L52.0469 61.3055L52.0584 66.8524L50.253 66.855ZM61.5972 66.8387L61.5799 58.5242L63.5041 58.5215L63.5181 65.268L67.6872 65.262L67.6905 66.8299L61.5972 66.8387ZM72.1294 66.8235L72.1121 58.5091L73.7037 58.5068L77.2555 64.3693L76.4122 64.3705L79.8801 58.4979L81.4599 58.4956L81.501 66.81L79.6955 66.8126L79.6721 61.2657L80.0047 61.2652L77.235 65.9372L76.3679 65.9384L73.5194 61.2746L73.9233 61.274L73.9348 66.8209L72.1294 66.8235ZM87.5123 66.9439C86.8551 66.9448 86.2451 66.8388 85.6825 66.6258C85.1277 66.4128 84.6441 66.1126 84.2315 65.7252C83.8269 65.3378 83.5092 64.8829 83.2784 64.3606C83.0556 63.8383 82.9436 63.2683 82.9423 62.6507C82.941 62.0331 83.0507 61.4628 83.2713 60.9398C83.4999 60.4169 83.8196 59.9611 84.2306 59.5725C84.6415 59.1839 85.1239 58.8823 85.6778 58.6677C86.2316 58.4531 86.8332 58.3454 87.4825 58.3444C88.1398 58.3435 88.7418 58.4495 89.2886 58.6625C89.8433 58.8755 90.323 59.1757 90.7277 59.5632C91.1403 59.9506 91.4619 60.4054 91.6926 60.9277C91.9233 61.4421 92.0394 62.012 92.0407 62.6376C92.0419 63.2552 91.9283 63.8295 91.6998 64.3604C91.4712 64.8833 91.1515 65.3391 90.7405 65.7277C90.3375 66.1084 89.859 66.406 89.3052 66.6206C88.7593 66.8352 88.1616 66.9429 87.5123 66.9439ZM87.497 65.3048C87.8692 65.3042 88.2096 65.2404 88.5181 65.1133C88.8346 64.9861 89.1114 64.8036 89.3484 64.5657C89.5855 64.3278 89.767 64.0464 89.893 63.7216C90.027 63.3967 90.0935 63.0363 90.0927 62.6404C90.0919 62.2445 90.0238 61.8843 89.8885 61.5598C89.7612 61.2354 89.5784 60.9545 89.3404 60.7173C89.1103 60.4801 88.8367 60.2983 88.5197 60.1721C88.2027 60.0459 87.8581 59.983 87.4859 59.9835C87.1138 59.9841 86.7694 60.0479 86.453 60.1751C86.1444 60.3022 85.8716 60.4847 85.6345 60.7226C85.3975 60.9605 85.212 61.2419 85.078 61.5668C84.952 61.8916 84.8894 62.252 84.8903 62.6479C84.8911 63.0359 84.9552 63.3961 85.0826 63.7285C85.2178 64.053 85.4006 64.3338 85.6307 64.571C85.8687 64.8082 86.1463 64.99 86.4633 65.1162C86.7803 65.2424 87.1249 65.3053 87.497 65.3048ZM97.5223 66.9295C96.873 66.9304 96.267 66.8244 95.7043 66.6114C95.1496 66.3984 94.6659 66.0982 94.2534 65.7108C93.8487 65.3233 93.531 64.8685 93.3003 64.3462C93.0775 63.8239 92.9654 63.2539 92.9642 62.6363C92.9629 62.0186 93.0725 61.4483 93.2932 60.9254C93.5217 60.4025 93.8415 59.9467 94.2524 59.5581C94.6634 59.1695 95.1458 58.8679 95.6996 58.6533C96.2535 58.4387 96.855 58.3309 97.5044 58.33C98.1616 58.329 98.7636 58.4351 99.3105 58.6481C99.8652 58.8611 100.345 59.1613 100.75 59.5487C101.162 59.9282 101.484 60.3791 101.714 60.9014C101.945 61.4237 102.061 61.9976 102.063 62.6232C102.064 63.2408 101.95 63.8151 101.722 64.3459C101.493 64.8689 101.173 65.3247 100.762 65.7133C100.359 66.0939 99.8809 66.3916 99.327 66.6062C98.7811 66.8208 98.1795 66.9285 97.5223 66.9295ZM100.246 68.6953C99.9213 68.6958 99.6124 68.6606 99.3193 68.5898C99.0341 68.5189 98.7488 68.4045 98.4634 68.2465C98.1859 68.0886 97.8925 67.8752 97.5831 67.6064C97.2816 67.3376 96.9523 67.0055 96.5952 66.6101L98.6133 66.0964C98.8277 66.3891 99.0262 66.6224 99.2087 66.7964C99.3911 66.9703 99.5656 67.0928 99.732 67.1638C99.9064 67.2349 100.089 67.2702 100.279 67.27C100.785 67.2692 101.236 67.0627 101.631 66.6504L102.489 67.6706C101.928 68.3524 101.18 68.694 100.246 68.6953ZM97.5189 65.2903C97.891 65.2898 98.2314 65.226 98.54 65.0988C98.8564 64.9717 99.1332 64.7891 99.3703 64.5513C99.6073 64.3134 99.7889 64.032 99.9149 63.7071C100.049 63.3744 100.115 63.014 100.115 62.626C100.114 62.2301 100.046 61.8699 99.9104 61.5454C99.783 61.2209 99.6003 60.9401 99.3622 60.7029C99.1242 60.4657 98.8467 60.2839 98.5297 60.1577C98.2206 60.0314 97.88 59.9686 97.5078 59.9691C97.1356 59.9697 96.7913 60.0335 96.4748 60.1606C96.1583 60.2878 95.8816 60.4703 95.6445 60.7082C95.4154 60.9461 95.2338 61.2275 95.0999 61.5523C94.9739 61.8772 94.9113 62.2375 94.9121 62.6335C94.9129 63.0215 94.977 63.3817 95.1044 63.7141C95.2397 64.0385 95.4224 64.3194 95.6525 64.5566C95.8906 64.7938 96.1681 64.9755 96.4851 65.1018C96.8021 65.228 97.1467 65.2909 97.5189 65.2903ZM106.507 64.1728L106.504 62.688L109.866 62.6832L109.869 64.1679L106.507 64.1728ZM117.131 66.9012C116.553 66.9021 115.979 66.8277 115.408 66.678C114.846 66.5205 114.362 66.2995 113.958 66.015L114.715 64.541C115.032 64.7702 115.397 64.9518 115.809 65.0858C116.229 65.2198 116.653 65.2865 117.08 65.2859C117.563 65.2852 117.943 65.1897 118.22 64.9992C118.497 64.8088 118.635 64.5433 118.634 64.2028C118.634 63.989 118.578 63.7991 118.467 63.6329C118.355 63.4668 118.157 63.3404 117.872 63.2537C117.595 63.167 117.203 63.124 116.696 63.1247L114.57 63.1278L114.987 58.4474L120.059 58.44L120.063 59.9842L115.68 59.9905L116.676 59.1101L116.386 62.4481L115.386 61.5706L117.144 61.5681C117.967 61.5669 118.629 61.6808 119.128 61.9097C119.635 62.1307 120.004 62.435 120.235 62.8227C120.465 63.2104 120.581 63.6497 120.582 64.1406C120.583 64.6316 120.461 65.0871 120.217 65.5071C119.972 65.9192 119.593 66.2563 119.078 66.5183C118.572 66.7725 117.923 66.9001 117.131 66.9012ZM124.932 66.89C124.251 66.891 123.641 66.7256 123.101 66.3938C122.562 66.0541 122.138 65.5637 121.827 64.9228C121.517 64.2818 121.361 63.506 121.359 62.5954C121.357 61.6848 121.51 60.9085 121.818 60.2667C122.125 59.6249 122.548 59.1373 123.086 58.8039C123.623 58.4626 124.233 58.2915 124.914 58.2905C125.603 58.2895 126.213 58.4589 126.744 58.7986C127.283 59.1304 127.708 59.6168 128.018 60.2578C128.328 60.8987 128.484 61.6745 128.486 62.5851C128.488 63.4958 128.335 64.272 128.028 64.9138C127.72 65.5557 127.298 66.0472 126.76 66.3885C126.23 66.7218 125.621 66.889 124.932 66.89ZM124.928 65.2628C125.253 65.2623 125.534 65.1708 125.771 64.9884C126.016 64.8059 126.206 64.5166 126.339 64.1205C126.481 63.7243 126.551 63.2135 126.55 62.5879C126.549 61.9624 126.476 61.4517 126.333 61.056C126.198 60.6603 126.007 60.3715 125.761 60.1897C125.523 60.008 125.242 59.9173 124.917 59.9178C124.6 59.9182 124.319 60.0097 124.074 60.1922C123.837 60.3746 123.648 60.6639 123.506 61.0601C123.372 61.4562 123.306 61.967 123.307 62.5926C123.309 63.2182 123.377 63.7288 123.512 64.1245C123.656 64.5202 123.846 64.809 124.084 64.9908C124.33 65.1726 124.612 65.2632 124.928 65.2628ZM132.993 66.8784C132.312 66.8794 131.702 66.714 131.163 66.3822C130.624 66.0424 130.199 65.5521 129.889 64.9112C129.579 64.2702 129.423 63.4944 129.421 62.5838C129.419 61.6732 129.572 60.8969 129.879 60.2551C130.187 59.6132 130.609 59.1256 131.147 58.7923C131.685 58.451 132.294 58.2799 132.975 58.2789C133.664 58.2779 134.274 58.4473 134.806 58.787C135.345 59.1188 135.769 59.6052 136.079 60.2462C136.39 60.8871 136.546 61.6629 136.548 62.5735C136.549 63.4842 136.397 64.2604 136.089 64.9022C135.782 65.5441 135.359 66.0356 134.821 66.3769C134.292 66.7102 133.682 66.8774 132.993 66.8784ZM132.99 65.2511C133.314 65.2507 133.595 65.1592 133.833 64.9767C134.078 64.7943 134.267 64.505 134.401 64.1089C134.543 63.7127 134.613 63.2019 134.612 62.5763C134.61 61.9508 134.538 61.4401 134.395 61.0444C134.259 60.6487 134.068 60.3599 133.823 60.1781C133.585 59.9964 133.303 59.9057 132.979 59.9062C132.662 59.9066 132.381 59.9981 132.136 60.1806C131.899 60.363 131.709 60.6523 131.568 61.0485C131.434 61.4446 131.368 61.9554 131.369 62.581C131.37 63.2065 131.439 63.7172 131.574 64.1129C131.717 64.5086 131.908 64.7974 132.146 64.9792C132.392 65.1609 132.673 65.2516 132.99 65.2511ZM141.055 66.8668C140.374 66.8678 139.764 66.7024 139.225 66.3706C138.685 66.0308 138.261 65.5405 137.951 64.8996C137.64 64.2586 137.484 63.4828 137.482 62.5722C137.481 61.6616 137.633 60.8853 137.941 60.2435C138.248 59.6016 138.671 59.114 139.209 58.7807C139.746 58.4394 140.356 58.2683 141.037 58.2673C141.726 58.2663 142.336 58.4357 142.867 58.7754C143.406 59.1072 143.831 59.5936 144.141 60.2346C144.451 60.8755 144.607 61.6513 144.609 62.5619C144.611 63.4725 144.458 64.2488 144.151 64.8906C143.843 65.5325 143.421 66.024 142.883 66.3653C142.353 66.6986 141.744 66.8658 141.055 66.8668ZM141.051 65.2395C141.376 65.2391 141.657 65.1476 141.894 64.9651C142.139 64.7827 142.329 64.4934 142.462 64.0972C142.604 63.7011 142.674 63.1903 142.673 62.5647C142.672 61.9392 142.599 61.4285 142.456 61.0328C142.321 60.6371 142.13 60.3483 141.884 60.1665C141.646 59.9848 141.365 59.8941 141.04 59.8946C140.723 59.895 140.443 59.9865 140.197 60.169C139.96 60.3514 139.771 60.6407 139.629 61.0369C139.495 61.433 139.429 61.9438 139.43 62.5694C139.432 63.1949 139.5 63.7056 139.636 64.1013C139.779 64.497 139.97 64.7858 140.207 64.9676C140.453 65.1493 140.735 65.24 141.051 65.2395ZM149.439 66.7122L149.422 58.3978L153.021 58.3926C153.765 58.3915 154.407 58.5133 154.946 58.758C155.485 58.9948 155.901 59.3387 156.195 59.7896C156.489 60.2405 156.637 60.7788 156.638 61.4043C156.639 62.022 156.494 62.5567 156.202 63.0085C155.91 63.4602 155.495 63.8093 154.957 64.0555C154.419 64.2938 153.778 64.4135 153.033 64.4146L150.503 64.4182L151.357 63.5499L151.363 66.7094L149.439 66.7122ZM151.357 63.7637L150.5 62.8504L152.923 62.8469C153.517 62.846 153.96 62.7187 154.253 62.4649C154.545 62.2111 154.691 61.8585 154.69 61.4071C154.689 60.9479 154.542 60.5918 154.248 60.3388C153.955 60.0858 153.511 59.9598 152.917 59.9606L150.494 59.9641L151.347 59.0483L151.357 63.7637ZM160.969 66.7906C160.28 66.7916 159.666 66.6539 159.127 66.3775C158.588 66.0933 158.163 65.7019 157.854 65.2035C157.552 64.705 157.4 64.1391 157.399 63.5056C157.397 62.8642 157.547 62.2978 157.846 61.8064C158.154 61.3071 158.577 60.9185 159.115 60.6406C159.653 60.3548 160.266 60.2113 160.955 60.2103C161.628 60.2094 162.214 60.3511 162.714 60.6354C163.213 60.9118 163.582 61.3112 163.821 61.8335L162.385 62.6076C162.219 62.3069 162.008 62.0855 161.755 61.9434C161.509 61.8012 161.239 61.7303 160.946 61.7307C160.63 61.7312 160.345 61.8028 160.092 61.9457C159.839 62.0886 159.637 62.2909 159.487 62.5524C159.345 62.8139 159.275 63.1307 159.275 63.5029C159.276 63.8751 159.348 64.1917 159.491 64.4528C159.642 64.7139 159.844 64.9155 160.098 65.0577C160.352 65.1999 160.637 65.2707 160.954 65.2703C161.247 65.2699 161.516 65.2022 161.761 65.0672C162.014 64.9243 162.224 64.6983 162.389 64.3893L163.828 65.1711C163.592 65.6862 163.224 66.0866 162.726 66.3724C162.228 66.6502 161.642 66.7896 160.969 66.7906ZM167.048 66.7819C166.502 66.7826 165.975 66.7201 165.468 66.5941C164.969 66.4602 164.573 66.2945 164.279 66.0969L164.894 64.7657C165.187 64.9474 165.532 65.0974 165.928 65.2156C166.332 65.3259 166.728 65.3807 167.116 65.3802C167.544 65.3796 167.845 65.3277 168.019 65.2245C168.201 65.1213 168.291 64.9786 168.291 64.7965C168.291 64.646 168.219 64.5353 168.077 64.4642C167.942 64.3852 167.76 64.3261 167.53 64.2868C167.3 64.2476 167.047 64.2083 166.769 64.1692C166.5 64.1299 166.227 64.0789 165.95 64.0159C165.672 63.9451 165.419 63.8425 165.189 63.7082C164.959 63.5739 164.772 63.3921 164.629 63.1626C164.494 62.9332 164.426 62.6363 164.426 62.2721C164.425 61.8682 164.539 61.5117 164.768 61.2026C165.005 60.8934 165.345 60.6514 165.788 60.4766C166.231 60.2938 166.761 60.202 167.379 60.2011C167.814 60.2005 168.258 60.2473 168.709 60.3417C169.161 60.4361 169.537 60.5741 169.839 60.7558L169.224 62.0751C168.915 61.8935 168.602 61.7712 168.285 61.7083C167.976 61.6375 167.675 61.6023 167.382 61.6027C166.97 61.6033 166.669 61.6591 166.479 61.7703C166.29 61.8814 166.195 62.0241 166.195 62.1983C166.196 62.3566 166.263 62.4753 166.398 62.5543C166.541 62.6333 166.727 62.6964 166.957 62.7436C167.186 62.7907 167.436 62.8339 167.705 62.8731C167.982 62.9044 168.26 62.9555 168.537 63.0263C168.814 63.0972 169.064 63.1998 169.286 63.3341C169.516 63.4605 169.702 63.6383 169.845 63.8678C169.988 64.0893 170.06 64.3822 170.061 64.7464C170.062 65.1423 169.944 65.4949 169.707 65.8041C169.47 66.1053 169.126 66.3433 168.675 66.5182C168.232 66.6931 167.689 66.7809 167.048 66.7819ZM172.246 68.9836L170.476 68.9862C170.989 68.0907 171.356 67.1914 171.575 66.2884C171.803 65.3774 171.916 64.4231 171.914 63.4253C171.912 62.4276 171.795 61.4775 171.564 60.5752C171.34 59.6649 170.97 58.7627 170.453 57.8686L172.223 57.8661C172.715 58.5701 173.089 59.401 173.345 60.3588C173.6 61.3087 173.729 62.33 173.731 63.4227C173.734 64.5155 173.609 65.5371 173.358 66.4877C173.106 67.4304 172.736 68.2624 172.246 68.9836Z" fill="black"/>
<path d="M176.667 62.0947H211.434" stroke="url(#paint0_linear_2040_1139)" stroke-width="0.863039"/>
<path d="M34.7666 62.8018H7.65324e-05" stroke="url(#paint1_linear_2040_1139)" stroke-width="0.863039"/>
<defs>
<linearGradient id="paint0_linear_2040_1139" x1="206.219" y1="62.5947" x2="177.246" y2="62.5947" gradientUnits="userSpaceOnUse">
<stop stop-color="#666666" stop-opacity="0"/>
<stop offset="1"/>
</linearGradient>
<linearGradient id="paint1_linear_2040_1139" x1="5.21505" y1="63.3017" x2="34.1872" y2="63.3017" gradientUnits="userSpaceOnUse">
<stop stop-color="#666666" stop-opacity="0"/>
<stop offset="1"/>
</linearGradient>
</defs>
</svg>
