<svg width="326" height="76" viewBox="0 0 326 76" fill="none" xmlns="http://www.w3.org/2000/svg">
<path d="M17.2021 45.8747C15.1952 45.8776 13.2715 45.6176 11.4308 45.0946C9.59004 44.5478 8.10734 43.8451 6.98268 42.9867L8.94456 38.6118C10.0212 39.3748 11.2888 40.0061 12.7472 40.5057C14.2294 40.9814 15.7231 41.2181 17.2282 41.216C18.3749 41.2143 19.2945 41.1055 19.9869 40.8895C20.7031 40.6495 21.228 40.3262 21.5617 39.9196C21.8953 39.513 22.0616 39.0469 22.0605 38.5213C22.0591 37.8523 21.7952 37.3271 21.2688 36.9456C20.7423 36.5402 20.0488 36.2187 19.1883 35.981C18.3276 35.7195 17.3715 35.482 16.3199 35.2685C15.2921 35.031 14.2522 34.7458 13.2003 34.4129C12.1723 34.0799 11.2277 33.6512 10.3666 33.1268C9.50541 32.6025 8.79919 31.9107 8.24791 31.0514C7.72052 30.1921 7.45543 29.0935 7.45264 27.7556C7.44965 26.3221 7.82919 25.0196 8.59126 23.8478C9.37717 22.6521 10.5458 21.7068 12.0973 21.0117C13.6726 20.2927 15.6429 19.9315 18.008 19.9281C19.5848 19.9258 21.1381 20.1147 22.6679 20.4948C24.1977 20.8509 25.5487 21.3985 26.7209 22.1374L24.9383 26.5478C23.7662 25.8806 22.5945 25.3925 21.4232 25.0836C20.2519 24.7508 19.1048 24.5852 17.9819 24.5868C16.859 24.5885 15.9395 24.7212 15.2234 24.985C14.5072 25.2488 13.9942 25.596 13.6846 26.0265C13.3748 26.4331 13.2205 26.9111 13.2217 27.4606C13.223 28.1057 13.4869 28.6309 14.0134 29.0363C14.5398 29.4178 15.2332 29.7273 16.0938 29.965C16.9544 30.2027 17.8986 30.4402 18.9264 30.6777C19.9781 30.915 21.0179 31.1883 22.0458 31.4974C23.0977 31.8065 24.0542 32.2232 24.9153 32.7475C25.7765 33.2719 26.4708 33.9637 26.9982 34.823C27.5495 35.6823 27.8265 36.769 27.8292 38.0829C27.8321 39.4925 27.4406 40.7832 26.6547 41.955C25.8687 43.1267 24.6881 44.0721 23.1128 44.7911C21.5614 45.5101 19.5911 45.8713 17.2021 45.8747ZM33.2449 45.4216L33.1926 20.3363L45.4486 20.3186C48.6022 20.3141 50.9686 20.9079 52.5479 22.1002C54.151 23.2924 54.9547 24.8681 54.9588 26.8271C54.9615 28.1411 54.6414 29.2883 53.9984 30.2688C53.3553 31.2254 52.4729 31.9672 51.3511 32.4945C50.2293 33.0217 48.9398 33.2863 47.4824 33.2884L48.1603 31.8182C49.7371 31.8159 51.1352 32.0767 52.3547 32.6005C53.5742 33.1005 54.5195 33.8517 55.1905 34.8541C55.8854 35.8565 56.2344 37.0864 56.2375 38.5438C56.2419 40.6939 55.3973 42.3795 53.7036 43.6003C52.0099 44.7973 49.5145 45.3982 46.2176 45.4029L33.2449 45.4216ZM39.0054 41.0413L45.7784 41.0315C47.2836 41.0294 48.4179 40.7888 49.1814 40.3099C49.9687 39.8071 50.3613 39.0181 50.359 37.943C50.3569 36.8918 49.961 36.1159 49.1716 35.6154C48.406 35.0909 47.2706 34.8297 45.7655 34.8319L38.5624 34.8422L38.5536 30.6136L44.7533 30.6046C46.1628 30.6026 47.2374 30.3622 47.977 29.8833C48.7405 29.3805 49.1212 28.6274 49.1191 27.6239C49.1171 26.6444 48.7333 25.9163 47.9678 25.4396C47.2261 24.9389 46.1505 24.6896 44.741 24.6917L38.9713 24.7L39.0054 41.0413ZM60.9531 37.5336L60.9438 33.054L71.0855 33.0394L71.0948 37.519L60.9531 37.5336ZM81.2038 45.3525L81.1614 24.9976L73.1341 25.0092L73.1242 20.2788L94.9843 20.2473L94.9942 24.9777L86.9668 24.9892L87.0093 45.3442L81.2038 45.3525ZM99.5937 45.3261L99.5414 20.2407L118.499 20.2135L118.508 24.8722L105.321 24.8911L105.354 40.6591L119.007 40.6394L119.017 45.2981L99.5937 45.3261ZM104.911 34.8542L104.902 30.3389L116.979 30.3215L116.988 34.8368L104.911 34.8542ZM123.242 37.4439L123.233 32.9644L133.375 32.9498L133.384 37.4293L123.242 37.4439ZM141.15 45.2662L141.102 22.3311L143.616 24.836L136.091 24.8468L136.081 20.1881L146.903 20.1726L146.956 45.2579L141.15 45.2662ZM163.499 45.6641C161.444 45.6671 159.603 45.168 157.977 44.1669C156.35 43.142 155.069 41.6626 154.133 39.7288C153.197 37.795 152.726 35.4543 152.721 32.7069C152.715 29.9594 153.176 27.6175 154.104 25.681C155.031 23.7445 156.307 22.2734 157.929 21.2676C159.551 20.238 161.39 19.7217 163.445 19.7187C165.523 19.7157 167.364 20.2267 168.967 21.2517C170.593 22.2528 171.874 23.7202 172.81 25.6541C173.746 27.5879 174.217 29.9285 174.222 32.6759C174.228 35.4234 173.767 37.7653 172.84 39.7018C171.912 41.6383 170.637 43.1214 169.014 44.151C167.416 45.1568 165.577 45.6611 163.499 45.6641ZM163.488 40.7545C164.468 40.7531 165.316 40.4772 166.031 39.9267C166.771 39.3761 167.342 38.5033 167.746 37.3081C168.173 36.113 168.385 34.5717 168.381 32.6843C168.377 30.797 168.159 29.2563 167.727 28.0624C167.318 26.8684 166.743 25.9973 166.001 25.4488C165.283 24.9004 164.434 24.6269 163.455 24.6283C162.499 24.6296 161.652 24.9056 160.912 25.4562C160.197 26.0067 159.625 26.8795 159.197 28.0747C158.794 29.2698 158.594 30.8111 158.598 32.6984C158.602 34.5858 158.808 36.1265 159.217 37.3204C159.649 38.5143 160.224 39.3855 160.942 39.934C161.684 40.4824 162.533 40.7559 163.488 40.7545ZM189.255 45.627C187.2 45.63 185.359 45.1309 183.733 44.1299C182.106 43.1049 180.825 41.6255 179.889 39.6917C178.953 37.7579 178.482 35.4172 178.477 32.6698C178.471 29.9224 178.932 27.5804 179.86 25.6439C180.787 23.7074 182.062 22.2363 183.685 21.2305C185.307 20.2009 187.146 19.6846 189.2 19.6816C191.279 19.6786 193.12 20.1896 194.722 21.2146C196.349 22.2157 197.63 23.6832 198.566 25.617C199.502 27.5508 199.973 29.8914 199.978 32.6389C199.984 35.3863 199.523 37.7283 198.595 39.6648C197.668 41.6013 196.393 43.0843 194.77 44.114C193.172 45.1197 191.333 45.624 189.255 45.627ZM189.244 40.7175C190.224 40.7161 191.071 40.4401 191.787 39.8896C192.526 39.339 193.098 38.4662 193.502 37.2711C193.929 36.0759 194.141 34.5346 194.137 32.6473C194.133 30.7599 193.915 29.2192 193.482 28.0253C193.074 26.8314 192.499 25.9602 191.757 25.4118C191.039 24.8633 190.19 24.5898 189.211 24.5912C188.255 24.5926 187.408 24.8685 186.668 25.4191C185.952 25.9696 185.381 26.8424 184.953 28.0376C184.55 29.2327 184.35 30.774 184.354 32.6613C184.358 34.5487 184.564 36.0894 184.973 37.2833C185.405 38.4773 185.98 39.3484 186.698 39.8969C187.44 40.4453 188.289 40.7188 189.244 40.7175ZM215.01 45.5899C212.956 45.5929 211.115 45.0938 209.489 44.0928C207.862 43.0678 206.581 41.5884 205.645 39.6546C204.709 37.7208 204.238 35.3802 204.233 32.6327C204.227 29.8853 204.688 27.5433 205.615 25.6068C206.543 23.6703 207.818 22.1992 209.441 21.1935C211.063 20.1638 212.902 19.6475 214.956 19.6446C217.035 19.6416 218.876 20.1526 220.478 21.1776C222.105 22.1786 223.386 23.6461 224.322 25.5799C225.258 27.5137 225.729 29.8543 225.734 32.6018C225.74 35.3492 225.279 37.6912 224.351 39.6277C223.424 41.5642 222.149 43.0472 220.526 44.0769C218.927 45.0826 217.089 45.587 215.01 45.5899ZM215 40.6804C215.98 40.679 216.827 40.403 217.543 39.8525C218.282 39.3019 218.854 38.4291 219.258 37.234C219.685 36.0388 219.897 34.4976 219.893 32.6102C219.889 30.7228 219.671 29.1822 219.238 27.9882C218.83 26.7943 218.254 25.9231 217.513 25.3747C216.795 24.8262 215.946 24.5527 214.967 24.5541C214.011 24.5555 213.163 24.8314 212.424 25.382C211.708 25.9325 211.137 26.8054 210.709 28.0005C210.306 29.1956 210.106 30.7369 210.11 32.6243C210.114 34.5116 210.32 36.0523 210.729 37.2463C211.161 38.4402 211.736 39.3114 212.454 39.8598C213.196 40.4082 214.045 40.6818 215 40.6804ZM251.861 52.3458C250.045 52.3484 248.289 52.124 246.592 51.6725C244.919 51.2449 243.52 50.5899 242.395 49.7075L244.608 45.6907C245.422 46.3585 246.45 46.8826 247.694 47.263C248.961 47.6674 250.203 47.8686 251.422 47.8669C253.405 47.864 254.837 47.42 255.719 46.5348C256.625 45.6495 257.077 44.3348 257.073 42.5908L257.067 39.6881L257.415 34.8497L257.333 29.9761L257.325 25.8191L262.628 25.8114L262.662 41.866C262.669 45.4497 261.743 48.0909 259.883 49.7899C258.023 51.4888 255.349 52.3408 251.861 52.3458ZM250.984 44.1764C249.192 44.179 247.567 43.799 246.108 43.0366C244.673 42.2503 243.512 41.1649 242.625 39.7805C241.762 38.3722 241.329 36.7363 241.325 34.8728C241.321 32.9855 241.747 31.3483 242.605 29.9614C243.486 28.5506 244.642 27.4619 246.074 26.6953C247.53 25.9287 249.153 25.5441 250.945 25.5416C252.57 25.5392 254.004 25.8716 255.248 26.5388C256.491 27.182 257.461 28.196 258.157 29.5807C258.852 30.9415 259.203 32.6969 259.207 34.8471C259.211 36.9734 258.869 38.7299 258.179 40.1165C257.489 41.4793 256.523 42.496 255.282 43.1668C254.041 43.8375 252.609 44.174 250.984 44.1764ZM252.085 39.5877C253.065 39.5863 253.937 39.394 254.7 39.0106C255.464 38.6034 256.06 38.0411 256.489 37.3237C256.917 36.6064 257.13 35.7818 257.128 34.8501C257.126 33.8945 256.91 33.0705 256.478 32.3783C256.047 31.6622 255.448 31.1136 254.683 30.7324C253.918 30.3274 253.045 30.1256 252.066 30.127C251.086 30.1284 250.215 30.3327 249.451 30.74C248.687 31.1233 248.079 31.6737 247.627 32.3911C247.198 33.0845 246.985 33.9091 246.987 34.8647C246.989 35.7964 247.206 36.6204 247.637 37.3365C248.092 38.0525 248.703 38.6131 249.468 39.0181C250.234 39.3993 251.106 39.5892 252.085 39.5877Z" fill="#490606"/>
<path d="M43.4801 69.17C43.0034 68.4501 42.6335 67.6192 42.3702 66.6773C42.1148 65.7274 41.986 64.7061 41.9837 63.6134C41.9815 62.5206 42.106 61.4989 42.3574 60.5484C42.6168 59.5898 42.9832 58.7579 43.4569 58.0524L45.2267 58.0499C44.7297 58.9454 44.3673 59.8486 44.1396 60.7596C43.9118 61.6626 43.799 62.613 43.801 63.6107C43.8031 64.6085 43.9199 65.5625 44.1515 66.4728C44.383 67.3752 44.7491 68.2734 45.2498 69.1674L43.4801 69.17ZM46.3547 66.8616L46.3373 58.5472L48.2615 58.5444L48.2789 66.8588L46.3547 66.8616ZM50.2521 66.856L50.2347 58.5415L51.8263 58.5393L55.3781 64.4018L54.5348 64.403L58.0028 58.5304L59.5825 58.5281L59.6236 66.8425L57.8182 66.8451L57.7947 61.2982L58.1273 61.2977L55.3577 65.9697L54.4906 65.9709L51.6421 61.307L52.0459 61.3065L52.0575 66.8534L50.2521 66.856ZM61.5962 66.8396L61.5789 58.5252L63.5031 58.5224L63.5172 65.269L67.6862 65.263L67.6895 66.8309L61.5962 66.8396ZM72.1284 66.8245L72.1111 58.5101L73.7027 58.5078L77.2545 64.3703L76.4112 64.3715L79.8792 58.4989L81.4589 58.4966L81.5 66.811L79.6946 66.8136L79.6711 61.2667L80.0037 61.2662L77.234 65.9382L76.367 65.9394L73.5185 61.2755L73.9223 61.275L73.9339 66.8219L72.1284 66.8245ZM87.5113 66.9449C86.8541 66.9458 86.2442 66.8398 85.6815 66.6268C85.1268 66.4138 84.6431 66.1136 84.2305 65.7262C83.8259 65.3387 83.5082 64.8839 83.2775 64.3616C83.0547 63.8393 82.9426 63.2693 82.9413 62.6517C82.94 62.034 83.0497 61.4637 83.2703 60.9408C83.4989 60.4179 83.8186 59.9621 84.2296 59.5735C84.6405 59.1849 85.1229 58.8833 85.6768 58.6687C86.2306 58.4541 86.8322 58.3463 87.4815 58.3454C88.1388 58.3444 88.7408 58.4505 89.2876 58.6635C89.8424 58.8765 90.3221 59.1767 90.7267 59.5641C91.1393 59.9515 91.4609 60.4064 91.6917 60.9287C91.9224 61.4431 92.0384 62.013 92.0397 62.6386C92.041 63.2562 91.9273 63.8305 91.6988 64.3613C91.4703 64.8843 91.1505 65.3401 90.7396 65.7287C90.3365 66.1093 89.8581 66.407 89.3042 66.6216C88.7583 66.8362 88.1607 66.9439 87.5113 66.9449ZM87.496 65.3057C87.8682 65.3052 88.2086 65.2414 88.5171 65.1142C88.8336 64.9871 89.1104 64.8046 89.3474 64.5667C89.5845 64.3288 89.766 64.0474 89.8921 63.7225C90.026 63.3977 90.0926 63.0373 90.0917 62.6414C90.0909 62.2455 90.0228 61.8853 89.8876 61.5608C89.7602 61.2363 89.5775 60.9555 89.3394 60.7183C89.1093 60.481 88.8357 60.2993 88.5187 60.1731C88.2017 60.0468 87.8571 59.984 87.485 59.9845C87.1128 59.9851 86.7685 60.0489 86.452 60.1761C86.1434 60.3032 85.8706 60.4857 85.6336 60.7236C85.3965 60.9615 85.211 61.2429 85.0771 61.5677C84.9511 61.8926 84.8885 62.253 84.8893 62.6489C84.8901 63.0369 84.9542 63.3971 85.0816 63.7295C85.2169 64.0539 85.3996 64.3348 85.6297 64.572C85.8678 64.8092 86.1453 64.9909 86.4623 65.1172C86.7793 65.2434 87.1239 65.3063 87.496 65.3057ZM97.5213 66.9304C96.872 66.9314 96.266 66.8253 95.7034 66.6124C95.1486 66.3994 94.665 66.0991 94.2524 65.7117C93.8477 65.3243 93.53 64.8695 93.2993 64.3472C93.0765 63.8249 92.9645 63.2549 92.9632 62.6373C92.9619 62.0196 93.0716 61.4493 93.2922 60.9264C93.5207 60.4034 93.8405 59.9477 94.2514 59.5591C94.6624 59.1705 95.1448 58.8689 95.6986 58.6543C96.2525 58.4397 96.8541 58.3319 97.5034 58.331C98.1606 58.33 98.7627 58.4361 99.3095 58.6491C99.8642 58.8621 100.344 59.1623 100.749 59.5497C101.161 59.9292 101.483 60.3801 101.713 60.9024C101.944 61.4247 102.06 61.9986 102.062 62.6242C102.063 63.2418 101.949 63.8161 101.721 64.3469C101.492 64.8699 101.172 65.3256 100.761 65.7142C100.358 66.0949 99.8799 66.3925 99.3261 66.6071C98.7801 66.8217 98.1785 66.9295 97.5213 66.9304ZM100.245 68.6963C99.9203 68.6968 99.6115 68.6616 99.3183 68.5907C99.0331 68.5199 98.7478 68.4055 98.4624 68.2475C98.1849 68.0895 97.8915 67.8762 97.5821 67.6074C97.2806 67.3386 96.9513 67.0065 96.5942 66.6111L98.6123 66.0974C98.8267 66.3901 99.0252 66.6234 99.2077 66.7974C99.3902 66.9713 99.5646 67.0938 99.7311 67.1648C99.9054 67.2358 100.088 67.2712 100.278 67.2709C100.784 67.2702 101.235 67.0637 101.63 66.6513L102.488 67.6716C101.927 68.3534 101.179 68.695 100.245 68.6963ZM97.5179 65.2913C97.8901 65.2908 98.2304 65.2269 98.539 65.0998C98.8555 64.9726 99.1322 64.7901 99.3693 64.5522C99.6063 64.3143 99.7879 64.033 99.9139 63.7081C100.048 63.3754 100.114 63.015 100.114 62.627C100.113 62.231 100.045 61.8708 99.9094 61.5464C99.782 61.2219 99.5993 60.9411 99.3613 60.7038C99.1232 60.4666 98.8457 60.2849 98.5287 60.1587C98.2196 60.0324 97.879 59.9696 97.5068 59.9701C97.1346 59.9706 96.7903 60.0345 96.4738 60.1616C96.1574 60.2888 95.8806 60.4713 95.6435 60.7092C95.4144 60.9471 95.2329 61.2284 95.0989 61.5533C94.9729 61.8781 94.9103 62.2385 94.9111 62.6344C94.9119 63.0225 94.976 63.3827 95.1034 63.715C95.2387 64.0395 95.4214 64.3204 95.6516 64.5576C95.8896 64.7948 96.1671 64.9765 96.4841 65.1028C96.8011 65.229 97.1457 65.2918 97.5179 65.2913ZM106.506 64.1737L106.503 62.689L109.865 62.6842L109.868 64.1689L106.506 64.1737ZM117 66.9024C116.422 66.9032 115.847 66.8288 115.277 66.6792C114.706 66.5217 114.223 66.3006 113.826 66.0161L114.572 64.5422C114.889 64.7714 115.257 64.953 115.677 65.087C116.097 65.221 116.521 65.2877 116.949 65.2871C117.432 65.2864 117.812 65.1908 118.088 65.0004C118.365 64.8099 118.503 64.5484 118.502 64.2159C118.502 63.8991 118.379 63.6499 118.133 63.4681C117.887 63.2863 117.491 63.1958 116.944 63.1966L116.065 63.1979L116.063 61.927L118.373 59.2987L118.589 59.9873L114.23 59.9935L114.226 58.4494L120.046 58.441L120.049 59.6882L117.75 62.3165L116.775 61.7596L117.333 61.7588C118.355 61.7574 119.127 61.9859 119.651 62.4444C120.175 62.9029 120.437 63.4925 120.439 64.2131C120.44 64.6803 120.318 65.1199 120.073 65.532C119.828 65.9362 119.453 66.2654 118.947 66.5195C118.441 66.7736 117.791 66.9013 117 66.9024ZM124.896 66.891C124.215 66.892 123.605 66.7266 123.066 66.3948C122.527 66.0551 122.102 65.5647 121.792 64.9238C121.482 64.2828 121.326 63.507 121.324 62.5964C121.322 61.6858 121.475 60.9096 121.782 60.2677C122.089 59.6259 122.512 59.1383 123.05 58.8049C123.588 58.4637 124.197 58.2925 124.878 58.2916C125.567 58.2906 126.177 58.4599 126.708 58.7997C127.247 59.1315 127.672 59.6178 127.982 60.2588C128.292 60.8997 128.448 61.6755 128.45 62.5862C128.452 63.4968 128.299 64.273 127.992 64.9149C127.684 65.5567 127.262 66.0483 126.724 66.3895C126.194 66.7229 125.585 66.89 124.896 66.891ZM124.892 65.2638C125.217 65.2633 125.498 65.1718 125.735 64.9894C125.98 64.8069 126.17 64.5176 126.304 64.1215C126.445 63.7254 126.515 63.2145 126.514 62.5889C126.513 61.9634 126.441 61.4527 126.297 61.057C126.162 60.6613 125.971 60.3725 125.725 60.1908C125.487 60.009 125.206 59.9183 124.881 59.9188C124.565 59.9193 124.284 60.0107 124.039 60.1932C123.801 60.3757 123.612 60.665 123.47 61.0611C123.336 61.4572 123.27 61.9681 123.272 62.5936C123.273 63.2192 123.341 63.7298 123.477 64.1256C123.62 64.5213 123.811 64.81 124.049 64.9918C124.294 65.1736 124.576 65.2642 124.892 65.2638ZM132.957 66.8794C132.276 66.8804 131.666 66.715 131.127 66.3832C130.588 66.0435 130.163 65.5531 129.853 64.9122C129.543 64.2712 129.387 63.4954 129.385 62.5848C129.383 61.6742 129.536 60.898 129.844 60.2561C130.151 59.6143 130.574 59.1267 131.111 58.7933C131.649 58.4521 132.259 58.2809 132.94 58.2799C133.628 58.279 134.239 58.4483 134.77 58.7881C135.309 59.1199 135.734 59.6062 136.044 60.2472C136.354 60.8881 136.51 61.6639 136.512 62.5746C136.514 63.4852 136.361 64.2614 136.053 64.9033C135.746 65.5451 135.323 66.0367 134.786 66.3779C134.256 66.7113 133.646 66.8784 132.957 66.8794ZM132.954 65.2522C133.279 65.2517 133.56 65.1602 133.797 64.9778C134.042 64.7953 134.231 64.506 134.365 64.1099C134.507 63.7137 134.577 63.2029 134.576 62.5773C134.574 61.9518 134.502 61.4411 134.359 61.0454C134.223 60.6497 134.033 60.3609 133.787 60.1792C133.549 59.9974 133.268 59.9067 132.943 59.9072C132.626 59.9077 132.345 59.9991 132.1 60.1816C131.863 60.3641 131.674 60.6534 131.532 61.0495C131.398 61.4456 131.332 61.9565 131.333 62.582C131.334 63.2076 131.403 63.7182 131.538 64.1139C131.682 64.5097 131.872 64.7984 132.11 64.9802C132.356 65.162 132.637 65.2526 132.954 65.2522ZM141.019 66.8678C140.338 66.8688 139.728 66.7034 139.189 66.3716C138.65 66.0319 138.225 65.5415 137.915 64.9006C137.605 64.2596 137.449 63.4838 137.447 62.5732C137.445 61.6626 137.598 60.8864 137.905 60.2445C138.213 59.6027 138.635 59.1151 139.173 58.7817C139.711 58.4404 140.32 58.2693 141.001 58.2683C141.69 58.2674 142.3 58.4367 142.831 58.7765C143.37 59.1083 143.795 59.5946 144.105 60.2356C144.415 60.8765 144.571 61.6523 144.573 62.563C144.575 63.4736 144.422 64.2498 144.115 64.8917C143.807 65.5335 143.385 66.0251 142.847 66.3663C142.317 66.6997 141.708 66.8668 141.019 66.8678ZM141.016 65.2406C141.34 65.2401 141.621 65.1486 141.858 64.9662C142.103 64.7837 142.293 64.4944 142.427 64.0983C142.568 63.7021 142.639 63.1913 142.637 62.5657C142.636 61.9402 142.564 61.4295 142.42 61.0338C142.285 60.6381 142.094 60.3493 141.848 60.1676C141.61 59.9858 141.329 59.8951 141.004 59.8956C140.688 59.896 140.407 59.9875 140.162 60.17C139.925 60.3525 139.735 60.6418 139.593 61.0379C139.46 61.434 139.393 61.9448 139.395 62.5704C139.396 63.196 139.464 63.7066 139.6 64.1023C139.743 64.4981 139.934 64.7868 140.172 64.9686C140.418 65.1504 140.699 65.241 141.016 65.2406ZM149.403 66.7132L149.386 58.3988L152.985 58.3936C153.729 58.3926 154.371 58.5144 154.91 58.7591C155.449 58.9958 155.865 59.3397 156.159 59.7906C156.453 60.2416 156.601 60.7798 156.602 61.4054C156.603 62.023 156.458 62.5577 156.166 63.0095C155.874 63.4613 155.459 63.8103 154.921 64.0565C154.383 64.2949 153.742 64.4146 152.998 64.4156L150.468 64.4193L151.321 63.551L151.328 66.7104L149.403 66.7132ZM151.321 63.7648L150.464 62.8514L152.887 62.8479C153.481 62.8471 153.924 62.7197 154.217 62.4659C154.509 62.2121 154.655 61.8595 154.654 61.4082C154.653 60.9489 154.506 60.5928 154.212 60.3398C153.919 60.0868 153.475 59.9608 152.881 59.9616L150.458 59.9651L151.312 59.0493L151.321 63.7648ZM160.933 66.7916C160.244 66.7926 159.63 66.6549 159.091 66.3786C158.552 66.0943 158.128 65.7029 157.818 65.2045C157.516 64.7061 157.364 64.1401 157.363 63.5066C157.362 62.8652 157.511 62.2989 157.811 61.8075C158.118 61.3082 158.541 60.9195 159.079 60.6416C159.617 60.3558 160.23 60.2124 160.919 60.2114C161.592 60.2104 162.179 60.3521 162.678 60.6364C163.178 60.9129 163.547 61.3122 163.785 61.8345L162.35 62.6086C162.183 62.308 161.972 62.0865 161.719 61.9444C161.473 61.8022 161.204 61.7313 160.911 61.7317C160.594 61.7322 160.309 61.8039 160.056 61.9468C159.803 62.0897 159.601 62.2919 159.451 62.5534C159.309 62.8149 159.239 63.1318 159.24 63.5039C159.24 63.8761 159.312 64.1927 159.455 64.4538C159.606 64.7149 159.809 64.9166 160.062 65.0587C160.316 65.2009 160.601 65.2718 160.918 65.2713C161.211 65.2709 161.48 65.2032 161.725 65.0682C161.978 64.9253 162.188 64.6993 162.353 64.3903L163.792 65.1721C163.556 65.6872 163.188 66.0876 162.69 66.3734C162.192 66.6513 161.606 66.7907 160.933 66.7916ZM167.012 66.7829C166.466 66.7837 165.939 66.7211 165.432 66.5951C164.933 66.4612 164.537 66.2955 164.243 66.098L164.858 64.7668C165.152 64.9485 165.496 65.0984 165.893 65.2166C166.297 65.3269 166.693 65.3818 167.081 65.3812C167.508 65.3806 167.809 65.3287 167.983 65.2255C168.165 65.1223 168.256 64.9796 168.255 64.7975C168.255 64.6471 168.184 64.5363 168.041 64.4652C167.906 64.3862 167.724 64.3271 167.494 64.2879C167.264 64.2486 167.011 64.2094 166.734 64.1702C166.464 64.131 166.191 64.0799 165.914 64.0169C165.636 63.9461 165.383 63.8435 165.153 63.7092C164.923 63.5749 164.737 63.3931 164.594 63.1636C164.458 62.9342 164.391 62.6374 164.39 62.2731C164.389 61.8693 164.503 61.5128 164.732 61.2036C164.969 60.8945 165.309 60.6525 165.752 60.4776C166.195 60.2948 166.725 60.203 167.343 60.2021C167.779 60.2015 168.222 60.2484 168.674 60.3427C169.125 60.4371 169.502 60.5751 169.803 60.7568L169.188 62.0762C168.879 61.8945 168.566 61.7722 168.249 61.7093C167.94 61.6385 167.639 61.6033 167.346 61.6037C166.934 61.6043 166.633 61.6602 166.444 61.7713C166.254 61.8824 166.159 62.0251 166.159 62.1993C166.16 62.3577 166.227 62.4763 166.362 62.5553C166.505 62.6343 166.691 62.6974 166.921 62.7446C167.15 62.7918 167.4 62.835 167.669 62.8742C167.947 62.9054 168.224 62.9565 168.501 63.0274C168.778 63.0982 169.028 63.2008 169.25 63.3351C169.48 63.4615 169.666 63.6394 169.809 63.8688C169.952 64.0903 170.024 64.3832 170.025 64.7475C170.026 65.1434 169.908 65.4959 169.671 65.8051C169.434 66.1063 169.09 66.3444 168.639 66.5192C168.196 66.6941 167.654 66.782 167.012 66.7829ZM170.441 68.9872C170.954 68.0917 171.32 67.1924 171.54 66.2894C171.767 65.3784 171.88 64.4241 171.878 63.4264C171.876 62.4286 171.759 61.4786 171.528 60.5762C171.304 59.6659 170.934 58.7637 170.418 57.8697L172.187 57.8671C172.68 58.5711 173.054 59.4021 173.309 60.3598C173.564 61.3097 173.693 62.331 173.695 63.4237C173.698 64.5165 173.573 65.5382 173.322 66.4887C173.07 67.4314 172.7 68.2634 172.21 68.9847L170.441 68.9872Z" fill="black"/>
<path d="M176.666 62.0957H211.433" stroke="url(#paint0_linear_2671_145)" stroke-width="0.863039"/>
<path d="M34.7656 62.8027H-0.00090003" stroke="url(#paint1_linear_2671_145)" stroke-width="0.863039"/>
<defs>
<linearGradient id="paint0_linear_2671_145" x1="206.218" y1="62.5957" x2="177.245" y2="62.5957" gradientUnits="userSpaceOnUse">
<stop stop-color="#666666" stop-opacity="0"/>
<stop offset="1"/>
</linearGradient>
<linearGradient id="paint1_linear_2671_145" x1="5.21408" y1="63.3027" x2="34.1862" y2="63.3027" gradientUnits="userSpaceOnUse">
<stop stop-color="#666666" stop-opacity="0"/>
<stop offset="1"/>
</linearGradient>
</defs>
</svg>
