<svg width="319" height="38" viewBox="0 0 319 38" fill="none" xmlns="http://www.w3.org/2000/svg">
<path d="M26.3864 14.084C25.6584 14.084 24.9584 13.9673 24.2864 13.734C23.6237 13.4913 23.1104 13.1833 22.7464 12.81L23.1524 12.012C23.4977 12.348 23.9597 12.6327 24.5384 12.866C25.1264 13.09 25.7424 13.202 26.3864 13.202C27.0024 13.202 27.5017 13.1273 27.8844 12.978C28.2764 12.8193 28.561 12.6093 28.7384 12.348C28.925 12.0867 29.0184 11.7973 29.0184 11.48C29.0184 11.0973 28.9064 10.7893 28.6824 10.556C28.4677 10.3227 28.183 10.1407 27.8284 10.01C27.4737 9.87 27.0817 9.74867 26.6524 9.646C26.223 9.54333 25.7937 9.436 25.3644 9.324C24.935 9.20267 24.5384 9.044 24.1744 8.848C23.8197 8.652 23.5304 8.39533 23.3064 8.078C23.0917 7.75133 22.9844 7.32667 22.9844 6.804C22.9844 6.31867 23.1104 5.87533 23.3624 5.474C23.6237 5.06333 24.0204 4.73667 24.5524 4.494C25.0844 4.242 25.7657 4.116 26.5964 4.116C27.147 4.116 27.693 4.19533 28.2344 4.354C28.7757 4.50333 29.2424 4.71333 29.6344 4.984L29.2844 5.81C28.8644 5.53 28.4164 5.32467 27.9404 5.194C27.4737 5.06333 27.021 4.998 26.5824 4.998C25.9944 4.998 25.509 5.07733 25.1264 5.236C24.7437 5.39467 24.459 5.60933 24.2724 5.88C24.095 6.14133 24.0064 6.44 24.0064 6.776C24.0064 7.15867 24.1137 7.46667 24.3284 7.7C24.5524 7.93333 24.8417 8.11533 25.1964 8.246C25.5604 8.37667 25.957 8.49333 26.3864 8.596C26.8157 8.69867 27.2404 8.81067 27.6604 8.932C28.0897 9.05333 28.4817 9.212 28.8364 9.408C29.2004 9.59467 29.4897 9.84667 29.7044 10.164C29.9284 10.4813 30.0404 10.8967 30.0404 11.41C30.0404 11.886 29.9097 12.3293 29.6484 12.74C29.387 13.1413 28.9857 13.468 28.4444 13.72C27.9124 13.9627 27.2264 14.084 26.3864 14.084ZM35.8816 14.07C35.247 14.07 34.673 13.9253 34.1596 13.636C33.6463 13.3373 33.2356 12.9127 32.9276 12.362C32.629 11.802 32.4796 11.1207 32.4796 10.318C32.4796 9.51533 32.629 8.83867 32.9276 8.288C33.2263 7.728 33.6323 7.30333 34.1456 7.014C34.659 6.72467 35.2376 6.58 35.8816 6.58C36.5816 6.58 37.207 6.73867 37.7576 7.056C38.3176 7.364 38.7563 7.80267 39.0736 8.372C39.391 8.932 39.5496 9.58067 39.5496 10.318C39.5496 11.0647 39.391 11.718 39.0736 12.278C38.7563 12.838 38.3176 13.2767 37.7576 13.594C37.207 13.9113 36.5816 14.07 35.8816 14.07ZM32.0876 16.716V6.65H33.0396V8.862L32.9416 10.332L33.0816 11.816V16.716H32.0876ZM35.8116 13.188C36.3343 13.188 36.801 13.0713 37.2116 12.838C37.6223 12.5953 37.949 12.2593 38.1916 11.83C38.4343 11.3913 38.5556 10.8873 38.5556 10.318C38.5556 9.74867 38.4343 9.24933 38.1916 8.82C37.949 8.39067 37.6223 8.05467 37.2116 7.812C36.801 7.56933 36.3343 7.448 35.8116 7.448C35.289 7.448 34.8176 7.56933 34.3976 7.812C33.987 8.05467 33.6603 8.39067 33.4176 8.82C33.1843 9.24933 33.0676 9.74867 33.0676 10.318C33.0676 10.8873 33.1843 11.3913 33.4176 11.83C33.6603 12.2593 33.987 12.5953 34.3976 12.838C34.8176 13.0713 35.289 13.188 35.8116 13.188ZM46.1409 14V12.376L46.0989 12.11V9.394C46.0989 8.76867 45.9216 8.288 45.5669 7.952C45.2216 7.616 44.7036 7.448 44.0129 7.448C43.5369 7.448 43.0842 7.52733 42.6549 7.686C42.2256 7.84467 41.8616 8.05467 41.5629 8.316L41.1149 7.574C41.4882 7.25667 41.9362 7.014 42.4589 6.846C42.9816 6.66867 43.5322 6.58 44.1109 6.58C45.0629 6.58 45.7956 6.818 46.3089 7.294C46.8316 7.76067 47.0929 8.47467 47.0929 9.436V14H46.1409ZM43.6069 14.07C43.0562 14.07 42.5756 13.9813 42.1649 13.804C41.7636 13.6173 41.4556 13.3653 41.2409 13.048C41.0262 12.7213 40.9189 12.348 40.9189 11.928C40.9189 11.5453 41.0076 11.2 41.1849 10.892C41.3716 10.5747 41.6702 10.3227 42.0809 10.136C42.5009 9.94 43.0609 9.842 43.7609 9.842H46.2949V10.584H43.7889C43.0796 10.584 42.5849 10.71 42.3049 10.962C42.0342 11.214 41.8989 11.5267 41.8989 11.9C41.8989 12.32 42.0622 12.656 42.3889 12.908C42.7156 13.16 43.1729 13.286 43.7609 13.286C44.3209 13.286 44.8016 13.16 45.2029 12.908C45.6136 12.6467 45.9122 12.2733 46.0989 11.788L46.3229 12.474C46.1362 12.9593 45.8096 13.3467 45.3429 13.636C44.8856 13.9253 44.3069 14.07 43.6069 14.07ZM52.8447 14.07C52.1167 14.07 51.4634 13.9113 50.8847 13.594C50.3154 13.2673 49.8674 12.824 49.5407 12.264C49.2141 11.6947 49.0507 11.046 49.0507 10.318C49.0507 9.58067 49.2141 8.932 49.5407 8.372C49.8674 7.812 50.3154 7.37333 50.8847 7.056C51.4634 6.73867 52.1167 6.58 52.8447 6.58C53.4701 6.58 54.0347 6.70133 54.5387 6.944C55.0427 7.18667 55.4394 7.55067 55.7287 8.036L54.9867 8.54C54.7347 8.16667 54.4221 7.89133 54.0487 7.714C53.6754 7.53667 53.2694 7.448 52.8307 7.448C52.3081 7.448 51.8367 7.56933 51.4167 7.812C50.9967 8.04533 50.6654 8.37667 50.4227 8.806C50.1801 9.23533 50.0587 9.73933 50.0587 10.318C50.0587 10.8967 50.1801 11.4007 50.4227 11.83C50.6654 12.2593 50.9967 12.5953 51.4167 12.838C51.8367 13.0713 52.3081 13.188 52.8307 13.188C53.2694 13.188 53.6754 13.0993 54.0487 12.922C54.4221 12.7447 54.7347 12.474 54.9867 12.11L55.7287 12.614C55.4394 13.09 55.0427 13.454 54.5387 13.706C54.0347 13.9487 53.4701 14.07 52.8447 14.07ZM57.572 14V6.65H58.566V14H57.572ZM58.076 5.026C57.8707 5.026 57.698 4.956 57.558 4.816C57.418 4.676 57.348 4.508 57.348 4.312C57.348 4.116 57.418 3.95267 57.558 3.822C57.698 3.682 57.8707 3.612 58.076 3.612C58.2814 3.612 58.454 3.67733 58.594 3.808C58.734 3.93867 58.804 4.102 58.804 4.298C58.804 4.50333 58.734 4.676 58.594 4.816C58.4634 4.956 58.2907 5.026 58.076 5.026ZM64.3278 14.07C63.6185 14.07 62.9791 13.9113 62.4098 13.594C61.8498 13.2673 61.4065 12.824 61.0798 12.264C60.7531 11.6947 60.5898 11.046 60.5898 10.318C60.5898 9.58067 60.7531 8.932 61.0798 8.372C61.4065 7.812 61.8498 7.37333 62.4098 7.056C62.9698 6.73867 63.6091 6.58 64.3278 6.58C65.0558 6.58 65.6998 6.73867 66.2598 7.056C66.8291 7.37333 67.2725 7.812 67.5898 8.372C67.9165 8.932 68.0798 9.58067 68.0798 10.318C68.0798 11.046 67.9165 11.6947 67.5898 12.264C67.2725 12.824 66.8291 13.2673 66.2598 13.594C65.6905 13.9113 65.0465 14.07 64.3278 14.07ZM64.3278 13.188C64.8598 13.188 65.3311 13.0713 65.7418 12.838C66.1525 12.5953 66.4745 12.2593 66.7078 11.83C66.9505 11.3913 67.0718 10.8873 67.0718 10.318C67.0718 9.73933 66.9505 9.23533 66.7078 8.806C66.4745 8.37667 66.1525 8.04533 65.7418 7.812C65.3311 7.56933 64.8645 7.448 64.3418 7.448C63.8191 7.448 63.3525 7.56933 62.9418 7.812C62.5311 8.04533 62.2045 8.37667 61.9618 8.806C61.7191 9.23533 61.5978 9.73933 61.5978 10.318C61.5978 10.8873 61.7191 11.3913 61.9618 11.83C62.2045 12.2593 62.5311 12.5953 62.9418 12.838C63.3525 13.0713 63.8145 13.188 64.3278 13.188ZM73.1471 14.07C72.5218 14.07 71.9758 13.9533 71.5091 13.72C71.0425 13.4867 70.6785 13.1367 70.4171 12.67C70.1651 12.2033 70.0391 11.62 70.0391 10.92V6.65H71.0331V10.808C71.0331 11.592 71.2245 12.1847 71.6071 12.586C71.9991 12.978 72.5451 13.174 73.2451 13.174C73.7585 13.174 74.2018 13.0713 74.5751 12.866C74.9578 12.6513 75.2471 12.3433 75.4431 11.942C75.6485 11.5407 75.7511 11.06 75.7511 10.5V6.65H76.7451V14H75.7931V11.984L75.9471 12.348C75.7138 12.8893 75.3498 13.314 74.8551 13.622C74.3698 13.9207 73.8005 14.07 73.1471 14.07ZM81.4894 14.07C80.8827 14.07 80.3087 13.986 79.7674 13.818C79.226 13.6407 78.8014 13.4213 78.4934 13.16L78.9414 12.376C79.24 12.6 79.6227 12.796 80.0894 12.964C80.556 13.1227 81.046 13.202 81.5594 13.202C82.2594 13.202 82.7634 13.0947 83.0714 12.88C83.3794 12.656 83.5334 12.362 83.5334 11.998C83.5334 11.7273 83.4447 11.5173 83.2674 11.368C83.0994 11.2093 82.8754 11.0927 82.5954 11.018C82.3154 10.934 82.0027 10.864 81.6574 10.808C81.312 10.752 80.9667 10.6867 80.6214 10.612C80.2854 10.5373 79.9774 10.43 79.6974 10.29C79.4174 10.1407 79.1887 9.94 79.0114 9.688C78.8434 9.436 78.7594 9.1 78.7594 8.68C78.7594 8.27867 78.8714 7.91933 79.0954 7.602C79.3194 7.28467 79.646 7.03733 80.0754 6.86C80.514 6.67333 81.046 6.58 81.6714 6.58C82.1474 6.58 82.6234 6.64533 83.0994 6.776C83.5754 6.89733 83.9674 7.06067 84.2754 7.266L83.8414 8.064C83.5147 7.84 83.1647 7.68133 82.7914 7.588C82.418 7.48533 82.0447 7.434 81.6714 7.434C81.0087 7.434 80.5187 7.55067 80.2014 7.784C79.8934 8.008 79.7394 8.29733 79.7394 8.652C79.7394 8.932 79.8234 9.15133 79.9914 9.31C80.1687 9.46867 80.3974 9.59467 80.6774 9.688C80.9667 9.772 81.2794 9.842 81.6154 9.898C81.9607 9.954 82.3014 10.024 82.6374 10.108C82.9827 10.1827 83.2954 10.29 83.5754 10.43C83.8647 10.5607 84.0934 10.752 84.2614 11.004C84.4387 11.2467 84.5274 11.5687 84.5274 11.97C84.5274 12.3993 84.406 12.7727 84.1634 13.09C83.93 13.398 83.5847 13.6407 83.1274 13.818C82.6794 13.986 82.1334 14.07 81.4894 14.07ZM92.3394 14.07C91.6487 14.07 91.1167 13.8833 90.7434 13.51C90.37 13.1367 90.1834 12.6093 90.1834 11.928V5.026H91.1774V11.872C91.1774 12.3013 91.2847 12.6327 91.4994 12.866C91.7234 13.0993 92.0407 13.216 92.4514 13.216C92.89 13.216 93.254 13.09 93.5434 12.838L93.8934 13.552C93.6974 13.7293 93.4594 13.86 93.1794 13.944C92.9087 14.028 92.6287 14.07 92.3394 14.07ZM88.8674 7.476V6.65H93.4174V7.476H88.8674ZM100.309 14V12.376L100.267 12.11V9.394C100.267 8.76867 100.09 8.288 99.7349 7.952C99.3895 7.616 98.8715 7.448 98.1809 7.448C97.7049 7.448 97.2522 7.52733 96.8229 7.686C96.3935 7.84467 96.0295 8.05467 95.7309 8.316L95.2829 7.574C95.6562 7.25667 96.1042 7.014 96.6269 6.846C97.1495 6.66867 97.7002 6.58 98.2789 6.58C99.2309 6.58 99.9635 6.818 100.477 7.294C101 7.76067 101.261 8.47467 101.261 9.436V14H100.309ZM97.7749 14.07C97.2242 14.07 96.7435 13.9813 96.3329 13.804C95.9315 13.6173 95.6235 13.3653 95.4089 13.048C95.1942 12.7213 95.0869 12.348 95.0869 11.928C95.0869 11.5453 95.1755 11.2 95.3529 10.892C95.5395 10.5747 95.8382 10.3227 96.2489 10.136C96.6689 9.94 97.2289 9.842 97.9289 9.842H100.463V10.584H97.9569C97.2475 10.584 96.7529 10.71 96.4729 10.962C96.2022 11.214 96.0669 11.5267 96.0669 11.9C96.0669 12.32 96.2302 12.656 96.5569 12.908C96.8835 13.16 97.3409 13.286 97.9289 13.286C98.4889 13.286 98.9695 13.16 99.3709 12.908C99.7815 12.6467 100.08 12.2733 100.267 11.788L100.491 12.474C100.304 12.9593 99.9775 13.3467 99.5109 13.636C99.0535 13.9253 98.4749 14.07 97.7749 14.07ZM113.145 6.58C113.742 6.58 114.26 6.69667 114.699 6.93C115.147 7.154 115.492 7.49933 115.735 7.966C115.987 8.43267 116.113 9.02067 116.113 9.73V14H115.119V9.828C115.119 9.05333 114.932 8.47 114.559 8.078C114.195 7.67667 113.677 7.476 113.005 7.476C112.501 7.476 112.062 7.58333 111.689 7.798C111.325 8.00333 111.04 8.30667 110.835 8.708C110.639 9.1 110.541 9.576 110.541 10.136V14H109.547V9.828C109.547 9.05333 109.36 8.47 108.987 8.078C108.613 7.67667 108.091 7.476 107.419 7.476C106.924 7.476 106.49 7.58333 106.117 7.798C105.743 8.00333 105.454 8.30667 105.249 8.708C105.053 9.1 104.955 9.576 104.955 10.136V14H103.961V6.65H104.913V8.638L104.759 8.288C104.983 7.756 105.342 7.34067 105.837 7.042C106.341 6.734 106.933 6.58 107.615 6.58C108.333 6.58 108.945 6.762 109.449 7.126C109.953 7.48067 110.279 8.01733 110.429 8.736L110.037 8.582C110.251 7.98467 110.629 7.504 111.171 7.14C111.721 6.76667 112.379 6.58 113.145 6.58ZM122.602 14.07C121.968 14.07 121.394 13.9253 120.88 13.636C120.367 13.3373 119.956 12.9127 119.648 12.362C119.35 11.802 119.2 11.1207 119.2 10.318C119.2 9.51533 119.35 8.83867 119.648 8.288C119.947 7.728 120.353 7.30333 120.866 7.014C121.38 6.72467 121.958 6.58 122.602 6.58C123.302 6.58 123.928 6.73867 124.478 7.056C125.038 7.364 125.477 7.80267 125.794 8.372C126.112 8.932 126.27 9.58067 126.27 10.318C126.27 11.0647 126.112 11.718 125.794 12.278C125.477 12.838 125.038 13.2767 124.478 13.594C123.928 13.9113 123.302 14.07 122.602 14.07ZM118.808 16.716V6.65H119.76V8.862L119.662 10.332L119.802 11.816V16.716H118.808ZM122.532 13.188C123.055 13.188 123.522 13.0713 123.932 12.838C124.343 12.5953 124.67 12.2593 124.912 11.83C125.155 11.3913 125.276 10.8873 125.276 10.318C125.276 9.74867 125.155 9.24933 124.912 8.82C124.67 8.39067 124.343 8.05467 123.932 7.812C123.522 7.56933 123.055 7.448 122.532 7.448C122.01 7.448 121.538 7.56933 121.118 7.812C120.708 8.05467 120.381 8.39067 120.138 8.82C119.905 9.24933 119.788 9.74867 119.788 10.318C119.788 10.8873 119.905 11.3913 120.138 11.83C120.381 12.2593 120.708 12.5953 121.118 12.838C121.538 13.0713 122.01 13.188 122.532 13.188ZM131.419 14.07C130.653 14.07 129.981 13.9113 129.403 13.594C128.824 13.2673 128.371 12.824 128.045 12.264C127.718 11.6947 127.555 11.046 127.555 10.318C127.555 9.59 127.709 8.946 128.017 8.386C128.334 7.826 128.763 7.38733 129.305 7.07C129.855 6.74333 130.471 6.58 131.153 6.58C131.843 6.58 132.455 6.73867 132.987 7.056C133.528 7.364 133.953 7.80267 134.261 8.372C134.569 8.932 134.723 9.58067 134.723 10.318C134.723 10.3647 134.718 10.416 134.709 10.472C134.709 10.5187 134.709 10.57 134.709 10.626H128.311V9.884H134.177L133.785 10.178C133.785 9.646 133.668 9.17467 133.435 8.764C133.211 8.344 132.903 8.01733 132.511 7.784C132.119 7.55067 131.666 7.434 131.153 7.434C130.649 7.434 130.196 7.55067 129.795 7.784C129.393 8.01733 129.081 8.344 128.857 8.764C128.633 9.184 128.521 9.66467 128.521 10.206V10.36C128.521 10.92 128.642 11.4147 128.885 11.844C129.137 12.264 129.482 12.5953 129.921 12.838C130.369 13.0713 130.877 13.188 131.447 13.188C131.895 13.188 132.31 13.1087 132.693 12.95C133.085 12.7913 133.421 12.5487 133.701 12.222L134.261 12.866C133.934 13.258 133.523 13.5567 133.029 13.762C132.543 13.9673 132.007 14.07 131.419 14.07ZM136.746 14V6.65H137.698V8.652L137.6 8.302C137.805 7.742 138.151 7.31733 138.636 7.028C139.121 6.72933 139.723 6.58 140.442 6.58V7.546C140.405 7.546 140.367 7.546 140.33 7.546C140.293 7.53667 140.255 7.532 140.218 7.532C139.443 7.532 138.837 7.77 138.398 8.246C137.959 8.71267 137.74 9.38 137.74 10.248V14H136.746ZM141.669 10.64V9.772H145.337V10.64H141.669ZM150.819 14.07C150.054 14.07 149.382 13.9113 148.803 13.594C148.224 13.2673 147.772 12.824 147.445 12.264C147.118 11.6947 146.955 11.046 146.955 10.318C146.955 9.59 147.109 8.946 147.417 8.386C147.734 7.826 148.164 7.38733 148.705 7.07C149.256 6.74333 149.872 6.58 150.553 6.58C151.244 6.58 151.855 6.73867 152.387 7.056C152.928 7.364 153.353 7.80267 153.661 8.372C153.969 8.932 154.123 9.58067 154.123 10.318C154.123 10.3647 154.118 10.416 154.109 10.472C154.109 10.5187 154.109 10.57 154.109 10.626H147.711V9.884H153.577L153.185 10.178C153.185 9.646 153.068 9.17467 152.835 8.764C152.611 8.344 152.303 8.01733 151.911 7.784C151.519 7.55067 151.066 7.434 150.553 7.434C150.049 7.434 149.596 7.55067 149.195 7.784C148.794 8.01733 148.481 8.344 148.257 8.764C148.033 9.184 147.921 9.66467 147.921 10.206V10.36C147.921 10.92 148.042 11.4147 148.285 11.844C148.537 12.264 148.882 12.5953 149.321 12.838C149.769 13.0713 150.278 13.188 150.847 13.188C151.295 13.188 151.71 13.1087 152.093 12.95C152.485 12.7913 152.821 12.5487 153.101 12.222L153.661 12.866C153.334 13.258 152.924 13.5567 152.429 13.762C151.944 13.9673 151.407 14.07 150.819 14.07ZM157.9 14L154.638 6.65H155.674L158.67 13.468H158.18L161.218 6.65H162.198L158.922 14H157.9ZM163.597 14V6.65H164.591V14H163.597ZM164.101 5.026C163.896 5.026 163.723 4.956 163.583 4.816C163.443 4.676 163.373 4.508 163.373 4.312C163.373 4.116 163.443 3.95267 163.583 3.822C163.723 3.682 163.896 3.612 164.101 3.612C164.307 3.612 164.479 3.67733 164.619 3.808C164.759 3.93867 164.829 4.102 164.829 4.298C164.829 4.50333 164.759 4.676 164.619 4.816C164.489 4.956 164.316 5.026 164.101 5.026ZM170.283 14.07C169.583 14.07 168.953 13.9113 168.393 13.594C167.843 13.2767 167.409 12.838 167.091 12.278C166.774 11.7087 166.615 11.0553 166.615 10.318C166.615 9.57133 166.774 8.918 167.091 8.358C167.409 7.798 167.843 7.364 168.393 7.056C168.953 6.73867 169.583 6.58 170.283 6.58C170.927 6.58 171.501 6.72467 172.005 7.014C172.519 7.30333 172.925 7.728 173.223 8.288C173.531 8.83867 173.685 9.51533 173.685 10.318C173.685 11.1113 173.536 11.788 173.237 12.348C172.939 12.908 172.533 13.3373 172.019 13.636C171.515 13.9253 170.937 14.07 170.283 14.07ZM170.353 13.188C170.876 13.188 171.343 13.0713 171.753 12.838C172.173 12.5953 172.5 12.2593 172.733 11.83C172.976 11.3913 173.097 10.8873 173.097 10.318C173.097 9.73933 172.976 9.23533 172.733 8.806C172.5 8.37667 172.173 8.04533 171.753 7.812C171.343 7.56933 170.876 7.448 170.353 7.448C169.84 7.448 169.378 7.56933 168.967 7.812C168.557 8.04533 168.23 8.37667 167.987 8.806C167.745 9.23533 167.623 9.73933 167.623 10.318C167.623 10.8873 167.745 11.3913 167.987 11.83C168.23 12.2593 168.557 12.5953 168.967 12.838C169.378 13.0713 169.84 13.188 170.353 13.188ZM173.125 14V11.788L173.223 10.304L173.083 8.82V3.612H174.077V14H173.125ZM179.967 14.07C179.202 14.07 178.53 13.9113 177.951 13.594C177.373 13.2673 176.92 12.824 176.593 12.264C176.267 11.6947 176.103 11.046 176.103 10.318C176.103 9.59 176.257 8.946 176.565 8.386C176.883 7.826 177.312 7.38733 177.853 7.07C178.404 6.74333 179.02 6.58 179.701 6.58C180.392 6.58 181.003 6.73867 181.535 7.056C182.077 7.364 182.501 7.80267 182.809 8.372C183.117 8.932 183.271 9.58067 183.271 10.318C183.271 10.3647 183.267 10.416 183.257 10.472C183.257 10.5187 183.257 10.57 183.257 10.626H176.859V9.884H182.725L182.333 10.178C182.333 9.646 182.217 9.17467 181.983 8.764C181.759 8.344 181.451 8.01733 181.059 7.784C180.667 7.55067 180.215 7.434 179.701 7.434C179.197 7.434 178.745 7.55067 178.343 7.784C177.942 8.01733 177.629 8.344 177.405 8.764C177.181 9.184 177.069 9.66467 177.069 10.206V10.36C177.069 10.92 177.191 11.4147 177.433 11.844C177.685 12.264 178.031 12.5953 178.469 12.838C178.917 13.0713 179.426 13.188 179.995 13.188C180.443 13.188 180.859 13.1087 181.241 12.95C181.633 12.7913 181.969 12.5487 182.249 12.222L182.809 12.866C182.483 13.258 182.072 13.5567 181.577 13.762C181.092 13.9673 180.555 14.07 179.967 14.07ZM189.047 6.58C189.644 6.58 190.167 6.69667 190.615 6.93C191.072 7.154 191.427 7.49933 191.679 7.966C191.94 8.43267 192.071 9.02067 192.071 9.73V14H191.077V9.828C191.077 9.05333 190.881 8.47 190.489 8.078C190.106 7.67667 189.565 7.476 188.865 7.476C188.342 7.476 187.885 7.58333 187.493 7.798C187.11 8.00333 186.811 8.30667 186.597 8.708C186.391 9.1 186.289 9.576 186.289 10.136V14H185.295V6.65H186.247V8.666L186.093 8.288C186.326 7.756 186.699 7.34067 187.213 7.042C187.726 6.734 188.337 6.58 189.047 6.58ZM197.08 14.07C196.389 14.07 195.857 13.8833 195.484 13.51C195.11 13.1367 194.924 12.6093 194.924 11.928V5.026H195.918V11.872C195.918 12.3013 196.025 12.6327 196.24 12.866C196.464 13.0993 196.781 13.216 197.192 13.216C197.63 13.216 197.994 13.09 198.284 12.838L198.634 13.552C198.438 13.7293 198.2 13.86 197.92 13.944C197.649 14.028 197.369 14.07 197.08 14.07ZM193.608 7.476V6.65H198.158V7.476H193.608ZM206.081 14.07C205.475 14.07 204.901 13.986 204.359 13.818C203.818 13.6407 203.393 13.4213 203.085 13.16L203.533 12.376C203.832 12.6 204.215 12.796 204.681 12.964C205.148 13.1227 205.638 13.202 206.151 13.202C206.851 13.202 207.355 13.0947 207.663 12.88C207.971 12.656 208.125 12.362 208.125 11.998C208.125 11.7273 208.037 11.5173 207.859 11.368C207.691 11.2093 207.467 11.0927 207.187 11.018C206.907 10.934 206.595 10.864 206.249 10.808C205.904 10.752 205.559 10.6867 205.213 10.612C204.877 10.5373 204.569 10.43 204.289 10.29C204.009 10.1407 203.781 9.94 203.603 9.688C203.435 9.436 203.351 9.1 203.351 8.68C203.351 8.27867 203.463 7.91933 203.687 7.602C203.911 7.28467 204.238 7.03733 204.667 6.86C205.106 6.67333 205.638 6.58 206.263 6.58C206.739 6.58 207.215 6.64533 207.691 6.776C208.167 6.89733 208.559 7.06067 208.867 7.266L208.433 8.064C208.107 7.84 207.757 7.68133 207.383 7.588C207.01 7.48533 206.637 7.434 206.263 7.434C205.601 7.434 205.111 7.55067 204.793 7.784C204.485 8.008 204.331 8.29733 204.331 8.652C204.331 8.932 204.415 9.15133 204.583 9.31C204.761 9.46867 204.989 9.59467 205.269 9.688C205.559 9.772 205.871 9.842 206.207 9.898C206.553 9.954 206.893 10.024 207.229 10.108C207.575 10.1827 207.887 10.29 208.167 10.43C208.457 10.5607 208.685 10.752 208.853 11.004C209.031 11.2467 209.119 11.5687 209.119 11.97C209.119 12.3993 208.998 12.7727 208.755 13.09C208.522 13.398 208.177 13.6407 207.719 13.818C207.271 13.986 206.725 14.07 206.081 14.07ZM212.304 14L209.532 6.65H210.484L213.004 13.468H212.57L215.16 6.65H216.014L218.576 13.468H218.142L220.704 6.65H221.614L218.828 14H217.89L215.426 7.588H215.72L213.242 14H212.304ZM226.028 14.07C225.263 14.07 224.591 13.9113 224.012 13.594C223.433 13.2673 222.981 12.824 222.654 12.264C222.327 11.6947 222.164 11.046 222.164 10.318C222.164 9.59 222.318 8.946 222.626 8.386C222.943 7.826 223.373 7.38733 223.914 7.07C224.465 6.74333 225.081 6.58 225.762 6.58C226.453 6.58 227.064 6.73867 227.596 7.056C228.137 7.364 228.562 7.80267 228.87 8.372C229.178 8.932 229.332 9.58067 229.332 10.318C229.332 10.3647 229.327 10.416 229.318 10.472C229.318 10.5187 229.318 10.57 229.318 10.626H222.92V9.884H228.786L228.394 10.178C228.394 9.646 228.277 9.17467 228.044 8.764C227.82 8.344 227.512 8.01733 227.12 7.784C226.728 7.55067 226.275 7.434 225.762 7.434C225.258 7.434 224.805 7.55067 224.404 7.784C224.003 8.01733 223.69 8.344 223.466 8.764C223.242 9.184 223.13 9.66467 223.13 10.206V10.36C223.13 10.92 223.251 11.4147 223.494 11.844C223.746 12.264 224.091 12.5953 224.53 12.838C224.978 13.0713 225.487 13.188 226.056 13.188C226.504 13.188 226.919 13.1087 227.302 12.95C227.694 12.7913 228.03 12.5487 228.31 12.222L228.87 12.866C228.543 13.258 228.133 13.5567 227.638 13.762C227.153 13.9673 226.616 14.07 226.028 14.07ZM234.477 14.07C233.712 14.07 233.04 13.9113 232.461 13.594C231.883 13.2673 231.43 12.824 231.103 12.264C230.777 11.6947 230.613 11.046 230.613 10.318C230.613 9.59 230.767 8.946 231.075 8.386C231.393 7.826 231.822 7.38733 232.363 7.07C232.914 6.74333 233.53 6.58 234.211 6.58C234.902 6.58 235.513 6.73867 236.045 7.056C236.587 7.364 237.011 7.80267 237.319 8.372C237.627 8.932 237.781 9.58067 237.781 10.318C237.781 10.3647 237.777 10.416 237.767 10.472C237.767 10.5187 237.767 10.57 237.767 10.626H231.369V9.884H237.235L236.843 10.178C236.843 9.646 236.727 9.17467 236.493 8.764C236.269 8.344 235.961 8.01733 235.569 7.784C235.177 7.55067 234.725 7.434 234.211 7.434C233.707 7.434 233.255 7.55067 232.853 7.784C232.452 8.01733 232.139 8.344 231.915 8.764C231.691 9.184 231.579 9.66467 231.579 10.206V10.36C231.579 10.92 231.701 11.4147 231.943 11.844C232.195 12.264 232.541 12.5953 232.979 12.838C233.427 13.0713 233.936 13.188 234.505 13.188C234.953 13.188 235.369 13.1087 235.751 12.95C236.143 12.7913 236.479 12.5487 236.759 12.222L237.319 12.866C236.993 13.258 236.582 13.5567 236.087 13.762C235.602 13.9673 235.065 14.07 234.477 14.07ZM242.128 14.07C241.438 14.07 240.906 13.8833 240.532 13.51C240.159 13.1367 239.972 12.6093 239.972 11.928V5.026H240.966V11.872C240.966 12.3013 241.074 12.6327 241.288 12.866C241.512 13.0993 241.83 13.216 242.24 13.216C242.679 13.216 243.043 13.09 243.332 12.838L243.682 13.552C243.486 13.7293 243.248 13.86 242.968 13.944C242.698 14.028 242.418 14.07 242.128 14.07ZM238.656 7.476V6.65H243.206V7.476H238.656ZM252.95 14.07C252.306 14.07 251.727 13.9253 251.214 13.636C250.701 13.3373 250.295 12.908 249.996 12.348C249.697 11.788 249.548 11.1113 249.548 10.318C249.548 9.51533 249.697 8.83867 249.996 8.288C250.304 7.728 250.715 7.30333 251.228 7.014C251.741 6.72467 252.315 6.58 252.95 6.58C253.65 6.58 254.275 6.73867 254.826 7.056C255.386 7.364 255.825 7.798 256.142 8.358C256.459 8.918 256.618 9.57133 256.618 10.318C256.618 11.0553 256.459 11.7087 256.142 12.278C255.825 12.838 255.386 13.2767 254.826 13.594C254.275 13.9113 253.65 14.07 252.95 14.07ZM249.156 14V3.612H250.15V8.82L250.01 10.304L250.108 11.788V14H249.156ZM252.88 13.188C253.403 13.188 253.869 13.0713 254.28 12.838C254.691 12.5953 255.017 12.2593 255.26 11.83C255.503 11.3913 255.624 10.8873 255.624 10.318C255.624 9.73933 255.503 9.23533 255.26 8.806C255.017 8.37667 254.691 8.04533 254.28 7.812C253.869 7.56933 253.403 7.448 252.88 7.448C252.357 7.448 251.886 7.56933 251.466 7.812C251.055 8.04533 250.729 8.37667 250.486 8.806C250.253 9.23533 250.136 9.73933 250.136 10.318C250.136 10.8873 250.253 11.3913 250.486 11.83C250.729 12.2593 251.055 12.5953 251.466 12.838C251.886 13.0713 252.357 13.188 252.88 13.188ZM261.64 14.07C260.931 14.07 260.292 13.9113 259.722 13.594C259.162 13.2673 258.719 12.824 258.392 12.264C258.066 11.6947 257.902 11.046 257.902 10.318C257.902 9.58067 258.066 8.932 258.392 8.372C258.719 7.812 259.162 7.37333 259.722 7.056C260.282 6.73867 260.922 6.58 261.64 6.58C262.368 6.58 263.012 6.73867 263.572 7.056C264.142 7.37333 264.585 7.812 264.902 8.372C265.229 8.932 265.392 9.58067 265.392 10.318C265.392 11.046 265.229 11.6947 264.902 12.264C264.585 12.824 264.142 13.2673 263.572 13.594C263.003 13.9113 262.359 14.07 261.64 14.07ZM261.64 13.188C262.172 13.188 262.644 13.0713 263.054 12.838C263.465 12.5953 263.787 12.2593 264.02 11.83C264.263 11.3913 264.384 10.8873 264.384 10.318C264.384 9.73933 264.263 9.23533 264.02 8.806C263.787 8.37667 263.465 8.04533 263.054 7.812C262.644 7.56933 262.177 7.448 261.654 7.448C261.132 7.448 260.665 7.56933 260.254 7.812C259.844 8.04533 259.517 8.37667 259.274 8.806C259.032 9.23533 258.91 9.73933 258.91 10.318C258.91 10.8873 259.032 11.3913 259.274 11.83C259.517 12.2593 259.844 12.5953 260.254 12.838C260.665 13.0713 261.127 13.188 261.64 13.188ZM266.042 14L269.15 9.968L269.136 10.458L266.182 6.65H267.302L269.724 9.8L269.304 9.786L271.726 6.65H272.818L269.836 10.5L269.85 9.968L272.986 14H271.852L269.29 10.64L269.682 10.696L267.162 14H266.042ZM278.472 14V5.726C278.472 5.07267 278.664 4.54533 279.046 4.144C279.429 3.74267 279.98 3.542 280.698 3.542C280.978 3.542 281.249 3.57933 281.51 3.654C281.772 3.72867 281.991 3.84533 282.168 4.004L281.832 4.746C281.692 4.62467 281.529 4.536 281.342 4.48C281.156 4.41467 280.955 4.382 280.74 4.382C280.32 4.382 279.998 4.49867 279.774 4.732C279.55 4.96533 279.438 5.31067 279.438 5.768V6.888L279.466 7.35V14H278.472ZM277.156 7.476V6.65H281.706V7.476H277.156ZM285.922 14.07C285.212 14.07 284.573 13.9113 284.004 13.594C283.444 13.2673 283 12.824 282.674 12.264C282.347 11.6947 282.184 11.046 282.184 10.318C282.184 9.58067 282.347 8.932 282.674 8.372C283 7.812 283.444 7.37333 284.004 7.056C284.564 6.73867 285.203 6.58 285.922 6.58C286.65 6.58 287.294 6.73867 287.854 7.056C288.423 7.37333 288.866 7.812 289.184 8.372C289.51 8.932 289.674 9.58067 289.674 10.318C289.674 11.046 289.51 11.6947 289.184 12.264C288.866 12.824 288.423 13.2673 287.854 13.594C287.284 13.9113 286.64 14.07 285.922 14.07ZM285.922 13.188C286.454 13.188 286.925 13.0713 287.336 12.838C287.746 12.5953 288.068 12.2593 288.302 11.83C288.544 11.3913 288.666 10.8873 288.666 10.318C288.666 9.73933 288.544 9.23533 288.302 8.806C288.068 8.37667 287.746 8.04533 287.336 7.812C286.925 7.56933 286.458 7.448 285.936 7.448C285.413 7.448 284.946 7.56933 284.536 7.812C284.125 8.04533 283.798 8.37667 283.556 8.806C283.313 9.23533 283.192 9.73933 283.192 10.318C283.192 10.8873 283.313 11.3913 283.556 11.83C283.798 12.2593 284.125 12.5953 284.536 12.838C284.946 13.0713 285.408 13.188 285.922 13.188ZM291.703 14V6.65H292.655V8.652L292.557 8.302C292.762 7.742 293.108 7.31733 293.593 7.028C294.078 6.72933 294.68 6.58 295.399 6.58V7.546C295.362 7.546 295.324 7.546 295.287 7.546C295.25 7.53667 295.212 7.532 295.175 7.532C294.4 7.532 293.794 7.77 293.355 8.246C292.916 8.71267 292.697 9.38 292.697 10.248V14H291.703ZM39.3673 33.084C38.7513 33.084 38.1633 33 37.6033 32.832C37.0527 32.664 36.6187 32.4587 36.3013 32.216L36.8613 31.152C37.1787 31.3667 37.5707 31.5487 38.0373 31.698C38.504 31.8473 38.98 31.922 39.4653 31.922C40.0907 31.922 40.5387 31.8333 40.8093 31.656C41.0893 31.4787 41.2293 31.2313 41.2293 30.914C41.2293 30.6807 41.1453 30.4987 40.9773 30.368C40.8093 30.2373 40.5853 30.1393 40.3053 30.074C40.0347 30.0087 39.7313 29.9527 39.3953 29.906C39.0593 29.85 38.7233 29.7847 38.3873 29.71C38.0513 29.626 37.7433 29.514 37.4633 29.374C37.1833 29.2247 36.9593 29.024 36.7913 28.772C36.6233 28.5107 36.5393 28.1653 36.5393 27.736C36.5393 27.288 36.6653 26.896 36.9173 26.56C37.1693 26.224 37.524 25.9673 37.9813 25.79C38.448 25.6033 38.9987 25.51 39.6333 25.51C40.1187 25.51 40.6087 25.5707 41.1033 25.692C41.6073 25.804 42.018 25.9673 42.3353 26.182L41.7613 27.246C41.4253 27.022 41.0753 26.868 40.7113 26.784C40.3473 26.7 39.9833 26.658 39.6193 26.658C39.0313 26.658 38.5927 26.756 38.3033 26.952C38.014 27.1387 37.8693 27.3813 37.8693 27.68C37.8693 27.932 37.9533 28.128 38.1213 28.268C38.2987 28.3987 38.5227 28.5013 38.7933 28.576C39.0733 28.6507 39.3813 28.716 39.7173 28.772C40.0533 28.8187 40.3893 28.884 40.7253 28.968C41.0613 29.0427 41.3647 29.15 41.6353 29.29C41.9153 29.43 42.1393 29.626 42.3073 29.878C42.4847 30.13 42.5733 30.466 42.5733 30.886C42.5733 31.334 42.4427 31.7213 42.1813 32.048C41.92 32.3747 41.5513 32.6313 41.0753 32.818C40.5993 32.9953 40.03 33.084 39.3673 33.084ZM47.557 33.084C46.7637 33.084 46.0637 32.9207 45.457 32.594C44.8597 32.2673 44.393 31.8193 44.057 31.25C43.7303 30.6807 43.567 30.0273 43.567 29.29C43.567 28.5527 43.7257 27.8993 44.043 27.33C44.3697 26.7607 44.813 26.3173 45.373 26C45.9423 25.6733 46.5817 25.51 47.291 25.51C48.0097 25.51 48.6443 25.6687 49.195 25.986C49.7457 26.3033 50.175 26.7513 50.483 27.33C50.8003 27.8993 50.959 28.5667 50.959 29.332C50.959 29.388 50.9543 29.4533 50.945 29.528C50.945 29.6027 50.9403 29.6727 50.931 29.738H44.617V28.772H50.231L49.685 29.108C49.6943 28.632 49.5963 28.2073 49.391 27.834C49.1857 27.4607 48.901 27.1713 48.537 26.966C48.1823 26.7513 47.767 26.644 47.291 26.644C46.8243 26.644 46.409 26.7513 46.045 26.966C45.681 27.1713 45.3963 27.4653 45.191 27.848C44.9857 28.2213 44.883 28.6507 44.883 29.136V29.36C44.883 29.8547 44.995 30.298 45.219 30.69C45.4523 31.0727 45.7743 31.3713 46.185 31.586C46.5957 31.8007 47.067 31.908 47.599 31.908C48.0377 31.908 48.4343 31.8333 48.789 31.684C49.153 31.5347 49.4703 31.3107 49.741 31.012L50.483 31.88C50.147 32.272 49.727 32.5707 49.223 32.776C48.7283 32.9813 48.173 33.084 47.557 33.084ZM56.0593 33.084C55.3033 33.084 54.6266 32.9207 54.0293 32.594C53.4413 32.2673 52.9793 31.8193 52.6433 31.25C52.3073 30.6807 52.1393 30.0273 52.1393 29.29C52.1393 28.5527 52.3073 27.8993 52.6433 27.33C52.9793 26.7607 53.4413 26.3173 54.0293 26C54.6266 25.6733 55.3033 25.51 56.0593 25.51C56.7313 25.51 57.3286 25.6453 57.8513 25.916C58.3833 26.1773 58.7939 26.5693 59.0833 27.092L58.0613 27.75C57.8186 27.386 57.5199 27.12 57.1653 26.952C56.8199 26.7747 56.4466 26.686 56.0453 26.686C55.5599 26.686 55.1259 26.7933 54.7433 27.008C54.3606 27.2227 54.0573 27.526 53.8333 27.918C53.6093 28.3007 53.4973 28.758 53.4973 29.29C53.4973 29.822 53.6093 30.284 53.8333 30.676C54.0573 31.068 54.3606 31.3713 54.7433 31.586C55.1259 31.8007 55.5599 31.908 56.0453 31.908C56.4466 31.908 56.8199 31.824 57.1653 31.656C57.5199 31.4787 57.8186 31.208 58.0613 30.844L59.0833 31.488C58.7939 32.0013 58.3833 32.398 57.8513 32.678C57.3286 32.9487 56.7313 33.084 56.0593 33.084ZM63.9453 33.084C63.3106 33.084 62.7506 32.9673 62.2653 32.734C61.7893 32.5007 61.416 32.146 61.1453 31.67C60.884 31.1847 60.7533 30.578 60.7533 29.85V25.58H62.0973V29.696C62.0973 30.424 62.27 30.97 62.6153 31.334C62.97 31.698 63.4646 31.88 64.0993 31.88C64.566 31.88 64.972 31.7867 65.3173 31.6C65.6626 31.404 65.9286 31.124 66.1153 30.76C66.302 30.3867 66.3953 29.9387 66.3953 29.416V25.58H67.7393V33H66.4653V30.998L66.6753 31.53C66.4326 32.0247 66.0686 32.4073 65.5833 32.678C65.098 32.9487 64.552 33.084 63.9453 33.084ZM70.2979 33V25.58H71.5859V27.596L71.4599 27.092C71.6652 26.5787 72.0106 26.1867 72.4959 25.916C72.9812 25.6453 73.5786 25.51 74.2879 25.51V26.812C74.2319 26.8027 74.1759 26.798 74.1199 26.798C74.0732 26.798 74.0266 26.798 73.9799 26.798C73.2612 26.798 72.6919 27.0127 72.2719 27.442C71.8519 27.8713 71.6419 28.492 71.6419 29.304V33H70.2979ZM79.18 33.084C78.3867 33.084 77.6867 32.9207 77.08 32.594C76.4827 32.2673 76.016 31.8193 75.68 31.25C75.3534 30.6807 75.19 30.0273 75.19 29.29C75.19 28.5527 75.3487 27.8993 75.666 27.33C75.9927 26.7607 76.436 26.3173 76.996 26C77.5654 25.6733 78.2047 25.51 78.914 25.51C79.6327 25.51 80.2674 25.6687 80.818 25.986C81.3687 26.3033 81.798 26.7513 82.106 27.33C82.4234 27.8993 82.582 28.5667 82.582 29.332C82.582 29.388 82.5774 29.4533 82.568 29.528C82.568 29.6027 82.5634 29.6727 82.554 29.738H76.24V28.772H81.854L81.308 29.108C81.3174 28.632 81.2194 28.2073 81.014 27.834C80.8087 27.4607 80.524 27.1713 80.16 26.966C79.8054 26.7513 79.39 26.644 78.914 26.644C78.4474 26.644 78.032 26.7513 77.668 26.966C77.304 27.1713 77.0194 27.4653 76.814 27.848C76.6087 28.2213 76.506 28.6507 76.506 29.136V29.36C76.506 29.8547 76.618 30.298 76.842 30.69C77.0754 31.0727 77.3974 31.3713 77.808 31.586C78.2187 31.8007 78.69 31.908 79.222 31.908C79.6607 31.908 80.0574 31.8333 80.412 31.684C80.776 31.5347 81.0934 31.3107 81.364 31.012L82.106 31.88C81.77 32.272 81.35 32.5707 80.846 32.776C80.3514 32.9813 79.796 33.084 79.18 33.084ZM88.4041 33V24.922C88.4041 24.194 88.6141 23.6153 89.0341 23.186C89.4634 22.7473 90.0701 22.528 90.8541 22.528C91.1434 22.528 91.4187 22.5653 91.6801 22.64C91.9507 22.7053 92.1794 22.8127 92.3661 22.962L91.9601 23.984C91.8201 23.872 91.6614 23.788 91.4841 23.732C91.3067 23.6667 91.1201 23.634 90.9241 23.634C90.5321 23.634 90.2334 23.746 90.0281 23.97C89.8227 24.1847 89.7201 24.5067 89.7201 24.936V25.93L89.7481 26.546V33H88.4041ZM87.1441 26.686V25.58H91.8761V26.686H87.1441ZM96.3382 33.084C95.5449 33.084 94.8449 32.9207 94.2382 32.594C93.6409 32.2673 93.1742 31.8193 92.8382 31.25C92.5116 30.6807 92.3482 30.0273 92.3482 29.29C92.3482 28.5527 92.5069 27.8993 92.8242 27.33C93.1509 26.7607 93.5942 26.3173 94.1542 26C94.7236 25.6733 95.3629 25.51 96.0722 25.51C96.7909 25.51 97.4256 25.6687 97.9762 25.986C98.5269 26.3033 98.9562 26.7513 99.2642 27.33C99.5816 27.8993 99.7402 28.5667 99.7402 29.332C99.7402 29.388 99.7356 29.4533 99.7262 29.528C99.7262 29.6027 99.7216 29.6727 99.7122 29.738H93.3982V28.772H99.0122L98.4662 29.108C98.4756 28.632 98.3776 28.2073 98.1722 27.834C97.9669 27.4607 97.6822 27.1713 97.3182 26.966C96.9636 26.7513 96.5482 26.644 96.0722 26.644C95.6056 26.644 95.1902 26.7513 94.8262 26.966C94.4622 27.1713 94.1776 27.4653 93.9722 27.848C93.7669 28.2213 93.6642 28.6507 93.6642 29.136V29.36C93.6642 29.8547 93.7762 30.298 94.0002 30.69C94.2336 31.0727 94.5556 31.3713 94.9662 31.586C95.3769 31.8007 95.8482 31.908 96.3802 31.908C96.8189 31.908 97.2156 31.8333 97.5702 31.684C97.9342 31.5347 98.2516 31.3107 98.5222 31.012L99.2642 31.88C98.9282 32.272 98.5082 32.5707 98.0042 32.776C97.5096 32.9813 96.9542 33.084 96.3382 33.084ZM103.735 33.084C103.119 33.084 102.531 33 101.971 32.832C101.42 32.664 100.986 32.4587 100.669 32.216L101.229 31.152C101.546 31.3667 101.938 31.5487 102.405 31.698C102.871 31.8473 103.347 31.922 103.833 31.922C104.458 31.922 104.906 31.8333 105.177 31.656C105.457 31.4787 105.597 31.2313 105.597 30.914C105.597 30.6807 105.513 30.4987 105.345 30.368C105.177 30.2373 104.953 30.1393 104.673 30.074C104.402 30.0087 104.099 29.9527 103.763 29.906C103.427 29.85 103.091 29.7847 102.755 29.71C102.419 29.626 102.111 29.514 101.831 29.374C101.551 29.2247 101.327 29.024 101.159 28.772C100.991 28.5107 100.907 28.1653 100.907 27.736C100.907 27.288 101.033 26.896 101.285 26.56C101.537 26.224 101.891 25.9673 102.349 25.79C102.815 25.6033 103.366 25.51 104.001 25.51C104.486 25.51 104.976 25.5707 105.471 25.692C105.975 25.804 106.385 25.9673 106.703 26.182L106.129 27.246C105.793 27.022 105.443 26.868 105.079 26.784C104.715 26.7 104.351 26.658 103.987 26.658C103.399 26.658 102.96 26.756 102.671 26.952C102.381 27.1387 102.237 27.3813 102.237 27.68C102.237 27.932 102.321 28.128 102.489 28.268C102.666 28.3987 102.89 28.5013 103.161 28.576C103.441 28.6507 103.749 28.716 104.085 28.772C104.421 28.8187 104.757 28.884 105.093 28.968C105.429 29.0427 105.732 29.15 106.003 29.29C106.283 29.43 106.507 29.626 106.675 29.878C106.852 30.13 106.941 30.466 106.941 30.886C106.941 31.334 106.81 31.7213 106.549 32.048C106.287 32.3747 105.919 32.6313 105.443 32.818C104.967 32.9953 104.397 33.084 103.735 33.084ZM111.168 33.084C110.422 33.084 109.843 32.8833 109.432 32.482C109.022 32.0807 108.816 31.5067 108.816 30.76V23.956H110.16V30.704C110.16 31.1053 110.258 31.4133 110.454 31.628C110.66 31.8427 110.949 31.95 111.322 31.95C111.742 31.95 112.092 31.8333 112.372 31.6L112.792 32.566C112.587 32.7433 112.34 32.874 112.05 32.958C111.77 33.042 111.476 33.084 111.168 33.084ZM107.556 26.686V25.58H112.288V26.686H107.556ZM114.417 33V25.58H115.761V33H114.417ZM115.089 24.152C114.828 24.152 114.608 24.068 114.431 23.9C114.263 23.732 114.179 23.5267 114.179 23.284C114.179 23.032 114.263 22.822 114.431 22.654C114.608 22.486 114.828 22.402 115.089 22.402C115.35 22.402 115.565 22.486 115.733 22.654C115.91 22.8127 115.999 23.0133 115.999 23.256C115.999 23.508 115.915 23.7227 115.747 23.9C115.579 24.068 115.36 24.152 115.089 24.152ZM120.273 33L117.025 25.58H118.425L121.309 32.3H120.637L123.577 25.58H124.893L121.645 33H120.273ZM129.246 33.084C128.453 33.084 127.753 32.9207 127.146 32.594C126.549 32.2673 126.082 31.8193 125.746 31.25C125.42 30.6807 125.256 30.0273 125.256 29.29C125.256 28.5527 125.415 27.8993 125.732 27.33C126.059 26.7607 126.502 26.3173 127.062 26C127.632 25.6733 128.271 25.51 128.98 25.51C129.699 25.51 130.334 25.6687 130.884 25.986C131.435 26.3033 131.864 26.7513 132.172 27.33C132.49 27.8993 132.648 28.5667 132.648 29.332C132.648 29.388 132.644 29.4533 132.634 29.528C132.634 29.6027 132.63 29.6727 132.62 29.738H126.306V28.772H131.92L131.374 29.108C131.384 28.632 131.286 28.2073 131.08 27.834C130.875 27.4607 130.59 27.1713 130.226 26.966C129.872 26.7513 129.456 26.644 128.98 26.644C128.514 26.644 128.098 26.7513 127.734 26.966C127.37 27.1713 127.086 27.4653 126.88 27.848C126.675 28.2213 126.572 28.6507 126.572 29.136V29.36C126.572 29.8547 126.684 30.298 126.908 30.69C127.142 31.0727 127.464 31.3713 127.874 31.586C128.285 31.8007 128.756 31.908 129.288 31.908C129.727 31.908 130.124 31.8333 130.478 31.684C130.842 31.5347 131.16 31.3107 131.43 31.012L132.172 31.88C131.836 32.272 131.416 32.5707 130.912 32.776C130.418 32.9813 129.862 33.084 129.246 33.084ZM142.88 33V31.432L142.81 31.138V28.464C142.81 27.8947 142.642 27.456 142.306 27.148C141.98 26.8307 141.485 26.672 140.822 26.672C140.384 26.672 139.954 26.7467 139.534 26.896C139.114 27.036 138.76 27.2273 138.47 27.47L137.91 26.462C138.293 26.154 138.75 25.9207 139.282 25.762C139.824 25.594 140.388 25.51 140.976 25.51C141.994 25.51 142.778 25.7573 143.328 26.252C143.879 26.7467 144.154 27.5027 144.154 28.52V33H142.88ZM140.444 33.084C139.894 33.084 139.408 32.9907 138.988 32.804C138.578 32.6173 138.26 32.3607 138.036 32.034C137.812 31.698 137.7 31.32 137.7 30.9C137.7 30.4987 137.794 30.1347 137.98 29.808C138.176 29.4813 138.489 29.22 138.918 29.024C139.357 28.828 139.945 28.73 140.682 28.73H143.034V29.696H140.738C140.066 29.696 139.614 29.808 139.38 30.032C139.147 30.256 139.03 30.5267 139.03 30.844C139.03 31.208 139.175 31.502 139.464 31.726C139.754 31.9407 140.155 32.048 140.668 32.048C141.172 32.048 141.611 31.936 141.984 31.712C142.367 31.488 142.642 31.1613 142.81 30.732L143.076 31.656C142.899 32.0947 142.586 32.4447 142.138 32.706C141.69 32.958 141.126 33.084 140.444 33.084ZM150.604 25.51C151.21 25.51 151.742 25.6267 152.2 25.86C152.666 26.0933 153.03 26.448 153.292 26.924C153.553 27.4 153.684 28.002 153.684 28.73V33H152.34V28.884C152.34 28.1653 152.162 27.624 151.808 27.26C151.462 26.896 150.972 26.714 150.338 26.714C149.862 26.714 149.446 26.8073 149.092 26.994C148.737 27.1807 148.462 27.456 148.266 27.82C148.079 28.184 147.986 28.6367 147.986 29.178V33H146.642V25.58H147.93V27.582L147.72 27.05C147.962 26.5647 148.336 26.1867 148.84 25.916C149.344 25.6453 149.932 25.51 150.604 25.51ZM159.237 33.084C158.518 33.084 157.874 32.9253 157.305 32.608C156.745 32.2907 156.302 31.8473 155.975 31.278C155.648 30.7087 155.485 30.046 155.485 29.29C155.485 28.534 155.648 27.876 155.975 27.316C156.302 26.7467 156.745 26.3033 157.305 25.986C157.874 25.6687 158.518 25.51 159.237 25.51C159.862 25.51 160.427 25.65 160.931 25.93C161.435 26.21 161.836 26.63 162.135 27.19C162.443 27.75 162.597 28.45 162.597 29.29C162.597 30.13 162.448 30.83 162.149 31.39C161.86 31.95 161.463 32.3747 160.959 32.664C160.455 32.944 159.881 33.084 159.237 33.084ZM159.349 31.908C159.816 31.908 160.236 31.8007 160.609 31.586C160.992 31.3713 161.29 31.068 161.505 30.676C161.729 30.2747 161.841 29.8127 161.841 29.29C161.841 28.758 161.729 28.3007 161.505 27.918C161.29 27.526 160.992 27.2227 160.609 27.008C160.236 26.7933 159.816 26.686 159.349 26.686C158.873 26.686 158.448 26.7933 158.075 27.008C157.702 27.2227 157.403 27.526 157.179 27.918C156.955 28.3007 156.843 28.758 156.843 29.29C156.843 29.8127 156.955 30.2747 157.179 30.676C157.403 31.068 157.702 31.3713 158.075 31.586C158.448 31.8007 158.873 31.908 159.349 31.908ZM161.883 33V30.998L161.967 29.276L161.827 27.554V22.612H163.171V33H161.883ZM173.408 33.084C172.773 33.084 172.199 32.944 171.686 32.664C171.182 32.3747 170.78 31.95 170.482 31.39C170.192 30.83 170.048 30.13 170.048 29.29C170.048 28.45 170.197 27.75 170.496 27.19C170.804 26.63 171.21 26.21 171.714 25.93C172.227 25.65 172.792 25.51 173.408 25.51C174.136 25.51 174.78 25.6687 175.34 25.986C175.9 26.3033 176.343 26.7467 176.67 27.316C176.996 27.876 177.16 28.534 177.16 29.29C177.16 30.046 176.996 30.7087 176.67 31.278C176.343 31.8473 175.9 32.2907 175.34 32.608C174.78 32.9253 174.136 33.084 173.408 33.084ZM169.474 33V22.612H170.818V27.554L170.678 29.276L170.762 30.998V33H169.474ZM173.296 31.908C173.772 31.908 174.196 31.8007 174.57 31.586C174.952 31.3713 175.251 31.068 175.466 30.676C175.69 30.2747 175.802 29.8127 175.802 29.29C175.802 28.758 175.69 28.3007 175.466 27.918C175.251 27.526 174.952 27.2227 174.57 27.008C174.196 26.7933 173.772 26.686 173.296 26.686C172.829 26.686 172.404 26.7933 172.022 27.008C171.648 27.2227 171.35 27.526 171.126 27.918C170.911 28.3007 170.804 28.758 170.804 29.29C170.804 29.8127 170.911 30.2747 171.126 30.676C171.35 31.068 171.648 31.3713 172.022 31.586C172.404 31.8007 172.829 31.908 173.296 31.908ZM182.139 33.084C181.504 33.084 180.944 32.9673 180.459 32.734C179.983 32.5007 179.609 32.146 179.339 31.67C179.077 31.1847 178.947 30.578 178.947 29.85V25.58H180.291V29.696C180.291 30.424 180.463 30.97 180.809 31.334C181.163 31.698 181.658 31.88 182.293 31.88C182.759 31.88 183.165 31.7867 183.511 31.6C183.856 31.404 184.122 31.124 184.309 30.76C184.495 30.3867 184.589 29.9387 184.589 29.416V25.58H185.933V33H184.659V30.998L184.869 31.53C184.626 32.0247 184.262 32.4073 183.777 32.678C183.291 32.9487 182.745 33.084 182.139 33.084ZM188.491 33V22.612H189.835V33H188.491ZM193.493 31.208L193.521 29.486L197.791 25.58H199.415L196.139 28.8L195.411 29.416L193.493 31.208ZM192.401 33V22.612H193.745V33H192.401ZM198.071 33L195.159 29.388L196.027 28.31L199.723 33H198.071ZM208.722 33.084C208.106 33.084 207.541 32.944 207.028 32.664C206.524 32.3747 206.118 31.95 205.81 31.39C205.511 30.83 205.362 30.13 205.362 29.29C205.362 28.45 205.507 27.75 205.796 27.19C206.095 26.63 206.496 26.21 207 25.93C207.513 25.65 208.087 25.51 208.722 25.51C209.45 25.51 210.094 25.6687 210.654 25.986C211.214 26.3033 211.657 26.7467 211.984 27.316C212.311 27.876 212.474 28.534 212.474 29.29C212.474 30.046 212.311 30.7087 211.984 31.278C211.657 31.8473 211.214 32.2907 210.654 32.608C210.094 32.9253 209.45 33.084 208.722 33.084ZM204.788 35.716V25.58H206.076V27.582L205.992 29.304L206.132 31.026V35.716H204.788ZM208.61 31.908C209.086 31.908 209.511 31.8007 209.884 31.586C210.267 31.3713 210.565 31.068 210.78 30.676C211.004 30.2747 211.116 29.8127 211.116 29.29C211.116 28.758 211.004 28.3007 210.78 27.918C210.565 27.526 210.267 27.2227 209.884 27.008C209.511 26.7933 209.086 26.686 208.61 26.686C208.143 26.686 207.719 26.7933 207.336 27.008C206.963 27.2227 206.664 27.526 206.44 27.918C206.225 28.3007 206.118 28.758 206.118 29.29C206.118 29.8127 206.225 30.2747 206.44 30.676C206.664 31.068 206.963 31.3713 207.336 31.586C207.719 31.8007 208.143 31.908 208.61 31.908ZM218.869 33V31.432L218.799 31.138V28.464C218.799 27.8947 218.631 27.456 218.295 27.148C217.968 26.8307 217.473 26.672 216.811 26.672C216.372 26.672 215.943 26.7467 215.523 26.896C215.103 27.036 214.748 27.2273 214.459 27.47L213.899 26.462C214.281 26.154 214.739 25.9207 215.271 25.762C215.812 25.594 216.377 25.51 216.965 25.51C217.982 25.51 218.766 25.7573 219.317 26.252C219.867 26.7467 220.143 27.5027 220.143 28.52V33H218.869ZM216.433 33.084C215.882 33.084 215.397 32.9907 214.977 32.804C214.566 32.6173 214.249 32.3607 214.025 32.034C213.801 31.698 213.689 31.32 213.689 30.9C213.689 30.4987 213.782 30.1347 213.969 29.808C214.165 29.4813 214.477 29.22 214.907 29.024C215.345 28.828 215.933 28.73 216.671 28.73H219.023V29.696H216.727C216.055 29.696 215.602 29.808 215.369 30.032C215.135 30.256 215.019 30.5267 215.019 30.844C215.019 31.208 215.163 31.502 215.453 31.726C215.742 31.9407 216.143 32.048 216.657 32.048C217.161 32.048 217.599 31.936 217.973 31.712C218.355 31.488 218.631 31.1613 218.799 30.732L219.065 31.656C218.887 32.0947 218.575 32.4447 218.127 32.706C217.679 32.958 217.114 33.084 216.433 33.084ZM225.864 33.084C225.108 33.084 224.431 32.9207 223.834 32.594C223.246 32.2673 222.784 31.8193 222.448 31.25C222.112 30.6807 221.944 30.0273 221.944 29.29C221.944 28.5527 222.112 27.8993 222.448 27.33C222.784 26.7607 223.246 26.3173 223.834 26C224.431 25.6733 225.108 25.51 225.864 25.51C226.536 25.51 227.133 25.6453 227.656 25.916C228.188 26.1773 228.599 26.5693 228.888 27.092L227.866 27.75C227.623 27.386 227.325 27.12 226.97 26.952C226.625 26.7747 226.251 26.686 225.85 26.686C225.365 26.686 224.931 26.7933 224.548 27.008C224.165 27.2227 223.862 27.526 223.638 27.918C223.414 28.3007 223.302 28.758 223.302 29.29C223.302 29.822 223.414 30.284 223.638 30.676C223.862 31.068 224.165 31.3713 224.548 31.586C224.931 31.8007 225.365 31.908 225.85 31.908C226.251 31.908 226.625 31.824 226.97 31.656C227.325 31.4787 227.623 31.208 227.866 30.844L228.888 31.488C228.599 32.0013 228.188 32.398 227.656 32.678C227.133 32.9487 226.536 33.084 225.864 33.084ZM231.624 31.208L231.652 29.486L235.922 25.58H237.546L234.27 28.8L233.542 29.416L231.624 31.208ZM230.532 33V22.612H231.876V33H230.532ZM236.202 33L233.29 29.388L234.158 28.31L237.854 33H236.202ZM243.629 33V31.432L243.559 31.138V28.464C243.559 27.8947 243.391 27.456 243.055 27.148C242.728 26.8307 242.233 26.672 241.571 26.672C241.132 26.672 240.703 26.7467 240.283 26.896C239.863 27.036 239.508 27.2273 239.219 27.47L238.659 26.462C239.041 26.154 239.499 25.9207 240.031 25.762C240.572 25.594 241.137 25.51 241.725 25.51C242.742 25.51 243.526 25.7573 244.077 26.252C244.627 26.7467 244.903 27.5027 244.903 28.52V33H243.629ZM241.193 33.084C240.642 33.084 240.157 32.9907 239.737 32.804C239.326 32.6173 239.009 32.3607 238.785 32.034C238.561 31.698 238.449 31.32 238.449 30.9C238.449 30.4987 238.542 30.1347 238.729 29.808C238.925 29.4813 239.237 29.22 239.667 29.024C240.105 28.828 240.693 28.73 241.431 28.73H243.783V29.696H241.487C240.815 29.696 240.362 29.808 240.129 30.032C239.895 30.256 239.779 30.5267 239.779 30.844C239.779 31.208 239.923 31.502 240.213 31.726C240.502 31.9407 240.903 32.048 241.417 32.048C241.921 32.048 242.359 31.936 242.733 31.712C243.115 31.488 243.391 31.1613 243.559 30.732L243.825 31.656C243.647 32.0947 243.335 32.4447 242.887 32.706C242.439 32.958 241.874 33.084 241.193 33.084ZM250.638 35.8C249.956 35.8 249.294 35.702 248.65 35.506C248.015 35.3193 247.497 35.0487 247.096 34.694L247.74 33.658C248.085 33.9567 248.51 34.19 249.014 34.358C249.518 34.5353 250.045 34.624 250.596 34.624C251.473 34.624 252.117 34.4187 252.528 34.008C252.938 33.5973 253.144 32.972 253.144 32.132V30.564L253.284 29.094L253.214 27.61V25.58H254.488V31.992C254.488 33.2987 254.161 34.26 253.508 34.876C252.854 35.492 251.898 35.8 250.638 35.8ZM250.47 32.692C249.751 32.692 249.107 32.5427 248.538 32.244C247.978 31.936 247.53 31.5113 247.194 30.97C246.867 30.4287 246.704 29.8033 246.704 29.094C246.704 28.3753 246.867 27.75 247.194 27.218C247.53 26.6767 247.978 26.2567 248.538 25.958C249.107 25.6593 249.751 25.51 250.47 25.51C251.104 25.51 251.683 25.6407 252.206 25.902C252.728 26.154 253.144 26.546 253.452 27.078C253.769 27.61 253.928 28.282 253.928 29.094C253.928 29.8967 253.769 30.564 253.452 31.096C253.144 31.628 252.728 32.0293 252.206 32.3C251.683 32.5613 251.104 32.692 250.47 32.692ZM250.624 31.516C251.118 31.516 251.557 31.4133 251.94 31.208C252.322 31.0027 252.621 30.718 252.836 30.354C253.06 29.99 253.172 29.57 253.172 29.094C253.172 28.618 253.06 28.198 252.836 27.834C252.621 27.47 252.322 27.19 251.94 26.994C251.557 26.7887 251.118 26.686 250.624 26.686C250.129 26.686 249.686 26.7887 249.294 26.994C248.911 27.19 248.608 27.47 248.384 27.834C248.169 28.198 248.062 28.618 248.062 29.094C248.062 29.57 248.169 29.99 248.384 30.354C248.608 30.718 248.911 31.0027 249.294 31.208C249.686 31.4133 250.129 31.516 250.624 31.516ZM257.056 33V25.58H258.4V33H257.056ZM257.728 24.152C257.466 24.152 257.247 24.068 257.07 23.9C256.902 23.732 256.818 23.5267 256.818 23.284C256.818 23.032 256.902 22.822 257.07 22.654C257.247 22.486 257.466 22.402 257.728 22.402C257.989 22.402 258.204 22.486 258.372 22.654C258.549 22.8127 258.638 23.0133 258.638 23.256C258.638 23.508 258.554 23.7227 258.386 23.9C258.218 24.068 257.998 24.152 257.728 24.152ZM264.928 25.51C265.535 25.51 266.067 25.6267 266.524 25.86C266.991 26.0933 267.355 26.448 267.616 26.924C267.877 27.4 268.008 28.002 268.008 28.73V33H266.664V28.884C266.664 28.1653 266.487 27.624 266.132 27.26C265.787 26.896 265.297 26.714 264.662 26.714C264.186 26.714 263.771 26.8073 263.416 26.994C263.061 27.1807 262.786 27.456 262.59 27.82C262.403 28.184 262.31 28.6367 262.31 29.178V33H260.966V25.58H262.254V27.582L262.044 27.05C262.287 26.5647 262.66 26.1867 263.164 25.916C263.668 25.6453 264.256 25.51 264.928 25.51ZM273.743 35.8C273.062 35.8 272.399 35.702 271.755 35.506C271.121 35.3193 270.603 35.0487 270.201 34.694L270.845 33.658C271.191 33.9567 271.615 34.19 272.119 34.358C272.623 34.5353 273.151 34.624 273.701 34.624C274.579 34.624 275.223 34.4187 275.633 34.008C276.044 33.5973 276.249 32.972 276.249 32.132V30.564L276.389 29.094L276.319 27.61V25.58H277.593V31.992C277.593 33.2987 277.267 34.26 276.613 34.876C275.96 35.492 275.003 35.8 273.743 35.8ZM273.575 32.692C272.857 32.692 272.213 32.5427 271.643 32.244C271.083 31.936 270.635 31.5113 270.299 30.97C269.973 30.4287 269.809 29.8033 269.809 29.094C269.809 28.3753 269.973 27.75 270.299 27.218C270.635 26.6767 271.083 26.2567 271.643 25.958C272.213 25.6593 272.857 25.51 273.575 25.51C274.21 25.51 274.789 25.6407 275.311 25.902C275.834 26.154 276.249 26.546 276.557 27.078C276.875 27.61 277.033 28.282 277.033 29.094C277.033 29.8967 276.875 30.564 276.557 31.096C276.249 31.628 275.834 32.0293 275.311 32.3C274.789 32.5613 274.21 32.692 273.575 32.692ZM273.729 31.516C274.224 31.516 274.663 31.4133 275.045 31.208C275.428 31.0027 275.727 30.718 275.941 30.354C276.165 29.99 276.277 29.57 276.277 29.094C276.277 28.618 276.165 28.198 275.941 27.834C275.727 27.47 275.428 27.19 275.045 26.994C274.663 26.7887 274.224 26.686 273.729 26.686C273.235 26.686 272.791 26.7887 272.399 26.994C272.017 27.19 271.713 27.47 271.489 27.834C271.275 28.198 271.167 28.618 271.167 29.094C271.167 29.57 271.275 29.99 271.489 30.354C271.713 30.718 272.017 31.0027 272.399 31.208C272.791 31.4133 273.235 31.516 273.729 31.516ZM280.483 33.084C280.222 33.084 279.998 32.9953 279.811 32.818C279.625 32.6313 279.531 32.398 279.531 32.118C279.531 31.838 279.625 31.6093 279.811 31.432C279.998 31.2547 280.222 31.166 280.483 31.166C280.735 31.166 280.95 31.2547 281.127 31.432C281.314 31.6093 281.407 31.838 281.407 32.118C281.407 32.398 281.314 32.6313 281.127 32.818C280.95 32.9953 280.735 33.084 280.483 33.084Z" fill="black"/>
</svg>
