<svg width="165" height="50" viewBox="0 0 165 50" fill="none" xmlns="http://www.w3.org/2000/svg">
<g filter="url(#filter0_d_2040_1097)">
<rect x="24.1406" y="4.7168" width="33" height="31" rx="6" transform="rotate(46.3303 24.1406 4.7168)" fill="white"/>
</g>
<path d="M20.1982 21.1045H28.2373C28.4651 21.1045 28.6809 21.2079 28.8232 21.3857L30.3037 23.2363C30.4101 23.3693 30.4677 23.5348 30.4678 23.7051V33.3545C30.4678 33.7687 30.132 34.1045 29.7178 34.1045H18.7178C18.3036 34.1045 17.9678 33.7687 17.9678 33.3545V23.7051C17.9678 23.5348 18.0255 23.3693 18.1318 23.2363L19.6123 21.3857C19.7546 21.2079 19.9705 21.1045 20.1982 21.1045Z" stroke="black" stroke-width="0.5"/>
<path d="M18.2178 23.3545H30.2178" stroke="black" stroke-width="0.5"/>
<path d="M26.4678 23.6045V29.834L24.374 28.1592L24.2178 28.0342L24.0615 28.1592L21.9678 29.834V23.6045H26.4678Z" stroke="black" stroke-width="0.5"/>
<path d="M56.048 23.667V14.219H60.1376C60.9835 14.219 61.7123 14.3585 62.3242 14.6374C62.936 14.9073 63.4084 15.2988 63.7414 15.8117C64.0743 16.3245 64.2408 16.9364 64.2408 17.6473C64.2408 18.3491 64.0743 18.9565 63.7414 19.4694C63.4084 19.9823 62.936 20.3782 62.3242 20.6571C61.7123 20.9271 60.9835 21.062 60.1376 21.062H57.2627L58.2345 20.0768V23.667H56.048ZM58.2345 20.3197L57.2627 19.2804H60.0162C60.691 19.2804 61.1949 19.1365 61.5278 18.8485C61.8608 18.5606 62.0272 18.1602 62.0272 17.6473C62.0272 17.1254 61.8608 16.7205 61.5278 16.4325C61.1949 16.1446 60.691 16.0006 60.0162 16.0006H57.2627L58.2345 14.9613V20.3197ZM69.1494 23.775C68.3666 23.775 67.6692 23.6175 67.0573 23.3026C66.4455 22.9786 65.9641 22.5332 65.6131 21.9664C65.2712 21.3995 65.1003 20.7561 65.1003 20.0363C65.1003 19.3074 65.2712 18.6641 65.6131 18.1062C65.9641 17.5393 66.4455 17.0984 67.0573 16.7834C67.6692 16.4595 68.3666 16.2976 69.1494 16.2976C69.9142 16.2976 70.5801 16.4595 71.147 16.7834C71.7139 17.0984 72.1323 17.5528 72.4022 18.1467L70.7691 19.024C70.5801 18.682 70.3416 18.4301 70.0537 18.2681C69.7748 18.1062 69.4688 18.0252 69.1359 18.0252C68.776 18.0252 68.452 18.1062 68.1641 18.2681C67.8762 18.4301 67.6467 18.6596 67.4758 18.9565C67.3138 19.2534 67.2328 19.6133 67.2328 20.0363C67.2328 20.4592 67.3138 20.8191 67.4758 21.116C67.6467 21.413 67.8762 21.6424 68.1641 21.8044C68.452 21.9664 68.776 22.0473 69.1359 22.0473C69.4688 22.0473 69.7748 21.9709 70.0537 21.8179C70.3416 21.6559 70.5801 21.3995 70.7691 21.0485L72.4022 21.9394C72.1323 22.5242 71.7139 22.9786 71.147 23.3026C70.5801 23.6175 69.9142 23.775 69.1494 23.775ZM76.0575 23.775C75.4366 23.775 74.8383 23.703 74.2624 23.559C73.6955 23.406 73.2456 23.2171 72.9127 22.9921L73.6145 21.4805C73.9475 21.6874 74.3389 21.8584 74.7888 21.9933C75.2477 22.1193 75.6976 22.1823 76.1385 22.1823C76.6244 22.1823 76.9663 22.1238 77.1643 22.0068C77.3712 21.8899 77.4747 21.7279 77.4747 21.5209C77.4747 21.35 77.3937 21.224 77.2318 21.143C77.0788 21.053 76.8718 20.9856 76.6109 20.9406C76.35 20.8956 76.062 20.8506 75.7471 20.8056C75.4411 20.7606 75.1307 20.7021 74.8158 20.6301C74.5008 20.5492 74.2129 20.4322 73.952 20.2792C73.691 20.1262 73.4796 19.9193 73.3176 19.6583C73.1646 19.3974 73.0881 19.06 73.0881 18.6461C73.0881 18.1872 73.2186 17.7822 73.4796 17.4313C73.7495 17.0804 74.1364 16.8059 74.6403 16.608C75.1442 16.401 75.7471 16.2976 76.4489 16.2976C76.9438 16.2976 77.4477 16.3515 77.9606 16.4595C78.4735 16.5675 78.9009 16.725 79.2428 16.9319L78.541 18.4301C78.1901 18.2231 77.8346 18.0837 77.4747 18.0117C77.1238 17.9307 76.7819 17.8902 76.4489 17.8902C75.981 17.8902 75.6391 17.9532 75.4231 18.0792C75.2072 18.2051 75.0992 18.3671 75.0992 18.5651C75.0992 18.745 75.1757 18.88 75.3287 18.97C75.4906 19.06 75.7021 19.132 75.963 19.1859C76.224 19.2399 76.5074 19.2894 76.8134 19.3344C77.1283 19.3704 77.4432 19.4289 77.7582 19.5099C78.0731 19.5909 78.3565 19.7078 78.6085 19.8608C78.8694 20.0048 79.0809 20.2072 79.2428 20.4682C79.4048 20.7201 79.4858 21.053 79.4858 21.467C79.4858 21.9169 79.3508 22.3173 79.0809 22.6682C78.8109 23.0101 78.4195 23.2801 77.9066 23.478C77.4027 23.676 76.7864 23.775 76.0575 23.775ZM84.7558 23.667V14.219H88.8454C89.6912 14.219 90.4201 14.3585 91.032 14.6374C91.6438 14.9073 92.1162 15.2988 92.4492 15.8117C92.7821 16.3245 92.9486 16.9364 92.9486 17.6473C92.9486 18.3491 92.7821 18.9565 92.4492 19.4694C92.1162 19.9823 91.6438 20.3782 91.032 20.6571C90.4201 20.9271 89.6912 21.062 88.8454 21.062H85.9705L86.9423 20.0768V23.667H84.7558ZM86.9423 20.3197L85.9705 19.2804H88.7239C89.3988 19.2804 89.9027 19.1365 90.2356 18.8485C90.5686 18.5606 90.735 18.1602 90.735 17.6473C90.735 17.1254 90.5686 16.7205 90.2356 16.4325C89.9027 16.1446 89.3988 16.0006 88.7239 16.0006H85.9705L86.9423 14.9613V20.3197ZM97.9517 23.775C97.1238 23.775 96.395 23.613 95.7651 23.2891C95.1443 22.9651 94.6629 22.5242 94.3209 21.9664C93.979 21.3995 93.808 20.7561 93.808 20.0363C93.808 19.3074 93.9745 18.6641 94.3074 18.1062C94.6494 17.5393 95.1128 17.0984 95.6976 16.7834C96.2825 16.4595 96.9439 16.2976 97.6817 16.2976C98.3926 16.2976 99.0314 16.4505 99.5983 16.7565C100.174 17.0534 100.629 17.4853 100.962 18.0522C101.294 18.6101 101.461 19.2804 101.461 20.0633C101.461 20.1442 101.456 20.2387 101.447 20.3467C101.438 20.4457 101.429 20.5402 101.42 20.6301H95.5222V19.4019H100.314L99.5038 19.7663C99.5038 19.3884 99.4274 19.06 99.2744 18.781C99.1214 18.5021 98.91 18.2861 98.64 18.1332C98.3701 17.9712 98.0552 17.8902 97.6952 17.8902C97.3353 17.8902 97.0159 17.9712 96.7369 18.1332C96.467 18.2861 96.2555 18.5066 96.1026 18.7945C95.9496 19.0735 95.8731 19.4064 95.8731 19.7933V20.1172C95.8731 20.5132 95.9586 20.8641 96.1296 21.17C96.3095 21.467 96.557 21.6964 96.8719 21.8584C97.1958 22.0113 97.5738 22.0878 98.0057 22.0878C98.3926 22.0878 98.73 22.0293 99.0179 21.9124C99.3149 21.7954 99.5848 21.6199 99.8278 21.386L100.948 22.6007C100.615 22.9786 100.197 23.2711 99.6928 23.478C99.1889 23.676 98.6085 23.775 97.9517 23.775ZM102.863 23.667V16.4055H104.874V18.4571L104.59 17.8632C104.806 17.3503 105.153 16.9634 105.63 16.7025C106.107 16.4325 106.687 16.2976 107.371 16.2976V18.2411C107.281 18.2321 107.2 18.2276 107.128 18.2276C107.056 18.2186 106.979 18.2141 106.898 18.2141C106.323 18.2141 105.855 18.3806 105.495 18.7135C105.144 19.0375 104.968 19.5459 104.968 20.2387V23.667H102.863ZM112.646 23.667V14.219H117.262C118.45 14.219 119.341 14.4439 119.935 14.8938C120.538 15.3438 120.839 15.9376 120.839 16.6755C120.839 17.1704 120.718 17.6023 120.475 17.9712C120.232 18.3311 119.899 18.6101 119.476 18.808C119.053 19.006 118.567 19.105 118.018 19.105L118.275 18.5516C118.869 18.5516 119.395 18.6506 119.854 18.8485C120.313 19.0375 120.668 19.3209 120.92 19.6988C121.181 20.0768 121.312 20.5402 121.312 21.089C121.312 21.8989 120.992 22.5332 120.353 22.9921C119.714 23.442 118.774 23.667 117.532 23.667H112.646ZM114.819 22.0203H117.37C117.937 22.0203 118.365 21.9304 118.653 21.7504C118.95 21.5614 119.098 21.2645 119.098 20.8596C119.098 20.4637 118.95 20.1712 118.653 19.9823C118.365 19.7843 117.937 19.6853 117.37 19.6853H114.657V18.0927H116.992C117.523 18.0927 117.928 18.0027 118.207 17.8227C118.495 17.6338 118.639 17.3503 118.639 16.9724C118.639 16.6035 118.495 16.329 118.207 16.1491C117.928 15.9601 117.523 15.8656 116.992 15.8656H114.819V22.0203ZM126.274 23.775C125.5 23.775 124.812 23.613 124.209 23.2891C123.615 22.9651 123.142 22.5242 122.791 21.9664C122.45 21.3995 122.279 20.7561 122.279 20.0363C122.279 19.3074 122.45 18.6641 122.791 18.1062C123.142 17.5393 123.615 17.0984 124.209 16.7834C124.812 16.4595 125.5 16.2976 126.274 16.2976C127.039 16.2976 127.722 16.4595 128.325 16.7834C128.928 17.0984 129.401 17.5348 129.743 18.0927C130.084 18.6506 130.255 19.2984 130.255 20.0363C130.255 20.7561 130.084 21.3995 129.743 21.9664C129.401 22.5242 128.928 22.9651 128.325 23.2891C127.722 23.613 127.039 23.775 126.274 23.775ZM126.274 22.0473C126.625 22.0473 126.94 21.9664 127.219 21.8044C127.497 21.6424 127.718 21.413 127.88 21.116C128.042 20.8101 128.123 20.4502 128.123 20.0363C128.123 19.6133 128.042 19.2534 127.88 18.9565C127.718 18.6596 127.497 18.4301 127.219 18.2681C126.94 18.1062 126.625 18.0252 126.274 18.0252C125.923 18.0252 125.608 18.1062 125.329 18.2681C125.05 18.4301 124.825 18.6596 124.654 18.9565C124.492 19.2534 124.411 19.6133 124.411 20.0363C124.411 20.4502 124.492 20.8101 124.654 21.116C124.825 21.413 125.05 21.6424 125.329 21.8044C125.608 21.9664 125.923 22.0473 126.274 22.0473ZM130.521 23.667L133.774 19.4019L133.733 20.5626L130.615 16.4055H132.977L134.948 19.1185L134.057 19.1454L136.095 16.4055H138.336L135.204 20.5222V19.3884L138.444 23.667H136.055L133.99 20.7786L134.867 20.9001L132.815 23.667H130.521Z" fill="black"/>
<path d="M56.8848 41.041V33.5051L57.2447 33.8875H55.029V33.1677H57.6946V41.041H56.8848ZM60.9601 41.041L64.3569 33.5276L64.6044 33.8875H59.7342L60.1503 33.4939V35.361H59.3517V33.1677H65.133V33.7413L61.8375 41.041H60.9601ZM69.1185 41.1085C68.5111 41.1085 67.9712 40.951 67.4988 40.6361C67.0264 40.3137 66.6552 39.8563 66.3853 39.2639C66.1153 38.664 65.9804 37.9442 65.9804 37.1043C65.9804 36.2645 66.1153 35.5484 66.3853 34.9561C66.6552 34.3562 67.0264 33.8988 67.4988 33.5838C67.9712 33.2614 68.5111 33.1002 69.1185 33.1002C69.7258 33.1002 70.2657 33.2614 70.7381 33.5838C71.2105 33.8988 71.5817 34.3562 71.8516 34.9561C72.1291 35.5484 72.2678 36.2645 72.2678 37.1043C72.2678 37.9442 72.1291 38.664 71.8516 39.2639C71.5817 39.8563 71.2105 40.3137 70.7381 40.6361C70.2657 40.951 69.7258 41.1085 69.1185 41.1085ZM69.1185 40.3662C69.5834 40.3662 69.9883 40.2424 70.3332 39.995C70.6781 39.74 70.9481 39.3726 71.143 38.8927C71.338 38.4053 71.4355 37.8092 71.4355 37.1043C71.4355 36.3995 71.338 35.8071 71.143 35.3272C70.9481 34.8398 70.6781 34.4724 70.3332 34.225C69.9883 33.97 69.5834 33.8425 69.1185 33.8425C68.6685 33.8425 68.2674 33.97 67.915 34.225C67.5625 34.4724 67.2888 34.8398 67.0939 35.3272C66.8989 35.8071 66.8014 36.3995 66.8014 37.1043C66.8014 37.8092 66.8989 38.4053 67.0939 38.8927C67.2888 39.3726 67.5625 39.74 67.915 39.995C68.2674 40.2424 68.6685 40.3662 69.1185 40.3662ZM77.0686 41.041V33.1677H77.7547L83.1873 40.0062H82.8274V33.1677H83.6484V41.041H82.9623L77.541 34.2025H77.9009V41.041H77.0686ZM88.4565 41.0973C87.8867 41.0973 87.373 40.9698 86.9156 40.7148C86.4657 40.4524 86.1095 40.0962 85.8471 39.6463C85.5846 39.1889 85.4534 38.6678 85.4534 38.0829C85.4534 37.4905 85.5846 36.9694 85.8471 36.5195C86.1095 36.0696 86.4657 35.7171 86.9156 35.4622C87.3655 35.2072 87.8792 35.0798 88.4565 35.0798C89.0414 35.0798 89.5588 35.2072 90.0087 35.4622C90.4661 35.7171 90.8223 36.0696 91.0772 36.5195C91.3397 36.9694 91.4709 37.4905 91.4709 38.0829C91.4709 38.6678 91.3397 39.1889 91.0772 39.6463C90.8223 40.0962 90.4661 40.4524 90.0087 40.7148C89.5513 40.9698 89.0339 41.0973 88.4565 41.0973ZM88.4565 40.3887C88.884 40.3887 89.2626 40.2949 89.5926 40.1075C89.9225 39.9125 90.1812 39.6426 90.3686 39.2976C90.5636 38.9452 90.6611 38.5403 90.6611 38.0829C90.6611 37.618 90.5636 37.2131 90.3686 36.8681C90.1812 36.5232 89.9225 36.257 89.5926 36.0696C89.2626 35.8746 88.8877 35.7771 88.4678 35.7771C88.0479 35.7771 87.673 35.8746 87.343 36.0696C87.0131 36.257 86.7507 36.5232 86.5557 36.8681C86.3607 37.2131 86.2633 37.618 86.2633 38.0829C86.2633 38.5403 86.3607 38.9452 86.5557 39.2976C86.7507 39.6426 87.0131 39.9125 87.343 40.1075C87.673 40.2949 88.0441 40.3887 88.4565 40.3887ZM94.6872 41.0973C94.1998 41.0973 93.7386 41.0298 93.3037 40.8948C92.8688 40.7523 92.5277 40.5761 92.2802 40.3662L92.6401 39.7363C92.8801 39.9163 93.1875 40.0737 93.5624 40.2087C93.9374 40.3362 94.331 40.3999 94.7434 40.3999C95.3058 40.3999 95.7107 40.3137 95.9582 40.1412C96.2056 39.9612 96.3293 39.725 96.3293 39.4326C96.3293 39.2152 96.2581 39.0464 96.1156 38.9265C95.9807 38.799 95.8007 38.7053 95.5758 38.6453C95.3508 38.5778 95.0996 38.5215 94.8222 38.4766C94.5447 38.4316 94.2673 38.3791 93.9898 38.3191C93.7199 38.2591 93.4725 38.1729 93.2475 38.0604C93.0225 37.9404 92.8388 37.7792 92.6964 37.5767C92.5614 37.3743 92.4939 37.1043 92.4939 36.7669C92.4939 36.4445 92.5839 36.1558 92.7639 35.9009C92.9438 35.6459 93.2063 35.4472 93.5512 35.3047C93.9036 35.1548 94.331 35.0798 94.8334 35.0798C95.2158 35.0798 95.5983 35.1323 95.9807 35.2372C96.3631 35.3347 96.678 35.4659 96.9255 35.6309L96.5768 36.272C96.3144 36.0921 96.0332 35.9646 95.7332 35.8896C95.4333 35.8071 95.1334 35.7659 94.8334 35.7659C94.301 35.7659 93.9074 35.8596 93.6524 36.0471C93.405 36.227 93.2812 36.4595 93.2812 36.7444C93.2812 36.9694 93.3487 37.1456 93.4837 37.2731C93.6262 37.4005 93.8099 37.5018 94.0348 37.5767C94.2673 37.6442 94.5185 37.7005 94.7884 37.7455C95.0659 37.7905 95.3396 37.8467 95.6095 37.9142C95.8869 37.9742 96.1381 38.0604 96.3631 38.1729C96.5955 38.2778 96.7793 38.4316 96.9142 38.634C97.0567 38.829 97.1279 39.0877 97.1279 39.4101C97.1279 39.755 97.0304 40.055 96.8355 40.3099C96.648 40.5574 96.3706 40.7523 96.0032 40.8948C95.6432 41.0298 95.2046 41.0973 94.6872 41.0973ZM97.1986 42.1658L100.91 31.5705H101.641L97.9297 42.1658H97.1986ZM104.044 41.0973C103.459 41.0973 102.934 40.9698 102.469 40.7148C102.012 40.4524 101.652 40.0962 101.389 39.6463C101.127 39.1889 100.996 38.6678 100.996 38.0829C100.996 37.4905 101.127 36.9694 101.389 36.5195C101.652 36.0696 102.012 35.7171 102.469 35.4622C102.934 35.2072 103.459 35.0798 104.044 35.0798C104.546 35.0798 105 35.1773 105.405 35.3722C105.81 35.5672 106.128 35.8596 106.361 36.2495L105.765 36.6544C105.562 36.3545 105.311 36.1333 105.011 35.9908C104.711 35.8484 104.385 35.7771 104.033 35.7771C103.613 35.7771 103.234 35.8746 102.897 36.0696C102.559 36.257 102.293 36.5232 102.098 36.8681C101.903 37.2131 101.806 37.618 101.806 38.0829C101.806 38.5478 101.903 38.9527 102.098 39.2976C102.293 39.6426 102.559 39.9125 102.897 40.1075C103.234 40.2949 103.613 40.3887 104.033 40.3887C104.385 40.3887 104.711 40.3174 105.011 40.1749C105.311 40.0325 105.562 39.815 105.765 39.5226L106.361 39.9275C106.128 40.3099 105.81 40.6024 105.405 40.8048C105 40.9998 104.546 41.0973 104.044 41.0973ZM109.863 41.0973C109.308 41.0973 108.88 40.9473 108.58 40.6473C108.281 40.3474 108.131 39.9238 108.131 39.3764V33.8313H108.929V39.3314C108.929 39.6763 109.015 39.9425 109.188 40.13C109.368 40.3174 109.623 40.4111 109.953 40.4111C110.305 40.4111 110.598 40.3099 110.83 40.1075L111.111 40.6811C110.954 40.8236 110.763 40.9285 110.538 40.996C110.32 41.0635 110.095 41.0973 109.863 41.0973ZM107.073 35.7996V35.136H110.729V35.7996H107.073ZM115.579 35.0798C116.059 35.0798 116.479 35.1735 116.839 35.361C117.206 35.5409 117.491 35.8184 117.694 36.1933C117.904 36.5682 118.009 37.0406 118.009 37.6105V41.041H117.21V37.6892C117.21 37.0669 117.053 36.5982 116.738 36.2833C116.43 35.9608 115.995 35.7996 115.433 35.7996C115.013 35.7996 114.646 35.8859 114.331 36.0583C114.023 36.2233 113.783 36.467 113.611 36.7894C113.446 37.1043 113.364 37.4868 113.364 37.9367V41.041H112.565V35.136H113.33V36.7557L113.206 36.452C113.394 36.0246 113.693 35.6909 114.106 35.4509C114.518 35.2035 115.009 35.0798 115.579 35.0798Z" fill="black"/>
<defs>
<filter id="filter0_d_2040_1097" x="0.000195503" y="0.000195503" width="48.6441" height="48.7096" filterUnits="userSpaceOnUse" color-interpolation-filters="sRGB">
<feFlood flood-opacity="0" result="BackgroundImageFix"/>
<feColorMatrix in="SourceAlpha" type="matrix" values="0 0 0 0 0 0 0 0 0 0 0 0 0 0 0 0 0 0 127 0" result="hardAlpha"/>
<feOffset dy="-3"/>
<feGaussianBlur stdDeviation="2.1"/>
<feComposite in2="hardAlpha" operator="out"/>
<feColorMatrix type="matrix" values="0 0 0 0 0 0 0 0 0 0 0 0 0 0 0 0 0 0 0.25 0"/>
<feBlend mode="normal" in2="BackgroundImageFix" result="effect1_dropShadow_2040_1097"/>
<feBlend mode="normal" in="SourceGraphic" in2="effect1_dropShadow_2040_1097" result="shape"/>
</filter>
</defs>
</svg>
