<svg width="326" height="76" viewBox="0 0 326 76" fill="none" xmlns="http://www.w3.org/2000/svg">
<path d="M3.05048 46.5863L3.00899 21.501L13.8674 21.4813C16.1131 21.4772 18.0489 21.844 19.6747 22.5817C21.3004 23.2954 22.5564 24.3324 23.4426 25.6926C24.3288 27.0528 24.7735 28.6765 24.7766 30.5639C24.7797 32.4274 24.3404 34.0408 23.4587 35.4042C22.5769 36.7437 21.3244 37.7733 19.701 38.493C18.0776 39.2126 16.143 39.5745 13.8973 39.5786L6.26418 39.5924L8.84018 37.0434L8.85594 46.5758L3.05048 46.5863ZM18.9976 46.5574L12.7112 37.4664L18.9109 37.4551L25.2689 46.546L18.9976 46.5574ZM8.84125 37.6884L6.25653 34.9695L13.5671 34.9563C15.3589 34.953 16.6962 34.5684 17.5789 33.8022C18.4615 33.0122 18.9017 31.9364 18.8995 30.5746C18.8972 29.1889 18.4534 28.1146 17.5682 27.3517C16.683 26.5888 15.3445 26.209 13.5527 26.2122L6.24207 26.2255L8.81772 23.4614L8.84125 37.6884ZM33.1297 46.5318L33.0917 23.5966L35.6044 26.1006L28.0788 26.1142L28.0711 21.4555L38.8936 21.4359L38.9351 46.5212L33.1297 46.5318ZM55.4779 46.9212C53.4233 46.925 51.5828 46.4266 49.9566 45.4261C48.3303 44.4018 47.0497 42.9229 46.1148 40.9894C45.1798 39.0559 44.7101 36.7155 44.7056 33.968C44.701 31.2206 45.163 28.8785 46.0916 26.9416C47.0201 25.0048 48.2958 23.5332 49.9187 22.5268C51.5416 21.4965 53.3804 20.9796 55.435 20.9758C57.5135 20.9721 59.3539 21.4824 60.9563 22.5068C62.5825 23.5072 63.8631 24.9742 64.7981 26.9077C65.733 28.8411 66.2027 31.1816 66.2073 33.929C66.2118 36.6765 65.7498 39.0186 64.8213 40.9555C63.8927 42.8923 62.617 44.3759 60.9942 45.4061C59.3951 46.4124 57.5564 46.9175 55.4779 46.9212ZM55.4698 42.0117C56.4493 42.0099 57.2969 41.7336 58.0128 41.1828C58.7525 40.632 59.3244 39.7589 59.7286 38.5637C60.1566 37.3683 60.3691 35.827 60.366 33.9396C60.3629 32.0523 60.1453 30.5117 59.7133 29.3179C59.3052 28.1241 58.7303 27.2531 57.9888 26.705C57.2712 26.1568 56.4226 25.8836 55.4431 25.8854C54.4875 25.8871 53.6398 26.1634 52.9001 26.7142C52.1843 27.265 51.6123 28.1381 51.1843 29.3334C50.7801 30.5287 50.5796 32.07 50.5827 33.9574C50.5858 35.8448 50.7914 37.3853 51.1996 38.5791C51.6316 39.7729 52.2064 40.6439 52.924 41.1921C53.6655 41.7402 54.5141 42.0134 55.4698 42.0117ZM81.2337 46.8745C79.1791 46.8782 77.3387 46.3799 75.7125 45.3794C74.0862 44.355 72.8056 42.8761 71.8707 40.9427C70.9357 39.0092 70.466 36.6688 70.4614 33.9213C70.4569 31.1739 70.9189 28.8317 71.8474 26.8949C72.776 24.958 74.0517 23.4864 75.6746 22.4801C77.2975 21.4498 79.1362 20.9328 81.1908 20.9291C83.2693 20.9253 85.1098 21.4356 86.7122 22.46C88.3384 23.4605 89.619 24.9275 90.5539 26.8609C91.4889 28.7944 91.9586 31.1349 91.9631 33.8823C91.9677 36.6297 91.5057 38.9719 90.5772 40.9087C89.6486 42.8456 88.3729 44.3291 86.75 45.3594C85.151 46.3657 83.3122 46.8707 81.2337 46.8745ZM81.2256 41.9649C82.2051 41.9632 83.0528 41.6869 83.7686 41.1361C84.5083 40.5853 85.0803 39.7122 85.4844 38.5169C85.9125 37.3216 86.125 35.7803 86.1218 33.8929C86.1187 32.0055 85.9012 30.465 85.4692 29.2712C85.061 28.0774 84.4862 27.2064 83.7447 26.6583C83.0271 26.1101 82.1785 25.8369 81.199 25.8387C80.2433 25.8404 79.3957 26.1167 78.6559 26.6675C77.9401 27.2183 77.3682 28.0913 76.9401 29.2867C76.536 30.4819 76.3354 32.0233 76.3386 33.9106C76.3417 35.798 76.5473 37.3386 76.9554 38.5324C77.3874 39.7262 77.9623 40.5971 78.6799 41.1453C79.4214 41.6935 80.27 41.9667 81.2256 41.9649ZM106.99 46.8278C104.935 46.8315 103.095 46.3331 101.468 45.3327C99.8421 44.3083 98.5615 42.8294 97.6265 40.8959C96.6916 38.9625 96.2218 36.622 96.2173 33.8746C96.2128 31.1271 96.6748 28.785 97.6033 26.8481C98.5318 24.9113 99.8076 23.4397 101.43 22.4333C103.053 21.4031 104.892 20.8861 106.947 20.8824C109.025 20.8786 110.866 21.3889 112.468 22.4133C114.094 23.4138 115.375 24.8807 116.31 26.8142C117.245 28.7477 117.714 31.0881 117.719 33.8356C117.724 36.583 117.262 38.9251 116.333 40.862C115.404 42.7988 114.129 44.2824 112.506 45.3126C110.907 46.319 109.068 46.824 106.99 46.8278ZM106.981 41.9182C107.961 41.9164 108.809 41.6402 109.524 41.0894C110.264 40.5385 110.836 39.6655 111.24 38.4702C111.668 37.2749 111.881 35.7335 111.878 33.8462C111.875 31.9588 111.657 30.4182 111.225 29.2245C110.817 28.0307 110.242 27.1597 109.501 26.6115C108.783 26.0633 107.934 25.7901 106.955 25.7919C105.999 25.7937 105.152 26.0699 104.412 26.6208C103.696 27.1716 103.124 28.0446 102.696 29.2399C102.292 30.4352 102.091 31.9765 102.094 33.8639C102.098 35.7513 102.303 37.2919 102.711 38.4857C103.143 39.6794 103.718 40.5504 104.436 41.0986C105.177 41.6467 106.026 41.92 106.981 41.9182ZM128.067 46.3595L128.033 26.0045L120.006 26.0191L119.998 21.2887L141.858 21.249L141.866 25.9794L133.839 25.994L133.872 46.349L128.067 46.3595ZM151.772 31.3369L163.848 31.315L163.856 35.8304L151.779 35.8523L151.772 31.3369ZM152.219 41.657L165.872 41.6322L165.88 46.2909L146.457 46.3261L146.415 21.2408L165.373 21.2064L165.38 25.8651L152.193 25.889L152.219 41.657ZM188.139 46.6805C186.442 46.6836 184.877 46.3759 183.443 45.7573C182.032 45.1148 180.872 44.2091 179.962 43.0401L183.181 39.1639C183.875 40.0705 184.605 40.762 185.37 41.2384C186.136 41.691 186.96 41.9164 187.844 41.9148C190.209 41.9105 191.39 40.5227 191.385 37.7514L191.365 25.8179L182.55 25.8339L182.542 21.1752L197.127 21.1488L197.154 37.4184C197.159 40.5242 196.399 42.843 194.872 44.3748C193.346 45.9066 191.101 46.6752 188.139 46.6805ZM215.482 46.6309C211.923 46.6374 209.138 45.651 207.128 43.6717C205.117 41.6924 204.109 38.8631 204.103 35.1839L204.08 21.1362L209.886 21.1256L209.908 34.9584C209.912 37.3475 210.405 39.0667 211.386 40.1161C212.367 41.1656 213.742 41.6887 215.51 41.6855C217.278 41.6823 218.651 41.1542 219.629 40.1012C220.606 39.0482 221.093 37.3272 221.089 34.9381L221.066 21.1053L226.8 21.0949L226.823 35.1427C226.83 38.8219 225.831 41.6548 223.827 43.6414C221.824 45.6279 219.042 46.6245 215.482 46.6309ZM234.012 46.1673L233.971 21.0819L238.773 21.0732L249.481 38.7569L246.937 38.7615L257.407 21.0394L262.174 21.0307L262.287 46.116L256.84 46.1258L256.776 29.3904L257.78 29.3886L249.417 43.4874L246.801 43.4922L238.213 29.4241L239.431 29.4219L239.459 46.1574L234.012 46.1673ZM269.672 46.1026L269.63 21.0172L281.886 20.995C285.04 20.9893 287.406 21.5822 288.985 22.7739C290.588 23.9655 291.39 25.5409 291.394 27.4999C291.396 28.8139 291.075 29.9613 290.432 30.942C289.788 31.8988 288.906 32.641 287.784 33.1686C286.662 33.6963 285.372 33.9614 283.915 33.964L284.593 32.4935C286.17 32.4907 287.568 32.7509 288.787 33.2743C290.006 33.7738 290.951 34.5247 291.622 35.5269C292.316 36.529 292.665 37.7588 292.667 39.2161C292.671 41.3663 291.826 43.0521 290.131 44.2736C288.437 45.4712 285.941 46.073 282.645 46.079L269.672 46.1026ZM275.434 41.7201L282.207 41.7078C283.712 41.7051 284.847 41.4641 285.611 40.9849C286.398 40.4817 286.791 39.6926 286.789 38.6175C286.787 37.5664 286.392 36.7906 285.603 36.2903C284.837 35.7661 283.702 35.5054 282.197 35.5081L274.994 35.5212L274.987 31.2925L281.187 31.2813C282.596 31.2787 283.671 31.0379 284.411 30.5587C285.174 30.0556 285.555 29.3023 285.554 28.2989C285.552 27.3194 285.169 26.5914 284.403 26.115C283.662 25.6146 282.586 25.3657 281.177 25.3683L275.407 25.3788L275.434 41.7201ZM310.692 46.4582C308.709 46.4618 306.869 46.1426 305.172 45.5006C303.499 44.8586 302.04 43.9534 300.795 42.785C299.575 41.6165 298.617 40.2446 297.922 38.669C297.25 37.0934 296.913 35.3739 296.91 33.5104C296.907 31.6469 297.238 29.9262 297.905 28.3482C298.595 26.7701 299.56 25.3947 300.801 24.2218C302.041 23.0489 303.497 22.1384 305.168 21.4903C306.839 20.8422 308.655 20.5164 310.614 20.5128C312.597 20.5092 314.413 20.8284 316.062 21.4705C317.736 22.1125 319.183 23.0178 320.403 24.1862C321.647 25.3546 322.617 26.7266 323.313 28.3021C324.008 29.8537 324.357 31.5732 324.36 33.4606C324.363 35.3241 324.02 37.0568 323.33 38.6588C322.639 40.2368 321.674 41.6123 320.434 42.7852C319.217 43.9342 317.773 44.8327 316.102 45.4808C314.455 46.1288 312.651 46.4546 310.692 46.4582ZM310.648 41.5128C311.771 41.5108 312.798 41.3178 313.729 40.9339C314.684 40.5499 315.52 39.9989 316.235 39.2808C316.951 38.5628 317.499 37.7137 317.879 36.7335C318.284 35.7532 318.485 34.6658 318.483 33.4713C318.481 32.2767 318.276 31.1901 317.869 30.2113C317.485 29.2325 316.934 28.3853 316.216 27.6699C315.522 26.9544 314.697 26.4065 313.741 26.0259C312.784 25.6454 311.745 25.4562 310.622 25.4582C309.499 25.4603 308.46 25.6533 307.505 26.0372C306.574 26.4212 305.751 26.9722 305.035 27.6902C304.319 28.4082 303.759 29.2574 303.355 30.2376C302.974 31.2178 302.785 32.3052 302.787 33.4998C302.789 34.6704 302.982 35.7571 303.366 36.7598C303.773 37.7386 304.324 38.5857 305.018 39.3012C305.736 40.0166 306.573 40.5646 307.53 40.9451C308.486 41.3256 309.525 41.5149 310.648 41.5128Z" fill="#490606"/>
<path d="M36.0162 68.3254C35.5399 67.6057 35.1703 66.7749 34.9075 65.8331C34.6525 64.8833 34.5241 63.862 34.5223 62.7693C34.5205 61.6765 34.6455 60.6548 34.8973 59.7041C35.1571 58.7455 35.5239 57.9134 35.9978 57.2078L37.7676 57.2046C37.2702 58.1003 36.9075 59.0037 36.6794 59.9147C36.4512 60.8178 36.338 61.7683 36.3396 62.766C36.3413 63.7637 36.4577 64.7177 36.6888 65.6279C36.9199 66.5302 37.2857 67.4283 37.786 68.3222L36.0162 68.3254ZM38.8918 66.0159L38.8781 57.7015L40.8023 57.698L40.816 66.0124L38.8918 66.0159ZM42.7892 66.0088L42.7755 57.6944L44.3671 57.6915L47.9164 63.5527L47.073 63.5542L50.5435 57.6803L52.1233 57.6774L52.1608 65.9918L50.3553 65.9951L50.3343 60.4482L50.6669 60.4476L47.8952 65.1206L47.0281 65.1222L44.1816 60.4594L44.5855 60.4586L44.5946 66.0055L42.7892 66.0088ZM54.1334 65.9882L54.1196 57.6738L56.0438 57.6703L56.055 64.4169L60.2241 64.4093L60.2267 65.9772L54.1334 65.9882ZM64.6656 65.9691L64.6518 57.6547L66.2435 57.6518L69.7927 63.513L68.9494 63.5145L72.4199 57.6406L73.9996 57.6377L74.0371 65.9521L72.2317 65.9554L72.2107 60.4085L72.5432 60.4079L69.7716 65.0809L68.9045 65.0825L66.058 60.4197L66.4618 60.4189L66.471 65.9658L64.6656 65.9691ZM80.0484 66.0837C79.3912 66.0849 78.7813 65.9791 78.2187 65.7663C77.6641 65.5536 77.1806 65.2535 76.7682 64.8663C76.3637 64.479 76.0462 64.0243 75.8157 63.5021C75.5931 62.9798 75.4813 62.4099 75.4803 61.7923C75.4792 61.1746 75.5892 60.6043 75.81 60.0813C76.0388 59.5582 76.3587 59.1023 76.7699 58.7136C77.181 58.3248 77.6635 58.023 78.2174 57.8082C78.7714 57.5934 79.373 57.4854 80.0223 57.4843C80.6796 57.4831 81.2815 57.5889 81.8283 57.8017C82.3829 58.0145 82.8625 58.3145 83.267 58.7018C83.6794 59.0891 84.0008 59.5438 84.2313 60.066C84.4618 60.5803 84.5776 61.1502 84.5786 61.7758C84.5796 62.3934 84.4658 62.9677 84.237 63.4987C84.0082 64.0217 83.6883 64.4776 83.2772 64.8663C82.874 65.2472 82.3954 65.545 81.8414 65.7598C81.2954 65.9746 80.6977 66.0826 80.0484 66.0837ZM80.0338 64.4446C80.406 64.4439 80.7464 64.38 81.055 64.2527C81.3715 64.1255 81.6484 63.9428 81.8856 63.7048C82.1227 63.4669 82.3044 63.1854 82.4305 62.8605C82.5646 62.5356 82.6313 62.1752 82.6307 61.7793C82.63 61.3834 82.5621 61.0232 82.427 60.6988C82.2997 60.3744 82.1171 60.0936 81.8792 59.8565C81.6492 59.6193 81.3757 59.4377 81.0587 59.3116C80.7418 59.1854 80.3972 59.1227 80.025 59.1234C79.6529 59.1241 79.3085 59.188 78.992 59.3153C78.6834 59.4426 78.4105 59.6252 78.1733 59.8632C77.9362 60.1012 77.7506 60.3826 77.6165 60.7075C77.4903 61.0324 77.4276 61.3928 77.4282 61.7887C77.4289 62.1767 77.4928 62.5369 77.62 62.8693C77.7552 63.1937 77.9378 63.4744 78.1678 63.7116C78.4058 63.9487 78.6832 64.1303 79.0002 64.2565C79.3171 64.3826 79.6617 64.4453 80.0338 64.4446ZM90.0584 66.0656C89.4091 66.0667 88.8031 65.9609 88.2406 65.7482C87.6859 65.5354 87.2024 65.2353 86.79 64.8481C86.3855 64.4608 86.068 64.0061 85.8375 63.4839C85.6149 62.9617 85.5031 62.3917 85.5021 61.7741C85.5011 61.1564 85.611 60.5861 85.8319 60.0631C86.0606 59.54 86.3806 59.0841 86.7917 58.6954C87.2028 58.3066 87.6853 58.0049 88.2393 57.7901C88.7932 57.5753 89.3949 57.4673 90.0442 57.4661C90.7014 57.4649 91.3034 57.5707 91.8501 57.7835C92.4048 57.9963 92.8843 58.2963 93.2888 58.6836C93.7012 59.0629 94.0227 59.5137 94.2532 60.0359C94.4837 60.5581 94.5994 61.132 94.6005 61.7576C94.6015 62.3752 94.4876 62.9495 94.2588 63.4805C94.0301 64.0035 93.7101 64.4594 93.299 64.8482C92.8958 65.229 92.4172 65.5268 91.8633 65.7416C91.3173 65.9564 90.7156 66.0644 90.0584 66.0656ZM92.7813 67.8304C92.4567 67.831 92.1478 67.7959 91.8547 67.7252C91.5695 67.6544 91.2842 67.5401 90.9989 67.3823C90.7215 67.2244 90.4282 67.0112 90.1189 66.7425C89.8176 66.4738 89.4884 66.1418 89.1314 65.7465L91.1498 65.2321C91.3641 65.5247 91.5624 65.758 91.7448 65.9319C91.9272 66.1057 92.1016 66.2281 92.268 66.2991C92.4424 66.3701 92.6246 66.4054 92.8146 66.405C93.3214 66.4041 93.7724 66.1974 94.1676 65.7849L95.0245 66.8049C94.4634 67.4869 93.7157 67.8287 92.7813 67.8304ZM90.0557 64.4264C90.4279 64.4258 90.7682 64.3618 91.0769 64.2345C91.3934 64.1073 91.6702 63.9246 91.9074 63.6867C92.1446 63.4487 92.3262 63.1672 92.4524 62.8423C92.5864 62.5095 92.6531 62.1491 92.6525 61.7611C92.6519 61.3652 92.5839 61.005 92.4488 60.6806C92.3216 60.3562 92.139 60.0754 91.901 59.8383C91.6631 59.6011 91.3856 59.4195 91.0687 59.2934C90.7597 59.1673 90.4191 59.1045 90.0469 59.1052C89.6747 59.1059 89.3304 59.1699 89.0138 59.2971C88.6973 59.4244 88.4205 59.607 88.1833 59.845C87.9541 60.083 87.7724 60.3644 87.6383 60.6893C87.5122 61.0142 87.4494 61.3746 87.4501 61.7705C87.4507 62.1586 87.5146 62.5187 87.6419 62.8511C87.777 63.1755 87.9596 63.4563 88.1897 63.6934C88.4276 63.9305 88.7051 64.1121 89.022 64.2383C89.339 64.3644 89.6835 64.4271 90.0557 64.4264ZM99.0447 63.3055L99.0423 61.8208L102.404 61.8147L102.406 63.2994L99.0447 63.3055ZM109.537 66.0302C108.959 66.0313 108.384 65.9571 107.814 65.8077C107.244 65.6503 106.76 65.4295 106.364 65.1451L107.11 63.671C107.427 63.9 107.795 64.0815 108.215 64.2153C108.635 64.3492 109.059 64.4157 109.486 64.4149C109.97 64.4141 110.349 64.3184 110.626 64.1278C110.903 63.9373 111.041 63.6757 111.041 63.3431C111.04 63.0264 110.917 62.7772 110.671 62.5955C110.425 62.4138 110.029 62.3235 109.483 62.3245L108.604 62.3261L108.602 61.0551L110.914 58.426L111.129 59.1145L106.77 59.1224L106.767 57.5783L112.587 57.5677L112.589 58.8149L110.289 61.444L109.314 60.8876L109.873 60.8865C110.894 60.8847 111.667 61.1129 112.19 61.5712C112.713 62.0296 112.976 62.619 112.977 63.3396C112.978 63.8068 112.856 64.2465 112.611 64.6587C112.366 65.063 111.99 65.3923 111.484 65.6466C110.978 65.9009 110.329 66.0288 109.537 66.0302ZM117.433 66.0159C116.752 66.0171 116.142 65.852 115.603 65.5204C115.064 65.1808 114.639 64.6907 114.33 64.0498C114.02 63.409 113.864 62.6332 113.863 61.7226C113.861 60.812 114.014 60.0357 114.322 59.3937C114.63 58.7518 115.053 58.264 115.59 57.9305C116.128 57.589 116.738 57.4177 117.419 57.4164C118.108 57.4152 118.718 57.5843 119.249 57.9238C119.788 58.2554 120.212 58.7417 120.522 59.3825C120.832 60.0233 120.988 60.7991 120.989 61.7097C120.991 62.6203 120.838 63.3966 120.53 64.0386C120.222 64.6805 119.799 65.1722 119.261 65.5137C118.731 65.8473 118.122 66.0146 117.433 66.0159ZM117.43 64.3886C117.755 64.3881 118.036 64.2965 118.273 64.1139C118.518 63.9314 118.708 63.642 118.842 63.2458C118.984 62.8496 119.054 62.3388 119.053 61.7132C119.052 61.0876 118.98 60.577 118.837 60.1814C118.701 59.7857 118.511 59.497 118.265 59.3153C118.027 59.1336 117.746 59.0431 117.421 59.0437C117.105 59.0442 116.824 59.1358 116.579 59.3184C116.341 59.5009 116.152 59.7903 116.01 60.1865C115.876 60.5827 115.809 61.0935 115.81 61.7191C115.812 62.3446 115.88 62.8553 116.015 63.2509C116.158 63.6466 116.349 63.9353 116.586 64.117C116.832 64.2987 117.114 64.3892 117.43 64.3886ZM125.495 66.0013C124.814 66.0025 124.204 65.8373 123.665 65.5057C123.125 65.1662 122.701 64.676 122.391 64.0352C122.081 63.3944 121.926 62.6186 121.924 61.708C121.923 60.7974 122.076 60.0211 122.383 59.3791C122.691 58.7372 123.114 58.2494 123.652 57.9158C124.19 57.5744 124.799 57.403 125.48 57.4018C126.169 57.4005 126.779 57.5697 127.31 57.9092C127.849 58.2408 128.274 58.727 128.584 59.3679C128.894 60.0087 129.049 60.7844 129.051 61.6951C129.052 62.6057 128.899 63.382 128.591 64.0239C128.284 64.6659 127.861 65.1576 127.323 65.4991C126.793 65.8326 126.183 66 125.495 66.0013ZM125.492 64.374C125.816 64.3734 126.097 64.2819 126.335 64.0993C126.58 63.9167 126.769 63.6274 126.903 63.2312C127.045 62.835 127.116 62.3241 127.115 61.6986C127.114 61.073 127.041 60.5624 126.898 60.1667C126.763 59.7711 126.573 59.4824 126.327 59.3007C126.089 59.119 125.808 59.0284 125.483 59.029C125.166 59.0296 124.885 59.1212 124.64 59.3038C124.403 59.4863 124.213 59.7757 124.071 60.1719C123.937 60.568 123.871 61.0789 123.872 61.7045C123.873 62.33 123.941 62.8406 124.076 63.2363C124.22 63.632 124.41 63.9207 124.648 64.1024C124.894 64.284 125.175 64.3746 125.492 64.374ZM133.556 65.9866C132.875 65.9879 132.265 65.8227 131.726 65.4911C131.187 65.1516 130.763 64.6614 130.453 64.0206C130.143 63.3797 129.987 62.604 129.986 61.6934C129.984 60.7827 130.137 60.0064 130.445 59.3645C130.753 58.7225 131.176 58.2348 131.714 57.9012C132.251 57.5597 132.861 57.3884 133.542 57.3872C134.231 57.3859 134.841 57.5551 135.372 57.8946C135.911 58.2262 136.335 58.7124 136.645 59.3532C136.955 59.9941 137.111 60.7698 137.112 61.6804C137.114 62.5911 136.961 63.3674 136.653 64.0093C136.345 64.6513 135.922 65.143 135.384 65.4845C134.854 65.818 134.245 65.9854 133.556 65.9866ZM133.553 64.3594C133.878 64.3588 134.159 64.2672 134.396 64.0847C134.641 63.9021 134.831 63.6127 134.965 63.2166C135.107 62.8204 135.177 62.3095 135.176 61.6839C135.175 61.0584 135.103 60.5478 134.96 60.1521C134.825 59.7564 134.634 59.4677 134.388 59.2861C134.15 59.1044 133.869 59.0138 133.545 59.0144C133.228 59.015 132.947 59.1066 132.702 59.2891C132.464 59.4717 132.275 59.7611 132.133 60.1572C131.999 60.5534 131.933 61.0643 131.934 61.6898C131.935 62.3154 132.003 62.826 132.138 63.2217C132.281 63.6174 132.472 63.906 132.71 64.0877C132.955 64.2694 133.237 64.36 133.553 64.3594ZM141.94 65.8289L141.927 57.5145L145.526 57.5079C146.27 57.5066 146.912 57.6282 147.45 57.8727C147.989 58.1092 148.406 58.4529 148.699 58.9038C148.993 59.3546 149.14 59.8928 149.141 60.5183C149.143 61.136 148.997 61.6707 148.705 62.1226C148.412 62.5745 147.997 62.9237 147.459 63.1701C146.921 63.4087 146.28 63.5286 145.536 63.53L143.006 63.5346L143.859 62.6659L143.865 65.8254L141.94 65.8289ZM143.86 62.8797L143.003 61.9667L145.426 61.9623C146.02 61.9612 146.463 61.8337 146.756 61.5798C147.048 61.3259 147.194 60.9732 147.194 60.5219C147.193 60.0626 147.046 59.7065 146.752 59.4537C146.459 59.2008 146.015 59.0749 145.421 59.076L142.998 59.0804L143.852 58.1643L143.86 62.8797ZM153.47 65.903C152.781 65.9042 152.167 65.7668 151.628 65.4906C151.089 65.2065 150.665 64.8153 150.356 64.317C150.054 63.8187 149.902 63.2528 149.901 62.6193C149.9 61.9779 150.05 61.4115 150.35 60.92C150.658 60.4206 151.081 60.0318 151.619 59.7537C152.157 59.4676 152.77 59.324 153.459 59.3227C154.132 59.3215 154.719 59.463 155.218 59.7471C155.717 60.0234 156.086 60.4226 156.324 60.9448L154.889 61.7194C154.722 61.4188 154.512 61.1975 154.258 61.0554C154.012 60.9133 153.743 60.8426 153.45 60.8431C153.133 60.8437 152.848 60.9155 152.595 61.0585C152.342 61.2014 152.14 61.4037 151.99 61.6653C151.848 61.9269 151.777 62.2438 151.778 62.6159C151.779 62.9881 151.85 63.3047 151.993 63.5658C152.144 63.8268 152.347 64.0283 152.6 64.1704C152.854 64.3125 153.139 64.3832 153.456 64.3827C153.749 64.3821 154.018 64.3143 154.263 64.1793C154.516 64.0363 154.726 63.8102 154.891 63.5011L156.33 64.2824C156.093 64.7976 155.726 65.1981 155.227 65.4841C154.729 65.7621 154.143 65.9018 153.47 65.903ZM159.549 65.892C159.003 65.893 158.476 65.8306 157.969 65.7048C157.47 65.5711 157.074 65.4055 156.781 65.2081L157.396 63.8767C157.689 64.0582 158.034 64.2081 158.43 64.3261C158.834 64.4363 159.23 64.491 159.618 64.4903C160.046 64.4895 160.347 64.4375 160.521 64.3342C160.703 64.2309 160.794 64.0882 160.793 63.9061C160.793 63.7557 160.722 63.6449 160.579 63.5739C160.444 63.495 160.262 63.4359 160.032 63.3968C159.803 63.3576 159.549 63.3185 159.272 63.2794C159.003 63.2403 158.729 63.1893 158.452 63.1264C158.175 63.0557 157.921 62.9532 157.691 62.819C157.462 62.6848 157.275 62.503 157.132 62.2736C156.997 62.0442 156.929 61.7474 156.929 61.3832C156.928 60.9793 157.042 60.6228 157.271 60.3135C157.509 60.0043 157.849 59.7622 158.292 59.5872C158.735 59.4042 159.265 59.3122 159.883 59.3111C160.318 59.3103 160.762 59.357 161.213 59.4512C161.665 59.5454 162.041 59.6833 162.343 59.8649L161.727 61.1844C161.418 61.0029 161.105 60.8807 160.788 60.8179C160.479 60.7472 160.178 60.7121 159.885 60.7126C159.474 60.7134 159.173 60.7694 158.983 60.8806C158.793 60.9918 158.698 61.1345 158.698 61.3087C158.699 61.4671 158.766 61.5857 158.901 61.6647C159.044 61.7436 159.23 61.8066 159.46 61.8537C159.689 61.9008 159.939 61.9439 160.208 61.983C160.485 62.0142 160.762 62.0651 161.04 62.1359C161.317 62.2067 161.567 62.3091 161.789 62.4434C162.018 62.5696 162.205 62.7475 162.348 62.9768C162.491 63.1983 162.562 63.4911 162.563 63.8554C162.564 64.2513 162.445 64.6039 162.208 64.9132C161.971 65.2145 161.627 65.4527 161.176 65.6277C160.733 65.8027 160.191 65.8908 159.549 65.892ZM162.977 68.095C163.49 67.1993 163.857 66.2999 164.077 65.3968C164.305 64.4857 164.418 63.5313 164.417 62.5336C164.415 61.5359 164.299 60.5859 164.068 59.6836C163.844 58.7733 163.475 57.8713 162.958 56.9775L164.728 56.9742C165.22 57.6781 165.594 58.5089 165.849 59.4665C166.104 60.4163 166.232 61.4376 166.234 62.5303C166.236 63.6231 166.111 64.6448 165.859 65.5955C165.607 66.5382 165.236 67.3703 164.747 68.0918L162.977 68.095Z" fill="black"/>
<path d="M171.002 61.3262H199.46" stroke="url(#paint0_linear_2671_20)" stroke-width="0.863039"/>
<path d="M28.457 62.4004H-0.000732541" stroke="url(#paint1_linear_2671_20)" stroke-width="0.863039"/>
<defs>
<linearGradient id="paint0_linear_2671_20" x1="195.191" y1="61.8261" x2="171.476" y2="61.8261" gradientUnits="userSpaceOnUse">
<stop stop-color="#666666" stop-opacity="0"/>
<stop offset="1"/>
</linearGradient>
<linearGradient id="paint1_linear_2671_20" x1="4.26793" y1="62.9004" x2="27.9827" y2="62.9004" gradientUnits="userSpaceOnUse">
<stop stop-color="#666666" stop-opacity="0"/>
<stop offset="1"/>
</linearGradient>
</defs>
</svg>
