<svg width="326" height="76" viewBox="0 0 326 76" fill="none" xmlns="http://www.w3.org/2000/svg">
<path d="M3.05146 46.5854L3.00997 21.5L13.8683 21.4803C16.1141 21.4762 18.0498 21.843 19.6756 22.5807C21.3014 23.2945 22.5574 24.3314 23.4436 25.6916C24.3298 27.0518 24.7745 28.6756 24.7776 30.5629C24.7807 32.4264 24.3414 34.0399 23.4597 35.4032C22.5779 36.7427 21.3253 37.7723 19.702 38.492C18.0786 39.2116 16.144 39.5735 13.8983 39.5776L6.26516 39.5914L8.84116 37.0424L8.85692 46.5748L3.05146 46.5854ZM18.9986 46.5564L12.7122 37.4654L18.9118 37.4542L25.2699 46.545L18.9986 46.5564ZM8.84222 37.6874L6.25751 34.9686L13.5681 34.9553C15.3599 34.9521 16.6972 34.5674 17.5799 33.8013C18.4625 33.0113 18.9027 31.9354 18.9005 30.5736C18.8982 29.1879 18.4544 28.1137 17.5692 27.3507C16.684 26.5878 15.3454 26.208 13.5536 26.2113L6.24305 26.2245L8.81869 23.4605L8.84222 37.6874ZM33.1306 46.5308L33.0927 23.5956L35.6054 26.0996L28.0798 26.1132L28.0721 21.4545L38.8946 21.4349L38.9361 46.5202L33.1306 46.5308ZM55.4789 46.9203C53.4242 46.924 51.5838 46.4256 49.9576 45.4252C48.3313 44.4008 47.0507 42.9219 46.1158 40.9884C45.1808 39.055 44.7111 36.7145 44.7065 33.9671C44.702 31.2196 45.164 28.8775 46.0925 26.9406C47.0211 25.0038 48.2968 23.5322 49.9197 22.5258C51.5426 21.4956 53.3813 20.9786 55.4359 20.9748C57.5144 20.9711 59.3549 21.4814 60.9573 22.5058C62.5835 23.5063 63.8641 24.9732 64.799 26.9067C65.734 28.8402 66.2037 31.1806 66.2083 33.9281C66.2128 36.6755 65.7508 39.0176 64.8223 40.9545C63.8937 42.8913 62.618 44.3749 60.9951 45.4051C59.3961 46.4115 57.5574 46.9165 55.4789 46.9203ZM55.4707 42.0107C56.4503 42.0089 57.2979 41.7326 58.0137 41.1819C58.7534 40.631 59.3254 39.758 59.7296 38.5627C60.1576 37.3674 60.3701 35.826 60.367 33.9386C60.3638 32.0513 60.1463 30.5107 59.7143 29.3169C59.3061 28.1231 58.7313 27.2522 57.9898 26.704C57.2722 26.1558 56.4236 25.8826 55.4441 25.8844C54.4884 25.8861 53.6408 26.1624 52.9011 26.7133C52.1852 27.264 51.6133 28.1371 51.1852 29.3324C50.7811 30.5277 50.5806 32.069 50.5837 33.9564C50.5868 35.8438 50.7924 37.3844 51.2005 38.5782C51.6325 39.7719 52.2074 40.6429 52.925 41.1911C53.6665 41.7392 54.5151 42.0124 55.4707 42.0107ZM81.2347 46.8735C79.1801 46.8773 77.3397 46.3789 75.7135 45.3784C74.0872 44.3541 72.8066 42.8752 71.8716 40.9417C70.9367 39.0082 70.4669 36.6678 70.4624 33.9203C70.4579 31.1729 70.9199 28.8307 71.8484 26.8939C72.7769 24.9571 74.0527 23.4854 75.6756 22.4791C77.2985 21.4488 79.1372 20.9318 81.1918 20.9281C83.2703 20.9243 85.1108 21.4347 86.7131 22.4591C88.3394 23.4595 89.62 24.9265 90.5549 26.86C91.4898 28.7934 91.9596 31.1339 91.9641 33.8813C91.9687 36.6288 91.5067 38.9709 90.5781 40.9078C89.6496 42.8446 88.3739 44.3281 86.751 45.3584C85.152 46.3647 83.3132 46.8698 81.2347 46.8735ZM81.2266 41.964C82.2061 41.9622 83.0538 41.6859 83.7696 41.1351C84.5093 40.5843 85.0812 39.7112 85.4854 38.516C85.9135 37.3206 86.1259 35.7793 86.1228 33.8919C86.1197 32.0045 85.9021 30.464 85.4701 29.2702C85.062 28.0764 84.4872 27.2054 83.7457 26.6573C83.028 26.1091 82.1795 25.8359 81.1999 25.8377C80.2443 25.8394 79.3966 26.1157 78.6569 26.6665C77.9411 27.2173 77.3692 28.0904 76.9411 29.2857C76.5369 30.481 76.3364 32.0223 76.3395 33.9097C76.3427 35.797 76.5483 37.3376 76.9564 38.5314C77.3884 39.7252 77.9632 40.5962 78.6809 41.1444C79.4224 41.6925 80.271 41.9657 81.2266 41.964ZM106.991 46.8268C104.936 46.8305 103.096 46.3322 101.469 45.3317C99.843 44.3073 98.5624 42.8284 97.6275 40.895C96.6926 38.9615 96.2228 36.621 96.2183 33.8736C96.2137 31.1262 96.6757 28.784 97.6043 26.8472C98.5328 24.9103 99.8085 23.4387 101.431 22.4324C103.054 21.4021 104.893 20.8851 106.948 20.8814C109.026 20.8776 110.867 21.3879 112.469 22.4123C114.095 23.4128 115.376 24.8798 116.311 26.8132C117.246 28.7467 117.715 31.0871 117.72 33.8346C117.725 36.582 117.263 38.9242 116.334 40.861C115.405 42.7979 114.13 44.2814 112.507 45.3117C110.908 46.318 109.069 46.823 106.991 46.8268ZM106.982 41.9172C107.962 41.9155 108.81 41.6392 109.525 41.0884C110.265 40.5376 110.837 39.6645 111.241 38.4692C111.669 37.2739 111.882 35.7326 111.879 33.8452C111.876 31.9578 111.658 30.4172 111.226 29.2235C110.818 28.0297 110.243 27.1587 109.502 26.6106C108.784 26.0624 107.935 25.7892 106.956 25.7909C106 25.7927 105.152 26.069 104.413 26.6198C103.697 27.1706 103.125 28.0436 102.697 29.239C102.293 30.4342 102.092 31.9756 102.095 33.8629C102.099 35.7503 102.304 37.2909 102.712 38.4847C103.144 39.6785 103.719 40.5494 104.437 41.0976C105.178 41.6458 106.027 41.919 106.982 41.9172ZM128.068 46.3585L128.034 26.0036L120.007 26.0181L119.999 21.2877L141.859 21.2481L141.867 25.9785L133.84 25.993L133.873 46.348L128.068 46.3585ZM151.773 31.3359L163.849 31.314L163.857 35.8294L151.78 35.8513L151.773 31.3359ZM152.22 41.656L165.873 41.6312L165.881 46.2899L146.458 46.3252L146.416 21.2398L165.374 21.2054L165.381 25.8641L152.194 25.888L152.22 41.656ZM188.14 46.6796C186.443 46.6826 184.878 46.3749 183.444 45.7563C182.033 45.1138 180.873 44.2081 179.963 43.0391L183.182 39.1629C183.876 40.0695 184.606 40.761 185.371 41.2375C186.137 41.69 186.961 41.9155 187.845 41.9139C190.21 41.9096 191.391 40.5218 191.386 37.7504L191.366 25.817L182.551 25.833L182.543 21.1743L197.128 21.1478L197.155 37.4174C197.16 40.5232 196.4 42.842 194.873 44.3738C193.347 45.9056 191.102 46.6742 188.14 46.6796ZM215.483 46.6299C211.924 46.6364 209.139 45.65 207.129 43.6707C205.118 41.6914 204.11 38.8622 204.104 35.183L204.081 21.1352L209.886 21.1246L209.909 34.9574C209.913 37.3465 210.406 39.0657 211.387 40.1152C212.368 41.1646 213.743 41.6877 215.511 41.6845C217.279 41.6813 218.652 41.1532 219.63 40.1002C220.607 39.0472 221.094 37.3262 221.09 34.9371L221.067 21.1044L226.801 21.094L226.824 35.1417C226.83 38.8209 225.832 41.6538 223.828 43.6404C221.825 45.627 219.043 46.6235 215.483 46.6299ZM234.013 46.1663L233.971 21.0809L238.774 21.0722L249.482 38.7559L246.938 38.7606L257.408 21.0384L262.175 21.0298L262.288 46.115L256.841 46.1249L256.777 29.3894L257.781 29.3876L249.418 43.4864L246.802 43.4912L238.214 29.4231L239.432 29.4209L239.46 46.1564L234.013 46.1663ZM269.673 46.1016L269.631 21.0162L281.887 20.994C285.041 20.9883 287.407 21.5813 288.986 22.7729C290.588 23.9646 291.391 25.5399 291.395 27.499C291.397 28.813 291.076 29.9603 290.433 30.941C289.789 31.8978 288.907 32.64 287.785 33.1676C286.663 33.6953 285.373 33.9604 283.916 33.9631L284.594 32.4925C286.171 32.4897 287.569 32.7499 288.788 33.2733C290.007 33.7728 290.952 34.5237 291.623 35.5259C292.317 36.528 292.666 37.7578 292.668 39.2151C292.672 41.3653 291.827 43.0511 290.132 44.2726C288.438 45.4703 285.942 46.0721 282.646 46.078L269.673 46.1016ZM275.435 41.7191L282.208 41.7068C283.713 41.7041 284.848 41.4631 285.611 40.9839C286.399 40.4808 286.792 39.6917 286.79 38.6166C286.788 37.5654 286.393 36.7896 285.604 36.2894C284.838 35.7652 283.703 35.5044 282.198 35.5071L274.995 35.5202L274.988 31.2915L281.188 31.2803C282.597 31.2777 283.672 31.0369 284.412 30.5577C285.175 30.0546 285.556 29.3014 285.555 28.298C285.553 27.3184 285.17 26.5905 284.404 26.114C283.663 25.6137 282.587 25.3648 281.178 25.3673L275.408 25.3778L275.435 41.7191ZM310.693 46.4572C308.71 46.4608 306.87 46.1416 305.173 45.4996C303.5 44.8576 302.041 43.9524 300.796 42.784C299.576 41.6156 298.618 40.2436 297.923 38.668C297.251 37.0925 296.914 35.3729 296.911 33.5095C296.908 31.646 297.239 29.9252 297.906 28.3472C298.596 26.7692 299.561 25.3937 300.802 24.2208C302.042 23.0479 303.498 22.1374 305.169 21.4893C306.84 20.8412 308.656 20.5154 310.615 20.5118C312.598 20.5082 314.414 20.8275 316.063 21.4695C317.737 22.1116 319.184 23.0168 320.404 24.1852C321.648 25.3536 322.618 26.7256 323.314 28.3011C324.009 29.8528 324.358 31.5723 324.361 33.4596C324.364 35.3231 324.021 37.0558 323.331 38.6578C322.64 40.2358 321.675 41.6113 320.435 42.7842C319.218 43.9332 317.774 44.8317 316.103 45.4798C314.456 46.1278 312.652 46.4536 310.693 46.4572ZM310.649 41.5119C311.772 41.5098 312.799 41.3168 313.73 40.9329C314.685 40.5489 315.521 39.9979 316.236 39.2799C316.952 38.5618 317.5 37.7127 317.88 36.7325C318.285 35.7522 318.486 34.6648 318.484 33.4703C318.482 32.2758 318.277 31.1891 317.87 30.2103C317.486 29.2315 316.935 28.3844 316.217 27.6689C315.523 26.9535 314.698 26.4055 313.741 26.025C312.785 25.6444 311.746 25.4552 310.623 25.4572C309.5 25.4593 308.461 25.6523 307.506 26.0363C306.575 26.4202 305.752 26.9712 305.036 27.6892C304.32 28.4073 303.76 29.2564 303.356 30.2367C302.975 31.2169 302.786 32.3042 302.788 33.4988C302.79 34.6694 302.983 35.7561 303.367 36.7588C303.774 37.7376 304.325 38.5848 305.019 39.3002C305.737 40.0156 306.574 40.5636 307.531 40.9441C308.487 41.3247 309.526 41.5139 310.649 41.5119Z" fill="#490606"/>
<path d="M36.0172 68.3224C35.5409 67.6027 35.1713 66.772 34.9085 65.8301C34.6535 64.8804 34.5251 63.8591 34.5233 62.7664C34.5215 61.6736 34.6465 60.6519 34.8983 59.7012C35.158 58.7426 35.5249 57.9105 35.9988 57.2049L37.7686 57.2017C37.2712 58.0974 36.9085 59.0007 36.6803 59.9118C36.4522 60.8149 36.3389 61.7653 36.3406 62.7631C36.3422 63.7608 36.4586 64.7148 36.6898 65.625C36.9209 66.5273 37.2866 67.4254 37.787 68.3192L36.0172 68.3224ZM38.8928 66.0129L38.8791 57.6985L40.8033 57.695L40.817 66.0095L38.8928 66.0129ZM42.7902 66.0059L42.7764 57.6915L44.3681 57.6886L47.9173 63.5497L47.074 63.5513L50.5445 57.6774L52.1242 57.6745L52.1617 65.9889L50.3563 65.9921L50.3353 60.4453L50.6678 60.4447L47.8962 65.1177L47.0291 65.1192L44.1826 60.4564L44.5864 60.4557L44.5956 66.0026L42.7902 66.0059ZM54.1344 65.9853L54.1206 57.6709L56.0448 57.6674L56.056 64.4139L60.2251 64.4064L60.2276 65.9742L54.1344 65.9853ZM64.6666 65.9662L64.6528 57.6518L66.2444 57.6489L69.7937 63.5101L68.9504 63.5116L72.4209 57.6377L74.0006 57.6348L74.0381 65.9492L72.2327 65.9524L72.2116 60.4056L72.5442 60.405L69.7725 65.078L68.9055 65.0795L66.059 60.4167L66.4628 60.416L66.472 65.9629L64.6666 65.9662ZM80.0494 66.0808C79.3922 66.082 78.7823 65.9762 78.2197 65.7634C77.6651 65.5506 77.1815 65.2506 76.7691 64.8633C76.3646 64.4761 76.0472 64.0213 75.8167 63.4991C75.5941 62.9769 75.4823 62.407 75.4812 61.7893C75.4802 61.1717 75.5901 60.6014 75.811 60.0783C76.0398 59.5553 76.3597 59.0994 76.7708 58.7107C77.182 58.3219 77.6645 58.0201 78.2184 57.8053C78.7724 57.5905 79.374 57.4825 80.0233 57.4813C80.6805 57.4801 81.2825 57.586 81.8293 57.7988C82.3839 58.0116 82.8635 58.3116 83.268 58.6989C83.6804 59.0861 84.0018 59.5409 84.2323 60.0631C84.4628 60.5773 84.5786 61.1473 84.5796 61.7728C84.5806 62.3905 84.4667 62.9648 84.238 63.4957C84.0092 64.0188 83.6893 64.4747 83.2781 64.8634C82.8749 65.2442 82.3964 65.542 81.8424 65.7568C81.2964 65.9716 80.6987 66.0796 80.0494 66.0808ZM80.0348 64.4417C80.407 64.441 80.7474 64.3771 81.056 64.2498C81.3725 64.1225 81.6494 63.9399 81.8865 63.7019C82.1237 63.4639 82.3053 63.1825 82.4315 62.8576C82.5656 62.5327 82.6323 62.1723 82.6316 61.7764C82.631 61.3804 82.5631 61.0203 82.4279 60.6959C82.3007 60.3714 82.1181 60.0906 81.8802 59.8535C81.6501 59.6164 81.3766 59.4348 81.0597 59.3086C80.7427 59.1825 80.3982 59.1198 80.026 59.1205C79.6538 59.1211 79.3095 59.1851 78.993 59.3124C78.6844 59.4396 78.4115 59.6223 78.1743 59.8602C77.9371 60.0982 77.7515 60.3797 77.6175 60.7046C77.4913 61.0295 77.4285 61.3899 77.4292 61.7858C77.4298 62.1738 77.4938 62.534 77.621 62.8663C77.7562 63.1907 77.9388 63.4715 78.1688 63.7087C78.4067 63.9458 78.6842 64.1274 79.0011 64.2535C79.3181 64.3796 79.6626 64.4424 80.0348 64.4417ZM90.0594 66.0626C89.4101 66.0638 88.8041 65.958 88.2415 65.7452C87.6869 65.5324 87.2034 65.2324 86.791 64.8452C86.3865 64.4579 86.069 64.0031 85.8385 63.4809C85.6159 62.9587 85.5041 62.3888 85.5031 61.7712C85.5021 61.1535 85.612 60.5832 85.8328 60.0602C86.0616 59.5371 86.3816 59.0812 86.7927 58.6925C87.2038 58.3037 87.6863 58.0019 88.2403 57.7871C88.7942 57.5723 89.3958 57.4643 90.0451 57.4632C90.7024 57.462 91.3044 57.5678 91.8511 57.7806C92.4057 57.9934 92.8853 58.2934 93.2898 58.6807C93.7022 59.06 94.0236 59.5108 94.2541 60.033C94.4846 60.5552 94.6004 61.1291 94.6014 61.7546C94.6025 62.3723 94.4886 62.9466 94.2598 63.4775C94.0311 64.0006 93.7111 64.4565 93.3 64.8452C92.8968 65.226 92.4182 65.5239 91.8643 65.7387C91.3182 65.9535 90.7166 66.0614 90.0594 66.0626ZM92.7823 67.8275C92.4576 67.8281 92.1488 67.793 91.8557 67.7223C91.5705 67.6515 91.2852 67.5372 90.9999 67.3794C90.7225 67.2215 90.4291 67.0082 90.1199 66.7396C89.8185 66.4709 89.4894 66.1389 89.1324 65.7436L91.1507 65.2292C91.365 65.5218 91.5634 65.755 91.7458 65.9289C91.9282 66.1028 92.1026 66.2252 92.269 66.2962C92.4433 66.3671 92.6255 66.4024 92.8156 66.4021C93.3224 66.4012 93.7734 66.1945 94.1686 65.782L95.0255 66.8019C94.4644 67.4839 93.7167 67.8258 92.7823 67.8275ZM90.0567 64.4235C90.4288 64.4228 90.7692 64.3589 91.0778 64.2316C91.3944 64.1043 91.6712 63.9217 91.9084 63.6837C92.1455 63.4457 92.3272 63.1643 92.4533 62.8394C92.5874 62.5066 92.6541 62.1462 92.6535 61.7582C92.6528 61.3623 92.5849 61.0021 92.4498 60.6777C92.3225 60.3532 92.14 60.0725 91.902 59.8353C91.6641 59.5982 91.3866 59.4166 91.0697 59.2905C90.7606 59.1643 90.42 59.1016 90.0479 59.1023C89.6757 59.103 89.3313 59.1669 89.0148 59.2942C88.6983 59.4215 88.4214 59.6041 88.1843 59.8421C87.955 60.0801 87.7734 60.3615 87.6393 60.6864C87.5131 61.0113 87.4504 61.3717 87.451 61.7676C87.4517 62.1556 87.5156 62.5158 87.6429 62.8481C87.778 63.1726 87.9606 63.4533 88.1906 63.6905C88.4286 63.9276 88.706 64.1092 89.023 64.2353C89.3399 64.3615 89.6845 64.4242 90.0567 64.4235ZM99.0457 63.3026L99.0433 61.8178L102.405 61.8117L102.407 63.2965L99.0457 63.3026ZM108.171 65.8872L111.508 58.3032L112.009 59.1337L107.531 59.1418L108.385 58.2376L108.388 60.4943L106.678 60.4974L106.673 57.5755L113.336 57.5634L113.338 58.8106L110.262 65.8834L108.171 65.8872ZM116.837 66.0141C116.259 66.0151 115.684 65.9409 115.114 65.7915C114.552 65.6341 114.068 65.4133 113.664 65.129L114.422 63.6548C114.739 63.8838 115.103 64.0653 115.515 64.1991C115.935 64.333 116.359 64.3995 116.787 64.3988C117.27 64.3979 117.649 64.3022 117.926 64.1116C118.203 63.9211 118.341 63.6556 118.341 63.3151C118.34 63.1013 118.285 62.9113 118.173 62.7452C118.062 62.5792 117.864 62.4528 117.579 62.3662C117.302 62.2796 116.91 62.2368 116.403 62.2377L114.277 62.2416L114.697 57.561L119.768 57.5518L119.771 59.0959L115.388 59.1038L116.384 58.2231L116.093 61.5612L115.094 60.6841L116.852 60.6809C117.675 60.6794 118.337 60.793 118.836 61.0218C119.343 61.2426 119.712 61.5468 119.942 61.9343C120.172 62.3219 120.288 62.7612 120.289 63.2521C120.289 63.7431 120.167 64.1986 119.923 64.6188C119.678 65.031 119.298 65.3682 118.784 65.6304C118.278 65.8847 117.629 66.0126 116.837 66.0141ZM124.637 65.9999C123.956 66.0011 123.346 65.836 122.807 65.5044C122.268 65.1648 121.844 64.6747 121.534 64.0338C121.224 63.393 121.068 62.6172 121.067 61.7066C121.065 60.796 121.218 60.0197 121.526 59.3777C121.834 58.7358 122.257 58.248 122.795 57.9145C123.332 57.573 123.942 57.4017 124.623 57.4004C125.312 57.3992 125.922 57.5683 126.453 57.9078C126.992 58.2394 127.416 58.7257 127.726 59.3665C128.036 60.0073 128.192 60.7831 128.193 61.6937C128.195 62.6043 128.042 63.3806 127.734 64.0226C127.426 64.6645 127.003 65.1562 126.465 65.4977C125.935 65.8313 125.326 65.9986 124.637 65.9999ZM124.634 64.3726C124.959 64.3721 125.24 64.2805 125.477 64.0979C125.722 63.9154 125.912 63.626 126.046 63.2298C126.188 62.8336 126.258 62.3228 126.257 61.6972C126.256 61.0716 126.184 60.561 126.041 60.1654C125.906 59.7697 125.715 59.481 125.469 59.2993C125.232 59.1176 124.95 59.0271 124.626 59.0277C124.309 59.0282 124.028 59.1198 123.783 59.3024C123.545 59.4849 123.356 59.7743 123.214 60.1705C123.08 60.5667 123.014 61.0775 123.015 61.7031C123.016 62.3286 123.084 62.8393 123.219 63.2349C123.362 63.6306 123.553 63.9193 123.791 64.101C124.036 64.2827 124.318 64.3732 124.634 64.3726ZM132.699 65.9853C132.018 65.9865 131.408 65.8213 130.869 65.4897C130.33 65.1502 129.905 64.66 129.595 64.0192C129.285 63.3784 129.13 62.6026 129.128 61.692C129.127 60.7814 129.28 60.0051 129.588 59.3631C129.895 58.7212 130.318 58.2334 130.856 57.8998C131.394 57.5584 132.003 57.387 132.684 57.3858C133.373 57.3845 133.983 57.5537 134.514 57.8932C135.053 58.2248 135.478 58.711 135.788 59.3519C136.098 59.9927 136.253 60.7684 136.255 61.6791C136.256 62.5897 136.103 63.366 135.796 64.0079C135.488 64.6499 135.065 65.1416 134.527 65.4831C133.997 65.8166 133.388 65.984 132.699 65.9853ZM132.696 64.358C133.021 64.3574 133.302 64.2659 133.539 64.0833C133.784 63.9007 133.974 63.6114 134.108 63.2152C134.249 62.819 134.32 62.3081 134.319 61.6826C134.318 61.057 134.246 60.5464 134.102 60.1507C133.967 59.7551 133.777 59.4664 133.531 59.2847C133.293 59.103 133.012 59.0124 132.687 59.013C132.37 59.0136 132.089 59.1052 131.844 59.2878C131.607 59.4703 131.417 59.7597 131.276 60.1559C131.142 60.552 131.075 61.0629 131.076 61.6885C131.077 62.314 131.145 62.8246 131.281 63.2203C131.424 63.616 131.614 63.9047 131.852 64.0864C132.098 64.268 132.379 64.3586 132.696 64.358ZM141.083 65.8275L141.069 57.5131L144.668 57.5066C145.413 57.5052 146.054 57.6268 146.593 57.8713C147.132 58.1079 147.548 58.4516 147.842 58.9024C148.136 59.3532 148.283 59.8914 148.284 60.517C148.285 61.1346 148.14 61.6694 147.847 62.1213C147.555 62.5731 147.14 62.9223 146.602 63.1688C146.064 63.4073 145.423 63.5272 144.678 63.5286L142.148 63.5332L143.002 62.6646L143.007 65.824L141.083 65.8275ZM143.002 62.8784L142.146 61.9653L144.569 61.9609C145.163 61.9598 145.606 61.8323 145.898 61.5784C146.191 61.3245 146.337 60.9719 146.336 60.5205C146.335 60.0612 146.188 59.7052 145.895 59.4523C145.602 59.1994 145.158 59.0736 144.564 59.0746L142.141 59.079L142.995 58.1629L143.002 62.8784ZM152.613 65.9016C151.924 65.9029 151.31 65.7654 150.771 65.4892C150.232 65.2052 149.808 64.814 149.498 64.3157C149.196 63.8173 149.045 63.2514 149.044 62.618C149.043 61.9766 149.192 61.4101 149.493 60.9186C149.801 60.4192 150.224 60.0304 150.762 59.7523C151.299 59.4663 151.913 59.3226 152.602 59.3214C153.275 59.3201 153.861 59.4616 154.36 59.7458C154.86 60.022 155.229 60.4212 155.467 60.9434L154.031 61.7181C153.864 61.4175 153.654 61.1961 153.401 61.0541C153.155 60.912 152.885 60.8412 152.592 60.8417C152.276 60.8423 151.991 60.9141 151.738 61.0571C151.484 61.2001 151.283 61.4024 151.133 61.6639C150.991 61.9255 150.92 62.2424 150.921 62.6146C150.921 62.9867 150.993 63.3033 151.136 63.5644C151.287 63.8254 151.489 64.027 151.743 64.169C151.996 64.3111 152.282 64.3819 152.598 64.3813C152.891 64.3808 153.16 64.313 153.406 64.1779C153.659 64.0349 153.868 63.8089 154.034 63.4997L155.473 64.2811C155.236 64.7962 154.868 65.1967 154.37 65.4827C153.872 65.7608 153.286 65.9004 152.613 65.9016ZM158.692 65.8906C158.146 65.8916 157.619 65.8292 157.112 65.7034C156.613 65.5697 156.217 65.4041 155.923 65.2067L156.539 63.8753C156.832 64.0569 157.177 64.2067 157.573 64.3248C157.977 64.4349 158.373 64.4896 158.761 64.4889C159.189 64.4881 159.489 64.4361 159.663 64.3328C159.845 64.2296 159.936 64.0869 159.936 63.9048C159.936 63.7543 159.864 63.6436 159.722 63.5726C159.587 63.4936 159.405 63.4346 159.175 63.3954C158.945 63.3562 158.692 63.3171 158.414 63.278C158.145 63.2389 157.872 63.1879 157.595 63.1251C157.317 63.0543 157.064 62.9518 156.834 62.8176C156.604 62.6834 156.418 62.5016 156.275 62.2723C156.14 62.0429 156.072 61.746 156.071 61.3818C156.071 60.978 156.185 60.6214 156.414 60.3122C156.651 60.0029 156.991 59.7608 157.434 59.5858C157.878 59.4028 158.408 59.3108 159.026 59.3097C159.461 59.3089 159.905 59.3556 160.356 59.4498C160.808 59.544 161.184 59.6819 161.485 59.8635L160.87 61.183C160.561 61.0015 160.248 60.8793 159.931 60.8165C159.622 60.7458 159.321 60.7107 159.028 60.7113C158.616 60.712 158.315 60.768 158.125 60.8792C157.936 60.9904 157.841 61.1331 157.841 61.3073C157.841 61.4657 157.909 61.5843 158.044 61.6633C158.186 61.7422 158.372 61.8052 158.602 61.8523C158.832 61.8994 159.081 61.9425 159.351 61.9816C159.628 62.0128 159.905 62.0638 160.182 62.1345C160.46 62.2053 160.709 62.3078 160.931 62.442C161.161 62.5683 161.347 62.7461 161.49 62.9755C161.633 63.1969 161.705 63.4898 161.706 63.854C161.706 64.25 161.588 64.6025 161.351 64.9118C161.114 65.2131 160.77 65.4513 160.319 65.6263C159.876 65.8013 159.333 65.8894 158.692 65.8906ZM163.889 68.0904L162.119 68.0936C162.633 67.1979 162.999 66.2985 163.22 65.3954C163.448 64.4843 163.561 63.53 163.559 62.5322C163.558 61.5345 163.441 60.5845 163.21 59.6822C162.987 58.772 162.617 57.8699 162.101 56.9761L163.871 56.9729C164.363 57.6767 164.736 58.5075 164.991 59.4652C165.246 60.4149 165.375 61.4362 165.377 62.5289C165.378 63.6217 165.253 64.6434 165.002 65.5941C164.75 66.5368 164.379 67.369 163.889 68.0904Z" fill="black"/>
<path d="M171.002 61.3242H199.46" stroke="url(#paint0_linear_2040_1062)" stroke-width="0.863039"/>
<path d="M28.458 62.3975H0.000244021" stroke="url(#paint1_linear_2040_1062)" stroke-width="0.863039"/>
<defs>
<linearGradient id="paint0_linear_2040_1062" x1="195.191" y1="61.8242" x2="171.476" y2="61.8242" gradientUnits="userSpaceOnUse">
<stop stop-color="#666666" stop-opacity="0"/>
<stop offset="1"/>
</linearGradient>
<linearGradient id="paint1_linear_2040_1062" x1="4.26891" y1="62.8974" x2="27.9837" y2="62.8974" gradientUnits="userSpaceOnUse">
<stop stop-color="#666666" stop-opacity="0"/>
<stop offset="1"/>
</linearGradient>
</defs>
</svg>
