<svg width="73" height="11" viewBox="0 0 73 11" fill="none" xmlns="http://www.w3.org/2000/svg">
<path d="M4.20108 10.5562C3.39841 10.5562 2.67974 10.3602 2.04508 9.96818C1.41041 9.56685 0.911078 8.98818 0.547078 8.23218C0.183078 7.47618 0.00107814 6.56152 0.00107814 5.48818C0.00107814 4.41485 0.183078 3.50018 0.547078 2.74418C0.911078 1.98818 1.41041 1.41418 2.04508 1.02218C2.67974 0.62085 3.39841 0.420183 4.20108 0.420183C5.01308 0.420183 5.73175 0.62085 6.35708 1.02218C6.99175 1.41418 7.49108 1.98818 7.85508 2.74418C8.21908 3.50018 8.40108 4.41485 8.40108 5.48818C8.40108 6.56152 8.21908 7.47618 7.85508 8.23218C7.49108 8.98818 6.99175 9.56685 6.35708 9.96818C5.73175 10.3602 5.01308 10.5562 4.20108 10.5562ZM4.20108 8.63818C4.58375 8.63818 4.91508 8.53085 5.19508 8.31618C5.48441 8.10152 5.70841 7.76085 5.86708 7.29418C6.03508 6.82752 6.11908 6.22552 6.11908 5.48818C6.11908 4.75085 6.03508 4.14885 5.86708 3.68218C5.70841 3.21552 5.48441 2.87485 5.19508 2.66018C4.91508 2.44552 4.58375 2.33818 4.20108 2.33818C3.82775 2.33818 3.49641 2.44552 3.20708 2.66018C2.92708 2.87485 2.70308 3.21552 2.53508 3.68218C2.37641 4.14885 2.29708 4.75085 2.29708 5.48818C2.29708 6.22552 2.37641 6.82752 2.53508 7.29418C2.70308 7.76085 2.92708 8.10152 3.20708 8.31618C3.49641 8.53085 3.82775 8.63818 4.20108 8.63818ZM9.39103 8.33018V6.80418L14.011 0.588183H16.391L11.869 6.80418L10.763 6.48218L18.477 6.48218V8.33018L9.39103 8.33018ZM14.669 10.3882V8.33018L14.739 6.48218V4.64818H16.881V10.3882H14.669ZM19.4741 7.32218V5.57218H23.4361V7.32218H19.4741ZM27.597 10.5562C26.9157 10.5562 26.239 10.4675 25.567 10.2902C24.895 10.1035 24.3257 9.84218 23.859 9.50618L24.741 7.77018C25.1144 8.04085 25.5484 8.25552 26.043 8.41418C26.5377 8.57285 27.037 8.65218 27.541 8.65218C28.1104 8.65218 28.5584 8.54018 28.885 8.31618C29.2117 8.09218 29.375 7.78418 29.375 7.39218C29.375 7.01885 29.2304 6.72485 28.941 6.51018C28.6517 6.29552 28.185 6.18818 27.541 6.18818H26.505V4.69018L29.235 1.59618L29.487 2.40818H24.349V0.588183H31.209V2.05818L28.493 5.15218L27.345 4.49418H28.003C29.207 4.49418 30.117 4.76485 30.733 5.30618C31.349 5.84752 31.657 6.54285 31.657 7.39218C31.657 7.94285 31.5124 8.46085 31.223 8.94618C30.9337 9.42218 30.4904 9.80952 29.893 10.1082C29.2957 10.4069 28.5304 10.5562 27.597 10.5562ZM36.9042 10.5562C36.1015 10.5562 35.3829 10.3602 34.7482 9.96818C34.1135 9.56685 33.6142 8.98818 33.2502 8.23218C32.8862 7.47618 32.7042 6.56152 32.7042 5.48818C32.7042 4.41485 32.8862 3.50018 33.2502 2.74418C33.6142 1.98818 34.1135 1.41418 34.7482 1.02218C35.3829 0.62085 36.1015 0.420183 36.9042 0.420183C37.7162 0.420183 38.4349 0.62085 39.0602 1.02218C39.6949 1.41418 40.1942 1.98818 40.5582 2.74418C40.9222 3.50018 41.1042 4.41485 41.1042 5.48818C41.1042 6.56152 40.9222 7.47618 40.5582 8.23218C40.1942 8.98818 39.6949 9.56685 39.0602 9.96818C38.4349 10.3602 37.7162 10.5562 36.9042 10.5562ZM36.9042 8.63818C37.2869 8.63818 37.6182 8.53085 37.8982 8.31618C38.1875 8.10152 38.4115 7.76085 38.5702 7.29418C38.7382 6.82752 38.8222 6.22552 38.8222 5.48818C38.8222 4.75085 38.7382 4.14885 38.5702 3.68218C38.4115 3.21552 38.1875 2.87485 37.8982 2.66018C37.6182 2.44552 37.2869 2.33818 36.9042 2.33818C36.5309 2.33818 36.1995 2.44552 35.9102 2.66018C35.6302 2.87485 35.4062 3.21552 35.2382 3.68218C35.0795 4.14885 35.0002 4.75085 35.0002 5.48818C35.0002 6.22552 35.0795 6.82752 35.2382 7.29418C35.4062 7.76085 35.6302 8.10152 35.9102 8.31618C36.1995 8.53085 36.5309 8.63818 36.9042 8.63818ZM46.4062 10.5562C45.6035 10.5562 44.8848 10.3602 44.2502 9.96818C43.6155 9.56685 43.1162 8.98818 42.7522 8.23218C42.3882 7.47618 42.2062 6.56152 42.2062 5.48818C42.2062 4.41485 42.3882 3.50018 42.7522 2.74418C43.1162 1.98818 43.6155 1.41418 44.2502 1.02218C44.8848 0.62085 45.6035 0.420183 46.4062 0.420183C47.2182 0.420183 47.9368 0.62085 48.5622 1.02218C49.1968 1.41418 49.6962 1.98818 50.0602 2.74418C50.4242 3.50018 50.6062 4.41485 50.6062 5.48818C50.6062 6.56152 50.4242 7.47618 50.0602 8.23218C49.6962 8.98818 49.1968 9.56685 48.5622 9.96818C47.9368 10.3602 47.2182 10.5562 46.4062 10.5562ZM46.4062 8.63818C46.7888 8.63818 47.1202 8.53085 47.4002 8.31618C47.6895 8.10152 47.9135 7.76085 48.0722 7.29418C48.2402 6.82752 48.3242 6.22552 48.3242 5.48818C48.3242 4.75085 48.2402 4.14885 48.0722 3.68218C47.9135 3.21552 47.6895 2.87485 47.4002 2.66018C47.1202 2.44552 46.7888 2.33818 46.4062 2.33818C46.0328 2.33818 45.7015 2.44552 45.4122 2.66018C45.1322 2.87485 44.9082 3.21552 44.7402 3.68218C44.5815 4.14885 44.5022 4.75085 44.5022 5.48818C44.5022 6.22552 44.5815 6.82752 44.7402 7.29418C44.9082 7.76085 45.1322 8.10152 45.4122 8.31618C45.7015 8.53085 46.0328 8.63818 46.4062 8.63818ZM65.781 2.74418C66.3783 2.74418 66.9056 2.86552 67.363 3.10818C67.8296 3.34152 68.1936 3.70552 68.455 4.20018C68.7256 4.68552 68.861 5.31085 68.861 6.07618V10.3882H66.677V6.41218C66.677 5.80552 66.551 5.35752 66.299 5.06818C66.047 4.77885 65.6923 4.63418 65.235 4.63418C64.9176 4.63418 64.633 4.70885 64.381 4.85818C64.129 4.99818 63.933 5.21285 63.793 5.50218C63.653 5.79152 63.583 6.16018 63.583 6.60818V10.3882H61.399V6.41218C61.399 5.80552 61.273 5.35752 61.021 5.06818C60.7783 4.77885 60.4283 4.63418 59.971 4.63418C59.6536 4.63418 59.369 4.70885 59.117 4.85818C58.865 4.99818 58.669 5.21285 58.529 5.50218C58.389 5.79152 58.319 6.16018 58.319 6.60818V10.3882H56.135V2.85618H58.221V4.91418L57.829 4.31218C58.0903 3.79885 58.459 3.41152 58.935 3.15018C59.4203 2.87952 59.971 2.74418 60.587 2.74418C61.2776 2.74418 61.8796 2.92152 62.393 3.27618C62.9156 3.62152 63.261 4.15352 63.429 4.87218L62.659 4.66218C62.911 4.07418 63.3123 3.60752 63.863 3.26218C64.423 2.91685 65.0623 2.74418 65.781 2.74418ZM70.8185 10.3882V0.000182986H73.0025V10.3882H70.8185Z" fill="#F6F4F3"/>
</svg>
