<svg width="216" height="307" viewBox="0 0 216 307" fill="none" xmlns="http://www.w3.org/2000/svg">
<g filter="url(#filter0_d_2198_722)">
<g filter="url(#filter1_f_2198_722)">
<ellipse cx="50.3735" cy="9.27604" rx="50.3735" ry="9.27604" transform="matrix(0.999997 -0.00251184 0.00290701 0.999996 45.0688 110.786)" fill="black" fill-opacity="0.2"/>
</g>
<path d="M4.30566 165.098L210.435 165.098V288.889H4.30566L4.30566 165.098Z" fill="#F6F3F3"/>
<path d="M41.962 197.481L37.9305 188.378H38.9709L42.7423 196.948H42.1701L45.9675 188.378H46.9429L42.9114 197.481H41.962ZM50.4485 197.546C49.7375 197.546 49.1133 197.399 48.5758 197.104C48.0382 196.801 47.6177 196.389 47.3143 195.869C47.0108 195.34 46.8591 194.737 46.8591 194.061C46.8591 193.385 47.0022 192.787 47.2883 192.266C47.583 191.746 47.9819 191.339 48.4847 191.044C48.9962 190.741 49.5685 190.589 50.2014 190.589C50.843 190.589 51.4108 190.736 51.905 191.031C52.4079 191.317 52.8024 191.725 53.0885 192.253C53.3746 192.774 53.5176 193.376 53.5176 194.061C53.5176 194.104 53.5133 194.152 53.5046 194.204C53.5046 194.248 53.5046 194.295 53.5046 194.347H47.5614V193.658H53.0104L52.6463 193.931C52.6463 193.437 52.5379 192.999 52.3212 192.618C52.1131 192.227 51.827 191.924 51.4629 191.707C51.0987 191.49 50.6782 191.382 50.2014 191.382C49.7332 191.382 49.3127 191.49 48.9399 191.707C48.5671 191.924 48.2766 192.227 48.0686 192.618C47.8605 193.008 47.7564 193.454 47.7564 193.957V194.1C47.7564 194.62 47.8692 195.08 48.0946 195.479C48.3287 195.869 48.6495 196.177 49.0569 196.402C49.4731 196.619 49.9456 196.727 50.4745 196.727C50.8906 196.727 51.2765 196.653 51.6319 196.506C51.9961 196.359 52.3082 196.133 52.5683 195.83L53.0885 196.428C52.785 196.792 52.4036 197.07 51.944 197.26C51.4932 197.451 50.9947 197.546 50.4485 197.546ZM55.3971 197.481V190.654H56.2814V192.514L56.1904 192.188C56.3811 191.668 56.7019 191.274 57.1527 191.005C57.6036 190.728 58.1628 190.589 58.8304 190.589V191.486C58.7957 191.486 58.761 191.486 58.7263 191.486C58.6917 191.477 58.657 191.473 58.6223 191.473C57.9027 191.473 57.3391 191.694 56.9316 192.136C56.5242 192.57 56.3204 193.19 56.3204 193.996V197.481H55.3971ZM62.4251 197.546C61.8616 197.546 61.3284 197.468 60.8255 197.312C60.3227 197.148 59.9282 196.944 59.6421 196.701L60.0582 195.973C60.3357 196.181 60.6911 196.363 61.1246 196.519C61.5581 196.666 62.0133 196.74 62.4902 196.74C63.1404 196.74 63.6086 196.64 63.8947 196.441C64.1808 196.233 64.3239 195.96 64.3239 195.622C64.3239 195.37 64.2415 195.175 64.0768 195.037C63.9207 194.889 63.7126 194.781 63.4525 194.711C63.1924 194.633 62.902 194.568 62.5812 194.516C62.2604 194.464 61.9396 194.404 61.6188 194.334C61.3067 194.265 61.0206 194.165 60.7605 194.035C60.5004 193.896 60.288 193.71 60.1232 193.476C59.9672 193.242 59.8892 192.93 59.8892 192.54C59.8892 192.167 59.9932 191.833 60.2013 191.538C60.4094 191.243 60.7128 191.014 61.1116 190.849C61.5191 190.676 62.0133 190.589 62.5942 190.589C63.0364 190.589 63.4785 190.65 63.9207 190.771C64.3629 190.884 64.727 191.035 65.0131 191.226L64.61 191.967C64.3065 191.759 63.9814 191.612 63.6346 191.525C63.2878 191.43 62.941 191.382 62.5942 191.382C61.9786 191.382 61.5235 191.49 61.2287 191.707C60.9426 191.915 60.7995 192.184 60.7995 192.514C60.7995 192.774 60.8775 192.977 61.0336 193.125C61.1983 193.272 61.4107 193.389 61.6708 193.476C61.9396 193.554 62.2301 193.619 62.5422 193.671C62.863 193.723 63.1794 193.788 63.4915 193.866C63.8123 193.935 64.1028 194.035 64.3629 194.165C64.6316 194.287 64.8441 194.464 65.0001 194.698C65.1648 194.924 65.2472 195.223 65.2472 195.596C65.2472 195.995 65.1345 196.341 64.9091 196.636C64.6923 196.922 64.3715 197.148 63.9467 197.312C63.5305 197.468 63.0234 197.546 62.4251 197.546ZM71.2201 197.481V195.973L71.1811 195.726V193.203C71.1811 192.622 71.0164 192.175 70.6869 191.863C70.3661 191.551 69.885 191.395 69.2434 191.395C68.8012 191.395 68.3807 191.469 67.9819 191.616C67.5831 191.764 67.245 191.959 66.9675 192.201L66.5514 191.512C66.8982 191.217 67.3143 190.992 67.7998 190.836C68.2854 190.671 68.7969 190.589 69.3344 190.589C70.2188 190.589 70.8994 190.81 71.3762 191.252C71.8617 191.686 72.1045 192.349 72.1045 193.242V197.481H71.2201ZM68.8662 197.546C68.3547 197.546 67.9082 197.464 67.5267 197.299C67.1539 197.126 66.8678 196.892 66.6684 196.597C66.469 196.294 66.3693 195.947 66.3693 195.557C66.3693 195.201 66.4517 194.88 66.6164 194.594C66.7898 194.3 67.0672 194.065 67.4487 193.892C67.8388 193.71 68.359 193.619 69.0093 193.619H71.3632V194.308H69.0353C68.3764 194.308 67.9169 194.425 67.6568 194.659C67.4053 194.893 67.2796 195.184 67.2796 195.531C67.2796 195.921 67.4314 196.233 67.7348 196.467C68.0383 196.701 68.4631 196.818 69.0093 196.818C69.5295 196.818 69.976 196.701 70.3488 196.467C70.7303 196.224 71.0077 195.877 71.1811 195.427L71.3892 196.064C71.2158 196.515 70.9124 196.875 70.4789 197.143C70.054 197.412 69.5165 197.546 68.8662 197.546ZM76.7712 197.546C76.1297 197.546 75.6355 197.373 75.2887 197.026C74.9419 196.679 74.7685 196.19 74.7685 195.557V189.145H75.6918V195.505C75.6918 195.904 75.7915 196.211 75.9909 196.428C76.199 196.645 76.4938 196.753 76.8753 196.753C77.2828 196.753 77.6209 196.636 77.8897 196.402L78.2148 197.065C78.0327 197.23 77.8116 197.351 77.5515 197.429C77.3001 197.507 77.04 197.546 76.7712 197.546ZM73.546 191.421V190.654H77.7726V191.421H73.546ZM79.8957 197.481V190.654H80.819V197.481H79.8957ZM80.3639 189.145C80.1731 189.145 80.0127 189.08 79.8827 188.95C79.7526 188.82 79.6876 188.664 79.6876 188.482C79.6876 188.3 79.7526 188.148 79.8827 188.027C80.0127 187.897 80.1731 187.832 80.3639 187.832C80.5546 187.832 80.715 187.892 80.845 188.014C80.9751 188.135 81.0401 188.287 81.0401 188.469C81.0401 188.66 80.9751 188.82 80.845 188.95C80.7237 189.08 80.5633 189.145 80.3639 189.145ZM83.3882 197.481V187.832H84.3116V197.481H83.3882ZM89.7809 197.546C89.0699 197.546 88.4457 197.399 87.9082 197.104C87.3706 196.801 86.9501 196.389 86.6467 195.869C86.3432 195.34 86.1915 194.737 86.1915 194.061C86.1915 193.385 86.3346 192.787 86.6207 192.266C86.9154 191.746 87.3143 191.339 87.8171 191.044C88.3286 190.741 88.9009 190.589 89.5338 190.589C90.1754 190.589 90.7432 190.736 91.2374 191.031C91.7403 191.317 92.1348 191.725 92.4209 192.253C92.707 192.774 92.85 193.376 92.85 194.061C92.85 194.104 92.8457 194.152 92.837 194.204C92.837 194.248 92.837 194.295 92.837 194.347H86.8938V193.658H92.3428L91.9787 193.931C91.9787 193.437 91.8703 192.999 91.6536 192.618C91.4455 192.227 91.1594 191.924 90.7953 191.707C90.4311 191.49 90.0106 191.382 89.5338 191.382C89.0656 191.382 88.6451 191.49 88.2723 191.707C87.8995 191.924 87.609 192.227 87.401 192.618C87.1929 193.008 87.0888 193.454 87.0888 193.957V194.1C87.0888 194.62 87.2016 195.08 87.427 195.479C87.6611 195.869 87.9818 196.177 88.3893 196.402C88.8055 196.619 89.278 196.727 89.8069 196.727C90.223 196.727 90.6089 196.653 90.9643 196.506C91.3285 196.359 91.6406 196.133 91.9007 195.83L92.4209 196.428C92.1174 196.792 91.7359 197.07 91.2764 197.26C90.8256 197.451 90.3271 197.546 89.7809 197.546ZM98.3282 197.481V188.378H99.1215L103.283 195.479H102.867L106.989 188.378H107.783V197.481H106.859V189.822H107.081L103.283 196.324H102.828L99.0044 189.822H99.2515V197.481H98.3282ZM110.554 197.481V190.654H111.477V197.481H110.554ZM111.022 189.145C110.831 189.145 110.671 189.08 110.541 188.95C110.411 188.82 110.346 188.664 110.346 188.482C110.346 188.3 110.411 188.148 110.541 188.027C110.671 187.897 110.831 187.832 111.022 187.832C111.213 187.832 111.373 187.892 111.503 188.014C111.633 188.135 111.698 188.287 111.698 188.469C111.698 188.66 111.633 188.82 111.503 188.95C111.382 189.08 111.221 189.145 111.022 189.145ZM116.764 197.546C116.114 197.546 115.529 197.399 115.009 197.104C114.497 196.81 114.094 196.402 113.799 195.882C113.505 195.353 113.357 194.746 113.357 194.061C113.357 193.368 113.505 192.761 113.799 192.24C114.094 191.72 114.497 191.317 115.009 191.031C115.529 190.736 116.114 190.589 116.764 190.589C117.363 190.589 117.896 190.723 118.364 190.992C118.841 191.261 119.218 191.655 119.495 192.175C119.782 192.687 119.925 193.316 119.925 194.061C119.925 194.798 119.786 195.427 119.508 195.947C119.231 196.467 118.854 196.866 118.377 197.143C117.909 197.412 117.371 197.546 116.764 197.546ZM116.829 196.727C117.315 196.727 117.748 196.619 118.13 196.402C118.52 196.177 118.824 195.864 119.04 195.466C119.266 195.058 119.378 194.59 119.378 194.061C119.378 193.524 119.266 193.055 119.04 192.657C118.824 192.258 118.52 191.95 118.13 191.733C117.748 191.508 117.315 191.395 116.829 191.395C116.353 191.395 115.923 191.508 115.542 191.733C115.16 191.95 114.857 192.258 114.632 192.657C114.406 193.055 114.293 193.524 114.293 194.061C114.293 194.59 114.406 195.058 114.632 195.466C114.857 195.864 115.16 196.177 115.542 196.402C115.923 196.619 116.353 196.727 116.829 196.727ZM119.404 197.481V195.427L119.495 194.048L119.365 192.67V187.832H120.289V197.481H119.404ZM122.353 194.36V193.554H125.76V194.36H122.353ZM130.303 197.559C129.626 197.559 128.976 197.451 128.352 197.234C127.736 197.009 127.259 196.723 126.921 196.376L127.298 195.635C127.619 195.947 128.048 196.211 128.586 196.428C129.132 196.636 129.704 196.74 130.303 196.74C130.875 196.74 131.339 196.671 131.694 196.532C132.058 196.385 132.323 196.19 132.487 195.947C132.661 195.704 132.747 195.435 132.747 195.141C132.747 194.785 132.643 194.499 132.435 194.282C132.236 194.065 131.971 193.896 131.642 193.775C131.313 193.645 130.948 193.532 130.55 193.437C130.151 193.342 129.752 193.242 129.353 193.138C128.954 193.025 128.586 192.878 128.248 192.696C127.918 192.514 127.649 192.275 127.441 191.98C127.242 191.677 127.142 191.282 127.142 190.797C127.142 190.346 127.259 189.934 127.493 189.561C127.736 189.18 128.105 188.876 128.599 188.651C129.093 188.417 129.726 188.3 130.498 188.3C131.009 188.3 131.516 188.374 132.019 188.521C132.522 188.66 132.956 188.855 133.32 189.106L132.995 189.874C132.604 189.613 132.188 189.423 131.746 189.301C131.313 189.18 130.892 189.119 130.485 189.119C129.938 189.119 129.488 189.193 129.132 189.34C128.777 189.488 128.512 189.687 128.339 189.939C128.174 190.181 128.092 190.459 128.092 190.771C128.092 191.126 128.191 191.412 128.391 191.629C128.599 191.846 128.868 192.015 129.197 192.136C129.535 192.258 129.904 192.366 130.303 192.462C130.701 192.557 131.096 192.661 131.486 192.774C131.885 192.886 132.249 193.034 132.578 193.216C132.917 193.389 133.185 193.623 133.385 193.918C133.593 194.213 133.697 194.599 133.697 195.076C133.697 195.518 133.575 195.93 133.333 196.311C133.09 196.684 132.717 196.987 132.214 197.221C131.72 197.447 131.083 197.559 130.303 197.559ZM135.599 197.481V190.654H136.522V197.481H135.599ZM136.067 189.145C135.876 189.145 135.716 189.08 135.586 188.95C135.456 188.82 135.391 188.664 135.391 188.482C135.391 188.3 135.456 188.148 135.586 188.027C135.716 187.897 135.876 187.832 136.067 187.832C136.257 187.832 136.418 187.892 136.548 188.014C136.678 188.135 136.743 188.287 136.743 188.469C136.743 188.66 136.678 188.82 136.548 188.95C136.427 189.08 136.266 189.145 136.067 189.145ZM138.35 197.481V196.87L142.902 191.109L143.097 191.421H138.428V190.654H143.825V191.252L139.286 197.026L139.052 196.714H143.916V197.481H138.35ZM148.519 197.546C147.808 197.546 147.184 197.399 146.646 197.104C146.109 196.801 145.688 196.389 145.385 195.869C145.081 195.34 144.93 194.737 144.93 194.061C144.93 193.385 145.073 192.787 145.359 192.266C145.654 191.746 146.053 191.339 146.555 191.044C147.067 190.741 147.639 190.589 148.272 190.589C148.914 190.589 149.481 190.736 149.976 191.031C150.479 191.317 150.873 191.725 151.159 192.253C151.445 192.774 151.588 193.376 151.588 194.061C151.588 194.104 151.584 194.152 151.575 194.204C151.575 194.248 151.575 194.295 151.575 194.347H145.632V193.658H151.081L150.717 193.931C150.717 193.437 150.609 192.999 150.392 192.618C150.184 192.227 149.898 191.924 149.533 191.707C149.169 191.49 148.749 191.382 148.272 191.382C147.804 191.382 147.383 191.49 147.011 191.707C146.638 191.924 146.347 192.227 146.139 192.618C145.931 193.008 145.827 193.454 145.827 193.957V194.1C145.827 194.62 145.94 195.08 146.165 195.479C146.399 195.869 146.72 196.177 147.128 196.402C147.544 196.619 148.016 196.727 148.545 196.727C148.961 196.727 149.347 196.653 149.703 196.506C150.067 196.359 150.379 196.133 150.639 195.83L151.159 196.428C150.856 196.792 150.474 197.07 150.015 197.26C149.564 197.451 149.065 197.546 148.519 197.546ZM157.066 197.481V188.378H158.029V197.481H157.066ZM160.991 197.481V188.378H161.784L165.946 195.479H165.53L169.652 188.378H170.445V197.481H169.522V189.822H169.743L165.946 196.324H165.49L161.667 189.822H161.914V197.481H160.991ZM173.412 197.481V188.378H174.374V196.649H179.472V197.481H173.412ZM28.6144 216.559C27.9295 216.559 27.2966 216.447 26.7157 216.221C26.1348 215.987 25.6319 215.662 25.2071 215.246C24.7823 214.83 24.4485 214.34 24.2057 213.776C23.9716 213.213 23.8546 212.597 23.8546 211.93C23.8546 211.262 23.9716 210.647 24.2057 210.083C24.4485 209.519 24.7823 209.03 25.2071 208.613C25.6406 208.197 26.1478 207.876 26.7287 207.651C27.3096 207.417 27.9425 207.3 28.6274 207.3C29.2863 207.3 29.9062 207.413 30.4871 207.638C31.068 207.855 31.5579 208.184 31.9567 208.626L31.3454 209.238C30.9726 208.856 30.5608 208.583 30.11 208.418C29.6591 208.245 29.1736 208.158 28.6534 208.158C28.1072 208.158 27.6 208.254 27.1318 208.444C26.6637 208.626 26.2562 208.891 25.9094 209.238C25.5626 209.576 25.2895 209.975 25.0901 210.434C24.8993 210.885 24.804 211.383 24.804 211.93C24.804 212.476 24.8993 212.979 25.0901 213.438C25.2895 213.889 25.5626 214.288 25.9094 214.635C26.2562 214.973 26.6637 215.237 27.1318 215.428C27.6 215.61 28.1072 215.701 28.6534 215.701C29.1736 215.701 29.6591 215.614 30.11 215.441C30.5608 215.268 30.9726 214.99 31.3454 214.609L31.9567 215.22C31.5579 215.662 31.068 215.996 30.4871 216.221C29.9062 216.447 29.282 216.559 28.6144 216.559ZM36.2914 216.546C35.6325 216.546 35.0386 216.399 34.5097 216.104C33.9895 215.801 33.5777 215.389 33.2742 214.869C32.9708 214.34 32.8191 213.737 32.8191 213.061C32.8191 212.376 32.9708 211.774 33.2742 211.253C33.5777 210.733 33.9895 210.326 34.5097 210.031C35.0299 209.736 35.6238 209.589 36.2914 209.589C36.9677 209.589 37.5659 209.736 38.0861 210.031C38.615 210.326 39.0268 210.733 39.3216 211.253C39.625 211.774 39.7767 212.376 39.7767 213.061C39.7767 213.737 39.625 214.34 39.3216 214.869C39.0268 215.389 38.615 215.801 38.0861 216.104C37.5572 216.399 36.959 216.546 36.2914 216.546ZM36.2914 215.727C36.7856 215.727 37.2234 215.619 37.6049 215.402C37.9864 215.177 38.2855 214.864 38.5022 214.466C38.7277 214.058 38.8404 213.59 38.8404 213.061C38.8404 212.524 38.7277 212.055 38.5022 211.657C38.2855 211.258 37.9864 210.95 37.6049 210.733C37.2234 210.508 36.7899 210.395 36.3044 210.395C35.8189 210.395 35.3854 210.508 35.0039 210.733C34.6224 210.95 34.319 211.258 34.0936 211.657C33.8681 212.055 33.7554 212.524 33.7554 213.061C33.7554 213.59 33.8681 214.058 34.0936 214.466C34.319 214.864 34.6224 215.177 35.0039 215.402C35.3854 215.619 35.8145 215.727 36.2914 215.727ZM45.1472 209.589C45.702 209.589 46.1876 209.697 46.6037 209.914C47.0286 210.122 47.358 210.443 47.5921 210.876C47.8349 211.31 47.9562 211.856 47.9562 212.515V216.481H47.0329V212.606C47.0329 211.886 46.8508 211.344 46.4867 210.98C46.1312 210.608 45.6284 210.421 44.9781 210.421C44.4926 210.421 44.0678 210.521 43.7036 210.72C43.3481 210.911 43.0707 211.193 42.8713 211.566C42.6806 211.93 42.5852 212.372 42.5852 212.892V216.481H41.6618V209.654H42.5462V211.527L42.4031 211.175C42.6199 210.681 42.9667 210.295 43.4435 210.018C43.9204 209.732 44.4883 209.589 45.1472 209.589ZM52.6092 216.546C51.9676 216.546 51.4734 216.373 51.1266 216.026C50.7798 215.679 50.6064 215.19 50.6064 214.557V208.145H51.5298V214.505C51.5298 214.904 51.6295 215.211 51.8289 215.428C52.037 215.645 52.3317 215.753 52.7132 215.753C53.1207 215.753 53.4588 215.636 53.7276 215.402L54.0527 216.065C53.8707 216.23 53.6496 216.351 53.3895 216.429C53.138 216.507 52.8779 216.546 52.6092 216.546ZM49.3839 210.421V209.654H53.6106V210.421H49.3839ZM60.0123 216.481V214.973L59.9732 214.726V212.203C59.9732 211.622 59.8085 211.175 59.479 210.863C59.1583 210.551 58.6771 210.395 58.0355 210.395C57.5933 210.395 57.1728 210.469 56.774 210.616C56.3752 210.764 56.0371 210.959 55.7596 211.201L55.3435 210.512C55.6903 210.217 56.1064 209.992 56.5919 209.836C57.0775 209.671 57.589 209.589 58.1265 209.589C59.0109 209.589 59.6915 209.81 60.1683 210.252C60.6538 210.686 60.8966 211.349 60.8966 212.242V216.481H60.0123ZM57.6584 216.546C57.1468 216.546 56.7003 216.464 56.3188 216.299C55.946 216.126 55.6599 215.892 55.4605 215.597C55.2611 215.294 55.1614 214.947 55.1614 214.557C55.1614 214.201 55.2438 213.88 55.4085 213.594C55.5819 213.3 55.8593 213.065 56.2408 212.892C56.631 212.71 57.1512 212.619 57.8014 212.619H60.1553V213.308H57.8274C57.1685 213.308 56.709 213.425 56.4489 213.659C56.1975 213.893 56.0717 214.184 56.0717 214.531C56.0717 214.921 56.2235 215.233 56.5269 215.467C56.8304 215.701 57.2552 215.818 57.8014 215.818C58.3216 215.818 58.7681 215.701 59.1409 215.467C59.5224 215.224 59.7998 214.877 59.9732 214.427L60.1813 215.064C60.0079 215.515 59.7045 215.875 59.271 216.143C58.8461 216.412 58.3086 216.546 57.6584 216.546ZM63.4045 216.481V209.654H64.3279V216.481H63.4045ZM63.8727 208.145C63.682 208.145 63.5216 208.08 63.3915 207.95C63.2615 207.82 63.1964 207.664 63.1964 207.482C63.1964 207.3 63.2615 207.148 63.3915 207.027C63.5216 206.897 63.682 206.832 63.8727 206.832C64.0634 206.832 64.2238 206.892 64.3539 207.014C64.4839 207.135 64.549 207.287 64.549 207.469C64.549 207.66 64.4839 207.82 64.3539 207.95C64.2325 208.08 64.0721 208.145 63.8727 208.145ZM70.3824 209.589C70.9373 209.589 71.4228 209.697 71.8389 209.914C72.2638 210.122 72.5932 210.443 72.8273 210.876C73.0701 211.31 73.1915 211.856 73.1915 212.515V216.481H72.2681V212.606C72.2681 211.886 72.086 211.344 71.7219 210.98C71.3664 210.608 70.8636 210.421 70.2133 210.421C69.7278 210.421 69.303 210.521 68.9388 210.72C68.5834 210.911 68.3059 211.193 68.1065 211.566C67.9158 211.93 67.8204 212.372 67.8204 212.892V216.481H66.8971V209.654H67.7814V211.527L67.6383 211.175C67.8551 210.681 68.2019 210.295 68.6787 210.018C69.1556 209.732 69.7235 209.589 70.3824 209.589ZM78.5857 216.546C77.8747 216.546 77.2505 216.399 76.713 216.104C76.1754 215.801 75.7549 215.389 75.4515 214.869C75.148 214.34 74.9963 213.737 74.9963 213.061C74.9963 212.385 75.1394 211.787 75.4255 211.266C75.7203 210.746 76.1191 210.339 76.6219 210.044C77.1335 209.741 77.7057 209.589 78.3386 209.589C78.9802 209.589 79.548 209.736 80.0422 210.031C80.5451 210.317 80.9396 210.725 81.2257 211.253C81.5118 211.774 81.6548 212.376 81.6548 213.061C81.6548 213.104 81.6505 213.152 81.6418 213.204C81.6418 213.248 81.6418 213.295 81.6418 213.347H75.6986V212.658H81.1477L80.7835 212.931C80.7835 212.437 80.6751 211.999 80.4584 211.618C80.2503 211.227 79.9642 210.924 79.6001 210.707C79.2359 210.49 78.8154 210.382 78.3386 210.382C77.8704 210.382 77.4499 210.49 77.0771 210.707C76.7043 210.924 76.4138 211.227 76.2058 211.618C75.9977 212.008 75.8936 212.454 75.8936 212.957V213.1C75.8936 213.62 76.0064 214.08 76.2318 214.479C76.4659 214.869 76.7867 215.177 77.1941 215.402C77.6103 215.619 78.0828 215.727 78.6117 215.727C79.0278 215.727 79.4137 215.653 79.7691 215.506C80.1333 215.359 80.4454 215.133 80.7055 214.83L81.2257 215.428C80.9222 215.792 80.5408 216.07 80.0812 216.26C79.6304 216.451 79.1319 216.546 78.5857 216.546ZM83.5343 216.481V209.654H84.4186V211.514L84.3276 211.188C84.5183 210.668 84.8391 210.274 85.2899 210.005C85.7408 209.728 86.3 209.589 86.9676 209.589V210.486C86.9329 210.486 86.8982 210.486 86.8635 210.486C86.8289 210.477 86.7942 210.473 86.7595 210.473C86.0399 210.473 85.4763 210.694 85.0689 211.136C84.6614 211.57 84.4576 212.19 84.4576 212.996V216.481H83.5343ZM92.1577 216.481V209.654H93.081V216.481H92.1577ZM92.6259 208.145C92.4351 208.145 92.2747 208.08 92.1447 207.95C92.0146 207.82 91.9496 207.664 91.9496 207.482C91.9496 207.3 92.0146 207.148 92.1447 207.027C92.2747 206.897 92.4351 206.832 92.6259 206.832C92.8166 206.832 92.977 206.892 93.107 207.014C93.2371 207.135 93.3021 207.287 93.3021 207.469C93.3021 207.66 93.2371 207.82 93.107 207.95C92.9857 208.08 92.8253 208.145 92.6259 208.145ZM98.3683 216.546C97.718 216.546 97.1328 216.399 96.6126 216.104C96.1011 215.81 95.6979 215.402 95.4031 214.882C95.1083 214.353 94.961 213.746 94.961 213.061C94.961 212.368 95.1083 211.761 95.4031 211.24C95.6979 210.72 96.1011 210.317 96.6126 210.031C97.1328 209.736 97.718 209.589 98.3683 209.589C98.9665 209.589 99.4997 209.723 99.9679 209.992C100.445 210.261 100.822 210.655 101.099 211.175C101.385 211.687 101.528 212.316 101.528 213.061C101.528 213.798 101.39 214.427 101.112 214.947C100.835 215.467 100.458 215.866 99.9809 216.143C99.5127 216.412 98.9752 216.546 98.3683 216.546ZM98.4333 215.727C98.9188 215.727 99.3523 215.619 99.7338 215.402C100.124 215.177 100.427 214.864 100.644 214.466C100.87 214.058 100.982 213.59 100.982 213.061C100.982 212.524 100.87 212.055 100.644 211.657C100.427 211.258 100.124 210.95 99.7338 210.733C99.3523 210.508 98.9188 210.395 98.4333 210.395C97.9564 210.395 97.5273 210.508 97.1458 210.733C96.7643 210.95 96.4609 211.258 96.2354 211.657C96.01 212.055 95.8973 212.524 95.8973 213.061C95.8973 213.59 96.01 214.058 96.2354 214.466C96.4609 214.864 96.7643 215.177 97.1458 215.402C97.5273 215.619 97.9564 215.727 98.4333 215.727ZM101.008 216.481V214.427L101.099 213.048L100.969 211.67V206.832H101.893V216.481H101.008ZM107.364 216.546C106.653 216.546 106.029 216.399 105.492 216.104C104.954 215.801 104.533 215.389 104.23 214.869C103.927 214.34 103.775 213.737 103.775 213.061C103.775 212.385 103.918 211.787 104.204 211.266C104.499 210.746 104.898 210.339 105.4 210.044C105.912 209.741 106.484 209.589 107.117 209.589C107.759 209.589 108.327 209.736 108.821 210.031C109.324 210.317 109.718 210.725 110.004 211.253C110.29 211.774 110.433 212.376 110.433 213.061C110.433 213.104 110.429 213.152 110.42 213.204C110.42 213.248 110.42 213.295 110.42 213.347H104.477V212.658H109.926L109.562 212.931C109.562 212.437 109.454 211.999 109.237 211.618C109.029 211.227 108.743 210.924 108.379 210.707C108.014 210.49 107.594 210.382 107.117 210.382C106.649 210.382 106.228 210.49 105.856 210.707C105.483 210.924 105.192 211.227 104.984 211.618C104.776 212.008 104.672 212.454 104.672 212.957V213.1C104.672 213.62 104.785 214.08 105.01 214.479C105.244 214.869 105.565 215.177 105.973 215.402C106.389 215.619 106.861 215.727 107.39 215.727C107.806 215.727 108.192 215.653 108.548 215.506C108.912 215.359 109.224 215.133 109.484 214.83L110.004 215.428C109.701 215.792 109.319 216.07 108.86 216.26C108.409 216.451 107.91 216.546 107.364 216.546ZM116.401 216.481V214.973L116.362 214.726V212.203C116.362 211.622 116.197 211.175 115.868 210.863C115.547 210.551 115.066 210.395 114.424 210.395C113.982 210.395 113.562 210.469 113.163 210.616C112.764 210.764 112.426 210.959 112.148 211.201L111.732 210.512C112.079 210.217 112.495 209.992 112.981 209.836C113.466 209.671 113.978 209.589 114.515 209.589C115.4 209.589 116.08 209.81 116.557 210.252C117.043 210.686 117.285 211.349 117.285 212.242V216.481H116.401ZM114.047 216.546C113.536 216.546 113.089 216.464 112.708 216.299C112.335 216.126 112.049 215.892 111.849 215.597C111.65 215.294 111.55 214.947 111.55 214.557C111.55 214.201 111.632 213.88 111.797 213.594C111.971 213.3 112.248 213.065 112.63 212.892C113.02 212.71 113.54 212.619 114.19 212.619H116.544V213.308H114.216C113.557 213.308 113.098 213.425 112.838 213.659C112.586 213.893 112.46 214.184 112.46 214.531C112.46 214.921 112.612 215.233 112.916 215.467C113.219 215.701 113.644 215.818 114.19 215.818C114.71 215.818 115.157 215.701 115.53 215.467C115.911 215.224 116.189 214.877 116.362 214.427L116.57 215.064C116.397 215.515 116.093 215.875 115.66 216.143C115.235 216.412 114.697 216.546 114.047 216.546ZM119.793 216.481V206.832H120.717V216.481H119.793ZM126.845 216.481V208.796C126.845 208.189 127.023 207.699 127.379 207.326C127.734 206.953 128.246 206.767 128.913 206.767C129.173 206.767 129.425 206.801 129.668 206.871C129.91 206.94 130.114 207.049 130.279 207.196L129.967 207.885C129.837 207.772 129.685 207.69 129.511 207.638C129.338 207.577 129.152 207.547 128.952 207.547C128.562 207.547 128.263 207.655 128.055 207.872C127.847 208.089 127.743 208.41 127.743 208.835V209.875L127.769 210.304V216.481H126.845ZM125.623 210.421V209.654H129.85V210.421H125.623ZM133.765 216.546C133.106 216.546 132.512 216.399 131.983 216.104C131.463 215.801 131.051 215.389 130.748 214.869C130.445 214.34 130.293 213.737 130.293 213.061C130.293 212.376 130.445 211.774 130.748 211.253C131.051 210.733 131.463 210.326 131.983 210.031C132.504 209.736 133.098 209.589 133.765 209.589C134.441 209.589 135.04 209.736 135.56 210.031C136.089 210.326 136.501 210.733 136.795 211.253C137.099 211.774 137.25 212.376 137.25 213.061C137.25 213.737 137.099 214.34 136.795 214.869C136.501 215.389 136.089 215.801 135.56 216.104C135.031 216.399 134.433 216.546 133.765 216.546ZM133.765 215.727C134.259 215.727 134.697 215.619 135.079 215.402C135.46 215.177 135.759 214.864 135.976 214.466C136.201 214.058 136.314 213.59 136.314 213.061C136.314 212.524 136.201 212.055 135.976 211.657C135.759 211.258 135.46 210.95 135.079 210.733C134.697 210.508 134.264 210.395 133.778 210.395C133.293 210.395 132.859 210.508 132.478 210.733C132.096 210.95 131.793 211.258 131.567 211.657C131.342 212.055 131.229 212.524 131.229 213.061C131.229 213.59 131.342 214.058 131.567 214.466C131.793 214.864 132.096 215.177 132.478 215.402C132.859 215.619 133.288 215.727 133.765 215.727ZM139.136 216.481V209.654H140.02V211.514L139.929 211.188C140.12 210.668 140.44 210.274 140.891 210.005C141.342 209.728 141.901 209.589 142.569 209.589V210.486C142.534 210.486 142.5 210.486 142.465 210.486C142.43 210.477 142.395 210.473 142.361 210.473C141.641 210.473 141.078 210.694 140.67 211.136C140.263 211.57 140.059 212.19 140.059 212.996V216.481H139.136ZM149.721 216.559C149.148 216.559 148.602 216.481 148.082 216.325C147.57 216.169 147.167 215.979 146.873 215.753L147.393 214.765C147.687 214.964 148.052 215.133 148.485 215.272C148.919 215.411 149.361 215.48 149.812 215.48C150.393 215.48 150.809 215.398 151.06 215.233C151.32 215.068 151.45 214.838 151.45 214.544C151.45 214.327 151.372 214.158 151.216 214.037C151.06 213.915 150.852 213.824 150.592 213.763C150.341 213.703 150.059 213.651 149.747 213.607C149.434 213.555 149.122 213.495 148.81 213.425C148.498 213.347 148.212 213.243 147.952 213.113C147.692 212.974 147.484 212.788 147.328 212.554C147.172 212.311 147.094 211.99 147.094 211.592C147.094 211.175 147.211 210.811 147.445 210.499C147.679 210.187 148.008 209.949 148.433 209.784C148.867 209.61 149.378 209.524 149.968 209.524C150.419 209.524 150.874 209.58 151.333 209.693C151.801 209.797 152.183 209.949 152.478 210.148L151.944 211.136C151.632 210.928 151.307 210.785 150.969 210.707C150.631 210.629 150.293 210.59 149.955 210.59C149.408 210.59 149.001 210.681 148.732 210.863C148.463 211.037 148.329 211.262 148.329 211.54C148.329 211.774 148.407 211.956 148.563 212.086C148.728 212.207 148.936 212.303 149.187 212.372C149.447 212.441 149.734 212.502 150.046 212.554C150.358 212.597 150.67 212.658 150.982 212.736C151.294 212.805 151.576 212.905 151.827 213.035C152.088 213.165 152.296 213.347 152.452 213.581C152.616 213.815 152.699 214.128 152.699 214.518C152.699 214.934 152.577 215.294 152.335 215.597C152.092 215.901 151.749 216.139 151.307 216.312C150.865 216.477 150.336 216.559 149.721 216.559ZM157.939 209.524C158.503 209.524 158.997 209.632 159.422 209.849C159.855 210.066 160.194 210.395 160.436 210.837C160.679 211.279 160.801 211.839 160.801 212.515V216.481H159.552V212.658C159.552 211.99 159.387 211.488 159.058 211.149C158.737 210.811 158.282 210.642 157.692 210.642C157.25 210.642 156.864 210.729 156.535 210.902C156.205 211.076 155.95 211.331 155.768 211.67C155.594 212.008 155.508 212.428 155.508 212.931V216.481H154.259V209.589H155.455V211.449L155.26 210.954C155.486 210.503 155.833 210.152 156.301 209.901C156.769 209.65 157.315 209.524 157.939 209.524ZM167.39 216.481V215.025L167.325 214.752V212.268C167.325 211.739 167.169 211.331 166.856 211.045C166.553 210.751 166.094 210.603 165.478 210.603C165.07 210.603 164.672 210.673 164.281 210.811C163.891 210.941 163.562 211.119 163.293 211.344L162.773 210.408C163.128 210.122 163.553 209.905 164.047 209.758C164.55 209.602 165.075 209.524 165.621 209.524C166.566 209.524 167.294 209.754 167.806 210.213C168.317 210.673 168.573 211.375 168.573 212.32V216.481H167.39ZM165.127 216.559C164.615 216.559 164.164 216.473 163.774 216.299C163.393 216.126 163.098 215.888 162.89 215.584C162.682 215.272 162.578 214.921 162.578 214.531C162.578 214.158 162.665 213.82 162.838 213.516C163.02 213.213 163.31 212.97 163.709 212.788C164.117 212.606 164.663 212.515 165.348 212.515H167.533V213.412H165.4C164.776 213.412 164.355 213.516 164.138 213.724C163.922 213.932 163.813 214.184 163.813 214.479C163.813 214.817 163.948 215.09 164.216 215.298C164.485 215.497 164.858 215.597 165.335 215.597C165.803 215.597 166.211 215.493 166.557 215.285C166.913 215.077 167.169 214.773 167.325 214.375L167.572 215.233C167.407 215.64 167.117 215.966 166.7 216.208C166.284 216.442 165.76 216.559 165.127 216.559ZM173.888 216.559C173.185 216.559 172.557 216.408 172.002 216.104C171.456 215.801 171.027 215.385 170.714 214.856C170.402 214.327 170.246 213.72 170.246 213.035C170.246 212.35 170.402 211.743 170.714 211.214C171.027 210.686 171.456 210.274 172.002 209.979C172.557 209.676 173.185 209.524 173.888 209.524C174.512 209.524 175.067 209.65 175.552 209.901C176.047 210.144 176.428 210.508 176.697 210.993L175.747 211.605C175.522 211.266 175.245 211.019 174.915 210.863C174.594 210.699 174.247 210.616 173.875 210.616C173.424 210.616 173.021 210.716 172.665 210.915C172.31 211.115 172.028 211.397 171.82 211.761C171.612 212.116 171.508 212.541 171.508 213.035C171.508 213.529 171.612 213.958 171.82 214.323C172.028 214.687 172.31 214.969 172.665 215.168C173.021 215.367 173.424 215.467 173.875 215.467C174.247 215.467 174.594 215.389 174.915 215.233C175.245 215.068 175.522 214.817 175.747 214.479L176.697 215.077C176.428 215.554 176.047 215.922 175.552 216.182C175.067 216.434 174.512 216.559 173.888 216.559ZM179.239 214.817L179.265 213.217L183.231 209.589H184.74L181.697 212.58L181.02 213.152L179.239 214.817ZM178.224 216.481V206.832H179.473V216.481H178.224ZM183.491 216.481L180.786 213.126L181.593 212.125L185.026 216.481H183.491ZM187.999 216.559C187.427 216.559 186.88 216.481 186.36 216.325C185.849 216.169 185.446 215.979 185.151 215.753L185.671 214.765C185.966 214.964 186.33 215.133 186.763 215.272C187.197 215.411 187.639 215.48 188.09 215.48C188.671 215.48 189.087 215.398 189.338 215.233C189.599 215.068 189.729 214.838 189.729 214.544C189.729 214.327 189.651 214.158 189.494 214.037C189.338 213.915 189.13 213.824 188.87 213.763C188.619 213.703 188.337 213.651 188.025 213.607C187.713 213.555 187.401 213.495 187.089 213.425C186.776 213.347 186.49 213.243 186.23 213.113C185.97 212.974 185.762 212.788 185.606 212.554C185.45 212.311 185.372 211.99 185.372 211.592C185.372 211.175 185.489 210.811 185.723 210.499C185.957 210.187 186.287 209.949 186.711 209.784C187.145 209.61 187.656 209.524 188.246 209.524C188.697 209.524 189.152 209.58 189.612 209.693C190.08 209.797 190.461 209.949 190.756 210.148L190.223 211.136C189.911 210.928 189.585 210.785 189.247 210.707C188.909 210.629 188.571 210.59 188.233 210.59C187.687 210.59 187.279 210.681 187.011 210.863C186.742 211.037 186.607 211.262 186.607 211.54C186.607 211.774 186.685 211.956 186.841 212.086C187.006 212.207 187.214 212.303 187.466 212.372C187.726 212.441 188.012 212.502 188.324 212.554C188.636 212.597 188.948 212.658 189.26 212.736C189.572 212.805 189.854 212.905 190.106 213.035C190.366 213.165 190.574 213.347 190.73 213.581C190.895 213.815 190.977 214.128 190.977 214.518C190.977 214.934 190.856 215.294 190.613 215.597C190.37 215.901 190.028 216.139 189.585 216.312C189.143 216.477 188.614 216.559 187.999 216.559ZM192.043 218.406L192.693 215.779L192.862 216.533C192.611 216.533 192.399 216.455 192.225 216.299C192.06 216.143 191.978 215.931 191.978 215.662C191.978 215.402 192.06 215.19 192.225 215.025C192.399 214.86 192.607 214.778 192.849 214.778C193.101 214.778 193.305 214.864 193.461 215.038C193.617 215.203 193.695 215.411 193.695 215.662C193.695 215.749 193.686 215.836 193.669 215.922C193.66 216 193.638 216.096 193.604 216.208C193.578 216.312 193.534 216.442 193.474 216.598L192.862 218.406H192.043ZM39.0069 235.559C38.4347 235.559 37.8885 235.481 37.3683 235.325C36.8568 235.169 36.4536 234.979 36.1589 234.753L36.6791 233.765C36.9738 233.964 37.338 234.133 37.7715 234.272C38.205 234.411 38.6471 234.48 39.098 234.48C39.6789 234.48 40.095 234.398 40.3465 234.233C40.6066 234.068 40.7366 233.838 40.7366 233.544C40.7366 233.327 40.6586 233.158 40.5025 233.037C40.3465 232.915 40.1384 232.824 39.8783 232.763C39.6269 232.703 39.3451 232.651 39.033 232.607C38.7208 232.555 38.4087 232.495 38.0966 232.425C37.7845 232.347 37.4984 232.243 37.2383 232.113C36.9782 231.974 36.7701 231.788 36.614 231.554C36.458 231.311 36.3799 230.99 36.3799 230.592C36.3799 230.175 36.497 229.811 36.7311 229.499C36.9652 229.187 37.2946 228.949 37.7195 228.784C38.153 228.61 38.6645 228.524 39.254 228.524C39.7049 228.524 40.1601 228.58 40.6196 228.693C41.0877 228.797 41.4692 228.949 41.764 229.148L41.2308 230.136C40.9187 229.928 40.5936 229.785 40.2554 229.707C39.9173 229.629 39.5792 229.59 39.241 229.59C38.6948 229.59 38.2873 229.681 38.0186 229.863C37.7498 230.037 37.6154 230.262 37.6154 230.54C37.6154 230.774 37.6934 230.956 37.8495 231.086C38.0142 231.207 38.2223 231.303 38.4737 231.372C38.7338 231.441 39.02 231.502 39.3321 231.554C39.6442 231.597 39.9563 231.658 40.2684 231.736C40.5805 231.805 40.8623 231.905 41.1138 232.035C41.3739 232.165 41.5819 232.347 41.738 232.581C41.9027 232.815 41.9851 233.128 41.9851 233.518C41.9851 233.934 41.8637 234.294 41.6209 234.597C41.3782 234.901 41.0357 235.139 40.5936 235.312C40.1514 235.477 39.6225 235.559 39.0069 235.559ZM44.8749 235.481L42.313 228.589H43.4964L45.7723 234.831H45.2131L47.58 228.589H48.6334L50.9482 234.831H50.402L52.7299 228.589H53.8484L51.2734 235.481H50.0769L47.9051 229.785H48.2692L46.0714 235.481H44.8749ZM57.9939 235.559C57.2569 235.559 56.6067 235.408 56.0431 235.104C55.4883 234.801 55.0548 234.385 54.7427 233.856C54.4392 233.327 54.2875 232.72 54.2875 232.035C54.2875 231.35 54.4349 230.743 54.7296 230.214C55.0331 229.686 55.4449 229.274 55.9651 228.979C56.494 228.676 57.0879 228.524 57.7468 228.524C58.4144 228.524 59.0039 228.671 59.5155 228.966C60.027 229.261 60.4258 229.677 60.7119 230.214C61.0067 230.743 61.1541 231.363 61.1541 232.074C61.1541 232.126 61.1498 232.187 61.1411 232.256C61.1411 232.326 61.1368 232.391 61.1281 232.451H55.2628V231.554H60.4778L59.9706 231.866C59.9793 231.424 59.8883 231.029 59.6975 230.683C59.5068 230.336 59.2424 230.067 58.9042 229.876C58.5748 229.677 58.189 229.577 57.7468 229.577C57.3133 229.577 56.9275 229.677 56.5894 229.876C56.2512 230.067 55.9868 230.34 55.7961 230.696C55.6053 231.042 55.5099 231.441 55.5099 231.892V232.1C55.5099 232.56 55.614 232.971 55.8221 233.336C56.0388 233.691 56.3379 233.969 56.7194 234.168C57.1009 234.367 57.5387 234.467 58.0329 234.467C58.4404 234.467 58.8089 234.398 59.1383 234.259C59.4765 234.12 59.7712 233.912 60.0227 233.635L60.7119 234.441C60.3998 234.805 60.0097 235.083 59.5415 235.273C59.082 235.464 58.5661 235.559 57.9939 235.559ZM65.9569 235.559C65.2199 235.559 64.5697 235.408 64.0061 235.104C63.4513 234.801 63.0178 234.385 62.7057 233.856C62.4022 233.327 62.2505 232.72 62.2505 232.035C62.2505 231.35 62.3979 230.743 62.6926 230.214C62.9961 229.686 63.4079 229.274 63.9281 228.979C64.457 228.676 65.0509 228.524 65.7098 228.524C66.3774 228.524 66.9669 228.671 67.4785 228.966C67.99 229.261 68.3888 229.677 68.6749 230.214C68.9697 230.743 69.1171 231.363 69.1171 232.074C69.1171 232.126 69.1128 232.187 69.1041 232.256C69.1041 232.326 69.0998 232.391 69.0911 232.451H63.2259V231.554H68.4408L67.9336 231.866C67.9423 231.424 67.8513 231.029 67.6605 230.683C67.4698 230.336 67.2054 230.067 66.8672 229.876C66.5378 229.677 66.152 229.577 65.7098 229.577C65.2763 229.577 64.8905 229.677 64.5524 229.876C64.2142 230.067 63.9498 230.34 63.7591 230.696C63.5683 231.042 63.4729 231.441 63.4729 231.892V232.1C63.4729 232.56 63.577 232.971 63.7851 233.336C64.0018 233.691 64.3009 233.969 64.6824 234.168C65.0639 234.367 65.5017 234.467 65.9959 234.467C66.4034 234.467 66.7719 234.398 67.1013 234.259C67.4395 234.12 67.7342 233.912 67.9857 233.635L68.6749 234.441C68.3628 234.805 67.9727 235.083 67.5045 235.273C67.045 235.464 66.5291 235.559 65.9569 235.559ZM73.2176 235.559C72.524 235.559 71.9865 235.373 71.605 235C71.2235 234.627 71.0328 234.094 71.0328 233.401V227.08H72.2813V233.349C72.2813 233.721 72.3723 234.008 72.5544 234.207C72.7451 234.406 73.0139 234.506 73.3607 234.506C73.7508 234.506 74.076 234.398 74.336 234.181L74.7262 235.078C74.5355 235.243 74.3057 235.364 74.0369 235.442C73.7768 235.52 73.5037 235.559 73.2176 235.559ZM69.8623 229.616V228.589H74.258V229.616H69.8623ZM78.2123 235.559C77.6401 235.559 77.0939 235.481 76.5737 235.325C76.0622 235.169 75.659 234.979 75.3643 234.753L75.8845 233.765C76.1792 233.964 76.5434 234.133 76.9769 234.272C77.4104 234.411 77.8525 234.48 78.3034 234.48C78.8843 234.48 79.3004 234.398 79.5519 234.233C79.812 234.068 79.942 233.838 79.942 233.544C79.942 233.327 79.864 233.158 79.7079 233.037C79.5519 232.915 79.3438 232.824 79.0837 232.763C78.8322 232.703 78.5505 232.651 78.2384 232.607C77.9262 232.555 77.6141 232.495 77.302 232.425C76.9899 232.347 76.7038 232.243 76.4437 232.113C76.1836 231.974 75.9755 231.788 75.8194 231.554C75.6634 231.311 75.5853 230.99 75.5853 230.592C75.5853 230.175 75.7024 229.811 75.9365 229.499C76.1706 229.187 76.5 228.949 76.9249 228.784C77.3583 228.61 77.8699 228.524 78.4594 228.524C78.9103 228.524 79.3654 228.58 79.825 228.693C80.2931 228.797 80.6746 228.949 80.9694 229.148L80.4362 230.136C80.1241 229.928 79.7989 229.785 79.4608 229.707C79.1227 229.629 78.7846 229.59 78.4464 229.59C77.9002 229.59 77.4927 229.681 77.224 229.863C76.9552 230.037 76.8208 230.262 76.8208 230.54C76.8208 230.774 76.8988 230.956 77.0549 231.086C77.2196 231.207 77.4277 231.303 77.6791 231.372C77.9392 231.441 78.2253 231.502 78.5375 231.554C78.8496 231.597 79.1617 231.658 79.4738 231.736C79.7859 231.805 80.0677 231.905 80.3191 232.035C80.5792 232.165 80.7873 232.347 80.9434 232.581C81.1081 232.815 81.1905 233.128 81.1905 233.518C81.1905 233.934 81.0691 234.294 80.8263 234.597C80.5836 234.901 80.2411 235.139 79.7989 235.312C79.3568 235.477 78.8279 235.559 78.2123 235.559ZM82.2566 237.406L82.9068 234.779L83.0759 235.533C82.8245 235.533 82.6121 235.455 82.4387 235.299C82.2739 235.143 82.1916 234.931 82.1916 234.662C82.1916 234.402 82.2739 234.19 82.4387 234.025C82.6121 233.86 82.8201 233.778 83.0629 233.778C83.3143 233.778 83.5181 233.864 83.6741 234.038C83.8302 234.203 83.9082 234.411 83.9082 234.662C83.9082 234.749 83.8995 234.836 83.8822 234.922C83.8735 235 83.8519 235.096 83.8172 235.208C83.7912 235.312 83.7478 235.442 83.6871 235.598L83.0759 237.406H82.2566ZM93.4835 235.481V233.973L93.4445 233.726V231.203C93.4445 230.622 93.2798 230.175 92.9503 229.863C92.6295 229.551 92.1484 229.395 91.5068 229.395C91.0646 229.395 90.6441 229.469 90.2453 229.616C89.8465 229.764 89.5083 229.959 89.2309 230.201L88.8147 229.512C89.1615 229.217 89.5777 228.992 90.0632 228.836C90.5487 228.671 91.0603 228.589 91.5978 228.589C92.4821 228.589 93.1627 228.81 93.6396 229.252C94.1251 229.686 94.3679 230.349 94.3679 231.242V235.481H93.4835ZM91.1296 235.546C90.6181 235.546 90.1716 235.464 89.7901 235.299C89.4173 235.126 89.1312 234.892 88.9318 234.597C88.7324 234.294 88.6327 233.947 88.6327 233.557C88.6327 233.201 88.715 232.88 88.8798 232.594C89.0532 232.3 89.3306 232.065 89.7121 231.892C90.1022 231.71 90.6224 231.619 91.2727 231.619H93.6266V232.308H91.2987C90.6398 232.308 90.1803 232.425 89.9202 232.659C89.6687 232.893 89.543 233.184 89.543 233.531C89.543 233.921 89.6947 234.233 89.9982 234.467C90.3016 234.701 90.7265 234.818 91.2727 234.818C91.7929 234.818 92.2394 234.701 92.6122 234.467C92.9937 234.224 93.2711 233.877 93.4445 233.427L93.6526 234.064C93.4792 234.515 93.1757 234.875 92.7422 235.143C92.3174 235.412 91.7799 235.546 91.1296 235.546ZM100.361 228.589C100.916 228.589 101.402 228.697 101.818 228.914C102.243 229.122 102.572 229.443 102.806 229.876C103.049 230.31 103.17 230.856 103.17 231.515V235.481H102.247V231.606C102.247 230.886 102.065 230.344 101.701 229.98C101.345 229.608 100.842 229.421 100.192 229.421C99.7065 229.421 99.2817 229.521 98.9176 229.72C98.5621 229.911 98.2847 230.193 98.0852 230.566C97.8945 230.93 97.7991 231.372 97.7991 231.892V235.481H96.8758V228.654H97.7601V230.527L97.6171 230.175C97.8338 229.681 98.1806 229.295 98.6575 229.018C99.1343 228.732 99.7022 228.589 100.361 228.589ZM108.382 235.546C107.732 235.546 107.147 235.399 106.627 235.104C106.115 234.81 105.712 234.402 105.417 233.882C105.122 233.353 104.975 232.746 104.975 232.061C104.975 231.368 105.122 230.761 105.417 230.24C105.712 229.72 106.115 229.317 106.627 229.031C107.147 228.736 107.732 228.589 108.382 228.589C108.981 228.589 109.514 228.723 109.982 228.992C110.459 229.261 110.836 229.655 111.113 230.175C111.399 230.687 111.543 231.316 111.543 232.061C111.543 232.798 111.404 233.427 111.126 233.947C110.849 234.467 110.472 234.866 109.995 235.143C109.527 235.412 108.989 235.546 108.382 235.546ZM108.447 234.727C108.933 234.727 109.366 234.619 109.748 234.402C110.138 234.177 110.441 233.864 110.658 233.466C110.884 233.058 110.996 232.59 110.996 232.061C110.996 231.524 110.884 231.055 110.658 230.657C110.441 230.258 110.138 229.95 109.748 229.733C109.366 229.508 108.933 229.395 108.447 229.395C107.971 229.395 107.541 229.508 107.16 229.733C106.778 229.95 106.475 230.258 106.25 230.657C106.024 231.055 105.911 231.524 105.911 232.061C105.911 232.59 106.024 233.058 106.25 233.466C106.475 233.864 106.778 234.177 107.16 234.402C107.541 234.619 107.971 234.727 108.447 234.727ZM111.022 235.481V233.427L111.113 232.048L110.983 230.67V225.832H111.907V235.481H111.022ZM117.867 235.481V228.589H119.115V235.481H117.867ZM118.491 227.262C118.248 227.262 118.044 227.184 117.88 227.028C117.724 226.872 117.646 226.681 117.646 226.456C117.646 226.222 117.724 226.027 117.88 225.871C118.044 225.715 118.248 225.637 118.491 225.637C118.734 225.637 118.933 225.715 119.089 225.871C119.254 226.018 119.336 226.205 119.336 226.43C119.336 226.664 119.258 226.863 119.102 227.028C118.946 227.184 118.742 227.262 118.491 227.262ZM125.179 228.524C125.743 228.524 126.237 228.632 126.662 228.849C127.095 229.066 127.434 229.395 127.676 229.837C127.919 230.279 128.04 230.839 128.04 231.515V235.481H126.792V231.658C126.792 230.99 126.627 230.488 126.298 230.149C125.977 229.811 125.522 229.642 124.932 229.642C124.49 229.642 124.104 229.729 123.775 229.902C123.445 230.076 123.19 230.331 123.008 230.67C122.834 231.008 122.747 231.428 122.747 231.931V235.481L121.499 235.481V228.589L122.695 228.589V230.449L122.5 229.954C122.726 229.503 123.073 229.152 123.541 228.901C124.009 228.65 124.555 228.524 125.179 228.524ZM133.199 235.559C132.531 235.559 131.933 235.412 131.404 235.117C130.884 234.823 130.472 234.411 130.169 233.882C129.865 233.353 129.714 232.737 129.714 232.035C129.714 231.333 129.865 230.722 130.169 230.201C130.472 229.673 130.884 229.261 131.404 228.966C131.933 228.671 132.531 228.524 133.199 228.524C133.78 228.524 134.304 228.654 134.773 228.914C135.241 229.174 135.614 229.564 135.891 230.084C136.177 230.605 136.32 231.255 136.32 232.035C136.32 232.815 136.182 233.466 135.904 233.986C135.635 234.506 135.267 234.901 134.799 235.169C134.33 235.429 133.797 235.559 133.199 235.559ZM133.303 234.467C133.737 234.467 134.127 234.367 134.474 234.168C134.829 233.969 135.106 233.687 135.306 233.323C135.514 232.95 135.618 232.521 135.618 232.035C135.618 231.541 135.514 231.116 135.306 230.761C135.106 230.397 134.829 230.115 134.474 229.915C134.127 229.716 133.737 229.616 133.303 229.616C132.861 229.616 132.466 229.716 132.12 229.915C131.773 230.115 131.495 230.397 131.287 230.761C131.079 231.116 130.975 231.541 130.975 232.035C130.975 232.521 131.079 232.95 131.287 233.323C131.495 233.687 131.773 233.969 132.12 234.168C132.466 234.367 132.861 234.467 133.303 234.467ZM135.657 235.481V233.622L135.735 232.022L135.605 230.423V225.832H136.853V235.481H135.657ZM139.216 235.481V228.589H140.464V235.481H139.216ZM139.84 227.262C139.597 227.262 139.393 227.184 139.229 227.028C139.073 226.872 138.995 226.681 138.995 226.456C138.995 226.222 139.073 226.027 139.229 225.871C139.393 225.715 139.597 225.637 139.84 225.637C140.083 225.637 140.282 225.715 140.438 225.871C140.603 226.018 140.685 226.205 140.685 226.43C140.685 226.664 140.607 226.863 140.451 227.028C140.295 227.184 140.091 227.262 139.84 227.262ZM144.656 235.481L141.638 228.589H142.939L145.618 234.831H144.994L147.725 228.589H148.947L145.93 235.481H144.656ZM150.112 235.481V228.589H151.361V235.481H150.112ZM150.737 227.262C150.494 227.262 150.29 227.184 150.125 227.028C149.969 226.872 149.891 226.681 149.891 226.456C149.891 226.222 149.969 226.027 150.125 225.871C150.29 225.715 150.494 225.637 150.737 225.637C150.979 225.637 151.179 225.715 151.335 225.871C151.5 226.018 151.582 226.205 151.582 226.43C151.582 226.664 151.504 226.863 151.348 227.028C151.192 227.184 150.988 227.262 150.737 227.262ZM156.593 235.559C155.925 235.559 155.327 235.412 154.798 235.117C154.278 234.823 153.866 234.411 153.563 233.882C153.259 233.353 153.107 232.737 153.107 232.035C153.107 231.333 153.259 230.722 153.563 230.201C153.866 229.673 154.278 229.261 154.798 228.966C155.327 228.671 155.925 228.524 156.593 228.524C157.174 228.524 157.698 228.654 158.166 228.914C158.635 229.174 159.007 229.564 159.285 230.084C159.571 230.605 159.714 231.255 159.714 232.035C159.714 232.815 159.575 233.466 159.298 233.986C159.029 234.506 158.661 234.901 158.192 235.169C157.724 235.429 157.191 235.559 156.593 235.559ZM156.697 234.467C157.13 234.467 157.52 234.367 157.867 234.168C158.223 233.969 158.5 233.687 158.7 233.323C158.908 232.95 159.012 232.521 159.012 232.035C159.012 231.541 158.908 231.116 158.7 230.761C158.5 230.397 158.223 230.115 157.867 229.915C157.52 229.716 157.13 229.616 156.697 229.616C156.255 229.616 155.86 229.716 155.513 229.915C155.167 230.115 154.889 230.397 154.681 230.761C154.473 231.116 154.369 231.541 154.369 232.035C154.369 232.521 154.473 232.95 154.681 233.323C154.889 233.687 155.167 233.969 155.513 234.168C155.86 234.367 156.255 234.467 156.697 234.467ZM159.051 235.481V233.622L159.129 232.022L158.999 230.423V225.832H160.247V235.481H159.051ZM165.509 235.559C164.92 235.559 164.4 235.451 163.949 235.234C163.507 235.018 163.16 234.688 162.908 234.246C162.666 233.795 162.544 233.232 162.544 232.555V228.589H163.793V232.412C163.793 233.089 163.953 233.596 164.274 233.934C164.603 234.272 165.063 234.441 165.653 234.441C166.086 234.441 166.463 234.354 166.784 234.181C167.105 233.999 167.352 233.739 167.525 233.401C167.699 233.054 167.785 232.638 167.785 232.152V228.589H169.034V235.481H167.85V233.622L168.045 234.116C167.82 234.575 167.482 234.931 167.031 235.182C166.58 235.434 166.073 235.559 165.509 235.559ZM175.689 235.481V234.025L175.624 233.752V231.268C175.624 230.739 175.468 230.331 175.156 230.045C174.853 229.751 174.393 229.603 173.777 229.603C173.37 229.603 172.971 229.673 172.581 229.811C172.191 229.941 171.861 230.119 171.593 230.344L171.072 229.408C171.428 229.122 171.853 228.905 172.347 228.758C172.85 228.602 173.374 228.524 173.921 228.524C174.866 228.524 175.594 228.754 176.105 229.213C176.617 229.673 176.873 230.375 176.873 231.32V235.481H175.689ZM173.426 235.559C172.915 235.559 172.464 235.473 172.074 235.299C171.692 235.126 171.398 234.888 171.19 234.584C170.981 234.272 170.877 233.921 170.877 233.531C170.877 233.158 170.964 232.82 171.137 232.516C171.32 232.213 171.61 231.97 172.009 231.788C172.416 231.606 172.963 231.515 173.647 231.515H175.832V232.412H173.699C173.075 232.412 172.655 232.516 172.438 232.724C172.221 232.932 172.113 233.184 172.113 233.479C172.113 233.817 172.247 234.09 172.516 234.298C172.785 234.497 173.158 234.597 173.634 234.597C174.103 234.597 174.51 234.493 174.857 234.285C175.212 234.077 175.468 233.773 175.624 233.375L175.871 234.233C175.707 234.64 175.416 234.966 175 235.208C174.584 235.442 174.059 235.559 173.426 235.559ZM179.183 235.481V225.832H180.432V235.481H179.183ZM22.738 255.559C22.1658 255.559 21.6196 255.481 21.0994 255.325C20.5879 255.169 20.1847 254.979 19.8899 254.753L20.4101 253.765C20.7049 253.964 21.0691 254.133 21.5026 254.272C21.9361 254.411 22.3782 254.48 22.8291 254.48C23.41 254.48 23.8261 254.398 24.0775 254.233C24.3376 254.068 24.4677 253.838 24.4677 253.544C24.4677 253.327 24.3897 253.158 24.2336 253.037C24.0775 252.915 23.8695 252.824 23.6094 252.763C23.3579 252.703 23.0762 252.651 22.764 252.607C22.4519 252.555 22.1398 252.495 21.8277 252.425C21.5156 252.347 21.2295 252.243 20.9694 252.113C20.7093 251.974 20.5012 251.788 20.3451 251.554C20.1891 251.311 20.111 250.99 20.111 250.592C20.111 250.175 20.2281 249.811 20.4622 249.499C20.6963 249.187 21.0257 248.949 21.4505 248.784C21.884 248.61 22.3956 248.524 22.9851 248.524C23.436 248.524 23.8911 248.58 24.3506 248.693C24.8188 248.797 25.2003 248.949 25.4951 249.148L24.9619 250.136C24.6498 249.928 24.3246 249.785 23.9865 249.707C23.6484 249.629 23.3103 249.59 22.9721 249.59C22.4259 249.59 22.0184 249.681 21.7497 249.863C21.4809 250.037 21.3465 250.262 21.3465 250.54C21.3465 250.774 21.4245 250.956 21.5806 251.086C21.7453 251.207 21.9534 251.303 22.2048 251.372C22.4649 251.441 22.751 251.502 23.0632 251.554C23.3753 251.597 23.6874 251.658 23.9995 251.736C24.3116 251.805 24.5934 251.905 24.8448 252.035C25.1049 252.165 25.313 252.347 25.4691 252.581C25.6338 252.815 25.7162 253.128 25.7162 253.518C25.7162 253.934 25.5948 254.294 25.352 254.597C25.1093 254.901 24.7668 255.139 24.3246 255.312C23.8825 255.477 23.3536 255.559 22.738 255.559ZM30.3456 255.559C29.6087 255.559 28.9584 255.408 28.3949 255.104C27.84 254.801 27.4065 254.385 27.0944 253.856C26.7909 253.327 26.6392 252.72 26.6392 252.035C26.6392 251.35 26.7866 250.743 27.0814 250.214C27.3848 249.686 27.7967 249.274 28.3169 248.979C28.8457 248.676 29.4396 248.524 30.0985 248.524C30.7661 248.524 31.3557 248.671 31.8672 248.966C32.3787 249.261 32.7776 249.677 33.0637 250.214C33.3585 250.743 33.5058 251.363 33.5058 252.074C33.5058 252.126 33.5015 252.187 33.4928 252.256C33.4928 252.326 33.4885 252.391 33.4798 252.451H27.6146V251.554H32.8296L32.3224 251.866C32.3311 251.424 32.24 251.029 32.0493 250.683C31.8585 250.336 31.5941 250.067 31.256 249.876C30.9265 249.677 30.5407 249.577 30.0985 249.577C29.665 249.577 29.2792 249.677 28.9411 249.876C28.603 250.067 28.3385 250.34 28.1478 250.696C27.9571 251.042 27.8617 251.441 27.8617 251.892V252.1C27.8617 252.56 27.9657 252.971 28.1738 253.336C28.3906 253.691 28.6897 253.969 29.0711 254.168C29.4526 254.367 29.8905 254.467 30.3846 254.467C30.7921 254.467 31.1606 254.398 31.4901 254.259C31.8282 254.12 32.123 253.912 32.3744 253.635L33.0637 254.441C32.7516 254.805 32.3614 255.083 31.8932 255.273C31.4337 255.464 30.9179 255.559 30.3456 255.559ZM35.2395 255.481V248.589H36.4359V250.462L36.3189 249.993C36.5096 249.517 36.8304 249.152 37.2812 248.901C37.7321 248.65 38.287 248.524 38.9459 248.524V249.733C38.8939 249.725 38.8418 249.72 38.7898 249.72C38.7465 249.72 38.7031 249.72 38.6598 249.72C37.9922 249.72 37.4633 249.92 37.0732 250.318C36.683 250.717 36.4879 251.294 36.4879 252.048V255.481H35.2395ZM42.5717 255.481L39.5546 248.589H40.8551L43.5341 254.831H42.9099L45.6409 248.589H46.8634L43.8462 255.481H42.5717ZM48.0285 255.481V248.589H49.277V255.481H48.0285ZM48.6528 247.262C48.41 247.262 48.2063 247.184 48.0415 247.028C47.8855 246.872 47.8074 246.681 47.8074 246.456C47.8074 246.222 47.8855 246.027 48.0415 245.871C48.2063 245.715 48.41 245.637 48.6528 245.637C48.8955 245.637 49.0949 245.715 49.251 245.871C49.4157 246.018 49.4981 246.205 49.4981 246.43C49.4981 246.664 49.4201 246.863 49.264 247.028C49.1079 247.184 48.9042 247.262 48.6528 247.262ZM55.3412 248.524C55.9047 248.524 56.3989 248.632 56.8237 248.849C57.2572 249.066 57.5954 249.395 57.8381 249.837C58.0809 250.279 58.2023 250.839 58.2023 251.515V255.481H56.9538V251.658C56.9538 250.99 56.7891 250.488 56.4596 250.149C56.1388 249.811 55.6836 249.642 55.0941 249.642C54.6519 249.642 54.2661 249.729 53.9366 249.902C53.6072 250.076 53.3514 250.331 53.1693 250.67C52.9959 251.008 52.9092 251.428 52.9092 251.931V255.481H51.6608V248.589H52.8572V250.449L52.6622 249.954C52.8876 249.503 53.2344 249.152 53.7025 248.901C54.1707 248.65 54.7169 248.524 55.3412 248.524ZM63.5299 258.082C62.897 258.082 62.2815 257.991 61.6832 257.809C61.0937 257.636 60.6125 257.385 60.2397 257.055L60.8379 256.093C61.1587 256.37 61.5532 256.587 62.0214 256.743C62.4895 256.908 62.9794 256.99 63.4909 256.99C64.3059 256.99 64.9041 256.799 65.2856 256.418C65.6671 256.036 65.8578 255.455 65.8578 254.675V253.219L65.9879 251.853L65.9228 250.475V248.589H67.1063V254.545C67.1063 255.759 66.8029 256.652 66.196 257.224C65.5891 257.796 64.7004 258.082 63.5299 258.082ZM63.3739 255.195C62.7063 255.195 62.1081 255.057 61.5792 254.779C61.059 254.493 60.6428 254.099 60.3307 253.596C60.0273 253.093 59.8755 252.512 59.8755 251.853C59.8755 251.185 60.0273 250.605 60.3307 250.11C60.6428 249.608 61.059 249.217 61.5792 248.94C62.1081 248.663 62.7063 248.524 63.3739 248.524C63.9634 248.524 64.501 248.645 64.9865 248.888C65.472 249.122 65.8578 249.486 66.1439 249.98C66.4387 250.475 66.5861 251.099 66.5861 251.853C66.5861 252.599 66.4387 253.219 66.1439 253.713C65.8578 254.207 65.472 254.58 64.9865 254.831C64.501 255.074 63.9634 255.195 63.3739 255.195ZM63.5169 254.103C63.9764 254.103 64.3839 254.008 64.7394 253.817C65.0949 253.626 65.3723 253.362 65.5717 253.024C65.7798 252.685 65.8838 252.295 65.8838 251.853C65.8838 251.411 65.7798 251.021 65.5717 250.683C65.3723 250.344 65.0949 250.084 64.7394 249.902C64.3839 249.712 63.9764 249.616 63.5169 249.616C63.0574 249.616 62.6456 249.712 62.2815 249.902C61.926 250.084 61.6442 250.344 61.4361 250.683C61.2367 251.021 61.137 251.411 61.137 251.853C61.137 252.295 61.2367 252.685 61.4361 253.024C61.6442 253.362 61.926 253.626 62.2815 253.817C62.6456 254.008 63.0574 254.103 63.5169 254.103ZM71.4686 255.559C70.8963 255.559 70.3501 255.481 69.8299 255.325C69.3184 255.169 68.9152 254.979 68.6205 254.753L69.1407 253.765C69.4354 253.964 69.7996 254.133 70.2331 254.272C70.6666 254.411 71.1087 254.48 71.5596 254.48C72.1405 254.48 72.5566 254.398 72.8081 254.233C73.0682 254.068 73.1982 253.838 73.1982 253.544C73.1982 253.327 73.1202 253.158 72.9641 253.037C72.8081 252.915 72.6 252.824 72.3399 252.763C72.0885 252.703 71.8067 252.651 71.4946 252.607C71.1824 252.555 70.8703 252.495 70.5582 252.425C70.2461 252.347 69.96 252.243 69.6999 252.113C69.4398 251.974 69.2317 251.788 69.0756 251.554C68.9196 251.311 68.8415 250.99 68.8415 250.592C68.8415 250.175 68.9586 249.811 69.1927 249.499C69.4268 249.187 69.7562 248.949 70.1811 248.784C70.6146 248.61 71.1261 248.524 71.7156 248.524C72.1665 248.524 72.6217 248.58 73.0812 248.693C73.5493 248.797 73.9308 248.949 74.2256 249.148L73.6924 250.136C73.3803 249.928 73.0552 249.785 72.717 249.707C72.3789 249.629 72.0408 249.59 71.7026 249.59C71.1564 249.59 70.7489 249.681 70.4802 249.863C70.2114 250.037 70.077 250.262 70.077 250.54C70.077 250.774 70.1551 250.956 70.3111 251.086C70.4758 251.207 70.6839 251.303 70.9353 251.372C71.1954 251.441 71.4816 251.502 71.7937 251.554C72.1058 251.597 72.4179 251.658 72.73 251.736C73.0422 251.805 73.3239 251.905 73.5754 252.035C73.8355 252.165 74.0435 252.347 74.1996 252.581C74.3643 252.815 74.4467 253.128 74.4467 253.518C74.4467 253.934 74.3253 254.294 74.0826 254.597C73.8398 254.901 73.4973 255.139 73.0552 255.312C72.613 255.477 72.0841 255.559 71.4686 255.559ZM80.9561 255.481L78.3941 248.589H79.5776L81.8534 254.831H81.2942L83.6611 248.589H84.7145L87.0294 254.831H86.4832L88.8111 248.589H89.9295L87.3545 255.481H86.1581L83.9862 249.785H84.3504L82.1525 255.481H80.9561ZM91.1964 255.481V248.589H92.4448V255.481H91.1964ZM91.8206 247.262C91.5778 247.262 91.3741 247.184 91.2094 247.028C91.0533 246.872 90.9753 246.681 90.9753 246.456C90.9753 246.222 91.0533 246.027 91.2094 245.871C91.3741 245.715 91.5778 245.637 91.8206 245.637C92.0634 245.637 92.2628 245.715 92.4188 245.871C92.5836 246.018 92.6659 246.205 92.6659 246.43C92.6659 246.664 92.5879 246.863 92.4318 247.028C92.2758 247.184 92.072 247.262 91.8206 247.262ZM97.1955 255.559C96.5019 255.559 95.9644 255.373 95.5829 255C95.2014 254.627 95.0107 254.094 95.0107 253.401V247.08H96.2592V253.349C96.2592 253.721 96.3502 254.008 96.5323 254.207C96.723 254.406 96.9918 254.506 97.3386 254.506C97.7287 254.506 98.0538 254.398 98.3139 254.181L98.7041 255.078C98.5134 255.243 98.2836 255.364 98.0148 255.442C97.7547 255.52 97.4816 255.559 97.1955 255.559ZM93.8402 249.616V248.589H98.2359V249.616H93.8402ZM103.894 248.524C104.457 248.524 104.952 248.632 105.376 248.849C105.81 249.066 106.148 249.395 106.391 249.837C106.634 250.279 106.755 250.839 106.755 251.515V255.481H105.507V251.658C105.507 250.99 105.342 250.488 105.012 250.149C104.692 249.811 104.236 249.642 103.647 249.642C103.205 249.642 102.819 249.729 102.489 249.902C102.16 250.076 101.904 250.331 101.722 250.67C101.549 251.008 101.462 251.428 101.462 251.931V255.481H100.213V245.832H101.462V250.449L101.215 249.954C101.44 249.503 101.787 249.152 102.255 248.901C102.723 248.65 103.27 248.524 103.894 248.524ZM114.535 255.559C113.963 255.559 113.416 255.481 112.896 255.325C112.385 255.169 111.981 254.979 111.687 254.753L112.207 253.765C112.502 253.964 112.866 254.133 113.299 254.272C113.733 254.411 114.175 254.48 114.626 254.48C115.207 254.48 115.623 254.398 115.874 254.233C116.134 254.068 116.264 253.838 116.264 253.544C116.264 253.327 116.186 253.158 116.03 253.037C115.874 252.915 115.666 252.824 115.406 252.763C115.155 252.703 114.873 252.651 114.561 252.607C114.249 252.555 113.937 252.495 113.624 252.425C113.312 252.347 113.026 252.243 112.766 252.113C112.506 251.974 112.298 251.788 112.142 251.554C111.986 251.311 111.908 250.99 111.908 250.592C111.908 250.175 112.025 249.811 112.259 249.499C112.493 249.187 112.822 248.949 113.247 248.784C113.681 248.61 114.192 248.524 114.782 248.524C115.233 248.524 115.688 248.58 116.147 248.693C116.616 248.797 116.997 248.949 117.292 249.148L116.759 250.136C116.447 249.928 116.121 249.785 115.783 249.707C115.445 249.629 115.107 249.59 114.769 249.59C114.223 249.59 113.815 249.681 113.546 249.863C113.278 250.037 113.143 250.262 113.143 250.54C113.143 250.774 113.221 250.956 113.377 251.086C113.542 251.207 113.75 251.303 114.002 251.372C114.262 251.441 114.548 251.502 114.86 251.554C115.172 251.597 115.484 251.658 115.796 251.736C116.108 251.805 116.39 251.905 116.642 252.035C116.902 252.165 117.11 252.347 117.266 252.581C117.431 252.815 117.513 253.128 117.513 253.518C117.513 253.934 117.392 254.294 117.149 254.597C116.906 254.901 116.564 255.139 116.121 255.312C115.679 255.477 115.15 255.559 114.535 255.559ZM119.073 255.481V245.832H120.322V255.481H119.073ZM122.705 255.481V248.589H123.954V255.481H122.705ZM123.33 247.262C123.087 247.262 122.883 247.184 122.718 247.028C122.562 246.872 122.484 246.681 122.484 246.456C122.484 246.222 122.562 246.027 122.718 245.871C122.883 245.715 123.087 245.637 123.33 245.637C123.572 245.637 123.772 245.715 123.928 245.871C124.093 246.018 124.175 246.205 124.175 246.43C124.175 246.664 124.097 246.863 123.941 247.028C123.785 247.184 123.581 247.262 123.33 247.262ZM129.355 258.082C128.722 258.082 128.106 257.991 127.508 257.809C126.919 257.636 126.437 257.385 126.065 257.055L126.663 256.093C126.984 256.37 127.378 256.587 127.846 256.743C128.314 256.908 128.804 256.99 129.316 256.99C130.131 256.99 130.729 256.799 131.111 256.418C131.492 256.036 131.683 255.455 131.683 254.675V253.219L131.813 251.853L131.748 250.475V248.589H132.931V254.545C132.931 255.759 132.628 256.652 132.021 257.224C131.414 257.796 130.525 258.082 129.355 258.082ZM129.199 255.195C128.531 255.195 127.933 255.057 127.404 254.779C126.884 254.493 126.468 254.099 126.156 253.596C125.852 253.093 125.7 252.512 125.7 251.853C125.7 251.185 125.852 250.605 126.156 250.11C126.468 249.608 126.884 249.217 127.404 248.94C127.933 248.663 128.531 248.524 129.199 248.524C129.788 248.524 130.326 248.645 130.811 248.888C131.297 249.122 131.683 249.486 131.969 249.98C132.264 250.475 132.411 251.099 132.411 251.853C132.411 252.599 132.264 253.219 131.969 253.713C131.683 254.207 131.297 254.58 130.811 254.831C130.326 255.074 129.788 255.195 129.199 255.195ZM129.342 254.103C129.801 254.103 130.209 254.008 130.564 253.817C130.92 253.626 131.197 253.362 131.397 253.024C131.605 252.685 131.709 252.295 131.709 251.853C131.709 251.411 131.605 251.021 131.397 250.683C131.197 250.344 130.92 250.084 130.564 249.902C130.209 249.712 129.801 249.616 129.342 249.616C128.882 249.616 128.471 249.712 128.106 249.902C127.751 250.084 127.469 250.344 127.261 250.683C127.062 251.021 126.962 251.411 126.962 251.853C126.962 252.295 127.062 252.685 127.261 253.024C127.469 253.362 127.751 253.626 128.106 253.817C128.471 254.008 128.882 254.103 129.342 254.103ZM138.997 248.524C139.561 248.524 140.055 248.632 140.48 248.849C140.913 249.066 141.251 249.395 141.494 249.837C141.737 250.279 141.858 250.839 141.858 251.515V255.481H140.61V251.658C140.61 250.99 140.445 250.488 140.116 250.149C139.795 249.811 139.34 249.642 138.75 249.642C138.308 249.642 137.922 249.729 137.593 249.902C137.263 250.076 137.007 250.331 136.825 250.67C136.652 251.008 136.565 251.428 136.565 251.931V255.481H135.317V245.832H136.565V250.449L136.318 249.954C136.544 249.503 136.89 249.152 137.359 248.901C137.827 248.65 138.373 248.524 138.997 248.524ZM146.536 255.559C145.842 255.559 145.305 255.373 144.923 255C144.542 254.627 144.351 254.094 144.351 253.401V247.08H145.599V253.349C145.599 253.721 145.69 254.008 145.872 254.207C146.063 254.406 146.332 254.506 146.679 254.506C147.069 254.506 147.394 254.398 147.654 254.181L148.044 255.078C147.853 255.243 147.624 255.364 147.355 255.442C147.095 255.52 146.822 255.559 146.536 255.559ZM143.18 249.616V248.589L147.576 248.589V249.616L143.18 249.616ZM149.554 255.481V245.832H150.802V255.481H149.554ZM153.485 258.082C153.156 258.082 152.835 258.026 152.523 257.913C152.21 257.809 151.942 257.653 151.716 257.445L152.25 256.509C152.423 256.674 152.614 256.799 152.822 256.886C153.03 256.973 153.251 257.016 153.485 257.016C153.788 257.016 154.04 256.938 154.239 256.782C154.439 256.626 154.625 256.348 154.798 255.95L155.228 255L155.358 254.844L158.063 248.589H159.285L155.943 256.171C155.744 256.656 155.518 257.038 155.267 257.315C155.024 257.593 154.755 257.788 154.46 257.9C154.166 258.022 153.84 258.082 153.485 258.082ZM155.124 255.703L151.976 248.589H153.277L155.956 254.727L155.124 255.703ZM172.565 248.524C173.12 248.524 173.61 248.632 174.035 248.849C174.46 249.066 174.789 249.395 175.023 249.837C175.266 250.279 175.387 250.839 175.387 251.515V255.481H174.139V251.658C174.139 250.99 173.983 250.488 173.671 250.149C173.358 249.811 172.921 249.642 172.357 249.642C171.941 249.642 171.577 249.729 171.265 249.902C170.953 250.076 170.71 250.331 170.536 250.67C170.372 251.008 170.289 251.428 170.289 251.931V255.481H169.041V251.658C169.041 250.99 168.885 250.488 168.573 250.149C168.269 249.811 167.831 249.642 167.259 249.642C166.852 249.642 166.492 249.729 166.18 249.902C165.868 250.076 165.625 250.331 165.451 250.67C165.278 251.008 165.191 251.428 165.191 251.931V255.481H163.943V248.589H165.139V250.423L164.944 249.954C165.161 249.503 165.495 249.152 165.946 248.901C166.396 248.65 166.921 248.524 167.519 248.524C168.178 248.524 168.746 248.689 169.223 249.018C169.7 249.339 170.012 249.829 170.159 250.488L169.652 250.279C169.86 249.751 170.224 249.326 170.744 249.005C171.265 248.684 171.872 248.524 172.565 248.524ZM180.637 255.559C179.943 255.559 179.327 255.408 178.79 255.104C178.252 254.801 177.828 254.385 177.515 253.856C177.203 253.318 177.047 252.711 177.047 252.035C177.047 251.35 177.203 250.743 177.515 250.214C177.828 249.686 178.252 249.274 178.79 248.979C179.327 248.676 179.943 248.524 180.637 248.524C181.322 248.524 181.933 248.676 182.47 248.979C183.016 249.274 183.441 249.686 183.745 250.214C184.057 250.735 184.213 251.342 184.213 252.035C184.213 252.72 184.057 253.327 183.745 253.856C183.441 254.385 183.016 254.801 182.47 255.104C181.933 255.408 181.322 255.559 180.637 255.559ZM180.637 254.467C181.079 254.467 181.473 254.367 181.82 254.168C182.176 253.969 182.453 253.687 182.652 253.323C182.852 252.95 182.951 252.521 182.951 252.035C182.951 251.541 182.852 251.116 182.652 250.761C182.453 250.397 182.176 250.115 181.82 249.915C181.473 249.716 181.079 249.616 180.637 249.616C180.194 249.616 179.8 249.716 179.453 249.915C179.106 250.115 178.829 250.397 178.621 250.761C178.413 251.116 178.309 251.541 178.309 252.035C178.309 252.521 178.413 252.95 178.621 253.323C178.829 253.687 179.106 253.969 179.453 254.168C179.8 254.367 180.194 254.467 180.637 254.467ZM185.94 255.481V248.589H187.136V250.462L187.019 249.993C187.21 249.517 187.531 249.152 187.981 248.901C188.432 248.65 188.987 248.524 189.646 248.524V249.733C189.594 249.725 189.542 249.72 189.49 249.72C189.447 249.72 189.403 249.72 189.36 249.72C188.692 249.72 188.163 249.92 187.773 250.318C187.383 250.717 187.188 251.294 187.188 252.048V255.481H185.94ZM194.19 255.559C193.453 255.559 192.803 255.408 192.24 255.104C191.685 254.801 191.251 254.385 190.939 253.856C190.636 253.327 190.484 252.72 190.484 252.035C190.484 251.35 190.631 250.743 190.926 250.214C191.23 249.686 191.641 249.274 192.162 248.979C192.69 248.676 193.284 248.524 193.943 248.524C194.611 248.524 195.2 248.671 195.712 248.966C196.224 249.261 196.622 249.677 196.908 250.214C197.203 250.743 197.351 251.363 197.351 252.074C197.351 252.126 197.346 252.187 197.338 252.256C197.338 252.326 197.333 252.391 197.325 252.451H191.459V251.554H196.674L196.167 251.866C196.176 251.424 196.085 251.029 195.894 250.683C195.703 250.336 195.439 250.067 195.101 249.876C194.771 249.677 194.385 249.577 193.943 249.577C193.51 249.577 193.124 249.677 192.786 249.876C192.448 250.067 192.183 250.34 191.993 250.696C191.802 251.042 191.706 251.441 191.706 251.892V252.1C191.706 252.56 191.81 252.971 192.019 253.336C192.235 253.691 192.534 253.969 192.916 254.168C193.297 254.367 193.735 254.467 194.229 254.467C194.637 254.467 195.005 254.398 195.335 254.259C195.673 254.12 195.968 253.912 196.219 253.635L196.908 254.441C196.596 254.805 196.206 255.083 195.738 255.273C195.278 255.464 194.763 255.559 194.19 255.559ZM85.5237 274.481L82.5065 267.589H83.807L86.486 273.831H85.8618L88.5928 267.589H89.8153L86.7982 274.481H85.5237ZM93.7421 274.559C93.0485 274.559 92.4329 274.408 91.8954 274.104C91.3579 273.801 90.933 273.385 90.6209 272.856C90.3088 272.318 90.1527 271.711 90.1527 271.035C90.1527 270.35 90.3088 269.743 90.6209 269.214C90.933 268.686 91.3579 268.274 91.8954 267.979C92.4329 267.676 93.0485 267.524 93.7421 267.524C94.427 267.524 95.0383 267.676 95.5758 267.979C96.122 268.274 96.5468 268.686 96.8503 269.214C97.1624 269.735 97.3185 270.342 97.3185 271.035C97.3185 271.72 97.1624 272.327 96.8503 272.856C96.5468 273.385 96.122 273.801 95.5758 274.104C95.0383 274.408 94.427 274.559 93.7421 274.559ZM93.7421 273.467C94.1843 273.467 94.5788 273.367 94.9256 273.168C95.281 272.969 95.5585 272.687 95.7579 272.323C95.9573 271.95 96.057 271.521 96.057 271.035C96.057 270.541 95.9573 270.116 95.7579 269.761C95.5585 269.397 95.281 269.115 94.9256 268.915C94.5788 268.716 94.1843 268.616 93.7421 268.616C93.2999 268.616 92.9054 268.716 92.5586 268.915C92.2118 269.115 91.9344 269.397 91.7263 269.761C91.5183 270.116 91.4142 270.541 91.4142 271.035C91.4142 271.521 91.5183 271.95 91.7263 272.323C91.9344 272.687 92.2118 272.969 92.5586 273.168C92.9054 273.367 93.2999 273.467 93.7421 273.467ZM99.0451 274.481V264.832H100.294V274.481H99.0451ZM105.577 274.559C104.988 274.559 104.468 274.451 104.017 274.234C103.575 274.018 103.228 273.688 102.976 273.246C102.734 272.795 102.612 272.232 102.612 271.555V267.589H103.861V271.412C103.861 272.089 104.021 272.596 104.342 272.934C104.671 273.272 105.131 273.441 105.72 273.441C106.154 273.441 106.531 273.354 106.852 273.181C107.173 272.999 107.42 272.739 107.593 272.401C107.767 272.054 107.853 271.638 107.853 271.152V267.589H109.102V274.481H107.918V272.622L108.113 273.116C107.888 273.575 107.55 273.931 107.099 274.182C106.648 274.434 106.141 274.559 105.577 274.559ZM120.101 267.524C120.656 267.524 121.146 267.632 121.57 267.849C121.995 268.066 122.325 268.395 122.559 268.837C122.802 269.279 122.923 269.839 122.923 270.515V274.481H121.674V270.658C121.674 269.99 121.518 269.488 121.206 269.149C120.894 268.811 120.456 268.642 119.893 268.642C119.477 268.642 119.112 268.729 118.8 268.902C118.488 269.076 118.245 269.331 118.072 269.67C117.907 270.008 117.825 270.428 117.825 270.931V274.481H116.576V270.658C116.576 269.99 116.42 269.488 116.108 269.149C115.805 268.811 115.367 268.642 114.795 268.642C114.387 268.642 114.028 268.729 113.715 268.902C113.403 269.076 113.161 269.331 112.987 269.67C112.814 270.008 112.727 270.428 112.727 270.931V274.481H111.479V267.589H112.675V269.423L112.48 268.954C112.697 268.503 113.03 268.152 113.481 267.901C113.932 267.65 114.457 267.524 115.055 267.524C115.714 267.524 116.282 267.689 116.759 268.018C117.235 268.339 117.548 268.829 117.695 269.488L117.188 269.279C117.396 268.751 117.76 268.326 118.28 268.005C118.8 267.684 119.407 267.524 120.101 267.524ZM128.289 274.559C127.552 274.559 126.902 274.408 126.339 274.104C125.784 273.801 125.35 273.385 125.038 272.856C124.735 272.327 124.583 271.72 124.583 271.035C124.583 270.35 124.73 269.743 125.025 269.214C125.328 268.686 125.74 268.274 126.261 267.979C126.789 267.676 127.383 267.524 128.042 267.524C128.71 267.524 129.299 267.671 129.811 267.966C130.322 268.261 130.721 268.677 131.007 269.214C131.302 269.743 131.449 270.363 131.449 271.074C131.449 271.126 131.445 271.187 131.436 271.256C131.436 271.326 131.432 271.391 131.423 271.451H125.558V270.554H130.773L130.266 270.866C130.275 270.424 130.184 270.029 129.993 269.683C129.802 269.336 129.538 269.067 129.2 268.876C128.87 268.677 128.484 268.577 128.042 268.577C127.609 268.577 127.223 268.677 126.885 268.876C126.547 269.067 126.282 269.34 126.091 269.696C125.901 270.042 125.805 270.441 125.805 270.892V271.1C125.805 271.56 125.909 271.971 126.117 272.336C126.334 272.691 126.633 272.969 127.015 273.168C127.396 273.367 127.834 273.467 128.328 273.467C128.736 273.467 129.104 273.398 129.434 273.259C129.772 273.12 130.067 272.912 130.318 272.635L131.007 273.441C130.695 273.805 130.305 274.083 129.837 274.273C129.377 274.464 128.862 274.559 128.289 274.559ZM133.482 274.559C133.239 274.559 133.031 274.477 132.858 274.312C132.685 274.139 132.598 273.922 132.598 273.662C132.598 273.402 132.685 273.19 132.858 273.025C133.031 272.86 133.239 272.778 133.482 272.778C133.716 272.778 133.916 272.86 134.08 273.025C134.254 273.19 134.341 273.402 134.341 273.662C134.341 273.922 134.254 274.139 134.08 274.312C133.916 274.477 133.716 274.559 133.482 274.559Z" fill="black"/>
<path d="M4.30566 286.735H210.435V286.735C210.435 292.68 205.615 297.5 199.67 297.5H15.0701C9.12507 297.5 4.30566 292.68 4.30566 286.735V286.735Z" fill="url(#paint0_linear_2198_722)"/>
<path d="M4.30566 286.735H104.712C110.657 286.735 115.476 291.555 115.476 297.5V297.5H15.0701C9.12507 297.5 4.30566 292.68 4.30566 286.735V286.735Z" fill="#8B2F2F"/>
<path d="M28.3516 13.6143L187.988 13.6143C200.175 13.6143 210.056 23.4944 210.056 35.6816L210.056 175.386L6.28418 175.386L6.28418 35.6816C6.28426 23.4944 16.1643 13.6143 28.3516 13.6143Z" fill="url(#paint1_linear_2198_722)" stroke="#8B2F2F" stroke-width="3.22934"/>
<rect x="26.5132" width="161.073" height="22.6054" rx="11.3027" fill="#8B2F2F"/>
<path d="M40.1608 15.8027L40.1608 6.76059L42.2534 6.76059L42.2534 15.8027L40.1608 15.8027ZM44.3993 15.8027L44.3993 6.76059L46.1302 6.76059L49.9796 13.1418L49.0625 13.1418L52.8473 6.76059L54.5653 6.76059L54.5911 15.8027L52.6277 15.8027L52.6147 9.77033L52.9764 9.77033L49.9538 14.8468L49.0108 14.8468L45.9236 9.77033L46.3627 9.77033L46.3627 15.8027L44.3993 15.8027ZM56.7364 15.8027L56.7364 6.76059L58.829 6.76059L58.829 14.0976L63.363 14.0976L63.363 15.8027L56.7364 15.8027ZM68.1904 15.8027L68.1904 6.76059L69.9214 6.76059L73.7707 13.1418L72.8536 13.1418L76.6384 6.76059L78.3564 6.76059L78.3822 15.8027L76.4188 15.8027L76.4059 9.77033L76.7676 9.77033L73.7449 14.8468L72.8019 14.8468L69.7147 9.77033L70.1539 9.77033L70.1539 15.8027L68.1904 15.8027ZM84.9194 15.9577C84.2047 15.9577 83.5416 15.8415 82.9301 15.609C82.3273 15.3765 81.802 15.0492 81.3542 14.6273C80.915 14.2053 80.5706 13.7101 80.3208 13.1418C80.0797 12.5734 79.9591 11.9534 79.9591 11.2817C79.9591 10.61 80.0797 9.98993 80.3208 9.42156C80.5706 8.8532 80.9193 8.35804 81.3671 7.93607C81.8149 7.5141 82.3402 7.18686 82.9431 6.95435C83.5459 6.72184 84.2003 6.60558 84.9065 6.60558C85.6213 6.60558 86.2757 6.72184 86.8699 6.95435C87.4727 7.18686 87.9937 7.5141 88.4329 7.93607C88.8807 8.35804 89.2295 8.8532 89.4792 9.42156C89.729 9.98132 89.8538 10.6013 89.8538 11.2817C89.8538 11.9534 89.729 12.5777 89.4792 13.1547C89.2295 13.723 88.8807 14.2182 88.4329 14.6402C87.9937 15.0535 87.4727 15.3765 86.8699 15.609C86.2757 15.8415 85.6256 15.9577 84.9194 15.9577ZM84.9065 14.1751C85.3112 14.1751 85.6815 14.1063 86.0174 13.9685C86.3618 13.8307 86.6633 13.6326 86.9216 13.3743C87.1799 13.1159 87.378 12.8102 87.5158 12.4571C87.6622 12.1041 87.7354 11.7122 87.7354 11.2817C87.7354 10.8511 87.6622 10.4593 87.5158 10.1062C87.378 9.75311 87.1799 9.4474 86.9216 9.18905C86.6719 8.9307 86.3748 8.73264 86.0303 8.59485C85.6858 8.45707 85.3112 8.38818 84.9065 8.38818C84.5017 8.38818 84.1271 8.45707 83.7827 8.59485C83.4468 8.73264 83.1497 8.9307 82.8914 9.18905C82.633 9.4474 82.4307 9.75311 82.2843 10.1062C82.1465 10.4593 82.0776 10.8511 82.0776 11.2817C82.0776 11.7036 82.1465 12.0955 82.2843 12.4571C82.4307 12.8102 82.6287 13.1159 82.8785 13.3743C83.1368 13.6326 83.4382 13.8307 83.7827 13.9685C84.1271 14.1063 84.5018 14.1751 84.9065 14.1751ZM95.8055 15.9577C95.0994 15.9577 94.4406 15.8415 93.8291 15.609C93.2263 15.3765 92.701 15.0492 92.2532 14.6273C91.814 14.2053 91.4696 13.7101 91.2198 13.1418C90.9787 12.5734 90.8582 11.9534 90.8582 11.2817C90.8582 10.61 90.9787 9.98993 91.2198 9.42156C91.4696 8.8532 91.8183 8.35804 92.2661 7.93607C92.714 7.5141 93.2393 7.18686 93.8421 6.95435C94.4449 6.72184 95.0994 6.60558 95.8055 6.60558C96.5203 6.60558 97.1747 6.72184 97.7689 6.95435C98.3717 7.18686 98.8927 7.5141 99.3319 7.93607C99.7797 8.34942 100.129 8.84028 100.378 9.40865C100.628 9.97701 100.753 10.6013 100.753 11.2817C100.753 11.9534 100.628 12.5777 100.378 13.1547C100.129 13.723 99.7797 14.2182 99.3319 14.6402C98.8927 15.0535 98.3717 15.3765 97.7689 15.609C97.1747 15.8415 96.5203 15.9577 95.8055 15.9577ZM98.7636 17.8824C98.4105 17.8824 98.0746 17.8437 97.756 17.7662C97.446 17.6887 97.136 17.5638 96.826 17.3916C96.5246 17.2193 96.2059 16.9868 95.8701 16.694C95.5428 16.4012 95.1855 16.0396 94.7979 15.609L96.9939 15.0535C97.2264 15.3722 97.4417 15.6262 97.6398 15.8156C97.8378 16.0051 98.0273 16.1386 98.2081 16.2161C98.3976 16.2936 98.5956 16.3323 98.8023 16.3323C99.3535 16.3323 99.8443 16.1084 100.275 15.6606L101.205 16.7715C100.594 17.5121 99.7797 17.8824 98.7636 17.8824ZM95.8055 14.1751C96.2102 14.1751 96.5805 14.1063 96.9164 13.9685C97.2609 13.8307 97.5623 13.6326 97.8206 13.3743C98.079 13.1159 98.277 12.8102 98.4148 12.4571C98.5612 12.0955 98.6344 11.7036 98.6344 11.2817C98.6344 10.8511 98.5612 10.4593 98.4148 10.1062C98.277 9.75311 98.079 9.4474 97.8206 9.18905C97.5623 8.9307 97.2609 8.73264 96.9164 8.59485C96.5805 8.45707 96.2102 8.38818 95.8055 8.38818C95.4008 8.38818 95.0262 8.45707 94.6817 8.59485C94.3372 8.73264 94.0358 8.9307 93.7775 9.18905C93.5277 9.4474 93.3297 9.75311 93.1833 10.1062C93.0455 10.4593 92.9766 10.8511 92.9766 11.2817C92.9766 11.7036 93.0455 12.0955 93.1833 12.4571C93.3297 12.8102 93.5277 13.1159 93.7775 13.3743C94.0358 13.6326 94.3372 13.8307 94.6817 13.9685C95.0262 14.1063 95.4008 14.1751 95.8055 14.1751ZM105.583 12.9738L105.583 11.3592L109.239 11.3592L109.239 12.9738L105.583 12.9738ZM117.131 15.9577C116.502 15.9577 115.878 15.8759 115.258 15.7123C114.646 15.5401 114.121 15.299 113.682 14.9889L114.509 13.3872C114.853 13.6369 115.249 13.835 115.697 13.9814C116.153 14.1278 116.614 14.201 117.079 14.201C117.604 14.201 118.018 14.0976 118.319 13.891C118.621 13.6843 118.771 13.3958 118.771 13.0255C118.771 12.793 118.711 12.5863 118.59 12.4055C118.47 12.2246 118.255 12.0868 117.945 11.9921C117.643 11.8974 117.217 11.85 116.666 11.85L114.353 11.85L114.819 6.76059L120.334 6.76059L120.334 8.43984L115.568 8.43984L116.653 7.48396L116.33 11.1137L115.245 10.1579L117.157 10.1579C118.052 10.1579 118.771 10.2827 119.314 10.5325C119.865 10.7736 120.265 11.1051 120.515 11.5271C120.765 11.9491 120.89 12.427 120.89 12.9609C120.89 13.4948 120.756 13.99 120.489 14.4464C120.222 14.8942 119.809 15.2602 119.249 15.5444C118.698 15.82 117.992 15.9577 117.131 15.9577ZM125.614 15.9577C124.873 15.9577 124.21 15.7769 123.625 15.4152C123.039 15.0449 122.578 14.511 122.242 13.8135C121.907 13.1159 121.739 12.272 121.739 11.2817C121.739 10.2913 121.907 9.4474 122.242 8.74986C122.578 8.05232 123.039 7.52271 123.625 7.16103C124.21 6.79073 124.873 6.60558 125.614 6.60558C126.363 6.60558 127.026 6.79073 127.603 7.16103C128.189 7.52271 128.649 8.05232 128.985 8.74986C129.321 9.4474 129.489 10.2913 129.489 11.2817C129.489 12.272 129.321 13.1159 128.985 13.8135C128.649 14.511 128.189 15.0449 127.603 15.4152C127.026 15.7769 126.363 15.9577 125.614 15.9577ZM125.614 14.1881C125.967 14.1881 126.273 14.089 126.531 13.891C126.798 13.6929 127.005 13.3786 127.151 12.948C127.306 12.5174 127.384 11.962 127.384 11.2817C127.384 10.6013 127.306 10.0459 127.151 9.61532C127.005 9.18475 126.798 8.87042 126.531 8.67236C126.273 8.47429 125.967 8.37526 125.614 8.37526C125.269 8.37526 124.964 8.47429 124.697 8.67236C124.438 8.87042 124.232 9.18475 124.077 9.61532C123.93 10.0459 123.857 10.6013 123.857 11.2817C123.857 11.962 123.93 12.5174 124.077 12.948C124.232 13.3786 124.438 13.6929 124.697 13.891C124.964 14.089 125.269 14.1881 125.614 14.1881ZM134.381 15.9577C133.64 15.9577 132.977 15.7769 132.392 15.4152C131.806 15.0449 131.345 14.511 131.01 13.8135C130.674 13.1159 130.506 12.272 130.506 11.2817C130.506 10.2913 130.674 9.4474 131.01 8.74986C131.345 8.05232 131.806 7.52271 132.392 7.16103C132.977 6.79073 133.64 6.60558 134.381 6.60558C135.13 6.60558 135.793 6.79073 136.37 7.16103C136.956 7.52271 137.417 8.05232 137.752 8.74986C138.088 9.4474 138.256 10.2913 138.256 11.2817C138.256 12.272 138.088 13.1159 137.752 13.8135C137.417 14.511 136.956 15.0449 136.37 15.4152C135.793 15.7769 135.13 15.9577 134.381 15.9577ZM134.381 14.1881C134.734 14.1881 135.04 14.089 135.298 13.891C135.565 13.6929 135.772 13.3786 135.918 12.948C136.073 12.5174 136.151 11.962 136.151 11.2817C136.151 10.6013 136.073 10.0459 135.918 9.61532C135.772 9.18475 135.565 8.87042 135.298 8.67236C135.04 8.47429 134.734 8.37526 134.381 8.37526C134.037 8.37526 133.731 8.47429 133.464 8.67236C133.206 8.87042 132.999 9.18475 132.844 9.61532C132.697 10.0459 132.624 10.6013 132.624 11.2817C132.624 11.962 132.697 12.5174 132.844 12.948C132.999 13.3786 133.206 13.6929 133.464 13.891C133.731 14.089 134.037 14.1881 134.381 14.1881ZM143.148 15.9577C142.408 15.9577 141.744 15.7769 141.159 15.4152C140.573 15.0449 140.113 14.511 139.777 13.8135C139.441 13.1159 139.273 12.272 139.273 11.2817C139.273 10.2913 139.441 9.4474 139.777 8.74986C140.113 8.05232 140.573 7.52271 141.159 7.16103C141.744 6.79073 142.408 6.60558 143.148 6.60558C143.897 6.60558 144.56 6.79073 145.137 7.16103C145.723 7.52271 146.184 8.05232 146.52 8.74986C146.855 9.4474 147.023 10.2913 147.023 11.2817C147.023 12.272 146.855 13.1159 146.52 13.8135C146.184 14.511 145.723 15.0449 145.137 15.4152C144.56 15.7769 143.897 15.9577 143.148 15.9577ZM143.148 14.1881C143.501 14.1881 143.807 14.089 144.065 13.891C144.332 13.6929 144.539 13.3786 144.685 12.948C144.84 12.5174 144.918 11.962 144.918 11.2817C144.918 10.6013 144.84 10.0459 144.685 9.61532C144.539 9.18474 144.332 8.87042 144.065 8.67236C143.807 8.47429 143.501 8.37526 143.148 8.37526C142.804 8.37526 142.498 8.47429 142.231 8.67236C141.973 8.87042 141.766 9.18474 141.611 9.61532C141.465 10.0459 141.391 10.6013 141.391 11.2817C141.391 11.962 141.465 12.5174 141.611 12.948C141.766 13.3786 141.973 13.6929 142.231 13.891C142.498 14.089 142.804 14.1881 143.148 14.1881ZM152.267 15.8027L152.267 6.76059L156.181 6.76059C156.99 6.76059 157.688 6.89407 158.273 7.16103C158.859 7.41937 159.311 7.79398 159.63 8.28484C159.948 8.7757 160.108 9.36128 160.108 10.0416C160.108 10.7133 159.948 11.2946 159.63 11.7854C159.311 12.2763 158.859 12.6552 158.273 12.9222C157.688 13.1805 156.99 13.3097 156.181 13.3097L153.429 13.3097L154.359 12.3667L154.359 15.8027L152.267 15.8027ZM154.359 12.5992L153.429 11.6046L156.064 11.6046C156.71 11.6046 157.193 11.4668 157.511 11.1912C157.83 10.9157 157.989 10.5325 157.989 10.0416C157.989 9.54213 157.83 9.1546 157.511 8.87903C157.193 8.60346 156.71 8.46568 156.064 8.46568L153.429 8.46568L154.359 7.47104L154.359 12.5992ZM164.805 15.9061C164.056 15.9061 163.389 15.7554 162.803 15.454C162.218 15.1439 161.757 14.7177 161.421 14.1751C161.094 13.6326 160.93 13.0169 160.93 12.328C160.93 11.6304 161.094 11.0147 161.421 10.4808C161.757 9.93826 162.218 9.51629 162.803 9.21489C163.389 8.90487 164.056 8.74986 164.805 8.74986C165.537 8.74986 166.175 8.90487 166.717 9.21488C167.26 9.51629 167.66 9.95117 167.918 10.5195L166.355 11.3592C166.175 11.0319 165.946 10.7908 165.671 10.6358C165.404 10.4808 165.111 10.4033 164.792 10.4033C164.448 10.4033 164.138 10.4808 163.862 10.6358C163.587 10.7908 163.367 11.0104 163.204 11.2946C163.049 11.5788 162.971 11.9232 162.971 12.328C162.971 12.7327 163.049 13.0772 163.204 13.3614C163.367 13.6455 163.587 13.8651 163.862 14.0201C164.138 14.1751 164.448 14.2527 164.792 14.2527C165.111 14.2527 165.404 14.1795 165.671 14.0331C165.946 13.878 166.175 13.6326 166.355 13.2968L167.918 14.1493C167.66 14.7091 167.26 15.1439 166.717 15.454C166.175 15.7554 165.537 15.9061 164.805 15.9061ZM171.417 15.9061C170.822 15.9061 170.25 15.8372 169.699 15.6994C169.156 15.553 168.726 15.3722 168.407 15.1569L169.079 13.7101C169.397 13.9082 169.772 14.0718 170.202 14.201C170.642 14.3215 171.072 14.3818 171.494 14.3818C171.959 14.3818 172.286 14.3258 172.476 14.2139C172.674 14.1019 172.773 13.9469 172.773 13.7489C172.773 13.5853 172.695 13.4647 172.54 13.3872C172.394 13.3011 172.196 13.2365 171.946 13.1934C171.697 13.1504 171.421 13.1073 171.12 13.0643C170.827 13.0212 170.53 12.9652 170.228 12.8963C169.927 12.8188 169.651 12.7069 169.402 12.5605C169.152 12.4141 168.949 12.216 168.794 11.9663C168.648 11.7165 168.575 11.3936 168.575 10.9975C168.575 10.5583 168.7 10.1708 168.949 9.83492C169.208 9.49907 169.578 9.23641 170.06 9.04696C170.543 8.84889 171.12 8.74986 171.791 8.74986C172.265 8.74986 172.747 8.80153 173.238 8.90487C173.729 9.00821 174.138 9.15891 174.465 9.35698L173.793 10.7908C173.458 10.5927 173.117 10.4593 172.773 10.3904C172.437 10.3129 172.11 10.2741 171.791 10.2741C171.343 10.2741 171.016 10.3344 170.81 10.455C170.603 10.5755 170.5 10.7305 170.5 10.92C170.5 11.0922 170.573 11.2214 170.719 11.3075C170.874 11.3936 171.077 11.4625 171.326 11.5142C171.576 11.5658 171.847 11.6132 172.14 11.6563C172.441 11.6907 172.743 11.7467 173.044 11.8242C173.346 11.9017 173.617 12.0136 173.858 12.16C174.108 12.2978 174.31 12.4916 174.465 12.7413C174.62 12.9824 174.698 13.3011 174.698 13.6972C174.698 14.1278 174.569 14.511 174.31 14.8468C174.052 15.1741 173.677 15.4324 173.186 15.6219C172.704 15.8113 172.114 15.9061 171.417 15.9061Z" fill="white"/>
<rect x="4.66992" y="137" width="207" height="40" fill="#8B2F2F"/>
<rect x="4.66992" y="137" width="207" height="40" stroke="white"/>
<path d="M44.8852 166.817C43.3623 166.817 41.9988 166.445 40.7946 165.701C39.5904 164.94 38.643 163.842 37.9524 162.407C37.2618 160.973 36.9165 159.238 36.9165 157.201C36.9165 155.165 37.2618 153.429 37.9524 151.995C38.643 150.561 39.5904 149.472 40.7946 148.728C41.9988 147.966 43.3623 147.586 44.8852 147.586C46.4258 147.586 47.7894 147.966 48.9758 148.728C50.18 149.472 51.1274 150.561 51.818 151.995C52.5086 153.429 52.8539 155.165 52.8539 157.201C52.8539 159.238 52.5086 160.973 51.818 162.407C51.1274 163.842 50.18 164.94 48.9758 165.701C47.7894 166.445 46.4258 166.817 44.8852 166.817ZM44.8852 163.178C45.6112 163.178 46.2399 162.974 46.7711 162.567C47.3201 162.16 47.7451 161.513 48.0461 160.628C48.3649 159.742 48.5243 158.6 48.5243 157.201C48.5243 155.802 48.3649 154.66 48.0461 153.775C47.7451 152.889 47.3201 152.243 46.7711 151.836C46.2399 151.428 45.6112 151.225 44.8852 151.225C44.1769 151.225 43.5482 151.428 42.9993 151.836C42.468 152.243 42.043 152.889 41.7243 153.775C41.4232 154.66 41.2727 155.802 41.2727 157.201C41.2727 158.6 41.4232 159.742 41.7243 160.628C42.043 161.513 42.468 162.16 42.9993 162.567C43.5482 162.974 44.1769 163.178 44.8852 163.178ZM54.7322 162.593L54.7322 159.698L63.4978 147.904L68.0134 147.904L59.4337 159.698L57.3353 159.087L71.9712 159.087L71.9712 162.593L54.7322 162.593ZM64.7462 166.498L64.7462 162.593L64.879 159.087L64.879 155.607L68.9431 155.607L68.9431 166.498L64.7462 166.498ZM73.8629 160.681L73.8629 157.361L81.3801 157.361L81.3801 160.681L73.8629 160.681ZM89.2747 166.817C87.982 166.817 86.6982 166.649 85.4232 166.312C84.1482 165.958 83.068 165.462 82.1826 164.825L83.856 161.531C84.5643 162.044 85.3878 162.452 86.3263 162.753C87.2649 163.054 88.2123 163.204 89.1685 163.204C90.2487 163.204 91.0987 162.992 91.7185 162.567C92.3383 162.142 92.6482 161.557 92.6482 160.814C92.6482 160.105 92.3737 159.548 91.8247 159.14C91.2758 158.733 90.3904 158.529 89.1685 158.529L87.2029 158.529L87.2029 155.687L92.3826 149.817L92.8607 151.357L83.1123 151.357L83.1123 147.904L96.1279 147.904L96.1279 150.693L90.9747 156.564L88.7966 155.315L90.0451 155.315C92.3294 155.315 94.056 155.829 95.2247 156.856C96.3935 157.883 96.9779 159.202 96.9779 160.814C96.9779 161.858 96.7034 162.841 96.1544 163.762C95.6055 164.665 94.7643 165.4 93.631 165.967C92.4977 166.533 91.0456 166.817 89.2747 166.817ZM106.933 166.817C105.41 166.817 104.047 166.445 102.843 165.701C101.639 164.94 100.691 163.842 100.001 162.407C99.3099 160.973 98.9646 159.238 98.9646 157.201C98.9646 155.165 99.3099 153.429 100.001 151.995C100.691 150.561 101.639 149.472 102.843 148.728C104.047 147.966 105.41 147.586 106.933 147.586C108.474 147.586 109.838 147.966 111.024 148.728C112.228 149.472 113.176 150.561 113.866 151.995C114.557 153.429 114.902 155.165 114.902 157.201C114.902 159.238 114.557 160.973 113.866 162.407C113.176 163.842 112.228 164.94 111.024 165.701C109.838 166.445 108.474 166.817 106.933 166.817ZM106.933 163.178C107.659 163.178 108.288 162.974 108.819 162.567C109.368 162.16 109.793 161.513 110.094 160.628C110.413 159.742 110.572 158.6 110.572 157.201C110.572 155.802 110.413 154.66 110.094 153.775C109.793 152.889 109.368 152.243 108.819 151.836C108.288 151.428 107.659 151.225 106.933 151.225C106.225 151.225 105.596 151.428 105.047 151.836C104.516 152.243 104.091 152.889 103.772 153.775C103.471 154.66 103.321 155.802 103.321 157.201C103.321 158.6 103.471 159.742 103.772 160.628C104.091 161.513 104.516 162.16 105.047 162.567C105.596 162.974 106.225 163.178 106.933 163.178ZM124.962 166.817C123.439 166.817 122.075 166.445 120.871 165.701C119.667 164.94 118.719 163.842 118.029 162.407C117.338 160.973 116.993 159.238 116.993 157.201C116.993 155.165 117.338 153.429 118.029 151.995C118.719 150.561 119.667 149.472 120.871 148.728C122.075 147.966 123.439 147.586 124.962 147.586C126.502 147.586 127.866 147.966 129.052 148.728C130.256 149.472 131.204 150.561 131.894 151.995C132.585 153.429 132.93 155.165 132.93 157.201C132.93 159.238 132.585 160.973 131.894 162.407C131.204 163.842 130.256 164.94 129.052 165.701C127.866 166.445 126.502 166.817 124.962 166.817ZM124.962 163.178C125.688 163.178 126.316 162.974 126.848 162.567C127.396 162.16 127.821 161.513 128.123 160.628C128.441 159.742 128.601 158.6 128.601 157.201C128.601 155.802 128.441 154.66 128.123 153.775C127.821 152.889 127.396 152.243 126.848 151.836C126.316 151.428 125.688 151.225 124.962 151.225C124.253 151.225 123.625 151.428 123.076 151.836C122.544 152.243 122.119 152.889 121.801 153.775C121.5 154.66 121.349 155.802 121.349 157.201C121.349 158.6 121.5 159.742 121.801 160.628C122.119 161.513 122.544 162.16 123.076 162.567C123.625 162.974 124.253 163.178 124.962 163.178ZM161.722 151.995C162.855 151.995 163.856 152.225 164.723 152.686C165.609 153.128 166.299 153.819 166.795 154.757C167.309 155.678 167.565 156.865 167.565 158.317L167.565 166.498L163.422 166.498L163.422 158.954C163.422 157.803 163.183 156.953 162.705 156.404C162.226 155.855 161.553 155.581 160.686 155.581C160.084 155.581 159.544 155.723 159.065 156.006C158.587 156.272 158.215 156.679 157.95 157.228C157.684 157.777 157.551 158.476 157.551 159.326L157.551 166.498L153.408 166.498L153.408 158.954C153.408 157.803 153.169 156.953 152.69 156.404C152.23 155.855 151.566 155.581 150.698 155.581C150.096 155.581 149.556 155.723 149.078 156.006C148.6 156.272 148.228 156.679 147.962 157.228C147.697 157.777 147.564 158.476 147.564 159.326L147.564 166.498L143.42 166.498L143.42 152.207L147.378 152.207L147.378 156.112L146.634 154.97C147.13 153.996 147.83 153.261 148.733 152.765C149.653 152.252 150.698 151.995 151.867 151.995C153.177 151.995 154.32 152.331 155.294 153.004C156.285 153.66 156.94 154.669 157.259 156.032L155.798 155.634C156.276 154.518 157.038 153.633 158.083 152.978C159.145 152.323 160.358 151.995 161.722 151.995ZM171.28 166.498L171.28 146.789L175.423 146.789L175.423 166.498L171.28 166.498Z" fill="#F6F4F3"/>
</g>
<defs>
<filter id="filter0_d_2198_722" x="-0.000117779" y="0" width="215.976" height="306.112" filterUnits="userSpaceOnUse" color-interpolation-filters="sRGB">
<feFlood flood-opacity="0" result="BackgroundImageFix"/>
<feColorMatrix in="SourceAlpha" type="matrix" values="0 0 0 0 0 0 0 0 0 0 0 0 0 0 0 0 0 0 127 0" result="hardAlpha"/>
<feOffset dy="4.30578"/>
<feGaussianBlur stdDeviation="2.15289"/>
<feComposite in2="hardAlpha" operator="out"/>
<feColorMatrix type="matrix" values="0 0 0 0 0 0 0 0 0 0 0 0 0 0 0 0 0 0 0.25 0"/>
<feBlend mode="normal" in2="BackgroundImageFix" result="effect1_dropShadow_2198_722"/>
<feBlend mode="normal" in="SourceGraphic" in2="effect1_dropShadow_2198_722" result="shape"/>
</filter>
<filter id="filter1_f_2198_722" x="35.417" y="100.98" width="120.104" height="37.9111" filterUnits="userSpaceOnUse" color-interpolation-filters="sRGB">
<feFlood flood-opacity="0" result="BackgroundImageFix"/>
<feBlend mode="normal" in="SourceGraphic" in2="BackgroundImageFix" result="shape"/>
<feGaussianBlur stdDeviation="4.83936" result="effect1_foregroundBlur_2198_722"/>
</filter>
<linearGradient id="paint0_linear_2198_722" x1="107.37" y1="286.735" x2="107.37" y2="297.5" gradientUnits="userSpaceOnUse">
<stop offset="0.365385" stop-color="#BD6A6A"/>
<stop offset="1" stop-color="white"/>
</linearGradient>
<linearGradient id="paint1_linear_2198_722" x1="108.17" y1="177" x2="108.17" y2="12" gradientUnits="userSpaceOnUse">
<stop offset="0.906845" stop-color="#EFEFEF"/>
</linearGradient>
</defs>
</svg>
