<svg width="319" height="41" viewBox="0 0 319 41" fill="none" xmlns="http://www.w3.org/2000/svg">
<path d="M26.6909 16.084C25.9535 16.084 25.2722 15.9627 24.6469 15.72C24.0215 15.468 23.4802 15.118 23.0229 14.67C22.5655 14.222 22.2062 13.6947 21.9449 13.088C21.6929 12.4813 21.5669 11.8187 21.5669 11.1C21.5669 10.3813 21.6929 9.71867 21.9449 9.112C22.2062 8.50533 22.5655 7.978 23.0229 7.53C23.4895 7.082 24.0355 6.73667 24.6609 6.494C25.2862 6.242 25.9675 6.116 26.7049 6.116C27.4142 6.116 28.0815 6.23733 28.7069 6.48C29.3322 6.71333 29.8595 7.068 30.2889 7.544L29.6309 8.202C29.2295 7.79133 28.7862 7.49733 28.3009 7.32C27.8155 7.13333 27.2929 7.04 26.7329 7.04C26.1449 7.04 25.5989 7.14267 25.0949 7.348C24.5909 7.544 24.1522 7.82867 23.7789 8.202C23.4055 8.566 23.1115 8.99533 22.8969 9.49C22.6915 9.97533 22.5889 10.512 22.5889 11.1C22.5889 11.688 22.6915 12.2293 22.8969 12.724C23.1115 13.2093 23.4055 13.6387 23.7789 14.012C24.1522 14.376 24.5909 14.6607 25.0949 14.866C25.5989 15.062 26.1449 15.16 26.7329 15.16C27.2929 15.16 27.8155 15.0667 28.3009 14.88C28.7862 14.6933 29.2295 14.3947 29.6309 13.984L30.2889 14.642C29.8595 15.118 29.3322 15.4773 28.7069 15.72C28.0815 15.9627 27.4095 16.084 26.6909 16.084ZM34.9552 16.07C34.2459 16.07 33.6066 15.9113 33.0372 15.594C32.4772 15.2673 32.0339 14.824 31.7072 14.264C31.3806 13.6947 31.2172 13.046 31.2172 12.318C31.2172 11.5807 31.3806 10.932 31.7072 10.372C32.0339 9.812 32.4772 9.37333 33.0372 9.056C33.5972 8.73867 34.2366 8.58 34.9552 8.58C35.6832 8.58 36.3272 8.73867 36.8872 9.056C37.4566 9.37333 37.8999 9.812 38.2172 10.372C38.5439 10.932 38.7072 11.5807 38.7072 12.318C38.7072 13.046 38.5439 13.6947 38.2172 14.264C37.8999 14.824 37.4566 15.2673 36.8872 15.594C36.3179 15.9113 35.6739 16.07 34.9552 16.07ZM34.9552 15.188C35.4872 15.188 35.9586 15.0713 36.3692 14.838C36.7799 14.5953 37.1019 14.2593 37.3352 13.83C37.5779 13.3913 37.6992 12.8873 37.6992 12.318C37.6992 11.7393 37.5779 11.2353 37.3352 10.806C37.1019 10.3767 36.7799 10.0453 36.3692 9.812C35.9586 9.56933 35.4919 9.448 34.9692 9.448C34.4466 9.448 33.9799 9.56933 33.5692 9.812C33.1586 10.0453 32.8319 10.3767 32.5892 10.806C32.3466 11.2353 32.2252 11.7393 32.2252 12.318C32.2252 12.8873 32.3466 13.3913 32.5892 13.83C32.8319 14.2593 33.1586 14.5953 33.5692 14.838C33.9799 15.0713 34.4419 15.188 34.9552 15.188ZM49.9206 8.58C50.5179 8.58 51.0359 8.69667 51.4746 8.93C51.9226 9.154 52.2679 9.49933 52.5106 9.966C52.7626 10.4327 52.8886 11.0207 52.8886 11.73V16H51.8946V11.828C51.8946 11.0533 51.7079 10.47 51.3346 10.078C50.9706 9.67667 50.4526 9.476 49.7806 9.476C49.2766 9.476 48.8379 9.58333 48.4646 9.798C48.1006 10.0033 47.8159 10.3067 47.6106 10.708C47.4146 11.1 47.3166 11.576 47.3166 12.136V16H46.3226V11.828C46.3226 11.0533 46.1359 10.47 45.7626 10.078C45.3893 9.67667 44.8666 9.476 44.1946 9.476C43.6999 9.476 43.2659 9.58333 42.8926 9.798C42.5193 10.0033 42.2299 10.3067 42.0246 10.708C41.8286 11.1 41.7306 11.576 41.7306 12.136V16H40.7366V8.65H41.6886V10.638L41.5346 10.288C41.7586 9.756 42.1179 9.34067 42.6126 9.042C43.1166 8.734 43.7093 8.58 44.3906 8.58C45.1093 8.58 45.7206 8.762 46.2246 9.126C46.7286 9.48067 47.0553 10.0173 47.2046 10.736L46.8126 10.582C47.0273 9.98467 47.4053 9.504 47.9466 9.14C48.4973 8.76667 49.1553 8.58 49.9206 8.58ZM59.3782 16.07C58.7436 16.07 58.1696 15.9253 57.6562 15.636C57.1429 15.3373 56.7322 14.9127 56.4242 14.362C56.1256 13.802 55.9762 13.1207 55.9762 12.318C55.9762 11.5153 56.1256 10.8387 56.4242 10.288C56.7229 9.728 57.1289 9.30333 57.6422 9.014C58.1556 8.72467 58.7342 8.58 59.3782 8.58C60.0782 8.58 60.7036 8.73867 61.2542 9.056C61.8142 9.364 62.2529 9.80267 62.5702 10.372C62.8876 10.932 63.0462 11.5807 63.0462 12.318C63.0462 13.0647 62.8876 13.718 62.5702 14.278C62.2529 14.838 61.8142 15.2767 61.2542 15.594C60.7036 15.9113 60.0782 16.07 59.3782 16.07ZM55.5842 18.716V8.65H56.5362V10.862L56.4382 12.332L56.5782 13.816V18.716H55.5842ZM59.3082 15.188C59.8309 15.188 60.2976 15.0713 60.7082 14.838C61.1189 14.5953 61.4456 14.2593 61.6882 13.83C61.9309 13.3913 62.0522 12.8873 62.0522 12.318C62.0522 11.7487 61.9309 11.2493 61.6882 10.82C61.4456 10.3907 61.1189 10.0547 60.7082 9.812C60.2976 9.56933 59.8309 9.448 59.3082 9.448C58.7856 9.448 58.3142 9.56933 57.8942 9.812C57.4836 10.0547 57.1569 10.3907 56.9142 10.82C56.6809 11.2493 56.5642 11.7487 56.5642 12.318C56.5642 12.8873 56.6809 13.3913 56.9142 13.83C57.1569 14.2593 57.4836 14.5953 57.8942 14.838C58.3142 15.0713 58.7856 15.188 59.3082 15.188ZM69.6375 16V14.376L69.5955 14.11V11.394C69.5955 10.7687 69.4182 10.288 69.0635 9.952C68.7182 9.616 68.2002 9.448 67.5095 9.448C67.0335 9.448 66.5808 9.52733 66.1515 9.686C65.7222 9.84467 65.3582 10.0547 65.0595 10.316L64.6115 9.574C64.9848 9.25667 65.4328 9.014 65.9555 8.846C66.4782 8.66867 67.0288 8.58 67.6075 8.58C68.5595 8.58 69.2922 8.818 69.8055 9.294C70.3282 9.76067 70.5895 10.4747 70.5895 11.436V16H69.6375ZM67.1035 16.07C66.5528 16.07 66.0722 15.9813 65.6615 15.804C65.2602 15.6173 64.9522 15.3653 64.7375 15.048C64.5228 14.7213 64.4155 14.348 64.4155 13.928C64.4155 13.5453 64.5042 13.2 64.6815 12.892C64.8682 12.5747 65.1668 12.3227 65.5775 12.136C65.9975 11.94 66.5575 11.842 67.2575 11.842H69.7915V12.584H67.2855C66.5762 12.584 66.0815 12.71 65.8015 12.962C65.5308 13.214 65.3955 13.5267 65.3955 13.9C65.3955 14.32 65.5588 14.656 65.8855 14.908C66.2122 15.16 66.6695 15.286 67.2575 15.286C67.8175 15.286 68.2982 15.16 68.6995 14.908C69.1102 14.6467 69.4088 14.2733 69.5955 13.788L69.8195 14.474C69.6328 14.9593 69.3062 15.3467 68.8395 15.636C68.3822 15.9253 67.8035 16.07 67.1035 16.07ZM76.3413 16.07C75.6133 16.07 74.96 15.9113 74.3813 15.594C73.812 15.2673 73.364 14.824 73.0373 14.264C72.7107 13.6947 72.5473 13.046 72.5473 12.318C72.5473 11.5807 72.7107 10.932 73.0373 10.372C73.364 9.812 73.812 9.37333 74.3813 9.056C74.96 8.73867 75.6133 8.58 76.3413 8.58C76.9667 8.58 77.5313 8.70133 78.0353 8.944C78.5393 9.18667 78.936 9.55067 79.2253 10.036L78.4833 10.54C78.2313 10.1667 77.9187 9.89133 77.5453 9.714C77.172 9.53667 76.766 9.448 76.3273 9.448C75.8047 9.448 75.3333 9.56933 74.9133 9.812C74.4933 10.0453 74.162 10.3767 73.9193 10.806C73.6767 11.2353 73.5553 11.7393 73.5553 12.318C73.5553 12.8967 73.6767 13.4007 73.9193 13.83C74.162 14.2593 74.4933 14.5953 74.9133 14.838C75.3333 15.0713 75.8047 15.188 76.3273 15.188C76.766 15.188 77.172 15.0993 77.5453 14.922C77.9187 14.7447 78.2313 14.474 78.4833 14.11L79.2253 14.614C78.936 15.09 78.5393 15.454 78.0353 15.706C77.5313 15.9487 76.9667 16.07 76.3413 16.07ZM83.584 16.07C82.8934 16.07 82.3614 15.8833 81.988 15.51C81.6147 15.1367 81.428 14.6093 81.428 13.928V7.026H82.422V13.872C82.422 14.3013 82.5294 14.6327 82.744 14.866C82.968 15.0993 83.2854 15.216 83.696 15.216C84.1347 15.216 84.4987 15.09 84.788 14.838L85.138 15.552C84.942 15.7293 84.704 15.86 84.424 15.944C84.1534 16.028 83.8734 16.07 83.584 16.07ZM80.112 9.476V8.65H84.662V9.476H80.112ZM90.8216 16V6.2H91.8576V16H90.8216ZM95.0462 16V6.2H95.9002L100.38 13.844H99.9322L104.37 6.2H105.224V16H104.23V7.754H104.468L100.38 14.754H99.8902L95.7742 7.754H96.0402V16H95.0462ZM108.417 16V6.2H109.453V15.104H114.941V16H108.417ZM123.027 16.084C122.299 16.084 121.599 15.9673 120.927 15.734C120.265 15.4913 119.751 15.1833 119.387 14.81L119.793 14.012C120.139 14.348 120.601 14.6327 121.179 14.866C121.767 15.09 122.383 15.202 123.027 15.202C123.643 15.202 124.143 15.1273 124.525 14.978C124.917 14.8193 125.202 14.6093 125.379 14.348C125.566 14.0867 125.659 13.7973 125.659 13.48C125.659 13.0973 125.547 12.7893 125.323 12.556C125.109 12.3227 124.824 12.1407 124.469 12.01C124.115 11.87 123.723 11.7487 123.293 11.646C122.864 11.5433 122.435 11.436 122.005 11.324C121.576 11.2027 121.179 11.044 120.815 10.848C120.461 10.652 120.171 10.3953 119.947 10.078C119.733 9.75133 119.625 9.32667 119.625 8.804C119.625 8.31867 119.751 7.87533 120.003 7.474C120.265 7.06333 120.661 6.73667 121.193 6.494C121.725 6.242 122.407 6.116 123.237 6.116C123.788 6.116 124.334 6.19533 124.875 6.354C125.417 6.50333 125.883 6.71333 126.275 6.984L125.925 7.81C125.505 7.53 125.057 7.32467 124.581 7.194C124.115 7.06333 123.662 6.998 123.223 6.998C122.635 6.998 122.15 7.07733 121.767 7.236C121.385 7.39467 121.1 7.60933 120.913 7.88C120.736 8.14133 120.647 8.44 120.647 8.776C120.647 9.15867 120.755 9.46667 120.969 9.7C121.193 9.93333 121.483 10.1153 121.837 10.246C122.201 10.3767 122.598 10.4933 123.027 10.596C123.457 10.6987 123.881 10.8107 124.301 10.932C124.731 11.0533 125.123 11.212 125.477 11.408C125.841 11.5947 126.131 11.8467 126.345 12.164C126.569 12.4813 126.681 12.8967 126.681 13.41C126.681 13.886 126.551 14.3293 126.289 14.74C126.028 15.1413 125.627 15.468 125.085 15.72C124.553 15.9627 123.867 16.084 123.027 16.084ZM130.09 16L127.318 8.65H128.27L130.79 15.468H130.356L132.946 8.65H133.8L136.362 15.468H135.928L138.49 8.65H139.4L136.614 16H135.676L133.212 9.588H133.506L131.028 16H130.09ZM143.814 16.07C143.048 16.07 142.376 15.9113 141.798 15.594C141.219 15.2673 140.766 14.824 140.44 14.264C140.113 13.6947 139.95 13.046 139.95 12.318C139.95 11.59 140.104 10.946 140.412 10.386C140.729 9.826 141.158 9.38733 141.7 9.07C142.25 8.74333 142.866 8.58 143.548 8.58C144.238 8.58 144.85 8.73867 145.382 9.056C145.923 9.364 146.348 9.80267 146.656 10.372C146.964 10.932 147.118 11.5807 147.118 12.318C147.118 12.3647 147.113 12.416 147.104 12.472C147.104 12.5187 147.104 12.57 147.104 12.626H140.706V11.884H146.572L146.18 12.178C146.18 11.646 146.063 11.1747 145.83 10.764C145.606 10.344 145.298 10.0173 144.906 9.784C144.514 9.55067 144.061 9.434 143.548 9.434C143.044 9.434 142.591 9.55067 142.19 9.784C141.788 10.0173 141.476 10.344 141.252 10.764C141.028 11.184 140.916 11.6647 140.916 12.206V12.36C140.916 12.92 141.037 13.4147 141.28 13.844C141.532 14.264 141.877 14.5953 142.316 14.838C142.764 15.0713 143.272 15.188 143.842 15.188C144.29 15.188 144.705 15.1087 145.088 14.95C145.48 14.7913 145.816 14.5487 146.096 14.222L146.656 14.866C146.329 15.258 145.918 15.5567 145.424 15.762C144.938 15.9673 144.402 16.07 143.814 16.07ZM152.263 16.07C151.498 16.07 150.826 15.9113 150.247 15.594C149.668 15.2673 149.216 14.824 148.889 14.264C148.562 13.6947 148.399 13.046 148.399 12.318C148.399 11.59 148.553 10.946 148.861 10.386C149.178 9.826 149.608 9.38733 150.149 9.07C150.7 8.74333 151.316 8.58 151.997 8.58C152.688 8.58 153.299 8.73867 153.831 9.056C154.372 9.364 154.797 9.80267 155.105 10.372C155.413 10.932 155.567 11.5807 155.567 12.318C155.567 12.3647 155.562 12.416 155.553 12.472C155.553 12.5187 155.553 12.57 155.553 12.626H149.155V11.884H155.021L154.629 12.178C154.629 11.646 154.512 11.1747 154.279 10.764C154.055 10.344 153.747 10.0173 153.355 9.784C152.963 9.55067 152.51 9.434 151.997 9.434C151.493 9.434 151.04 9.55067 150.639 9.784C150.238 10.0173 149.925 10.344 149.701 10.764C149.477 11.184 149.365 11.6647 149.365 12.206V12.36C149.365 12.92 149.486 13.4147 149.729 13.844C149.981 14.264 150.326 14.5953 150.765 14.838C151.213 15.0713 151.722 15.188 152.291 15.188C152.739 15.188 153.154 15.1087 153.537 14.95C153.929 14.7913 154.265 14.5487 154.545 14.222L155.105 14.866C154.778 15.258 154.368 15.5567 153.873 15.762C153.388 15.9673 152.851 16.07 152.263 16.07ZM159.914 16.07C159.223 16.07 158.691 15.8833 158.318 15.51C157.945 15.1367 157.758 14.6093 157.758 13.928V7.026H158.752V13.872C158.752 14.3013 158.859 14.6327 159.074 14.866C159.298 15.0993 159.615 15.216 160.026 15.216C160.465 15.216 160.829 15.09 161.118 14.838L161.468 15.552C161.272 15.7293 161.034 15.86 160.754 15.944C160.483 16.028 160.203 16.07 159.914 16.07ZM156.442 9.476V8.65H160.992V9.476H156.442ZM170.736 16.07C170.092 16.07 169.513 15.9253 169 15.636C168.486 15.3373 168.08 14.908 167.782 14.348C167.483 13.788 167.334 13.1113 167.334 12.318C167.334 11.5153 167.483 10.8387 167.782 10.288C168.09 9.728 168.5 9.30333 169.014 9.014C169.527 8.72467 170.101 8.58 170.736 8.58C171.436 8.58 172.061 8.73867 172.612 9.056C173.172 9.364 173.61 9.798 173.928 10.358C174.245 10.918 174.404 11.5713 174.404 12.318C174.404 13.0553 174.245 13.7087 173.928 14.278C173.61 14.838 173.172 15.2767 172.612 15.594C172.061 15.9113 171.436 16.07 170.736 16.07ZM166.942 16V5.612H167.936V10.82L167.796 12.304L167.894 13.788V16H166.942ZM170.666 15.188C171.188 15.188 171.655 15.0713 172.066 14.838C172.476 14.5953 172.803 14.2593 173.046 13.83C173.288 13.3913 173.41 12.8873 173.41 12.318C173.41 11.7393 173.288 11.2353 173.046 10.806C172.803 10.3767 172.476 10.0453 172.066 9.812C171.655 9.56933 171.188 9.448 170.666 9.448C170.143 9.448 169.672 9.56933 169.252 9.812C168.841 10.0453 168.514 10.3767 168.272 10.806C168.038 11.2353 167.922 11.7393 167.922 12.318C167.922 12.8873 168.038 13.3913 168.272 13.83C168.514 14.2593 168.841 14.5953 169.252 14.838C169.672 15.0713 170.143 15.188 170.666 15.188ZM179.426 16.07C178.717 16.07 178.077 15.9113 177.508 15.594C176.948 15.2673 176.505 14.824 176.178 14.264C175.851 13.6947 175.688 13.046 175.688 12.318C175.688 11.5807 175.851 10.932 176.178 10.372C176.505 9.812 176.948 9.37333 177.508 9.056C178.068 8.73867 178.707 8.58 179.426 8.58C180.154 8.58 180.798 8.73867 181.358 9.056C181.927 9.37333 182.371 9.812 182.688 10.372C183.015 10.932 183.178 11.5807 183.178 12.318C183.178 13.046 183.015 13.6947 182.688 14.264C182.371 14.824 181.927 15.2673 181.358 15.594C180.789 15.9113 180.145 16.07 179.426 16.07ZM179.426 15.188C179.958 15.188 180.429 15.0713 180.84 14.838C181.251 14.5953 181.573 14.2593 181.806 13.83C182.049 13.3913 182.17 12.8873 182.17 12.318C182.17 11.7393 182.049 11.2353 181.806 10.806C181.573 10.3767 181.251 10.0453 180.84 9.812C180.429 9.56933 179.963 9.448 179.44 9.448C178.917 9.448 178.451 9.56933 178.04 9.812C177.629 10.0453 177.303 10.3767 177.06 10.806C176.817 11.2353 176.696 11.7393 176.696 12.318C176.696 12.8873 176.817 13.3913 177.06 13.83C177.303 14.2593 177.629 14.5953 178.04 14.838C178.451 15.0713 178.913 15.188 179.426 15.188ZM183.828 16L186.936 11.968L186.922 12.458L183.968 8.65H185.088L187.51 11.8L187.09 11.786L189.512 8.65H190.604L187.622 12.5L187.636 11.968L190.772 16H189.638L187.076 12.64L187.468 12.696L184.948 16H183.828ZM196.09 16V8.65H197.084V16H196.09ZM196.594 7.026C196.389 7.026 196.216 6.956 196.076 6.816C195.936 6.676 195.866 6.508 195.866 6.312C195.866 6.116 195.936 5.95267 196.076 5.822C196.216 5.682 196.389 5.612 196.594 5.612C196.799 5.612 196.972 5.67733 197.112 5.808C197.252 5.93867 197.322 6.102 197.322 6.298C197.322 6.50333 197.252 6.676 197.112 6.816C196.981 6.956 196.809 7.026 196.594 7.026ZM202.776 16.07C202.076 16.07 201.446 15.9113 200.886 15.594C200.335 15.2767 199.901 14.838 199.584 14.278C199.267 13.7087 199.108 13.0553 199.108 12.318C199.108 11.5713 199.267 10.918 199.584 10.358C199.901 9.798 200.335 9.364 200.886 9.056C201.446 8.73867 202.076 8.58 202.776 8.58C203.42 8.58 203.994 8.72467 204.498 9.014C205.011 9.30333 205.417 9.728 205.716 10.288C206.024 10.8387 206.178 11.5153 206.178 12.318C206.178 13.1113 206.029 13.788 205.73 14.348C205.431 14.908 205.025 15.3373 204.512 15.636C204.008 15.9253 203.429 16.07 202.776 16.07ZM202.846 15.188C203.369 15.188 203.835 15.0713 204.246 14.838C204.666 14.5953 204.993 14.2593 205.226 13.83C205.469 13.3913 205.59 12.8873 205.59 12.318C205.59 11.7393 205.469 11.2353 205.226 10.806C204.993 10.3767 204.666 10.0453 204.246 9.812C203.835 9.56933 203.369 9.448 202.846 9.448C202.333 9.448 201.871 9.56933 201.46 9.812C201.049 10.0453 200.723 10.3767 200.48 10.806C200.237 11.2353 200.116 11.7393 200.116 12.318C200.116 12.8873 200.237 13.3913 200.48 13.83C200.723 14.2593 201.049 14.5953 201.46 14.838C201.871 15.0713 202.333 15.188 202.846 15.188ZM205.618 16V13.788L205.716 12.304L205.576 10.82V5.612H206.57V16H205.618ZM212.46 16.07C211.695 16.07 211.023 15.9113 210.444 15.594C209.865 15.2673 209.413 14.824 209.086 14.264C208.759 13.6947 208.596 13.046 208.596 12.318C208.596 11.59 208.75 10.946 209.058 10.386C209.375 9.826 209.805 9.38733 210.346 9.07C210.897 8.74333 211.513 8.58 212.194 8.58C212.885 8.58 213.496 8.73867 214.028 9.056C214.569 9.364 214.994 9.80267 215.302 10.372C215.61 10.932 215.764 11.5807 215.764 12.318C215.764 12.3647 215.759 12.416 215.75 12.472C215.75 12.5187 215.75 12.57 215.75 12.626H209.352V11.884H215.218L214.826 12.178C214.826 11.646 214.709 11.1747 214.476 10.764C214.252 10.344 213.944 10.0173 213.552 9.784C213.16 9.55067 212.707 9.434 212.194 9.434C211.69 9.434 211.237 9.55067 210.836 9.784C210.435 10.0173 210.122 10.344 209.898 10.764C209.674 11.184 209.562 11.6647 209.562 12.206V12.36C209.562 12.92 209.683 13.4147 209.926 13.844C210.178 14.264 210.523 14.5953 210.962 14.838C211.41 15.0713 211.919 15.188 212.488 15.188C212.936 15.188 213.351 15.1087 213.734 14.95C214.126 14.7913 214.462 14.5487 214.742 14.222L215.302 14.866C214.975 15.258 214.565 15.5567 214.07 15.762C213.585 15.9673 213.048 16.07 212.46 16.07ZM222.188 16V14.376L222.146 14.11V11.394C222.146 10.7687 221.969 10.288 221.614 9.952C221.269 9.616 220.751 9.448 220.06 9.448C219.584 9.448 219.132 9.52733 218.702 9.686C218.273 9.84467 217.909 10.0547 217.61 10.316L217.162 9.574C217.536 9.25667 217.984 9.014 218.506 8.846C219.029 8.66867 219.58 8.58 220.158 8.58C221.11 8.58 221.843 8.818 222.356 9.294C222.879 9.76067 223.14 10.4747 223.14 11.436V16H222.188ZM219.654 16.07C219.104 16.07 218.623 15.9813 218.212 15.804C217.811 15.6173 217.503 15.3653 217.288 15.048C217.074 14.7213 216.966 14.348 216.966 13.928C216.966 13.5453 217.055 13.2 217.232 12.892C217.419 12.5747 217.718 12.3227 218.128 12.136C218.548 11.94 219.108 11.842 219.808 11.842H222.342V12.584H219.836C219.127 12.584 218.632 12.71 218.352 12.962C218.082 13.214 217.946 13.5267 217.946 13.9C217.946 14.32 218.11 14.656 218.436 14.908C218.763 15.16 219.22 15.286 219.808 15.286C220.368 15.286 220.849 15.16 221.25 14.908C221.661 14.6467 221.96 14.2733 222.146 13.788L222.37 14.474C222.184 14.9593 221.857 15.3467 221.39 15.636C220.933 15.9253 220.354 16.07 219.654 16.07ZM225.84 16V5.612H226.834V16H225.84ZM233.432 16V7.726C233.432 7.07267 233.623 6.54533 234.006 6.144C234.389 5.74267 234.939 5.542 235.658 5.542C235.938 5.542 236.209 5.57933 236.47 5.654C236.731 5.72867 236.951 5.84533 237.128 6.004L236.792 6.746C236.652 6.62467 236.489 6.536 236.302 6.48C236.115 6.41467 235.915 6.382 235.7 6.382C235.28 6.382 234.958 6.49867 234.734 6.732C234.51 6.96533 234.398 7.31067 234.398 7.768V8.888L234.426 9.35V16H233.432ZM232.116 9.476V8.65H236.666V9.476H232.116ZM240.881 16.07C240.172 16.07 239.532 15.9113 238.963 15.594C238.403 15.2673 237.96 14.824 237.633 14.264C237.306 13.6947 237.143 13.046 237.143 12.318C237.143 11.5807 237.306 10.932 237.633 10.372C237.96 9.812 238.403 9.37333 238.963 9.056C239.523 8.73867 240.162 8.58 240.881 8.58C241.609 8.58 242.253 8.73867 242.813 9.056C243.382 9.37333 243.826 9.812 244.143 10.372C244.47 10.932 244.633 11.5807 244.633 12.318C244.633 13.046 244.47 13.6947 244.143 14.264C243.826 14.824 243.382 15.2673 242.813 15.594C242.244 15.9113 241.6 16.07 240.881 16.07ZM240.881 15.188C241.413 15.188 241.884 15.0713 242.295 14.838C242.706 14.5953 243.028 14.2593 243.261 13.83C243.504 13.3913 243.625 12.8873 243.625 12.318C243.625 11.7393 243.504 11.2353 243.261 10.806C243.028 10.3767 242.706 10.0453 242.295 9.812C241.884 9.56933 241.418 9.448 240.895 9.448C240.372 9.448 239.906 9.56933 239.495 9.812C239.084 10.0453 238.758 10.3767 238.515 10.806C238.272 11.2353 238.151 11.7393 238.151 12.318C238.151 12.8873 238.272 13.3913 238.515 13.83C238.758 14.2593 239.084 14.5953 239.495 14.838C239.906 15.0713 240.368 15.188 240.881 15.188ZM246.662 16V8.65H247.614V10.652L247.516 10.302C247.722 9.742 248.067 9.31733 248.552 9.028C249.038 8.72933 249.64 8.58 250.358 8.58V9.546C250.321 9.546 250.284 9.546 250.246 9.546C250.209 9.53667 250.172 9.532 250.134 9.532C249.36 9.532 248.753 9.77 248.314 10.246C247.876 10.7127 247.656 11.38 247.656 12.248V16H246.662ZM257.962 16.084C257.346 16.084 256.758 16 256.198 15.832C255.647 15.664 255.213 15.4587 254.896 15.216L255.456 14.152C255.773 14.3667 256.165 14.5487 256.632 14.698C257.098 14.8473 257.574 14.922 258.06 14.922C258.685 14.922 259.133 14.8333 259.404 14.656C259.684 14.4787 259.824 14.2313 259.824 13.914C259.824 13.6807 259.74 13.4987 259.572 13.368C259.404 13.2373 259.18 13.1393 258.9 13.074C258.629 13.0087 258.326 12.9527 257.99 12.906C257.654 12.85 257.318 12.7847 256.982 12.71C256.646 12.626 256.338 12.514 256.058 12.374C255.778 12.2247 255.554 12.024 255.386 11.772C255.218 11.5107 255.134 11.1653 255.134 10.736C255.134 10.288 255.26 9.896 255.512 9.56C255.764 9.224 256.118 8.96733 256.576 8.79C257.042 8.60333 257.593 8.51 258.228 8.51C258.713 8.51 259.203 8.57067 259.698 8.692C260.202 8.804 260.612 8.96733 260.93 9.182L260.356 10.246C260.02 10.022 259.67 9.868 259.306 9.784C258.942 9.7 258.578 9.658 258.214 9.658C257.626 9.658 257.187 9.756 256.898 9.952C256.608 10.1387 256.464 10.3813 256.464 10.68C256.464 10.932 256.548 11.128 256.716 11.268C256.893 11.3987 257.117 11.5013 257.388 11.576C257.668 11.6507 257.976 11.716 258.312 11.772C258.648 11.8187 258.984 11.884 259.32 11.968C259.656 12.0427 259.959 12.15 260.23 12.29C260.51 12.43 260.734 12.626 260.902 12.878C261.079 13.13 261.168 13.466 261.168 13.886C261.168 14.334 261.037 14.7213 260.776 15.048C260.514 15.3747 260.146 15.6313 259.67 15.818C259.194 15.9953 258.624 16.084 257.962 16.084ZM262.847 16V8.58H264.191V16H262.847ZM263.519 7.152C263.258 7.152 263.039 7.068 262.861 6.9C262.693 6.732 262.609 6.52667 262.609 6.284C262.609 6.032 262.693 5.822 262.861 5.654C263.039 5.486 263.258 5.402 263.519 5.402C263.781 5.402 263.995 5.486 264.163 5.654C264.341 5.81267 264.429 6.01333 264.429 6.256C264.429 6.508 264.345 6.72267 264.177 6.9C264.009 7.068 263.79 7.152 263.519 7.152ZM270.719 8.51C271.326 8.51 271.858 8.62667 272.315 8.86C272.782 9.09333 273.146 9.448 273.407 9.924C273.669 10.4 273.799 11.002 273.799 11.73V16H272.455V11.884C272.455 11.1653 272.278 10.624 271.923 10.26C271.578 9.896 271.088 9.714 270.453 9.714C269.977 9.714 269.562 9.80733 269.207 9.994C268.853 10.1807 268.577 10.456 268.381 10.82C268.195 11.184 268.101 11.6367 268.101 12.178V16H266.757V8.58H268.045V10.582L267.835 10.05C268.078 9.56467 268.451 9.18667 268.955 8.916C269.459 8.64533 270.047 8.51 270.719 8.51ZM279.535 18.8C278.853 18.8 278.191 18.702 277.547 18.506C276.912 18.3193 276.394 18.0487 275.993 17.694L276.637 16.658C276.982 16.9567 277.407 17.19 277.911 17.358C278.415 17.5353 278.942 17.624 279.493 17.624C280.37 17.624 281.014 17.4187 281.425 17.008C281.835 16.5973 282.041 15.972 282.041 15.132V13.564L282.181 12.094L282.111 10.61V8.58H283.385V14.992C283.385 16.2987 283.058 17.26 282.405 17.876C281.751 18.492 280.795 18.8 279.535 18.8ZM279.367 15.692C278.648 15.692 278.004 15.5427 277.435 15.244C276.875 14.936 276.427 14.5113 276.091 13.97C275.764 13.4287 275.601 12.8033 275.601 12.094C275.601 11.3753 275.764 10.75 276.091 10.218C276.427 9.67667 276.875 9.25667 277.435 8.958C278.004 8.65933 278.648 8.51 279.367 8.51C280.001 8.51 280.58 8.64067 281.103 8.902C281.625 9.154 282.041 9.546 282.349 10.078C282.666 10.61 282.825 11.282 282.825 12.094C282.825 12.8967 282.666 13.564 282.349 14.096C282.041 14.628 281.625 15.0293 281.103 15.3C280.58 15.5613 280.001 15.692 279.367 15.692ZM279.521 14.516C280.015 14.516 280.454 14.4133 280.837 14.208C281.219 14.0027 281.518 13.718 281.733 13.354C281.957 12.99 282.069 12.57 282.069 12.094C282.069 11.618 281.957 11.198 281.733 10.834C281.518 10.47 281.219 10.19 280.837 9.994C280.454 9.78867 280.015 9.686 279.521 9.686C279.026 9.686 278.583 9.78867 278.191 9.994C277.808 10.19 277.505 10.47 277.281 10.834C277.066 11.198 276.959 11.618 276.959 12.094C276.959 12.57 277.066 12.99 277.281 13.354C277.505 13.718 277.808 14.0027 278.191 14.208C278.583 14.4133 279.026 14.516 279.521 14.516ZM285.953 16V5.612H287.297V16H285.953ZM293.167 16.084C292.374 16.084 291.674 15.9207 291.067 15.594C290.47 15.2673 290.003 14.8193 289.667 14.25C289.34 13.6807 289.177 13.0273 289.177 12.29C289.177 11.5527 289.336 10.8993 289.653 10.33C289.98 9.76067 290.423 9.31733 290.983 9C291.552 8.67333 292.192 8.51 292.901 8.51C293.62 8.51 294.254 8.66867 294.805 8.986C295.356 9.30333 295.785 9.75133 296.093 10.33C296.41 10.8993 296.569 11.5667 296.569 12.332C296.569 12.388 296.564 12.4533 296.555 12.528C296.555 12.6027 296.55 12.6727 296.541 12.738H290.227V11.772H295.841L295.295 12.108C295.304 11.632 295.206 11.2073 295.001 10.834C294.796 10.4607 294.511 10.1713 294.147 9.966C293.792 9.75133 293.377 9.644 292.901 9.644C292.434 9.644 292.019 9.75133 291.655 9.966C291.291 10.1713 291.006 10.4653 290.801 10.848C290.596 11.2213 290.493 11.6507 290.493 12.136V12.36C290.493 12.8547 290.605 13.298 290.829 13.69C291.062 14.0727 291.384 14.3713 291.795 14.586C292.206 14.8007 292.677 14.908 293.209 14.908C293.648 14.908 294.044 14.8333 294.399 14.684C294.763 14.5347 295.08 14.3107 295.351 14.012L296.093 14.88C295.757 15.272 295.337 15.5707 294.833 15.776C294.338 15.9813 293.783 16.084 293.167 16.084ZM69.0163 38.084C68.4003 38.084 67.8123 38 67.2523 37.832C66.7016 37.664 66.2676 37.4587 65.9503 37.216L66.5103 36.152C66.8276 36.3667 67.2196 36.5487 67.6863 36.698C68.1529 36.8473 68.6289 36.922 69.1143 36.922C69.7396 36.922 70.1876 36.8333 70.4583 36.656C70.7383 36.4787 70.8783 36.2313 70.8783 35.914C70.8783 35.6807 70.7943 35.4987 70.6263 35.368C70.4583 35.2373 70.2343 35.1393 69.9543 35.074C69.6836 35.0087 69.3803 34.9527 69.0443 34.906C68.7083 34.85 68.3723 34.7847 68.0363 34.71C67.7003 34.626 67.3923 34.514 67.1123 34.374C66.8323 34.2247 66.6083 34.024 66.4403 33.772C66.2723 33.5107 66.1883 33.1653 66.1883 32.736C66.1883 32.288 66.3143 31.896 66.5663 31.56C66.8183 31.224 67.1729 30.9673 67.6303 30.79C68.0969 30.6033 68.6476 30.51 69.2823 30.51C69.7676 30.51 70.2576 30.5707 70.7523 30.692C71.2563 30.804 71.6669 30.9673 71.9843 31.182L71.4103 32.246C71.0743 32.022 70.7243 31.868 70.3603 31.784C69.9963 31.7 69.6323 31.658 69.2683 31.658C68.6803 31.658 68.2416 31.756 67.9523 31.952C67.6629 32.1387 67.5183 32.3813 67.5183 32.68C67.5183 32.932 67.6023 33.128 67.7703 33.268C67.9476 33.3987 68.1716 33.5013 68.4423 33.576C68.7223 33.6507 69.0303 33.716 69.3663 33.772C69.7023 33.8187 70.0383 33.884 70.3743 33.968C70.7103 34.0427 71.0136 34.15 71.2843 34.29C71.5643 34.43 71.7883 34.626 71.9563 34.878C72.1336 35.13 72.2223 35.466 72.2223 35.886C72.2223 36.334 72.0916 36.7213 71.8303 37.048C71.5689 37.3747 71.2003 37.6313 70.7243 37.818C70.2483 37.9953 69.6789 38.084 69.0163 38.084ZM77.2059 38.084C76.4126 38.084 75.7126 37.9207 75.1059 37.594C74.5086 37.2673 74.0419 36.8193 73.7059 36.25C73.3793 35.6807 73.2159 35.0273 73.2159 34.29C73.2159 33.5527 73.3746 32.8993 73.6919 32.33C74.0186 31.7607 74.4619 31.3173 75.0219 31C75.5913 30.6733 76.2306 30.51 76.9399 30.51C77.6586 30.51 78.2933 30.6687 78.8439 30.986C79.3946 31.3033 79.8239 31.7513 80.1319 32.33C80.4493 32.8993 80.6079 33.5667 80.6079 34.332C80.6079 34.388 80.6033 34.4533 80.5939 34.528C80.5939 34.6027 80.5893 34.6727 80.5799 34.738H74.2659V33.772H79.8799L79.3339 34.108C79.3433 33.632 79.2453 33.2073 79.0399 32.834C78.8346 32.4607 78.5499 32.1713 78.1859 31.966C77.8313 31.7513 77.4159 31.644 76.9399 31.644C76.4733 31.644 76.0579 31.7513 75.6939 31.966C75.3299 32.1713 75.0453 32.4653 74.8399 32.848C74.6346 33.2213 74.5319 33.6507 74.5319 34.136V34.36C74.5319 34.8547 74.6439 35.298 74.8679 35.69C75.1013 36.0727 75.4233 36.3713 75.8339 36.586C76.2446 36.8007 76.7159 36.908 77.2479 36.908C77.6866 36.908 78.0833 36.8333 78.4379 36.684C78.8019 36.5347 79.1193 36.3107 79.3899 36.012L80.1319 36.88C79.7959 37.272 79.3759 37.5707 78.8719 37.776C78.3773 37.9813 77.8219 38.084 77.2059 38.084ZM82.4742 38V30.58H83.7622V32.596L83.6362 32.092C83.8415 31.5787 84.1869 31.1867 84.6722 30.916C85.1575 30.6453 85.7549 30.51 86.4642 30.51V31.812C86.4082 31.8027 86.3522 31.798 86.2962 31.798C86.2495 31.798 86.2029 31.798 86.1562 31.798C85.4375 31.798 84.8682 32.0127 84.4482 32.442C84.0282 32.8713 83.8182 33.492 83.8182 34.304V38H82.4742ZM90.3675 38L87.1195 30.58H88.5195L91.4035 37.3H90.7315L93.6715 30.58H94.9875L91.7395 38H90.3675ZM96.2418 38V30.58H97.5858V38H96.2418ZM96.9138 29.152C96.6524 29.152 96.4331 29.068 96.2558 28.9C96.0878 28.732 96.0038 28.5267 96.0038 28.284C96.0038 28.032 96.0878 27.822 96.2558 27.654C96.4331 27.486 96.6524 27.402 96.9138 27.402C97.1751 27.402 97.3898 27.486 97.5578 27.654C97.7351 27.8127 97.8238 28.0133 97.8238 28.256C97.8238 28.508 97.7398 28.7227 97.5718 28.9C97.4038 29.068 97.1844 29.152 96.9138 29.152ZM104.114 30.51C104.721 30.51 105.253 30.6267 105.71 30.86C106.177 31.0933 106.541 31.448 106.802 31.924C107.063 32.4 107.194 33.002 107.194 33.73V38H105.85V33.884C105.85 33.1653 105.673 32.624 105.318 32.26C104.973 31.896 104.483 31.714 103.848 31.714C103.372 31.714 102.957 31.8073 102.602 31.994C102.247 32.1807 101.972 32.456 101.776 32.82C101.589 33.184 101.496 33.6367 101.496 34.178V38H100.152V30.58H101.44V32.582L101.23 32.05C101.473 31.5647 101.846 31.1867 102.35 30.916C102.854 30.6453 103.442 30.51 104.114 30.51ZM112.929 40.8C112.248 40.8 111.585 40.702 110.941 40.506C110.307 40.3193 109.789 40.0487 109.387 39.694L110.031 38.658C110.377 38.9567 110.801 39.19 111.305 39.358C111.809 39.5353 112.337 39.624 112.887 39.624C113.765 39.624 114.409 39.4187 114.819 39.008C115.23 38.5973 115.435 37.972 115.435 37.132V35.564L115.575 34.094L115.505 32.61V30.58H116.779V36.992C116.779 38.2987 116.453 39.26 115.799 39.876C115.146 40.492 114.189 40.8 112.929 40.8ZM112.761 37.692C112.043 37.692 111.399 37.5427 110.829 37.244C110.269 36.936 109.821 36.5113 109.485 35.97C109.159 35.4287 108.995 34.8033 108.995 34.094C108.995 33.3753 109.159 32.75 109.485 32.218C109.821 31.6767 110.269 31.2567 110.829 30.958C111.399 30.6593 112.043 30.51 112.761 30.51C113.396 30.51 113.975 30.6407 114.497 30.902C115.02 31.154 115.435 31.546 115.743 32.078C116.061 32.61 116.219 33.282 116.219 34.094C116.219 34.8967 116.061 35.564 115.743 36.096C115.435 36.628 115.02 37.0293 114.497 37.3C113.975 37.5613 113.396 37.692 112.761 37.692ZM112.915 36.516C113.41 36.516 113.849 36.4133 114.231 36.208C114.614 36.0027 114.913 35.718 115.127 35.354C115.351 34.99 115.463 34.57 115.463 34.094C115.463 33.618 115.351 33.198 115.127 32.834C114.913 32.47 114.614 32.19 114.231 31.994C113.849 31.7887 113.41 31.686 112.915 31.686C112.421 31.686 111.977 31.7887 111.585 31.994C111.203 32.19 110.899 32.47 110.675 32.834C110.461 33.198 110.353 33.618 110.353 34.094C110.353 34.57 110.461 34.99 110.675 35.354C110.899 35.718 111.203 36.0027 111.585 36.208C111.977 36.4133 112.421 36.516 112.915 36.516ZM121.475 38.084C120.859 38.084 120.271 38 119.711 37.832C119.161 37.664 118.727 37.4587 118.409 37.216L118.969 36.152C119.287 36.3667 119.679 36.5487 120.145 36.698C120.612 36.8473 121.088 36.922 121.573 36.922C122.199 36.922 122.647 36.8333 122.917 36.656C123.197 36.4787 123.337 36.2313 123.337 35.914C123.337 35.6807 123.253 35.4987 123.085 35.368C122.917 35.2373 122.693 35.1393 122.413 35.074C122.143 35.0087 121.839 34.9527 121.503 34.906C121.167 34.85 120.831 34.7847 120.495 34.71C120.159 34.626 119.851 34.514 119.571 34.374C119.291 34.2247 119.067 34.024 118.899 33.772C118.731 33.5107 118.647 33.1653 118.647 32.736C118.647 32.288 118.773 31.896 119.025 31.56C119.277 31.224 119.632 30.9673 120.089 30.79C120.556 30.6033 121.107 30.51 121.741 30.51C122.227 30.51 122.717 30.5707 123.211 30.692C123.715 30.804 124.126 30.9673 124.443 31.182L123.869 32.246C123.533 32.022 123.183 31.868 122.819 31.784C122.455 31.7 122.091 31.658 121.727 31.658C121.139 31.658 120.701 31.756 120.411 31.952C120.122 32.1387 119.977 32.3813 119.977 32.68C119.977 32.932 120.061 33.128 120.229 33.268C120.407 33.3987 120.631 33.5013 120.901 33.576C121.181 33.6507 121.489 33.716 121.825 33.772C122.161 33.8187 122.497 33.884 122.833 33.968C123.169 34.0427 123.473 34.15 123.743 34.29C124.023 34.43 124.247 34.626 124.415 34.878C124.593 35.13 124.681 35.466 124.681 35.886C124.681 36.334 124.551 36.7213 124.289 37.048C124.028 37.3747 123.659 37.6313 123.183 37.818C122.707 37.9953 122.138 38.084 121.475 38.084ZM134.727 38V36.432L134.657 36.138V33.464C134.657 32.8947 134.489 32.456 134.153 32.148C133.826 31.8307 133.331 31.672 132.669 31.672C132.23 31.672 131.801 31.7467 131.381 31.896C130.961 32.036 130.606 32.2273 130.317 32.47L129.757 31.462C130.139 31.154 130.597 30.9207 131.129 30.762C131.67 30.594 132.235 30.51 132.823 30.51C133.84 30.51 134.624 30.7573 135.175 31.252C135.725 31.7467 136.001 32.5027 136.001 33.52V38H134.727ZM132.291 38.084C131.74 38.084 131.255 37.9907 130.835 37.804C130.424 37.6173 130.107 37.3607 129.883 37.034C129.659 36.698 129.547 36.32 129.547 35.9C129.547 35.4987 129.64 35.1347 129.827 34.808C130.023 34.4813 130.335 34.22 130.765 34.024C131.203 33.828 131.791 33.73 132.529 33.73H134.881V34.696H132.585C131.913 34.696 131.46 34.808 131.227 35.032C130.993 35.256 130.877 35.5267 130.877 35.844C130.877 36.208 131.021 36.502 131.311 36.726C131.6 36.9407 132.001 37.048 132.515 37.048C133.019 37.048 133.457 36.936 133.831 36.712C134.213 36.488 134.489 36.1613 134.657 35.732L134.923 36.656C134.745 37.0947 134.433 37.4447 133.985 37.706C133.537 37.958 132.972 38.084 132.291 38.084ZM142.45 30.51C143.057 30.51 143.589 30.6267 144.046 30.86C144.513 31.0933 144.877 31.448 145.138 31.924C145.399 32.4 145.53 33.002 145.53 33.73V38H144.186V33.884C144.186 33.1653 144.009 32.624 143.654 32.26C143.309 31.896 142.819 31.714 142.184 31.714C141.708 31.714 141.293 31.8073 140.938 31.994C140.583 32.1807 140.308 32.456 140.112 32.82C139.925 33.184 139.832 33.6367 139.832 34.178V38H138.488V30.58H139.776V32.582L139.566 32.05C139.809 31.5647 140.182 31.1867 140.686 30.916C141.19 30.6453 141.778 30.51 142.45 30.51ZM151.083 38.084C150.364 38.084 149.72 37.9253 149.151 37.608C148.591 37.2907 148.148 36.8473 147.821 36.278C147.494 35.7087 147.331 35.046 147.331 34.29C147.331 33.534 147.494 32.876 147.821 32.316C148.148 31.7467 148.591 31.3033 149.151 30.986C149.72 30.6687 150.364 30.51 151.083 30.51C151.708 30.51 152.273 30.65 152.777 30.93C153.281 31.21 153.682 31.63 153.981 32.19C154.289 32.75 154.443 33.45 154.443 34.29C154.443 35.13 154.294 35.83 153.995 36.39C153.706 36.95 153.309 37.3747 152.805 37.664C152.301 37.944 151.727 38.084 151.083 38.084ZM151.195 36.908C151.662 36.908 152.082 36.8007 152.455 36.586C152.838 36.3713 153.136 36.068 153.351 35.676C153.575 35.2747 153.687 34.8127 153.687 34.29C153.687 33.758 153.575 33.3007 153.351 32.918C153.136 32.526 152.838 32.2227 152.455 32.008C152.082 31.7933 151.662 31.686 151.195 31.686C150.719 31.686 150.294 31.7933 149.921 32.008C149.548 32.2227 149.249 32.526 149.025 32.918C148.801 33.3007 148.689 33.758 148.689 34.29C148.689 34.8127 148.801 35.2747 149.025 35.676C149.249 36.068 149.548 36.3713 149.921 36.586C150.294 36.8007 150.719 36.908 151.195 36.908ZM153.729 38V35.998L153.813 34.276L153.673 32.554V27.612H155.017V38H153.729ZM163.448 38.084C162.832 38.084 162.244 38 161.684 37.832C161.133 37.664 160.699 37.4587 160.382 37.216L160.942 36.152C161.259 36.3667 161.651 36.5487 162.118 36.698C162.585 36.8473 163.061 36.922 163.546 36.922C164.171 36.922 164.619 36.8333 164.89 36.656C165.17 36.4787 165.31 36.2313 165.31 35.914C165.31 35.6807 165.226 35.4987 165.058 35.368C164.89 35.2373 164.666 35.1393 164.386 35.074C164.115 35.0087 163.812 34.9527 163.476 34.906C163.14 34.85 162.804 34.7847 162.468 34.71C162.132 34.626 161.824 34.514 161.544 34.374C161.264 34.2247 161.04 34.024 160.872 33.772C160.704 33.5107 160.62 33.1653 160.62 32.736C160.62 32.288 160.746 31.896 160.998 31.56C161.25 31.224 161.605 30.9673 162.062 30.79C162.529 30.6033 163.079 30.51 163.714 30.51C164.199 30.51 164.689 30.5707 165.184 30.692C165.688 30.804 166.099 30.9673 166.416 31.182L165.842 32.246C165.506 32.022 165.156 31.868 164.792 31.784C164.428 31.7 164.064 31.658 163.7 31.658C163.112 31.658 162.673 31.756 162.384 31.952C162.095 32.1387 161.95 32.3813 161.95 32.68C161.95 32.932 162.034 33.128 162.202 33.268C162.379 33.3987 162.603 33.5013 162.874 33.576C163.154 33.6507 163.462 33.716 163.798 33.772C164.134 33.8187 164.47 33.884 164.806 33.968C165.142 34.0427 165.445 34.15 165.716 34.29C165.996 34.43 166.22 34.626 166.388 34.878C166.565 35.13 166.654 35.466 166.654 35.886C166.654 36.334 166.523 36.7213 166.262 37.048C166.001 37.3747 165.632 37.6313 165.156 37.818C164.68 37.9953 164.111 38.084 163.448 38.084ZM177.616 30.51C178.213 30.51 178.74 30.6267 179.198 30.86C179.655 31.0933 180.01 31.448 180.262 31.924C180.523 32.4 180.654 33.002 180.654 33.73V38H179.31V33.884C179.31 33.1653 179.142 32.624 178.806 32.26C178.47 31.896 177.998 31.714 177.392 31.714C176.944 31.714 176.552 31.8073 176.216 31.994C175.88 32.1807 175.618 32.456 175.432 32.82C175.254 33.184 175.166 33.6367 175.166 34.178V38H173.822V33.884C173.822 33.1653 173.654 32.624 173.318 32.26C172.991 31.896 172.52 31.714 171.904 31.714C171.465 31.714 171.078 31.8073 170.742 31.994C170.406 32.1807 170.144 32.456 169.958 32.82C169.771 33.184 169.678 33.6367 169.678 34.178V38H168.334V30.58H169.622V32.554L169.412 32.05C169.645 31.5647 170.004 31.1867 170.49 30.916C170.975 30.6453 171.54 30.51 172.184 30.51C172.893 30.51 173.504 30.6873 174.018 31.042C174.531 31.3873 174.867 31.9147 175.026 32.624L174.48 32.4C174.704 31.8307 175.096 31.3733 175.656 31.028C176.216 30.6827 176.869 30.51 177.616 30.51ZM187.733 38V36.432L187.663 36.138V33.464C187.663 32.8947 187.495 32.456 187.159 32.148C186.832 31.8307 186.337 31.672 185.675 31.672C185.236 31.672 184.807 31.7467 184.387 31.896C183.967 32.036 183.612 32.2273 183.323 32.47L182.763 31.462C183.145 31.154 183.603 30.9207 184.135 30.762C184.676 30.594 185.241 30.51 185.829 30.51C186.846 30.51 187.63 30.7573 188.181 31.252C188.731 31.7467 189.007 32.5027 189.007 33.52V38H187.733ZM185.297 38.084C184.746 38.084 184.261 37.9907 183.841 37.804C183.43 37.6173 183.113 37.3607 182.889 37.034C182.665 36.698 182.553 36.32 182.553 35.9C182.553 35.4987 182.646 35.1347 182.833 34.808C183.029 34.4813 183.341 34.22 183.771 34.024C184.209 33.828 184.797 33.73 185.535 33.73H187.887V34.696H185.591C184.919 34.696 184.466 34.808 184.233 35.032C183.999 35.256 183.883 35.5267 183.883 35.844C183.883 36.208 184.027 36.502 184.317 36.726C184.606 36.9407 185.007 37.048 185.521 37.048C186.025 37.048 186.463 36.936 186.837 36.712C187.219 36.488 187.495 36.1613 187.663 35.732L187.929 36.656C187.751 37.0947 187.439 37.4447 186.991 37.706C186.543 37.958 185.978 38.084 185.297 38.084ZM191.494 38V27.612H192.838V38H191.494ZM195.404 38V27.612H196.748V38H195.404ZM206.322 40.8C205.64 40.8 204.978 40.702 204.334 40.506C203.699 40.3193 203.181 40.0487 202.78 39.694L203.424 38.658C203.769 38.9567 204.194 39.19 204.698 39.358C205.202 39.5353 205.729 39.624 206.28 39.624C207.157 39.624 207.801 39.4187 208.212 39.008C208.622 38.5973 208.828 37.972 208.828 37.132V35.564L208.968 34.094L208.898 32.61V30.58H210.172V36.992C210.172 38.2987 209.845 39.26 209.192 39.876C208.538 40.492 207.582 40.8 206.322 40.8ZM206.154 37.692C205.435 37.692 204.791 37.5427 204.222 37.244C203.662 36.936 203.214 36.5113 202.878 35.97C202.551 35.4287 202.388 34.8033 202.388 34.094C202.388 33.3753 202.551 32.75 202.878 32.218C203.214 31.6767 203.662 31.2567 204.222 30.958C204.791 30.6593 205.435 30.51 206.154 30.51C206.788 30.51 207.367 30.6407 207.89 30.902C208.412 31.154 208.828 31.546 209.136 32.078C209.453 32.61 209.612 33.282 209.612 34.094C209.612 34.8967 209.453 35.564 209.136 36.096C208.828 36.628 208.412 37.0293 207.89 37.3C207.367 37.5613 206.788 37.692 206.154 37.692ZM206.308 36.516C206.802 36.516 207.241 36.4133 207.624 36.208C208.006 36.0027 208.305 35.718 208.52 35.354C208.744 34.99 208.856 34.57 208.856 34.094C208.856 33.618 208.744 33.198 208.52 32.834C208.305 32.47 208.006 32.19 207.624 31.994C207.241 31.7887 206.802 31.686 206.308 31.686C205.813 31.686 205.37 31.7887 204.978 31.994C204.595 32.19 204.292 32.47 204.068 32.834C203.853 33.198 203.746 33.618 203.746 34.094C203.746 34.57 203.853 34.99 204.068 35.354C204.292 35.718 204.595 36.0027 204.978 36.208C205.37 36.4133 205.813 36.516 206.308 36.516ZM212.74 38V30.58H214.084V38H212.74ZM213.412 29.152C213.15 29.152 212.931 29.068 212.754 28.9C212.586 28.732 212.502 28.5267 212.502 28.284C212.502 28.032 212.586 27.822 212.754 27.654C212.931 27.486 213.15 27.402 213.412 27.402C213.673 27.402 213.888 27.486 214.056 27.654C214.233 27.8127 214.322 28.0133 214.322 28.256C214.322 28.508 214.238 28.7227 214.07 28.9C213.902 29.068 213.682 29.152 213.412 29.152ZM216.846 38V29.922C216.846 29.194 217.056 28.6153 217.476 28.186C217.905 27.7473 218.512 27.528 219.296 27.528C219.585 27.528 219.861 27.5653 220.122 27.64C220.393 27.7053 220.621 27.8127 220.808 27.962L220.402 28.984C220.262 28.872 220.103 28.788 219.926 28.732C219.749 28.6667 219.562 28.634 219.366 28.634C218.974 28.634 218.675 28.746 218.47 28.97C218.265 29.1847 218.162 29.5067 218.162 29.936V30.93L218.19 31.546V38H216.846ZM215.586 31.686V30.58H220.318V31.686H215.586ZM224.134 38.084C223.387 38.084 222.808 37.8833 222.398 37.482C221.987 37.0807 221.782 36.5067 221.782 35.76V28.956H223.126V35.704C223.126 36.1053 223.224 36.4133 223.42 36.628C223.625 36.8427 223.914 36.95 224.288 36.95C224.708 36.95 225.058 36.8333 225.338 36.6L225.758 37.566C225.552 37.7433 225.305 37.874 225.016 37.958C224.736 38.042 224.442 38.084 224.134 38.084ZM220.522 31.686V30.58H225.254V31.686H220.522ZM227.382 38V30.58H228.726V38H227.382ZM228.054 29.152C227.793 29.152 227.574 29.068 227.396 28.9C227.228 28.732 227.144 28.5267 227.144 28.284C227.144 28.032 227.228 27.822 227.396 27.654C227.574 27.486 227.793 27.402 228.054 27.402C228.316 27.402 228.53 27.486 228.698 27.654C228.876 27.8127 228.964 28.0133 228.964 28.256C228.964 28.508 228.88 28.7227 228.712 28.9C228.544 29.068 228.325 29.152 228.054 29.152ZM235.255 30.51C235.861 30.51 236.393 30.6267 236.851 30.86C237.317 31.0933 237.681 31.448 237.943 31.924C238.204 32.4 238.335 33.002 238.335 33.73V38H236.991V33.884C236.991 33.1653 236.813 32.624 236.459 32.26C236.113 31.896 235.623 31.714 234.989 31.714C234.513 31.714 234.097 31.8073 233.743 31.994C233.388 32.1807 233.113 32.456 232.917 32.82C232.73 33.184 232.637 33.6367 232.637 34.178V38H231.293V30.58H232.581V32.582L232.371 32.05C232.613 31.5647 232.987 31.1867 233.491 30.916C233.995 30.6453 234.583 30.51 235.255 30.51ZM244.07 40.8C243.389 40.8 242.726 40.702 242.082 40.506C241.447 40.3193 240.929 40.0487 240.528 39.694L241.172 38.658C241.517 38.9567 241.942 39.19 242.446 39.358C242.95 39.5353 243.477 39.624 244.028 39.624C244.905 39.624 245.549 39.4187 245.96 39.008C246.371 38.5973 246.576 37.972 246.576 37.132V35.564L246.716 34.094L246.646 32.61V30.58H247.92V36.992C247.92 38.2987 247.593 39.26 246.94 39.876C246.287 40.492 245.33 40.8 244.07 40.8ZM243.902 37.692C243.183 37.692 242.539 37.5427 241.97 37.244C241.41 36.936 240.962 36.5113 240.626 35.97C240.299 35.4287 240.136 34.8033 240.136 34.094C240.136 33.3753 240.299 32.75 240.626 32.218C240.962 31.6767 241.41 31.2567 241.97 30.958C242.539 30.6593 243.183 30.51 243.902 30.51C244.537 30.51 245.115 30.6407 245.638 30.902C246.161 31.154 246.576 31.546 246.884 32.078C247.201 32.61 247.36 33.282 247.36 34.094C247.36 34.8967 247.201 35.564 246.884 36.096C246.576 36.628 246.161 37.0293 245.638 37.3C245.115 37.5613 244.537 37.692 243.902 37.692ZM244.056 36.516C244.551 36.516 244.989 36.4133 245.372 36.208C245.755 36.0027 246.053 35.718 246.268 35.354C246.492 34.99 246.604 34.57 246.604 34.094C246.604 33.618 246.492 33.198 246.268 32.834C246.053 32.47 245.755 32.19 245.372 31.994C244.989 31.7887 244.551 31.686 244.056 31.686C243.561 31.686 243.118 31.7887 242.726 31.994C242.343 32.19 242.04 32.47 241.816 32.834C241.601 33.198 241.494 33.618 241.494 34.094C241.494 34.57 241.601 34.99 241.816 35.354C242.04 35.718 242.343 36.0027 242.726 36.208C243.118 36.4133 243.561 36.516 244.056 36.516ZM250.81 38.084C250.549 38.084 250.325 37.9953 250.138 37.818C249.951 37.6313 249.858 37.398 249.858 37.118C249.858 36.838 249.951 36.6093 250.138 36.432C250.325 36.2547 250.549 36.166 250.81 36.166C251.062 36.166 251.277 36.2547 251.454 36.432C251.641 36.6093 251.734 36.838 251.734 37.118C251.734 37.398 251.641 37.6313 251.454 37.818C251.277 37.9953 251.062 38.084 250.81 38.084Z" fill="black"/>
</svg>
