<svg width="165" height="50" viewBox="0 0 165 50" fill="none" xmlns="http://www.w3.org/2000/svg">
<g filter="url(#filter0_d_2040_354)">
<rect x="24.1406" y="4.7168" width="33" height="31" rx="6" transform="rotate(46.3303 24.1406 4.7168)" fill="white"/>
</g>
<path d="M20.1982 21.1045H28.2373C28.4651 21.1045 28.6809 21.2079 28.8232 21.3857L30.3037 23.2363C30.4101 23.3693 30.4677 23.5348 30.4678 23.7051V33.3545C30.4678 33.7687 30.132 34.1045 29.7178 34.1045H18.7178C18.3036 34.1045 17.9678 33.7687 17.9678 33.3545V23.7051C17.9678 23.5348 18.0255 23.3693 18.1318 23.2363L19.6123 21.3857C19.7546 21.2079 19.9705 21.1045 20.1982 21.1045Z" stroke="black" stroke-width="0.5"/>
<path d="M18.2178 23.3545H30.2178" stroke="black" stroke-width="0.5"/>
<path d="M26.4678 23.6045V29.834L24.374 28.1592L24.2178 28.0342L24.0615 28.1592L21.9678 29.834V23.6045H26.4678Z" stroke="black" stroke-width="0.5"/>
<path d="M56.047 23.667V14.219H60.1367C60.9825 14.219 61.7113 14.3585 62.3232 14.6374C62.9351 14.9073 63.4075 15.2988 63.7404 15.8117C64.0733 16.3245 64.2398 16.9364 64.2398 17.6473C64.2398 18.3491 64.0733 18.9565 63.7404 19.4694C63.4075 19.9823 62.9351 20.3782 62.3232 20.6571C61.7113 20.9271 60.9825 21.062 60.1367 21.062H57.2618L58.2336 20.0768V23.667H56.047ZM58.2336 20.3197L57.2618 19.2804H60.0152C60.69 19.2804 61.1939 19.1365 61.5269 18.8485C61.8598 18.5606 62.0263 18.1602 62.0263 17.6473C62.0263 17.1254 61.8598 16.7205 61.5269 16.4325C61.1939 16.1446 60.69 16.0006 60.0152 16.0006H57.2618L58.2336 14.9613V20.3197ZM69.1484 23.775C68.3656 23.775 67.6682 23.6175 67.0564 23.3026C66.4445 22.9786 65.9631 22.5332 65.6122 21.9664C65.2702 21.3995 65.0993 20.7561 65.0993 20.0363C65.0993 19.3074 65.2702 18.6641 65.6122 18.1062C65.9631 17.5393 66.4445 17.0984 67.0564 16.7834C67.6682 16.4595 68.3656 16.2976 69.1484 16.2976C69.9133 16.2976 70.5791 16.4595 71.146 16.7834C71.7129 17.0984 72.1313 17.5528 72.4012 18.1467L70.7681 19.024C70.5791 18.682 70.3407 18.4301 70.0527 18.2681C69.7738 18.1062 69.4679 18.0252 69.1349 18.0252C68.775 18.0252 68.4511 18.1062 68.1631 18.2681C67.8752 18.4301 67.6457 18.6596 67.4748 18.9565C67.3128 19.2534 67.2318 19.6133 67.2318 20.0363C67.2318 20.4592 67.3128 20.8191 67.4748 21.116C67.6457 21.413 67.8752 21.6424 68.1631 21.8044C68.4511 21.9664 68.775 22.0473 69.1349 22.0473C69.4679 22.0473 69.7738 21.9709 70.0527 21.8179C70.3407 21.6559 70.5791 21.3995 70.7681 21.0485L72.4012 21.9394C72.1313 22.5242 71.7129 22.9786 71.146 23.3026C70.5791 23.6175 69.9133 23.775 69.1484 23.775ZM76.0565 23.775C75.4357 23.775 74.8373 23.703 74.2614 23.559C73.6945 23.406 73.2446 23.2171 72.9117 22.9921L73.6136 21.4805C73.9465 21.6874 74.3379 21.8584 74.7878 21.9933C75.2467 22.1193 75.6966 22.1823 76.1375 22.1823C76.6234 22.1823 76.9653 22.1238 77.1633 22.0068C77.3703 21.8899 77.4737 21.7279 77.4737 21.5209C77.4737 21.35 77.3928 21.224 77.2308 21.143C77.0778 21.053 76.8709 20.9856 76.6099 20.9406C76.349 20.8956 76.061 20.8506 75.7461 20.8056C75.4402 20.7606 75.1297 20.7021 74.8148 20.6301C74.4999 20.5492 74.2119 20.4322 73.951 20.2792C73.69 20.1262 73.4786 19.9193 73.3166 19.6583C73.1636 19.3974 73.0872 19.06 73.0872 18.6461C73.0872 18.1872 73.2176 17.7822 73.4786 17.4313C73.7485 17.0804 74.1354 16.8059 74.6393 16.608C75.1432 16.401 75.7461 16.2976 76.448 16.2976C76.9428 16.2976 77.4467 16.3515 77.9596 16.4595C78.4725 16.5675 78.8999 16.725 79.2419 16.9319L78.54 18.4301C78.1891 18.2231 77.8337 18.0837 77.4737 18.0117C77.1228 17.9307 76.7809 17.8902 76.448 17.8902C75.9801 17.8902 75.6381 17.9532 75.4222 18.0792C75.2062 18.2051 75.0982 18.3671 75.0982 18.5651C75.0982 18.745 75.1747 18.88 75.3277 18.97C75.4897 19.06 75.7011 19.132 75.9621 19.1859C76.223 19.2399 76.5064 19.2894 76.8124 19.3344C77.1273 19.3704 77.4422 19.4289 77.7572 19.5099C78.0721 19.5909 78.3556 19.7078 78.6075 19.8608C78.8684 20.0048 79.0799 20.2072 79.2419 20.4682C79.4038 20.7201 79.4848 21.053 79.4848 21.467C79.4848 21.9169 79.3498 22.3173 79.0799 22.6682C78.81 23.0101 78.4185 23.2801 77.9056 23.478C77.4018 23.676 76.7854 23.775 76.0565 23.775ZM84.7548 23.667V14.219H88.8444C89.6903 14.219 90.4191 14.3585 91.031 14.6374C91.6429 14.9073 92.1153 15.2988 92.4482 15.8117C92.7811 16.3245 92.9476 16.9364 92.9476 17.6473C92.9476 18.3491 92.7811 18.9565 92.4482 19.4694C92.1153 19.9823 91.6429 20.3782 91.031 20.6571C90.4191 20.9271 89.6903 21.062 88.8444 21.062H85.9696L86.9414 20.0768V23.667H84.7548ZM86.9414 20.3197L85.9696 19.2804H88.723C89.3978 19.2804 89.9017 19.1365 90.2347 18.8485C90.5676 18.5606 90.734 18.1602 90.734 17.6473C90.734 17.1254 90.5676 16.7205 90.2347 16.4325C89.9017 16.1446 89.3978 16.0006 88.723 16.0006H85.9696L86.9414 14.9613V20.3197ZM97.9507 23.775C97.1229 23.775 96.394 23.613 95.7642 23.2891C95.1433 22.9651 94.6619 22.5242 94.32 21.9664C93.978 21.3995 93.8071 20.7561 93.8071 20.0363C93.8071 19.3074 93.9735 18.6641 94.3065 18.1062C94.6484 17.5393 95.1118 17.0984 95.6967 16.7834C96.2815 16.4595 96.9429 16.2976 97.6808 16.2976C98.3916 16.2976 99.0305 16.4505 99.5973 16.7565C100.173 17.0534 100.628 17.4853 100.961 18.0522C101.293 18.6101 101.46 19.2804 101.46 20.0633C101.46 20.1442 101.455 20.2387 101.446 20.3467C101.437 20.4457 101.428 20.5402 101.419 20.6301H95.5212V19.4019H100.313L99.5029 19.7663C99.5029 19.3884 99.4264 19.06 99.2734 18.781C99.1204 18.5021 98.909 18.2861 98.6391 18.1332C98.3691 17.9712 98.0542 17.8902 97.6943 17.8902C97.3343 17.8902 97.0149 17.9712 96.736 18.1332C96.466 18.2861 96.2546 18.5066 96.1016 18.7945C95.9486 19.0735 95.8721 19.4064 95.8721 19.7933V20.1172C95.8721 20.5132 95.9576 20.8641 96.1286 21.17C96.3085 21.467 96.556 21.6964 96.8709 21.8584C97.1949 22.0113 97.5728 22.0878 98.0047 22.0878C98.3916 22.0878 98.729 22.0293 99.017 21.9124C99.3139 21.7954 99.5839 21.6199 99.8268 21.386L100.947 22.6007C100.614 22.9786 100.196 23.2711 99.6918 23.478C99.1879 23.676 98.6076 23.775 97.9507 23.775ZM102.862 23.667V16.4055H104.873V18.4571L104.589 17.8632C104.805 17.3503 105.152 16.9634 105.629 16.7025C106.106 16.4325 106.686 16.2976 107.37 16.2976V18.2411C107.28 18.2321 107.199 18.2276 107.127 18.2276C107.055 18.2186 106.978 18.2141 106.897 18.2141C106.322 18.2141 105.854 18.3806 105.494 18.7135C105.143 19.0375 104.967 19.5459 104.967 20.2387V23.667H102.862ZM112.645 23.667V14.219H117.261C118.449 14.219 119.34 14.4439 119.934 14.8938C120.537 15.3438 120.838 15.9376 120.838 16.6755C120.838 17.1704 120.717 17.6023 120.474 17.9712C120.231 18.3311 119.898 18.6101 119.475 18.808C119.052 19.006 118.566 19.105 118.017 19.105L118.274 18.5516C118.868 18.5516 119.394 18.6506 119.853 18.8485C120.312 19.0375 120.667 19.3209 120.919 19.6988C121.18 20.0768 121.311 20.5402 121.311 21.089C121.311 21.8989 120.991 22.5332 120.352 22.9921C119.713 23.442 118.773 23.667 117.531 23.667H112.645ZM114.818 22.0203H117.369C117.936 22.0203 118.364 21.9304 118.652 21.7504C118.949 21.5614 119.097 21.2645 119.097 20.8596C119.097 20.4637 118.949 20.1712 118.652 19.9823C118.364 19.7843 117.936 19.6853 117.369 19.6853H114.656V18.0927H116.991C117.522 18.0927 117.927 18.0027 118.206 17.8227C118.494 17.6338 118.638 17.3503 118.638 16.9724C118.638 16.6035 118.494 16.329 118.206 16.1491C117.927 15.9601 117.522 15.8656 116.991 15.8656H114.818V22.0203ZM126.273 23.775C125.499 23.775 124.811 23.613 124.208 23.2891C123.614 22.9651 123.141 22.5242 122.791 21.9664C122.449 21.3995 122.278 20.7561 122.278 20.0363C122.278 19.3074 122.449 18.6641 122.791 18.1062C123.141 17.5393 123.614 17.0984 124.208 16.7834C124.811 16.4595 125.499 16.2976 126.273 16.2976C127.038 16.2976 127.721 16.4595 128.324 16.7834C128.927 17.0984 129.4 17.5348 129.742 18.0927C130.083 18.6506 130.254 19.2984 130.254 20.0363C130.254 20.7561 130.083 21.3995 129.742 21.9664C129.4 22.5242 128.927 22.9651 128.324 23.2891C127.721 23.613 127.038 23.775 126.273 23.775ZM126.273 22.0473C126.624 22.0473 126.939 21.9664 127.218 21.8044C127.497 21.6424 127.717 21.413 127.879 21.116C128.041 20.8101 128.122 20.4502 128.122 20.0363C128.122 19.6133 128.041 19.2534 127.879 18.9565C127.717 18.6596 127.497 18.4301 127.218 18.2681C126.939 18.1062 126.624 18.0252 126.273 18.0252C125.922 18.0252 125.607 18.1062 125.328 18.2681C125.049 18.4301 124.824 18.6596 124.653 18.9565C124.491 19.2534 124.41 19.6133 124.41 20.0363C124.41 20.4502 124.491 20.8101 124.653 21.116C124.824 21.413 125.049 21.6424 125.328 21.8044C125.607 21.9664 125.922 22.0473 126.273 22.0473ZM130.52 23.667L133.773 19.4019L133.732 20.5626L130.614 16.4055H132.976L134.947 19.1185L134.056 19.1454L136.094 16.4055H138.335L135.203 20.5222V19.3884L138.443 23.667H136.054L133.989 20.7786L134.866 20.9001L132.814 23.667H130.52Z" fill="black"/>
<path d="M56.8838 41.041V33.5051L57.2438 33.8875H55.028V33.1677H57.6937V41.041H56.8838ZM62.7138 41.1085C62.1064 41.1085 61.5665 40.951 61.0941 40.6361C60.6217 40.3137 60.2506 39.8563 59.9806 39.2639C59.7107 38.664 59.5757 37.9442 59.5757 37.1043C59.5757 36.2645 59.7107 35.5484 59.9806 34.9561C60.2506 34.3562 60.6217 33.8988 61.0941 33.5838C61.5665 33.2614 62.1064 33.1002 62.7138 33.1002C63.3212 33.1002 63.8611 33.2614 64.3335 33.5838C64.8059 33.8988 65.177 34.3562 65.447 34.9561C65.7244 35.5484 65.8631 36.2645 65.8631 37.1043C65.8631 37.9442 65.7244 38.664 65.447 39.2639C65.177 39.8563 64.8059 40.3137 64.3335 40.6361C63.8611 40.951 63.3212 41.1085 62.7138 41.1085ZM62.7138 40.3662C63.1787 40.3662 63.5836 40.2424 63.9285 39.995C64.2735 39.74 64.5434 39.3726 64.7384 38.8927C64.9333 38.4053 65.0308 37.8092 65.0308 37.1043C65.0308 36.3995 64.9333 35.8071 64.7384 35.3272C64.5434 34.8398 64.2735 34.4724 63.9285 34.225C63.5836 33.97 63.1787 33.8425 62.7138 33.8425C62.2639 33.8425 61.8627 33.97 61.5103 34.225C61.1579 34.4724 60.8842 34.8398 60.6892 35.3272C60.4943 35.8071 60.3968 36.3995 60.3968 37.1043C60.3968 37.8092 60.4943 38.4053 60.6892 38.8927C60.8842 39.3726 61.1579 39.74 61.5103 39.995C61.8627 40.2424 62.2639 40.3662 62.7138 40.3662ZM70.161 41.1085C69.5536 41.1085 69.0137 40.951 68.5413 40.6361C68.0689 40.3137 67.6977 39.8563 67.4278 39.2639C67.1578 38.664 67.0229 37.9442 67.0229 37.1043C67.0229 36.2645 67.1578 35.5484 67.4278 34.9561C67.6977 34.3562 68.0689 33.8988 68.5413 33.5838C69.0137 33.2614 69.5536 33.1002 70.161 33.1002C70.7683 33.1002 71.3082 33.2614 71.7806 33.5838C72.253 33.8988 72.6242 34.3562 72.8941 34.9561C73.1716 35.5484 73.3103 36.2645 73.3103 37.1043C73.3103 37.9442 73.1716 38.664 72.8941 39.2639C72.6242 39.8563 72.253 40.3137 71.7806 40.6361C71.3082 40.951 70.7683 41.1085 70.161 41.1085ZM70.161 40.3662C70.6259 40.3662 71.0308 40.2424 71.3757 39.995C71.7206 39.74 71.9906 39.3726 72.1855 38.8927C72.3805 38.4053 72.478 37.8092 72.478 37.1043C72.478 36.3995 72.3805 35.8071 72.1855 35.3272C71.9906 34.8398 71.7206 34.4724 71.3757 34.225C71.0308 33.97 70.6259 33.8425 70.161 33.8425C69.7111 33.8425 69.3099 33.97 68.9575 34.225C68.605 34.4724 68.3313 34.8398 68.1364 35.3272C67.9414 35.8071 67.8439 36.3995 67.8439 37.1043C67.8439 37.8092 67.9414 38.4053 68.1364 38.8927C68.3313 39.3726 68.605 39.74 68.9575 39.995C69.3099 40.2424 69.7111 40.3662 70.161 40.3662ZM77.6081 41.1085C77.0007 41.1085 76.4609 40.951 75.9885 40.6361C75.5161 40.3137 75.1449 39.8563 74.8749 39.2639C74.605 38.664 74.47 37.9442 74.47 37.1043C74.47 36.2645 74.605 35.5484 74.8749 34.9561C75.1449 34.3562 75.5161 33.8988 75.9885 33.5838C76.4609 33.2614 77.0007 33.1002 77.6081 33.1002C78.2155 33.1002 78.7554 33.2614 79.2278 33.5838C79.7002 33.8988 80.0713 34.3562 80.3413 34.9561C80.6187 35.5484 80.7574 36.2645 80.7574 37.1043C80.7574 37.9442 80.6187 38.664 80.3413 39.2639C80.0713 39.8563 79.7002 40.3137 79.2278 40.6361C78.7554 40.951 78.2155 41.1085 77.6081 41.1085ZM77.6081 40.3662C78.073 40.3662 78.4779 40.2424 78.8229 39.995C79.1678 39.74 79.4377 39.3726 79.6327 38.8927C79.8276 38.4053 79.9251 37.8092 79.9251 37.1043C79.9251 36.3995 79.8276 35.8071 79.6327 35.3272C79.4377 34.8398 79.1678 34.4724 78.8229 34.225C78.4779 33.97 78.073 33.8425 77.6081 33.8425C77.1582 33.8425 76.757 33.97 76.4046 34.225C76.0522 34.4724 75.7785 34.8398 75.5835 35.3272C75.3886 35.8071 75.2911 36.3995 75.2911 37.1043C75.2911 37.8092 75.3886 38.4053 75.5835 38.8927C75.7785 39.3726 76.0522 39.74 76.4046 39.995C76.757 40.2424 77.1582 40.3662 77.6081 40.3662ZM85.5582 41.041V33.1677H86.2444L91.677 40.0062H91.317V33.1677H92.1381V41.041H91.452L86.0306 34.2025H86.3906V41.041H85.5582ZM96.9462 41.0973C96.3763 41.0973 95.8627 40.9698 95.4053 40.7148C94.9554 40.4524 94.5992 40.0962 94.3368 39.6463C94.0743 39.1889 93.9431 38.6678 93.9431 38.0829C93.9431 37.4905 94.0743 36.9694 94.3368 36.5195C94.5992 36.0696 94.9554 35.7171 95.4053 35.4622C95.8552 35.2072 96.3688 35.0798 96.9462 35.0798C97.5311 35.0798 98.0485 35.2072 98.4984 35.4622C98.9558 35.7171 99.3119 36.0696 99.5669 36.5195C99.8293 36.9694 99.9606 37.4905 99.9606 38.0829C99.9606 38.6678 99.8293 39.1889 99.5669 39.6463C99.3119 40.0962 98.9558 40.4524 98.4984 40.7148C98.041 40.9698 97.5236 41.0973 96.9462 41.0973ZM96.9462 40.3887C97.3736 40.3887 97.7523 40.2949 98.0822 40.1075C98.4121 39.9125 98.6708 39.6426 98.8583 39.2976C99.0533 38.9452 99.1507 38.5403 99.1507 38.0829C99.1507 37.618 99.0533 37.2131 98.8583 36.8681C98.6708 36.5232 98.4121 36.257 98.0822 36.0696C97.7523 35.8746 97.3774 35.7771 96.9574 35.7771C96.5375 35.7771 96.1626 35.8746 95.8327 36.0696C95.5028 36.257 95.2403 36.5232 95.0454 36.8681C94.8504 37.2131 94.7529 37.618 94.7529 38.0829C94.7529 38.5403 94.8504 38.9452 95.0454 39.2976C95.2403 39.6426 95.5028 39.9125 95.8327 40.1075C96.1626 40.2949 96.5338 40.3887 96.9462 40.3887ZM103.177 41.0973C102.689 41.0973 102.228 41.0298 101.793 40.8948C101.358 40.7523 101.017 40.5761 100.77 40.3662L101.13 39.7363C101.37 39.9163 101.677 40.0737 102.052 40.2087C102.427 40.3362 102.821 40.3999 103.233 40.3999C103.795 40.3999 104.2 40.3137 104.448 40.1412C104.695 39.9612 104.819 39.725 104.819 39.4326C104.819 39.2152 104.748 39.0464 104.605 38.9265C104.47 38.799 104.29 38.7053 104.065 38.6453C103.84 38.5778 103.589 38.5215 103.312 38.4766C103.034 38.4316 102.757 38.3791 102.48 38.3191C102.21 38.2591 101.962 38.1729 101.737 38.0604C101.512 37.9404 101.328 37.7792 101.186 37.5767C101.051 37.3743 100.984 37.1043 100.984 36.7669C100.984 36.4445 101.074 36.1558 101.254 35.9009C101.433 35.6459 101.696 35.4472 102.041 35.3047C102.393 35.1548 102.821 35.0798 103.323 35.0798C103.705 35.0798 104.088 35.1323 104.47 35.2372C104.853 35.3347 105.168 35.4659 105.415 35.6309L105.066 36.272C104.804 36.0921 104.523 35.9646 104.223 35.8896C103.923 35.8071 103.623 35.7659 103.323 35.7659C102.791 35.7659 102.397 35.8596 102.142 36.0471C101.895 36.227 101.771 36.4595 101.771 36.7444C101.771 36.9694 101.838 37.1456 101.973 37.2731C102.116 37.4005 102.3 37.5018 102.524 37.5767C102.757 37.6442 103.008 37.7005 103.278 37.7455C103.556 37.7905 103.829 37.8467 104.099 37.9142C104.377 37.9742 104.628 38.0604 104.853 38.1729C105.085 38.2778 105.269 38.4316 105.404 38.634C105.546 38.829 105.618 39.0877 105.618 39.4101C105.618 39.755 105.52 40.055 105.325 40.3099C105.138 40.5574 104.86 40.7523 104.493 40.8948C104.133 41.0298 103.694 41.0973 103.177 41.0973ZM105.688 42.1658L109.4 31.5705H110.131L106.419 42.1658H105.688ZM112.534 41.0973C111.949 41.0973 111.424 40.9698 110.959 40.7148C110.501 40.4524 110.142 40.0962 109.879 39.6463C109.617 39.1889 109.485 38.6678 109.485 38.0829C109.485 37.4905 109.617 36.9694 109.879 36.5195C110.142 36.0696 110.501 35.7171 110.959 35.4622C111.424 35.2072 111.949 35.0798 112.534 35.0798C113.036 35.0798 113.49 35.1773 113.895 35.3722C114.299 35.5672 114.618 35.8596 114.851 36.2495L114.254 36.6544C114.052 36.3545 113.801 36.1333 113.501 35.9908C113.201 35.8484 112.875 35.7771 112.522 35.7771C112.102 35.7771 111.724 35.8746 111.386 36.0696C111.049 36.257 110.783 36.5232 110.588 36.8681C110.393 37.2131 110.295 37.618 110.295 38.0829C110.295 38.5478 110.393 38.9527 110.588 39.2976C110.783 39.6426 111.049 39.9125 111.386 40.1075C111.724 40.2949 112.102 40.3887 112.522 40.3887C112.875 40.3887 113.201 40.3174 113.501 40.1749C113.801 40.0325 114.052 39.815 114.254 39.5226L114.851 39.9275C114.618 40.3099 114.299 40.6024 113.895 40.8048C113.49 40.9998 113.036 41.0973 112.534 41.0973ZM118.352 41.0973C117.797 41.0973 117.37 40.9473 117.07 40.6473C116.77 40.3474 116.62 39.9238 116.62 39.3764V33.8313H117.419V39.3314C117.419 39.6763 117.505 39.9425 117.677 40.13C117.857 40.3174 118.112 40.4111 118.442 40.4111C118.795 40.4111 119.087 40.3099 119.32 40.1075L119.601 40.6811C119.443 40.8236 119.252 40.9285 119.027 40.996C118.81 41.0635 118.585 41.0973 118.352 41.0973ZM115.563 35.7996V35.136H119.218V35.7996H115.563ZM124.069 35.0798C124.549 35.0798 124.969 35.1735 125.329 35.361C125.696 35.5409 125.981 35.8184 126.184 36.1933C126.393 36.5682 126.498 37.0406 126.498 37.6105V41.041H125.7V37.6892C125.7 37.0669 125.542 36.5982 125.227 36.2833C124.92 35.9608 124.485 35.7996 123.923 35.7996C123.503 35.7996 123.135 35.8859 122.82 36.0583C122.513 36.2233 122.273 36.467 122.101 36.7894C121.936 37.1043 121.853 37.4868 121.853 37.9367V41.041H121.055V35.136H121.819V36.7557L121.696 36.452C121.883 36.0246 122.183 35.6909 122.596 35.4509C123.008 35.2035 123.499 35.0798 124.069 35.0798Z" fill="black"/>
<defs>
<filter id="filter0_d_2040_354" x="0.000195503" y="0.000195503" width="48.6441" height="48.7096" filterUnits="userSpaceOnUse" color-interpolation-filters="sRGB">
<feFlood flood-opacity="0" result="BackgroundImageFix"/>
<feColorMatrix in="SourceAlpha" type="matrix" values="0 0 0 0 0 0 0 0 0 0 0 0 0 0 0 0 0 0 127 0" result="hardAlpha"/>
<feOffset dy="-3"/>
<feGaussianBlur stdDeviation="2.1"/>
<feComposite in2="hardAlpha" operator="out"/>
<feColorMatrix type="matrix" values="0 0 0 0 0 0 0 0 0 0 0 0 0 0 0 0 0 0 0.25 0"/>
<feBlend mode="normal" in2="BackgroundImageFix" result="effect1_dropShadow_2040_354"/>
<feBlend mode="normal" in="SourceGraphic" in2="effect1_dropShadow_2040_354" result="shape"/>
</filter>
</defs>
</svg>
