<svg width="326" height="76" viewBox="0 0 326 76" fill="none" xmlns="http://www.w3.org/2000/svg">
<path d="M17.209 47.8502C15.2022 47.8529 13.2784 47.5928 11.4377 47.0697C9.59685 46.5227 8.11406 45.8199 6.9893 44.9614L8.95065 40.5867C10.0274 41.3497 11.295 41.9811 12.7535 42.4808C14.2358 42.9566 15.7295 43.1935 17.2346 43.1915C18.3813 43.1899 19.3009 43.0811 19.9933 42.8652C20.7095 42.6253 21.2343 42.302 21.5679 41.8954C21.9015 41.4888 22.0677 41.0228 22.0666 40.4972C22.0651 39.8282 21.8011 39.303 21.2747 38.9214C20.7482 38.516 20.0546 38.1944 19.194 37.9567C18.3334 37.6951 17.3772 37.4575 16.3256 37.2439C15.2977 37.0064 14.2578 36.7211 13.2059 36.388C12.1779 36.055 11.2332 35.6262 10.372 35.1018C9.51078 34.5774 8.80447 33.8855 8.25309 33.0262C7.72559 32.1668 7.46037 31.0682 7.45742 29.7303C7.45426 28.2969 7.83364 26.9943 8.59557 25.8226C9.38133 24.627 10.5499 23.6817 12.1013 22.9868C13.6765 22.2679 15.6467 21.9069 18.0119 21.9036C19.5887 21.9015 21.142 22.0905 22.6719 22.4707C24.2017 22.827 25.5527 23.3746 26.725 24.1136L24.9429 28.5239C23.7708 27.8566 22.599 27.3684 21.4277 27.0594C20.2563 26.7265 19.1092 26.5609 17.9863 26.5624C16.8634 26.5639 15.9439 26.6966 15.2278 26.9603C14.5117 27.2241 13.9988 27.5712 13.6891 28.0017C13.3794 28.4083 13.2252 28.8863 13.2264 29.4358C13.2278 30.0808 13.4918 30.6061 14.0183 31.0115C14.5447 31.393 15.2383 31.7027 16.0988 31.9404C16.9594 32.1781 17.9037 32.4158 18.9315 32.6533C19.9832 32.8908 21.0231 33.1641 22.0511 33.4733C23.1029 33.7824 24.0595 34.1992 24.9207 34.7236C25.782 35.2481 26.4763 35.9399 27.0038 36.7993C27.5552 37.6586 27.8323 38.7453 27.8352 40.0593C27.8383 41.4688 27.447 42.7595 26.6612 43.9312C25.8754 45.1029 24.6948 46.0482 23.1196 46.7671C21.5683 47.4859 19.5981 47.847 17.209 47.8502ZM33.2518 47.3983L33.1965 22.313L45.4525 22.2963C48.606 22.292 50.9726 22.8861 52.552 24.0785C54.1553 25.2708 54.9591 26.8466 54.9634 28.8056C54.9663 30.1196 54.6463 31.2668 54.0034 32.2472C53.3605 33.2037 52.4782 33.9455 51.3565 34.4726C50.2348 34.9998 48.9452 35.2643 47.4879 35.2663L48.1655 33.7961C49.7423 33.7939 51.1405 34.0548 52.3601 34.5788C53.5797 35.0788 54.525 35.8301 55.1962 36.8326C55.8912 37.8351 56.2403 39.065 56.2435 40.5223C56.2483 42.6725 55.4039 44.3579 53.7103 45.5787C52.0167 46.7755 49.5214 47.3762 46.2245 47.3807L33.2518 47.3983ZM39.0118 43.0185L45.7848 43.0093C47.2899 43.0072 48.4242 42.7668 49.1877 42.2879C49.975 41.7851 50.3674 40.9962 50.3651 39.9211C50.3627 38.8699 49.9668 38.094 49.1773 37.5934C48.4117 37.0688 47.2763 36.8075 45.7712 36.8096L38.5681 36.8194L38.5587 32.5907L44.7584 32.5823C46.168 32.5804 47.2425 32.34 47.9821 31.8612C48.7455 31.3584 49.1261 30.6054 49.1239 29.6019C49.1217 28.6224 48.7379 27.8943 47.9723 27.4175C47.2306 26.9168 46.1549 26.6674 44.7454 26.6693L38.9757 26.6772L39.0118 43.0185ZM60.9591 39.5125L60.9492 35.033L71.0909 35.0192L71.1008 39.4987L60.9591 39.5125ZM78.8679 47.3363L78.8174 24.4011L81.3314 26.9062L73.8058 26.9165L73.7956 22.2578L84.6181 22.243L84.6734 47.3284L78.8679 47.3363ZM101.682 47.7353C99.3888 47.7384 97.3928 47.2633 95.6945 46.3099C94.02 45.3566 92.7268 43.9607 91.8149 42.1224C90.903 40.284 90.4441 38.015 90.4381 35.3154C90.4317 32.4246 90.9639 29.975 92.0346 27.9668C93.1291 25.9584 94.6309 24.4274 96.5398 23.3736C98.4726 22.3197 100.693 21.7911 103.202 21.7877C104.54 21.7859 105.818 21.9275 107.037 22.2125C108.256 22.4976 109.308 22.9262 110.194 23.4983L108.053 27.7658C107.359 27.2889 106.618 26.9674 105.829 26.8012C105.04 26.6112 104.216 26.5167 103.356 26.5179C101.182 26.5209 99.4629 27.1802 98.1996 28.4959C96.9363 29.8116 96.3074 31.7596 96.3131 34.3398C96.3141 34.7698 96.3151 35.2476 96.3163 35.7732C96.3413 36.2988 96.4142 36.8243 96.5348 37.3497L94.9188 35.8468C95.3707 34.9145 95.9543 34.1372 96.6697 33.5151C97.385 32.869 98.232 32.3901 99.2109 32.0782C100.214 31.7423 101.312 31.5736 102.507 31.572C104.131 31.5698 105.589 31.8903 106.881 32.5336C108.172 33.1769 109.202 34.0833 109.969 35.2529C110.76 36.4225 111.157 37.7957 111.16 39.3725C111.164 41.0687 110.737 42.5506 109.88 43.8179C109.047 45.0614 107.914 46.0305 106.482 46.7253C105.074 47.3962 103.474 47.7328 101.682 47.7353ZM101.35 43.3995C102.162 43.3984 102.879 43.2541 103.499 42.9666C104.144 42.6551 104.645 42.2124 105.002 41.6386C105.359 41.0647 105.536 40.4075 105.535 39.6668C105.532 38.5201 105.136 37.6128 104.346 36.9449C103.58 36.2531 102.552 35.9081 101.262 35.9098C100.402 35.911 99.6497 36.0793 99.0054 36.4146C98.3611 36.7261 97.8484 37.1688 97.4674 37.7427C97.1102 38.2926 96.9325 38.9379 96.9341 39.6785C96.9357 40.3953 97.1163 41.0401 97.4759 41.613C97.8355 42.162 98.3382 42.6033 98.984 42.9369C99.6297 43.2466 100.418 43.4008 101.35 43.3995ZM115.339 39.4385L115.329 34.959L125.471 34.9452L125.481 39.4247L115.339 39.4385ZM129.373 47.2675L129.364 43.5047L139.02 34.3533C139.783 33.6595 140.343 33.0375 140.7 32.4876C141.057 31.9376 141.295 31.4356 141.414 30.9815C141.556 30.5274 141.627 30.1092 141.626 29.7269C141.624 28.7235 141.276 27.9595 140.582 27.4348C139.911 26.8862 138.919 26.6128 137.605 26.6146C136.554 26.6161 135.575 26.8205 134.668 27.2278C133.785 27.6352 133.034 28.2693 132.415 29.1302L128.18 26.4124C129.132 24.9777 130.468 23.8411 132.186 23.0025C133.904 22.164 135.886 21.7432 138.132 21.7402C139.996 21.7376 141.621 22.046 143.008 22.6653C144.419 23.2606 145.508 24.1073 146.275 25.2052C147.065 26.3031 147.463 27.6166 147.466 29.1456C147.468 29.9579 147.362 30.7703 147.149 31.5829C146.959 32.3715 146.555 33.2083 145.936 34.0931C145.341 34.9779 144.459 35.9705 143.291 37.0711L135.28 44.6434L134.164 42.5306L148.32 42.5114L148.33 47.2417L129.373 47.2675ZM160.689 47.655C158.945 47.6573 157.212 47.4327 155.491 46.9811C153.794 46.5056 152.335 45.8387 151.115 44.9803L153.398 40.5335C154.356 41.225 155.456 41.773 156.699 42.1774C157.966 42.5819 159.245 42.7832 160.535 42.7814C161.992 42.7794 163.138 42.4912 163.973 41.9167C164.808 41.3422 165.224 40.5413 165.222 39.514C165.221 38.8689 165.052 38.2957 164.717 37.7945C164.381 37.2932 163.783 36.9118 162.922 36.6502C162.086 36.3885 160.903 36.2587 159.374 36.2608L152.959 36.2695L154.218 22.1483L169.52 22.1275L169.53 26.7862L156.307 26.8042L159.311 24.1482L158.437 34.2194L155.421 31.5716L160.725 31.5644C163.21 31.561 165.205 31.9047 166.712 32.5955C168.242 33.2624 169.355 34.1807 170.051 35.3504C170.746 36.5201 171.096 37.8455 171.099 39.3268C171.102 40.808 170.735 42.1822 169.997 43.4494C169.259 44.6928 168.115 45.7097 166.563 46.5002C165.036 47.2668 163.078 47.6517 160.689 47.655ZM185.657 47.621C183.602 47.6238 181.762 47.1246 180.135 46.1234C178.508 45.0983 177.227 43.6188 176.291 41.6849C175.355 39.751 174.884 37.4104 174.877 34.6629C174.871 31.9155 175.332 29.5735 176.26 27.6371C177.187 25.7007 178.462 24.2297 180.084 23.2241C181.707 22.1945 183.545 21.6784 185.6 21.6756C187.678 21.6728 189.519 22.1839 191.122 23.209C192.749 24.2102 194.03 25.6778 194.966 27.6117C195.902 29.5456 196.373 31.8862 196.379 34.6337C196.385 37.3811 195.925 39.723 194.997 41.6594C194.07 43.5959 192.795 45.0788 191.172 46.1083C189.574 47.1139 187.735 47.6182 185.657 47.621ZM185.646 42.7114C186.626 42.7101 187.473 42.4342 188.189 41.8837C188.928 41.3332 189.5 40.4604 189.903 39.2653C190.33 38.0702 190.542 36.529 190.538 34.6416C190.534 32.7542 190.315 31.2136 189.883 30.0196C189.474 28.8256 188.899 27.9544 188.157 27.4059C187.439 26.8574 186.59 26.5838 185.611 26.5851C184.655 26.5864 183.807 26.8623 183.068 27.4128C182.352 27.9633 181.781 28.8361 181.354 30.0312C180.95 31.2263 180.75 32.7675 180.755 34.6549C180.759 36.5423 180.965 38.083 181.374 39.277C181.807 40.4709 182.382 41.3421 183.1 41.8907C183.842 42.4391 184.69 42.7127 185.646 42.7114ZM222.508 54.3797C220.693 54.3822 218.936 54.1576 217.239 53.706C215.566 53.2782 214.167 52.6232 213.042 51.7407L215.255 47.724C216.069 48.3919 217.097 48.9161 218.34 49.2966C219.607 49.7011 220.85 49.9024 222.069 49.9008C224.052 49.8981 225.484 49.4542 226.366 48.569C227.272 47.6838 227.723 46.3692 227.719 44.6252L227.713 41.7224L228.06 36.8841L227.978 32.0104L227.969 27.8534L233.273 27.8462L233.308 43.9008C233.316 47.4845 232.39 50.1257 230.53 51.8244C228.67 53.5232 225.997 54.375 222.508 54.3797ZM221.63 46.2102C219.839 46.2127 218.213 45.8326 216.754 45.0701C215.319 44.2837 214.158 43.1982 213.271 41.8138C212.408 40.4054 211.974 38.7694 211.97 36.906C211.966 35.0186 212.392 33.3815 213.249 31.9946C214.13 30.5839 215.286 29.4953 216.718 28.7288C218.174 27.9623 219.798 27.5779 221.589 27.5754C223.214 27.5732 224.648 27.9057 225.892 28.573C227.136 29.2164 228.105 30.2304 228.801 31.6151C229.497 32.976 229.847 34.7315 229.852 36.8816C229.857 39.0079 229.514 40.7643 228.825 42.151C228.135 43.5137 227.169 44.5304 225.929 45.201C224.688 45.8716 223.255 46.208 221.63 46.2102ZM222.731 41.6217C223.711 41.6204 224.582 41.4281 225.346 41.0448C226.11 40.6376 226.706 40.0753 227.134 39.358C227.563 38.6407 227.776 37.8162 227.774 36.8845C227.772 35.9288 227.555 35.1049 227.123 34.4126C226.692 33.6965 226.093 33.1478 225.328 32.7666C224.562 32.3615 223.69 32.1596 222.71 32.161C221.731 32.1623 220.859 32.3665 220.096 32.7737C219.332 33.157 218.724 33.7073 218.272 34.4247C217.843 35.1181 217.63 35.9426 217.632 36.8983C217.634 37.83 217.851 38.6539 218.283 39.3701C218.738 40.0862 219.349 40.6468 220.114 41.0519C220.879 41.4331 221.752 41.623 222.731 41.6217Z" fill="#490606"/>
<path d="M48.5952 67.9533C48.1185 67.2334 47.7485 66.4025 47.4851 65.4605C47.2297 64.5107 47.1008 63.4893 47.0984 62.3966C47.0961 61.3038 47.2205 60.2822 47.4719 59.3316C47.7311 58.3731 48.0975 57.5412 48.5711 56.8358L50.3409 56.8333C49.844 57.7288 49.4817 58.632 49.254 59.5429C49.0263 60.446 48.9136 61.3964 48.9157 62.3941C48.9179 63.3918 49.0348 64.3458 49.2664 65.2561C49.498 66.1585 49.8641 67.0568 50.365 67.9509L48.5952 67.9533ZM51.4696 65.645L51.4516 57.3306L53.3758 57.328L53.3938 65.6424L51.4696 65.645ZM55.367 65.6396L55.349 57.3252L56.9406 57.323L60.4929 63.1857L59.6496 63.1869L63.117 57.3145L64.6968 57.3123L64.7385 65.6266L62.9331 65.6292L62.9092 60.0823L63.2418 60.0818L60.4725 64.7536L59.6054 64.7548L56.7566 60.0908L57.1604 60.0902L57.1724 65.6371L55.367 65.6396ZM66.7112 65.6239L66.6932 57.3095L68.6174 57.3068L68.632 64.0534L72.801 64.0476L72.8044 65.6155L66.7112 65.6239ZM77.2434 65.6093L77.2254 57.2949L78.817 57.2927L82.3693 63.1554L81.5259 63.1566L84.9934 57.2841L86.5732 57.2819L86.6149 65.5963L84.8095 65.5988L84.7856 60.0519L85.1182 60.0515L82.3489 64.7233L81.4818 64.7245L78.6329 60.0605L79.0368 60.0599L79.0488 65.6068L77.2434 65.6093ZM92.6263 65.7305C91.9691 65.7314 91.3591 65.6254 90.7964 65.4124C90.2417 65.1993 89.758 64.8991 89.3454 64.5117C88.9407 64.1242 88.623 63.6693 88.3922 63.147C88.1694 62.6247 88.0573 62.0547 88.0559 61.4371C88.0546 60.8195 88.1642 60.2492 88.3848 59.7262C88.6133 59.2033 88.933 58.7476 89.3439 58.359C89.7549 57.9704 90.2372 57.6688 90.7911 57.4543C91.3449 57.2397 91.9465 57.132 92.5958 57.1311C93.253 57.1301 93.8551 57.2362 94.4019 57.4493C94.9567 57.6623 95.4364 57.9625 95.8411 58.35C96.2537 58.7374 96.5754 59.1923 96.8061 59.7146C97.0369 60.229 97.1529 60.7989 97.1543 61.4245C97.1556 62.0421 97.042 62.6164 96.8136 63.1472C96.585 63.6702 96.2653 64.1259 95.8544 64.5145C95.4514 64.8952 94.973 65.1928 94.4191 65.4073C93.8732 65.6219 93.2756 65.7296 92.6263 65.7305ZM92.6109 64.0914C92.983 64.0909 93.3234 64.0271 93.6319 63.8999C93.9484 63.7728 94.2252 63.5903 94.4622 63.3524C94.6992 63.1145 94.8808 62.8332 95.0067 62.5083C95.1407 62.1835 95.2072 61.8231 95.2063 61.4272C95.2055 61.0313 95.1374 60.6711 95.0021 60.3466C94.8747 60.0221 94.6919 59.7413 94.4539 59.504C94.2237 59.2668 93.9501 59.0851 93.6331 58.9588C93.3161 58.8325 92.9715 58.7697 92.5993 58.7702C92.2272 58.7707 91.8829 58.8345 91.5664 58.9617C91.2578 59.0888 90.9851 59.2713 90.748 59.5092C90.511 59.7471 90.3255 60.0284 90.1916 60.3533C90.0656 60.6781 90.003 61.0385 90.0039 61.4344C90.0047 61.8224 90.0688 62.1826 90.1963 62.515C90.3316 62.8395 90.5143 63.1203 90.7445 63.3576C90.9825 63.5948 91.2601 63.7765 91.5771 63.9028C91.8941 64.0291 92.2387 64.0919 92.6109 64.0914ZM102.636 65.7166C101.987 65.7175 101.381 65.6115 100.818 65.3985C100.264 65.1854 99.7798 64.8852 99.3672 64.4978C98.9625 64.1103 98.6448 63.6554 98.4141 63.1331C98.1912 62.6108 98.0791 62.0408 98.0778 61.4232C98.0764 60.8056 98.1861 60.2353 98.4067 59.7124C98.6352 59.1894 98.9549 58.7337 99.3658 58.3451C99.7767 57.9565 100.259 57.6549 100.813 57.4404C101.367 57.2258 101.968 57.1181 102.618 57.1172C103.275 57.1163 103.877 57.2223 104.424 57.4354C104.979 57.6484 105.458 57.9486 105.863 58.3361C106.276 58.7156 106.597 59.1665 106.828 59.6888C107.059 60.2111 107.175 60.785 107.176 61.4106C107.177 62.0282 107.064 62.6025 106.835 63.1333C106.607 63.6563 106.287 64.112 105.876 64.5006C105.473 64.8813 104.995 65.1789 104.441 65.3934C103.895 65.608 103.293 65.7157 102.636 65.7166ZM105.36 67.4826C105.035 67.4831 104.727 67.4479 104.433 67.377C104.148 67.3062 103.863 67.1917 103.577 67.0338C103.3 66.8758 103.007 66.6624 102.697 66.3936C102.396 66.1248 102.066 65.7927 101.709 65.3972L103.727 64.8837C103.942 65.1764 104.14 65.4097 104.323 65.5836C104.505 65.7576 104.68 65.8801 104.846 65.9511C105.02 66.0222 105.203 66.0575 105.393 66.0573C105.899 66.0566 106.35 65.8501 106.745 65.4378L107.603 66.4581C107.042 67.1398 106.294 67.4814 105.36 67.4826ZM102.633 64.0775C103.005 64.077 103.345 64.0132 103.654 63.8861C103.97 63.7589 104.247 63.5764 104.484 63.3385C104.721 63.1006 104.903 62.8193 105.029 62.4944C105.162 62.1617 105.229 61.8013 105.228 61.4133C105.227 61.0174 105.159 60.6572 105.024 60.3327C104.897 60.0082 104.714 59.7274 104.476 59.4901C104.238 59.2529 103.96 59.0712 103.643 58.9449C103.334 58.8186 102.993 58.7558 102.621 58.7563C102.249 58.7568 101.905 58.8206 101.588 58.9478C101.272 59.0749 100.995 59.2574 100.758 59.4953C100.529 59.7332 100.347 60.0145 100.213 60.3394C100.087 60.6642 100.025 61.0246 100.026 61.4205C100.027 61.8085 100.091 62.1687 100.218 62.5011C100.353 62.8256 100.536 63.1064 100.766 63.3437C101.004 63.5809 101.282 63.7626 101.599 63.8889C101.916 64.0152 102.261 64.078 102.633 64.0775ZM111.621 62.9604L111.618 61.4757L114.979 61.471L114.983 62.9558L111.621 62.9604ZM122.245 65.6895C121.667 65.6903 121.093 65.6158 120.522 65.4662C119.96 65.3086 119.476 65.0875 119.072 64.803L119.829 63.3291C120.146 63.5583 120.511 63.7399 120.923 63.874C121.343 64.008 121.767 64.0747 122.194 64.0741C122.677 64.0735 123.057 63.9779 123.334 63.7875C123.611 63.5971 123.749 63.3316 123.748 62.9911C123.747 62.7773 123.692 62.5873 123.58 62.4212C123.469 62.2551 123.271 62.1287 122.986 62.042C122.708 61.9552 122.316 61.9122 121.809 61.9129L119.683 61.9159L120.101 57.2355L125.173 57.2284L125.176 58.7725L120.793 58.7786L121.789 57.8983L121.499 61.2363L120.5 60.3588L122.257 60.3563C123.081 60.3552 123.742 60.4691 124.242 60.698C124.749 60.919 125.118 61.2234 125.348 61.6111C125.579 61.9988 125.695 62.4381 125.696 62.929C125.697 63.42 125.575 63.8755 125.33 64.2955C125.086 64.7076 124.706 65.0446 124.192 65.3067C123.686 65.5608 123.037 65.6884 122.245 65.6895ZM130.046 65.6786C129.365 65.6796 128.755 65.5141 128.215 65.1823C127.676 64.8426 127.251 64.3522 126.941 63.7112C126.631 63.0703 126.475 62.2945 126.473 61.3838C126.471 60.4732 126.624 59.697 126.931 59.0552C127.239 58.4133 127.661 57.9258 128.199 57.5924C128.737 57.2512 129.346 57.0801 130.027 57.0792C130.716 57.0782 131.326 57.2476 131.857 57.5874C132.396 57.9192 132.821 58.4056 133.131 59.0466C133.442 59.6875 133.598 60.4633 133.6 61.374C133.602 62.2846 133.449 63.0608 133.141 63.7026C132.834 64.3445 132.411 64.836 131.874 65.1772C131.344 65.5105 130.735 65.6777 130.046 65.6786ZM130.042 64.0514C130.367 64.0509 130.648 63.9595 130.885 63.777C131.13 63.5946 131.319 63.3053 131.453 62.9092C131.595 62.513 131.665 62.0022 131.664 61.3766C131.662 60.7511 131.59 60.2404 131.446 59.8447C131.311 59.449 131.12 59.1602 130.874 58.9784C130.637 58.7966 130.355 58.706 130.031 58.7064C129.714 58.7068 129.433 58.7983 129.188 58.9808C128.951 59.1632 128.761 59.4525 128.62 59.8486C128.486 60.2447 128.42 60.7556 128.421 61.3811C128.422 62.0067 128.491 62.5173 128.626 62.9131C128.77 63.3088 128.96 63.5976 129.198 63.7794C129.444 63.9612 129.725 64.0518 130.042 64.0514ZM138.107 65.6675C137.426 65.6684 136.816 65.503 136.277 65.1711C135.738 64.8314 135.313 64.341 135.003 63.7001C134.693 63.0591 134.537 62.2833 134.535 61.3727C134.533 60.462 134.685 59.6858 134.993 59.044C135.3 58.4022 135.723 57.9146 136.261 57.5813C136.798 57.24 137.408 57.0689 138.089 57.068C138.777 57.067 139.388 57.2364 139.919 57.5762C140.458 57.908 140.883 58.3944 141.193 59.0354C141.503 59.6764 141.659 60.4522 141.661 61.3628C141.663 62.2734 141.51 63.0496 141.203 63.6915C140.896 64.3333 140.473 64.8248 139.935 65.1661C139.405 65.4994 138.796 65.6665 138.107 65.6675ZM138.104 64.0402C138.428 64.0398 138.709 63.9483 138.946 63.7659C139.191 63.5834 139.381 63.2941 139.515 62.898C139.656 62.5019 139.726 61.991 139.725 61.3655C139.724 60.7399 139.651 60.2293 139.508 59.8335C139.373 59.4378 139.182 59.149 138.936 58.9673C138.698 58.7855 138.417 58.6948 138.092 58.6952C137.775 58.6957 137.494 58.7871 137.249 58.9696C137.012 59.152 136.823 59.4413 136.681 59.8375C136.547 60.2336 136.481 60.7444 136.483 61.37C136.484 61.9955 136.552 62.5062 136.688 62.9019C136.831 63.2976 137.022 63.5864 137.26 63.7682C137.506 63.95 137.787 64.0406 138.104 64.0402ZM146.169 65.6563C145.488 65.6572 144.878 65.4918 144.338 65.16C143.799 64.8202 143.375 64.3298 143.064 63.6889C142.754 63.0479 142.598 62.2721 142.596 61.3615C142.594 60.4509 142.747 59.6746 143.054 59.0328C143.362 58.391 143.784 57.9034 144.322 57.5701C144.86 57.2288 145.469 57.0578 146.15 57.0568C146.839 57.0559 147.449 57.2253 147.98 57.565C148.52 57.8968 148.944 58.3832 149.254 59.0242C149.565 59.6652 149.721 60.441 149.723 61.3516C149.725 62.2622 149.572 63.0385 149.265 63.6803C148.957 64.3221 148.535 64.8136 147.997 65.1549C147.467 65.4882 146.858 65.6553 146.169 65.6563ZM146.165 64.029C146.49 64.0286 146.771 63.9371 147.008 63.7547C147.253 63.5722 147.442 63.2829 147.576 62.8868C147.718 62.4907 147.788 61.9798 147.787 61.3543C147.785 60.7287 147.713 60.2181 147.57 59.8224C147.434 59.4266 147.243 59.1379 146.998 58.9561C146.76 58.7743 146.478 58.6836 146.154 58.6841C145.837 58.6845 145.556 58.7759 145.311 58.9584C145.074 59.1409 144.884 59.4302 144.743 59.8263C144.609 60.2224 144.543 60.7332 144.544 61.3588C144.545 61.9843 144.614 62.495 144.749 62.8907C144.893 63.2865 145.083 63.5752 145.321 63.757C145.567 63.9388 145.848 64.0295 146.165 64.029ZM154.553 65.5021L154.535 57.1877L158.134 57.1827C158.878 57.1817 159.52 57.3035 160.059 57.5483C160.598 57.7851 161.014 58.129 161.308 58.5799C161.602 59.0308 161.75 59.5691 161.751 60.1947C161.753 60.8123 161.607 61.347 161.315 61.7988C161.023 62.2505 160.608 62.5995 160.071 62.8457C159.533 63.084 158.891 63.2037 158.147 63.2047L155.617 63.2082L156.47 62.34L156.477 65.4995L154.553 65.5021ZM156.471 62.5538L155.614 61.6404L158.037 61.637C158.631 61.6362 159.074 61.5089 159.366 61.2551C159.659 61.0013 159.804 60.6487 159.803 60.1974C159.802 59.7381 159.655 59.382 159.362 59.129C159.068 58.876 158.624 58.7499 158.031 58.7507L155.607 58.7541L156.461 57.8383L156.471 62.5538ZM166.083 65.5812C165.394 65.5821 164.78 65.4444 164.241 65.168C163.702 64.8837 163.277 64.4923 162.967 63.9939C162.665 63.4954 162.514 62.9294 162.512 62.296C162.511 61.6546 162.66 61.0882 162.96 60.5968C163.268 60.0975 163.691 59.7089 164.228 59.431C164.766 59.1452 165.38 59.0019 166.069 59.0009C166.742 59 167.328 59.1417 167.827 59.4261C168.327 59.7025 168.696 60.1019 168.935 60.6242L167.499 61.3982C167.332 61.0976 167.122 60.8761 166.868 60.7339C166.622 60.5918 166.353 60.5209 166.06 60.5213C165.743 60.5217 165.458 60.5934 165.205 60.7362C164.952 60.8791 164.751 61.0813 164.601 61.3429C164.459 61.6044 164.388 61.9212 164.389 62.2934C164.39 62.6655 164.462 62.9822 164.605 63.2433C164.756 63.5044 164.958 63.706 165.212 63.8482C165.466 63.9904 165.751 64.0613 166.068 64.0608C166.361 64.0604 166.63 63.9927 166.875 63.8578C167.128 63.7149 167.337 63.4889 167.503 63.1799L168.942 63.9618C168.705 64.4769 168.338 64.8772 167.84 65.163C167.342 65.4408 166.756 65.5802 166.083 65.5812ZM172.162 65.5727C171.616 65.5735 171.089 65.5109 170.582 65.3849C170.083 65.251 169.686 65.0852 169.393 64.8877L170.008 63.5565C170.301 63.7382 170.646 63.8882 171.042 64.0064C171.446 64.1167 171.842 64.1716 172.23 64.1711C172.658 64.1705 172.959 64.1186 173.133 64.0154C173.315 63.9122 173.405 63.7695 173.405 63.5874C173.405 63.437 173.333 63.3262 173.19 63.2551C173.056 63.1761 172.873 63.117 172.644 63.0777C172.414 63.0385 172.16 62.9992 171.883 62.96C171.614 62.9208 171.341 62.8697 171.063 62.8067C170.786 62.7359 170.532 62.6333 170.302 62.499C170.073 62.3647 169.886 62.1828 169.743 61.9534C169.608 61.7239 169.54 61.4271 169.539 61.0628C169.538 60.659 169.652 60.3025 169.881 59.9933C170.118 59.6842 170.458 59.4422 170.901 59.2674C171.344 59.0846 171.875 58.9928 172.492 58.992C172.928 58.9914 173.371 59.0383 173.823 59.1327C174.274 59.2271 174.651 59.3651 174.952 59.5468L174.337 60.8661C174.028 60.6844 173.715 60.5621 173.398 60.4992C173.089 60.4284 172.788 60.3932 172.495 60.3936C172.084 60.3941 171.783 60.45 171.593 60.5611C171.403 60.6722 171.308 60.8149 171.309 60.9891C171.309 61.1475 171.377 61.2662 171.512 61.3451C171.654 61.4241 171.84 61.4872 172.07 61.5344C172.3 61.5816 172.549 61.6248 172.819 61.664C173.096 61.6953 173.373 61.7464 173.651 61.8173C173.928 61.8882 174.177 61.9908 174.399 62.1251C174.629 62.2515 174.816 62.4294 174.959 62.6588C175.102 62.8803 175.174 63.1732 175.175 63.5375C175.175 63.9334 175.057 64.2859 174.821 64.5951C174.584 64.8963 174.24 65.1343 173.789 65.3092C173.346 65.484 172.803 65.5718 172.162 65.5727ZM177.36 67.7748L175.591 67.7772C176.103 66.8817 176.47 65.9825 176.689 65.0795C176.917 64.1685 177.03 63.2142 177.028 62.2165C177.025 61.2187 176.909 60.2687 176.677 59.3663C176.453 58.456 176.083 57.5538 175.567 56.6597L177.336 56.6572C177.829 57.3613 178.203 58.1922 178.458 59.15C178.714 60.0999 178.843 61.1212 178.845 62.2139C178.847 63.3067 178.723 64.3283 178.471 65.2789C178.22 66.2216 177.85 67.0535 177.36 67.7748Z" fill="black"/>
<path d="M183.138 61.7617H222.229" stroke="url(#paint0_linear_2040_302)" stroke-width="0.863039"/>
<path d="M39.0918 61.7412H5.96046e-06" stroke="url(#paint1_linear_2040_302)" stroke-width="0.863039"/>
<defs>
<linearGradient id="paint0_linear_2040_302" x1="216.366" y1="62.2617" x2="183.789" y2="62.2617" gradientUnits="userSpaceOnUse">
<stop stop-color="#666666" stop-opacity="0"/>
<stop offset="1"/>
</linearGradient>
<linearGradient id="paint1_linear_2040_302" x1="5.86377" y1="62.2412" x2="38.4403" y2="62.2412" gradientUnits="userSpaceOnUse">
<stop stop-color="#666666" stop-opacity="0"/>
<stop offset="1"/>
</linearGradient>
</defs>
</svg>
