<svg width="299" height="27" viewBox="0 0 299 27" fill="none" xmlns="http://www.w3.org/2000/svg">
<path d="M2.64273 12.572H6.97474V13.604H2.64273V12.572ZM2.76273 17H1.56273V8.6H7.49073V9.644H2.76273V17ZM11.5367 17.072C10.8967 17.072 10.3287 16.932 9.8327 16.652C9.3367 16.372 8.9447 15.988 8.6567 15.5C8.3687 15.004 8.2247 14.444 8.2247 13.82C8.2247 13.188 8.3687 12.628 8.6567 12.14C8.9447 11.652 9.3367 11.272 9.8327 11C10.3287 10.72 10.8967 10.58 11.5367 10.58C12.1687 10.58 12.7327 10.72 13.2287 11C13.7327 11.272 14.1247 11.652 14.4047 12.14C14.6927 12.62 14.8367 13.18 14.8367 13.82C14.8367 14.452 14.6927 15.012 14.4047 15.5C14.1247 15.988 13.7327 16.372 13.2287 16.652C12.7327 16.932 12.1687 17.072 11.5367 17.072ZM11.5367 16.064C11.9447 16.064 12.3087 15.972 12.6287 15.788C12.9567 15.604 13.2127 15.344 13.3967 15.008C13.5807 14.664 13.6727 14.268 13.6727 13.82C13.6727 13.364 13.5807 12.972 13.3967 12.644C13.2127 12.308 12.9567 12.048 12.6287 11.864C12.3087 11.68 11.9447 11.588 11.5367 11.588C11.1287 11.588 10.7647 11.68 10.4447 11.864C10.1247 12.048 9.8687 12.308 9.6767 12.644C9.4847 12.972 9.3887 13.364 9.3887 13.82C9.3887 14.268 9.4847 14.664 9.6767 15.008C9.8687 15.344 10.1247 15.604 10.4447 15.788C10.7647 15.972 11.1287 16.064 11.5367 16.064ZM19.1539 17.072C18.5139 17.072 17.9459 16.932 17.4499 16.652C16.9539 16.372 16.5619 15.988 16.2739 15.5C15.9859 15.004 15.8419 14.444 15.8419 13.82C15.8419 13.188 15.9859 12.628 16.2739 12.14C16.5619 11.652 16.9539 11.272 17.4499 11C17.9459 10.72 18.5139 10.58 19.1539 10.58C19.7859 10.58 20.3499 10.72 20.8459 11C21.3499 11.272 21.7419 11.652 22.0219 12.14C22.3099 12.62 22.4539 13.18 22.4539 13.82C22.4539 14.452 22.3099 15.012 22.0219 15.5C21.7419 15.988 21.3499 16.372 20.8459 16.652C20.3499 16.932 19.7859 17.072 19.1539 17.072ZM19.1539 16.064C19.5619 16.064 19.9259 15.972 20.2459 15.788C20.5739 15.604 20.8299 15.344 21.0139 15.008C21.1979 14.664 21.2899 14.268 21.2899 13.82C21.2899 13.364 21.1979 12.972 21.0139 12.644C20.8299 12.308 20.5739 12.048 20.2459 11.864C19.9259 11.68 19.5619 11.588 19.1539 11.588C18.7459 11.588 18.3819 11.68 18.0619 11.864C17.7419 12.048 17.4859 12.308 17.2939 12.644C17.1019 12.972 17.0059 13.364 17.0059 13.82C17.0059 14.268 17.1019 14.664 17.2939 15.008C17.4859 15.344 17.7419 15.604 18.0619 15.788C18.3819 15.972 18.7459 16.064 19.1539 16.064ZM26.6751 17.072C26.0591 17.072 25.5071 16.936 25.0191 16.664C24.5391 16.392 24.1591 16.012 23.8791 15.524C23.5991 15.036 23.4591 14.468 23.4591 13.82C23.4591 13.172 23.5991 12.608 23.8791 12.128C24.1591 11.64 24.5391 11.26 25.0191 10.988C25.5071 10.716 26.0591 10.58 26.6751 10.58C27.2111 10.58 27.6951 10.7 28.1271 10.94C28.5591 11.18 28.9031 11.54 29.1591 12.02C29.4231 12.5 29.5551 13.1 29.5551 13.82C29.5551 14.54 29.4271 15.14 29.1711 15.62C28.9231 16.1 28.5831 16.464 28.1511 16.712C27.7191 16.952 27.2271 17.072 26.6751 17.072ZM26.7711 16.064C27.1711 16.064 27.5311 15.972 27.8511 15.788C28.1791 15.604 28.4351 15.344 28.6191 15.008C28.8111 14.664 28.9071 14.268 28.9071 13.82C28.9071 13.364 28.8111 12.972 28.6191 12.644C28.4351 12.308 28.1791 12.048 27.8511 11.864C27.5311 11.68 27.1711 11.588 26.7711 11.588C26.3631 11.588 25.9991 11.68 25.6791 11.864C25.3591 12.048 25.1031 12.308 24.9111 12.644C24.7191 12.972 24.6231 13.364 24.6231 13.82C24.6231 14.268 24.7191 14.664 24.9111 15.008C25.1031 15.344 25.3591 15.604 25.6791 15.788C25.9991 15.972 26.3631 16.064 26.7711 16.064ZM28.9431 17V15.284L29.0151 13.808L28.8951 12.332V8.096H30.0471V17H28.9431ZM39.4094 17.096C38.7614 17.096 38.1654 16.992 37.6214 16.784C37.0774 16.568 36.6054 16.268 36.2054 15.884C35.8054 15.492 35.4934 15.036 35.2694 14.516C35.0454 13.996 34.9334 13.424 34.9334 12.8C34.9334 12.176 35.0454 11.604 35.2694 11.084C35.4934 10.564 35.8054 10.112 36.2054 9.728C36.6134 9.336 37.0894 9.036 37.6334 8.828C38.1774 8.612 38.7774 8.504 39.4334 8.504C40.0974 8.504 40.7054 8.612 41.2574 8.828C41.8094 9.044 42.2774 9.368 42.6614 9.8L41.9174 10.544C41.5734 10.208 41.1974 9.964 40.7894 9.812C40.3894 9.652 39.9534 9.572 39.4814 9.572C39.0014 9.572 38.5534 9.652 38.1374 9.812C37.7294 9.972 37.3734 10.196 37.0694 10.484C36.7734 10.772 36.5414 11.116 36.3734 11.516C36.2134 11.908 36.1334 12.336 36.1334 12.8C36.1334 13.256 36.2134 13.684 36.3734 14.084C36.5414 14.476 36.7734 14.82 37.0694 15.116C37.3734 15.404 37.7294 15.628 38.1374 15.788C38.5454 15.948 38.9894 16.028 39.4694 16.028C39.9174 16.028 40.3454 15.96 40.7534 15.824C41.1694 15.68 41.5534 15.444 41.9054 15.116L42.5894 16.028C42.1734 16.38 41.6854 16.648 41.1254 16.832C40.5734 17.008 40.0014 17.096 39.4094 17.096ZM41.4374 15.872V12.752H42.5894V16.028L41.4374 15.872ZM44.719 17V10.64H45.823V12.368L45.715 11.936C45.891 11.496 46.187 11.16 46.603 10.928C47.019 10.696 47.531 10.58 48.139 10.58V11.696C48.091 11.688 48.043 11.684 47.995 11.684C47.955 11.684 47.915 11.684 47.875 11.684C47.259 11.684 46.771 11.868 46.411 12.236C46.051 12.604 45.871 13.136 45.871 13.832V17H44.719ZM53.038 17V15.656L52.978 15.404V13.112C52.978 12.624 52.834 12.248 52.546 11.984C52.266 11.712 51.842 11.576 51.274 11.576C50.898 11.576 50.53 11.64 50.17 11.768C49.81 11.888 49.506 12.052 49.258 12.26L48.778 11.396C49.106 11.132 49.498 10.932 49.954 10.796C50.418 10.652 50.902 10.58 51.406 10.58C52.278 10.58 52.95 10.792 53.422 11.216C53.894 11.64 54.13 12.288 54.13 13.16V17H53.038ZM50.95 17.072C50.478 17.072 50.062 16.992 49.702 16.832C49.35 16.672 49.078 16.452 48.886 16.172C48.694 15.884 48.598 15.56 48.598 15.2C48.598 14.856 48.678 14.544 48.838 14.264C49.006 13.984 49.274 13.76 49.642 13.592C50.018 13.424 50.522 13.34 51.154 13.34H53.17V14.168H51.202C50.626 14.168 50.238 14.264 50.038 14.456C49.838 14.648 49.738 14.88 49.738 15.152C49.738 15.464 49.862 15.716 50.11 15.908C50.358 16.092 50.702 16.184 51.142 16.184C51.574 16.184 51.95 16.088 52.27 15.896C52.598 15.704 52.834 15.424 52.978 15.056L53.206 15.848C53.054 16.224 52.786 16.524 52.402 16.748C52.018 16.964 51.534 17.072 50.95 17.072ZM58.8899 17.072C58.2739 17.072 57.7219 16.936 57.2339 16.664C56.7539 16.392 56.3739 16.012 56.0939 15.524C55.8139 15.036 55.6739 14.468 55.6739 13.82C55.6739 13.172 55.8139 12.608 56.0939 12.128C56.3739 11.64 56.7539 11.26 57.2339 10.988C57.7219 10.716 58.2739 10.58 58.8899 10.58C59.4259 10.58 59.9099 10.7 60.3419 10.94C60.7739 11.18 61.1179 11.54 61.3739 12.02C61.6379 12.5 61.7699 13.1 61.7699 13.82C61.7699 14.54 61.6419 15.14 61.3859 15.62C61.1379 16.1 60.7979 16.464 60.3659 16.712C59.9339 16.952 59.4419 17.072 58.8899 17.072ZM58.9859 16.064C59.3859 16.064 59.7459 15.972 60.0659 15.788C60.3939 15.604 60.6499 15.344 60.8339 15.008C61.0259 14.664 61.1219 14.268 61.1219 13.82C61.1219 13.364 61.0259 12.972 60.8339 12.644C60.6499 12.308 60.3939 12.048 60.0659 11.864C59.7459 11.68 59.3859 11.588 58.9859 11.588C58.5779 11.588 58.2139 11.68 57.8939 11.864C57.5739 12.048 57.3179 12.308 57.1259 12.644C56.9339 12.972 56.8379 13.364 56.8379 13.82C56.8379 14.268 56.9339 14.664 57.1259 15.008C57.3179 15.344 57.5739 15.604 57.8939 15.788C58.2139 15.972 58.5779 16.064 58.9859 16.064ZM61.1579 17V15.284L61.2299 13.808L61.1099 12.332V8.096H62.2619V17H61.1579ZM67.2736 17.072C66.5936 17.072 65.9936 16.932 65.4736 16.652C64.9616 16.372 64.5616 15.988 64.2736 15.5C63.9936 15.012 63.8536 14.452 63.8536 13.82C63.8536 13.188 63.9896 12.628 64.2616 12.14C64.5416 11.652 64.9216 11.272 65.4016 11C65.8896 10.72 66.4376 10.58 67.0456 10.58C67.6616 10.58 68.2056 10.716 68.6776 10.988C69.1496 11.26 69.5176 11.644 69.7816 12.14C70.0536 12.628 70.1896 13.2 70.1896 13.856C70.1896 13.904 70.1856 13.96 70.1776 14.024C70.1776 14.088 70.1736 14.148 70.1656 14.204H64.7536V13.376H69.5656L69.0976 13.664C69.1056 13.256 69.0216 12.892 68.8456 12.572C68.6696 12.252 68.4256 12.004 68.1136 11.828C67.8096 11.644 67.4536 11.552 67.0456 11.552C66.6456 11.552 66.2896 11.644 65.9776 11.828C65.6656 12.004 65.4216 12.256 65.2456 12.584C65.0696 12.904 64.9816 13.272 64.9816 13.688V13.88C64.9816 14.304 65.0776 14.684 65.2696 15.02C65.4696 15.348 65.7456 15.604 66.0976 15.788C66.4496 15.972 66.8536 16.064 67.3096 16.064C67.6856 16.064 68.0256 16 68.3296 15.872C68.6416 15.744 68.9136 15.552 69.1456 15.296L69.7816 16.04C69.4936 16.376 69.1336 16.632 68.7016 16.808C68.2776 16.984 67.8016 17.072 67.2736 17.072Z" fill="#717370"/>
<path d="M80.2258 14.792C80.0338 14.792 79.8538 14.748 79.6858 14.66C79.5178 14.564 79.3818 14.432 79.2778 14.264C79.1818 14.096 79.1338 13.904 79.1338 13.688C79.1338 13.48 79.1818 13.296 79.2778 13.136C79.3818 12.968 79.5178 12.836 79.6858 12.74C79.8538 12.644 80.0338 12.596 80.2258 12.596C80.4258 12.596 80.6058 12.644 80.7658 12.74C80.9338 12.836 81.0658 12.968 81.1618 13.136C81.2578 13.296 81.3058 13.48 81.3058 13.688C81.3058 13.904 81.2578 14.096 81.1618 14.264C81.0658 14.432 80.9338 14.564 80.7658 14.66C80.6058 14.748 80.4258 14.792 80.2258 14.792ZM90.4885 17V8.6H93.7645C94.5005 8.6 95.1285 8.716 95.6485 8.948C96.1685 9.18 96.5685 9.516 96.8485 9.956C97.1285 10.396 97.2685 10.92 97.2685 11.528C97.2685 12.136 97.1285 12.66 96.8485 13.1C96.5685 13.532 96.1685 13.864 95.6485 14.096C95.1285 14.328 94.5005 14.444 93.7645 14.444H91.1485L91.6885 13.892V17H90.4885ZM96.1045 17L93.9685 13.952H95.2525L97.4125 17H96.1045ZM91.6885 14.012L91.1485 13.424H93.7285C94.4965 13.424 95.0765 13.26 95.4685 12.932C95.8685 12.596 96.0685 12.128 96.0685 11.528C96.0685 10.928 95.8685 10.464 95.4685 10.136C95.0765 9.808 94.4965 9.644 93.7285 9.644H91.1485L91.6885 9.044V14.012ZM101.871 17.072C101.191 17.072 100.591 16.932 100.071 16.652C99.5593 16.372 99.1593 15.988 98.8713 15.5C98.5913 15.012 98.4513 14.452 98.4513 13.82C98.4513 13.188 98.5873 12.628 98.8593 12.14C99.1393 11.652 99.5193 11.272 99.9993 11C100.487 10.72 101.035 10.58 101.643 10.58C102.259 10.58 102.803 10.716 103.275 10.988C103.747 11.26 104.115 11.644 104.379 12.14C104.651 12.628 104.787 13.2 104.787 13.856C104.787 13.904 104.783 13.96 104.775 14.024C104.775 14.088 104.771 14.148 104.763 14.204H99.3513V13.376H104.163L103.695 13.664C103.703 13.256 103.619 12.892 103.443 12.572C103.267 12.252 103.023 12.004 102.711 11.828C102.407 11.644 102.051 11.552 101.643 11.552C101.243 11.552 100.887 11.644 100.575 11.828C100.263 12.004 100.019 12.256 99.8433 12.584C99.6673 12.904 99.5793 13.272 99.5793 13.688V13.88C99.5793 14.304 99.6753 14.684 99.8673 15.02C100.067 15.348 100.343 15.604 100.695 15.788C101.047 15.972 101.451 16.064 101.907 16.064C102.283 16.064 102.623 16 102.927 15.872C103.239 15.744 103.511 15.552 103.743 15.296L104.379 16.04C104.091 16.376 103.731 16.632 103.299 16.808C102.875 16.984 102.399 17.072 101.871 17.072ZM109.159 17.072C108.511 17.072 107.931 16.932 107.419 16.652C106.915 16.372 106.519 15.988 106.231 15.5C105.943 15.012 105.799 14.452 105.799 13.82C105.799 13.188 105.943 12.628 106.231 12.14C106.519 11.652 106.915 11.272 107.419 11C107.931 10.72 108.511 10.58 109.159 10.58C109.735 10.58 110.247 10.696 110.695 10.928C111.151 11.152 111.503 11.488 111.751 11.936L110.875 12.5C110.667 12.188 110.411 11.96 110.107 11.816C109.811 11.664 109.491 11.588 109.147 11.588C108.731 11.588 108.359 11.68 108.031 11.864C107.703 12.048 107.443 12.308 107.251 12.644C107.059 12.972 106.963 13.364 106.963 13.82C106.963 14.276 107.059 14.672 107.251 15.008C107.443 15.344 107.703 15.604 108.031 15.788C108.359 15.972 108.731 16.064 109.147 16.064C109.491 16.064 109.811 15.992 110.107 15.848C110.411 15.696 110.667 15.464 110.875 15.152L111.751 15.704C111.503 16.144 111.151 16.484 110.695 16.724C110.247 16.956 109.735 17.072 109.159 17.072ZM113.436 19.4C113.132 19.4 112.836 19.348 112.548 19.244C112.26 19.148 112.012 19.004 111.804 18.812L112.296 17.948C112.456 18.1 112.632 18.216 112.824 18.296C113.016 18.376 113.22 18.416 113.436 18.416C113.716 18.416 113.948 18.344 114.132 18.2C114.316 18.056 114.488 17.8 114.648 17.432L115.044 16.556L115.164 16.412L117.66 10.64H118.788L115.704 17.636C115.52 18.084 115.312 18.436 115.08 18.692C114.856 18.948 114.608 19.128 114.336 19.232C114.064 19.344 113.764 19.4 113.436 19.4ZM114.948 17.204L112.044 10.64H113.244L115.716 16.304L114.948 17.204ZM122.46 17.072C121.812 17.072 121.232 16.932 120.72 16.652C120.216 16.372 119.82 15.988 119.532 15.5C119.244 15.012 119.1 14.452 119.1 13.82C119.1 13.188 119.244 12.628 119.532 12.14C119.82 11.652 120.216 11.272 120.72 11C121.232 10.72 121.812 10.58 122.46 10.58C123.036 10.58 123.548 10.696 123.996 10.928C124.452 11.152 124.804 11.488 125.052 11.936L124.176 12.5C123.968 12.188 123.712 11.96 123.408 11.816C123.112 11.664 122.792 11.588 122.448 11.588C122.032 11.588 121.66 11.68 121.332 11.864C121.004 12.048 120.744 12.308 120.552 12.644C120.36 12.972 120.264 13.364 120.264 13.82C120.264 14.276 120.36 14.672 120.552 15.008C120.744 15.344 121.004 15.604 121.332 15.788C121.66 15.972 122.032 16.064 122.448 16.064C122.792 16.064 123.112 15.992 123.408 15.848C123.712 15.696 123.968 15.464 124.176 15.152L125.052 15.704C124.804 16.144 124.452 16.484 123.996 16.724C123.548 16.956 123.036 17.072 122.46 17.072ZM126.461 17V8.096H127.613V17H126.461ZM133.761 17V15.656L133.701 15.404V13.112C133.701 12.624 133.557 12.248 133.269 11.984C132.989 11.712 132.565 11.576 131.997 11.576C131.621 11.576 131.253 11.64 130.893 11.768C130.533 11.888 130.229 12.052 129.981 12.26L129.501 11.396C129.829 11.132 130.221 10.932 130.677 10.796C131.141 10.652 131.625 10.58 132.129 10.58C133.001 10.58 133.673 10.792 134.145 11.216C134.617 11.64 134.853 12.288 134.853 13.16V17H133.761ZM131.673 17.072C131.201 17.072 130.785 16.992 130.425 16.832C130.073 16.672 129.801 16.452 129.609 16.172C129.417 15.884 129.321 15.56 129.321 15.2C129.321 14.856 129.401 14.544 129.561 14.264C129.729 13.984 129.997 13.76 130.365 13.592C130.741 13.424 131.245 13.34 131.877 13.34H133.893V14.168H131.925C131.349 14.168 130.961 14.264 130.761 14.456C130.561 14.648 130.461 14.88 130.461 15.152C130.461 15.464 130.585 15.716 130.833 15.908C131.081 16.092 131.425 16.184 131.865 16.184C132.297 16.184 132.673 16.088 132.993 15.896C133.321 15.704 133.557 15.424 133.701 15.056L133.929 15.848C133.777 16.224 133.509 16.524 133.125 16.748C132.741 16.964 132.257 17.072 131.673 17.072ZM140.357 17.072C139.813 17.072 139.321 16.952 138.881 16.712C138.449 16.464 138.105 16.1 137.849 15.62C137.601 15.14 137.477 14.54 137.477 13.82C137.477 13.1 137.605 12.5 137.861 12.02C138.125 11.54 138.473 11.18 138.905 10.94C139.345 10.7 139.829 10.58 140.357 10.58C140.981 10.58 141.533 10.716 142.013 10.988C142.493 11.26 142.873 11.64 143.153 12.128C143.433 12.608 143.573 13.172 143.573 13.82C143.573 14.468 143.433 15.036 143.153 15.524C142.873 16.012 142.493 16.392 142.013 16.664C141.533 16.936 140.981 17.072 140.357 17.072ZM136.985 17V8.096H138.137V12.332L138.017 13.808L138.089 15.284V17H136.985ZM140.261 16.064C140.669 16.064 141.033 15.972 141.353 15.788C141.681 15.604 141.937 15.344 142.121 15.008C142.313 14.664 142.409 14.268 142.409 13.82C142.409 13.364 142.313 12.972 142.121 12.644C141.937 12.308 141.681 12.048 141.353 11.864C141.033 11.68 140.669 11.588 140.261 11.588C139.861 11.588 139.497 11.68 139.169 11.864C138.849 12.048 138.593 12.308 138.401 12.644C138.217 12.972 138.125 13.364 138.125 13.82C138.125 14.268 138.217 14.664 138.401 15.008C138.593 15.344 138.849 15.604 139.169 15.788C139.497 15.972 139.861 16.064 140.261 16.064ZM145.164 17V8.096H146.316V17H145.164ZM151.348 17.072C150.668 17.072 150.068 16.932 149.548 16.652C149.036 16.372 148.636 15.988 148.348 15.5C148.068 15.012 147.928 14.452 147.928 13.82C147.928 13.188 148.064 12.628 148.336 12.14C148.616 11.652 148.996 11.272 149.476 11C149.964 10.72 150.512 10.58 151.12 10.58C151.736 10.58 152.28 10.716 152.752 10.988C153.224 11.26 153.592 11.644 153.856 12.14C154.128 12.628 154.264 13.2 154.264 13.856C154.264 13.904 154.26 13.96 154.252 14.024C154.252 14.088 154.248 14.148 154.24 14.204H148.828V13.376H153.64L153.172 13.664C153.18 13.256 153.096 12.892 152.92 12.572C152.744 12.252 152.5 12.004 152.188 11.828C151.884 11.644 151.528 11.552 151.12 11.552C150.72 11.552 150.364 11.644 150.052 11.828C149.74 12.004 149.496 12.256 149.32 12.584C149.144 12.904 149.056 13.272 149.056 13.688V13.88C149.056 14.304 149.152 14.684 149.344 15.02C149.544 15.348 149.82 15.604 150.172 15.788C150.524 15.972 150.928 16.064 151.384 16.064C151.76 16.064 152.1 16 152.404 15.872C152.716 15.744 152.988 15.552 153.22 15.296L153.856 16.04C153.568 16.376 153.208 16.632 152.776 16.808C152.352 16.984 151.876 17.072 151.348 17.072Z" fill="#717370"/>
<path d="M164.009 14.792C163.817 14.792 163.637 14.748 163.469 14.66C163.301 14.564 163.165 14.432 163.061 14.264C162.965 14.096 162.917 13.904 162.917 13.688C162.917 13.48 162.965 13.296 163.061 13.136C163.165 12.968 163.301 12.836 163.469 12.74C163.637 12.644 163.817 12.596 164.009 12.596C164.209 12.596 164.389 12.644 164.549 12.74C164.717 12.836 164.849 12.968 164.945 13.136C165.041 13.296 165.089 13.48 165.089 13.688C165.089 13.904 165.041 14.096 164.945 14.264C164.849 14.432 164.717 14.564 164.549 14.66C164.389 14.748 164.209 14.792 164.009 14.792ZM178.028 17.096C177.388 17.096 176.796 16.992 176.252 16.784C175.716 16.568 175.248 16.268 174.848 15.884C174.456 15.492 174.148 15.036 173.924 14.516C173.7 13.996 173.588 13.424 173.588 12.8C173.588 12.176 173.7 11.604 173.924 11.084C174.148 10.564 174.46 10.112 174.86 9.728C175.26 9.336 175.728 9.036 176.264 8.828C176.808 8.612 177.4 8.504 178.04 8.504C178.688 8.504 179.284 8.616 179.828 8.84C180.38 9.056 180.848 9.38 181.232 9.812L180.452 10.568C180.132 10.232 179.772 9.984 179.372 9.824C178.972 9.656 178.544 9.572 178.088 9.572C177.616 9.572 177.176 9.652 176.768 9.812C176.368 9.972 176.02 10.196 175.724 10.484C175.428 10.772 175.196 11.116 175.028 11.516C174.868 11.908 174.788 12.336 174.788 12.8C174.788 13.264 174.868 13.696 175.028 14.096C175.196 14.488 175.428 14.828 175.724 15.116C176.02 15.404 176.368 15.628 176.768 15.788C177.176 15.948 177.616 16.028 178.088 16.028C178.544 16.028 178.972 15.948 179.372 15.788C179.772 15.62 180.132 15.364 180.452 15.02L181.232 15.776C180.848 16.208 180.38 16.536 179.828 16.76C179.284 16.984 178.684 17.096 178.028 17.096ZM185.252 17.072C184.708 17.072 184.228 16.972 183.812 16.772C183.404 16.572 183.084 16.268 182.852 15.86C182.628 15.444 182.516 14.924 182.516 14.3V10.64H183.668V14.168C183.668 14.792 183.816 15.26 184.112 15.572C184.416 15.884 184.84 16.04 185.384 16.04C185.784 16.04 186.132 15.96 186.428 15.8C186.724 15.632 186.952 15.392 187.112 15.08C187.272 14.76 187.352 14.376 187.352 13.928V10.64H188.504V17H187.412V15.284L187.592 15.74C187.384 16.164 187.072 16.492 186.656 16.724C186.24 16.956 185.772 17.072 185.252 17.072ZM192.521 17.072C191.993 17.072 191.489 17 191.009 16.856C190.537 16.712 190.165 16.536 189.893 16.328L190.373 15.416C190.645 15.6 190.981 15.756 191.381 15.884C191.781 16.012 192.189 16.076 192.605 16.076C193.141 16.076 193.525 16 193.757 15.848C193.997 15.696 194.117 15.484 194.117 15.212C194.117 15.012 194.045 14.856 193.901 14.744C193.757 14.632 193.565 14.548 193.325 14.492C193.093 14.436 192.833 14.388 192.545 14.348C192.257 14.3 191.969 14.244 191.681 14.18C191.393 14.108 191.129 14.012 190.889 13.892C190.649 13.764 190.457 13.592 190.313 13.376C190.169 13.152 190.097 12.856 190.097 12.488C190.097 12.104 190.205 11.768 190.421 11.48C190.637 11.192 190.941 10.972 191.333 10.82C191.733 10.66 192.205 10.58 192.749 10.58C193.165 10.58 193.585 10.632 194.009 10.736C194.441 10.832 194.793 10.972 195.065 11.156L194.573 12.068C194.285 11.876 193.985 11.744 193.673 11.672C193.361 11.6 193.049 11.564 192.737 11.564C192.233 11.564 191.857 11.648 191.609 11.816C191.361 11.976 191.237 12.184 191.237 12.44C191.237 12.656 191.309 12.824 191.453 12.944C191.605 13.056 191.797 13.144 192.029 13.208C192.269 13.272 192.533 13.328 192.821 13.376C193.109 13.416 193.397 13.472 193.685 13.544C193.973 13.608 194.233 13.7 194.465 13.82C194.705 13.94 194.897 14.108 195.041 14.324C195.193 14.54 195.269 14.828 195.269 15.188C195.269 15.572 195.157 15.904 194.933 16.184C194.709 16.464 194.393 16.684 193.985 16.844C193.577 16.996 193.089 17.072 192.521 17.072ZM198.893 17.072C198.253 17.072 197.757 16.9 197.405 16.556C197.053 16.212 196.877 15.72 196.877 15.08V9.248H198.029V15.032C198.029 15.376 198.113 15.64 198.281 15.824C198.457 16.008 198.705 16.1 199.025 16.1C199.385 16.1 199.685 16 199.925 15.8L200.285 16.628C200.109 16.78 199.897 16.892 199.649 16.964C199.409 17.036 199.157 17.072 198.893 17.072ZM195.797 11.588V10.64H199.853V11.588H195.797ZM204.191 17.072C203.551 17.072 202.983 16.932 202.487 16.652C201.991 16.372 201.599 15.988 201.311 15.5C201.023 15.004 200.879 14.444 200.879 13.82C200.879 13.188 201.023 12.628 201.311 12.14C201.599 11.652 201.991 11.272 202.487 11C202.983 10.72 203.551 10.58 204.191 10.58C204.823 10.58 205.387 10.72 205.883 11C206.387 11.272 206.779 11.652 207.059 12.14C207.347 12.62 207.491 13.18 207.491 13.82C207.491 14.452 207.347 15.012 207.059 15.5C206.779 15.988 206.387 16.372 205.883 16.652C205.387 16.932 204.823 17.072 204.191 17.072ZM204.191 16.064C204.599 16.064 204.963 15.972 205.283 15.788C205.611 15.604 205.867 15.344 206.051 15.008C206.235 14.664 206.327 14.268 206.327 13.82C206.327 13.364 206.235 12.972 206.051 12.644C205.867 12.308 205.611 12.048 205.283 11.864C204.963 11.68 204.599 11.588 204.191 11.588C203.783 11.588 203.419 11.68 203.099 11.864C202.779 12.048 202.523 12.308 202.331 12.644C202.139 12.972 202.043 13.364 202.043 13.82C202.043 14.268 202.139 14.664 202.331 15.008C202.523 15.344 202.779 15.604 203.099 15.788C203.419 15.972 203.783 16.064 204.191 16.064ZM217.04 10.58C217.552 10.58 218.004 10.68 218.396 10.88C218.788 11.08 219.092 11.384 219.308 11.792C219.532 12.2 219.644 12.716 219.644 13.34V17H218.492V13.472C218.492 12.856 218.348 12.392 218.06 12.08C217.772 11.768 217.368 11.612 216.848 11.612C216.464 11.612 216.128 11.692 215.84 11.852C215.552 12.012 215.328 12.248 215.168 12.56C215.016 12.872 214.94 13.26 214.94 13.724V17H213.788V13.472C213.788 12.856 213.644 12.392 213.356 12.08C213.076 11.768 212.672 11.612 212.144 11.612C211.768 11.612 211.436 11.692 211.148 11.852C210.86 12.012 210.636 12.248 210.476 12.56C210.316 12.872 210.236 13.26 210.236 13.724V17H209.084V10.64H210.188V12.332L210.008 11.9C210.208 11.484 210.516 11.16 210.932 10.928C211.348 10.696 211.832 10.58 212.384 10.58C212.992 10.58 213.516 10.732 213.956 11.036C214.396 11.332 214.684 11.784 214.82 12.392L214.352 12.2C214.544 11.712 214.88 11.32 215.36 11.024C215.84 10.728 216.4 10.58 217.04 10.58ZM225.155 17V8.6H226.355V17H225.155ZM228.869 17V8.6H229.853L233.621 14.948H233.093L236.813 8.6H237.797L237.809 17H236.657L236.645 10.412H236.921L233.609 15.98H233.057L229.721 10.412H230.021V17H228.869ZM240.33 17V8.6H241.53V15.956H246.078V17H240.33ZM250.678 17V8.6H253.954C254.69 8.6 255.318 8.716 255.838 8.948C256.358 9.18 256.758 9.516 257.038 9.956C257.318 10.396 257.458 10.92 257.458 11.528C257.458 12.136 257.318 12.66 257.038 13.1C256.758 13.532 256.358 13.868 255.838 14.108C255.318 14.34 254.69 14.456 253.954 14.456H251.338L251.878 13.892V17H250.678ZM251.878 14.012L251.338 13.412H253.918C254.686 13.412 255.266 13.248 255.658 12.92C256.058 12.592 256.258 12.128 256.258 11.528C256.258 10.928 256.058 10.464 255.658 10.136C255.266 9.808 254.686 9.644 253.918 9.644H251.338L251.878 9.044V14.012ZM258.947 17V10.64H260.051V12.368L259.943 11.936C260.119 11.496 260.415 11.16 260.831 10.928C261.247 10.696 261.759 10.58 262.367 10.58V11.696C262.319 11.688 262.271 11.684 262.223 11.684C262.183 11.684 262.143 11.684 262.103 11.684C261.487 11.684 260.999 11.868 260.639 12.236C260.279 12.604 260.099 13.136 260.099 13.832V17H258.947ZM263.787 17V10.64H264.939V17H263.787ZM264.363 9.416C264.139 9.416 263.951 9.344 263.799 9.2C263.655 9.056 263.583 8.88 263.583 8.672C263.583 8.456 263.655 8.276 263.799 8.132C263.951 7.988 264.139 7.916 264.363 7.916C264.587 7.916 264.771 7.988 264.915 8.132C265.067 8.268 265.143 8.44 265.143 8.648C265.143 8.864 265.071 9.048 264.927 9.2C264.783 9.344 264.595 9.416 264.363 9.416ZM270.535 10.58C271.055 10.58 271.511 10.68 271.903 10.88C272.303 11.08 272.615 11.384 272.839 11.792C273.063 12.2 273.175 12.716 273.175 13.34V17H272.023V13.472C272.023 12.856 271.871 12.392 271.567 12.08C271.271 11.768 270.851 11.612 270.307 11.612C269.899 11.612 269.543 11.692 269.239 11.852C268.935 12.012 268.699 12.248 268.531 12.56C268.371 12.872 268.291 13.26 268.291 13.724V17H267.139V10.64H268.243V12.356L268.063 11.9C268.271 11.484 268.591 11.16 269.023 10.928C269.455 10.696 269.959 10.58 270.535 10.58ZM277.491 17.072C276.851 17.072 276.355 16.9 276.003 16.556C275.651 16.212 275.475 15.72 275.475 15.08V9.248H276.627V15.032C276.627 15.376 276.711 15.64 276.879 15.824C277.055 16.008 277.303 16.1 277.623 16.1C277.983 16.1 278.283 16 278.523 15.8L278.883 16.628C278.707 16.78 278.495 16.892 278.247 16.964C278.007 17.036 277.755 17.072 277.491 17.072ZM274.395 11.588V10.64H278.451V11.588H274.395ZM280.276 17V10.64H281.428V17H280.276ZM280.852 9.416C280.628 9.416 280.44 9.344 280.288 9.2C280.144 9.056 280.072 8.88 280.072 8.672C280.072 8.456 280.144 8.276 280.288 8.132C280.44 7.988 280.628 7.916 280.852 7.916C281.076 7.916 281.26 7.988 281.404 8.132C281.556 8.268 281.632 8.44 281.632 8.648C281.632 8.864 281.56 9.048 281.416 9.2C281.272 9.344 281.084 9.416 280.852 9.416ZM287.023 10.58C287.543 10.58 287.999 10.68 288.391 10.88C288.791 11.08 289.103 11.384 289.327 11.792C289.551 12.2 289.663 12.716 289.663 13.34V17H288.511V13.472C288.511 12.856 288.359 12.392 288.055 12.08C287.759 11.768 287.339 11.612 286.795 11.612C286.387 11.612 286.031 11.692 285.727 11.852C285.423 12.012 285.187 12.248 285.019 12.56C284.859 12.872 284.779 13.26 284.779 13.724V17H283.627V10.64H284.731V12.356L284.551 11.9C284.759 11.484 285.079 11.16 285.511 10.928C285.943 10.696 286.447 10.58 287.023 10.58ZM294.579 19.4C293.995 19.4 293.427 19.316 292.875 19.148C292.331 18.988 291.887 18.756 291.543 18.452L292.095 17.564C292.391 17.82 292.755 18.02 293.187 18.164C293.619 18.316 294.071 18.392 294.543 18.392C295.295 18.392 295.847 18.216 296.199 17.864C296.551 17.512 296.727 16.976 296.727 16.256V14.912L296.847 13.652L296.787 12.38V10.64H297.879V16.136C297.879 17.256 297.599 18.08 297.039 18.608C296.479 19.136 295.659 19.4 294.579 19.4ZM294.435 16.736C293.819 16.736 293.267 16.608 292.779 16.352C292.299 16.088 291.915 15.724 291.627 15.26C291.347 14.796 291.207 14.26 291.207 13.652C291.207 13.036 291.347 12.5 291.627 12.044C291.915 11.58 292.299 11.22 292.779 10.964C293.267 10.708 293.819 10.58 294.435 10.58C294.979 10.58 295.475 10.692 295.923 10.916C296.371 11.132 296.727 11.468 296.991 11.924C297.263 12.38 297.399 12.956 297.399 13.652C297.399 14.34 297.263 14.912 296.991 15.368C296.727 15.824 296.371 16.168 295.923 16.4C295.475 16.624 294.979 16.736 294.435 16.736ZM294.567 15.728C294.991 15.728 295.367 15.64 295.695 15.464C296.023 15.288 296.279 15.044 296.463 14.732C296.655 14.42 296.751 14.06 296.751 13.652C296.751 13.244 296.655 12.884 296.463 12.572C296.279 12.26 296.023 12.02 295.695 11.852C295.367 11.676 294.991 11.588 294.567 11.588C294.143 11.588 293.763 11.676 293.427 11.852C293.099 12.02 292.839 12.26 292.647 12.572C292.463 12.884 292.371 13.244 292.371 13.652C292.371 14.06 292.463 14.42 292.647 14.732C292.839 15.044 293.099 15.288 293.427 15.464C293.763 15.64 294.143 15.728 294.567 15.728Z" fill="#717370"/>
</svg>
