<svg width="303" height="18" viewBox="0 0 303 18" fill="none" xmlns="http://www.w3.org/2000/svg">
<path d="M-0.000187397 17.0879V0.287889H3.88781V17.0879H-0.000187397ZM7.87481 17.0879V0.287889H11.0908L18.2428 12.1439H16.5388L23.5708 0.287889H26.7628L26.8108 17.0879H23.1628L23.1388 5.87989H23.8108L18.1948 15.3119H16.4428L10.7068 5.87989H11.5228V17.0879H7.87481ZM30.7967 17.0879V0.287889H34.6847V13.9199H43.1087V17.0879H30.7967ZM52.0779 17.0879V0.287889H59.3499C60.8539 0.287889 62.1499 0.53589 63.2379 1.03189C64.3259 1.51189 65.1659 2.20789 65.7579 3.11989C66.3499 4.03189 66.6459 5.11989 66.6459 6.38389C66.6459 7.63189 66.3499 8.71189 65.7579 9.62389C65.1659 10.5199 64.3259 11.2079 63.2379 11.6879C62.1499 12.1679 60.8539 12.4079 59.3499 12.4079H54.2379L55.9659 10.7039V17.0879H52.0779ZM62.7579 17.0879L58.5579 10.9919H62.7099L66.9579 17.0879H62.7579ZM55.9659 11.1359L54.2379 9.31189H59.1339C60.3339 9.31189 61.2299 9.05589 61.8219 8.54389C62.4139 8.01589 62.7099 7.29589 62.7099 6.38389C62.7099 5.45589 62.4139 4.73589 61.8219 4.22389C61.2299 3.71189 60.3339 3.45589 59.1339 3.45589H54.2379L55.9659 1.60789V11.1359ZM77.8864 17.3759C76.5584 17.3759 75.3264 17.1599 74.1904 16.7279C73.0704 16.2959 72.0944 15.6879 71.2624 14.9039C70.4464 14.1199 69.8064 13.1999 69.3424 12.1439C68.8944 11.0879 68.6704 9.93589 68.6704 8.68789C68.6704 7.43989 68.8944 6.28789 69.3424 5.23189C69.8064 4.17589 70.4544 3.25589 71.2864 2.47189C72.1184 1.68789 73.0944 1.07989 74.2144 0.647889C75.3344 0.21589 76.5504 -0.000109673 77.8624 -0.000109673C79.1904 -0.000109673 80.4064 0.21589 81.5104 0.647889C82.6304 1.07989 83.5984 1.68789 84.4144 2.47189C85.2464 3.25589 85.8944 4.17589 86.3584 5.23189C86.8224 6.27189 87.0544 7.42389 87.0544 8.68789C87.0544 9.93589 86.8224 11.0959 86.3584 12.1679C85.8944 13.2239 85.2464 14.1439 84.4144 14.9279C83.5984 15.6959 82.6304 16.2959 81.5104 16.7279C80.4064 17.1599 79.1984 17.3759 77.8864 17.3759ZM77.8624 14.0639C78.6144 14.0639 79.3024 13.9359 79.9264 13.6799C80.5664 13.4239 81.1264 13.0559 81.6064 12.5759C82.0864 12.0959 82.4544 11.5279 82.7104 10.8719C82.9824 10.2159 83.1184 9.48789 83.1184 8.68789C83.1184 7.88789 82.9824 7.15989 82.7104 6.50389C82.4544 5.84789 82.0864 5.27989 81.6064 4.79989C81.1424 4.31989 80.5904 3.95189 79.9504 3.69589C79.3104 3.43989 78.6144 3.31189 77.8624 3.31189C77.1104 3.31189 76.4144 3.43989 75.7744 3.69589C75.1504 3.95189 74.5984 4.31989 74.1184 4.79989C73.6384 5.27989 73.2624 5.84789 72.9904 6.50389C72.7344 7.15989 72.6064 7.88789 72.6064 8.68789C72.6064 9.47189 72.7344 10.1999 72.9904 10.8719C73.2624 11.5279 73.6304 12.0959 74.0944 12.5759C74.5744 13.0559 75.1344 13.4239 75.7744 13.6799C76.4144 13.9359 77.1104 14.0639 77.8624 14.0639ZM97.4404 17.3759C95.0564 17.3759 93.1924 16.7119 91.8484 15.3839C90.5044 14.0559 89.8324 12.1599 89.8324 9.69589V0.287889H93.7204V9.55189C93.7204 11.1519 94.0484 12.3039 94.7044 13.0079C95.3604 13.7119 96.2804 14.0639 97.4644 14.0639C98.6484 14.0639 99.5684 13.7119 100.224 13.0079C100.88 12.3039 101.208 11.1519 101.208 9.55189V0.287889H105.048V9.69589C105.048 12.1599 104.376 14.0559 103.032 15.3839C101.688 16.7119 99.8244 17.3759 97.4404 17.3759ZM108.89 17.0879V0.287889H112.106L122.018 12.3839H120.458V0.287889H124.298V17.0879H121.106L111.17 4.99189H112.73V17.0879H108.89ZM128.273 17.0879V0.287889H135.905C137.729 0.287889 139.337 0.63989 140.729 1.34389C142.121 2.03189 143.209 2.99989 143.993 4.24789C144.777 5.49589 145.169 6.97589 145.169 8.68789C145.169 10.3839 144.777 11.8639 143.993 13.1279C143.209 14.3759 142.121 15.3519 140.729 16.0559C139.337 16.7439 137.729 17.0879 135.905 17.0879H128.273ZM132.161 13.8959H135.713C136.833 13.8959 137.801 13.6879 138.617 13.2719C139.449 12.8399 140.089 12.2319 140.537 11.4479C141.001 10.6639 141.233 9.74389 141.233 8.68789C141.233 7.61589 141.001 6.69589 140.537 5.92789C140.089 5.14389 139.449 4.54389 138.617 4.12789C137.801 3.69589 136.833 3.47989 135.713 3.47989H132.161V13.8959ZM162.938 17.3759C161.642 17.3759 160.434 17.1679 159.314 16.7519C158.21 16.3199 157.25 15.7119 156.434 14.9279C155.618 14.1439 154.978 13.2239 154.514 12.1679C154.066 11.1119 153.842 9.95189 153.842 8.68789C153.842 7.42389 154.066 6.26389 154.514 5.20789C154.978 4.15189 155.618 3.23189 156.434 2.44789C157.266 1.66389 158.234 1.06389 159.338 0.647889C160.442 0.21589 161.65 -0.000109673 162.962 -0.000109673C164.418 -0.000109673 165.73 0.25589 166.898 0.76789C168.082 1.26389 169.074 1.99989 169.874 2.97589L167.378 5.27989C166.802 4.62389 166.162 4.13589 165.458 3.81589C164.754 3.47989 163.986 3.31189 163.154 3.31189C162.37 3.31189 161.65 3.43989 160.994 3.69589C160.338 3.95189 159.77 4.31989 159.29 4.79989C158.81 5.27989 158.434 5.84789 158.162 6.50389C157.906 7.15989 157.778 7.88789 157.778 8.68789C157.778 9.48789 157.906 10.2159 158.162 10.8719C158.434 11.5279 158.81 12.0959 159.29 12.5759C159.77 13.0559 160.338 13.4239 160.994 13.6799C161.65 13.9359 162.37 14.0639 163.154 14.0639C163.986 14.0639 164.754 13.9039 165.458 13.5839C166.162 13.2479 166.802 12.7439 167.378 12.0719L169.874 14.3759C169.074 15.3519 168.082 16.0959 166.898 16.6079C165.73 17.1199 164.41 17.3759 162.938 17.3759ZM180.308 17.3759C178.98 17.3759 177.748 17.1599 176.612 16.7279C175.492 16.2959 174.516 15.6879 173.684 14.9039C172.868 14.1199 172.228 13.1999 171.764 12.1439C171.316 11.0879 171.092 9.93589 171.092 8.68789C171.092 7.43989 171.316 6.28789 171.764 5.23189C172.228 4.17589 172.876 3.25589 173.708 2.47189C174.54 1.68789 175.516 1.07989 176.636 0.647889C177.756 0.21589 178.972 -0.000109673 180.284 -0.000109673C181.612 -0.000109673 182.828 0.21589 183.932 0.647889C185.052 1.07989 186.02 1.68789 186.836 2.47189C187.668 3.25589 188.316 4.17589 188.78 5.23189C189.244 6.27189 189.476 7.42389 189.476 8.68789C189.476 9.93589 189.244 11.0959 188.78 12.1679C188.316 13.2239 187.668 14.1439 186.836 14.9279C186.02 15.6959 185.052 16.2959 183.932 16.7279C182.828 17.1599 181.62 17.3759 180.308 17.3759ZM180.284 14.0639C181.036 14.0639 181.724 13.9359 182.348 13.6799C182.988 13.4239 183.548 13.0559 184.028 12.5759C184.508 12.0959 184.876 11.5279 185.132 10.8719C185.404 10.2159 185.54 9.48789 185.54 8.68789C185.54 7.88789 185.404 7.15989 185.132 6.50389C184.876 5.84789 184.508 5.27989 184.028 4.79989C183.564 4.31989 183.012 3.95189 182.372 3.69589C181.732 3.43989 181.036 3.31189 180.284 3.31189C179.532 3.31189 178.836 3.43989 178.196 3.69589C177.572 3.95189 177.02 4.31989 176.54 4.79989C176.06 5.27989 175.684 5.84789 175.412 6.50389C175.156 7.15989 175.028 7.88789 175.028 8.68789C175.028 9.47189 175.156 10.1999 175.412 10.8719C175.684 11.5279 176.052 12.0959 176.516 12.5759C176.996 13.0559 177.556 13.4239 178.196 13.6799C178.836 13.9359 179.532 14.0639 180.284 14.0639ZM192.398 17.0879V0.287889H195.614L205.526 12.3839H203.966V0.287889H207.806V17.0879H204.614L194.678 4.99189H196.238V17.0879H192.398ZM215.261 17.0879V3.45589H209.885V0.287889H224.525V3.45589H219.149V17.0879H215.261ZM223.565 17.0879L231.053 0.287889H234.893L242.405 17.0879H238.325L232.181 2.25589H233.717L227.549 17.0879H223.565ZM227.309 13.4879L228.341 10.5359H236.981L238.037 13.4879H227.309ZM244.148 17.0879V0.287889H248.036V17.0879H244.148ZM252.023 17.0879V0.287889H255.239L265.151 12.3839H263.591V0.287889H267.431V17.0879H264.239L254.303 4.99189H255.863V17.0879H252.023ZM274.982 7.05589H283.07V10.0799H274.982V7.05589ZM275.27 13.9679H284.414V17.0879H271.406V0.287889H284.102V3.40789H275.27V13.9679ZM287.508 17.0879V0.287889H294.78C296.284 0.287889 297.58 0.53589 298.668 1.03189C299.756 1.51189 300.596 2.20789 301.188 3.11989C301.78 4.03189 302.076 5.11989 302.076 6.38389C302.076 7.63189 301.78 8.71189 301.188 9.62389C300.596 10.5199 299.756 11.2079 298.668 11.6879C297.58 12.1679 296.284 12.4079 294.78 12.4079H289.668L291.396 10.7039V17.0879H287.508ZM298.188 17.0879L293.988 10.9919H298.14L302.388 17.0879H298.188ZM291.396 11.1359L289.668 9.31189H294.564C295.764 9.31189 296.66 9.05589 297.252 8.54389C297.844 8.01589 298.14 7.29589 298.14 6.38389C298.14 5.45589 297.844 4.73589 297.252 4.22389C296.66 3.71189 295.764 3.45589 294.564 3.45589H289.668L291.396 1.60789V11.1359Z" fill="black"/>
</svg>
