<svg width="186" height="27" viewBox="0 0 186 27" fill="none" xmlns="http://www.w3.org/2000/svg">
<path d="M46.632 9.81644C46.048 9.81644 45.464 9.74444 44.88 9.60044C44.304 9.45644 43.8 9.25244 43.368 8.98844L44.232 7.20044C44.568 7.42444 44.94 7.59644 45.348 7.71644C45.764 7.83644 46.168 7.89644 46.56 7.89644C46.968 7.89644 47.292 7.82044 47.532 7.66844C47.772 7.51644 47.892 7.30044 47.892 7.02044C47.892 6.77244 47.792 6.57644 47.592 6.43244C47.392 6.28044 47.064 6.20444 46.608 6.20444H45.612V4.70444L47.868 2.26844L48.096 3.08444H43.8V1.24844H49.872V2.73644L47.616 5.17244L46.452 4.51244H47.1C48.148 4.51244 48.94 4.74844 49.476 5.22044C50.02 5.68444 50.292 6.28444 50.292 7.02044C50.292 7.50044 50.16 7.95244 49.896 8.37644C49.64 8.80044 49.244 9.14844 48.708 9.42044C48.172 9.68444 47.48 9.81644 46.632 9.81644ZM54.9425 9.81644C54.1585 9.81644 53.4745 9.66044 52.8905 9.34844C52.3145 9.03644 51.8625 8.57244 51.5345 7.95644C51.2145 7.34044 51.0545 6.58044 51.0545 5.67644C51.0545 4.70044 51.2425 3.87244 51.6185 3.19244C52.0025 2.50444 52.5265 1.98044 53.1905 1.62044C53.8625 1.26044 54.6385 1.08044 55.5185 1.08044C55.9905 1.08044 56.4425 1.13644 56.8745 1.24844C57.3145 1.35244 57.6865 1.50044 57.9905 1.69244L57.1265 3.39644C56.8865 3.22844 56.6345 3.11644 56.3705 3.06044C56.1145 2.99644 55.8505 2.96444 55.5785 2.96444C54.9305 2.96444 54.4105 3.16044 54.0185 3.55244C53.6345 3.94444 53.4425 4.51644 53.4425 5.26844C53.4425 5.40444 53.4425 5.54844 53.4425 5.70044C53.4505 5.84444 53.4665 5.99244 53.4905 6.14444L52.8905 5.65244C53.0505 5.35644 53.2425 5.10844 53.4665 4.90844C53.6985 4.70844 53.9705 4.55644 54.2825 4.45244C54.6025 4.34844 54.9585 4.29644 55.3505 4.29644C55.8785 4.29644 56.3585 4.40844 56.7905 4.63244C57.2305 4.84844 57.5825 5.15644 57.8465 5.55644C58.1105 5.94844 58.2425 6.41244 58.2425 6.94844C58.2425 7.53244 58.0945 8.04044 57.7985 8.47244C57.5025 8.89644 57.1065 9.22844 56.6105 9.46844C56.1145 9.70044 55.5585 9.81644 54.9425 9.81644ZM54.7985 8.12444C55.0225 8.12444 55.2185 8.08044 55.3865 7.99244C55.5625 7.90444 55.6985 7.78044 55.7945 7.62044C55.8905 7.46044 55.9385 7.27244 55.9385 7.05644C55.9385 6.73644 55.8305 6.48044 55.6145 6.28844C55.4065 6.09644 55.1305 6.00044 54.7865 6.00044C54.5545 6.00044 54.3505 6.04444 54.1745 6.13244C54.0065 6.22044 53.8705 6.34444 53.7665 6.50444C53.6705 6.66444 53.6225 6.85244 53.6225 7.06844C53.6225 7.27644 53.6705 7.46044 53.7665 7.62044C53.8625 7.77244 53.9985 7.89644 54.1745 7.99244C54.3505 8.08044 54.5585 8.12444 54.7985 8.12444ZM62.5555 9.81644C61.8355 9.81644 61.1955 9.64444 60.6355 9.30044C60.0835 8.95644 59.6475 8.46044 59.3275 7.81244C59.0075 7.16444 58.8475 6.37644 58.8475 5.44844C58.8475 4.52044 59.0075 3.73244 59.3275 3.08444C59.6475 2.43644 60.0835 1.94044 60.6355 1.59644C61.1955 1.25244 61.8355 1.08044 62.5555 1.08044C63.2675 1.08044 63.8995 1.25244 64.4515 1.59644C65.0115 1.94044 65.4515 2.43644 65.7715 3.08444C66.0915 3.73244 66.2515 4.52044 66.2515 5.44844C66.2515 6.37644 66.0915 7.16444 65.7715 7.81244C65.4515 8.46044 65.0115 8.95644 64.4515 9.30044C63.8995 9.64444 63.2675 9.81644 62.5555 9.81644ZM62.5555 7.87244C62.8115 7.87244 63.0355 7.79244 63.2275 7.63244C63.4275 7.47244 63.5835 7.21644 63.6955 6.86444C63.8075 6.50444 63.8635 6.03244 63.8635 5.44844C63.8635 4.85644 63.8075 4.38444 63.6955 4.03244C63.5835 3.68044 63.4275 3.42444 63.2275 3.26444C63.0355 3.10444 62.8115 3.02444 62.5555 3.02444C62.2995 3.02444 62.0715 3.10444 61.8715 3.26444C61.6795 3.42444 61.5235 3.68044 61.4035 4.03244C61.2915 4.38444 61.2355 4.85644 61.2355 5.44844C61.2355 6.03244 61.2915 6.50444 61.4035 6.86444C61.5235 7.21644 61.6795 7.47244 61.8715 7.63244C62.0715 7.79244 62.2995 7.87244 62.5555 7.87244ZM69.1503 5.35244C68.7583 5.35244 68.3943 5.26044 68.0583 5.07644C67.7303 4.89244 67.4663 4.64044 67.2663 4.32044C67.0743 4.00044 66.9783 3.64044 66.9783 3.24044C66.9783 2.84844 67.0743 2.49244 67.2663 2.17244C67.4663 1.85244 67.7303 1.60044 68.0583 1.41644C68.3863 1.22444 68.7503 1.12844 69.1503 1.12844C69.5583 1.12844 69.9263 1.22444 70.2543 1.41644C70.5823 1.60044 70.8423 1.85244 71.0343 2.17244C71.2343 2.49244 71.3343 2.84844 71.3343 3.24044C71.3343 3.64044 71.2343 4.00044 71.0343 4.32044C70.8423 4.64044 70.5823 4.89244 70.2543 5.07644C69.9263 5.26044 69.5583 5.35244 69.1503 5.35244ZM69.1503 4.27244C69.3503 4.27244 69.5263 4.22844 69.6783 4.14044C69.8303 4.04444 69.9503 3.92044 70.0383 3.76844C70.1263 3.61644 70.1703 3.44444 70.1703 3.25244C70.1703 3.05244 70.1263 2.87644 70.0383 2.72444C69.9503 2.56444 69.8303 2.44044 69.6783 2.35244C69.5263 2.26444 69.3503 2.22044 69.1503 2.22044C68.9583 2.22044 68.7863 2.26444 68.6343 2.35244C68.4823 2.44044 68.3623 2.56444 68.2743 2.72444C68.1863 2.87644 68.1423 3.04844 68.1423 3.24044C68.1423 3.44044 68.1863 3.61644 68.2743 3.76844C68.3623 3.92044 68.4823 4.04444 68.6343 4.14044C68.7863 4.22844 68.9583 4.27244 69.1503 4.27244ZM75.9904 9.64844V1.24844H80.2864C81.3904 1.24844 82.2144 1.45244 82.7584 1.86044C83.3024 2.26044 83.5744 2.78844 83.5744 3.44444C83.5744 3.87644 83.4584 4.25644 83.2264 4.58444C83.0024 4.90444 82.6824 5.16044 82.2664 5.35244C81.8584 5.53644 81.3704 5.62844 80.8024 5.62844L81.0424 5.05244C81.6344 5.05244 82.1504 5.14444 82.5904 5.32844C83.0304 5.50444 83.3704 5.76444 83.6104 6.10844C83.8584 6.44444 83.9824 6.85644 83.9824 7.34444C83.9824 8.07244 83.6864 8.64044 83.0944 9.04844C82.5104 9.44844 81.6544 9.64844 80.5264 9.64844H75.9904ZM78.3424 7.93244H80.3344C80.7424 7.93244 81.0504 7.86444 81.2584 7.72844C81.4744 7.58444 81.5824 7.36844 81.5824 7.08044C81.5824 6.79244 81.4744 6.58044 81.2584 6.44444C81.0504 6.30044 80.7424 6.22844 80.3344 6.22844H78.1744V4.58444H79.9744C80.3744 4.58444 80.6744 4.51644 80.8744 4.38044C81.0744 4.24444 81.1744 4.04044 81.1744 3.76844C81.1744 3.49644 81.0744 3.29644 80.8744 3.16844C80.6744 3.03244 80.3744 2.96444 79.9744 2.96444H78.3424V7.93244ZM85.105 9.64844V3.14444H87.277V5.04044L86.953 4.50044C87.145 4.01244 87.457 3.64844 87.889 3.40844C88.321 3.16044 88.845 3.03644 89.461 3.03644V5.08844C89.357 5.07244 89.265 5.06444 89.185 5.06444C89.113 5.05644 89.033 5.05244 88.945 5.05244C88.481 5.05244 88.105 5.18044 87.817 5.43644C87.529 5.68444 87.385 6.09244 87.385 6.66044V9.64844H85.105ZM93.9755 9.64844V8.43644L93.8195 8.13644V5.90444C93.8195 5.54444 93.7075 5.26844 93.4835 5.07644C93.2675 4.87644 92.9195 4.77644 92.4395 4.77644C92.1275 4.77644 91.8115 4.82844 91.4915 4.93244C91.1715 5.02844 90.8995 5.16444 90.6755 5.34044L89.9075 3.79244C90.2755 3.55244 90.7155 3.36844 91.2275 3.24044C91.7475 3.10444 92.2635 3.03644 92.7755 3.03644C93.8315 3.03644 94.6475 3.28044 95.2235 3.76844C95.8075 4.24844 96.0995 5.00444 96.0995 6.03644V9.64844H93.9755ZM92.0555 9.75644C91.5355 9.75644 91.0955 9.66844 90.7355 9.49244C90.3755 9.31644 90.0995 9.07644 89.9075 8.77244C89.7235 8.46844 89.6315 8.12844 89.6315 7.75244C89.6315 7.35244 89.7315 7.00844 89.9315 6.72044C90.1395 6.42444 90.4555 6.20044 90.8795 6.04844C91.3035 5.88844 91.8515 5.80844 92.5235 5.80844H94.0595V6.99644H92.8355C92.4675 6.99644 92.2075 7.05644 92.0555 7.17644C91.9115 7.29644 91.8395 7.45644 91.8395 7.65644C91.8395 7.85644 91.9155 8.01644 92.0675 8.13644C92.2195 8.25644 92.4275 8.31644 92.6915 8.31644C92.9395 8.31644 93.1635 8.25644 93.3635 8.13644C93.5715 8.00844 93.7235 7.81644 93.8195 7.56044L94.1315 8.40044C94.0115 8.84844 93.7755 9.18844 93.4235 9.42044C93.0795 9.64444 92.6235 9.75644 92.0555 9.75644ZM101.775 3.03644C102.279 3.03644 102.735 3.14044 103.143 3.34844C103.551 3.54844 103.871 3.86044 104.103 4.28444C104.343 4.70844 104.463 5.25644 104.463 5.92844V9.64844H102.183V6.30044C102.183 5.83644 102.087 5.50044 101.895 5.29244C101.711 5.07644 101.451 4.96844 101.115 4.96844C100.875 4.96844 100.655 5.02444 100.455 5.13644C100.255 5.24044 100.099 5.40444 99.9866 5.62844C99.8746 5.85244 99.8186 6.14444 99.8186 6.50444V9.64844H97.5386V3.14444H99.7106V4.99244L99.2906 4.45244C99.5386 3.98044 99.8786 3.62844 100.311 3.39644C100.743 3.15644 101.231 3.03644 101.775 3.03644ZM108.808 9.75644C108.216 9.75644 107.676 9.62044 107.188 9.34844C106.708 9.06844 106.324 8.68044 106.036 8.18444C105.748 7.68044 105.604 7.08044 105.604 6.38444C105.604 5.69644 105.748 5.10444 106.036 4.60844C106.324 4.10444 106.708 3.71644 107.188 3.44444C107.676 3.17244 108.216 3.03644 108.808 3.03644C109.368 3.03644 109.84 3.15644 110.224 3.39644C110.616 3.63644 110.912 4.00444 111.112 4.50044C111.312 4.99644 111.412 5.62444 111.412 6.38444C111.412 7.16044 111.316 7.79644 111.124 8.29244C110.932 8.78844 110.644 9.15644 110.26 9.39644C109.876 9.63644 109.392 9.75644 108.808 9.75644ZM109.288 7.94444C109.544 7.94444 109.772 7.88444 109.972 7.76444C110.18 7.64444 110.344 7.46844 110.464 7.23644C110.584 6.99644 110.644 6.71244 110.644 6.38444C110.644 6.05644 110.584 5.78044 110.464 5.55644C110.344 5.32444 110.18 5.14844 109.972 5.02844C109.772 4.90844 109.544 4.84844 109.288 4.84844C109.024 4.84844 108.788 4.90844 108.58 5.02844C108.38 5.14844 108.22 5.32444 108.1 5.55644C107.98 5.78044 107.92 6.05644 107.92 6.38444C107.92 6.71244 107.98 6.99644 108.1 7.23644C108.22 7.46844 108.38 7.64444 108.58 7.76444C108.788 7.88444 109.024 7.94444 109.288 7.94444ZM110.716 9.64844V8.53244L110.728 6.38444L110.608 4.23644V0.744437H112.888V9.64844H110.716ZM114.355 9.64844V3.14444H116.635V9.64844H114.355ZM115.495 2.42444C115.079 2.42444 114.743 2.30844 114.487 2.07644C114.231 1.84444 114.103 1.55644 114.103 1.21244C114.103 0.868437 114.231 0.580437 114.487 0.348437C114.743 0.116437 115.079 0.00043726 115.495 0.00043726C115.911 0.00043726 116.247 0.112437 116.503 0.336437C116.759 0.552437 116.887 0.832437 116.887 1.17644C116.887 1.53644 116.759 1.83644 116.503 2.07644C116.255 2.30844 115.919 2.42444 115.495 2.42444ZM122.353 3.03644C122.857 3.03644 123.313 3.14044 123.721 3.34844C124.129 3.54844 124.449 3.86044 124.681 4.28444C124.921 4.70844 125.041 5.25644 125.041 5.92844V9.64844H122.761V6.30044C122.761 5.83644 122.665 5.50044 122.473 5.29244C122.289 5.07644 122.029 4.96844 121.693 4.96844C121.453 4.96844 121.233 5.02444 121.033 5.13644C120.833 5.24044 120.677 5.40444 120.565 5.62844C120.453 5.85244 120.397 6.14444 120.397 6.50444V9.64844H118.117V3.14444H120.289V4.99244L119.869 4.45244C120.117 3.98044 120.457 3.62844 120.889 3.39644C121.321 3.15644 121.809 3.03644 122.353 3.03644ZM129.734 12.0844C129.11 12.0844 128.514 12.0124 127.946 11.8684C127.386 11.7244 126.906 11.5124 126.506 11.2324L127.334 9.63644C127.606 9.85244 127.942 10.0204 128.342 10.1404C128.75 10.2684 129.146 10.3324 129.53 10.3324C130.146 10.3324 130.59 10.1964 130.862 9.92444C131.134 9.66044 131.27 9.27244 131.27 8.76044V7.99244L131.39 6.16844L131.378 4.33244V3.14444H133.55V8.46044C133.55 9.69244 133.218 10.6044 132.554 11.1964C131.89 11.7884 130.95 12.0844 129.734 12.0844ZM129.338 9.31244C128.762 9.31244 128.23 9.18444 127.742 8.92844C127.262 8.66444 126.874 8.30044 126.578 7.83644C126.29 7.36444 126.146 6.80844 126.146 6.16844C126.146 5.52844 126.29 4.97644 126.578 4.51244C126.874 4.04044 127.262 3.67644 127.742 3.42044C128.23 3.16444 128.762 3.03644 129.338 3.03644C129.89 3.03644 130.362 3.14844 130.754 3.37244C131.146 3.58844 131.442 3.92844 131.642 4.39244C131.85 4.85644 131.954 5.44844 131.954 6.16844C131.954 6.88844 131.85 7.48044 131.642 7.94444C131.442 8.40844 131.146 8.75244 130.754 8.97644C130.362 9.20044 129.89 9.31244 129.338 9.31244ZM129.878 7.50044C130.15 7.50044 130.39 7.44444 130.598 7.33244C130.814 7.22044 130.982 7.06444 131.102 6.86444C131.23 6.66444 131.294 6.43244 131.294 6.16844C131.294 5.90444 131.23 5.67244 131.102 5.47244C130.982 5.27244 130.814 5.12044 130.598 5.01644C130.39 4.90444 130.15 4.84844 129.878 4.84844C129.606 4.84844 129.362 4.90444 129.146 5.01644C128.93 5.12044 128.758 5.27244 128.63 5.47244C128.51 5.67244 128.45 5.90444 128.45 6.16844C128.45 6.43244 128.51 6.66444 128.63 6.86444C128.758 7.06444 128.93 7.22044 129.146 7.33244C129.362 7.44444 129.606 7.50044 129.878 7.50044ZM135.975 5.73644C135.591 5.73644 135.267 5.60844 135.003 5.35244C134.739 5.09644 134.607 4.77244 134.607 4.38044C134.607 3.97244 134.739 3.64844 135.003 3.40844C135.267 3.16044 135.591 3.03644 135.975 3.03644C136.359 3.03644 136.683 3.16044 136.947 3.40844C137.211 3.64844 137.343 3.97244 137.343 4.38044C137.343 4.77244 137.211 5.09644 136.947 5.35244C136.683 5.60844 136.359 5.73644 135.975 5.73644ZM135.975 9.75644C135.591 9.75644 135.267 9.62844 135.003 9.37244C134.739 9.11644 134.607 8.79244 134.607 8.40044C134.607 7.99244 134.739 7.66844 135.003 7.42844C135.267 7.18044 135.591 7.05644 135.975 7.05644C136.359 7.05644 136.683 7.18044 136.947 7.42844C137.211 7.66844 137.343 7.99244 137.343 8.40044C137.343 8.79244 137.211 9.11644 136.947 9.37244C136.683 9.62844 136.359 9.75644 135.975 9.75644Z" fill="white"/>
<path d="M0.000156254 26.6484V18.2484L3.84016 18.2484C4.60816 18.2484 5.26816 18.3724 5.82016 18.6204C6.38016 18.8684 6.81216 19.2284 7.11616 19.7004C7.42016 20.1644 7.57216 20.7164 7.57216 21.3564C7.57216 21.9884 7.42016 22.5364 7.11616 23.0004C6.81216 23.4644 6.38016 23.8244 5.82016 24.0804C5.26816 24.3284 4.60816 24.4524 3.84016 24.4524L1.32016 24.4524L2.37616 23.4204V26.6484L0.000156254 26.6484ZM2.37616 23.6724L1.32016 22.5804L3.69616 22.5804C4.19216 22.5804 4.56016 22.4724 4.80016 22.2564C5.04816 22.0404 5.17216 21.7404 5.17216 21.3564C5.17216 20.9644 5.04816 20.6604 4.80016 20.4444C4.56016 20.2284 4.19216 20.1204 3.69616 20.1204L1.32016 20.1204L2.37616 19.0284V23.6724ZM8.68122 26.6484V20.1444H10.8532V22.0404L10.5292 21.5004C10.7212 21.0124 11.0332 20.6484 11.4652 20.4084C11.8972 20.1604 12.4212 20.0364 13.0372 20.0364V22.0884C12.9332 22.0724 12.8412 22.0644 12.7612 22.0644C12.6892 22.0564 12.6092 22.0524 12.5212 22.0524C12.0572 22.0524 11.6812 22.1804 11.3932 22.4364C11.1052 22.6844 10.9612 23.0924 10.9612 23.6604V26.6484H8.68122ZM17.3275 26.7564C16.5595 26.7564 15.8875 26.6124 15.3115 26.3244C14.7435 26.0284 14.2995 25.6284 13.9795 25.1244C13.6675 24.6124 13.5115 24.0324 13.5115 23.3844C13.5115 22.7364 13.6635 22.1604 13.9675 21.6564C14.2795 21.1444 14.7075 20.7484 15.2515 20.4684C15.7955 20.1804 16.4075 20.0364 17.0875 20.0364C17.7275 20.0364 18.3115 20.1684 18.8395 20.4324C19.3675 20.6884 19.7875 21.0684 20.0995 21.5724C20.4115 22.0764 20.5675 22.6884 20.5675 23.4084C20.5675 23.4884 20.5635 23.5804 20.5555 23.6844C20.5475 23.7884 20.5395 23.8844 20.5315 23.9724H15.3835V22.7724H19.3195L18.4555 23.1084C18.4635 22.8124 18.4075 22.5564 18.2875 22.3404C18.1755 22.1244 18.0155 21.9564 17.8075 21.8364C17.6075 21.7164 17.3715 21.6564 17.0995 21.6564C16.8275 21.6564 16.5875 21.7164 16.3795 21.8364C16.1795 21.9564 16.0235 22.1284 15.9115 22.3524C15.7995 22.5684 15.7435 22.8244 15.7435 23.1204V23.4684C15.7435 23.7884 15.8075 24.0644 15.9355 24.2964C16.0715 24.5284 16.2635 24.7084 16.5115 24.8364C16.7595 24.9564 17.0555 25.0164 17.3995 25.0164C17.7195 25.0164 17.9915 24.9724 18.2155 24.8844C18.4475 24.7884 18.6755 24.6444 18.8995 24.4524L20.0995 25.7004C19.7875 26.0444 19.4035 26.3084 18.9475 26.4924C18.4915 26.6684 17.9515 26.7564 17.3275 26.7564ZM24.9427 26.7564C24.2227 26.7564 23.5787 26.6124 23.0107 26.3244C22.4507 26.0364 22.0107 25.6404 21.6907 25.1364C21.3707 24.6244 21.2107 24.0404 21.2107 23.3844C21.2107 22.7284 21.3707 22.1484 21.6907 21.6444C22.0107 21.1404 22.4507 20.7484 23.0107 20.4684C23.5787 20.1804 24.2227 20.0364 24.9427 20.0364C25.6787 20.0364 26.3147 20.1924 26.8507 20.5044C27.3867 20.8164 27.7667 21.2564 27.9907 21.8244L26.2267 22.7244C26.0747 22.4204 25.8867 22.2004 25.6627 22.0644C25.4387 21.9204 25.1947 21.8484 24.9307 21.8484C24.6667 21.8484 24.4267 21.9084 24.2107 22.0284C23.9947 22.1484 23.8227 22.3244 23.6947 22.5564C23.5747 22.7804 23.5147 23.0564 23.5147 23.3844C23.5147 23.7204 23.5747 24.0044 23.6947 24.2364C23.8227 24.4684 23.9947 24.6444 24.2107 24.7644C24.4267 24.8844 24.6667 24.9444 24.9307 24.9444C25.1947 24.9444 25.4387 24.8764 25.6627 24.7404C25.8867 24.5964 26.0747 24.3724 26.2267 24.0684L27.9907 24.9684C27.7667 25.5364 27.3867 25.9764 26.8507 26.2884C26.3147 26.6004 25.6787 26.7564 24.9427 26.7564ZM28.8258 26.6484V20.1444H31.1058V26.6484H28.8258ZM29.9658 19.4244C29.5498 19.4244 29.2138 19.3084 28.9578 19.0764C28.7018 18.8444 28.5738 18.5564 28.5738 18.2124C28.5738 17.8684 28.7018 17.5804 28.9578 17.3484C29.2138 17.1164 29.5498 17.0004 29.9658 17.0004C30.3818 17.0004 30.7178 17.1124 30.9738 17.3364C31.2298 17.5524 31.3578 17.8324 31.3578 18.1764C31.3578 18.5364 31.2298 18.8364 30.9738 19.0764C30.7258 19.3084 30.3898 19.4244 29.9658 19.4244ZM34.9515 26.7564C34.3995 26.7564 33.8595 26.6924 33.3315 26.5644C32.8115 26.4364 32.3915 26.2764 32.0715 26.0844L32.7555 24.5244C33.0595 24.7084 33.4155 24.8564 33.8235 24.9684C34.2315 25.0724 34.6315 25.1244 35.0235 25.1244C35.4075 25.1244 35.6715 25.0844 35.8155 25.0044C35.9675 24.9244 36.0435 24.8164 36.0435 24.6804C36.0435 24.5524 35.9715 24.4604 35.8275 24.4044C35.6915 24.3404 35.5075 24.2924 35.2755 24.2604C35.0515 24.2284 34.8035 24.1924 34.5315 24.1524C34.2595 24.1124 33.9835 24.0604 33.7035 23.9964C33.4315 23.9244 33.1795 23.8204 32.9475 23.6844C32.7235 23.5404 32.5435 23.3484 32.4075 23.1084C32.2715 22.8684 32.2035 22.5644 32.2035 22.1964C32.2035 21.7804 32.3235 21.4124 32.5635 21.0924C32.8115 20.7644 33.1715 20.5084 33.6435 20.3244C34.1155 20.1324 34.6915 20.0364 35.3715 20.0364C35.8275 20.0364 36.2875 20.0844 36.7515 20.1804C37.2235 20.2684 37.6195 20.4044 37.9395 20.5884L37.2555 22.1364C36.9355 21.9524 36.6155 21.8284 36.2955 21.7644C35.9755 21.6924 35.6715 21.6564 35.3835 21.6564C34.9995 21.6564 34.7275 21.7004 34.5675 21.7884C34.4155 21.8764 34.3395 21.9844 34.3395 22.1124C34.3395 22.2404 34.4075 22.3404 34.5435 22.4124C34.6795 22.4764 34.8595 22.5284 35.0835 22.5684C35.3155 22.6004 35.5675 22.6364 35.8395 22.6764C36.1115 22.7084 36.3835 22.7604 36.6555 22.8324C36.9355 22.9044 37.1875 23.0124 37.4115 23.1564C37.6435 23.2924 37.8275 23.4804 37.9635 23.7204C38.0995 23.9524 38.1675 24.2524 38.1675 24.6204C38.1675 25.0204 38.0435 25.3804 37.7955 25.7004C37.5555 26.0204 37.1955 26.2764 36.7155 26.4684C36.2435 26.6604 35.6555 26.7564 34.9515 26.7564ZM39.15 26.6484V20.1444H41.43V26.6484H39.15ZM40.29 19.4244C39.874 19.4244 39.538 19.3084 39.282 19.0764C39.026 18.8444 38.898 18.5564 38.898 18.2124C38.898 17.8684 39.026 17.5804 39.282 17.3484C39.538 17.1164 39.874 17.0004 40.29 17.0004C40.706 17.0004 41.042 17.1124 41.298 17.3364C41.554 17.5524 41.682 17.8324 41.682 18.1764C41.682 18.5364 41.554 18.8364 41.298 19.0764C41.05 19.3084 40.714 19.4244 40.29 19.4244ZM46.1757 26.7564C45.4637 26.7564 44.8317 26.6124 44.2797 26.3244C43.7277 26.0364 43.2917 25.6404 42.9717 25.1364C42.6597 24.6244 42.5037 24.0404 42.5037 23.3844C42.5037 22.7284 42.6597 22.1484 42.9717 21.6444C43.2917 21.1404 43.7277 20.7484 44.2797 20.4684C44.8317 20.1804 45.4637 20.0364 46.1757 20.0364C46.8877 20.0364 47.5197 20.1804 48.0717 20.4684C48.6317 20.7484 49.0677 21.1404 49.3797 21.6444C49.6917 22.1484 49.8477 22.7284 49.8477 23.3844C49.8477 24.0404 49.6917 24.6244 49.3797 25.1364C49.0677 25.6404 48.6317 26.0364 48.0717 26.3244C47.5197 26.6124 46.8877 26.7564 46.1757 26.7564ZM46.1757 24.9444C46.4397 24.9444 46.6717 24.8844 46.8717 24.7644C47.0797 24.6444 47.2437 24.4684 47.3637 24.2364C47.4837 23.9964 47.5437 23.7124 47.5437 23.3844C47.5437 23.0564 47.4837 22.7804 47.3637 22.5564C47.2437 22.3244 47.0797 22.1484 46.8717 22.0284C46.6717 21.9084 46.4397 21.8484 46.1757 21.8484C45.9197 21.8484 45.6877 21.9084 45.4797 22.0284C45.2797 22.1484 45.1157 22.3244 44.9877 22.5564C44.8677 22.7804 44.8077 23.0564 44.8077 23.3844C44.8077 23.7124 44.8677 23.9964 44.9877 24.2364C45.1157 24.4684 45.2797 24.6444 45.4797 24.7644C45.6877 24.8844 45.9197 24.9444 46.1757 24.9444ZM55.1399 20.0364C55.6439 20.0364 56.0999 20.1404 56.5079 20.3484C56.9159 20.5484 57.2359 20.8604 57.4679 21.2844C57.7079 21.7084 57.8279 22.2564 57.8279 22.9284V26.6484H55.5479V23.3004C55.5479 22.8364 55.4519 22.5004 55.2599 22.2924C55.0759 22.0764 54.8159 21.9684 54.4799 21.9684C54.2399 21.9684 54.0199 22.0244 53.8199 22.1364C53.6199 22.2404 53.4639 22.4044 53.3519 22.6284C53.2399 22.8524 53.1839 23.1444 53.1839 23.5044V26.6484H50.9039V20.1444H53.0759V21.9924L52.6559 21.4524C52.9039 20.9804 53.2439 20.6284 53.6759 20.3964C54.1079 20.1564 54.5959 20.0364 55.1399 20.0364ZM62.8595 26.6484V18.2484H65.2355V26.6484H62.8595ZM66.9259 26.6484V18.2484H68.8819L72.3619 23.9604H71.3299L74.7139 18.2484H76.6699L76.6939 26.6484H74.5099L74.4859 21.5724H74.8579L72.3259 25.8204H71.2699L68.6659 21.5724H69.1219V26.6484H66.9259ZM78.3752 26.6484V18.2484H80.7512V24.7644H84.7592V26.6484H78.3752ZM92.3476 26.7564C91.6356 26.7564 91.0036 26.6124 90.4516 26.3244C89.8996 26.0364 89.4636 25.6404 89.1436 25.1364C88.8316 24.6244 88.6756 24.0404 88.6756 23.3844C88.6756 22.7284 88.8316 22.1484 89.1436 21.6444C89.4636 21.1404 89.8996 20.7484 90.4516 20.4684C91.0036 20.1804 91.6356 20.0364 92.3476 20.0364C93.0596 20.0364 93.6916 20.1804 94.2436 20.4684C94.8036 20.7484 95.2396 21.1404 95.5516 21.6444C95.8636 22.1484 96.0196 22.7284 96.0196 23.3844C96.0196 24.0404 95.8636 24.6244 95.5516 25.1364C95.2396 25.6404 94.8036 26.0364 94.2436 26.3244C93.6916 26.6124 93.0596 26.7564 92.3476 26.7564ZM92.3476 24.9444C92.6116 24.9444 92.8436 24.8844 93.0436 24.7644C93.2516 24.6444 93.4156 24.4684 93.5356 24.2364C93.6556 23.9964 93.7156 23.7124 93.7156 23.3844C93.7156 23.0564 93.6556 22.7804 93.5356 22.5564C93.4156 22.3244 93.2516 22.1484 93.0436 22.0284C92.8436 21.9084 92.6116 21.8484 92.3476 21.8484C92.0916 21.8484 91.8596 21.9084 91.6516 22.0284C91.4516 22.1484 91.2876 22.3244 91.1596 22.5564C91.0396 22.7804 90.9796 23.0564 90.9796 23.3844C90.9796 23.7124 91.0396 23.9964 91.1596 24.2364C91.2876 24.4684 91.4516 24.6444 91.6516 24.7644C91.8596 24.8844 92.0916 24.9444 92.3476 24.9444ZM101.312 20.0364C101.816 20.0364 102.272 20.1404 102.68 20.3484C103.088 20.5484 103.408 20.8604 103.64 21.2844C103.88 21.7084 104 22.2564 104 22.9284V26.6484H101.72V23.3004C101.72 22.8364 101.624 22.5004 101.432 22.2924C101.248 22.0764 100.988 21.9684 100.652 21.9684C100.412 21.9684 100.192 22.0244 99.9918 22.1364C99.7918 22.2404 99.6358 22.4044 99.5238 22.6284C99.4118 22.8524 99.3558 23.1444 99.3558 23.5044V26.6484H97.0758V20.1444H99.2478V21.9924L98.8278 21.4524C99.0758 20.9804 99.4158 20.6284 99.8478 20.3964C100.28 20.1564 100.768 20.0364 101.312 20.0364ZM108.923 26.6484V17.7444H111.203V26.6484H108.923ZM112.685 26.6484V20.1444H114.965V26.6484H112.685ZM113.825 19.4244C113.409 19.4244 113.073 19.3084 112.817 19.0764C112.561 18.8444 112.433 18.5564 112.433 18.2124C112.433 17.8684 112.561 17.5804 112.817 17.3484C113.073 17.1164 113.409 17.0004 113.825 17.0004C114.241 17.0004 114.577 17.1124 114.833 17.3364C115.089 17.5524 115.217 17.8324 115.217 18.1764C115.217 18.5364 115.089 18.8364 114.833 19.0764C114.585 19.3084 114.249 19.4244 113.825 19.4244ZM119.279 26.7564C118.687 26.7564 118.147 26.6204 117.659 26.3484C117.179 26.0684 116.795 25.6804 116.507 25.1844C116.219 24.6804 116.075 24.0804 116.075 23.3844C116.075 22.6964 116.219 22.1044 116.507 21.6084C116.795 21.1044 117.179 20.7164 117.659 20.4444C118.147 20.1724 118.687 20.0364 119.279 20.0364C119.839 20.0364 120.311 20.1564 120.695 20.3964C121.087 20.6364 121.383 21.0044 121.583 21.5004C121.783 21.9964 121.883 22.6244 121.883 23.3844C121.883 24.1604 121.787 24.7964 121.595 25.2924C121.403 25.7884 121.115 26.1564 120.731 26.3964C120.347 26.6364 119.863 26.7564 119.279 26.7564ZM119.759 24.9444C120.015 24.9444 120.243 24.8844 120.443 24.7644C120.651 24.6444 120.815 24.4684 120.935 24.2364C121.055 23.9964 121.115 23.7124 121.115 23.3844C121.115 23.0564 121.055 22.7804 120.935 22.5564C120.815 22.3244 120.651 22.1484 120.443 22.0284C120.243 21.9084 120.015 21.8484 119.759 21.8484C119.495 21.8484 119.259 21.9084 119.051 22.0284C118.851 22.1484 118.691 22.3244 118.571 22.5564C118.451 22.7804 118.391 23.0564 118.391 23.3844C118.391 23.7124 118.451 23.9964 118.571 24.2364C118.691 24.4684 118.851 24.6444 119.051 24.7644C119.259 24.8844 119.495 24.9444 119.759 24.9444ZM121.187 26.6484V25.5324L121.199 23.3844L121.079 21.2364V17.7444H123.359V26.6484H121.187ZM132.29 26.6484V25.4364L132.134 25.1364V22.9044C132.134 22.5444 132.022 22.2684 131.798 22.0764C131.582 21.8764 131.234 21.7764 130.754 21.7764C130.442 21.7764 130.126 21.8284 129.806 21.9324C129.486 22.0284 129.214 22.1644 128.99 22.3404L128.222 20.7924C128.59 20.5524 129.03 20.3684 129.542 20.2404C130.062 20.1044 130.578 20.0364 131.09 20.0364C132.146 20.0364 132.962 20.2804 133.538 20.7684C134.122 21.2484 134.414 22.0044 134.414 23.0364V26.6484H132.29ZM130.37 26.7564C129.85 26.7564 129.41 26.6684 129.05 26.4924C128.69 26.3164 128.414 26.0764 128.222 25.7724C128.038 25.4684 127.946 25.1284 127.946 24.7524C127.946 24.3524 128.046 24.0084 128.246 23.7204C128.454 23.4244 128.77 23.2004 129.194 23.0484C129.618 22.8884 130.166 22.8084 130.838 22.8084H132.374V23.9964H131.15C130.782 23.9964 130.522 24.0564 130.37 24.1764C130.226 24.2964 130.154 24.4564 130.154 24.6564C130.154 24.8564 130.23 25.0164 130.382 25.1364C130.534 25.2564 130.742 25.3164 131.006 25.3164C131.254 25.3164 131.478 25.2564 131.678 25.1364C131.886 25.0084 132.038 24.8164 132.134 24.5604L132.446 25.4004C132.326 25.8484 132.09 26.1884 131.738 26.4204C131.394 26.6444 130.938 26.7564 130.37 26.7564ZM140.089 20.0364C140.593 20.0364 141.049 20.1404 141.457 20.3484C141.865 20.5484 142.185 20.8604 142.417 21.2844C142.657 21.7084 142.777 22.2564 142.777 22.9284V26.6484H140.497V23.3004C140.497 22.8364 140.401 22.5004 140.209 22.2924C140.025 22.0764 139.765 21.9684 139.429 21.9684C139.189 21.9684 138.969 22.0244 138.769 22.1364C138.569 22.2404 138.413 22.4044 138.301 22.6284C138.189 22.8524 138.133 23.1444 138.133 23.5044V26.6484H135.853V20.1444H138.025V21.9924L137.605 21.4524C137.853 20.9804 138.193 20.6284 138.625 20.3964C139.057 20.1564 139.545 20.0364 140.089 20.0364ZM147.123 26.7564C146.531 26.7564 145.991 26.6204 145.503 26.3484C145.023 26.0684 144.639 25.6804 144.351 25.1844C144.063 24.6804 143.919 24.0804 143.919 23.3844C143.919 22.6964 144.063 22.1044 144.351 21.6084C144.639 21.1044 145.023 20.7164 145.503 20.4444C145.991 20.1724 146.531 20.0364 147.123 20.0364C147.683 20.0364 148.155 20.1564 148.539 20.3964C148.931 20.6364 149.227 21.0044 149.427 21.5004C149.627 21.9964 149.727 22.6244 149.727 23.3844C149.727 24.1604 149.631 24.7964 149.439 25.2924C149.247 25.7884 148.959 26.1564 148.575 26.3964C148.191 26.6364 147.707 26.7564 147.123 26.7564ZM147.603 24.9444C147.859 24.9444 148.087 24.8844 148.287 24.7644C148.495 24.6444 148.659 24.4684 148.779 24.2364C148.899 23.9964 148.959 23.7124 148.959 23.3844C148.959 23.0564 148.899 22.7804 148.779 22.5564C148.659 22.3244 148.495 22.1484 148.287 22.0284C148.087 21.9084 147.859 21.8484 147.603 21.8484C147.339 21.8484 147.103 21.9084 146.895 22.0284C146.695 22.1484 146.535 22.3244 146.415 22.5564C146.295 22.7804 146.235 23.0564 146.235 23.3844C146.235 23.7124 146.295 23.9964 146.415 24.2364C146.535 24.4684 146.695 24.6444 146.895 24.7644C147.103 24.8844 147.339 24.9444 147.603 24.9444ZM149.031 26.6484V25.5324L149.043 23.3844L148.923 21.2364V17.7444H151.203V26.6484H149.031ZM160.254 26.7564C159.67 26.7564 159.182 26.6364 158.79 26.3964C158.406 26.1564 158.118 25.7884 157.926 25.2924C157.734 24.7964 157.638 24.1604 157.638 23.3844C157.638 22.6244 157.738 21.9964 157.938 21.5004C158.146 21.0044 158.446 20.6364 158.838 20.3964C159.23 20.1564 159.702 20.0364 160.254 20.0364C160.846 20.0364 161.382 20.1724 161.862 20.4444C162.35 20.7164 162.734 21.1044 163.014 21.6084C163.302 22.1044 163.446 22.6964 163.446 23.3844C163.446 24.0804 163.302 24.6804 163.014 25.1844C162.734 25.6804 162.35 26.0684 161.862 26.3484C161.382 26.6204 160.846 26.7564 160.254 26.7564ZM156.162 26.6484V17.7444H158.442V21.2364L158.322 23.3844L158.334 25.5324V26.6484H156.162ZM159.774 24.9444C160.03 24.9444 160.258 24.8844 160.458 24.7644C160.666 24.6444 160.83 24.4684 160.95 24.2364C161.078 23.9964 161.142 23.7124 161.142 23.3844C161.142 23.0564 161.078 22.7804 160.95 22.5564C160.83 22.3244 160.666 22.1484 160.458 22.0284C160.258 21.9084 160.03 21.8484 159.774 21.8484C159.518 21.8484 159.286 21.9084 159.078 22.0284C158.878 22.1484 158.714 22.3244 158.586 22.5564C158.466 22.7804 158.406 23.0564 158.406 23.3844C158.406 23.7124 158.466 23.9964 158.586 24.2364C158.714 24.4684 158.878 24.6444 159.078 24.7644C159.286 24.8844 159.518 24.9444 159.774 24.9444ZM168.337 26.6484V25.4364L168.181 25.1364V22.9044C168.181 22.5444 168.069 22.2684 167.845 22.0764C167.629 21.8764 167.281 21.7764 166.801 21.7764C166.489 21.7764 166.173 21.8284 165.853 21.9324C165.533 22.0284 165.261 22.1644 165.037 22.3404L164.269 20.7924C164.637 20.5524 165.077 20.3684 165.589 20.2404C166.109 20.1044 166.625 20.0364 167.137 20.0364C168.193 20.0364 169.009 20.2804 169.585 20.7684C170.169 21.2484 170.461 22.0044 170.461 23.0364V26.6484H168.337ZM166.417 26.7564C165.897 26.7564 165.457 26.6684 165.097 26.4924C164.737 26.3164 164.461 26.0764 164.269 25.7724C164.085 25.4684 163.993 25.1284 163.993 24.7524C163.993 24.3524 164.093 24.0084 164.293 23.7204C164.501 23.4244 164.817 23.2004 165.241 23.0484C165.665 22.8884 166.213 22.8084 166.885 22.8084H168.421V23.9964H167.197C166.829 23.9964 166.569 24.0564 166.417 24.1764C166.273 24.2964 166.201 24.4564 166.201 24.6564C166.201 24.8564 166.277 25.0164 166.429 25.1364C166.581 25.2564 166.789 25.3164 167.053 25.3164C167.301 25.3164 167.525 25.2564 167.725 25.1364C167.933 25.0084 168.085 24.8164 168.181 24.5604L168.493 25.4004C168.373 25.8484 168.137 26.1884 167.785 26.4204C167.441 26.6444 166.985 26.7564 166.417 26.7564ZM174.264 26.7564C173.712 26.7564 173.172 26.6924 172.644 26.5644C172.124 26.4364 171.704 26.2764 171.384 26.0844L172.068 24.5244C172.372 24.7084 172.728 24.8564 173.136 24.9684C173.544 25.0724 173.944 25.1244 174.336 25.1244C174.72 25.1244 174.984 25.0844 175.128 25.0044C175.28 24.9244 175.356 24.8164 175.356 24.6804C175.356 24.5524 175.284 24.4604 175.14 24.4044C175.004 24.3404 174.82 24.2924 174.588 24.2604C174.364 24.2284 174.116 24.1924 173.844 24.1524C173.572 24.1124 173.296 24.0604 173.016 23.9964C172.744 23.9244 172.492 23.8204 172.26 23.6844C172.036 23.5404 171.856 23.3484 171.72 23.1084C171.584 22.8684 171.516 22.5644 171.516 22.1964C171.516 21.7804 171.636 21.4124 171.876 21.0924C172.124 20.7644 172.484 20.5084 172.956 20.3244C173.428 20.1324 174.004 20.0364 174.684 20.0364C175.14 20.0364 175.6 20.0844 176.064 20.1804C176.536 20.2684 176.932 20.4044 177.252 20.5884L176.568 22.1364C176.248 21.9524 175.928 21.8284 175.608 21.7644C175.288 21.6924 174.984 21.6564 174.696 21.6564C174.312 21.6564 174.04 21.7004 173.88 21.7884C173.728 21.8764 173.652 21.9844 173.652 22.1124C173.652 22.2404 173.72 22.3404 173.856 22.4124C173.992 22.4764 174.172 22.5284 174.396 22.5684C174.628 22.6004 174.88 22.6364 175.152 22.6764C175.424 22.7084 175.696 22.7604 175.968 22.8324C176.248 22.9044 176.5 23.0124 176.724 23.1564C176.956 23.2924 177.14 23.4804 177.276 23.7204C177.412 23.9524 177.48 24.2524 177.48 24.6204C177.48 25.0204 177.356 25.3804 177.108 25.7004C176.868 26.0204 176.508 26.2764 176.028 26.4684C175.556 26.6604 174.968 26.7564 174.264 26.7564ZM181.87 26.7564C181.102 26.7564 180.43 26.6124 179.854 26.3244C179.286 26.0284 178.842 25.6284 178.522 25.1244C178.21 24.6124 178.054 24.0324 178.054 23.3844C178.054 22.7364 178.206 22.1604 178.51 21.6564C178.822 21.1444 179.25 20.7484 179.794 20.4684C180.338 20.1804 180.95 20.0364 181.63 20.0364C182.27 20.0364 182.854 20.1684 183.382 20.4324C183.91 20.6884 184.33 21.0684 184.642 21.5724C184.954 22.0764 185.11 22.6884 185.11 23.4084C185.11 23.4884 185.106 23.5804 185.098 23.6844C185.09 23.7884 185.082 23.8844 185.074 23.9724H179.926V22.7724H183.862L182.998 23.1084C183.006 22.8124 182.95 22.5564 182.83 22.3404C182.718 22.1244 182.558 21.9564 182.35 21.8364C182.15 21.7164 181.914 21.6564 181.642 21.6564C181.37 21.6564 181.13 21.7164 180.922 21.8364C180.722 21.9564 180.566 22.1284 180.454 22.3524C180.342 22.5684 180.286 22.8244 180.286 23.1204V23.4684C180.286 23.7884 180.35 24.0644 180.478 24.2964C180.614 24.5284 180.806 24.7084 181.054 24.8364C181.302 24.9564 181.598 25.0164 181.942 25.0164C182.262 25.0164 182.534 24.9724 182.758 24.8844C182.99 24.7884 183.218 24.6444 183.442 24.4524L184.642 25.7004C184.33 26.0444 183.946 26.3084 183.49 26.4924C183.034 26.6684 182.494 26.7564 181.87 26.7564Z" fill="#F6F4F3"/>
</svg>
