<svg width="103" height="36" viewBox="0 0 103 36" fill="none" xmlns="http://www.w3.org/2000/svg">
<circle cx="11.55" cy="18.0001" r="8.83019" fill="#D9D9D9"/>
<path fill-rule="evenodd" clip-rule="evenodd" d="M7.30115 6.80873C9.82253 5.81178 12.6148 5.73424 15.1879 6.589L14.851 7.60463C12.5162 6.82899 9.98256 6.89924 7.69471 7.80385C5.40694 8.70847 3.51023 10.3894 2.33729 12.5519C1.16434 14.7144 0.790213 17.221 1.27967 19.632C1.66317 21.5209 2.5594 23.2554 3.85389 24.6564C3.99109 24.5973 4.14327 24.5656 4.30213 24.5656C4.92717 24.5658 5.43397 25.0733 5.43397 25.6984C5.43373 26.3233 4.92702 26.83 4.30213 26.8302C3.67705 26.8302 3.16956 26.3234 3.16932 25.6984C3.16932 25.6343 3.17568 25.5711 3.18592 25.5099C1.6952 23.9445 0.665114 21.984 0.230842 19.8449C-0.30857 17.1878 0.104262 14.4254 1.39686 12.0421C2.68954 9.65885 4.77984 7.80572 7.30115 6.80873Z" fill="url(#paint0_linear_1305_556)"/>
<path fill-rule="evenodd" clip-rule="evenodd" d="M16.4956 29.1907C13.9742 30.1877 11.1819 30.2662 8.60888 29.4114L8.94579 28.3958C11.2805 29.1714 13.8142 29.1012 16.102 28.1966C18.3898 27.292 20.2865 25.6111 21.4595 23.4485C22.6324 21.286 23.0065 18.7795 22.5171 16.3685C22.1335 14.479 21.2369 12.7442 19.9419 11.3431C19.8048 11.402 19.6533 11.4339 19.4946 11.4339C18.8696 11.4337 18.3628 10.9271 18.3628 10.3021C18.3629 9.67707 18.8697 9.17044 19.4946 9.17022C20.1198 9.17022 20.6273 9.67693 20.6274 10.3021C20.6274 10.3662 20.6211 10.4293 20.6108 10.4905C22.1016 12.056 23.1316 14.0165 23.5659 16.1556C24.1053 18.8126 23.6925 21.575 22.3999 23.9583C21.1073 26.3415 19.0168 28.1937 16.4956 29.1907Z" fill="url(#paint1_linear_1305_556)"/>
<path d="M8.67456 21.064C8.23723 21.064 7.84523 20.952 7.49856 20.728C7.15723 20.504 6.88523 20.1787 6.68256 19.752C6.48523 19.3253 6.38656 18.808 6.38656 18.2C6.38656 17.592 6.48523 17.0747 6.68256 16.648C6.88523 16.2213 7.15723 15.896 7.49856 15.672C7.84523 15.448 8.23723 15.336 8.67456 15.336C9.10656 15.336 9.4959 15.448 9.84256 15.672C10.1892 15.896 10.4612 16.2213 10.6586 16.648C10.8559 17.0747 10.9546 17.592 10.9546 18.2C10.9546 18.808 10.8559 19.3253 10.6586 19.752C10.4612 20.1787 10.1892 20.504 9.84256 20.728C9.4959 20.952 9.10656 21.064 8.67456 21.064ZM8.67456 20.352C8.9679 20.352 9.2239 20.272 9.44256 20.112C9.66656 19.952 9.8399 19.712 9.96256 19.392C10.0906 19.072 10.1546 18.6747 10.1546 18.2C10.1546 17.7253 10.0906 17.328 9.96256 17.008C9.8399 16.688 9.66656 16.448 9.44256 16.288C9.2239 16.128 8.9679 16.048 8.67456 16.048C8.38123 16.048 8.12256 16.128 7.89856 16.288C7.67456 16.448 7.49856 16.688 7.37056 17.008C7.2479 17.328 7.18656 17.7253 7.18656 18.2C7.18656 18.6747 7.2479 19.072 7.37056 19.392C7.49856 19.712 7.67456 19.952 7.89856 20.112C8.12256 20.272 8.38123 20.352 8.67456 20.352ZM12.6665 21V15.72L13.0105 16.096H11.4025V15.4H13.4585V21H12.6665Z" fill="#464643"/>
<path d="M33.2328 23V13.62L33.6808 14.096H30.9228V13.2H34.2408V23H33.2328ZM39.6773 23.084C38.9773 23.084 38.31 22.972 37.6753 22.748C37.0407 22.5147 36.5367 22.2067 36.1633 21.824L36.6533 21.026C36.9613 21.3527 37.3813 21.6233 37.9133 21.838C38.4547 22.0527 39.038 22.16 39.6633 22.16C40.494 22.16 41.124 21.978 41.5533 21.614C41.992 21.2407 42.2113 20.7553 42.2113 20.158C42.2113 19.738 42.1087 19.3787 41.9033 19.08C41.7073 18.772 41.3713 18.534 40.8953 18.366C40.4193 18.198 39.766 18.114 38.9353 18.114H36.8493L37.3533 13.2H42.7153V14.096H37.7593L38.2773 13.606L37.8433 17.722L37.3253 17.218H39.1593C40.1487 17.218 40.942 17.3393 41.5393 17.582C42.1367 17.8247 42.566 18.1653 42.8273 18.604C43.098 19.0333 43.2333 19.5373 43.2333 20.116C43.2333 20.6667 43.1027 21.1707 42.8413 21.628C42.58 22.076 42.188 22.4307 41.6653 22.692C41.1427 22.9533 40.48 23.084 39.6773 23.084ZM48.419 23.084C47.663 23.084 46.991 22.888 46.403 22.496C45.815 22.0947 45.353 21.5253 45.017 20.788C44.681 20.0413 44.513 19.1453 44.513 18.1C44.513 17.0547 44.681 16.1633 45.017 15.426C45.353 14.6793 45.815 14.11 46.403 13.718C46.991 13.3167 47.663 13.116 48.419 13.116C49.175 13.116 49.847 13.3167 50.435 13.718C51.023 14.11 51.485 14.6793 51.821 15.426C52.1664 16.1633 52.339 17.0547 52.339 18.1C52.339 19.1453 52.1664 20.0413 51.821 20.788C51.485 21.5253 51.023 22.0947 50.435 22.496C49.847 22.888 49.175 23.084 48.419 23.084ZM48.419 22.16C48.9977 22.16 49.5017 22.006 49.931 21.698C50.3604 21.3807 50.6964 20.9233 50.939 20.326C51.1817 19.7193 51.303 18.9773 51.303 18.1C51.303 17.2227 51.1817 16.4853 50.939 15.888C50.6964 15.2813 50.3604 14.824 49.931 14.516C49.5017 14.1987 48.9977 14.04 48.419 14.04C47.859 14.04 47.3597 14.1987 46.921 14.516C46.4824 14.824 46.1417 15.2813 45.899 15.888C45.6564 16.4853 45.535 17.2227 45.535 18.1C45.535 18.9773 45.6564 19.7193 45.899 20.326C46.1417 20.9233 46.4824 21.3807 46.921 21.698C47.3597 22.006 47.859 22.16 48.419 22.16ZM57.6886 23.084C56.9326 23.084 56.2606 22.888 55.6726 22.496C55.0846 22.0947 54.6226 21.5253 54.2866 20.788C53.9506 20.0413 53.7826 19.1453 53.7826 18.1C53.7826 17.0547 53.9506 16.1633 54.2866 15.426C54.6226 14.6793 55.0846 14.11 55.6726 13.718C56.2606 13.3167 56.9326 13.116 57.6886 13.116C58.4446 13.116 59.1166 13.3167 59.7046 13.718C60.2926 14.11 60.7546 14.6793 61.0906 15.426C61.4359 16.1633 61.6086 17.0547 61.6086 18.1C61.6086 19.1453 61.4359 20.0413 61.0906 20.788C60.7546 21.5253 60.2926 22.0947 59.7046 22.496C59.1166 22.888 58.4446 23.084 57.6886 23.084ZM57.6886 22.16C58.2672 22.16 58.7712 22.006 59.2006 21.698C59.6299 21.3807 59.9659 20.9233 60.2086 20.326C60.4512 19.7193 60.5726 18.9773 60.5726 18.1C60.5726 17.2227 60.4512 16.4853 60.2086 15.888C59.9659 15.2813 59.6299 14.824 59.2006 14.516C58.7712 14.1987 58.2672 14.04 57.6886 14.04C57.1286 14.04 56.6292 14.1987 56.1906 14.516C55.7519 14.824 55.4112 15.2813 55.1686 15.888C54.9259 16.4853 54.8046 17.2227 54.8046 18.1C54.8046 18.9773 54.9259 19.7193 55.1686 20.326C55.4112 20.9233 55.7519 21.3807 56.1906 21.698C56.6292 22.006 57.1286 22.16 57.6886 22.16ZM67.5842 23V13.2H68.4382L72.9182 20.844H72.4702L76.9082 13.2H77.7622V23H76.7682V14.754H77.0062L72.9182 21.754H72.4282L68.3122 14.754H68.5782V23H67.5842ZM80.9553 23V13.2H81.9913V22.104H87.4793V23H80.9553Z" fill="#272727"/>
<defs>
<linearGradient id="paint0_linear_1305_556" x1="0" y1="16.4151" x2="15.1879" y2="16.4151" gradientUnits="userSpaceOnUse">
<stop stop-color="#414140"/>
<stop offset="1" stop-color="#9E9E95"/>
</linearGradient>
<linearGradient id="paint1_linear_1305_556" x1="16.2028" y1="9.17022" x2="16.2028" y2="30" gradientUnits="userSpaceOnUse">
<stop stop-color="#3D3D3C"/>
<stop offset="1" stop-color="#ADACA2"/>
</linearGradient>
</defs>
</svg>
