<svg width="123" height="14" viewBox="0 0 123 14" fill="none" xmlns="http://www.w3.org/2000/svg">
<path d="M-0.000140548 13.3564V0.756444H6.15586C7.73986 0.756444 8.92786 1.05644 9.71986 1.65644C10.5239 2.25644 10.9259 3.04844 10.9259 4.03245C10.9259 4.69244 10.7639 5.26844 10.4399 5.76044C10.1159 6.24044 9.67186 6.61244 9.10786 6.87645C8.54386 7.14044 7.89586 7.27244 7.16386 7.27244L7.50586 6.53445C8.29786 6.53445 8.99986 6.66645 9.61186 6.93044C10.2239 7.18244 10.6979 7.56045 11.0339 8.06445C11.3819 8.56845 11.5559 9.18645 11.5559 9.91845C11.5559 10.9984 11.1299 11.8444 10.2779 12.4564C9.42586 13.0564 8.17186 13.3564 6.51586 13.3564H-0.000140548ZM2.89786 11.1604H6.29986C7.05586 11.1604 7.62586 11.0404 8.00986 10.8004C8.40586 10.5484 8.60386 10.1524 8.60386 9.61245C8.60386 9.08445 8.40586 8.69445 8.00986 8.44245C7.62586 8.17845 7.05586 8.04645 6.29986 8.04645H2.68186V5.92244H5.79586C6.50386 5.92244 7.04386 5.80244 7.41586 5.56244C7.79986 5.31044 7.99186 4.93244 7.99186 4.42844C7.99186 3.93645 7.79986 3.57045 7.41586 3.33044C7.04386 3.07844 6.50386 2.95245 5.79586 2.95245H2.89786V11.1604ZM16.1978 13.3564V3.13244H12.1658V0.756444H23.1458V3.13244H19.1138V13.3564H16.1978ZM23.4887 9.41445V7.16445H28.5827V9.41445H23.4887ZM31.7554 13.3564V1.83644L33.0154 3.09644H29.2354V0.756444H34.6714V13.3564H31.7554ZM36.7162 10.7104V8.74845L42.6562 0.756444H45.7162L39.9022 8.74845L38.4802 8.33445H48.3982V10.7104H36.7162ZM43.5022 13.3564V10.7104L43.5922 8.33445V5.97644H46.3462V13.3564H43.5022ZM49.6801 9.41445V7.16445H54.7741V9.41445H49.6801ZM58.2297 13.3564L63.3057 1.87245L64.0617 3.13244H57.2757L58.5717 1.76444V5.18444H55.9797V0.756444H66.0777V2.64644L61.3977 13.3564H58.2297ZM71.361 13.5724C70.485 13.5724 69.615 13.4584 68.751 13.2304C67.899 12.9904 67.167 12.6544 66.555 12.2224L67.707 9.99045C68.187 10.3384 68.739 10.6144 69.363 10.8184C69.999 11.0224 70.641 11.1244 71.289 11.1244C72.021 11.1244 72.597 10.9804 73.017 10.6924C73.437 10.4044 73.647 10.0024 73.647 9.48645C73.647 9.16245 73.563 8.87445 73.395 8.62245C73.227 8.37045 72.927 8.17845 72.495 8.04645C72.075 7.91444 71.481 7.84844 70.713 7.84844H67.491L68.139 0.756444H75.825V3.09644H69.183L70.695 1.76444L70.245 6.82245L68.733 5.49045H71.397C72.645 5.49045 73.647 5.66445 74.403 6.01244C75.171 6.34844 75.729 6.81044 76.077 7.39844C76.425 7.98645 76.599 8.65245 76.599 9.39645C76.599 10.1404 76.413 10.8304 76.041 11.4664C75.669 12.0904 75.093 12.6004 74.313 12.9964C73.545 13.3804 72.561 13.5724 71.361 13.5724ZM83.1821 13.5724C82.1501 13.5724 81.2261 13.3204 80.4101 12.8164C79.5941 12.3004 78.9521 11.5564 78.4841 10.5844C78.0161 9.61245 77.7821 8.43644 77.7821 7.05644C77.7821 5.67644 78.0161 4.50044 78.4841 3.52845C78.9521 2.55644 79.5941 1.81844 80.4101 1.31444C81.2261 0.798445 82.1501 0.540445 83.1821 0.540445C84.2261 0.540445 85.1501 0.798445 85.9541 1.31444C86.7701 1.81844 87.4121 2.55644 87.8801 3.52845C88.3481 4.50044 88.5821 5.67644 88.5821 7.05644C88.5821 8.43644 88.3481 9.61245 87.8801 10.5844C87.4121 11.5564 86.7701 12.3004 85.9541 12.8164C85.1501 13.3204 84.2261 13.5724 83.1821 13.5724ZM83.1821 11.1064C83.6741 11.1064 84.1001 10.9684 84.4601 10.6924C84.8321 10.4164 85.1201 9.97845 85.3241 9.37845C85.5401 8.77844 85.6481 8.00444 85.6481 7.05644C85.6481 6.10844 85.5401 5.33444 85.3241 4.73444C85.1201 4.13444 84.8321 3.69644 84.4601 3.42044C84.1001 3.14444 83.6741 3.00644 83.1821 3.00644C82.7021 3.00644 82.2761 3.14444 81.9041 3.42044C81.5441 3.69644 81.2561 4.13444 81.0401 4.73444C80.8361 5.33444 80.7341 6.10844 80.7341 7.05644C80.7341 8.00444 80.8361 8.77844 81.0401 9.37845C81.2561 9.97845 81.5441 10.4164 81.9041 10.6924C82.2761 10.9684 82.7021 11.1064 83.1821 11.1064ZM113.19 3.52845C113.958 3.52845 114.636 3.68445 115.224 3.99644C115.824 4.29644 116.292 4.76444 116.628 5.40044C116.976 6.02444 117.15 6.82844 117.15 7.81244V13.3564H114.342V8.24445C114.342 7.46445 114.18 6.88845 113.856 6.51644C113.532 6.14445 113.076 5.95845 112.488 5.95845C112.08 5.95845 111.714 6.05445 111.39 6.24645C111.066 6.42644 110.814 6.70244 110.634 7.07445C110.454 7.44645 110.364 7.92045 110.364 8.49645V13.3564H107.556V8.24445C107.556 7.46445 107.394 6.88845 107.07 6.51644C106.758 6.14445 106.308 5.95845 105.72 5.95845C105.312 5.95845 104.946 6.05445 104.622 6.24645C104.298 6.42644 104.046 6.70244 103.866 7.07445C103.686 7.44645 103.596 7.92045 103.596 8.49645V13.3564H100.788V3.67244H103.47V6.31844L102.966 5.54445C103.302 4.88444 103.776 4.38644 104.388 4.05044C105.012 3.70245 105.72 3.52845 106.512 3.52845C107.4 3.52845 108.174 3.75645 108.834 4.21245C109.506 4.65645 109.95 5.34044 110.166 6.26444L109.176 5.99445C109.5 5.23844 110.016 4.63844 110.724 4.19445C111.444 3.75045 112.266 3.52845 113.19 3.52845ZM119.667 13.3564V0.000444531H122.475V13.3564H119.667Z" fill="#1B622D"/>
</svg>
