<svg width="261" height="24" viewBox="0 0 261 24" fill="none" xmlns="http://www.w3.org/2000/svg">
<path d="M0.511753 7.75891V0.584202H1.35222L4.57059 6.00623H4.11961L7.29698 0.584202H8.13744L8.14769 7.75891H7.16373L7.15348 2.13189H7.38922L4.56034 6.8877H4.08886L1.23947 2.13189H1.49571V7.75891H0.511753ZM10.1574 7.75891V2.32663H11.1414V7.75891H10.1574ZM10.6494 1.28117C10.4581 1.28117 10.2975 1.21968 10.1677 1.09668C10.0447 0.973686 9.98317 0.823359 9.98317 0.6457C9.98317 0.461207 10.0447 0.307463 10.1677 0.184468C10.2975 0.0614731 10.4581 -2.44032e-05 10.6494 -2.44032e-05C10.8407 -2.44032e-05 10.9979 0.0614731 11.1209 0.184468C11.2507 0.30063 11.3156 0.447541 11.3156 0.6252C11.3156 0.809693 11.2541 0.966853 11.1311 1.09668C11.0081 1.21968 10.8476 1.28117 10.6494 1.28117ZM15.2647 7.82041C14.7386 7.82041 14.2671 7.70425 13.8503 7.47192C13.4403 7.2396 13.1158 6.91503 12.8766 6.49821C12.6374 6.0814 12.5179 5.59625 12.5179 5.04277C12.5179 4.48929 12.6374 4.00756 12.8766 3.59758C13.1158 3.18076 13.4403 2.85619 13.8503 2.62387C14.2671 2.39155 14.7386 2.27538 15.2647 2.27538C15.7226 2.27538 16.136 2.37788 16.5049 2.58287C16.8739 2.78786 17.1678 3.09535 17.3864 3.50533C17.6119 3.91532 17.7246 4.4278 17.7246 5.04277C17.7246 5.65775 17.6153 6.17023 17.3967 6.58021C17.1848 6.99019 16.8944 7.3011 16.5254 7.51292C16.1565 7.71791 15.7362 7.82041 15.2647 7.82041ZM15.3467 6.95944C15.6884 6.95944 15.9959 6.88086 16.2692 6.7237C16.5494 6.56654 16.768 6.34447 16.9252 6.05748C17.0892 5.76366 17.1712 5.42542 17.1712 5.04277C17.1712 4.65329 17.0892 4.31847 16.9252 4.03831C16.768 3.75132 16.5494 3.52925 16.2692 3.37209C15.9959 3.21493 15.6884 3.13635 15.3467 3.13635C14.9983 3.13635 14.6874 3.21493 14.414 3.37209C14.1407 3.52925 13.9221 3.75132 13.7581 4.03831C13.5941 4.31847 13.5121 4.65329 13.5121 5.04277C13.5121 5.42542 13.5941 5.76366 13.7581 6.05748C13.9221 6.34447 14.1407 6.56654 14.414 6.7237C14.6874 6.88086 14.9983 6.95944 15.3467 6.95944ZM17.2019 7.75891V6.29322L17.2634 5.03252L17.1609 3.77182V0.153719H18.1449V7.75891H17.2019ZM19.6581 5.37076V4.52004H22.4153V5.37076H19.6581ZM25.4882 7.82041C25.0372 7.82041 24.6068 7.75891 24.1968 7.63592C23.7936 7.51292 23.4759 7.36259 23.2436 7.18493L23.6536 6.40597C23.8859 6.56313 24.1729 6.69637 24.5145 6.8057C24.8562 6.91503 25.2047 6.96969 25.56 6.96969C26.0178 6.96969 26.3458 6.90478 26.5439 6.77495C26.7489 6.64512 26.8514 6.46405 26.8514 6.23172C26.8514 6.0609 26.7899 5.92765 26.6669 5.83199C26.5439 5.73633 26.3799 5.66458 26.175 5.61675C25.9768 5.56892 25.7547 5.52792 25.5087 5.49375C25.2627 5.45275 25.0167 5.40492 24.7708 5.35026C24.5248 5.28876 24.2993 5.20676 24.0943 5.10427C23.8893 4.99494 23.7253 4.84803 23.6023 4.66354C23.4793 4.47221 23.4178 4.21939 23.4178 3.90507C23.4178 3.57708 23.5101 3.29009 23.6946 3.0441C23.879 2.79811 24.1387 2.6102 24.4735 2.48037C24.8152 2.34371 25.2183 2.27538 25.683 2.27538C26.0383 2.27538 26.397 2.3198 26.7592 2.40863C27.1282 2.49062 27.4288 2.6102 27.6611 2.76736L27.2409 3.54633C26.9949 3.38234 26.7387 3.26959 26.4722 3.2081C26.2057 3.1466 25.9392 3.11585 25.6727 3.11585C25.2422 3.11585 24.9211 3.1876 24.7093 3.33109C24.4974 3.46775 24.3915 3.64541 24.3915 3.86407C24.3915 4.04856 24.453 4.19206 24.576 4.29455C24.7058 4.39021 24.8698 4.46538 25.068 4.52004C25.273 4.57471 25.4985 4.62254 25.7445 4.66354C25.9905 4.6977 26.2364 4.74553 26.4824 4.80703C26.7284 4.8617 26.9505 4.94028 27.1487 5.04277C27.3537 5.14527 27.5176 5.28876 27.6406 5.47325C27.7705 5.65775 27.8354 5.90374 27.8354 6.21122C27.8354 6.53921 27.7397 6.82278 27.5484 7.06194C27.3571 7.3011 27.0872 7.48901 26.7387 7.62567C26.3902 7.75549 25.9734 7.82041 25.4882 7.82041ZM29.0651 7.75891V2.32663H30.0491V7.75891H29.0651ZM29.5571 1.28117C29.3657 1.28117 29.2052 1.21968 29.0753 1.09668C28.9523 0.973686 28.8909 0.823359 28.8909 0.6457C28.8909 0.461207 28.9523 0.307463 29.0753 0.184468C29.2052 0.0614731 29.3657 -2.44032e-05 29.5571 -2.44032e-05C29.7484 -2.44032e-05 29.9056 0.0614731 30.0286 0.184468C30.1584 0.30063 30.2233 0.447541 30.2233 0.6252C30.2233 0.809693 30.1618 0.966853 30.0388 1.09668C29.9158 1.21968 29.7552 1.28117 29.5571 1.28117ZM31.405 7.75891V7.12344L34.8899 2.79811L35.0846 3.13635H31.4665V2.32663H35.8739V2.97236L32.389 7.28743L32.1635 6.94919H35.9559V7.75891H31.405ZM39.6116 7.82041C39.0308 7.82041 38.5183 7.70083 38.0742 7.46167C37.6368 7.22252 37.2952 6.89453 37.0492 6.47771C36.81 6.0609 36.6905 5.58258 36.6905 5.04277C36.6905 4.50296 36.8066 4.02465 37.0389 3.60783C37.2781 3.19101 37.6027 2.86644 38.0127 2.63412C38.4295 2.39496 38.8975 2.27538 39.4169 2.27538C39.943 2.27538 40.4076 2.39155 40.8108 2.62387C41.2139 2.85619 41.5283 3.18418 41.7538 3.60783C41.9861 4.02465 42.1022 4.51321 42.1022 5.07352C42.1022 5.11452 42.0988 5.16235 42.092 5.21701C42.092 5.27168 42.0886 5.32293 42.0817 5.37076H37.4592V4.66354H41.5693L41.1695 4.90953C41.1764 4.56104 41.1046 4.25014 40.9543 3.97681C40.804 3.70349 40.5956 3.49167 40.3291 3.34134C40.0694 3.18418 39.7653 3.1056 39.4169 3.1056C39.0752 3.1056 38.7711 3.18418 38.5046 3.34134C38.2381 3.49167 38.0297 3.70691 37.8794 3.98706C37.7291 4.26039 37.6539 4.57471 37.6539 4.93003V5.09402C37.6539 5.45617 37.7359 5.78074 37.8999 6.06773C38.0707 6.34788 38.3065 6.56654 38.6071 6.7237C38.9078 6.88086 39.2529 6.95944 39.6423 6.95944C39.9635 6.95944 40.2539 6.90478 40.5136 6.79545C40.78 6.68612 41.0124 6.52213 41.2105 6.30347L41.7538 6.93894C41.5078 7.22593 41.2003 7.44459 40.8313 7.59492C40.4691 7.74525 40.0626 7.82041 39.6116 7.82041ZM46.3646 7.75891V0.584202H47.3896V7.75891H46.3646ZM49.5376 7.75891V0.584202H50.3781L53.5964 6.00623H53.1455L56.3228 0.584202H57.1633L57.1735 7.75891H56.1896L56.1793 2.13189H56.4151L53.5862 6.8877H53.1147L50.2653 2.13189H50.5216V7.75891H49.5376ZM59.3268 7.75891V0.584202H60.3517V6.8672H64.2363V7.75891H59.3268ZM70.3892 7.82041C69.8357 7.82041 69.3403 7.70083 68.903 7.46167C68.4725 7.22252 68.1343 6.89453 67.8883 6.47771C67.6423 6.0609 67.5193 5.58258 67.5193 5.04277C67.5193 4.50296 67.6423 4.02465 67.8883 3.60783C68.1343 3.19101 68.4725 2.86644 68.903 2.63412C69.3403 2.39496 69.8357 2.27538 70.3892 2.27538C70.8812 2.27538 71.3185 2.37446 71.7011 2.57262C72.0906 2.76395 72.3913 3.05094 72.6031 3.43359L71.8549 3.91532C71.6772 3.64883 71.4585 3.45409 71.1989 3.33109C70.9461 3.20126 70.6727 3.13635 70.3789 3.13635C70.0236 3.13635 69.7059 3.21493 69.4257 3.37209C69.1456 3.52925 68.9235 3.75132 68.7595 4.03831C68.5955 4.31847 68.5135 4.65329 68.5135 5.04277C68.5135 5.43226 68.5955 5.77049 68.7595 6.05748C68.9235 6.34447 69.1456 6.56654 69.4257 6.7237C69.7059 6.88086 70.0236 6.95944 70.3789 6.95944C70.6727 6.95944 70.9461 6.89795 71.1989 6.77495C71.4585 6.64512 71.6772 6.44696 71.8549 6.18048L72.6031 6.65196C72.3913 7.02777 72.0906 7.31818 71.7011 7.52317C71.3185 7.72133 70.8812 7.82041 70.3892 7.82041ZM76.1236 7.82041C75.5769 7.82041 75.0918 7.70083 74.6681 7.46167C74.2445 7.22252 73.9097 6.89453 73.6637 6.47771C73.4177 6.05406 73.2947 5.57575 73.2947 5.04277C73.2947 4.50296 73.4177 4.02465 73.6637 3.60783C73.9097 3.19101 74.2445 2.86644 74.6681 2.63412C75.0918 2.39496 75.5769 2.27538 76.1236 2.27538C76.6634 2.27538 77.1451 2.39496 77.5688 2.63412C77.9993 2.86644 78.3341 3.19101 78.5732 3.60783C78.8192 4.01781 78.9422 4.49613 78.9422 5.04277C78.9422 5.58258 78.8192 6.0609 78.5732 6.47771C78.3341 6.89453 77.9993 7.22252 77.5688 7.46167C77.1451 7.70083 76.6634 7.82041 76.1236 7.82041ZM76.1236 6.95944C76.4721 6.95944 76.783 6.88086 77.0563 6.7237C77.3364 6.56654 77.5551 6.34447 77.7123 6.05748C77.8694 5.76366 77.948 5.42542 77.948 5.04277C77.948 4.65329 77.8694 4.31847 77.7123 4.03831C77.5551 3.75132 77.3364 3.52925 77.0563 3.37209C76.783 3.21493 76.4721 3.13635 76.1236 3.13635C75.7751 3.13635 75.4642 3.21493 75.1909 3.37209C74.9175 3.52925 74.6989 3.75132 74.5349 4.03831C74.3709 4.31847 74.2889 4.65329 74.2889 5.04277C74.2889 5.42542 74.3709 5.76366 74.5349 6.05748C74.6989 6.34447 74.9175 6.56654 75.1909 6.7237C75.4642 6.88086 75.7751 6.95944 76.1236 6.95944ZM83.2036 2.27538C83.6478 2.27538 84.0373 2.3608 84.3721 2.53162C84.7137 2.70245 84.9802 2.96211 85.1716 3.31059C85.3629 3.65908 85.4585 4.09981 85.4585 4.63279V7.75891H84.4746V4.74553C84.4746 4.21939 84.3448 3.82307 84.0851 3.55658C83.8323 3.29009 83.4735 3.15685 83.0089 3.15685C82.6604 3.15685 82.3563 3.22518 82.0967 3.36184C81.837 3.4985 81.6355 3.70008 81.492 3.96656C81.3553 4.23305 81.287 4.56446 81.287 4.96077V7.75891H80.303V2.32663H81.246V3.79232L81.0922 3.40284C81.2699 3.04752 81.5432 2.77078 81.9122 2.57262C82.2812 2.37446 82.7117 2.27538 83.2036 2.27538ZM89.145 7.82041C88.5983 7.82041 88.1747 7.6735 87.874 7.37968C87.5734 7.08586 87.423 6.66562 87.423 6.11898V1.13768H88.407V6.07798C88.407 6.3718 88.4787 6.59729 88.6222 6.75445C88.7726 6.91161 88.9844 6.99019 89.2577 6.99019C89.5652 6.99019 89.8214 6.90478 90.0264 6.73395L90.3339 7.44117C90.1836 7.571 90.0025 7.66666 89.7907 7.72816C89.5857 7.78966 89.3704 7.82041 89.145 7.82041ZM86.5006 3.13635V2.32663H89.9649V3.13635H86.5006ZM94.8956 7.75891V6.61096L94.8444 6.39572V4.43805C94.8444 4.02123 94.7214 3.70008 94.4754 3.47458C94.2362 3.24226 93.8741 3.1261 93.3889 3.1261C93.0678 3.1261 92.7534 3.18076 92.446 3.29009C92.1385 3.39259 91.8788 3.53267 91.667 3.71033L91.257 2.97236C91.5372 2.74686 91.872 2.57604 92.2615 2.45988C92.6578 2.33688 93.0712 2.27538 93.5017 2.27538C94.2465 2.27538 94.8204 2.45646 95.2236 2.81861C95.6267 3.18076 95.8283 3.73424 95.8283 4.47904V7.75891H94.8956ZM93.1122 7.82041C92.709 7.82041 92.3537 7.75208 92.0462 7.61542C91.7456 7.47876 91.5132 7.29085 91.3493 7.05169C91.1853 6.8057 91.1033 6.52896 91.1033 6.22147C91.1033 5.92765 91.1716 5.66116 91.3083 5.42201C91.4517 5.18285 91.6807 4.99152 91.995 4.84803C92.3161 4.70453 92.7466 4.63279 93.2864 4.63279H95.0084V5.34001H93.3274C92.8354 5.34001 92.504 5.42201 92.3332 5.586C92.1624 5.74999 92.077 5.94815 92.077 6.18048C92.077 6.44696 92.1829 6.66221 92.3947 6.8262C92.6065 6.98336 92.9004 7.06194 93.2762 7.06194C93.6452 7.06194 93.9663 6.97994 94.2396 6.81595C94.5198 6.65196 94.7214 6.4128 94.8444 6.09848L95.0391 6.77495C94.9093 7.0961 94.6804 7.35234 94.3524 7.54367C94.0244 7.72816 93.611 7.82041 93.1122 7.82041ZM97.6492 7.75891V2.32663H98.6332V7.75891H97.6492ZM98.1412 1.28117C97.9499 1.28117 97.7893 1.21968 97.6595 1.09668C97.5365 0.973686 97.475 0.823359 97.475 0.6457C97.475 0.461207 97.5365 0.307463 97.6595 0.184468C97.7893 0.0614731 97.9499 -2.44032e-05 98.1412 -2.44032e-05C98.3325 -2.44032e-05 98.4897 0.0614731 98.6127 0.184468C98.7425 0.30063 98.8074 0.447541 98.8074 0.6252C98.8074 0.809693 98.7459 0.966853 98.6229 1.09668C98.4999 1.21968 98.3394 1.28117 98.1412 1.28117ZM103.413 2.27538C103.857 2.27538 104.246 2.3608 104.581 2.53162C104.923 2.70245 105.189 2.96211 105.38 3.31059C105.572 3.65908 105.667 4.09981 105.667 4.63279V7.75891H104.683V4.74553C104.683 4.21939 104.554 3.82307 104.294 3.55658C104.041 3.29009 103.682 3.15685 103.218 3.15685C102.869 3.15685 102.565 3.22518 102.306 3.36184C102.046 3.4985 101.844 3.70008 101.701 3.96656C101.564 4.23305 101.496 4.56446 101.496 4.96077V7.75891H100.512V2.32663H101.455V3.79232L101.301 3.40284C101.479 3.04752 101.752 2.77078 102.121 2.57262C102.49 2.37446 102.921 2.27538 103.413 2.27538ZM109.907 7.82041C109.327 7.82041 108.814 7.70083 108.37 7.46167C107.933 7.22252 107.591 6.89453 107.345 6.47771C107.106 6.0609 106.986 5.58258 106.986 5.04277C106.986 4.50296 107.102 4.02465 107.335 3.60783C107.574 3.19101 107.898 2.86644 108.308 2.63412C108.725 2.39496 109.193 2.27538 109.713 2.27538C110.239 2.27538 110.703 2.39155 111.107 2.62387C111.51 2.85619 111.824 3.18418 112.049 3.60783C112.282 4.02465 112.398 4.51321 112.398 5.07352C112.398 5.11452 112.395 5.16235 112.388 5.21701C112.388 5.27168 112.384 5.32293 112.377 5.37076H107.755V4.66354H111.865L111.465 4.90953C111.472 4.56104 111.4 4.25014 111.25 3.97681C111.1 3.70349 110.891 3.49167 110.625 3.34134C110.365 3.18418 110.061 3.1056 109.713 3.1056C109.371 3.1056 109.067 3.18418 108.8 3.34134C108.534 3.49167 108.325 3.70691 108.175 3.98706C108.025 4.26039 107.95 4.57471 107.95 4.93003V5.09402C107.95 5.45617 108.032 5.78074 108.196 6.06773C108.366 6.34788 108.602 6.56654 108.903 6.7237C109.204 6.88086 109.549 6.95944 109.938 6.95944C110.259 6.95944 110.55 6.90478 110.809 6.79545C111.076 6.68612 111.308 6.52213 111.506 6.30347L112.049 6.93894C111.803 7.22593 111.496 7.44459 111.127 7.59492C110.765 7.74525 110.358 7.82041 109.907 7.82041ZM113.764 7.75891V2.32663H114.707V3.80257L114.615 3.43359C114.765 3.05777 115.018 2.77078 115.373 2.57262C115.729 2.37446 116.166 2.27538 116.685 2.27538V3.22859C116.644 3.22176 116.603 3.21835 116.562 3.21835C116.528 3.21835 116.494 3.21835 116.46 3.21835C115.934 3.21835 115.517 3.37551 115.209 3.68983C114.902 4.00415 114.748 4.45854 114.748 5.05302V7.75891H113.764ZM123.58 7.81016C123.109 7.81016 122.685 7.70425 122.309 7.49242C121.934 7.27376 121.636 6.95944 121.418 6.54946C121.199 6.13948 121.09 5.64408 121.09 5.06327C121.09 4.47563 121.199 3.98023 121.418 3.57708C121.643 3.1671 121.944 2.85619 122.32 2.64437C122.696 2.43254 123.116 2.32663 123.58 2.32663C124.093 2.32663 124.551 2.44279 124.954 2.67512C125.364 2.90061 125.685 3.21835 125.917 3.62833C126.15 4.03831 126.266 4.51663 126.266 5.06327C126.266 5.60308 126.15 6.0814 125.917 6.49821C125.685 6.9082 125.364 7.22935 124.954 7.46167C124.551 7.694 124.093 7.81016 123.58 7.81016ZM120.803 7.75891V0.153719H121.531V3.96656L121.428 5.05302L121.5 6.13948V7.75891H120.803ZM123.529 7.16444C123.912 7.16444 124.253 7.07902 124.554 6.9082C124.855 6.73054 125.094 6.48455 125.272 6.17023C125.449 5.84907 125.538 5.48009 125.538 5.06327C125.538 4.63962 125.449 4.27064 125.272 3.95632C125.094 3.64199 124.855 3.39942 124.554 3.22859C124.253 3.05094 123.912 2.96211 123.529 2.96211C123.147 2.96211 122.801 3.05094 122.494 3.22859C122.193 3.39942 121.954 3.64199 121.777 3.95632C121.606 4.27064 121.52 4.63962 121.52 5.06327C121.52 5.48009 121.606 5.84907 121.777 6.17023C121.954 6.48455 122.193 6.73054 122.494 6.9082C122.801 7.07902 123.147 7.16444 123.529 7.16444ZM129.973 7.81016C129.516 7.81016 129.116 7.72475 128.774 7.55392C128.433 7.38309 128.166 7.12685 127.975 6.7852C127.79 6.44355 127.698 6.01648 127.698 5.504V2.37788H128.426V5.42201C128.426 5.99598 128.566 6.42988 128.846 6.7237C129.133 7.01069 129.533 7.15419 130.045 7.15419C130.421 7.15419 130.746 7.07902 131.019 6.92869C131.299 6.77153 131.511 6.54604 131.654 6.25222C131.805 5.9584 131.88 5.6065 131.88 5.19652V2.37788H132.608V7.75891H131.911V6.28297L132.023 6.54946C131.853 6.94578 131.586 7.25668 131.224 7.48217C130.869 7.70083 130.452 7.81016 129.973 7.81016ZM134.636 7.75891V2.37788H135.363V7.75891H134.636ZM135.005 1.18893C134.854 1.18893 134.728 1.13768 134.625 1.03518C134.523 0.932688 134.472 0.809693 134.472 0.666199C134.472 0.522704 134.523 0.403126 134.625 0.307463C134.728 0.204967 134.854 0.153719 135.005 0.153719C135.155 0.153719 135.281 0.201551 135.384 0.297213C135.486 0.392876 135.538 0.512455 135.538 0.655949C135.538 0.806276 135.486 0.932688 135.384 1.03518C135.288 1.13768 135.162 1.18893 135.005 1.18893ZM137.388 7.75891V0.153719H138.116V7.75891H137.388ZM141.872 7.81016C141.367 7.81016 140.977 7.6735 140.704 7.40018C140.431 7.12685 140.294 6.74079 140.294 6.24197V1.18893H141.022V6.20097C141.022 6.51529 141.1 6.75787 141.257 6.92869C141.421 7.09952 141.654 7.18493 141.954 7.18493C142.275 7.18493 142.542 7.09269 142.754 6.9082L143.01 7.43092C142.867 7.56075 142.692 7.65642 142.487 7.71791C142.289 7.77941 142.084 7.81016 141.872 7.81016ZM139.33 2.9826V2.37788H142.662V2.9826H139.33ZM148.719 7.81016C148.213 7.81016 147.824 7.6735 147.55 7.40018C147.277 7.12685 147.14 6.74079 147.14 6.24197V1.18893H147.868V6.20097C147.868 6.51529 147.947 6.75787 148.104 6.92869C148.268 7.09952 148.5 7.18493 148.801 7.18493C149.122 7.18493 149.388 7.09269 149.6 6.9082L149.856 7.43092C149.713 7.56075 149.539 7.65642 149.334 7.71791C149.136 7.77941 148.931 7.81016 148.719 7.81016ZM146.177 2.9826V2.37788H149.508V2.9826H146.177ZM153.184 7.81016C152.665 7.81016 152.197 7.694 151.78 7.46167C151.37 7.22252 151.046 6.89795 150.807 6.48796C150.567 6.07115 150.448 5.59625 150.448 5.06327C150.448 4.52346 150.567 4.04856 150.807 3.63858C151.046 3.22859 151.37 2.90744 151.78 2.67512C152.19 2.44279 152.658 2.32663 153.184 2.32663C153.717 2.32663 154.189 2.44279 154.599 2.67512C155.016 2.90744 155.34 3.22859 155.573 3.63858C155.812 4.04856 155.931 4.52346 155.931 5.06327C155.931 5.59625 155.812 6.07115 155.573 6.48796C155.34 6.89795 155.016 7.22252 154.599 7.46167C154.182 7.694 153.711 7.81016 153.184 7.81016ZM153.184 7.16444C153.574 7.16444 153.919 7.07902 154.22 6.9082C154.52 6.73054 154.756 6.48455 154.927 6.17023C155.105 5.84907 155.193 5.48009 155.193 5.06327C155.193 4.63962 155.105 4.27064 154.927 3.95632C154.756 3.64199 154.52 3.39942 154.22 3.22859C153.919 3.05094 153.577 2.96211 153.195 2.96211C152.812 2.96211 152.47 3.05094 152.17 3.22859C151.869 3.39942 151.63 3.64199 151.452 3.95632C151.275 4.27064 151.186 4.63962 151.186 5.06327C151.186 5.48009 151.275 5.84907 151.452 6.17023C151.63 6.48455 151.869 6.73054 152.17 6.9082C152.47 7.07902 152.809 7.16444 153.184 7.16444ZM166.883 2.27538C167.32 2.27538 167.706 2.3608 168.041 2.53162C168.376 2.70245 168.636 2.96211 168.82 3.31059C169.012 3.65908 169.107 4.09981 169.107 4.63279V7.75891H168.123V4.74553C168.123 4.21939 168 3.82307 167.754 3.55658C167.508 3.29009 167.163 3.15685 166.719 3.15685C166.391 3.15685 166.104 3.22518 165.858 3.36184C165.612 3.4985 165.421 3.70008 165.284 3.96656C165.154 4.23305 165.089 4.56446 165.089 4.96077V7.75891H164.105V4.74553C164.105 4.21939 163.982 3.82307 163.736 3.55658C163.497 3.29009 163.152 3.15685 162.701 3.15685C162.38 3.15685 162.097 3.22518 161.851 3.36184C161.605 3.4985 161.413 3.70008 161.277 3.96656C161.14 4.23305 161.072 4.56446 161.072 4.96077V7.75891H160.088V2.32663H161.031V3.77182L160.877 3.40284C161.048 3.04752 161.311 2.77078 161.666 2.57262C162.021 2.37446 162.435 2.27538 162.906 2.27538C163.426 2.27538 163.873 2.40521 164.249 2.66487C164.625 2.91769 164.871 3.30376 164.987 3.82307L164.587 3.65908C164.751 3.24226 165.038 2.90744 165.448 2.65462C165.858 2.40179 166.336 2.27538 166.883 2.27538ZM174.29 7.75891V6.61096L174.239 6.39572V4.43805C174.239 4.02123 174.116 3.70008 173.87 3.47458C173.63 3.24226 173.268 3.1261 172.783 3.1261C172.462 3.1261 172.148 3.18076 171.84 3.29009C171.533 3.39259 171.273 3.53267 171.061 3.71033L170.651 2.97236C170.931 2.74686 171.266 2.57604 171.656 2.45988C172.052 2.33688 172.465 2.27538 172.896 2.27538C173.641 2.27538 174.215 2.45646 174.618 2.81861C175.021 3.18076 175.223 3.73424 175.223 4.47904V7.75891H174.29ZM172.506 7.82041C172.103 7.82041 171.748 7.75208 171.44 7.61542C171.14 7.47876 170.907 7.29085 170.744 7.05169C170.58 6.8057 170.498 6.52896 170.498 6.22147C170.498 5.92765 170.566 5.66116 170.703 5.42201C170.846 5.18285 171.075 4.99152 171.389 4.84803C171.71 4.70453 172.141 4.63279 172.681 4.63279H174.403V5.34001H172.722C172.23 5.34001 171.898 5.42201 171.727 5.586C171.557 5.74999 171.471 5.94815 171.471 6.18048C171.471 6.44696 171.577 6.66221 171.789 6.8262C172.001 6.98336 172.295 7.06194 172.67 7.06194C173.039 7.06194 173.361 6.97994 173.634 6.81595C173.914 6.65196 174.116 6.4128 174.239 6.09848L174.433 6.77495C174.304 7.0961 174.075 7.35234 173.747 7.54367C173.419 7.72816 173.005 7.82041 172.506 7.82041ZM177.043 7.75891V2.32663H178.027V7.75891H177.043ZM177.535 1.28117C177.344 1.28117 177.184 1.21968 177.054 1.09668C176.931 0.973686 176.869 0.823359 176.869 0.6457C176.869 0.461207 176.931 0.307463 177.054 0.184468C177.184 0.0614731 177.344 -2.44032e-05 177.535 -2.44032e-05C177.727 -2.44032e-05 177.884 0.0614731 178.007 0.184468C178.137 0.30063 178.202 0.447541 178.202 0.6252C178.202 0.809693 178.14 0.966853 178.017 1.09668C177.894 1.21968 177.734 1.28117 177.535 1.28117ZM182.807 2.27538C183.251 2.27538 183.64 2.3608 183.975 2.53162C184.317 2.70245 184.583 2.96211 184.775 3.31059C184.966 3.65908 185.062 4.09981 185.062 4.63279V7.75891H184.078V4.74553C184.078 4.21939 183.948 3.82307 183.688 3.55658C183.435 3.29009 183.077 3.15685 182.612 3.15685C182.264 3.15685 181.959 3.22518 181.7 3.36184C181.44 3.4985 181.239 3.70008 181.095 3.96656C180.958 4.23305 180.89 4.56446 180.89 4.96077V7.75891H179.906V2.32663H180.849V3.79232L180.695 3.40284C180.873 3.04752 181.146 2.77078 181.515 2.57262C181.884 2.37446 182.315 2.27538 182.807 2.27538ZM188.748 7.82041C188.201 7.82041 187.778 7.6735 187.477 7.37968C187.176 7.08586 187.026 6.66562 187.026 6.11898V1.13768H188.01V6.07798C188.01 6.3718 188.082 6.59729 188.225 6.75445C188.376 6.91161 188.588 6.99019 188.861 6.99019C189.168 6.99019 189.425 6.90478 189.63 6.73395L189.937 7.44117C189.787 7.571 189.606 7.66666 189.394 7.72816C189.189 7.78966 188.974 7.82041 188.748 7.82041ZM186.104 3.13635V2.32663H189.568V3.13635H186.104ZM194.499 7.75891V6.61096L194.448 6.39572V4.43805C194.448 4.02123 194.325 3.70008 194.079 3.47458C193.839 3.24226 193.477 3.1261 192.992 3.1261C192.671 3.1261 192.357 3.18076 192.049 3.29009C191.742 3.39259 191.482 3.53267 191.27 3.71033L190.86 2.97236C191.14 2.74686 191.475 2.57604 191.865 2.45988C192.261 2.33688 192.674 2.27538 193.105 2.27538C193.85 2.27538 194.424 2.45646 194.827 2.81861C195.23 3.18076 195.431 3.73424 195.431 4.47904V7.75891H194.499ZM192.715 7.82041C192.312 7.82041 191.957 7.75208 191.649 7.61542C191.349 7.47876 191.116 7.29085 190.952 7.05169C190.788 6.8057 190.706 6.52896 190.706 6.22147C190.706 5.92765 190.775 5.66116 190.911 5.42201C191.055 5.18285 191.284 4.99152 191.598 4.84803C191.919 4.70453 192.35 4.63279 192.89 4.63279H194.611V5.34001H192.931C192.439 5.34001 192.107 5.42201 191.936 5.586C191.766 5.74999 191.68 5.94815 191.68 6.18048C191.68 6.44696 191.786 6.66221 191.998 6.8262C192.21 6.98336 192.503 7.06194 192.879 7.06194C193.248 7.06194 193.569 6.97994 193.843 6.81595C194.123 6.65196 194.325 6.4128 194.448 6.09848L194.642 6.77495C194.512 7.0961 194.284 7.35234 193.956 7.54367C193.628 7.72816 193.214 7.82041 192.715 7.82041ZM197.252 7.75891V2.32663H198.236V7.75891H197.252ZM197.744 1.28117C197.553 1.28117 197.392 1.21968 197.263 1.09668C197.14 0.973686 197.078 0.823359 197.078 0.6457C197.078 0.461207 197.14 0.307463 197.263 0.184468C197.392 0.0614731 197.553 -2.44032e-05 197.744 -2.44032e-05C197.936 -2.44032e-05 198.093 0.0614731 198.216 0.184468C198.346 0.30063 198.411 0.447541 198.411 0.6252C198.411 0.809693 198.349 0.966853 198.226 1.09668C198.103 1.21968 197.943 1.28117 197.744 1.28117ZM203.016 2.27538C203.46 2.27538 203.849 2.3608 204.184 2.53162C204.526 2.70245 204.792 2.96211 204.984 3.31059C205.175 3.65908 205.271 4.09981 205.271 4.63279V7.75891H204.287V4.74553C204.287 4.21939 204.157 3.82307 203.897 3.55658C203.644 3.29009 203.286 3.15685 202.821 3.15685C202.472 3.15685 202.168 3.22518 201.909 3.36184C201.649 3.4985 201.447 3.70008 201.304 3.96656C201.167 4.23305 201.099 4.56446 201.099 4.96077V7.75891H200.115V2.32663H201.058V3.79232L200.904 3.40284C201.082 3.04752 201.355 2.77078 201.724 2.57262C202.093 2.37446 202.524 2.27538 203.016 2.27538ZM209.988 7.75891V1.8449C209.988 1.31192 210.141 0.888273 210.449 0.573952C210.763 0.252799 211.207 0.0922219 211.781 0.0922219C211.993 0.0922219 212.195 0.119554 212.386 0.174219C212.584 0.22205 212.752 0.30063 212.888 0.409959L212.591 1.15818C212.489 1.07618 212.372 1.01468 212.243 0.973686C212.113 0.925855 211.976 0.901939 211.833 0.901939C211.546 0.901939 211.327 0.983936 211.177 1.14793C211.026 1.30509 210.951 1.54083 210.951 1.85515V2.58287L210.972 3.03385V7.75891H209.988ZM209.065 3.13635V2.32663H212.53V3.13635H209.065ZM213.458 7.75891V2.32663H214.4V3.80257L214.308 3.43359C214.459 3.05777 214.711 2.77078 215.067 2.57262C215.422 2.37446 215.859 2.27538 216.379 2.27538V3.22859C216.338 3.22176 216.297 3.21835 216.256 3.21835C216.221 3.21835 216.187 3.21835 216.153 3.21835C215.627 3.21835 215.21 3.37551 214.903 3.68983C214.595 4.00415 214.441 4.45854 214.441 5.05302V7.75891H213.458ZM219.96 7.82041C219.379 7.82041 218.867 7.70083 218.423 7.46167C217.985 7.22252 217.644 6.89453 217.398 6.47771C217.159 6.0609 217.039 5.58258 217.039 5.04277C217.039 4.50296 217.155 4.02465 217.388 3.60783C217.627 3.19101 217.951 2.86644 218.361 2.63412C218.778 2.39496 219.246 2.27538 219.765 2.27538C220.292 2.27538 220.756 2.39155 221.159 2.62387C221.563 2.85619 221.877 3.18418 222.102 3.60783C222.335 4.02465 222.451 4.51321 222.451 5.07352C222.451 5.11452 222.447 5.16235 222.441 5.21701C222.441 5.27168 222.437 5.32293 222.43 5.37076H217.808V4.66354H221.918L221.518 4.90953C221.525 4.56104 221.453 4.25014 221.303 3.97681C221.153 3.70349 220.944 3.49167 220.678 3.34134C220.418 3.18418 220.114 3.1056 219.765 3.1056C219.424 3.1056 219.12 3.18418 218.853 3.34134C218.587 3.49167 218.378 3.70691 218.228 3.98706C218.078 4.26039 218.003 4.57471 218.003 4.93003V5.09402C218.003 5.45617 218.085 5.78074 218.249 6.06773C218.419 6.34788 218.655 6.56654 218.956 6.7237C219.256 6.88086 219.602 6.95944 219.991 6.95944C220.312 6.95944 220.603 6.90478 220.862 6.79545C221.129 6.68612 221.361 6.52213 221.559 6.30347L222.102 6.93894C221.856 7.22593 221.549 7.44459 221.18 7.59492C220.818 7.74525 220.411 7.82041 219.96 7.82041ZM225.375 7.82041C224.924 7.82041 224.494 7.75891 224.084 7.63592C223.681 7.51292 223.363 7.36259 223.13 7.18493L223.54 6.40597C223.773 6.56313 224.06 6.69637 224.401 6.8057C224.743 6.91503 225.092 6.96969 225.447 6.96969C225.905 6.96969 226.233 6.90478 226.431 6.77495C226.636 6.64512 226.738 6.46405 226.738 6.23172C226.738 6.0609 226.677 5.92765 226.554 5.83199C226.431 5.73633 226.267 5.66458 226.062 5.61675C225.864 5.56892 225.642 5.52792 225.396 5.49375C225.15 5.45275 224.904 5.40492 224.658 5.35026C224.412 5.28876 224.186 5.20676 223.981 5.10427C223.776 4.99494 223.612 4.84803 223.489 4.66354C223.366 4.47221 223.305 4.21939 223.305 3.90507C223.305 3.57708 223.397 3.29009 223.581 3.0441C223.766 2.79811 224.026 2.6102 224.36 2.48037C224.702 2.34371 225.105 2.27538 225.57 2.27538C225.925 2.27538 226.284 2.3198 226.646 2.40863C227.015 2.49062 227.316 2.6102 227.548 2.76736L227.128 3.54633C226.882 3.38234 226.626 3.26959 226.359 3.2081C226.093 3.1466 225.826 3.11585 225.56 3.11585C225.129 3.11585 224.808 3.1876 224.596 3.33109C224.384 3.46775 224.278 3.64541 224.278 3.86407C224.278 4.04856 224.34 4.19206 224.463 4.29455C224.593 4.39021 224.757 4.46538 224.955 4.52004C225.16 4.57471 225.385 4.62254 225.631 4.66354C225.877 4.6977 226.123 4.74553 226.369 4.80703C226.615 4.8617 226.837 4.94028 227.036 5.04277C227.241 5.14527 227.405 5.28876 227.528 5.47325C227.657 5.65775 227.722 5.90374 227.722 6.21122C227.722 6.53921 227.627 6.82278 227.435 7.06194C227.244 7.3011 226.974 7.48901 226.626 7.62567C226.277 7.75549 225.86 7.82041 225.375 7.82041ZM231.853 2.27538C232.297 2.27538 232.686 2.3608 233.021 2.53162C233.363 2.70245 233.629 2.96211 233.821 3.31059C234.012 3.65908 234.108 4.09981 234.108 4.63279V7.75891H233.124V4.74553C233.124 4.21939 232.994 3.82307 232.734 3.55658C232.481 3.29009 232.123 3.15685 231.658 3.15685C231.309 3.15685 231.005 3.22518 230.746 3.36184C230.486 3.4985 230.284 3.70008 230.141 3.96656C230.004 4.23305 229.936 4.56446 229.936 4.96077V7.75891H228.952V0.153719H229.936V3.79232L229.741 3.40284C229.919 3.04752 230.192 2.77078 230.561 2.57262C230.93 2.37446 231.361 2.27538 231.853 2.27538ZM238.829 2.27538C239.273 2.27538 239.663 2.3608 239.998 2.53162C240.339 2.70245 240.606 2.96211 240.797 3.31059C240.988 3.65908 241.084 4.09981 241.084 4.63279V7.75891H240.1V4.74553C240.1 4.21939 239.97 3.82307 239.711 3.55658C239.458 3.29009 239.099 3.15685 238.634 3.15685C238.286 3.15685 237.982 3.22518 237.722 3.36184C237.463 3.4985 237.261 3.70008 237.117 3.96656C236.981 4.23305 236.912 4.56446 236.912 4.96077V7.75891H235.929V2.32663H236.871V3.79232L236.718 3.40284C236.895 3.04752 237.169 2.77078 237.538 2.57262C237.907 2.37446 238.337 2.27538 238.829 2.27538ZM245.324 7.82041C244.743 7.82041 244.231 7.70083 243.787 7.46167C243.349 7.22252 243.008 6.89453 242.762 6.47771C242.522 6.0609 242.403 5.58258 242.403 5.04277C242.403 4.50296 242.519 4.02465 242.751 3.60783C242.99 3.19101 243.315 2.86644 243.725 2.63412C244.142 2.39496 244.61 2.27538 245.129 2.27538C245.655 2.27538 246.12 2.39155 246.523 2.62387C246.926 2.85619 247.241 3.18418 247.466 3.60783C247.698 4.02465 247.815 4.51321 247.815 5.07352C247.815 5.11452 247.811 5.16235 247.804 5.21701C247.804 5.27168 247.801 5.32293 247.794 5.37076H243.172V4.66354H247.282L246.882 4.90953C246.889 4.56104 246.817 4.25014 246.667 3.97681C246.516 3.70349 246.308 3.49167 246.041 3.34134C245.782 3.18418 245.478 3.1056 245.129 3.1056C244.788 3.1056 244.483 3.18418 244.217 3.34134C243.951 3.49167 243.742 3.70691 243.592 3.98706C243.441 4.26039 243.366 4.57471 243.366 4.93003V5.09402C243.366 5.45617 243.448 5.78074 243.612 6.06773C243.783 6.34788 244.019 6.56654 244.319 6.7237C244.62 6.88086 244.965 6.95944 245.355 6.95944C245.676 6.95944 245.966 6.90478 246.226 6.79545C246.492 6.68612 246.725 6.52213 246.923 6.30347L247.466 6.93894C247.22 7.22593 246.913 7.44459 246.544 7.59492C246.181 7.74525 245.775 7.82041 245.324 7.82041ZM250.739 7.82041C250.288 7.82041 249.857 7.75891 249.447 7.63592C249.044 7.51292 248.727 7.36259 248.494 7.18493L248.904 6.40597C249.136 6.56313 249.423 6.69637 249.765 6.8057C250.107 6.91503 250.455 6.96969 250.811 6.96969C251.268 6.96969 251.596 6.90478 251.795 6.77495C252 6.64512 252.102 6.46405 252.102 6.23172C252.102 6.0609 252.041 5.92765 251.918 5.83199C251.795 5.73633 251.631 5.66458 251.426 5.61675C251.227 5.56892 251.005 5.52792 250.759 5.49375C250.513 5.45275 250.267 5.40492 250.021 5.35026C249.775 5.28876 249.55 5.20676 249.345 5.10427C249.14 4.99494 248.976 4.84803 248.853 4.66354C248.73 4.47221 248.668 4.21939 248.668 3.90507C248.668 3.57708 248.761 3.29009 248.945 3.0441C249.13 2.79811 249.389 2.6102 249.724 2.48037C250.066 2.34371 250.469 2.27538 250.934 2.27538C251.289 2.27538 251.648 2.3198 252.01 2.40863C252.379 2.49062 252.679 2.6102 252.912 2.76736L252.492 3.54633C252.246 3.38234 251.989 3.26959 251.723 3.2081C251.456 3.1466 251.19 3.11585 250.923 3.11585C250.493 3.11585 250.172 3.1876 249.96 3.33109C249.748 3.46775 249.642 3.64541 249.642 3.86407C249.642 4.04856 249.704 4.19206 249.827 4.29455C249.956 4.39021 250.12 4.46538 250.319 4.52004C250.524 4.57471 250.749 4.62254 250.995 4.66354C251.241 4.6977 251.487 4.74553 251.733 4.80703C251.979 4.8617 252.201 4.94028 252.399 5.04277C252.604 5.14527 252.768 5.28876 252.891 5.47325C253.021 5.65775 253.086 5.90374 253.086 6.21122C253.086 6.53921 252.99 6.82278 252.799 7.06194C252.608 7.3011 252.338 7.48901 251.989 7.62567C251.641 7.75549 251.224 7.82041 250.739 7.82041ZM255.874 7.82041C255.423 7.82041 254.992 7.75891 254.582 7.63592C254.179 7.51292 253.861 7.36259 253.629 7.18493L254.039 6.40597C254.271 6.56313 254.558 6.69637 254.9 6.8057C255.242 6.91503 255.59 6.96969 255.945 6.96969C256.403 6.96969 256.731 6.90478 256.929 6.77495C257.134 6.64512 257.237 6.46405 257.237 6.23172C257.237 6.0609 257.175 5.92765 257.052 5.83199C256.929 5.73633 256.765 5.66458 256.56 5.61675C256.362 5.56892 256.14 5.52792 255.894 5.49375C255.648 5.45275 255.402 5.40492 255.156 5.35026C254.91 5.28876 254.685 5.20676 254.48 5.10427C254.275 4.99494 254.111 4.84803 253.988 4.66354C253.865 4.47221 253.803 4.21939 253.803 3.90507C253.803 3.57708 253.895 3.29009 254.08 3.0441C254.264 2.79811 254.524 2.6102 254.859 2.48037C255.201 2.34371 255.604 2.27538 256.068 2.27538C256.424 2.27538 256.782 2.3198 257.145 2.40863C257.514 2.49062 257.814 2.6102 258.047 2.76736L257.626 3.54633C257.38 3.38234 257.124 3.26959 256.858 3.2081C256.591 3.1466 256.325 3.11585 256.058 3.11585C255.628 3.11585 255.307 3.1876 255.095 3.33109C254.883 3.46775 254.777 3.64541 254.777 3.86407C254.777 4.04856 254.838 4.19206 254.961 4.29455C255.091 4.39021 255.255 4.46538 255.453 4.52004C255.658 4.57471 255.884 4.62254 256.13 4.66354C256.376 4.6977 256.622 4.74553 256.868 4.80703C257.114 4.8617 257.336 4.94028 257.534 5.04277C257.739 5.14527 257.903 5.28876 258.026 5.47325C258.156 5.65775 258.221 5.90374 258.221 6.21122C258.221 6.53921 258.125 6.82278 257.934 7.06194C257.743 7.3011 257.473 7.48901 257.124 7.62567C256.776 7.75549 256.359 7.82041 255.874 7.82041ZM3.82237 21.7589V20.57L3.79162 20.3752V18.3868C3.79162 17.929 3.66179 17.5771 3.40214 17.3311C3.14931 17.0851 2.77008 16.9621 2.26443 16.9621C1.91595 16.9621 1.58454 17.0202 1.27022 17.1363C0.955902 17.2525 0.689413 17.4063 0.470755 17.5976L0.142768 17.0544C0.41609 16.822 0.744077 16.6444 1.12673 16.5214C1.50938 16.3915 1.91253 16.3266 2.33618 16.3266C3.03315 16.3266 3.56955 16.5009 3.94536 16.8494C4.32802 17.191 4.51934 17.7137 4.51934 18.4175V21.7589H3.82237ZM1.96719 21.8102C1.56404 21.8102 1.21214 21.7452 0.911487 21.6154C0.617666 21.4788 0.392175 21.2943 0.235014 21.0619C0.0778542 20.8228 -0.000725959 20.5495 -0.000725959 20.242C-0.000725959 19.9618 0.0641881 19.709 0.194016 19.4835C0.330677 19.2512 0.549335 19.0667 0.84999 18.93C1.15748 18.7865 1.56746 18.7148 2.07994 18.7148H3.93511V19.258H2.10044C1.58113 19.258 1.21897 19.3503 1.01398 19.5348C0.815824 19.7192 0.716745 19.9482 0.716745 20.2215C0.716745 20.529 0.836323 20.775 1.07548 20.9594C1.31464 21.1439 1.64946 21.2362 2.07994 21.2362C2.48992 21.2362 2.84183 21.1439 3.13565 20.9594C3.4363 20.7681 3.65496 20.4948 3.79162 20.1395L3.95561 20.6417C3.81895 20.997 3.5798 21.2806 3.23814 21.4924C2.90332 21.7042 2.47967 21.8102 1.96719 21.8102ZM9.2428 16.3266C9.68011 16.3266 10.0628 16.412 10.3908 16.5829C10.7256 16.7469 10.9852 16.9997 11.1697 17.3413C11.361 17.683 11.4567 18.1135 11.4567 18.6328V21.7589H10.729V18.7045C10.729 18.1374 10.5855 17.7103 10.2985 17.4233C10.0183 17.1295 9.62203 16.9826 9.10955 16.9826C8.7269 16.9826 8.39208 17.0612 8.10509 17.2183C7.82494 17.3687 7.60628 17.5907 7.44912 17.8846C7.29879 18.1716 7.22363 18.52 7.22363 18.93V21.7589H6.49591V16.3779H7.19288V17.8538L7.08014 17.5771C7.25096 17.1876 7.52428 16.8835 7.9001 16.6649C8.27592 16.4394 8.72349 16.3266 9.2428 16.3266ZM15.5645 21.8102C15.0521 21.8102 14.5908 21.694 14.1809 21.4617C13.7777 21.2293 13.46 20.9082 13.2276 20.4982C12.9953 20.0814 12.8792 19.6031 12.8792 19.0633C12.8792 18.5166 12.9953 18.0383 13.2276 17.6283C13.46 17.2183 13.7777 16.9006 14.1809 16.6751C14.5908 16.4428 15.0521 16.3266 15.5645 16.3266C16.036 16.3266 16.4563 16.4325 16.8252 16.6444C17.2011 16.8562 17.4983 17.1671 17.717 17.5771C17.9425 17.9802 18.0552 18.4756 18.0552 19.0633C18.0552 19.6441 17.9459 20.1395 17.7272 20.5495C17.5086 20.9594 17.2113 21.2738 16.8355 21.4924C16.4665 21.7042 16.0429 21.8102 15.5645 21.8102ZM15.6158 21.1644C15.9984 21.1644 16.3401 21.079 16.6408 20.9082C16.9482 20.7305 17.1874 20.4845 17.3582 20.1702C17.5359 19.8491 17.6247 19.4801 17.6247 19.0633C17.6247 18.6396 17.5359 18.2706 17.3582 17.9563C17.1874 17.642 16.9482 17.3994 16.6408 17.2286C16.3401 17.0509 15.9984 16.9621 15.6158 16.9621C15.24 16.9621 14.9017 17.0509 14.6011 17.2286C14.3004 17.3994 14.0613 17.642 13.8836 17.9563C13.706 18.2706 13.6171 18.6396 13.6171 19.0633C13.6171 19.4801 13.706 19.8491 13.8836 20.1702C14.0613 20.4845 14.3004 20.7305 14.6011 20.9082C14.9017 21.079 15.24 21.1644 15.6158 21.1644ZM17.6452 21.7589V20.1395L17.717 19.053L17.6145 17.9666V14.1537H18.3422V21.7589H17.6452ZM23.0395 21.7589V16.3266H24.0234V21.7589H23.0395ZM23.5314 15.2812C23.3401 15.2812 23.1795 15.2197 23.0497 15.0967C22.9267 14.9737 22.8652 14.8234 22.8652 14.6457C22.8652 14.4612 22.9267 14.3075 23.0497 14.1845C23.1795 14.0615 23.3401 14 23.5314 14C23.7228 14 23.8799 14.0615 24.0029 14.1845C24.1327 14.3006 24.1977 14.4475 24.1977 14.6252C24.1977 14.8097 24.1362 14.9669 24.0132 15.0967C23.8902 15.2197 23.7296 15.2812 23.5314 15.2812ZM32.6976 16.2754C33.1349 16.2754 33.521 16.3608 33.8558 16.5316C34.1906 16.7024 34.4503 16.9621 34.6348 17.3106C34.8261 17.6591 34.9218 18.0998 34.9218 18.6328V21.7589H33.9378V18.7455C33.9378 18.2194 33.8148 17.8231 33.5688 17.5566C33.3228 17.2901 32.9778 17.1568 32.5336 17.1568C32.2056 17.1568 31.9186 17.2252 31.6727 17.3618C31.4267 17.4985 31.2353 17.7001 31.0987 17.9666C30.9688 18.2331 30.9039 18.5645 30.9039 18.9608V21.7589H29.92V18.7455C29.92 18.2194 29.797 17.8231 29.551 17.5566C29.3118 17.2901 28.9668 17.1568 28.5158 17.1568C28.1946 17.1568 27.9111 17.2252 27.6651 17.3618C27.4191 17.4985 27.2277 17.7001 27.0911 17.9666C26.9544 18.2331 26.8861 18.5645 26.8861 18.9608V21.7589H25.9021V16.3266H26.8451V17.7718L26.6914 17.4028C26.8622 17.0475 27.1253 16.7708 27.4806 16.5726C27.8359 16.3745 28.2493 16.2754 28.7208 16.2754C29.2401 16.2754 29.6876 16.4052 30.0635 16.6649C30.4393 16.9177 30.6853 17.3038 30.8014 17.8231L30.4017 17.6591C30.5657 17.2423 30.8527 16.9074 31.2627 16.6546C31.6727 16.4018 32.151 16.2754 32.6976 16.2754ZM39.6124 21.8204C39.1614 21.8204 38.748 21.7179 38.3722 21.5129C38.0032 21.3011 37.706 20.9902 37.4805 20.5802C37.2618 20.1702 37.1525 19.6577 37.1525 19.0428C37.1525 18.4278 37.2584 17.9153 37.4702 17.5053C37.6889 17.0954 37.9827 16.7879 38.3517 16.5829C38.7275 16.3779 39.1477 16.2754 39.6124 16.2754C40.1454 16.2754 40.6169 16.3915 41.0268 16.6239C41.4368 16.8562 41.7614 17.1808 42.0005 17.5976C42.2397 18.0076 42.3593 18.4893 42.3593 19.0428C42.3593 19.5962 42.2397 20.0814 42.0005 20.4982C41.7614 20.915 41.4368 21.2396 41.0268 21.4719C40.6169 21.7042 40.1454 21.8204 39.6124 21.8204ZM36.7323 23.7473V16.3266H37.6752V17.7923L37.6137 19.053L37.7162 20.3137V23.7473H36.7323ZM39.5304 20.9594C39.8789 20.9594 40.1898 20.8809 40.4631 20.7237C40.7433 20.5665 40.9619 20.3445 41.1191 20.0575C41.2831 19.7637 41.3651 19.4254 41.3651 19.0428C41.3651 18.6533 41.2831 18.3185 41.1191 18.0383C40.9619 17.7513 40.7433 17.5292 40.4631 17.3721C40.1898 17.2149 39.8789 17.1363 39.5304 17.1363C39.1887 17.1363 38.8778 17.2149 38.5977 17.3721C38.3244 17.5292 38.1057 17.7513 37.9417 18.0383C37.7846 18.3185 37.706 18.6533 37.706 19.0428C37.706 19.4254 37.7846 19.7637 37.9417 20.0575C38.1057 20.3445 38.3244 20.5665 38.5977 20.7237C38.8778 20.8809 39.1887 20.9594 39.5304 20.9594ZM43.7188 21.7589V16.3266H44.6618V17.8026L44.5695 17.4336C44.7198 17.0578 44.9727 16.7708 45.328 16.5726C45.6833 16.3745 46.1206 16.2754 46.6399 16.2754V17.2286C46.5989 17.2218 46.5579 17.2183 46.5169 17.2183C46.4828 17.2183 46.4486 17.2183 46.4144 17.2183C45.8883 17.2183 45.4715 17.3755 45.164 17.6898C44.8565 18.0041 44.7028 18.4585 44.7028 19.053V21.7589H43.7188ZM50.1293 21.8204C49.5826 21.8204 49.0975 21.7008 48.6738 21.4617C48.2502 21.2225 47.9154 20.8945 47.6694 20.4777C47.4234 20.0541 47.3004 19.5757 47.3004 19.0428C47.3004 18.503 47.4234 18.0246 47.6694 17.6078C47.9154 17.191 48.2502 16.8664 48.6738 16.6341C49.0975 16.395 49.5826 16.2754 50.1293 16.2754C50.6691 16.2754 51.1508 16.395 51.5745 16.6341C52.0049 16.8664 52.3398 17.191 52.5789 17.6078C52.8249 18.0178 52.9479 18.4961 52.9479 19.0428C52.9479 19.5826 52.8249 20.0609 52.5789 20.4777C52.3398 20.8945 52.0049 21.2225 51.5745 21.4617C51.1508 21.7008 50.6691 21.8204 50.1293 21.8204ZM50.1293 20.9594C50.4778 20.9594 50.7887 20.8809 51.062 20.7237C51.3421 20.5665 51.5608 20.3445 51.718 20.0575C51.8751 19.7637 51.9537 19.4254 51.9537 19.0428C51.9537 18.6533 51.8751 18.3185 51.718 18.0383C51.5608 17.7513 51.3421 17.5292 51.062 17.3721C50.7887 17.2149 50.4778 17.1363 50.1293 17.1363C49.7808 17.1363 49.4699 17.2149 49.1966 17.3721C48.9232 17.5292 48.7046 17.7513 48.5406 18.0383C48.3766 18.3185 48.2946 18.6533 48.2946 19.0428C48.2946 19.4254 48.3766 19.7637 48.5406 20.0575C48.7046 20.3445 48.9232 20.5665 49.1966 20.7237C49.4699 20.8809 49.7808 20.9594 50.1293 20.9594ZM55.5832 21.7589L53.2053 16.3266H54.2303L56.3417 21.2464H55.8497L58.0022 16.3266H58.9656L56.5877 21.7589H55.5832ZM62.1527 21.8204C61.5719 21.8204 61.0594 21.7008 60.6152 21.4617C60.1779 21.2225 59.8363 20.8945 59.5903 20.4777C59.3511 20.0609 59.2315 19.5826 59.2315 19.0428C59.2315 18.503 59.3477 18.0246 59.58 17.6078C59.8192 17.191 60.1438 16.8664 60.5537 16.6341C60.9706 16.395 61.4386 16.2754 61.9579 16.2754C62.4841 16.2754 62.9487 16.3915 63.3519 16.6239C63.755 16.8562 64.0693 17.1842 64.2948 17.6078C64.5272 18.0246 64.6433 18.5132 64.6433 19.0735C64.6433 19.1145 64.6399 19.1623 64.6331 19.217C64.6331 19.2717 64.6297 19.3229 64.6228 19.3708H60.0003V18.6635H64.1103L63.7106 18.9095C63.7174 18.561 63.6457 18.2501 63.4954 17.9768C63.345 17.7035 63.1366 17.4917 62.8701 17.3413C62.6105 17.1842 62.3064 17.1056 61.9579 17.1056C61.6163 17.1056 61.3122 17.1842 61.0457 17.3413C60.7792 17.4917 60.5708 17.7069 60.4205 17.9871C60.2702 18.2604 60.195 18.5747 60.195 18.93V19.094C60.195 19.4562 60.277 19.7807 60.441 20.0677C60.6118 20.3479 60.8476 20.5665 61.1482 20.7237C61.4489 20.8809 61.7939 20.9594 62.1834 20.9594C62.5046 20.9594 62.795 20.9048 63.0546 20.7955C63.3211 20.6861 63.5535 20.5221 63.7516 20.3035L64.2948 20.9389C64.0488 21.2259 63.7414 21.4446 63.3724 21.5949C63.0102 21.7452 62.6037 21.8204 62.1527 21.8204ZM71.6423 21.8204C71.1914 21.8204 70.778 21.7179 70.4021 21.5129C70.0332 21.3011 69.7359 20.9902 69.5104 20.5802C69.2918 20.1702 69.1824 19.6577 69.1824 19.0428C69.1824 18.4278 69.2884 17.9153 69.5002 17.5053C69.7188 17.0954 70.0127 16.7879 70.3816 16.5829C70.7575 16.3779 71.1777 16.2754 71.6423 16.2754C72.1753 16.2754 72.6468 16.3915 73.0568 16.6239C73.4668 16.8562 73.7913 17.1808 74.0305 17.5976C74.2697 18.0076 74.3892 18.4893 74.3892 19.0428C74.3892 19.5962 74.2697 20.0814 74.0305 20.4982C73.7913 20.915 73.4668 21.2396 73.0568 21.4719C72.6468 21.7042 72.1753 21.8204 71.6423 21.8204ZM68.7622 23.7473V16.3266H69.7052V17.7923L69.6437 19.053L69.7462 20.3137V23.7473H68.7622ZM71.5603 20.9594C71.9088 20.9594 72.2197 20.8809 72.4931 20.7237C72.7732 20.5665 72.9919 20.3445 73.149 20.0575C73.313 19.7637 73.395 19.4254 73.395 19.0428C73.395 18.6533 73.313 18.3185 73.149 18.0383C72.9919 17.7513 72.7732 17.5292 72.4931 17.3721C72.2197 17.2149 71.9088 17.1363 71.5603 17.1363C71.2187 17.1363 70.9078 17.2149 70.6276 17.3721C70.3543 17.5292 70.1357 17.7513 69.9717 18.0383C69.8145 18.3185 69.7359 18.6533 69.7359 19.0428C69.7359 19.4254 69.8145 19.7637 69.9717 20.0575C70.1357 20.3445 70.3543 20.5665 70.6276 20.7237C70.9078 20.8809 71.2187 20.9594 71.5603 20.9594ZM75.7487 21.7589V16.3266H76.6917V17.8026L76.5995 17.4336C76.7498 17.0578 77.0026 16.7708 77.3579 16.5726C77.7132 16.3745 78.1506 16.2754 78.6699 16.2754V17.2286C78.6289 17.2218 78.5879 17.2183 78.5469 17.2183C78.5127 17.2183 78.4786 17.2183 78.4444 17.2183C77.9182 17.2183 77.5014 17.3755 77.1939 17.6898C76.8864 18.0041 76.7327 18.4585 76.7327 19.053V21.7589H75.7487ZM82.2515 21.8204C81.6707 21.8204 81.1582 21.7008 80.714 21.4617C80.2767 21.2225 79.9351 20.8945 79.6891 20.4777C79.4499 20.0609 79.3303 19.5826 79.3303 19.0428C79.3303 18.503 79.4465 18.0246 79.6788 17.6078C79.918 17.191 80.2426 16.8664 80.6525 16.6341C81.0694 16.395 81.5374 16.2754 82.0567 16.2754C82.5829 16.2754 83.0475 16.3915 83.4507 16.6239C83.8538 16.8562 84.1681 17.1842 84.3936 17.6078C84.626 18.0246 84.7421 18.5132 84.7421 19.0735C84.7421 19.1145 84.7387 19.1623 84.7319 19.217C84.7319 19.2717 84.7285 19.3229 84.7216 19.3708H80.0991V18.6635H84.2091L83.8094 18.9095C83.8162 18.561 83.7445 18.2501 83.5942 17.9768C83.4438 17.7035 83.2354 17.4917 82.9689 17.3413C82.7093 17.1842 82.4052 17.1056 82.0567 17.1056C81.7151 17.1056 81.411 17.1842 81.1445 17.3413C80.878 17.4917 80.6696 17.7069 80.5193 17.9871C80.369 18.2604 80.2938 18.5747 80.2938 18.93V19.094C80.2938 19.4562 80.3758 19.7807 80.5398 20.0677C80.7106 20.3479 80.9464 20.5665 81.247 20.7237C81.5477 20.8809 81.8927 20.9594 82.2822 20.9594C82.6034 20.9594 82.8938 20.9048 83.1534 20.7955C83.4199 20.6861 83.6522 20.5221 83.8504 20.3035L84.3936 20.9389C84.1476 21.2259 83.8402 21.4446 83.4712 21.5949C83.109 21.7452 82.7025 21.8204 82.2515 21.8204ZM87.6664 21.8204C87.2154 21.8204 86.7849 21.7589 86.3749 21.6359C85.9718 21.5129 85.654 21.3626 85.4217 21.1849L85.8317 20.406C86.064 20.5631 86.351 20.6964 86.6927 20.8057C87.0343 20.915 87.3828 20.9697 87.7381 20.9697C88.1959 20.9697 88.5239 20.9048 88.7221 20.775C88.9271 20.6451 89.0296 20.464 89.0296 20.2317C89.0296 20.0609 88.9681 19.9277 88.8451 19.832C88.7221 19.7363 88.5581 19.6646 88.3531 19.6167C88.1549 19.5689 87.9329 19.5279 87.6869 19.4938C87.4409 19.4528 87.1949 19.4049 86.9489 19.3503C86.7029 19.2888 86.4774 19.2068 86.2724 19.1043C86.0674 18.9949 85.9034 18.848 85.7804 18.6635C85.6575 18.4722 85.596 18.2194 85.596 17.9051C85.596 17.5771 85.6882 17.2901 85.8727 17.0441C86.0572 16.7981 86.3168 16.6102 86.6517 16.4804C86.9933 16.3437 87.3965 16.2754 87.8611 16.2754C88.2164 16.2754 88.5752 16.3198 88.9373 16.4086C89.3063 16.4906 89.607 16.6102 89.8393 16.7674L89.419 17.5463C89.1731 17.3823 88.9168 17.2696 88.6503 17.2081C88.3838 17.1466 88.1174 17.1158 87.8509 17.1158C87.4204 17.1158 87.0992 17.1876 86.8874 17.3311C86.6756 17.4678 86.5697 17.6454 86.5697 17.8641C86.5697 18.0486 86.6312 18.1921 86.7542 18.2946C86.884 18.3902 87.048 18.4654 87.2461 18.52C87.4511 18.5747 87.6766 18.6225 87.9226 18.6635C88.1686 18.6977 88.4146 18.7455 88.6606 18.807C88.9066 18.8617 89.1286 18.9403 89.3268 19.0428C89.5318 19.1453 89.6958 19.2888 89.8188 19.4733C89.9486 19.6577 90.0135 19.9037 90.0135 20.2112C90.0135 20.5392 89.9179 20.8228 89.7265 21.0619C89.5352 21.3011 89.2653 21.489 88.9168 21.6257C88.5683 21.7555 88.1515 21.8204 87.6664 21.8204ZM93.6621 21.8204C93.0813 21.8204 92.5688 21.7008 92.1247 21.4617C91.6874 21.2225 91.3457 20.8945 91.0997 20.4777C90.8606 20.0609 90.741 19.5826 90.741 19.0428C90.741 18.503 90.8572 18.0246 91.0895 17.6078C91.3286 17.191 91.6532 16.8664 92.0632 16.6341C92.48 16.395 92.9481 16.2754 93.4674 16.2754C93.9935 16.2754 94.4582 16.3915 94.8613 16.6239C95.2645 16.8562 95.5788 17.1842 95.8043 17.6078C96.0366 18.0246 96.1528 18.5132 96.1528 19.0735C96.1528 19.1145 96.1494 19.1623 96.1425 19.217C96.1425 19.2717 96.1391 19.3229 96.1323 19.3708H91.5097V18.6635H95.6198L95.2201 18.9095C95.2269 18.561 95.1552 18.2501 95.0048 17.9768C94.8545 17.7035 94.6461 17.4917 94.3796 17.3413C94.12 17.1842 93.8159 17.1056 93.4674 17.1056C93.1257 17.1056 92.8217 17.1842 92.5552 17.3413C92.2887 17.4917 92.0803 17.7069 91.93 17.9871C91.7796 18.2604 91.7045 18.5747 91.7045 18.93V19.094C91.7045 19.4562 91.7865 19.7807 91.9505 20.0677C92.1213 20.3479 92.357 20.5665 92.6577 20.7237C92.9583 20.8809 93.3034 20.9594 93.6929 20.9594C94.014 20.9594 94.3044 20.9048 94.5641 20.7955C94.8306 20.6861 95.0629 20.5221 95.2611 20.3035L95.8043 20.9389C95.5583 21.2259 95.2508 21.4446 94.8818 21.5949C94.5197 21.7452 94.1131 21.8204 93.6621 21.8204ZM100.42 16.2754C100.864 16.2754 101.253 16.3608 101.588 16.5316C101.93 16.7024 102.196 16.9621 102.388 17.3106C102.579 17.6591 102.675 18.0998 102.675 18.6328V21.7589H101.691V18.7455C101.691 18.2194 101.561 17.8231 101.301 17.5566C101.048 17.2901 100.69 17.1568 100.225 17.1568C99.8765 17.1568 99.5724 17.2252 99.3128 17.3618C99.0531 17.4985 98.8516 17.7001 98.7081 17.9666C98.5714 18.2331 98.5031 18.5645 98.5031 18.9608V21.7589H97.5191V16.3266H98.4621V17.7923L98.3083 17.4028C98.486 17.0475 98.7593 16.7708 99.1283 16.5726C99.4973 16.3745 99.9278 16.2754 100.42 16.2754ZM106.361 21.8204C105.814 21.8204 105.391 21.6735 105.09 21.3797C104.789 21.0859 104.639 20.6656 104.639 20.119V15.1377H105.623V20.078C105.623 20.3718 105.695 20.5973 105.838 20.7545C105.989 20.9116 106.2 20.9902 106.474 20.9902C106.781 20.9902 107.038 20.9048 107.243 20.734L107.55 21.4412C107.4 21.571 107.219 21.6667 107.007 21.7282C106.802 21.7897 106.587 21.8204 106.361 21.8204ZM103.717 17.1363V16.3266H107.181V17.1363H103.717ZM112.112 21.7589V20.611L112.06 20.3957V18.438C112.06 18.0212 111.937 17.7001 111.691 17.4746C111.452 17.2423 111.09 17.1261 110.605 17.1261C110.284 17.1261 109.97 17.1808 109.662 17.2901C109.355 17.3926 109.095 17.5327 108.883 17.7103L108.473 16.9724C108.753 16.7469 109.088 16.576 109.478 16.4599C109.874 16.3369 110.287 16.2754 110.718 16.2754C111.463 16.2754 112.037 16.4565 112.44 16.8186C112.843 17.1808 113.044 17.7342 113.044 18.479V21.7589H112.112ZM110.328 21.8204C109.925 21.8204 109.57 21.7521 109.262 21.6154C108.962 21.4788 108.729 21.2908 108.565 21.0517C108.401 20.8057 108.319 20.529 108.319 20.2215C108.319 19.9277 108.388 19.6612 108.524 19.422C108.668 19.1828 108.897 18.9915 109.211 18.848C109.532 18.7045 109.963 18.6328 110.503 18.6328H112.224V19.34H110.544C110.052 19.34 109.72 19.422 109.549 19.586C109.378 19.75 109.293 19.9482 109.293 20.1805C109.293 20.447 109.399 20.6622 109.611 20.8262C109.823 20.9834 110.116 21.0619 110.492 21.0619C110.861 21.0619 111.182 20.9799 111.456 20.8159C111.736 20.652 111.937 20.4128 112.06 20.0985L112.255 20.775C112.125 21.0961 111.896 21.3523 111.568 21.5437C111.24 21.7282 110.827 21.8204 110.328 21.8204ZM116.731 21.8204C116.184 21.8204 115.76 21.6735 115.46 21.3797C115.159 21.0859 115.009 20.6656 115.009 20.119V15.1377H115.993V20.078C115.993 20.3718 116.065 20.5973 116.208 20.7545C116.358 20.9116 116.57 20.9902 116.843 20.9902C117.151 20.9902 117.407 20.9048 117.612 20.734L117.92 21.4412C117.769 21.571 117.588 21.6667 117.376 21.7282C117.171 21.7897 116.956 21.8204 116.731 21.8204ZM114.086 17.1363V16.3266H117.551V17.1363H114.086ZM119.109 21.7589V16.3266H120.093V21.7589H119.109ZM119.601 15.2812C119.41 15.2812 119.249 15.2197 119.12 15.0967C118.997 14.9737 118.935 14.8234 118.935 14.6457C118.935 14.4612 118.997 14.3075 119.12 14.1845C119.249 14.0615 119.41 14 119.601 14C119.793 14 119.95 14.0615 120.073 14.1845C120.203 14.3006 120.267 14.4475 120.267 14.6252C120.267 14.8097 120.206 14.9669 120.083 15.0967C119.96 15.2197 119.799 15.2812 119.601 15.2812ZM124.299 21.8204C123.752 21.8204 123.267 21.7008 122.843 21.4617C122.42 21.2225 122.085 20.8945 121.839 20.4777C121.593 20.0541 121.47 19.5757 121.47 19.0428C121.47 18.503 121.593 18.0246 121.839 17.6078C122.085 17.191 122.42 16.8664 122.843 16.6341C123.267 16.395 123.752 16.2754 124.299 16.2754C124.838 16.2754 125.32 16.395 125.744 16.6341C126.174 16.8664 126.509 17.191 126.748 17.6078C126.994 18.0178 127.117 18.4961 127.117 19.0428C127.117 19.5826 126.994 20.0609 126.748 20.4777C126.509 20.8945 126.174 21.2225 125.744 21.4617C125.32 21.7008 124.838 21.8204 124.299 21.8204ZM124.299 20.9594C124.647 20.9594 124.958 20.8809 125.231 20.7237C125.511 20.5665 125.73 20.3445 125.887 20.0575C126.044 19.7637 126.123 19.4254 126.123 19.0428C126.123 18.6533 126.044 18.3185 125.887 18.0383C125.73 17.7513 125.511 17.5292 125.231 17.3721C124.958 17.2149 124.647 17.1363 124.299 17.1363C123.95 17.1363 123.639 17.2149 123.366 17.3721C123.093 17.5292 122.874 17.7513 122.71 18.0383C122.546 18.3185 122.464 18.6533 122.464 19.0428C122.464 19.4254 122.546 19.7637 122.71 20.0575C122.874 20.3445 123.093 20.5665 123.366 20.7237C123.639 20.8809 123.95 20.9594 124.299 20.9594ZM131.379 16.2754C131.823 16.2754 132.212 16.3608 132.547 16.5316C132.889 16.7024 133.155 16.9621 133.347 17.3106C133.538 17.6591 133.634 18.0998 133.634 18.6328V21.7589H132.65V18.7455C132.65 18.2194 132.52 17.8231 132.26 17.5566C132.007 17.2901 131.649 17.1568 131.184 17.1568C130.835 17.1568 130.531 17.2252 130.272 17.3618C130.012 17.4985 129.81 17.7001 129.667 17.9666C129.53 18.2331 129.462 18.5645 129.462 18.9608V21.7589H128.478V16.3266H129.421V17.7923L129.267 17.4028C129.445 17.0475 129.718 16.7708 130.087 16.5726C130.456 16.3745 130.887 16.2754 131.379 16.2754ZM139.386 21.7589L137.356 16.3779H138.053L139.898 21.3694H139.581L141.477 16.3779H142.102L143.978 21.3694H143.66L145.536 16.3779H146.202L144.162 21.7589H143.475L141.672 17.0646H141.887L140.073 21.7589H139.386ZM147.298 21.7589V16.3779H148.025V21.7589H147.298ZM147.667 15.1889C147.516 15.1889 147.39 15.1377 147.287 15.0352C147.185 14.9327 147.134 14.8097 147.134 14.6662C147.134 14.5227 147.185 14.4031 147.287 14.3075C147.39 14.205 147.516 14.1537 147.667 14.1537C147.817 14.1537 147.943 14.2016 148.046 14.2972C148.148 14.3929 148.2 14.5125 148.2 14.6559C148.2 14.8063 148.148 14.9327 148.046 15.0352C147.95 15.1377 147.824 15.1889 147.667 15.1889ZM151.752 21.8102C151.246 21.8102 150.856 21.6735 150.583 21.4002C150.31 21.1269 150.173 20.7408 150.173 20.242V15.1889H150.901V20.201C150.901 20.5153 150.979 20.7579 151.137 20.9287C151.301 21.0995 151.533 21.1849 151.834 21.1849C152.155 21.1849 152.421 21.0927 152.633 20.9082L152.889 21.4309C152.746 21.5608 152.572 21.6564 152.367 21.7179C152.168 21.7794 151.963 21.8102 151.752 21.8102ZM149.21 16.9826V16.3779H152.541V16.9826H149.21ZM156.961 16.3266C157.398 16.3266 157.781 16.412 158.109 16.5829C158.444 16.7469 158.703 16.9997 158.888 17.3413C159.079 17.683 159.175 18.1135 159.175 18.6328V21.7589H158.447V18.7045C158.447 18.1374 158.304 17.7103 158.017 17.4233C157.736 17.1295 157.34 16.9826 156.828 16.9826C156.445 16.9826 156.11 17.0612 155.823 17.2183C155.543 17.3687 155.324 17.5907 155.167 17.8846C155.017 18.1716 154.942 18.52 154.942 18.93V21.7589H154.214V14.1537H154.942V17.8538L154.798 17.5771C154.969 17.1876 155.242 16.8835 155.618 16.6649C155.994 16.4394 156.442 16.3266 156.961 16.3266ZM167.113 21.7589V20.611L167.062 20.3957V18.438C167.062 18.0212 166.939 17.7001 166.693 17.4746C166.454 17.2423 166.092 17.1261 165.606 17.1261C165.285 17.1261 164.971 17.1808 164.663 17.2901C164.356 17.3926 164.096 17.5327 163.885 17.7103L163.475 16.9724C163.755 16.7469 164.09 16.576 164.479 16.4599C164.875 16.3369 165.289 16.2754 165.719 16.2754C166.464 16.2754 167.038 16.4565 167.441 16.8186C167.844 17.1808 168.046 17.7342 168.046 18.479V21.7589H167.113ZM165.33 21.8204C164.927 21.8204 164.571 21.7521 164.264 21.6154C163.963 21.4788 163.731 21.2908 163.567 21.0517C163.403 20.8057 163.321 20.529 163.321 20.2215C163.321 19.9277 163.389 19.6612 163.526 19.422C163.669 19.1828 163.898 18.9915 164.213 18.848C164.534 18.7045 164.964 18.6328 165.504 18.6328H167.226V19.34H165.545C165.053 19.34 164.722 19.422 164.551 19.586C164.38 19.75 164.295 19.9482 164.295 20.1805C164.295 20.447 164.4 20.6622 164.612 20.8262C164.824 20.9834 165.118 21.0619 165.494 21.0619C165.863 21.0619 166.184 20.9799 166.457 20.8159C166.737 20.652 166.939 20.4128 167.062 20.0985L167.257 20.775C167.127 21.0961 166.898 21.3523 166.57 21.5437C166.242 21.7282 165.829 21.8204 165.33 21.8204ZM172.111 21.8204C171.585 21.8204 171.114 21.7042 170.697 21.4719C170.287 21.2396 169.962 20.915 169.723 20.4982C169.484 20.0814 169.365 19.5962 169.365 19.0428C169.365 18.4893 169.484 18.0076 169.723 17.5976C169.962 17.1808 170.287 16.8562 170.697 16.6239C171.114 16.3915 171.585 16.2754 172.111 16.2754C172.569 16.2754 172.983 16.3779 173.352 16.5829C173.721 16.7879 174.014 17.0954 174.233 17.5053C174.459 17.9153 174.571 18.4278 174.571 19.0428C174.571 19.6577 174.462 20.1702 174.243 20.5802C174.031 20.9902 173.741 21.3011 173.372 21.5129C173.003 21.7179 172.583 21.8204 172.111 21.8204ZM172.193 20.9594C172.535 20.9594 172.843 20.8809 173.116 20.7237C173.396 20.5665 173.615 20.3445 173.772 20.0575C173.936 19.7637 174.018 19.4254 174.018 19.0428C174.018 18.6533 173.936 18.3185 173.772 18.0383C173.615 17.7513 173.396 17.5292 173.116 17.3721C172.843 17.2149 172.535 17.1363 172.193 17.1363C171.845 17.1363 171.534 17.2149 171.261 17.3721C170.987 17.5292 170.769 17.7513 170.605 18.0383C170.441 18.3185 170.359 18.6533 170.359 19.0428C170.359 19.4254 170.441 19.7637 170.605 20.0575C170.769 20.3445 170.987 20.5665 171.261 20.7237C171.534 20.8809 171.845 20.9594 172.193 20.9594ZM174.049 21.7589V20.2932L174.11 19.0325L174.008 17.7718V14.1537H174.992V21.7589H174.049ZM178.278 21.7589L175.9 16.3266H176.925L179.036 21.2464H178.544L180.697 16.3266H181.66L179.282 21.7589H178.278ZM185.781 21.7589V20.611L185.729 20.3957V18.438C185.729 18.0212 185.606 17.7001 185.36 17.4746C185.121 17.2423 184.759 17.1261 184.274 17.1261C183.953 17.1261 183.638 17.1808 183.331 17.2901C183.023 17.3926 182.764 17.5327 182.552 17.7103L182.142 16.9724C182.422 16.7469 182.757 16.576 183.146 16.4599C183.543 16.3369 183.956 16.2754 184.387 16.2754C185.131 16.2754 185.705 16.4565 186.109 16.8186C186.512 17.1808 186.713 17.7342 186.713 18.479V21.7589H185.781ZM183.997 21.8204C183.594 21.8204 183.239 21.7521 182.931 21.6154C182.631 21.4788 182.398 21.2908 182.234 21.0517C182.07 20.8057 181.988 20.529 181.988 20.2215C181.988 19.9277 182.057 19.6612 182.193 19.422C182.337 19.1828 182.566 18.9915 182.88 18.848C183.201 18.7045 183.632 18.6328 184.171 18.6328H185.893V19.34H184.212C183.72 19.34 183.389 19.422 183.218 19.586C183.047 19.75 182.962 19.9482 182.962 20.1805C182.962 20.447 183.068 20.6622 183.28 20.8262C183.492 20.9834 183.785 21.0619 184.161 21.0619C184.53 21.0619 184.851 20.9799 185.125 20.8159C185.405 20.652 185.606 20.4128 185.729 20.0985L185.924 20.775C185.794 21.0961 185.565 21.3523 185.237 21.5437C184.909 21.7282 184.496 21.8204 183.997 21.8204ZM191.435 16.2754C191.879 16.2754 192.268 16.3608 192.603 16.5316C192.945 16.7024 193.211 16.9621 193.403 17.3106C193.594 17.6591 193.69 18.0998 193.69 18.6328V21.7589H192.706V18.7455C192.706 18.2194 192.576 17.8231 192.316 17.5566C192.063 17.2901 191.705 17.1568 191.24 17.1568C190.892 17.1568 190.588 17.2252 190.328 17.3618C190.068 17.4985 189.867 17.7001 189.723 17.9666C189.587 18.2331 189.518 18.5645 189.518 18.9608V21.7589H188.534V16.3266H189.477V17.7923L189.323 17.4028C189.501 17.0475 189.774 16.7708 190.143 16.5726C190.512 16.3745 190.943 16.2754 191.435 16.2754ZM197.878 21.8204C197.325 21.8204 196.83 21.7008 196.392 21.4617C195.962 21.2225 195.623 20.8945 195.377 20.4777C195.131 20.0609 195.009 19.5826 195.009 19.0428C195.009 18.503 195.131 18.0246 195.377 17.6078C195.623 17.191 195.962 16.8664 196.392 16.6341C196.83 16.395 197.325 16.2754 197.878 16.2754C198.37 16.2754 198.808 16.3745 199.19 16.5726C199.58 16.7639 199.88 17.0509 200.092 17.4336L199.344 17.9153C199.166 17.6488 198.948 17.4541 198.688 17.3311C198.435 17.2013 198.162 17.1363 197.868 17.1363C197.513 17.1363 197.195 17.2149 196.915 17.3721C196.635 17.5292 196.413 17.7513 196.249 18.0383C196.085 18.3185 196.003 18.6533 196.003 19.0428C196.003 19.4323 196.085 19.7705 196.249 20.0575C196.413 20.3445 196.635 20.5665 196.915 20.7237C197.195 20.8809 197.513 20.9594 197.868 20.9594C198.162 20.9594 198.435 20.8979 198.688 20.775C198.948 20.6451 199.166 20.447 199.344 20.1805L200.092 20.652C199.88 21.0278 199.58 21.3182 199.19 21.5232C198.808 21.7213 198.37 21.8204 197.878 21.8204ZM203.705 21.8204C203.124 21.8204 202.612 21.7008 202.168 21.4617C201.73 21.2225 201.389 20.8945 201.143 20.4777C200.903 20.0609 200.784 19.5826 200.784 19.0428C200.784 18.503 200.9 18.0246 201.132 17.6078C201.372 17.191 201.696 16.8664 202.106 16.6341C202.523 16.395 202.991 16.2754 203.51 16.2754C204.036 16.2754 204.501 16.3915 204.904 16.6239C205.307 16.8562 205.622 17.1842 205.847 17.6078C206.08 18.0246 206.196 18.5132 206.196 19.0735C206.196 19.1145 206.192 19.1623 206.185 19.217C206.185 19.2717 206.182 19.3229 206.175 19.3708H201.553V18.6635H205.663L205.263 18.9095C205.27 18.561 205.198 18.2501 205.048 17.9768C204.897 17.7035 204.689 17.4917 204.423 17.3413C204.163 17.1842 203.859 17.1056 203.51 17.1056C203.169 17.1056 202.865 17.1842 202.598 17.3413C202.332 17.4917 202.123 17.7069 201.973 17.9871C201.823 18.2604 201.747 18.5747 201.747 18.93V19.094C201.747 19.4562 201.829 19.7807 201.993 20.0677C202.164 20.3479 202.4 20.5665 202.701 20.7237C203.001 20.8809 203.346 20.9594 203.736 20.9594C204.057 20.9594 204.347 20.9048 204.607 20.7955C204.873 20.6861 205.106 20.5221 205.304 20.3035L205.847 20.9389C205.601 21.2259 205.294 21.4446 204.925 21.5949C204.563 21.7452 204.156 21.8204 203.705 21.8204ZM209.807 21.8204C209.281 21.8204 208.809 21.7042 208.392 21.4719C207.982 21.2396 207.658 20.915 207.419 20.4982C207.179 20.0814 207.06 19.5962 207.06 19.0428C207.06 18.4893 207.179 18.0076 207.419 17.5976C207.658 17.1808 207.982 16.8562 208.392 16.6239C208.809 16.3915 209.281 16.2754 209.807 16.2754C210.264 16.2754 210.678 16.3779 211.047 16.5829C211.416 16.7879 211.71 17.0954 211.928 17.5053C212.154 17.9153 212.267 18.4278 212.267 19.0428C212.267 19.6577 212.157 20.1702 211.939 20.5802C211.727 20.9902 211.436 21.3011 211.067 21.5129C210.698 21.7179 210.278 21.8204 209.807 21.8204ZM209.889 20.9594C210.23 20.9594 210.538 20.8809 210.811 20.7237C211.091 20.5665 211.31 20.3445 211.467 20.0575C211.631 19.7637 211.713 19.4254 211.713 19.0428C211.713 18.6533 211.631 18.3185 211.467 18.0383C211.31 17.7513 211.091 17.5292 210.811 17.3721C210.538 17.2149 210.23 17.1363 209.889 17.1363C209.54 17.1363 209.229 17.2149 208.956 17.3721C208.683 17.5292 208.464 17.7513 208.3 18.0383C208.136 18.3185 208.054 18.6533 208.054 19.0428C208.054 19.4254 208.136 19.7637 208.3 20.0575C208.464 20.3445 208.683 20.5665 208.956 20.7237C209.229 20.8809 209.54 20.9594 209.889 20.9594ZM211.744 21.7589V20.2932L211.805 19.0325L211.703 17.7718V14.1537H212.687V21.7589H211.744ZM217.301 21.7589V14.1537H218.285V21.7589H217.301ZM223.536 21.7589V20.611L223.485 20.3957V18.438C223.485 18.0212 223.362 17.7001 223.116 17.4746C222.877 17.2423 222.514 17.1261 222.029 17.1261C221.708 17.1261 221.394 17.1808 221.086 17.2901C220.779 17.3926 220.519 17.5327 220.307 17.7103L219.897 16.9724C220.177 16.7469 220.512 16.576 220.902 16.4599C221.298 16.3369 221.711 16.2754 222.142 16.2754C222.887 16.2754 223.461 16.4565 223.864 16.8186C224.267 17.1808 224.469 17.7342 224.469 18.479V21.7589H223.536ZM221.752 21.8204C221.349 21.8204 220.994 21.7521 220.687 21.6154C220.386 21.4788 220.154 21.2908 219.99 21.0517C219.826 20.8057 219.744 20.529 219.744 20.2215C219.744 19.9277 219.812 19.6612 219.949 19.422C220.092 19.1828 220.321 18.9915 220.635 18.848C220.956 18.7045 221.387 18.6328 221.927 18.6328H223.649V19.34H221.968C221.476 19.34 221.144 19.422 220.974 19.586C220.803 19.75 220.717 19.9482 220.717 20.1805C220.717 20.447 220.823 20.6622 221.035 20.8262C221.247 20.9834 221.541 21.0619 221.916 21.0619C222.285 21.0619 222.607 20.9799 222.88 20.8159C223.16 20.652 223.362 20.4128 223.485 20.0985L223.679 20.775C223.55 21.0961 223.321 21.3523 222.993 21.5437C222.665 21.7282 222.251 21.8204 221.752 21.8204ZM229.17 21.8204C228.705 21.8204 228.285 21.7179 227.909 21.5129C227.54 21.3011 227.246 20.9902 227.027 20.5802C226.816 20.1702 226.71 19.6577 226.71 19.0428C226.71 18.4278 226.819 17.9153 227.038 17.5053C227.263 17.0954 227.56 16.7879 227.929 16.5829C228.305 16.3779 228.719 16.2754 229.17 16.2754C229.703 16.2754 230.174 16.3915 230.584 16.6239C230.994 16.8562 231.319 17.1808 231.558 17.5976C231.797 18.0076 231.917 18.4893 231.917 19.0428C231.917 19.5962 231.797 20.0814 231.558 20.4982C231.319 20.915 230.994 21.2396 230.584 21.4719C230.174 21.7042 229.703 21.8204 229.17 21.8204ZM226.29 21.7589V14.1537H227.273V17.7718L227.171 19.0325L227.232 20.2932V21.7589H226.29ZM229.088 20.9594C229.436 20.9594 229.747 20.8809 230.02 20.7237C230.301 20.5665 230.519 20.3445 230.676 20.0575C230.84 19.7637 230.922 19.4254 230.922 19.0428C230.922 18.6533 230.84 18.3185 230.676 18.0383C230.519 17.7513 230.301 17.5292 230.02 17.3721C229.747 17.2149 229.436 17.1363 229.088 17.1363C228.746 17.1363 228.435 17.2149 228.155 17.3721C227.882 17.5292 227.663 17.7513 227.499 18.0383C227.342 18.3185 227.263 18.6533 227.263 19.0428C227.263 19.4254 227.342 19.7637 227.499 20.0575C227.663 20.3445 227.882 20.5665 228.155 20.7237C228.435 20.8809 228.746 20.9594 229.088 20.9594ZM235.695 21.8204C235.114 21.8204 234.602 21.7008 234.158 21.4617C233.72 21.2225 233.379 20.8945 233.133 20.4777C232.893 20.0609 232.774 19.5826 232.774 19.0428C232.774 18.503 232.89 18.0246 233.122 17.6078C233.361 17.191 233.686 16.8664 234.096 16.6341C234.513 16.395 234.981 16.2754 235.5 16.2754C236.026 16.2754 236.491 16.3915 236.894 16.6239C237.297 16.8562 237.612 17.1842 237.837 17.6078C238.069 18.0246 238.186 18.5132 238.186 19.0735C238.186 19.1145 238.182 19.1623 238.175 19.217C238.175 19.2717 238.172 19.3229 238.165 19.3708H233.543V18.6635H237.653L237.253 18.9095C237.26 18.561 237.188 18.2501 237.038 17.9768C236.887 17.7035 236.679 17.4917 236.412 17.3413C236.153 17.1842 235.849 17.1056 235.5 17.1056C235.159 17.1056 234.854 17.1842 234.588 17.3413C234.322 17.4917 234.113 17.7069 233.963 17.9871C233.812 18.2604 233.737 18.5747 233.737 18.93V19.094C233.737 19.4562 233.819 19.7807 233.983 20.0677C234.154 20.3479 234.39 20.5665 234.69 20.7237C234.991 20.8809 235.336 20.9594 235.726 20.9594C236.047 20.9594 236.337 20.9048 236.597 20.7955C236.863 20.6861 237.096 20.5221 237.294 20.3035L237.837 20.9389C237.591 21.2259 237.284 21.4446 236.915 21.5949C236.553 21.7452 236.146 21.8204 235.695 21.8204ZM239.552 21.7589V14.1537H240.536V21.7589H239.552ZM242.415 21.7589V16.3266H243.399V21.7589H242.415ZM242.907 15.2812C242.715 15.2812 242.555 15.2197 242.425 15.0967C242.302 14.9737 242.24 14.8234 242.24 14.6457C242.24 14.4612 242.302 14.3075 242.425 14.1845C242.555 14.0615 242.715 14 242.907 14C243.098 14 243.255 14.0615 243.378 14.1845C243.508 14.3006 243.573 14.4475 243.573 14.6252C243.573 14.8097 243.511 14.9669 243.388 15.0967C243.265 15.2197 243.105 15.2812 242.907 15.2812ZM248.178 16.2754C248.622 16.2754 249.012 16.3608 249.346 16.5316C249.688 16.7024 249.954 16.9621 250.146 17.3106C250.337 17.6591 250.433 18.0998 250.433 18.6328V21.7589H249.449V18.7455C249.449 18.2194 249.319 17.8231 249.059 17.5566C248.807 17.2901 248.448 17.1568 247.983 17.1568C247.635 17.1568 247.331 17.2252 247.071 17.3618C246.811 17.4985 246.61 17.7001 246.466 17.9666C246.33 18.2331 246.261 18.5645 246.261 18.9608V21.7589H245.277V16.3266H246.22V17.7923L246.066 17.4028C246.244 17.0475 246.517 16.7708 246.886 16.5726C247.255 16.3745 247.686 16.2754 248.178 16.2754ZM254.632 23.8088C254.133 23.8088 253.648 23.7371 253.176 23.5936C252.712 23.4569 252.332 23.2588 252.039 22.9991L252.51 22.2406C252.763 22.4593 253.074 22.6301 253.443 22.7531C253.812 22.8829 254.198 22.9479 254.601 22.9479C255.243 22.9479 255.715 22.7975 256.015 22.4969C256.316 22.1962 256.466 21.7384 256.466 21.1234V19.9755L256.569 18.8993L256.518 17.8128V16.3266H257.45V21.0209C257.45 21.9776 257.211 22.6814 256.733 23.1324C256.255 23.5833 255.554 23.8088 254.632 23.8088ZM254.509 21.5334C253.983 21.5334 253.511 21.4241 253.094 21.2054C252.684 20.9799 252.356 20.669 252.11 20.2727C251.871 19.8764 251.752 19.4186 251.752 18.8993C251.752 18.3731 251.871 17.9153 252.11 17.5258C252.356 17.1295 252.684 16.822 253.094 16.6034C253.511 16.3847 253.983 16.2754 254.509 16.2754C254.973 16.2754 255.397 16.371 255.78 16.5624C256.162 16.7469 256.466 17.0339 256.692 17.4233C256.924 17.8128 257.04 18.3048 257.04 18.8993C257.04 19.4869 256.924 19.9755 256.692 20.365C256.466 20.7545 256.162 21.0483 255.78 21.2464C255.397 21.4378 254.973 21.5334 254.509 21.5334ZM254.621 20.6725C254.984 20.6725 255.305 20.5973 255.585 20.447C255.865 20.2966 256.084 20.0882 256.241 19.8217C256.405 19.5553 256.487 19.2478 256.487 18.8993C256.487 18.5508 256.405 18.2433 256.241 17.9768C256.084 17.7103 255.865 17.5053 255.585 17.3618C255.305 17.2115 254.984 17.1363 254.621 17.1363C254.259 17.1363 253.935 17.2115 253.648 17.3618C253.368 17.5053 253.146 17.7103 252.982 17.9768C252.824 18.2433 252.746 18.5508 252.746 18.8993C252.746 19.2478 252.824 19.5553 252.982 19.8217C253.146 20.0882 253.368 20.2966 253.648 20.447C253.935 20.5973 254.259 20.6725 254.621 20.6725ZM259.566 21.8204C259.375 21.8204 259.211 21.7555 259.074 21.6257C258.938 21.489 258.869 21.3182 258.869 21.1132C258.869 20.9082 258.938 20.7408 259.074 20.611C259.211 20.4811 259.375 20.4162 259.566 20.4162C259.751 20.4162 259.908 20.4811 260.038 20.611C260.174 20.7408 260.243 20.9082 260.243 21.1132C260.243 21.3182 260.174 21.489 260.038 21.6257C259.908 21.7555 259.751 21.8204 259.566 21.8204Z" fill="black"/>
</svg>
