<svg width="319" height="38" viewBox="0 0 319 38" fill="none" xmlns="http://www.w3.org/2000/svg">
<path d="M15.1412 14.084C14.4132 14.084 13.7132 13.9673 13.0412 13.734C12.3786 13.4913 11.8652 13.1833 11.5012 12.81L11.9072 12.012C12.2526 12.348 12.7146 12.6327 13.2932 12.866C13.8812 13.09 14.4972 13.202 15.1412 13.202C15.7572 13.202 16.2566 13.1273 16.6392 12.978C17.0312 12.8193 17.3159 12.6093 17.4932 12.348C17.6799 12.0867 17.7732 11.7973 17.7732 11.48C17.7732 11.0973 17.6612 10.7893 17.4372 10.556C17.2226 10.3227 16.9379 10.1407 16.5832 10.01C16.2286 9.87 15.8366 9.74867 15.4072 9.646C14.9779 9.54333 14.5486 9.436 14.1192 9.324C13.6899 9.20267 13.2932 9.044 12.9292 8.848C12.5746 8.652 12.2852 8.39533 12.0612 8.078C11.8466 7.75133 11.7392 7.32667 11.7392 6.804C11.7392 6.31867 11.8652 5.87533 12.1172 5.474C12.3786 5.06333 12.7752 4.73667 13.3072 4.494C13.8392 4.242 14.5206 4.116 15.3512 4.116C15.9019 4.116 16.4479 4.19533 16.9892 4.354C17.5306 4.50333 17.9972 4.71333 18.3892 4.984L18.0392 5.81C17.6192 5.53 17.1712 5.32467 16.6952 5.194C16.2286 5.06333 15.7759 4.998 15.3372 4.998C14.7492 4.998 14.2639 5.07733 13.8812 5.236C13.4986 5.39467 13.2139 5.60933 13.0272 5.88C12.8499 6.14133 12.7612 6.44 12.7612 6.776C12.7612 7.15867 12.8686 7.46667 13.0832 7.7C13.3072 7.93333 13.5966 8.11533 13.9512 8.246C14.3152 8.37667 14.7119 8.49333 15.1412 8.596C15.5706 8.69867 15.9952 8.81067 16.4152 8.932C16.8446 9.05333 17.2366 9.212 17.5912 9.408C17.9552 9.59467 18.2446 9.84667 18.4592 10.164C18.6832 10.4813 18.7952 10.8967 18.7952 11.41C18.7952 11.886 18.6646 12.3293 18.4032 12.74C18.1419 13.1413 17.7406 13.468 17.1992 13.72C16.6672 13.9627 15.9812 14.084 15.1412 14.084ZM24.6365 14.07C24.0019 14.07 23.4279 13.9253 22.9145 13.636C22.4012 13.3373 21.9905 12.9127 21.6825 12.362C21.3839 11.802 21.2345 11.1207 21.2345 10.318C21.2345 9.51533 21.3839 8.83867 21.6825 8.288C21.9812 7.728 22.3872 7.30333 22.9005 7.014C23.4139 6.72467 23.9925 6.58 24.6365 6.58C25.3365 6.58 25.9619 6.73867 26.5125 7.056C27.0725 7.364 27.5112 7.80267 27.8285 8.372C28.1459 8.932 28.3045 9.58067 28.3045 10.318C28.3045 11.0647 28.1459 11.718 27.8285 12.278C27.5112 12.838 27.0725 13.2767 26.5125 13.594C25.9619 13.9113 25.3365 14.07 24.6365 14.07ZM20.8425 16.716V6.65H21.7945V8.862L21.6965 10.332L21.8365 11.816V16.716H20.8425ZM24.5665 13.188C25.0892 13.188 25.5559 13.0713 25.9665 12.838C26.3772 12.5953 26.7039 12.2593 26.9465 11.83C27.1892 11.3913 27.3105 10.8873 27.3105 10.318C27.3105 9.74867 27.1892 9.24933 26.9465 8.82C26.7039 8.39067 26.3772 8.05467 25.9665 7.812C25.5559 7.56933 25.0892 7.448 24.5665 7.448C24.0439 7.448 23.5725 7.56933 23.1525 7.812C22.7419 8.05467 22.4152 8.39067 22.1725 8.82C21.9392 9.24933 21.8225 9.74867 21.8225 10.318C21.8225 10.8873 21.9392 11.3913 22.1725 11.83C22.4152 12.2593 22.7419 12.5953 23.1525 12.838C23.5725 13.0713 24.0439 13.188 24.5665 13.188ZM34.8958 14V12.376L34.8538 12.11V9.394C34.8538 8.76867 34.6765 8.288 34.3218 7.952C33.9765 7.616 33.4585 7.448 32.7678 7.448C32.2918 7.448 31.8391 7.52733 31.4098 7.686C30.9805 7.84467 30.6165 8.05467 30.3178 8.316L29.8698 7.574C30.2431 7.25667 30.6911 7.014 31.2138 6.846C31.7365 6.66867 32.2871 6.58 32.8658 6.58C33.8178 6.58 34.5505 6.818 35.0638 7.294C35.5865 7.76067 35.8478 8.47467 35.8478 9.436V14H34.8958ZM32.3618 14.07C31.8111 14.07 31.3305 13.9813 30.9198 13.804C30.5185 13.6173 30.2105 13.3653 29.9958 13.048C29.7811 12.7213 29.6738 12.348 29.6738 11.928C29.6738 11.5453 29.7625 11.2 29.9398 10.892C30.1265 10.5747 30.4251 10.3227 30.8358 10.136C31.2558 9.94 31.8158 9.842 32.5158 9.842H35.0498V10.584H32.5438C31.8345 10.584 31.3398 10.71 31.0598 10.962C30.7891 11.214 30.6538 11.5267 30.6538 11.9C30.6538 12.32 30.8171 12.656 31.1438 12.908C31.4705 13.16 31.9278 13.286 32.5158 13.286C33.0758 13.286 33.5565 13.16 33.9578 12.908C34.3685 12.6467 34.6671 12.2733 34.8538 11.788L35.0778 12.474C34.8911 12.9593 34.5645 13.3467 34.0978 13.636C33.6405 13.9253 33.0618 14.07 32.3618 14.07ZM41.5996 14.07C40.8716 14.07 40.2183 13.9113 39.6396 13.594C39.0703 13.2673 38.6223 12.824 38.2956 12.264C37.9689 11.6947 37.8056 11.046 37.8056 10.318C37.8056 9.58067 37.9689 8.932 38.2956 8.372C38.6223 7.812 39.0703 7.37333 39.6396 7.056C40.2183 6.73867 40.8716 6.58 41.5996 6.58C42.2249 6.58 42.7896 6.70133 43.2936 6.944C43.7976 7.18667 44.1943 7.55067 44.4836 8.036L43.7416 8.54C43.4896 8.16667 43.1769 7.89133 42.8036 7.714C42.4303 7.53667 42.0243 7.448 41.5856 7.448C41.0629 7.448 40.5916 7.56933 40.1716 7.812C39.7516 8.04533 39.4203 8.37667 39.1776 8.806C38.9349 9.23533 38.8136 9.73933 38.8136 10.318C38.8136 10.8967 38.9349 11.4007 39.1776 11.83C39.4203 12.2593 39.7516 12.5953 40.1716 12.838C40.5916 13.0713 41.0629 13.188 41.5856 13.188C42.0243 13.188 42.4303 13.0993 42.8036 12.922C43.1769 12.7447 43.4896 12.474 43.7416 12.11L44.4836 12.614C44.1943 13.09 43.7976 13.454 43.2936 13.706C42.7896 13.9487 42.2249 14.07 41.5996 14.07ZM46.3269 14V6.65H47.3209V14H46.3269ZM46.8309 5.026C46.6256 5.026 46.4529 4.956 46.3129 4.816C46.1729 4.676 46.1029 4.508 46.1029 4.312C46.1029 4.116 46.1729 3.95267 46.3129 3.822C46.4529 3.682 46.6256 3.612 46.8309 3.612C47.0362 3.612 47.2089 3.67733 47.3489 3.808C47.4889 3.93867 47.5589 4.102 47.5589 4.298C47.5589 4.50333 47.4889 4.676 47.3489 4.816C47.2182 4.956 47.0456 5.026 46.8309 5.026ZM53.0827 14.07C52.3733 14.07 51.734 13.9113 51.1647 13.594C50.6047 13.2673 50.1613 12.824 49.8347 12.264C49.508 11.6947 49.3447 11.046 49.3447 10.318C49.3447 9.58067 49.508 8.932 49.8347 8.372C50.1613 7.812 50.6047 7.37333 51.1647 7.056C51.7247 6.73867 52.364 6.58 53.0827 6.58C53.8107 6.58 54.4547 6.73867 55.0147 7.056C55.584 7.37333 56.0273 7.812 56.3447 8.372C56.6713 8.932 56.8347 9.58067 56.8347 10.318C56.8347 11.046 56.6713 11.6947 56.3447 12.264C56.0273 12.824 55.584 13.2673 55.0147 13.594C54.4453 13.9113 53.8013 14.07 53.0827 14.07ZM53.0827 13.188C53.6147 13.188 54.086 13.0713 54.4967 12.838C54.9073 12.5953 55.2293 12.2593 55.4627 11.83C55.7053 11.3913 55.8267 10.8873 55.8267 10.318C55.8267 9.73933 55.7053 9.23533 55.4627 8.806C55.2293 8.37667 54.9073 8.04533 54.4967 7.812C54.086 7.56933 53.6193 7.448 53.0967 7.448C52.574 7.448 52.1073 7.56933 51.6967 7.812C51.286 8.04533 50.9593 8.37667 50.7167 8.806C50.474 9.23533 50.3527 9.73933 50.3527 10.318C50.3527 10.8873 50.474 11.3913 50.7167 11.83C50.9593 12.2593 51.286 12.5953 51.6967 12.838C52.1073 13.0713 52.5693 13.188 53.0827 13.188ZM61.902 14.07C61.2767 14.07 60.7307 13.9533 60.264 13.72C59.7973 13.4867 59.4333 13.1367 59.172 12.67C58.92 12.2033 58.794 11.62 58.794 10.92V6.65H59.788V10.808C59.788 11.592 59.9793 12.1847 60.362 12.586C60.754 12.978 61.3 13.174 62 13.174C62.5133 13.174 62.9567 13.0713 63.33 12.866C63.7127 12.6513 64.002 12.3433 64.198 11.942C64.4033 11.5407 64.506 11.06 64.506 10.5V6.65H65.5V14H64.548V11.984L64.702 12.348C64.4687 12.8893 64.1047 13.314 63.61 13.622C63.1247 13.9207 62.5553 14.07 61.902 14.07ZM70.2443 14.07C69.6376 14.07 69.0636 13.986 68.5223 13.818C67.9809 13.6407 67.5563 13.4213 67.2483 13.16L67.6963 12.376C67.9949 12.6 68.3776 12.796 68.8443 12.964C69.3109 13.1227 69.8009 13.202 70.3143 13.202C71.0143 13.202 71.5183 13.0947 71.8263 12.88C72.1343 12.656 72.2883 12.362 72.2883 11.998C72.2883 11.7273 72.1996 11.5173 72.0223 11.368C71.8543 11.2093 71.6303 11.0927 71.3503 11.018C71.0703 10.934 70.7576 10.864 70.4123 10.808C70.0669 10.752 69.7216 10.6867 69.3763 10.612C69.0403 10.5373 68.7323 10.43 68.4523 10.29C68.1723 10.1407 67.9436 9.94 67.7663 9.688C67.5983 9.436 67.5143 9.1 67.5143 8.68C67.5143 8.27867 67.6263 7.91933 67.8503 7.602C68.0743 7.28467 68.4009 7.03733 68.8303 6.86C69.2689 6.67333 69.8009 6.58 70.4263 6.58C70.9023 6.58 71.3783 6.64533 71.8543 6.776C72.3303 6.89733 72.7223 7.06067 73.0303 7.266L72.5963 8.064C72.2696 7.84 71.9196 7.68133 71.5463 7.588C71.1729 7.48533 70.7996 7.434 70.4263 7.434C69.7636 7.434 69.2736 7.55067 68.9563 7.784C68.6483 8.008 68.4943 8.29733 68.4943 8.652C68.4943 8.932 68.5783 9.15133 68.7463 9.31C68.9236 9.46867 69.1523 9.59467 69.4323 9.688C69.7216 9.772 70.0343 9.842 70.3703 9.898C70.7156 9.954 71.0563 10.024 71.3923 10.108C71.7376 10.1827 72.0503 10.29 72.3303 10.43C72.6196 10.5607 72.8483 10.752 73.0163 11.004C73.1936 11.2467 73.2823 11.5687 73.2823 11.97C73.2823 12.3993 73.1609 12.7727 72.9183 13.09C72.6849 13.398 72.3396 13.6407 71.8823 13.818C71.4343 13.986 70.8883 14.07 70.2443 14.07ZM82.5643 14.07C81.9296 14.07 81.3556 13.9253 80.8423 13.636C80.3289 13.3373 79.9183 12.9127 79.6103 12.362C79.3116 11.802 79.1623 11.1207 79.1623 10.318C79.1623 9.51533 79.3116 8.83867 79.6103 8.288C79.9089 7.728 80.3149 7.30333 80.8283 7.014C81.3416 6.72467 81.9203 6.58 82.5643 6.58C83.2643 6.58 83.8896 6.73867 84.4403 7.056C85.0003 7.364 85.4389 7.80267 85.7563 8.372C86.0736 8.932 86.2323 9.58067 86.2323 10.318C86.2323 11.0647 86.0736 11.718 85.7563 12.278C85.4389 12.838 85.0003 13.2767 84.4403 13.594C83.8896 13.9113 83.2643 14.07 82.5643 14.07ZM78.7703 16.716V6.65H79.7223V8.862L79.6243 10.332L79.7643 11.816V16.716H78.7703ZM82.4943 13.188C83.0169 13.188 83.4836 13.0713 83.8943 12.838C84.3049 12.5953 84.6316 12.2593 84.8743 11.83C85.1169 11.3913 85.2383 10.8873 85.2383 10.318C85.2383 9.74867 85.1169 9.24933 84.8743 8.82C84.6316 8.39067 84.3049 8.05467 83.8943 7.812C83.4836 7.56933 83.0169 7.448 82.4943 7.448C81.9716 7.448 81.5003 7.56933 81.0803 7.812C80.6696 8.05467 80.3429 8.39067 80.1003 8.82C79.8669 9.24933 79.7503 9.74867 79.7503 10.318C79.7503 10.8873 79.8669 11.3913 80.1003 11.83C80.3429 12.2593 80.6696 12.5953 81.0803 12.838C81.5003 13.0713 81.9716 13.188 82.4943 13.188ZM88.2585 14V6.65H89.2105V8.652L89.1125 8.302C89.3179 7.742 89.6632 7.31733 90.1485 7.028C90.6339 6.72933 91.2359 6.58 91.9545 6.58V7.546C91.9172 7.546 91.8799 7.546 91.8425 7.546C91.8052 7.53667 91.7679 7.532 91.7305 7.532C90.9559 7.532 90.3492 7.77 89.9105 8.246C89.4719 8.71267 89.2525 9.38 89.2525 10.248V14H88.2585ZM96.8219 14.07C96.0566 14.07 95.3846 13.9113 94.8059 13.594C94.2273 13.2673 93.7746 12.824 93.4479 12.264C93.1213 11.6947 92.9579 11.046 92.9579 10.318C92.9579 9.59 93.1119 8.946 93.4199 8.386C93.7373 7.826 94.1666 7.38733 94.7079 7.07C95.2586 6.74333 95.8746 6.58 96.5559 6.58C97.2466 6.58 97.8579 6.73867 98.3899 7.056C98.9313 7.364 99.3559 7.80267 99.664 8.372C99.972 8.932 100.126 9.58067 100.126 10.318C100.126 10.3647 100.121 10.416 100.112 10.472C100.112 10.5187 100.112 10.57 100.112 10.626H93.7139V9.884H99.58L99.1879 10.178C99.1879 9.646 99.0713 9.17467 98.8379 8.764C98.6139 8.344 98.3059 8.01733 97.9139 7.784C97.5219 7.55067 97.0693 7.434 96.5559 7.434C96.0519 7.434 95.5993 7.55067 95.1979 7.784C94.7966 8.01733 94.4839 8.344 94.2599 8.764C94.0359 9.184 93.9239 9.66467 93.9239 10.206V10.36C93.9239 10.92 94.0453 11.4147 94.2879 11.844C94.5399 12.264 94.8853 12.5953 95.3239 12.838C95.7719 13.0713 96.2806 13.188 96.8499 13.188C97.2979 13.188 97.7133 13.1087 98.0959 12.95C98.4879 12.7913 98.8239 12.5487 99.1039 12.222L99.664 12.866C99.3373 13.258 98.9266 13.5567 98.4319 13.762C97.9466 13.9673 97.4099 14.07 96.8219 14.07ZM111.333 6.58C111.931 6.58 112.449 6.69667 112.887 6.93C113.335 7.154 113.681 7.49933 113.923 7.966C114.175 8.43267 114.301 9.02067 114.301 9.73V14H113.307V9.828C113.307 9.05333 113.121 8.47 112.747 8.078C112.383 7.67667 111.865 7.476 111.193 7.476C110.689 7.476 110.251 7.58333 109.877 7.798C109.513 8.00333 109.229 8.30667 109.023 8.708C108.827 9.1 108.729 9.576 108.729 10.136V14H107.735V9.828C107.735 9.05333 107.549 8.47 107.175 8.078C106.802 7.67667 106.279 7.476 105.607 7.476C105.113 7.476 104.679 7.58333 104.305 7.798C103.932 8.00333 103.643 8.30667 103.437 8.708C103.241 9.1 103.143 9.576 103.143 10.136V14H102.149V6.65H103.101V8.638L102.947 8.288C103.171 7.756 103.531 7.34067 104.025 7.042C104.529 6.734 105.122 6.58 105.803 6.58C106.522 6.58 107.133 6.762 107.637 7.126C108.141 7.48067 108.468 8.01733 108.617 8.736L108.225 8.582C108.44 7.98467 108.818 7.504 109.359 7.14C109.91 6.76667 110.568 6.58 111.333 6.58ZM116.997 14V6.65H117.991V14H116.997ZM117.501 5.026C117.295 5.026 117.123 4.956 116.983 4.816C116.843 4.676 116.773 4.508 116.773 4.312C116.773 4.116 116.843 3.95267 116.983 3.822C117.123 3.682 117.295 3.612 117.501 3.612C117.706 3.612 117.879 3.67733 118.019 3.808C118.159 3.93867 118.229 4.102 118.229 4.298C118.229 4.50333 118.159 4.676 118.019 4.816C117.888 4.956 117.715 5.026 117.501 5.026ZM123.795 14.07C123.169 14.07 122.623 13.9533 122.157 13.72C121.69 13.4867 121.326 13.1367 121.065 12.67C120.813 12.2033 120.687 11.62 120.687 10.92V6.65H121.681V10.808C121.681 11.592 121.872 12.1847 122.255 12.586C122.647 12.978 123.193 13.174 123.893 13.174C124.406 13.174 124.849 13.0713 125.223 12.866C125.605 12.6513 125.895 12.3433 126.091 11.942C126.296 11.5407 126.399 11.06 126.399 10.5V6.65H127.393V14H126.441V11.984L126.595 12.348C126.361 12.8893 125.997 13.314 125.503 13.622C125.017 13.9207 124.448 14.07 123.795 14.07ZM139.347 6.58C139.944 6.58 140.462 6.69667 140.901 6.93C141.349 7.154 141.694 7.49933 141.937 7.966C142.189 8.43267 142.315 9.02067 142.315 9.73V14H141.321V9.828C141.321 9.05333 141.134 8.47 140.761 8.078C140.397 7.67667 139.879 7.476 139.207 7.476C138.703 7.476 138.264 7.58333 137.891 7.798C137.527 8.00333 137.242 8.30667 137.037 8.708C136.841 9.1 136.743 9.576 136.743 10.136V14H135.749V9.828C135.749 9.05333 135.562 8.47 135.189 8.078C134.816 7.67667 134.293 7.476 133.621 7.476C133.126 7.476 132.692 7.58333 132.319 7.798C131.946 8.00333 131.656 8.30667 131.451 8.708C131.255 9.1 131.157 9.576 131.157 10.136V14H130.163V6.65H131.115V8.638L130.961 8.288C131.185 7.756 131.544 7.34067 132.039 7.042C132.543 6.734 133.136 6.58 133.817 6.58C134.536 6.58 135.147 6.762 135.651 7.126C136.155 7.48067 136.482 8.01733 136.631 8.736L136.239 8.582C136.454 7.98467 136.832 7.504 137.373 7.14C137.924 6.76667 138.582 6.58 139.347 6.58ZM148.885 14V4.2H149.921V14H148.885ZM153.109 14V4.2H153.963L158.443 11.844H157.995L162.433 4.2H163.287V14H162.293V5.754H162.531L158.443 12.754H157.953L153.837 5.754H154.103V14H153.109ZM166.48 14V4.2H167.516V13.104H173.004V14H166.48ZM180.152 14.07C179.546 14.07 178.972 13.986 178.43 13.818C177.889 13.6407 177.464 13.4213 177.156 13.16L177.604 12.376C177.903 12.6 178.286 12.796 178.752 12.964C179.219 13.1227 179.709 13.202 180.222 13.202C180.922 13.202 181.426 13.0947 181.734 12.88C182.042 12.656 182.196 12.362 182.196 11.998C182.196 11.7273 182.108 11.5173 181.93 11.368C181.762 11.2093 181.538 11.0927 181.258 11.018C180.978 10.934 180.666 10.864 180.32 10.808C179.975 10.752 179.63 10.6867 179.284 10.612C178.948 10.5373 178.64 10.43 178.36 10.29C178.08 10.1407 177.852 9.94 177.674 9.688C177.506 9.436 177.422 9.1 177.422 8.68C177.422 8.27867 177.534 7.91933 177.758 7.602C177.982 7.28467 178.309 7.03733 178.738 6.86C179.177 6.67333 179.709 6.58 180.334 6.58C180.81 6.58 181.286 6.64533 181.762 6.776C182.238 6.89733 182.63 7.06067 182.938 7.266L182.504 8.064C182.178 7.84 181.828 7.68133 181.454 7.588C181.081 7.48533 180.708 7.434 180.334 7.434C179.672 7.434 179.182 7.55067 178.864 7.784C178.556 8.008 178.402 8.29733 178.402 8.652C178.402 8.932 178.486 9.15133 178.654 9.31C178.832 9.46867 179.06 9.59467 179.34 9.688C179.63 9.772 179.942 9.842 180.278 9.898C180.624 9.954 180.964 10.024 181.3 10.108C181.646 10.1827 181.958 10.29 182.238 10.43C182.528 10.5607 182.756 10.752 182.924 11.004C183.102 11.2467 183.19 11.5687 183.19 11.97C183.19 12.3993 183.069 12.7727 182.826 13.09C182.593 13.398 182.248 13.6407 181.79 13.818C181.342 13.986 180.796 14.07 180.152 14.07ZM186.376 14L183.604 6.65H184.556L187.076 13.468H186.642L189.232 6.65H190.086L192.648 13.468H192.214L194.776 6.65H195.686L192.9 14H191.962L189.498 7.588H189.792L187.314 14H186.376ZM200.099 14.07C199.334 14.07 198.662 13.9113 198.083 13.594C197.505 13.2673 197.052 12.824 196.725 12.264C196.399 11.6947 196.235 11.046 196.235 10.318C196.235 9.59 196.389 8.946 196.697 8.386C197.015 7.826 197.444 7.38733 197.985 7.07C198.536 6.74333 199.152 6.58 199.833 6.58C200.524 6.58 201.135 6.73867 201.667 7.056C202.209 7.364 202.633 7.80267 202.941 8.372C203.249 8.932 203.403 9.58067 203.403 10.318C203.403 10.3647 203.399 10.416 203.389 10.472C203.389 10.5187 203.389 10.57 203.389 10.626H196.991V9.884H202.857L202.465 10.178C202.465 9.646 202.349 9.17467 202.115 8.764C201.891 8.344 201.583 8.01733 201.191 7.784C200.799 7.55067 200.347 7.434 199.833 7.434C199.329 7.434 198.877 7.55067 198.475 7.784C198.074 8.01733 197.761 8.344 197.537 8.764C197.313 9.184 197.201 9.66467 197.201 10.206V10.36C197.201 10.92 197.323 11.4147 197.565 11.844C197.817 12.264 198.163 12.5953 198.601 12.838C199.049 13.0713 199.558 13.188 200.127 13.188C200.575 13.188 200.991 13.1087 201.373 12.95C201.765 12.7913 202.101 12.5487 202.381 12.222L202.941 12.866C202.615 13.258 202.204 13.5567 201.709 13.762C201.224 13.9673 200.687 14.07 200.099 14.07ZM208.549 14.07C207.783 14.07 207.111 13.9113 206.533 13.594C205.954 13.2673 205.501 12.824 205.175 12.264C204.848 11.6947 204.685 11.046 204.685 10.318C204.685 9.59 204.839 8.946 205.147 8.386C205.464 7.826 205.893 7.38733 206.435 7.07C206.985 6.74333 207.601 6.58 208.283 6.58C208.973 6.58 209.585 6.73867 210.117 7.056C210.658 7.364 211.083 7.80267 211.391 8.372C211.699 8.932 211.853 9.58067 211.853 10.318C211.853 10.3647 211.848 10.416 211.839 10.472C211.839 10.5187 211.839 10.57 211.839 10.626H205.441V9.884H211.307L210.915 10.178C210.915 9.646 210.798 9.17467 210.565 8.764C210.341 8.344 210.033 8.01733 209.641 7.784C209.249 7.55067 208.796 7.434 208.283 7.434C207.779 7.434 207.326 7.55067 206.925 7.784C206.523 8.01733 206.211 8.344 205.987 8.764C205.763 9.184 205.651 9.66467 205.651 10.206V10.36C205.651 10.92 205.772 11.4147 206.015 11.844C206.267 12.264 206.612 12.5953 207.051 12.838C207.499 13.0713 208.007 13.188 208.577 13.188C209.025 13.188 209.44 13.1087 209.823 12.95C210.215 12.7913 210.551 12.5487 210.831 12.222L211.391 12.866C211.064 13.258 210.653 13.5567 210.159 13.762C209.673 13.9673 209.137 14.07 208.549 14.07ZM216.2 14.07C215.509 14.07 214.977 13.8833 214.604 13.51C214.23 13.1367 214.044 12.6093 214.044 11.928V5.026H215.038V11.872C215.038 12.3013 215.145 12.6327 215.36 12.866C215.584 13.0993 215.901 13.216 216.312 13.216C216.75 13.216 217.114 13.09 217.404 12.838L217.754 13.552C217.558 13.7293 217.32 13.86 217.04 13.944C216.769 14.028 216.489 14.07 216.2 14.07ZM212.728 7.476V6.65H217.278V7.476H212.728ZM227.021 14.07C226.377 14.07 225.799 13.9253 225.285 13.636C224.772 13.3373 224.366 12.908 224.067 12.348C223.769 11.788 223.619 11.1113 223.619 10.318C223.619 9.51533 223.769 8.83867 224.067 8.288C224.375 7.728 224.786 7.30333 225.299 7.014C225.813 6.72467 226.387 6.58 227.021 6.58C227.721 6.58 228.347 6.73867 228.897 7.056C229.457 7.364 229.896 7.798 230.213 8.358C230.531 8.918 230.689 9.57133 230.689 10.318C230.689 11.0553 230.531 11.7087 230.213 12.278C229.896 12.838 229.457 13.2767 228.897 13.594C228.347 13.9113 227.721 14.07 227.021 14.07ZM223.227 14V3.612H224.221V8.82L224.081 10.304L224.179 11.788V14H223.227ZM226.951 13.188C227.474 13.188 227.941 13.0713 228.351 12.838C228.762 12.5953 229.089 12.2593 229.331 11.83C229.574 11.3913 229.695 10.8873 229.695 10.318C229.695 9.73933 229.574 9.23533 229.331 8.806C229.089 8.37667 228.762 8.04533 228.351 7.812C227.941 7.56933 227.474 7.448 226.951 7.448C226.429 7.448 225.957 7.56933 225.537 7.812C225.127 8.04533 224.8 8.37667 224.557 8.806C224.324 9.23533 224.207 9.73933 224.207 10.318C224.207 10.8873 224.324 11.3913 224.557 11.83C224.8 12.2593 225.127 12.5953 225.537 12.838C225.957 13.0713 226.429 13.188 226.951 13.188ZM235.712 14.07C235.002 14.07 234.363 13.9113 233.794 13.594C233.234 13.2673 232.79 12.824 232.464 12.264C232.137 11.6947 231.974 11.046 231.974 10.318C231.974 9.58067 232.137 8.932 232.464 8.372C232.79 7.812 233.234 7.37333 233.794 7.056C234.354 6.73867 234.993 6.58 235.712 6.58C236.44 6.58 237.084 6.73867 237.644 7.056C238.213 7.37333 238.656 7.812 238.974 8.372C239.3 8.932 239.464 9.58067 239.464 10.318C239.464 11.046 239.3 11.6947 238.974 12.264C238.656 12.824 238.213 13.2673 237.644 13.594C237.074 13.9113 236.43 14.07 235.712 14.07ZM235.712 13.188C236.244 13.188 236.715 13.0713 237.126 12.838C237.536 12.5953 237.858 12.2593 238.092 11.83C238.334 11.3913 238.456 10.8873 238.456 10.318C238.456 9.73933 238.334 9.23533 238.092 8.806C237.858 8.37667 237.536 8.04533 237.126 7.812C236.715 7.56933 236.248 7.448 235.726 7.448C235.203 7.448 234.736 7.56933 234.326 7.812C233.915 8.04533 233.588 8.37667 233.346 8.806C233.103 9.23533 232.982 9.73933 232.982 10.318C232.982 10.8873 233.103 11.3913 233.346 11.83C233.588 12.2593 233.915 12.5953 234.326 12.838C234.736 13.0713 235.198 13.188 235.712 13.188ZM240.113 14L243.221 9.968L243.207 10.458L240.253 6.65H241.373L243.795 9.8L243.375 9.786L245.797 6.65H246.889L243.907 10.5L243.921 9.968L247.057 14H245.923L243.361 10.64L243.753 10.696L241.233 14H240.113ZM252.376 14V6.65H253.37V14H252.376ZM252.88 5.026C252.674 5.026 252.502 4.956 252.362 4.816C252.222 4.676 252.152 4.508 252.152 4.312C252.152 4.116 252.222 3.95267 252.362 3.822C252.502 3.682 252.674 3.612 252.88 3.612C253.085 3.612 253.258 3.67733 253.398 3.808C253.538 3.93867 253.608 4.102 253.608 4.298C253.608 4.50333 253.538 4.676 253.398 4.816C253.267 4.956 253.094 5.026 252.88 5.026ZM259.061 14.07C258.361 14.07 257.731 13.9113 257.171 13.594C256.621 13.2767 256.187 12.838 255.869 12.278C255.552 11.7087 255.393 11.0553 255.393 10.318C255.393 9.57133 255.552 8.918 255.869 8.358C256.187 7.798 256.621 7.364 257.171 7.056C257.731 6.73867 258.361 6.58 259.061 6.58C259.705 6.58 260.279 6.72467 260.783 7.014C261.297 7.30333 261.703 7.728 262.001 8.288C262.309 8.83867 262.463 9.51533 262.463 10.318C262.463 11.1113 262.314 11.788 262.015 12.348C261.717 12.908 261.311 13.3373 260.797 13.636C260.293 13.9253 259.715 14.07 259.061 14.07ZM259.131 13.188C259.654 13.188 260.121 13.0713 260.531 12.838C260.951 12.5953 261.278 12.2593 261.511 11.83C261.754 11.3913 261.875 10.8873 261.875 10.318C261.875 9.73933 261.754 9.23533 261.511 8.806C261.278 8.37667 260.951 8.04533 260.531 7.812C260.121 7.56933 259.654 7.448 259.131 7.448C258.618 7.448 258.156 7.56933 257.745 7.812C257.335 8.04533 257.008 8.37667 256.765 8.806C256.523 9.23533 256.401 9.73933 256.401 10.318C256.401 10.8873 256.523 11.3913 256.765 11.83C257.008 12.2593 257.335 12.5953 257.745 12.838C258.156 13.0713 258.618 13.188 259.131 13.188ZM261.903 14V11.788L262.001 10.304L261.861 8.82V3.612H262.855V14H261.903ZM268.746 14.07C267.98 14.07 267.308 13.9113 266.73 13.594C266.151 13.2673 265.698 12.824 265.372 12.264C265.045 11.6947 264.882 11.046 264.882 10.318C264.882 9.59 265.036 8.946 265.344 8.386C265.661 7.826 266.09 7.38733 266.632 7.07C267.182 6.74333 267.798 6.58 268.48 6.58C269.17 6.58 269.782 6.73867 270.314 7.056C270.855 7.364 271.28 7.80267 271.588 8.372C271.896 8.932 272.05 9.58067 272.05 10.318C272.05 10.3647 272.045 10.416 272.036 10.472C272.036 10.5187 272.036 10.57 272.036 10.626H265.638V9.884H271.504L271.112 10.178C271.112 9.646 270.995 9.17467 270.762 8.764C270.538 8.344 270.23 8.01733 269.838 7.784C269.446 7.55067 268.993 7.434 268.48 7.434C267.976 7.434 267.523 7.55067 267.122 7.784C266.72 8.01733 266.408 8.344 266.184 8.764C265.96 9.184 265.848 9.66467 265.848 10.206V10.36C265.848 10.92 265.969 11.4147 266.212 11.844C266.464 12.264 266.809 12.5953 267.248 12.838C267.696 13.0713 268.204 13.188 268.774 13.188C269.222 13.188 269.637 13.1087 270.02 12.95C270.412 12.7913 270.748 12.5487 271.028 12.222L271.588 12.866C271.261 13.258 270.85 13.5567 270.356 13.762C269.87 13.9673 269.334 14.07 268.746 14.07ZM278.474 14V12.376L278.432 12.11V9.394C278.432 8.76867 278.255 8.288 277.9 7.952C277.555 7.616 277.037 7.448 276.346 7.448C275.87 7.448 275.417 7.52733 274.988 7.686C274.559 7.84467 274.195 8.05467 273.896 8.316L273.448 7.574C273.821 7.25667 274.269 7.014 274.792 6.846C275.315 6.66867 275.865 6.58 276.444 6.58C277.396 6.58 278.129 6.818 278.642 7.294C279.165 7.76067 279.426 8.47467 279.426 9.436V14H278.474ZM275.94 14.07C275.389 14.07 274.909 13.9813 274.498 13.804C274.097 13.6173 273.789 13.3653 273.574 13.048C273.359 12.7213 273.252 12.348 273.252 11.928C273.252 11.5453 273.341 11.2 273.518 10.892C273.705 10.5747 274.003 10.3227 274.414 10.136C274.834 9.94 275.394 9.842 276.094 9.842H278.628V10.584H276.122C275.413 10.584 274.918 10.71 274.638 10.962C274.367 11.214 274.232 11.5267 274.232 11.9C274.232 12.32 274.395 12.656 274.722 12.908C275.049 13.16 275.506 13.286 276.094 13.286C276.654 13.286 277.135 13.16 277.536 12.908C277.947 12.6467 278.245 12.2733 278.432 11.788L278.656 12.474C278.469 12.9593 278.143 13.3467 277.676 13.636C277.219 13.9253 276.64 14.07 275.94 14.07ZM282.126 14V3.612H283.12V14H282.126ZM289.718 14V5.726C289.718 5.07267 289.909 4.54533 290.292 4.144C290.674 3.74267 291.225 3.542 291.944 3.542C292.224 3.542 292.494 3.57933 292.756 3.654C293.017 3.72867 293.236 3.84533 293.414 4.004L293.078 4.746C292.938 4.62467 292.774 4.536 292.588 4.48C292.401 4.41467 292.2 4.382 291.986 4.382C291.566 4.382 291.244 4.49867 291.02 4.732C290.796 4.96533 290.684 5.31067 290.684 5.768V6.888L290.712 7.35V14H289.718ZM288.402 7.476V6.65H292.952V7.476H288.402ZM297.167 14.07C296.457 14.07 295.818 13.9113 295.249 13.594C294.689 13.2673 294.245 12.824 293.919 12.264C293.592 11.6947 293.429 11.046 293.429 10.318C293.429 9.58067 293.592 8.932 293.919 8.372C294.245 7.812 294.689 7.37333 295.249 7.056C295.809 6.73867 296.448 6.58 297.167 6.58C297.895 6.58 298.539 6.73867 299.099 7.056C299.668 7.37333 300.111 7.812 300.429 8.372C300.755 8.932 300.919 9.58067 300.919 10.318C300.919 11.046 300.755 11.6947 300.429 12.264C300.111 12.824 299.668 13.2673 299.099 13.594C298.529 13.9113 297.885 14.07 297.167 14.07ZM297.167 13.188C297.699 13.188 298.17 13.0713 298.581 12.838C298.991 12.5953 299.313 12.2593 299.547 11.83C299.789 11.3913 299.911 10.8873 299.911 10.318C299.911 9.73933 299.789 9.23533 299.547 8.806C299.313 8.37667 298.991 8.04533 298.581 7.812C298.17 7.56933 297.703 7.448 297.181 7.448C296.658 7.448 296.191 7.56933 295.781 7.812C295.37 8.04533 295.043 8.37667 294.801 8.806C294.558 9.23533 294.437 9.73933 294.437 10.318C294.437 10.8873 294.558 11.3913 294.801 11.83C295.043 12.2593 295.37 12.5953 295.781 12.838C296.191 13.0713 296.653 13.188 297.167 13.188ZM302.948 14V6.65H303.9V8.652L303.802 8.302C304.007 7.742 304.353 7.31733 304.838 7.028C305.323 6.72933 305.925 6.58 306.644 6.58V7.546C306.607 7.546 306.569 7.546 306.532 7.546C306.495 7.53667 306.457 7.532 306.42 7.532C305.645 7.532 305.039 7.77 304.6 8.246C304.161 8.71267 303.942 9.38 303.942 10.248V14H302.948ZM58.1811 33.084C57.5651 33.084 57.0005 32.944 56.4871 32.664C55.9831 32.3747 55.5771 31.95 55.2691 31.39C54.9705 30.83 54.8211 30.13 54.8211 29.29C54.8211 28.45 54.9658 27.75 55.2551 27.19C55.5538 26.63 55.9551 26.21 56.4591 25.93C56.9725 25.65 57.5465 25.51 58.1811 25.51C58.9091 25.51 59.5531 25.6687 60.1131 25.986C60.6731 26.3033 61.1165 26.7467 61.4431 27.316C61.7698 27.876 61.9331 28.534 61.9331 29.29C61.9331 30.046 61.7698 30.7087 61.4431 31.278C61.1165 31.8473 60.6731 32.2907 60.1131 32.608C59.5531 32.9253 58.9091 33.084 58.1811 33.084ZM54.2471 35.716V25.58H55.5351V27.582L55.4511 29.304L55.5911 31.026V35.716H54.2471ZM58.0691 31.908C58.5451 31.908 58.9698 31.8007 59.3431 31.586C59.7258 31.3713 60.0245 31.068 60.2391 30.676C60.4631 30.2747 60.5751 29.8127 60.5751 29.29C60.5751 28.758 60.4631 28.3007 60.2391 27.918C60.0245 27.526 59.7258 27.2227 59.3431 27.008C58.9698 26.7933 58.5451 26.686 58.0691 26.686C57.6025 26.686 57.1778 26.7933 56.7951 27.008C56.4218 27.2227 56.1231 27.526 55.8991 27.918C55.6845 28.3007 55.5771 28.758 55.5771 29.29C55.5771 29.8127 55.6845 30.2747 55.8991 30.676C56.1231 31.068 56.4218 31.3713 56.7951 31.586C57.1778 31.8007 57.6025 31.908 58.0691 31.908ZM68.3277 33V31.432L68.2577 31.138V28.464C68.2577 27.8947 68.0897 27.456 67.7537 27.148C67.4271 26.8307 66.9324 26.672 66.2697 26.672C65.8311 26.672 65.4017 26.7467 64.9817 26.896C64.5617 27.036 64.2071 27.2273 63.9177 27.47L63.3577 26.462C63.7404 26.154 64.1977 25.9207 64.7297 25.762C65.2711 25.594 65.8357 25.51 66.4237 25.51C67.4411 25.51 68.2251 25.7573 68.7757 26.252C69.3264 26.7467 69.6017 27.5027 69.6017 28.52V33H68.3277ZM65.8917 33.084C65.3411 33.084 64.8557 32.9907 64.4357 32.804C64.0251 32.6173 63.7077 32.3607 63.4837 32.034C63.2597 31.698 63.1477 31.32 63.1477 30.9C63.1477 30.4987 63.2411 30.1347 63.4277 29.808C63.6237 29.4813 63.9364 29.22 64.3657 29.024C64.8044 28.828 65.3924 28.73 66.1297 28.73H68.4817V29.696H66.1857C65.5137 29.696 65.0611 29.808 64.8277 30.032C64.5944 30.256 64.4777 30.5267 64.4777 30.844C64.4777 31.208 64.6224 31.502 64.9117 31.726C65.2011 31.9407 65.6024 32.048 66.1157 32.048C66.6197 32.048 67.0584 31.936 67.4317 31.712C67.8144 31.488 68.0897 31.1613 68.2577 30.732L68.5237 31.656C68.3464 32.0947 68.0337 32.4447 67.5857 32.706C67.1377 32.958 66.5731 33.084 65.8917 33.084ZM75.3229 33.084C74.5669 33.084 73.8903 32.9207 73.2929 32.594C72.7049 32.2673 72.2429 31.8193 71.9069 31.25C71.5709 30.6807 71.4029 30.0273 71.4029 29.29C71.4029 28.5527 71.5709 27.8993 71.9069 27.33C72.2429 26.7607 72.7049 26.3173 73.2929 26C73.8903 25.6733 74.5669 25.51 75.3229 25.51C75.9949 25.51 76.5923 25.6453 77.1149 25.916C77.6469 26.1773 78.0576 26.5693 78.3469 27.092L77.3249 27.75C77.0823 27.386 76.7836 27.12 76.4289 26.952C76.0836 26.7747 75.7103 26.686 75.3089 26.686C74.8236 26.686 74.3896 26.7933 74.0069 27.008C73.6243 27.2227 73.3209 27.526 73.0969 27.918C72.8729 28.3007 72.7609 28.758 72.7609 29.29C72.7609 29.822 72.8729 30.284 73.0969 30.676C73.3209 31.068 73.6243 31.3713 74.0069 31.586C74.3896 31.8007 74.8236 31.908 75.3089 31.908C75.7103 31.908 76.0836 31.824 76.4289 31.656C76.7836 31.4787 77.0823 31.208 77.3249 30.844L78.3469 31.488C78.0576 32.0013 77.6469 32.398 77.1149 32.678C76.5923 32.9487 75.9949 33.084 75.3229 33.084ZM81.0833 31.208L81.1113 29.486L85.3813 25.58H87.0053L83.7293 28.8L83.0013 29.416L81.0833 31.208ZM79.9913 33V22.612H81.3353V33H79.9913ZM85.6613 33L82.7493 29.388L83.6173 28.31L87.3133 33H85.6613ZM90.5138 33.084C89.8978 33.084 89.3098 33 88.7498 32.832C88.1991 32.664 87.7651 32.4587 87.4478 32.216L88.0078 31.152C88.3251 31.3667 88.7171 31.5487 89.1838 31.698C89.6505 31.8473 90.1265 31.922 90.6118 31.922C91.2371 31.922 91.6851 31.8333 91.9558 31.656C92.2358 31.4787 92.3758 31.2313 92.3758 30.914C92.3758 30.6807 92.2918 30.4987 92.1238 30.368C91.9558 30.2373 91.7318 30.1393 91.4518 30.074C91.1811 30.0087 90.8778 29.9527 90.5418 29.906C90.2058 29.85 89.8698 29.7847 89.5338 29.71C89.1978 29.626 88.8898 29.514 88.6098 29.374C88.3298 29.2247 88.1058 29.024 87.9378 28.772C87.7698 28.5107 87.6858 28.1653 87.6858 27.736C87.6858 27.288 87.8118 26.896 88.0638 26.56C88.3158 26.224 88.6705 25.9673 89.1278 25.79C89.5945 25.6033 90.1451 25.51 90.7798 25.51C91.2651 25.51 91.7551 25.5707 92.2498 25.692C92.7538 25.804 93.1645 25.9673 93.4818 26.182L92.9078 27.246C92.5718 27.022 92.2218 26.868 91.8578 26.784C91.4938 26.7 91.1298 26.658 90.7658 26.658C90.1778 26.658 89.7391 26.756 89.4498 26.952C89.1605 27.1387 89.0158 27.3813 89.0158 27.68C89.0158 27.932 89.0998 28.128 89.2678 28.268C89.4451 28.3987 89.6691 28.5013 89.9398 28.576C90.2198 28.6507 90.5278 28.716 90.8638 28.772C91.1998 28.8187 91.5358 28.884 91.8718 28.968C92.2078 29.0427 92.5111 29.15 92.7818 29.29C93.0618 29.43 93.2858 29.626 93.4538 29.878C93.6311 30.13 93.7198 30.466 93.7198 30.886C93.7198 31.334 93.5891 31.7213 93.3278 32.048C93.0665 32.3747 92.6978 32.6313 92.2218 32.818C91.7458 32.9953 91.1765 33.084 90.5138 33.084ZM103.765 33V31.432L103.695 31.138V28.464C103.695 27.8947 103.527 27.456 103.191 27.148C102.865 26.8307 102.37 26.672 101.707 26.672C101.269 26.672 100.839 26.7467 100.419 26.896C99.9992 27.036 99.6446 27.2273 99.3552 27.47L98.7952 26.462C99.1779 26.154 99.6352 25.9207 100.167 25.762C100.709 25.594 101.273 25.51 101.861 25.51C102.879 25.51 103.663 25.7573 104.213 26.252C104.764 26.7467 105.039 27.5027 105.039 28.52V33H103.765ZM101.329 33.084C100.779 33.084 100.293 32.9907 99.8732 32.804C99.4626 32.6173 99.1452 32.3607 98.9212 32.034C98.6972 31.698 98.5852 31.32 98.5852 30.9C98.5852 30.4987 98.6786 30.1347 98.8652 29.808C99.0612 29.4813 99.3739 29.22 99.8032 29.024C100.242 28.828 100.83 28.73 101.567 28.73H103.919V29.696H101.623C100.951 29.696 100.499 29.808 100.265 30.032C100.032 30.256 99.9152 30.5267 99.9152 30.844C99.9152 31.208 100.06 31.502 100.349 31.726C100.639 31.9407 101.04 32.048 101.553 32.048C102.057 32.048 102.496 31.936 102.869 31.712C103.252 31.488 103.527 31.1613 103.695 30.732L103.961 31.656C103.784 32.0947 103.471 32.4447 103.023 32.706C102.575 32.958 102.011 33.084 101.329 33.084ZM111.488 25.51C112.095 25.51 112.627 25.6267 113.084 25.86C113.551 26.0933 113.915 26.448 114.176 26.924C114.438 27.4 114.568 28.002 114.568 28.73V33H113.224V28.884C113.224 28.1653 113.047 27.624 112.692 27.26C112.347 26.896 111.857 26.714 111.222 26.714C110.746 26.714 110.331 26.8073 109.976 26.994C109.622 27.1807 109.346 27.456 109.15 27.82C108.964 28.184 108.87 28.6367 108.87 29.178V33H107.526V25.58H108.814V27.582L108.604 27.05C108.847 26.5647 109.22 26.1867 109.724 25.916C110.228 25.6453 110.816 25.51 111.488 25.51ZM120.122 33.084C119.403 33.084 118.759 32.9253 118.19 32.608C117.63 32.2907 117.186 31.8473 116.86 31.278C116.533 30.7087 116.37 30.046 116.37 29.29C116.37 28.534 116.533 27.876 116.86 27.316C117.186 26.7467 117.63 26.3033 118.19 25.986C118.759 25.6687 119.403 25.51 120.122 25.51C120.747 25.51 121.312 25.65 121.816 25.93C122.32 26.21 122.721 26.63 123.02 27.19C123.328 27.75 123.482 28.45 123.482 29.29C123.482 30.13 123.332 30.83 123.034 31.39C122.744 31.95 122.348 32.3747 121.844 32.664C121.34 32.944 120.766 33.084 120.122 33.084ZM120.234 31.908C120.7 31.908 121.12 31.8007 121.494 31.586C121.876 31.3713 122.175 31.068 122.39 30.676C122.614 30.2747 122.726 29.8127 122.726 29.29C122.726 28.758 122.614 28.3007 122.39 27.918C122.175 27.526 121.876 27.2227 121.494 27.008C121.12 26.7933 120.7 26.686 120.234 26.686C119.758 26.686 119.333 26.7933 118.96 27.008C118.586 27.2227 118.288 27.526 118.064 27.918C117.84 28.3007 117.728 28.758 117.728 29.29C117.728 29.8127 117.84 30.2747 118.064 30.676C118.288 31.068 118.586 31.3713 118.96 31.586C119.333 31.8007 119.758 31.908 120.234 31.908ZM122.768 33V30.998L122.852 29.276L122.712 27.554V22.612H124.056V33H122.768ZM130.554 33V24.922C130.554 24.194 130.764 23.6153 131.184 23.186C131.614 22.7473 132.22 22.528 133.004 22.528C133.294 22.528 133.569 22.5653 133.83 22.64C134.101 22.7053 134.33 22.8127 134.516 22.962L134.11 23.984C133.97 23.872 133.812 23.788 133.634 23.732C133.457 23.6667 133.27 23.634 133.074 23.634C132.682 23.634 132.384 23.746 132.178 23.97C131.973 24.1847 131.87 24.5067 131.87 24.936V25.93L131.898 26.546V33H130.554ZM129.294 26.686V25.58H134.026V26.686H129.294ZM138.489 33.084C137.695 33.084 136.995 32.9207 136.389 32.594C135.791 32.2673 135.325 31.8193 134.989 31.25C134.662 30.6807 134.499 30.0273 134.499 29.29C134.499 28.5527 134.657 27.8993 134.975 27.33C135.301 26.7607 135.745 26.3173 136.305 26C136.874 25.6733 137.513 25.51 138.223 25.51C138.941 25.51 139.576 25.6687 140.127 25.986C140.677 26.3033 141.107 26.7513 141.415 27.33C141.732 27.8993 141.891 28.5667 141.891 29.332C141.891 29.388 141.886 29.4533 141.877 29.528C141.877 29.6027 141.872 29.6727 141.863 29.738H135.549V28.772H141.163L140.617 29.108C140.626 28.632 140.528 28.2073 140.323 27.834C140.117 27.4607 139.833 27.1713 139.469 26.966C139.114 26.7513 138.699 26.644 138.223 26.644C137.756 26.644 137.341 26.7513 136.977 26.966C136.613 27.1713 136.328 27.4653 136.123 27.848C135.917 28.2213 135.815 28.6507 135.815 29.136V29.36C135.815 29.8547 135.927 30.298 136.151 30.69C136.384 31.0727 136.706 31.3713 137.117 31.586C137.527 31.8007 137.999 31.908 138.531 31.908C138.969 31.908 139.366 31.8333 139.721 31.684C140.085 31.5347 140.402 31.3107 140.673 31.012L141.415 31.88C141.079 32.272 140.659 32.5707 140.155 32.776C139.66 32.9813 139.105 33.084 138.489 33.084ZM145.885 33.084C145.269 33.084 144.681 33 144.121 32.832C143.57 32.664 143.136 32.4587 142.819 32.216L143.379 31.152C143.696 31.3667 144.088 31.5487 144.555 31.698C145.022 31.8473 145.498 31.922 145.983 31.922C146.608 31.922 147.056 31.8333 147.327 31.656C147.607 31.4787 147.747 31.2313 147.747 30.914C147.747 30.6807 147.663 30.4987 147.495 30.368C147.327 30.2373 147.103 30.1393 146.823 30.074C146.552 30.0087 146.249 29.9527 145.913 29.906C145.577 29.85 145.241 29.7847 144.905 29.71C144.569 29.626 144.261 29.514 143.981 29.374C143.701 29.2247 143.477 29.024 143.309 28.772C143.141 28.5107 143.057 28.1653 143.057 27.736C143.057 27.288 143.183 26.896 143.435 26.56C143.687 26.224 144.042 25.9673 144.499 25.79C144.966 25.6033 145.516 25.51 146.151 25.51C146.636 25.51 147.126 25.5707 147.621 25.692C148.125 25.804 148.536 25.9673 148.853 26.182L148.279 27.246C147.943 27.022 147.593 26.868 147.229 26.784C146.865 26.7 146.501 26.658 146.137 26.658C145.549 26.658 145.11 26.756 144.821 26.952C144.532 27.1387 144.387 27.3813 144.387 27.68C144.387 27.932 144.471 28.128 144.639 28.268C144.816 28.3987 145.04 28.5013 145.311 28.576C145.591 28.6507 145.899 28.716 146.235 28.772C146.571 28.8187 146.907 28.884 147.243 28.968C147.579 29.0427 147.882 29.15 148.153 29.29C148.433 29.43 148.657 29.626 148.825 29.878C149.002 30.13 149.091 30.466 149.091 30.886C149.091 31.334 148.96 31.7213 148.699 32.048C148.438 32.3747 148.069 32.6313 147.593 32.818C147.117 32.9953 146.548 33.084 145.885 33.084ZM153.319 33.084C152.572 33.084 151.993 32.8833 151.583 32.482C151.172 32.0807 150.967 31.5067 150.967 30.76V23.956H152.311V30.704C152.311 31.1053 152.409 31.4133 152.605 31.628C152.81 31.8427 153.099 31.95 153.473 31.95C153.893 31.95 154.243 31.8333 154.523 31.6L154.943 32.566C154.737 32.7433 154.49 32.874 154.201 32.958C153.921 33.042 153.627 33.084 153.319 33.084ZM149.707 26.686V25.58H154.439V26.686H149.707ZM156.567 33V25.58H157.911V33H156.567ZM157.239 24.152C156.978 24.152 156.759 24.068 156.581 23.9C156.413 23.732 156.329 23.5267 156.329 23.284C156.329 23.032 156.413 22.822 156.581 22.654C156.759 22.486 156.978 22.402 157.239 22.402C157.501 22.402 157.715 22.486 157.883 22.654C158.061 22.8127 158.149 23.0133 158.149 23.256C158.149 23.508 158.065 23.7227 157.897 23.9C157.729 24.068 157.51 24.152 157.239 24.152ZM162.424 33L159.176 25.58H160.576L163.46 32.3H162.788L165.728 25.58H167.044L163.796 33H162.424ZM171.397 33.084C170.603 33.084 169.903 32.9207 169.297 32.594C168.699 32.2673 168.233 31.8193 167.897 31.25C167.57 30.6807 167.407 30.0273 167.407 29.29C167.407 28.5527 167.565 27.8993 167.883 27.33C168.209 26.7607 168.653 26.3173 169.213 26C169.782 25.6733 170.421 25.51 171.131 25.51C171.849 25.51 172.484 25.6687 173.035 25.986C173.585 26.3033 174.015 26.7513 174.323 27.33C174.64 27.8993 174.799 28.5667 174.799 29.332C174.799 29.388 174.794 29.4533 174.785 29.528C174.785 29.6027 174.78 29.6727 174.771 29.738H168.457V28.772H174.071L173.525 29.108C173.534 28.632 173.436 28.2073 173.231 27.834C173.025 27.4607 172.741 27.1713 172.377 26.966C172.022 26.7513 171.607 26.644 171.131 26.644C170.664 26.644 170.249 26.7513 169.885 26.966C169.521 27.1713 169.236 27.4653 169.031 27.848C168.825 28.2213 168.723 28.6507 168.723 29.136V29.36C168.723 29.8547 168.835 30.298 169.059 30.69C169.292 31.0727 169.614 31.3713 170.025 31.586C170.435 31.8007 170.907 31.908 171.439 31.908C171.877 31.908 172.274 31.8333 172.629 31.684C172.993 31.5347 173.31 31.3107 173.581 31.012L174.323 31.88C173.987 32.272 173.567 32.5707 173.063 32.776C172.568 32.9813 172.013 33.084 171.397 33.084ZM184.359 33.084C183.724 33.084 183.15 32.944 182.637 32.664C182.133 32.3747 181.732 31.95 181.433 31.39C181.144 30.83 180.999 30.13 180.999 29.29C180.999 28.45 181.148 27.75 181.447 27.19C181.755 26.63 182.161 26.21 182.665 25.93C183.178 25.65 183.743 25.51 184.359 25.51C185.087 25.51 185.731 25.6687 186.291 25.986C186.851 26.3033 187.294 26.7467 187.621 27.316C187.948 27.876 188.111 28.534 188.111 29.29C188.111 30.046 187.948 30.7087 187.621 31.278C187.294 31.8473 186.851 32.2907 186.291 32.608C185.731 32.9253 185.087 33.084 184.359 33.084ZM180.425 33V22.612H181.769V27.554L181.629 29.276L181.713 30.998V33H180.425ZM184.247 31.908C184.723 31.908 185.148 31.8007 185.521 31.586C185.904 31.3713 186.202 31.068 186.417 30.676C186.641 30.2747 186.753 29.8127 186.753 29.29C186.753 28.758 186.641 28.3007 186.417 27.918C186.202 27.526 185.904 27.2227 185.521 27.008C185.148 26.7933 184.723 26.686 184.247 26.686C183.78 26.686 183.356 26.7933 182.973 27.008C182.6 27.2227 182.301 27.526 182.077 27.918C181.862 28.3007 181.755 28.758 181.755 29.29C181.755 29.8127 181.862 30.2747 182.077 30.676C182.301 31.068 182.6 31.3713 182.973 31.586C183.356 31.8007 183.78 31.908 184.247 31.908ZM193.09 33.084C192.455 33.084 191.895 32.9673 191.41 32.734C190.934 32.5007 190.56 32.146 190.29 31.67C190.028 31.1847 189.898 30.578 189.898 29.85V25.58H191.242V29.696C191.242 30.424 191.414 30.97 191.76 31.334C192.114 31.698 192.609 31.88 193.244 31.88C193.71 31.88 194.116 31.7867 194.462 31.6C194.807 31.404 195.073 31.124 195.26 30.76C195.446 30.3867 195.54 29.9387 195.54 29.416V25.58H196.884V33H195.61V30.998L195.82 31.53C195.577 32.0247 195.213 32.4073 194.728 32.678C194.242 32.9487 193.696 33.084 193.09 33.084ZM199.442 33V22.612H200.786V33H199.442ZM204.445 31.208L204.473 29.486L208.743 25.58H210.367L207.091 28.8L206.363 29.416L204.445 31.208ZM203.353 33V22.612H204.697V33H203.353ZM209.023 33L206.111 29.388L206.979 28.31L210.675 33H209.023ZM218.987 35.8C218.306 35.8 217.643 35.702 216.999 35.506C216.365 35.3193 215.847 35.0487 215.445 34.694L216.089 33.658C216.435 33.9567 216.859 34.19 217.363 34.358C217.867 34.5353 218.395 34.624 218.945 34.624C219.823 34.624 220.467 34.4187 220.877 34.008C221.288 33.5973 221.493 32.972 221.493 32.132V30.564L221.633 29.094L221.563 27.61V25.58H222.837V31.992C222.837 33.2987 222.511 34.26 221.857 34.876C221.204 35.492 220.247 35.8 218.987 35.8ZM218.819 32.692C218.101 32.692 217.457 32.5427 216.887 32.244C216.327 31.936 215.879 31.5113 215.543 30.97C215.217 30.4287 215.053 29.8033 215.053 29.094C215.053 28.3753 215.217 27.75 215.543 27.218C215.879 26.6767 216.327 26.2567 216.887 25.958C217.457 25.6593 218.101 25.51 218.819 25.51C219.454 25.51 220.033 25.6407 220.555 25.902C221.078 26.154 221.493 26.546 221.801 27.078C222.119 27.61 222.277 28.282 222.277 29.094C222.277 29.8967 222.119 30.564 221.801 31.096C221.493 31.628 221.078 32.0293 220.555 32.3C220.033 32.5613 219.454 32.692 218.819 32.692ZM218.973 31.516C219.468 31.516 219.907 31.4133 220.289 31.208C220.672 31.0027 220.971 30.718 221.185 30.354C221.409 29.99 221.521 29.57 221.521 29.094C221.521 28.618 221.409 28.198 221.185 27.834C220.971 27.47 220.672 27.19 220.289 26.994C219.907 26.7887 219.468 26.686 218.973 26.686C218.479 26.686 218.035 26.7887 217.643 26.994C217.261 27.19 216.957 27.47 216.733 27.834C216.519 28.198 216.411 28.618 216.411 29.094C216.411 29.57 216.519 29.99 216.733 30.354C216.957 30.718 217.261 31.0027 217.643 31.208C218.035 31.4133 218.479 31.516 218.973 31.516ZM225.405 33V25.58H226.749V33H225.405ZM226.077 24.152C225.816 24.152 225.597 24.068 225.419 23.9C225.251 23.732 225.167 23.5267 225.167 23.284C225.167 23.032 225.251 22.822 225.419 22.654C225.597 22.486 225.816 22.402 226.077 22.402C226.339 22.402 226.553 22.486 226.721 22.654C226.899 22.8127 226.987 23.0133 226.987 23.256C226.987 23.508 226.903 23.7227 226.735 23.9C226.567 24.068 226.348 24.152 226.077 24.152ZM229.511 33V24.922C229.511 24.194 229.721 23.6153 230.141 23.186C230.571 22.7473 231.177 22.528 231.961 22.528C232.251 22.528 232.526 22.5653 232.787 22.64C233.058 22.7053 233.287 22.8127 233.473 22.962L233.067 23.984C232.927 23.872 232.769 23.788 232.591 23.732C232.414 23.6667 232.227 23.634 232.031 23.634C231.639 23.634 231.341 23.746 231.135 23.97C230.93 24.1847 230.827 24.5067 230.827 24.936V25.93L230.855 26.546V33H229.511ZM228.251 26.686V25.58H232.983V26.686H228.251ZM236.799 33.084C236.052 33.084 235.474 32.8833 235.063 32.482C234.652 32.0807 234.447 31.5067 234.447 30.76V23.956H235.791V30.704C235.791 31.1053 235.889 31.4133 236.085 31.628C236.29 31.8427 236.58 31.95 236.953 31.95C237.373 31.95 237.723 31.8333 238.003 31.6L238.423 32.566C238.218 32.7433 237.97 32.874 237.681 32.958C237.401 33.042 237.107 33.084 236.799 33.084ZM233.187 26.686V25.58H237.919V26.686H233.187ZM240.048 33V25.58H241.392V33H240.048ZM240.72 24.152C240.459 24.152 240.239 24.068 240.062 23.9C239.894 23.732 239.81 23.5267 239.81 23.284C239.81 23.032 239.894 22.822 240.062 22.654C240.239 22.486 240.459 22.402 240.72 22.402C240.981 22.402 241.196 22.486 241.364 22.654C241.541 22.8127 241.63 23.0133 241.63 23.256C241.63 23.508 241.546 23.7227 241.378 23.9C241.21 24.068 240.991 24.152 240.72 24.152ZM247.92 25.51C248.527 25.51 249.059 25.6267 249.516 25.86C249.983 26.0933 250.347 26.448 250.608 26.924C250.869 27.4 251 28.002 251 28.73V33H249.656V28.884C249.656 28.1653 249.479 27.624 249.124 27.26C248.779 26.896 248.289 26.714 247.654 26.714C247.178 26.714 246.763 26.8073 246.408 26.994C246.053 27.1807 245.778 27.456 245.582 27.82C245.395 28.184 245.302 28.6367 245.302 29.178V33H243.958V25.58H245.246V27.582L245.036 27.05C245.279 26.5647 245.652 26.1867 246.156 25.916C246.66 25.6453 247.248 25.51 247.92 25.51ZM256.735 35.8C256.054 35.8 255.391 35.702 254.747 35.506C254.113 35.3193 253.595 35.0487 253.193 34.694L253.837 33.658C254.183 33.9567 254.607 34.19 255.111 34.358C255.615 34.5353 256.143 34.624 256.693 34.624C257.571 34.624 258.215 34.4187 258.625 34.008C259.036 33.5973 259.241 32.972 259.241 32.132V30.564L259.381 29.094L259.311 27.61V25.58H260.585V31.992C260.585 33.2987 260.259 34.26 259.605 34.876C258.952 35.492 257.995 35.8 256.735 35.8ZM256.567 32.692C255.849 32.692 255.205 32.5427 254.635 32.244C254.075 31.936 253.627 31.5113 253.291 30.97C252.965 30.4287 252.801 29.8033 252.801 29.094C252.801 28.3753 252.965 27.75 253.291 27.218C253.627 26.6767 254.075 26.2567 254.635 25.958C255.205 25.6593 255.849 25.51 256.567 25.51C257.202 25.51 257.781 25.6407 258.303 25.902C258.826 26.154 259.241 26.546 259.549 27.078C259.867 27.61 260.025 28.282 260.025 29.094C260.025 29.8967 259.867 30.564 259.549 31.096C259.241 31.628 258.826 32.0293 258.303 32.3C257.781 32.5613 257.202 32.692 256.567 32.692ZM256.721 31.516C257.216 31.516 257.655 31.4133 258.037 31.208C258.42 31.0027 258.719 30.718 258.933 30.354C259.157 29.99 259.269 29.57 259.269 29.094C259.269 28.618 259.157 28.198 258.933 27.834C258.719 27.47 258.42 27.19 258.037 26.994C257.655 26.7887 257.216 26.686 256.721 26.686C256.227 26.686 255.783 26.7887 255.391 26.994C255.009 27.19 254.705 27.47 254.481 27.834C254.267 28.198 254.159 28.618 254.159 29.094C254.159 29.57 254.267 29.99 254.481 30.354C254.705 30.718 255.009 31.0027 255.391 31.208C255.783 31.4133 256.227 31.516 256.721 31.516ZM263.475 33.084C263.214 33.084 262.99 32.9953 262.803 32.818C262.617 32.6313 262.523 32.398 262.523 32.118C262.523 31.838 262.617 31.6093 262.803 31.432C262.99 31.2547 263.214 31.166 263.475 31.166C263.727 31.166 263.942 31.2547 264.119 31.432C264.306 31.6093 264.399 31.838 264.399 32.118C264.399 32.398 264.306 32.6313 264.119 32.818C263.942 32.9953 263.727 33.084 263.475 33.084Z" fill="black"/>
</svg>
