<svg width="165" height="50" viewBox="0 0 165 50" fill="none" xmlns="http://www.w3.org/2000/svg">
<g filter="url(#filter0_d_2188_460)">
<rect x="24.1406" y="4.7168" width="33" height="31" rx="6" transform="rotate(46.3303 24.1406 4.7168)" fill="white"/>
</g>
<path d="M20.1982 21.1045H28.2373C28.4651 21.1045 28.6809 21.2079 28.8232 21.3857L30.3037 23.2363C30.4101 23.3693 30.4677 23.5348 30.4678 23.7051V33.3545C30.4678 33.7687 30.132 34.1045 29.7178 34.1045H18.7178C18.3036 34.1045 17.9678 33.7687 17.9678 33.3545V23.7051C17.9678 23.5348 18.0255 23.3693 18.1318 23.2363L19.6123 21.3857C19.7546 21.2079 19.9705 21.1045 20.1982 21.1045Z" stroke="black" stroke-width="0.5"/>
<path d="M18.2178 23.3545H30.2178" stroke="black" stroke-width="0.5"/>
<path d="M26.4678 23.6045V29.834L24.374 28.1592L24.2178 28.0342L24.0615 28.1592L21.9678 29.834V23.6045H26.4678Z" stroke="black" stroke-width="0.5"/>
<path d="M56.047 23.667V14.219H60.1367C60.9825 14.219 61.7113 14.3585 62.3232 14.6374C62.9351 14.9073 63.4075 15.2988 63.7404 15.8117C64.0733 16.3245 64.2398 16.9364 64.2398 17.6473C64.2398 18.3491 64.0733 18.9565 63.7404 19.4694C63.4075 19.9823 62.9351 20.3782 62.3232 20.6571C61.7113 20.9271 60.9825 21.062 60.1367 21.062H57.2618L58.2336 20.0768V23.667H56.047ZM58.2336 20.3197L57.2618 19.2804H60.0152C60.69 19.2804 61.1939 19.1365 61.5269 18.8485C61.8598 18.5606 62.0263 18.1602 62.0263 17.6473C62.0263 17.1254 61.8598 16.7205 61.5269 16.4325C61.1939 16.1446 60.69 16.0006 60.0152 16.0006H57.2618L58.2336 14.9613V20.3197ZM69.1484 23.775C68.3656 23.775 67.6682 23.6175 67.0564 23.3026C66.4445 22.9786 65.9631 22.5332 65.6122 21.9664C65.2702 21.3995 65.0993 20.7561 65.0993 20.0363C65.0993 19.3074 65.2702 18.6641 65.6122 18.1062C65.9631 17.5393 66.4445 17.0984 67.0564 16.7834C67.6682 16.4595 68.3656 16.2976 69.1484 16.2976C69.9133 16.2976 70.5791 16.4595 71.146 16.7834C71.7129 17.0984 72.1313 17.5528 72.4012 18.1467L70.7681 19.024C70.5791 18.682 70.3407 18.4301 70.0527 18.2681C69.7738 18.1062 69.4679 18.0252 69.1349 18.0252C68.775 18.0252 68.4511 18.1062 68.1631 18.2681C67.8752 18.4301 67.6457 18.6596 67.4748 18.9565C67.3128 19.2534 67.2318 19.6133 67.2318 20.0363C67.2318 20.4592 67.3128 20.8191 67.4748 21.116C67.6457 21.413 67.8752 21.6424 68.1631 21.8044C68.4511 21.9664 68.775 22.0473 69.1349 22.0473C69.4679 22.0473 69.7738 21.9709 70.0527 21.8179C70.3407 21.6559 70.5791 21.3995 70.7681 21.0485L72.4012 21.9394C72.1313 22.5242 71.7129 22.9786 71.146 23.3026C70.5791 23.6175 69.9133 23.775 69.1484 23.775ZM76.0565 23.775C75.4357 23.775 74.8373 23.703 74.2614 23.559C73.6945 23.406 73.2446 23.2171 72.9117 22.9921L73.6136 21.4805C73.9465 21.6874 74.3379 21.8584 74.7878 21.9933C75.2467 22.1193 75.6966 22.1823 76.1375 22.1823C76.6234 22.1823 76.9653 22.1238 77.1633 22.0068C77.3703 21.8899 77.4737 21.7279 77.4737 21.5209C77.4737 21.35 77.3928 21.224 77.2308 21.143C77.0778 21.053 76.8709 20.9856 76.6099 20.9406C76.349 20.8956 76.061 20.8506 75.7461 20.8056C75.4402 20.7606 75.1297 20.7021 74.8148 20.6301C74.4999 20.5492 74.2119 20.4322 73.951 20.2792C73.69 20.1262 73.4786 19.9193 73.3166 19.6583C73.1636 19.3974 73.0872 19.06 73.0872 18.6461C73.0872 18.1872 73.2176 17.7822 73.4786 17.4313C73.7485 17.0804 74.1354 16.8059 74.6393 16.608C75.1432 16.401 75.7461 16.2976 76.448 16.2976C76.9428 16.2976 77.4467 16.3515 77.9596 16.4595C78.4725 16.5675 78.8999 16.725 79.2419 16.9319L78.54 18.4301C78.1891 18.2231 77.8337 18.0837 77.4737 18.0117C77.1228 17.9307 76.7809 17.8902 76.448 17.8902C75.9801 17.8902 75.6381 17.9532 75.4222 18.0792C75.2062 18.2051 75.0982 18.3671 75.0982 18.5651C75.0982 18.745 75.1747 18.88 75.3277 18.97C75.4897 19.06 75.7011 19.132 75.9621 19.1859C76.223 19.2399 76.5064 19.2894 76.8124 19.3344C77.1273 19.3704 77.4422 19.4289 77.7572 19.5099C78.0721 19.5909 78.3556 19.7078 78.6075 19.8608C78.8684 20.0048 79.0799 20.2072 79.2419 20.4682C79.4038 20.7201 79.4848 21.053 79.4848 21.467C79.4848 21.9169 79.3498 22.3173 79.0799 22.6682C78.81 23.0101 78.4185 23.2801 77.9056 23.478C77.4018 23.676 76.7854 23.775 76.0565 23.775ZM84.7548 23.667V14.219H88.8444C89.6903 14.219 90.4191 14.3585 91.031 14.6374C91.6429 14.9073 92.1153 15.2988 92.4482 15.8117C92.7811 16.3245 92.9476 16.9364 92.9476 17.6473C92.9476 18.3491 92.7811 18.9565 92.4482 19.4694C92.1153 19.9823 91.6429 20.3782 91.031 20.6571C90.4191 20.9271 89.6903 21.062 88.8444 21.062H85.9696L86.9414 20.0768V23.667H84.7548ZM86.9414 20.3197L85.9696 19.2804H88.723C89.3978 19.2804 89.9017 19.1365 90.2347 18.8485C90.5676 18.5606 90.734 18.1602 90.734 17.6473C90.734 17.1254 90.5676 16.7205 90.2347 16.4325C89.9017 16.1446 89.3978 16.0006 88.723 16.0006H85.9696L86.9414 14.9613V20.3197ZM97.9507 23.775C97.1229 23.775 96.394 23.613 95.7642 23.2891C95.1433 22.9651 94.6619 22.5242 94.32 21.9664C93.978 21.3995 93.8071 20.7561 93.8071 20.0363C93.8071 19.3074 93.9735 18.6641 94.3065 18.1062C94.6484 17.5393 95.1118 17.0984 95.6967 16.7834C96.2815 16.4595 96.9429 16.2976 97.6808 16.2976C98.3916 16.2976 99.0305 16.4505 99.5973 16.7565C100.173 17.0534 100.628 17.4853 100.961 18.0522C101.293 18.6101 101.46 19.2804 101.46 20.0633C101.46 20.1442 101.455 20.2387 101.446 20.3467C101.437 20.4457 101.428 20.5402 101.419 20.6301H95.5212V19.4019H100.313L99.5029 19.7663C99.5029 19.3884 99.4264 19.06 99.2734 18.781C99.1204 18.5021 98.909 18.2861 98.6391 18.1332C98.3691 17.9712 98.0542 17.8902 97.6943 17.8902C97.3343 17.8902 97.0149 17.9712 96.736 18.1332C96.466 18.2861 96.2546 18.5066 96.1016 18.7945C95.9486 19.0735 95.8721 19.4064 95.8721 19.7933V20.1172C95.8721 20.5132 95.9576 20.8641 96.1286 21.17C96.3085 21.467 96.556 21.6964 96.8709 21.8584C97.1949 22.0113 97.5728 22.0878 98.0047 22.0878C98.3916 22.0878 98.729 22.0293 99.017 21.9124C99.3139 21.7954 99.5839 21.6199 99.8268 21.386L100.947 22.6007C100.614 22.9786 100.196 23.2711 99.6918 23.478C99.1879 23.676 98.6076 23.775 97.9507 23.775ZM102.862 23.667V16.4055H104.873V18.4571L104.589 17.8632C104.805 17.3503 105.152 16.9634 105.629 16.7025C106.106 16.4325 106.686 16.2976 107.37 16.2976V18.2411C107.28 18.2321 107.199 18.2276 107.127 18.2276C107.055 18.2186 106.978 18.2141 106.897 18.2141C106.322 18.2141 105.854 18.3806 105.494 18.7135C105.143 19.0375 104.967 19.5459 104.967 20.2387V23.667H102.862ZM112.645 23.667V14.219H117.261C118.449 14.219 119.34 14.4439 119.934 14.8938C120.537 15.3438 120.838 15.9376 120.838 16.6755C120.838 17.1704 120.717 17.6023 120.474 17.9712C120.231 18.3311 119.898 18.6101 119.475 18.808C119.052 19.006 118.566 19.105 118.017 19.105L118.274 18.5516C118.868 18.5516 119.394 18.6506 119.853 18.8485C120.312 19.0375 120.667 19.3209 120.919 19.6988C121.18 20.0768 121.311 20.5402 121.311 21.089C121.311 21.8989 120.991 22.5332 120.352 22.9921C119.713 23.442 118.773 23.667 117.531 23.667H112.645ZM114.818 22.0203H117.369C117.936 22.0203 118.364 21.9304 118.652 21.7504C118.949 21.5614 119.097 21.2645 119.097 20.8596C119.097 20.4637 118.949 20.1712 118.652 19.9823C118.364 19.7843 117.936 19.6853 117.369 19.6853H114.656V18.0927H116.991C117.522 18.0927 117.927 18.0027 118.206 17.8227C118.494 17.6338 118.638 17.3503 118.638 16.9724C118.638 16.6035 118.494 16.329 118.206 16.1491C117.927 15.9601 117.522 15.8656 116.991 15.8656H114.818V22.0203ZM126.273 23.775C125.499 23.775 124.811 23.613 124.208 23.2891C123.614 22.9651 123.141 22.5242 122.791 21.9664C122.449 21.3995 122.278 20.7561 122.278 20.0363C122.278 19.3074 122.449 18.6641 122.791 18.1062C123.141 17.5393 123.614 17.0984 124.208 16.7834C124.811 16.4595 125.499 16.2976 126.273 16.2976C127.038 16.2976 127.721 16.4595 128.324 16.7834C128.927 17.0984 129.4 17.5348 129.742 18.0927C130.083 18.6506 130.254 19.2984 130.254 20.0363C130.254 20.7561 130.083 21.3995 129.742 21.9664C129.4 22.5242 128.927 22.9651 128.324 23.2891C127.721 23.613 127.038 23.775 126.273 23.775ZM126.273 22.0473C126.624 22.0473 126.939 21.9664 127.218 21.8044C127.497 21.6424 127.717 21.413 127.879 21.116C128.041 20.8101 128.122 20.4502 128.122 20.0363C128.122 19.6133 128.041 19.2534 127.879 18.9565C127.717 18.6596 127.497 18.4301 127.218 18.2681C126.939 18.1062 126.624 18.0252 126.273 18.0252C125.922 18.0252 125.607 18.1062 125.328 18.2681C125.049 18.4301 124.824 18.6596 124.653 18.9565C124.491 19.2534 124.41 19.6133 124.41 20.0363C124.41 20.4502 124.491 20.8101 124.653 21.116C124.824 21.413 125.049 21.6424 125.328 21.8044C125.607 21.9664 125.922 22.0473 126.273 22.0473ZM130.52 23.667L133.773 19.4019L133.732 20.5626L130.614 16.4055H132.976L134.947 19.1185L134.056 19.1454L136.094 16.4055H138.335L135.203 20.5222V19.3884L138.443 23.667H136.054L133.989 20.7786L134.866 20.9001L132.814 23.667H130.52Z" fill="black"/>
<path d="M57.9974 41.1085C57.435 41.1085 56.8988 41.0185 56.3889 40.8386C55.8791 40.6511 55.4741 40.4037 55.1742 40.0962L55.5679 39.4551C55.8153 39.7175 56.1527 39.935 56.5802 40.1075C57.0151 40.2799 57.4837 40.3662 57.9861 40.3662C58.6535 40.3662 59.1596 40.2199 59.5045 39.9275C59.857 39.6276 60.0332 39.2376 60.0332 38.7577C60.0332 38.4203 59.9507 38.1316 59.7857 37.8917C59.6283 37.6442 59.3583 37.453 58.9759 37.3181C58.5935 37.1831 58.0686 37.1156 57.4012 37.1156H55.7253L56.1303 33.1677H60.4381V33.8875H56.4564L56.8726 33.4939L56.5239 36.8007L56.1078 36.3957H57.5812C58.376 36.3957 59.0134 36.4932 59.4933 36.6882C59.9732 36.8831 60.3181 37.1568 60.5281 37.5093C60.7455 37.8542 60.8543 38.2591 60.8543 38.724C60.8543 39.1664 60.7493 39.5713 60.5393 39.9387C60.3294 40.2987 60.0144 40.5836 59.5945 40.7936C59.1746 41.0035 58.6422 41.1085 57.9974 41.1085ZM65.0204 41.1085C64.4131 41.1085 63.8732 40.951 63.4008 40.6361C62.9284 40.3137 62.5572 39.8563 62.2873 39.2639C62.0173 38.664 61.8824 37.9442 61.8824 37.1043C61.8824 36.2645 62.0173 35.5484 62.2873 34.9561C62.5572 34.3562 62.9284 33.8988 63.4008 33.5838C63.8732 33.2614 64.4131 33.1002 65.0204 33.1002C65.6278 33.1002 66.1677 33.2614 66.6401 33.5838C67.1125 33.8988 67.4837 34.3562 67.7536 34.9561C68.0311 35.5484 68.1698 36.2645 68.1698 37.1043C68.1698 37.9442 68.0311 38.664 67.7536 39.2639C67.4837 39.8563 67.1125 40.3137 66.6401 40.6361C66.1677 40.951 65.6278 41.1085 65.0204 41.1085ZM65.0204 40.3662C65.4853 40.3662 65.8903 40.2424 66.2352 39.995C66.5801 39.74 66.8501 39.3726 67.045 38.8927C67.24 38.4053 67.3375 37.8092 67.3375 37.1043C67.3375 36.3995 67.24 35.8071 67.045 35.3272C66.8501 34.8398 66.5801 34.4724 66.2352 34.225C65.8903 33.97 65.4853 33.8425 65.0204 33.8425C64.5705 33.8425 64.1694 33.97 63.8169 34.225C63.4645 34.4724 63.1908 34.8398 62.9959 35.3272C62.8009 35.8071 62.7034 36.3995 62.7034 37.1043C62.7034 37.8092 62.8009 38.4053 62.9959 38.8927C63.1908 39.3726 63.4645 39.74 63.8169 39.995C64.1694 40.2424 64.5705 40.3662 65.0204 40.3662ZM72.4676 41.1085C71.8602 41.1085 71.3203 40.951 70.8479 40.6361C70.3755 40.3137 70.0044 39.8563 69.7344 39.2639C69.4645 38.664 69.3295 37.9442 69.3295 37.1043C69.3295 36.2645 69.4645 35.5484 69.7344 34.9561C70.0044 34.3562 70.3755 33.8988 70.8479 33.5838C71.3203 33.2614 71.8602 33.1002 72.4676 33.1002C73.075 33.1002 73.6149 33.2614 74.0873 33.5838C74.5597 33.8988 74.9308 34.3562 75.2008 34.9561C75.4782 35.5484 75.6169 36.2645 75.6169 37.1043C75.6169 37.9442 75.4782 38.664 75.2008 39.2639C74.9308 39.8563 74.5597 40.3137 74.0873 40.6361C73.6149 40.951 73.075 41.1085 72.4676 41.1085ZM72.4676 40.3662C72.9325 40.3662 73.3374 40.2424 73.6823 39.995C74.0273 39.74 74.2972 39.3726 74.4922 38.8927C74.6871 38.4053 74.7846 37.8092 74.7846 37.1043C74.7846 36.3995 74.6871 35.8071 74.4922 35.3272C74.2972 34.8398 74.0273 34.4724 73.6823 34.225C73.3374 33.97 72.9325 33.8425 72.4676 33.8425C72.0177 33.8425 71.6165 33.97 71.2641 34.225C70.9117 34.4724 70.638 34.8398 70.443 35.3272C70.2481 35.8071 70.1506 36.3995 70.1506 37.1043C70.1506 37.8092 70.2481 38.4053 70.443 38.8927C70.638 39.3726 70.9117 39.74 71.2641 39.995C71.6165 40.2424 72.0177 40.3662 72.4676 40.3662ZM80.4177 41.041V33.1677H81.1038L86.5364 40.0062H86.1765V33.1677H86.9976V41.041H86.3115L80.8901 34.2025H81.2501V41.041H80.4177ZM91.8057 41.0973C91.2358 41.0973 90.7222 40.9698 90.2648 40.7148C89.8149 40.4524 89.4587 40.0962 89.1962 39.6463C88.9338 39.1889 88.8026 38.6678 88.8026 38.0829C88.8026 37.4905 88.9338 36.9694 89.1962 36.5195C89.4587 36.0696 89.8149 35.7171 90.2648 35.4622C90.7147 35.2072 91.2283 35.0798 91.8057 35.0798C92.3906 35.0798 92.908 35.2072 93.3579 35.4622C93.8153 35.7171 94.1714 36.0696 94.4264 36.5195C94.6888 36.9694 94.82 37.4905 94.82 38.0829C94.82 38.6678 94.6888 39.1889 94.4264 39.6463C94.1714 40.0962 93.8153 40.4524 93.3579 40.7148C92.9005 40.9698 92.3831 41.0973 91.8057 41.0973ZM91.8057 40.3887C92.2331 40.3887 92.6118 40.2949 92.9417 40.1075C93.2716 39.9125 93.5303 39.6426 93.7178 39.2976C93.9127 38.9452 94.0102 38.5403 94.0102 38.0829C94.0102 37.618 93.9127 37.2131 93.7178 36.8681C93.5303 36.5232 93.2716 36.257 92.9417 36.0696C92.6118 35.8746 92.2368 35.7771 91.8169 35.7771C91.397 35.7771 91.0221 35.8746 90.6922 36.0696C90.3622 36.257 90.0998 36.5232 89.9048 36.8681C89.7099 37.2131 89.6124 37.618 89.6124 38.0829C89.6124 38.5403 89.7099 38.9452 89.9048 39.2976C90.0998 39.6426 90.3622 39.9125 90.6922 40.1075C91.0221 40.2949 91.3933 40.3887 91.8057 40.3887ZM98.0363 41.0973C97.5489 41.0973 97.0878 41.0298 96.6529 40.8948C96.218 40.7523 95.8768 40.5761 95.6293 40.3662L95.9893 39.7363C96.2292 39.9163 96.5367 40.0737 96.9116 40.2087C97.2865 40.3362 97.6802 40.3999 98.0926 40.3999C98.655 40.3999 99.0599 40.3137 99.3073 40.1412C99.5548 39.9612 99.6785 39.725 99.6785 39.4326C99.6785 39.2152 99.6073 39.0464 99.4648 38.9265C99.3298 38.799 99.1499 38.7053 98.9249 38.6453C98.6999 38.5778 98.4488 38.5215 98.1713 38.4766C97.8939 38.4316 97.6164 38.3791 97.339 38.3191C97.069 38.2591 96.8216 38.1729 96.5966 38.0604C96.3717 37.9404 96.188 37.7792 96.0455 37.5767C95.9105 37.3743 95.8431 37.1043 95.8431 36.7669C95.8431 36.4445 95.933 36.1558 96.113 35.9009C96.293 35.6459 96.5554 35.4472 96.9003 35.3047C97.2528 35.1548 97.6802 35.0798 98.1826 35.0798C98.565 35.0798 98.9474 35.1323 99.3298 35.2372C99.7122 35.3347 100.027 35.4659 100.275 35.6309L99.9259 36.272C99.6635 36.0921 99.3823 35.9646 99.0824 35.8896C98.7824 35.8071 98.4825 35.7659 98.1826 35.7659C97.6502 35.7659 97.2565 35.8596 97.0016 36.0471C96.7541 36.227 96.6304 36.4595 96.6304 36.7444C96.6304 36.9694 96.6979 37.1456 96.8328 37.2731C96.9753 37.4005 97.159 37.5018 97.384 37.5767C97.6164 37.6442 97.8676 37.7005 98.1376 37.7455C98.415 37.7905 98.6887 37.8467 98.9586 37.9142C99.2361 37.9742 99.4873 38.0604 99.7122 38.1729C99.9447 38.2778 100.128 38.4316 100.263 38.634C100.406 38.829 100.477 39.0877 100.477 39.4101C100.477 39.755 100.38 40.055 100.185 40.3099C99.9972 40.5574 99.7197 40.7523 99.3523 40.8948C98.9924 41.0298 98.5537 41.0973 98.0363 41.0973ZM100.548 42.1658L104.259 31.5705H104.991L101.279 42.1658H100.548ZM107.393 41.0973C106.808 41.0973 106.283 40.9698 105.818 40.7148C105.361 40.4524 105.001 40.0962 104.739 39.6463C104.476 39.1889 104.345 38.6678 104.345 38.0829C104.345 37.4905 104.476 36.9694 104.739 36.5195C105.001 36.0696 105.361 35.7171 105.818 35.4622C106.283 35.2072 106.808 35.0798 107.393 35.0798C107.895 35.0798 108.349 35.1773 108.754 35.3722C109.159 35.5672 109.478 35.8596 109.71 36.2495L109.114 36.6544C108.911 36.3545 108.66 36.1333 108.36 35.9908C108.06 35.8484 107.734 35.7771 107.382 35.7771C106.962 35.7771 106.583 35.8746 106.246 36.0696C105.908 36.257 105.642 36.5232 105.447 36.8681C105.252 37.2131 105.155 37.618 105.155 38.0829C105.155 38.5478 105.252 38.9527 105.447 39.2976C105.642 39.6426 105.908 39.9125 106.246 40.1075C106.583 40.2949 106.962 40.3887 107.382 40.3887C107.734 40.3887 108.06 40.3174 108.36 40.1749C108.66 40.0325 108.911 39.815 109.114 39.5226L109.71 39.9275C109.478 40.3099 109.159 40.6024 108.754 40.8048C108.349 40.9998 107.895 41.0973 107.393 41.0973ZM113.212 41.0973C112.657 41.0973 112.23 40.9473 111.93 40.6473C111.63 40.3474 111.48 39.9238 111.48 39.3764V33.8313H112.278V39.3314C112.278 39.6763 112.365 39.9425 112.537 40.13C112.717 40.3174 112.972 40.4111 113.302 40.4111C113.654 40.4111 113.947 40.3099 114.179 40.1075L114.46 40.6811C114.303 40.8236 114.112 40.9285 113.887 40.996C113.669 41.0635 113.444 41.0973 113.212 41.0973ZM110.422 35.7996V35.136H114.078V35.7996H110.422ZM118.928 35.0798C119.408 35.0798 119.828 35.1735 120.188 35.361C120.556 35.5409 120.841 35.8184 121.043 36.1933C121.253 36.5682 121.358 37.0406 121.358 37.6105V41.041H120.559V37.6892C120.559 37.0669 120.402 36.5982 120.087 36.2833C119.78 35.9608 119.345 35.7996 118.782 35.7996C118.362 35.7996 117.995 35.8859 117.68 36.0583C117.373 36.2233 117.133 36.467 116.96 36.7894C116.795 37.1043 116.713 37.4868 116.713 37.9367V41.041H115.914V35.136H116.679V36.7557L116.555 36.452C116.743 36.0246 117.043 35.6909 117.455 35.4509C117.867 35.2035 118.359 35.0798 118.928 35.0798Z" fill="black"/>
<defs>
<filter id="filter0_d_2188_460" x="0.000195503" y="0.000195503" width="48.6441" height="48.7096" filterUnits="userSpaceOnUse" color-interpolation-filters="sRGB">
<feFlood flood-opacity="0" result="BackgroundImageFix"/>
<feColorMatrix in="SourceAlpha" type="matrix" values="0 0 0 0 0 0 0 0 0 0 0 0 0 0 0 0 0 0 127 0" result="hardAlpha"/>
<feOffset dy="-3"/>
<feGaussianBlur stdDeviation="2.1"/>
<feComposite in2="hardAlpha" operator="out"/>
<feColorMatrix type="matrix" values="0 0 0 0 0 0 0 0 0 0 0 0 0 0 0 0 0 0 0.25 0"/>
<feBlend mode="normal" in2="BackgroundImageFix" result="effect1_dropShadow_2188_460"/>
<feBlend mode="normal" in="SourceGraphic" in2="effect1_dropShadow_2188_460" result="shape"/>
</filter>
</defs>
</svg>
