<svg width="327" height="76" viewBox="0 0 327 76" fill="none" xmlns="http://www.w3.org/2000/svg">
<path d="M17.057 46.7647C15.0502 46.7677 13.1264 46.5078 11.2858 45.985C9.44507 45.4382 7.96243 44.7357 6.83784 43.8773L8.80005 39.5023C9.87667 40.2652 11.1442 40.8964 12.6025 41.3959C14.0847 41.8715 15.5783 42.1082 17.0835 42.106C18.2302 42.1043 19.1498 41.9954 19.8422 41.7793C20.5585 41.5393 21.0834 41.216 21.4171 40.8094C21.7507 40.4027 21.917 39.9366 21.916 39.411C21.9146 38.7421 21.6508 38.2169 21.1244 37.8354C20.598 37.4301 19.9045 37.1086 19.044 36.8709C18.1834 36.6094 17.2273 36.372 16.1756 36.1585C15.1478 35.9211 14.108 35.636 13.0562 35.3031C12.0282 34.9702 11.0836 34.5415 10.2225 34.0172C9.36138 33.4929 8.65521 32.8011 8.10399 31.9419C7.57667 31.0826 7.31166 29.984 7.30898 28.6461C7.3061 27.2127 7.68574 25.9101 8.4479 24.7383C9.2339 23.5426 10.4027 22.5971 11.9542 21.902C13.5295 21.1829 15.4998 20.8216 17.865 20.818C19.4418 20.8157 20.9951 21.0045 22.5248 21.3845C24.0546 21.7405 25.4055 22.288 26.5776 23.0269L24.7947 27.4374C23.6227 26.7702 22.4511 26.2822 21.2798 25.9734C20.1085 25.6406 18.9614 25.4751 17.8385 25.4768C16.7156 25.4785 15.7961 25.6113 15.0799 25.8751C14.3637 26.139 13.8507 26.4862 13.541 26.9167C13.2313 27.3233 13.0769 27.8013 13.078 28.3508C13.0793 28.9959 13.3432 29.5211 13.8696 29.9264C14.396 30.3079 15.0894 30.6174 15.95 30.8551C16.8105 31.0927 17.7547 31.3302 18.7825 31.5676C19.8341 31.8049 20.8739 32.0781 21.9019 32.3871C22.9537 32.6961 23.9102 33.1128 24.7713 33.6371C25.6324 34.1614 26.3266 34.8532 26.854 35.7125C27.4052 36.5717 27.6821 37.6584 27.6847 38.9724C27.6876 40.3819 27.296 41.6726 26.5099 42.8444C25.7239 44.0163 24.5432 44.9617 22.9678 45.6808C21.4163 46.3999 19.4461 46.7612 17.057 46.7647ZM33.0998 46.3107L33.0495 21.2254L45.3055 21.207C48.4591 21.2023 50.8254 21.7961 52.4046 22.9882C54.0077 24.1804 54.8112 25.756 54.8152 27.715C54.8178 29.029 54.4976 30.1763 53.8545 31.1568C53.2114 32.1134 52.3289 32.8553 51.2071 33.3826C50.0853 33.9098 48.7957 34.1746 47.3383 34.1767L48.0163 32.7064C49.5931 32.7041 50.9912 32.9648 52.2107 33.4886C53.4301 33.9885 54.3753 34.7396 55.0463 35.742C55.7411 36.7444 56.09 37.9743 56.0929 39.4316C56.0973 41.5818 55.2525 43.2673 53.5587 44.4883C51.8649 45.6854 49.3695 46.2864 46.0725 46.2913L33.0998 46.3107ZM38.8607 41.9301L45.6337 41.9199C47.1389 41.9177 48.2732 41.6771 49.0367 41.1981C49.8241 40.6952 50.2167 39.9063 50.2146 38.8312C50.2125 37.78 49.8167 37.0041 49.0273 36.5036C48.2618 35.9791 47.1264 35.718 45.6213 35.7203L38.4182 35.731L38.4097 31.5024L44.6094 31.4931C46.0189 31.491 47.0936 31.2505 47.8332 30.7716C48.5967 30.2687 48.9775 29.5156 48.9754 28.5122C48.9735 27.5326 48.5898 26.8045 47.8243 26.3279C47.0827 25.8273 46.0071 25.578 44.5975 25.5801L38.8279 25.5888L38.8607 41.9301ZM60.8087 38.4211L60.7997 33.9416L70.9414 33.9264L70.9504 38.406L60.8087 38.4211ZM78.716 46.2425L78.67 23.3073L81.1835 25.8121L73.6579 25.8234L73.6486 21.1647L84.4711 21.1485L84.5214 46.2338L78.716 46.2425ZM101.53 46.6384C99.2367 46.6419 97.2409 46.167 95.5427 45.2139C93.8684 44.2608 92.5755 42.8651 91.664 41.0269C90.7524 39.1886 90.294 36.9197 90.2885 34.22C90.2827 31.3293 90.8154 28.8796 91.8864 26.8712C92.9814 24.8627 94.4834 23.3315 96.3926 22.2774C98.3256 21.2233 100.546 20.6944 103.055 20.6907C104.393 20.6887 105.671 20.8301 106.89 21.115C108.109 21.3998 109.161 21.8283 110.046 22.4004L107.905 26.6681C107.211 26.1913 106.47 25.8699 105.681 25.7038C104.892 25.5139 104.068 25.4195 103.208 25.4208C101.034 25.4241 99.3149 26.0836 98.0513 27.3995C96.7878 28.7154 96.1586 30.6635 96.1637 33.2437C96.1646 33.6737 96.1656 34.1515 96.1666 34.6771C96.1916 35.2027 96.2643 35.7282 96.3848 36.2536L94.7691 34.7509C95.2212 33.8185 95.805 33.0411 96.5204 32.4189C97.2359 31.7728 98.083 31.2937 99.0619 30.9817C100.065 30.6457 101.163 30.4768 102.358 30.475C103.982 30.4726 105.44 30.7929 106.732 31.4361C108.023 32.0792 109.052 32.9855 109.819 34.155C110.61 35.3245 111.007 36.6976 111.01 38.2744C111.013 39.9706 110.586 41.4525 109.729 42.72C108.895 43.9636 107.762 44.9329 106.33 45.6278C104.922 46.2989 103.322 46.6357 101.53 46.6384ZM101.199 42.3027C102.011 42.3015 102.728 42.1571 103.348 41.8695C103.993 41.5579 104.494 41.1152 104.851 40.5413C105.208 39.9674 105.386 39.3101 105.384 38.5695C105.382 37.4227 104.986 36.5155 104.196 35.8477C103.43 35.156 102.402 34.8111 101.112 34.8131C100.252 34.8144 99.5 34.9827 98.8556 35.3182C98.2112 35.6297 97.6984 36.0724 97.3173 36.6464C96.9601 37.1964 96.7822 37.8417 96.7837 38.5824C96.7851 39.2991 96.9656 39.9439 97.3251 40.5167C97.6846 41.0657 98.1872 41.5069 98.8329 41.8404C99.4785 42.15 100.267 42.3041 101.199 42.3027ZM115.189 38.3398L115.18 33.8603L125.321 33.8451L125.33 38.3247L115.189 38.3398ZM138.526 46.5831C136.782 46.5857 135.049 46.3613 133.328 45.91C131.631 45.4347 130.172 44.7679 128.952 43.9097L131.236 39.4626C132.193 40.154 133.294 40.7018 134.537 41.1061C135.804 41.5104 137.082 41.7115 138.372 41.7096C139.83 41.7074 140.976 41.419 141.811 40.8444C142.646 40.2698 143.062 39.4688 143.06 38.4415C143.059 37.7964 142.891 37.2233 142.555 36.7221C142.22 36.2209 141.622 35.8395 140.761 35.578C139.924 35.3165 138.742 35.1868 137.213 35.1891L130.798 35.1987L132.06 21.0773L147.362 21.0544L147.371 25.7132L134.147 25.7329L137.152 23.0765L136.277 33.1479L133.261 30.5005L138.565 30.4925C141.05 30.4888 143.045 30.8323 144.552 31.5228C146.082 32.1895 147.195 33.1076 147.89 34.2773C148.585 35.4469 148.934 36.7723 148.937 38.2535C148.94 39.7347 148.573 41.109 147.835 42.3763C147.096 43.6198 145.952 44.6368 144.4 45.4276C142.873 46.1944 140.915 46.5795 138.526 46.5831ZM163.494 46.5458C161.439 46.5488 159.598 46.0499 157.972 45.0489C156.345 44.024 155.064 42.5447 154.128 40.6109C153.193 38.6772 152.722 36.3366 152.717 33.5891C152.711 30.8417 153.172 28.4997 154.1 26.5632C155.028 24.6266 156.303 23.1554 157.926 22.1496C159.548 21.1198 161.387 20.6034 163.442 20.6004C165.52 20.5973 167.361 21.1082 168.963 22.1331C170.59 23.1341 171.871 24.6014 172.807 26.5352C173.742 28.469 174.213 30.8096 174.218 33.557C174.224 36.3044 173.763 38.6464 172.835 40.583C171.907 42.5195 170.632 44.0027 169.009 45.0324C167.411 46.0382 165.572 46.5427 163.494 46.5458ZM163.484 41.6362C164.463 41.6347 165.311 41.3587 166.026 40.8082C166.766 40.2576 167.338 39.3847 167.741 38.1896C168.169 36.9944 168.381 35.4531 168.377 33.5657C168.373 31.6784 168.155 30.1377 167.723 28.9438C167.314 27.7499 166.739 26.8787 165.997 26.3304C165.28 25.7819 164.431 25.5085 163.451 25.5099C162.496 25.5114 161.648 25.7874 160.909 26.338C160.193 26.8885 159.621 27.7614 159.194 28.9566C158.79 30.1517 158.59 31.693 158.594 33.5804C158.598 35.4677 158.804 37.0084 159.212 38.2023C159.645 39.3962 160.22 40.2674 160.938 40.8158C161.679 41.3642 162.528 41.6376 163.484 41.6362ZM189.249 46.5073C187.195 46.5103 185.354 46.0114 183.728 45.0104C182.101 43.9855 180.82 42.5062 179.884 40.5724C178.949 38.6387 178.478 36.2981 178.473 33.5506C178.467 30.8032 178.928 28.4612 179.856 26.5247C180.784 24.5881 182.059 23.1169 183.682 22.1111C185.304 21.0813 187.143 20.5649 189.197 20.5619C191.276 20.5588 193.117 21.0697 194.719 22.0946C196.346 23.0955 197.627 24.5629 198.563 26.4967C199.498 28.4304 199.969 30.771 199.974 33.5185C199.98 36.2659 199.519 38.6079 198.591 40.5445C197.663 42.481 196.388 43.9642 194.765 44.9939C193.167 45.9997 191.328 46.5042 189.249 46.5073ZM189.24 41.5977C190.219 41.5962 191.067 41.3202 191.782 40.7697C192.522 40.2191 193.093 39.3462 193.497 38.1511C193.925 36.9559 194.137 35.4146 194.133 33.5272C194.129 31.6398 193.911 30.0992 193.479 28.9053C193.07 27.7114 192.495 26.8402 191.753 26.2918C191.035 25.7434 190.187 25.47 189.207 25.4714C188.252 25.4728 187.404 25.7489 186.665 26.2995C185.949 26.85 185.377 27.7229 184.95 28.9181C184.546 30.1132 184.346 31.6545 184.35 33.5418C184.353 35.4292 184.56 36.9699 184.968 38.1638C185.401 39.3577 185.976 40.2289 186.694 40.7773C187.435 41.3257 188.284 41.5991 189.24 41.5977ZM226.1 53.2611C224.284 53.2638 222.528 53.0394 220.83 52.588C219.157 52.1605 217.758 51.5056 216.634 50.6233L218.847 46.6063C219.661 47.2741 220.689 47.7981 221.932 48.1785C223.199 48.5828 224.442 48.784 225.661 48.7822C227.644 48.7792 229.076 48.3351 229.958 47.4498C230.864 46.5645 231.316 45.2498 231.312 43.5058L231.306 40.6031L231.655 35.7646L231.574 30.891L231.565 26.734L236.869 26.7261L236.901 42.7807C236.908 46.3643 235.982 49.0057 234.122 50.7047C232.262 52.4037 229.588 53.2558 226.1 53.2611ZM225.223 45.0917C223.431 45.0944 221.806 44.7145 220.347 43.9522C218.912 43.166 217.751 42.0807 216.865 40.6963C216.002 39.2881 215.568 37.6522 215.565 35.7887C215.561 33.9013 215.988 32.2642 216.845 30.8772C217.726 29.4663 218.882 28.3776 220.314 27.6109C221.77 26.8442 223.394 26.4596 225.186 26.4569C226.81 26.4544 228.245 26.7868 229.488 27.4539C230.732 28.097 231.701 29.111 232.397 30.4956C233.093 31.8563 233.443 33.6118 233.447 35.762C233.451 37.8882 233.108 39.6447 232.418 41.0314C231.728 42.3942 230.763 43.411 229.522 44.0818C228.281 44.7526 226.848 45.0893 225.223 45.0917ZM226.325 40.503C227.304 40.5015 228.176 40.3091 228.94 39.9257C229.704 39.5184 230.3 38.9561 230.728 38.2387C231.157 37.5214 231.37 36.6968 231.368 35.7651C231.366 34.8094 231.15 33.9855 230.718 33.2933C230.287 32.5773 229.688 32.0287 228.923 31.6475C228.158 31.2425 227.285 31.0408 226.306 31.0422C225.326 31.0437 224.455 31.2481 223.691 31.6554C222.927 32.0388 222.319 32.5892 221.867 33.3066C221.438 34 221.225 34.8246 221.227 35.7802C221.229 36.712 221.445 37.5359 221.877 38.252C222.332 38.968 222.942 39.5285 223.708 39.9335C224.473 40.3146 225.345 40.5045 226.325 40.503Z" fill="#490606"/>
<path d="M41.8096 68.247C41.333 67.5271 40.9632 66.6963 40.7 65.7543C40.4447 64.8045 40.3159 63.7832 40.3137 62.6905C40.3115 61.5977 40.4362 60.576 40.6877 59.6254C40.947 58.6669 41.3136 57.8349 41.7873 57.1295L43.5571 57.1268C43.06 58.0223 42.6975 58.9256 42.4697 59.8366C42.2419 60.7396 42.129 61.69 42.131 62.6877C42.133 63.6855 42.2497 64.6395 42.4812 65.5498C42.7127 66.4521 43.0787 67.3503 43.5794 68.2444L41.8096 68.247ZM44.6844 65.9384L44.6677 57.624L46.5919 57.6211L46.6086 65.9356L44.6844 65.9384ZM48.5818 65.9326L48.5651 57.6182L50.1567 57.6158L53.708 63.4781L52.8647 63.4794L56.3331 57.6066L57.9129 57.6042L57.9533 65.9186L56.1479 65.9213L56.1249 60.3744L56.4575 60.3739L53.6874 65.046L52.8204 65.0473L49.9722 60.3836L50.3761 60.383L50.3872 65.9299L48.5818 65.9326ZM59.9259 65.9156L59.9093 57.6012L61.8334 57.5983L61.847 64.3449L66.0161 64.3387L66.0192 65.9065L59.9259 65.9156ZM70.4582 65.8999L70.4415 57.5855L72.0331 57.5831L75.5844 63.4454L74.7411 63.4467L78.2095 57.5739L79.7893 57.5715L79.8297 65.8859L78.0243 65.8886L78.0013 60.3417L78.3338 60.3412L75.5638 65.0133L74.6967 65.0146L71.8486 60.3509L72.2524 60.3503L72.2636 65.8972L70.4582 65.8999ZM85.841 66.0194C85.1838 66.0204 84.5739 65.9144 84.0112 65.7015C83.4565 65.4885 82.9729 65.1883 82.5603 64.8009C82.1557 64.4135 81.8381 63.9587 81.6074 63.4364C81.3846 62.9141 81.2726 62.3441 81.2714 61.7265C81.2701 61.1089 81.3798 60.5386 81.6005 60.0156C81.8291 59.4926 82.1489 59.0369 82.5599 58.6482C82.9708 58.2596 83.4533 57.958 84.0071 57.7434C84.561 57.5287 85.1626 57.4209 85.8119 57.42C86.4691 57.419 87.0712 57.525 87.618 57.738C88.1727 57.9509 88.6524 58.2511 89.057 58.6385C89.4695 59.0259 89.7911 59.4807 90.0218 60.003C90.2525 60.5174 90.3685 61.0873 90.3697 61.7129C90.371 62.3305 90.2573 62.9048 90.0287 63.4357C89.8001 63.9586 89.4803 64.4144 89.0694 64.8031C88.6663 65.1838 88.1878 65.4814 87.6339 65.696C87.088 65.9107 86.4904 66.0185 85.841 66.0194ZM85.8259 64.3803C86.198 64.3798 86.5384 64.3159 86.847 64.1887C87.1635 64.0616 87.4402 63.879 87.6773 63.6411C87.9144 63.4032 88.096 63.1218 88.222 62.797C88.356 62.4721 88.4226 62.1117 88.4218 61.7158C88.421 61.3199 88.3529 60.9597 88.2177 60.6352C88.0903 60.3108 87.9076 60.0299 87.6696 59.7927C87.4395 59.5555 87.1659 59.3738 86.8489 59.2476C86.5319 59.1214 86.1874 59.0585 85.8152 59.0591C85.443 59.0596 85.0987 59.1235 84.7822 59.2507C84.4736 59.3778 84.2008 59.5604 83.9637 59.7983C83.7267 60.0362 83.5411 60.3176 83.4072 60.6424C83.2811 60.9673 83.2185 61.3277 83.2193 61.7236C83.2201 62.1116 83.2842 62.4718 83.4115 62.8042C83.5468 63.1286 83.7295 63.4095 83.9596 63.6467C84.1976 63.8839 84.4751 64.0656 84.7921 64.1918C85.1091 64.318 85.4537 64.3809 85.8259 64.3803ZM95.851 66.0045C95.2017 66.0054 94.5957 65.8994 94.0331 65.6865C93.4784 65.4735 92.9947 65.1733 92.5822 64.7859C92.1776 64.3985 91.8599 63.9437 91.6292 63.4214C91.4065 62.8991 91.2944 62.3292 91.2932 61.7115C91.292 61.0939 91.4017 60.5236 91.6224 60.0006C91.8509 59.4777 92.1707 59.0219 92.5817 58.6332C92.9927 58.2446 93.4751 57.943 94.029 57.7284C94.5828 57.5137 95.1844 57.4059 95.8338 57.405C96.491 57.404 97.093 57.51 97.6398 57.723C98.1945 57.9359 98.6742 58.2361 99.0788 58.6235C99.4914 59.003 99.813 59.4539 100.044 59.9762C100.274 60.4984 100.39 61.0724 100.392 61.6979C100.393 62.3156 100.279 62.8898 100.051 63.4207C99.822 63.9437 99.5022 64.3995 99.0912 64.7881C98.6881 65.1688 98.2097 65.4664 97.6558 65.6811C97.1098 65.8957 96.5082 66.0035 95.851 66.0045ZM98.5746 67.7702C98.2499 67.7707 97.941 67.7355 97.6479 67.6647C97.3627 67.5938 97.0774 67.4794 96.792 67.3215C96.5145 67.1635 96.2211 66.9502 95.9118 66.6814C95.6103 66.4126 95.281 66.0805 94.9239 65.6851L96.9421 65.1714C97.1565 65.464 97.3549 65.6973 97.5374 65.8713C97.7199 66.0452 97.8943 66.1677 98.0607 66.2387C98.2351 66.3097 98.4173 66.3451 98.6073 66.3448C99.1141 66.344 99.5651 66.1375 99.9602 65.7251L100.817 66.7453C100.257 67.4272 99.5089 67.7688 98.5746 67.7702ZM95.8477 64.3653C96.2199 64.3648 96.5603 64.3009 96.8688 64.1738C97.1853 64.0466 97.4621 63.864 97.6992 63.6261C97.9363 63.3882 98.1178 63.1068 98.2439 62.782C98.3778 62.4492 98.4444 62.0888 98.4436 61.7008C98.4428 61.3049 98.3748 60.9447 98.2395 60.6203C98.1122 60.2958 97.9295 60.015 97.6914 59.7778C97.4534 59.5406 97.1759 59.3588 96.8589 59.2326C96.5498 59.1064 96.2092 59.0435 95.837 59.0441C95.4649 59.0447 95.1205 59.1085 94.8041 59.2357C94.4876 59.3629 94.2108 59.5454 93.9737 59.7833C93.7446 60.0212 93.563 60.3026 93.429 60.6274C93.303 60.9523 93.2404 61.3127 93.2412 61.7086C93.2419 62.0966 93.306 62.4568 93.4334 62.7892C93.5686 63.1137 93.7513 63.3945 93.9814 63.6317C94.2195 63.8689 94.497 64.0506 94.814 64.1768C95.131 64.3031 95.4756 64.3659 95.8477 64.3653ZM104.836 63.2473L104.833 61.7625L108.195 61.7575L108.198 63.2422L104.836 63.2473ZM115.46 65.9751C114.882 65.976 114.308 65.9016 113.737 65.752C113.175 65.5945 112.691 65.3735 112.287 65.089L113.044 63.6151C113.361 63.8442 113.726 64.0258 114.138 64.1598C114.558 64.2938 114.982 64.3605 115.409 64.3598C115.892 64.3591 116.272 64.2635 116.549 64.0731C116.826 63.8826 116.964 63.6171 116.963 63.2766C116.963 63.0628 116.907 62.8729 116.796 62.7068C116.684 62.5406 116.486 62.4142 116.201 62.3276C115.924 62.2409 115.532 62.1979 115.025 62.1987L112.899 62.2018L113.317 57.5214L118.389 57.5138L118.392 59.0579L114.009 59.0644L115.005 58.184L114.715 61.5221L113.715 60.6446L115.473 60.642C116.297 60.6408 116.958 60.7546 117.457 60.9835C117.965 61.2044 118.333 61.5088 118.564 61.8964C118.794 62.2841 118.91 62.7234 118.911 63.2143C118.912 63.7053 118.79 64.1608 118.545 64.5808C118.301 64.993 117.921 65.3301 117.407 65.5921C116.901 65.8463 116.252 65.974 115.46 65.9751ZM123.26 65.9635C122.579 65.9645 121.969 65.7991 121.43 65.4673C120.891 65.1277 120.466 64.6373 120.156 63.9964C119.846 63.3555 119.69 62.5797 119.688 61.6691C119.687 60.7584 119.839 59.9822 120.147 59.3403C120.455 58.6985 120.877 58.2109 121.415 57.8775C121.953 57.5362 122.562 57.365 123.243 57.364C123.932 57.363 124.542 57.5323 125.073 57.872C125.612 58.2038 126.037 58.6901 126.347 59.3311C126.657 59.972 126.813 60.7478 126.815 61.6584C126.817 62.569 126.664 63.3453 126.357 63.9871C126.049 64.629 125.626 65.1206 125.089 65.4619C124.559 65.7952 123.949 65.9624 123.26 65.9635ZM123.257 64.3362C123.582 64.3357 123.863 64.2443 124.1 64.0618C124.345 63.8793 124.534 63.59 124.668 63.1938C124.81 62.7977 124.88 62.2869 124.879 61.6613C124.878 61.0357 124.805 60.5251 124.662 60.1294C124.527 59.7337 124.336 59.4449 124.09 59.2632C123.852 59.0814 123.571 58.9908 123.246 58.9912C122.93 58.9917 122.649 59.0832 122.404 59.2657C122.166 59.4482 121.977 59.7375 121.835 60.1336C121.701 60.5297 121.635 61.0406 121.636 61.6661C121.638 62.2917 121.706 62.8023 121.841 63.1981C121.985 63.5938 122.175 63.8825 122.413 64.0643C122.659 64.2461 122.94 64.3367 123.257 64.3362ZM131.322 65.9514C130.641 65.9524 130.031 65.7871 129.492 65.4553C128.953 65.1156 128.528 64.6253 128.218 63.9843C127.908 63.3434 127.752 62.5676 127.75 61.657C127.748 60.7464 127.901 59.9701 128.209 59.3283C128.516 58.6864 128.939 58.1988 129.477 57.8654C130.014 57.5241 130.624 57.353 131.305 57.3519C131.994 57.3509 132.604 57.5202 133.135 57.8599C133.674 58.1917 134.099 58.6781 134.409 59.319C134.719 59.9599 134.875 60.7357 134.877 61.6464C134.878 62.557 134.726 63.3332 134.418 63.9751C134.111 64.6169 133.688 65.1085 133.15 65.4498C132.62 65.7832 132.011 65.9504 131.322 65.9514ZM131.319 64.3242C131.643 64.3237 131.924 64.2322 132.161 64.0497C132.407 63.8672 132.596 63.5779 132.73 63.1818C132.872 62.7857 132.942 62.2748 132.941 61.6492C132.939 61.0237 132.867 60.513 132.724 60.1173C132.588 59.7216 132.398 59.4329 132.152 59.2511C131.914 59.0693 131.633 58.9787 131.308 58.9792C130.991 58.9797 130.71 59.0711 130.465 59.2536C130.228 59.4361 130.039 59.7254 129.897 60.1216C129.763 60.5177 129.697 61.0285 129.698 61.6541C129.699 62.2797 129.768 62.7903 129.903 63.186C130.046 63.5817 130.237 63.8705 130.475 64.0522C130.721 64.234 131.002 64.3246 131.319 64.3242ZM139.383 65.9394C138.702 65.9404 138.092 65.775 137.553 65.4432C137.014 65.1035 136.59 64.6132 136.279 63.9723C135.969 63.3314 135.813 62.5556 135.812 61.645C135.81 60.7343 135.963 59.9581 136.27 59.3162C136.578 58.6744 137 58.1867 137.538 57.8534C138.076 57.5121 138.685 57.3409 139.366 57.3399C140.055 57.3389 140.665 57.5082 141.196 57.8479C141.736 58.1797 142.16 58.666 142.47 59.307C142.78 59.9479 142.936 60.7237 142.938 61.6343C142.94 62.5449 142.787 63.3212 142.48 63.963C142.172 64.6049 141.749 65.0965 141.212 65.4378C140.682 65.7711 140.072 65.9383 139.383 65.9394ZM139.38 64.3121C139.705 64.3116 139.986 64.2201 140.223 64.0377C140.468 63.8552 140.658 63.5659 140.791 63.1697C140.933 62.7736 141.003 62.2628 141.002 61.6372C141.001 61.0116 140.929 60.501 140.785 60.1053C140.65 59.7096 140.459 59.4208 140.213 59.2391C139.975 59.0573 139.694 58.9666 139.369 58.9671C139.053 58.9676 138.772 59.0591 138.527 59.2416C138.29 59.4241 138.1 59.7134 137.958 60.1095C137.825 60.5056 137.758 61.0165 137.759 61.642C137.761 62.2676 137.829 62.7782 137.964 63.174C138.108 63.5697 138.298 63.8584 138.536 64.0402C138.782 64.2219 139.063 64.3126 139.38 64.3121ZM147.768 65.7843L147.751 57.4699L151.35 57.4645C152.094 57.4634 152.736 57.5852 153.275 57.8298C153.814 58.0666 154.23 58.4104 154.524 58.8613C154.818 59.3122 154.966 59.8505 154.967 60.476C154.968 61.0937 154.823 61.6284 154.531 62.0802C154.239 62.532 153.824 62.881 153.286 63.1273C152.748 63.3657 152.107 63.4854 151.362 63.4865L148.832 63.4903L149.686 62.6219L149.692 65.7814L147.768 65.7843ZM149.686 62.8357L148.829 61.9224L151.252 61.9188C151.846 61.9179 152.289 61.7906 152.582 61.5367C152.874 61.2829 153.02 60.9303 153.019 60.479C153.018 60.0197 152.871 59.6636 152.577 59.4106C152.284 59.1577 151.84 59.0316 151.246 59.0325L148.823 59.0361L149.677 58.1203L149.686 62.8357ZM159.298 65.8621C158.609 65.8631 157.995 65.7254 157.456 65.4491C156.917 65.1648 156.492 64.7735 156.182 64.2751C155.88 63.7767 155.729 63.2108 155.728 62.5773C155.726 61.9359 155.876 61.3695 156.176 60.8781C156.483 60.3788 156.906 59.9901 157.444 59.7122C157.982 59.4263 158.595 59.2828 159.284 59.2818C159.957 59.2808 160.544 59.4225 161.043 59.7068C161.543 59.9832 161.912 60.3825 162.15 60.9048L160.714 61.679C160.548 61.3783 160.337 61.1569 160.084 61.0148C159.838 60.8726 159.568 60.8017 159.276 60.8022C158.959 60.8027 158.674 60.8743 158.421 61.0173C158.168 61.1602 157.966 61.3624 157.816 61.6239C157.674 61.8855 157.604 62.2023 157.604 62.5745C157.605 62.9466 157.677 63.2633 157.82 63.5244C157.971 63.7854 158.173 63.9871 158.427 64.1292C158.681 64.2714 158.966 64.3422 159.283 64.3417C159.576 64.3413 159.845 64.2736 160.09 64.1386C160.343 63.9957 160.552 63.7697 160.718 63.4606L162.157 64.2424C161.92 64.7575 161.553 65.1579 161.055 65.4437C160.556 65.7216 159.971 65.8611 159.298 65.8621ZM165.377 65.853C164.83 65.8538 164.304 65.7912 163.797 65.6653C163.298 65.5314 162.901 65.3657 162.608 65.1682L163.223 63.837C163.516 64.0187 163.861 64.1686 164.257 64.2868C164.661 64.397 165.057 64.4519 165.445 64.4513C165.873 64.4507 166.174 64.3987 166.348 64.2955C166.53 64.1923 166.62 64.0497 166.62 63.8675C166.62 63.7171 166.548 63.6063 166.406 63.5353C166.271 63.4563 166.089 63.3972 165.859 63.3579C165.629 63.3187 165.376 63.2795 165.098 63.2403C164.829 63.2011 164.556 63.15 164.279 63.0871C164.001 63.0163 163.748 62.9137 163.518 62.7794C163.288 62.6452 163.101 62.4633 162.958 62.2339C162.823 62.0044 162.755 61.7076 162.755 61.3434C162.754 60.9395 162.868 60.583 163.097 60.2738C163.334 59.9647 163.674 59.7226 164.117 59.5478C164.56 59.365 165.09 59.2731 165.708 59.2722C166.144 59.2716 166.587 59.3184 167.039 59.4128C167.49 59.5071 167.867 59.6451 168.168 59.8268L167.553 61.1461C167.244 60.9645 166.931 60.8422 166.614 60.7793C166.305 60.7085 166.004 60.6733 165.711 60.6738C165.299 60.6744 164.998 60.7303 164.808 60.8414C164.619 60.9526 164.524 61.0952 164.524 61.2694C164.525 61.4278 164.592 61.5465 164.727 61.6255C164.87 61.7044 165.056 61.7675 165.286 61.8147C165.515 61.8618 165.765 61.905 166.034 61.9442C166.311 61.9755 166.589 62.0265 166.866 62.0974C167.143 62.1682 167.393 62.2708 167.615 62.4051C167.845 62.5314 168.031 62.7093 168.174 62.9387C168.317 63.1603 168.389 63.4531 168.39 63.8174C168.39 64.2133 168.272 64.5659 168.035 64.875C167.799 65.1763 167.455 65.4144 167.004 65.5892C166.56 65.7641 166.018 65.852 165.377 65.853ZM170.575 68.0545L168.805 68.0571C169.318 67.1616 169.684 66.2623 169.904 65.3592C170.132 64.4483 170.245 63.4939 170.243 62.4962C170.241 61.4984 170.124 60.5484 169.893 59.646C169.669 58.7357 169.299 57.8336 168.783 56.9396L170.552 56.9369C171.045 57.6409 171.419 58.4718 171.674 59.4296C171.929 60.3794 172.058 61.4007 172.06 62.4935C172.062 63.5862 171.938 64.6079 171.686 65.5585C171.435 66.5012 171.064 67.3332 170.575 68.0545Z" fill="black"/>
<path d="M182.88 61.8799H218.769" stroke="url(#paint0_linear_2300_3)" stroke-width="0.863039"/>
<path d="M35.8896 61.8857H0.000500917" stroke="url(#paint1_linear_2300_3)" stroke-width="0.863039"/>
<path d="M248.108 46.4405C247.289 45.203 246.653 43.7746 246.2 42.1554C245.762 40.5225 245.54 38.7668 245.536 36.8883C245.533 35.0097 245.747 33.2534 246.179 31.6192C246.625 29.9714 247.255 28.5411 248.07 27.3284L251.112 27.3238C250.258 28.8633 249.634 30.4161 249.243 31.9822C248.851 33.5346 248.657 35.1684 248.661 36.8836C248.664 38.5988 248.865 40.2388 249.263 41.8037C249.66 43.3549 250.29 44.899 251.15 46.436L248.108 46.4405ZM257.829 42.7097C256.835 42.7112 255.848 42.5834 254.867 42.3262C253.9 42.0554 253.069 41.6755 252.374 41.1865L253.675 38.6526C254.221 39.0465 254.847 39.3587 255.556 39.589C256.278 39.8194 257.006 39.934 257.741 39.9329C258.572 39.9316 259.225 39.7673 259.701 39.4399C260.176 39.1125 260.414 38.6561 260.412 38.0708C260.412 37.7032 260.316 37.3767 260.125 37.0911C259.933 36.8055 259.593 36.5882 259.102 36.4392C258.626 36.2902 257.952 36.2163 257.08 36.2176L253.425 36.2231L254.144 28.1769L262.863 28.1639L262.869 30.8183L255.334 30.8296L257.046 29.316L256.547 35.0545L254.829 33.5461L257.851 33.5416C259.267 33.5394 260.404 33.7351 261.262 34.1286C262.134 34.5085 262.768 35.0316 263.164 35.698C263.56 36.3645 263.759 37.1197 263.761 37.9637C263.763 38.8076 263.553 39.5907 263.133 40.3128C262.712 41.0213 262.06 41.6008 261.176 42.0513C260.306 42.4882 259.19 42.7077 257.829 42.7097ZM278.124 42.6794C276.98 42.6811 275.884 42.533 274.835 42.2351C273.786 41.9236 272.942 41.5233 272.301 41.0342L273.419 38.5414C274.032 38.9761 274.755 39.3357 275.585 39.6203C276.43 39.8913 277.281 40.0262 278.139 40.0249C278.792 40.0239 279.316 39.9619 279.711 39.8388C280.119 39.702 280.418 39.5178 280.608 39.2861C280.798 39.0544 280.893 38.7888 280.892 38.4893C280.891 38.1082 280.741 37.8089 280.441 37.5916C280.141 37.3606 279.746 37.1774 279.256 37.042C278.765 36.893 278.221 36.7577 277.621 36.6361C277.036 36.5009 276.443 36.3384 275.844 36.1487C275.258 35.959 274.72 35.7148 274.229 35.416C273.739 35.1173 273.336 34.7231 273.022 34.2335C272.722 33.7439 272.571 33.118 272.569 32.3557C272.568 31.5389 272.784 30.7967 273.218 30.129C273.666 29.4477 274.332 28.909 275.216 28.5129C276.114 28.1032 277.236 27.8973 278.584 27.8953C279.482 27.894 280.367 28.0016 281.239 28.2181C282.111 28.4209 282.88 28.7329 283.548 29.1539L282.532 31.6669C281.865 31.2868 281.197 31.0087 280.53 30.8328C279.862 30.6432 279.209 30.5489 278.569 30.5498C277.929 30.5508 277.405 30.6264 276.997 30.7768C276.589 30.9271 276.297 31.125 276.12 31.3702C275.944 31.6019 275.856 31.8743 275.856 32.1874C275.857 32.5549 276.008 32.8542 276.307 33.0852C276.607 33.3025 277.002 33.4789 277.493 33.6143C277.983 33.7497 278.521 33.885 279.107 34.0203C279.706 34.1555 280.298 34.3111 280.884 34.4872C281.483 34.6633 282.028 34.9007 282.519 35.1995C283.01 35.4982 283.405 35.8924 283.706 36.382C284.02 36.8716 284.178 37.4907 284.179 38.2394C284.181 39.0426 283.958 39.778 283.51 40.4457C283.062 41.1134 282.389 41.6521 281.491 42.0618C280.607 42.4715 279.485 42.6774 278.124 42.6794ZM287.04 42.421L287.018 31.4356L290.203 31.4309L290.225 42.4163L287.04 42.421ZM288.608 29.9018C288.022 29.9027 287.545 29.7333 287.177 29.3935C286.809 29.0537 286.624 28.632 286.623 28.1283C286.622 27.6247 286.805 27.2024 287.172 26.8615C287.539 26.5207 288.015 26.3498 288.6 26.3489C289.186 26.348 289.663 26.5107 290.031 26.8368C290.399 27.1494 290.583 27.5575 290.584 28.0612C290.586 28.592 290.403 29.0347 290.036 29.3892C289.683 29.7301 289.206 29.9009 288.608 29.9018ZM298.715 42.5669C297.681 42.5685 296.748 42.3384 295.917 41.8769C295.085 41.4017 294.424 40.7424 293.932 39.8992C293.454 39.0559 293.214 38.0625 293.211 36.9191C293.209 35.762 293.445 34.7611 293.92 33.9164C294.408 33.0717 295.067 32.4173 295.897 31.9532C296.726 31.4892 297.658 31.2564 298.693 31.2548C299.618 31.2534 300.429 31.4564 301.124 31.8638C301.819 32.2711 302.358 32.8897 302.741 33.7195C303.124 34.5493 303.316 35.6108 303.319 36.904C303.321 38.1836 303.14 39.2456 302.774 40.0902C302.408 40.9211 301.878 41.5412 301.185 41.9507C300.505 42.3601 299.682 42.5655 298.715 42.5669ZM299.262 39.9525C299.779 39.9517 300.248 39.8285 300.67 39.5828C301.091 39.3372 301.424 38.9895 301.668 38.54C301.926 38.0767 302.054 37.532 302.053 36.9059C302.052 36.2661 301.921 35.7218 301.662 35.2729C301.416 34.8241 301.081 34.4775 300.659 34.2331C300.237 33.9887 299.767 33.8668 299.249 33.8676C298.718 33.8684 298.242 33.9916 297.821 34.2373C297.399 34.483 297.06 34.8306 296.802 35.2802C296.558 35.7298 296.436 36.2745 296.438 36.9143C296.439 37.5404 296.562 38.0848 296.808 38.5472C297.068 38.9961 297.409 39.3427 297.831 39.5871C298.254 39.8315 298.731 39.9533 299.262 39.9525ZM302.146 42.3984L302.141 40.1524L302.196 36.8852L301.985 33.6389L301.972 27.2478L305.158 27.243L305.188 42.3939L302.146 42.3984ZM314.405 42.5435C313.153 42.5453 312.05 42.302 311.096 41.8133C310.155 41.3247 309.426 40.6587 308.907 39.8155C308.388 38.9587 308.127 37.9858 308.125 36.8968C308.123 35.7942 308.373 34.8205 308.875 33.9757C309.39 33.1174 310.09 32.4493 310.974 31.9715C311.858 31.4802 312.858 31.2336 313.974 31.232C315.049 31.2304 316.016 31.4603 316.875 31.9219C317.747 32.3698 318.436 33.0222 318.941 33.879C319.447 34.7222 319.7 35.736 319.703 36.9203C319.703 37.0428 319.696 37.1858 319.683 37.3491C319.67 37.4989 319.657 37.6419 319.643 37.778L310.72 37.7913L310.716 35.9332L317.965 35.9224L316.741 36.4755C316.74 35.9038 316.623 35.4071 316.391 34.9855C316.159 34.5638 315.838 34.2376 315.429 34.0068C315.02 33.7624 314.544 33.6406 313.999 33.6414C313.455 33.6422 312.972 33.7654 312.55 34.0111C312.142 34.2431 311.823 34.5771 311.593 35.013C311.362 35.4354 311.247 35.9392 311.248 36.5246L311.249 37.0146C311.251 37.6136 311.381 38.1443 311.641 38.6067C311.914 39.0555 312.289 39.4021 312.766 39.6464C313.256 39.8771 313.828 39.9919 314.482 39.991C315.067 39.9901 315.577 39.9008 316.013 39.7232C316.461 39.5456 316.869 39.2795 317.236 38.9251L318.935 40.7602C318.432 41.3327 317.8 41.7761 317.038 42.0903C316.277 42.3909 315.399 42.542 314.405 42.5435ZM324.436 46.3264L321.393 46.331C322.275 44.7914 322.905 43.2454 323.283 41.693C323.674 40.127 323.869 38.4863 323.865 36.7712C323.862 35.056 323.661 33.4227 323.263 31.8715C322.879 30.3066 322.243 28.7557 321.355 27.2188L324.397 27.2143C325.244 28.4245 325.886 29.8529 326.325 31.4994C326.764 33.1322 326.985 34.8879 326.989 36.7665C326.993 38.645 326.779 40.4014 326.346 42.0356C325.914 43.6561 325.277 45.0864 324.436 46.3264Z" fill="#490606"/>
<defs>
<linearGradient id="paint0_linear_2300_3" x1="213.386" y1="62.3798" x2="183.478" y2="62.3799" gradientUnits="userSpaceOnUse">
<stop stop-color="#666666" stop-opacity="0"/>
<stop offset="1"/>
</linearGradient>
<linearGradient id="paint1_linear_2300_3" x1="5.38387" y1="62.3857" x2="35.2915" y2="62.3857" gradientUnits="userSpaceOnUse">
<stop stop-color="#666666" stop-opacity="0"/>
<stop offset="1"/>
</linearGradient>
</defs>
</svg>
