<svg width="207" height="298" viewBox="0 0 207 298" fill="none" xmlns="http://www.w3.org/2000/svg">
<path d="M23.6821 13.8545L182.618 13.8545C194.805 13.8546 204.685 23.7347 204.685 35.9219L204.685 163.48L1.61475 163.48L1.61475 35.9219C1.61481 23.7346 11.4949 13.8546 23.6821 13.8545Z" fill="url(#paint0_linear_2599_42)" stroke="#1B8699" stroke-width="3.22934"/>
<path d="M0.000976562 165.096L206.3 165.096V288.887H0.000976563L0.000976562 165.096Z" fill="#F6F3F3"/>
<path d="M0.000488281 286.734H206.299V286.734C206.299 292.679 201.48 297.499 195.535 297.499H10.7649C4.81989 297.499 0.000488281 292.679 0.000488281 286.734V286.734Z" fill="url(#paint1_linear_2599_42)"/>
<path d="M0.000488281 286.734H100.498C106.443 286.734 111.263 291.554 111.263 297.499V297.499H10.7649C4.81991 297.499 0.000488281 292.679 0.000488281 286.734V286.734Z" fill="#1B8699"/>
<rect x="22.2261" width="161.206" height="22.6054" rx="11.3027" fill="#1B8699"/>
<path d="M35.9401 15.8027L35.9401 6.76059L38.0327 6.76059L38.0327 15.8027L35.9401 15.8027ZM40.1786 15.8027L40.1786 6.76059L41.9095 6.76059L45.7589 13.1418L44.8418 13.1418L48.6266 6.76059L50.3446 6.76059L50.3704 15.8027L48.407 15.8027L48.394 9.77033L48.7557 9.77033L45.7331 14.8468L44.7901 14.8468L41.7029 9.77033L42.142 9.77033L42.142 15.8027L40.1786 15.8027ZM52.5157 15.8027L52.5157 6.76059L54.6083 6.76059L54.6083 14.0976L59.1423 14.0976L59.1423 15.8027L52.5157 15.8027ZM63.9697 15.8027L63.9697 6.76059L65.7007 6.76059L69.55 13.1418L68.6329 13.1418L72.4177 6.76059L74.1357 6.76059L74.1615 15.8027L72.1981 15.8027L72.1852 9.77033L72.5469 9.77033L69.5242 14.8468L68.5812 14.8468L65.494 9.77033L65.9332 9.77033L65.9332 15.8027L63.9697 15.8027ZM80.6987 15.9577C79.9839 15.9577 79.3209 15.8415 78.7094 15.609C78.1066 15.3765 77.5813 15.0492 77.1335 14.6273C76.6943 14.2053 76.3499 13.7101 76.1001 13.1418C75.859 12.5734 75.7384 11.9534 75.7384 11.2817C75.7384 10.61 75.859 9.98993 76.1001 9.42156C76.3499 8.8532 76.6986 8.35804 77.1464 7.93607C77.5942 7.5141 78.1195 7.18686 78.7224 6.95435C79.3252 6.72184 79.9796 6.60558 80.6858 6.60558C81.4005 6.60558 82.055 6.72184 82.6492 6.95435C83.252 7.18686 83.773 7.5141 84.2122 7.93607C84.66 8.35804 85.0088 8.8532 85.2585 9.42156C85.5083 9.98132 85.6331 10.6013 85.6331 11.2817C85.6331 11.9534 85.5083 12.5777 85.2585 13.1547C85.0088 13.723 84.66 14.2182 84.2122 14.6402C83.773 15.0535 83.252 15.3765 82.6492 15.609C82.055 15.8415 81.4049 15.9577 80.6987 15.9577ZM80.6858 14.1751C81.0905 14.1751 81.4608 14.1063 81.7967 13.9685C82.1411 13.8307 82.4425 13.6326 82.7009 13.3743C82.9592 13.1159 83.1573 12.8102 83.2951 12.4571C83.4415 12.1041 83.5147 11.7122 83.5147 11.2817C83.5147 10.8511 83.4415 10.4593 83.2951 10.1062C83.1573 9.75311 82.9592 9.4474 82.7009 9.18905C82.4512 8.9307 82.1541 8.73264 81.8096 8.59485C81.4651 8.45707 81.0905 8.38818 80.6858 8.38818C80.281 8.38818 79.9064 8.45707 79.562 8.59485C79.2261 8.73264 78.929 8.9307 78.6707 9.18905C78.4123 9.4474 78.21 9.75311 78.0636 10.1062C77.9258 10.4593 77.8569 10.8511 77.8569 11.2817C77.8569 11.7036 77.9258 12.0955 78.0636 12.4571C78.21 12.8102 78.408 13.1159 78.6578 13.3743C78.9161 13.6326 79.2175 13.8307 79.562 13.9685C79.9064 14.1063 80.281 14.1751 80.6858 14.1751ZM91.5848 15.9577C90.8787 15.9577 90.2199 15.8415 89.6084 15.609C89.0056 15.3765 88.4803 15.0492 88.0325 14.6273C87.5933 14.2053 87.2489 13.7101 86.9991 13.1418C86.758 12.5734 86.6375 11.9534 86.6375 11.2817C86.6375 10.61 86.758 9.98993 86.9991 9.42156C87.2489 8.8532 87.5976 8.35804 88.0454 7.93607C88.4932 7.5141 89.0186 7.18686 89.6214 6.95435C90.2242 6.72184 90.8787 6.60558 91.5848 6.60558C92.2996 6.60558 92.954 6.72184 93.5482 6.95435C94.151 7.18686 94.672 7.5141 95.1112 7.93607C95.559 8.34942 95.9078 8.84028 96.1575 9.40865C96.4073 9.97701 96.5321 10.6013 96.5321 11.2817C96.5321 11.9534 96.4073 12.5777 96.1575 13.1547C95.9078 13.723 95.559 14.2182 95.1112 14.6402C94.672 15.0535 94.151 15.3765 93.5482 15.609C92.954 15.8415 92.2996 15.9577 91.5848 15.9577ZM94.5429 17.8824C94.1898 17.8824 93.8539 17.8437 93.5353 17.7662C93.2253 17.6887 92.9153 17.5638 92.6053 17.3916C92.3039 17.2193 91.9852 16.9868 91.6494 16.694C91.3221 16.4012 90.9648 16.0396 90.5772 15.609L92.7732 15.0535C93.0057 15.3722 93.221 15.6262 93.4191 15.8156C93.6171 16.0051 93.8066 16.1386 93.9874 16.2161C94.1769 16.2936 94.3749 16.3323 94.5816 16.3323C95.1328 16.3323 95.6236 16.1084 96.0542 15.6606L96.9842 16.7715C96.3728 17.5121 95.559 17.8824 94.5429 17.8824ZM91.5848 14.1751C91.9895 14.1751 92.3598 14.1063 92.6957 13.9685C93.0402 13.8307 93.3416 13.6326 93.5999 13.3743C93.8583 13.1159 94.0563 12.8102 94.1941 12.4571C94.3405 12.0955 94.4137 11.7036 94.4137 11.2817C94.4137 10.8511 94.3405 10.4593 94.1941 10.1062C94.0563 9.75311 93.8583 9.4474 93.5999 9.18905C93.3416 8.9307 93.0402 8.73264 92.6957 8.59485C92.3598 8.45707 91.9895 8.38818 91.5848 8.38818C91.1801 8.38818 90.8055 8.45707 90.461 8.59485C90.1165 8.73264 89.8151 8.9307 89.5568 9.18905C89.307 9.4474 89.109 9.75311 88.9626 10.1062C88.8248 10.4593 88.7559 10.8511 88.7559 11.2817C88.7559 11.7036 88.8248 12.0955 88.9626 12.4571C89.109 12.8102 89.307 13.1159 89.5568 13.3743C89.8151 13.6326 90.1165 13.8307 90.461 13.9685C90.8055 14.1063 91.1801 14.1751 91.5848 14.1751ZM101.363 12.9738L101.363 11.3592L105.018 11.3592L105.018 12.9738L101.363 12.9738ZM112.91 15.9577C112.281 15.9577 111.657 15.8759 111.037 15.7123C110.426 15.5401 109.9 15.299 109.461 14.9889L110.288 13.3872C110.632 13.6369 111.028 13.835 111.476 13.9814C111.933 14.1278 112.393 14.201 112.858 14.201C113.384 14.201 113.797 14.0976 114.098 13.891C114.4 13.6843 114.551 13.3958 114.551 13.0255C114.551 12.793 114.49 12.5863 114.37 12.4055C114.249 12.2246 114.034 12.0868 113.724 11.9921C113.422 11.8974 112.996 11.85 112.445 11.85L110.133 11.85L110.598 6.76059L116.114 6.76059L116.114 8.43984L111.347 8.43984L112.432 7.48396L112.109 11.1137L111.024 10.1579L112.936 10.1579C113.831 10.1579 114.551 10.2827 115.093 10.5325C115.644 10.7736 116.045 11.1051 116.294 11.5271C116.544 11.9491 116.669 12.427 116.669 12.9609C116.669 13.4948 116.535 13.99 116.269 14.4464C116.002 14.8942 115.588 15.2602 115.028 15.5444C114.477 15.82 113.771 15.9577 112.91 15.9577ZM121.393 15.9577C120.653 15.9577 119.99 15.7769 119.404 15.4152C118.818 15.0449 118.358 14.511 118.022 13.8135C117.686 13.1159 117.518 12.272 117.518 11.2817C117.518 10.2913 117.686 9.4474 118.022 8.74986C118.358 8.05232 118.818 7.52271 119.404 7.16103C119.99 6.79073 120.653 6.60558 121.393 6.60558C122.142 6.60558 122.805 6.79073 123.382 7.16103C123.968 7.52271 124.429 8.05232 124.765 8.74986C125.1 9.4474 125.268 10.2913 125.268 11.2817C125.268 12.272 125.1 13.1159 124.765 13.8135C124.429 14.511 123.968 15.0449 123.382 15.4152C122.805 15.7769 122.142 15.9577 121.393 15.9577ZM121.393 14.1881C121.746 14.1881 122.052 14.089 122.31 13.891C122.577 13.6929 122.784 13.3786 122.93 12.948C123.085 12.5174 123.163 11.962 123.163 11.2817C123.163 10.6013 123.085 10.0459 122.93 9.61532C122.784 9.18475 122.577 8.87042 122.31 8.67236C122.052 8.47429 121.746 8.37526 121.393 8.37526C121.049 8.37526 120.743 8.47429 120.476 8.67236C120.218 8.87042 120.011 9.18475 119.856 9.61532C119.71 10.0459 119.636 10.6013 119.636 11.2817C119.636 11.962 119.71 12.5174 119.856 12.948C120.011 13.3786 120.218 13.6929 120.476 13.891C120.743 14.089 121.049 14.1881 121.393 14.1881ZM130.16 15.9577C129.42 15.9577 128.757 15.7769 128.171 15.4152C127.585 15.0449 127.125 14.511 126.789 13.8135C126.453 13.1159 126.285 12.272 126.285 11.2817C126.285 10.2913 126.453 9.4474 126.789 8.74986C127.125 8.05232 127.585 7.52271 128.171 7.16103C128.757 6.79073 129.42 6.60558 130.16 6.60558C130.91 6.60558 131.573 6.79073 132.15 7.16103C132.735 7.52271 133.196 8.05232 133.532 8.74986C133.868 9.4474 134.036 10.2913 134.036 11.2817C134.036 12.272 133.868 13.1159 133.532 13.8135C133.196 14.511 132.735 15.0449 132.15 15.4152C131.573 15.7769 130.91 15.9577 130.16 15.9577ZM130.16 14.1881C130.513 14.1881 130.819 14.089 131.077 13.891C131.344 13.6929 131.551 13.3786 131.697 12.948C131.853 12.5174 131.93 11.962 131.93 11.2817C131.93 10.6013 131.853 10.0459 131.697 9.61532C131.551 9.18475 131.344 8.87042 131.077 8.67236C130.819 8.47429 130.513 8.37526 130.16 8.37526C129.816 8.37526 129.51 8.47429 129.243 8.67236C128.985 8.87042 128.778 9.18475 128.623 9.61532C128.477 10.0459 128.404 10.6013 128.404 11.2817C128.404 11.962 128.477 12.5174 128.623 12.948C128.778 13.3786 128.985 13.6929 129.243 13.891C129.51 14.089 129.816 14.1881 130.16 14.1881ZM138.927 15.9577C138.187 15.9577 137.524 15.7769 136.938 15.4152C136.353 15.0449 135.892 14.511 135.556 13.8135C135.22 13.1159 135.052 12.272 135.052 11.2817C135.052 10.2913 135.22 9.4474 135.556 8.74986C135.892 8.05232 136.353 7.52271 136.938 7.16103C137.524 6.79073 138.187 6.60558 138.927 6.60558C139.677 6.60558 140.34 6.79073 140.917 7.16103C141.502 7.52271 141.963 8.05232 142.299 8.74986C142.635 9.4474 142.803 10.2913 142.803 11.2817C142.803 12.272 142.635 13.1159 142.299 13.8135C141.963 14.511 141.502 15.0449 140.917 15.4152C140.34 15.7769 139.677 15.9577 138.927 15.9577ZM138.927 14.1881C139.281 14.1881 139.586 14.089 139.845 13.891C140.112 13.6929 140.318 13.3786 140.465 12.948C140.62 12.5174 140.697 11.962 140.697 11.2817C140.697 10.6013 140.62 10.0459 140.465 9.61532C140.318 9.18474 140.112 8.87042 139.845 8.67236C139.586 8.47429 139.281 8.37526 138.927 8.37526C138.583 8.37526 138.277 8.47429 138.01 8.67236C137.752 8.87042 137.545 9.18474 137.39 9.61532C137.244 10.0459 137.171 10.6013 137.171 11.2817C137.171 11.962 137.244 12.5174 137.39 12.948C137.545 13.3786 137.752 13.6929 138.01 13.891C138.277 14.089 138.583 14.1881 138.927 14.1881ZM148.046 15.8027L148.046 6.76059L151.96 6.76059C152.769 6.76059 153.467 6.89407 154.053 7.16103C154.638 7.41937 155.09 7.79398 155.409 8.28484C155.728 8.7757 155.887 9.36128 155.887 10.0416C155.887 10.7133 155.728 11.2946 155.409 11.7854C155.09 12.2763 154.638 12.6552 154.053 12.9222C153.467 13.1805 152.769 13.3097 151.96 13.3097L149.209 13.3097L150.139 12.3667L150.139 15.8027L148.046 15.8027ZM150.139 12.5992L149.209 11.6046L151.844 11.6046C152.49 11.6046 152.972 11.4668 153.29 11.1912C153.609 10.9157 153.768 10.5325 153.768 10.0416C153.768 9.54213 153.609 9.1546 153.29 8.87903C152.972 8.60346 152.49 8.46568 151.844 8.46568L149.209 8.46568L150.139 7.47104L150.139 12.5992ZM160.585 15.9061C159.835 15.9061 159.168 15.7554 158.582 15.454C157.997 15.1439 157.536 14.7177 157.2 14.1751C156.873 13.6326 156.709 13.0169 156.709 12.328C156.709 11.6304 156.873 11.0147 157.2 10.4808C157.536 9.93826 157.997 9.51629 158.582 9.21489C159.168 8.90487 159.835 8.74986 160.585 8.74986C161.317 8.74986 161.954 8.90487 162.496 9.21488C163.039 9.51629 163.439 9.95117 163.698 10.5195L162.135 11.3592C161.954 11.0319 161.726 10.7908 161.45 10.6358C161.183 10.4808 160.89 10.4033 160.572 10.4033C160.227 10.4033 159.917 10.4808 159.642 10.6358C159.366 10.7908 159.146 11.0104 158.983 11.2946C158.828 11.5788 158.75 11.9232 158.75 12.328C158.75 12.7327 158.828 13.0772 158.983 13.3614C159.146 13.6455 159.366 13.8651 159.642 14.0201C159.917 14.1751 160.227 14.2527 160.572 14.2527C160.89 14.2527 161.183 14.1795 161.45 14.0331C161.726 13.878 161.954 13.6326 162.135 13.2968L163.698 14.1493C163.439 14.7091 163.039 15.1439 162.496 15.454C161.954 15.7554 161.317 15.9061 160.585 15.9061ZM167.196 15.9061C166.602 15.9061 166.029 15.8372 165.478 15.6994C164.935 15.553 164.505 15.3722 164.186 15.1569L164.858 13.7101C165.177 13.9082 165.551 14.0718 165.982 14.201C166.421 14.3215 166.852 14.3818 167.273 14.3818C167.738 14.3818 168.066 14.3258 168.255 14.2139C168.453 14.1019 168.552 13.9469 168.552 13.7489C168.552 13.5853 168.475 13.4647 168.32 13.3872C168.173 13.3011 167.975 13.2365 167.726 13.1934C167.476 13.1504 167.2 13.1073 166.899 13.0643C166.606 13.0212 166.309 12.9652 166.008 12.8963C165.706 12.8188 165.431 12.7069 165.181 12.5605C164.931 12.4141 164.729 12.216 164.574 11.9663C164.427 11.7165 164.354 11.3936 164.354 10.9975C164.354 10.5583 164.479 10.1708 164.729 9.83492C164.987 9.49907 165.357 9.23641 165.84 9.04696C166.322 8.84889 166.899 8.74986 167.571 8.74986C168.044 8.74986 168.526 8.80153 169.017 8.90487C169.508 9.00821 169.917 9.15891 170.244 9.35698L169.573 10.7908C169.237 10.5927 168.897 10.4593 168.552 10.3904C168.216 10.3129 167.889 10.2741 167.571 10.2741C167.123 10.2741 166.796 10.3344 166.589 10.455C166.382 10.5755 166.279 10.7305 166.279 10.92C166.279 11.0922 166.352 11.2214 166.498 11.3075C166.653 11.3936 166.856 11.4625 167.106 11.5142C167.355 11.5658 167.627 11.6132 167.919 11.6563C168.221 11.6907 168.522 11.7467 168.824 11.8242C169.125 11.9017 169.396 12.0136 169.637 12.16C169.887 12.2978 170.089 12.4916 170.244 12.7413C170.399 12.9824 170.477 13.3011 170.477 13.6972C170.477 14.1278 170.348 14.511 170.089 14.8468C169.831 15.1741 169.457 15.4324 168.966 15.6219C168.483 15.8113 167.894 15.9061 167.196 15.9061Z" fill="white"/>
<rect y="137" width="206" height="40" fill="#1B8699"/>
<rect y="137" width="206" height="40" stroke="white"/>
<path d="M43.6135 166.756C42.0906 166.756 40.7271 166.384 39.5229 165.641C38.3187 164.879 37.3714 163.781 36.6807 162.347C35.9901 160.913 35.6448 159.177 35.6448 157.141C35.6448 155.104 35.9901 153.369 36.6807 151.934C37.3714 150.5 38.3187 149.411 39.5229 148.667C40.7271 147.906 42.0906 147.525 43.6135 147.525C45.1541 147.525 46.5177 147.906 47.7041 148.667C48.9083 149.411 49.8557 150.5 50.5463 151.934C51.2369 153.369 51.5823 155.104 51.5823 157.141C51.5823 159.177 51.2369 160.913 50.5463 162.347C49.8557 163.781 48.9083 164.879 47.7041 165.641C46.5177 166.384 45.1541 166.756 43.6135 166.756ZM43.6135 163.117C44.3396 163.117 44.9682 162.914 45.4995 162.506C46.0484 162.099 46.4734 161.453 46.7745 160.567C47.0932 159.682 47.2526 158.54 47.2526 157.141C47.2526 155.742 47.0932 154.6 46.7745 153.714C46.4734 152.829 46.0484 152.182 45.4995 151.775C44.9682 151.368 44.3396 151.164 43.6135 151.164C42.9052 151.164 42.2766 151.368 41.7276 151.775C41.1963 152.182 40.7713 152.829 40.4526 153.714C40.1516 154.6 40.001 155.742 40.001 157.141C40.001 158.54 40.1516 159.682 40.4526 160.567C40.7713 161.453 41.1963 162.099 41.7276 162.506C42.2766 162.914 42.9052 163.117 43.6135 163.117ZM59.9949 166.756C58.7022 166.756 57.4183 166.588 56.1433 166.252C54.886 165.897 53.8058 165.402 52.9027 164.764L54.6027 161.47C55.311 161.984 56.1256 162.391 57.0464 162.692C57.985 162.993 58.9324 163.144 59.8886 163.144C60.9688 163.144 61.8188 162.931 62.4386 162.506C63.0584 162.081 63.3683 161.488 63.3683 160.727C63.3683 160.248 63.2443 159.823 62.9964 159.452C62.7485 159.08 62.3058 158.796 61.6683 158.602C61.0485 158.407 60.1719 158.309 59.0386 158.309L54.2839 158.309L55.2402 147.844L66.5823 147.844L66.5823 151.297L56.7808 151.297L59.0121 149.331L58.348 156.795L56.1168 154.83L60.048 154.83C61.8897 154.83 63.3683 155.086 64.4839 155.6C65.6172 156.096 66.4407 156.778 66.9542 157.645C67.4678 158.513 67.7245 159.496 67.7245 160.594C67.7245 161.692 67.4501 162.71 66.9011 163.648C66.3521 164.569 65.5021 165.322 64.3511 165.906C63.2178 166.473 61.7657 166.756 59.9949 166.756ZM69.8157 160.62L69.8157 157.3L77.3329 157.3L77.3329 160.62L69.8157 160.62ZM82.4322 166.437L89.9228 149.491L91.0385 151.35L81.0244 151.35L82.9369 149.331L82.9369 154.378L79.1119 154.378L79.1119 147.844L94.0134 147.844L94.0134 150.633L87.1072 166.437L82.4322 166.437ZM101.81 166.756C100.517 166.756 99.2334 166.588 97.9584 166.252C96.7011 165.897 95.6209 165.402 94.7178 164.764L96.4178 161.47C97.1261 161.984 97.9407 162.391 98.8615 162.692C99.8 162.993 100.747 163.144 101.704 163.144C102.784 163.144 103.634 162.931 104.254 162.506C104.873 162.081 105.183 161.488 105.183 160.727C105.183 160.248 105.059 159.823 104.811 159.452C104.564 159.08 104.121 158.796 103.483 158.602C102.864 158.407 101.987 158.309 100.854 158.309L96.099 158.309L97.0553 147.844L108.397 147.844L108.397 151.297L98.5959 151.297L100.827 149.331L100.163 156.795L97.9318 154.83L101.863 154.83C103.705 154.83 105.183 155.086 106.299 155.6C107.432 156.096 108.256 156.778 108.769 157.645C109.283 158.513 109.54 159.496 109.54 160.594C109.54 161.692 109.265 162.71 108.716 163.648C108.167 164.569 107.317 165.322 106.166 165.906C105.033 166.473 103.581 166.756 101.81 166.756ZM119.254 166.756C117.731 166.756 116.368 166.384 115.164 165.641C113.959 164.879 113.012 163.781 112.321 162.347C111.631 160.913 111.285 159.177 111.285 157.141C111.285 155.104 111.631 153.369 112.321 151.934C113.012 150.5 113.959 149.411 115.164 148.667C116.368 147.906 117.731 147.525 119.254 147.525C120.795 147.525 122.158 147.906 123.345 148.667C124.549 149.411 125.496 150.5 126.187 151.934C126.878 153.369 127.223 155.104 127.223 157.141C127.223 159.177 126.878 160.913 126.187 162.347C125.496 163.781 124.549 164.879 123.345 165.641C122.158 166.384 120.795 166.756 119.254 166.756ZM119.254 163.117C119.98 163.117 120.609 162.914 121.14 162.506C121.689 162.099 122.114 161.453 122.415 160.567C122.734 159.682 122.893 158.54 122.893 157.141C122.893 155.742 122.734 154.6 122.415 153.714C122.114 152.829 121.689 152.182 121.14 151.775C120.609 151.368 119.98 151.164 119.254 151.164C118.546 151.164 117.917 151.368 117.368 151.775C116.837 152.182 116.412 152.829 116.093 153.714C115.792 154.6 115.642 155.742 115.642 157.141C115.642 158.54 115.792 159.682 116.093 160.567C116.412 161.453 116.837 162.099 117.368 162.506C117.917 162.914 118.546 163.117 119.254 163.117ZM156.014 151.934C157.148 151.934 158.148 152.165 159.016 152.625C159.901 153.068 160.592 153.758 161.088 154.697C161.601 155.618 161.858 156.804 161.858 158.256L161.858 166.437L157.714 166.437L157.714 158.894C157.714 157.743 157.475 156.893 156.997 156.344C156.519 155.795 155.846 155.52 154.978 155.52C154.376 155.52 153.836 155.662 153.358 155.945C152.88 156.211 152.508 156.618 152.242 157.167C151.977 157.716 151.844 158.416 151.844 159.266L151.844 166.437L147.7 166.437L147.7 158.894C147.7 157.743 147.461 156.893 146.983 156.344C146.523 155.795 145.859 155.52 144.991 155.52C144.389 155.52 143.849 155.662 143.371 155.945C142.892 156.211 142.521 156.618 142.255 157.167C141.989 157.716 141.857 158.416 141.857 159.266L141.857 166.437L137.713 166.437L137.713 152.147L141.671 152.147L141.671 156.052L140.927 154.909C141.423 153.935 142.122 153.201 143.025 152.705C143.946 152.191 144.991 151.934 146.16 151.934C147.47 151.934 148.612 152.271 149.586 152.944C150.578 153.599 151.233 154.608 151.552 155.972L150.091 155.573C150.569 154.458 151.33 153.572 152.375 152.917C153.438 152.262 154.651 151.934 156.014 151.934ZM165.572 166.437L165.572 146.728L169.716 146.728L169.716 166.437L165.572 166.437Z" fill="#F6F4F3"/>
<path d="M38.4569 198.625V189.522H39.4192V197.793H44.5172V198.625H38.4569ZM50.1986 198.625V197.116L50.1596 196.869V194.346C50.1596 193.765 49.9949 193.319 49.6654 193.007C49.3446 192.695 48.8634 192.539 48.2219 192.539C47.7797 192.539 47.3592 192.612 46.9604 192.76C46.5616 192.907 46.2234 193.102 45.946 193.345L45.5298 192.656C45.8766 192.361 46.2928 192.136 46.7783 191.979C47.2638 191.815 47.7754 191.732 48.3129 191.732C49.1972 191.732 49.8778 191.953 50.3547 192.396C50.8402 192.829 51.083 193.492 51.083 194.385V198.625H50.1986ZM47.8447 198.69C47.3332 198.69 46.8867 198.608 46.5052 198.443C46.1324 198.27 45.8463 198.035 45.6469 197.741C45.4475 197.437 45.3478 197.09 45.3478 196.7C45.3478 196.345 45.4301 196.024 45.5949 195.738C45.7683 195.443 46.0457 195.209 46.4272 195.036C46.8173 194.854 47.3375 194.763 47.9878 194.763H50.3417V195.452H48.0138C47.3549 195.452 46.8954 195.569 46.6353 195.803C46.3838 196.037 46.2581 196.327 46.2581 196.674C46.2581 197.064 46.4098 197.377 46.7133 197.611C47.0167 197.845 47.4416 197.962 47.9878 197.962C48.508 197.962 48.9545 197.845 49.3273 197.611C49.7088 197.368 49.9862 197.021 50.1596 196.57L50.3677 197.207C50.1943 197.658 49.8908 198.018 49.4573 198.287C49.0325 198.556 48.495 198.69 47.8447 198.69ZM53.5909 198.625V191.797H54.4752V193.657L54.3842 193.332C54.5749 192.812 54.8957 192.417 55.3466 192.149C55.7974 191.871 56.3566 191.732 57.0242 191.732V192.63C56.9895 192.63 56.9548 192.63 56.9202 192.63C56.8855 192.621 56.8508 192.617 56.8161 192.617C56.0965 192.617 55.533 192.838 55.1255 193.28C54.718 193.713 54.5142 194.333 54.5142 195.14V198.625H53.5909ZM61.5587 201.213C60.9344 201.213 60.3362 201.122 59.764 200.94C59.1918 200.758 58.7279 200.498 58.3725 200.16L58.8406 199.457C59.1614 199.743 59.5559 199.969 60.0241 200.134C60.5009 200.307 61.0038 200.394 61.5327 200.394C62.3997 200.394 63.0369 200.19 63.4444 199.782C63.8519 199.384 64.0556 198.759 64.0556 197.91V196.206L64.1857 195.036L64.0946 193.865V191.797H64.979V197.793C64.979 198.972 64.6885 199.834 64.1076 200.381C63.5354 200.936 62.6858 201.213 61.5587 201.213ZM61.3896 198.365C60.7394 198.365 60.1541 198.226 59.6339 197.949C59.1137 197.663 58.7019 197.268 58.3985 196.765C58.1037 196.262 57.9563 195.686 57.9563 195.036C57.9563 194.385 58.1037 193.813 58.3985 193.319C58.7019 192.816 59.1137 192.426 59.6339 192.149C60.1541 191.871 60.7394 191.732 61.3896 191.732C61.9965 191.732 62.5427 191.858 63.0282 192.11C63.5137 192.361 63.8996 192.734 64.1857 193.228C64.4718 193.722 64.6148 194.325 64.6148 195.036C64.6148 195.747 64.4718 196.349 64.1857 196.843C63.8996 197.338 63.5137 197.715 63.0282 197.975C62.5427 198.235 61.9965 198.365 61.3896 198.365ZM61.4806 197.546C61.9835 197.546 62.43 197.442 62.8201 197.233C63.2103 197.017 63.5181 196.722 63.7435 196.349C63.9689 195.968 64.0816 195.53 64.0816 195.036C64.0816 194.541 63.9689 194.108 63.7435 193.735C63.5181 193.362 63.2103 193.072 62.8201 192.864C62.43 192.647 61.9835 192.539 61.4806 192.539C60.9864 192.539 60.5399 192.647 60.1411 192.864C59.751 193.072 59.4432 193.362 59.2178 193.735C59.001 194.108 58.8926 194.541 58.8926 195.036C58.8926 195.53 59.001 195.968 59.2178 196.349C59.4432 196.722 59.751 197.017 60.1411 197.233C60.5399 197.442 60.9864 197.546 61.4806 197.546ZM70.4485 198.69C69.7375 198.69 69.1133 198.543 68.5758 198.248C68.0382 197.944 67.6177 197.533 67.3143 197.012C67.0108 196.484 66.8591 195.881 66.8591 195.205C66.8591 194.528 67.0022 193.93 67.2883 193.41C67.583 192.89 67.9819 192.482 68.4847 192.188C68.9963 191.884 69.5685 191.732 70.2014 191.732C70.843 191.732 71.4108 191.88 71.905 192.175C72.4079 192.461 72.8024 192.868 73.0885 193.397C73.3746 193.917 73.5176 194.52 73.5176 195.205C73.5176 195.248 73.5133 195.296 73.5046 195.348C73.5046 195.391 73.5046 195.439 73.5046 195.491H67.5614V194.802H73.0105L72.6463 195.075C72.6463 194.58 72.5379 194.143 72.3212 193.761C72.1131 193.371 71.827 193.068 71.4629 192.851C71.0987 192.634 70.6782 192.526 70.2014 192.526C69.7332 192.526 69.3127 192.634 68.9399 192.851C68.5671 193.068 68.2766 193.371 68.0686 193.761C67.8605 194.151 67.7564 194.598 67.7564 195.101V195.244C67.7564 195.764 67.8692 196.223 68.0946 196.622C68.3287 197.012 68.6495 197.32 69.0569 197.546C69.4731 197.762 69.9456 197.871 70.4745 197.871C70.8906 197.871 71.2765 197.797 71.6319 197.65C71.9961 197.502 72.3082 197.277 72.5683 196.973L73.0885 197.572C72.785 197.936 72.4036 198.213 71.944 198.404C71.4932 198.595 70.9947 198.69 70.4485 198.69ZM75.0169 195.504V194.698H78.4242V195.504H75.0169ZM84.74 198.703C84.0551 198.703 83.4222 198.59 82.8413 198.365C82.2604 198.131 81.7575 197.806 81.3327 197.39C80.9079 196.973 80.5741 196.484 80.3313 195.92C80.0972 195.356 79.9802 194.741 79.9802 194.073C79.9802 193.406 80.0972 192.79 80.3313 192.227C80.5741 191.663 80.9079 191.173 81.3327 190.757C81.7662 190.341 82.2734 190.02 82.8543 189.795C83.4352 189.561 84.0681 189.443 84.753 189.443C85.4119 189.443 86.0318 189.556 86.6127 189.782C87.1936 189.998 87.6835 190.328 88.0823 190.77L87.4711 191.381C87.0982 191 86.6864 190.727 86.2356 190.562C85.7847 190.389 85.2992 190.302 84.779 190.302C84.2328 190.302 83.7256 190.397 83.2574 190.588C82.7893 190.77 82.3818 191.034 82.035 191.381C81.6882 191.719 81.4151 192.118 81.2157 192.578C81.0249 193.029 80.9296 193.527 80.9296 194.073C80.9296 194.619 81.0249 195.122 81.2157 195.582C81.4151 196.033 81.6882 196.431 82.035 196.778C82.3818 197.116 82.7893 197.381 83.2574 197.572C83.7256 197.754 84.2328 197.845 84.779 197.845C85.2992 197.845 85.7847 197.758 86.2356 197.585C86.6864 197.411 87.0982 197.134 87.4711 196.752L88.0823 197.364C87.6835 197.806 87.1936 198.139 86.6127 198.365C86.0318 198.59 85.4076 198.703 84.74 198.703ZM94.1158 198.625V197.116L94.0768 196.869V194.346C94.0768 193.765 93.912 193.319 93.5826 193.007C93.2618 192.695 92.7806 192.539 92.139 192.539C91.6969 192.539 91.2764 192.612 90.8775 192.76C90.4787 192.907 90.1406 193.102 89.8632 193.345L89.447 192.656C89.7938 192.361 90.21 192.136 90.6955 191.979C91.181 191.815 91.6925 191.732 92.2301 191.732C93.1144 191.732 93.795 191.953 94.2718 192.396C94.7574 192.829 95.0001 193.492 95.0001 194.385V198.625H94.1158ZM91.7619 198.69C91.2503 198.69 90.8038 198.608 90.4224 198.443C90.0496 198.27 89.7634 198.035 89.564 197.741C89.3646 197.437 89.2649 197.09 89.2649 196.7C89.2649 196.345 89.3473 196.024 89.512 195.738C89.6854 195.443 89.9629 195.209 90.3443 195.036C90.7345 194.854 91.2547 194.763 91.9049 194.763H94.2588V195.452H91.9309C91.272 195.452 90.8125 195.569 90.5524 195.803C90.301 196.037 90.1753 196.327 90.1753 196.674C90.1753 197.064 90.327 197.377 90.6304 197.611C90.9339 197.845 91.3587 197.962 91.9049 197.962C92.4251 197.962 92.8716 197.845 93.2444 197.611C93.6259 197.368 93.9034 197.021 94.0768 196.57L94.2848 197.207C94.1114 197.658 93.808 198.018 93.3745 198.287C92.9497 198.556 92.4121 198.69 91.7619 198.69ZM101.032 198.69C100.443 198.69 99.9096 198.556 99.4328 198.287C98.9559 198.009 98.5744 197.615 98.2883 197.103C98.0109 196.583 97.8722 195.95 97.8722 195.205C97.8722 194.459 98.0109 193.831 98.2883 193.319C98.5658 192.799 98.9429 192.404 99.4198 192.136C99.8966 191.867 100.434 191.732 101.032 191.732C101.683 191.732 102.264 191.88 102.775 192.175C103.295 192.461 103.703 192.868 103.998 193.397C104.292 193.917 104.44 194.52 104.44 195.205C104.44 195.898 104.292 196.505 103.998 197.025C103.703 197.546 103.295 197.953 102.775 198.248C102.264 198.543 101.683 198.69 101.032 198.69ZM97.508 201.148V191.797H98.3924V193.852L98.3013 195.218L98.4314 196.596V201.148H97.508ZM100.967 197.871C101.453 197.871 101.886 197.762 102.268 197.546C102.649 197.32 102.953 197.008 103.178 196.609C103.404 196.202 103.516 195.734 103.516 195.205C103.516 194.676 103.404 194.212 103.178 193.813C102.953 193.414 102.649 193.102 102.268 192.877C101.886 192.651 101.453 192.539 100.967 192.539C100.482 192.539 100.044 192.651 99.6539 192.877C99.2724 193.102 98.9689 193.414 98.7435 193.813C98.5268 194.212 98.4184 194.676 98.4184 195.205C98.4184 195.734 98.5268 196.202 98.7435 196.609C98.9689 197.008 99.2724 197.32 99.6539 197.546C100.044 197.762 100.482 197.871 100.967 197.871ZM110.562 198.625V197.116L110.523 196.869V194.346C110.523 193.765 110.359 193.319 110.029 193.007C109.709 192.695 109.227 192.539 108.586 192.539C108.144 192.539 107.723 192.612 107.324 192.76C106.925 192.907 106.587 193.102 106.31 193.345L105.894 192.656C106.241 192.361 106.657 192.136 107.142 191.979C107.628 191.815 108.139 191.732 108.677 191.732C109.561 191.732 110.242 191.953 110.719 192.396C111.204 192.829 111.447 193.492 111.447 194.385V198.625H110.562ZM108.209 198.69C107.697 198.69 107.251 198.608 106.869 198.443C106.496 198.27 106.21 198.035 106.011 197.741C105.811 197.437 105.712 197.09 105.712 196.7C105.712 196.345 105.794 196.024 105.959 195.738C106.132 195.443 106.41 195.209 106.791 195.036C107.181 194.854 107.701 194.763 108.352 194.763H110.706V195.452H108.378C107.719 195.452 107.259 195.569 106.999 195.803C106.748 196.037 106.622 196.327 106.622 196.674C106.622 197.064 106.774 197.377 107.077 197.611C107.381 197.845 107.805 197.962 108.352 197.962C108.872 197.962 109.318 197.845 109.691 197.611C110.073 197.368 110.35 197.021 110.523 196.57L110.732 197.207C110.558 197.658 110.255 198.018 109.821 198.287C109.396 198.556 108.859 198.69 108.209 198.69ZM116.79 198.69C116.114 198.69 115.507 198.543 114.969 198.248C114.44 197.944 114.024 197.533 113.721 197.012C113.417 196.484 113.265 195.881 113.265 195.205C113.265 194.52 113.417 193.917 113.721 193.397C114.024 192.877 114.44 192.469 114.969 192.175C115.507 191.88 116.114 191.732 116.79 191.732C117.371 191.732 117.895 191.845 118.363 192.07C118.832 192.296 119.2 192.634 119.469 193.085L118.78 193.553C118.546 193.206 118.255 192.951 117.908 192.786C117.561 192.621 117.184 192.539 116.777 192.539C116.291 192.539 115.853 192.651 115.463 192.877C115.073 193.094 114.765 193.401 114.54 193.8C114.315 194.199 114.202 194.667 114.202 195.205C114.202 195.742 114.315 196.21 114.54 196.609C114.765 197.008 115.073 197.32 115.463 197.546C115.853 197.762 116.291 197.871 116.777 197.871C117.184 197.871 117.561 197.788 117.908 197.624C118.255 197.459 118.546 197.207 118.78 196.869L119.469 197.338C119.2 197.78 118.832 198.118 118.363 198.352C117.895 198.577 117.371 198.69 116.79 198.69ZM121.181 198.625V191.797H122.104V198.625H121.181ZM121.649 190.289C121.459 190.289 121.298 190.224 121.168 190.094C121.038 189.964 120.973 189.808 120.973 189.626C120.973 189.443 121.038 189.292 121.168 189.17C121.298 189.04 121.459 188.975 121.649 188.975C121.84 188.975 122 189.036 122.131 189.157C122.261 189.279 122.326 189.43 122.326 189.613C122.326 189.803 122.261 189.964 122.131 190.094C122.009 190.224 121.849 190.289 121.649 190.289ZM126.833 198.69C126.191 198.69 125.697 198.517 125.35 198.17C125.003 197.823 124.83 197.333 124.83 196.7V190.289H125.753V196.648C125.753 197.047 125.853 197.355 126.052 197.572C126.26 197.788 126.555 197.897 126.937 197.897C127.344 197.897 127.682 197.78 127.951 197.546L128.276 198.209C128.094 198.374 127.873 198.495 127.613 198.573C127.361 198.651 127.101 198.69 126.833 198.69ZM123.607 192.565V191.797H127.834V192.565H123.607ZM129.882 201.213C129.561 201.213 129.253 201.161 128.959 201.057C128.673 200.953 128.425 200.797 128.217 200.589L128.647 199.899C128.82 200.064 129.006 200.19 129.206 200.277C129.414 200.372 129.644 200.42 129.895 200.42C130.198 200.42 130.459 200.333 130.675 200.16C130.901 199.995 131.113 199.7 131.313 199.275L131.755 198.274L131.859 198.131L134.668 191.797H135.578L132.158 199.444C131.967 199.886 131.755 200.238 131.521 200.498C131.295 200.758 131.048 200.94 130.779 201.044C130.511 201.157 130.211 201.213 129.882 201.213ZM131.703 198.82L128.555 191.797H129.518L132.301 198.066L131.703 198.82ZM140.477 198.625V189.522H141.44V198.625H140.477ZM144.402 198.625V189.522H145.195L149.356 196.622H148.94L153.063 189.522H153.856V198.625H152.933V190.965H153.154L149.356 197.468H148.901L145.078 190.965H145.325V198.625H144.402ZM156.822 198.625V189.522H157.785V197.793H162.883V198.625H156.822ZM23.4808 217.703C22.7959 217.703 22.163 217.59 21.5821 217.365C21.0012 217.131 20.4983 216.806 20.0735 216.39C19.6487 215.973 19.3149 215.484 19.0721 214.92C18.838 214.356 18.721 213.741 18.721 213.073C18.721 212.406 18.838 211.79 19.0721 211.227C19.3149 210.663 19.6487 210.173 20.0735 209.757C20.507 209.341 21.0142 209.02 21.5951 208.795C22.176 208.561 22.8089 208.443 23.4938 208.443C24.1527 208.443 24.7726 208.556 25.3535 208.782C25.9344 208.998 26.4242 209.328 26.8231 209.77L26.2118 210.381C25.839 210 25.4272 209.727 24.9764 209.562C24.5255 209.389 24.04 209.302 23.5198 209.302C22.9736 209.302 22.4664 209.397 21.9982 209.588C21.53 209.77 21.1226 210.034 20.7758 210.381C20.429 210.719 20.1559 211.118 19.9564 211.578C19.7657 212.029 19.6703 212.527 19.6703 213.073C19.6703 213.619 19.7657 214.122 19.9564 214.582C20.1559 215.033 20.429 215.431 20.7758 215.778C21.1226 216.116 21.53 216.381 21.9982 216.572C22.4664 216.754 22.9736 216.845 23.5198 216.845C24.04 216.845 24.5255 216.758 24.9764 216.585C25.4272 216.411 25.839 216.134 26.2118 215.752L26.8231 216.364C26.4242 216.806 25.9344 217.139 25.3535 217.365C24.7726 217.59 24.1484 217.703 23.4808 217.703ZM31.1578 217.69C30.4989 217.69 29.905 217.543 29.3761 217.248C28.8559 216.944 28.4441 216.533 28.1406 216.012C27.8372 215.484 27.6855 214.881 27.6855 214.205C27.6855 213.52 27.8372 212.917 28.1406 212.397C28.4441 211.877 28.8559 211.469 29.3761 211.175C29.8963 210.88 30.4902 210.732 31.1578 210.732C31.834 210.732 32.4323 210.88 32.9525 211.175C33.4813 211.469 33.8932 211.877 34.1879 212.397C34.4914 212.917 34.6431 213.52 34.6431 214.205C34.6431 214.881 34.4914 215.484 34.1879 216.012C33.8932 216.533 33.4813 216.944 32.9525 217.248C32.4236 217.543 31.8254 217.69 31.1578 217.69ZM31.1578 216.871C31.652 216.871 32.0898 216.762 32.4713 216.546C32.8528 216.32 33.1519 216.008 33.3686 215.609C33.594 215.202 33.7068 214.734 33.7068 214.205C33.7068 213.667 33.594 213.199 33.3686 212.8C33.1519 212.401 32.8528 212.094 32.4713 211.877C32.0898 211.651 31.6563 211.539 31.1708 211.539C30.6853 211.539 30.2518 211.651 29.8703 211.877C29.4888 212.094 29.1854 212.401 28.9599 212.8C28.7345 213.199 28.6218 213.667 28.6218 214.205C28.6218 214.734 28.7345 215.202 28.9599 215.609C29.1854 216.008 29.4888 216.32 29.8703 216.546C30.2518 216.762 30.6809 216.871 31.1578 216.871ZM40.0136 210.732C40.5684 210.732 41.054 210.841 41.4701 211.057C41.8949 211.266 42.2244 211.586 42.4585 212.02C42.7012 212.453 42.8226 213 42.8226 213.658V217.625H41.8993V213.75C41.8993 213.03 41.7172 212.488 41.3531 212.124C40.9976 211.751 40.4947 211.565 39.8445 211.565C39.359 211.565 38.9341 211.664 38.57 211.864C38.2145 212.055 37.9371 212.336 37.7377 212.709C37.5469 213.073 37.4516 213.515 37.4516 214.036V217.625H36.5282V210.797H37.4126V212.67L37.2695 212.319C37.4863 211.825 37.8331 211.439 38.3099 211.162C38.7868 210.875 39.3546 210.732 40.0136 210.732ZM47.4756 217.69C46.834 217.69 46.3398 217.517 45.993 217.17C45.6462 216.823 45.4728 216.333 45.4728 215.7V209.289H46.3961V215.648C46.3961 216.047 46.4959 216.355 46.6953 216.572C46.9033 216.788 47.1981 216.897 47.5796 216.897C47.9871 216.897 48.3252 216.78 48.594 216.546L48.9191 217.209C48.737 217.374 48.516 217.495 48.2559 217.573C48.0044 217.651 47.7443 217.69 47.4756 217.69ZM44.2503 211.565V210.797H48.4769V211.565H44.2503ZM54.8786 217.625V216.116L54.8396 215.869V213.346C54.8396 212.765 54.6749 212.319 54.3454 212.007C54.0246 211.695 53.5435 211.539 52.9019 211.539C52.4597 211.539 52.0392 211.612 51.6404 211.76C51.2416 211.907 50.9035 212.102 50.626 212.345L50.2099 211.656C50.5567 211.361 50.9728 211.136 51.4583 210.979C51.9438 210.815 52.4554 210.732 52.9929 210.732C53.8773 210.732 54.5578 210.953 55.0347 211.396C55.5202 211.829 55.763 212.492 55.763 213.385V217.625H54.8786ZM52.5247 217.69C52.0132 217.69 51.5667 217.608 51.1852 217.443C50.8124 217.27 50.5263 217.035 50.3269 216.741C50.1275 216.437 50.0278 216.09 50.0278 215.7C50.0278 215.345 50.1101 215.024 50.2749 214.738C50.4483 214.443 50.7257 214.209 51.1072 214.036C51.4973 213.854 52.0175 213.763 52.6678 213.763H55.0217V214.452H52.6938C52.0349 214.452 51.5754 214.569 51.3153 214.803C51.0638 215.037 50.9381 215.327 50.9381 215.674C50.9381 216.064 51.0899 216.377 51.3933 216.611C51.6968 216.845 52.1216 216.962 52.6678 216.962C53.188 216.962 53.6345 216.845 54.0073 216.611C54.3888 216.368 54.6662 216.021 54.8396 215.57L55.0477 216.207C54.8743 216.658 54.5709 217.018 54.1374 217.287C53.7125 217.556 53.175 217.69 52.5247 217.69ZM58.2709 217.625V210.797H59.1943V217.625H58.2709ZM58.7391 209.289C58.5483 209.289 58.3879 209.224 58.2579 209.094C58.1278 208.964 58.0628 208.808 58.0628 208.626C58.0628 208.443 58.1278 208.292 58.2579 208.17C58.3879 208.04 58.5483 207.975 58.7391 207.975C58.9298 207.975 59.0902 208.036 59.2203 208.157C59.3503 208.279 59.4153 208.43 59.4153 208.613C59.4153 208.803 59.3503 208.964 59.2203 209.094C59.0989 209.224 58.9385 209.289 58.7391 209.289ZM65.2488 210.732C65.8037 210.732 66.2892 210.841 66.7053 211.057C67.1302 211.266 67.4596 211.586 67.6937 212.02C67.9365 212.453 68.0578 213 68.0578 213.658V217.625H67.1345V213.75C67.1345 213.03 66.9524 212.488 66.5883 212.124C66.2328 211.751 65.73 211.565 65.0797 211.565C64.5942 211.565 64.1694 211.664 63.8052 211.864C63.4498 212.055 63.1723 212.336 62.9729 212.709C62.7822 213.073 62.6868 213.515 62.6868 214.036V217.625H61.7634V210.797H62.6478V212.67L62.5047 212.319C62.7215 211.825 63.0683 211.439 63.5451 211.162C64.022 210.875 64.5899 210.732 65.2488 210.732ZM73.4521 217.69C72.7411 217.69 72.1169 217.543 71.5793 217.248C71.0418 216.944 70.6213 216.533 70.3179 216.012C70.0144 215.484 69.8627 214.881 69.8627 214.205C69.8627 213.528 70.0057 212.93 70.2919 212.41C70.5866 211.89 70.9855 211.482 71.4883 211.188C71.9998 210.884 72.5721 210.732 73.205 210.732C73.8465 210.732 74.4144 210.88 74.9086 211.175C75.4115 211.461 75.806 211.868 76.0921 212.397C76.3782 212.917 76.5212 213.52 76.5212 214.205C76.5212 214.248 76.5169 214.296 76.5082 214.348C76.5082 214.391 76.5082 214.439 76.5082 214.491H70.565V213.802H76.014L75.6499 214.075C75.6499 213.58 75.5415 213.143 75.3248 212.761C75.1167 212.371 74.8306 212.068 74.4665 211.851C74.1023 211.634 73.6818 211.526 73.205 211.526C72.7368 211.526 72.3163 211.634 71.9435 211.851C71.5707 212.068 71.2802 212.371 71.0722 212.761C70.8641 213.151 70.76 213.598 70.76 214.101V214.244C70.76 214.764 70.8727 215.223 71.0982 215.622C71.3323 216.012 71.653 216.32 72.0605 216.546C72.4767 216.762 72.9492 216.871 73.4781 216.871C73.8942 216.871 74.28 216.797 74.6355 216.65C74.9997 216.502 75.3118 216.277 75.5719 215.973L76.0921 216.572C75.7886 216.936 75.4071 217.213 74.9476 217.404C74.4968 217.595 73.9983 217.69 73.4521 217.69ZM78.4007 217.625V210.797H79.285V212.657L79.194 212.332C79.3847 211.812 79.7055 211.417 80.1563 211.149C80.6072 210.871 81.1664 210.732 81.834 210.732V211.63C81.7993 211.63 81.7646 211.63 81.7299 211.63C81.6952 211.621 81.6606 211.617 81.6259 211.617C80.9063 211.617 80.3427 211.838 79.9352 212.28C79.5277 212.713 79.324 213.333 79.324 214.14V217.625H78.4007ZM87.0241 217.625V210.797H87.9474V217.625H87.0241ZM87.4922 209.289C87.3015 209.289 87.1411 209.224 87.0111 209.094C86.881 208.964 86.816 208.808 86.816 208.626C86.816 208.443 86.881 208.292 87.0111 208.17C87.1411 208.04 87.3015 207.975 87.4922 207.975C87.683 207.975 87.8434 208.036 87.9734 208.157C88.1035 208.279 88.1685 208.43 88.1685 208.613C88.1685 208.803 88.1035 208.964 87.9734 209.094C87.852 209.224 87.6917 209.289 87.4922 209.289ZM93.2346 217.69C92.5844 217.69 91.9992 217.543 91.479 217.248C90.9674 216.953 90.5643 216.546 90.2695 216.025C89.9747 215.497 89.8273 214.89 89.8273 214.205C89.8273 213.511 89.9747 212.904 90.2695 212.384C90.5643 211.864 90.9674 211.461 91.479 211.175C91.9992 210.88 92.5844 210.732 93.2346 210.732C93.8329 210.732 94.3661 210.867 94.8343 211.136C95.3111 211.404 95.6883 211.799 95.9657 212.319C96.2518 212.831 96.3949 213.459 96.3949 214.205C96.3949 214.942 96.2561 215.57 95.9787 216.09C95.7013 216.611 95.3241 217.009 94.8473 217.287C94.3791 217.556 93.8415 217.69 93.2346 217.69ZM93.2997 216.871C93.7852 216.871 94.2187 216.762 94.6002 216.546C94.9903 216.32 95.2938 216.008 95.5105 215.609C95.7359 215.202 95.8486 214.734 95.8486 214.205C95.8486 213.667 95.7359 213.199 95.5105 212.8C95.2938 212.401 94.9903 212.094 94.6002 211.877C94.2187 211.651 93.7852 211.539 93.2997 211.539C92.8228 211.539 92.3937 211.651 92.0122 211.877C91.6307 212.094 91.3273 212.401 91.1018 212.8C90.8764 213.199 90.7637 213.667 90.7637 214.205C90.7637 214.734 90.8764 215.202 91.1018 215.609C91.3273 216.008 91.6307 216.32 92.0122 216.546C92.3937 216.762 92.8228 216.871 93.2997 216.871ZM95.8747 217.625V215.57L95.9657 214.192L95.8356 212.813V207.975H96.759V217.625H95.8747ZM102.231 217.69C101.52 217.69 100.895 217.543 100.358 217.248C99.8204 216.944 99.3999 216.533 99.0964 216.012C98.793 215.484 98.6413 214.881 98.6413 214.205C98.6413 213.528 98.7843 212.93 99.0704 212.41C99.3652 211.89 99.764 211.482 100.267 211.188C100.778 210.884 101.351 210.732 101.984 210.732C102.625 210.732 103.193 210.88 103.687 211.175C104.19 211.461 104.585 211.868 104.871 212.397C105.157 212.917 105.3 213.52 105.3 214.205C105.3 214.248 105.295 214.296 105.287 214.348C105.287 214.391 105.287 214.439 105.287 214.491H99.3435V213.802L104.793 213.802L104.428 214.075C104.428 213.58 104.32 213.143 104.103 212.761C103.895 212.371 103.609 212.068 103.245 211.851C102.881 211.634 102.46 211.526 101.984 211.526C101.515 211.526 101.095 211.634 100.722 211.851C100.349 212.068 100.059 212.371 99.8507 212.761C99.6426 213.151 99.5386 213.598 99.5386 214.101V214.244C99.5386 214.764 99.6513 215.223 99.8767 215.622C100.111 216.012 100.432 216.32 100.839 216.546C101.255 216.762 101.728 216.871 102.257 216.871C102.673 216.871 103.059 216.797 103.414 216.65C103.778 216.502 104.09 216.277 104.35 215.973L104.871 216.572C104.567 216.936 104.186 217.213 103.726 217.404C103.275 217.595 102.777 217.69 102.231 217.69ZM111.267 217.625V216.116L111.228 215.869V213.346C111.228 212.765 111.064 212.319 110.734 212.007C110.413 211.695 109.932 211.539 109.291 211.539C108.848 211.539 108.428 211.612 108.029 211.76C107.63 211.907 107.292 212.102 107.015 212.345L106.599 211.656C106.945 211.361 107.362 211.136 107.847 210.979C108.333 210.815 108.844 210.732 109.382 210.732C110.266 210.732 110.947 210.953 111.423 211.396C111.909 211.829 112.152 212.492 112.152 213.385V217.625H111.267ZM108.913 217.69C108.402 217.69 107.955 217.608 107.574 217.443C107.201 217.27 106.915 217.035 106.716 216.741C106.516 216.437 106.416 216.09 106.416 215.7C106.416 215.345 106.499 215.024 106.664 214.738C106.837 214.443 107.114 214.209 107.496 214.036C107.886 213.854 108.406 213.763 109.057 213.763H111.41V214.452H109.083C108.424 214.452 107.964 214.569 107.704 214.803C107.453 215.037 107.327 215.327 107.327 215.674C107.327 216.064 107.479 216.377 107.782 216.611C108.085 216.845 108.51 216.962 109.057 216.962C109.577 216.962 110.023 216.845 110.396 216.611C110.777 216.368 111.055 216.021 111.228 215.57L111.436 216.207C111.263 216.658 110.96 217.018 110.526 217.287C110.101 217.556 109.564 217.69 108.913 217.69ZM114.66 217.625V207.975H115.583V217.625L114.66 217.625ZM121.712 217.625V209.939C121.712 209.332 121.89 208.842 122.245 208.47C122.601 208.097 123.112 207.91 123.78 207.91C124.04 207.91 124.291 207.945 124.534 208.014C124.777 208.084 124.98 208.192 125.145 208.339L124.833 209.029C124.703 208.916 124.551 208.834 124.378 208.782C124.204 208.721 124.018 208.691 123.819 208.691C123.429 208.691 123.129 208.799 122.921 209.016C122.713 209.232 122.609 209.553 122.609 209.978V211.018L122.635 211.448V217.625H121.712ZM120.489 211.565V210.797H124.716V211.565H120.489ZM128.632 217.69C127.973 217.69 127.379 217.543 126.85 217.248C126.33 216.944 125.918 216.533 125.614 216.012C125.311 215.484 125.159 214.881 125.159 214.205C125.159 213.52 125.311 212.917 125.614 212.397C125.918 211.877 126.33 211.469 126.85 211.175C127.37 210.88 127.964 210.732 128.632 210.732C129.308 210.732 129.906 210.88 130.426 211.175C130.955 211.469 131.367 211.877 131.662 212.397C131.965 212.917 132.117 213.52 132.117 214.205C132.117 214.881 131.965 215.484 131.662 216.012C131.367 216.533 130.955 216.944 130.426 217.248C129.897 217.543 129.299 217.69 128.632 217.69ZM128.632 216.871C129.126 216.871 129.564 216.762 129.945 216.546C130.327 216.32 130.626 216.008 130.842 215.609C131.068 215.202 131.18 214.734 131.18 214.205C131.18 213.667 131.068 213.199 130.842 212.8C130.626 212.401 130.327 212.094 129.945 211.877C129.564 211.651 129.13 211.539 128.645 211.539C128.159 211.539 127.726 211.651 127.344 211.877C126.963 212.094 126.659 212.401 126.434 212.8C126.208 213.199 126.096 213.667 126.096 214.205C126.096 214.734 126.208 215.202 126.434 215.609C126.659 216.008 126.963 216.32 127.344 216.546C127.726 216.762 128.155 216.871 128.632 216.871ZM134.002 217.625V210.797H134.886V212.657L134.795 212.332C134.986 211.812 135.307 211.417 135.758 211.149C136.208 210.871 136.768 210.732 137.435 210.732V211.63C137.401 211.63 137.366 211.63 137.331 211.63C137.297 211.621 137.262 211.617 137.227 211.617C136.508 211.617 135.944 211.838 135.537 212.28C135.129 212.713 134.925 213.333 134.925 214.14V217.625H134.002ZM142.792 217.625V210.121C142.792 209.445 142.987 208.907 143.378 208.509C143.776 208.101 144.34 207.897 145.068 207.897C145.337 207.897 145.593 207.932 145.835 208.001C146.087 208.062 146.299 208.162 146.473 208.3L146.096 209.25C145.966 209.146 145.818 209.068 145.653 209.016C145.489 208.955 145.315 208.925 145.133 208.925C144.769 208.925 144.492 209.029 144.301 209.237C144.11 209.436 144.015 209.735 144.015 210.134V211.057L144.041 211.63V217.625H142.792ZM141.622 211.76V210.732H146.018V211.76H141.622ZM151.347 217.625V216.168L151.282 215.895V213.411C151.282 212.883 151.126 212.475 150.813 212.189C150.51 211.894 150.05 211.747 149.435 211.747C149.027 211.747 148.629 211.816 148.238 211.955C147.848 212.085 147.519 212.263 147.25 212.488L146.73 211.552C147.085 211.266 147.51 211.049 148.004 210.901C148.507 210.745 149.032 210.667 149.578 210.667C150.523 210.667 151.251 210.897 151.763 211.357C152.274 211.816 152.53 212.518 152.53 213.463V217.625H151.347ZM149.084 217.703C148.572 217.703 148.121 217.616 147.731 217.443C147.35 217.27 147.055 217.031 146.847 216.728C146.639 216.416 146.535 216.064 146.535 215.674C146.535 215.301 146.621 214.963 146.795 214.66C146.977 214.356 147.267 214.114 147.666 213.932C148.074 213.75 148.62 213.658 149.305 213.658H151.49V214.556H149.357C148.733 214.556 148.312 214.66 148.095 214.868C147.879 215.076 147.77 215.327 147.77 215.622C147.77 215.96 147.905 216.233 148.173 216.442C148.442 216.641 148.815 216.741 149.292 216.741C149.76 216.741 150.168 216.637 150.514 216.429C150.87 216.22 151.126 215.917 151.282 215.518L151.529 216.377C151.364 216.784 151.074 217.109 150.657 217.352C150.241 217.586 149.717 217.703 149.084 217.703ZM163.463 210.667C164.018 210.667 164.508 210.776 164.932 210.992C165.357 211.209 165.687 211.539 165.921 211.981C166.163 212.423 166.285 212.982 166.285 213.658V217.625H165.036V213.802C165.036 213.134 164.88 212.631 164.568 212.293C164.256 211.955 163.818 211.786 163.255 211.786C162.839 211.786 162.474 211.872 162.162 212.046C161.85 212.219 161.607 212.475 161.434 212.813C161.269 213.151 161.187 213.572 161.187 214.075V217.625H159.938V213.802C159.938 213.134 159.782 212.631 159.47 212.293C159.167 211.955 158.729 211.786 158.157 211.786C157.749 211.786 157.389 211.872 157.077 212.046C156.765 212.219 156.522 212.475 156.349 212.813C156.176 213.151 156.089 213.572 156.089 214.075V217.625H154.84V210.732H156.037V212.566L155.842 212.098C156.059 211.647 156.392 211.296 156.843 211.044C157.294 210.793 157.819 210.667 158.417 210.667C159.076 210.667 159.644 210.832 160.121 211.162C160.597 211.482 160.909 211.972 161.057 212.631L160.55 212.423C160.758 211.894 161.122 211.469 161.642 211.149C162.162 210.828 162.769 210.667 163.463 210.667ZM168.582 217.625V210.732H169.831V217.625H168.582ZM169.206 209.406C168.964 209.406 168.76 209.328 168.595 209.172C168.439 209.016 168.361 208.825 168.361 208.6C168.361 208.365 168.439 208.17 168.595 208.014C168.76 207.858 168.964 207.78 169.206 207.78C169.449 207.78 169.648 207.858 169.805 208.014C169.969 208.162 170.052 208.348 170.052 208.574C170.052 208.808 169.974 209.007 169.818 209.172C169.661 209.328 169.458 209.406 169.206 209.406ZM172.214 217.625V207.975H173.463V217.625H172.214ZM176.146 220.226C175.816 220.226 175.495 220.17 175.183 220.057C174.871 219.953 174.602 219.797 174.377 219.589L174.91 218.652C175.084 218.817 175.274 218.943 175.482 219.03C175.69 219.116 175.912 219.16 176.146 219.16C176.449 219.16 176.701 219.082 176.9 218.925C177.099 218.769 177.286 218.492 177.459 218.093L177.888 217.144L178.018 216.988L180.723 210.732H181.946L178.604 218.314C178.404 218.8 178.179 219.181 177.927 219.459C177.685 219.736 177.416 219.931 177.121 220.044C176.826 220.165 176.501 220.226 176.146 220.226ZM177.784 217.846L174.637 210.732H175.938L178.617 216.871L177.784 217.846ZM18.8439 236.703C18.2717 236.703 17.7472 236.573 17.2703 236.313C16.8021 236.044 16.425 235.65 16.1389 235.129C15.8614 234.609 15.7227 233.959 15.7227 233.179C15.7227 232.398 15.8571 231.748 16.1259 231.228C16.4033 230.708 16.7761 230.318 17.2443 230.057C17.7212 229.797 18.2544 229.667 18.8439 229.667C19.5202 229.667 20.1184 229.815 20.6386 230.11C21.1588 230.404 21.5706 230.816 21.8741 231.345C22.1775 231.865 22.3292 232.476 22.3292 233.179C22.3292 233.881 22.1775 234.497 21.8741 235.025C21.5706 235.554 21.1588 235.966 20.6386 236.261C20.1184 236.556 19.5202 236.703 18.8439 236.703ZM15.1895 239.148V229.732H16.386V231.592L16.3079 233.192L16.438 234.791V239.148H15.1895ZM18.7399 235.611C19.182 235.611 19.5765 235.511 19.9233 235.311C20.2788 235.112 20.5562 234.83 20.7556 234.466C20.9637 234.093 21.0678 233.664 21.0678 233.179C21.0678 232.684 20.9637 232.26 20.7556 231.904C20.5562 231.54 20.2788 231.258 19.9233 231.059C19.5765 230.859 19.182 230.76 18.7399 230.76C18.3064 230.76 17.9119 230.859 17.5564 231.059C17.2096 231.258 16.9322 231.54 16.7241 231.904C16.5247 232.26 16.425 232.684 16.425 233.179C16.425 233.664 16.5247 234.093 16.7241 234.466C16.9322 234.83 17.2096 235.112 17.5564 235.311C17.9119 235.511 18.3064 235.611 18.7399 235.611ZM27.0064 236.703C26.3128 236.703 25.6972 236.551 25.1597 236.248C24.6221 235.944 24.1973 235.528 23.8852 234.999C23.573 234.462 23.417 233.855 23.417 233.179C23.417 232.494 23.573 231.887 23.8852 231.358C24.1973 230.829 24.6221 230.417 25.1597 230.123C25.6972 229.819 26.3128 229.667 27.0064 229.667C27.6913 229.667 28.3025 229.819 28.8401 230.123C29.3863 230.417 29.8111 230.829 30.1145 231.358C30.4267 231.878 30.5827 232.485 30.5827 233.179C30.5827 233.864 30.4267 234.471 30.1145 234.999C29.8111 235.528 29.3863 235.944 28.8401 236.248C28.3025 236.551 27.6913 236.703 27.0064 236.703ZM27.0064 235.611C27.4485 235.611 27.843 235.511 28.1898 235.311C28.5453 235.112 28.8227 234.83 29.0221 234.466C29.2215 234.093 29.3212 233.664 29.3212 233.179C29.3212 232.684 29.2215 232.26 29.0221 231.904C28.8227 231.54 28.5453 231.258 28.1898 231.059C27.843 230.859 27.4485 230.76 27.0064 230.76C26.5642 230.76 26.1697 230.859 25.8229 231.059C25.4761 231.258 25.1987 231.54 24.9906 231.904C24.7825 232.26 24.6785 232.684 24.6785 233.179C24.6785 233.664 24.7825 234.093 24.9906 234.466C25.1987 234.83 25.4761 235.112 25.8229 235.311C26.1697 235.511 26.5642 235.611 27.0064 235.611ZM32.3093 236.625V229.732H33.5058V231.605L33.3887 231.137C33.5795 230.66 33.9003 230.296 34.3511 230.044C34.802 229.793 35.3568 229.667 36.0158 229.667V230.877C35.9637 230.868 35.9117 230.864 35.8597 230.864C35.8163 230.864 35.773 230.864 35.7296 230.864C35.0621 230.864 34.5332 231.063 34.143 231.462C33.7529 231.861 33.5578 232.437 33.5578 233.192V236.625H32.3093ZM40.2008 236.703C39.5072 236.703 38.9697 236.517 38.5882 236.144C38.2067 235.771 38.016 235.238 38.016 234.544V228.224H39.2644V234.492C39.2644 234.865 39.3555 235.151 39.5376 235.351C39.7283 235.55 39.9971 235.65 40.3439 235.65C40.734 235.65 41.0591 235.541 41.3192 235.325L41.7094 236.222C41.5186 236.387 41.2889 236.508 41.0201 236.586C40.76 236.664 40.4869 236.703 40.2008 236.703ZM36.8455 230.76V229.732H41.2412V230.76H36.8455ZM43.2188 236.625V229.732H44.4672V236.625H43.2188ZM43.843 228.406C43.6003 228.406 43.3965 228.328 43.2318 228.172C43.0757 228.016 42.9977 227.825 42.9977 227.6C42.9977 227.365 43.0757 227.17 43.2318 227.014C43.3965 226.858 43.6003 226.78 43.843 226.78C44.0858 226.78 44.2852 226.858 44.4412 227.014C44.606 227.162 44.6883 227.348 44.6883 227.574C44.6883 227.808 44.6103 228.007 44.4542 228.172C44.2982 228.328 44.0944 228.406 43.843 228.406ZM49.8031 236.703C49.1095 236.703 48.494 236.551 47.9564 236.248C47.4189 235.944 46.9941 235.528 46.682 234.999C46.3698 234.462 46.2138 233.855 46.2138 233.179C46.2138 232.494 46.3698 231.887 46.682 231.358C46.9941 230.829 47.4189 230.417 47.9564 230.123C48.494 229.819 49.1095 229.667 49.8031 229.667C50.4881 229.667 51.0993 229.819 51.6368 230.123C52.1831 230.417 52.6079 230.829 52.9113 231.358C53.2235 231.878 53.3795 232.485 53.3795 233.179C53.3795 233.864 53.2235 234.471 52.9113 234.999C52.6079 235.528 52.1831 235.944 51.6368 236.248C51.0993 236.551 50.4881 236.703 49.8031 236.703ZM49.8031 235.611C50.2453 235.611 50.6398 235.511 50.9866 235.311C51.3421 235.112 51.6195 234.83 51.8189 234.466C52.0183 234.093 52.118 233.664 52.118 233.179C52.118 232.684 52.0183 232.26 51.8189 231.904C51.6195 231.54 51.3421 231.258 50.9866 231.059C50.6398 230.859 50.2453 230.76 49.8031 230.76C49.361 230.76 48.9665 230.859 48.6197 231.059C48.2729 231.258 47.9955 231.54 47.7874 231.904C47.5793 232.26 47.4753 232.684 47.4753 233.179C47.4753 233.664 47.5793 234.093 47.7874 234.466C47.9955 234.83 48.2729 235.112 48.6197 235.311C48.9665 235.511 49.361 235.611 49.8031 235.611ZM58.7865 229.667C59.3501 229.667 59.8443 229.776 60.2691 229.992C60.7026 230.209 61.0407 230.539 61.2835 230.981C61.5262 231.423 61.6476 231.982 61.6476 232.658V236.625H60.3991V232.802C60.3991 232.134 60.2344 231.631 59.905 231.293C59.5842 230.955 59.129 230.786 58.5394 230.786C58.0973 230.786 57.7115 230.872 57.382 231.046C57.0525 231.219 56.7968 231.475 56.6147 231.813C56.4413 232.151 56.3546 232.572 56.3546 233.075V236.625H55.1061V229.732H56.3026V231.592L56.1075 231.098C56.3329 230.647 56.6797 230.296 57.1479 230.044C57.6161 229.793 58.1623 229.667 58.7865 229.667ZM65.9349 236.703C65.3627 236.703 64.8165 236.625 64.2963 236.469C63.7847 236.313 63.3816 236.122 63.0868 235.897L63.607 234.908C63.9018 235.108 64.2659 235.277 64.6994 235.416C65.1329 235.554 65.5751 235.624 66.0259 235.624C66.6068 235.624 67.023 235.541 67.2744 235.377C67.5345 235.212 67.6646 234.982 67.6646 234.687C67.6646 234.471 67.5865 234.301 67.4305 234.18C67.2744 234.059 67.0663 233.968 66.8062 233.907C66.5548 233.846 66.273 233.794 65.9609 233.751C65.6488 233.699 65.3367 233.638 65.0245 233.569C64.7124 233.491 64.4263 233.387 64.1662 233.257C63.9061 233.118 63.698 232.932 63.542 232.698C63.3859 232.455 63.3079 232.134 63.3079 231.735C63.3079 231.319 63.4249 230.955 63.659 230.643C63.8931 230.331 64.2226 230.092 64.6474 229.927C65.0809 229.754 65.5924 229.667 66.182 229.667C66.6328 229.667 67.088 229.724 67.5475 229.836C68.0157 229.94 68.3972 230.092 68.6919 230.292L68.1587 231.28C67.8466 231.072 67.5215 230.929 67.1834 230.851C66.8452 230.773 66.5071 230.734 66.169 230.734C65.6228 230.734 65.2153 230.825 64.9465 231.007C64.6777 231.18 64.5434 231.406 64.5434 231.683C64.5434 231.917 64.6214 232.099 64.7774 232.229C64.9422 232.351 65.1503 232.446 65.4017 232.515C65.6618 232.585 65.9479 232.645 66.26 232.698C66.5721 232.741 66.8843 232.802 67.1964 232.88C67.5085 232.949 67.7903 233.049 68.0417 233.179C68.3018 233.309 68.5099 233.491 68.6659 233.725C68.8307 233.959 68.913 234.271 68.913 234.661C68.913 235.077 68.7916 235.437 68.5489 235.741C68.3061 236.044 67.9637 236.283 67.5215 236.456C67.0793 236.621 66.5505 236.703 65.9349 236.703ZM69.9791 238.55L70.6294 235.923L70.7984 236.677C70.547 236.677 70.3346 236.599 70.1612 236.443C69.9965 236.287 69.9141 236.074 69.9141 235.806C69.9141 235.546 69.9965 235.333 70.1612 235.168C70.3346 235.004 70.5427 234.921 70.7854 234.921C71.0369 234.921 71.2406 235.008 71.3967 235.181C71.5527 235.346 71.6308 235.554 71.6308 235.806C71.6308 235.892 71.6221 235.979 71.6048 236.066C71.5961 236.144 71.5744 236.239 71.5397 236.352C71.5137 236.456 71.4704 236.586 71.4097 236.742L70.7984 238.55H69.9791ZM80.5667 236.703C79.9771 236.703 79.4439 236.573 78.9671 236.313C78.4989 236.044 78.1261 235.65 77.8487 235.129C77.5799 234.609 77.4455 233.959 77.4455 233.179C77.4455 232.398 77.5842 231.748 77.8617 231.228C78.1478 230.708 78.5249 230.318 78.9931 230.057C79.4699 229.797 79.9945 229.667 80.5667 229.667C81.243 229.667 81.8412 229.815 82.3614 230.11C82.8816 230.404 83.2934 230.816 83.5969 231.345C83.9003 231.865 84.052 232.476 84.052 233.179C84.052 233.881 83.9003 234.497 83.5969 235.025C83.2934 235.554 82.8816 235.966 82.3614 236.261C81.8412 236.556 81.243 236.703 80.5667 236.703ZM76.9123 236.625V226.975H78.1608V231.566L78.0307 233.166L78.1088 234.765V236.625H76.9123ZM80.4627 235.611C80.9048 235.611 81.2993 235.511 81.6461 235.311C82.0016 235.112 82.279 234.83 82.4784 234.466C82.6865 234.093 82.7905 233.664 82.7905 233.179C82.7905 232.684 82.6865 232.26 82.4784 231.904C82.279 231.54 82.0016 231.258 81.6461 231.059C81.2993 230.859 80.9048 230.76 80.4627 230.76C80.0292 230.76 79.6347 230.859 79.2792 231.059C78.9324 231.258 78.655 231.54 78.4469 231.904C78.2475 232.26 78.1478 232.684 78.1478 233.179C78.1478 233.664 78.2475 234.093 78.4469 234.466C78.655 234.83 78.9324 235.112 79.2792 235.311C79.6347 235.511 80.0292 235.611 80.4627 235.611ZM88.6771 236.703C88.0876 236.703 87.5674 236.595 87.1165 236.378C86.6744 236.161 86.3276 235.832 86.0761 235.39C85.8334 234.939 85.712 234.375 85.712 233.699V229.732H86.9605V233.556C86.9605 234.232 87.1209 234.739 87.4416 235.077C87.7711 235.416 88.2306 235.585 88.8202 235.585C89.2537 235.585 89.6308 235.498 89.9516 235.325C90.2724 235.142 90.5195 234.882 90.6929 234.544C90.8663 234.197 90.953 233.781 90.953 233.296V229.732H92.2015V236.625H91.018V234.765L91.2131 235.259C90.9877 235.719 90.6495 236.074 90.1987 236.326C89.7479 236.577 89.2407 236.703 88.6771 236.703ZM94.5782 236.625V226.975H95.8267V236.625H94.5782ZM99.2249 234.96L99.2509 233.361L103.217 229.732H104.726L101.683 232.724L101.007 233.296L99.2249 234.96ZM98.2105 236.625V226.975H99.4589V236.625H98.2105ZM103.477 236.625L100.772 233.27L101.579 232.268L105.012 236.625H103.477ZM111.694 236.703C111.121 236.703 110.575 236.625 110.055 236.469C109.543 236.313 109.14 236.122 108.845 235.897L109.366 234.908C109.66 235.108 110.025 235.277 110.458 235.416C110.892 235.554 111.334 235.624 111.785 235.624C112.365 235.624 112.782 235.541 113.033 235.377C113.293 235.212 113.423 234.982 113.423 234.687C113.423 234.471 113.345 234.301 113.189 234.18C113.033 234.059 112.825 233.968 112.565 233.907C112.313 233.846 112.032 233.794 111.72 233.751C111.407 233.699 111.095 233.638 110.783 233.569C110.471 233.491 110.185 233.387 109.925 233.257C109.665 233.118 109.457 232.932 109.301 232.698C109.145 232.455 109.067 232.134 109.067 231.735C109.067 231.319 109.184 230.955 109.418 230.643C109.652 230.331 109.981 230.092 110.406 229.927C110.84 229.754 111.351 229.667 111.941 229.667C112.392 229.667 112.847 229.724 113.306 229.836C113.774 229.94 114.156 230.092 114.451 230.292L113.917 231.28C113.605 231.072 113.28 230.929 112.942 230.851C112.604 230.773 112.266 230.734 111.928 230.734C111.381 230.734 110.974 230.825 110.705 231.007C110.436 231.18 110.302 231.406 110.302 231.683C110.302 231.917 110.38 232.099 110.536 232.229C110.701 232.351 110.909 232.446 111.16 232.515C111.42 232.585 111.707 232.645 112.019 232.698C112.331 232.741 112.643 232.802 112.955 232.88C113.267 232.949 113.549 233.049 113.8 233.179C114.06 233.309 114.269 233.491 114.425 233.725C114.589 233.959 114.672 234.271 114.672 234.661C114.672 235.077 114.55 235.437 114.308 235.741C114.065 236.044 113.722 236.283 113.28 236.456C112.838 236.621 112.309 236.703 111.694 236.703ZM117.562 236.625L115 229.732L116.183 229.732L118.459 235.975H117.9L120.267 229.732H121.32L123.635 235.975H123.089L125.417 229.732H126.535L123.96 236.625H122.764L120.592 230.929H120.956L118.758 236.625H117.562ZM130.681 236.703C129.944 236.703 129.293 236.551 128.73 236.248C128.175 235.944 127.741 235.528 127.429 234.999C127.126 234.471 126.974 233.864 126.974 233.179C126.974 232.494 127.121 231.887 127.416 231.358C127.72 230.829 128.132 230.417 128.652 230.123C129.181 229.819 129.775 229.667 130.433 229.667C131.101 229.667 131.691 229.815 132.202 230.11C132.714 230.404 133.112 230.82 133.399 231.358C133.693 231.887 133.841 232.507 133.841 233.218C133.841 233.27 133.836 233.33 133.828 233.4C133.828 233.469 133.823 233.534 133.815 233.595H127.949V232.698H133.164L132.657 233.01C132.666 232.567 132.575 232.173 132.384 231.826C132.193 231.479 131.929 231.211 131.591 231.02C131.261 230.82 130.876 230.721 130.433 230.721C130 230.721 129.614 230.82 129.276 231.02C128.938 231.211 128.673 231.484 128.483 231.839C128.292 232.186 128.197 232.585 128.197 233.036V233.244C128.197 233.703 128.301 234.115 128.509 234.479C128.725 234.835 129.025 235.112 129.406 235.311C129.788 235.511 130.225 235.611 130.72 235.611C131.127 235.611 131.495 235.541 131.825 235.403C132.163 235.264 132.458 235.056 132.709 234.778L133.399 235.585C133.086 235.949 132.696 236.226 132.228 236.417C131.769 236.608 131.253 236.703 130.681 236.703ZM138.644 236.703C137.907 236.703 137.256 236.551 136.693 236.248C136.138 235.944 135.704 235.528 135.392 234.999C135.089 234.471 134.937 233.864 134.937 233.179C134.937 232.494 135.084 231.887 135.379 231.358C135.683 230.829 136.095 230.417 136.615 230.123C137.144 229.819 137.738 229.667 138.396 229.667C139.064 229.667 139.654 229.815 140.165 230.11C140.677 230.404 141.075 230.82 141.362 231.358C141.656 231.887 141.804 232.507 141.804 233.218C141.804 233.27 141.799 233.33 141.791 233.4C141.791 233.469 141.786 233.534 141.778 233.595H135.912V232.698H141.127L140.62 233.01C140.629 232.567 140.538 232.173 140.347 231.826C140.156 231.479 139.892 231.211 139.554 231.02C139.224 230.82 138.839 230.721 138.396 230.721C137.963 230.721 137.577 230.82 137.239 231.02C136.901 231.211 136.636 231.484 136.446 231.839C136.255 232.186 136.16 232.585 136.16 233.036V233.244C136.16 233.703 136.264 234.115 136.472 234.479C136.688 234.835 136.988 235.112 137.369 235.311C137.751 235.511 138.188 235.611 138.683 235.611C139.09 235.611 139.459 235.541 139.788 235.403C140.126 235.264 140.421 235.056 140.672 234.778L141.362 235.585C141.049 235.949 140.659 236.226 140.191 236.417C139.732 236.608 139.216 236.703 138.644 236.703ZM145.904 236.703C145.211 236.703 144.673 236.517 144.292 236.144C143.91 235.771 143.719 235.238 143.719 234.544V228.224H144.968V234.492C144.968 234.865 145.059 235.151 145.241 235.351C145.432 235.55 145.7 235.65 146.047 235.65C146.437 235.65 146.763 235.541 147.023 235.325L147.413 236.222C147.222 236.387 146.992 236.508 146.724 236.586C146.463 236.664 146.19 236.703 145.904 236.703ZM142.549 230.76V229.732H146.945V230.76H142.549ZM150.899 236.703C150.327 236.703 149.781 236.625 149.26 236.469C148.749 236.313 148.346 236.122 148.051 235.897L148.571 234.908C148.866 235.108 149.23 235.277 149.664 235.416C150.097 235.554 150.539 235.624 150.99 235.624C151.571 235.624 151.987 235.541 152.238 235.377C152.499 235.212 152.629 234.982 152.629 234.687C152.629 234.471 152.551 234.301 152.395 234.18C152.238 234.059 152.03 233.968 151.77 233.907C151.519 233.846 151.237 233.794 150.925 233.751C150.613 233.699 150.301 233.638 149.989 233.569C149.677 233.491 149.39 233.387 149.13 233.257C148.87 233.118 148.662 232.932 148.506 232.698C148.35 232.455 148.272 232.134 148.272 231.735C148.272 231.319 148.389 230.955 148.623 230.643C148.857 230.331 149.187 230.092 149.611 229.927C150.045 229.754 150.557 229.667 151.146 229.667C151.597 229.667 152.052 229.724 152.512 229.836C152.98 229.94 153.361 230.092 153.656 230.292L153.123 231.28C152.811 231.072 152.486 230.929 152.147 230.851C151.809 230.773 151.471 230.734 151.133 230.734C150.587 230.734 150.179 230.825 149.911 231.007C149.642 231.18 149.507 231.406 149.507 231.683C149.507 231.917 149.585 232.099 149.742 232.229C149.906 232.351 150.114 232.446 150.366 232.515C150.626 232.585 150.912 232.645 151.224 232.698C151.536 232.741 151.848 232.802 152.16 232.88C152.473 232.949 152.754 233.049 153.006 233.179C153.266 233.309 153.474 233.491 153.63 233.725C153.795 233.959 153.877 234.271 153.877 234.661C153.877 235.077 153.756 235.437 153.513 235.741C153.27 236.044 152.928 236.283 152.486 236.456C152.043 236.621 151.515 236.703 150.899 236.703ZM154.943 238.55L155.593 235.923L155.763 236.677C155.511 236.677 155.299 236.599 155.125 236.443C154.961 236.287 154.878 236.074 154.878 235.806C154.878 235.546 154.961 235.333 155.125 235.168C155.299 235.004 155.507 234.921 155.75 234.921C156.001 234.921 156.205 235.008 156.361 235.181C156.517 235.346 156.595 235.554 156.595 235.806C156.595 235.892 156.586 235.979 156.569 236.066C156.56 236.144 156.538 236.239 156.504 236.352C156.478 236.456 156.434 236.586 156.374 236.742L155.763 238.55H154.943ZM166.259 236.625V235.116L166.22 234.869V232.346C166.22 231.765 166.055 231.319 165.726 231.007C165.405 230.695 164.924 230.539 164.282 230.539C163.84 230.539 163.42 230.612 163.021 230.76C162.622 230.907 162.284 231.102 162.006 231.345L161.59 230.656C161.937 230.361 162.353 230.136 162.839 229.979C163.324 229.815 163.836 229.732 164.373 229.732C165.258 229.732 165.938 229.953 166.415 230.396C166.901 230.829 167.143 231.492 167.143 232.385V236.625H166.259ZM163.905 236.69C163.394 236.69 162.947 236.608 162.566 236.443C162.193 236.27 161.907 236.035 161.707 235.741C161.508 235.437 161.408 235.09 161.408 234.7C161.408 234.345 161.491 234.024 161.655 233.738C161.829 233.443 162.106 233.209 162.488 233.036C162.878 232.854 163.398 232.763 164.048 232.763H166.402V233.452H164.074C163.415 233.452 162.956 233.569 162.696 233.803C162.444 234.037 162.319 234.327 162.319 234.674C162.319 235.064 162.47 235.377 162.774 235.611C163.077 235.845 163.502 235.962 164.048 235.962C164.568 235.962 165.015 235.845 165.388 235.611C165.769 235.368 166.047 235.021 166.22 234.57L166.428 235.207C166.255 235.658 165.951 236.018 165.518 236.287C165.093 236.556 164.555 236.69 163.905 236.69ZM173.137 229.732C173.692 229.732 174.177 229.841 174.593 230.057C175.018 230.266 175.347 230.586 175.582 231.02C175.824 231.453 175.946 232 175.946 232.658V236.625H175.022V232.75C175.022 232.03 174.84 231.488 174.476 231.124C174.121 230.751 173.618 230.565 172.968 230.565C172.482 230.565 172.057 230.664 171.693 230.864C171.338 231.055 171.06 231.336 170.861 231.709C170.67 232.073 170.575 232.515 170.575 233.036V236.625H169.651V229.797H170.536V231.67L170.393 231.319C170.609 230.825 170.956 230.439 171.433 230.162C171.91 229.875 172.478 229.732 173.137 229.732ZM181.158 236.69C180.508 236.69 179.922 236.543 179.402 236.248C178.891 235.953 178.488 235.546 178.193 235.025C177.898 234.497 177.751 233.89 177.751 233.205C177.751 232.511 177.898 231.904 178.193 231.384C178.488 230.864 178.891 230.461 179.402 230.175C179.922 229.88 180.508 229.732 181.158 229.732C181.756 229.732 182.289 229.867 182.757 230.136C183.234 230.404 183.611 230.799 183.889 231.319C184.175 231.831 184.318 232.459 184.318 233.205C184.318 233.942 184.179 234.57 183.902 235.09C183.624 235.611 183.247 236.009 182.77 236.287C182.302 236.556 181.765 236.69 181.158 236.69ZM181.223 235.871C181.708 235.871 182.142 235.762 182.523 235.546C182.914 235.32 183.217 235.008 183.434 234.609C183.659 234.202 183.772 233.734 183.772 233.205C183.772 232.667 183.659 232.199 183.434 231.8C183.217 231.401 182.914 231.094 182.523 230.877C182.142 230.651 181.708 230.539 181.223 230.539C180.746 230.539 180.317 230.651 179.935 230.877C179.554 231.094 179.25 231.401 179.025 231.8C178.8 232.199 178.687 232.667 178.687 233.205C178.687 233.734 178.8 234.202 179.025 234.609C179.25 235.008 179.554 235.32 179.935 235.546C180.317 235.762 180.746 235.871 181.223 235.871ZM183.798 236.625V234.57L183.889 233.192L183.759 231.813V226.975H184.682V236.625H183.798ZM40.7707 256.703C40.1985 256.703 39.674 256.573 39.1971 256.313C38.729 256.044 38.3518 255.65 38.0657 255.129C37.7883 254.609 37.6495 253.959 37.6495 253.179C37.6495 252.398 37.7839 251.748 38.0527 251.228C38.3301 250.708 38.7029 250.318 39.1711 250.057C39.648 249.797 40.1812 249.667 40.7707 249.667C41.447 249.667 42.0452 249.815 42.5654 250.11C43.0856 250.404 43.4974 250.816 43.8009 251.345C44.1043 251.865 44.2561 252.476 44.2561 253.179C44.2561 253.881 44.1043 254.497 43.8009 255.025C43.4974 255.554 43.0856 255.966 42.5654 256.261C42.0452 256.556 41.447 256.703 40.7707 256.703ZM37.1163 259.148V249.732H38.3128V251.592L38.2348 253.192L38.3648 254.791V259.148H37.1163ZM40.6667 255.611C41.1089 255.611 41.5034 255.511 41.8502 255.311C42.2056 255.112 42.4831 254.83 42.6825 254.466C42.8905 254.093 42.9946 253.664 42.9946 253.179C42.9946 252.684 42.8905 252.26 42.6825 251.904C42.4831 251.54 42.2056 251.258 41.8502 251.059C41.5034 250.859 41.1089 250.76 40.6667 250.76C40.2332 250.76 39.8387 250.859 39.4832 251.059C39.1364 251.258 38.859 251.54 38.6509 251.904C38.4515 252.26 38.3518 252.684 38.3518 253.179C38.3518 253.664 38.4515 254.093 38.6509 254.466C38.859 254.83 39.1364 255.112 39.4832 255.311C39.8387 255.511 40.2332 255.611 40.6667 255.611ZM45.9811 256.625V249.732H47.1775V251.605L47.0605 251.137C47.2512 250.66 47.572 250.296 48.0228 250.044C48.4737 249.793 49.0286 249.667 49.6875 249.667V250.877C49.6355 250.868 49.5834 250.864 49.5314 250.864C49.4881 250.864 49.4447 250.864 49.4014 250.864C48.7338 250.864 48.2049 251.063 47.8148 251.462C47.4246 251.861 47.2295 252.437 47.2295 253.192V256.625H45.9811ZM54.2319 256.703C53.4949 256.703 52.8447 256.551 52.2811 256.248C51.7263 255.944 51.2928 255.528 50.9807 254.999C50.6772 254.471 50.5255 253.864 50.5255 253.179C50.5255 252.494 50.6729 251.887 50.9676 251.358C51.2711 250.829 51.6829 250.417 52.2031 250.123C52.732 249.819 53.3259 249.667 53.9848 249.667C54.6524 249.667 55.2419 249.815 55.7535 250.11C56.265 250.404 56.6638 250.82 56.9499 251.358C57.2447 251.887 57.3921 252.507 57.3921 253.218C57.3921 253.27 57.3878 253.33 57.3791 253.4C57.3791 253.469 57.3748 253.534 57.3661 253.595H51.5009V252.698H56.7158L56.2086 253.01C56.2173 252.567 56.1263 252.173 55.9355 251.826C55.7448 251.479 55.4804 251.211 55.1422 251.02C54.8128 250.82 54.427 250.721 53.9848 250.721C53.5513 250.721 53.1655 250.82 52.8274 251.02C52.4892 251.211 52.2248 251.484 52.0341 251.839C51.8433 252.186 51.7479 252.585 51.7479 253.036V253.244C51.7479 253.703 51.852 254.115 52.0601 254.479C52.2768 254.835 52.5759 255.112 52.9574 255.311C53.3389 255.511 53.7767 255.611 54.2709 255.611C54.6784 255.611 55.0469 255.541 55.3763 255.403C55.7145 255.264 56.0092 255.056 56.2607 254.778L56.9499 255.585C56.6378 255.949 56.2477 256.226 55.7795 256.417C55.32 256.608 54.8041 256.703 54.2319 256.703ZM67.748 249.667C68.3029 249.667 68.7927 249.776 69.2176 249.992C69.6424 250.209 69.9719 250.539 70.206 250.981C70.4487 251.423 70.5701 251.982 70.5701 252.658V256.625H69.3216V252.802C69.3216 252.134 69.1656 251.631 68.8534 251.293C68.5413 250.955 68.1035 250.786 67.5399 250.786C67.1238 250.786 66.7596 250.872 66.4475 251.046C66.1354 251.219 65.8926 251.475 65.7192 251.813C65.5545 252.151 65.4721 252.572 65.4721 253.075V256.625H64.2237V252.802C64.2237 252.134 64.0676 251.631 63.7555 251.293C63.452 250.955 63.0142 250.786 62.442 250.786C62.0345 250.786 61.6747 250.872 61.3626 251.046C61.0505 251.219 60.8077 251.475 60.6343 251.813C60.4609 252.151 60.3742 252.572 60.3742 253.075V256.625H59.1257V249.732H60.3222V251.566L60.1271 251.098C60.3439 250.647 60.6776 250.296 61.1285 250.044C61.5793 249.793 62.1039 249.667 62.7021 249.667C63.361 249.667 63.9289 249.832 64.4057 250.162C64.8826 250.482 65.1947 250.972 65.3421 251.631L64.8349 251.423C65.043 250.894 65.4071 250.469 65.9273 250.149C66.4475 249.828 67.0544 249.667 67.748 249.667ZM72.8673 256.625V249.732H74.1158V256.625H72.8673ZM73.4915 248.406C73.2488 248.406 73.045 248.328 72.8803 248.172C72.7242 248.016 72.6462 247.825 72.6462 247.6C72.6462 247.365 72.7242 247.17 72.8803 247.014C73.045 246.858 73.2488 246.78 73.4915 246.78C73.7343 246.78 73.9337 246.858 74.0898 247.014C74.2545 247.162 74.3369 247.348 74.3369 247.574C74.3369 247.808 74.2588 248.007 74.1028 248.172C73.9467 248.328 73.743 248.406 73.4915 248.406ZM79.3997 256.703C78.8101 256.703 78.2899 256.595 77.8391 256.378C77.3969 256.161 77.0501 255.832 76.7987 255.39C76.5559 254.939 76.4345 254.375 76.4345 253.699V249.732H77.683V253.556C77.683 254.232 77.8434 254.739 78.1642 255.077C78.4936 255.416 78.9531 255.585 79.5427 255.585C79.9762 255.585 80.3534 255.498 80.6741 255.325C80.9949 255.142 81.242 254.882 81.4154 254.544C81.5888 254.197 81.6755 253.781 81.6755 253.296V249.732H82.924V256.625H81.7405V254.765L81.9356 255.259C81.7102 255.719 81.3721 256.074 80.9212 256.326C80.4704 256.577 79.9632 256.703 79.3997 256.703ZM93.923 249.667C94.4779 249.667 94.9678 249.776 95.3926 249.992C95.8174 250.209 96.1469 250.539 96.381 250.981C96.6237 251.423 96.7451 251.982 96.7451 252.658V256.625H95.4966V252.802C95.4966 252.134 95.3406 251.631 95.0285 251.293C94.7163 250.955 94.2785 250.786 93.715 250.786C93.2988 250.786 92.9347 250.872 92.6225 251.046C92.3104 251.219 92.0677 251.475 91.8943 251.813C91.7295 252.151 91.6472 252.572 91.6472 253.075V256.625H90.3987V252.802C90.3987 252.134 90.2426 251.631 89.9305 251.293C89.6271 250.955 89.1892 250.786 88.617 250.786C88.2095 250.786 87.8497 250.872 87.5376 251.046C87.2255 251.219 86.9827 251.475 86.8093 251.813C86.6359 252.151 86.5492 252.572 86.5492 253.075V256.625H85.3008V249.732H86.4972V251.566L86.3021 251.098C86.5189 250.647 86.8527 250.296 87.3035 250.044C87.7544 249.793 88.2789 249.667 88.8771 249.667C89.536 249.667 90.1039 249.832 90.5808 250.162C91.0576 250.482 91.3697 250.972 91.5171 251.631L91.0099 251.423C91.218 250.894 91.5822 250.469 92.1024 250.149C92.6225 249.828 93.2294 249.667 93.923 249.667ZM104.902 256.703C104.208 256.703 103.671 256.517 103.289 256.144C102.908 255.771 102.717 255.238 102.717 254.544V248.224H103.965V254.492C103.965 254.865 104.056 255.151 104.239 255.351C104.429 255.55 104.698 255.65 105.045 255.65C105.435 255.65 105.76 255.541 106.02 255.325L106.41 256.222C106.22 256.387 105.99 256.508 105.721 256.586C105.461 256.664 105.188 256.703 104.902 256.703ZM101.546 250.76V249.732H105.942V250.76H101.546ZM112.198 256.625V255.168L112.133 254.895V252.411C112.133 251.883 111.977 251.475 111.665 251.189C111.362 250.894 110.902 250.747 110.287 250.747C109.879 250.747 109.48 250.816 109.09 250.955C108.7 251.085 108.371 251.263 108.102 251.488L107.582 250.552C107.937 250.266 108.362 250.049 108.856 249.901C109.359 249.745 109.883 249.667 110.43 249.667C111.375 249.667 112.103 249.897 112.615 250.357C113.126 250.816 113.382 251.518 113.382 252.463V256.625H112.198ZM109.936 256.703C109.424 256.703 108.973 256.616 108.583 256.443C108.202 256.27 107.907 256.031 107.699 255.728C107.491 255.416 107.387 255.064 107.387 254.674C107.387 254.301 107.473 253.963 107.647 253.66C107.829 253.356 108.119 253.114 108.518 252.932C108.925 252.75 109.472 252.658 110.157 252.658H112.341V253.556H110.209C109.584 253.556 109.164 253.66 108.947 253.868C108.73 254.076 108.622 254.327 108.622 254.622C108.622 254.96 108.756 255.233 109.025 255.442C109.294 255.641 109.667 255.741 110.144 255.741C110.612 255.741 111.019 255.637 111.366 255.429C111.722 255.22 111.977 254.917 112.133 254.518L112.38 255.377C112.216 255.784 111.925 256.109 111.509 256.352C111.093 256.586 110.568 256.703 109.936 256.703ZM116.707 254.96L116.733 253.361L120.699 249.732H122.208L119.165 252.724L118.488 253.296L116.707 254.96ZM115.692 256.625V246.975H116.941V256.625H115.692ZM120.959 256.625L118.254 253.27L119.061 252.268L122.494 256.625H120.959ZM126.483 256.703C125.746 256.703 125.096 256.551 124.532 256.248C123.977 255.944 123.544 255.528 123.232 254.999C122.928 254.471 122.777 253.864 122.777 253.179C122.777 252.494 122.924 251.887 123.219 251.358C123.522 250.829 123.934 250.417 124.454 250.123C124.983 249.819 125.577 249.667 126.236 249.667C126.904 249.667 127.493 249.815 128.005 250.11C128.516 250.404 128.915 250.82 129.201 251.358C129.496 251.887 129.643 252.507 129.643 253.218C129.643 253.27 129.639 253.33 129.63 253.4C129.63 253.469 129.626 253.534 129.617 253.595H123.752V252.698H128.967L128.46 253.01C128.469 252.567 128.377 252.173 128.187 251.826C127.996 251.479 127.732 251.211 127.393 251.02C127.064 250.82 126.678 250.721 126.236 250.721C125.803 250.721 125.417 250.82 125.079 251.02C124.74 251.211 124.476 251.484 124.285 251.839C124.095 252.186 123.999 252.585 123.999 253.036V253.244C123.999 253.703 124.103 254.115 124.311 254.479C124.528 254.835 124.827 255.112 125.209 255.311C125.59 255.511 126.028 255.611 126.522 255.611C126.93 255.611 127.298 255.541 127.628 255.403C127.966 255.264 128.26 255.056 128.512 254.778L129.201 255.585C128.889 255.949 128.499 256.226 128.031 256.417C127.571 256.608 127.055 256.703 126.483 256.703ZM135.465 256.625V255.168L135.4 254.895V252.411C135.4 251.883 135.244 251.475 134.932 251.189C134.628 250.894 134.169 250.747 133.553 250.747C133.146 250.747 132.747 250.816 132.357 250.955C131.967 251.085 131.637 251.263 131.369 251.488L130.848 250.552C131.204 250.266 131.629 250.049 132.123 249.901C132.626 249.745 133.15 249.667 133.696 249.667C134.641 249.667 135.37 249.897 135.881 250.357C136.393 250.816 136.649 251.518 136.649 252.463V256.625H135.465ZM133.202 256.703C132.691 256.703 132.24 256.616 131.85 256.443C131.468 256.27 131.173 256.031 130.965 255.728C130.757 255.416 130.653 255.064 130.653 254.674C130.653 254.301 130.74 253.963 130.913 253.66C131.095 253.356 131.386 253.114 131.785 252.932C132.192 252.75 132.738 252.658 133.423 252.658H135.608V253.556H133.475C132.851 253.556 132.431 253.66 132.214 253.868C131.997 254.076 131.889 254.327 131.889 254.622C131.889 254.96 132.023 255.233 132.292 255.442C132.561 255.641 132.933 255.741 133.41 255.741C133.878 255.741 134.286 255.637 134.633 255.429C134.988 255.22 135.244 254.917 135.4 254.518L135.647 255.377C135.482 255.784 135.192 256.109 134.776 256.352C134.36 256.586 133.835 256.703 133.202 256.703ZM140.288 256.625L137.727 249.732H138.91L141.186 255.975H140.627L142.994 249.732H144.047L146.362 255.975H145.816L148.143 249.732H149.262L146.687 256.625H145.49L143.319 250.929H143.683L141.485 256.625H140.288ZM154.592 256.625V255.168L154.526 254.895V252.411C154.526 251.883 154.37 251.475 154.058 251.189C153.755 250.894 153.295 250.747 152.68 250.747C152.272 250.747 151.873 250.816 151.483 250.955C151.093 251.085 150.764 251.263 150.495 251.488L149.975 250.552C150.33 250.266 150.755 250.049 151.249 249.901C151.752 249.745 152.277 249.667 152.823 249.667C153.768 249.667 154.496 249.897 155.008 250.357C155.519 250.816 155.775 251.518 155.775 252.463V256.625H154.592ZM152.329 256.703C151.817 256.703 151.366 256.616 150.976 256.443C150.595 256.27 150.3 256.031 150.092 255.728C149.884 255.416 149.78 255.064 149.78 254.674C149.78 254.301 149.866 253.963 150.04 253.66C150.222 253.356 150.512 253.114 150.911 252.932C151.319 252.75 151.865 252.658 152.55 252.658H154.735V253.556H152.602C151.978 253.556 151.557 253.66 151.34 253.868C151.124 254.076 151.015 254.327 151.015 254.622C151.015 254.96 151.15 255.233 151.418 255.442C151.687 255.641 152.06 255.741 152.537 255.741C153.005 255.741 153.412 255.637 153.759 255.429C154.115 255.22 154.37 254.917 154.526 254.518L154.774 255.377C154.609 255.784 154.318 256.109 153.902 256.352C153.486 256.586 152.962 256.703 152.329 256.703ZM158.257 259.226C157.928 259.226 157.607 259.17 157.295 259.057C156.983 258.953 156.714 258.797 156.489 258.589L157.022 257.652C157.195 257.817 157.386 257.943 157.594 258.03C157.802 258.116 158.023 258.16 158.257 258.16C158.561 258.16 158.812 258.082 159.012 257.925C159.211 257.769 159.398 257.492 159.571 257.093L160 256.144L160.13 255.988L162.835 249.732H164.058L160.715 257.314C160.516 257.8 160.291 258.181 160.039 258.459C159.796 258.736 159.528 258.931 159.233 259.044C158.938 259.165 158.613 259.226 158.257 259.226ZM159.896 256.846L156.749 249.732H158.049L160.728 255.871L159.896 256.846ZM68.3428 275.703C67.7706 275.703 67.246 275.573 66.7692 275.313C66.301 275.044 65.9239 274.65 65.6378 274.129C65.3603 273.609 65.2216 272.959 65.2216 272.179C65.2216 271.398 65.356 270.748 65.6247 270.228C65.9022 269.708 66.275 269.318 66.7432 269.057C67.22 268.797 67.7532 268.667 68.3428 268.667C69.019 268.667 69.6173 268.815 70.1375 269.11C70.6577 269.404 71.0695 269.816 71.3729 270.345C71.6764 270.865 71.8281 271.476 71.8281 272.179C71.8281 272.881 71.6764 273.497 71.3729 274.025C71.0695 274.554 70.6577 274.966 70.1375 275.261C69.6173 275.556 69.019 275.703 68.3428 275.703ZM64.6884 278.148V268.732H65.8848V270.592L65.8068 272.192L65.9369 273.791V278.148H64.6884ZM68.2387 274.611C68.6809 274.611 69.0754 274.511 69.4222 274.311C69.7777 274.112 70.0551 273.83 70.2545 273.466C70.4626 273.093 70.5666 272.664 70.5666 272.179C70.5666 271.684 70.4626 271.26 70.2545 270.904C70.0551 270.54 69.7777 270.258 69.4222 270.059C69.0754 269.859 68.6809 269.76 68.2387 269.76C67.8052 269.76 67.4108 269.859 67.0553 270.059C66.7085 270.258 66.4311 270.54 66.223 270.904C66.0236 271.26 65.9239 271.684 65.9239 272.179C65.9239 272.664 66.0236 273.093 66.223 273.466C66.4311 273.83 66.7085 274.112 67.0553 274.311C67.4108 274.511 67.8052 274.611 68.2387 274.611ZM77.7682 275.625V274.168L77.7032 273.895V271.411C77.7032 270.883 77.5472 270.475 77.235 270.189C76.9316 269.894 76.4721 269.747 75.8565 269.747C75.449 269.747 75.0502 269.816 74.6601 269.955C74.2699 270.085 73.9404 270.263 73.6717 270.488L73.1515 269.552C73.5069 269.266 73.9318 269.049 74.426 268.901C74.9288 268.745 75.4534 268.667 75.9996 268.667C76.9446 268.667 77.6729 268.897 78.1844 269.357C78.6959 269.816 78.9517 270.518 78.9517 271.463V275.625H77.7682ZM75.5054 275.703C74.9938 275.703 74.543 275.616 74.1529 275.443C73.7714 275.27 73.4766 275.031 73.2685 274.728C73.0604 274.416 72.9564 274.064 72.9564 273.674C72.9564 273.301 73.0431 272.963 73.2165 272.66C73.3986 272.356 73.689 272.114 74.0878 271.932C74.4953 271.75 75.0415 271.658 75.7265 271.658H77.9113V272.556H75.7785C75.1542 272.556 74.7337 272.66 74.517 272.868C74.3002 273.076 74.1919 273.327 74.1919 273.622C74.1919 273.96 74.3263 274.233 74.595 274.442C74.8638 274.641 75.2366 274.741 75.7135 274.741C76.1816 274.741 76.5891 274.637 76.9359 274.429C77.2914 274.22 77.5472 273.917 77.7032 273.518L77.9503 274.377C77.7856 274.784 77.4951 275.109 77.079 275.352C76.6628 275.586 76.1383 275.703 75.5054 275.703ZM84.2663 275.703C83.564 275.703 82.9354 275.551 82.3805 275.248C81.8343 274.944 81.4052 274.528 81.093 273.999C80.7809 273.471 80.6249 272.864 80.6249 272.179C80.6249 271.494 80.7809 270.887 81.093 270.358C81.4052 269.829 81.8343 269.417 82.3805 269.123C82.9354 268.819 83.564 268.667 84.2663 268.667C84.8905 268.667 85.4454 268.793 85.9309 269.044C86.4251 269.287 86.8066 269.651 87.0753 270.137L86.126 270.748C85.9005 270.41 85.6231 270.163 85.2936 270.007C84.9729 269.842 84.6261 269.76 84.2532 269.76C83.8024 269.76 83.3993 269.859 83.0438 270.059C82.6883 270.258 82.4065 270.54 82.1985 270.904C81.9904 271.26 81.8863 271.684 81.8863 272.179C81.8863 272.673 81.9904 273.102 82.1985 273.466C82.4065 273.83 82.6883 274.112 83.0438 274.311C83.3993 274.511 83.8024 274.611 84.2532 274.611C84.6261 274.611 84.9729 274.533 85.2936 274.377C85.6231 274.212 85.9005 273.96 86.126 273.622L87.0753 274.22C86.8066 274.697 86.4251 275.066 85.9309 275.326C85.4454 275.577 84.8905 275.703 84.2663 275.703ZM89.6172 273.96L89.6432 272.361L93.6097 268.732H95.1183L92.0751 271.724L91.3989 272.296L89.6172 273.96ZM88.6028 275.625V265.975H89.8513V275.625H88.6028ZM93.8698 275.625L91.1648 272.27L91.9711 271.268L95.4044 275.625H93.8698ZM100.768 275.625V274.168L100.703 273.895V271.411C100.703 270.883 100.547 270.475 100.235 270.189C99.9316 269.894 99.4721 269.747 98.8565 269.747C98.449 269.747 98.0502 269.816 97.66 269.955C97.2699 270.085 96.9404 270.263 96.6717 270.488L96.1515 269.552C96.5069 269.266 96.9318 269.049 97.426 268.901C97.9288 268.745 98.4533 268.667 98.9996 268.667C99.9446 268.667 100.673 268.897 101.184 269.357C101.696 269.816 101.952 270.518 101.952 271.463V275.625H100.768ZM98.5054 275.703C97.9938 275.703 97.543 275.616 97.1528 275.443C96.7714 275.27 96.4766 275.031 96.2685 274.728C96.0604 274.416 95.9564 274.064 95.9564 273.674C95.9564 273.301 96.0431 272.963 96.2165 272.66C96.3986 272.356 96.689 272.114 97.0878 271.932C97.4953 271.75 98.0415 271.658 98.7265 271.658H100.911V272.556H98.7785C98.1542 272.556 97.7337 272.66 97.517 272.868C97.3002 273.076 97.1919 273.327 97.1919 273.622C97.1919 273.96 97.3262 274.233 97.595 274.442C97.8638 274.641 98.2366 274.741 98.7134 274.741C99.1816 274.741 99.5891 274.637 99.9359 274.429C100.291 274.22 100.547 273.917 100.703 273.518L100.95 274.377C100.786 274.784 100.495 275.109 100.079 275.352C99.6628 275.586 99.1383 275.703 98.5054 275.703ZM107.279 278.226C106.646 278.226 106.031 278.135 105.433 277.953C104.843 277.779 104.362 277.528 103.989 277.199L104.587 276.236C104.908 276.514 105.302 276.73 105.771 276.886C106.239 277.051 106.729 277.134 107.24 277.134C108.055 277.134 108.653 276.943 109.035 276.561C109.416 276.18 109.607 275.599 109.607 274.819V273.362L109.737 271.997L109.672 270.618V268.732H110.856V274.689C110.856 275.902 110.552 276.795 109.945 277.368C109.338 277.94 108.45 278.226 107.279 278.226ZM107.123 275.339C106.456 275.339 105.857 275.2 105.329 274.923C104.808 274.637 104.392 274.242 104.08 273.739C103.777 273.236 103.625 272.656 103.625 271.997C103.625 271.329 103.777 270.748 104.08 270.254C104.392 269.751 104.808 269.361 105.329 269.084C105.857 268.806 106.456 268.667 107.123 268.667C107.713 268.667 108.25 268.789 108.736 269.031C109.221 269.266 109.607 269.63 109.893 270.124C110.188 270.618 110.335 271.242 110.335 271.997C110.335 272.742 110.188 273.362 109.893 273.856C109.607 274.351 109.221 274.723 108.736 274.975C108.25 275.218 107.713 275.339 107.123 275.339ZM107.266 274.246C107.726 274.246 108.133 274.151 108.489 273.96C108.844 273.77 109.122 273.505 109.321 273.167C109.529 272.829 109.633 272.439 109.633 271.997C109.633 271.554 109.529 271.164 109.321 270.826C109.122 270.488 108.844 270.228 108.489 270.046C108.133 269.855 107.726 269.76 107.266 269.76C106.807 269.76 106.395 269.855 106.031 270.046C105.675 270.228 105.394 270.488 105.185 270.826C104.986 271.164 104.886 271.554 104.886 271.997C104.886 272.439 104.986 272.829 105.185 273.167C105.394 273.505 105.675 273.77 106.031 273.96C106.395 274.151 106.807 274.246 107.266 274.246ZM113.241 275.625V268.732H114.49V275.625H113.241ZM113.865 267.406C113.623 267.406 113.419 267.328 113.254 267.172C113.098 267.016 113.02 266.825 113.02 266.6C113.02 266.365 113.098 266.17 113.254 266.014C113.419 265.858 113.623 265.78 113.865 265.78C114.108 265.78 114.308 265.858 114.464 266.014C114.628 266.162 114.711 266.348 114.711 266.574C114.711 266.808 114.633 267.007 114.477 267.172C114.321 267.328 114.117 267.406 113.865 267.406ZM120.554 268.667C121.117 268.667 121.611 268.776 122.036 268.992C122.47 269.209 122.808 269.539 123.051 269.981C123.293 270.423 123.415 270.982 123.415 271.658V275.625H122.166V271.802C122.166 271.134 122.002 270.631 121.672 270.293C121.351 269.955 120.896 269.786 120.307 269.786C119.864 269.786 119.479 269.872 119.149 270.046C118.82 270.219 118.564 270.475 118.382 270.813C118.209 271.151 118.122 271.572 118.122 272.075V275.625H116.873V268.732H118.07V270.592L117.875 270.098C118.1 269.647 118.447 269.296 118.915 269.044C119.383 268.793 119.93 268.667 120.554 268.667ZM128.743 278.226C128.11 278.226 127.494 278.135 126.896 277.953C126.306 277.779 125.825 277.528 125.452 277.199L126.05 276.236C126.371 276.514 126.766 276.73 127.234 276.886C127.702 277.051 128.192 277.134 128.704 277.134C129.518 277.134 130.117 276.943 130.498 276.561C130.88 276.18 131.07 275.599 131.07 274.819V273.362L131.2 271.997L131.135 270.618V268.732H132.319V274.689C132.319 275.902 132.015 276.795 131.409 277.368C130.802 277.94 129.913 278.226 128.743 278.226ZM128.586 275.339C127.919 275.339 127.321 275.2 126.792 274.923C126.272 274.637 125.855 274.242 125.543 273.739C125.24 273.236 125.088 272.656 125.088 271.997C125.088 271.329 125.24 270.748 125.543 270.254C125.855 269.751 126.272 269.361 126.792 269.084C127.321 268.806 127.919 268.667 128.586 268.667C129.176 268.667 129.714 268.789 130.199 269.031C130.685 269.266 131.07 269.63 131.357 270.124C131.651 270.618 131.799 271.242 131.799 271.997C131.799 272.742 131.651 273.362 131.357 273.856C131.07 274.351 130.685 274.723 130.199 274.975C129.714 275.218 129.176 275.339 128.586 275.339ZM128.73 274.246C129.189 274.246 129.597 274.151 129.952 273.96C130.307 273.77 130.585 273.505 130.784 273.167C130.992 272.829 131.096 272.439 131.096 271.997C131.096 271.554 130.992 271.164 130.784 270.826C130.585 270.488 130.307 270.228 129.952 270.046C129.597 269.855 129.189 269.76 128.73 269.76C128.27 269.76 127.858 269.855 127.494 270.046C127.139 270.228 126.857 270.488 126.649 270.826C126.449 271.164 126.35 271.554 126.35 271.997C126.35 272.439 126.449 272.829 126.649 273.167C126.857 273.505 127.139 273.77 127.494 273.96C127.858 274.151 128.27 274.246 128.73 274.246ZM135.003 275.703C134.761 275.703 134.553 275.621 134.379 275.456C134.206 275.283 134.119 275.066 134.119 274.806C134.119 274.546 134.206 274.333 134.379 274.168C134.553 274.004 134.761 273.921 135.003 273.921C135.238 273.921 135.437 274.004 135.602 274.168C135.775 274.333 135.862 274.546 135.862 274.806C135.862 275.066 135.775 275.283 135.602 275.456C135.437 275.621 135.238 275.703 135.003 275.703Z" fill="black"/>
<defs>
<linearGradient id="paint0_linear_2599_42" x1="103.15" y1="165.095" x2="103.15" y2="12.2402" gradientUnits="userSpaceOnUse">
<stop offset="0.906845" stop-color="#EFEFEF"/>
</linearGradient>
<linearGradient id="paint1_linear_2599_42" x1="103.15" y1="286.734" x2="103.15" y2="297.499" gradientUnits="userSpaceOnUse">
<stop offset="0.365385" stop-color="#1B8699"/>
<stop offset="1" stop-color="white"/>
</linearGradient>
</defs>
</svg>
