<svg width="71" height="11" viewBox="0 0 71 11" fill="none" xmlns="http://www.w3.org/2000/svg">
<path d="M4.19815 10.5562C3.39548 10.5562 2.67682 10.3602 2.04215 9.96818C1.40748 9.56685 0.908149 8.98818 0.544148 8.23218C0.180148 7.47618 -0.00185155 6.56152 -0.00185155 5.48818C-0.00185155 4.41485 0.180148 3.50018 0.544148 2.74418C0.908149 1.98818 1.40748 1.41418 2.04215 1.02218C2.67682 0.62085 3.39548 0.420183 4.19815 0.420183C5.01015 0.420183 5.72882 0.62085 6.35415 1.02218C6.98882 1.41418 7.48815 1.98818 7.85215 2.74418C8.21615 3.50018 8.39815 4.41485 8.39815 5.48818C8.39815 6.56152 8.21615 7.47618 7.85215 8.23218C7.48815 8.98818 6.98882 9.56685 6.35415 9.96818C5.72882 10.3602 5.01015 10.5562 4.19815 10.5562ZM4.19815 8.63818C4.58082 8.63818 4.91215 8.53085 5.19215 8.31618C5.48148 8.10152 5.70548 7.76085 5.86415 7.29418C6.03215 6.82752 6.11615 6.22552 6.11615 5.48818C6.11615 4.75085 6.03215 4.14885 5.86415 3.68218C5.70548 3.21552 5.48148 2.87485 5.19215 2.66018C4.91215 2.44552 4.58082 2.33818 4.19815 2.33818C3.82482 2.33818 3.49348 2.44552 3.20415 2.66018C2.92415 2.87485 2.70015 3.21552 2.53215 3.68218C2.37348 4.14885 2.29415 4.75085 2.29415 5.48818C2.29415 6.22552 2.37348 6.82752 2.53215 7.29418C2.70015 7.76085 2.92415 8.10152 3.20415 8.31618C3.49348 8.53085 3.82482 8.63818 4.19815 8.63818ZM12.8321 10.5562C12.1508 10.5562 11.4741 10.4675 10.8021 10.2902C10.1394 10.1035 9.5701 9.84218 9.0941 9.50618L9.9901 7.77018C10.3634 8.04085 10.7928 8.25552 11.2781 8.41418C11.7728 8.57285 12.2721 8.65218 12.7761 8.65218C13.3454 8.65218 13.7934 8.54018 14.1201 8.31618C14.4468 8.09218 14.6101 7.77952 14.6101 7.37818C14.6101 7.12618 14.5448 6.90218 14.4141 6.70618C14.2834 6.51018 14.0501 6.36085 13.7141 6.25818C13.3874 6.15552 12.9254 6.10418 12.3281 6.10418L9.8221 6.10418L10.3261 0.588183H16.3041V2.40818L11.1381 2.40818L12.3141 1.37218L11.9641 5.30618L10.7881 4.27018L12.8601 4.27018C13.8308 4.27018 14.6101 4.40552 15.1981 4.67618C15.7954 4.93752 16.2294 5.29685 16.5001 5.75418C16.7708 6.21152 16.9061 6.72952 16.9061 7.30818C16.9061 7.88685 16.7614 8.42352 16.4721 8.91818C16.1828 9.40352 15.7348 9.80018 15.1281 10.1082C14.5308 10.4069 13.7654 10.5562 12.8321 10.5562ZM18.0083 7.32218V5.57218H21.9703V7.32218H18.0083ZM24.6579 10.3882L28.6059 1.45618L29.1939 2.43618H23.9159L24.9239 1.37218V4.03218H22.9079V0.588183H30.7619V2.05818L27.1219 10.3882H24.6579ZM34.8712 10.5562C34.1898 10.5562 33.5132 10.4675 32.8412 10.2902C32.1785 10.1035 31.6092 9.84218 31.1332 9.50618L32.0292 7.77018C32.4025 8.04085 32.8318 8.25552 33.3172 8.41418C33.8118 8.57285 34.3112 8.65218 34.8152 8.65218C35.3845 8.65218 35.8325 8.54018 36.1592 8.31618C36.4858 8.09218 36.6492 7.77952 36.6492 7.37818C36.6492 7.12618 36.5838 6.90218 36.4532 6.70618C36.3225 6.51018 36.0892 6.36085 35.7532 6.25818C35.4265 6.15552 34.9645 6.10418 34.3672 6.10418H31.8612L32.3652 0.588183L38.3432 0.588183V2.40818H33.1772L34.3532 1.37218L34.0032 5.30618L32.8272 4.27018H34.8992C35.8698 4.27018 36.6492 4.40552 37.2372 4.67618C37.8345 4.93752 38.2685 5.29685 38.5392 5.75418C38.8098 6.21152 38.9452 6.72952 38.9452 7.30818C38.9452 7.88685 38.8005 8.42352 38.5112 8.91818C38.2218 9.40352 37.7738 9.80018 37.1672 10.1082C36.5698 10.4069 35.8045 10.5562 34.8712 10.5562ZM44.0653 10.5562C43.2627 10.5562 42.544 10.3602 41.9093 9.96818C41.2747 9.56685 40.7753 8.98818 40.4113 8.23218C40.0473 7.47618 39.8653 6.56152 39.8653 5.48818C39.8653 4.41485 40.0473 3.50018 40.4113 2.74418C40.7753 1.98818 41.2747 1.41418 41.9093 1.02218C42.544 0.62085 43.2627 0.420183 44.0653 0.420183C44.8773 0.420183 45.596 0.62085 46.2213 1.02218C46.856 1.41418 47.3553 1.98818 47.7193 2.74418C48.0833 3.50018 48.2653 4.41485 48.2653 5.48818C48.2653 6.56152 48.0833 7.47618 47.7193 8.23218C47.3553 8.98818 46.856 9.56685 46.2213 9.96818C45.596 10.3602 44.8773 10.5562 44.0653 10.5562ZM44.0653 8.63818C44.448 8.63818 44.7793 8.53085 45.0593 8.31618C45.3487 8.10152 45.5727 7.76085 45.7313 7.29418C45.8993 6.82752 45.9833 6.22552 45.9833 5.48818C45.9833 4.75085 45.8993 4.14885 45.7313 3.68218C45.5727 3.21552 45.3487 2.87485 45.0593 2.66018C44.7793 2.44552 44.448 2.33818 44.0653 2.33818C43.692 2.33818 43.3607 2.44552 43.0713 2.66018C42.7913 2.87485 42.5673 3.21552 42.3993 3.68218C42.2407 4.14885 42.1613 4.75085 42.1613 5.48818C42.1613 6.22552 42.2407 6.82752 42.3993 7.29418C42.5673 7.76085 42.7913 8.10152 43.0713 8.31618C43.3607 8.53085 43.692 8.63818 44.0653 8.63818ZM63.4401 2.74418C64.0375 2.74418 64.5648 2.86552 65.0221 3.10818C65.4888 3.34152 65.8528 3.70552 66.1141 4.20018C66.3848 4.68552 66.5201 5.31085 66.5201 6.07618V10.3882H64.3361V6.41218C64.3361 5.80552 64.2101 5.35752 63.9581 5.06818C63.7061 4.77885 63.3515 4.63418 62.8941 4.63418C62.5768 4.63418 62.2921 4.70885 62.0401 4.85818C61.7881 4.99818 61.5921 5.21285 61.4521 5.50218C61.3121 5.79152 61.2421 6.16018 61.2421 6.60818V10.3882H59.0581V6.41218C59.0581 5.80552 58.9321 5.35752 58.6801 5.06818C58.4375 4.77885 58.0875 4.63418 57.6301 4.63418C57.3128 4.63418 57.0281 4.70885 56.7761 4.85818C56.5241 4.99818 56.3281 5.21285 56.1881 5.50218C56.0481 5.79152 55.9781 6.16018 55.9781 6.60818V10.3882H53.7941V2.85618H55.8801V4.91418L55.4881 4.31218C55.7495 3.79885 56.1181 3.41152 56.5941 3.15018C57.0795 2.87952 57.6301 2.74418 58.2461 2.74418C58.9368 2.74418 59.5388 2.92152 60.0521 3.27618C60.5748 3.62152 60.9201 4.15352 61.0881 4.87218L60.3181 4.66218C60.5701 4.07418 60.9715 3.60752 61.5221 3.26218C62.0821 2.91685 62.7215 2.74418 63.4401 2.74418ZM68.4777 10.3882V0.000182986H70.6617V10.3882H68.4777Z" fill="#F6F4F3"/>
</svg>
