<svg width="297" height="26" viewBox="0 0 297 26" fill="none" xmlns="http://www.w3.org/2000/svg">
<rect y="7.85938" width="10.2812" height="10.2812" rx="5.14062" fill="#442210"/>
<path d="M2.65332 14.2405V15.2797C2.97082 15.6689 3.37101 15.9825 3.82483 16.1977C4.27865 16.413 4.77471 16.5244 5.27698 16.524C6.44895 16.524 7.48216 15.9288 8.09037 15.0244V13.5678C7.88221 14.9347 6.70183 15.982 5.27698 15.982C4.09688 15.982 3.08454 15.2637 2.65332 14.2405ZM7.58895 11.4762V11.0095C7.58804 10.9065 7.60491 10.8042 7.63882 10.707C7.00703 10.0911 6.1593 9.7469 5.27698 9.74805C4.4874 9.74688 3.72242 10.0226 3.11517 10.5273L3.11653 10.5438L3.1168 10.5511V11.2829C3.38376 10.9712 3.71511 10.7211 4.08802 10.5497C4.46094 10.3783 4.86657 10.2897 5.27698 10.2901C6.22941 10.2901 7.07234 10.7579 7.58895 11.4762Z" fill="white"/>
<path d="M7.44409 13.136C7.44409 13.7111 7.21564 14.2626 6.809 14.6692C6.40236 15.0758 5.85085 15.3043 5.27577 15.3043C4.7007 15.3043 4.14918 15.0758 3.74254 14.6692C3.33591 14.2626 3.10746 13.7111 3.10746 13.136C3.10746 12.5609 3.33591 12.0094 3.74254 11.6027C4.14918 11.1961 4.7007 10.9677 5.27577 10.9677C5.85085 10.9677 6.40236 11.1961 6.809 11.6027C7.21564 12.0094 7.44409 12.5609 7.44409 13.136ZM5.27577 15.0333C5.52493 15.0333 5.77164 14.9842 6.00183 14.8888C6.23202 14.7935 6.44117 14.6537 6.61735 14.4776C6.79353 14.3014 6.93328 14.0922 7.02863 13.862C7.12397 13.6318 7.17305 13.3851 7.17305 13.136C7.17305 12.8868 7.12397 12.6401 7.02863 12.4099C6.93328 12.1797 6.79353 11.9706 6.61735 11.7944C6.44117 11.6182 6.23202 11.4785 6.00183 11.3831C5.77164 11.2878 5.52493 11.2387 5.27577 11.2387C4.77258 11.2387 4.29 11.4386 3.9342 11.7944C3.57839 12.1502 3.3785 12.6328 3.3785 13.136C3.3785 13.6392 3.57839 14.1217 3.9342 14.4776C4.29 14.8334 4.77258 15.0333 5.27577 15.0333ZM8.93209 10.8159C8.93209 10.5719 8.73423 10.3741 8.4903 10.3741C8.13795 10.3741 7.85607 10.6587 7.85878 11.0083V12.5126C7.85878 12.8522 8.05555 13.1563 8.3602 13.294V15.6295C8.3602 15.7705 8.47404 15.8843 8.61498 15.8843H8.67732C8.81826 15.8843 8.93209 15.7705 8.93209 15.6295V10.8159ZM2.65211 10.3741C2.60323 10.3741 2.55635 10.3935 2.52179 10.4281C2.48722 10.4626 2.46781 10.5095 2.46781 10.5584V11.2875C2.46781 11.3417 2.42444 11.3824 2.37294 11.3824C2.31873 11.3824 2.27808 11.339 2.27808 11.2875V10.5665C2.27808 10.4662 2.19948 10.3768 2.09919 10.3741C1.99349 10.3714 1.90675 10.4554 1.90675 10.5584V11.2875C1.90675 11.3417 1.86339 11.3824 1.81189 11.3824C1.75768 11.3824 1.71703 11.339 1.71703 11.2875V10.5665C1.71703 10.4662 1.63843 10.3768 1.53814 10.3741C1.43244 10.3714 1.3457 10.4554 1.3457 10.5584V11.7998C1.3457 12.0442 1.46415 12.2624 1.64629 12.3985C1.80918 12.4904 1.80918 12.911 1.80918 12.911V15.6268C1.80918 15.7678 1.92302 15.8816 2.06396 15.8816H2.1263C2.26724 15.8816 2.38107 15.7678 2.38107 15.6268V12.911C2.38107 12.911 2.38107 12.5069 2.54397 12.3985C2.63716 12.3289 2.71285 12.2386 2.76503 12.1346C2.81721 12.0307 2.84443 11.916 2.84455 11.7998V10.5584C2.84181 10.509 2.82041 10.4625 2.78468 10.4283C2.74896 10.3941 2.70157 10.3747 2.65211 10.3741Z" fill="white"/>
<path d="M16.8611 12.2372H20.5814V13.6766H16.8611V12.2372ZM16.9939 16.5H15.2002V8.74943H21.0575V10.1888H16.9939V16.5ZM24.8331 16.5886C24.1983 16.5886 23.6336 16.4557 23.139 16.19C22.6519 15.9242 22.2643 15.5626 21.9765 15.1049C21.696 14.6399 21.5557 14.1121 21.5557 13.5216C21.5557 12.9237 21.696 12.3959 21.9765 11.9382C22.2643 11.4732 22.6519 11.1115 23.139 10.8532C23.6336 10.5874 24.1983 10.4546 24.8331 10.4546C25.4605 10.4546 26.0215 10.5874 26.5161 10.8532C27.0106 11.1115 27.3982 11.4695 27.6787 11.9272C27.9592 12.3848 28.0994 12.9163 28.0994 13.5216C28.0994 14.1121 27.9592 14.6399 27.6787 15.1049C27.3982 15.5626 27.0106 15.9242 26.5161 16.19C26.0215 16.4557 25.4605 16.5886 24.8331 16.5886ZM24.8331 15.1713C25.121 15.1713 25.3793 15.1049 25.6082 14.972C25.837 14.8392 26.0178 14.6509 26.1507 14.4073C26.2836 14.1564 26.35 13.8611 26.35 13.5216C26.35 13.1746 26.2836 12.8794 26.1507 12.6358C26.0178 12.3922 25.837 12.204 25.6082 12.0711C25.3793 11.9382 25.121 11.8718 24.8331 11.8718C24.5452 11.8718 24.2869 11.9382 24.058 12.0711C23.8292 12.204 23.6447 12.3922 23.5044 12.6358C23.3716 12.8794 23.3051 13.1746 23.3051 13.5216C23.3051 13.8611 23.3716 14.1564 23.5044 14.4073C23.6447 14.6509 23.8292 14.8392 24.058 14.972C24.2869 15.1049 24.5452 15.1713 24.8331 15.1713ZM32.0884 16.5886C31.4536 16.5886 30.889 16.4557 30.3944 16.19C29.9072 15.9242 29.5197 15.5626 29.2318 15.1049C28.9513 14.6399 28.8111 14.1121 28.8111 13.5216C28.8111 12.9237 28.9513 12.3959 29.2318 11.9382C29.5197 11.4732 29.9072 11.1115 30.3944 10.8532C30.889 10.5874 31.4536 10.4546 32.0884 10.4546C32.7159 10.4546 33.2769 10.5874 33.7714 10.8532C34.266 11.1115 34.6535 11.4695 34.934 11.9272C35.2145 12.3848 35.3548 12.9163 35.3548 13.5216C35.3548 14.1121 35.2145 14.6399 34.934 15.1049C34.6535 15.5626 34.266 15.9242 33.7714 16.19C33.2769 16.4557 32.7159 16.5886 32.0884 16.5886ZM32.0884 15.1713C32.3763 15.1713 32.6347 15.1049 32.8635 14.972C33.0923 14.8392 33.2732 14.6509 33.406 14.4073C33.5389 14.1564 33.6053 13.8611 33.6053 13.5216C33.6053 13.1746 33.5389 12.8794 33.406 12.6358C33.2732 12.3922 33.0923 12.204 32.8635 12.0711C32.6347 11.9382 32.3763 11.8718 32.0884 11.8718C31.8006 11.8718 31.5422 11.9382 31.3134 12.0711C31.0846 12.204 30.9 12.3922 30.7598 12.6358C30.6269 12.8794 30.5605 13.1746 30.5605 13.5216C30.5605 13.8611 30.6269 14.1564 30.7598 14.4073C30.9 14.6509 31.0846 14.8392 31.3134 14.972C31.5422 15.1049 31.8006 15.1713 32.0884 15.1713ZM39.067 16.5886C38.506 16.5886 38.0004 16.4631 37.5501 16.2121C37.0998 15.9538 36.7418 15.5958 36.4761 15.1381C36.2177 14.6805 36.0886 14.1416 36.0886 13.5216C36.0886 12.8941 36.2177 12.3516 36.4761 11.8939C36.7418 11.4363 37.0998 11.082 37.5501 10.831C38.0004 10.58 38.506 10.4546 39.067 10.4546C39.5689 10.4546 40.0081 10.5653 40.3846 10.7867C40.761 11.0082 41.0526 11.344 41.2593 11.7943C41.466 12.2446 41.5693 12.8203 41.5693 13.5216C41.5693 14.2154 41.4697 14.7912 41.2704 15.2488C41.0711 15.6991 40.7832 16.035 40.4067 16.2564C40.0377 16.4779 39.5911 16.5886 39.067 16.5886ZM39.3659 15.1713C39.6464 15.1713 39.9011 15.1049 40.1299 14.972C40.3587 14.8392 40.5396 14.6509 40.6725 14.4073C40.8127 14.1564 40.8828 13.8611 40.8828 13.5216C40.8828 13.1746 40.8127 12.8794 40.6725 12.6358C40.5396 12.3922 40.3587 12.204 40.1299 12.0711C39.9011 11.9382 39.6464 11.8718 39.3659 11.8718C39.0781 11.8718 38.8197 11.9382 38.5909 12.0711C38.3621 12.204 38.1775 12.3922 38.0373 12.6358C37.9044 12.8794 37.838 13.1746 37.838 13.5216C37.838 13.8611 37.9044 14.1564 38.0373 14.4073C38.1775 14.6509 38.3621 14.8392 38.5909 14.972C38.8197 15.1049 39.0781 15.1713 39.3659 15.1713ZM40.9271 16.5V15.2821L40.9603 13.5105L40.8496 11.75V8.28439H42.5769V16.5H40.9271ZM49.9796 16.6329C49.3596 16.6329 48.7654 16.5517 48.197 16.3893C47.6286 16.2195 47.171 16.0017 46.824 15.736L47.433 14.3852C47.7652 14.6214 48.1564 14.817 48.6067 14.972C49.0643 15.1197 49.5257 15.1935 49.9907 15.1935C50.345 15.1935 50.6292 15.1603 50.8433 15.0938C51.0647 15.02 51.2271 14.9204 51.3304 14.7949C51.4338 14.6694 51.4855 14.5254 51.4855 14.3631C51.4855 14.1564 51.4043 13.994 51.2419 13.8759C51.0795 13.7504 50.8654 13.6507 50.5997 13.5769C50.3339 13.4957 50.0387 13.4219 49.7139 13.3555C49.3965 13.2817 49.0754 13.1931 48.7506 13.0897C48.4332 12.9864 48.1416 12.8535 47.8759 12.6911C47.6102 12.5288 47.3924 12.3147 47.2226 12.049C47.0603 11.7832 46.9791 11.4437 46.9791 11.0303C46.9791 10.5874 47.0972 10.1851 47.3334 9.82344C47.577 9.45436 47.9387 9.16279 48.4184 8.94873C48.9056 8.72728 49.5146 8.61656 50.2454 8.61656C50.7325 8.61656 51.2123 8.67561 51.6848 8.79372C52.1572 8.90444 52.5742 9.07421 52.9359 9.30304L52.3823 10.6649C52.0206 10.4582 51.6589 10.3069 51.2972 10.211C50.9355 10.1076 50.5812 10.056 50.2343 10.056C49.8874 10.056 49.6032 10.0966 49.3817 10.1777C49.1603 10.2589 49.0016 10.366 48.9056 10.4988C48.8097 10.6243 48.7617 10.772 48.7617 10.9417C48.7617 11.141 48.8429 11.3034 49.0053 11.4289C49.1677 11.547 49.3817 11.643 49.6475 11.7168C49.9132 11.7906 50.2048 11.8644 50.5222 11.9382C50.847 12.0121 51.1681 12.0969 51.4855 12.1929C51.8102 12.2889 52.1055 12.418 52.3712 12.5804C52.637 12.7428 52.851 12.9569 53.0134 13.2226C53.1832 13.4883 53.2681 13.8242 53.2681 14.2302C53.2681 14.6657 53.1463 15.0643 52.9027 15.426C52.6591 15.7877 52.2937 16.0793 51.8066 16.3007C51.3268 16.5221 50.7178 16.6329 49.9796 16.6329ZM58.0258 16.5V15.3374L57.9151 15.0828V13.0012C57.9151 12.6321 57.8006 12.3442 57.5718 12.1375C57.3504 11.9309 57.0071 11.8275 56.5421 11.8275C56.2247 11.8275 55.911 11.8792 55.601 11.9825C55.2983 12.0785 55.04 12.2114 54.8259 12.3811L54.2059 11.1743C54.5306 10.9454 54.9219 10.7683 55.3795 10.6428C55.8372 10.5173 56.3022 10.4546 56.7746 10.4546C57.6825 10.4546 58.3875 10.6686 58.8894 11.0967C59.3914 11.5249 59.6423 12.1929 59.6423 13.1008V16.5H58.0258ZM56.2099 16.5886C55.7449 16.5886 55.3463 16.5111 55.0141 16.3561C54.682 16.1937 54.4273 15.9759 54.2501 15.7028C54.073 15.4297 53.9844 15.1234 53.9844 14.7838C53.9844 14.4295 54.0693 14.1195 54.2391 13.8537C54.4162 13.588 54.693 13.3813 55.0695 13.2337C55.446 13.0787 55.9368 13.0012 56.5421 13.0012H58.1254V14.0087H56.7303C56.3243 14.0087 56.0439 14.0752 55.8888 14.208C55.7412 14.3409 55.6674 14.507 55.6674 14.7063C55.6674 14.9277 55.7523 15.1049 55.9221 15.2378C56.0992 15.3632 56.3391 15.426 56.6418 15.426C56.9296 15.426 57.188 15.3596 57.4168 15.2267C57.6456 15.0864 57.8117 14.8835 57.9151 14.6177L58.1808 15.4149C58.0553 15.7988 57.8265 16.0903 57.4943 16.2896C57.1621 16.4889 56.734 16.5886 56.2099 16.5886ZM61.416 16.5V10.4103C61.416 9.73855 61.6153 9.20339 62.0139 8.80479C62.4125 8.39881 62.9808 8.19582 63.719 8.19582C63.97 8.19582 64.2099 8.22165 64.4387 8.27332C64.6749 8.32499 64.8742 8.40619 65.0366 8.51691L64.5826 9.76808C64.4867 9.70164 64.3796 9.64997 64.2615 9.61306C64.1434 9.57616 64.0179 9.5577 63.8851 9.5577C63.6341 9.5577 63.4385 9.63152 63.2982 9.77915C63.1654 9.9194 63.0989 10.1335 63.0989 10.4213V10.975L63.1432 11.7168V16.5H61.416ZM60.497 12.0047V10.676H64.6269V12.0047H60.497ZM68.368 16.5886C67.6889 16.5886 67.091 16.4557 66.5743 16.19C66.065 15.9242 65.6701 15.5626 65.3896 15.1049C65.1091 14.6399 64.9689 14.1121 64.9689 13.5216C64.9689 12.9237 65.1054 12.3959 65.3785 11.9382C65.659 11.4732 66.0392 11.1115 66.519 10.8532C66.9988 10.5874 67.5413 10.4546 68.1466 10.4546C68.7297 10.4546 69.2538 10.58 69.7189 10.831C70.1913 11.0746 70.564 11.4289 70.8371 11.8939C71.1103 12.3516 71.2468 12.9015 71.2468 13.5437C71.2468 13.6101 71.2431 13.6876 71.2358 13.7762C71.2284 13.8574 71.221 13.9349 71.2136 14.0087H66.375V13.0012H70.3057L69.6413 13.3001C69.6413 12.9901 69.5786 12.7207 69.4531 12.4918C69.3276 12.263 69.1542 12.0859 68.9327 11.9604C68.7113 11.8275 68.4529 11.7611 68.1577 11.7611C67.8624 11.7611 67.6004 11.8275 67.3715 11.9604C67.1501 12.0859 66.9766 12.2667 66.8511 12.5029C66.7257 12.7317 66.6629 13.0049 66.6629 13.3223V13.588C66.6629 13.9128 66.733 14.2007 66.8733 14.4516C67.0209 14.6952 67.2239 14.8835 67.4823 15.0163C67.748 15.1418 68.058 15.2045 68.4123 15.2045C68.7297 15.2045 69.0065 15.1566 69.2427 15.0606C69.4863 14.9646 69.7078 14.8207 69.9071 14.6288L70.8261 15.6253C70.553 15.9353 70.2097 16.1752 69.7964 16.345C69.383 16.5074 68.9069 16.5886 68.368 16.5886Z" fill="#442210"/>
<path d="M83.2812 0L83.2813 26" stroke="#442210"/>
<path d="M99.554 15.6362L97.445 13.5272L98.1885 12.7838L99.554 14.1441L103.029 10.6695L103.772 11.4182M100.609 7.2002L95.8633 9.30919V12.4727C95.8633 15.3989 97.8879 18.1354 100.609 18.7997C103.329 18.1354 105.354 15.3989 105.354 12.4727V9.30919L100.609 7.2002Z" fill="#442210"/>
<path d="M112.6 16.5V8.74943H115.955C116.648 8.74943 117.246 8.86384 117.748 9.09267C118.25 9.31411 118.638 9.63521 118.911 10.056C119.184 10.4767 119.321 10.9786 119.321 11.5618C119.321 12.1375 119.184 12.6358 118.911 13.0565C118.638 13.4773 118.25 13.8021 117.748 14.0309C117.246 14.2523 116.648 14.3631 115.955 14.3631H113.596L114.393 13.5548V16.5H112.6ZM114.393 13.7541L113.596 12.9015H115.855C116.409 12.9015 116.822 12.7834 117.095 12.5472C117.368 12.311 117.505 11.9825 117.505 11.5618C117.505 11.1337 117.368 10.8015 117.095 10.5653C116.822 10.3291 116.409 10.211 115.855 10.211H113.596L114.393 9.3584V13.7541ZM120.479 16.5V10.5431H122.129V12.2261L121.897 11.7389C122.074 11.3182 122.358 11.0008 122.749 10.7867C123.14 10.5653 123.616 10.4546 124.177 10.4546V12.049C124.104 12.0416 124.037 12.0379 123.978 12.0379C123.919 12.0305 123.856 12.0268 123.79 12.0268C123.317 12.0268 122.934 12.1634 122.638 12.4365C122.351 12.7022 122.207 13.1193 122.207 13.6877V16.5H120.479ZM128.107 16.5886C127.428 16.5886 126.83 16.4557 126.313 16.19C125.804 15.9242 125.409 15.5626 125.128 15.1049C124.848 14.6399 124.708 14.1121 124.708 13.5216C124.708 12.9237 124.844 12.3959 125.117 11.9382C125.398 11.4732 125.778 11.1115 126.258 10.8532C126.737 10.5874 127.28 10.4546 127.885 10.4546C128.468 10.4546 128.992 10.58 129.457 10.831C129.93 11.0746 130.303 11.4289 130.576 11.8939C130.849 12.3516 130.985 12.9015 130.985 13.5437C130.985 13.6101 130.982 13.6876 130.974 13.7762C130.967 13.8574 130.96 13.9349 130.952 14.0087H126.114V13.0012H130.044L129.38 13.3001C129.38 12.9901 129.317 12.7207 129.192 12.4918C129.066 12.263 128.893 12.0859 128.671 11.9604C128.45 11.8275 128.192 11.7611 127.896 11.7611C127.601 11.7611 127.339 11.8275 127.11 11.9604C126.889 12.0859 126.715 12.2667 126.59 12.5029C126.464 12.7317 126.402 13.0049 126.402 13.3223V13.588C126.402 13.9128 126.472 14.2007 126.612 14.4516C126.76 14.6952 126.963 14.8835 127.221 15.0163C127.487 15.1418 127.797 15.2045 128.151 15.2045C128.468 15.2045 128.745 15.1566 128.981 15.0606C129.225 14.9646 129.446 14.8207 129.646 14.6288L130.565 15.6253C130.292 15.9353 129.948 16.1752 129.535 16.345C129.122 16.5074 128.646 16.5886 128.107 16.5886ZM139.764 10.4546C140.237 10.4546 140.654 10.5505 141.015 10.7424C141.384 10.927 141.672 11.2148 141.879 11.6061C142.093 11.9899 142.2 12.4845 142.2 13.0897V16.5H140.473V13.3555C140.473 12.8757 140.373 12.5214 140.174 12.2925C139.975 12.0637 139.694 11.9493 139.332 11.9493C139.081 11.9493 138.856 12.0084 138.657 12.1265C138.458 12.2372 138.303 12.407 138.192 12.6358C138.081 12.8646 138.026 13.1562 138.026 13.5105V16.5H136.299V13.3555C136.299 12.8757 136.199 12.5214 136 12.2925C135.808 12.0637 135.531 11.9493 135.169 11.9493C134.918 11.9493 134.693 12.0084 134.494 12.1265C134.295 12.2372 134.14 12.407 134.029 12.6358C133.918 12.8646 133.863 13.1562 133.863 13.5105V16.5H132.135V10.5431H133.785V12.1708L133.475 11.6946C133.682 11.2887 133.973 10.9823 134.35 10.7756C134.734 10.5616 135.169 10.4546 135.656 10.4546C136.203 10.4546 136.679 10.5948 137.085 10.8753C137.498 11.1484 137.771 11.5692 137.904 12.1375L137.295 11.9715C137.494 11.5064 137.812 11.1373 138.247 10.8642C138.69 10.5911 139.196 10.4546 139.764 10.4546ZM143.748 16.5V10.5431H145.476V16.5H143.748ZM144.612 9.71271C144.295 9.71271 144.036 9.62045 143.837 9.43591C143.638 9.25137 143.538 9.02254 143.538 8.74943C143.538 8.47631 143.638 8.24749 143.837 8.06295C144.036 7.87841 144.295 7.78614 144.612 7.78614C144.929 7.78614 145.188 7.87472 145.387 8.05188C145.586 8.22165 145.686 8.4431 145.686 8.71621C145.686 9.00409 145.586 9.24399 145.387 9.43591C145.195 9.62045 144.937 9.71271 144.612 9.71271ZM149.592 16.5886C149.097 16.5886 148.655 16.4926 148.263 16.3007C147.88 16.1088 147.581 15.8172 147.367 15.426C147.152 15.0274 147.045 14.5218 147.045 13.9091V10.5431H148.773V13.6544C148.773 14.149 148.876 14.5144 149.083 14.7506C149.297 14.9794 149.596 15.0938 149.98 15.0938C150.245 15.0938 150.481 15.0385 150.688 14.9277C150.895 14.8096 151.057 14.6325 151.175 14.3963C151.293 14.1527 151.353 13.85 151.353 13.4883V10.5431H153.08V16.5H151.441V14.8613L151.74 15.3374C151.541 15.7508 151.245 16.0645 150.854 16.2786C150.47 16.4852 150.05 16.5886 149.592 16.5886ZM162.309 10.4546C162.781 10.4546 163.198 10.5505 163.56 10.7424C163.929 10.927 164.217 11.2148 164.424 11.6061C164.638 11.9899 164.745 12.4845 164.745 13.0897V16.5H163.017V13.3555C163.017 12.8757 162.918 12.5214 162.718 12.2925C162.519 12.0637 162.239 11.9493 161.877 11.9493C161.626 11.9493 161.401 12.0084 161.202 12.1265C161.002 12.2372 160.847 12.407 160.737 12.6358C160.626 12.8646 160.57 13.1562 160.57 13.5105V16.5H158.843V13.3555C158.843 12.8757 158.743 12.5214 158.544 12.2925C158.352 12.0637 158.075 11.9493 157.714 11.9493C157.463 11.9493 157.238 12.0084 157.038 12.1265C156.839 12.2372 156.684 12.407 156.573 12.6358C156.463 12.8646 156.407 13.1562 156.407 13.5105V16.5H154.68V10.5431H156.33V12.1708L156.02 11.6946C156.226 11.2887 156.518 10.9823 156.894 10.7756C157.278 10.5616 157.714 10.4546 158.201 10.4546C158.747 10.4546 159.223 10.5948 159.629 10.8753C160.043 11.1484 160.316 11.5692 160.449 12.1375L159.84 11.9715C160.039 11.5064 160.356 11.1373 160.792 10.8642C161.235 10.5911 161.74 10.4546 162.309 10.4546ZM173.304 16.6329C172.699 16.6329 172.134 16.5332 171.61 16.3339C171.093 16.1346 170.643 15.8541 170.259 15.4924C169.883 15.1307 169.587 14.7063 169.373 14.2191C169.167 13.7319 169.063 13.2005 169.063 12.6247C169.063 12.049 169.167 11.5175 169.373 11.0303C169.587 10.5431 169.886 10.1187 170.27 9.757C170.654 9.39531 171.104 9.11481 171.621 8.91551C172.138 8.71621 172.699 8.61656 173.304 8.61656C173.917 8.61656 174.477 8.71621 174.987 8.91551C175.504 9.11481 175.95 9.39531 176.327 9.757C176.71 10.1113 177.009 10.5321 177.223 11.0192C177.437 11.5064 177.545 12.0416 177.545 12.6247C177.545 13.2005 177.437 13.7356 177.223 14.2302C177.009 14.7174 176.71 15.1418 176.327 15.5035C175.95 15.8578 175.504 16.1346 174.987 16.3339C174.477 16.5332 173.917 16.6329 173.304 16.6329ZM175.839 18.2826C175.537 18.2826 175.249 18.2494 174.976 18.183C174.71 18.1165 174.444 18.0095 174.179 17.8619C173.92 17.7143 173.647 17.515 173.359 17.264C173.079 17.013 172.772 16.703 172.44 16.3339L174.322 15.8578C174.522 16.1309 174.706 16.3487 174.876 16.5111C175.046 16.6735 175.208 16.7879 175.363 16.8543C175.526 16.9207 175.695 16.954 175.873 16.954C176.345 16.954 176.766 16.762 177.135 16.3782L177.932 17.3304C177.408 17.9652 176.71 18.2826 175.839 18.2826ZM173.304 15.1049C173.651 15.1049 173.968 15.0458 174.256 14.9277C174.551 14.8096 174.81 14.6399 175.031 14.4184C175.253 14.197 175.422 13.9349 175.54 13.6323C175.666 13.3223 175.729 12.9864 175.729 12.6247C175.729 12.2556 175.666 11.9198 175.54 11.6171C175.422 11.3145 175.253 11.0525 175.031 10.831C174.81 10.6096 174.551 10.4398 174.256 10.3217C173.968 10.2036 173.651 10.1445 173.304 10.1445C172.957 10.1445 172.636 10.2036 172.341 10.3217C172.045 10.4398 171.787 10.6096 171.566 10.831C171.351 11.0525 171.182 11.3145 171.056 11.6171C170.938 11.9198 170.879 12.2556 170.879 12.6247C170.879 12.9864 170.938 13.3223 171.056 13.6323C171.182 13.9349 171.351 14.197 171.566 14.4184C171.787 14.6399 172.045 14.8096 172.341 14.9277C172.636 15.0458 172.957 15.1049 173.304 15.1049ZM181.284 16.5886C180.79 16.5886 180.347 16.4926 179.955 16.3007C179.572 16.1088 179.273 15.8172 179.059 15.426C178.845 15.0274 178.738 14.5218 178.738 13.9091V10.5431H180.465V13.6544C180.465 14.149 180.568 14.5144 180.775 14.7506C180.989 14.9794 181.288 15.0938 181.672 15.0938C181.937 15.0938 182.174 15.0385 182.38 14.9277C182.587 14.8096 182.749 14.6325 182.867 14.3963C182.986 14.1527 183.045 13.85 183.045 13.4883V10.5431H184.772V16.5H183.133V14.8613L183.432 15.3374C183.233 15.7508 182.938 16.0645 182.546 16.2786C182.163 16.4852 181.742 16.5886 181.284 16.5886ZM190.026 16.5V15.3374L189.915 15.0828V13.0012C189.915 12.6321 189.801 12.3442 189.572 12.1375C189.351 11.9309 189.007 11.8275 188.542 11.8275C188.225 11.8275 187.911 11.8792 187.601 11.9825C187.298 12.0785 187.04 12.2114 186.826 12.3811L186.206 11.1743C186.531 10.9454 186.922 10.7683 187.38 10.6428C187.837 10.5173 188.302 10.4546 188.775 10.4546C189.683 10.4546 190.388 10.6686 190.89 11.0967C191.392 11.5249 191.643 12.1929 191.643 13.1008V16.5H190.026ZM188.21 16.5886C187.745 16.5886 187.346 16.5111 187.014 16.3561C186.682 16.1937 186.427 15.9759 186.25 15.7028C186.073 15.4297 185.985 15.1234 185.985 14.7838C185.985 14.4295 186.069 14.1195 186.239 13.8537C186.416 13.588 186.693 13.3813 187.07 13.2337C187.446 13.0787 187.937 13.0012 188.542 13.0012H190.126V14.0087H188.731C188.325 14.0087 188.044 14.0752 187.889 14.208C187.741 14.3409 187.668 14.507 187.668 14.7063C187.668 14.9277 187.752 15.1049 187.922 15.2378C188.099 15.3632 188.339 15.426 188.642 15.426C188.93 15.426 189.188 15.3596 189.417 15.2267C189.646 15.0864 189.812 14.8835 189.915 14.6177L190.181 15.4149C190.055 15.7988 189.827 16.0903 189.494 16.2896C189.162 16.4889 188.734 16.5886 188.21 16.5886ZM193.206 16.5V8.28439H194.933V16.5H193.206ZM196.536 16.5V10.5431H198.263V16.5H196.536ZM197.4 9.71271C197.082 9.71271 196.824 9.62045 196.625 9.43591C196.425 9.25137 196.326 9.02254 196.326 8.74943C196.326 8.47631 196.425 8.24749 196.625 8.06295C196.824 7.87841 197.082 7.78614 197.4 7.78614C197.717 7.78614 197.975 7.87472 198.175 8.05188C198.374 8.22165 198.474 8.4431 198.474 8.71621C198.474 9.00409 198.374 9.24399 198.175 9.43591C197.983 9.62045 197.725 9.71271 197.4 9.71271ZM202.302 16.5886C201.601 16.5886 201.055 16.4114 200.664 16.0571C200.272 15.6954 200.077 15.1603 200.077 14.4516V9.22554H201.804V14.4295C201.804 14.6805 201.87 14.8761 202.003 15.0163C202.136 15.1492 202.317 15.2156 202.546 15.2156C202.819 15.2156 203.052 15.1418 203.243 14.9942L203.708 16.2121C203.531 16.3376 203.317 16.4336 203.066 16.5C202.823 16.5591 202.568 16.5886 202.302 16.5886ZM199.158 12.0047V10.676H203.288V12.0047H199.158ZM205.323 18.7366C205.013 18.7366 204.707 18.6886 204.404 18.5927C204.101 18.4967 203.854 18.3638 203.662 18.1941L204.293 16.965C204.426 17.0831 204.577 17.1754 204.747 17.2418C204.924 17.3083 205.098 17.3415 205.268 17.3415C205.511 17.3415 205.703 17.2824 205.843 17.1643C205.991 17.0536 206.124 16.8654 206.242 16.5997L206.552 15.8689L206.685 15.6807L208.822 10.5431H210.483L207.792 16.8654C207.6 17.3452 207.379 17.7216 207.128 17.9948C206.884 18.2679 206.611 18.4598 206.308 18.5705C206.013 18.6812 205.685 18.7366 205.323 18.7366ZM206.342 16.7325L203.684 10.5431H205.467L207.526 15.5256L206.342 16.7325Z" fill="#442210"/>
<path d="M221.681 0L221.681 26" stroke="#442210"/>
<path d="M239.008 7.72754C236.108 7.72754 233.735 10.1002 233.735 13C233.735 15.8999 236.108 18.2725 239.008 18.2725C241.908 18.2725 244.28 15.8999 244.28 13C244.28 10.1002 241.908 7.72754 239.008 7.72754ZM237.953 15.6363L235.317 13L236.061 12.2566L237.953 14.1442L241.955 10.1423L242.699 10.891L237.953 15.6363Z" fill="#442210"/>
<path d="M250.999 16.5V8.74943H254.52C255.362 8.74943 256.103 8.91182 256.746 9.23661C257.388 9.55401 257.89 10.0006 258.251 10.5763C258.613 11.1521 258.794 11.8349 258.794 12.6247C258.794 13.4072 258.613 14.0899 258.251 14.6731C257.89 15.2488 257.388 15.6991 256.746 16.0239C256.103 16.3413 255.362 16.5 254.52 16.5H250.999ZM252.793 15.0274H254.431C254.948 15.0274 255.395 14.9314 255.771 14.7395C256.155 14.5402 256.45 14.2597 256.657 13.898C256.871 13.5363 256.978 13.1119 256.978 12.6247C256.978 12.1302 256.871 11.7057 256.657 11.3514C256.45 10.9897 256.155 10.7129 255.771 10.521C255.395 10.3217 254.948 10.222 254.431 10.222H252.793V15.0274ZM262.538 16.5886C262.044 16.5886 261.601 16.4926 261.21 16.3007C260.826 16.1088 260.527 15.8172 260.313 15.426C260.099 15.0274 259.992 14.5218 259.992 13.9091V10.5431H261.719V13.6544C261.719 14.149 261.822 14.5144 262.029 14.7506C262.243 14.9794 262.542 15.0938 262.926 15.0938C263.192 15.0938 263.428 15.0385 263.634 14.9277C263.841 14.8096 264.003 14.6325 264.122 14.3963C264.24 14.1527 264.299 13.85 264.299 13.4883V10.5431H266.026V16.5H264.387V14.8613L264.686 15.3374C264.487 15.7508 264.192 16.0645 263.8 16.2786C263.417 16.4852 262.996 16.5886 262.538 16.5886ZM267.626 16.5V10.5431H269.276V12.2261L269.043 11.7389C269.221 11.3182 269.505 11.0008 269.896 10.7867C270.287 10.5653 270.763 10.4546 271.324 10.4546V12.049C271.251 12.0416 271.184 12.0379 271.125 12.0379C271.066 12.0305 271.003 12.0268 270.937 12.0268C270.464 12.0268 270.081 12.1634 269.785 12.4365C269.497 12.7022 269.353 13.1193 269.353 13.6877V16.5H267.626ZM275.616 16.5V15.3374L275.505 15.0828V13.0012C275.505 12.6321 275.391 12.3442 275.162 12.1375C274.941 11.9309 274.597 11.8275 274.132 11.8275C273.815 11.8275 273.501 11.8792 273.191 11.9825C272.888 12.0785 272.63 12.2114 272.416 12.3811L271.796 11.1743C272.121 10.9454 272.512 10.7683 272.97 10.6428C273.427 10.5173 273.892 10.4546 274.365 10.4546C275.273 10.4546 275.978 10.6686 276.48 11.0967C276.982 11.5249 277.233 12.1929 277.233 13.1008V16.5H275.616ZM273.8 16.5886C273.335 16.5886 272.936 16.5111 272.604 16.3561C272.272 16.1937 272.017 15.9759 271.84 15.7028C271.663 15.4297 271.575 15.1234 271.575 14.7838C271.575 14.4295 271.659 14.1195 271.829 13.8537C272.006 13.588 272.283 13.3813 272.66 13.2337C273.036 13.0787 273.527 13.0012 274.132 13.0012H275.716V14.0087H274.321C273.915 14.0087 273.634 14.0752 273.479 14.208C273.331 14.3409 273.258 14.507 273.258 14.7063C273.258 14.9277 273.342 15.1049 273.512 15.2378C273.689 15.3632 273.929 15.426 274.232 15.426C274.52 15.426 274.778 15.3596 275.007 15.2267C275.236 15.0864 275.402 14.8835 275.505 14.6177L275.771 15.4149C275.645 15.7988 275.417 16.0903 275.084 16.2896C274.752 16.4889 274.324 16.5886 273.8 16.5886ZM282.317 16.5886C281.793 16.5886 281.342 16.4779 280.966 16.2564C280.589 16.035 280.302 15.6991 280.102 15.2488C279.903 14.7912 279.803 14.2154 279.803 13.5216C279.803 12.8203 279.907 12.2446 280.113 11.7943C280.327 11.344 280.623 11.0082 280.999 10.7867C281.376 10.5653 281.815 10.4546 282.317 10.4546C282.878 10.4546 283.38 10.58 283.823 10.831C284.273 11.082 284.627 11.4363 284.886 11.8939C285.151 12.3516 285.284 12.8941 285.284 13.5216C285.284 14.1416 285.151 14.6805 284.886 15.1381C284.627 15.5958 284.273 15.9538 283.823 16.2121C283.38 16.4631 282.878 16.5886 282.317 16.5886ZM278.796 16.5V8.28439H280.523V11.75L280.412 13.5105L280.446 15.2821V16.5H278.796ZM282.018 15.1713C282.306 15.1713 282.56 15.1049 282.782 14.972C283.011 14.8392 283.191 14.6509 283.324 14.4073C283.465 14.1564 283.535 13.8611 283.535 13.5216C283.535 13.1746 283.465 12.8794 283.324 12.6358C283.191 12.3922 283.011 12.204 282.782 12.0711C282.56 11.9382 282.306 11.8718 282.018 11.8718C281.73 11.8718 281.472 11.9382 281.243 12.0711C281.014 12.204 280.833 12.3922 280.7 12.6358C280.567 12.8794 280.501 13.1746 280.501 13.5216C280.501 13.8611 280.567 14.1564 280.7 14.4073C280.833 14.6509 281.014 14.8392 281.243 14.972C281.472 15.1049 281.73 15.1713 282.018 15.1713ZM286.44 16.5V8.28439H288.168V16.5H286.44ZM292.727 16.5886C292.048 16.5886 291.45 16.4557 290.933 16.19C290.424 15.9242 290.029 15.5626 289.749 15.1049C289.468 14.6399 289.328 14.1121 289.328 13.5216C289.328 12.9237 289.464 12.3959 289.737 11.9382C290.018 11.4732 290.398 11.1115 290.878 10.8532C291.358 10.5874 291.9 10.4546 292.506 10.4546C293.089 10.4546 293.613 10.58 294.078 10.831C294.55 11.0746 294.923 11.4289 295.196 11.8939C295.469 12.3516 295.606 12.9015 295.606 13.5437C295.606 13.6101 295.602 13.6876 295.595 13.7762C295.587 13.8574 295.58 13.9349 295.573 14.0087H290.734V13.0012H294.665L294 13.3001C294 12.9901 293.938 12.7207 293.812 12.4918C293.687 12.263 293.513 12.0859 293.292 11.9604C293.07 11.8275 292.812 11.7611 292.517 11.7611C292.221 11.7611 291.959 11.8275 291.73 11.9604C291.509 12.0859 291.336 12.2667 291.21 12.5029C291.085 12.7317 291.022 13.0049 291.022 13.3223V13.588C291.022 13.9128 291.092 14.2007 291.232 14.4516C291.38 14.6952 291.583 14.8835 291.841 15.0163C292.107 15.1418 292.417 15.2045 292.771 15.2045C293.089 15.2045 293.365 15.1566 293.602 15.0606C293.845 14.9646 294.067 14.8207 294.266 14.6288L295.185 15.6253C294.912 15.9353 294.569 16.1752 294.155 16.345C293.742 16.5074 293.266 16.5886 292.727 16.5886Z" fill="#442210"/>
</svg>
