<svg width="517" height="34" viewBox="0 0 517 34" fill="none" xmlns="http://www.w3.org/2000/svg">
<path d="M-31 0H495C507.15 0 517 9.84974 517 22V34H-31V0Z" fill="#619577"/>
<path d="M105.946 20.0713V9.99625H107.486L113.805 17.754H113.042V9.99625H114.898V20.0713H113.358L107.04 12.3135H107.803V20.0713H105.946ZM120.88 20.172C120.093 20.172 119.392 20.0041 118.778 19.6683C118.164 19.3229 117.68 18.8527 117.325 18.2578C116.97 17.6629 116.792 16.9864 116.792 16.2284C116.792 15.4608 116.97 14.7843 117.325 14.199C117.68 13.6041 118.164 13.1387 118.778 12.8029C119.392 12.467 120.093 12.2991 120.88 12.2991C121.676 12.2991 122.381 12.467 122.995 12.8029C123.619 13.1387 124.104 13.5993 124.449 14.1846C124.804 14.7699 124.982 15.4512 124.982 16.2284C124.982 16.9864 124.804 17.6629 124.449 18.2578C124.104 18.8527 123.619 19.3229 122.995 19.6683C122.381 20.0041 121.676 20.172 120.88 20.172ZM120.88 18.632C121.321 18.632 121.714 18.536 122.06 18.3441C122.405 18.1522 122.674 17.874 122.866 17.5094C123.067 17.1447 123.168 16.7177 123.168 16.2284C123.168 15.7294 123.067 15.3024 122.866 14.9474C122.674 14.5828 122.405 14.3045 122.06 14.1126C121.714 13.9207 121.326 13.8248 120.894 13.8248C120.453 13.8248 120.059 13.9207 119.714 14.1126C119.378 14.3045 119.109 14.5828 118.908 14.9474C118.706 15.3024 118.606 15.7294 118.606 16.2284C118.606 16.7177 118.706 17.1447 118.908 17.5094C119.109 17.874 119.378 18.1522 119.714 18.3441C120.059 18.536 120.448 18.632 120.88 18.632ZM126.702 20.0713V12.3855H128.415V14.5012L128.213 13.8823C128.444 13.3642 128.803 12.9708 129.293 12.7021C129.792 12.4335 130.411 12.2991 131.149 12.2991V14.0119C131.073 13.9927 131.001 13.9831 130.934 13.9831C130.866 13.9735 130.799 13.9687 130.732 13.9687C130.051 13.9687 129.509 14.1702 129.106 14.5732C128.703 14.9666 128.501 15.5567 128.501 16.3435V20.0713H126.702ZM142.376 12.2991C142.991 12.2991 143.533 12.4191 144.003 12.6589C144.483 12.8988 144.857 13.2682 145.126 13.7672C145.394 14.2566 145.529 14.8898 145.529 15.6671V20.0713H143.729V15.8973C143.729 15.2161 143.581 14.7075 143.283 14.3717C142.986 14.0359 142.559 13.8679 142.002 13.8679C141.609 13.8679 141.259 13.9543 140.952 14.127C140.654 14.2997 140.419 14.554 140.246 14.8898C140.083 15.2257 140.002 15.6527 140.002 16.1708V20.0713H138.203V15.8973C138.203 15.2161 138.054 14.7075 137.756 14.3717C137.459 14.0359 137.032 13.8679 136.475 13.8679C136.082 13.8679 135.732 13.9543 135.425 14.127C135.127 14.2997 134.892 14.554 134.719 14.8898C134.556 15.2257 134.475 15.6527 134.475 16.1708V20.0713H132.676V12.3855H134.388V14.4293L134.086 13.8248C134.345 13.3258 134.719 12.9468 135.209 12.6877C135.708 12.4287 136.274 12.2991 136.907 12.2991C137.627 12.2991 138.251 12.4766 138.778 12.8317C139.316 13.1867 139.671 13.724 139.843 14.4437L139.138 14.199C139.388 13.6233 139.8 13.1627 140.376 12.8173C140.952 12.4718 141.618 12.2991 142.376 12.2991ZM152.563 20.0713V18.5169L152.462 18.1858V15.4656C152.462 14.9378 152.304 14.53 151.987 14.2422C151.67 13.9447 151.191 13.796 150.548 13.796C150.116 13.796 149.689 13.8631 149.267 13.9975C148.854 14.1318 148.504 14.3189 148.216 14.5588L147.511 13.249C147.924 12.9324 148.413 12.6973 148.979 12.5438C149.555 12.3807 150.15 12.2991 150.764 12.2991C151.877 12.2991 152.736 12.5678 153.34 13.1051C153.954 13.6329 154.261 14.4533 154.261 15.5663V20.0713H152.563ZM150.145 20.172C149.569 20.172 149.065 20.0761 148.634 19.8842C148.202 19.6827 147.866 19.4092 147.626 19.0638C147.396 18.7088 147.281 18.3106 147.281 17.8692C147.281 17.4374 147.381 17.0488 147.583 16.7033C147.794 16.3579 148.135 16.0845 148.605 15.883C149.075 15.6815 149.699 15.5807 150.476 15.5807H152.707V16.7753H150.605C149.991 16.7753 149.579 16.8761 149.368 17.0776C149.157 17.2695 149.051 17.5094 149.051 17.7972C149.051 18.1234 149.18 18.3825 149.44 18.5744C149.699 18.7663 150.058 18.8623 150.519 18.8623C150.96 18.8623 151.354 18.7615 151.699 18.56C152.054 18.3585 152.309 18.0611 152.462 17.6677L152.764 18.7471C152.592 19.1981 152.28 19.5483 151.829 19.7978C151.387 20.0473 150.826 20.172 150.145 20.172ZM156.57 20.0713V9.39175H158.369V20.0713H156.57ZM164.881 20.0713V9.99625H166.752V18.4881H172.02V20.0713H164.881ZM176.708 20.172C175.922 20.172 175.221 20.0041 174.607 19.6683C173.993 19.3229 173.508 18.8527 173.153 18.2578C172.798 17.6629 172.621 16.9864 172.621 16.2284C172.621 15.4608 172.798 14.7843 173.153 14.199C173.508 13.6041 173.993 13.1387 174.607 12.8029C175.221 12.467 175.922 12.2991 176.708 12.2991C177.505 12.2991 178.21 12.467 178.824 12.8029C179.448 13.1387 179.932 13.5993 180.278 14.1846C180.633 14.7699 180.81 15.4512 180.81 16.2284C180.81 16.9864 180.633 17.6629 180.278 18.2578C179.932 18.8527 179.448 19.3229 178.824 19.6683C178.21 20.0041 177.505 20.172 176.708 20.172ZM176.708 18.632C177.15 18.632 177.543 18.536 177.889 18.3441C178.234 18.1522 178.503 17.874 178.695 17.5094C178.896 17.1447 178.997 16.7177 178.997 16.2284C178.997 15.7294 178.896 15.3024 178.695 14.9474C178.503 14.5828 178.234 14.3045 177.889 14.1126C177.543 13.9207 177.155 13.8248 176.723 13.8248C176.281 13.8248 175.888 13.9207 175.543 14.1126C175.207 14.3045 174.938 14.5828 174.737 14.9474C174.535 15.3024 174.434 15.7294 174.434 16.2284C174.434 16.7177 174.535 17.1447 174.737 17.5094C174.938 17.874 175.207 18.1522 175.543 18.3441C175.888 18.536 176.277 18.632 176.708 18.632ZM186.057 20.172C185.251 20.172 184.531 20.0041 183.898 19.6683C183.274 19.3229 182.785 18.8527 182.43 18.2578C182.075 17.6629 181.897 16.9864 181.897 16.2284C181.897 15.4608 182.075 14.7843 182.43 14.199C182.785 13.6041 183.274 13.1387 183.898 12.8029C184.531 12.467 185.251 12.2991 186.057 12.2991C186.805 12.2991 187.463 12.4526 188.029 12.7597C188.605 13.0571 189.041 13.4985 189.339 14.0838L187.957 14.8898C187.727 14.5252 187.444 14.2566 187.108 14.0838C186.781 13.9111 186.426 13.8248 186.043 13.8248C185.601 13.8248 185.203 13.9207 184.848 14.1126C184.493 14.3045 184.215 14.5828 184.013 14.9474C183.812 15.3024 183.711 15.7294 183.711 16.2284C183.711 16.7273 183.812 17.1591 184.013 17.5237C184.215 17.8788 184.493 18.1522 184.848 18.3441C185.203 18.536 185.601 18.632 186.043 18.632C186.426 18.632 186.781 18.5456 187.108 18.3729C187.444 18.2002 187.727 17.9315 187.957 17.5669L189.339 18.3729C189.041 18.9486 188.605 19.3948 188.029 19.7115C187.463 20.0185 186.805 20.172 186.057 20.172ZM192.292 18.3585L192.335 16.0988L196.35 12.3855H198.509L195.098 15.811L194.148 16.6026L192.292 18.3585ZM190.824 20.0713V9.39175H192.623V20.0713H190.824ZM196.624 20.0713L193.817 16.6026L194.954 15.1633L198.812 20.0713H196.624ZM199.974 20.0713V12.3855H201.773V20.0713H199.974ZM200.881 11.1189C200.545 11.1189 200.266 11.0134 200.046 10.8023C199.835 10.5912 199.729 10.3369 199.729 10.0394C199.729 9.73238 199.835 9.47811 200.046 9.27661C200.266 9.06551 200.545 8.95996 200.881 8.95996C201.216 8.95996 201.49 9.06071 201.701 9.26221C201.922 9.45412 202.032 9.6988 202.032 9.99625C202.032 10.3129 201.926 10.5816 201.715 10.8023C201.504 11.0134 201.226 11.1189 200.881 11.1189ZM208.495 12.2991C209.109 12.2991 209.656 12.4191 210.136 12.6589C210.625 12.8988 211.009 13.2682 211.287 13.7672C211.566 14.2566 211.705 14.8898 211.705 15.6671V20.0713H209.906V15.8973C209.906 15.2161 209.743 14.7075 209.416 14.3717C209.1 14.0359 208.654 13.8679 208.078 13.8679C207.656 13.8679 207.281 13.9543 206.955 14.127C206.629 14.2997 206.375 14.5588 206.192 14.9042C206.02 15.2401 205.933 15.6671 205.933 16.1852V20.0713H204.134V12.3855H205.847V14.4581L205.545 13.8248C205.813 13.3354 206.202 12.9612 206.711 12.7021C207.229 12.4335 207.824 12.2991 208.495 12.2991ZM217.484 22.9643C216.774 22.9643 216.079 22.8683 215.397 22.6764C214.726 22.4941 214.174 22.2254 213.742 21.8704L214.548 20.5175C214.884 20.7957 215.306 21.0164 215.815 21.1795C216.333 21.3523 216.856 21.4386 217.384 21.4386C218.228 21.4386 218.847 21.2419 219.24 20.8485C219.634 20.4647 219.83 19.8842 219.83 19.107V17.7396L219.974 15.9981L219.917 14.2566V12.3855H221.629V18.9055C221.629 20.2968 221.274 21.3187 220.564 21.9712C219.854 22.6332 218.828 22.9643 217.484 22.9643ZM217.254 19.7259C216.525 19.7259 215.863 19.5723 215.268 19.2653C214.682 18.9486 214.217 18.5121 213.872 17.9555C213.536 17.399 213.368 16.7465 213.368 15.9981C213.368 15.2593 213.536 14.6116 213.872 14.0551C214.217 13.4985 214.682 13.0667 215.268 12.7597C215.863 12.4526 216.525 12.2991 217.254 12.2991C217.906 12.2991 218.492 12.4287 219.01 12.6877C219.528 12.9468 219.941 13.3498 220.248 13.8967C220.564 14.4437 220.723 15.1441 220.723 15.9981C220.723 16.8521 220.564 17.5573 220.248 18.1139C219.941 18.6608 219.528 19.0686 219.01 19.3373C218.492 19.5963 217.906 19.7259 217.254 19.7259ZM217.527 18.2002C217.978 18.2002 218.381 18.1091 218.736 17.9267C219.092 17.7348 219.365 17.4758 219.557 17.1495C219.758 16.8137 219.859 16.4299 219.859 15.9981C219.859 15.5663 219.758 15.1873 219.557 14.8611C219.365 14.5252 219.092 14.2709 218.736 14.0982C218.381 13.9159 217.978 13.8248 217.527 13.8248C217.077 13.8248 216.669 13.9159 216.304 14.0982C215.949 14.2709 215.671 14.5252 215.469 14.8611C215.277 15.1873 215.181 15.5663 215.181 15.9981C215.181 16.4299 215.277 16.8137 215.469 17.1495C215.671 17.4758 215.949 17.7348 216.304 17.9267C216.669 18.1091 217.077 18.2002 217.527 18.2002ZM230.52 20.0713L227.181 9.99625H229.124L232.103 19.107H231.139L234.233 9.99625H235.961L238.969 19.107H238.033L241.084 9.99625H242.869L239.53 20.0713H237.544L234.795 11.8529H235.313L232.521 20.0713H230.52ZM244.291 20.0713V12.3855H246.09V20.0713H244.291ZM245.198 11.1189C244.862 11.1189 244.584 11.0134 244.363 10.8023C244.152 10.5912 244.046 10.3369 244.046 10.0394C244.046 9.73238 244.152 9.47811 244.363 9.27661C244.584 9.06551 244.862 8.95996 245.198 8.95996C245.534 8.95996 245.807 9.06071 246.018 9.26221C246.239 9.45412 246.349 9.6988 246.349 9.99625C246.349 10.3129 246.244 10.5816 246.033 10.8023C245.821 11.0134 245.543 11.1189 245.198 11.1189ZM251.344 20.172C250.5 20.172 249.848 19.9561 249.387 19.5244C248.926 19.083 248.696 18.4353 248.696 17.5813V10.6871H250.495V17.5381C250.495 17.9028 250.586 18.1858 250.769 18.3873C250.961 18.5888 251.224 18.6896 251.56 18.6896C251.963 18.6896 252.299 18.584 252.568 18.3729L253.072 19.6539C252.86 19.8266 252.601 19.9561 252.294 20.0425C251.987 20.1289 251.671 20.172 251.344 20.172ZM247.43 13.8823V12.443H252.553V13.8823H247.43ZM258.913 12.2991C259.527 12.2991 260.074 12.4191 260.553 12.6589C261.043 12.8988 261.427 13.2682 261.705 13.7672C261.983 14.2566 262.122 14.8898 262.122 15.6671V20.0713H260.323V15.8973C260.323 15.2161 260.16 14.7075 259.834 14.3717C259.517 14.0359 259.071 13.8679 258.495 13.8679C258.073 13.8679 257.699 13.9543 257.373 14.127C257.046 14.2997 256.792 14.5588 256.61 14.9042C256.437 15.2401 256.351 15.6671 256.351 16.1852V20.0713H254.552V9.39175H256.351V14.4581L255.962 13.8248C256.231 13.3354 256.619 12.9612 257.128 12.7021C257.646 12.4335 258.241 12.2991 258.913 12.2991ZM268.555 20.0713V9.99625H270.426V20.0713H268.555ZM273.151 20.0713V9.99625H274.691L279.095 17.351H278.289L282.622 9.99625H284.162L284.176 20.0713H282.406L282.391 12.7741H282.766L279.081 18.9199H278.246L274.504 12.7741H274.936V20.0713H273.151ZM286.897 20.0713V9.99625H288.769V18.4881H294.036V20.0713H286.897ZM302.615 20.2152C301.828 20.2152 301.075 20.1049 300.355 19.8842C299.635 19.6539 299.064 19.3612 298.642 19.0062L299.29 17.5525C299.693 17.8692 300.192 18.133 300.787 18.3441C301.382 18.5552 301.991 18.6608 302.615 18.6608C303.142 18.6608 303.569 18.6032 303.896 18.4881C304.222 18.3729 304.462 18.2194 304.615 18.0275C304.769 17.826 304.845 17.6005 304.845 17.351C304.845 17.044 304.735 16.7993 304.514 16.617C304.294 16.4251 304.006 16.2764 303.651 16.1708C303.305 16.0557 302.917 15.9501 302.485 15.8542C302.063 15.7582 301.636 15.6479 301.204 15.5231C300.782 15.3888 300.393 15.2209 300.038 15.0194C299.693 14.8083 299.41 14.53 299.189 14.1846C298.968 13.8392 298.858 13.3978 298.858 12.8604C298.858 12.3135 299.002 11.8146 299.29 11.3636C299.587 10.903 300.033 10.5384 300.628 10.2697C301.233 9.99145 301.996 9.85232 302.917 9.85232C303.521 9.85232 304.121 9.92908 304.716 10.0826C305.311 10.2361 305.829 10.4568 306.27 10.7447L305.68 12.1984C305.229 11.9297 304.764 11.733 304.284 11.6083C303.804 11.4739 303.344 11.4068 302.902 11.4068C302.384 11.4068 301.962 11.4691 301.636 11.5939C301.319 11.7186 301.084 11.8817 300.931 12.0832C300.787 12.2847 300.715 12.515 300.715 12.7741C300.715 13.0811 300.82 13.3306 301.031 13.5225C301.252 13.7048 301.535 13.8488 301.881 13.9543C302.236 14.0598 302.629 14.1654 303.061 14.2709C303.493 14.3669 303.92 14.4772 304.342 14.602C304.773 14.7267 305.162 14.8898 305.508 15.0913C305.863 15.2928 306.146 15.5663 306.357 15.9117C306.577 16.2572 306.688 16.6938 306.688 17.2215C306.688 17.7588 306.539 18.2578 306.242 18.7184C305.954 19.1693 305.508 19.534 304.903 19.8122C304.299 20.0809 303.536 20.2152 302.615 20.2152ZM309.928 20.0713L307.107 12.3855H308.806L311.224 19.1645H310.418L312.951 12.3855H314.462L316.923 19.1645H316.132L318.621 12.3855H320.219L317.384 20.0713H315.657L313.411 14.0694H313.944L311.655 20.0713H309.928ZM324.858 20.172C324.004 20.172 323.255 20.0041 322.613 19.6683C321.979 19.3229 321.485 18.8527 321.13 18.2578C320.785 17.6629 320.612 16.9864 320.612 16.2284C320.612 15.4608 320.78 14.7843 321.116 14.199C321.461 13.6041 321.931 13.1387 322.526 12.8029C323.131 12.467 323.817 12.2991 324.584 12.2991C325.333 12.2991 326 12.4622 326.585 12.7885C327.17 13.1147 327.631 13.5753 327.967 14.1702C328.303 14.7651 328.471 15.4656 328.471 16.2716C328.471 16.3483 328.466 16.4347 328.456 16.5306C328.456 16.6266 328.451 16.7177 328.442 16.8041H322.037V15.6095H327.492L326.787 15.9837C326.796 15.5423 326.705 15.1537 326.513 14.8179C326.321 14.482 326.057 14.2182 325.721 14.0263C325.395 13.8344 325.016 13.7384 324.584 13.7384C324.143 13.7384 323.754 13.8344 323.419 14.0263C323.092 14.2182 322.833 14.4868 322.641 14.8323C322.459 15.1681 322.368 15.5663 322.368 16.0269V16.3147C322.368 16.7753 322.473 17.1831 322.685 17.5381C322.896 17.8932 323.193 18.1666 323.577 18.3585C323.961 18.5504 324.402 18.6464 324.901 18.6464C325.333 18.6464 325.721 18.5792 326.067 18.4449C326.412 18.3106 326.719 18.0995 326.988 17.8116L327.952 18.9199C327.607 19.3229 327.17 19.6347 326.643 19.8554C326.124 20.0665 325.53 20.172 324.858 20.172ZM333.811 20.172C332.957 20.172 332.209 20.0041 331.566 19.6683C330.933 19.3229 330.439 18.8527 330.084 18.2578C329.738 17.6629 329.565 16.9864 329.565 16.2284C329.565 15.4608 329.733 14.7843 330.069 14.199C330.415 13.6041 330.885 13.1387 331.48 12.8029C332.084 12.467 332.77 12.2991 333.538 12.2991C334.286 12.2991 334.953 12.4622 335.538 12.7885C336.124 13.1147 336.584 13.5753 336.92 14.1702C337.256 14.7651 337.424 15.4656 337.424 16.2716C337.424 16.3483 337.419 16.4347 337.41 16.5306C337.41 16.6266 337.405 16.7177 337.395 16.8041H330.99V15.6095H336.445L335.74 15.9837C335.75 15.5423 335.658 15.1537 335.466 14.8179C335.275 14.482 335.011 14.2182 334.675 14.0263C334.349 13.8344 333.97 13.7384 333.538 13.7384C333.096 13.7384 332.708 13.8344 332.372 14.0263C332.046 14.2182 331.787 14.4868 331.595 14.8323C331.412 15.1681 331.321 15.5663 331.321 16.0269V16.3147C331.321 16.7753 331.427 17.1831 331.638 17.5381C331.849 17.8932 332.147 18.1666 332.53 18.3585C332.914 18.5504 333.356 18.6464 333.854 18.6464C334.286 18.6464 334.675 18.5792 335.02 18.4449C335.366 18.3106 335.673 18.0995 335.941 17.8116L336.906 18.9199C336.56 19.3229 336.124 19.6347 335.596 19.8554C335.078 20.0665 334.483 20.172 333.811 20.172ZM342.045 20.172C341.201 20.172 340.548 19.9561 340.088 19.5244C339.627 19.083 339.397 18.4353 339.397 17.5813V10.6871H341.196V17.5381C341.196 17.9028 341.287 18.1858 341.469 18.3873C341.661 18.5888 341.925 18.6896 342.261 18.6896C342.664 18.6896 343 18.584 343.268 18.3729L343.772 19.6539C343.561 19.8266 343.302 19.9561 342.995 20.0425C342.688 20.1289 342.371 20.172 342.045 20.172ZM338.13 13.8823V12.443H343.254V13.8823H338.13ZM349.403 20.0713V9.99625H354.123C355.332 9.99625 356.254 10.2361 356.887 10.7159C357.52 11.1861 357.837 11.8194 357.837 12.6158C357.837 13.1531 357.712 13.6137 357.463 13.9975C357.213 14.3717 356.877 14.6644 356.455 14.8754C356.043 15.0769 355.592 15.1777 355.102 15.1777L355.361 14.6596C355.927 14.6596 356.436 14.7651 356.887 14.9762C357.338 15.1777 357.693 15.4752 357.952 15.8686C358.221 16.262 358.355 16.7513 358.355 17.3366C358.355 18.2002 358.024 18.8719 357.362 19.3516C356.7 19.8314 355.716 20.0713 354.411 20.0713H349.403ZM351.274 18.6032H354.296C354.997 18.6032 355.534 18.4881 355.908 18.2578C356.282 18.0275 356.47 17.6581 356.47 17.1495C356.47 16.6506 356.282 16.286 355.908 16.0557C355.534 15.8158 354.997 15.6958 354.296 15.6958H351.13V14.2422H353.922C354.574 14.2422 355.073 14.127 355.419 13.8967C355.774 13.6664 355.951 13.321 355.951 12.8604C355.951 12.3903 355.774 12.04 355.419 11.8098C355.073 11.5795 354.574 11.4643 353.922 11.4643H351.274V18.6032ZM363.634 20.172C362.847 20.172 362.146 20.0041 361.532 19.6683C360.918 19.3229 360.433 18.8527 360.078 18.2578C359.723 17.6629 359.546 16.9864 359.546 16.2284C359.546 15.4608 359.723 14.7843 360.078 14.199C360.433 13.6041 360.918 13.1387 361.532 12.8029C362.146 12.467 362.847 12.2991 363.634 12.2991C364.43 12.2991 365.135 12.467 365.749 12.8029C366.373 13.1387 366.858 13.5993 367.203 14.1846C367.558 14.7699 367.735 15.4512 367.735 16.2284C367.735 16.9864 367.558 17.6629 367.203 18.2578C366.858 18.8527 366.373 19.3229 365.749 19.6683C365.135 20.0041 364.43 20.172 363.634 20.172ZM363.634 18.632C364.075 18.632 364.468 18.536 364.814 18.3441C365.159 18.1522 365.428 17.874 365.62 17.5094C365.821 17.1447 365.922 16.7177 365.922 16.2284C365.922 15.7294 365.821 15.3024 365.62 14.9474C365.428 14.5828 365.159 14.3045 364.814 14.1126C364.468 13.9207 364.08 13.8248 363.648 13.8248C363.207 13.8248 362.813 13.9207 362.468 14.1126C362.132 14.3045 361.863 14.5828 361.662 14.9474C361.46 15.3024 361.359 15.7294 361.359 16.2284C361.359 16.7177 361.46 17.1447 361.662 17.5094C361.863 17.874 362.132 18.1522 362.468 18.3441C362.813 18.536 363.202 18.632 363.634 18.632ZM368.152 20.0713L371.535 15.6671L371.506 16.6314L368.282 12.3855H370.282L372.542 15.408H371.779L374.053 12.3855H375.996L372.744 16.6314L372.758 15.6671L376.126 20.0713H374.096L371.722 16.8617L372.47 16.9624L370.138 20.0713H368.152ZM381.043 16.8185V15.3216H385.001V16.8185H381.043ZM393.739 20.2152C393.029 20.2152 392.333 20.1145 391.652 19.913C390.98 19.7019 390.414 19.414 389.954 19.0494L390.745 17.5957C391.11 17.8932 391.551 18.133 392.07 18.3154C392.597 18.4977 393.144 18.5888 393.71 18.5888C394.372 18.5888 394.891 18.4497 395.265 18.1714C395.649 17.8932 395.84 17.5189 395.84 17.0488C395.84 16.7321 395.759 16.4539 395.596 16.214C395.442 15.9741 395.164 15.7918 394.761 15.6671C394.368 15.5423 393.825 15.48 393.135 15.48H390.702L391.22 9.99625H397.136V11.5651H391.911L392.89 10.6727L392.501 14.7747L391.523 13.8967H393.552C394.55 13.8967 395.351 14.0311 395.956 14.2997C396.57 14.5588 397.016 14.9234 397.294 15.3936C397.582 15.8542 397.726 16.3819 397.726 16.9768C397.726 17.5621 397.582 18.0995 397.294 18.5888C397.006 19.0782 396.565 19.4716 395.97 19.769C395.385 20.0665 394.641 20.2152 393.739 20.2152ZM403.503 20.0713V9.99625H407.648C408.54 9.99625 409.303 10.1402 409.936 10.428C410.579 10.7159 411.073 11.1285 411.419 11.6658C411.764 12.2032 411.937 12.8413 411.937 13.5801C411.937 14.3189 411.764 14.957 411.419 15.4943C411.073 16.0317 410.579 16.4443 409.936 16.7321C409.303 17.02 408.54 17.1639 407.648 17.1639H404.539L405.374 16.286V20.0713H403.503ZM405.374 16.4875L404.539 15.5807H407.561C408.387 15.5807 409.005 15.408 409.418 15.0626C409.84 14.7075 410.051 14.2134 410.051 13.5801C410.051 12.9372 409.84 12.443 409.418 12.0976C409.005 11.7522 408.387 11.5795 407.561 11.5795H404.539L405.374 10.6583V16.4875ZM413.562 20.0713V12.3855H415.275V14.5012L415.074 13.8823C415.304 13.3642 415.664 12.9708 416.153 12.7021C416.652 12.4335 417.271 12.2991 418.01 12.2991V14.0119C417.933 13.9927 417.861 13.9831 417.794 13.9831C417.727 13.9735 417.659 13.9687 417.592 13.9687C416.911 13.9687 416.369 14.1702 415.966 14.5732C415.563 14.9666 415.361 15.5567 415.361 16.3435V20.0713H413.562ZM422.92 20.172C422.133 20.172 421.433 20.0041 420.819 19.6683C420.204 19.3229 419.72 18.8527 419.365 18.2578C419.01 17.6629 418.832 16.9864 418.832 16.2284C418.832 15.4608 419.01 14.7843 419.365 14.199C419.72 13.6041 420.204 13.1387 420.819 12.8029C421.433 12.467 422.133 12.2991 422.92 12.2991C423.716 12.2991 424.422 12.467 425.036 12.8029C425.659 13.1387 426.144 13.5993 426.489 14.1846C426.844 14.7699 427.022 15.4512 427.022 16.2284C427.022 16.9864 426.844 17.6629 426.489 18.2578C426.144 18.8527 425.659 19.3229 425.036 19.6683C424.422 20.0041 423.716 20.172 422.92 20.172ZM422.92 18.632C423.361 18.632 423.755 18.536 424.1 18.3441C424.446 18.1522 424.714 17.874 424.906 17.5094C425.108 17.1447 425.208 16.7177 425.208 16.2284C425.208 15.7294 425.108 15.3024 424.906 14.9474C424.714 14.5828 424.446 14.3045 424.1 14.1126C423.755 13.9207 423.366 13.8248 422.934 13.8248C422.493 13.8248 422.1 13.9207 421.754 14.1126C421.418 14.3045 421.15 14.5828 420.948 14.9474C420.747 15.3024 420.646 15.7294 420.646 16.2284C420.646 16.7177 420.747 17.1447 420.948 17.5094C421.15 17.874 421.418 18.1522 421.754 18.3441C422.1 18.536 422.488 18.632 422.92 18.632ZM431.995 20.172C431.256 20.172 430.589 20.0089 429.994 19.6827C429.409 19.3468 428.949 18.8863 428.613 18.301C428.277 17.7156 428.109 17.0248 428.109 16.2284C428.109 15.432 428.277 14.7411 428.613 14.1558C428.949 13.5705 429.409 13.1147 429.994 12.7885C430.589 12.4622 431.256 12.2991 431.995 12.2991C432.638 12.2991 433.214 12.443 433.722 12.7309C434.231 13.0092 434.634 13.4362 434.931 14.0119C435.229 14.5876 435.377 15.3264 435.377 16.2284C435.377 17.1207 435.233 17.8596 434.946 18.4449C434.658 19.0206 434.26 19.4524 433.751 19.7403C433.242 20.0281 432.657 20.172 431.995 20.172ZM432.211 18.632C432.643 18.632 433.027 18.536 433.362 18.3441C433.708 18.1522 433.981 17.874 434.183 17.5094C434.394 17.1447 434.499 16.7177 434.499 16.2284C434.499 15.7294 434.394 15.3024 434.183 14.9474C433.981 14.5828 433.708 14.3045 433.362 14.1126C433.027 13.9207 432.643 13.8248 432.211 13.8248C431.779 13.8248 431.391 13.9207 431.045 14.1126C430.709 14.3045 430.436 14.5828 430.225 14.9474C430.023 15.3024 429.923 15.7294 429.923 16.2284C429.923 16.7177 430.023 17.1447 430.225 17.5094C430.436 17.874 430.709 18.1522 431.045 18.3441C431.391 18.536 431.779 18.632 432.211 18.632ZM434.543 20.0713V18.2578L434.615 16.214L434.471 14.1702V9.39175H436.255V20.0713H434.543ZM441.876 20.172C441.224 20.172 440.648 20.0521 440.149 19.8122C439.65 19.5627 439.261 19.1885 438.983 18.6896C438.705 18.181 438.566 17.5429 438.566 16.7753V12.3855H440.365V16.5306C440.365 17.2215 440.518 17.7396 440.826 18.0851C441.142 18.4209 441.588 18.5888 442.164 18.5888C442.586 18.5888 442.951 18.5025 443.258 18.3297C443.575 18.157 443.819 17.898 443.992 17.5525C444.174 17.2071 444.265 16.7801 444.265 16.2716V12.3855H446.065V20.0713H444.352V17.9987L444.654 18.632C444.395 19.131 444.016 19.5148 443.517 19.7834C443.018 20.0425 442.471 20.172 441.876 20.172ZM451.946 20.172C451.14 20.172 450.421 20.0041 449.787 19.6683C449.164 19.3229 448.674 18.8527 448.319 18.2578C447.964 17.6629 447.787 16.9864 447.787 16.2284C447.787 15.4608 447.964 14.7843 448.319 14.199C448.674 13.6041 449.164 13.1387 449.787 12.8029C450.421 12.467 451.14 12.2991 451.946 12.2991C452.695 12.2991 453.352 12.4526 453.918 12.7597C454.494 13.0571 454.93 13.4985 455.228 14.0838L453.846 14.8898C453.616 14.5252 453.333 14.2566 452.997 14.0838C452.671 13.9111 452.316 13.8248 451.932 13.8248C451.491 13.8248 451.092 13.9207 450.737 14.1126C450.382 14.3045 450.104 14.5828 449.903 14.9474C449.701 15.3024 449.6 15.7294 449.6 16.2284C449.6 16.7273 449.701 17.1591 449.903 17.5237C450.104 17.8788 450.382 18.1522 450.737 18.3441C451.092 18.536 451.491 18.632 451.932 18.632C452.316 18.632 452.671 18.5456 452.997 18.3729C453.333 18.2002 453.616 17.9315 453.846 17.5669L455.228 18.3729C454.93 18.9486 454.494 19.3948 453.918 19.7115C453.352 20.0185 452.695 20.172 451.946 20.172ZM459.775 20.172C458.93 20.172 458.278 19.9561 457.817 19.5244C457.357 19.083 457.126 18.4353 457.126 17.5813V10.6871H458.925V17.5381C458.925 17.9028 459.017 18.1858 459.199 18.3873C459.391 18.5888 459.655 18.6896 459.99 18.6896C460.393 18.6896 460.729 18.584 460.998 18.3729L461.502 19.6539C461.291 19.8266 461.032 19.9561 460.724 20.0425C460.417 20.1289 460.101 20.172 459.775 20.172ZM455.86 13.8823V12.443H460.984V13.8823H455.86ZM465.357 20.172C464.714 20.172 464.095 20.0905 463.5 19.9274C462.915 19.7546 462.449 19.5483 462.104 19.3085L462.795 17.9411C463.14 18.1618 463.553 18.3441 464.032 18.4881C464.512 18.632 464.992 18.704 465.472 18.704C466.038 18.704 466.446 18.6272 466.695 18.4737C466.954 18.3202 467.084 18.1139 467.084 17.8548C467.084 17.6437 466.997 17.4854 466.825 17.3798C466.652 17.2647 466.426 17.1783 466.148 17.1207C465.87 17.0632 465.558 17.0104 465.213 16.9624C464.877 16.9144 464.536 16.8521 464.191 16.7753C463.855 16.689 463.548 16.569 463.27 16.4155C462.991 16.2524 462.766 16.0365 462.593 15.7678C462.42 15.4991 462.334 15.1441 462.334 14.7027C462.334 14.2134 462.473 13.7912 462.751 13.4362C463.03 13.0715 463.418 12.7933 463.917 12.6014C464.426 12.3999 465.025 12.2991 465.716 12.2991C466.234 12.2991 466.757 12.3567 467.285 12.4718C467.813 12.587 468.249 12.7501 468.595 12.9612L467.904 14.3285C467.539 14.1078 467.17 13.9591 466.796 13.8823C466.431 13.796 466.067 13.7528 465.702 13.7528C465.155 13.7528 464.747 13.8344 464.479 13.9975C464.219 14.1606 464.09 14.3669 464.09 14.6164C464.09 14.8467 464.176 15.0194 464.349 15.1345C464.522 15.2497 464.747 15.3408 465.025 15.408C465.304 15.4752 465.611 15.5327 465.947 15.5807C466.292 15.6191 466.633 15.6815 466.969 15.7678C467.304 15.8542 467.611 15.9741 467.89 16.1276C468.178 16.2716 468.408 16.4779 468.581 16.7465C468.753 17.0152 468.84 17.3654 468.84 17.7972C468.84 18.277 468.696 18.6944 468.408 19.0494C468.13 19.4044 467.731 19.6827 467.213 19.8842C466.695 20.0761 466.076 20.172 465.357 20.172Z" fill="white"/>
</svg>
