<svg width="154" height="28" viewBox="0 0 154 28" fill="none" xmlns="http://www.w3.org/2000/svg">
<path d="M1.17222 27.1914V23.3435L11.0667 13.9987C11.8485 13.2903 12.4226 12.655 12.7891 12.0931C13.1556 11.5312 13.3999 11.0182 13.522 10.554C13.6686 10.0898 13.7419 9.66227 13.7419 9.27138C13.7419 8.24528 13.3876 7.46349 12.6791 6.92601C11.9951 6.3641 10.9812 6.08315 9.63751 6.08315C8.56255 6.08315 7.56089 6.29081 6.63251 6.70614C5.72857 7.12146 4.959 7.76888 4.3238 8.64839L-0.000463095 5.86327C0.976771 4.39742 2.3449 3.23695 4.10392 2.38187C5.86294 1.5268 7.8907 1.09926 10.1872 1.09926C12.0928 1.09926 13.7541 1.41686 15.1711 2.05206C16.6125 2.66283 17.7241 3.53013 18.5059 4.65394C19.3121 5.77776 19.7152 7.12146 19.7152 8.68504C19.7152 9.51568 19.6053 10.3463 19.3854 11.177C19.19 11.9832 18.7746 12.8383 18.1394 13.7422C17.5287 14.6462 16.6247 15.66 15.4276 16.7839L7.21885 24.5162L6.08282 22.3541H20.5581V27.1914H1.17222ZM34.0016 27.6312C31.9005 27.6312 30.0193 27.1181 28.358 26.092C26.6967 25.0415 25.3897 23.5268 24.4369 21.5479C23.4841 19.569 23.0077 17.1748 23.0077 14.3652C23.0077 11.5557 23.4841 9.16144 24.4369 7.18254C25.3897 5.20364 26.6967 3.70114 28.358 2.67504C30.0193 1.62452 31.9005 1.09926 34.0016 1.09926C36.127 1.09926 38.0082 1.62452 39.6451 2.67504C41.3064 3.70114 42.6134 5.20364 43.5662 7.18254C44.519 9.16144 44.9954 11.5557 44.9954 14.3652C44.9954 17.1748 44.519 19.569 43.5662 21.5479C42.6134 23.5268 41.3064 25.0415 39.6451 26.092C38.0082 27.1181 36.127 27.6312 34.0016 27.6312ZM34.0016 22.6106C35.0032 22.6106 35.8705 22.3297 36.6034 21.7678C37.3608 21.2058 37.9471 20.3141 38.3625 19.0926C38.8022 17.871 39.0221 16.2952 39.0221 14.3652C39.0221 12.4352 38.8022 10.8594 38.3625 9.63784C37.9471 8.41629 37.3608 7.52457 36.6034 6.96266C35.8705 6.40075 35.0032 6.11979 34.0016 6.11979C33.0243 6.11979 32.157 6.40075 31.3997 6.96266C30.6667 7.52457 30.0804 8.41629 29.6407 9.63784C29.2253 10.8594 29.0177 12.4352 29.0177 14.3652C29.0177 16.2952 29.2253 17.871 29.6407 19.0926C30.0804 20.3141 30.6667 21.2058 31.3997 21.7678C32.157 22.3297 33.0243 22.6106 34.0016 22.6106ZM58.8738 27.6312C56.7727 27.6312 54.8916 27.1181 53.2303 26.092C51.569 25.0415 50.2619 23.5268 49.3091 21.5479C48.3563 19.569 47.8799 17.1748 47.8799 14.3652C47.8799 11.5557 48.3563 9.16144 49.3091 7.18254C50.2619 5.20364 51.569 3.70114 53.2303 2.67504C54.8916 1.62452 56.7727 1.09926 58.8738 1.09926C60.9993 1.09926 62.8804 1.62452 64.5173 2.67504C66.1786 3.70114 67.4857 5.20364 68.4385 7.18254C69.3913 9.16144 69.8677 11.5557 69.8677 14.3652C69.8677 17.1748 69.3913 19.569 68.4385 21.5479C67.4857 23.5268 66.1786 25.0415 64.5173 26.092C62.8804 27.1181 60.9993 27.6312 58.8738 27.6312ZM58.8738 22.6106C59.8755 22.6106 60.7427 22.3297 61.4757 21.7678C62.233 21.2058 62.8194 20.3141 63.2347 19.0926C63.6745 17.871 63.8943 16.2952 63.8943 14.3652C63.8943 12.4352 63.6745 10.8594 63.2347 9.63784C62.8194 8.41629 62.233 7.52457 61.4757 6.96266C60.7427 6.40075 59.8755 6.11979 58.8738 6.11979C57.8966 6.11979 57.0293 6.40075 56.2719 6.96266C55.539 7.52457 54.9526 8.41629 54.5129 9.63784C54.0976 10.8594 53.8899 12.4352 53.8899 14.3652C53.8899 16.2952 54.0976 17.871 54.5129 19.0926C54.9526 20.3141 55.539 21.2058 56.2719 21.7678C57.0293 22.3297 57.8966 22.6106 58.8738 22.6106ZM83.746 27.6312C81.645 27.6312 79.7638 27.1181 78.1025 26.092C76.4412 25.0415 75.1341 23.5268 74.1813 21.5479C73.2285 19.569 72.7521 17.1748 72.7521 14.3652C72.7521 11.5557 73.2285 9.16144 74.1813 7.18254C75.1341 5.20364 76.4412 3.70114 78.1025 2.67504C79.7638 1.62452 81.645 1.09926 83.746 1.09926C85.8715 1.09926 87.7527 1.62452 89.3895 2.67504C91.0508 3.70114 92.3579 5.20364 93.3107 7.18254C94.2635 9.16144 94.7399 11.5557 94.7399 14.3652C94.7399 17.1748 94.2635 19.569 93.3107 21.5479C92.3579 23.5268 91.0508 25.0415 89.3895 26.092C87.7527 27.1181 85.8715 27.6312 83.746 27.6312ZM83.746 22.6106C84.7477 22.6106 85.615 22.3297 86.3479 21.7678C87.1053 21.2058 87.6916 20.3141 88.1069 19.0926C88.5467 17.871 88.7666 16.2952 88.7666 14.3652C88.7666 12.4352 88.5467 10.8594 88.1069 9.63784C87.6916 8.41629 87.1053 7.52457 86.3479 6.96266C85.615 6.40075 84.7477 6.11979 83.746 6.11979C82.7688 6.11979 81.9015 6.40075 81.1441 6.96266C80.4112 7.52457 79.8249 8.41629 79.3851 9.63784C78.9698 10.8594 78.7621 12.4352 78.7621 14.3652C78.7621 16.2952 78.9698 17.871 79.3851 19.0926C79.8249 20.3141 80.4112 21.2058 81.1441 21.7678C81.9015 22.3297 82.7688 22.6106 83.746 22.6106ZM134.461 7.18254C136.025 7.18254 137.405 7.50014 138.602 8.13534C139.824 8.74611 140.777 9.69891 141.461 10.9938C142.169 12.2642 142.524 13.901 142.524 15.9044V27.1914H136.807V16.7839C136.807 15.1959 136.477 14.0232 135.817 13.2658C135.158 12.5085 134.229 12.1298 133.032 12.1298C132.201 12.1298 131.456 12.3252 130.797 12.7161C130.137 13.0826 129.624 13.6445 129.258 14.4019C128.891 15.1592 128.708 16.1242 128.708 17.2969V27.1914H122.991V16.7839C122.991 15.1959 122.661 14.0232 122.002 13.2658C121.366 12.5085 120.45 12.1298 119.253 12.1298C118.422 12.1298 117.677 12.3252 117.018 12.7161C116.358 13.0826 115.845 13.6445 115.479 14.4019C115.112 15.1592 114.929 16.1242 114.929 17.2969V27.1914H109.212V7.47571H114.672V12.8627L113.646 11.2869C114.33 9.94322 115.295 8.92934 116.541 8.24528C117.812 7.53679 119.253 7.18254 120.866 7.18254C122.673 7.18254 124.249 7.64672 125.593 8.5751C126.961 9.47904 127.865 10.8716 128.305 12.7528L126.289 12.2031C126.949 10.6639 127.999 9.44239 129.441 8.53845C130.907 7.63451 132.58 7.18254 134.461 7.18254ZM147.648 27.1914V-0.000133899H153.364V27.1914H147.648Z" fill="#074517"/>
</svg>
