<svg width="130" height="36" viewBox="0 0 130 36" fill="none" xmlns="http://www.w3.org/2000/svg">
<circle cx="17.6922" cy="18.0008" r="17.6922" fill="#A51A06"/>
<path d="M26.939 27.9127C27.031 27.8229 27.0327 27.6755 26.9429 27.5835L25.4795 26.0844C25.3897 25.9924 25.2423 25.9906 25.1503 26.0804C25.0583 26.1702 25.0565 26.3176 25.1464 26.4096L26.4472 27.7421L25.1147 29.043C25.0227 29.1328 25.0209 29.2802 25.1107 29.3721C25.2005 29.4641 25.3479 29.4659 25.4399 29.3761L26.939 27.9127ZM9.69384 27.3759C9.60185 27.4657 9.60008 27.6131 9.68988 27.705L11.1533 29.2042C11.2431 29.2961 11.3905 29.2979 11.4825 29.2081C11.5745 29.1183 11.5763 28.9709 11.4865 28.8789L10.1856 27.5464L11.5182 26.2456C11.6101 26.1558 11.6119 26.0084 11.5221 25.9164C11.4323 25.8244 11.2849 25.8226 11.1929 25.9124L9.69384 27.3759ZM26.7764 27.7461L26.7792 27.5133L9.85925 27.3097L9.85645 27.5424L9.85364 27.7752L26.7736 27.9789L26.7764 27.7461Z" fill="white"/>
<path d="M18.3516 10.583C19.7849 10.583 21.0752 10.7457 22.001 11.0049C22.4653 11.1349 22.8269 11.2861 23.0674 11.4453C23.3156 11.6097 23.3896 11.7505 23.3896 11.8496C23.3896 11.9487 23.3156 12.0896 23.0674 12.2539C22.8269 12.4131 22.4652 12.5643 22.001 12.6943C21.0752 12.9535 19.7849 13.1162 18.3516 13.1162C16.918 13.1162 15.627 12.9536 14.7012 12.6943C14.2372 12.5644 13.8762 12.413 13.6357 12.2539C13.3875 12.0896 13.3136 11.9487 13.3135 11.8496C13.3135 11.7505 13.3874 11.6097 13.6357 11.4453C13.8762 11.2862 14.2371 11.1348 14.7012 11.0049C15.627 10.7456 16.918 10.583 18.3516 10.583Z" stroke="white" stroke-width="0.4"/>
<path d="M18.3516 9.74316C20.1283 9.74316 21.7282 9.99872 22.877 10.4062C23.4522 10.6104 23.9043 10.8487 24.208 11.1035C24.5127 11.3591 24.6465 11.6117 24.6465 11.8477C24.6465 12.0836 24.5127 12.3362 24.208 12.5918C23.9043 12.8466 23.4522 13.0849 22.877 13.2891C21.7282 13.6966 20.1283 13.9521 18.3516 13.9521C16.5748 13.9521 14.9749 13.6966 13.8262 13.2891C13.2509 13.0849 12.7988 12.8466 12.4951 12.5918C12.1904 12.3362 12.0566 12.0836 12.0566 11.8477C12.0567 11.6117 12.1904 11.3591 12.4951 11.1035C12.7988 10.8487 13.2509 10.6104 13.8262 10.4062C14.9749 9.99872 16.5748 9.74316 18.3516 9.74316Z" stroke="white" stroke-width="0.4"/>
<path d="M24.6381 12.2656C24.6381 13.7699 21.9391 14.7799 18.3519 14.7799C14.7647 14.7799 11.8566 13.7323 12.0663 12.2656" stroke="white" stroke-width="0.4"/>
<path d="M13.1787 20.9813C12.6987 17.7946 12.4854 13.3145 12.4854 13.3145C15.7486 15.3722 21.7146 14.957 24.2185 13.3145C24.2185 13.3145 24.2185 17.7946 23.7385 20.9813C23.2585 24.1681 13.6587 24.1681 13.1787 20.9813Z" stroke="white" stroke-width="0.4"/>
<path d="M43.7535 14.1895V6.37686H47.5705C48.5527 6.37686 49.2893 6.56288 49.7804 6.9349C50.2789 7.30693 50.5281 7.79801 50.5281 8.40814C50.5281 8.81737 50.4277 9.17451 50.2268 9.47958C50.0259 9.7772 49.7506 10.0079 49.4009 10.1715C49.0512 10.3352 48.6494 10.4171 48.1955 10.4171L48.4076 9.95949C48.8986 9.95949 49.3339 10.0413 49.7134 10.205C50.0929 10.3613 50.3868 10.5957 50.5951 10.9082C50.8109 11.2207 50.9188 11.6039 50.9188 12.0577C50.9188 12.7274 50.6546 13.2519 50.1263 13.6314C49.5981 14.0034 48.8205 14.1895 47.7937 14.1895H43.7535ZM45.5504 12.8278H47.6598C48.1285 12.8278 48.482 12.7534 48.7201 12.6046C48.9656 12.4484 49.0884 12.2028 49.0884 11.868C49.0884 11.5406 48.9656 11.2988 48.7201 11.1425C48.482 10.9789 48.1285 10.897 47.6598 10.897H45.4165V9.58002H47.3473C47.7863 9.58002 48.1211 9.50562 48.3518 9.35681C48.5899 9.20056 48.7089 8.96618 48.7089 8.65367C48.7089 8.34861 48.5899 8.12167 48.3518 7.97286C48.1211 7.81661 47.7863 7.73849 47.3473 7.73849H45.5504V12.8278ZM55.022 14.2787C54.3821 14.2787 53.8129 14.1448 53.3144 13.8769C52.8233 13.6091 52.4327 13.2445 52.1425 12.7832C51.8598 12.3144 51.7184 11.7824 51.7184 11.1872C51.7184 10.5845 51.8598 10.0525 52.1425 9.59119C52.4327 9.12243 52.8233 8.75784 53.3144 8.49742C53.8129 8.22956 54.3821 8.09563 55.022 8.09563C55.6545 8.09563 56.22 8.22956 56.7185 8.49742C57.217 8.75784 57.6076 9.11871 57.8904 9.58002C58.1731 10.0413 58.3145 10.5771 58.3145 11.1872C58.3145 11.7824 58.1731 12.3144 57.8904 12.7832C57.6076 13.2445 57.217 13.6091 56.7185 13.8769C56.22 14.1448 55.6545 14.2787 55.022 14.2787ZM55.022 12.8502C55.3122 12.8502 55.5726 12.7832 55.8033 12.6493C56.0339 12.5153 56.2162 12.3256 56.3502 12.0801C56.4841 11.8271 56.5511 11.5295 56.5511 11.1872C56.5511 10.8375 56.4841 10.5399 56.3502 10.2943C56.2162 10.0488 56.0339 9.85905 55.8033 9.72512C55.5726 9.59119 55.3122 9.52422 55.022 9.52422C54.7318 9.52422 54.4714 9.59119 54.2408 9.72512C54.0101 9.85905 53.8241 10.0488 53.6827 10.2943C53.5488 10.5399 53.4818 10.8375 53.4818 11.1872C53.4818 11.5295 53.5488 11.8271 53.6827 12.0801C53.8241 12.3256 54.0101 12.5153 54.2408 12.6493C54.4714 12.7832 54.7318 12.8502 55.022 12.8502ZM61.9336 14.2787C61.2268 14.2787 60.6762 14.1002 60.2818 13.743C59.8875 13.3784 59.6903 12.839 59.6903 12.1247V6.85678H61.4314V12.1024C61.4314 12.3554 61.4984 12.5525 61.6323 12.6939C61.7662 12.8278 61.9485 12.8948 62.1792 12.8948C62.4545 12.8948 62.6889 12.8204 62.8823 12.6716L63.3511 13.8993C63.1725 14.0258 62.9567 14.1225 62.7037 14.1895C62.4582 14.249 62.2015 14.2787 61.9336 14.2787ZM58.764 9.65815V8.31885H62.927V9.65815H58.764ZM66.653 14.2787C65.9462 14.2787 65.3956 14.1002 65.0012 13.743C64.6069 13.3784 64.4097 12.839 64.4097 12.1247V6.85678H66.1508V12.1024C66.1508 12.3554 66.2177 12.5525 66.3517 12.6939C66.4856 12.8278 66.6679 12.8948 66.8986 12.8948C67.1739 12.8948 67.4082 12.8204 67.6017 12.6716L68.0704 13.8993C67.8919 14.0258 67.6761 14.1225 67.4231 14.1895C67.1776 14.249 66.9209 14.2787 66.653 14.2787ZM63.4833 9.65815V8.31885H67.6463V9.65815H63.4833ZM71.7197 14.2787C71.0798 14.2787 70.5106 14.1448 70.0121 13.8769C69.521 13.6091 69.1304 13.2445 68.8402 12.7832C68.5575 12.3144 68.4161 11.7824 68.4161 11.1872C68.4161 10.5845 68.5575 10.0525 68.8402 9.59119C69.1304 9.12243 69.521 8.75784 70.0121 8.49742C70.5106 8.22956 71.0798 8.09563 71.7197 8.09563C72.3521 8.09563 72.9176 8.22956 73.4161 8.49742C73.9147 8.75784 74.3053 9.11871 74.588 9.58002C74.8708 10.0413 75.0121 10.5771 75.0121 11.1872C75.0121 11.7824 74.8708 12.3144 74.588 12.7832C74.3053 13.2445 73.9147 13.6091 73.4161 13.8769C72.9176 14.1448 72.3521 14.2787 71.7197 14.2787ZM71.7197 12.8502C72.0099 12.8502 72.2703 12.7832 72.501 12.6493C72.7316 12.5153 72.9139 12.3256 73.0478 12.0801C73.1818 11.8271 73.2487 11.5295 73.2487 11.1872C73.2487 10.8375 73.1818 10.5399 73.0478 10.2943C72.9139 10.0488 72.7316 9.85905 72.501 9.72512C72.2703 9.59119 72.0099 9.52422 71.7197 9.52422C71.4295 9.52422 71.1691 9.59119 70.9384 9.72512C70.7078 9.85905 70.5218 10.0488 70.3804 10.2943C70.2465 10.5399 70.1795 10.8375 70.1795 11.1872C70.1795 11.5295 70.2465 11.8271 70.3804 12.0801C70.5218 12.3256 70.7078 12.5153 70.9384 12.6493C71.1691 12.7832 71.4295 12.8502 71.7197 12.8502ZM83.8657 8.09563C84.3419 8.09563 84.7623 8.19236 85.1269 8.38581C85.499 8.57183 85.7891 8.86201 85.9975 9.25636C86.2132 9.64327 86.3211 10.1418 86.3211 10.7519V14.1895H84.58V11.0198C84.58 10.5361 84.4796 10.179 84.2787 9.94833C84.0778 9.71767 83.7951 9.60235 83.4305 9.60235C83.1775 9.60235 82.9506 9.66187 82.7497 9.78092C82.5488 9.89253 82.3925 10.0637 82.2809 10.2943C82.1693 10.525 82.1135 10.8189 82.1135 11.176V14.1895H80.3724V11.0198C80.3724 10.5361 80.272 10.179 80.0711 9.94833C79.8776 9.71767 79.5986 9.60235 79.234 9.60235C78.981 9.60235 78.7541 9.66187 78.5532 9.78092C78.3523 9.89253 78.196 10.0637 78.0844 10.2943C77.9728 10.525 77.917 10.8189 77.917 11.176V14.1895H76.1759V8.18492H77.8389V9.82556L77.5264 9.34565C77.7347 8.93642 78.0286 8.62763 78.4081 8.4193C78.795 8.20352 79.234 8.09563 79.7251 8.09563C80.2757 8.09563 80.7556 8.237 81.1648 8.51974C81.5815 8.79505 81.8568 9.21916 81.9907 9.79208L81.3769 9.62467C81.5778 9.15591 81.8977 8.78388 82.3367 8.50858C82.7831 8.23328 83.2928 8.09563 83.8657 8.09563Z" fill="black"/>
<path d="M44.7529 29.8105V22.3951L45.1071 22.7714H42.9268V22.0631H45.5498V29.8105H44.7529ZM49.7149 29.877C49.1542 29.877 48.6229 29.7884 48.1212 29.6113C47.6268 29.4269 47.2284 29.1834 46.9259 28.8809L47.3132 28.25C47.5641 28.5082 47.8998 28.7222 48.3204 28.8919C48.7483 29.0616 49.2132 29.1465 49.7149 29.1465C50.3569 29.1465 50.8475 29.0063 51.1869 28.7259C51.5337 28.4455 51.7071 28.0692 51.7071 27.597C51.7071 27.1248 51.5374 26.7485 51.198 26.4681C50.866 26.1877 50.3384 26.0475 49.6153 26.0475H49.0619V25.4609L51.4526 22.4615L51.5632 22.7714H47.2468V22.0631H52.2273V22.6276L49.8367 25.6269L49.4493 25.3724H49.7481C50.6778 25.3724 51.3714 25.579 51.8289 25.9922C52.2937 26.4054 52.5261 26.9366 52.5261 27.5859C52.5261 28.0213 52.4228 28.4123 52.2162 28.7591C52.0096 29.1059 51.6961 29.3789 51.2755 29.5781C50.8623 29.7773 50.3421 29.877 49.7149 29.877ZM53.4511 29.8105V29.2461L56.6718 26.0918C56.9669 25.804 57.1883 25.5531 57.3359 25.3392C57.4834 25.1178 57.583 24.9112 57.6347 24.7194C57.6863 24.5275 57.7122 24.3468 57.7122 24.1771C57.7122 23.727 57.5572 23.3728 57.2473 23.1145C56.9448 22.8563 56.4947 22.7272 55.8971 22.7272C55.4396 22.7272 55.0338 22.7973 54.6796 22.9375C54.3328 23.0777 54.034 23.2953 53.7831 23.5905L53.2187 23.1035C53.5212 22.7493 53.9085 22.4763 54.3808 22.2845C54.853 22.0926 55.3806 21.9967 55.9635 21.9967C56.4873 21.9967 56.9411 22.0816 57.3248 22.2513C57.7085 22.4136 58.0036 22.6534 58.2102 22.9707C58.4242 23.2879 58.5312 23.6606 58.5312 24.0885C58.5312 24.3394 58.4943 24.5866 58.4205 24.8301C58.3541 25.0735 58.2287 25.3318 58.0442 25.6048C57.8671 25.8704 57.6052 26.1729 57.2584 26.5124L54.3033 29.4121L54.0819 29.1022H58.8854V29.8105H53.4511ZM60.5912 29.8659C60.4288 29.8659 60.2887 29.8069 60.1706 29.6888C60.0599 29.5707 60.0046 29.4269 60.0046 29.2572C60.0046 29.0801 60.0599 28.9362 60.1706 28.8255C60.2887 28.7148 60.4288 28.6595 60.5912 28.6595C60.7535 28.6595 60.89 28.7148 61.0007 28.8255C61.1187 28.9362 61.1778 29.0801 61.1778 29.2572C61.1778 29.4269 61.1187 29.5707 61.0007 29.6888C60.89 29.8069 60.7535 29.8659 60.5912 29.8659ZM64.7849 29.877C64.2315 29.877 63.704 29.7884 63.2022 29.6113C62.7005 29.4269 62.302 29.1834 62.0069 28.8809L62.3943 28.25C62.6378 28.5082 62.9698 28.7222 63.3904 28.8919C63.8183 29.0616 64.2795 29.1465 64.7738 29.1465C65.4305 29.1465 65.9286 29.0026 66.268 28.7148C66.6148 28.4197 66.7882 28.036 66.7882 27.5638C66.7882 27.2318 66.707 26.9477 66.5447 26.7116C66.3897 26.4681 66.1241 26.2799 65.7478 26.1471C65.3715 26.0143 64.855 25.9479 64.1983 25.9479H62.5492L62.9477 22.0631H67.1866V22.7714H63.2686L63.6781 22.3841L63.335 25.638L62.9255 25.2396H64.3754C65.1575 25.2396 65.7847 25.3355 66.2569 25.5273C66.7291 25.7192 67.0686 25.9885 67.2752 26.3353C67.4891 26.6747 67.5961 27.0731 67.5961 27.5306C67.5961 27.9659 67.4928 28.3644 67.2862 28.7259C67.0796 29.0801 66.7697 29.3605 66.3565 29.5671C65.9433 29.7737 65.4195 29.877 64.7849 29.877ZM79.2851 23.9446C79.7573 23.9446 80.1668 24.0369 80.5136 24.2213C80.8678 24.3984 81.1408 24.6714 81.3326 25.0403C81.5318 25.4093 81.6314 25.8741 81.6314 26.4349V29.8105H80.8456V26.5124C80.8456 25.8999 80.698 25.4388 80.4029 25.1289C80.1151 24.8116 79.7056 24.653 79.1744 24.653C78.7759 24.653 78.4292 24.7378 78.134 24.9075C77.8463 25.0699 77.6212 25.3097 77.4589 25.6269C77.3039 25.9368 77.2265 26.3131 77.2265 26.7558V29.8105H76.4406V26.5124C76.4406 25.8999 76.2931 25.4388 75.9979 25.1289C75.7028 24.8116 75.2896 24.653 74.7583 24.653C74.3673 24.653 74.0242 24.7378 73.729 24.9075C73.4339 25.0699 73.2052 25.3097 73.0428 25.6269C72.8879 25.9368 72.8104 26.3131 72.8104 26.7558V29.8105H72.0246V24H72.7772V25.5716L72.6555 25.2949C72.8326 24.8743 73.1166 24.546 73.5077 24.3099C73.9061 24.0664 74.3747 23.9446 74.9133 23.9446C75.4814 23.9446 75.9647 24.0885 76.3632 24.3763C76.7616 24.6567 77.0199 25.0809 77.1379 25.6491L76.828 25.5273C76.9977 25.0551 77.2966 24.6751 77.7245 24.3873C78.1598 24.0922 78.68 23.9446 79.2851 23.9446ZM91.0229 23.9446C91.4952 23.9446 91.9047 24.0369 92.2515 24.2213C92.6056 24.3984 92.8786 24.6714 93.0705 25.0403C93.2697 25.4093 93.3693 25.8741 93.3693 26.4349V29.8105H92.5835V26.5124C92.5835 25.8999 92.4359 25.4388 92.1408 25.1289C91.853 24.8116 91.4435 24.653 90.9123 24.653C90.5138 24.653 90.167 24.7378 89.8719 24.9075C89.5841 25.0699 89.3591 25.3097 89.1968 25.6269C89.0418 25.9368 88.9643 26.3131 88.9643 26.7558V29.8105H88.1785V26.5124C88.1785 25.8999 88.031 25.4388 87.7358 25.1289C87.4407 24.8116 87.0275 24.653 86.4962 24.653C86.1052 24.653 85.7621 24.7378 85.4669 24.9075C85.1718 25.0699 84.9431 25.3097 84.7807 25.6269C84.6258 25.9368 84.5483 26.3131 84.5483 26.7558V29.8105H83.7625V24H84.5151V25.5716L84.3934 25.2949C84.5704 24.8743 84.8545 24.546 85.2456 24.3099C85.644 24.0664 86.1125 23.9446 86.6512 23.9446C87.2193 23.9446 87.7026 24.0885 88.1011 24.3763C88.4995 24.6567 88.7577 25.0809 88.8758 25.6491L88.5659 25.5273C88.7356 25.0551 89.0344 24.6751 89.4624 24.3873C89.8977 24.0922 90.4179 23.9446 91.0229 23.9446Z" fill="black"/>
</svg>
