<svg width="166" height="49" viewBox="0 0 166 49" fill="none" xmlns="http://www.w3.org/2000/svg">
<path d="M3.13565 9.02011C2.50859 9.02011 1.90565 8.91962 1.32683 8.71864C0.756044 8.50962 0.313887 8.24432 0.000358215 7.92275L0.350064 7.2354C0.647515 7.52481 1.04546 7.77001 1.54389 7.97099C2.05036 8.16393 2.58095 8.2604 3.13565 8.2604C3.66624 8.2604 4.09634 8.19609 4.42594 8.06746C4.76359 7.93079 5.00879 7.74991 5.16153 7.52481C5.32232 7.29972 5.40271 7.0505 5.40271 6.77717C5.40271 6.44756 5.30624 6.18226 5.1133 5.98128C4.9284 5.7803 4.6832 5.62354 4.37771 5.51099C4.07222 5.3904 3.73457 5.28589 3.36477 5.19746C2.99496 5.10903 2.62516 5.01658 2.25536 4.92011C1.88555 4.8156 1.54389 4.67893 1.23036 4.51011C0.924868 4.34129 0.675652 4.12021 0.482711 3.84687C0.297809 3.5655 0.205358 3.19972 0.205358 2.74952C0.205358 2.33148 0.313888 1.94962 0.530946 1.60393C0.756044 1.25021 1.09771 0.968836 1.55595 0.759816C2.01418 0.542758 2.60104 0.434228 3.31653 0.434228C3.79085 0.434228 4.26114 0.502562 4.72741 0.639228C5.19369 0.767855 5.59565 0.948738 5.9333 1.18187L5.63183 1.89334C5.27006 1.65217 4.88418 1.47531 4.47418 1.36276C4.07222 1.25021 3.68232 1.19393 3.30447 1.19393C2.798 1.19393 2.37997 1.26227 2.05036 1.39893C1.72075 1.5356 1.47555 1.7205 1.31477 1.95364C1.16202 2.17874 1.08565 2.43599 1.08565 2.7254C1.08565 3.05501 1.1781 3.32031 1.363 3.52129C1.55595 3.72227 1.80516 3.87903 2.11065 3.99158C2.42418 4.10413 2.76585 4.20462 3.13565 4.29305C3.50545 4.38148 3.87124 4.47795 4.233 4.58246C4.60281 4.68697 4.94045 4.82364 5.24594 4.99246C5.55947 5.15325 5.80869 5.3703 5.99359 5.64364C6.18653 5.91697 6.283 6.27472 6.283 6.71687C6.283 7.12687 6.17045 7.50873 5.94536 7.86246C5.72026 8.20815 5.37457 8.48952 4.9083 8.70658C4.45006 8.9156 3.85918 9.02011 3.13565 9.02011ZM11.3144 9.00805C10.7677 9.00805 10.2733 8.88344 9.83112 8.63422C9.38896 8.37697 9.03524 8.01119 8.76995 7.53687C8.51269 7.05452 8.38406 6.46766 8.38406 5.77628C8.38406 5.08491 8.51269 4.50207 8.76995 4.02776C9.0272 3.5454 9.37691 3.17962 9.81906 2.9304C10.2612 2.68119 10.7597 2.55658 11.3144 2.55658C11.9173 2.55658 12.4559 2.69325 12.9302 2.96658C13.4126 3.23187 13.7904 3.60972 14.0638 4.10011C14.3371 4.58246 14.4738 5.14119 14.4738 5.77628C14.4738 6.41942 14.3371 6.98217 14.0638 7.46452C13.7904 7.94687 13.4126 8.32471 12.9302 8.59805C12.4559 8.87138 11.9173 9.00805 11.3144 9.00805ZM8.04642 11.2872V2.61687H8.86642V4.52217L8.782 5.78834L8.90259 7.06658V11.2872H8.04642ZM11.2541 8.24834C11.7043 8.24834 12.1062 8.14785 12.4599 7.94687C12.8137 7.73785 13.095 7.44844 13.3041 7.07864C13.5131 6.70079 13.6176 6.26668 13.6176 5.77628C13.6176 5.28589 13.5131 4.8558 13.3041 4.48599C13.095 4.11619 12.8137 3.82678 12.4599 3.61776C12.1062 3.40874 11.7043 3.30423 11.2541 3.30423C10.8039 3.30423 10.3979 3.40874 10.0361 3.61776C9.6824 3.82678 9.40102 4.11619 9.192 4.48599C8.99102 4.8558 8.89053 5.28589 8.89053 5.77628C8.89053 6.26668 8.99102 6.70079 9.192 7.07864C9.40102 7.44844 9.6824 7.73785 10.0361 7.94687C10.3979 8.14785 10.8039 8.24834 11.2541 8.24834ZM20.1511 8.94775V7.54893L20.1149 7.31981V4.9804C20.1149 4.44178 19.9622 4.02776 19.6567 3.73834C19.3593 3.44893 18.9131 3.30423 18.3182 3.30423C17.9082 3.30423 17.5183 3.37256 17.1485 3.50923C16.7787 3.64589 16.4651 3.82678 16.2079 4.05187L15.822 3.41276C16.1436 3.13942 16.5294 2.9304 16.9796 2.7857C17.4298 2.63295 17.9042 2.55658 18.4026 2.55658C19.2226 2.55658 19.8537 2.76158 20.2958 3.17158C20.746 3.57354 20.9711 4.18854 20.9711 5.01658V8.94775H20.1511ZM17.9685 9.00805C17.4942 9.00805 17.0801 8.93168 16.7264 8.77893C16.3807 8.61815 16.1154 8.40109 15.9305 8.12775C15.7456 7.84638 15.6532 7.52481 15.6532 7.16305C15.6532 6.83344 15.7295 6.53599 15.8823 6.2707C16.0431 5.99736 16.3003 5.7803 16.6541 5.61952C17.0158 5.4507 17.4982 5.36628 18.1011 5.36628H20.2838V6.0054H18.1252C17.5143 6.0054 17.0882 6.11393 16.847 6.33099C16.6139 6.54805 16.4973 6.81736 16.4973 7.13893C16.4973 7.5007 16.638 7.79011 16.9194 8.00717C17.2007 8.22422 17.5946 8.33275 18.1011 8.33275C18.5835 8.33275 18.9975 8.22422 19.3432 8.00717C19.6969 7.78207 19.9542 7.4605 20.1149 7.04246L20.3079 7.63334C20.1471 8.05138 19.8657 8.38501 19.4638 8.63422C19.0698 8.88344 18.5714 9.00805 17.9685 9.00805ZM25.9254 9.00805C25.2983 9.00805 24.7356 8.87138 24.2372 8.59805C23.7468 8.31668 23.3609 7.93481 23.0795 7.45246C22.7982 6.96207 22.6575 6.40334 22.6575 5.77628C22.6575 5.14119 22.7982 4.58246 23.0795 4.10011C23.3609 3.61776 23.7468 3.23991 24.2372 2.96658C24.7356 2.69325 25.2983 2.55658 25.9254 2.55658C26.464 2.55658 26.9504 2.66109 27.3845 2.87011C27.8186 3.07913 28.1603 3.39266 28.4095 3.8107L27.7704 4.24481C27.5533 3.92325 27.284 3.68609 26.9625 3.53334C26.6409 3.3806 26.2912 3.30423 25.9133 3.30423C25.4631 3.30423 25.0572 3.40874 24.6954 3.61776C24.3336 3.81874 24.0482 4.10413 23.8392 4.47393C23.6302 4.84374 23.5257 5.27785 23.5257 5.77628C23.5257 6.27472 23.6302 6.70883 23.8392 7.07864C24.0482 7.44844 24.3336 7.73785 24.6954 7.94687C25.0572 8.14785 25.4631 8.24834 25.9133 8.24834C26.2912 8.24834 26.6409 8.17197 26.9625 8.01922C27.284 7.86648 27.5533 7.63334 27.7704 7.31981L28.4095 7.75393C28.1603 8.16393 27.8186 8.47746 27.3845 8.69452C26.9504 8.90354 26.464 9.00805 25.9254 9.00805ZM29.9972 8.94775V2.61687H30.8534V8.94775H29.9972ZM30.4314 1.21805C30.2545 1.21805 30.1058 1.15776 29.9852 1.03717C29.8646 0.916581 29.8043 0.771875 29.8043 0.603052C29.8043 0.434228 29.8646 0.293542 29.9852 0.180993C30.1058 0.0604046 30.2545 0.000110528 30.4314 0.000110528C30.6082 0.000110528 30.7569 0.056385 30.8775 0.168934C30.9981 0.281483 31.0584 0.422169 31.0584 0.590993C31.0584 0.767856 30.9981 0.916581 30.8775 1.03717C30.765 1.15776 30.6163 1.21805 30.4314 1.21805ZM35.8163 9.00805C35.2053 9.00805 34.6546 8.87138 34.1642 8.59805C33.6819 8.31668 33.3 7.93481 33.0186 7.45246C32.7373 6.96207 32.5966 6.40334 32.5966 5.77628C32.5966 5.14119 32.7373 4.58246 33.0186 4.10011C33.3 3.61776 33.6819 3.23991 34.1642 2.96658C34.6466 2.69325 35.1973 2.55658 35.8163 2.55658C36.4433 2.55658 36.998 2.69325 37.4804 2.96658C37.9708 3.23991 38.3526 3.61776 38.626 4.10011C38.9073 4.58246 39.048 5.14119 39.048 5.77628C39.048 6.40334 38.9073 6.96207 38.626 7.45246C38.3526 7.93481 37.9708 8.31668 37.4804 8.59805C36.99 8.87138 36.4353 9.00805 35.8163 9.00805ZM35.8163 8.24834C36.2745 8.24834 36.6805 8.14785 37.0342 7.94687C37.3879 7.73785 37.6653 7.44844 37.8663 7.07864C38.0753 6.70079 38.1798 6.26668 38.1798 5.77628C38.1798 5.27785 38.0753 4.84374 37.8663 4.47393C37.6653 4.10413 37.3879 3.81874 37.0342 3.61776C36.6805 3.40874 36.2785 3.30423 35.8283 3.30423C35.3781 3.30423 34.9762 3.40874 34.6224 3.61776C34.2687 3.81874 33.9874 4.10413 33.7783 4.47393C33.5693 4.84374 33.4648 5.27785 33.4648 5.77628C33.4648 6.26668 33.5693 6.70079 33.7783 7.07864C33.9874 7.44844 34.2687 7.73785 34.6224 7.94687C34.9762 8.14785 35.3741 8.24834 35.8163 8.24834ZM43.4128 9.00805C42.8741 9.00805 42.4038 8.90756 42.0019 8.70658C41.5999 8.5056 41.2864 8.20413 41.0613 7.80217C40.8442 7.40021 40.7357 6.89775 40.7357 6.29481V2.61687H41.5919V6.19834C41.5919 6.87364 41.7567 7.38413 42.0863 7.72981C42.4239 8.06746 42.8942 8.23628 43.4972 8.23628C43.9393 8.23628 44.3212 8.14785 44.6428 7.97099C44.9724 7.78609 45.2216 7.52079 45.3904 7.17511C45.5673 6.82942 45.6557 6.4154 45.6557 5.93305V2.61687H46.5119V8.94775H45.6919V7.21128L45.8245 7.52481C45.6235 7.99109 45.31 8.35687 44.8839 8.62217C44.4659 8.87942 43.9755 9.00805 43.4128 9.00805ZM50.5983 9.00805C50.0758 9.00805 49.5813 8.9357 49.1151 8.79099C48.6488 8.63824 48.283 8.44932 48.0177 8.22422L48.4036 7.54893C48.6609 7.74187 48.9905 7.9107 49.3924 8.0554C49.7944 8.19207 50.2164 8.2604 50.6586 8.2604C51.2615 8.2604 51.6957 8.16795 51.961 7.98305C52.2262 7.79011 52.3589 7.53687 52.3589 7.22334C52.3589 6.99021 52.2825 6.80932 52.1298 6.6807C51.9851 6.54403 51.7921 6.44354 51.551 6.37923C51.3098 6.30687 51.0405 6.24658 50.743 6.19834C50.4456 6.15011 50.1481 6.09383 49.8507 6.02952C49.5613 5.96521 49.296 5.87276 49.0548 5.75217C48.8136 5.62354 48.6166 5.4507 48.4639 5.23364C48.3192 5.01658 48.2468 4.72717 48.2468 4.3654C48.2468 4.01972 48.3433 3.71021 48.5363 3.43687C48.7292 3.16354 49.0106 2.9505 49.3804 2.79776C49.7582 2.63697 50.2164 2.55658 50.7551 2.55658C51.1651 2.55658 51.5751 2.61285 51.9851 2.7254C52.3951 2.82991 52.7327 2.9706 52.998 3.14746L52.6242 3.83481C52.3428 3.64187 52.0413 3.50521 51.7198 3.42481C51.3982 3.33638 51.0766 3.29217 50.7551 3.29217C50.1843 3.29217 49.7622 3.39266 49.4889 3.59364C49.2236 3.78658 49.091 4.0358 49.091 4.34129C49.091 4.58246 49.1633 4.77138 49.308 4.90805C49.4608 5.04472 49.6577 5.15325 49.8989 5.23364C50.1481 5.30599 50.4174 5.36628 50.7068 5.41452C51.0043 5.46276 51.2977 5.52305 51.5871 5.5954C51.8846 5.65972 52.1539 5.75217 52.3951 5.87276C52.6443 5.9853 52.8412 6.15011 52.986 6.36717C53.1387 6.57619 53.2151 6.85354 53.2151 7.19923C53.2151 7.56903 53.1106 7.8906 52.9015 8.16393C52.7006 8.42922 52.4031 8.63824 52.0092 8.79099C51.6233 8.9357 51.153 9.00805 50.5983 9.00805ZM54.2676 10.7083L54.7982 8.47746L54.8946 8.99599C54.7097 8.99599 54.553 8.9357 54.4243 8.81511C54.3038 8.69452 54.2435 8.53775 54.2435 8.34481C54.2435 8.15187 54.3038 7.99511 54.4243 7.87452C54.553 7.75393 54.7057 7.69364 54.8826 7.69364C55.0675 7.69364 55.2162 7.75795 55.3288 7.88658C55.4493 8.01521 55.5096 8.16795 55.5096 8.34481C55.5096 8.40913 55.5056 8.47344 55.4976 8.53775C55.4895 8.60207 55.4735 8.67442 55.4493 8.75481C55.4252 8.8352 55.3931 8.93168 55.3529 9.04422L54.8464 10.7083H54.2676ZM63.7293 2.55658C64.2438 2.55658 64.694 2.65707 65.0799 2.85805C65.4738 3.05099 65.7793 3.34844 65.9964 3.7504C66.2215 4.15236 66.334 4.65883 66.334 5.26981V8.94775H65.4779V5.35423C65.4779 4.68697 65.309 4.18452 64.9714 3.84687C64.6418 3.50119 64.1755 3.32834 63.5726 3.32834C63.1224 3.32834 62.7284 3.4208 62.3908 3.6057C62.0612 3.78256 61.8039 4.04383 61.619 4.38952C61.4422 4.72717 61.3537 5.13717 61.3537 5.61952V8.94775H60.4976V0.000110528H61.3537V4.35334L61.1849 4.02776C61.3859 3.56952 61.7075 3.21178 62.1496 2.95452C62.5918 2.68923 63.1183 2.55658 63.7293 2.55658ZM71.3358 9.00805C70.6766 9.00805 70.0978 8.87138 69.5993 8.59805C69.1009 8.31668 68.711 7.93481 68.4296 7.45246C68.1483 6.96207 68.0076 6.40334 68.0076 5.77628C68.0076 5.14923 68.1402 4.59452 68.4055 4.11217C68.6788 3.62981 69.0486 3.25197 69.5149 2.97864C69.9892 2.69727 70.5198 2.55658 71.1067 2.55658C71.7016 2.55658 72.2282 2.69325 72.6864 2.96658C73.1527 3.23187 73.5185 3.60972 73.7837 4.10011C74.049 4.58246 74.1817 5.14119 74.1817 5.77628C74.1817 5.81648 74.1777 5.8607 74.1696 5.90893C74.1696 5.94913 74.1696 5.99334 74.1696 6.04158H68.6587V5.40246H73.7114L73.3737 5.6557C73.3737 5.19746 73.2733 4.79148 73.0723 4.43776C72.8793 4.07599 72.614 3.79462 72.2764 3.59364C71.9387 3.39266 71.5488 3.29217 71.1067 3.29217C70.6726 3.29217 70.2827 3.39266 69.937 3.59364C69.5913 3.79462 69.322 4.07599 69.129 4.43776C68.9361 4.79952 68.8396 5.21354 68.8396 5.67981V5.81246C68.8396 6.29481 68.9441 6.72089 69.1532 7.0907C69.3702 7.45246 69.6677 7.73785 70.0455 7.94687C70.4314 8.14785 70.8695 8.24834 71.3599 8.24834C71.7458 8.24834 72.1035 8.18001 72.4332 8.04334C72.7708 7.90668 73.0602 7.69766 73.3014 7.41628L73.7837 7.97099C73.5024 8.30864 73.1486 8.56589 72.7226 8.74275C72.3045 8.91962 71.8423 9.00805 71.3358 9.00805ZM79.7151 8.94775V7.54893L79.6789 7.31981V4.9804C79.6789 4.44178 79.5262 4.02776 79.2207 3.73834C78.9232 3.44893 78.477 3.30423 77.8821 3.30423C77.4721 3.30423 77.0822 3.37256 76.7124 3.50923C76.3426 3.64589 76.0291 3.82678 75.7718 4.05187L75.386 3.41276C75.7075 3.13942 76.0934 2.9304 76.5436 2.7857C76.9938 2.63295 77.4681 2.55658 77.9666 2.55658C78.7866 2.55658 79.4176 2.76158 79.8598 3.17158C80.31 3.57354 80.5351 4.18854 80.5351 5.01658V8.94775H79.7151ZM77.5324 9.00805C77.0581 9.00805 76.6441 8.93168 76.2904 8.77893C75.9447 8.61815 75.6794 8.40109 75.4945 8.12775C75.3096 7.84638 75.2171 7.52481 75.2171 7.16305C75.2171 6.83344 75.2935 6.53599 75.4463 6.2707C75.607 5.99736 75.8643 5.7803 76.218 5.61952C76.5798 5.4507 77.0621 5.36628 77.6651 5.36628H79.8477V6.0054H77.6892C77.0782 6.0054 76.6521 6.11393 76.411 6.33099C76.1778 6.54805 76.0613 6.81736 76.0613 7.13893C76.0613 7.5007 76.2019 7.79011 76.4833 8.00717C76.7647 8.22422 77.1586 8.33275 77.6651 8.33275C78.1474 8.33275 78.5615 8.22422 78.9071 8.00717C79.2609 7.78207 79.5181 7.4605 79.6789 7.04246L79.8718 7.63334C79.7111 8.05138 79.4297 8.38501 79.0277 8.63422C78.6338 8.88344 78.1354 9.00805 77.5324 9.00805ZM84.3707 8.94775L81.561 2.61687H82.4534L85.034 8.48952H84.6119L87.2287 2.61687H88.0728L85.251 8.94775H84.3707ZM89.2679 11.3475C88.9705 11.3475 88.6851 11.2992 88.4117 11.2028C88.1465 11.1063 87.9173 10.9616 87.7244 10.7686L88.1223 10.1295C88.2831 10.2823 88.456 10.3988 88.6409 10.4792C88.8338 10.5677 89.0468 10.6119 89.28 10.6119C89.5614 10.6119 89.8025 10.5315 90.0035 10.3707C90.2125 10.2179 90.4095 9.94462 90.5944 9.55069L91.0044 8.62217L91.1009 8.48952L93.7056 2.61687H94.5497L91.3782 9.70746C91.2014 10.1175 91.0044 10.443 90.7873 10.6842C90.5783 10.9254 90.3492 11.0942 90.1 11.1907C89.8508 11.2952 89.5734 11.3475 89.2679 11.3475ZM90.9562 9.12864L88.0379 2.61687H88.9303L91.5109 8.42922L90.9562 9.12864ZM95.1439 6.05364V5.30599H98.3033V6.05364H95.1439ZM102.857 9.00805C102.254 9.00805 101.711 8.87138 101.229 8.59805C100.754 8.32471 100.381 7.94687 100.107 7.46452C99.834 6.97413 99.6973 6.41138 99.6973 5.77628C99.6973 5.13315 99.834 4.5704 100.107 4.08805C100.381 3.6057 100.754 3.23187 101.229 2.96658C101.711 2.69325 102.254 2.55658 102.857 2.55658C103.411 2.55658 103.906 2.68119 104.34 2.9304C104.782 3.17962 105.132 3.5454 105.389 4.02776C105.654 4.50207 105.787 5.08491 105.787 5.77628C105.787 6.45962 105.658 7.04246 105.401 7.52481C105.144 8.00717 104.794 8.37697 104.352 8.63422C103.918 8.88344 103.419 9.00805 102.857 9.00805ZM102.917 8.24834C103.367 8.24834 103.769 8.14785 104.123 7.94687C104.485 7.73785 104.766 7.44844 104.967 7.07864C105.176 6.70079 105.281 6.26668 105.281 5.77628C105.281 5.27785 105.176 4.84374 104.967 4.47393C104.766 4.10413 104.485 3.81874 104.123 3.61776C103.769 3.40874 103.367 3.30423 102.917 3.30423C102.475 3.30423 102.077 3.40874 101.723 3.61776C101.369 3.81874 101.088 4.10413 100.879 4.47393C100.67 4.84374 100.566 5.27785 100.566 5.77628C100.566 6.26668 100.67 6.70079 100.879 7.07864C101.088 7.44844 101.369 7.73785 101.723 7.94687C102.077 8.14785 102.475 8.24834 102.917 8.24834ZM105.305 8.94775V7.04246L105.389 5.76423L105.268 4.48599V0.000110528H106.125V8.94775H105.305ZM111.126 9.00805C110.587 9.00805 110.117 8.90756 109.715 8.70658C109.313 8.5056 108.999 8.20413 108.774 7.80217C108.557 7.40021 108.449 6.89775 108.449 6.29481V2.61687H109.305V6.19834C109.305 6.87364 109.47 7.38413 109.799 7.72981C110.137 8.06746 110.607 8.23628 111.21 8.23628C111.652 8.23628 112.034 8.14785 112.356 7.97099C112.685 7.78609 112.935 7.52079 113.103 7.17511C113.28 6.82942 113.369 6.4154 113.369 5.93305V2.61687H114.225V8.94775H113.405V7.21128L113.538 7.52481C113.337 7.99109 113.023 8.35687 112.597 8.62217C112.179 8.87942 111.689 9.00805 111.126 9.00805ZM118.613 9.00805C118.018 9.00805 117.56 8.84726 117.238 8.5257C116.917 8.20413 116.756 7.74991 116.756 7.16305V1.21805H117.612V7.11481C117.612 7.48462 117.704 7.77001 117.889 7.97099C118.082 8.17197 118.356 8.27246 118.709 8.27246C119.087 8.27246 119.401 8.16393 119.65 7.94687L119.951 8.56187C119.783 8.71462 119.578 8.82717 119.336 8.89952C119.103 8.97187 118.862 9.00805 118.613 9.00805ZM115.622 3.32834V2.61687H119.541V3.32834H115.622ZM121.44 11.3475C121.143 11.3475 120.858 11.2992 120.584 11.2028C120.319 11.1063 120.09 10.9616 119.897 10.7686L120.295 10.1295C120.456 10.2823 120.629 10.3988 120.813 10.4792C121.006 10.5677 121.219 10.6119 121.453 10.6119C121.734 10.6119 121.975 10.5315 122.176 10.3707C122.385 10.2179 122.582 9.94462 122.767 9.55069L123.177 8.62217L123.273 8.48952L125.878 2.61687H126.722L123.551 9.70746C123.374 10.1175 123.177 10.443 122.96 10.6842C122.751 10.9254 122.522 11.0942 122.273 11.1907C122.023 11.2952 121.746 11.3475 121.44 11.3475ZM123.129 9.12864L120.21 2.61687H121.103L123.683 8.42922L123.129 9.12864ZM3.89536 27.008C3.34065 27.008 2.84222 26.8834 2.40006 26.6342C1.95791 26.377 1.6082 26.0072 1.35095 25.5248C1.09369 25.0425 0.965064 24.4596 0.965064 23.7763C0.965064 23.0849 1.09369 22.5021 1.35095 22.0278C1.61624 21.5454 1.96997 21.1796 2.41212 20.9304C2.85428 20.6812 3.34869 20.5566 3.89536 20.5566C4.4983 20.5566 5.03692 20.6932 5.51124 20.9666C5.99359 21.2319 6.37143 21.6057 6.64477 22.088C6.9181 22.5704 7.05477 23.1331 7.05477 23.7763C7.05477 24.4114 6.9181 24.9741 6.64477 25.4645C6.37143 25.9469 5.99359 26.3247 5.51124 26.598C5.03692 26.8714 4.4983 27.008 3.89536 27.008ZM0.627417 26.9478V18.0001H1.48359V22.486L1.363 23.7642L1.44742 25.0425V26.9478H0.627417ZM3.83506 26.2483C4.28526 26.2483 4.68722 26.1479 5.04094 25.9469C5.39467 25.7379 5.67604 25.4484 5.88506 25.0786C6.09408 24.7008 6.19859 24.2667 6.19859 23.7763C6.19859 23.2779 6.09408 22.8437 5.88506 22.4739C5.67604 22.1041 5.39467 21.8187 5.04094 21.6178C4.68722 21.4087 4.28526 21.3042 3.83506 21.3042C3.38487 21.3042 2.97889 21.4087 2.61712 21.6178C2.2634 21.8187 1.98202 22.1041 1.773 22.4739C1.57202 22.8437 1.47153 23.2779 1.47153 23.7763C1.47153 24.2667 1.57202 24.7008 1.773 25.0786C1.98202 25.4484 2.2634 25.7379 2.61712 25.9469C2.97889 26.1479 3.38487 26.2483 3.83506 26.2483ZM11.4169 27.008C10.8782 27.008 10.4079 26.9076 10.006 26.7066C9.60401 26.5056 9.29048 26.2041 9.06539 25.8022C8.84833 25.4002 8.7398 24.8978 8.7398 24.2948V20.6169H9.59597V24.1983C9.59597 24.8736 9.76078 25.3841 10.0904 25.7298C10.428 26.0675 10.8983 26.2363 11.5013 26.2363C11.9434 26.2363 12.3253 26.1479 12.6469 25.971C12.9765 25.7861 13.2257 25.5208 13.3945 25.1751C13.5714 24.8294 13.6598 24.4154 13.6598 23.933V20.6169H14.516V26.9478H13.696V25.2113L13.8286 25.5248C13.6276 25.9911 13.3141 26.3569 12.888 26.6222C12.47 26.8794 11.9796 27.008 11.4169 27.008ZM19.5309 27.008C18.9039 27.008 18.3411 26.8714 17.8427 26.598C17.3523 26.3167 16.9664 25.9348 16.6851 25.4525C16.4037 24.9621 16.263 24.4033 16.263 23.7763C16.263 23.1412 16.4037 22.5825 16.6851 22.1001C16.9664 21.6178 17.3523 21.2399 17.8427 20.9666C18.3411 20.6932 18.9039 20.5566 19.5309 20.5566C20.0696 20.5566 20.5559 20.6611 20.99 20.8701C21.4242 21.0791 21.7658 21.3927 22.015 21.8107L21.3759 22.2448C21.1589 21.9232 20.8896 21.6861 20.568 21.5333C20.2464 21.3806 19.8967 21.3042 19.5189 21.3042C19.0687 21.3042 18.6627 21.4087 18.3009 21.6178C17.9392 21.8187 17.6538 22.1041 17.4448 22.4739C17.2357 22.8437 17.1312 23.2779 17.1312 23.7763C17.1312 24.2747 17.2357 24.7088 17.4448 25.0786C17.6538 25.4484 17.9392 25.7379 18.3009 25.9469C18.6627 26.1479 19.0687 26.2483 19.5189 26.2483C19.8967 26.2483 20.2464 26.172 20.568 26.0192C20.8896 25.8665 21.1589 25.6333 21.3759 25.3198L22.015 25.7539C21.7658 26.1639 21.4242 26.4775 20.99 26.6945C20.5559 26.9035 20.0696 27.008 19.5309 27.008ZM24.2781 25.3078L24.3022 24.2104L28.2454 20.6169H29.2945L26.5089 23.2819L26.0266 23.6919L24.2781 25.3078ZM23.6028 26.9478V18.0001H24.4589V26.9478H23.6028ZM28.5107 26.9478L25.8698 23.6557L26.4245 22.9925L29.5598 26.9478H28.5107ZM33.2752 27.008C32.6159 27.008 32.0371 26.8714 31.5387 26.598C31.0403 26.3167 30.6504 25.9348 30.369 25.4525C30.0876 24.9621 29.9469 24.4033 29.9469 23.7763C29.9469 23.1492 30.0796 22.5945 30.3449 22.1122C30.6182 21.6298 30.988 21.252 31.4543 20.9786C31.9286 20.6973 32.4592 20.5566 33.046 20.5566C33.6409 20.5566 34.1675 20.6932 34.6257 20.9666C35.092 21.2319 35.4578 21.6097 35.7231 22.1001C35.9884 22.5825 36.121 23.1412 36.121 23.7763C36.121 23.8165 36.117 23.8607 36.109 23.9089C36.109 23.9491 36.109 23.9933 36.109 24.0416H30.5981V23.4025H35.6507L35.3131 23.6557C35.3131 23.1975 35.2126 22.7915 35.0116 22.4378C34.8187 22.076 34.5534 21.7946 34.2157 21.5936C33.8781 21.3927 33.4882 21.2922 33.046 21.2922C32.6119 21.2922 32.222 21.3927 31.8763 21.5936C31.5306 21.7946 31.2613 22.076 31.0684 22.4378C30.8755 22.7995 30.779 23.2135 30.779 23.6798V23.8125C30.779 24.2948 30.8835 24.7209 31.0925 25.0907C31.3096 25.4525 31.607 25.7379 31.9849 25.9469C32.3707 26.1479 32.8089 26.2483 33.2993 26.2483C33.6852 26.2483 34.0429 26.18 34.3725 26.0433C34.7102 25.9067 34.9996 25.6977 35.2407 25.4163L35.7231 25.971C35.4417 26.3086 35.088 26.5659 34.6619 26.7428C34.2439 26.9196 33.7816 27.008 33.2752 27.008ZM39.8655 27.008C39.2706 27.008 38.8124 26.8473 38.4908 26.5257C38.1692 26.2041 38.0084 25.7499 38.0084 25.163V19.2181H38.8646V25.1148C38.8646 25.4846 38.9571 25.77 39.142 25.971C39.3349 26.172 39.6082 26.2725 39.962 26.2725C40.3398 26.2725 40.6533 26.1639 40.9025 25.9469L41.204 26.5619C41.0352 26.7146 40.8302 26.8272 40.589 26.8995C40.3559 26.9719 40.1147 27.008 39.8655 27.008ZM36.8749 21.3283V20.6169H40.794V21.3283H36.8749ZM47.2089 26.9478L44.8213 20.6169H45.6413L47.8119 26.4895H47.4381L49.6689 20.6169H50.4045L52.6113 26.4895H52.2375L54.4442 20.6169H55.2281L52.8283 26.9478H52.0204L49.8981 21.4248H50.1513L48.0169 26.9478H47.2089ZM56.5172 26.9478V20.6169H57.3734V26.9478H56.5172ZM56.9513 19.2181C56.7745 19.2181 56.6257 19.1578 56.5052 19.0372C56.3846 18.9166 56.3243 18.7719 56.3243 18.6031C56.3243 18.4342 56.3846 18.2935 56.5052 18.181C56.6257 18.0604 56.7745 18.0001 56.9513 18.0001C57.1282 18.0001 57.2769 18.0564 57.3975 18.1689C57.5181 18.2815 57.5784 18.4222 57.5784 18.591C57.5784 18.7679 57.5181 18.9166 57.3975 19.0372C57.285 19.1578 57.1362 19.2181 56.9513 19.2181ZM61.7574 27.008C61.1625 27.008 60.7043 26.8473 60.3827 26.5257C60.0612 26.2041 59.9004 25.7499 59.9004 25.163V19.2181H60.7565V25.1148C60.7565 25.4846 60.849 25.77 61.0339 25.971C61.2268 26.172 61.5002 26.2725 61.8539 26.2725C62.2317 26.2725 62.5453 26.1639 62.7945 25.9469L63.096 26.5619C62.9271 26.7146 62.7221 26.8272 62.481 26.8995C62.2478 26.9719 62.0066 27.008 61.7574 27.008ZM58.7668 21.3283V20.6169H62.686V21.3283H58.7668ZM67.8863 20.5566C68.4008 20.5566 68.851 20.6571 69.2369 20.8581C69.6308 21.051 69.9363 21.3484 70.1534 21.7504C70.3785 22.1524 70.491 22.6588 70.491 23.2698V26.9478H69.6349V23.3542C69.6349 22.687 69.466 22.1845 69.1284 21.8469C68.7988 21.5012 68.3325 21.3283 67.7296 21.3283C67.2794 21.3283 66.8854 21.4208 66.5478 21.6057C66.2182 21.7826 65.9609 22.0438 65.776 22.3895C65.5992 22.7272 65.5107 23.1372 65.5107 23.6195V26.9478H64.6546V18.0001H65.5107V22.3533L65.3419 22.0278C65.5429 21.5695 65.8645 21.2118 66.3066 20.9545C66.7488 20.6892 67.2753 20.5566 67.8863 20.5566ZM79.9271 26.9478V25.5489L79.8909 25.3198V22.9804C79.8909 22.4418 79.7381 22.0278 79.4326 21.7383C79.1352 21.4489 78.689 21.3042 78.0941 21.3042C77.6841 21.3042 77.2942 21.3726 76.9244 21.5092C76.5546 21.6459 76.2411 21.8268 75.9838 22.0519L75.5979 21.4128C75.9195 21.1394 76.3054 20.9304 76.7556 20.7857C77.2058 20.633 77.6801 20.5566 78.1785 20.5566C78.9985 20.5566 79.6296 20.7616 80.0718 21.1716C80.522 21.5735 80.7471 22.1885 80.7471 23.0166V26.9478H79.9271ZM77.7444 27.008C77.2701 27.008 76.8561 26.9317 76.5023 26.7789C76.1567 26.6181 75.8914 26.4011 75.7065 26.1278C75.5216 25.8464 75.4291 25.5248 75.4291 25.163C75.4291 24.8334 75.5055 24.536 75.6582 24.2707C75.819 23.9974 76.0763 23.7803 76.43 23.6195C76.7918 23.4507 77.2741 23.3663 77.8771 23.3663H80.0597V24.0054H77.9012C77.2902 24.0054 76.8641 24.1139 76.6229 24.331C76.3898 24.548 76.2732 24.8174 76.2732 25.1389C76.2732 25.5007 76.4139 25.7901 76.6953 26.0072C76.9767 26.2242 77.3706 26.3328 77.8771 26.3328C78.3594 26.3328 78.7734 26.2242 79.1191 26.0072C79.4728 25.7821 79.7301 25.4605 79.8909 25.0425L80.0838 25.6333C79.923 26.0514 79.6417 26.385 79.2397 26.6342C78.8458 26.8834 78.3473 27.008 77.7444 27.008ZM83.0725 26.9478V20.6169H83.9287V26.9478H83.0725ZM83.5066 19.2181C83.3298 19.2181 83.181 19.1578 83.0605 19.0372C82.9399 18.9166 82.8796 18.7719 82.8796 18.6031C82.8796 18.4342 82.9399 18.2935 83.0605 18.181C83.181 18.0604 83.3298 18.0001 83.5066 18.0001C83.6835 18.0001 83.8322 18.0564 83.9528 18.1689C84.0734 18.2815 84.1337 18.4222 84.1337 18.591C84.1337 18.7679 84.0734 18.9166 83.9528 19.0372C83.8403 19.1578 83.6915 19.2181 83.5066 19.2181ZM86.311 26.9478V20.6169H87.131V22.3413L87.0466 22.0398C87.2234 21.5575 87.5209 21.1917 87.9389 20.9425C88.357 20.6852 88.8755 20.5566 89.4945 20.5566V21.3886C89.4623 21.3886 89.4302 21.3886 89.398 21.3886C89.3659 21.3806 89.3337 21.3766 89.3016 21.3766C88.6343 21.3766 88.1118 21.5816 87.7339 21.9916C87.3561 22.3935 87.1671 22.9683 87.1671 23.716V26.9478H86.311ZM93.3294 27.008C92.7345 27.008 92.2763 26.8473 91.9547 26.5257C91.6331 26.2041 91.4723 25.7499 91.4723 25.163V19.2181H92.3285V25.1148C92.3285 25.4846 92.421 25.77 92.6059 25.971C92.7988 26.172 93.0721 26.2725 93.4259 26.2725C93.8037 26.2725 94.1172 26.1639 94.3664 25.9469L94.6679 26.5619C94.4991 26.7146 94.2941 26.8272 94.0529 26.8995C93.8198 26.9719 93.5786 27.008 93.3294 27.008ZM90.3388 21.3283V20.6169H94.2579V21.3283H90.3388ZM96.2265 26.9478V20.6169H97.0827V26.9478H96.2265ZM96.6606 19.2181C96.4838 19.2181 96.3351 19.1578 96.2145 19.0372C96.0939 18.9166 96.0336 18.7719 96.0336 18.6031C96.0336 18.4342 96.0939 18.2935 96.2145 18.181C96.3351 18.0604 96.4838 18.0001 96.6606 18.0001C96.8375 18.0001 96.9862 18.0564 97.1068 18.1689C97.2274 18.2815 97.2877 18.4222 97.2877 18.591C97.2877 18.7679 97.2274 18.9166 97.1068 19.0372C96.9943 19.1578 96.8455 19.2181 96.6606 19.2181ZM102.166 29.3475C101.587 29.3475 101.033 29.263 100.502 29.0942C99.9714 28.9254 99.5413 28.6842 99.2117 28.3707L99.6459 27.7195C99.9433 27.9848 100.309 28.1938 100.743 28.3466C101.185 28.5074 101.652 28.5878 102.142 28.5878C102.946 28.5878 103.537 28.3988 103.915 28.021C104.293 27.6512 104.481 27.0724 104.481 26.2845V24.7048L104.602 23.6195L104.518 22.5342V20.6169H105.338V26.176C105.338 27.2693 105.068 28.0692 104.53 28.5757C103.999 29.0902 103.211 29.3475 102.166 29.3475ZM102.009 26.7066C101.406 26.7066 100.864 26.578 100.381 26.3207C99.8991 26.0554 99.5172 25.6896 99.2359 25.2233C98.9625 24.7571 98.8259 24.2225 98.8259 23.6195C98.8259 23.0166 98.9625 22.486 99.2359 22.0278C99.5172 21.5615 99.8991 21.1997 100.381 20.9425C100.864 20.6852 101.406 20.5566 102.009 20.5566C102.572 20.5566 103.079 20.6731 103.529 20.9063C103.979 21.1394 104.337 21.4851 104.602 21.9433C104.867 22.4016 105 22.9603 105 23.6195C105 24.2787 104.867 24.8375 104.602 25.2957C104.337 25.7539 103.979 26.1036 103.529 26.3448C103.079 26.586 102.572 26.7066 102.009 26.7066ZM102.094 25.9469C102.56 25.9469 102.974 25.8504 103.336 25.6575C103.698 25.4565 103.983 25.1831 104.192 24.8375C104.401 24.4837 104.506 24.0778 104.506 23.6195C104.506 23.1613 104.401 22.7593 104.192 22.4136C103.983 22.068 103.698 21.7986 103.336 21.6057C102.974 21.4047 102.56 21.3042 102.094 21.3042C101.636 21.3042 101.222 21.4047 100.852 21.6057C100.49 21.7986 100.205 22.068 99.9956 22.4136C99.7946 22.7593 99.6941 23.1613 99.6941 23.6195C99.6941 24.0778 99.7946 24.4837 99.9956 24.8375C100.205 25.1831 100.49 25.4565 100.852 25.6575C101.222 25.8504 101.636 25.9469 102.094 25.9469ZM110.952 20.5566C111.466 20.5566 111.917 20.6571 112.302 20.8581C112.696 21.051 113.002 21.3484 113.219 21.7504C113.444 22.1524 113.557 22.6588 113.557 23.2698V26.9478H112.7V23.3542C112.7 22.687 112.532 22.1845 112.194 21.8469C111.864 21.5012 111.398 21.3283 110.795 21.3283C110.345 21.3283 109.951 21.4208 109.613 21.6057C109.284 21.7826 109.026 22.0438 108.842 22.3895C108.665 22.7272 108.576 23.1372 108.576 23.6195V26.9478H107.72V18.0001H108.576V22.3533L108.407 22.0278C108.608 21.5695 108.93 21.2118 109.372 20.9545C109.814 20.6892 110.341 20.5566 110.952 20.5566ZM117.871 27.008C117.276 27.008 116.818 26.8473 116.496 26.5257C116.175 26.2041 116.014 25.7499 116.014 25.163V19.2181H116.87V25.1148C116.87 25.4846 116.963 25.77 117.147 25.971C117.34 26.172 117.614 26.2725 117.967 26.2725C118.345 26.2725 118.659 26.1639 118.908 25.9469L119.21 26.5619C119.041 26.7146 118.836 26.8272 118.595 26.8995C118.361 26.9719 118.12 27.008 117.871 27.008ZM114.88 21.3283V20.6169H118.8V21.3283H114.88ZM123.924 26.9478V18.0001H124.78V26.9478H123.924ZM129.743 27.008C129.132 27.008 128.581 26.8714 128.091 26.598C127.609 26.3167 127.227 25.9348 126.946 25.4525C126.664 24.9621 126.523 24.4033 126.523 23.7763C126.523 23.1412 126.664 22.5825 126.946 22.1001C127.227 21.6178 127.609 21.2399 128.091 20.9666C128.573 20.6932 129.124 20.5566 129.743 20.5566C130.37 20.5566 130.925 20.6932 131.407 20.9666C131.898 21.2399 132.28 21.6178 132.553 22.1001C132.834 22.5825 132.975 23.1412 132.975 23.7763C132.975 24.4033 132.834 24.9621 132.553 25.4525C132.28 25.9348 131.898 26.3167 131.407 26.598C130.917 26.8714 130.362 27.008 129.743 27.008ZM129.743 26.2483C130.201 26.2483 130.607 26.1479 130.961 25.9469C131.315 25.7379 131.592 25.4484 131.793 25.0786C132.002 24.7008 132.107 24.2667 132.107 23.7763C132.107 23.2779 132.002 22.8437 131.793 22.4739C131.592 22.1041 131.315 21.8187 130.961 21.6178C130.607 21.4087 130.205 21.3042 129.755 21.3042C129.305 21.3042 128.903 21.4087 128.549 21.6178C128.196 21.8187 127.914 22.1041 127.705 22.4739C127.496 22.8437 127.392 23.2779 127.392 23.7763C127.392 24.2667 127.496 24.7008 127.705 25.0786C127.914 25.4484 128.196 25.7379 128.549 25.9469C128.903 26.1479 129.301 26.2483 129.743 26.2483ZM137.352 27.008C136.725 27.008 136.162 26.8714 135.663 26.598C135.173 26.3167 134.787 25.9348 134.506 25.4525C134.224 24.9621 134.084 24.4033 134.084 23.7763C134.084 23.1412 134.224 22.5825 134.506 22.1001C134.787 21.6178 135.173 21.2399 135.663 20.9666C136.162 20.6932 136.725 20.5566 137.352 20.5566C137.89 20.5566 138.377 20.6611 138.811 20.8701C139.245 21.0791 139.587 21.3927 139.836 21.8107L139.197 22.2448C138.98 21.9232 138.71 21.6861 138.389 21.5333C138.067 21.3806 137.717 21.3042 137.34 21.3042C136.889 21.3042 136.483 21.4087 136.122 21.6178C135.76 21.8187 135.475 22.1041 135.266 22.4739C135.057 22.8437 134.952 23.2779 134.952 23.7763C134.952 24.2747 135.057 24.7088 135.266 25.0786C135.475 25.4484 135.76 25.7379 136.122 25.9469C136.483 26.1479 136.889 26.2483 137.34 26.2483C137.717 26.2483 138.067 26.172 138.389 26.0192C138.71 25.8665 138.98 25.6333 139.197 25.3198L139.836 25.7539C139.587 26.1639 139.245 26.4775 138.811 26.6945C138.377 26.9035 137.89 27.008 137.352 27.008ZM142.099 25.3078L142.123 24.2104L146.066 20.6169H147.115L144.33 23.2819L143.847 23.6919L142.099 25.3078ZM141.424 26.9478V18.0001H142.28V26.9478H141.424ZM146.331 26.9478L143.691 23.6557L144.245 22.9925L147.381 26.9478H146.331ZM148.666 26.9478V20.6169H149.522V26.9478H148.666ZM149.1 19.2181C148.923 19.2181 148.774 19.1578 148.654 19.0372C148.533 18.9166 148.473 18.7719 148.473 18.6031C148.473 18.4342 148.533 18.2935 148.654 18.181C148.774 18.0604 148.923 18.0001 149.1 18.0001C149.277 18.0001 149.426 18.0564 149.546 18.1689C149.667 18.2815 149.727 18.4222 149.727 18.591C149.727 18.7679 149.667 18.9166 149.546 19.0372C149.434 19.1578 149.285 19.2181 149.1 19.2181ZM155.136 20.5566C155.651 20.5566 156.101 20.6571 156.487 20.8581C156.881 21.051 157.186 21.3484 157.403 21.7504C157.628 22.1524 157.741 22.6588 157.741 23.2698V26.9478H156.885V23.3542C156.885 22.687 156.716 22.1845 156.378 21.8469C156.049 21.5012 155.582 21.3283 154.979 21.3283C154.529 21.3283 154.135 21.4208 153.798 21.6057C153.468 21.7826 153.211 22.0438 153.026 22.3895C152.849 22.7272 152.761 23.1372 152.761 23.6195V26.9478H151.904V20.6169H152.724V22.3533L152.592 22.0278C152.793 21.5695 153.114 21.2118 153.556 20.9545C153.999 20.6892 154.525 20.5566 155.136 20.5566ZM162.755 29.3475C162.176 29.3475 161.621 29.263 161.091 29.0942C160.56 28.9254 160.13 28.6842 159.8 28.3707L160.234 27.7195C160.532 27.9848 160.898 28.1938 161.332 28.3466C161.774 28.5074 162.24 28.5878 162.731 28.5878C163.534 28.5878 164.125 28.3988 164.503 28.021C164.881 27.6512 165.07 27.0724 165.07 26.2845V24.7048L165.191 23.6195L165.106 22.5342V20.6169H165.926V26.176C165.926 27.2693 165.657 28.0692 165.118 28.5757C164.588 29.0902 163.8 29.3475 162.755 29.3475ZM162.598 26.7066C161.995 26.7066 161.452 26.578 160.97 26.3207C160.488 26.0554 160.106 25.6896 159.824 25.2233C159.551 24.7571 159.414 24.2225 159.414 23.6195C159.414 23.0166 159.551 22.486 159.824 22.0278C160.106 21.5615 160.488 21.1997 160.97 20.9425C161.452 20.6852 161.995 20.5566 162.598 20.5566C163.161 20.5566 163.667 20.6731 164.117 20.9063C164.567 21.1394 164.925 21.4851 165.191 21.9433C165.456 22.4016 165.588 22.9603 165.588 23.6195C165.588 24.2787 165.456 24.8375 165.191 25.2957C164.925 25.7539 164.567 26.1036 164.117 26.3448C163.667 26.586 163.161 26.7066 162.598 26.7066ZM162.682 25.9469C163.149 25.9469 163.563 25.8504 163.924 25.6575C164.286 25.4565 164.572 25.1831 164.781 24.8375C164.99 24.4837 165.094 24.0778 165.094 23.6195C165.094 23.1613 164.99 22.7593 164.781 22.4136C164.572 22.068 164.286 21.7986 163.924 21.6057C163.563 21.4047 163.149 21.3042 162.682 21.3042C162.224 21.3042 161.81 21.4047 161.44 21.6057C161.078 21.7986 160.793 22.068 160.584 22.4136C160.383 22.7593 160.283 23.1613 160.283 23.6195C160.283 24.0778 160.383 24.4837 160.584 24.8375C160.793 25.1831 161.078 25.4565 161.44 25.6575C161.81 25.8504 162.224 25.9469 162.682 25.9469ZM4.59477 45.9478V44.5489L4.55859 44.3198V41.9804C4.55859 41.4418 4.40585 41.0278 4.10036 40.7383C3.80291 40.4489 3.35673 40.3042 2.76183 40.3042C2.35183 40.3042 1.96193 40.3726 1.59212 40.5092C1.22232 40.6459 0.908789 40.8268 0.651534 41.0519L0.265652 40.4128C0.587221 40.1394 0.973103 39.9304 1.4233 39.7857C1.87349 39.633 2.34781 39.5566 2.84624 39.5566C3.66624 39.5566 4.29732 39.7616 4.73947 40.1716C5.18967 40.5735 5.41477 41.1885 5.41477 42.0166V45.9478H4.59477ZM2.41212 46.008C1.93781 46.008 1.52379 45.9317 1.17006 45.7789C0.824377 45.6181 0.559083 45.4011 0.374182 45.1278C0.18928 44.8464 0.0968288 44.5248 0.0968288 44.163C0.0968288 43.8334 0.173201 43.536 0.325946 43.2707C0.486731 42.9974 0.743985 42.7803 1.09771 42.6195C1.45948 42.4507 1.94183 42.3663 2.54477 42.3663H4.72741V43.0054H2.56889C1.95791 43.0054 1.53183 43.1139 1.29065 43.331C1.05751 43.548 0.940946 43.8174 0.940946 44.1389C0.940946 44.5007 1.08163 44.7901 1.363 45.0072C1.64438 45.2242 2.0383 45.3328 2.54477 45.3328C3.02712 45.3328 3.44114 45.2242 3.78683 45.0072C4.14055 44.7821 4.39781 44.4605 4.55859 44.0425L4.75153 44.6333C4.59075 45.0514 4.30938 45.385 3.90742 45.6342C3.51349 45.8834 3.01506 46.008 2.41212 46.008ZM10.972 39.5566C11.4865 39.5566 11.9367 39.6571 12.3226 39.8581C12.7165 40.051 13.022 40.3484 13.2391 40.7504C13.4642 41.1524 13.5767 41.6588 13.5767 42.2698V45.9478H12.7205V42.3542C12.7205 41.687 12.5517 41.1845 12.2141 40.8469C11.8844 40.5012 11.4182 40.3283 10.8152 40.3283C10.365 40.3283 9.97112 40.4208 9.63347 40.6057C9.30386 40.7826 9.04661 41.0438 8.86171 41.3895C8.68484 41.7272 8.59641 42.1372 8.59641 42.6195V45.9478H7.74024V39.6169H8.56023V41.3533L8.42759 41.0278C8.62857 40.5695 8.95014 40.2118 9.39229 39.9545C9.83445 39.6892 10.361 39.5566 10.972 39.5566ZM18.4097 46.008C17.8067 46.008 17.2641 45.8714 16.7817 45.598C16.3074 45.3247 15.9336 44.9469 15.6602 44.4645C15.3869 43.9741 15.2502 43.4114 15.2502 42.7763C15.2502 42.1331 15.3869 41.5704 15.6602 41.088C15.9336 40.6057 16.3074 40.2319 16.7817 39.9666C17.2641 39.6932 17.8067 39.5566 18.4097 39.5566C18.9644 39.5566 19.4588 39.6812 19.8929 39.9304C20.335 40.1796 20.6847 40.5454 20.942 41.0278C21.2073 41.5021 21.3399 42.0849 21.3399 42.7763C21.3399 43.4596 21.2113 44.0425 20.9541 44.5248C20.6968 45.0072 20.3471 45.377 19.9049 45.6342C19.4708 45.8834 18.9724 46.008 18.4097 46.008ZM18.4699 45.2483C18.9201 45.2483 19.3221 45.1479 19.6758 44.9469C20.0376 44.7379 20.319 44.4484 20.5199 44.0786C20.729 43.7008 20.8335 43.2667 20.8335 42.7763C20.8335 42.2779 20.729 41.8437 20.5199 41.4739C20.319 41.1041 20.0376 40.8187 19.6758 40.6178C19.3221 40.4087 18.9201 40.3042 18.4699 40.3042C18.0278 40.3042 17.6298 40.4087 17.2761 40.6178C16.9224 40.8187 16.641 41.1041 16.432 41.4739C16.223 41.8437 16.1185 42.2779 16.1185 42.7763C16.1185 43.2667 16.223 43.7008 16.432 44.0786C16.641 44.4484 16.9224 44.7379 17.2761 44.9469C17.6298 45.1479 18.0278 45.2483 18.4699 45.2483ZM20.8576 45.9478V44.0425L20.942 42.7642L20.8214 41.486V37.0001H21.6776V45.9478H20.8576ZM30.486 46.008C29.9393 46.008 29.4449 45.8834 29.0028 45.6342C28.5606 45.377 28.2069 45.0112 27.9416 44.5369C27.6843 44.0545 27.5557 43.4677 27.5557 42.7763C27.5557 42.0849 27.6843 41.5021 27.9416 41.0278C28.1988 40.5454 28.5485 40.1796 28.9907 39.9304C29.4329 39.6812 29.9313 39.5566 30.486 39.5566C31.0889 39.5566 31.6276 39.6932 32.1019 39.9666C32.5842 40.2319 32.9621 40.6097 33.2354 41.1001C33.5087 41.5825 33.6454 42.1412 33.6454 42.7763C33.6454 43.4194 33.5087 43.9822 33.2354 44.4645C32.9621 44.9469 32.5842 45.3247 32.1019 45.598C31.6276 45.8714 31.0889 46.008 30.486 46.008ZM27.2181 48.2872V39.6169H28.0381V41.5222L27.9536 42.7883L28.0742 44.0666V48.2872H27.2181ZM30.4257 45.2483C30.8759 45.2483 31.2779 45.1479 31.6316 44.9469C31.9853 44.7379 32.2667 44.4484 32.4757 44.0786C32.6847 43.7008 32.7892 43.2667 32.7892 42.7763C32.7892 42.2859 32.6847 41.8558 32.4757 41.486C32.2667 41.1162 31.9853 40.8268 31.6316 40.6178C31.2779 40.4087 30.8759 40.3042 30.4257 40.3042C29.9755 40.3042 29.5695 40.4087 29.2078 40.6178C28.854 40.8268 28.5727 41.1162 28.3636 41.486C28.1627 41.8558 28.0622 42.2859 28.0622 42.7763C28.0622 43.2667 28.1627 43.7008 28.3636 44.0786C28.5727 44.4484 28.854 44.7379 29.2078 44.9469C29.5695 45.1479 29.9755 45.2483 30.4257 45.2483ZM35.3907 45.9478V39.6169H36.2107V41.3413L36.1263 41.0398C36.3032 40.5575 36.6006 40.1917 37.0187 39.9425C37.4367 39.6852 37.9552 39.5566 38.5743 39.5566V40.3886C38.5421 40.3886 38.5099 40.3886 38.4778 40.3886C38.4456 40.3806 38.4135 40.3766 38.3813 40.3766C37.7141 40.3766 37.1915 40.5816 36.8137 40.9916C36.4358 41.3935 36.2469 41.9683 36.2469 42.716V45.9478H35.3907ZM42.7668 46.008C42.1076 46.008 41.5287 45.8714 41.0303 45.598C40.5319 45.3167 40.142 44.9348 39.8606 44.4525C39.5792 43.9621 39.4385 43.4033 39.4385 42.7763C39.4385 42.1492 39.5712 41.5945 39.8365 41.1122C40.1098 40.6298 40.4796 40.252 40.9459 39.9786C41.4202 39.6973 41.9508 39.5566 42.5376 39.5566C43.1326 39.5566 43.6591 39.6932 44.1174 39.9666C44.5836 40.2319 44.9494 40.6097 45.2147 41.1001C45.48 41.5825 45.6126 42.1412 45.6126 42.7763C45.6126 42.8165 45.6086 42.8607 45.6006 42.9089C45.6006 42.9491 45.6006 42.9933 45.6006 43.0416H40.0897V42.4025H45.1424L44.8047 42.6557C44.8047 42.1975 44.7042 41.7915 44.5032 41.4378C44.3103 41.076 44.045 40.7946 43.7074 40.5936C43.3697 40.3927 42.9798 40.2922 42.5376 40.2922C42.1035 40.2922 41.7136 40.3927 41.3679 40.5936C41.0223 40.7946 40.7529 41.076 40.56 41.4378C40.3671 41.7995 40.2706 42.2135 40.2706 42.6798V42.8125C40.2706 43.2948 40.3751 43.7209 40.5841 44.0907C40.8012 44.4525 41.0986 44.7379 41.4765 44.9469C41.8624 45.1479 42.3005 45.2483 42.7909 45.2483C43.1768 45.2483 43.5345 45.18 43.8641 45.0433C44.2018 44.9067 44.4912 44.6977 44.7324 44.4163L45.2147 44.971C44.9333 45.3086 44.5796 45.5659 44.1535 45.7428C43.7355 45.9196 43.2732 46.008 42.7668 46.008ZM55.2659 39.5566C55.7804 39.5566 56.2266 39.6571 56.6045 39.8581C56.9903 40.051 57.2878 40.3484 57.4968 40.7504C57.7139 41.1524 57.8224 41.6588 57.8224 42.2698V45.9478H56.9662V42.3542C56.9662 41.687 56.8054 41.1845 56.4839 40.8469C56.1703 40.5012 55.7242 40.3283 55.1453 40.3283C54.7112 40.3283 54.3334 40.4208 54.0118 40.6057C53.6983 40.7826 53.4531 41.0438 53.2762 41.3895C53.1074 41.7272 53.023 42.1372 53.023 42.6195V45.9478H52.1668V42.3542C52.1668 41.687 52.006 41.1845 51.6845 40.8469C51.3629 40.5012 50.9127 40.3283 50.3339 40.3283C49.9078 40.3283 49.534 40.4208 49.2124 40.6057C48.8908 40.7826 48.6416 41.0438 48.4647 41.3895C48.2959 41.7272 48.2115 42.1372 48.2115 42.6195V45.9478H47.3553V39.6169H48.1753V41.3292L48.0427 41.0278C48.2356 40.5695 48.5451 40.2118 48.9712 39.9545C49.4053 39.6892 49.9158 39.5566 50.5027 39.5566C51.1217 39.5566 51.6483 39.7133 52.0824 40.0269C52.5165 40.3324 52.7979 40.7946 52.9265 41.4136L52.5889 41.281C52.7738 40.7665 53.0994 40.3525 53.5656 40.0389C54.0399 39.7174 54.6067 39.5566 55.2659 39.5566ZM60.1443 45.9478V39.6169H61.0005V45.9478H60.1443ZM60.5784 38.2181C60.4015 38.2181 60.2528 38.1578 60.1322 38.0372C60.0116 37.9166 59.9513 37.7719 59.9513 37.6031C59.9513 37.4342 60.0116 37.2935 60.1322 37.181C60.2528 37.0604 60.4015 37.0001 60.5784 37.0001C60.7553 37.0001 60.904 37.0564 61.0246 37.1689C61.1452 37.2815 61.2055 37.4222 61.2055 37.591C61.2055 37.7679 61.1452 37.9166 61.0246 38.0372C60.912 38.1578 60.7633 38.2181 60.5784 38.2181ZM65.9995 46.008C65.4609 46.008 64.9906 45.9076 64.5886 45.7066C64.1867 45.5056 63.8731 45.2041 63.648 44.8022C63.431 44.4002 63.3224 43.8978 63.3224 43.2948V39.6169H64.1786V43.1983C64.1786 43.8736 64.3434 44.3841 64.673 44.7298C65.0107 45.0675 65.481 45.2363 66.0839 45.2363C66.5261 45.2363 66.9079 45.1479 67.2295 44.971C67.5591 44.7861 67.8083 44.5208 67.9771 44.1751C68.154 43.8294 68.2424 43.4154 68.2424 42.933V39.6169H69.0986V45.9478H68.2786V44.2113L68.4113 44.5248C68.2103 44.9911 67.8967 45.3569 67.4707 45.6222C67.0526 45.8794 66.5622 46.008 65.9995 46.008ZM79.3953 39.5566C79.9098 39.5566 80.356 39.6571 80.7339 39.8581C81.1197 40.051 81.4172 40.3484 81.6262 40.7504C81.8433 41.1524 81.9518 41.6588 81.9518 42.2698V45.9478H81.0956V42.3542C81.0956 41.687 80.9348 41.1845 80.6133 40.8469C80.2997 40.5012 79.8536 40.3283 79.2747 40.3283C78.8406 40.3283 78.4628 40.4208 78.1412 40.6057C77.8277 40.7826 77.5825 41.0438 77.4056 41.3895C77.2368 41.7272 77.1524 42.1372 77.1524 42.6195V45.9478H76.2962V42.3542C76.2962 41.687 76.1354 41.1845 75.8139 40.8469C75.4923 40.5012 75.0421 40.3283 74.4633 40.3283C74.0372 40.3283 73.6634 40.4208 73.3418 40.6057C73.0202 40.7826 72.771 41.0438 72.5942 41.3895C72.4253 41.7272 72.3409 42.1372 72.3409 42.6195V45.9478H71.4847V39.6169H72.3047V41.3292L72.1721 41.0278C72.365 40.5695 72.6746 40.2118 73.1006 39.9545C73.5347 39.6892 74.0452 39.5566 74.6321 39.5566C75.2511 39.5566 75.7777 39.7133 76.2118 40.0269C76.6459 40.3324 76.9273 40.7946 77.0559 41.4136L76.7183 41.281C76.9032 40.7665 77.2288 40.3525 77.695 40.0389C78.1694 39.7174 78.7361 39.5566 79.3953 39.5566ZM87.6106 45.9478V37.5066H88.5029V45.9478H87.6106ZM91.2494 45.9478V37.5066H91.985L95.8438 44.0907H95.458L99.2806 37.5066H100.016V45.9478H99.16V38.8451H99.365L95.8438 44.8745H95.4218L91.8765 38.8451H92.1056V45.9478H91.2494ZM102.767 45.9478V37.5066H103.659V45.176H108.386V45.9478H102.767ZM112.987 45.9478V38.821C112.987 38.2582 113.152 37.804 113.482 37.4583C113.811 37.1127 114.286 36.9398 114.905 36.9398C115.146 36.9398 115.379 36.972 115.604 37.0363C115.829 37.1006 116.018 37.2011 116.171 37.3378L115.882 37.9769C115.761 37.8724 115.62 37.796 115.459 37.7478C115.299 37.6915 115.126 37.6633 114.941 37.6633C114.579 37.6633 114.302 37.7638 114.109 37.9648C113.916 38.1658 113.819 38.4632 113.819 38.8572V39.8219L113.844 40.2198V45.9478H112.987ZM111.854 40.3283V39.6169H115.773V40.3283H111.854ZM116.931 45.9478V39.6169H117.787V45.9478H116.931ZM117.365 38.2181C117.188 38.2181 117.039 38.1578 116.919 38.0372C116.798 37.9166 116.738 37.7719 116.738 37.6031C116.738 37.4342 116.798 37.2935 116.919 37.181C117.039 37.0604 117.188 37.0001 117.365 37.0001C117.542 37.0001 117.69 37.0564 117.811 37.1689C117.932 37.2815 117.992 37.4222 117.992 37.591C117.992 37.7679 117.932 37.9166 117.811 38.0372C117.698 38.1578 117.55 38.2181 117.365 38.2181ZM123.423 39.5566C123.937 39.5566 124.388 39.6571 124.773 39.8581C125.167 40.051 125.473 40.3484 125.69 40.7504C125.915 41.1524 126.028 41.6588 126.028 42.2698V45.9478H125.171V42.3542C125.171 41.687 125.003 41.1845 124.665 40.8469C124.335 40.5012 123.869 40.3283 123.266 40.3283C122.816 40.3283 122.422 40.4208 122.084 40.6057C121.755 40.7826 121.497 41.0438 121.313 41.3895C121.136 41.7272 121.047 42.1372 121.047 42.6195V45.9478H120.191V39.6169H121.011V41.3533L120.878 41.0278C121.079 40.5695 121.401 40.2118 121.843 39.9545C122.285 39.6892 122.812 39.5566 123.423 39.5566ZM128.34 45.9478V39.6169H129.196V45.9478H128.34ZM128.774 38.2181C128.597 38.2181 128.449 38.1578 128.328 38.0372C128.208 37.9166 128.147 37.7719 128.147 37.6031C128.147 37.4342 128.208 37.2935 128.328 37.181C128.449 37.0604 128.597 37.0001 128.774 37.0001C128.951 37.0001 129.1 37.0564 129.22 37.1689C129.341 37.2815 129.401 37.4222 129.401 37.591C129.401 37.7679 129.341 37.9166 129.22 38.0372C129.108 38.1578 128.959 38.2181 128.774 38.2181ZM133.279 46.008C132.756 46.008 132.262 45.9357 131.796 45.791C131.329 45.6382 130.964 45.4493 130.698 45.2242L131.084 44.5489C131.341 44.7419 131.671 44.9107 132.073 45.0554C132.475 45.1921 132.897 45.2604 133.339 45.2604C133.942 45.2604 134.376 45.168 134.642 44.983C134.907 44.7901 135.04 44.5369 135.04 44.2233C135.04 43.9902 134.963 43.8093 134.81 43.6807C134.666 43.544 134.473 43.4435 134.232 43.3792C133.99 43.3069 133.721 43.2466 133.424 43.1983C133.126 43.1501 132.829 43.0938 132.531 43.0295C132.242 42.9652 131.977 42.8728 131.735 42.7522C131.494 42.6235 131.297 42.4507 131.145 42.2336C131 42.0166 130.927 41.7272 130.927 41.3654C130.927 41.0197 131.024 40.7102 131.217 40.4369C131.41 40.1635 131.691 39.9505 132.061 39.7978C132.439 39.637 132.897 39.5566 133.436 39.5566C133.846 39.5566 134.256 39.6129 134.666 39.7254C135.076 39.8299 135.413 39.9706 135.679 40.1475L135.305 40.8348C135.023 40.6419 134.722 40.5052 134.4 40.4248C134.079 40.3364 133.757 40.2922 133.436 40.2922C132.865 40.2922 132.443 40.3927 132.17 40.5936C131.904 40.7866 131.772 41.0358 131.772 41.3413C131.772 41.5825 131.844 41.7714 131.989 41.908C132.141 42.0447 132.338 42.1532 132.58 42.2336C132.829 42.306 133.098 42.3663 133.387 42.4145C133.685 42.4628 133.978 42.523 134.268 42.5954C134.565 42.6597 134.835 42.7522 135.076 42.8728C135.325 42.9853 135.522 43.1501 135.667 43.3672C135.819 43.5762 135.896 43.8535 135.896 44.1992C135.896 44.569 135.791 44.8906 135.582 45.1639C135.381 45.4292 135.084 45.6382 134.69 45.791C134.304 45.9357 133.834 46.008 133.279 46.008ZM140.699 39.5566C141.213 39.5566 141.663 39.6571 142.049 39.8581C142.443 40.051 142.749 40.3484 142.966 40.7504C143.191 41.1524 143.303 41.6588 143.303 42.2698V45.9478H142.447V42.3542C142.447 41.687 142.278 41.1845 141.941 40.8469C141.611 40.5012 141.145 40.3283 140.542 40.3283C140.092 40.3283 139.698 40.4208 139.36 40.6057C139.03 40.7826 138.773 41.0438 138.588 41.3895C138.411 41.7272 138.323 42.1372 138.323 42.6195V45.9478H137.467V37.0001H138.323V41.3533L138.154 41.0278C138.355 40.5695 138.677 40.2118 139.119 39.9545C139.561 39.6892 140.088 39.5566 140.699 39.5566ZM145.7 46.008C145.523 46.008 145.371 45.9437 145.242 45.8151C145.121 45.6865 145.061 45.5297 145.061 45.3448C145.061 45.1519 145.121 44.9951 145.242 44.8745C145.371 44.7539 145.523 44.6936 145.7 44.6936C145.877 44.6936 146.026 44.7539 146.146 44.8745C146.275 44.9951 146.339 45.1519 146.339 45.3448C146.339 45.5297 146.275 45.6865 146.146 45.8151C146.026 45.9437 145.877 46.008 145.7 46.008Z" fill="black"/>
</svg>
