<svg width="130" height="36" viewBox="0 0 130 36" fill="none" xmlns="http://www.w3.org/2000/svg">
<circle cx="17.6922" cy="18.0008" r="17.6922" fill="#A51A06"/>
<path d="M20.3721 13.583C21.8054 13.583 23.0957 13.7457 24.0215 14.0049C24.4858 14.1349 24.8474 14.2861 25.0879 14.4453C25.3362 14.6097 25.4102 14.7505 25.4102 14.8496C25.4101 14.9487 25.3361 15.0896 25.0879 15.2539C24.8474 15.4131 24.4858 15.5643 24.0215 15.6943C23.0957 15.9535 21.8054 16.1162 20.3721 16.1162C18.9385 16.1162 17.6475 15.9536 16.7217 15.6943C16.2577 15.5644 15.8968 15.413 15.6562 15.2539C15.4081 15.0896 15.3341 14.9487 15.334 14.8496C15.334 14.7505 15.4079 14.6097 15.6562 14.4453C15.8967 14.2862 16.2577 14.1348 16.7217 14.0049C17.6475 13.7456 18.9385 13.583 20.3721 13.583Z" stroke="white" stroke-width="0.4"/>
<path d="M20.3721 12.7432C22.1488 12.7432 23.7487 12.9987 24.8975 13.4062C25.4727 13.6104 25.9248 13.8487 26.2285 14.1035C26.5332 14.3591 26.667 14.6117 26.667 14.8477C26.667 15.0836 26.5332 15.3362 26.2285 15.5918C25.9248 15.8466 25.4727 16.0849 24.8975 16.2891C23.7487 16.6966 22.1488 16.9521 20.3721 16.9521C18.5953 16.9521 16.9954 16.6966 15.8467 16.2891C15.2714 16.0849 14.8193 15.8466 14.5156 15.5918C14.211 15.3362 14.0771 15.0836 14.0771 14.8477C14.0772 14.6117 14.2109 14.3591 14.5156 14.1035C14.8193 13.8487 15.2714 13.6104 15.8467 13.4062C16.9954 12.9987 18.5953 12.7432 20.3721 12.7432Z" stroke="white" stroke-width="0.4"/>
<path d="M26.6586 15.2656C26.6586 16.7699 23.9596 17.7799 20.3724 17.7799C16.7853 17.7799 13.8772 16.7323 14.0868 15.2656" stroke="white" stroke-width="0.4"/>
<path d="M15.1992 23.9813C14.7192 20.7946 14.5059 16.3145 14.5059 16.3145C17.7691 18.3722 23.7351 17.957 26.239 16.3145C26.239 16.3145 26.239 20.7946 25.759 23.9813C25.279 27.1681 15.6792 27.1681 15.1992 23.9813Z" stroke="white" stroke-width="0.4"/>
<path d="M9.10112 10.8803C9.01022 10.7894 8.86283 10.7894 8.77193 10.8803L7.29054 12.3617C7.19964 12.4526 7.19964 12.6 7.29054 12.6909C7.38145 12.7818 7.52883 12.7818 7.61974 12.6909L8.93652 11.3741L10.2533 12.6909C10.3442 12.7818 10.4916 12.7818 10.5825 12.6909C10.6734 12.6 10.6734 12.4526 10.5825 12.3617L9.10112 10.8803ZM8.77193 27.5039C8.86283 27.5948 9.01022 27.5948 9.10112 27.5039L10.5825 26.0225C10.6734 25.9316 10.6734 25.7842 10.5825 25.6933C10.4916 25.6024 10.3442 25.6024 10.2533 25.6933L8.93652 27.0101L7.61974 25.6933C7.52883 25.6024 7.38145 25.6024 7.29054 25.6933C7.19964 25.7842 7.19964 25.9316 7.29054 26.0225L8.77193 27.5039ZM8.93652 11.0449L8.70375 11.0449L8.70375 27.3393L8.93652 27.3393L9.1693 27.3393L9.1693 11.0449L8.93652 11.0449Z" fill="white"/>
<path d="M49.1107 6.37686H50.9188V14.1895H49.1107V6.37686ZM45.5616 14.1895H43.7535V6.37686H45.5616V14.1895ZM49.2446 10.9863H45.4276V9.45726H49.2446V10.9863ZM55.6244 14.2787C54.9398 14.2787 54.3371 14.1448 53.8163 13.8769C53.3029 13.6091 52.9048 13.2445 52.6221 12.7832C52.3394 12.3144 52.198 11.7824 52.198 11.1872C52.198 10.5845 52.3356 10.0525 52.6109 9.59119C52.8937 9.12243 53.2769 8.75784 53.7605 8.49742C54.2441 8.22956 54.791 8.09563 55.4011 8.09563C55.989 8.09563 56.5172 8.22212 56.986 8.4751C57.4622 8.72064 57.8379 9.07779 58.1132 9.54654C58.3885 10.0079 58.5262 10.5622 58.5262 11.2095C58.5262 11.2765 58.5225 11.3546 58.515 11.4439C58.5076 11.5257 58.5001 11.6039 58.4927 11.6783H53.6154V10.6626H57.5775L56.9079 10.964C56.9079 10.6515 56.8446 10.3799 56.7181 10.1492C56.5916 9.91857 56.4168 9.74 56.1936 9.61351C55.9703 9.47958 55.7099 9.41261 55.4123 9.41261C55.1147 9.41261 54.8505 9.47958 54.6199 9.61351C54.3967 9.74 54.2218 9.92229 54.0953 10.1604C53.9688 10.391 53.9056 10.6663 53.9056 10.9863V11.2542C53.9056 11.5815 53.9763 11.8717 54.1176 12.1247C54.2665 12.3702 54.4711 12.56 54.7315 12.6939C54.9994 12.8204 55.3119 12.8836 55.669 12.8836C55.989 12.8836 56.268 12.8353 56.5061 12.7385C56.7516 12.6418 56.9748 12.4967 57.1757 12.3033L58.1021 13.3077C57.8268 13.6203 57.4808 13.8621 57.0641 14.0332C56.6474 14.1969 56.1675 14.2787 55.6244 14.2787ZM59.6853 14.1895V8.18492H61.4264V14.1895H59.6853ZM60.5559 7.34786C60.2359 7.34786 59.9755 7.25485 59.7746 7.06883C59.5737 6.88282 59.4733 6.65216 59.4733 6.37686C59.4733 6.10156 59.5737 5.8709 59.7746 5.68489C59.9755 5.49888 60.2359 5.40587 60.5559 5.40587C60.8758 5.40587 61.1363 5.49516 61.3371 5.67373C61.538 5.84486 61.6385 6.06808 61.6385 6.34338C61.6385 6.63356 61.538 6.87538 61.3371 7.06883C61.1437 7.25485 60.8833 7.34786 60.5559 7.34786ZM65.866 16.4439C65.3005 16.4439 64.7536 16.3733 64.2254 16.2319C63.7045 16.098 63.2693 15.8933 62.9195 15.618L63.6115 14.368C63.8645 14.5764 64.1844 14.7401 64.5713 14.8591C64.9657 14.9856 65.3526 15.0488 65.7321 15.0488C66.3496 15.0488 66.7961 14.9112 67.0714 14.6359C67.3541 14.3606 67.4955 13.9514 67.4955 13.4082V12.5042L67.6071 10.9975L67.5848 9.47958V8.18492H69.2366V13.185C69.2366 14.3011 68.9464 15.1232 68.366 15.6515C67.7857 16.1798 66.9523 16.4439 65.866 16.4439ZM65.5981 13.8993C65.0401 13.8993 64.5341 13.7802 64.0803 13.5421C63.6338 13.2966 63.273 12.958 62.9977 12.5265C62.7298 12.0875 62.5959 11.5778 62.5959 10.9975C62.5959 10.4096 62.7298 9.89997 62.9977 9.46842C63.273 9.02942 63.6338 8.69088 64.0803 8.45278C64.5341 8.21468 65.0401 8.09563 65.5981 8.09563C66.1041 8.09563 66.5505 8.1998 66.9374 8.40814C67.3244 8.60903 67.6257 8.92525 67.8415 9.35681C68.0573 9.78092 68.1651 10.3278 68.1651 10.9975C68.1651 11.6597 68.0573 12.2065 67.8415 12.6381C67.6257 13.0622 67.3244 13.3784 66.9374 13.5868C66.5505 13.7951 66.1041 13.8993 65.5981 13.8993ZM65.9441 12.4707C66.2492 12.4707 66.5208 12.4112 66.7589 12.2921C66.997 12.1656 67.183 11.9908 67.3169 11.7675C67.4508 11.5443 67.5178 11.2876 67.5178 10.9975C67.5178 10.6998 67.4508 10.4431 67.3169 10.2274C67.183 10.0041 66.997 9.833 66.7589 9.71395C66.5208 9.58746 66.2492 9.52422 65.9441 9.52422C65.6391 9.52422 65.3675 9.58746 65.1294 9.71395C64.8913 9.833 64.7016 10.0041 64.5602 10.2274C64.4263 10.4431 64.3593 10.6998 64.3593 10.9975C64.3593 11.2876 64.4263 11.5443 64.5602 11.7675C64.7016 11.9908 64.8913 12.1656 65.1294 12.2921C65.3675 12.4112 65.6391 12.4707 65.9441 12.4707ZM74.5067 8.09563C74.9829 8.09563 75.407 8.19236 75.779 8.38581C76.1585 8.57183 76.4561 8.86201 76.6719 9.25636C76.8877 9.64327 76.9955 10.1418 76.9955 10.7519V14.1895H75.2545V11.0198C75.2545 10.5361 75.1466 10.179 74.9308 9.94833C74.7225 9.71767 74.4248 9.60235 74.0379 9.60235C73.7626 9.60235 73.5134 9.66187 73.2901 9.78092C73.0744 9.89253 72.9032 10.0674 72.7767 10.3055C72.6577 10.5436 72.5982 10.8486 72.5982 11.2207V14.1895H70.8571V5.90811H72.5982V9.84788L72.2075 9.34565C72.4233 8.94386 72.7321 8.63507 73.1339 8.4193C73.5357 8.20352 73.9933 8.09563 74.5067 8.09563ZM81.0291 14.2787C80.3223 14.2787 79.7717 14.1002 79.3773 13.743C78.983 13.3784 78.7858 12.839 78.7858 12.1247V6.85678H80.5269V12.1024C80.5269 12.3554 80.5939 12.5525 80.7278 12.6939C80.8617 12.8278 81.044 12.8948 81.2747 12.8948C81.55 12.8948 81.7844 12.8204 81.9778 12.6716L82.4466 13.8993C82.268 14.0258 82.0522 14.1225 81.7992 14.1895C81.5537 14.249 81.297 14.2787 81.0291 14.2787ZM77.8595 9.65815V8.31885H82.0225V9.65815H77.8595Z" fill="black"/>
<path d="M44.7529 29.8105V22.3951L45.1071 22.7714H42.9268V22.0631H45.5498V29.8105H44.7529ZM50.5782 29.877C49.892 29.877 49.3128 29.7257 48.8406 29.4232C48.3684 29.1133 48.0105 28.6706 47.767 28.095C47.5235 27.5121 47.4018 26.8149 47.4018 26.0032C47.4018 25.1252 47.5493 24.391 47.8445 23.8007C48.147 23.2031 48.5639 22.753 49.0951 22.4505C49.6264 22.148 50.2425 21.9967 50.9435 21.9967C51.2902 21.9967 51.6223 22.0299 51.9396 22.0963C52.2568 22.1627 52.5372 22.2697 52.7807 22.4173L52.4597 23.0592C52.2605 22.9264 52.0318 22.8342 51.7735 22.7825C51.5153 22.7235 51.2423 22.694 50.9545 22.694C50.1207 22.694 49.453 22.9596 48.9513 23.4909C48.4569 24.0221 48.2097 24.8153 48.2097 25.8704C48.2097 26.0327 48.2171 26.2357 48.2318 26.4791C48.254 26.7153 48.2983 26.9514 48.3647 27.1875L48.088 26.9772C48.1691 26.5935 48.3278 26.2689 48.5639 26.0032C48.8 25.7302 49.0951 25.5236 49.4493 25.3834C49.8035 25.2432 50.1908 25.1732 50.6114 25.1732C51.1279 25.1732 51.5817 25.2691 51.9728 25.4609C52.3638 25.6528 52.67 25.9221 52.8914 26.2689C53.1127 26.6157 53.2234 27.0252 53.2234 27.4974C53.2234 27.977 53.109 28.3976 52.8803 28.7591C52.6516 29.1133 52.3343 29.39 51.9285 29.5892C51.53 29.781 51.08 29.877 50.5782 29.877ZM50.545 29.2018C50.9139 29.2018 51.2386 29.1354 51.519 29.0026C51.8067 28.8624 52.0318 28.6669 52.1941 28.416C52.3564 28.1578 52.4376 27.8589 52.4376 27.5195C52.4376 27.0104 52.2605 26.6046 51.9063 26.3021C51.5596 25.9995 51.0873 25.8483 50.4897 25.8483C50.0912 25.8483 49.7444 25.9221 49.4493 26.0696C49.1542 26.2172 48.9217 26.4201 48.752 26.6784C48.5823 26.9292 48.4975 27.217 48.4975 27.5417C48.4975 27.822 48.575 28.0914 48.7299 28.3496C48.8848 28.6005 49.1136 28.8071 49.4161 28.9694C49.726 29.1243 50.1023 29.2018 50.545 29.2018ZM55.4965 29.8105V22.3951L55.8506 22.7714H53.6703V22.0631H56.2933V29.8105H55.4965ZM68.8226 23.9446C69.2948 23.9446 69.7043 24.0369 70.0511 24.2213C70.4053 24.3984 70.6783 24.6714 70.8701 25.0403C71.0693 25.4093 71.1689 25.8741 71.1689 26.4349V29.8105H70.3831V26.5124C70.3831 25.8999 70.2355 25.4388 69.9404 25.1289C69.6526 24.8116 69.2431 24.653 68.7119 24.653C68.3134 24.653 67.9667 24.7378 67.6715 24.9075C67.3838 25.0699 67.1587 25.3097 66.9964 25.6269C66.8414 25.9368 66.764 26.3131 66.764 26.7558V29.8105H65.9781V26.5124C65.9781 25.8999 65.8306 25.4388 65.5354 25.1289C65.2403 24.8116 64.8271 24.653 64.2958 24.653C63.9048 24.653 63.5617 24.7378 63.2665 24.9075C62.9714 25.0699 62.7427 25.3097 62.5803 25.6269C62.4254 25.9368 62.3479 26.3131 62.3479 26.7558V29.8105H61.5621V24H62.3147V25.5716L62.193 25.2949C62.3701 24.8743 62.6541 24.546 63.0452 24.3099C63.4436 24.0664 63.9122 23.9446 64.4508 23.9446C65.0189 23.9446 65.5022 24.0885 65.9007 24.3763C66.2991 24.6567 66.5574 25.0809 66.6754 25.6491L66.3655 25.5273C66.5352 25.0551 66.8341 24.6751 67.262 24.3873C67.6973 24.0922 68.2175 23.9446 68.8226 23.9446ZM80.5604 23.9446C81.0327 23.9446 81.4422 24.0369 81.789 24.2213C82.1431 24.3984 82.4161 24.6714 82.608 25.0403C82.8072 25.4093 82.9068 25.8741 82.9068 26.4349V29.8105H82.121V26.5124C82.121 25.8999 81.9734 25.4388 81.6783 25.1289C81.3905 24.8116 80.981 24.653 80.4498 24.653C80.0513 24.653 79.7045 24.7378 79.4094 24.9075C79.1216 25.0699 78.8966 25.3097 78.7343 25.6269C78.5793 25.9368 78.5018 26.3131 78.5018 26.7558V29.8105H77.716V26.5124C77.716 25.8999 77.5685 25.4388 77.2733 25.1289C76.9782 24.8116 76.565 24.653 76.0337 24.653C75.6427 24.653 75.2996 24.7378 75.0044 24.9075C74.7093 25.0699 74.4806 25.3097 74.3182 25.6269C74.1633 25.9368 74.0858 26.3131 74.0858 26.7558V29.8105H73.3V24H74.0526V25.5716L73.9309 25.2949C74.1079 24.8743 74.392 24.546 74.7831 24.3099C75.1815 24.0664 75.65 23.9446 76.1887 23.9446C76.7568 23.9446 77.2401 24.0885 77.6386 24.3763C78.037 24.6567 78.2952 25.0809 78.4133 25.6491L78.1034 25.5273C78.2731 25.0551 78.5719 24.6751 78.9999 24.3873C79.4352 24.0922 79.9554 23.9446 80.5604 23.9446Z" fill="black"/>
</svg>
