<svg width="130" height="36" viewBox="0 0 130 36" fill="none" xmlns="http://www.w3.org/2000/svg">
<circle cx="17.6922" cy="18.0008" r="17.6922" fill="#A51A06"/>
<path d="M6.84419 9.71626C6.75329 9.80717 6.75329 9.95455 6.84419 10.0455L8.32557 11.5268C8.41648 11.6177 8.56387 11.6177 8.65477 11.5268C8.74568 11.4359 8.74568 11.2886 8.65477 11.1976L7.33799 9.88086L8.65477 8.56407C8.74568 8.47317 8.74568 8.32578 8.65477 8.23488C8.56387 8.14397 8.41648 8.14397 8.32557 8.23488L6.84419 9.71626ZM28.1233 10.0455C28.2142 9.95455 28.2142 9.80717 28.1233 9.71626L26.6419 8.23488C26.551 8.14397 26.4037 8.14397 26.3127 8.23488C26.2218 8.32578 26.2218 8.47317 26.3127 8.56407L27.6295 9.88086L26.3127 11.1976C26.2218 11.2886 26.2218 11.4359 26.3127 11.5268C26.4037 11.6177 26.551 11.6177 26.6419 11.5268L28.1233 10.0455ZM7.00879 9.88086V10.1136H27.9587V9.88086V9.64808H7.00879V9.88086Z" fill="white"/>
<path d="M17.4893 16.0576C18.9226 16.0576 20.2129 16.2203 21.1387 16.4795C21.603 16.6095 21.9646 16.7607 22.2051 16.9199C22.4533 17.0843 22.5273 17.2251 22.5273 17.3242C22.5273 17.4233 22.4533 17.5642 22.2051 17.7285C21.9646 17.8877 21.6029 18.0389 21.1387 18.1689C20.2129 18.4281 18.9226 18.5908 17.4893 18.5908C16.0557 18.5908 14.7647 18.4282 13.8389 18.1689C13.3749 18.039 13.0139 17.8876 12.7734 17.7285C12.5252 17.5642 12.4513 17.4233 12.4512 17.3242C12.4512 17.2251 12.5251 17.0843 12.7734 16.9199C13.0139 16.7608 13.3748 16.6094 13.8389 16.4795C14.7647 16.2203 16.0557 16.0576 17.4893 16.0576Z" stroke="white" stroke-width="0.4"/>
<path d="M17.4893 15.2178C19.266 15.2178 20.8659 15.4733 22.0146 15.8809C22.5899 16.085 23.042 16.3234 23.3457 16.5781C23.6504 16.8337 23.7842 17.0863 23.7842 17.3223C23.7842 17.5582 23.6504 17.8108 23.3457 18.0664C23.042 18.3212 22.5899 18.5595 22.0146 18.7637C20.8659 19.1712 19.266 19.4268 17.4893 19.4268C15.7125 19.4268 14.1126 19.1712 12.9639 18.7637C12.3886 18.5595 11.9365 18.3212 11.6328 18.0664C11.3281 17.8108 11.1943 17.5582 11.1943 17.3223C11.1943 17.0863 11.3281 16.8337 11.6328 16.5781C11.9365 16.3234 12.3886 16.085 12.9639 15.8809C14.1126 15.4733 15.7125 15.2178 17.4893 15.2178Z" stroke="white" stroke-width="0.4"/>
<path d="M23.7758 17.7402C23.7758 19.2445 21.0768 20.2545 17.4896 20.2545C13.9024 20.2545 10.9943 19.2069 11.204 17.7402" stroke="white" stroke-width="0.4"/>
<path d="M12.3164 26.4559C11.8364 23.2692 11.623 18.7891 11.623 18.7891C14.8863 20.8468 20.8523 20.4316 23.3562 18.7891C23.3562 18.7891 23.3562 23.2692 22.8762 26.4559C22.3962 29.6427 12.7964 29.6427 12.3164 26.4559Z" stroke="white" stroke-width="0.4"/>
<path d="M45.3718 14.1895V7.85009H42.8718V6.37686H49.6799V7.85009H47.1799V14.1895H45.3718ZM52.7768 14.2787C52.1369 14.2787 51.5677 14.1448 51.0692 13.8769C50.5781 13.6091 50.1875 13.2445 49.8973 12.7832C49.6145 12.3144 49.4732 11.7824 49.4732 11.1872C49.4732 10.5845 49.6145 10.0525 49.8973 9.59119C50.1875 9.12243 50.5781 8.75784 51.0692 8.49742C51.5677 8.22956 52.1369 8.09563 52.7768 8.09563C53.4092 8.09563 53.9747 8.22956 54.4732 8.49742C54.9717 8.75784 55.3624 9.11871 55.6451 9.58002C55.9279 10.0413 56.0692 10.5771 56.0692 11.1872C56.0692 11.7824 55.9279 12.3144 55.6451 12.7832C55.3624 13.2445 54.9717 13.6091 54.4732 13.8769C53.9747 14.1448 53.4092 14.2787 52.7768 14.2787ZM52.7768 12.8502C53.067 12.8502 53.3274 12.7832 53.558 12.6493C53.7887 12.5153 53.971 12.3256 54.1049 12.0801C54.2389 11.8271 54.3058 11.5295 54.3058 11.1872C54.3058 10.8375 54.2389 10.5399 54.1049 10.2943C53.971 10.0488 53.7887 9.85905 53.558 9.72512C53.3274 9.59119 53.067 9.52422 52.7768 9.52422C52.4866 9.52422 52.2262 9.59119 51.9955 9.72512C51.7649 9.85905 51.5788 10.0488 51.4375 10.2943C51.3035 10.5399 51.2366 10.8375 51.2366 11.1872C51.2366 11.5295 51.3035 11.8271 51.4375 12.0801C51.5788 12.3256 51.7649 12.5153 51.9955 12.6493C52.2262 12.7832 52.4866 12.8502 52.7768 12.8502ZM60.7822 14.2787C60.2762 14.2787 59.8335 14.1671 59.454 13.9439C59.0745 13.7207 58.7769 13.3822 58.5611 12.9283C58.3528 12.467 58.2486 11.8866 58.2486 11.1872C58.2486 10.4803 58.3491 9.89997 58.55 9.44609C58.7509 8.99222 59.0411 8.65367 59.4205 8.43046C59.8 8.20724 60.2539 8.09563 60.7822 8.09563C61.3476 8.09563 61.8536 8.22584 62.3 8.48626C62.7539 8.73924 63.1111 9.09639 63.3715 9.5577C63.6393 10.019 63.7733 10.5622 63.7733 11.1872C63.7733 11.8196 63.6393 12.3665 63.3715 12.8278C63.1111 13.2891 62.7539 13.6463 62.3 13.8993C61.8536 14.1523 61.3476 14.2787 60.7822 14.2787ZM57.233 16.3547V8.18492H58.896V9.41261L58.8625 11.1983L58.9741 12.9729V16.3547H57.233ZM60.4808 12.8502C60.771 12.8502 61.0277 12.7832 61.2509 12.6493C61.4816 12.5153 61.6639 12.3256 61.7978 12.0801C61.9392 11.8271 62.0098 11.5295 62.0098 11.1872C62.0098 10.8375 61.9392 10.5399 61.7978 10.2943C61.6639 10.0488 61.4816 9.85905 61.2509 9.72512C61.0277 9.59119 60.771 9.52422 60.4808 9.52422C60.1906 9.52422 59.9302 9.59119 59.6996 9.72512C59.4689 9.85905 59.2866 10.0488 59.1527 10.2943C59.0187 10.5399 58.9518 10.8375 58.9518 11.1872C58.9518 11.5295 59.0187 11.8271 59.1527 12.0801C59.2866 12.3256 59.4689 12.5153 59.6996 12.6493C59.9302 12.7832 60.1906 12.8502 60.4808 12.8502Z" fill="black"/>
<path d="M44.7529 29.8105V22.3951L45.1071 22.7714H42.9268V22.0631H45.5498V29.8105H44.7529ZM50.5782 29.877C49.892 29.877 49.3128 29.7257 48.8406 29.4232C48.3684 29.1133 48.0105 28.6706 47.767 28.095C47.5235 27.5121 47.4018 26.8149 47.4018 26.0032C47.4018 25.1252 47.5493 24.391 47.8445 23.8007C48.147 23.2031 48.5639 22.753 49.0951 22.4505C49.6264 22.148 50.2425 21.9967 50.9435 21.9967C51.2902 21.9967 51.6223 22.0299 51.9396 22.0963C52.2568 22.1627 52.5372 22.2697 52.7807 22.4173L52.4597 23.0592C52.2605 22.9264 52.0318 22.8342 51.7735 22.7825C51.5153 22.7235 51.2423 22.694 50.9545 22.694C50.1207 22.694 49.453 22.9596 48.9513 23.4909C48.4569 24.0221 48.2097 24.8153 48.2097 25.8704C48.2097 26.0327 48.2171 26.2357 48.2318 26.4791C48.254 26.7153 48.2983 26.9514 48.3647 27.1875L48.088 26.9772C48.1691 26.5935 48.3278 26.2689 48.5639 26.0032C48.8 25.7302 49.0951 25.5236 49.4493 25.3834C49.8035 25.2432 50.1908 25.1732 50.6114 25.1732C51.1279 25.1732 51.5817 25.2691 51.9728 25.4609C52.3638 25.6528 52.67 25.9221 52.8914 26.2689C53.1127 26.6157 53.2234 27.0252 53.2234 27.4974C53.2234 27.977 53.109 28.3976 52.8803 28.7591C52.6516 29.1133 52.3343 29.39 51.9285 29.5892C51.53 29.781 51.08 29.877 50.5782 29.877ZM50.545 29.2018C50.9139 29.2018 51.2386 29.1354 51.519 29.0026C51.8067 28.8624 52.0318 28.6669 52.1941 28.416C52.3564 28.1578 52.4376 27.8589 52.4376 27.5195C52.4376 27.0104 52.2605 26.6046 51.9063 26.3021C51.5596 25.9995 51.0873 25.8483 50.4897 25.8483C50.0912 25.8483 49.7444 25.9221 49.4493 26.0696C49.1542 26.2172 48.9217 26.4201 48.752 26.6784C48.5823 26.9292 48.4975 27.217 48.4975 27.5417C48.4975 27.822 48.575 28.0914 48.7299 28.3496C48.8848 28.6005 49.1136 28.8071 49.4161 28.9694C49.726 29.1243 50.1023 29.2018 50.545 29.2018ZM55.4965 29.8105V22.3951L55.8506 22.7714H53.6703V22.0631H56.2933V29.8105H55.4965ZM58.7429 29.8659C58.5806 29.8659 58.4404 29.8069 58.3224 29.6888C58.2117 29.5707 58.1564 29.4269 58.1564 29.2572C58.1564 29.0801 58.2117 28.9362 58.3224 28.8255C58.4404 28.7148 58.5806 28.6595 58.7429 28.6595C58.9053 28.6595 59.0418 28.7148 59.1525 28.8255C59.2705 28.9362 59.3295 29.0801 59.3295 29.2572C59.3295 29.4269 59.2705 29.5707 59.1525 29.6888C59.0418 29.8069 58.9053 29.8659 58.7429 29.8659ZM62.9367 29.877C62.3833 29.877 61.8557 29.7884 61.354 29.6113C60.8522 29.4269 60.4538 29.1834 60.1587 28.8809L60.546 28.25C60.7895 28.5082 61.1216 28.7222 61.5421 28.8919C61.9701 29.0616 62.4312 29.1465 62.9256 29.1465C63.5823 29.1465 64.0803 29.0026 64.4198 28.7148C64.7665 28.4197 64.9399 28.036 64.9399 27.5638C64.9399 27.2318 64.8588 26.9477 64.6964 26.7116C64.5415 26.4681 64.2759 26.2799 63.8996 26.1471C63.5233 26.0143 63.0068 25.9479 62.3501 25.9479H60.701L61.0994 22.0631H65.3384V22.7714H61.4204L61.8299 22.3841L61.4868 25.638L61.0773 25.2396H62.5272C63.3093 25.2396 63.9365 25.3355 64.4087 25.5273C64.8809 25.7192 65.2203 25.9885 65.4269 26.3353C65.6409 26.6747 65.7479 27.0731 65.7479 27.5306C65.7479 27.9659 65.6446 28.3644 65.438 28.7259C65.2314 29.0801 64.9215 29.3605 64.5083 29.5671C64.0951 29.7737 63.5712 29.877 62.9367 29.877ZM77.4368 23.9446C77.9091 23.9446 78.3186 24.0369 78.6654 24.2213C79.0195 24.3984 79.2925 24.6714 79.4844 25.0403C79.6836 25.4093 79.7832 25.8741 79.7832 26.4349V29.8105H78.9974V26.5124C78.9974 25.8999 78.8498 25.4388 78.5547 25.1289C78.2669 24.8116 77.8574 24.653 77.3262 24.653C76.9277 24.653 76.5809 24.7378 76.2858 24.9075C75.998 25.0699 75.773 25.3097 75.6106 25.6269C75.4557 25.9368 75.3782 26.3131 75.3782 26.7558V29.8105H74.5924V26.5124C74.5924 25.8999 74.4448 25.4388 74.1497 25.1289C73.8546 24.8116 73.4414 24.653 72.9101 24.653C72.5191 24.653 72.176 24.7378 71.8808 24.9075C71.5857 25.0699 71.3569 25.3097 71.1946 25.6269C71.0397 25.9368 70.9622 26.3131 70.9622 26.7558V29.8105H70.1764V24H70.929V25.5716L70.8072 25.2949C70.9843 24.8743 71.2684 24.546 71.6595 24.3099C72.0579 24.0664 72.5264 23.9446 73.0651 23.9446C73.6332 23.9446 74.1165 24.0885 74.5149 24.3763C74.9134 24.6567 75.1716 25.0809 75.2897 25.6491L74.9798 25.5273C75.1495 25.0551 75.4483 24.6751 75.8763 24.3873C76.3116 24.0922 76.8318 23.9446 77.4368 23.9446ZM89.1747 23.9446C89.6469 23.9446 90.0565 24.0369 90.4032 24.2213C90.7574 24.3984 91.0304 24.6714 91.2223 25.0403C91.4215 25.4093 91.5211 25.8741 91.5211 26.4349V29.8105H90.7353V26.5124C90.7353 25.8999 90.5877 25.4388 90.2926 25.1289C90.0048 24.8116 89.5953 24.653 89.064 24.653C88.6656 24.653 88.3188 24.7378 88.0237 24.9075C87.7359 25.0699 87.5109 25.3097 87.3485 25.6269C87.1936 25.9368 87.1161 26.3131 87.1161 26.7558V29.8105H86.3303V26.5124C86.3303 25.8999 86.1827 25.4388 85.8876 25.1289C85.5925 24.8116 85.1793 24.653 84.648 24.653C84.2569 24.653 83.9138 24.7378 83.6187 24.9075C83.3236 25.0699 83.0948 25.3097 82.9325 25.6269C82.7775 25.9368 82.7001 26.3131 82.7001 26.7558V29.8105H81.9143V24H82.6669V25.5716L82.5451 25.2949C82.7222 24.8743 83.0063 24.546 83.3973 24.3099C83.7958 24.0664 84.2643 23.9446 84.8029 23.9446C85.3711 23.9446 85.8544 24.0885 86.2528 24.3763C86.6513 24.6567 86.9095 25.0809 87.0276 25.6491L86.7177 25.5273C86.8874 25.0551 87.1862 24.6751 87.6142 24.3873C88.0495 24.0922 88.5697 23.9446 89.1747 23.9446Z" fill="black"/>
</svg>
