<svg width="342" height="53" viewBox="0 0 342 53" fill="none" xmlns="http://www.w3.org/2000/svg">
<path d="M127.085 37.4498L127.055 16.9698L129.299 19.2051L122.579 19.2192L122.573 15.0592L132.237 15.0389L132.269 37.4389L127.085 37.4498ZM139.616 37.4235L139.587 16.9435L141.83 19.1788L135.11 19.1929L135.104 15.0329L144.768 15.0126L144.8 37.4126L139.616 37.4235ZM156.308 37.7724C154.75 37.7757 153.203 37.5762 151.667 37.1741C150.152 36.7507 148.849 36.1561 147.76 35.3903L149.803 31.418C150.657 32.0349 151.639 32.5235 152.749 32.8839C153.88 33.2441 155.021 33.4231 156.173 33.4207C157.475 33.4179 158.498 33.1598 159.244 32.6462C159.99 32.1326 160.363 31.4172 160.361 30.4999C160.36 29.9239 160.21 29.4122 159.911 28.9648C159.612 28.5174 159.078 28.1772 158.31 27.9442C157.563 27.7111 156.506 27.5959 155.141 27.5988L149.413 27.6109L150.547 15.0004L164.211 14.9717L164.217 19.1317L152.409 19.1565L155.094 16.7829L154.307 25.7766L151.615 23.4142L156.351 23.4043C158.57 23.3996 160.352 23.7052 161.696 24.321C163.063 24.9155 164.056 25.7347 164.676 26.7788C165.296 27.8228 165.607 29.0062 165.609 30.3288C165.611 31.6515 165.282 32.8789 164.622 34.0109C163.963 35.1216 162.94 36.0304 161.554 36.7374C160.19 37.4229 158.441 37.7679 156.308 37.7724ZM177.841 37.3431L177.816 20.1272L182.584 20.1171L182.591 24.8211L181.693 23.447C182.289 22.2724 183.13 21.3853 184.217 20.7857C185.326 20.1647 186.584 19.8527 187.992 19.8498C189.571 19.8465 190.947 20.2489 192.122 21.0571C193.317 21.8439 194.108 23.0583 194.495 24.7001L192.734 24.2238C193.308 22.8786 194.224 21.81 195.482 21.018C196.76 20.226 198.221 19.8283 199.864 19.8248C201.229 19.822 202.435 20.0968 203.481 20.6492C204.548 21.1803 205.382 22.0106 205.981 23.14C206.601 24.248 206.912 25.6767 206.915 27.426L206.929 37.282L201.937 37.2925L201.924 28.2045C201.922 26.8178 201.632 25.7944 201.055 25.1343C200.478 24.4742 199.667 24.1452 198.622 24.1474C197.897 24.149 197.246 24.321 196.671 24.6635C196.095 24.9847 195.648 25.4764 195.329 26.1384C195.01 26.8004 194.851 27.6434 194.852 28.6674L194.865 37.3074L189.873 37.3179L189.86 28.2299C189.858 26.8432 189.568 25.8198 188.991 25.1597C188.436 24.4995 187.635 24.1705 186.59 24.1727C185.865 24.1742 185.214 24.3463 184.639 24.6888C184.063 25.01 183.616 25.5016 183.297 26.1636C182.978 26.8257 182.819 27.6687 182.82 28.6927L182.833 37.3326L177.841 37.3431ZM211.403 37.2726L211.369 13.5286L216.361 13.5181L216.395 37.2621L211.403 37.2726Z" fill="black"/>
</svg>
