<svg width="432" height="43" viewBox="0 0 432 43" fill="none" xmlns="http://www.w3.org/2000/svg">
<path d="M5.67073 16.112C4.92406 16.112 4.21006 16 3.52873 15.776C2.84739 15.5427 2.31073 15.244 1.91873 14.88L2.43673 13.788C2.81006 14.1147 3.28606 14.3853 3.86473 14.6C4.44339 14.8147 5.04539 14.922 5.67073 14.922C6.24006 14.922 6.70206 14.8567 7.05673 14.726C7.41139 14.5953 7.67273 14.418 7.84073 14.194C8.00873 13.9607 8.09273 13.6993 8.09273 13.41C8.09273 13.074 7.98073 12.8033 7.75673 12.598C7.54206 12.3927 7.25739 12.2293 6.90273 12.108C6.55739 11.9773 6.17473 11.8653 5.75473 11.772C5.33473 11.6787 4.91006 11.5713 4.48073 11.45C4.06073 11.3193 3.67339 11.156 3.31873 10.96C2.97339 10.764 2.69339 10.5027 2.47873 10.176C2.26406 9.84 2.15673 9.41067 2.15673 8.888C2.15673 8.384 2.28739 7.922 2.54873 7.502C2.81939 7.07267 3.23006 6.732 3.78073 6.48C4.34073 6.21867 5.05006 6.088 5.90873 6.088C6.47806 6.088 7.04273 6.16267 7.60273 6.312C8.16273 6.46133 8.64806 6.676 9.05873 6.956L8.59673 8.076C8.17673 7.796 7.73339 7.59533 7.26673 7.474C6.80006 7.34333 6.34739 7.278 5.90873 7.278C5.35806 7.278 4.90539 7.348 4.55073 7.488C4.19606 7.628 3.93473 7.81467 3.76673 8.048C3.60806 8.28133 3.52873 8.54267 3.52873 8.832C3.52873 9.17733 3.63606 9.45267 3.85073 9.658C4.07473 9.86333 4.35939 10.0267 4.70473 10.148C5.05939 10.2693 5.44673 10.3813 5.86673 10.484C6.28673 10.5773 6.70673 10.6847 7.12673 10.806C7.55606 10.9273 7.94339 11.086 8.28873 11.282C8.64339 11.478 8.92806 11.7393 9.14273 12.066C9.35739 12.3927 9.46473 12.8127 9.46473 13.326C9.46473 13.8207 9.32939 14.2827 9.05873 14.712C8.78806 15.132 8.36806 15.4727 7.79873 15.734C7.23873 15.986 6.52939 16.112 5.67073 16.112ZM13.862 16.084C13.1154 16.084 12.5367 15.8833 12.126 15.482C11.7154 15.0807 11.51 14.5067 11.51 13.76V6.956H12.854V13.704C12.854 14.1053 12.952 14.4133 13.148 14.628C13.3534 14.8427 13.6427 14.95 14.016 14.95C14.436 14.95 14.786 14.8333 15.066 14.6L15.486 15.566C15.2807 15.7433 15.0334 15.874 14.744 15.958C14.464 16.042 14.17 16.084 13.862 16.084ZM10.25 9.686V8.58H14.982V9.686H10.25ZM17.1109 16V8.58H18.3989V10.596L18.2729 10.092C18.4782 9.57867 18.8236 9.18667 19.3089 8.916C19.7942 8.64533 20.3916 8.51 21.1009 8.51V9.812C21.0449 9.80267 20.9889 9.798 20.9329 9.798C20.8862 9.798 20.8396 9.798 20.7929 9.798C20.0742 9.798 19.5049 10.0127 19.0849 10.442C18.6649 10.8713 18.4549 11.492 18.4549 12.304V16H17.1109ZM25.867 16.084C25.1204 16.084 24.4577 15.9207 23.879 15.594C23.3004 15.2673 22.843 14.8193 22.507 14.25C22.171 13.6713 22.003 13.018 22.003 12.29C22.003 11.5527 22.171 10.8993 22.507 10.33C22.843 9.76067 23.3004 9.31733 23.879 9C24.4577 8.67333 25.1204 8.51 25.867 8.51C26.6044 8.51 27.2624 8.67333 27.841 9C28.429 9.31733 28.8864 9.76067 29.213 10.33C29.549 10.89 29.717 11.5433 29.717 12.29C29.717 13.0273 29.549 13.6807 29.213 14.25C28.8864 14.8193 28.429 15.2673 27.841 15.594C27.2624 15.9207 26.6044 16.084 25.867 16.084ZM25.867 14.908C26.343 14.908 26.7677 14.8007 27.141 14.586C27.5237 14.3713 27.8224 14.068 28.037 13.676C28.2517 13.2747 28.359 12.8127 28.359 12.29C28.359 11.758 28.2517 11.3007 28.037 10.918C27.8224 10.526 27.5237 10.2227 27.141 10.008C26.7677 9.79333 26.343 9.686 25.867 9.686C25.391 9.686 24.9664 9.79333 24.593 10.008C24.2197 10.2227 23.921 10.526 23.697 10.918C23.473 11.3007 23.361 11.758 23.361 12.29C23.361 12.8127 23.473 13.2747 23.697 13.676C23.921 14.068 24.2197 14.3713 24.593 14.586C24.9664 14.8007 25.391 14.908 25.867 14.908ZM31.5758 16V8.58H32.8638V10.582L32.6538 10.05C32.8964 9.56467 33.2698 9.18667 33.7738 8.916C34.2778 8.64533 34.8658 8.51 35.5378 8.51C36.1444 8.51 36.6764 8.62667 37.1338 8.86C37.6004 9.09333 37.9644 9.448 38.2258 9.924C38.4871 10.4 38.6178 11.002 38.6178 11.73V16H37.2738V11.884C37.2738 11.1653 37.0964 10.624 36.7418 10.26C36.3964 9.896 35.9064 9.714 35.2718 9.714C34.7958 9.714 34.3804 9.80733 34.0258 9.994C33.6711 10.1807 33.3958 10.456 33.1998 10.82C33.0131 11.184 32.9198 11.6367 32.9198 12.178V16H31.5758ZM44.3531 18.8C43.6717 18.8 43.0091 18.702 42.3651 18.506C41.7304 18.3193 41.2124 18.0487 40.8111 17.694L41.4551 16.658C41.8004 16.9567 42.2251 17.19 42.7291 17.358C43.2331 17.5353 43.7604 17.624 44.3111 17.624C45.1884 17.624 45.8324 17.4187 46.2431 17.008C46.6537 16.5973 46.8591 15.972 46.8591 15.132V13.564L46.9991 12.094L46.9291 10.61V8.58H48.2031V14.992C48.2031 16.2987 47.8764 17.26 47.2231 17.876C46.5697 18.492 45.6131 18.8 44.3531 18.8ZM44.1851 15.692C43.4664 15.692 42.8224 15.5427 42.2531 15.244C41.6931 14.936 41.2451 14.5113 40.9091 13.97C40.5824 13.4287 40.4191 12.8033 40.4191 12.094C40.4191 11.3753 40.5824 10.75 40.9091 10.218C41.2451 9.67667 41.6931 9.25667 42.2531 8.958C42.8224 8.65933 43.4664 8.51 44.1851 8.51C44.8197 8.51 45.3984 8.64067 45.9211 8.902C46.4437 9.154 46.8591 9.546 47.1671 10.078C47.4844 10.61 47.6431 11.282 47.6431 12.094C47.6431 12.8967 47.4844 13.564 47.1671 14.096C46.8591 14.628 46.4437 15.0293 45.9211 15.3C45.3984 15.5613 44.8197 15.692 44.1851 15.692ZM44.3391 14.516C44.8337 14.516 45.2724 14.4133 45.6551 14.208C46.0377 14.0027 46.3364 13.718 46.5511 13.354C46.7751 12.99 46.8871 12.57 46.8871 12.094C46.8871 11.618 46.7751 11.198 46.5511 10.834C46.3364 10.47 46.0377 10.19 45.6551 9.994C45.2724 9.78867 44.8337 9.686 44.3391 9.686C43.8444 9.686 43.4011 9.78867 43.0091 9.994C42.6264 10.19 42.3231 10.47 42.0991 10.834C41.8844 11.198 41.7771 11.618 41.7771 12.094C41.7771 12.57 41.8844 12.99 42.0991 13.354C42.3231 13.718 42.6264 14.0027 43.0091 14.208C43.4011 14.4133 43.8444 14.516 44.3391 14.516ZM59.1368 16V14.432L59.0668 14.138V11.464C59.0668 10.8947 58.8988 10.456 58.5628 10.148C58.2362 9.83067 57.7415 9.672 57.0788 9.672C56.6402 9.672 56.2108 9.74667 55.7908 9.896C55.3708 10.036 55.0162 10.2273 54.7268 10.47L54.1668 9.462C54.5495 9.154 55.0068 8.92067 55.5388 8.762C56.0802 8.594 56.6448 8.51 57.2328 8.51C58.2502 8.51 59.0342 8.75733 59.5848 9.252C60.1355 9.74667 60.4108 10.5027 60.4108 11.52V16H59.1368ZM56.7008 16.084C56.1502 16.084 55.6648 15.9907 55.2448 15.804C54.8342 15.6173 54.5168 15.3607 54.2928 15.034C54.0688 14.698 53.9568 14.32 53.9568 13.9C53.9568 13.4987 54.0502 13.1347 54.2368 12.808C54.4328 12.4813 54.7455 12.22 55.1748 12.024C55.6135 11.828 56.2015 11.73 56.9388 11.73H59.2908V12.696H56.9948C56.3228 12.696 55.8702 12.808 55.6368 13.032C55.4035 13.256 55.2868 13.5267 55.2868 13.844C55.2868 14.208 55.4315 14.502 55.7208 14.726C56.0102 14.9407 56.4115 15.048 56.9248 15.048C57.4288 15.048 57.8675 14.936 58.2408 14.712C58.6235 14.488 58.8988 14.1613 59.0668 13.732L59.3328 14.656C59.1555 15.0947 58.8428 15.4447 58.3948 15.706C57.9468 15.958 57.3822 16.084 56.7008 16.084ZM62.898 16V8.58H64.186V10.582L63.976 10.05C64.2187 9.56467 64.592 9.18667 65.096 8.916C65.6 8.64533 66.188 8.51 66.86 8.51C67.4667 8.51 67.9987 8.62667 68.456 8.86C68.9227 9.09333 69.2867 9.448 69.548 9.924C69.8094 10.4 69.94 11.002 69.94 11.73V16H68.596V11.884C68.596 11.1653 68.4187 10.624 68.064 10.26C67.7187 9.896 67.2287 9.714 66.594 9.714C66.118 9.714 65.7027 9.80733 65.348 9.994C64.9934 10.1807 64.718 10.456 64.522 10.82C64.3354 11.184 64.242 11.6367 64.242 12.178V16H62.898ZM75.4933 16.084C74.7747 16.084 74.1307 15.9253 73.5613 15.608C73.0013 15.2907 72.558 14.8473 72.2313 14.278C71.9047 13.7087 71.7413 13.046 71.7413 12.29C71.7413 11.534 71.9047 10.876 72.2313 10.316C72.558 9.74667 73.0013 9.30333 73.5613 8.986C74.1307 8.66867 74.7747 8.51 75.4933 8.51C76.1187 8.51 76.6833 8.65 77.1873 8.93C77.6913 9.21 78.0927 9.63 78.3913 10.19C78.6993 10.75 78.8533 11.45 78.8533 12.29C78.8533 13.13 78.704 13.83 78.4053 14.39C78.116 14.95 77.7193 15.3747 77.2153 15.664C76.7113 15.944 76.1373 16.084 75.4933 16.084ZM75.6053 14.908C76.072 14.908 76.492 14.8007 76.8653 14.586C77.248 14.3713 77.5467 14.068 77.7613 13.676C77.9853 13.2747 78.0973 12.8127 78.0973 12.29C78.0973 11.758 77.9853 11.3007 77.7613 10.918C77.5467 10.526 77.248 10.2227 76.8653 10.008C76.492 9.79333 76.072 9.686 75.6053 9.686C75.1293 9.686 74.7047 9.79333 74.3313 10.008C73.958 10.2227 73.6593 10.526 73.4353 10.918C73.2113 11.3007 73.0993 11.758 73.0993 12.29C73.0993 12.8127 73.2113 13.2747 73.4353 13.676C73.6593 14.068 73.958 14.3713 74.3313 14.586C74.7047 14.8007 75.1293 14.908 75.6053 14.908ZM78.1393 16V13.998L78.2233 12.276L78.0833 10.554V5.612H79.4273V16H78.1393ZM85.7301 16V5.612H87.0741V10.582L86.8081 10.05C87.0507 9.56467 87.4241 9.18667 87.9281 8.916C88.4321 8.64533 89.0201 8.51 89.6921 8.51C90.2987 8.51 90.8307 8.62667 91.2881 8.86C91.7547 9.09333 92.1187 9.448 92.3801 9.924C92.6414 10.4 92.7721 11.002 92.7721 11.73V16H91.4281V11.884C91.4281 11.1653 91.2507 10.624 90.8961 10.26C90.5507 9.896 90.0607 9.714 89.4261 9.714C88.9501 9.714 88.5347 9.80733 88.1801 9.994C87.8254 10.1807 87.5501 10.456 87.3541 10.82C87.1674 11.184 87.0741 11.6367 87.0741 12.178V16H85.7301ZM95.3489 18.8C94.9943 18.8 94.6489 18.7393 94.3129 18.618C93.9769 18.506 93.6876 18.338 93.4449 18.114L94.0189 17.106C94.2056 17.2833 94.4109 17.4187 94.6349 17.512C94.8589 17.6053 95.0969 17.652 95.3489 17.652C95.6756 17.652 95.9463 17.568 96.1609 17.4C96.3756 17.232 96.5763 16.9333 96.7629 16.504L97.2249 15.482L97.3649 15.314L100.277 8.58H101.593L97.9949 16.742C97.7803 17.2647 97.5376 17.6753 97.2669 17.974C97.0056 18.2727 96.7163 18.4827 96.3989 18.604C96.0816 18.7347 95.7316 18.8 95.3489 18.8ZM97.1129 16.238L93.7249 8.58H95.1249L98.0089 15.188L97.1129 16.238ZM105.89 18.8C105.209 18.8 104.546 18.702 103.902 18.506C103.267 18.3193 102.749 18.0487 102.348 17.694L102.992 16.658C103.337 16.9567 103.762 17.19 104.266 17.358C104.77 17.5353 105.297 17.624 105.848 17.624C106.725 17.624 107.369 17.4187 107.78 17.008C108.191 16.5973 108.396 15.972 108.396 15.132V13.564L108.536 12.094L108.466 10.61V8.58H109.74V14.992C109.74 16.2987 109.413 17.26 108.76 17.876C108.107 18.492 107.15 18.8 105.89 18.8ZM105.722 15.692C105.003 15.692 104.359 15.5427 103.79 15.244C103.23 14.936 102.782 14.5113 102.446 13.97C102.119 13.4287 101.956 12.8033 101.956 12.094C101.956 11.3753 102.119 10.75 102.446 10.218C102.782 9.67667 103.23 9.25667 103.79 8.958C104.359 8.65933 105.003 8.51 105.722 8.51C106.357 8.51 106.935 8.64067 107.458 8.902C107.981 9.154 108.396 9.546 108.704 10.078C109.021 10.61 109.18 11.282 109.18 12.094C109.18 12.8967 109.021 13.564 108.704 14.096C108.396 14.628 107.981 15.0293 107.458 15.3C106.935 15.5613 106.357 15.692 105.722 15.692ZM105.876 14.516C106.371 14.516 106.809 14.4133 107.192 14.208C107.575 14.0027 107.873 13.718 108.088 13.354C108.312 12.99 108.424 12.57 108.424 12.094C108.424 11.618 108.312 11.198 108.088 10.834C107.873 10.47 107.575 10.19 107.192 9.994C106.809 9.78867 106.371 9.686 105.876 9.686C105.381 9.686 104.938 9.78867 104.546 9.994C104.163 10.19 103.86 10.47 103.636 10.834C103.421 11.198 103.314 11.618 103.314 12.094C103.314 12.57 103.421 12.99 103.636 13.354C103.86 13.718 104.163 14.0027 104.546 14.208C104.938 14.4133 105.381 14.516 105.876 14.516ZM112.308 16V8.58H113.652V16H112.308ZM112.98 7.152C112.719 7.152 112.5 7.068 112.322 6.9C112.154 6.732 112.07 6.52667 112.07 6.284C112.07 6.032 112.154 5.822 112.322 5.654C112.5 5.486 112.719 5.402 112.98 5.402C113.242 5.402 113.456 5.486 113.624 5.654C113.802 5.81267 113.89 6.01333 113.89 6.256C113.89 6.508 113.806 6.72267 113.638 6.9C113.47 7.068 113.251 7.152 112.98 7.152ZM119.522 16.084C118.729 16.084 118.029 15.9207 117.422 15.594C116.825 15.2673 116.358 14.8193 116.022 14.25C115.696 13.6807 115.532 13.0273 115.532 12.29C115.532 11.5527 115.691 10.8993 116.008 10.33C116.335 9.76067 116.778 9.31733 117.338 9C117.908 8.67333 118.547 8.51 119.256 8.51C119.975 8.51 120.61 8.66867 121.16 8.986C121.711 9.30333 122.14 9.75133 122.448 10.33C122.766 10.8993 122.924 11.5667 122.924 12.332C122.924 12.388 122.92 12.4533 122.91 12.528C122.91 12.6027 122.906 12.6727 122.896 12.738H116.582V11.772H122.196L121.65 12.108C121.66 11.632 121.562 11.2073 121.356 10.834C121.151 10.4607 120.866 10.1713 120.502 9.966C120.148 9.75133 119.732 9.644 119.256 9.644C118.79 9.644 118.374 9.75133 118.01 9.966C117.646 10.1713 117.362 10.4653 117.156 10.848C116.951 11.2213 116.848 11.6507 116.848 12.136V12.36C116.848 12.8547 116.96 13.298 117.184 13.69C117.418 14.0727 117.74 14.3713 118.15 14.586C118.561 14.8007 119.032 14.908 119.564 14.908C120.003 14.908 120.4 14.8333 120.754 14.684C121.118 14.5347 121.436 14.3107 121.706 14.012L122.448 14.88C122.112 15.272 121.692 15.5707 121.188 15.776C120.694 15.9813 120.138 16.084 119.522 16.084ZM124.791 16V8.58H126.079V10.582L125.869 10.05C126.111 9.56467 126.485 9.18667 126.989 8.916C127.493 8.64533 128.081 8.51 128.753 8.51C129.359 8.51 129.891 8.62667 130.349 8.86C130.815 9.09333 131.179 9.448 131.441 9.924C131.702 10.4 131.833 11.002 131.833 11.73V16H130.489V11.884C130.489 11.1653 130.311 10.624 129.957 10.26C129.611 9.896 129.121 9.714 128.487 9.714C128.011 9.714 127.595 9.80733 127.241 9.994C126.886 10.1807 126.611 10.456 126.415 10.82C126.228 11.184 126.135 11.6367 126.135 12.178V16H124.791ZM134.32 16V8.58H135.664V16H134.32ZM134.992 7.152C134.731 7.152 134.511 7.068 134.334 6.9C134.166 6.732 134.082 6.52667 134.082 6.284C134.082 6.032 134.166 5.822 134.334 5.654C134.511 5.486 134.731 5.402 134.992 5.402C135.253 5.402 135.468 5.486 135.636 5.654C135.813 5.81267 135.902 6.01333 135.902 6.256C135.902 6.508 135.818 6.72267 135.65 6.9C135.482 7.068 135.263 7.152 134.992 7.152ZM141.464 16.084C140.708 16.084 140.031 15.9207 139.434 15.594C138.846 15.2673 138.384 14.8193 138.048 14.25C137.712 13.6807 137.544 13.0273 137.544 12.29C137.544 11.5527 137.712 10.8993 138.048 10.33C138.384 9.76067 138.846 9.31733 139.434 9C140.031 8.67333 140.708 8.51 141.464 8.51C142.136 8.51 142.733 8.64533 143.256 8.916C143.788 9.17733 144.199 9.56933 144.488 10.092L143.466 10.75C143.223 10.386 142.925 10.12 142.57 9.952C142.225 9.77467 141.851 9.686 141.45 9.686C140.965 9.686 140.531 9.79333 140.148 10.008C139.765 10.2227 139.462 10.526 139.238 10.918C139.014 11.3007 138.902 11.758 138.902 12.29C138.902 12.822 139.014 13.284 139.238 13.676C139.462 14.068 139.765 14.3713 140.148 14.586C140.531 14.8007 140.965 14.908 141.45 14.908C141.851 14.908 142.225 14.824 142.57 14.656C142.925 14.4787 143.223 14.208 143.466 13.844L144.488 14.488C144.199 15.0013 143.788 15.398 143.256 15.678C142.733 15.9487 142.136 16.084 141.464 16.084ZM150.184 16V6.2H151.584V16H150.184ZM154.518 16V6.2H155.666L160.062 13.606H159.446L163.786 6.2H164.934L164.948 16H163.604L163.59 8.314H163.912L160.048 14.81H159.404L155.512 8.314H155.862V16H154.518ZM167.889 16V6.2H169.289V14.782H174.595V16H167.889ZM179.961 16V6.2H183.783C185.053 6.2 186.051 6.50333 186.779 7.11C187.507 7.70733 187.871 8.54267 187.871 9.616C187.871 10.3253 187.708 10.9367 187.381 11.45C187.055 11.954 186.588 12.3413 185.981 12.612C185.375 12.8827 184.642 13.018 183.783 13.018H180.731L181.361 12.374V16H179.961ZM186.513 16L184.021 12.444H185.519L188.039 16H186.513ZM181.361 12.514L180.731 11.828H183.741C184.637 11.828 185.314 11.6367 185.771 11.254C186.238 10.862 186.471 10.316 186.471 9.616C186.471 8.916 186.238 8.37467 185.771 7.992C185.314 7.60933 184.637 7.418 183.741 7.418H180.731L181.361 6.718V12.514ZM193.115 16.084C192.368 16.084 191.706 15.9207 191.127 15.594C190.548 15.2673 190.091 14.8193 189.755 14.25C189.419 13.6713 189.251 13.018 189.251 12.29C189.251 11.5527 189.419 10.8993 189.755 10.33C190.091 9.76067 190.548 9.31733 191.127 9C191.706 8.67333 192.368 8.51 193.115 8.51C193.852 8.51 194.51 8.67333 195.089 9C195.677 9.31733 196.134 9.76067 196.461 10.33C196.797 10.89 196.965 11.5433 196.965 12.29C196.965 13.0273 196.797 13.6807 196.461 14.25C196.134 14.8193 195.677 15.2673 195.089 15.594C194.51 15.9207 193.852 16.084 193.115 16.084ZM193.115 14.908C193.591 14.908 194.016 14.8007 194.389 14.586C194.772 14.3713 195.07 14.068 195.285 13.676C195.5 13.2747 195.607 12.8127 195.607 12.29C195.607 11.758 195.5 11.3007 195.285 10.918C195.07 10.526 194.772 10.2227 194.389 10.008C194.016 9.79333 193.591 9.686 193.115 9.686C192.639 9.686 192.214 9.79333 191.841 10.008C191.468 10.2227 191.169 10.526 190.945 10.918C190.721 11.3007 190.609 11.758 190.609 12.29C190.609 12.8127 190.721 13.2747 190.945 13.676C191.169 14.068 191.468 14.3713 191.841 14.586C192.214 14.8007 192.639 14.908 193.115 14.908ZM201.946 16.084C201.311 16.084 200.751 15.9673 200.266 15.734C199.79 15.5007 199.416 15.146 199.146 14.67C198.884 14.1847 198.754 13.578 198.754 12.85V8.58H200.098V12.696C200.098 13.424 200.27 13.97 200.616 14.334C200.97 14.698 201.465 14.88 202.1 14.88C202.566 14.88 202.972 14.7867 203.318 14.6C203.663 14.404 203.929 14.124 204.116 13.76C204.302 13.3867 204.396 12.9387 204.396 12.416V8.58H205.74V16H204.466V13.998L204.676 14.53C204.433 15.0247 204.069 15.4073 203.584 15.678C203.098 15.9487 202.552 16.084 201.946 16.084ZM208.298 16V8.58H209.586V10.582L209.376 10.05C209.619 9.56467 209.992 9.18667 210.496 8.916C211 8.64533 211.588 8.51 212.26 8.51C212.867 8.51 213.399 8.62667 213.856 8.86C214.323 9.09333 214.687 9.448 214.948 9.924C215.21 10.4 215.34 11.002 215.34 11.73V16H213.996V11.884C213.996 11.1653 213.819 10.624 213.464 10.26C213.119 9.896 212.629 9.714 211.994 9.714C211.518 9.714 211.103 9.80733 210.748 9.994C210.394 10.1807 210.118 10.456 209.922 10.82C209.736 11.184 209.642 11.6367 209.642 12.178V16H208.298ZM220.894 16.084C220.175 16.084 219.531 15.9253 218.962 15.608C218.402 15.2907 217.958 14.8473 217.632 14.278C217.305 13.7087 217.142 13.046 217.142 12.29C217.142 11.534 217.305 10.876 217.632 10.316C217.958 9.74667 218.402 9.30333 218.962 8.986C219.531 8.66867 220.175 8.51 220.894 8.51C221.519 8.51 222.084 8.65 222.588 8.93C223.092 9.21 223.493 9.63 223.792 10.19C224.1 10.75 224.254 11.45 224.254 12.29C224.254 13.13 224.104 13.83 223.806 14.39C223.516 14.95 223.12 15.3747 222.616 15.664C222.112 15.944 221.538 16.084 220.894 16.084ZM221.006 14.908C221.472 14.908 221.892 14.8007 222.266 14.586C222.648 14.3713 222.947 14.068 223.162 13.676C223.386 13.2747 223.498 12.8127 223.498 12.29C223.498 11.758 223.386 11.3007 223.162 10.918C222.947 10.526 222.648 10.2227 222.266 10.008C221.892 9.79333 221.472 9.686 221.006 9.686C220.53 9.686 220.105 9.79333 219.732 10.008C219.358 10.2227 219.06 10.526 218.836 10.918C218.612 11.3007 218.5 11.758 218.5 12.29C218.5 12.8127 218.612 13.2747 218.836 13.676C219.06 14.068 219.358 14.3713 219.732 14.586C220.105 14.8007 220.53 14.908 221.006 14.908ZM223.54 16V13.998L223.624 12.276L223.484 10.554V5.612H224.828V16H223.54ZM234.364 16.084C233.608 16.084 232.932 15.9207 232.334 15.594C231.746 15.2673 231.284 14.8193 230.948 14.25C230.612 13.6807 230.444 13.0273 230.444 12.29C230.444 11.5527 230.612 10.8993 230.948 10.33C231.284 9.76067 231.746 9.31733 232.334 9C232.932 8.67333 233.608 8.51 234.364 8.51C235.036 8.51 235.634 8.64533 236.156 8.916C236.688 9.17733 237.099 9.56933 237.388 10.092L236.366 10.75C236.124 10.386 235.825 10.12 235.47 9.952C235.125 9.77467 234.752 9.686 234.35 9.686C233.865 9.686 233.431 9.79333 233.048 10.008C232.666 10.2227 232.362 10.526 232.138 10.918C231.914 11.3007 231.802 11.758 231.802 12.29C231.802 12.822 231.914 13.284 232.138 13.676C232.362 14.068 232.666 14.3713 233.048 14.586C233.431 14.8007 233.865 14.908 234.35 14.908C234.752 14.908 235.125 14.824 235.47 14.656C235.825 14.4787 236.124 14.208 236.366 13.844L237.388 14.488C237.099 15.0013 236.688 15.398 236.156 15.678C235.634 15.9487 235.036 16.084 234.364 16.084ZM242.25 16.084C241.616 16.084 241.056 15.9673 240.57 15.734C240.094 15.5007 239.721 15.146 239.45 14.67C239.189 14.1847 239.058 13.578 239.058 12.85V8.58H240.402V12.696C240.402 13.424 240.575 13.97 240.92 14.334C241.275 14.698 241.77 14.88 242.404 14.88C242.871 14.88 243.277 14.7867 243.622 14.6C243.968 14.404 244.234 14.124 244.42 13.76C244.607 13.3867 244.7 12.9387 244.7 12.416V8.58H246.044V16H244.77V13.998L244.98 14.53C244.738 15.0247 244.374 15.4073 243.888 15.678C243.403 15.9487 242.857 16.084 242.25 16.084ZM252.537 16.084C251.921 16.084 251.356 15.944 250.843 15.664C250.339 15.3747 249.933 14.95 249.625 14.39C249.326 13.83 249.177 13.13 249.177 12.29C249.177 11.45 249.322 10.75 249.611 10.19C249.91 9.63 250.311 9.21 250.815 8.93C251.328 8.65 251.902 8.51 252.537 8.51C253.265 8.51 253.909 8.66867 254.469 8.986C255.029 9.30333 255.472 9.74667 255.799 10.316C256.126 10.876 256.289 11.534 256.289 12.29C256.289 13.046 256.126 13.7087 255.799 14.278C255.472 14.8473 255.029 15.2907 254.469 15.608C253.909 15.9253 253.265 16.084 252.537 16.084ZM248.603 18.716V8.58H249.891V10.582L249.807 12.304L249.947 14.026V18.716H248.603ZM252.425 14.908C252.901 14.908 253.326 14.8007 253.699 14.586C254.082 14.3713 254.38 14.068 254.595 13.676C254.819 13.2747 254.931 12.8127 254.931 12.29C254.931 11.758 254.819 11.3007 254.595 10.918C254.38 10.526 254.082 10.2227 253.699 10.008C253.326 9.79333 252.901 9.686 252.425 9.686C251.958 9.686 251.534 9.79333 251.151 10.008C250.778 10.2227 250.479 10.526 250.255 10.918C250.04 11.3007 249.933 11.758 249.933 12.29C249.933 12.8127 250.04 13.2747 250.255 13.676C250.479 14.068 250.778 14.3713 251.151 14.586C251.534 14.8007 251.958 14.908 252.425 14.908ZM263.474 16L260.716 8.58H261.99L264.44 15.3H263.838L266.386 8.58H267.52L270.012 15.3H269.424L271.93 8.58H273.134L270.362 16H269.074L266.736 9.868H267.128L264.762 16H263.474ZM274.498 16V8.58H275.842V16H274.498ZM275.17 7.152C274.908 7.152 274.689 7.068 274.512 6.9C274.344 6.732 274.26 6.52667 274.26 6.284C274.26 6.032 274.344 5.822 274.512 5.654C274.689 5.486 274.908 5.402 275.17 5.402C275.431 5.402 275.646 5.486 275.814 5.654C275.991 5.81267 276.08 6.01333 276.08 6.256C276.08 6.508 275.996 6.72267 275.828 6.9C275.66 7.068 275.44 7.152 275.17 7.152ZM280.915 16.084C280.168 16.084 279.589 15.8833 279.179 15.482C278.768 15.0807 278.563 14.5067 278.563 13.76V6.956H279.907V13.704C279.907 14.1053 280.005 14.4133 280.201 14.628C280.406 14.8427 280.695 14.95 281.069 14.95C281.489 14.95 281.839 14.8333 282.119 14.6L282.539 15.566C282.333 15.7433 282.086 15.874 281.797 15.958C281.517 16.042 281.223 16.084 280.915 16.084ZM277.303 9.686V8.58H282.035V9.686H277.303ZM284.164 16V5.612H285.508V10.582L285.242 10.05C285.484 9.56467 285.858 9.18667 286.362 8.916C286.866 8.64533 287.454 8.51 288.126 8.51C288.732 8.51 289.264 8.62667 289.722 8.86C290.188 9.09333 290.552 9.448 290.814 9.924C291.075 10.4 291.206 11.002 291.206 11.73V16H289.862V11.884C289.862 11.1653 289.684 10.624 289.33 10.26C288.984 9.896 288.494 9.714 287.86 9.714C287.384 9.714 286.968 9.80733 286.614 9.994C286.259 10.1807 285.984 10.456 285.788 10.82C285.601 11.184 285.508 11.6367 285.508 12.178V16H284.164ZM299.399 16L296.151 8.58H297.551L300.435 15.3H299.763L302.703 8.58H304.019L300.771 16H299.399ZM305.273 16V8.58H306.617V16H305.273ZM305.945 7.152C305.684 7.152 305.464 7.068 305.287 6.9C305.119 6.732 305.035 6.52667 305.035 6.284C305.035 6.032 305.119 5.822 305.287 5.654C305.464 5.486 305.684 5.402 305.945 5.402C306.206 5.402 306.421 5.486 306.589 5.654C306.766 5.81267 306.855 6.01333 306.855 6.256C306.855 6.508 306.771 6.72267 306.603 6.9C306.435 7.068 306.216 7.152 305.945 7.152ZM313.117 16.084C312.483 16.084 311.909 15.944 311.395 15.664C310.891 15.3747 310.49 14.95 310.191 14.39C309.902 13.83 309.757 13.13 309.757 12.29C309.757 11.45 309.907 10.75 310.205 10.19C310.513 9.63 310.919 9.21 311.423 8.93C311.937 8.65 312.501 8.51 313.117 8.51C313.845 8.51 314.489 8.66867 315.049 8.986C315.609 9.30333 316.053 9.74667 316.379 10.316C316.706 10.876 316.869 11.534 316.869 12.29C316.869 13.046 316.706 13.7087 316.379 14.278C316.053 14.8473 315.609 15.2907 315.049 15.608C314.489 15.9253 313.845 16.084 313.117 16.084ZM309.183 16V5.612H310.527V10.554L310.387 12.276L310.471 13.998V16H309.183ZM313.005 14.908C313.481 14.908 313.906 14.8007 314.279 14.586C314.662 14.3713 314.961 14.068 315.175 13.676C315.399 13.2747 315.511 12.8127 315.511 12.29C315.511 11.758 315.399 11.3007 315.175 10.918C314.961 10.526 314.662 10.2227 314.279 10.008C313.906 9.79333 313.481 9.686 313.005 9.686C312.539 9.686 312.114 9.79333 311.731 10.008C311.358 10.2227 311.059 10.526 310.835 10.918C310.621 11.3007 310.513 11.758 310.513 12.29C310.513 12.8127 310.621 13.2747 310.835 13.676C311.059 14.068 311.358 14.3713 311.731 14.586C312.114 14.8007 312.539 14.908 313.005 14.908ZM318.726 16V8.58H320.014V10.596L319.888 10.092C320.093 9.57867 320.439 9.18667 320.924 8.916C321.409 8.64533 322.007 8.51 322.716 8.51V9.812C322.66 9.80267 322.604 9.798 322.548 9.798C322.501 9.798 322.455 9.798 322.408 9.798C321.689 9.798 321.12 10.0127 320.7 10.442C320.28 10.8713 320.07 11.492 320.07 12.304V16H318.726ZM328.459 16V14.432L328.389 14.138V11.464C328.389 10.8947 328.221 10.456 327.885 10.148C327.558 9.83067 327.064 9.672 326.401 9.672C325.962 9.672 325.533 9.74667 325.113 9.896C324.693 10.036 324.338 10.2273 324.049 10.47L323.489 9.462C323.872 9.154 324.329 8.92067 324.861 8.762C325.402 8.594 325.967 8.51 326.555 8.51C327.572 8.51 328.356 8.75733 328.907 9.252C329.458 9.74667 329.733 10.5027 329.733 11.52V16H328.459ZM326.023 16.084C325.472 16.084 324.987 15.9907 324.567 15.804C324.156 15.6173 323.839 15.3607 323.615 15.034C323.391 14.698 323.279 14.32 323.279 13.9C323.279 13.4987 323.372 13.1347 323.559 12.808C323.755 12.4813 324.068 12.22 324.497 12.024C324.936 11.828 325.524 11.73 326.261 11.73H328.613V12.696H326.317C325.645 12.696 325.192 12.808 324.959 13.032C324.726 13.256 324.609 13.5267 324.609 13.844C324.609 14.208 324.754 14.502 325.043 14.726C325.332 14.9407 325.734 15.048 326.247 15.048C326.751 15.048 327.19 14.936 327.563 14.712C327.946 14.488 328.221 14.1613 328.389 13.732L328.655 14.656C328.478 15.0947 328.165 15.4447 327.717 15.706C327.269 15.958 326.704 16.084 326.023 16.084ZM332.22 16V8.58H333.508V10.582L333.298 10.05C333.541 9.56467 333.914 9.18667 334.418 8.916C334.922 8.64533 335.51 8.51 336.182 8.51C336.789 8.51 337.321 8.62667 337.778 8.86C338.245 9.09333 338.609 9.448 338.87 9.924C339.132 10.4 339.262 11.002 339.262 11.73V16H337.918V11.884C337.918 11.1653 337.741 10.624 337.386 10.26C337.041 9.896 336.551 9.714 335.916 9.714C335.44 9.714 335.025 9.80733 334.67 9.994C334.316 10.1807 334.04 10.456 333.844 10.82C333.658 11.184 333.564 11.6367 333.564 12.178V16H332.22ZM344.298 16.084C343.551 16.084 342.972 15.8833 342.562 15.482C342.151 15.0807 341.946 14.5067 341.946 13.76V6.956H343.29V13.704C343.29 14.1053 343.388 14.4133 343.584 14.628C343.789 14.8427 344.078 14.95 344.452 14.95C344.872 14.95 345.222 14.8333 345.502 14.6L345.922 15.566C345.716 15.7433 345.469 15.874 345.18 15.958C344.9 16.042 344.606 16.084 344.298 16.084ZM340.686 9.686V8.58H345.418V9.686H340.686ZM351.306 16V5.612H352.65V16H351.306ZM359.822 16V14.432L359.752 14.138V11.464C359.752 10.8947 359.584 10.456 359.248 10.148C358.922 9.83067 358.427 9.672 357.764 9.672C357.326 9.672 356.896 9.74667 356.476 9.896C356.056 10.036 355.702 10.2273 355.412 10.47L354.852 9.462C355.235 9.154 355.692 8.92067 356.224 8.762C356.766 8.594 357.33 8.51 357.918 8.51C358.936 8.51 359.72 8.75733 360.27 9.252C360.821 9.74667 361.096 10.5027 361.096 11.52V16H359.822ZM357.386 16.084C356.836 16.084 356.35 15.9907 355.93 15.804C355.52 15.6173 355.202 15.3607 354.978 15.034C354.754 14.698 354.642 14.32 354.642 13.9C354.642 13.4987 354.736 13.1347 354.922 12.808C355.118 12.4813 355.431 12.22 355.86 12.024C356.299 11.828 356.887 11.73 357.624 11.73H359.976V12.696H357.68C357.008 12.696 356.556 12.808 356.322 13.032C356.089 13.256 355.972 13.5267 355.972 13.844C355.972 14.208 356.117 14.502 356.406 14.726C356.696 14.9407 357.097 15.048 357.61 15.048C358.114 15.048 358.553 14.936 358.926 14.712C359.309 14.488 359.584 14.1613 359.752 13.732L360.018 14.656C359.841 15.0947 359.528 15.4447 359.08 15.706C358.632 15.958 358.068 16.084 357.386 16.084ZM367.518 16.084C366.883 16.084 366.309 15.944 365.796 15.664C365.292 15.3747 364.89 14.95 364.592 14.39C364.302 13.83 364.158 13.13 364.158 12.29C364.158 11.45 364.307 10.75 364.606 10.19C364.914 9.63 365.32 9.21 365.824 8.93C366.337 8.65 366.902 8.51 367.518 8.51C368.246 8.51 368.89 8.66867 369.45 8.986C370.01 9.30333 370.453 9.74667 370.78 10.316C371.106 10.876 371.27 11.534 371.27 12.29C371.27 13.046 371.106 13.7087 370.78 14.278C370.453 14.8473 370.01 15.2907 369.45 15.608C368.89 15.9253 368.246 16.084 367.518 16.084ZM363.584 16V5.612H364.928V10.554L364.788 12.276L364.872 13.998V16H363.584ZM367.406 14.908C367.882 14.908 368.306 14.8007 368.68 14.586C369.062 14.3713 369.361 14.068 369.576 13.676C369.8 13.2747 369.912 12.8127 369.912 12.29C369.912 11.758 369.8 11.3007 369.576 10.918C369.361 10.526 369.062 10.2227 368.68 10.008C368.306 9.79333 367.882 9.686 367.406 9.686C366.939 9.686 366.514 9.79333 366.132 10.008C365.758 10.2227 365.46 10.526 365.236 10.918C365.021 11.3007 364.914 11.758 364.914 12.29C364.914 12.8127 365.021 13.2747 365.236 13.676C365.46 14.068 365.758 14.3713 366.132 14.586C366.514 14.8007 366.939 14.908 367.406 14.908ZM376.431 16.084C375.637 16.084 374.937 15.9207 374.331 15.594C373.733 15.2673 373.267 14.8193 372.931 14.25C372.604 13.6807 372.441 13.0273 372.441 12.29C372.441 11.5527 372.599 10.8993 372.917 10.33C373.243 9.76067 373.687 9.31733 374.247 9C374.816 8.67333 375.455 8.51 376.165 8.51C376.883 8.51 377.518 8.66867 378.069 8.986C378.619 9.30333 379.049 9.75133 379.357 10.33C379.674 10.8993 379.833 11.5667 379.833 12.332C379.833 12.388 379.828 12.4533 379.819 12.528C379.819 12.6027 379.814 12.6727 379.805 12.738H373.491V11.772H379.105L378.559 12.108C378.568 11.632 378.47 11.2073 378.265 10.834C378.059 10.4607 377.775 10.1713 377.411 9.966C377.056 9.75133 376.641 9.644 376.165 9.644C375.698 9.644 375.283 9.75133 374.919 9.966C374.555 10.1713 374.27 10.4653 374.065 10.848C373.859 11.2213 373.757 11.6507 373.757 12.136V12.36C373.757 12.8547 373.869 13.298 374.093 13.69C374.326 14.0727 374.648 14.3713 375.059 14.586C375.469 14.8007 375.941 14.908 376.473 14.908C376.911 14.908 377.308 14.8333 377.663 14.684C378.027 14.5347 378.344 14.3107 378.615 14.012L379.357 14.88C379.021 15.272 378.601 15.5707 378.097 15.776C377.602 15.9813 377.047 16.084 376.431 16.084ZM381.699 16V5.612H383.043V16H381.699ZM385.609 16V8.58H386.953V16H385.609ZM386.281 7.152C386.02 7.152 385.8 7.068 385.623 6.9C385.455 6.732 385.371 6.52667 385.371 6.284C385.371 6.032 385.455 5.822 385.623 5.654C385.8 5.486 386.02 5.402 386.281 5.402C386.542 5.402 386.757 5.486 386.925 5.654C387.102 5.81267 387.191 6.01333 387.191 6.256C387.191 6.508 387.107 6.72267 386.939 6.9C386.771 7.068 386.552 7.152 386.281 7.152ZM389.519 16V8.58H390.807V10.582L390.597 10.05C390.84 9.56467 391.213 9.18667 391.717 8.916C392.221 8.64533 392.809 8.51 393.481 8.51C394.088 8.51 394.62 8.62667 395.077 8.86C395.544 9.09333 395.908 9.448 396.169 9.924C396.43 10.4 396.561 11.002 396.561 11.73V16H395.217V11.884C395.217 11.1653 395.04 10.624 394.685 10.26C394.34 9.896 393.85 9.714 393.215 9.714C392.739 9.714 392.324 9.80733 391.969 9.994C391.614 10.1807 391.339 10.456 391.143 10.82C390.956 11.184 390.863 11.6367 390.863 12.178V16H389.519ZM402.296 18.8C401.615 18.8 400.952 18.702 400.308 18.506C399.674 18.3193 399.156 18.0487 398.754 17.694L399.398 16.658C399.744 16.9567 400.168 17.19 400.672 17.358C401.176 17.5353 401.704 17.624 402.254 17.624C403.132 17.624 403.776 17.4187 404.186 17.008C404.597 16.5973 404.802 15.972 404.802 15.132V13.564L404.942 12.094L404.872 10.61V8.58H406.146V14.992C406.146 16.2987 405.82 17.26 405.166 17.876C404.513 18.492 403.556 18.8 402.296 18.8ZM402.128 15.692C401.41 15.692 400.766 15.5427 400.196 15.244C399.636 14.936 399.188 14.5113 398.852 13.97C398.526 13.4287 398.362 12.8033 398.362 12.094C398.362 11.3753 398.526 10.75 398.852 10.218C399.188 9.67667 399.636 9.25667 400.196 8.958C400.766 8.65933 401.41 8.51 402.128 8.51C402.763 8.51 403.342 8.64067 403.864 8.902C404.387 9.154 404.802 9.546 405.11 10.078C405.428 10.61 405.586 11.282 405.586 12.094C405.586 12.8967 405.428 13.564 405.11 14.096C404.802 14.628 404.387 15.0293 403.864 15.3C403.342 15.5613 402.763 15.692 402.128 15.692ZM402.282 14.516C402.777 14.516 403.216 14.4133 403.598 14.208C403.981 14.0027 404.28 13.718 404.494 13.354C404.718 12.99 404.83 12.57 404.83 12.094C404.83 11.618 404.718 11.198 404.494 10.834C404.28 10.47 403.981 10.19 403.598 9.994C403.216 9.78867 402.777 9.686 402.282 9.686C401.788 9.686 401.344 9.78867 400.952 9.994C400.57 10.19 400.266 10.47 400.042 10.834C399.828 11.198 399.72 11.618 399.72 12.094C399.72 12.57 399.828 12.99 400.042 13.354C400.266 13.718 400.57 14.0027 400.952 14.208C401.344 14.4133 401.788 14.516 402.282 14.516ZM412.67 16V7.922C412.67 7.194 412.88 6.61533 413.3 6.186C413.73 5.74733 414.336 5.528 415.12 5.528C415.41 5.528 415.685 5.56533 415.946 5.64C416.217 5.70533 416.446 5.81267 416.632 5.962L416.226 6.984C416.086 6.872 415.928 6.788 415.75 6.732C415.573 6.66667 415.386 6.634 415.19 6.634C414.798 6.634 414.5 6.746 414.294 6.97C414.089 7.18467 413.986 7.50667 413.986 7.936V8.93L414.014 9.546V16H412.67ZM411.41 9.686V8.58H416.142V9.686H411.41ZM420.478 16.084C419.732 16.084 419.069 15.9207 418.49 15.594C417.912 15.2673 417.454 14.8193 417.118 14.25C416.782 13.6713 416.614 13.018 416.614 12.29C416.614 11.5527 416.782 10.8993 417.118 10.33C417.454 9.76067 417.912 9.31733 418.49 9C419.069 8.67333 419.732 8.51 420.478 8.51C421.216 8.51 421.874 8.67333 422.452 9C423.04 9.31733 423.498 9.76067 423.824 10.33C424.16 10.89 424.328 11.5433 424.328 12.29C424.328 13.0273 424.16 13.6807 423.824 14.25C423.498 14.8193 423.04 15.2673 422.452 15.594C421.874 15.9207 421.216 16.084 420.478 16.084ZM420.478 14.908C420.954 14.908 421.379 14.8007 421.752 14.586C422.135 14.3713 422.434 14.068 422.648 13.676C422.863 13.2747 422.97 12.8127 422.97 12.29C422.97 11.758 422.863 11.3007 422.648 10.918C422.434 10.526 422.135 10.2227 421.752 10.008C421.379 9.79333 420.954 9.686 420.478 9.686C420.002 9.686 419.578 9.79333 419.204 10.008C418.831 10.2227 418.532 10.526 418.308 10.918C418.084 11.3007 417.972 11.758 417.972 12.29C417.972 12.8127 418.084 13.2747 418.308 13.676C418.532 14.068 418.831 14.3713 419.204 14.586C419.578 14.8007 420.002 14.908 420.478 14.908ZM426.187 16V8.58H427.475V10.596L427.349 10.092C427.554 9.57867 427.9 9.18667 428.385 8.916C428.87 8.64533 429.468 8.51 430.177 8.51V9.812C430.121 9.80267 430.065 9.798 430.009 9.798C429.962 9.798 429.916 9.798 429.869 9.798C429.15 9.798 428.581 10.0127 428.161 10.442C427.741 10.8713 427.531 11.492 427.531 12.304V16H426.187ZM138.999 37.084C138.383 37.084 137.818 36.944 137.305 36.664C136.801 36.3747 136.395 35.95 136.087 35.39C135.788 34.83 135.639 34.13 135.639 33.29C135.639 32.45 135.784 31.75 136.073 31.19C136.372 30.63 136.773 30.21 137.277 29.93C137.79 29.65 138.364 29.51 138.999 29.51C139.727 29.51 140.371 29.6687 140.931 29.986C141.491 30.3033 141.934 30.7467 142.261 31.316C142.588 31.876 142.751 32.534 142.751 33.29C142.751 34.046 142.588 34.7087 142.261 35.278C141.934 35.8473 141.491 36.2907 140.931 36.608C140.371 36.9253 139.727 37.084 138.999 37.084ZM135.065 39.716V29.58H136.353V31.582L136.269 33.304L136.409 35.026V39.716H135.065ZM138.887 35.908C139.363 35.908 139.788 35.8007 140.161 35.586C140.544 35.3713 140.842 35.068 141.057 34.676C141.281 34.2747 141.393 33.8127 141.393 33.29C141.393 32.758 141.281 32.3007 141.057 31.918C140.842 31.526 140.544 31.2227 140.161 31.008C139.788 30.7933 139.363 30.686 138.887 30.686C138.42 30.686 137.996 30.7933 137.613 31.008C137.24 31.2227 136.941 31.526 136.717 31.918C136.502 32.3007 136.395 32.758 136.395 33.29C136.395 33.8127 136.502 34.2747 136.717 34.676C136.941 35.068 137.24 35.3713 137.613 35.586C137.996 35.8007 138.42 35.908 138.887 35.908ZM144.608 37V29.58H145.896V31.596L145.77 31.092C145.975 30.5787 146.321 30.1867 146.806 29.916C147.291 29.6453 147.889 29.51 148.598 29.51V30.812C148.542 30.8027 148.486 30.798 148.43 30.798C148.383 30.798 148.337 30.798 148.29 30.798C147.571 30.798 147.002 31.0127 146.582 31.442C146.162 31.8713 145.952 32.492 145.952 33.304V37H144.608ZM153.49 37.084C152.697 37.084 151.997 36.9207 151.39 36.594C150.793 36.2673 150.326 35.8193 149.99 35.25C149.663 34.6807 149.5 34.0273 149.5 33.29C149.5 32.5527 149.659 31.8993 149.976 31.33C150.303 30.7607 150.746 30.3173 151.306 30C151.875 29.6733 152.515 29.51 153.224 29.51C153.943 29.51 154.577 29.6687 155.128 29.986C155.679 30.3033 156.108 30.7513 156.416 31.33C156.733 31.8993 156.892 32.5667 156.892 33.332C156.892 33.388 156.887 33.4533 156.878 33.528C156.878 33.6027 156.873 33.6727 156.864 33.738H150.55V32.772H156.164L155.618 33.108C155.627 32.632 155.529 32.2073 155.324 31.834C155.119 31.4607 154.834 31.1713 154.47 30.966C154.115 30.7513 153.7 30.644 153.224 30.644C152.757 30.644 152.342 30.7513 151.978 30.966C151.614 31.1713 151.329 31.4653 151.124 31.848C150.919 32.2213 150.816 32.6507 150.816 33.136V33.36C150.816 33.8547 150.928 34.298 151.152 34.69C151.385 35.0727 151.707 35.3713 152.118 35.586C152.529 35.8007 153 35.908 153.532 35.908C153.971 35.908 154.367 35.8333 154.722 35.684C155.086 35.5347 155.403 35.3107 155.674 35.012L156.416 35.88C156.08 36.272 155.66 36.5707 155.156 36.776C154.661 36.9813 154.106 37.084 153.49 37.084ZM158.758 37V29.58H160.046V31.554L159.836 31.05C160.07 30.5647 160.429 30.1867 160.914 29.916C161.4 29.6453 161.964 29.51 162.608 29.51C163.318 29.51 163.929 29.6873 164.442 30.042C164.956 30.3873 165.292 30.9147 165.45 31.624L164.904 31.4C165.128 30.8307 165.52 30.3733 166.08 30.028C166.64 29.6827 167.294 29.51 168.04 29.51C168.638 29.51 169.165 29.6267 169.622 29.86C170.08 30.0933 170.434 30.448 170.686 30.924C170.948 31.4 171.078 32.002 171.078 32.73V37H169.734V32.884C169.734 32.1653 169.566 31.624 169.23 31.26C168.894 30.896 168.423 30.714 167.816 30.714C167.368 30.714 166.976 30.8073 166.64 30.994C166.304 31.1807 166.043 31.456 165.856 31.82C165.679 32.184 165.59 32.6367 165.59 33.178V37H164.246V32.884C164.246 32.1653 164.078 31.624 163.742 31.26C163.416 30.896 162.944 30.714 162.328 30.714C161.89 30.714 161.502 30.8073 161.166 30.994C160.83 31.1807 160.569 31.456 160.382 31.82C160.196 32.184 160.102 32.6367 160.102 33.178V37H158.758ZM173.551 37V29.58H174.895V37H173.551ZM174.223 28.152C173.962 28.152 173.743 28.068 173.565 27.9C173.397 27.732 173.313 27.5267 173.313 27.284C173.313 27.032 173.397 26.822 173.565 26.654C173.743 26.486 173.962 26.402 174.223 26.402C174.485 26.402 174.699 26.486 174.867 26.654C175.045 26.8127 175.133 27.0133 175.133 27.256C175.133 27.508 175.049 27.7227 174.881 27.9C174.713 28.068 174.494 28.152 174.223 28.152ZM180.584 37.084C179.949 37.084 179.389 36.9673 178.904 36.734C178.428 36.5007 178.054 36.146 177.784 35.67C177.522 35.1847 177.392 34.578 177.392 33.85V29.58H178.736V33.696C178.736 34.424 178.908 34.97 179.254 35.334C179.608 35.698 180.103 35.88 180.738 35.88C181.204 35.88 181.61 35.7867 181.956 35.6C182.301 35.404 182.567 35.124 182.754 34.76C182.94 34.3867 183.034 33.9387 183.034 33.416V29.58H184.378V37H183.104V34.998L183.314 35.53C183.071 36.0247 182.707 36.4073 182.222 36.678C181.736 36.9487 181.19 37.084 180.584 37.084ZM186.936 37V29.58H188.224V31.554L188.014 31.05C188.247 30.5647 188.607 30.1867 189.092 29.916C189.577 29.6453 190.142 29.51 190.786 29.51C191.495 29.51 192.107 29.6873 192.62 30.042C193.133 30.3873 193.469 30.9147 193.628 31.624L193.082 31.4C193.306 30.8307 193.698 30.3733 194.258 30.028C194.818 29.6827 195.471 29.51 196.218 29.51C196.815 29.51 197.343 29.6267 197.8 29.86C198.257 30.0933 198.612 30.448 198.864 30.924C199.125 31.4 199.256 32.002 199.256 32.73V37H197.912V32.884C197.912 32.1653 197.744 31.624 197.408 31.26C197.072 30.896 196.601 30.714 195.994 30.714C195.546 30.714 195.154 30.8073 194.818 30.994C194.482 31.1807 194.221 31.456 194.034 31.82C193.857 32.184 193.768 32.6367 193.768 33.178V37H192.424V32.884C192.424 32.1653 192.256 31.624 191.92 31.26C191.593 30.896 191.122 30.714 190.506 30.714C190.067 30.714 189.68 30.8073 189.344 30.994C189.008 31.1807 188.747 31.456 188.56 31.82C188.373 32.184 188.28 32.6367 188.28 33.178V37H186.936ZM209.423 37.084C208.807 37.084 208.242 36.944 207.729 36.664C207.225 36.3747 206.819 35.95 206.511 35.39C206.212 34.83 206.063 34.13 206.063 33.29C206.063 32.45 206.208 31.75 206.497 31.19C206.796 30.63 207.197 30.21 207.701 29.93C208.214 29.65 208.788 29.51 209.423 29.51C210.151 29.51 210.795 29.6687 211.355 29.986C211.915 30.3033 212.358 30.7467 212.685 31.316C213.012 31.876 213.175 32.534 213.175 33.29C213.175 34.046 213.012 34.7087 212.685 35.278C212.358 35.8473 211.915 36.2907 211.355 36.608C210.795 36.9253 210.151 37.084 209.423 37.084ZM205.489 39.716V29.58H206.777V31.582L206.693 33.304L206.833 35.026V39.716H205.489ZM209.311 35.908C209.787 35.908 210.212 35.8007 210.585 35.586C210.968 35.3713 211.266 35.068 211.481 34.676C211.705 34.2747 211.817 33.8127 211.817 33.29C211.817 32.758 211.705 32.3007 211.481 31.918C211.266 31.526 210.968 31.2227 210.585 31.008C210.212 30.7933 209.787 30.686 209.311 30.686C208.844 30.686 208.42 30.7933 208.037 31.008C207.664 31.2227 207.365 31.526 207.141 31.918C206.926 32.3007 206.819 32.758 206.819 33.29C206.819 33.8127 206.926 34.2747 207.141 34.676C207.365 35.068 207.664 35.3713 208.037 35.586C208.42 35.8007 208.844 35.908 209.311 35.908ZM215.032 37V29.58H216.32V31.596L216.194 31.092C216.399 30.5787 216.744 30.1867 217.23 29.916C217.715 29.6453 218.312 29.51 219.022 29.51V30.812C218.966 30.8027 218.91 30.798 218.854 30.798C218.807 30.798 218.76 30.798 218.714 30.798C217.995 30.798 217.426 31.0127 217.006 31.442C216.586 31.8713 216.376 32.492 216.376 33.304V37H215.032ZM223.914 37.084C223.121 37.084 222.421 36.9207 221.814 36.594C221.217 36.2673 220.75 35.8193 220.414 35.25C220.087 34.6807 219.924 34.0273 219.924 33.29C219.924 32.5527 220.083 31.8993 220.4 31.33C220.727 30.7607 221.17 30.3173 221.73 30C222.299 29.6733 222.939 29.51 223.648 29.51C224.367 29.51 225.001 29.6687 225.552 29.986C226.103 30.3033 226.532 30.7513 226.84 31.33C227.157 31.8993 227.316 32.5667 227.316 33.332C227.316 33.388 227.311 33.4533 227.302 33.528C227.302 33.6027 227.297 33.6727 227.288 33.738H220.974V32.772H226.588L226.042 33.108C226.051 32.632 225.953 32.2073 225.748 31.834C225.543 31.4607 225.258 31.1713 224.894 30.966C224.539 30.7513 224.124 30.644 223.648 30.644C223.181 30.644 222.766 30.7513 222.402 30.966C222.038 31.1713 221.753 31.4653 221.548 31.848C221.343 32.2213 221.24 32.6507 221.24 33.136V33.36C221.24 33.8547 221.352 34.298 221.576 34.69C221.809 35.0727 222.131 35.3713 222.542 35.586C222.953 35.8007 223.424 35.908 223.956 35.908C224.395 35.908 224.791 35.8333 225.146 35.684C225.51 35.5347 225.827 35.3107 226.098 35.012L226.84 35.88C226.504 36.272 226.084 36.5707 225.58 36.776C225.085 36.9813 224.53 37.084 223.914 37.084ZM231.31 37.084C230.694 37.084 230.106 37 229.546 36.832C228.996 36.664 228.562 36.4587 228.244 36.216L228.804 35.152C229.122 35.3667 229.514 35.5487 229.98 35.698C230.447 35.8473 230.923 35.922 231.408 35.922C232.034 35.922 232.482 35.8333 232.752 35.656C233.032 35.4787 233.172 35.2313 233.172 34.914C233.172 34.6807 233.088 34.4987 232.92 34.368C232.752 34.2373 232.528 34.1393 232.248 34.074C231.978 34.0087 231.674 33.9527 231.338 33.906C231.002 33.85 230.666 33.7847 230.33 33.71C229.994 33.626 229.686 33.514 229.406 33.374C229.126 33.2247 228.902 33.024 228.734 32.772C228.566 32.5107 228.482 32.1653 228.482 31.736C228.482 31.288 228.608 30.896 228.86 30.56C229.112 30.224 229.467 29.9673 229.924 29.79C230.391 29.6033 230.942 29.51 231.576 29.51C232.062 29.51 232.552 29.5707 233.046 29.692C233.55 29.804 233.961 29.9673 234.278 30.182L233.704 31.246C233.368 31.022 233.018 30.868 232.654 30.784C232.29 30.7 231.926 30.658 231.562 30.658C230.974 30.658 230.536 30.756 230.246 30.952C229.957 31.1387 229.812 31.3813 229.812 31.68C229.812 31.932 229.896 32.128 230.064 32.268C230.242 32.3987 230.466 32.5013 230.736 32.576C231.016 32.6507 231.324 32.716 231.66 32.772C231.996 32.8187 232.332 32.884 232.668 32.968C233.004 33.0427 233.308 33.15 233.578 33.29C233.858 33.43 234.082 33.626 234.25 33.878C234.428 34.13 234.516 34.466 234.516 34.886C234.516 35.334 234.386 35.7213 234.124 36.048C233.863 36.3747 233.494 36.6313 233.018 36.818C232.542 36.9953 231.973 37.084 231.31 37.084ZM239.5 37.084C238.707 37.084 238.007 36.9207 237.4 36.594C236.803 36.2673 236.336 35.8193 236 35.25C235.673 34.6807 235.51 34.0273 235.51 33.29C235.51 32.5527 235.669 31.8993 235.986 31.33C236.313 30.7607 236.756 30.3173 237.316 30C237.885 29.6733 238.525 29.51 239.234 29.51C239.953 29.51 240.587 29.6687 241.138 29.986C241.689 30.3033 242.118 30.7513 242.426 31.33C242.743 31.8993 242.902 32.5667 242.902 33.332C242.902 33.388 242.897 33.4533 242.888 33.528C242.888 33.6027 242.883 33.6727 242.874 33.738H236.56V32.772H242.174L241.628 33.108C241.637 32.632 241.539 32.2073 241.334 31.834C241.129 31.4607 240.844 31.1713 240.48 30.966C240.125 30.7513 239.71 30.644 239.234 30.644C238.767 30.644 238.352 30.7513 237.988 30.966C237.624 31.1713 237.339 31.4653 237.134 31.848C236.929 32.2213 236.826 32.6507 236.826 33.136V33.36C236.826 33.8547 236.938 34.298 237.162 34.69C237.395 35.0727 237.717 35.3713 238.128 35.586C238.539 35.8007 239.01 35.908 239.542 35.908C239.981 35.908 240.377 35.8333 240.732 35.684C241.096 35.5347 241.413 35.3107 241.684 35.012L242.426 35.88C242.09 36.272 241.67 36.5707 241.166 36.776C240.671 36.9813 240.116 37.084 239.5 37.084ZM244.768 37V29.58H246.056V31.582L245.846 31.05C246.089 30.5647 246.462 30.1867 246.966 29.916C247.47 29.6453 248.058 29.51 248.73 29.51C249.337 29.51 249.869 29.6267 250.326 29.86C250.793 30.0933 251.157 30.448 251.418 30.924C251.679 31.4 251.81 32.002 251.81 32.73V37H250.466V32.884C250.466 32.1653 250.289 31.624 249.934 31.26C249.589 30.896 249.099 30.714 248.464 30.714C247.988 30.714 247.573 30.8073 247.218 30.994C246.863 31.1807 246.588 31.456 246.392 31.82C246.205 32.184 246.112 32.6367 246.112 33.178V37H244.768ZM256.845 37.084C256.099 37.084 255.52 36.8833 255.109 36.482C254.699 36.0807 254.493 35.5067 254.493 34.76V27.956H255.837V34.704C255.837 35.1053 255.935 35.4133 256.131 35.628C256.337 35.8427 256.626 35.95 256.999 35.95C257.419 35.95 257.769 35.8333 258.049 35.6L258.469 36.566C258.264 36.7433 258.017 36.874 257.727 36.958C257.447 37.042 257.153 37.084 256.845 37.084ZM253.233 30.686V29.58H257.965V30.686H253.233ZM264.427 37V35.432L264.357 35.138V32.464C264.357 31.8947 264.189 31.456 263.853 31.148C263.526 30.8307 263.032 30.672 262.369 30.672C261.93 30.672 261.501 30.7467 261.081 30.896C260.661 31.036 260.306 31.2273 260.017 31.47L259.457 30.462C259.84 30.154 260.297 29.9207 260.829 29.762C261.37 29.594 261.935 29.51 262.523 29.51C263.54 29.51 264.324 29.7573 264.875 30.252C265.426 30.7467 265.701 31.5027 265.701 32.52V37H264.427ZM261.991 37.084C261.44 37.084 260.955 36.9907 260.535 36.804C260.124 36.6173 259.807 36.3607 259.583 36.034C259.359 35.698 259.247 35.32 259.247 34.9C259.247 34.4987 259.34 34.1347 259.527 33.808C259.723 33.4813 260.036 33.22 260.465 33.024C260.904 32.828 261.492 32.73 262.229 32.73H264.581V33.696H262.285C261.613 33.696 261.16 33.808 260.927 34.032C260.694 34.256 260.577 34.5267 260.577 34.844C260.577 35.208 260.722 35.502 261.011 35.726C261.3 35.9407 261.702 36.048 262.215 36.048C262.719 36.048 263.158 35.936 263.531 35.712C263.914 35.488 264.189 35.1613 264.357 34.732L264.623 35.656C264.446 36.0947 264.133 36.4447 263.685 36.706C263.237 36.958 262.672 37.084 261.991 37.084ZM270.736 37.084C269.989 37.084 269.411 36.8833 269 36.482C268.589 36.0807 268.384 35.5067 268.384 34.76V27.956H269.728V34.704C269.728 35.1053 269.826 35.4133 270.022 35.628C270.227 35.8427 270.517 35.95 270.89 35.95C271.31 35.95 271.66 35.8333 271.94 35.6L272.36 36.566C272.155 36.7433 271.907 36.874 271.618 36.958C271.338 37.042 271.044 37.084 270.736 37.084ZM267.124 30.686V29.58H271.856V30.686H267.124ZM273.985 37V29.58H275.329V37H273.985ZM274.657 28.152C274.396 28.152 274.176 28.068 273.999 27.9C273.831 27.732 273.747 27.5267 273.747 27.284C273.747 27.032 273.831 26.822 273.999 26.654C274.176 26.486 274.396 26.402 274.657 26.402C274.918 26.402 275.133 26.486 275.301 26.654C275.478 26.8127 275.567 27.0133 275.567 27.256C275.567 27.508 275.483 27.7227 275.315 27.9C275.147 28.068 274.928 28.152 274.657 28.152ZM281.073 37.084C280.326 37.084 279.664 36.9207 279.085 36.594C278.506 36.2673 278.049 35.8193 277.713 35.25C277.377 34.6713 277.209 34.018 277.209 33.29C277.209 32.5527 277.377 31.8993 277.713 31.33C278.049 30.7607 278.506 30.3173 279.085 30C279.664 29.6733 280.326 29.51 281.073 29.51C281.81 29.51 282.468 29.6733 283.047 30C283.635 30.3173 284.092 30.7607 284.419 31.33C284.755 31.89 284.923 32.5433 284.923 33.29C284.923 34.0273 284.755 34.6807 284.419 35.25C284.092 35.8193 283.635 36.2673 283.047 36.594C282.468 36.9207 281.81 37.084 281.073 37.084ZM281.073 35.908C281.549 35.908 281.974 35.8007 282.347 35.586C282.73 35.3713 283.028 35.068 283.243 34.676C283.458 34.2747 283.565 33.8127 283.565 33.29C283.565 32.758 283.458 32.3007 283.243 31.918C283.028 31.526 282.73 31.2227 282.347 31.008C281.974 30.7933 281.549 30.686 281.073 30.686C280.597 30.686 280.172 30.7933 279.799 31.008C279.426 31.2227 279.127 31.526 278.903 31.918C278.679 32.3007 278.567 32.758 278.567 33.29C278.567 33.8127 278.679 34.2747 278.903 34.676C279.127 35.068 279.426 35.3713 279.799 35.586C280.172 35.8007 280.597 35.908 281.073 35.908ZM286.782 37V29.58H288.07V31.582L287.86 31.05C288.102 30.5647 288.476 30.1867 288.98 29.916C289.484 29.6453 290.072 29.51 290.744 29.51C291.35 29.51 291.882 29.6267 292.34 29.86C292.806 30.0933 293.17 30.448 293.432 30.924C293.693 31.4 293.824 32.002 293.824 32.73V37H292.48V32.884C292.48 32.1653 292.302 31.624 291.948 31.26C291.602 30.896 291.112 30.714 290.478 30.714C290.002 30.714 289.586 30.8073 289.232 30.994C288.877 31.1807 288.602 31.456 288.406 31.82C288.219 32.184 288.126 32.6367 288.126 33.178V37H286.782ZM296.633 37.084C296.372 37.084 296.148 36.9953 295.961 36.818C295.774 36.6313 295.681 36.398 295.681 36.118C295.681 35.838 295.774 35.6093 295.961 35.432C296.148 35.2547 296.372 35.166 296.633 35.166C296.885 35.166 297.1 35.2547 297.277 35.432C297.464 35.6093 297.557 35.838 297.557 36.118C297.557 36.398 297.464 36.6313 297.277 36.818C297.1 36.9953 296.885 37.084 296.633 37.084Z" fill="black"/>
</svg>
