<svg width="240" height="34" viewBox="0 0 240 34" fill="none" xmlns="http://www.w3.org/2000/svg">
<path d="M13.4132 30V16H19.1732C20.4132 16 21.4732 16.2 22.3532 16.6C23.2465 17 23.9332 17.5733 24.4132 18.32C24.8932 19.0667 25.1332 19.9533 25.1332 20.98C25.1332 22.0067 24.8932 22.8933 24.4132 23.64C23.9332 24.3867 23.2465 24.96 22.3532 25.36C21.4732 25.76 20.4132 25.96 19.1732 25.96H14.8532L16.0132 24.74V30H13.4132ZM16.0132 25.02L14.8532 23.76H19.0532C20.1999 23.76 21.0599 23.52 21.6332 23.04C22.2199 22.5467 22.5132 21.86 22.5132 20.98C22.5132 20.0867 22.2199 19.4 21.6332 18.92C21.0599 18.44 20.1999 18.2 19.0532 18.2H14.8532L16.0132 16.92V25.02ZM27.392 30V19.32H29.772V22.26L29.492 21.4C29.812 20.68 30.312 20.1333 30.992 19.76C31.6853 19.3867 32.5453 19.2 33.572 19.2V21.58C33.4653 21.5533 33.3653 21.54 33.272 21.54C33.1786 21.5267 33.0853 21.52 32.992 21.52C32.0453 21.52 31.292 21.8 30.732 22.36C30.172 22.9067 29.892 23.7267 29.892 24.82V30H27.392ZM40.3951 30.14C39.3017 30.14 38.3284 29.9067 37.4751 29.44C36.6217 28.96 35.9484 28.3067 35.4551 27.48C34.9617 26.6533 34.7151 25.7133 34.7151 24.66C34.7151 23.5933 34.9617 22.6533 35.4551 21.84C35.9484 21.0133 36.6217 20.3667 37.4751 19.9C38.3284 19.4333 39.3017 19.2 40.3951 19.2C41.5017 19.2 42.4817 19.4333 43.3351 19.9C44.2017 20.3667 44.8751 21.0067 45.3551 21.82C45.8484 22.6333 46.0951 23.58 46.0951 24.66C46.0951 25.7133 45.8484 26.6533 45.3551 27.48C44.8751 28.3067 44.2017 28.96 43.3351 29.44C42.4817 29.9067 41.5017 30.14 40.3951 30.14ZM40.3951 28C41.0084 28 41.5551 27.8667 42.0351 27.6C42.5151 27.3333 42.8884 26.9467 43.1551 26.44C43.4351 25.9333 43.5751 25.34 43.5751 24.66C43.5751 23.9667 43.4351 23.3733 43.1551 22.88C42.8884 22.3733 42.5151 21.9867 42.0351 21.72C41.5551 21.4533 41.0151 21.32 40.4151 21.32C39.8017 21.32 39.2551 21.4533 38.7751 21.72C38.3084 21.9867 37.9351 22.3733 37.6551 22.88C37.3751 23.3733 37.2351 23.9667 37.2351 24.66C37.2351 25.34 37.3751 25.9333 37.6551 26.44C37.9351 26.9467 38.3084 27.3333 38.7751 27.6C39.2551 27.8667 39.7951 28 40.3951 28ZM53.0057 30.14C51.979 30.14 51.0524 29.9133 50.2257 29.46C49.4124 28.9933 48.7724 28.3533 48.3057 27.54C47.839 26.7267 47.6057 25.7667 47.6057 24.66C47.6057 23.5533 47.839 22.5933 48.3057 21.78C48.7724 20.9667 49.4124 20.3333 50.2257 19.88C51.0524 19.4267 51.979 19.2 53.0057 19.2C53.899 19.2 54.699 19.4 55.4057 19.8C56.1124 20.1867 56.6724 20.78 57.0857 21.58C57.499 22.38 57.7057 23.4067 57.7057 24.66C57.7057 25.9 57.5057 26.9267 57.1057 27.74C56.7057 28.54 56.1524 29.14 55.4457 29.54C54.739 29.94 53.9257 30.14 53.0057 30.14ZM53.3057 28C53.9057 28 54.439 27.8667 54.9057 27.6C55.3857 27.3333 55.7657 26.9467 56.0457 26.44C56.339 25.9333 56.4857 25.34 56.4857 24.66C56.4857 23.9667 56.339 23.3733 56.0457 22.88C55.7657 22.3733 55.3857 21.9867 54.9057 21.72C54.439 21.4533 53.9057 21.32 53.3057 21.32C52.7057 21.32 52.1657 21.4533 51.6857 21.72C51.219 21.9867 50.839 22.3733 50.5457 22.88C50.2657 23.3733 50.1257 23.9667 50.1257 24.66C50.1257 25.34 50.2657 25.9333 50.5457 26.44C50.839 26.9467 51.219 27.3333 51.6857 27.6C52.1657 27.8667 52.7057 28 53.3057 28ZM56.5457 30V27.48L56.6457 24.64L56.4457 21.8V15.16H58.9257V30H56.5457ZM66.7362 30.14C65.8295 30.14 65.0295 29.9733 64.3362 29.64C63.6428 29.2933 63.1028 28.7733 62.7162 28.08C62.3295 27.3733 62.1362 26.4867 62.1362 25.42V19.32H64.6362V25.08C64.6362 26.04 64.8495 26.76 65.2762 27.24C65.7162 27.7067 66.3362 27.94 67.1362 27.94C67.7228 27.94 68.2295 27.82 68.6562 27.58C69.0962 27.34 69.4362 26.98 69.6762 26.5C69.9295 26.02 70.0562 25.4267 70.0562 24.72V19.32H72.5562V30H70.1762V27.12L70.5962 28C70.2362 28.6933 69.7095 29.2267 69.0162 29.6C68.3228 29.96 67.5628 30.14 66.7362 30.14ZM80.7295 30.14C79.6095 30.14 78.6095 29.9067 77.7295 29.44C76.8628 28.96 76.1828 28.3067 75.6895 27.48C75.1961 26.6533 74.9495 25.7133 74.9495 24.66C74.9495 23.5933 75.1961 22.6533 75.6895 21.84C76.1828 21.0133 76.8628 20.3667 77.7295 19.9C78.6095 19.4333 79.6095 19.2 80.7295 19.2C81.7695 19.2 82.6828 19.4133 83.4695 19.84C84.2695 20.2533 84.8761 20.8667 85.2895 21.68L83.3695 22.8C83.0495 22.2933 82.6561 21.92 82.1895 21.68C81.7361 21.44 81.2428 21.32 80.7095 21.32C80.0961 21.32 79.5428 21.4533 79.0495 21.72C78.5561 21.9867 78.1695 22.3733 77.8895 22.88C77.6095 23.3733 77.4695 23.9667 77.4695 24.66C77.4695 25.3533 77.6095 25.9533 77.8895 26.46C78.1695 26.9533 78.5561 27.3333 79.0495 27.6C79.5428 27.8667 80.0961 28 80.7095 28C81.2428 28 81.7361 27.88 82.1895 27.64C82.6561 27.4 83.0495 27.0267 83.3695 26.52L85.2895 27.64C84.8761 28.44 84.2695 29.06 83.4695 29.5C82.6828 29.9267 81.7695 30.14 80.7295 30.14ZM91.6073 30.14C90.4339 30.14 89.5273 29.84 88.8873 29.24C88.2473 28.6267 87.9273 27.7267 87.9273 26.54V16.96H90.4273V26.48C90.4273 26.9867 90.5539 27.38 90.8073 27.66C91.0739 27.94 91.4406 28.08 91.9073 28.08C92.4673 28.08 92.9339 27.9333 93.3073 27.64L94.0073 29.42C93.7139 29.66 93.3539 29.84 92.9273 29.96C92.5006 30.08 92.0606 30.14 91.6073 30.14ZM86.1673 21.32V19.32H93.2873V21.32H86.1673ZM108.311 30.2C107.245 30.2 106.251 30.0267 105.331 29.68C104.425 29.32 103.631 28.82 102.951 28.18C102.285 27.5267 101.765 26.76 101.391 25.88C101.018 25 100.831 24.04 100.831 23C100.831 21.96 101.018 21 101.391 20.12C101.765 19.24 102.291 18.48 102.971 17.84C103.651 17.1867 104.445 16.6867 105.351 16.34C106.258 15.98 107.251 15.8 108.331 15.8C109.478 15.8 110.525 16 111.471 16.4C112.418 16.7867 113.218 17.3667 113.871 18.14L112.191 19.72C111.685 19.1733 111.118 18.7667 110.491 18.5C109.865 18.22 109.185 18.08 108.451 18.08C107.718 18.08 107.045 18.2 106.431 18.44C105.831 18.68 105.305 19.02 104.851 19.46C104.411 19.9 104.065 20.42 103.811 21.02C103.571 21.62 103.451 22.28 103.451 23C103.451 23.72 103.571 24.38 103.811 24.98C104.065 25.58 104.411 26.1 104.851 26.54C105.305 26.98 105.831 27.32 106.431 27.56C107.045 27.8 107.718 27.92 108.451 27.92C109.185 27.92 109.865 27.7867 110.491 27.52C111.118 27.24 111.685 26.82 112.191 26.26L113.871 27.86C113.218 28.62 112.418 29.2 111.471 29.6C110.525 30 109.471 30.2 108.311 30.2ZM120.336 30.14C119.243 30.14 118.27 29.9067 117.416 29.44C116.563 28.96 115.89 28.3067 115.396 27.48C114.903 26.6533 114.656 25.7133 114.656 24.66C114.656 23.5933 114.903 22.6533 115.396 21.84C115.89 21.0133 116.563 20.3667 117.416 19.9C118.27 19.4333 119.243 19.2 120.336 19.2C121.443 19.2 122.423 19.4333 123.276 19.9C124.143 20.3667 124.816 21.0067 125.296 21.82C125.79 22.6333 126.036 23.58 126.036 24.66C126.036 25.7133 125.79 26.6533 125.296 27.48C124.816 28.3067 124.143 28.96 123.276 29.44C122.423 29.9067 121.443 30.14 120.336 30.14ZM120.336 28C120.95 28 121.496 27.8667 121.976 27.6C122.456 27.3333 122.83 26.9467 123.096 26.44C123.376 25.9333 123.516 25.34 123.516 24.66C123.516 23.9667 123.376 23.3733 123.096 22.88C122.83 22.3733 122.456 21.9867 121.976 21.72C121.496 21.4533 120.956 21.32 120.356 21.32C119.743 21.32 119.196 21.4533 118.716 21.72C118.25 21.9867 117.876 22.3733 117.596 22.88C117.316 23.3733 117.176 23.9667 117.176 24.66C117.176 25.34 117.316 25.9333 117.596 26.44C117.876 26.9467 118.25 27.3333 118.716 27.6C119.196 27.8667 119.736 28 120.336 28ZM132.947 30.14C131.92 30.14 130.994 29.9133 130.167 29.46C129.354 28.9933 128.714 28.3533 128.247 27.54C127.78 26.7267 127.547 25.7667 127.547 24.66C127.547 23.5533 127.78 22.5933 128.247 21.78C128.714 20.9667 129.354 20.3333 130.167 19.88C130.994 19.4267 131.92 19.2 132.947 19.2C133.84 19.2 134.64 19.4 135.347 19.8C136.054 20.1867 136.614 20.78 137.027 21.58C137.44 22.38 137.647 23.4067 137.647 24.66C137.647 25.9 137.447 26.9267 137.047 27.74C136.647 28.54 136.094 29.14 135.387 29.54C134.68 29.94 133.867 30.14 132.947 30.14ZM133.247 28C133.847 28 134.38 27.8667 134.847 27.6C135.327 27.3333 135.707 26.9467 135.987 26.44C136.28 25.9333 136.427 25.34 136.427 24.66C136.427 23.9667 136.28 23.3733 135.987 22.88C135.707 22.3733 135.327 21.9867 134.847 21.72C134.38 21.4533 133.847 21.32 133.247 21.32C132.647 21.32 132.107 21.4533 131.627 21.72C131.16 21.9867 130.78 22.3733 130.487 22.88C130.207 23.3733 130.067 23.9667 130.067 24.66C130.067 25.34 130.207 25.9333 130.487 26.44C130.78 26.9467 131.16 27.3333 131.627 27.6C132.107 27.8667 132.647 28 133.247 28ZM136.487 30V27.48L136.587 24.64L136.387 21.8V15.16H138.867V30H136.487ZM147.178 30.14C145.991 30.14 144.951 29.9067 144.058 29.44C143.178 28.96 142.491 28.3067 141.998 27.48C141.518 26.6533 141.278 25.7133 141.278 24.66C141.278 23.5933 141.511 22.6533 141.978 21.84C142.458 21.0133 143.111 20.3667 143.938 19.9C144.778 19.4333 145.731 19.2 146.798 19.2C147.838 19.2 148.764 19.4267 149.578 19.88C150.391 20.3333 151.031 20.9733 151.498 21.8C151.964 22.6267 152.198 23.6 152.198 24.72C152.198 24.8267 152.191 24.9467 152.178 25.08C152.178 25.2133 152.171 25.34 152.158 25.46H143.258V23.8H150.838L149.858 24.32C149.871 23.7067 149.744 23.1667 149.478 22.7C149.211 22.2333 148.844 21.8667 148.378 21.6C147.924 21.3333 147.398 21.2 146.798 21.2C146.184 21.2 145.644 21.3333 145.178 21.6C144.724 21.8667 144.364 22.24 144.098 22.72C143.844 23.1867 143.718 23.74 143.718 24.38V24.78C143.718 25.42 143.864 25.9867 144.158 26.48C144.451 26.9733 144.864 27.3533 145.398 27.62C145.931 27.8867 146.544 28.02 147.238 28.02C147.838 28.02 148.378 27.9267 148.858 27.74C149.338 27.5533 149.764 27.26 150.138 26.86L151.478 28.4C150.998 28.96 150.391 29.3933 149.658 29.7C148.938 29.9933 148.111 30.14 147.178 30.14ZM165.114 25.48V23.4H170.614V25.48H165.114ZM183.736 30.2C182.576 30.2 181.57 30.0267 180.716 29.68C179.863 29.3333 179.203 28.8467 178.736 28.22C178.27 27.58 178.036 26.8333 178.036 25.98C178.036 25.1267 178.263 24.4067 178.716 23.82C179.17 23.2333 179.823 22.7867 180.676 22.48C181.53 22.1733 182.55 22.02 183.736 22.02C184.923 22.02 185.943 22.1733 186.796 22.48C187.663 22.7867 188.323 23.24 188.776 23.84C189.243 24.4267 189.476 25.14 189.476 25.98C189.476 26.8333 189.236 27.58 188.756 28.22C188.29 28.8467 187.623 29.3333 186.756 29.68C185.903 30.0267 184.896 30.2 183.736 30.2ZM183.736 28.16C184.696 28.16 185.456 27.96 186.016 27.56C186.576 27.16 186.856 26.6067 186.856 25.9C186.856 25.2067 186.576 24.66 186.016 24.26C185.456 23.86 184.696 23.66 183.736 23.66C182.776 23.66 182.023 23.86 181.476 24.26C180.93 24.66 180.656 25.2067 180.656 25.9C180.656 26.6067 180.93 27.16 181.476 27.56C182.023 27.96 182.776 28.16 183.736 28.16ZM183.736 21.78C184.563 21.78 185.216 21.6067 185.696 21.26C186.176 20.9 186.416 20.42 186.416 19.82C186.416 19.1933 186.17 18.7067 185.676 18.36C185.183 18.0133 184.536 17.84 183.736 17.84C182.936 17.84 182.296 18.0133 181.816 18.36C181.336 18.7067 181.096 19.1933 181.096 19.82C181.096 20.42 181.33 20.9 181.796 21.26C182.276 21.6067 182.923 21.78 183.736 21.78ZM183.736 23.38C182.656 23.38 181.73 23.24 180.956 22.96C180.183 22.6667 179.583 22.2467 179.156 21.7C178.743 21.14 178.536 20.4733 178.536 19.7C178.536 18.9 178.75 18.2133 179.176 17.64C179.616 17.0533 180.23 16.6 181.016 16.28C181.803 15.96 182.71 15.8 183.736 15.8C184.776 15.8 185.69 15.96 186.476 16.28C187.263 16.6 187.876 17.0533 188.316 17.64C188.756 18.2133 188.976 18.9 188.976 19.7C188.976 20.4733 188.763 21.14 188.336 21.7C187.923 22.2467 187.323 22.6667 186.536 22.96C185.75 23.24 184.816 23.38 183.736 23.38ZM196.783 30.2C195.623 30.2 194.617 30.0267 193.763 29.68C192.91 29.3333 192.25 28.8467 191.783 28.22C191.317 27.58 191.083 26.8333 191.083 25.98C191.083 25.1267 191.31 24.4067 191.763 23.82C192.217 23.2333 192.87 22.7867 193.723 22.48C194.577 22.1733 195.597 22.02 196.783 22.02C197.97 22.02 198.99 22.1733 199.843 22.48C200.71 22.7867 201.37 23.24 201.823 23.84C202.29 24.4267 202.523 25.14 202.523 25.98C202.523 26.8333 202.283 27.58 201.803 28.22C201.337 28.8467 200.67 29.3333 199.803 29.68C198.95 30.0267 197.943 30.2 196.783 30.2ZM196.783 28.16C197.743 28.16 198.503 27.96 199.063 27.56C199.623 27.16 199.903 26.6067 199.903 25.9C199.903 25.2067 199.623 24.66 199.063 24.26C198.503 23.86 197.743 23.66 196.783 23.66C195.823 23.66 195.07 23.86 194.523 24.26C193.977 24.66 193.703 25.2067 193.703 25.9C193.703 26.6067 193.977 27.16 194.523 27.56C195.07 27.96 195.823 28.16 196.783 28.16ZM196.783 21.78C197.61 21.78 198.263 21.6067 198.743 21.26C199.223 20.9 199.463 20.42 199.463 19.82C199.463 19.1933 199.217 18.7067 198.723 18.36C198.23 18.0133 197.583 17.84 196.783 17.84C195.983 17.84 195.343 18.0133 194.863 18.36C194.383 18.7067 194.143 19.1933 194.143 19.82C194.143 20.42 194.377 20.9 194.843 21.26C195.323 21.6067 195.97 21.78 196.783 21.78ZM196.783 23.38C195.703 23.38 194.777 23.24 194.003 22.96C193.23 22.6667 192.63 22.2467 192.203 21.7C191.79 21.14 191.583 20.4733 191.583 19.7C191.583 18.9 191.797 18.2133 192.223 17.64C192.663 17.0533 193.277 16.6 194.063 16.28C194.85 15.96 195.757 15.8 196.783 15.8C197.823 15.8 198.737 15.96 199.523 16.28C200.31 16.6 200.923 17.0533 201.363 17.64C201.803 18.2133 202.023 18.9 202.023 19.7C202.023 20.4733 201.81 21.14 201.383 21.7C200.97 22.2467 200.37 22.6667 199.583 22.96C198.797 23.24 197.863 23.38 196.783 23.38ZM210.05 30.2C208.943 30.2 207.943 29.92 207.05 29.36C206.17 28.8 205.477 27.9867 204.97 26.92C204.463 25.84 204.21 24.5333 204.21 23C204.21 21.4667 204.463 20.1667 204.97 19.1C205.477 18.02 206.17 17.2 207.05 16.64C207.943 16.08 208.943 15.8 210.05 15.8C211.17 15.8 212.17 16.08 213.05 16.64C213.93 17.2 214.623 18.02 215.13 19.1C215.65 20.1667 215.91 21.4667 215.91 23C215.91 24.5333 215.65 25.84 215.13 26.92C214.623 27.9867 213.93 28.8 213.05 29.36C212.17 29.92 211.17 30.2 210.05 30.2ZM210.05 27.94C210.703 27.94 211.27 27.7667 211.75 27.42C212.23 27.06 212.603 26.5133 212.87 25.78C213.15 25.0467 213.29 24.12 213.29 23C213.29 21.8667 213.15 20.94 212.87 20.22C212.603 19.4867 212.23 18.9467 211.75 18.6C211.27 18.24 210.703 18.06 210.05 18.06C209.423 18.06 208.863 18.24 208.37 18.6C207.89 18.9467 207.51 19.4867 207.23 20.22C206.963 20.94 206.83 21.8667 206.83 23C206.83 24.12 206.963 25.0467 207.23 25.78C207.51 26.5133 207.89 27.06 208.37 27.42C208.863 27.7667 209.423 27.94 210.05 27.94ZM222.307 30.2C221.32 30.2 220.354 30.06 219.407 29.78C218.474 29.4867 217.687 29.0867 217.047 28.58L218.147 26.56C218.654 26.9733 219.267 27.3067 219.987 27.56C220.72 27.8133 221.48 27.94 222.267 27.94C223.187 27.94 223.907 27.7467 224.427 27.36C224.96 26.9733 225.227 26.4533 225.227 25.8C225.227 25.36 225.114 24.9733 224.887 24.64C224.674 24.3067 224.287 24.0533 223.727 23.88C223.18 23.7067 222.427 23.62 221.467 23.62H218.087L218.807 16H227.027V18.18H219.767L221.127 16.94L220.587 22.64L219.227 21.42H222.047C223.434 21.42 224.547 21.6067 225.387 21.98C226.24 22.34 226.86 22.8467 227.247 23.5C227.647 24.14 227.847 24.8733 227.847 25.7C227.847 26.5133 227.647 27.26 227.247 27.94C226.847 28.62 226.234 29.1667 225.407 29.58C224.594 29.9933 223.56 30.2 222.307 30.2Z" fill="#272727"/>
</svg>
