<svg width="76" height="33" viewBox="0 0 76 33" fill="none" xmlns="http://www.w3.org/2000/svg">
<path d="M0.924 12V3.54H4.62C5.508 3.54 6.196 3.736 6.684 4.128C7.172 4.512 7.416 5.048 7.416 5.736C7.416 6.248 7.268 6.68 6.972 7.032C6.676 7.384 6.272 7.62 5.76 7.74V7.56C6.152 7.616 6.488 7.736 6.768 7.92C7.048 8.104 7.26 8.34 7.404 8.628C7.556 8.916 7.632 9.252 7.632 9.636C7.632 10.132 7.516 10.56 7.284 10.92C7.06 11.272 6.732 11.54 6.3 11.724C5.868 11.908 5.352 12 4.752 12H0.924ZM2.4 10.836H4.56C4.776 10.836 4.968 10.82 5.136 10.788C5.312 10.756 5.46 10.708 5.58 10.644C5.708 10.572 5.812 10.484 5.892 10.38C5.98 10.276 6.044 10.156 6.084 10.02C6.124 9.884 6.144 9.732 6.144 9.564C6.144 9.388 6.124 9.232 6.084 9.096C6.044 8.96 5.98 8.844 5.892 8.748C5.812 8.644 5.708 8.56 5.58 8.496C5.46 8.424 5.312 8.372 5.136 8.34C4.968 8.308 4.776 8.292 4.56 8.292H2.4V10.836ZM2.4 7.128H4.356C4.884 7.128 5.276 7.028 5.532 6.828C5.796 6.62 5.928 6.316 5.928 5.916C5.928 5.516 5.796 5.216 5.532 5.016C5.276 4.808 4.884 4.704 4.356 4.704H2.4V7.128ZM11.7177 12.12C11.1097 12.12 10.5817 11.996 10.1337 11.748C9.68572 11.5 9.33772 11.148 9.08972 10.692C8.84172 10.228 8.71772 9.684 8.71772 9.06C8.71772 8.436 8.84172 7.896 9.08972 7.44C9.33772 6.984 9.68572 6.632 10.1337 6.384C10.5817 6.136 11.1097 6.012 11.7177 6.012C12.3257 6.012 12.8537 6.136 13.3017 6.384C13.7497 6.632 14.0977 6.984 14.3457 7.44C14.5937 7.896 14.7177 8.436 14.7177 9.06C14.7177 9.684 14.5937 10.228 14.3457 10.692C14.0977 11.148 13.7497 11.5 13.3017 11.748C12.8537 11.996 12.3257 12.12 11.7177 12.12ZM11.7177 10.98C12.1657 10.98 12.5257 10.82 12.7977 10.5C13.0697 10.172 13.2057 9.692 13.2057 9.06C13.2057 8.42 13.0697 7.944 12.7977 7.632C12.5257 7.312 12.1657 7.152 11.7177 7.152C11.2697 7.152 10.9097 7.312 10.6377 7.632C10.3657 7.944 10.2297 8.42 10.2297 9.06C10.2297 9.692 10.3657 10.172 10.6377 10.5C10.9097 10.82 11.2697 10.98 11.7177 10.98ZM18.5852 12.12C17.8012 12.12 17.2172 11.924 16.8332 11.532C16.4492 11.14 16.2572 10.568 16.2572 9.816V7.26H15.1292V6.132H16.2572V4.38H17.7572V6.132H19.5332V7.26H17.7572V9.732C17.7572 10.116 17.8412 10.404 18.0092 10.596C18.1772 10.788 18.4492 10.884 18.8252 10.884C18.9372 10.884 19.0532 10.872 19.1732 10.848C19.2932 10.816 19.4172 10.784 19.5452 10.752L19.7732 11.856C19.6292 11.936 19.4452 12 19.2212 12.048C19.0052 12.096 18.7932 12.12 18.5852 12.12ZM22.8508 12.12C22.0668 12.12 21.4828 11.924 21.0988 11.532C20.7148 11.14 20.5228 10.568 20.5228 9.816V7.26H19.3948V6.132H20.5228V4.38H22.0228V6.132H23.7988V7.26H22.0228V9.732C22.0228 10.116 22.1068 10.404 22.2748 10.596C22.4428 10.788 22.7148 10.884 23.0908 10.884C23.2028 10.884 23.3188 10.872 23.4388 10.848C23.5588 10.816 23.6828 10.784 23.8108 10.752L24.0388 11.856C23.8948 11.936 23.7108 12 23.4868 12.048C23.2708 12.096 23.0588 12.12 22.8508 12.12ZM27.3857 12.12C26.7777 12.12 26.2497 11.996 25.8017 11.748C25.3537 11.5 25.0057 11.148 24.7577 10.692C24.5097 10.228 24.3857 9.684 24.3857 9.06C24.3857 8.436 24.5097 7.896 24.7577 7.44C25.0057 6.984 25.3537 6.632 25.8017 6.384C26.2497 6.136 26.7777 6.012 27.3857 6.012C27.9937 6.012 28.5217 6.136 28.9697 6.384C29.4177 6.632 29.7657 6.984 30.0137 7.44C30.2617 7.896 30.3857 8.436 30.3857 9.06C30.3857 9.684 30.2617 10.228 30.0137 10.692C29.7657 11.148 29.4177 11.5 28.9697 11.748C28.5217 11.996 27.9937 12.12 27.3857 12.12ZM27.3857 10.98C27.8337 10.98 28.1937 10.82 28.4657 10.5C28.7377 10.172 28.8737 9.692 28.8737 9.06C28.8737 8.42 28.7377 7.944 28.4657 7.632C28.1937 7.312 27.8337 7.152 27.3857 7.152C26.9377 7.152 26.5777 7.312 26.3057 7.632C26.0337 7.944 25.8977 8.42 25.8977 9.06C25.8977 9.692 26.0337 10.172 26.3057 10.5C26.5777 10.82 26.9377 10.98 27.3857 10.98ZM31.6478 12V6.132H33.1118V7.308H32.9798C33.0838 7.036 33.2278 6.804 33.4118 6.612C33.5958 6.42 33.8158 6.272 34.0718 6.168C34.3278 6.064 34.6118 6.012 34.9238 6.012C35.3958 6.012 35.7838 6.124 36.0878 6.348C36.3918 6.572 36.6038 6.916 36.7238 7.38H36.5558C36.7158 6.956 36.9798 6.624 37.3478 6.384C37.7158 6.136 38.1398 6.012 38.6198 6.012C39.0678 6.012 39.4358 6.1 39.7238 6.276C40.0198 6.452 40.2398 6.72 40.3838 7.08C40.5278 7.432 40.5998 7.88 40.5998 8.424V12H39.0998V8.484C39.0998 8.036 39.0238 7.708 38.8718 7.5C38.7278 7.292 38.4798 7.188 38.1278 7.188C37.8718 7.188 37.6478 7.252 37.4557 7.38C37.2638 7.5 37.1158 7.676 37.0117 7.908C36.9158 8.14 36.8678 8.42 36.8678 8.748V12H35.3678V8.484C35.3678 8.036 35.2918 7.708 35.1398 7.5C34.9958 7.292 34.7518 7.188 34.4078 7.188C34.1438 7.188 33.9158 7.252 33.7238 7.38C33.5398 7.5 33.3958 7.676 33.2918 7.908C33.1958 8.14 33.1478 8.42 33.1478 8.748V12H31.6478Z" fill="#7D2E5A"/>
<path d="M1.12 28.7598L4.58 22.0698L4.6 22.4598H0.66V21.7098H5.34V22.3498L2.06 28.7598H1.12ZM7.07609 28.7598V28.0298H8.84609V22.4198L9.29609 22.4498L7.42609 23.6498L7.04609 22.9998L9.07609 21.7098H9.69609V28.0298H11.3361V28.7598H7.07609ZM15.508 28.7598V23.8598H16.318V24.9398H16.258C16.3446 24.7064 16.4646 24.5031 16.618 24.3298C16.778 24.1498 16.968 24.0131 17.188 23.9198C17.408 23.8198 17.6513 23.7698 17.918 23.7698C18.338 23.7698 18.6813 23.8731 18.948 24.0798C19.2146 24.2864 19.388 24.5764 19.468 24.9498H19.388C19.5146 24.6031 19.728 24.3198 20.028 24.0998C20.328 23.8798 20.6913 23.7698 21.118 23.7698C21.4913 23.7698 21.8013 23.8431 22.048 23.9898C22.2946 24.1298 22.4813 24.3431 22.608 24.6298C22.7346 24.9164 22.798 25.2798 22.798 25.7198V28.7598H21.958V25.7698C21.958 25.3364 21.878 25.0131 21.718 24.7998C21.5646 24.5864 21.298 24.4798 20.918 24.4798C20.6446 24.4798 20.4046 24.5464 20.198 24.6798C19.998 24.8064 19.8446 24.9831 19.738 25.2098C19.6313 25.4364 19.578 25.7031 19.578 26.0098V28.7598H18.728V25.7698C18.728 25.3364 18.6446 25.0131 18.478 24.7998C18.318 24.5864 18.058 24.4798 17.698 24.4798C17.4246 24.4798 17.1846 24.5464 16.978 24.6798C16.778 24.8131 16.6246 24.9964 16.518 25.2298C16.4113 25.4564 16.358 25.7098 16.358 25.9898V28.7598H15.508ZM24.4533 28.7598V23.8598H25.2633V24.9398H25.2033C25.2899 24.7064 25.4099 24.5031 25.5633 24.3298C25.7233 24.1498 25.9133 24.0131 26.1333 23.9198C26.3533 23.8198 26.5966 23.7698 26.8633 23.7698C27.2833 23.7698 27.6266 23.8731 27.8933 24.0798C28.1599 24.2864 28.3333 24.5764 28.4133 24.9498H28.3333C28.4599 24.6031 28.6733 24.3198 28.9733 24.0998C29.2733 23.8798 29.6366 23.7698 30.0633 23.7698C30.4366 23.7698 30.7466 23.8431 30.9933 23.9898C31.2399 24.1298 31.4266 24.3431 31.5533 24.6298C31.6799 24.9164 31.7433 25.2798 31.7433 25.7198V28.7598H30.9033V25.7698C30.9033 25.3364 30.8233 25.0131 30.6633 24.7998C30.5099 24.5864 30.2433 24.4798 29.8633 24.4798C29.5899 24.4798 29.3499 24.5464 29.1433 24.6798C28.9433 24.8064 28.7899 24.9831 28.6833 25.2098C28.5766 25.4364 28.5233 25.7031 28.5233 26.0098V28.7598H27.6733V25.7698C27.6733 25.3364 27.5899 25.0131 27.4233 24.7998C27.2633 24.5864 27.0033 24.4798 26.6433 24.4798C26.3699 24.4798 26.1299 24.5464 25.9233 24.6798C25.7233 24.8131 25.5699 24.9964 25.4633 25.2298C25.3566 25.4564 25.3033 25.7098 25.3033 25.9898V28.7598H24.4533Z" fill="black"/>
</svg>
