<svg width="76" height="33" viewBox="0 0 76 33" fill="none" xmlns="http://www.w3.org/2000/svg">
<path d="M0.924 12V3.54H2.46V7.068H6.816V3.54H8.352V12H6.816V8.352H2.46V12H0.924ZM12.9533 12.12C12.2893 12.12 11.7173 11.996 11.2373 11.748C10.7573 11.5 10.3853 11.148 10.1213 10.692C9.86525 10.236 9.73725 9.696 9.73725 9.072C9.73725 8.464 9.86125 7.932 10.1093 7.476C10.3653 7.02 10.7133 6.664 11.1533 6.408C11.6013 6.144 12.1093 6.012 12.6773 6.012C13.2373 6.012 13.7173 6.132 14.1173 6.372C14.5173 6.612 14.8253 6.952 15.0413 7.392C15.2653 7.832 15.3773 8.356 15.3773 8.964V9.408H10.9493V8.544H14.3213L14.1293 8.724C14.1293 8.18 14.0093 7.764 13.7693 7.476C13.5293 7.18 13.1853 7.032 12.7373 7.032C12.4013 7.032 12.1133 7.112 11.8733 7.272C11.6413 7.424 11.4613 7.644 11.3333 7.932C11.2133 8.212 11.1533 8.548 11.1533 8.94V9.024C11.1533 9.464 11.2213 9.828 11.3573 10.116C11.4933 10.404 11.6973 10.62 11.9693 10.764C12.2413 10.908 12.5773 10.98 12.9773 10.98C13.3053 10.98 13.6333 10.932 13.9613 10.836C14.2893 10.732 14.5893 10.572 14.8613 10.356L15.2812 11.364C15.0013 11.596 14.6493 11.78 14.2253 11.916C13.8013 12.052 13.3773 12.12 12.9533 12.12ZM16.4692 4.872V3.408H18.1492V4.872H16.4692ZM16.5652 12V6.132H18.0652V12H16.5652ZM22.3598 14.28C21.8158 14.28 21.3038 14.216 20.8238 14.088C20.3518 13.968 19.9358 13.78 19.5758 13.524L20.0078 12.48C20.2318 12.624 20.4678 12.744 20.7158 12.84C20.9638 12.944 21.2158 13.02 21.4718 13.068C21.7278 13.116 21.9838 13.14 22.2398 13.14C22.7758 13.14 23.1758 13.008 23.4398 12.744C23.7118 12.488 23.8478 12.104 23.8478 11.592V10.512H23.9558C23.8358 10.92 23.5838 11.248 23.1998 11.496C22.8238 11.736 22.3958 11.856 21.9158 11.856C21.3878 11.856 20.9278 11.736 20.5358 11.496C20.1438 11.248 19.8398 10.904 19.6238 10.464C19.4078 10.024 19.2998 9.512 19.2998 8.928C19.2998 8.344 19.4078 7.836 19.6238 7.404C19.8398 6.964 20.1438 6.624 20.5358 6.384C20.9278 6.136 21.3878 6.012 21.9158 6.012C22.4118 6.012 22.8438 6.136 23.2118 6.384C23.5878 6.624 23.8318 6.944 23.9438 7.344H23.8478V6.132H25.3118V11.412C25.3118 12.044 25.1998 12.572 24.9758 12.996C24.7518 13.428 24.4198 13.748 23.9798 13.956C23.5398 14.172 22.9998 14.28 22.3598 14.28ZM22.3238 10.716C22.7878 10.716 23.1558 10.556 23.4278 10.236C23.6998 9.916 23.8358 9.48 23.8358 8.928C23.8358 8.376 23.6998 7.944 23.4278 7.632C23.1558 7.312 22.7878 7.152 22.3238 7.152C21.8598 7.152 21.4918 7.312 21.2198 7.632C20.9478 7.944 20.8118 8.376 20.8118 8.928C20.8118 9.48 20.9478 9.916 21.2198 10.236C21.4918 10.556 21.8598 10.716 22.3238 10.716ZM26.8659 12V3.54H28.3659V7.308H28.1979C28.3739 6.884 28.6459 6.564 29.0139 6.348C29.3899 6.124 29.8139 6.012 30.2859 6.012C30.7579 6.012 31.1459 6.1 31.4499 6.276C31.7539 6.452 31.9819 6.72 32.1339 7.08C32.2859 7.432 32.3619 7.88 32.3619 8.424V12H30.8619V8.496C30.8619 8.192 30.8219 7.944 30.7419 7.752C30.6699 7.56 30.5539 7.42 30.3939 7.332C30.2419 7.236 30.0459 7.188 29.8059 7.188C29.5179 7.188 29.2659 7.252 29.0499 7.38C28.8339 7.5 28.6659 7.676 28.5459 7.908C28.4259 8.132 28.3659 8.396 28.3659 8.7V12H26.8659ZM36.5735 12.12C35.7895 12.12 35.2055 11.924 34.8215 11.532C34.4375 11.14 34.2455 10.568 34.2455 9.816V7.26H33.1175V6.132H34.2455V4.38H35.7455V6.132H37.5215V7.26H35.7455V9.732C35.7455 10.116 35.8295 10.404 35.9975 10.596C36.1655 10.788 36.4375 10.884 36.8135 10.884C36.9255 10.884 37.0415 10.872 37.1615 10.848C37.2815 10.816 37.4055 10.784 37.5335 10.752L37.7615 11.856C37.6175 11.936 37.4335 12 37.2095 12.048C36.9935 12.096 36.7815 12.12 36.5735 12.12Z" fill="#7D2E5A"/>
<path d="M3.12 28.6525C2.81333 28.6525 2.51667 28.6192 2.23 28.5525C1.94333 28.4858 1.67667 28.3892 1.43 28.2625C1.18333 28.1358 0.963333 27.9825 0.77 27.8025L1.1 27.1225C1.41333 27.3892 1.73333 27.5858 2.06 27.7125C2.38667 27.8392 2.73667 27.9025 3.11 27.9025C3.60333 27.9025 3.98667 27.7692 4.26 27.5025C4.54 27.2358 4.68 26.8758 4.68 26.4225C4.68 25.9625 4.54667 25.5892 4.28 25.3025C4.02 25.0158 3.66 24.8725 3.2 24.8725C2.87333 24.8725 2.58333 24.9392 2.33 25.0725C2.07667 25.1992 1.84667 25.4092 1.64 25.7025H0.99V21.5125H5.14V22.2525H1.8V24.9725H1.66C1.83333 24.7192 2.06333 24.5192 2.35 24.3725C2.64333 24.2192 2.97333 24.1425 3.34 24.1425C3.78667 24.1425 4.17333 24.2358 4.5 24.4225C4.82667 24.6092 5.07667 24.8692 5.25 25.2025C5.43 25.5358 5.52 25.9258 5.52 26.3725C5.52 26.8325 5.42 27.2325 5.22 27.5725C5.02667 27.9125 4.75 28.1792 4.39 28.3725C4.03667 28.5592 3.61333 28.6525 3.12 28.6525ZM9.11609 28.6525C8.80943 28.6525 8.51276 28.6192 8.22609 28.5525C7.93943 28.4858 7.67276 28.3892 7.42609 28.2625C7.17943 28.1358 6.95943 27.9825 6.76609 27.8025L7.09609 27.1225C7.40943 27.3892 7.72943 27.5858 8.05609 27.7125C8.38276 27.8392 8.73276 27.9025 9.10609 27.9025C9.59943 27.9025 9.98276 27.7692 10.2561 27.5025C10.5361 27.2358 10.6761 26.8758 10.6761 26.4225C10.6761 25.9625 10.5428 25.5892 10.2761 25.3025C10.0161 25.0158 9.65609 24.8725 9.19609 24.8725C8.86943 24.8725 8.57943 24.9392 8.32609 25.0725C8.07276 25.1992 7.84276 25.4092 7.63609 25.7025H6.98609V21.5125H11.1361V22.2525H7.79609V24.9725H7.65609C7.82943 24.7192 8.05943 24.5192 8.34609 24.3725C8.63943 24.2192 8.96943 24.1425 9.33609 24.1425C9.78276 24.1425 10.1694 24.2358 10.4961 24.4225C10.8228 24.6092 11.0728 24.8692 11.2461 25.2025C11.4261 25.5358 11.5161 25.9258 11.5161 26.3725C11.5161 26.8325 11.4161 27.2325 11.2161 27.5725C11.0228 27.9125 10.7461 28.1792 10.3861 28.3725C10.0328 28.5592 9.60943 28.6525 9.11609 28.6525ZM15.508 28.5625V23.6625H16.318V24.7425H16.258C16.3446 24.5092 16.4646 24.3058 16.618 24.1325C16.778 23.9525 16.968 23.8158 17.188 23.7225C17.408 23.6225 17.6513 23.5725 17.918 23.5725C18.338 23.5725 18.6813 23.6758 18.948 23.8825C19.2146 24.0892 19.388 24.3792 19.468 24.7525H19.388C19.5146 24.4058 19.728 24.1225 20.028 23.9025C20.328 23.6825 20.6913 23.5725 21.118 23.5725C21.4913 23.5725 21.8013 23.6458 22.048 23.7925C22.2946 23.9325 22.4813 24.1458 22.608 24.4325C22.7346 24.7192 22.798 25.0825 22.798 25.5225V28.5625H21.958V25.5725C21.958 25.1392 21.878 24.8158 21.718 24.6025C21.5646 24.3892 21.298 24.2825 20.918 24.2825C20.6446 24.2825 20.4046 24.3492 20.198 24.4825C19.998 24.6092 19.8446 24.7858 19.738 25.0125C19.6313 25.2392 19.578 25.5058 19.578 25.8125V28.5625H18.728V25.5725C18.728 25.1392 18.6446 24.8158 18.478 24.6025C18.318 24.3892 18.058 24.2825 17.698 24.2825C17.4246 24.2825 17.1846 24.3492 16.978 24.4825C16.778 24.6158 16.6246 24.7992 16.518 25.0325C16.4113 25.2592 16.358 25.5125 16.358 25.7925V28.5625H15.508ZM24.4533 28.5625V23.6625H25.2633V24.7425H25.2033C25.2899 24.5092 25.4099 24.3058 25.5633 24.1325C25.7233 23.9525 25.9133 23.8158 26.1333 23.7225C26.3533 23.6225 26.5966 23.5725 26.8633 23.5725C27.2833 23.5725 27.6266 23.6758 27.8933 23.8825C28.1599 24.0892 28.3333 24.3792 28.4133 24.7525H28.3333C28.4599 24.4058 28.6733 24.1225 28.9733 23.9025C29.2733 23.6825 29.6366 23.5725 30.0633 23.5725C30.4366 23.5725 30.7466 23.6458 30.9933 23.7925C31.2399 23.9325 31.4266 24.1458 31.5533 24.4325C31.6799 24.7192 31.7433 25.0825 31.7433 25.5225V28.5625H30.9033V25.5725C30.9033 25.1392 30.8233 24.8158 30.6633 24.6025C30.5099 24.3892 30.2433 24.2825 29.8633 24.2825C29.5899 24.2825 29.3499 24.3492 29.1433 24.4825C28.9433 24.6092 28.7899 24.7858 28.6833 25.0125C28.5766 25.2392 28.5233 25.5058 28.5233 25.8125V28.5625H27.6733V25.5725C27.6733 25.1392 27.5899 24.8158 27.4233 24.6025C27.2633 24.3892 27.0033 24.2825 26.6433 24.2825C26.3699 24.2825 26.1299 24.3492 25.9233 24.4825C25.7233 24.6158 25.5699 24.7992 25.4633 25.0325C25.3566 25.2592 25.3033 25.5125 25.3033 25.7925V28.5625H24.4533Z" fill="black"/>
</svg>
