<svg width="76" height="33" viewBox="0 0 76 33" fill="none" xmlns="http://www.w3.org/2000/svg">
<path d="M0.924 12V3.54H4.596C5.22 3.54 5.748 3.644 6.18 3.852C6.612 4.06 6.94 4.36 7.164 4.752C7.388 5.144 7.5 5.62 7.5 6.18C7.5 6.732 7.388 7.208 7.164 7.608C6.94 8 6.612 8.304 6.18 8.52C5.748 8.728 5.22 8.832 4.596 8.832H2.46V12H0.924ZM2.46 7.62H4.356C4.9 7.62 5.312 7.5 5.592 7.26C5.872 7.012 6.012 6.652 6.012 6.18C6.012 5.708 5.872 5.352 5.592 5.112C5.312 4.872 4.9 4.752 4.356 4.752H2.46V7.62ZM8.49094 12V6.132H9.95494V7.548H9.83494C9.94694 7.068 10.1669 6.704 10.4949 6.456C10.8229 6.2 11.2589 6.052 11.8029 6.012L12.2589 5.976L12.3549 7.248L11.4909 7.332C11.0029 7.38 10.6349 7.532 10.3869 7.788C10.1389 8.036 10.0149 8.388 10.0149 8.844V12H8.49094ZM15.7724 12.12C15.1644 12.12 14.6364 11.996 14.1884 11.748C13.7404 11.5 13.3924 11.148 13.1444 10.692C12.8964 10.228 12.7724 9.684 12.7724 9.06C12.7724 8.436 12.8964 7.896 13.1444 7.44C13.3924 6.984 13.7404 6.632 14.1884 6.384C14.6364 6.136 15.1644 6.012 15.7724 6.012C16.3804 6.012 16.9084 6.136 17.3564 6.384C17.8044 6.632 18.1524 6.984 18.4004 7.44C18.6484 7.896 18.7724 8.436 18.7724 9.06C18.7724 9.684 18.6484 10.228 18.4004 10.692C18.1524 11.148 17.8044 11.5 17.3564 11.748C16.9084 11.996 16.3804 12.12 15.7724 12.12ZM15.7724 10.98C16.2204 10.98 16.5804 10.82 16.8524 10.5C17.1244 10.172 17.2604 9.692 17.2604 9.06C17.2604 8.42 17.1244 7.944 16.8524 7.632C16.5804 7.312 16.2204 7.152 15.7724 7.152C15.3244 7.152 14.9644 7.312 14.6924 7.632C14.4204 7.944 14.2844 8.42 14.2844 9.06C14.2844 9.692 14.4204 10.172 14.6924 10.5C14.9644 10.82 15.3244 10.98 15.7724 10.98ZM22.2665 12.12C21.7545 12.12 21.3025 11.996 20.9105 11.748C20.5265 11.5 20.2265 11.148 20.0105 10.692C19.7945 10.228 19.6865 9.684 19.6865 9.06C19.6865 8.428 19.7945 7.888 20.0105 7.44C20.2265 6.984 20.5265 6.632 20.9105 6.384C21.3025 6.136 21.7545 6.012 22.2665 6.012C22.7545 6.012 23.1785 6.132 23.5385 6.372C23.9065 6.612 24.1545 6.928 24.2825 7.32H24.1505V3.54H25.6505V12H24.1865V10.752H24.2945C24.1745 11.168 23.9305 11.5 23.5625 11.748C23.1945 11.996 22.7625 12.12 22.2665 12.12ZM22.6865 10.98C23.1345 10.98 23.4945 10.82 23.7665 10.5C24.0385 10.172 24.1745 9.692 24.1745 9.06C24.1745 8.42 24.0385 7.944 23.7665 7.632C23.4945 7.312 23.1345 7.152 22.6865 7.152C22.2385 7.152 21.8785 7.312 21.6065 7.632C21.3345 7.944 21.1985 8.42 21.1985 9.06C21.1985 9.692 21.3345 10.172 21.6065 10.5C21.8785 10.82 22.2385 10.98 22.6865 10.98ZM29.3298 12.12C28.8418 12.12 28.4378 12.032 28.1178 11.856C27.7978 11.672 27.5578 11.4 27.3978 11.04C27.2458 10.68 27.1698 10.232 27.1698 9.696V6.132H28.6698V9.72C28.6698 9.992 28.7058 10.22 28.7778 10.404C28.8578 10.588 28.9738 10.724 29.1258 10.812C29.2858 10.9 29.4858 10.944 29.7258 10.944C29.9978 10.944 30.2338 10.884 30.4338 10.764C30.6418 10.636 30.8018 10.46 30.9138 10.236C31.0338 10.004 31.0938 9.736 31.0938 9.432V6.132H32.5938V12H31.1298V10.776H31.2978C31.1298 11.208 30.8738 11.54 30.5298 11.772C30.1938 12.004 29.7938 12.12 29.3298 12.12ZM36.867 12.12C36.251 12.12 35.715 11.996 35.259 11.748C34.803 11.492 34.451 11.132 34.203 10.668C33.955 10.204 33.831 9.66 33.831 9.036C33.831 8.412 33.955 7.876 34.203 7.428C34.451 6.972 34.803 6.624 35.259 6.384C35.715 6.136 36.251 6.012 36.867 6.012C37.243 6.012 37.615 6.072 37.983 6.192C38.351 6.312 38.655 6.48 38.895 6.696L38.451 7.74C38.243 7.556 38.007 7.416 37.743 7.32C37.487 7.224 37.239 7.176 36.999 7.176C36.479 7.176 36.075 7.34 35.787 7.668C35.507 7.988 35.367 8.448 35.367 9.048C35.367 9.64 35.507 10.108 35.787 10.452C36.075 10.788 36.479 10.956 36.999 10.956C37.231 10.956 37.479 10.908 37.743 10.812C38.007 10.716 38.243 10.572 38.451 10.38L38.895 11.436C38.655 11.644 38.347 11.812 37.971 11.94C37.603 12.06 37.235 12.12 36.867 12.12ZM42.5266 12.12C41.7426 12.12 41.1586 11.924 40.7746 11.532C40.3906 11.14 40.1986 10.568 40.1986 9.816V7.26H39.0706V6.132H40.1986V4.38H41.6986V6.132H43.4746V7.26H41.6986V9.732C41.6986 10.116 41.7826 10.404 41.9506 10.596C42.1186 10.788 42.3906 10.884 42.7666 10.884C42.8786 10.884 42.9946 10.872 43.1146 10.848C43.2346 10.816 43.3586 10.784 43.4866 10.752L43.7146 11.856C43.5706 11.936 43.3866 12 43.1626 12.048C42.9466 12.096 42.7346 12.12 42.5266 12.12ZM51.7584 12.12C50.8784 12.12 50.1224 11.944 49.4904 11.592C48.8664 11.232 48.3864 10.728 48.0504 10.08C47.7144 9.424 47.5464 8.652 47.5464 7.764C47.5464 6.876 47.7144 6.108 48.0504 5.46C48.3864 4.812 48.8664 4.312 49.4904 3.96C50.1224 3.6 50.8784 3.42 51.7584 3.42C52.3264 3.42 52.8624 3.508 53.3664 3.684C53.8784 3.86 54.2984 4.112 54.6264 4.44L54.1224 5.664C53.7624 5.36 53.3944 5.14 53.0184 5.004C52.6424 4.86 52.2384 4.788 51.8064 4.788C50.9504 4.788 50.2984 5.048 49.8504 5.568C49.4024 6.08 49.1784 6.812 49.1784 7.764C49.1784 8.716 49.4024 9.452 49.8504 9.972C50.2984 10.492 50.9504 10.752 51.8064 10.752C52.2384 10.752 52.6424 10.684 53.0184 10.548C53.3944 10.404 53.7624 10.18 54.1224 9.876L54.6264 11.1C54.2984 11.42 53.8784 11.672 53.3664 11.856C52.8624 12.032 52.3264 12.12 51.7584 12.12ZM58.0771 12.12C57.4691 12.12 56.9411 11.996 56.4931 11.748C56.0451 11.5 55.6971 11.148 55.4491 10.692C55.2011 10.228 55.0771 9.684 55.0771 9.06C55.0771 8.436 55.2011 7.896 55.4491 7.44C55.6971 6.984 56.0451 6.632 56.4931 6.384C56.9411 6.136 57.4691 6.012 58.0771 6.012C58.6851 6.012 59.2131 6.136 59.6611 6.384C60.1091 6.632 60.4571 6.984 60.7051 7.44C60.9531 7.896 61.0771 8.436 61.0771 9.06C61.0771 9.684 60.9531 10.228 60.7051 10.692C60.4571 11.148 60.1091 11.5 59.6611 11.748C59.2131 11.996 58.6851 12.12 58.0771 12.12ZM58.0771 10.98C58.5251 10.98 58.8851 10.82 59.1571 10.5C59.4291 10.172 59.5651 9.692 59.5651 9.06C59.5651 8.42 59.4291 7.944 59.1571 7.632C58.8851 7.312 58.5251 7.152 58.0771 7.152C57.6291 7.152 57.2691 7.312 56.9971 7.632C56.7251 7.944 56.5891 8.42 56.5891 9.06C56.5891 9.692 56.7251 10.172 56.9971 10.5C57.2691 10.82 57.6291 10.98 58.0771 10.98ZM64.5712 12.12C64.0592 12.12 63.6072 11.996 63.2152 11.748C62.8312 11.5 62.5312 11.148 62.3152 10.692C62.0992 10.228 61.9912 9.684 61.9912 9.06C61.9912 8.428 62.0992 7.888 62.3152 7.44C62.5312 6.984 62.8312 6.632 63.2152 6.384C63.6072 6.136 64.0592 6.012 64.5712 6.012C65.0592 6.012 65.4832 6.132 65.8432 6.372C66.2112 6.612 66.4592 6.928 66.5872 7.32H66.4552V3.54H67.9552V12H66.4912V10.752H66.5992C66.4792 11.168 66.2352 11.5 65.8672 11.748C65.4992 11.996 65.0672 12.12 64.5712 12.12ZM64.9912 10.98C65.4392 10.98 65.7992 10.82 66.0712 10.5C66.3432 10.172 66.4792 9.692 66.4792 9.06C66.4792 8.42 66.3432 7.944 66.0712 7.632C65.7992 7.312 65.4392 7.152 64.9912 7.152C64.5432 7.152 64.1832 7.312 63.9112 7.632C63.6392 7.944 63.5032 8.42 63.5032 9.06C63.5032 9.692 63.6392 10.172 63.9112 10.5C64.1832 10.82 64.5432 10.98 64.9912 10.98ZM72.4025 12.12C71.7385 12.12 71.1665 11.996 70.6865 11.748C70.2065 11.5 69.8345 11.148 69.5705 10.692C69.3145 10.236 69.1865 9.696 69.1865 9.072C69.1865 8.464 69.3105 7.932 69.5585 7.476C69.8145 7.02 70.1625 6.664 70.6025 6.408C71.0505 6.144 71.5585 6.012 72.1265 6.012C72.6865 6.012 73.1665 6.132 73.5665 6.372C73.9665 6.612 74.2745 6.952 74.4905 7.392C74.7145 7.832 74.8265 8.356 74.8265 8.964V9.408H70.3985V8.544H73.7705L73.5785 8.724C73.5785 8.18 73.4585 7.764 73.2185 7.476C72.9785 7.18 72.6345 7.032 72.1865 7.032C71.8505 7.032 71.5625 7.112 71.3225 7.272C71.0905 7.424 70.9105 7.644 70.7825 7.932C70.6625 8.212 70.6025 8.548 70.6025 8.94V9.024C70.6025 9.464 70.6705 9.828 70.8065 10.116C70.9425 10.404 71.1465 10.62 71.4185 10.764C71.6905 10.908 72.0265 10.98 72.4265 10.98C72.7545 10.98 73.0825 10.932 73.4105 10.836C73.7385 10.732 74.0385 10.572 74.3105 10.356L74.7305 11.364C74.4505 11.596 74.0985 11.78 73.6745 11.916C73.2505 12.052 72.8265 12.12 72.4025 12.12Z" fill="#7D2E5A"/>
<path d="M3 28.8498C2.20667 28.8498 1.58667 28.6798 1.14 28.3398C0.693333 27.9931 0.47 27.5131 0.47 26.8998C0.47 26.5731 0.533333 26.2864 0.66 26.0398C0.793333 25.7931 0.976667 25.5898 1.21 25.4298C1.44333 25.2698 1.71 25.1664 2.01 25.1198V25.1998C1.74333 25.1331 1.50667 25.0198 1.3 24.8598C1.09333 24.6998 0.93 24.5031 0.81 24.2698C0.696667 24.0364 0.64 23.7798 0.64 23.4998C0.64 22.9131 0.853333 22.4531 1.28 22.1198C1.70667 21.7864 2.28 21.6198 3 21.6198C3.72 21.6198 4.29333 21.7864 4.72 22.1198C5.14667 22.4531 5.36 22.9131 5.36 23.4998C5.36 23.7798 5.3 24.0398 5.18 24.2798C5.06667 24.5131 4.90667 24.7098 4.7 24.8698C4.5 25.0231 4.26333 25.1331 3.99 25.1998V25.1198C4.29 25.1664 4.55333 25.2698 4.78 25.4298C5.01333 25.5898 5.19667 25.7931 5.33 26.0398C5.46333 26.2864 5.53 26.5731 5.53 26.8998C5.53 27.5131 5.30667 27.9931 4.86 28.3398C4.41333 28.6798 3.79333 28.8498 3 28.8498ZM3 28.1398C3.56 28.1398 3.98333 28.0298 4.27 27.8098C4.56333 27.5898 4.71 27.2664 4.71 26.8398C4.71 26.4131 4.56333 26.0898 4.27 25.8698C3.98333 25.6498 3.56 25.5398 3 25.5398C2.44667 25.5398 2.02333 25.6498 1.73 25.8698C1.43667 26.0898 1.29 26.4131 1.29 26.8398C1.29 27.2664 1.43667 27.5898 1.73 27.8098C2.02333 28.0298 2.44667 28.1398 3 28.1398ZM3 24.8298C3.48667 24.8298 3.86667 24.7198 4.14 24.4998C4.41333 24.2731 4.55 23.9631 4.55 23.5698C4.55 23.1831 4.41333 22.8798 4.14 22.6598C3.86667 22.4398 3.48667 22.3298 3 22.3298C2.52 22.3298 2.14333 22.4398 1.87 22.6598C1.59667 22.8798 1.46 23.1831 1.46 23.5698C1.46 23.9631 1.59667 24.2731 1.87 24.4998C2.14333 24.7198 2.52 24.8298 3 24.8298ZM8.99609 28.8498C8.20276 28.8498 7.58276 28.6798 7.13609 28.3398C6.68943 27.9931 6.46609 27.5131 6.46609 26.8998C6.46609 26.5731 6.52943 26.2864 6.65609 26.0398C6.78943 25.7931 6.97276 25.5898 7.20609 25.4298C7.43943 25.2698 7.70609 25.1664 8.00609 25.1198V25.1998C7.73943 25.1331 7.50276 25.0198 7.29609 24.8598C7.08943 24.6998 6.92609 24.5031 6.80609 24.2698C6.69276 24.0364 6.63609 23.7798 6.63609 23.4998C6.63609 22.9131 6.84943 22.4531 7.27609 22.1198C7.70276 21.7864 8.27609 21.6198 8.99609 21.6198C9.71609 21.6198 10.2894 21.7864 10.7161 22.1198C11.1428 22.4531 11.3561 22.9131 11.3561 23.4998C11.3561 23.7798 11.2961 24.0398 11.1761 24.2798C11.0628 24.5131 10.9028 24.7098 10.6961 24.8698C10.4961 25.0231 10.2594 25.1331 9.98609 25.1998V25.1198C10.2861 25.1664 10.5494 25.2698 10.7761 25.4298C11.0094 25.5898 11.1928 25.7931 11.3261 26.0398C11.4594 26.2864 11.5261 26.5731 11.5261 26.8998C11.5261 27.5131 11.3028 27.9931 10.8561 28.3398C10.4094 28.6798 9.78943 28.8498 8.99609 28.8498ZM8.99609 28.1398C9.55609 28.1398 9.97943 28.0298 10.2661 27.8098C10.5594 27.5898 10.7061 27.2664 10.7061 26.8398C10.7061 26.4131 10.5594 26.0898 10.2661 25.8698C9.97943 25.6498 9.55609 25.5398 8.99609 25.5398C8.44276 25.5398 8.01943 25.6498 7.72609 25.8698C7.43276 26.0898 7.28609 26.4131 7.28609 26.8398C7.28609 27.2664 7.43276 27.5898 7.72609 27.8098C8.01943 28.0298 8.44276 28.1398 8.99609 28.1398ZM8.99609 24.8298C9.48276 24.8298 9.86276 24.7198 10.1361 24.4998C10.4094 24.2731 10.5461 23.9631 10.5461 23.5698C10.5461 23.1831 10.4094 22.8798 10.1361 22.6598C9.86276 22.4398 9.48276 22.3298 8.99609 22.3298C8.51609 22.3298 8.13943 22.4398 7.86609 22.6598C7.59276 22.8798 7.45609 23.1831 7.45609 23.5698C7.45609 23.9631 7.59276 24.2731 7.86609 24.4998C8.13943 24.7198 8.51609 24.8298 8.99609 24.8298ZM14.5322 28.8498C14.2789 28.8498 14.0289 28.8198 13.7822 28.7598C13.5422 28.6931 13.3122 28.5964 13.0922 28.4698C12.8789 28.3431 12.6855 28.1898 12.5122 28.0098L12.8422 27.3498C13.0955 27.6164 13.3655 27.8098 13.6522 27.9298C13.9389 28.0431 14.2355 28.0998 14.5422 28.0998C14.8689 28.0998 15.1555 28.0398 15.4022 27.9198C15.6555 27.7931 15.8689 27.6098 16.0422 27.3698C16.2155 27.1231 16.3455 26.8198 16.4322 26.4598C16.5255 26.0931 16.5722 25.6764 16.5722 25.2098V24.4498H16.6122C16.5589 24.7898 16.4422 25.0898 16.2622 25.3498C16.0822 25.6031 15.8522 25.7964 15.5722 25.9298C15.2989 26.0631 14.9922 26.1298 14.6522 26.1298C14.2322 26.1298 13.8589 26.0364 13.5322 25.8498C13.2122 25.6631 12.9589 25.4031 12.7722 25.0698C12.5922 24.7298 12.5022 24.3431 12.5022 23.9098C12.5022 23.4631 12.5989 23.0698 12.7922 22.7298C12.9855 22.3831 13.2522 22.1131 13.5922 21.9198C13.9322 21.7198 14.3189 21.6198 14.7522 21.6198C15.3189 21.6198 15.7955 21.7564 16.1822 22.0298C16.5755 22.2964 16.8722 22.6864 17.0722 23.1998C17.2789 23.7131 17.3822 24.3364 17.3822 25.0698C17.3822 25.8764 17.2689 26.5631 17.0422 27.1298C16.8155 27.6898 16.4889 28.1164 16.0622 28.4098C15.6422 28.7031 15.1322 28.8498 14.5322 28.8498ZM14.8122 25.4098C15.1055 25.4098 15.3655 25.3464 15.5922 25.2198C15.8189 25.0931 15.9955 24.9131 16.1222 24.6798C16.2489 24.4464 16.3122 24.1798 16.3122 23.8798C16.3122 23.5731 16.2489 23.3064 16.1222 23.0798C15.9955 22.8464 15.8189 22.6664 15.5922 22.5398C15.3722 22.4064 15.1089 22.3398 14.8022 22.3398C14.5089 22.3398 14.2489 22.4064 14.0222 22.5398C13.8022 22.6731 13.6289 22.8564 13.5022 23.0898C13.3822 23.3164 13.3222 23.5798 13.3222 23.8798C13.3222 24.1864 13.3855 24.4564 13.5122 24.6898C13.6389 24.9164 13.8122 25.0931 14.0322 25.2198C14.2589 25.3464 14.5189 25.4098 14.8122 25.4098ZM20.9883 28.8498C20.4483 28.8498 19.9916 28.7131 19.6183 28.4398C19.2516 28.1598 18.9749 27.7531 18.7883 27.2198C18.6016 26.6798 18.5083 26.0164 18.5083 25.2298C18.5083 24.4431 18.6016 23.7831 18.7883 23.2498C18.9749 22.7098 19.2516 22.3031 19.6183 22.0298C19.9916 21.7564 20.4483 21.6198 20.9883 21.6198C21.5349 21.6198 21.9916 21.7564 22.3583 22.0298C22.7249 22.3031 23.0016 22.7064 23.1883 23.2398C23.3749 23.7731 23.4683 24.4331 23.4683 25.2198C23.4683 26.0064 23.3749 26.6698 23.1883 27.2098C23.0016 27.7498 22.7216 28.1598 22.3483 28.4398C21.9816 28.7131 21.5283 28.8498 20.9883 28.8498ZM20.9883 28.1098C21.5416 28.1098 21.9516 27.8764 22.2183 27.4098C22.4849 26.9364 22.6183 26.2064 22.6183 25.2198C22.6183 24.2331 22.4849 23.5098 22.2183 23.0498C21.9583 22.5898 21.5483 22.3598 20.9883 22.3598C20.4349 22.3598 20.0249 22.5931 19.7583 23.0598C19.4916 23.5198 19.3583 24.2431 19.3583 25.2298C19.3583 26.2098 19.4916 26.9364 19.7583 27.4098C20.0249 27.8764 20.4349 28.1098 20.9883 28.1098Z" fill="black"/>
</svg>
