<svg width="76" height="33" viewBox="0 0 76 33" fill="none" xmlns="http://www.w3.org/2000/svg">
<path d="M2.964 12V4.824H0.06V3.54H7.404V4.824H4.5V12H2.964ZM9.97163 12.12C9.36363 12.12 8.83563 11.996 8.38763 11.748C7.93963 11.5 7.59163 11.148 7.34363 10.692C7.09563 10.228 6.97163 9.684 6.97163 9.06C6.97163 8.436 7.09563 7.896 7.34363 7.44C7.59163 6.984 7.93963 6.632 8.38763 6.384C8.83563 6.136 9.36363 6.012 9.97163 6.012C10.5796 6.012 11.1076 6.136 11.5556 6.384C12.0036 6.632 12.3516 6.984 12.5996 7.44C12.8476 7.896 12.9716 8.436 12.9716 9.06C12.9716 9.684 12.8476 10.228 12.5996 10.692C12.3516 11.148 12.0036 11.5 11.5556 11.748C11.1076 11.996 10.5796 12.12 9.97163 12.12ZM9.97163 10.98C10.4196 10.98 10.7796 10.82 11.0516 10.5C11.3236 10.172 11.4596 9.692 11.4596 9.06C11.4596 8.42 11.3236 7.944 11.0516 7.632C10.7796 7.312 10.4196 7.152 9.97163 7.152C9.52363 7.152 9.16363 7.312 8.89163 7.632C8.61963 7.944 8.48363 8.42 8.48363 9.06C8.48363 9.692 8.61963 10.172 8.89163 10.5C9.16363 10.82 9.52363 10.98 9.97163 10.98ZM14.2097 14.16V6.132H15.6737V7.368H15.5537C15.6737 6.96 15.9177 6.632 16.2857 6.384C16.6617 6.136 17.0977 6.012 17.5937 6.012C18.1057 6.012 18.5537 6.136 18.9377 6.384C19.3297 6.632 19.6337 6.984 19.8497 7.44C20.0657 7.888 20.1737 8.428 20.1737 9.06C20.1737 9.684 20.0657 10.228 19.8497 10.692C19.6337 11.148 19.3337 11.5 18.9497 11.748C18.5657 11.996 18.1137 12.12 17.5937 12.12C17.1057 12.12 16.6777 12 16.3097 11.76C15.9417 11.512 15.6937 11.192 15.5657 10.8H15.7097V14.16H14.2097ZM17.1737 10.98C17.6217 10.98 17.9817 10.82 18.2537 10.5C18.5257 10.172 18.6617 9.692 18.6617 9.06C18.6617 8.42 18.5257 7.944 18.2537 7.632C17.9817 7.312 17.6217 7.152 17.1737 7.152C16.7257 7.152 16.3657 7.312 16.0937 7.632C15.8217 7.944 15.6857 8.42 15.6857 9.06C15.6857 9.692 15.8217 10.172 16.0937 10.5C16.3657 10.82 16.7257 10.98 17.1737 10.98Z" fill="#7D2E5A"/>
<path d="M3 28.6525C2.20667 28.6525 1.58667 28.4825 1.14 28.1425C0.693333 27.7958 0.47 27.3158 0.47 26.7025C0.47 26.3758 0.533333 26.0892 0.66 25.8425C0.793333 25.5958 0.976667 25.3925 1.21 25.2325C1.44333 25.0725 1.71 24.9692 2.01 24.9225V25.0025C1.74333 24.9358 1.50667 24.8225 1.3 24.6625C1.09333 24.5025 0.93 24.3058 0.81 24.0725C0.696667 23.8392 0.64 23.5825 0.64 23.3025C0.64 22.7158 0.853333 22.2558 1.28 21.9225C1.70667 21.5892 2.28 21.4225 3 21.4225C3.72 21.4225 4.29333 21.5892 4.72 21.9225C5.14667 22.2558 5.36 22.7158 5.36 23.3025C5.36 23.5825 5.3 23.8425 5.18 24.0825C5.06667 24.3158 4.90667 24.5125 4.7 24.6725C4.5 24.8258 4.26333 24.9358 3.99 25.0025V24.9225C4.29 24.9692 4.55333 25.0725 4.78 25.2325C5.01333 25.3925 5.19667 25.5958 5.33 25.8425C5.46333 26.0892 5.53 26.3758 5.53 26.7025C5.53 27.3158 5.30667 27.7958 4.86 28.1425C4.41333 28.4825 3.79333 28.6525 3 28.6525ZM3 27.9425C3.56 27.9425 3.98333 27.8325 4.27 27.6125C4.56333 27.3925 4.71 27.0692 4.71 26.6425C4.71 26.2158 4.56333 25.8925 4.27 25.6725C3.98333 25.4525 3.56 25.3425 3 25.3425C2.44667 25.3425 2.02333 25.4525 1.73 25.6725C1.43667 25.8925 1.29 26.2158 1.29 26.6425C1.29 27.0692 1.43667 27.3925 1.73 27.6125C2.02333 27.8325 2.44667 27.9425 3 27.9425ZM3 24.6325C3.48667 24.6325 3.86667 24.5225 4.14 24.3025C4.41333 24.0758 4.55 23.7658 4.55 23.3725C4.55 22.9858 4.41333 22.6825 4.14 22.4625C3.86667 22.2425 3.48667 22.1325 3 22.1325C2.52 22.1325 2.14333 22.2425 1.87 22.4625C1.59667 22.6825 1.46 22.9858 1.46 23.3725C1.46 23.7658 1.59667 24.0758 1.87 24.3025C2.14333 24.5225 2.52 24.6325 3 24.6325ZM9.23609 28.6525C8.67609 28.6525 8.19943 28.5158 7.80609 28.2425C7.41943 27.9692 7.12276 27.5758 6.91609 27.0625C6.70943 26.5492 6.60609 25.9292 6.60609 25.2025C6.60609 24.3892 6.71943 23.7025 6.94609 23.1425C7.17276 22.5825 7.49943 22.1558 7.92609 21.8625C8.35276 21.5692 8.86609 21.4225 9.46609 21.4225C9.71943 21.4225 9.96609 21.4558 10.2061 21.5225C10.4528 21.5892 10.6828 21.6858 10.8961 21.8125C11.1161 21.9392 11.3094 22.0925 11.4761 22.2725L11.1561 22.9325C10.9028 22.6658 10.6328 22.4725 10.3461 22.3525C10.0594 22.2325 9.76276 22.1725 9.45609 22.1725C9.12943 22.1725 8.83943 22.2358 8.58609 22.3625C8.33276 22.4825 8.11943 22.6658 7.94609 22.9125C7.77276 23.1525 7.64276 23.4525 7.55609 23.8125C7.46943 24.1725 7.42609 24.5892 7.42609 25.0625V25.8225H7.37609C7.42943 25.4758 7.54609 25.1758 7.72609 24.9225C7.90609 24.6692 8.13609 24.4758 8.41609 24.3425C8.69609 24.2025 9.00276 24.1325 9.33609 24.1325C9.75609 24.1325 10.1261 24.2292 10.4461 24.4225C10.7728 24.6092 11.0261 24.8692 11.2061 25.2025C11.3928 25.5358 11.4861 25.9225 11.4861 26.3625C11.4861 26.8025 11.3894 27.1958 11.1961 27.5425C11.0094 27.8892 10.7461 28.1625 10.4061 28.3625C10.0661 28.5558 9.67609 28.6525 9.23609 28.6525ZM9.18609 27.9225C9.47943 27.9225 9.73609 27.8592 9.95609 27.7325C10.1828 27.6058 10.3594 27.4258 10.4861 27.1925C10.6128 26.9592 10.6761 26.6892 10.6761 26.3825C10.6761 26.0825 10.6128 25.8192 10.4861 25.5925C10.3594 25.3592 10.1828 25.1792 9.95609 25.0525C9.73609 24.9192 9.47943 24.8525 9.18609 24.8525C8.88609 24.8525 8.62276 24.9192 8.39609 25.0525C8.17609 25.1792 8.00276 25.3592 7.87609 25.5925C7.74943 25.8192 7.68609 26.0825 7.68609 26.3825C7.68609 26.6892 7.74943 26.9592 7.87609 27.1925C8.00276 27.4258 8.17609 27.6058 8.39609 27.7325C8.62276 27.8592 8.88609 27.9225 9.18609 27.9225ZM12.6622 28.5625V27.5025H13.7522V28.5625H12.6622ZM17.5438 28.6525C17.2372 28.6525 16.9405 28.6192 16.6538 28.5525C16.3672 28.4858 16.1005 28.3892 15.8538 28.2625C15.6072 28.1358 15.3872 27.9825 15.1938 27.8025L15.5238 27.1225C15.8372 27.3892 16.1572 27.5858 16.4838 27.7125C16.8105 27.8392 17.1605 27.9025 17.5338 27.9025C18.0272 27.9025 18.4105 27.7692 18.6838 27.5025C18.9638 27.2358 19.1038 26.8758 19.1038 26.4225C19.1038 25.9625 18.9705 25.5892 18.7038 25.3025C18.4438 25.0158 18.0838 24.8725 17.6238 24.8725C17.2972 24.8725 17.0072 24.9392 16.7538 25.0725C16.5005 25.1992 16.2705 25.4092 16.0638 25.7025H15.4138V21.5125H19.5638V22.2525H16.2238V24.9725H16.0838C16.2572 24.7192 16.4872 24.5192 16.7738 24.3725C17.0672 24.2192 17.3972 24.1425 17.7638 24.1425C18.2105 24.1425 18.5972 24.2358 18.9238 24.4225C19.2505 24.6092 19.5005 24.8692 19.6738 25.2025C19.8538 25.5358 19.9438 25.9258 19.9438 26.3725C19.9438 26.8325 19.8438 27.2325 19.6438 27.5725C19.4505 27.9125 19.1738 28.1792 18.8138 28.3725C18.4605 28.5592 18.0372 28.6525 17.5438 28.6525ZM23.9357 28.5625V23.6625H24.7457V24.7425H24.6857C24.7724 24.5092 24.8924 24.3058 25.0457 24.1325C25.2057 23.9525 25.3957 23.8158 25.6157 23.7225C25.8357 23.6225 26.079 23.5725 26.3457 23.5725C26.7657 23.5725 27.109 23.6758 27.3757 23.8825C27.6424 24.0892 27.8157 24.3792 27.8957 24.7525H27.8157C27.9424 24.4058 28.1557 24.1225 28.4557 23.9025C28.7557 23.6825 29.119 23.5725 29.5457 23.5725C29.919 23.5725 30.229 23.6458 30.4757 23.7925C30.7224 23.9325 30.909 24.1458 31.0357 24.4325C31.1624 24.7192 31.2257 25.0825 31.2257 25.5225V28.5625H30.3857V25.5725C30.3857 25.1392 30.3057 24.8158 30.1457 24.6025C29.9924 24.3892 29.7257 24.2825 29.3457 24.2825C29.0724 24.2825 28.8324 24.3492 28.6257 24.4825C28.4257 24.6092 28.2724 24.7858 28.1657 25.0125C28.059 25.2392 28.0057 25.5058 28.0057 25.8125V28.5625H27.1557V25.5725C27.1557 25.1392 27.0724 24.8158 26.9057 24.6025C26.7457 24.3892 26.4857 24.2825 26.1257 24.2825C25.8524 24.2825 25.6124 24.3492 25.4057 24.4825C25.2057 24.6158 25.0524 24.7992 24.9457 25.0325C24.839 25.2592 24.7857 25.5125 24.7857 25.7925V28.5625H23.9357ZM32.881 28.5625V23.6625H33.691V24.7425H33.631C33.7177 24.5092 33.8377 24.3058 33.991 24.1325C34.151 23.9525 34.341 23.8158 34.561 23.7225C34.781 23.6225 35.0243 23.5725 35.291 23.5725C35.711 23.5725 36.0543 23.6758 36.321 23.8825C36.5877 24.0892 36.761 24.3792 36.841 24.7525H36.761C36.8877 24.4058 37.101 24.1225 37.401 23.9025C37.701 23.6825 38.0643 23.5725 38.491 23.5725C38.8643 23.5725 39.1743 23.6458 39.421 23.7925C39.6677 23.9325 39.8543 24.1458 39.981 24.4325C40.1077 24.7192 40.171 25.0825 40.171 25.5225V28.5625H39.331V25.5725C39.331 25.1392 39.251 24.8158 39.091 24.6025C38.9377 24.3892 38.671 24.2825 38.291 24.2825C38.0177 24.2825 37.7777 24.3492 37.571 24.4825C37.371 24.6092 37.2177 24.7858 37.111 25.0125C37.0043 25.2392 36.951 25.5058 36.951 25.8125V28.5625H36.101V25.5725C36.101 25.1392 36.0177 24.8158 35.851 24.6025C35.691 24.3892 35.431 24.2825 35.071 24.2825C34.7977 24.2825 34.5577 24.3492 34.351 24.4825C34.151 24.6158 33.9977 24.7992 33.891 25.0325C33.7843 25.2592 33.731 25.5125 33.731 25.7925V28.5625H32.881Z" fill="black"/>
</svg>
