<svg width="342" height="53" viewBox="0 0 342 53" fill="none" xmlns="http://www.w3.org/2000/svg">
<path d="M123.913 37.4565L123.884 16.9765L126.127 19.2118L119.407 19.2259L119.401 15.0659L129.065 15.0456L129.097 37.4456L123.913 37.4565ZM132.796 37.4378L132.791 34.0778L141.42 25.8997C142.101 25.2796 142.602 24.7238 142.921 24.2325C143.24 23.7412 143.453 23.2927 143.559 22.8871C143.687 22.4815 143.75 22.1081 143.75 21.7667C143.748 20.8707 143.438 20.1887 142.819 19.7207C142.221 19.2313 141.335 18.9878 140.162 18.9903C139.223 18.9923 138.349 19.1754 137.538 19.5398C136.75 19.9041 136.078 20.4709 135.525 21.24L131.745 18.816C132.597 17.5342 133.79 16.5183 135.325 15.7684C136.86 15.0185 138.63 14.6415 140.635 14.6373C142.299 14.6338 143.751 14.9081 144.989 15.4601C146.248 15.9908 147.22 16.7461 147.904 17.726C148.609 18.7059 148.963 19.8785 148.965 21.2438C148.966 21.9691 148.871 22.6947 148.68 23.4204C148.51 24.1247 148.149 24.8722 147.595 25.6627C147.063 26.4531 146.275 27.3401 145.231 28.3236L138.073 35.0907L137.078 33.2048L149.718 33.1782L149.724 37.4022L132.796 37.4378ZM159.48 37.7657C157.922 37.769 156.375 37.5696 154.839 37.1675C153.323 36.744 152.021 36.1494 150.932 35.3837L152.974 31.4114C153.829 32.0283 154.811 32.5169 155.921 32.8772C157.052 33.2375 158.193 33.4164 159.345 33.414C160.647 33.4113 161.67 33.1531 162.416 32.6395C163.162 32.126 163.534 31.4105 163.533 30.4932C163.532 29.9172 163.382 29.4055 163.083 28.9581C162.784 28.5108 162.25 28.1705 161.482 27.9375C160.735 27.7044 159.678 27.5893 158.313 27.5922L152.585 27.6042L153.719 14.9938L167.383 14.9651L167.389 19.1251L155.581 19.1499L158.266 16.7762L157.478 25.7699L154.787 23.4076L159.523 23.3976C161.742 23.3929 163.523 23.6985 164.868 24.3144C166.235 24.9088 167.228 25.7281 167.848 26.7721C168.468 27.8161 168.779 28.9995 168.781 30.3222C168.783 31.6448 168.454 32.8722 167.794 34.0042C167.134 35.115 166.112 36.0238 164.726 36.7307C163.362 37.4162 161.613 37.7612 159.48 37.7657ZM181.013 37.3365L180.988 20.1205L185.756 20.1105L185.763 24.8145L184.865 23.4403C185.461 22.2658 186.302 21.3787 187.389 20.779C188.497 20.158 189.756 19.8461 191.164 19.8431C192.742 19.8398 194.119 20.2422 195.293 21.0504C196.489 21.8372 197.28 23.0516 197.667 24.6934L195.906 24.2171C196.48 22.8719 197.396 21.8033 198.653 21.0114C199.932 20.2193 201.393 19.8216 203.036 19.8182C204.401 19.8153 205.607 20.0901 206.653 20.6426C207.72 21.1736 208.553 22.0039 209.152 23.1333C209.773 24.2413 210.084 25.67 210.087 27.4194L210.101 37.2753L205.109 37.2858L205.096 28.1978C205.094 26.8112 204.804 25.7878 204.227 25.1277C203.65 24.4675 202.839 24.1386 201.794 24.1408C201.069 24.1423 200.418 24.3143 199.843 24.6569C199.267 24.9781 198.82 25.4697 198.501 26.1317C198.182 26.7937 198.023 27.6367 198.024 28.6607L198.037 37.3007L193.045 37.3112L193.032 28.2232C193.03 26.8365 192.74 25.8131 192.163 25.153C191.608 24.4928 190.807 24.1639 189.762 24.1661C189.037 24.1676 188.386 24.3396 187.811 24.6822C187.235 25.0034 186.788 25.495 186.469 26.157C186.15 26.819 185.991 27.662 185.992 28.686L186.005 37.326L181.013 37.3365ZM214.575 37.2659L214.541 13.522L219.533 13.5115L219.567 37.2554L214.575 37.2659Z" fill="black"/>
</svg>
