<svg width="432" height="43" viewBox="0 0 432 43" fill="none" xmlns="http://www.w3.org/2000/svg">
<path d="M14.4207 16.112C13.6741 16.112 12.9601 16 12.2787 15.776C11.5974 15.5427 11.0607 15.244 10.6687 14.88L11.1867 13.788C11.5601 14.1147 12.0361 14.3853 12.6147 14.6C13.1934 14.8147 13.7954 14.922 14.4207 14.922C14.9901 14.922 15.4521 14.8567 15.8067 14.726C16.1614 14.5953 16.4227 14.418 16.5907 14.194C16.7587 13.9607 16.8427 13.6993 16.8427 13.41C16.8427 13.074 16.7307 12.8033 16.5067 12.598C16.2921 12.3927 16.0074 12.2293 15.6527 12.108C15.3074 11.9773 14.9247 11.8653 14.5047 11.772C14.0847 11.6787 13.6601 11.5713 13.2307 11.45C12.8107 11.3193 12.4234 11.156 12.0687 10.96C11.7234 10.764 11.4434 10.5027 11.2287 10.176C11.0141 9.84 10.9067 9.41067 10.9067 8.888C10.9067 8.384 11.0374 7.922 11.2987 7.502C11.5694 7.07267 11.9801 6.732 12.5307 6.48C13.0907 6.21867 13.8001 6.088 14.6587 6.088C15.2281 6.088 15.7927 6.16267 16.3527 6.312C16.9127 6.46133 17.3981 6.676 17.8087 6.956L17.3467 8.076C16.9267 7.796 16.4834 7.59533 16.0167 7.474C15.5501 7.34333 15.0974 7.278 14.6587 7.278C14.1081 7.278 13.6554 7.348 13.3007 7.488C12.9461 7.628 12.6847 7.81467 12.5167 8.048C12.3581 8.28133 12.2787 8.54267 12.2787 8.832C12.2787 9.17733 12.3861 9.45267 12.6007 9.658C12.8247 9.86333 13.1094 10.0267 13.4547 10.148C13.8094 10.2693 14.1967 10.3813 14.6167 10.484C15.0367 10.5773 15.4567 10.6847 15.8767 10.806C16.3061 10.9273 16.6934 11.086 17.0387 11.282C17.3934 11.478 17.6781 11.7393 17.8927 12.066C18.1074 12.3927 18.2147 12.8127 18.2147 13.326C18.2147 13.8207 18.0794 14.2827 17.8087 14.712C17.5381 15.132 17.1181 15.4727 16.5487 15.734C15.9887 15.986 15.2794 16.112 14.4207 16.112ZM23.998 16.084C23.382 16.084 22.8174 15.944 22.304 15.664C21.8 15.3747 21.394 14.95 21.086 14.39C20.7874 13.83 20.638 13.13 20.638 12.29C20.638 11.45 20.7827 10.75 21.072 10.19C21.3707 9.63 21.772 9.21 22.276 8.93C22.7894 8.65 23.3634 8.51 23.998 8.51C24.726 8.51 25.37 8.66867 25.93 8.986C26.49 9.30333 26.9334 9.74667 27.26 10.316C27.5867 10.876 27.75 11.534 27.75 12.29C27.75 13.046 27.5867 13.7087 27.26 14.278C26.9334 14.8473 26.49 15.2907 25.93 15.608C25.37 15.9253 24.726 16.084 23.998 16.084ZM20.064 18.716V8.58H21.352V10.582L21.268 12.304L21.408 14.026V18.716H20.064ZM23.886 14.908C24.362 14.908 24.7867 14.8007 25.16 14.586C25.5427 14.3713 25.8414 14.068 26.056 13.676C26.28 13.2747 26.392 12.8127 26.392 12.29C26.392 11.758 26.28 11.3007 26.056 10.918C25.8414 10.526 25.5427 10.2227 25.16 10.008C24.7867 9.79333 24.362 9.686 23.886 9.686C23.4194 9.686 22.9947 9.79333 22.612 10.008C22.2387 10.2227 21.94 10.526 21.716 10.918C21.5014 11.3007 21.394 11.758 21.394 12.29C21.394 12.8127 21.5014 13.2747 21.716 13.676C21.94 14.068 22.2387 14.3713 22.612 14.586C22.9947 14.8007 23.4194 14.908 23.886 14.908ZM34.1446 16V14.432L34.0746 14.138V11.464C34.0746 10.8947 33.9066 10.456 33.5706 10.148C33.244 9.83067 32.7493 9.672 32.0866 9.672C31.648 9.672 31.2186 9.74667 30.7986 9.896C30.3786 10.036 30.024 10.2273 29.7346 10.47L29.1746 9.462C29.5573 9.154 30.0146 8.92067 30.5466 8.762C31.088 8.594 31.6526 8.51 32.2406 8.51C33.258 8.51 34.042 8.75733 34.5926 9.252C35.1433 9.74667 35.4186 10.5027 35.4186 11.52V16H34.1446ZM31.7086 16.084C31.158 16.084 30.6726 15.9907 30.2526 15.804C29.842 15.6173 29.5246 15.3607 29.3006 15.034C29.0766 14.698 28.9646 14.32 28.9646 13.9C28.9646 13.4987 29.058 13.1347 29.2446 12.808C29.4406 12.4813 29.7533 12.22 30.1826 12.024C30.6213 11.828 31.2093 11.73 31.9466 11.73H34.2986V12.696H32.0026C31.3306 12.696 30.878 12.808 30.6446 13.032C30.4113 13.256 30.2946 13.5267 30.2946 13.844C30.2946 14.208 30.4393 14.502 30.7286 14.726C31.018 14.9407 31.4193 15.048 31.9326 15.048C32.4366 15.048 32.8753 14.936 33.2486 14.712C33.6313 14.488 33.9066 14.1613 34.0746 13.732L34.3406 14.656C34.1633 15.0947 33.8506 15.4447 33.4026 15.706C32.9546 15.958 32.39 16.084 31.7086 16.084ZM41.1398 16.084C40.3838 16.084 39.7072 15.9207 39.1098 15.594C38.5218 15.2673 38.0598 14.8193 37.7238 14.25C37.3878 13.6807 37.2198 13.0273 37.2198 12.29C37.2198 11.5527 37.3878 10.8993 37.7238 10.33C38.0598 9.76067 38.5218 9.31733 39.1098 9C39.7072 8.67333 40.3838 8.51 41.1398 8.51C41.8118 8.51 42.4092 8.64533 42.9318 8.916C43.4638 9.17733 43.8745 9.56933 44.1638 10.092L43.1418 10.75C42.8992 10.386 42.6005 10.12 42.2458 9.952C41.9005 9.77467 41.5272 9.686 41.1258 9.686C40.6405 9.686 40.2065 9.79333 39.8238 10.008C39.4412 10.2227 39.1378 10.526 38.9138 10.918C38.6898 11.3007 38.5778 11.758 38.5778 12.29C38.5778 12.822 38.6898 13.284 38.9138 13.676C39.1378 14.068 39.4412 14.3713 39.8238 14.586C40.2065 14.8007 40.6405 14.908 41.1258 14.908C41.5272 14.908 41.9005 14.824 42.2458 14.656C42.6005 14.4787 42.8992 14.208 43.1418 13.844L44.1638 14.488C43.8745 15.0013 43.4638 15.398 42.9318 15.678C42.4092 15.9487 41.8118 16.084 41.1398 16.084ZM45.8082 16V8.58H47.1522V16H45.8082ZM46.4802 7.152C46.2188 7.152 45.9995 7.068 45.8222 6.9C45.6542 6.732 45.5702 6.52667 45.5702 6.284C45.5702 6.032 45.6542 5.822 45.8222 5.654C45.9995 5.486 46.2188 5.402 46.4802 5.402C46.7415 5.402 46.9562 5.486 47.1242 5.654C47.3015 5.81267 47.3902 6.01333 47.3902 6.256C47.3902 6.508 47.3062 6.72267 47.1382 6.9C46.9702 7.068 46.7508 7.152 46.4802 7.152ZM52.8963 16.084C52.1497 16.084 51.487 15.9207 50.9083 15.594C50.3297 15.2673 49.8723 14.8193 49.5363 14.25C49.2003 13.6713 49.0323 13.018 49.0323 12.29C49.0323 11.5527 49.2003 10.8993 49.5363 10.33C49.8723 9.76067 50.3297 9.31733 50.9083 9C51.487 8.67333 52.1497 8.51 52.8963 8.51C53.6337 8.51 54.2917 8.67333 54.8703 9C55.4583 9.31733 55.9157 9.76067 56.2423 10.33C56.5783 10.89 56.7463 11.5433 56.7463 12.29C56.7463 13.0273 56.5783 13.6807 56.2423 14.25C55.9157 14.8193 55.4583 15.2673 54.8703 15.594C54.2917 15.9207 53.6337 16.084 52.8963 16.084ZM52.8963 14.908C53.3723 14.908 53.797 14.8007 54.1703 14.586C54.553 14.3713 54.8517 14.068 55.0663 13.676C55.281 13.2747 55.3883 12.8127 55.3883 12.29C55.3883 11.758 55.281 11.3007 55.0663 10.918C54.8517 10.526 54.553 10.2227 54.1703 10.008C53.797 9.79333 53.3723 9.686 52.8963 9.686C52.4203 9.686 51.9957 9.79333 51.6223 10.008C51.249 10.2227 50.9503 10.526 50.7263 10.918C50.5023 11.3007 50.3903 11.758 50.3903 12.29C50.3903 12.8127 50.5023 13.2747 50.7263 13.676C50.9503 14.068 51.249 14.3713 51.6223 14.586C51.9957 14.8007 52.4203 14.908 52.8963 14.908ZM61.7271 16.084C61.0924 16.084 60.5324 15.9673 60.0471 15.734C59.5711 15.5007 59.1977 15.146 58.9271 14.67C58.6657 14.1847 58.5351 13.578 58.5351 12.85V8.58H59.8791V12.696C59.8791 13.424 60.0517 13.97 60.3971 14.334C60.7517 14.698 61.2464 14.88 61.8811 14.88C62.3477 14.88 62.7537 14.7867 63.0991 14.6C63.4444 14.404 63.7104 14.124 63.8971 13.76C64.0837 13.3867 64.1771 12.9387 64.1771 12.416V8.58H65.5211V16H64.2471V13.998L64.4571 14.53C64.2144 15.0247 63.8504 15.4073 63.3651 15.678C62.8797 15.9487 62.3337 16.084 61.7271 16.084ZM70.2077 16.084C69.5917 16.084 69.0037 16 68.4437 15.832C67.893 15.664 67.459 15.4587 67.1417 15.216L67.7017 14.152C68.019 14.3667 68.411 14.5487 68.8777 14.698C69.3443 14.8473 69.8203 14.922 70.3057 14.922C70.931 14.922 71.379 14.8333 71.6497 14.656C71.9297 14.4787 72.0697 14.2313 72.0697 13.914C72.0697 13.6807 71.9857 13.4987 71.8177 13.368C71.6497 13.2373 71.4257 13.1393 71.1457 13.074C70.875 13.0087 70.5717 12.9527 70.2357 12.906C69.8997 12.85 69.5637 12.7847 69.2277 12.71C68.8917 12.626 68.5837 12.514 68.3037 12.374C68.0237 12.2247 67.7997 12.024 67.6317 11.772C67.4637 11.5107 67.3797 11.1653 67.3797 10.736C67.3797 10.288 67.5057 9.896 67.7577 9.56C68.0097 9.224 68.3643 8.96733 68.8217 8.79C69.2883 8.60333 69.839 8.51 70.4737 8.51C70.959 8.51 71.449 8.57067 71.9437 8.692C72.4477 8.804 72.8583 8.96733 73.1757 9.182L72.6017 10.246C72.2657 10.022 71.9157 9.868 71.5517 9.784C71.1877 9.7 70.8237 9.658 70.4597 9.658C69.8717 9.658 69.433 9.756 69.1437 9.952C68.8543 10.1387 68.7097 10.3813 68.7097 10.68C68.7097 10.932 68.7937 11.128 68.9617 11.268C69.139 11.3987 69.363 11.5013 69.6337 11.576C69.9137 11.6507 70.2217 11.716 70.5577 11.772C70.8937 11.8187 71.2297 11.884 71.5657 11.968C71.9017 12.0427 72.205 12.15 72.4757 12.29C72.7557 12.43 72.9797 12.626 73.1477 12.878C73.325 13.13 73.4137 13.466 73.4137 13.886C73.4137 14.334 73.283 14.7213 73.0217 15.048C72.7603 15.3747 72.3917 15.6313 71.9157 15.818C71.4397 15.9953 70.8703 16.084 70.2077 16.084ZM83.4591 16V14.432L83.3891 14.138V11.464C83.3891 10.8947 83.2211 10.456 82.8851 10.148C82.5584 9.83067 82.0638 9.672 81.4011 9.672C80.9624 9.672 80.5331 9.74667 80.1131 9.896C79.6931 10.036 79.3384 10.2273 79.0491 10.47L78.4891 9.462C78.8718 9.154 79.3291 8.92067 79.8611 8.762C80.4024 8.594 80.9671 8.51 81.5551 8.51C82.5724 8.51 83.3564 8.75733 83.9071 9.252C84.4578 9.74667 84.7331 10.5027 84.7331 11.52V16H83.4591ZM81.0231 16.084C80.4724 16.084 79.9871 15.9907 79.5671 15.804C79.1564 15.6173 78.8391 15.3607 78.6151 15.034C78.3911 14.698 78.2791 14.32 78.2791 13.9C78.2791 13.4987 78.3724 13.1347 78.5591 12.808C78.7551 12.4813 79.0678 12.22 79.4971 12.024C79.9358 11.828 80.5238 11.73 81.2611 11.73H83.6131V12.696H81.3171C80.6451 12.696 80.1924 12.808 79.9591 13.032C79.7258 13.256 79.6091 13.5267 79.6091 13.844C79.6091 14.208 79.7538 14.502 80.0431 14.726C80.3324 14.9407 80.7338 15.048 81.2471 15.048C81.7511 15.048 82.1898 14.936 82.5631 14.712C82.9458 14.488 83.2211 14.1613 83.3891 13.732L83.6551 14.656C83.4778 15.0947 83.1651 15.4447 82.7171 15.706C82.2691 15.958 81.7044 16.084 81.0231 16.084ZM87.2203 16V8.58H88.5083V10.582L88.2983 10.05C88.541 9.56467 88.9143 9.18667 89.4183 8.916C89.9223 8.64533 90.5103 8.51 91.1823 8.51C91.789 8.51 92.321 8.62667 92.7783 8.86C93.245 9.09333 93.609 9.448 93.8703 9.924C94.1316 10.4 94.2623 11.002 94.2623 11.73V16H92.9183V11.884C92.9183 11.1653 92.741 10.624 92.3863 10.26C92.041 9.896 91.551 9.714 90.9163 9.714C90.4403 9.714 90.025 9.80733 89.6703 9.994C89.3156 10.1807 89.0403 10.456 88.8443 10.82C88.6576 11.184 88.5643 11.6367 88.5643 12.178V16H87.2203ZM99.8156 16.084C99.0969 16.084 98.4529 15.9253 97.8836 15.608C97.3236 15.2907 96.8803 14.8473 96.5536 14.278C96.2269 13.7087 96.0636 13.046 96.0636 12.29C96.0636 11.534 96.2269 10.876 96.5536 10.316C96.8803 9.74667 97.3236 9.30333 97.8836 8.986C98.4529 8.66867 99.0969 8.51 99.8156 8.51C100.441 8.51 101.006 8.65 101.51 8.93C102.014 9.21 102.415 9.63 102.714 10.19C103.022 10.75 103.176 11.45 103.176 12.29C103.176 13.13 103.026 13.83 102.728 14.39C102.438 14.95 102.042 15.3747 101.538 15.664C101.034 15.944 100.46 16.084 99.8156 16.084ZM99.9276 14.908C100.394 14.908 100.814 14.8007 101.188 14.586C101.57 14.3713 101.869 14.068 102.084 13.676C102.308 13.2747 102.42 12.8127 102.42 12.29C102.42 11.758 102.308 11.3007 102.084 10.918C101.869 10.526 101.57 10.2227 101.188 10.008C100.814 9.79333 100.394 9.686 99.9276 9.686C99.4516 9.686 99.0269 9.79333 98.6536 10.008C98.2803 10.2227 97.9816 10.526 97.7576 10.918C97.5336 11.3007 97.4216 11.758 97.4216 12.29C97.4216 12.8127 97.5336 13.2747 97.7576 13.676C97.9816 14.068 98.2803 14.3713 98.6536 14.586C99.0269 14.8007 99.4516 14.908 99.9276 14.908ZM102.462 16V13.998L102.546 12.276L102.406 10.554V5.612H103.75V16H102.462ZM112.18 16.084C111.564 16.084 110.976 16 110.416 15.832C109.866 15.664 109.432 15.4587 109.114 15.216L109.674 14.152C109.992 14.3667 110.384 14.5487 110.85 14.698C111.317 14.8473 111.793 14.922 112.278 14.922C112.904 14.922 113.352 14.8333 113.622 14.656C113.902 14.4787 114.042 14.2313 114.042 13.914C114.042 13.6807 113.958 13.4987 113.79 13.368C113.622 13.2373 113.398 13.1393 113.118 13.074C112.848 13.0087 112.544 12.9527 112.208 12.906C111.872 12.85 111.536 12.7847 111.2 12.71C110.864 12.626 110.556 12.514 110.276 12.374C109.996 12.2247 109.772 12.024 109.604 11.772C109.436 11.5107 109.352 11.1653 109.352 10.736C109.352 10.288 109.478 9.896 109.73 9.56C109.982 9.224 110.337 8.96733 110.794 8.79C111.261 8.60333 111.812 8.51 112.446 8.51C112.932 8.51 113.422 8.57067 113.916 8.692C114.42 8.804 114.831 8.96733 115.148 9.182L114.574 10.246C114.238 10.022 113.888 9.868 113.524 9.784C113.16 9.7 112.796 9.658 112.432 9.658C111.844 9.658 111.406 9.756 111.116 9.952C110.827 10.1387 110.682 10.3813 110.682 10.68C110.682 10.932 110.766 11.128 110.934 11.268C111.112 11.3987 111.336 11.5013 111.606 11.576C111.886 11.6507 112.194 11.716 112.53 11.772C112.866 11.8187 113.202 11.884 113.538 11.968C113.874 12.0427 114.178 12.15 114.448 12.29C114.728 12.43 114.952 12.626 115.12 12.878C115.298 13.13 115.386 13.466 115.386 13.886C115.386 14.334 115.256 14.7213 114.994 15.048C114.733 15.3747 114.364 15.6313 113.888 15.818C113.412 15.9953 112.843 16.084 112.18 16.084ZM119.614 16.084C118.867 16.084 118.289 15.8833 117.878 15.482C117.467 15.0807 117.262 14.5067 117.262 13.76V6.956H118.606V13.704C118.606 14.1053 118.704 14.4133 118.9 14.628C119.105 14.8427 119.395 14.95 119.768 14.95C120.188 14.95 120.538 14.8333 120.818 14.6L121.238 15.566C121.033 15.7433 120.785 15.874 120.496 15.958C120.216 16.042 119.922 16.084 119.614 16.084ZM116.002 9.686V8.58H120.734V9.686H116.002ZM125.985 16.084C125.35 16.084 124.79 15.9673 124.305 15.734C123.829 15.5007 123.456 15.146 123.185 14.67C122.924 14.1847 122.793 13.578 122.793 12.85V8.58H124.137V12.696C124.137 13.424 124.31 13.97 124.655 14.334C125.01 14.698 125.504 14.88 126.139 14.88C126.606 14.88 127.012 14.7867 127.357 14.6C127.702 14.404 127.968 14.124 128.155 13.76C128.342 13.3867 128.435 12.9387 128.435 12.416V8.58H129.779V16H128.505V13.998L128.715 14.53C128.472 15.0247 128.108 15.4073 127.623 15.678C127.138 15.9487 126.592 16.084 125.985 16.084ZM132.337 16V8.58H133.625V10.596L133.499 10.092C133.705 9.57867 134.05 9.18667 134.535 8.916C135.021 8.64533 135.618 8.51 136.327 8.51V9.812C136.271 9.80267 136.215 9.798 136.159 9.798C136.113 9.798 136.066 9.798 136.019 9.798C135.301 9.798 134.731 10.0127 134.311 10.442C133.891 10.8713 133.681 11.492 133.681 12.304V16H132.337ZM140.982 16.084C140.263 16.084 139.619 15.9253 139.05 15.608C138.49 15.2907 138.046 14.8473 137.72 14.278C137.393 13.7087 137.23 13.046 137.23 12.29C137.23 11.534 137.393 10.876 137.72 10.316C138.046 9.74667 138.49 9.30333 139.05 8.986C139.619 8.66867 140.263 8.51 140.982 8.51C141.607 8.51 142.172 8.65 142.676 8.93C143.18 9.21 143.581 9.63 143.88 10.19C144.188 10.75 144.342 11.45 144.342 12.29C144.342 13.13 144.192 13.83 143.894 14.39C143.604 14.95 143.208 15.3747 142.704 15.664C142.2 15.944 141.626 16.084 140.982 16.084ZM141.094 14.908C141.56 14.908 141.98 14.8007 142.354 14.586C142.736 14.3713 143.035 14.068 143.25 13.676C143.474 13.2747 143.586 12.8127 143.586 12.29C143.586 11.758 143.474 11.3007 143.25 10.918C143.035 10.526 142.736 10.2227 142.354 10.008C141.98 9.79333 141.56 9.686 141.094 9.686C140.618 9.686 140.193 9.79333 139.82 10.008C139.446 10.2227 139.148 10.526 138.924 10.918C138.7 11.3007 138.588 11.758 138.588 12.29C138.588 12.8127 138.7 13.2747 138.924 13.676C139.148 14.068 139.446 14.3713 139.82 14.586C140.193 14.8007 140.618 14.908 141.094 14.908ZM143.628 16V13.998L143.712 12.276L143.572 10.554V5.612H144.916V16H143.628ZM147.767 18.8C147.412 18.8 147.067 18.7393 146.731 18.618C146.395 18.506 146.106 18.338 145.863 18.114L146.437 17.106C146.624 17.2833 146.829 17.4187 147.053 17.512C147.277 17.6053 147.515 17.652 147.767 17.652C148.094 17.652 148.364 17.568 148.579 17.4C148.794 17.232 148.994 16.9333 149.181 16.504L149.643 15.482L149.783 15.314L152.695 8.58H154.011L150.413 16.742C150.198 17.2647 149.956 17.6753 149.685 17.974C149.424 18.2727 149.134 18.4827 148.817 18.604C148.5 18.7347 148.15 18.8 147.767 18.8ZM149.531 16.238L146.143 8.58H147.543L150.427 15.188L149.531 16.238ZM159.221 16V6.2H160.621V16H159.221ZM163.555 16V6.2H164.703L169.099 13.606H168.483L172.823 6.2H173.971L173.985 16H172.641L172.627 8.314H172.949L169.085 14.81H168.441L164.549 8.314H164.899V16H163.555ZM176.926 16V6.2H178.326V14.782H183.632V16H176.926ZM188.998 16V6.2H192.82C194.09 6.2 195.088 6.50333 195.816 7.11C196.544 7.70733 196.908 8.54267 196.908 9.616C196.908 10.3253 196.745 10.9367 196.418 11.45C196.092 11.954 195.625 12.3413 195.018 12.612C194.412 12.8827 193.679 13.018 192.82 13.018H189.768L190.398 12.374V16H188.998ZM195.55 16L193.058 12.444H194.556L197.076 16H195.55ZM190.398 12.514L189.768 11.828H192.778C193.674 11.828 194.351 11.6367 194.808 11.254C195.275 10.862 195.508 10.316 195.508 9.616C195.508 8.916 195.275 8.37467 194.808 7.992C194.351 7.60933 193.674 7.418 192.778 7.418H189.768L190.398 6.718V12.514ZM202.152 16.084C201.406 16.084 200.743 15.9207 200.164 15.594C199.586 15.2673 199.128 14.8193 198.792 14.25C198.456 13.6713 198.288 13.018 198.288 12.29C198.288 11.5527 198.456 10.8993 198.792 10.33C199.128 9.76067 199.586 9.31733 200.164 9C200.743 8.67333 201.406 8.51 202.152 8.51C202.89 8.51 203.548 8.67333 204.126 9C204.714 9.31733 205.172 9.76067 205.498 10.33C205.834 10.89 206.002 11.5433 206.002 12.29C206.002 13.0273 205.834 13.6807 205.498 14.25C205.172 14.8193 204.714 15.2673 204.126 15.594C203.548 15.9207 202.89 16.084 202.152 16.084ZM202.152 14.908C202.628 14.908 203.053 14.8007 203.426 14.586C203.809 14.3713 204.108 14.068 204.322 13.676C204.537 13.2747 204.644 12.8127 204.644 12.29C204.644 11.758 204.537 11.3007 204.322 10.918C204.108 10.526 203.809 10.2227 203.426 10.008C203.053 9.79333 202.628 9.686 202.152 9.686C201.676 9.686 201.252 9.79333 200.878 10.008C200.505 10.2227 200.206 10.526 199.982 10.918C199.758 11.3007 199.646 11.758 199.646 12.29C199.646 12.8127 199.758 13.2747 199.982 13.676C200.206 14.068 200.505 14.3713 200.878 14.586C201.252 14.8007 201.676 14.908 202.152 14.908ZM210.983 16.084C210.348 16.084 209.788 15.9673 209.303 15.734C208.827 15.5007 208.454 15.146 208.183 14.67C207.922 14.1847 207.791 13.578 207.791 12.85V8.58H209.135V12.696C209.135 13.424 209.308 13.97 209.653 14.334C210.008 14.698 210.502 14.88 211.137 14.88C211.604 14.88 212.01 14.7867 212.355 14.6C212.7 14.404 212.966 14.124 213.153 13.76C213.34 13.3867 213.433 12.9387 213.433 12.416V8.58H214.777V16H213.503V13.998L213.713 14.53C213.47 15.0247 213.106 15.4073 212.621 15.678C212.136 15.9487 211.59 16.084 210.983 16.084ZM217.336 16V8.58H218.624V10.582L218.414 10.05C218.656 9.56467 219.03 9.18667 219.534 8.916C220.038 8.64533 220.626 8.51 221.298 8.51C221.904 8.51 222.436 8.62667 222.894 8.86C223.36 9.09333 223.724 9.448 223.986 9.924C224.247 10.4 224.378 11.002 224.378 11.73V16H223.034V11.884C223.034 11.1653 222.856 10.624 222.502 10.26C222.156 9.896 221.666 9.714 221.032 9.714C220.556 9.714 220.14 9.80733 219.786 9.994C219.431 10.1807 219.156 10.456 218.96 10.82C218.773 11.184 218.68 11.6367 218.68 12.178V16H217.336ZM229.931 16.084C229.212 16.084 228.568 15.9253 227.999 15.608C227.439 15.2907 226.995 14.8473 226.669 14.278C226.342 13.7087 226.179 13.046 226.179 12.29C226.179 11.534 226.342 10.876 226.669 10.316C226.995 9.74667 227.439 9.30333 227.999 8.986C228.568 8.66867 229.212 8.51 229.931 8.51C230.556 8.51 231.121 8.65 231.625 8.93C232.129 9.21 232.53 9.63 232.829 10.19C233.137 10.75 233.291 11.45 233.291 12.29C233.291 13.13 233.141 13.83 232.843 14.39C232.553 14.95 232.157 15.3747 231.653 15.664C231.149 15.944 230.575 16.084 229.931 16.084ZM230.043 14.908C230.509 14.908 230.929 14.8007 231.303 14.586C231.685 14.3713 231.984 14.068 232.199 13.676C232.423 13.2747 232.535 12.8127 232.535 12.29C232.535 11.758 232.423 11.3007 232.199 10.918C231.984 10.526 231.685 10.2227 231.303 10.008C230.929 9.79333 230.509 9.686 230.043 9.686C229.567 9.686 229.142 9.79333 228.769 10.008C228.395 10.2227 228.097 10.526 227.873 10.918C227.649 11.3007 227.537 11.758 227.537 12.29C227.537 12.8127 227.649 13.2747 227.873 13.676C228.097 14.068 228.395 14.3713 228.769 14.586C229.142 14.8007 229.567 14.908 230.043 14.908ZM232.577 16V13.998L232.661 12.276L232.521 10.554V5.612H233.865V16H232.577ZM243.402 16.084C242.646 16.084 241.969 15.9207 241.372 15.594C240.784 15.2673 240.322 14.8193 239.986 14.25C239.65 13.6807 239.482 13.0273 239.482 12.29C239.482 11.5527 239.65 10.8993 239.986 10.33C240.322 9.76067 240.784 9.31733 241.372 9C241.969 8.67333 242.646 8.51 243.402 8.51C244.074 8.51 244.671 8.64533 245.194 8.916C245.726 9.17733 246.136 9.56933 246.426 10.092L245.404 10.75C245.161 10.386 244.862 10.12 244.508 9.952C244.162 9.77467 243.789 9.686 243.388 9.686C242.902 9.686 242.468 9.79333 242.086 10.008C241.703 10.2227 241.4 10.526 241.176 10.918C240.952 11.3007 240.84 11.758 240.84 12.29C240.84 12.822 240.952 13.284 241.176 13.676C241.4 14.068 241.703 14.3713 242.086 14.586C242.468 14.8007 242.902 14.908 243.388 14.908C243.789 14.908 244.162 14.824 244.508 14.656C244.862 14.4787 245.161 14.208 245.404 13.844L246.426 14.488C246.136 15.0013 245.726 15.398 245.194 15.678C244.671 15.9487 244.074 16.084 243.402 16.084ZM251.288 16.084C250.653 16.084 250.093 15.9673 249.608 15.734C249.132 15.5007 248.758 15.146 248.488 14.67C248.226 14.1847 248.096 13.578 248.096 12.85V8.58H249.44V12.696C249.44 13.424 249.612 13.97 249.958 14.334C250.312 14.698 250.807 14.88 251.442 14.88C251.908 14.88 252.314 14.7867 252.66 14.6C253.005 14.404 253.271 14.124 253.458 13.76C253.644 13.3867 253.738 12.9387 253.738 12.416V8.58H255.082V16H253.808V13.998L254.018 14.53C253.775 15.0247 253.411 15.4073 252.926 15.678C252.44 15.9487 251.894 16.084 251.288 16.084ZM261.574 16.084C260.958 16.084 260.394 15.944 259.88 15.664C259.376 15.3747 258.97 14.95 258.662 14.39C258.364 13.83 258.214 13.13 258.214 12.29C258.214 11.45 258.359 10.75 258.648 10.19C258.947 9.63 259.348 9.21 259.852 8.93C260.366 8.65 260.94 8.51 261.574 8.51C262.302 8.51 262.946 8.66867 263.506 8.986C264.066 9.30333 264.51 9.74667 264.836 10.316C265.163 10.876 265.326 11.534 265.326 12.29C265.326 13.046 265.163 13.7087 264.836 14.278C264.51 14.8473 264.066 15.2907 263.506 15.608C262.946 15.9253 262.302 16.084 261.574 16.084ZM257.64 18.716V8.58H258.928V10.582L258.844 12.304L258.984 14.026V18.716H257.64ZM261.462 14.908C261.938 14.908 262.363 14.8007 262.736 14.586C263.119 14.3713 263.418 14.068 263.632 13.676C263.856 13.2747 263.968 12.8127 263.968 12.29C263.968 11.758 263.856 11.3007 263.632 10.918C263.418 10.526 263.119 10.2227 262.736 10.008C262.363 9.79333 261.938 9.686 261.462 9.686C260.996 9.686 260.571 9.79333 260.188 10.008C259.815 10.2227 259.516 10.526 259.292 10.918C259.078 11.3007 258.97 11.758 258.97 12.29C258.97 12.8127 259.078 13.2747 259.292 13.676C259.516 14.068 259.815 14.3713 260.188 14.586C260.571 14.8007 260.996 14.908 261.462 14.908ZM274.009 16.084C273.29 16.084 272.646 15.9253 272.077 15.608C271.517 15.2907 271.074 14.8473 270.747 14.278C270.42 13.7087 270.257 13.046 270.257 12.29C270.257 11.534 270.42 10.876 270.747 10.316C271.074 9.74667 271.517 9.30333 272.077 8.986C272.646 8.66867 273.29 8.51 274.009 8.51C274.634 8.51 275.199 8.65 275.703 8.93C276.207 9.21 276.608 9.63 276.907 10.19C277.215 10.75 277.369 11.45 277.369 12.29C277.369 13.13 277.22 13.83 276.921 14.39C276.632 14.95 276.235 15.3747 275.731 15.664C275.227 15.944 274.653 16.084 274.009 16.084ZM274.121 14.908C274.588 14.908 275.008 14.8007 275.381 14.586C275.764 14.3713 276.062 14.068 276.277 13.676C276.501 13.2747 276.613 12.8127 276.613 12.29C276.613 11.758 276.501 11.3007 276.277 10.918C276.062 10.526 275.764 10.2227 275.381 10.008C275.008 9.79333 274.588 9.686 274.121 9.686C273.645 9.686 273.22 9.79333 272.847 10.008C272.474 10.2227 272.175 10.526 271.951 10.918C271.727 11.3007 271.615 11.758 271.615 12.29C271.615 12.8127 271.727 13.2747 271.951 13.676C272.175 14.068 272.474 14.3713 272.847 14.586C273.22 14.8007 273.645 14.908 274.121 14.908ZM276.655 16V13.998L276.739 12.276L276.599 10.554V5.612H277.943V16H276.655ZM283.79 16.084C282.997 16.084 282.297 15.9207 281.69 15.594C281.093 15.2673 280.626 14.8193 280.29 14.25C279.963 13.6807 279.8 13.0273 279.8 12.29C279.8 11.5527 279.959 10.8993 280.276 10.33C280.603 9.76067 281.046 9.31733 281.606 9C282.175 8.67333 282.815 8.51 283.524 8.51C284.243 8.51 284.877 8.66867 285.428 8.986C285.979 9.30333 286.408 9.75133 286.716 10.33C287.033 10.8993 287.192 11.5667 287.192 12.332C287.192 12.388 287.187 12.4533 287.178 12.528C287.178 12.6027 287.173 12.6727 287.164 12.738H280.85V11.772H286.464L285.918 12.108C285.927 11.632 285.829 11.2073 285.624 10.834C285.419 10.4607 285.134 10.1713 284.77 9.966C284.415 9.75133 284 9.644 283.524 9.644C283.057 9.644 282.642 9.75133 282.278 9.966C281.914 10.1713 281.629 10.4653 281.424 10.848C281.219 11.2213 281.116 11.6507 281.116 12.136V12.36C281.116 12.8547 281.228 13.298 281.452 13.69C281.685 14.0727 282.007 14.3713 282.418 14.586C282.829 14.8007 283.3 14.908 283.832 14.908C284.271 14.908 284.667 14.8333 285.022 14.684C285.386 14.5347 285.703 14.3107 285.974 14.012L286.716 14.88C286.38 15.272 285.96 15.5707 285.456 15.776C284.961 15.9813 284.406 16.084 283.79 16.084ZM291.186 16.084C290.57 16.084 289.982 16 289.422 15.832C288.872 15.664 288.438 15.4587 288.12 15.216L288.68 14.152C288.998 14.3667 289.39 14.5487 289.856 14.698C290.323 14.8473 290.799 14.922 291.284 14.922C291.91 14.922 292.358 14.8333 292.628 14.656C292.908 14.4787 293.048 14.2313 293.048 13.914C293.048 13.6807 292.964 13.4987 292.796 13.368C292.628 13.2373 292.404 13.1393 292.124 13.074C291.854 13.0087 291.55 12.9527 291.214 12.906C290.878 12.85 290.542 12.7847 290.206 12.71C289.87 12.626 289.562 12.514 289.282 12.374C289.002 12.2247 288.778 12.024 288.61 11.772C288.442 11.5107 288.358 11.1653 288.358 10.736C288.358 10.288 288.484 9.896 288.736 9.56C288.988 9.224 289.343 8.96733 289.8 8.79C290.267 8.60333 290.818 8.51 291.452 8.51C291.938 8.51 292.428 8.57067 292.922 8.692C293.426 8.804 293.837 8.96733 294.154 9.182L293.58 10.246C293.244 10.022 292.894 9.868 292.53 9.784C292.166 9.7 291.802 9.658 291.438 9.658C290.85 9.658 290.412 9.756 290.122 9.952C289.833 10.1387 289.688 10.3813 289.688 10.68C289.688 10.932 289.772 11.128 289.94 11.268C290.118 11.3987 290.342 11.5013 290.612 11.576C290.892 11.6507 291.2 11.716 291.536 11.772C291.872 11.8187 292.208 11.884 292.544 11.968C292.88 12.0427 293.184 12.15 293.454 12.29C293.734 12.43 293.958 12.626 294.126 12.878C294.304 13.13 294.392 13.466 294.392 13.886C294.392 14.334 294.262 14.7213 294 15.048C293.739 15.3747 293.37 15.6313 292.894 15.818C292.418 15.9953 291.849 16.084 291.186 16.084ZM296.072 16V8.58H297.416V16H296.072ZM296.744 7.152C296.483 7.152 296.263 7.068 296.086 6.9C295.918 6.732 295.834 6.52667 295.834 6.284C295.834 6.032 295.918 5.822 296.086 5.654C296.263 5.486 296.483 5.402 296.744 5.402C297.005 5.402 297.22 5.486 297.388 5.654C297.565 5.81267 297.654 6.01333 297.654 6.256C297.654 6.508 297.57 6.72267 297.402 6.9C297.234 7.068 297.015 7.152 296.744 7.152ZM303.23 18.8C302.549 18.8 301.886 18.702 301.242 18.506C300.607 18.3193 300.089 18.0487 299.688 17.694L300.332 16.658C300.677 16.9567 301.102 17.19 301.606 17.358C302.11 17.5353 302.637 17.624 303.188 17.624C304.065 17.624 304.709 17.4187 305.12 17.008C305.531 16.5973 305.736 15.972 305.736 15.132V13.564L305.876 12.094L305.806 10.61V8.58H307.08V14.992C307.08 16.2987 306.753 17.26 306.1 17.876C305.447 18.492 304.49 18.8 303.23 18.8ZM303.062 15.692C302.343 15.692 301.699 15.5427 301.13 15.244C300.57 14.936 300.122 14.5113 299.786 13.97C299.459 13.4287 299.296 12.8033 299.296 12.094C299.296 11.3753 299.459 10.75 299.786 10.218C300.122 9.67667 300.57 9.25667 301.13 8.958C301.699 8.65933 302.343 8.51 303.062 8.51C303.697 8.51 304.275 8.64067 304.798 8.902C305.321 9.154 305.736 9.546 306.044 10.078C306.361 10.61 306.52 11.282 306.52 12.094C306.52 12.8967 306.361 13.564 306.044 14.096C305.736 14.628 305.321 15.0293 304.798 15.3C304.275 15.5613 303.697 15.692 303.062 15.692ZM303.216 14.516C303.711 14.516 304.149 14.4133 304.532 14.208C304.915 14.0027 305.213 13.718 305.428 13.354C305.652 12.99 305.764 12.57 305.764 12.094C305.764 11.618 305.652 11.198 305.428 10.834C305.213 10.47 304.915 10.19 304.532 9.994C304.149 9.78867 303.711 9.686 303.216 9.686C302.721 9.686 302.278 9.78867 301.886 9.994C301.503 10.19 301.2 10.47 300.976 10.834C300.761 11.198 300.654 11.618 300.654 12.094C300.654 12.57 300.761 12.99 300.976 13.354C301.2 13.718 301.503 14.0027 301.886 14.208C302.278 14.4133 302.721 14.516 303.216 14.516ZM309.648 16V8.58H310.936V10.582L310.726 10.05C310.969 9.56467 311.342 9.18667 311.846 8.916C312.35 8.64533 312.938 8.51 313.61 8.51C314.217 8.51 314.749 8.62667 315.206 8.86C315.673 9.09333 316.037 9.448 316.298 9.924C316.559 10.4 316.69 11.002 316.69 11.73V16H315.346V11.884C315.346 11.1653 315.169 10.624 314.814 10.26C314.469 9.896 313.979 9.714 313.344 9.714C312.868 9.714 312.453 9.80733 312.098 9.994C311.743 10.1807 311.468 10.456 311.272 10.82C311.085 11.184 310.992 11.6367 310.992 12.178V16H309.648ZM322.481 16.084C321.688 16.084 320.988 15.9207 320.381 15.594C319.784 15.2673 319.317 14.8193 318.981 14.25C318.655 13.6807 318.491 13.0273 318.491 12.29C318.491 11.5527 318.65 10.8993 318.967 10.33C319.294 9.76067 319.737 9.31733 320.297 9C320.867 8.67333 321.506 8.51 322.215 8.51C322.934 8.51 323.569 8.66867 324.119 8.986C324.67 9.30333 325.099 9.75133 325.407 10.33C325.725 10.8993 325.883 11.5667 325.883 12.332C325.883 12.388 325.879 12.4533 325.869 12.528C325.869 12.6027 325.865 12.6727 325.855 12.738H319.541V11.772H325.155L324.609 12.108C324.619 11.632 324.521 11.2073 324.315 10.834C324.11 10.4607 323.825 10.1713 323.461 9.966C323.107 9.75133 322.691 9.644 322.215 9.644C321.749 9.644 321.333 9.75133 320.969 9.966C320.605 10.1713 320.321 10.4653 320.115 10.848C319.91 11.2213 319.807 11.6507 319.807 12.136V12.36C319.807 12.8547 319.919 13.298 320.143 13.69C320.377 14.0727 320.699 14.3713 321.109 14.586C321.52 14.8007 321.991 14.908 322.523 14.908C322.962 14.908 323.359 14.8333 323.713 14.684C324.077 14.5347 324.395 14.3107 324.665 14.012L325.407 14.88C325.071 15.272 324.651 15.5707 324.147 15.776C323.653 15.9813 323.097 16.084 322.481 16.084ZM330.816 16.084C330.097 16.084 329.453 15.9253 328.884 15.608C328.324 15.2907 327.88 14.8473 327.554 14.278C327.227 13.7087 327.064 13.046 327.064 12.29C327.064 11.534 327.227 10.876 327.554 10.316C327.88 9.74667 328.324 9.30333 328.884 8.986C329.453 8.66867 330.097 8.51 330.816 8.51C331.441 8.51 332.006 8.65 332.51 8.93C333.014 9.21 333.415 9.63 333.714 10.19C334.022 10.75 334.176 11.45 334.176 12.29C334.176 13.13 334.026 13.83 333.728 14.39C333.438 14.95 333.042 15.3747 332.538 15.664C332.034 15.944 331.46 16.084 330.816 16.084ZM330.928 14.908C331.394 14.908 331.814 14.8007 332.188 14.586C332.57 14.3713 332.869 14.068 333.084 13.676C333.308 13.2747 333.42 12.8127 333.42 12.29C333.42 11.758 333.308 11.3007 333.084 10.918C332.869 10.526 332.57 10.2227 332.188 10.008C331.814 9.79333 331.394 9.686 330.928 9.686C330.452 9.686 330.027 9.79333 329.654 10.008C329.28 10.2227 328.982 10.526 328.758 10.918C328.534 11.3007 328.422 11.758 328.422 12.29C328.422 12.8127 328.534 13.2747 328.758 13.676C328.982 14.068 329.28 14.3713 329.654 14.586C330.027 14.8007 330.452 14.908 330.928 14.908ZM333.462 16V13.998L333.546 12.276L333.406 10.554V5.612H334.75V16H333.462ZM343.6 16.084C342.854 16.084 342.275 15.8833 341.864 15.482C341.454 15.0807 341.248 14.5067 341.248 13.76V6.956H342.592V13.704C342.592 14.1053 342.69 14.4133 342.886 14.628C343.092 14.8427 343.381 14.95 343.754 14.95C344.174 14.95 344.524 14.8333 344.804 14.6L345.224 15.566C345.019 15.7433 344.772 15.874 344.482 15.958C344.202 16.042 343.908 16.084 343.6 16.084ZM339.988 9.686V8.58H344.72V9.686H339.988ZM349.781 16.084C349.034 16.084 348.372 15.9207 347.793 15.594C347.214 15.2673 346.757 14.8193 346.421 14.25C346.085 13.6713 345.917 13.018 345.917 12.29C345.917 11.5527 346.085 10.8993 346.421 10.33C346.757 9.76067 347.214 9.31733 347.793 9C348.372 8.67333 349.034 8.51 349.781 8.51C350.518 8.51 351.176 8.67333 351.755 9C352.343 9.31733 352.8 9.76067 353.127 10.33C353.463 10.89 353.631 11.5433 353.631 12.29C353.631 13.0273 353.463 13.6807 353.127 14.25C352.8 14.8193 352.343 15.2673 351.755 15.594C351.176 15.9207 350.518 16.084 349.781 16.084ZM349.781 14.908C350.257 14.908 350.682 14.8007 351.055 14.586C351.438 14.3713 351.736 14.068 351.951 13.676C352.166 13.2747 352.273 12.8127 352.273 12.29C352.273 11.758 352.166 11.3007 351.951 10.918C351.736 10.526 351.438 10.2227 351.055 10.008C350.682 9.79333 350.257 9.686 349.781 9.686C349.305 9.686 348.88 9.79333 348.507 10.008C348.134 10.2227 347.835 10.526 347.611 10.918C347.387 11.3007 347.275 11.758 347.275 12.29C347.275 12.8127 347.387 13.2747 347.611 13.676C347.835 14.068 348.134 14.3713 348.507 14.586C348.88 14.8007 349.305 14.908 349.781 14.908ZM359.25 16V8.58H360.538V10.554L360.328 10.05C360.561 9.56467 360.92 9.18667 361.406 8.916C361.891 8.64533 362.456 8.51 363.1 8.51C363.809 8.51 364.42 8.68733 364.934 9.042C365.447 9.38733 365.783 9.91467 365.942 10.624L365.396 10.4C365.62 9.83067 366.012 9.37333 366.572 9.028C367.132 8.68267 367.785 8.51 368.532 8.51C369.129 8.51 369.656 8.62667 370.114 8.86C370.571 9.09333 370.926 9.448 371.178 9.924C371.439 10.4 371.57 11.002 371.57 11.73V16H370.226V11.884C370.226 11.1653 370.058 10.624 369.722 10.26C369.386 9.896 368.914 9.714 368.308 9.714C367.86 9.714 367.468 9.80733 367.132 9.994C366.796 10.1807 366.534 10.456 366.348 10.82C366.17 11.184 366.082 11.6367 366.082 12.178V16H364.738V11.884C364.738 11.1653 364.57 10.624 364.234 10.26C363.907 9.896 363.436 9.714 362.82 9.714C362.381 9.714 361.994 9.80733 361.658 9.994C361.322 10.1807 361.06 10.456 360.874 10.82C360.687 11.184 360.594 11.6367 360.594 12.178V16H359.25ZM378.649 16V14.432L378.579 14.138V11.464C378.579 10.8947 378.411 10.456 378.075 10.148C377.748 9.83067 377.253 9.672 376.591 9.672C376.152 9.672 375.723 9.74667 375.303 9.896C374.883 10.036 374.528 10.2273 374.239 10.47L373.679 9.462C374.061 9.154 374.519 8.92067 375.051 8.762C375.592 8.594 376.157 8.51 376.745 8.51C377.762 8.51 378.546 8.75733 379.097 9.252C379.647 9.74667 379.923 10.5027 379.923 11.52V16H378.649ZM376.213 16.084C375.662 16.084 375.177 15.9907 374.757 15.804C374.346 15.6173 374.029 15.3607 373.805 15.034C373.581 14.698 373.469 14.32 373.469 13.9C373.469 13.4987 373.562 13.1347 373.749 12.808C373.945 12.4813 374.257 12.22 374.687 12.024C375.125 11.828 375.713 11.73 376.451 11.73H378.803V12.696H376.507C375.835 12.696 375.382 12.808 375.149 13.032C374.915 13.256 374.799 13.5267 374.799 13.844C374.799 14.208 374.943 14.502 375.233 14.726C375.522 14.9407 375.923 15.048 376.437 15.048C376.941 15.048 377.379 14.936 377.753 14.712C378.135 14.488 378.411 14.1613 378.579 13.732L378.845 14.656C378.667 15.0947 378.355 15.4447 377.907 15.706C377.459 15.958 376.894 16.084 376.213 16.084ZM382.41 16V8.58H383.754V16H382.41ZM383.082 7.152C382.82 7.152 382.601 7.068 382.424 6.9C382.256 6.732 382.172 6.52667 382.172 6.284C382.172 6.032 382.256 5.822 382.424 5.654C382.601 5.486 382.82 5.402 383.082 5.402C383.343 5.402 383.558 5.486 383.726 5.654C383.903 5.81267 383.992 6.01333 383.992 6.256C383.992 6.508 383.908 6.72267 383.74 6.9C383.572 7.068 383.352 7.152 383.082 7.152ZM386.32 16V8.58H387.608V10.582L387.398 10.05C387.641 9.56467 388.014 9.18667 388.518 8.916C389.022 8.64533 389.61 8.51 390.282 8.51C390.889 8.51 391.421 8.62667 391.878 8.86C392.345 9.09333 392.709 9.448 392.97 9.924C393.231 10.4 393.362 11.002 393.362 11.73V16H392.018V11.884C392.018 11.1653 391.841 10.624 391.486 10.26C391.141 9.896 390.651 9.714 390.016 9.714C389.54 9.714 389.125 9.80733 388.77 9.994C388.415 10.1807 388.14 10.456 387.944 10.82C387.757 11.184 387.664 11.6367 387.664 12.178V16H386.32ZM398.397 16.084C397.651 16.084 397.072 15.8833 396.661 15.482C396.251 15.0807 396.045 14.5067 396.045 13.76V6.956H397.389V13.704C397.389 14.1053 397.487 14.4133 397.683 14.628C397.889 14.8427 398.178 14.95 398.551 14.95C398.971 14.95 399.321 14.8333 399.601 14.6L400.021 15.566C399.816 15.7433 399.569 15.874 399.279 15.958C398.999 16.042 398.705 16.084 398.397 16.084ZM394.785 9.686V8.58H399.517V9.686H394.785ZM405.979 16V14.432L405.909 14.138V11.464C405.909 10.8947 405.741 10.456 405.405 10.148C405.078 9.83067 404.583 9.672 403.921 9.672C403.482 9.672 403.053 9.74667 402.633 9.896C402.213 10.036 401.858 10.2273 401.569 10.47L401.009 9.462C401.391 9.154 401.849 8.92067 402.381 8.762C402.922 8.594 403.487 8.51 404.075 8.51C405.092 8.51 405.876 8.75733 406.427 9.252C406.977 9.74667 407.253 10.5027 407.253 11.52V16H405.979ZM403.543 16.084C402.992 16.084 402.507 15.9907 402.087 15.804C401.676 15.6173 401.359 15.3607 401.135 15.034C400.911 14.698 400.799 14.32 400.799 13.9C400.799 13.4987 400.892 13.1347 401.079 12.808C401.275 12.4813 401.587 12.22 402.017 12.024C402.455 11.828 403.043 11.73 403.781 11.73H406.133V12.696H403.837C403.165 12.696 402.712 12.808 402.479 13.032C402.245 13.256 402.129 13.5267 402.129 13.844C402.129 14.208 402.273 14.502 402.563 14.726C402.852 14.9407 403.253 15.048 403.767 15.048C404.271 15.048 404.709 14.936 405.083 14.712C405.465 14.488 405.741 14.1613 405.909 13.732L406.175 14.656C405.997 15.0947 405.685 15.4447 405.237 15.706C404.789 15.958 404.224 16.084 403.543 16.084ZM409.74 16V8.58H411.084V16H409.74ZM410.412 7.152C410.15 7.152 409.931 7.068 409.754 6.9C409.586 6.732 409.502 6.52667 409.502 6.284C409.502 6.032 409.586 5.822 409.754 5.654C409.931 5.486 410.15 5.402 410.412 5.402C410.673 5.402 410.888 5.486 411.056 5.654C411.233 5.81267 411.322 6.01333 411.322 6.256C411.322 6.508 411.238 6.72267 411.07 6.9C410.902 7.068 410.682 7.152 410.412 7.152ZM413.65 16V8.58H414.938V10.582L414.728 10.05C414.971 9.56467 415.344 9.18667 415.848 8.916C416.352 8.64533 416.94 8.51 417.612 8.51C418.219 8.51 418.751 8.62667 419.208 8.86C419.675 9.09333 420.039 9.448 420.3 9.924C420.561 10.4 420.692 11.002 420.692 11.73V16H419.348V11.884C419.348 11.1653 419.171 10.624 418.816 10.26C418.471 9.896 417.981 9.714 417.346 9.714C416.87 9.714 416.455 9.80733 416.1 9.994C415.745 10.1807 415.47 10.456 415.274 10.82C415.087 11.184 414.994 11.6367 414.994 12.178V16H413.65ZM88.7425 37V28.922C88.7425 28.194 88.9525 27.6153 89.3725 27.186C89.8018 26.7473 90.4085 26.528 91.1925 26.528C91.4818 26.528 91.7571 26.5653 92.0185 26.64C92.2891 26.7053 92.5178 26.8127 92.7045 26.962L92.2985 27.984C92.1585 27.872 91.9998 27.788 91.8225 27.732C91.6451 27.6667 91.4585 27.634 91.2625 27.634C90.8705 27.634 90.5718 27.746 90.3665 27.97C90.1611 28.1847 90.0585 28.5067 90.0585 28.936V29.93L90.0865 30.546V37H88.7425ZM87.4825 30.686V29.58H92.2145V30.686H87.4825ZM93.482 37V29.58H94.77V31.596L94.644 31.092C94.8493 30.5787 95.1947 30.1867 95.68 29.916C96.1653 29.6453 96.7627 29.51 97.472 29.51V30.812C97.416 30.8027 97.36 30.798 97.304 30.798C97.2573 30.798 97.2107 30.798 97.164 30.798C96.4453 30.798 95.876 31.0127 95.456 31.442C95.036 31.8713 94.826 32.492 94.826 33.304V37H93.482ZM102.364 37.084C101.571 37.084 100.871 36.9207 100.264 36.594C99.6668 36.2673 99.2001 35.8193 98.8641 35.25C98.5375 34.6807 98.3741 34.0273 98.3741 33.29C98.3741 32.5527 98.5328 31.8993 98.8501 31.33C99.1768 30.7607 99.6201 30.3173 100.18 30C100.749 29.6733 101.389 29.51 102.098 29.51C102.817 29.51 103.451 29.6687 104.002 29.986C104.553 30.3033 104.982 30.7513 105.29 31.33C105.607 31.8993 105.766 32.5667 105.766 33.332C105.766 33.388 105.761 33.4533 105.752 33.528C105.752 33.6027 105.747 33.6727 105.738 33.738H99.4241V32.772H105.038L104.492 33.108C104.501 32.632 104.403 32.2073 104.198 31.834C103.993 31.4607 103.708 31.1713 103.344 30.966C102.989 30.7513 102.574 30.644 102.098 30.644C101.631 30.644 101.216 30.7513 100.852 30.966C100.488 31.1713 100.203 31.4653 99.9981 31.848C99.7928 32.2213 99.6901 32.6507 99.6901 33.136V33.36C99.6901 33.8547 99.8021 34.298 100.026 34.69C100.259 35.0727 100.581 35.3713 100.992 35.586C101.403 35.8007 101.874 35.908 102.406 35.908C102.845 35.908 103.241 35.8333 103.596 35.684C103.96 35.5347 104.277 35.3107 104.548 35.012L105.29 35.88C104.954 36.272 104.534 36.5707 104.03 36.776C103.535 36.9813 102.98 37.084 102.364 37.084ZM109.76 37.084C109.144 37.084 108.556 37 107.996 36.832C107.446 36.664 107.012 36.4587 106.694 36.216L107.254 35.152C107.572 35.3667 107.964 35.5487 108.43 35.698C108.897 35.8473 109.373 35.922 109.858 35.922C110.484 35.922 110.932 35.8333 111.202 35.656C111.482 35.4787 111.622 35.2313 111.622 34.914C111.622 34.6807 111.538 34.4987 111.37 34.368C111.202 34.2373 110.978 34.1393 110.698 34.074C110.428 34.0087 110.124 33.9527 109.788 33.906C109.452 33.85 109.116 33.7847 108.78 33.71C108.444 33.626 108.136 33.514 107.856 33.374C107.576 33.2247 107.352 33.024 107.184 32.772C107.016 32.5107 106.932 32.1653 106.932 31.736C106.932 31.288 107.058 30.896 107.31 30.56C107.562 30.224 107.917 29.9673 108.374 29.79C108.841 29.6033 109.392 29.51 110.026 29.51C110.512 29.51 111.002 29.5707 111.496 29.692C112 29.804 112.411 29.9673 112.728 30.182L112.154 31.246C111.818 31.022 111.468 30.868 111.104 30.784C110.74 30.7 110.376 30.658 110.012 30.658C109.424 30.658 108.986 30.756 108.696 30.952C108.407 31.1387 108.262 31.3813 108.262 31.68C108.262 31.932 108.346 32.128 108.514 32.268C108.692 32.3987 108.916 32.5013 109.186 32.576C109.466 32.6507 109.774 32.716 110.11 32.772C110.446 32.8187 110.782 32.884 111.118 32.968C111.454 33.0427 111.758 33.15 112.028 33.29C112.308 33.43 112.532 33.626 112.7 33.878C112.878 34.13 112.966 34.466 112.966 34.886C112.966 35.334 112.836 35.7213 112.574 36.048C112.313 36.3747 111.944 36.6313 111.468 36.818C110.992 36.9953 110.423 37.084 109.76 37.084ZM114.646 37V26.612H115.99V31.582L115.724 31.05C115.967 30.5647 116.34 30.1867 116.844 29.916C117.348 29.6453 117.936 29.51 118.608 29.51C119.215 29.51 119.747 29.6267 120.204 29.86C120.671 30.0933 121.035 30.448 121.296 30.924C121.557 31.4 121.688 32.002 121.688 32.73V37H120.344V32.884C120.344 32.1653 120.167 31.624 119.812 31.26C119.467 30.896 118.977 30.714 118.342 30.714C117.866 30.714 117.451 30.8073 117.096 30.994C116.741 31.1807 116.466 31.456 116.27 31.82C116.083 32.184 115.99 32.6367 115.99 33.178V37H114.646ZM124.175 37V29.58H125.463V31.582L125.253 31.05C125.496 30.5647 125.869 30.1867 126.373 29.916C126.877 29.6453 127.465 29.51 128.137 29.51C128.744 29.51 129.276 29.6267 129.733 29.86C130.2 30.0933 130.564 30.448 130.825 30.924C131.087 31.4 131.217 32.002 131.217 32.73V37H129.873V32.884C129.873 32.1653 129.696 31.624 129.341 31.26C128.996 30.896 128.506 30.714 127.871 30.714C127.395 30.714 126.98 30.8073 126.625 30.994C126.271 31.1807 125.995 31.456 125.799 31.82C125.613 32.184 125.519 32.6367 125.519 33.178V37H124.175ZM137.009 37.084C136.215 37.084 135.515 36.9207 134.909 36.594C134.311 36.2673 133.845 35.8193 133.509 35.25C133.182 34.6807 133.019 34.0273 133.019 33.29C133.019 32.5527 133.177 31.8993 133.495 31.33C133.821 30.7607 134.265 30.3173 134.825 30C135.394 29.6733 136.033 29.51 136.743 29.51C137.461 29.51 138.096 29.6687 138.647 29.986C139.197 30.3033 139.627 30.7513 139.935 31.33C140.252 31.8993 140.411 32.5667 140.411 33.332C140.411 33.388 140.406 33.4533 140.397 33.528C140.397 33.6027 140.392 33.6727 140.383 33.738H134.069V32.772H139.683L139.137 33.108C139.146 32.632 139.048 32.2073 138.843 31.834C138.637 31.4607 138.353 31.1713 137.989 30.966C137.634 30.7513 137.219 30.644 136.743 30.644C136.276 30.644 135.861 30.7513 135.497 30.966C135.133 31.1713 134.848 31.4653 134.643 31.848C134.437 32.2213 134.335 32.6507 134.335 33.136V33.36C134.335 33.8547 134.447 34.298 134.671 34.69C134.904 35.0727 135.226 35.3713 135.637 35.586C136.047 35.8007 136.519 35.908 137.051 35.908C137.489 35.908 137.886 35.8333 138.241 35.684C138.605 35.5347 138.922 35.3107 139.193 35.012L139.935 35.88C139.599 36.272 139.179 36.5707 138.675 36.776C138.18 36.9813 137.625 37.084 137.009 37.084ZM144.405 37.084C143.789 37.084 143.201 37 142.641 36.832C142.09 36.664 141.656 36.4587 141.339 36.216L141.899 35.152C142.216 35.3667 142.608 35.5487 143.075 35.698C143.542 35.8473 144.018 35.922 144.503 35.922C145.128 35.922 145.576 35.8333 145.847 35.656C146.127 35.4787 146.267 35.2313 146.267 34.914C146.267 34.6807 146.183 34.4987 146.015 34.368C145.847 34.2373 145.623 34.1393 145.343 34.074C145.072 34.0087 144.769 33.9527 144.433 33.906C144.097 33.85 143.761 33.7847 143.425 33.71C143.089 33.626 142.781 33.514 142.501 33.374C142.221 33.2247 141.997 33.024 141.829 32.772C141.661 32.5107 141.577 32.1653 141.577 31.736C141.577 31.288 141.703 30.896 141.955 30.56C142.207 30.224 142.562 29.9673 143.019 29.79C143.486 29.6033 144.036 29.51 144.671 29.51C145.156 29.51 145.646 29.5707 146.141 29.692C146.645 29.804 147.056 29.9673 147.373 30.182L146.799 31.246C146.463 31.022 146.113 30.868 145.749 30.784C145.385 30.7 145.021 30.658 144.657 30.658C144.069 30.658 143.63 30.756 143.341 30.952C143.052 31.1387 142.907 31.3813 142.907 31.68C142.907 31.932 142.991 32.128 143.159 32.268C143.336 32.3987 143.56 32.5013 143.831 32.576C144.111 32.6507 144.419 32.716 144.755 32.772C145.091 32.8187 145.427 32.884 145.763 32.968C146.099 33.0427 146.402 33.15 146.673 33.29C146.953 33.43 147.177 33.626 147.345 33.878C147.522 34.13 147.611 34.466 147.611 34.886C147.611 35.334 147.48 35.7213 147.219 36.048C146.958 36.3747 146.589 36.6313 146.113 36.818C145.637 36.9953 145.068 37.084 144.405 37.084ZM151.419 37.084C150.803 37.084 150.215 37 149.655 36.832C149.104 36.664 148.67 36.4587 148.353 36.216L148.913 35.152C149.23 35.3667 149.622 35.5487 150.089 35.698C150.555 35.8473 151.031 35.922 151.517 35.922C152.142 35.922 152.59 35.8333 152.861 35.656C153.141 35.4787 153.281 35.2313 153.281 34.914C153.281 34.6807 153.197 34.4987 153.029 34.368C152.861 34.2373 152.637 34.1393 152.357 34.074C152.086 34.0087 151.783 33.9527 151.447 33.906C151.111 33.85 150.775 33.7847 150.439 33.71C150.103 33.626 149.795 33.514 149.515 33.374C149.235 33.2247 149.011 33.024 148.843 32.772C148.675 32.5107 148.591 32.1653 148.591 31.736C148.591 31.288 148.717 30.896 148.969 30.56C149.221 30.224 149.575 29.9673 150.033 29.79C150.499 29.6033 151.05 29.51 151.685 29.51C152.17 29.51 152.66 29.5707 153.155 29.692C153.659 29.804 154.069 29.9673 154.387 30.182L153.813 31.246C153.477 31.022 153.127 30.868 152.763 30.784C152.399 30.7 152.035 30.658 151.671 30.658C151.083 30.658 150.644 30.756 150.355 30.952C150.065 31.1387 149.921 31.3813 149.921 31.68C149.921 31.932 150.005 32.128 150.173 32.268C150.35 32.3987 150.574 32.5013 150.845 32.576C151.125 32.6507 151.433 32.716 151.769 32.772C152.105 32.8187 152.441 32.884 152.777 32.968C153.113 33.0427 153.416 33.15 153.687 33.29C153.967 33.43 154.191 33.626 154.359 33.878C154.536 34.13 154.625 34.466 154.625 34.886C154.625 35.334 154.494 35.7213 154.233 36.048C153.971 36.3747 153.603 36.6313 153.127 36.818C152.651 36.9953 152.081 37.084 151.419 37.084ZM164.67 37V35.432L164.6 35.138V32.464C164.6 31.8947 164.432 31.456 164.096 31.148C163.769 30.8307 163.275 30.672 162.612 30.672C162.173 30.672 161.744 30.7467 161.324 30.896C160.904 31.036 160.549 31.2273 160.26 31.47L159.7 30.462C160.083 30.154 160.54 29.9207 161.072 29.762C161.613 29.594 162.178 29.51 162.766 29.51C163.783 29.51 164.567 29.7573 165.118 30.252C165.669 30.7467 165.944 31.5027 165.944 32.52V37H164.67ZM162.234 37.084C161.683 37.084 161.198 36.9907 160.778 36.804C160.367 36.6173 160.05 36.3607 159.826 36.034C159.602 35.698 159.49 35.32 159.49 34.9C159.49 34.4987 159.583 34.1347 159.77 33.808C159.966 33.4813 160.279 33.22 160.708 33.024C161.147 32.828 161.735 32.73 162.472 32.73H164.824V33.696H162.528C161.856 33.696 161.403 33.808 161.17 34.032C160.937 34.256 160.82 34.5267 160.82 34.844C160.82 35.208 160.965 35.502 161.254 35.726C161.543 35.9407 161.945 36.048 162.458 36.048C162.962 36.048 163.401 35.936 163.774 35.712C164.157 35.488 164.432 35.1613 164.6 34.732L164.866 35.656C164.689 36.0947 164.376 36.4447 163.928 36.706C163.48 36.958 162.915 37.084 162.234 37.084ZM168.431 37V29.58H169.719V31.582L169.509 31.05C169.752 30.5647 170.125 30.1867 170.629 29.916C171.133 29.6453 171.721 29.51 172.393 29.51C173 29.51 173.532 29.6267 173.989 29.86C174.456 30.0933 174.82 30.448 175.081 30.924C175.343 31.4 175.473 32.002 175.473 32.73V37H174.129V32.884C174.129 32.1653 173.952 31.624 173.597 31.26C173.252 30.896 172.762 30.714 172.127 30.714C171.651 30.714 171.236 30.8073 170.881 30.994C170.527 31.1807 170.251 31.456 170.055 31.82C169.869 32.184 169.775 32.6367 169.775 33.178V37H168.431ZM181.027 37.084C180.308 37.084 179.664 36.9253 179.095 36.608C178.535 36.2907 178.091 35.8473 177.765 35.278C177.438 34.7087 177.275 34.046 177.275 33.29C177.275 32.534 177.438 31.876 177.765 31.316C178.091 30.7467 178.535 30.3033 179.095 29.986C179.664 29.6687 180.308 29.51 181.027 29.51C181.652 29.51 182.217 29.65 182.721 29.93C183.225 30.21 183.626 30.63 183.925 31.19C184.233 31.75 184.387 32.45 184.387 33.29C184.387 34.13 184.237 34.83 183.939 35.39C183.649 35.95 183.253 36.3747 182.749 36.664C182.245 36.944 181.671 37.084 181.027 37.084ZM181.139 35.908C181.605 35.908 182.025 35.8007 182.399 35.586C182.781 35.3713 183.08 35.068 183.295 34.676C183.519 34.2747 183.631 33.8127 183.631 33.29C183.631 32.758 183.519 32.3007 183.295 31.918C183.08 31.526 182.781 31.2227 182.399 31.008C182.025 30.7933 181.605 30.686 181.139 30.686C180.663 30.686 180.238 30.7933 179.865 31.008C179.491 31.2227 179.193 31.526 178.969 31.918C178.745 32.3007 178.633 32.758 178.633 33.29C178.633 33.8127 178.745 34.2747 178.969 34.676C179.193 35.068 179.491 35.3713 179.865 35.586C180.238 35.8007 180.663 35.908 181.139 35.908ZM183.673 37V34.998L183.757 33.276L183.617 31.554V26.612H184.961V37H183.673ZM194.567 37.084C193.774 37.084 193.074 36.9207 192.467 36.594C191.87 36.2673 191.403 35.8193 191.067 35.25C190.741 34.6807 190.577 34.0273 190.577 33.29C190.577 32.5527 190.736 31.8993 191.053 31.33C191.38 30.7607 191.823 30.3173 192.383 30C192.953 29.6733 193.592 29.51 194.301 29.51C195.02 29.51 195.655 29.6687 196.205 29.986C196.756 30.3033 197.185 30.7513 197.493 31.33C197.811 31.8993 197.969 32.5667 197.969 33.332C197.969 33.388 197.965 33.4533 197.955 33.528C197.955 33.6027 197.951 33.6727 197.941 33.738H191.627V32.772H197.241L196.695 33.108C196.705 32.632 196.607 32.2073 196.401 31.834C196.196 31.4607 195.911 31.1713 195.547 30.966C195.193 30.7513 194.777 30.644 194.301 30.644C193.835 30.644 193.419 30.7513 193.055 30.966C192.691 31.1713 192.407 31.4653 192.201 31.848C191.996 32.2213 191.893 32.6507 191.893 33.136V33.36C191.893 33.8547 192.005 34.298 192.229 34.69C192.463 35.0727 192.785 35.3713 193.195 35.586C193.606 35.8007 194.077 35.908 194.609 35.908C195.048 35.908 195.445 35.8333 195.799 35.684C196.163 35.5347 196.481 35.3107 196.751 35.012L197.493 35.88C197.157 36.272 196.737 36.5707 196.233 36.776C195.739 36.9813 195.183 37.084 194.567 37.084ZM199.836 37V29.58H201.124V31.582L200.914 31.05C201.156 30.5647 201.53 30.1867 202.034 29.916C202.538 29.6453 203.126 29.51 203.798 29.51C204.404 29.51 204.936 29.6267 205.394 29.86C205.86 30.0933 206.224 30.448 206.486 30.924C206.747 31.4 206.878 32.002 206.878 32.73V37H205.534V32.884C205.534 32.1653 205.356 31.624 205.002 31.26C204.656 30.896 204.166 30.714 203.532 30.714C203.056 30.714 202.64 30.8073 202.286 30.994C201.931 31.1807 201.656 31.456 201.46 31.82C201.273 32.184 201.18 32.6367 201.18 33.178V37H199.836ZM209.365 37V26.612H210.709V31.582L210.443 31.05C210.685 30.5647 211.059 30.1867 211.563 29.916C212.067 29.6453 212.655 29.51 213.327 29.51C213.933 29.51 214.465 29.6267 214.923 29.86C215.389 30.0933 215.753 30.448 216.015 30.924C216.276 31.4 216.407 32.002 216.407 32.73V37H215.063V32.884C215.063 32.1653 214.885 31.624 214.531 31.26C214.185 30.896 213.695 30.714 213.061 30.714C212.585 30.714 212.169 30.8073 211.815 30.994C211.46 31.1807 211.185 31.456 210.989 31.82C210.802 32.184 210.709 32.6367 210.709 33.178V37H209.365ZM223.5 37V35.432L223.43 35.138V32.464C223.43 31.8947 223.262 31.456 222.926 31.148C222.599 30.8307 222.105 30.672 221.442 30.672C221.003 30.672 220.574 30.7467 220.154 30.896C219.734 31.036 219.379 31.2273 219.09 31.47L218.53 30.462C218.913 30.154 219.37 29.9207 219.902 29.762C220.443 29.594 221.008 29.51 221.596 29.51C222.613 29.51 223.397 29.7573 223.948 30.252C224.499 30.7467 224.774 31.5027 224.774 32.52V37H223.5ZM221.064 37.084C220.513 37.084 220.028 36.9907 219.608 36.804C219.197 36.6173 218.88 36.3607 218.656 36.034C218.432 35.698 218.32 35.32 218.32 34.9C218.32 34.4987 218.413 34.1347 218.6 33.808C218.796 33.4813 219.109 33.22 219.538 33.024C219.977 32.828 220.565 32.73 221.302 32.73H223.654V33.696H221.358C220.686 33.696 220.233 33.808 220 34.032C219.767 34.256 219.65 34.5267 219.65 34.844C219.65 35.208 219.795 35.502 220.084 35.726C220.373 35.9407 220.775 36.048 221.288 36.048C221.792 36.048 222.231 35.936 222.604 35.712C222.987 35.488 223.262 35.1613 223.43 34.732L223.696 35.656C223.519 36.0947 223.206 36.4447 222.758 36.706C222.31 36.958 221.745 37.084 221.064 37.084ZM227.261 37V29.58H228.549V31.582L228.339 31.05C228.582 30.5647 228.955 30.1867 229.459 29.916C229.963 29.6453 230.551 29.51 231.223 29.51C231.83 29.51 232.362 29.6267 232.819 29.86C233.286 30.0933 233.65 30.448 233.911 30.924C234.173 31.4 234.303 32.002 234.303 32.73V37H232.959V32.884C232.959 32.1653 232.782 31.624 232.427 31.26C232.082 30.896 231.592 30.714 230.957 30.714C230.481 30.714 230.066 30.8073 229.711 30.994C229.357 31.1807 229.081 31.456 228.885 31.82C228.699 32.184 228.605 32.6367 228.605 33.178V37H227.261ZM240.025 37.084C239.269 37.084 238.592 36.9207 237.995 36.594C237.407 36.2673 236.945 35.8193 236.609 35.25C236.273 34.6807 236.105 34.0273 236.105 33.29C236.105 32.5527 236.273 31.8993 236.609 31.33C236.945 30.7607 237.407 30.3173 237.995 30C238.592 29.6733 239.269 29.51 240.025 29.51C240.697 29.51 241.294 29.6453 241.817 29.916C242.349 30.1773 242.759 30.5693 243.049 31.092L242.027 31.75C241.784 31.386 241.485 31.12 241.131 30.952C240.785 30.7747 240.412 30.686 240.011 30.686C239.525 30.686 239.091 30.7933 238.709 31.008C238.326 31.2227 238.023 31.526 237.799 31.918C237.575 32.3007 237.463 32.758 237.463 33.29C237.463 33.822 237.575 34.284 237.799 34.676C238.023 35.068 238.326 35.3713 238.709 35.586C239.091 35.8007 239.525 35.908 240.011 35.908C240.412 35.908 240.785 35.824 241.131 35.656C241.485 35.4787 241.784 35.208 242.027 34.844L243.049 35.488C242.759 36.0013 242.349 36.398 241.817 36.678C241.294 36.9487 240.697 37.084 240.025 37.084ZM247.983 37.084C247.19 37.084 246.49 36.9207 245.883 36.594C245.286 36.2673 244.819 35.8193 244.483 35.25C244.157 34.6807 243.993 34.0273 243.993 33.29C243.993 32.5527 244.152 31.8993 244.469 31.33C244.796 30.7607 245.239 30.3173 245.799 30C246.369 29.6733 247.008 29.51 247.717 29.51C248.436 29.51 249.071 29.6687 249.621 29.986C250.172 30.3033 250.601 30.7513 250.909 31.33C251.227 31.8993 251.385 32.5667 251.385 33.332C251.385 33.388 251.381 33.4533 251.371 33.528C251.371 33.6027 251.367 33.6727 251.357 33.738H245.043V32.772H250.657L250.111 33.108C250.121 32.632 250.023 32.2073 249.817 31.834C249.612 31.4607 249.327 31.1713 248.963 30.966C248.609 30.7513 248.193 30.644 247.717 30.644C247.251 30.644 246.835 30.7513 246.471 30.966C246.107 31.1713 245.823 31.4653 245.617 31.848C245.412 32.2213 245.309 32.6507 245.309 33.136V33.36C245.309 33.8547 245.421 34.298 245.645 34.69C245.879 35.0727 246.201 35.3713 246.611 35.586C247.022 35.8007 247.493 35.908 248.025 35.908C248.464 35.908 248.861 35.8333 249.215 35.684C249.579 35.5347 249.897 35.3107 250.167 35.012L250.909 35.88C250.573 36.272 250.153 36.5707 249.649 36.776C249.155 36.9813 248.599 37.084 247.983 37.084ZM259.139 37.084C258.523 37.084 257.935 37 257.375 36.832C256.825 36.664 256.391 36.4587 256.073 36.216L256.633 35.152C256.951 35.3667 257.343 35.5487 257.809 35.698C258.276 35.8473 258.752 35.922 259.237 35.922C259.863 35.922 260.311 35.8333 260.581 35.656C260.861 35.4787 261.001 35.2313 261.001 34.914C261.001 34.6807 260.917 34.4987 260.749 34.368C260.581 34.2373 260.357 34.1393 260.077 34.074C259.807 34.0087 259.503 33.9527 259.167 33.906C258.831 33.85 258.495 33.7847 258.159 33.71C257.823 33.626 257.515 33.514 257.235 33.374C256.955 33.2247 256.731 33.024 256.563 32.772C256.395 32.5107 256.311 32.1653 256.311 31.736C256.311 31.288 256.437 30.896 256.689 30.56C256.941 30.224 257.296 29.9673 257.753 29.79C258.22 29.6033 258.771 29.51 259.405 29.51C259.891 29.51 260.381 29.5707 260.875 29.692C261.379 29.804 261.79 29.9673 262.107 30.182L261.533 31.246C261.197 31.022 260.847 30.868 260.483 30.784C260.119 30.7 259.755 30.658 259.391 30.658C258.803 30.658 258.365 30.756 258.075 30.952C257.786 31.1387 257.641 31.3813 257.641 31.68C257.641 31.932 257.725 32.128 257.893 32.268C258.071 32.3987 258.295 32.5013 258.565 32.576C258.845 32.6507 259.153 32.716 259.489 32.772C259.825 32.8187 260.161 32.884 260.497 32.968C260.833 33.0427 261.137 33.15 261.407 33.29C261.687 33.43 261.911 33.626 262.079 33.878C262.257 34.13 262.345 34.466 262.345 34.886C262.345 35.334 262.215 35.7213 261.953 36.048C261.692 36.3747 261.323 36.6313 260.847 36.818C260.371 36.9953 259.802 37.084 259.139 37.084ZM264.025 37V26.612H265.369V31.582L265.103 31.05C265.346 30.5647 265.719 30.1867 266.223 29.916C266.727 29.6453 267.315 29.51 267.987 29.51C268.594 29.51 269.126 29.6267 269.583 29.86C270.05 30.0933 270.414 30.448 270.675 30.924C270.936 31.4 271.067 32.002 271.067 32.73V37H269.723V32.884C269.723 32.1653 269.546 31.624 269.191 31.26C268.846 30.896 268.356 30.714 267.721 30.714C267.245 30.714 266.83 30.8073 266.475 30.994C266.12 31.1807 265.845 31.456 265.649 31.82C265.462 32.184 265.369 32.6367 265.369 33.178V37H264.025ZM276.858 37.084C276.065 37.084 275.365 36.9207 274.758 36.594C274.161 36.2673 273.694 35.8193 273.358 35.25C273.032 34.6807 272.868 34.0273 272.868 33.29C272.868 32.5527 273.027 31.8993 273.344 31.33C273.671 30.7607 274.114 30.3173 274.674 30C275.244 29.6733 275.883 29.51 276.592 29.51C277.311 29.51 277.946 29.6687 278.496 29.986C279.047 30.3033 279.476 30.7513 279.784 31.33C280.102 31.8993 280.26 32.5667 280.26 33.332C280.26 33.388 280.256 33.4533 280.246 33.528C280.246 33.6027 280.242 33.6727 280.232 33.738H273.918V32.772H279.532L278.986 33.108C278.996 32.632 278.898 32.2073 278.692 31.834C278.487 31.4607 278.202 31.1713 277.838 30.966C277.484 30.7513 277.068 30.644 276.592 30.644C276.126 30.644 275.71 30.7513 275.346 30.966C274.982 31.1713 274.698 31.4653 274.492 31.848C274.287 32.2213 274.184 32.6507 274.184 33.136V33.36C274.184 33.8547 274.296 34.298 274.52 34.69C274.754 35.0727 275.076 35.3713 275.486 35.586C275.897 35.8007 276.368 35.908 276.9 35.908C277.339 35.908 277.736 35.8333 278.09 35.684C278.454 35.5347 278.772 35.3107 279.042 35.012L279.784 35.88C279.448 36.272 279.028 36.5707 278.524 36.776C278.03 36.9813 277.474 37.084 276.858 37.084ZM282.127 37V26.612H283.471V37H282.127ZM286.233 37V28.922C286.233 28.194 286.443 27.6153 286.863 27.186C287.292 26.7473 287.899 26.528 288.683 26.528C288.972 26.528 289.247 26.5653 289.509 26.64C289.779 26.7053 290.008 26.8127 290.195 26.962L289.789 27.984C289.649 27.872 289.49 27.788 289.313 27.732C289.135 27.6667 288.949 27.634 288.753 27.634C288.361 27.634 288.062 27.746 287.857 27.97C287.651 28.1847 287.549 28.5067 287.549 28.936V29.93L287.577 30.546V37H286.233ZM284.973 30.686V29.58H289.705V30.686H284.973ZM299.338 37V35.432L299.268 35.138V32.464C299.268 31.8947 299.1 31.456 298.764 31.148C298.437 30.8307 297.943 30.672 297.28 30.672C296.841 30.672 296.412 30.7467 295.992 30.896C295.572 31.036 295.217 31.2273 294.928 31.47L294.368 30.462C294.751 30.154 295.208 29.9207 295.74 29.762C296.281 29.594 296.846 29.51 297.434 29.51C298.451 29.51 299.235 29.7573 299.786 30.252C300.337 30.7467 300.612 31.5027 300.612 32.52V37H299.338ZM296.902 37.084C296.351 37.084 295.866 36.9907 295.446 36.804C295.035 36.6173 294.718 36.3607 294.494 36.034C294.27 35.698 294.158 35.32 294.158 34.9C294.158 34.4987 294.251 34.1347 294.438 33.808C294.634 33.4813 294.947 33.22 295.376 33.024C295.815 32.828 296.403 32.73 297.14 32.73H299.492V33.696H297.196C296.524 33.696 296.071 33.808 295.838 34.032C295.605 34.256 295.488 34.5267 295.488 34.844C295.488 35.208 295.633 35.502 295.922 35.726C296.211 35.9407 296.613 36.048 297.126 36.048C297.63 36.048 298.069 35.936 298.442 35.712C298.825 35.488 299.1 35.1613 299.268 34.732L299.534 35.656C299.357 36.0947 299.044 36.4447 298.596 36.706C298.148 36.958 297.583 37.084 296.902 37.084ZM307.033 37.084C306.417 37.084 305.853 36.944 305.339 36.664C304.835 36.3747 304.429 35.95 304.121 35.39C303.823 34.83 303.673 34.13 303.673 33.29C303.673 32.45 303.818 31.75 304.107 31.19C304.406 30.63 304.807 30.21 305.311 29.93C305.825 29.65 306.399 29.51 307.033 29.51C307.761 29.51 308.405 29.6687 308.965 29.986C309.525 30.3033 309.969 30.7467 310.295 31.316C310.622 31.876 310.785 32.534 310.785 33.29C310.785 34.046 310.622 34.7087 310.295 35.278C309.969 35.8473 309.525 36.2907 308.965 36.608C308.405 36.9253 307.761 37.084 307.033 37.084ZM303.099 39.716V29.58H304.387V31.582L304.303 33.304L304.443 35.026V39.716H303.099ZM306.921 35.908C307.397 35.908 307.822 35.8007 308.195 35.586C308.578 35.3713 308.877 35.068 309.091 34.676C309.315 34.2747 309.427 33.8127 309.427 33.29C309.427 32.758 309.315 32.3007 309.091 31.918C308.877 31.526 308.578 31.2227 308.195 31.008C307.822 30.7933 307.397 30.686 306.921 30.686C306.455 30.686 306.03 30.7933 305.647 31.008C305.274 31.2227 304.975 31.526 304.751 31.918C304.537 32.3007 304.429 32.758 304.429 33.29C304.429 33.8127 304.537 34.2747 304.751 34.676C304.975 35.068 305.274 35.3713 305.647 35.586C306.03 35.8007 306.455 35.908 306.921 35.908ZM316.576 37.084C315.96 37.084 315.395 36.944 314.882 36.664C314.378 36.3747 313.972 35.95 313.664 35.39C313.365 34.83 313.216 34.13 313.216 33.29C313.216 32.45 313.361 31.75 313.65 31.19C313.949 30.63 314.35 30.21 314.854 29.93C315.367 29.65 315.941 29.51 316.576 29.51C317.304 29.51 317.948 29.6687 318.508 29.986C319.068 30.3033 319.511 30.7467 319.838 31.316C320.165 31.876 320.328 32.534 320.328 33.29C320.328 34.046 320.165 34.7087 319.838 35.278C319.511 35.8473 319.068 36.2907 318.508 36.608C317.948 36.9253 317.304 37.084 316.576 37.084ZM312.642 39.716V29.58H313.93V31.582L313.846 33.304L313.986 35.026V39.716H312.642ZM316.464 35.908C316.94 35.908 317.365 35.8007 317.738 35.586C318.121 35.3713 318.419 35.068 318.634 34.676C318.858 34.2747 318.97 33.8127 318.97 33.29C318.97 32.758 318.858 32.3007 318.634 31.918C318.419 31.526 318.121 31.2227 317.738 31.008C317.365 30.7933 316.94 30.686 316.464 30.686C315.997 30.686 315.573 30.7933 315.19 31.008C314.817 31.2227 314.518 31.526 314.294 31.918C314.079 32.3007 313.972 32.758 313.972 33.29C313.972 33.8127 314.079 34.2747 314.294 34.676C314.518 35.068 314.817 35.3713 315.19 35.586C315.573 35.8007 315.997 35.908 316.464 35.908ZM325.489 37.084C324.696 37.084 323.996 36.9207 323.389 36.594C322.792 36.2673 322.325 35.8193 321.989 35.25C321.662 34.6807 321.499 34.0273 321.499 33.29C321.499 32.5527 321.658 31.8993 321.975 31.33C322.302 30.7607 322.745 30.3173 323.305 30C323.874 29.6733 324.514 29.51 325.223 29.51C325.942 29.51 326.576 29.6687 327.127 29.986C327.678 30.3033 328.107 30.7513 328.415 31.33C328.732 31.8993 328.891 32.5667 328.891 33.332C328.891 33.388 328.886 33.4533 328.877 33.528C328.877 33.6027 328.872 33.6727 328.863 33.738H322.549V32.772H328.163L327.617 33.108C327.626 32.632 327.528 32.2073 327.323 31.834C327.118 31.4607 326.833 31.1713 326.469 30.966C326.114 30.7513 325.699 30.644 325.223 30.644C324.756 30.644 324.341 30.7513 323.977 30.966C323.613 31.1713 323.328 31.4653 323.123 31.848C322.918 32.2213 322.815 32.6507 322.815 33.136V33.36C322.815 33.8547 322.927 34.298 323.151 34.69C323.384 35.0727 323.706 35.3713 324.117 35.586C324.528 35.8007 324.999 35.908 325.531 35.908C325.97 35.908 326.366 35.8333 326.721 35.684C327.085 35.5347 327.402 35.3107 327.673 35.012L328.415 35.88C328.079 36.272 327.659 36.5707 327.155 36.776C326.66 36.9813 326.105 37.084 325.489 37.084ZM335.158 37V35.432L335.088 35.138V32.464C335.088 31.8947 334.92 31.456 334.584 31.148C334.258 30.8307 333.763 30.672 333.1 30.672C332.662 30.672 332.232 30.7467 331.812 30.896C331.392 31.036 331.038 31.2273 330.748 31.47L330.188 30.462C330.571 30.154 331.028 29.9207 331.56 29.762C332.102 29.594 332.666 29.51 333.254 29.51C334.272 29.51 335.056 29.7573 335.606 30.252C336.157 30.7467 336.432 31.5027 336.432 32.52V37H335.158ZM332.722 37.084C332.172 37.084 331.686 36.9907 331.266 36.804C330.856 36.6173 330.538 36.3607 330.314 36.034C330.09 35.698 329.978 35.32 329.978 34.9C329.978 34.4987 330.072 34.1347 330.258 33.808C330.454 33.4813 330.767 33.22 331.196 33.024C331.635 32.828 332.223 32.73 332.96 32.73H335.312V33.696H333.016C332.344 33.696 331.892 33.808 331.658 34.032C331.425 34.256 331.308 34.5267 331.308 34.844C331.308 35.208 331.453 35.502 331.742 35.726C332.032 35.9407 332.433 36.048 332.946 36.048C333.45 36.048 333.889 35.936 334.262 35.712C334.645 35.488 334.92 35.1613 335.088 34.732L335.354 35.656C335.177 36.0947 334.864 36.4447 334.416 36.706C333.968 36.958 333.404 37.084 332.722 37.084ZM338.92 37V26.612H340.264V37H338.92ZM343.152 37.084C342.89 37.084 342.666 36.9953 342.48 36.818C342.293 36.6313 342.2 36.398 342.2 36.118C342.2 35.838 342.293 35.6093 342.48 35.432C342.666 35.2547 342.89 35.166 343.152 35.166C343.404 35.166 343.618 35.2547 343.796 35.432C343.982 35.6093 344.076 35.838 344.076 36.118C344.076 36.398 343.982 36.6313 343.796 36.818C343.618 36.9953 343.404 37.084 343.152 37.084Z" fill="black"/>
</svg>
