<svg width="253" height="72" viewBox="0 0 253 72" fill="none" xmlns="http://www.w3.org/2000/svg">
<path d="M-0.000249863 22.7842V0.384178H5.18375V22.7842H-0.000249863ZM10.4998 22.7842V0.384178H14.7878L24.3238 16.1922H22.0518L31.4278 0.384178H35.6838L35.7478 22.7842H30.8838L30.8518 7.84018H31.7478L24.2598 20.4162H21.9238L14.2758 7.84018H15.3638V22.7842H10.4998ZM41.0623 22.7842V0.384178H46.2463V18.5602H57.4783V22.7842H41.0623ZM69.4373 22.7842V0.384178H74.6213V22.7842H69.4373ZM90.6573 23.1682C88.9293 23.1682 87.3186 22.8908 85.8253 22.3362C84.3533 21.7602 83.0733 20.9495 81.9852 19.9042C80.8973 18.8588 80.0439 17.6322 79.4253 16.2242C78.8279 14.8162 78.5293 13.2695 78.5293 11.5842C78.5293 9.89885 78.8279 8.35218 79.4253 6.94418C80.0439 5.53618 80.8973 4.30951 81.9852 3.26418C83.0946 2.21885 84.3853 1.41884 85.8573 0.864178C87.3293 0.288179 88.9399 0.000179291 90.6893 0.000179291C92.6306 0.000179291 94.3799 0.341513 95.9373 1.02418C97.5159 1.68551 98.8386 2.66685 99.9053 3.96818L96.5773 7.04018C95.8093 6.16551 94.9559 5.51484 94.0173 5.08818C93.0786 4.64018 92.0546 4.41618 90.9453 4.41618C89.8999 4.41618 88.9399 4.58685 88.0653 4.92818C87.1906 5.26951 86.4333 5.76018 85.7933 6.40018C85.1533 7.04018 84.6519 7.79751 84.2893 8.67218C83.9479 9.54685 83.7773 10.5175 83.7773 11.5842C83.7773 12.6508 83.9479 13.6215 84.2893 14.4962C84.6519 15.3708 85.1533 16.1282 85.7933 16.7682C86.4333 17.4082 87.1906 17.8988 88.0653 18.2402C88.9399 18.5815 89.8999 18.7522 90.9453 18.7522C92.0546 18.7522 93.0786 18.5388 94.0173 18.1122C94.9559 17.6642 95.8093 16.9922 96.5773 16.0962L99.9053 19.1682C98.8386 20.4695 97.5159 21.4615 95.9373 22.1442C94.3799 22.8268 92.6199 23.1682 90.6573 23.1682ZM108.174 9.40818H118.958V13.4402H108.174V9.40818ZM108.558 18.6242H120.75V22.7842H103.406V0.384178H120.334V4.54418H108.558V18.6242ZM144.657 23.1682C142.929 23.1682 141.319 22.8908 139.825 22.3362C138.353 21.7602 137.073 20.9495 135.985 19.9042C134.897 18.8588 134.044 17.6322 133.425 16.2242C132.828 14.8162 132.529 13.2695 132.529 11.5842C132.529 9.89885 132.828 8.35218 133.425 6.94418C134.044 5.53618 134.897 4.30951 135.985 3.26418C137.095 2.21885 138.385 1.41884 139.857 0.864178C141.329 0.288179 142.94 0.000179291 144.689 0.000179291C146.631 0.000179291 148.38 0.341513 149.937 1.02418C151.516 1.68551 152.839 2.66685 153.905 3.96818L150.577 7.04018C149.809 6.16551 148.956 5.51484 148.017 5.08818C147.079 4.64018 146.055 4.41618 144.945 4.41618C143.9 4.41618 142.94 4.58685 142.065 4.92818C141.191 5.26951 140.433 5.76018 139.793 6.40018C139.153 7.04018 138.652 7.79751 138.289 8.67218C137.948 9.54685 137.777 10.5175 137.777 11.5842C137.777 12.6508 137.948 13.6215 138.289 14.4962C138.652 15.3708 139.153 16.1282 139.793 16.7682C140.433 17.4082 141.191 17.8988 142.065 18.2402C142.94 18.5815 143.9 18.7522 144.945 18.7522C146.055 18.7522 147.079 18.5388 148.017 18.1122C148.956 17.6642 149.809 16.9922 150.577 16.0962L153.905 19.1682C152.839 20.4695 151.516 21.4615 149.937 22.1442C148.38 22.8268 146.62 23.1682 144.657 23.1682ZM157.406 22.7842V0.384178H167.102C169.107 0.384178 170.835 0.714845 172.286 1.37618C173.737 2.01618 174.857 2.94418 175.646 4.16018C176.435 5.37618 176.83 6.82685 176.83 8.51218C176.83 10.1762 176.435 11.6162 175.646 12.8322C174.857 14.0268 173.737 14.9442 172.286 15.5842C170.835 16.2242 169.107 16.5442 167.102 16.5442H160.286L162.59 14.2722V22.7842H157.406ZM171.646 22.7842L166.046 14.6562H171.582L177.246 22.7842H171.646ZM162.59 14.8482L160.286 12.4162H166.814C168.414 12.4162 169.609 12.0748 170.398 11.3922C171.187 10.6882 171.582 9.72818 171.582 8.51218C171.582 7.27485 171.187 6.31485 170.398 5.63218C169.609 4.94951 168.414 4.60818 166.814 4.60818H160.286L162.59 2.14418V14.8482ZM185.705 9.40818H196.489V13.4402H185.705V9.40818ZM186.089 18.6242H198.281V22.7842H180.937V0.384178H197.865V4.54418H186.089V18.6242ZM199.462 22.7842L209.446 0.384178H214.566L224.582 22.7842H219.142L210.95 3.00818H212.998L204.774 22.7842H199.462ZM204.454 17.9842L205.83 14.0482H217.35L218.758 17.9842H204.454ZM226.906 22.7842V0.384178H231.194L240.73 16.1922H238.458L247.834 0.384178H252.09L252.154 22.7842H247.29L247.258 7.84018H248.154L240.666 20.4162H238.33L230.682 7.84018H231.77V22.7842H226.906ZM64.7185 70.7842V48.3842H74.4145C76.4198 48.3842 78.1478 48.7148 79.5985 49.3762C81.0492 50.0162 82.1692 50.9442 82.9585 52.1602C83.7478 53.3762 84.1425 54.8268 84.1425 56.5122C84.1425 58.1762 83.7478 59.6162 82.9585 60.8322C82.1692 62.0268 81.0492 62.9442 79.5985 63.5842C78.1478 64.2242 76.4198 64.5442 74.4145 64.5442H67.5985L69.9025 62.2722V70.7842H64.7185ZM78.9585 70.7842L73.3585 62.6562H78.8945L84.5585 70.7842H78.9585ZM69.9025 62.8482L67.5985 60.4162H74.1265C75.7265 60.4162 76.9212 60.0748 77.7105 59.3922C78.4998 58.6882 78.8945 57.7282 78.8945 56.5122C78.8945 55.2748 78.4998 54.3148 77.7105 53.6322C76.9212 52.9495 75.7265 52.6082 74.1265 52.6082H67.5985L69.9025 50.1442V62.8482ZM99.1298 71.1682C97.3591 71.1682 95.7164 70.8802 94.2018 70.3042C92.7084 69.7282 91.4071 68.9175 90.2977 67.8722C89.2098 66.8268 88.3564 65.6002 87.7378 64.1922C87.1404 62.7842 86.8418 61.2482 86.8418 59.5842C86.8418 57.9202 87.1404 56.3842 87.7378 54.9762C88.3564 53.5682 89.2204 52.3415 90.3298 51.2962C91.4391 50.2508 92.7404 49.4402 94.2338 48.8642C95.7271 48.2882 97.3484 48.0002 99.0978 48.0002C100.868 48.0002 102.49 48.2882 103.962 48.8642C105.455 49.4402 106.746 50.2508 107.834 51.2962C108.943 52.3415 109.807 53.5682 110.426 54.9762C111.044 56.3628 111.354 57.8988 111.354 59.5842C111.354 61.2482 111.044 62.7948 110.426 64.2242C109.807 65.6322 108.943 66.8588 107.834 67.9042C106.746 68.9282 105.455 69.7282 103.962 70.3042C102.49 70.8802 100.879 71.1682 99.1298 71.1682ZM99.0978 66.7522C100.1 66.7522 101.018 66.5815 101.85 66.2402C102.703 65.8988 103.45 65.4082 104.09 64.7682C104.73 64.1282 105.22 63.3708 105.562 62.4962C105.924 61.6215 106.106 60.6508 106.106 59.5842C106.106 58.5175 105.924 57.5468 105.562 56.6722C105.22 55.7975 104.73 55.0402 104.09 54.4002C103.471 53.7602 102.735 53.2695 101.882 52.9282C101.028 52.5868 100.1 52.4162 99.0978 52.4162C98.0951 52.4162 97.1671 52.5868 96.3138 52.9282C95.4818 53.2695 94.7458 53.7602 94.1058 54.4002C93.4658 55.0402 92.9644 55.7975 92.6018 56.6722C92.2604 57.5468 92.0898 58.5175 92.0898 59.5842C92.0898 60.6295 92.2604 61.6002 92.6018 62.4962C92.9644 63.3708 93.4551 64.1282 94.0738 64.7682C94.7138 65.4082 95.4604 65.8988 96.3138 66.2402C97.1671 66.5815 98.0951 66.7522 99.0978 66.7522ZM125.202 71.1682C122.023 71.1682 119.538 70.2828 117.746 68.5122C115.954 66.7415 115.058 64.2135 115.058 60.9282V48.3842H120.242V60.7362C120.242 62.8695 120.679 64.4055 121.554 65.3442C122.428 66.2828 123.655 66.7522 125.234 66.7522C126.812 66.7522 128.039 66.2828 128.914 65.3442C129.788 64.4055 130.226 62.8695 130.226 60.7362V48.3842H135.346V60.9282C135.346 64.2135 134.45 66.7415 132.658 68.5122C130.866 70.2828 128.38 71.1682 125.202 71.1682ZM140.469 70.7842V48.3842H144.757L157.973 64.5122H155.892V48.3842H161.013V70.7842H156.757L143.509 54.6562H145.589V70.7842H140.469ZM166.312 70.7842V48.3842H176.488C178.92 48.3842 181.064 48.8535 182.92 49.7922C184.776 50.7095 186.227 52.0002 187.272 53.6642C188.318 55.3282 188.84 57.3015 188.84 59.5842C188.84 61.8455 188.318 63.8188 187.272 65.5042C186.227 67.1682 184.776 68.4695 182.92 69.4082C181.064 70.3255 178.92 70.7842 176.488 70.7842H166.312ZM171.496 66.5282H176.232C177.726 66.5282 179.016 66.2508 180.104 65.6962C181.214 65.1202 182.067 64.3095 182.664 63.2642C183.283 62.2188 183.592 60.9922 183.592 59.5842C183.592 58.1548 183.283 56.9282 182.664 55.9042C182.067 54.8588 181.214 54.0588 180.104 53.5042C179.016 52.9282 177.726 52.6402 176.232 52.6402H171.496V66.5282Z" fill="#E1A041"/>
</svg>
