<svg width="240" height="34" viewBox="0 0 240 34" fill="none" xmlns="http://www.w3.org/2000/svg">
<path d="M11.1908 27V12.3H17.2388C18.5408 12.3 19.6538 12.51 20.5778 12.93C21.5158 13.35 22.2368 13.952 22.7408 14.736C23.2448 15.52 23.4968 16.451 23.4968 17.529C23.4968 18.607 23.2448 19.538 22.7408 20.322C22.2368 21.106 21.5158 21.708 20.5778 22.128C19.6538 22.548 18.5408 22.758 17.2388 22.758H12.7028L13.9208 21.477V27H11.1908ZM13.9208 21.771L12.7028 20.448H17.1128C18.3168 20.448 19.2198 20.196 19.8218 19.692C20.4378 19.174 20.7458 18.453 20.7458 17.529C20.7458 16.591 20.4378 15.87 19.8218 15.366C19.2198 14.862 18.3168 14.61 17.1128 14.61H12.7028L13.9208 13.266V21.771ZM25.8685 27V15.786H28.3675V18.873L28.0735 17.97C28.4095 17.214 28.9345 16.64 29.6485 16.248C30.3765 15.856 31.2795 15.66 32.3575 15.66V18.159C32.2455 18.131 32.1405 18.117 32.0425 18.117C31.9445 18.103 31.8465 18.096 31.7485 18.096C30.7545 18.096 29.9635 18.39 29.3755 18.978C28.7875 19.552 28.4935 20.413 28.4935 21.561V27H25.8685ZM39.5218 27.147C38.3738 27.147 37.3518 26.902 36.4558 26.412C35.5598 25.908 34.8528 25.222 34.3348 24.354C33.8168 23.486 33.5578 22.499 33.5578 21.393C33.5578 20.273 33.8168 19.286 34.3348 18.432C34.8528 17.564 35.5598 16.885 36.4558 16.395C37.3518 15.905 38.3738 15.66 39.5218 15.66C40.6838 15.66 41.7128 15.905 42.6088 16.395C43.5188 16.885 44.2258 17.557 44.7298 18.411C45.2478 19.265 45.5068 20.259 45.5068 21.393C45.5068 22.499 45.2478 23.486 44.7298 24.354C44.2258 25.222 43.5188 25.908 42.6088 26.412C41.7128 26.902 40.6838 27.147 39.5218 27.147ZM39.5218 24.9C40.1658 24.9 40.7398 24.76 41.2438 24.48C41.7478 24.2 42.1398 23.794 42.4198 23.262C42.7138 22.73 42.8608 22.107 42.8608 21.393C42.8608 20.665 42.7138 20.042 42.4198 19.524C42.1398 18.992 41.7478 18.586 41.2438 18.306C40.7398 18.026 40.1728 17.886 39.5428 17.886C38.8988 17.886 38.3248 18.026 37.8208 18.306C37.3308 18.586 36.9388 18.992 36.6448 19.524C36.3508 20.042 36.2038 20.665 36.2038 21.393C36.2038 22.107 36.3508 22.73 36.6448 23.262C36.9388 23.794 37.3308 24.2 37.8208 24.48C38.3248 24.76 38.8918 24.9 39.5218 24.9ZM52.7629 27.147C51.6849 27.147 50.7119 26.909 49.8439 26.433C48.9899 25.943 48.3179 25.271 47.8279 24.417C47.3379 23.563 47.0929 22.555 47.0929 21.393C47.0929 20.231 47.3379 19.223 47.8279 18.369C48.3179 17.515 48.9899 16.85 49.8439 16.374C50.7119 15.898 51.6849 15.66 52.7629 15.66C53.7009 15.66 54.5409 15.87 55.2829 16.29C56.0249 16.696 56.6129 17.319 57.0469 18.159C57.4809 18.999 57.6979 20.077 57.6979 21.393C57.6979 22.695 57.4879 23.773 57.0679 24.627C56.6479 25.467 56.0669 26.097 55.3249 26.517C54.5829 26.937 53.7289 27.147 52.7629 27.147ZM53.0779 24.9C53.7079 24.9 54.2679 24.76 54.7579 24.48C55.2619 24.2 55.6609 23.794 55.9549 23.262C56.2629 22.73 56.4169 22.107 56.4169 21.393C56.4169 20.665 56.2629 20.042 55.9549 19.524C55.6609 18.992 55.2619 18.586 54.7579 18.306C54.2679 18.026 53.7079 17.886 53.0779 17.886C52.4479 17.886 51.8809 18.026 51.3769 18.306C50.8869 18.586 50.4879 18.992 50.1799 19.524C49.8859 20.042 49.7389 20.665 49.7389 21.393C49.7389 22.107 49.8859 22.73 50.1799 23.262C50.4879 23.794 50.8869 24.2 51.3769 24.48C51.8809 24.76 52.4479 24.9 53.0779 24.9ZM56.4799 27V24.354L56.5849 21.372L56.3749 18.39V11.418H58.9789V27H56.4799ZM67.1799 27.147C66.2279 27.147 65.3879 26.972 64.6599 26.622C63.9319 26.258 63.3649 25.712 62.9589 24.984C62.5529 24.242 62.3499 23.311 62.3499 22.191V15.786H64.9749V21.834C64.9749 22.842 65.1989 23.598 65.6469 24.102C66.1089 24.592 66.7599 24.837 67.5999 24.837C68.2159 24.837 68.7479 24.711 69.1959 24.459C69.6579 24.207 70.0149 23.829 70.2669 23.325C70.5329 22.821 70.6659 22.198 70.6659 21.456V15.786H73.2909V27H70.7919V23.976L71.2329 24.9C70.8549 25.628 70.3019 26.188 69.5739 26.58C68.8459 26.958 68.0479 27.147 67.1799 27.147ZM81.8729 27.147C80.6969 27.147 79.6469 26.902 78.7229 26.412C77.8129 25.908 77.0989 25.222 76.5809 24.354C76.0629 23.486 75.8039 22.499 75.8039 21.393C75.8039 20.273 76.0629 19.286 76.5809 18.432C77.0989 17.564 77.8129 16.885 78.7229 16.395C79.6469 15.905 80.6969 15.66 81.8729 15.66C82.9649 15.66 83.9239 15.884 84.7499 16.332C85.5899 16.766 86.2269 17.41 86.6609 18.264L84.6449 19.44C84.3089 18.908 83.8959 18.516 83.4059 18.264C82.9299 18.012 82.4119 17.886 81.8519 17.886C81.2079 17.886 80.6269 18.026 80.1089 18.306C79.5909 18.586 79.1849 18.992 78.8909 19.524C78.5969 20.042 78.4499 20.665 78.4499 21.393C78.4499 22.121 78.5969 22.751 78.8909 23.283C79.1849 23.801 79.5909 24.2 80.1089 24.48C80.6269 24.76 81.2079 24.9 81.8519 24.9C82.4119 24.9 82.9299 24.774 83.4059 24.522C83.8959 24.27 84.3089 23.878 84.6449 23.346L86.6609 24.522C86.2269 25.362 85.5899 26.013 84.7499 26.475C83.9239 26.923 82.9649 27.147 81.8729 27.147ZM93.2946 27.147C92.0626 27.147 91.1106 26.832 90.4386 26.202C89.7666 25.558 89.4306 24.613 89.4306 23.367V13.308H92.0556V23.304C92.0556 23.836 92.1886 24.249 92.4546 24.543C92.7346 24.837 93.1196 24.984 93.6096 24.984C94.1976 24.984 94.6876 24.83 95.0796 24.522L95.8146 26.391C95.5066 26.643 95.1286 26.832 94.6806 26.958C94.2326 27.084 93.7706 27.147 93.2946 27.147ZM87.5826 17.886V15.786H95.0586V17.886H87.5826ZM110.834 27.21C109.714 27.21 108.671 27.028 107.705 26.664C106.753 26.286 105.92 25.761 105.206 25.089C104.506 24.403 103.96 23.598 103.568 22.674C103.176 21.75 102.98 20.742 102.98 19.65C102.98 18.558 103.176 17.55 103.568 16.626C103.96 15.702 104.513 14.904 105.227 14.232C105.941 13.546 106.774 13.021 107.726 12.657C108.678 12.279 109.721 12.09 110.855 12.09C112.059 12.09 113.158 12.3 114.152 12.72C115.146 13.126 115.986 13.735 116.672 14.547L114.908 16.206C114.376 15.632 113.781 15.205 113.123 14.925C112.465 14.631 111.751 14.484 110.981 14.484C110.211 14.484 109.504 14.61 108.86 14.862C108.23 15.114 107.677 15.471 107.201 15.933C106.739 16.395 106.375 16.941 106.109 17.571C105.857 18.201 105.731 18.894 105.731 19.65C105.731 20.406 105.857 21.099 106.109 21.729C106.375 22.359 106.739 22.905 107.201 23.367C107.677 23.829 108.23 24.186 108.86 24.438C109.504 24.69 110.211 24.816 110.981 24.816C111.751 24.816 112.465 24.676 113.123 24.396C113.781 24.102 114.376 23.661 114.908 23.073L116.672 24.753C115.986 25.551 115.146 26.16 114.152 26.58C113.158 27 112.052 27.21 110.834 27.21ZM123.46 27.147C122.312 27.147 121.29 26.902 120.394 26.412C119.498 25.908 118.791 25.222 118.273 24.354C117.755 23.486 117.496 22.499 117.496 21.393C117.496 20.273 117.755 19.286 118.273 18.432C118.791 17.564 119.498 16.885 120.394 16.395C121.29 15.905 122.312 15.66 123.46 15.66C124.622 15.66 125.651 15.905 126.547 16.395C127.457 16.885 128.164 17.557 128.668 18.411C129.186 19.265 129.445 20.259 129.445 21.393C129.445 22.499 129.186 23.486 128.668 24.354C128.164 25.222 127.457 25.908 126.547 26.412C125.651 26.902 124.622 27.147 123.46 27.147ZM123.46 24.9C124.104 24.9 124.678 24.76 125.182 24.48C125.686 24.2 126.078 23.794 126.358 23.262C126.652 22.73 126.799 22.107 126.799 21.393C126.799 20.665 126.652 20.042 126.358 19.524C126.078 18.992 125.686 18.586 125.182 18.306C124.678 18.026 124.111 17.886 123.481 17.886C122.837 17.886 122.263 18.026 121.759 18.306C121.269 18.586 120.877 18.992 120.583 19.524C120.289 20.042 120.142 20.665 120.142 21.393C120.142 22.107 120.289 22.73 120.583 23.262C120.877 23.794 121.269 24.2 121.759 24.48C122.263 24.76 122.83 24.9 123.46 24.9ZM136.701 27.147C135.623 27.147 134.65 26.909 133.782 26.433C132.928 25.943 132.256 25.271 131.766 24.417C131.276 23.563 131.031 22.555 131.031 21.393C131.031 20.231 131.276 19.223 131.766 18.369C132.256 17.515 132.928 16.85 133.782 16.374C134.65 15.898 135.623 15.66 136.701 15.66C137.639 15.66 138.479 15.87 139.221 16.29C139.963 16.696 140.551 17.319 140.985 18.159C141.419 18.999 141.636 20.077 141.636 21.393C141.636 22.695 141.426 23.773 141.006 24.627C140.586 25.467 140.005 26.097 139.263 26.517C138.521 26.937 137.667 27.147 136.701 27.147ZM137.016 24.9C137.646 24.9 138.206 24.76 138.696 24.48C139.2 24.2 139.599 23.794 139.893 23.262C140.201 22.73 140.355 22.107 140.355 21.393C140.355 20.665 140.201 20.042 139.893 19.524C139.599 18.992 139.2 18.586 138.696 18.306C138.206 18.026 137.646 17.886 137.016 17.886C136.386 17.886 135.819 18.026 135.315 18.306C134.825 18.586 134.426 18.992 134.118 19.524C133.824 20.042 133.677 20.665 133.677 21.393C133.677 22.107 133.824 22.73 134.118 23.262C134.426 23.794 134.825 24.2 135.315 24.48C135.819 24.76 136.386 24.9 137.016 24.9ZM140.418 27V24.354L140.523 21.372L140.313 18.39V11.418H142.917V27H140.418ZM151.643 27.147C150.397 27.147 149.305 26.902 148.367 26.412C147.443 25.908 146.722 25.222 146.204 24.354C145.7 23.486 145.448 22.499 145.448 21.393C145.448 20.273 145.693 19.286 146.183 18.432C146.687 17.564 147.373 16.885 148.241 16.395C149.123 15.905 150.124 15.66 151.244 15.66C152.336 15.66 153.309 15.898 154.163 16.374C155.017 16.85 155.689 17.522 156.179 18.39C156.669 19.258 156.914 20.28 156.914 21.456C156.914 21.568 156.907 21.694 156.893 21.834C156.893 21.974 156.886 22.107 156.872 22.233H147.527V20.49H155.486L154.457 21.036C154.471 20.392 154.338 19.825 154.058 19.335C153.778 18.845 153.393 18.46 152.903 18.18C152.427 17.9 151.874 17.76 151.244 17.76C150.6 17.76 150.033 17.9 149.543 18.18C149.067 18.46 148.689 18.852 148.409 19.356C148.143 19.846 148.01 20.427 148.01 21.099V21.519C148.01 22.191 148.164 22.786 148.472 23.304C148.78 23.822 149.214 24.221 149.774 24.501C150.334 24.781 150.978 24.921 151.706 24.921C152.336 24.921 152.903 24.823 153.407 24.627C153.911 24.431 154.359 24.123 154.751 23.703L156.158 25.32C155.654 25.908 155.017 26.363 154.247 26.685C153.491 26.993 152.623 27.147 151.643 27.147ZM170.476 22.254V20.07H176.251V22.254H170.476ZM186.481 27V13.35L187.678 14.589H183.373V12.3H189.211V27H186.481ZM198.259 27.21C197.097 27.21 196.047 26.916 195.109 26.328C194.185 25.74 193.457 24.886 192.925 23.766C192.393 22.632 192.127 21.26 192.127 19.65C192.127 18.04 192.393 16.675 192.925 15.555C193.457 14.421 194.185 13.56 195.109 12.972C196.047 12.384 197.097 12.09 198.259 12.09C199.435 12.09 200.485 12.384 201.409 12.972C202.333 13.56 203.061 14.421 203.593 15.555C204.139 16.675 204.412 18.04 204.412 19.65C204.412 21.26 204.139 22.632 203.593 23.766C203.061 24.886 202.333 25.74 201.409 26.328C200.485 26.916 199.435 27.21 198.259 27.21ZM198.259 24.837C198.945 24.837 199.54 24.655 200.044 24.291C200.548 23.913 200.94 23.339 201.22 22.569C201.514 21.799 201.661 20.826 201.661 19.65C201.661 18.46 201.514 17.487 201.22 16.731C200.94 15.961 200.548 15.394 200.044 15.03C199.54 14.652 198.945 14.463 198.259 14.463C197.601 14.463 197.013 14.652 196.495 15.03C195.991 15.394 195.592 15.961 195.298 16.731C195.018 17.487 194.878 18.46 194.878 19.65C194.878 20.826 195.018 21.799 195.298 22.569C195.592 23.339 195.991 23.913 196.495 24.291C197.013 24.655 197.601 24.837 198.259 24.837ZM208.611 27L214.68 13.392L215.394 14.61H207.057L208.359 13.287V17.109H205.818V12.3L217.242 12.3V14.127L211.53 27H208.611ZM221.388 27L227.457 13.392L228.171 14.61H219.834L221.136 13.287V17.109H218.595V12.3H230.019V14.127L224.307 27H221.388Z" fill="#272727"/>
</svg>
