<svg width="103" height="36" viewBox="0 0 103 36" fill="none" xmlns="http://www.w3.org/2000/svg">
<circle cx="11.5502" cy="18.0001" r="8.83019" fill="#D9D9D9"/>
<path fill-rule="evenodd" clip-rule="evenodd" d="M7.30115 6.80873C9.82253 5.81178 12.6148 5.73424 15.1879 6.589L14.851 7.60463C12.5162 6.82899 9.98256 6.89924 7.69471 7.80385C5.40694 8.70847 3.51023 10.3894 2.33729 12.5519C1.16434 14.7144 0.790213 17.221 1.27967 19.632C1.66317 21.5209 2.5594 23.2554 3.85389 24.6564C3.99109 24.5973 4.14327 24.5656 4.30213 24.5656C4.92717 24.5658 5.43397 25.0733 5.43397 25.6984C5.43373 26.3233 4.92702 26.83 4.30213 26.8302C3.67705 26.8302 3.16956 26.3234 3.16932 25.6984C3.16932 25.6343 3.17568 25.5711 3.18592 25.5099C1.6952 23.9445 0.665114 21.984 0.230842 19.8449C-0.30857 17.1878 0.104262 14.4254 1.39686 12.0421C2.68954 9.65885 4.77984 7.80572 7.30115 6.80873Z" fill="url(#paint0_linear_1305_589)"/>
<path fill-rule="evenodd" clip-rule="evenodd" d="M16.4955 29.1907C13.9741 30.1877 11.1818 30.2662 8.60875 29.4114L8.94567 28.3958C11.2804 29.1714 13.8141 29.1012 16.1019 28.1966C18.3897 27.292 20.2864 25.6111 21.4593 23.4485C22.6323 21.286 23.0064 18.7795 22.517 16.3685C22.1334 14.479 21.2367 12.7442 19.9418 11.3431C19.8047 11.402 19.6531 11.4339 19.4945 11.4339C18.8695 11.4337 18.3627 10.9271 18.3627 10.3021C18.3628 9.67707 18.8695 9.17044 19.4945 9.17022C20.1196 9.17022 20.6272 9.67693 20.6273 10.3021C20.6273 10.3662 20.621 10.4293 20.6107 10.4905C22.1014 12.056 23.1315 14.0165 23.5658 16.1556C24.1052 18.8126 23.6924 21.575 22.3998 23.9583C21.1071 26.3415 19.0166 28.1937 16.4955 29.1907Z" fill="url(#paint1_linear_1305_589)"/>
<path d="M8.672 21.064C8.23467 21.064 7.84267 20.952 7.496 20.728C7.15467 20.504 6.88267 20.1787 6.68 19.752C6.48267 19.3253 6.384 18.808 6.384 18.2C6.384 17.592 6.48267 17.0747 6.68 16.648C6.88267 16.2213 7.15467 15.896 7.496 15.672C7.84267 15.448 8.23467 15.336 8.672 15.336C9.104 15.336 9.49333 15.448 9.84 15.672C10.1867 15.896 10.4587 16.2213 10.656 16.648C10.8533 17.0747 10.952 17.592 10.952 18.2C10.952 18.808 10.8533 19.3253 10.656 19.752C10.4587 20.1787 10.1867 20.504 9.84 20.728C9.49333 20.952 9.104 21.064 8.672 21.064ZM8.672 20.352C8.96533 20.352 9.22133 20.272 9.44 20.112C9.664 19.952 9.83733 19.712 9.96 19.392C10.088 19.072 10.152 18.6747 10.152 18.2C10.152 17.7253 10.088 17.328 9.96 17.008C9.83733 16.688 9.664 16.448 9.44 16.288C9.22133 16.128 8.96533 16.048 8.672 16.048C8.37867 16.048 8.12 16.128 7.896 16.288C7.672 16.448 7.496 16.688 7.368 17.008C7.24533 17.328 7.184 17.7253 7.184 18.2C7.184 18.6747 7.24533 19.072 7.368 19.392C7.496 19.712 7.672 19.952 7.896 20.112C8.12 20.272 8.37867 20.352 8.672 20.352ZM13.3538 21.064C12.9591 21.064 12.5751 21.0027 12.2018 20.88C11.8338 20.7573 11.5325 20.592 11.2978 20.384L11.6658 19.752C11.8525 19.928 12.0951 20.072 12.3938 20.184C12.6925 20.296 13.0125 20.352 13.3538 20.352C13.7698 20.352 14.0925 20.264 14.3218 20.088C14.5565 19.9067 14.6738 19.664 14.6738 19.36C14.6738 19.0667 14.5618 18.832 14.3378 18.656C14.1191 18.4747 13.7698 18.384 13.2898 18.384H12.8418V17.824L14.5058 15.776L14.6178 16.096H11.5538V15.4H15.2498V15.944L13.5938 17.984L13.1778 17.736H13.4418C14.1191 17.736 14.6258 17.888 14.9618 18.192C15.3031 18.496 15.4738 18.8827 15.4738 19.352C15.4738 19.6667 15.3965 19.9547 15.2418 20.216C15.0871 20.4773 14.8525 20.6853 14.5378 20.84C14.2285 20.9893 13.8338 21.064 13.3538 21.064Z" fill="#464643"/>
<path d="M31.3426 23V22.286L35.4166 18.296C35.79 17.932 36.07 17.6147 36.2566 17.344C36.4433 17.064 36.5693 16.8027 36.6346 16.56C36.7 16.3173 36.7326 16.0887 36.7326 15.874C36.7326 15.3047 36.5366 14.8567 36.1446 14.53C35.762 14.2033 35.1926 14.04 34.4366 14.04C33.858 14.04 33.3446 14.1287 32.8966 14.306C32.458 14.4833 32.08 14.7587 31.7626 15.132L31.0486 14.516C31.4313 14.068 31.9213 13.7227 32.5186 13.48C33.116 13.2373 33.7833 13.116 34.5206 13.116C35.1833 13.116 35.7573 13.2233 36.2426 13.438C36.728 13.6433 37.1013 13.9467 37.3626 14.348C37.6333 14.7493 37.7686 15.2207 37.7686 15.762C37.7686 16.0793 37.722 16.392 37.6286 16.7C37.5446 17.008 37.386 17.3347 37.1526 17.68C36.9286 18.016 36.5973 18.3987 36.1586 18.828L32.4206 22.496L32.1406 22.104H38.2166V23H31.3426ZM43.3603 23.084C42.6043 23.084 41.9323 22.888 41.3443 22.496C40.7563 22.0947 40.2943 21.5253 39.9583 20.788C39.6223 20.0413 39.4543 19.1453 39.4543 18.1C39.4543 17.0547 39.6223 16.1633 39.9583 15.426C40.2943 14.6793 40.7563 14.11 41.3443 13.718C41.9323 13.3167 42.6043 13.116 43.3603 13.116C44.1163 13.116 44.7883 13.3167 45.3763 13.718C45.9643 14.11 46.4263 14.6793 46.7623 15.426C47.1077 16.1633 47.2803 17.0547 47.2803 18.1C47.2803 19.1453 47.1077 20.0413 46.7623 20.788C46.4263 21.5253 45.9643 22.0947 45.3763 22.496C44.7883 22.888 44.1163 23.084 43.3603 23.084ZM43.3603 22.16C43.939 22.16 44.443 22.006 44.8723 21.698C45.3017 21.3807 45.6377 20.9233 45.8803 20.326C46.123 19.7193 46.2443 18.9773 46.2443 18.1C46.2443 17.2227 46.123 16.4853 45.8803 15.888C45.6377 15.2813 45.3017 14.824 44.8723 14.516C44.443 14.1987 43.939 14.04 43.3603 14.04C42.8003 14.04 42.301 14.1987 41.8623 14.516C41.4237 14.824 41.083 15.2813 40.8403 15.888C40.5977 16.4853 40.4763 17.2227 40.4763 18.1C40.4763 18.9773 40.5977 19.7193 40.8403 20.326C41.083 20.9233 41.4237 21.3807 41.8623 21.698C42.301 22.006 42.8003 22.16 43.3603 22.16ZM52.6299 23.084C51.8738 23.084 51.2018 22.888 50.6138 22.496C50.0258 22.0947 49.5638 21.5253 49.2278 20.788C48.8918 20.0413 48.7238 19.1453 48.7238 18.1C48.7238 17.0547 48.8918 16.1633 49.2278 15.426C49.5638 14.6793 50.0258 14.11 50.6138 13.718C51.2018 13.3167 51.8738 13.116 52.6299 13.116C53.3859 13.116 54.0579 13.3167 54.6458 13.718C55.2339 14.11 55.6959 14.6793 56.0318 15.426C56.3772 16.1633 56.5498 17.0547 56.5498 18.1C56.5498 19.1453 56.3772 20.0413 56.0318 20.788C55.6959 21.5253 55.2339 22.0947 54.6458 22.496C54.0579 22.888 53.3859 23.084 52.6299 23.084ZM52.6299 22.16C53.2085 22.16 53.7125 22.006 54.1418 21.698C54.5712 21.3807 54.9072 20.9233 55.1499 20.326C55.3925 19.7193 55.5138 18.9773 55.5138 18.1C55.5138 17.2227 55.3925 16.4853 55.1499 15.888C54.9072 15.2813 54.5712 14.824 54.1418 14.516C53.7125 14.1987 53.2085 14.04 52.6299 14.04C52.0699 14.04 51.5705 14.1987 51.1318 14.516C50.6932 14.824 50.3525 15.2813 50.1098 15.888C49.8672 16.4853 49.7458 17.2227 49.7458 18.1C49.7458 18.9773 49.8672 19.7193 50.1098 20.326C50.3525 20.9233 50.6932 21.3807 51.1318 21.698C51.5705 22.006 52.0699 22.16 52.6299 22.16ZM61.8994 23.084C61.1434 23.084 60.4714 22.888 59.8834 22.496C59.2954 22.0947 58.8334 21.5253 58.4974 20.788C58.1614 20.0413 57.9934 19.1453 57.9934 18.1C57.9934 17.0547 58.1614 16.1633 58.4974 15.426C58.8334 14.6793 59.2954 14.11 59.8834 13.718C60.4714 13.3167 61.1434 13.116 61.8994 13.116C62.6554 13.116 63.3274 13.3167 63.9154 13.718C64.5034 14.11 64.9654 14.6793 65.3014 15.426C65.6467 16.1633 65.8194 17.0547 65.8194 18.1C65.8194 19.1453 65.6467 20.0413 65.3014 20.788C64.9654 21.5253 64.5034 22.0947 63.9154 22.496C63.3274 22.888 62.6554 23.084 61.8994 23.084ZM61.8994 22.16C62.478 22.16 62.982 22.006 63.4114 21.698C63.8407 21.3807 64.1767 20.9233 64.4194 20.326C64.662 19.7193 64.7834 18.9773 64.7834 18.1C64.7834 17.2227 64.662 16.4853 64.4194 15.888C64.1767 15.2813 63.8407 14.824 63.4114 14.516C62.982 14.1987 62.478 14.04 61.8994 14.04C61.3394 14.04 60.84 14.1987 60.4014 14.516C59.9627 14.824 59.622 15.2813 59.3794 15.888C59.1367 16.4853 59.0154 17.2227 59.0154 18.1C59.0154 18.9773 59.1367 19.7193 59.3794 20.326C59.622 20.9233 59.9627 21.3807 60.4014 21.698C60.84 22.006 61.3394 22.16 61.8994 22.16ZM71.795 23V13.2H72.649L77.129 20.844H76.681L81.119 13.2H81.973V23H80.979V14.754H81.217L77.129 21.754H76.639L72.523 14.754H72.789V23H71.795ZM85.1661 23V13.2H86.2021V22.104H91.6901V23H85.1661Z" fill="#272727"/>
<defs>
<linearGradient id="paint0_linear_1305_589" x1="0" y1="16.4151" x2="15.1879" y2="16.4151" gradientUnits="userSpaceOnUse">
<stop stop-color="#414140"/>
<stop offset="1" stop-color="#9E9E95"/>
</linearGradient>
<linearGradient id="paint1_linear_1305_589" x1="16.2027" y1="9.17022" x2="16.2027" y2="30" gradientUnits="userSpaceOnUse">
<stop stop-color="#3D3D3C"/>
<stop offset="1" stop-color="#ADACA2"/>
</linearGradient>
</defs>
</svg>
