<svg width="128" height="14" viewBox="0 0 128 14" fill="none" xmlns="http://www.w3.org/2000/svg">
<path d="M-0.000140548 13.3564V0.756444H6.15586C7.73986 0.756444 8.92786 1.05644 9.71986 1.65644C10.5239 2.25644 10.9259 3.04844 10.9259 4.03245C10.9259 4.69244 10.7639 5.26844 10.4399 5.76044C10.1159 6.24044 9.67186 6.61244 9.10786 6.87645C8.54386 7.14044 7.89586 7.27244 7.16386 7.27244L7.50586 6.53445C8.29786 6.53445 8.99986 6.66645 9.61186 6.93044C10.2239 7.18244 10.6979 7.56045 11.0339 8.06445C11.3819 8.56845 11.5559 9.18645 11.5559 9.91845C11.5559 10.9984 11.1299 11.8444 10.2779 12.4564C9.42586 13.0564 8.17186 13.3564 6.51586 13.3564H-0.000140548ZM2.89786 11.1604H6.29986C7.05586 11.1604 7.62586 11.0404 8.00986 10.8004C8.40586 10.5484 8.60386 10.1524 8.60386 9.61245C8.60386 9.08445 8.40586 8.69445 8.00986 8.44245C7.62586 8.17845 7.05586 8.04645 6.29986 8.04645H2.68186V5.92244H5.79586C6.50386 5.92244 7.04386 5.80244 7.41586 5.56244C7.79986 5.31044 7.99186 4.93244 7.99186 4.42844C7.99186 3.93645 7.79986 3.57045 7.41586 3.33044C7.04386 3.07844 6.50386 2.95245 5.79586 2.95245H2.89786V11.1604ZM16.1978 13.3564V3.13244H12.1658V0.756444H23.1458V3.13244H19.1138V13.3564H16.1978ZM23.5063 9.41445V7.16445H28.6003V9.41445H23.5063ZM31.773 13.3564V1.83644L33.033 3.09644H29.253V0.756444H34.689V13.3564H31.773ZM36.7338 10.7104V8.74845L42.6738 0.756444H45.7338L39.9198 8.74845L38.4978 8.33445H48.4158V10.7104H36.7338ZM43.5198 13.3564V10.7104L43.6098 8.33445V5.97644H46.3638V13.3564H43.5198ZM49.6977 9.41445V7.16445H54.7917V9.41445H49.6977ZM57.9644 13.3564V1.83644L59.2244 3.09644H55.4444V0.756444H60.8804V13.3564H57.9644ZM68.4692 13.5724C67.4372 13.5724 66.5132 13.3204 65.6972 12.8164C64.8812 12.3004 64.2392 11.5564 63.7712 10.5844C63.3032 9.61245 63.0692 8.43644 63.0692 7.05644C63.0692 5.67644 63.3032 4.50044 63.7712 3.52845C64.2392 2.55644 64.8812 1.81844 65.6972 1.31444C66.5132 0.798445 67.4372 0.540445 68.4692 0.540445C69.5132 0.540445 70.4372 0.798445 71.2412 1.31444C72.0572 1.81844 72.6992 2.55644 73.1672 3.52845C73.6352 4.50044 73.8692 5.67644 73.8692 7.05644C73.8692 8.43644 73.6352 9.61245 73.1672 10.5844C72.6992 11.5564 72.0572 12.3004 71.2412 12.8164C70.4372 13.3204 69.5132 13.5724 68.4692 13.5724ZM68.4692 11.1064C68.9612 11.1064 69.3872 10.9684 69.7472 10.6924C70.1192 10.4164 70.4072 9.97845 70.6112 9.37845C70.8272 8.77844 70.9352 8.00444 70.9352 7.05644C70.9352 6.10844 70.8272 5.33444 70.6112 4.73444C70.4072 4.13444 70.1192 3.69644 69.7472 3.42044C69.3872 3.14444 68.9612 3.00644 68.4692 3.00644C67.9892 3.00644 67.5632 3.14444 67.1912 3.42044C66.8312 3.69644 66.5432 4.13444 66.3272 4.73444C66.1232 5.33444 66.0212 6.10844 66.0212 7.05644C66.0212 8.00444 66.1232 8.77844 66.3272 9.37845C66.5432 9.97845 66.8312 10.4164 67.1912 10.6924C67.5632 10.9684 67.9892 11.1064 68.4692 11.1064ZM80.686 13.5724C79.654 13.5724 78.73 13.3204 77.914 12.8164C77.098 12.3004 76.456 11.5564 75.988 10.5844C75.52 9.61245 75.286 8.43644 75.286 7.05644C75.286 5.67644 75.52 4.50044 75.988 3.52845C76.456 2.55644 77.098 1.81844 77.914 1.31444C78.73 0.798445 79.654 0.540445 80.686 0.540445C81.73 0.540445 82.654 0.798445 83.458 1.31444C84.274 1.81844 84.916 2.55644 85.384 3.52845C85.852 4.50044 86.086 5.67644 86.086 7.05644C86.086 8.43644 85.852 9.61245 85.384 10.5844C84.916 11.5564 84.274 12.3004 83.458 12.8164C82.654 13.3204 81.73 13.5724 80.686 13.5724ZM80.686 11.1064C81.178 11.1064 81.604 10.9684 81.964 10.6924C82.336 10.4164 82.624 9.97845 82.828 9.37845C83.044 8.77844 83.152 8.00444 83.152 7.05644C83.152 6.10844 83.044 5.33444 82.828 4.73444C82.624 4.13444 82.336 3.69644 81.964 3.42044C81.604 3.14444 81.178 3.00644 80.686 3.00644C80.206 3.00644 79.78 3.14444 79.408 3.42044C79.048 3.69644 78.76 4.13444 78.544 4.73444C78.34 5.33444 78.238 6.10844 78.238 7.05644C78.238 8.00444 78.34 8.77844 78.544 9.37845C78.76 9.97845 79.048 10.4164 79.408 10.6924C79.78 10.9684 80.206 11.1064 80.686 11.1064ZM92.9028 13.5724C91.8708 13.5724 90.9468 13.3204 90.1308 12.8164C89.3148 12.3004 88.6728 11.5564 88.2048 10.5844C87.7368 9.61245 87.5028 8.43644 87.5028 7.05644C87.5028 5.67644 87.7368 4.50044 88.2048 3.52845C88.6728 2.55644 89.3148 1.81844 90.1308 1.31444C90.9468 0.798445 91.8708 0.540445 92.9028 0.540445C93.9468 0.540445 94.8708 0.798445 95.6748 1.31444C96.4908 1.81844 97.1328 2.55644 97.6008 3.52845C98.0688 4.50044 98.3028 5.67644 98.3028 7.05644C98.3028 8.43644 98.0688 9.61245 97.6008 10.5844C97.1328 11.5564 96.4908 12.3004 95.6748 12.8164C94.8708 13.3204 93.9468 13.5724 92.9028 13.5724ZM92.9028 11.1064C93.3948 11.1064 93.8208 10.9684 94.1808 10.6924C94.5528 10.4164 94.8408 9.97845 95.0448 9.37845C95.2608 8.77844 95.3688 8.00444 95.3688 7.05644C95.3688 6.10844 95.2608 5.33444 95.0448 4.73444C94.8408 4.13444 94.5528 3.69644 94.1808 3.42044C93.8208 3.14444 93.3948 3.00644 92.9028 3.00644C92.4228 3.00644 91.9968 3.14444 91.6248 3.42044C91.2648 3.69644 90.9768 4.13444 90.7608 4.73444C90.5568 5.33444 90.4548 6.10844 90.4548 7.05644C90.4548 8.00444 90.5568 8.77844 90.7608 9.37845C90.9768 9.97845 91.2648 10.4164 91.6248 10.6924C91.9968 10.9684 92.4228 11.1064 92.9028 11.1064ZM117.813 3.52845C118.581 3.52845 119.259 3.68445 119.847 3.99644C120.447 4.29644 120.915 4.76444 121.251 5.40044C121.599 6.02444 121.773 6.82844 121.773 7.81244V13.3564H118.965V8.24445C118.965 7.46445 118.803 6.88845 118.479 6.51644C118.155 6.14445 117.699 5.95845 117.111 5.95845C116.703 5.95845 116.337 6.05445 116.013 6.24645C115.689 6.42644 115.437 6.70244 115.257 7.07445C115.077 7.44645 114.987 7.92045 114.987 8.49645V13.3564H112.179V8.24445C112.179 7.46445 112.017 6.88845 111.693 6.51644C111.381 6.14445 110.931 5.95845 110.343 5.95845C109.935 5.95845 109.569 6.05445 109.245 6.24645C108.921 6.42644 108.669 6.70244 108.489 7.07445C108.309 7.44645 108.219 7.92045 108.219 8.49645V13.3564H105.411V3.67244H108.093V6.31844L107.589 5.54445C107.925 4.88444 108.399 4.38644 109.011 4.05044C109.635 3.70245 110.343 3.52845 111.135 3.52845C112.023 3.52845 112.797 3.75645 113.457 4.21245C114.129 4.65645 114.573 5.34044 114.789 6.26444L113.799 5.99445C114.123 5.23844 114.639 4.63844 115.347 4.19445C116.067 3.75045 116.889 3.52845 117.813 3.52845ZM124.29 13.3564V0.000444531H127.098V13.3564H124.29Z" fill="#1B622D"/>
</svg>
