<svg width="261" height="38" viewBox="0 0 261 38" fill="none" xmlns="http://www.w3.org/2000/svg">
<path d="M6.0672 0.584324H7.09216V7.75903H6.0672V0.584324ZM1.94687 7.75903H0.92191V0.584324H1.94687V7.75903ZM6.15945 4.56116H1.84437V3.66945H6.15945V4.56116ZM9.09619 7.75903V2.32675H10.0802V7.75903H9.09619ZM9.58817 1.2813C9.39685 1.2813 9.23627 1.2198 9.10644 1.0968C8.98345 0.973808 8.92195 0.823481 8.92195 0.645822C8.92195 0.461329 8.98345 0.307585 9.10644 0.18459C9.23627 0.0615952 9.39685 9.76671e-05 9.58817 9.76671e-05C9.7795 9.76671e-05 9.93666 0.0615952 10.0597 0.18459C10.1895 0.300752 10.2544 0.447663 10.2544 0.625322C10.2544 0.809815 10.1929 0.966975 10.0699 1.0968C9.94691 1.2198 9.78633 1.2813 9.58817 1.2813ZM14.3368 9.80895C13.838 9.80895 13.3528 9.7372 12.8813 9.59371C12.4167 9.45705 12.0374 9.25889 11.7436 8.99923L12.2151 8.24076C12.4679 8.45942 12.7788 8.63025 13.1478 8.75324C13.5168 8.88307 13.9029 8.94799 14.306 8.94799C14.9483 8.94799 15.4198 8.79766 15.7205 8.497C16.0211 8.19635 16.1714 7.73853 16.1714 7.12356V5.97561L16.2739 4.8994L16.2227 3.81294V2.32675H17.1554V7.02106C17.1554 7.97769 16.9163 8.6815 16.4379 9.13248C15.9596 9.58346 15.2592 9.80895 14.3368 9.80895ZM14.2138 7.53354C13.6876 7.53354 13.2162 7.42421 12.7993 7.20556C12.3894 6.98006 12.0614 6.66916 11.8154 6.27284C11.5762 5.87653 11.4566 5.41871 11.4566 4.8994C11.4566 4.37325 11.5762 3.91544 11.8154 3.52595C12.0614 3.12964 12.3894 2.82215 12.7993 2.60349C13.2162 2.38483 13.6876 2.27551 14.2138 2.27551C14.6784 2.27551 15.1021 2.37117 15.4847 2.56249C15.8674 2.74699 16.1714 3.03397 16.3969 3.42346C16.6293 3.81294 16.7454 4.30492 16.7454 4.8994C16.7454 5.48704 16.6293 5.97561 16.3969 6.36509C16.1714 6.75457 15.8674 7.0484 15.4847 7.24655C15.1021 7.43788 14.6784 7.53354 14.2138 7.53354ZM14.3265 6.67258C14.6887 6.67258 15.0098 6.59741 15.29 6.44709C15.5701 6.29676 15.7888 6.08835 15.946 5.82186C16.11 5.55537 16.1919 5.24788 16.1919 4.8994C16.1919 4.55091 16.11 4.24343 15.946 3.97694C15.7888 3.71045 15.5701 3.50546 15.29 3.36196C15.0098 3.21163 14.6887 3.13647 14.3265 3.13647C13.9644 3.13647 13.6398 3.21163 13.3528 3.36196C13.0727 3.50546 12.8506 3.71045 12.6866 3.97694C12.5294 4.24343 12.4508 4.55091 12.4508 4.8994C12.4508 5.24788 12.5294 5.55537 12.6866 5.82186C12.8506 6.08835 13.0727 6.29676 13.3528 6.44709C13.6398 6.59741 13.9644 6.67258 14.3265 6.67258ZM21.9361 2.27551C22.3803 2.27551 22.7698 2.36092 23.1046 2.53174C23.4462 2.70257 23.7127 2.96223 23.904 3.31071C24.0954 3.6592 24.191 4.09993 24.191 4.63291V7.75903H23.2071V4.74566C23.2071 4.21951 23.0772 3.82319 22.8176 3.5567C22.5648 3.29021 22.206 3.15697 21.7414 3.15697C21.3929 3.15697 21.0888 3.2253 20.8292 3.36196C20.5695 3.49862 20.3679 3.7002 20.2244 3.96669C20.0878 4.23318 20.0194 4.56458 20.0194 4.9609V7.75903H19.0355V0.153841H20.0194V3.79244L19.8247 3.40296C20.0024 3.04764 20.2757 2.7709 20.6447 2.57274C21.0137 2.37458 21.4441 2.27551 21.9361 2.27551ZM25.6635 5.37088V4.52016H28.4207V5.37088H25.6635ZM32.4034 7.82053C31.85 7.82053 31.3546 7.70095 30.9172 7.4618C30.4868 7.22264 30.1485 6.89465 29.9025 6.47784C29.6565 6.06102 29.5335 5.5827 29.5335 5.04289C29.5335 4.50308 29.6565 4.02477 29.9025 3.60795C30.1485 3.19113 30.4868 2.86656 30.9172 2.63424C31.3546 2.39508 31.85 2.27551 32.4034 2.27551C32.8954 2.27551 33.3327 2.37458 33.7154 2.57274C34.1049 2.76407 34.4055 3.05106 34.6173 3.43371L33.8691 3.91544C33.6915 3.64895 33.4728 3.45421 33.2131 3.33121C32.9603 3.20138 32.687 3.13647 32.3932 3.13647C32.0379 3.13647 31.7201 3.21505 31.44 3.37221C31.1598 3.52937 30.9377 3.75145 30.7737 4.03843C30.6098 4.31859 30.5278 4.65341 30.5278 5.04289C30.5278 5.43238 30.6098 5.77061 30.7737 6.0576C30.9377 6.34459 31.1598 6.56666 31.44 6.72383C31.7201 6.88099 32.0379 6.95957 32.3932 6.95957C32.687 6.95957 32.9603 6.89807 33.2131 6.77507C33.4728 6.64525 33.6915 6.44709 33.8691 6.1806L34.6173 6.65208C34.4055 7.0279 34.1049 7.3183 33.7154 7.52329C33.3327 7.72145 32.8954 7.82053 32.4034 7.82053ZM39.2634 7.75903V6.61108L39.2121 6.39584V4.43817C39.2121 4.02135 39.0891 3.7002 38.8431 3.47471C38.604 3.24238 38.2418 3.12622 37.7567 3.12622C37.4355 3.12622 37.1212 3.18089 36.8137 3.29021C36.5062 3.39271 36.2466 3.53279 36.0347 3.71045L35.6248 2.97248C35.9049 2.74699 36.2397 2.57616 36.6292 2.46C37.0255 2.337 37.4389 2.27551 37.8694 2.27551C38.6142 2.27551 39.1882 2.45658 39.5914 2.81873C39.9945 3.18089 40.1961 3.73436 40.1961 4.47917V7.75903H39.2634ZM37.4799 7.82053C37.0768 7.82053 36.7215 7.7522 36.414 7.61554C36.1133 7.47888 35.881 7.29097 35.717 7.05181C35.553 6.80582 35.471 6.52908 35.471 6.2216C35.471 5.92777 35.5393 5.66128 35.676 5.42213C35.8195 5.18297 36.0484 4.99165 36.3627 4.84815C36.6839 4.70466 37.1144 4.63291 37.6542 4.63291H39.3761V5.34013H37.6952C37.2032 5.34013 36.8718 5.42213 36.701 5.58612C36.5301 5.75011 36.4447 5.94827 36.4447 6.1806C36.4447 6.44709 36.5506 6.66233 36.7625 6.82632C36.9743 6.98348 37.2681 7.06206 37.6439 7.06206C38.0129 7.06206 38.3341 6.98006 38.6074 6.81607C38.8875 6.65208 39.0891 6.41292 39.2121 6.0986L39.4069 6.77507C39.277 7.09623 39.0481 7.35247 38.7201 7.54379C38.3921 7.72828 37.9787 7.82053 37.4799 7.82053ZM44.8971 7.82053C44.4461 7.82053 44.0327 7.71803 43.6569 7.51304C43.2879 7.30122 42.9907 6.99031 42.7652 6.58033C42.5465 6.17035 42.4372 5.65787 42.4372 5.04289C42.4372 4.42792 42.5431 3.91544 42.7549 3.50546C42.9736 3.09547 43.2674 2.78798 43.6364 2.58299C44.0122 2.378 44.4325 2.27551 44.8971 2.27551C45.4301 2.27551 45.9016 2.39167 46.3116 2.62399C46.7215 2.85632 47.0461 3.18089 47.2853 3.5977C47.5244 4.00769 47.644 4.48942 47.644 5.04289C47.644 5.59637 47.5244 6.08152 47.2853 6.49833C47.0461 6.91515 46.7215 7.23972 46.3116 7.47204C45.9016 7.70437 45.4301 7.82053 44.8971 7.82053ZM42.017 9.74745V2.32675H42.9599V3.79244L42.8984 5.05314L43.0009 6.31384V9.74745H42.017ZM44.8151 6.95957C45.1636 6.95957 45.4745 6.88099 45.7478 6.72383C46.028 6.56666 46.2466 6.34459 46.4038 6.0576C46.5678 5.76378 46.6498 5.42554 46.6498 5.04289C46.6498 4.65341 46.5678 4.31859 46.4038 4.03843C46.2466 3.75145 46.028 3.52937 45.7478 3.37221C45.4745 3.21505 45.1636 3.13647 44.8151 3.13647C44.4735 3.13647 44.1626 3.21505 43.8824 3.37221C43.6091 3.52937 43.3904 3.75145 43.2264 4.03843C43.0693 4.31859 42.9907 4.65341 42.9907 5.04289C42.9907 5.42554 43.0693 5.76378 43.2264 6.0576C43.3904 6.34459 43.6091 6.56666 43.8824 6.72383C44.1626 6.88099 44.4735 6.95957 44.8151 6.95957ZM52.3256 7.75903V6.61108L52.2743 6.39584V4.43817C52.2743 4.02135 52.1513 3.7002 51.9053 3.47471C51.6662 3.24238 51.304 3.12622 50.8189 3.12622C50.4977 3.12622 50.1834 3.18089 49.8759 3.29021C49.5684 3.39271 49.3088 3.53279 49.097 3.71045L48.687 2.97248C48.9671 2.74699 49.302 2.57616 49.6914 2.46C50.0878 2.337 50.5012 2.27551 50.9316 2.27551C51.6764 2.27551 52.2504 2.45658 52.6536 2.81873C53.0567 3.18089 53.2583 3.73436 53.2583 4.47917V7.75903H52.3256ZM50.5421 7.82053C50.139 7.82053 49.7837 7.7522 49.4762 7.61554C49.1755 7.47888 48.9432 7.29097 48.7792 7.05181C48.6152 6.80582 48.5332 6.52908 48.5332 6.2216C48.5332 5.92777 48.6016 5.66128 48.7382 5.42213C48.8817 5.18297 49.1106 4.99165 49.4249 4.84815C49.7461 4.70466 50.1766 4.63291 50.7164 4.63291H52.4383V5.34013H50.7574C50.2654 5.34013 49.934 5.42213 49.7632 5.58612C49.5924 5.75011 49.5069 5.94827 49.5069 6.1806C49.5069 6.44709 49.6129 6.66233 49.8247 6.82632C50.0365 6.98348 50.3303 7.06206 50.7061 7.06206C51.0751 7.06206 51.3963 6.98006 51.6696 6.81607C51.9498 6.65208 52.1513 6.41292 52.2743 6.0986L52.4691 6.77507C52.3392 7.09623 52.1103 7.35247 51.7823 7.54379C51.4544 7.72828 51.041 7.82053 50.5421 7.82053ZM57.4468 7.82053C56.8934 7.82053 56.398 7.70095 55.9607 7.4618C55.5302 7.22264 55.1919 6.89465 54.9459 6.47784C54.7 6.06102 54.577 5.5827 54.577 5.04289C54.577 4.50308 54.7 4.02477 54.9459 3.60795C55.1919 3.19113 55.5302 2.86656 55.9607 2.63424C56.398 2.39508 56.8934 2.27551 57.4468 2.27551C57.9388 2.27551 58.3761 2.37458 58.7588 2.57274C59.1483 2.76407 59.4489 3.05106 59.6608 3.43371L58.9125 3.91544C58.7349 3.64895 58.5162 3.45421 58.2566 3.33121C58.0037 3.20138 57.7304 3.13647 57.4366 3.13647C57.0813 3.13647 56.7635 3.21505 56.4834 3.37221C56.2032 3.52937 55.9812 3.75145 55.8172 4.03843C55.6532 4.31859 55.5712 4.65341 55.5712 5.04289C55.5712 5.43238 55.6532 5.77061 55.8172 6.0576C55.9812 6.34459 56.2032 6.56666 56.4834 6.72383C56.7635 6.88099 57.0813 6.95957 57.4366 6.95957C57.7304 6.95957 58.0037 6.89807 58.2566 6.77507C58.5162 6.64525 58.7349 6.44709 58.9125 6.1806L59.6608 6.65208C59.4489 7.0279 59.1483 7.3183 58.7588 7.52329C58.3761 7.72145 57.9388 7.82053 57.4468 7.82053ZM60.8646 7.75903V2.32675H61.8486V7.75903H60.8646ZM61.3566 1.2813C61.1653 1.2813 61.0047 1.2198 60.8749 1.0968C60.7519 0.973808 60.6904 0.823481 60.6904 0.645822C60.6904 0.461329 60.7519 0.307585 60.8749 0.18459C61.0047 0.0615952 61.1653 9.76671e-05 61.3566 9.76671e-05C61.5479 9.76671e-05 61.7051 0.0615952 61.8281 0.18459C61.9579 0.300752 62.0228 0.447663 62.0228 0.625322C62.0228 0.809815 61.9613 0.966975 61.8383 1.0968C61.7153 1.2198 61.5547 1.2813 61.3566 1.2813ZM65.5927 7.82053C65.0461 7.82053 64.6224 7.67362 64.3218 7.3798C64.0211 7.08598 63.8708 6.66574 63.8708 6.1191V1.1378H64.8547V6.0781C64.8547 6.37192 64.9265 6.59741 65.07 6.75457C65.2203 6.91173 65.4321 6.99031 65.7054 6.99031C66.0129 6.99031 66.2692 6.9049 66.4742 6.73407L66.7817 7.4413C66.6313 7.57112 66.4503 7.66679 66.2384 7.72828C66.0334 7.78978 65.8182 7.82053 65.5927 7.82053ZM62.9483 3.13647V2.32675H66.4127V3.13647H62.9483ZM68.1069 9.80895C67.8472 9.80895 67.5944 9.76454 67.3484 9.67571C67.1024 9.59371 66.8906 9.47071 66.7129 9.30672L67.1332 8.56875C67.2698 8.69858 67.4202 8.79766 67.5842 8.86599C67.7482 8.93432 67.9224 8.96848 68.1069 8.96848C68.346 8.96848 68.5442 8.90699 68.7014 8.78399C68.8585 8.661 69.0054 8.44234 69.1421 8.12802L69.4803 7.3798L69.5828 7.2568L71.7147 2.32675H72.6782L70.0441 8.30226C69.8869 8.68491 69.7092 8.98557 69.5111 9.20422C69.3198 9.42288 69.1079 9.57663 68.8756 9.66546C68.6433 9.76112 68.387 9.80895 68.1069 9.80895ZM69.3983 7.93328L66.9179 2.32675H67.9429L70.0543 7.16456L69.3983 7.93328ZM76.4926 7.75903V0.584324H77.5175V7.75903H76.4926ZM79.6655 7.75903V0.584324H80.506L83.7244 6.00635H83.2734L86.4508 0.584324H87.2912L87.3015 7.75903H86.3175L86.3073 2.13201H86.543L83.7141 6.88782H83.2426L80.3933 2.13201H80.6495V7.75903H79.6655ZM89.4547 7.75903V0.584324H90.4797V6.86732H94.3642V7.75903H89.4547ZM100.517 7.82053C99.9636 7.82053 99.4682 7.70095 99.0309 7.4618C98.6004 7.22264 98.2622 6.89465 98.0162 6.47784C97.7702 6.06102 97.6472 5.5827 97.6472 5.04289C97.6472 4.50308 97.7702 4.02477 98.0162 3.60795C98.2622 3.19113 98.6004 2.86656 99.0309 2.63424C99.4682 2.39508 99.9636 2.27551 100.517 2.27551C101.009 2.27551 101.446 2.37458 101.829 2.57274C102.219 2.76407 102.519 3.05106 102.731 3.43371L101.983 3.91544C101.805 3.64895 101.586 3.45421 101.327 3.33121C101.074 3.20138 100.801 3.13647 100.507 3.13647C100.152 3.13647 99.8338 3.21505 99.5537 3.37221C99.2735 3.52937 99.0514 3.75145 98.8874 4.03843C98.7234 4.31859 98.6414 4.65341 98.6414 5.04289C98.6414 5.43238 98.7234 5.77061 98.8874 6.0576C99.0514 6.34459 99.2735 6.56666 99.5537 6.72383C99.8338 6.88099 100.152 6.95957 100.507 6.95957C100.801 6.95957 101.074 6.89807 101.327 6.77507C101.586 6.64525 101.805 6.44709 101.983 6.1806L102.731 6.65208C102.519 7.0279 102.219 7.3183 101.829 7.52329C101.446 7.72145 101.009 7.82053 100.517 7.82053ZM106.252 7.82053C105.705 7.82053 105.22 7.70095 104.796 7.4618C104.372 7.22264 104.038 6.89465 103.792 6.47784C103.546 6.05419 103.423 5.57587 103.423 5.04289C103.423 4.50308 103.546 4.02477 103.792 3.60795C104.038 3.19113 104.372 2.86656 104.796 2.63424C105.22 2.39508 105.705 2.27551 106.252 2.27551C106.791 2.27551 107.273 2.39508 107.697 2.63424C108.127 2.86656 108.462 3.19113 108.701 3.60795C108.947 4.01793 109.07 4.49625 109.07 5.04289C109.07 5.5827 108.947 6.06102 108.701 6.47784C108.462 6.89465 108.127 7.22264 107.697 7.4618C107.273 7.70095 106.791 7.82053 106.252 7.82053ZM106.252 6.95957C106.6 6.95957 106.911 6.88099 107.184 6.72383C107.464 6.56666 107.683 6.34459 107.84 6.0576C107.997 5.76378 108.076 5.42554 108.076 5.04289C108.076 4.65341 107.997 4.31859 107.84 4.03843C107.683 3.75145 107.464 3.52937 107.184 3.37221C106.911 3.21505 106.6 3.13647 106.252 3.13647C105.903 3.13647 105.592 3.21505 105.319 3.37221C105.045 3.52937 104.827 3.75145 104.663 4.03843C104.499 4.31859 104.417 4.65341 104.417 5.04289C104.417 5.42554 104.499 5.76378 104.663 6.0576C104.827 6.34459 105.045 6.56666 105.319 6.72383C105.592 6.88099 105.903 6.95957 106.252 6.95957ZM113.332 2.27551C113.776 2.27551 114.165 2.36092 114.5 2.53174C114.842 2.70257 115.108 2.96223 115.3 3.31071C115.491 3.6592 115.586 4.09993 115.586 4.63291V7.75903H114.603V4.74566C114.603 4.21951 114.473 3.82319 114.213 3.5567C113.96 3.29021 113.601 3.15697 113.137 3.15697C112.788 3.15697 112.484 3.2253 112.225 3.36196C111.965 3.49862 111.763 3.7002 111.62 3.96669C111.483 4.23318 111.415 4.56458 111.415 4.9609V7.75903H110.431V2.32675H111.374V3.79244L111.22 3.40296C111.398 3.04764 111.671 2.7709 112.04 2.57274C112.409 2.37458 112.84 2.27551 113.332 2.27551ZM119.273 7.82053C118.726 7.82053 118.303 7.67362 118.002 7.3798C117.701 7.08598 117.551 6.66574 117.551 6.1191V1.1378H118.535V6.0781C118.535 6.37192 118.607 6.59741 118.75 6.75457C118.9 6.91173 119.112 6.99031 119.386 6.99031C119.693 6.99031 119.949 6.9049 120.154 6.73407L120.462 7.4413C120.312 7.57112 120.13 7.66679 119.919 7.72828C119.714 7.78978 119.498 7.82053 119.273 7.82053ZM116.629 3.13647V2.32675H120.093V3.13647H116.629ZM125.024 7.75903V6.61108L124.972 6.39584V4.43817C124.972 4.02135 124.849 3.7002 124.603 3.47471C124.364 3.24238 124.002 3.12622 123.517 3.12622C123.196 3.12622 122.881 3.18089 122.574 3.29021C122.266 3.39271 122.007 3.53279 121.795 3.71045L121.385 2.97248C121.665 2.74699 122 2.57616 122.389 2.46C122.786 2.337 123.199 2.27551 123.63 2.27551C124.374 2.27551 124.948 2.45658 125.352 2.81873C125.755 3.18089 125.956 3.73436 125.956 4.47917V7.75903H125.024ZM123.24 7.82053C122.837 7.82053 122.482 7.7522 122.174 7.61554C121.874 7.47888 121.641 7.29097 121.477 7.05181C121.313 6.80582 121.231 6.52908 121.231 6.2216C121.231 5.92777 121.3 5.66128 121.436 5.42213C121.58 5.18297 121.809 4.99165 122.123 4.84815C122.444 4.70466 122.875 4.63291 123.414 4.63291H125.136V5.34013H123.455C122.963 5.34013 122.632 5.42213 122.461 5.58612C122.29 5.75011 122.205 5.94827 122.205 6.1806C122.205 6.44709 122.311 6.66233 122.523 6.82632C122.734 6.98348 123.028 7.06206 123.404 7.06206C123.773 7.06206 124.094 6.98006 124.368 6.81607C124.648 6.65208 124.849 6.41292 124.972 6.0986L125.167 6.77507C125.037 7.09623 124.808 7.35247 124.48 7.54379C124.152 7.72828 123.739 7.82053 123.24 7.82053ZM127.777 7.75903V2.32675H128.761V7.75903H127.777ZM128.269 1.2813C128.078 1.2813 127.917 1.2198 127.787 1.0968C127.664 0.973808 127.603 0.823481 127.603 0.645822C127.603 0.461329 127.664 0.307585 127.787 0.18459C127.917 0.0615952 128.078 9.76671e-05 128.269 9.76671e-05C128.46 9.76671e-05 128.618 0.0615952 128.741 0.18459C128.87 0.300752 128.935 0.447663 128.935 0.625322C128.935 0.809815 128.874 0.966975 128.751 1.0968C128.628 1.2198 128.467 1.2813 128.269 1.2813ZM133.54 2.27551C133.985 2.27551 134.374 2.36092 134.709 2.53174C135.051 2.70257 135.317 2.96223 135.508 3.31071C135.7 3.6592 135.795 4.09993 135.795 4.63291V7.75903H134.811V4.74566C134.811 4.21951 134.682 3.82319 134.422 3.5567C134.169 3.29021 133.81 3.15697 133.346 3.15697C132.997 3.15697 132.693 3.2253 132.434 3.36196C132.174 3.49862 131.972 3.7002 131.829 3.96669C131.692 4.23318 131.624 4.56458 131.624 4.9609V7.75903H130.64V2.32675H131.583V3.79244L131.429 3.40296C131.607 3.04764 131.88 2.7709 132.249 2.57274C132.618 2.37458 133.049 2.27551 133.54 2.27551ZM140.035 7.82053C139.454 7.82053 138.942 7.70095 138.498 7.4618C138.061 7.22264 137.719 6.89465 137.473 6.47784C137.234 6.06102 137.114 5.5827 137.114 5.04289C137.114 4.50308 137.23 4.02477 137.463 3.60795C137.702 3.19113 138.026 2.86656 138.436 2.63424C138.853 2.39508 139.321 2.27551 139.841 2.27551C140.367 2.27551 140.831 2.39167 141.234 2.62399C141.638 2.85632 141.952 3.1843 142.177 3.60795C142.41 4.02477 142.526 4.51333 142.526 5.07364C142.526 5.11464 142.523 5.16247 142.516 5.21714C142.516 5.2718 142.512 5.32305 142.505 5.37088H137.883V4.66366H141.993L141.593 4.90965C141.6 4.56116 141.528 4.25026 141.378 3.97694C141.228 3.70361 141.019 3.49179 140.753 3.34146C140.493 3.1843 140.189 3.10572 139.841 3.10572C139.499 3.10572 139.195 3.1843 138.928 3.34146C138.662 3.49179 138.453 3.70703 138.303 3.98719C138.153 4.26051 138.078 4.57483 138.078 4.93015V5.09414C138.078 5.45629 138.16 5.78086 138.324 6.06785C138.494 6.34801 138.73 6.56666 139.031 6.72383C139.331 6.88099 139.677 6.95957 140.066 6.95957C140.387 6.95957 140.678 6.9049 140.937 6.79557C141.204 6.68624 141.436 6.52225 141.634 6.30359L142.177 6.93907C141.931 7.22605 141.624 7.44471 141.255 7.59504C140.893 7.74537 140.486 7.82053 140.035 7.82053ZM143.892 7.75903V2.32675H144.835V3.80269L144.743 3.43371C144.893 3.05789 145.146 2.7709 145.501 2.57274C145.857 2.37458 146.294 2.27551 146.813 2.27551V3.22872C146.772 3.22188 146.731 3.21847 146.69 3.21847C146.656 3.21847 146.622 3.21847 146.588 3.21847C146.062 3.21847 145.645 3.37563 145.337 3.68995C145.03 4.00427 144.876 4.45867 144.876 5.05314V7.75903H143.892ZM153.073 7.81028C152.56 7.81028 152.099 7.69412 151.689 7.4618C151.286 7.22947 150.968 6.90832 150.736 6.49833C150.504 6.08152 150.388 5.6032 150.388 5.06339C150.388 4.51675 150.504 4.03843 150.736 3.62845C150.968 3.21847 151.286 2.90073 151.689 2.67524C152.099 2.44292 152.56 2.32675 153.073 2.32675C153.544 2.32675 153.965 2.43267 154.334 2.64449C154.709 2.85632 155.007 3.16722 155.225 3.5772C155.451 3.98035 155.564 4.47575 155.564 5.06339C155.564 5.6442 155.454 6.1396 155.236 6.54958C155.017 6.95957 154.72 7.27389 154.344 7.49254C153.975 7.70437 153.551 7.81028 153.073 7.81028ZM153.124 7.16456C153.507 7.16456 153.848 7.07914 154.149 6.90832C154.457 6.73066 154.696 6.48467 154.867 6.17035C155.044 5.84919 155.133 5.48021 155.133 5.06339C155.133 4.63974 155.044 4.27076 154.867 3.95644C154.696 3.64212 154.457 3.39954 154.149 3.22872C153.848 3.05106 153.507 2.96223 153.124 2.96223C152.748 2.96223 152.41 3.05106 152.109 3.22872C151.809 3.39954 151.57 3.64212 151.392 3.95644C151.214 4.27076 151.125 4.63974 151.125 5.06339C151.125 5.48021 151.214 5.84919 151.392 6.17035C151.57 6.48467 151.809 6.73066 152.109 6.90832C152.41 7.07914 152.748 7.16456 153.124 7.16456ZM155.154 7.75903V6.1396L155.225 5.05314L155.123 3.96669V0.153841H155.851V7.75903H155.154ZM160.163 7.81028C159.603 7.81028 159.111 7.69412 158.687 7.4618C158.263 7.22264 157.932 6.89807 157.693 6.48808C157.454 6.07127 157.334 5.59637 157.334 5.06339C157.334 4.53041 157.447 4.05893 157.672 3.64895C157.905 3.23897 158.219 2.91781 158.615 2.68549C159.018 2.44633 159.469 2.32675 159.968 2.32675C160.474 2.32675 160.921 2.44292 161.311 2.67524C161.707 2.90073 162.018 3.22188 162.244 3.6387C162.469 4.04868 162.582 4.52358 162.582 5.06339C162.582 5.09756 162.578 5.13514 162.572 5.17614C162.572 5.2103 162.572 5.24788 162.572 5.28888H157.887V4.74566H162.182L161.895 4.9609C161.895 4.57141 161.81 4.22634 161.639 3.92569C161.475 3.6182 161.249 3.37904 160.962 3.20822C160.675 3.03739 160.344 2.95198 159.968 2.95198C159.599 2.95198 159.268 3.03739 158.974 3.20822C158.68 3.37904 158.451 3.6182 158.287 3.92569C158.123 4.23318 158.041 4.58508 158.041 4.9814V5.09414C158.041 5.50412 158.13 5.86628 158.308 6.1806C158.492 6.48808 158.745 6.73066 159.066 6.90832C159.394 7.07914 159.767 7.16456 160.183 7.16456C160.511 7.16456 160.815 7.10648 161.096 6.99031C161.383 6.87415 161.629 6.69649 161.834 6.45734L162.244 6.92882C162.004 7.21581 161.704 7.43446 161.342 7.58479C160.986 7.73512 160.593 7.81028 160.163 7.81028ZM165.508 7.81028C165.064 7.81028 164.644 7.74878 164.248 7.62579C163.851 7.49596 163.54 7.33538 163.315 7.14406L163.643 6.57008C163.861 6.73407 164.142 6.87757 164.483 7.00056C164.825 7.11673 165.184 7.17481 165.559 7.17481C166.072 7.17481 166.441 7.09623 166.666 6.93907C166.892 6.77507 167.005 6.55983 167.005 6.29334C167.005 6.09518 166.94 5.94144 166.81 5.83211C166.687 5.71595 166.523 5.63054 166.318 5.57587C166.113 5.51437 165.884 5.46313 165.631 5.42213C165.378 5.38113 165.126 5.3333 164.873 5.27863C164.627 5.22397 164.401 5.14539 164.196 5.04289C163.991 4.93356 163.824 4.78665 163.694 4.60216C163.571 4.41767 163.51 4.17168 163.51 3.86419C163.51 3.57037 163.592 3.3073 163.756 3.07497C163.92 2.84265 164.159 2.66157 164.473 2.53174C164.794 2.39508 165.184 2.32675 165.641 2.32675C165.99 2.32675 166.338 2.37458 166.687 2.47025C167.035 2.55908 167.322 2.67866 167.548 2.82898L167.23 3.41321C166.991 3.24922 166.735 3.13305 166.461 3.06472C166.188 2.98956 165.915 2.95198 165.641 2.95198C165.156 2.95198 164.798 3.03739 164.565 3.20822C164.34 3.37221 164.227 3.58404 164.227 3.84369C164.227 4.04868 164.289 4.20926 164.412 4.32542C164.541 4.44158 164.709 4.53383 164.914 4.60216C165.126 4.66366 165.354 4.71491 165.6 4.7559C165.853 4.7969 166.103 4.84815 166.349 4.90965C166.601 4.96431 166.83 5.04289 167.035 5.14539C167.247 5.24105 167.415 5.38113 167.538 5.56562C167.667 5.74328 167.732 5.97902 167.732 6.27284C167.732 6.58716 167.644 6.86049 167.466 7.09281C167.295 7.3183 167.042 7.49596 166.707 7.62579C166.379 7.74878 165.98 7.81028 165.508 7.81028ZM169.068 7.75903V2.378H169.795V7.75903H169.068ZM169.437 1.18905C169.286 1.18905 169.16 1.1378 169.057 1.03531C168.955 0.93281 168.904 0.809815 168.904 0.666321C168.904 0.522826 168.955 0.403248 169.057 0.307585C169.16 0.205089 169.286 0.153841 169.437 0.153841C169.587 0.153841 169.713 0.201673 169.816 0.297335C169.918 0.392998 169.97 0.512577 169.97 0.656071C169.97 0.806398 169.918 0.93281 169.816 1.03531C169.72 1.1378 169.594 1.18905 169.437 1.18905ZM174.116 9.7987C173.624 9.7987 173.153 9.72695 172.702 9.58346C172.251 9.43997 171.885 9.23497 171.605 8.96848L171.974 8.41501C172.227 8.6405 172.538 8.81816 172.907 8.94799C173.283 9.08465 173.679 9.15298 174.096 9.15298C174.779 9.15298 175.281 8.9924 175.602 8.67125C175.924 8.35693 176.084 7.86495 176.084 7.19531V5.85261L176.187 4.93015L176.115 4.00769V2.378H176.812V7.10306C176.812 8.03236 176.583 8.71224 176.125 9.14273C175.674 9.58004 175.004 9.7987 174.116 9.7987ZM173.983 7.55404C173.47 7.55404 173.009 7.44471 172.599 7.22605C172.189 7.00056 171.865 6.68966 171.626 6.29334C171.393 5.89703 171.277 5.44263 171.277 4.93015C171.277 4.41767 171.393 3.96669 171.626 3.5772C171.865 3.18089 172.189 2.8734 172.599 2.65474C173.009 2.43608 173.47 2.32675 173.983 2.32675C174.461 2.32675 174.892 2.42583 175.274 2.62399C175.657 2.82215 175.961 3.11597 176.187 3.50546C176.412 3.89494 176.525 4.36984 176.525 4.93015C176.525 5.49046 176.412 5.96536 176.187 6.35484C175.961 6.74432 175.657 7.04156 175.274 7.24655C174.892 7.45155 174.461 7.55404 173.983 7.55404ZM174.055 6.90832C174.451 6.90832 174.803 6.82632 175.11 6.66233C175.418 6.4915 175.66 6.25918 175.838 5.96536C176.016 5.6647 176.105 5.31963 176.105 4.93015C176.105 4.54066 176.016 4.19901 175.838 3.90519C175.66 3.61137 175.418 3.38246 175.11 3.21847C174.803 3.04764 174.451 2.96223 174.055 2.96223C173.665 2.96223 173.313 3.04764 172.999 3.21847C172.691 3.38246 172.449 3.61137 172.271 3.90519C172.1 4.19901 172.015 4.54066 172.015 4.93015C172.015 5.31963 172.1 5.6647 172.271 5.96536C172.449 6.25918 172.691 6.4915 172.999 6.66233C173.313 6.82632 173.665 6.90832 174.055 6.90832ZM181.584 2.32675C182.021 2.32675 182.404 2.41217 182.732 2.58299C183.066 2.74699 183.326 2.99981 183.511 3.34146C183.702 3.68312 183.798 4.1136 183.798 4.63291V7.75903H183.07V4.70466C183.07 4.13751 182.926 3.71045 182.639 3.42346C182.359 3.12964 181.963 2.98273 181.45 2.98273C181.068 2.98273 180.733 3.06131 180.446 3.21847C180.166 3.36879 179.947 3.59087 179.79 3.88469C179.64 4.17168 179.565 4.52016 179.565 4.93015V7.75903H178.837V2.378H179.534V3.85394L179.421 3.5772C179.592 3.18772 179.865 2.88365 180.241 2.66499C180.617 2.4395 181.064 2.32675 181.584 2.32675ZM188.049 7.81028C187.489 7.81028 186.997 7.69412 186.573 7.4618C186.149 7.22264 185.818 6.89807 185.579 6.48808C185.34 6.07127 185.22 5.59637 185.22 5.06339C185.22 4.53041 185.333 4.05893 185.558 3.64895C185.791 3.23897 186.105 2.91781 186.501 2.68549C186.904 2.44633 187.355 2.32675 187.854 2.32675C188.36 2.32675 188.807 2.44292 189.197 2.67524C189.593 2.90073 189.904 3.22188 190.13 3.6387C190.355 4.04868 190.468 4.52358 190.468 5.06339C190.468 5.09756 190.464 5.13514 190.458 5.17614C190.458 5.2103 190.458 5.24788 190.458 5.28888H185.774V4.74566H190.068L189.781 4.9609C189.781 4.57141 189.696 4.22634 189.525 3.92569C189.361 3.6182 189.135 3.37904 188.848 3.20822C188.561 3.03739 188.23 2.95198 187.854 2.95198C187.485 2.95198 187.154 3.03739 186.86 3.20822C186.566 3.37904 186.337 3.6182 186.173 3.92569C186.009 4.23318 185.927 4.58508 185.927 4.9814V5.09414C185.927 5.50412 186.016 5.86628 186.194 6.1806C186.378 6.48808 186.631 6.73066 186.952 6.90832C187.28 7.07914 187.653 7.16456 188.069 7.16456C188.397 7.16456 188.702 7.10648 188.982 6.99031C189.269 6.87415 189.515 6.69649 189.72 6.45734L190.13 6.92882C189.89 7.21581 189.59 7.43446 189.228 7.58479C188.872 7.73512 188.479 7.81028 188.049 7.81028ZM194.091 7.81028C193.579 7.81028 193.118 7.69412 192.708 7.4618C192.304 7.22947 191.987 6.90832 191.754 6.49833C191.522 6.08152 191.406 5.6032 191.406 5.06339C191.406 4.51675 191.522 4.03843 191.754 3.62845C191.987 3.21847 192.304 2.90073 192.708 2.67524C193.118 2.44292 193.579 2.32675 194.091 2.32675C194.563 2.32675 194.983 2.43267 195.352 2.64449C195.728 2.85632 196.025 3.16722 196.244 3.5772C196.469 3.98035 196.582 4.47575 196.582 5.06339C196.582 5.6442 196.473 6.1396 196.254 6.54958C196.035 6.95957 195.738 7.27389 195.362 7.49254C194.993 7.70437 194.57 7.81028 194.091 7.81028ZM194.143 7.16456C194.525 7.16456 194.867 7.07914 195.167 6.90832C195.475 6.73066 195.714 6.48467 195.885 6.17035C196.063 5.84919 196.151 5.48021 196.151 5.06339C196.151 4.63974 196.063 4.27076 195.885 3.95644C195.714 3.64212 195.475 3.39954 195.167 3.22872C194.867 3.05106 194.525 2.96223 194.143 2.96223C193.767 2.96223 193.428 3.05106 193.128 3.22872C192.827 3.39954 192.588 3.64212 192.41 3.95644C192.233 4.27076 192.144 4.63974 192.144 5.06339C192.144 5.48021 192.233 5.84919 192.41 6.17035C192.588 6.48467 192.827 6.73066 193.128 6.90832C193.428 7.07914 193.767 7.16456 194.143 7.16456ZM196.172 7.75903V6.1396L196.244 5.05314L196.141 3.96669V0.153841H196.869V7.75903H196.172ZM203.362 7.82053C202.815 7.82053 202.391 7.67362 202.091 7.3798C201.79 7.08598 201.64 6.66574 201.64 6.1191V1.1378H202.624V6.0781C202.624 6.37192 202.695 6.59741 202.839 6.75457C202.989 6.91173 203.201 6.99031 203.474 6.99031C203.782 6.99031 204.038 6.9049 204.243 6.73407L204.55 7.4413C204.4 7.57112 204.219 7.66679 204.007 7.72828C203.802 7.78978 203.587 7.82053 203.362 7.82053ZM200.717 3.13647V2.32675H204.181V3.13647H200.717ZM207.887 7.82053C207.34 7.82053 206.855 7.70095 206.431 7.4618C206.007 7.22264 205.673 6.89465 205.427 6.47784C205.181 6.05419 205.058 5.57587 205.058 5.04289C205.058 4.50308 205.181 4.02477 205.427 3.60795C205.673 3.19113 206.007 2.86656 206.431 2.63424C206.855 2.39508 207.34 2.27551 207.887 2.27551C208.426 2.27551 208.908 2.39508 209.332 2.63424C209.762 2.86656 210.097 3.19113 210.336 3.60795C210.582 4.01793 210.705 4.49625 210.705 5.04289C210.705 5.5827 210.582 6.06102 210.336 6.47784C210.097 6.89465 209.762 7.22264 209.332 7.4618C208.908 7.70095 208.426 7.82053 207.887 7.82053ZM207.887 6.95957C208.235 6.95957 208.546 6.88099 208.819 6.72383C209.099 6.56666 209.318 6.34459 209.475 6.0576C209.632 5.76378 209.711 5.42554 209.711 5.04289C209.711 4.65341 209.632 4.31859 209.475 4.03843C209.318 3.75145 209.099 3.52937 208.819 3.37221C208.546 3.21505 208.235 3.13647 207.887 3.13647C207.538 3.13647 207.227 3.21505 206.954 3.37221C206.681 3.52937 206.462 3.75145 206.298 4.03843C206.134 4.31859 206.052 4.65341 206.052 5.04289C206.052 5.42554 206.134 5.76378 206.298 6.0576C206.462 6.34459 206.681 6.56666 206.954 6.72383C207.227 6.88099 207.538 6.95957 207.887 6.95957ZM217.699 7.82053C217.248 7.82053 216.834 7.71803 216.458 7.51304C216.09 7.30122 215.792 6.99031 215.567 6.58033C215.348 6.17035 215.239 5.65787 215.239 5.04289C215.239 4.42792 215.345 3.91544 215.557 3.50546C215.775 3.09547 216.069 2.78798 216.438 2.58299C216.814 2.378 217.234 2.27551 217.699 2.27551C218.232 2.27551 218.703 2.39167 219.113 2.62399C219.523 2.85632 219.848 3.18089 220.087 3.5977C220.326 4.00769 220.446 4.48942 220.446 5.04289C220.446 5.59637 220.326 6.08152 220.087 6.49833C219.848 6.91515 219.523 7.23972 219.113 7.47204C218.703 7.70437 218.232 7.82053 217.699 7.82053ZM214.819 9.74745V2.32675H215.762V3.79244L215.7 5.05314L215.803 6.31384V9.74745H214.819ZM217.617 6.95957C217.965 6.95957 218.276 6.88099 218.549 6.72383C218.83 6.56666 219.048 6.34459 219.205 6.0576C219.369 5.76378 219.451 5.42554 219.451 5.04289C219.451 4.65341 219.369 4.31859 219.205 4.03843C219.048 3.75145 218.83 3.52937 218.549 3.37221C218.276 3.21505 217.965 3.13647 217.617 3.13647C217.275 3.13647 216.964 3.21505 216.684 3.37221C216.411 3.52937 216.192 3.75145 216.028 4.03843C215.871 4.31859 215.792 4.65341 215.792 5.04289C215.792 5.42554 215.871 5.76378 216.028 6.0576C216.192 6.34459 216.411 6.56666 216.684 6.72383C216.964 6.88099 217.275 6.95957 217.617 6.95957ZM221.805 7.75903V2.32675H222.748V3.80269L222.656 3.43371C222.806 3.05789 223.059 2.7709 223.414 2.57274C223.77 2.37458 224.207 2.27551 224.726 2.27551V3.22872C224.685 3.22188 224.644 3.21847 224.603 3.21847C224.569 3.21847 224.535 3.21847 224.501 3.21847C223.975 3.21847 223.558 3.37563 223.25 3.68995C222.943 4.00427 222.789 4.45867 222.789 5.05314V7.75903H221.805ZM228.308 7.82053C227.727 7.82053 227.215 7.70095 226.77 7.4618C226.333 7.22264 225.991 6.89465 225.745 6.47784C225.506 6.06102 225.387 5.5827 225.387 5.04289C225.387 4.50308 225.503 4.02477 225.735 3.60795C225.974 3.19113 226.299 2.86656 226.709 2.63424C227.126 2.39508 227.594 2.27551 228.113 2.27551C228.639 2.27551 229.104 2.39167 229.507 2.62399C229.91 2.85632 230.224 3.1843 230.45 3.60795C230.682 4.02477 230.798 4.51333 230.798 5.07364C230.798 5.11464 230.795 5.16247 230.788 5.21714C230.788 5.2718 230.785 5.32305 230.778 5.37088H226.155V4.66366H230.265L229.866 4.90965C229.873 4.56116 229.801 4.25026 229.651 3.97694C229.5 3.70361 229.292 3.49179 229.025 3.34146C228.766 3.1843 228.462 3.10572 228.113 3.10572C227.771 3.10572 227.467 3.1843 227.201 3.34146C226.934 3.49179 226.726 3.70703 226.576 3.98719C226.425 4.26051 226.35 4.57483 226.35 4.93015V5.09414C226.35 5.45629 226.432 5.78086 226.596 6.06785C226.767 6.34801 227.003 6.56666 227.303 6.72383C227.604 6.88099 227.949 6.95957 228.339 6.95957C228.66 6.95957 228.95 6.9049 229.21 6.79557C229.476 6.68624 229.709 6.52225 229.907 6.30359L230.45 6.93907C230.204 7.22605 229.897 7.44471 229.528 7.59504C229.165 7.74537 228.759 7.82053 228.308 7.82053ZM233.723 7.82053C233.272 7.82053 232.841 7.75903 232.431 7.63604C232.028 7.51304 231.71 7.36272 231.478 7.18506L231.888 6.40609C232.12 6.56325 232.407 6.69649 232.749 6.80582C233.091 6.91515 233.439 6.96982 233.794 6.96982C234.252 6.96982 234.58 6.9049 234.778 6.77507C234.983 6.64525 235.086 6.46417 235.086 6.23185C235.086 6.06102 235.024 5.92777 234.901 5.83211C234.778 5.73645 234.614 5.6647 234.409 5.61687C234.211 5.56904 233.989 5.52804 233.743 5.49387C233.497 5.45288 233.251 5.40505 233.005 5.35038C232.759 5.28888 232.534 5.20689 232.329 5.10439C232.124 4.99506 231.96 4.84815 231.837 4.66366C231.714 4.47233 231.652 4.21951 231.652 3.90519C231.652 3.5772 231.745 3.29021 231.929 3.04422C232.114 2.79823 232.373 2.61033 232.708 2.4805C233.05 2.34384 233.453 2.27551 233.917 2.27551C234.273 2.27551 234.632 2.31992 234.994 2.40875C235.363 2.49075 235.663 2.61033 235.896 2.76749L235.475 3.54645C235.229 3.38246 234.973 3.26971 234.707 3.20822C234.44 3.14672 234.174 3.11597 233.907 3.11597C233.477 3.11597 233.156 3.18772 232.944 3.33121C232.732 3.46787 232.626 3.64553 232.626 3.86419C232.626 4.04868 232.688 4.19218 232.811 4.29467C232.94 4.39034 233.104 4.4655 233.302 4.52016C233.507 4.57483 233.733 4.62266 233.979 4.66366C234.225 4.69782 234.471 4.74566 234.717 4.80715C234.963 4.86182 235.185 4.9404 235.383 5.04289C235.588 5.14539 235.752 5.28888 235.875 5.47338C236.005 5.65787 236.07 5.90386 236.07 6.21135C236.07 6.53933 235.974 6.8229 235.783 7.06206C235.592 7.30122 235.322 7.48913 234.973 7.62579C234.625 7.75562 234.208 7.82053 233.723 7.82053ZM239.718 7.82053C239.138 7.82053 238.625 7.70095 238.181 7.4618C237.744 7.22264 237.402 6.89465 237.156 6.47784C236.917 6.06102 236.797 5.5827 236.797 5.04289C236.797 4.50308 236.914 4.02477 237.146 3.60795C237.385 3.19113 237.71 2.86656 238.12 2.63424C238.536 2.39508 239.004 2.27551 239.524 2.27551C240.05 2.27551 240.515 2.39167 240.918 2.62399C241.321 2.85632 241.635 3.1843 241.861 3.60795C242.093 4.02477 242.209 4.51333 242.209 5.07364C242.209 5.11464 242.206 5.16247 242.199 5.21714C242.199 5.2718 242.195 5.32305 242.189 5.37088H237.566V4.66366H241.676L241.276 4.90965C241.283 4.56116 241.212 4.25026 241.061 3.97694C240.911 3.70361 240.702 3.49179 240.436 3.34146C240.176 3.1843 239.872 3.10572 239.524 3.10572C239.182 3.10572 238.878 3.1843 238.612 3.34146C238.345 3.49179 238.137 3.70703 237.986 3.98719C237.836 4.26051 237.761 4.57483 237.761 4.93015V5.09414C237.761 5.45629 237.843 5.78086 238.007 6.06785C238.178 6.34801 238.413 6.56666 238.714 6.72383C239.015 6.88099 239.36 6.95957 239.749 6.95957C240.07 6.95957 240.361 6.9049 240.62 6.79557C240.887 6.68624 241.119 6.52225 241.317 6.30359L241.861 6.93907C241.615 7.22605 241.307 7.44471 240.938 7.59504C240.576 7.74537 240.169 7.82053 239.718 7.82053ZM243.575 7.75903V2.32675H244.518V3.80269L244.426 3.43371C244.577 3.05789 244.829 2.7709 245.185 2.57274C245.54 2.37458 245.977 2.27551 246.497 2.27551V3.22872C246.456 3.22188 246.415 3.21847 246.374 3.21847C246.339 3.21847 246.305 3.21847 246.271 3.21847C245.745 3.21847 245.328 3.37563 245.021 3.68995C244.713 4.00427 244.559 4.45867 244.559 5.05314V7.75903H243.575ZM249.354 7.75903L246.976 2.32675H248.001L250.113 7.24655H249.621L251.773 2.32675H252.737L250.359 7.75903H249.354ZM255.924 7.82053C255.343 7.82053 254.83 7.70095 254.386 7.4618C253.949 7.22264 253.607 6.89465 253.361 6.47784C253.122 6.06102 253.003 5.5827 253.003 5.04289C253.003 4.50308 253.119 4.02477 253.351 3.60795C253.59 3.19113 253.915 2.86656 254.325 2.63424C254.742 2.39508 255.21 2.27551 255.729 2.27551C256.255 2.27551 256.72 2.39167 257.123 2.62399C257.526 2.85632 257.84 3.1843 258.066 3.60795C258.298 4.02477 258.414 4.51333 258.414 5.07364C258.414 5.11464 258.411 5.16247 258.404 5.21714C258.404 5.2718 258.401 5.32305 258.394 5.37088H253.771V4.66366H257.881L257.482 4.90965C257.488 4.56116 257.417 4.25026 257.266 3.97694C257.116 3.70361 256.908 3.49179 256.641 3.34146C256.381 3.1843 256.077 3.10572 255.729 3.10572C255.387 3.10572 255.083 3.1843 254.817 3.34146C254.55 3.49179 254.342 3.70703 254.191 3.98719C254.041 4.26051 253.966 4.57483 253.966 4.93015V5.09414C253.966 5.45629 254.048 5.78086 254.212 6.06785C254.383 6.34801 254.619 6.56666 254.919 6.72383C255.22 6.88099 255.565 6.95957 255.954 6.95957C256.276 6.95957 256.566 6.9049 256.826 6.79557C257.092 6.68624 257.324 6.52225 257.523 6.30359L258.066 6.93907C257.82 7.22605 257.512 7.44471 257.143 7.59504C256.781 7.74537 256.375 7.82053 255.924 7.82053ZM0.92191 21.759V15.845C0.92191 15.312 1.07565 14.8884 1.38314 14.5741C1.69746 14.2529 2.14161 14.0923 2.71559 14.0923C2.92741 14.0923 3.12899 14.1197 3.32031 14.1743C3.51847 14.2222 3.68588 14.3008 3.82254 14.4101L3.5253 15.1583C3.42281 15.0763 3.30665 15.0148 3.17682 14.9738C3.04699 14.926 2.91033 14.9021 2.76683 14.9021C2.47985 14.9021 2.26119 14.9841 2.11086 15.1481C1.96053 15.3052 1.88537 15.541 1.88537 15.8553V16.583L1.90587 17.034V21.759H0.92191ZM-0.000553106 17.1365V16.3268H3.46381V17.1365H-0.000553106ZM4.39179 21.759V16.3268H5.33476V17.8027L5.24251 17.4337C5.39284 17.0579 5.64566 16.7709 6.00098 16.5727C6.3563 16.3746 6.79361 16.2755 7.31293 16.2755V17.2287C7.27193 17.2219 7.23093 17.2185 7.18993 17.2185C7.15577 17.2185 7.1216 17.2185 7.08743 17.2185C6.56129 17.2185 6.14447 17.3756 5.83699 17.6899C5.5295 18.0043 5.37575 18.4587 5.37575 19.0531V21.759H4.39179ZM10.8945 21.8205C10.3137 21.8205 9.80123 21.701 9.35708 21.4618C8.91976 21.2226 8.57811 20.8947 8.33212 20.4778C8.09296 20.061 7.97338 19.5827 7.97338 19.0429C7.97338 18.5031 8.08955 18.0248 8.32187 17.608C8.56103 17.1911 8.8856 16.8666 9.29558 16.6342C9.7124 16.3951 10.1805 16.2755 10.6998 16.2755C11.2259 16.2755 11.6906 16.3917 12.0937 16.624C12.4969 16.8563 12.8112 17.1843 13.0367 17.608C13.269 18.0248 13.3852 18.5133 13.3852 19.0736C13.3852 19.1146 13.3817 19.1625 13.3749 19.2171C13.3749 19.2718 13.3715 19.323 13.3647 19.3709H8.7421V18.6637H12.8522L12.4525 18.9096C12.4593 18.5612 12.3875 18.2503 12.2372 17.9769C12.0869 17.7036 11.8785 17.4918 11.612 17.3415C11.3523 17.1843 11.0483 17.1057 10.6998 17.1057C10.3581 17.1057 10.054 17.1843 9.78756 17.3415C9.52107 17.4918 9.31266 17.707 9.16234 17.9872C9.01201 18.2605 8.93684 18.5748 8.93684 18.9301V19.0941C8.93684 19.4563 9.01884 19.7809 9.18283 20.0679C9.35366 20.348 9.5894 20.5667 9.89006 20.7238C10.1907 20.881 10.5358 20.9596 10.9253 20.9596C11.2464 20.9596 11.5368 20.9049 11.7965 20.7956C12.063 20.6862 12.2953 20.5222 12.4935 20.3036L13.0367 20.9391C12.7907 21.2261 12.4832 21.4447 12.1142 21.595C11.7521 21.7454 11.3455 21.8205 10.8945 21.8205ZM16.3094 21.8205C15.8584 21.8205 15.428 21.759 15.018 21.636C14.6148 21.513 14.2971 21.3627 14.0648 21.1851L14.4747 20.4061C14.7071 20.5632 14.9941 20.6965 15.3357 20.8058C15.6774 20.9152 16.0258 20.9698 16.3812 20.9698C16.839 20.9698 17.167 20.9049 17.3651 20.7751C17.5701 20.6452 17.6726 20.4642 17.6726 20.2318C17.6726 20.061 17.6111 19.9278 17.4881 19.8321C17.3651 19.7364 17.2011 19.6647 16.9961 19.6169C16.798 19.569 16.5759 19.528 16.3299 19.4939C16.0839 19.4529 15.8379 19.405 15.5919 19.3504C15.346 19.2889 15.1205 19.2069 14.9155 19.1044C14.7105 18.9951 14.5465 18.8482 14.4235 18.6637C14.3005 18.4723 14.239 18.2195 14.239 17.9052C14.239 17.5772 14.3312 17.2902 14.5157 17.0442C14.7002 16.7982 14.9599 16.6103 15.2947 16.4805C15.6364 16.3438 16.0395 16.2755 16.5042 16.2755C16.8595 16.2755 17.2182 16.3199 17.5804 16.4088C17.9494 16.4907 18.25 16.6103 18.4823 16.7675L18.0621 17.5465C17.8161 17.3825 17.5599 17.2697 17.2934 17.2082C17.0269 17.1467 16.7604 17.116 16.4939 17.116C16.0634 17.116 15.7423 17.1877 15.5305 17.3312C15.3186 17.4679 15.2127 17.6455 15.2127 17.8642C15.2127 18.0487 15.2742 18.1922 15.3972 18.2947C15.527 18.3903 15.691 18.4655 15.8892 18.5202C16.0942 18.5748 16.3197 18.6227 16.5657 18.6637C16.8116 18.6978 17.0576 18.7457 17.3036 18.8072C17.5496 18.8618 17.7717 18.9404 17.9699 19.0429C18.1748 19.1454 18.3388 19.2889 18.4618 19.4734C18.5917 19.6579 18.6566 19.9039 18.6566 20.2113C18.6566 20.5393 18.5609 20.8229 18.3696 21.0621C18.1783 21.3012 17.9084 21.4891 17.5599 21.6258C17.2114 21.7556 16.7946 21.8205 16.3094 21.8205ZM22.7869 16.2755C23.2311 16.2755 23.6205 16.3609 23.9554 16.5317C24.297 16.7026 24.5635 16.9622 24.7548 17.3107C24.9462 17.6592 25.0418 18.0999 25.0418 18.6329V21.759H24.0579V18.7457C24.0579 18.2195 23.928 17.8232 23.6684 17.5567C23.4156 17.2902 23.0568 17.157 22.5922 17.157C22.2437 17.157 21.9396 17.2253 21.68 17.362C21.4203 17.4986 21.2187 17.7002 21.0752 17.9667C20.9386 18.2332 20.8702 18.5646 20.8702 18.9609V21.759H19.8863V14.1538H20.8702V17.7924L20.6755 17.403C20.8532 17.0476 21.1265 16.7709 21.4955 16.5727C21.8645 16.3746 22.2949 16.2755 22.7869 16.2755ZM29.7634 16.2755C30.2076 16.2755 30.5971 16.3609 30.9319 16.5317C31.2735 16.7026 31.54 16.9622 31.7314 17.3107C31.9227 17.6592 32.0183 18.0999 32.0183 18.6329V21.759H31.0344V18.7457C31.0344 18.2195 30.9046 17.8232 30.6449 17.5567C30.3921 17.2902 30.0333 17.157 29.5687 17.157C29.2202 17.157 28.9161 17.2253 28.6565 17.362C28.3968 17.4986 28.1953 17.7002 28.0518 17.9667C27.9151 18.2332 27.8468 18.5646 27.8468 18.9609V21.759H26.8628V16.3268H27.8058V17.7924L27.652 17.403C27.8297 17.0476 28.103 16.7709 28.472 16.5727C28.841 16.3746 29.2715 16.2755 29.7634 16.2755ZM36.2582 21.8205C35.6774 21.8205 35.1649 21.701 34.7208 21.4618C34.2835 21.2226 33.9418 20.8947 33.6958 20.4778C33.4567 20.061 33.3371 19.5827 33.3371 19.0429C33.3371 18.5031 33.4533 18.0248 33.6856 17.608C33.9247 17.1911 34.2493 16.8666 34.6593 16.6342C35.0761 16.3951 35.5442 16.2755 36.0635 16.2755C36.5896 16.2755 37.0543 16.3917 37.4574 16.624C37.8606 16.8563 38.1749 17.1843 38.4004 17.608C38.6327 18.0248 38.7489 18.5133 38.7489 19.0736C38.7489 19.1146 38.7455 19.1625 38.7386 19.2171C38.7386 19.2718 38.7352 19.323 38.7284 19.3709H34.1058V18.6637H38.2159L37.8162 18.9096C37.823 18.5612 37.7513 18.2503 37.6009 17.9769C37.4506 17.7036 37.2422 17.4918 36.9757 17.3415C36.716 17.1843 36.412 17.1057 36.0635 17.1057C35.7218 17.1057 35.4178 17.1843 35.1513 17.3415C34.8848 17.4918 34.6764 17.707 34.5261 17.9872C34.3757 18.2605 34.3006 18.5748 34.3006 18.9301V19.0941C34.3006 19.4563 34.3826 19.7809 34.5465 20.0679C34.7174 20.348 34.9531 20.5667 35.2538 20.7238C35.5544 20.881 35.8995 20.9596 36.289 20.9596C36.6101 20.9596 36.9005 20.9049 37.1602 20.7956C37.4267 20.6862 37.659 20.5222 37.8572 20.3036L38.4004 20.9391C38.1544 21.2261 37.8469 21.4447 37.4779 21.595C37.1158 21.7454 36.7092 21.8205 36.2582 21.8205ZM41.6731 21.8205C41.2222 21.8205 40.7917 21.759 40.3817 21.636C39.9785 21.513 39.6608 21.3627 39.4285 21.1851L39.8385 20.4061C40.0708 20.5632 40.3578 20.6965 40.6994 20.8058C41.0411 20.9152 41.3896 20.9698 41.7449 20.9698C42.2027 20.9698 42.5307 20.9049 42.7288 20.7751C42.9338 20.6452 43.0363 20.4642 43.0363 20.2318C43.0363 20.061 42.9748 19.9278 42.8518 19.8321C42.7288 19.7364 42.5649 19.6647 42.3599 19.6169C42.1617 19.569 41.9396 19.528 41.6936 19.4939C41.4476 19.4529 41.2017 19.405 40.9557 19.3504C40.7097 19.2889 40.4842 19.2069 40.2792 19.1044C40.0742 18.9951 39.9102 18.8482 39.7872 18.6637C39.6642 18.4723 39.6027 18.2195 39.6027 17.9052C39.6027 17.5772 39.695 17.2902 39.8795 17.0442C40.064 16.7982 40.3236 16.6103 40.6584 16.4805C41.0001 16.3438 41.4032 16.2755 41.8679 16.2755C42.2232 16.2755 42.5819 16.3199 42.9441 16.4088C43.3131 16.4907 43.6137 16.6103 43.846 16.7675L43.4258 17.5465C43.1798 17.3825 42.9236 17.2697 42.6571 17.2082C42.3906 17.1467 42.1241 17.116 41.8576 17.116C41.4271 17.116 41.106 17.1877 40.8942 17.3312C40.6823 17.4679 40.5764 17.6455 40.5764 17.8642C40.5764 18.0487 40.6379 18.1922 40.7609 18.2947C40.8908 18.3903 41.0547 18.4655 41.2529 18.5202C41.4579 18.5748 41.6834 18.6227 41.9294 18.6637C42.1754 18.6978 42.4214 18.7457 42.6673 18.8072C42.9133 18.8618 43.1354 18.9404 43.3336 19.0429C43.5386 19.1454 43.7026 19.2889 43.8255 19.4734C43.9554 19.6579 44.0203 19.9039 44.0203 20.2113C44.0203 20.5393 43.9246 20.8229 43.7333 21.0621C43.542 21.3012 43.2721 21.4891 42.9236 21.6258C42.5751 21.7556 42.1583 21.8205 41.6731 21.8205ZM46.8079 21.8205C46.357 21.8205 45.9265 21.759 45.5165 21.636C45.1133 21.513 44.7956 21.3627 44.5633 21.1851L44.9733 20.4061C45.2056 20.5632 45.4926 20.6965 45.8342 20.8058C46.1759 20.9152 46.5244 20.9698 46.8797 20.9698C47.3375 20.9698 47.6655 20.9049 47.8636 20.7751C48.0686 20.6452 48.1711 20.4642 48.1711 20.2318C48.1711 20.061 48.1096 19.9278 47.9866 19.8321C47.8636 19.7364 47.6997 19.6647 47.4947 19.6169C47.2965 19.569 47.0744 19.528 46.8284 19.4939C46.5824 19.4529 46.3365 19.405 46.0905 19.3504C45.8445 19.2889 45.619 19.2069 45.414 19.1044C45.209 18.9951 45.045 18.8482 44.922 18.6637C44.799 18.4723 44.7375 18.2195 44.7375 17.9052C44.7375 17.5772 44.8298 17.2902 45.0143 17.0442C45.1988 16.7982 45.4584 16.6103 45.7932 16.4805C46.1349 16.3438 46.538 16.2755 47.0027 16.2755C47.358 16.2755 47.7167 16.3199 48.0789 16.4088C48.4479 16.4907 48.7485 16.6103 48.9808 16.7675L48.5606 17.5465C48.3146 17.3825 48.0584 17.2697 47.7919 17.2082C47.5254 17.1467 47.2589 17.116 46.9924 17.116C46.5619 17.116 46.2408 17.1877 46.029 17.3312C45.8171 17.4679 45.7112 17.6455 45.7112 17.8642C45.7112 18.0487 45.7727 18.1922 45.8957 18.2947C46.0256 18.3903 46.1895 18.4655 46.3877 18.5202C46.5927 18.5748 46.8182 18.6227 47.0642 18.6637C47.3102 18.6978 47.5562 18.7457 47.8021 18.8072C48.0481 18.8618 48.2702 18.9404 48.4684 19.0429C48.6734 19.1454 48.8374 19.2889 48.9603 19.4734C49.0902 19.6579 49.1551 19.9039 49.1551 20.2113C49.1551 20.5393 49.0594 20.8229 48.8681 21.0621C48.6768 21.3012 48.4069 21.4891 48.0584 21.6258C47.7099 21.7556 47.2931 21.8205 46.8079 21.8205ZM56.5915 21.759V20.5701L56.5607 20.3753V18.3869C56.5607 17.9291 56.4309 17.5772 56.1713 17.3312C55.9184 17.0852 55.5392 16.9622 55.0335 16.9622C54.6851 16.9622 54.3537 17.0203 54.0393 17.1365C53.725 17.2526 53.4585 17.4064 53.2399 17.5977L52.9119 17.0545C53.1852 16.8221 53.5132 16.6445 53.8958 16.5215C54.2785 16.3917 54.6816 16.3268 55.1053 16.3268C55.8023 16.3268 56.3387 16.501 56.7145 16.8495C57.0971 17.1911 57.2885 17.7139 57.2885 18.4177V21.759H56.5915ZM54.7363 21.8103C54.3332 21.8103 53.9813 21.7454 53.6806 21.6155C53.3868 21.4789 53.1613 21.2944 53.0041 21.0621C52.847 20.8229 52.7684 20.5496 52.7684 20.2421C52.7684 19.9619 52.8333 19.7091 52.9631 19.4836C53.0998 19.2513 53.3185 19.0668 53.6191 18.9301C53.9266 18.7867 54.3366 18.7149 54.8491 18.7149H56.7042V19.2581H54.8696C54.3502 19.2581 53.9881 19.3504 53.7831 19.5349C53.5849 19.7194 53.4859 19.9483 53.4859 20.2216C53.4859 20.5291 53.6054 20.7751 53.8446 20.9596C54.0838 21.1441 54.4186 21.2363 54.8491 21.2363C55.259 21.2363 55.6109 21.1441 55.9048 20.9596C56.2054 20.7682 56.4241 20.4949 56.5607 20.1396L56.7247 20.6418C56.5881 20.9971 56.3489 21.2807 56.0073 21.4925C55.6724 21.7044 55.2488 21.8103 54.7363 21.8103ZM62.0119 16.3268C62.4492 16.3268 62.8319 16.4122 63.1599 16.583C63.4947 16.747 63.7543 16.9998 63.9388 17.3415C64.1302 17.6831 64.2258 18.1136 64.2258 18.6329V21.759H63.4981V18.7047C63.4981 18.1375 63.3546 17.7104 63.0676 17.4235C62.7875 17.1296 62.3911 16.9827 61.8787 16.9827C61.496 16.9827 61.1612 17.0613 60.8742 17.2185C60.5941 17.3688 60.3754 17.5909 60.2182 17.8847C60.0679 18.1717 59.9927 18.5202 59.9927 18.9301V21.759H59.265V16.378H59.962V17.8539L59.8493 17.5772C60.0201 17.1877 60.2934 16.8836 60.6692 16.665C61.045 16.4395 61.4926 16.3268 62.0119 16.3268ZM68.3337 21.8103C67.8212 21.8103 67.36 21.6941 66.95 21.4618C66.5468 21.2295 66.2291 20.9083 65.9968 20.4983C65.7644 20.0815 65.6483 19.6032 65.6483 19.0634C65.6483 18.5167 65.7644 18.0384 65.9968 17.6285C66.2291 17.2185 66.5468 16.9007 66.95 16.6752C67.36 16.4429 67.8212 16.3268 68.3337 16.3268C68.8051 16.3268 69.2254 16.4327 69.5944 16.6445C69.9702 16.8563 70.2674 17.1672 70.4861 17.5772C70.7116 17.9804 70.8243 18.4757 70.8243 19.0634C70.8243 19.6442 70.715 20.1396 70.4963 20.5496C70.2777 20.9596 69.9804 21.2739 69.6046 21.4925C69.2356 21.7044 68.812 21.8103 68.3337 21.8103ZM68.3849 21.1646C68.7676 21.1646 69.1092 21.0791 69.4099 20.9083C69.7174 20.7307 69.9565 20.4847 70.1273 20.1703C70.305 19.8492 70.3938 19.4802 70.3938 19.0634C70.3938 18.6397 70.305 18.2708 70.1273 17.9564C69.9565 17.6421 69.7174 17.3995 69.4099 17.2287C69.1092 17.0511 68.7676 16.9622 68.3849 16.9622C68.0091 16.9622 67.6709 17.0511 67.3702 17.2287C67.0696 17.3995 66.8304 17.6421 66.6527 17.9564C66.4751 18.2708 66.3862 18.6397 66.3862 19.0634C66.3862 19.4802 66.4751 19.8492 66.6527 20.1703C66.8304 20.4847 67.0696 20.7307 67.3702 20.9083C67.6709 21.0791 68.0091 21.1646 68.3849 21.1646ZM70.4143 21.759V20.1396L70.4861 19.0531L70.3836 17.9667V14.1538H71.1113V21.759H70.4143ZM82.604 16.2755C83.0414 16.2755 83.4274 16.3609 83.7623 16.5317C84.0971 16.7026 84.3567 16.9622 84.5412 17.3107C84.7325 17.6592 84.8282 18.0999 84.8282 18.6329V21.759H83.8442V18.7457C83.8442 18.2195 83.7213 17.8232 83.4753 17.5567C83.2293 17.2902 82.8842 17.157 82.4401 17.157C82.1121 17.157 81.8251 17.2253 81.5791 17.362C81.3331 17.4986 81.1418 17.7002 81.0051 17.9667C80.8753 18.2332 80.8104 18.5646 80.8104 18.9609V21.759H79.8264V18.7457C79.8264 18.2195 79.7034 17.8232 79.4574 17.5567C79.2183 17.2902 78.8732 17.157 78.4222 17.157C78.1011 17.157 77.8175 17.2253 77.5715 17.362C77.3255 17.4986 77.1342 17.7002 76.9975 17.9667C76.8609 18.2332 76.7925 18.5646 76.7925 18.9609V21.759H75.8086V16.3268H76.7515V17.7719L76.5978 17.403C76.7686 17.0476 77.0317 16.7709 77.387 16.5727C77.7423 16.3746 78.1557 16.2755 78.6272 16.2755C79.1465 16.2755 79.5941 16.4053 79.9699 16.665C80.3457 16.9178 80.5917 17.3039 80.7079 17.8232L80.3081 17.6592C80.4721 17.2424 80.7591 16.9076 81.1691 16.6547C81.5791 16.4019 82.0574 16.2755 82.604 16.2755ZM90.0108 21.759V20.6111L89.9596 20.3958V18.4382C89.9596 18.0214 89.8366 17.7002 89.5906 17.4747C89.3514 17.2424 88.9893 17.1262 88.5041 17.1262C88.183 17.1262 87.8686 17.1809 87.5612 17.2902C87.2537 17.3927 86.994 17.5328 86.7822 17.7104L86.3722 16.9725C86.6524 16.747 86.9872 16.5762 87.3767 16.46C87.773 16.337 88.1864 16.2755 88.6169 16.2755C89.3617 16.2755 89.9356 16.4566 90.3388 16.8187C90.7419 17.1809 90.9435 17.7344 90.9435 18.4792V21.759H90.0108ZM88.2274 21.8205C87.8242 21.8205 87.4689 21.7522 87.1614 21.6155C86.8608 21.4789 86.6284 21.291 86.4645 21.0518C86.3005 20.8058 86.2185 20.5291 86.2185 20.2216C86.2185 19.9278 86.2868 19.6613 86.4235 19.4221C86.567 19.183 86.7959 18.9916 87.1102 18.8482C87.4313 18.7047 87.8618 18.6329 88.4016 18.6329H90.1236V19.3401H88.4426C87.9506 19.3401 87.6192 19.4221 87.4484 19.5861C87.2776 19.7501 87.1922 19.9483 87.1922 20.1806C87.1922 20.4471 87.2981 20.6623 87.5099 20.8263C87.7217 20.9835 88.0156 21.0621 88.3914 21.0621C88.7604 21.0621 89.0815 20.9801 89.3548 20.8161C89.635 20.6521 89.8366 20.4129 89.9596 20.0986L90.1543 20.7751C90.0245 21.0962 89.7956 21.3525 89.4676 21.5438C89.1396 21.7283 88.7262 21.8205 88.2274 21.8205ZM91.9752 21.759L94.3121 18.7252L94.3019 19.2274L92.0777 16.3268H93.1744L94.8758 18.5612H94.4556L96.157 16.3268H97.2332L94.9783 19.2479L94.9886 18.7252L97.346 21.759H96.2288L94.4351 19.3811L94.8348 19.4426L93.0719 21.759H91.9752ZM98.4197 21.759V16.3268H99.4037V21.759H98.4197ZM98.9117 15.2813C98.7204 15.2813 98.5598 15.2198 98.43 15.0968C98.307 14.9738 98.2455 14.8235 98.2455 14.6458C98.2455 14.4613 98.307 14.3076 98.43 14.1846C98.5598 14.0616 98.7204 14.0001 98.9117 14.0001C99.103 14.0001 99.2602 14.0616 99.3832 14.1846C99.513 14.3008 99.5779 14.4477 99.5779 14.6253C99.5779 14.8098 99.5164 14.967 99.3934 15.0968C99.2704 15.2198 99.1099 15.2813 98.9117 15.2813ZM108.078 16.2755C108.515 16.2755 108.901 16.3609 109.236 16.5317C109.571 16.7026 109.831 16.9622 110.015 17.3107C110.206 17.6592 110.302 18.0999 110.302 18.6329V21.759H109.318V18.7457C109.318 18.2195 109.195 17.8232 108.949 17.5567C108.703 17.2902 108.358 17.157 107.914 17.157C107.586 17.157 107.299 17.2253 107.053 17.362C106.807 17.4986 106.616 17.7002 106.479 17.9667C106.349 18.2332 106.284 18.5646 106.284 18.9609V21.759H105.3V18.7457C105.3 18.2195 105.177 17.8232 104.931 17.5567C104.692 17.2902 104.347 17.157 103.896 17.157C103.575 17.157 103.291 17.2253 103.045 17.362C102.799 17.4986 102.608 17.7002 102.471 17.9667C102.335 18.2332 102.266 18.5646 102.266 18.9609V21.759H101.282V16.3268H102.225V17.7719L102.072 17.403C102.242 17.0476 102.506 16.7709 102.861 16.5727C103.216 16.3746 103.63 16.2755 104.101 16.2755C104.62 16.2755 105.068 16.4053 105.444 16.665C105.82 16.9178 106.066 17.3039 106.182 17.8232L105.782 17.6592C105.946 17.2424 106.233 16.9076 106.643 16.6547C107.053 16.4019 107.531 16.2755 108.078 16.2755ZM112.113 21.759V16.3268H113.096V21.759H112.113ZM112.605 15.2813C112.413 15.2813 112.253 15.2198 112.123 15.0968C112 14.9738 111.938 14.8235 111.938 14.6458C111.938 14.4613 112 14.3076 112.123 14.1846C112.253 14.0616 112.413 14.0001 112.605 14.0001C112.796 14.0001 112.953 14.0616 113.076 14.1846C113.206 14.3008 113.271 14.4477 113.271 14.6253C113.271 14.8098 113.209 14.967 113.086 15.0968C112.963 15.2198 112.803 15.2813 112.605 15.2813ZM114.452 21.759V21.1236L117.937 16.7982L118.132 17.1365H114.514V16.3268H118.921V16.9725L115.436 21.2876L115.211 20.9493H119.003V21.759H114.452ZM122.659 21.8205C122.078 21.8205 121.566 21.701 121.122 21.4618C120.684 21.2226 120.343 20.8947 120.097 20.4778C119.857 20.061 119.738 19.5827 119.738 19.0429C119.738 18.5031 119.854 18.0248 120.086 17.608C120.326 17.1911 120.65 16.8666 121.06 16.6342C121.477 16.3951 121.945 16.2755 122.464 16.2755C122.99 16.2755 123.455 16.3917 123.858 16.624C124.261 16.8563 124.576 17.1843 124.801 17.608C125.034 18.0248 125.15 18.5133 125.15 19.0736C125.15 19.1146 125.146 19.1625 125.139 19.2171C125.139 19.2718 125.136 19.323 125.129 19.3709H120.507V18.6637H124.617L124.217 18.9096C124.224 18.5612 124.152 18.2503 124.002 17.9769C123.851 17.7036 123.643 17.4918 123.376 17.3415C123.117 17.1843 122.813 17.1057 122.464 17.1057C122.123 17.1057 121.819 17.1843 121.552 17.3415C121.286 17.4918 121.077 17.707 120.927 17.9872C120.777 18.2605 120.701 18.5748 120.701 18.9301V19.0941C120.701 19.4563 120.783 19.7809 120.947 20.0679C121.118 20.348 121.354 20.5667 121.655 20.7238C121.955 20.881 122.3 20.9596 122.69 20.9596C123.011 20.9596 123.301 20.9049 123.561 20.7956C123.827 20.6862 124.06 20.5222 124.258 20.3036L124.801 20.9391C124.555 21.2261 124.248 21.4447 123.879 21.595C123.517 21.7454 123.11 21.8205 122.659 21.8205ZM130.826 21.8205C130.376 21.8205 129.945 21.759 129.535 21.636C129.132 21.513 128.814 21.3627 128.582 21.1851L128.992 20.4061C129.224 20.5632 129.511 20.6965 129.853 20.8058C130.194 20.9152 130.543 20.9698 130.898 20.9698C131.356 20.9698 131.684 20.9049 131.882 20.7751C132.087 20.6452 132.19 20.4642 132.19 20.2318C132.19 20.061 132.128 19.9278 132.005 19.8321C131.882 19.7364 131.718 19.6647 131.513 19.6169C131.315 19.569 131.093 19.528 130.847 19.4939C130.601 19.4529 130.355 19.405 130.109 19.3504C129.863 19.2889 129.638 19.2069 129.433 19.1044C129.228 18.9951 129.064 18.8482 128.941 18.6637C128.818 18.4723 128.756 18.2195 128.756 17.9052C128.756 17.5772 128.848 17.2902 129.033 17.0442C129.217 16.7982 129.477 16.6103 129.812 16.4805C130.153 16.3438 130.557 16.2755 131.021 16.2755C131.377 16.2755 131.735 16.3199 132.097 16.4088C132.466 16.4907 132.767 16.6103 132.999 16.7675L132.579 17.5465C132.333 17.3825 132.077 17.2697 131.81 17.2082C131.544 17.1467 131.277 17.116 131.011 17.116C130.581 17.116 130.259 17.1877 130.048 17.3312C129.836 17.4679 129.73 17.6455 129.73 17.8642C129.73 18.0487 129.791 18.1922 129.914 18.2947C130.044 18.3903 130.208 18.4655 130.406 18.5202C130.611 18.5748 130.837 18.6227 131.083 18.6637C131.329 18.6978 131.575 18.7457 131.821 18.8072C132.067 18.8618 132.289 18.9404 132.487 19.0429C132.692 19.1454 132.856 19.2889 132.979 19.4734C133.109 19.6579 133.174 19.9039 133.174 20.2113C133.174 20.5393 133.078 20.8229 132.887 21.0621C132.695 21.3012 132.425 21.4891 132.077 21.6258C131.728 21.7556 131.312 21.8205 130.826 21.8205ZM137.304 16.2755C137.748 16.2755 138.138 16.3609 138.472 16.5317C138.814 16.7026 139.081 16.9622 139.272 17.3107C139.463 17.6592 139.559 18.0999 139.559 18.6329V21.759H138.575V18.7457C138.575 18.2195 138.445 17.8232 138.185 17.5567C137.933 17.2902 137.574 17.157 137.109 17.157C136.761 17.157 136.457 17.2253 136.197 17.362C135.937 17.4986 135.736 17.7002 135.592 17.9667C135.456 18.2332 135.387 18.5646 135.387 18.9609V21.759H134.403V14.1538H135.387V17.7924L135.193 17.403C135.37 17.0476 135.644 16.7709 136.013 16.5727C136.382 16.3746 136.812 16.2755 137.304 16.2755ZM143.799 21.8205C143.218 21.8205 142.705 21.701 142.261 21.4618C141.824 21.2226 141.482 20.8947 141.236 20.4778C140.997 20.061 140.878 19.5827 140.878 19.0429C140.878 18.5031 140.994 18.0248 141.226 17.608C141.465 17.1911 141.79 16.8666 142.2 16.6342C142.617 16.3951 143.085 16.2755 143.604 16.2755C144.13 16.2755 144.595 16.3917 144.998 16.624C145.401 16.8563 145.715 17.1843 145.941 17.608C146.173 18.0248 146.289 18.5133 146.289 19.0736C146.289 19.1146 146.286 19.1625 146.279 19.2171C146.279 19.2718 146.276 19.323 146.269 19.3709H141.646V18.6637H145.756L145.357 18.9096C145.364 18.5612 145.292 18.2503 145.141 17.9769C144.991 17.7036 144.783 17.4918 144.516 17.3415C144.257 17.1843 143.953 17.1057 143.604 17.1057C143.262 17.1057 142.958 17.1843 142.692 17.3415C142.425 17.4918 142.217 17.707 142.067 17.9872C141.916 18.2605 141.841 18.5748 141.841 18.9301V19.0941C141.841 19.4563 141.923 19.7809 142.087 20.0679C142.258 20.348 142.494 20.5667 142.794 20.7238C143.095 20.881 143.44 20.9596 143.83 20.9596C144.151 20.9596 144.441 20.9049 144.701 20.7956C144.967 20.6862 145.2 20.5222 145.398 20.3036L145.941 20.9391C145.695 21.2261 145.387 21.4447 145.018 21.595C144.656 21.7454 144.25 21.8205 143.799 21.8205ZM147.656 21.759V14.1538H148.64V21.759H147.656ZM150.662 21.759V15.845C150.662 15.312 150.816 14.8884 151.123 14.5741C151.437 14.2529 151.882 14.0923 152.456 14.0923C152.667 14.0923 152.869 14.1197 153.06 14.1743C153.258 14.2222 153.426 14.3008 153.563 14.4101L153.265 15.1583C153.163 15.0763 153.047 15.0148 152.917 14.9738C152.787 14.926 152.65 14.9021 152.507 14.9021C152.22 14.9021 152.001 14.9841 151.851 15.1481C151.701 15.3052 151.625 15.541 151.625 15.8553V16.583L151.646 17.034V21.759H150.662ZM149.739 17.1365V16.3268H153.204V17.1365H149.739ZM156.884 21.759V16.3268H157.868V21.759H156.884ZM157.376 15.2813C157.185 15.2813 157.024 15.2198 156.895 15.0968C156.772 14.9738 156.71 14.8235 156.71 14.6458C156.71 14.4613 156.772 14.3076 156.895 14.1846C157.024 14.0616 157.185 14.0001 157.376 14.0001C157.568 14.0001 157.725 14.0616 157.848 14.1846C157.978 14.3008 158.043 14.4477 158.043 14.6253C158.043 14.8098 157.981 14.967 157.858 15.0968C157.735 15.2198 157.575 15.2813 157.376 15.2813ZM166.543 16.2755C166.98 16.2755 167.366 16.3609 167.701 16.5317C168.036 16.7026 168.295 16.9622 168.48 17.3107C168.671 17.6592 168.767 18.0999 168.767 18.6329V21.759H167.783V18.7457C167.783 18.2195 167.66 17.8232 167.414 17.5567C167.168 17.2902 166.823 17.157 166.379 17.157C166.051 17.157 165.764 17.2253 165.518 17.362C165.272 17.4986 165.08 17.7002 164.944 17.9667C164.814 18.2332 164.749 18.5646 164.749 18.9609V21.759H163.765V18.7457C163.765 18.2195 163.642 17.8232 163.396 17.5567C163.157 17.2902 162.812 17.157 162.361 17.157C162.04 17.157 161.756 17.2253 161.51 17.362C161.264 17.4986 161.073 17.7002 160.936 17.9667C160.799 18.2332 160.731 18.5646 160.731 18.9609V21.759H159.747V16.3268H160.69V17.7719L160.536 17.403C160.707 17.0476 160.97 16.7709 161.325 16.5727C161.681 16.3746 162.094 16.2755 162.566 16.2755C163.085 16.2755 163.533 16.4053 163.908 16.665C164.284 16.9178 164.53 17.3039 164.646 17.8232L164.247 17.6592C164.411 17.2424 164.698 16.9076 165.108 16.6547C165.518 16.4019 165.996 16.2755 166.543 16.2755ZM173.457 21.8205C173.006 21.8205 172.593 21.718 172.217 21.513C171.848 21.3012 171.551 20.9903 171.325 20.5803C171.107 20.1703 170.997 19.6579 170.997 19.0429C170.997 18.4279 171.103 17.9154 171.315 17.5055C171.534 17.0955 171.828 16.788 172.197 16.583C172.572 16.378 172.993 16.2755 173.457 16.2755C173.99 16.2755 174.462 16.3917 174.872 16.624C175.282 16.8563 175.606 17.1809 175.845 17.5977C176.085 18.0077 176.204 18.4894 176.204 19.0429C176.204 19.5964 176.085 20.0815 175.845 20.4983C175.606 20.9152 175.282 21.2397 174.872 21.472C174.462 21.7044 173.99 21.8205 173.457 21.8205ZM170.577 23.7475V16.3268H171.52V17.7924L171.459 19.0531L171.561 20.3138V23.7475H170.577ZM173.375 20.9596C173.724 20.9596 174.035 20.881 174.308 20.7238C174.588 20.5667 174.807 20.3446 174.964 20.0576C175.128 19.7638 175.21 19.4255 175.21 19.0429C175.21 18.6534 175.128 18.3186 174.964 18.0384C174.807 17.7514 174.588 17.5294 174.308 17.3722C174.035 17.2151 173.724 17.1365 173.375 17.1365C173.034 17.1365 172.723 17.2151 172.443 17.3722C172.169 17.5294 171.951 17.7514 171.787 18.0384C171.629 18.3186 171.551 18.6534 171.551 19.0429C171.551 19.4255 171.629 19.7638 171.787 20.0576C171.951 20.3446 172.169 20.5667 172.443 20.7238C172.723 20.881 173.034 20.9596 173.375 20.9596ZM180.886 21.759V20.6111L180.835 20.3958V18.4382C180.835 18.0214 180.712 17.7002 180.466 17.4747C180.226 17.2424 179.864 17.1262 179.379 17.1262C179.058 17.1262 178.744 17.1809 178.436 17.2902C178.129 17.3927 177.869 17.5328 177.657 17.7104L177.247 16.9725C177.527 16.747 177.862 16.5762 178.252 16.46C178.648 16.337 179.061 16.2755 179.492 16.2755C180.237 16.2755 180.811 16.4566 181.214 16.8187C181.617 17.1809 181.819 17.7344 181.819 18.4792V21.759H180.886ZM179.102 21.8205C178.699 21.8205 178.344 21.7522 178.036 21.6155C177.736 21.4789 177.503 21.291 177.339 21.0518C177.175 20.8058 177.093 20.5291 177.093 20.2216C177.093 19.9278 177.162 19.6613 177.298 19.4221C177.442 19.183 177.671 18.9916 177.985 18.8482C178.306 18.7047 178.737 18.6329 179.277 18.6329H180.999V19.3401H179.318C178.826 19.3401 178.494 19.4221 178.323 19.5861C178.153 19.7501 178.067 19.9483 178.067 20.1806C178.067 20.4471 178.173 20.6623 178.385 20.8263C178.597 20.9835 178.891 21.0621 179.266 21.0621C179.635 21.0621 179.956 20.9801 180.23 20.8161C180.51 20.6521 180.712 20.4129 180.835 20.0986L181.029 20.7751C180.899 21.0962 180.671 21.3525 180.343 21.5438C180.015 21.7283 179.601 21.8205 179.102 21.8205ZM186.007 21.8205C185.454 21.8205 184.958 21.701 184.521 21.4618C184.09 21.2226 183.752 20.8947 183.506 20.4778C183.26 20.061 183.137 19.5827 183.137 19.0429C183.137 18.5031 183.26 18.0248 183.506 17.608C183.752 17.1911 184.09 16.8666 184.521 16.6342C184.958 16.3951 185.454 16.2755 186.007 16.2755C186.499 16.2755 186.936 16.3746 187.319 16.5727C187.708 16.7641 188.009 17.0511 188.221 17.4337L187.473 17.9154C187.295 17.6489 187.076 17.4542 186.817 17.3312C186.564 17.2014 186.291 17.1365 185.997 17.1365C185.641 17.1365 185.324 17.2151 185.044 17.3722C184.763 17.5294 184.541 17.7514 184.377 18.0384C184.213 18.3186 184.131 18.6534 184.131 19.0429C184.131 19.4324 184.213 19.7706 184.377 20.0576C184.541 20.3446 184.763 20.5667 185.044 20.7238C185.324 20.881 185.641 20.9596 185.997 20.9596C186.291 20.9596 186.564 20.8981 186.817 20.7751C187.076 20.6452 187.295 20.4471 187.473 20.1806L188.221 20.6521C188.009 21.0279 187.708 21.3183 187.319 21.5233C186.936 21.7215 186.499 21.8205 186.007 21.8205ZM191.43 21.8205C190.884 21.8205 190.46 21.6736 190.159 21.3798C189.859 21.086 189.708 20.6657 189.708 20.1191V15.1378H190.692V20.0781C190.692 20.3719 190.764 20.5974 190.908 20.7546C191.058 20.9117 191.27 20.9903 191.543 20.9903C191.851 20.9903 192.107 20.9049 192.312 20.7341L192.619 21.4413C192.469 21.5711 192.288 21.6668 192.076 21.7283C191.871 21.7898 191.656 21.8205 191.43 21.8205ZM188.786 17.1365V16.3268H192.25V17.1365H188.786ZM197.74 21.759L195.711 16.378H196.408L198.253 21.3695H197.935L199.831 16.378H200.456L202.332 21.3695H202.014L203.89 16.378H204.556L202.516 21.759H201.83L200.026 17.0647H200.241L198.427 21.759H197.74ZM205.652 21.759V16.378H206.38V21.759H205.652ZM206.021 15.189C205.871 15.189 205.744 15.1378 205.642 15.0353C205.539 14.9328 205.488 14.8098 205.488 14.6663C205.488 14.5228 205.539 14.4032 205.642 14.3076C205.744 14.2051 205.871 14.1538 206.021 14.1538C206.171 14.1538 206.298 14.2017 206.4 14.2973C206.503 14.393 206.554 14.5126 206.554 14.6561C206.554 14.8064 206.503 14.9328 206.4 15.0353C206.304 15.1378 206.178 15.189 206.021 15.189ZM210.106 21.8103C209.6 21.8103 209.211 21.6736 208.937 21.4003C208.664 21.127 208.527 20.7409 208.527 20.2421V15.189H209.255V20.2011C209.255 20.5154 209.334 20.758 209.491 20.9288C209.655 21.0996 209.887 21.1851 210.188 21.1851C210.509 21.1851 210.776 21.0928 210.987 20.9083L211.244 21.431C211.1 21.5609 210.926 21.6565 210.721 21.718C210.523 21.7795 210.318 21.8103 210.106 21.8103ZM207.564 16.9827V16.378H210.895V16.9827H207.564ZM215.315 16.3268C215.753 16.3268 216.135 16.4122 216.463 16.583C216.798 16.747 217.058 16.9998 217.242 17.3415C217.434 17.6831 217.529 18.1136 217.529 18.6329V21.759H216.801V18.7047C216.801 18.1375 216.658 17.7104 216.371 17.4235C216.091 17.1296 215.694 16.9827 215.182 16.9827C214.799 16.9827 214.465 17.0613 214.178 17.2185C213.897 17.3688 213.679 17.5909 213.522 17.8847C213.371 18.1717 213.296 18.5202 213.296 18.9301V21.759H212.568V14.1538H213.296V17.8539L213.153 17.5772C213.323 17.1877 213.597 16.8836 213.973 16.665C214.348 16.4395 214.796 16.3268 215.315 16.3268ZM224.41 21.8205C223.884 21.8205 223.412 21.7044 222.996 21.472C222.586 21.2397 222.261 20.9152 222.022 20.4983C221.783 20.0815 221.663 19.5964 221.663 19.0429C221.663 18.4894 221.783 18.0077 222.022 17.5977C222.261 17.1809 222.586 16.8563 222.996 16.624C223.412 16.3917 223.884 16.2755 224.41 16.2755C224.868 16.2755 225.281 16.378 225.65 16.583C226.019 16.788 226.313 17.0955 226.532 17.5055C226.757 17.9154 226.87 18.4279 226.87 19.0429C226.87 19.6579 226.761 20.1703 226.542 20.5803C226.33 20.9903 226.04 21.3012 225.671 21.513C225.302 21.718 224.882 21.8205 224.41 21.8205ZM224.492 20.9596C224.834 20.9596 225.141 20.881 225.415 20.7238C225.695 20.5667 225.913 20.3446 226.071 20.0576C226.235 19.7638 226.317 19.4255 226.317 19.0429C226.317 18.6534 226.235 18.3186 226.071 18.0384C225.913 17.7514 225.695 17.5294 225.415 17.3722C225.141 17.2151 224.834 17.1365 224.492 17.1365C224.144 17.1365 223.833 17.2151 223.559 17.3722C223.286 17.5294 223.067 17.7514 222.903 18.0384C222.739 18.3186 222.657 18.6534 222.657 19.0429C222.657 19.4255 222.739 19.7638 222.903 20.0576C223.067 20.3446 223.286 20.5667 223.559 20.7238C223.833 20.881 224.144 20.9596 224.492 20.9596ZM226.347 21.759V20.2933L226.409 19.0326L226.306 17.7719V14.1538H227.29V21.759H226.347ZM231.438 21.8205C230.973 21.8205 230.563 21.7351 230.208 21.5643C229.859 21.3935 229.586 21.1338 229.388 20.7853C229.196 20.43 229.101 19.9859 229.101 19.4529V16.3268H230.085V19.3401C230.085 19.8731 230.211 20.2728 230.464 20.5393C230.724 20.8058 231.086 20.9391 231.55 20.9391C231.892 20.9391 232.189 20.8707 232.442 20.7341C232.695 20.5906 232.89 20.3856 233.026 20.1191C233.163 19.8458 233.231 19.5178 233.231 19.1351V16.3268H234.215V21.759H233.283V20.2933L233.436 20.6828C233.259 21.045 232.992 21.3251 232.637 21.5233C232.282 21.7215 231.882 21.8205 231.438 21.8205ZM236.088 21.759V16.3268H237.031V17.8027L236.939 17.4337C237.089 17.0579 237.342 16.7709 237.698 16.5727C238.053 16.3746 238.49 16.2755 239.01 16.2755V17.2287C238.969 17.2219 238.928 17.2185 238.887 17.2185C238.852 17.2185 238.818 17.2185 238.784 17.2185C238.258 17.2185 237.841 17.3756 237.534 17.6899C237.226 18.0043 237.072 18.4587 237.072 19.0531V21.759H236.088ZM243.194 21.759V20.6111L243.143 20.3958V18.4382C243.143 18.0214 243.02 17.7002 242.774 17.4747C242.535 17.2424 242.173 17.1262 241.687 17.1262C241.366 17.1262 241.052 17.1809 240.744 17.2902C240.437 17.3927 240.177 17.5328 239.965 17.7104L239.555 16.9725C239.836 16.747 240.17 16.5762 240.56 16.46C240.956 16.337 241.37 16.2755 241.8 16.2755C242.545 16.2755 243.119 16.4566 243.522 16.8187C243.925 17.1809 244.127 17.7344 244.127 18.4792V21.759H243.194ZM241.411 21.8205C241.007 21.8205 240.652 21.7522 240.345 21.6155C240.044 21.4789 239.812 21.291 239.648 21.0518C239.484 20.8058 239.402 20.5291 239.402 20.2216C239.402 19.9278 239.47 19.6613 239.607 19.4221C239.75 19.183 239.979 18.9916 240.293 18.8482C240.615 18.7047 241.045 18.6329 241.585 18.6329H243.307V19.3401H241.626C241.134 19.3401 240.802 19.4221 240.632 19.5861C240.461 19.7501 240.375 19.9483 240.375 20.1806C240.375 20.4471 240.481 20.6623 240.693 20.8263C240.905 20.9835 241.199 21.0621 241.575 21.0621C241.944 21.0621 242.265 20.9801 242.538 20.8161C242.818 20.6521 243.02 20.4129 243.143 20.0986L243.338 20.7751C243.208 21.0962 242.979 21.3525 242.651 21.5438C242.323 21.7283 241.909 21.8205 241.411 21.8205ZM248.828 21.8205C248.363 21.8205 247.943 21.718 247.567 21.513C247.198 21.3012 246.904 20.9903 246.686 20.5803C246.474 20.1703 246.368 19.6579 246.368 19.0429C246.368 18.4279 246.477 17.9154 246.696 17.5055C246.921 17.0955 247.219 16.788 247.588 16.583C247.963 16.378 248.377 16.2755 248.828 16.2755C249.361 16.2755 249.832 16.3917 250.242 16.624C250.652 16.8563 250.977 17.1809 251.216 17.5977C251.455 18.0077 251.575 18.4894 251.575 19.0429C251.575 19.5964 251.455 20.0815 251.216 20.4983C250.977 20.9152 250.652 21.2397 250.242 21.472C249.832 21.7044 249.361 21.8205 248.828 21.8205ZM245.948 21.759V14.1538H246.932V17.7719L246.829 19.0326L246.891 20.2933V21.759H245.948ZM248.746 20.9596C249.094 20.9596 249.405 20.881 249.679 20.7238C249.959 20.5667 250.177 20.3446 250.334 20.0576C250.498 19.7638 250.58 19.4255 250.58 19.0429C250.58 18.6534 250.498 18.3186 250.334 18.0384C250.177 17.7514 249.959 17.5294 249.679 17.3722C249.405 17.2151 249.094 17.1365 248.746 17.1365C248.404 17.1365 248.093 17.2151 247.813 17.3722C247.54 17.5294 247.321 17.7514 247.157 18.0384C247 18.3186 246.921 18.6534 246.921 19.0429C246.921 19.4255 247 19.7638 247.157 20.0576C247.321 20.3446 247.54 20.5667 247.813 20.7238C248.093 20.881 248.404 20.9596 248.746 20.9596ZM252.934 21.759V14.1538H253.918V21.759H252.934ZM258.216 21.8205C257.635 21.8205 257.122 21.701 256.678 21.4618C256.241 21.2226 255.899 20.8947 255.653 20.4778C255.414 20.061 255.295 19.5827 255.295 19.0429C255.295 18.5031 255.411 18.0248 255.643 17.608C255.882 17.1911 256.207 16.8666 256.617 16.6342C257.034 16.3951 257.502 16.2755 258.021 16.2755C258.547 16.2755 259.012 16.3917 259.415 16.624C259.818 16.8563 260.132 17.1843 260.358 17.608C260.59 18.0248 260.706 18.5133 260.706 19.0736C260.706 19.1146 260.703 19.1625 260.696 19.2171C260.696 19.2718 260.693 19.323 260.686 19.3709H256.063V18.6637H260.173L259.774 18.9096C259.781 18.5612 259.709 18.2503 259.558 17.9769C259.408 17.7036 259.2 17.4918 258.933 17.3415C258.674 17.1843 258.37 17.1057 258.021 17.1057C257.679 17.1057 257.375 17.1843 257.109 17.3415C256.842 17.4918 256.634 17.707 256.484 17.9872C256.333 18.2605 256.258 18.5748 256.258 18.9301V19.0941C256.258 19.4563 256.34 19.7809 256.504 20.0679C256.675 20.348 256.911 20.5667 257.211 20.7238C257.512 20.881 257.857 20.9596 258.247 20.9596C258.568 20.9596 258.858 20.9049 259.118 20.7956C259.384 20.6862 259.617 20.5222 259.815 20.3036L260.358 20.9391C260.112 21.2261 259.804 21.4447 259.435 21.595C259.073 21.7454 258.667 21.8205 258.216 21.8205ZM0.778415 35.759V28.1538H1.76238V35.759H0.778415ZM7.01321 35.759V34.6111L6.96196 34.3958V32.4382C6.96196 32.0214 6.83896 31.7002 6.59297 31.4747C6.35382 31.2424 5.99166 31.1262 5.50652 31.1262C5.18536 31.1262 4.87104 31.1809 4.56355 31.2902C4.25607 31.3927 3.99641 31.5328 3.78459 31.7104L3.3746 30.9725C3.65476 30.747 3.98958 30.5762 4.37906 30.46C4.77538 30.337 5.18878 30.2755 5.61926 30.2755C6.36407 30.2755 6.93804 30.4566 7.34119 30.8187C7.74434 31.1809 7.94592 31.7344 7.94592 32.4792V35.759H7.01321ZM5.22978 35.8205C4.82663 35.8205 4.47131 35.7522 4.16382 35.6155C3.86317 35.4789 3.63084 35.291 3.46685 35.0518C3.30286 34.8058 3.22086 34.5291 3.22086 34.2216C3.22086 33.9278 3.28919 33.6613 3.42585 33.4221C3.56935 33.183 3.79825 32.9916 4.11257 32.8482C4.43373 32.7047 4.86421 32.6329 5.40402 32.6329H7.12595V33.3401H5.44502C4.95304 33.3401 4.62164 33.4221 4.45081 33.5861C4.27998 33.7501 4.19457 33.9483 4.19457 34.1806C4.19457 34.4471 4.30048 34.6623 4.51231 34.8263C4.72413 34.9835 5.01795 35.0621 5.39377 35.0621C5.76276 35.0621 6.08391 34.9801 6.35723 34.8161C6.63739 34.6521 6.83896 34.4129 6.96196 34.0986L7.1567 34.7751C7.02687 35.0962 6.79796 35.3525 6.46998 35.5438C6.14199 35.7283 5.72859 35.8205 5.22978 35.8205ZM12.647 35.8205C12.1823 35.8205 11.7621 35.718 11.3863 35.513C11.0173 35.3012 10.7234 34.9903 10.5048 34.5803C10.293 34.1703 10.1871 33.6579 10.1871 33.0429C10.1871 32.4279 10.2964 31.9154 10.515 31.5055C10.7405 31.0955 11.0378 30.788 11.4068 30.583C11.7826 30.378 12.196 30.2755 12.647 30.2755C13.1799 30.2755 13.6514 30.3917 14.0614 30.624C14.4714 30.8563 14.796 31.1809 15.0351 31.5977C15.2743 32.0077 15.3938 32.4894 15.3938 33.0429C15.3938 33.5964 15.2743 34.0815 15.0351 34.4983C14.796 34.9152 14.4714 35.2397 14.0614 35.472C13.6514 35.7044 13.1799 35.8205 12.647 35.8205ZM9.76682 35.759V28.1538H10.7508V31.7719L10.6483 33.0326L10.7098 34.2933V35.759H9.76682ZM12.565 34.9596C12.9134 34.9596 13.2243 34.881 13.4977 34.7238C13.7778 34.5667 13.9965 34.3446 14.1536 34.0576C14.3176 33.7638 14.3996 33.4255 14.3996 33.0429C14.3996 32.6534 14.3176 32.3186 14.1536 32.0384C13.9965 31.7514 13.7778 31.5294 13.4977 31.3722C13.2243 31.2151 12.9134 31.1365 12.565 31.1365C12.2233 31.1365 11.9124 31.2151 11.6322 31.3722C11.3589 31.5294 11.1403 31.7514 10.9763 32.0384C10.8191 32.3186 10.7405 32.6534 10.7405 33.0429C10.7405 33.4255 10.8191 33.7638 10.9763 34.0576C11.1403 34.3446 11.3589 34.5667 11.6322 34.7238C11.9124 34.881 12.2233 34.9596 12.565 34.9596ZM19.1723 35.8205C18.5914 35.8205 18.079 35.701 17.6348 35.4618C17.1975 35.2226 16.8558 34.8947 16.6099 34.4778C16.3707 34.061 16.2511 33.5827 16.2511 33.0429C16.2511 32.5031 16.3673 32.0248 16.5996 31.608C16.8388 31.1911 17.1633 30.8666 17.5733 30.6342C17.9901 30.3951 18.4582 30.2755 18.9775 30.2755C19.5037 30.2755 19.9683 30.3917 20.3715 30.624C20.7746 30.8563 21.0889 31.1843 21.3144 31.608C21.5467 32.0248 21.6629 32.5133 21.6629 33.0736C21.6629 33.1146 21.6595 33.1625 21.6527 33.2171C21.6527 33.2718 21.6492 33.323 21.6424 33.3709H17.0198V32.6637H21.1299L20.7302 32.9096C20.737 32.5612 20.6653 32.2503 20.515 31.9769C20.3646 31.7036 20.1562 31.4918 19.8897 31.3415C19.6301 31.1843 19.326 31.1057 18.9775 31.1057C18.6359 31.1057 18.3318 31.1843 18.0653 31.3415C17.7988 31.4918 17.5904 31.707 17.4401 31.9872C17.2897 32.2605 17.2146 32.5748 17.2146 32.9301V33.0941C17.2146 33.4563 17.2966 33.7809 17.4606 34.0679C17.6314 34.348 17.8671 34.5667 18.1678 34.7238C18.4685 34.881 18.8135 34.9596 19.203 34.9596C19.5242 34.9596 19.8146 34.9049 20.0742 34.7956C20.3407 34.6862 20.573 34.5222 20.7712 34.3036L21.3144 34.9391C21.0684 35.2261 20.7609 35.4447 20.392 35.595C20.0298 35.7454 19.6232 35.8205 19.1723 35.8205ZM23.0292 35.759V28.1538H24.0132V35.759H23.0292ZM25.8919 35.759V30.3268H26.8759V35.759H25.8919ZM26.3839 29.2813C26.1926 29.2813 26.032 29.2198 25.9021 29.0968C25.7792 28.9738 25.7177 28.8235 25.7177 28.6458C25.7177 28.4613 25.7792 28.3076 25.9021 28.1846C26.032 28.0616 26.1926 28.0001 26.3839 28.0001C26.5752 28.0001 26.7324 28.0616 26.8554 28.1846C26.9852 28.3008 27.0501 28.4477 27.0501 28.6253C27.0501 28.8098 26.9886 28.967 26.8656 29.0968C26.7426 29.2198 26.582 29.2813 26.3839 29.2813ZM31.6552 30.2755C32.0994 30.2755 32.4888 30.3609 32.8237 30.5317C33.1653 30.7026 33.4318 30.9622 33.6231 31.3107C33.8145 31.6592 33.9101 32.0999 33.9101 32.6329V35.759H32.9262V32.7457C32.9262 32.2195 32.7963 31.8232 32.5367 31.5567C32.2838 31.2902 31.9251 31.157 31.4605 31.157C31.112 31.157 30.8079 31.2253 30.5483 31.362C30.2886 31.4986 30.087 31.7002 29.9435 31.9667C29.8069 32.2332 29.7385 32.5646 29.7385 32.9609V35.759H28.7546V30.3268H29.6975V31.7924L29.5438 31.403C29.7215 31.0476 29.9948 30.7709 30.3638 30.5727C30.7327 30.3746 31.1632 30.2755 31.6552 30.2755ZM38.109 37.809C37.6102 37.809 37.125 37.7372 36.6536 37.5937C36.1889 37.457 35.8097 37.2589 35.5159 36.9992L35.9873 36.2408C36.2402 36.4594 36.5511 36.6302 36.92 36.7532C37.289 36.8831 37.6751 36.948 38.0783 36.948C38.7206 36.948 39.192 36.7977 39.4927 36.497C39.7934 36.1963 39.9437 35.7385 39.9437 35.1236V33.9756L40.0462 32.8994L39.9949 31.8129V30.3268H40.9276V35.0211C40.9276 35.9777 40.6885 36.6815 40.2102 37.1325C39.7319 37.5835 39.0315 37.809 38.109 37.809ZM37.986 35.5335C37.4599 35.5335 36.9884 35.4242 36.5716 35.2056C36.1616 34.9801 35.8336 34.6692 35.5876 34.2728C35.3484 33.8765 35.2289 33.4187 35.2289 32.8994C35.2289 32.3733 35.3484 31.9154 35.5876 31.526C35.8336 31.1296 36.1616 30.8221 36.5716 30.6035C36.9884 30.3848 37.4599 30.2755 37.986 30.2755C38.4507 30.2755 38.8743 30.3712 39.257 30.5625C39.6396 30.747 39.9437 31.034 40.1692 31.4235C40.4015 31.8129 40.5177 32.3049 40.5177 32.8994C40.5177 33.487 40.4015 33.9756 40.1692 34.3651C39.9437 34.7546 39.6396 35.0484 39.257 35.2466C38.8743 35.4379 38.4507 35.5335 37.986 35.5335ZM38.0988 34.6726C38.4609 34.6726 38.7821 34.5974 39.0622 34.4471C39.3424 34.2968 39.561 34.0884 39.7182 33.8219C39.8822 33.5554 39.9642 33.2479 39.9642 32.8994C39.9642 32.5509 39.8822 32.2434 39.7182 31.9769C39.561 31.7104 39.3424 31.5055 39.0622 31.362C38.7821 31.2116 38.4609 31.1365 38.0988 31.1365C37.7366 31.1365 37.412 31.2116 37.125 31.362C36.8449 31.5055 36.6228 31.7104 36.4588 31.9769C36.3017 32.2434 36.2231 32.5509 36.2231 32.8994C36.2231 33.2479 36.3017 33.5554 36.4588 33.8219C36.6228 34.0884 36.8449 34.2968 37.125 34.4471C37.412 34.5974 37.7366 34.6726 38.0988 34.6726ZM43.0435 35.8205C42.8521 35.8205 42.6881 35.7556 42.5515 35.6258C42.4148 35.4891 42.3465 35.3183 42.3465 35.1133C42.3465 34.9083 42.4148 34.7409 42.5515 34.6111C42.6881 34.4813 42.8521 34.4163 43.0435 34.4163C43.2279 34.4163 43.3851 34.4813 43.5149 34.6111C43.6516 34.7409 43.7199 34.9083 43.7199 35.1133C43.7199 35.3183 43.6516 35.4891 43.5149 35.6258C43.3851 35.7556 43.2279 35.8205 43.0435 35.8205Z" fill="black"/>
</svg>
