<svg width="319" height="38" viewBox="0 0 319 38" fill="none" xmlns="http://www.w3.org/2000/svg">
<path d="M22.9475 14V5.096H19.5035V4.2H27.4275V5.096H23.9835V14H22.9475ZM33.0684 14V12.376L33.0264 12.11V9.394C33.0264 8.76867 32.8491 8.288 32.4944 7.952C32.1491 7.616 31.6311 7.448 30.9404 7.448C30.4644 7.448 30.0117 7.52733 29.5824 7.686C29.1531 7.84467 28.7891 8.05467 28.4904 8.316L28.0424 7.574C28.4157 7.25667 28.8637 7.014 29.3864 6.846C29.9091 6.66867 30.4597 6.58 31.0384 6.58C31.9904 6.58 32.7231 6.818 33.2364 7.294C33.7591 7.76067 34.0204 8.47467 34.0204 9.436V14H33.0684ZM30.5344 14.07C29.9837 14.07 29.5031 13.9813 29.0924 13.804C28.6911 13.6173 28.3831 13.3653 28.1684 13.048C27.9537 12.7213 27.8464 12.348 27.8464 11.928C27.8464 11.5453 27.9351 11.2 28.1124 10.892C28.2991 10.5747 28.5977 10.3227 29.0084 10.136C29.4284 9.94 29.9884 9.842 30.6884 9.842H33.2224V10.584H30.7164C30.0071 10.584 29.5124 10.71 29.2324 10.962C28.9617 11.214 28.8264 11.5267 28.8264 11.9C28.8264 12.32 28.9897 12.656 29.3164 12.908C29.6431 13.16 30.1004 13.286 30.6884 13.286C31.2484 13.286 31.7291 13.16 32.1304 12.908C32.5411 12.6467 32.8397 12.2733 33.0264 11.788L33.2504 12.474C33.0637 12.9593 32.7371 13.3467 32.2704 13.636C31.8131 13.9253 31.2344 14.07 30.5344 14.07ZM45.9042 6.58C46.5015 6.58 47.0195 6.69667 47.4582 6.93C47.9062 7.154 48.2515 7.49933 48.4942 7.966C48.7462 8.43267 48.8722 9.02067 48.8722 9.73V14H47.8782V9.828C47.8782 9.05333 47.6915 8.47 47.3182 8.078C46.9542 7.67667 46.4362 7.476 45.7642 7.476C45.2602 7.476 44.8215 7.58333 44.4482 7.798C44.0842 8.00333 43.7995 8.30667 43.5942 8.708C43.3982 9.1 43.3002 9.576 43.3002 10.136V14H42.3062V9.828C42.3062 9.05333 42.1195 8.47 41.7462 8.078C41.3729 7.67667 40.8502 7.476 40.1782 7.476C39.6835 7.476 39.2495 7.58333 38.8762 7.798C38.5029 8.00333 38.2135 8.30667 38.0082 8.708C37.8122 9.1 37.7142 9.576 37.7142 10.136V14H36.7202V6.65H37.6722V8.638L37.5182 8.288C37.7422 7.756 38.1015 7.34067 38.5962 7.042C39.1002 6.734 39.6929 6.58 40.3742 6.58C41.0929 6.58 41.7042 6.762 42.2082 7.126C42.7122 7.48067 43.0389 8.01733 43.1882 8.736L42.7962 8.582C43.0109 7.98467 43.3889 7.504 43.9302 7.14C44.4809 6.76667 45.1389 6.58 45.9042 6.58ZM55.3619 14.07C54.7272 14.07 54.1532 13.9253 53.6399 13.636C53.1265 13.3373 52.7159 12.9127 52.4079 12.362C52.1092 11.802 51.9599 11.1207 51.9599 10.318C51.9599 9.51533 52.1092 8.83867 52.4079 8.288C52.7065 7.728 53.1125 7.30333 53.6259 7.014C54.1392 6.72467 54.7179 6.58 55.3619 6.58C56.0619 6.58 56.6872 6.73867 57.2379 7.056C57.7979 7.364 58.2365 7.80267 58.5539 8.372C58.8712 8.932 59.0299 9.58067 59.0299 10.318C59.0299 11.0647 58.8712 11.718 58.5539 12.278C58.2365 12.838 57.7979 13.2767 57.2379 13.594C56.6872 13.9113 56.0619 14.07 55.3619 14.07ZM51.5679 16.716V6.65H52.5199V8.862L52.4219 10.332L52.5619 11.816V16.716H51.5679ZM55.2919 13.188C55.8145 13.188 56.2812 13.0713 56.6919 12.838C57.1025 12.5953 57.4292 12.2593 57.6719 11.83C57.9145 11.3913 58.0359 10.8873 58.0359 10.318C58.0359 9.74867 57.9145 9.24933 57.6719 8.82C57.4292 8.39067 57.1025 8.05467 56.6919 7.812C56.2812 7.56933 55.8145 7.448 55.2919 7.448C54.7692 7.448 54.2979 7.56933 53.8779 7.812C53.4672 8.05467 53.1405 8.39067 52.8979 8.82C52.6645 9.24933 52.5479 9.74867 52.5479 10.318C52.5479 10.8873 52.6645 11.3913 52.8979 11.83C53.1405 12.2593 53.4672 12.5953 53.8779 12.838C54.2979 13.0713 54.7692 13.188 55.2919 13.188ZM64.1782 14.07C63.4128 14.07 62.7408 13.9113 62.1622 13.594C61.5835 13.2673 61.1308 12.824 60.8042 12.264C60.4775 11.6947 60.3142 11.046 60.3142 10.318C60.3142 9.59 60.4682 8.946 60.7762 8.386C61.0935 7.826 61.5228 7.38733 62.0642 7.07C62.6148 6.74333 63.2308 6.58 63.9122 6.58C64.6028 6.58 65.2142 6.73867 65.7462 7.056C66.2875 7.364 66.7122 7.80267 67.0202 8.372C67.3282 8.932 67.4822 9.58067 67.4822 10.318C67.4822 10.3647 67.4775 10.416 67.4682 10.472C67.4682 10.5187 67.4682 10.57 67.4682 10.626H61.0702V9.884H66.9362L66.5442 10.178C66.5442 9.646 66.4275 9.17467 66.1942 8.764C65.9702 8.344 65.6622 8.01733 65.2702 7.784C64.8782 7.55067 64.4255 7.434 63.9122 7.434C63.4082 7.434 62.9555 7.55067 62.5542 7.784C62.1528 8.01733 61.8402 8.344 61.6162 8.764C61.3922 9.184 61.2802 9.66467 61.2802 10.206V10.36C61.2802 10.92 61.4015 11.4147 61.6442 11.844C61.8962 12.264 62.2415 12.5953 62.6802 12.838C63.1282 13.0713 63.6368 13.188 64.2062 13.188C64.6542 13.188 65.0695 13.1087 65.4522 12.95C65.8442 12.7913 66.1802 12.5487 66.4602 12.222L67.0202 12.866C66.6935 13.258 66.2828 13.5567 65.7882 13.762C65.3028 13.9673 64.7662 14.07 64.1782 14.07ZM69.5054 14V6.65H70.4574V8.652L70.3594 8.302C70.5647 7.742 70.91 7.31733 71.3954 7.028C71.8807 6.72933 72.4827 6.58 73.2014 6.58V7.546C73.164 7.546 73.1267 7.546 73.0894 7.546C73.052 7.53667 73.0147 7.532 72.9774 7.532C72.2027 7.532 71.596 7.77 71.1574 8.246C70.7187 8.71267 70.4994 9.38 70.4994 10.248V14H69.5054ZM74.4281 10.64V9.772H78.0961V10.64H74.4281ZM83.5785 14.07C82.8132 14.07 82.1412 13.9113 81.5625 13.594C80.9839 13.2673 80.5312 12.824 80.2045 12.264C79.8779 11.6947 79.7145 11.046 79.7145 10.318C79.7145 9.59 79.8685 8.946 80.1765 8.386C80.4939 7.826 80.9232 7.38733 81.4645 7.07C82.0152 6.74333 82.6312 6.58 83.3125 6.58C84.0032 6.58 84.6145 6.73867 85.1465 7.056C85.6879 7.364 86.1125 7.80267 86.4205 8.372C86.7285 8.932 86.8825 9.58067 86.8825 10.318C86.8825 10.3647 86.8779 10.416 86.8685 10.472C86.8685 10.5187 86.8685 10.57 86.8685 10.626H80.4705V9.884H86.3365L85.9445 10.178C85.9445 9.646 85.8279 9.17467 85.5945 8.764C85.3705 8.344 85.0625 8.01733 84.6705 7.784C84.2785 7.55067 83.8259 7.434 83.3125 7.434C82.8085 7.434 82.3559 7.55067 81.9545 7.784C81.5532 8.01733 81.2405 8.344 81.0165 8.764C80.7925 9.184 80.6805 9.66467 80.6805 10.206V10.36C80.6805 10.92 80.8019 11.4147 81.0445 11.844C81.2965 12.264 81.6419 12.5953 82.0805 12.838C82.5285 13.0713 83.0372 13.188 83.6065 13.188C84.0545 13.188 84.4699 13.1087 84.8525 12.95C85.2445 12.7913 85.5805 12.5487 85.8605 12.222L86.4205 12.866C86.0939 13.258 85.6832 13.5567 85.1885 13.762C84.7032 13.9673 84.1665 14.07 83.5785 14.07ZM90.659 14L87.397 6.65H88.433L91.429 13.468H90.939L93.977 6.65H94.957L91.681 14H90.659ZM96.3569 14V6.65H97.3509V14H96.3569ZM96.8609 5.026C96.6556 5.026 96.4829 4.956 96.3429 4.816C96.2029 4.676 96.1329 4.508 96.1329 4.312C96.1329 4.116 96.2029 3.95267 96.3429 3.822C96.4829 3.682 96.6556 3.612 96.8609 3.612C97.0663 3.612 97.2389 3.67733 97.3789 3.808C97.5189 3.93867 97.5889 4.102 97.5889 4.298C97.5889 4.50333 97.5189 4.676 97.3789 4.816C97.2483 4.956 97.0756 5.026 96.8609 5.026ZM103.043 14.07C102.343 14.07 101.713 13.9113 101.153 13.594C100.602 13.2767 100.168 12.838 99.8507 12.278C99.5334 11.7087 99.3747 11.0553 99.3747 10.318C99.3747 9.57133 99.5334 8.918 99.8507 8.358C100.168 7.798 100.602 7.364 101.153 7.056C101.713 6.73867 102.343 6.58 103.043 6.58C103.687 6.58 104.261 6.72467 104.765 7.014C105.278 7.30333 105.684 7.728 105.983 8.288C106.291 8.83867 106.445 9.51533 106.445 10.318C106.445 11.1113 106.295 11.788 105.997 12.348C105.698 12.908 105.292 13.3373 104.779 13.636C104.275 13.9253 103.696 14.07 103.043 14.07ZM103.113 13.188C103.635 13.188 104.102 13.0713 104.513 12.838C104.933 12.5953 105.259 12.2593 105.493 11.83C105.735 11.3913 105.857 10.8873 105.857 10.318C105.857 9.73933 105.735 9.23533 105.493 8.806C105.259 8.37667 104.933 8.04533 104.513 7.812C104.102 7.56933 103.635 7.448 103.113 7.448C102.599 7.448 102.137 7.56933 101.727 7.812C101.316 8.04533 100.989 8.37667 100.747 8.806C100.504 9.23533 100.383 9.73933 100.383 10.318C100.383 10.8873 100.504 11.3913 100.747 11.83C100.989 12.2593 101.316 12.5953 101.727 12.838C102.137 13.0713 102.599 13.188 103.113 13.188ZM105.885 14V11.788L105.983 10.304L105.843 8.82V3.612H106.837V14H105.885ZM112.727 14.07C111.962 14.07 111.29 13.9113 110.711 13.594C110.132 13.2673 109.68 12.824 109.353 12.264C109.026 11.6947 108.863 11.046 108.863 10.318C108.863 9.59 109.017 8.946 109.325 8.386C109.642 7.826 110.072 7.38733 110.613 7.07C111.164 6.74333 111.78 6.58 112.461 6.58C113.152 6.58 113.763 6.73867 114.295 7.056C114.836 7.364 115.261 7.80267 115.569 8.372C115.877 8.932 116.031 9.58067 116.031 10.318C116.031 10.3647 116.026 10.416 116.017 10.472C116.017 10.5187 116.017 10.57 116.017 10.626H109.619V9.884H115.485L115.093 10.178C115.093 9.646 114.976 9.17467 114.743 8.764C114.519 8.344 114.211 8.01733 113.819 7.784C113.427 7.55067 112.974 7.434 112.461 7.434C111.957 7.434 111.504 7.55067 111.103 7.784C110.702 8.01733 110.389 8.344 110.165 8.764C109.941 9.184 109.829 9.66467 109.829 10.206V10.36C109.829 10.92 109.95 11.4147 110.193 11.844C110.445 12.264 110.79 12.5953 111.229 12.838C111.677 13.0713 112.186 13.188 112.755 13.188C113.203 13.188 113.618 13.1087 114.001 12.95C114.393 12.7913 114.729 12.5487 115.009 12.222L115.569 12.866C115.242 13.258 114.832 13.5567 114.337 13.762C113.852 13.9673 113.315 14.07 112.727 14.07ZM121.806 6.58C122.404 6.58 122.926 6.69667 123.374 6.93C123.832 7.154 124.186 7.49933 124.438 7.966C124.7 8.43267 124.83 9.02067 124.83 9.73V14H123.836V9.828C123.836 9.05333 123.64 8.47 123.248 8.078C122.866 7.67667 122.324 7.476 121.624 7.476C121.102 7.476 120.644 7.58333 120.252 7.798C119.87 8.00333 119.571 8.30667 119.356 8.708C119.151 9.1 119.048 9.576 119.048 10.136V14H118.054V6.65H119.006V8.666L118.852 8.288C119.086 7.756 119.459 7.34067 119.972 7.042C120.486 6.734 121.097 6.58 121.806 6.58ZM129.839 14.07C129.148 14.07 128.616 13.8833 128.243 13.51C127.87 13.1367 127.683 12.6093 127.683 11.928V5.026H128.677V11.872C128.677 12.3013 128.784 12.6327 128.999 12.866C129.223 13.0993 129.54 13.216 129.951 13.216C130.39 13.216 130.754 13.09 131.043 12.838L131.393 13.552C131.197 13.7293 130.959 13.86 130.679 13.944C130.408 14.028 130.128 14.07 129.839 14.07ZM126.367 7.476V6.65H130.917V7.476H126.367ZM140.661 14.07C140.017 14.07 139.438 13.9253 138.925 13.636C138.411 13.3373 138.005 12.908 137.707 12.348C137.408 11.788 137.259 11.1113 137.259 10.318C137.259 9.51533 137.408 8.83867 137.707 8.288C138.015 7.728 138.425 7.30333 138.939 7.014C139.452 6.72467 140.026 6.58 140.661 6.58C141.361 6.58 141.986 6.73867 142.537 7.056C143.097 7.364 143.535 7.798 143.853 8.358C144.17 8.918 144.329 9.57133 144.329 10.318C144.329 11.0553 144.17 11.7087 143.853 12.278C143.535 12.838 143.097 13.2767 142.537 13.594C141.986 13.9113 141.361 14.07 140.661 14.07ZM136.867 14V3.612H137.861V8.82L137.721 10.304L137.819 11.788V14H136.867ZM140.591 13.188C141.113 13.188 141.58 13.0713 141.991 12.838C142.401 12.5953 142.728 12.2593 142.971 11.83C143.213 11.3913 143.335 10.8873 143.335 10.318C143.335 9.73933 143.213 9.23533 142.971 8.806C142.728 8.37667 142.401 8.04533 141.991 7.812C141.58 7.56933 141.113 7.448 140.591 7.448C140.068 7.448 139.597 7.56933 139.177 7.812C138.766 8.04533 138.439 8.37667 138.197 8.806C137.963 9.23533 137.847 9.73933 137.847 10.318C137.847 10.8873 137.963 11.3913 138.197 11.83C138.439 12.2593 138.766 12.5953 139.177 12.838C139.597 13.0713 140.068 13.188 140.591 13.188ZM149.351 14.07C148.642 14.07 148.002 13.9113 147.433 13.594C146.873 13.2673 146.43 12.824 146.103 12.264C145.776 11.6947 145.613 11.046 145.613 10.318C145.613 9.58067 145.776 8.932 146.103 8.372C146.43 7.812 146.873 7.37333 147.433 7.056C147.993 6.73867 148.632 6.58 149.351 6.58C150.079 6.58 150.723 6.73867 151.283 7.056C151.852 7.37333 152.296 7.812 152.613 8.372C152.94 8.932 153.103 9.58067 153.103 10.318C153.103 11.046 152.94 11.6947 152.613 12.264C152.296 12.824 151.852 13.2673 151.283 13.594C150.714 13.9113 150.07 14.07 149.351 14.07ZM149.351 13.188C149.883 13.188 150.354 13.0713 150.765 12.838C151.176 12.5953 151.498 12.2593 151.731 11.83C151.974 11.3913 152.095 10.8873 152.095 10.318C152.095 9.73933 151.974 9.23533 151.731 8.806C151.498 8.37667 151.176 8.04533 150.765 7.812C150.354 7.56933 149.888 7.448 149.365 7.448C148.842 7.448 148.376 7.56933 147.965 7.812C147.554 8.04533 147.228 8.37667 146.985 8.806C146.742 9.23533 146.621 9.73933 146.621 10.318C146.621 10.8873 146.742 11.3913 146.985 11.83C147.228 12.2593 147.554 12.5953 147.965 12.838C148.376 13.0713 148.838 13.188 149.351 13.188ZM153.753 14L156.861 9.968L156.847 10.458L153.893 6.65H155.013L157.435 9.8L157.015 9.786L159.437 6.65H160.529L157.547 10.5L157.561 9.968L160.697 14H159.563L157.001 10.64L157.393 10.696L154.873 14H153.753ZM166.183 14V5.726C166.183 5.07267 166.374 4.54533 166.757 4.144C167.14 3.74267 167.69 3.542 168.409 3.542C168.689 3.542 168.96 3.57933 169.221 3.654C169.482 3.72867 169.702 3.84533 169.879 4.004L169.543 4.746C169.403 4.62467 169.24 4.536 169.053 4.48C168.866 4.41467 168.666 4.382 168.451 4.382C168.031 4.382 167.709 4.49867 167.485 4.732C167.261 4.96533 167.149 5.31067 167.149 5.768V6.888L167.177 7.35V14H166.183ZM164.867 7.476V6.65H169.417V7.476H164.867ZM173.632 14.07C172.923 14.07 172.284 13.9113 171.714 13.594C171.154 13.2673 170.711 12.824 170.384 12.264C170.058 11.6947 169.894 11.046 169.894 10.318C169.894 9.58067 170.058 8.932 170.384 8.372C170.711 7.812 171.154 7.37333 171.714 7.056C172.274 6.73867 172.914 6.58 173.632 6.58C174.36 6.58 175.004 6.73867 175.564 7.056C176.134 7.37333 176.577 7.812 176.894 8.372C177.221 8.932 177.384 9.58067 177.384 10.318C177.384 11.046 177.221 11.6947 176.894 12.264C176.577 12.824 176.134 13.2673 175.564 13.594C174.995 13.9113 174.351 14.07 173.632 14.07ZM173.632 13.188C174.164 13.188 174.636 13.0713 175.046 12.838C175.457 12.5953 175.779 12.2593 176.012 11.83C176.255 11.3913 176.376 10.8873 176.376 10.318C176.376 9.73933 176.255 9.23533 176.012 8.806C175.779 8.37667 175.457 8.04533 175.046 7.812C174.636 7.56933 174.169 7.448 173.646 7.448C173.124 7.448 172.657 7.56933 172.246 7.812C171.836 8.04533 171.509 8.37667 171.266 8.806C171.024 9.23533 170.902 9.73933 170.902 10.318C170.902 10.8873 171.024 11.3913 171.266 11.83C171.509 12.2593 171.836 12.5953 172.246 12.838C172.657 13.0713 173.119 13.188 173.632 13.188ZM179.414 14V6.65H180.366V8.652L180.268 8.302C180.473 7.742 180.818 7.31733 181.304 7.028C181.789 6.72933 182.391 6.58 183.11 6.58V7.546C183.072 7.546 183.035 7.546 182.998 7.546C182.96 7.53667 182.923 7.532 182.886 7.532C182.111 7.532 181.504 7.77 181.066 8.246C180.627 8.71267 180.408 9.38 180.408 10.248V14H179.414ZM190.713 14.084C190.097 14.084 189.509 14 188.949 13.832C188.398 13.664 187.964 13.4587 187.647 13.216L188.207 12.152C188.524 12.3667 188.916 12.5487 189.383 12.698C189.849 12.8473 190.325 12.922 190.811 12.922C191.436 12.922 191.884 12.8333 192.155 12.656C192.435 12.4787 192.575 12.2313 192.575 11.914C192.575 11.6807 192.491 11.4987 192.323 11.368C192.155 11.2373 191.931 11.1393 191.651 11.074C191.38 11.0087 191.077 10.9527 190.741 10.906C190.405 10.85 190.069 10.7847 189.733 10.71C189.397 10.626 189.089 10.514 188.809 10.374C188.529 10.2247 188.305 10.024 188.137 9.772C187.969 9.51067 187.885 9.16533 187.885 8.736C187.885 8.288 188.011 7.896 188.263 7.56C188.515 7.224 188.869 6.96733 189.327 6.79C189.793 6.60333 190.344 6.51 190.979 6.51C191.464 6.51 191.954 6.57067 192.449 6.692C192.953 6.804 193.363 6.96733 193.681 7.182L193.107 8.246C192.771 8.022 192.421 7.868 192.057 7.784C191.693 7.7 191.329 7.658 190.965 7.658C190.377 7.658 189.938 7.756 189.649 7.952C189.359 8.13867 189.215 8.38133 189.215 8.68C189.215 8.932 189.299 9.128 189.467 9.268C189.644 9.39867 189.868 9.50133 190.139 9.576C190.419 9.65067 190.727 9.716 191.063 9.772C191.399 9.81867 191.735 9.884 192.071 9.968C192.407 10.0427 192.71 10.15 192.981 10.29C193.261 10.43 193.485 10.626 193.653 10.878C193.83 11.13 193.919 11.466 193.919 11.886C193.919 12.334 193.788 12.7213 193.527 13.048C193.265 13.3747 192.897 13.6313 192.421 13.818C191.945 13.9953 191.375 14.084 190.713 14.084ZM198.902 14.084C198.109 14.084 197.409 13.9207 196.802 13.594C196.205 13.2673 195.738 12.8193 195.402 12.25C195.076 11.6807 194.912 11.0273 194.912 10.29C194.912 9.55267 195.071 8.89933 195.388 8.33C195.715 7.76067 196.158 7.31733 196.718 7C197.288 6.67333 197.927 6.51 198.636 6.51C199.355 6.51 199.99 6.66867 200.54 6.986C201.091 7.30333 201.52 7.75133 201.828 8.33C202.146 8.89933 202.304 9.56667 202.304 10.332C202.304 10.388 202.3 10.4533 202.29 10.528C202.29 10.6027 202.286 10.6727 202.276 10.738H195.962V9.772H201.576L201.03 10.108C201.04 9.632 200.942 9.20733 200.736 8.834C200.531 8.46067 200.246 8.17133 199.882 7.966C199.528 7.75133 199.112 7.644 198.636 7.644C198.17 7.644 197.754 7.75133 197.39 7.966C197.026 8.17133 196.742 8.46533 196.536 8.848C196.331 9.22133 196.228 9.65067 196.228 10.136V10.36C196.228 10.8547 196.34 11.298 196.564 11.69C196.798 12.0727 197.12 12.3713 197.53 12.586C197.941 12.8007 198.412 12.908 198.944 12.908C199.383 12.908 199.78 12.8333 200.134 12.684C200.498 12.5347 200.816 12.3107 201.086 12.012L201.828 12.88C201.492 13.272 201.072 13.5707 200.568 13.776C200.074 13.9813 199.518 14.084 198.902 14.084ZM207.405 14.084C206.649 14.084 205.972 13.9207 205.375 13.594C204.787 13.2673 204.325 12.8193 203.989 12.25C203.653 11.6807 203.485 11.0273 203.485 10.29C203.485 9.55267 203.653 8.89933 203.989 8.33C204.325 7.76067 204.787 7.31733 205.375 7C205.972 6.67333 206.649 6.51 207.405 6.51C208.077 6.51 208.674 6.64533 209.197 6.916C209.729 7.17733 210.139 7.56933 210.429 8.092L209.407 8.75C209.164 8.386 208.865 8.12 208.511 7.952C208.165 7.77467 207.792 7.686 207.391 7.686C206.905 7.686 206.471 7.79333 206.089 8.008C205.706 8.22267 205.403 8.526 205.179 8.918C204.955 9.30067 204.843 9.758 204.843 10.29C204.843 10.822 204.955 11.284 205.179 11.676C205.403 12.068 205.706 12.3713 206.089 12.586C206.471 12.8007 206.905 12.908 207.391 12.908C207.792 12.908 208.165 12.824 208.511 12.656C208.865 12.4787 209.164 12.208 209.407 11.844L210.429 12.488C210.139 13.0013 209.729 13.398 209.197 13.678C208.674 13.9487 208.077 14.084 207.405 14.084ZM215.291 14.084C214.656 14.084 214.096 13.9673 213.611 13.734C213.135 13.5007 212.761 13.146 212.491 12.67C212.229 12.1847 212.099 11.578 212.099 10.85V6.58H213.443V10.696C213.443 11.424 213.615 11.97 213.961 12.334C214.315 12.698 214.81 12.88 215.445 12.88C215.911 12.88 216.317 12.7867 216.663 12.6C217.008 12.404 217.274 12.124 217.461 11.76C217.647 11.3867 217.741 10.9387 217.741 10.416V6.58H219.085V14H217.811V11.998L218.021 12.53C217.778 13.0247 217.414 13.4073 216.929 13.678C216.443 13.9487 215.897 14.084 215.291 14.084ZM221.643 14V6.58H222.931V8.596L222.805 8.092C223.011 7.57867 223.356 7.18667 223.841 6.916C224.327 6.64533 224.924 6.51 225.633 6.51V7.812C225.577 7.80267 225.521 7.798 225.465 7.798C225.419 7.798 225.372 7.798 225.325 7.798C224.607 7.798 224.037 8.01267 223.617 8.442C223.197 8.87133 222.987 9.492 222.987 10.304V14H221.643ZM230.525 14.084C229.732 14.084 229.032 13.9207 228.425 13.594C227.828 13.2673 227.361 12.8193 227.025 12.25C226.699 11.6807 226.535 11.0273 226.535 10.29C226.535 9.55267 226.694 8.89933 227.011 8.33C227.338 7.76067 227.781 7.31733 228.341 7C228.911 6.67333 229.55 6.51 230.259 6.51C230.978 6.51 231.613 6.66867 232.163 6.986C232.714 7.30333 233.143 7.75133 233.451 8.33C233.769 8.89933 233.927 9.56667 233.927 10.332C233.927 10.388 233.923 10.4533 233.913 10.528C233.913 10.6027 233.909 10.6727 233.899 10.738H227.585V9.772H233.199L232.653 10.108C232.663 9.632 232.565 9.20733 232.359 8.834C232.154 8.46067 231.869 8.17133 231.505 7.966C231.151 7.75133 230.735 7.644 230.259 7.644C229.793 7.644 229.377 7.75133 229.013 7.966C228.649 8.17133 228.365 8.46533 228.159 8.848C227.954 9.22133 227.851 9.65067 227.851 10.136V10.36C227.851 10.8547 227.963 11.298 228.187 11.69C228.421 12.0727 228.743 12.3713 229.153 12.586C229.564 12.8007 230.035 12.908 230.567 12.908C231.006 12.908 231.403 12.8333 231.757 12.684C232.121 12.5347 232.439 12.3107 232.709 12.012L233.451 12.88C233.115 13.272 232.695 13.5707 232.191 13.776C231.697 13.9813 231.141 14.084 230.525 14.084ZM248.836 6.51C249.433 6.51 249.96 6.62667 250.418 6.86C250.875 7.09333 251.23 7.448 251.482 7.924C251.743 8.4 251.874 9.002 251.874 9.73V14H250.53V9.884C250.53 9.16533 250.362 8.624 250.026 8.26C249.69 7.896 249.218 7.714 248.612 7.714C248.164 7.714 247.772 7.80733 247.436 7.994C247.1 8.18067 246.838 8.456 246.652 8.82C246.474 9.184 246.386 9.63667 246.386 10.178V14H245.042V9.884C245.042 9.16533 244.874 8.624 244.538 8.26C244.211 7.896 243.74 7.714 243.124 7.714C242.685 7.714 242.298 7.80733 241.962 7.994C241.626 8.18067 241.364 8.456 241.178 8.82C240.991 9.184 240.898 9.63667 240.898 10.178V14H239.554V6.58H240.842V8.554L240.632 8.05C240.865 7.56467 241.224 7.18667 241.71 6.916C242.195 6.64533 242.76 6.51 243.404 6.51C244.113 6.51 244.724 6.68733 245.238 7.042C245.751 7.38733 246.087 7.91467 246.246 8.624L245.7 8.4C245.924 7.83067 246.316 7.37333 246.876 7.028C247.436 6.68267 248.089 6.51 248.836 6.51ZM254.346 14V6.58H255.69V14H254.346ZM255.018 5.152C254.757 5.152 254.538 5.068 254.36 4.9C254.192 4.732 254.108 4.52667 254.108 4.284C254.108 4.032 254.192 3.822 254.36 3.654C254.538 3.486 254.757 3.402 255.018 3.402C255.28 3.402 255.494 3.486 255.662 3.654C255.84 3.81267 255.928 4.01333 255.928 4.256C255.928 4.508 255.844 4.72267 255.676 4.9C255.508 5.068 255.289 5.152 255.018 5.152ZM261.323 14.084C260.604 14.084 259.96 13.9253 259.391 13.608C258.831 13.2907 258.387 12.8473 258.061 12.278C257.734 11.7087 257.571 11.046 257.571 10.29C257.571 9.534 257.734 8.876 258.061 8.316C258.387 7.74667 258.831 7.30333 259.391 6.986C259.96 6.66867 260.604 6.51 261.323 6.51C261.948 6.51 262.513 6.65 263.017 6.93C263.521 7.21 263.922 7.63 264.221 8.19C264.529 8.75 264.683 9.45 264.683 10.29C264.683 11.13 264.533 11.83 264.235 12.39C263.945 12.95 263.549 13.3747 263.045 13.664C262.541 13.944 261.967 14.084 261.323 14.084ZM261.435 12.908C261.901 12.908 262.321 12.8007 262.695 12.586C263.077 12.3713 263.376 12.068 263.591 11.676C263.815 11.2747 263.927 10.8127 263.927 10.29C263.927 9.758 263.815 9.30067 263.591 8.918C263.376 8.526 263.077 8.22267 262.695 8.008C262.321 7.79333 261.901 7.686 261.435 7.686C260.959 7.686 260.534 7.79333 260.161 8.008C259.787 8.22267 259.489 8.526 259.265 8.918C259.041 9.30067 258.929 9.758 258.929 10.29C258.929 10.8127 259.041 11.2747 259.265 11.676C259.489 12.068 259.787 12.3713 260.161 12.586C260.534 12.8007 260.959 12.908 261.435 12.908ZM263.969 14V11.998L264.053 10.276L263.913 8.554V3.612H265.257V14H263.969ZM267.324 10.738V9.576H271.09V10.738H267.324ZM275.287 14.084C274.671 14.084 274.083 14 273.523 13.832C272.972 13.664 272.538 13.4587 272.221 13.216L272.781 12.152C273.098 12.3667 273.49 12.5487 273.957 12.698C274.424 12.8473 274.9 12.922 275.385 12.922C276.01 12.922 276.458 12.8333 276.729 12.656C277.009 12.4787 277.149 12.2313 277.149 11.914C277.149 11.6807 277.065 11.4987 276.897 11.368C276.729 11.2373 276.505 11.1393 276.225 11.074C275.954 11.0087 275.651 10.9527 275.315 10.906C274.979 10.85 274.643 10.7847 274.307 10.71C273.971 10.626 273.663 10.514 273.383 10.374C273.103 10.2247 272.879 10.024 272.711 9.772C272.543 9.51067 272.459 9.16533 272.459 8.736C272.459 8.288 272.585 7.896 272.837 7.56C273.089 7.224 273.444 6.96733 273.901 6.79C274.368 6.60333 274.918 6.51 275.553 6.51C276.038 6.51 276.528 6.57067 277.023 6.692C277.527 6.804 277.938 6.96733 278.255 7.182L277.681 8.246C277.345 8.022 276.995 7.868 276.631 7.784C276.267 7.7 275.903 7.658 275.539 7.658C274.951 7.658 274.512 7.756 274.223 7.952C273.934 8.13867 273.789 8.38133 273.789 8.68C273.789 8.932 273.873 9.128 274.041 9.268C274.218 9.39867 274.442 9.50133 274.713 9.576C274.993 9.65067 275.301 9.716 275.637 9.772C275.973 9.81867 276.309 9.884 276.645 9.968C276.981 10.0427 277.284 10.15 277.555 10.29C277.835 10.43 278.059 10.626 278.227 10.878C278.404 11.13 278.493 11.466 278.493 11.886C278.493 12.334 278.362 12.7213 278.101 13.048C277.84 13.3747 277.471 13.6313 276.995 13.818C276.519 13.9953 275.95 14.084 275.287 14.084ZM280.173 14V6.58H281.517V14H280.173ZM280.845 5.152C280.583 5.152 280.364 5.068 280.187 4.9C280.019 4.732 279.935 4.52667 279.935 4.284C279.935 4.032 280.019 3.822 280.187 3.654C280.364 3.486 280.583 3.402 280.845 3.402C281.106 3.402 281.321 3.486 281.489 3.654C281.666 3.81267 281.755 4.01333 281.755 4.256C281.755 4.508 281.671 4.72267 281.503 4.9C281.335 5.068 281.115 5.152 280.845 5.152ZM283.369 14V13.132L288.129 7.224L288.395 7.686H283.453V6.58H289.473V7.462L284.713 13.356L284.405 12.894H289.585V14H283.369ZM294.578 14.084C293.785 14.084 293.085 13.9207 292.478 13.594C291.881 13.2673 291.414 12.8193 291.078 12.25C290.752 11.6807 290.588 11.0273 290.588 10.29C290.588 9.55267 290.747 8.89933 291.064 8.33C291.391 7.76067 291.834 7.31733 292.394 7C292.964 6.67333 293.603 6.51 294.312 6.51C295.031 6.51 295.666 6.66867 296.216 6.986C296.767 7.30333 297.196 7.75133 297.504 8.33C297.822 8.89933 297.98 9.56667 297.98 10.332C297.98 10.388 297.976 10.4533 297.966 10.528C297.966 10.6027 297.962 10.6727 297.952 10.738H291.638V9.772H297.252L296.706 10.108C296.716 9.632 296.618 9.20733 296.412 8.834C296.207 8.46067 295.922 8.17133 295.558 7.966C295.204 7.75133 294.788 7.644 294.312 7.644C293.846 7.644 293.43 7.75133 293.066 7.966C292.702 8.17133 292.418 8.46533 292.212 8.848C292.007 9.22133 291.904 9.65067 291.904 10.136V10.36C291.904 10.8547 292.016 11.298 292.24 11.69C292.474 12.0727 292.796 12.3713 293.206 12.586C293.617 12.8007 294.088 12.908 294.62 12.908C295.059 12.908 295.456 12.8333 295.81 12.684C296.174 12.5347 296.492 12.3107 296.762 12.012L297.504 12.88C297.168 13.272 296.748 13.5707 296.244 13.776C295.75 13.9813 295.194 14.084 294.578 14.084ZM56.1965 33.084C55.5805 33.084 55.0158 32.944 54.5025 32.664C53.9985 32.3747 53.5925 31.95 53.2845 31.39C52.9858 30.83 52.8365 30.13 52.8365 29.29C52.8365 28.45 52.9812 27.75 53.2705 27.19C53.5692 26.63 53.9705 26.21 54.4745 25.93C54.9878 25.65 55.5618 25.51 56.1965 25.51C56.9245 25.51 57.5685 25.6687 58.1285 25.986C58.6885 26.3033 59.1318 26.7467 59.4585 27.316C59.7852 27.876 59.9485 28.534 59.9485 29.29C59.9485 30.046 59.7852 30.7087 59.4585 31.278C59.1318 31.8473 58.6885 32.2907 58.1285 32.608C57.5685 32.9253 56.9245 33.084 56.1965 33.084ZM52.2625 35.716V25.58H53.5505V27.582L53.4665 29.304L53.6065 31.026V35.716H52.2625ZM56.0845 31.908C56.5605 31.908 56.9852 31.8007 57.3585 31.586C57.7412 31.3713 58.0398 31.068 58.2545 30.676C58.4785 30.2747 58.5905 29.8127 58.5905 29.29C58.5905 28.758 58.4785 28.3007 58.2545 27.918C58.0398 27.526 57.7412 27.2227 57.3585 27.008C56.9852 26.7933 56.5605 26.686 56.0845 26.686C55.6178 26.686 55.1932 26.7933 54.8105 27.008C54.4372 27.2227 54.1385 27.526 53.9145 27.918C53.6998 28.3007 53.5925 28.758 53.5925 29.29C53.5925 29.8127 53.6998 30.2747 53.9145 30.676C54.1385 31.068 54.4372 31.3713 54.8105 31.586C55.1932 31.8007 55.6178 31.908 56.0845 31.908ZM66.3431 33V31.432L66.2731 31.138V28.464C66.2731 27.8947 66.1051 27.456 65.7691 27.148C65.4425 26.8307 64.9478 26.672 64.2851 26.672C63.8465 26.672 63.4171 26.7467 62.9971 26.896C62.5771 27.036 62.2225 27.2273 61.9331 27.47L61.3731 26.462C61.7558 26.154 62.2131 25.9207 62.7451 25.762C63.2865 25.594 63.8511 25.51 64.4391 25.51C65.4565 25.51 66.2405 25.7573 66.7911 26.252C67.3418 26.7467 67.6171 27.5027 67.6171 28.52V33H66.3431ZM63.9071 33.084C63.3565 33.084 62.8711 32.9907 62.4511 32.804C62.0405 32.6173 61.7231 32.3607 61.4991 32.034C61.2751 31.698 61.1631 31.32 61.1631 30.9C61.1631 30.4987 61.2565 30.1347 61.4431 29.808C61.6391 29.4813 61.9518 29.22 62.3811 29.024C62.8198 28.828 63.4078 28.73 64.1451 28.73H66.4971V29.696H64.2011C63.5291 29.696 63.0765 29.808 62.8431 30.032C62.6098 30.256 62.4931 30.5267 62.4931 30.844C62.4931 31.208 62.6378 31.502 62.9271 31.726C63.2165 31.9407 63.6178 32.048 64.1311 32.048C64.6351 32.048 65.0738 31.936 65.4471 31.712C65.8298 31.488 66.1051 31.1613 66.2731 30.732L66.5391 31.656C66.3618 32.0947 66.0491 32.4447 65.6011 32.706C65.1531 32.958 64.5885 33.084 63.9071 33.084ZM73.3383 33.084C72.5823 33.084 71.9056 32.9207 71.3083 32.594C70.7203 32.2673 70.2583 31.8193 69.9223 31.25C69.5863 30.6807 69.4183 30.0273 69.4183 29.29C69.4183 28.5527 69.5863 27.8993 69.9223 27.33C70.2583 26.7607 70.7203 26.3173 71.3083 26C71.9056 25.6733 72.5823 25.51 73.3383 25.51C74.0103 25.51 74.6076 25.6453 75.1303 25.916C75.6623 26.1773 76.073 26.5693 76.3623 27.092L75.3403 27.75C75.0976 27.386 74.799 27.12 74.4443 26.952C74.099 26.7747 73.7256 26.686 73.3243 26.686C72.839 26.686 72.405 26.7933 72.0223 27.008C71.6396 27.2227 71.3363 27.526 71.1123 27.918C70.8883 28.3007 70.7763 28.758 70.7763 29.29C70.7763 29.822 70.8883 30.284 71.1123 30.676C71.3363 31.068 71.6396 31.3713 72.0223 31.586C72.405 31.8007 72.839 31.908 73.3243 31.908C73.7256 31.908 74.099 31.824 74.4443 31.656C74.799 31.4787 75.0976 31.208 75.3403 30.844L76.3623 31.488C76.073 32.0013 75.6623 32.398 75.1303 32.678C74.6076 32.9487 74.0103 33.084 73.3383 33.084ZM79.0987 31.208L79.1267 29.486L83.3967 25.58H85.0207L81.7447 28.8L81.0167 29.416L79.0987 31.208ZM78.0067 33V22.612H79.3507V33H78.0067ZM83.6767 33L80.7647 29.388L81.6327 28.31L85.3287 33H83.6767ZM91.1029 33V31.432L91.0329 31.138V28.464C91.0329 27.8947 90.8649 27.456 90.5289 27.148C90.2022 26.8307 89.7076 26.672 89.0449 26.672C88.6062 26.672 88.1769 26.7467 87.7569 26.896C87.3369 27.036 86.9822 27.2273 86.6929 27.47L86.1329 26.462C86.5156 26.154 86.9729 25.9207 87.5049 25.762C88.0462 25.594 88.6109 25.51 89.1989 25.51C90.2162 25.51 91.0002 25.7573 91.5509 26.252C92.1016 26.7467 92.3769 27.5027 92.3769 28.52V33H91.1029ZM88.6669 33.084C88.1162 33.084 87.6309 32.9907 87.2109 32.804C86.8002 32.6173 86.4829 32.3607 86.2589 32.034C86.0349 31.698 85.9229 31.32 85.9229 30.9C85.9229 30.4987 86.0162 30.1347 86.2029 29.808C86.3989 29.4813 86.7116 29.22 87.1409 29.024C87.5796 28.828 88.1676 28.73 88.9049 28.73H91.2569V29.696H88.9609C88.2889 29.696 87.8362 29.808 87.6029 30.032C87.3696 30.256 87.2529 30.5267 87.2529 30.844C87.2529 31.208 87.3976 31.502 87.6869 31.726C87.9762 31.9407 88.3776 32.048 88.8909 32.048C89.3949 32.048 89.8336 31.936 90.2069 31.712C90.5896 31.488 90.8649 31.1613 91.0329 30.732L91.2989 31.656C91.1216 32.0947 90.8089 32.4447 90.3609 32.706C89.9129 32.958 89.3482 33.084 88.6669 33.084ZM98.1121 35.8C97.4307 35.8 96.7681 35.702 96.1241 35.506C95.4894 35.3193 94.9714 35.0487 94.5701 34.694L95.2141 33.658C95.5594 33.9567 95.9841 34.19 96.4881 34.358C96.9921 34.5353 97.5194 34.624 98.0701 34.624C98.9474 34.624 99.5914 34.4187 100.002 34.008C100.413 33.5973 100.618 32.972 100.618 32.132V30.564L100.758 29.094L100.688 27.61V25.58H101.962V31.992C101.962 33.2987 101.635 34.26 100.982 34.876C100.329 35.492 99.3721 35.8 98.1121 35.8ZM97.9441 32.692C97.2254 32.692 96.5814 32.5427 96.0121 32.244C95.4521 31.936 95.0041 31.5113 94.6681 30.97C94.3414 30.4287 94.1781 29.8033 94.1781 29.094C94.1781 28.3753 94.3414 27.75 94.6681 27.218C95.0041 26.6767 95.4521 26.2567 96.0121 25.958C96.5814 25.6593 97.2254 25.51 97.9441 25.51C98.5787 25.51 99.1574 25.6407 99.6801 25.902C100.203 26.154 100.618 26.546 100.926 27.078C101.243 27.61 101.402 28.282 101.402 29.094C101.402 29.8967 101.243 30.564 100.926 31.096C100.618 31.628 100.203 32.0293 99.6801 32.3C99.1574 32.5613 98.5787 32.692 97.9441 32.692ZM98.0981 31.516C98.5927 31.516 99.0314 31.4133 99.4141 31.208C99.7967 31.0027 100.095 30.718 100.31 30.354C100.534 29.99 100.646 29.57 100.646 29.094C100.646 28.618 100.534 28.198 100.31 27.834C100.095 27.47 99.7967 27.19 99.4141 26.994C99.0314 26.7887 98.5927 26.686 98.0981 26.686C97.6034 26.686 97.1601 26.7887 96.7681 26.994C96.3854 27.19 96.0821 27.47 95.8581 27.834C95.6434 28.198 95.5361 28.618 95.5361 29.094C95.5361 29.57 95.6434 29.99 95.8581 30.354C96.0821 30.718 96.3854 31.0027 96.7681 31.208C97.1601 31.4133 97.6034 31.516 98.0981 31.516ZM104.53 33V25.58H105.874V33H104.53ZM105.202 24.152C104.941 24.152 104.721 24.068 104.544 23.9C104.376 23.732 104.292 23.5267 104.292 23.284C104.292 23.032 104.376 22.822 104.544 22.654C104.721 22.486 104.941 22.402 105.202 22.402C105.463 22.402 105.678 22.486 105.846 22.654C106.023 22.8127 106.112 23.0133 106.112 23.256C106.112 23.508 106.028 23.7227 105.86 23.9C105.692 24.068 105.473 24.152 105.202 24.152ZM112.402 25.51C113.009 25.51 113.541 25.6267 113.998 25.86C114.465 26.0933 114.829 26.448 115.09 26.924C115.352 27.4 115.482 28.002 115.482 28.73V33H114.138V28.884C114.138 28.1653 113.961 27.624 113.606 27.26C113.261 26.896 112.771 26.714 112.136 26.714C111.66 26.714 111.245 26.8073 110.89 26.994C110.536 27.1807 110.26 27.456 110.064 27.82C109.878 28.184 109.784 28.6367 109.784 29.178V33H108.44V25.58H109.728V27.582L109.518 27.05C109.761 26.5647 110.134 26.1867 110.638 25.916C111.142 25.6453 111.73 25.51 112.402 25.51ZM121.218 35.8C120.536 35.8 119.874 35.702 119.23 35.506C118.595 35.3193 118.077 35.0487 117.676 34.694L118.32 33.658C118.665 33.9567 119.09 34.19 119.594 34.358C120.098 34.5353 120.625 34.624 121.176 34.624C122.053 34.624 122.697 34.4187 123.108 34.008C123.518 33.5973 123.724 32.972 123.724 32.132V30.564L123.864 29.094L123.794 27.61V25.58H125.068V31.992C125.068 33.2987 124.741 34.26 124.088 34.876C123.434 35.492 122.478 35.8 121.218 35.8ZM121.05 32.692C120.331 32.692 119.687 32.5427 119.118 32.244C118.558 31.936 118.11 31.5113 117.774 30.97C117.447 30.4287 117.284 29.8033 117.284 29.094C117.284 28.3753 117.447 27.75 117.774 27.218C118.11 26.6767 118.558 26.2567 119.118 25.958C119.687 25.6593 120.331 25.51 121.05 25.51C121.684 25.51 122.263 25.6407 122.786 25.902C123.308 26.154 123.724 26.546 124.032 27.078C124.349 27.61 124.508 28.282 124.508 29.094C124.508 29.8967 124.349 30.564 124.032 31.096C123.724 31.628 123.308 32.0293 122.786 32.3C122.263 32.5613 121.684 32.692 121.05 32.692ZM121.204 31.516C121.698 31.516 122.137 31.4133 122.52 31.208C122.902 31.0027 123.201 30.718 123.416 30.354C123.64 29.99 123.752 29.57 123.752 29.094C123.752 28.618 123.64 28.198 123.416 27.834C123.201 27.47 122.902 27.19 122.52 26.994C122.137 26.7887 121.698 26.686 121.204 26.686C120.709 26.686 120.266 26.7887 119.874 26.994C119.491 27.19 119.188 27.47 118.964 27.834C118.749 28.198 118.642 28.618 118.642 29.094C118.642 29.57 118.749 29.99 118.964 30.354C119.188 30.718 119.491 31.0027 119.874 31.208C120.266 31.4133 120.709 31.516 121.204 31.516ZM132.963 33L130.205 25.58H131.479L133.929 32.3H133.327L135.875 25.58H137.009L139.501 32.3H138.913L141.419 25.58H142.623L139.851 33H138.563L136.225 26.868H136.617L134.251 33H132.963ZM143.987 33V25.58H145.331V33H143.987ZM144.659 24.152C144.398 24.152 144.178 24.068 144.001 23.9C143.833 23.732 143.749 23.5267 143.749 23.284C143.749 23.032 143.833 22.822 144.001 22.654C144.178 22.486 144.398 22.402 144.659 22.402C144.92 22.402 145.135 22.486 145.303 22.654C145.48 22.8127 145.569 23.0133 145.569 23.256C145.569 23.508 145.485 23.7227 145.317 23.9C145.149 24.068 144.93 24.152 144.659 24.152ZM150.445 33.084C149.699 33.084 149.12 32.8833 148.709 32.482C148.299 32.0807 148.093 31.5067 148.093 30.76V23.956H149.437V30.704C149.437 31.1053 149.535 31.4133 149.731 31.628C149.937 31.8427 150.226 31.95 150.599 31.95C151.019 31.95 151.369 31.8333 151.649 31.6L152.069 32.566C151.864 32.7433 151.617 32.874 151.327 32.958C151.047 33.042 150.753 33.084 150.445 33.084ZM146.833 26.686V25.58H151.565V26.686H146.833ZM157.656 25.51C158.263 25.51 158.795 25.6267 159.252 25.86C159.719 26.0933 160.083 26.448 160.344 26.924C160.605 27.4 160.736 28.002 160.736 28.73V33H159.392V28.884C159.392 28.1653 159.215 27.624 158.86 27.26C158.515 26.896 158.025 26.714 157.39 26.714C156.914 26.714 156.499 26.8073 156.144 26.994C155.789 27.1807 155.514 27.456 155.318 27.82C155.131 28.184 155.038 28.6367 155.038 29.178V33H153.694V22.612H155.038V27.582L154.772 27.05C155.015 26.5647 155.388 26.1867 155.892 25.916C156.396 25.6453 156.984 25.51 157.656 25.51ZM170.287 33.084C169.494 33.084 168.794 32.9207 168.187 32.594C167.59 32.2673 167.123 31.8193 166.787 31.25C166.461 30.6807 166.297 30.0273 166.297 29.29C166.297 28.5527 166.456 27.8993 166.773 27.33C167.1 26.7607 167.543 26.3173 168.103 26C168.673 25.6733 169.312 25.51 170.021 25.51C170.74 25.51 171.375 25.6687 171.925 25.986C172.476 26.3033 172.905 26.7513 173.213 27.33C173.531 27.8993 173.689 28.5667 173.689 29.332C173.689 29.388 173.685 29.4533 173.675 29.528C173.675 29.6027 173.671 29.6727 173.661 29.738H167.347V28.772H172.961L172.415 29.108C172.425 28.632 172.327 28.2073 172.121 27.834C171.916 27.4607 171.631 27.1713 171.267 26.966C170.913 26.7513 170.497 26.644 170.021 26.644C169.555 26.644 169.139 26.7513 168.775 26.966C168.411 27.1713 168.127 27.4653 167.921 27.848C167.716 28.2213 167.613 28.6507 167.613 29.136V29.36C167.613 29.8547 167.725 30.298 167.949 30.69C168.183 31.0727 168.505 31.3713 168.915 31.586C169.326 31.8007 169.797 31.908 170.329 31.908C170.768 31.908 171.165 31.8333 171.519 31.684C171.883 31.5347 172.201 31.3107 172.471 31.012L173.213 31.88C172.877 32.272 172.457 32.5707 171.953 32.776C171.459 32.9813 170.903 33.084 170.287 33.084ZM174.272 33L177.464 28.856L177.45 29.542L174.412 25.58H175.91L178.234 28.632H177.66L179.984 25.58H181.454L178.374 29.57L178.388 28.856L181.608 33H180.082L177.632 29.752L178.178 29.836L175.77 33H174.272ZM185.623 33.084C184.876 33.084 184.298 32.8833 183.887 32.482C183.476 32.0807 183.271 31.5067 183.271 30.76V23.956H184.615V30.704C184.615 31.1053 184.713 31.4133 184.909 31.628C185.114 31.8427 185.404 31.95 185.777 31.95C186.197 31.95 186.547 31.8333 186.827 31.6L187.247 32.566C187.042 32.7433 186.794 32.874 186.505 32.958C186.225 33.042 185.931 33.084 185.623 33.084ZM182.011 26.686V25.58H186.743V26.686H182.011ZM188.872 33V25.58H190.16V27.596L190.034 27.092C190.239 26.5787 190.585 26.1867 191.07 25.916C191.555 25.6453 192.153 25.51 192.862 25.51V26.812C192.806 26.8027 192.75 26.798 192.694 26.798C192.647 26.798 192.601 26.798 192.554 26.798C191.835 26.798 191.266 27.0127 190.846 27.442C190.426 27.8713 190.216 28.492 190.216 29.304V33H188.872ZM198.577 33V31.432L198.507 31.138V28.464C198.507 27.8947 198.339 27.456 198.003 27.148C197.677 26.8307 197.182 26.672 196.519 26.672C196.081 26.672 195.651 26.7467 195.231 26.896C194.811 27.036 194.457 27.2273 194.167 27.47L193.607 26.462C193.99 26.154 194.447 25.9207 194.979 25.762C195.521 25.594 196.085 25.51 196.673 25.51C197.691 25.51 198.475 25.7573 199.025 26.252C199.576 26.7467 199.851 27.5027 199.851 28.52V33H198.577ZM196.141 33.084C195.591 33.084 195.105 32.9907 194.685 32.804C194.275 32.6173 193.957 32.3607 193.733 32.034C193.509 31.698 193.397 31.32 193.397 30.9C193.397 30.4987 193.491 30.1347 193.677 29.808C193.873 29.4813 194.186 29.22 194.615 29.024C195.054 28.828 195.642 28.73 196.379 28.73H198.731V29.696H196.435C195.763 29.696 195.311 29.808 195.077 30.032C194.844 30.256 194.727 30.5267 194.727 30.844C194.727 31.208 194.872 31.502 195.161 31.726C195.451 31.9407 195.852 32.048 196.365 32.048C196.869 32.048 197.308 31.936 197.681 31.712C198.064 31.488 198.339 31.1613 198.507 30.732L198.773 31.656C198.596 32.0947 198.283 32.4447 197.835 32.706C197.387 32.958 196.823 33.084 196.141 33.084ZM209.332 33.084C208.576 33.084 207.9 32.9207 207.302 32.594C206.714 32.2673 206.252 31.8193 205.916 31.25C205.58 30.6807 205.412 30.0273 205.412 29.29C205.412 28.5527 205.58 27.8993 205.916 27.33C206.252 26.7607 206.714 26.3173 207.302 26C207.9 25.6733 208.576 25.51 209.332 25.51C210.004 25.51 210.602 25.6453 211.124 25.916C211.656 26.1773 212.067 26.5693 212.356 27.092L211.334 27.75C211.092 27.386 210.793 27.12 210.438 26.952C210.093 26.7747 209.72 26.686 209.318 26.686C208.833 26.686 208.399 26.7933 208.016 27.008C207.634 27.2227 207.33 27.526 207.106 27.918C206.882 28.3007 206.77 28.758 206.77 29.29C206.77 29.822 206.882 30.284 207.106 30.676C207.33 31.068 207.634 31.3713 208.016 31.586C208.399 31.8007 208.833 31.908 209.318 31.908C209.72 31.908 210.093 31.824 210.438 31.656C210.793 31.4787 211.092 31.208 211.334 30.844L212.356 31.488C212.067 32.0013 211.656 32.398 211.124 32.678C210.602 32.9487 210.004 33.084 209.332 33.084ZM218.702 33V31.432L218.632 31.138V28.464C218.632 27.8947 218.464 27.456 218.128 27.148C217.802 26.8307 217.307 26.672 216.644 26.672C216.206 26.672 215.776 26.7467 215.356 26.896C214.936 27.036 214.582 27.2273 214.292 27.47L213.732 26.462C214.115 26.154 214.572 25.9207 215.104 25.762C215.646 25.594 216.21 25.51 216.798 25.51C217.816 25.51 218.6 25.7573 219.15 26.252C219.701 26.7467 219.976 27.5027 219.976 28.52V33H218.702ZM216.266 33.084C215.716 33.084 215.23 32.9907 214.81 32.804C214.4 32.6173 214.082 32.3607 213.858 32.034C213.634 31.698 213.522 31.32 213.522 30.9C213.522 30.4987 213.616 30.1347 213.802 29.808C213.998 29.4813 214.311 29.22 214.74 29.024C215.179 28.828 215.767 28.73 216.504 28.73H218.856V29.696H216.56C215.888 29.696 215.436 29.808 215.202 30.032C214.969 30.256 214.852 30.5267 214.852 30.844C214.852 31.208 214.997 31.502 215.286 31.726C215.576 31.9407 215.977 32.048 216.49 32.048C216.994 32.048 217.433 31.936 217.806 31.712C218.189 31.488 218.464 31.1613 218.632 30.732L218.898 31.656C218.721 32.0947 218.408 32.4447 217.96 32.706C217.512 32.958 216.948 33.084 216.266 33.084ZM226.398 33.084C225.782 33.084 225.217 32.944 224.704 32.664C224.2 32.3747 223.794 31.95 223.486 31.39C223.187 30.83 223.038 30.13 223.038 29.29C223.038 28.45 223.182 27.75 223.472 27.19C223.77 26.63 224.172 26.21 224.676 25.93C225.189 25.65 225.763 25.51 226.398 25.51C227.126 25.51 227.77 25.6687 228.33 25.986C228.89 26.3033 229.333 26.7467 229.66 27.316C229.986 27.876 230.15 28.534 230.15 29.29C230.15 30.046 229.986 30.7087 229.66 31.278C229.333 31.8473 228.89 32.2907 228.33 32.608C227.77 32.9253 227.126 33.084 226.398 33.084ZM222.464 35.716V25.58H223.752V27.582L223.668 29.304L223.808 31.026V35.716H222.464ZM226.286 31.908C226.762 31.908 227.186 31.8007 227.56 31.586C227.942 31.3713 228.241 31.068 228.456 30.676C228.68 30.2747 228.792 29.8127 228.792 29.29C228.792 28.758 228.68 28.3007 228.456 27.918C228.241 27.526 227.942 27.2227 227.56 27.008C227.186 26.7933 226.762 26.686 226.286 26.686C225.819 26.686 225.394 26.7933 225.012 27.008C224.638 27.2227 224.34 27.526 224.116 27.918C223.901 28.3007 223.794 28.758 223.794 29.29C223.794 29.8127 223.901 30.2747 224.116 30.676C224.34 31.068 224.638 31.3713 225.012 31.586C225.394 31.8007 225.819 31.908 226.286 31.908ZM236.544 33V31.432L236.474 31.138V28.464C236.474 27.8947 236.306 27.456 235.97 27.148C235.644 26.8307 235.149 26.672 234.486 26.672C234.048 26.672 233.618 26.7467 233.198 26.896C232.778 27.036 232.424 27.2273 232.134 27.47L231.574 26.462C231.957 26.154 232.414 25.9207 232.946 25.762C233.488 25.594 234.052 25.51 234.64 25.51C235.658 25.51 236.442 25.7573 236.992 26.252C237.543 26.7467 237.818 27.5027 237.818 28.52V33H236.544ZM234.108 33.084C233.558 33.084 233.072 32.9907 232.652 32.804C232.242 32.6173 231.924 32.3607 231.7 32.034C231.476 31.698 231.364 31.32 231.364 30.9C231.364 30.4987 231.458 30.1347 231.644 29.808C231.84 29.4813 232.153 29.22 232.582 29.024C233.021 28.828 233.609 28.73 234.346 28.73H236.698V29.696H234.402C233.73 29.696 233.278 29.808 233.044 30.032C232.811 30.256 232.694 30.5267 232.694 30.844C232.694 31.208 232.839 31.502 233.128 31.726C233.418 31.9407 233.819 32.048 234.332 32.048C234.836 32.048 235.275 31.936 235.648 31.712C236.031 31.488 236.306 31.1613 236.474 30.732L236.74 31.656C236.563 32.0947 236.25 32.4447 235.802 32.706C235.354 32.958 234.79 33.084 234.108 33.084ZM243.539 33.084C242.783 33.084 242.107 32.9207 241.509 32.594C240.921 32.2673 240.459 31.8193 240.123 31.25C239.787 30.6807 239.619 30.0273 239.619 29.29C239.619 28.5527 239.787 27.8993 240.123 27.33C240.459 26.7607 240.921 26.3173 241.509 26C242.107 25.6733 242.783 25.51 243.539 25.51C244.211 25.51 244.809 25.6453 245.331 25.916C245.863 26.1773 246.274 26.5693 246.563 27.092L245.541 27.75C245.299 27.386 245 27.12 244.645 26.952C244.3 26.7747 243.927 26.686 243.525 26.686C243.04 26.686 242.606 26.7933 242.223 27.008C241.841 27.2227 241.537 27.526 241.313 27.918C241.089 28.3007 240.977 28.758 240.977 29.29C240.977 29.822 241.089 30.284 241.313 30.676C241.537 31.068 241.841 31.3713 242.223 31.586C242.606 31.8007 243.04 31.908 243.525 31.908C243.927 31.908 244.3 31.824 244.645 31.656C245 31.4787 245.299 31.208 245.541 30.844L246.563 31.488C246.274 32.0013 245.863 32.398 245.331 32.678C244.809 32.9487 244.211 33.084 243.539 33.084ZM248.208 33V25.58H249.552V33H248.208ZM248.88 24.152C248.618 24.152 248.399 24.068 248.222 23.9C248.054 23.732 247.97 23.5267 247.97 23.284C247.97 23.032 248.054 22.822 248.222 22.654C248.399 22.486 248.618 22.402 248.88 22.402C249.141 22.402 249.356 22.486 249.524 22.654C249.701 22.8127 249.79 23.0133 249.79 23.256C249.79 23.508 249.706 23.7227 249.538 23.9C249.37 24.068 249.15 24.152 248.88 24.152ZM254.666 33.084C253.919 33.084 253.341 32.8833 252.93 32.482C252.519 32.0807 252.314 31.5067 252.314 30.76V23.956H253.658V30.704C253.658 31.1053 253.756 31.4133 253.952 31.628C254.157 31.8427 254.447 31.95 254.82 31.95C255.24 31.95 255.59 31.8333 255.87 31.6L256.29 32.566C256.085 32.7433 255.837 32.874 255.548 32.958C255.268 33.042 254.974 33.084 254.666 33.084ZM251.054 26.686V25.58H255.786V26.686H251.054ZM258.1 35.8C257.745 35.8 257.4 35.7393 257.064 35.618C256.728 35.506 256.439 35.338 256.196 35.114L256.77 34.106C256.957 34.2833 257.162 34.4187 257.386 34.512C257.61 34.6053 257.848 34.652 258.1 34.652C258.427 34.652 258.697 34.568 258.912 34.4C259.127 34.232 259.327 33.9333 259.514 33.504L259.976 32.482L260.116 32.314L263.028 25.58H264.344L260.746 33.742C260.531 34.2647 260.289 34.6753 260.018 34.974C259.757 35.2727 259.467 35.4827 259.15 35.604C258.833 35.7347 258.483 35.8 258.1 35.8ZM259.864 33.238L256.476 25.58H257.876L260.76 32.188L259.864 33.238ZM265.456 33.084C265.194 33.084 264.97 32.9953 264.784 32.818C264.597 32.6313 264.504 32.398 264.504 32.118C264.504 31.838 264.597 31.6093 264.784 31.432C264.97 31.2547 265.194 31.166 265.456 31.166C265.708 31.166 265.922 31.2547 266.1 31.432C266.286 31.6093 266.38 31.838 266.38 32.118C266.38 32.398 266.286 32.6313 266.1 32.818C265.922 32.9953 265.708 33.084 265.456 33.084Z" fill="black"/>
</svg>
