<svg width="165" height="50" viewBox="0 0 165 50" fill="none" xmlns="http://www.w3.org/2000/svg">
<g filter="url(#filter0_d_2040_871)">
<rect x="24.1406" y="4.7168" width="33" height="31" rx="6" transform="rotate(46.3303 24.1406 4.7168)" fill="white"/>
</g>
<path d="M20.1982 21.1045H28.2373C28.4651 21.1045 28.6809 21.2079 28.8232 21.3857L30.3037 23.2363C30.4101 23.3693 30.4677 23.5348 30.4678 23.7051V33.3545C30.4678 33.7687 30.132 34.1045 29.7178 34.1045H18.7178C18.3036 34.1045 17.9678 33.7687 17.9678 33.3545V23.7051C17.9678 23.5348 18.0255 23.3693 18.1318 23.2363L19.6123 21.3857C19.7546 21.2079 19.9705 21.1045 20.1982 21.1045Z" stroke="black" stroke-width="0.5"/>
<path d="M18.2178 23.3545H30.2178" stroke="black" stroke-width="0.5"/>
<path d="M26.4678 23.6045V29.834L24.374 28.1592L24.2178 28.0342L24.0615 28.1592L21.9678 29.834V23.6045H26.4678Z" stroke="black" stroke-width="0.5"/>
<path d="M56.047 23.667V14.219H60.1367C60.9825 14.219 61.7113 14.3585 62.3232 14.6374C62.9351 14.9073 63.4075 15.2988 63.7404 15.8117C64.0733 16.3245 64.2398 16.9364 64.2398 17.6473C64.2398 18.3491 64.0733 18.9565 63.7404 19.4694C63.4075 19.9823 62.9351 20.3782 62.3232 20.6571C61.7113 20.9271 60.9825 21.062 60.1367 21.062H57.2618L58.2336 20.0768V23.667H56.047ZM58.2336 20.3197L57.2618 19.2804H60.0152C60.69 19.2804 61.1939 19.1365 61.5269 18.8485C61.8598 18.5606 62.0263 18.1602 62.0263 17.6473C62.0263 17.1254 61.8598 16.7205 61.5269 16.4325C61.1939 16.1446 60.69 16.0006 60.0152 16.0006H57.2618L58.2336 14.9613V20.3197ZM69.1484 23.775C68.3656 23.775 67.6682 23.6175 67.0564 23.3026C66.4445 22.9786 65.9631 22.5332 65.6122 21.9664C65.2702 21.3995 65.0993 20.7561 65.0993 20.0363C65.0993 19.3074 65.2702 18.6641 65.6122 18.1062C65.9631 17.5393 66.4445 17.0984 67.0564 16.7834C67.6682 16.4595 68.3656 16.2976 69.1484 16.2976C69.9133 16.2976 70.5791 16.4595 71.146 16.7834C71.7129 17.0984 72.1313 17.5528 72.4012 18.1467L70.7681 19.024C70.5791 18.682 70.3407 18.4301 70.0527 18.2681C69.7738 18.1062 69.4679 18.0252 69.1349 18.0252C68.775 18.0252 68.4511 18.1062 68.1631 18.2681C67.8752 18.4301 67.6457 18.6596 67.4748 18.9565C67.3128 19.2534 67.2318 19.6133 67.2318 20.0363C67.2318 20.4592 67.3128 20.8191 67.4748 21.116C67.6457 21.413 67.8752 21.6424 68.1631 21.8044C68.4511 21.9664 68.775 22.0473 69.1349 22.0473C69.4679 22.0473 69.7738 21.9709 70.0527 21.8179C70.3407 21.6559 70.5791 21.3995 70.7681 21.0485L72.4012 21.9394C72.1313 22.5242 71.7129 22.9786 71.146 23.3026C70.5791 23.6175 69.9133 23.775 69.1484 23.775ZM76.0565 23.775C75.4357 23.775 74.8373 23.703 74.2614 23.559C73.6945 23.406 73.2446 23.2171 72.9117 22.9921L73.6136 21.4805C73.9465 21.6874 74.3379 21.8584 74.7878 21.9933C75.2467 22.1193 75.6966 22.1823 76.1375 22.1823C76.6234 22.1823 76.9653 22.1238 77.1633 22.0068C77.3703 21.8899 77.4737 21.7279 77.4737 21.5209C77.4737 21.35 77.3928 21.224 77.2308 21.143C77.0778 21.053 76.8709 20.9856 76.6099 20.9406C76.349 20.8956 76.061 20.8506 75.7461 20.8056C75.4402 20.7606 75.1297 20.7021 74.8148 20.6301C74.4999 20.5492 74.2119 20.4322 73.951 20.2792C73.69 20.1262 73.4786 19.9193 73.3166 19.6583C73.1636 19.3974 73.0872 19.06 73.0872 18.6461C73.0872 18.1872 73.2176 17.7822 73.4786 17.4313C73.7485 17.0804 74.1354 16.8059 74.6393 16.608C75.1432 16.401 75.7461 16.2976 76.448 16.2976C76.9428 16.2976 77.4467 16.3515 77.9596 16.4595C78.4725 16.5675 78.8999 16.725 79.2419 16.9319L78.54 18.4301C78.1891 18.2231 77.8337 18.0837 77.4737 18.0117C77.1228 17.9307 76.7809 17.8902 76.448 17.8902C75.9801 17.8902 75.6381 17.9532 75.4222 18.0792C75.2062 18.2051 75.0982 18.3671 75.0982 18.5651C75.0982 18.745 75.1747 18.88 75.3277 18.97C75.4897 19.06 75.7011 19.132 75.9621 19.1859C76.223 19.2399 76.5064 19.2894 76.8124 19.3344C77.1273 19.3704 77.4422 19.4289 77.7572 19.5099C78.0721 19.5909 78.3556 19.7078 78.6075 19.8608C78.8684 20.0048 79.0799 20.2072 79.2419 20.4682C79.4038 20.7201 79.4848 21.053 79.4848 21.467C79.4848 21.9169 79.3498 22.3173 79.0799 22.6682C78.81 23.0101 78.4185 23.2801 77.9056 23.478C77.4018 23.676 76.7854 23.775 76.0565 23.775ZM84.7548 23.667V14.219H88.8444C89.6903 14.219 90.4191 14.3585 91.031 14.6374C91.6429 14.9073 92.1153 15.2988 92.4482 15.8117C92.7811 16.3245 92.9476 16.9364 92.9476 17.6473C92.9476 18.3491 92.7811 18.9565 92.4482 19.4694C92.1153 19.9823 91.6429 20.3782 91.031 20.6571C90.4191 20.9271 89.6903 21.062 88.8444 21.062H85.9696L86.9414 20.0768V23.667H84.7548ZM86.9414 20.3197L85.9696 19.2804H88.723C89.3978 19.2804 89.9017 19.1365 90.2347 18.8485C90.5676 18.5606 90.734 18.1602 90.734 17.6473C90.734 17.1254 90.5676 16.7205 90.2347 16.4325C89.9017 16.1446 89.3978 16.0006 88.723 16.0006H85.9696L86.9414 14.9613V20.3197ZM97.9507 23.775C97.1229 23.775 96.394 23.613 95.7642 23.2891C95.1433 22.9651 94.6619 22.5242 94.32 21.9664C93.978 21.3995 93.8071 20.7561 93.8071 20.0363C93.8071 19.3074 93.9735 18.6641 94.3065 18.1062C94.6484 17.5393 95.1118 17.0984 95.6967 16.7834C96.2815 16.4595 96.9429 16.2976 97.6808 16.2976C98.3916 16.2976 99.0305 16.4505 99.5973 16.7565C100.173 17.0534 100.628 17.4853 100.961 18.0522C101.293 18.6101 101.46 19.2804 101.46 20.0633C101.46 20.1442 101.455 20.2387 101.446 20.3467C101.437 20.4457 101.428 20.5402 101.419 20.6301H95.5212V19.4019H100.313L99.5029 19.7663C99.5029 19.3884 99.4264 19.06 99.2734 18.781C99.1204 18.5021 98.909 18.2861 98.6391 18.1332C98.3691 17.9712 98.0542 17.8902 97.6943 17.8902C97.3343 17.8902 97.0149 17.9712 96.736 18.1332C96.466 18.2861 96.2546 18.5066 96.1016 18.7945C95.9486 19.0735 95.8721 19.4064 95.8721 19.7933V20.1172C95.8721 20.5132 95.9576 20.8641 96.1286 21.17C96.3085 21.467 96.556 21.6964 96.8709 21.8584C97.1949 22.0113 97.5728 22.0878 98.0047 22.0878C98.3916 22.0878 98.729 22.0293 99.017 21.9124C99.3139 21.7954 99.5839 21.6199 99.8268 21.386L100.947 22.6007C100.614 22.9786 100.196 23.2711 99.6918 23.478C99.1879 23.676 98.6076 23.775 97.9507 23.775ZM102.862 23.667V16.4055H104.873V18.4571L104.589 17.8632C104.805 17.3503 105.152 16.9634 105.629 16.7025C106.106 16.4325 106.686 16.2976 107.37 16.2976V18.2411C107.28 18.2321 107.199 18.2276 107.127 18.2276C107.055 18.2186 106.978 18.2141 106.897 18.2141C106.322 18.2141 105.854 18.3806 105.494 18.7135C105.143 19.0375 104.967 19.5459 104.967 20.2387V23.667H102.862ZM112.645 23.667V14.219H117.261C118.449 14.219 119.34 14.4439 119.934 14.8938C120.537 15.3438 120.838 15.9376 120.838 16.6755C120.838 17.1704 120.717 17.6023 120.474 17.9712C120.231 18.3311 119.898 18.6101 119.475 18.808C119.052 19.006 118.566 19.105 118.017 19.105L118.274 18.5516C118.868 18.5516 119.394 18.6506 119.853 18.8485C120.312 19.0375 120.667 19.3209 120.919 19.6988C121.18 20.0768 121.311 20.5402 121.311 21.089C121.311 21.8989 120.991 22.5332 120.352 22.9921C119.713 23.442 118.773 23.667 117.531 23.667H112.645ZM114.818 22.0203H117.369C117.936 22.0203 118.364 21.9304 118.652 21.7504C118.949 21.5614 119.097 21.2645 119.097 20.8596C119.097 20.4637 118.949 20.1712 118.652 19.9823C118.364 19.7843 117.936 19.6853 117.369 19.6853H114.656V18.0927H116.991C117.522 18.0927 117.927 18.0027 118.206 17.8227C118.494 17.6338 118.638 17.3503 118.638 16.9724C118.638 16.6035 118.494 16.329 118.206 16.1491C117.927 15.9601 117.522 15.8656 116.991 15.8656H114.818V22.0203ZM126.273 23.775C125.499 23.775 124.811 23.613 124.208 23.2891C123.614 22.9651 123.141 22.5242 122.791 21.9664C122.449 21.3995 122.278 20.7561 122.278 20.0363C122.278 19.3074 122.449 18.6641 122.791 18.1062C123.141 17.5393 123.614 17.0984 124.208 16.7834C124.811 16.4595 125.499 16.2976 126.273 16.2976C127.038 16.2976 127.721 16.4595 128.324 16.7834C128.927 17.0984 129.4 17.5348 129.742 18.0927C130.083 18.6506 130.254 19.2984 130.254 20.0363C130.254 20.7561 130.083 21.3995 129.742 21.9664C129.4 22.5242 128.927 22.9651 128.324 23.2891C127.721 23.613 127.038 23.775 126.273 23.775ZM126.273 22.0473C126.624 22.0473 126.939 21.9664 127.218 21.8044C127.497 21.6424 127.717 21.413 127.879 21.116C128.041 20.8101 128.122 20.4502 128.122 20.0363C128.122 19.6133 128.041 19.2534 127.879 18.9565C127.717 18.6596 127.497 18.4301 127.218 18.2681C126.939 18.1062 126.624 18.0252 126.273 18.0252C125.922 18.0252 125.607 18.1062 125.328 18.2681C125.049 18.4301 124.824 18.6596 124.653 18.9565C124.491 19.2534 124.41 19.6133 124.41 20.0363C124.41 20.4502 124.491 20.8101 124.653 21.116C124.824 21.413 125.049 21.6424 125.328 21.8044C125.607 21.9664 125.922 22.0473 126.273 22.0473ZM130.52 23.667L133.773 19.4019L133.732 20.5626L130.614 16.4055H132.976L134.947 19.1185L134.056 19.1454L136.094 16.4055H138.335L135.203 20.5222V19.3884L138.443 23.667H136.054L133.989 20.7786L134.866 20.9001L132.814 23.667H130.52Z" fill="black"/>
<path d="M55.3767 38.9715V38.3866L59.5495 33.1677H60.4493L56.3102 38.3866L55.8716 38.2516H62.204V38.9715H55.3767ZM59.8195 41.041V38.9715L59.842 38.2516V36.4295H60.6293V41.041H59.8195ZM66.0859 41.1085C65.4785 41.1085 64.9386 40.951 64.4662 40.6361C63.9938 40.3137 63.6227 39.8563 63.3527 39.2639C63.0828 38.664 62.9478 37.9442 62.9478 37.1043C62.9478 36.2645 63.0828 35.5484 63.3527 34.9561C63.6227 34.3562 63.9938 33.8988 64.4662 33.5838C64.9386 33.2614 65.4785 33.1002 66.0859 33.1002C66.6933 33.1002 67.2331 33.2614 67.7055 33.5838C68.1779 33.8988 68.5491 34.3562 68.8191 34.9561C69.0965 35.5484 69.2352 36.2645 69.2352 37.1043C69.2352 37.9442 69.0965 38.664 68.8191 39.2639C68.5491 39.8563 68.1779 40.3137 67.7055 40.6361C67.2331 40.951 66.6933 41.1085 66.0859 41.1085ZM66.0859 40.3662C66.5508 40.3662 66.9557 40.2424 67.3006 39.995C67.6456 39.74 67.9155 39.3726 68.1105 38.8927C68.3054 38.4053 68.4029 37.8092 68.4029 37.1043C68.4029 36.3995 68.3054 35.8071 68.1105 35.3272C67.9155 34.8398 67.6456 34.4724 67.3006 34.225C66.9557 33.97 66.5508 33.8425 66.0859 33.8425C65.636 33.8425 65.2348 33.97 64.8824 34.225C64.53 34.4724 64.2563 34.8398 64.0613 35.3272C63.8664 35.8071 63.7689 36.3995 63.7689 37.1043C63.7689 37.8092 63.8664 38.4053 64.0613 38.8927C64.2563 39.3726 64.53 39.74 64.8824 39.995C65.2348 40.2424 65.636 40.3662 66.0859 40.3662ZM73.533 41.1085C72.9257 41.1085 72.3858 40.951 71.9134 40.6361C71.441 40.3137 71.0698 39.8563 70.7999 39.2639C70.5299 38.664 70.395 37.9442 70.395 37.1043C70.395 36.2645 70.5299 35.5484 70.7999 34.9561C71.0698 34.3562 71.441 33.8988 71.9134 33.5838C72.3858 33.2614 72.9257 33.1002 73.533 33.1002C74.1404 33.1002 74.6803 33.2614 75.1527 33.5838C75.6251 33.8988 75.9963 34.3562 76.2662 34.9561C76.5437 35.5484 76.6824 36.2645 76.6824 37.1043C76.6824 37.9442 76.5437 38.664 76.2662 39.2639C75.9963 39.8563 75.6251 40.3137 75.1527 40.6361C74.6803 40.951 74.1404 41.1085 73.533 41.1085ZM73.533 40.3662C73.9979 40.3662 74.4029 40.2424 74.7478 39.995C75.0927 39.74 75.3627 39.3726 75.5576 38.8927C75.7526 38.4053 75.8501 37.8092 75.8501 37.1043C75.8501 36.3995 75.7526 35.8071 75.5576 35.3272C75.3627 34.8398 75.0927 34.4724 74.7478 34.225C74.4029 33.97 73.9979 33.8425 73.533 33.8425C73.0831 33.8425 72.682 33.97 72.3296 34.225C71.9771 34.4724 71.7034 34.8398 71.5085 35.3272C71.3135 35.8071 71.216 36.3995 71.216 37.1043C71.216 37.8092 71.3135 38.4053 71.5085 38.8927C71.7034 39.3726 71.9771 39.74 72.3296 39.995C72.682 40.2424 73.0831 40.3662 73.533 40.3662ZM81.4832 41.041V33.1677H82.1693L87.6019 40.0062H87.242V33.1677H88.063V41.041H87.3769L81.9556 34.2025H82.3155V41.041H81.4832ZM92.8711 41.0973C92.3013 41.0973 91.7876 40.9698 91.3302 40.7148C90.8803 40.4524 90.5241 40.0962 90.2617 39.6463C89.9992 39.1889 89.868 38.6678 89.868 38.0829C89.868 37.4905 89.9992 36.9694 90.2617 36.5195C90.5241 36.0696 90.8803 35.7171 91.3302 35.4622C91.7801 35.2072 92.2938 35.0798 92.8711 35.0798C93.456 35.0798 93.9734 35.2072 94.4233 35.4622C94.8807 35.7171 95.2369 36.0696 95.4918 36.5195C95.7543 36.9694 95.8855 37.4905 95.8855 38.0829C95.8855 38.6678 95.7543 39.1889 95.4918 39.6463C95.2369 40.0962 94.8807 40.4524 94.4233 40.7148C93.9659 40.9698 93.4485 41.0973 92.8711 41.0973ZM92.8711 40.3887C93.2985 40.3887 93.6772 40.2949 94.0071 40.1075C94.3371 39.9125 94.5958 39.6426 94.7832 39.2976C94.9782 38.9452 95.0757 38.5403 95.0757 38.0829C95.0757 37.618 94.9782 37.2131 94.7832 36.8681C94.5958 36.5232 94.3371 36.257 94.0071 36.0696C93.6772 35.8746 93.3023 35.7771 92.8824 35.7771C92.4625 35.7771 92.0875 35.8746 91.7576 36.0696C91.4277 36.257 91.1652 36.5232 90.9703 36.8681C90.7753 37.2131 90.6778 37.618 90.6778 38.0829C90.6778 38.5403 90.7753 38.9452 90.9703 39.2976C91.1652 39.6426 91.4277 39.9125 91.7576 40.1075C92.0875 40.2949 92.4587 40.3887 92.8711 40.3887ZM99.1018 41.0973C98.6144 41.0973 98.1532 41.0298 97.7183 40.8948C97.2834 40.7523 96.9422 40.5761 96.6948 40.3662L97.0547 39.7363C97.2947 39.9163 97.6021 40.0737 97.977 40.2087C98.3519 40.3362 98.7456 40.3999 99.158 40.3999C99.7204 40.3999 100.125 40.3137 100.373 40.1412C100.62 39.9612 100.744 39.725 100.744 39.4326C100.744 39.2152 100.673 39.0464 100.53 38.9265C100.395 38.799 100.215 38.7053 99.9904 38.6453C99.7654 38.5778 99.5142 38.5215 99.2368 38.4766C98.9593 38.4316 98.6819 38.3791 98.4044 38.3191C98.1345 38.2591 97.887 38.1729 97.6621 38.0604C97.4371 37.9404 97.2534 37.7792 97.111 37.5767C96.976 37.3743 96.9085 37.1043 96.9085 36.7669C96.9085 36.4445 96.9985 36.1558 97.1784 35.9009C97.3584 35.6459 97.6209 35.4472 97.9658 35.3047C98.3182 35.1548 98.7456 35.0798 99.248 35.0798C99.6304 35.0798 100.013 35.1323 100.395 35.2372C100.778 35.3347 101.093 35.4659 101.34 35.6309L100.991 36.272C100.729 36.0921 100.448 35.9646 100.148 35.8896C99.8479 35.8071 99.5479 35.7659 99.248 35.7659C98.7156 35.7659 98.322 35.8596 98.067 36.0471C97.8196 36.227 97.6958 36.4595 97.6958 36.7444C97.6958 36.9694 97.7633 37.1456 97.8983 37.2731C98.0408 37.4005 98.2245 37.5018 98.4494 37.5767C98.6819 37.6442 98.9331 37.7005 99.203 37.7455C99.4805 37.7905 99.7542 37.8467 100.024 37.9142C100.302 37.9742 100.553 38.0604 100.778 38.1729C101.01 38.2778 101.194 38.4316 101.329 38.634C101.471 38.829 101.543 39.0877 101.543 39.4101C101.543 39.755 101.445 40.055 101.25 40.3099C101.063 40.5574 100.785 40.7523 100.418 40.8948C100.058 41.0298 99.6192 41.0973 99.1018 41.0973ZM101.613 42.1658L105.325 31.5705H106.056L102.344 42.1658H101.613ZM108.458 41.0973C107.874 41.0973 107.349 40.9698 106.884 40.7148C106.426 40.4524 106.066 40.0962 105.804 39.6463C105.542 39.1889 105.41 38.6678 105.41 38.0829C105.41 37.4905 105.542 36.9694 105.804 36.5195C106.066 36.0696 106.426 35.7171 106.884 35.4622C107.349 35.2072 107.874 35.0798 108.458 35.0798C108.961 35.0798 109.415 35.1773 109.819 35.3722C110.224 35.5672 110.543 35.8596 110.775 36.2495L110.179 36.6544C109.977 36.3545 109.726 36.1333 109.426 35.9908C109.126 35.8484 108.8 35.7771 108.447 35.7771C108.027 35.7771 107.649 35.8746 107.311 36.0696C106.974 36.257 106.708 36.5232 106.513 36.8681C106.318 37.2131 106.22 37.618 106.22 38.0829C106.22 38.5478 106.318 38.9527 106.513 39.2976C106.708 39.6426 106.974 39.9125 107.311 40.1075C107.649 40.2949 108.027 40.3887 108.447 40.3887C108.8 40.3887 109.126 40.3174 109.426 40.1749C109.726 40.0325 109.977 39.815 110.179 39.5226L110.775 39.9275C110.543 40.3099 110.224 40.6024 109.819 40.8048C109.415 40.9998 108.961 41.0973 108.458 41.0973ZM114.277 41.0973C113.722 41.0973 113.295 40.9473 112.995 40.6473C112.695 40.3474 112.545 39.9238 112.545 39.3764V33.8313H113.344V39.3314C113.344 39.6763 113.43 39.9425 113.602 40.13C113.782 40.3174 114.037 40.4111 114.367 40.4111C114.72 40.4111 115.012 40.3099 115.245 40.1075L115.526 40.6811C115.368 40.8236 115.177 40.9285 114.952 40.996C114.735 41.0635 114.51 41.0973 114.277 41.0973ZM111.488 35.7996V35.136H115.143V35.7996H111.488ZM119.994 35.0798C120.474 35.0798 120.894 35.1735 121.254 35.361C121.621 35.5409 121.906 35.8184 122.108 36.1933C122.318 36.5682 122.423 37.0406 122.423 37.6105V41.041H121.625V37.6892C121.625 37.0669 121.467 36.5982 121.152 36.2833C120.845 35.9608 120.41 35.7996 119.848 35.7996C119.428 35.7996 119.06 35.8859 118.745 36.0583C118.438 36.2233 118.198 36.467 118.026 36.7894C117.861 37.1043 117.778 37.4868 117.778 37.9367V41.041H116.98V35.136H117.744V36.7557L117.621 36.452C117.808 36.0246 118.108 35.6909 118.52 35.4509C118.933 35.2035 119.424 35.0798 119.994 35.0798Z" fill="black"/>
<defs>
<filter id="filter0_d_2040_871" x="0.000195503" y="0.000195503" width="48.6441" height="48.7096" filterUnits="userSpaceOnUse" color-interpolation-filters="sRGB">
<feFlood flood-opacity="0" result="BackgroundImageFix"/>
<feColorMatrix in="SourceAlpha" type="matrix" values="0 0 0 0 0 0 0 0 0 0 0 0 0 0 0 0 0 0 127 0" result="hardAlpha"/>
<feOffset dy="-3"/>
<feGaussianBlur stdDeviation="2.1"/>
<feComposite in2="hardAlpha" operator="out"/>
<feColorMatrix type="matrix" values="0 0 0 0 0 0 0 0 0 0 0 0 0 0 0 0 0 0 0.25 0"/>
<feBlend mode="normal" in2="BackgroundImageFix" result="effect1_dropShadow_2040_871"/>
<feBlend mode="normal" in="SourceGraphic" in2="effect1_dropShadow_2040_871" result="shape"/>
</filter>
</defs>
</svg>
