<svg width="326" height="76" viewBox="0 0 326 76" fill="none" xmlns="http://www.w3.org/2000/svg">
<path d="M3.05497 45.5408L3.01006 20.4555L13.8684 20.4373C16.1142 20.4335 18.05 20.8006 19.6759 21.5385C21.3017 22.2525 22.5579 23.2896 23.4443 24.6499C24.3307 26.0102 24.7756 27.6341 24.7789 29.5214C24.7823 31.3849 24.3432 32.9983 23.4617 34.3615C22.5801 35.7009 21.3277 36.7303 19.7044 37.4498C18.0811 38.1692 16.1466 38.5308 13.9008 38.5346L6.26772 38.5474L8.84337 35.9987L8.86044 45.5311L3.05497 45.5408ZM19.0021 45.5141L12.7145 36.4222L18.9141 36.4118L25.2734 45.5036L19.0021 45.5141ZM8.84453 36.6437L6.25944 33.9245L13.57 33.9123C15.3618 33.9092 16.699 33.5248 17.5816 32.7588C18.4642 31.9689 18.9042 30.8931 18.9018 29.5313C18.8993 28.1456 18.4554 27.0713 17.5701 26.3082C16.6848 25.5452 15.3462 25.1652 13.5544 25.1682L6.24379 25.1805L8.81905 22.4168L8.84453 36.6437ZM37.7936 45.9127C36.0496 45.9156 34.3171 45.6915 32.5962 45.2405C30.8991 44.7655 29.4405 44.099 28.2205 43.241L30.5061 38.7934C31.463 39.4847 32.5629 40.0323 33.806 40.4364C35.0729 40.8404 36.3515 41.0413 37.6416 41.0392C39.0989 41.0367 40.2451 40.7481 41.0803 40.1733C41.9154 39.5986 42.3321 38.7975 42.3303 37.7702C42.3291 37.1252 42.1608 36.5521 41.8255 36.0509C41.4901 35.5498 40.8922 35.1685 40.0316 34.9072C39.195 34.6458 38.0121 34.5163 36.4831 34.5189L30.0684 34.5297L31.3333 20.408L46.6353 20.3824L46.6437 25.0411L33.4201 25.0632L36.4256 22.4063L35.5477 32.4778L32.5327 29.831L37.8365 29.8221C40.3211 29.8179 42.3166 30.161 43.823 30.8513C45.3532 31.5177 46.4658 32.4356 47.1607 33.6051C47.8556 34.7746 48.2044 36.0999 48.2071 37.5812C48.2097 39.0624 47.8419 40.4367 47.1035 41.7042C46.3651 42.9478 45.2202 43.965 43.6687 44.756C42.1411 45.5231 40.1827 45.9086 37.7936 45.9127ZM62.7617 45.8708C60.7071 45.8742 58.8666 45.3756 57.2402 44.3749C55.6138 43.3504 54.333 41.8713 53.3978 39.9377C52.4626 38.0041 51.9925 35.6636 51.9876 32.9161C51.9827 30.1687 52.4443 27.8266 53.3726 25.8899C54.3009 23.9532 55.5764 22.4817 57.1992 21.4756C58.8219 20.4456 60.6606 19.9288 62.7152 19.9254C64.7937 19.9219 66.6342 20.4325 68.2367 21.4571C69.8631 22.4578 71.1439 23.9249 72.0791 25.8585C73.0143 27.7921 73.4844 30.1326 73.4893 32.8801C73.4942 35.6275 73.0325 37.9696 72.1043 39.9063C71.176 41.843 69.9005 43.3264 68.2777 44.3564C66.6789 45.3625 64.8402 45.8673 62.7617 45.8708ZM62.7529 40.9612C63.7324 40.9596 64.58 40.6834 65.2958 40.1327C66.0354 39.582 66.6072 38.709 67.0112 37.5138C67.4391 36.3186 67.6514 34.7772 67.648 32.8899C67.6446 31.0025 67.4268 29.4619 66.9947 28.2681C66.5864 27.0742 66.0114 26.2032 65.2699 25.6549C64.5521 25.1066 63.7035 24.8333 62.724 24.835C61.7684 24.8366 60.9207 25.1127 60.1811 25.6635C59.4654 26.2141 58.8936 27.0871 58.4657 28.2824C58.0616 29.4776 57.8613 31.0189 57.8647 32.9063C57.8681 34.7936 58.0739 36.3343 58.4822 37.5281C58.9144 38.7219 59.4893 39.593 60.207 40.1413C60.9486 40.6895 61.7972 40.9628 62.7529 40.9612ZM88.5175 45.8276C86.4629 45.8311 84.6224 45.3325 82.9961 44.3318C81.3697 43.3072 80.0888 41.8281 79.1536 39.8945C78.2184 37.9609 77.7484 35.6204 77.7435 32.873C77.7385 30.1255 78.2002 27.7834 79.1285 25.8467C80.0568 23.91 81.3323 22.4386 82.9551 21.4324C84.5778 20.4024 86.4165 19.8857 88.4711 19.8822C90.5496 19.8787 92.3901 20.3893 93.9926 21.4139C95.619 22.4146 96.8998 23.8818 97.835 25.8154C98.7702 27.749 99.2403 30.0895 99.2452 32.8369C99.2501 35.5844 98.7884 37.9264 97.8601 39.8632C96.9319 41.7999 95.6564 43.2832 94.0336 44.3133C92.4347 45.3194 90.596 45.8242 88.5175 45.8276ZM88.5088 40.9181C89.4883 40.9164 90.3359 40.6403 91.0516 40.0896C91.7913 39.5389 92.3631 38.6659 92.7671 37.4707C93.195 36.2754 93.4073 34.7341 93.4039 32.8467C93.4005 30.9593 93.1827 29.4187 92.7505 28.2249C92.3423 27.0311 91.7673 26.16 91.0257 25.6118C90.308 25.0635 89.4594 24.7901 88.4799 24.7918C87.5242 24.7934 86.6766 25.0696 85.937 25.6203C85.2212 26.171 84.6494 27.0439 84.2215 28.2392C83.8175 29.4344 83.6172 30.9757 83.6206 32.8631C83.624 34.7505 83.8298 36.2911 84.2381 37.4849C84.6703 38.6788 85.2452 39.5498 85.9629 40.0981C86.7045 40.6464 87.5531 40.9197 88.5088 40.9181ZM109.595 45.3623L109.558 25.0073L101.531 25.0208L101.523 20.2904L123.383 20.2537L123.391 24.9841L115.364 24.9976L115.4 45.3525L109.595 45.3623ZM133.298 30.343L145.374 30.3227L145.382 34.8381L133.306 34.8583L133.298 30.343ZM133.746 40.6631L147.4 40.6402L147.408 45.2989L127.985 45.3315L127.94 20.2461L146.897 20.2143L146.906 24.873L133.718 24.8951L133.746 40.6631ZM169.667 45.6916C167.97 45.6945 166.405 45.3865 164.97 44.7678C163.56 44.1251 162.399 43.2192 161.489 42.05L164.708 38.1743C165.402 39.081 166.132 39.7726 166.898 40.2492C167.663 40.7018 168.487 40.9274 169.371 40.9259C171.737 40.9219 172.917 39.5343 172.912 36.763L172.89 24.8295L164.075 24.8443L164.066 20.1856L178.652 20.1611L178.681 36.4308C178.686 39.5366 177.926 41.8552 176.4 43.3868C174.873 44.9184 172.629 45.6867 169.667 45.6916ZM197.01 45.6458C193.451 45.6518 190.665 44.665 188.655 42.6854C186.645 40.7058 185.636 37.8764 185.63 34.1973L185.604 20.1495L191.41 20.1397L191.435 33.9725C191.439 36.3616 191.932 38.0809 192.913 39.1305C193.895 40.18 195.269 40.7033 197.037 40.7003C198.805 40.6974 200.178 40.1695 201.156 39.1166C202.133 38.0638 202.62 36.3429 202.616 33.9538L202.591 20.121L208.325 20.1114L208.35 34.1592C208.356 37.8384 207.358 40.6711 205.355 42.6574C203.351 44.6437 200.57 45.6398 197.01 45.6458ZM215.54 45.1847L215.495 20.0994L220.297 20.0913L231.008 37.7765L228.464 37.7808L238.932 20.0601L243.698 20.0521L243.815 45.1373L238.368 45.1465L238.302 28.411L239.305 28.4093L230.945 42.507L228.329 42.5114L219.739 28.4421L220.957 28.4401L220.987 45.1756L215.54 45.1847ZM251.2 45.1249L251.155 20.0396L263.411 20.0191C266.564 20.0138 268.931 20.6071 270.51 21.799C272.112 22.9908 272.916 24.5663 272.919 26.5253C272.921 27.8393 272.601 28.9866 271.958 29.9672C271.314 30.9239 270.432 31.666 269.31 32.1935C268.188 32.721 266.898 32.986 265.441 32.9884L266.119 31.518C267.696 31.5153 269.094 31.7758 270.313 32.2993C271.533 32.799 272.478 33.55 273.148 34.5523C273.843 35.5545 274.192 36.7843 274.194 38.2417C274.198 40.3918 273.353 42.0776 271.659 43.2988C269.965 44.4962 267.469 45.0977 264.172 45.1032L251.2 45.1249ZM256.962 40.7433L263.735 40.7319C265.24 40.7294 266.374 40.4886 267.138 40.0095C267.925 39.5065 268.318 38.7174 268.316 37.6423C268.314 36.5911 267.919 35.8153 267.129 35.3149C266.364 34.7906 265.229 34.5297 263.723 34.5322L256.52 34.5443L256.513 30.3156L262.712 30.3053C264.122 30.3029 265.197 30.0622 265.936 29.5831C266.7 29.0801 267.081 28.3269 267.079 27.3235C267.077 26.344 266.694 25.616 265.928 25.1394C265.187 24.639 264.111 24.3899 262.702 24.3923L256.932 24.402L256.962 40.7433ZM292.22 45.4862C290.237 45.4896 288.397 45.1701 286.7 44.5279C285.026 43.8857 283.567 42.9802 282.323 41.8117C281.102 40.6431 280.144 39.271 279.449 37.6953C278.777 36.1196 278.439 34.4001 278.436 32.5366C278.433 30.6731 278.764 28.9524 279.43 27.3745C280.12 25.7965 281.085 24.4212 282.326 23.2485C283.566 22.0757 285.021 21.1654 286.693 20.5176C288.364 19.8697 290.179 19.5442 292.138 19.5409C294.121 19.5376 295.937 19.857 297.587 20.4993C299.26 21.1416 300.707 22.047 301.928 23.2156C303.172 24.3842 304.142 25.7563 304.838 27.3319C305.534 28.8837 305.883 30.6032 305.887 32.4906C305.89 34.3541 305.547 36.0867 304.857 37.6886C304.167 39.2665 303.201 40.6419 301.961 41.8146C300.745 42.9634 299.301 43.8617 297.63 44.5096C295.983 45.1574 294.179 45.4829 292.22 45.4862ZM292.176 40.5409C293.299 40.539 294.325 40.3462 295.257 39.9624C296.211 39.5785 297.047 39.0276 297.762 38.3097C298.478 37.5918 299.026 36.7427 299.406 35.7625C299.81 34.7823 300.012 33.695 300.009 32.5004C300.007 31.3059 299.802 30.2192 299.394 29.2404C299.01 28.2615 298.459 27.4143 297.741 26.6988C297.047 25.9832 296.222 25.4351 295.266 25.0544C294.309 24.6738 293.27 24.4844 292.147 24.4863C291.024 24.4882 289.985 24.681 289.03 25.0649C288.099 25.4487 287.276 25.9996 286.56 26.7175C285.845 27.4354 285.285 28.2845 284.881 29.2647C284.5 30.2448 284.311 31.3322 284.313 32.5267C284.315 33.6974 284.508 34.7841 284.892 35.7869C285.3 36.7657 285.851 37.6129 286.545 38.3285C287.263 39.044 288.101 39.5921 289.057 39.9727C290.013 40.3534 291.053 40.5428 292.176 40.5409Z" fill="#490606"/>
<path d="M38.9829 68.9409C38.5065 68.2211 38.1368 67.3903 37.8738 66.4485C37.6187 65.4987 37.4902 64.4774 37.4882 63.3846C37.4862 62.2919 37.6111 61.2702 37.8628 60.3195C38.1224 59.361 38.4891 58.5289 38.963 57.8234L40.7327 57.8204C40.2355 58.716 39.8729 59.6194 39.6448 60.5304C39.4168 61.4335 39.3037 62.3839 39.3055 63.3816C39.3073 64.3793 39.4238 65.3333 39.6551 66.2436C39.8863 67.1459 40.2522 68.044 40.7527 68.938L38.9829 68.9409ZM41.8582 66.6318L41.8433 58.3174L43.7675 58.3142L43.7824 66.6286L41.8582 66.6318ZM45.7556 66.6253L45.7407 58.3109L47.3323 58.3082L50.8824 64.1699L50.039 64.1713L53.5087 58.2979L55.0884 58.2952L55.1271 66.6096L53.3217 66.6126L53.2999 61.0657L53.6324 61.0652L50.8614 65.7378L49.9943 65.7392L47.1472 61.076L47.551 61.0754L47.561 66.6223L45.7556 66.6253ZM57.0997 66.6063L57.0848 58.2919L59.009 58.2886L59.0211 65.0352L63.1902 65.0282L63.193 66.5961L57.0997 66.6063ZM67.6319 66.5886L67.617 58.2742L69.2087 58.2715L72.7587 64.1332L71.9154 64.1346L75.3851 58.2612L76.9648 58.2585L77.0035 66.5729L75.1981 66.5759L75.1762 61.0291L75.5088 61.0285L72.7378 65.7011L71.8707 65.7026L69.0236 61.0394L69.4274 61.0387L69.4373 66.5856L67.6319 66.5886ZM83.0148 66.7054C82.3575 66.7065 81.7476 66.6006 81.185 66.3877C80.6304 66.1749 80.1468 65.8748 79.7343 65.4875C79.3298 65.1001 79.0122 64.6454 78.7817 64.1231C78.559 63.6009 78.4471 63.0309 78.446 62.4133C78.4449 61.7956 78.5548 61.2253 78.7755 60.7023C79.0042 60.1793 79.3241 59.7235 79.7352 59.3348C80.1463 58.9461 80.6288 58.6444 81.1827 58.4296C81.7366 58.2149 82.3382 58.107 82.9875 58.1059C83.6447 58.1048 84.2467 58.2107 84.7935 58.4236C85.3482 58.6365 85.8278 58.9366 86.2323 59.3239C86.6448 59.7112 86.9663 60.166 87.1969 60.6882C87.4274 61.2025 87.5433 61.7725 87.5444 62.398C87.5455 63.0157 87.4317 63.59 87.203 64.1209C86.9743 64.6439 86.6544 65.0997 86.2434 65.4884C85.8402 65.8692 85.3617 66.1669 84.8077 66.3817C84.2618 66.5964 83.6641 66.7043 83.0148 66.7054ZM83 65.0663C83.3721 65.0657 83.7125 65.0017 84.0211 64.8745C84.3376 64.7473 84.6145 64.5647 84.8516 64.3267C85.0887 64.0888 85.2703 63.8074 85.3964 63.4825C85.5305 63.1576 85.5971 62.7972 85.5964 62.4013C85.5957 62.0054 85.5278 61.6452 85.3926 61.3208C85.2653 60.9963 85.0827 60.7155 84.8447 60.4784C84.6146 60.2412 84.3411 60.0595 84.0241 59.9334C83.7072 59.8072 83.3626 59.7444 82.9904 59.745C82.6183 59.7457 82.2739 59.8096 81.9574 59.9368C81.6488 60.064 81.376 60.2466 81.1388 60.4846C80.9017 60.7225 80.7161 61.0039 80.5821 61.3288C80.456 61.6537 80.3933 62.0141 80.394 62.41C80.3947 62.798 80.4587 63.1582 80.586 63.4906C80.7212 63.815 80.9038 64.0958 81.1338 64.333C81.3718 64.5701 81.6493 64.7518 81.9663 64.878C82.2832 65.0041 82.6278 65.0669 83 65.0663ZM93.0247 66.6886C92.3754 66.6897 91.7695 66.5838 91.2069 66.371C90.6522 66.1581 90.1686 65.858 89.7562 65.4707C89.3516 65.0833 89.0341 64.6286 88.8035 64.1063C88.5809 63.5841 88.469 63.0141 88.4679 62.3965C88.4668 61.7788 88.5766 61.2085 88.7974 60.6855C89.0261 60.1625 89.346 59.7067 89.757 59.318C90.1681 58.9293 90.6506 58.6276 91.2045 58.4128C91.7584 58.1981 92.36 58.0902 93.0094 58.0891C93.6666 58.088 94.2686 58.1939 94.8153 58.4068C95.37 58.6197 95.8496 58.9198 96.2542 59.3071C96.6666 59.6865 96.9881 60.1373 97.2187 60.6595C97.4493 61.1818 97.5651 61.7557 97.5662 62.3812C97.5673 62.9989 97.4535 63.5732 97.2249 64.1041C96.9962 64.6271 96.6763 65.0829 96.2652 65.4716C95.862 65.8524 95.3835 66.1502 94.8296 66.3649C94.2836 66.5796 93.682 66.6875 93.0247 66.6886ZM95.7479 68.4538C95.4233 68.4544 95.1144 68.4193 94.8213 68.3485C94.5361 68.2777 94.2508 68.1634 93.9655 68.0055C93.688 67.8476 93.3947 67.6342 93.0854 67.3655C92.784 67.0968 92.4548 66.7648 92.0977 66.3695L94.116 65.8553C94.3303 66.148 94.5287 66.3812 94.7112 66.5551C94.8936 66.729 95.068 66.8515 95.2344 66.9225C95.4088 66.9934 95.591 67.0288 95.781 67.0284C96.2878 67.0276 96.7388 66.821 97.134 66.4085L97.991 67.4286C97.43 68.1105 96.6823 68.4523 95.7479 68.4538ZM93.0218 65.0495C93.394 65.0489 93.7344 64.9849 94.043 64.8577C94.3595 64.7305 94.6363 64.5479 94.8734 64.31C95.1106 64.072 95.2922 63.7906 95.4183 63.4657C95.5523 63.1329 95.619 62.7725 95.6183 62.3845C95.6176 61.9886 95.5496 61.6284 95.4144 61.304C95.2871 60.9795 95.1045 60.6987 94.8665 60.4616C94.6286 60.2244 94.3511 60.0427 94.0341 59.9166C93.7251 59.7904 93.3845 59.7276 93.0123 59.7283C92.6401 59.7289 92.2958 59.7928 91.9793 59.92C91.6628 60.0473 91.3859 60.2298 91.1488 60.4678C90.9196 60.7057 90.738 60.9871 90.6039 61.312C90.4778 61.6369 90.4151 61.9973 90.4158 62.3932C90.4165 62.7812 90.4805 63.1414 90.6078 63.4738C90.743 63.7982 90.9256 64.079 91.1557 64.3162C91.3937 64.5533 91.6711 64.735 91.9881 64.8612C92.3051 64.9873 92.6496 65.0501 93.0218 65.0495ZM102.011 63.9298L102.008 62.4451L105.369 62.4394L105.372 63.9241L102.011 63.9298ZM111.089 66.5158L111.076 58.914L111.909 59.7441L109.414 59.7483L109.412 58.2042L112.999 58.1982L113.014 66.5126L111.089 66.5158ZM118.021 66.6467C117.34 66.6479 116.73 66.4826 116.191 66.1509C115.652 65.8113 115.228 65.3211 114.918 64.6802C114.608 64.0393 114.452 63.2636 114.45 62.3529C114.449 61.4423 114.602 60.666 114.909 60.0241C115.217 59.3822 115.64 58.8945 116.178 58.561C116.716 58.2196 117.325 58.0484 118.006 58.0472C118.695 58.0461 119.305 58.2153 119.836 58.5549C120.375 58.8866 120.8 59.3729 121.11 60.0137C121.42 60.6546 121.575 61.4304 121.577 62.341C121.579 63.2516 121.426 64.0279 121.118 64.6698C120.81 65.3117 120.388 65.8034 119.85 66.1448C119.32 66.4782 118.71 66.6456 118.021 66.6467ZM118.019 65.0195C118.343 65.0189 118.624 64.9274 118.861 64.7449C119.107 64.5623 119.296 64.273 119.43 63.8768C119.572 63.4807 119.642 62.9698 119.641 62.3442C119.64 61.7187 119.568 61.2081 119.424 60.8124C119.289 60.4167 119.099 60.128 118.853 59.9463C118.615 59.7645 118.334 59.6739 118.009 59.6745C117.692 59.675 117.411 59.7665 117.166 59.9491C116.929 60.1316 116.739 60.4209 116.598 60.8171C116.464 61.2133 116.397 61.7241 116.398 62.3497C116.399 62.9752 116.468 63.4859 116.603 63.8816C116.746 64.2773 116.937 64.566 117.175 64.7477C117.421 64.9294 117.702 65.02 118.019 65.0195ZM126.083 66.6332C125.402 66.6343 124.792 66.4691 124.253 66.1374C123.714 65.7978 123.289 65.3076 122.979 64.6667C122.669 64.0258 122.514 63.2501 122.512 62.3394C122.51 61.4288 122.663 60.6525 122.971 60.0106C123.279 59.3687 123.701 58.881 124.239 58.5475C124.777 58.2061 125.387 58.0349 126.068 58.0337C126.757 58.0326 127.367 58.2018 127.898 58.5414C128.437 58.8731 128.861 59.3593 129.171 60.0002C129.481 60.6411 129.637 61.4169 129.639 62.3275C129.64 63.2381 129.487 64.0144 129.18 64.6563C128.872 65.2982 128.449 65.7899 127.911 66.1313C127.381 66.4647 126.772 66.632 126.083 66.6332ZM126.08 65.0059C126.405 65.0054 126.686 64.9139 126.923 64.7313C127.168 64.5488 127.358 64.2595 127.491 63.8633C127.633 63.4672 127.704 62.9563 127.703 62.3307C127.701 61.7052 127.629 61.1945 127.486 60.7989C127.351 60.4032 127.16 60.1145 126.914 59.9327C126.676 59.751 126.395 59.6604 126.071 59.661C125.754 59.6615 125.473 59.753 125.228 59.9356C124.99 60.1181 124.801 60.4074 124.659 60.8036C124.525 61.1998 124.459 61.7106 124.46 62.3362C124.461 62.9617 124.529 63.4724 124.665 63.8681C124.808 64.2637 124.998 64.5524 125.236 64.7342C125.482 64.9159 125.763 65.0065 126.08 65.0059ZM134.145 66.6197C133.464 66.6208 132.854 66.4556 132.314 66.1239C131.775 65.7843 131.351 65.2941 131.041 64.6532C130.731 64.0123 130.575 63.2365 130.574 62.3259C130.572 61.4153 130.725 60.639 131.033 59.9971C131.34 59.3552 131.763 58.8675 132.301 58.534C132.839 58.1926 133.448 58.0213 134.129 58.0202C134.818 58.0191 135.428 58.1883 135.959 58.5279C136.498 58.8596 136.923 59.3458 137.233 59.9867C137.543 60.6276 137.699 61.4033 137.7 62.314C137.702 63.2246 137.549 64.0009 137.241 64.6428C136.933 65.2847 136.511 65.7764 135.973 66.1178C135.443 66.4512 134.833 66.6185 134.145 66.6197ZM134.142 64.9924C134.466 64.9919 134.747 64.9004 134.984 64.7178C135.23 64.5353 135.419 64.246 135.553 63.8498C135.695 63.4536 135.765 62.9428 135.764 62.3172C135.763 61.6917 135.691 61.181 135.548 60.7854C135.412 60.3897 135.222 60.1009 134.976 59.9192C134.738 59.7375 134.457 59.6469 134.132 59.6475C133.815 59.648 133.534 59.7395 133.289 59.9221C133.052 60.1046 132.862 60.3939 132.721 60.7901C132.587 61.1862 132.52 61.6971 132.521 62.3227C132.523 62.9482 132.591 63.4588 132.726 63.8545C132.869 64.2502 133.06 64.5389 133.298 64.7207C133.544 64.9024 133.825 64.993 134.142 64.9924ZM142.206 66.6062C141.525 66.6073 140.915 66.4421 140.376 66.1104C139.837 65.7708 139.412 65.2805 139.102 64.6397C138.793 63.9988 138.637 63.223 138.635 62.3124C138.633 61.4018 138.786 60.6255 139.094 59.9836C139.402 59.3417 139.825 58.854 140.362 58.5205C140.9 58.1791 141.51 58.0078 142.191 58.0067C142.88 58.0055 143.49 58.1748 144.021 58.5144C144.56 58.846 144.984 59.3323 145.294 59.9732C145.604 60.6141 145.76 61.3898 145.762 62.3005C145.763 63.2111 145.61 63.9874 145.303 64.6293C144.995 65.2712 144.572 65.7628 144.034 66.1042C143.504 66.4377 142.895 66.605 142.206 66.6062ZM142.203 64.9789C142.528 64.9784 142.809 64.8868 143.046 64.7043C143.291 64.5218 143.481 64.2324 143.615 63.8363C143.756 63.4401 143.827 62.9293 143.826 62.3037C143.825 61.6781 143.752 61.1675 143.609 60.7718C143.474 60.3761 143.283 60.0874 143.037 59.9057C142.8 59.724 142.518 59.6334 142.194 59.6339C141.877 59.6345 141.596 59.726 141.351 59.9085C141.114 60.0911 140.924 60.3804 140.782 60.7766C140.648 61.1727 140.582 61.6836 140.583 62.3091C140.584 62.9347 140.652 63.4453 140.788 63.841C140.931 64.2367 141.121 64.5254 141.359 64.7072C141.605 64.8889 141.886 64.9795 142.203 64.9789ZM150.591 66.4496L150.576 58.1352L154.175 58.1291C154.919 58.1279 155.561 58.2496 156.099 58.4941C156.638 58.7308 157.055 59.0745 157.348 59.5254C157.642 59.9763 157.79 60.5145 157.791 61.14C157.792 61.7577 157.646 62.2924 157.354 62.7443C157.062 63.1961 156.647 63.5452 156.109 63.7916C155.571 64.0301 154.93 64.1499 154.185 64.1512L151.655 64.1554L152.509 63.2869L152.515 66.4464L150.591 66.4496ZM152.509 63.5007L151.653 62.5875L154.076 62.5835C154.67 62.5825 155.113 62.455 155.405 62.2012C155.698 61.9473 155.844 61.5947 155.843 61.1433C155.842 60.684 155.695 60.3279 155.401 60.075C155.108 59.8221 154.664 59.6962 154.07 59.6972L151.647 59.7012L152.501 58.7852L152.509 63.5007ZM162.12 66.5253C161.431 66.5264 160.817 66.3889 160.278 66.1127C159.739 65.8285 159.315 65.4372 159.005 64.9389C158.704 64.4405 158.552 63.8746 158.551 63.2411C158.55 62.5997 158.699 62.0333 158.999 61.5419C159.307 61.0425 159.73 60.6538 160.268 60.3757C160.806 60.0897 161.419 59.9462 162.108 59.945C162.781 59.9439 163.368 60.0854 163.867 60.3697C164.366 60.646 164.735 61.0453 164.974 61.5675L163.538 62.3419C163.371 62.0413 163.161 61.8199 162.907 61.6778C162.662 61.5357 162.392 61.4649 162.099 61.4654C161.782 61.4659 161.498 61.5377 161.244 61.6806C160.991 61.8236 160.79 62.0258 160.64 62.2874C160.498 62.549 160.427 62.8658 160.428 63.238C160.428 63.6102 160.5 63.9268 160.643 64.1878C160.794 64.4489 160.996 64.6505 161.25 64.7926C161.504 64.9347 161.789 65.0055 162.106 65.005C162.399 65.0045 162.668 64.9367 162.913 64.8017C163.166 64.6587 163.375 64.4327 163.541 64.1236L164.98 64.9051C164.743 65.4202 164.376 65.8207 163.877 66.1066C163.379 66.3846 162.793 66.5242 162.12 66.5253ZM168.199 66.5151C167.653 66.516 167.126 66.4536 166.619 66.3277C166.12 66.1939 165.724 66.0283 165.431 65.8308L166.046 64.4995C166.339 64.6811 166.684 64.831 167.08 64.9491C167.484 65.0593 167.88 65.1141 168.268 65.1134C168.696 65.1127 168.997 65.0607 169.171 64.9575C169.353 64.8542 169.443 64.7116 169.443 64.5294C169.443 64.379 169.371 64.2682 169.229 64.1972C169.094 64.1183 168.912 64.0592 168.682 64.02C168.452 63.9808 168.199 63.9416 167.922 63.9025C167.652 63.8633 167.379 63.8123 167.102 63.7494C166.824 63.6786 166.571 63.5761 166.341 63.4419C166.111 63.3076 165.925 63.1258 165.782 62.8964C165.647 62.667 165.579 62.3702 165.578 62.0059C165.578 61.6021 165.692 61.2456 165.921 60.9364C166.158 60.6271 166.498 60.3851 166.941 60.2101C167.384 60.0272 167.914 59.9353 168.532 59.9343C168.968 59.9335 169.411 59.9803 169.863 60.0746C170.314 60.1688 170.691 60.3068 170.992 60.4884L170.377 61.8079C170.067 61.6262 169.754 61.504 169.438 61.4412C169.129 61.3705 168.828 61.3353 168.535 61.3358C168.123 61.3365 167.822 61.3925 167.632 61.5036C167.442 61.6148 167.348 61.7575 167.348 61.9317C167.348 62.0901 167.416 62.2087 167.55 62.2877C167.693 62.3666 167.879 62.4297 168.109 62.4768C168.339 62.5239 168.588 62.5671 168.858 62.6062C169.135 62.6374 169.412 62.6884 169.689 62.7592C169.967 62.83 170.216 62.9326 170.438 63.0668C170.668 63.1931 170.854 63.371 170.997 63.6004C171.14 63.8218 171.212 64.1147 171.213 64.479C171.213 64.8749 171.095 65.2274 170.858 65.5367C170.621 65.838 170.277 66.0761 169.826 66.2511C169.383 66.426 168.841 66.514 168.199 66.5151ZM173.397 68.7157L171.627 68.7186C172.14 67.823 172.507 66.9236 172.727 66.0205C172.955 65.1095 173.068 64.1551 173.066 63.1574C173.064 62.1597 172.948 61.2097 172.717 60.3073C172.493 59.3971 172.124 58.495 171.607 57.6011L173.377 57.5981C173.869 58.302 174.243 59.1328 174.498 60.0905C174.753 61.0403 174.882 62.0616 174.884 63.1544C174.886 64.2471 174.761 65.2688 174.509 66.2195C174.257 67.1622 173.887 67.9943 173.397 68.7157Z" fill="black"/>
<path d="M177.347 61.6465H207.467" stroke="url(#paint0_linear_2040_836)" stroke-width="0.863039"/>
<path d="M31.1191 62.6934H0.998845" stroke="url(#paint1_linear_2040_836)" stroke-width="0.863039"/>
<defs>
<linearGradient id="paint0_linear_2040_836" x1="202.949" y1="62.1464" x2="177.849" y2="62.1465" gradientUnits="userSpaceOnUse">
<stop stop-color="#666666" stop-opacity="0"/>
<stop offset="1"/>
</linearGradient>
<linearGradient id="paint1_linear_2040_836" x1="5.51689" y1="63.1933" x2="30.6171" y2="63.1933" gradientUnits="userSpaceOnUse">
<stop stop-color="#666666" stop-opacity="0"/>
<stop offset="1"/>
</linearGradient>
</defs>
</svg>
